<svg style="max-height: 256px; background: var(--anatomy-gray-100); padding: 32px; margin-bottom: 16px; width: calc(100% - 64px); border-radius: var(--anatomy-radius);" viewBox="0 0 408 256">
  <title>Color area anatomy diagram</title>
  <desc>Shows a color area component with labels pointing to its parts, including the area, and thumb elements.</desc>
  <g transform="translate(44 0)" fill="var(--anatomy-gray-300)" stroke="rgba(73,110,194,0.1)" stroke-width="1">
    <rect width="256" height="256" rx="5" stroke="none" />
    <rect x="0.5" y="0.5" width="255" height="255" rx="4.5" fill="none" />
  </g>
  <g transform="translate(333.5 1757)" fill="var(--anatomy-gray-50)">
    <path
      d="M-66-1676a12.013,12.013,0,0,1-12-12,12.014,12.014,0,0,1,12-12,12.014,12.014,0,0,1,12,12A12.013,12.013,0,0,1-66-1676Zm0-21a9.01,9.01,0,0,0-9,9,9.01,9.01,0,0,0,9,9,9.011,9.011,0,0,0,9-9A9.011,9.011,0,0,0-66-1697Z"
      stroke="none" />
    <path
      d="M -66.00028228759766 -1676.000244140625 C -59.38348388671875 -1676.000244140625 -54.00030517578125 -1681.38330078125 -54.00030517578125 -1688 C -54.00030517578125 -1694.616943359375 -59.38348388671875 -1700 -66.00028228759766 -1700 C -72.61712646484375 -1700 -78.00030517578125 -1694.616943359375 -78.00030517578125 -1688 C -78.00030517578125 -1681.38330078125 -72.61712646484375 -1676.000244140625 -66.00028228759766 -1676.000244140625 M -66.00028228759766 -1697.00048828125 C -61.0374755859375 -1697.00048828125 -56.99995422363281 -1692.962890625 -56.99995422363281 -1688 C -56.99995422363281 -1683.037353515625 -61.0374755859375 -1678.999755859375 -66.00028228759766 -1678.999755859375 C -70.96236419677734 -1678.999755859375 -74.99928283691406 -1683.037353515625 -74.99928283691406 -1688 C -74.99928283691406 -1692.962890625 -70.96236419677734 -1697.00048828125 -66.00028228759766 -1697.00048828125 M -66.00028228759766 -1674.500244140625 C -73.44422149658203 -1674.500244140625 -79.50030517578125 -1680.55615234375 -79.50030517578125 -1688 C -79.50030517578125 -1695.443969726562 -73.44422149658203 -1701.5 -66.00028228759766 -1701.5 C -58.55637359619141 -1701.5 -52.50030517578125 -1695.443969726562 -52.50030517578125 -1688 C -52.50030517578125 -1680.55615234375 -58.55637359619141 -1674.500244140625 -66.00028228759766 -1674.500244140625 Z M -66.00028228759766 -1695.50048828125 C -70.13524627685547 -1695.50048828125 -73.49928283691406 -1692.1357421875 -73.49928283691406 -1688 C -73.49928283691406 -1683.864379882812 -70.13524627685547 -1680.499755859375 -66.00028228759766 -1680.499755859375 C -61.86458587646484 -1680.499755859375 -58.49995422363281 -1683.864379882812 -58.49995422363281 -1688 C -58.49995422363281 -1692.1357421875 -61.86458587646484 -1695.50048828125 -66.00028228759766 -1695.50048828125 Z"
      stroke="none" fill="rgba(73,110,194,0.42)" />
  </g>
  <g transform="translate(0 156)">
    <text fill="var(--anatomy-gray-700, white)" font-size="13" font-family="var(--anatomy-font)" font-style="italic">
      <tspan x="0" y="0">Area</tspan>
    </text>
    <g transform="translate(28 -6)">
      <path fill="var(--anatomy-gray-700, white)" d="M104.52,2.45c.07-2.94-4.43-3.38-4.95-.5H0v1H99.57c.52,2.89,5.02,2.44,4.95-.5Z"/>
    </g>
  </g>
  <g transform="translate(372 73)">
    <text fill="var(--anatomy-gray-700, white)" font-size="13" font-family="var(--anatomy-font)" font-style="italic">
      <tspan x="0" y="0">Thumb</tspan>
    </text>
    <g transform="translate(-372 -73)">
      <path fill="var(--anatomy-gray-700, white)" d="M265.08,69c-.07-2.94,4.43-3.38,4.95-.5h99.57v1h-99.57c-.52,2.89-5.02,2.44-4.95-.5Z" />
    </g>
  </g>
</svg>
