<svg style="max-height: 129px; background: var(--anatomy-gray-100); padding: 32px; margin-bottom: 16px; width: calc(100% - 64px); border-radius: var(--anatomy-radius);" viewBox="0 0 246 129">
  <title>Color slider anatomy diagram</title>
  <desc>Shows a color slider component with labels pointing to its parts, including the track, thumb, label, and output elements.</desc>
  <g transform="translate(-52 -34)">
    <g transform="translate(52 96)" fill="var(--anatomy-gray-300)" stroke="rgba(73,110,194,0.1)" stroke-width="1.5">
      <rect width="240" height="36" rx="6" stroke="none" />
      <rect x="0.75" y="0.75" width="238.5" height="34.5" rx="5.25" fill="none" />
    </g>
    <g transform="translate(272 1802)" fill="var(--anatomy-gray-50)">
      <path d="M-66-1676a12.013,12.013,0,0,1-12-12,12.014,12.014,0,0,1,12-12,12.014,12.014,0,0,1,12,12A12.013,12.013,0,0,1-66-1676Zm0-21a9.01,9.01,0,0,0-9,9,9.01,9.01,0,0,0,9,9,9.011,9.011,0,0,0,9-9A9.011,9.011,0,0,0-66-1697Z" stroke="none" />
      <path d="M -66.00028228759766 -1676.000244140625 C -59.38348388671875 -1676.000244140625 -54.00030517578125 -1681.38330078125 -54.00030517578125 -1688 C -54.00030517578125 -1694.616943359375 -59.38348388671875 -1700 -66.00028228759766 -1700 C -72.61712646484375 -1700 -78.00030517578125 -1694.616943359375 -78.00030517578125 -1688 C -78.00030517578125 -1681.38330078125 -72.61712646484375 -1676.000244140625 -66.00028228759766 -1676.000244140625 M -66.00028228759766 -1697.00048828125 C -61.0374755859375 -1697.00048828125 -56.99995422363281 -1692.962890625 -56.99995422363281 -1688 C -56.99995422363281 -1683.037353515625 -61.0374755859375 -1678.999755859375 -66.00028228759766 -1678.999755859375 C -70.96236419677734 -1678.999755859375 -74.99928283691406 -1683.037353515625 -74.99928283691406 -1688 C -74.99928283691406 -1692.962890625 -70.96236419677734 -1697.00048828125 -66.00028228759766 -1697.00048828125 M -66.00028228759766 -1674.500244140625 C -73.44422149658203 -1674.500244140625 -79.50030517578125 -1680.55615234375 -79.50030517578125 -1688 C -79.50030517578125 -1695.443969726562 -73.44422149658203 -1701.5 -66.00028228759766 -1701.5 C -58.55637359619141 -1701.5 -52.50030517578125 -1695.443969726562 -52.50030517578125 -1688 C -52.50030517578125 -1680.55615234375 -58.55637359619141 -1674.500244140625 -66.00028228759766 -1674.500244140625 Z M -66.00028228759766 -1695.50048828125 C -70.13524627685547 -1695.50048828125 -73.49928283691406 -1692.1357421875 -73.49928283691406 -1688 C -73.49928283691406 -1683.864379882812 -70.13524627685547 -1680.499755859375 -66.00028228759766 -1680.499755859375 C -61.86458587646484 -1680.499755859375 -58.49995422363281 -1683.864379882812 -58.49995422363281 -1688 C -58.49995422363281 -1692.1357421875 -61.86458587646484 -1695.50048828125 -66.00028228759766 -1695.50048828125 Z" stroke="none" fill="rgba(73,110,194,0.42)" />
    </g>
    <g transform="translate(-158 467.5)"><text transform="translate(364 -307.5)" fill="var(--anatomy-gray-700)" font-size="13" font-family="var(--anatomy-font)" style="font-style: italic">
        <tspan x="-18.128" y="0">Thumb</tspan>
      </text>
      <path d="M-6674-415.5v-27.05a2.5,2.5,0,0,1-2-2.45,2.5,2.5,0,0,1,2.5-2.5,2.5,2.5,0,0,1,2.5,2.5,2.5,2.5,0,0,1-2,2.45v27.05Z" transform="translate(7037.5 95)" fill="var(--anatomy-gray-500)" />
    </g>
    <g transform="translate(-258 467.5)"><text transform="translate(364 -307.5)" fill="var(--anatomy-gray-700)" font-size="13" font-family="var(--anatomy-font)" style="font-style: italic">
        <tspan x="-13.435" y="0">Track</tspan>
      </text>
      <path d="M-6674-422.381v-20.169a2.5,2.5,0,0,1-2-2.45,2.5,2.5,0,0,1,2.5-2.5,2.5,2.5,0,0,1,2.5,2.5,2.5,2.5,0,0,1-2,2.45v20.169Z" transform="translate(7037.5 101.882)" fill="var(--anatomy-gray-500)" />
    </g>
    <g transform="translate(-143 395)">
      <rect width="20" height="19" transform="translate(413 -343)" fill="red" opacity="0" /><text transform="translate(423 -348)" fill="var(--anatomy-gray-700)" font-size="13" font-family="var(--anatomy-font)" style="font-style: italic">
        <tspan x="-17.544" y="0">Output</tspan>
      </text>
      <path d="M-6714-361.5a2.5,2.5,0,0,1,2-2.45V-380h1v16.049a2.5,2.5,0,0,1,2,2.45,2.5,2.5,0,0,1-2.5,2.5A2.5,2.5,0,0,1-6714-361.5Z" transform="translate(7134.5 37)" fill="var(--anatomy-gray-500)" />
    </g>
    <g transform="translate(-336 395)">
      <rect width="20" height="19" transform="translate(392 -343)" fill="red" opacity="0" /><text transform="translate(402 -348)" fill="var(--anatomy-gray-700)" font-size="13" font-family="var(--anatomy-font)" style="font-style: italic">
        <tspan x="-13.826" y="0">Label</tspan>
      </text>
      <path d="M-6496-361.5a2.5,2.5,0,0,1,2-2.449V-380h1v16.051a2.5,2.5,0,0,1,2,2.449,2.5,2.5,0,0,1-2.5,2.5A2.5,2.5,0,0,1-6496-361.5Z" transform="translate(6895.5 37)" fill="var(--anatomy-gray-500)" />
      <rect width="20" height="19" transform="translate(392 -343)" fill="red" opacity="0" /><text transform="translate(402 -348)" fill="var(--anatomy-gray-700)" font-size="13" font-family="var(--anatomy-font)" style="font-style: italic">
        <tspan x="-13.826" y="0">Label</tspan>
      </text>
    </g><text transform="translate(52 87)" fill="var(--anatomy-gray-700)" font-size="18" font-family="var(--anatomy-font)">
      <tspan x="0" y="0">Hue</tspan>
    </text><text transform="translate(291 87)" fill="var(--anatomy-gray-700)" font-size="18" font-family="var(--anatomy-font)">
      <tspan x="-31.788" y="0">230°</tspan>
    </text>
  </g>
</svg>
