<svg style="max-height: 265px; background: var(--anatomy-gray-100); padding: 32px; margin-bottom: 16px; width: calc(100% - 64px); border-radius: var(--anatomy-radius);" viewBox="0 0 311.999 265">
  <title>Color wheel anatomy diagram</title>
  <desc>Shows a color wheel component with labels pointing to its parts, including the track, and thumb elements.</desc>
  <g transform="translate(-16 -40)">
    <g transform="translate(76 40)">
      <g transform="scale(0.75)" fill="var(--anatomy-gray-300)">
        <path d="M96,312a157.151,157.151,0,0,1-31.439-3.169A155.147,155.147,0,0,1,8.779,285.357a156.454,156.454,0,0,1-56.52-68.635,155.213,155.213,0,0,1-9.09-29.283,157.519,157.519,0,0,1,0-62.879A155.146,155.146,0,0,1-33.357,68.779a156.455,156.455,0,0,1,68.635-56.52,155.217,155.217,0,0,1,29.283-9.09,157.519,157.519,0,0,1,62.879,0,155.144,155.144,0,0,1,55.782,23.473,156.455,156.455,0,0,1,56.52,68.635,155.217,155.217,0,0,1,9.09,29.283,157.521,157.521,0,0,1,0,62.879,155.147,155.147,0,0,1-23.473,55.782,156.455,156.455,0,0,1-68.635,56.52,155.211,155.211,0,0,1-29.283,9.09A157.151,157.151,0,0,1,96,312ZM96,36a120.889,120.889,0,0,0-24.184,2.438A119.342,119.342,0,0,0,28.907,56.494a120.351,120.351,0,0,0-43.477,52.8,119.4,119.4,0,0,0-6.992,22.525,121.171,121.171,0,0,0,0,48.368A119.344,119.344,0,0,0-3.505,223.093a120.35,120.35,0,0,0,52.8,43.477,119.394,119.394,0,0,0,22.525,6.992,121.171,121.171,0,0,0,48.368,0,119.342,119.342,0,0,0,42.909-18.056,120.35,120.35,0,0,0,43.477-52.8,119.4,119.4,0,0,0,6.992-22.525,121.171,121.171,0,0,0,0-48.368,119.344,119.344,0,0,0-18.056-42.909,120.351,120.351,0,0,0-52.8-43.477,119.4,119.4,0,0,0-22.525-6.992A120.889,120.889,0,0,0,96,36Z" stroke="none" />
        <path d="M 96.00026702880859 310.4994506835938 C 106.48388671875 310.4994506835938 116.9604721069336 309.443359375 127.1389312744141 307.3605346679688 C 137.0575561523438 305.3309631347656 146.8142700195312 302.3022766113281 156.1380615234375 298.3587036132812 C 165.292724609375 294.4865417480469 174.1222991943359 289.6940002441406 182.3814697265625 284.1141967773438 C 190.5629730224609 278.5868530273438 198.2563934326172 272.2391967773438 205.2480163574219 265.2474365234375 C 212.2397155761719 258.2558288574219 218.5873870849609 250.5624084472656 224.1147613525391 242.3809051513672 C 229.6945953369141 234.1217346191406 234.4871368408203 225.2922058105469 238.3592681884766 216.1374969482422 C 242.3026733398438 206.8141632080078 245.3313446044922 197.0574035644531 247.3611450195312 187.1383209228516 C 249.4439239501953 176.9599914550781 250.5000152587891 166.4834442138672 250.5000152587891 155.9997406005859 C 250.5000152587891 145.5160369873047 249.4439239501953 135.0394439697266 247.3611450195312 124.8610763549805 C 245.3313446044922 114.9420776367188 242.3026733398438 105.1853637695312 238.3592681884766 95.86199188232422 C 234.4871368408203 86.70732116699219 229.6945953369141 77.87778472900391 224.1147613525391 69.6185302734375 C 218.5874328613281 61.43711471557617 212.2397613525391 53.74374008178711 205.2480163574219 46.75203323364258 C 198.2563934326172 39.76028060913086 190.5629730224609 33.41261672973633 182.3814697265625 27.88528251647949 C 174.1221313476562 22.30540657043457 165.2926025390625 17.51286506652832 156.1380615234375 13.64078235626221 C 146.8145599365234 9.697281837463379 137.0578002929688 6.668657302856445 127.1389312744141 4.638948917388916 C 116.9604721069336 2.556115627288818 106.48388671875 1.500032305717468 96.00026702880859 1.500032305717468 C 85.51667785644531 1.500032305717468 75.04013824462891 2.556115627288818 64.86167907714844 4.638948917388916 C 54.94268035888672 6.668698787689209 45.18597030639648 9.697323799133301 35.86259841918945 13.64078235626221 C 26.7080135345459 17.51286506652832 17.87847137451172 22.30540657043457 9.619138717651367 27.88528251647949 C 1.437846899032593 33.41244888305664 -6.255569934844971 39.76011657714844 -13.24740314483643 46.75203323364258 C -20.23898696899414 53.74357223510742 -26.58669471740723 61.43698883056641 -32.11415481567383 69.6185302734375 C -37.69415283203125 77.87807464599609 -42.4866943359375 86.70765686035156 -46.3586540222168 95.86199188232422 C -50.30215454101562 105.1855316162109 -53.33081817626953 114.9422378540039 -55.3604850769043 124.8610763549805 C -57.44332122802734 135.0395355224609 -58.49940490722656 145.51611328125 -58.49940490722656 155.9997406005859 C -58.49940490722656 166.4833679199219 -57.44332122802734 176.9598999023438 -55.3604850769043 187.1383209228516 C -53.33078002929688 197.0572814941406 -50.30215454101562 206.8139953613281 -46.3586540222168 216.1374969482422 C -42.48665237426758 225.2918243408203 -37.69415283203125 234.1213684082031 -32.11419296264648 242.3809051513672 C -26.58682060241699 250.5623168945312 -20.23911094665527 258.2557678222656 -13.24740314483643 265.2474365234375 C -6.255569934844971 272.2393188476562 1.437846899032593 278.5870056152344 9.619138717651367 284.1141967773438 C 17.87830543518066 289.6940002441406 26.70784759521484 294.486572265625 35.86259841918945 298.3587036132812 C 45.18584823608398 302.3021240234375 54.94255447387695 305.3307800292969 64.86167907714844 307.3605346679688 C 75.04013824462891 309.443359375 85.51667785644531 310.4994506835938 96.00026702880859 310.4994506835938 M 96.00026702880859 34.50003051757812 C 104.2428894042969 34.50003051757812 112.4808044433594 35.33053207397461 120.4851837158203 36.96844863891602 C 128.2867279052734 38.56490707397461 135.9607238769531 40.94707489013672 143.2940521240234 44.04878234863281 C 150.4940185546875 47.09420013427734 157.4379730224609 50.86328125 163.9330596923828 55.25140762329102 C 170.3662261962891 59.59753036499023 176.4157562255859 64.58882141113281 181.9136810302734 70.08670043945312 C 187.4114685058594 75.58457183837891 192.4028015136719 81.63411712646484 196.7489318847656 88.06736755371094 C 201.1371765136719 94.56282043457031 204.9062194824219 101.5067825317383 207.9513397216797 108.7064056396484 C 211.0530090332031 116.0394897460938 213.4351806640625 123.7134475708008 215.0316314697266 131.5150756835938 C 216.6695556640625 139.51953125 217.5000152587891 147.7573699951172 217.5000152587891 155.9997406005859 C 217.5000152587891 164.2422332763672 216.6695556640625 172.4801177978516 215.0316314697266 180.484619140625 C 213.4351348876953 188.2864837646484 211.052978515625 195.9605255126953 207.9513397216797 203.2936096191406 C 204.9061737060547 210.4932861328125 201.1371765136719 217.4373168945312 196.7489776611328 223.9327850341797 C 192.4027709960938 230.3660736083984 187.4114685058594 236.4156646728516 181.9136810302734 241.9135284423828 C 176.4157257080078 247.4114837646484 170.3661804199219 252.4028167724609 163.9330596923828 256.7489624023438 C 157.4377288818359 261.1372375488281 150.4937286376953 264.9063110351562 143.2940521240234 267.9515380859375 C 135.9608459472656 271.0532531738281 128.2868499755859 273.4353942871094 120.4851837158203 275.0319213867188 C 112.4807662963867 276.6698303222656 104.2428436279297 277.5003356933594 96.00026702880859 277.5003356933594 C 87.75772094726562 277.5003356933594 79.51980590820312 276.6698303222656 71.51538848876953 275.0319213867188 C 63.71359634399414 273.4353942871094 56.03959655761719 271.0532531738281 48.7065544128418 267.9515380859375 C 41.50701522827148 264.9064025878906 34.56305694580078 261.1373291015625 28.06755447387695 256.7489624023438 C 21.63430595397949 252.4027404785156 15.5847635269165 247.4114074707031 10.08693027496338 241.9135284423828 C 4.589179992675781 236.4156951904297 -0.4021115005016327 230.3661193847656 -4.748278141021729 223.9327850341797 C -9.136528015136719 217.4373168945312 -12.9055700302124 210.4933166503906 -15.9507360458374 203.2936096191406 C -19.0523624420166 195.9605255126953 -21.43452835083008 188.2864837646484 -23.03102874755859 180.484619140625 C -24.6689453125 172.4803314208984 -25.49940299987793 164.2424011230469 -25.49940299987793 155.9997406005859 C -25.49940299987793 147.7571563720703 -24.6689453125 139.5193176269531 -23.03102874755859 131.5150756835938 C -21.4345703125 123.7134475708008 -19.05240249633789 116.0394897460938 -15.9507360458374 108.7064056396484 C -12.90552806854248 101.5066986083984 -9.136486053466797 94.56269836425781 -4.748319625854492 88.06736755371094 C -0.4021531641483307 81.63407135009766 4.589179992675781 75.58453369140625 10.08693027496338 70.08670043945312 C 15.58472156524658 64.58890533447266 21.63426399230957 59.59761428833008 28.06755447387695 55.25140762329102 C 34.56255340576172 50.86336517333984 41.50651168823242 47.09424209594727 48.7065544128418 44.04878234863281 C 56.03959655761719 40.94715881347656 63.71359634399414 38.56499099731445 71.51538848876953 36.96844863891602 C 79.51976013183594 35.33053207397461 87.75768280029297 34.50003051757812 96.00026702880859 34.50003051757812 M 96.00026702880859 311.9994506835938 C 85.41584777832031 311.9994506835938 74.83818054199219 310.93310546875 64.56097412109375 308.830078125 C 54.54488754272461 306.7804870605469 44.69280624389648 303.7222290039062 35.27826309204102 299.7402038574219 C 26.03451347351074 295.8304138183594 17.1190128326416 290.9912719726562 8.779430389404297 285.3571166992188 C 0.519055187702179 279.7764892578125 -7.248694896697998 273.3674926757812 -14.30807018280029 266.30810546875 C -21.36731910705566 259.2488708496094 -27.77631950378418 251.4811096191406 -33.35711288452148 243.2206115722656 C -38.99123764038086 234.8809051513672 -43.83040237426758 225.9654541015625 -47.74015426635742 216.7218170166016 C -51.72219467163086 207.3072052001953 -54.78048706054688 197.4550323486328 -56.83002853393555 187.4390258789062 C -58.93307113647461 177.161865234375 -59.99940490722656 166.5841979980469 -59.99940490722656 155.9997406005859 C -59.99940490722656 145.415283203125 -58.93307113647461 134.8375701904297 -56.83002853393555 124.5603637695312 C -54.78048706054688 114.5443649291992 -51.72219467163086 104.6922836303711 -47.74015426635742 95.27765655517578 C -43.83040237426758 86.03398895263672 -38.99123764038086 77.1185302734375 -33.35711288452148 68.77882385253906 C -27.77631950378418 60.51836395263672 -21.36731910705566 52.75057220458984 -14.30807018280029 45.69136428833008 C -7.248694896697998 38.63195037841797 0.519055187702179 32.22294998168945 8.779430389404297 26.64236640930176 C 17.1190128326416 21.00823974609375 26.03451347351074 16.1690731048584 35.27826309204102 12.25928211212158 C 44.69280624389648 8.27728271484375 54.54497146606445 5.218990802764893 64.56097412109375 3.169407367706299 C 74.83818054199219 1.066365599632263 85.41584777832031 3.226725311833434e-05 96.00026702880859 3.226725311833434e-05 C 106.5847244262695 3.226725311833434e-05 117.1624298095703 1.066365599632263 127.4396362304688 3.169407367706299 C 137.4555511474609 5.218948841094971 147.3077239990234 8.277240753173828 156.7223815917969 12.25928211212158 C 165.9660491943359 16.1690731048584 174.8815612792969 21.00823974609375 183.2211761474609 26.64236640930176 C 191.4816436767578 32.2230339050293 199.2494354248047 38.63203048706055 206.3086853027344 45.69136428833008 C 213.3679656982422 52.75061416625977 219.7769775390625 60.51836395263672 225.3576812744141 68.77882385253906 C 230.9917602539062 77.11832427978516 235.8309326171875 86.03382110595703 239.7407684326172 95.27765655517578 C 243.7227630615234 104.6921997070312 246.7810516357422 114.5443267822266 248.8306732177734 124.5603637695312 C 250.9337158203125 134.8376159667969 252.0000152587891 145.4153289794922 252.0000152587891 155.9997406005859 C 252.0000152587891 166.5841217041016 250.9337158203125 177.1618194580078 248.8306732177734 187.4390258789062 C 246.7810516357422 197.4551086425781 243.7227630615234 207.3072814941406 239.7407684326172 216.7218170166016 C 235.8309326171875 225.9656524658203 230.9917602539062 234.8811645507812 225.3576812744141 243.2206115722656 C 219.7769775390625 251.4810791015625 213.3679656982422 259.2488708496094 206.3086853027344 266.30810546875 C 199.2494354248047 273.3674621582031 191.4816436767578 279.7764587402344 183.2211761474609 285.3571166992188 C 174.8815612792969 290.9912719726562 165.9660491943359 295.8304138183594 156.7223815917969 299.7402038574219 C 147.3077239990234 303.7222290039062 137.4556427001953 306.7805786132812 127.4396362304688 308.830078125 C 117.1624298095703 310.93310546875 106.5847244262695 311.9994506835938 96.00026702880859 311.9994506835938 Z M 96.00026702880859 36.00003051757812 C 87.85851287841797 36.00003051757812 79.72172546386719 36.82028198242188 71.81609344482422 38.43799209594727 C 64.11126708984375 40.01469802856445 56.53272247314453 42.36724090576172 49.29088973999023 45.43028259277344 C 42.18030548095703 48.43790817260742 35.32226181030273 52.16032409667969 28.90726280212402 56.49432373046875 C 22.55305480957031 60.78711700439453 16.57784652709961 65.71711730957031 11.14759731292725 71.14736938476562 C 5.717346668243408 76.57765960693359 0.7873885035514832 82.55286407470703 -3.505361557006836 88.90707397460938 C -7.839278221130371 95.32207489013672 -11.56173610687256 102.1801605224609 -14.56923675537109 109.2907409667969 C -17.63232040405273 116.5326156616211 -19.98486137390137 124.1111602783203 -21.56148719787598 131.8157806396484 C -23.17919540405273 139.7214050292969 -23.99940299987793 147.8580780029297 -23.99940299987793 155.9997406005859 C -23.99940299987793 164.1414947509766 -23.17919540405273 172.2782440185547 -21.56148719787598 180.1839141845703 C -19.98486137390137 187.8886108398438 -17.63236236572266 195.4672393798828 -14.56923675537109 202.7092895507812 C -11.56173610687256 209.8199005126953 -7.839319705963135 216.6779479980469 -3.505361557006836 223.0930786132812 C 0.7873885035514832 229.4472808837891 5.717346668243408 235.4225311279297 11.14759731292725 240.8528594970703 C 16.57788848876953 246.283203125 22.55309677124023 251.2132415771484 28.90726280212402 255.5060272216797 C 35.32255554199219 259.8402099609375 42.18059539794922 263.5626525878906 49.29088973999023 266.5700378417969 C 56.5328483581543 269.6332092285156 64.11142730712891 271.9857482910156 71.81609344482422 273.5623779296875 C 79.7215576171875 275.1800231933594 87.85826110839844 276.0003356933594 96.00026702880859 276.0003356933594 C 104.1422653198242 276.0003356933594 112.2790145874023 275.1800231933594 120.1844711303711 273.5623779296875 C 127.8890533447266 271.9857482910156 135.4676361083984 269.6332092285156 142.709716796875 266.5700378417969 C 149.8200531005859 263.5626220703125 156.6781311035156 259.8401489257812 163.0933532714844 255.5060272216797 C 169.4473876953125 251.2133178710938 175.4225921630859 246.2832794189453 180.8530120849609 240.8528594970703 C 186.2833404541016 235.4224548339844 191.2133026123047 229.4472045898438 195.5060119628906 223.0930786132812 C 199.8399658203125 216.6779022216797 203.5623931884766 209.81982421875 206.5698394775391 202.7092895507812 C 209.6329650878906 195.4672393798828 211.9854736328125 187.8886108398438 213.5621032714844 180.1839141845703 C 215.1797637939453 172.2782440185547 216.0000152587891 164.1414947509766 216.0000152587891 155.9997406005859 C 216.0000152587891 147.8580780029297 215.1797637939453 139.7214050292969 213.5621032714844 131.8157806396484 C 211.9854736328125 124.1111602783203 209.6329345703125 116.5326156616211 206.5698394775391 109.2907409667969 C 203.5623931884766 102.1801986694336 199.8399353027344 95.32211303710938 195.5060119628906 88.90707397460938 C 191.2133026123047 82.55294799804688 186.2833404541016 76.57774353027344 180.8530120849609 71.14736938476562 C 175.4226379394531 65.71703338623047 169.4474334716797 60.78703308105469 163.0933532714844 56.49432373046875 C 156.6782989501953 52.16032409667969 149.8203125 48.43790817260742 142.709716796875 45.43028259277344 C 135.4678039550781 42.36724090576172 127.8892669677734 40.01465606689453 120.1844711303711 38.43799209594727 C 112.2788467407227 36.82028198242188 104.1420974731445 36.00003051757812 96.00026702880859 36.00003051757812 Z" stroke="none" fill="rgba(73,110,194,0.1)" />
      </g>
    </g>
    <g transform="scale(0.75) translate(291 1762)" fill="var(--anatomy-gray-50)">
      <path d="M-66-1676a12.013,12.013,0,0,1-12-12,12.014,12.014,0,0,1,12-12,12.014,12.014,0,0,1,12,12A12.013,12.013,0,0,1-66-1676Zm0-21a9.01,9.01,0,0,0-9,9,9.01,9.01,0,0,0,9,9,9.011,9.011,0,0,0,9-9A9.011,9.011,0,0,0-66-1697Z" stroke="none" />
      <path d="M -66.00028228759766 -1676.000244140625 C -59.38348388671875 -1676.000244140625 -54.00030517578125 -1681.38330078125 -54.00030517578125 -1688 C -54.00030517578125 -1694.616943359375 -59.38348388671875 -1700 -66.00028228759766 -1700 C -72.61712646484375 -1700 -78.00030517578125 -1694.616943359375 -78.00030517578125 -1688 C -78.00030517578125 -1681.38330078125 -72.61712646484375 -1676.000244140625 -66.00028228759766 -1676.000244140625 M -66.00028228759766 -1697.00048828125 C -61.0374755859375 -1697.00048828125 -56.99995422363281 -1692.962890625 -56.99995422363281 -1688 C -56.99995422363281 -1683.037353515625 -61.0374755859375 -1678.999755859375 -66.00028228759766 -1678.999755859375 C -70.96236419677734 -1678.999755859375 -74.99928283691406 -1683.037353515625 -74.99928283691406 -1688 C -74.99928283691406 -1692.962890625 -70.96236419677734 -1697.00048828125 -66.00028228759766 -1697.00048828125 M -66.00028228759766 -1674.500244140625 C -73.44422149658203 -1674.500244140625 -79.50030517578125 -1680.55615234375 -79.50030517578125 -1688 C -79.50030517578125 -1695.443969726562 -73.44422149658203 -1701.5 -66.00028228759766 -1701.5 C -58.55637359619141 -1701.5 -52.50030517578125 -1695.443969726562 -52.50030517578125 -1688 C -52.50030517578125 -1680.55615234375 -58.55637359619141 -1674.500244140625 -66.00028228759766 -1674.500244140625 Z M -66.00028228759766 -1695.50048828125 C -70.13524627685547 -1695.50048828125 -73.49928283691406 -1692.1357421875 -73.49928283691406 -1688 C -73.49928283691406 -1683.864379882812 -70.13524627685547 -1680.499755859375 -66.00028228759766 -1680.499755859375 C -61.86458587646484 -1680.499755859375 -58.49995422363281 -1683.864379882812 -58.49995422363281 -1688 C -58.49995422363281 -1692.1357421875 -61.86458587646484 -1695.50048828125 -66.00028228759766 -1695.50048828125 Z" stroke="none" fill="rgba(73,110,194,0.42)" />
    </g>
    <g transform="translate(-250 612)"><text transform="translate(364 -307.5)" fill="var(--anatomy-gray-700)" font-size="13" font-family="var(--anatomy-font)" style="font-style: italic">
        <tspan x="-13.435" y="0">Track</tspan>
      </text>
      <path d="M-6674-407.5v-35.05a2.5,2.5,0,0,1-2-2.45,2.5,2.5,0,0,1,2.5-2.5,2.5,2.5,0,0,1,2.5,2.5,2.5,2.5,0,0,1-2,2.45v35.05Z" transform="translate(7037.5 86.676)" fill="var(--anatomy-gray-500)" />
    </g>
    <g transform="translate(-195 445)"><text transform="translate(364 -307.5)" fill="var(--anatomy-gray-700)" font-size="13" font-family="var(--anatomy-font)" style="font-style: italic">
        <tspan x="-18.128" y="0">Thumb</tspan>
      </text>
      <path d="M-6674-415.5v-57.049a2.5,2.5,0,0,1-2-2.45,2.5,2.5,0,0,1,2.5-2.5,2.5,2.5,0,0,1,2.5,2.5,2.5,2.5,0,0,1-2,2.45V-415.5Z" transform="translate(7037.5 95)" fill="var(--anatomy-gray-500)" />
    </g>
  </g>
</svg>
