<svg style="max-height: 113px; background: var(--anatomy-gray-100); padding: 32px; margin-bottom: 16px; width: calc(100% - 64px); border-radius: 4px;" viewBox="0 0 272 113">
  <title>Text field anatomy diagram</title>
  <desc>Shows a text field component with labels pointing to its parts, including the input, and label elements.</desc>
  <g transform="translate(-341 -39)">
    <g transform="translate(309 38)">
      <rect width="264" height="84" transform="translate(40 30)" fill="red" opacity="0" />
      <g transform="translate(40 66)" fill="var(--anatomy-gray-50)" stroke="var(--anatomy-gray-400)" stroke-width="1.5">
        <rect width="264" height="48" rx="6" stroke="none" />
        <rect x="0.75" y="0.75" width="262.5" height="46.5" rx="5.25" fill="none" />
      </g><text transform="translate(58 96)" fill="var(--anatomy-gray-800)" font-size="21" font-family="Adobe-Clean">
        <tspan x="0" y="0">Value</tspan>
      </text><text transform="translate(40 54)" fill="var(--anatomy-gray-700)" font-size="18" font-family="Adobe-Clean">
        <tspan x="0" y="0">Label</tspan>
      </text>
    </g>
    <g transform="translate(156 435)">
      <rect width="20" height="19" transform="translate(392 -343)" fill="red" opacity="0" /><text transform="translate(402 -348)" fill="var(--anatomy-gray-700)" font-size="13" font-family="Adobe-Clean" style="font-style: italic">
        <tspan x="-13.149" y="0">Input</tspan>
      </text>
      <circle cx="2.5" cy="2.5" r="2.5" transform="translate(399.5 -317)" fill="var(--anatomy-gray-500)" />
      <rect width="1" height="27" transform="translate(401.5 -343)" fill="var(--anatomy-gray-500)" />
    </g>
    <g transform="translate(-41 400)">
      <rect width="20" height="19" transform="translate(392 -343)" fill="red" opacity="0" /><text transform="translate(410 -348)" fill="var(--anatomy-gray-700)" font-size="13" font-family="Adobe-Clean" style="font-style: italic">
        <tspan x="-27.651" y="0">Label</tspan>
      </text>
      <circle cx="2.5" cy="2.5" r="2.5" transform="translate(399.5 -327)" fill="var(--anatomy-gray-500)" />
      <rect width="1" height="17" transform="translate(401.5 -343)" fill="var(--anatomy-gray-500)" />
    </g>
  </g>
</svg>
