<svg style="background: var(--anatomy-gray-100); padding: 32px; margin-bottom: 16px; width: calc(100% - 64px); border-radius: 4px;" viewBox="0 0 976 344">
  <title>Tabs anatomy diagram</title>
  <desc>Shows a tabs component with labels for each tab, a selection state, and the tab view.</desc>
  <defs>
    <clipPath id="clip-tabs_anatomy_desktop">
      <rect width="976" height="344"/>
    </clipPath>
  </defs>
  <g id="tabs_anatomy_desktop" clip-path="url(#clip-tabs_anatomy_desktop)">
    <g id="Tab" transform="translate(176 66)">
      <g id="Tab-2">
        <text id="Section_1" transform="translate(0 35)" fill="var(--anatomy-gray-800)" font-size="17" font-family="AdobeClean-Regular, Adobe Clean"><tspan x="0" y="0">Section 1</tspan></text>
      </g>
      <g id="Tab-3" transform="translate(91)">
        <text id="Section_2" transform="translate(0 35)" fill="var(--anatomy-gray-600)" font-size="17" font-family="AdobeClean-Regular, Adobe Clean"><tspan x="0" y="0">Section 2</tspan></text>
      </g>
      <g id="Underline" transform="translate(0 58)">
        <rect id="Bar" width="271.906" height="2" rx="1" fill="var(--anatomy-gray-200)"/>
      </g>
      <rect id="Underline-2" width="61" height="2" rx="1" transform="translate(0 58)" fill="var(--anatomy-gray-800)"/>
    </g>
    <g id="Group_4076" transform="translate(-106 395)">
      <text id="Tab_item" transform="translate(402 -342)" fill="var(--anatomy-gray-700)" font-size="13" font-family="AdobeClean-It, Adobe Clean" font-style="italic"><tspan x="-21.86" y="0">Tab item</tspan></text>
      <path id="Union_63" d="M-9998-346.5a2.5,2.5,0,0,1,2-2.449V-372h1v23.049a2.5,2.5,0,0,1,2,2.449,2.5,2.5,0,0,1-2.5,2.5A2.5,2.5,0,0,1-9998-346.5Z" transform="translate(10397.5 35)" fill="var(--anatomy-gray-500)"/>
    </g>
    <g id="Group_4101" transform="translate(-197 395)">
      <text id="Tab_item_selected_" transform="translate(402 -342)" fill="var(--anatomy-gray-700)" font-size="13" font-family="AdobeClean-It, Adobe Clean" font-style="italic"><tspan x="-47.586" y="0">Tab item (selected)</tspan></text>
      <path id="Union_63-2" d="M-9998-346.5a2.5,2.5,0,0,1,2-2.449V-372h1v23.049a2.5,2.5,0,0,1,2,2.449,2.5,2.5,0,0,1-2.5,2.5A2.5,2.5,0,0,1-9998-346.5Z" transform="translate(10397.5 35)" fill="var(--anatomy-gray-500)"/>
    </g>
    <rect id="Rectangle_1809" width="271.906" height="170" transform="translate(176 134)" fill="var(--anatomy-gray-200)" opacity="0.5"/>
    <g id="Group_3783" transform="translate(-20 70)">
      <text id="Tabs" transform="translate(156 35)" fill="var(--anatomy-gray-700)" font-size="13" font-family="AdobeClean-It, Adobe Clean" font-style="italic"><tspan x="-22.971" y="0">Tabs</tspan></text>
      <path id="Union_7" d="M72.05-35H52v-1H72.05a2.5,2.5,0,0,1,2.45-2A2.5,2.5,0,0,1,77-35.5,2.5,2.5,0,0,1,74.5-33,2.5,2.5,0,0,1,72.05-35Z" transform="translate(108 67.5)" fill="var(--anatomy-gray-500)"/>
    </g>
    <g id="Group_3916" transform="translate(-20 177)">
      <text id="Tab_view" transform="translate(156 35)" fill="var(--anatomy-gray-700)" font-size="13" font-family="AdobeClean-It, Adobe Clean" font-style="italic"><tspan x="-44.473" y="0">Tab view</tspan></text>
      <path id="Union_7-2" d="M18.717,3H0V2H18.717a2.5,2.5,0,1,1,0,1Z" transform="translate(161 29.5)" fill="var(--anatomy-gray-500)"/>
    </g>
    <g id="LG_-_Tabs_Vertical_default_" transform="translate(395 -69.999)">
      <rect id="Bar-2" width="217.999" height="2" rx="1" transform="translate(207 156) rotate(90)" fill="var(--anatomy-gray-200)"/>
      <g id="LG_-_Tab_Item_default_" transform="translate(223 216)">
        <text id="Section_2-2" transform="translate(0 35)" fill="var(--anatomy-gray-600)" font-size="17" font-family="AdobeClean-Regular, Adobe Clean"><tspan x="0" y="0">Section 2</tspan></text>
      </g>
      <g id="LG_-_Tab_Item_-_Vertical_selected_" transform="translate(205 156)">
        <rect id="Underline-3" width="60" height="2" rx="1" transform="translate(2) rotate(90)" fill="var(--anatomy-gray-800)"/>
        <text id="Section_1-2" transform="translate(18 35)" fill="var(--anatomy-gray-800)" font-size="17" font-family="AdobeClean-Regular, Adobe Clean"><tspan x="0" y="0">Section 1</tspan></text>
      </g>
    </g>
    <rect id="Rectangle_136824" width="147.906" height="218" transform="translate(738 86)" fill="var(--anatomy-gray-200)" opacity="0.5"/>
    <g id="Group_4122" transform="translate(407 395)">
      <text id="Tab_view-2" transform="translate(402 -342)" fill="var(--anatomy-gray-700)" font-size="13" font-family="AdobeClean-It, Adobe Clean" font-style="italic"><tspan x="-22.236" y="0">Tab view</tspan></text>
      <g id="Group_4106">
        <path id="Union_63-3" d="M0,19.5a2.5,2.5,0,0,1,2-2.45V0H3V17.048A2.5,2.5,0,1,1,0,19.5Z" transform="translate(399.5 -336.999)" fill="var(--anatomy-gray-500)"/>
      </g>
    </g>
    <g id="Group_4123" transform="translate(203 395)">
      <text id="Tabs-2" transform="translate(402 -342)" fill="var(--anatomy-gray-700)" font-size="13" font-family="AdobeClean-It, Adobe Clean" font-style="italic"><tspan x="-11.486" y="0">Tabs</tspan></text>
      <g id="Group_4105">
        <path id="Union_63-4" d="M0,19.5a2.5,2.5,0,0,1,2-2.45V0H3V17.049A2.5,2.5,0,1,1,0,19.5Z" transform="translate(399.5 -337)" fill="var(--anatomy-gray-500)"/>
      </g>
    </g>
    <g id="Group_4118" transform="translate(417 143)">
      <text id="Tab_item-2" transform="translate(156 35)" fill="var(--anatomy-gray-700)" font-size="13" font-family="AdobeClean-It, Adobe Clean" font-style="italic"><tspan x="-43.719" y="0">Tab item</tspan></text>
      <path id="Union_7-3" d="M31.05,3H0V2H31.05a2.5,2.5,0,1,1,0,1Z" transform="translate(161 29.5)" fill="var(--anatomy-gray-500)"/>
    </g>
    <g id="Group_4121" transform="translate(258 395)">
      <text id="Tab_item_selected_2" data-name="Tab item
(selected)" transform="translate(402 -342)" fill="var(--anatomy-gray-700)" font-size="13" font-family="AdobeClean-It, Adobe Clean" font-style="italic"><tspan x="-23.361" y="0">Tab item </tspan><tspan x="-24.226" y="16">(selected)</tspan></text>
      <g id="Group_4107" transform="translate(0 15.955)">
        <path id="Union_63-5" d="M0,29.624a2.5,2.5,0,0,1,2-2.45V0H3V27.174a2.5,2.5,0,1,1-3,2.45Z" transform="translate(399.5 -336.999)" fill="var(--anatomy-gray-500)"/>
      </g>
    </g>
  </g>
</svg>
