<svg style="max-height: 145px; background: var(--anatomy-gray-100); padding: 32px; margin-bottom: 16px; width: calc(100% - 64px); border-radius: var(--anatomy-radius);" viewBox="0 0 325 145">
  <g id="Group_22773" data-name="Group 22773" transform="translate(-4 -56)">
    <g id="Rectangle_136479" data-name="Rectangle 136479" transform="translate(4 87)" fill="none" stroke="#4a6cc2" stroke-width="1" stroke-dasharray="3">
      <rect width="324" height="88" rx="8" stroke="none"/>
      <rect x="0.5" y="0.5" width="323" height="87" rx="7.5" fill="none"/>
    </g>
    <rect id="rectangle-18" width="308" height="72" rx="6" transform="translate(12 95)" fill="#496ec2"/>
    <g id="Close" transform="translate(262.5 107)">
      <rect id="Placement_Area" data-name="Placement Area" width="48" height="48" fill="red" opacity="0"/>
      <g id="Icon" transform="translate(18 18)">
        <rect id="Frame" width="12" height="12" fill="#f0f" opacity="0"/>
        <path id="Shape" d="M11.67,10.079,7.591,6,11.67,1.921A1.125,1.125,0,1,0,10.079.33L6,4.409,1.921.33A1.125,1.125,0,1,0,.33,1.921L4.409,6,.33,10.079A1.125,1.125,0,1,0,1.921,11.67L6,7.591l4.079,4.079a1.125,1.125,0,1,0,1.591-1.591Z" transform="translate(0 0)" fill="#fefefe"/>
      </g>
    </g>
    <text id="Typography" transform="translate(75 138)" fill="#fff" font-size="21" font-family="var(--anatomy-font)"><tspan x="0" y="0">Analysis complete</tspan></text>
    <g id="Group_1" data-name="Group 1" transform="translate(36 118)">
      <rect id="ToDelete" width="27" height="27" fill="var(--anatomy-gray-600)" opacity="0"/>
      <path id="Path_2607" data-name="Path 2607" d="M12,1A12,12,0,1,0,24,13,12,12,0,0,0,12,1Zm8,6.81-9.486,12.2a.9.9,0,0,1-.656.345H9.8a.9.9,0,0,1-.638-.264l-5.839-5.85a.9.9,0,0,1,0-1.273l.995-.995a.9.9,0,0,1,1.272,0L9.6,15.986,17.484,5.856a.9.9,0,0,1,1.264-.15l1.092.849A.9.9,0,0,1,20,7.81Z" transform="translate(0 0.5)" fill="#fff"/>
    </g>
    <g id="Group_4" data-name="Group 4" transform="translate(-299 411)">
      <rect id="Rectangle_3659" data-name="Rectangle 3659" width="20" height="23" transform="translate(392 -343)" fill="red" opacity="0"/>
      <text id="Title" transform="translate(402 -342)" fill="var(--anatomy-gray-700)" font-size="13" font-family="var(--anatomy-font)" font-style="italic"><tspan x="-10.699" y="0">Title</tspan></text>
      <path id="Union_56" data-name="Union 56" d="M-9134-317.5a2.5,2.5,0,0,1,2-2.451V-370h1v50.05a2.5,2.5,0,0,1,2,2.451,2.5,2.5,0,0,1-2.5,2.5A2.5,2.5,0,0,1-9134-317.5Z" transform="translate(9533.5 33)" fill="#a2b6e1"/>
    </g>
    <g id="Group_5" data-name="Group 5" transform="translate(-105 411)">
      <rect id="Rectangle_3659-2" data-name="Rectangle 3659" width="20" height="23" transform="translate(392 -343)" fill="red" opacity="0"/>
      <text id="Close_button" data-name="Close button" transform="translate(402 -342)" fill="var(--anatomy-gray-700)" font-size="13" font-family="var(--anatomy-font)" font-style="italic"><tspan x="-31.427" y="0">Close button</tspan></text>
      <path id="Union_56-2" data-name="Union 56" d="M-9134-317.5a2.5,2.5,0,0,1,2-2.451V-370h1v50.05a2.5,2.5,0,0,1,2,2.451,2.5,2.5,0,0,1-2.5,2.5A2.5,2.5,0,0,1-9134-317.5Z" transform="translate(9533.5 33)" fill="#a2b6e1"/>
    </g>
    <g id="Group_6" data-name="Group 6" transform="translate(-213 519.5)">
      <rect id="Rectangle_3659-3" data-name="Rectangle 3659" width="20" height="23" transform="translate(354 -352.5)" fill="red" opacity="0"/>
      <text id="Toast" transform="translate(364 -321.5)" fill="var(--anatomy-gray-700)" font-size="13" font-family="var(--anatomy-font)" font-style="italic"><tspan x="-13.24" y="0">Toast</tspan></text>
      <path id="Union_55" data-name="Union 55" d="M-9119-408.5v-15.05a2.5,2.5,0,0,1-2-2.45,2.5,2.5,0,0,1,2.5-2.5,2.5,2.5,0,0,1,2.5,2.5,2.5,2.5,0,0,1-2,2.449v15.05Z" transform="translate(9482.5 74)" fill="#a2b6e1"/>
    </g>
    <g id="Group_22772" data-name="Group 22772" transform="translate(-101 526.5)">
      <rect id="Rectangle_3659-4" data-name="Rectangle 3659" width="20" height="23" transform="translate(354 -352.5)" fill="red" opacity="0"/>
      <text id="Region" transform="translate(364 -328.5)" fill="var(--anatomy-gray-700)" font-size="13" font-family="var(--anatomy-font)" font-style="italic"><tspan x="-17.556" y="0">Region</tspan></text>
      <path id="Union_55-2" data-name="Union 55" d="M-9119-415.5v-8.05a2.5,2.5,0,0,1-2-2.45,2.5,2.5,0,0,1,2.5-2.5,2.5,2.5,0,0,1,2.5,2.5,2.5,2.5,0,0,1-2,2.449v8.05Z" transform="translate(9482.5 74)" fill="#a2b6e1"/>
    </g>
  </g>
</svg>
