<svg style="max-height: 284px; background: #f4f6fc; padding: 32px; margin-bottom: 16px; width: calc(100% - 64px); border-radius: 4px;" viewBox="0 20 537 284">
  <title>Menu anatomy diagram</title>
  <desc>Shows a menu with labels pointing to its parts, including the label, menu, group, section heading, menu item, menu item label, menu item description, and menu item keyboard shortcut elements.</desc>
  <g transform="translate(-356 -35)">
    <g transform="translate(504 100)" fill="#fff" stroke="#beccea" stroke-width="1.5">
      <rect width="214" height="239" rx="6" stroke="none" />
      <rect x="0.75" y="0.75" width="212.5" height="237.5" rx="5.25" fill="none" />
    </g>
    <g transform="translate(505 131)" fill="#486ec2" opacity="0.04">
      <path d="M0,0H212V64H0Z" stroke="none" />
      <path d="M 1 1 L 1 63 L 211 63 L 211 1 L 1 1 M 0 0 L 212 0 L 212 64 L 0 64 L 0 0 Z" stroke="none" fill="rgba(0,0,0,0)" />
    </g><text transform="translate(522 158)" fill="#496ec2" font-size="20" font-family="Adobe-Clean">
      <tspan x="0" y="0">Option 1</tspan>
    </text><text transform="translate(522 227)" fill="#496ec2" font-size="20" font-family="Adobe-Clean">
      <tspan x="0" y="0">Option 2</tspan>
    </text>
    <g transform="translate(397 498.5)"><text transform="translate(346 -316.5)" fill="#4a6fc3" font-size="13" font-family="Adobe-Clean" style="font-style: italic">
        <tspan x="0" y="0">Menu item</tspan>
      </text>
      <path d="M-1244-611.5V-639.55a2.5,2.5,0,0,1-2-2.449,2.5,2.5,0,0,1,2.5-2.5,2.5,2.5,0,0,1,2.5,2.5,2.5,2.5,0,0,1-2,2.449V-611.5Z" transform="translate(953 -1564.5) rotate(-90)" fill="#a2b6e1" />
    </g>
    <g transform="translate(397 472.5)"><text transform="translate(346 -316.5)" fill="#4a6fc3" font-size="13" font-family="Adobe-Clean" style="font-style: italic">
        <tspan x="0" y="0">Menu item keyboard shortcut</tspan>
      </text>
      <path d="M-1244-611.5v-32.05a2.5,2.5,0,0,1-2-2.45,2.5,2.5,0,0,1,2.5-2.5,2.5,2.5,0,0,1,2.5,2.5,2.5,2.5,0,0,1-2,2.45v32.05Z" transform="translate(953 -1564.5) rotate(-90)" fill="#a2b6e1" />
    </g>
    <g transform="translate(104 500.755)"><text transform="translate(366 -344.755)" fill="#4a6fc3" font-size="13" font-family="Adobe-Clean" style="font-style: italic">
        <tspan x="-82.589" y="0">Menu item label</tspan>
      </text>
      <path d="M2,42V4.95a2.5,2.5,0,1,1,1,0V42Z" transform="translate(413.5 -351.754) rotate(90)" fill="#a2b6e1" />
    </g><text transform="translate(522 183)" fill="rgba(73,110,194,0.75)" font-size="16" font-family="Adobe-Clean">
      <tspan x="0" y="0">Description</tspan>
    </text><text transform="translate(522 252)" fill="rgba(73,110,194,0.75)" font-size="16" font-family="Adobe-Clean">
      <tspan x="0" y="0">Description</tspan>
    </text><text transform="translate(522 295)" fill="#496ec2" font-size="20" font-family="Adobe-Clean">
      <tspan x="0" y="0">Option 3</tspan>
    </text><text transform="translate(522 320)" fill="rgba(73,110,194,0.75)" font-size="16" font-family="Adobe-Clean">
      <tspan x="0" y="0">Description</tspan>
    </text>
    <g transform="translate(104 526.755)"><text transform="translate(366 -344.755)" fill="#4a6fc3" font-size="13" font-family="Adobe-Clean" style="font-style: italic">
        <tspan x="-113.126" y="0">Menu item description</tspan>
      </text>
      <path d="M2,42V4.95a2.5,2.5,0,1,1,1,0V42Z" transform="translate(413.5 -351.754) rotate(90)" fill="#a2b6e1" />
    </g>
    <g transform="translate(295 421)">
      <rect width="20" height="23" transform="translate(392 -343)" fill="red" opacity="0" /><text transform="translate(402 -349)" fill="#4a6fc3" font-size="13" font-family="Adobe-Clean" style="font-style: italic">
        <tspan x="-14.612" y="0">Menu</tspan>
      </text>
      <path d="M-1170-358.5a2.5,2.5,0,0,1,2-2.45V-381h1v20.05a2.5,2.5,0,0,1,2,2.45,2.5,2.5,0,0,1-2.5,2.5A2.5,2.5,0,0,1-1170-358.5Z" transform="translate(1569.5 38)" fill="#a2b6e1" />
      <path d="M-1170-358.5a2.5,2.5,0,0,1,2-2.45V-381h1v20.05a2.5,2.5,0,0,1,2,2.45,2.5,2.5,0,0,1-2.5,2.5A2.5,2.5,0,0,1-1170-358.5Z" transform="translate(1569.5 38)" fill="#a2b6e1" />
    </g><text transform="translate(522 122)" fill="#496ec2" font-size="14" font-family="Adobe-Clean" style="font-weight: 700; letter-spacing: 0.06em">
      <tspan x="0" y="0">SECTION TITLE</tspan>
    </text>
    <g transform="translate(104 464.755)"><text transform="translate(366 -344.755)" fill="#4a6fc3" font-size="13" font-family="Adobe-Clean" style="font-style: italic">
        <tspan x="-80.977" y="0">Section heading</tspan>
      </text>
      <path d="M2,42V4.95a2.5,2.5,0,1,1,1,0V42Z" transform="translate(413.5 -351.754) rotate(90)" fill="#a2b6e1" />
    </g>
    <rect width="8" height="1" transform="translate(732.14 223.776)" fill="#a2b6e1" />
    <g transform="translate(723.117 108)">
      <rect width="8.023" height="1" fill="#a2b6e1" />
      <rect width="1" height="226.234" transform="translate(8.023)" fill="#a2b6e1" />
      <rect width="8.023" height="1" transform="translate(0 225.234)" fill="#a2b6e1" />
    </g><text transform="translate(745 229)" fill="#4a6fc3" font-size="13" font-family="Adobe-Clean" style="font-style: italic">
      <tspan x="0" y="0">Group</tspan>
    </text><text transform="translate(669 158)" fill="rgba(73,110,194,0.75)" font-size="20" font-family="LucidaGrande, Lucida Grande">
      <tspan x="0" y="0">⌘</tspan>
      <tspan y="0" font-family="Adobe-Clean">K</tspan>
    </text>
    <g transform="translate(104 526.755)"><text transform="translate(366 -344.755)" fill="#4a6fc3" font-size="13" font-family="Adobe-Clean" style="font-style: italic">
        <tspan x="-113.126" y="0">Menu item description</tspan>
      </text>
      <path d="M2,42V4.95a2.5,2.5,0,1,1,1,0V42Z" transform="translate(413.5 -351.754) rotate(90)" fill="#a2b6e1" />
    </g>
  </g>
</svg>
