<svg style="max-height: 246px; background: var(--anatomy-gray-100); padding: 32px; margin-bottom: 16px; width: calc(100% - 64px); border-radius: 4px;" viewBox="0 0 254 246">
  <title>Menu trigger anatomy diagram</title>
  <desc>Shows a menu trigger component with labels pointing to its parts, including the trigger, and menu elements.</desc>
  <g transform="translate(-1083 -404)">
    <g transform="translate(1099 494)" fill="var(--anatomy-gray-50)" stroke="var(--anatomy-gray-400)" stroke-width="1.5">
      <rect width="238" height="156" rx="6" stroke="none" />
      <rect x="0.75" y="0.75" width="236.5" height="154.5" rx="5.25" fill="none" />
    </g><text transform="translate(1117 529)" fill="var(--anatomy-gray-800)" font-size="20" font-family="Adobe-Clean">
      <tspan x="0" y="0">Open</tspan>
    </text><text transform="translate(1117 577)" fill="var(--anatomy-gray-800)" font-size="20" font-family="Adobe-Clean">
      <tspan x="0" y="0">Edit</tspan>
    </text><text transform="translate(1117 625)" fill="var(--anatomy-gray-800)" font-size="20" font-family="Adobe-Clean">
      <tspan x="0" y="0">Rename</tspan>
    </text>
    <g transform="translate(906 815)">
      <text transform="translate(402 -348)" fill="var(--anatomy-gray-700)" font-size="13" font-family="Adobe-Clean" style="font-style: italic">
        <tspan x="-14.612" y="0">Menu</tspan>
      </text>
      <path d="M-1170-358.5a2.5,2.5,0,0,1,2-2.45V-381h1v20.05a2.5,2.5,0,0,1,2,2.45,2.5,2.5,0,0,1-2.5,2.5A2.5,2.5,0,0,1-1170-358.5Z" transform="translate(1569.5 38)" fill="var(--anatomy-gray-500)" />
      <path d="M-1170-358.5a2.5,2.5,0,0,1,2-2.45V-381h1v20.05a2.5,2.5,0,0,1,2,2.45,2.5,2.5,0,0,1-2.5,2.5A2.5,2.5,0,0,1-1170-358.5Z" transform="translate(1569.5 38)" fill="var(--anatomy-gray-500)" />
    </g>
    <g transform="translate(1099 443.801)">
      <g transform="translate(0 0.199)" fill="var(--anatomy-gray-200)" stroke="rgba(0,0,0,0)" stroke-width="1">
        <rect width="165" height="44" rx="4" stroke="none" />
        <rect x="0.5" y="0.5" width="164" height="43" rx="3.5" fill="none" />
      </g>
      <path d="M5.525,0h154.7a5.525,5.525,0,0,1,5.525,5.525V38.674a5.525,5.525,0,0,1-5.525,5.525H5.525A5.525,5.525,0,0,1,0,38.674V5.525A5.525,5.525,0,0,1,5.525,0Zm0,1.381A4.144,4.144,0,0,0,1.381,5.525V38.674a4.144,4.144,0,0,0,4.144,4.144h154.7a4.144,4.144,0,0,0,4.144-4.144V5.525a4.144,4.144,0,0,0-4.144-4.144Z" fill="var(--anatomy-gray-500)" />
      <g transform="translate(9.248 9.52)">
        <g transform="translate(10.366 10.37)" fill="var(--anatomy-gray-900)" stroke="var(--anatomy-gray-900)" stroke-width="1">
          <circle cx="2.348" cy="2.348" r="2.348" stroke="none" />
          <circle cx="2.348" cy="2.348" r="1.848" fill="none" />
        </g>
        <g transform="translate(18.446 10.37)" fill="var(--anatomy-gray-900)" stroke="var(--anatomy-gray-900)" stroke-width="1">
          <circle cx="2.348" cy="2.348" r="2.348" stroke="none" />
          <circle cx="2.348" cy="2.348" r="1.848" fill="none" />
        </g>
        <g transform="translate(2.285 10.37)" fill="var(--anatomy-gray-900)" stroke="var(--anatomy-gray-900)" stroke-width="1">
          <circle cx="2.348" cy="2.348" r="2.348" stroke="none" />
          <circle cx="2.348" cy="2.348" r="1.848" fill="none" />
        </g>
      </g><text transform="translate(44 26.199)" fill="var(--anatomy-gray-900)" font-size="18" font-family="Adobe-Clean">
        <tspan x="0" y="0">More Actions</tspan>
      </text>
    </g>
    <g transform="translate(715 765)">
      <text transform="translate(402 -348)" fill="var(--anatomy-gray-700)" font-size="13" font-family="Adobe-Clean" style="font-style: italic">
        <tspan x="-33.755" y="0">Menu Trigger</tspan>
      </text>
      <path d="M-1170-358.5a2.5,2.5,0,0,1,2-2.45V-381h1v20.05a2.5,2.5,0,0,1,2,2.45,2.5,2.5,0,0,1-2.5,2.5A2.5,2.5,0,0,1-1170-358.5Z" transform="translate(1569.5 38)" fill="var(--anatomy-gray-500)" />
      <path d="M-1170-358.5a2.5,2.5,0,0,1,2-2.45V-381h1v20.05a2.5,2.5,0,0,1,2,2.45,2.5,2.5,0,0,1-2.5,2.5A2.5,2.5,0,0,1-1170-358.5Z" transform="translate(1569.5 38)" fill="var(--anatomy-gray-500)" />
    </g>
  </g>
</svg>
