<?xml version="1.0" encoding="UTF-8"?>
<svg xmlns="http://www.w3.org/2000/svg" width="20" height="20" viewBox="0 0 20 20">
  <path d="M9.25,16.99805H3.71777c-1.90332,0-3.45215-1.54785-3.45215-3.45117,0-1.49219.9668-2.78027,2.32422-3.25-.04297-.23145-.06445-.46582-.06445-.70312,0-2.17969,1.80957-3.95215,4.0332-3.95215.2793,0,.55762.0293.83105.08789.6377-1.95898,2.47656-3.34766,4.58887-3.34766,2.49609,0,4.56738,1.87012,4.81836,4.35059.04199.41211-.25879.7793-.6709.82129-.40527.0498-.7793-.25781-.82129-.6709-.17285-1.71094-1.60352-3.00098-3.32617-3.00098-1.66309,0-3.08008,1.25195-3.29688,2.91211-.03125.23535-.17188.44238-.37891.55762-.20801.11719-.45898.125-.6748.02832-.34863-.1582-.70898-.23828-1.06934-.23828-1.39648,0-2.5332,1.09961-2.5332,2.45215,0,.33203.06934.65625.20605.96484.09961.22363.08301.48242-.04395.69238s-.34863.34375-.59375.35938c-1.02539.06641-1.82812.91699-1.82812,1.93652,0,1.07617.87598,1.95117,1.95215,1.95117h5.53223c.41406,0,.75.33594.75.75s-.33594.75-.75.75Z" fill="var(--iconPrimary, #222)"/>
  <path d="M15.5,9.02112c-2.48535,0-4.5,2.01471-4.5,4.5s2.01465,4.5,4.5,4.5,4.47998-2.01477,4.47998-4.5-1.99475-4.5-4.47998-4.5ZM15,15.39648c0,.40137-.3252.72656-.72656.72656s-.72656-.3252-.72656-.72656v-3.75c0-.40137.3252-.72656.72656-.72656s.72656.3252.72656.72656v3.75ZM17.45312,15.39648c0,.40137-.3252.72656-.72656.72656s-.72656-.3252-.72656-.72656v-3.75c0-.40137.3252-.72656.72656-.72656s.72656.3252.72656.72656v3.75Z" fill="var(--iconPrimary, #222)"/>
</svg>