<?xml version="1.0" encoding="UTF-8"?>
<svg   xmlns="http://www.w3.org/2000/svg" width="20" height="20" viewBox="0 0 20 20">
  <path d="M18.03125,10.70117l-3.49707-3.50293c-.29297-.29297-.76855-.29199-1.06152-.00098-.29297.29297-.29297.76758-.00098,1.06152l2.21606,2.21973h-7.19458c-1.20312,0-2.33301-.46777-3.18262-1.31738-.85059-.85059-1.31836-1.98047-1.31836-3.18262,0-.41406-.33594-.75-.75-.75s-.75.33594-.75.75c0,1.60254.62402,3.10938,1.75781,4.24316,1.13281,1.13281,2.63965,1.75684,4.24316,1.75684h7.19922l-2.21973,2.21973c-.29297.29297-.29297.76758,0,1.06055.14648.14648.33789.21973.53027.21973s.38379-.07324.53027-.21973l3.49707-3.49707c.29297-.29297.29297-.76758.00098-1.06055Z" fill="var(--iconPrimary, #222)" stroke-width="0"/>
</svg>