<?xml version="1.0" encoding="UTF-8"?>
<svg xmlns="http://www.w3.org/2000/svg" width="20" height="20" viewBox="0 0 20 20">
  <path d="m7.75,5H2.25c-.96484,0-1.75.78516-1.75,1.75v.76953c0,.41406.33594.75.75.75s.75-.33594.75-.75v-.76953c0-.1377.1123-.25.25-.25h2v7.9668h-.70117c-.41406,0-.75.33594-.75.75s.33594.75.75.75h2.90137c.41406,0,.75-.33594.75-.75s-.33594-.75-.75-.75h-.7002v-7.9668h2c.1377,0,.25.1123.25.25v.76953c0,.41406.33594.75.75.75s.75-.33594.75-.75v-.76953c0-.96484-.78516-1.75-1.75-1.75Z" fill="var(--iconPrimary, #222)"/>
  <path d="m17.75,5h-5.5c-.96484,0-1.75.78516-1.75,1.75v.76953c0,.41406.33594.75.75.75s.75-.33594.75-.75v-.76953c0-.1377.1123-.25.25-.25h2v7.9668h-.70117c-.41406,0-.75.33594-.75.75s.33594.75.75.75h2.90137c.41406,0,.75-.33594.75-.75s-.33594-.75-.75-.75h-.7002v-7.9668h2c.1377,0,.25.1123.25.25v.76953c0,.41406.33594.75.75.75s.75-.33594.75-.75v-.76953c0-.96484-.78516-1.75-1.75-1.75Z" fill="var(--iconPrimary, #222)"/>
</svg>