<?xml version="1.0" encoding="UTF-8"?>
<svg xmlns="http://www.w3.org/2000/svg" width="20" height="20" viewBox="0 0 20 20">
  <path d="m16.87598,4.84082h-.00098l-5.74902-3.31934c-.69629-.40234-1.55859-.40137-2.25098,0l-5.75098,3.31934c-.69336.40137-1.12402,1.14844-1.12402,1.94922v6.63965c0,.80176.43164,1.54785,1.125,1.94824l5.74902,3.32031c.34766.20117.7373.30078,1.12598.30078.38965,0,.77832-.09961,1.125-.30078l5.75-3.32031c.69336-.40039,1.125-1.14648,1.125-1.94824v-6.63965c0-.80078-.43066-1.54785-1.12402-1.94922Zm-7.25-2.02051c.11523-.06738.24414-.10059.37402-.10059.12891,0,.25879.0332.375.10059l5.28516,3.05151-5.65942,3.12231-5.66431-3.12085,5.28955-3.05298ZM3.875,14.0791c-.23145-.13379-.375-.38281-.375-.64941v-6.30371l5.75,3.16797v6.88892l-5.375-3.10376Zm12.25,0l-5.375,3.10327v-6.8894l5.75-3.17236v6.30908c0,.2666-.14355.51562-.375.64941Z" fill="var(--iconPrimary, #222)"/>
</svg>