<?xml version="1.0" encoding="UTF-8"?>
<svg xmlns="http://www.w3.org/2000/svg" width="20" height="20" viewBox="0 0 20 20">
  <path d="m17.25,1c-.41406,0-.75.33594-.75.75v4.38818c-.23584-.08398-.48584-.13818-.75-.13818h-1.5c-1.24023,0-2.25,1.00977-2.25,2.25v3.5c0,1.24023,1.00977,2.25,2.25,2.25h1.5c.26416,0,.51416-.0542.75-.13843v4.38843c0,.41406.33594.75.75.75s.75-.33594.75-.75V1.75c0-.41406-.33594-.75-.75-.75Zm-1.5,11.5h-1.5c-.41309,0-.75-.33691-.75-.75v-3.5c0-.41309.33691-.75.75-.75h1.5c.41309,0,.75.33691.75.75v3.5c0,.41309-.33691.75-.75.75Z" fill="var(--iconPrimary, #222)"/>
  <path d="m8.25,1c-.41406,0-.75.33594-.75.75v2.38818c-.23584-.08398-.48584-.13818-.75-.13818h-1.5c-1.24023,0-2.25,1.00977-2.25,2.25v7.5c0,1.24023,1.00977,2.25,2.25,2.25h1.5c.26416,0,.51416-.0542.75-.13843v2.38843c0,.41406.33594.75.75.75s.75-.33594.75-.75V1.75c0-.41406-.33594-.75-.75-.75Zm-1.5,13.5h-1.5c-.41309,0-.75-.33691-.75-.75v-7.5c0-.41309.33691-.75.75-.75h1.5c.41309,0,.75.33691.75.75v7.5c0,.41309-.33691.75-.75.75Z" fill="var(--iconPrimary, #222)"/>
</svg>