<?xml version="1.0" encoding="UTF-8"?>
<svg   xmlns="http://www.w3.org/2000/svg" width="20" height="20" viewBox="0 0 20 20">
  <path d="m4.75,18h-.5c-1.24072,0-2.25-1.00928-2.25-2.25v-2.5c0-1.24072,1.00928-2.25,2.25-2.25h.5c1.24072,0,2.25,1.00928,2.25,2.25v2.5c0,1.24072-1.00928,2.25-2.25,2.25Zm-.5-5.5c-.41357,0-.75.33643-.75.75v2.5c0,.41357.33643.75.75.75h.5c.41357,0,.75-.33643.75-.75v-2.5c0-.41357-.33643-.75-.75-.75h-.5Z" fill="var(--iconPrimary, #222)"/>
  <path d="m8.75,9h-4.5c-1.24072,0-2.25-1.00928-2.25-2.25v-2.5c0-1.24072,1.00928-2.25,2.25-2.25h4.5c1.24072,0,2.25,1.00928,2.25,2.25v2.5c0,1.24072-1.00928,2.25-2.25,2.25ZM4.25,3.5c-.41357,0-.75.33643-.75.75v2.5c0,.41357.33643.75.75.75h4.5c.41357,0,.75-.33643.75-.75v-2.5c0-.41357-.33643-.75-.75-.75h-4.5Z" fill="var(--iconPrimary, #222)"/>
  <path d="m15.75,18h-4.5c-1.24072,0-2.25-1.00928-2.25-2.25v-2.5c0-1.24072,1.00928-2.25,2.25-2.25h4.5c1.24072,0,2.25,1.00928,2.25,2.25v2.5c0,1.24072-1.00928,2.25-2.25,2.25Zm-4.5-5.5c-.41357,0-.75.33643-.75.75v2.5c0,.41357.33643.75.75.75h4.5c.41357,0,.75-.33643.75-.75v-2.5c0-.41357-.33643-.75-.75-.75h-4.5Z" fill="var(--iconPrimary, #222)"/>
  <path d="m15.75,9h-.5c-1.24072,0-2.25-1.00928-2.25-2.25v-2.5c0-1.24072,1.00928-2.25,2.25-2.25h.5c1.24072,0,2.25,1.00928,2.25,2.25v2.5c0,1.24072-1.00928,2.25-2.25,2.25Zm-.5-5.5c-.41357,0-.75.33643-.75.75v2.5c0,.41357.33643.75.75.75h.5c.41357,0,.75-.33643.75-.75v-2.5c0-.41357-.33643-.75-.75-.75h-.5Z" fill="var(--iconPrimary, #222)"/>
</svg>