<?xml version="1.0" encoding="UTF-8"?>
<svg xmlns="http://www.w3.org/2000/svg" width="20" height="20" viewBox="0 0 20 20">
  <path d="m16.75,5h-5.96387c-.21777,0-.42383-.09473-.56689-.25879l-1.70361-1.96484c-.42773-.49316-1.04736-.77637-1.7002-.77637h-3.56543c-1.24072,0-2.25,1.00977-2.25,2.25v10.5c0,1.24023,1.00928,2.25,2.25,2.25h13.5c1.24072,0,2.25-1.00977,2.25-2.25v-7.5c0-1.24023-1.00928-2.25-2.25-2.25ZM3.25,3.5h3.56543c.21777,0,.42383.09473.56689.25879l1.07617,1.24121H2.5v-.75c0-.41309.33643-.75.75-.75Zm14.25,11.25c0,.41309-.33643.75-.75.75H3.25c-.41357,0-.75-.33691-.75-.75V6.5h14.25c.41357,0,.75.33691.75.75v7.5Z" fill="var(--iconPrimary, #222)"/>
</svg>