<?xml version="1.0" encoding="UTF-8"?>
<svg xmlns="http://www.w3.org/2000/svg" width="20" height="20" viewBox="0 0 20 20">
  <path d="m10,1.25C5.17529,1.25,1.25,5.1748,1.25,10s3.92529,8.75,8.75,8.75,8.75-3.9248,8.75-8.75S14.82471,1.25,10,1.25Zm.75,15.96094v-3.46094c0-.41406-.33594-.75-.75-.75s-.75.33594-.75.75v3.46094c-3.3999-.35107-6.11011-3.06079-6.46106-6.46094h3.46106c.41406,0,.75-.33594.75-.75s-.33594-.75-.75-.75h-3.46106c.35095-3.40015,3.06116-6.10986,6.46106-6.46094v3.46094c0,.41406.33594.75.75.75s.75-.33594.75-.75v-3.46094c3.3999.35107,6.11011,3.06079,6.46106,6.46094h-3.46106c-.41406,0-.75.33594-.75.75s.33594.75.75.75h3.46106c-.35095,3.40015-3.06116,6.10986-6.46106,6.46094Z" fill="var(--iconPrimary, #222)"/>
</svg>