<?xml version="1.0" encoding="UTF-8"?>
<svg xmlns="http://www.w3.org/2000/svg" width="20" height="20" viewBox="0 0 20 20">
  <rect x="5.75" y="4.75" width="8.5" height="10.5" rx="1.5" ry="1.5" fill="var(--iconPrimary, #222)" opacity=".35"/>
  <path d="M16.75,4H3.25c-1.24023,0-2.25,1.00977-2.25,2.25v7.5c0,1.24023,1.00977,2.25,2.25,2.25h13.5c1.24023,0,2.25-1.00977,2.25-2.25v-7.5c0-1.24023-1.00977-2.25-2.25-2.25ZM2.5,13.75v-7.5c0-.41309.33691-.75.75-.75h1.88818c-.08398.23584-.13818.48584-.13818.75v7.5c0,.26416.0542.51416.13818.75h-1.88818c-.41309,0-.75-.33691-.75-.75ZM7.25,14.5c-.41309,0-.75-.33691-.75-.75v-7.5c0-.41309.33691-.75.75-.75h5.5c.41309,0,.75.33691.75.75v7.5c0,.41309-.33691.75-.75.75h-5.5ZM17.5,13.75c0,.41309-.33691.75-.75.75h-1.88818c.08398-.23584.13818-.48584.13818-.75v-7.5c0-.26416-.0542-.51416-.13818-.75h1.88818c.41309,0,.75.33691.75.75v7.5Z" fill="var(--iconPrimary, #222)"/>
</svg>