<?xml version="1.0" encoding="UTF-8"?>
<svg id="e" data-name="ICONS" xmlns="http://www.w3.org/2000/svg" width="20" height="20" viewBox="0 0 20 20">
  <path d="M10,2c-3.85303,0-8,.93848-8,3v10c0,2.06152,4.14697,3,8,3s8-.93848,8-3V5c0-2.06152-4.14697-3-8-3ZM16.5,9.74487c-.09259.41541-2.22906,1.50513-6.5,1.50513-3.68604,0-5.99414-.83691-6.45557-1.43066-.01251-.01611-.03088-.02344-.04443-.03833v-2.93457c1.55219.78394,4.08337,1.15356,6.5,1.15356s4.94781-.36963,6.5-1.15356v2.89844ZM10,3.5c4.25342,0,6.39014,1.08105,6.49902,1.5-.10889.41895-2.24561,1.5-6.49902,1.5-4.27094,0-6.40741-1.08972-6.5-1.49341v-.00146c.09259-.41541,2.22906-1.50513,6.5-1.50513ZM10,16.5c-4.27295,0-6.40967-1.09082-6.5-1.5v-3.39587c1.64331.82874,4.33228,1.14587,6.5,1.14587,2.41663,0,4.94781-.36963,6.5-1.15356v3.39844c-.09259.41541-2.22906,1.50513-6.5,1.50513Z" fill="var(--iconPrimary, #222)" stroke-width="0"/>
</svg>