<?xml version="1.0" encoding="UTF-8"?>
<svg xmlns="http://www.w3.org/2000/svg" width="20" height="20" viewBox="0 0 20 20">
  <path d="m18.25,16.5h-2.38831c.08411-.23584.13831-.48584.13831-.75v-1.5c0-1.24023-1.00977-2.25-2.25-2.25h-7.5c-1.24023,0-2.25,1.00977-2.25,2.25v1.5c0,.26416.0542.51416.13843.75H1.75c-.41406,0-.75.33594-.75.75s.33594.75.75.75h16.5c.41406,0,.75-.33594.75-.75s-.33594-.75-.75-.75Zm-12,0c-.41309,0-.75-.33691-.75-.75v-1.5c0-.41309.33691-.75.75-.75h7.5c.41309,0,.75.33691.75.75v1.5c0,.41309-.33691.75-.75.75h-7.5Z" fill="var(--iconPrimary, #222)"/>
  <path d="m18.25,7.5h-4.38831c.08411-.23584.13831-.48584.13831-.75v-1.5c0-1.24023-1.00977-2.25-2.25-2.25h-3.5c-1.24023,0-2.25,1.00977-2.25,2.25v1.5c0,.26416.0542.51416.13843.75H1.75c-.41406,0-.75.33594-.75.75s.33594.75.75.75h16.5c.41406,0,.75-.33594.75-.75s-.33594-.75-.75-.75Zm-10,0c-.41309,0-.75-.33691-.75-.75v-1.5c0-.41309.33691-.75.75-.75h3.5c.41309,0,.75.33691.75.75v1.5c0,.41309-.33691.75-.75.75h-3.5Z" fill="var(--iconPrimary, #222)"/>
</svg>