<?xml version="1.0" encoding="UTF-8"?>
<svg xmlns="http://www.w3.org/2000/svg" width="20" height="20" viewBox="0 0 20 20">
  <path d="M18.20654,3.89746c-.40527-.09473-.80811.15039-.90527.55371l-.38043,1.57471c-1.39771-2.43188-4.00189-4.00439-6.92084-4.00439-3.68457,0-6.87549,2.5-7.75928,6.08008-.09961.40234.146.80859.54834.9082.40137.09961.80859-.14648.90771-.54883.71826-2.9082,3.31006-4.93945,6.30322-4.93945,2.51685,0,4.73499,1.44629,5.80896,3.63232l-2.10242-.5083c-.40332-.09375-.80762.15039-.90527.55371-.09717.40234.15039.80762.55273.90527l3.24524.78418c.12476.08862.27362.14258.43152.14258.05957,0,.12012-.00684.18018-.02148.04822-.01196.08582-.04102.12921-.06104.06952-.01855.14331-.01953.20575-.05811.16943-.10352.29102-.27051.33789-.46387l.87549-3.62402c.09717-.40234-.15039-.80762-.55273-.90527Z" fill="var(--iconPrimary, #222)"/>
  <path d="M17.21094,11.03223c-.39697-.09668-.80811.14648-.90771.54883-.71826,2.90918-3.31006,4.94043-6.30322,4.94043-2.51703,0-4.73523-1.44653-5.80914-3.63354l2.1026.50854c.40283.0918.80811-.15039.90527-.55371.09717-.40234-.15039-.80762-.55273-.90527l-3.25494-.78662c-.17102-.11816-.38531-.17139-.60199-.11865-.0152.00391-.026.01465-.04071.01929-.10321.01318-.20392.04419-.29425.09985-.16943.10352-.29102.27051-.33789.46387l-.87549,3.62402c-.09717.40234.15039.80762.55273.90527.05957.01367.11865.02051.17676.02051.33838,0,.64551-.23047.72852-.57422l.38043-1.57471c1.39764,2.43213,4.00189,4.00537,6.92084,4.00537,3.68457,0,6.87549-2.50098,7.75928-6.08105.09961-.40234-.146-.80859-.54834-.9082Z" fill="var(--iconPrimary, #222)"/>
</svg>