<?xml version="1.0" encoding="UTF-8"?>
<svg xmlns="http://www.w3.org/2000/svg" width="20" height="20" viewBox="0 0 20 20">
  <path d="M15.39258,11.82227c-.3252-1.60059-1.43848-2.90332-2.91504-3.57617.62012-.91992.84961-2.04102.63184-3.13379-.36035-1.80371-1.99121-3.1123-3.87695-3.1123h-4.10742c-.62109,0-1.125.50391-1.125,1.125v13.75c0,.62109.50391,1.125,1.125,1.125h5.19727c1.56934,0,3.03613-.69336,4.02539-1.90234.97363-1.19141,1.35449-2.74902,1.04492-4.27539ZM6.25,4.25h2.98242c.81738,0,1.51953.54785,1.66992,1.30371.1123.55957-.03516,1.1377-.40332,1.58789-.31738.38672-.75488.6084-1.19922.6084h-3.0498v-3.5ZM12.60547,14.67383c-.55957.68359-1.3916,1.07617-2.2832,1.07617h-4.07227v-5.75h3.0498c.01074-.00098.02148-.00098.03125,0h.84668c1.47656,0,2.74316.9541,3.00977,2.26953.17676.87402-.0293,1.72852-.58203,2.4043Z" fill="var(--iconPrimary, #222)"/>
</svg>