<?xml version="1.0" encoding="UTF-8"?>
<svg xmlns="http://www.w3.org/2000/svg" width="20" height="20" viewBox="0 0 20 20">
  <path d="M5.96777,7.98828c.08008,0,.16113-.0127.24121-.04004.39258-.13281.60254-.55859.46875-.95117-.09668-.28418-.14551-.61914-.14551-.99512,0-2.29199,2.26953-2.90332,3.61133-2.90332,1.19238,0,2.80859.59766,3.53711,1.90625.05078.09375.16211.33887.2168.59277.00488.02368.02051.04126.02759.06396.01587.05078.03613.09668.06177.14258.02295.04053.04663.07739.07617.11255.03198.03833.06689.07056.10571.10181.03687.02979.07349.05566.11523.07764.0415.02222.0835.03809.12915.05225.0498.01562.09863.02588.15137.03052.02295.0022.04297.01343.06641.01343.0271,0,.05005-.0127.07666-.01538.02637-.00293.052.00464.07861-.00122.02393-.00513.0415-.02051.06421-.02783.05029-.01562.09595-.0354.14111-.06079.04102-.02319.07837-.04712.11401-.0769.0376-.03149.06934-.06519.1001-.10327.03003-.03711.05591-.07446.07837-.11646s.03882-.08496.05298-.1311c.01489-.0481.02466-.09497.02954-.14575.00244-.02466.0144-.04614.0144-.07129v-3.2998c0-.41406-.33594-.75-.75-.75s-.75.33594-.75.75v.81543c-1.10059-.92432-2.53833-1.35938-3.7373-1.35938-2.46191,0-5.11133,1.37793-5.11133,4.40332,0,.54004.07617,1.03711.22559,1.47754.10547.3125.39746.50879.70996.50879Z" fill="var(--iconPrimary, #222)"/>
  <path d="M16.25,9.25H3.75c-.41406,0-.75.33594-.75.75s.33594.75.75.75h7.45605c.13013.03223.25977.06445.38965.10059,1.87793.51855,2.59668,1.25,2.6543,2.69824,0,.01172.02832,1.22363-.82715,2.10742-.65039.67188-1.66602,1.0127-3.01758,1.0127-4.23047,0-4.64453-3.10449-4.65918-3.23145-.00537-.05176-.02905-.0957-.04395-.14355-.00781-.02368-.01123-.04834-.02148-.07104-.12354-.29517-.41309-.49561-.75781-.45435-.2749.02881-.48926.20801-.5957.44287-.00635.01318-.01489.02466-.02051.03833-.02295.05981-.03101.1228-.03809.18799-.00391.03174-.01855.05981-.01855.09253v3.40039c0,.41406.33594.75.75.75s.75-.33594.75-.75v-.43652c.90674.90576,2.34692,1.6748,4.65527,1.6748,1.78516,0,3.16992-.50098,4.11426-1.48926,1.2959-1.35547,1.23242-3.11914,1.22852-3.18945-.0498-1.2666-.50537-2.125-1.13892-2.74023h1.64087c.41406,0,.75-.33594.75-.75s-.33594-.75-.75-.75Z" fill="var(--iconPrimary, #222)"/>
</svg>