<?xml version="1.0" encoding="UTF-8"?>
<svg id="e" data-name="ICONS" xmlns="http://www.w3.org/2000/svg" width="20" height="20" viewBox="0 0 20 20">
  <path d="M18.4043,6.19141l-1.32227-2.76562c-.34082-.86621-1.16309-1.42578-2.09375-1.42578H5.03027c-.93066,0-1.75195.55859-2.07031,1.37109l-1.35742,2.79004c-.24023.44629-.53223,1.49023-.10254,2.5791.2627.66504.81934,1.17419,1.5,1.43433v5.57544c0,1.24023,1.00977,2.25,2.25,2.25h9.5c1.24023,0,2.25-1.00977,2.25-2.25v-5.56628c.69531-.25745,1.26123-.77258,1.52051-1.44739.5-1.30078.0166-2.30859-.11621-2.54492ZM5.25,16.5c-.41309,0-.75-.33691-.75-.75v-5.4342c.58862-.10681,1.11499-.39429,1.50977-.81287.49976.53003,1.20703.86035,1.99023.86328v6.13379h-2.75ZM15.5,15.75c0,.41309-.33691.75-.75.75h-5.25v-1.5h6v.75ZM9.5,13.5v-3.58289c.18481-.12012.35913-.25452.50977-.41418.50195.53223,1.21289.86426,2,.86426s1.49805-.33203,2-.86426c.39062.41406.90918.70117,1.49023.81079v3.18628h-6ZM17.12012,8.19727c-.15137.39453-.6084.66992-1.11035.66992-.68945,0-1.25-.56055-1.25-1.25,0-.41406-.33594-.75-.75-.75s-.75.33594-.75.75c0,.68945-.56055,1.25-1.25,1.25s-1.25-.56055-1.25-1.25c0-.41406-.33594-.75-.75-.75s-.75.33594-.75.75c0,.68945-.56055,1.25-1.25,1.25s-1.25-.56055-1.25-1.25c0-.41406-.33594-.75-.75-.75s-.75.33594-.75.75c0,.68945-.56055,1.25-1.25,1.25-.50684,0-.95508-.27246-1.11523-.67773-.27539-.7002.01953-1.29883.04297-1.34375l1.39453-2.87109c.11426-.28809.3877-.47461.69824-.47461h9.95801c.31055,0,.58398.18652.71875.52344l1.35645,2.83984c.00684.01465.02246.04199.03027.05664.0127.02246.30469.55566.02637,1.27734Z" fill="var(--iconPrimary, #222)" stroke-width="0"/>
</svg>