<?xml version="1.0" encoding="UTF-8"?>
<svg xmlns="http://www.w3.org/2000/svg" width="20" height="20" viewBox="0 0 20 20">
  <path d="m13.75,11h-3v-2h1c1.24072,0,2.25-1.00977,2.25-2.25v-1.5c0-1.24023-1.00928-2.25-2.25-2.25h-1v-1.25c0-.41406-.33594-.75-.75-.75s-.75.33594-.75.75v1.25h-1c-1.24072,0-2.25,1.00977-2.25,2.25v1.5c0,1.24023,1.00928,2.25,2.25,2.25h1v2h-3c-1.24072,0-2.25,1.00977-2.25,2.25v1.5c0,1.24023,1.00928,2.25,2.25,2.25h3v1.25c0,.41406.33594.75.75.75s.75-.33594.75-.75v-1.25h3c1.24072,0,2.25-1.00977,2.25-2.25v-1.5c0-1.24023-1.00928-2.25-2.25-2.25Zm-6.25-4.25v-1.5c0-.41309.33643-.75.75-.75h3.5c.41357,0,.75.33691.75.75v1.5c0,.41309-.33643.75-.75.75h-3.5c-.41357,0-.75-.33691-.75-.75Zm7,8c0,.41309-.33643.75-.75.75h-7.5c-.41357,0-.75-.33691-.75-.75v-1.5c0-.41309.33643-.75.75-.75h7.5c.41357,0,.75.33691.75.75v1.5Z" fill="var(--iconPrimary, #222)"/>
</svg>