<?xml version="1.0" encoding="UTF-8"?>
<svg xmlns="http://www.w3.org/2000/svg" width="20" height="20" viewBox="0 0 20 20">
  <path d="m17.25,16.52148H7.25c-.41406,0-.75-.33594-.75-.75s.33594-.75.75-.75h10c.41406,0,.75.33594.75.75s-.33594.75-.75.75Z" fill="var(--iconPrimary, #222)"/>
  <path d="m17.25,10.52148H7.25c-.41406,0-.75-.33594-.75-.75s.33594-.75.75-.75h10c.41406,0,.75.33594.75.75s-.33594.75-.75.75Z" fill="var(--iconPrimary, #222)"/>
  <path d="m17.25,4.52148H7.25c-.41406,0-.75-.33594-.75-.75s.33594-.75.75-.75h10c.41406,0,.75.33594.75.75s-.33594.75-.75.75Z" fill="var(--iconPrimary, #222)"/>
  <circle cx="3.5" cy="3.77108" r="1.5" fill="var(--iconPrimary, #222)"/>
  <circle cx="3.5" cy="9.77108" r="1.5" fill="var(--iconPrimary, #222)"/>
  <circle cx="3.5" cy="15.77108" r="1.5" fill="var(--iconPrimary, #222)"/>
</svg>