<?xml version="1.0" encoding="UTF-8"?>
<svg xmlns="http://www.w3.org/2000/svg" width="20" height="20" viewBox="0 0 20 20">
  <path d="m17.25,4.49811H7.75c-.41406,0-.75-.33594-.75-.75s.33594-.75.75-.75h9.5c.41406,0,.75.33594.75.75s-.33594.75-.75.75Z" fill="var(--iconPrimary, #222)"/>
  <path d="m17.25,10.49811H7.75c-.41406,0-.75-.33594-.75-.75s.33594-.75.75-.75h9.5c.41406,0,.75.33594.75.75s-.33594.75-.75.75Z" fill="var(--iconPrimary, #222)"/>
  <path d="m17.25,16.49811H7.75c-.41406,0-.75-.33594-.75-.75s.33594-.75.75-.75h9.5c.41406,0,.75.33594.75.75s-.33594.75-.75.75Z" fill="var(--iconPrimary, #222)"/>
  <path d="m4.75,4.49811h-2c-.41406,0-.75-.33594-.75-.75s.33594-.75.75-.75h2c.41406,0,.75.33594.75.75s-.33594.75-.75.75Z" fill="var(--iconPrimary, #222)"/>
  <path d="m4.75,10.49811h-2c-.41406,0-.75-.33594-.75-.75s.33594-.75.75-.75h2c.41406,0,.75.33594.75.75s-.33594.75-.75.75Z" fill="var(--iconPrimary, #222)"/>
  <path d="m4.75,16.49811h-2c-.41406,0-.75-.33594-.75-.75s.33594-.75.75-.75h2c.41406,0,.75.33594.75.75s-.33594.75-.75.75Z" fill="var(--iconPrimary, #222)"/>
</svg>