<?xml version="1.0" encoding="UTF-8"?>
<svg xmlns="http://www.w3.org/2000/svg" width="20" height="20" viewBox="0 0 20 20">
  <path d="m5.75,4h-1.5c-.26416,0-.51416.0542-.75.13818V1.75c0-.41406-.33594-.75-.75-.75s-.75.33594-.75.75v16.5c0,.41406.33594.75.75.75s.75-.33594.75-.75v-2.38843c.23584.08423.48584.13843.75.13843h1.5c1.24023,0,2.25-1.00977,2.25-2.25v-7.5c0-1.24023-1.00977-2.25-2.25-2.25Zm.75,9.75c0,.41309-.33691.75-.75.75h-1.5c-.41309,0-.75-.33691-.75-.75v-7.5c0-.41309.33691-.75.75-.75h1.5c.41309,0,.75.33691.75.75v7.5Z" fill="var(--iconPrimary, #222)"/>
  <path d="m14.75,6h-1.5c-.26416,0-.51416.0542-.75.13818V1.75c0-.41406-.33594-.75-.75-.75s-.75.33594-.75.75v16.5c0,.41406.33594.75.75.75s.75-.33594.75-.75v-4.38843c.23584.08423.48584.13843.75.13843h1.5c1.24023,0,2.25-1.00977,2.25-2.25v-3.5c0-1.24023-1.00977-2.25-2.25-2.25Zm.75,5.75c0,.41309-.33691.75-.75.75h-1.5c-.41309,0-.75-.33691-.75-.75v-3.5c0-.41309.33691-.75.75-.75h1.5c.41309,0,.75.33691.75.75v3.5Z" fill="var(--iconPrimary, #222)"/>
</svg>