<?xml version="1.0" encoding="UTF-8"?>
<svg xmlns="http://www.w3.org/2000/svg" width="20" height="20" viewBox="0 0 20 20">
  <path d="m17.77148,5.08203l-2.78906-1.60938c-.52832-.30664-1.18945-.3125-1.72168-.01758l-3.26074,1.79785-3.2627-1.79785c-.53418-.29297-1.19336-.28809-1.71973.01758l-2.79004,1.60938c-.75684.43848-1.22754,1.25391-1.22754,2.12793v4.55566c0,.875.4707,1.69043,1.22852,2.12695l6.54297,3.77832c.37891.21875.80371.32812,1.22852.32812s.84961-.10938,1.22852-.32812l6.54297-3.77832c.75781-.43652,1.22852-1.25195,1.22852-2.12695v-4.55566c0-.87402-.4707-1.68945-1.22852-2.12793Zm-12.00391-.31055c.03809-.02246.08203-.0332.125-.0332.04102,0,.08301.01074.12012.03125l3.625,1.99707c.22656.12305.49805.12305.72461,0l3.62305-1.99805c0-.00098.00098-.00098.00098-.00098.07617-.04199.16797-.04102.24414.00293l2.56055,1.47791-6.79028,3.74573-6.79541-3.74414,2.56226-1.47852Zm-2.78906,7.82227c-.29492-.16992-.47852-.4873-.47852-.82812v-4.19055l6.75,3.71887v4.92139l-6.27148-3.62158Zm14.04297,0l-6.27148,3.62158v-4.92236l6.75-3.72339v4.19604c0,.34082-.18359.6582-.47852.82812Z" fill="var(--iconPrimary, #222)"/>
</svg>