<?xml version="1.0" encoding="UTF-8"?>
<svg xmlns="http://www.w3.org/2000/svg" width="20" height="20" viewBox="0 0 20 20">
  <path d="M5.50586,18.63037c-.35938.00049-.71875-.1123-1.02734-.33691-.59375-.43164-.85352-1.16797-.66016-1.87646l.97754-3.57715c.0791-.28906-.02051-.5957-.25391-.78271l-2.89258-2.31934c-.57324-.45947-.79688-1.20801-.57031-1.90674.22754-.69824.84766-1.17188,1.58203-1.20654l3.70312-.17529c.29883-.01416.55957-.2041.66504-.4834l1.3125-3.46875c.25977-.6875.90234-1.13135,1.63672-1.13135s1.37695.44385,1.63672,1.13086v.00049l1.31055,3.46826c.10645.2793.36816.46973.66602.48389l3.7041.17529c.7334.03467,1.35449.5083,1.58203,1.20703.22656.69873.00293,1.44727-.57031,1.90625l-2.89355,2.31934c-.23242.18652-.33301.49414-.25391.78271l.97656,3.57422c.19336.70996-.06641,1.44775-.66211,1.87891-.59766.43359-1.37891.44727-1.99316.0415l-3.07129-2.03662c-.25098-.16553-.5752-.16602-.82617-.00146l-3.11719,2.04443c-.29492.19336-.62793.28955-.96094.28955ZM9.97852,2.86572c-.0791,0-.18359.02832-.23438.16211l-1.31152,3.46777c-.31641.83936-1.10059,1.40918-1.99805,1.45166l-3.70312.17529c-.14258.00684-.20117.09766-.22559.17236-.02441.0752-.03027.18311.08105.27295l2.89258,2.31885c.70117.56055,1.00098,1.48291.76367,2.34912l-.97754,3.57617c-.03809.13721.03027.22168.09473.26807.0625.04492.16211.08545.28418.00684l3.11719-2.04492c.75293-.49316,1.72559-.4917,2.47656.00537l3.07129,2.03662c.12109.0791.22168.04004.28516-.00635.06445-.04639.13281-.13037.09473-.26807l-.97656-3.57471c-.23633-.86572.06348-1.78711.76367-2.34814l2.89355-2.31934c.11133-.08887.10547-.19727.08105-.27197-.02441-.0752-.08301-.16602-.22559-.17285l-3.7041-.17529c-.89551-.04248-1.67969-.61182-1.99805-1.45117l-1.31055-3.46826c-.05078-.13379-.15527-.16211-.23438-.16211Z" fill="var(--iconPrimary, #222)"/>
</svg>