<?xml version="1.0" encoding="UTF-8"?>
<svg xmlns="http://www.w3.org/2000/svg" width="20" height="20" viewBox="0 0 20 20">
  <path d="m6.25,19c-.09912,0-.19873-.01953-.29346-.05957-.27686-.11816-.45654-.38965-.45654-.69043v-3.25h-.75c-2.06787,0-3.75-1.68262-3.75-3.75v-5.5c0-2.06738,1.68213-3.75,3.75-3.75h10.5c2.06787,0,3.75,1.68262,3.75,3.75v5.5c0,2.06738-1.68213,3.75-3.75,3.75h-4.54297l-3.93701,3.79004c-.14258.1377-.32959.20996-.52002.20996Zm-1.5-15.5c-1.24072,0-2.25,1.00977-2.25,2.25v5.5c0,1.24023,1.00928,2.25,2.25,2.25h1.5c.41406,0,.75.33594.75.75v2.2373l2.88477-2.77734c.13965-.13477.32617-.20996.52002-.20996h4.84521c1.24072,0,2.25-1.00977,2.25-2.25v-5.5c0-1.24023-1.00928-2.25-2.25-2.25H4.75Z" fill="var(--iconPrimary, #222)"/>
</svg>