<?xml version="1.0" encoding="UTF-8"?>
<svg xmlns="http://www.w3.org/2000/svg" width="20" height="20" viewBox="0 0 20 20">
  <path d="m10.00391,12.58887c-.88818,0-1.75293-.45996-2.22803-1.2832h0c-.70801-1.22754-.28613-2.80078.93994-3.50879.59326-.34375,1.28516-.43359,1.94922-.25684.6626.17773,1.21631.60352,1.55908,1.19727.34326.59375.43408,1.28613.25684,1.94824-.17773.66309-.60254,1.2168-1.19678,1.55957-.40332.2334-.84473.34375-1.28027.34375Zm-.9292-2.0332c.29443.50879.94824.68359,1.45947.39062.24707-.14258.42383-.37305.49756-.64844s.03613-.56348-.10645-.81055c-.14307-.24707-.37305-.42383-.64893-.49805-.2749-.07324-.56299-.03516-.81055.10645-.51025.29492-.68555.94922-.39111,1.45996h0Z" fill="var(--iconPrimary, #222)"/>
  <path d="m10.47363,19.02148h-.94678c-1.03223,0-1.90771-.80566-1.99316-1.83496l-.11328-1.35645c-.40967-.18164-.79736-.40527-1.16064-.6709l-1.23242.58105c-.93359.43848-2.06934.08496-2.58496-.81055l-.47314-.81836c-.52393-.90918-.26953-2.04492.5918-2.64355l1.11914-.77637c-.04834-.44727-.04834-.89551-.00098-1.34082l-1.11865-.77637c-.86133-.59961-1.11572-1.73535-.59131-2.64355l.47314-.81934c.5166-.89355,1.65088-1.25,2.58496-.80957l1.22949.58008c.18359-.13477.37061-.25684.56396-.36816.19043-.11035.39111-.21191.59961-.30371l.11279-1.35547c.08643-1.02832.96143-1.83301,1.99316-1.83301h.94678c1.03223,0,1.90771.80566,1.99316,1.83398l.11328,1.35645c.40869.18164.79688.40527,1.16016.6709l1.23291-.58105c.93213-.44141,2.06836-.08594,2.58496.81055l.47314.81934c.51562.89258.25586,2.05371-.5918,2.64258l-1.11914.77734c.04785.44727.04834.89551.00098,1.34082l1.11816.77539c.86182.59961,1.11621,1.73535.5918,2.64355l-.47266.82031c-.5166.89355-1.65039,1.25098-2.58545.80859l-1.22998-.5791c-.18311.13379-.36914.25586-.56201.36719,0,.00098-.00049.00098-.00098.00098-.19189.11133-.39062.21094-.6001.30273l-.11279,1.35547c-.08643,1.02832-.96191,1.83398-1.99316,1.83398Zm-4.11377-5.48828c.17529,0,.34863.06152.4873.17969.45557.38965.97119.6875,1.53174.88574.27832.09766.47314.35059.49805.64453l.15186,1.81934c.021.25781.24023.45898.49805.45898h.94678c.25781,0,.47656-.20117.49805-.45898l.15137-1.81836c.02441-.29297.21875-.54492.49609-.64453.29834-.10547.56299-.22656.80957-.36816h0c.25-.14551.48779-.31445.72656-.51855.2251-.18945.54053-.23242.80566-.10742l1.65088.77734c.23633.1123.51904.02148.64697-.20117l.47266-.82031c.13135-.22754.06787-.51172-.14795-.66113l-1.49854-1.04004c-.24268-.16797-.36426-.46289-.31006-.75293.1084-.58496.1084-1.18066-.00098-1.77051-.05371-.29004.06738-.58496.30957-.75293l1.5-1.04199c.21533-.14941.2793-.43359.14844-.66016l-.47363-.82031c-.12988-.22461-.4126-.31348-.646-.20215l-1.65234.77832c-.2666.125-.58154.08301-.80664-.1084-.45752-.38965-.97314-.68848-1.53223-.88574-.27832-.09766-.47314-.35059-.49805-.64453l-.15186-1.81934c-.021-.25684-.23975-.45801-.49805-.45801h-.94678c-.25781,0-.47656.20117-.49805.45801l-.15137,1.81934c-.02441.29395-.21973.54688-.49805.64453-.28906.10254-.56104.22656-.80859.36914-.25.14453-.48682.3125-.72412.5166-.22461.19043-.54053.23242-.80762.1084l-1.65088-.77832c-.23291-.11035-.5166-.02148-.64648.20215l-.47314.81934c-.13086.22754-.06738.51172.14844.66113l1.49902,1.04102c.24219.16797.36377.46289.30957.75391-.10889.58301-.1084,1.17871.00098,1.76953.05371.29004-.06738.58496-.30957.75293l-1.5,1.04102c-.21533.14941-.2793.43457-.14795.66211l.47314.81836c.12891.22363.41211.3125.646.20215l1.65234-.77832c.10205-.04785.21143-.07129.31982-.07129Zm6.44482,1.34668h.00977-.00977Z" fill="var(--iconPrimary, #222)"/>
</svg>