<?xml version="1.0" encoding="UTF-8"?>
<svg xmlns="http://www.w3.org/2000/svg" width="20" height="20" viewBox="0 0 20 20">
  <path d="M12.75,15h-5.5c-1.24072,0-2.25-1.00928-2.25-2.25v-5.5c0-1.24072,1.00928-2.25,2.25-2.25h5.5c1.24072,0,2.25,1.00928,2.25,2.25v5.5c0,1.24072-1.00928,2.25-2.25,2.25ZM7.25,6.5c-.41357,0-.75.33643-.75.75v5.5c0,.41357.33643.75.75.75h5.5c.41357,0,.75-.33643.75-.75v-5.5c0-.41357-.33643-.75-.75-.75h-5.5Z" fill="var(--iconPrimary, #222)"/>
  <path d="M19,4.5h-2.25c-.68945,0-1.25-.56055-1.25-1.25V1c0-.41406.33594-.75.75-.75s.75.33594.75.75v2h2c.41406,0,.75.33594.75.75s-.33594.75-.75.75Z" fill="var(--iconPrimary, #222)"/>
  <path d="M3.25,4.5H1c-.41406,0-.75-.33594-.75-.75s.33594-.75.75-.75h2V1c0-.41406.33594-.75.75-.75s.75.33594.75.75v2.25c0,.68945-.56055,1.25-1.25,1.25Z" fill="var(--iconPrimary, #222)"/>
  <path d="M3.75,19.75c-.41406,0-.75-.33594-.75-.75v-2H1c-.41406,0-.75-.33594-.75-.75s.33594-.75.75-.75h2.25c.68945,0,1.25.56055,1.25,1.25v2.25c0,.41406-.33594.75-.75.75ZM3.25,17h.00977-.00977Z" fill="var(--iconPrimary, #222)"/>
  <path d="M16.25,19.75c-.41406,0-.75-.33594-.75-.75v-2.25c0-.68945.56055-1.25,1.25-1.25h2.25c.41406,0,.75.33594.75.75s-.33594.75-.75.75h-2v2c0,.41406-.33594.75-.75.75Z" fill="var(--iconPrimary, #222)"/>
</svg>