<?xml version="1.0" encoding="UTF-8"?>
<svg id="e" data-name="ICONS" xmlns="http://www.w3.org/2000/svg" width="20" height="20" viewBox="0 0 20 20">
  <path d="M18.08719,10.875c-.48323,0-.875-.39176-.875-.875s.39177-.875.875-.875.875.39175.875.875-.39177.875-.875.875Z" fill="var(--iconPrimary, #222)"/>
  <path d="M14.84475,10.875c-.48323,0-.875-.39176-.875-.875s.39177-.875.875-.875.875.39175.875.875-.39177.875-.875.875Z" fill="var(--iconPrimary, #222)"/>
  <path d="M11.60231,10.875c-.48324,0-.875-.39176-.875-.875s.39176-.875.875-.875.875.39175.875.875-.39176.875-.875.875Z" fill="var(--iconPrimary, #222)"/>
  <path d="M8.35987,10.875c-.48324,0-.875-.39176-.875-.875s.39176-.875.875-.875.875.39175.875.875-.39176.875-.875.875Z" fill="var(--iconPrimary, #222)"/>
  <path d="M1.875,10.875c-.48324,0-.875-.39176-.875-.875s.39176-.875.875-.875.875.39175.875.875-.39176.875-.875.875Z" fill="var(--iconPrimary, #222)"/>
  <path d="M5.11744,10.875c-.48324,0-.875-.39176-.875-.875s.39176-.875.875-.875.875.39175.875.875-.39176.875-.875.875Z" fill="var(--iconPrimary, #222)"/>
</svg>