<?xml version="1.0" encoding="UTF-8"?>
<svg xmlns="http://www.w3.org/2000/svg" width="20" height="20" viewBox="0 0 20 20">
  <path d="m14.75,6V1.75c0-.41406-.33594-.75-.75-.75s-.75.33594-.75.75v4.25c-1.24023,0-2.25,1.00977-2.25,2.25v3.5c0,1.24023,1.00977,2.25,2.25,2.25v4.25c0,.41406.33594.75.75.75s.75-.33594.75-.75v-4.25c1.24023,0,2.25-1.00977,2.25-2.25v-3.5c0-1.24023-1.00977-2.25-2.25-2.25Zm.75,5.75c0,.41309-.33691.75-.75.75h-1.5c-.41309,0-.75-.33691-.75-.75v-3.5c0-.41309.33691-.75.75-.75h1.5c.41309,0,.75.33691.75.75v3.5Z" fill="var(--iconPrimary, #222)"/>
  <path d="m6.75,4V1.75c0-.41406-.33594-.75-.75-.75s-.75.33594-.75.75v2.25c-1.24023,0-2.25,1.00977-2.25,2.25v7.5c0,1.24023,1.00977,2.25,2.25,2.25v2.25c0,.41406.33594.75.75.75s.75-.33594.75-.75v-2.25c1.24023,0,2.25-1.00977,2.25-2.25v-7.5c0-1.24023-1.00977-2.25-2.25-2.25Zm.75,9.75c0,.41309-.33691.75-.75.75h-1.5c-.41309,0-.75-.33691-.75-.75v-7.5c0-.41309.33691-.75.75-.75h1.5c.41309,0,.75.33691.75.75v7.5Z" fill="var(--iconPrimary, #222)"/>
</svg>