<?xml version="1.0" encoding="UTF-8"?>
<svg xmlns="http://www.w3.org/2000/svg" width="20" height="20" viewBox="0 0 20 20">
  <path d="M10.00391,12.58887c-.88818,0-1.75293-.45996-2.22803-1.2832h0c-.70801-1.22754-.28613-2.80078.93994-3.50879.59326-.34375,1.28516-.43359,1.94922-.25684.6626.17773,1.21631.60352,1.55908,1.19727.34326.59375.43408,1.28613.25684,1.94824-.17773.66309-.60254,1.2168-1.19678,1.55957-.40332.2334-.84473.34375-1.28027.34375ZM9.07471,10.55566c.29443.50879.94824.68359,1.45947.39062.24707-.14258.42383-.37305.49756-.64844s.03613-.56348-.10645-.81055c-.14307-.24707-.37305-.42383-.64893-.49805-.2749-.07324-.56299-.03516-.81055.10645-.51025.29492-.68555.94922-.39111,1.45996h0Z" fill="var(--iconPrimary, #222)"/>
  <path d="M6.90674,18.31836c-.33936,0-.68213-.08496-.99219-.26465l-.81982-.47266c-.89307-.51367-1.25-1.64941-.81104-2.58301l.58008-1.2334c-.26514-.36328-.48975-.75098-.67188-1.16113l-1.35693-.1123c-1.02881-.08496-1.83447-.95996-1.83447-1.99121l-.00098-.94629c0-1.0332.80518-1.90918,1.8335-1.99414l1.35449-.11426c.0918-.20898.19238-.40918.30176-.59961.10986-.19141.2334-.37891.36914-.56445l-.58057-1.22949c-.44092-.93262-.08643-2.06836.80713-2.58496l.82031-.47363c.89258-.5166,2.05371-.25879,2.64258.58984l.77734,1.11816c.44385-.0498.89209-.04785,1.34082,0l.77539-1.11914c.58887-.84961,1.75098-1.10938,2.64355-.59375l.81982.47266c.89404.51562,1.24951,1.65137.81055,2.58398l-.58008,1.23242c.26562.36426.49023.75195.67188,1.16113l1.35693.1123c1.02832.08496,1.83398.95996,1.83496,1.99121l.00049.94727c.00098,1.03125-.80371,1.90723-1.83203,1.99414l-1.35547.11426c-.09131.20898-.19189.4082-.30273.59961h0c-.10938.18945-.23242.37793-.36816.56348l.58057,1.22949c.44043.93164.08643,2.06738-.80664,2.58496l-.8208.47461c-.89355.51855-2.05371.25781-2.64258-.59082l-.77734-1.11816c-.4458.04883-.89404.04785-1.34082.00098l-.77637,1.12012c-.38379.55371-1.01172.85645-1.65039.85645ZM6.9043,3.22461c-.08496,0-.17041.02148-.24805.06641l-.8208.47461c-.22266.12891-.31152.41211-.20117.64551l.77881,1.65039c.12598.2666.08398.58203-.10742.80664-.2041.23926-.37305.47656-.5166.72559-.14111.24609-.26514.51855-.36816.80957-.09814.27832-.3501.47266-.64404.49707l-1.81885.15332c-.26172.02246-.4585.23633-.4585.49902l.00098.94629c0,.25781.20117.47656.4585.49805l1.81934.15039c.29395.02441.54639.21875.64502.49707.19873.56055.49707,1.07617.88672,1.53223.19189.22363.23438.54004.10889.80664l-.77783,1.65234c-.10938.2334-.021.51758.20264.64551l.82031.47363c.22412.12988.51416.06348.66016-.14746l1.04102-1.50195c.16748-.24219.45898-.36914.75244-.30957.58838.10742,1.18457.1084,1.77002-.00098.28955-.05469.58496.06641.75342.30957l1.04199,1.49902c.14648.20996.43848.27637.66064.14746l.82031-.47363c.22607-.13086.31348-.40918.20117-.64648l-.77881-1.65039c-.12598-.2666-.08398-.58203.10742-.80664.2041-.24023.37305-.47656.51562-.72461l.00049-.00098c.14258-.24707.26318-.51172.36865-.80957.09863-.27832.35059-.47266.64453-.49707l1.81885-.15234c.25635-.02246.45752-.24121.45752-.49902l-.00049-.94727c0-.26172-.19727-.47559-.45898-.49805l-1.81885-.15039c-.29395-.02441-.54639-.21875-.64502-.49707-.19775-.55957-.49658-1.0752-.88721-1.53223-.19141-.22461-.23389-.54004-.1084-.80664l.77734-1.65234c.10986-.2334.021-.51758-.20264-.64648l-.81982-.47266c-.22461-.12695-.51416-.06152-.66113.14941l-1.03955,1.5c-.16797.24316-.45898.36816-.75293.31055-.59131-.10938-1.1875-.10938-1.77002,0-.29199.05176-.58545-.06738-.75342-.30957l-1.04199-1.49902c-.09619-.1377-.25293-.21387-.41211-.21387Z" fill="var(--iconPrimary, #222)"/>
</svg>