<?xml version="1.0" encoding="UTF-8"?>
<svg xmlns="http://www.w3.org/2000/svg" width="20" height="20" viewBox="0 0 20 20">
  <path d="m13.75,2.75c0-.41406-.33594-.75-.75-.75H4.25c-1.24072,0-2.25,1.00928-2.25,2.25v8.75c0,.41406.33594.75.75.75s.75-.33594.75-.75V4.25c0-.41357.33643-.75.75-.75h8.75c.41406,0,.75-.33594.75-.75Z" fill="var(--iconPrimary, #222)"/>
  <path d="m14.75,11.5c0,.41406-.33594.75-.75.75h-1.75v1.75c0,.41406-.33594.75-.75.75s-.75-.33594-.75-.75v-1.75h-1.75c-.41406,0-.75-.33594-.75-.75s.33594-.75.75-.75h1.75v-1.75c0-.41406.33594-.75.75-.75s.75.33594.75.75v1.75h1.75c.41406,0,.75.33594.75.75Z" fill="var(--iconPrimary, #222)"/>
  <path d="m15.75,5H7.25c-1.24072,0-2.25,1.00928-2.25,2.25v8.5c0,1.24072,1.00928,2.25,2.25,2.25h8.5c1.24072,0,2.25-1.00928,2.25-2.25V7.25c0-1.24072-1.00928-2.25-2.25-2.25Zm.75,10.75c0,.41357-.33643.75-.75.75H7.25c-.41357,0-.75-.33643-.75-.75V7.25c0-.41357.33643-.75.75-.75h8.5c.41357,0,.75.33643.75.75v8.5Z" fill="var(--iconPrimary, #222)"/>
</svg>