<?xml version="1.0" encoding="UTF-8"?>
<svg   xmlns="http://www.w3.org/2000/svg" width="20" height="20" viewBox="0 0 20 20">
  <path d="m17.78076,1.75684c-1.27197-1.04102-3.22705-.89844-4.4502.32324L3.07764,12.33398c-.32031.31934-.55859.7168-.68896,1.15039l-1.38428,4.58398c-.08008.26465-.00781.55176.1875.74707.14258.14258.33447.21973.53027.21973.07227,0,.14551-.01074.2168-.03223l4.58252-1.38379c.43359-.12988.83154-.36816,1.15088-.68848,0,0,10.16846-10.16797,10.35547-10.35547.64795-.64746.99316-1.54492.94775-2.45996-.0459-.91504-.48145-1.77539-1.19482-2.3584ZM2.84473,17.16309l.97998-3.24609c.02716-.09033.06714-.17578.11377-.25732l2.40869,2.40918c-.08154.04639-.16718.08643-.25781.11377l-3.24463.98047Zm14.12158-11.64746c-.15472.15552-7.09985,7.1001-9.52545,9.52588l-2.47461-2.4751L14.39111,3.14062c.38623-.38672.896-.58594,1.38965-.58594.38086,0,.75244.11914,1.05029.3623.3916.32129.62109.77246.646,1.27246.0249.49316-.16113.97656-.51074,1.32617Z" fill="var(--iconPrimary, #222)" />
</svg>