<?xml version="1.0" encoding="UTF-8"?>
<svg id="d" data-name="ICONS" xmlns="http://www.w3.org/2000/svg" width="20" height="20" viewBox="0 0 20 20">
  <path d="M4.74902,18.00391c-.39795,0-.79541-.10742-1.15332-.32129-.68604-.41016-1.0957-1.13281-1.0957-1.93164V4.24902c0-.79883.40967-1.52148,1.0957-1.93164.68555-.40918,1.51514-.42969,2.21924-.0498l10.70117,5.75098c.73047.39258,1.18408,1.15234,1.18408,1.98145s-.45361,1.58887-1.18408,1.98145l-10.70117,5.75098c-.33643.18164-.70166.27148-1.06592.27148ZM4.75244,3.49609c-.17822,0-.31836.06836-.38721.10938-.10986.06543-.36523.25977-.36523.64355v11.50195c0,.38379.25537.57812.36523.64355s.40137.19824.73975.01758l10.70068-5.75098c.35596-.19238.39453-.52637.39453-.66113s-.03857-.46875-.39453-.66113L5.10498,3.58789c-.12646-.06738-.24609-.0918-.35254-.0918Z" fill="var(--iconPrimary, #222)"/>
</svg>