<?xml version="1.0" encoding="UTF-8"?>
<svg xmlns="http://www.w3.org/2000/svg" width="20" height="20" viewBox="0 0 20 20">
  <path d="m13.24023,3.7168l-1.95703-1.95703c-.67871-.67871-1.78418-.67676-2.46289,0l-1.32227,1.32324c-.01831.01831-.02539.04248-.0415.06226l-2.96826,1.61841c-.43262.2373-.76758.62207-.94336,1.08301l-2.19238,5.7627c-.21973.57715-.0791,1.2334.35742,1.66992.30176.30176.70215.46094,1.11133.46094.19727,0,.39648-.03711.58691-.11328l6.11426-2.45898c.4707-.18848.85449-.54395,1.08008-.99609l1.36475-2.72754c.00757-.00708.01758-.00928.0249-.0166l1.24902-1.24902c.67773-.67871.67773-1.78418-.00098-2.46191Zm-3.98047,5.78516c-.06152.125-.16699.22168-.29688.27344l-4.71533,1.89612,2.22852-2.22852c.42017-.03882.75293-.3811.75293-.81165,0-.4563-.36987-.82629-.82617-.82629-.43042,0-.77295.33289-.81152.75317l-2.37695,2.37695,1.73291-4.5553c.04883-.12793.1416-.23438.26074-.2998l2.71387-1.48047,2.52637,2.52734-1.18848,2.375Zm2.91992-4.38281l-.80859.80859-2.29858-2.29858.80737-.80786c.09668-.09668.25-.09375.34277-.00098l1.95703,1.95703c.09375.09375.09375.24805,0,.3418Z" fill="var(--iconPrimary, #222)"/>
  <path d="m18.08105,6.65137c-.43359-.36328-.97656-.53711-1.54883-.48535-.56445.05078-1.07617.31738-1.44824.76367-.05566.06982-3.11377,3.83691-4.36475,5.34033-.24365.0177-.48975.0553-.73584.12354-1.56738.43457-2.12109,1.74316-2.60938,2.89648-.36328.85645-.70508,1.66504-1.41895,2.05176-.28613.1543-.43945.47656-.37988.79688.05957.31934.31836.56445.6416.60645.70703.09082,1.49316.15723,2.28711.15723,1.65918,0,3.35156-.28906,4.41992-1.24219.73633-.65723,1.10156-1.53906,1.08691-2.62305-.00049-.02673-.00928-.05176-.01025-.07837.95996-1.15503,3.0354-3.70667,3.93311-4.80933l.41504-.51074c.36328-.43457.53613-.98438.48535-1.54883s-.31738-1.07617-.75293-1.43848Zm-6.15625,9.88965c-.69922.62207-2.08984.91797-3.92188.85156.31543-.4873.54102-1.01855.75195-1.51758.47168-1.11328.80273-1.80664,1.62891-2.03613.60059-.16602,1.18262-.0791,1.60352.23438.32715.24609.51855.60449.52344.98535.00879.6377-.18262,1.12305-.58594,1.48242Zm5.2793-7.87109c-.00879.01074-.17188.21094-.43457.5332-.75049.92261-2.33057,2.86401-3.38672,4.14893-.14453-.17505-.30762-.33777-.49609-.479-.15137-.11328-.31958-.19678-.48804-.27942,1.44067-1.7489,3.83545-4.70044,3.84546-4.71375.10645-.12695.25586-.20508.42188-.21973.1543-.01758.3252.03613.4541.1416.12695.10645.20508.25586.21973.42188.01465.16504-.03516.32617-.13574.44629Z" fill="var(--iconPrimary, #222)"/>
</svg>