<?xml version="1.0" encoding="UTF-8"?>
<svg xmlns="http://www.w3.org/2000/svg" width="20" height="20" viewBox="0 0 20 20">
    <path d="m9.81836,2.61914c-.21777.35156-.67969.46094-1.03223.24316-.1416-.08789-.29102-.16504-.44434-.23535-.33887-.15137-.7041-.25586-1.08301-.30859-1.53174-.21399-3.0083.49231-3.83398,1.74731l.54395-.1604c.39551-.11523.81445.11035.93164.50781s-.11035.81445-.50781.93164l-2.32422.68555c-.07031.02051-.1416.03027-.21191.03027-.32422,0-.62305-.21094-.71973-.53809L.45117,3.19824c-.11719-.39746.11035-.81445.50781-.93164.39453-.11523.81445.11035.93164.50781l.17969.61023C3.1875,1.56274,5.28857.53943,7.46387.83203c.52148.07227,1.02344.2168,1.49512.42773.21582.09766.41992.20605.61621.32715.35254.21777.46094.67969.24316,1.03223Zm1.9043,5.93164c-.13965-.14258-.3291-.22363-.52832-.22559l-2.78613-.03027h-.00781c-.41016,0-.74512.33008-.75.74219-.00488.41406.32812.75293.74219.75781l.9082.01001c-.98999,1.26978-2.66138,1.82214-4.22852,1.34448-1.10742-.33984-2.00293-1.14551-2.45605-2.21191-.16309-.38184-.60547-.55469-.98438-.39648-.38086.16309-.55859.60352-.39648.98438.62793,1.47461,1.86621,2.58887,3.39746,3.05762.52734.16211,1.06348.23926,1.59277.23926,1.61182,0,3.15601-.72534,4.19189-2l-.01123,1.03027c-.00488.41406.32812.75293.74219.75781h.00781c.41016,0,.74512-.33008.75-.74219l.03027-2.78516c.00195-.19824-.0752-.39062-.21387-.53223Zm7.33789,9.4707l-4.30518-4.3053c.45947-.59424.82471-1.27466,1.03174-2.04431.83691-3.11816-1.01855-6.33789-4.13672-7.17676-1.51074-.40527-3.08984-.19922-4.44434.58203-1.35547.78125-2.3252,2.04395-2.72949,3.54785l-.0332.12598c-.10059.40137.15625.76172.55859.8623.40332.10059.82129-.19141.92188-.59277.30176-1.12402,1.02344-2.0625,2.03125-2.64355,1.00977-.58105,2.18359-.73438,3.30664-.43262,2.31934.62305,3.69922,3.01855,3.07617,5.33887-.30176,1.12305-1.02344,2.0625-2.03223,2.64355-1.00684.58008-2.18164.73633-3.30762.43164-.25488-.06836-.50684-.16113-.74805-.27637-.37793-.1748-.82129-.0166-1,.35547-.17773.37402-.01855.82227.35547,1,.32422.15332.66211.27832,1.00488.37012.50684.13574,1.0166.20117,1.51953.20117,1.30933,0,2.56201-.44653,3.573-1.22388l4.29712,4.29712c.14648.14648.33789.21973.53027.21973s.38379-.07324.53027-.21973c.29297-.29297.29297-.76758,0-1.06055Z" fill="var(--iconPrimary, #222)"/>
</svg>