<?xml version="1.0" encoding="UTF-8"?>
<svg xmlns="http://www.w3.org/2000/svg" width="20" height="20" viewBox="0 0 20 20">
  <path d="M19.07715,9.53341l-2.25-2.25c-.29297-.29297-.76758-.29297-1.06055,0s-.29297.76758,0,1.06055l.96973.96973h-5.98633c-.41406,0-.75.33594-.75.75s.33594.75.75.75h5.98633l-.96973.96973c-.29297.29297-.29297.76758,0,1.06055.14648.14648.33789.21973.53027.21973s.38379-.07324.53027-.21973l2.25-2.25c.29297-.29297.29297-.76758,0-1.06055Z" fill="var(--iconPrimary, #222)"/>
  <path d="M11.75,17h-7.5c-1.24023,0-2.25-1.00977-2.25-2.25V5.25c0-1.24023,1.00977-2.25,2.25-2.25h7.5c1.24023,0,2.25,1.00977,2.25,2.25v1.75c0,.41406-.33594.75-.75.75s-.75-.33594-.75-.75v-1.75c0-.41309-.33691-.75-.75-.75h-7.5c-.41309,0-.75.33691-.75.75v9.5c0,.41309.33691.75.75.75h7.5c.41309,0,.75-.33691.75-.75v-1.75c0-.41406.33594-.75.75-.75s.75.33594.75.75v1.75c0,1.24023-1.00977,2.25-2.25,2.25Z" fill="var(--iconPrimary, #222)"/>
</svg>