<?xml version="1.0" encoding="UTF-8"?>
<svg   xmlns="http://www.w3.org/2000/svg" width="20" height="20" viewBox="0 0 20 20">
  <path d="M9.36865,11.69629c-.21191,0-.41504-.08984-.55762-.24805l-2.30273-2.55957c-.27686-.30859-.25195-.78223.05615-1.05957.30664-.27734.78174-.25195,1.05908.05566l1.68555,1.87402,3.15186-4.29883c.24512-.33398.71387-.4082,1.04834-.16113.33398.24414.40625.71387.16162,1.04785l-3.69727,5.04297c-.13379.18262-.3418.29395-.56738.30566-.0127.00098-.02539.00098-.0376.00098Z" fill="var(--iconPrimary, #222)" stroke-width="0"/>
  <path d="M6.25,19c-.09912,0-.19873-.01953-.29346-.05957-.27686-.11816-.45654-.38965-.45654-.69043v-3.25h-.75c-2.06787,0-3.75-1.68262-3.75-3.75v-5.5c0-2.06738,1.68213-3.75,3.75-3.75h10.5c2.06787,0,3.75,1.68262,3.75,3.75v5.5c0,2.06738-1.68213,3.75-3.75,3.75h-4.54297l-3.93701,3.79004c-.14258.1377-.32959.20996-.52002.20996ZM4.75,3.5c-1.24072,0-2.25,1.00977-2.25,2.25v5.5c0,1.24023,1.00928,2.25,2.25,2.25h1.5c.41406,0,.75.33594.75.75v2.2373l2.88477-2.77734c.13965-.13477.32617-.20996.52002-.20996h4.84521c1.24072,0,2.25-1.00977,2.25-2.25v-5.5c0-1.24023-1.00928-2.25-2.25-2.25H4.75Z" fill="var(--iconPrimary, #222)" stroke-width="0"/>
</svg>