<?xml version="1.0" encoding="UTF-8"?>
<svg xmlns="http://www.w3.org/2000/svg" width="20.00001" height="20.00001" viewBox="0 0 20.00001 20.00001">
  <path d="m14.75001,15h-1.5c-1.24072,0-2.25-1.00977-2.25-2.25v-3.5c0-1.24023,1.00928-2.25,2.25-2.25h1.5c1.24072,0,2.25,1.00977,2.25,2.25v3.5c0,1.24023-1.00928,2.25-2.25,2.25Zm-1.5-6.5c-.41357,0-.75.33691-.75.75v3.5c0,.41309.33643.75.75.75h1.5c.41357,0,.75-.33691.75-.75v-3.5c0-.41309-.33643-.75-.75-.75h-1.5Z" fill="var(--iconPrimary, #222)"/>
  <path d="m6.75001,15h-1.5c-1.24072,0-2.25-1.00977-2.25-2.25v-7.5c0-1.24023,1.00928-2.25,2.25-2.25h1.5c1.24072,0,2.25,1.00977,2.25,2.25v7.5c0,1.24023-1.00928,2.25-2.25,2.25Zm-1.5-10.5c-.41357,0-.75.33691-.75.75v7.5c0,.41309.33643.75.75.75h1.5c.41357,0,.75-.33691.75-.75v-7.5c0-.41309-.33643-.75-.75-.75h-1.5Z" fill="var(--iconPrimary, #222)"/>
  <path d="m18.25001,18H1.75001c-.41406,0-.75-.33594-.75-.75s.33594-.75.75-.75h16.5c.41406,0,.75.33594.75.75s-.33594.75-.75.75Z" fill="var(--iconPrimary, #222)"/>
</svg>