<?xml version="1.0" encoding="UTF-8"?>
<svg xmlns="http://www.w3.org/2000/svg" width="20" height="20" viewBox="0 0 20 20">
  <path d="m18.25,2H1.75c-.41406,0-.75.33594-.75.75s.33594.75.75.75h4.38843c-.08423.23584-.13843.48584-.13843.75v1.5c0,1.24023,1.00977,2.25,2.25,2.25h3.5c1.24023,0,2.25-1.00977,2.25-2.25v-1.5c0-.26416-.0542-.51416-.13831-.75h4.38831c.41406,0,.75-.33594.75-.75s-.33594-.75-.75-.75Zm-5.75,2.25v1.5c0,.41309-.33691.75-.75.75h-3.5c-.41309,0-.75-.33691-.75-.75v-1.5c0-.41309.33691-.75.75-.75h3.5c.41309,0,.75.33691.75.75Z" fill="var(--iconPrimary, #222)"/>
  <path d="m18.25,11H1.75c-.41406,0-.75.33594-.75.75s.33594.75.75.75h2.38843c-.08423.23584-.13843.48584-.13843.75v1.5c0,1.24023,1.00977,2.25,2.25,2.25h7.5c1.24023,0,2.25-1.00977,2.25-2.25v-1.5c0-.26416-.0542-.51416-.13831-.75h2.38831c.41406,0,.75-.33594.75-.75s-.33594-.75-.75-.75Zm-3.75,2.25v1.5c0,.41309-.33691.75-.75.75h-7.5c-.41309,0-.75-.33691-.75-.75v-1.5c0-.41309.33691-.75.75-.75h7.5c.41309,0,.75.33691.75.75Z" fill="var(--iconPrimary, #222)"/>
</svg>