<?xml version="1.0" encoding="UTF-8"?>
<svg xmlns="http://www.w3.org/2000/svg" width="20" height="20" viewBox="0 0 20 20">
  <path d="m7.47754,2h9.04492c1.22852,0,2.22754,1.00977,2.22754,2.25v1.11035c0,.41406-.33594.75-.75.75s-.75-.33594-.75-.75v-1.11035c0-.41309-.32617-.75-.72754-.75h-3.77246s0,13,0,13h1.57031c.41406,0,.75.33594.75.75s-.33594.75-.75.75h-4.64062c-.41406,0-.75-.33594-.75-.75s.33594-.75.75-.75h1.57031s0-13,0-13h-3.77246c-.40137,0-.72754.33691-.72754.75v1.11035c0,.41406-.33594.75-.75.75s-.75-.33594-.75-.75v-1.11035c0-1.24023.99902-2.25,2.22754-2.25Z" fill="var(--iconPrimary, #222)"/>
  <path d="m2.25,9h5c.82715,0,1.5.67285,1.5,1.5v.86035c0,.41406-.33594.75-.75.75s-.75-.33594-.75-.75v-.86035s-1.75,0-1.75,0v6s.58594,0,.58594,0c.41406,0,.75.33594.75.75s-.33594.75-.75.75h-2.63965c-.41406,0-.75-.33594-.75-.75s.33594-.75.75-.75h.55371s0-6,0-6h-1.75s0,.86035,0,.86035c0,.41406-.33594.75-.75.75s-.75-.33594-.75-.75v-.86035c0-.82715.67285-1.5,1.5-1.5Z" fill="var(--iconPrimary, #222)"/>
</svg>