<?xml version="1.0" encoding="UTF-8"?>
<svg xmlns="http://www.w3.org/2000/svg" width="20" height="20" viewBox="0 0 20 20">
  <path d="M18.73438,12.88477l-.69092-.06055c-.08691-.18359-.1875-.36035-.30078-.52734l.29834-.62598c.30566-.64258.07275-1.39844-.54297-1.75977l-.48047-.28027c-.60596-.35352-1.39648-.17969-1.79834.39551l-.39697.56543c-.10059-.00879-.20215-.0127-.30469-.01367-.10449-.00781-.20459.00293-.30518.01172l-.39111-.56934c-.39893-.58105-1.18701-.76074-1.79492-.41113l-.48389.27539c-.60986.34863-.85449,1.12012-.55762,1.75488l.29248.62891c-.11523.16602-.21729.3418-.30566.52441l-.69141.05469c-.69922.05566-1.24951.64844-1.25293,1.34961l-.00244.55762c-.00293.71094.53027,1.2959,1.24072,1.36035l.69092.06055c.08691.18359.1875.36035.30078.52734l-.29834.62598c-.30566.64258-.07275,1.39844.54297,1.75977l.48047.28027c.60596.35352,1.39648.17969,1.79834-.39551l.39697-.56543c.10059.00879.20215.0127.30469.01367.10254-.00391.20361-.00391.30518-.01172l.39111.56934c.26123.38086.69043.58887,1.12598.58887.229,0,.45947-.05762.66895-.17773l.48389-.27539c.60986-.34863.85449-1.12012.55762-1.75488l-.29248-.62891c.11523-.16602.21729-.3418.30566-.52441l.69141-.05469c.69922-.05566,1.24951-.64844,1.25293-1.34961l.00244-.55762c.00293-.71094-.53027-1.2959-1.24072-1.36035ZM18.72266,14.79688c-.00049.05664-.04492.10449-.10107.10938l-1.06982.08398c-.24512.01953-.45605.17969-.53906.41113-.1123.31152-.27734.59473-.49023.8418-.16064.18652-.19727.44922-.09326.67188l.45312.97363c.02393.05078.00439.11328-.04443.14062l-.48535.27637c-.04785.02832-.11084.01367-.14307-.03418l-.60791-.88379c-.11816-.1709-.31152-.27051-.51514-.27051-.03662,0-.07373.00293-.11084.00977-.15479.02832-.31348.04492-.47607.04492-.18848-.00879-.33594-.01758-.49756-.04883-.24463-.04199-.48779.05469-.62891.25586l-.61621.87793c-.03271.04785-.0957.06348-.14453.03223l-.47949-.2793c-.05029-.03027-.06982-.0918-.04541-.14355l.46191-.96875c.10596-.22168.07178-.48535-.0874-.67285-.21045-.24805-.37256-.53223-.48242-.8457-.08105-.23145-.29053-.39453-.53516-.41602l-1.06787-.09277c-.05713-.00586-.10156-.05371-.10156-.11035l.00244-.55664c.00049-.05664.04492-.10449.10107-.10938l1.06982-.08398c.24512-.01953.45605-.17969.53906-.41113.1123-.31152.27734-.59473.49023-.8418.16064-.18652.19727-.44922.09326-.67188l-.45312-.97363c-.02393-.05078-.00439-.11328.04443-.14062l.48535-.27637c.04834-.02832.11084-.0127.14307.03418l.60791.88379c.13916.20117.38086.30273.62598.26074.15479-.02832.31348-.04492.47607-.04492.15137.00879.33594.01758.49756.04883.24316.04199.48779-.05469.62891-.25586l.61621-.87793c.03271-.04883.0957-.06348.14453-.03223l.47949.2793c.05029.03027.06982.0918.04541.14355l-.46191.96875c-.10596.22168-.07178.48535.0874.67285.21045.24805.37256.53223.48242.8457.08105.23145.29053.39453.53516.41602l1.06787.09277c.05713.00586.10156.05371.10156.11035l-.00244.55664Z" fill="var(--iconPrimary, #222)"/>
  <path d="M14.50494,13.38904c-.61359-.00281-1.11316.49255-1.11591,1.10608-.00269.61353.49249,1.11304,1.10602,1.11584.61359.00269,1.11316-.49255,1.11591-1.10608.00269-.61353-.49249-1.11316-1.10602-1.11584Z" fill="var(--iconPrimary, #222)"/>
  <path d="M18,4c0-2.06152-4.14697-3-8-3S2,1.93848,2,4c0,0-.00861,9.95496,0,10,.3501,1.82812,3.85107,2.57617,4.91162,2.75293.0415.00684.08301.00977.12402.00977.35986,0,.67773-.25977.73877-.62695.06787-.4082-.20801-.79492-.6167-.86328-2.56201-.42603-3.56421-1.23486-3.65771-1.5v-3.36694c1.34125.74292,3.37274,1.18506,5.24658,1.30444.01611.00195.03223.00195.04834.00195.39258,0,.72266-.30469.74805-.70215.02637-.41309-.28711-.76953-.70068-.7959-3.00732-.19238-5.02588-1.09863-5.32715-1.67773-.00385-.00745-.01105-.01147-.01514-.0188v-2.6709c1.55219.78394,4.08337,1.15356,6.5,1.15356s4.94781-.36963,6.5-1.15356v1.40356c0,.41406.33594.75.75.75s.75-.33594.75-.75v-3c0-.03418-.01508-.06348-.01953-.09656.00537-.05139.01953-.10046.01953-.15344ZM10,5.5c-4.27094,0-6.40741-1.08972-6.5-1.49341v-.00146c.09259-.41541,2.22906-1.50513,6.5-1.50513,4.25342,0,6.39014,1.08105,6.49902,1.5-.10889.41895-2.24561,1.5-6.49902,1.5Z" fill="var(--iconPrimary, #222)"/>
</svg>