<?xml version="1.0" encoding="UTF-8"?>
<svg xmlns="http://www.w3.org/2000/svg" width="20" height="20" viewBox="0 0 20 20">
  <path d="m10.75,9h-3.5c-1.24072,0-2.25-1.00977-2.25-2.25v-1.5c0-1.24023,1.00928-2.25,2.25-2.25h3.5c1.24072,0,2.25,1.00977,2.25,2.25v1.5c0,1.24023-1.00928,2.25-2.25,2.25Zm-3.5-4.5c-.41357,0-.75.33691-.75.75v1.5c0,.41309.33643.75.75.75h3.5c.41357,0,.75-.33691.75-.75v-1.5c0-.41309-.33643-.75-.75-.75h-3.5Z" fill="var(--iconPrimary, #222)"/>
  <path d="m14.75,17h-7.5c-1.24072,0-2.25-1.00977-2.25-2.25v-1.5c0-1.24023,1.00928-2.25,2.25-2.25h7.5c1.24072,0,2.25,1.00977,2.25,2.25v1.5c0,1.24023-1.00928,2.25-2.25,2.25Zm-7.5-4.5c-.41357,0-.75.33691-.75.75v1.5c0,.41309.33643.75.75.75h7.5c.41357,0,.75-.33691.75-.75v-1.5c0-.41309-.33643-.75-.75-.75h-7.5Z" fill="var(--iconPrimary, #222)"/>
  <path d="m2.75,19c-.41406,0-.75-.33594-.75-.75V1.75c0-.41406.33594-.75.75-.75s.75.33594.75.75v16.5c0,.41406-.33594.75-.75.75Z" fill="var(--iconPrimary, #222)"/>
</svg>