<?xml version="1.0" encoding="UTF-8"?>
<svg   xmlns="http://www.w3.org/2000/svg" width="20" height="20" viewBox="0 0 20 20">
  <path d="M10,18.75c-4.82471,0-8.75-3.9248-8.75-8.75S5.17529,1.25,10,1.25s8.75,3.9248,8.75,8.75-3.92529,8.75-8.75,8.75ZM10,2.75c-3.99756,0-7.25,3.25195-7.25,7.25s3.25244,7.25,7.25,7.25,7.25-3.25195,7.25-7.25-3.25244-7.25-7.25-7.25Z" fill="var(--iconPrimary, #222)"/>
  <path d="M6.86084,10.40527c-.49854,0-.93896-.16504-1.25488-.48242-.43604-.43555-.58545-1.10645-.40967-1.8418.15234-.6377.53467-1.28711,1.07666-1.8291,1.21631-1.21484,2.82764-1.50781,3.6709-.66699v.00098c.84229.84277.54932,2.45508-.66699,3.6709-.54199.54199-1.19141.92383-1.82812,1.07617-.20215.04883-.39941.07227-.58789.07227ZM8.69287,6.35449c-.39062,0-.98389.22949-1.53613.78223-.37549.375-.64697.8252-.74512,1.23535-.07129.29785-.04199.54688.07812.66699.11963.12109.36963.15234.66797.07812.40967-.09766.85986-.36914,1.23535-.74512.78418-.7832.91895-1.65039.66699-1.90234-.07471-.0752-.20312-.11523-.36719-.11523Z" fill="var(--iconPrimary, #222)"/>
</svg>