<?xml version="1.0" encoding="UTF-8"?>
<svg xmlns="http://www.w3.org/2000/svg" width="20" height="20" viewBox="0 0 20 20">
  <path d="m18.53027,17.46973l-5.08325-5.08325c.96936-1.20142,1.55298-2.72644,1.55298-4.38647,0-3.85938-3.14062-7-7-7S1,4.14062,1,8s3.14062,7,7,7c1.66003,0,3.18506-.58362,4.38647-1.55298l5.08325,5.08325c.14648.14648.33789.21973.53027.21973s.38379-.07324.53027-.21973c.29297-.29297.29297-.76758,0-1.06055Zm-10.53027-3.96973c-3.03223,0-5.5-2.46777-5.5-5.5s2.46777-5.5,5.5-5.5,5.5,2.46777,5.5,5.5-2.46777,5.5-5.5,5.5Z" fill="var(--iconPrimary, #222)"/>
</svg>