<?xml version="1.0" encoding="UTF-8"?>
<svg   xmlns="http://www.w3.org/2000/svg" width="20" height="20" viewBox="0 0 20 20">
  <path d="M1.75,19c-.41406,0-.75-.33594-.75-.75v-7.77832c0-.47559.19727-.9375.54102-1.26562l2.22363-2.12207c.29688-.28613.77441-.27637,1.05957.02441.28613.29883.27539.77441-.02441,1.05957l-2.22266,2.12207c-.0498.04785-.07715.1123-.07715.18164v7.77832c0,.41406-.33594.75-.75.75Z" fill="var(--iconPrimary, #222)"/>
  <path d="M4.25,19.00879c-.41406,0-.75-.33594-.75-.75v-6.44238c0-.41406.33594-.75.75-.75s.75.33594.75.75v6.44238c0,.41406-.33594.75-.75.75Z" fill="var(--iconPrimary, #222)"/>
  <path d="M17.75,19h-2c-.41406,0-.75-.33594-.75-.75s.33594-.75.75-.75h2c.41309,0,.75-.33691.75-.75v-6.5c0-.41309-.33691-.75-.75-.75h-2c-.41406,0-.75-.33594-.75-.75s.33594-.75.75-.75h2c1.24023,0,2.25,1.00977,2.25,2.25v6.5c0,1.24023-1.00977,2.25-2.25,2.25Z" fill="var(--iconPrimary, #222)"/>
  <path d="M11.47754,3h-.72754v-1.25c0-.41406-.33594-.75-.75-.75s-.75.33594-.75.75v1.25h-.72754c-1.39062,0-2.52246,1.00977-2.52246,2.25v11.5c0,1.24023,1.13184,2.25,2.52246,2.25h2.95508c1.39062,0,2.52246-1.00977,2.52246-2.25V5.25c0-1.24023-1.13184-2.25-2.52246-2.25ZM12.5,16.75c0,.40625-.46777.75-1.02246.75h-2.95508c-.55469,0-1.02246-.34375-1.02246-.75V5.25c0-.40625.46777-.75,1.02246-.75h2.95508c.55469,0,1.02246.34375,1.02246.75v11.5Z" fill="var(--iconPrimary, #222)"/>
  <path d="M8.72949,7c-.09961,0-.19922-.02051-.29004-.06055-.08984-.04004-.16992-.08984-.23926-.15918-.07031-.07031-.13086-.15039-.16992-.24023-.03027-.08984-.05078-.19043-.05078-.29004,0-.10059.02051-.2002.05078-.29004.03906-.08984.09961-.16992.16992-.24023.06934-.07031.14941-.12012.23926-.16016.19043-.08008.39062-.08008.58008,0,.08984.04004.16992.08984.24023.16016.13965.13965.21973.33008.21973.53027s-.08008.38965-.21973.53027c-.07031.06934-.15039.11914-.24023.15918-.09961.04004-.18945.06055-.29004.06055Z" fill="var(--iconPrimary, #222)"/>
  <path d="M11.25,7c-.10059,0-.2002-.02051-.29004-.06055-.08984-.0293-.16992-.08984-.24023-.15918-.07031-.07031-.12012-.15039-.16016-.24023s-.05957-.19043-.05957-.29004c0-.10059.01953-.2002.05957-.29004s.08984-.16992.16016-.24023.15039-.12012.24023-.16016c.18945-.08008.39941-.08008.58008,0,.08984.04004.16992.08984.24023.16016.06934.07031.12988.15039.15918.24023.04004.08984.06055.18945.06055.29004,0,.09961-.02051.2002-.06055.29004-.0293.08984-.08984.16992-.15918.24023-.07031.06934-.15039.12988-.24023.15918-.08984.04004-.19043.06055-.29004.06055Z" fill="var(--iconPrimary, #222)"/>
  <path d="M8.72949,10c-.09961,0-.19922-.02051-.29004-.06055-.08984-.0293-.16992-.08984-.23926-.15918-.07031-.07031-.13086-.15039-.16016-.24023-.04004-.08984-.06055-.19043-.06055-.29004,0-.10059.02051-.2002.06055-.29004.0293-.08984.08984-.16992.16016-.24023.06934-.07031.14941-.12012.23926-.16016.18066-.08008.39062-.08008.58008,0,.08984.04004.16992.08984.24023.16016.13965.13965.21973.33008.21973.53027s-.08008.38965-.21973.53027c-.07031.06934-.15039.12988-.24023.15918-.09961.04004-.2002.06055-.29004.06055Z" fill="var(--iconPrimary, #222)"/>
  <path d="M11.25,10c-.10059,0-.2002-.02051-.29004-.06055-.08984-.0293-.16992-.08984-.24023-.15918-.13965-.14062-.21973-.33008-.21973-.53027s.08008-.39062.21973-.53027c.07031-.07031.15039-.12012.24023-.16016.18945-.08008.39941-.08008.58008,0,.08984.04004.16992.08984.24023.16016.06934.07031.12988.15039.15918.24023.04004.08984.06055.18945.06055.29004,0,.09961-.02051.2002-.06055.29004-.0293.08984-.08984.16992-.15918.24023-.07031.06934-.15039.12988-.24023.15918-.08984.04004-.19043.06055-.29004.06055Z" fill="var(--iconPrimary, #222)"/>
  <path d="M8.72949,13c-.09961,0-.19922-.02051-.29004-.06055-.08984-.04004-.16992-.08984-.23926-.15918-.14062-.14062-.2207-.33008-.2207-.53027,0-.10059.02051-.19043.05078-.29004.03906-.08984.09961-.16992.16992-.24023.06934-.07031.14941-.12012.23926-.16016.28027-.12012.61035-.0498.82031.16016.07031.07031.12012.15039.16016.24023.04004.09961.05957.18945.05957.29004,0,.2002-.08008.38965-.21973.53027-.13965.13965-.33984.21973-.53027.21973Z" fill="var(--iconPrimary, #222)"/>
  <path d="M11.25,13c-.19043,0-.39062-.08008-.53027-.21973-.13965-.14062-.21973-.33008-.21973-.53027,0-.10059.01953-.19043.05957-.29004.04004-.08984.08984-.16992.16016-.24023.29004-.28027.78027-.28027,1.06055,0,.13965.13965.21973.33008.21973.53027,0,.09961-.02051.2002-.06055.29004s-.08984.16992-.15918.24023c-.14062.13965-.33008.21973-.53027.21973Z" fill="var(--iconPrimary, #222)"/>
  <path d="M8.72949,16c-.19922,0-.38965-.08008-.5293-.21973-.07031-.07031-.13086-.15039-.16016-.24023-.04004-.08984-.06055-.19043-.06055-.29004,0-.10059.02051-.19043.06055-.29004.0293-.08984.08984-.16992.16016-.24023.2793-.28027.76953-.28027,1.05957,0,.07031.07031.12012.15039.16016.24023.04004.09961.05957.18945.05957.29004,0,.09961-.01953.2002-.05957.29004s-.08984.16992-.16016.24023c-.13965.13965-.33984.21973-.53027.21973Z" fill="var(--iconPrimary, #222)"/>
  <path d="M11.25,16c-.10059,0-.19043-.02051-.29004-.06055-.08984-.0293-.16992-.08984-.24023-.15918-.07031-.07031-.12012-.15039-.16016-.24023s-.05957-.19043-.05957-.29004c0-.10059.01953-.19043.05957-.29004.04004-.08984.08984-.16992.16016-.24023s.15039-.12012.24023-.16016c.18945-.08008.38965-.08008.58008,0,.08984.04004.16992.08984.24023.16016.06934.07031.12988.15039.15918.24023.04004.09961.06055.18945.06055.29004,0,.2002-.08008.38965-.21973.53027-.07031.06934-.15039.12988-.24023.15918-.08984.04004-.19043.06055-.29004.06055Z" fill="var(--iconPrimary, #222)"/>
  <path d="M15.75,12.5c-.10059,0-.19043-.02051-.29004-.06055-.08984-.04004-.16992-.08984-.24023-.15918-.07031-.07031-.12012-.15039-.16016-.24023s-.05957-.19043-.05957-.29004c0-.10059.01953-.19043.05957-.29004.04004-.08984.08984-.16992.16016-.24023s.15039-.12012.24023-.16016c.28027-.12012.60938-.0498.82031.16016.06934.07031.12988.15039.15918.24023.04004.09961.06055.18945.06055.29004,0,.09961-.02051.2002-.06055.29004-.0293.08984-.08984.16992-.15918.24023-.14062.13965-.33008.21973-.53027.21973Z" fill="var(--iconPrimary, #222)"/>
  <path d="M15.75,15.5c-.2002,0-.39062-.08008-.53027-.21973-.13965-.14062-.21973-.33008-.21973-.53027s.08008-.39062.21973-.53027c.20996-.20996.54004-.28027.82031-.16016.08984.04004.16992.08984.24023.16016.06934.07031.12988.15039.15918.24023.04004.09961.06055.18945.06055.29004,0,.09961-.02051.2002-.06055.29004-.0293.08984-.08984.16992-.15918.24023-.14062.13965-.33008.21973-.53027.21973Z" fill="var(--iconPrimary, #222)"/>
</svg>