<?xml version="1.0" encoding="UTF-8"?>
<svg   xmlns="http://www.w3.org/2000/svg" width="20" height="20" viewBox="0 0 20 20">
  <path d="m2.75,11.75c-.41406,0-.75-.33594-.75-.75v-2.5c0-.41406.33594-.75.75-.75s.75.33594.75.75v2.5c0,.41406-.33594.75-.75.75Z" fill="var(--iconPrimary, #222)" stroke-width="0"/>
  <path d="m16.75,12.75c-.41406,0-.75-.33594-.75-.75v-4.5c0-.41406.33594-.75.75-.75s.75.33594.75.75v4.5c0,.41406-.33594.75-.75.75Z" fill="var(--iconPrimary, #222)" stroke-width="0"/>
  <path d="m6.25,16.5c-.41406,0-.75-.33594-.75-.75V3.75c0-.41406.33594-.75.75-.75s.75.33594.75.75v12c0,.41406-.33594.75-.75.75Z" fill="var(--iconPrimary, #222)" stroke-width="0"/>
  <path d="m9.75,14.5c-.41406,0-.75-.33594-.75-.75V5.75c0-.41406.33594-.75.75-.75s.75.33594.75.75v8c0,.41406-.33594.75-.75.75Z" fill="var(--iconPrimary, #222)" stroke-width="0"/>
  <path d="m13.25,19c-.41406,0-.75-.33594-.75-.75V1.75c0-.41406.33594-.75.75-.75s.75.33594.75.75v16.5c0,.41406-.33594.75-.75.75Z" fill="var(--iconPrimary, #222)" stroke-width="0"/>
</svg>