<?xml version="1.0" encoding="UTF-8"?>
<svg xmlns="http://www.w3.org/2000/svg" width="20" height="20" viewBox="0 0 20 20">
  <path d="M15.75,11H4.99475l5.71863-6.63428c.78174-.90723.729-2.23926-.11865-2.96973l-.32227-.27734c-.42139-.36377-.9707-.52295-1.54102-.45068-.54248.06885-1.04443.34277-1.41309.771L1.43945,8.25977c-.78223.90723-.729,2.23877.11768,2.96875l.32275.27832c.18323.15802.39087.27588.61328.35468-.30396.38367-.49316.86206-.49316,1.38849v3c0,1.5166,1.2334,2.75,2.75,2.75h10.5c1.5166,0,2.75-1.2334,2.75-2.75v-3c0-1.24072-1.00928-2.25-2.25-2.25ZM2.5752,9.23926l5.87891-6.8208c.12695-.14697.29297-.24072.46729-.2627.02002-.00244.04492-.00488.07275-.00488.08643,0,.20166.02002.29932.104l.32227.27734c.2168.18701.19971.57812-.03809.854l-5.87939,6.8208c-.12695.14697-.29297.24072-.46729.2627-.08057.01172-.24268.01221-.37158-.09863l-.32275-.27832c-.2168-.18701-.19873-.57764.03857-.85352ZM16.5,16.25c0,.68945-.56055,1.25-1.25,1.25H4.75c-.68945,0-1.25-.56055-1.25-1.25v-3c0-.41357.33643-.75.75-.75h11.5c.41357,0,.75.33643.75.75v3Z" fill="var(--iconPrimary, #222)"/>
  <path d="M11.5,15.5h-3c-.41406,0-.75-.33594-.75-.75s.33594-.75.75-.75h3c.41406,0,.75.33594.75.75s-.33594.75-.75.75Z" fill="var(--iconPrimary, #222)"/>
  <path d="M18.28027,2.71973c-.29297-.29297-.76758-.29297-1.06055,0l-3.71973,3.71973v-1.18945c0-.41406-.33594-.75-.75-.75s-.75.33594-.75.75v3c0,.41406.33594.75.75.75h3c.41406,0,.75-.33594.75-.75s-.33594-.75-.75-.75h-1.18945l3.71973-3.71973c.29297-.29297.29297-.76758,0-1.06055Z" fill="var(--iconPrimary, #222)"/>
</svg>