<?xml version="1.0" encoding="UTF-8"?>
<svg xmlns="http://www.w3.org/2000/svg" width="20" height="20" viewBox="0 0 20 20">
  <path d="m18.53027,13.46973l-3-3c-.29297-.29297-.76758-.29297-1.06055,0s-.29297.76758,0,1.06055l1.71973,1.71973H4c-.41406,0-.75.33594-.75.75s.33594.75.75.75h12.18945l-1.71973,1.71973c-.29297.29297-.29297.76758,0,1.06055.14648.14648.33838.21973.53027.21973s.38379-.07324.53027-.21973l3-3c.29297-.29297.29297-.76758,0-1.06055Z" fill="var(--iconPrimary, #222)"/>
  <path d="m16,5.25H3.81055l1.71973-1.71973c.29297-.29297.29297-.76758,0-1.06055s-.76758-.29297-1.06055,0l-3,3c-.29297.29297-.29297.76758,0,1.06055l3,3c.14648.14648.33838.21973.53027.21973s.38379-.07324.53027-.21973c.29297-.29297.29297-.76758,0-1.06055l-1.71973-1.71973h12.18945c.41406,0,.75-.33594.75-.75s-.33594-.75-.75-.75Z" fill="var(--iconPrimary, #222)"/>
</svg>