<?xml version="1.0" encoding="UTF-8"?>
<svg xmlns="http://www.w3.org/2000/svg" width="20" height="20" viewBox="0 0 20 20">
  <path d="m8.5,15h-2c-.82715,0-1.5-.67285-1.5-1.5s.67285-1.5,1.5-1.5h2c.82715,0,1.5.67285,1.5,1.5s-.67285,1.5-1.5,1.5Z" fill="var(--iconPrimary, #222)"/>
  <path d="m15.75,18H4.25c-1.24072,0-2.25-1.00977-2.25-2.25V4.25c0-1.24023,1.00928-2.25,2.25-2.25h11.5c1.24072,0,2.25,1.00977,2.25,2.25v11.5c0,1.24023-1.00928,2.25-2.25,2.25ZM4.25,3.5c-.41357,0-.75.33691-.75.75v11.5c0,.41309.33643.75.75.75h11.5c.41357,0,.75-.33691.75-.75V4.25c0-.41309-.33643-.75-.75-.75H4.25Z" fill="var(--iconPrimary, #222)"/>
  <path d="m13.25,10h-2.8335c-.96484,0-1.75-.78516-1.75-1.75v-1.5c0-.96484.78516-1.75,1.75-1.75h2.8335c.96484,0,1.75.78516,1.75,1.75v1.5c0,.96484-.78516,1.75-1.75,1.75Zm-2.8335-3.5c-.1377,0-.25.1123-.25.25v1.5c0,.1377.1123.25.25.25h2.8335c.1377,0,.25-.1123.25-.25v-1.5c0-.1377-.1123-.25-.25-.25h-2.8335Z" fill="var(--iconPrimary, #222)"/>
</svg>