<?xml version="1.0" encoding="UTF-8"?>
<svg xmlns="http://www.w3.org/2000/svg" width="20" height="20" viewBox="0 0 20 20">
  <path d="m12.25732,5H3.80811l1.71973-1.71973c.29297-.29297.29297-.76758,0-1.06055s-.76758-.29297-1.06055,0l-2.99756,2.99756c-.29297.29248-.29297.76709-.00049,1.06006l2.99756,3.00244c.14648.14697.33838.22021.53076.22021.19189,0,.3833-.07324.52979-.21924.29346-.29248.29346-.76758.00098-1.06055l-1.71747-1.72021h8.44647c2.48145,0,4.50049,2.01855,4.50049,4.5s-2.01904,4.5-4.50049,4.5h-3.73779c-.41406,0-.75.33594-.75.75s.33594.75.75.75h3.73779c3.30859,0,6.00049-2.69141,6.00049-6s-2.69189-6-6.00049-6Z" fill="var(--iconPrimary, #222)"/>
</svg>