<?xml version="1.0" encoding="UTF-8"?>
<svg xmlns="http://www.w3.org/2000/svg" width="20" height="20" viewBox="0 0 20 20">
  <path d="m11.75,18h-7.5c-1.24023,0-2.25-1.00977-2.25-2.25v-7.5c0-1.24023,1.00977-2.25,2.25-2.25.41406,0,.75.33594.75.75s-.33594.75-.75.75c-.41309,0-.75.33691-.75.75v7.5c0,.41309.33691.75.75.75h7.5c.41309,0,.75-.33691.75-.75,0-.41406.33594-.75.75-.75s.75.33594.75.75c0,1.24023-1.00977,2.25-2.25,2.25Z" fill="var(--iconPrimary, #222)"/>
  <path d="m6.75,5c-.41406,0-.75-.33594-.75-.75,0-1.24023,1.00977-2.25,2.25-2.25.41406,0,.75.33594.75.75s-.33594.75-.75.75c-.41309,0-.75.33691-.75.75,0,.41406-.33594.75-.75.75Z" fill="var(--iconPrimary, #222)"/>
  <path d="m13,3.5h-2c-.41406,0-.75-.33594-.75-.75s.33594-.75.75-.75h2c.41406,0,.75.33594.75.75s-.33594.75-.75.75Z" fill="var(--iconPrimary, #222)"/>
  <path d="m13,14h-2c-.41406,0-.75-.33594-.75-.75s.33594-.75.75-.75h2c.41406,0,.75.33594.75.75s-.33594.75-.75.75Z" fill="var(--iconPrimary, #222)"/>
  <path d="m15.75,14c-.41406,0-.75-.33594-.75-.75s.33594-.75.75-.75c.41309,0,.75-.33691.75-.75,0-.41406.33594-.75.75-.75s.75.33594.75.75c0,1.24023-1.00977,2.25-2.25,2.25Z" fill="var(--iconPrimary, #222)"/>
  <path d="m17.25,5c-.41406,0-.75-.33594-.75-.75,0-.41309-.33691-.75-.75-.75-.41406,0-.75-.33594-.75-.75s.33594-.75.75-.75c1.24023,0,2.25,1.00977,2.25,2.25,0,.41406-.33594.75-.75.75Z" fill="var(--iconPrimary, #222)"/>
  <path d="m17.25,9.75c-.41406,0-.75-.33594-.75-.75v-2c0-.41406.33594-.75.75-.75s.75.33594.75.75v2c0,.41406-.33594.75-.75.75Z" fill="var(--iconPrimary, #222)"/>
  <path d="m6.75,9.75c-.41406,0-.75-.33594-.75-.75v-2c0-.41406.33594-.75.75-.75s.75.33594.75.75v2c0,.41406-.33594.75-.75.75Z" fill="var(--iconPrimary, #222)"/>
  <path d="m8.25,14c-1.24023,0-2.25-1.00977-2.25-2.25,0-.41406.33594-.75.75-.75s.75.33594.75.75c0,.41309.33691.75.75.75.41406,0,.75.33594.75.75s-.33594.75-.75.75Z" fill="var(--iconPrimary, #222)"/>
</svg>