<?xml version="1.0" encoding="UTF-8"?>
<svg xmlns="http://www.w3.org/2000/svg" width="20" height="20" viewBox="0 0 20 20">
  <path d="m14.52246,2H5.47754c-1.22852,0-2.22754,1.00977-2.22754,2.25v1.11035c0,.41406.33594.75.75.75s.75-.33594.75-.75v-1.11035c0-.41309.32617-.75.72754-.75h3.77246v11h-1.57031c-.41406,0-.75.33594-.75.75s.33594.75.75.75h4.64062c.41406,0,.75-.33594.75-.75s-.33594-.75-.75-.75h-1.57031V3.5h3.77246c.40137,0,.72754.33691.72754.75v1.11035c0,.41406.33594.75.75.75s.75-.33594.75-.75v-1.11035c0-1.24023-.99902-2.25-2.22754-2.25Z" fill="var(--iconPrimary, #222)"/>
  <path d="m16.25,19H3.75c-.41406,0-.75-.33594-.75-.75s.33594-.75.75-.75h12.5c.41406,0,.75.33594.75.75s-.33594.75-.75.75Z" fill="var(--iconPrimary, #222)"/>
</svg>