<?xml version="1.0" encoding="UTF-8"?>
<svg id="g" data-name="ICONS" xmlns="http://www.w3.org/2000/svg" width="20" height="20" viewBox="0 0 20 20">
  <path d="M10,18c-.48877,0-.97754-.16016-1.38574-.48047h0c-1.58594-1.24414-5.20264-4.51172-6.37451-6.42871-.93262-1.52539-1.25293-3.41309-.85693-5.04883.33984-1.4043,1.16211-2.53711,2.37842-3.27832,1.37402-.83887,3.02295-.99707,4.30176-.41309.66016.30176,1.36328.82715,1.92871,1.4209.57812-.62988,1.27295-1.13965,1.96729-1.42969,1.31152-.55176,2.95264-.3877,4.28027.42188,1.21582.74121,2.03809,1.87402,2.37793,3.27832.396,1.63574.07568,3.52344-.85693,5.04883-1.16943,1.91309-4.78711,5.18262-6.37451,6.42871-.40771.32031-.89697.48047-1.38574.48047Z" fill="var(--iconPrimary, #222)"/>
</svg>