<?xml version="1.0" encoding="UTF-8"?>
<svg xmlns="http://www.w3.org/2000/svg" width="20" height="20" viewBox="0 0 20 20">
  <path id="b"  d="M11.66411,4.92114c0,.69588-.57855,1.26-1.29222,1.26-.71368,0-1.29222-.56412-1.29222-1.26,0-.69588.57855-1.26,1.29222-1.26s1.29222.56412,1.29222,1.26h0" fill="var(--iconPrimary, #222)"/>
  <path d="M16.75,19h-6.5c-1.24023,0-2.25-1.00977-2.25-2.25v-6.5c0-1.24023,1.00977-2.25,2.25-2.25h6.5c1.24023,0,2.25,1.00977,2.25,2.25v6.5c0,1.24023-1.00977,2.25-2.25,2.25ZM10.25,9.5c-.41309,0-.75.33691-.75.75v6.5c0,.41309.33691.75.75.75h6.5c.41309,0,.75-.33691.75-.75v-6.5c0-.41309-.33691-.75-.75-.75h-6.5Z" fill="var(--iconPrimary, #222)"/>
  <path d="M12,15.13155v-2.90669c0-.42868.414-.69002.73316-.46282l2.35068,1.45334c.30029.21377.30029.71188,0,.92565l-2.35068,1.45334c-.31916.2272-.73316-.03415-.73316-.46282Z" fill="var(--iconPrimary, #222)"/>
  <path d="M13.02246,1H2.97754c-1.09082,0-1.97754.90137-1.97754,2.00977v7.98047c0,1.1084.88672,2.00977,1.97754,2.00977h2.77246c.41406,0,.75-.33594.75-.75s-.33594-.75-.75-.75h-2.77246c-.26367,0-.47754-.22852-.47754-.50977v-.77295l2.59473-2.53076c.16504-.16113.44531-.16309.60449-.00781l.47754.47754c.29297.29297.76758.29297,1.06055,0s.29297-.76758,0-1.06055l-.48438-.48438c-.74219-.72559-1.95605-.72656-2.7041,0l-1.54883,1.51074V3.00977c0-.28125.21387-.50977.47754-.50977h10.04492c.26367,0,.47754.22852.47754.50977v2.69043c0,.41406.33594.75.75.75s.75-.33594.75-.75v-2.69043c0-1.1084-.88672-2.00977-1.97754-2.00977Z" fill="var(--iconPrimary, #222)"/>
</svg>