<?xml version="1.0" encoding="UTF-8"?>
<svg xmlns="http://www.w3.org/2000/svg" width="20" height="20" viewBox="0 0 20 20">
  <path d="m18.7832,9.46973l-2.25-2.25c-.29297-.29297-.76758-.29297-1.06055,0s-.29297.76758,0,1.06055l.96973.96973h-5.69238V3.55762l.96973.96973c.14648.14648.33838.21973.53027.21973s.38379-.07324.53027-.21973c.29297-.29297.29297-.76758,0-1.06055l-2.25-2.25c-.29297-.29297-.76758-.29297-1.06055,0l-2.25,2.25c-.29297.29297-.29297.76758,0,1.06055s.76758.29297,1.06055,0l.96973-.96973v5.69238H3.55762l.96973-.96973c.29297-.29297.29297-.76758,0-1.06055s-.76758-.29297-1.06055,0l-2.25,2.25c-.29297.29297-.29297.76758,0,1.06055l2.25,2.25c.14648.14648.33838.21973.53027.21973s.38379-.07324.53027-.21973c.29297-.29297.29297-.76758,0-1.06055l-.96973-.96973h5.69238v5.69238l-.96973-.96973c-.29297-.29297-.76758-.29297-1.06055,0s-.29297.76758,0,1.06055l2.25,2.25c.14648.14648.33838.21973.53027.21973s.38379-.07324.53027-.21973l2.25-2.25c.29297-.29297.29297-.76758,0-1.06055s-.76758-.29297-1.06055,0l-.96973.96973v-5.69238h5.69238l-.96973.96973c-.29297.29297-.29297.76758,0,1.06055.14648.14648.33838.21973.53027.21973s.38379-.07324.53027-.21973l2.25-2.25c.29297-.29297.29297-.76758,0-1.06055Z" fill="var(--iconPrimary, #222)"/>
</svg>