<?xml version="1.0" encoding="UTF-8"?>
<svg xmlns="http://www.w3.org/2000/svg" width="20" height="20" viewBox="0 0 20 20">
  <path d="m3.25,9.17505h-1.5c-.45563,0-.82501.36938-.82501.82495,0,.45569.36938.82495.82501.82495h1.5c.45563,0,.82501-.36926.82501-.82495,0-.45557-.36938-.82495-.82501-.82495Z" fill="var(--iconPrimary, #222)"/>
  <path d="m8.25,9.17505h-1.5c-.45563,0-.82501.36938-.82501.82495,0,.45569.36938.82495.82501.82495h1.5c.45563,0,.82501-.36926.82501-.82495,0-.45557-.36938-.82495-.82501-.82495Z" fill="var(--iconPrimary, #222)"/>
  <path d="m13.25,9.17505h-1.5c-.45563,0-.82501.36938-.82501.82495,0,.45569.36938.82495.82501.82495h1.5c.45563,0,.82501-.36926.82501-.82495,0-.45557-.36938-.82495-.82501-.82495Z" fill="var(--iconPrimary, #222)"/>
  <path d="m18.25,9.17505h-1.5c-.45563,0-.82501.36938-.82501.82495,0,.45569.36938.82495.82501.82495h1.5c.45563,0,.82501-.36926.82501-.82495,0-.45557-.36938-.82495-.82501-.82495Z" fill="var(--iconPrimary, #222)"/>
</svg>