<?xml version="1.0" encoding="UTF-8"?>
<svg xmlns="http://www.w3.org/2000/svg" width="20" height="20" viewBox="0 0 20 20">
  <path d="M13.21973,12.65723c-.12891,0-.25977-.0332-.37988-.10352l-3.2207-1.89551c-.22852-.13477-.36914-.38086-.36914-.64648v-5c0-.41406.33594-.75.75-.75s.75.33594.75.75v4.57129l2.85156,1.67773c.35645.20996.47559.66992.26562,1.02734-.13965.2373-.39062.36914-.64746.36914Z" fill="var(--iconPrimary, #222)"/>
  <path d="M10,18.77148c-4.8252,0-8.75-3.9248-8.75-8.75C1.25,6.49707,3.34766,3.33203,6.59375,1.95898c.37695-.16309.82031.0166.98242.39844.16211.38086-.0166.82129-.39844.98242-2.68945,1.13867-4.42773,3.76074-4.42773,6.68164,0,3.99805,3.25195,7.25,7.25,7.25,1.72363,0,3.39453-.61523,4.70312-1.73242.31543-.26953.78809-.2334,1.05762.08398.26953.31445.23145.78809-.08398,1.05664-1.58008,1.34863-3.59668,2.0918-5.67676,2.0918Z" fill="var(--iconPrimary, #222)"/>
  <path d="M10.25098,2.8252h-.0293l-.22168-.00391c-.44141,0-.7998-.3584-.7998-.7998s.3584-.7998.7998-.7998l.27832.00391c.44141.01562.78711.38672.77148.82812-.01562.43164-.37012.77148-.79883.77148Z" fill="var(--iconPrimary, #222)"/>
  <path d="M13.38867,3.57324c-.11621,0-.2334-.02539-.3457-.0791l-.19824-.08984c-.40527-.17383-.59277-.64453-.41797-1.05078s.64453-.59473,1.05078-.41797c.08691.03711.17383.07617.25879.11719.39844.19141.56543.66895.37402,1.06738-.1377.28613-.42285.45312-.72168.45312Z" fill="var(--iconPrimary, #222)"/>
  <path d="M15.97559,5.50391c-.22266,0-.44434-.0918-.60254-.27344l-.14551-.15918c-.30469-.32031-.29199-.82715.02734-1.13086.32031-.30469.82617-.29297,1.13086.02734.06543.06934.12988.13867.19238.20996.29004.33203.25684.83789-.07617,1.12891-.15137.13184-.33887.19727-.52637.19727Z" fill="var(--iconPrimary, #222)"/>
  <path d="M17.5918,8.29492c-.33496,0-.64746-.21191-.75879-.54688l-.0752-.2168c-.15039-.41504.06348-.87402.47949-1.02441.41406-.15234.87402.06445,1.02441.47949l.08887.25586c.13965.41895-.08691.87207-.50586,1.01172-.08398.02832-.16895.04102-.25293.04102Z" fill="var(--iconPrimary, #222)"/>
  <path d="M17.97168,11.5c-.02246,0-.04395-.00098-.06641-.00293-.44043-.03613-.76855-.42188-.73145-.8623l.01562-.23145c.02539-.44141.37207-.78711.8457-.75195.44043.02539.77734.4043.75195.8457l-.01953.26855c-.03418.41797-.38379.73438-.7959.73438Z" fill="var(--iconPrimary, #222)"/>
  <path d="M17.97168,11.5c-.02246,0-.04395-.00098-.06641-.00293-.44043-.03613-.76855-.42188-.73145-.8623l.01562-.23145c.02539-.44141.37207-.78711.8457-.75195.44043.02539.77734.4043.75195.8457l-.01953.26855c-.03418.41797-.38379.73438-.7959.73438Z" fill="var(--iconPrimary, #222)"/>
  <path d="M16.65153,14.40397c-.01953-.0111-.03772-.02257-.05628-.03537-.365-.24911-.45957-.74663-.20961-1.11115l.12799-.19347c.24026-.37116.7125-.50032,1.10685-.23564.37031.23978.4759.73569.23564,1.10685l-.14972.2238c-.23631.34644-.69662.44868-1.05487.24498Z" fill="var(--iconPrimary, #222)"/>
</svg>