<?xml version="1.0" encoding="UTF-8"?>
<svg xmlns="http://www.w3.org/2000/svg" width="20" height="20" viewBox="0 0 20 20">
  <path d="m6.75,18h-2.5c-1.24023,0-2.25-1.00977-2.25-2.25v-2.5c0-1.24023,1.00977-2.25,2.25-2.25h2.5c1.24023,0,2.25,1.00977,2.25,2.25v2.5c0,1.24023-1.00977,2.25-2.25,2.25Zm-2.5-5.5c-.41309,0-.75.33691-.75.75v2.5c0,.41309.33691.75.75.75h2.5c.41309,0,.75-.33691.75-.75v-2.5c0-.41309-.33691-.75-.75-.75h-2.5Z" fill="var(--iconPrimary, #222)"/>
  <path d="m6.75,9h-2.5c-1.24023,0-2.25-1.00977-2.25-2.25v-2.5c0-1.24023,1.00977-2.25,2.25-2.25h2.5c1.24023,0,2.25,1.00977,2.25,2.25v2.5c0,1.24023-1.00977,2.25-2.25,2.25Zm-2.5-5.5c-.41309,0-.75.33691-.75.75v2.5c0,.41309.33691.75.75.75h2.5c.41309,0,.75-.33691.75-.75v-2.5c0-.41309-.33691-.75-.75-.75h-2.5Z" fill="var(--iconPrimary, #222)"/>
  <path d="m15.75,18h-2.5c-1.24023,0-2.25-1.00977-2.25-2.25v-2.5c0-1.24023,1.00977-2.25,2.25-2.25h2.5c1.24023,0,2.25,1.00977,2.25,2.25v2.5c0,1.24023-1.00977,2.25-2.25,2.25Zm-2.5-5.5c-.41309,0-.75.33691-.75.75v2.5c0,.41309.33691.75.75.75h2.5c.41309,0,.75-.33691.75-.75v-2.5c0-.41309-.33691-.75-.75-.75h-2.5Z" fill="var(--iconPrimary, #222)"/>
  <path d="m15.75,9h-2.5c-1.24023,0-2.25-1.00977-2.25-2.25v-2.5c0-1.24023,1.00977-2.25,2.25-2.25h2.5c1.24023,0,2.25,1.00977,2.25,2.25v2.5c0,1.24023-1.00977,2.25-2.25,2.25Zm-2.5-5.5c-.41309,0-.75.33691-.75.75v2.5c0,.41309.33691.75.75.75h2.5c.41309,0,.75-.33691.75-.75v-2.5c0-.41309-.33691-.75-.75-.75h-2.5Z" fill="var(--iconPrimary, #222)"/>
</svg>