<?xml version="1.0" encoding="UTF-8"?>
<svg xmlns="http://www.w3.org/2000/svg" width="20" height="20" viewBox="0 0 20 20">
  <path d="M15.75,2.75H4.25c-.82837,0-1.5.67163-1.5,1.5v11.5c0,.82837.67163,1.5,1.5,1.5h11.5c.82837,0,1.5-.67163,1.5-1.5V4.25c0-.82837-.67163-1.5-1.5-1.5ZM14.25,13.25c0,.55225-.44775,1-1,1h-6.5c-.55225,0-1-.44775-1-1v-6.5c0-.55225.44775-1,1-1h6.5c.55225,0,1,.44775,1,1v6.5Z" fill="var(--iconPrimary, #222)" opacity=".12"/>
  <path d="M13.25,15h-6.5c-.96484,0-1.75-.78516-1.75-1.75v-6.5c0-.96484.78516-1.75,1.75-1.75h6.5c.96484,0,1.75.78516,1.75,1.75v6.5c0,.96484-.78516,1.75-1.75,1.75ZM6.75,6.5c-.1377,0-.25.1123-.25.25v6.5c0,.1377.1123.25.25.25h6.5c.1377,0,.25-.1123.25-.25v-6.5c0-.1377-.1123-.25-.25-.25h-6.5Z" fill="var(--iconPrimary, #222)"/>
  <path d="M15.75,18H4.25c-1.24023,0-2.25-1.00977-2.25-2.25V4.25c0-1.24023,1.00977-2.25,2.25-2.25h11.5c1.24023,0,2.25,1.00977,2.25,2.25v11.5c0,1.24023-1.00977,2.25-2.25,2.25ZM4.25,3.5c-.41309,0-.75.33691-.75.75v11.5c0,.41309.33691.75.75.75h11.5c.41309,0,.75-.33691.75-.75V4.25c0-.41309-.33691-.75-.75-.75H4.25Z" fill="var(--iconPrimary, #222)"/>
</svg>