<?xml version="1.0" encoding="UTF-8"?>
<svg  xmlns="http://www.w3.org/2000/svg" width="20" height="20" viewBox="0 0 20 20">
  <path d="m18.25,10h-1.5c0-1.32739-.27832-2.57739-.76318-3.68042.64404-.39648,1.24609-.85278,1.78467-1.37427.29785-.28809.30566-.7627.01758-1.06055-.28711-.29785-.76172-.30566-1.06055-.01758-.44336.42896-.9353.80933-1.46289,1.14038-1.23828-1.83057-3.13696-3.00757-5.26562-3.00757s-4.02734,1.177-5.26562,3.00757c-.52759-.33105-1.01953-.71143-1.46289-1.14038-.29785-.28809-.77246-.28027-1.06055.01758s-.28027.77246.01758,1.06055c.53857.52148,1.14062.97778,1.78467,1.37427-.48486,1.10303-.76318,2.35303-.76318,3.68042h-1.5c-.41406,0-.75.33594-.75.75s.33594.75.75.75h1.62305c.17603,1.09363.5376,2.10962,1.04883,2.99744-.95459.64294-1.75098,1.44287-2.31152,2.36194-.2168.35352-.10449.81445.24902,1.03027.12207.0752.25684.11035.38965.11035.25293,0,.5-.12793.64062-.35938.45532-.74487,1.11035-1.39563,1.90039-1.9209,1.21753,1.4082,2.87866,2.28027,4.70996,2.28027s3.49243-.87207,4.70996-2.28027c.79004.52527,1.44507,1.17603,1.90039,1.9209.14062.23145.3877.35938.64062.35938.13281,0,.26758-.03516.38965-.11035.35352-.21582.46582-.67676.24902-1.03027-.56055-.91907-1.35693-1.71899-2.31152-2.36194.51489-.89417.87744-1.91882,1.05176-3.02161.04077.00684.07764.02417.12012.02417h1.5c.41406,0,.75-.33594.75-.75s-.33594-.75-.75-.75ZM10,3.5c1.56152,0,2.96216.85339,3.9248,2.19775-1.21704.5166-2.55493.80225-3.9248.80225s-2.70776-.28564-3.9248-.80225c.96265-1.34436,2.36328-2.19775,3.9248-2.19775Zm-3.85034,10.90356c-.00635-.01379-.00562-.02881-.01294-.04224-.03687-.06738-.08984-.11829-.14233-.16919-.77466-1.13293-1.24438-2.59509-1.24438-4.19214,0-1.07788.21631-2.09314.59302-2.98901,1.21802.5376,2.54248.86523,3.90698.95361v8.46118c-1.21875-.21741-2.30151-.95239-3.10034-2.02222Zm4.60034,2.02222V7.9646c1.3645-.08838,2.68896-.41602,3.90698-.95361.37671.89587.59302,1.91113.59302,2.98901,0,1.59839-.47046,3.0614-1.24634,4.19458-.05151.05054-.104.10034-.14038.16675-.00732.01343-.00659.02844-.01294.04224-.79883,1.06982-1.88159,1.80481-3.10034,2.02222Z" fill="var(--iconPrimary, #222)"/>
</svg>