<?xml version="1.0" encoding="UTF-8"?>
<svg xmlns="http://www.w3.org/2000/svg" width="20" height="20" viewBox="0 0 20 20">
  <path d="m17.93652,18.02148h-.43652c-.41406,0-.75-.33594-.75-.75s.33594-.75.75-.75h.43652c.41406,0,.75.33594.75.75s-.33594.75-.75.75Z" fill="var(--iconPrimary, #222)"/>
  <path d="m15.00586,18.02148h-2.50586c-.41406,0-.75-.33594-.75-.75s.33594-.75.75-.75h2.50586c.41406,0,.75.33594.75.75s-.33594.75-.75.75Z" fill="var(--iconPrimary, #222)"/>
  <path d="m18.18359,5.8584l-3.6875-3.6875c-.85059-.85059-2.33398-.84863-3.18262,0L1.81641,11.66797c-.87598.87598-.87695,2.30176-.00293,3.17871l2.92285,2.93262c.14062.1416.33203.2207.53125.2207h3.64941c.19922,0,.38965-.0791.53027-.21973l8.73633-8.74023c.4248-.4248.65918-.99023.65918-1.59082s-.23438-1.16602-.65918-1.59082Zm-9.57715,10.6416h-3.02734l-2.70312-2.71191c-.29102-.29199-.29102-.76758.00098-1.05957l2.63623-2.63623,4.58936,4.58936c.05713.05713.125.09351.19312.12842l-1.68921,1.68994Zm8.5166-8.52051l-5.83179,5.83447c-.03491-.06787-.07129-.13599-.12817-.19287l-4.58936-4.58936,5.80029-5.80029c.29297-.29395.76855-.29199,1.06152,0l3.6875,3.6875c.29199.29199.29199.76855,0,1.06055Z" fill="var(--iconPrimary, #222)"/>
</svg>