<?xml version="1.0" encoding="UTF-8"?>
<svg xmlns="http://www.w3.org/2000/svg" width="20" height="20" viewBox="0 0 20 20">
  <path d="M12.4751,12.73242c.19189,0,.38379-.07324.53027-.21973.29297-.29297.29297-.76758,0-1.06055l-2.4751-2.47461c-.29297-.29297-.76758-.29297-1.06055,0l-2.4751,2.47461c-.29297.29297-.29297.76758,0,1.06055s.76758.29297,1.06055,0l1.19482-1.19458v6.93188c0,.41406.33594.75.75.75s.75-.33594.75-.75v-6.93188l1.19482,1.19458c.14648.14648.33838.21973.53027.21973Z" fill="var(--iconPrimary, #222)"/>
  <path d="M18,4c0-2.06152-4.14697-3-8-3S2,1.93848,2,4v9.75c0,.26172.06934.52051.20703.77051.7832,1.41602,3.49756,2.02148,4.62793,2.2168.04297.00684.08594.01074.12842.01074.3584,0,.67529-.25781.73828-.62305.07031-.4082-.20361-.7959-.61182-.86621-2.23828-.38574-3.36133-1.08691-3.58984-1.50879v-3.23535c.44806.22876.92157.40808,1.33594.53906.0752.02344.15088.03418.22559.03418.31885,0,.61426-.2041.71533-.52441.12451-.39551-.09473-.81641-.48975-.94141-.96185-.30298-1.52197-.64355-1.78711-.90527v-2.87036c1.55219.78394,4.08337,1.15356,6.5,1.15356s4.94781-.36963,6.5-1.15356v2.88037c-.27319.26379-.84125.60474-1.81006.90601-.39551.12305-.6167.54297-.49365.93848.1001.32129.39648.52734.71631.52734.07373,0,.14844-.01074.22266-.03418.42358-.13171.90771-.31274,1.36475-.54456v3.17859c-.00433.03259-.01953.06201-.01953.09546-.2085.37695-1.33057,1.07812-3.56543,1.46484-.4082.07129-.68164.45898-.61133.86719.06348.36523.38037.62207.73828.62207.04248,0,.08545-.00391.12891-.01074,1.12891-.19531,3.83887-.80273,4.62256-2.21875.13721-.24805.20654-.50684.20654-.76855,0-.00037-.00018-.00061-.00018-.00098s.00018-.00061.00018-.00098V4ZM10,5.5c-4.25342,0-6.39014-1.08105-6.49902-1.5.10889-.41895,2.24561-1.5,6.49902-1.5,4.27295,0,6.40967,1.09082,6.50049,1.49414-.09082.41504-2.22754,1.50586-6.50049,1.50586Z" fill="var(--iconPrimary, #222)"/>

</svg>