<?xml version="1.0" encoding="UTF-8"?>
<svg  xmlns="http://www.w3.org/2000/svg" width="20" height="20" viewBox="0 0 20 20">
  <path d="m12.75,12h-5.5c-1.24023,0-2.25-1.00977-2.25-2.25v-4.5c0-1.24023,1.00977-2.25,2.25-2.25h5.5c1.24023,0,2.25,1.00977,2.25,2.25v4.5c0,1.24023-1.00977,2.25-2.25,2.25Zm-5.5-7.5c-.41309,0-.75.33691-.75.75v4.5c0,.41309.33691.75.75.75h5.5c.41309,0,.75-.33691.75-.75v-4.5c0-.41309-.33691-.75-.75-.75h-5.5Z" fill="var(--iconPrimary, #222)" opacity=".35" stroke-width="0"/>
  <path d="m16.75,19H3.25c-1.24023,0-2.25-1.00977-2.25-2.25v-.5c0-1.24023,1.00977-2.25,2.25-2.25h13.5c1.24023,0,2.25,1.00977,2.25,2.25v.5c0,1.24023-1.00977,2.25-2.25,2.25Zm-13.5-3.5c-.41309,0-.75.33691-.75.75v.5c0,.41309.33691.75.75.75h13.5c.41309,0,.75-.33691.75-.75v-.5c0-.41309-.33691-.75-.75-.75H3.25Z" fill="var(--iconPrimary, #222)" stroke-width="0"/>
</svg>