<?xml version="1.0" encoding="UTF-8"?>
<svg  xmlns="http://www.w3.org/2000/svg" width="20" height="20" viewBox="0 0 20 20">
  <path d="m11.78418,13h-3.56836c-.6709,0-1.21582-.54492-1.21582-1.21582v-3.56836c0-.6709.54492-1.21582,1.21582-1.21582h3.56836c.6709,0,1.21582.54492,1.21582,1.21582v3.56836c0,.6709-.54492,1.21582-1.21582,1.21582Zm-3.28418-1.5h3v-3h-3v3Z" fill="var(--iconPrimary, #222)"/>
  <path d="m4,13c-.19238,0-.38379-.07324-.53027-.21973l-2.25-2.25c-.29297-.29297-.29297-.76758,0-1.06055l2.25-2.25c.29297-.29297.76758-.29297,1.06055,0s.29297.76758,0,1.06055l-1.71973,1.71973,1.71973,1.71973c.29297.29297.29297.76758,0,1.06055-.14648.14648-.33789.21973-.53027.21973Z" fill="var(--iconPrimary, #222)"/>
  <path d="m12.25,4.75c-.19238,0-.38379-.07324-.53027-.21973l-1.71973-1.71973-1.71973,1.71973c-.29297.29297-.76758.29297-1.06055,0s-.29297-.76758,0-1.06055l2.25-2.25c.29297-.29297.76758-.29297,1.06055,0l2.25,2.25c.29297.29297.29297.76758,0,1.06055-.14648.14648-.33789.21973-.53027.21973Z" fill="var(--iconPrimary, #222)"/>
  <path d="m16,13c-.19238,0-.38379-.07324-.53027-.21973-.29297-.29297-.29297-.76758,0-1.06055l1.71973-1.71973-1.71973-1.71973c-.29297-.29297-.29297-.76758,0-1.06055s.76758-.29297,1.06055,0l2.25,2.25c.29297.29297.29297.76758,0,1.06055l-2.25,2.25c-.14648.14648-.33789.21973-.53027.21973Z" fill="var(--iconPrimary, #222)"/>
  <path d="m10,19c-.19238,0-.38379-.07324-.53027-.21973l-2.25-2.25c-.29297-.29297-.29297-.76758,0-1.06055s.76758-.29297,1.06055,0l1.71973,1.71973,1.71973-1.71973c.29297-.29297.76758-.29297,1.06055,0s.29297.76758,0,1.06055l-2.25,2.25c-.14648.14648-.33789.21973-.53027.21973Z" fill="var(--iconPrimary, #222)"/>
</svg>