<?xml version="1.0" encoding="UTF-8"?>
<svg id="g" data-name="ICONS" xmlns="http://www.w3.org/2000/svg" width="20" height="20" viewBox="0 0 20 20">
  <path d="M4.12793,6.07227c-.33203,0-.63477-.22168-.72363-.55859-.14746-.55566-.06934-1.13574.21973-1.63281.29004-.49707.75488-.85254,1.31055-.99902l6.78516-1.79688c1.15234-.30566,2.3291.38281,2.63281,1.53125l.64844,2.44824c.10645.40039-.13184.81152-.53223.91699-.39453.11035-.81055-.13086-.91699-.53223l-.64844-2.44922c-.09277-.34863-.44629-.55957-.79883-.46582l-6.78516,1.79688c-.34863.09277-.55762.45117-.46582.7998.10645.40039-.13184.81055-.5332.91602-.06348.01758-.12793.02539-.19238.02539Z" fill="var(--iconPrimary, #222)"/>
  <path d="M18.25,10h-.32593c-.34863-1.70947-1.86353-3-3.67407-3H3.25c-1.24023,0-2.25,1.00977-2.25,2.25v6.5c0,1.24023,1.00977,2.25,2.25,2.25h11c1.81055,0,3.32544-1.29053,3.67407-3h.32593c.41406,0,.75-.33594.75-.75v-3.5c0-.41406-.33594-.75-.75-.75ZM17.5,13.5h-3v-2h3v2ZM14.25,16.5H3.25c-.41309,0-.75-.33691-.75-.75v-6.5c0-.41309.33691-.75.75-.75h11c.97607,0,1.80103.62915,2.11182,1.5h-2.61182c-.41406,0-.75.33594-.75.75v3.5c0,.41406.33594.75.75.75h2.61182c-.31104.87085-1.13574,1.5-2.11182,1.5Z" fill="var(--iconPrimary, #222)"/>
</svg>