<?xml version="1.0" encoding="UTF-8"?>
<svg id="b" data-name="ICONS" xmlns="http://www.w3.org/2000/svg" width="22" height="20" viewBox="0 0 22 20">
  <path d="m9.7998,17H3.71777c-1.90332,0-3.45215-1.54785-3.45215-3.45117,0-1.49219.9668-2.78027,2.32422-3.25-.04297-.23145-.06445-.46582-.06445-.70312,0-2.17969,1.80957-3.95215,4.0332-3.95215.28027,0,.55762.0293.83105.08789.6377-1.95898,2.47656-3.34766,4.58887-3.34766,2.49512,0,4.56738,1.87012,4.81934,4.34961.04199.41211-.25781.78027-.66992.82227-.41992.04395-.78027-.25781-.82227-.66992-.17383-1.71191-1.60449-3.00195-3.32715-3.00195-1.66309,0-3.08008,1.25195-3.29688,2.91211-.03125.23535-.17188.44238-.37988.55762-.20801.11621-.45703.12598-.67383.02734-.34766-.15723-.70801-.2373-1.06934-.2373-1.39648,0-2.5332,1.09961-2.5332,2.45215,0,.33203.06934.65625.20605.96484.09961.22363.08301.48242-.04395.69238s-.34863.34375-.59375.35938c-1.02539.06641-1.82812.91699-1.82812,1.93652,0,1.07617.87598,1.95117,1.95215,1.95117h6.08203c.41406,0,.75.33594.75.75s-.33594.75-.75.75Zm11.5625-7.1084c-.33008-.0791-.67285.125-.75391.46094l-.07495.31006c-.84961-1.04834-2.1377-1.69775-3.53345-1.69775-1.9541,0-3.68652,1.24414-4.3125,3.09668-.13184.39258.07812.81836.4707.95117.08008.02637.16113.03906.24023.03906.3125,0,.60449-.19727.71094-.50977.41895-1.24219,1.58105-2.07715,2.89062-2.07715.94873,0,1.82422.4458,2.39343,1.16602l-.62976-.15234c-.3291-.0791-.67285.125-.75391.46094-.08105.33496.125.67285.46094.75391l2.09277.50586c.04883.01172.09863.01758.14746.01758.28125,0,.53711-.19238.60645-.47852l.50586-2.09277c.08105-.33496-.125-.67285-.46094-.75391Zm-.52148,4.14453c-.39355-.13379-.81836.07617-.95117.46875-.4209,1.23926-1.58203,2.07227-2.88965,2.07227-.96191,0-1.82703-.44556-2.39185-1.16565l.62817.15198c.3291.08105.67285-.125.75391-.46094.08105-.33496-.125-.67285-.46094-.75391l-2.09277-.50586c-.33008-.0791-.67285.125-.75391.46094l-.02881.1189c-.0144.04993-.03247.09753-.03625.15015l-.4408,1.82373c-.08105.33496.125.67285.46094.75391.04883.01172.09863.01758.14746.01758.28125,0,.53711-.19238.60645-.47852l.07495-.30957c.84314,1.04883,2.11755,1.69727,3.53345,1.69727,1.9502,0,3.68164-1.24219,4.30957-3.08984.13379-.39258-.07617-.81836-.46875-.95117Z" fill="var(--iconPrimary, #222)"/>
</svg>