<?xml version="1.0" encoding="UTF-8"?>
<svg xmlns="http://www.w3.org/2000/svg" width="20" height="20" viewBox="0 0 20 20">
  <path d="m1.75,6.77148h2.6687c.34064,1.43018,1.62128,2.5,3.15405,2.5s2.81342-1.06982,3.15405-2.5h7.52319c.41406,0,.75-.33594.75-.75s-.33594-.75-.75-.75h-7.52319c-.34064-1.43018-1.62128-2.5-3.15405-2.5s-2.81342,1.06982-3.15405,2.5H1.75c-.41406,0-.75.33594-.75.75s.33594.75.75.75Zm5.82275-2.5c.96484,0,1.75.78516,1.75,1.75s-.78516,1.75-1.75,1.75-1.75-.78516-1.75-1.75.78516-1.75,1.75-1.75Z" fill="var(--iconPrimary, #222)"/>
  <path d="m18.25,13.27148h-2.52319c-.34064-1.43018-1.62128-2.5-3.15405-2.5s-2.81342,1.06982-3.15405,2.5H1.75c-.41406,0-.75.33594-.75.75s.33594.75.75.75h7.6687c.34064,1.43018,1.62128,2.5,3.15405,2.5s2.81342-1.06982,3.15405-2.5h2.52319c.41406,0,.75-.33594.75-.75s-.33594-.75-.75-.75Zm-5.67725,2.5c-.96484,0-1.75-.78516-1.75-1.75s.78516-1.75,1.75-1.75,1.75.78516,1.75,1.75-.78516,1.75-1.75,1.75Z" fill="var(--iconPrimary, #222)"/>
</svg>