<svg width="48" height="48" viewBox="0 0 48 48" xmlns="http://www.w3.org/2000/svg">
<path fill-rule="evenodd" d="M9.46985 13.1869C7.72539 10.8682 9.34115 7.49023 12.2812 7.49023H35.7187C38.6587 7.49023 40.2745 10.8682 38.53 13.1869C38.5168 13.2045 38.5031 13.2218 38.4889 13.2387L27.7252 26.0721V37.2085C27.7252 37.8936 27.4338 38.549 26.9198 39.0063L24.2463 41.3849C22.6843 42.7746 20.2747 41.6288 20.2747 39.5871V26.0721L9.51098 13.2387C9.49682 13.2218 9.4831 13.2045 9.46985 13.1869ZM11.4515 11.662L22.4824 24.814C22.6712 25.0391 22.7747 25.3235 22.7747 25.6173V39.348L25.2252 37.1678V25.6173C25.2252 25.3235 25.3287 25.0391 25.5175 24.814L36.5484 11.662C37.0574 10.9518 36.5371 9.99023 35.7187 9.99023H12.2812C11.4627 9.99023 10.9425 10.9518 11.4515 11.662ZM25.258 37.1386L25.2579 37.1387Z" fill="var(--spectrum-global-color-gray-800, #292929)"/>
</svg>
