<svg width="96" height="97" viewBox="0 0 96 97" xmlns="http://www.w3.org/2000/svg">
<path fill-rule="evenodd" d="M19.9434 52.9504L30.878 44.376C31.7472 43.6944 33.0044 43.8465 33.6859 44.7157C34.3675 45.5849 34.2154 46.8421 33.3462 47.5237L18.7774 58.9478C17.9082 59.6294 16.6511 59.4773 15.9695 58.6081L4.54539 44.0393C3.86381 43.1701 4.0159 41.9129 4.88511 41.2313C5.75431 40.5497 7.01148 40.7018 7.69306 41.571L16.0017 52.1668C17.8601 34.6968 32.6446 21.0879 50.6077 21.0879C69.8288 21.0879 85.4105 36.6697 85.4105 55.8907C85.4105 56.9953 84.5151 57.8907 83.4105 57.8907C82.306 57.8907 81.4105 56.9953 81.4105 55.8907C81.4105 38.8788 67.6196 25.0879 50.6077 25.0879C34.5875 25.0879 21.4238 37.3177 19.9434 52.9504ZM14.0822 73.8965C14.0822 72.7919 14.9776 71.8965 16.0822 71.8965L85.1134 71.8965C86.218 71.8965 87.1134 72.7919 87.1134 73.8965C87.1134 75.0011 86.218 75.8965 85.1134 75.8965L16.0822 75.8965C14.9776 75.8965 14.0822 75.0011 14.0822 73.8965Z" fill="var(--spectrum-global-color-gray-800, #292929)"/>
</svg>
