<svg width="96" height="96" viewBox="0 0 96 96" xmlns="http://www.w3.org/2000/svg">
<path fill-rule="evenodd" d="M16 28.8008C16 25.4871 18.6863 22.8008 22 22.8008H74C77.3137 22.8008 80 25.4871 80 28.8008V67.2008C80 70.5145 77.3137 73.2008 74 73.2008H22C18.6863 73.2008 16 70.5145 16 67.2008V28.8008ZM22 18.8008C16.4772 18.8008 12 23.2779 12 28.8008V67.2008C12 72.7236 16.4772 77.2008 22 77.2008H74C79.5229 77.2008 84 72.7236 84 67.2008V28.8008C84 23.2779 79.5229 18.8008 74 18.8008H22ZM37.9846 38.625C38.7657 37.844 38.7657 36.5777 37.9846 35.7966C37.2036 35.0156 35.9372 35.0156 35.1562 35.7966L24.7362 46.2166C23.974 46.9788 23.9529 48.2079 24.6885 48.9957L35.1085 60.1557C35.8624 60.9631 37.128 61.0065 37.9353 60.2527C38.7427 59.4989 38.7861 58.2333 38.0322 57.4259L28.9312 47.6785L37.9846 38.625ZM58.0657 35.749C58.8731 34.9951 60.1387 35.0385 60.8925 35.8459L71.3125 47.0059C72.0481 47.7938 72.0271 49.0228 71.2649 49.785L60.8449 60.205C60.0638 60.9861 58.7975 60.9861 58.0164 60.205C57.2354 59.424 57.2354 58.1577 58.0164 57.3766L67.0699 48.3232L57.9688 38.5757C57.215 37.7684 57.2584 36.5028 58.0657 35.749ZM54.7544 32.6109C55.0748 31.5538 54.4776 30.4372 53.4205 30.1168C52.3634 29.7964 51.2467 30.3937 50.9264 31.4507L41.2464 63.3907C40.926 64.4478 41.5232 65.5645 42.5803 65.8849C43.6374 66.2052 44.7541 65.608 45.0744 64.5509L54.7544 32.6109Z" fill="var(--spectrum-global-color-gray-800, #292929)"/>
</svg>
