<svg width="160" height="160" viewBox="0 0 160 160" xmlns="http://www.w3.org/2000/svg">
<path fill-rule="evenodd" d="M134.764 31.8284C136.326 30.2663 136.326 27.7337 134.764 26.1716C133.202 24.6095 130.669 24.6095 129.107 26.1716L96.874 58.4047V38.6055C96.874 36.3963 95.0832 34.6055 92.874 34.6055C90.6649 34.6055 88.874 36.3963 88.874 38.6055L88.874 67.9805C88.874 70.1896 90.6649 71.9805 92.874 71.9805L122.249 71.9805C124.458 71.9805 126.249 70.1896 126.249 67.9805C126.249 65.7713 124.458 63.9805 122.249 63.9805L102.612 63.9805L134.764 31.8284ZM67.875 88.6875C70.0841 88.6875 71.875 90.4784 71.875 92.6875L71.875 122.062C71.875 124.272 70.0841 126.062 67.875 126.062C65.6659 126.062 63.875 124.272 63.875 122.062L63.875 102.45L31.8284 134.496C30.2663 136.058 27.7337 136.058 26.1716 134.496C24.6095 132.934 24.6095 130.402 26.1716 128.84L58.3236 96.6875H38.5C36.2909 96.6875 34.5 94.8966 34.5 92.6875C34.5 90.4784 36.2909 88.6875 38.5 88.6875H67.875Z" fill="var(--spectrum-global-color-gray-800, #292929)"/>
</svg>
