<svg width="160" height="160" viewBox="0 0 160 160" xmlns="http://www.w3.org/2000/svg">
<path fill-rule="evenodd" d="M77.1716 27.5915C78.7337 26.0294 81.2663 26.0294 82.8284 27.5915L100.828 45.5915C102.391 47.1536 102.391 49.6863 100.828 51.2484C99.2663 52.8104 96.7337 52.8104 95.1716 51.2484L84 40.0768L84 103.499C84 105.708 82.2091 107.499 80 107.499C77.7908 107.499 76 105.708 76 103.499L76 40.0768L64.8284 51.2483C63.2663 52.8104 60.7337 52.8104 59.1716 51.2483C57.6095 49.6862 57.6095 47.1536 59.1716 45.5915L77.1716 27.5915ZM24 80.9992C26.2091 80.9992 28 82.7901 28 84.9992V116.058C28 120.928 32.0402 124.999 37.1765 124.999H122.824C127.96 124.999 132 120.928 132 116.058V84.9992C132 82.7901 133.791 80.9992 136 80.9992C138.209 80.9992 140 82.7901 140 84.9992V116.058C140 125.482 132.242 132.999 122.824 132.999H37.1765C27.7584 132.999 20 125.482 20 116.058V84.9992C20 82.7901 21.7909 80.9992 24 80.9992Z" fill="var(--spectrum-global-color-gray-800, #292929)"/>
</svg>
