<svg width="160" height="160" viewBox="0 0 160 160" xmlns="http://www.w3.org/2000/svg">
<path fill-rule="evenodd" d="M24 37.2C24 34.3607 26.3312 32 29.28 32H54.9798C56.5971 32 58.1163 32.7292 59.1134 33.9648L69.6322 47H24V37.2ZM16 47V37.2C16 29.8773 21.9784 24 29.28 24H54.9798C59.0007 24 62.814 25.8117 65.3391 28.9408L62.2969 31.3958L65.3391 28.9408L79.9121 47H126.154C136.031 47 144 55.0635 144 64.9412V118.059C144 127.936 136.031 136 126.154 136H33.8462C23.9694 136 16 127.936 16 118.059V55V51V47ZM24 55V118.059C24 123.57 28.4391 128 33.8462 128H126.154C131.561 128 136 123.57 136 118.059V64.9412C136 59.4301 131.561 55 126.154 55H86.3678H78H24Z" fill="var(--spectrum-global-color-gray-800, #292929)"/>
<path fill-rule="evenodd" d="M85.0481 87.0595C87.7554 87.0595 89.9501 84.8648 89.9501 82.1575C89.9501 79.4502 87.7554 77.2555 85.0481 77.2555C82.3408 77.2555 80.1462 79.4502 80.1462 82.1575C80.1462 84.8648 82.3408 87.0595 85.0481 87.0595ZM85.0483 106.667H76.1327C74.9315 106.667 74.0551 105.674 74.3075 104.627C75.3709 100.214 79.8064 96.8633 85.0483 96.8633C90.2902 96.8633 94.7258 100.214 95.7891 104.627C96.0415 105.674 95.1651 106.667 93.9639 106.667H85.0483Z" fill="var(--spectrum-global-color-gray-800, #292929)"/>
<path d="M74.3075 104.627L78.1962 105.564L78.1962 105.564L74.3075 104.627ZM95.7891 104.627L91.9004 105.564L91.9004 105.564L95.7891 104.627ZM58.5564 101.391C58.1867 103.569 59.6526 105.634 61.8305 106.004C64.0085 106.374 66.0739 104.908 66.4436 102.73L58.5564 101.391ZM70.2245 97.6241C72.2179 96.672 73.062 94.2841 72.1099 92.2907C71.1577 90.2973 68.7699 89.4532 66.7764 90.4053L70.2245 97.6241ZM72.2942 77.334C74.5033 77.334 76.2942 75.5431 76.2942 73.334C76.2942 71.1248 74.5033 69.334 72.2942 69.334V77.334ZM65.7179 85.5823C67.305 87.1189 69.8374 87.078 71.374 85.4908C72.9106 83.9037 72.8697 81.3713 71.2825 79.8347L65.7179 85.5823ZM85.9501 82.1575C85.9501 82.6556 85.5463 83.0595 85.0481 83.0595V91.0595C89.9645 91.0595 93.9501 87.0739 93.9501 82.1575H85.9501ZM85.0481 81.2555C85.5463 81.2555 85.9501 81.6594 85.9501 82.1575H93.9501C93.9501 77.2411 89.9645 73.2555 85.0481 73.2555V81.2555ZM84.1462 82.1575C84.1462 81.6594 84.55 81.2555 85.0481 81.2555V73.2555C80.1317 73.2555 76.1462 77.2411 76.1462 82.1575H84.1462ZM85.0481 83.0595C84.55 83.0595 84.1462 82.6556 84.1462 82.1575H76.1462C76.1462 87.0739 80.1317 91.0595 85.0481 91.0595V83.0595ZM76.1327 110.667H85.0483V102.667H76.1327V110.667ZM70.4188 103.69C69.4411 107.747 72.8759 110.667 76.1327 110.667V102.667C76.6461 102.667 77.223 102.886 77.6622 103.38C78.1138 103.887 78.4051 104.697 78.1962 105.564L70.4188 103.69ZM85.0483 92.8633C78.2016 92.8633 71.9696 97.2539 70.4188 103.69L78.1962 105.564C78.7721 103.174 81.4113 100.863 85.0483 100.863V92.8633ZM99.6778 103.69C98.127 97.2539 91.895 92.8633 85.0483 92.8633V100.863C88.6853 100.863 91.3246 103.174 91.9004 105.564L99.6778 103.69ZM93.9639 110.667C97.2207 110.667 100.656 107.747 99.6778 103.69L91.9004 105.564C91.6916 104.697 91.9828 103.887 92.4344 103.38C92.8737 102.886 93.4505 102.667 93.9639 102.667V110.667ZM85.0483 110.667H93.9639V102.667H85.0483V110.667ZM66.4436 102.73C66.8344 100.428 68.3177 98.5349 70.2245 97.6241L66.7764 90.4053C62.5016 92.4473 59.3789 96.5458 58.5564 101.391L66.4436 102.73ZM70.8392 78.789C70.8392 77.9854 71.4906 77.334 72.2942 77.334V69.334C67.0723 69.334 62.8392 73.5671 62.8392 78.789H70.8392ZM71.2825 79.8347C71.0043 79.5654 70.8392 79.1999 70.8392 78.789H62.8392C62.8392 81.4546 63.9475 83.8683 65.7179 85.5823L71.2825 79.8347Z" fill="var(--spectrum-global-color-gray-800, #292929)"/>
</svg>
