<svg width="160" height="160" viewBox="0 0 160 160" xmlns="http://www.w3.org/2000/svg">
<path fill-rule="evenodd" d="M16 57.625C16 46.5793 24.9543 37.625 36 37.625H87.9543C99 37.625 107.954 46.5793 107.954 57.625V61.3004L124.849 48.7628C132.767 42.8865 144 48.5386 144 58.3992V101.439C144 111.275 132.817 116.934 124.892 111.108L107.954 98.6554V102.375C107.954 113.421 99 122.375 87.9543 122.375H36C24.9543 122.375 16 113.421 16 102.375V57.625ZM36 45.625C29.3726 45.625 24 50.9976 24 57.625V102.375C24 109.002 29.3726 114.375 36 114.375H87.9543C94.5817 114.375 99.9543 109.002 99.9543 102.375V90.75C99.9543 89.2418 100.803 87.8618 102.148 87.1809C103.494 86.5 105.108 86.6339 106.324 87.5272L129.631 104.662C132.272 106.604 136 104.718 136 101.439V58.3992C136 55.1123 132.256 53.2283 129.616 55.187L106.338 72.4621C105.124 73.3628 103.507 73.5025 102.156 72.8232C100.806 72.1438 99.9543 70.7614 99.9543 69.25V57.625C99.9543 50.9976 94.5817 45.625 87.9543 45.625H36Z" fill="var(--spectrum-global-color-gray-800, #292929)"/>
</svg>
