<svg width="48" height="48" viewBox="0 0 48 48" xmlns="http://www.w3.org/2000/svg">
<path fill-rule="evenodd" d="M23.4881 5.12165C30.7318 4.61001 36.77 10.3378 36.77 17.4752C36.77 21.6416 34.7107 25.3253 31.5613 27.5676C30.9533 28.0006 30.5839 28.7342 30.5839 29.5318V36.6526C30.5839 38.3679 29.1934 39.7585 27.4781 39.7585H21.292C19.5767 39.7585 18.1862 38.3679 18.1862 36.6526V29.5301C18.1862 28.7422 17.7974 27.9941 17.1308 27.5117C13.791 25.0946 11.7014 21.0469 12.0348 16.5367C12.4844 10.4535 17.4038 5.55139 23.4881 5.12165ZM34.27 17.4752C34.27 11.7778 29.4513 7.20668 23.6642 7.61544C18.8185 7.9577 14.8861 11.8765 14.528 16.721C14.2615 20.3257 15.9257 23.5535 18.5965 25.4864C19.8841 26.4183 20.6862 27.9057 20.6862 29.5301V32.4281H28.0839V29.5318C28.0839 27.9774 28.8033 26.4624 30.1113 25.5311C32.6307 23.7373 34.27 20.7981 34.27 17.4752ZM28.0839 34.9281H20.6862V36.6526C20.6862 36.9873 20.9574 37.2585 21.292 37.2585H27.4781C27.8127 37.2585 28.0839 36.9873 28.0839 36.6526V34.9281ZM24.374 11.4056C24.374 10.7152 24.9337 10.1556 25.624 10.1556C29.0476 10.1556 31.8229 12.931 31.8229 16.3546C31.8229 17.045 31.2633 17.6046 30.5729 17.6046C29.8826 17.6046 29.3229 17.045 29.3229 16.3546C29.3229 14.3117 27.6668 12.6556 25.624 12.6556C24.9337 12.6556 24.374 12.0959 24.374 11.4056Z" fill="var(--spectrum-global-color-gray-800, #292929)"/>
</svg>
