<svg width="96" height="96" viewBox="0 0 96 96" xmlns="http://www.w3.org/2000/svg">
<path fill-rule="evenodd" d="M16.25 26.0508C16.25 21.6325 19.8317 18.0508 24.25 18.0508H62C66.4183 18.0508 70 21.6325 70 26.0508V34.751C70 35.8555 69.1046 36.751 68 36.751C66.8954 36.751 66 35.8555 66 34.751V26.0508C66 23.8416 64.2091 22.0508 62 22.0508H24.25C22.0409 22.0508 20.25 23.8416 20.25 26.0508V51.7066L30.1353 36.3844C32.1478 33.2651 36.7267 33.3154 38.6701 36.4782L38.6718 36.481L40.4693 39.4171C41.0461 40.3592 40.7499 41.5904 39.8079 42.1671C38.8658 42.7439 37.6346 42.4477 37.0579 41.5057L35.262 38.5723L35.2613 38.5711C34.8589 37.918 33.9126 37.908 33.4965 38.5529L22.5123 55.5785C23.0378 55.8323 23.6273 55.9746 24.25 55.9746H36.5625C37.6671 55.9746 38.5625 56.87 38.5625 57.9746C38.5625 59.0792 37.6671 59.9746 36.5625 59.9746H24.25C19.8317 59.9746 16.25 56.3929 16.25 51.9746V26.0508ZM56.145 34.418C57.8019 34.418 59.145 33.0748 59.145 31.418C59.145 29.7611 57.8019 28.418 56.145 28.418C54.4882 28.418 53.145 29.7611 53.145 31.418C53.145 33.0748 54.4882 34.418 56.145 34.418ZM41.5518 47.749C41.5518 43.3307 45.1335 39.749 49.5518 39.749H71.7501C76.1684 39.749 79.7501 43.3307 79.7501 47.749V69.9474C79.7501 74.3656 76.1684 77.9474 71.7501 77.9474H49.5518C45.1335 77.9474 41.5518 74.3656 41.5518 69.9474V47.749ZM49.5518 43.749C47.3426 43.749 45.5518 45.5399 45.5518 47.749V69.9474C45.5518 72.1565 47.3426 73.9474 49.5518 73.9474H71.7501C73.9592 73.9474 75.7501 72.1565 75.7501 69.9474V47.749C75.7501 45.5399 73.9592 43.749 71.7501 43.749H49.5518ZM56.8174 51.2785L68.0315 57.7108C69.2874 58.4312 69.2853 60.2284 68.0276 60.9458L56.798 67.3515C55.5403 68.0689 53.9704 67.1684 53.9722 65.7306L53.9877 52.8927C53.9894 51.4549 55.5615 50.5582 56.8174 51.2785Z" fill="var(--spectrum-global-color-gray-800, #292929)"/>
</svg>
