<svg width="48" height="48" viewBox="0 0 48 48" xmlns="http://www.w3.org/2000/svg">
<path fill-rule="evenodd" d="M15.8167 8.89882C15.1139 8.77433 14.5801 8.16044 14.5801 7.42188C14.5801 6.59345 15.2517 5.92188 16.0801 5.92188C16.8186 5.92188 17.4325 6.45565 17.557 7.15848C17.6166 7.20008 17.6735 7.24748 17.7267 7.30069L21.0404 10.6145L21.0547 10.6289C21.9973 10.3799 22.982 10.248 23.9994 10.248C25.017 10.248 26.0019 10.38 26.9447 10.6291C26.9494 10.6242 26.9542 10.6193 26.9591 10.6145L30.2729 7.30069C30.3259 7.24765 30.3825 7.20038 30.4419 7.15887C30.5663 6.45585 31.1802 5.92188 31.9189 5.92188C32.7474 5.92188 33.4189 6.59345 33.4189 7.42188C33.4189 8.16024 32.8855 8.77401 32.1829 8.89873C32.1413 8.95839 32.0939 9.01522 32.0406 9.06845L29.4807 11.6283C31.5059 12.7083 33.2445 14.3674 34.5705 16.4092C35.9044 15.6407 36.9985 14.7998 37.7672 13.9884C38.242 13.4873 39.0331 13.4659 39.5343 13.9407C40.0355 14.4155 40.0569 15.2066 39.5821 15.7078C38.6345 16.708 37.3309 17.7089 35.7691 18.6037C36.7983 20.8741 37.3753 23.4586 37.3753 26.1628C37.3753 26.2449 37.3747 26.3268 37.3737 26.4087H40.6764C41.3667 26.4087 41.9264 26.9683 41.9264 27.6587C41.9264 28.349 41.3667 28.9087 40.6764 28.9087H37.1747C36.8257 31.2766 36.0334 33.4895 34.8921 35.4003C35.7466 35.8952 36.564 36.5378 37.2665 37.1858C38.3359 38.1721 39.2811 39.303 39.7736 40.2108C40.1027 40.8176 39.8777 41.5764 39.2708 41.9056C38.664 42.2348 37.9052 42.0097 37.5761 41.4029C37.2608 40.8217 36.5257 39.9035 35.5715 39.0234C34.868 38.3746 34.1223 37.8179 33.4362 37.4502C31.0495 40.2891 27.7459 42.0776 23.9994 42.0776C20.2546 42.0776 16.9523 40.2907 14.5659 37.454C13.8818 37.8218 13.1388 38.3769 12.4378 39.0234C11.4836 39.9035 10.7485 40.8217 10.4332 41.4029C10.1041 42.0097 9.34528 42.2348 8.73845 41.9056C8.13163 41.5764 7.90655 40.8176 8.23572 40.2108C8.72819 39.303 9.67337 38.1721 10.7428 37.1858C11.4431 36.5398 12.2577 35.8991 13.1094 35.4048C11.9667 33.493 11.1733 31.2785 10.8241 28.9087H7.32227C6.63191 28.9087 6.07227 28.349 6.07227 27.6587C6.07227 26.9683 6.63191 26.4087 7.32227 26.4087H10.6252C10.6241 26.3268 10.6236 26.2449 10.6236 26.1628C10.6236 23.4557 11.2018 20.8686 12.233 18.5964C10.6761 17.6425 9.42345 16.6272 8.48352 15.7734C7.9725 15.3092 7.93453 14.5187 8.3987 14.0077C8.86287 13.4967 9.65342 13.4587 10.1644 13.9228C11.0013 14.683 12.0931 15.5682 13.434 16.4004C14.7594 14.3625 16.4961 12.7065 18.5185 11.6281L15.9589 9.06845C15.9057 9.01525 15.8583 8.95845 15.8167 8.89882ZM14.4264 19.7831C13.5996 21.66 13.1236 23.8239 13.1236 26.1628C13.1236 33.2493 17.4931 38.7288 22.7493 39.4877V21.8325C19.5058 21.7023 16.7258 20.869 14.4264 19.7831ZM15.6371 17.5894C17.8368 18.606 20.5084 19.3503 23.6365 19.3503C26.7983 19.3503 29.8124 18.6018 32.3208 17.5293C30.2901 14.5732 27.2576 12.748 23.9994 12.748C20.7193 12.748 17.6678 14.5979 15.6371 17.5894ZM33.5458 19.723C31.1031 20.798 28.2521 21.5812 25.2493 21.7931V39.4877C30.5055 38.729 34.8753 33.2494 34.8753 26.1628C34.8753 23.7989 34.389 21.6138 33.5458 19.723Z" fill="var(--spectrum-global-color-gray-800, #292929)"/>
</svg>
