<svg width="96" height="96" viewBox="0 0 96 96" xmlns="http://www.w3.org/2000/svg">
<path fill-rule="evenodd" d="M21.99 10C17.5711 10 14 13.5898 14 18V65.99C14 70.4002 17.5711 73.99 21.99 73.99H46C47.1046 73.99 48 73.0946 48 71.99C48 70.8854 47.1046 69.99 46 69.99H21.99C19.7889 69.99 18 68.1998 18 65.99V18C18 15.7902 19.7889 14 21.99 14H41.44C42.4719 14 43.4616 14.3958 44.192 15.0999L44.1964 15.1041L63.7664 33.8541L63.7667 33.8545C64.5544 34.6087 65 35.6476 65 36.74V51.49C65 52.5946 65.8954 53.49 67 53.49C68.1046 53.49 69 52.5946 69 51.49V36.74C69 34.5524 68.1056 32.4712 66.5333 30.9655L46.968 12.2201L46.9656 12.2178C45.4763 10.7833 43.487 10 41.44 10H21.99ZM66.7402 86.49C74.8864 86.49 81.4902 79.8862 81.4902 71.74C81.4902 63.5938 74.8864 56.99 66.7402 56.99C58.594 56.99 51.9902 63.5938 51.9902 71.74C51.9902 79.8862 58.594 86.49 66.7402 86.49ZM68.9883 64.9898C68.9883 63.8852 68.0928 62.9898 66.9883 62.9898C65.8837 62.9898 64.9883 63.8852 64.9883 64.9898V69.9898H59.9887C58.8841 69.9898 57.9887 70.8852 57.9887 71.9898C57.9887 73.0944 58.8841 73.9898 59.9887 73.9898H64.9883V78.9898C64.9883 80.0944 65.8837 80.9898 66.9883 80.9898C68.0928 80.9898 68.9883 80.0944 68.9883 78.9898V73.9898H73.9887C75.0932 73.9898 75.9887 73.0944 75.9887 71.9898C75.9887 70.8852 75.0932 69.9898 73.9887 69.9898H68.9883V64.9898ZM45.7398 52.157C41.446 52.157 37.726 55.4405 36.9781 59.8265C36.7924 60.9154 35.7592 61.6475 34.6703 61.4619C33.5815 61.2762 32.8493 60.243 33.035 59.1541C34.0865 52.9876 39.3561 48.157 45.7398 48.157C47.5098 48.157 49.2021 48.532 50.742 49.2062C51.7539 49.6493 52.215 50.8287 51.7719 51.8405C51.3289 52.8523 50.1495 53.3134 49.1377 52.8704C48.0872 52.4104 46.9399 52.157 45.7398 52.157ZM33.9056 50.1086C34.9098 49.6487 35.351 48.4617 34.8911 47.4574C34.4311 46.4532 33.2441 46.012 32.2399 46.4719C28.2962 48.2783 25.3486 51.9437 24.57 56.3416C24.3775 57.4293 25.1031 58.4671 26.1908 58.6597C27.2784 58.8522 28.3162 58.1266 28.5088 57.0389C29.0512 53.9749 31.1186 51.3851 33.9056 50.1086ZM45.2722 35.3569C43.284 35.3569 41.6722 36.9687 41.6722 38.9569C41.6722 40.9452 43.284 42.5569 45.2722 42.5569C47.2604 42.5569 48.8722 40.9452 48.8722 38.9569C48.8722 36.9687 47.2604 35.3569 45.2722 35.3569ZM37.6722 38.9569C37.6722 34.7596 41.0748 31.3569 45.2722 31.3569C49.4696 31.3569 52.8722 34.7596 52.8722 38.9569C52.8722 43.1543 49.4696 46.5569 45.2722 46.5569C41.0748 46.5569 37.6722 43.1543 37.6722 38.9569ZM33.2054 36.9213C33.2054 35.0837 34.759 33.4902 36.8054 33.4902C37.91 33.4902 38.8054 32.5948 38.8054 31.4902C38.8054 30.3857 37.91 29.4902 36.8054 29.4902C32.6663 29.4902 29.2054 32.7599 29.2054 36.9213C29.2054 39.0375 30.1117 40.939 31.5416 42.2816C32.3468 43.0377 33.6125 42.9978 34.3686 42.1926C35.1247 41.3873 35.0848 40.1216 34.2796 39.3656C33.6064 38.7335 33.2054 37.8681 33.2054 36.9213Z" fill="var(--spectrum-global-color-gray-800, #292929)"/>
</svg>
