<svg width="96" height="96" viewBox="0 0 96 96" xmlns="http://www.w3.org/2000/svg">
<path fill-rule="evenodd" d="M18 39.0762C18 27.4782 27.402 18.0762 39 18.0762C50.598 18.0762 60 27.4782 60 39.0762C60 50.6742 50.598 60.0762 39 60.0762C27.402 60.0762 18 50.6742 18 39.0762ZM39 14.0762C25.1929 14.0762 14 25.2691 14 39.0762C14 52.8833 25.1929 64.0762 39 64.0762C45.1836 64.0762 50.8428 61.8312 55.2071 58.1117L56.6982 59.6028L55.277 61.0241C54.4959 61.8052 54.4959 63.0715 55.277 63.8525L72.4059 80.9815C74.7363 83.3118 78.5145 83.3118 80.8448 80.9815C83.1752 78.6511 83.1752 74.8729 80.8448 72.5425L63.7159 55.4136C62.9349 54.6326 61.6685 54.6326 60.8875 55.4136L59.5267 56.7744L58.0356 55.2833C61.755 50.919 64 45.2598 64 39.0762C64 25.2691 52.8071 14.0762 39 14.0762ZM62.3017 59.6562L59.5196 62.4383L75.2343 78.153C76.0026 78.9213 77.2482 78.9213 78.0164 78.153C78.7847 77.3848 78.7847 76.1392 78.0164 75.371L62.3017 59.6562Z" fill="var(--spectrum-global-color-gray-800, #292929)"/>
</svg>
