<svg width="160" height="160" viewBox="0 0 160 160" xmlns="http://www.w3.org/2000/svg">
<path fill-rule="evenodd" d="M47.1364 24C38.2672 24 31 31.1209 31 40V120C31 128.879 38.2672 136 47.1364 136H111.864C120.733 136 128 128.879 128 120V72.9706C128 68.7124 126.289 64.6379 123.258 61.6409L89.9125 28.6704C86.883 25.6749 82.7836 24 78.5184 24H47.1364ZM39 40C39 35.6242 42.6 32 47.1364 32H78.5184C80.6908 32 82.7652 32.8537 84.2877 34.3591L117.633 67.3296C119.154 68.8335 120 70.8635 120 72.9706V120C120 124.376 116.4 128 111.864 128H47.1364C42.6 128 39 124.376 39 120V40ZM69.811 72.9402L90.7442 85.0594C93.0885 86.4166 93.0845 89.8028 90.7369 91.1544L69.7748 103.223C67.4272 104.575 64.4968 102.879 64.5 100.17L64.5289 75.9815C64.5322 73.2725 67.4667 71.583 69.811 72.9402Z" fill="var(--spectrum-global-color-gray-800, #292929)"/>
</svg>
