<svg width="160" height="160" viewBox="0 0 160 160" xmlns="http://www.w3.org/2000/svg">
<path fill-rule="evenodd" d="M22.666 30C22.666 22.2829 28.9149 16 36.6494 16H69.066C72.6467 16 76.1286 17.37 78.7372 19.8822L78.7421 19.8868L111.349 51.1277C114.101 53.7625 115.666 57.4047 115.666 61.2333V85.8167C115.666 88.0258 113.875 89.8167 111.666 89.8167C109.457 89.8167 107.666 88.0258 107.666 85.8167V62.3167H78.9493C73.0871 62.3167 67.666 57.906 67.666 51.6833V24H36.6494C33.3505 24 30.666 26.6838 30.666 30V109.983C30.666 113.3 33.3505 115.983 36.6494 115.983H56.6577H76.666C78.8752 115.983 80.666 117.774 80.666 119.983C80.666 122.192 78.8752 123.983 76.666 123.983H56.6577H36.6494C28.9149 123.983 22.666 117.7 22.666 109.983V30ZM75.666 28.0188L103.114 54.3167H78.9493C76.7782 54.3167 75.666 52.794 75.666 51.6833V28.0188ZM111.232 144.15C124.809 144.15 135.816 133.144 135.816 119.567C135.816 105.99 124.809 94.9833 111.232 94.9833C97.6554 94.9833 86.6491 105.99 86.6491 119.567C86.6491 133.144 97.6554 144.15 111.232 144.15ZM115.648 108.317C115.648 106.108 113.858 104.317 111.648 104.317C109.439 104.317 107.648 106.108 107.648 108.317V115.983H99.9818C97.7726 115.983 95.9818 117.774 95.9818 119.983C95.9818 122.192 97.7726 123.983 99.9818 123.983H107.648V131.65C107.648 133.859 109.439 135.65 111.648 135.65C113.858 135.65 115.648 133.859 115.648 131.65V123.983H123.315C125.524 123.983 127.315 122.192 127.315 119.983C127.315 117.774 125.524 115.983 123.315 115.983H115.648V108.317Z" fill="var(--spectrum-global-color-gray-800, #292929)"/>
</svg>
