<svg width="160" height="160" viewBox="0 0 160 160" xmlns="http://www.w3.org/2000/svg">
<path fill-rule="evenodd" d="M24.001 63.5767C24.001 42.866 40.7903 26.0767 61.501 26.0767C82.2117 26.0767 99.001 42.866 99.001 63.5767C99.001 84.2873 82.2117 101.077 61.501 101.077C40.7903 101.077 24.001 84.2873 24.001 63.5767ZM61.501 18.0767C36.372 18.0767 16.001 38.4477 16.001 63.5767C16.001 88.7056 36.372 109.077 61.501 109.077C72.6253 109.077 82.8172 105.084 90.7221 98.4546L94.7047 102.437L92.4029 104.739C90.8408 106.301 90.8408 108.834 92.4029 110.396L121.91 139.903C126.282 144.275 133.37 144.275 137.742 139.903C142.114 135.531 142.114 128.443 137.742 124.071L108.235 94.5642C106.673 93.0021 104.14 93.0021 102.578 94.5642L100.362 96.7804L96.379 92.7978C103.009 84.8928 107.001 74.701 107.001 63.5767C107.001 38.4477 86.6299 18.0767 61.501 18.0767ZM105.406 103.049L100.888 107.568L127.567 134.246C128.815 135.494 130.837 135.494 132.085 134.246C133.333 132.999 133.333 130.976 132.085 129.728L105.406 103.049Z" fill="var(--spectrum-global-color-gray-800, #292929)"/>
</svg>
