<svg width="96" height="96" viewBox="0 0 96 96" xmlns="http://www.w3.org/2000/svg">
<path fill-rule="evenodd" d="M63.2383 21.254C65.5176 21.254 67.3653 19.4063 67.3653 17.127C67.3653 14.8477 65.5176 13 63.2383 13C60.959 13 59.1113 14.8477 59.1113 17.127C59.1113 19.4063 60.959 21.254 63.2383 21.254ZM52.9085 25.5927C54.0076 25.7027 54.8094 26.6828 54.6994 27.7819C54.0234 34.5374 50.348 41.2882 44.367 45.4501C43.4603 46.0811 42.2139 45.8575 41.583 44.9509C40.9521 44.0442 41.1756 42.7978 42.0822 42.1669C47.0541 38.7071 50.1535 33.0374 50.7193 27.3836C50.8293 26.2845 51.8095 25.4827 52.9085 25.5927ZM42.2136 37.0328C41.6431 37.9786 40.4139 38.2829 39.468 37.7125C37.3658 36.4446 35.943 35.8821 34.999 35.7316C34.1869 35.6021 33.9014 35.7898 33.7059 35.9834L33.6166 36.2274C33.5774 36.442 33.5674 36.7891 33.6525 37.298C33.8278 38.3466 34.3536 39.7751 35.2856 41.5126C37.137 44.9644 40.3696 49.2282 44.5703 53.4289C48.771 57.6297 53.0349 60.8623 56.4866 62.7137C58.2242 63.6456 59.6526 64.1714 60.7012 64.3468C61.2152 64.4327 61.5641 64.4216 61.7782 64.3815L62.0141 64.2952C62.2679 64.04 62.4348 63.7563 62.3226 63.0219C62.1845 62.1184 61.6289 60.7165 60.2962 58.5466C59.7181 57.6054 60.0124 56.3738 60.9537 55.7957C61.8949 55.2176 63.1265 55.512 63.7046 56.4532C65.1118 58.7444 66.0147 60.7027 66.2767 62.4177C66.5639 64.2972 66.0751 65.891 64.8379 67.1283C64.7781 67.188 64.7173 67.2453 64.6554 67.3002C64.4372 67.5631 64.1486 67.7736 63.8045 67.8994L63.6621 67.9516C63.4274 68.0612 63.1855 68.1484 62.9391 68.2161L24.4083 82.3127C18.9748 84.3006 13.6995 79.0253 15.6874 73.5918L29.7798 35.0725C29.849 34.818 29.9389 34.5681 30.0529 34.3261L30.1006 34.1956C30.2255 33.8542 30.4338 33.5673 30.6939 33.3497C30.7503 33.2858 30.8093 33.223 30.871 33.1614C32.1397 31.8927 33.7938 31.4888 35.6289 31.7815C37.3411 32.0545 39.294 32.9364 41.5338 34.2872C42.4797 34.8577 42.784 36.0869 42.2136 37.0328ZM19.4439 74.9661L31.3106 42.5305C31.4534 42.8196 31.6036 43.1107 31.7606 43.4033C33.8437 47.2869 37.344 51.8595 41.7419 56.2574C46.1398 60.6553 50.7123 64.1556 54.596 66.2386C54.889 66.3958 55.1806 66.5463 55.4701 66.6893L23.034 78.5562C20.7972 79.3745 18.6255 77.2029 19.4439 74.9661ZM58.0701 42.7273C58.8512 41.9463 58.8512 40.6799 58.0701 39.8989C57.2891 39.1178 56.0228 39.1178 55.2417 39.8989L46.4344 48.7062C45.6534 49.4872 45.6534 50.7536 46.4344 51.5346C47.2155 52.3157 48.4818 52.3157 49.2628 51.5346L58.0701 42.7273ZM70.3027 43.3783C71.3978 43.2338 72.4026 44.0044 72.5471 45.0995C72.6916 46.1946 71.9209 47.1994 70.8259 47.3439C65.1926 48.0871 59.6231 51.3632 56.3213 56.4412C55.7192 57.3673 54.4804 57.6299 53.5544 57.0278C52.6283 56.4257 52.3657 55.1869 52.9678 54.2608C56.9398 48.152 63.5718 44.2663 70.3027 43.3783ZM81.7394 56.8445C81.7394 59.1238 79.8916 60.9715 77.6124 60.9715C75.3331 60.9715 73.4854 59.1238 73.4854 56.8445C73.4854 54.5653 75.3331 52.7175 77.6124 52.7175C79.8916 52.7175 81.7394 54.5653 81.7394 56.8445ZM43.4805 24.3319L39.0691 18.3045C38.3325 17.2981 36.9195 17.0793 35.913 17.8159L34.8287 18.6095C33.8223 19.3461 33.6035 20.7592 34.3401 21.7656L38.7515 27.793C39.4881 28.7995 40.9012 29.0182 41.9076 28.2816L42.9919 27.488C43.9984 26.7514 44.2171 25.3384 43.4805 24.3319ZM64.6385 32.8511L72.0603 32.0108C73.2996 31.8705 74.418 32.7614 74.5583 34.0006L74.7095 35.3358C74.8498 36.5751 73.9589 37.6935 72.7196 37.8338L65.2978 38.6742C64.0585 38.8145 62.9401 37.9236 62.7998 36.6843L62.6486 35.3492C62.5083 34.1099 63.3992 32.9915 64.6385 32.8511Z" fill="var(--spectrum-global-color-gray-800, #292929)"/>
</svg>
