<svg width="160" height="160" viewBox="0 0 160 160" xmlns="http://www.w3.org/2000/svg">
<path fill-rule="evenodd" d="M60.5786 24C52.7299 24 46 30.0845 46 38.0313C46 44.9475 50.9786 51.2421 58.1162 52.2754V69.4341C51.2507 70.344 46 75.7387 46 82.9687C46 90.9155 52.7299 97 60.5786 97H76L76 136C76 138.209 77.7909 140 80 140C82.2091 140 84 138.209 84 136V97H99.4215C107.27 97 114 90.9155 114 82.9687C114 76.0525 109.021 69.7577 101.884 68.7245V51.5658C108.749 50.656 114 45.2614 114 38.0313C114 30.0845 107.27 24 99.4215 24H60.5786ZM54 38.0313C54 34.8979 56.7424 32 60.5786 32H99.4215C103.257 32 106 34.8979 106 38.0313C106 41.1688 103.642 43.7016 99.8102 43.7016H97.8838C95.6746 43.7016 93.8838 45.4925 93.8838 47.7016V72.5765C93.8838 74.7856 95.6746 76.5765 97.8838 76.5765H99.8102C103.266 76.5765 106 79.4566 106 82.9687C106 86.1021 103.257 89 99.4215 89H60.5786C56.7424 89 54 86.1021 54 82.9687C54 79.8312 56.358 77.2983 60.19 77.2983H62.1162C64.3253 77.2983 66.1162 75.5075 66.1162 73.2983V48.4234C66.1162 46.2143 64.3253 44.4234 62.1162 44.4234H60.19C56.7334 44.4234 54 41.5433 54 38.0313Z" fill="var(--spectrum-global-color-gray-800, #292929)"/>
</svg>
