<svg width="96" height="96" viewBox="0 0 96 96" xmlns="http://www.w3.org/2000/svg">
<path fill-rule="evenodd" d="M15 22.6672C15 21.1391 16.1887 20 17.5339 20H33.9409C34.6878 20 35.4126 20.349 35.9021 20.9789L42.9128 30H15V22.6672ZM11 30V22.6672C11 19.0401 13.8711 16 17.5339 16H33.9409C35.9486 16 37.8292 16.94 39.0605 18.5244L37.7276 19.5602L39.0605 18.5244L47.9787 30H74.0246C80.0923 30 85 34.947 85 41.0207V68.9793C85 75.053 80.0923 80 74.0246 80H21.9754C15.9077 80 11 75.053 11 68.9793V34V32V30ZM15 34V68.9793C15 72.8629 18.1358 76 21.9754 76H74.0246C77.8642 76 81 72.8629 81 68.9793V41.0207C81 37.1371 77.8642 34 74.0246 34H51.0872H47H15Z" fill="var(--spectrum-global-color-gray-800, #292929)"/>
</svg>
