<svg width="160" height="160" viewBox="0 0 160 160" xmlns="http://www.w3.org/2000/svg">
<path fill-rule="evenodd" d="M44.8857 46.0469C45.8121 43.8001 48.0024 42.334 50.4327 42.334H104.149C106.58 42.334 108.77 43.8001 109.696 46.0469L113.636 55.6023C113.398 55.5902 113.158 55.5841 112.916 55.5841H41.666C41.4245 55.5841 41.1844 55.5902 40.9459 55.6023L44.8857 46.0469ZM125.364 63.0593C125.416 63.1851 125.461 63.3121 125.499 63.4397C126.407 65.2947 126.916 67.3799 126.916 69.5841V82.5006C126.916 84.7098 125.125 86.5006 122.916 86.5006C120.707 86.5006 118.916 84.7098 118.916 82.5006V69.5841C118.916 66.2704 116.23 63.5841 112.916 63.5841H41.666C38.3523 63.5841 35.666 66.2704 35.666 69.5841V104.584C35.666 107.898 38.3523 110.584 41.666 110.584H90.8327C93.0418 110.584 94.8327 112.375 94.8327 114.584C94.8327 116.793 93.0418 118.584 90.8327 118.584H41.666C33.934 118.584 27.666 112.316 27.666 104.584V69.5841C27.666 67.3799 28.1754 65.2947 29.0829 63.4398C29.1211 63.3121 29.1661 63.1851 29.218 63.0593L37.4897 42.9974C39.6513 37.7548 44.762 34.334 50.4327 34.334H104.149C109.82 34.334 114.931 37.7548 117.092 42.9974L125.364 63.0593ZM64.166 84.8341L91.666 84.8341C93.8752 84.8341 95.666 83.0432 95.666 80.8341C95.666 78.6249 93.8752 76.8341 91.666 76.8341L64.166 76.8341C61.9569 76.8341 60.166 78.6249 60.166 80.8341C60.166 83.0432 61.9569 84.8341 64.166 84.8341ZM122.818 137.8C135.603 137.8 145.968 127.436 145.968 114.65C145.968 101.865 135.603 91.5002 122.818 91.5002C110.033 91.5002 99.668 101.865 99.668 114.65C99.668 127.436 110.033 137.8 122.818 137.8ZM127.001 104.167C127.001 101.958 125.21 100.167 123.001 100.167C120.792 100.167 119.001 101.958 119.001 104.167V110.584H112.402C110.193 110.584 108.402 112.375 108.402 114.584C108.402 116.793 110.193 118.584 112.402 118.584H119.001V125C119.001 127.21 120.792 129 123.001 129C125.21 129 127.001 127.21 127.001 125V118.584H133.236C135.445 118.584 137.236 116.793 137.236 114.584C137.236 112.375 135.445 110.584 133.236 110.584H127.001V104.167Z" fill="var(--spectrum-global-color-gray-800, #292929)"/>
</svg>
