<svg width="160" height="160" viewBox="0 0 160 160" xmlns="http://www.w3.org/2000/svg">
<path fill-rule="evenodd" d="M84 24C84 21.7909 82.2091 20 80 20C77.7909 20 76 21.7909 76 24V31.9381C76 34.1472 77.7909 35.9381 80 35.9381C82.2091 35.9381 84 34.1472 84 31.9381V24ZM55.7158 80.0024C55.7158 66.5909 66.588 55.7188 79.9995 55.7188V104.286C66.588 104.286 55.7158 93.4139 55.7158 80.0024ZM79.9995 47.7188C62.1697 47.7188 47.7158 62.1726 47.7158 80.0024C47.7158 97.8322 62.1697 112.286 79.9995 112.286C97.8293 112.286 112.283 97.8322 112.283 80.0024C112.283 62.1726 97.8293 47.7188 79.9995 47.7188ZM80.0002 124.062C82.2094 124.062 84.0002 125.853 84.0002 128.062V136C84.0002 138.209 82.2094 140 80.0002 140C77.7911 140 76.0002 138.209 76.0002 136V128.062C76.0002 125.853 77.7911 124.062 80.0002 124.062ZM136 84C138.209 84 140 82.2091 140 80C140 77.7909 138.209 76 136 76H128.062C125.853 76 124.062 77.7909 124.062 80C124.062 82.2091 125.853 84 128.062 84H136ZM35.9381 80C35.9381 82.2091 34.1472 84 31.9381 84H24C21.7909 84 20 82.2091 20 80C20 77.7909 21.7909 76 24 76H31.9381C34.1472 76 35.9381 77.7909 35.9381 80ZM122.426 43.2299C123.988 41.6678 123.988 39.1351 122.426 37.573C120.864 36.0109 118.331 36.0109 116.769 37.573L111.156 43.1861C109.594 44.7482 109.594 47.2808 111.156 48.8429C112.718 50.405 115.251 50.405 116.813 48.8429L122.426 43.2299ZM48.8426 111.156C50.4047 112.718 50.4047 115.251 48.8426 116.813L43.2295 122.426C41.6674 123.988 39.1348 123.988 37.5727 122.426C36.0106 120.864 36.0106 118.332 37.5727 116.769L43.1858 111.156C44.7479 109.594 47.2805 109.594 48.8426 111.156ZM37.5723 43.228C36.0102 41.6659 36.0102 39.1332 37.5723 37.5711C39.1344 36.009 41.6671 36.009 43.2292 37.5711L48.8423 43.1842C50.4044 44.7463 50.4044 47.279 48.8423 48.8411C47.2802 50.4031 44.7475 50.4031 43.1854 48.8411L37.5723 43.228ZM111.156 111.154C109.594 112.717 109.594 115.249 111.156 116.811L116.769 122.424C118.331 123.987 120.864 123.987 122.426 122.424C123.988 120.862 123.988 118.33 122.426 116.768L116.813 111.154C115.251 109.592 112.718 109.592 111.156 111.154Z" fill="var(--spectrum-global-color-gray-800, #292929)"/>
</svg>
