<svg width="48" height="48" viewBox="0 0 48 48" xmlns="http://www.w3.org/2000/svg">
<path fill-rule="evenodd" d="M7.75 17C7.75 14.1005 10.1005 11.75 13 11.75H35C37.8995 11.75 40.25 14.1005 40.25 17V31C40.25 33.8995 37.8995 36.25 35 36.25H13C10.1005 36.25 7.75 33.8995 7.75 31V17ZM13 14.25C11.4812 14.25 10.25 15.4812 10.25 17V31C10.25 32.5188 11.4812 33.75 13 33.75H35C36.5188 33.75 37.75 32.5188 37.75 31V17C37.75 15.4812 36.5188 14.25 35 14.25H13ZM20.75 30C20.75 29.3096 21.3096 28.75 22 28.75H34C34.6904 28.75 35.25 29.3096 35.25 30C35.25 30.6904 34.6904 31.25 34 31.25H22C21.3096 31.25 20.75 30.6904 20.75 30ZM13.0379 30.2674C12.6057 30.8058 12.6919 31.5925 13.2303 32.0246C13.7686 32.4568 14.5554 32.3706 14.9875 31.8322L20.6875 24.7306C21.0565 24.2709 21.0542 23.6159 20.6819 23.1588L14.9819 16.1604C14.5459 15.6251 13.7586 15.5446 13.2233 15.9806C12.688 16.4166 12.6075 17.2039 13.0435 17.7392L18.1052 23.9539L13.0379 30.2674Z" fill="var(--spectrum-global-color-gray-800, #292929)"/>
</svg>
