<svg width="48" height="48" viewBox="0 0 48 48" xmlns="http://www.w3.org/2000/svg">
<path fill-rule="evenodd" d="M38 11.4492C39.5188 11.4492 40.75 12.6804 40.75 14.1992V33.7992C40.75 35.318 39.5188 36.5492 38 36.5492H10C8.48122 36.5492 7.25 35.318 7.25 33.7992V14.1992C7.25 12.6804 8.48122 11.4492 10 11.4492H38ZM43.25 14.1992C43.25 11.2997 40.8995 8.94922 38 8.94922H10C7.10051 8.94922 4.75 11.2997 4.75 14.1992V33.7992C4.75 36.6987 7.10051 39.0492 10 39.0492H38C40.8995 39.0492 43.25 36.6987 43.25 33.7992V14.1992ZM14.6992 15.8991C14.6992 15.5677 14.9678 15.2991 15.2992 15.2991H17.3992C17.7306 15.2991 17.9992 15.5677 17.9992 15.8991V17.3991C17.9992 17.7304 17.7306 17.9991 17.3992 17.9991H15.2992C14.9678 17.9991 14.6992 17.7304 14.6992 17.3991V15.8991ZM10.1977 15.2991C9.86629 15.2991 9.59766 15.5677 9.59766 15.8991V17.3991C9.59766 17.7304 9.86628 17.9991 10.1977 17.9991H12.2977C12.629 17.9991 12.8977 17.7304 12.8977 17.3991V15.8991C12.8977 15.5677 12.629 15.2991 12.2977 15.2991H10.1977ZM14.6992 30.599C14.6992 30.2677 14.9678 29.999 15.2992 29.999H17.3992C17.7306 29.999 17.9992 30.2677 17.9992 30.599V32.099C17.9992 32.4304 17.7306 32.699 17.3992 32.699H15.2992C14.9678 32.699 14.6992 32.4304 14.6992 32.099V30.599ZM10.1977 29.999C9.86629 29.999 9.59766 30.2677 9.59766 30.599V32.099C9.59766 32.4304 9.86628 32.699 10.1977 32.699H12.2977C12.629 32.699 12.8977 32.4304 12.8977 32.099V30.599C12.8977 30.2677 12.629 29.999 12.2977 29.999H10.1977ZM19.7988 15.8991C19.7988 15.5677 20.0675 15.2991 20.3988 15.2991H22.4988C22.8302 15.2991 23.0988 15.5677 23.0988 15.8991V17.3991C23.0988 17.7304 22.8302 17.9991 22.4988 17.9991H20.3988C20.0675 17.9991 19.7988 17.7304 19.7988 17.3991V15.8991ZM20.3988 29.999C20.0675 29.999 19.7988 30.2677 19.7988 30.599V32.099C19.7988 32.4304 20.0675 32.699 20.3988 32.699H22.4988C22.8302 32.699 23.0988 32.4304 23.0988 32.099V30.599C23.0988 30.2677 22.8302 29.999 22.4988 29.999H20.3988ZM24.8984 15.8991C24.8984 15.5677 25.1671 15.2991 25.4984 15.2991H27.5984C27.9298 15.2991 28.1984 15.5677 28.1984 15.8991V17.3991C28.1984 17.7304 27.9298 17.9991 27.5984 17.9991H25.4984C25.1671 17.9991 24.8984 17.7304 24.8984 17.3991V15.8991ZM25.4984 29.999C25.1671 29.999 24.8984 30.2677 24.8984 30.599V32.099C24.8984 32.4304 25.1671 32.699 25.4984 32.699H27.5984C27.9298 32.699 28.1984 32.4304 28.1984 32.099V30.599C28.1984 30.2677 27.9298 29.999 27.5984 29.999H25.4984ZM30 15.8991C30 15.5677 30.2686 15.2991 30.6 15.2991H32.7C33.0314 15.2991 33.3 15.5677 33.3 15.8991V17.3991C33.3 17.7304 33.0314 17.9991 32.7 17.9991H30.6C30.2686 17.9991 30 17.7304 30 17.3991V15.8991ZM30.6 29.999C30.2686 29.999 30 30.2677 30 30.599V32.099C30 32.4304 30.2686 32.699 30.6 32.699H32.7C33.0314 32.699 33.3 32.4304 33.3 32.099V30.599C33.3 30.2677 33.0314 29.999 32.7 29.999H30.6ZM35.0977 15.8991C35.0977 15.5677 35.3663 15.2991 35.6977 15.2991H37.7977C38.129 15.2991 38.3977 15.5677 38.3977 15.8991V17.3991C38.3977 17.7304 38.129 17.9991 37.7977 17.9991H35.6977C35.3663 17.9991 35.0977 17.7304 35.0977 17.3991V15.8991ZM35.6977 29.999C35.3663 29.999 35.0977 30.2677 35.0977 30.599V32.099C35.0977 32.4304 35.3663 32.699 35.6977 32.699H37.7977C38.129 32.699 38.3977 32.4304 38.3977 32.099V30.599C38.3977 30.2677 38.129 29.999 37.7977 29.999H35.6977Z" fill="var(--spectrum-global-color-gray-800, #292929)"/>
</svg>
