<svg width="160" height="160" viewBox="0 0 160 160" xmlns="http://www.w3.org/2000/svg">
<path fill-rule="evenodd" d="M120 32C126.627 32 132 37.3726 132 44V56H20V44C20 37.3726 25.3726 32 32 32H120ZM20 64H132V89C132 91.2091 133.791 93 136 93C138.209 93 140 91.2091 140 89V44C140 32.9543 131.046 24 120 24H32C20.9543 24 12 32.9543 12 44V116C12 127.046 20.9543 136 32 136H94C96.2091 136 98 134.209 98 132C98 129.791 96.2091 128 94 128H32C25.3726 128 20 122.627 20 116V64ZM41.4805 44.5C41.4805 46.9862 39.4667 49 36.9805 49C34.4942 49 32.4805 46.9862 32.4805 44.5C32.4805 42.0138 34.4942 40 36.9805 40H36.9917C39.4667 40 41.4805 42.0138 41.4805 44.5ZM103.99 123.59C103.99 110.06 114.96 99.0898 128.49 99.0898C142.02 99.0898 152.99 110.06 152.99 123.59C152.99 137.12 142.02 148.09 128.49 148.09C114.96 148.09 103.99 137.12 103.99 123.59ZM139.41 134.52C140.97 132.95 140.97 130.42 139.41 128.86L134.15 123.6L139.41 118.34C140.97 116.77 140.97 114.24 139.41 112.68C137.85 111.12 135.31 111.12 133.75 112.68L128.49 117.94L123.23 112.68C121.67 111.12 119.13 111.12 117.57 112.68C116.01 114.25 116.01 116.78 117.57 118.34L122.83 123.6L117.57 128.86C116.01 130.43 116.01 132.96 117.57 134.52C118.35 135.3 119.37 135.69 120.4 135.69C121.43 135.69 122.45 135.3 123.23 134.52L128.49 129.26L133.75 134.52C134.53 135.3 135.55 135.69 136.58 135.69C137.61 135.69 138.63 135.3 139.41 134.52Z" fill="var(--spectrum-global-color-gray-800, #292929)"/>
</svg>
