<svg width="96" height="96" viewBox="0 0 96 96" xmlns="http://www.w3.org/2000/svg">
<path fill-rule="evenodd" d="M47.9954 17C37.2259 17 28.4954 25.7304 28.4954 36.5C28.4954 47.2696 37.2259 56 47.9954 56C58.765 56 67.4954 47.2696 67.4954 36.5C67.4954 25.7304 58.765 17 47.9954 17ZM24.4954 36.5C24.4954 23.5213 35.0167 13 47.9954 13C60.9741 13 71.4954 23.5213 71.4954 36.5C71.4954 43.0145 68.8447 48.9098 64.5629 53.1663L71.4781 70.282C72.6708 73.2339 70.1043 76.3285 66.9827 75.7023L62.5211 74.8073L59.9334 78.5503C58.1229 81.1692 54.1271 80.7261 52.9344 77.7741L47.9669 65.4791L43.0665 77.608C41.8697 80.5702 37.8545 81.0032 36.0538 78.3643L33.4922 74.6106L29.042 75.5314C25.9135 76.1787 23.326 73.078 24.5228 70.1159L31.3872 53.1258C27.1294 48.8725 24.4954 42.9938 24.4954 36.5ZM34.6129 55.8199L28.2315 71.6143L32.6817 70.6935C34.263 70.3664 35.886 71.0221 36.7962 72.3559L39.3578 76.1096L45.8098 60.1401L45.7089 59.8902C41.6113 59.4945 37.8215 58.0466 34.6129 55.8199ZM50.0322 59.913C54.2065 59.5546 58.0691 58.105 61.3334 55.8507L67.7694 71.7804L63.3078 70.8854C61.7419 70.5713 60.1391 71.2188 59.2308 72.5326L56.6432 76.2757L50.0322 59.913Z" fill="var(--spectrum-global-color-gray-800, #292929)"/>
</svg>
