<svg width="48" height="48" viewBox="0 0 48 48" fill="none" xmlns="http://www.w3.org/2000/svg">
<path fill-rule="evenodd" clip-rule="evenodd" d="M7.875 14.0265C7.875 11.127 10.2255 8.77649 13.125 8.77649H30C32.8995 8.77649 35.25 11.127 35.25 14.0265V16.8751C35.25 17.5655 34.6904 18.1251 34 18.1251C33.3096 18.1251 32.75 17.5655 32.75 16.8751V14.0265C32.75 12.5077 31.5188 11.2765 30 11.2765H13.125C11.6062 11.2765 10.375 12.5077 10.375 14.0265V24.9884L10.3751 25.0052L14.8576 18.0573C15.9636 16.343 18.48 16.3707 19.548 18.1088L19.5491 18.1106L20.1028 19.015C20.4633 19.6038 20.2782 20.3733 19.6894 20.7337C19.1006 21.0942 18.3311 20.9091 17.9707 20.3203L17.418 19.4176L17.4177 19.417C17.3128 19.2473 17.0666 19.2448 16.9583 19.4126L11.8044 27.4012C12.1964 27.6161 12.6464 27.7384 13.125 27.7384H17.7812C18.4716 27.7384 19.0312 28.298 19.0312 28.9884C19.0312 29.6788 18.4716 30.2384 17.7812 30.2384H13.125C10.2255 30.2384 7.875 27.8879 7.875 24.9884V14.0265ZM28.0725 17.2101C28.9009 17.2101 29.5725 16.5385 29.5725 15.7101C29.5725 14.8817 28.9009 14.2101 28.0725 14.2101C27.2441 14.2101 26.5725 14.8817 26.5725 15.7101C26.5725 16.5385 27.2441 17.2101 28.0725 17.2101ZM20.5259 24.8751C20.5259 21.9756 22.8764 19.6251 25.7759 19.6251H34.875C37.7745 19.6251 40.125 21.9756 40.125 24.8751V33.9743C40.125 36.8738 37.7745 39.2243 34.875 39.2243H25.7759C22.8764 39.2243 20.5259 36.8738 20.5259 33.9743V24.8751ZM25.7759 22.1251C24.2571 22.1251 23.0259 23.3563 23.0259 24.8751V33.9743C23.0259 35.4931 24.2571 36.7243 25.7759 36.7243H34.875C36.3938 36.7243 37.625 35.4931 37.625 33.9743V24.8751C37.625 23.3563 36.3938 22.1251 34.875 22.1251H25.7759ZM28.4087 25.6399L34.0158 28.856C34.6437 29.2162 34.6426 30.1148 34.0138 30.4735L28.399 33.6763C27.7702 34.035 26.9852 33.5848 26.9861 32.8659L26.9938 26.4469C26.9947 25.7281 27.7807 25.2797 28.4087 25.6399Z" fill="var(--spectrum-global-color-gray-800, #292929)"/>
</svg>
