<svg width="96" height="96" viewBox="0 0 96 96" xmlns="http://www.w3.org/2000/svg">
<path fill-rule="evenodd" d="M81.999 28.3999C81.999 25.0862 79.3127 22.3999 75.999 22.3999H19.999C16.6853 22.3999 13.999 25.0862 13.999 28.3999V67.5999C13.999 70.9136 16.6853 73.5999 19.999 73.5999H75.999C79.3127 73.5999 81.999 70.9136 81.999 67.5999V28.3999ZM75.999 18.3999C81.5219 18.3999 85.999 22.8771 85.999 28.3999V67.5999C85.999 73.1228 81.5219 77.5999 75.999 77.5999H19.999C14.4762 77.5999 9.99902 73.1227 9.99902 67.5999V28.3999C9.99902 22.8771 14.4762 18.3999 19.999 18.3999H75.999ZM44.8452 40.2541L56.0594 46.6864C57.3153 47.4068 57.3131 49.204 56.0555 49.9214L44.8258 56.327C43.5682 57.0444 41.9983 56.144 42 54.7062L42.0155 41.8683C42.0172 40.4305 43.5893 39.5338 44.8452 40.2541Z" fill="var(--spectrum-global-color-gray-800, #292929)"/>
</svg>
