<svg width="160" height="160" viewBox="0 0 160 160" xmlns="http://www.w3.org/2000/svg">
<path fill-rule="evenodd" d="M28 79.74C28 51.0212 51.2812 27.74 80 27.74C108.719 27.74 132 51.0212 132 79.74C132 108.459 108.719 131.74 80 131.74C51.2812 131.74 28 108.459 28 79.74ZM80 19.74C46.8629 19.74 20 46.6029 20 79.74C20 112.877 46.8629 139.74 80 139.74C113.137 139.74 140 112.877 140 79.74C140 46.6029 113.137 19.74 80 19.74ZM74.811 64.6802L95.7442 76.7994C98.0885 78.1566 98.0845 81.5427 95.7369 82.8944L74.7748 94.9634C72.4272 96.3151 69.4968 94.6185 69.5 91.9096L69.5289 67.7214C69.5322 65.0125 72.4667 63.323 74.811 64.6802Z" fill="var(--spectrum-global-color-gray-800, #292929)"/>
</svg>
