<svg width="160" height="160" viewBox="0 0 160 160" xmlns="http://www.w3.org/2000/svg">
<path fill-rule="evenodd" d="M28.6997 36.1084C28.7002 27.2054 36.0957 20.1094 44.8297 20.1094H76.1597C80.2673 20.1094 84.2118 21.7024 87.1758 24.5595L119.982 56.1463C123.122 59.1654 124.89 63.3487 124.89 67.6994V84.9994C124.89 87.2085 123.099 88.9994 120.89 88.9994C118.681 88.9994 116.89 87.2085 116.89 84.9994V68.0934C116.771 68.104 116.651 68.1094 116.53 68.1094H85.9097C80.401 68.1094 75.8797 63.6688 75.8797 58.1294V28.1094H44.8297C40.384 28.1094 36.6997 31.7528 36.6997 36.1094V36.1104L36.6797 116.109V116.11C36.6803 120.466 40.3643 124.109 44.8097 124.109H77.3847C79.5938 124.109 81.3847 125.9 81.3847 128.109C81.3847 130.319 79.5938 132.109 77.3847 132.109H44.8097C36.0754 132.109 28.6797 125.013 28.6797 116.109V116.108L28.6997 36.1094L28.6997 36.1084ZM83.8797 32.4914L112.564 60.1094H85.9097C84.7584 60.1094 83.8797 59.1899 83.8797 58.1294V32.4914ZM87.5 119.499C87.5 105.969 98.47 94.9994 112 94.9994C125.53 94.9994 136.5 105.969 136.5 119.499C136.5 133.029 125.53 143.999 112 143.999C98.47 143.999 87.5 133.029 87.5 119.499ZM112 103.919C109.79 103.919 108 105.709 108 107.919V120.699C108 122.909 109.79 124.699 112 124.699C114.21 124.699 116 122.909 116 120.699V107.919C116 105.709 114.21 103.919 112 103.919ZM115.83 132.679C115.94 132.429 116.02 132.159 116.07 131.899C116.12 131.629 116.15 131.359 116.15 131.089C116.15 129.989 115.71 128.929 114.94 128.149C113.97 127.189 112.54 126.749 111.19 127.019C110.93 127.069 110.66 127.149 110.41 127.259C110.16 127.359 109.92 127.489 109.7 127.639C109.47 127.789 109.26 127.959 109.07 128.149C108.29 128.929 107.85 129.999 107.85 131.089C107.85 131.359 107.88 131.629 107.93 131.899C107.98 132.159 108.06 132.429 108.17 132.679C108.27 132.929 108.4 133.169 108.55 133.389C108.7 133.619 108.87 133.829 109.07 134.019C109.26 134.219 109.47 134.389 109.7 134.539C109.92 134.689 110.16 134.819 110.41 134.919C110.66 135.029 110.93 135.109 111.19 135.159C111.46 135.209 111.73 135.239 112 135.239C113.09 135.239 114.16 134.799 114.94 134.019C115.13 133.829 115.3 133.619 115.45 133.389C115.6 133.169 115.73 132.929 115.83 132.679Z" fill="var(--spectrum-global-color-gray-800, #292929)"/>
</svg>
