<svg width="48" height="48" viewBox="0 0 48 48" xmlns="http://www.w3.org/2000/svg">
<path fill-rule="evenodd" d="M38 11.4502C39.5188 11.4502 40.75 12.6814 40.75 14.2002V33.8002C40.75 35.319 39.5188 36.5502 38 36.5502H10C8.48122 36.5502 7.25 35.319 7.25 33.8002V14.2002C7.25 12.6814 8.48122 11.4502 10 11.4502H38ZM43.25 14.2002C43.25 11.3007 40.8995 8.9502 38 8.9502H10C7.10051 8.9502 4.75 11.3007 4.75 14.2002V33.8002C4.75 36.6997 7.10051 39.0502 10 39.0502H38C40.8995 39.0502 43.25 36.6997 43.25 33.8002V14.2002ZM14.6992 15.9C14.6992 15.5687 14.9678 15.3 15.2992 15.3H17.3992C17.7306 15.3 17.9992 15.5687 17.9992 15.9V17.4C17.9992 17.7314 17.7306 18 17.3992 18H15.2992C14.9678 18 14.6992 17.7314 14.6992 17.4V15.9ZM10.1977 15.3C9.86629 15.3 9.59766 15.5687 9.59766 15.9V17.4C9.59766 17.7314 9.86628 18 10.1977 18H12.2977C12.629 18 12.8977 17.7314 12.8977 17.4V15.9C12.8977 15.5687 12.629 15.3 12.2977 15.3H10.1977ZM14.6992 30.6C14.6992 30.2686 14.9678 30 15.2992 30H17.3992C17.7306 30 17.9992 30.2686 17.9992 30.6V32.1C17.9992 32.4314 17.7306 32.7 17.3992 32.7H15.2992C14.9678 32.7 14.6992 32.4314 14.6992 32.1V30.6ZM10.1977 30C9.86629 30 9.59766 30.2686 9.59766 30.6V32.1C9.59766 32.4314 9.86628 32.7 10.1977 32.7H12.2977C12.629 32.7 12.8977 32.4314 12.8977 32.1V30.6C12.8977 30.2686 12.629 30 12.2977 30H10.1977ZM19.7988 15.9C19.7988 15.5687 20.0675 15.3 20.3988 15.3H22.4988C22.8302 15.3 23.0988 15.5687 23.0988 15.9V17.4C23.0988 17.7314 22.8302 18 22.4988 18H20.3988C20.0675 18 19.7988 17.7314 19.7988 17.4V15.9ZM20.3988 30C20.0675 30 19.7988 30.2686 19.7988 30.6V32.1C19.7988 32.4314 20.0675 32.7 20.3988 32.7H22.4988C22.8302 32.7 23.0988 32.4314 23.0988 32.1V30.6C23.0988 30.2686 22.8302 30 22.4988 30H20.3988ZM24.8984 15.9C24.8984 15.5687 25.1671 15.3 25.4984 15.3H27.5984C27.9298 15.3 28.1984 15.5687 28.1984 15.9V17.4C28.1984 17.7314 27.9298 18 27.5984 18H25.4984C25.1671 18 24.8984 17.7314 24.8984 17.4V15.9ZM25.4984 30C25.1671 30 24.8984 30.2686 24.8984 30.6V32.1C24.8984 32.4314 25.1671 32.7 25.4984 32.7H27.5984C27.9298 32.7 28.1984 32.4314 28.1984 32.1V30.6C28.1984 30.2686 27.9298 30 27.5984 30H25.4984ZM30 15.9C30 15.5687 30.2686 15.3 30.6 15.3H32.7C33.0314 15.3 33.3 15.5687 33.3 15.9V17.4C33.3 17.7314 33.0314 18 32.7 18H30.6C30.2686 18 30 17.7314 30 17.4V15.9ZM30.6 30C30.2686 30 30 30.2686 30 30.6V32.1C30 32.4314 30.2686 32.7 30.6 32.7H32.7C33.0314 32.7 33.3 32.4314 33.3 32.1V30.6C33.3 30.2686 33.0314 30 32.7 30H30.6ZM35.0977 15.9C35.0977 15.5687 35.3663 15.3 35.6977 15.3H37.7977C38.129 15.3 38.3977 15.5687 38.3977 15.9V17.4C38.3977 17.7314 38.129 18 37.7977 18H35.6977C35.3663 18 35.0977 17.7314 35.0977 17.4V15.9ZM35.6977 30C35.3663 30 35.0977 30.2686 35.0977 30.6V32.1C35.0977 32.4314 35.3663 32.7 35.6977 32.7H37.7977C38.129 32.7 38.3977 32.4314 38.3977 32.1V30.6C38.3977 30.2686 38.129 30 37.7977 30H35.6977Z" fill="var(--spectrum-global-color-gray-800, #292929)"/>
</svg>
