<svg width="160" height="160" viewBox="0 0 160 160" xmlns="http://www.w3.org/2000/svg">
<path fill-rule="evenodd" d="M35.4297 36.4702C28.8023 36.4702 23.4297 41.8428 23.4297 48.4702V97.4702C23.4297 98.4931 23.5577 99.4861 23.7985 100.434L45.0428 67.5053C49.2327 61.011 58.7659 61.1158 62.812 67.7006L79.7453 95.2588L89.5649 80.2753C93.7575 73.878 103.164 73.9664 107.236 80.4413L115.363 93.3652L115.366 93.3707L120.648 101.74C121.153 100.413 121.43 98.974 121.43 97.4702V48.4702C121.43 41.8428 116.057 36.4702 109.43 36.4702H35.4297ZM115.152 108.021L108.597 97.6349L108.594 97.6294L100.463 84.6999C99.4939 83.1583 97.2543 83.1373 96.2561 84.6604L79.9966 109.47H109.43C111.502 109.47 113.451 108.945 115.152 108.021ZM70.4317 109.47L74.8993 102.653L55.9959 71.8888C55.0326 70.321 52.7628 70.2961 51.7652 71.8423L28.7838 107.463C30.6865 108.731 32.9718 109.47 35.4297 109.47H70.4317ZM15.4297 48.4702C15.4297 37.4245 24.384 28.4702 35.4297 28.4702H109.43C120.475 28.4702 129.43 37.4245 129.43 48.4702V97.4702C129.43 108.516 120.475 117.47 109.43 117.47H35.4297C24.384 117.47 15.4297 108.516 15.4297 97.4702V48.4702ZM101.93 62.6302C106.348 62.6302 109.93 59.0485 109.93 54.6302C109.93 50.2119 106.348 46.6302 101.93 46.6302C97.5114 46.6302 93.9297 50.2119 93.9297 54.6302C93.9297 59.0485 97.5114 62.6302 101.93 62.6302ZM144.5 67C144.5 64.7909 142.709 63 140.5 63C138.291 63 136.5 64.7909 136.5 67V107.5C136.5 116.337 129.337 123.5 120.5 123.5H54.5C52.2909 123.5 50.5 125.291 50.5 127.5C50.5 129.709 52.2909 131.5 54.5 131.5H120.5C133.755 131.5 144.5 120.755 144.5 107.5V67Z" fill="var(--spectrum-global-color-gray-800, #292929)"/>
</svg>
