<svg width="96" height="97" viewBox="0 0 96 97" xmlns="http://www.w3.org/2000/svg">
<path fill-rule="evenodd" d="M48 17.4883C30.8792 17.4883 17 31.3675 17 48.4883C17 65.6091 30.8792 79.4883 48 79.4883C65.1208 79.4883 79 65.6091 79 48.4883C79 31.3675 65.1208 17.4883 48 17.4883ZM13 48.4883C13 29.1583 28.67 13.4883 48 13.4883C67.33 13.4883 83 29.1583 83 48.4883C83 67.8182 67.33 83.4883 48 83.4883C28.67 83.4883 13 67.8182 13 48.4883ZM50.5 63.1582C50.5 64.5389 49.3807 65.6582 48 65.6582C46.6193 65.6582 45.5 64.5389 45.5 63.1582C45.5 61.7775 46.6193 60.6582 48 60.6582C49.3807 60.6582 50.5 61.7775 50.5 63.1582ZM46.2829 34.8757C47.1182 34.5212 48.0344 34.4292 48.9178 34.6093C49.8016 34.7894 50.6201 35.2352 51.2673 35.8983C51.915 36.5618 52.3613 37.4131 52.5426 38.3469C52.7239 39.2809 52.6305 40.2485 52.2759 41.1254C51.9216 42.0019 51.3246 42.7433 50.568 43.2612C49.4609 44.0192 48.3607 45.0537 47.5212 46.267C46.6878 47.4716 46.0288 48.9759 46.0288 50.6339V54.8081C46.0288 55.9126 46.9242 56.8081 48.0288 56.8081C49.1334 56.8081 50.0288 55.9126 50.0288 54.8081V50.6339C50.0288 50.0382 50.2745 49.3179 50.8106 48.543C51.3407 47.7768 52.075 47.0771 52.8276 46.5619C54.243 45.5929 55.339 44.2208 55.9843 42.6246C56.6295 41.0288 56.7976 39.2755 56.4693 37.5845C56.1409 35.8933 55.3293 34.3333 54.1298 33.1043C52.9298 31.8749 51.3949 31.0319 49.7166 30.6898C48.0379 30.3477 46.2984 30.5238 44.7203 31.1935C43.1427 31.863 41.8021 32.9934 40.8626 34.4341C39.9233 35.8743 39.4248 37.5626 39.4248 39.2857C39.4248 40.3903 40.3202 41.2857 41.4248 41.2857C42.5294 41.2857 43.4248 40.3903 43.4248 39.2857C43.4248 38.3324 43.7009 37.4043 44.213 36.6191C44.7247 35.8345 45.447 35.2304 46.2829 34.8757Z" fill="var(--spectrum-global-color-gray-800, #292929)"/>
</svg>
