<svg width="96" height="96" viewBox="0 0 96 96" xmlns="http://www.w3.org/2000/svg">
<path fill-rule="evenodd" d="M54.4497 37.6651L49.5069 47.1907C48.4092 49.3062 46.5921 50.9601 44.3829 51.8543L22.8992 60.5508C18.8061 62.2077 14.7316 58.1332 16.3884 54.0401L25.085 32.5564C25.9792 30.3472 27.6331 28.5301 29.7486 27.4324L39.2177 22.5189L43.784 17.9527C46.1271 15.6095 49.9261 15.6095 52.2693 17.9527L58.973 24.6564C61.3162 26.9996 61.3162 30.7986 58.973 33.1417L54.4497 37.6651ZM50.361 36.86L45.9564 45.3484C45.2978 46.6177 44.2075 47.61 42.882 48.1466L23.9931 55.7928L34.2633 45.5226C35.1263 45.6075 36.0191 45.3195 36.6802 44.6584C37.8517 43.4868 37.8517 41.5873 36.6802 40.4158C35.5086 39.2442 33.6091 39.2442 32.4375 40.4158C31.8434 41.0099 31.5506 41.7913 31.559 42.5699L21.1219 53.0071L28.7927 34.0572C29.3293 32.7318 30.3216 31.6415 31.5909 30.9828L40.0793 26.5783L50.361 36.86ZM56.1446 30.3133L52.8079 33.65L43.2757 24.1178L46.6124 20.7811C47.3935 20.0001 48.6598 20.0001 49.4408 20.7811L56.1446 27.4849C56.9257 28.2659 56.9257 29.5322 56.1446 30.3133ZM60.4612 61.5338L75.4612 43.2229C76.5563 41.8862 76.3604 39.9148 75.0236 38.8197C73.6868 37.7246 71.7154 37.9206 70.6203 39.2573L55.6745 57.502C56.5588 57.8455 57.3529 58.2951 58.0086 58.8322C58.8648 59.5337 59.7445 60.4292 60.4612 61.5338ZM61.9753 65.8585L62.0435 65.9143L78.5555 45.7578C81.0505 42.712 80.6041 38.2204 77.5584 35.7254C74.5127 33.2304 70.021 33.6768 67.526 36.7225L51.1309 56.7363C50.5922 56.7498 50.0492 56.7987 49.5084 56.8858C46.1756 57.4222 42.7999 59.4196 40.7933 63.5617C39.9697 65.2617 39.3519 66.6096 38.8392 67.7282C38.1316 69.272 37.6241 70.3791 37.052 71.3728C36.1878 72.8738 35.244 73.9615 33.055 75.6657C32.4141 76.1646 32.1386 77.0017 32.3579 77.7838C32.5772 78.5659 33.2477 79.1377 34.0546 79.2307C37.0951 79.5811 42.4481 80.0694 47.5863 79.4429C52.5838 78.8336 58.1657 77.0713 60.5992 72.2068C61.7518 69.9027 62.1494 67.7761 61.9753 65.8585ZM57.0218 70.4173C55.5607 73.3381 51.8894 74.8886 47.1022 75.4723C44.3306 75.8102 41.4464 75.7906 38.9376 75.6468C39.5323 74.9394 40.0378 74.2036 40.5185 73.3686C41.1672 72.242 41.8015 70.8631 42.5977 69.1321L42.5978 69.132C43.1126 68.0128 43.6951 66.7463 44.3931 65.3056C45.7866 62.4291 47.9969 61.1805 50.144 60.8349C52.4151 60.4694 54.4988 61.1279 55.4737 61.9265C56.511 62.7762 57.3948 63.8589 57.7887 65.1693C58.1668 66.4273 58.1657 68.1306 57.0218 70.4173Z" fill="var(--spectrum-global-color-gray-800, #292929)"/>
</svg>
