<svg width="48" height="48" viewBox="0 0 48 48" xmlns="http://www.w3.org/2000/svg">
<path fill-rule="evenodd" d="M9.14042 19.66C11.0192 13.2371 16.9521 8.53906 23.9807 8.53906C30.1216 8.53906 35.4232 12.1127 37.9169 17.306L33.9398 15.4466C33.3144 15.1543 32.5704 15.4242 32.2781 16.0496C31.9857 16.675 32.2556 17.419 32.881 17.7114L39.191 20.6614C39.8015 20.9468 40.5284 20.6968 40.8343 20.0963L44.1143 13.6563C44.4276 13.0411 44.1829 12.2885 43.5677 11.9751C42.9526 11.6618 42.1999 11.9065 41.8866 12.5217L40.0877 16.0537C37.1584 10.1162 31.05 6.03906 23.9807 6.03906C15.8093 6.03906 8.92223 11.501 6.74097 18.9581C6.54715 19.6207 6.92718 20.315 7.58977 20.5088C8.25236 20.7026 8.94661 20.3226 9.14042 19.66ZM8.80966 27.3967C8.19915 27.1113 7.47228 27.3612 7.16641 27.9618L3.88641 34.4017C3.5731 35.0169 3.8178 35.7696 4.43296 36.0829C5.04813 36.3962 5.80081 36.1515 6.11412 35.5364L7.89782 32.0342C10.8442 37.923 16.9266 41.959 23.9601 41.959C32.1316 41.959 39.0186 36.497 41.1999 29.0399C41.3937 28.3773 41.0137 27.683 40.3511 27.4892C39.6885 27.2954 38.9942 27.6754 38.8004 28.338C36.9217 34.7609 30.9887 39.459 23.9601 39.459C17.8355 39.459 12.5458 35.9043 10.0439 30.7334L14.0609 32.6114C14.6863 32.9038 15.4303 32.6338 15.7226 32.0084C16.015 31.3831 15.745 30.6391 15.1197 30.3467L8.80966 27.3967Z" fill="var(--spectrum-global-color-gray-800, #292929)"/>
</svg>
