<svg width="48" height="48" viewBox="0 0 48 48" xmlns="http://www.w3.org/2000/svg">
<path fill-rule="evenodd" d="M10.4102 15.1797C10.4102 12.56 12.5405 10.4297 15.1602 10.4297H28.8302C29.5205 10.4297 30.0802 9.87004 30.0802 9.17969C30.0802 8.48933 29.5205 7.92969 28.8302 7.92969H15.1602C11.1598 7.92969 7.91016 11.1793 7.91016 15.1797V28.8497C7.91016 29.54 8.4698 30.0997 9.16016 30.0997C9.85051 30.0997 10.4102 29.54 10.4102 28.8497V15.1797ZM17.1602 14.3997C15.6414 14.3997 14.4102 15.6309 14.4102 17.1497V34.8197C14.4102 36.3384 15.6414 37.5697 17.1602 37.5697H34.8302C36.3489 37.5697 37.5802 36.3384 37.5802 34.8197V17.1497C37.5802 15.6309 36.3489 14.3997 34.8302 14.3997H34.4491V25.1096C34.4491 25.5096 33.9991 25.7496 33.6691 25.5296L31.2691 23.9296C31.1091 23.8196 30.8891 23.8196 30.7191 23.9296L28.3191 25.5296C27.9891 25.7496 27.5391 25.5096 27.5391 25.1096V14.3997H17.1602ZM11.9102 17.1497C11.9102 14.2502 14.2607 11.8997 17.1602 11.8997H34.8302C37.7297 11.8997 40.0802 14.2502 40.0802 17.1497V34.8197C40.0802 37.7192 37.7297 40.0697 34.8302 40.0697H17.1602C14.2607 40.0697 11.9102 37.7192 11.9102 34.8197V17.1497Z" fill="var(--spectrum-global-color-gray-800, #292929)"/>
</svg>
