<svg width="96" height="96" viewBox="0 0 96 96" xmlns="http://www.w3.org/2000/svg">
<path fill-rule="evenodd" d="M11.75 34.0938C11.75 28.5709 16.2271 24.0938 21.75 24.0938H53.6739C59.1967 24.0938 63.6739 28.5709 63.6739 34.0938V37.8882L74.6744 29.7246C78.6335 26.7865 84.25 29.6125 84.25 34.5428V61.3577C84.25 66.2756 78.6583 69.1048 74.696 66.1918L63.6739 58.0886V61.9052C63.6739 67.4281 59.1968 71.9052 53.6739 71.9052H21.75C16.2271 71.9052 11.75 67.428 11.75 61.9052V34.0938ZM21.75 28.0938C18.4363 28.0938 15.75 30.78 15.75 34.0938V61.9052C15.75 65.2189 18.4363 67.9052 21.75 67.9052H53.6739C56.9876 67.9052 59.6739 65.2189 59.6739 61.9052V54.1359C59.6739 53.3818 60.0981 52.6918 60.7709 52.3514C61.4438 52.0109 62.251 52.0779 62.8586 52.5245L77.0653 62.969C78.3861 63.9401 80.25 62.997 80.25 61.3577V34.5428C80.25 32.8994 78.3778 31.9574 77.0581 32.9368L62.8658 43.4691C62.2589 43.9194 61.45 43.9893 60.7749 43.6496C60.0999 43.3099 59.6739 42.6187 59.6739 41.863V34.0938C59.6739 30.78 56.9876 28.0938 53.6739 28.0938H21.75Z" fill="var(--spectrum-global-color-gray-800, #292929)"/>
</svg>
