<svg width="160" height="160" viewBox="0 0 160 160" xmlns="http://www.w3.org/2000/svg">
<path fill-rule="evenodd" d="M74.6904 19.9707C69.4591 19.9707 65.1226 23.991 64.7222 29.2035L64.7221 29.2042L64.7221 29.2049L63.7863 41.3531C60.584 42.698 57.5837 44.4261 54.8436 46.4864L43.88 41.1536L43.8783 41.1528C39.183 38.8718 33.5157 40.5831 30.878 45.0905L30.8777 45.091L25.5077 54.271L25.5048 54.276C22.8815 58.7754 24.1318 64.5617 28.4449 67.5404L28.4488 67.5431L38.4547 74.4786C38.2153 76.2861 38.0904 78.1282 38.0904 80.0007C38.0904 81.8707 38.2149 83.7159 38.4542 85.5232L28.4417 92.4632L28.4402 92.4642C24.141 95.447 22.8741 101.23 25.508 105.731L30.8748 114.905L30.8755 114.907C33.5109 119.425 39.1822 121.144 43.8837 118.846L43.8886 118.844L54.8436 113.515C57.5837 115.575 60.584 117.303 63.7863 118.648L64.7221 130.797L64.7222 130.798C65.1229 136.015 69.4733 140.031 74.6904 140.031H85.3204C90.5516 140.031 94.8881 136.01 95.2885 130.798L95.2887 130.797L96.2244 118.648C99.4268 117.303 102.427 115.575 105.167 113.515L116.131 118.848L116.132 118.849C120.828 121.13 126.495 119.418 129.133 114.911L129.133 114.91L134.503 105.73L134.506 105.725C137.129 101.226 135.879 95.4396 131.566 92.461L131.562 92.4583L121.556 85.5228C121.795 83.7153 121.92 81.8732 121.92 80.0007C121.92 78.1307 121.796 76.2855 121.557 74.4782L131.569 67.5382L131.57 67.5372C135.87 64.5545 137.137 58.772 134.503 54.271L134.503 54.2705L129.136 45.096L129.134 45.0934C126.499 40.5759 120.828 38.8581 116.127 41.1553L116.122 41.1578L105.167 46.4864C102.427 44.4261 99.4268 42.698 96.2244 41.3531L95.2887 29.2049L95.2886 29.2042L95.2885 29.2035C94.8878 23.9868 90.5374 19.9707 85.3204 19.9707H74.6904ZM72.6986 29.8165C72.7789 28.7697 73.6421 27.9707 74.6904 27.9707H85.3204C86.3628 27.9707 87.2321 28.7739 87.3121 29.8165L87.3122 29.8179L88.4422 44.4879C88.5644 46.0742 89.615 47.4372 91.1179 47.9593C95.1618 49.3639 98.8549 51.5014 102.038 54.2283C103.248 55.2649 104.957 55.4846 106.39 54.7878L119.63 48.3478L119.639 48.3436C120.576 47.885 121.701 48.2265 122.225 49.1254L122.228 49.1304L127.598 58.3104L127.598 58.311C128.124 59.2094 127.871 60.3657 127.012 60.9632L127.012 60.9633L127.01 60.9642L114.922 69.3432C113.614 70.2496 112.968 71.8447 113.276 73.4056C113.697 75.5345 113.92 77.745 113.92 80.0007C113.92 82.2548 113.697 84.4564 113.276 86.5989C112.969 88.1589 113.615 89.7525 114.922 90.6582L127.012 99.0382L127.019 99.0431C127.862 99.6251 128.131 100.776 127.595 101.695L127.595 101.696L122.228 110.87C121.706 111.763 120.573 112.112 119.628 111.653L106.39 105.214C104.957 104.517 103.248 104.737 102.038 105.773C98.8549 108.5 95.1618 110.638 91.1179 112.042C89.615 112.564 88.5644 113.927 88.4422 115.514L87.3122 130.184L87.3121 130.185C87.2318 131.232 86.3686 132.031 85.3204 132.031H74.6904C73.6479 132.031 72.7786 131.228 72.6986 130.185L72.6985 130.184L71.5685 115.514C71.4464 113.927 70.3957 112.564 68.8928 112.042C64.8489 110.638 61.1558 108.5 57.9728 105.773C56.763 104.737 55.0534 104.517 53.6207 105.214L40.3807 111.654L40.3721 111.658C39.435 112.116 38.31 111.775 37.7859 110.876L37.783 110.871L32.413 101.691L32.4127 101.69C31.8868 100.792 32.1396 99.635 32.9998 99.0377L33.0005 99.0372L45.089 90.6582C46.3967 89.7518 47.0428 88.1567 46.7346 86.5958C46.3142 84.4669 46.0904 82.2564 46.0904 80.0007C46.0904 77.7466 46.3139 75.545 46.7352 73.4025C47.042 71.8425 46.3957 70.2489 45.089 69.3432L32.999 60.9632L32.9919 60.9583C32.1487 60.3765 31.8803 59.226 32.4149 58.3071L32.4159 58.3054L37.7827 49.131L37.783 49.1305C38.3053 48.2384 39.4373 47.8899 40.3818 48.3483L40.3824 48.3486L53.6207 54.7878C55.0534 55.4846 56.763 55.2649 57.9728 54.2283C61.1558 51.5014 64.8489 49.3639 68.8928 47.9593C70.3957 47.4372 71.4464 46.0742 71.5685 44.4879L72.6985 29.8179L72.6986 29.8165ZM71.0003 80.0007C71.0003 75.0301 75.0298 71.0007 80.0003 71.0007C84.9709 71.0007 89.0003 75.0301 89.0003 80.0007C89.0003 84.9713 84.9709 89.0007 80.0003 89.0007C75.0298 89.0007 71.0003 84.9713 71.0003 80.0007ZM80.0003 63.0007C70.6115 63.0007 63.0003 70.6119 63.0003 80.0007C63.0003 89.3895 70.6115 97.0007 80.0003 97.0007C89.3892 97.0007 97.0003 89.3895 97.0003 80.0007C97.0003 70.6119 89.3892 63.0007 80.0003 63.0007Z" fill="var(--spectrum-global-color-gray-800, #292929)"/>
</svg>
