<svg width="160" height="160" viewBox="0 0 160 160" xmlns="http://www.w3.org/2000/svg">
<path fill-rule="evenodd" d="M45.7402 32.0601C41.3294 32.0601 37.7402 35.6492 37.7402 40.0601V89.6901C37.7402 113.01 56.6788 131.94 79.9902 131.94C103.311 131.94 122.24 113.001 122.24 89.6901V40.0601C122.24 35.6492 118.651 32.0601 114.24 32.0601H45.7502H45.7402ZM29.7402 40.0601C29.7402 31.2309 36.9111 24.0601 45.7402 24.0601H45.7502H114.24C123.069 24.0601 130.24 31.2309 130.24 40.0601V89.6901C130.24 117.419 107.73 139.94 79.9902 139.94C52.2617 139.94 29.7402 117.43 29.7402 89.6901V40.0601ZM84.6087 59.812C87.7037 54.5631 95.2963 54.5631 98.3913 59.812L112.174 83.1867C115.318 88.5197 111.474 95.25 105.283 95.25H77.7175C71.5265 95.25 67.6817 88.5197 70.8262 83.1867L84.6087 59.812ZM105.283 87.25L91.5 63.8753L77.7175 87.25L105.283 87.25ZM69.9601 68.0069C71.0685 66.0959 70.4178 63.6482 68.5069 62.5399C66.5959 61.4315 64.1482 62.0822 63.0399 63.9931L48.5399 88.9931C47.4315 90.9041 48.0822 93.3518 49.9931 94.4601C51.9041 95.5685 54.3518 94.9178 55.4601 93.0069L69.9601 68.0069Z" fill="var(--spectrum-global-color-gray-800, #292929)"/>
</svg>
