<svg width="160" height="160" viewBox="0 0 160 160" xmlns="http://www.w3.org/2000/svg">
<path fill-rule="evenodd" d="M134.937 20.9688C137.146 20.9688 138.937 22.7596 138.937 24.9688V50.9043C138.937 53.1134 137.146 54.9043 134.937 54.9043C132.727 54.9043 130.937 53.1134 130.937 50.9043V34.5953L86.3245 79.2073C84.7624 80.7694 82.2298 80.7694 80.6677 79.2073C79.1056 77.6452 79.1056 75.1126 80.6677 73.5505L125.249 28.9688H109.001C106.792 28.9687 105.001 27.1779 105.001 24.9688C105.001 22.7596 106.792 20.9688 109.001 20.9688H134.937ZM43.75 38.4531C37.1226 38.4531 31.75 43.8257 31.75 50.4531V116.009C31.75 122.636 37.1226 128.009 43.75 128.009H109.305C115.933 128.009 121.305 122.636 121.305 116.009V67.5523C121.305 65.3432 123.096 63.5523 125.305 63.5523C127.515 63.5523 129.305 65.3432 129.305 67.5523V116.009C129.305 127.054 120.351 136.009 109.305 136.009H43.75C32.7043 136.009 23.75 127.054 23.75 116.009V50.4531C23.75 39.4074 32.7043 30.4531 43.75 30.4531H92.2063C94.4154 30.4531 96.2063 32.244 96.2063 34.4531C96.2063 36.6623 94.4154 38.4531 92.2063 38.4531H43.75Z" fill="var(--spectrum-global-color-gray-800, #292929)"/>
</svg>
