<svg width="160" height="160" viewBox="0 0 160 160" xmlns="http://www.w3.org/2000/svg">
<path fill-rule="evenodd" d="M47.1364 24C38.2672 24 31 31.1209 31 40V120C31 128.879 38.2672 136 47.1364 136H111.864C120.733 136 128 128.879 128 120V72.9706C128 68.7124 126.289 64.6379 123.258 61.6409L89.9125 28.6704C86.883 25.6749 82.7836 24 78.5184 24H47.1364ZM39 40C39 35.6242 42.6 32 47.1364 32H78.5184C80.6908 32 82.7652 32.8537 84.2877 34.3591L117.633 67.3296C119.154 68.8335 120 70.8635 120 72.9706V120C120 124.376 116.4 128 111.864 128H47.1364C42.6 128 39 124.376 39 120V40ZM58.066 72.4978C58.6392 72.1806 59.2985 72 60 72H80H100C101.942 72 103.561 73.384 103.924 75.2195C103.974 75.472 104 75.7329 104 76L104 76.0193V84.0001C104 86.2092 102.209 88.0001 99.9999 88.0001C97.7908 88.0001 95.9999 86.2092 95.9999 84.0001V80H84V112H88C90.2091 112 92 113.791 92 116C92 118.209 90.2091 120 88 120H80H72C69.7908 120 68 118.209 68 116C68 113.791 69.7908 112 72 112H76V80H63.9999V84.0001C63.9999 86.2092 62.2091 88.0001 59.9999 88.0001C57.7908 88.0001 55.9999 86.2092 55.9999 84.0001V76.0001C55.9999 75.4478 56.1119 74.9216 56.3143 74.443C56.6645 73.6152 57.2854 72.9298 58.066 72.4978Z" fill="var(--spectrum-global-color-gray-800, #292929)"/>
</svg>
