<svg width="48" height="48" viewBox="0 0 48 48" xmlns="http://www.w3.org/2000/svg">
<path fill-rule="evenodd" d="M8.5 24.1728C9.19036 24.1728 9.75 24.7325 9.75 25.4228L9.75 34.2464C9.75 35.596 10.8326 36.6728 12.1471 36.6728L35.8529 36.6728C37.1674 36.6728 38.25 35.596 38.25 34.2464L38.25 25.4228C38.25 24.7325 38.8096 24.1728 39.5 24.1728C40.1904 24.1728 40.75 24.7325 40.75 25.4228L40.75 34.2464C40.75 36.9577 38.567 39.1728 35.8529 39.1728L12.1471 39.1728C9.43304 39.1728 7.25 36.9577 7.25 34.2464L7.25 25.4228C7.25 24.7325 7.80964 24.1728 8.5 24.1728ZM24 8.82812C24.6904 8.82812 25.25 9.38777 25.25 10.0781L25.25 28.659L30.1161 23.7929C30.6043 23.3047 31.3957 23.3047 31.8839 23.7929C32.372 24.281 32.372 25.0725 31.8839 25.5606L24.8839 32.5606C24.3957 33.0488 23.6043 33.0488 23.1161 32.5606L16.1161 25.5606C15.628 25.0725 15.628 24.281 16.1161 23.7929C16.6043 23.3047 17.3957 23.3047 17.8839 23.7929L22.75 28.659L22.75 10.0781C22.75 9.38777 23.3097 8.82812 24 8.82812Z" fill="var(--spectrum-global-color-gray-800, #292929)"/>
</svg>
