<svg width="96" height="96" viewBox="0 0 96 96" xmlns="http://www.w3.org/2000/svg">
<path fill-rule="evenodd" d="M36.3897 29.5C36.3897 22.4752 41.7052 17 47.9997 17C54.2943 17 59.6097 22.4752 59.6097 29.5C59.6097 36.5248 54.2943 42 47.9997 42C41.7052 42 36.3897 36.5248 36.3897 29.5ZM47.9997 13C39.2611 13 32.3897 20.5085 32.3897 29.5C32.3897 38.4915 39.2611 46 47.9997 46C56.7383 46 63.6097 38.4915 63.6097 29.5C63.6097 20.5085 56.7383 13 47.9997 13ZM23.0101 73.5976C25.1053 61.7214 35.5831 52.5901 48.0005 52.5901C60.4167 52.5901 70.8949 61.7301 72.9907 73.5965C73.2072 74.8419 72.2574 75.9601 71.0205 75.9601H48.0005H24.9805C23.7365 75.9601 22.7893 74.8271 23.009 73.6036L23.0101 73.5976ZM48.0005 48.5901C33.5989 48.5901 21.4974 59.1572 19.0714 72.8996C18.4133 76.5749 21.2455 79.9601 24.9805 79.9601H48.0005H71.0205C74.7629 79.9601 77.5728 76.5795 76.9306 72.9057L76.93 72.9023C74.5053 59.1694 62.4038 48.5901 48.0005 48.5901Z" fill="var(--spectrum-global-color-gray-800, #292929)"/>
</svg>
