<svg width="160" height="160" viewBox="0 0 160 160" xmlns="http://www.w3.org/2000/svg">
<path fill-rule="evenodd" d="M80.4236 26.8532C72.5904 19.3408 60.1528 19.4402 52.4414 27.1516L22.0114 57.5816C14.1993 65.3937 14.1993 78.0563 22.0114 85.8684L30.8348 94.6918C30.9305 94.7939 31.0281 94.8948 31.1276 94.9946C31.195 95.0622 31.2646 95.1272 31.3362 95.1894C33.8905 97.6435 37.1786 98.8852 40.4754 98.9145C40.5066 102.297 41.8114 105.671 44.3876 108.255C44.455 108.322 44.5246 108.387 44.5962 108.449C47.1504 110.903 50.4384 112.145 53.7351 112.174C53.7636 115.561 55.0683 118.939 57.6471 121.524C57.7145 121.592 57.7841 121.657 57.8558 121.719C60.4128 124.176 63.7051 125.418 67.0054 125.444C67.0366 128.827 68.3414 132.201 70.9176 134.785C70.985 134.852 71.0546 134.917 71.1262 134.979C76.3619 140.01 84.6806 139.946 89.8383 134.788L107.428 117.198C107.44 117.186 107.452 117.174 107.464 117.162L137.998 86.6284C145.81 78.8163 145.81 66.1537 137.998 58.3416L107.568 27.9116C100.126 20.4698 88.2827 20.117 80.4236 26.8532ZM86.1069 32.5402L100.778 47.2116C106 52.4337 106 60.8963 100.778 66.1184C95.5562 71.3405 87.0935 71.3405 81.8714 66.1184L67.1348 51.3818L36.7883 81.7284C34.7565 83.7602 34.6892 87.0273 36.6051 89.1484L36.7883 89.3316C36.7896 89.3329 36.7909 89.3342 36.7923 89.3356C36.7943 89.3376 36.7963 89.3396 36.7983 89.3416C38.841 91.3843 42.1157 91.438 44.2232 89.5028C44.2787 89.4453 44.3347 89.3883 44.3914 89.3316C44.4504 89.2726 44.5108 89.2158 44.5724 89.1613L51.6573 82.1057C53.2226 80.5469 55.7553 80.5521 57.3141 82.1174C58.873 83.6828 58.8677 86.2154 57.3024 87.7743L50.0483 94.9984L50.0465 95.0002C50.0253 95.0214 50.0041 95.0424 49.9828 95.0634C49.9502 95.0956 49.9174 95.1276 49.8846 95.1594C47.9931 97.2227 48.0021 100.417 49.9291 102.478C49.973 102.518 50.016 102.559 50.0583 102.602C52.1562 104.699 55.5535 104.699 57.6514 102.602L64.9008 95.3516C66.4629 93.7895 68.9955 93.7894 70.5577 95.3514C72.1199 96.9134 72.1199 99.4461 70.5579 101.008L63.3084 108.258L63.3083 108.258C61.2539 110.313 61.2078 113.63 63.1886 115.748C63.2325 115.788 63.2756 115.829 63.3178 115.871C65.4157 117.969 68.813 117.969 70.9109 115.871L78.0909 108.691C78.0964 108.686 78.1019 108.681 78.1074 108.675C78.1151 108.667 78.1229 108.66 78.1306 108.652L78.1814 108.602C79.7435 107.039 82.2762 107.039 83.8383 108.602C85.4004 110.164 85.4004 112.696 83.8383 114.258L76.5783 121.518C74.5242 123.573 74.478 126.889 76.4591 129.008C76.503 129.048 76.546 129.089 76.5883 129.132C78.6862 131.229 82.0835 131.229 84.1814 129.132L98.4241 114.889C98.4363 114.876 98.4486 114.864 98.4609 114.852L132.341 80.9716C137.029 76.2837 137.029 68.6863 132.341 63.9984L101.911 33.5684C97.5954 29.2528 90.8141 28.9101 86.1069 32.5402ZM28.1253 80.6686C28.7771 78.9938 29.779 77.4239 31.1314 76.0716L64.1367 43.0662C64.1896 43.0068 64.2444 42.9485 64.3014 42.8916C65.0847 42.1082 66.1121 41.7177 67.1388 41.72C68.1628 41.7197 69.187 42.1102 69.9683 42.8916C70.0252 42.9485 70.08 43.0067 70.1328 43.0661L87.5283 60.4616C89.6262 62.5595 93.0235 62.5595 95.1214 60.4616C97.2193 58.3637 97.2193 54.9663 95.1214 52.8684L77.5514 35.2984C77.4412 35.1881 77.3387 35.073 77.244 34.9538C77.1432 34.871 77.0456 34.7825 76.9514 34.6884L75.0714 32.8084C70.3835 28.1205 62.7862 28.1205 58.0983 32.8084L27.6683 63.2384C22.9804 67.9263 22.9804 75.5237 27.6683 80.2116L28.1253 80.6686Z" fill="var(--spectrum-global-color-gray-800, #292929)"/>
</svg>
