<svg width="48" height="49" viewBox="0 0 48 49" xmlns="http://www.w3.org/2000/svg">
<path fill-rule="evenodd" d="M16.7273 7.49023C14.5375 7.49023 12.75 9.25707 12.75 11.4518V29.5287C12.75 31.7234 14.5375 33.4902 16.7273 33.4902H16.7557H16.7841H16.8125H16.8409H16.8693H16.8977H16.9261H16.9545H16.983H17.0114H17.0398H17.0682H17.0966H17.125H17.1534H17.1818H17.2102H17.2386H17.267H17.2955H17.3239H17.3523H17.3807H17.4091H17.4375H17.4659H17.4943H17.5227H17.5511H17.5795H17.608H17.6364H17.6648H17.6932H17.7216H17.75H17.7784H17.8068H17.8352H17.8636H17.892H17.9205H17.9489H17.9773H18.0057H18.0341H18.0625H18.0909H18.1193H18.1477H18.1761H18.2045H18.233H18.2614H18.2898H18.3182H18.3466H18.375H18.4034H18.4318H18.4602H18.4886H18.517H18.5455H18.5739H18.6023H18.6307H18.6591H18.6875H18.7159H18.7443H18.7727H18.8011H18.8295H18.858H18.8864H18.9148H18.9432H18.9716H19H19.0284H19.0568H19.0852H19.1136H19.142H19.1705H19.1989H19.2273H19.2557H19.2841H19.3125H19.3409H19.3693H19.3977H19.4261H19.4545H19.483H19.5114H19.5398H19.5682H19.5966H19.625H19.6534H19.6818H19.7102H19.7386H19.767H19.7955H19.8239H19.8523H19.8807H19.9091H19.9375H19.9659H19.9943H20.0227H20.0511H20.0795H20.108H20.1364H20.1648H20.1932H20.2216H20.25H20.2784H20.3068H20.3352H20.3636H20.392H20.4205H20.4489H20.4773H20.5057H20.5341H20.5625H20.5909H20.6193H20.6477H20.6761H20.7045H20.733H20.7614H20.7898H20.8182H20.8466H20.875H20.9034H20.9318H20.9602H20.9886H21.017H21.0455H21.0739H21.1023H21.1307H21.1591H21.1875H21.2159H21.2443H21.2727H21.3011H21.3295H21.358H21.3864H21.4148H21.4432H21.4716H21.5H21.5284H21.5568H21.5852H21.6136H21.642H21.6705H21.6989H21.7273H21.7557H21.7841H21.8125H21.8409H21.8693H21.8977H21.9261H21.9545H21.983H22.0114H22.0398H22.0682H22.0966H22.125H22.1534H22.1818H22.2102H22.2386H22.267H22.2955H22.3239H22.3523H22.3807H22.4091H22.4375H22.4659H22.4943H22.5227H22.5511H22.5795H22.608H22.6364H22.6648H22.6932H22.7216H22.75H22.7784H22.8068H22.8352H22.8636H22.892H22.9205H22.9489H22.9773H23.0057H23.0341H23.0625H23.0909H23.1193H23.1477H23.1761H23.2045H23.233H23.2614H23.2898H23.3182H23.3466H23.375H23.4034H23.4318H23.4602H23.4886H23.517H23.5455H23.5739H23.6023H23.6307H23.6591H23.6875H23.7159H23.7443H23.7727H23.8011H23.8295H23.858H23.8864H23.9148H23.9432H23.9716H24H24.0284H24.0568H24.0852H24.1136H24.142H24.1705H24.1989H24.2273H24.2557H24.2841H24.3125H24.3409H24.3693H24.3977H24.4261H24.4545H24.483H24.5114H24.5398H24.5682H24.5966H24.625H24.6534H24.6818H24.7102H24.7386H24.767H24.7955H24.8239H24.8523H24.8807H24.9091H24.9375H24.9659H24.9943H25.0227H25.0511H25.0795H25.108H25.1364H25.1648H25.1932H25.2216H25.25H25.2784H25.3068H25.3352H25.3636H25.392H25.4205H25.4489H25.4773H25.5057H25.5341H25.5625H25.5909H25.6193H25.6477H25.6761H25.7045H25.733H25.7614H25.7898H25.8182H25.8466H25.875H25.9034H25.9318H25.9602H25.9886H26.017H26.0455H26.0739H26.1023H26.1307H26.1591H26.1875H26.2159H26.2443H26.2727H26.3011H26.3295H26.358H26.3864H26.4148H26.4432H26.4716H26.5H26.5284H26.5568H26.5852H26.6136H26.642H26.6705H26.6989H26.7273H26.7557H26.7841H26.8125H26.8409H26.8693H26.8977H26.9261H26.9545H26.983H27.0114H27.0398H27.0682H27.0966H27.125H27.1534H27.1818H27.2102H27.2386H27.267H27.2955H27.3239H27.3523H27.3807H27.4091H27.4375H27.4659H27.4943H27.5227H27.5511H27.5795H27.608H27.6364H27.6648H27.6932H27.7216H27.75H27.7784H27.8068H27.8352H27.8636H27.892H27.9205H27.9489H27.9773H28.0057H28.0341H28.0625H28.0909H28.1193H28.1477H28.1761H28.2045H28.233H28.2614H28.2898H28.3182H28.3466H28.375H28.4034H28.4318H28.4602H28.4886H28.517H28.5455H28.5739H28.6023H28.6307H28.6591H28.6875H28.7159H28.7443H28.7727H28.8011H28.8295H28.858H28.8864H28.9148H28.9432H28.9716H29H29.0284H29.0568H29.0852H29.1136H29.142H29.1705H29.1989H29.2273H29.2557H29.2841H29.3125H29.3409H29.3693H29.3977H29.4261H29.4545H29.483H29.5114H29.5398H29.5682H29.5966H29.625H29.6534H29.6818H29.7102H29.7386H29.767H29.7955H29.8239H29.8523H29.8807H29.9091H29.9375H29.9659H29.9943H30.0227H30.0511H30.0795H30.108H30.1364H30.1648H30.1932H30.2216H30.25H30.2784H30.3068H30.3352H30.3636H30.392H30.4205H30.4489H30.4773H30.5057H30.5341H30.5625H30.5909H30.6193H30.6477H30.6761H30.7045H30.733H30.7614H30.7898H30.8182H30.8466H30.875H30.9034H30.9318H30.9602H30.9886H31.017H31.0455H31.0739H31.1023H31.1307H31.1591H31.1875H31.2159H31.2443H31.2727C33.4625 33.4902 35.25 31.7234 35.25 29.5287V18.9019C35.25 17.8488 34.8292 16.8404 34.0825 16.0981L26.5892 8.64799C25.8428 7.90586 24.8319 7.49023 23.7794 7.49023H16.7273ZM15.25 11.4518C15.25 10.6514 15.9046 9.99023 16.7273 9.99023H23.7794C24.1735 9.99023 24.5501 10.146 24.8266 10.4209L32.3199 17.8709C32.5961 18.1456 32.75 18.5166 32.75 18.9019V29.5287C32.75 30.3291 32.0954 30.9902 31.2727 30.9902H31.2443H31.2159H31.1875H31.1591H31.1307H31.1023H31.0739H31.0455H31.017H30.9886H30.9602H30.9318H30.9034H30.875H30.8466H30.8182H30.7898H30.7614H30.733H30.7045H30.6761H30.6477H30.6193H30.5909H30.5625H30.5341H30.5057H30.4773H30.4489H30.4205H30.392H30.3636H30.3352H30.3068H30.2784H30.25H30.2216H30.1932H30.1648H30.1364H30.108H30.0795H30.0511H30.0227H29.9943H29.9659H29.9375H29.9091H29.8807H29.8523H29.8239H29.7955H29.767H29.7386H29.7102H29.6818H29.6534H29.625H29.5966H29.5682H29.5398H29.5114H29.483H29.4545H29.4261H29.3977H29.3693H29.3409H29.3125H29.2841H29.2557H29.2273H29.1989H29.1705H29.142H29.1136H29.0852H29.0568H29.0284H29H28.9716H28.9432H28.9148H28.8864H28.858H28.8295H28.8011H28.7727H28.7443H28.7159H28.6875H28.6591H28.6307H28.6023H28.5739H28.5455H28.517H28.4886H28.4602H28.4318H28.4034H28.375H28.3466H28.3182H28.2898H28.2614H28.233H28.2045H28.1761H28.1477H28.1193H28.0909H28.0625H28.0341H28.0057H27.9773H27.9489H27.9205H27.892H27.8636H27.8352H27.8068H27.7784H27.75H27.7216H27.6932H27.6648H27.6364H27.608H27.5795H27.5511H27.5227H27.4943H27.4659H27.4375H27.4091H27.3807H27.3523H27.3239H27.2955H27.267H27.2386H27.2102H27.1818H27.1534H27.125H27.0966H27.0682H27.0398H27.0114H26.983H26.9545H26.9261H26.8977H26.8693H26.8409H26.8125H26.7841H26.7557H26.7273H26.6989H26.6705H26.642H26.6136H26.5852H26.5568H26.5284H26.5H26.4716H26.4432H26.4148H26.3864H26.358H26.3295H26.3011H26.2727H26.2443H26.2159H26.1875H26.1591H26.1307H26.1023H26.0739H26.0455H26.017H25.9886H25.9602H25.9318H25.9034H25.875H25.8466H25.8182H25.7898H25.7614H25.733H25.7045H25.6761H25.6477H25.6193H25.5909H25.5625H25.5341H25.5057H25.4773H25.4489H25.4205H25.392H25.3636H25.3352H25.3068H25.2784H25.25H25.2216H25.1932H25.1648H25.1364H25.108H25.0795H25.0511H25.0227H24.9943H24.9659H24.9375H24.9091H24.8807H24.8523H24.8239H24.7955H24.767H24.7386H24.7102H24.6818H24.6534H24.625H24.5966H24.5682H24.5398H24.5114H24.483H24.4545H24.4261H24.3977H24.3693H24.3409H24.3125H24.2841H24.2557H24.2273H24.1989H24.1705H24.142H24.1136H24.0852H24.0568H24.0284H24H23.9716H23.9432H23.9148H23.8864H23.858H23.8295H23.8011H23.7727H23.7443H23.7159H23.6875H23.6591H23.6307H23.6023H23.5739H23.5455H23.517H23.4886H23.4602H23.4318H23.4034H23.375H23.3466H23.3182H23.2898H23.2614H23.233H23.2045H23.1761H23.1477H23.1193H23.0909H23.0625H23.0341H23.0057H22.9773H22.9489H22.9205H22.892H22.8636H22.8352H22.8068H22.7784H22.75H22.7216H22.6932H22.6648H22.6364H22.608H22.5795H22.5511H22.5227H22.4943H22.4659H22.4375H22.4091H22.3807H22.3523H22.3239H22.2955H22.267H22.2386H22.2102H22.1818H22.1534H22.125H22.0966H22.0682H22.0398H22.0114H21.983H21.9545H21.9261H21.8977H21.8693H21.8409H21.8125H21.7841H21.7557H21.7273H21.6989H21.6705H21.642H21.6136H21.5852H21.5568H21.5284H21.5H21.4716H21.4432H21.4148H21.3864H21.358H21.3295H21.3011H21.2727H21.2443H21.2159H21.1875H21.1591H21.1307H21.1023H21.0739H21.0455H21.017H20.9886H20.9602H20.9318H20.9034H20.875H20.8466H20.8182H20.7898H20.7614H20.733H20.7045H20.6761H20.6477H20.6193H20.5909H20.5625H20.5341H20.5057H20.4773H20.4489H20.4205H20.392H20.3636H20.3352H20.3068H20.2784H20.25H20.2216H20.1932H20.1648H20.1364H20.108H20.0795H20.0511H20.0227H19.9943H19.9659H19.9375H19.9091H19.8807H19.8523H19.8239H19.7955H19.767H19.7386H19.7102H19.6818H19.6534H19.625H19.5966H19.5682H19.5398H19.5114H19.483H19.4545H19.4261H19.3977H19.3693H19.3409H19.3125H19.2841H19.2557H19.2273H19.1989H19.1705H19.142H19.1136H19.0852H19.0568H19.0284H19H18.9716H18.9432H18.9148H18.8864H18.858H18.8295H18.8011H18.7727H18.7443H18.7159H18.6875H18.6591H18.6307H18.6023H18.5739H18.5455H18.517H18.4886H18.4602H18.4318H18.4034H18.375H18.3466H18.3182H18.2898H18.2614H18.233H18.2045H18.1761H18.1477H18.1193H18.0909H18.0625H18.0341H18.0057H17.9773H17.9489H17.9205H17.892H17.8636H17.8352H17.8068H17.7784H17.75H17.7216H17.6932H17.6648H17.6364H17.608H17.5795H17.5511H17.5227H17.4943H17.4659H17.4375H17.4091H17.3807H17.3523H17.3239H17.2955H17.267H17.2386H17.2102H17.1818H17.1534H17.125H17.0966H17.0682H17.0398H17.0114H16.983H16.9545H16.9261H16.8977H16.8693H16.8409H16.8125H16.7841H16.7557H16.7273C15.9046 30.9902 15.25 30.3291 15.25 29.5287V11.4518ZM20.0412 22.2725C19.5067 21.8355 18.7192 21.9146 18.2823 22.4491C17.8453 22.9835 17.9243 23.771 18.4588 24.208L22.5501 27.5528C22.7787 27.8198 23.1181 27.9894 23.4973 27.9902L23.5156 27.9901C23.8042 27.9937 24.0937 27.8977 24.3292 27.7023L28.5481 24.2023C29.0794 23.7615 29.1528 22.9734 28.712 22.4421C28.2713 21.9108 27.4832 21.8374 26.9519 22.2782L24.7558 24.1001L24.7718 16.743C24.7734 16.0526 24.2149 15.4917 23.5246 15.4902C22.8342 15.4887 22.2734 16.0471 22.2719 16.7375L22.2558 24.083L20.0412 22.2725ZM13.5 37.4902C12.8096 37.4902 12.25 38.0499 12.25 38.7402C12.25 39.4306 12.8096 39.9902 13.5 39.9902H17.25C17.9404 39.9902 18.5 39.4306 18.5 38.7402C18.5 38.0499 17.9404 37.4902 17.25 37.4902H13.5ZM6 32.9902C5.30964 32.9902 4.75 32.4306 4.75 31.7402V28.7402C4.75 28.0499 5.30964 27.4902 6 27.4902C6.69036 27.4902 7.25 28.0499 7.25 28.7402L7.25 31.7402C7.25 32.4306 6.69036 32.9902 6 32.9902ZM40.75 31.7402C40.75 32.4306 41.3096 32.9902 42 32.9902C42.6904 32.9902 43.25 32.4306 43.25 31.7402V28.7402C43.25 28.0499 42.6904 27.4902 42 27.4902C41.3096 27.4902 40.75 28.0499 40.75 28.7402V31.7402ZM10.75 21.2402C10.75 20.5499 10.1904 19.9902 9.5 19.9902H7.75C6.09315 19.9902 4.75 21.3334 4.75 22.9902V24.7402C4.75 25.4306 5.30964 25.9902 6 25.9902C6.69036 25.9902 7.25 25.4306 7.25 24.7402V22.9902C7.25 22.7141 7.47386 22.4902 7.75 22.4902H9.5C10.1904 22.4902 10.75 21.9306 10.75 21.2402ZM38.5 19.9902C37.8096 19.9902 37.25 20.5499 37.25 21.2402C37.25 21.9306 37.8096 22.4902 38.5 22.4902H40.25C40.5261 22.4902 40.75 22.7141 40.75 22.9902V24.7402C40.75 25.4306 41.3096 25.9902 42 25.9902C42.6904 25.9902 43.25 25.4306 43.25 24.7402V22.9902C43.25 21.3334 41.9069 19.9902 40.25 19.9902H38.5ZM6 33.9902C5.30964 33.9902 4.75 34.5499 4.75 35.2402V36.9902C4.75 38.6471 6.09315 39.9902 7.75 39.9902H9.5C10.1904 39.9902 10.75 39.4306 10.75 38.7402C10.75 38.0499 10.1904 37.4902 9.5 37.4902H7.75C7.47386 37.4902 7.25 37.2664 7.25 36.9902V35.2402C7.25 34.5499 6.69036 33.9902 6 33.9902ZM43.25 35.2402C43.25 34.5499 42.6904 33.9902 42 33.9902C41.3096 33.9902 40.75 34.5499 40.75 35.2402V36.9902C40.75 37.2664 40.5261 37.4902 40.25 37.4902H38.5C37.8096 37.4902 37.25 38.0499 37.25 38.7402C37.25 39.4306 37.8096 39.9902 38.5 39.9902H40.25C41.9069 39.9902 43.25 38.6471 43.25 36.9902V35.2402ZM20.75 38.7402C20.75 38.0499 21.3096 37.4902 22 37.4902H25.75C26.4404 37.4902 27 38.0499 27 38.7402C27 39.4306 26.4404 39.9902 25.75 39.9902H22C21.3096 39.9902 20.75 39.4306 20.75 38.7402ZM30.5 37.4902C29.8096 37.4902 29.25 38.0499 29.25 38.7402C29.25 39.4306 29.8096 39.9902 30.5 39.9902H34.25C34.9404 39.9902 35.5 39.4306 35.5 38.7402C35.5 38.0499 34.9404 37.4902 34.25 37.4902H30.5Z" fill="var(--spectrum-global-color-gray-800, #292929)"/>
</svg>
