<svg width="160" height="160" viewBox="0 0 160 160" xmlns="http://www.w3.org/2000/svg">
<path fill-rule="evenodd" d="M66.1444 26.7429C72.2949 16.0695 87.696 16.0763 93.854 26.7396L93.8543 26.7401L142.924 111.74L142.924 111.74C149.083 122.406 141.39 135.74 129.07 135.74H30.9201C18.5997 135.74 10.9069 122.406 17.0661 111.74L17.0662 111.74L66.1444 26.7429ZM86.9259 30.7398C83.8437 25.4036 76.1452 25.4107 73.0759 30.7371L73.0741 30.7402L23.9941 115.74L23.994 115.74C20.9135 121.075 24.7606 127.74 30.9201 127.74H129.07C135.23 127.74 139.077 121.075 135.996 115.74L135.996 115.74L86.9262 30.7404L86.9259 30.7398ZM80 48.74C82.2092 48.74 84 50.5309 84 52.74V91.74C84 93.9491 82.2092 95.74 80 95.74C77.7909 95.74 76 93.9491 76 91.74V52.74C76 50.5309 77.7909 48.74 80 48.74ZM86 107.74C86 111.054 83.3137 113.74 80 113.74C76.6863 113.74 74 111.054 74 107.74C74 104.426 76.6863 101.74 80 101.74C83.3137 101.74 86 104.426 86 107.74Z" fill="var(--spectrum-global-color-gray-800, #292929)"/>
</svg>
