<svg width="48" height="48" viewBox="0 0 48 48" xmlns="http://www.w3.org/2000/svg">
<path fill-rule="evenodd" d="M20.9631 9.52588C21.3779 7.65435 23.0419 6.25 25.0397 6.25C26.573 6.25 27.9097 7.07727 28.6359 8.3081C29.2871 7.88645 30.0632 7.64149 30.8976 7.64149C33.2101 7.64149 35.0751 9.52098 35.0751 11.8297V14.1159C35.9173 13.6409 36.9198 13.4819 37.8474 13.6641C39.7723 14.0421 41.0524 15.7934 40.8183 18.0065C40.8167 18.0217 40.8148 18.0368 40.8127 18.0519L39.5452 26.9159C39.5345 26.9902 39.5175 27.0621 39.4948 27.1312C38.4593 32.7216 36.7262 36.4167 34.2617 38.7055C31.7288 41.0579 28.6151 41.75 25.2805 41.75C22.753 41.75 20.3904 40.6676 18.3295 39.1864C16.262 37.7003 14.4036 35.7456 12.8572 33.8347C11.3061 31.9181 10.0388 30.0079 9.16051 28.5804C8.72056 27.8654 8.37628 27.2683 8.14088 26.8478C8.02314 26.6375 7.93252 26.4711 7.87067 26.3561C7.83974 26.2986 7.816 26.2539 7.79965 26.2229L7.78622 26.1973C6.78782 24.4427 6.89072 22.1143 8.71476 20.7439C10.4734 19.4227 12.9625 19.7644 14.3027 21.5068L14.3028 21.5069L15.0057 22.421V13.3153C15.0057 11.0069 16.8703 9.12703 19.1817 9.12703C19.8195 9.12703 20.4232 9.27014 20.9631 9.52588ZM9.99257 25.0216L9.99295 25.0223L9.99611 25.0284L10.0107 25.0562C10.0241 25.0816 10.0448 25.1206 10.0726 25.1722C10.1281 25.2755 10.2119 25.4293 10.3223 25.6265C10.5432 26.0211 10.8701 26.5882 11.2898 27.2704C12.1307 28.6372 13.3365 30.4529 14.8006 32.262C16.2694 34.077 17.9684 35.8481 19.7886 37.1564C21.6155 38.4694 23.471 39.25 25.2805 39.25C28.2752 39.25 30.6664 38.6327 32.5604 36.8737C34.4882 35.0833 36.0902 31.9368 37.0775 26.4518C37.084 26.4161 37.0919 26.3809 37.1012 26.3465L38.3343 17.7228C38.4348 16.7001 37.9087 16.2239 37.3656 16.1172C36.5415 15.9553 35.7209 16.4519 35.6282 17.3995L35.6264 17.4169L35.3468 19.9124L35.0673 22.408C34.9935 23.0672 34.4177 23.5539 33.7554 23.5169C33.0932 23.4799 32.5751 22.9321 32.5751 22.2689V11.8297C32.5751 10.8927 31.8204 10.1415 30.8976 10.1415C29.9767 10.1415 29.2216 10.8923 29.2216 11.8297V21.5373C29.2216 22.2276 28.662 22.7873 27.9716 22.7873H27.9657C27.2753 22.7873 26.7157 22.2276 26.7157 21.5373V10.4382C26.7157 9.50077 25.9605 8.75 25.0397 8.75C24.1188 8.75 23.3637 9.50077 23.3637 10.4382V21.5358C23.3637 22.2261 22.804 22.7858 22.1137 22.7858H22.1077C21.4174 22.7858 20.8577 22.2261 20.8577 21.5358V13.3153C20.8577 12.3778 20.1026 11.627 19.1817 11.627C18.2609 11.627 17.5057 12.3778 17.5057 13.3153V26.0969C17.5057 26.6322 17.1649 27.1081 16.6582 27.2804C16.1514 27.4527 15.5912 27.2832 15.2649 26.8589L12.3211 23.031C12.3211 23.0309 12.321 23.0309 12.321 23.0309C11.8146 22.3726 10.8782 22.2455 10.2164 22.7427C9.62818 23.1846 9.42612 24.0363 9.96576 24.9726C9.975 24.9886 9.98389 25.0049 9.99241 25.0213" fill="var(--spectrum-global-color-gray-800, #292929)"/>
</svg>
