<svg width="96" height="97" viewBox="0 0 96 97" xmlns="http://www.w3.org/2000/svg">
<path fill-rule="evenodd" d="M78.9997 48.4922C78.9997 31.3714 65.1205 17.4922 47.9997 17.4922C35.8114 17.4922 25.2619 24.5269 20.1973 34.7631L29.9315 31.633C30.983 31.2949 32.1096 31.8732 32.4477 32.9248C32.7858 33.9763 32.2075 35.1029 31.156 35.441L17.0995 39.9609C16.0479 40.299 14.9214 39.7207 14.5833 38.6692L10.0633 24.6127C9.72522 23.5611 10.3036 22.4346 11.3551 22.0965C12.4066 21.7583 13.5332 22.3367 13.8713 23.3882L16.8236 32.5694C22.618 21.2466 34.4012 13.4922 47.9997 13.4922C67.3297 13.4922 82.9997 29.1622 82.9997 48.4922C82.9997 67.8221 67.3297 83.4922 47.9997 83.4922C32.8822 83.4922 20.0081 73.9087 15.1116 60.4921C14.7329 59.4545 15.267 58.3064 16.3047 57.9277C17.3423 57.549 18.4904 58.0831 18.8691 59.1208C23.2081 71.0096 34.6158 79.4922 47.9997 79.4922C65.1205 79.4922 78.9997 65.613 78.9997 48.4922Z" fill="var(--spectrum-global-color-gray-800, #292929)"/>
</svg>
