<svg width="160" height="160" viewBox="0 0 160 160" xmlns="http://www.w3.org/2000/svg">
<path fill-rule="evenodd" d="M79.0235 20C70.1869 19.9895 63.0149 27.1443 63.0044 35.9809L59.0044 35.9761C58.8562 35.9759 58.7088 35.984 58.5629 36H46.4091C37.3055 36 30 43.449 30 52.5455V119.455C30 128.551 37.3055 136 46.4091 136H112.591C121.695 136 129 128.551 129 119.455V52.5455C129 43.449 121.695 36 112.591 36H95.0043C95.0046 27.1722 87.8537 20.0106 79.0235 20ZM102.995 44L102.98 56.0287C102.979 57.0895 102.557 58.1065 101.805 58.8557C101.054 59.605 100.037 60.0252 98.9757 60.0239L58.9757 59.9761C56.7666 59.9734 54.9778 58.1804 54.9805 55.9713L54.9948 44H46.4091C41.806 44 38 47.7846 38 52.5455V119.455C38 124.215 41.806 128 46.4091 128H112.591C117.194 128 121 124.215 121 119.455V52.5455C121 47.7846 117.194 44 112.591 44H102.995ZM62.9948 44L62.9852 51.9809L94.9852 52.0191L94.9948 44.0191L90.9948 44.0143C88.7856 44.0117 86.9969 42.2187 86.9996 40.0096L87.0043 36.0096C87.0096 31.5913 83.4322 28.0053 79.0139 28C74.5956 27.9947 71.0096 31.5721 71.0044 35.9904L70.9996 39.9904C70.9969 42.1996 69.2039 43.9883 66.9948 43.9857L66.0568 43.9845V44H62.9948Z" fill="var(--spectrum-global-color-gray-800, #292929)"/>
</svg>
