<svg width="96" height="97" viewBox="0 0 96 97" xmlns="http://www.w3.org/2000/svg">
<path fill-rule="evenodd" d="M79.4401 21.3061C80.1255 22.1724 79.9788 23.4302 79.1125 24.1155L56.0161 42.3873C55.3972 42.8769 54.5483 42.9568 53.8489 42.5913L39.1313 34.9002L19.4226 51.6168C18.5803 52.3313 17.3182 52.2276 16.6037 51.3852C15.8892 50.5429 15.9929 49.2808 16.8353 48.5663L37.5707 30.9788C38.1914 30.4523 39.0693 30.3545 39.7907 30.7315L54.5518 38.4454L76.6308 20.9784C77.497 20.2931 78.7548 20.4398 79.4401 21.3061ZM33.7593 52.3496C33.7593 49.3175 36.2173 46.8595 39.2494 46.8595C42.2816 46.8595 44.7396 49.3175 44.7396 52.3496V70.9465C44.7396 73.9786 42.2815 76.4366 39.2494 76.4366C36.2173 76.4366 33.7593 73.9786 33.7593 70.9465V52.3496ZM39.2494 50.8595C38.4265 50.8595 37.7593 51.5266 37.7593 52.3496V70.9465C37.7593 71.7694 38.4265 72.4366 39.2494 72.4366C40.0724 72.4366 40.7396 71.7694 40.7396 70.9465V52.3496C40.7396 51.5266 40.0724 50.8595 39.2494 50.8595ZM56.7577 50.2833C53.7256 50.2833 51.2676 52.7413 51.2676 55.7734V70.9486C51.2676 73.9807 53.7256 76.4387 56.7577 76.4387C59.7898 76.4387 62.2479 73.9807 62.2479 70.9486V55.7734C62.2479 52.7413 59.7899 50.2833 56.7577 50.2833ZM55.2676 55.7734C55.2676 54.9504 55.9348 54.2833 56.7577 54.2833C57.5807 54.2833 58.2479 54.9504 58.2479 55.7734V70.9486C58.2479 71.7716 57.5807 72.4387 56.7577 72.4387C55.9348 72.4387 55.2676 71.7716 55.2676 70.9486V55.7734ZM68.7759 43.7285C68.7759 40.6964 71.2339 38.2384 74.266 38.2384C77.2982 38.2384 79.7562 40.6964 79.7562 43.7285V70.948C79.7562 73.9801 77.2981 76.4381 74.266 76.4381C71.2339 76.4381 68.7759 73.9801 68.7759 70.948V43.7285ZM74.266 42.2384C73.4431 42.2384 72.7759 42.9055 72.7759 43.7285V70.948C72.7759 71.771 73.4431 72.4381 74.266 72.4381C75.089 72.4381 75.7562 71.771 75.7562 70.948V43.7285C75.7562 42.9055 75.089 42.2384 74.266 42.2384ZM21.7407 57.0567C18.7085 57.0567 16.2505 59.5147 16.2505 62.5468V70.9471C16.2505 73.9792 18.7085 76.4372 21.7407 76.4372C24.7728 76.4372 27.2308 73.9792 27.2308 70.9471V62.5468C27.2308 59.5147 24.7728 57.0567 21.7407 57.0567ZM20.2505 62.5468C20.2505 61.7239 20.9177 61.0567 21.7407 61.0567C22.5636 61.0567 23.2308 61.7239 23.2308 62.5468V70.9471C23.2308 71.7701 22.5636 72.4372 21.7407 72.4372C20.9177 72.4372 20.2505 71.7701 20.2505 70.9471V62.5468Z" fill="var(--spectrum-global-color-gray-800, #292929)"/>
</svg>
