<svg width="96" height="96" viewBox="0 0 96 96" xmlns="http://www.w3.org/2000/svg">
<path fill-rule="evenodd" d="M51.5739 13.7497C49.6131 12.7345 47.2814 12.7345 45.3206 13.7497L17.6582 28.0728C15.4017 29.2412 13.9849 31.5703 13.9849 34.1114V61.8885C13.9849 64.4296 15.4017 66.7586 17.6582 67.927L45.3206 82.2501C47.2814 83.2654 49.6131 83.2654 51.5739 82.2501L79.2363 67.927C81.4929 66.7586 82.9097 64.4296 82.9097 61.8885V34.1114C82.9097 31.5703 81.4929 29.2412 79.2363 28.0728L51.5739 13.7497ZM47.1598 17.3018C47.9672 16.8838 48.9273 16.8838 49.7347 17.3018L77.3971 31.6249C78.3263 32.106 78.9097 33.0651 78.9097 34.1114V61.8885C78.9097 62.9348 78.3263 63.8938 77.3971 64.3749L49.7347 78.698C48.9273 79.1161 47.9672 79.1161 47.1598 78.698L19.4974 64.3749C18.5683 63.8938 17.9849 62.9348 17.9849 61.8885V34.1114C17.9849 33.0651 18.5683 32.106 19.4974 31.6249L47.1598 17.3018ZM58.6455 38.1169L58.6459 38.1177L66.1245 51.0698L66.1249 51.0706C67.8083 53.9891 65.7096 57.6398 62.3338 57.6398H47.3758C44 57.6398 41.9013 53.9891 43.5846 51.0706L43.5847 51.0704L51.0577 38.1177L51.0578 38.1175C52.7436 35.195 56.9593 35.1948 58.6455 38.1169ZM55.181 40.1162C55.0343 39.8619 54.6693 39.8619 54.5226 40.1162L54.5225 40.1164L47.0496 53.0691L47.0494 53.0693C46.9004 53.3281 47.0865 53.6398 47.3758 53.6398H62.3338C62.6229 53.6398 62.8089 53.3284 62.6603 53.0697L62.66 53.0691L55.1814 40.117L55.181 40.1162ZM41.1054 39.5627C42.062 40.115 42.3896 41.3382 41.8373 42.2948L33.1207 57.3896C32.5683 58.3462 31.3451 58.6738 30.3886 58.1215C29.432 57.5691 29.1044 56.3459 29.6567 55.3894L38.3733 40.2945C38.9257 39.338 40.1489 39.0103 41.1054 39.5627Z" fill="var(--spectrum-global-color-gray-800, #292929)"/>
</svg>
