<svg width="96" height="96" viewBox="0 0 96 96" xmlns="http://www.w3.org/2000/svg">
<path fill-rule="evenodd" d="M74.5932 16.4832C75.1198 15.498 76.1548 14.834 77.3422 14.834C79.0619 14.834 80.4561 16.2281 80.4561 17.9479C80.4561 18.5875 80.2651 19.1773 79.9373 19.6697C79.4018 20.4743 79.62 21.5607 80.4246 22.0962C81.2291 22.6317 82.3155 22.4135 82.851 21.6089C83.5492 20.5599 83.9561 19.2987 83.9561 17.9479C83.9561 14.2951 80.9949 11.334 77.3422 11.334C74.8126 11.334 72.6176 12.7546 71.5065 14.8333C71.0508 15.6856 71.3725 16.746 72.2248 17.2016C73.0772 17.6572 74.1375 17.3356 74.5932 16.4832ZM68.8839 24.3848C66.4213 24.3848 64.2776 25.7637 63.1886 27.801C62.6679 28.7752 61.4561 29.1427 60.482 28.622C59.5078 28.1013 59.1403 26.8895 59.661 25.9154C61.418 22.6284 64.8874 20.3848 68.8839 20.3848C74.6565 20.3848 79.3361 25.0644 79.3361 30.837C79.3361 32.9729 78.6933 34.9648 77.5902 36.6222C76.9782 37.5417 75.7367 37.791 74.8171 37.179C73.8976 36.567 73.6483 35.3255 74.2603 34.406C74.94 33.3847 75.3361 32.1602 75.3361 30.837C75.3361 27.2735 72.4474 24.3848 68.8839 24.3848ZM48.3277 40.0506C50.2876 37.6794 53.2448 36.1738 56.5553 36.1738C62.4471 36.1738 67.2233 40.9501 67.2233 46.8419C67.2233 51.5025 64.2334 55.47 60.0611 56.9211C59.0178 57.2839 58.4662 58.4238 58.829 59.467C59.1918 60.5103 60.3317 61.0619 61.375 60.6991C67.1057 58.7061 71.2233 53.2574 71.2233 46.8419C71.2233 38.7409 64.6562 32.1738 56.5553 32.1738C52.0018 32.1738 47.9318 34.2511 45.2446 37.5022C44.5408 38.3536 44.6606 39.6142 45.5119 40.318C46.3633 41.0217 47.624 40.902 48.3277 40.0506ZM15.7949 63.9864C15.7949 54.6363 23.3746 47.0566 32.7247 47.0566C42.0747 47.0566 49.6544 54.6363 49.6544 63.9864C49.6544 73.3364 42.0747 80.9161 32.7247 80.9161C23.3746 80.9161 15.7949 73.3364 15.7949 63.9864ZM32.7247 43.0566C21.1655 43.0566 11.7949 52.4272 11.7949 63.9864C11.7949 75.5456 21.1655 84.9161 32.7247 84.9161C44.2838 84.9161 53.6544 75.5456 53.6544 63.9864C53.6544 52.4272 44.2838 43.0566 32.7247 43.0566Z" fill="var(--spectrum-global-color-gray-800, #292929)"/>
</svg>
