<svg width="96" height="96" viewBox="0 0 96 96" xmlns="http://www.w3.org/2000/svg">
<path fill-rule="evenodd" d="M25 27C25 23.6863 27.6863 21 31 21H39C42.3137 21 45 23.6863 45 27V69C45 72.3137 42.3137 75 39 75H31C27.6863 75 25 72.3137 25 69V27ZM31 25C29.8954 25 29 25.8954 29 27V69C29 70.1046 29.8954 71 31 71H39C40.1046 71 41 70.1046 41 69V27C41 25.8954 40.1046 25 39 25H31ZM52 27C52 23.6863 54.6863 21 58 21H66C69.3137 21 72 23.6863 72 27V69C72 72.3137 69.3137 75 66 75H58C54.6863 75 52 72.3137 52 69V27ZM58 25C56.8954 25 56 25.8954 56 27V69C56 70.1046 56.8954 71 58 71H66C67.1046 71 68 70.1046 68 69V27C68 25.8954 67.1046 25 66 25H58Z" fill="var(--spectrum-global-color-gray-800, #292929)"/>
</svg>
