<svg width="48" height="48" viewBox="0 0 48 48" xmlns="http://www.w3.org/2000/svg">
<path fill-rule="evenodd" d="M19.5942 14C18.0755 14 16.8442 15.2312 16.8442 16.75C16.8442 18.2688 18.0755 19.5 19.5942 19.5C21.113 19.5 22.3442 18.2688 22.3442 16.75C22.3442 15.2312 21.113 14 19.5942 14ZM9.125 15.5H14.494C15.0547 13.204 17.1255 11.5 19.5942 11.5C22.063 11.5 24.1337 13.204 24.6945 15.5L38.8751 15.5C39.5655 15.5 40.1251 16.0596 40.1251 16.75C40.1251 17.4404 39.5655 18 38.8751 18L24.6945 18C24.1337 20.296 22.063 22 19.5942 22C17.1255 22 15.0547 20.296 14.494 18H9.125C8.43464 18 7.875 17.4404 7.875 16.75C7.875 16.0596 8.43464 15.5 9.125 15.5ZM23.3057 29.999C23.8665 27.703 25.9373 25.999 28.406 25.999C30.8747 25.999 32.9455 27.703 33.5063 29.999H38.8752C39.5656 29.999 40.1252 30.5587 40.1252 31.249C40.1252 31.9394 39.5656 32.499 38.8752 32.499H33.5063C32.9455 34.795 30.8747 36.499 28.406 36.499C25.9373 36.499 23.8665 34.795 23.3057 32.499H9.12511C8.43476 32.499 7.87511 31.9394 7.87511 31.249C7.87511 30.5587 8.43476 29.999 9.12511 29.999H23.3057ZM31.156 31.249C31.156 29.7302 29.9248 28.499 28.406 28.499C26.8872 28.499 25.656 29.7302 25.656 31.249C25.656 32.7678 26.8872 33.999 28.406 33.999C29.9248 33.999 31.156 32.7678 31.156 31.249Z" fill="var(--spectrum-global-color-gray-800, #292929)"/>
</svg>
