<svg width="96" height="96" viewBox="0 0 96 96" xmlns="http://www.w3.org/2000/svg">
<path fill-rule="evenodd" d="M33.803 31.9521C37.0427 24.0817 44.5593 18.5 53.3979 18.5C64.8007 18.5 73.9902 27.7664 74.667 39.3003C83.7529 40.7734 90.6 48.9506 90.6 58.6809C90.6 69.4335 82.2325 78.3 71.7299 78.3C71.7113 78.3 71.6943 78.2998 71.6794 78.2995C71.6648 78.2998 71.6502 78.3 71.6356 78.3H18.9284C18.8406 78.3 18.7541 78.2943 18.6692 78.2834C11.0052 78.0276 5 71.4945 5 63.6308C5 57.5768 8.54848 52.3389 13.6715 50.1115C13.5922 49.4558 13.549 48.7848 13.549 48.0997C13.549 38.95 20.6724 31.3828 29.6404 31.3828C31.081 31.3828 32.4762 31.5821 33.803 31.9521ZM19.1358 74.3H71.5355C71.5722 74.2982 71.609 74.2973 71.6459 74.2975C71.6608 74.2976 71.6747 74.2978 71.6871 74.298C71.7 74.2983 71.7114 74.2986 71.7209 74.2989L71.751 74.3C79.8731 74.288 86.6 67.3824 86.6 58.6809C86.6 50.2791 80.3212 43.5463 72.5788 43.0892C71.5065 43.0259 70.6757 42.1269 70.6971 41.0529C70.6994 40.9327 70.7019 40.8697 70.7037 40.8215C70.7057 40.7701 70.707 40.7354 70.707 40.6663C70.707 30.5505 62.8765 22.5 53.3979 22.5C45.7467 22.5 39.1851 27.7322 36.9247 35.0841C36.7577 35.6273 36.3675 36.0738 35.8516 36.3121C35.3357 36.5504 34.7428 36.5579 34.2209 36.3328C32.8049 35.7221 31.2609 35.3828 29.6404 35.3828C23.0435 35.3828 17.549 40.9936 17.549 48.0997C17.549 49.0836 17.6671 50.0475 17.8762 50.9915C18.1048 52.0239 17.4902 53.0559 16.4735 53.3467C12.2144 54.5651 9 58.6636 9 63.6308C9 69.5418 13.5235 74.1958 18.9629 74.2896C19.0212 74.2906 19.0788 74.2941 19.1358 74.3Z" fill="var(--spectrum-global-color-gray-800, #292929)"/>
</svg>
