<svg width="96" height="96" viewBox="0 0 96 96" xmlns="http://www.w3.org/2000/svg">
<path fill-rule="evenodd" d="M76 40.7937C76 24.7148 62.4943 11.7875 46.2241 12.7954C32.7607 13.6295 21.6823 24.1844 20.1785 37.6106C19.7008 41.8752 20.2006 45.9704 21.4553 49.7178C25.4288 62.5595 36.8229 74.8538 42.7298 80.6174C45.6417 83.4588 50.2687 83.4405 53.1713 80.6075C58.7097 75.202 68.9857 64.1353 73.5493 52.2681C75.1193 48.7644 76 44.8818 76 40.7937ZM46.4714 16.7878C60.4171 15.9238 72 26.9987 72 40.7937C72 44.3194 71.2376 47.6617 69.8787 50.6778C69.8629 50.7128 69.8482 50.7482 69.8344 50.784C65.6146 61.8009 55.8758 72.3784 50.3774 77.7449C49.0195 79.0702 46.8724 79.0709 45.5233 77.7545C39.6257 71.9999 28.9108 60.3081 25.2701 48.5146C25.2653 48.499 25.2603 48.4835 25.2551 48.468C24.1741 45.2487 23.7419 41.7313 24.1536 38.0558C25.4417 26.5561 34.9516 17.5014 46.4714 16.7878ZM40 39.2403C40 34.5002 43.7388 30.7403 48.25 30.7403C52.7612 30.7403 56.5 34.5002 56.5 39.2403C56.5 43.9805 52.7612 47.7403 48.25 47.7403C43.7388 47.7403 40 43.9805 40 39.2403ZM48.25 26.7403C41.4394 26.7403 36 32.3825 36 39.2403C36 46.0982 41.4394 51.7403 48.25 51.7403C55.0607 51.7403 60.5 46.0982 60.5 39.2403C60.5 32.3825 55.0607 26.7403 48.25 26.7403Z" fill="var(--spectrum-global-color-gray-800, #292929)"/>
</svg>
