<svg width="160" height="160" viewBox="0 0 160 160" xmlns="http://www.w3.org/2000/svg">
<path fill-rule="evenodd" d="M41 46C41 39.3726 46.3726 34 53 34H64C70.6274 34 76 39.3726 76 46V114C76 120.627 70.6274 126 64 126H53C46.3726 126 41 120.627 41 114V46ZM53 42C50.7909 42 49 43.7909 49 46V114C49 116.209 50.7909 118 53 118H64C66.2091 118 68 116.209 68 114V46C68 43.7909 66.2091 42 64 42H53ZM85 46C85 39.3726 90.3726 34 97 34H108C114.627 34 120 39.3726 120 46V114C120 120.627 114.627 126 108 126H97C90.3726 126 85 120.627 85 114V46ZM97 42C94.7909 42 93 43.7909 93 46V114C93 116.209 94.7909 118 97 118H108C110.209 118 112 116.209 112 114V46C112 43.7909 110.209 42 108 42H97Z" fill="var(--spectrum-global-color-gray-800, #292929)"/>
</svg>
