<svg width="96" height="96" viewBox="0 0 96 96" xmlns="http://www.w3.org/2000/svg">
<path fill-rule="evenodd" d="M38 21.5294C38 20.7219 38.6788 20 39.6 20H56.4C57.3212 20 58 20.7219 58 21.5294V25H38V21.5294ZM34 25V21.5294C34 18.4384 36.5447 16 39.6 16H56.4C59.4553 16 62 18.4384 62 21.5294V25H74H76.2345H78C79.1046 25 80 25.8954 80 27C80 28.1046 79.1046 29 78 29H75.7901L71.0085 72.0343C70.5046 76.5692 66.6715 80 62.1087 80H34.8913C30.3285 80 26.4954 76.5692 25.9915 72.0343L21.2099 29H18C16.8954 29 16 28.1046 16 27C16 25.8954 16.8954 25 18 25H20.7655H23H34ZM25.2345 29H71.7655L67.033 71.5926C66.7542 74.1017 64.6333 76 62.1087 76H34.8913C32.3667 76 30.2458 74.1017 29.967 71.5926L25.2345 29ZM43 36.3871C43 35.2825 42.1046 34.3871 41 34.3871C39.8954 34.3871 39 35.2825 39 36.3871V69.2903C39 70.3949 39.8954 71.2903 41 71.2903C42.1046 71.2903 43 70.3949 43 69.2903V36.3871ZM54.5488 34.3871C55.6534 34.3871 56.5488 35.2825 56.5488 36.3871V69.2903C56.5488 70.3949 55.6534 71.2903 54.5488 71.2903C53.4443 71.2903 52.5488 70.3949 52.5488 69.2903V36.3871C52.5488 35.2825 53.4443 34.3871 54.5488 34.3871Z" fill="var(--spectrum-global-color-gray-800, #292929)"/>
</svg>
