<svg width="160" height="160" viewBox="0 0 160 160" xmlns="http://www.w3.org/2000/svg">
<path fill-rule="evenodd" d="M36.8606 51.4774C35.3457 45.8238 38.7008 40.0125 44.3544 38.4977L94.5835 25.0388C100.985 23.3235 107.565 27.1225 109.28 33.5241L113.845 50.5581C114.416 52.692 113.15 54.8854 111.016 55.4571C108.882 56.0289 106.689 54.7626 106.117 52.6287L101.553 35.5947C100.981 33.4608 98.7879 32.1945 96.654 32.7662L46.425 46.2251C45.0391 46.5964 44.2166 48.0209 44.588 49.4068L44.8965 50.5581C45.4682 52.692 44.2019 54.8854 42.068 55.4571C39.9342 56.0289 37.7408 54.7626 37.1691 52.6287L36.8606 51.4774ZM29.3555 59.0651C24.9372 59.0651 21.3555 62.6468 21.3555 67.0651V127.372C21.3555 131.79 24.9372 135.372 29.3555 135.372H111.815C122.861 135.372 131.815 126.417 131.815 115.372V113.941C135.679 113.375 138.646 110.047 138.646 106.026V88.4108C138.646 84.3898 135.679 81.0617 131.815 80.4957V79.0651C131.815 68.0194 122.861 59.0651 111.815 59.0651H29.3555ZM123.815 80.4108V79.0651C123.815 72.4377 118.443 67.0651 111.815 67.0651L29.3555 67.0651V127.372H111.815C118.443 127.372 123.815 121.999 123.815 115.372V114.026H104.492C100.074 114.026 96.4924 110.444 96.4924 106.026V88.4108C96.4924 83.9925 100.074 80.4108 104.492 80.4108H123.815ZM104.492 88.4108L130.646 88.4108L130.646 106.026H104.492V88.4108ZM113.531 101.719C116.016 101.719 118.031 99.7047 118.031 97.2194C118.031 94.7341 116.016 92.7194 113.531 92.7194C111.046 92.7194 109.031 94.7341 109.031 97.2194C109.031 99.7047 111.046 101.719 113.531 101.719Z" fill="var(--spectrum-global-color-gray-800, #292929)"/>
</svg>
