<svg width="96" height="96" viewBox="0 0 96 96" fill="none" xmlns="http://www.w3.org/2000/svg">
<path fill-rule="evenodd" clip-rule="evenodd" d="M28.0469 18.047C22.524 18.047 18.0469 22.5241 18.0469 28.047V67.9532C18.0469 73.4761 22.524 77.9532 28.0469 77.9532H67.9531C73.476 77.9532 77.9531 73.4761 77.9531 67.9532V28.047C77.9531 22.5241 73.476 18.047 67.9531 18.047H28.0469ZM22.0469 28.047C22.0469 24.7333 24.7332 22.047 28.0469 22.047H67.9531C71.2668 22.047 73.9531 24.7333 73.9531 28.047V39.7099H22.0469V28.047ZM22.0469 43.7099H73.9531V67.9532C73.9531 68.3736 73.9099 68.7839 73.8276 69.1799L66.5521 58.4022L66.5498 58.3987C64.3733 55.1528 59.6015 55.1601 57.424 58.399L57.4156 58.4115L51.6951 67.0605L41.5478 51.3863L39.8683 52.4722L41.5472 51.3854L41.5478 51.3863C39.3839 48.0397 34.482 48.0397 32.3182 51.3863L22.0469 67.2547V43.7099ZM47.1363 73.9532L49.2871 70.7013L38.1888 53.5582C37.601 52.6491 36.2645 52.6499 35.6767 53.559L23.6896 72.0781C24.7832 73.2329 26.3309 73.9532 28.0469 73.9532H47.1363ZM51.932 73.9532L60.7469 60.6258C61.345 59.7434 62.6415 59.751 63.2283 60.6275L63.2325 60.6339L71.4602 72.8221C70.4738 73.5339 69.2625 73.9532 67.9531 73.9532H51.932ZM27.2688 30.8782C27.2689 29.7737 28.1645 28.8784 29.269 28.8785L66.803 28.8835C67.9076 28.8837 68.8029 29.7792 68.8028 30.8838C68.8026 31.9884 67.9071 32.8837 66.8025 32.8835L29.2685 32.8785C28.1639 32.8784 27.2686 31.9828 27.2688 30.8782ZM64.9294 49.624C64.9294 51.2808 66.2726 52.624 67.9294 52.624C69.5863 52.624 70.9294 51.2808 70.9294 49.624C70.9294 47.9671 69.5863 46.624 67.9294 46.624C66.2726 46.624 64.9294 47.9671 64.9294 49.624Z" fill="var(--spectrum-global-color-gray-800, #292929)"/>
</svg>
