<svg width="160" height="160" viewBox="0 0 160 160" xmlns="http://www.w3.org/2000/svg">
<path fill-rule="evenodd" d="M81.7006 30.1804C88.0125 23.9224 98.7413 28.3933 98.7413 37.2817L98.7413 122.718C98.7413 131.582 88.0624 136.064 81.7364 129.855L62.7332 111.202H48.627C41.9995 111.202 36.627 105.83 36.627 99.2024V60.9976C36.627 54.3702 41.9995 48.9976 48.627 48.9976L62.7215 48.9976L81.7006 30.1804ZM90.7413 37.2817C90.7413 35.5041 88.5955 34.6099 87.3331 35.8615L69.2771 53.7634L69.2771 106.416L87.3403 124.145C88.6055 125.387 90.7413 124.491 90.7413 122.718L90.7413 37.2817ZM61.2771 103.202L61.2771 56.9976H48.627C46.4178 56.9976 44.627 58.7884 44.627 60.9976V99.2024C44.627 101.412 46.4178 103.202 48.627 103.202H61.2771ZM106.059 57.2316C107.388 55.4664 109.896 55.1123 111.661 56.4406C118.765 61.7867 123.371 70.3025 123.371 79.893C123.371 89.5621 118.689 98.1384 111.486 103.476C109.711 104.791 107.206 104.419 105.891 102.644C104.575 100.869 104.948 98.3635 106.723 97.0483C111.978 93.1546 115.371 86.9205 115.371 79.893C115.371 72.9224 112.033 66.7327 106.85 62.8329C105.085 61.5045 104.731 58.9967 106.059 57.2316Z" fill="var(--spectrum-global-color-gray-800, #292929)"/>
</svg>
