<svg width="100" height="96" viewBox="0 0 100 96" xmlns="http://www.w3.org/2000/svg">
<path fill-rule="evenodd" d="M40.5029 17.2869C43.4089 16.2034 46.4853 15.6484 49.5868 15.6484L64.7578 15.6484C64.8113 15.6484 64.8643 15.6505 64.9167 15.6547L68.9621 15.6547C70.6713 15.6547 72.5279 16.1212 74.0075 17.2563C75.5527 18.4416 76.5558 20.2654 76.5558 22.6097C76.5558 23.3332 76.3937 24.6383 75.7226 25.9202C77.7984 26.7671 79.3925 28.6041 79.8651 30.9098C80.2688 32.8793 79.7914 34.7909 78.7319 36.2784C80.521 37.4414 81.7399 39.4157 81.8568 41.6968C81.9447 43.4119 81.398 45.0065 80.4269 46.2594C82.0385 47.4428 83.119 49.3136 83.2287 51.4546C83.4302 55.3868 80.2962 58.6855 76.3588 58.6855L60.0999 58.6855L61.2457 62.3668C62.3318 65.8565 63.0287 69.4557 63.3236 73.0986L63.4897 75.1492C63.8038 79.0293 60.7396 82.3516 56.8469 82.3516C54.2782 82.3516 51.9382 80.8754 50.832 78.5572L45.3064 66.9771C44.8426 66.0053 44.3082 65.0689 43.7073 64.1753L42.6118 62.5461C39.7321 58.2637 34.91 55.6953 29.7494 55.6953L23.7578 55.6953C19.8918 55.6953 16.7578 52.5613 16.7578 48.6953L16.7578 28.1484C16.7578 24.2824 19.8918 21.1484 23.7578 21.1484L26.1788 21.1484C28.8031 21.1484 31.4063 20.6789 33.8652 19.762L40.5029 17.2869ZM49.5868 19.6484L58.272 19.6484C58.3244 19.6526 58.3774 19.6547 58.4308 19.6547L68.9621 19.6547C70.0028 19.6547 70.9431 19.9469 71.5729 20.43C72.1371 20.8628 72.5558 21.5166 72.5558 22.6097C72.5558 22.9282 72.4746 23.5314 72.1706 24.081C71.9013 24.5678 71.4366 25.0651 70.4898 25.3175C70.3949 25.3428 70.3034 25.3745 70.2156 25.4121L70.2122 25.4121L70.2083 25.4121L70.2045 25.4121L70.2006 25.4121L70.1968 25.4121L70.1929 25.4121L70.1891 25.4121L70.1853 25.4121L70.1815 25.4121L70.1777 25.4121L70.174 25.4121L70.1702 25.4121L70.1665 25.4121L70.1628 25.4121L70.1591 25.4121L70.1554 25.4121L70.1517 25.4121L70.1481 25.4121L70.1444 25.4121L70.1408 25.4121L70.1372 25.4121L70.1336 25.4121L70.13 25.4121L70.1264 25.4121L70.1229 25.4121L70.1193 25.4121L70.1158 25.4121L70.1123 25.4121L70.1088 25.4121L70.1053 25.4121L70.1019 25.4121L70.0984 25.4121L70.095 25.4121L70.0916 25.4121L70.0882 25.4121L70.0848 25.4121L70.0814 25.4121L70.078 25.4121L70.0747 25.4121L70.0714 25.4121L70.0681 25.4121L70.0648 25.4121L70.0615 25.4121L70.0582 25.4121L70.055 25.4121L70.0517 25.4121L70.0485 25.4121L70.0453 25.4121L70.0421 25.4121L70.0389 25.4121L70.0358 25.4121L70.0326 25.4121L70.0295 25.4121L70.0264 25.4121L70.0233 25.4121L70.0202 25.4121L70.0172 25.4121L70.0141 25.4121L70.0111 25.4121L70.0081 25.4121L70.0051 25.4121C68.9005 25.4121 68.0051 26.3075 68.0051 27.4121C68.0051 28.5167 68.9005 29.4121 70.0051 29.4121L70.0081 29.4121L70.0111 29.4121L70.0141 29.4121L70.0172 29.4121L70.0202 29.4121L70.0233 29.4121L70.0264 29.4121L70.0295 29.4121L70.0326 29.4121L70.0358 29.4121L70.0389 29.4121L70.0421 29.4121L70.0453 29.4121L70.0485 29.4121L70.0517 29.4121L70.055 29.4121L70.0582 29.4121L70.0615 29.4121L70.0648 29.4121L70.0681 29.4121L70.0714 29.4121L70.0747 29.4121L70.078 29.4121L70.0814 29.4121L70.0848 29.4121L70.0882 29.4121L70.0916 29.4121L70.095 29.4121L70.0984 29.4121L70.1019 29.4121L70.1053 29.4121L70.1088 29.4121L70.1123 29.4121L70.1158 29.4121L70.1193 29.4121L70.1229 29.4121L70.1264 29.4121L70.13 29.4121L70.1336 29.4121L70.1372 29.4121L70.1408 29.4121L70.1444 29.4121L70.1481 29.4121L70.1517 29.4121L70.1554 29.4121L70.1591 29.4121L70.1628 29.4121L70.1665 29.4121L70.1702 29.4121L70.174 29.4121L70.1777 29.4121L70.1815 29.4121L70.1853 29.4121L70.1891 29.4121L70.1929 29.4121L70.1968 29.4121L70.2006 29.4121L70.2045 29.4121L70.2083 29.4121L70.2122 29.4121L70.2161 29.4121L70.2201 29.4121L70.224 29.4121L70.228 29.4121L70.2319 29.4121L70.2359 29.4121L70.2399 29.4121L70.2439 29.4121L70.2479 29.4121L70.2519 29.4121L70.256 29.4121L70.2601 29.4121L70.2641 29.4121L70.2682 29.4121L70.2723 29.4121L70.2765 29.4121L70.2806 29.4121L70.2847 29.4121L70.2889 29.4121L70.2931 29.4121L70.2973 29.4121L70.3015 29.4121L70.3057 29.4121L70.3099 29.4121L70.3142 29.4121L70.3184 29.4121L70.3227 29.4121L70.327 29.4121L70.3313 29.4121L70.3356 29.4121L70.3399 29.4121L70.3443 29.4121L70.3486 29.4121L70.353 29.4121L70.3574 29.4121L70.3618 29.4121L70.3662 29.4121L70.3706 29.4121L70.3751 29.4121L70.3795 29.4121L70.384 29.4121L70.3884 29.4121L70.3929 29.4121L70.3975 29.4121L70.402 29.4121L70.4065 29.4121L70.4111 29.4121L70.4156 29.4121L70.4202 29.4121L70.4248 29.4121L70.4294 29.4121L70.434 29.4121L70.4386 29.4121L70.4433 29.4121L70.4479 29.4121L70.4526 29.4121L70.4573 29.4121L70.462 29.4121L70.4667 29.4121L70.4714 29.4121L70.4761 29.4121L70.4809 29.4121L70.4856 29.4121L70.4904 29.4121L70.4952 29.4121L70.5 29.4121L70.5048 29.4121L70.5096 29.4121L70.5144 29.4121L70.5193 29.4121L70.5242 29.4121L70.529 29.4121L70.5339 29.4121L70.5388 29.4121L70.5437 29.4121L70.5487 29.4121L70.5536 29.4121L70.5586 29.4121L70.5635 29.4121L70.5685 29.4121L70.5735 29.4121L70.5785 29.4121L70.5835 29.4121L70.5886 29.4121L70.5936 29.4121L70.5987 29.4121L70.6037 29.4121L70.6088 29.4121L70.6139 29.4121L70.619 29.4121L70.6241 29.4121L70.6293 29.4121L70.6344 29.4121L70.6396 29.4121L70.6447 29.4121L70.6499 29.4121L70.6551 29.4121L70.6603 29.4121L70.6655 29.4121L70.6708 29.4121L70.676 29.4121L70.6813 29.4121L70.6865 29.4121L70.6918 29.4121L70.6971 29.4121L70.7024 29.4121L70.7077 29.4121L70.7131 29.4121L70.7184 29.4121L70.7237 29.4121L70.7291 29.4121L70.7345 29.4121L70.7399 29.4121L70.7453 29.4121L70.7507 29.4121L70.7561 29.4121L70.7616 29.4121L70.767 29.4121L70.7725 29.4121L70.7779 29.4121L70.7834 29.4121L70.7889 29.4121L70.7944 29.4121L70.8 29.4121L70.8055 29.4121L70.811 29.4121L70.8166 29.4121L70.8222 29.4121L70.8277 29.4121L70.8333 29.4121L70.8389 29.4121L70.8446 29.4121L70.8502 29.4121L70.8558 29.4121L70.8615 29.4121L70.8671 29.4121L70.8728 29.4121L70.8785 29.4121L70.8842 29.4121L70.8899 29.4121L70.8956 29.4121L70.9013 29.4121L70.9071 29.4121L70.9128 29.4121L70.9186 29.4121L70.9244 29.4121L70.9302 29.4121L70.936 29.4121L70.9418 29.4121L70.9476 29.4121L70.9534 29.4121L70.9593 29.4121L70.9651 29.4121L70.971 29.4121L70.9769 29.4121L70.9828 29.4121L70.9887 29.4121L70.9946 29.4121L71.0005 29.4121L71.0064 29.4121L71.0124 29.4121L71.0183 29.4121L71.0243 29.4121L71.0303 29.4121L71.0363 29.4121L71.0423 29.4121L71.0483 29.4121L71.0543 29.4121L71.0603 29.4121L71.0664 29.4121L71.0724 29.4121L71.0785 29.4121L71.0846 29.4121L71.0907 29.4121L71.0968 29.4121L71.1029 29.4121L71.109 29.4121L71.1151 29.4121L71.1213 29.4121L71.1274 29.4121L71.1336 29.4121L71.1397 29.4121L71.1459 29.4121L71.1521 29.4121L71.1583 29.4121L71.1645 29.4121L71.1708 29.4121L71.177 29.4121L71.1832 29.4121L71.1895 29.4121L71.1958 29.4121L71.202 29.4121L71.2083 29.4121L71.2146 29.4121L71.2209 29.4121L71.2273 29.4121L71.2336 29.4121L71.2399 29.4121L71.2463 29.4121L71.2526 29.4121L71.259 29.4121L71.2654 29.4121L71.2718 29.4121L71.2782 29.4121L71.2846 29.4121L71.291 29.4121L71.2975 29.4121L71.3039 29.4121L71.3103 29.4121L71.3168 29.4121L71.3233 29.4121L71.3298 29.4121L71.3363 29.4121L71.3428 29.4121L71.3493 29.4121L71.3558 29.4121L71.3623 29.4121L71.3689 29.4121L71.3754 29.4121L71.382 29.4121L71.3886 29.4121L71.3951 29.4121L71.4017 29.4121L71.4083 29.4121L71.4149 29.4121L71.4216 29.4121L71.4282 29.4121L71.4348 29.4121L71.4415 29.4121L71.4481 29.4121L71.4548 29.4121L71.4615 29.4121L71.4682 29.4121L71.4749 29.4121L71.4816 29.4121L71.4883 29.4121L71.495 29.4121L71.5017 29.4121L71.5085 29.4121L71.5152 29.4121L71.522 29.4121L71.5288 29.4121L71.5356 29.4121L71.5423 29.4121L71.5492 29.4121L71.556 29.4121L71.5628 29.4121L71.5696 29.4121L71.5764 29.4121L71.5833 29.4121L71.5902 29.4121L71.597 29.4121L71.6039 29.4121L71.6108 29.4121L71.6177 29.4121L71.6246 29.4121L71.6315 29.4121L71.6384 29.4121L71.6453 29.4121L71.6523 29.4121L71.6592 29.4121L71.6662 29.4121L71.6731 29.4121L71.6801 29.4121L71.6871 29.4121L71.6941 29.4121L71.7011 29.4121L71.7081 29.4121L71.7151 29.4121L71.7221 29.4121L71.7292 29.4121L71.7362 29.4121L71.7433 29.4121L71.7503 29.4121L71.7574 29.4121L71.7645 29.4121L71.7716 29.4121L71.7787 29.4121L71.7858 29.4121L71.7929 29.4121L71.8 29.4121L71.8071 29.4121L71.8143 29.4121L71.8214 29.4121L71.8286 29.4121L71.8357 29.4121L71.8429 29.4121L71.8501 29.4121L71.8573 29.4121L71.8645 29.4121L71.8717 29.4121L71.8789 29.4121L71.8861 29.4121L71.8934 29.4121L71.9006 29.4121L71.9078 29.4121L71.9151 29.4121L71.9224 29.4121L71.9296 29.4121L71.9369 29.4121L71.9442 29.4121L71.9515 29.4121L71.9588 29.4121L71.9661 29.4121L71.9734 29.4121L71.9808 29.4121L71.9881 29.4121L71.9955 29.4121L72.0028 29.4121L72.0102 29.4121L72.0175 29.4121L72.0249 29.4121L72.0323 29.4121L72.0397 29.4121L72.0471 29.4121L72.0545 29.4121L72.0619 29.4121L72.0694 29.4121L72.0768 29.4121L72.0842 29.4121L72.0917 29.4121L72.0991 29.4121L72.1066 29.4121L72.1141 29.4121L72.1215 29.4121L72.129 29.4121L72.1365 29.4121L72.144 29.4121L72.1515 29.4121L72.159 29.4121L72.1666 29.4121L72.1741 29.4121L72.1816 29.4121L72.1892 29.4121L72.1967 29.4121L72.2043 29.4121L72.2119 29.4121L72.2194 29.4121L72.227 29.4121L72.2346 29.4121L72.2422 29.4121L72.2498 29.4121L72.2574 29.4121L72.265 29.4121L72.2727 29.4121L72.2803 29.4121L72.2879 29.4121L72.2956 29.4121L72.3032 29.4121L72.3109 29.4121L72.3186 29.4121L72.3263 29.4121L72.3339 29.4121L72.3416 29.4121L72.3493 29.4121L72.357 29.4121L72.3647 29.4121L72.3725 29.4121L72.3802 29.4121L72.3879 29.4121L72.3957 29.4121L72.4034 29.4121L72.4112 29.4121L72.4189 29.4121L72.4267 29.4121L72.4345 29.4121L72.4422 29.4121L72.45 29.4121L72.4578 29.4121L72.4656 29.4121L72.4734 29.4121L72.4812 29.4121L72.4891 29.4121L72.4969 29.4121L72.5047 29.4121L72.5126 29.4121L72.5204 29.4121L72.5283 29.4121L72.5361 29.4121L72.544 29.4121L72.5519 29.4121L72.5597 29.4121L72.5676 29.4121L72.5755 29.4121L72.5834 29.4121L72.5913 29.4121L72.5992 29.4121L72.6071 29.4121L72.6151 29.4121L72.623 29.4121L72.6309 29.4121L72.6389 29.4121L72.6468 29.4121L72.6548 29.4121L72.6627 29.4121L72.6707 29.4121L72.6787 29.4121L72.6867 29.4121L72.6946 29.4121L72.7026 29.4121L72.7106 29.4121L72.7186 29.4121L72.7266 29.4121L72.7347 29.4121L72.7427 29.4121L72.7507 29.4121L72.7588 29.4121L72.7668 29.4121L72.7748 29.4121L72.7829 29.4121L72.7909 29.4121L72.799 29.4121L72.8071 29.4121L72.8151 29.4121L72.8232 29.4121L72.8313 29.4121L72.8394 29.4121L72.8475 29.4121L72.8556 29.4121L72.8637 29.4121L72.8718 29.4121L72.8799 29.4121L72.8881 29.4121L72.8962 29.4121L72.9043 29.4121L72.9125 29.4121L72.9206 29.4121L72.9288 29.4121L72.9369 29.4121L72.9451 29.4121L72.9533 29.4121L72.9614 29.4121L72.9696 29.4121L72.9778 29.4121L72.986 29.4121L72.9942 29.4121L73.0024 29.4121L73.0106 29.4121L73.0188 29.4121L73.027 29.4121L73.0353 29.4121L73.0435 29.4121L73.0517 29.4121L73.06 29.4121L73.0682 29.4121L73.0764 29.4121L73.0847 29.4121L73.093 29.4121L73.1012 29.4121L73.1095 29.4121L73.1178 29.4121L73.126 29.4121C74.4933 29.4121 75.6721 30.3738 75.9466 31.713C76.3125 33.4982 74.9486 35.1699 73.1263 35.1699L72.0051 35.1699C70.9005 35.1699 70.0051 36.0653 70.0051 37.1699C70.0051 38.2745 70.9005 39.1699 72.0051 39.1699L73.1263 39.1699C73.3175 39.1699 73.5066 39.1622 73.6933 39.1471C73.7921 39.1621 73.8933 39.1699 73.9963 39.1699L73.9976 39.1699L73.9989 39.1699L74.0003 39.1699L74.0016 39.1699L74.003 39.1699L74.0043 39.1699L74.0057 39.1699L74.007 39.1699L74.0084 39.1699L74.0097 39.1699L74.0111 39.1699L74.0125 39.1699L74.0138 39.1699L74.0152 39.1699L74.0166 39.1699L74.0179 39.1699L74.0193 39.1699L74.0207 39.1699L74.0221 39.1699L74.0234 39.1699L74.0248 39.1699L74.0262 39.1699L74.0276 39.1699L74.029 39.1699L74.0304 39.1699L74.0318 39.1699L74.0332 39.1699L74.0346 39.1699L74.036 39.1699L74.0374 39.1699L74.0388 39.1699L74.0403 39.1699L74.0417 39.1699L74.0431 39.1699L74.0445 39.1699L74.0459 39.1699L74.0474 39.1699L74.0488 39.1699L74.0502 39.1699L74.0517 39.1699L74.0531 39.1699L74.0545 39.1699L74.056 39.1699L74.0574 39.1699L74.0589 39.1699L74.0603 39.1699L74.0618 39.1699L74.0632 39.1699L74.0647 39.1699L74.0661 39.1699L74.0676 39.1699L74.0691 39.1699L74.0705 39.1699L74.072 39.1699L74.0735 39.1699L74.0749 39.1699L74.0764 39.1699L74.0779 39.1699L74.0794 39.1699L74.0809 39.1699L74.0824 39.1699L74.0839 39.1699L74.0853 39.1699L74.0868 39.1699L74.0883 39.1699L74.0898 39.1699L74.0913 39.1699L74.0928 39.1699L74.0943 39.1699L74.0959 39.1699L74.0974 39.1699L74.0989 39.1699L74.1004 39.1699L74.1019 39.1699L74.1034 39.1699L74.105 39.1699L74.1065 39.1699L74.108 39.1699L74.1096 39.1699L74.1111 39.1699L74.1126 39.1699L74.1142 39.1699L74.1157 39.1699L74.1172 39.1699L74.1188 39.1699L74.1203 39.1699L74.1219 39.1699L74.1235 39.1699L74.125 39.1699L74.1266 39.1699L74.1281 39.1699L74.1297 39.1699L74.1313 39.1699L74.1328 39.1699L74.1344 39.1699L74.136 39.1699L74.1375 39.1699L74.1391 39.1699L74.1407 39.1699L74.1423 39.1699L74.1439 39.1699L74.1455 39.1699L74.1471 39.1699L74.1486 39.1699L74.1502 39.1699L74.1518 39.1699L74.1534 39.1699L74.155 39.1699L74.1567 39.1699L74.1583 39.1699L74.1599 39.1699L74.1615 39.1699L74.1631 39.1699L74.1647 39.1699L74.1663 39.1699L74.168 39.1699L74.1696 39.1699L74.1712 39.1699L74.1728 39.1699L74.1745 39.1699L74.1761 39.1699L74.1777 39.1699L74.1794 39.1699L74.181 39.1699L74.1827 39.1699L74.1843 39.1699L74.186 39.1699L74.1876 39.1699L74.1893 39.1699L74.1909 39.1699L74.1926 39.1699L74.1942 39.1699L74.1959 39.1699L74.1976 39.1699L74.1992 39.1699L74.2009 39.1699L74.2026 39.1699L74.2043 39.1699L74.2059 39.1699L74.2076 39.1699L74.2093 39.1699L74.211 39.1699L74.2127 39.1699L74.2144 39.1699L74.216 39.1699L74.2177 39.1699L74.2194 39.1699L74.2211 39.1699L74.2228 39.1699L74.2245 39.1699L74.2263 39.1699L74.228 39.1699L74.2297 39.1699L74.2314 39.1699L74.2331 39.1699L74.2348 39.1699L74.2365 39.1699L74.2383 39.1699L74.24 39.1699L74.2417 39.1699L74.2434 39.1699L74.2452 39.1699L74.2469 39.1699L74.2486 39.1699L74.2504 39.1699L74.2521 39.1699L74.2539 39.1699L74.2556 39.1699L74.2574 39.1699L74.2591 39.1699L74.2609 39.1699L74.2626 39.1699L74.2644 39.1699L74.2661 39.1699L74.2679 39.1699L74.2697 39.1699L74.2714 39.1699L74.2732 39.1699L74.275 39.1699L74.2768 39.1699L74.2785 39.1699L74.2803 39.1699L74.2821 39.1699L74.2839 39.1699L74.2857 39.1699L74.2875 39.1699L74.2892 39.1699L74.291 39.1699L74.2928 39.1699L74.2946 39.1699L74.2964 39.1699L74.2982 39.1699L74.3 39.1699L74.3018 39.1699L74.3036 39.1699L74.3055 39.1699L74.3073 39.1699L74.3091 39.1699L74.3109 39.1699L74.3127 39.1699L74.3146 39.1699L74.3164 39.1699L74.3182 39.1699L74.32 39.1699L74.3219 39.1699L74.3237 39.1699L74.3255 39.1699L74.3274 39.1699L74.3292 39.1699L74.3311 39.1699L74.3329 39.1699L74.3348 39.1699L74.3366 39.1699L74.3385 39.1699L74.3403 39.1699L74.3422 39.1699L74.344 39.1699L74.3459 39.1699L74.3478 39.1699L74.3496 39.1699L74.3515 39.1699L74.3534 39.1699L74.3552 39.1699L74.3571 39.1699L74.359 39.1699L74.3609 39.1699L74.3628 39.1699L74.3646 39.1699L74.3665 39.1699L74.3684 39.1699L74.3703 39.1699L74.3722 39.1699L74.3741 39.1699L74.376 39.1699L74.3779 39.1699L74.3798 39.1699L74.3817 39.1699L74.3836 39.1699L74.3855 39.1699L74.3874 39.1699L74.3893 39.1699L74.3913 39.1699L74.3932 39.1699L74.3951 39.1699L74.397 39.1699L74.3989 39.1699L74.4009 39.1699L74.4028 39.1699L74.4047 39.1699L74.4067 39.1699L74.4086 39.1699L74.4105 39.1699L74.4125 39.1699L74.4144 39.1699L74.4164 39.1699L74.4183 39.1699L74.4203 39.1699L74.4222 39.1699L74.4242 39.1699L74.4261 39.1699L74.4281 39.1699L74.4301 39.1699L74.432 39.1699L74.434 39.1699L74.436 39.1699L74.4379 39.1699L74.4399 39.1699L74.4419 39.1699L74.4438 39.1699L74.4458 39.1699L74.4478 39.1699L74.4498 39.1699L74.4518 39.1699L74.4538 39.1699L74.4557 39.1699L74.4577 39.1699L74.4597 39.1699L74.4617 39.1699L74.4637 39.1699L74.4657 39.1699L74.4677 39.1699L74.4697 39.1699L74.4717 39.1699L74.4738 39.1699L74.4758 39.1699L74.4778 39.1699L74.4798 39.1699L74.4818 39.1699L74.4838 39.1699L74.4859 39.1699L74.4879 39.1699L74.4899 39.1699L74.4919 39.1699L74.494 39.1699L74.496 39.1699L74.498 39.1699L74.5001 39.1699L74.5021 39.1699L74.5042 39.1699L74.5062 39.1699L74.5082 39.1699L74.5103 39.1699L74.5123 39.1699L74.5144 39.1699L74.5164 39.1699L74.5185 39.1699L74.5206 39.1699L74.5226 39.1699L74.5247 39.1699L74.5268 39.1699L74.5288 39.1699L74.5309 39.1699L74.533 39.1699L74.535 39.1699L74.5371 39.1699L74.5392 39.1699L74.5413 39.1699L74.5434 39.1699L74.5454 39.1699L74.5475 39.1699L74.5496 39.1699L74.5517 39.1699L74.5538 39.1699L74.5559 39.1699L74.558 39.1699L74.5601 39.1699L74.5622 39.1699L74.5643 39.1699L74.5664 39.1699L74.5685 39.1699L74.5706 39.1699L74.5727 39.1699L74.5749 39.1699L74.577 39.1699L74.5791 39.1699L74.5812 39.1699L74.5833 39.1699L74.5855 39.1699L74.5876 39.1699L74.5897 39.1699L74.5918 39.1699L74.594 39.1699L74.5961 39.1699L74.5983 39.1699L74.6004 39.1699L74.6025 39.1699L74.6047 39.1699L74.6068 39.1699L74.609 39.1699L74.6111 39.1699L74.6133 39.1699L74.6154 39.1699L74.6176 39.1699L74.6197 39.1699L74.6219 39.1699L74.6241 39.1699L74.6262 39.1699L74.6284 39.1699L74.6306 39.1699L74.6327 39.1699L74.6349 39.1699L74.6371 39.1699L74.6393 39.1699L74.6414 39.1699L74.6436 39.1699L74.6458 39.1699L74.648 39.1699L74.6502 39.1699L74.6524 39.1699L74.6546 39.1699L74.6568 39.1699L74.659 39.1699L74.6612 39.1699L74.6634 39.1699L74.6656 39.1699L74.6678 39.1699L74.67 39.1699L74.6722 39.1699L74.6744 39.1699L74.6766 39.1699L74.6788 39.1699L74.681 39.1699L74.6833 39.1699L74.6855 39.1699L74.6877 39.1699L74.6899 39.1699L74.6921 39.1699L74.6944 39.1699L74.6966 39.1699L74.6988 39.1699L74.7011 39.1699L74.7033 39.1699L74.7056 39.1699L74.7078 39.1699L74.71 39.1699L74.7123 39.1699L74.7145 39.1699L74.7168 39.1699L74.719 39.1699L74.7213 39.1699L74.7235 39.1699L74.7258 39.1699L74.7281 39.1699L74.7303 39.1699L74.7326 39.1699L74.7348 39.1699L74.7371 39.1699L74.7394 39.1699L74.7417 39.1699L74.7439 39.1699L74.7462 39.1699L74.7485 39.1699L74.7508 39.1699L74.753 39.1699L74.7553 39.1699L74.7576 39.1699L74.7599 39.1699L74.7622 39.1699L74.7645 39.1699L74.7668 39.1699L74.7691 39.1699L74.7714 39.1699L74.7737 39.1699L74.776 39.1699L74.7783 39.1699L74.7806 39.1699L74.7829 39.1699L74.7852 39.1699L74.7875 39.1699L74.7898 39.1699L74.7921 39.1699L74.7944 39.1699L74.7968 39.1699L74.7991 39.1699L74.8014 39.1699L74.8037 39.1699L74.8061 39.1699L74.8084 39.1699L74.8107 39.1699L74.8131 39.1699L74.8154 39.1699L74.8177 39.1699L74.8201 39.1699L74.8224 39.1699L74.8248 39.1699L74.8271 39.1699L74.8294 39.1699L74.8318 39.1699L74.8341 39.1699L74.8365 39.1699L74.8389 39.1699L74.8412 39.1699L74.8436 39.1699L74.8459 39.1699L74.8483 39.1699L74.8507 39.1699L74.853 39.1699L74.8554 39.1699L74.8578 39.1699L74.8601 39.1699L74.8625 39.1699L74.8649 39.1699L74.8673 39.1699L74.8696 39.1699L74.872 39.1699L74.8744 39.1699L74.8768 39.1699L74.8792 39.1699L74.8816 39.1699L74.884 39.1699L74.8864 39.1699L74.8888 39.1699L74.8911 39.1699L74.8935 39.1699L74.896 39.1699L74.8984 39.1699L74.9008 39.1699L74.9032 39.1699L74.9056 39.1699L74.908 39.1699L74.9104 39.1699L74.9128 39.1699L74.9152 39.1699L74.9176 39.1699L74.9201 39.1699L74.9225 39.1699L74.9249 39.1699L74.9273 39.1699L74.9298 39.1699L74.9322 39.1699L74.9346 39.1699L74.9371 39.1699L74.9395 39.1699L74.9419 39.1699L74.9444 39.1699L74.9468 39.1699L74.9493 39.1699L74.9517 39.1699L74.9542 39.1699L74.9566 39.1699L74.959 39.1699L74.9615 39.1699L74.964 39.1699L74.9664 39.1699L74.9689 39.1699L74.9713 39.1699L74.9738 39.1699L74.9763 39.1699L74.9787 39.1699L74.9812 39.1699L74.9837 39.1699L74.9861 39.1699C76.5193 39.1699 77.7837 40.3712 77.8621 41.9015C77.9464 43.5472 76.6348 44.9277 74.9869 44.9277L74.9865 44.9277L74.9815 44.9277L74.9765 44.9277L74.9715 44.9277L74.9665 44.9277L74.9615 44.9277L74.9565 44.9277L74.9515 44.9277L74.9465 44.9277L74.9416 44.9277L74.9366 44.9277L74.9316 44.9277L74.9267 44.9277L74.9217 44.9277L74.9168 44.9277L74.9119 44.9277L74.9069 44.9277L74.902 44.9277L74.8971 44.9277L74.8922 44.9277L74.8873 44.9277L74.8824 44.9277L74.8775 44.9277L74.8726 44.9277L74.8677 44.9277L74.8628 44.9277L74.8579 44.9277L74.853 44.9277L74.8482 44.9277L74.8433 44.9277L74.8385 44.9277L74.8336 44.9277L74.8288 44.9277L74.8239 44.9277L74.8191 44.9277L74.8143 44.9277L74.8094 44.9277L74.8046 44.9277L74.7998 44.9277L74.795 44.9277L74.7902 44.9277L74.7854 44.9277L74.7806 44.9277L74.7758 44.9277L74.771 44.9277L74.7663 44.9277L74.7615 44.9277L74.7567 44.9277L74.752 44.9277L74.7472 44.9277L74.7425 44.9277L74.7377 44.9277L74.733 44.9277L74.7282 44.9277L74.7235 44.9277L74.7188 44.9277L74.7141 44.9277L74.7094 44.9277L74.7047 44.9277L74.7 44.9277L74.6953 44.9277L74.6906 44.9277L74.6859 44.9277L74.6812 44.9277L74.6765 44.9277L74.6719 44.9277L74.6672 44.9277L74.6625 44.9277L74.6579 44.9277L74.6532 44.9277L74.6486 44.9277L74.644 44.9277L74.6393 44.9277L74.6347 44.9277L74.6301 44.9277L74.6255 44.9277L74.6208 44.9277L74.6162 44.9277L74.6116 44.9277L74.607 44.9277L74.6025 44.9277L74.5979 44.9277L74.5933 44.9277L74.5887 44.9277L74.5841 44.9277L74.5796 44.9277L74.575 44.9277L74.5705 44.9277L74.5659 44.9277L74.5614 44.9277L74.5568 44.9277L74.5523 44.9277L74.5478 44.9277L74.5433 44.9277L74.5388 44.9277L74.5342 44.9277L74.5297 44.9277L74.5252 44.9277L74.5207 44.9277L74.5163 44.9277L74.5118 44.9277L74.5073 44.9277L74.5028 44.9277L74.4983 44.9277L74.4939 44.9277L74.4894 44.9277L74.485 44.9277L74.4805 44.9277L74.4761 44.9277L74.4716 44.9277L74.4672 44.9277L74.4628 44.9277L74.4584 44.9277L74.4539 44.9277L74.4495 44.9277L74.4451 44.9277L74.4407 44.9277L74.4363 44.9277L74.4319 44.9277L74.4276 44.9277L74.4232 44.9277L74.4188 44.9277L74.4144 44.9277L74.4101 44.9277L74.4057 44.9277L74.4014 44.9277L74.397 44.9277L74.3927 44.9277L74.3883 44.9277L74.384 44.9277L74.3797 44.9277L74.3753 44.9277L74.371 44.9277L74.3667 44.9277L74.3624 44.9277L74.3581 44.9277L74.3538 44.9277L74.3495 44.9277L74.3452 44.9277L74.3409 44.9277L74.3367 44.9277L74.3324 44.9277L74.3281 44.9277L74.3239 44.9277L74.3196 44.9277L74.3154 44.9277L74.3111 44.9277L74.3069 44.9277L74.3026 44.9277L74.2984 44.9277L74.2942 44.9277L74.29 44.9277L74.2858 44.9277L74.2815 44.9277L74.2773 44.9277L74.2731 44.9277L74.2689 44.9277L74.2648 44.9277L74.2606 44.9277L74.2564 44.9277L74.2522 44.9277L74.2481 44.9277L74.2439 44.9277L74.2397 44.9277L74.2356 44.9277L74.2314 44.9277L74.2273 44.9277L74.2231 44.9277L74.219 44.9277L74.2149 44.9277L74.2108 44.9277L74.2066 44.9277L74.2025 44.9277L74.1984 44.9277L74.1943 44.9277L74.1902 44.9277L74.1861 44.9277L74.182 44.9277L74.178 44.9277L74.1739 44.9277L74.1698 44.9277L74.1658 44.9277L74.1617 44.9277L74.1576 44.9277L74.1536 44.9277L74.1495 44.9277L74.1455 44.9277L74.1415 44.9277L74.1374 44.9277L74.1334 44.9277L74.1294 44.9277L74.1254 44.9277L74.1214 44.9277L74.1174 44.9277L74.1134 44.9277L74.1094 44.9277L74.1054 44.9277L74.1014 44.9277L74.0974 44.9277L74.0934 44.9277L74.0895 44.9277L74.0855 44.9277L74.0815 44.9277L74.0776 44.9277L74.0736 44.9277L74.0697 44.9277L74.0657 44.9277L74.0618 44.9277L74.0579 44.9277L74.0539 44.9277L74.05 44.9277L74.0461 44.9277L74.0422 44.9277L74.0383 44.9277L74.0344 44.9277L74.0305 44.9277L74.0266 44.9277L74.0227 44.9277L74.0188 44.9277L74.015 44.9277L74.0111 44.9277L74.0072 44.9277L74.0034 44.9277L73.9995 44.9277L73.9957 44.9277L73.9918 44.9277L73.988 44.9277L73.9842 44.9277L73.9803 44.9277L73.9765 44.9277L73.9727 44.9277L73.9689 44.9277L73.9651 44.9277L73.9612 44.9277L73.9574 44.9277L73.9536 44.9277L73.9499 44.9277L73.9461 44.9277L73.9423 44.9277L73.9385 44.9277L73.9347 44.9277L73.931 44.9277L73.9272 44.9277L73.9235 44.9277L73.9197 44.9277L73.916 44.9277L73.9122 44.9277L73.9085 44.9277L73.9048 44.9277L73.901 44.9277L73.8973 44.9277L73.8936 44.9277L73.8899 44.9277L73.8862 44.9277L73.8825 44.9277L73.8788 44.9277L73.8751 44.9277L73.8714 44.9277L73.8677 44.9277L73.864 44.9277L73.8604 44.9277L73.8567 44.9277L73.853 44.9277L73.8494 44.9277L73.8457 44.9277L73.8421 44.9277L73.8384 44.9277L73.8348 44.9277L73.8312 44.9277L73.8275 44.9277L73.8239 44.9277L73.8203 44.9277L73.4963 44.9277C72.3917 44.9277 71.4963 45.8232 71.4963 46.9277C71.4963 48.0323 72.3917 48.9277 73.4963 48.9277L73.8203 48.9277L73.8239 48.9277L73.8275 48.9277L73.8312 48.9277L73.8348 48.9277L73.8384 48.9277L73.8421 48.9277L73.8457 48.9277L73.8494 48.9277L73.853 48.9277L73.8567 48.9277L73.8604 48.9277L73.864 48.9277L73.8677 48.9277L73.8714 48.9277L73.8751 48.9277L73.8788 48.9277L73.8825 48.9277L73.8862 48.9277L73.8899 48.9277L73.8936 48.9277L73.8973 48.9277L73.901 48.9277L73.9048 48.9277L73.9085 48.9277L73.9122 48.9277L73.916 48.9277L73.9197 48.9277L73.9235 48.9277L73.9272 48.9277L73.931 48.9277L73.9347 48.9277L73.9385 48.9277L73.9423 48.9277L73.9461 48.9277L73.9499 48.9277L73.9536 48.9277L73.9574 48.9277L73.9612 48.9277L73.9651 48.9277L73.9689 48.9277L73.9727 48.9277L73.9765 48.9277L73.9803 48.9277L73.9842 48.9277L73.988 48.9277L73.9918 48.9277L73.9957 48.9277L73.9995 48.9277L74.0034 48.9277L74.0072 48.9277L74.0111 48.9277L74.015 48.9277L74.0188 48.9277L74.0227 48.9277L74.0266 48.9277L74.0305 48.9277L74.0344 48.9277L74.0383 48.9277L74.0422 48.9277L74.0461 48.9277L74.05 48.9277L74.0539 48.9277L74.0579 48.9277L74.0618 48.9277L74.0657 48.9277L74.0697 48.9277L74.0736 48.9277L74.0776 48.9277L74.0815 48.9277L74.0855 48.9277L74.0895 48.9277L74.0934 48.9277L74.0974 48.9277L74.1014 48.9277L74.1054 48.9277L74.1094 48.9277L74.1134 48.9277L74.1174 48.9277L74.1214 48.9277L74.1254 48.9277L74.1294 48.9277L74.1334 48.9277L74.1374 48.9277L74.1415 48.9277L74.1455 48.9277L74.1495 48.9277L74.1536 48.9277L74.1576 48.9277L74.1617 48.9277L74.1658 48.9277L74.1698 48.9277L74.1739 48.9277L74.178 48.9277L74.182 48.9277L74.1861 48.9277L74.1902 48.9277L74.1943 48.9277L74.1984 48.9277L74.2025 48.9277L74.2066 48.9277L74.2108 48.9277L74.2149 48.9277L74.219 48.9277L74.2231 48.9277L74.2273 48.9277L74.2314 48.9277L74.2356 48.9277L74.2397 48.9277L74.2439 48.9277L74.2481 48.9277L74.2522 48.9277L74.2564 48.9277L74.2606 48.9277L74.2648 48.9277L74.2689 48.9277L74.2731 48.9277L74.2773 48.9277L74.2815 48.9277L74.2858 48.9277L74.29 48.9277L74.2942 48.9277L74.2984 48.9277L74.3026 48.9277L74.3069 48.9277L74.3111 48.9277L74.3154 48.9277L74.3196 48.9277L74.3239 48.9277L74.3281 48.9277L74.3324 48.9277L74.3367 48.9277L74.3409 48.9277L74.3452 48.9277L74.3495 48.9277L74.3538 48.9277L74.3581 48.9277L74.3624 48.9277L74.3667 48.9277L74.371 48.9277L74.3753 48.9277L74.3797 48.9277L74.384 48.9277L74.3883 48.9277L74.3927 48.9277L74.397 48.9277L74.4014 48.9277L74.4057 48.9277L74.4101 48.9277L74.4144 48.9277L74.4188 48.9277L74.4232 48.9277L74.4276 48.9277L74.4319 48.9277L74.4363 48.9277L74.4407 48.9277L74.4451 48.9277L74.4495 48.9277L74.4539 48.9277L74.4584 48.9277L74.4628 48.9277L74.4672 48.9277L74.4716 48.9277L74.4761 48.9277L74.4805 48.9277L74.485 48.9277L74.4894 48.9277L74.4939 48.9277L74.4983 48.9277L74.5028 48.9277L74.5073 48.9277L74.5118 48.9277L74.5163 48.9277L74.5207 48.9277L74.5252 48.9277L74.5297 48.9277L74.5342 48.9277L74.5388 48.9277L74.5433 48.9277L74.5478 48.9277L74.5523 48.9277L74.5568 48.9277L74.5614 48.9277L74.5659 48.9277L74.5705 48.9277L74.575 48.9277L74.5796 48.9277L74.5841 48.9277L74.5887 48.9277L74.5933 48.9277L74.5979 48.9277L74.6025 48.9277L74.607 48.9277L74.6116 48.9277L74.6162 48.9277L74.6208 48.9277L74.6255 48.9277L74.6301 48.9277L74.6347 48.9277L74.6393 48.9277L74.644 48.9277L74.6486 48.9277L74.6532 48.9277L74.6579 48.9277L74.6625 48.9277L74.6672 48.9277L74.6719 48.9277L74.6765 48.9277L74.6812 48.9277L74.6859 48.9277L74.6906 48.9277L74.6953 48.9277L74.7 48.9277L74.7047 48.9277L74.7094 48.9277L74.7141 48.9277L74.7188 48.9277L74.7235 48.9277L74.7282 48.9277L74.733 48.9277L74.7377 48.9277L74.7425 48.9277L74.7472 48.9277L74.752 48.9277L74.7567 48.9277L74.7615 48.9277L74.7663 48.9277L74.771 48.9277L74.7758 48.9277L74.7806 48.9277L74.7854 48.9277L74.7902 48.9277L74.795 48.9277L74.7998 48.9277L74.8046 48.9277L74.8094 48.9277L74.8143 48.9277L74.8191 48.9277L74.8239 48.9277L74.8288 48.9277L74.8336 48.9277L74.8385 48.9277L74.8433 48.9277L74.8482 48.9277L74.853 48.9277L74.8579 48.9277L74.8628 48.9277L74.8677 48.9277L74.8726 48.9277L74.8775 48.9277L74.8824 48.9277L74.8873 48.9277L74.8922 48.9277L74.8971 48.9277L74.902 48.9277L74.9069 48.9277L74.9119 48.9277L74.9168 48.9277L74.9217 48.9277L74.9267 48.9277L74.9316 48.9277L74.9366 48.9277L74.9416 48.9277L74.9465 48.9277L74.9515 48.9277L74.9565 48.9277L74.9615 48.9277L74.9665 48.9277L74.9715 48.9277L74.9765 48.9277L74.9815 48.9277L74.9865 48.9277L74.9869 48.9277L74.9915 48.9277L74.9965 48.9277L75.0016 48.9277L75.0066 48.9277L75.0116 48.9277L75.0167 48.9277L75.0217 48.9277L75.0268 48.9277L75.0319 48.9277L75.0369 48.9277L75.042 48.9277L75.0471 48.9277L75.0522 48.9277L75.0573 48.9277L75.0624 48.9277L75.0675 48.9277L75.0726 48.9277L75.0777 48.9277L75.0828 48.9277L75.0879 48.9277L75.093 48.9277L75.0982 48.9277L75.1033 48.9277L75.1085 48.9277L75.1136 48.9277L75.1188 48.9277L75.1239 48.9277L75.1291 48.9277L75.1343 48.9277L75.1394 48.9277L75.1446 48.9277L75.1498 48.9277L75.155 48.9277L75.1602 48.9277L75.1654 48.9277L75.1706 48.9277L75.1758 48.9277L75.1811 48.9277L75.1863 48.9277L75.1915 48.9277L75.1968 48.9277L75.202 48.9277L75.2073 48.9277L75.2125 48.9277L75.2178 48.9277L75.223 48.9277L75.2283 48.9277L75.2336 48.9277L75.2389 48.9277L75.2442 48.9277L75.2495 48.9277L75.2548 48.9277L75.2601 48.9277L75.2654 48.9277L75.2707 48.9277L75.276 48.9277L75.2813 48.9277L75.2867 48.9277L75.292 48.9277L75.2973 48.9277L75.3027 48.9277L75.308 48.9277L75.3134 48.9277L75.3188 48.9277L75.3241 48.9277L75.3295 48.9277L75.3349 48.9277L75.3403 48.9277L75.3457 48.9277L75.3511 48.9277L75.3565 48.9277L75.3619 48.9277L75.3673 48.9277L75.3727 48.9277L75.3782 48.9277L75.3836 48.9277L75.389 48.9277L75.3945 48.9277L75.3999 48.9277L75.4054 48.9277L75.4109 48.9277L75.4163 48.9277L75.4218 48.9277L75.4273 48.9277L75.4328 48.9277L75.4382 48.9277L75.4437 48.9277L75.4492 48.9277L75.4547 48.9277L75.4603 48.9277L75.4658 48.9277L75.4713 48.9277L75.4768 48.9277L75.4824 48.9277L75.4879 48.9277L75.4934 48.9277L75.499 48.9277L75.5046 48.9277L75.5101 48.9277L75.5157 48.9277L75.5213 48.9277L75.5268 48.9277L75.5324 48.9277L75.538 48.9277L75.5436 48.9277L75.5492 48.9277L75.5548 48.9277L75.5604 48.9277L75.5661 48.9277L75.5717 48.9277L75.5773 48.9277L75.5829 48.9277L75.5886 48.9277L75.5942 48.9277L75.5999 48.9277L75.6055 48.9277L75.6112 48.9277L75.6169 48.9277L75.6226 48.9277L75.6282 48.9277L75.6339 48.9277L75.6396 48.9277L75.6453 48.9277L75.651 48.9277L75.6567 48.9277L75.6624 48.9277L75.6682 48.9277L75.6739 48.9277L75.6796 48.9277L75.6854 48.9277L75.6911 48.9277L75.6969 48.9277L75.7026 48.9277L75.7084 48.9277L75.7141 48.9277L75.7199 48.9277L75.7257 48.9277L75.7315 48.9277L75.7373 48.9277L75.7431 48.9277L75.7489 48.9277L75.7547 48.9277L75.7605 48.9277L75.7663 48.9277L75.7721 48.9277L75.778 48.9277L75.7838 48.9277L75.7896 48.9277L75.7955 48.9277L75.8013 48.9277L75.8072 48.9277L75.8131 48.9277L75.8189 48.9277L75.8248 48.9277L75.8307 48.9277L75.8366 48.9277L75.8425 48.9277L75.8484 48.9277L75.8543 48.9277L75.8602 48.9277L75.8661 48.9277L75.872 48.9277L75.878 48.9277L75.8839 48.9277L75.8898 48.9277L75.8958 48.9277L75.9017 48.9277L75.9077 48.9277L75.9136 48.9277L75.9196 48.9277L75.9256 48.9277L75.9316 48.9277L75.9376 48.9277L75.9435 48.9277L75.9495 48.9277L75.9555 48.9277L75.9616 48.9277L75.9676 48.9277L75.9736 48.9277L75.9796 48.9277L75.9857 48.9277L75.9917 48.9277L75.9977 48.9277L76.0038 48.9277L76.0098 48.9277L76.0159 48.9277L76.022 48.9277L76.028 48.9277L76.0341 48.9277L76.0402 48.9277L76.0463 48.9277L76.0524 48.9277L76.0585 48.9277L76.0646 48.9277L76.0707 48.9277L76.0768 48.9277L76.083 48.9277L76.0891 48.9277L76.0952 48.9277L76.1014 48.9277L76.1075 48.9277L76.1137 48.9277L76.1198 48.9277L76.126 48.9277L76.1322 48.9277L76.1384 48.9277L76.1445 48.9277L76.1507 48.9277L76.1569 48.9277L76.1631 48.9277L76.1693 48.9277L76.1756 48.9277L76.1818 48.9277L76.188 48.9277L76.1942 48.9277L76.2005 48.9277L76.2067 48.9277L76.213 48.9277L76.2192 48.9277L76.2255 48.9277L76.2317 48.9277L76.238 48.9277L76.2443 48.9277L76.2506 48.9277L76.2569 48.9277L76.2632 48.9277L76.2695 48.9277L76.2758 48.9277L76.2821 48.9277L76.2884 48.9277L76.2947 48.9277L76.3011 48.9277L76.3074 48.9277L76.3137 48.9277L76.3201 48.9277L76.3265 48.9277L76.3328 48.9277L76.3392 48.9277L76.3456 48.9277L76.3519 48.9277L76.3583 48.9277C77.8913 48.9277 79.1555 50.1289 79.234 51.6593C79.3183 53.305 78.0067 54.6855 76.3588 54.6855L59.9861 54.6855C57.346 54.6855 55.4622 57.2447 56.2468 59.7656L57.4264 63.5555C58.4249 66.7637 59.0655 70.0724 59.3367 73.4214L59.5027 75.472C59.6283 77.0233 58.4032 78.3516 56.8469 78.3516C55.8199 78.3516 54.8844 77.7614 54.4421 76.8345L48.9164 65.2545C48.3684 64.106 47.7368 62.9993 47.0267 61.9433L45.9312 60.3141C42.5481 55.2831 37.0341 52.1325 31.0324 51.7375L31.0324 24.6914C32.4705 24.4181 33.8857 24.0234 35.2628 23.5099L41.9004 21.0349C44.3593 20.118 46.9625 19.6484 49.5868 19.6484ZM27.0324 25.1344L27.0324 51.6953L23.7578 51.6953C22.101 51.6953 20.7578 50.3522 20.7578 48.6953L20.7578 28.1484C20.7578 26.4916 22.101 25.1484 23.7578 25.1484L26.1788 25.1484C26.4636 25.1484 26.7482 25.1438 27.0324 25.1344Z" fill="var(--spectrum-global-color-gray-800, #292929)"/>
</svg>
