<svg width="48" height="48" viewBox="0 0 48 48" xmlns="http://www.w3.org/2000/svg">
<path fill-rule="evenodd" d="M25.9571 6.70655C25.1567 5.0848 22.8441 5.0848 22.0437 6.70655L18.421 14.0467C17.739 15.4286 16.4207 16.3863 14.8957 16.6079L6.79525 17.785C5.00548 18.045 4.2909 20.2444 5.58593 21.5067L11.4475 27.2203L10.575 28.1154L11.4475 27.2203C12.551 28.2959 13.0546 29.8456 12.7941 31.3644L11.4103 39.432C11.1046 41.2145 12.9755 42.5738 14.5764 41.7322L21.8217 37.9232C23.1856 37.2061 24.8151 37.2061 26.1791 37.9232L33.4244 41.7322C35.0253 42.5738 36.8962 41.2145 36.5905 39.432L35.2067 31.3644C34.9462 29.8456 35.4498 28.2959 36.5533 27.2203L42.4148 21.5067C43.7099 20.2444 42.9953 18.045 41.2055 17.785L33.105 16.6079C31.5801 16.3863 30.2618 15.4286 29.5798 14.0467L25.9571 6.70655ZM19.8018 5.60012C21.5193 2.12027 26.4815 2.12027 28.1989 5.60012L31.8216 12.9403C32.1394 13.5843 32.7538 14.0306 33.4645 14.1339L41.565 15.311C45.4053 15.869 46.9388 20.5883 44.1599 23.297L38.2983 29.0105C37.784 29.5118 37.5493 30.234 37.6707 30.9418L39.0545 39.0094C39.7105 42.8342 35.6959 45.7508 32.2611 43.945L25.0158 40.136C24.3801 39.8018 23.6207 39.8018 22.985 40.136L15.7397 43.945C12.3049 45.7508 8.29029 42.8342 8.9463 39.0094L10.33 30.9418C10.4514 30.234 10.2168 29.5118 9.7025 29.0105L3.84092 23.297C1.06202 20.5883 2.59549 15.869 6.43576 15.311L14.5363 14.1339C15.247 14.0306 15.8614 13.5843 16.1792 12.9403L19.8018 5.60012Z" fill="var(--spectrum-global-color-gray-800, #292929)"/>
</svg>
