<svg width="48" height="48" viewBox="0 0 48 48" xmlns="http://www.w3.org/2000/svg">
<path fill-rule="evenodd" d="M40.75 14C40.75 12.4812 39.5188 11.25 38 11.25H10C8.48122 11.25 7.25 12.4812 7.25 14V33.9702L14.9716 22.0409L14.972 22.0404C16.3012 19.9853 19.3116 19.9852 20.6409 22.0403L20.6411 22.0406L20.6413 22.0409L26.7846 31.5303L30.2352 26.3133L30.2351 26.3132L30.2404 26.3054C31.578 24.3158 34.5092 24.3113 35.8463 26.3053L35.8477 26.3074L40.75 33.5695V14ZM17.0707 23.3988L8.65556 36.3995C9.05307 36.6227 9.51167 36.75 10 36.75H23.3544C23.3828 36.685 23.4172 36.6216 23.4577 36.5604L25.2796 33.8058L18.5423 23.3989L18.5419 23.3983C18.1977 22.8659 17.4152 22.8659 17.071 23.3983L17.0707 23.3988ZM39.5554 36.2682C39.1131 36.5721 38.5773 36.75 38 36.75H26.3296L32.3172 27.6971C32.6677 27.1804 33.4268 27.1852 33.7703 27.6982L33.773 27.7022L39.5554 36.2682ZM38 8.75C40.8995 8.75 43.25 11.1005 43.25 14V34C43.25 36.8995 40.8995 39.25 38 39.25H10C7.10051 39.25 4.75 36.8995 4.75 34V14C4.75 11.1005 7.10051 8.75 10 8.75H38ZM32 17.5C32 18.8807 33.1193 20 34.5 20C35.8807 20 37 18.8807 37 17.5C37 16.1193 35.8807 15 34.5 15C33.1193 15 32 16.1193 32 17.5Z" fill="var(--spectrum-global-color-gray-800, #292929)"/>
</svg>
