<svg width="160" height="160" viewBox="0 0 160 160" xmlns="http://www.w3.org/2000/svg">
<path fill-rule="evenodd" d="M45.7402 32.0605C41.3294 32.0605 37.7402 35.6497 37.7402 40.0605V89.6906C37.7402 113.011 56.6788 131.941 79.9902 131.941C103.311 131.941 122.24 113.002 122.24 89.6906V40.0605C122.24 35.6497 118.651 32.0605 114.24 32.0605H45.7502H45.7402ZM29.7402 40.0605C29.7402 31.2314 36.9111 24.0605 45.7402 24.0605H45.7502H114.24C123.069 24.0605 130.24 31.2314 130.24 40.0605V89.6906C130.24 117.419 107.73 139.941 79.9902 139.941C52.2617 139.941 29.7402 117.43 29.7402 89.6906V40.0605Z" fill="var(--spectrum-global-color-gray-800, #292929)"/>
<path d="M88.0544 61.8437C89.6018 59.2192 93.3982 59.2192 94.9456 61.8437L108.728 85.2183C110.3 87.8848 108.378 91.25 105.283 91.25H77.7175C74.622 91.25 72.6996 87.8848 74.2719 85.2183L88.0544 61.8437Z" stroke="var(--spectrum-global-color-gray-800, #292929)" stroke-width="8"/>
<path d="M52 91L66.5 66" stroke="var(--spectrum-global-color-gray-800, #292929)" stroke-width="8" stroke-linecap="round" stroke-linejoin="round"/>
</svg>
