<svg width="160" height="160" viewBox="0 0 160 160" xmlns="http://www.w3.org/2000/svg">
<path fill-rule="evenodd" d="M31.4297 47.4302C31.4297 38.5893 38.5888 31.4302 47.4297 31.4302H101.25C103.459 31.4302 105.25 29.6393 105.25 27.4302C105.25 25.221 103.459 23.4302 101.25 23.4302H47.4297C34.1705 23.4302 23.4297 34.171 23.4297 47.4302V101.25C23.4297 103.459 25.2205 105.25 27.4297 105.25C29.6388 105.25 31.4297 103.459 31.4297 101.25V47.4302ZM58.4297 46.4302C51.8023 46.4302 46.4297 51.8028 46.4297 58.4302V116.58C46.4297 123.208 51.8023 128.58 58.4297 128.58H116.58C123.207 128.58 128.58 123.208 128.58 116.58V58.4302C128.58 52.3384 124.04 47.3069 118.16 46.5333V83.9604C118.16 85.5504 116.38 86.5104 115.05 85.6204L107.15 80.3604C106.48 79.9104 105.6 79.9104 104.93 80.3604L97.0299 85.6204C95.6999 86.5104 93.9199 85.5604 93.9199 83.9604V46.4302H58.4297ZM38.4297 58.4302C38.4297 47.3845 47.384 38.4302 58.4297 38.4302H116.58C127.625 38.4302 136.58 47.3845 136.58 58.4302V116.58C136.58 127.626 127.625 136.58 116.58 136.58H58.4297C47.384 136.58 38.4297 127.626 38.4297 116.58V58.4302Z" fill="var(--spectrum-global-color-gray-800, #292929)"/>
</svg>
