<svg width="48" height="48" viewBox="0 0 48 48" xmlns="http://www.w3.org/2000/svg">
<path fill-rule="evenodd" d="M6.96201 5.19424C6.47385 4.70609 5.6824 4.70609 5.19424 5.19424C4.70609 5.6824 4.70609 6.47385 5.19424 6.96201L41.039 42.8067C41.5271 43.2949 42.3186 43.2949 42.8067 42.8067C43.2949 42.3186 43.2949 41.5271 42.8067 41.039L6.96201 5.19424ZM21.2811 8.79116C23.0169 7.07019 25.9673 8.29971 25.9673 10.744V19.0469C25.9673 19.7372 25.4076 20.2969 24.7173 20.2969C24.0269 20.2969 23.4673 19.7372 23.4673 19.0469V10.744C23.4673 10.671 23.4479 10.6296 23.4284 10.6019C23.405 10.5686 23.3662 10.5352 23.3134 10.5133C23.2607 10.4913 23.2097 10.4872 23.1696 10.4941C23.1362 10.4997 23.0931 10.5151 23.0413 10.5665L19.6217 13.9568C19.1315 14.4429 18.3401 14.4395 17.854 13.9492C17.3679 13.459 17.3713 12.6676 17.8616 12.1815L21.2811 8.79116ZM10.6177 17.2896C10.2671 17.2896 9.98291 17.5738 9.98291 17.9244V30.0507C9.98291 30.4649 10.3187 30.8007 10.7329 30.8007H14.8267L14.8267 21.75C14.8267 21.0596 15.3863 20.5 16.0767 20.5C16.767 20.5 17.3267 21.0596 17.3267 21.75L17.3267 31.851L23.0422 37.461C23.094 37.5118 23.1371 37.5271 23.1705 37.5326C23.2107 37.5393 23.2616 37.5351 23.314 37.5131C23.3665 37.491 23.4051 37.4577 23.4285 37.4244C23.448 37.3966 23.4673 37.3552 23.4673 37.2825V30.3828C23.4673 29.6925 24.0269 29.1328 24.7173 29.1328C25.4076 29.1328 25.9673 29.6925 25.9673 30.3828V37.2825C25.9673 39.7202 23.0306 40.9527 21.2909 39.2451L15.4535 33.5154C15.3133 33.3778 15.1246 33.3007 14.9281 33.3007H10.7329C8.93799 33.3007 7.48291 31.8456 7.48291 30.0507V17.9244C7.48291 16.1931 8.88639 14.7896 10.6177 14.7896H10.6567C11.3471 14.7896 11.9067 15.3492 11.9067 16.0396C11.9067 16.7299 11.3471 17.2896 10.6567 17.2896H10.6177ZM28.0058 17.2484C28.421 16.6968 29.2046 16.5861 29.7563 17.0012C31.8712 18.5927 33.2427 21.1281 33.2427 23.9833C33.2427 24.8163 33.1257 25.624 32.9066 26.39C32.7167 27.0537 32.0247 27.4378 31.3609 27.2479C30.6972 27.0579 30.3131 26.3659 30.503 25.7022C30.6588 25.1577 30.7427 24.5814 30.7427 23.9833C30.7427 21.9468 29.7674 20.1384 28.253 18.9988C27.7014 18.5837 27.5907 17.8 28.0058 17.2484ZM33.008 12.6839C33.4232 12.1323 34.2068 12.0217 34.7584 12.4368C38.2538 15.0671 40.518 19.2547 40.518 23.9707C40.518 26.9599 39.6076 29.7402 38.0486 32.0447C37.6618 32.6165 36.8847 32.7665 36.3129 32.3797C35.7411 31.9929 35.5911 31.2158 35.9779 30.644C37.2659 28.74 38.018 26.445 38.018 23.9707C38.018 20.0734 36.15 16.6127 33.2552 14.4343C32.7036 14.0192 32.5929 13.2356 33.008 12.6839Z" fill="var(--spectrum-global-color-gray-800, #292929)"/>
</svg>
