<svg width="160" height="160" viewBox="0 0 160 160" xmlns="http://www.w3.org/2000/svg">
<path fill-rule="evenodd" d="M132 80C132 51.2812 108.719 28 79.9999 28C60.0825 28 42.7728 39.1993 34.0382 55.6544L49.4918 50.4982C51.5874 49.799 53.853 50.931 54.5522 53.0265C55.2514 55.1221 54.1194 57.3877 52.0238 58.0869L27.7493 66.1863C25.6537 66.8855 23.3881 65.7535 22.6889 63.6579L14.5895 39.3834C13.8903 37.2878 15.0223 35.0222 17.1179 34.323C19.2134 33.6238 21.4791 34.7558 22.1783 36.8514L27.1129 51.6408C37.2312 32.8101 57.1156 20 79.9999 20C113.137 20 140 46.8629 140 80C140 113.137 113.137 140 79.9999 140C54.0833 140 32.0142 123.57 23.6204 100.571C22.863 98.4961 23.9314 96.1998 26.0066 95.4424C28.0818 94.685 30.3782 95.7534 31.1355 97.8286C38.4141 117.772 57.5505 132 79.9999 132C108.719 132 132 108.719 132 80Z" fill="var(--spectrum-global-color-gray-800, #292929)"/>
</svg>
