<svg width="160" height="160" viewBox="0 0 160 160" xmlns="http://www.w3.org/2000/svg">
<path d="M46.8154 48.8903C48.3775 47.3282 50.9101 47.3282 52.4722 48.8903L61.8431 58.2612L71.2139 48.8903C72.776 47.3282 75.3086 47.3282 76.8707 48.8903C78.4328 50.4524 78.4328 52.9851 76.8707 54.5472L67.4999 63.918L76.8707 73.2888C78.4328 74.8509 78.4328 77.3836 76.8707 78.9457C75.3086 80.5078 72.776 80.5078 71.2139 78.9457L61.8431 69.5749L52.4722 78.9457C50.9101 80.5078 48.3775 80.5078 46.8154 78.9457C45.2533 77.3836 45.2533 74.8509 46.8154 73.2888L56.1862 63.918L46.8154 54.5472C45.2533 52.9851 45.2533 50.4524 46.8154 48.8903Z" fill="var(--spectrum-global-color-gray-800, #292929)"/>
<path fill-rule="evenodd" d="M61.501 18.0762C36.372 18.0762 16.001 38.4472 16.001 63.5762C16.001 88.7051 36.372 109.076 61.501 109.076C72.6253 109.076 82.8172 105.084 90.7221 98.4542L94.705 102.437L92.4029 104.739C90.8408 106.301 90.8408 108.834 92.4029 110.396L121.91 139.903C126.282 144.275 133.37 144.275 137.742 139.903C142.114 135.531 142.114 128.443 137.742 124.071L108.235 94.5641C106.673 93.0021 104.14 93.0021 102.578 94.5641L100.362 96.7802L96.379 92.7973C103.009 84.8924 107.001 74.7005 107.001 63.5762C107.001 38.4472 86.6299 18.0762 61.501 18.0762ZM24.001 63.5762C24.001 42.8655 40.7903 26.0762 61.501 26.0762C82.2117 26.0762 99.001 42.8655 99.001 63.5762C99.001 84.2868 82.2117 101.076 61.501 101.076C40.7903 101.076 24.001 84.2868 24.001 63.5762ZM105.406 103.049L100.888 107.568L127.567 134.246C128.815 135.494 130.837 135.494 132.085 134.246C133.333 132.999 133.333 130.976 132.085 129.728L105.406 103.049Z" fill="var(--spectrum-global-color-gray-800, #292929)"/>
</svg>
