<svg width="48" height="48" viewBox="0 0 48 48" xmlns="http://www.w3.org/2000/svg">
<path fill-rule="evenodd" d="M13.252 6.2168C13.252 5.52644 12.6923 4.9668 12.002 4.9668C11.3116 4.9668 10.752 5.52644 10.752 6.2168V9.03752C10.752 9.72788 11.3116 10.2875 12.002 10.2875C12.6923 10.2875 13.252 9.72788 13.252 9.03752V6.2168ZM5.79688 11.1725C5.10652 11.1725 4.54688 11.7321 4.54688 12.4225C4.54688 13.1128 5.10652 13.6725 5.79688 13.6725H8.6176C9.30796 13.6725 9.8676 13.1128 9.8676 12.4225C9.8676 11.7321 9.30796 11.1725 8.6176 11.1725H5.79688ZM15.3868 13.6724C14.2078 13.6724 13.252 14.6282 13.252 15.8072V38.373C13.252 39.5521 14.2078 40.5079 15.3868 40.5079H33.4395C34.6185 40.5079 35.5743 39.5521 35.5743 38.373V24.9552H27.5164C25.5798 24.9552 24.0099 23.3853 24.0099 21.4487V13.6724H15.3868ZM26.5099 15.0894V21.4487C26.5099 22.0046 26.9605 22.4552 27.5164 22.4552H34.1627L26.5099 15.0894ZM10.752 15.8072C10.752 13.2475 12.8271 11.1724 15.3868 11.1724H24.1771C25.3757 11.1724 26.5277 11.6367 27.3913 12.4679L36.6536 21.3829C37.5614 22.2566 38.0743 23.4623 38.0743 24.7223V38.373C38.0743 40.9328 35.9992 43.0079 33.4395 43.0079H15.3868C12.8271 43.0079 10.752 40.9328 10.752 38.373V15.8072Z" fill="var(--spectrum-global-color-gray-800, #292929)"/>
</svg>
