<svg width="48" height="48" viewBox="0 0 48 48" xmlns="http://www.w3.org/2000/svg">
<path fill-rule="evenodd" d="M6.74609 7.82617C6.05574 7.82617 5.49609 8.38582 5.49609 9.07617C5.49609 9.76653 6.05574 10.3262 6.74609 10.3262C6.80512 10.3262 6.92609 10.327 7.10516 10.3282L7.10573 10.3282C7.26657 10.3292 7.47422 10.3306 7.72589 10.332C8.25138 10.3348 8.95489 10.3376 9.78301 10.3373C10.6555 10.337 11.3954 10.9649 11.5353 11.8133L14.4803 29.6738C14.8188 31.7265 16.5934 33.2324 18.6737 33.2324H34.8427C35.5331 33.2324 36.0927 32.6727 36.0927 31.9824C36.0927 31.292 35.5331 30.7324 34.8427 30.7324H18.6737C17.8171 30.7324 17.0864 30.1123 16.947 29.2671L16.3673 25.7515H33.5891C35.1415 25.7515 36.4772 24.6535 36.7777 23.1304L38.0126 16.8695C38.4076 14.8665 36.8811 12.9959 34.8347 12.991C27.8114 12.9742 17.2883 12.9575 14.2625 12.9866L14.0019 11.4065C13.6608 9.33796 11.866 7.83659 9.78211 7.83735C8.96012 7.83765 8.26167 7.83486 7.73959 7.832C7.50452 7.83072 7.30222 7.82939 7.14027 7.82833L7.14022 7.82833L7.1401 7.82833C6.94719 7.82706 6.81158 7.82617 6.74609 7.82617ZM14.6741 15.4829L15.9551 23.2515H33.5891C33.9473 23.2515 34.2556 22.9981 34.3249 22.6466L35.5598 16.3857C35.6515 15.9208 35.2979 15.4921 34.8288 15.491C28.021 15.4747 18.0479 15.459 14.6741 15.4829ZM20.5049 39C20.5049 40.3807 19.3856 41.5 18.0049 41.5C16.6242 41.5 15.5049 40.3807 15.5049 39C15.5049 37.6193 16.6242 36.5 18.0049 36.5C19.3856 36.5 20.5049 37.6193 20.5049 39ZM32.9668 41.5C34.3475 41.5 35.4668 40.3807 35.4668 39C35.4668 37.6193 34.3475 36.5 32.9668 36.5C31.5861 36.5 30.4668 37.6193 30.4668 39C30.4668 40.3807 31.5861 41.5 32.9668 41.5Z" fill="var(--spectrum-global-color-gray-800, #292929)"/>
</svg>
