<svg width="160" height="160" viewBox="0 0 160 160" xmlns="http://www.w3.org/2000/svg">
<path fill-rule="evenodd" d="M38.7879 48.2852C45.2605 39.8868 54.2428 33.5223 64.612 30.3145C60.5542 36.1041 57.2829 42.1223 54.7854 48.2852H38.7879ZM33.7102 56.2852H51.9988C50.0425 62.9665 48.9583 69.7712 48.7308 76.5977H28.1095C28.5798 69.317 30.5484 62.4444 33.7102 56.2852ZM60.3789 56.2852C58.2016 62.9463 56.9925 69.7565 56.737 76.5977H75.9473V56.2852H60.3789ZM28.2005 84.5977H48.8552C49.2939 91.42 50.5818 98.2245 52.7035 104.91H34.3436C30.9935 98.7829 28.8408 91.9071 28.2005 84.5977ZM56.8716 84.5977C57.355 91.4222 58.7801 98.2319 61.1323 104.91H75.9473V84.5977H56.8716ZM39.7373 112.91H55.6661C58.1139 118.678 61.1987 124.323 64.9104 129.777C54.9142 126.751 46.1904 120.796 39.7373 112.91ZM64.4257 112.91C67.4132 119.232 71.258 125.388 75.9473 131.273V112.91H64.4257ZM75.9473 28.6732C70.7283 34.9081 66.5834 41.4899 63.4962 48.2852H75.9473V28.6732ZM83.9473 76.5977V56.2852H99.6214C101.799 62.9463 103.008 69.7565 103.263 76.5977H83.9473ZM103.129 84.5977H83.9473V104.91H98.868C101.22 98.2319 102.645 91.4222 103.129 84.5977ZM107.297 104.91C109.418 98.2245 110.706 91.42 111.145 84.5977H131.8C131.159 91.9071 129.007 98.7829 125.656 104.91H107.297ZM95.5745 112.91H83.9473V131.405C88.6845 125.48 92.5647 119.279 95.5745 112.91ZM95.09 129.777C98.8016 124.323 101.886 118.678 104.334 112.91H120.263C113.81 120.795 105.086 126.75 95.09 129.777ZM111.269 76.5977C111.042 69.7712 109.958 62.9665 108.002 56.2852H126.29C129.452 62.4444 131.42 69.317 131.89 76.5977H111.269ZM105.215 48.2852H121.212C114.74 39.8869 105.757 33.5224 95.3883 30.3146C99.4462 36.1042 102.717 42.1224 105.215 48.2852ZM83.9473 28.5471V48.2852H96.5041C93.396 41.444 89.216 34.8193 83.9473 28.5471ZM20 80C20 46.8629 46.8629 20 80 20C113.137 20 140 46.8629 140 80C140 113.137 113.137 140 80 140C46.8629 140 20 113.137 20 80Z" fill="var(--spectrum-global-color-gray-800, #292929)"/>
</svg>
