<svg width="48" height="48" viewBox="0 0 48 48" xmlns="http://www.w3.org/2000/svg">
<path d="M14.7266 14.6973V13.4473C14.0362 13.4473 13.4766 14.0069 13.4766 14.6973H14.7266ZM21.3746 14.6973H22.6246C22.6246 14.0069 22.065 13.4473 21.3746 13.4473V14.6973ZM21.3746 33.2425V34.4925C22.065 34.4925 22.6246 33.9328 22.6246 33.2425H21.3746ZM26.6246 33.2425H25.3746C25.3746 33.9328 25.9343 34.4925 26.6246 34.4925V33.2425ZM26.6246 14.6973V13.4473C25.9343 13.4473 25.3746 14.0069 25.3746 14.6973H26.6246ZM33.2718 14.6973H34.5218C34.5218 14.0069 33.9621 13.4473 33.2718 13.4473V14.6973ZM10.7266 12.0723C10.7266 11.3129 11.3422 10.6973 12.1016 10.6973V8.19727C9.96146 8.19727 8.22656 9.93216 8.22656 12.0723H10.7266ZM10.7266 16.8313V12.0723H8.22656V16.8313H10.7266ZM12.1016 18.2063C11.3422 18.2063 10.7266 17.5907 10.7266 16.8313H8.22656C8.22656 18.9714 9.96146 20.7063 12.1016 20.7063V18.2063ZM13.4766 16.8313C13.4766 17.5907 12.861 18.2063 12.1016 18.2063V20.7063C14.2417 20.7063 15.9766 18.9714 15.9766 16.8313H13.4766ZM13.4766 14.6973V16.8313H15.9766V14.6973H13.4766ZM21.3746 13.4473H14.7266V15.9473H21.3746V13.4473ZM22.6246 33.2425V14.6973H20.1246V33.2425H22.6246ZM19.2398 34.4925H21.3746V31.9925H19.2398V34.4925ZM17.8648 35.8675C17.8648 35.1081 18.4804 34.4925 19.2398 34.4925V31.9925C17.0997 31.9925 15.3648 33.7274 15.3648 35.8675H17.8648ZM19.2398 37.2425C18.4804 37.2425 17.8648 36.6269 17.8648 35.8675H15.3648C15.3648 38.0076 17.0997 39.7425 19.2398 39.7425V37.2425ZM28.7579 37.2425H19.2398V39.7425H28.7579V37.2425ZM30.1329 35.8675C30.1329 36.6269 29.5173 37.2425 28.7579 37.2425V39.7425C30.898 39.7425 32.6329 38.0076 32.6329 35.8675H30.1329ZM28.7579 34.4925C29.5173 34.4925 30.1329 35.1081 30.1329 35.8675H32.6329C32.6329 33.7274 30.898 31.9925 28.7579 31.9925V34.4925ZM26.6246 34.4925H28.7579V31.9925H26.6246V34.4925ZM25.3746 14.6973V33.2425H27.8746V14.6973H25.3746ZM33.2718 13.4473H26.6246V15.9473H33.2718V13.4473ZM34.5218 16.8313V14.6973H32.0218V16.8313H34.5218ZM35.8968 18.2063C35.1374 18.2063 34.5218 17.5907 34.5218 16.8313H32.0218C32.0218 18.9714 33.7567 20.7063 35.8968 20.7063V18.2063ZM37.2718 16.8313C37.2718 17.5907 36.6562 18.2063 35.8968 18.2063V20.7063C38.0369 20.7063 39.7718 18.9714 39.7718 16.8313H37.2718ZM37.2718 12.0723V16.8313H39.7718V12.0723H37.2718ZM35.8968 10.6973C36.6562 10.6973 37.2718 11.3129 37.2718 12.0723H39.7718C39.7718 9.93216 38.0369 8.19727 35.8968 8.19727V10.6973ZM35.8967 10.6973C35.8967 10.6973 35.8967 10.6973 35.8967 10.6973C35.8967 10.6973 35.8967 10.6973 35.8967 10.6973C35.8967 10.6973 35.8967 10.6973 35.8967 10.6973C35.8967 10.6973 35.8967 10.6973 35.8967 10.6973C35.8967 10.6973 35.8967 10.6973 35.8967 10.6973C35.8967 10.6973 35.8967 10.6973 35.8967 10.6973C35.8967 10.6973 35.8967 10.6973 35.8967 10.6973C35.8967 10.6973 35.8967 10.6973 35.8967 10.6973C35.8967 10.6973 35.8967 10.6973 35.8967 10.6973C35.8967 10.6973 35.8967 10.6973 35.8967 10.6973C35.8967 10.6973 35.8967 10.6973 35.8967 10.6973C35.8967 10.6973 35.8967 10.6973 35.8967 10.6973C35.8967 10.6973 35.8967 10.6973 35.8967 10.6973C35.8967 10.6973 35.8967 10.6973 35.8967 10.6973C35.8967 10.6973 35.8967 10.6973 35.8967 10.6973C35.8967 10.6973 35.8967 10.6973 35.8967 10.6973C35.8967 10.6973 35.8967 10.6973 35.8967 10.6973C35.8967 10.6973 35.8967 10.6973 35.8967 10.6973C35.8967 10.6973 35.8967 10.6973 35.8967 10.6973C35.8967 10.6973 35.8967 10.6973 35.8967 10.6973C35.8967 10.6973 35.8967 10.6973 35.8967 10.6973C35.8967 10.6973 35.8967 10.6973 35.8967 10.6973C35.8967 10.6973 35.8967 10.6973 35.8967 10.6973C35.8967 10.6973 35.8967 10.6973 35.8967 10.6973C35.8967 10.6973 35.8967 10.6973 35.8967 10.6973C35.8967 10.6973 35.8967 10.6973 35.8967 10.6973C35.8967 10.6973 35.8967 10.6973 35.8967 10.6973C35.8967 10.6973 35.8967 10.6973 35.8967 10.6973C35.8967 10.6973 35.8967 10.6973 35.8967 10.6973C35.8967 10.6973 35.8967 10.6973 35.8967 10.6973C35.8967 10.6973 35.8967 10.6973 35.8967 10.6973C35.8967 10.6973 35.8967 10.6973 35.8967 10.6973C35.8967 10.6973 35.8967 10.6973 35.8967 10.6973C35.8967 10.6973 35.8967 10.6973 35.8967 10.6973C35.8967 10.6973 35.8967 10.6973 35.8967 10.6973C35.8967 10.6973 35.8967 10.6973 35.8967 10.6973C35.8967 10.6973 35.8967 10.6973 35.8967 10.6973C35.8967 10.6973 35.8967 10.6973 35.8967 10.6973C35.8967 10.6973 35.8967 10.6973 35.8967 10.6973C35.8967 10.6973 35.8967 10.6973 35.8967 10.6973C35.8967 10.6973 35.8967 10.6973 35.8967 10.6973C35.8967 10.6973 35.8967 10.6973 35.8967 10.6973C35.8967 10.6973 35.8967 10.6973 35.8967 10.6973C35.8967 10.6973 35.8967 10.6973 35.8967 10.6973C35.8967 10.6973 35.8967 10.6973 35.8967 10.6973C35.8967 10.6973 35.8967 10.6973 35.8967 10.6973C35.8967 10.6973 35.8967 10.6973 35.8967 10.6973C35.8967 10.6973 35.8967 10.6973 35.8967 10.6973C35.8967 10.6973 35.8967 10.6973 35.8967 10.6973C35.8967 10.6973 35.8967 10.6973 35.8967 10.6973C35.8967 10.6973 35.8967 10.6973 35.8967 10.6973C35.8967 10.6973 35.8967 10.6973 35.8967 10.6973C35.8967 10.6973 35.8967 10.6973 35.8967 10.6973C35.8967 10.6973 35.8967 10.6973 35.8967 10.6973C35.8967 10.6973 35.8967 10.6973 35.8967 10.6973C35.8967 10.6973 35.8967 10.6973 35.8967 10.6973C35.8967 10.6973 35.8967 10.6973 35.8967 10.6973C35.8967 10.6973 35.8967 10.6973 35.8967 10.6973C35.8967 10.6973 35.8967 10.6973 35.8967 10.6973C35.8967 10.6973 35.8967 10.6973 35.8967 10.6973C35.8967 10.6973 35.8967 10.6973 35.8967 10.6973C35.8967 10.6973 35.8967 10.6973 35.8967 10.6973C35.8967 10.6973 35.8967 10.6973 35.8967 10.6973C35.8967 10.6973 35.8967 10.6973 35.8967 10.6973C35.8967 10.6973 35.8967 10.6973 35.8967 10.6973C35.8967 10.6973 35.8967 10.6973 35.8967 10.6973C35.8967 10.6973 35.8967 10.6973 35.8967 10.6973C35.8967 10.6973 35.8967 10.6973 35.8967 10.6973C35.8967 10.6973 35.8967 10.6973 35.8967 10.6973C35.8967 10.6973 35.8967 10.6973 35.8967 10.6973C35.8967 10.6973 35.8967 10.6973 35.8967 10.6973C35.8967 10.6973 35.8967 10.6973 35.8967 10.6973C35.8967 10.6973 35.8967 10.6973 35.8967 10.6973C35.8967 10.6973 35.8967 10.6973 35.8967 10.6973C35.8967 10.6973 35.8967 10.6973 35.8967 10.6973C35.8967 10.6973 35.8967 10.6973 35.8967 10.6973C35.8967 10.6973 35.8967 10.6973 35.8967 10.6973C35.8967 10.6973 35.8967 10.6973 35.8967 10.6973C35.8967 10.6973 35.8967 10.6973 35.8967 10.6973C35.8967 10.6973 35.8967 10.6973 35.8967 10.6973C35.8967 10.6973 35.8967 10.6973 35.8967 10.6973C35.8967 10.6973 35.8967 10.6973 35.8967 10.6973C35.8967 10.6973 35.8967 10.6973 35.8967 10.6973C35.8967 10.6973 35.8967 10.6973 35.8967 10.6973C35.8967 10.6973 35.8967 10.6973 35.8967 10.6973C35.8967 10.6973 35.8967 10.6973 35.8967 10.6973C35.8967 10.6973 35.8967 10.6973 35.8967 10.6973C35.8967 10.6973 35.8967 10.6973 35.8967 10.6973C35.8967 10.6973 35.8967 10.6973 35.8967 10.6973C35.8967 10.6973 35.8967 10.6973 35.8967 10.6973C35.8967 10.6973 35.8967 10.6973 35.8967 10.6973C35.8967 10.6973 35.8967 10.6973 35.8967 10.6973C35.8967 10.6973 35.8967 10.6973 35.8967 10.6973C35.8967 10.6973 35.8967 10.6973 35.8967 10.6973C35.8967 10.6973 35.8967 10.6973 35.8967 10.6973C35.8967 10.6973 35.8967 10.6973 35.8967 10.6973C35.8967 10.6973 35.8967 10.6973 35.8967 10.6973C35.8967 10.6973 35.8967 10.6973 35.8967 10.6973C35.8967 10.6973 35.8967 10.6973 35.8967 10.6973C35.8967 10.6973 35.8967 10.6973 35.8967 10.6973C35.8967 10.6973 35.8967 10.6973 35.8967 10.6973C35.8967 10.6973 35.8967 10.6973 35.8967 10.6973C35.8967 10.6973 35.8967 10.6973 35.8967 10.6973C35.8967 10.6973 35.8967 10.6973 35.8967 10.6973C35.8967 10.6973 35.8967 10.6973 35.8967 10.6973C35.8967 10.6973 35.8967 10.6973 35.8967 10.6973C35.8967 10.6973 35.8967 10.6973 35.8967 10.6973C35.8967 10.6973 35.8967 10.6973 35.8967 10.6973C35.8967 10.6973 35.8967 10.6973 35.8967 10.6973C35.8967 10.6973 35.8967 10.6973 35.8967 10.6973C35.8967 10.6973 35.8967 10.6973 35.8967 10.6973C35.8967 10.6973 35.8967 10.6973 35.8967 10.6973C35.8967 10.6973 35.8967 10.6973 35.8967 10.6973C35.8967 10.6973 35.8967 10.6973 35.8967 10.6973C35.8967 10.6973 35.8967 10.6973 35.8967 10.6973C35.8967 10.6973 35.8967 10.6973 35.8967 10.6973C35.8967 10.6973 35.8967 10.6973 35.8967 10.6973C35.8967 10.6973 35.8967 10.6973 35.8967 10.6973C35.8967 10.6973 35.8967 10.6973 35.8967 10.6973C35.8967 10.6973 35.8967 10.6973 35.8967 10.6973C35.8967 10.6973 35.8967 10.6973 35.8967 10.6973C35.8967 10.6973 35.8967 10.6973 35.8967 10.6973C35.8967 10.6973 35.8967 10.6973 35.8967 10.6973C35.8967 10.6973 35.8967 10.6973 35.8967 10.6973C35.8967 10.6973 35.8967 10.6973 35.8967 10.6973C35.8967 10.6973 35.8967 10.6973 35.8967 10.6973C35.8967 10.6973 35.8967 10.6973 35.8967 10.6973C35.8967 10.6973 35.8967 10.6973 35.8967 10.6973C35.8967 10.6973 35.8967 10.6973 35.8967 10.6973C35.8967 10.6973 35.8967 10.6973 35.8967 10.6973C35.8967 10.6973 35.8967 10.6973 35.8967 10.6973C35.8967 10.6973 35.8967 10.6973 35.8967 10.6973C35.8967 10.6973 35.8967 10.6973 35.8967 10.6973C35.8967 10.6973 35.8967 10.6973 35.8967 10.6973C35.8967 10.6973 35.8967 10.6973 35.8967 10.6973C35.8967 10.6973 35.8967 10.6973 35.8967 10.6973C35.8967 10.6973 35.8967 10.6973 35.8967 10.6973C35.8967 10.6973 35.8967 10.6973 35.8967 10.6973C35.8967 10.6973 35.8967 10.6973 35.8967 10.6973C35.8967 10.6973 35.8967 10.6973 35.8967 10.6973C35.8967 10.6973 35.8967 10.6973 35.8967 10.6973C35.8967 10.6973 35.8967 10.6973 35.8967 10.6973C35.8967 10.6973 35.8967 10.6973 35.8967 10.6973C35.8967 10.6973 35.8967 10.6973 35.8967 10.6973C35.8967 10.6973 35.8967 10.6973 35.8967 10.6973C35.8967 10.6973 35.8967 10.6973 35.8967 10.6973C35.8967 10.6973 35.8967 10.6973 35.8967 10.6973C35.8967 10.6973 35.8967 10.6973 35.8967 10.6973C35.8967 10.6973 35.8967 10.6973 35.8967 10.6973C35.8967 10.6973 35.8967 10.6973 35.8967 10.6973C35.8967 10.6973 35.8967 10.6973 35.8967 10.6973C35.8967 10.6973 35.8967 10.6973 35.8967 10.6973C35.8967 10.6973 35.8967 10.6973 35.8967 10.6973C35.8967 10.6973 35.8967 10.6973 35.8967 10.6973C35.8967 10.6973 35.8967 10.6973 35.8967 10.6973C35.8967 10.6973 35.8967 10.6973 35.8967 10.6973C35.8967 10.6973 35.8967 10.6973 35.8967 10.6973C35.8967 10.6973 35.8967 10.6973 35.8967 10.6973C35.8967 10.6973 35.8967 10.6973 35.8967 10.6973C35.8967 10.6973 35.8967 10.6973 35.8967 10.6973C35.8967 10.6973 35.8967 10.6973 35.8967 10.6973C35.8967 10.6973 35.8967 10.6973 35.8967 10.6973C35.8967 10.6973 35.8967 10.6973 35.8967 10.6973C35.8967 10.6973 35.8967 10.6973 35.8967 10.6973C35.8967 10.6973 35.8967 10.6973 35.8967 10.6973C35.8967 10.6973 35.8967 10.6973 35.8967 10.6973C35.8967 10.6973 35.8967 10.6973 35.8967 10.6973C35.8967 10.6973 35.8967 10.6973 35.8967 10.6973C35.8967 10.6973 35.8967 10.6973 35.8967 10.6973C35.8967 10.6973 35.8967 10.6973 35.8967 10.6973C35.8967 10.6973 35.8967 10.6973 35.8967 10.6973C35.8967 10.6973 35.8967 10.6973 35.8967 10.6973C35.8967 10.6973 35.8967 10.6973 35.8967 10.6973C35.8967 10.6973 35.8967 10.6973 35.8967 10.6973C35.8967 10.6973 35.8967 10.6973 35.8967 10.6973C35.8967 10.6973 35.8967 10.6973 35.8967 10.6973C35.8967 10.6973 35.8967 10.6973 35.8967 10.6973C35.8967 10.6973 35.8967 10.6973 35.8967 10.6973C35.8967 10.6973 35.8967 10.6973 35.8967 10.6973C35.8967 10.6973 35.8967 10.6973 35.8967 10.6973C35.8967 10.6973 35.8967 10.6973 35.8967 10.6973C35.8967 10.6973 35.8967 10.6973 35.8967 10.6973C35.8967 10.6973 35.8967 10.6973 35.8967 10.6973C35.8967 10.6973 35.8967 10.6973 35.8967 10.6973C35.8967 10.6973 35.8967 10.6973 35.8967 10.6973C35.8967 10.6973 35.8967 10.6973 35.8967 10.6973C35.8967 10.6973 35.8967 10.6973 35.8967 10.6973C35.8967 10.6973 35.8967 10.6973 35.8967 10.6973C35.8967 10.6973 35.8967 10.6973 35.8967 10.6973C35.8967 10.6973 35.8967 10.6973 35.8967 10.6973C35.8967 10.6973 35.8967 10.6973 35.8967 10.6973C35.8967 10.6973 35.8967 10.6973 35.8967 10.6973C35.8967 10.6973 35.8967 10.6973 35.8967 10.6973C35.8967 10.6973 35.8967 10.6973 35.8967 10.6973C35.8967 10.6973 35.8967 10.6973 35.8967 10.6973C35.8967 10.6973 35.8967 10.6973 35.8967 10.6973C35.8967 10.6973 35.8967 10.6973 35.8967 10.6973C35.8967 10.6973 35.8967 10.6973 35.8967 10.6973C35.8967 10.6973 35.8967 10.6973 35.8967 10.6973C35.8967 10.6973 35.8967 10.6973 35.8967 10.6973C35.8967 10.6973 35.8967 10.6973 35.8967 10.6973C35.8967 10.6973 35.8967 10.6973 35.8967 10.6973C35.8967 10.6973 35.8967 10.6973 35.8967 10.6973C35.8967 10.6973 35.8967 10.6973 35.8967 10.6973C35.8967 10.6973 35.8967 10.6973 35.8967 10.6973C35.8967 10.6973 35.8967 10.6973 35.8967 10.6973C35.8967 10.6973 35.8967 10.6973 35.8967 10.6973C35.8967 10.6973 35.8967 10.6973 35.8967 10.6973C35.8967 10.6973 35.8967 10.6973 35.8967 10.6973C35.8967 10.6973 35.8967 10.6973 35.8967 10.6973C35.8967 10.6973 35.8967 10.6973 35.8967 10.6973C35.8967 10.6973 35.8967 10.6973 35.8967 10.6973C35.8967 10.6973 35.8967 10.6973 35.8967 10.6973C35.8967 10.6973 35.8967 10.6973 35.8967 10.6973C35.8967 10.6973 35.8967 10.6973 35.8967 10.6973C35.8967 10.6973 35.8967 10.6973 35.8967 10.6973C35.8967 10.6973 35.8967 10.6973 35.8967 10.6973C35.8967 10.6973 35.8967 10.6973 35.8967 10.6973C35.8967 10.6973 35.8967 10.6973 35.8967 10.6973C35.8967 10.6973 35.8967 10.6973 35.8967 10.6973C35.8967 10.6973 35.8967 10.6973 35.8967 10.6973C35.8967 10.6973 35.8967 10.6973 35.8967 10.6973C35.8967 10.6973 35.8967 10.6973 35.8967 10.6973C35.8967 10.6973 35.8967 10.6973 35.8967 10.6973C35.8967 10.6973 35.8967 10.6973 35.8967 10.6973C35.8967 10.6973 35.8967 10.6973 35.8967 10.6973C35.8967 10.6973 35.8967 10.6973 35.8967 10.6973C35.8967 10.6973 35.8967 10.6973 35.8967 10.6973C35.8967 10.6973 35.8967 10.6973 35.8967 10.6973C35.8967 10.6973 35.8967 10.6973 35.8967 10.6973C35.8967 10.6973 35.8967 10.6973 35.8967 10.6973C35.8967 10.6973 35.8967 10.6973 35.8967 10.6973C35.8967 10.6973 35.8967 10.6973 35.8967 10.6973C35.8967 10.6973 35.8967 10.6973 35.8967 10.6973C35.8967 10.6973 35.8967 10.6973 35.8967 10.6973C35.8967 10.6973 35.8967 10.6973 35.8967 10.6973C35.8967 10.6973 35.8967 10.6973 35.8967 10.6973C35.8967 10.6973 35.8967 10.6973 35.8967 10.6973C35.8967 10.6973 35.8967 10.6973 35.8967 10.6973C35.8967 10.6973 35.8967 10.6973 35.8967 10.6973C35.8967 10.6973 35.8967 10.6973 35.8967 10.6973C35.8967 10.6973 35.8967 10.6973 35.8967 10.6973C35.8967 10.6973 35.8967 10.6973 35.8967 10.6973C35.8967 10.6973 35.8967 10.6973 35.8967 10.6973C35.8967 10.6973 35.8967 10.6973 35.8967 10.6973C35.8967 10.6973 35.8967 10.6973 35.8967 10.6973C35.8967 10.6973 35.8967 10.6973 35.8967 10.6973C35.8967 10.6973 35.8967 10.6973 35.8967 10.6973C35.8967 10.6973 35.8967 10.6973 35.8967 10.6973C35.8967 10.6973 35.8967 10.6973 35.8967 10.6973C35.8967 10.6973 35.8967 10.6973 35.8967 10.6973C35.8967 10.6973 35.8967 10.6973 35.8967 10.6973C35.8967 10.6973 35.8967 10.6973 35.8967 10.6973C35.8967 10.6973 35.8967 10.6973 35.8967 10.6973C35.8967 10.6973 35.8967 10.6973 35.8967 10.6973C35.8967 10.6973 35.8967 10.6973 35.8967 10.6973C35.8967 10.6973 35.8967 10.6973 35.8967 10.6973C35.8967 10.6973 35.8967 10.6973 35.8967 10.6973C35.8967 10.6973 35.8967 10.6973 35.8967 10.6973C35.8967 10.6973 35.8967 10.6973 35.8967 10.6973C35.8967 10.6973 35.8967 10.6973 35.8967 10.6973C35.8967 10.6973 35.8967 10.6973 35.8967 10.6973C35.8967 10.6973 35.8967 10.6973 35.8967 10.6973C35.8967 10.6973 35.8967 10.6973 35.8967 10.6973C35.8967 10.6973 35.8967 10.6973 35.8967 10.6973C35.8967 10.6973 35.8967 10.6973 35.8967 10.6973C35.8967 10.6973 35.8967 10.6973 35.8967 10.6973C35.8967 10.6973 35.8967 10.6973 35.8967 10.6973C35.8967 10.6973 35.8967 10.6973 35.8967 10.6973C35.8967 10.6973 35.8967 10.6973 35.8967 10.6973C35.8967 10.6973 35.8967 10.6973 35.8967 10.6973C35.8967 10.6973 35.8967 10.6973 35.8967 10.6973C35.8967 10.6973 35.8967 10.6973 35.8967 10.6973C35.8967 10.6973 35.8967 10.6973 35.8967 10.6973C35.8967 10.6973 35.8967 10.6973 35.8967 10.6973C35.8967 10.6973 35.8967 10.6973 35.8967 10.6973C35.8967 10.6973 35.8967 10.6973 35.8967 10.6973C35.8967 10.6973 35.8967 10.6973 35.8967 10.6973C35.8967 10.6973 35.8967 10.6973 35.8967 10.6973C35.8967 10.6973 35.8967 10.6973 35.8967 10.6973C35.8967 10.6973 35.8967 10.6973 35.8967 10.6973C35.8967 10.6973 35.8967 10.6973 35.8967 10.6973C35.8967 10.6973 35.8967 10.6973 35.8967 10.6973C35.8967 10.6973 35.8967 10.6973 35.8967 10.6973C35.8967 10.6973 35.8967 10.6973 35.8967 10.6973C35.8967 10.6973 35.8967 10.6973 35.8967 10.6973C35.8967 10.6973 35.8967 10.6973 35.8967 10.6973C35.8967 10.6973 35.8967 10.6973 35.8967 10.6973C35.8967 10.6973 35.8967 10.6973 35.8967 10.6973C35.8967 10.6973 35.8967 10.6973 35.8967 10.6973C35.8967 10.6973 35.8967 10.6973 35.8967 10.6973C35.8967 10.6973 35.8967 10.6973 35.8967 10.6973C35.8967 10.6973 35.8967 10.6973 35.8967 10.6973C35.8967 10.6973 35.8967 10.6973 35.8967 10.6973C35.8967 10.6973 35.8967 10.6973 35.8967 10.6973C35.8967 10.6973 35.8967 10.6973 35.8967 10.6973C35.8967 10.6973 35.8967 10.6973 35.8967 10.6973C35.8967 10.6973 35.8967 10.6973 35.8967 10.6973C35.8967 10.6973 35.8967 10.6973 35.8967 10.6973C35.8967 10.6973 35.8967 10.6973 35.8967 10.6973C35.8967 10.6973 35.8967 10.6973 35.8967 10.6973C35.8967 10.6973 35.8967 10.6973 35.8967 10.6973C35.8967 10.6973 35.8967 10.6973 35.8967 10.6973C35.8967 10.6973 35.8967 10.6973 35.8967 10.6973C35.8967 10.6973 35.8967 10.6973 35.8967 10.6973C35.8967 10.6973 35.8967 10.6973 35.8967 10.6973C35.8967 10.6973 35.8967 10.6973 35.8967 10.6973C35.8967 10.6973 35.8967 10.6973 35.8967 10.6973C35.8967 10.6973 35.8967 10.6973 35.8967 10.6973C35.8967 10.6973 35.8967 10.6973 35.8967 10.6973C35.8967 10.6973 35.8967 10.6973 35.8967 10.6973C35.8967 10.6973 35.8967 10.6973 35.8967 10.6973C35.8967 10.6973 35.8967 10.6973 35.8967 10.6973C35.8967 10.6973 35.8967 10.6973 35.8967 10.6973C35.8967 10.6973 35.8967 10.6973 35.8967 10.6973C35.8967 10.6973 35.8967 10.6973 35.8967 10.6973C35.8967 10.6973 35.8967 10.6973 35.8967 10.6973C35.8967 10.6973 35.8967 10.6973 35.8967 10.6973C35.8967 10.6973 35.8967 10.6973 35.8967 10.6973C35.8967 10.6973 35.8967 10.6973 35.8967 10.6973C35.8967 10.6973 35.8967 10.6973 35.8967 10.6973C35.8967 10.6973 35.8967 10.6973 35.8967 10.6973C35.8967 10.6973 35.8967 10.6973 35.8967 10.6973C35.8967 10.6973 35.8967 10.6973 35.8967 10.6973C35.8967 10.6973 35.8967 10.6973 35.8967 10.6973C35.8967 10.6973 35.8967 10.6973 35.8967 10.6973C35.8967 10.6973 35.8967 10.6973 35.8967 10.6973C35.8967 10.6973 35.8967 10.6973 35.8967 10.6973C35.8967 10.6973 35.8967 10.6973 35.8967 10.6973C35.8967 10.6973 35.8967 10.6973 35.8967 10.6973C35.8967 10.6973 35.8967 10.6973 35.8967 10.6973C35.8967 10.6973 35.8967 10.6973 35.8967 10.6973C35.8967 10.6973 35.8967 10.6973 35.8967 10.6973C35.8967 10.6973 35.8967 10.6973 35.8967 10.6973C35.8967 10.6973 35.8967 10.6973 35.8967 10.6973C35.8967 10.6973 35.8967 10.6973 35.8967 10.6973C35.8967 10.6973 35.8967 10.6973 35.8967 10.6973C35.8967 10.6973 35.8967 10.6973 35.8967 10.6973C35.8967 10.6973 35.8967 10.6973 35.8967 10.6973C35.8967 10.6973 35.8967 10.6973 35.8967 10.6973C35.8967 10.6973 35.8967 10.6973 35.8967 10.6973C35.8967 10.6973 35.8967 10.6973 35.8967 10.6973C35.8967 10.6973 35.8967 10.6973 35.8967 10.6973C35.8967 10.6973 35.8967 10.6973 35.8967 10.6973C35.8967 10.6973 35.8967 10.6973 35.8967 10.6973C35.8967 10.6973 35.8967 10.6973 35.8967 10.6973C35.8967 10.6973 35.8967 10.6973 35.8967 10.6973C35.8967 10.6973 35.8967 10.6973 35.8967 10.6973C35.8967 10.6973 35.8967 10.6973 35.8967 10.6973C35.8967 10.6973 35.8967 10.6973 35.8967 10.6973C35.8967 10.6973 35.8967 10.6973 35.8967 10.6973C35.8967 10.6973 35.8967 10.6973 35.8967 10.6973C35.8967 10.6973 35.8967 10.6973 35.8967 10.6973C35.8967 10.6973 35.8967 10.6973 35.8967 10.6973C35.8967 10.6973 35.8967 10.6973 35.8967 10.6973C35.8967 10.6973 35.8967 10.6973 35.8967 10.6973C35.8967 10.6973 35.8967 10.6973 35.8967 10.6973C35.8967 10.6973 35.8967 10.6973 35.8967 10.6973C35.8967 10.6973 35.8967 10.6973 35.8967 10.6973C35.8967 10.6973 35.8967 10.6973 35.8967 10.6973C35.8967 10.6973 35.8967 10.6973 35.8967 10.6973C35.8967 10.6973 35.8967 10.6973 35.8967 10.6973C35.8967 10.6973 35.8967 10.6973 35.8967 10.6973C35.8967 10.6973 35.8967 10.6973 35.8967 10.6973C35.8967 10.6973 35.8967 10.6973 35.8967 10.6973C35.8967 10.6973 35.8967 10.6973 35.8967 10.6973C35.8967 10.6973 35.8967 10.6973 35.8967 10.6973C35.8967 10.6973 35.8967 10.6973 35.8967 10.6973C35.8967 10.6973 35.8967 10.6973 35.8967 10.6973C35.8967 10.6973 35.8967 10.6973 35.8967 10.6973C35.8967 10.6973 35.8967 10.6973 35.8967 10.6973C35.8967 10.6973 35.8967 10.6973 35.8967 10.6973C35.8967 10.6973 35.8967 10.6973 35.8967 10.6973C35.8967 10.6973 35.8967 10.6973 35.8967 10.6973C35.8967 10.6973 35.8967 10.6973 35.8967 10.6973C35.8967 10.6973 35.8967 10.6973 35.8967 10.6973C35.8967 10.6973 35.8967 10.6973 35.8967 10.6973C35.8967 10.6973 35.8967 10.6973 35.8967 10.6973C35.8967 10.6973 35.8967 10.6973 35.8967 10.6973C35.8967 10.6973 35.8967 10.6973 35.8967 10.6973C35.8967 10.6973 35.8967 10.6973 35.8967 10.6973C35.8967 10.6973 35.8967 10.6973 35.8967 10.6973C35.8967 10.6973 35.8967 10.6973 35.8967 10.6973C35.8967 10.6973 35.8967 10.6973 35.8967 10.6973C35.8967 10.6973 35.8967 10.6973 35.8967 10.6973C35.8967 10.6973 35.8967 10.6973 35.8967 10.6973C35.8967 10.6973 35.8967 10.6973 35.8967 10.6973C35.8967 10.6973 35.8967 10.6973 35.8967 10.6973C35.8967 10.6973 35.8967 10.6973 35.8967 10.6973C35.8967 10.6973 35.8967 10.6973 35.8968 10.6973C35.8968 10.6973 35.8968 10.6973 35.8968 10.6973C35.8968 10.6973 35.8968 10.6973 35.8968 10.6973C35.8968 10.6973 35.8968 10.6973 35.8968 10.6973C35.8968 10.6973 35.8968 10.6973 35.8968 10.6973C35.8968 10.6973 35.8968 10.6973 35.8968 10.6973C35.8968 10.6973 35.8968 10.6973 35.8968 10.6973C35.8968 10.6973 35.8968 10.6973 35.8968 10.6973C35.8968 10.6973 35.8968 10.6973 35.8968 10.6973C35.8968 10.6973 35.8968 10.6973 35.8968 10.6973C35.8968 10.6973 35.8968 10.6973 35.8968 10.6973C35.8968 10.6973 35.8968 10.6973 35.8968 10.6973C35.8968 10.6973 35.8968 10.6973 35.8968 10.6973C35.8968 10.6973 35.8968 10.6973 35.8968 10.6973C35.8968 10.6973 35.8968 10.6973 35.8968 10.6973C35.8968 10.6973 35.8968 10.6973 35.8968 10.6973C35.8968 10.6973 35.8968 10.6973 35.8968 10.6973C35.8968 10.6973 35.8968 10.6973 35.8968 10.6973C35.8968 10.6973 35.8968 10.6973 35.8968 10.6973C35.8968 10.6973 35.8968 10.6973 35.8968 10.6973C35.8968 10.6973 35.8968 10.6973 35.8968 10.6973C35.8968 10.6973 35.8968 10.6973 35.8968 10.6973C35.8968 10.6973 35.8968 10.6973 35.8968 10.6973C35.8968 10.6973 35.8968 10.6973 35.8968 10.6973C35.8968 10.6973 35.8968 10.6973 35.8968 10.6973C35.8968 10.6973 35.8968 10.6973 35.8968 10.6973C35.8968 10.6973 35.8968 10.6973 35.8968 10.6973C35.8968 10.6973 35.8968 10.6973 35.8968 10.6973C35.8968 10.6973 35.8968 10.6973 35.8968 10.6973C35.8968 10.6973 35.8968 10.6973 35.8968 10.6973C35.8968 10.6973 35.8968 10.6973 35.8968 10.6973C35.8968 10.6973 35.8968 10.6973 35.8968 10.6973C35.8968 10.6973 35.8968 10.6973 35.8968 10.6973C35.8968 10.6973 35.8968 10.6973 35.8968 10.6973C35.8968 10.6973 35.8968 10.6973 35.8968 10.6973C35.8968 10.6973 35.8968 10.6973 35.8968 10.6973C35.8968 10.6973 35.8968 10.6973 35.8968 10.6973C35.8968 10.6973 35.8968 10.6973 35.8968 10.6973C35.8968 10.6973 35.8968 10.6973 35.8968 10.6973C35.8968 10.6973 35.8968 10.6973 35.8968 10.6973C35.8968 10.6973 35.8968 10.6973 35.8968 10.6973C35.8968 10.6973 35.8968 10.6973 35.8968 10.6973C35.8968 10.6973 35.8968 10.6973 35.8968 10.6973C35.8968 10.6973 35.8968 10.6973 35.8968 10.6973C35.8968 10.6973 35.8968 10.6973 35.8968 10.6973C35.8968 10.6973 35.8968 10.6973 35.8968 10.6973C35.8968 10.6973 35.8968 10.6973 35.8968 10.6973C35.8968 10.6973 35.8968 10.6973 35.8968 10.6973C35.8968 10.6973 35.8968 10.6973 35.8968 10.6973C35.8968 10.6973 35.8968 10.6973 35.8968 10.6973C35.8968 10.6973 35.8968 10.6973 35.8968 10.6973C35.8968 10.6973 35.8968 10.6973 35.8968 10.6973C35.8968 10.6973 35.8968 10.6973 35.8968 10.6973C35.8968 10.6973 35.8968 10.6973 35.8968 10.6973C35.8968 10.6973 35.8968 10.6973 35.8968 10.6973C35.8968 10.6973 35.8968 10.6973 35.8968 10.6973C35.8968 10.6973 35.8968 10.6973 35.8968 10.6973C35.8968 10.6973 35.8968 10.6973 35.8968 10.6973C35.8968 10.6973 35.8968 10.6973 35.8968 10.6973C35.8968 10.6973 35.8968 10.6973 35.8968 10.6973C35.8968 10.6973 35.8968 10.6973 35.8968 10.6973C35.8968 10.6973 35.8968 10.6973 35.8968 10.6973C35.8968 10.6973 35.8968 10.6973 35.8968 10.6973C35.8968 10.6973 35.8968 10.6973 35.8968 10.6973C35.8968 10.6973 35.8968 10.6973 35.8968 10.6973C35.8968 10.6973 35.8968 10.6973 35.8968 10.6973C35.8968 10.6973 35.8968 10.6973 35.8968 10.6973C35.8968 10.6973 35.8968 10.6973 35.8968 10.6973C35.8968 10.6973 35.8968 10.6973 35.8968 10.6973C35.8968 10.6973 35.8968 10.6973 35.8968 10.6973C35.8968 10.6973 35.8968 10.6973 35.8968 10.6973C35.8968 10.6973 35.8968 10.6973 35.8968 10.6973C35.8968 10.6973 35.8968 10.6973 35.8968 10.6973C35.8968 10.6973 35.8968 10.6973 35.8968 10.6973C35.8968 10.6973 35.8968 10.6973 35.8968 10.6973C35.8968 10.6973 35.8968 10.6973 35.8968 10.6973C35.8968 10.6973 35.8968 10.6973 35.8968 10.6973C35.8968 10.6973 35.8968 10.6973 35.8968 10.6973C35.8968 10.6973 35.8968 10.6973 35.8968 10.6973C35.8968 10.6973 35.8968 10.6973 35.8968 10.6973C35.8968 10.6973 35.8968 10.6973 35.8968 10.6973C35.8968 10.6973 35.8968 10.6973 35.8968 10.6973C35.8968 10.6973 35.8968 10.6973 35.8968 10.6973C35.8968 10.6973 35.8968 10.6973 35.8968 10.6973C35.8968 10.6973 35.8968 10.6973 35.8968 10.6973C35.8968 10.6973 35.8968 10.6973 35.8968 10.6973C35.8968 10.6973 35.8968 10.6973 35.8968 10.6973C35.8968 10.6973 35.8968 10.6973 35.8968 10.6973C35.8968 10.6973 35.8968 10.6973 35.8968 10.6973C35.8968 10.6973 35.8968 10.6973 35.8968 10.6973C35.8968 10.6973 35.8968 10.6973 35.8968 10.6973C35.8968 10.6973 35.8968 10.6973 35.8968 10.6973C35.8968 10.6973 35.8968 10.6973 35.8968 10.6973C35.8968 10.6973 35.8968 10.6973 35.8968 10.6973C35.8968 10.6973 35.8968 10.6973 35.8968 10.6973C35.8968 10.6973 35.8968 10.6973 35.8968 10.6973C35.8968 10.6973 35.8968 10.6973 35.8968 10.6973C35.8968 10.6973 35.8968 10.6973 35.8968 10.6973C35.8968 10.6973 35.8968 10.6973 35.8968 10.6973C35.8968 10.6973 35.8968 10.6973 35.8968 10.6973C35.8968 10.6973 35.8968 10.6973 35.8968 10.6973C35.8968 10.6973 35.8968 10.6973 35.8968 10.6973C35.8968 10.6973 35.8968 10.6973 35.8968 10.6973C35.8968 10.6973 35.8968 10.6973 35.8968 10.6973C35.8968 10.6973 35.8968 10.6973 35.8968 10.6973C35.8968 10.6973 35.8968 10.6973 35.8968 10.6973C35.8968 10.6973 35.8968 10.6973 35.8968 10.6973C35.8968 10.6973 35.8968 10.6973 35.8968 10.6973C35.8968 10.6973 35.8968 10.6973 35.8968 10.6973C35.8968 10.6973 35.8968 10.6973 35.8968 10.6973C35.8968 10.6973 35.8968 10.6973 35.8968 10.6973C35.8968 10.6973 35.8968 10.6973 35.8968 10.6973C35.8968 10.6973 35.8968 10.6973 35.8968 10.6973C35.8968 10.6973 35.8968 10.6973 35.8968 10.6973C35.8968 10.6973 35.8968 10.6973 35.8968 10.6973C35.8968 10.6973 35.8968 10.6973 35.8968 10.6973C35.8968 10.6973 35.8968 10.6973 35.8968 10.6973C35.8968 10.6973 35.8968 10.6973 35.8968 10.6973C35.8968 10.6973 35.8968 10.6973 35.8968 10.6973C35.8968 10.6973 35.8968 10.6973 35.8968 10.6973C35.8968 10.6973 35.8968 10.6973 35.8968 10.6973C35.8968 10.6973 35.8968 10.6973 35.8968 10.6973C35.8968 10.6973 35.8968 10.6973 35.8968 10.6973V8.19727C35.8968 8.19727 35.8968 8.19727 35.8968 8.19727C35.8968 8.19727 35.8968 8.19727 35.8968 8.19727C35.8968 8.19727 35.8968 8.19727 35.8968 8.19727C35.8968 8.19727 35.8968 8.19727 35.8968 8.19727C35.8968 8.19727 35.8968 8.19727 35.8968 8.19727C35.8968 8.19727 35.8968 8.19727 35.8968 8.19727C35.8968 8.19727 35.8968 8.19727 35.8968 8.19727C35.8968 8.19727 35.8968 8.19727 35.8968 8.19727C35.8968 8.19727 35.8968 8.19727 35.8968 8.19727C35.8968 8.19727 35.8968 8.19727 35.8968 8.19727C35.8968 8.19727 35.8968 8.19727 35.8968 8.19727C35.8968 8.19727 35.8968 8.19727 35.8968 8.19727C35.8968 8.19727 35.8968 8.19727 35.8968 8.19727C35.8968 8.19727 35.8968 8.19727 35.8968 8.19727C35.8968 8.19727 35.8968 8.19727 35.8968 8.19727C35.8968 8.19727 35.8968 8.19727 35.8968 8.19727C35.8968 8.19727 35.8968 8.19727 35.8968 8.19727C35.8968 8.19727 35.8968 8.19727 35.8968 8.19727C35.8968 8.19727 35.8968 8.19727 35.8968 8.19727C35.8968 8.19727 35.8968 8.19727 35.8968 8.19727C35.8968 8.19727 35.8968 8.19727 35.8968 8.19727C35.8968 8.19727 35.8968 8.19727 35.8968 8.19727C35.8968 8.19727 35.8968 8.19727 35.8968 8.19727C35.8968 8.19727 35.8968 8.19727 35.8968 8.19727C35.8968 8.19727 35.8968 8.19727 35.8968 8.19727C35.8968 8.19727 35.8968 8.19727 35.8968 8.19727C35.8968 8.19727 35.8968 8.19727 35.8968 8.19727C35.8968 8.19727 35.8968 8.19727 35.8968 8.19727C35.8968 8.19727 35.8968 8.19727 35.8968 8.19727C35.8968 8.19727 35.8968 8.19727 35.8968 8.19727C35.8968 8.19727 35.8968 8.19727 35.8968 8.19727C35.8968 8.19727 35.8968 8.19727 35.8968 8.19727C35.8968 8.19727 35.8968 8.19727 35.8968 8.19727C35.8968 8.19727 35.8968 8.19727 35.8968 8.19727C35.8968 8.19727 35.8968 8.19727 35.8968 8.19727C35.8968 8.19727 35.8968 8.19727 35.8968 8.19727C35.8968 8.19727 35.8968 8.19727 35.8968 8.19727C35.8968 8.19727 35.8968 8.19727 35.8968 8.19727C35.8968 8.19727 35.8968 8.19727 35.8968 8.19727C35.8968 8.19727 35.8968 8.19727 35.8968 8.19727C35.8968 8.19727 35.8968 8.19727 35.8968 8.19727C35.8968 8.19727 35.8968 8.19727 35.8968 8.19727C35.8968 8.19727 35.8968 8.19727 35.8968 8.19727C35.8968 8.19727 35.8968 8.19727 35.8968 8.19727C35.8968 8.19727 35.8968 8.19727 35.8968 8.19727C35.8968 8.19727 35.8968 8.19727 35.8968 8.19727C35.8968 8.19727 35.8968 8.19727 35.8968 8.19727C35.8968 8.19727 35.8968 8.19727 35.8968 8.19727C35.8968 8.19727 35.8968 8.19727 35.8968 8.19727C35.8968 8.19727 35.8968 8.19727 35.8968 8.19727C35.8968 8.19727 35.8968 8.19727 35.8968 8.19727C35.8968 8.19727 35.8968 8.19727 35.8968 8.19727C35.8968 8.19727 35.8968 8.19727 35.8968 8.19727C35.8968 8.19727 35.8968 8.19727 35.8968 8.19727C35.8968 8.19727 35.8968 8.19727 35.8968 8.19727C35.8968 8.19727 35.8968 8.19727 35.8968 8.19727C35.8968 8.19727 35.8968 8.19727 35.8968 8.19727C35.8968 8.19727 35.8968 8.19727 35.8968 8.19727C35.8968 8.19727 35.8968 8.19727 35.8968 8.19727C35.8968 8.19727 35.8968 8.19727 35.8968 8.19727C35.8968 8.19727 35.8968 8.19727 35.8968 8.19727C35.8968 8.19727 35.8968 8.19727 35.8968 8.19727C35.8968 8.19727 35.8968 8.19727 35.8968 8.19727C35.8968 8.19727 35.8968 8.19727 35.8968 8.19727C35.8968 8.19727 35.8968 8.19727 35.8968 8.19727C35.8968 8.19727 35.8968 8.19727 35.8968 8.19727C35.8968 8.19727 35.8968 8.19727 35.8968 8.19727C35.8968 8.19727 35.8968 8.19727 35.8968 8.19727C35.8968 8.19727 35.8968 8.19727 35.8968 8.19727C35.8968 8.19727 35.8968 8.19727 35.8968 8.19727C35.8968 8.19727 35.8968 8.19727 35.8968 8.19727C35.8968 8.19727 35.8968 8.19727 35.8968 8.19727C35.8968 8.19727 35.8968 8.19727 35.8968 8.19727C35.8968 8.19727 35.8968 8.19727 35.8968 8.19727C35.8968 8.19727 35.8968 8.19727 35.8968 8.19727C35.8968 8.19727 35.8968 8.19727 35.8968 8.19727C35.8968 8.19727 35.8968 8.19727 35.8968 8.19727C35.8968 8.19727 35.8968 8.19727 35.8968 8.19727C35.8968 8.19727 35.8968 8.19727 35.8968 8.19727C35.8968 8.19727 35.8968 8.19727 35.8968 8.19727C35.8968 8.19727 35.8968 8.19727 35.8968 8.19727C35.8968 8.19727 35.8968 8.19727 35.8968 8.19727C35.8968 8.19727 35.8968 8.19727 35.8968 8.19727C35.8968 8.19727 35.8968 8.19727 35.8968 8.19727C35.8968 8.19727 35.8968 8.19727 35.8968 8.19727C35.8968 8.19727 35.8968 8.19727 35.8968 8.19727C35.8968 8.19727 35.8968 8.19727 35.8968 8.19727C35.8968 8.19727 35.8968 8.19727 35.8968 8.19727C35.8968 8.19727 35.8968 8.19727 35.8968 8.19727C35.8968 8.19727 35.8968 8.19727 35.8968 8.19727C35.8968 8.19727 35.8968 8.19727 35.8968 8.19727C35.8968 8.19727 35.8968 8.19727 35.8968 8.19727C35.8968 8.19727 35.8968 8.19727 35.8968 8.19727C35.8968 8.19727 35.8968 8.19727 35.8968 8.19727C35.8968 8.19727 35.8968 8.19727 35.8968 8.19727C35.8968 8.19727 35.8968 8.19727 35.8968 8.19727C35.8968 8.19727 35.8968 8.19727 35.8968 8.19727C35.8968 8.19727 35.8968 8.19727 35.8968 8.19727C35.8968 8.19727 35.8968 8.19727 35.8968 8.19727C35.8968 8.19727 35.8968 8.19727 35.8968 8.19727C35.8968 8.19727 35.8968 8.19727 35.8968 8.19727C35.8968 8.19727 35.8968 8.19727 35.8968 8.19727C35.8968 8.19727 35.8968 8.19727 35.8968 8.19727C35.8968 8.19727 35.8968 8.19727 35.8968 8.19727C35.8968 8.19727 35.8968 8.19727 35.8968 8.19727C35.8968 8.19727 35.8968 8.19727 35.8968 8.19727C35.8968 8.19727 35.8968 8.19727 35.8968 8.19727C35.8968 8.19727 35.8968 8.19727 35.8968 8.19727C35.8968 8.19727 35.8968 8.19727 35.8968 8.19727C35.8968 8.19727 35.8968 8.19727 35.8968 8.19727C35.8968 8.19727 35.8968 8.19727 35.8968 8.19727C35.8968 8.19727 35.8968 8.19727 35.8968 8.19727C35.8968 8.19727 35.8968 8.19727 35.8968 8.19727C35.8968 8.19727 35.8968 8.19727 35.8968 8.19727C35.8968 8.19727 35.8968 8.19727 35.8968 8.19727C35.8968 8.19727 35.8968 8.19727 35.8968 8.19727C35.8968 8.19727 35.8968 8.19727 35.8968 8.19727C35.8968 8.19727 35.8968 8.19727 35.8968 8.19727C35.8968 8.19727 35.8968 8.19727 35.8968 8.19727C35.8968 8.19727 35.8968 8.19727 35.8968 8.19727C35.8968 8.19727 35.8968 8.19727 35.8968 8.19727C35.8968 8.19727 35.8968 8.19727 35.8968 8.19727C35.8967 8.19727 35.8967 8.19727 35.8967 8.19727C35.8967 8.19727 35.8967 8.19727 35.8967 8.19727C35.8967 8.19727 35.8967 8.19727 35.8967 8.19727C35.8967 8.19727 35.8967 8.19727 35.8967 8.19727C35.8967 8.19727 35.8967 8.19727 35.8967 8.19727C35.8967 8.19727 35.8967 8.19727 35.8967 8.19727C35.8967 8.19727 35.8967 8.19727 35.8967 8.19727C35.8967 8.19727 35.8967 8.19727 35.8967 8.19727C35.8967 8.19727 35.8967 8.19727 35.8967 8.19727C35.8967 8.19727 35.8967 8.19727 35.8967 8.19727C35.8967 8.19727 35.8967 8.19727 35.8967 8.19727C35.8967 8.19727 35.8967 8.19727 35.8967 8.19727C35.8967 8.19727 35.8967 8.19727 35.8967 8.19727C35.8967 8.19727 35.8967 8.19727 35.8967 8.19727C35.8967 8.19727 35.8967 8.19727 35.8967 8.19727C35.8967 8.19727 35.8967 8.19727 35.8967 8.19727C35.8967 8.19727 35.8967 8.19727 35.8967 8.19727C35.8967 8.19727 35.8967 8.19727 35.8967 8.19727C35.8967 8.19727 35.8967 8.19727 35.8967 8.19727C35.8967 8.19727 35.8967 8.19727 35.8967 8.19727C35.8967 8.19727 35.8967 8.19727 35.8967 8.19727C35.8967 8.19727 35.8967 8.19727 35.8967 8.19727C35.8967 8.19727 35.8967 8.19727 35.8967 8.19727C35.8967 8.19727 35.8967 8.19727 35.8967 8.19727C35.8967 8.19727 35.8967 8.19727 35.8967 8.19727C35.8967 8.19727 35.8967 8.19727 35.8967 8.19727C35.8967 8.19727 35.8967 8.19727 35.8967 8.19727C35.8967 8.19727 35.8967 8.19727 35.8967 8.19727C35.8967 8.19727 35.8967 8.19727 35.8967 8.19727C35.8967 8.19727 35.8967 8.19727 35.8967 8.19727C35.8967 8.19727 35.8967 8.19727 35.8967 8.19727C35.8967 8.19727 35.8967 8.19727 35.8967 8.19727C35.8967 8.19727 35.8967 8.19727 35.8967 8.19727C35.8967 8.19727 35.8967 8.19727 35.8967 8.19727C35.8967 8.19727 35.8967 8.19727 35.8967 8.19727C35.8967 8.19727 35.8967 8.19727 35.8967 8.19727C35.8967 8.19727 35.8967 8.19727 35.8967 8.19727C35.8967 8.19727 35.8967 8.19727 35.8967 8.19727C35.8967 8.19727 35.8967 8.19727 35.8967 8.19727C35.8967 8.19727 35.8967 8.19727 35.8967 8.19727C35.8967 8.19727 35.8967 8.19727 35.8967 8.19727C35.8967 8.19727 35.8967 8.19727 35.8967 8.19727C35.8967 8.19727 35.8967 8.19727 35.8967 8.19727C35.8967 8.19727 35.8967 8.19727 35.8967 8.19727C35.8967 8.19727 35.8967 8.19727 35.8967 8.19727C35.8967 8.19727 35.8967 8.19727 35.8967 8.19727C35.8967 8.19727 35.8967 8.19727 35.8967 8.19727C35.8967 8.19727 35.8967 8.19727 35.8967 8.19727C35.8967 8.19727 35.8967 8.19727 35.8967 8.19727C35.8967 8.19727 35.8967 8.19727 35.8967 8.19727C35.8967 8.19727 35.8967 8.19727 35.8967 8.19727C35.8967 8.19727 35.8967 8.19727 35.8967 8.19727C35.8967 8.19727 35.8967 8.19727 35.8967 8.19727C35.8967 8.19727 35.8967 8.19727 35.8967 8.19727C35.8967 8.19727 35.8967 8.19727 35.8967 8.19727C35.8967 8.19727 35.8967 8.19727 35.8967 8.19727C35.8967 8.19727 35.8967 8.19727 35.8967 8.19727C35.8967 8.19727 35.8967 8.19727 35.8967 8.19727C35.8967 8.19727 35.8967 8.19727 35.8967 8.19727C35.8967 8.19727 35.8967 8.19727 35.8967 8.19727C35.8967 8.19727 35.8967 8.19727 35.8967 8.19727C35.8967 8.19727 35.8967 8.19727 35.8967 8.19727C35.8967 8.19727 35.8967 8.19727 35.8967 8.19727C35.8967 8.19727 35.8967 8.19727 35.8967 8.19727C35.8967 8.19727 35.8967 8.19727 35.8967 8.19727C35.8967 8.19727 35.8967 8.19727 35.8967 8.19727C35.8967 8.19727 35.8967 8.19727 35.8967 8.19727C35.8967 8.19727 35.8967 8.19727 35.8967 8.19727C35.8967 8.19727 35.8967 8.19727 35.8967 8.19727C35.8967 8.19727 35.8967 8.19727 35.8967 8.19727C35.8967 8.19727 35.8967 8.19727 35.8967 8.19727C35.8967 8.19727 35.8967 8.19727 35.8967 8.19727C35.8967 8.19727 35.8967 8.19727 35.8967 8.19727C35.8967 8.19727 35.8967 8.19727 35.8967 8.19727C35.8967 8.19727 35.8967 8.19727 35.8967 8.19727C35.8967 8.19727 35.8967 8.19727 35.8967 8.19727C35.8967 8.19727 35.8967 8.19727 35.8967 8.19727C35.8967 8.19727 35.8967 8.19727 35.8967 8.19727C35.8967 8.19727 35.8967 8.19727 35.8967 8.19727C35.8967 8.19727 35.8967 8.19727 35.8967 8.19727C35.8967 8.19727 35.8967 8.19727 35.8967 8.19727C35.8967 8.19727 35.8967 8.19727 35.8967 8.19727C35.8967 8.19727 35.8967 8.19727 35.8967 8.19727C35.8967 8.19727 35.8967 8.19727 35.8967 8.19727C35.8967 8.19727 35.8967 8.19727 35.8967 8.19727C35.8967 8.19727 35.8967 8.19727 35.8967 8.19727C35.8967 8.19727 35.8967 8.19727 35.8967 8.19727C35.8967 8.19727 35.8967 8.19727 35.8967 8.19727C35.8967 8.19727 35.8967 8.19727 35.8967 8.19727C35.8967 8.19727 35.8967 8.19727 35.8967 8.19727C35.8967 8.19727 35.8967 8.19727 35.8967 8.19727C35.8967 8.19727 35.8967 8.19727 35.8967 8.19727C35.8967 8.19727 35.8967 8.19727 35.8967 8.19727C35.8967 8.19727 35.8967 8.19727 35.8967 8.19727C35.8967 8.19727 35.8967 8.19727 35.8967 8.19727C35.8967 8.19727 35.8967 8.19727 35.8967 8.19727C35.8967 8.19727 35.8967 8.19727 35.8967 8.19727C35.8967 8.19727 35.8967 8.19727 35.8967 8.19727C35.8967 8.19727 35.8967 8.19727 35.8967 8.19727C35.8967 8.19727 35.8967 8.19727 35.8967 8.19727C35.8967 8.19727 35.8967 8.19727 35.8967 8.19727C35.8967 8.19727 35.8967 8.19727 35.8967 8.19727C35.8967 8.19727 35.8967 8.19727 35.8967 8.19727C35.8967 8.19727 35.8967 8.19727 35.8967 8.19727C35.8967 8.19727 35.8967 8.19727 35.8967 8.19727C35.8967 8.19727 35.8967 8.19727 35.8967 8.19727C35.8967 8.19727 35.8967 8.19727 35.8967 8.19727C35.8967 8.19727 35.8967 8.19727 35.8967 8.19727C35.8967 8.19727 35.8967 8.19727 35.8967 8.19727C35.8967 8.19727 35.8967 8.19727 35.8967 8.19727C35.8967 8.19727 35.8967 8.19727 35.8967 8.19727C35.8967 8.19727 35.8967 8.19727 35.8967 8.19727C35.8967 8.19727 35.8967 8.19727 35.8967 8.19727C35.8967 8.19727 35.8967 8.19727 35.8967 8.19727C35.8967 8.19727 35.8967 8.19727 35.8967 8.19727C35.8967 8.19727 35.8967 8.19727 35.8967 8.19727C35.8967 8.19727 35.8967 8.19727 35.8967 8.19727C35.8967 8.19727 35.8967 8.19727 35.8967 8.19727C35.8967 8.19727 35.8967 8.19727 35.8967 8.19727C35.8967 8.19727 35.8967 8.19727 35.8967 8.19727C35.8967 8.19727 35.8967 8.19727 35.8967 8.19727C35.8967 8.19727 35.8967 8.19727 35.8967 8.19727C35.8967 8.19727 35.8967 8.19727 35.8967 8.19727C35.8967 8.19727 35.8967 8.19727 35.8967 8.19727C35.8967 8.19727 35.8967 8.19727 35.8967 8.19727C35.8967 8.19727 35.8967 8.19727 35.8967 8.19727C35.8967 8.19727 35.8967 8.19727 35.8967 8.19727C35.8967 8.19727 35.8967 8.19727 35.8967 8.19727C35.8967 8.19727 35.8967 8.19727 35.8967 8.19727C35.8967 8.19727 35.8967 8.19727 35.8967 8.19727C35.8967 8.19727 35.8967 8.19727 35.8967 8.19727C35.8967 8.19727 35.8967 8.19727 35.8967 8.19727C35.8967 8.19727 35.8967 8.19727 35.8967 8.19727C35.8967 8.19727 35.8967 8.19727 35.8967 8.19727C35.8967 8.19727 35.8967 8.19727 35.8967 8.19727C35.8967 8.19727 35.8967 8.19727 35.8967 8.19727C35.8967 8.19727 35.8967 8.19727 35.8967 8.19727C35.8967 8.19727 35.8967 8.19727 35.8967 8.19727C35.8967 8.19727 35.8967 8.19727 35.8967 8.19727C35.8967 8.19727 35.8967 8.19727 35.8967 8.19727C35.8967 8.19727 35.8967 8.19727 35.8967 8.19727C35.8967 8.19727 35.8967 8.19727 35.8967 8.19727C35.8967 8.19727 35.8967 8.19727 35.8967 8.19727C35.8967 8.19727 35.8967 8.19727 35.8967 8.19727C35.8967 8.19727 35.8967 8.19727 35.8967 8.19727C35.8967 8.19727 35.8967 8.19727 35.8967 8.19727C35.8967 8.19727 35.8967 8.19727 35.8967 8.19727C35.8967 8.19727 35.8967 8.19727 35.8967 8.19727C35.8967 8.19727 35.8967 8.19727 35.8967 8.19727C35.8967 8.19727 35.8967 8.19727 35.8967 8.19727C35.8967 8.19727 35.8967 8.19727 35.8967 8.19727C35.8967 8.19727 35.8967 8.19727 35.8967 8.19727C35.8967 8.19727 35.8967 8.19727 35.8967 8.19727C35.8967 8.19727 35.8967 8.19727 35.8967 8.19727C35.8967 8.19727 35.8967 8.19727 35.8967 8.19727C35.8967 8.19727 35.8967 8.19727 35.8967 8.19727C35.8967 8.19727 35.8967 8.19727 35.8967 8.19727C35.8967 8.19727 35.8967 8.19727 35.8967 8.19727C35.8967 8.19727 35.8967 8.19727 35.8967 8.19727C35.8967 8.19727 35.8967 8.19727 35.8967 8.19727C35.8967 8.19727 35.8967 8.19727 35.8967 8.19727C35.8967 8.19727 35.8967 8.19727 35.8967 8.19727C35.8967 8.19727 35.8967 8.19727 35.8967 8.19727C35.8967 8.19727 35.8967 8.19727 35.8967 8.19727C35.8967 8.19727 35.8967 8.19727 35.8967 8.19727C35.8967 8.19727 35.8967 8.19727 35.8967 8.19727C35.8967 8.19727 35.8967 8.19727 35.8967 8.19727C35.8967 8.19727 35.8967 8.19727 35.8967 8.19727C35.8967 8.19727 35.8967 8.19727 35.8967 8.19727C35.8967 8.19727 35.8967 8.19727 35.8967 8.19727C35.8967 8.19727 35.8967 8.19727 35.8967 8.19727C35.8967 8.19727 35.8967 8.19727 35.8967 8.19727C35.8967 8.19727 35.8967 8.19727 35.8967 8.19727C35.8967 8.19727 35.8967 8.19727 35.8967 8.19727C35.8967 8.19727 35.8967 8.19727 35.8967 8.19727C35.8967 8.19727 35.8967 8.19727 35.8967 8.19727C35.8967 8.19727 35.8967 8.19727 35.8967 8.19727C35.8967 8.19727 35.8967 8.19727 35.8967 8.19727C35.8967 8.19727 35.8967 8.19727 35.8967 8.19727C35.8967 8.19727 35.8967 8.19727 35.8967 8.19727C35.8967 8.19727 35.8967 8.19727 35.8967 8.19727C35.8967 8.19727 35.8967 8.19727 35.8967 8.19727C35.8967 8.19727 35.8967 8.19727 35.8967 8.19727C35.8967 8.19727 35.8967 8.19727 35.8967 8.19727C35.8967 8.19727 35.8967 8.19727 35.8967 8.19727C35.8967 8.19727 35.8967 8.19727 35.8967 8.19727C35.8967 8.19727 35.8967 8.19727 35.8967 8.19727C35.8967 8.19727 35.8967 8.19727 35.8967 8.19727C35.8967 8.19727 35.8967 8.19727 35.8967 8.19727C35.8967 8.19727 35.8967 8.19727 35.8967 8.19727C35.8967 8.19727 35.8967 8.19727 35.8967 8.19727C35.8967 8.19727 35.8967 8.19727 35.8967 8.19727C35.8967 8.19727 35.8967 8.19727 35.8967 8.19727C35.8967 8.19727 35.8967 8.19727 35.8967 8.19727C35.8967 8.19727 35.8967 8.19727 35.8967 8.19727C35.8967 8.19727 35.8967 8.19727 35.8967 8.19727C35.8967 8.19727 35.8967 8.19727 35.8967 8.19727C35.8967 8.19727 35.8967 8.19727 35.8967 8.19727C35.8967 8.19727 35.8967 8.19727 35.8967 8.19727C35.8967 8.19727 35.8967 8.19727 35.8967 8.19727C35.8967 8.19727 35.8967 8.19727 35.8967 8.19727C35.8967 8.19727 35.8967 8.19727 35.8967 8.19727C35.8967 8.19727 35.8967 8.19727 35.8967 8.19727C35.8967 8.19727 35.8967 8.19727 35.8967 8.19727C35.8967 8.19727 35.8967 8.19727 35.8967 8.19727C35.8967 8.19727 35.8967 8.19727 35.8967 8.19727C35.8967 8.19727 35.8967 8.19727 35.8967 8.19727C35.8967 8.19727 35.8967 8.19727 35.8967 8.19727C35.8967 8.19727 35.8967 8.19727 35.8967 8.19727C35.8967 8.19727 35.8967 8.19727 35.8967 8.19727C35.8967 8.19727 35.8967 8.19727 35.8967 8.19727C35.8967 8.19727 35.8967 8.19727 35.8967 8.19727C35.8967 8.19727 35.8967 8.19727 35.8967 8.19727C35.8967 8.19727 35.8967 8.19727 35.8967 8.19727C35.8967 8.19727 35.8967 8.19727 35.8967 8.19727C35.8967 8.19727 35.8967 8.19727 35.8967 8.19727C35.8967 8.19727 35.8967 8.19727 35.8967 8.19727C35.8967 8.19727 35.8967 8.19727 35.8967 8.19727C35.8967 8.19727 35.8967 8.19727 35.8967 8.19727C35.8967 8.19727 35.8967 8.19727 35.8967 8.19727C35.8967 8.19727 35.8967 8.19727 35.8967 8.19727C35.8967 8.19727 35.8967 8.19727 35.8967 8.19727C35.8967 8.19727 35.8967 8.19727 35.8967 8.19727C35.8967 8.19727 35.8967 8.19727 35.8967 8.19727C35.8967 8.19727 35.8967 8.19727 35.8967 8.19727C35.8967 8.19727 35.8967 8.19727 35.8967 8.19727C35.8967 8.19727 35.8967 8.19727 35.8967 8.19727C35.8967 8.19727 35.8967 8.19727 35.8967 8.19727C35.8967 8.19727 35.8967 8.19727 35.8967 8.19727C35.8967 8.19727 35.8967 8.19727 35.8967 8.19727C35.8967 8.19727 35.8967 8.19727 35.8967 8.19727C35.8967 8.19727 35.8967 8.19727 35.8967 8.19727C35.8967 8.19727 35.8967 8.19727 35.8967 8.19727C35.8967 8.19727 35.8967 8.19727 35.8967 8.19727C35.8967 8.19727 35.8967 8.19727 35.8967 8.19727C35.8967 8.19727 35.8967 8.19727 35.8967 8.19727C35.8967 8.19727 35.8967 8.19727 35.8967 8.19727C35.8967 8.19727 35.8967 8.19727 35.8967 8.19727C35.8967 8.19727 35.8967 8.19727 35.8967 8.19727C35.8967 8.19727 35.8967 8.19727 35.8967 8.19727C35.8967 8.19727 35.8967 8.19727 35.8967 8.19727C35.8967 8.19727 35.8967 8.19727 35.8967 8.19727C35.8967 8.19727 35.8967 8.19727 35.8967 8.19727C35.8967 8.19727 35.8967 8.19727 35.8967 8.19727C35.8967 8.19727 35.8967 8.19727 35.8967 8.19727C35.8967 8.19727 35.8967 8.19727 35.8967 8.19727C35.8967 8.19727 35.8967 8.19727 35.8967 8.19727C35.8967 8.19727 35.8967 8.19727 35.8967 8.19727C35.8967 8.19727 35.8967 8.19727 35.8967 8.19727C35.8967 8.19727 35.8967 8.19727 35.8967 8.19727C35.8967 8.19727 35.8967 8.19727 35.8967 8.19727C35.8967 8.19727 35.8967 8.19727 35.8967 8.19727C35.8967 8.19727 35.8967 8.19727 35.8967 8.19727C35.8967 8.19727 35.8967 8.19727 35.8967 8.19727C35.8967 8.19727 35.8967 8.19727 35.8967 8.19727C35.8967 8.19727 35.8967 8.19727 35.8967 8.19727C35.8967 8.19727 35.8967 8.19727 35.8967 8.19727C35.8967 8.19727 35.8967 8.19727 35.8967 8.19727C35.8967 8.19727 35.8967 8.19727 35.8967 8.19727C35.8967 8.19727 35.8967 8.19727 35.8967 8.19727C35.8967 8.19727 35.8967 8.19727 35.8967 8.19727C35.8967 8.19727 35.8967 8.19727 35.8967 8.19727C35.8967 8.19727 35.8967 8.19727 35.8967 8.19727C35.8967 8.19727 35.8967 8.19727 35.8967 8.19727C35.8967 8.19727 35.8967 8.19727 35.8967 8.19727C35.8967 8.19727 35.8967 8.19727 35.8967 8.19727C35.8967 8.19727 35.8967 8.19727 35.8967 8.19727C35.8967 8.19727 35.8967 8.19727 35.8967 8.19727C35.8967 8.19727 35.8967 8.19727 35.8967 8.19727C35.8967 8.19727 35.8967 8.19727 35.8967 8.19727C35.8967 8.19727 35.8967 8.19727 35.8967 8.19727C35.8967 8.19727 35.8967 8.19727 35.8967 8.19727C35.8967 8.19727 35.8967 8.19727 35.8967 8.19727C35.8967 8.19727 35.8967 8.19727 35.8967 8.19727C35.8967 8.19727 35.8967 8.19727 35.8967 8.19727C35.8967 8.19727 35.8967 8.19727 35.8967 8.19727C35.8967 8.19727 35.8967 8.19727 35.8967 8.19727C35.8967 8.19727 35.8967 8.19727 35.8967 8.19727C35.8967 8.19727 35.8967 8.19727 35.8967 8.19727C35.8967 8.19727 35.8967 8.19727 35.8967 8.19727C35.8967 8.19727 35.8967 8.19727 35.8967 8.19727C35.8967 8.19727 35.8967 8.19727 35.8967 8.19727C35.8967 8.19727 35.8967 8.19727 35.8967 8.19727C35.8967 8.19727 35.8967 8.19727 35.8967 8.19727C35.8967 8.19727 35.8967 8.19727 35.8967 8.19727C35.8967 8.19727 35.8967 8.19727 35.8967 8.19727C35.8967 8.19727 35.8967 8.19727 35.8967 8.19727C35.8967 8.19727 35.8967 8.19727 35.8967 8.19727C35.8967 8.19727 35.8967 8.19727 35.8967 8.19727C35.8967 8.19727 35.8967 8.19727 35.8967 8.19727C35.8967 8.19727 35.8967 8.19727 35.8967 8.19727C35.8967 8.19727 35.8967 8.19727 35.8967 8.19727C35.8967 8.19727 35.8967 8.19727 35.8967 8.19727C35.8967 8.19727 35.8967 8.19727 35.8967 8.19727C35.8967 8.19727 35.8967 8.19727 35.8967 8.19727C35.8967 8.19727 35.8967 8.19727 35.8967 8.19727C35.8967 8.19727 35.8967 8.19727 35.8967 8.19727C35.8967 8.19727 35.8967 8.19727 35.8967 8.19727C35.8967 8.19727 35.8967 8.19727 35.8967 8.19727C35.8967 8.19727 35.8967 8.19727 35.8967 8.19727C35.8967 8.19727 35.8967 8.19727 35.8967 8.19727C35.8967 8.19727 35.8967 8.19727 35.8967 8.19727C35.8967 8.19727 35.8967 8.19727 35.8967 8.19727C35.8967 8.19727 35.8967 8.19727 35.8967 8.19727C35.8967 8.19727 35.8967 8.19727 35.8967 8.19727C35.8967 8.19727 35.8967 8.19727 35.8967 8.19727C35.8967 8.19727 35.8967 8.19727 35.8967 8.19727C35.8967 8.19727 35.8967 8.19727 35.8967 8.19727C35.8967 8.19727 35.8967 8.19727 35.8967 8.19727C35.8967 8.19727 35.8967 8.19727 35.8967 8.19727C35.8967 8.19727 35.8967 8.19727 35.8967 8.19727C35.8967 8.19727 35.8967 8.19727 35.8967 8.19727C35.8967 8.19727 35.8967 8.19727 35.8967 8.19727C35.8967 8.19727 35.8967 8.19727 35.8967 8.19727C35.8967 8.19727 35.8967 8.19727 35.8967 8.19727C35.8967 8.19727 35.8967 8.19727 35.8967 8.19727C35.8967 8.19727 35.8967 8.19727 35.8967 8.19727C35.8967 8.19727 35.8967 8.19727 35.8967 8.19727C35.8967 8.19727 35.8967 8.19727 35.8967 8.19727C35.8967 8.19727 35.8967 8.19727 35.8967 8.19727C35.8967 8.19727 35.8967 8.19727 35.8967 8.19727C35.8967 8.19727 35.8967 8.19727 35.8967 8.19727C35.8967 8.19727 35.8967 8.19727 35.8967 8.19727C35.8967 8.19727 35.8967 8.19727 35.8967 8.19727C35.8967 8.19727 35.8967 8.19727 35.8967 8.19727C35.8967 8.19727 35.8967 8.19727 35.8967 8.19727C35.8967 8.19727 35.8967 8.19727 35.8967 8.19727C35.8967 8.19727 35.8967 8.19727 35.8967 8.19727C35.8967 8.19727 35.8967 8.19727 35.8967 8.19727C35.8967 8.19727 35.8967 8.19727 35.8967 8.19727C35.8967 8.19727 35.8967 8.19727 35.8967 8.19727C35.8967 8.19727 35.8967 8.19727 35.8967 8.19727C35.8967 8.19727 35.8967 8.19727 35.8967 8.19727C35.8967 8.19727 35.8967 8.19727 35.8967 8.19727C35.8967 8.19727 35.8967 8.19727 35.8967 8.19727C35.8967 8.19727 35.8967 8.19727 35.8967 8.19727C35.8967 8.19727 35.8967 8.19727 35.8967 8.19727C35.8967 8.19727 35.8967 8.19727 35.8967 8.19727C35.8967 8.19727 35.8967 8.19727 35.8967 8.19727C35.8967 8.19727 35.8967 8.19727 35.8967 8.19727C35.8967 8.19727 35.8967 8.19727 35.8967 8.19727C35.8967 8.19727 35.8967 8.19727 35.8967 8.19727C35.8967 8.19727 35.8967 8.19727 35.8967 8.19727C35.8967 8.19727 35.8967 8.19727 35.8967 8.19727C35.8967 8.19727 35.8967 8.19727 35.8967 8.19727C35.8967 8.19727 35.8967 8.19727 35.8967 8.19727C35.8967 8.19727 35.8967 8.19727 35.8967 8.19727C35.8967 8.19727 35.8967 8.19727 35.8967 8.19727C35.8967 8.19727 35.8967 8.19727 35.8967 8.19727C35.8967 8.19727 35.8967 8.19727 35.8967 8.19727C35.8967 8.19727 35.8967 8.19727 35.8967 8.19727C35.8967 8.19727 35.8967 8.19727 35.8967 8.19727C35.8967 8.19727 35.8967 8.19727 35.8967 8.19727C35.8967 8.19727 35.8967 8.19727 35.8967 8.19727C35.8967 8.19727 35.8967 8.19727 35.8967 8.19727C35.8967 8.19727 35.8967 8.19727 35.8967 8.19727C35.8967 8.19727 35.8967 8.19727 35.8967 8.19727C35.8967 8.19727 35.8967 8.19727 35.8967 8.19727C35.8967 8.19727 35.8967 8.19727 35.8967 8.19727C35.8967 8.19727 35.8967 8.19727 35.8967 8.19727C35.8967 8.19727 35.8967 8.19727 35.8967 8.19727C35.8967 8.19727 35.8967 8.19727 35.8967 8.19727C35.8967 8.19727 35.8967 8.19727 35.8967 8.19727C35.8967 8.19727 35.8967 8.19727 35.8967 8.19727C35.8967 8.19727 35.8967 8.19727 35.8967 8.19727C35.8967 8.19727 35.8967 8.19727 35.8967 8.19727C35.8967 8.19727 35.8967 8.19727 35.8967 8.19727C35.8967 8.19727 35.8967 8.19727 35.8967 8.19727C35.8967 8.19727 35.8967 8.19727 35.8967 8.19727C35.8967 8.19727 35.8967 8.19727 35.8967 8.19727C35.8967 8.19727 35.8967 8.19727 35.8967 8.19727C35.8967 8.19727 35.8967 8.19727 35.8967 8.19727C35.8967 8.19727 35.8967 8.19727 35.8967 8.19727C35.8967 8.19727 35.8967 8.19727 35.8967 8.19727C35.8967 8.19727 35.8967 8.19727 35.8967 8.19727C35.8967 8.19727 35.8967 8.19727 35.8967 8.19727C35.8967 8.19727 35.8967 8.19727 35.8967 8.19727C35.8967 8.19727 35.8967 8.19727 35.8967 8.19727C35.8967 8.19727 35.8967 8.19727 35.8967 8.19727C35.8967 8.19727 35.8967 8.19727 35.8967 8.19727C35.8967 8.19727 35.8967 8.19727 35.8967 8.19727C35.8967 8.19727 35.8967 8.19727 35.8967 8.19727C35.8967 8.19727 35.8967 8.19727 35.8967 8.19727C35.8967 8.19727 35.8967 8.19727 35.8967 8.19727C35.8967 8.19727 35.8967 8.19727 35.8967 8.19727C35.8967 8.19727 35.8967 8.19727 35.8967 8.19727C35.8967 8.19727 35.8967 8.19727 35.8967 8.19727C35.8967 8.19727 35.8967 8.19727 35.8967 8.19727C35.8967 8.19727 35.8967 8.19727 35.8967 8.19727C35.8967 8.19727 35.8967 8.19727 35.8967 8.19727V10.6973ZM23.9996 10.6973H35.8967V8.19727H23.9996V10.6973ZM12.1016 10.6973H23.9996V8.19727H12.1016V10.6973Z" fill="var(--spectrum-global-color-gray-800, #292929)"/>
</svg>
