<svg width="48" height="48" viewBox="0 0 48 48" xmlns="http://www.w3.org/2000/svg">
<path fill-rule="evenodd" d="M28.811 26.3713C30.7745 24.9418 32.1409 22.7417 32.4657 20.2154C31.7086 20.01 30.9121 19.9004 30.09 19.9004C28.5669 19.9004 27.1316 20.2767 25.8721 20.9413C27.3011 22.4258 28.3367 24.2918 28.811 26.3713ZM26.4981 27.588C25.557 27.9196 24.5446 28.1 23.49 28.1C22.6679 28.1 21.8714 27.9904 21.1144 27.785C21.3838 25.689 22.3704 23.8175 23.82 22.4243C25.2241 23.7737 26.1937 25.5718 26.4981 27.588ZM21.7679 20.9413C20.2506 22.5176 19.1768 24.5239 18.7476 26.7594C16.5301 25.3924 14.947 23.0955 14.5419 20.4123C15.483 20.0808 16.4954 19.9004 17.55 19.9004C19.0731 19.9004 20.5084 20.2767 21.7679 20.9413ZM23.82 19.2488C25.6257 18.0794 27.7786 17.4004 30.09 17.4004C30.8919 17.4004 31.6746 17.4821 32.4304 17.6377C31.7523 13.3103 28.0077 10 23.49 10C18.9158 10 15.1342 13.3936 14.5256 17.8004C15.4895 17.5396 16.5035 17.4004 17.55 17.4004C19.8615 17.4004 22.0143 18.0794 23.82 19.2488ZM11.9417 18.851C8.39767 20.8232 6 24.6068 6 28.9504C6 35.3293 11.1711 40.5004 17.55 40.5004C19.8615 40.5004 22.0143 39.8214 23.82 38.652C25.6257 39.8214 27.7786 40.5004 30.09 40.5004C36.4689 40.5004 41.64 35.3293 41.64 28.9504C41.64 24.338 38.9364 20.357 35.0274 18.5059C34.7433 12.3796 29.6865 7.5 23.49 7.5C17.1776 7.5 12.0479 12.5639 11.9417 18.851ZM12.229 21.6291C9.96898 23.2745 8.5 25.9409 8.5 28.9504C8.5 33.9486 12.5518 38.0004 17.55 38.0004C19.0731 38.0004 20.5084 37.6241 21.7679 36.9594C19.8863 35.0047 18.6869 32.3887 18.5526 29.4945C15.395 27.9992 13.0239 25.1141 12.229 21.6291ZM23.82 35.4765C22.4275 34.1383 21.4624 32.3587 21.1496 30.3627C21.9054 30.5183 22.6882 30.6 23.49 30.6C24.5365 30.6 25.5505 30.4608 26.5144 30.2C26.2297 32.2619 25.2502 34.102 23.82 35.4765ZM25.8721 36.9594C27.8282 34.9273 29.0471 32.1805 29.0983 29.1494C32.0311 27.5173 34.1789 24.6448 34.8325 21.241C37.4172 22.8344 39.14 25.6912 39.14 28.9504C39.14 33.9486 35.0882 38.0004 30.09 38.0004C28.5669 38.0004 27.1316 37.6241 25.8721 36.9594Z" fill="var(--spectrum-global-color-gray-800, #292929)"/>
</svg>
