<svg width="160" height="160" viewBox="0 0 160 160" xmlns="http://www.w3.org/2000/svg">
<path fill-rule="evenodd" d="M135.133 32.3563C136.504 34.0888 136.211 36.6045 134.478 37.9751L94.2741 69.7809C93.0363 70.7601 91.3385 70.9199 89.9397 70.189L64.6301 56.9627L30.5894 85.8355C28.9047 87.2644 26.3805 87.0571 24.9515 85.3724C23.5226 83.6876 23.7299 81.1635 25.4147 79.7345L61.5089 49.1199C62.7503 48.0669 64.5061 47.8713 65.9489 48.6253L91.3454 61.897L129.515 31.701C131.247 30.3304 133.763 30.6238 135.133 32.3563ZM114.041 72.5099C114.041 66.5028 118.911 61.633 124.918 61.633C130.925 61.633 135.795 66.5028 135.795 72.5099V118.287C135.795 124.294 130.925 129.164 124.918 129.164C118.911 129.164 114.041 124.294 114.041 118.287V72.5099ZM124.918 69.633C123.329 69.633 122.041 70.921 122.041 72.5099V118.287C122.041 119.876 123.329 121.164 124.918 121.164C126.507 121.164 127.795 119.876 127.795 118.287V72.5099C127.795 70.921 126.507 69.633 124.918 69.633ZM54.1563 87.5158C54.1563 81.5086 59.0261 76.6388 65.0333 76.6388C71.0405 76.6388 75.9102 81.5086 75.9102 87.5158V118.287C75.9102 124.294 71.0405 129.164 65.0333 129.164C59.0261 129.164 54.1563 124.294 54.1563 118.287V87.5158ZM65.0333 84.6388C63.4444 84.6388 62.1563 85.9269 62.1563 87.5158V118.287C62.1563 119.876 63.4444 121.164 65.0333 121.164C66.6222 121.164 67.9102 119.876 67.9102 118.287V87.5158C67.9102 85.9269 66.6222 84.6388 65.0333 84.6388ZM94.9757 82.5998C88.9685 82.5998 84.0987 87.4696 84.0987 93.4767V118.287C84.0987 124.294 88.9685 129.164 94.9757 129.164C100.983 129.164 105.853 124.294 105.853 118.287V93.4767C105.853 87.4695 100.983 82.5998 94.9757 82.5998ZM92.0987 93.4767C92.0987 91.8878 93.3868 90.5998 94.9757 90.5998C96.5646 90.5998 97.8526 91.8878 97.8526 93.4767V118.287C97.8526 119.876 96.5646 121.164 94.9757 121.164C93.3868 121.164 92.0987 119.876 92.0987 118.287V93.4767ZM35.0909 94.3908C29.0837 94.3908 24.2139 99.2606 24.2139 105.268V118.287C24.2139 124.294 29.0837 129.164 35.0909 129.164C41.0981 129.164 45.9679 124.294 45.9679 118.287V105.268C45.9679 99.2606 41.0981 94.3908 35.0909 94.3908ZM32.2139 105.268C32.2139 103.679 33.502 102.391 35.0909 102.391C36.6798 102.391 37.9679 103.679 37.9679 105.268V118.287C37.9679 119.876 36.6798 121.164 35.0909 121.164C33.502 121.164 32.2139 119.876 32.2139 118.287V105.268Z" fill="var(--spectrum-global-color-gray-800, #292929)"/>
</svg>
