<svg width="96" height="97" viewBox="0 0 96 97" xmlns="http://www.w3.org/2000/svg">
<path fill-rule="evenodd" d="M25.0005 25.4922C21.6868 25.4922 19.0005 28.1785 19.0005 31.4922L19.0005 71.4922C19.0005 74.8059 21.6868 77.4922 25.0005 77.4922L65.0005 77.4922C68.3142 77.4922 71.0005 74.8059 71.0005 71.4922L71.0005 42.4922C71.0005 41.3876 71.896 40.4922 73.0005 40.4922C74.1051 40.4922 75.0005 41.3876 75.0005 42.4922L75.0005 71.4922C75.0005 77.015 70.5234 81.4922 65.0005 81.4922L25.0005 81.4922C19.4777 81.4922 15.0005 77.015 15.0005 71.4922L15.0005 31.4922C15.0005 25.9693 19.4777 21.4922 25.0005 21.4922L54.0005 21.4922C55.1051 21.4922 56.0005 22.3876 56.0005 23.4922C56.0005 24.5967 55.1051 25.4922 54.0005 25.4922L25.0005 25.4922ZM47.5863 48.9723C46.8053 48.1913 46.8053 46.9249 47.5863 46.1439L74.2468 19.4834L64 19.4834C62.8954 19.4834 62 18.588 62 17.4834C62 16.3788 62.8954 15.4834 64 15.4834L78.9668 15.4834C80.0714 15.4834 80.9668 16.3788 80.9668 17.4834L80.9668 32.4502C80.9668 33.5548 80.0714 34.4502 78.9668 34.4502C77.8622 34.4502 76.9668 33.5548 76.9668 32.4502L76.9668 22.4203L50.4148 48.9723C49.6337 49.7534 48.3674 49.7534 47.5863 48.9723Z" fill="var(--spectrum-global-color-gray-800, #292929)"/>
</svg>
