<svg width="48" height="48" viewBox="0 0 48 48" xmlns="http://www.w3.org/2000/svg">
<path fill-rule="evenodd" d="M22.2157 9.43099C21.1294 10.2583 20.3583 11.5711 19.9117 12.7961L18.347 17.8944H26.6002C27.0549 17.8944 27.4737 18.1413 27.6938 18.5391L30.9208 24.3687C33.1345 22.1568 35.363 19.931 37.0461 18.2502C37.5346 17.7624 38.3261 17.7629 38.8139 18.2514C39.3017 18.7399 39.3011 19.5313 38.8127 20.0192C37.0009 21.8285 34.5572 24.2692 32.1804 26.6442L35.8551 33.2826C36.1894 33.8866 35.9708 34.6472 35.3668 34.9816C34.7628 35.3159 34.0021 35.0973 33.6678 34.4933L30.3407 28.4828L29.5899 29.2332C28.0596 30.7629 26.6835 32.1392 25.6868 33.1371C25.1885 33.6361 24.7854 34.0401 24.5057 34.3212C24.3656 34.4618 24.2573 34.5709 24.1835 34.6455C24.1464 34.683 24.1195 34.7104 24.1021 34.7281L24.0957 34.7347C23.6665 35.2024 22.9442 35.2773 22.4256 34.8884C21.8733 34.4742 21.7614 33.6907 22.1756 33.1384C22.2075 33.0959 22.2363 33.0636 22.2402 33.0592L22.2406 33.0588C22.245 33.0538 22.2491 33.0492 22.2526 33.0453C22.2563 33.0414 22.2592 33.0381 22.2613 33.0359C22.2697 33.0268 22.2773 33.0188 22.2819 33.014L22.3142 32.9807C22.3369 32.9575 22.368 32.926 22.4061 32.8875C22.4827 32.81 22.5933 32.6986 22.7338 32.5575C23.0151 32.2749 23.4193 31.8697 23.9179 31.3705C24.9153 30.3718 26.2921 28.9949 27.8225 27.465L29.081 26.2072L25.8634 20.3944H17.5797L11.2676 40.9604C11.065 41.6204 10.3658 41.9912 9.70583 41.7886C9.04586 41.5861 8.67506 40.8869 8.87761 40.2269L14.9646 20.3944H11.2415C10.5512 20.3944 9.99154 19.8348 9.99154 19.1444C9.99154 18.4541 10.5512 17.8944 11.2415 17.8944H15.7319L17.531 12.0326C17.5369 12.0132 17.5433 11.994 17.5502 11.975C18.0894 10.4812 19.0886 8.67011 20.7009 7.44214C22.3815 6.1622 24.633 5.59548 27.3862 6.51628C28.0409 6.73525 28.3941 7.4435 28.1751 8.09821C27.9562 8.75292 27.2479 9.10616 26.5932 8.88719C24.6301 8.23062 23.2419 8.64942 22.2157 9.43099Z" fill="var(--spectrum-global-color-gray-800, #292929)"/>
</svg>
