<svg width="96" height="96" viewBox="0 0 96 96" xmlns="http://www.w3.org/2000/svg">
<path fill-rule="evenodd" d="M18.2808 39.3201C22.0285 26.4706 33.9032 17.0801 47.9708 17.0801C60.6951 17.0801 71.6335 24.7723 76.3744 35.7595L67.3753 31.5671C66.374 31.1007 65.1842 31.5342 64.7178 32.5355C64.2513 33.5367 64.6849 34.7265 65.6861 35.193L78.1361 40.993C79.113 41.4481 80.2747 41.0474 80.7633 40.0868L87.2133 27.4068C87.7141 26.4223 87.322 25.2182 86.3375 24.7174C85.353 24.2166 84.1489 24.6088 83.6481 25.5933L79.6898 33.3748C74.1596 21.4002 62.036 13.0801 47.9708 13.0801C32.0784 13.0801 18.673 23.6895 14.4408 38.2001C14.1315 39.2605 14.7404 40.3708 15.8008 40.6801C16.8612 40.9894 17.9715 40.3805 18.2808 39.3201ZM17.8665 55.1177C16.8895 54.6618 15.7269 55.0623 15.2381 56.0233L8.78811 68.7033C8.28731 69.6878 8.67945 70.8919 9.66396 71.3927C10.6485 71.8935 11.8526 71.5014 12.3534 70.5168L16.2806 62.7963C21.8469 74.6791 33.922 82.92 47.9202 82.92C63.8125 82.92 77.2179 72.3106 81.4501 57.8001C81.7594 56.7397 81.1505 55.6293 80.0901 55.3201C79.0298 55.0108 77.9194 55.6197 77.6102 56.68C73.8624 69.5295 61.9878 78.92 47.9202 78.92C35.2255 78.92 24.3083 71.2636 19.5497 60.3173L28.625 64.5524C29.6259 65.0195 30.816 64.5868 31.2831 63.5858C31.7502 62.5849 31.3175 61.3948 30.3165 60.9277L17.8665 55.1177Z" fill="var(--spectrum-global-color-gray-800, #292929)"/>
</svg>
