<svg width="160" height="160" viewBox="0 0 160 160" xmlns="http://www.w3.org/2000/svg">
<path fill-rule="evenodd" d="M112.433 24.1172C106.973 18.6578 98.238 19.7214 92.9694 24.99L85.2592 32.7002L47.1627 48.9623C43.0184 50.7313 39.7641 54.3085 38.4336 58.6069L20.8633 115.372C16.3469 129.963 30.0292 143.645 44.6207 139.129L101.385 121.559C105.684 120.228 109.261 116.974 111.03 112.83L127.292 74.7331L135.002 67.0229C140.271 61.7543 141.335 53.0191 135.875 47.5596L112.433 24.1172ZM50.3035 56.32L86.6243 40.8158L119.176 73.3679L103.672 109.689C102.814 111.699 101.046 113.289 99.0199 113.916L42.2552 131.487C39.6451 132.295 37.0853 132.096 34.8711 131.187L69.3452 96.8534C69.9503 96.9997 70.5823 97.0772 71.2324 97.0772C75.6507 97.0772 79.2324 93.4955 79.2324 89.0772C79.2324 84.659 75.6507 81.0772 71.2324 81.0772C66.8141 81.0772 63.2324 84.659 63.2324 89.0772C63.2324 89.8596 63.3447 90.6156 63.5541 91.3303L29.0565 125.688C27.9378 123.349 27.6279 120.573 28.5056 117.737L46.0759 60.9724C46.703 58.9462 48.2928 57.1782 50.3035 56.32ZM129.345 61.366L123.917 66.7946L93.1977 36.0754L98.6263 30.6468C101.465 27.8083 105.092 28.0905 106.776 29.7741L130.218 53.2164C131.902 54.9 132.184 58.5275 129.345 61.366Z" fill="var(--spectrum-global-color-gray-800, #292929)"/>
</svg>
