<svg width="160" height="160" viewBox="0 0 160 160" xmlns="http://www.w3.org/2000/svg">
<path fill-rule="evenodd" d="M59 32C55.6891 32 53 34.6891 53 38V45H107V38C107 34.6891 104.311 32 101 32H59ZM45 38V45H36C24.9543 45 16 53.9543 16 65V116C16 127.046 24.9543 136 36 136H124C135.046 136 144 127.046 144 116V65C144 53.9543 135.046 45 124 45H115V38C115 30.2709 108.729 24 101 24H59C51.2709 24 45 30.2709 45 38ZM36 53C29.3726 53 24 58.3726 24 65V87H45V85C45 82.7909 46.7909 81 49 81C51.2091 81 53 82.7909 53 85V87H107V85C107 82.7909 108.791 81 111 81C113.209 81 115 82.7909 115 85V87H136V65C136 58.3726 130.627 53 124 53H36ZM45 95V98C45 100.209 46.7909 102 49 102C51.2091 102 53 100.209 53 98V95H107V98C107 100.209 108.791 102 111 102C113.209 102 115 100.209 115 98V95H136V116C136 122.627 130.627 128 124 128H36C29.3726 128 24 122.627 24 116V95H45Z" fill="var(--spectrum-global-color-gray-800, #292929)"/>
</svg>
