<svg width="96" height="97" viewBox="0 0 96 97" xmlns="http://www.w3.org/2000/svg">
<path fill-rule="evenodd" d="M48.7547 79.8285C48.49 79.8352 48.2246 79.8385 47.9583 79.8385C35.969 79.8385 25.5555 73.0912 20.308 63.1867L54.01 63.1867L48.7547 79.8285ZM16.6875 48.5677C16.6875 52.2957 17.3399 55.8713 18.5367 59.1867H35.965L25.4623 26.8468C20.0296 32.4721 16.6875 40.1296 16.6875 48.5677ZM28.7163 23.9162C34.0223 19.7687 40.7016 17.2969 47.9583 17.2969C53.0668 17.2969 57.8892 18.5218 62.1478 20.6941L34.2522 40.9624L28.7163 23.9162ZM35.5223 44.8733C35.7082 44.8102 35.8878 44.7183 36.055 44.5969L47.7068 36.131L59.796 44.8645L55.2669 59.2065C55.1745 59.1935 55.0801 59.1867 54.9841 59.1867H40.1706C40.1693 59.1826 40.168 59.1785 40.1667 59.1744L35.5223 44.8733ZM53.0779 79.4214C64.8129 77.4888 74.3461 69.0231 77.8179 57.884L63.2115 47.332L53.0779 79.4214ZM79.2291 48.5677C79.2291 37.9606 73.9479 28.587 65.8716 22.9328L51.1123 33.6566L78.815 53.6697C79.0874 52.0094 79.2291 50.3051 79.2291 48.5677ZM47.9583 83.8385C67.4378 83.8385 83.2291 68.0472 83.2291 48.5677C83.2291 29.0882 67.4378 13.2969 47.9583 13.2969C28.4788 13.2969 12.6875 29.0882 12.6875 48.5677C12.6875 68.0472 28.4788 83.8385 47.9583 83.8385Z" fill="var(--spectrum-global-color-gray-800, #292929)"/>
</svg>
