<svg width="96" height="96" viewBox="0 0 96 96" xmlns="http://www.w3.org/2000/svg">
<path fill-rule="evenodd" d="M20.46 22.51C20.46 18.0998 24.0311 14.51 28.45 14.51H47.9C49.947 14.51 51.9362 15.2933 53.4256 16.7278L53.428 16.7301L72.9932 35.4755C74.5656 36.9813 75.46 39.0624 75.46 41.25V52.375C75.46 53.4796 74.5645 54.375 73.46 54.375C72.3554 54.375 71.46 53.4796 71.46 52.375V41.5H53.83C50.4972 41.5 47.46 38.998 47.46 35.52V18.54L47.4602 18.51H28.45C26.2489 18.51 24.46 20.3002 24.46 22.51V70.5C24.46 72.7098 26.2489 74.5 28.45 74.5H49.46C50.5645 74.5 51.46 75.3954 51.46 76.5C51.46 77.6046 50.5645 78.5 49.46 78.5H28.45C24.0311 78.5 20.46 74.9102 20.46 70.5V22.51ZM51.46 20.3841L69.3244 37.5H53.83C52.3427 37.5 51.46 36.442 51.46 35.52V20.3841ZM53.5 71.22C53.5 63.09 60.09 56.5 68.22 56.5C76.35 56.5 82.94 63.09 82.94 71.22C82.94 79.35 76.35 85.94 68.22 85.94C60.09 85.94 53.5 79.35 53.5 71.22ZM68.22 62.26C67.12 62.26 66.22 63.16 66.22 64.26V71.94C66.22 73.04 67.12 73.94 68.22 73.94C69.32 73.94 70.22 73.04 70.22 71.94V64.26C70.22 63.16 69.32 62.26 68.22 62.26ZM70.2 78.99C70.26 78.86 70.3 78.73 70.33 78.59C70.35 78.45 70.37 78.31 70.37 78.17C70.37 78.03 70.35 77.89 70.33 77.75C70.3 77.61 70.26 77.48 70.2 77.35C70.15 77.22 70.08 77.09 70.01 76.97C69.93 76.86 69.84 76.75 69.74 76.65C69.64 76.55 69.53 76.46 69.41 76.38C69.3 76.3 69.17 76.24 69.0401 76.18L69.04 76.18C68.91 76.13 68.78 76.09 68.64 76.06C68.36 76.01 68.08 76.01 67.8 76.06C67.66 76.09 67.53 76.13 67.4 76.18L67.4 76.18C67.27 76.24 67.14 76.3 67.03 76.38C66.91 76.46 66.8 76.55 66.7 76.65C66.6 76.75 66.51 76.86 66.43 76.97C66.35 77.09 66.29 77.22 66.23 77.3499L66.23 77.35C66.18 77.48 66.14 77.61 66.11 77.75C66.07 77.89 66.07 78.03 66.07 78.17C66.07 78.31 66.08 78.45 66.11 78.59C66.14 78.73 66.18 78.86 66.23 78.99C66.29 79.12 66.35 79.25 66.43 79.36C66.51 79.48 66.6 79.59 66.7 79.69C66.8 79.79 66.91 79.88 67.03 79.96C67.14 80.03 67.27 80.1 67.4 80.15C67.53 80.21 67.66 80.25 67.8 80.28C67.94 80.32 68.08 80.32 68.22 80.32C68.36 80.32 68.5 80.31 68.64 80.28C68.78 80.25 68.91 80.21 69.04 80.15C69.17 80.1 69.3 80.03 69.41 79.96C69.53 79.88 69.64 79.79 69.74 79.69C69.84 79.59 69.93 79.48 70.01 79.36C70.08 79.25 70.15 79.12 70.2 78.99Z" fill="var(--spectrum-global-color-gray-800, #292929)"/>
</svg>
