<svg width="160" height="160" viewBox="0 0 160 160" xmlns="http://www.w3.org/2000/svg">
<path fill-rule="evenodd" d="M126.204 45.4301L133.259 44.0202C136.033 43.4675 136.436 39.6614 133.833 38.5396L127.227 35.6934C126.357 35.3159 125.728 34.541 125.54 33.6075L124.13 26.5524C123.577 23.7783 119.771 23.3753 118.649 25.9787L115.803 32.5848C115.426 33.4542 114.651 34.0835 113.717 34.2716L106.662 35.6816C103.888 36.2343 103.485 40.0404 106.088 41.1622L112.694 44.0084C113.564 44.3859 114.193 45.1608 114.381 46.0943L115.791 53.1494C116.344 55.9234 120.15 56.3265 121.272 53.7231L124.118 47.117C124.496 46.2476 125.27 45.6183 126.204 45.4301ZM67.9104 51.2276L73.7376 50.063C76.0288 49.6065 76.3617 46.4628 74.2114 45.5363L68.7551 43.1854C68.037 42.8737 67.5172 42.2336 67.3618 41.4626L66.1973 35.6354C65.7407 33.3442 62.5971 33.0113 61.6706 35.1615L59.3197 40.6179C59.0079 41.336 58.3679 41.8558 57.5969 42.0112L51.7696 43.1757C49.4784 43.6323 49.1455 46.7759 51.2958 47.7024L56.7522 50.0533C57.4702 50.3651 57.99 51.0051 58.1454 51.7761L59.31 57.6034C59.7665 59.8946 62.9102 60.2275 63.8367 58.0772L66.1876 52.6208C66.4993 51.9028 67.1394 51.383 67.9104 51.2276ZM131.288 92.0933L125.46 93.2579C124.689 93.4133 124.049 93.9331 123.738 94.6511L121.387 100.107C120.46 102.258 117.317 101.925 116.86 99.6336L115.695 93.8064C115.54 93.0354 115.02 92.3953 114.302 92.0836L108.846 89.7327C106.696 88.8062 107.028 85.6625 109.32 85.206L115.147 84.0414C115.918 83.886 116.558 83.3662 116.87 82.6482L119.221 77.1918C120.147 75.0415 123.291 75.3744 123.747 77.6657L124.912 83.4929C125.067 84.2639 125.587 84.904 126.305 85.2157L131.762 87.5666C133.912 88.4931 133.579 91.6368 131.288 92.0933ZM86.6123 54.3135C91.9316 48.9942 100.556 48.9942 105.875 54.3135C111.194 59.6328 111.194 68.257 105.875 73.5762L44.8147 134.637C39.4954 139.956 30.8712 139.956 25.5519 134.637C20.2327 129.317 20.2327 120.693 25.5519 115.374L86.6123 54.3135ZM100.218 59.9704C98.0231 57.7753 94.4642 57.7753 92.2692 59.9704L83.1152 69.1243L91.0642 77.0734L100.218 67.9194C102.413 65.7243 102.413 62.1654 100.218 59.9704ZM85.4073 82.7302L77.4583 74.7812L31.2088 121.031C29.0137 123.226 29.0137 126.785 31.2088 128.98C33.4039 131.175 36.9628 131.175 39.1578 128.98L85.4073 82.7302Z" fill="var(--spectrum-global-color-gray-800, #292929)"/>
</svg>
