<svg width="48" height="48" viewBox="0 0 48 48" xmlns="http://www.w3.org/2000/svg">
<path fill-rule="evenodd" d="M40.1575 12.2419C40.1575 9.91642 37.0601 9.11907 35.9372 11.1555L31.9622 18.364L28.7293 14.409C27.7635 13.2275 25.9264 13.3298 25.0978 14.6114L20.4328 21.8264L16.8811 17.7214C16.0432 16.753 14.5672 16.6781 13.6357 17.5568L8.89499 22.0284C8.244 22.6424 7.875 23.4977 7.875 24.3926V36.8892C7.875 38.6842 9.33007 40.1392 11.125 40.1392H36.9075C38.7024 40.1392 40.1575 38.6842 40.1575 36.8892V12.2419ZM33.9729 19.8949L37.6575 13.213V27.3271L34.2788 28.9243L30.6117 25.1989C29.6839 24.2565 28.1474 24.3135 27.2921 25.3222L22.0673 31.4837L17.8079 28.092C17.041 27.4813 15.9671 27.4375 15.153 27.9835L10.375 31.188V24.3926C10.375 24.1861 10.4602 23.9887 10.6104 23.847L15.1612 19.5545L18.7602 23.7142C19.7416 24.8483 21.5369 24.7231 22.3512 23.4636L27.0109 16.2569L30.2606 20.2325C31.2687 21.4657 33.2038 21.2898 33.9729 19.8949ZM10.375 34.1896V36.8892C10.375 37.3034 10.7108 37.6392 11.125 37.6392H36.9075C37.3217 37.6392 37.6575 37.3034 37.6575 36.8892V30.0923L35.1868 31.2603C34.3218 31.6692 33.2928 31.4864 32.6217 30.8046L29.0219 27.1477L23.8172 33.2855C23.031 34.2126 21.6505 34.3477 20.6996 33.5904L16.3936 30.1616L10.4902 34.1209C10.4526 34.1461 10.4142 34.169 10.375 34.1896Z" fill="var(--spectrum-global-color-gray-800, #292929)"/>
</svg>
