<svg width="160" height="160" viewBox="0 0 160 160" xmlns="http://www.w3.org/2000/svg">
<path fill-rule="evenodd" d="M28 79.7402C28 51.0214 51.2812 27.7402 80 27.7402C108.719 27.7402 132 51.0214 132 79.7402C132 108.459 108.719 131.74 80 131.74C51.2812 131.74 28 108.459 28 79.7402ZM80 19.7402C46.8629 19.7402 20 46.6031 20 79.7402C20 112.877 46.8629 139.74 80 139.74C113.137 139.74 140 112.877 140 79.7402C140 46.6031 113.137 19.7402 80 19.7402ZM85.5 55.7402C85.5 59.0539 82.8137 61.7402 79.5 61.7402C76.1863 61.7402 73.5 59.0539 73.5 55.7402C73.5 52.4265 76.1863 49.7402 79.5 49.7402C82.8137 49.7402 85.5 52.4265 85.5 55.7402ZM67.5 71.7402C67.5 69.5311 69.2909 67.7402 71.5 67.7402H80.5C82.7091 67.7402 84.5 69.5311 84.5 71.7402V98.7402H89.5C91.7091 98.7402 93.5 100.531 93.5 102.74C93.5 104.949 91.7091 106.74 89.5 106.74H71.5C69.2909 106.74 67.5 104.949 67.5 102.74C67.5 100.531 69.2909 98.7402 71.5 98.7402H76.5V75.7402H71.5C69.2909 75.7402 67.5 73.9494 67.5 71.7402Z" fill="var(--spectrum-global-color-gray-800, #292929)"/>
</svg>
