<svg width="160" height="160" viewBox="0 0 160 160" xmlns="http://www.w3.org/2000/svg">
<path fill-rule="evenodd" d="M42.167 24.2324C37.0871 24.2324 32.4603 27.169 30.3144 31.7763L30.3135 31.7782L21.5033 50.7203L21.5028 50.7214L21.5022 50.7225C19.7049 54.5815 18.7812 58.783 18.7812 63.0284C18.7812 70.9517 23.8406 77.6809 30.8994 80.2081V115.767C30.8994 126.813 39.8537 135.767 50.8994 135.767H108.919C119.965 135.767 128.919 126.813 128.919 115.767V80.2722C136.073 77.7962 141.219 71.0196 141.219 63.0284C141.219 58.894 140.339 54.806 138.642 51.038C138.604 50.9316 138.56 50.8263 138.512 50.7225L129.7 31.7782L129.7 31.7763C127.554 27.169 122.927 24.2324 117.847 24.2324H42.167ZM120.919 81.17C115.952 80.6326 111.575 78.1126 108.61 74.4159C105.253 78.6004 100.088 81.2772 94.3049 81.2772C88.5217 81.2772 83.3569 78.6004 80.0002 74.4159C77.6287 77.3722 74.3547 79.5761 70.5977 80.615V107.534H120.919H120.919V81.17ZM62.5977 81.0168C58.087 80.2498 54.1348 77.8366 51.3907 74.4159C48.3891 78.1577 43.9418 80.694 38.8994 81.1887V115.767C38.8994 122.395 44.272 127.767 50.8994 127.767H62.6808C62.6263 127.504 62.5977 127.232 62.5977 126.952V81.0168ZM65.6955 73.2772C59.9896 73.2772 55.3907 68.6739 55.3907 63.0284V62.3241C55.3907 60.1149 53.5999 58.3241 51.3907 58.3241C49.1816 58.3241 47.3907 60.1149 47.3907 62.3241V63.0284C47.3907 68.6739 42.7919 73.2772 37.086 73.2772C31.3801 73.2772 26.7812 68.6739 26.7812 63.0284C26.7812 59.9424 27.4528 56.8939 28.755 54.0986L28.756 54.0964L37.5664 35.1539L37.5669 35.1529L37.5673 35.1521C38.3952 33.3765 40.1859 32.2324 42.167 32.2324H117.847C119.829 32.2324 121.62 33.3773 122.448 35.1539L131.123 53.8062C131.159 53.9034 131.199 53.9996 131.244 54.0945C132.544 56.8952 133.219 59.9456 133.219 63.0284C133.219 68.6739 128.62 73.2772 122.914 73.2772C117.209 73.2772 112.61 68.6739 112.61 63.0284V62.3241C112.61 60.1149 110.819 58.3241 108.61 58.3241C106.401 58.3241 104.61 60.1149 104.61 62.3241V63.0284C104.61 68.6739 100.011 73.2772 94.3049 73.2772C88.5991 73.2772 84.0002 68.6739 84.0002 63.0284V62.3241C84.0002 60.1149 82.2093 58.3241 80.0002 58.3241C77.7911 58.3241 76.0002 60.1149 76.0002 62.3241V63.0284C76.0002 68.6739 71.4013 73.2772 65.6955 73.2772ZM120.919 115.534H120.919V115.767C120.919 122.395 115.546 127.767 108.919 127.767H70.5146C70.5691 127.504 70.5977 127.232 70.5977 126.952V115.534H120.919Z" fill="var(--spectrum-global-color-gray-800, #292929)"/>
</svg>
