<svg width="160" height="160" viewBox="0 0 160 160" xmlns="http://www.w3.org/2000/svg">
<path fill-rule="evenodd" d="M32.5131 26.2055C29.3665 20.3817 36.5838 14.5014 41.6517 18.7597L77.3219 48.7312L98.1066 25.7826C102.247 21.2108 109.763 25.1122 108.407 31.1295L102.44 57.6069H148.186C155.111 57.6069 156.529 67.3948 149.889 69.3601L110.237 81.0973L122.263 95.2535C126.225 99.9177 121.481 106.825 115.705 104.8L97.3814 98.3775V137.422C97.3814 144.083 88.1471 145.783 85.7748 139.558L71.186 101.278C61.7985 106.677 49.0016 113.935 40.8778 118.533C35.2426 121.723 29.3443 115.007 33.0361 109.822C37.7668 103.177 44.7246 93.36 49.8733 85.907L22.1959 78.8035C16.1307 77.2469 16.2057 68.6066 22.2968 67.1553L50.9498 60.328L32.5131 26.2055ZM44.5403 31.6359L62.9424 65.6945L32.0136 73.064L62.8919 80.989L59.7143 85.6919C55.9562 91.254 49.9654 99.7793 44.7491 107.145C53.5628 102.145 64.1768 96.1025 71.2471 92.0064L75.3156 89.6494L89.3814 126.558V87.0962L111.39 94.8103L96.1864 76.9134L134.383 65.6069H92.4367L98.9307 36.7899L78.0769 59.8148L44.5403 31.6359Z" fill="var(--spectrum-global-color-gray-800, #292929)"/>
</svg>
