<svg width="96" height="96" viewBox="0 0 96 96" xmlns="http://www.w3.org/2000/svg">
<path fill-rule="evenodd" d="M21.3203 19.9609C18.0049 19.9609 15.3203 22.6455 15.3203 25.9609V75.9009H26.2803V67.4509C26.2803 63.0364 29.8657 59.4509 34.2803 59.4509H38.4503C42.8648 59.4509 46.4503 63.0364 46.4503 67.4509V75.9009H57.4103V25.9609C57.4103 22.6455 54.7257 19.9609 51.4103 19.9609H21.3203ZM11.3203 25.9609C11.3203 20.4364 15.7957 15.9609 21.3203 15.9609H51.4103C56.9349 15.9609 61.4103 20.4364 61.4103 25.9609V77.9009C61.4103 79.0055 60.5149 79.9009 59.4103 79.9009H13.3203C12.2157 79.9009 11.3203 79.0055 11.3203 77.9009V25.9609ZM64.3398 30.401C64.3398 29.2964 65.2353 28.401 66.3398 28.401H74.6798C80.2044 28.401 84.6798 32.8764 84.6798 38.401V77.901C84.6798 79.0056 83.7844 79.901 82.6798 79.901H66.3398C65.2353 79.901 64.3398 79.0056 64.3398 77.901C64.3398 76.7964 65.2353 75.901 66.3398 75.901H80.6798V38.401C80.6798 35.0856 77.9953 32.401 74.6798 32.401H66.3398C65.2353 32.401 64.3398 31.5056 64.3398 30.401ZM30.2803 67.4509C30.2803 65.2455 32.0748 63.4509 34.2803 63.4509H38.4503C40.6557 63.4509 42.4503 65.2455 42.4503 67.4509V75.9009H30.2803V67.4509ZM30.1895 26.4409H26.2695C25.165 26.4409 24.2695 27.3363 24.2695 28.4409V32.3609C24.2695 33.4655 25.165 34.3609 26.2695 34.3609H30.1895C31.2941 34.3609 32.1895 33.4655 32.1895 32.3609V28.4409C32.1895 27.3363 31.2941 26.4409 30.1895 26.4409ZM42.5391 26.4409H46.4591C47.5636 26.4409 48.4591 27.3363 48.4591 28.4409V32.3609C48.4591 33.4655 47.5636 34.3609 46.4591 34.3609H42.5391C41.4345 34.3609 40.5391 33.4655 40.5391 32.3609V28.4409C40.5391 27.3363 41.4345 26.4409 42.5391 26.4409ZM30.1895 42.5909H26.2695C25.165 42.5909 24.2695 43.4863 24.2695 44.5909V48.5109C24.2695 49.6155 25.165 50.5109 26.2695 50.5109H30.1895C31.2941 50.5109 32.1895 49.6155 32.1895 48.5109V44.5909C32.1895 43.4863 31.2941 42.5909 30.1895 42.5909ZM42.5391 42.5909H46.4591C47.5636 42.5909 48.4591 43.4864 48.4591 44.5909V48.5109C48.4591 49.6155 47.5636 50.5109 46.4591 50.5109H42.5391C41.4345 50.5109 40.5391 49.6155 40.5391 48.5109V44.5909C40.5391 43.4864 41.4345 42.5909 42.5391 42.5909ZM73.0001 42.121H69.0801C67.9755 42.121 67.0801 43.0164 67.0801 44.121V48.041C67.0801 49.1455 67.9755 50.041 69.0801 50.041H73.0001C74.1046 50.041 75.0001 49.1455 75.0001 48.041V44.121C75.0001 43.0164 74.1046 42.121 73.0001 42.121ZM69.0801 58.271H73.0001C74.1046 58.271 75.0001 59.1664 75.0001 60.271V64.191C75.0001 65.2955 74.1046 66.191 73.0001 66.191H69.0801C67.9755 66.191 67.0801 65.2955 67.0801 64.191V60.271C67.0801 59.1664 67.9755 58.271 69.0801 58.271Z" fill="var(--spectrum-global-color-gray-800, #292929)"/>
</svg>
