<svg width="160" height="160" viewBox="0 0 160 160" xmlns="http://www.w3.org/2000/svg">
<path fill-rule="evenodd" d="M23.2162 29C20.9501 29 19 30.8916 19 33.3426V67.8462C19 83.4432 31.4594 96 46.6667 96C61.8796 96 74.3333 83.4374 74.3333 67.8462V33.3426C74.3333 30.8916 72.3832 29 70.1171 29H23.2162ZM11 33.3426C11 26.5889 16.4171 21 23.2162 21H70.1171C76.9162 21 82.3333 26.5889 82.3333 33.3426V67.8462C82.3333 87.7389 66.4137 104 46.6667 104C26.9276 104 11 87.747 11 67.8462V33.3426ZM59.9789 47.9492L59.9797 47.9507L68.1957 63.7921L68.1965 63.7937C69.3389 65.9986 69.1931 68.4648 68.1984 70.3853C67.1994 72.314 65.1437 74.0002 62.3831 74.0002H45.9495C43.189 74.0002 41.1333 72.314 40.1343 70.3853C39.1396 68.4647 38.9938 65.9986 40.1361 63.7937L40.1364 63.7933L48.3464 47.9507L48.3466 47.9503C49.5175 45.6907 51.7451 44.3335 54.1631 44.3335C56.5807 44.3335 58.8079 45.6902 59.9789 47.9492ZM54.1636 54.1126L48.0031 66.0002H60.329L54.1636 54.1126ZM40.3078 53.3217C41.222 51.3106 40.3327 48.9392 38.3216 48.025C36.3104 47.1109 33.939 48.0002 33.0249 50.0113L24.6915 68.3446C23.7774 70.3558 24.6667 72.7272 26.6778 73.6413C28.6889 74.5555 31.0603 73.6662 31.9745 71.6551L40.3078 53.3217ZM90.834 43.994C88.6248 43.994 86.834 45.7848 86.834 47.994C86.834 50.2031 88.6248 51.994 90.834 51.994H90.9104H90.9865H91.0623H91.1377H91.2128H91.2876H91.3621H91.4363H91.5101H91.5836H91.6568H91.7297H91.8023H91.8745H91.9465H92.0181H92.0894H92.1605H92.2312H92.3016H92.3717H92.4415H92.511H92.5802H92.6491H92.7178H92.7861H92.8541H92.9218H92.9893H93.0565H93.1233H93.1899H93.2562H93.3222H93.388H93.4534H93.5186H93.5835H93.6481H93.7125H93.7766H93.8404H93.9039H93.9672H94.0302H94.0929H94.1554H94.2176H94.2795H94.3412H94.4026H94.4638H94.5247H94.5853H94.6457H94.7059H94.7658H94.8254H94.8848H94.944H95.0029H95.0616H95.12H95.1781H95.2361H95.2938H95.3513H95.4085H95.4655H95.5222H95.5788H95.6351H95.6911H95.747H95.8026H95.858H95.9132H95.9681H96.0229H96.0774H96.1317H96.1858H96.2396H96.2933H96.3467H96.4H96.453H96.5058H96.5584H96.6108H96.663H96.715H96.7668H96.8184H96.8698H96.921H96.972H97.0229H97.0735H97.1239H97.1742H97.2242H97.2741H97.3238H97.3655V82.9096C97.3655 84.0634 98.6491 84.7556 99.6009 84.1066L106.624 79.4195C107.115 79.1022 107.735 79.1022 108.225 79.4195L115.249 84.1066C116.2 84.7412 117.484 84.0634 117.484 82.9096V51.994H117.506H117.595H117.684H117.774H117.864H117.954H118.045C122.207 51.994 125.582 55.3686 125.582 59.5315V88.1551C125.582 90.3642 127.373 92.1551 129.582 92.1551C131.791 92.1551 133.582 90.3642 133.582 88.1551V59.5315C133.582 50.9503 126.626 43.994 118.045 43.994H117.954H117.864H117.774H117.684H117.595H117.506H117.418H117.33H117.242H117.155H117.068H116.981H116.895H116.809H116.724H116.639H116.554H116.47H116.386H116.302H116.219H116.136H116.053H115.971H115.889H115.808H115.727H115.646H115.565H115.485H115.405H115.326H115.247H115.168H115.09H115.012H114.934H114.857H114.78H114.703H114.626H114.55H114.475H114.399H114.324H114.249H114.175H114.101H114.027H113.954H113.88H113.808H113.735H113.663H113.591H113.519H113.448H113.377H113.306H113.236H113.166H113.096H113.027H112.957H112.888H112.82H112.752H112.684H112.616H112.548H112.481H112.414H112.348H112.282H112.216H112.15H112.085H112.019H111.955H111.89H111.826H111.762H111.698H111.634H111.571H111.508H111.445H111.383H111.321H111.259H111.197H111.136H111.075H111.014H110.953H110.893H110.833H110.773H110.713H110.654H110.595H110.536H110.477H110.419H110.361H110.303H110.245H110.188H110.13H110.073H110.017H109.96H109.904H109.848H109.792H109.736H109.681H109.626H109.571H109.516H109.462H109.407H109.353H109.3H109.246H109.192H109.139H109.086H109.033H108.981H108.928H108.876H108.824H108.773H108.721H108.67H108.618H108.567H108.517H108.466H108.416H108.365H108.315H108.265H108.216H108.166H108.117H108.068H108.019H107.97H107.922H107.873H107.825H107.777H107.729H107.681H107.634H107.586H107.539H107.492H107.445H107.398H107.352H107.305H107.259H107.213H107.167H107.121H107.076H107.03H106.985H106.94H106.894H106.85H106.805H106.76H106.716H106.671H106.627H106.583H106.539H106.495H106.452H106.408H106.365H106.321H106.278H106.235H106.192H106.149H106.107H106.064H106.022H105.979H105.937H105.895H105.853H105.811H105.769H105.728H105.686H105.645H105.603H105.562H105.521H105.48H105.439H105.398H105.357H105.317H105.276H105.236H105.195H105.155H105.115H105.075H105.035H104.995H104.955H104.915H104.875H104.836H104.796H104.757H104.717H104.678H104.639H104.599H104.56H104.521H104.482H104.443H104.404H104.365H104.327H104.288H104.249H104.211H104.172H104.134H104.095H104.057H104.018H103.98H103.942H103.904H103.865H103.827H103.789H103.751H103.713H103.675H103.637H103.599H103.561H103.524H103.486H103.448H103.41H103.372H103.335H103.297H103.259H103.222H103.184H103.146H103.109H103.071H103.033H102.996H102.958H102.921H102.883H102.846H102.808H102.77H102.733H102.695H102.658H102.62H102.583H102.545H102.507H102.47H102.432H102.395H102.357H102.319H102.282H102.244H102.206H102.168H102.131H102.093H102.055H102.017H101.979H101.941H101.904H101.866H101.828H101.79H101.752H101.713H101.675H101.637H101.599H101.561H101.522H101.484H101.446H101.407H101.369H101.33H101.291H101.253H101.214H101.175H101.136H101.098H101.059H101.02H100.98H100.941H100.902H100.863H100.823H100.784H100.745H100.705H100.665H100.626H100.586H100.546H100.506H100.466H100.426H100.386H100.345H100.305H100.264H100.224H100.183H100.142H100.101H100.061H100.019H99.9783H99.9371H99.8957H99.8543H99.8127H99.771H99.7292H99.6874H99.6454H99.6033H99.561H99.5187H99.4762H99.4337H99.391H99.3482H99.3052H99.2622H99.219H99.1757H99.1322H99.0887H99.045H99.0011H98.9572H98.9131H98.8689H98.8245H98.78H98.7353H98.6905H98.6456H98.6005H98.5553H98.5099H98.4644H98.4188H98.3729H98.327H98.2808H98.2346H98.1881H98.1415H98.0948H98.0478H98.0008H97.9535H97.9061H97.8585H97.8108H97.7629H97.7148H97.6665H97.6181H97.5695H97.5207H97.4717H97.4226H97.3733H97.3238H97.2741H97.2242H97.1742H97.1239H97.0735H97.0229H96.972H96.921H96.8698H96.8184H96.7668H96.715H96.663H96.6108H96.5584H96.5058H96.453H96.4H96.3467H96.2933H96.2396H96.1858H96.1317H96.0774H96.0229H95.9681H95.9132H95.858H95.8026H95.747H95.6911H95.6351H95.5788H95.5222H95.4655H95.4085H95.3513H95.2938H95.2361H95.1781H95.12H95.0616H95.0029H94.944H94.8848H94.8254H94.7658H94.7059H94.6457H94.5853H94.5247H94.4638H94.4026H94.3412H94.2795H94.2176H94.1554H94.0929H94.0302H93.9672H93.9039H93.8404H93.7766H93.7125H93.6481H93.5835H93.5186H93.4534H93.388H93.3222H93.2562H93.1899H93.1233H93.0565H92.9893H92.9218H92.8541H92.7861H92.7178H92.6491H92.5802H92.511H92.4415H92.3717H92.3016H92.2312H92.1605H92.0894H92.0181H91.9465H91.8745H91.8023H91.7297H91.6568H91.5836H91.5101H91.4363H91.3621H91.2876H91.2128H91.1377H91.0623H90.9865H90.9104H90.834ZM58.6605 110.455C58.6605 108.246 56.8696 106.455 54.6605 106.455C52.4513 106.455 50.6605 108.246 50.6605 110.455V111.378C50.6605 119.959 57.6168 126.916 66.198 126.916H66.2871H66.3759H66.4644H66.5527H66.6406H66.7282H66.8155H66.9026H66.9893H67.0758H67.162H67.2478H67.3334H67.4187H67.5038H67.5885H67.6729H67.7571H67.841H67.9246H68.0079H68.091H68.1737H68.2562H68.3384H68.4204H68.5021H68.5835H68.6646H68.7454H68.826H68.9063H68.9864H69.0662H69.1457H69.225H69.304H69.3827H69.4612H69.5394H69.6173H69.695H69.7725H69.8497H69.9266H70.0033H70.0797H70.1559H70.2318H70.3075H70.3829H70.4581H70.533H70.6077H70.6822H70.7564H70.8304H70.9041H70.9776H71.0508H71.1238H71.1966H71.2692H71.3415H71.4136H71.4854H71.557H71.6284H71.6995H71.7705H71.8412H71.9117H71.9819H72.0519H72.1217H72.1913H72.2607H72.3298H72.3988H72.4675H72.536H72.6042H72.6723H72.7402H72.8078H72.8752H72.9425H73.0095H73.0763H73.1429H73.2093H73.2755H73.3415H73.4073H73.4728H73.5382H73.6034H73.6684H73.7332H73.7978H73.8622H73.9264H73.9904H74.0543H74.1179H74.1813H74.2446H74.3077H74.3706H74.4333H74.4958H74.5581H74.6203H74.6822H74.744H74.8056H74.8671H74.9283H74.9894H75.0503H75.1111H75.1716H75.232H75.2923H75.3523H75.4122H75.4719H75.5315H75.5909H75.6501H75.7092H75.7681H75.8268H75.8854H75.9438H76.0021H76.0602H76.1181H76.1759H76.2336H76.2911H76.3484H76.4056H76.4627H76.5196H76.5763H76.6329H76.6894H76.7457H76.8019H76.8579H76.9138H76.9696H77.0252H77.0807H77.136H77.1912H77.2463H77.3012H77.3561H77.4107H77.4653H77.5197H77.574H77.6282H77.6822H77.7361H77.7899H77.8436H77.8972H77.9506H78.0039H78.0571H78.1102H78.1631H78.216H78.2687H78.3214H78.3739H78.4263H78.4786H78.5307H78.5828H78.6348H78.6866H78.7384H78.7901H78.8416H78.8931H78.9444H78.9957H79.0468H79.0979H79.1489H79.1997H79.2505H79.3012H79.3518H79.4023H79.4527H79.503H79.5533H79.6034H79.6535H79.7035H79.7534H79.8032H79.853H79.9026H79.9522H80.0017H80.0511H80.1005H80.1498H80.199H80.2481H80.2972H80.3462H80.3951H80.4439H80.4927H80.5414H80.5901H80.6387H80.6872H80.7357H80.7841H80.8325H80.8807H80.929H80.9772H81.0253H81.0733H81.1214H81.1693H81.2172H81.2651H81.3129H81.3607H81.4084H81.4561H81.5037H81.5513H81.5988H81.6463H81.6938H81.7412H81.7886H81.836H81.8833H81.9306H81.9778H82.025H82.0722H82.1193H82.1665H82.2135H82.2606H82.3076H82.3547H82.4016H82.4486H82.4956H82.5425H82.5894H82.6363H82.6831H82.73H82.7768H82.8236H82.8704H82.9172H82.964H83.0107H83.0575H83.1043H83.151H83.1977H83.2445H83.2912H83.3379H83.3846H83.4314H83.4781H83.5248H83.5715H83.6183H83.665H83.7117H83.7585H83.8052H83.852H83.8988H83.9456H83.9924H84.0392H84.086H84.1328H84.1797H84.2265H84.2734H84.3203H84.3673H84.4142H84.4612H84.5082H84.5552H84.6022H84.6493H84.6964H84.7435H84.7907H84.8379H84.8851H84.9324H84.9797H85.027H85.0743H85.1217H85.1692H85.2167H85.2642H85.3117H85.3593H85.407H85.4547H85.5024H85.5502H85.598H85.6459H85.6938H85.7418H85.7899H85.8379H85.8861H85.9343H85.9825H86.0309H86.0792H86.1277H86.1761H86.2247H86.2733H86.322H86.3707H86.4195H86.4684H86.5174H86.5664H86.6155H86.6646H86.7139H86.7632H86.8125H86.862H86.9115H86.9611H87.0108H87.0606H87.1104H87.1604H87.2104H87.2605H87.3107H87.3609H87.4113H87.4617H87.5123H87.5629H87.6136H87.6644H87.7153H87.7663H87.8174H87.8686H87.9199H87.9713H88.0228H88.0744H88.1261H88.1779H88.2298H88.2818H88.3339H88.3861H88.4384H88.4909H88.5434H88.5961H88.6489H88.7018H88.7548H88.8079H88.8611H88.9145H88.968H89.0216H89.0753H89.1291H89.1831H89.2372H89.2914H89.3457H89.4002H89.4548H89.5095H89.5644H89.6194H89.6745H89.7297H89.7851H89.8407H89.8963H89.9521H90.0081H90.0642H90.1204H90.1768H90.2333H90.2899H90.3467H90.4037H90.4608H90.518H90.5754H90.633H90.6907H90.7485H90.8065H90.8647H90.923H90.9815H91.0401H91.0989H91.1579H91.217H91.2763H91.3358H91.3954H91.4551H91.5151H91.5752H91.6355H91.6959H91.7566H91.8174H91.8783H91.9395H92.0008H92.0623H92.124H92.1858H92.2479H92.3101H92.3725H92.4351H92.4978H92.5608H92.6239H92.6872H92.7508H92.8145H92.8784H92.9424H93.0067H93.0712H93.1359H93.2007H93.2658H93.331H93.3965H93.4622H93.528H93.5941H93.6603H93.7268H93.7935H93.8604H93.9274H93.9947H94.0623H94.13H94.1979H94.266H94.3344H94.403H94.4718H94.5408H94.61H94.6794H94.7491H94.819H94.8891H94.9594H95.03H95.1007H95.1718H95.243H95.3145H95.3861H95.4581H95.5302H95.6026H95.6752H95.7481H95.8212H95.8945H95.9681H96.0419H96.116H96.1903H96.2648C98.4739 126.916 100.265 125.125 100.265 122.916C100.265 120.706 98.4739 118.916 96.2648 118.916H96.1903H96.116H96.0419H95.9681H95.8945H95.8212H95.7481H95.6752H95.6026H95.5302H95.4581H95.3861H95.3145H95.243H95.1718H95.1007H95.03H94.9594H94.8891H94.819H94.7491H94.6794H94.61H94.5408H94.4718H94.403H94.3344H94.266H94.1979H94.13H94.0623H93.9947H93.9274H93.8604H93.7935H93.7268H93.6603H93.5941H93.528H93.4622H93.3965H93.331H93.2658H93.2007H93.1359H93.0712H93.0067H92.9424H92.8784H92.8145H92.7508H92.6872H92.6239H92.5608H92.4978H92.4351H92.3725H92.3101H92.2479H92.1858H92.124H92.0623H92.0008H91.9395H91.8783H91.8174H91.7566H91.6959H91.6355H91.5752H91.5151H91.4551H91.3954H91.3358H91.2763H91.217H91.1579H91.0989H91.0401H90.9815H90.923H90.8647H90.8065H90.7485H90.6907H90.633H90.5754H90.518H90.4608H90.4037H90.3467H90.2899H90.2333H90.1768H90.1204H90.0642H90.0081H89.9521H89.8963H89.8407H89.7851H89.7297H89.6745H89.6194H89.5644H89.5095H89.4548H89.4002H89.3457H89.2914H89.2372H89.1831H89.1291H89.0753H89.0216H88.968H88.9145H88.8611H88.8079H88.7548H88.7018H88.6489H88.5961H88.5434H88.4909H88.4384H88.3861H88.3339H88.2818H88.2298H88.1779H88.1261H88.0744H88.0228H87.9713H87.9199H87.8686H87.8174H87.7663H87.7153H87.6644H87.6136H87.5629H87.5123H87.4617H87.4113H87.3609H87.3107H87.2605H87.2104H87.1604H87.1104H87.0606H87.0108H86.9611H86.9115H86.862H86.8125H86.7632H86.7139H86.6646H86.6155H86.5664H86.5174H86.4684H86.4195H86.3707H86.322H86.2733H86.2247H86.1761H86.1277H86.0792H86.0309H85.9825H85.9343H85.8861H85.8379H85.7899H85.7418H85.6938H85.6459H85.598H85.5502H85.5024H85.4547H85.407H85.3593H85.3117H85.2642H85.2167H85.1692H85.1217H85.0743H85.027H84.9797H84.9324H84.8851H84.8379H84.7907H84.7435H84.6964H84.6493H84.6022H84.5552H84.5082H84.4612H84.4142H84.3673H84.3203H84.2734H84.2265H84.1797H84.1328H84.086H84.0392H83.9924H83.9456H83.8988H83.852H83.8052H83.7585H83.7117H83.665H83.6183H83.5715H83.5248H83.4781H83.4314H83.3846H83.3379H83.2912H83.2445H83.1977H83.151H83.1043H83.0575H83.0107H82.964H82.9172H82.8704H82.8236H82.7768H82.73H82.6831H82.6363H82.5894H82.5425H82.4956H82.4486H82.4016H82.3547H82.3076H82.2606H82.2135H82.1665H82.1193H82.0722H82.025H81.9778H81.9306H81.8833H81.836H81.7886H81.7412H81.6938H81.6463H81.5988H81.5513H81.5037H81.4561H81.4084H81.3607H81.3129H81.2651H81.2172H81.1693H81.1214H81.0733H81.0253H80.9772H80.929H80.8807H80.8325H80.7841H80.7357H80.6872H80.6387H80.5901H80.5414H80.4927H80.4439H80.3951H80.3462H80.2972H80.2481H80.199H80.1498H80.1005H80.0511H80.0017H79.9522H79.9026H79.853H79.8032H79.7534H79.7035H79.6535H79.6034H79.5533H79.503H79.4527H79.4023H79.3518H79.3012H79.2505H79.1997H79.1489H79.0979H79.0468H78.9957H78.9444H78.8931H78.8416H78.7901H78.7384H78.6866H78.6348H78.5828H78.5307H78.4786H78.4263H78.3739H78.3214H78.2687H78.216H78.1631H78.1102H78.0571H78.0039H77.9506H77.8972H77.8436H77.7899H77.7361H77.6822H77.6282H77.574H77.5197H77.4653H77.4107H77.3561H77.3012H77.2463H77.1912H77.136H77.0807H77.0252H76.9696H76.9138H76.8579H76.8019H76.7457H76.6894H76.6329H76.5763H76.5196H76.4627H76.4056H76.3484H76.2911H76.2336H76.1759H76.1181H76.0602H76.0021H75.9438H75.8854H75.8268H75.7681H75.7092H75.6501H75.5909H75.5315H75.4719H75.4122H75.3523H75.2923H75.232H75.1716H75.1111H75.0503H74.9894H74.9283H74.8671H74.8056H74.744H74.6822H74.6203H74.5581H74.4958H74.4333H74.3706H74.3077H74.2446H74.1813H74.1179H74.0543H73.9904H73.9264H73.8622H73.7978H73.7332H73.6684H73.6034H73.5382H73.4728H73.4073H73.3415H73.2755H73.2093H73.1429H73.0763H73.0095H72.9425H72.8752H72.8078H72.7402H72.6723H72.6042H72.536H72.4675H72.3988H72.3298H72.2607H72.1913H72.1217H72.0519H71.9819H71.9117H71.8412H71.7705H71.6995H71.6284H71.557H71.4854H71.4136H71.3415H71.2692H71.1966H71.1238H71.0508H70.9776H70.9041H70.8304H70.7564H70.6822H70.6077H70.533H70.4581H70.3829H70.3075H70.2318H70.1559H70.0797H70.0033H69.9266H69.8497H69.7725H69.695H69.6173H69.5394H69.4612H69.3827H69.304H69.225H69.1457H69.0662H68.9864H68.9063H68.826H68.7454H68.6646H68.5835H68.5021H68.4204H68.3384H68.2562H68.1737H68.091H68.0079H67.9246H67.841H67.7571H67.6729H67.5885H67.5038H67.4187H67.3334H67.2478H67.162H67.0758H66.9893H66.9026H66.8155H66.7282H66.6406H66.5527H66.4644H66.3759H66.2871H66.198C62.0351 118.916 58.6605 115.541 58.6605 111.378V110.455ZM129.167 145.834C142.744 145.834 153.751 134.827 153.751 121.25C153.751 107.673 142.744 96.667 129.167 96.667C115.59 96.667 104.584 107.673 104.584 121.25C104.584 134.827 115.59 145.834 129.167 145.834ZM133.584 110C133.584 107.791 131.793 106 129.584 106C127.375 106 125.584 107.791 125.584 110V117.667H117.918C115.708 117.667 113.918 119.458 113.918 121.667C113.918 123.876 115.708 125.667 117.918 125.667H125.584V133.334C125.584 135.543 127.375 137.334 129.584 137.334C131.793 137.334 133.584 135.543 133.584 133.334V125.667H141.251C143.46 125.667 145.251 123.876 145.251 121.667C145.251 119.458 143.46 117.667 141.251 117.667H133.584V110Z" fill="var(--spectrum-global-color-gray-800, #292929)"/>
</svg>
