<svg width="48" height="48" viewBox="0 0 48 48" xmlns="http://www.w3.org/2000/svg">
<path fill-rule="evenodd" d="M7.99935 23.7833C8.68971 23.7833 9.24935 24.343 9.24935 25.0333L9.24935 33.8333C9.24935 35.168 10.3313 36.25 11.666 36.25L35.4994 36.25C36.834 36.25 37.916 35.168 37.916 33.8333L37.916 25.0333C37.916 24.343 38.4757 23.7833 39.166 23.7833C39.8564 23.7833 40.416 24.343 40.416 25.0333L40.416 33.8333C40.416 36.5487 38.2147 38.75 35.4994 38.75L11.666 38.75C8.95062 38.75 6.74935 36.5487 6.74935 33.8333L6.74935 25.0333C6.74935 24.343 7.309 23.7833 7.99935 23.7833ZM21.7494 9.90833C21.7494 9.21798 22.309 8.65833 22.9994 8.65833C23.6897 8.65833 24.2494 9.21798 24.2494 9.90833L24.2494 27.4824L27.1155 24.6162C27.6036 24.1281 28.3951 24.1281 28.8832 24.6162C29.3714 25.1044 29.3714 25.8959 28.8832 26.384L23.8832 31.384C23.3951 31.8722 22.6036 31.8722 22.1155 31.384L17.1155 26.384C16.6273 25.8959 16.6273 25.1044 17.1155 24.6162C17.6036 24.1281 18.3951 24.1281 18.8832 24.6162L21.7494 27.4824L21.7494 9.90833Z" fill="var(--spectrum-global-color-gray-800, #292929)"/>
</svg>
