<svg width="96" height="97" viewBox="0 0 96 97" xmlns="http://www.w3.org/2000/svg">
<path fill-rule="evenodd" d="M78.9337 20.4142C79.7148 19.6332 79.7148 18.3668 78.9337 17.5858C78.1527 16.8047 76.8864 16.8047 76.1053 17.5858L56.9218 36.7693V24.2579C56.9218 23.1533 56.0264 22.2579 54.9218 22.2579C53.8173 22.2579 52.9218 23.1533 52.9218 24.2579V41.582C52.9218 42.6865 53.8173 43.582 54.9218 43.582H72.2459C73.3505 43.582 74.2459 42.6865 74.2459 41.582C74.2459 40.4774 73.3505 39.582 72.2459 39.582H59.766L78.9337 20.4142ZM16.5858 77.0858C15.8047 77.8668 15.8047 79.1332 16.5858 79.9142C17.3668 80.6953 18.6332 80.6953 19.4142 79.9142L39.2032 60.1253V72.8144C39.2032 73.919 40.0986 74.8144 41.2032 74.8144C42.3077 74.8144 43.2032 73.919 43.2032 72.8144L43.2032 55.4903C43.2032 54.3857 42.3077 53.4903 41.2032 53.4903H23.8791C22.7745 53.4903 21.8791 54.3857 21.8791 55.4903C21.8791 56.5949 22.7745 57.4903 23.8791 57.4903H36.1813L16.5858 77.0858Z" fill="var(--spectrum-global-color-gray-800, #292929)"/>
</svg>
