<svg width="48" height="48" viewBox="0 0 48 48" xmlns="http://www.w3.org/2000/svg">
<path fill-rule="evenodd" d="M9.86261 7C6.80135 7 4.25 9.39614 4.25 12.49V26.9535C4.25 30.0473 6.80135 32.4434 9.86261 32.4434H12.6564C12.6624 34.2992 12.6649 36.5259 12.6518 38.3005C12.6344 40.646 15.3931 41.8166 17.1172 40.3512L17.1187 40.3499L26.4768 32.4434H38.1374C41.1986 32.4434 43.75 30.0473 43.75 26.9535V12.49C43.75 9.39614 41.1986 7 38.1374 7H9.86261ZM6.75 12.49C6.75 10.8526 8.10506 9.5 9.86261 9.5H38.1374C39.8949 9.5 41.25 10.8526 41.25 12.49V26.9535C41.25 28.5908 39.8949 29.9434 38.1374 29.9434H26.0195H25.5621L25.2128 30.2386L15.5018 38.4432L15.4983 38.4462C15.4542 38.4837 15.4177 38.4951 15.3871 38.4987C15.3507 38.5029 15.3062 38.4972 15.2621 38.4773C15.218 38.4573 15.1896 38.4301 15.1746 38.4081C15.1632 38.3914 15.1514 38.3672 15.1517 38.319C15.1681 36.1083 15.1603 33.2093 15.1518 31.1882L15.1465 29.9434H13.9018H9.86261C8.10506 29.9434 6.75 28.5908 6.75 26.9535V12.49ZM15 15.4922C14.3096 15.4922 13.75 16.0518 13.75 16.7422C13.75 17.4325 14.3096 17.9922 15 17.9922H33C33.6904 17.9922 34.25 17.4325 34.25 16.7422C34.25 16.0518 33.6904 15.4922 33 15.4922H15ZM15 21.4922C14.3096 21.4922 13.75 22.0518 13.75 22.7422C13.75 23.4325 14.3096 23.9922 15 23.9922H33C33.6904 23.9922 34.25 23.4325 34.25 22.7422C34.25 22.0518 33.6904 21.4922 33 21.4922H15Z" fill="var(--spectrum-global-color-gray-800, #292929)"/>
</svg>
