<svg width="96" height="97" viewBox="0 0 96 97" xmlns="http://www.w3.org/2000/svg">
<path fill-rule="evenodd" d="M18.2383 16.7539C17.1337 16.7539 16.2383 17.6493 16.2383 18.7539V32.0096C16.2383 33.1142 17.1337 34.0096 18.2383 34.0096C19.3429 34.0096 20.2383 33.1142 20.2383 32.0096V23.4866L45.1711 48.4194L20.2385 73.3519L20.2385 64.9773C20.2385 63.8728 19.3431 62.9773 18.2385 62.9773C17.1339 62.9773 16.2385 63.8728 16.2385 64.9773L16.2385 78.233C16.2385 79.3376 17.1339 80.233 18.2385 80.233H31.5369C32.6415 80.233 33.5369 79.3376 33.5369 78.233C33.5369 77.1284 32.6415 76.233 31.5369 76.233H23.0143L47.9995 51.2478L72.9847 76.233H64.4621C63.3575 76.233 62.4621 77.1284 62.4621 78.233C62.4621 79.3376 63.3575 80.233 64.4621 80.233H77.7605C78.8651 80.233 79.7605 79.3376 79.7605 78.233V64.9773C79.7605 63.8728 78.8651 62.9773 77.7605 62.9773C76.6559 62.9773 75.7605 63.8728 75.7605 64.9773V73.3519L50.8279 48.4194L75.7607 23.4866V32.0096C75.7607 33.1142 76.6562 34.0096 77.7607 34.0096C78.8653 34.0096 79.7607 33.1142 79.7607 32.0096V18.7539C79.7607 17.6493 78.8653 16.7539 77.7607 16.7539H64.4623C63.3577 16.7539 62.4623 17.6493 62.4623 18.7539C62.4623 19.8585 63.3577 20.7539 64.4623 20.7539H72.8365L47.9995 45.5909L23.1625 20.7539H31.5367C32.6413 20.7539 33.5367 19.8585 33.5367 18.7539C33.5367 17.6493 32.6413 16.7539 31.5367 16.7539H18.2383Z" fill="var(--spectrum-global-color-gray-800, #292929)"/>
</svg>
