<svg width="48" height="48" viewBox="0 0 48 48" xmlns="http://www.w3.org/2000/svg">
<path fill-rule="evenodd" d="M10.7695 12.0391C9.24989 12.0391 8.01953 13.2694 8.01953 14.7891V16.6791H40.0695V14.7891C40.0695 13.2694 38.8392 12.0391 37.3195 12.0391H10.7695ZM8.01953 33.2091V19.1791H12.6396V35.9591H10.7695C9.24989 35.9591 8.01953 34.7287 8.01953 33.2091ZM29.4695 35.9591H15.1396V19.1791H40.0695V25.3391C40.0695 26.0294 40.6292 26.5891 41.3195 26.5891C42.0099 26.5891 42.5695 26.0294 42.5695 25.3391V14.7891C42.5695 11.8887 40.2199 9.53906 37.3195 9.53906H10.7695C7.86918 9.53906 5.51953 11.8887 5.51953 14.7891V33.2091C5.51953 36.1094 7.86918 38.4591 10.7695 38.4591H29.4695C30.1599 38.4591 30.7195 37.8994 30.7195 37.2091C30.7195 36.5187 30.1599 35.9591 29.4695 35.9591ZM31.9697 34.8691C31.9697 30.9691 35.1297 27.8091 39.0297 27.8091C42.9297 27.8091 46.0897 30.9691 46.0897 34.8691C46.0897 38.7691 42.9297 41.9291 39.0297 41.9291C35.1297 41.9291 31.9697 38.7691 31.9697 34.8691ZM40.2797 36.0991H42.4497C43.1397 36.0991 43.6997 35.5391 43.6997 34.8491C43.6997 34.1591 43.1397 33.5991 42.4497 33.5991H40.2797V31.4291C40.2797 30.7391 39.7197 30.1791 39.0297 30.1791C38.3397 30.1791 37.7797 30.7391 37.7797 31.4291V33.5991H35.6097C34.9197 33.5991 34.3597 34.1591 34.3597 34.8491C34.3597 35.5391 34.9197 36.0991 35.6097 36.0991H37.7797V38.2691C37.7797 38.9591 38.3397 39.5191 39.0297 39.5191C39.7197 39.5191 40.2797 38.9591 40.2797 38.2691V36.0991Z" fill="var(--spectrum-global-color-gray-800, #292929)"/>
</svg>
