<svg width="160" height="160" viewBox="0 0 160 160" xmlns="http://www.w3.org/2000/svg">
<path fill-rule="evenodd" d="M62.4659 132.504C68.2779 134.671 74.4308 135.781 80.6338 135.781H104.989C105.085 135.781 105.18 135.778 105.274 135.771H111.89C114.887 135.771 118.171 134.955 120.806 132.933C123.573 130.811 125.361 127.543 125.361 123.382C125.361 122.215 125.121 120.172 124.168 118.083C127.573 116.476 130.155 113.338 130.951 109.454C131.624 106.167 130.921 102.971 129.279 100.402C132.186 98.2951 134.137 94.9408 134.334 91.0979C134.477 88.3118 133.68 85.7041 132.228 83.5733C134.907 81.4556 136.686 78.2387 136.874 74.5789C137.233 67.5706 131.647 61.6915 124.63 61.6915H97.9376L99.6294 56.2556C101.482 50.3043 102.67 44.1663 103.173 37.9537L103.454 34.4821C104.015 27.5556 98.5451 21.625 91.596 21.625C87.0107 21.625 82.8335 24.2602 80.8588 28.3985L71.552 47.9025C70.7478 49.5878 69.8209 51.2119 68.7789 52.7616L68.5461 53.1077C62.81 61.638 53.2048 66.754 42.9253 66.754H37.1113C29.3793 66.754 23.1113 73.022 23.1113 80.754V112.47C23.1113 120.202 29.3793 126.47 37.1113 126.47H38.3461C43.5947 126.47 48.801 127.409 53.7189 129.243L62.4659 132.504ZM80.6338 127.781H93.7761C93.8702 127.775 93.9652 127.771 94.061 127.771H111.89C113.55 127.771 115.001 127.303 115.937 126.585C116.741 125.968 117.361 125.041 117.361 123.382C117.361 122.919 117.237 122.006 116.785 121.189C116.402 120.497 115.746 119.772 114.319 119.391C114.172 119.352 114.03 119.306 113.892 119.252H113.886H113.88H113.874H113.868H113.862H113.856H113.85H113.844H113.838H113.832H113.826H113.82H113.814H113.809H113.803H113.797H113.791H113.786H113.78H113.774H113.769H113.763H113.757H113.752H113.746H113.741H113.735H113.73H113.724H113.719H113.714H113.708H113.703H113.698H113.692H113.687H113.682H113.677H113.672H113.666H113.661H113.656C111.447 119.252 109.656 117.461 109.656 115.252C109.656 113.043 111.447 111.252 113.656 111.252H113.661H113.666H113.672H113.677H113.682H113.687H113.692H113.698H113.703H113.708H113.714H113.719H113.724H113.73H113.735H113.741H113.746H113.752H113.757H113.763H113.769H113.774H113.78H113.786H113.791H113.797H113.803H113.809H113.814H113.82H113.826H113.832H113.838H113.844H113.85H113.856H113.862H113.868H113.874H113.88H113.886H113.892H113.898H113.905H113.911H113.917H113.923H113.93H113.936H113.942H113.949H113.955H113.961H113.968H113.974H113.981H113.987H113.994H114H114.007H114.014H114.02H114.027H114.034H114.04H114.047H114.054H114.061H114.067H114.074H114.081H114.088H114.095H114.102H114.109H114.116H114.123H114.13H114.137H114.144H114.151H114.158H114.165H114.172H114.18H114.187H114.194H114.201H114.209H114.216H114.223H114.231H114.238H114.245H114.253H114.26H114.268H114.275H114.283H114.29H114.298H114.305H114.313H114.321H114.328H114.336H114.344H114.351H114.359H114.367H114.375H114.382H114.39H114.398H114.406H114.414H114.422H114.43H114.438H114.446H114.454H114.462H114.47H114.478H114.486H114.494H114.502H114.51H114.519H114.527H114.535H114.543H114.552H114.56H114.568H114.577H114.585H114.593H114.602H114.61H114.619H114.627H114.636H114.644H114.653H114.661H114.67H114.678H114.687H114.696H114.704H114.713H114.722H114.73H114.739H114.748H114.757H114.766H114.774H114.783H114.792H114.801H114.81H114.819H114.828H114.837H114.846H114.855H114.864H114.873H114.882H114.891H114.9H114.909H114.919H114.928H114.937H114.946H114.955H114.965H114.974H114.983H114.993H115.002H115.011H115.021H115.03H115.04H115.049H115.059H115.068H115.078H115.087H115.097H115.106H115.116H115.125H115.135H115.145H115.154H115.164H115.174H115.183H115.193H115.203H115.213H115.222H115.232H115.242H115.252H115.262H115.272H115.282H115.292H115.302H115.312H115.321H115.332H115.342H115.352H115.362H115.372H115.382H115.392H115.402H115.412H115.422H115.433H115.443H115.453H115.463H115.474H115.484H115.494H115.505H115.515H115.525H115.536H115.546H115.556H115.567H115.577H115.588H115.598H115.609H115.619H115.63H115.64H115.651H115.662H115.672H115.683H115.693H115.704H115.715H115.725H115.736H115.747H115.758H115.768H115.779H115.79H115.801H115.812H115.823H115.833H115.844H115.855H115.866H115.877H115.888H115.899H115.91H115.921H115.932H115.943H115.954H115.965H115.976H115.987H115.999H116.01H116.021H116.032H116.043H116.054H116.066H116.077H116.088H116.099H116.111H116.122H116.133H116.145H116.156H116.167H116.179H116.19H116.202H116.213H116.224H116.236H116.247H116.259H116.27H116.282H116.293H116.305H116.317H116.328H116.34H116.351H116.363H116.375H116.386H116.398H116.41H116.422H116.433H116.445H116.457H116.469H116.48H116.492H116.504H116.516H116.528H116.539H116.551H116.563H116.575H116.587H116.599H116.611H116.623H116.635H116.647H116.659H116.671H116.683H116.695H116.707H116.719H116.731H116.743H116.756H116.768H116.78H116.792H116.804H116.816H116.829H116.841H116.853H116.865H116.878H116.89H116.902H116.915H116.927H116.939H116.952H116.964H116.976H116.989H117.001H117.014H117.026H117.038H117.051H117.063H117.076H117.088H117.101H117.113H117.126H117.139H117.151H117.164H117.176H117.189H117.202H117.214H117.227H117.239H117.252H117.265H117.278H117.29H117.303H117.316H117.328H117.341H117.354H117.367H117.38H117.392H117.405H117.418H117.431H117.444H117.457H117.47H117.482H117.495H117.508H117.521H117.534H117.547H117.56H117.573H117.586H117.599H117.612H117.625H117.638H117.651H117.664H117.677H117.69H117.704H117.717H117.73H117.743H117.756H117.769H117.782H117.796H117.809H117.822H117.835H117.848H117.862H117.875H117.888H117.901H117.915H117.928H117.941H117.955H117.968H117.981H117.995H118.008H118.021H118.035H118.048H118.062H118.075H118.088H118.102H118.115H118.129H118.142H118.156H118.169H118.183H118.196H118.21H118.223H118.237H118.25H118.264H118.277H118.291H118.305H118.318H118.332H118.345H118.359H118.373H118.386H118.4H118.414H118.427H118.441H118.455H118.469H118.482H118.496H118.51H118.523H118.537H118.551H118.565H118.579H118.592H118.606H118.62H118.634H118.648H118.661H118.675H118.689H118.703H118.717H118.731H118.745H118.759H118.772H118.786H118.8H118.814H118.828H118.842H118.856H118.87H118.884H118.898H118.912H118.926H118.94C120.963 111.252 122.708 109.829 123.114 107.847C123.655 105.206 121.637 102.732 118.94 102.732H117.042C114.833 102.732 113.042 100.941 113.042 98.732C113.042 96.5229 114.833 94.732 117.042 94.732H118.94C119.255 94.732 119.566 94.7437 119.873 94.7666C120.05 94.7428 120.23 94.7305 120.413 94.7305H120.415H120.418H120.42H120.422H120.424H120.427H120.429H120.431H120.434H120.436H120.438H120.441H120.443H120.445H120.448H120.45H120.452H120.454H120.457H120.459H120.462H120.464H120.466H120.469H120.471H120.473H120.476H120.478H120.48H120.483H120.485H120.488H120.49H120.492H120.495H120.497H120.5H120.502H120.504H120.507H120.509H120.512H120.514H120.517H120.519H120.522H120.524H120.527H120.529H120.531H120.534H120.536H120.539H120.541H120.544H120.546H120.549H120.551H120.554H120.556H120.559H120.561H120.564H120.566H120.569H120.572H120.574H120.577H120.579H120.582H120.584H120.587H120.589H120.592H120.595H120.597H120.6H120.602H120.605H120.608H120.61H120.613H120.615H120.618H120.621H120.623H120.626H120.628H120.631H120.634H120.636H120.639H120.642H120.644H120.647H120.65H120.652H120.655H120.658H120.66H120.663H120.666H120.668H120.671H120.674H120.677H120.679H120.682H120.685H120.687H120.69H120.693H120.696H120.698H120.701H120.704H120.707H120.709H120.712H120.715H120.718H120.72H120.723H120.726H120.729H120.732H120.734H120.737H120.74H120.743H120.746H120.748H120.751H120.754H120.757H120.76H120.762H120.765H120.768H120.771H120.774H120.777H120.78H120.782H120.785H120.788H120.791H120.794H120.797H120.8H120.803H120.805H120.808H120.811H120.814H120.817H120.82H120.823H120.826H120.829H120.832H120.835H120.837H120.84H120.843H120.846H120.849H120.852H120.855H120.858H120.861H120.864H120.867H120.87H120.873H120.876H120.879H120.882H120.885H120.888H120.891H120.894H120.897H120.9H120.903H120.906H120.909H120.912H120.915H120.918H120.921H120.924H120.927H120.93H120.934H120.937H120.94H120.943H120.946H120.949H120.952H120.955H120.958H120.961H120.964H120.967H120.971H120.974H120.977H120.98H120.983H120.986H120.989H120.992H120.996H120.999H121.002H121.005H121.008H121.011H121.015H121.018H121.021H121.024H121.027H121.03H121.034H121.037H121.04H121.043H121.046H121.05H121.053H121.056H121.059H121.062H121.066H121.069H121.072H121.075H121.079H121.082H121.085H121.088H121.092H121.095H121.098H121.101H121.105H121.108H121.111H121.115H121.118H121.121H121.124H121.128H121.131H121.134H121.138H121.141H121.144H121.148H121.151H121.154H121.158H121.161H121.164H121.168H121.171H121.174H121.178H121.181H121.184H121.188H121.191H121.194H121.198H121.201H121.205H121.208H121.211H121.215H121.218H121.222H121.225H121.228H121.232H121.235H121.239H121.242H121.245H121.249H121.252H121.256H121.259H121.263H121.266H121.27H121.273H121.276H121.28H121.283H121.287H121.29H121.294H121.297H121.301H121.304H121.308H121.311H121.315H121.318H121.322H121.325H121.329H121.332H121.336H121.339H121.343H121.346H121.35H121.354H121.357H121.361H121.364H121.368H121.371H121.375H121.378H121.382H121.386H121.389H121.393H121.396H121.4H121.403H121.407H121.411H121.414H121.418H121.421H121.425H121.429H121.432H121.436H121.44H121.443H121.447H121.45H121.454H121.458H121.461H121.465H121.469H121.472H121.476H121.48H121.483H121.487H121.491H121.494H121.498H121.502H121.505H121.509H121.513H121.517H121.52H121.524H121.528H121.531H121.535H121.539H121.543H121.546H121.55H121.554H121.557H121.561H121.565H121.569H121.572H121.576H121.58H121.584H121.588H121.591H121.595H121.599H121.603H121.606H121.61H121.614H121.618H121.622H121.625H121.629H121.633H121.637H121.641H121.644H121.648H121.652H121.656H121.66H121.664H121.667H121.671H121.675H121.679H121.683H121.687H121.691H121.694H121.698H121.702H121.706H121.71H121.714H121.718H121.721H121.725H121.729H121.733H121.737H121.741H121.745H121.749H121.753H121.757H121.761H121.764H121.768H121.772H121.776H121.78H121.784H121.788H121.792H121.796H121.8H121.804H121.808H121.812H121.816H121.82H121.824H121.828H121.832H121.836H121.84H121.844H121.848H121.852H121.856H121.86H121.864H121.868H121.872H121.876H121.88H121.884H121.888H121.892H121.896H121.9H121.904H121.908H121.912H121.916H121.92H121.924H121.928H121.932H121.936H121.94H121.944H121.949H121.953H121.957H121.961H121.965H121.969H121.973H121.977H121.981H121.985H121.989H121.994H121.998H122.002H122.006H122.01H122.014H122.018H122.022H122.027H122.031H122.035H122.039H122.043H122.047H122.051H122.056H122.06H122.064H122.068H122.072H122.076H122.081H122.085H122.089C124.358 94.7305 126.229 92.9527 126.345 90.6885C126.468 88.2838 124.577 86.2616 122.182 86.2115H122.18H122.172H122.163H122.155H122.147H122.138H122.13H122.122H122.113H122.105H122.097H122.089H122.08H122.072H122.064H122.056H122.048H122.039H122.031H122.023H122.015H122.007H121.998H121.99H121.982H121.974H121.966H121.958H121.95H121.942H121.934H121.925H121.917H121.909H121.901H121.893H121.885H121.877H121.869H121.861H121.853H121.845H121.837H121.829H121.821H121.813H121.805H121.797H121.79H121.782H121.774H121.766H121.758H121.75H121.742H121.734H121.726H121.719H121.711H121.703H121.695H121.687H121.68H121.672H121.664H121.656H121.648H121.641H121.633H121.625H121.617H121.61H121.602H121.594H121.587H121.579H121.571H121.564H121.556H121.548H121.541H121.533H121.525H121.518H121.51H121.503H121.495H121.488H121.48H121.472H121.465H121.457H121.45H121.442H121.435H121.427H121.42H121.412H121.405H121.397H121.39H121.382H121.375H121.368H121.36H121.353H121.345H121.338H121.33H121.323H121.316H121.308H121.301H121.294H121.286H121.279H121.272H121.264H121.257H121.25H121.243H121.235H121.228H121.221H121.213H121.206H121.199H121.192H121.185H121.177H121.17H121.163H121.156H121.149H121.141H121.134H121.127H121.12H121.113H121.106H121.099H121.092H121.084H121.077H121.07H121.063H121.056H121.049H121.042H121.035H121.028H121.021H121.014H121.007H121H120.993H120.986H120.979H120.972H120.965H120.958H120.951H120.944H120.938H120.931H120.924H120.917H120.91H120.903H120.896H120.889H120.883H120.876H120.869H120.862H120.855H120.848H120.842H120.835H120.828H120.821H120.815H120.808H120.801H120.794H120.788H120.781H120.774H120.768H120.761H120.754H120.748H120.741H120.734H120.728H120.721H120.714H120.708H120.701H120.694H120.688H120.681H120.675H120.668H120.662H120.655H120.648H120.642H120.635H120.629H120.622H120.616H120.609H120.603H120.596H120.59H120.584H120.577H120.571H120.564H120.558H120.551H120.545H120.539H120.532H120.526H120.519H120.513H120.507H120.5H120.494H120.488H120.481H120.475H120.469H120.462H120.456H120.45H120.444H120.437H120.431H120.425H120.419H120.412H120.406H120.4H120.394H120.387H120.381H120.375H120.369H120.363H120.357H120.35H120.344H120.338H120.332C120.303 86.2115 120.273 86.2111 120.244 86.2105H119.567C117.358 86.2105 115.567 84.4197 115.567 82.2105C115.567 80.0014 117.358 78.2105 119.567 78.2105H122.09C122.142 78.2105 122.193 78.2108 122.245 78.2115H122.247H122.256H122.264H122.272H122.281H122.289H122.298H122.306H122.315H122.323H122.332H122.34H122.349H122.357H122.366H122.375H122.383H122.392H122.4H122.409H122.418H122.426H122.435H122.443H122.452H122.461H122.469H122.478H122.487H122.495H122.504H122.513H122.522H122.53H122.539H122.548H122.557H122.565H122.574H122.583H122.592H122.6H122.609H122.618H122.627H122.636H122.645H122.653H122.662H122.671H122.68H122.689H122.698H122.707H122.716H122.725H122.734H122.743H122.752H122.761H122.77H122.779H122.787H122.797H122.806H122.815H122.824H122.833H122.842H122.851H122.86H122.869H122.878H122.887H122.896H122.905H122.914H122.924H122.933H122.942H122.951H122.96H122.969H122.979H122.988H122.997H123.006H123.016H123.025H123.034H123.043H123.053H123.062H123.071H123.08H123.09H123.099H123.108H123.118H123.127H123.137H123.146H123.155H123.165H123.174H123.183H123.193H123.202H123.212H123.221H123.231H123.24H123.25H123.259H123.269H123.278H123.288H123.297H123.307H123.316H123.326H123.335H123.345H123.354H123.364H123.374H123.383H123.393H123.402H123.412H123.422H123.431H123.441H123.451H123.46H123.47H123.48H123.49H123.499H123.509H123.519H123.529H123.538H123.548H123.558H123.568H123.577H123.587H123.597H123.607H123.617H123.627H123.636H123.646H123.656H123.666H123.676H123.686H123.696H123.706H123.716H123.726H123.736H123.746H123.756H123.766H123.776H123.786H123.796H123.806H123.816H123.826H123.836H123.846H123.856H123.866H123.876H123.886H123.896H123.906H123.917H123.927H123.937H123.947H123.957H123.967H123.978H123.988H123.998H124.008H124.018H124.029H124.039H124.049H124.059H124.07H124.08H124.09H124.101H124.111H124.121H124.132H124.142H124.152H124.163H124.173H124.183H124.194H124.204H124.215H124.225H124.236H124.246H124.256H124.267H124.277H124.288H124.298H124.309H124.319H124.33H124.341H124.351H124.362H124.372H124.383H124.393H124.404H124.415H124.425H124.436H124.446H124.457H124.468H124.478H124.489H124.5H124.511H124.521H124.532H124.543H124.553H124.564H124.575H124.586H124.596H124.607H124.618H124.629C126.897 78.2115 128.768 76.434 128.884 74.1695C129.009 71.7343 127.068 69.6915 124.63 69.6915H96.9108C92.0271 69.6915 88.5425 64.9576 89.9939 60.2945L91.9909 53.8782C93.6679 48.49 94.7439 42.9329 95.1993 37.3081L95.4803 33.8365C95.664 31.5677 93.8723 29.625 91.596 29.625C90.094 29.625 88.7257 30.4882 88.0789 31.8438L78.7722 51.3477C77.7993 53.3865 76.6781 55.3511 75.4175 57.2257L75.1848 57.5718C68.9714 66.8118 59.1525 72.8702 48.2893 74.3826V119.429C51.0843 119.974 53.8353 120.748 56.5139 121.747L65.2609 125.008C70.1788 126.842 75.3851 127.781 80.6338 127.781ZM40.2893 118.506V74.754H37.1113C33.7976 74.754 31.1113 77.4403 31.1113 80.754V112.47C31.1113 115.783 33.7976 118.47 37.1113 118.47H38.3461C38.9945 118.47 39.6423 118.482 40.2893 118.506Z" fill="var(--spectrum-global-color-gray-800, #292929)"/>
</svg>
