<svg width="96" height="96" viewBox="0 0 96 96" xmlns="http://www.w3.org/2000/svg">
<path fill-rule="evenodd" d="M29.2998 15.7502H47.4986C47.5648 15.7436 47.6319 15.7402 47.6998 15.7402C50.0037 15.7402 52.2203 16.6282 53.8841 18.2267L53.8858 18.2284L72.8923 36.4149L72.8926 36.4152C74.6701 38.1156 75.6698 40.479 75.6698 42.9302V70.7302C75.6698 75.6873 71.6619 79.7202 66.7098 79.7202H29.2998C24.3478 79.7202 20.3398 75.6873 20.3398 70.7302V24.7402C20.3398 19.7831 24.3478 15.7502 29.2998 15.7502ZM47.6998 19.7502C47.757 19.7502 47.8136 19.7478 47.8695 19.7431C49.0832 19.7847 50.2386 20.2708 51.1138 21.1121L51.1171 21.1153L70.1271 39.3053L70.1274 39.3055C71.1097 40.2451 71.6698 41.5616 71.6698 42.9302V70.7302C71.6698 73.4931 69.4378 75.7202 66.7098 75.7202H29.2998C26.5719 75.7202 24.3398 73.4931 24.3398 70.7302V24.7402C24.3398 21.9773 26.5719 19.7502 29.2998 19.7502H47.6998ZM45.6602 66.4702V60.5702H49.7502V66.4702H45.6602ZM43.9402 52.5702C42.6293 52.5702 41.6602 53.6425 41.6602 54.8502V66.4702C41.6602 68.6913 43.4621 70.4702 45.6602 70.4702H49.7502C51.9712 70.4702 53.7502 68.6683 53.7502 66.4702V54.8502C53.7502 53.5394 52.6779 52.5702 51.4702 52.5702H49.6898V46.1102V43.8902H52.9191C54.0236 43.8902 54.9191 42.9948 54.9191 41.8902C54.9191 40.7857 54.0236 39.8902 52.9191 39.8902H49.6898V37.6602V35.4402H52.9191C54.0236 35.4402 54.9191 34.5448 54.9191 33.4402C54.9191 32.3357 54.0236 31.4402 52.9191 31.4402H49.6898V29.2202C49.6898 28.1157 48.7944 27.2202 47.6898 27.2202H43.0898C41.9853 27.2202 41.0898 28.1157 41.0898 29.2202C41.0898 30.3248 41.9853 31.2202 43.0898 31.2202H45.6898V35.6602H43.0898C41.9853 35.6602 41.0898 36.5557 41.0898 37.6602C41.0898 38.7648 41.9853 39.6602 43.0898 39.6602H45.6898V44.1102H43.0898C41.9853 44.1102 41.0898 45.0057 41.0898 46.1102C41.0898 47.2148 41.9853 48.1102 43.0898 48.1102H45.6898V52.5702H43.9402Z" fill="var(--spectrum-global-color-gray-800, #292929)"/>
</svg>
