<svg width="160" height="160" viewBox="0 0 160 160" xmlns="http://www.w3.org/2000/svg">
<path fill-rule="evenodd" d="M79.9993 30.1172C70.8707 30.1172 63.4705 37.5174 63.4705 46.646C63.4705 53.297 67.3989 59.0388 73.0793 61.6619C73.2586 61.7448 73.4289 61.8392 73.5897 61.9438C75.0773 62.7795 75.9165 64.5131 75.5404 66.2692L70.4636 89.9788C70.0686 91.8234 68.4386 93.1413 66.5523 93.1413H46.2871C39.6597 93.1413 34.2871 98.5139 34.2871 105.141V109.146H125.712V105.141C125.712 98.5139 120.34 93.1413 113.712 93.1413H93.3398C91.4256 93.1413 89.7796 91.785 89.4136 89.9061L84.7953 66.1964C84.5136 64.7502 85.0493 63.3344 86.0808 62.4263C86.4175 62.039 86.8349 61.7105 87.3236 61.4685C92.7862 58.7627 96.528 53.1376 96.528 46.646C96.528 37.5174 89.1279 30.1172 79.9993 30.1172ZM93.1688 67.3424C99.9925 62.9916 104.528 55.3515 104.528 46.646C104.528 33.0991 93.5461 22.1172 79.9993 22.1172C66.4524 22.1172 55.4705 33.0991 55.4705 46.646C55.4705 55.4631 60.1225 63.1871 67.0938 67.5083L63.3181 85.1413H46.2871C35.2414 85.1413 26.2871 94.0956 26.2871 105.141V113.146C26.2871 115.355 28.078 117.146 30.2871 117.146H129.712C131.921 117.146 133.712 115.355 133.712 113.146V105.141C133.712 94.0956 124.758 85.1413 113.712 85.1413H96.6359L93.1688 67.3424ZM34.8713 133.883C34.8713 131.674 36.6622 129.883 38.8713 129.883H121.13C123.339 129.883 125.13 131.674 125.13 133.883C125.13 136.092 123.339 137.883 121.13 137.883H38.8713C36.6622 137.883 34.8713 136.092 34.8713 133.883Z" fill="var(--spectrum-global-color-gray-800, #292929)"/>
</svg>
