<svg width="48" height="48" viewBox="0 0 48 48" xmlns="http://www.w3.org/2000/svg">
<path fill-rule="evenodd" d="M9.39746 19.74C9.39746 14.0791 13.9866 9.48999 19.6476 9.48999C25.3086 9.48999 29.8978 14.0791 29.8978 19.74C29.8978 25.4009 25.3086 29.99 19.6476 29.99C13.9866 29.99 9.39746 25.4009 9.39746 19.74ZM19.6476 6.98999C12.6059 6.98999 6.89746 12.6983 6.89746 19.74C6.89746 26.7816 12.6059 32.49 19.6476 32.49C22.7182 32.49 25.5353 31.4045 27.7361 29.5964L28.1427 30.003L27.6087 30.5371C27.1205 31.0252 27.1205 31.8167 27.6087 32.3049L36.1733 40.8693C37.4361 42.1321 39.4835 42.1321 40.7463 40.8693C42.0091 39.6065 42.0091 37.5591 40.7463 36.2963L32.1817 27.7318C31.6936 27.2437 30.9021 27.2437 30.414 27.7318L29.9105 28.2353L29.5039 27.8287C31.3122 25.6279 32.3978 22.8107 32.3978 19.74C32.3978 12.6983 26.6893 6.98999 19.6476 6.98999ZM31.2979 30.3835L30.2603 31.421L37.941 39.1016C38.2275 39.3881 38.692 39.3881 38.9785 39.1016C39.265 38.8151 39.265 38.3506 38.9785 38.0641L31.2979 30.3835Z" fill="var(--spectrum-global-color-gray-800, #292929)"/>
</svg>
