<svg width="96" height="96" viewBox="0 0 96 96" xmlns="http://www.w3.org/2000/svg">
<path fill-rule="evenodd" d="M48 16.7402C30.8792 16.7402 17 30.6194 17 47.7402C17 64.8611 30.8792 78.7402 48 78.7402C65.1208 78.7402 79 64.8611 79 47.7402C79 30.6194 65.1208 16.7402 48 16.7402ZM13 47.7402C13 28.4103 28.67 12.7402 48 12.7402C67.33 12.7402 83 28.4103 83 47.7402C83 67.0702 67.33 82.7402 48 82.7402C28.67 82.7402 13 67.0702 13 47.7402ZM50 46.5855V24.7402C50 23.6357 49.1046 22.7402 48 22.7402C46.8954 22.7402 46 23.6357 46 24.7402V47.7018C45.9985 47.7816 46.0019 47.8612 46.0099 47.9402C46.0386 48.2295 46.129 48.5007 46.2677 48.7404C46.4061 48.9807 46.5961 49.1949 46.8328 49.3645C46.8969 49.4106 46.9638 49.453 47.0332 49.4914L59.8586 56.8962C60.8152 57.4485 62.0383 57.1207 62.5906 56.1641C63.1429 55.2076 62.8152 53.9844 61.8586 53.4321L50 46.5855Z" fill="var(--spectrum-global-color-gray-800, #292929)"/>
</svg>
