<svg width="48" height="48" viewBox="0 0 48 48" xmlns="http://www.w3.org/2000/svg">
<path fill-rule="evenodd" d="M10.995 4.75C8.64693 4.75 6.75 6.65736 6.75 9V32.995C6.75 35.3376 8.64693 37.245 10.995 37.245H23C23.6904 37.245 24.25 36.6854 24.25 35.995C24.25 35.3046 23.6904 34.745 23 34.745H10.995C10.0331 34.745 9.25 33.9624 9.25 32.995V9C9.25 8.03264 10.0331 7.25 10.995 7.25H20.72C21.1724 7.25 21.6047 7.42365 21.9225 7.72995L21.9252 7.73259L31.7102 17.1076L31.7105 17.1078C32.0552 17.438 32.25 17.8923 32.25 18.37V25.745C32.25 26.4354 32.8096 26.995 33.5 26.995C34.1904 26.995 34.75 26.4354 34.75 25.745V18.37C34.75 17.2077 34.2748 16.102 33.4396 15.3022L23.6575 5.93005L23.6559 5.92853C22.8639 5.1658 21.8069 4.75 20.72 4.75H10.995ZM33.3691 43.2451C37.4422 43.2451 40.7441 39.9432 40.7441 35.8701C40.7441 31.797 37.4422 28.4951 33.3691 28.4951C29.296 28.4951 25.9941 31.797 25.9941 35.8701C25.9941 39.9432 29.296 43.2451 33.3691 43.2451ZM34.7432 32.495C34.7432 31.8046 34.1835 31.245 33.4932 31.245C32.8028 31.245 32.2432 31.8046 32.2432 32.495V34.745H29.9932C29.3028 34.745 28.7432 35.3046 28.7432 35.995C28.7432 36.6854 29.3028 37.245 29.9932 37.245H32.2432V39.495C32.2432 40.1853 32.8028 40.745 33.4932 40.745C34.1835 40.745 34.7432 40.1854 34.7432 39.495V37.245H36.9932C37.6835 37.245 38.2432 36.6854 38.2432 35.995C38.2432 35.3046 37.6835 34.745 36.9932 34.745H34.7432V32.495ZM22.869 26.3284C20.8527 26.3284 19.0896 27.8734 18.7346 29.9552C18.6185 30.6357 17.9728 31.0933 17.2922 30.9772C16.6117 30.8612 16.1541 30.2154 16.2702 29.5349C16.8149 26.3404 19.5466 23.8284 22.869 23.8284C23.7896 23.8284 24.6698 24.0235 25.4704 24.374C26.1028 24.6509 26.391 25.388 26.1141 26.0204C25.8372 26.6528 25.1001 26.941 24.4677 26.6641C23.973 26.4475 23.4335 26.3284 22.869 26.3284ZM17.0569 25.2815C17.6846 24.9941 17.9604 24.2522 17.6729 23.6246C17.3854 22.9969 16.6435 22.7211 16.0159 23.0086C13.9717 23.9449 12.4429 25.8449 12.0389 28.1272C11.9185 28.807 12.3721 29.4556 13.0518 29.5759C13.7316 29.6963 14.3803 29.2428 14.5006 28.563C14.7571 27.1143 15.7358 25.8867 17.0569 25.2815ZM22.6361 17.9285C21.7801 17.9285 21.0861 18.6224 21.0861 19.4785C21.0861 20.3345 21.7801 21.0285 22.6361 21.0285C23.4922 21.0285 24.1861 20.3345 24.1861 19.4785C24.1861 18.6224 23.4922 17.9285 22.6361 17.9285ZM18.5861 19.4785C18.5861 17.2417 20.3994 15.4285 22.6361 15.4285C24.8729 15.4285 26.6861 17.2417 26.6861 19.4785C26.6861 21.7152 24.8729 23.5285 22.6361 23.5285C20.3994 23.5285 18.5861 21.7152 18.5861 19.4785ZM18.2786 16.9996C18.9671 16.9489 19.4841 16.3497 19.4334 15.6612C19.3827 14.9727 18.7834 14.4557 18.095 14.5064C16.0335 14.6582 14.3518 16.3394 14.3518 18.4606C14.3518 19.5918 14.8365 20.6073 15.5987 21.323C16.102 21.7956 16.8931 21.7707 17.3656 21.2674C17.8382 20.7641 17.8133 19.9731 17.31 19.5005C17.0207 19.2289 16.8518 18.8609 16.8518 18.4606C16.8518 17.7227 17.4482 17.0608 18.2786 16.9996Z" fill="var(--spectrum-global-color-gray-800, #292929)"/>
</svg>
