<svg width="96" height="96" viewBox="0 0 96 96" xmlns="http://www.w3.org/2000/svg">
<path fill-rule="evenodd" d="M74.5 20C77.8137 20 80.5 22.6863 80.5 26V32H16.5V26C16.5 22.6863 19.1863 20 22.5 20H74.5ZM16.5 36H80.5V70C80.5 73.3137 77.8137 76 74.5 76H22.5C19.1863 76 16.5 73.3137 16.5 70V36ZM84.5 26C84.5 20.4772 80.0229 16 74.5 16H22.5C16.9771 16 12.5 20.4772 12.5 26V70C12.5 75.5228 16.9771 80 22.5 80H74.5C80.0229 80 84.5 75.5228 84.5 70V26ZM24 28.5C22.6193 28.5 21.5 27.3807 21.5 26C21.5 24.6193 22.6193 23.5 24 23.5C25.3807 23.5 26.5 24.6193 26.5 26C26.5 27.3807 25.3807 28.5 24 28.5ZM35.0052 43.6672C35.7965 42.8966 37.0628 42.9135 37.8333 43.7049L47.5 53.6328L57.1667 43.7049C57.9372 42.9135 59.2034 42.8966 59.9948 43.6672C60.7862 44.4377 60.8031 45.7039 60.0326 46.4953L50.2915 56.4997L60.0333 66.5049C60.8039 67.2963 60.787 68.5625 59.9956 69.333C59.2042 70.1036 57.938 70.0867 57.1674 69.2953L47.5 59.3666L37.8326 69.2953C37.062 70.0867 35.7958 70.1036 35.0044 69.333C34.213 68.5625 34.1961 67.2963 34.9667 66.5049L44.7085 56.4997L34.9674 46.4953C34.1969 45.7039 34.2138 44.4377 35.0052 43.6672Z" fill="var(--spectrum-global-color-gray-800, #292929)"/>
</svg>
