<svg width="160" height="160" viewBox="0 0 160 160" xmlns="http://www.w3.org/2000/svg">
<path fill-rule="evenodd" d="M29.2766 43.0555C23.2681 35.1551 28.9025 23.7913 38.8281 23.7913H121.172C131.098 23.7913 136.732 35.1551 130.724 43.0555C130.681 43.1118 130.636 43.1669 130.591 43.2209L92.6964 87.9162V126.735C92.6964 129.034 91.7076 131.222 89.9819 132.74L80.5892 141.007C75.4215 145.556 67.3037 141.886 67.3037 135.002V87.9162L29.4094 43.2209C29.3637 43.1669 29.3194 43.1118 29.2766 43.0555ZM35.5912 38.1414L74.3547 83.862C74.9674 84.5847 75.3037 85.5014 75.3037 86.4488V135.002L84.6964 126.735V86.4488C84.6964 85.5014 85.0327 84.5847 85.6454 83.862L124.409 38.1414C126.325 35.5114 124.451 31.7913 121.172 31.7913H38.8281C35.5493 31.7913 33.6753 35.5115 35.5912 38.1414Z" fill="var(--spectrum-global-color-gray-800, #292929)"/>
</svg>
