<svg width="160" height="160" viewBox="0 0 160 160" xmlns="http://www.w3.org/2000/svg">
<path fill-rule="evenodd" d="M26.5021 80.3984C26.5021 51.6796 49.7832 28.3984 78.5021 28.3984C98.4195 28.3984 115.729 39.5978 124.464 56.0528L109.01 50.8966C106.915 50.1974 104.649 51.3294 103.95 53.425C103.251 55.5205 104.383 57.7861 106.478 58.4853L130.753 66.5847C132.848 67.2839 135.114 66.1519 135.813 64.0564L143.912 39.7818C144.612 37.6863 143.48 35.4206 141.384 34.7214C139.289 34.0222 137.023 35.1542 136.324 37.2498L131.389 52.0392C121.271 33.2086 101.386 20.3984 78.5021 20.3984C45.365 20.3984 18.5021 47.2614 18.5021 80.3984C18.5021 113.536 45.365 140.398 78.5021 140.398C104.419 140.398 126.488 123.969 134.882 100.97C135.639 98.8946 134.571 96.5983 132.495 95.8409C130.42 95.0835 128.124 96.1518 127.366 98.2271C120.088 118.17 100.951 132.398 78.5021 132.398C49.7832 132.398 26.5021 109.117 26.5021 80.3984Z" fill="var(--spectrum-global-color-gray-800, #292929)"/>
</svg>
