<svg width="160" height="160" viewBox="0 0 160 160" xmlns="http://www.w3.org/2000/svg">
<path fill-rule="evenodd" d="M70.118 24.0511C76.3993 20.3646 84.1881 20.3841 90.4509 24.1019L124.588 44.3676C130.658 47.9709 134.379 54.5068 134.379 61.5655V99.626C134.379 106.872 130.46 113.551 124.134 117.086L89.9986 136.158C83.9664 139.528 76.6216 139.546 70.5731 136.205L35.9508 117.08C29.5777 113.56 25.6211 106.855 25.6211 99.5738V61.6185C25.6211 54.5242 29.3793 47.9607 35.4978 44.3698L70.118 24.0511ZM86.3671 30.9811C82.6094 28.7504 77.9361 28.7387 74.1674 30.9506L39.5471 51.2693C38.6822 51.7769 37.896 52.3835 37.1993 53.0699L80.0116 75.9168L123.049 53.269C122.306 52.4925 121.453 51.8099 120.505 51.2467L86.3671 30.9811ZM33.6211 61.6185C33.6211 61.1644 33.6468 60.7139 33.6971 60.2688L76.2871 82.9971L76.2871 130.028C75.6554 129.807 75.0378 129.532 74.4412 129.202L39.8189 110.078C35.995 107.966 33.6211 103.942 33.6211 99.5738V61.6185ZM84.2871 129.997C84.9064 129.775 85.5118 129.501 86.0965 129.174L120.232 110.102C124.027 107.981 126.379 103.974 126.379 99.626V61.5655C126.379 61.2342 126.365 60.9049 126.338 60.5782L84.2871 82.707L84.2871 129.997Z" fill="var(--spectrum-global-color-gray-800, #292929)"/>
</svg>
