<svg width="96" height="96" viewBox="0 0 96 96" xmlns="http://www.w3.org/2000/svg">
<path fill-rule="evenodd" d="M16.5 47.7402C16.5 30.6194 30.3792 16.7402 47.5 16.7402C64.6208 16.7402 78.5 30.6194 78.5 47.7402C78.5 64.8611 64.6208 78.7402 47.5 78.7402C30.3792 78.7402 16.5 64.8611 16.5 47.7402ZM47.5 12.7402C28.17 12.7402 12.5 28.4103 12.5 47.7402C12.5 67.0702 28.17 82.7402 47.5 82.7402C66.83 82.7402 82.5 67.0702 82.5 47.7402C82.5 28.4103 66.83 12.7402 47.5 12.7402ZM50 34.2402C50 35.8971 48.6569 37.2402 47 37.2402C45.3431 37.2402 44 35.8971 44 34.2402C44 32.5834 45.3431 31.2402 47 31.2402C48.6569 31.2402 50 32.5834 50 34.2402ZM43 40.2402C41.8954 40.2402 41 41.1357 41 42.2402C41 43.3448 41.8954 44.2402 43 44.2402H46V58.2402H43C41.8954 58.2402 41 59.1357 41 60.2402C41 61.3448 41.8954 62.2402 43 62.2402H53C54.1046 62.2402 55 61.3448 55 60.2402C55 59.1357 54.1046 58.2402 53 58.2402H50V42.2402C50 41.1357 49.1046 40.2402 48 40.2402H43Z" fill="var(--spectrum-global-color-gray-800, #292929)"/>
</svg>
