<svg width="160" height="160" viewBox="0 0 160 160" xmlns="http://www.w3.org/2000/svg">
<path fill-rule="evenodd" d="M80 20C82.2091 20 84 21.7909 84 24V31.9381C84 34.1472 82.2091 35.9381 80 35.9381C77.7909 35.9381 76 34.1472 76 31.9381V24C76 21.7909 77.7909 20 80 20ZM79.9995 55.7188C66.588 55.7188 55.7158 66.5909 55.7158 80.0024C55.7158 93.4139 66.588 104.286 79.9995 104.286C93.411 104.286 104.283 93.4139 104.283 80.0024C104.283 66.5909 93.411 55.7188 79.9995 55.7188ZM47.7158 80.0024C47.7158 62.1726 62.1697 47.7188 79.9995 47.7188C97.8293 47.7188 112.283 62.1726 112.283 80.0024C112.283 97.8322 97.8293 112.286 79.9995 112.286C62.1697 112.286 47.7158 97.8322 47.7158 80.0024ZM84.0002 128.062C84.0002 125.853 82.2094 124.062 80.0002 124.062C77.7911 124.062 76.0002 125.853 76.0002 128.062V136C76.0002 138.209 77.7911 140 80.0002 140C82.2094 140 84.0002 138.209 84.0002 136V128.062ZM140 80C140 82.2091 138.209 84 136 84H128.062C125.853 84 124.062 82.2091 124.062 80C124.062 77.7909 125.853 76 128.062 76H136C138.209 76 140 77.7909 140 80ZM31.9381 84C34.1472 84 35.9381 82.2091 35.9381 80C35.9381 77.7909 34.1472 76 31.9381 76H24C21.7909 76 20 77.7909 20 80C20 82.2091 21.7909 84 24 84H31.9381ZM122.426 37.573C123.988 39.1351 123.988 41.6678 122.426 43.2299L116.813 48.8429C115.251 50.405 112.718 50.405 111.156 48.8429C109.594 47.2808 109.594 44.7482 111.156 43.1861L116.769 37.573C118.331 36.0109 120.864 36.0109 122.426 37.573ZM48.8426 116.813C50.4047 115.251 50.4047 112.718 48.8426 111.156C47.2805 109.594 44.7479 109.594 43.1858 111.156L37.5727 116.769C36.0106 118.332 36.0106 120.864 37.5727 122.426C39.1348 123.988 41.6674 123.988 43.2295 122.426L48.8426 116.813ZM37.5723 37.5711C36.0102 39.1332 36.0102 41.6659 37.5723 43.228L43.1854 48.8411C44.7475 50.4031 47.2802 50.4031 48.8423 48.8411C50.4044 47.279 50.4044 44.7463 48.8423 43.1842L43.2292 37.5711C41.6671 36.009 39.1344 36.009 37.5723 37.5711ZM111.156 116.811C109.594 115.249 109.594 112.717 111.156 111.154C112.718 109.592 115.251 109.592 116.813 111.154L122.426 116.768C123.988 118.33 123.988 120.862 122.426 122.424C120.864 123.987 118.331 123.987 116.769 122.424L111.156 116.811Z" fill="var(--spectrum-global-color-gray-800, #292929)"/>
</svg>
