<svg width="160" height="160" viewBox="0 0 160 160" xmlns="http://www.w3.org/2000/svg">
<path fill-rule="evenodd" d="M28.3346 80.7415C30.5438 80.7415 32.3346 82.5324 32.3346 84.7415L32.3346 114.153C32.3346 118.743 36.0168 122.408 40.4915 122.408L119.511 122.408C123.986 122.408 127.668 118.743 127.668 114.153L127.668 84.7415C127.668 82.5324 129.459 80.7415 131.668 80.7415C133.877 80.7415 135.668 82.5324 135.668 84.7415L135.668 114.153C135.668 123.1 128.465 130.408 119.511 130.408L40.4915 130.408C31.5381 130.408 24.3346 123.1 24.3346 114.153L24.3346 84.7415C24.3346 82.5324 26.1255 80.7415 28.3346 80.7415ZM80.0016 111.57C77.7925 111.57 76.0016 109.779 76.0016 107.57L76.0016 43.248L59.33 59.9196C57.7679 61.4817 55.2353 61.4817 53.6732 59.9196C52.1111 58.3575 52.1111 55.8248 53.6732 54.2627L77.1732 30.7627C78.7353 29.2006 81.268 29.2006 82.8301 30.7627L106.33 54.2627C107.892 55.8248 107.892 58.3575 106.33 59.9196C104.768 61.4817 102.235 61.4817 100.673 59.9196L84.0016 43.248L84.0016 107.57C84.0016 109.779 82.2107 111.57 80.0016 111.57Z" fill="var(--spectrum-global-color-gray-800, #292929)"/>
</svg>
