<svg width="96" height="96" viewBox="0 0 96 96" xmlns="http://www.w3.org/2000/svg">
<path fill-rule="evenodd" d="M38 20C34.6846 20 32 22.6846 32 26V28H64V26C64 22.6846 61.3154 20 58 20H38ZM28 26V28H22C16.4772 28 12 32.4772 12 38V70C12 75.5228 16.4772 80 22 80H74C79.5229 80 84 75.5228 84 70V38C84 32.4772 79.5229 28 74 28H68V26C68 20.4754 63.5246 16 58 16H38C32.4754 16 28 20.4754 28 26ZM22 32C18.6863 32 16 34.6863 16 38V52H28V50C28 48.8954 28.8954 48 30 48C31.1046 48 32 48.8954 32 50V52H64V50C64 48.8954 64.8954 48 66 48C67.1046 48 68 48.8954 68 50V52H80V38C80 34.6863 77.3137 32 74 32H22ZM64 56V58C64 59.1046 64.8954 60 66 60C67.1046 60 68 59.1046 68 58V56H80V70C80 73.3137 77.3137 76 74 76H22C18.6863 76 16 73.3137 16 70V56H28V58C28 59.1046 28.8954 60 30 60C31.1046 60 32 59.1046 32 58V56H64Z" fill="var(--spectrum-global-color-gray-800, #292929)"/>
</svg>
