<svg width="48" height="48" viewBox="0 0 48 48" xmlns="http://www.w3.org/2000/svg">
<path fill-rule="evenodd" d="M36.8967 7.86023C37.5869 7.86979 38.1388 8.43714 38.1292 9.12743L38.1165 10.0454L39.0398 10.0603C39.7301 10.0714 40.2807 10.64 40.2695 11.3303C40.2584 12.0205 39.6898 12.5711 38.9995 12.5599L38.0819 12.5451L38.0692 13.4574C38.0597 14.1477 37.4923 14.6996 36.802 14.69C36.1117 14.6804 35.5599 14.1131 35.5695 13.4228L35.5822 12.5048L34.6595 12.4899C33.9693 12.4788 33.4187 11.9102 33.4298 11.2199C33.441 10.5297 34.0096 9.97914 34.6998 9.99027L35.6168 10.0051L35.6295 9.09279C35.639 8.4025 36.2064 7.85066 36.8967 7.86023ZM20.4902 9.86011C20.4902 9.16975 19.9306 8.61011 19.2402 8.61011C18.5499 8.61011 17.9902 9.16975 17.9902 9.86011V12.7901C17.9902 13.4805 18.5499 14.0401 19.2402 14.0401C19.9306 14.0401 20.4902 13.4805 20.4902 12.7901V9.86011ZM14.8514 10.8859C14.4459 10.3272 13.6643 10.203 13.1056 10.6084C12.5468 11.0139 12.4226 11.7956 12.8281 12.3543L14.5481 14.7243C14.9536 15.283 15.7352 15.4073 16.294 15.0018C16.8527 14.5963 16.9769 13.8146 16.5714 13.2559L14.8514 10.8859ZM25.6418 12.3543C26.0473 11.7956 25.9231 11.0139 25.3644 10.6085C24.8056 10.203 24.024 10.3272 23.6185 10.8859L21.8985 13.2559C21.493 13.8146 21.6172 14.5963 22.176 15.0018C22.7347 15.4073 23.5163 15.283 23.9218 14.7243L25.6418 12.3543ZM10.8948 15.0209C10.238 14.8082 9.53317 15.1683 9.32053 15.8251C9.1079 16.4819 9.46797 17.1867 10.1248 17.3993L12.9048 18.2993C13.5616 18.512 14.2664 18.1519 14.479 17.4951C14.6916 16.8383 14.3316 16.1335 13.6748 15.9209L10.8948 15.0209ZM28.3535 17.3997C29.0105 17.1878 29.3713 16.4834 29.1594 15.8264C28.9475 15.1693 28.243 14.8085 27.586 15.0205L24.796 15.9205C24.139 16.1324 23.7782 16.8368 23.9901 17.4939C24.2021 18.1509 24.9065 18.5117 25.5635 18.2997L28.3535 17.3997ZM13.6786 22.1581C14.3347 21.9433 14.6925 21.2373 14.4777 20.5812C14.263 19.9251 13.557 19.5674 12.9009 19.7821L10.1209 20.6921C9.4648 20.9069 9.10703 21.6129 9.32179 22.269C9.53656 22.9251 10.2425 23.2828 10.8986 23.0681L13.6786 22.1581ZM25.5635 19.7905C24.9065 19.5785 24.2021 19.9393 23.9901 20.5964C23.7782 21.2534 24.139 21.9578 24.796 22.1697L27.586 23.0697C28.243 23.2817 28.9475 22.9209 29.1594 22.2639C29.3713 21.6068 29.0105 20.9024 28.3535 20.6905L25.5635 19.7905ZM23.9218 23.3659C23.5163 22.8072 22.7347 22.683 22.176 23.0884C21.6172 23.4939 21.493 24.2756 21.8985 24.8343L23.6185 27.2043C24.024 27.763 24.8056 27.8872 25.3644 27.4818C25.9231 27.0763 26.0473 26.2946 25.6418 25.7359L23.9218 23.3659ZM16.5714 24.8343C16.9769 24.2756 16.8527 23.4939 16.294 23.0885C15.7352 22.683 14.9536 22.8072 14.5481 23.3659L12.8281 25.7359C12.4226 26.2946 12.5468 27.0763 13.1056 27.4818C13.6643 27.8873 14.4459 27.763 14.8514 27.2043L16.5714 24.8343ZM20.4902 25.29C20.4902 24.5997 19.9306 24.04 19.2402 24.04C18.5499 24.04 17.9902 24.5997 17.9902 25.29V28.22C17.9902 28.9104 18.5499 29.47 19.2402 29.47C19.9306 29.47 20.4902 28.9104 20.4902 28.22V25.29ZM33.7796 26.6289C33.7844 25.9385 33.2287 25.375 32.5384 25.3701C31.848 25.3653 31.2845 25.921 31.2797 26.6114L31.2697 28.0414C31.2649 28.7317 31.8206 29.2953 32.5109 29.3001C33.2012 29.3049 33.7648 28.7492 33.7696 28.0589L33.7796 26.6289ZM37.5408 30.2349C38.1399 29.8918 38.3474 29.1281 38.0044 28.529C37.6614 27.9299 36.8976 27.7223 36.2985 28.0654L35.0585 28.7754C34.4594 29.1184 34.2519 29.8821 34.5949 30.4812C34.9379 31.0803 35.7017 31.2879 36.3008 30.9449L37.5408 30.2349ZM28.7711 28.0713C28.1753 27.7226 27.4096 27.9229 27.0609 28.5186C26.7121 29.1144 26.9124 29.8801 27.5082 30.2289L28.7382 30.9489C29.334 31.2976 30.0997 31.0974 30.4484 30.5016C30.7972 29.9058 30.5969 29.1401 30.0011 28.7913L28.7711 28.0713ZM36.3111 32.4213C35.7153 32.0726 34.9496 32.2729 34.6009 32.8686C34.2521 33.4644 34.4524 34.2301 35.0482 34.5789L36.2782 35.2989C36.874 35.6476 37.6397 35.4474 37.9884 34.8516C38.3372 34.2558 38.1369 33.4901 37.5411 33.1413L36.3111 32.4213ZM30.0008 34.5949C30.5999 34.2518 30.8074 33.4881 30.4644 32.889C30.1214 32.2899 29.3576 32.0823 28.7585 32.4254L27.5185 33.1354C26.9194 33.4784 26.7119 34.2421 27.0549 34.8412C27.3979 35.4403 28.1617 35.6479 28.7608 35.3049L30.0008 34.5949ZM33.7796 35.3289C33.7844 34.6385 33.2287 34.075 32.5384 34.0701C31.848 34.0653 31.2845 34.621 31.2797 35.3114L31.2697 36.7414C31.2649 37.4317 31.8206 37.9953 32.5109 38.0001C33.2012 38.0049 33.7648 37.4492 33.7696 36.7589L33.7796 35.3289ZM12.43 34.8173C12.4395 34.127 11.8877 33.5597 11.1974 33.5502C10.5071 33.5406 9.93978 34.0925 9.93024 34.7828L9.91752 35.7029L8.99775 35.6902C8.30746 35.6806 7.74013 36.2325 7.73059 36.9228C7.72104 37.6131 8.2729 38.1804 8.96319 38.1899L9.88296 38.2026L9.87024 39.1228C9.86069 39.8131 10.4125 40.3804 11.1028 40.3899C11.7931 40.3995 12.3605 39.8476 12.37 39.1573L12.3827 38.2372L13.3032 38.2499C13.9935 38.2595 14.5608 37.7076 14.5703 37.0173C14.5799 36.327 14.028 35.7597 13.3377 35.7502L12.4173 35.7374L12.43 34.8173Z" fill="var(--spectrum-global-color-gray-800, #292929)"/>
</svg>
