<svg width="96" height="96" viewBox="0 0 96 96" xmlns="http://www.w3.org/2000/svg">
<path fill-rule="evenodd" d="M39.5804 21.7854L56.2815 21.7854C57.386 21.7854 58.2815 22.6808 58.2815 23.7854C58.2815 24.89 57.386 25.7854 56.2815 25.7854H51.6033C50.5768 34.0755 46.0941 40.6376 40.7069 45.3733C39.3808 46.539 37.9929 47.6007 36.5772 48.5568C39.8335 53.4341 43.6027 57.6745 46.5642 59.5875C47.492 60.1868 47.7584 61.4248 47.159 62.3526C46.5597 63.2805 45.3217 63.5468 44.3939 62.9475C40.7213 60.5752 36.5606 55.7511 33.1949 50.6945C33.1827 50.6762 33.1705 50.6579 33.1584 50.6396C29.6132 52.5787 26.0656 53.8671 23.0289 54.4784C21.946 54.6964 20.8915 53.9953 20.6735 52.9124C20.4556 51.8296 21.1567 50.7751 22.2395 50.5571C24.819 50.0379 27.9098 48.9266 31.0388 47.239C28.6662 43.1684 26.82 38.9867 26.2322 35.6511C26.0405 34.5633 26.7669 33.526 27.8547 33.3343C28.9425 33.1426 29.9798 33.869 30.1715 34.9568C30.6459 37.649 32.2403 41.3457 34.4577 45.1612C35.6919 44.321 36.9047 43.3899 38.066 42.3691C42.8057 38.2026 46.5756 32.6461 47.5674 25.7854L18.3066 25.7854C17.2021 25.7854 16.3066 24.89 16.3066 23.7854C16.3066 22.6808 17.2021 21.7854 18.3066 21.7854L35.5804 21.7854V18.25C35.5804 17.1454 36.4759 16.25 37.5804 16.25C38.685 16.25 39.5804 17.1454 39.5804 18.25V21.7854ZM50.598 78.5298L55.4281 67.134H70.6953C70.8032 67.134 70.9092 67.1255 71.0126 67.109L75.8532 78.5298C76.2843 79.5467 77.4581 80.0217 78.4751 79.5907C79.4921 79.1596 79.9671 77.9858 79.5361 76.9688L65.0741 42.848C65.044 42.7752 65.0096 42.7041 64.9711 42.6352C64.8967 42.5019 64.8087 42.3798 64.7095 42.2701C64.5202 42.0605 64.2833 41.8879 64.0061 41.7704C63.7511 41.6623 63.4862 41.6112 63.2256 41.6113C62.965 41.6112 62.7001 41.6623 62.4451 41.7704C62.1679 41.8879 61.931 42.0605 61.7417 42.2701C61.6426 42.3798 61.5545 42.5019 61.4801 42.6352C61.4416 42.7041 61.4072 42.7752 61.3772 42.848L46.9152 76.9688C46.4841 77.9858 46.9591 79.1596 47.9761 79.5907C48.9931 80.0217 50.167 79.5467 50.598 78.5298ZM63.2256 48.7369L57.1235 63.134H69.3278L63.2256 48.7369Z" fill="var(--spectrum-global-color-gray-800, #292929)"/>
</svg>
