<svg width="160" height="160" viewBox="0 0 160 160" xmlns="http://www.w3.org/2000/svg">
<path fill-rule="evenodd" d="M120.338 27.3744C124.05 26.6345 127.511 29.4739 127.511 33.2586V38.533L68.9022 50.2169V42.5506C68.9022 39.6892 70.9229 37.2259 73.7292 36.6664L120.338 27.3744ZM68.9022 58.3743V115.017C68.9022 115.076 68.9009 115.136 68.8984 115.194C69.0001 118.539 67.89 121.855 66.0792 124.736C63.3731 129.041 58.9153 132.761 53.4457 135.11C47.9761 137.46 42.2095 138.133 37.2238 137.132C32.258 136.134 27.6624 133.348 25.567 128.471C23.4717 123.593 24.6147 118.342 27.31 114.054C30.016 109.748 34.4739 106.029 39.9435 103.679C45.413 101.329 51.1797 100.657 56.1654 101.658C57.8108 101.988 59.4156 102.515 60.9022 103.249V42.5506C60.9022 35.8739 65.6171 30.1262 72.1651 28.8208L118.774 19.5288C127.435 17.8022 135.511 24.4275 135.511 33.2586V102.21C135.515 102.409 135.515 102.608 135.511 102.807V103.229C135.511 103.494 135.485 103.754 135.436 104.005C135.157 106.686 134.152 109.297 132.689 111.624C129.983 115.93 125.525 119.649 120.055 121.999C114.586 124.349 108.819 125.021 103.833 124.02C98.8676 123.023 94.272 120.237 92.1767 115.359C90.0813 110.482 91.2243 105.23 93.9196 100.942C96.6257 96.6368 101.083 92.9173 106.553 90.5677C112.023 88.2181 117.789 87.5453 122.775 88.5465C124.42 88.8769 126.025 89.4036 127.511 90.1377V46.6905L68.9022 58.3743ZM34.0832 118.311C32.334 121.094 32.1563 123.541 32.9175 125.313C33.6788 127.085 35.5762 128.641 38.7988 129.288C42.0017 129.931 46.119 129.551 50.2881 127.76C54.4572 125.969 57.5676 123.244 59.306 120.479C61.0552 117.696 61.2329 115.248 60.4717 113.476C59.7104 111.704 57.813 110.148 54.5903 109.501C51.3875 108.858 47.2701 109.239 43.1011 111.03C38.932 112.82 35.8216 115.545 34.0832 118.311ZM99.5271 112.202C98.7659 110.43 98.9436 107.982 100.693 105.199C102.431 102.434 105.542 99.7091 109.711 97.9182C113.88 96.1272 117.997 95.7468 121.2 96.3899C124.423 97.037 126.32 98.5929 127.081 100.365C127.843 102.137 127.665 104.584 125.916 107.367C124.177 110.133 121.067 112.858 116.898 114.649C112.729 116.439 108.611 116.82 105.408 116.177C102.186 115.53 100.288 113.974 99.5271 112.202Z" fill="var(--spectrum-global-color-gray-800, #292929)"/>
</svg>
