<svg width="160" height="160" viewBox="0 0 160 160" xmlns="http://www.w3.org/2000/svg">
<path fill-rule="evenodd" d="M34.4008 24C24.2618 24 16 32.1749 16 42.3114V93.0994C16 103.236 24.2618 111.411 34.4008 111.411H43.3047C43.3054 117.631 43.2619 125.155 43.218 131.158C43.1624 138.754 52.0917 142.749 57.7733 137.854L88.4662 111.411H125.599C135.738 111.411 144 103.236 144 93.0994V42.3114C144 32.1749 135.738 24 125.599 24H34.4008ZM24 42.3114C24 36.64 28.6331 32 34.4008 32H125.599C131.367 32 136 36.64 136 42.3114V93.0994C136 98.7708 131.367 103.411 125.599 103.411H86.9807H85.4953L84.3699 104.38L52.5515 131.794C52.385 131.937 52.2451 131.981 52.13 131.995C51.996 132.011 51.8342 131.99 51.6731 131.916C51.512 131.842 51.3963 131.737 51.3276 131.634C51.2699 131.548 51.2162 131.426 51.2178 131.217C51.2717 123.857 51.3251 114.172 51.2969 107.394L51.2803 103.411H47.2969H34.4008C28.6331 103.411 24 98.7708 24 93.0994V42.3114ZM50.0425 53.7188C47.8333 53.7188 46.0425 55.5096 46.0425 57.7188C46.0425 59.9279 47.8333 61.7188 50.0425 61.7188H109.957C112.166 61.7188 113.957 59.9279 113.957 57.7188C113.957 55.5096 112.166 53.7188 109.957 53.7188H50.0425ZM50.0425 73.69C47.8333 73.69 46.0425 75.4809 46.0425 77.69C46.0425 79.8992 47.8333 81.69 50.0425 81.69H109.957C112.166 81.69 113.957 79.8992 113.957 77.69C113.957 75.4809 112.166 73.69 109.957 73.69H50.0425Z" fill="var(--spectrum-global-color-gray-800, #292929)"/>
</svg>
