<svg width="96" height="96" viewBox="0 0 96 96" xmlns="http://www.w3.org/2000/svg">
<path fill-rule="evenodd" d="M20.2469 23.7C20.2469 21.0442 22.2191 18.5 25.1085 18.5H39.4162C42.3055 18.5 44.2777 21.0442 44.2777 23.7V29.7H51.7239V23.7C51.7239 21.0442 53.6961 18.5 56.5854 18.5H70.8931C73.7824 18.5 75.7546 21.0442 75.7546 23.7V29.7H76.6162C82.6663 29.7 87.2008 35.1096 87.2008 41.3V68.5C87.2008 74.6904 82.6663 80.1 76.6162 80.1H19.3854C13.3353 80.1 8.80078 74.6904 8.80078 68.5V41.3C8.80078 35.1096 13.3353 29.7 19.3854 29.7H20.2469V23.7ZM25.1085 22.5C24.837 22.5 24.2469 22.8211 24.2469 23.7V31.7C24.2469 32.8046 23.3515 33.7 22.2469 33.7H19.3854C15.9532 33.7 12.8008 36.8865 12.8008 41.3V68.5C12.8008 72.9135 15.9532 76.1 19.3854 76.1H76.6162C80.0484 76.1 83.2008 72.9135 83.2008 68.5V41.3C83.2008 36.8865 80.0484 33.7 76.6162 33.7H73.7546C72.6501 33.7 71.7546 32.8046 71.7546 31.7V23.7C71.7546 22.8211 71.1645 22.5 70.8931 22.5H56.5854C56.314 22.5 55.7239 22.8211 55.7239 23.7V31.7C55.7239 32.8046 54.8284 33.7 53.7239 33.7H42.2777C41.1731 33.7 40.2777 32.8046 40.2777 31.7V23.7C40.2777 22.8211 39.6876 22.5 39.4162 22.5H25.1085Z" fill="var(--spectrum-global-color-gray-800, #292929)"/>
</svg>
