<svg width="160" height="160" viewBox="0 0 160 160" xmlns="http://www.w3.org/2000/svg">
<path fill-rule="evenodd" d="M36.6494 16C28.9149 16 22.666 22.2829 22.666 30V109.983C22.666 117.7 28.9149 123.983 36.6494 123.983H76.666C78.8752 123.983 80.666 122.192 80.666 119.983C80.666 117.774 78.8752 115.983 76.666 115.983H36.6494C33.3505 115.983 30.666 113.3 30.666 109.983V30C30.666 26.6838 33.3505 24 36.6494 24H69.066C70.6164 24 72.0992 24.595 73.19 25.6465L73.1987 25.655L105.815 56.905L105.816 56.9056C106.998 58.0375 107.666 59.5953 107.666 61.2333V85.8167C107.666 88.0258 109.457 89.8167 111.666 89.8167C113.875 89.8167 115.666 88.0258 115.666 85.8167V61.2333C115.666 57.4047 114.101 53.7625 111.349 51.1277L78.7421 19.8868L78.7372 19.8821C76.1285 17.3699 72.6467 16 69.066 16H36.6494ZM111.234 144.15C124.811 144.15 135.818 133.144 135.818 119.567C135.818 105.99 124.811 94.9836 111.234 94.9836C97.6574 94.9836 86.651 105.99 86.651 119.567C86.651 133.144 97.6574 144.15 111.234 144.15ZM115.648 108.316C115.648 106.107 113.857 104.316 111.648 104.316C109.439 104.316 107.648 106.107 107.648 108.316V115.983H99.9811C97.772 115.983 95.9811 117.774 95.9811 119.983C95.9811 122.192 97.772 123.983 99.9811 123.983H107.648V131.65C107.648 133.859 109.439 135.65 111.648 135.65C113.857 135.65 115.648 133.859 115.648 131.65V123.983H123.314C125.524 123.983 127.314 122.192 127.314 119.983C127.314 117.774 125.524 115.983 123.314 115.983H115.648V108.316ZM76.2326 87.5951C69.4245 87.5951 63.4828 92.8098 62.2868 99.8231C61.9155 102.001 59.8491 103.465 57.6714 103.094C55.4937 102.722 54.0293 100.656 54.4007 98.4783C56.2039 87.9041 65.2448 79.5951 76.2326 79.5951C79.2776 79.5951 82.1889 80.2404 84.837 81.3999C86.8607 82.2859 87.7829 84.6447 86.8968 86.6684C86.0108 88.692 83.652 89.6142 81.6283 88.7282C79.959 87.9973 78.1378 87.5951 76.2326 87.5951ZM55.7864 84.1207C57.7949 83.2008 58.6773 80.8269 57.7574 78.8184C56.8374 76.8099 54.4635 75.9274 52.455 76.8474C45.6893 79.9462 40.63 86.2346 39.293 93.7868C38.9079 95.9621 40.3592 98.0377 42.5345 98.4228C44.7098 98.8079 46.7854 97.3567 47.1705 95.1813C48.0353 90.2969 51.3343 86.1599 55.7864 84.1207ZM75.4538 59.5951C72.5083 59.5951 70.1205 61.9829 70.1205 64.9285C70.1205 67.874 72.5083 70.2618 75.4538 70.2618C78.3993 70.2618 80.7871 67.874 80.7871 64.9285C80.7871 61.9829 78.3993 59.5951 75.4538 59.5951ZM62.1205 64.9285C62.1205 57.5647 68.09 51.5951 75.4538 51.5951C82.8176 51.5951 88.7871 57.5647 88.7871 64.9285C88.7871 72.2923 82.8176 78.2618 75.4538 78.2618C68.09 78.2618 62.1205 72.2923 62.1205 64.9285ZM55.0091 61.5358C55.0091 58.8604 57.2805 56.4841 60.3425 56.4841C62.5516 56.4841 64.3425 54.6932 64.3425 52.4841C64.3425 50.2749 62.5516 48.4841 60.3425 48.4841C53.0951 48.4841 47.0091 54.2129 47.0091 61.5358C47.0091 65.2577 48.6038 68.5996 51.113 70.9556C52.7235 72.4678 55.2549 72.3881 56.7671 70.7776C58.2793 69.1672 58.1996 66.6357 56.5891 65.1236C55.5933 64.1886 55.0091 62.9189 55.0091 61.5358Z" fill="var(--spectrum-global-color-gray-800, #292929)"/>
</svg>
