<svg width="160" height="160" viewBox="0 0 160 160" xmlns="http://www.w3.org/2000/svg">
  <defs>
<clipPath id="clip0_5570_89492">
<rect width="160" height="160" fill="white"/>
</clipPath>
</defs>
<g clip-path="url(#clip0_5570_89492)">
<path fill-rule="evenodd" d="M127.925 34.6109C127.67 33.1741 126.578 32.0826 125.141 31.8275C116.522 30.2971 98.731 32.7368 80.9469 50.521C67.2002 64.2677 61.2682 71.9796 58.7282 76.5833C57.4972 78.8145 57.1422 80.1784 57.0237 81.0472C56.9303 81.7322 56.9482 82.0898 56.9763 82.6509C56.9942 83.0084 57.0162 83.4485 57.0162 84.1085C57.0162 86.5716 58.3299 89.4222 64.3299 95.4222C70.33 101.422 73.1805 102.736 75.6436 102.736C76.3035 102.736 76.7436 102.758 77.101 102.776H77.1011L77.1012 102.776C77.6623 102.804 78.02 102.822 78.705 102.728C79.5738 102.61 80.9377 102.255 83.1689 101.024C87.7726 98.4839 95.4844 92.552 109.231 78.8052C127.015 61.0211 129.455 43.2305 127.925 34.6109ZM126.54 23.9507C131.281 24.7926 134.96 28.4711 135.801 33.2124C137.727 44.056 134.68 62.8427 117.928 81.2753C118.806 86.1558 118.103 91.8851 116.647 97.4531C114.952 103.938 112.089 110.751 108.683 116.787C105.298 122.785 101.235 128.265 97.0145 131.903C93.0574 135.314 87.5226 138.253 82.1236 135.553C77.3873 133.185 76.0786 128.688 75.6418 124.183C75.4219 121.914 75.3905 119.317 75.3853 116.518C75.3842 115.932 75.3843 115.334 75.3844 114.724V114.723L75.3844 114.722V114.721L75.3844 114.72C75.3846 113.452 75.3848 112.127 75.3744 110.734C69.474 110.627 64.6038 107.01 58.6731 101.079C52.742 95.1481 49.1251 90.2778 49.0186 84.377C47.6276 84.3666 46.3046 84.3668 45.0381 84.3669L45.036 84.3669L45.0335 84.367H45.0296L45.0278 84.367L45.0276 84.367C44.4168 84.367 43.8192 84.3671 43.2333 84.366C40.4347 84.3608 37.837 84.3295 35.5679 84.1095C31.0633 83.6728 26.5659 82.364 24.1979 77.6277C21.4985 72.2287 24.4368 66.694 27.848 62.7368C31.4861 58.5164 36.9666 54.4534 42.9644 51.0686C49.0002 47.6623 55.8136 44.7997 62.2982 43.1042C67.8668 41.6483 73.5967 40.9455 78.4775 41.8238C96.9099 25.0717 115.696 22.0254 126.54 23.9507ZM87.0335 108.029C92.0012 105.288 99.0764 99.8387 110.116 89.1597C109.896 91.0798 109.495 93.1829 108.907 95.4294C107.407 101.168 104.826 107.344 101.716 112.855C98.5842 118.404 95.0579 123.028 91.7911 125.844C88.261 128.887 86.4106 128.753 85.7012 128.398C84.7806 127.938 83.9649 127.129 83.6045 123.411C83.4259 121.57 83.3906 119.328 83.3853 116.503C83.3843 115.954 83.3844 115.386 83.3844 114.798L83.3844 114.794V114.772L83.3845 114.767V114.767C83.3847 113.217 83.385 111.536 83.3656 109.737C84.484 109.324 85.6957 108.767 87.0335 108.029ZM70.5935 49.6356C68.6728 49.8548 66.5691 50.2565 64.3218 50.844C58.5829 52.3445 52.4073 54.9255 46.8963 58.0356C41.3474 61.1672 36.7235 64.6934 33.9074 67.9602C30.8644 71.4903 30.9987 73.3408 31.3534 74.0501C31.8137 74.9708 32.6227 75.7865 36.3399 76.1468C38.1817 76.3254 40.4236 76.3608 43.2482 76.3661C43.8067 76.3671 44.3857 76.367 44.9843 76.3669L44.9847 76.3669C46.5343 76.3666 48.2158 76.3663 50.0153 76.3858C50.4286 75.2676 50.9857 74.0562 51.7236 72.7187C54.4645 67.7508 59.9138 60.6753 70.5935 49.6356ZM108.524 62.5415C105.4 65.6657 100.335 65.6657 97.2105 62.5415C94.0864 59.4174 94.0864 54.352 97.2105 51.2278C100.335 48.1036 105.4 48.1036 108.524 51.2278C111.648 54.352 111.648 59.4174 108.524 62.5415ZM49.8345 115.575C51.3966 114.012 51.3966 111.48 49.8345 109.918C48.2724 108.356 45.7397 108.356 44.1776 109.918L24.7322 129.363C23.1701 130.925 23.1701 133.458 24.7322 135.02C26.2943 136.582 28.827 136.582 30.3891 135.02L49.8345 115.575ZM59.7339 119.817C61.296 121.379 61.296 123.912 59.7339 125.474L48.4202 136.788C46.8581 138.35 44.3255 138.35 42.7634 136.788C41.2013 135.226 41.2013 132.693 42.7634 131.131L54.0771 119.817C55.6392 118.255 58.1718 118.255 59.7339 119.817ZM39.9341 105.675C41.4962 104.113 41.4962 101.58 39.9341 100.018C38.372 98.4561 35.8394 98.4561 34.2773 100.018L22.9635 111.332C21.4015 112.894 21.4014 115.427 22.9635 116.989C24.5256 118.551 27.0583 118.551 28.6204 116.989L39.9341 105.675Z" fill="var(--spectrum-global-color-gray-800, #292929)"/>
</g>

</svg>
