<svg width="48" height="48" viewBox="0 0 48 48" xmlns="http://www.w3.org/2000/svg">
<path fill-rule="evenodd" d="M24.0003 5.98994C17.8445 5.98994 12.8458 10.9619 12.8458 17.1055L12.8459 17.1267L12.8458 17.1458V20.2555C12.7245 23.9449 11.1534 27.3174 9.56848 29.799C7.91101 32.3942 9.76863 35.7899 12.8537 35.7899H19.1503V36.6399C19.1503 39.3185 21.3217 41.4899 24.0003 41.4899C26.6789 41.4899 28.8503 39.3185 28.8503 36.6399V35.7899H35.1468C38.2319 35.7899 40.0895 32.3942 38.4321 29.799C36.8471 27.3174 35.2761 23.9449 35.1548 20.2555V17.1458L35.1546 17.1267L35.1548 17.1055C35.1548 10.9619 30.1561 5.98994 24.0003 5.98994ZM26.3503 35.7899H21.6503V36.6399C21.6503 37.9378 22.7024 38.9899 24.0003 38.9899C25.2981 38.9899 26.3503 37.9378 26.3503 36.6399V35.7899ZM15.3458 20.2756V17.1965C15.3466 17.178 15.3469 17.1595 15.3468 17.1409C15.3468 17.1237 15.3464 17.1091 15.3461 17.099L15.3458 17.0905C15.354 12.3438 19.2209 8.48994 24.0003 8.48994C28.7796 8.48994 32.6466 12.3438 32.6547 17.0905L32.6544 17.099C32.6542 17.109 32.6538 17.1236 32.6537 17.1409C32.6537 17.1595 32.654 17.178 32.6548 17.1965V20.2756C32.6548 20.2887 32.655 20.3019 32.6554 20.315C32.7917 24.643 34.616 28.4686 36.3251 31.1447C36.9197 32.0757 36.2574 33.2899 35.1468 33.2899H12.8537C11.7432 33.2899 11.0808 32.0757 11.6754 31.1447C13.3845 28.4686 15.2088 24.643 15.3452 20.315C15.3456 20.3019 15.3458 20.2887 15.3458 20.2756Z" fill="var(--spectrum-global-color-gray-800, #292929)"/>
</svg>
