<svg width="96" height="96" viewBox="0 0 96 96" xmlns="http://www.w3.org/2000/svg">
<path fill-rule="evenodd" d="M76.1992 18C81.7221 18 86.1992 22.4772 86.1992 28V51.125C86.1992 52.2296 85.3038 53.125 84.1992 53.125C83.0946 53.125 82.1992 52.2296 82.1992 51.125V28C82.1992 24.6863 79.5129 22 76.1992 22H18.9992C15.6855 22 12.9992 24.6863 12.9992 28V67.2C12.9992 67.8784 13.1118 68.5305 13.3193 69.1387L29.3622 44.3537L29.3627 44.3529C31.8242 40.5471 37.3995 40.5471 39.8611 44.3528L39.8617 44.3537L52.5637 63.974L59.8865 52.9024L59.8949 52.8898C62.3734 49.2033 67.8048 49.1972 70.2791 52.893C70.8936 53.8109 70.6477 55.0531 69.7298 55.6676C68.812 56.2821 67.5698 56.0362 66.9553 55.1183C66.0697 53.7955 64.1164 53.7877 63.218 55.1162L51.2574 73.2H60.2178C61.3223 73.2 62.2178 74.0954 62.2178 75.2C62.2178 76.3046 61.3223 77.2 60.2178 77.2H18.9992C13.4764 77.2 8.99921 72.7228 8.99921 67.2V28C8.99921 22.4771 13.4764 18 18.9992 18H76.1992ZM32.7206 46.5264L15.9815 72.387C16.868 72.9039 17.899 73.2 18.9992 73.2H46.4616L50.1556 67.6149L36.5033 46.5266L36.5027 46.5256C35.6172 45.1562 33.6066 45.1562 32.7212 46.5256L32.7206 46.5264ZM65.499 33C65.499 35.7614 67.7376 38 70.499 38C73.2604 38 75.499 35.7614 75.499 33C75.499 30.2386 73.2604 28 70.499 28C67.7376 28 65.499 30.2386 65.499 33Z" fill="var(--spectrum-global-color-gray-800, #292929)"/>
<path d="M79.6875 55.875C71.5409 55.875 64.9375 62.4784 64.9375 70.625C64.9375 78.7716 71.5409 85.375 79.6875 85.375C87.8341 85.375 94.4375 78.7716 94.4375 70.625C94.4375 62.4784 87.8341 55.875 79.6875 55.875ZM85.9803 74.082C86.7619 74.8636 86.7619 76.1362 85.9803 76.9178C85.5895 77.3086 85.0785 77.509 84.5674 77.509C84.0564 77.509 83.5453 77.3086 83.1546 76.9178L79.6975 73.4608L76.2405 76.9178C75.8497 77.3086 75.3387 77.509 74.8276 77.509C74.3166 77.509 73.8055 77.3086 73.4147 76.9178C72.6332 76.1362 72.6332 74.8636 73.4147 74.082L76.8718 70.625L73.4147 67.168C72.6332 66.3864 72.6332 65.1138 73.4147 64.3322C74.1963 63.5506 75.4689 63.5506 76.2505 64.3322L79.7075 67.7892L83.1646 64.3322C83.9462 63.5506 85.2188 63.5506 86.0003 64.3322C86.7819 65.1138 86.7819 66.3864 86.0003 67.168L82.5433 70.625L86.0003 74.082H85.9803Z" fill="var(--spectrum-global-color-gray-800, #292929)"/>
</svg>
