<svg width="160" height="160" viewBox="0 0 160 160" xmlns="http://www.w3.org/2000/svg">
<path fill-rule="evenodd" d="M65.8527 33.8288L94.4228 33.8288C96.6319 33.8288 98.4228 35.6197 98.4228 37.8288C98.4228 40.038 96.6319 41.8288 94.4228 41.8288H86.7298C84.8173 56.2083 76.9926 67.5925 67.639 75.8148C65.4463 77.7423 63.1568 79.5081 60.8207 81.1094C66.412 89.4032 72.7959 96.5289 77.7794 99.7479C79.6351 100.947 80.1677 103.423 78.9691 105.278C77.7704 107.134 75.2944 107.667 73.4387 106.468C67.0257 102.326 59.8229 93.9959 53.9833 85.2777C47.9027 88.554 41.8332 90.7397 36.6115 91.7909C34.4458 92.2268 32.3368 90.8246 31.9008 88.6589C31.4649 86.4932 32.8671 84.3841 35.0328 83.9482C39.3455 83.08 44.5005 81.2467 49.7444 78.4722C45.7236 71.4983 42.595 64.3462 41.5795 58.5836C41.1961 56.408 42.649 54.3335 44.8246 53.9501C47.0002 53.5667 49.0747 55.0195 49.4581 57.1952C50.2504 61.6908 52.884 67.8726 56.5823 74.3148C58.5559 72.9467 60.4948 71.4434 62.3572 69.8063C70.4072 62.7298 76.8111 53.3568 78.6451 41.8288L28.2852 41.8288C26.076 41.8288 24.2852 40.038 24.2852 37.8288C24.2852 35.6197 26.076 33.8288 28.2852 33.8288L57.8527 33.8288V28.1875C57.8527 25.9784 59.6436 24.1875 61.8527 24.1875C64.0619 24.1875 65.8527 25.9784 65.8527 28.1875V33.8288ZM85.0002 133.374L93.2787 113.843H119.526C119.602 113.843 119.678 113.84 119.752 113.836L128.034 133.374C128.896 135.408 131.243 136.358 133.277 135.496C135.311 134.634 136.261 132.286 135.399 130.252L110.214 70.8327C110.151 70.6789 110.078 70.5291 109.996 70.3842C109.854 70.1331 109.687 69.9023 109.501 69.6936C109.12 69.2662 108.64 68.9143 108.078 68.6759C107.568 68.4597 107.038 68.3575 106.517 68.3578C105.996 68.3575 105.466 68.4597 104.956 68.6759C104.393 68.9143 103.914 69.2662 103.533 69.6936C103.346 69.9023 103.18 70.1331 103.038 70.3842C102.956 70.5291 102.883 70.6789 102.819 70.8327L77.6345 130.252C76.7724 132.286 77.7224 134.634 79.7564 135.496C81.7904 136.358 84.1381 135.408 85.0002 133.374ZM106.517 82.6091L96.6695 105.843H116.364L106.517 82.6091Z" fill="var(--spectrum-global-color-gray-800, #292929)"/>
</svg>
