<svg width="48" height="48" viewBox="0 0 48 48" xmlns="http://www.w3.org/2000/svg">
<path fill-rule="evenodd" d="M15.4091 7.75C12.818 7.75 10.75 9.87749 10.75 12.4615V35.5385C10.75 38.1225 12.818 40.25 15.4091 40.25H33.5909C36.182 40.25 38.25 38.1225 38.25 35.5385V21.9723C38.25 20.7288 37.7637 19.5325 36.8921 18.6475L27.5255 9.13675C26.6532 8.2511 25.4662 7.75 24.2243 7.75H15.4091ZM13.25 12.4615C13.25 11.2221 14.2346 10.25 15.4091 10.25H24.2243C24.2329 10.25 24.2414 10.2501 24.25 10.2502V18.775C24.25 20.4677 25.6662 21.75 27.3 21.75H35.7391C35.7463 21.8235 35.75 21.8977 35.75 21.9723V35.5385C35.75 36.7779 34.7654 37.75 33.5909 37.75H15.4091C14.2346 37.75 13.25 36.7779 13.25 35.5385V12.4615ZM33.9766 19.25L26.75 11.9122V18.775C26.75 18.9877 26.9456 19.25 27.3 19.25H33.9766Z" fill="var(--spectrum-global-color-gray-800, #292929)"/>
</svg>
