<svg width="96" height="96" viewBox="0 0 96 96" xmlns="http://www.w3.org/2000/svg">
<path fill-rule="evenodd" d="M49.7936 17.7767C49.06 16.2902 46.9402 16.2902 46.2066 17.7767L44.4131 16.8916L46.2066 17.7767L38.7264 32.9332C37.8525 34.7041 36.1631 35.9315 34.2088 36.2155L17.4826 38.6459C15.8422 38.8843 15.1872 40.9002 16.3742 42.0573L15.0014 43.4657L16.3742 42.0573L28.4774 53.855C29.8915 55.2334 30.5368 57.2194 30.203 59.1658L27.3458 75.8244C27.0656 77.4582 28.7804 78.7041 30.2477 77.9327L45.2081 70.0676L45.909 71.4009L45.2081 70.0676C46.956 69.1487 49.0442 69.1487 50.7921 70.0676L65.7525 77.9327C67.2198 78.7041 68.9346 77.4582 68.6544 75.8244L65.7972 59.1658C65.4634 57.2194 66.1087 55.2334 67.5228 53.855L79.626 42.0573C80.813 40.9002 80.158 38.8843 78.5176 38.6459L61.7914 36.2155L62.079 34.2363L61.7914 36.2155C59.8371 35.9315 58.1477 34.7041 57.2738 32.9332L59.0672 32.0481L57.2738 32.9332L49.7936 17.7767ZM42.6197 16.0065C44.8205 11.547 51.1796 11.547 53.3805 16.0065L60.8607 31.163C61.152 31.7532 61.7152 32.1624 62.3666 32.257L79.0928 34.6875C84.0141 35.4026 85.9791 41.4505 82.418 44.9217L70.3149 56.7193C69.8435 57.1788 69.6284 57.8408 69.7397 58.4896L72.5968 75.1482C73.4375 80.0496 68.2929 83.7874 63.8911 81.4733L48.9308 73.6082C48.3481 73.3018 47.6521 73.3018 47.0694 73.6082L32.1091 81.4733C27.7073 83.7874 22.5627 80.0497 23.4034 75.1482L26.2605 58.4896C26.3718 57.8408 26.1567 57.1788 25.6853 56.7193L13.5822 44.9217L14.9782 43.4895L13.5822 44.9217C10.0211 41.4505 11.9861 35.4026 16.9074 34.6875L33.6336 32.257L33.9212 34.2363L33.6336 32.257C34.285 32.1624 34.8482 31.7533 35.1395 31.163L42.6197 16.0065Z" fill="var(--spectrum-global-color-gray-800, #292929)"/>
</svg>
