<svg width="48" height="48" viewBox="0 0 48 48" xmlns="http://www.w3.org/2000/svg">
<path fill-rule="evenodd" d="M8.42969 9.96001C8.42969 7.57867 10.4419 5.76001 12.7897 5.76001H22.6297C23.7286 5.76001 24.8022 6.15797 25.6214 6.90587L25.6229 6.90725L35.5567 15.9316L35.5587 15.9334C36.4225 16.7133 36.9297 17.8165 36.9297 18.99V25.035C36.9297 25.7254 36.37 26.285 35.6797 26.285C34.9893 26.285 34.4297 25.7254 34.4297 25.035V19.26H25.8292C24.0693 19.26 22.4492 17.9358 22.4492 16.07V8.26001H12.7897C11.6974 8.26001 10.9297 9.08135 10.9297 9.96001V34.08C10.9297 34.9587 11.6974 35.78 12.7897 35.78H23.2797C23.97 35.78 24.5297 36.3397 24.5297 37.03C24.5297 37.7204 23.97 38.28 23.2797 38.28H12.7897C10.4419 38.28 8.42969 36.4614 8.42969 34.08V9.96001ZM24.9492 9.67281L32.7506 16.76H25.8292C25.2292 16.76 24.9492 16.3442 24.9492 16.07V9.67281ZM26 35.07C26 30.89 29.39 27.5 33.57 27.5C37.75 27.5 41.14 30.89 41.14 35.07C41.14 39.25 37.75 42.64 33.57 42.64C29.39 42.64 26 39.25 26 35.07ZM33.57 30.24C32.88 30.24 32.32 30.8 32.32 31.49V35.24C32.32 35.93 32.88 36.49 33.57 36.49C34.26 36.49 34.82 35.93 34.82 35.24V31.49C34.82 30.8 34.26 30.24 33.57 30.24ZM34.86 39.18C34.9 39.09 34.94 39 34.94 38.91C34.96 38.82 34.97 38.73 34.97 38.64C34.97 38.55 34.96 38.46 34.94 38.37C34.93 38.28 34.9 38.19 34.86 38.1C34.83 38.02 34.79 37.94 34.73 37.86C34.68 37.79 34.62 37.72 34.56 37.65C34.5 37.59 34.42 37.53 34.35 37.48C34.27 37.43 34.19 37.38 34.11 37.35C34.02 37.31 33.93 37.28 33.85 37.27C33.67 37.23 33.48 37.23 33.3 37.27C33.21 37.28 33.12 37.31 33.04 37.35C32.95 37.38 32.87 37.43 32.8 37.48C32.72 37.53 32.65 37.59 32.58 37.65L32.58 37.65C32.52 37.72 32.46 37.79 32.41 37.86L32.41 37.86C32.36 37.94 32.31 38.02 32.28 38.1C32.24 38.19 32.22 38.28 32.2 38.37C32.18 38.46 32.17 38.55 32.17 38.64C32.17 38.73 32.18 38.82 32.2 38.91C32.22 39 32.24 39.09 32.28 39.18C32.31 39.26 32.36 39.34 32.41 39.42C32.46 39.49 32.52 39.56 32.58 39.63L32.58 39.63C32.65 39.69 32.72 39.75 32.8 39.8C32.87 39.85 32.95 39.9 33.04 39.93C33.12 39.97 33.21 39.99 33.3 40.01C33.39 40.04 33.48 40.04 33.57 40.04C33.66 40.04 33.76 40.03 33.85 40.01C33.8588 40.0078 33.8677 40.0056 33.8767 40.0034C33.9498 39.9854 34.0299 39.9656 34.11 39.93C34.19 39.9 34.27 39.85 34.35 39.8C34.42 39.75 34.5 39.69 34.56 39.63C34.62 39.56 34.68 39.49 34.73 39.42C34.79 39.34 34.83 39.26 34.86 39.18Z" fill="var(--spectrum-global-color-gray-800, #292929)"/>
</svg>
