<svg width="48" height="48" viewBox="0 0 48 48" xmlns="http://www.w3.org/2000/svg">
<path fill-rule="evenodd" d="M8.87809 11.8446C9.27294 11.6218 9.70994 11.5 10.1538 11.5H37.8462C38.3607 11.5 38.866 11.6637 39.3072 11.9586L24.6886 20.5298C24.1788 20.8288 23.553 20.823 23.0483 20.5142L8.87809 11.8446ZM7.37455 13.8555C7.29396 14.1603 7.25 14.4877 7.25 14.8333V33.1667C7.25 35.1262 8.66298 36.5 10.1538 36.5H37.8462C39.337 36.5 40.75 35.1262 40.75 33.1667V14.8333C40.75 14.5624 40.723 14.3026 40.6725 14.0561L25.9531 22.6865C24.6476 23.4519 23.0344 23.4365 21.7435 22.6467L7.37455 13.8555ZM10.1538 9C7.0565 9 4.75 11.7302 4.75 14.8333V33.1667C4.75 36.2698 7.0565 39 10.1538 39H37.8462C40.9435 39 43.25 36.2698 43.25 33.1667V14.8333C43.25 11.7302 40.9435 9 37.8462 9H10.1538Z" fill="var(--spectrum-global-color-gray-800, #292929)"/>
</svg>
