<svg width="48" height="48" viewBox="0 0 48 48" xmlns="http://www.w3.org/2000/svg">
<path fill-rule="evenodd" d="M36.332 11.2912C36.4895 11.9634 36.0722 12.6359 35.4001 12.7934L28.5154 14.4063C27.8432 14.5637 27.1707 14.1465 27.0132 13.4743C26.8558 12.8022 27.273 12.1296 27.9452 11.9722L32.0247 11.0165C29.6823 9.55009 26.9139 8.70287 23.9452 8.70287C19.3712 8.70287 15.2686 10.715 12.4716 13.9066C12.0166 14.4258 11.2269 14.4778 10.7077 14.0228C10.1885 13.5678 10.1365 12.7781 10.5915 12.2589C13.843 8.54865 18.6209 6.20287 23.9452 6.20287C27.326 6.20287 30.4881 7.14911 33.1785 8.7907L32.285 4.97681C32.1276 4.30465 32.5448 3.6321 33.217 3.47464C33.8891 3.31717 34.5617 3.73441 34.7191 4.40657L36.332 11.2912ZM38.5803 19.416C38.3742 18.7571 38.7412 18.0559 39.4 17.8497C40.0589 17.6436 40.7601 18.0106 40.9663 18.6695C41.491 20.3465 41.7733 22.1292 41.7733 23.9756C41.7733 31.026 37.6631 37.1138 31.7115 39.9783L35.5203 41.1826C36.1785 41.3907 36.5434 42.093 36.3353 42.7512C36.1271 43.4095 35.4248 43.7744 34.7666 43.5662L28.0245 41.4345C27.3663 41.2264 27.0014 40.5241 27.2095 39.8658L29.3412 33.1238C29.5493 32.4655 30.2517 32.1006 30.9099 32.3087C31.5681 32.5169 31.933 33.2192 31.7249 33.8774L30.4871 37.7923C35.6795 35.3589 39.2733 30.0856 39.2733 23.9756C39.2733 22.3853 39.0303 20.8542 38.5803 19.416ZM6.30753 22.5796L3.31335 25.1345C2.78819 25.5826 1.99921 25.5202 1.5511 24.995C1.10299 24.4698 1.16545 23.6809 1.6906 23.2327L7.06959 18.6429C7.59475 18.1948 8.38374 18.2573 8.83185 18.7824L13.4217 24.1614C13.8698 24.6866 13.8073 25.4756 13.2822 25.9237C12.757 26.3718 11.968 26.3093 11.5199 25.7842L8.81369 22.6126C8.57108 25.2876 9.03237 28.0598 10.2948 30.652C12.2976 34.7642 15.9029 37.5715 19.997 38.6887C20.663 38.8704 21.0556 39.5576 20.8739 40.2236C20.6922 40.8896 20.0049 41.2822 19.3389 41.1005C14.5795 39.8018 10.3785 36.5334 8.04723 31.7466C6.60887 28.7933 6.06407 25.6345 6.30753 22.5796Z" fill="var(--spectrum-global-color-gray-800, #292929)"/>
</svg>
