<svg width="96" height="96" viewBox="0 0 96 96" xmlns="http://www.w3.org/2000/svg">
<path fill-rule="evenodd" d="M76.4777 21.6144C77.9389 15.107 70.1384 10.5992 65.2329 15.1214L65.2326 15.1218L57.4329 22.3095L57.4324 22.31C56.7575 22.9324 55.8156 23.184 54.9222 22.9816L54.9192 22.9809L44.5692 20.6529L44.5685 20.6528C38.0611 19.1916 33.5533 26.9921 38.0756 31.8975L38.0759 31.8979L45.2636 39.6975L45.2641 39.6981C45.8865 40.3729 46.1381 41.3149 45.9357 42.2083L45.935 42.2113L43.607 52.5613L43.6069 52.562C42.1457 59.0694 49.9462 63.5772 54.8516 59.0549L54.852 59.0546L62.6516 51.8669L62.6522 51.8664C63.327 51.244 64.269 50.9923 65.1624 51.1947L65.1654 51.1954L75.5154 53.5234L75.5161 53.5236C82.0235 54.9848 86.5313 47.1843 82.009 42.2788L82.0087 42.2785L74.821 34.4788L74.8205 34.4783C74.1981 33.8034 73.9464 32.8615 74.1488 31.9681L74.1495 31.9651L76.4775 21.6151L76.4777 21.6144ZM67.944 18.0626C69.9624 16.2016 73.1771 18.0532 72.575 20.7373L72.5749 20.738L70.2477 31.0843L70.2474 31.0857C69.7545 33.2636 70.3667 35.5488 71.8795 37.1895L71.8796 37.1896L71.8801 37.1901L79.0676 44.9895L79.0679 44.9899C80.9289 47.0083 79.0773 50.223 76.3932 49.6209L76.393 49.6209L76.3925 49.6208L66.0462 47.2936L66.0448 47.2933C63.8666 46.8003 61.5812 47.4127 59.9404 48.926L52.1409 56.1134L52.1406 56.1138C50.1222 57.9748 46.9075 56.1232 47.5095 53.4391L47.5097 53.4384L49.8368 43.0921L49.8373 43.09C50.33 40.912 49.7176 38.6269 48.2045 36.9863L41.017 29.1868L41.0167 29.1865C39.1557 27.1681 41.0073 23.9534 43.6914 24.5554L43.6921 24.5556L54.0384 26.8827L54.0403 26.8832C56.2181 27.3759 58.503 26.7637 60.1436 25.2509L60.1442 25.2504L67.9436 18.0629L67.944 18.0626ZM38.7909 78.8422L31.4949 77.1982C30.5289 76.9822 29.5269 77.2522 28.8009 77.9182L23.3049 82.9882C21.1389 84.9862 17.6949 82.9942 18.3429 80.1262L19.9869 72.8302C20.2029 71.8642 19.9329 70.8622 19.2669 70.1362L14.1969 64.6402C12.1989 62.4742 14.1909 59.0302 17.0589 59.6782L24.3549 61.3222C25.3209 61.5382 26.3229 61.2682 27.0489 60.6022L32.5449 55.5322C34.7109 53.5342 38.1549 55.5262 37.5069 58.3942L35.8629 65.6902C35.6469 66.6562 35.9169 67.6582 36.5829 68.3842L41.6529 73.8802C43.6509 76.0462 41.6589 79.4902 38.7909 78.8422Z" fill="var(--spectrum-global-color-gray-800, #292929)"/>
</svg>
