<svg width="48" height="48" viewBox="0 0 48 48" xmlns="http://www.w3.org/2000/svg">
<path fill-rule="evenodd" d="M4.25 12.74C4.25 9.64614 6.80135 7.25 9.86261 7.25H38.1374C41.1986 7.25 43.75 9.64614 43.75 12.74V27.2035C43.75 30.2973 41.1986 32.6934 38.1374 32.6934H26.4768L17.1187 40.5999C17.1182 40.6003 17.1177 40.6008 17.1172 40.6012C15.3931 42.0666 12.6344 40.896 12.6518 38.5505C12.6649 36.7759 12.6624 34.5492 12.6564 32.6934H9.86261C6.80135 32.6934 4.25 30.2973 4.25 27.2035V12.74ZM9.86261 9.75C8.10506 9.75 6.75 11.1026 6.75 12.74V27.2035C6.75 28.8408 8.10506 30.1934 9.86261 30.1934H13.9018H15.1465L15.1518 31.4382C15.1603 33.4593 15.1681 36.3583 15.1517 38.569C15.1514 38.6172 15.1632 38.6414 15.1746 38.6581C15.1896 38.6801 15.218 38.7073 15.2621 38.7273C15.3062 38.7472 15.3507 38.7529 15.3871 38.7487C15.4177 38.7451 15.4542 38.7337 15.4983 38.6962L15.5018 38.6932L25.2128 30.4886L25.5621 30.1934H26.0195H38.1374C39.8949 30.1934 41.25 28.8408 41.25 27.2035V12.74C41.25 11.1026 39.8949 9.75 38.1374 9.75H9.86261Z" fill="var(--spectrum-global-color-gray-800, #292929)"/>
</svg>
