<svg width="96" height="96" viewBox="0 0 96 96" xmlns="http://www.w3.org/2000/svg">
<path fill-rule="evenodd" d="M18 39.0762C18 27.4782 27.402 18.0762 39 18.0762C50.598 18.0762 60 27.4782 60 39.0762C60 50.6742 50.598 60.0762 39 60.0762C27.402 60.0762 18 50.6742 18 39.0762ZM39 14.0762C25.1929 14.0762 14 25.2691 14 39.0762C14 52.8833 25.1929 64.0762 39 64.0762C45.1836 64.0762 50.8428 61.8312 55.2071 58.1117L56.6984 59.603L55.277 61.0244C54.4959 61.8055 54.4959 63.0718 55.277 63.8528L72.4059 80.9818C74.7363 83.3121 78.5145 83.3121 80.8448 80.9818C83.1752 78.6514 83.1752 74.8732 80.8448 72.5428L63.7159 55.4139C62.9349 54.6329 61.6685 54.6329 60.8875 55.4139L59.5268 56.7746L58.0356 55.2833C61.755 50.919 64 45.2598 64 39.0762C64 25.2691 52.8071 14.0762 39 14.0762ZM62.3017 59.6566L59.5196 62.4386L75.2343 78.1533C76.0026 78.9216 77.2482 78.9216 78.0164 78.1533C78.7847 77.3851 78.7847 76.1395 78.0164 75.3713L62.3017 59.6566ZM49.4142 29.5858C48.6332 28.8047 47.3668 28.8047 46.5858 29.5858L39.5 36.6716L32.4142 29.5858C31.6332 28.8047 30.3668 28.8047 29.5858 29.5858C28.8047 30.3668 28.8047 31.6332 29.5858 32.4142L36.6716 39.5L29.5858 46.5858C28.8047 47.3668 28.8047 48.6332 29.5858 49.4142C30.3668 50.1953 31.6332 50.1953 32.4142 49.4142L39.5 42.3284L46.5858 49.4142C47.3668 50.1953 48.6332 50.1953 49.4142 49.4142C50.1953 48.6332 50.1953 47.3668 49.4142 46.5858L42.3284 39.5L49.4142 32.4142C50.1953 31.6332 50.1953 30.3668 49.4142 29.5858Z" fill="var(--spectrum-global-color-gray-800, #292929)"/>
</svg>
