<svg width="96" height="96" viewBox="0 0 96 96" xmlns="http://www.w3.org/2000/svg">
<path fill-rule="evenodd" d="M45.1823 18.7142C46.5803 17.7619 48.4197 17.7619 49.8177 18.7142L76.139 36.6434C77.287 37.4254 77.287 39.1153 76.139 39.8973L49.8177 57.8265C48.4197 58.7788 46.5803 58.7788 45.1823 57.8265L18.861 39.8973C17.713 39.1153 17.713 37.4254 18.861 36.6434L45.1823 18.7142ZM52.0695 15.4083C49.3129 13.5306 45.6871 13.5306 42.9305 15.4083L16.6091 33.3375C13.1303 35.7072 13.1303 40.8335 16.6091 43.2032L42.9305 61.1324C45.6871 63.0101 49.3129 63.0101 52.0695 61.1324L78.3909 43.2032C81.8697 40.8335 81.8697 35.7072 78.3909 33.3375L52.0695 15.4083ZM22.6909 53.4939C23.6038 52.8721 23.8398 51.6279 23.2179 50.715C22.5961 49.8021 21.3519 49.5661 20.439 50.188L16.6091 52.7968C13.1303 55.1665 13.1303 60.2928 16.6091 62.6625L42.9305 80.5917C45.6871 82.4694 49.3129 82.4694 52.0695 80.5917L78.3909 62.6625C81.8697 60.2928 81.8697 55.1665 78.3909 52.7968L74.561 50.188C73.6481 49.5661 72.4039 49.8021 71.7821 50.715C71.1603 51.6279 71.3962 52.8721 72.3091 53.4939L76.139 56.1027C77.287 56.8847 77.287 58.5746 76.139 59.3566L49.8177 77.2858C48.4197 78.2381 46.5803 78.2381 45.1823 77.2858L18.861 59.3566C17.713 58.5746 17.713 56.8847 18.861 56.1027L22.6909 53.4939Z" fill="var(--spectrum-global-color-gray-800, #292929)"/>
</svg>
