<svg width="48" height="48" viewBox="0 0 48 48" xmlns="http://www.w3.org/2000/svg">
<path fill-rule="evenodd" d="M26.1595 6.40872C25.107 5.86376 23.8554 5.86376 22.8029 6.40872L8.97172 13.5703C7.76049 14.1974 7 15.4476 7 16.8116V30.7001C7 32.0641 7.76049 33.3142 8.97172 33.9414L22.8029 41.1029C23.8554 41.6479 25.107 41.6479 26.1595 41.1029L39.9907 33.9414C41.2019 33.3142 41.9624 32.0641 41.9624 30.7001V16.8116C41.9624 15.4476 41.2019 14.1974 39.9907 13.5703L26.1595 6.40872ZM23.9524 8.62877C24.284 8.45707 24.6784 8.45707 25.01 8.62878L38.8412 15.7903C39.2228 15.9879 39.4624 16.3818 39.4624 16.8116V30.7001C39.4624 31.1298 39.2228 31.5237 38.8412 31.7213L25.01 38.8829C24.6784 39.0546 24.284 39.0546 23.9524 38.8829L10.1212 31.7213C9.73961 31.5237 9.5 31.1298 9.5 30.7001V16.8116C9.5 16.3818 9.73961 15.9879 10.1212 15.7903L23.9524 8.62877ZM29.6279 18.9812L29.6282 18.9817L33.4203 25.5621L33.4206 25.5626C34.3615 27.1972 33.1908 29.25 31.2933 29.25H23.7086C21.8111 29.25 20.6404 27.1972 21.5814 25.5626L21.5815 25.5625L25.3707 18.9817L25.3708 18.9816C26.3162 17.3396 28.6824 17.3394 29.6279 18.9812ZM27.4995 20.2948L23.7825 26.75H31.2194L27.4995 20.2948ZM20.9353 19.3209C21.5331 19.6662 21.7379 20.4307 21.3927 21.0285L17.0344 28.5759C16.6892 29.1738 15.9247 29.3786 15.3268 29.0333C14.729 28.6881 14.5242 27.9236 14.8694 27.3258L19.2277 19.7783C19.573 19.1805 20.3375 18.9757 20.9353 19.3209Z" fill="var(--spectrum-global-color-gray-800, #292929)"/>
</svg>
