<svg width="160" height="160" viewBox="0 0 160 160" xmlns="http://www.w3.org/2000/svg">
<path fill-rule="evenodd" d="M28.6227 54.8931C22.5092 59.0612 22.5092 68.0759 28.6227 72.244L71.681 101.601C76.4384 104.845 82.6967 104.845 87.4542 101.601L130.512 72.244C136.626 68.0759 136.626 59.0612 130.512 54.8931L87.4542 25.5358C82.6967 22.2922 76.4384 22.2922 71.681 25.5358L28.6227 54.8931ZM33.1293 65.6341C31.6737 64.6417 31.6737 62.4954 33.1293 61.503L76.1876 32.1457C78.2265 30.7556 80.9086 30.7556 82.9475 32.1457L126.006 61.503C127.461 62.4954 127.461 64.6417 126.006 65.6341L82.9475 94.9914C80.9086 96.3815 78.2265 96.3815 76.1876 94.9914L33.1293 65.6341ZM33.1293 99.1341C31.6737 98.1417 31.6737 95.9954 33.1293 95.003L39.3945 90.7313C41.2197 89.4869 41.6906 86.9984 40.4461 85.1731C39.2016 83.3478 36.7131 82.877 34.8878 84.1215L28.6227 88.3931C22.5092 92.5612 22.5092 101.576 28.6227 105.744L71.681 135.101C76.4384 138.345 82.6967 138.345 87.4542 135.101L130.512 105.744C136.626 101.576 136.626 92.5612 130.512 88.3931L124.247 84.1215C122.422 82.877 119.934 83.3478 118.689 85.1731C117.445 86.9984 117.915 89.4869 119.741 90.7313L126.006 95.003C127.461 95.9954 127.461 98.1417 126.006 99.1341L82.9475 128.491C80.9086 129.882 78.2265 129.882 76.1876 128.491L33.1293 99.1341Z" fill="var(--spectrum-global-color-gray-800, #292929)"/>
</svg>
