<svg width="96" height="96" viewBox="0 0 96 96" xmlns="http://www.w3.org/2000/svg">
<path fill-rule="evenodd" d="M39.1452 28.4778C39.152 22.6652 45.3406 18.8149 50.4334 21.856L83.1787 41.4101C88.1471 44.377 88.1389 51.7262 83.1632 54.6812L50.3726 74.1545C45.2725 77.1832 39.0933 73.3174 39.1 67.5052L39.1452 28.4778ZM48.3826 25.2903C46.1408 23.9516 43.1486 25.5535 43.1452 28.4825L43.1 67.5098C43.0966 70.4392 46.0855 72.0482 48.3301 70.7152L81.1207 51.2419C83.4896 49.8351 83.4942 46.2574 81.128 44.8444L48.3826 25.2903L49.408 23.5732L48.3826 25.2903ZM12 27.0006C12 23.6869 14.6863 21.0006 18 21.0006H26C29.3137 21.0006 32 23.6869 32 27.0006V69.0006C32 72.3143 29.3137 75.0006 26 75.0006H18C14.6863 75.0006 12 72.3143 12 69.0006V27.0006ZM18 25.0006C16.8954 25.0006 16 25.8961 16 27.0006V69.0006C16 70.1052 16.8954 71.0006 18 71.0006H26C27.1046 71.0006 28 70.1052 28 69.0006V27.0006C28 25.8961 27.1046 25.0006 26 25.0006H18Z" fill="var(--spectrum-global-color-gray-800, #292929)"/>
</svg>
