<svg width="48" height="48" viewBox="0 0 48 48" xmlns="http://www.w3.org/2000/svg">
<path fill-rule="evenodd" d="M12.9502 10.52C10.3306 10.52 8.2002 12.6504 8.2002 15.27V37.49H13.0498V32.6599C13.0498 30.8696 14.5094 29.4099 16.2998 29.4099H20.2498C22.0402 29.4099 23.4998 30.8696 23.4998 32.6599V37.49H28.3602V15.27C28.3602 12.6504 26.2298 10.52 23.6102 10.52H12.9502ZM22.4078 39.99H29.6102C30.3006 39.99 30.8602 39.4304 30.8602 38.74V15.27C30.8602 11.2697 27.6106 8.02002 23.6102 8.02002H12.9502C8.94984 8.02002 5.7002 11.2697 5.7002 15.27V38.74C5.7002 39.4304 6.25984 39.99 6.9502 39.99H14.1418C14.1935 39.9965 14.2463 39.9999 14.2998 39.9999H22.2498C22.3033 39.9999 22.3561 39.9965 22.4078 39.99ZM20.9998 37.49V32.6599C20.9998 32.2503 20.6594 31.9099 20.2498 31.9099H16.2998C15.8902 31.9099 15.5498 32.2503 15.5498 32.6599V37.49H20.9998ZM32.3701 15.3899C32.3701 14.6995 32.9298 14.1399 33.6201 14.1399H35.0501C39.0505 14.1399 42.3001 17.3895 42.3001 21.3899V38.7399C42.3001 39.4303 41.7405 39.9899 41.0501 39.9899H33.6201C32.9298 39.9899 32.3701 39.4303 32.3701 38.7399C32.3701 38.0495 32.9298 37.4899 33.6201 37.4899H39.8001V21.3899C39.8001 18.7702 37.6698 16.6399 35.0501 16.6399H33.6201C32.9298 16.6399 32.3701 16.0802 32.3701 15.3899ZM15.2301 13.4399H13.3301C12.7778 13.4399 12.3301 13.8877 12.3301 14.4399V16.3399C12.3301 16.8922 12.7778 17.3399 13.3301 17.3399H15.2301C15.7824 17.3399 16.2301 16.8922 16.2301 16.3399V14.4399C16.2301 13.8877 15.7824 13.4399 15.2301 13.4399ZM21.3301 13.4399H23.2301C23.7824 13.4399 24.2301 13.8877 24.2301 14.4399V16.3399C24.2301 16.8922 23.7824 17.3399 23.2301 17.3399H21.3301C20.7778 17.3399 20.3301 16.8922 20.3301 16.3399V14.4399C20.3301 13.8877 20.7778 13.4399 21.3301 13.4399ZM15.2301 21.3799H13.3301C12.7778 21.3799 12.3301 21.8277 12.3301 22.3799V24.2799C12.3301 24.8322 12.7778 25.2799 13.3301 25.2799H15.2301C15.7824 25.2799 16.2301 24.8322 16.2301 24.2799V22.3799C16.2301 21.8277 15.7824 21.3799 15.2301 21.3799ZM21.3301 21.3799H23.2301C23.7824 21.3799 24.2301 21.8277 24.2301 22.3799V24.2799C24.2301 24.8322 23.7824 25.2799 23.2301 25.2799H21.3301C20.7778 25.2799 20.3301 24.8322 20.3301 24.2799V22.3799C20.3301 21.8277 20.7778 21.3799 21.3301 21.3799ZM36.2799 21.1499H34.3799C33.8276 21.1499 33.3799 21.5976 33.3799 22.1499V24.0499C33.3799 24.6022 33.8276 25.0499 34.3799 25.0499H36.2799C36.8322 25.0499 37.2799 24.6022 37.2799 24.0499V22.1499C37.2799 21.5976 36.8322 21.1499 36.2799 21.1499ZM34.3799 29.0899H36.2799C36.8322 29.0899 37.2799 29.5376 37.2799 30.0899V31.9899C37.2799 32.5422 36.8322 32.9899 36.2799 32.9899H34.3799C33.8276 32.9899 33.3799 32.5422 33.3799 31.9899V30.0899C33.3799 29.5376 33.8276 29.0899 34.3799 29.0899Z" fill="var(--spectrum-global-color-gray-800, #292929)"/>
</svg>
