<svg width="96" height="97" viewBox="0 0 96 97" xmlns="http://www.w3.org/2000/svg">
<path fill-rule="evenodd" d="M33.6817 15.1934C32.0962 15.1934 30.5752 15.8209 29.451 16.9388L13.8963 32.406C11.7622 34.5282 11.5305 37.9032 13.3546 40.2971L43.1699 79.4257C45.5683 82.5733 50.3036 82.5778 52.7079 79.4346L82.6368 40.3093C84.4719 37.9103 84.2377 34.5211 82.09 32.3974L66.4447 16.927C65.3215 15.8163 63.8056 15.1934 62.226 15.1934H33.6817ZM32.2714 19.7752C32.6462 19.4025 33.1532 19.1934 33.6817 19.1934H41.0387L33.4289 35.0778C33.4052 35.1273 33.3836 35.1776 33.3642 35.2285H16.7308L32.2714 19.7752ZM37.7921 35.2285L45.474 19.1934H50.5357L58.2176 35.2285H37.7921ZM57.7761 39.2285H38.2336L48.0048 74.0017L57.7761 39.2285ZM52.3525 73.3156L61.931 39.2285H78.4275L52.3525 73.3156ZM62.6455 35.2285C62.6261 35.1776 62.6045 35.1273 62.5808 35.0778L54.971 19.1934H62.226C62.7525 19.1934 63.2578 19.401 63.6322 19.7712L79.2642 35.2285H62.6455ZM17.5693 39.2285H34.0787L43.7238 73.5529L17.5693 39.2285Z" fill="var(--spectrum-global-color-gray-800, #292929)"/>
</svg>
