<svg width="160" height="160" viewBox="0 0 160 160" xmlns="http://www.w3.org/2000/svg">
<path fill-rule="evenodd" d="M85.1497 28.9C71.6916 28.9 60.2259 37.211 55.0312 49.0063C53.1999 48.5648 51.292 48.33 49.3297 48.33C35.2181 48.33 24.0797 60.2269 24.0797 74.52C24.0797 75.3456 24.12 76.1552 24.1942 76.9482C16.4638 80.6189 11.1797 88.683 11.1797 97.94C11.1797 110.258 20.5766 120.567 32.656 121.017C32.8242 121.039 32.9956 121.05 33.1697 121.05H87.7997C90.0088 121.05 91.7997 119.259 91.7997 117.05C91.7997 114.841 90.0088 113.05 87.7997 113.05H33.5714C33.4615 113.039 33.3503 113.033 33.2379 113.031C25.611 112.9 19.1797 106.352 19.1797 97.94C19.1797 90.8787 23.7511 85.0912 29.7412 83.3754C31.7681 82.7948 32.9963 80.7406 32.5484 78.6803C32.25 77.3075 32.0797 75.9243 32.0797 74.52C32.0797 64.3131 39.9613 56.33 49.3297 56.33C51.6346 56.33 53.8261 56.8106 55.8434 57.682C56.8874 58.1331 58.0741 58.1183 59.1066 57.6415C60.1391 57.1647 60.9199 56.271 61.2536 55.1837C64.5422 44.4697 74.0826 36.9 85.1497 36.9C98.8594 36.9 110.269 48.5543 110.27 63.3094C110.27 63.3094 110.269 63.3207 110.267 63.3695C110.267 63.3883 110.265 63.4127 110.264 63.4442L110.263 63.462C110.259 63.5592 110.25 63.7491 110.25 63.95C110.25 66.0672 111.899 67.8177 114.013 67.943C118.24 68.1936 122.142 69.7285 125.378 72.206C127.132 73.549 129.643 73.2157 130.986 71.4617C132.329 69.7076 131.995 67.197 130.241 65.854C126.736 63.1704 122.626 61.269 118.153 60.4139C116.742 42.8968 102.646 28.9 85.1497 28.9ZM95.9902 102.59C95.9902 89.06 106.96 78.09 120.49 78.09C134.02 78.09 144.99 89.06 144.99 102.59C144.99 116.12 134.02 127.09 120.49 127.09C106.96 127.09 95.9902 116.12 95.9902 102.59ZM131.41 113.52C132.97 111.95 132.97 109.42 131.41 107.86L126.15 102.6L131.41 97.34C132.97 95.77 132.97 93.24 131.41 91.68C129.85 90.12 127.31 90.12 125.75 91.68L120.49 96.94L115.23 91.68C113.67 90.12 111.13 90.12 109.57 91.68C108.01 93.25 108.01 95.78 109.57 97.34L114.83 102.6L109.57 107.86C108.01 109.43 108.01 111.96 109.57 113.52C110.35 114.3 111.37 114.69 112.4 114.69C113.43 114.69 114.45 114.3 115.23 113.52L120.49 108.26L125.75 113.52C126.53 114.3 127.55 114.69 128.58 114.69C129.61 114.69 130.63 114.3 131.41 113.52Z" fill="var(--spectrum-global-color-gray-800, #292929)"/>
</svg>
