<svg width="160" height="160" viewBox="0 0 160 160" xmlns="http://www.w3.org/2000/svg">
<path fill-rule="evenodd" d="M92.4936 20.9979C85.1892 15.1544 74.8101 15.1544 67.5057 20.9979L31.7444 49.6069C27.0001 53.4024 24.2383 59.1487 24.2383 65.2243V115.726C24.2383 126.771 33.1926 135.726 44.2383 135.726H115.761C126.807 135.726 135.761 126.771 135.761 115.726V65.2243C135.761 59.1486 132.999 53.4024 128.255 49.6069L92.4936 20.9979ZM72.5033 27.2448C76.8859 23.7387 83.1134 23.7387 87.496 27.2448L123.257 55.8539C126.104 58.1312 127.761 61.5789 127.761 65.2243V115.726C127.761 122.353 122.388 127.726 115.761 127.726H101.253V95.4143C101.253 86.5777 94.0897 79.4143 85.2532 79.4143H74.7456C65.909 79.4143 58.7456 86.5777 58.7456 95.4143V127.726H44.2383C37.6109 127.726 32.2383 122.353 32.2383 115.726V65.2243C32.2383 61.5789 33.8954 58.1312 36.7419 55.8539L72.5033 27.2448ZM66.7456 127.726H93.2532V95.4143C93.2532 90.996 89.6715 87.4143 85.2532 87.4143H74.7456C70.3273 87.4143 66.7456 90.996 66.7456 95.4143V127.726Z" fill="var(--spectrum-global-color-gray-800, #292929)"/>
</svg>
