<svg width="160" height="160" viewBox="0 0 160 160" xmlns="http://www.w3.org/2000/svg">
<path fill-rule="evenodd" d="M135.959 41.0077C135.959 31.617 126.891 24.8801 117.899 27.6097L117.898 27.6101L117.896 27.6104L75.2747 40.5277H44.979C31.1899 40.5277 19.999 51.7186 19.999 65.5077C19.999 79.2969 31.1899 90.4877 44.979 90.4877H46.3756L47.4195 92.8774C48.6871 95.7788 50.4039 99.7065 52.2003 103.811C55.7873 112.008 59.708 120.947 60.9909 123.8C63.0247 128.324 66.4937 131.123 70.4676 132.239C74.3332 133.325 78.4197 132.753 81.8263 131.098C85.0041 129.554 87.8184 126.957 89.3631 123.5C90.9449 119.961 91.0641 115.8 89.2631 111.542L89.2466 111.503L80.8257 92.16L117.886 103.425L117.886 103.425C126.872 106.154 135.959 99.4367 135.959 90.0277V41.0077ZM71.959 48.5277V82.4877H44.979C35.6082 82.4877 27.999 74.8786 27.999 65.5077C27.999 56.1369 35.6082 48.5277 44.979 48.5277H71.959ZM79.959 83.5352L120.211 95.7704L120.212 95.7706C124.066 96.9407 127.959 94.0585 127.959 90.0277V41.0077C127.959 36.9793 124.069 34.0965 120.221 35.2651L120.219 35.2658L79.959 47.4674V83.5352ZM55.111 90.5C56.3339 93.2985 57.8988 96.8783 59.5292 100.604C63.1259 108.822 67.0253 117.713 68.2873 120.52C69.3679 122.923 70.9816 124.074 72.6303 124.537C74.3873 125.03 76.4635 124.809 78.3308 123.902C80.0618 123.061 81.3865 121.742 82.0592 120.236C82.6932 118.818 82.8706 116.976 81.9026 114.676L71.3778 90.5H55.111Z" fill="var(--spectrum-global-color-gray-800, #292929)"/>
</svg>
