<svg width="96" height="97" viewBox="0 0 96 97" xmlns="http://www.w3.org/2000/svg">
<path fill-rule="evenodd" d="M20.6405 15.416C14.8024 15.416 10 20.031 10 25.916V53.916C10 59.801 14.8024 64.416 20.6405 64.416H26.0076C26.0205 68.2322 26.0273 72.9449 26.0001 76.6676C25.9693 80.8745 30.9162 83.0941 34.0692 80.3817L34.0721 80.3791L52.7386 64.416H75.3595C81.1976 64.416 86 59.801 86 53.916V25.916C86 20.031 81.1976 15.416 75.3595 15.416H20.6405ZM14 25.916C14 22.3163 16.9346 19.416 20.6405 19.416H75.3595C79.0654 19.416 82 22.3163 82 25.916V53.916C82 57.5158 79.0654 60.416 75.3595 60.416H52H51.2614L50.7001 60.896L31.4668 77.344L31.4613 77.3487C30.8694 77.8587 29.9947 77.4137 29.9999 76.6968C30.0324 72.2683 30.0169 66.4594 30 62.4077L29.9917 60.416H28H20.6405C16.9346 60.416 14 57.5158 14 53.916V25.916ZM30 31.8945C28.8954 31.8945 28 32.79 28 33.8945C28 34.9991 28.8954 35.8945 30 35.8945H66C67.1046 35.8945 68 34.9991 68 33.8945C68 32.79 67.1046 31.8945 66 31.8945H30ZM30 43.8945C28.8954 43.8945 28 44.79 28 45.8945C28 46.9991 28.8954 47.8945 30 47.8945H66C67.1046 47.8945 68 46.9991 68 45.8945C68 44.79 67.1046 43.8945 66 43.8945H30Z" fill="var(--spectrum-global-color-gray-800, #292929)"/>
</svg>
