<svg width="160" height="160" viewBox="0 0 160 160" xmlns="http://www.w3.org/2000/svg">
<path fill-rule="evenodd" d="M35.6777 95.4097C36.0786 94.339 36.7044 93.3666 37.5128 92.5582L101.7 28.3705C109.965 20.1057 123.365 20.1057 131.63 28.3705C139.895 36.6353 139.895 50.0353 131.63 58.3002L67.4425 122.488C66.634 123.296 65.6616 123.922 64.5909 124.323L30.717 137.006C25.8954 138.811 21.1887 134.105 22.9941 129.283L35.6777 95.4097ZM107.357 34.0274L103.303 38.0815L121.919 56.6975L125.973 52.6433C131.114 47.5027 131.114 39.168 125.973 34.0274C120.833 28.8867 112.498 28.8867 107.357 34.0274ZM45.4582 95.9265L97.6463 43.7384L116.262 62.3543L64.0741 114.542L45.4582 95.9265ZM41.3344 103.116L32.027 127.973L56.8841 118.666L41.3344 103.116Z" fill="var(--spectrum-global-color-gray-800, #292929)"/>
</svg>
