<svg width="160" height="160" viewBox="0 0 160 160" xmlns="http://www.w3.org/2000/svg">
<path fill-rule="evenodd" d="M79.9805 40C79.9805 35.5817 83.5622 32 87.9805 32H120C124.419 32 128 35.5817 128 40V72.02C128 76.4383 124.419 80.02 120 80.02H87.9805C83.5622 80.02 79.9805 76.4383 79.9805 72.02V40ZM87.9805 24C79.1439 24 71.9805 31.1634 71.9805 40V72.02C71.9805 80.8566 79.1439 88.02 87.9805 88.02H120C128.837 88.02 136 80.8566 136 72.02V40C136 31.1634 128.837 24 120 24H87.9805ZM31.9902 62.03C31.9902 58.7163 34.6765 56.03 37.9902 56.03H49.9802C53.2939 56.03 55.9802 58.7163 55.9802 62.03V74.02C55.9802 77.3337 53.2939 80.02 49.9802 80.02H37.9902C34.6765 80.02 31.9902 77.3337 31.9902 74.02V62.03ZM37.9902 48.03C30.2583 48.03 23.9902 54.298 23.9902 62.03V74.02C23.9902 81.752 30.2583 88.02 37.9902 88.02H49.9802C57.7122 88.02 63.9802 81.752 63.9802 74.02V62.03C63.9802 54.298 57.7122 48.03 49.9802 48.03H37.9902ZM37.9902 103.97C34.6765 103.97 31.9902 106.656 31.9902 109.97V121.96C31.9902 125.274 34.6765 127.96 37.9902 127.96H49.9802C53.2939 127.96 55.9802 125.274 55.9802 121.96V109.97C55.9802 106.656 53.2939 103.97 49.9802 103.97H37.9902ZM23.9902 109.97C23.9902 102.238 30.2583 95.97 37.9902 95.97H49.9802C57.7122 95.97 63.9802 102.238 63.9802 109.97V121.96C63.9802 129.692 57.7122 135.96 49.9802 135.96H37.9902C30.2582 135.96 23.9902 129.692 23.9902 121.96V109.97ZM79.9805 109.97C79.9805 106.656 82.6668 103.97 85.9805 103.97H97.9705C101.284 103.97 103.97 106.656 103.97 109.97V121.96C103.97 125.274 101.284 127.96 97.9705 127.96H85.9805C82.6668 127.96 79.9805 125.274 79.9805 121.96V109.97ZM85.9805 95.97C78.2485 95.97 71.9805 102.238 71.9805 109.97V121.96C71.9805 129.692 78.2485 135.96 85.9805 135.96H97.9705C105.702 135.96 111.97 129.692 111.97 121.96V109.97C111.97 102.238 105.702 95.97 97.9705 95.97H85.9805Z" fill="var(--spectrum-global-color-gray-800, #292929)"/>
</svg>
