<svg width="48" height="48" viewBox="0 0 48 48" xmlns="http://www.w3.org/2000/svg">
<path fill-rule="evenodd" d="M8.93076 7.14737C8.4426 6.65921 7.65115 6.65921 7.16299 7.14737C6.67484 7.63552 6.67484 8.42698 7.16299 8.91513L39.0712 40.8233C39.5593 41.3115 40.3508 41.3115 40.8389 40.8233C41.3271 40.3352 41.3271 39.5437 40.8389 39.0555L8.93076 7.14737ZM10.6963 22.0039C10.6963 28.8958 15.9675 34.5566 22.6982 35.1745V38.7187H16.9619C16.2716 38.7187 15.7119 39.2784 15.7119 39.9687C15.7119 40.6591 16.2716 41.2187 16.9619 41.2187H30.9346C31.6249 41.2187 32.1846 40.6591 32.1846 39.9687C32.1846 39.2784 31.6249 38.7187 30.9346 38.7187H25.1982V35.1693C26.0137 35.0925 27.0425 34.9244 28.1202 34.5653C28.7751 34.347 29.1291 33.6391 28.9108 32.9842C28.6926 32.3292 27.9847 31.9752 27.3297 32.1935C25.9066 32.6678 24.5592 32.7305 23.9229 32.7305C17.9987 32.7305 13.1963 27.928 13.1963 22.0039V20.5068C13.1963 19.8165 12.6366 19.2568 11.9463 19.2568C11.2559 19.2568 10.6963 19.8165 10.6963 20.5068V22.0039ZM19.0694 8.64785C20.2197 7.55379 21.828 6.79687 23.9488 6.79687C26.7194 6.79687 28.5801 8.06124 29.7073 9.62769C30.791 11.1338 31.1871 12.8952 31.1871 14.043V14.0523H31.1871C31.1692 16.4454 31.1821 20.5525 31.1861 21.7993L31.1871 22.1599C31.1871 22.9469 31.0181 23.7022 30.7892 24.3612C30.5627 25.0133 29.8504 25.3584 29.1983 25.1319C28.5462 24.9054 28.2011 24.1931 28.4276 23.541C28.5912 23.0699 28.6871 22.5974 28.6871 22.1599L28.6862 21.8319C28.6823 20.6272 28.6691 16.4593 28.6871 14.0388C28.686 13.3534 28.4205 12.1197 27.678 11.0879C26.9775 10.1144 25.8441 9.29687 23.9488 9.29687C22.4766 9.29687 21.4831 9.8023 20.7923 10.4593C20.0755 11.1411 19.6298 12.0424 19.398 12.8654C19.2109 13.5299 18.5205 13.9169 17.856 13.7298C17.1915 13.5426 16.8045 12.8522 16.9916 12.1877C17.3104 11.0558 17.9451 9.71716 19.0694 8.64785ZM19.4374 23.5028C19.2114 22.8505 18.4993 22.505 17.847 22.731C17.1947 22.9571 16.8492 23.6691 17.0753 24.3214C17.7086 26.149 19.3339 28.1645 21.7117 28.9061C22.3707 29.1117 23.0716 28.7441 23.2772 28.085C23.4827 27.426 23.1151 26.7251 22.4561 26.5195C20.9771 26.0582 19.8636 24.7324 19.4374 23.5028ZM37.1755 20.5068C37.1755 19.8165 36.6158 19.2568 35.9255 19.2568C35.2351 19.2568 34.6755 19.8165 34.6755 20.5068C34.6755 24.5222 34.098 26.1865 33.0767 27.6663C32.6846 28.2345 32.8273 29.013 33.3954 29.4051C33.9636 29.7972 34.7421 29.6545 35.1342 29.0864C36.5517 27.0326 37.1755 24.7985 37.1755 20.5068Z" fill="var(--spectrum-global-color-gray-800, #292929)"/>
</svg>
