<svg width="96" height="96" viewBox="0 0 96 96" xmlns="http://www.w3.org/2000/svg">
  <defs>
<clipPath id="clip0_5570_89491">
<rect width="96" height="96" fill="white"/>
</clipPath>
</defs>
<g clip-path="url(#clip0_5570_89491)">
<path fill-rule="evenodd" d="M75.7879 20.1349C75.6684 19.6811 75.3257 19.3384 74.8719 19.219C69.938 17.9199 58.3309 18.9088 46.7592 30.4804C38.4131 38.8265 34.7769 43.5415 33.2048 46.3909C32.4382 47.7803 32.2017 48.6581 32.1212 49.2483C32.0598 49.6989 32.0723 49.9601 32.09 50.331L32.09 50.3311C32.1005 50.5499 32.1128 50.807 32.1128 51.1636C32.1128 52.8483 33.0339 54.689 36.6759 58.3309C40.3179 61.9729 42.1585 62.8941 43.8432 62.8941C44.1999 62.8941 44.457 62.9064 44.6759 62.9168H44.6759C45.0468 62.9346 45.308 62.947 45.7586 62.8856C46.3487 62.8051 47.2266 62.5686 48.6159 61.8021C51.4653 60.23 56.1803 56.5937 64.5264 48.2477C76.0981 36.676 77.0869 25.0689 75.7879 20.1349ZM75.8903 15.3508C77.7382 15.8373 79.1696 17.2687 79.6561 19.1165C81.2902 25.3232 79.9171 37.4421 69.0417 49.3144C69.6163 52.2272 69.2092 55.7162 68.3105 59.1533C67.2921 63.0484 65.5701 67.1488 63.519 70.7832C61.4786 74.3988 59.0418 77.6786 56.5318 79.8424C54.1533 81.8926 50.9916 83.5115 47.9659 81.9987C45.2956 80.6637 44.5278 78.1316 44.2669 75.4402C44.1356 74.0862 44.1164 72.5288 44.1132 70.8293C44.1125 70.4772 44.1126 70.1175 44.1127 69.7496V69.7477L44.1127 69.7457V69.7437V69.7434V69.7432C44.1128 68.8481 44.1129 67.9044 44.103 66.9023C43.9931 66.8976 43.9048 66.8941 43.8432 66.8941C40.379 66.8941 37.4998 64.8117 33.8475 61.1594C30.1952 57.5071 28.1128 54.6279 28.1128 51.1636C28.1128 51.1019 28.1092 51.0133 28.1045 50.9031C27.1019 50.8931 26.1576 50.8932 25.2621 50.8934L25.262 50.8934L25.258 50.8934C24.8895 50.8934 24.5292 50.8935 24.1765 50.8928C22.4769 50.8897 20.9196 50.8704 19.5655 50.7392C16.8741 50.4782 14.3421 49.7104 13.007 47.0402C11.4942 44.0144 13.1131 40.8527 15.1634 38.4743C17.3271 35.9642 20.607 33.5275 24.2225 31.487C27.857 29.4359 31.9574 27.7139 35.8524 26.6955C39.2902 25.7967 42.7798 25.3896 45.693 25.9646C57.5651 15.0897 69.6837 13.7167 75.8903 15.3508ZM50.5483 65.3044C53.6332 63.6023 58.1194 60.1266 65.2833 53.1248C65.2017 54.6172 64.9194 56.3102 64.4406 58.1415C63.5197 61.6637 61.9385 65.4452 60.0355 68.8173C58.1217 72.2084 55.9533 75.0599 53.9201 76.8127C51.7552 78.6789 50.4356 78.7614 49.7547 78.421C48.9922 78.0398 48.471 77.3519 48.2482 75.0543C48.1376 73.9138 48.1164 72.5344 48.1132 70.8218C48.1126 70.4837 48.1126 70.1338 48.1127 69.7725V69.7652C48.1129 68.7381 48.1131 67.6185 48.0976 66.4151C48.8301 66.1654 49.6369 65.8072 50.5483 65.3044ZM41.8829 29.7227C40.39 29.804 38.6963 30.0864 36.8642 30.5654C33.342 31.4863 29.5605 33.0675 26.1884 34.9706C22.7973 36.8843 19.9458 39.0527 18.1931 41.086C16.3269 43.2509 16.2443 44.5705 16.5847 45.2514C16.9659 46.0138 17.6538 46.5351 19.9515 46.7578C21.0919 46.8684 22.4713 46.8896 24.1839 46.8928C24.5243 46.8935 24.8766 46.8934 25.2405 46.8933L25.2407 46.8933C26.2682 46.8932 27.3881 46.893 28.592 46.9084C28.8417 46.1761 29.1998 45.3696 29.7025 44.4586C31.4046 41.3735 34.8806 36.887 41.8829 29.7227ZM63.7949 38.0769C61.8991 39.9726 58.8254 39.9726 56.9296 38.0769C55.0339 36.1811 55.0339 33.1074 56.9296 31.2116C58.8254 29.3159 61.8991 29.3159 63.7949 31.2116C65.6906 33.1074 65.6906 36.1811 63.7949 38.0769ZM27.88 69.9555C28.661 69.1744 28.661 67.9081 27.88 67.127C27.0989 66.346 25.8326 66.346 25.0515 67.127L13.252 78.9266C12.4709 79.7077 12.4709 80.974 13.252 81.7551C14.033 82.5361 15.2993 82.5361 16.0804 81.7551L27.88 69.9555ZM33.8868 73.1341C34.6679 73.9152 34.6679 75.1815 33.8868 75.9625L27.0216 82.8278C26.2405 83.6088 24.9742 83.6088 24.1932 82.8278C23.4121 82.0467 23.4121 80.7804 24.1932 79.9993L31.0584 73.1341C31.8394 72.3531 33.1058 72.3531 33.8868 73.1341ZM21.8722 63.9484C22.6532 63.1674 22.6532 61.9011 21.8722 61.12C21.0911 60.339 19.8248 60.339 19.0437 61.12L12.1785 67.9852C11.3975 68.7663 11.3975 70.0326 12.1785 70.8137C12.9596 71.5947 14.2259 71.5947 15.0069 70.8137L21.8722 63.9484Z" fill="var(--spectrum-global-color-gray-800, #292929)"/>
</g>

</svg>
