<svg width="48" height="48" viewBox="0 0 48 48" xmlns="http://www.w3.org/2000/svg">
<path fill-rule="evenodd" d="M38.4023 9.84189C39.1866 6.34927 34.9997 3.92941 32.3666 6.35682L32.3663 6.35703L28.4665 9.95082L28.4662 9.95116C28.1892 10.2066 27.8022 10.3099 27.4358 10.2269L27.4339 10.2265L22.2589 9.0625L22.2585 9.0624C18.7659 8.27817 16.3459 12.4649 18.7734 15.0981L18.7736 15.0984L22.3674 18.9981L22.3677 18.9985C22.6232 19.2755 22.7265 19.6625 22.6435 20.0288L22.6431 20.0307L21.4791 25.2057L21.479 25.2062C20.6947 28.6989 24.8818 31.1188 27.5149 28.691L31.4147 25.0972L31.4151 25.0969C31.6921 24.8414 32.0791 24.7381 32.4454 24.8211L32.4473 24.8216L37.6224 25.9856L37.6228 25.9857C41.1154 26.7699 43.5354 22.5831 41.1079 19.9499L41.1077 19.9497L37.5139 16.0499L37.5135 16.0496C37.258 15.7726 37.1548 15.3856 37.2378 15.0192L37.2382 15.0173L38.4022 9.84234L38.4023 9.84189ZM34.061 8.19502C34.8899 7.43079 36.2108 8.19089 35.963 9.29417L34.7996 14.4668L34.7993 14.4679C34.5348 15.637 34.8634 16.8634 35.6755 17.7441L35.6758 17.7445L39.2695 21.6441L39.2697 21.6444C40.0338 22.4731 39.2741 23.7938 38.171 23.5465L38.1705 23.5464L32.9979 22.3829L32.9968 22.3827C31.8277 22.1182 30.6012 22.4468 29.7206 23.2588L29.7202 23.2592L25.8205 26.8528L25.8203 26.853C24.9915 27.6172 23.6708 26.8574 23.9181 25.7543L23.9182 25.7539L25.0817 20.5812L25.082 20.58C25.3464 19.4109 25.0178 18.1846 24.2058 17.3039L24.2055 17.3036L20.6118 13.4039L20.6116 13.4037C19.8474 12.5749 20.6074 11.2539 21.7107 11.5017L26.8834 12.6651L26.8844 12.6654C28.0536 12.9299 29.28 12.6013 30.1607 11.7892L30.1611 11.7889L34.0607 8.19524L34.061 8.19502ZM19.3145 38.4009L15.6665 37.5789C15.1835 37.4709 14.6824 37.6059 14.3194 37.9389L11.5714 40.4739C10.4884 41.4729 8.76642 40.4769 9.09042 39.0429L9.91242 35.3949C10.0204 34.9119 9.88542 34.4109 9.55242 34.0479L7.01741 31.2999C6.0184 30.2169 7.01441 28.4949 8.44841 28.8189L12.0964 29.6409C12.5794 29.7489 13.0804 29.6139 13.4434 29.2809L16.1915 26.7459C17.2745 25.7469 18.9965 26.7429 18.6725 28.1769L17.8505 31.8249C17.7425 32.3079 17.8775 32.8089 18.2105 33.1719L20.7455 35.9199C21.7445 37.0029 20.7485 38.7249 19.3145 38.4009Z" fill="var(--spectrum-global-color-gray-800, #292929)"/>
</svg>
