<svg width="48" height="48" viewBox="0 0 48 48" xmlns="http://www.w3.org/2000/svg">
<path fill-rule="evenodd" d="M23.6848 7.51659C21.6351 5.46688 18.3158 5.47092 16.2599 7.51377L16.2571 7.51659L5.99705 17.7766C3.94735 19.8263 3.95139 23.1456 5.99423 25.2015L5.99705 25.2044L9.13576 28.3431C9.18773 28.4013 9.24166 28.4584 9.29756 28.5143C10.0704 29.2872 11.0761 29.6839 12.088 29.7046C12.1113 30.7129 12.5079 31.7142 13.278 32.4842C14.053 33.2593 15.0622 33.6561 16.077 33.6747C16.0979 34.6863 16.4947 35.6917 17.2673 36.4643C18.0375 37.2346 19.0391 37.6312 20.0475 37.6543C20.0659 38.6695 20.4627 39.679 21.238 40.4543C22.8261 42.0424 25.3976 42.0424 26.9858 40.4543L32.2658 35.1743L32.2842 35.1555L42.0053 25.4343C44.055 23.3846 44.051 20.0653 42.0082 18.0094L42.0053 18.0066L31.7453 7.74657C29.6956 5.69686 26.3763 5.7009 24.3204 7.74375L24.3176 7.74657L24.1162 7.94795L23.6848 7.51659ZM25.8888 9.71085L30.2745 14.0966C31.8627 15.6847 31.8627 18.2562 30.2745 19.8443C28.6864 21.4325 26.1149 21.4325 24.5267 19.8443L20.141 15.4586L11.0653 24.5343C10.4883 25.1114 10.4555 26.0234 10.9668 26.6386L11.0648 26.7366C11.0887 26.7605 11.1115 26.7851 11.1331 26.8104C11.7175 27.3304 12.5953 27.337 13.1872 26.8302C13.2169 26.7986 13.2471 26.7674 13.278 26.7365C13.3101 26.7044 13.3435 26.6745 13.378 26.6466L15.4596 24.5745C15.9489 24.0875 16.7403 24.0893 17.2274 24.5786C17.7144 25.0679 17.7126 25.8593 17.2233 26.3464L15.0453 28.5143L15.0444 28.5153C15.0164 28.5433 14.988 28.5708 14.9594 28.5978C14.4355 29.213 14.4642 30.1349 15.0458 30.7165C15.6576 31.3283 16.6462 31.3283 17.258 30.7165C17.2889 30.6856 17.3209 30.6568 17.354 30.6298L19.4373 28.5465C19.9254 28.0584 20.7169 28.0584 21.2051 28.5465C21.6932 29.0347 21.6932 29.8261 21.2051 30.3143L19.0351 32.4843C18.4232 33.0961 18.4232 34.0847 19.0351 34.6965C19.6469 35.3084 20.6354 35.3084 21.2473 34.6965L23.3973 32.5465C23.3996 32.5442 23.402 32.5419 23.4043 32.5396C23.4105 32.5335 23.4167 32.5275 23.4229 32.5216C23.9115 32.0384 24.6992 32.04 25.1858 32.5265C25.6739 33.0147 25.6739 33.8061 25.1858 34.2943L23.0058 36.4743C22.3939 37.0861 22.3939 38.0747 23.0058 38.6865C23.6176 39.2984 24.6061 39.2984 25.218 38.6865L25.4891 38.4154L25.5076 38.3966L40.2376 23.6666C41.3074 22.5967 41.3119 20.857 40.2361 19.7729L40.2347 19.7715L29.9776 9.51433C28.9077 8.44451 27.1681 8.44 26.0839 9.51575L26.0825 9.51715L25.8888 9.71085ZM8.41449 24.0863C8.61295 23.6064 8.90731 23.1568 9.29756 22.7666L19.23 12.8341C19.2387 12.8248 19.2477 12.8157 19.2567 12.8066C19.7449 12.3184 20.5364 12.3184 21.0245 12.8066L26.2945 18.0766C26.9064 18.6884 27.8949 18.6884 28.5067 18.0766C29.1186 17.4647 29.1186 16.4762 28.5067 15.8643L23.2367 10.5943C23.2135 10.5711 23.1914 10.5472 23.1703 10.5226C23.1275 10.4897 23.0863 10.4536 23.0471 10.4144L21.9171 9.28435C20.8472 8.21449 19.1074 8.21002 18.0233 9.28589L18.022 9.28717L7.76482 19.5444C6.69488 20.6143 6.69049 22.3542 7.76658 23.4383L7.76764 23.4394L8.41449 24.0863Z" fill="var(--spectrum-global-color-gray-800, #292929)"/>
</svg>
