<svg width="96" height="96" viewBox="0 0 96 96" xmlns="http://www.w3.org/2000/svg">
<path fill-rule="evenodd" d="M32.6406 24.25C32.6406 19.8317 36.2223 16.25 40.6406 16.25H71.7628C76.1811 16.25 79.7628 19.8317 79.7628 24.25V34.8531C79.7628 39.2714 76.1811 42.8531 71.7628 42.8531H40.6406C36.2223 42.8531 32.6406 39.2714 32.6406 34.8531V31.5244H24.2363C22.0272 31.5244 20.2363 33.3153 20.2363 35.5244V60.4481C20.2363 62.6573 22.0272 64.4481 24.2363 64.4481H32.6406V61.1475C32.6406 56.7292 36.2223 53.1475 40.6406 53.1475H71.7628C76.1811 53.1475 79.7628 56.7292 79.7628 61.1475V71.7505C79.7628 76.1688 76.1811 79.7505 71.7628 79.7505H40.6406C36.2223 79.7505 32.6406 76.1688 32.6406 71.7505V68.4481H24.2363C19.8181 68.4481 16.2363 64.8664 16.2363 60.4481V35.5244C16.2363 31.1061 19.818 27.5244 24.2363 27.5244H32.6406V24.25ZM40.6406 20.25C38.4315 20.25 36.6406 22.0409 36.6406 24.25V34.8531C36.6406 37.0622 38.4315 38.8531 40.6406 38.8531H71.7628C73.972 38.8531 75.7628 37.0622 75.7628 34.8531V24.25C75.7628 22.0409 73.972 20.25 71.7628 20.25H40.6406ZM36.6406 61.1475C36.6406 58.9383 38.4315 57.1475 40.6406 57.1475H71.7628C73.972 57.1475 75.7628 58.9383 75.7628 61.1475V71.7505C75.7628 73.9597 73.972 75.7505 71.7628 75.7505H40.6406C38.4315 75.7505 36.6406 73.9597 36.6406 71.7505V61.1475Z" fill="var(--spectrum-global-color-gray-800, #292929)"/>
</svg>
