<svg width="160" height="160" viewBox="0 0 160 160" xmlns="http://www.w3.org/2000/svg">
<path fill-rule="evenodd" d="M35.9502 37.91C29.3193 37.91 23.9502 43.2791 23.9502 49.91V53.99H44.0002H135.97V49.91C135.97 43.2791 130.601 37.91 123.97 37.91H35.9502ZM23.9502 110.03V61.99H40.0002V122.03H35.9502C29.3193 122.03 23.9502 116.661 23.9502 110.03ZM97.2802 122.03H48.0002V61.99H135.97V83.64C135.97 85.8491 137.761 87.64 139.97 87.64C142.179 87.64 143.97 85.8491 143.97 83.64V49.91C143.97 38.8609 135.019 29.91 123.97 29.91H35.9502C24.9011 29.91 15.9502 38.8609 15.9502 49.91V110.03C15.9502 121.079 24.9011 130.03 35.9502 130.03H97.2802C99.4893 130.03 101.28 128.239 101.28 126.03C101.28 123.821 99.4893 122.03 97.2802 122.03ZM107.38 117.98C107.38 104.43 118.36 93.45 131.91 93.45C145.46 93.45 156.44 104.43 156.44 117.98C156.44 131.53 145.46 142.51 131.91 142.51C118.36 142.51 107.38 131.53 107.38 117.98ZM135.92 121.94H143.8C146.01 121.94 147.8 120.15 147.8 117.94C147.8 115.73 146.01 113.94 143.8 113.94H135.92V106.06C135.92 103.85 134.13 102.06 131.92 102.06C129.71 102.06 127.92 103.85 127.92 106.06V113.94H120.04C117.83 113.94 116.04 115.73 116.04 117.94C116.04 120.15 117.83 121.94 120.04 121.94H127.92V129.82C127.92 132.03 129.71 133.82 131.92 133.82C134.13 133.82 135.92 132.03 135.92 129.82V121.94Z" fill="var(--spectrum-global-color-gray-800, #292929)"/>
</svg>
