<svg width="48" height="48" viewBox="0 0 48 48" xmlns="http://www.w3.org/2000/svg">
<path fill-rule="evenodd" d="M7.96094 7.18945C7.96094 6.4991 7.40129 5.93945 6.71094 5.93945C6.02058 5.93945 5.46094 6.4991 5.46094 7.18945V41.2795C5.46094 41.9698 6.02058 42.5295 6.71094 42.5295H40.7409C41.4313 42.5295 41.9909 41.9698 41.9909 41.2795C41.9909 40.5891 41.4313 40.0295 40.7409 40.0295H7.96094V7.18945ZM12.6006 23.0195C12.6006 22.6053 12.9364 22.2695 13.3506 22.2695H15.2306C15.6448 22.2695 15.9806 22.6053 15.9806 23.0195V34.5795C15.9806 34.9938 15.6448 35.3295 15.2306 35.3295H13.3506C12.9364 35.3295 12.6006 34.9938 12.6006 34.5795V23.0195ZM13.3506 19.7695C11.5557 19.7695 10.1006 21.2246 10.1006 23.0195V34.5795C10.1006 36.3745 11.5557 37.8295 13.3506 37.8295H15.2306C17.0255 37.8295 18.4806 36.3745 18.4806 34.5795V23.0195C18.4806 21.2246 17.0255 19.7695 15.2306 19.7695H13.3506ZM34.5106 29.5995C34.0964 29.5995 33.7606 29.9353 33.7606 30.3495V34.5795C33.7606 34.9938 34.0964 35.3295 34.5106 35.3295H36.3906C36.8048 35.3295 37.1406 34.9938 37.1406 34.5795V30.3495C37.1406 29.9353 36.8048 29.5995 36.3906 29.5995H34.5106ZM31.2606 30.3495C31.2606 28.5546 32.7157 27.0995 34.5106 27.0995H36.3906C38.1855 27.0995 39.6406 28.5546 39.6406 30.3495V34.5795C39.6406 36.3745 38.1855 37.8295 36.3906 37.8295H34.5106C32.7157 37.8295 31.2606 36.3745 31.2606 34.5795V30.3495ZM23.1806 13.8995C23.1806 13.4853 23.5164 13.1495 23.9306 13.1495H25.8106C26.2248 13.1495 26.5606 13.4853 26.5606 13.8995V34.5795C26.5606 34.9938 26.2248 35.3295 25.8106 35.3295H23.9306C23.5164 35.3295 23.1806 34.9938 23.1806 34.5795V13.8995ZM23.9306 10.6495C22.1357 10.6495 20.6806 12.1046 20.6806 13.8995V34.5795C20.6806 36.3745 22.1357 37.8295 23.9306 37.8295H25.8106C27.6055 37.8295 29.0606 36.3745 29.0606 34.5795V13.8995C29.0606 12.1046 27.6055 10.6495 25.8106 10.6495H23.9306Z" fill="var(--spectrum-global-color-gray-800, #292929)"/>
</svg>
