<svg width="48" height="48" viewBox="0 0 48 48" xmlns="http://www.w3.org/2000/svg">
<path fill-rule="evenodd" d="M46.0137 12.4214C47.3446 9.7789 44.9997 6.77953 42.114 7.43375L4.33541 15.9987C1.36089 16.6731 0.612215 20.5646 3.12406 22.2946L3.71394 21.4381L3.12406 22.2946L10.4772 27.3589V37.903C10.4772 40.2532 13.2346 41.5206 15.0181 39.9899L21.1615 34.7174L27.971 39.4073C29.7189 40.6111 32.1274 39.9946 33.082 38.0991L46.0137 12.4214ZM19.0319 33.2507L12.9772 29.0807V37.903C12.9772 38.1167 13.2279 38.2318 13.39 38.0927L19.0319 33.2507ZM14.318 26.9686L29.389 37.3483C29.8884 37.6923 30.5765 37.5162 30.8492 36.9746L43.408 12.0374L14.318 26.9686ZM41.7451 10.0808L4.88817 18.4368C4.03838 18.6295 3.8244 19.7414 4.54209 20.2357L11.9802 25.3585L41.7451 10.0808Z" fill="var(--spectrum-global-color-gray-800, #292929)"/>
</svg>
