<svg width="48" height="48" viewBox="0 0 48 48" xmlns="http://www.w3.org/2000/svg">
<path fill-rule="evenodd" d="M15.1895 7.83356C12.5843 7.83356 10.4482 9.92546 10.4482 12.5356V35.5493C10.4482 38.1595 12.5843 40.2514 15.1895 40.2514H33.8097C36.4149 40.2514 38.551 38.1595 38.551 35.5493V22.0203C38.551 20.7686 38.048 19.5712 37.1573 18.6905L27.5648 9.20578C26.6746 8.32556 25.4702 7.83356 24.2172 7.83356H15.1895ZM12.9482 12.5356C12.9482 11.3327 13.9383 10.3336 15.1895 10.3336H24.2172C24.8162 10.3336 25.3878 10.5689 25.8071 10.9835L35.3995 20.4682C35.8183 20.8823 36.051 21.4409 36.051 22.0203V35.5493C36.051 36.7522 35.0609 37.7514 33.8097 37.7514H15.1895C13.9383 37.7514 12.9482 36.7522 12.9482 35.5493V12.5356ZM29.0678 24.7617C27.7968 24.7617 26.7664 23.7313 26.7664 22.4603C26.7664 21.1893 27.7968 20.1589 29.0678 20.1589C30.3388 20.1589 31.3691 21.1893 31.3691 22.4603C31.3691 23.7313 30.3388 24.7617 29.0678 24.7617ZM19.7738 25.3592C20.5317 24.0465 22.4266 24.0465 23.1845 25.3592L25.904 30.0695L27.2532 27.7325C28.0112 26.4197 29.906 26.4197 30.6639 27.7325L33.5289 32.6949C34.2869 34.0076 33.3395 35.6486 31.8236 35.6486H24.8674H17.2439C15.728 35.6486 14.7806 34.0076 15.5386 32.6949L19.7738 25.3592ZM24.4639 32.5753L21.4791 27.4055L18.1633 33.1486H24.139L24.4639 32.5753ZM30.9042 33.1486L28.9586 29.7788L27.013 33.1486H30.9042Z" fill="var(--spectrum-global-color-gray-800, #292929)"/>
</svg>
