<svg width="48" height="48" viewBox="0 0 48 48" xmlns="http://www.w3.org/2000/svg">
<path fill-rule="evenodd" d="M36.8967 7.8595C37.5869 7.86906 38.1388 8.43641 38.1292 9.1267L38.1165 10.0446L39.0398 10.0595C39.7301 10.0707 40.2807 10.6393 40.2695 11.3295C40.2584 12.0198 39.6898 12.5703 38.9995 12.5592L38.0819 12.5444L38.0692 13.4567C38.0597 14.147 37.4923 14.6988 36.802 14.6893C36.1117 14.6797 35.5599 14.1123 35.5695 13.4221L35.5822 12.5041L34.6595 12.4892C33.9693 12.4781 33.4187 11.9095 33.4299 11.2192C33.441 10.529 34.0096 9.97841 34.6998 9.98954L35.6168 10.0043L35.6295 9.09206C35.639 8.40177 36.2064 7.84993 36.8967 7.8595ZM20.4902 9.85938C20.4902 9.16902 19.9306 8.60938 19.2402 8.60938C18.5499 8.60938 17.9902 9.16902 17.9902 9.85938V12.7894C17.9902 13.4797 18.5499 14.0394 19.2402 14.0394C19.9306 14.0394 20.4902 13.4797 20.4902 12.7894V9.85938ZM14.8514 10.8852C14.4459 10.3265 13.6643 10.2022 13.1056 10.6077C12.5468 11.0132 12.4226 11.7949 12.8281 12.3536L14.5481 14.7236C14.9536 15.2823 15.7352 15.4065 16.294 15.001C16.8527 14.5955 16.9769 13.8139 16.5714 13.2552L14.8514 10.8852ZM25.6418 12.3536C26.0473 11.7949 25.9231 11.0132 25.3644 10.6077C24.8056 10.2022 24.024 10.3265 23.6185 10.8852L21.8985 13.2552C21.493 13.8139 21.6172 14.5956 22.176 15.001C22.7347 15.4065 23.5163 15.2823 23.9218 14.7236L25.6418 12.3536ZM10.8948 15.0201C10.238 14.8075 9.53317 15.1676 9.32054 15.8244C9.1079 16.4812 9.46797 17.186 10.1248 17.3986L12.9048 18.2986C13.5616 18.5112 14.2664 18.1512 14.479 17.4944C14.6916 16.8376 14.3316 16.1328 13.6748 15.9201L10.8948 15.0201ZM28.3535 17.399C29.0105 17.1871 29.3713 16.4826 29.1594 15.8256C28.9475 15.1686 28.243 14.8078 27.586 15.0197L24.796 15.9197C24.139 16.1317 23.7782 16.8361 23.9901 17.4931C24.2021 18.1501 24.9065 18.511 25.5635 18.299L28.3535 17.399ZM13.6786 22.1574C14.3347 21.9426 14.6925 21.2366 14.4777 20.5805C14.263 19.9244 13.557 19.5666 12.9009 19.7814L10.1209 20.6914C9.4648 20.9062 9.10703 21.6121 9.32179 22.2682C9.53656 22.9243 10.2425 23.2821 10.8986 23.0673L13.6786 22.1574ZM25.5635 19.7897C24.9065 19.5778 24.2021 19.9386 23.9901 20.5956C23.7782 21.2526 24.139 21.9571 24.796 22.169L27.586 23.069C28.243 23.281 28.9475 22.9201 29.1594 22.2631C29.3713 21.6061 29.0105 20.9017 28.3535 20.6897L25.5635 19.7897ZM23.9218 23.3652C23.5163 22.8064 22.7347 22.6822 22.176 23.0877C21.6172 23.4932 21.493 24.2748 21.8985 24.8336L23.6185 27.2036C24.024 27.7623 24.8056 27.8865 25.3644 27.481C25.9231 27.0755 26.0473 26.2939 25.6418 25.7352L23.9218 23.3652ZM16.5714 24.8336C16.9769 24.2749 16.8527 23.4932 16.294 23.0877C15.7352 22.6822 14.9536 22.8065 14.5481 23.3652L12.8281 25.7352C12.4226 26.2939 12.5468 27.0755 13.1056 27.481C13.6643 27.8865 14.4459 27.7623 14.8514 27.2036L16.5714 24.8336ZM20.4902 25.2893C20.4902 24.599 19.9306 24.0393 19.2402 24.0393C18.5499 24.0393 17.9902 24.599 17.9902 25.2893V28.2193C17.9902 28.9097 18.5499 29.4693 19.2402 29.4693C19.9306 29.4693 20.4902 28.9097 20.4902 28.2193V25.2893ZM33.7796 26.6281C33.7844 25.9378 33.2287 25.3742 32.5384 25.3694C31.8481 25.3646 31.2845 25.9203 31.2797 26.6106L31.2697 28.0406C31.2649 28.731 31.8206 29.2945 32.5109 29.2994C33.2013 29.3042 33.7648 28.7485 33.7696 28.0581L33.7796 26.6281ZM37.5408 30.2342C38.1399 29.8911 38.3474 29.1274 38.0044 28.5283C37.6614 27.9292 36.8976 27.7216 36.2985 28.0646L35.0585 28.7746C34.4594 29.1177 34.2519 29.8814 34.5949 30.4805C34.9379 31.0796 35.7017 31.2872 36.3008 30.9442L37.5408 30.2342ZM28.7711 28.0706C28.1753 27.7219 27.4096 27.9221 27.0609 28.5179C26.7121 29.1137 26.9124 29.8794 27.5082 30.2282L28.7382 30.9482C29.334 31.2969 30.0997 31.0966 30.4484 30.5009C30.7972 29.9051 30.5969 29.1394 30.0011 28.7906L28.7711 28.0706ZM36.3111 32.4206C35.7153 32.0719 34.9496 32.2721 34.6009 32.8679C34.2521 33.4637 34.4524 34.2294 35.0482 34.5782L36.2782 35.2982C36.874 35.6469 37.6397 35.4467 37.9884 34.8509C38.3372 34.2551 38.1369 33.4894 37.5411 33.1406L36.3111 32.4206ZM30.0008 34.5941C30.5999 34.2511 30.8074 33.4874 30.4644 32.8883C30.1214 32.2892 29.3576 32.0816 28.7585 32.4246L27.5185 33.1346C26.9194 33.4777 26.7119 34.2414 27.0549 34.8405C27.3979 35.4396 28.1617 35.6472 28.7608 35.3042L30.0008 34.5941ZM33.7796 35.3281C33.7844 34.6378 33.2287 34.0742 32.5384 34.0694C31.8481 34.0646 31.2845 34.6203 31.2797 35.3106L31.2697 36.7406C31.2649 37.431 31.8206 37.9945 32.5109 37.9994C33.2013 38.0042 33.7648 37.4485 33.7696 36.7581L33.7796 35.3281ZM12.43 34.8166C12.4395 34.1263 11.8877 33.559 11.1974 33.5494C10.5071 33.5399 9.93978 34.0917 9.93024 34.782L9.91752 35.7022L8.99775 35.6894C8.30746 35.6799 7.74013 36.2317 7.73059 36.922C7.72105 37.6123 8.2729 38.1797 8.96319 38.1892L9.88296 38.2019L9.87024 39.122C9.8607 39.8123 10.4126 40.3797 11.1028 40.3892C11.7931 40.3987 12.3605 39.8469 12.37 39.1566L12.3827 38.2365L13.3032 38.2492C13.9935 38.2587 14.5608 37.7069 14.5704 37.0166C14.5799 36.3263 14.028 35.759 13.3378 35.7494L12.4173 35.7367L12.43 34.8166Z" fill="var(--spectrum-global-color-gray-800, #292929)"/>
</svg>
