<svg width="96" height="97" viewBox="0 0 96 97" xmlns="http://www.w3.org/2000/svg">
<path fill-rule="evenodd" d="M38.0908 15.2742C47.7909 12.0933 58.1892 13.1602 64.9303 16.2015C78.7476 22.4353 83.3117 35.8231 81.2898 47.3118C79.2826 58.7171 70.5899 68.8938 57.5008 67.9882C45.3035 67.1443 38.8671 62.5336 36.272 56.607C33.7618 50.8743 35.1539 44.5568 37.1929 40.7907C42.4667 31.0503 51.4763 29.5575 57.0738 29.7353C60.4875 29.8438 62.5724 32.9346 62.2962 35.9385L59.7127 64.0314C69.0983 63.6977 75.6872 56.0689 77.3504 46.6185C79.111 36.6142 75.1598 25.2049 63.2853 19.8476C57.4547 17.2171 48.0879 16.2055 39.3372 19.075C30.7057 21.9055 22.6613 28.5084 19.1931 41.2375C16.4357 51.3581 19.6627 61.0396 25.8428 68.1978C32.0536 75.3915 41.0741 79.8321 49.5498 79.5878C50.6539 79.556 51.5748 80.4252 51.6066 81.5293C51.6385 82.6334 50.7692 83.5543 49.6651 83.5861C39.7835 83.871 29.6687 78.7501 22.8151 70.8119C15.931 62.8382 12.1647 51.8175 15.3338 40.186C19.1797 26.0708 28.2716 18.4942 38.0908 15.2742ZM55.7161 63.8109L58.313 35.5722C58.4157 34.4553 57.6693 33.7563 56.9468 33.7333C52.1091 33.5796 44.9636 34.8398 40.7104 42.6952C39.0727 45.72 38.0585 50.7145 39.9362 55.0026C41.6159 58.8387 45.8877 62.6964 55.7161 63.8109Z" fill="var(--spectrum-global-color-gray-800, #292929)"/>
</svg>
