<svg width="160" height="160" viewBox="0 0 160 160" xmlns="http://www.w3.org/2000/svg">
<path fill-rule="evenodd" d="M85.492 29.1896C83.2392 24.5901 76.7607 24.5901 74.5079 29.1896L63.8149 51.0218C61.7632 55.2108 57.7888 58.1286 53.1745 58.8042L29.2642 62.3052C24.269 63.0366 22.1887 69.2862 25.8732 72.9051L43.1749 89.8991C46.5007 93.1657 48.0111 97.8628 47.2287 102.459L43.1444 126.455C42.2701 131.592 47.5902 135.361 52.0273 133.01L73.4134 121.681C77.5358 119.497 82.4641 119.497 86.5865 121.681L107.973 133.01C112.41 135.361 117.73 131.592 116.856 126.455L112.771 102.459C111.989 97.8628 113.499 93.1657 116.825 89.8991L134.127 72.9051C137.811 69.2861 135.731 63.0366 130.736 62.3052L106.825 58.8042C102.211 58.1286 98.2367 55.2108 96.185 51.0218L85.492 29.1896ZM67.3234 25.6708C72.5025 15.0964 87.4973 15.0964 92.6765 25.6708L103.37 47.5029C104.269 49.3394 105.999 50.598 107.984 50.8886L131.895 54.3896C143.518 56.0914 148.073 70.4203 139.733 78.6125L122.431 95.6065C120.981 97.03 120.313 99.0906 120.658 101.117L124.742 125.113C126.707 136.654 114.654 145.603 104.228 140.079L82.8415 128.75C81.0615 127.807 78.9383 127.807 77.1583 128.75L55.7723 140.079C45.3455 145.603 33.2934 136.654 35.2578 125.113L39.3422 101.117C39.6871 99.0906 39.0184 97.03 37.5691 95.6065L20.2673 78.6125L23.0523 75.7772L20.2673 78.6125C11.9267 70.4203 16.482 56.0914 28.1052 54.3896L52.0156 50.8886C54.0004 50.598 55.7308 49.3394 56.6303 47.5029L67.3234 25.6708Z" fill="var(--spectrum-global-color-gray-800, #292929)"/>
</svg>
