<svg width="160" height="160" viewBox="0 0 160 160" xmlns="http://www.w3.org/2000/svg">
<path fill-rule="evenodd" d="M104.513 34.1401C108.855 36.461 112.829 39.3778 116.326 42.792C116.723 43.1801 117.115 43.5745 117.499 43.975C119.611 46.1725 121.532 48.559 123.236 51.1103C127.987 58.2206 130.911 66.3928 131.75 74.9031C131.909 76.5237 131.992 78.147 131.999 79.7677C132 79.8451 132 79.9225 132 80C132 80.0788 132 80.1577 131.999 80.2364C131.969 86.9686 130.631 93.6485 128.042 99.8995C125.502 106.031 121.82 111.602 117.208 116.326C116.809 116.734 116.404 117.136 115.992 117.531C115.027 118.456 114.026 119.345 112.988 120.197C106.378 125.622 98.5318 129.333 90.1447 131.001C86.827 131.661 83.4652 131.993 80.1067 132L80 132L79.9021 132C74.8389 131.99 69.7856 131.241 64.9052 129.761C58.0019 127.667 51.6241 124.164 46.1678 119.489L82.8284 82.8284C83.5786 82.0783 84 81.0609 84 80V28.1541C91.1637 28.7067 98.1505 30.7395 104.513 34.1401ZM74.2185 80.1247L40.5103 113.833C32.7116 104.739 28 92.9196 28 80C28 68.2588 31.8913 57.4265 38.4547 48.7223L74.2185 80.1247ZM76 71.0427V28.1516C63.4906 29.1032 52.2184 34.4809 43.7459 42.7221L76 71.0427ZM20 80C20 46.8629 46.8629 20 80 20C96.1762 20 110.857 26.4014 121.648 36.8092C122.083 37.2282 122.511 37.6537 122.932 38.0856C133.432 48.8387 139.925 63.5213 139.999 79.7203C140 79.9075 140 80.0948 139.999 80.2819C139.926 96.3208 133.559 110.873 123.241 121.596C122.806 122.048 122.363 122.494 121.914 122.932C111.138 133.454 96.4161 139.953 80.1761 140C80.0615 140 79.9468 140 79.8322 140C63.4757 139.955 48.6583 133.365 37.8608 122.712C37.7754 122.627 37.6903 122.543 37.6054 122.458L37.5736 122.426L37.5701 122.423C26.7143 111.565 20 96.5668 20 80Z" fill="var(--spectrum-global-color-gray-800, #292929)"/>
</svg>
