<svg width="48" height="48" viewBox="0 0 48 48" xmlns="http://www.w3.org/2000/svg">
<path fill-rule="evenodd" d="M12.9922 9.10938C12.9922 8.41902 12.4325 7.85938 11.7422 7.85938C11.0518 7.85938 10.4922 8.41902 10.4922 9.10938V38.8906C10.4922 39.581 11.0518 40.1406 11.7422 40.1406C12.4325 40.1406 12.9922 39.581 12.9922 38.8906L12.9922 31.2505H33.3281C35.6753 31.2505 37.5781 29.3477 37.5781 27.0005V14.0215C37.5781 11.6743 35.6753 9.77148 33.3281 9.77148H12.9922V9.10938ZM12.9922 12.2715L12.9922 28.7505H33.3281C34.2946 28.7505 35.0781 27.967 35.0781 27.0005V14.0215C35.0781 13.055 34.2946 12.2715 33.3281 12.2715H12.9922Z" fill="var(--spectrum-global-color-gray-800, #292929)"/>
</svg>
