<svg width="160" height="160" viewBox="0 0 160 160" xmlns="http://www.w3.org/2000/svg">
<path fill-rule="evenodd" d="M61.3114 27.493C61.3176 27.3816 61.3207 27.2693 61.3207 27.1562C61.3207 23.8425 58.6344 21.1562 55.3207 21.1562C52.007 21.1562 49.3207 23.8425 49.3207 27.1562C49.3207 30.47 52.007 33.1562 55.3207 33.1562C55.4319 33.1562 55.5423 33.1532 55.652 33.1473L62.2664 39.7617C55.6358 43.2772 49.9445 48.7006 45.6108 55.3831C41.212 52.6591 37.633 49.7585 34.893 47.2697C33.2577 45.7843 30.728 45.9058 29.2426 47.5411C27.7573 49.1763 27.8788 51.7061 29.5141 53.1914C32.5837 55.9797 36.6776 59.297 41.7682 62.4103C38.3978 69.8141 36.507 78.2506 36.507 87.0816C36.507 87.3726 36.5091 87.663 36.5132 87.953L25.6836 87.953C23.4745 87.953 21.6836 89.7439 21.6836 91.953C21.6836 94.1622 23.4745 95.953 25.6836 95.953L37.1503 95.953C38.2854 103.712 40.8834 110.959 44.63 117.208C41.8402 118.819 39.1688 120.917 36.8728 123.035C33.393 126.245 30.3205 129.922 28.7217 132.869C27.6683 134.811 28.3886 137.239 30.3304 138.292C32.2722 139.346 34.7003 138.625 35.7537 136.684C36.7854 134.782 39.1858 131.785 42.2967 128.916C44.5993 126.792 47.0435 124.968 49.2932 123.767C57.0572 133.017 67.8095 138.844 80.0002 138.844C92.1964 138.844 102.953 133.011 110.718 123.754C112.974 124.955 115.427 126.784 117.738 128.916C120.849 131.785 123.249 134.782 124.281 136.684C125.334 138.625 127.762 139.346 129.704 138.292C131.646 137.239 132.366 134.811 131.313 132.869C129.714 129.922 126.642 126.245 123.162 123.035C120.859 120.911 118.178 118.806 115.379 117.193C119.121 110.948 121.716 103.706 122.85 95.953L134.316 95.953C136.525 95.953 138.316 94.1622 138.316 91.953C138.316 89.7439 136.525 87.953 134.316 87.953L123.487 87.953C123.491 87.663 123.493 87.3726 123.493 87.0816C123.493 78.2594 121.606 69.831 118.242 62.4325C123.348 59.5134 127.608 56.2459 130.701 52.9815C132.22 51.3778 132.152 48.8461 130.548 47.3267C128.944 45.8074 126.412 45.8758 124.893 47.4796C122.374 50.1391 118.784 52.8947 114.407 55.4102C110.071 48.7149 104.373 43.2814 97.733 39.7612L104.339 33.1553C107.604 33.0993 110.234 30.4349 110.234 27.1562C110.234 23.8425 107.548 21.1562 104.234 21.1562C100.92 21.1562 98.2338 23.8425 98.2338 27.1562C98.2338 27.4084 98.2494 27.6569 98.2796 27.9009L89.6878 36.4927C89.6627 36.5178 89.6381 36.5431 89.6138 36.5686C86.537 35.7519 83.322 35.3193 80.0002 35.3193C76.678 35.3193 73.4626 35.7521 70.3854 36.569C70.361 36.5433 70.3363 36.5179 70.3111 36.4927L61.3114 27.493ZM48.7861 66.208C46.0707 72.3463 44.507 79.4277 44.507 87.0816C44.507 110.223 58.801 128.13 75.9999 130.562L75.9999 72.9099C65.3868 72.4939 56.2968 69.7639 48.7861 66.208ZM52.6588 59.1879C59.8456 62.5207 68.5823 64.9649 78.8184 64.9649C89.1592 64.9649 99.0156 62.5094 107.21 58.9946C100.585 49.3073 90.667 43.3193 80.0002 43.3193C69.2627 43.3193 59.2835 49.387 52.6588 59.1879ZM111.128 66.0144C103.148 69.5345 93.8227 72.0992 83.9999 72.7834L83.9999 130.562C101.199 128.13 115.493 110.223 115.493 87.0816C115.493 79.3471 113.897 72.1972 111.128 66.0144Z" fill="var(--spectrum-global-color-gray-800, #292929)"/>
</svg>
