<svg width="160" height="160" viewBox="0 0 160 160" xmlns="http://www.w3.org/2000/svg">
<path fill-rule="evenodd" d="M124.174 24.1802C126.383 24.2156 128.145 26.0348 128.11 28.2437L128.054 31.7365L131.552 31.7902C133.76 31.824 135.524 33.6421 135.49 35.851C135.456 38.0599 133.638 39.8231 131.429 39.7892L127.926 39.7355L127.87 43.2437C127.834 45.4525 126.015 47.2145 123.806 47.1792C121.597 47.1438 119.835 45.3246 119.871 43.1157L119.927 39.6129L116.429 39.5592C114.22 39.5254 112.457 37.7073 112.491 35.4984C112.525 33.2895 114.343 31.5263 116.552 31.5602L120.055 31.6139L120.111 28.1157C120.146 25.9069 121.965 24.1449 124.174 24.1802ZM66.99 30.7898C66.99 28.5807 65.1992 26.7898 62.99 26.7898C60.7809 26.7898 58.99 28.5807 58.99 30.7898V40.9298C58.99 43.1389 60.7809 44.9298 62.99 44.9298C65.1992 44.9298 66.99 43.1389 66.99 40.9298V30.7898ZM47.5466 34.5C46.2488 32.7123 43.7474 32.3151 41.9597 33.6129C40.172 34.9107 39.7748 37.412 41.0726 39.1997L47.0326 47.4097C48.3304 49.1975 50.8317 49.5947 52.6195 48.2969C54.4072 46.9991 54.8044 44.4977 53.5066 42.71L47.5466 34.5ZM84.9154 39.2116C86.2142 37.4246 85.8185 34.9231 84.0315 33.6242C82.2445 32.3254 79.7429 32.7211 78.4441 34.5081L72.4841 42.7081C71.1853 44.4951 71.581 46.9967 73.368 48.2955C75.155 49.5943 77.6565 49.1986 78.9554 47.4116L84.9154 39.2116ZM33.9953 48.9453C31.8941 48.2631 29.6377 49.4134 28.9555 51.5145C28.2733 53.6157 29.4236 55.8721 31.5247 56.5543L41.1647 59.6843C43.2659 60.3665 45.5223 59.2162 46.2045 57.1151C46.8867 55.0139 45.7364 52.7575 43.6353 52.0753L33.9953 48.9453ZM94.4553 56.5643C96.5564 55.8821 97.7067 53.6257 97.0245 51.5245C96.3423 49.4234 94.0859 48.2731 91.9847 48.9553L82.3447 52.0853C80.2436 52.7675 79.0933 55.0239 79.7755 57.1251C80.4578 59.2262 82.7141 60.3765 84.8153 59.6943L94.4553 56.5643ZM43.6341 73.0647C45.7355 72.3831 46.8865 70.1271 46.2049 68.0257C45.5233 65.9243 43.2673 64.7734 41.1659 65.4549L31.5159 68.5849C29.4145 69.2665 28.2636 71.5226 28.9451 73.6239C29.6267 75.7253 31.8828 76.8762 33.9841 76.1947L43.6341 73.0647ZM84.8153 65.4653C82.7141 64.7831 80.4578 65.9334 79.7755 68.0345C79.0933 70.1357 80.2436 72.3921 82.3447 73.0743L91.9847 76.2043C94.0859 76.8865 96.3423 75.7362 97.0245 73.6351C97.7067 71.5339 96.5564 69.2775 94.4553 68.5953L84.8153 65.4653ZM78.947 77.7399C77.6492 75.9522 75.1479 75.555 73.3601 76.8528C71.5724 78.1506 71.1752 80.6519 72.473 82.4397L78.433 90.6497C79.7308 92.4374 82.2321 92.8346 84.0199 91.5368C85.8076 90.239 86.2048 87.7377 84.907 85.9499L78.947 77.7399ZM53.4956 82.4415C54.7945 80.6546 54.3987 78.153 52.6118 76.8542C50.8248 75.5553 48.3232 75.9511 47.0244 77.7381L41.0644 85.9381C39.7655 87.725 40.1613 90.2266 41.9483 91.5254C43.7352 92.8243 46.2368 92.4285 47.5356 90.6416L53.4956 82.4415ZM66.9805 84.2197C66.9805 82.0106 65.1896 80.2197 62.9805 80.2197C60.7713 80.2197 58.9805 82.0106 58.9805 84.2197V94.3597C58.9805 96.5689 60.7713 98.3597 62.9805 98.3597C65.1896 98.3597 66.9805 96.5689 66.9805 94.3597V84.2197ZM113.02 88.826C113.029 86.6169 111.245 84.8188 109.036 84.8099C106.827 84.8009 105.029 86.5845 105.02 88.7937L105 93.7437C104.991 95.9528 106.775 97.7509 108.984 97.7598C111.193 97.7687 112.991 95.9851 113 93.776L113.02 88.826ZM95.8311 94.1224C93.9215 93.0115 91.473 93.6589 90.3621 95.5684C89.2512 97.4779 89.8986 99.9264 91.8081 101.037L96.0881 103.527C97.9976 104.638 100.446 103.991 101.557 102.081C102.668 100.172 102.021 97.7233 100.111 96.6124L95.8311 94.1224ZM126.206 101.062C128.124 99.9648 128.789 97.5211 127.692 95.6036C126.595 93.686 124.151 93.0209 122.234 94.1179L117.934 96.5779C116.016 97.6749 115.351 100.119 116.448 102.036C117.545 103.954 119.989 104.619 121.906 103.522L126.206 101.062ZM121.941 109.192C120.032 108.081 117.583 108.729 116.472 110.638C115.361 112.548 116.009 114.996 117.918 116.107L122.198 118.597C124.108 119.708 126.556 119.061 127.667 117.151C128.778 115.242 128.131 112.793 126.221 111.682L121.941 109.192ZM100.096 116.142C102.013 115.045 102.679 112.601 101.582 110.684C100.485 108.766 98.0408 108.101 96.1233 109.198L91.8233 111.658C89.9058 112.755 89.2406 115.199 90.3376 117.116C91.4346 119.034 93.8784 119.699 95.7959 118.602L100.096 116.142ZM113.02 118.976C113.029 116.767 111.245 114.969 109.036 114.96C106.827 114.951 105.029 116.734 105.02 118.944L105 123.894C104.991 126.103 106.775 127.901 108.984 127.91C111.193 127.919 112.991 126.135 113 123.926L113.02 118.976ZM39.09 117.221C39.1239 115.012 37.3607 113.194 35.1518 113.16C32.9429 113.126 31.1248 114.889 31.0909 117.098L31.0372 120.604L27.5418 120.55C25.3329 120.516 23.5148 122.279 23.4809 124.488C23.4471 126.697 25.2103 128.515 27.4192 128.549L30.9145 128.603L30.8609 132.098C30.8271 134.307 32.5903 136.125 34.7992 136.159C37.008 136.193 38.8261 134.43 38.86 132.221L38.9136 128.725L42.4192 128.779C44.628 128.813 46.4461 127.05 46.48 124.841C46.5139 122.632 44.7507 120.814 42.5418 120.78L39.0363 120.726L39.09 117.221Z" fill="var(--spectrum-global-color-gray-800, #292929)"/>
</svg>
