<svg width="48" height="48" viewBox="0 0 48 48" xmlns="http://www.w3.org/2000/svg">
<path fill-rule="evenodd" d="M25.9668 10.7301C25.9668 8.2858 23.0164 7.0563 21.2806 8.77726L15.4498 14.5583C15.3094 14.6975 15.1196 14.7757 14.9218 14.7757H10.7324C8.93749 14.7757 7.48242 16.2308 7.48242 18.0257V30.0368C7.48242 31.8317 8.9375 33.2868 10.7324 33.2868H14.9276C15.1241 33.2868 15.3128 33.3639 15.453 33.5015L21.2905 39.2312C23.0301 40.9388 25.9668 39.7063 25.9668 37.2686L25.9668 10.7301ZM23.0408 10.5526C23.0926 10.5012 23.1357 10.4858 23.1691 10.4802C23.2092 10.4733 23.2602 10.4774 23.313 10.4994C23.3657 10.5213 23.4045 10.5547 23.4279 10.588C23.4474 10.6157 23.4668 10.6571 23.4668 10.7301L23.4668 37.2686C23.4668 37.3413 23.4475 37.3827 23.428 37.4105C23.4047 37.4438 23.366 37.4771 23.3135 37.4992C23.2611 37.5212 23.2102 37.5254 23.17 37.5187C23.1366 37.5132 23.0935 37.4979 23.0417 37.4471L17.2637 31.7757L17.2637 16.2804L23.0408 10.5526ZM14.7637 17.2757L14.7637 30.7868H10.7324C10.3182 30.7868 9.98242 30.451 9.98242 30.0368V18.0257C9.98242 17.6115 10.3182 17.2757 10.7324 17.2757H14.7637ZM29.7557 16.9883C29.2041 16.5732 28.4204 16.6838 28.0053 17.2355C27.5902 17.7871 27.7009 18.5708 28.2525 18.9859C29.7668 20.1254 30.7421 21.9338 30.7421 23.9704C30.7421 26.0236 29.7508 27.845 28.2153 28.9827C27.6606 29.3937 27.5441 30.1766 27.9551 30.7313C28.3661 31.2859 29.149 31.4024 29.7037 30.9914C31.8481 29.4024 33.2421 26.8491 33.2421 23.9704C33.2421 21.1151 31.8706 18.5798 29.7557 16.9883ZM34.7579 12.4238C34.2063 12.0087 33.4226 12.1194 33.0075 12.671C32.5924 13.2226 32.7031 14.0063 33.2547 14.4214C36.1495 16.5998 38.0175 20.0604 38.0175 23.9577C38.0175 27.8868 36.1188 31.3722 33.1835 33.5472C32.6289 33.9582 32.5124 34.741 32.9234 35.2957C33.3344 35.8504 34.1172 35.9669 34.6719 35.5559C38.2161 32.9297 40.5175 28.7123 40.5175 23.9577C40.5175 19.2417 38.2533 15.0542 34.7579 12.4238Z" fill="var(--spectrum-global-color-gray-800, #292929)"/>
</svg>
