<svg width="48" height="48" viewBox="0 0 48 48" xmlns="http://www.w3.org/2000/svg">
<path fill-rule="evenodd" d="M26.1585 6.40872C25.106 5.86376 23.8544 5.86376 22.8019 6.40872L8.97075 13.5703C7.75952 14.1974 6.99902 15.4476 6.99902 16.8116V30.7001C6.99902 32.0641 7.75951 33.3142 8.97074 33.9414L22.8019 41.1029C23.8544 41.6479 25.106 41.6479 26.1585 41.1029L39.9897 33.9414C41.2009 33.3142 41.9614 32.0641 41.9614 30.7001V16.8116C41.9614 15.4476 41.2009 14.1974 39.9897 13.5703L26.1585 6.40872ZM23.9515 8.62877C24.2831 8.45707 24.6774 8.45707 25.009 8.62878L38.8402 15.7903C39.2218 15.9879 39.4614 16.3818 39.4614 16.8116V30.7001C39.4614 31.1298 39.2218 31.5237 38.8402 31.7213L25.009 38.8829C24.6774 39.0546 24.2831 39.0546 23.9515 38.8829L10.1202 31.7213C9.73863 31.5237 9.49902 31.1298 9.49902 30.7001V16.8116C9.49902 16.3818 9.73863 15.9879 10.1203 15.7903L23.9515 8.62877ZM29.7958 18.6895L29.7961 18.69L33.5353 25.166L33.5356 25.1665C34.4732 26.792 33.3043 28.826 31.4235 28.826H23.9445C22.0637 28.826 20.8948 26.792 21.8323 25.1665L21.8324 25.1664L25.5689 18.69L25.569 18.6899C26.5081 17.0619 28.8565 17.0618 29.7958 18.6895ZM27.6825 20.0292L24.0496 26.326H31.3183L27.6825 20.0292ZM20.9343 19.3209C21.5322 19.6662 21.7369 20.4307 21.3917 21.0285L17.0334 28.5759C16.6882 29.1738 15.9237 29.3786 15.3259 29.0333C14.728 28.6881 14.5232 27.9236 14.8685 27.3258L19.2268 19.7783C19.572 19.1805 20.3365 18.9757 20.9343 19.3209Z" fill="var(--spectrum-global-color-gray-800, #292929)"/>
</svg>
