<svg width="96" height="97" viewBox="0 0 96 97" xmlns="http://www.w3.org/2000/svg">
<path fill-rule="evenodd" d="M17.9077 74.0879C15.0398 69.1333 13.3591 63.4057 13.2531 57.2996C13.2433 57.2194 13.2383 57.1376 13.2383 57.0547C13.2383 56.987 13.2416 56.9202 13.2482 56.8542C13.2479 56.7978 13.2478 56.7413 13.2478 56.6848C13.2478 37.4728 28.8222 21.8984 48.0342 21.8984C56.5635 21.8984 64.3805 24.9707 70.4311 30.0668C71.2759 30.7783 71.384 32.04 70.6724 32.8849C69.9609 33.7297 68.6991 33.8378 67.8543 33.1262C67.0397 32.4401 66.1891 31.7955 65.3058 31.1957L62.6875 35.7307C62.1352 36.6873 60.912 37.0151 59.9554 36.4628C58.9989 35.9105 58.6711 34.6873 59.2234 33.7307L61.8575 29.1683C58.2534 27.354 54.2442 26.2274 50.0002 25.9602V31.2695C50.0002 32.3741 49.1048 33.2695 48.0002 33.2695C46.8957 33.2695 46.0002 32.3741 46.0002 31.2695V25.9646C41.7915 26.2391 37.8134 27.3593 34.2344 29.157L36.875 33.7307C37.4273 34.6873 37.0995 35.9105 36.1429 36.4628C35.1864 37.0151 33.9632 36.6873 33.4109 35.7307L30.7843 31.1813C27.3953 33.4779 24.4884 36.4323 22.2469 39.8611L26.6763 42.4185C27.6329 42.9707 27.9606 44.1939 27.4083 45.1505C26.8561 46.1071 25.6329 46.4348 24.6763 45.8826L20.2803 43.3446C18.5592 46.9188 17.5082 50.8765 17.2902 55.0547H22.2502C23.3548 55.0547 24.2502 55.9501 24.2502 57.0547C24.2502 58.1593 23.3548 59.0547 22.2502 59.0547H17.3376C17.6968 63.7777 19.1209 68.1993 21.3696 72.084C21.9229 73.04 21.5965 74.2635 20.6406 74.8169C19.6846 75.3702 18.4611 75.0438 17.9077 74.0879ZM80.745 44.8226C80.3684 43.7842 79.2213 43.2478 78.1829 43.6244C77.1445 44.001 76.6081 45.1481 76.9847 46.1865C77.9961 48.975 78.6165 51.9526 78.7782 55.0547H73.8086C72.704 55.0547 71.8086 55.9501 71.8086 57.0547C71.8086 58.1593 72.704 59.0547 73.8086 59.0547H78.7308C78.3715 63.7777 76.9474 68.1993 74.6988 72.084C74.1454 73.04 74.4718 74.2635 75.4277 74.8169C76.3837 75.3702 77.6073 75.0438 78.1606 74.0879C81.0486 69.0987 82.7327 63.3257 82.8172 57.1718C82.8194 57.133 82.8206 57.094 82.8206 57.0547C82.8206 57.0305 82.8201 57.0065 82.8193 56.9825C82.8201 56.8834 82.8205 56.7841 82.8205 56.6848C82.8205 52.5227 82.0887 48.5271 80.745 44.8226ZM79.5171 32.8206C78.3459 31.6493 76.4627 31.5999 75.2316 32.7081L44.842 60.0647C42.6016 62.0815 42.5102 65.5644 44.6417 67.6959C46.7732 69.8274 50.2562 69.736 52.273 67.4957L79.6296 37.106C80.7378 35.875 80.6883 33.9918 79.5171 32.8206Z" fill="var(--spectrum-global-color-gray-800, #292929)"/>
</svg>
