<svg width="160" height="160" viewBox="0 0 160 160" xmlns="http://www.w3.org/2000/svg">
<path fill-rule="evenodd" d="M79.0008 20.8008C66.1878 20.8008 55.8008 31.1878 55.8008 44.0008V72.6008C55.8008 85.4138 66.1878 95.8008 79.0008 95.8008H81.6008C94.4138 95.8008 104.801 85.4138 104.801 72.6008V44.0008C104.801 31.1878 94.4138 20.8008 81.6008 20.8008H79.0008ZM63.8008 44.0008C63.8008 35.6061 70.6061 28.8008 79.0008 28.8008H81.6008C89.9955 28.8008 96.8008 35.6061 96.8008 44.0008V72.6008C96.8008 80.9955 89.9955 87.8008 81.6008 87.8008H79.0008C70.6061 87.8008 63.8008 80.9955 63.8008 72.6008V44.0008ZM75.8008 115.576C53.3375 113.32 35.8008 94.3585 35.8008 71.3008V66.8008C35.8008 64.5916 37.5916 62.8008 39.8008 62.8008C42.0099 62.8008 43.8008 64.5916 43.8008 66.8008V71.3008C43.8008 91.4592 60.1424 107.801 80.3008 107.801C100.459 107.801 116.801 91.4592 116.801 71.3008V66.8008C116.801 64.5916 118.592 62.8008 120.801 62.8008C123.01 62.8008 124.801 64.5916 124.801 66.8008V71.3008C124.801 94.6995 106.741 113.88 83.8008 115.665V127.801H103.801C106.01 127.801 107.801 129.592 107.801 131.801C107.801 134.01 106.01 135.801 103.801 135.801H56.8008C54.5916 135.801 52.8008 134.01 52.8008 131.801C52.8008 129.592 54.5916 127.801 56.8008 127.801H75.8008V115.576Z" fill="var(--spectrum-global-color-gray-800, #292929)"/>
</svg>
