<svg width="160" height="160" viewBox="0 0 160 160" xmlns="http://www.w3.org/2000/svg">
<path fill-rule="evenodd" d="M82.2917 28.6771C80.9825 27.858 79.3248 27.86 78.0342 28.6691L35.5311 55.2679L48 63.1541V60.7062C48 54.0219 53.0412 48 59.98 48H100.02C106.959 48 112 54.0219 112 60.7062V63.1539L124.486 55.2568L82.2948 28.6791C82.2938 28.6784 82.2928 28.6778 82.2917 28.6771ZM127.98 62.5129L110.138 73.7974L110.106 73.8178L86.2142 88.6091C86.2104 88.6114 86.2067 88.6138 86.2029 88.6161C82.2963 91.0593 77.3414 91.0356 73.4549 88.5991L73.4538 88.5984L49.8742 73.8052L49.8619 73.7974L32.0195 62.5127V115.99C32.0195 122.621 37.3887 127.99 44.0195 127.99H115.98C122.609 127.99 127.98 122.612 127.98 115.99V62.5129ZM104 68.1887V60.7062C104 57.7701 101.899 56 100.02 56H59.98C58.101 56 56 57.7701 56 60.7062V68.2043L77.7042 81.8209C77.7046 81.8212 77.7049 81.8214 77.7053 81.8216C79.0148 82.642 80.6736 82.6405 81.9648 81.831L81.984 81.819L104 68.1887ZM73.7876 21.8893C77.6955 19.4407 82.6548 19.4626 86.5442 21.901L86.5515 21.9055L134.112 51.8656C135.274 52.598 135.98 53.8759 135.98 55.25V115.99C135.98 127.028 127.03 135.99 115.98 135.99H44.0195C32.9704 135.99 24.0195 127.039 24.0195 115.99V55.25C24.0195 53.8717 24.7292 52.5904 25.8976 51.8593L73.7849 21.891C73.7854 21.8906 73.7859 21.8903 73.7865 21.8899C73.7868 21.8897 73.7872 21.8895 73.7876 21.8893Z" fill="var(--spectrum-global-color-gray-800, #292929)"/>
</svg>
