<svg width="96" height="96" viewBox="0 0 96 96" xmlns="http://www.w3.org/2000/svg">
<path d="M26.3418 56V84.1462" stroke="var(--spectrum-global-color-gray-800, #292929)" stroke-width="4" stroke-linecap="round" stroke-linejoin="round"/>
<path d="M20.7129 84.1465H31.9714" stroke="var(--spectrum-global-color-gray-800, #292929)" stroke-width="4" stroke-linecap="round" stroke-linejoin="round"/>
<path d="M12.2695 56H40.4157" stroke="var(--spectrum-global-color-gray-800, #292929)" stroke-width="4" stroke-linecap="round" stroke-linejoin="round"/>
<path d="M12.2695 56V61.6292" stroke="var(--spectrum-global-color-gray-800, #292929)" stroke-width="4" stroke-linecap="round" stroke-linejoin="round"/>
<path d="M40.416 56V61.6292" stroke="var(--spectrum-global-color-gray-800, #292929)" stroke-width="4" stroke-linecap="round" stroke-linejoin="round"/>
<path fill-rule="evenodd" d="M43.125 22C43.125 18.6863 40.4387 16 37.125 16H15C11.6863 16 9 18.6863 9 22V34.75C9 35.2845 9.06989 35.8027 9.20102 36.2959L15.7593 26.1639L15.7598 26.1631C17.4194 23.5974 21.1769 23.5974 22.8367 26.1629L22.8369 26.1632L22.8373 26.1639L28.6567 35.1529L31.6627 30.608L31.6711 30.5954C33.3402 28.1129 36.9986 28.1056 38.6688 30.595L38.6712 30.5986L42.7973 36.7108C43.0097 36.0964 43.125 35.4367 43.125 34.75V22ZM19.1177 28.3366L11.7157 39.7721C12.6593 40.3904 13.7877 40.75 15 40.75H24.9548L26.2487 38.7937L19.4789 28.3367L19.4783 28.3358C19.4512 28.2938 19.4253 28.2746 19.403 28.2629C19.3763 28.249 19.3402 28.2388 19.2983 28.2388C19.2563 28.2388 19.2202 28.249 19.1936 28.2629C19.1712 28.2746 19.1454 28.2938 19.1183 28.3358L19.1177 28.3366ZM40.1473 39.9344C39.2597 40.4529 38.2271 40.75 37.125 40.75H29.7505L34.9927 32.8241C35.0817 32.6962 35.2665 32.7031 35.3474 32.8239L35.3516 32.8303L40.1473 39.9344ZM37.125 12C42.6478 12 47.125 16.4772 47.125 22V34.75C47.125 40.2728 42.6478 44.75 37.125 44.75H15C9.47715 44.75 5 40.2728 5 34.75V22C5 16.4772 9.47715 12 15 12H37.125ZM35.3853 20.7708C35.3853 22.2091 36.5512 23.375 37.9895 23.375C39.4277 23.375 40.5936 22.2091 40.5936 20.7708C40.5936 19.3326 39.4277 18.1667 37.9895 18.1667C36.5512 18.1667 35.3853 19.3326 35.3853 20.7708Z" fill="var(--spectrum-global-color-gray-800, #292929)"/>
<path d="M78.0523 69.2589L70.6746 65.0473C69.8483 64.5756 68.8141 65.1627 68.8129 66.1041L68.8027 74.5099C68.8016 75.4513 69.8344 76.0409 70.6618 75.5712L78.0497 71.377C78.8771 70.9073 78.8786 69.7305 78.0523 69.2589Z" fill="var(--spectrum-global-color-gray-800, #292929)"/>
<path d="M67.9 47.9949C66.27 47.9949 64.7 47.1249 63.81 45.7249C62.94 44.3649 62.79 42.6449 63.41 41.1149L65.81 35.1849L62.91 33.8849C61.49 33.2549 60.45 31.9449 60.11 30.3949C59.78 28.8649 60.19 27.2449 61.2 26.0649L73.53 11.7249C74.43 10.6949 75.99 9.78489 77.44 10.0449C78.97 10.1349 80.41 10.9849 81.26 12.3149C82.13 13.6749 82.28 15.3949 81.66 16.9249L79.16 23.0449L82.07 24.3249C83.5 24.9449 84.56 26.2549 84.89 27.8249C85.22 29.3749 84.81 30.9949 83.78 32.1849L71.52 46.3349C70.58 47.4149 69.3 48.0149 67.9 48.0149V47.9949ZM76.93 14.0349C76.82 14.0949 76.67 14.2049 76.55 14.3349L64.23 28.6649C64.03 28.9049 63.94 29.2349 64.01 29.5549C64.08 29.8649 64.27 30.1249 64.53 30.2349L70.96 33.1149L67.1 42.6249C66.97 42.9449 67 43.3049 67.17 43.5749C67.47 44.0349 68.11 44.1349 68.48 43.7049L80.74 29.5549C80.94 29.3149 81.03 28.9749 80.96 28.6549C80.89 28.3449 80.7 28.0949 80.44 27.9849L73.96 25.1349L77.93 15.4149C78.06 15.0949 78.04 14.7349 77.86 14.4649C77.7 14.2149 77.41 14.0449 77.14 14.0449H76.91L76.93 14.0349Z" fill="var(--spectrum-global-color-gray-800, #292929)"/>
<path d="M83.5 86.7461H62C56.49 86.7461 52 82.2561 52 76.7461V63.9961C52 58.4861 56.49 53.9961 62 53.9961H83.5C89.01 53.9961 93.5 58.4861 93.5 63.9961V76.7461C93.5 82.2561 89.01 86.7461 83.5 86.7461ZM62 57.9961C58.69 57.9961 56 60.6861 56 63.9961V76.7461C56 80.0561 58.69 82.7461 62 82.7461H83.5C86.81 82.7461 89.5 80.0561 89.5 76.7461V63.9961C89.5 60.6861 86.81 57.9961 83.5 57.9961H62Z" fill="var(--spectrum-global-color-gray-800, #292929)"/>
</svg>
