<svg width="48" height="48" viewBox="0 0 48 48" xmlns="http://www.w3.org/2000/svg">
<path fill-rule="evenodd" d="M22.7622 8.29792C19.1064 8.58213 15.8008 10.1145 13.2711 12.4694L22.7622 21.1696V8.29792ZM11.5813 14.3119C9.4939 16.9838 8.25 20.3466 8.25 24C8.25 27.9049 9.66974 31.4763 12.0234 34.229L22.1997 24.0454L11.5813 14.3119ZM11.2686 37.0555C11.2158 37.0173 11.1653 36.9745 11.1176 36.927C7.8033 33.624 5.75 29.0506 5.75 24C5.75 13.9208 13.9208 5.75 24 5.75C24.002 5.75 24.0041 5.75 24.0061 5.75001C24.0081 5.75 24.0102 5.75 24.0122 5.75C27.0116 5.75 29.9646 6.49025 32.6098 7.90511C35.2549 9.31998 37.5104 11.3658 39.1766 13.8612C40.8428 16.3566 41.8682 19.2246 42.1622 22.2113C42.4561 25.1979 42.0095 28.211 40.8619 30.9837C39.7142 33.7564 37.9009 36.2031 35.5825 38.1072C33.2641 40.0112 30.5121 41.3137 27.5704 41.8993C24.6287 42.4849 21.588 42.3354 18.7178 41.4641C15.9162 40.6136 13.3614 39.1011 11.2686 37.0555ZM25.2622 8.29976V24C25.2622 24.3314 25.1306 24.6492 24.8964 24.8836L13.8022 35.9857C15.4472 37.3891 17.367 38.4414 19.444 39.0719C21.9205 39.8237 24.5441 39.9526 27.0823 39.4474C29.6206 38.9422 31.9952 37.8183 33.9958 36.1752C35.9965 34.5321 37.5614 32.4206 38.5519 30.0276C39.5424 27.6345 39.9279 25.0339 39.6742 22.4561C39.4205 19.8784 38.5354 17.403 37.0975 15.2494C35.6595 13.0958 33.7131 11.3304 31.4306 10.1096C29.5169 9.0859 27.4164 8.47152 25.2622 8.29976Z" fill="var(--spectrum-global-color-gray-800, #292929)"/>
</svg>
