<svg width="48" height="48" viewBox="0 0 48 48" xmlns="http://www.w3.org/2000/svg">
<path fill-rule="evenodd" d="M9.48698 34.9896C7.82726 33.3299 7.82725 30.6389 9.48698 28.9792L28.9948 9.47136C30.6546 7.81163 33.3455 7.81163 35.0052 9.47136L38.5277 12.9939C40.1875 14.6536 40.1875 17.3445 38.5277 19.0043L19.0199 38.5121C17.3602 40.1718 14.6692 40.1718 13.0095 38.5121L9.48698 34.9896ZM11.2548 30.747C10.5713 31.4304 10.5713 32.5384 11.2548 33.2218L14.7773 36.7443C15.4607 37.4278 16.5687 37.4278 17.2521 36.7443L36.76 17.2365C37.4434 16.5531 37.4434 15.445 36.76 14.7616L33.2375 11.2391C32.554 10.5557 31.446 10.5557 30.7626 11.2391L29.0191 12.9826L31.0565 15.0201C31.5447 15.5083 31.5447 16.2997 31.0565 16.7879C30.5684 17.276 29.7769 17.276 29.2888 16.7879L27.2513 14.7504L24.2687 17.733L27.597 21.0613C28.0852 21.5495 28.0852 22.3409 27.597 22.8291C27.1089 23.3173 26.3174 23.3173 25.8293 22.8291L22.5009 19.5008L19.517 22.4847L21.5542 24.522C22.0424 25.0102 22.0424 25.8016 21.5542 26.2898C21.0661 26.7779 20.2746 26.7779 19.7865 26.2898L17.7492 24.2525L14.7662 27.2355L18.0949 30.5642C18.5831 31.0524 18.5831 31.8438 18.0949 32.332C17.6068 32.8201 16.8153 32.8201 16.3272 32.332L12.9984 29.0033L11.2548 30.747Z" fill="var(--spectrum-global-color-gray-800, #292929)"/>
</svg>
