<svg width="96" height="96" viewBox="0 0 96 96" xmlns="http://www.w3.org/2000/svg">
<path fill-rule="evenodd" d="M67.0918 15.0341C64.0338 11.9761 59.0981 12.5438 56.0912 15.5507L51.4772 20.1647L28.8621 29.8183C26.5071 30.8236 24.6574 32.8578 23.9022 35.2976L13.5021 68.8972C10.9162 77.2516 18.7501 85.0855 27.1045 82.4996L60.7041 72.0995C63.1439 71.3443 65.1781 69.4946 66.1834 67.1396L75.837 44.5245L80.451 39.9105C83.4579 36.9036 84.0256 31.9679 80.9676 28.9099L67.0918 15.0341ZM30.4325 33.4971L52.1598 24.2225L71.7792 43.8419L62.5046 65.5692C61.9547 66.8574 60.825 67.8749 59.5213 68.2784L25.9217 78.6784C24.0903 79.2453 22.2985 79.0201 20.8072 78.2637L41.2361 57.9178C43.0089 58.5696 45.077 58.1838 46.5004 56.7604C48.453 54.8078 48.453 51.642 46.5004 49.6894C44.5478 47.7368 41.3819 47.7368 39.4293 49.6894C37.9534 51.1653 37.5931 53.3342 38.3483 55.1485L17.9068 75.507C17.0176 73.957 16.7162 72.0412 17.3233 70.08L27.7233 36.4804C28.1268 35.1767 29.1443 34.047 30.4325 33.4971ZM77.6226 37.082L74.1494 40.5553L55.4465 21.8523L58.9197 18.3791C60.7115 16.5873 63.0933 16.6925 64.2634 17.8625L78.1392 31.7383C79.3093 32.9084 79.4144 35.2902 77.6226 37.082Z" fill="var(--spectrum-global-color-gray-800, #292929)"/>
</svg>
