<svg width="48" height="48" viewBox="0 0 48 48" xmlns="http://www.w3.org/2000/svg">
<path fill-rule="evenodd" d="M19.1524 9.23736C20.6333 8.68514 22.2011 8.40234 23.7817 8.40234L31.1631 8.40234C31.1922 8.40234 31.221 8.40333 31.2496 8.40529L33.1586 8.40529C34.0406 8.40529 35.0115 8.64551 35.7934 9.24531C36.6162 9.87653 37.1469 10.8486 37.1469 12.081C37.1469 12.4104 37.0823 12.9778 36.8303 13.5685C37.8002 14.0563 38.5316 14.9681 38.7614 16.0895C38.9549 17.0336 38.7657 17.9525 38.3113 18.7021C39.135 19.3297 39.6847 20.3018 39.7415 21.4112C39.7823 22.2071 39.5647 22.9539 39.1639 23.5727C39.9217 24.2011 40.4217 25.1324 40.4758 26.1878C40.5824 28.2676 38.9248 30.0123 36.8422 30.0123L29.251 30.0123L29.7025 31.463C30.2401 33.1904 30.5851 34.972 30.7311 36.7752L30.8123 37.7791C30.9789 39.8362 29.3543 41.5977 27.2904 41.5977C25.9286 41.5977 24.6879 40.815 24.1014 39.5859L21.4044 33.9338C21.1778 33.4589 20.9166 33.0013 20.623 32.5647L20.1515 31.8634C18.7581 29.7913 16.4248 28.5485 13.9277 28.5485L10.6445 28.5485C8.8496 28.5485 7.39453 27.0934 7.39453 25.2985L7.39453 14.3448C7.39453 12.5499 8.8496 11.0948 10.6445 11.0948L12.2321 11.0948C13.5144 11.0948 14.7864 10.8653 15.9879 10.4173L19.1524 9.23736ZM23.7817 10.9023L27.9166 10.9023C27.9452 10.9043 27.9741 10.9053 28.0032 10.9053L33.1586 10.9053C33.6228 10.9053 34.021 11.0365 34.2717 11.2289C34.4815 11.3898 34.6469 11.6306 34.6469 12.081C34.6469 12.2036 34.6134 12.4509 34.4922 12.67C34.3926 12.85 34.2224 13.0419 33.8367 13.1447C33.7971 13.1553 33.7584 13.1676 33.7208 13.1816L33.72 13.1816L33.7183 13.1816L33.7166 13.1816L33.7149 13.1816L33.7132 13.1816L33.7115 13.1816L33.7099 13.1816L33.7082 13.1816L33.7066 13.1816L33.7049 13.1816L33.7033 13.1816L33.7017 13.1816L33.7 13.1816L33.6984 13.1816L33.6968 13.1816L33.6952 13.1816L33.6936 13.1816L33.692 13.1816L33.6905 13.1816L33.6889 13.1816L33.6873 13.1816L33.6858 13.1816L33.6842 13.1816L33.6827 13.1816L33.6812 13.1816L33.6796 13.1816L33.6781 13.1816L33.6766 13.1816L33.6751 13.1816L33.6736 13.1816L33.6721 13.1816L33.6707 13.1816L33.6692 13.1816C32.9788 13.1816 32.4192 13.7413 32.4192 14.4316C32.4192 15.122 32.9788 15.6816 33.6692 15.6816L33.6707 15.6816L33.6721 15.6816L33.6736 15.6816L33.6751 15.6816L33.6766 15.6816L33.6781 15.6816L33.6796 15.6816L33.6812 15.6816L33.6827 15.6816L33.6842 15.6816L33.6858 15.6816L33.6873 15.6816L33.6889 15.6816L33.6905 15.6816L33.692 15.6816L33.6936 15.6816L33.6952 15.6816L33.6968 15.6816L33.6984 15.6816L33.7 15.6816L33.7017 15.6816L33.7033 15.6816L33.7049 15.6816L33.7066 15.6816L33.7082 15.6816L33.7099 15.6816L33.7115 15.6816L33.7132 15.6816L33.7149 15.6816L33.7166 15.6816L33.7183 15.6816L33.72 15.6816L33.7217 15.6816L33.7234 15.6816L33.7251 15.6816L33.7269 15.6816L33.7286 15.6816L33.7304 15.6816L33.7321 15.6816L33.7339 15.6816L33.7356 15.6816L33.7374 15.6816L33.7392 15.6816L33.741 15.6816L33.7428 15.6816L33.7446 15.6816L33.7464 15.6816L33.7482 15.6816L33.75 15.6816L33.7519 15.6816L33.7537 15.6816L33.7556 15.6816L33.7574 15.6816L33.7593 15.6816L33.7612 15.6816L33.763 15.6816L33.7649 15.6816L33.7668 15.6816L33.7687 15.6816L33.7706 15.6816L33.7725 15.6816L33.7744 15.6816L33.7764 15.6816L33.7783 15.6816L33.7802 15.6816L33.7822 15.6816L33.7841 15.6816L33.7861 15.6816L33.7881 15.6816L33.79 15.6816L33.792 15.6816L33.794 15.6816L33.796 15.6816L33.798 15.6816L33.8 15.6816L33.802 15.6816L33.8041 15.6816L33.8061 15.6816L33.8081 15.6816L33.8102 15.6816L33.8122 15.6816L33.8143 15.6816L33.8164 15.6816L33.8184 15.6816L33.8205 15.6816L33.8226 15.6816L33.8247 15.6816L33.8268 15.6816L33.8289 15.6816L33.831 15.6816L33.8331 15.6816L33.8352 15.6816L33.8374 15.6816L33.8395 15.6816L33.8417 15.6816L33.8438 15.6816L33.846 15.6816L33.8481 15.6816L33.8503 15.6816L33.8525 15.6816L33.8547 15.6816L33.8569 15.6816L33.8591 15.6816L33.8613 15.6816L33.8635 15.6816L33.8657 15.6816L33.8679 15.6816L33.8702 15.6816L33.8724 15.6816L33.8747 15.6816L33.8769 15.6816L33.8792 15.6816L33.8814 15.6816L33.8837 15.6816L33.886 15.6816L33.8883 15.6816L33.8906 15.6816L33.8929 15.6816L33.8952 15.6816L33.8975 15.6816L33.8998 15.6816L33.9021 15.6816L33.9044 15.6816L33.9068 15.6816L33.9091 15.6816L33.9115 15.6816L33.9138 15.6816L33.9162 15.6816L33.9186 15.6816L33.9209 15.6816L33.9233 15.6816L33.9257 15.6816L33.9281 15.6816L33.9305 15.6816L33.9329 15.6816L33.9353 15.6816L33.9377 15.6816L33.9402 15.6816L33.9426 15.6816L33.945 15.6816L33.9475 15.6816L33.9499 15.6816L33.9524 15.6816L33.9548 15.6816L33.9573 15.6816L33.9598 15.6816L33.9623 15.6816L33.9647 15.6816L33.9672 15.6816L33.9697 15.6816L33.9722 15.6816L33.9748 15.6816L33.9773 15.6816L33.9798 15.6816L33.9823 15.6816L33.9849 15.6816L33.9874 15.6816L33.99 15.6816L33.9925 15.6816L33.9951 15.6816L33.9976 15.6816L34.0002 15.6816L34.0028 15.6816L34.0054 15.6816L34.008 15.6816L34.0106 15.6816L34.0132 15.6816L34.0158 15.6816L34.0184 15.6816L34.021 15.6816L34.0236 15.6816L34.0263 15.6816L34.0289 15.6816L34.0316 15.6816L34.0342 15.6816L34.0369 15.6816L34.0395 15.6816L34.0422 15.6816L34.0449 15.6816L34.0475 15.6816L34.0502 15.6816L34.0529 15.6816L34.0556 15.6816L34.0583 15.6816L34.061 15.6816L34.0637 15.6816L34.0665 15.6816L34.0692 15.6816L34.0719 15.6816L34.0747 15.6816L34.0774 15.6816L34.0801 15.6816L34.0829 15.6816L34.0857 15.6816L34.0884 15.6816L34.0912 15.6816L34.094 15.6816L34.0968 15.6816L34.0995 15.6816L34.1023 15.6816L34.1051 15.6816L34.1079 15.6816L34.1108 15.6816L34.1136 15.6816L34.1164 15.6816L34.1192 15.6816L34.1221 15.6816L34.1249 15.6816L34.1277 15.6816L34.1306 15.6816L34.1334 15.6816L34.1363 15.6816L34.1392 15.6816L34.142 15.6816L34.1449 15.6816L34.1478 15.6816L34.1507 15.6816L34.1536 15.6816L34.1565 15.6816L34.1594 15.6816L34.1623 15.6816L34.1652 15.6816L34.1681 15.6816L34.1711 15.6816L34.174 15.6816L34.1769 15.6816L34.1799 15.6816L34.1828 15.6816L34.1858 15.6816L34.1887 15.6816L34.1917 15.6816L34.1947 15.6816L34.1976 15.6816L34.2006 15.6816L34.2036 15.6816L34.2066 15.6816L34.2096 15.6816L34.2126 15.6816L34.2156 15.6816L34.2186 15.6816L34.2216 15.6816L34.2247 15.6816L34.2277 15.6816L34.2307 15.6816L34.2338 15.6816L34.2368 15.6816L34.2398 15.6816L34.2429 15.6816L34.246 15.6816L34.249 15.6816L34.2521 15.6816L34.2552 15.6816L34.2582 15.6816L34.2613 15.6816L34.2644 15.6816L34.2675 15.6816L34.2706 15.6816L34.2737 15.6816L34.2768 15.6816L34.2799 15.6816L34.283 15.6816L34.2862 15.6816L34.2893 15.6816L34.2924 15.6816L34.2956 15.6816L34.2987 15.6816L34.3019 15.6816L34.305 15.6816L34.3082 15.6816L34.3113 15.6816L34.3145 15.6816L34.3177 15.6816L34.3209 15.6816L34.324 15.6816L34.3272 15.6816L34.3304 15.6816L34.3336 15.6816L34.3368 15.6816L34.34 15.6816L34.3432 15.6816L34.3465 15.6816L34.3497 15.6816L34.3529 15.6816L34.3561 15.6816L34.3594 15.6816L34.3626 15.6816L34.3659 15.6816L34.3691 15.6816L34.3724 15.6816L34.3756 15.6816L34.3789 15.6816L34.3822 15.6816L34.3854 15.6816L34.3887 15.6816L34.392 15.6816L34.3953 15.6816L34.3986 15.6816L34.4019 15.6816L34.4052 15.6816L34.4085 15.6816L34.4118 15.6816L34.4151 15.6816L34.4184 15.6816L34.4217 15.6816L34.4251 15.6816L34.4284 15.6816L34.4317 15.6816L34.4351 15.6816L34.4384 15.6816L34.4418 15.6816L34.4451 15.6816L34.4485 15.6816L34.4519 15.6816L34.4552 15.6816L34.4586 15.6816L34.462 15.6816L34.4654 15.6816L34.4688 15.6816L34.4722 15.6816L34.4756 15.6816L34.479 15.6816L34.4824 15.6816L34.4858 15.6816L34.4892 15.6816L34.4926 15.6816L34.496 15.6816L34.4995 15.6816L34.5029 15.6816L34.5063 15.6816L34.5098 15.6816L34.5132 15.6816L34.5166 15.6816L34.5201 15.6816L34.5236 15.6816L34.527 15.6816L34.5305 15.6816L34.534 15.6816L34.5374 15.6816L34.5409 15.6816L34.5444 15.6816L34.5479 15.6816L34.5514 15.6816L34.5549 15.6816L34.5584 15.6816L34.5619 15.6816L34.5654 15.6816L34.5689 15.6816L34.5724 15.6816L34.5759 15.6816L34.5794 15.6816L34.583 15.6816L34.5865 15.6816L34.59 15.6816L34.5936 15.6816L34.5971 15.6816L34.6007 15.6816L34.6042 15.6816L34.6078 15.6816L34.6113 15.6816L34.6149 15.6816L34.6185 15.6816L34.622 15.6816L34.6256 15.6816L34.6292 15.6816L34.6328 15.6816L34.6364 15.6816L34.64 15.6816L34.6436 15.6816L34.6472 15.6816L34.6508 15.6816L34.6544 15.6816L34.658 15.6816L34.6616 15.6816L34.6652 15.6816L34.6688 15.6816L34.6725 15.6816L34.6761 15.6816L34.6797 15.6816L34.6834 15.6816L34.687 15.6816L34.6907 15.6816L34.6943 15.6816L34.698 15.6816L34.7016 15.6816L34.7053 15.6816L34.7089 15.6816L34.7126 15.6816L34.7163 15.6816L34.72 15.6816L34.7236 15.6816L34.7273 15.6816L34.731 15.6816L34.7347 15.6816L34.7384 15.6816L34.7421 15.6816L34.7458 15.6816L34.7495 15.6816L34.7532 15.6816L34.7569 15.6816L34.7606 15.6816L34.7644 15.6816L34.7681 15.6816L34.7718 15.6816L34.7755 15.6816L34.7793 15.6816L34.783 15.6816L34.7867 15.6816L34.7905 15.6816L34.7942 15.6816L34.798 15.6816L34.8017 15.6816L34.8055 15.6816L34.8093 15.6816L34.813 15.6816L34.8168 15.6816L34.8206 15.6816L34.8243 15.6816L34.8281 15.6816L34.8319 15.6816L34.8357 15.6816L34.8395 15.6816L34.8433 15.6816L34.8471 15.6816L34.8509 15.6816L34.8547 15.6816L34.8585 15.6816L34.8623 15.6816L34.8661 15.6816L34.8699 15.6816L34.8737 15.6816L34.8775 15.6816L34.8814 15.6816L34.8852 15.6816L34.889 15.6816L34.8929 15.6816L34.8967 15.6816L34.9005 15.6816L34.9044 15.6816L34.9082 15.6816L34.9121 15.6816L34.9159 15.6816L34.9198 15.6816L34.9237 15.6816L34.9275 15.6816L34.9314 15.6816L34.9353 15.6816L34.9391 15.6816L34.943 15.6816L34.9469 15.6816L34.9508 15.6816L34.9546 15.6816L34.9585 15.6816L34.9624 15.6816L34.9663 15.6816L34.9702 15.6816L34.9741 15.6816L34.978 15.6816L34.9819 15.6816L34.9858 15.6816L34.9897 15.6816L34.9937 15.6816L34.9976 15.6816L35.0015 15.6816L35.0054 15.6816L35.0094 15.6816L35.0133 15.6816L35.0172 15.6816L35.0212 15.6816L35.0251 15.6816L35.029 15.6816L35.033 15.6816L35.0369 15.6816L35.0409 15.6816L35.0448 15.6816L35.0488 15.6816L35.0527 15.6816L35.0567 15.6816L35.0607 15.6816L35.0646 15.6816L35.0686 15.6816L35.0726 15.6816L35.0765 15.6816L35.0805 15.6816L35.0845 15.6816L35.0885 15.6816L35.0925 15.6816L35.0965 15.6816L35.1005 15.6816L35.1044 15.6816L35.1084 15.6816L35.1124 15.6816L35.1164 15.6816L35.1204 15.6816L35.1245 15.6816L35.1285 15.6816L35.1325 15.6816L35.1365 15.6816L35.1405 15.6816L35.1445 15.6816L35.1485 15.6816L35.1526 15.6816L35.1566 15.6816L35.1606 15.6816L35.1647 15.6816L35.1687 15.6816L35.1727 15.6816L35.1768 15.6816L35.1808 15.6816L35.1849 15.6816L35.1889 15.6816L35.193 15.6816L35.197 15.6816C35.7377 15.6816 36.2038 16.0619 36.3123 16.5915C36.457 17.2974 35.9177 17.9584 35.1971 17.9584L34.6483 17.9584C33.9579 17.9584 33.3983 18.5181 33.3983 19.2084C33.3983 19.8988 33.9579 20.4584 34.6483 20.4584L35.1971 20.4584C35.2869 20.4584 35.3757 20.4552 35.4636 20.4489C35.5157 20.4556 35.5689 20.459 35.6229 20.459L35.6236 20.459L35.6242 20.459L35.6249 20.459L35.6256 20.459L35.6262 20.459L35.6269 20.459L35.6275 20.459L35.6282 20.459L35.6289 20.459L35.6295 20.459L35.6302 20.459L35.6309 20.459L35.6315 20.459L35.6322 20.459L35.6329 20.459L35.6335 20.459L35.6342 20.459L35.6349 20.459L35.6356 20.459L35.6362 20.459L35.6369 20.459L35.6376 20.459L35.6383 20.459L35.639 20.459L35.6397 20.459L35.6403 20.459L35.641 20.459L35.6417 20.459L35.6424 20.459L35.6431 20.459L35.6438 20.459L35.6445 20.459L35.6452 20.459L35.6459 20.459L35.6466 20.459L35.6473 20.459L35.648 20.459L35.6487 20.459L35.6494 20.459L35.6501 20.459L35.6508 20.459L35.6515 20.459L35.6522 20.459L35.6529 20.459L35.6536 20.459L35.6543 20.459L35.655 20.459L35.6557 20.459L35.6564 20.459L35.6571 20.459L35.6579 20.459L35.6586 20.459L35.6593 20.459L35.66 20.459L35.6607 20.459L35.6615 20.459L35.6622 20.459L35.6629 20.459L35.6636 20.459L35.6644 20.459L35.6651 20.459L35.6658 20.459L35.6665 20.459L35.6673 20.459L35.668 20.459L35.6687 20.459L35.6695 20.459L35.6702 20.459L35.671 20.459L35.6717 20.459L35.6724 20.459L35.6732 20.459L35.6739 20.459L35.6747 20.459L35.6754 20.459L35.6762 20.459L35.6769 20.459L35.6776 20.459L35.6784 20.459L35.6791 20.459L35.6799 20.459L35.6807 20.459L35.6814 20.459L35.6822 20.459L35.6829 20.459L35.6837 20.459L35.6844 20.459L35.6852 20.459L35.686 20.459L35.6867 20.459L35.6875 20.459L35.6883 20.459L35.689 20.459L35.6898 20.459L35.6906 20.459L35.6913 20.459L35.6921 20.459L35.6929 20.459L35.6936 20.459L35.6944 20.459L35.6952 20.459L35.696 20.459L35.6968 20.459L35.6975 20.459L35.6983 20.459L35.6991 20.459L35.6999 20.459L35.7007 20.459L35.7015 20.459L35.7022 20.459L35.703 20.459L35.7038 20.459L35.7046 20.459L35.7054 20.459L35.7062 20.459L35.707 20.459L35.7078 20.459L35.7086 20.459L35.7094 20.459L35.7102 20.459L35.711 20.459L35.7118 20.459L35.7126 20.459L35.7134 20.459L35.7142 20.459L35.715 20.459L35.7158 20.459L35.7166 20.459L35.7174 20.459L35.7182 20.459L35.719 20.459L35.7199 20.459L35.7207 20.459L35.7215 20.459L35.7223 20.459L35.7231 20.459L35.7239 20.459L35.7248 20.459L35.7256 20.459L35.7264 20.459L35.7272 20.459L35.7281 20.459L35.7289 20.459L35.7297 20.459L35.7305 20.459L35.7314 20.459L35.7322 20.459L35.733 20.459L35.7339 20.459L35.7347 20.459L35.7355 20.459L35.7364 20.459L35.7372 20.459L35.738 20.459L35.7389 20.459L35.7397 20.459L35.7406 20.459L35.7414 20.459L35.7422 20.459L35.7431 20.459L35.7439 20.459L35.7448 20.459L35.7456 20.459L35.7465 20.459L35.7473 20.459L35.7482 20.459L35.749 20.459L35.7499 20.459L35.7508 20.459L35.7516 20.459L35.7525 20.459L35.7533 20.459L35.7542 20.459L35.7551 20.459L35.7559 20.459L35.7568 20.459L35.7576 20.459L35.7585 20.459L35.7594 20.459L35.7602 20.459L35.7611 20.459L35.762 20.459L35.7629 20.459L35.7637 20.459L35.7646 20.459L35.7655 20.459L35.7664 20.459L35.7672 20.459L35.7681 20.459L35.769 20.459L35.7699 20.459L35.7708 20.459L35.7716 20.459L35.7725 20.459L35.7734 20.459L35.7743 20.459L35.7752 20.459L35.7761 20.459L35.777 20.459L35.7779 20.459L35.7788 20.459L35.7796 20.459L35.7805 20.459L35.7814 20.459L35.7823 20.459L35.7832 20.459L35.7841 20.459L35.785 20.459L35.7859 20.459L35.7868 20.459L35.7877 20.459L35.7886 20.459L35.7895 20.459L35.7905 20.459L35.7914 20.459L35.7923 20.459L35.7932 20.459L35.7941 20.459L35.795 20.459L35.7959 20.459L35.7968 20.459L35.7978 20.459L35.7987 20.459L35.7996 20.459L35.8005 20.459L35.8014 20.459L35.8023 20.459L35.8033 20.459L35.8042 20.459L35.8051 20.459L35.806 20.459L35.807 20.459L35.8079 20.459L35.8088 20.459L35.8098 20.459L35.8107 20.459L35.8116 20.459L35.8126 20.459L35.8135 20.459L35.8144 20.459L35.8154 20.459L35.8163 20.459L35.8172 20.459L35.8182 20.459L35.8191 20.459L35.8201 20.459L35.821 20.459L35.822 20.459L35.8229 20.459L35.8238 20.459L35.8248 20.459L35.8257 20.459L35.8267 20.459L35.8276 20.459L35.8286 20.459L35.8295 20.459L35.8305 20.459L35.8315 20.459L35.8324 20.459L35.8334 20.459L35.8343 20.459L35.8353 20.459L35.8363 20.459L35.8372 20.459L35.8382 20.459L35.8391 20.459L35.8401 20.459L35.8411 20.459L35.842 20.459L35.843 20.459L35.844 20.459L35.845 20.459L35.8459 20.459L35.8469 20.459L35.8479 20.459L35.8488 20.459L35.8498 20.459L35.8508 20.459L35.8518 20.459L35.8528 20.459L35.8537 20.459L35.8547 20.459L35.8557 20.459L35.8567 20.459L35.8577 20.459L35.8587 20.459L35.8596 20.459L35.8606 20.459L35.8616 20.459L35.8626 20.459L35.8636 20.459L35.8646 20.459L35.8656 20.459L35.8666 20.459L35.8676 20.459L35.8686 20.459L35.8696 20.459L35.8706 20.459L35.8716 20.459L35.8726 20.459L35.8736 20.459L35.8746 20.459L35.8756 20.459L35.8766 20.459L35.8776 20.459L35.8786 20.459L35.8796 20.459L35.8806 20.459L35.8816 20.459L35.8826 20.459L35.8836 20.459L35.8847 20.459L35.8857 20.459L35.8867 20.459L35.8877 20.459L35.8887 20.459L35.8897 20.459L35.8908 20.459L35.8918 20.459L35.8928 20.459L35.8938 20.459L35.8948 20.459L35.8959 20.459L35.8969 20.459L35.8979 20.459L35.899 20.459L35.9 20.459L35.901 20.459L35.902 20.459L35.9031 20.459L35.9041 20.459L35.9051 20.459L35.9062 20.459L35.9072 20.459L35.9082 20.459L35.9093 20.459L35.9103 20.459L35.9114 20.459L35.9124 20.459L35.9135 20.459L35.9145 20.459L35.9155 20.459L35.9166 20.459L35.9176 20.459L35.9187 20.459L35.9197 20.459L35.9208 20.459L35.9218 20.459L35.9229 20.459L35.9239 20.459L35.925 20.459L35.926 20.459L35.9271 20.459L35.9282 20.459L35.9292 20.459L35.9303 20.459L35.9313 20.459L35.9324 20.459L35.9335 20.459L35.9345 20.459L35.9356 20.459L35.9366 20.459L35.9377 20.459L35.9388 20.459L35.9398 20.459L35.9409 20.459L35.942 20.459L35.9431 20.459L35.9441 20.459L35.9452 20.459L35.9463 20.459L35.9473 20.459L35.9484 20.459L35.9495 20.459L35.9506 20.459L35.9517 20.459L35.9527 20.459L35.9538 20.459L35.9549 20.459L35.956 20.459L35.9571 20.459L35.9582 20.459L35.9592 20.459L35.9603 20.459L35.9614 20.459L35.9625 20.459L35.9636 20.459L35.9647 20.459L35.9658 20.459L35.9669 20.459L35.968 20.459L35.9691 20.459L35.9702 20.459L35.9713 20.459L35.9724 20.459L35.9735 20.459L35.9746 20.459L35.9757 20.459L35.9768 20.459L35.9779 20.459L35.979 20.459L35.9801 20.459L35.9812 20.459L35.9823 20.459L35.9834 20.459L35.9845 20.459L35.9856 20.459L35.9867 20.459L35.9878 20.459L35.9889 20.459L35.9901 20.459L35.9912 20.459L35.9923 20.459L35.9934 20.459L35.9945 20.459L35.9956 20.459L35.9968 20.459L35.9979 20.459L35.999 20.459L36.0001 20.459L36.0013 20.459L36.0024 20.459L36.0035 20.459L36.0046 20.459L36.0058 20.459L36.0069 20.459L36.008 20.459L36.0091 20.459L36.0103 20.459L36.0114 20.459L36.0125 20.459L36.0137 20.459L36.0148 20.459L36.0159 20.459L36.0171 20.459L36.0182 20.459L36.0194 20.459L36.0205 20.459L36.0216 20.459L36.0228 20.459L36.0239 20.459L36.0251 20.459L36.0262 20.459L36.0274 20.459L36.0285 20.459L36.0297 20.459L36.0308 20.459L36.032 20.459L36.0331 20.459L36.0343 20.459L36.0354 20.459L36.0366 20.459L36.0377 20.459L36.0389 20.459L36.04 20.459L36.0412 20.459L36.0424 20.459L36.0435 20.459L36.0447 20.459L36.0458 20.459L36.047 20.459L36.0482 20.459L36.0493 20.459L36.0505 20.459L36.0517 20.459L36.0528 20.459L36.054 20.459L36.0552 20.459L36.0563 20.459L36.0575 20.459L36.0587 20.459L36.0598 20.459L36.061 20.459L36.0622 20.459L36.0634 20.459L36.0645 20.459L36.0657 20.459L36.0669 20.459L36.0681 20.459L36.0693 20.459L36.0704 20.459L36.0716 20.459L36.0728 20.459L36.074 20.459L36.0752 20.459L36.0764 20.459L36.0775 20.459L36.0787 20.459L36.0799 20.459L36.0811 20.459L36.0823 20.459L36.0835 20.459L36.0847 20.459L36.0859 20.459L36.0871 20.459L36.0883 20.459L36.0895 20.459L36.0907 20.459L36.0919 20.459L36.0931 20.459L36.0943 20.459L36.0955 20.459L36.0967 20.459L36.0979 20.459L36.0991 20.459L36.1003 20.459L36.1015 20.459L36.1027 20.459L36.1039 20.459L36.1051 20.459L36.1063 20.459L36.1075 20.459C36.7138 20.459 37.2138 20.9341 37.2448 21.5391C37.2778 22.1825 36.7712 22.7234 36.13 22.7356L36.129 22.7356L36.1266 22.7356L36.1242 22.7356L36.1218 22.7356L36.1194 22.7356L36.117 22.7356L36.1146 22.7356L36.1122 22.7356L36.1098 22.7356L36.1074 22.7356L36.1051 22.7356L36.1027 22.7356L36.1003 22.7356L36.0979 22.7356L36.0955 22.7356L36.0932 22.7356L36.0908 22.7356L36.0884 22.7356L36.0861 22.7356L36.0837 22.7356L36.0813 22.7356L36.079 22.7356L36.0766 22.7356L36.0743 22.7356L36.0719 22.7356L36.0696 22.7356L36.0672 22.7356L36.0649 22.7356L36.0626 22.7356L36.0602 22.7356L36.0579 22.7356L36.0556 22.7356L36.0532 22.7356L36.0509 22.7356L36.0486 22.7356L36.0463 22.7356L36.044 22.7356L36.0416 22.7356L36.0393 22.7356L36.037 22.7356L36.0347 22.7356L36.0324 22.7356L36.0301 22.7356L36.0278 22.7356L36.0255 22.7356L36.0232 22.7356L36.0209 22.7356L36.0186 22.7356L36.0164 22.7356L36.0141 22.7356L36.0118 22.7356L36.0095 22.7356L36.0072 22.7356L36.005 22.7356L36.0027 22.7356L36.0004 22.7356L35.9982 22.7356L35.9959 22.7356L35.9936 22.7356L35.9914 22.7356L35.9891 22.7356L35.9869 22.7356L35.9846 22.7356L35.9824 22.7356L35.9801 22.7356L35.9779 22.7356L35.9757 22.7356L35.9734 22.7356L35.9712 22.7356L35.969 22.7356L35.9667 22.7356L35.9645 22.7356L35.9623 22.7356L35.9601 22.7356L35.9578 22.7356L35.9556 22.7356L35.9534 22.7356L35.9512 22.7356L35.949 22.7356L35.9468 22.7356L35.9446 22.7356L35.9424 22.7356L35.9402 22.7356L35.938 22.7356L35.9358 22.7356L35.9336 22.7356L35.9314 22.7356L35.9292 22.7356L35.9271 22.7356L35.9249 22.7356L35.9227 22.7356L35.9205 22.7356L35.9183 22.7356L35.9162 22.7356L35.914 22.7356L35.9118 22.7356L35.9097 22.7356L35.9075 22.7356L35.9054 22.7356L35.9032 22.7356L35.9011 22.7356L35.8989 22.7356L35.8968 22.7356L35.8946 22.7356L35.8925 22.7356L35.8903 22.7356L35.8882 22.7356L35.8861 22.7356L35.8839 22.7356L35.8818 22.7356L35.8797 22.7356L35.8776 22.7356L35.8754 22.7356L35.8733 22.7356L35.8712 22.7356L35.8691 22.7356L35.867 22.7356L35.8649 22.7356L35.8628 22.7356L35.8607 22.7356L35.8586 22.7356L35.8565 22.7356L35.8544 22.7356L35.8523 22.7356L35.8502 22.7356L35.8481 22.7356L35.846 22.7356L35.8439 22.7356L35.8418 22.7356L35.8398 22.7356L35.8377 22.7356L35.8356 22.7356L35.8335 22.7356L35.8315 22.7356L35.8294 22.7356L35.8273 22.7356L35.8253 22.7356L35.8232 22.7356L35.8212 22.7356L35.8191 22.7356L35.8171 22.7356L35.815 22.7356L35.813 22.7356L35.8109 22.7356L35.8089 22.7356L35.8069 22.7356L35.8048 22.7356L35.8028 22.7356L35.8008 22.7356L35.7987 22.7356L35.7967 22.7356L35.7947 22.7356L35.7927 22.7356L35.7906 22.7356L35.7886 22.7356L35.7866 22.7356L35.7846 22.7356L35.7826 22.7356L35.7806 22.7356L35.7786 22.7356L35.7766 22.7356L35.7746 22.7356L35.7726 22.7356L35.7706 22.7356L35.7686 22.7356L35.7666 22.7356L35.7646 22.7356L35.7626 22.7356L35.7607 22.7356L35.7587 22.7356L35.7567 22.7356L35.7547 22.7356L35.7528 22.7356L35.7508 22.7356L35.7488 22.7356L35.7469 22.7356L35.7449 22.7356L35.743 22.7356L35.741 22.7356L35.739 22.7356L35.7371 22.7356L35.7351 22.7356L35.7332 22.7356L35.7313 22.7356L35.7293 22.7356L35.7274 22.7356L35.7254 22.7356L35.7235 22.7356L35.7216 22.7356L35.7196 22.7356L35.7177 22.7356L35.7158 22.7356L35.7139 22.7356L35.712 22.7356L35.71 22.7356L35.7081 22.7356L35.7062 22.7356L35.7043 22.7356L35.7024 22.7356L35.7005 22.7356L35.6986 22.7356L35.6967 22.7356L35.6948 22.7356L35.6929 22.7356L35.691 22.7356L35.6891 22.7356L35.6872 22.7356L35.6853 22.7356L35.6835 22.7356L35.6816 22.7356L35.6797 22.7356L35.6778 22.7356L35.676 22.7356L35.6741 22.7356L35.6722 22.7356L35.6704 22.7356L35.6685 22.7356L35.6666 22.7356L35.6648 22.7356L35.6629 22.7356L35.6611 22.7356L35.6592 22.7356L35.6574 22.7356L35.6555 22.7356L35.6537 22.7356L35.6518 22.7356L35.65 22.7356L35.6482 22.7356L35.6463 22.7356L35.6445 22.7356L35.6427 22.7356L35.6408 22.7356L35.639 22.7356L35.6372 22.7356L35.6354 22.7356L35.6336 22.7356L35.6317 22.7356L35.6299 22.7356L35.6281 22.7356L35.6263 22.7356L35.6245 22.7356L35.6227 22.7356L35.6209 22.7356L35.6191 22.7356L35.6173 22.7356L35.6155 22.7356L35.6137 22.7356L35.6119 22.7356L35.6102 22.7356L35.6084 22.7356L35.6066 22.7356L35.6048 22.7356L35.603 22.7356L35.6013 22.7356L35.5995 22.7356L35.5764 22.7358L35.3782 22.7358C34.6878 22.7358 34.1282 23.2954 34.1282 23.9858C34.1282 24.6761 34.6878 25.2358 35.3782 25.2358L36.1079 25.2358L36.1474 25.2356L36.1484 25.2356L36.1508 25.2356L36.1533 25.2356L36.1557 25.2356L36.1581 25.2356L36.1606 25.2356L36.163 25.2356L36.1655 25.2356L36.1679 25.2356L36.1704 25.2356L36.1728 25.2356L36.1753 25.2356L36.1778 25.2356L36.1802 25.2356L36.1827 25.2356L36.1852 25.2356L36.1876 25.2356L36.1901 25.2356L36.1926 25.2356L36.1951 25.2356L36.1976 25.2356L36.2 25.2356L36.2025 25.2356L36.205 25.2356L36.2075 25.2356L36.21 25.2356L36.2125 25.2356L36.215 25.2356L36.2175 25.2356L36.22 25.2356L36.2225 25.2356L36.2251 25.2356L36.2276 25.2356L36.2301 25.2356L36.2326 25.2356L36.2351 25.2356L36.2377 25.2356L36.2402 25.2356L36.2427 25.2356L36.2453 25.2356L36.2478 25.2356L36.2503 25.2356L36.2529 25.2356L36.2554 25.2356L36.258 25.2356L36.2605 25.2356L36.2631 25.2356L36.2656 25.2356L36.2682 25.2356L36.2708 25.2356L36.2733 25.2356L36.2759 25.2356L36.2785 25.2356L36.281 25.2356L36.2836 25.2356L36.2862 25.2356L36.2888 25.2356L36.2913 25.2356L36.2939 25.2356L36.2965 25.2356L36.2991 25.2356L36.3017 25.2356L36.3043 25.2356L36.3069 25.2356L36.3095 25.2356L36.3121 25.2356L36.3147 25.2356L36.3173 25.2356L36.3199 25.2356L36.3226 25.2356L36.3252 25.2356L36.3278 25.2356L36.3304 25.2356L36.333 25.2356L36.3357 25.2356L36.3383 25.2356L36.3409 25.2356L36.3436 25.2356L36.3462 25.2356L36.3489 25.2356L36.3515 25.2356L36.3542 25.2356L36.3568 25.2356L36.3595 25.2356L36.3621 25.2356L36.3648 25.2356L36.3674 25.2356L36.3701 25.2356L36.3728 25.2356L36.3754 25.2356L36.3781 25.2356L36.3808 25.2356L36.3835 25.2356L36.3862 25.2356L36.3888 25.2356L36.3915 25.2356L36.3942 25.2356L36.3969 25.2356L36.3996 25.2356L36.4023 25.2356L36.405 25.2356L36.4077 25.2356L36.4104 25.2356L36.4131 25.2356L36.4158 25.2356L36.4186 25.2356L36.4213 25.2356L36.424 25.2356L36.4267 25.2356L36.4294 25.2356L36.4322 25.2356L36.4349 25.2356L36.4376 25.2356L36.4404 25.2356L36.4431 25.2356L36.4459 25.2356L36.4486 25.2356L36.4513 25.2356L36.4541 25.2356L36.4569 25.2356L36.4596 25.2356L36.4624 25.2356L36.4651 25.2356L36.4679 25.2356L36.4707 25.2356L36.4734 25.2356L36.4762 25.2356L36.479 25.2356L36.4818 25.2356L36.4845 25.2356L36.4873 25.2356L36.4901 25.2356L36.4929 25.2356L36.4957 25.2356L36.4985 25.2356L36.5013 25.2356L36.5041 25.2356L36.5069 25.2356L36.5097 25.2356L36.5125 25.2356L36.5153 25.2356L36.5181 25.2356L36.521 25.2356L36.5238 25.2356L36.5266 25.2356L36.5294 25.2356L36.5322 25.2356L36.5351 25.2356L36.5379 25.2356L36.5408 25.2356L36.5436 25.2356L36.5464 25.2356L36.5493 25.2356L36.5521 25.2356L36.555 25.2356L36.5578 25.2356L36.5607 25.2356L36.5636 25.2356L36.5664 25.2356L36.5693 25.2356L36.5721 25.2356L36.575 25.2356L36.5779 25.2356L36.5808 25.2356L36.5836 25.2356L36.5865 25.2356L36.5894 25.2356L36.5923 25.2356L36.5952 25.2356L36.5981 25.2356L36.601 25.2356L36.6039 25.2356L36.6068 25.2356L36.6097 25.2356L36.6126 25.2356L36.6155 25.2356L36.6184 25.2356L36.6213 25.2356L36.6243 25.2356L36.6272 25.2356L36.6301 25.2356L36.633 25.2356L36.636 25.2356L36.6389 25.2356L36.6418 25.2356L36.6448 25.2356L36.6477 25.2356L36.6507 25.2356L36.6536 25.2356L36.6566 25.2356L36.6595 25.2356L36.6625 25.2356L36.6654 25.2356L36.6684 25.2356L36.6713 25.2356L36.6743 25.2356L36.6773 25.2356L36.6803 25.2356L36.6832 25.2356L36.6862 25.2356L36.6892 25.2356L36.6922 25.2356L36.6952 25.2356L36.6982 25.2356L36.7011 25.2356L36.7041 25.2356L36.7071 25.2356L36.7101 25.2356L36.7131 25.2356L36.7162 25.2356L36.7192 25.2356L36.7222 25.2356L36.7252 25.2356L36.7282 25.2356L36.7312 25.2356L36.7343 25.2356L36.7373 25.2356L36.7403 25.2356L36.7434 25.2356L36.7464 25.2356L36.7494 25.2356L36.7525 25.2356L36.7555 25.2356L36.7586 25.2356L36.7616 25.2356L36.7647 25.2356L36.7677 25.2356L36.7708 25.2356L36.7738 25.2356L36.7769 25.2356L36.78 25.2356L36.783 25.2356L36.7861 25.2356L36.7892 25.2356L36.7923 25.2356L36.7954 25.2356L36.7984 25.2356L36.8015 25.2356L36.8046 25.2356L36.8077 25.2356L36.8108 25.2356L36.8139 25.2356L36.817 25.2356L36.8201 25.2356L36.8232 25.2356L36.8263 25.2356L36.8295 25.2356L36.8326 25.2356L36.8357 25.2356L36.8388 25.2356L36.8419 25.2356C37.4482 25.2356 37.9481 25.7106 37.9791 26.3157C38.0124 26.9664 37.4938 27.5123 36.8422 27.5123L28.8272 27.5123C27.3521 27.5123 26.2996 28.9422 26.738 30.3506L27.3154 32.2059C27.7983 33.7574 28.1081 35.3574 28.2392 36.977L28.3205 37.9808C28.3692 38.5825 27.8941 39.0977 27.2904 39.0977C26.8921 39.0977 26.5293 38.8687 26.3577 38.5093L23.6607 32.8571C23.3814 32.2718 23.0595 31.7078 22.6976 31.1697L22.2261 30.4684C20.5432 27.9657 17.8319 26.3704 14.8616 26.0921L14.8616 13.3312C15.5408 13.1937 16.2095 13.0028 16.8614 12.7598L20.0258 11.5798C21.2273 11.1318 22.4993 10.9023 23.7817 10.9023ZM12.3616 13.5941L12.3616 26.0485L10.6445 26.0485C10.2303 26.0485 9.89453 25.7127 9.89453 25.2985L9.89453 14.3448C9.89453 13.9306 10.2303 13.5948 10.6445 13.5948L12.2321 13.5948C12.2752 13.5948 12.3184 13.5946 12.3616 13.5941Z" fill="var(--spectrum-global-color-gray-800, #292929)"/>
</svg>
