<svg width="96" height="96" viewBox="0 0 96 96" xmlns="http://www.w3.org/2000/svg">
<path d="M48.0002 32.76C49.1048 32.76 50.0002 33.6554 50.0002 34.76V56.97C50.0002 58.0746 49.1048 58.97 48.0002 58.97C46.8957 58.97 46.0002 58.0746 46.0002 56.97V34.76C46.0002 33.6554 46.8957 32.76 48.0002 32.76Z" fill="var(--spectrum-global-color-gray-800, #292929)"/>
<path d="M51.0002 67.24C51.0002 68.8968 49.6571 70.24 48.0002 70.24C46.3434 70.24 45.0002 68.8968 45.0002 67.24C45.0002 65.5831 46.3434 64.24 48.0002 64.24C49.6571 64.24 51.0002 65.5831 51.0002 67.24Z" fill="var(--spectrum-global-color-gray-800, #292929)"/>
<path fill-rule="evenodd" d="M41.2362 18.6033C44.4078 13.5179 51.9106 13.6 54.9422 18.8497L84.3222 69.7397C87.4034 75.075 83.5477 81.7399 77.3903 81.7399H18.6203C12.463 81.7399 8.6073 75.0752 11.6882 69.7399L41.0682 18.8499C41.1185 18.7629 41.1747 18.6805 41.2362 18.6033ZM51.4782 20.8498C49.938 18.1831 46.0923 18.1832 44.5522 20.85C44.508 20.9267 44.459 20.9997 44.4059 21.0689L15.1524 71.7398C13.6135 74.4045 15.5377 77.7399 18.6203 77.7399H77.3903C80.4729 77.7399 82.3972 74.4047 80.8583 71.74L51.4782 20.8498Z" fill="var(--spectrum-global-color-gray-800, #292929)"/>
</svg>
