<svg width="96" height="97" viewBox="0 0 96 97" xmlns="http://www.w3.org/2000/svg">
<path fill-rule="evenodd" d="M44.1264 18.9564C41.8474 20.6921 40.2588 23.4197 39.3472 25.9255L36.0148 36.783H53.1979C53.9253 36.783 54.5954 37.178 54.9477 37.8144L61.7234 50.055C66.3038 45.4781 70.9585 40.829 74.4439 37.3483C75.2255 36.5678 76.4918 36.5687 77.2724 37.3503C78.0529 38.1318 78.052 39.3982 77.2704 40.1787C73.5789 43.8651 68.5759 48.8623 63.7387 53.6958L71.2701 67.3014C71.805 68.2678 71.4553 69.4849 70.4889 70.0198C69.5225 70.5548 68.3054 70.205 67.7705 69.2386L60.7951 56.6375L58.8248 58.6069C55.7642 61.6663 53.0117 64.419 51.0183 66.415C50.0215 67.4131 49.2152 68.2213 48.6554 68.7837C48.3752 69.0652 48.158 69.2838 48.0099 69.4335C47.9355 69.5088 47.8808 69.5644 47.845 69.601L47.8246 69.622C47.1382 70.3731 45.9804 70.4941 45.1497 69.871C44.266 69.2083 44.0869 67.9547 44.7497 67.071C44.8007 67.003 44.8469 66.9511 44.8533 66.9439L44.8534 66.9438L44.854 66.9431C44.8687 66.9264 44.8811 66.913 44.8879 66.9057C44.902 66.8905 44.915 66.8768 44.9235 66.8679L44.946 66.8446L44.9844 66.805C45.0287 66.7598 45.0901 66.6975 45.166 66.6207C45.3187 66.4663 45.5395 66.244 45.8204 65.9618C46.3827 65.397 47.1909 64.5869 48.188 63.5884C50.1826 61.5912 52.9361 58.8375 55.9969 55.7779L58.7797 52.9965L52.019 40.783H34.7871L22.0551 82.2663C21.731 83.3223 20.6122 83.9156 19.5563 83.5915C18.5003 83.2674 17.907 82.1486 18.2311 81.0927L30.6029 40.783H22.4805C21.3759 40.783 20.4805 39.8876 20.4805 38.783C20.4805 37.6785 21.3759 36.783 22.4805 36.783H31.8306L35.5378 24.7042C35.5474 24.6732 35.5576 24.6424 35.5686 24.6119C36.6282 21.6766 38.5817 18.1513 41.7027 15.7743C44.933 13.314 49.2634 12.2102 54.6117 13.9989C55.6592 14.3493 56.2244 15.4825 55.874 16.53C55.5237 17.5776 54.3905 18.1427 53.3429 17.7924C49.2587 16.4264 46.3096 17.2936 44.1264 18.9564ZM47.8132 69.6337L47.8174 69.6294C47.791 69.6582 47.783 69.6653 47.8132 69.6337Z" fill="var(--spectrum-global-color-gray-800, #292929)"/>
</svg>
