<svg width="48" height="48" viewBox="0 0 48 48" xmlns="http://www.w3.org/2000/svg">
<path fill-rule="evenodd" d="M9.46985 13.1867C7.72539 10.868 9.34115 7.49001 12.2812 7.49001H35.7187C38.6587 7.49001 40.2745 10.868 38.53 13.1867C38.5168 13.2043 38.5031 13.2215 38.4889 13.2384L27.7252 26.0718V37.2083C27.7252 37.8934 27.4338 38.5488 26.9198 39.0061L24.2463 41.3847C22.6843 42.7743 20.2747 41.6286 20.2747 39.5869V26.0718L9.51098 13.2384C9.49682 13.2215 9.4831 13.2043 9.46985 13.1867ZM11.4515 11.6618L22.4824 24.8138C22.6712 25.0389 22.7747 25.3232 22.7747 25.617V39.3477L25.2252 37.1675V25.617C25.2252 25.3232 25.3287 25.0389 25.5175 24.8138L36.5484 11.6617C37.0574 10.9515 36.5371 9.99001 35.7187 9.99001H12.2812C11.4627 9.99001 10.9425 10.9515 11.4515 11.6618ZM25.258 37.1383L25.2579 37.1385Z" fill="var(--spectrum-global-color-gray-800, #292929)"/>
</svg>
