<svg width="48" height="48" viewBox="0 0 48 48" xmlns="http://www.w3.org/2000/svg">
<path fill-rule="evenodd" d="M38.1916 20.9989L43.4991 15.6914C43.9873 15.2032 43.9873 14.4118 43.4991 13.9236L38.1916 8.61612C37.7035 8.12796 36.912 8.12796 36.4238 8.61612C35.9357 9.10427 35.9357 9.89573 36.4238 10.3839L39.495 13.4551H37.7064C35.189 13.4551 32.8661 14.3031 31.0128 15.7284C30.9844 15.7503 30.9572 15.7731 30.9312 15.7968C30.9194 15.8054 30.9076 15.8143 30.896 15.8235C29.5314 16.8948 28.2634 18.4479 27.2741 19.8659C26.28 21.2908 25.5006 22.6761 25.1346 23.4837C24.8517 24.108 24.1508 25.5927 23.2238 27.1516C22.4252 28.4945 21.5182 29.7892 20.6238 30.6594C20.5955 30.6809 20.568 30.7039 20.5412 30.7282C19.0329 32.0988 17.0325 32.9326 14.8345 32.9326C10.1463 32.9326 6.3457 29.1321 6.3457 24.4438C6.3457 19.7556 10.1463 15.9551 14.8345 15.9551C17.7013 15.9551 20.2365 17.375 21.7754 19.5555L21.7754 19.5555L21.7799 19.5618L22.2311 20.1928C22.6326 20.7544 23.4134 20.8841 23.975 20.4826C24.5365 20.0811 24.6663 19.3003 24.2647 18.7388L23.8157 18.1108C21.8282 15.2968 18.5465 13.4551 14.8345 13.4551C8.76554 13.4551 3.8457 18.3749 3.8457 24.4438C3.8457 30.5128 8.76554 35.4326 14.8345 35.4326C17.3469 35.4326 19.6644 34.5882 21.5154 33.169C21.5696 33.1382 21.6222 33.1029 21.6727 33.0631C23.1069 31.932 24.4008 30.0635 25.3725 28.4295C26.365 26.7606 27.1087 25.1843 27.4118 24.5155C27.7004 23.8785 28.396 22.6271 29.3244 21.2964C30.2575 19.959 31.3596 18.6379 32.4398 17.7898C32.4646 17.7703 32.4885 17.7501 32.5114 17.7292C32.5199 17.723 32.5284 17.7166 32.5368 17.7102C33.9685 16.6091 35.7593 15.9551 37.7064 15.9551H39.6999L36.4238 19.2311C35.9357 19.7193 35.9357 20.5107 36.4238 20.9989C36.912 21.4871 37.7035 21.4871 38.1916 20.9989ZM40.4057 35.4326C41.0961 35.4326 41.6557 34.873 41.6557 34.1826C41.6557 33.4923 41.0961 32.9326 40.4057 32.9326H37.7064C34.9079 32.9326 32.6286 31.3244 30.6162 29.1298L30.0887 28.4924C29.6486 27.9605 28.8607 27.8861 28.3288 28.3262C27.7969 28.7663 27.7225 29.5543 28.1626 30.0862L28.7101 30.7478L28.7298 30.7716L28.7507 30.7945C30.9365 33.1846 33.8451 35.4326 37.7064 35.4326H40.4057Z" fill="var(--spectrum-global-color-gray-800, #292929)"/>
</svg>
