<svg width="96" height="96" viewBox="0 0 96 96" xmlns="http://www.w3.org/2000/svg">
<path fill-rule="evenodd" d="M34 14C35.1046 14 36 14.8954 36 16V20H60V16C60 14.8954 60.8954 14 62 14C63.1046 14 64 14.8954 64 16V20H70C75.5228 20 80 24.4772 80 30V70C80 75.5228 75.5228 80 70 80H26C20.4772 80 16 75.5228 16 70V30C16 24.4772 20.4772 20 26 20H32V16C32 14.8954 32.8954 14 34 14ZM60 24V28C60 29.1046 60.8954 30 62 30C63.1046 30 64 29.1046 64 28V24H70C73.3137 24 76 26.6863 76 30V37H20V30C20 26.6863 22.6863 24 26 24H32V28C32 29.1046 32.8954 30 34 30C35.1046 30 36 29.1046 36 28V24H60ZM20 41V70C20 73.3137 22.6863 76 26 76H70C73.3137 76 76 73.3137 76 70V41H20ZM34 48C35.1046 48 36 48.8954 36 50V54C36 55.1046 35.1046 56 34 56H30C28.8954 56 28 55.1046 28 54V50C28 48.8954 28.8954 48 30 48H34ZM50 48H46C44.8954 48 44 48.8954 44 50V54C44 55.1046 44.8954 56 46 56H50C51.1046 56 52 55.1046 52 54V50C52 48.8954 51.1046 48 50 48ZM60 50C60 48.8954 60.8954 48 62 48H66C67.1046 48 68 48.8954 68 50V54C68 55.1046 67.1046 56 66 56H62C60.8954 56 60 55.1046 60 54V50ZM30 61C28.8954 61 28 61.8954 28 63V67C28 68.1046 28.8954 69 30 69H34C35.1046 69 36 68.1046 36 67V63C36 61.8954 35.1046 61 34 61H30ZM46 61H50C51.1046 61 52 61.8954 52 63V67C52 68.1046 51.1046 69 50 69H46C44.8954 69 44 68.1046 44 67V63C44 61.8954 44.8954 61 46 61ZM68 63C68 61.8954 67.1046 61 66 61H62C60.8954 61 60 61.8954 60 63V67C60 68.1046 60.8954 69 62 69H66C67.1046 69 68 68.1046 68 67V63Z" fill="var(--spectrum-global-color-gray-800, #292929)"/>
</svg>
