<svg width="160" height="160" viewBox="0 0 160 160" xmlns="http://www.w3.org/2000/svg">
<path fill-rule="evenodd" d="M24 28C24 25.7909 25.7909 24 28 24H52.1836C54.3927 24 56.1836 25.7909 56.1836 28C56.1836 30.2091 54.3927 32 52.1836 32L37.2877 32L79.4081 74.1204L121.529 32L106.908 32C104.699 32 102.908 30.2091 102.908 28C102.908 25.7909 104.699 24 106.908 24H131.092C133.301 24 135.092 25.7909 135.092 28V52.1836C135.092 54.3927 133.301 56.1836 131.092 56.1836C128.883 56.1836 127.092 54.3927 127.092 52.1836V37.7505L85.065 79.7773L127.092 121.804V106.908C127.092 104.699 128.883 102.908 131.092 102.908C133.301 102.908 135.092 104.699 135.092 106.908V131.092C135.092 133.301 133.301 135.092 131.092 135.092H106.908C104.699 135.092 102.908 133.301 102.908 131.092C102.908 128.883 104.699 127.092 106.908 127.092H121.066L79.4081 85.4341L37.7505 127.092H52.1836C54.3927 127.092 56.1836 128.883 56.1836 131.092C56.1836 133.301 54.3927 135.092 52.1836 135.092H28C25.7909 135.092 24 133.301 24 131.092V106.908C24 104.699 25.7909 102.908 28 102.908C30.2091 102.908 32 104.699 32 106.908L32 121.529L73.7513 79.7773L32 38.026L32 52.1836C32 54.3927 30.2091 56.1836 28 56.1836C25.7909 56.1836 24 54.3927 24 52.1836V28Z" fill="var(--spectrum-global-color-gray-800, #292929)"/>
</svg>
