<svg width="96" height="96" viewBox="0 0 96 96" xmlns="http://www.w3.org/2000/svg">
<path fill-rule="evenodd" d="M82.2002 28C82.2002 24.6863 79.5139 22 76.2002 22H19.0002C15.6865 22 13.0002 24.6863 13.0002 28V67.2C13.0002 67.6934 13.0597 68.1728 13.172 68.6316L29.0272 44.1366L29.0279 44.1355C31.647 40.0862 37.5786 40.0862 40.1978 44.1354L40.1986 44.1366L52.5682 63.2434L59.5537 52.6817L59.5638 52.6666C62.1995 48.7462 67.9753 48.7376 70.6096 52.6664L70.6123 52.6705L81.828 69.285C82.0687 68.6356 82.2002 67.9331 82.2002 67.2V28ZM33.0574 46.7438L16.3358 72.5774C17.1385 72.9759 18.0432 73.2 19.0002 73.2H45.9831L45.9987 73.176L49.6785 67.6124L36.1685 46.7439L36.1678 46.7428C35.4399 45.6171 33.7859 45.6171 33.0581 46.7428L33.0574 46.7438ZM78.399 72.7843C77.7181 73.0526 76.9764 73.2 76.2002 73.2H51.7378L63.5512 55.3388C64.2916 54.2462 65.897 54.2554 66.6237 55.3409L66.6288 55.3485L78.399 72.7843ZM76.2002 18C81.723 18 86.2002 22.4772 86.2002 28V67.2C86.2002 72.7229 81.723 77.2 76.2002 77.2H19.0002C13.4773 77.2 9.00019 72.7228 9.00019 67.2V28C9.00019 22.4772 13.4773 18 19.0002 18H76.2002ZM65.5 33C65.5 35.7614 67.7386 38 70.5 38C73.2614 38 75.5 35.7614 75.5 33C75.5 30.2386 73.2614 28 70.5 28C67.7386 28 65.5 30.2386 65.5 33Z" fill="var(--spectrum-global-color-gray-800, #292929)"/>
</svg>
