<svg width="48" height="48" viewBox="0 0 48 48" xmlns="http://www.w3.org/2000/svg">
<path d="M23.9997 14.99C24.6901 14.99 25.2497 15.5496 25.2497 16.24V27.24C25.2497 27.9303 24.6901 28.49 23.9997 28.49C23.3094 28.49 22.7497 27.9303 22.7497 27.24V16.24C22.7497 15.5496 23.3094 14.99 23.9997 14.99Z" fill="var(--spectrum-global-color-gray-800, #292929)"/>
<path d="M25.7497 32.74C25.7497 33.7065 24.9662 34.49 23.9997 34.49C23.0332 34.49 22.2497 33.7065 22.2497 32.74C22.2497 31.7735 23.0332 30.99 23.9997 30.99C24.9662 30.99 25.7497 31.7735 25.7497 32.74Z" fill="var(--spectrum-global-color-gray-800, #292929)"/>
<path fill-rule="evenodd" d="M28.542 9.01509L42.452 33.1151C44.4714 36.6163 41.9539 40.99 37.9094 40.99H10.0894C6.04486 40.99 3.52718 36.6166 5.54658 33.1154L19.3808 9.14679C19.4 9.10206 19.4219 9.05819 19.4466 9.01542C21.4675 5.51157 26.5209 5.51146 28.542 9.01509ZM21.6778 10.1562C22.7767 8.42918 25.3388 8.46528 26.3766 10.2645L40.2866 34.3645C41.3468 36.2033 40.0247 38.49 37.9094 38.49H10.0894C7.97402 38.49 6.65173 36.2036 7.71199 34.3648L21.622 10.2648C21.6425 10.2293 21.6611 10.1931 21.6778 10.1562Z" fill="var(--spectrum-global-color-gray-800, #292929)"/>
</svg>
