<svg width="160" height="160" viewBox="0 0 160 160" xmlns="http://www.w3.org/2000/svg">
<path fill-rule="evenodd" d="M40 14C40 11.7909 38.2091 10 36 10C33.7909 10 32 11.7909 32 14V24C32 26.2091 33.7909 28 36 28C38.2091 28 40 26.2091 40 24V14ZM14 32C11.7909 32 10 33.7909 10 36C10 38.2091 11.7909 40 14 40H24C26.2091 40 28 38.2091 28 36C28 33.7909 26.2091 32 24 32H14ZM48 40C43.5817 40 40 43.5817 40 48V128C40 132.418 43.5817 136 48 136H112C116.418 136 120 132.418 120 128V80H91C84.3726 80 79 74.6274 79 68V40H48ZM87 44.4393V68C87 70.2091 88.7909 72 91 72H115.634L87 44.4393ZM32 48C32 39.1634 39.1634 32 48 32H79.1632C83.3008 32 87.2776 33.6029 90.2587 36.4722L123.095 68.0776C126.229 71.0939 128 75.2559 128 79.6054V128C128 136.837 120.837 144 112 144H48C39.1634 144 32 136.837 32 128V48Z" fill="var(--spectrum-global-color-gray-800, #292929)"/>
</svg>
