<svg width="96" height="96" viewBox="0 0 96 96" xmlns="http://www.w3.org/2000/svg">
<path fill-rule="evenodd" d="M18 39.0767C18 27.4787 27.402 18.0767 39 18.0767C50.598 18.0767 60 27.4787 60 39.0767C60 50.6746 50.598 60.0767 39 60.0767C27.402 60.0767 18 50.6746 18 39.0767ZM39 14.0767C25.1929 14.0767 14 25.2695 14 39.0767C14 52.8838 25.1929 64.0767 39 64.0767C45.1836 64.0767 50.8428 61.8316 55.2071 58.1122L56.6982 59.6033L55.277 61.0246C54.4959 61.8056 54.4959 63.072 55.277 63.853L72.4059 80.982C74.7363 83.3123 78.5145 83.3123 80.8448 80.9819C83.1752 78.6516 83.1752 74.8734 80.8448 72.543L63.7159 55.4141C62.9349 54.633 61.6685 54.633 60.8875 55.4141L59.5267 56.7749L58.0356 55.2838C61.755 50.9195 64 45.2603 64 39.0767C64 25.2695 52.8071 14.0767 39 14.0767ZM62.3017 59.6567L59.5196 62.4388L75.2343 78.1535C76.0026 78.9218 77.2482 78.9218 78.0164 78.1535C78.7847 77.3853 78.7847 76.1397 78.0164 75.3714L62.3017 59.6567Z" fill="var(--spectrum-global-color-gray-800, #292929)"/>
</svg>
