<svg width="160" height="160" viewBox="0 0 160 160" xmlns="http://www.w3.org/2000/svg">
<path fill-rule="evenodd" d="M93.84 28C83.5808 28 74.8399 36.9363 74.8399 48.5C74.8399 60.0637 83.5808 69 93.84 69C104.099 69 112.84 60.0637 112.84 48.5C112.84 36.9363 104.099 28 93.84 28ZM66.8399 48.5C66.8399 33.0017 78.694 20 93.84 20C108.986 20 120.84 33.0017 120.84 48.5C120.84 63.9983 108.986 77 93.84 77C78.694 77 66.8399 63.9983 66.8399 48.5ZM63.3866 28.1921C65.5719 27.8681 67.0807 25.8339 66.7567 23.6486C66.4326 21.4634 64.3985 19.9546 62.2132 20.2786C48.9075 22.2516 39.0001 34.3062 39.0001 48.5001C39.0001 62.7426 48.9766 74.8328 62.3516 76.7417C64.5386 77.0538 66.5645 75.534 66.8766 73.347C67.1887 71.16 65.6689 69.1341 63.4819 68.822C54.3677 67.5212 47.0001 59.092 47.0001 48.5001C47.0001 37.9456 54.3168 29.537 63.3866 28.1921ZM54.132 90.7315C56.2508 90.1064 57.4617 87.882 56.8366 85.7632C56.2115 83.6443 53.9871 82.4334 51.8682 83.0585C34.0795 88.3066 20.2128 103.068 16.2758 121.369C14.6738 128.815 20.243 135.99 27.9963 135.99H33.5001C35.7092 135.99 37.5001 134.199 37.5001 131.99C37.5001 129.781 35.7092 127.99 33.5001 127.99H27.9963C25.4697 127.99 23.5389 125.645 24.0969 123.051C27.4119 107.642 39.1258 95.1587 54.132 90.7315ZM51.7902 123.051C55.9547 103.693 73.3461 89 93.8397 89C114.333 89 131.725 103.693 135.889 123.051C136.447 125.645 134.516 127.99 131.99 127.99H93.8397H55.6897C53.163 127.99 51.2323 125.645 51.7902 123.051ZM93.8397 81C69.4733 81 48.9047 98.4268 43.9692 121.369C42.3671 128.815 47.9364 135.99 55.6897 135.99H93.8397H131.99C139.743 135.99 145.312 128.815 143.71 121.369C138.775 98.4268 118.206 81 93.8397 81Z" fill="var(--spectrum-global-color-gray-800, #292929)"/>
</svg>
