<svg width="48" height="48" viewBox="0 0 48 48" xmlns="http://www.w3.org/2000/svg">
<path fill-rule="evenodd" d="M7.75371 24.2988C7.75371 15.8765 14.5814 9.04883 23.0037 9.04883C29.0295 9.04883 34.2415 12.5441 36.7183 17.6214L32.0467 16.1503C31.3882 15.943 30.6863 16.3087 30.479 16.9672C30.2716 17.6257 30.6373 18.3276 31.2958 18.5349L38.7379 20.8783C39.3963 21.0857 40.0982 20.7199 40.3056 20.0615L42.649 12.6194C42.8563 11.9609 42.4906 11.2591 41.8321 11.0517C41.1736 10.8444 40.4718 11.2101 40.2644 11.8686L38.8629 16.3193C35.9421 10.5254 29.9386 6.54883 23.0037 6.54883C13.2007 6.54883 5.25371 14.4958 5.25371 24.2988C5.25371 34.1019 13.2007 42.0488 23.0037 42.0488C30.6708 42.0488 37.1995 37.1883 39.6826 30.3845C39.9193 29.736 39.5854 29.0184 38.9369 28.7817C38.2884 28.545 37.5708 28.8789 37.3341 29.5274C35.1995 35.3763 29.5873 39.5488 23.0037 39.5488C14.5814 39.5488 7.75371 32.7212 7.75371 24.2988Z" fill="var(--spectrum-global-color-gray-800, #292929)"/>
</svg>
