<svg width="48" height="48" viewBox="0 0 48 48" xmlns="http://www.w3.org/2000/svg">
<path fill-rule="evenodd" d="M23.9991 6.23047C24.6895 6.23047 25.2491 6.79011 25.2491 7.48047V9.82106C25.2491 10.5114 24.6895 11.0711 23.9991 11.0711C23.3087 11.0711 22.7491 10.5114 22.7491 9.82106V7.48047C22.7491 6.79011 23.3087 6.23047 23.9991 6.23047ZM23.9988 16.9062C20.0811 16.9062 16.9052 20.0821 16.9052 23.9998C16.9052 27.9174 20.0811 31.0933 23.9988 31.0933C27.9164 31.0933 31.0923 27.9174 31.0923 23.9998C31.0923 20.0821 27.9164 16.9062 23.9988 16.9062ZM14.4052 23.9998C14.4052 18.7014 18.7004 14.4062 23.9988 14.4062C29.2971 14.4062 33.5923 18.7014 33.5923 23.9998C33.5923 29.2981 29.2971 33.5933 23.9988 33.5933C18.7004 33.5933 14.4052 29.2981 14.4052 23.9998ZM25.2491 38.1778C25.2491 37.4874 24.6895 36.9278 23.9991 36.9278C23.3087 36.9278 22.7491 37.4874 22.7491 38.1778V40.5184C22.7491 41.2088 23.3087 41.7684 23.9991 41.7684C24.6895 41.7684 25.2491 41.2088 25.2491 40.5184V38.1778ZM41.7689 24C41.7689 24.6904 41.2092 25.25 40.5189 25.25H38.1783C37.4879 25.25 36.9283 24.6904 36.9283 24C36.9283 23.3096 37.4879 22.75 38.1783 22.75H40.5189C41.2092 22.75 41.7689 23.3096 41.7689 24ZM9.82106 25.25C10.5114 25.25 11.0711 24.6904 11.0711 24C11.0711 23.3096 10.5114 22.75 9.82106 22.75H7.48047C6.79011 22.75 6.23047 23.3096 6.23047 24C6.23047 24.6904 6.79011 25.25 7.48047 25.25H9.82106ZM36.5641 11.4335C37.0523 11.9217 37.0523 12.7131 36.5641 13.2013L34.9091 14.8563C34.4209 15.3445 33.6295 15.3445 33.1413 14.8563C32.6532 14.3682 32.6532 13.5767 33.1413 13.0885L34.7964 11.4335C35.2845 10.9453 36.076 10.9453 36.5641 11.4335ZM14.8572 34.9082C15.3454 34.42 15.3454 33.6286 14.8572 33.1404C14.369 32.6523 13.5776 32.6523 13.0894 33.1404L11.4344 34.7955C10.9462 35.2836 10.9462 36.0751 11.4344 36.5632C11.9225 37.0514 12.714 37.0514 13.2022 36.5632L14.8572 34.9082ZM11.4335 11.4335C10.9453 11.9217 10.9453 12.7131 11.4335 13.2013L13.0885 14.8563C13.5767 15.3445 14.3681 15.3445 14.8563 14.8563C15.3444 14.3682 15.3444 13.5767 14.8563 13.0885L13.2012 11.4335C12.7131 10.9453 11.9216 10.9453 11.4335 11.4335ZM33.1404 34.9082C32.6522 34.42 32.6522 33.6286 33.1404 33.1404C33.6285 32.6523 34.42 32.6523 34.9082 33.1404L36.5632 34.7955C37.0514 35.2836 37.0514 36.0751 36.5632 36.5632C36.0751 37.0514 35.2836 37.0514 34.7954 36.5632L33.1404 34.9082Z" fill="var(--spectrum-global-color-gray-800, #292929)"/>
</svg>
