<svg width="48" height="48" viewBox="0 0 48 48" xmlns="http://www.w3.org/2000/svg">
<path fill-rule="evenodd" d="M8.25 23.7402C8.25 15.0417 15.3015 7.99023 24 7.99023C32.6985 7.99023 39.75 15.0417 39.75 23.7402C39.75 32.4387 32.6985 39.4902 24 39.4902C15.3015 39.4902 8.25 32.4387 8.25 23.7402ZM24 5.49023C13.9208 5.49023 5.75 13.661 5.75 23.7402C5.75 33.8194 13.9208 41.9902 24 41.9902C34.0792 41.9902 42.25 33.8194 42.25 23.7402C42.25 13.661 34.0792 5.49023 24 5.49023ZM25.25 16.7402C25.25 17.7067 24.4665 18.4902 23.5 18.4902C22.5335 18.4902 21.75 17.7067 21.75 16.7402C21.75 15.7737 22.5335 14.9902 23.5 14.9902C24.4665 14.9902 25.25 15.7737 25.25 16.7402ZM22 20.4902C21.3096 20.4902 20.75 21.0499 20.75 21.7402C20.75 22.4306 21.3096 22.9902 22 22.9902H22.75V28.4902H22C21.3096 28.4902 20.75 29.0499 20.75 29.7402C20.75 30.4306 21.3096 30.9902 22 30.9902H26C26.6904 30.9902 27.25 30.4306 27.25 29.7402C27.25 29.0499 26.6904 28.4902 26 28.4902H25.25V21.7402C25.25 21.0499 24.6904 20.4902 24 20.4902H22Z" fill="var(--spectrum-global-color-gray-800, #292929)"/>
</svg>
