<svg width="160" height="160" viewBox="0 0 160 160" xmlns="http://www.w3.org/2000/svg">
<path fill-rule="evenodd" d="M24 48C24 41.3726 29.3726 36 36 36H124C130.627 36 136 41.3726 136 48V112C136 118.627 130.627 124 124 124H36C29.3726 124 24 118.627 24 112V48ZM36 28C24.9543 28 16 36.9543 16 48V112C16 123.046 24.9543 132 36 132H124C135.046 132 144 123.046 144 112V48C144 36.9543 135.046 28 124 28H36ZM62.6581 63.7892C64.2206 62.2275 64.2213 59.6949 62.6596 58.1323C61.098 56.5698 58.5653 56.5691 57.0028 58.1308L38.6128 76.5108C37.0878 78.035 37.0452 80.4935 38.5165 82.0695L56.9065 101.77C58.4139 103.384 60.9451 103.471 62.56 101.964C64.1748 100.456 64.2619 97.9253 62.7544 96.3105L47.0024 79.4364L62.6581 63.7892ZM97.4414 58.036C99.0562 56.5286 101.587 56.6156 103.095 58.2305L121.485 77.9305C122.956 79.5065 122.914 81.9651 121.389 83.4892L102.999 101.869C101.436 103.431 98.9034 103.43 97.3417 101.868C95.78 100.305 95.7807 97.7725 97.3432 96.2108L112.999 80.5637L97.2469 63.6896C95.7394 62.0747 95.8265 59.5435 97.4414 58.036ZM92.368 52.9801C93.0087 50.8659 91.8143 48.6326 89.7001 47.9919C87.5859 47.3512 85.3526 48.5457 84.7119 50.6599L67.6319 107.02C66.9912 109.134 68.1857 111.367 70.2999 112.008C72.414 112.649 74.6473 111.454 75.288 109.34L92.368 52.9801Z" fill="var(--spectrum-global-color-gray-800, #292929)"/>
</svg>
