<svg width="96" height="97" viewBox="0 0 96 97" xmlns="http://www.w3.org/2000/svg">
<path fill-rule="evenodd" d="M52.043 14.1172C53.1475 14.1172 54.043 13.2218 54.043 12.1172C54.043 11.0126 53.1475 10.1172 52.043 10.1172H42.8049C41.7003 10.1172 40.8049 11.0126 40.8049 12.1172C40.8049 13.2218 41.7003 14.1172 42.8049 14.1172H45.4238V17.1395C27.3464 18.4584 13.0898 33.5426 13.0898 51.9566C13.0898 71.2373 28.7199 86.8673 48.0006 86.8673C67.2812 86.8673 82.9113 71.2373 82.9113 51.9566C82.9113 33.1527 68.0446 17.821 49.4238 17.0744V14.1172H52.043ZM17.0898 51.9566C17.0898 34.8851 30.929 21.0459 48.0006 21.0459C65.0721 21.0459 78.9113 34.8851 78.9113 51.9566C78.9113 69.0281 65.0721 82.8673 48.0006 82.8673C30.929 82.8673 17.0898 69.0281 17.0898 51.9566ZM49.4238 25.9746C49.4238 24.87 48.5284 23.9746 47.4238 23.9746C46.3193 23.9746 45.4238 24.87 45.4238 25.9746V29.4389C45.4238 30.5435 46.3193 31.4389 47.4238 31.4389C48.5284 31.4389 49.4238 30.5435 49.4238 29.4389V25.9746ZM47.4238 72.4746C48.5284 72.4746 49.4238 73.37 49.4238 74.4746V77.9389C49.4238 79.0435 48.5284 79.9389 47.4238 79.9389C46.3193 79.9389 45.4238 79.0435 45.4238 77.9389V74.4746C45.4238 73.37 46.3193 72.4746 47.4238 72.4746ZM74.0889 53.6572C75.1934 53.6572 76.0889 52.7618 76.0889 51.6572C76.0889 50.5527 75.1934 49.6572 74.0889 49.6572H70.4979C69.3933 49.6572 68.4979 50.5527 68.4979 51.6572C68.4979 52.7618 69.3933 53.6572 70.4979 53.6572H74.0889ZM27.6104 51.6572C27.6104 52.7618 26.7149 53.6572 25.6104 53.6572H22.0194C20.9148 53.6572 20.0194 52.7618 20.0194 51.6572C20.0194 50.5527 20.9148 49.6572 22.0194 49.6572H25.6104C26.7149 49.6572 27.6104 50.5527 27.6104 51.6572ZM68.3195 35.1173C69.1005 34.3363 69.1005 33.07 68.3195 32.2889C67.5384 31.5079 66.2721 31.5079 65.4911 32.2889L62.9519 34.8281C62.1708 35.6091 62.1708 36.8755 62.9519 37.6565C63.7329 38.4376 64.9992 38.4376 65.7803 37.6565L68.3195 35.1173ZM34.0402 66.5672C34.8212 67.3483 34.8212 68.6146 34.0402 69.3957L31.501 71.9348C30.72 72.7159 29.4536 72.7159 28.6726 71.9348C27.8915 71.1538 27.8915 69.8875 28.6726 69.1064L31.2118 66.5672C31.9928 65.7862 33.2591 65.7862 34.0402 66.5672ZM28.9969 36.7394C28.2159 35.9584 28.2159 34.692 28.9969 33.911C29.778 33.1299 31.0443 33.1299 31.8253 33.911L34.2795 36.3651C35.0606 37.1462 35.0606 38.4125 34.2795 39.1936C33.4985 39.9746 32.2321 39.9746 31.4511 39.1936L28.9969 36.7394ZM62.1278 67.0428C61.3467 67.8239 61.3467 69.0902 62.1278 69.8712L64.5819 72.3254C65.363 73.1065 66.6293 73.1065 67.4104 72.3254C68.1914 71.5444 68.1914 70.278 67.4104 69.497L64.9562 67.0428C64.1752 66.2618 62.9088 66.2618 62.1278 67.0428ZM48.4875 50.8153C47.4579 50.4155 46.2991 50.9261 45.8993 51.9558C45.4995 52.9855 46.0101 54.1443 47.0398 54.5441L67.4844 62.482C68.5141 62.8817 69.6729 62.3711 70.0727 61.3414C70.4725 60.3117 69.9618 59.1529 68.9321 58.7531L48.4875 50.8153Z" fill="var(--spectrum-global-color-gray-800, #292929)"/>
</svg>
