<svg width="160" height="160" viewBox="0 0 160 160" xmlns="http://www.w3.org/2000/svg">
<path fill-rule="evenodd" d="M135.063 40.6397C135.611 42.7798 134.32 44.9588 132.18 45.5067L107.389 51.8525C105.249 52.4003 103.07 51.1095 102.522 48.9693C101.974 46.8292 103.265 44.6502 105.405 44.1024L120.637 40.2032C120.557 40.1481 120.477 40.0897 120.399 40.0279C111.546 33.0008 100.352 28.806 88.1681 28.806C72.6052 28.806 58.6462 35.6526 49.1299 46.5115C47.6738 48.1729 45.1467 48.3394 43.4852 46.8834C41.8238 45.4274 41.6573 42.9002 43.1133 41.2388C54.0842 28.7202 70.2043 20.806 88.1681 20.806C102.034 20.806 114.81 25.5235 124.961 33.4382L120.967 17.8327C120.419 15.6926 121.71 13.5136 123.85 12.9657C125.99 12.4179 128.169 13.7088 128.717 15.8489L135.063 40.6397ZM137.962 65.2543C137.303 63.146 138.477 60.902 140.585 60.2424C142.694 59.5827 144.938 60.7571 145.597 62.8655C147.368 68.5235 148.32 74.5383 148.32 80.7681C148.32 104.902 134.046 125.693 113.492 135.176L128.039 140.294C130.123 141.027 131.218 143.311 130.485 145.395C129.751 147.479 127.468 148.574 125.384 147.84L101.244 139.347C99.1604 138.614 98.0654 136.33 98.7986 134.246L107.292 110.107C108.025 108.023 110.309 106.928 112.393 107.661C114.477 108.394 115.572 110.678 114.838 112.762L109.389 128.251C127.612 120.196 140.32 101.962 140.32 80.7681C140.32 75.3578 139.493 70.1481 137.962 65.2543ZM36.9404 73.8452L47.0054 86.1826C48.4019 87.8943 50.9216 88.1499 52.6334 86.7534C54.3451 85.357 54.6007 82.8372 53.2043 81.1255L37.0278 61.2968C35.6313 59.585 33.1116 59.3295 31.3998 60.7259L11.5712 76.9024C9.85942 78.2989 9.60383 80.8186 11.0003 82.5303C12.3968 84.2421 14.9165 84.4977 16.6283 83.1012L28.9791 73.0253C27.5062 84.2589 29.1995 96.0391 34.5297 106.983C42.3953 123.134 56.5689 134.161 72.6273 138.543C74.7585 139.124 76.9577 137.868 77.5392 135.737C78.1208 133.606 76.8645 131.406 74.7333 130.825C60.8039 127.024 48.5364 117.472 41.722 103.48C37.0665 93.9215 35.6131 83.6422 36.9404 73.8452Z" fill="var(--spectrum-global-color-gray-800, #292929)"/>
</svg>
