<svg width="48" height="48" viewBox="0 0 48 48" xmlns="http://www.w3.org/2000/svg">
<path d="M28.7002 8.38C29.5102 8.38 30.2602 9.2 29.8702 10.13L26.2702 18.62C26.0002 19.26 26.3002 19.99 26.9302 20.26L32.8502 22.77C33.6402 23.1 33.8702 24.12 33.2902 24.76L20.2602 39.21C19.9902 39.51 19.6702 39.63 19.3502 39.63C18.5402 39.63 17.7902 38.82 18.1802 37.88L21.6702 29.6C21.9402 28.97 21.6402 28.24 21.0102 27.97L15.1302 25.44C14.3502 25.1 14.1202 24.1 14.6902 23.46L27.7802 8.81001C28.0502 8.51001 28.3702 8.38 28.6902 8.38M28.7002 5.88C27.6302 5.88 26.6502 6.33 25.9202 7.14L12.8302 21.79C12.0302 22.69 11.7102 23.92 11.9602 25.1C12.2202 26.27 13.0302 27.26 14.1402 27.73L18.8802 29.77L15.8702 36.91C15.3802 38.08 15.5002 39.39 16.1802 40.42C16.8802 41.47 18.0902 42.12 19.3402 42.12C20.4002 42.12 21.3802 41.68 22.1102 40.87L35.1402 26.42C35.9502 25.52 36.2802 24.28 36.0202 23.1C35.7602 21.92 34.9402 20.93 33.8202 20.46L29.0502 18.44L32.1602 11.11C32.6502 9.94 32.5402 8.63 31.8502 7.59C31.1502 6.54 29.9402 5.88 28.6902 5.88H28.7002Z" fill="var(--spectrum-global-color-gray-800, #292929)"/>
</svg>
