<svg width="48" height="48" viewBox="0 0 48 48" xmlns="http://www.w3.org/2000/svg">
<path fill-rule="evenodd" d="M17.2824 12.2892C18.8962 8.65051 22.4352 6.08008 26.5997 6.08008C32.0116 6.08008 36.3708 10.4095 36.8128 15.8227C41.0715 16.622 44.2597 20.3798 44.2597 25.1301C44.2597 30.2982 40.2312 34.5901 35.1497 34.5901H35.1497H35.1496H35.1496H35.1495H35.1494H35.1494H35.1493H35.1492H35.1492H35.1491H35.1491H35.149H35.1489H35.1489H35.1488H35.1487H35.1487H35.1486H35.1485H35.1485H35.1484H35.1483H35.1483H35.1482H35.1481H35.1481H35.148H35.1479H35.1478H35.1478H35.1477H35.1476H35.1476H35.1475H35.1474H35.1473H35.1473H35.1472H35.1471H35.147H35.147H35.1469H35.1468H35.1467H35.1467H35.1466H35.1465H35.1464H35.1464H35.1463H35.1462H35.1461H35.146H35.146H35.1459H35.1458H35.1457H35.1456H35.1456H35.1455H35.1454H35.1453H35.1452H35.1451H35.1451H35.145H35.1449H35.1448H35.1447H35.1446H35.1445H35.1445H35.1444H35.1443H35.1442H35.1441H35.144H35.1439H35.1439H35.1438H35.1437H35.1436H35.1435H35.1434H35.1433H35.1432H35.1431H35.1431H35.143H35.1429H35.1428H35.1427H35.1426H35.1425H35.1424H35.1423H35.1422H35.1421H35.142H35.142H35.1419H35.1418H35.1417H35.1416H35.1415H35.1414H35.1413H35.1412H35.1411H35.141H35.1409H35.1408H35.1407H35.1406H35.1405H35.1404H35.1403H35.1402H35.1401H35.14H35.1399H35.1399H35.1398H35.1397H35.1396H35.1395H35.1394H35.1393H35.1392H35.1391H35.139H35.1389H35.1388H35.1387H35.1386H35.1385H35.1384H35.1383H35.1382H35.1381H35.138H35.1379H35.1378H35.1377H35.1376H35.1375H35.1374H35.1373H35.1371H35.137H35.1369H35.1368H35.1367H35.1366H35.1365H35.1364H35.1363H35.1362H35.1361H35.136H35.1359H35.1358H35.1357H35.1356H35.1355H35.1354H35.1353H35.1352H35.1351H35.135H35.1349H35.1348H35.1347H35.1346H35.1345H35.1344H35.1343H35.1341H35.134H35.1339H35.1338H35.1337H35.1336H35.1335H35.1334H35.1333H35.1332H35.1331H35.133H35.1329H35.1328H35.1327H35.1326H35.1325H35.1324H35.1323H35.1322H35.132H35.1319H35.1318H35.1317H35.1316H35.1315H35.1314H35.1313H35.1312H35.1311H35.131H35.1309H35.1308H35.1307H35.1306H35.1305H35.1304H35.1303H35.1301H35.13H35.1299H35.1298H35.1297H35.1296H35.1295H35.1294H35.1293H35.1292H35.1291H35.129H35.1289H35.1288H35.1287H35.1286H35.1285H35.1284H35.1283H35.1282H35.128H35.1279H35.1278H35.1277H35.1276H35.1275H35.1274H35.1273H35.1272H35.1271H35.127H35.1269H35.1268H35.1267H35.1266H35.1265H35.1264H35.1263H35.1262H35.1261H35.126H35.1259H35.1258H35.1257H35.1256H35.1255H35.1254H35.1253H35.1252H35.1251H35.125H35.1249H35.1248H35.1247H35.1246H35.1245H35.1244H35.1243H35.1242H35.1241H35.124H35.1239H35.1238H35.1237H35.1236H35.1235H35.1234H35.1233H35.1232H35.1231H35.123H35.1229H35.1228H35.1227H35.1226H35.1225H35.1224H35.1223H35.1222H35.1221H35.122H35.1219H35.1218H35.1217H35.1216H35.1215H35.1214H35.1213H35.1212H35.1211H35.121H35.1209H35.1209H35.1208H35.1207H35.1206H35.1205H35.1204H35.1203H35.1202H35.1201H35.12H35.1199H35.1198H35.1197H35.1197H35.1196H35.1195H35.1194H35.1193H35.1192H35.1191H35.119H35.1189H35.1189H35.1188H35.1187H35.1186H35.1185H35.1184H35.1183H35.1182H35.1182H35.1181H35.118H35.1179H35.1178H35.1177H35.1177H35.1176H35.1175H35.1174H35.1173H35.1172H35.1172H35.1171H35.117H35.1169H35.1168H35.1167H35.1167H35.1166H35.1165H35.1164H35.1164H35.1163H35.1162H35.1161H35.116H35.116H35.1159H35.1158H35.1157H35.1157H35.1156H35.1155H35.1154H35.1154H35.1153H35.1152H35.1151H35.1151H35.115H35.1149H35.1149H35.1148H35.1147H35.1146H35.1146H35.1145H35.1144H35.1144H35.1143H35.1142H35.1142H35.1141H35.114H35.114H35.1139H35.1138H35.1138H35.1137H35.1136H35.1136H35.1135H35.1134H35.1134H35.1133H35.1133H35.1132H35.1131H35.1131H35.113H35.113H35.1129H35.1128H35.1128H35.1127H35.1127H35.1126H35.1126H35.1125H35.1125H35.1124H35.1123H35.1123H35.1122H35.1122H35.1121H35.1121H35.112H35.112H35.1119H35.1119H35.1118H35.1118H35.1117H35.1117H35.1116H35.1116H35.1115H35.1115H35.1115H35.1114H35.1114H35.1113H35.1113H35.1112H35.1112H35.1112H35.1111H35.1111H35.111H35.111H35.111H35.1109H35.1109H35.1108H35.1108H35.1108H35.1107H35.1107H35.1107H35.1106H35.1106H35.1106H35.1105H35.1105H35.1105H35.1104H35.1104H35.1104H35.1104H35.1103H35.1103H35.1103H35.1103H35.1102H35.1102H35.1102H35.1102H35.1101H35.1101H35.1101H35.1101H35.11H35.11H35.11H35.11H35.11H35.11H35.1099H35.1099H35.1099H35.1099H35.1099H35.1098H35.1098H35.1098H35.1098H35.1098H35.1097H35.1097C34.4194 34.5901 33.8597 34.0304 33.8597 33.3401C33.8597 32.6497 34.4194 32.0901 35.1097 32.0901H35.1097H35.1098H35.1098H35.1098H35.1098H35.1098H35.1099H35.1099H35.1099H35.1099H35.1099H35.11H35.11H35.11H35.11H35.11H35.11H35.1101H35.1101H35.1101H35.1101H35.1102H35.1102H35.1102H35.1102H35.1103H35.1103H35.1103H35.1103H35.1104H35.1104H35.1104H35.1104H35.1105H35.1105H35.1105H35.1106H35.1106H35.1106H35.1107H35.1107H35.1107H35.1108H35.1108H35.1108H35.1109H35.1109H35.111H35.111H35.111H35.1111H35.1111H35.1112H35.1112H35.1112H35.1113H35.1113H35.1114H35.1114H35.1115H35.1115H35.1115H35.1116H35.1116H35.1117H35.1117H35.1118H35.1118H35.1119H35.1119H35.112H35.112H35.1121H35.1121H35.1122H35.1122H35.1123H35.1123H35.1124H35.1125H35.1125H35.1126H35.1126H35.1127H35.1127H35.1128H35.1128H35.1129H35.113H35.113H35.1131H35.1131H35.1132H35.1133H35.1133H35.1134H35.1134H35.1135H35.1136H35.1136H35.1137H35.1138H35.1138H35.1139H35.114H35.114H35.1141H35.1142H35.1142H35.1143H35.1144H35.1144H35.1145H35.1146H35.1146H35.1147H35.1148H35.1149H35.1149H35.115H35.1151H35.1151H35.1152H35.1153H35.1154H35.1154H35.1155H35.1156H35.1157H35.1157H35.1158H35.1159H35.116H35.116H35.1161H35.1162H35.1163H35.1164H35.1164H35.1165H35.1166H35.1167H35.1167H35.1168H35.1169H35.117H35.1171H35.1172H35.1172H35.1173H35.1174H35.1175H35.1176H35.1177H35.1177H35.1178H35.1179H35.118H35.1181H35.1182H35.1182H35.1183H35.1184H35.1185H35.1186H35.1187H35.1188H35.1189H35.1189H35.119H35.1191H35.1192H35.1193H35.1194H35.1195H35.1196H35.1197H35.1197H35.1198H35.1199H35.12H35.1201H35.1202H35.1203H35.1204H35.1205H35.1206H35.1207H35.1208H35.1209H35.1209H35.121H35.1211H35.1212H35.1213H35.1214H35.1215H35.1216H35.1217H35.1218H35.1219H35.122H35.1221H35.1222H35.1223H35.1224H35.1225H35.1226H35.1227H35.1228H35.1229H35.123H35.1231H35.1232H35.1233H35.1234H35.1235H35.1236H35.1237H35.1238H35.1239H35.124H35.1241H35.1242H35.1243H35.1244H35.1245H35.1246H35.1247H35.1248H35.1249H35.125H35.1251H35.1252H35.1253H35.1254H35.1255H35.1256H35.1257H35.1258H35.1259H35.126H35.1261H35.1262H35.1263H35.1264H35.1265H35.1266H35.1267H35.1268H35.1269H35.127H35.1271H35.1272H35.1273H35.1274H35.1275H35.1276H35.1277H35.1278H35.1279H35.128H35.1282H35.1283H35.1284H35.1285H35.1286H35.1287H35.1288H35.1289H35.129H35.1291H35.1292H35.1293H35.1294H35.1295H35.1296H35.1297H35.1298H35.1299H35.13H35.1301H35.1303H35.1304H35.1305H35.1306H35.1307H35.1308H35.1309H35.131H35.1311H35.1312H35.1313H35.1314H35.1315H35.1316H35.1317H35.1318H35.1319H35.132H35.1322H35.1323H35.1324H35.1325H35.1326H35.1327H35.1328H35.1329H35.133H35.1331H35.1332H35.1333H35.1334H35.1335H35.1336H35.1337H35.1338H35.1339H35.134H35.1341H35.1343H35.1344H35.1345H35.1346H35.1347H35.1348H35.1349H35.135H35.1351H35.1352H35.1353H35.1354H35.1355H35.1356H35.1357H35.1358H35.1359H35.136H35.1361H35.1362H35.1363H35.1364H35.1365H35.1366H35.1367H35.1368H35.1369H35.137H35.1371H35.1373H35.1374H35.1375H35.1376H35.1377H35.1378H35.1379H35.138H35.1381H35.1382H35.1383H35.1384H35.1385H35.1386H35.1387H35.1388H35.1389H35.139H35.1391H35.1392H35.1393H35.1394H35.1395H35.1396H35.1397H35.1398H35.1399H35.1399H35.14H35.1401H35.1402H35.1403H35.1404H35.1405H35.1406H35.1407H35.1408H35.1409H35.141H35.1411H35.1412H35.1413H35.1414H35.1415H35.1416H35.1417H35.1418H35.1419H35.142H35.142H35.1421H35.1422H35.1423H35.1424H35.1425H35.1426H35.1427H35.1428H35.1429H35.143H35.1431H35.1431H35.1432H35.1433H35.1434H35.1435H35.1436H35.1437H35.1438H35.1439H35.1439H35.144H35.1441H35.1442H35.1443H35.1444H35.1445H35.1445H35.1446H35.1447H35.1448H35.1449H35.145H35.1451H35.1451H35.1452H35.1453H35.1454H35.1455H35.1456H35.1456H35.1457H35.1458H35.1459H35.146H35.146H35.1461H35.1462H35.1463H35.1464H35.1464H35.1465H35.1466H35.1467H35.1467H35.1468H35.1469H35.147H35.147H35.1471H35.1472H35.1473H35.1473H35.1474H35.1475H35.1476H35.1476H35.1477H35.1478H35.1478H35.1479H35.148H35.1481H35.1481H35.1482H35.1483H35.1483H35.1484H35.1485H35.1485H35.1486H35.1487H35.1487H35.1488H35.1489H35.1489H35.149H35.1491H35.1491H35.1492H35.1492H35.1493H35.1494H35.1494H35.1495H35.1496H35.1496H35.1497H35.1497C38.7483 32.0901 41.7597 29.0219 41.7597 25.1301C41.7597 21.2348 38.9684 18.3863 35.5242 18.1778C34.8644 18.1379 34.3497 17.5911 34.3497 16.9301V16.9297V16.9293V16.9288V16.9284V16.928V16.9276V16.9272V16.9268V16.9264V16.926V16.9256V16.9252V16.9248V16.9244V16.924V16.9235V16.9231V16.9227V16.9223V16.9219V16.9215V16.9211V16.9207V16.9203V16.9199V16.9195V16.9191V16.9187V16.9183V16.9179V16.9175V16.9171V16.9167V16.9163V16.9159V16.9155V16.9151V16.9146V16.9142V16.9138V16.9134V16.913V16.9126V16.9122V16.9118V16.9114V16.911V16.9106V16.9102V16.9098V16.9094V16.909V16.9086V16.9082V16.9078V16.9074V16.907V16.9066V16.9062V16.9058V16.9055V16.9051V16.9047V16.9043V16.9039V16.9035V16.9031V16.9027V16.9023V16.9019V16.9015V16.9011V16.9007V16.9003V16.8999V16.8995V16.8991V16.8987V16.8983V16.8979V16.8975V16.8971V16.8967V16.8963V16.896V16.8956V16.8952V16.8948V16.8944V16.894V16.8936V16.8932V16.8928V16.8924V16.892V16.8916V16.8912V16.8908V16.8905V16.8901V16.8897V16.8893V16.8889V16.8885V16.8881V16.8877V16.8873V16.8869V16.8865V16.8861V16.8858V16.8854V16.885V16.8846V16.8842V16.8838V16.8834V16.883V16.8826V16.8822V16.8819V16.8815V16.8811V16.8807V16.8803V16.8799V16.8795V16.8791V16.8788V16.8784V16.878V16.8776V16.8772V16.8768V16.8764V16.876V16.8757V16.8753V16.8749V16.8745V16.8741V16.8737V16.8733V16.8729V16.8726V16.8722V16.8718V16.8714V16.871V16.8706V16.8702V16.8699V16.8695V16.8691V16.8687V16.8683V16.8679V16.8675V16.8672V16.8668V16.8664V16.866V16.8656V16.8652V16.8648V16.8645V16.8641V16.8637V16.8633V16.8629V16.8625V16.8622V16.8618V16.8614V16.861V16.8606V16.8602V16.8599V16.8595V16.8591V16.8587V16.8583V16.8579V16.8576V16.8572V16.8568V16.8564V16.856V16.8556V16.8553V16.8549V16.8545V16.8541V16.8537V16.8533V16.853V16.8526V16.8522V16.8518V16.8514V16.8511V16.8507V16.8503V16.8499V16.8495V16.8491V16.8488V16.8484V16.848V16.8476V16.8472V16.8468V16.8465V16.8461V16.8457V16.8453V16.8449V16.8446V16.8442V16.8438V16.8434V16.843V16.8427V16.8423V16.8419V16.8415V16.8411V16.8407V16.8404V16.84V16.8396V16.8392V16.8388V16.8385V16.8381V16.8377V16.8373V16.8369V16.8366V16.8362V16.8358V16.8354V16.835V16.8346V16.8343V16.8339V16.8335V16.8331V16.8327V16.8324V16.832V16.8316V16.8312V16.8308V16.8305V16.8301V16.8297V16.8293V16.8289V16.8286V16.8282V16.8278V16.8274V16.827V16.8267V16.8263V16.8259V16.8255V16.8251V16.8247V16.8244V16.824V16.8236V16.8232V16.8228V16.8225V16.8221V16.8217V16.8213V16.8209V16.8206V16.8202V16.8198V16.8194V16.819V16.8186V16.8183V16.8179V16.8175V16.8171V16.8167V16.8164V16.816V16.8156V16.8152V16.8148V16.8145V16.8141V16.8137V16.8133V16.8129V16.8125V16.8122V16.8118V16.8114V16.811V16.8106V16.8103V16.8099V16.8095V16.8091V16.8087V16.8083V16.808V16.8076V16.8072V16.8068V16.8064V16.806V16.8057V16.8053V16.8049V16.8045V16.8041V16.8038V16.8034V16.803V16.8026V16.8022V16.8018V16.8015V16.8011V16.8007V16.8003V16.7999V16.7995V16.7991V16.7988V16.7984V16.798V16.7976V16.7972V16.7968V16.7965V16.7961V16.7957V16.7953V16.7949V16.7945V16.7942V16.7938V16.7934V16.793V16.7926V16.7922V16.7918V16.7915V16.7911V16.7907V16.7903V16.7899V16.7895V16.7891V16.7888V16.7884V16.788V16.7876V16.7872V16.7868V16.7864V16.7861V16.7857V16.7853V16.7849V16.7845V16.7841V16.7837V16.7833V16.783V16.7826V16.7822V16.7818V16.7814V16.781V16.7806V16.7802V16.7799V16.7795V16.7791V16.7787V16.7783V16.7779V16.7775V16.7771V16.7767V16.7763V16.776V16.7756V16.7752V16.7748V16.7744V16.774V16.7736V16.7732V16.7728V16.7724V16.7721V16.7717V16.7713V16.7709V16.7705V16.7701V16.7697V16.7693V16.7689V16.7685V16.7681V16.7677V16.7674V16.767V16.7666V16.7662V16.7658V16.7654V16.765V16.7646V16.7642V16.7638V16.7634V16.763V16.7626V16.7622V16.7618V16.7614V16.761V16.7607V16.7603V16.7599V16.7595V16.7591V16.7587V16.7583V16.7579V16.7575V16.7571V16.7567V16.7563V16.7559V16.7555V16.7551V16.7547V16.7543V16.7539V16.7535V16.7531V16.7527V16.7523V16.7519V16.7515V16.7511V16.7507V16.7503V16.7499V16.7495V16.7491V16.7487V16.7483V16.7479V16.7475V16.7471V16.7467V16.7463V16.7459V16.7455V16.7451V16.7447V16.7443V16.7439V16.7435V16.7431V16.7427V16.7423V16.7419V16.7415V16.7411V16.7407V16.7403V16.7399V16.7395V16.739V16.7386V16.7382V16.7378V16.7374V16.737V16.7366V16.7362V16.7358V16.7354V16.735V16.7346V16.7342V16.7338V16.7334V16.7329V16.7325V16.7321V16.7317V16.7313V16.7309V16.7305V16.7301C34.3497 12.1786 30.8286 8.58008 26.5997 8.58008C23.1856 8.58008 20.2464 10.9159 19.2238 14.2197C19.1191 14.5581 18.8757 14.8362 18.5541 14.9848C18.2325 15.1334 17.8629 15.1386 17.5373 14.999C16.9128 14.7313 16.2297 14.5801 15.5297 14.5801C12.6404 14.5801 10.2097 17.039 10.2097 20.1901C10.2097 20.6258 10.2591 21.0558 10.3505 21.4715C10.4923 22.1157 10.109 22.7592 9.47511 22.9414C7.62384 23.4737 6.21973 25.2537 6.21973 27.4301C6.21973 30.0234 8.19531 32.0367 10.5406 32.0801H12.9297C13.6201 32.0801 14.1797 32.6397 14.1797 33.3301C14.1797 34.0204 13.6201 34.5801 12.9297 34.5801H10.5297L10.5094 34.5799C6.69883 34.5181 3.71973 31.2932 3.71973 27.4301C3.71973 24.5653 5.35009 22.0732 7.74299 20.9334C7.72109 20.6884 7.70973 20.4404 7.70973 20.1901C7.70973 15.7612 11.159 12.0801 15.5297 12.0801C16.1314 12.0801 16.7191 12.1538 17.2824 12.2892ZM25.2998 22.9365L30.2677 26.9247C30.806 27.3569 31.5928 27.2709 32.0249 26.7325C32.4571 26.1942 32.3711 25.4074 31.8327 24.9753L24.7327 19.2753C24.2731 18.9062 23.618 18.9085 23.1609 19.2807L16.1609 24.9807C15.6256 25.4166 15.545 26.204 15.9809 26.7393C16.4168 27.2746 17.2042 27.3552 17.7395 26.9193L22.7998 22.7987V40.7601C22.7998 41.4505 23.3594 42.0101 24.0498 42.0101C24.7402 42.0101 25.2998 41.4505 25.2998 40.7601V22.9365Z" fill="var(--spectrum-global-color-gray-800, #292929)"/>
</svg>
