<svg width="96" height="96" viewBox="0 0 96 96" xmlns="http://www.w3.org/2000/svg">
<path fill-rule="evenodd" d="M74.5 20C77.8137 20 80.5 22.6863 80.5 26V32H16.5V26C16.5 22.6863 19.1863 20 22.5 20H74.5ZM16.5 36H80.5V70C80.5 73.3137 77.8137 76 74.5 76H22.5C19.1863 76 16.5 73.3137 16.5 70V36ZM84.5 26C84.5 20.4772 80.0228 16 74.5 16H22.5C16.9771 16 12.5 20.4772 12.5 26V70C12.5 75.5228 16.9771 80 22.5 80H74.5C80.0228 80 84.5 75.5228 84.5 70V26ZM24 28.5C22.6193 28.5 21.5 27.3807 21.5 26C21.5 24.6193 22.6193 23.5 24 23.5C25.3807 23.5 26.5 24.6193 26.5 26C26.5 27.3807 25.3807 28.5 24 28.5Z" fill="var(--spectrum-global-color-gray-800, #292929)"/>
</svg>
