<svg width="96" height="96" viewBox="0 0 96 96" xmlns="http://www.w3.org/2000/svg">
<path fill-rule="evenodd" d="M50.1886 17.9105C53.3446 14.7815 58.709 17.017 58.709 21.4612L58.709 74.5382C58.709 78.9703 53.3696 81.2112 50.2065 78.1065L38.5317 66.6472C38.1577 66.2801 37.6547 66.0745 37.1307 66.0745H28.7402C25.4265 66.0745 22.7402 63.3882 22.7402 60.0745V36.0523C22.7402 32.7386 25.4265 30.0523 28.7402 30.0523H37.1189C37.6464 30.0523 38.1525 29.844 38.5271 29.4726L50.1886 17.9105ZM54.709 21.4612C54.709 20.5723 53.6361 20.1252 53.0049 20.7511L41.3433 32.3131C41.3299 32.3265 41.3163 32.3398 41.3027 32.353L41.3027 63.7625C41.3131 63.7724 41.3233 63.7825 41.3336 63.7925L53.0085 75.2519C53.6411 75.8728 54.709 75.4246 54.709 74.5382L54.709 21.4612ZM37.3027 62.077L37.3027 34.0495C37.2416 34.0514 37.1803 34.0523 37.1189 34.0523H28.7402C27.6357 34.0523 26.7402 34.9478 26.7402 36.0523V60.0745C26.7402 61.1791 27.6357 62.0745 28.7402 62.0745H37.1307C37.1881 62.0745 37.2455 62.0753 37.3027 62.077ZM63.6855 34.7715C64.3497 33.889 65.6036 33.7119 66.4861 34.3761C70.5959 37.4687 73.2597 42.394 73.2597 47.9408C73.2597 53.5331 70.5522 58.4933 66.385 61.5811C65.4976 62.2387 64.245 62.0523 63.5874 61.1648C62.9298 60.2773 63.1161 59.0248 64.0036 58.3672C67.1964 56.0014 69.2597 52.2123 69.2597 47.9408C69.2597 43.7039 67.2298 39.9417 64.081 37.5722C63.1984 36.908 63.0213 35.6541 63.6855 34.7715Z" fill="var(--spectrum-global-color-gray-800, #292929)"/>
</svg>
