<svg width="48" height="48" viewBox="0 0 48 48" xmlns="http://www.w3.org/2000/svg">
<path fill-rule="evenodd" d="M10.7156 28.8472C10.8785 28.4122 11.1327 28.0172 11.4611 27.6887L30.0666 9.08326C32.5109 6.63891 36.474 6.63891 38.9184 9.08326C41.3627 11.5276 41.3627 15.4907 38.9184 17.935L20.3129 36.5405C19.9845 36.869 19.5894 37.1232 19.1544 37.2861L10.294 40.6036C8.48592 41.2806 6.7209 39.5156 7.39792 37.7075L10.7156 28.8472ZM13.8276 28.8578L19.1438 34.174L34.3164 19.0015L29.0002 13.6852L13.8276 28.8578ZM16.8963 35.4621L12.5396 31.1053L9.93178 38.0697L16.8963 35.4621ZM37.1506 16.1673L36.0842 17.2337L30.7679 11.9175L31.8344 10.851C33.3024 9.38299 35.6826 9.38299 37.1506 10.851C38.6186 12.3191 38.6186 14.6992 37.1506 16.1673Z" fill="var(--spectrum-global-color-gray-800, #292929)"/>
</svg>
