<svg width="160" height="160" viewBox="0 0 160 160" xmlns="http://www.w3.org/2000/svg">
<path fill-rule="evenodd" d="M97.052 88.5634C104.021 83.5611 108.844 75.7576 109.873 66.8C107.143 66.0195 104.26 65.6016 101.28 65.6016C95.9775 65.6016 90.984 66.9243 86.6115 69.2577C91.7629 74.4739 95.4618 81.1279 97.052 88.5634ZM89.625 92.4996C86.2748 93.7287 82.6552 94.3996 78.879 94.3996C75.8984 94.3996 73.0155 93.9816 70.2856 93.2011C71.1537 85.645 74.7213 78.9101 79.9996 73.985C85.114 78.7572 88.6222 85.2285 89.625 92.4996ZM73.3877 69.2577C67.935 74.779 64.1097 81.9112 62.6899 89.8761C54.8522 85.1094 49.2813 76.9858 47.9733 67.5015C51.3235 66.2724 54.9431 65.6016 58.7193 65.6016C64.0217 65.6016 69.0151 66.9243 73.3877 69.2577ZM79.9996 63.8751C86.1281 59.9061 93.4348 57.6016 101.28 57.6016C104.181 57.6016 107.008 57.9167 109.729 58.5145C107.469 43.5061 94.5177 32 78.879 32C63.0373 32 49.9532 43.8066 47.9461 59.1005C51.369 58.1243 54.9831 57.6016 58.7193 57.6016C66.5643 57.6016 73.8711 59.9061 79.9996 63.8751ZM39.6849 62.5249C27.6569 69.2186 19.5195 82.0597 19.5195 96.8013C19.5195 118.451 37.0699 136.001 58.7193 136.001C66.5643 136.001 73.8711 133.697 79.9996 129.728C86.1281 133.697 93.4348 136.001 101.28 136.001C122.929 136.001 140.48 118.451 140.48 96.8013C140.48 81.1468 131.303 67.6355 118.036 61.3531C117.072 40.5611 99.9094 24 78.879 24C57.4549 24 40.0451 41.1868 39.6849 62.5249ZM40.5463 71.4377C32.658 77.0997 27.5195 86.3504 27.5195 96.8013C27.5195 114.033 41.4882 128.001 58.7193 128.001C64.0217 128.001 69.0151 126.678 73.3877 124.345C66.7992 117.674 62.5867 108.65 62.1228 98.648C51.2504 93.4996 43.1253 83.4966 40.5463 71.4377ZM79.9996 119.618C74.9753 114.93 71.5011 108.602 70.4295 101.487C73.1509 102.084 75.9781 102.4 78.879 102.4C82.6152 102.4 86.2293 101.877 89.6522 100.901C88.6872 108.254 85.1614 114.801 79.9996 119.618ZM86.6115 124.345C93.4563 117.414 97.7367 107.945 97.9134 97.4762C108.013 91.8555 115.37 81.9003 117.469 70.1251C126.469 75.5985 132.48 85.4979 132.48 96.8013C132.48 114.033 118.511 128.001 101.28 128.001C95.9775 128.001 90.984 126.678 86.6115 124.345Z" fill="var(--spectrum-global-color-gray-800, #292929)"/>
</svg>
