<svg width="160" height="160" viewBox="0 0 160 160" xmlns="http://www.w3.org/2000/svg">
<path fill-rule="evenodd" d="M24 63.5762C24 42.8655 40.7893 26.0762 61.5 26.0762C82.2107 26.0762 99 42.8655 99 63.5762C99 84.2868 82.2107 101.076 61.5 101.076C40.7893 101.076 24 84.2868 24 63.5762ZM61.5 18.0762C36.371 18.0762 16 38.4472 16 63.5762C16 88.7051 36.371 109.076 61.5 109.076C72.6243 109.076 82.8162 105.084 90.7211 98.4542L94.704 102.437L92.4019 104.739C90.8398 106.301 90.8398 108.834 92.4019 110.396L121.909 139.903C126.281 144.275 133.369 144.275 137.741 139.903C142.113 135.531 142.113 128.443 137.741 124.071L108.234 94.5641C106.672 93.0021 104.139 93.0021 102.577 94.5641L100.361 96.7802L96.378 92.7973C103.008 84.8924 107 74.7005 107 63.5762C107 38.4472 86.629 18.0762 61.5 18.0762ZM105.405 103.049L100.887 107.568L127.566 134.246C128.814 135.494 130.837 135.494 132.084 134.246C133.332 132.999 133.332 130.976 132.084 129.728L105.405 103.049ZM46.8144 48.8903C48.3765 47.3282 50.9092 47.3282 52.4712 48.8903L61.8421 58.2612L71.2129 48.8903C72.775 47.3282 75.3077 47.3282 76.8698 48.8903C78.4319 50.4524 78.4319 52.9851 76.8698 54.5472L67.4989 63.918L76.8698 73.2888C78.4319 74.8509 78.4319 77.3836 76.8698 78.9457C75.3077 80.5078 72.775 80.5078 71.2129 78.9457L61.8421 69.5749L52.4712 78.9457C50.9092 80.5078 48.3765 80.5078 46.8144 78.9457C45.2523 77.3836 45.2523 74.8509 46.8144 73.2888L56.1852 63.918L46.8144 54.5472C45.2523 52.9851 45.2523 50.4524 46.8144 48.8903Z" fill="var(--spectrum-global-color-gray-800, #292929)"/>
</svg>
