<svg width="48" height="48" viewBox="0 0 48 48" xmlns="http://www.w3.org/2000/svg">
<path fill-rule="evenodd" d="M9.13994 19.661C11.0187 13.2381 16.9516 8.54004 23.9802 8.54004C30.1211 8.54004 35.4228 12.1137 37.9164 17.3069L33.9393 15.4476C33.3139 15.1552 32.5699 15.4252 32.2776 16.0506C31.9852 16.676 32.2552 17.42 32.8805 17.7123L39.1905 20.6623C39.8011 20.9478 40.5279 20.6978 40.8338 20.0973L44.1138 13.6573C44.4271 13.0421 44.1824 12.2894 43.5672 11.9761C42.9521 11.6628 42.1994 11.9075 41.8861 12.5227L40.0872 16.0547C37.1579 10.1171 31.0495 6.04004 23.9802 6.04004C15.8088 6.04004 8.92175 11.502 6.74048 18.9591C6.54667 19.6217 6.92669 20.316 7.58928 20.5098C8.25187 20.7036 8.94612 20.3236 9.13994 19.661ZM8.80917 27.3977C8.19866 27.1122 7.47179 27.3622 7.16593 27.9627L3.88593 34.4027C3.57261 35.0179 3.81731 35.7706 4.43247 36.0839C5.04764 36.3972 5.80032 36.1525 6.11363 35.5373L7.89733 32.0352C10.8437 37.9239 16.9261 41.9599 23.9597 41.9599C32.1311 41.9599 39.0181 36.498 41.1994 29.0409C41.3932 28.3783 41.0132 27.684 40.3506 27.4902C39.688 27.2964 38.9937 27.6764 38.7999 28.339C36.9212 34.7619 30.9882 39.4599 23.9597 39.4599C17.8351 39.4599 12.5453 35.9053 10.0434 30.7344L14.0604 32.6124C14.6858 32.9048 15.4298 32.6348 15.7221 32.0094C16.0145 31.384 15.7446 30.64 15.1192 30.3477L8.80917 27.3977Z" fill="var(--spectrum-global-color-gray-800, #292929)"/>
</svg>
