<svg width="96" height="96" viewBox="0 0 96 96" xmlns="http://www.w3.org/2000/svg">
<path fill-rule="evenodd" d="M30.9545 16C26.0176 16 22 19.9865 22 24.9231V71.0769C22 76.0135 26.0176 80 30.9545 80H68.0455C72.9824 80 77 76.0135 77 71.0769V43.9446C77 41.5751 76.0544 39.3045 74.3741 37.6318L55.2661 18.6103C53.5861 16.9379 51.3095 16 48.9375 16H30.9545ZM26 24.9231C26 22.2127 28.2097 20 30.9545 20H48.9375C48.9584 20 48.9792 20.0001 49 20.0004V37.55C49 40.6393 51.5883 43 54.6 43H72.908C72.9688 43.309 73 43.6253 73 43.9446V71.0769C73 73.7873 70.7903 76 68.0455 76H30.9545C28.2097 76 26 73.7873 26 71.0769V24.9231ZM70.0788 39L53 21.9985V37.55C53 38.2714 53.6353 39 54.6 39H70.0788Z" fill="var(--spectrum-global-color-gray-800, #292929)"/>
</svg>
