<svg width="48" height="48" viewBox="0 0 48 48" xmlns="http://www.w3.org/2000/svg">
<path fill-rule="evenodd" d="M8.25 14.4C8.25 12.8812 9.48122 11.65 11 11.65H37C38.5188 11.65 39.75 12.8812 39.75 14.4V33.6C39.75 35.1188 38.5188 36.35 37 36.35H11C9.48122 36.35 8.25 35.1188 8.25 33.6V14.4ZM11 9.15002C8.1005 9.15002 5.75 11.5005 5.75 14.4V33.6C5.75 36.4995 8.1005 38.85 11 38.85H37C39.8995 38.85 42.25 36.4995 42.25 33.6V14.4C42.25 11.5005 39.8995 9.15002 37 9.15002H11ZM19.174 19.4839C19.6621 18.9957 19.6621 18.2043 19.174 17.7161C18.6858 17.228 17.8944 17.228 17.4062 17.7161L12.1962 22.9261C11.7201 23.4022 11.7066 24.1698 12.1657 24.6623L17.3757 30.2523C17.8463 30.7573 18.6373 30.7851 19.1423 30.3144C19.6474 29.8437 19.6752 29.0528 19.2045 28.5478L14.8173 23.8406L19.174 19.4839ZM28.8578 17.6856C29.3628 17.2149 30.1538 17.2427 30.6245 17.7478L35.8345 23.3378C36.2935 23.8303 36.28 24.5978 35.804 25.0739L30.594 30.2839C30.1058 30.7721 29.3144 30.7721 28.8262 30.2839C28.338 29.7957 28.338 29.0043 28.8262 28.5161L33.1829 24.1595L28.7957 19.4523C28.325 18.9473 28.3528 18.1563 28.8578 17.6856ZM27.6163 16.3828C27.8166 15.7221 27.4435 15.0242 26.7828 14.8238C26.1222 14.6235 25.4242 14.9966 25.2239 15.6573L20.3839 31.6173C20.1835 32.2779 20.5567 32.9759 21.2173 33.1762C21.878 33.3766 22.5759 33.0034 22.7763 32.3428L27.6163 16.3828Z" fill="var(--spectrum-global-color-gray-800, #292929)"/>
</svg>
