<svg width="160" height="160" viewBox="0 0 160 160" xmlns="http://www.w3.org/2000/svg">
<path fill-rule="evenodd" d="M35.7598 32.0996C29.1389 32.0996 23.7598 37.4787 23.7598 44.0996V128.23H41.7402V111.65C41.7402 105.021 47.1111 99.6497 53.7402 99.6497H65.8302C72.4594 99.6497 77.8302 105.021 77.8302 111.65V128.23H95.8298V44.0996C95.8298 37.4787 90.4506 32.0996 83.8298 32.0996H35.7598ZM73.8496 136.23H99.8298C102.039 136.23 103.83 134.439 103.83 132.23V44.0996C103.83 33.0605 94.8689 24.0996 83.8298 24.0996H35.7598C24.7206 24.0996 15.7598 33.0605 15.7598 44.0996V132.23C15.7598 134.439 17.5506 136.23 19.7598 136.23H45.7209L45.7402 136.23H73.8302L73.8496 136.23ZM69.8302 128.23V111.65C69.8302 109.439 68.0411 107.65 65.8302 107.65H53.7402C51.5294 107.65 49.7402 109.439 49.7402 111.65V128.23H69.8302ZM110.61 49.7096C110.61 47.5005 112.401 45.7096 114.61 45.7096H124.24C135.289 45.7096 144.24 54.6605 144.24 65.7096V132.23C144.24 134.439 142.449 136.23 140.24 136.23H114.61C112.401 136.23 110.61 134.439 110.61 132.23C110.61 130.02 112.401 128.23 114.61 128.23H136.24V65.7096C136.24 59.0787 130.871 53.7096 124.24 53.7096H114.61C112.401 53.7096 110.61 51.9187 110.61 49.7096ZM48.5295 42.8296H42.7695C40.5604 42.8296 38.7695 44.6205 38.7695 46.8296V52.5896C38.7695 54.7987 40.5604 56.5896 42.7695 56.5896H48.5295C50.7387 56.5896 52.5295 54.7987 52.5295 52.5896V46.8296C52.5295 44.6205 50.7387 42.8296 48.5295 42.8296ZM71.0391 42.8296H76.7991C79.0082 42.8296 80.7991 44.6205 80.7991 46.8296V52.5896C80.7991 54.7987 79.0082 56.5896 76.7991 56.5896H71.0391C68.8299 56.5896 67.0391 54.7987 67.0391 52.5896V46.8296C67.0391 44.6205 68.8299 42.8296 71.0391 42.8296ZM48.5295 70.8896H42.7695C40.5604 70.8896 38.7695 72.6804 38.7695 74.8896V80.6496C38.7695 82.8587 40.5604 84.6496 42.7695 84.6496H48.5295C50.7387 84.6496 52.5295 82.8587 52.5295 80.6496V74.8896C52.5295 72.6804 50.7387 70.8896 48.5295 70.8896ZM71.0391 70.8895H76.7991C79.0082 70.8895 80.7991 72.6804 80.7991 74.8895V80.6495C80.7991 82.8587 79.0082 84.6495 76.7991 84.6495H71.0391C68.8299 84.6495 67.0391 82.8587 67.0391 80.6495V74.8895C67.0391 72.6804 68.8299 70.8895 71.0391 70.8895ZM122.91 70.0597H117.15C114.941 70.0597 113.15 71.8506 113.15 74.0597V79.8197C113.15 82.0288 114.941 83.8197 117.15 83.8197H122.91C125.12 83.8197 126.91 82.0288 126.91 79.8197V74.0597C126.91 71.8506 125.12 70.0597 122.91 70.0597ZM117.15 98.1197H122.91C125.12 98.1197 126.91 99.9106 126.91 102.12V107.88C126.91 110.089 125.12 111.88 122.91 111.88H117.15C114.941 111.88 113.15 110.089 113.15 107.88V102.12C113.15 99.9106 114.941 98.1197 117.15 98.1197Z" fill="var(--spectrum-global-color-gray-800, #292929)"/>
</svg>
