<svg width="96" height="96" viewBox="0 0 96 96" xmlns="http://www.w3.org/2000/svg">
<path fill-rule="evenodd" d="M46 81C46 82.1046 46.8954 83 48 83C49.1046 83 50 82.1046 50 81V18C50 17.9395 49.9973 17.8796 49.9921 17.8205L60.5858 28.4142C61.3668 29.1953 62.6332 29.1953 63.4142 28.4142C64.1953 27.6332 64.1953 26.3668 63.4142 25.5858L49.4142 11.5858C48.6332 10.8047 47.3668 10.8047 46.5858 11.5858L32.5858 25.5858C31.8047 26.3668 31.8047 27.6332 32.5858 28.4142C33.3668 29.1953 34.6332 29.1953 35.4142 28.4142L46.0079 17.8205C46.0027 17.8796 46 17.9395 46 18V81ZM47.8205 16.0079C47.8796 16.0027 47.9395 16 48 16C48.0605 16 48.1204 16.0027 48.1795 16.0079L48 15.8284L47.8205 16.0079Z" fill="var(--spectrum-global-color-gray-800, #292929)"/>
</svg>
