<svg width="48" height="48" viewBox="0 0 48 48" xmlns="http://www.w3.org/2000/svg">
<path fill-rule="evenodd" d="M11.7656 10.5098C9.69598 10.5098 8.01562 12.1901 8.01562 14.2598V30.2348C8.01562 30.9251 7.45598 31.4848 6.76562 31.4848C6.07527 31.4848 5.51562 30.9251 5.51562 30.2348V14.2598C5.51562 10.8094 8.31527 8.00977 11.7656 8.00977H27.7406C28.431 8.00977 28.9906 8.56941 28.9906 9.25977C28.9906 9.95012 28.431 10.5098 27.7406 10.5098H11.7656ZM11.5156 16.7649C11.5156 15.2461 12.7468 14.0149 14.2656 14.0149H25.0713V24.8699C25.0713 25.2699 25.5163 25.5099 25.8463 25.2849L28.2813 23.6599C28.4513 23.5499 28.6663 23.5499 28.8363 23.6599L31.2713 25.2849C31.6013 25.5049 32.0463 25.2699 32.0463 24.8699V14.0149H32.2406C33.7594 14.0149 34.9906 15.2461 34.9906 16.7649V28.4999C34.9906 29.1902 35.5503 29.7499 36.2406 29.7499C36.931 29.7499 37.4906 29.1902 37.4906 28.4999V16.7649C37.4906 13.8654 35.1401 11.5149 32.2406 11.5149H14.2656C11.3661 11.5149 9.01562 13.8654 9.01562 16.7649V34.7399C9.01562 37.6394 11.3661 39.9899 14.2656 39.9899H14.2965H14.3274H14.3581H14.3888H14.4194H14.45H14.4805H14.5109H14.5412H14.5714H14.6016H14.6317H14.6618H14.6917H14.7216H14.7515H14.7812H14.8109H14.8405H14.8701H14.8996H14.929H14.9583H14.9876H15.0168H15.0459H15.075H15.104H15.1329H15.1618H15.1906H15.2193H15.248H15.2766H15.3051H15.3336H15.362H15.3904H15.4186H15.4468H15.475H15.5031H15.5311H15.559H15.5869H15.6148H15.6425H15.6702H15.6979H15.7255H15.753H15.7804H15.8078H15.8352H15.8624H15.8896H15.9168H15.9439H15.9709H15.9979H16.0248H16.0517H16.0785H16.1052H16.1319H16.1585H16.1851H16.2116H16.238H16.2644H16.2908H16.317H16.3433H16.3694H16.3955H16.4216H16.4476H16.4735H16.4994H16.5253H16.5511H16.5768H16.6025H16.6281H16.6537H16.6792H16.7046H16.73H16.7554H16.7807H16.806H16.8312H16.8563H16.8814H16.9065H16.9315H16.9564H16.9813H17.0062H17.031H17.0557H17.0804H17.1051H17.1297H17.1543H17.1788H17.2032H17.2276H17.252H17.2763H17.3006H17.3248H17.349H17.3732H17.3973H17.4213H17.4453H17.4693H17.4932H17.517H17.5409H17.5646H17.5884H17.6121H17.6357H17.6593H17.6829H17.7064H17.7299H17.7533H17.7767H17.8001H17.8234H17.8467H17.8699H17.8931H17.9162H17.9393H17.9624H17.9854H18.0084H18.0314H18.0543H18.0772H18.1H18.1228H18.1456H18.1683H18.191H18.2137H18.2363H18.2589H18.2814H18.3039H18.3264H18.3488H18.3712H18.3936H18.4159H18.4382H18.4605H18.4827H18.5049H18.5271H18.5492H18.5713H18.5934H18.6154H18.6374H18.6594H18.6813H18.7032H18.7251H18.7469H18.7688H18.7905H18.8123H18.834H18.8557H18.8774H18.899H18.9206H18.9422H18.9638H18.9853H19.0068H19.0282H19.0497H19.0711H19.0925H19.1138H19.1352H19.1565H19.1778H19.199H19.2203H19.2415H19.2626H19.2838H19.3049H19.326H19.3471H19.3682H19.3892H19.4103H19.4312H19.4522H19.4732H19.4941H19.515H19.5359H19.5567H19.5776H19.5984H19.6192H19.64H19.6607H19.6815H19.7022H19.7229H19.7436H19.7642H19.7849H19.8055H19.8261H19.8467H19.8673H19.8879H19.9084H19.9289H19.9494H19.9699H19.9904H20.0108H20.0313H20.0517H20.0721H20.0925H20.1129H20.1333H20.1536H20.174H20.1943H20.2146H20.2349H20.2552H20.2755H20.2958H20.316H20.3363H20.3565H20.3767H20.3969H20.4171H20.4373H20.4575H20.4777H20.4978H20.518H20.5381H20.5582H20.5784H20.5985H20.6186H20.6387H20.6588H20.6788H20.6989H20.719H20.739H20.7591H20.7792H20.7992H20.8192H20.8393H20.8593H20.8793H20.8993H20.9194H20.9394H20.9594H20.9794H20.9994H21.0194H21.0394H21.0593H21.0793H21.0993H21.1193H21.1393H21.1593H21.1792H21.1992H21.2192H21.2392H21.2592H21.2791H21.2991H21.3191H21.3391H21.3591H21.379H21.399H21.419H21.439H21.459H21.479H21.499H21.519H21.539H21.559H21.579H21.599H21.619H21.6391H21.6591H21.6791H21.6992H21.7192H21.7393H21.7593H21.7794H21.7995H21.8195H21.8396H21.8597H21.8798H21.8999H21.92H21.9402H21.9603H21.9804H22.0006H22.0208H22.0409H22.0611H22.0813H22.1015H22.1217H22.1419H22.1622H22.1824H22.2027H22.2229H22.2432H22.2635H22.2838H22.3042H22.3245H22.3448H22.3652H22.3856H22.406H22.4264H22.4468H22.4672H22.4877H22.5081H22.5286H22.5491H22.5696H22.5901H22.6107H22.6313H22.6518H22.6724H22.693H22.7137H22.7343H22.755H22.7757H22.7964H22.8171H22.8379H22.8586H22.8794H22.9002H22.9211H22.9419H22.9628H22.9837H23.0046H23.0255H23.0465H23.0675H23.0885H23.1095H23.1305H23.1516H23.1727H23.1938H23.2149H23.2361H23.2573H23.2785H23.2998H23.321H23.3423H23.3636H23.385H23.4063H23.4277H23.4492H23.4706H23.4921H23.5136H23.5351H23.5567H23.5783H23.5999H23.6215H23.6432H23.6649H23.6867H23.7084H23.7302H23.752H23.7739H23.7958H23.8177H23.8397H23.8616H23.8837H23.9057H23.9278H23.9499H23.972H23.9942H24.0164H24.0387H24.0609H24.0832H24.1056H24.128H24.1504H24.1728H24.1953H24.2178H24.2404H24.263H24.2856H24.3083H24.331H24.3537H24.3765H24.3993H24.4222H24.4451H24.468H24.491H24.514H24.537H24.5601H24.5832H24.6064H24.6296H24.6528H24.6761H24.6995H24.7228H24.7462H24.7697H24.7932H24.8167H24.8403H24.8639H24.8876H24.9113H24.935H24.9588H24.9827H25.0065H25.0305H25.0544H25.0785H25.1025H25.1266H25.1508H25.175H25.1992H25.2235H25.2479H25.2722H25.2967H25.3212H25.3457H25.3703H25.3949H25.4196H25.4443H25.469H25.4939H25.5187H25.5437H25.5686H25.5936H25.6187H25.6438H25.669H25.6942H25.7195H25.7448H25.7702H25.7956H25.8211H25.8466H25.8722H25.8979H25.9236H25.9493H25.9751H26.001C26.6913 39.9899 27.251 39.4303 27.251 38.7399C27.251 38.0495 26.6913 37.4899 26.001 37.4899H25.9751H25.9493H25.9236H25.8979H25.8722H25.8466H25.8211H25.7956H25.7702H25.7448H25.7195H25.6942H25.669H25.6438H25.6187H25.5936H25.5686H25.5437H25.5187H25.4939H25.469H25.4443H25.4196H25.3949H25.3703H25.3457H25.3212H25.2967H25.2722H25.2479H25.2235H25.1992H25.175H25.1508H25.1266H25.1025H25.0785H25.0544H25.0305H25.0065H24.9827H24.9588H24.935H24.9113H24.8876H24.8639H24.8403H24.8167H24.7932H24.7697H24.7462H24.7228H24.6995H24.6761H24.6528H24.6296H24.6064H24.5832H24.5601H24.537H24.514H24.491H24.468H24.4451H24.4222H24.3993H24.3765H24.3537H24.331H24.3083H24.2856H24.263H24.2404H24.2178H24.1953H24.1728H24.1504H24.128H24.1056H24.0832H24.0609H24.0387H24.0164H23.9942H23.972H23.9499H23.9278H23.9057H23.8837H23.8616H23.8397H23.8177H23.7958H23.7739H23.752H23.7302H23.7084H23.6867H23.6649H23.6432H23.6215H23.5999H23.5783H23.5567H23.5351H23.5136H23.4921H23.4706H23.4492H23.4277H23.4063H23.385H23.3636H23.3423H23.321H23.2998H23.2785H23.2573H23.2361H23.2149H23.1938H23.1727H23.1516H23.1305H23.1095H23.0885H23.0675H23.0465H23.0255H23.0046H22.9837H22.9628H22.9419H22.9211H22.9002H22.8794H22.8586H22.8379H22.8171H22.7964H22.7757H22.755H22.7343H22.7137H22.693H22.6724H22.6518H22.6313H22.6107H22.5901H22.5696H22.5491H22.5286H22.5081H22.4877H22.4672H22.4468H22.4264H22.406H22.3856H22.3652H22.3448H22.3245H22.3042H22.2838H22.2635H22.2432H22.2229H22.2027H22.1824H22.1622H22.1419H22.1217H22.1015H22.0813H22.0611H22.0409H22.0208H22.0006H21.9804H21.9603H21.9402H21.92H21.8999H21.8798H21.8597H21.8396H21.8195H21.7995H21.7794H21.7593H21.7393H21.7192H21.6992H21.6791H21.6591H21.6391H21.619H21.599H21.579H21.559H21.539H21.519H21.499H21.479H21.459H21.439H21.419H21.399H21.379H21.3591H21.3391H21.3191H21.2991H21.2791H21.2592H21.2392H21.2192H21.1992H21.1792H21.1593H21.1393H21.1193H21.0993H21.0793H21.0593H21.0394H21.0194H20.9994H20.9794H20.9594H20.9394H20.9194H20.8993H20.8793H20.8593H20.8393H20.8192H20.7992H20.7792H20.7591H20.739H20.719H20.6989H20.6788H20.6588H20.6387H20.6186H20.5985H20.5784H20.5582H20.5381H20.518H20.4978H20.4777H20.4575H20.4373H20.4171H20.3969H20.3767H20.3565H20.3363H20.316H20.2958H20.2755H20.2552H20.2349H20.2146H20.1943H20.174H20.1536H20.1333H20.1129H20.0925H20.0721H20.0517H20.0313H20.0108H19.9904H19.9699H19.9494H19.9289H19.9084H19.8879H19.8673H19.8467H19.8261H19.8055H19.7849H19.7642H19.7436H19.7229H19.7022H19.6815H19.6607H19.64H19.6192H19.5984H19.5776H19.5567H19.5359H19.515H19.4941H19.4732H19.4522H19.4312H19.4103H19.3892H19.3682H19.3471H19.326H19.3049H19.2838H19.2626H19.2415H19.2203H19.199H19.1778H19.1565H19.1352H19.1138H19.0925H19.0711H19.0497H19.0282H19.0068H18.9853H18.9638H18.9422H18.9206H18.899H18.8774H18.8557H18.834H18.8123H18.7905H18.7688H18.7469H18.7251H18.7032H18.6813H18.6594H18.6374H18.6154H18.5934H18.5713H18.5492H18.5271H18.5049H18.4827H18.4605H18.4382H18.4159H18.3936H18.3712H18.3488H18.3264H18.3039H18.2814H18.2589H18.2363H18.2137H18.191H18.1683H18.1456H18.1228H18.1H18.0772H18.0543H18.0314H18.0084H17.9854H17.9624H17.9393H17.9162H17.8931H17.8699H17.8467H17.8234H17.8001H17.7767H17.7533H17.7299H17.7064H17.6829H17.6593H17.6357H17.6121H17.5884H17.5646H17.5409H17.517H17.4932H17.4693H17.4453H17.4213H17.3973H17.3732H17.349H17.3248H17.3006H17.2763H17.252H17.2276H17.2032H17.1788H17.1543H17.1297H17.1051H17.0804H17.0557H17.031H17.0062H16.9813H16.9564H16.9315H16.9065H16.8814H16.8563H16.8312H16.806H16.7807H16.7554H16.73H16.7046H16.6792H16.6537H16.6281H16.6025H16.5768H16.5511H16.5253H16.4994H16.4735H16.4476H16.4216H16.3955H16.3694H16.3433H16.317H16.2908H16.2644H16.238H16.2116H16.1851H16.1585H16.1319H16.1052H16.0785H16.0517H16.0248H15.9979H15.9709H15.9439H15.9168H15.8896H15.8624H15.8352H15.8078H15.7804H15.753H15.7255H15.6979H15.6702H15.6425H15.6148H15.5869H15.559H15.5311H15.5031H15.475H15.4468H15.4186H15.3904H15.362H15.3336H15.3051H15.2766H15.248H15.2193H15.1906H15.1618H15.1329H15.104H15.075H15.0459H15.0168H14.9876H14.9583H14.929H14.8996H14.8701H14.8405H14.8109H14.7812H14.7515H14.7216H14.6917H14.6618H14.6317H14.6016H14.5714H14.5412H14.5109H14.4805H14.45H14.4194H14.3888H14.3581H14.3274H14.2965H14.2656C12.7468 37.4899 11.5156 36.2587 11.5156 34.7399V16.7649ZM36.1016 45.9492C40.1747 45.9492 43.4766 42.6473 43.4766 38.5742C43.4766 34.5011 40.1747 31.1992 36.1016 31.1992C32.0285 31.1992 28.7266 34.5011 28.7266 38.5742C28.7266 42.6473 32.0285 45.9492 36.1016 45.9492ZM37.4771 35.199C37.4771 34.5086 36.9174 33.949 36.2271 33.949C35.5367 33.949 34.9771 34.5086 34.9771 35.199V37.449H32.7271C32.0367 37.449 31.4771 38.0086 31.4771 38.699C31.4771 39.3893 32.0367 39.949 32.7271 39.949H34.9771V42.199C34.9771 42.8893 35.5367 43.449 36.2271 43.449C36.9174 43.449 37.4771 42.8893 37.4771 42.199V39.949H39.7271C40.4174 39.949 40.9771 39.3893 40.9771 38.699C40.9771 38.0086 40.4174 37.449 39.7271 37.449H37.4771V35.199Z" fill="var(--spectrum-global-color-gray-800, #292929)"/>
</svg>
