<svg width="160" height="160" viewBox="0 0 160 160" xmlns="http://www.w3.org/2000/svg">
<path d="M80 51.74C82.2092 51.74 84 53.5309 84 55.74V94.74C84 96.9491 82.2092 98.74 80 98.74C77.7909 98.74 76 96.9491 76 94.74V55.74C76 53.5309 77.7909 51.74 80 51.74Z" fill="var(--spectrum-global-color-gray-800, #292929)"/>
<path d="M86 110.74C86 114.054 83.3137 116.74 80 116.74C76.6863 116.74 74 114.054 74 110.74C74 107.426 76.6863 104.74 80 104.74C83.3137 104.74 86 107.426 86 110.74Z" fill="var(--spectrum-global-color-gray-800, #292929)"/>
<path fill-rule="evenodd" d="M66.1444 29.7429C72.2949 19.0695 87.696 19.0763 93.854 29.7396L142.924 114.74C149.083 125.405 141.39 138.74 129.07 138.74H30.9201C18.5997 138.74 10.9069 125.406 17.0661 114.74L66.1444 29.7429ZM86.9259 33.7398C83.8437 28.4036 76.1452 28.4107 73.0759 33.7371L23.9941 118.74C20.9136 124.074 24.7606 130.74 30.9201 130.74H129.07C135.23 130.74 139.077 124.075 135.996 118.74L86.9259 33.7398Z" fill="var(--spectrum-global-color-gray-800, #292929)"/>
</svg>
