<svg width="160" height="160" viewBox="0 0 160 160" xmlns="http://www.w3.org/2000/svg">
<path fill-rule="evenodd" d="M24.25 41.3828C24.25 33.6508 30.518 27.3828 38.25 27.3828H104.79C112.522 27.3828 118.79 33.6508 118.79 41.3828V54.124C118.79 56.3332 116.999 58.124 114.79 58.124C112.581 58.124 110.79 56.3332 110.79 54.124V41.3828C110.79 38.0691 108.103 35.3828 104.79 35.3828H38.25C34.9363 35.3828 32.25 38.0691 32.25 41.3828V84.68L48.4867 59.5132C52.1952 53.7649 60.6332 53.8577 64.2145 59.6861L64.2179 59.6916L65.4928 61.774C66.6462 63.658 66.054 66.1205 64.1699 67.2739C62.2858 68.4274 59.8233 67.8351 58.6699 65.951L57.3984 63.8742L57.3973 63.8724C56.8981 63.0629 55.7249 63.0506 55.2091 63.8502L36.3701 93.0506C36.9614 93.2456 37.5934 93.351 38.25 93.351H57.25C59.4591 93.351 61.25 95.1419 61.25 97.351C61.25 99.5602 59.4591 101.351 57.25 101.351H38.25C30.518 101.351 24.25 95.083 24.25 87.351V41.3828ZM94.1682 57.1562C97.4819 57.1562 100.168 54.47 100.168 51.1563C100.168 47.8425 97.4819 45.1562 94.1682 45.1562C90.8545 45.1562 88.1682 47.8425 88.1682 51.1563C88.1682 54.47 90.8545 57.1562 94.1682 57.1562ZM68.2622 79.1269C68.2622 71.395 74.5302 65.127 82.2622 65.127H121.75C129.482 65.127 135.75 71.395 135.75 79.127V118.615C135.75 126.347 129.482 132.615 121.75 132.615H82.2622C74.5302 132.615 68.2622 126.347 68.2622 118.615V79.1269ZM82.2622 73.127C78.9485 73.127 76.2622 75.8132 76.2622 79.1269V118.615C76.2622 121.928 78.9485 124.615 82.2622 124.615H121.75C125.064 124.615 127.75 121.928 127.75 118.615V79.127C127.75 75.8132 125.064 73.127 121.75 73.127H82.2622ZM95.3376 85.7038L114.845 96.8927C117.029 98.1457 117.025 101.272 114.838 102.52L95.3039 113.662C93.1162 114.91 90.3854 113.344 90.3884 110.843L90.4154 88.5116C90.4184 86.0106 93.153 84.4507 95.3376 85.7038Z" fill="var(--spectrum-global-color-gray-800, #292929)"/>
</svg>
