<svg width="48" height="48" viewBox="0 0 48 48" xmlns="http://www.w3.org/2000/svg">
<path fill-rule="evenodd" d="M14.6591 7.75C12.068 7.75 10 9.87749 10 12.4615V35.5385C10 38.1225 12.068 40.25 14.6591 40.25H32.8409C35.432 40.25 37.5 38.1225 37.5 35.5385V21.9723C37.5 20.7288 37.0137 19.5325 36.1421 18.6475L26.7755 9.13675C25.9032 8.2511 24.7162 7.75 23.4743 7.75H14.6591ZM12.5 12.4615C12.5 11.2221 13.4846 10.25 14.6591 10.25H23.4743C23.4829 10.25 23.4914 10.2501 23.5 10.2502V18.775C23.5 20.4677 24.9162 21.75 26.55 21.75H34.9891C34.9963 21.8235 35 21.8977 35 21.9723V35.5385C35 36.7779 34.0154 37.75 32.8409 37.75H14.6591C13.4846 37.75 12.5 36.7779 12.5 35.5385V12.4615ZM33.2266 19.25L26 11.9122V18.775C26 18.9877 26.1956 19.25 26.55 19.25H33.2266Z" fill="var(--spectrum-global-color-gray-800, #292929)"/>
</svg>
