<svg width="160" height="160" viewBox="0 0 160 160" xmlns="http://www.w3.org/2000/svg">
<path fill-rule="evenodd" d="M80 40.6895C80 27.1595 90.97 16.1895 104.5 16.1895C118.03 16.1895 129 27.1595 129 40.6895C129 54.2195 118.03 65.1895 104.5 65.1895C90.97 65.1895 80 54.2195 80 40.6895ZM115.42 51.6195C116.98 50.0495 116.98 47.5195 115.42 45.9595L110.16 40.6995L115.42 35.4395C116.98 33.8695 116.98 31.3395 115.42 29.7795C113.86 28.2195 111.32 28.2195 109.76 29.7795L104.5 35.0395L99.24 29.7795C97.68 28.2195 95.14 28.2195 93.58 29.7795C92.02 31.3495 92.02 33.8795 93.58 35.4395L98.84 40.6995L93.58 45.9595C92.02 47.5295 92.02 50.0595 93.58 51.6195C94.36 52.3995 95.38 52.7895 96.41 52.7895C97.44 52.7895 98.46 52.3995 99.24 51.6195L104.5 46.3595L109.76 51.6195C110.54 52.3995 111.56 52.7895 112.59 52.7895C113.62 52.7895 114.64 52.3995 115.42 51.6195ZM16 43.2791C16 35.2554 22.5521 28.8105 30.5606 28.8105H65.375C67.5841 28.8105 69.375 30.6014 69.375 32.8105C69.375 35.0197 67.5841 36.8105 65.375 36.8105H30.5606C26.9042 36.8105 24 39.7395 24 43.2791V80.4295C24 83.9691 26.9042 86.8981 30.5606 86.8981H40.0177C42.2203 86.8981 44.0085 88.6788 44.0177 90.8813C44.0371 95.5203 44.0041 102.015 43.9674 107.239L66.5121 87.8644C67.2376 87.2409 68.1626 86.8981 69.1192 86.8981H97.4395C101.096 86.8981 104 83.9691 104 80.4295V75.1855C104 72.9764 105.791 71.1855 108 71.1855C110.209 71.1855 112 72.9764 112 75.1855V80.4295C112 88.4532 105.448 94.8981 97.4395 94.8981H70.6018L48.3928 113.984C43.5579 118.139 35.9121 114.773 35.9599 108.261C35.9896 104.21 36.019 99.2159 36.023 94.8981H30.5606C22.5521 94.8981 16 88.4532 16 80.4295V43.2791ZM119 69.8105C119 67.6014 120.791 65.8105 123 65.8105H130.64C137.984 65.8105 144 71.7202 144 79.0865V112.005C144 119.371 137.984 125.281 130.64 125.281H126.253C126.258 128.997 126.283 133.214 126.309 136.662C126.354 142.834 119.111 146.011 114.538 142.082L94.9806 125.28H71.3608C65.6752 125.28 60.8047 121.748 58.8794 116.748C58.0857 114.686 59.1134 112.371 61.175 111.578C63.2366 110.784 65.5514 111.812 66.3452 113.873C67.1079 115.854 69.0576 117.28 71.3608 117.28H96.4629C97.4193 117.28 98.344 117.623 99.0695 118.246L118.295 134.763C118.266 130.326 118.241 125.086 118.257 121.264C118.267 119.061 120.055 117.281 122.257 117.281H130.64C133.635 117.281 136 114.884 136 112.005V79.0865C136 76.2068 133.635 73.8105 130.64 73.8105H123C120.791 73.8105 119 72.0197 119 69.8105Z" fill="var(--spectrum-global-color-gray-800, #292929)"/>
</svg>
