<svg width="48" height="48" viewBox="0 0 48 48" xmlns="http://www.w3.org/2000/svg">
<path fill-rule="evenodd" d="M5.78504 17.7137C5.32107 11.8901 9.51347 6.74635 15.4979 6.75C19.1501 6.75223 22.3299 8.76619 23.9997 11.7442C25.6696 8.7662 28.8494 6.75224 32.5015 6.75C38.4858 6.74633 42.6783 11.8892 42.2145 17.7128C41.8111 22.778 38.8925 27.6148 35.6779 31.5246C32.4403 35.4624 28.7692 38.619 26.6151 40.3344C25.0817 41.5554 22.9103 41.5552 21.3772 40.3338C19.2239 38.6183 15.5547 35.4619 12.3187 31.5243C9.10558 27.6147 6.18854 22.7784 5.78504 17.7137ZM15.4964 9.25C11.1283 9.24734 7.91626 12.9855 8.27714 17.5152C8.61962 21.8139 11.1465 26.1606 14.2501 29.937C17.3308 33.6856 20.8511 36.7183 22.935 38.3785C23.5567 38.8738 24.4359 38.8739 25.0577 38.3787C27.1424 36.7186 30.6645 33.6857 33.7468 29.9369C36.852 26.1602 39.38 21.8132 39.7224 17.5143C40.0831 12.9849 36.8712 9.24732 32.503 9.25C28.5026 9.25245 25.2534 12.5079 25.2534 16.5319C25.2534 16.6115 25.2458 16.6909 25.2307 16.7689C25.2292 16.7771 25.2272 16.7878 25.2248 16.7999C25.1063 17.3844 24.5915 17.8038 23.9951 17.8016C23.3988 17.7994 22.887 17.3762 22.7728 16.7909C22.7711 16.7819 22.7696 16.7738 22.7684 16.7672C22.7536 16.6898 22.7461 16.611 22.7461 16.5319C22.7461 12.5079 19.4969 9.25244 15.4964 9.25ZM22.765 16.7473C22.7649 16.7462 22.7647 16.7454 22.7649 16.7467L22.765 16.7473Z" fill="var(--spectrum-global-color-gray-800, #292929)"/>
</svg>
