<svg width="48" height="48" viewBox="0 0 48 48" xmlns="http://www.w3.org/2000/svg">
<path fill-rule="evenodd" d="M7.86328 12.125C7.86328 9.77779 9.76607 7.875 12.1133 7.875H17.4242C19.7714 7.875 21.6742 9.77779 21.6742 12.125V17.4359C21.6742 19.7831 19.7714 21.6859 17.4242 21.6859H12.1133C9.76607 21.6859 7.86328 19.7831 7.86328 17.4359V12.125ZM12.1133 10.375C11.1468 10.375 10.3633 11.1585 10.3633 12.125V17.4359C10.3633 18.4024 11.1468 19.1859 12.1133 19.1859H17.4242C18.3907 19.1859 19.1742 18.4024 19.1742 17.4359V12.125C19.1742 11.1585 18.3907 10.375 17.4242 10.375H12.1133ZM27.4452 8.43138C26.7552 8.408 26.1769 8.94837 26.1535 9.63833C26.1302 10.3283 26.6705 10.9066 27.3605 10.9299C28.7465 10.9769 30.1543 11.376 31.2128 12.4C32.0915 13.2501 32.8604 14.6581 33.0797 17.0102L31.496 15.4265C31.0079 14.9384 30.2164 14.9384 29.7283 15.4265C29.2401 15.9147 29.2401 16.7062 29.7283 17.1943L33.3006 20.7666C33.7887 21.2548 34.5802 21.2548 35.0684 20.7666L38.6522 17.1828C39.1404 16.6946 39.1404 15.9032 38.6522 15.415C38.1641 14.9269 37.3726 14.9269 36.8845 15.415L35.5643 16.7351C35.2959 13.9497 34.3474 11.9541 32.9511 10.6032C31.3045 9.01023 29.2177 8.49145 27.4452 8.43138ZM14.6517 27.2344C14.1635 26.7463 13.3721 26.7463 12.8839 27.2344L9.30004 30.8183C8.81188 31.3064 8.81188 32.0979 9.30004 32.5861C9.78819 33.0742 10.5797 33.0742 11.0678 32.5861L12.3878 31.266C12.6563 34.0513 13.6048 36.0469 15.0011 37.3978C16.6477 38.9907 18.7345 39.5095 20.507 39.5696C21.1969 39.593 21.7752 39.0526 21.7986 38.3626C21.822 37.6727 21.2816 37.0944 20.5917 37.071C19.2056 37.0241 17.7978 36.625 16.7394 35.601C15.8607 34.7509 15.0917 33.3428 14.8725 30.9908L16.4562 32.5745C16.9444 33.0627 17.7358 33.0627 18.224 32.5745C18.7122 32.0864 18.7122 31.2949 18.224 30.8068L14.6517 27.2344ZM30.5737 26.3145C28.2265 26.3145 26.3237 28.2172 26.3237 30.5645V35.8753C26.3237 38.2226 28.2265 40.1253 30.5737 40.1253H35.8846C38.2318 40.1253 40.1346 38.2225 40.1346 35.8753V30.5645C40.1346 28.2172 38.2318 26.3145 35.8846 26.3145H30.5737ZM28.8237 30.5645C28.8237 29.598 29.6072 28.8145 30.5737 28.8145H35.8846C36.8511 28.8145 37.6346 29.598 37.6346 30.5645V35.8753C37.6346 36.8418 36.8511 37.6253 35.8846 37.6253H30.5737C29.6072 37.6253 28.8237 36.8418 28.8237 35.8753V30.5645Z" fill="var(--spectrum-global-color-gray-800, #292929)"/>
</svg>
