<svg width="48" height="48" viewBox="0 0 48 48" xmlns="http://www.w3.org/2000/svg">
<path fill-rule="evenodd" d="M5.78552 17.7137C5.32155 11.8901 9.51396 6.74635 15.4984 6.75C19.1505 6.75223 22.3303 8.76619 24.0002 11.7442C25.6701 8.7662 28.8499 6.75224 32.502 6.75C38.4863 6.74633 42.6788 11.8892 42.215 17.7128C41.8116 22.778 38.893 27.6148 35.6784 31.5246C32.4407 35.4624 28.7697 38.619 26.6156 40.3344C25.0822 41.5554 22.9108 41.5552 21.3777 40.3338C19.2243 38.6183 15.5552 35.4619 12.3191 31.5243C9.10607 27.6147 6.18903 22.7784 5.78552 17.7137ZM15.4969 9.25C11.1288 9.24734 7.91675 12.9855 8.27763 17.5152C8.62011 21.8139 11.1469 26.1606 14.2506 29.937C17.3313 33.6856 20.8516 36.7183 22.9355 38.3785C23.5572 38.8738 24.4364 38.8739 25.0582 38.3787C27.1429 36.7186 30.665 33.6857 33.7473 29.9369C36.8525 26.1602 39.3805 21.8132 39.7229 17.5143C40.0836 12.9849 36.8717 9.24732 32.5035 9.25C28.5031 9.25245 25.2539 12.5079 25.2539 16.5319C25.2539 16.6115 25.2463 16.6909 25.2312 16.7689C25.2297 16.7771 25.2277 16.7878 25.2253 16.7999C25.1068 17.3844 24.592 17.8038 23.9956 17.8016C23.3993 17.7994 22.8875 17.3762 22.7733 16.7909C22.7716 16.7819 22.7701 16.7738 22.7689 16.7672C22.7541 16.6898 22.7466 16.611 22.7466 16.5319C22.7466 12.5079 19.4973 9.25244 15.4969 9.25ZM22.7655 16.7473C22.7654 16.7462 22.7652 16.7454 22.7654 16.7467L22.7655 16.7473Z" fill="var(--spectrum-global-color-gray-800, #292929)"/>
</svg>
