<svg width="96" height="97" viewBox="0 0 96 97" xmlns="http://www.w3.org/2000/svg">
<path fill-rule="evenodd" d="M17 48.4922C17 31.3714 30.8792 17.4922 48 17.4922C65.1208 17.4922 79 31.3714 79 48.4922C79 65.613 65.1208 79.4922 48 79.4922C30.8792 79.4922 17 65.613 17 48.4922ZM48 13.4922C28.67 13.4922 13 29.1622 13 48.4922C13 67.8222 28.67 83.4922 48 83.4922C67.33 83.4922 83 67.8222 83 48.4922C83 29.1622 67.33 13.4922 48 13.4922ZM53.0004 30.6387C53.0004 33.4001 50.7618 35.6387 48.0004 35.6387C45.2389 35.6387 43.0004 33.4001 43.0004 30.6387C43.0004 27.8772 45.2389 25.6387 48.0004 25.6387C50.7618 25.6387 53.0004 27.8772 53.0004 30.6387ZM33.4354 36.3824C32.3735 36.0785 31.2663 36.6931 30.9624 37.755C30.6586 38.817 31.2732 39.9242 32.3351 40.228C35.2222 41.0541 38.1584 41.6472 41.1163 42.0073C42.1444 42.1325 42.9355 42.993 42.9355 44.0287V51.9332C42.9355 52.118 42.9099 52.3019 42.8594 52.4797C42.0588 55.2991 41.145 58.5286 40.3438 61.3666C39.768 63.4063 39.2501 65.2446 38.874 66.5841C38.6859 67.2536 38.533 67.7995 38.4259 68.1838L38.4015 68.2714C38.3232 68.5521 38.2413 68.8457 38.2199 68.9527C38.0033 70.0358 38.7057 71.0894 39.7888 71.306C40.8719 71.5227 41.9256 70.8202 42.1422 69.7371C42.1316 69.7901 42.1402 69.7591 42.1905 69.5771L42.1906 69.5768L42.1906 69.5767L42.1912 69.5745C42.2125 69.4973 42.2413 69.3933 42.2791 69.2576C42.3851 68.8771 42.5372 68.3343 42.725 67.6656C43.1005 66.3285 43.6178 64.4921 44.1933 62.4534C44.8503 60.1262 45.5828 57.5366 46.2662 55.1266C46.4861 54.3513 47.1941 53.8164 48 53.8164C48.8059 53.8164 49.5139 54.3513 49.7338 55.1266C50.4172 57.5366 51.1497 60.1262 51.8067 62.4534C52.3822 64.4921 52.8995 66.3285 53.275 67.6656C53.4628 68.3343 53.6149 68.8771 53.7209 69.2576L53.7573 69.3886L53.8088 69.5745L53.8094 69.5767L53.8094 69.5768L53.8095 69.5771C53.8598 69.7591 53.8684 69.7901 53.8578 69.7371C54.0744 70.8202 55.1281 71.5227 56.2112 71.306C57.2943 71.0894 57.9967 70.0358 57.7801 68.9527C57.7587 68.8457 57.6768 68.5522 57.5985 68.2715L57.5985 68.2714L57.5741 68.1838C57.467 67.7995 57.3141 67.2536 57.126 66.5841C56.7499 65.2446 56.232 63.4063 55.6562 61.3666C54.855 58.5286 53.9412 55.2991 53.1406 52.4797C53.0901 52.3019 53.0645 52.118 53.0645 51.9332V44.0281C53.0645 42.9925 53.8556 42.1321 54.8836 42.0068C57.7085 41.6627 60.5141 41.106 63.2763 40.3365L63.6521 40.2319C64.7162 39.9355 65.3385 38.8326 65.0421 37.7685C64.7457 36.7045 63.6428 36.0822 62.5788 36.3786L62.203 36.4832C52.7883 39.1057 42.8315 39.0708 33.4354 36.3824Z" fill="var(--spectrum-global-color-gray-800, #292929)"/>
</svg>
