<svg width="160" height="160" viewBox="0 0 160 160" xmlns="http://www.w3.org/2000/svg">
<path d="M95.1004 29.88C97.6804 29.88 100.11 32.49 98.8404 35.47L87.2704 62.73C86.4104 64.76 87.3604 67.11 89.3904 67.98L108.39 76.03C110.92 77.1 111.64 80.35 109.8 82.39L68.0004 128.78C67.1504 129.73 66.1004 130.13 65.0804 130.13C62.5004 130.13 60.0804 127.53 61.3404 124.55L72.5504 97.95C73.4004 95.93 72.4604 93.59 70.4504 92.72L51.5804 84.6C49.0704 83.52 48.3604 80.3 50.1804 78.26L92.1804 31.25C93.0304 30.29 94.0804 29.88 95.1104 29.88M95.1004 21.88C91.6904 21.88 88.5304 23.31 86.2104 25.92L44.2104 72.93C41.6504 75.8 40.6104 79.76 41.4404 83.52C42.2704 87.28 44.8804 90.43 48.4104 91.95L63.6404 98.5L53.9704 121.44C52.4004 125.17 52.7704 129.37 54.9704 132.69C57.2004 136.05 61.0704 138.13 65.0804 138.13C68.4704 138.13 71.6204 136.71 73.9404 134.13L115.74 87.74C118.33 84.86 119.38 80.89 118.54 77.11C117.7 73.33 115.07 70.17 111.5 68.66L96.1904 62.17L106.2 38.6C107.78 34.87 107.42 30.66 105.22 27.34C102.99 23.97 99.1104 21.88 95.1004 21.88Z" fill="var(--spectrum-global-color-gray-800, #292929)"/>
</svg>
