<svg width="48" height="48" viewBox="0 0 48 48" xmlns="http://www.w3.org/2000/svg">
<path fill-rule="evenodd" d="M24 7.99023C15.3015 7.99023 8.25 15.0417 8.25 23.7402C8.25 32.4387 15.3015 39.4902 24 39.4902C32.6985 39.4902 39.75 32.4387 39.75 23.7402C39.75 15.0417 32.6985 7.99023 24 7.99023ZM5.75 23.7402C5.75 13.661 13.9208 5.49023 24 5.49023C34.0792 5.49023 42.25 13.661 42.25 23.7402C42.25 33.8194 34.0792 41.9902 24 41.9902C13.9208 41.9902 5.75 33.8194 5.75 23.7402ZM25.25 23.0185V12.2402C25.25 11.5499 24.6904 10.9902 24 10.9902C23.3096 10.9902 22.75 11.5499 22.75 12.2402V23.7163C22.7491 23.766 22.7512 23.8157 22.7561 23.865C22.7741 24.0458 22.8305 24.2153 22.9172 24.3652C23.0036 24.5153 23.1222 24.649 23.2699 24.755C23.3102 24.784 23.3522 24.8106 23.3958 24.8348L29.8043 28.5347C30.4022 28.8799 31.1666 28.6751 31.5118 28.0772C31.857 27.4793 31.6522 26.7148 31.0543 26.3697L25.25 23.0185Z" fill="var(--spectrum-global-color-gray-800, #292929)"/>
</svg>
