<svg width="48" height="48" viewBox="0 0 48 48" xmlns="http://www.w3.org/2000/svg">
<path fill-rule="evenodd" d="M24.0004 9.66016C21.4104 9.66016 19.3108 11.7597 19.3108 14.3497C19.3108 16.2366 20.4252 17.8658 22.0371 18.6101C22.093 18.636 22.1462 18.6654 22.1963 18.6981C22.6581 18.9603 22.918 19.5001 22.8009 20.0469L21.332 26.9068C21.2086 27.4832 20.6992 27.895 20.1097 27.895H13.6172C12.0984 27.895 10.8672 29.1263 10.8672 30.645V32.3403H37.1337V30.645C37.1337 29.1263 35.9025 27.895 34.3837 27.895H27.8602C27.2619 27.895 26.7476 27.4712 26.6332 26.884L25.297 20.0241C25.2095 19.5748 25.3745 19.1348 25.6932 18.8508C25.7979 18.7314 25.9272 18.6301 26.0784 18.5552C27.6285 17.7874 28.6899 16.1914 28.6899 14.3497C28.6899 11.7597 26.5903 9.66016 24.0004 9.66016ZM27.9136 20.3818C29.8839 19.101 31.1899 16.8788 31.1899 14.3497C31.1899 10.379 27.9711 7.16016 24.0004 7.16016C20.0297 7.16016 16.8108 10.379 16.8108 14.3497C16.8108 16.9107 18.1498 19.157 20.1622 20.4299L19.0991 25.395H13.6172C10.7177 25.395 8.36719 27.7455 8.36719 30.645V33.5903C8.36719 34.2807 8.92683 34.8403 9.61719 34.8403H38.3837C39.0741 34.8403 39.6337 34.2807 39.6337 33.5903V30.645C39.6337 27.7455 37.2832 25.395 34.3837 25.395H28.8902L27.9136 20.3818ZM10.8508 39.5898C10.8508 38.8995 11.4105 38.3398 12.1008 38.3398H35.9005C36.5909 38.3398 37.1505 38.8995 37.1505 39.5898C37.1505 40.2802 36.5909 40.8398 35.9005 40.8398H12.1008C11.4105 40.8398 10.8508 40.2802 10.8508 39.5898Z" fill="var(--spectrum-global-color-gray-800, #292929)"/>
</svg>
