<svg width="96" height="96" viewBox="0 0 96 96" xmlns="http://www.w3.org/2000/svg">
<path fill-rule="evenodd" d="M39.1833 21.8843L39.1843 21.8827C39.9214 20.7113 41.2038 20 42.58 20H53.43C54.8062 20 56.0886 20.7113 56.8257 21.8827L56.8267 21.8843L61.9008 30H34.1092L39.1833 21.8843ZM29.3917 30L35.7942 19.7597L35.7967 19.7557C37.2598 17.428 39.8168 16 42.58 16H53.43C56.1932 16 58.7502 17.428 60.2133 19.7557L60.2158 19.7597L66.6183 30H74C79.5229 30 84 34.4772 84 40V70C84 75.5228 79.5229 80 74 80H22C16.4772 80 12 75.5228 12 70V40C12 34.4772 16.4772 30 22 30H29.3917ZM30.5 34H22C18.6863 34 16 36.6863 16 40V70C16 73.3137 18.6863 76 22 76H74C77.3137 76 80 73.3137 80 70V40C80 36.6863 77.3137 34 74 34H65.51H65.5H30.5ZM48 42C40.8203 42 35 47.8203 35 55C35 62.1797 40.8203 68 48 68C55.1797 68 61 62.1797 61 55C61 47.8203 55.1797 42 48 42ZM31 55C31 45.6112 38.6112 38 48 38C57.3888 38 65 45.6112 65 55C65 64.3888 57.3888 72 48 72C38.6112 72 31 64.3888 31 55ZM26 41C26 42.6569 24.6569 44 23 44C21.3431 44 20 42.6569 20 41C20 39.3431 21.3431 38 23 38C24.6569 38 26 39.3431 26 41Z" fill="var(--spectrum-global-color-gray-800, #292929)"/>
</svg>
