<svg width="48" height="48" viewBox="0 0 48 48" xmlns="http://www.w3.org/2000/svg">
<path fill-rule="evenodd" d="M8.25 24C8.25 15.3015 15.3015 8.25 24 8.25C32.6985 8.25 39.75 15.3015 39.75 24C39.75 32.6985 32.6985 39.75 24 39.75C15.3015 39.75 8.25 32.6985 8.25 24ZM24 5.75C13.9208 5.75 5.75 13.9208 5.75 24C5.75 34.0792 13.9208 42.25 24 42.25C34.0792 42.25 42.25 34.0792 42.25 24C42.25 13.9208 34.0792 5.75 24 5.75ZM32.3362 20.4291C32.8493 19.9673 32.8909 19.1769 32.4291 18.6638C31.9673 18.1507 31.1769 18.1091 30.6638 18.5709L21.5453 26.7775L17.8839 23.1161C17.3957 22.628 16.6043 22.628 16.1161 23.1161C15.628 23.6043 15.628 24.3957 16.1161 24.8839L20.4819 29.2497C21.0273 29.795 21.904 29.8181 22.4772 29.3022L32.3362 20.4291Z" fill="var(--spectrum-global-color-gray-800, #292929)"/>
</svg>
