<svg width="160" height="160" viewBox="0 0 160 160" xmlns="http://www.w3.org/2000/svg">
<path fill-rule="evenodd" d="M106.758 33.0557C115.038 30.5817 123.545 36.6702 123.545 45.3917V88.9455C123.545 97.6839 115.02 103.754 106.746 101.281L106.746 101.28L73.2896 91.2699L80.6579 107.478C80.6694 107.504 80.6806 107.529 80.6916 107.555C82.369 111.458 82.2649 115.302 80.778 118.578C79.3313 121.765 76.7085 124.135 73.7774 125.537C70.6343 127.04 66.8631 127.561 63.2875 126.573C59.6044 125.555 56.3721 122.992 54.478 118.845C53.3257 116.322 49.7926 108.518 46.5524 101.354C44.9312 97.7704 43.3819 94.3436 42.2378 91.8128L41.3194 89.781H40.9362C28.3347 89.781 18 79.6974 18 67.1404C18 54.5835 28.3347 44.4999 40.9362 44.4999H68.398L106.755 33.0564L106.758 33.0557ZM115.545 45.3917C115.545 42.1904 112.356 39.7319 109.047 40.7212L109.045 40.7219L73 51.4754V82.8328L109.038 93.616C112.354 94.6073 115.545 92.1484 115.545 88.9455V45.3917ZM26 67.1404C26 59.1199 32.6338 52.4999 40.9362 52.4999H64.8981V81.781H40.9362C32.6338 81.781 26 75.1609 26 67.1404ZM53.8414 98.0573C52.5186 95.1331 51.2437 92.3134 50.1977 89.9999H63.9245L73.3563 110.748C74.169 112.661 74.0048 114.144 73.4934 115.271C72.9387 116.493 71.8257 117.602 70.3262 118.319C68.7092 119.093 66.9181 119.276 65.4189 118.862C64.027 118.477 62.6717 117.529 61.7549 115.522C60.6103 113.016 57.0852 105.229 53.8414 98.0573ZM136.417 82.3563C134.311 81.6896 132.063 82.8566 131.396 84.9627C130.73 87.0689 131.897 89.3167 134.003 89.9833L139.753 91.8033C141.859 92.47 144.107 91.303 144.773 89.1969C145.44 87.0907 144.273 84.8429 142.167 84.1763L136.417 82.3563ZM144.773 43.8529C145.44 45.959 144.273 48.2068 142.167 48.8735L136.417 50.6935C134.311 51.3601 132.063 50.1932 131.396 48.087C130.73 45.9809 131.897 43.7331 134.003 43.0664L139.753 41.2464C141.859 40.5798 144.107 41.7467 144.773 43.8529ZM135.21 62.5299C133.001 62.5299 131.21 64.3208 131.21 66.5299C131.21 68.7391 133.001 70.5299 135.21 70.5299H141.24C143.449 70.5299 145.24 68.7391 145.24 66.5299C145.24 64.3208 143.449 62.5299 141.24 62.5299H135.21Z" fill="var(--spectrum-global-color-gray-800, #292929)"/>
</svg>
