<svg width="160" height="160" viewBox="0 0 160 160" xmlns="http://www.w3.org/2000/svg">
<path fill-rule="evenodd" d="M35.7598 32.1C29.1389 32.1 23.7598 37.4791 23.7598 44.1V128.23H41.7402V111.65C41.7402 105.021 47.1111 99.65 53.7402 99.65H65.8302C72.4594 99.65 77.8302 105.021 77.8302 111.65V128.23H95.8298V44.1C95.8298 37.4791 90.4506 32.1 83.8298 32.1H35.7598ZM73.8496 136.23H99.8298C102.039 136.23 103.83 134.439 103.83 132.23V44.1C103.83 33.0608 94.8689 24.1 83.8298 24.1H35.7598C24.7206 24.1 15.7598 33.0608 15.7598 44.1V132.23C15.7598 134.439 17.5506 136.23 19.7598 136.23H45.7209L45.7402 136.23H73.8302L73.8496 136.23ZM69.8302 128.23V111.65C69.8302 109.439 68.0411 107.65 65.8302 107.65H53.7402C51.5294 107.65 49.7402 109.439 49.7402 111.65V128.23H69.8302ZM110.61 49.71C110.61 47.5008 112.401 45.71 114.61 45.71H124.24C135.289 45.71 144.24 54.6608 144.24 65.71V132.23C144.24 134.439 142.449 136.23 140.24 136.23H114.61C112.401 136.23 110.61 134.439 110.61 132.23C110.61 130.021 112.401 128.23 114.61 128.23H136.24V65.71C136.24 59.0791 130.871 53.71 124.24 53.71H114.61C112.401 53.71 110.61 51.9191 110.61 49.71ZM48.5295 42.83H42.7695C40.5604 42.83 38.7695 44.6208 38.7695 46.83V52.59C38.7695 54.7991 40.5604 56.59 42.7695 56.59H48.5295C50.7387 56.59 52.5295 54.7991 52.5295 52.59V46.83C52.5295 44.6208 50.7387 42.83 48.5295 42.83ZM71.0391 42.83H76.7991C79.0082 42.83 80.7991 44.6208 80.7991 46.83V52.59C80.7991 54.7991 79.0082 56.59 76.7991 56.59H71.0391C68.8299 56.59 67.0391 54.7991 67.0391 52.59V46.83C67.0391 44.6208 68.8299 42.83 71.0391 42.83ZM48.5295 70.89H42.7695C40.5604 70.89 38.7695 72.6808 38.7695 74.89V80.65C38.7695 82.8591 40.5604 84.65 42.7695 84.65H48.5295C50.7387 84.65 52.5295 82.8591 52.5295 80.65V74.89C52.5295 72.6808 50.7387 70.89 48.5295 70.89ZM71.0391 70.8899H76.7991C79.0082 70.8899 80.7991 72.6808 80.7991 74.8899V80.6499C80.7991 82.859 79.0082 84.6499 76.7991 84.6499H71.0391C68.8299 84.6499 67.0391 82.859 67.0391 80.6499V74.8899C67.0391 72.6808 68.8299 70.8899 71.0391 70.8899ZM122.91 70.0601H117.15C114.941 70.0601 113.15 71.8509 113.15 74.0601V79.8201C113.15 82.0292 114.941 83.8201 117.15 83.8201H122.91C125.12 83.8201 126.91 82.0292 126.91 79.8201V74.0601C126.91 71.8509 125.12 70.0601 122.91 70.0601ZM117.15 98.1201H122.91C125.12 98.1201 126.91 99.9109 126.91 102.12V107.88C126.91 110.089 125.12 111.88 122.91 111.88H117.15C114.941 111.88 113.15 110.089 113.15 107.88V102.12C113.15 99.9109 114.941 98.1201 117.15 98.1201Z" fill="var(--spectrum-global-color-gray-800, #292929)"/>
</svg>
