<svg width="160" height="160" viewBox="0 0 160 160" xmlns="http://www.w3.org/2000/svg">
<path fill-rule="evenodd" d="M64.8636 35.7574C66.3207 33.4221 68.8859 32 71.65 32H88.35C91.1084 32 93.6693 33.4177 95.1399 35.763L95.1407 35.7643L102.785 48H57.2153L64.8624 35.7593L64.8636 35.7574ZM47.7825 48L58.0764 31.5226L58.0774 31.521L58.0776 31.5207C61.0007 26.8371 66.1349 24 71.65 24H88.35C93.871 24 98.9898 26.8418 101.919 31.5157L101.922 31.5207L112.218 48H124C135.046 48 144 56.9543 144 68V116C144 127.046 135.046 136 124 136H36C24.9543 136 16 127.046 16 116V68C16 56.9543 24.9543 48 36 48H47.7825ZM50 56H36C29.3726 56 24 61.3726 24 68V116C24 122.627 29.3726 128 36 128H124C130.627 128 136 122.627 136 116V68C136 61.3726 130.627 56 124 56H110H50ZM80 72C68.9543 72 60 80.9543 60 92C60 103.046 68.9543 112 80 112C91.0457 112 100 103.046 100 92C100 80.9543 91.0457 72 80 72ZM52 92C52 76.536 64.536 64 80 64C95.464 64 108 76.536 108 92C108 107.464 95.464 120 80 120C64.536 120 52 107.464 52 92ZM43.5 69C43.5 72.3137 40.8137 75 37.5 75C34.1863 75 31.5 72.3137 31.5 69C31.5 65.6863 34.1863 63 37.5 63C40.8137 63 43.5 65.6863 43.5 69Z" fill="var(--spectrum-global-color-gray-800, #292929)"/>
</svg>
