<svg width="96" height="96" viewBox="0 0 96 96" xmlns="http://www.w3.org/2000/svg">
<path fill-rule="evenodd" d="M91.7244 24.4058C94.4332 19.0057 89.6667 12.8375 83.7499 14.1843L8.07359 31.41C1.98826 32.7952 0.472409 40.7711 5.59609 44.3141L6.7336 42.6691L5.5961 44.3141L19.5001 53.9285V77.3594C19.5001 81.4896 24.3877 83.3188 27.3404 80.9087L41.6393 69.2374L55.3683 78.7308C58.9459 81.2046 63.8714 79.9335 65.8203 76.0482L91.7244 24.4058ZM38.2147 66.8694L23.5001 56.6944V77.3594C23.5001 77.5774 23.6142 77.79 23.915 77.9215C24.2207 78.0551 24.5532 78.0204 24.8111 77.8099L38.2147 66.8694ZM25.5184 53.2269L57.6433 75.4407C59.2138 76.5267 61.382 75.9749 62.2449 74.2548L88.149 22.6123C88.2895 22.3323 88.3849 22.0484 88.4397 21.7662L25.5184 53.2269ZM86.5418 18.243C85.9741 18.0039 85.3214 17.9289 84.6377 18.0845L8.96138 35.3103C6.28593 35.9193 5.59651 39.4512 7.87111 41.024L21.7649 50.6314L86.5418 18.243Z" fill="var(--spectrum-global-color-gray-800, #292929)"/>
</svg>
