<svg width="96" height="96" viewBox="0 0 96 96" xmlns="http://www.w3.org/2000/svg">
<path fill-rule="evenodd" d="M16.3109 48.9961C16.3109 31.8753 30.19 17.9961 47.3109 17.9961C59.4992 17.9961 70.0487 25.0308 75.1132 35.267L65.3791 32.1369C64.3275 31.7988 63.201 32.3771 62.8628 33.4287C62.5247 34.4802 63.103 35.6068 64.1546 35.9449L78.2111 40.4648C79.2626 40.8029 80.3892 40.2246 80.7273 39.1731L85.2472 25.1166C85.5853 24.065 85.007 22.9385 83.9554 22.6004C82.9039 22.2622 81.7774 22.8406 81.4392 23.8921L78.487 33.0733C72.6925 21.7505 60.9093 13.9961 47.3109 13.9961C27.9809 13.9961 12.3109 29.6661 12.3109 48.9961C12.3109 68.326 27.9809 83.9961 47.3109 83.9961C62.4284 83.9961 75.3025 74.4126 80.199 60.996C80.5777 59.9584 80.0435 58.8103 79.0059 58.4316C77.9683 58.0529 76.8201 58.5871 76.4414 59.6247C72.1025 71.5135 60.6947 79.9961 47.3109 79.9961C30.19 79.9961 16.3109 66.1169 16.3109 48.9961Z" fill="var(--spectrum-global-color-gray-800, #292929)"/>
</svg>
