<svg width="160" height="160" viewBox="0 0 160 160" xmlns="http://www.w3.org/2000/svg">
<path fill-rule="evenodd" d="M80.0006 20.7402C59.5727 20.7402 42.9857 37.2396 42.9857 57.6255C42.9857 57.6509 42.9859 57.6746 42.9862 57.6961C42.9859 57.7173 42.9857 57.7386 42.9857 57.7599V68.1282C42.5806 80.4693 37.3268 91.7415 32.0351 100.027C26.5811 108.566 32.6935 119.74 42.8455 119.74H64.0007V122.74C64.0007 131.577 71.1641 138.74 80.0007 138.74C88.8372 138.74 96.0007 131.577 96.0007 122.74V119.74H117.156C127.308 119.74 133.42 108.566 127.966 100.027C122.675 91.7415 117.421 80.4693 117.016 68.1282V57.7599C117.016 57.7386 117.015 57.7173 117.015 57.6961C117.015 57.6745 117.016 57.6509 117.016 57.6255C117.016 37.2395 100.429 20.7402 80.0006 20.7402ZM88.0007 119.74H72.0007V122.74C72.0007 127.159 75.5824 130.74 80.0007 130.74C84.4189 130.74 88.0007 127.159 88.0007 122.74V119.74ZM50.9857 68.1925V57.9253C50.9882 57.8651 50.9894 57.8047 50.9891 57.7442C50.9889 57.6884 50.9878 57.6413 50.9868 57.6088L50.9858 57.5763C51.0125 41.6608 63.9778 28.7402 80.0006 28.7402C96.0234 28.7402 108.989 41.6607 109.016 57.576L109.014 57.6086C109.014 57.6412 109.012 57.6884 109.012 57.7442C109.012 57.8048 109.013 57.8652 109.016 57.9255V68.1925C109.016 68.2186 109.016 68.2448 109.016 68.2709C109.017 68.2868 109.017 68.3026 109.018 68.3184C109.471 82.7029 115.535 95.4255 121.224 104.333C123.277 107.547 120.989 111.74 117.156 111.74H42.8455C39.0119 111.74 36.7245 107.547 38.7773 104.333C44.4663 95.4255 50.5306 82.7029 50.9838 68.3184C50.9851 68.2764 50.9857 68.2345 50.9857 68.1925Z" fill="var(--spectrum-global-color-gray-800, #292929)"/>
</svg>
