<svg width="160" height="160" viewBox="0 0 160 160" xmlns="http://www.w3.org/2000/svg">
<path fill-rule="evenodd" d="M64 34C64 32.8954 64.8954 32 66 32H94C95.1046 32 96 32.8954 96 34V40H64V34ZM56 40V34C56 28.4772 60.4771 24 66 24H94C99.5229 24 104 28.4772 104 34V40H126H130.492L135 40C137.209 40 139 41.7909 139 44C139 46.2091 137.209 48 135 48H129.562L120.991 121.787C120.035 130.018 112.831 136 104.549 136H55.4509C47.1689 136 39.9651 130.018 39.0089 121.787L30.4377 48H25C22.7909 48 21 46.2091 21 44C21 41.7909 22.7909 40 25 40H29.5085H34H56ZM38.4915 48H121.508L113.044 120.864C112.589 124.787 109.052 128 104.549 128H55.4509C50.948 128 47.4112 124.787 46.9555 120.864L38.4915 48ZM72 60C72 57.7908 70.2091 56 68 56C65.7909 56 64 57.7908 64 60V116C64 118.209 65.7909 120 68 120C70.2091 120 72 118.209 72 116V60ZM92 56C94.2091 56 96 57.7908 96 60V116C96 118.209 94.2091 120 92 120C89.7909 120 88 118.209 88 116V60C88 57.7908 89.7909 56 92 56Z" fill="var(--spectrum-global-color-gray-800, #292929)"/>
</svg>
