<svg width="96" height="96" viewBox="0 0 96 96" xmlns="http://www.w3.org/2000/svg">
<path fill-rule="evenodd" d="M79.813 24.4831C79.813 20.3488 74.3065 18.9313 72.3102 22.5516L64.0033 37.6161L57.0696 29.1337C55.3525 27.0331 52.0867 27.2151 50.6136 29.4934L40.9216 44.4831L33.382 35.7691C31.8925 34.0475 29.2685 33.9144 27.6125 35.4765L18.1311 44.4196C16.9293 45.5532 16.248 47.1322 16.248 48.7843V73.7776C16.248 77.0914 18.9343 79.7777 22.248 79.7777H73.813C77.1267 79.7777 79.813 77.0914 79.813 73.7777V24.4831ZM75.813 54.97V24.4831L67.5061 39.5476C66.1387 42.0273 62.6985 42.3401 60.9063 40.1477L53.9726 31.6653L44.2806 46.655C42.8329 48.894 39.6412 49.1167 37.8967 47.1003L30.3571 38.3863L20.8757 47.3294C20.4751 47.7073 20.248 48.2336 20.248 48.7843V63.3125L30.5826 56.3814C32.0299 55.4107 33.939 55.4887 35.3023 56.5743L44.2004 63.6598L54.9636 50.9669C56.4841 49.1737 59.2158 49.0724 60.865 50.7478L68.4483 58.4515L75.813 54.97ZM75.813 59.3944L70.1579 62.0678C68.6202 62.7947 66.7909 62.4697 65.5977 61.2575L58.0144 53.5539L47.2512 66.2468C45.8535 67.8951 43.3993 68.1351 41.7087 66.7889L32.8106 59.7034L20.7 67.8258C20.5561 67.9223 20.4042 67.9976 20.248 68.0525V73.7776C20.248 74.8822 21.1435 75.7777 22.248 75.7777H73.813C74.9176 75.7777 75.813 74.8822 75.813 73.7777V59.3944Z" fill="var(--spectrum-global-color-gray-800, #292929)"/>
</svg>
