<svg width="96" height="96" viewBox="0 0 96 96" xmlns="http://www.w3.org/2000/svg">
<path fill-rule="evenodd" d="M35.1565 15.2617C35.1596 15.2061 35.1611 15.1501 35.1611 15.0938C35.1611 13.4369 33.818 12.0938 32.1611 12.0938C30.5043 12.0938 29.1611 13.4369 29.1611 15.0938C29.1611 16.7506 30.5043 18.0938 32.1611 18.0938C32.2169 18.0938 32.2722 18.0922 32.3272 18.0892L37.8788 23.6408C33.5201 25.8085 29.7946 29.3327 27.0257 33.7331C24.1188 31.975 21.7705 30.0794 19.9947 28.4664C19.1771 27.7238 17.9122 27.7845 17.1695 28.6021C16.4268 29.4198 16.4876 30.6846 17.3052 31.4273C19.2444 33.1888 21.8512 35.2936 25.107 37.2463C22.9605 41.8142 21.7491 47.0611 21.7491 52.5767C21.7491 52.9082 21.7534 53.2388 21.7621 53.5683H14.6465C13.5419 53.5683 12.6465 54.4638 12.6465 55.5683C12.6465 56.6729 13.5419 57.5683 14.6465 57.5683H22.0836C22.7629 62.5961 24.4515 67.2703 26.9151 71.2431C25.0991 72.2323 23.3368 73.5967 21.8266 74.9897C19.7107 76.9412 17.8624 79.1603 16.9129 80.9107C16.3862 81.8816 16.7464 83.0956 17.7173 83.6223C18.6882 84.149 19.9022 83.7889 20.4289 82.8179C21.0948 81.5904 22.6071 79.7114 24.5385 77.93C26.0768 76.5112 27.7374 75.2878 29.2612 74.5298C33.9729 80.281 40.5559 83.9062 48.0008 83.9062C55.4488 83.9062 62.0343 80.2779 66.7464 74.5224C68.2743 75.2799 69.9407 76.5066 71.4839 77.93C73.4153 79.7114 74.9276 81.5904 75.5935 82.8179C76.1202 83.7889 77.3342 84.149 78.3051 83.6223C79.2761 83.0956 79.6362 81.8816 79.1095 80.9107C78.16 79.1603 76.3117 76.9412 74.1958 74.9897C72.6813 73.5927 70.9132 72.2245 69.0917 71.2346C71.5524 67.2636 73.2391 62.5925 73.918 57.5683H81.3547C82.4593 57.5683 83.3547 56.6729 83.3547 55.5683C83.3547 54.4638 82.4593 53.5683 81.3547 53.5683H74.2394C74.2481 53.2388 74.2525 52.9082 74.2525 52.5767C74.2525 47.062 73.0414 41.8159 70.8955 37.2484C74.1539 35.4262 76.8631 33.3703 78.8032 31.3224C79.5628 30.5205 79.5286 29.2546 78.7268 28.495C77.9249 27.7353 76.659 27.7695 75.8994 28.5714C74.249 30.3135 71.875 32.1144 68.9786 33.7375C66.2093 29.3348 62.4825 25.8088 58.1221 23.6404L63.6733 18.0892C63.7283 18.0922 63.7836 18.0938 63.8394 18.0938C65.4962 18.0938 66.8394 16.7506 66.8394 15.0938C66.8394 13.4369 65.4962 12.0938 63.8394 12.0938C62.1825 12.0938 60.8394 13.4369 60.8394 15.0938C60.8394 15.1501 60.8409 15.2061 60.844 15.2617L54.2722 21.8335C54.1955 21.9102 54.1264 21.9915 54.0647 22.0766C52.1269 21.5348 50.098 21.2471 48.0008 21.2471C45.9032 21.2471 43.8741 21.5348 41.9359 22.0769C41.8743 21.9917 41.8051 21.9102 41.7283 21.8335L35.1565 15.2617ZM28.6118 39.1461C26.7969 43.0778 25.7491 47.644 25.7491 52.5767C25.7491 67.1726 34.9237 78.5597 46.0005 79.795V43.4327C39.1672 43.2338 33.3579 41.4536 28.6118 39.1461ZM30.5413 35.6359C35.0937 37.8203 40.6834 39.4512 47.2749 39.4512C53.8968 39.4512 60.203 37.8291 65.3909 35.5293C61.2559 29.2051 54.9034 25.2471 48.0008 25.2471C41.0594 25.2471 34.6744 29.2496 30.5413 35.6359ZM67.3401 39.0392C62.2869 41.3238 56.3064 42.9876 50.0005 43.3684V79.7951C61.0775 78.56 70.2525 67.1729 70.2525 52.5767C70.2525 47.5992 69.1855 42.995 67.3401 39.0392Z" fill="var(--spectrum-global-color-gray-800, #292929)"/>
</svg>
