<svg width="48" height="48" viewBox="0 0 48 48" xmlns="http://www.w3.org/2000/svg">
<path fill-rule="evenodd" d="M22.6202 6.01001C20.9129 6.01001 19.5132 7.31721 19.3838 9.01505L19.1238 12.4282C18.1874 12.8246 17.3095 13.3293 16.5057 13.9306L13.4296 12.4372L13.4277 12.4363C11.8917 11.6858 10.0585 12.2632 9.2031 13.7157L9.20309 13.7157L9.2013 13.7188L7.7931 16.1257L7.79207 16.1275C6.92967 17.594 7.35304 19.4783 8.7504 20.4389L8.75306 20.4408L11.5488 22.3775C11.4787 22.9069 11.4402 23.4498 11.4402 24C11.4402 24.5503 11.4787 25.0931 11.5488 25.6225L8.74838 27.5625L8.74498 27.5649C7.35022 28.5379 6.94462 30.4059 7.78788 31.8654L7.78786 31.8654L7.7913 31.8712L9.2013 34.2812L9.2031 34.2843C10.0584 35.7368 11.8915 36.3141 13.4275 35.5638L13.4296 35.5628L16.5057 34.0694C17.3095 34.6707 18.1874 35.1755 19.1238 35.5718L19.3838 38.985L19.3839 38.9859C19.5136 40.6722 20.9221 41.99 22.6202 41.99H25.4102C27.1036 41.99 28.5169 40.6868 28.6466 38.985L28.9066 35.5718C29.8427 35.1756 30.7203 34.6711 31.524 34.0699L34.5908 35.5628L34.5923 35.5635C36.1284 36.3143 37.9619 35.737 38.8173 34.2843L38.8191 34.2812L40.2273 31.8743L40.2282 31.8729C41.0908 30.4063 40.6675 28.5218 39.27 27.5611L39.2674 27.5593L36.4716 25.6225C36.5417 25.0931 36.5802 24.5503 36.5802 24C36.5802 23.4498 36.5417 22.9069 36.4716 22.3775L39.272 20.4375L39.2754 20.4352C40.6702 19.4621 41.0758 17.5941 40.2326 16.1347L40.2291 16.1288L38.8191 13.7188L38.8173 13.7157C37.9619 12.2631 36.1286 11.6858 34.5925 12.4364L34.5908 12.4372L31.524 13.9301C30.7203 13.329 29.8427 12.8244 28.9066 12.4282L28.6466 9.01505L28.6465 9.01414C28.5168 7.32781 27.1083 6.01001 25.4102 6.01001H22.6202ZM21.8766 9.20497C21.9072 8.80281 22.2275 8.51001 22.6202 8.51001H25.4102C25.7921 8.51001 26.1236 8.81221 26.1539 9.20588L26.4738 13.405C26.5116 13.9008 26.8396 14.327 27.3092 14.4905C28.5121 14.9093 29.6052 15.5408 30.546 16.3484C30.9242 16.6731 31.4591 16.7421 31.9073 16.5239L35.6873 14.6839L35.6896 14.6828C36.0328 14.5148 36.4579 14.6372 36.6625 14.9832L36.6631 14.9843L38.0679 17.3854L38.0692 17.3877C38.2639 17.7274 38.1697 18.1573 37.8463 18.3839L37.845 18.3849L34.3984 20.7725C33.9897 21.0556 33.7876 21.554 33.8838 22.0418C34.0096 22.6795 34.0802 23.3383 34.0802 24C34.0802 24.6617 34.0096 25.3205 33.8838 25.9582C33.7876 26.446 33.9897 26.9444 34.3984 27.2275L37.8484 29.6175L37.8531 29.6208C38.173 29.8403 38.2688 30.2734 38.0731 30.6057L38.0713 30.6088L36.6631 33.0157L36.6625 33.0168C36.458 33.3628 36.0329 33.4852 35.6896 33.3172L35.6873 33.3161L31.9073 31.4761C31.4591 31.2579 30.9242 31.3269 30.546 31.6516C29.6052 32.4592 28.5121 33.0907 27.3092 33.5095C26.8396 33.673 26.5116 34.0993 26.4738 34.595L26.1538 38.795C26.1235 39.1933 25.7968 39.49 25.4102 39.49H22.6202C22.2384 39.49 21.9071 39.188 21.8766 38.7946L21.8765 38.7941L21.5566 34.595C21.5188 34.0993 21.1908 33.673 20.7212 33.5095C19.5183 33.0907 18.4252 32.4592 17.4844 31.6516C17.1066 31.3272 16.5723 31.258 16.1243 31.4755L12.3343 33.3155L12.3308 33.3172C11.9876 33.4852 11.5625 33.3628 11.358 33.0168L11.3573 33.0157L9.95254 30.6147L9.95125 30.6124C9.75647 30.2727 9.85066 29.8427 10.1741 29.6161L10.1754 29.6152L13.622 27.2275C14.0307 26.9444 14.2328 26.446 14.1366 25.9582C14.0109 25.3205 13.9402 24.6617 13.9402 24C13.9402 23.3383 14.0109 22.6795 14.1366 22.0418C14.2328 21.554 14.0307 21.0556 13.622 20.7725L10.172 18.3825L10.172 18.3825L10.1674 18.3793C9.84739 18.1597 9.75163 17.7266 9.94732 17.3943L9.94912 17.3912L11.3573 14.9843L11.358 14.9832C11.5625 14.6372 11.9876 14.5148 12.3308 14.6828L12.3343 14.6845L16.1243 16.5245C16.5723 16.742 17.1066 16.6728 17.4844 16.3484C18.4252 15.5408 19.5183 14.9093 20.7212 14.4905C21.1908 14.327 21.5188 13.9008 21.5566 13.405L21.8766 9.20497ZM21.59 24C21.59 22.669 22.669 21.59 24 21.59C25.331 21.59 26.41 22.669 26.41 24C26.41 25.331 25.331 26.41 24 26.41C22.669 26.41 21.59 25.331 21.59 24ZM24 19.09C21.2883 19.09 19.09 21.2882 19.09 24C19.09 26.7117 21.2883 28.91 24 28.91C26.7117 28.91 28.91 26.7117 28.91 24C28.91 21.2882 26.7117 19.09 24 19.09Z" fill="var(--spectrum-global-color-gray-800, #292929)"/>
</svg>
