<svg width="96" height="97" viewBox="0 0 96 97" xmlns="http://www.w3.org/2000/svg">
<path fill-rule="evenodd" d="M48 17.2324C46.4318 17.2324 44.8907 17.3489 43.3851 17.5736C43.6201 17.7735 43.8784 17.9729 44.1585 18.1661C45.3888 19.0147 46.6771 19.4922 47.6531 19.4922C48.886 19.4922 49.98 18.9754 50.9681 18.1559C51.234 17.9354 51.4851 17.6986 51.721 17.4535C50.501 17.3075 49.2593 17.2324 48 17.2324ZM17 48.2324C17 38.8834 21.1385 30.501 27.6835 24.8173C28.1334 25.675 28.6807 26.6039 29.3024 27.4852C30.3992 29.0398 32.0351 30.8969 34.1058 31.4886C35.9837 32.0251 38.1687 31.9468 39.8741 31.8857C40.0518 31.8793 40.2242 31.8731 40.3906 31.8678C41.3504 31.8373 42.1453 31.8282 42.8116 31.8963C43.4922 31.966 43.828 32.0991 43.9797 32.2002C44.2159 32.3577 44.3107 32.5073 44.3547 32.6139C44.4019 32.7286 44.4257 32.8816 44.3917 33.0796C44.3195 33.5009 43.9912 34.0346 43.3898 34.3687C42.1882 35.0362 41.0159 35.8605 40.1436 36.9819C39.2343 38.1511 38.7214 39.5536 38.7214 41.2126C38.7214 41.7354 38.6804 42.084 38.6229 42.3123C38.5907 42.4398 38.5601 42.5034 38.5452 42.5291C38.4692 42.5698 38.1494 42.6917 37.2478 42.6165C37.0892 42.6033 36.9189 42.5883 36.7386 42.5723H36.7386H36.7386C35.3696 42.4513 33.4219 42.279 31.5858 42.4711C29.5373 42.6853 27.0027 43.4141 25.6389 45.8013C25.0256 46.8746 24.3197 48.6569 24.4877 50.7796C24.6621 52.9836 25.7596 55.293 28.3093 57.333C31.2364 59.6751 34.4559 60.188 38.8011 60.6709C41.3031 60.949 42.7737 61.4895 43.6437 62.1037C44.4304 62.6592 44.8599 63.3673 45.069 64.4133C45.4298 66.2189 44.819 68.8447 43.6182 71.9429C43.0398 73.435 42.3661 74.9385 41.6983 76.3913C41.5517 76.7103 41.4044 77.0288 41.2583 77.3447C41.0958 77.6961 40.9348 78.0443 40.7777 78.3866C27.1402 75.1323 17 62.8666 17 48.2324ZM32.5709 25.1793C31.9112 24.2442 31.3424 23.2227 30.9214 22.3571C33.362 20.7429 36.0444 19.4648 38.9025 18.5888C39.6691 19.674 40.7517 20.6755 41.8874 21.4589C43.4888 22.5634 45.5678 23.4922 47.6531 23.4922C50.0936 23.4922 52.0608 22.4465 53.5217 21.2347C54.6454 20.3027 55.5273 19.2268 56.1732 18.3212C56.945 18.5316 57.7049 18.7711 58.4515 19.0384C58.0985 21.526 57.7816 24.6306 58.1991 27.4268C58.6735 30.6049 60.2021 33.8783 64.1241 35.0335C68.5708 36.3434 72.3539 34.6807 74.7251 32.5138C75.8827 34.4777 76.8299 36.5803 77.5359 38.7907C75.888 38.4813 73.7876 38.1559 71.6093 38.0228C69.2531 37.8789 66.6592 37.9494 64.4108 38.6011C62.1434 39.2583 59.9418 40.6048 58.9853 43.1868C56.1892 50.7346 59.9621 55.2744 60.9022 56.2147C62.3581 57.6709 63.8448 58.3486 64.9792 58.8658C65.1174 58.9288 65.2503 58.9894 65.3774 59.0488C66.4991 59.5729 67.3457 60.0523 68.1938 61.2773C68.9274 62.3368 69.2151 63.9579 69.2645 66.0402C69.2843 66.8714 69.2668 67.6964 69.2491 68.5313C69.2453 68.7119 69.2414 68.893 69.2379 69.0748C69.227 69.6494 69.2192 70.2426 69.234 70.8183C63.6865 76.0358 56.2165 79.2324 48 79.2324C46.9417 79.2324 45.8958 79.1794 44.8648 79.0759L44.8699 79.0648C45.0204 78.7395 45.1749 78.4052 45.3327 78.0621C46.0068 76.5955 46.7231 75.0002 47.3478 73.3885C48.553 70.279 49.6004 66.6769 48.9914 63.6295C48.6123 61.7323 47.6933 60.0664 45.9507 58.8361C44.2914 57.6646 42.052 57.0076 39.2429 56.6954C34.8545 56.2077 32.7333 55.75 30.8083 54.2098C29.0334 52.7896 28.554 51.4593 28.4752 50.464C28.3901 49.3874 28.7548 48.4108 29.112 47.7856C29.5007 47.1052 30.3634 46.6208 32.002 46.4494C33.4247 46.3005 34.9622 46.4339 36.3697 46.556H36.3697H36.3698C36.5541 46.572 36.7363 46.5878 36.9156 46.6027C38.5671 46.7403 40.2636 46.535 41.4454 45.2875C42.5603 44.1106 42.7214 42.4962 42.7214 41.2126C42.7214 40.4451 42.9365 39.9064 43.301 39.4377C43.7027 38.9213 44.3502 38.411 45.3324 37.8653C46.9149 36.9862 48.0425 35.4573 48.3342 33.7555C48.6413 31.9641 47.9886 30.0654 46.1985 28.872C45.2582 28.2452 44.1685 28.0143 43.2188 27.9171C42.2548 27.8185 41.2147 27.8396 40.2637 27.8698L39.8534 27.8831C37.9813 27.9446 36.4391 27.9952 35.2047 27.6425C34.5577 27.4576 33.6054 26.6456 32.5709 25.1793ZM73.2684 66.1952C76.8774 61.1275 79 54.9279 79 48.2324C79 46.478 78.8543 44.7576 78.5742 43.0826C78.183 42.9977 77.7287 42.9023 77.224 42.8037C75.6086 42.4881 73.507 42.1462 71.3654 42.0154C69.1958 41.8829 67.1307 41.9774 65.5243 42.443C63.937 42.9031 63.0882 43.626 62.7362 44.5763C60.6782 50.1317 63.4337 53.0893 63.7309 53.3865C64.6539 54.3097 65.509 54.7039 66.6431 55.2268L66.6453 55.2279C66.7827 55.2912 66.9242 55.3565 67.0705 55.4248C68.4729 56.08 70.0528 56.9352 71.4826 59.0004C72.9329 61.0953 73.2115 63.761 73.2634 65.9452C73.2654 66.0286 73.267 66.1119 73.2684 66.1952ZM72.4433 29.1639C69.7089 25.6637 66.2391 22.7659 62.2662 20.7029C62.0103 22.7913 61.8751 24.9595 62.1552 26.8362C62.5142 29.2407 63.4483 30.6646 65.2543 31.1965C68.3591 32.1111 71.0062 30.7104 72.4433 29.1639ZM13 48.2324C13 28.9025 28.67 13.2324 48 13.2324C67.33 13.2324 83 28.9025 83 48.2324C83 67.5624 67.33 83.2324 48 83.2324C28.67 83.2324 13 67.5624 13 48.2324ZM38.5359 42.5433C38.5358 42.5432 38.5366 42.5421 38.5382 42.5402C38.5367 42.5424 38.5359 42.5434 38.5359 42.5433ZM38.5551 42.5234C38.5609 42.5185 38.5643 42.5164 38.5645 42.5166C38.5648 42.5168 38.5619 42.5193 38.5551 42.5234Z" fill="var(--spectrum-global-color-gray-800, #292929)"/>
</svg>
