<svg width="96" height="96" viewBox="0 0 96 96" xmlns="http://www.w3.org/2000/svg">
<path fill-rule="evenodd" d="M21.3203 19.96C18.0049 19.96 15.3203 22.6445 15.3203 25.96V75.9H26.2803V67.4499C26.2803 63.0354 29.8657 59.45 34.2803 59.45H38.4503C42.8648 59.45 46.4503 63.0354 46.4503 67.4499V75.9H57.4103V25.96C57.4103 22.6445 54.7257 19.96 51.4103 19.96H21.3203ZM11.3203 25.96C11.3203 20.4354 15.7957 15.96 21.3203 15.96H51.4103C56.9349 15.96 61.4103 20.4354 61.4103 25.96V77.9C61.4103 79.0045 60.5149 79.9 59.4103 79.9H13.3203C12.2157 79.9 11.3203 79.0045 11.3203 77.9V25.96ZM64.3398 30.4C64.3398 29.2955 65.2353 28.4 66.3398 28.4H74.6798C80.2044 28.4 84.6798 32.8755 84.6798 38.4V77.9C84.6798 79.0046 83.7844 79.9 82.6798 79.9H66.3398C65.2353 79.9 64.3398 79.0046 64.3398 77.9C64.3398 76.7955 65.2353 75.9 66.3398 75.9H80.6798V38.4C80.6798 35.0846 77.9953 32.4 74.6798 32.4H66.3398C65.2353 32.4 64.3398 31.5046 64.3398 30.4ZM30.2803 67.4499C30.2803 65.2445 32.0748 63.45 34.2803 63.45H38.4503C40.6557 63.45 42.4503 65.2445 42.4503 67.4499V75.9H30.2803V67.4499ZM30.1895 26.4399H26.2695C25.165 26.4399 24.2695 27.3354 24.2695 28.4399V32.3599C24.2695 33.4645 25.165 34.3599 26.2695 34.3599H30.1895C31.2941 34.3599 32.1895 33.4645 32.1895 32.3599V28.4399C32.1895 27.3354 31.2941 26.4399 30.1895 26.4399ZM42.5391 26.4399H46.4591C47.5636 26.4399 48.4591 27.3354 48.4591 28.4399V32.3599C48.4591 33.4645 47.5636 34.3599 46.4591 34.3599H42.5391C41.4345 34.3599 40.5391 33.4645 40.5391 32.3599V28.4399C40.5391 27.3354 41.4345 26.4399 42.5391 26.4399ZM30.1895 42.5899H26.2695C25.165 42.5899 24.2695 43.4854 24.2695 44.5899V48.5099C24.2695 49.6145 25.165 50.5099 26.2695 50.5099H30.1895C31.2941 50.5099 32.1895 49.6145 32.1895 48.5099V44.5899C32.1895 43.4854 31.2941 42.5899 30.1895 42.5899ZM42.5391 42.59H46.4591C47.5636 42.59 48.4591 43.4854 48.4591 44.59V48.51C48.4591 49.6145 47.5636 50.51 46.4591 50.51H42.5391C41.4345 50.51 40.5391 49.6145 40.5391 48.51V44.59C40.5391 43.4854 41.4345 42.59 42.5391 42.59ZM73.0001 42.12H69.0801C67.9755 42.12 67.0801 43.0154 67.0801 44.12V48.04C67.0801 49.1446 67.9755 50.04 69.0801 50.04H73.0001C74.1046 50.04 75.0001 49.1446 75.0001 48.04V44.12C75.0001 43.0154 74.1046 42.12 73.0001 42.12ZM69.0801 58.27H73.0001C74.1046 58.27 75.0001 59.1654 75.0001 60.27V64.19C75.0001 65.2946 74.1046 66.19 73.0001 66.19H69.0801C67.9755 66.19 67.0801 65.2946 67.0801 64.19V60.27C67.0801 59.1654 67.9755 58.27 69.0801 58.27Z" fill="var(--spectrum-global-color-gray-800, #292929)"/>
</svg>
