<svg width="48" height="48" viewBox="0 0 48 48" xmlns="http://www.w3.org/2000/svg">
<path fill-rule="evenodd" d="M24.0181 23.01L36.5965 10.4317C37.5054 9.52276 38.9791 9.52277 39.8881 10.4317C40.797 11.3407 40.797 12.8144 39.8881 13.7233L27.0348 26.5764C26.7133 25.7517 26.2724 25.0069 25.6973 24.3628C25.2112 23.8184 24.6492 23.3681 24.0181 23.01ZM21.3888 22.1038L34.8287 8.66393C36.714 6.77868 39.7706 6.77869 41.6558 8.66394C43.5411 10.5492 43.5411 13.6058 41.6558 15.4911L27.6747 29.4721C27.7089 29.8726 27.7254 30.283 27.7254 30.7017C27.7254 33.379 26.7238 35.6448 24.9695 37.3283C23.2344 38.9936 20.8293 40.0294 18.0842 40.4223C14.096 40.9931 8.70272 40.4476 6.2891 40.1479C5.46136 40.0451 4.94995 39.4246 4.80063 38.8088C4.65336 38.2015 4.81576 37.4465 5.44133 36.9628C6.79549 35.9156 8.941 33.9648 9.90187 31.6313C10.6901 29.7171 11.6752 27.3361 13.1104 25.4441C14.5728 23.5163 16.6146 21.953 19.5053 21.953C20.1655 21.953 20.7943 22.003 21.3888 22.1038ZM12.2136 32.5831C13.0236 30.616 13.8962 28.5449 15.1022 26.955C16.281 25.4011 17.6639 24.453 19.5053 24.453C21.6187 24.453 22.9798 25.0729 23.8325 26.0279C24.7073 27.0076 25.2254 28.5382 25.2254 30.7017C25.2254 32.7095 24.4933 34.3204 23.2385 35.5246C21.9646 36.7472 20.0855 37.6104 17.73 37.9475C14.8093 38.3656 10.9317 38.1223 8.26933 37.8545C9.64981 36.6068 11.308 34.7823 12.2136 32.5831Z" fill="var(--spectrum-global-color-gray-800, #292929)"/>
</svg>
