<svg width="48" height="48" viewBox="0 0 48 48" xmlns="http://www.w3.org/2000/svg">
<path fill-rule="evenodd" d="M38.6149 7.11137C39.4817 7.63363 40.0513 8.68741 39.7946 9.88046L39.7945 9.88089L39.1801 12.7312L39.1797 12.733C39.1757 12.7512 39.1761 12.7709 39.1809 12.7896C39.1857 12.8083 39.1934 12.8202 39.1988 12.8263L39.1991 12.8267L41.0959 14.9745L41.0961 14.9747C41.9104 15.8965 41.8979 17.0986 41.4188 17.9645C40.9364 18.8362 39.9004 19.4949 38.6642 19.2052L38.6638 19.2051L35.9455 18.5671L33.8891 20.5446L33.8888 20.5449C32.982 21.4171 31.7604 21.415 30.8851 20.8876C30.0183 20.3653 29.4487 19.3116 29.7054 18.1185L29.7055 18.1181L30.3199 15.2678L30.3203 15.266C30.3243 15.2478 30.3239 15.228 30.3191 15.2093C30.3143 15.1907 30.3066 15.1787 30.3012 15.1726L30.3009 15.1723L28.4041 13.0245L28.4039 13.0242C27.5896 12.1025 27.6021 10.9004 28.0812 10.0345C28.5636 9.16279 29.5996 8.50408 30.8358 8.79372L30.8362 8.79382L33.5545 9.43182L35.6109 7.45433L35.6112 7.45411C36.518 6.58183 37.7396 6.58395 38.6149 7.11137ZM37.3374 9.26245L35.2858 11.2353L35.2857 11.2354L35.2855 11.2356C34.6811 11.817 33.8234 12.0639 32.9956 11.8686L32.9945 11.8683L30.2776 11.2307C30.2749 11.2345 30.2718 11.2392 30.2687 11.2449C30.2529 11.2734 30.249 11.3011 30.2502 11.3175C30.2508 11.3244 30.2521 11.3297 30.2543 11.3349C30.2563 11.3397 30.2618 11.3513 30.2775 11.3691L30.2778 11.3693L32.1744 13.517L32.1745 13.5171L32.1748 13.5174C32.7247 14.1399 32.9378 14.9914 32.7636 15.7953L32.7634 15.7964L32.1495 18.6444L32.1494 18.6447L32.1494 18.6449C32.1429 18.6753 32.1438 18.6932 32.1446 18.7011C32.1455 18.7093 32.1472 18.7143 32.1489 18.718C32.1515 18.7236 32.1561 18.7303 32.1626 18.7365L34.2142 16.7637L34.2145 16.7633C34.819 16.1818 35.6769 15.935 36.5048 16.1305L36.5055 16.1306L39.2224 16.7683C39.2251 16.7645 39.2282 16.7598 39.2313 16.7541C39.2471 16.7256 39.251 16.6979 39.2498 16.6814C39.2492 16.6746 39.2479 16.6692 39.2457 16.664C39.2437 16.6593 39.2382 16.6477 39.2225 16.6299L39.2223 16.6296L37.3256 14.482C36.7754 13.8595 36.5621 13.0079 36.7363 12.2038L36.7366 12.2025L37.3505 9.35453L37.3506 9.3542L37.3506 9.3541C37.3571 9.32367 37.3562 9.30571 37.3554 9.29789C37.3545 9.28967 37.3528 9.28462 37.3511 9.28098C37.3485 9.27533 37.3439 9.26863 37.3374 9.26245ZM7.75 14.9868C7.75 12.309 9.96401 10.2495 12.6002 10.2495H25.0312C25.7216 10.2495 26.2812 10.8091 26.2812 11.4995C26.2812 12.1898 25.7216 12.7495 25.0312 12.7495H12.6002C11.2597 12.7495 10.25 13.7732 10.25 14.9868V26.4745C10.25 27.6881 11.2597 28.7118 12.6002 28.7118H15.6667H16.9114L16.9167 29.9565C16.9235 31.5798 16.9299 33.8927 16.9176 35.695L24.8615 29.0057L25.2105 28.7118H25.6667H35.3998C36.7403 28.7118 37.75 27.6881 37.75 26.4745V21.8735C37.75 21.1831 38.3096 20.6235 39 20.6235C39.6904 20.6235 40.25 21.1831 40.25 21.8735V26.4745C40.25 29.1523 38.036 31.2118 35.3998 31.2118H26.1229L18.4614 37.6632L18.4593 37.665C16.9064 38.9795 14.4008 37.9401 14.4167 35.8056C14.427 34.4169 14.4256 32.6911 14.4212 31.2118H12.6002C9.96401 31.2118 7.75 29.1523 7.75 26.4745V14.9868ZM26.99 25.1362L24.9824 24.6838C24.7166 24.6244 24.4408 24.6987 24.2411 24.8819L22.7287 26.2771C22.1327 26.8269 21.185 26.2787 21.3633 25.4895L21.8157 23.4819C21.8751 23.216 21.8008 22.9403 21.6175 22.7405L20.2224 21.2282C19.6726 20.6321 20.2208 19.6844 21.01 19.8628L23.0176 20.3151C23.2834 20.3746 23.5592 20.3003 23.7589 20.117L25.2713 18.7219C25.8673 18.1721 26.815 18.7202 26.6367 19.5094L26.1843 21.5171C26.1249 21.7829 26.1992 22.0587 26.3825 22.2584L27.7776 23.7708C28.3274 24.3668 27.7792 25.3145 26.99 25.1362Z" fill="var(--spectrum-global-color-gray-800, #292929)"/>
</svg>
