<svg width="160" height="160" viewBox="0 0 160 160" xmlns="http://www.w3.org/2000/svg">
<path fill-rule="evenodd" d="M136 50C136 43.3726 130.627 38 124 38H36C29.3726 38 24 43.3726 24 50V110C24 116.627 29.3726 122 36 122H124C130.627 122 136 116.627 136 110V50ZM124 30C135.046 30 144 38.9543 144 50V110C144 121.046 135.046 130 124 130H36C24.9543 130 16 121.046 16 110V50C16 38.9543 24.9543 30 36 30H124ZM71.811 64.4788L92.7442 76.5979C95.0885 77.9552 95.0845 81.3413 92.7369 82.693L71.7748 94.762C69.4272 96.1137 66.4968 94.4171 66.5 91.7082L66.5289 67.52C66.5322 64.8111 69.4667 63.1215 71.811 64.4788Z" fill="var(--spectrum-global-color-gray-800, #292929)"/>
</svg>
