<svg width="48" height="48" viewBox="0 0 48 48" xmlns="http://www.w3.org/2000/svg">
<path fill-rule="evenodd" d="M17.5061 14.75L20.0961 10.6087C20.2426 10.3817 20.4888 10.25 20.74 10.25H27.27C27.5212 10.25 27.7674 10.3817 27.9139 10.6087L30.5039 14.75H17.5061ZM14.5574 14.75L17.9802 9.27719L17.9861 9.2677L17.9862 9.26773C18.58 8.3369 19.6125 7.75 20.74 7.75H27.27C28.3975 7.75 29.43 8.3369 30.0238 9.26773L30.0298 9.27716L30.0298 9.27719L33.4526 14.75H37C39.8995 14.75 42.25 17.1005 42.25 20V35C42.25 37.8995 39.8995 40.25 37 40.25H11C8.1005 40.25 5.75 37.8995 5.75 35V20C5.75 17.1005 8.1005 14.75 11 14.75H14.5574ZM15.25 17.25H11C9.48122 17.25 8.25 18.4812 8.25 20V35C8.25 36.5188 9.48122 37.75 11 37.75H37C38.5188 37.75 39.75 36.5188 39.75 35V20C39.75 18.4812 38.5188 17.25 37 17.25H32.76H32.75H15.25ZM23.9998 22.26C21.1058 22.26 18.7598 24.606 18.7598 27.5C18.7598 30.394 21.1058 32.74 23.9998 32.74C26.8937 32.74 29.2398 30.394 29.2398 27.5C29.2398 24.606 26.8937 22.26 23.9998 22.26ZM16.2598 27.5C16.2598 23.2253 19.7251 19.76 23.9998 19.76C28.2744 19.76 31.7398 23.2253 31.7398 27.5C31.7398 31.7747 28.2744 35.24 23.9998 35.24C19.7251 35.24 16.2598 31.7747 16.2598 27.5ZM14.25 21.5C14.25 22.4665 13.4665 23.25 12.5 23.25C11.5335 23.25 10.75 22.4665 10.75 21.5C10.75 20.5335 11.5335 19.75 12.5 19.75C13.4665 19.75 14.25 20.5335 14.25 21.5Z" fill="var(--spectrum-global-color-gray-800, #292929)"/>
</svg>
