<svg width="48" height="48" viewBox="0 0 48 48" xmlns="http://www.w3.org/2000/svg">
<path fill-rule="evenodd" d="M20.0392 10.6432L28.1398 10.6432C28.8301 10.6432 29.3898 11.2028 29.3898 11.8932C29.3898 12.5835 28.8301 13.1432 28.1398 13.1432H26.0198C25.4465 17.2593 23.1969 20.5186 20.5175 22.8739C19.9109 23.4072 19.2786 23.8975 18.6333 24.3443C20.2222 26.6857 22.0197 28.6814 23.4167 29.5837C23.9966 29.9583 24.1631 30.7321 23.7885 31.312C23.4139 31.8919 22.6402 32.0583 22.0603 31.6837C20.2205 30.4954 18.1666 28.1267 16.4966 25.6475C14.7696 26.5685 13.0485 27.1847 11.5628 27.4838C10.886 27.62 10.2269 27.1819 10.0907 26.5051C9.95445 25.8283 10.3926 25.1692 11.0694 25.033C12.2723 24.7908 13.7074 24.2844 15.1721 23.5198C14.0397 21.5406 13.1587 19.5134 12.8689 17.8689C12.7491 17.189 13.2031 16.5408 13.883 16.4209C14.5628 16.3011 15.2111 16.7552 15.3309 17.435C15.5517 18.6878 16.2799 20.4118 17.309 22.2201C17.841 21.8467 18.3637 21.4386 18.8669 20.9963C21.1372 19.0006 22.9437 16.3699 23.4903 13.1432L9.15234 13.1432C8.46199 13.1432 7.90234 12.5835 7.90234 11.8932C7.90234 11.2028 8.46199 10.6432 9.15234 10.6432L17.5392 10.6432V9.125C17.5392 8.43464 18.0988 7.875 18.7892 7.875C19.4795 7.875 20.0392 8.43464 20.0392 9.125V10.6432ZM25.5282 39.3624L27.8786 33.817H35.345L37.6954 39.3624C37.9648 39.9981 38.6985 40.2949 39.3341 40.0255C39.9697 39.7561 40.2666 39.0225 39.9972 38.3868L32.7678 21.3303C32.717 21.2067 32.6464 21.0911 32.5582 20.9888C32.4369 20.8481 32.2822 20.7324 32.0997 20.655C31.9403 20.5874 31.7747 20.5555 31.6118 20.5556C31.4489 20.5555 31.2834 20.5874 31.124 20.655C30.9414 20.7324 30.7868 20.8481 30.6655 20.9888C30.6185 21.0432 30.5758 21.1023 30.5381 21.1656C30.5067 21.2185 30.4791 21.2735 30.4558 21.3303L23.2264 38.3868C22.957 39.0225 23.2539 39.7561 23.8895 40.0255C24.5251 40.2949 25.2588 39.9981 25.5282 39.3624ZM31.6118 25.0091L28.9382 31.317H34.2854L31.6118 25.0091Z" fill="var(--spectrum-global-color-gray-800, #292929)"/>
</svg>
