<svg width="160" height="160" viewBox="0 0 160 160" xmlns="http://www.w3.org/2000/svg">
<path fill-rule="evenodd" d="M47.0254 41.3001C47.0254 31.0897 55.3026 22.8125 65.513 22.8125C71.3828 22.8125 76.6137 25.5481 80.0003 29.8138C83.387 25.5481 88.6179 22.8125 94.4877 22.8125C104.698 22.8125 112.975 31.0897 112.975 41.3001C112.975 45.1943 111.771 48.8073 109.715 51.7871H121.418C129.345 51.7871 135.772 58.2138 135.772 66.1415V73.0443C135.772 78.2435 133.008 82.797 128.869 85.3156V117.913C128.869 127.747 120.897 135.719 111.063 135.719H48.9372C39.1033 135.719 31.1314 127.747 31.1314 117.913V85.3156C26.9926 82.797 24.2285 78.2435 24.2285 73.0443V66.1415C24.2285 58.2138 30.6552 51.7871 38.5829 51.7871H50.2855C48.2294 48.8073 47.0254 45.1943 47.0254 41.3001ZM84.0002 59.7877H94.4877C94.5361 59.7877 94.5844 59.7875 94.6327 59.7871H121.418C124.927 59.7871 127.772 62.632 127.772 66.1415V73.0443C127.772 76.5538 124.927 79.3987 121.418 79.3987H84.0002V59.7877ZM76.0003 41.2223C76.0002 41.2482 76.0001 41.2741 76.0001 41.3001V51.7871H65.4039C59.662 51.7286 55.0254 47.0558 55.0254 41.3001C55.0254 35.508 59.7208 30.8125 65.513 30.8125C71.2792 30.8125 75.9585 35.466 76.0003 41.2223ZM94.5967 51.7871C100.339 51.7286 104.975 47.0558 104.975 41.3001C104.975 35.508 100.28 30.8125 94.4877 30.8125C88.7215 30.8125 84.0422 35.466 84.0004 41.2223C84.0005 41.2482 84.0006 41.2741 84.0006 41.3001V51.7871H94.5967ZM65.4299 59.7875C65.4092 59.7874 65.3886 59.7873 65.368 59.7871H38.5829C35.0735 59.7871 32.2285 62.632 32.2285 66.1415V73.0443C32.2285 76.5537 35.0735 79.3987 38.5829 79.3987H76.0002V59.7877H65.513C65.4853 59.7877 65.4576 59.7876 65.4299 59.7875ZM76.0002 87.3987H39.1314V117.913C39.1314 123.329 43.5216 127.719 48.9372 127.719H76.0002L76.0002 87.3987ZM84.0002 127.719L84.0002 87.3987H120.869V117.913C120.869 123.329 116.479 127.719 111.063 127.719H84.0002Z" fill="var(--spectrum-global-color-gray-800, #292929)"/>
</svg>
