<svg width="48" height="48" viewBox="0 0 48 48" xmlns="http://www.w3.org/2000/svg">
<path fill-rule="evenodd" d="M11.6294 11.8125C9.79752 11.8125 8.3125 13.2975 8.3125 15.1294V29.1154C8.3125 29.3088 8.32904 29.4982 8.36077 29.6825L14.2824 20.5039C15.5216 18.5832 18.3409 18.6142 19.5376 20.5616L24.2815 28.2822L26.9909 24.148C28.2309 22.2561 31.0128 22.2822 32.2169 24.1971L34.5365 27.8858L34.5376 27.8876L35.9242 30.0847C36.0177 29.7781 36.0681 29.4526 36.0681 29.1154V15.1294C36.0681 13.2975 34.583 11.8125 32.7512 11.8125H11.6294ZM34.2304 32.085L32.4223 29.2201L32.4213 29.2184L30.1006 25.528C29.8659 25.1547 29.3236 25.1496 29.0819 25.5184L24.5508 32.4323H32.7512C33.2827 32.4323 33.7851 32.3073 34.2304 32.085ZM21.5617 32.4323L22.7672 30.593L17.4075 21.8704C17.1743 21.4908 16.6247 21.4848 16.3832 21.8592L9.88235 31.9355C10.3897 32.2504 10.9883 32.4323 11.6294 32.4323H21.5617ZM5.8125 15.1294C5.8125 11.9168 8.4168 9.3125 11.6294 9.3125H32.7512C35.9638 9.3125 38.5681 11.9168 38.5681 15.1294V29.1154C38.5681 32.328 35.9638 34.9323 32.7512 34.9323H11.6294C8.4168 34.9323 5.8125 32.328 5.8125 29.1154V15.1294ZM30.0391 19.8667C31.4198 19.8667 32.5391 18.7474 32.5391 17.3667C32.5391 15.986 31.4198 14.8667 30.0391 14.8667C28.6584 14.8667 27.5391 15.986 27.5391 17.3667C27.5391 18.7474 28.6584 19.8667 30.0391 19.8667ZM42.8692 20.4185C42.8692 19.7281 42.3096 19.1685 41.6192 19.1685C40.9289 19.1685 40.3692 19.7281 40.3692 20.4185V31.9784C40.3692 34.4408 38.373 36.437 35.9106 36.437H17.0723C16.3819 36.437 15.8223 36.9966 15.8223 37.687C15.8223 38.3773 16.3819 38.937 17.0723 38.937H35.9106C39.7538 38.937 42.8692 35.8215 42.8692 31.9784V20.4185Z" fill="var(--spectrum-global-color-gray-800, #292929)"/>
</svg>
