<svg width="160" height="160" viewBox="0 0 160 160" xmlns="http://www.w3.org/2000/svg">
<path fill-rule="evenodd" d="M35.4297 36.4707C28.8023 36.4707 23.4297 41.8433 23.4297 48.4707V97.4707C23.4297 98.4936 23.5577 99.4865 23.7985 100.435L45.0428 67.5058C49.2327 61.0115 58.7659 61.1163 62.812 67.7011L79.7453 95.2592L89.5649 80.2758C93.7575 73.8785 103.164 73.9669 107.236 80.4418L115.363 93.3657L115.366 93.3712L120.648 101.74C121.153 100.414 121.43 98.9745 121.43 97.4707V48.4707C121.43 41.8433 116.057 36.4707 109.43 36.4707H35.4297ZM115.152 108.021L108.597 97.6354L108.594 97.6299L100.463 84.7004C99.4939 83.1588 97.2543 83.1378 96.2561 84.6609L79.9966 109.471H109.43C111.502 109.471 113.451 108.946 115.152 108.021ZM70.4317 109.471L74.8993 102.654L55.9959 71.8893C55.0326 70.3215 52.7628 70.2965 51.7652 71.8428L28.7838 107.464C30.6865 108.732 32.9718 109.471 35.4297 109.471H70.4317ZM15.4297 48.4707C15.4297 37.425 24.384 28.4707 35.4297 28.4707H109.43C120.475 28.4707 129.43 37.425 129.43 48.4707V97.4707C129.43 108.516 120.475 117.471 109.43 117.471H35.4297C24.384 117.471 15.4297 108.516 15.4297 97.4707V48.4707ZM101.93 62.6307C106.348 62.6307 109.93 59.049 109.93 54.6307C109.93 50.2124 106.348 46.6307 101.93 46.6307C97.5114 46.6307 93.9297 50.2124 93.9297 54.6307C93.9297 59.049 97.5114 62.6307 101.93 62.6307ZM144.5 67.0005C144.5 64.7913 142.709 63.0005 140.5 63.0005C138.291 63.0005 136.5 64.7913 136.5 67.0005V107.5C136.5 116.337 129.337 123.5 120.5 123.5H54.5C52.2909 123.5 50.5 125.291 50.5 127.5C50.5 129.71 52.2909 131.5 54.5 131.5H120.5C133.755 131.5 144.5 120.755 144.5 107.5V67.0005Z" fill="var(--spectrum-global-color-gray-800, #292929)"/>
</svg>
