<svg width="96" height="96" viewBox="0 0 96 96" xmlns="http://www.w3.org/2000/svg">
<path fill-rule="evenodd" d="M13 26C13 22.6863 15.6863 20 19 20H77C80.3137 20 83 22.6863 83 26V70C83 73.3137 80.3137 76 77 76H19C15.6863 76 13 73.3137 13 70V26ZM19 16C13.4772 16 9 20.4772 9 26V70C9 75.5228 13.4772 80 19 80H77C82.5229 80 87 75.5228 87 70V26C87 20.4772 82.5229 16 77 16H19ZM23 47.5C23 48.8807 21.8807 50 20.5 50C19.1193 50 18 48.8807 18 47.5C18 46.1193 19.1193 45 20.5 45C21.8807 45 23 46.1193 23 47.5Z" fill="var(--spectrum-global-color-gray-800, #292929)"/>
</svg>
