<svg width="48" height="48" viewBox="0 0 48 48" xmlns="http://www.w3.org/2000/svg">
<path fill-rule="evenodd" d="M15 12.25C13.4804 12.25 12.25 13.4804 12.25 15V30.75H35.75V15C35.75 13.4804 34.5196 12.25 33 12.25H15ZM9.75 15V30.75H8.5C6.42893 30.75 4.75 32.4289 4.75 34.5C4.75 36.5711 6.42893 38.25 8.5 38.25H39.5C41.5711 38.25 43.25 36.5711 43.25 34.5C43.25 32.4289 41.5711 30.75 39.5 30.75H38.25V15C38.25 12.0996 35.9004 9.75 33 9.75H15C12.0996 9.75 9.75 12.0996 9.75 15ZM8.5 33.25C7.80964 33.25 7.25 33.8096 7.25 34.5C7.25 35.1904 7.80964 35.75 8.5 35.75H39.5C40.1904 35.75 40.75 35.1904 40.75 34.5C40.75 33.8096 40.1904 33.25 39.5 33.25H8.5ZM25.5 15.5C25.5 16.3284 24.8284 17 24 17C23.1716 17 22.5 16.3284 22.5 15.5C22.5 14.6716 23.1716 14 24 14C24.8284 14 25.5 14.6716 25.5 15.5Z" fill="var(--spectrum-global-color-gray-800, #292929)"/>
</svg>
