<svg width="48" height="48" viewBox="0 0 48 48" xmlns="http://www.w3.org/2000/svg">
<path fill-rule="evenodd" d="M24 5.75C19.9959 5.75 16.75 8.99594 16.75 13V21C16.75 25.0041 19.9959 28.25 24 28.25C28.0041 28.25 31.25 25.0041 31.25 21V13C31.25 8.99594 28.0041 5.75 24 5.75ZM19.25 13C19.25 10.3766 21.3766 8.25 24 8.25C26.6234 8.25 28.75 10.3766 28.75 13V21C28.75 23.6234 26.6234 25.75 24 25.75C21.3766 25.75 19.25 23.6234 19.25 21V13ZM22.75 34.1918C16.0184 33.5619 10.75 27.8962 10.75 21V19.5C10.75 18.8096 11.3096 18.25 12 18.25C12.6904 18.25 13.25 18.8096 13.25 19.5V21C13.25 26.9371 18.0629 31.75 24 31.75C29.9371 31.75 34.75 26.9371 34.75 21V19.5C34.75 18.8096 35.3096 18.25 36 18.25C36.6904 18.25 37.25 18.8096 37.25 19.5V21C37.25 27.8962 31.9816 33.5619 25.25 34.1918V37.75H31C31.6904 37.75 32.25 38.3096 32.25 39C32.25 39.6904 31.6904 40.25 31 40.25H17C16.3096 40.25 15.75 39.6904 15.75 39C15.75 38.3096 16.3096 37.75 17 37.75H22.75V34.1918Z" fill="var(--spectrum-global-color-gray-800, #292929)"/>
</svg>
