<svg width="48" height="49" viewBox="0 0 48 49" xmlns="http://www.w3.org/2000/svg">
<path fill-rule="evenodd" d="M19.1333 9.52301C16.1094 10.5057 13.4872 12.3795 11.5768 14.8344H16.265C16.9993 13.0152 17.9543 11.237 19.1333 9.52301ZM22.7351 8.90715C21.1655 10.7927 19.9174 12.7817 18.986 14.8344H22.7351V8.90715ZM15.4013 17.3344H9.98437C9.03986 19.1812 8.44964 21.2392 8.30334 23.4189H14.4304C14.501 21.3744 14.8231 19.3366 15.4013 17.3344ZM16.9324 23.4189C17.0119 21.37 17.3721 19.3305 18.0173 17.3344H22.7351V23.4189H16.9324ZM14.4691 25.9189H8.33176C8.52916 28.1086 9.17523 30.1689 10.1773 32.0072H15.6145C14.986 30.0026 14.6027 27.9634 14.4691 25.9189ZM16.5336 34.5072H11.8699C13.7729 36.8086 16.3182 38.5593 19.2312 39.4848C18.1527 37.873 17.2525 36.2075 16.5336 34.5072ZM19.2699 34.5072H22.7351V40.0492C21.3266 38.272 20.1702 36.4144 19.2699 34.5072ZM22.7351 32.0072H18.2456C17.5471 30.0048 17.122 27.9641 16.9744 25.9189H22.7351V32.0072ZM25.2351 34.5072V40.0863C26.657 38.2979 27.8232 36.4276 28.7298 34.5072H25.2351ZM29.7541 32.0072H25.2351V25.9189H31.0253C30.8777 27.9641 30.4526 30.0048 29.7541 32.0072ZM31.4661 34.5072C30.7471 36.2075 29.8469 37.873 28.7684 39.4848C31.6815 38.5594 34.2269 36.8086 36.1299 34.5072H31.4661ZM37.8225 32.0072H32.3852C33.0137 30.0026 33.397 27.9634 33.5306 25.9189H39.668C39.4706 28.1086 38.8246 30.1689 37.8225 32.0072ZM25.2351 23.4189V17.3344H29.9824C30.6276 19.3305 30.9878 21.37 31.0672 23.4189H25.2351ZM33.5693 23.4189C33.4987 21.3744 33.1765 19.3366 32.5983 17.3344H38.0154C38.9599 19.1812 39.5502 21.2392 39.6964 23.4189H33.5693ZM28.8663 9.52296C30.0454 11.2369 31.0003 13.0151 31.7346 14.8344H36.423C34.5125 12.3794 31.8903 10.5056 28.8663 9.52296ZM29.0136 14.8344C28.0764 12.7688 26.8185 10.7679 25.2351 8.87184V14.8344H29.0136ZM5.76758 24.4882C5.76758 14.4187 13.9305 6.25586 23.9999 6.25586C34.0693 6.25586 42.2322 14.4187 42.2322 24.4882C42.2322 34.5576 34.0693 42.7205 23.9999 42.7205C13.9305 42.7205 5.76758 34.5576 5.76758 24.4882Z" fill="var(--spectrum-global-color-gray-800, #292929)"/>
</svg>
