<svg width="97" height="96" viewBox="0 0 97 96" xmlns="http://www.w3.org/2000/svg">
<path fill-rule="evenodd" d="M38.5253 18.239C40.7522 15.8066 44.042 14.0156 48.596 14.0156C53.9713 14.0156 57.5531 16.4591 59.7257 19.4783C61.8287 22.401 62.596 25.8247 62.596 28.0312L62.596 28.0462C62.5601 32.847 62.5861 41.0904 62.594 43.5809L62.594 43.5939L62.5941 43.6276C62.5953 43.999 62.596 44.2333 62.596 44.2969C62.596 46.3056 62.0203 48.236 61.3291 49.8061C60.884 50.817 59.7037 51.2758 58.6928 50.8307C57.6818 50.3857 57.2231 49.2054 57.6682 48.1944C58.2201 46.9407 58.596 45.5739 58.596 44.2969C58.596 44.2381 58.5953 44.0054 58.5941 43.6331C58.5864 41.2097 58.5599 32.8689 58.596 28.0243C58.5942 26.5577 58.0358 23.9784 56.4789 21.8146C54.989 19.7441 52.5707 18.0156 48.596 18.0156C45.2112 18.0156 42.9772 19.2999 41.4757 20.94C39.9226 22.6365 39.0842 24.7998 38.7559 26.5285C38.5499 27.6137 37.5031 28.3264 36.4179 28.1203C35.3327 27.9143 34.6201 26.8675 34.8261 25.7824C35.2554 23.5217 36.35 20.6152 38.5253 18.239ZM18.1369 14.6014C17.3558 13.8204 16.0895 13.8204 15.3084 14.6014C14.5274 15.3825 14.5274 16.6488 15.3084 17.4298L79.2497 81.3711C80.0307 82.1521 81.2971 82.1521 82.0781 81.3711C82.8592 80.59 82.8592 79.3237 82.0781 78.5427L18.1369 14.6014ZM22.5439 43.9844C22.5439 57.6886 33.1465 68.9164 46.5962 69.9125V77.9844H34.5962C33.4916 77.9844 32.5962 78.8798 32.5962 79.9844C32.5962 81.0889 33.4916 81.9844 34.5962 81.9844H62.5962C63.7008 81.9844 64.5962 81.0889 64.5962 79.9844C64.5962 78.8798 63.7008 77.9844 62.5962 77.9844H50.5962V69.9032C52.5525 69.7515 55.2602 69.3331 58.0224 68.2283C59.048 67.818 59.5468 66.6541 59.1366 65.6285C58.7263 64.603 57.5624 64.1041 56.5368 64.5144C53.2638 65.8236 50.005 65.9844 48.5439 65.9844C36.3937 65.9844 26.5439 56.1346 26.5439 43.9844V40.9844C26.5439 39.8798 25.6485 38.9844 24.5439 38.9844C23.4394 38.9844 22.5439 39.8798 22.5439 40.9844V43.9844ZM38.7268 45.6283C38.6165 44.5293 37.6361 43.7278 36.537 43.8381C35.438 43.9485 34.6365 44.9289 34.7468 46.0279C34.9915 48.4654 36.2696 51.19 38.239 53.3831C40.231 55.6015 43.0712 57.4311 46.5646 57.8161C47.6625 57.9371 48.6506 57.1451 48.7717 56.0472C48.8927 54.9493 48.1007 53.9612 47.0028 53.8402C44.6837 53.5846 42.6958 52.3595 41.2151 50.7106C39.7119 49.0365 38.8727 47.0815 38.7268 45.6283ZM74.5962 40.9844C74.5962 39.8798 73.7008 38.9844 72.5962 38.9844C71.4916 38.9844 70.5962 39.8798 70.5962 40.9844C70.5962 45.419 70.2456 48.4349 69.5978 50.7526C68.9622 53.0264 68.017 54.7133 66.69 56.4635C66.0226 57.3437 66.1952 58.5982 67.0753 59.2656C67.9555 59.9329 69.21 59.7604 69.8774 58.8802C71.441 56.818 72.652 54.6846 73.4501 51.8294C74.2359 49.0182 74.5962 45.5966 74.5962 40.9844Z" fill="var(--spectrum-global-color-gray-800, #292929)"/>
</svg>
