<svg width="96" height="96" viewBox="0 0 96 96" xmlns="http://www.w3.org/2000/svg">
<path fill-rule="evenodd" d="M37.6419 16C33.3988 16 30 19.4747 30 23.7101C30 27.4471 32.5733 31.0426 36.462 31.5616V41.8438C32.7115 42.3012 30 45.3866 30 49.2899C30 53.5253 33.3988 57 37.6419 57H46V80C46 81.1046 46.8954 82 48 82C49.1046 82 50 81.1046 50 80V57H58.3581C62.6012 57 66 53.5253 66 49.2899C66 45.5529 63.4266 41.9573 59.538 41.4383V31.1562C63.2885 30.6989 66 27.6134 66 23.7101C66 19.4747 62.6012 16 58.3581 16H37.6419ZM34 23.7101C34 21.6383 35.6531 20 37.6419 20H58.3581C60.3468 20 62 21.6384 62 23.7101C62 25.784 60.5521 27.2148 58.5654 27.2148H57.538C56.4334 27.2148 55.538 28.1102 55.538 29.2148V43.3743C55.538 44.4789 56.4334 45.3743 57.538 45.3743H58.5654C60.3709 45.3743 62 47.0231 62 49.2899C62 51.3617 60.3468 53 58.3581 53H37.6419C35.6531 53 34 51.3616 34 49.2899C34 47.216 35.4479 45.7852 37.4347 45.7852H38.462C39.5665 45.7852 40.462 44.8898 40.462 43.7852V29.6257C40.462 28.5211 39.5665 27.6257 38.462 27.6257H37.4347C35.6291 27.6257 34 25.9769 34 23.7101Z" fill="var(--spectrum-global-color-gray-800, #292929)"/>
</svg>
