<svg width="48" height="48" viewBox="0 0 48 48" xmlns="http://www.w3.org/2000/svg">
<path fill-rule="evenodd" d="M8.25 23.74C8.25 15.0415 15.3015 7.99001 24 7.99001C32.6985 7.99001 39.75 15.0415 39.75 23.74C39.75 32.4385 32.6985 39.49 24 39.49C15.3015 39.49 8.25 32.4385 8.25 23.74ZM24 5.49001C13.9208 5.49001 5.75 13.6608 5.75 23.74C5.75 33.8192 13.9208 41.99 24 41.99C34.0792 41.99 42.25 33.8192 42.25 23.74C42.25 13.6608 34.0792 5.49001 24 5.49001ZM25.25 16.74C25.25 17.7065 24.4665 18.49 23.5 18.49C22.5335 18.49 21.75 17.7065 21.75 16.74C21.75 15.7735 22.5335 14.99 23.5 14.99C24.4665 14.99 25.25 15.7735 25.25 16.74ZM22 20.49C21.3096 20.49 20.75 21.0497 20.75 21.74C20.75 22.4304 21.3096 22.99 22 22.99H22.75V28.49H22C21.3096 28.49 20.75 29.0496 20.75 29.74C20.75 30.4304 21.3096 30.99 22 30.99H26C26.6904 30.99 27.25 30.4304 27.25 29.74C27.25 29.0496 26.6904 28.49 26 28.49H25.25V21.74C25.25 21.0497 24.6904 20.49 24 20.49H22Z" fill="var(--spectrum-global-color-gray-800, #292929)"/>
</svg>
