<svg width="96" height="96" viewBox="0 0 96 96" xmlns="http://www.w3.org/2000/svg">
<path fill-rule="evenodd" d="M16.5 47.74C16.5 30.6192 30.3792 16.74 47.5 16.74C64.6208 16.74 78.5 30.6192 78.5 47.74C78.5 64.8608 64.6208 78.74 47.5 78.74C30.3792 78.74 16.5 64.8608 16.5 47.74ZM47.5 12.74C28.17 12.74 12.5 28.41 12.5 47.74C12.5 67.07 28.17 82.74 47.5 82.74C66.83 82.74 82.5 67.07 82.5 47.74C82.5 28.41 66.83 12.74 47.5 12.74ZM50 34.24C50 35.8969 48.6569 37.24 47 37.24C45.3431 37.24 44 35.8969 44 34.24C44 32.5832 45.3431 31.24 47 31.24C48.6569 31.24 50 32.5832 50 34.24ZM43 40.24C41.8954 40.24 41 41.1354 41 42.24C41 43.3446 41.8954 44.24 43 44.24H46V58.24H43C41.8954 58.24 41 59.1354 41 60.24C41 61.3446 41.8954 62.24 43 62.24H53C54.1046 62.24 55 61.3446 55 60.24C55 59.1354 54.1046 58.24 53 58.24H50V42.24C50 41.1354 49.1046 40.24 48 40.24H43Z" fill="var(--spectrum-global-color-gray-800, #292929)"/>
</svg>
