<svg width="96" height="96" viewBox="0 0 96 96" xmlns="http://www.w3.org/2000/svg">
<path fill-rule="evenodd" d="M62.6134 20.7952C64.6973 21.9091 66.6391 23.2533 68.4048 24.7971C69.4872 25.7443 70.5031 26.7656 71.4446 27.853C72.2818 28.8207 73.0605 29.8421 73.7755 30.9121C76.6077 35.1509 78.3509 40.0228 78.8506 45.0962C78.901 45.6083 78.9386 46.1208 78.9635 46.6333C78.9872 47.1308 78.9992 47.6314 78.9992 48.1348C78.9992 48.6365 78.9873 49.1355 78.9637 49.6315C78.792 53.1837 78.0097 56.6915 76.6402 59.998C75.3637 63.0795 73.603 65.9241 71.4343 68.4284C70.4978 69.5089 69.4879 70.524 68.4122 71.4659C68.1671 71.6803 67.9184 71.8911 67.6662 72.0981C63.7255 75.3322 59.0479 77.5445 54.048 78.5391C49.048 79.5337 43.88 79.2798 39.0016 77.7999C34.7627 76.5141 30.8563 74.3371 27.5401 71.4236L49.4145 49.549C49.7896 49.1739 50.0003 48.6652 50.0003 48.1348V17.1993C54.4053 17.4841 58.7068 18.7071 62.6134 20.7952ZM45.115 48.1916L24.7111 68.5958C19.9109 63.1365 17 55.9756 17 48.1348C17 40.997 19.4123 34.4227 23.4661 29.1826L45.115 48.1916ZM46.0003 43.6457V17.1982C38.2524 17.6914 31.2782 21.0309 26.1117 26.1824L46.0003 43.6457ZM13 48.1348C13 28.8048 28.6698 13.1348 47.9996 13.1348H48.0003L48.062 13.1348C56.9107 13.1503 64.9892 16.4495 71.1438 21.879C72.2868 22.8865 73.3638 23.9685 74.3674 25.1183C79.4221 30.9043 82.6032 38.369 82.9647 46.5664C83.0116 47.6111 83.0115 48.6556 82.965 49.6969C82.6045 57.9036 79.418 65.3764 74.3546 71.1659C73.3591 72.305 72.2886 73.3811 71.1486 74.3863C64.9789 79.8311 56.8751 83.1348 47.9996 83.1348C28.6698 83.1348 13 67.4647 13 48.1348Z" fill="var(--spectrum-global-color-gray-800, #292929)"/>
</svg>
