<svg width="96" height="96" viewBox="0 0 96 96" xmlns="http://www.w3.org/2000/svg">
<path fill-rule="evenodd" d="M23.302 24.1743C19.6036 24.1743 16.6055 27.1724 16.6055 30.8708V57.5039C16.6055 58.211 16.7151 58.8925 16.9182 59.5323L28.6736 41.3113C30.8815 37.8892 35.905 37.9444 38.0371 41.4143L47.3842 56.6263L52.8716 48.2533C55.0808 44.8823 60.0376 44.9288 62.1831 48.3408L66.6006 55.3656L66.6023 55.3683L69.6536 60.2031C70.0177 59.3774 70.2199 58.4643 70.2199 57.5039V30.8708C70.2199 27.1724 67.2217 24.1743 63.5234 24.1743H23.302ZM66.8785 63.3006L63.2179 57.5004L63.2162 57.4977L58.797 50.4701C58.2025 49.5248 56.8292 49.5119 56.2171 50.4459L47.2029 64.2004H63.5234C64.7459 64.2004 65.8919 63.8728 66.8785 63.3006ZM42.4204 64.2004L44.9612 60.3235L34.629 43.5084C34.0383 42.547 32.6465 42.5317 32.0348 43.4799L19.4518 62.9836C20.5409 63.7502 21.8689 64.2004 23.302 64.2004H42.4204ZM12.6055 30.8708C12.6055 24.9633 17.3945 20.1743 23.302 20.1743H63.5234C69.4309 20.1743 74.2199 24.9633 74.2199 30.8708V57.5039C74.2199 63.4114 69.4309 68.2004 63.5234 68.2004H23.302C17.3945 68.2004 12.6055 63.4114 12.6055 57.5039V30.8708ZM58.5977 40.3707C61.3591 40.3707 63.5977 38.1322 63.5977 35.3707C63.5977 32.6093 61.3591 30.3707 58.5977 30.3707C55.8362 30.3707 53.5977 32.6093 53.5977 35.3707C53.5977 38.1322 55.8362 40.3707 58.5977 40.3707ZM82.4117 40.9423C82.4117 39.8377 81.5163 38.9423 80.4117 38.9423C79.3072 38.9423 78.4117 39.8377 78.4117 40.9423V62.9553C78.4117 67.8544 74.4402 71.826 69.5411 71.826H33.668C32.5634 71.826 31.668 72.7214 31.668 73.826C31.668 74.9305 32.5634 75.826 33.668 75.826H69.5411C76.6494 75.826 82.4117 70.0636 82.4117 62.9553V40.9423Z" fill="var(--spectrum-global-color-gray-800, #292929)"/>
</svg>
