<svg width="160" height="160" viewBox="0 0 160 160" xmlns="http://www.w3.org/2000/svg">
<path fill-rule="evenodd" d="M87.3559 22.3053C82.7422 19.9165 77.2559 19.9165 72.6422 22.3053L30.0826 44.3419C24.7731 47.0911 21.4395 52.5713 21.4395 58.5503V100.451C21.4395 106.43 24.7731 111.91 30.0826 114.659L72.6422 136.696C77.2559 139.085 82.7422 139.085 87.3559 136.696L129.915 114.659C135.225 111.91 138.559 106.43 138.559 100.451V58.5503C138.559 52.5713 135.225 47.0911 129.915 44.3419L87.3559 22.3053ZM76.3206 29.4095C78.6275 28.2151 81.3706 28.2151 83.6775 29.4095L126.237 51.4461C128.892 52.8207 130.559 55.5608 130.559 58.5503V100.451C130.559 103.44 128.892 106.18 126.237 107.555L83.6775 129.591C81.3706 130.786 78.6275 130.786 76.3206 129.591L33.761 107.555C31.1063 106.18 29.4395 103.44 29.4395 100.451V58.5503C29.4395 55.5608 31.1063 52.8207 33.761 51.4461L76.3206 29.4095ZM84.1078 61.8125C87.2027 56.5636 94.7954 56.5636 97.8903 61.8125L111.673 85.1872C114.817 90.5202 110.973 97.2505 104.782 97.2505H77.2165C71.0255 97.2505 67.1808 90.5202 70.3253 85.1872L84.1078 61.8125ZM104.782 89.2505L90.999 65.8758L77.2165 89.2505H104.782ZM68.0059 64.5404C69.9169 65.6487 70.5676 68.0964 69.4592 70.0074L54.9592 95.0074C53.8508 96.9183 51.4032 97.569 49.4922 96.4606C47.5812 95.3522 46.9306 92.9046 48.0389 90.9936L62.5389 65.9936C63.6473 64.0826 66.095 63.432 68.0059 64.5404Z" fill="var(--spectrum-global-color-gray-800, #292929)"/>
</svg>
