<svg width="48" height="48" viewBox="0 0 48 48" xmlns="http://www.w3.org/2000/svg">
<path fill-rule="evenodd" d="M10.7695 12.04C9.24989 12.04 8.01953 13.2704 8.01953 14.79V16.6801H40.0695V14.79C40.0695 13.2704 38.8392 12.04 37.3195 12.04H10.7695ZM8.01953 33.21V19.1801H12.6396V35.96H10.7695C9.24989 35.96 8.01953 34.7297 8.01953 33.21ZM29.4695 35.96H15.1396V19.1801H40.0695V25.34C40.0695 26.0304 40.6292 26.59 41.3195 26.59C42.0099 26.59 42.5695 26.0304 42.5695 25.34V14.79C42.5695 11.8897 40.2199 9.54004 37.3195 9.54004H10.7695C7.86918 9.54004 5.51953 11.8897 5.51953 14.79V33.21C5.51953 36.1104 7.86918 38.46 10.7695 38.46H29.4695C30.1599 38.46 30.7195 37.9004 30.7195 37.21C30.7195 36.5197 30.1599 35.96 29.4695 35.96ZM31.9697 34.8701C31.9697 30.9701 35.1297 27.8101 39.0297 27.8101C42.9297 27.8101 46.0897 30.9701 46.0897 34.8701C46.0897 38.7701 42.9297 41.9301 39.0297 41.9301C35.1297 41.9301 31.9697 38.7701 31.9697 34.8701ZM40.2797 36.1001H42.4497C43.1397 36.1001 43.6997 35.5401 43.6997 34.8501C43.6997 34.1601 43.1397 33.6001 42.4497 33.6001H40.2797V31.4301C40.2797 30.7401 39.7197 30.1801 39.0297 30.1801C38.3397 30.1801 37.7797 30.7401 37.7797 31.4301V33.6001H35.6097C34.9197 33.6001 34.3597 34.1601 34.3597 34.8501C34.3597 35.5401 34.9197 36.1001 35.6097 36.1001H37.7797V38.2701C37.7797 38.9601 38.3397 39.5201 39.0297 39.5201C39.7197 39.5201 40.2797 38.9601 40.2797 38.2701V36.1001Z" fill="var(--spectrum-global-color-gray-800, #292929)"/>
</svg>
