<svg width="48" height="48" viewBox="0 0 48 48" xmlns="http://www.w3.org/2000/svg">
<path fill-rule="evenodd" d="M23.4881 5.12171C30.7318 4.61008 36.77 10.3379 36.77 17.4753C36.77 21.6417 34.7107 25.3253 31.5613 27.5677C30.9533 28.0006 30.5839 28.7342 30.5839 29.5319V36.6527C30.5839 38.368 29.1934 39.7585 27.4781 39.7585H21.292C19.5767 39.7585 18.1862 38.368 18.1862 36.6527V29.5301C18.1862 28.7423 17.7974 27.9941 17.1308 27.5118C13.791 25.0947 11.7014 21.0469 12.0348 16.5367C12.4844 10.4535 17.4038 5.55145 23.4881 5.12171ZM34.27 17.4753C34.27 11.7778 29.4513 7.20674 23.6642 7.6155C18.8185 7.95777 14.8861 11.8766 14.528 16.721C14.2615 20.3258 15.9257 23.5536 18.5965 25.4865C19.8841 26.4183 20.6862 27.9058 20.6862 29.5301V32.4281H28.0839V29.5319C28.0839 27.9775 28.8033 26.4625 30.1113 25.5312C32.6307 23.7373 34.27 20.7982 34.27 17.4753ZM28.0839 34.9281H20.6862V36.6527C20.6862 36.9873 20.9574 37.2585 21.292 37.2585H27.4781C27.8127 37.2585 28.0839 36.9873 28.0839 36.6527V34.9281ZM24.374 11.4057C24.374 10.7153 24.9337 10.1557 25.624 10.1557C29.0476 10.1557 31.8229 12.9311 31.8229 16.3547C31.8229 17.045 31.2633 17.6047 30.5729 17.6047C29.8826 17.6047 29.3229 17.045 29.3229 16.3547C29.3229 14.3117 27.6668 12.6557 25.624 12.6557C24.9337 12.6557 24.374 12.096 24.374 11.4057Z" fill="var(--spectrum-global-color-gray-800, #292929)"/>
</svg>
