<svg width="96" height="96" viewBox="0 0 96 96" xmlns="http://www.w3.org/2000/svg">
<path d="M57.8091 17.6191C59.0991 17.6191 60.3091 18.9291 59.6791 20.4191L52.0891 38.2991C51.6591 39.3191 52.1291 40.4891 53.1491 40.9191L64.8691 45.8791C66.1391 46.4191 66.4991 48.0391 65.5791 49.0591L39.7791 77.6991C39.3491 78.1691 38.8291 78.3791 38.3191 78.3791C37.0291 78.3791 35.8191 77.0791 36.4491 75.5891L43.8091 58.1291C44.2391 57.1191 43.7691 55.9491 42.7591 55.5191L31.1191 50.5091C29.8691 49.9691 29.5091 48.3591 30.4191 47.3391L56.3491 18.3091C56.7791 17.8291 57.2991 17.6291 57.8091 17.6291M57.8091 13.6191C56.1091 13.6191 54.5291 14.3391 53.3591 15.6391L27.4291 44.6691C26.1491 46.1091 25.6291 48.0791 26.0491 49.9591C26.4691 51.8391 27.7691 53.4191 29.5391 54.1791L39.3591 58.4091L32.7691 74.0391C31.9791 75.8991 32.1691 78.0091 33.2691 79.6591C34.3791 81.3391 36.3191 82.3791 38.3291 82.3791C40.0191 82.3791 41.5991 81.6691 42.7591 80.3791L68.5591 51.7391C69.8591 50.2991 70.3791 48.3091 69.9591 46.4191C69.5391 44.5291 68.2291 42.9491 66.4391 42.1991L56.5591 38.0191L63.3691 21.9891C64.1591 20.1191 63.9791 18.0191 62.8791 16.3591C61.7691 14.6791 59.8291 13.6291 57.8191 13.6291L57.8091 13.6191Z" fill="var(--spectrum-global-color-gray-800, #292929)"/>
</svg>
