<svg width="96" height="96" viewBox="0 0 96 96" xmlns="http://www.w3.org/2000/svg">
<path fill-rule="evenodd" d="M29.9545 16C25.0176 16 21 19.9865 21 24.9231V71.0769C21 76.0135 25.0176 80 29.9545 80H67.0455C71.9824 80 76 76.0135 76 71.0769V43.9446C76 41.5751 75.0544 39.3045 73.3741 37.6318L54.2661 18.6103C52.5861 16.9379 50.3095 16 47.9375 16H29.9545ZM25 24.9231C25 22.2127 27.2097 20 29.9545 20H47.9375C47.9584 20 47.9792 20.0001 48 20.0004V37.55C48 40.6393 50.5883 43 53.6 43H71.908C71.9688 43.309 72 43.6253 72 43.9446V71.0769C72 73.7873 69.7903 76 67.0455 76H29.9545C27.2097 76 25 73.7873 25 71.0769V24.9231ZM69.0788 39L52 21.9985V37.55C52 38.2714 52.6353 39 53.6 39H69.0788Z" fill="var(--spectrum-global-color-gray-800, #292929)"/>
</svg>
