<svg width="48" height="48" viewBox="0 0 48 48" xmlns="http://www.w3.org/2000/svg">
<path fill-rule="evenodd" d="M6.69231 7.75C4.49988 7.75 2.75 9.54594 2.75 11.7273V34.9091C2.75 36.9834 3.92549 38.7938 5.65159 39.677C6.2485 40.0384 6.95367 40.25 7.71957 40.25H8.03846H11.7404H37.1371C38.7686 40.25 40.2488 39.2607 40.8411 37.7359L44.9844 27.0692C45.9934 24.4717 44.0275 21.75 41.2804 21.75H40.25V19.9091C40.25 16.9746 37.8974 14.5682 34.9615 14.5682H21.4325L17.2316 9.24885L17.2316 9.24884C16.4859 8.30448 15.3522 7.75 14.1483 7.75H6.69231ZM37.75 21.75V19.9091C37.75 18.3248 36.4864 17.0682 34.9615 17.0682H20.8269H20.2213L19.8459 16.5929L15.2697 10.7983L15.2697 10.7983C14.9936 10.4487 14.5802 10.25 14.1483 10.25H6.69231C5.9109 10.25 5.25 10.8961 5.25 11.7273V31.7529L8.15894 24.2641C8.75125 22.7393 10.2314 21.75 11.8629 21.75H37.75ZM8.03846 37.75C7.61712 37.75 7.21573 37.6541 6.85543 37.4818C6.34333 37.1193 6.10826 36.4479 6.34594 35.836L10.4893 25.1693C10.7 24.6268 11.2401 24.25 11.8629 24.25H41.2804C42.3401 24.25 43.0011 25.2705 42.6541 26.164L38.5107 36.8307C38.3 37.3732 37.7599 37.75 37.1371 37.75H11.7404H8.03846Z" fill="var(--spectrum-global-color-gray-800, #292929)"/>
</svg>
