<svg width="160" height="160" viewBox="0 0 160 160" xmlns="http://www.w3.org/2000/svg">
<path fill-rule="evenodd" d="M48.1364 24C39.2672 24 32 31.1209 32 40V120C32 128.879 39.2672 136 48.1364 136H112.864C121.733 136 129 128.879 129 120V72.9706C129 68.7124 127.289 64.6379 124.258 61.6409L90.9125 28.6704C87.883 25.6749 83.7836 24 79.5184 24H48.1364ZM40 40C40 35.6242 43.6 32 48.1364 32H79.5184C79.6795 32 79.8401 32.0047 80 32.014V62C80 67.6154 84.638 72 90.15 72H120.94C120.98 72.3206 121 72.6446 121 72.9706V120C121 124.376 117.4 128 112.864 128H48.1364C43.6 128 40 124.376 40 120V40ZM115.265 64L88 37.0409V62C88 63.012 88.8689 64 90.15 64H115.265Z" fill="var(--spectrum-global-color-gray-800, #292929)"/>
</svg>
