<svg width="160" height="160" viewBox="0 0 160 160" xmlns="http://www.w3.org/2000/svg">
<path fill-rule="evenodd" d="M47.5602 23.74C38.6739 23.74 31.4902 30.9781 31.4902 39.87V119.62C31.4902 128.51 38.6617 135.75 47.5602 135.75H112.43C121.317 135.75 128.5 128.512 128.5 119.62V71.41C128.5 67.0103 126.712 62.7798 123.511 59.7352L123.505 59.73L90.5601 28.2142L90.5576 28.2118C87.6806 25.4515 83.8923 23.8809 79.9349 23.7667C79.7825 23.7491 79.6274 23.74 79.4702 23.74H47.5602ZM47.5602 31.74H79.0677C79.2001 31.7532 79.3344 31.76 79.4702 31.76C81.5446 31.76 83.5302 32.5554 85.0204 33.9858L85.0252 33.9904L117.985 65.5204L117.995 65.53C119.59 67.0451 120.5 69.1722 120.5 71.41V119.62C120.5 124.128 116.864 127.75 112.43 127.75H47.5602C43.1187 127.75 39.4902 124.13 39.4902 119.62V39.87C39.4902 35.3619 43.1266 31.74 47.5602 31.74ZM71.4805 43.62C69.2713 43.62 67.4805 45.4109 67.4805 47.62C67.4805 49.8291 69.2713 51.62 71.4805 51.62H75.4605V58.28H71.4805C69.2713 58.28 67.4805 60.0709 67.4805 62.28C67.4805 64.4891 69.2713 66.28 71.4805 66.28H75.4605V72.93H71.4805C69.2713 72.93 67.4805 74.7209 67.4805 76.93C67.4805 79.1391 69.2713 80.93 71.4805 80.93H75.4605V87.59H72.4805C70.2713 87.59 68.4805 89.3809 68.4805 91.59V111.68C68.4805 116.099 72.0613 119.68 76.4805 119.68H82.4905C86.9096 119.68 90.4905 116.099 90.4905 111.68V91.59C90.4905 89.3809 88.6996 87.59 86.4905 87.59H83.4605V76.93V73.6H88.5398C90.7489 73.6 92.5398 71.8091 92.5398 69.6C92.5398 67.3909 90.7489 65.6 88.5398 65.6H83.4605V62.28V58.95H88.5398C90.7489 58.95 92.5398 57.1591 92.5398 54.95C92.5398 52.7408 90.7489 50.95 88.5398 50.95H83.4605V47.62C83.4605 45.4109 81.6696 43.62 79.4605 43.62H71.4805ZM76.4805 103.64V111.68H82.4905V103.64H76.4805Z" fill="var(--spectrum-global-color-gray-800, #292929)"/>
</svg>
