<svg width="96" height="97" viewBox="0 0 96 97" xmlns="http://www.w3.org/2000/svg">
<path fill-rule="evenodd" d="M25.4844 18.7109C25.4844 17.6064 24.5889 16.7109 23.4844 16.7109C22.3798 16.7109 21.4844 17.6064 21.4844 18.7109L21.4844 78.2734C21.4844 79.378 22.3798 80.2734 23.4844 80.2734C24.5889 80.2734 25.4844 79.378 25.4844 78.2734L25.4844 62.4932H66.6562C71.0745 62.4932 74.6562 58.9114 74.6562 54.4932V28.5352C74.6562 24.1169 71.0745 20.5352 66.6562 20.5352H25.4844V18.7109ZM25.4844 24.5352L25.4844 58.4932H66.6562C68.8654 58.4932 70.6562 56.7023 70.6562 54.4932V28.5352C70.6562 26.326 68.8654 24.5352 66.6562 24.5352H25.4844Z" fill="var(--spectrum-global-color-gray-800, #292929)"/>
</svg>
