<svg width="160" height="160" viewBox="0 0 160 160" xmlns="http://www.w3.org/2000/svg">
<path fill-rule="evenodd" d="M64.5754 47.4609C64.5872 37.2926 75.4343 30.5006 84.3974 35.853L138.973 68.4431C147.687 73.6469 147.673 86.5242 138.946 91.7071L84.2947 124.163C75.3188 129.493 64.4882 122.674 64.5 112.507L64.5754 47.4609ZM80.2958 42.7215C77.0347 40.7741 72.5805 43.0691 72.5754 47.4702L72.5 112.516C72.4949 116.918 76.9446 119.223 80.2098 117.284L134.861 84.8287C138.374 82.742 138.381 77.4077 134.871 75.3117L80.2958 42.7215ZM20 45.9997C20 39.3723 25.3726 33.9997 32 33.9997H43C49.6274 33.9997 55 39.3723 55 45.9997V114C55 120.627 49.6274 126 43 126H32C25.3726 126 20 120.627 20 114V45.9997ZM32 41.9997C29.7909 41.9997 28 43.7905 28 45.9997V114C28 116.209 29.7909 118 32 118H43C45.2091 118 47 116.209 47 114V45.9997C47 43.7905 45.2091 41.9997 43 41.9997H32Z" fill="var(--spectrum-global-color-gray-800, #292929)"/>
</svg>
