<svg width="48" height="48" viewBox="0 0 48 48" xmlns="http://www.w3.org/2000/svg">
<path fill-rule="evenodd" d="M24 8.62109C15.5777 8.62109 8.75 15.4488 8.75 23.8711C8.75 32.2934 15.5777 39.1211 24 39.1211C32.4223 39.1211 39.25 32.2934 39.25 23.8711C39.25 15.4488 32.4223 8.62109 24 8.62109ZM6.25 23.8711C6.25 14.068 14.1969 6.12109 24 6.12109C33.8031 6.12109 41.75 14.068 41.75 23.8711C41.75 33.6741 33.8031 41.6211 24 41.6211C14.1969 41.6211 6.25 33.6741 6.25 23.8711ZM16.6298 28.2589C17.1254 27.7783 17.9168 27.7905 18.3974 28.2861C19.812 29.745 21.81 30.6562 24.0312 30.6562C26.2525 30.6562 28.2505 29.745 29.6651 28.2861C30.1457 27.7905 30.9371 27.7783 31.4327 28.2589C31.9283 28.7394 31.9405 29.5308 31.4599 30.0264C29.5889 31.9559 26.9495 33.1562 24.0312 33.1562C21.113 33.1562 18.4736 31.9559 16.6026 30.0264C16.122 29.5308 16.1342 28.7394 16.6298 28.2589ZM18.5 21.582C19.6046 21.582 20.5 20.6866 20.5 19.582C20.5 18.4775 19.6046 17.582 18.5 17.582C17.3954 17.582 16.5 18.4775 16.5 19.582C16.5 20.6866 17.3954 21.582 18.5 21.582ZM29.5 21.582C30.6046 21.582 31.5 20.6866 31.5 19.582C31.5 18.4775 30.6046 17.582 29.5 17.582C28.3954 17.582 27.5 18.4775 27.5 19.582C27.5 20.6866 28.3954 21.582 29.5 21.582Z" fill="var(--spectrum-global-color-gray-800, #292929)"/>
</svg>
