<svg width="160" height="160" viewBox="0 0 160 160" xmlns="http://www.w3.org/2000/svg">
<path fill-rule="evenodd" d="M78.6558 76.415L123.334 31.7375C126.692 28.3792 132.137 28.3792 135.495 31.7375C138.854 35.0959 138.854 40.5408 135.495 43.8992L89.7872 89.6069C88.6541 86.51 87.0554 83.7311 84.9327 81.354C83.1346 79.3402 81.0336 77.6958 78.6558 76.415ZM70.1953 73.5618L117.677 26.0806C124.159 19.5981 134.67 19.5981 141.152 26.0807C147.635 32.5632 147.635 43.0735 141.152 49.5561L91.7799 98.9279C91.9101 100.385 91.9733 101.881 91.9733 103.411C91.9733 112.732 88.4889 120.607 82.3911 126.459C76.3544 132.253 67.9685 135.873 58.3633 137.248C43.1669 139.423 22.0786 136.975 14.8822 136.017C10.1749 135.39 9.11038 129.473 12.6041 126.932C16.9525 123.77 26.1158 116.21 29.975 106.838C32.7544 100.088 36.2058 91.7521 41.2236 85.1374C46.3284 78.408 53.4132 73.0011 63.4252 73.0011C65.8063 73.0011 68.0663 73.1873 70.1953 73.5618ZM37.3724 109.884C40.2216 102.964 43.3129 95.6202 47.5972 89.9724C51.7945 84.4393 56.7711 81.0011 63.4252 81.0011C70.9497 81.0011 75.8661 83.2114 78.9654 86.6824C82.1353 90.2324 83.9733 95.7336 83.9733 103.411C83.9733 110.59 81.3513 116.369 76.8517 120.687C72.291 125.064 65.5885 128.132 57.2299 129.328C46.5379 130.859 32.2695 129.885 22.9056 128.91C27.8954 124.506 34.0754 117.891 37.3724 109.884Z" fill="var(--spectrum-global-color-gray-800, #292929)"/>
</svg>
