<svg width="48" height="48" viewBox="0 0 48 48" xmlns="http://www.w3.org/2000/svg">
<path fill-rule="evenodd" d="M7.56639 7.63922C7.16363 7.709 6.82044 7.9713 6.64736 8.34161C6.47429 8.71192 6.49321 9.14345 6.69802 9.4972L9.21214 13.8395C8.32333 14.8593 7.57241 15.9784 6.98764 17.1773L3.96946 18.9356C2.97011 19.5178 2.35547 20.5872 2.35547 21.7438V24.7303C2.35547 25.8873 2.97062 26.9571 3.97062 27.5392L6.98674 29.2946C8.41377 32.2214 10.8296 34.6722 13.8376 36.3726L15.282 40.3057C15.4627 40.7977 15.9312 41.1248 16.4554 41.1248H20.273C20.7968 41.1248 21.265 40.7983 21.446 40.3068L21.9702 38.8835C22.637 38.9459 23.3142 38.9778 23.9997 38.9778C24.677 38.9778 25.3462 38.9466 26.0052 38.8857L26.5286 40.3068C26.7096 40.7983 27.1778 41.1248 27.7016 41.1248H31.5192C32.0434 41.1248 32.5119 40.7977 32.6926 40.3057L34.1305 36.3903C39.0602 33.6151 42.4242 28.8073 42.4242 23.2369C42.4242 22.7718 42.401 22.3123 42.3557 21.859C42.8725 21.7154 43.415 21.4569 43.9126 21.041C44.8866 20.2269 45.5586 18.9202 45.6432 17.0565C45.6746 16.3668 45.1409 15.7824 44.4512 15.7511C43.7616 15.7198 43.1771 16.2534 43.1458 16.9431C43.0873 18.2319 42.6561 18.833 42.3093 19.1228C42.1679 19.241 42.0186 19.3259 41.8748 19.3853C39.8484 12.4467 32.4698 7.49587 23.9997 7.49587C20.868 7.49587 17.9102 8.16307 15.3173 9.34718C14.2011 8.44562 12.874 7.95414 11.6345 7.70881C10.1269 7.41039 8.64041 7.45314 7.56639 7.63922ZM15.6585 11.9522C15.1739 12.1999 14.5651 12.1089 14.1756 11.6911C13.42 10.8806 12.3349 10.3959 11.1491 10.1612C10.7195 10.0762 10.2909 10.027 9.88105 10.0054L11.8396 13.3881C12.1452 13.916 12.0216 14.5746 11.5764 14.9594C10.5626 16.0095 9.74289 17.1841 9.1526 18.4448C9.06054 18.7252 8.8694 18.9743 8.59432 19.1345L5.22793 21.0958C4.99731 21.2301 4.85547 21.4769 4.85547 21.7438V24.7303C4.85547 24.9973 4.99743 25.2442 5.2282 25.3785L8.59388 27.3374C8.87077 27.4986 9.06271 27.7498 9.15419 28.0323C10.3797 30.6474 12.5945 32.8931 15.4655 34.414L15.4636 34.4177C15.7143 34.5583 15.9181 34.7857 16.0249 35.0767L17.3279 38.6248H19.4013L19.9618 37.1029C20.1697 36.5383 20.7423 36.2138 21.3149 36.2977L21.316 36.2903C22.1877 36.4135 23.0843 36.4778 23.9997 36.4778C24.9151 36.4778 25.8117 36.4135 26.6835 36.2903L26.6841 36.2944C27.2484 36.223 27.8078 36.5463 28.0128 37.1029L28.5733 38.6248H30.6467L31.9497 35.0767C32.077 34.73 32.3417 34.4737 32.6597 34.3467C37.1034 31.9441 39.9242 27.8167 39.9242 23.2369C39.9242 16.1147 33.002 9.99587 23.9997 9.99587C20.9333 9.99587 18.0797 10.7172 15.6613 11.9577L15.6585 11.9522ZM13.75 19.7498C14.7165 19.7498 15.5 18.9663 15.5 17.9998C15.5 17.0333 14.7165 16.2498 13.75 16.2498C12.7835 16.2498 12 17.0333 12 17.9998C12 18.9663 12.7835 19.7498 13.75 19.7498ZM21.8982 14.1268C23.5311 13.768 24.8077 13.7825 26.3503 14.1261C27.0242 14.2762 27.6921 13.8516 27.8422 13.1777C27.9922 12.5039 27.5676 11.8359 26.8938 11.6859C24.9989 11.2639 23.3537 11.2473 21.3616 11.6851C20.6873 11.8333 20.2608 12.5 20.409 13.1743C20.5572 13.8486 21.2239 14.275 21.8982 14.1268Z" fill="var(--spectrum-global-color-gray-800, #292929)"/>
</svg>
