<svg width="48" height="48" viewBox="0 0 48 48" xmlns="http://www.w3.org/2000/svg">
<path fill-rule="evenodd" d="M26.0215 7.0625C26.7118 7.0625 27.2715 6.50286 27.2715 5.8125C27.2715 5.12214 26.7118 4.5625 26.0215 4.5625H21.4024C20.7121 4.5625 20.1524 5.12214 20.1524 5.8125C20.1524 6.50286 20.7121 7.0625 21.4024 7.0625H22.4619V8.09325C13.4038 8.87286 6.29492 16.4726 6.29492 25.7327C6.29492 35.5111 14.2219 43.4381 24.0003 43.4381C33.7787 43.4381 41.7056 35.5111 41.7056 25.7327C41.7056 16.2769 34.2931 8.55245 24.9619 8.05301V7.0625H26.0215ZM8.79492 25.7327C8.79492 17.335 15.6026 10.5273 24.0003 10.5273C32.398 10.5273 39.2056 17.335 39.2056 25.7327C39.2056 34.1304 32.398 40.9381 24.0003 40.9381C15.6026 40.9381 8.79492 34.1304 8.79492 25.7327ZM24.9619 12.7412C24.9619 12.0509 24.4023 11.4912 23.7119 11.4912C23.0216 11.4912 22.4619 12.0509 22.4619 12.7412V14.4734C22.4619 15.1637 23.0216 15.7234 23.7119 15.7234C24.4023 15.7234 24.9619 15.1637 24.9619 14.4734V12.7412ZM23.7119 35.7412C24.4023 35.7412 24.9619 36.3009 24.9619 36.9912V38.7234C24.9619 39.4137 24.4023 39.9734 23.7119 39.9734C23.0216 39.9734 22.4619 39.4137 22.4619 38.7234V36.9912C22.4619 36.3009 23.0216 35.7412 23.7119 35.7412ZM37.0444 26.832C37.7348 26.832 38.2944 26.2724 38.2944 25.582C38.2944 24.8917 37.7348 24.332 37.0444 24.332H35.249C34.5586 24.332 33.999 24.8917 33.999 25.582C33.999 26.2724 34.5586 26.832 35.249 26.832H37.0444ZM14.0552 25.582C14.0552 26.2724 13.4955 26.832 12.8052 26.832H11.0097C10.3193 26.832 9.7597 26.2724 9.7597 25.582C9.7597 24.8917 10.3193 24.332 11.0097 24.332H12.8052C13.4955 24.332 14.0552 24.8917 14.0552 25.582ZM34.3365 17.4894C34.8247 17.0012 34.8247 16.2097 34.3365 15.7216C33.8484 15.2334 33.0569 15.2334 32.5688 15.7216L31.2992 16.9912C30.811 17.4793 30.811 18.2708 31.2992 18.7589C31.7873 19.2471 32.5788 19.2471 33.0669 18.7589L34.3365 17.4894ZM17.1969 32.8603C17.685 33.3484 17.685 34.1399 17.1969 34.628L15.9273 35.8976C15.4391 36.3858 14.6477 36.3858 14.1595 35.8976C13.6714 35.4095 13.6714 34.618 14.1595 34.1299L15.4291 32.8603C15.9173 32.3721 16.7087 32.3721 17.1969 32.8603ZM14.3217 18.2999C13.8335 17.8117 13.8335 17.0203 14.3217 16.5321C14.8098 16.044 15.6013 16.044 16.0894 16.5321L17.3165 17.7592C17.8047 18.2474 17.8047 19.0388 17.3165 19.527C16.8284 20.0151 16.0369 20.0151 15.5488 19.527L14.3217 18.2999ZM30.8871 33.0985C30.399 33.5867 30.399 34.3782 30.8871 34.8663L32.1142 36.0934C32.6023 36.5815 33.3938 36.5815 33.882 36.0934C34.3701 35.6052 34.3701 34.8138 33.882 34.3256L32.6549 33.0985C32.1667 32.6104 31.3753 32.6104 30.8871 33.0985ZM24.3343 24.9285C23.6907 24.6786 22.9664 24.9978 22.7166 25.6413C22.4667 26.2849 22.7859 27.0091 23.4294 27.259L33.6517 31.2279C34.2953 31.4778 35.0195 31.1587 35.2694 30.5151C35.5192 29.8716 35.2001 29.1473 34.5566 28.8974L24.3343 24.9285Z" fill="var(--spectrum-global-color-gray-800, #292929)"/>
</svg>
