<svg width="96" height="96" viewBox="0 0 96 96" xmlns="http://www.w3.org/2000/svg">
<path fill-rule="evenodd" d="M49.9995 14.9844C49.9995 13.8798 49.1041 12.9844 47.9995 12.9844C46.8949 12.9844 45.9995 13.8798 45.9995 14.9844L45.9995 81.0156C45.9995 82.1202 46.8949 83.0156 47.9995 83.0156C49.1041 83.0156 49.9995 82.1202 49.9995 81.0156L49.9995 14.9844ZM18.25 41.0156C19.3546 41.0156 20.25 41.9111 20.25 43.0156L20.25 52.9844C20.25 54.0889 19.3546 54.9844 18.25 54.9844C17.1454 54.9844 16.25 54.0889 16.25 52.9844V43.0156C16.25 41.9111 17.1454 41.0156 18.25 41.0156ZM77.749 41.0156C78.8536 41.0156 79.749 41.9111 79.749 43.0156V52.9844C79.749 54.0889 78.8536 54.9844 77.749 54.9844C76.6445 54.9844 75.749 54.0889 75.749 52.9844V43.0156C75.749 41.9111 76.6445 41.0156 77.749 41.0156ZM38.083 29.002C39.1876 29.002 40.083 29.8974 40.083 31.002L40.083 64.998C40.083 66.1026 39.1876 66.998 38.083 66.998C36.9784 66.998 36.083 66.1026 36.083 64.998L36.083 31.002C36.083 29.8974 36.9784 29.002 38.083 29.002ZM59.916 31.002C59.916 29.8974 59.0206 29.002 57.916 29.002C56.8114 29.002 55.916 29.8974 55.916 31.002V64.998C55.916 66.1026 56.8114 66.998 57.916 66.998C59.0206 66.998 59.916 66.1026 59.916 64.998V31.002ZM28.1665 21C29.2711 21 30.1665 21.8954 30.1665 23L30.1665 73C30.1665 74.1046 29.2711 75 28.1665 75C27.0619 75 26.1665 74.1046 26.1665 73L26.1665 23C26.1665 21.8954 27.0619 21 28.1665 21ZM69.8325 23C69.8325 21.8954 68.9371 21 67.8325 21C66.728 21 65.8325 21.8954 65.8325 23L65.8325 73C65.8325 74.1046 66.728 75 67.8325 75C68.9371 75 69.8325 74.1046 69.8325 73L69.8325 23Z" fill="var(--spectrum-global-color-gray-800, #292929)"/>
</svg>
