<svg width="96" height="96" viewBox="0 0 96 96" xmlns="http://www.w3.org/2000/svg">
<path fill-rule="evenodd" d="M26.2441 16.25C20.7213 16.25 16.2441 20.7272 16.2441 26.25V60.994C16.2441 66.5168 20.7213 70.994 26.2441 70.994H36.1767L43.3639 79.7402C45.7641 82.6611 50.2349 82.6611 52.6351 79.7402L59.8223 70.994H69.7549C75.2777 70.994 79.7549 66.5168 79.7549 60.994V26.25C79.7549 20.7271 75.2777 16.25 69.7549 16.25H26.2441ZM20.2441 26.25C20.2441 22.9363 22.9304 20.25 26.2441 20.25H69.7549C73.0686 20.25 75.7549 22.9363 75.7549 26.25V60.994C75.7549 64.3077 73.0686 66.994 69.7549 66.994H58.8772C58.2788 66.994 57.7119 67.2619 57.332 67.7242L49.5447 77.2006C48.7446 78.1743 47.2544 78.1743 46.4543 77.2006L38.667 67.7242C38.2871 67.2619 37.7202 66.994 37.1218 66.994H26.2441C22.9304 66.994 20.2441 64.3077 20.2441 60.994V26.25ZM47.9995 24.8857C49.1041 24.8857 49.9995 25.7812 49.9995 26.8857V49.0957C49.9995 50.2003 49.1041 51.0957 47.9995 51.0957C46.8949 51.0957 45.9995 50.2003 45.9995 49.0957V26.8857C45.9995 25.7812 46.8949 24.8857 47.9995 24.8857ZM47.9995 62.3662C49.6564 62.3662 50.9995 61.0231 50.9995 59.3662C50.9995 57.7094 49.6564 56.3662 47.9995 56.3662C46.3427 56.3662 44.9995 57.7094 44.9995 59.3662C44.9995 61.0231 46.3427 62.3662 47.9995 62.3662Z" fill="var(--spectrum-global-color-gray-800, #292929)"/>
</svg>
