<svg width="160" height="160" viewBox="0 0 160 160" xmlns="http://www.w3.org/2000/svg">
<path fill-rule="evenodd" d="M31.0098 56.39C31.0098 40.5585 43.8437 27.7246 59.6751 27.7246C75.5066 27.7246 88.3405 40.5585 88.3405 56.39C88.3405 59.2193 87.9318 61.9462 87.1729 64.5184C86.5476 66.6372 87.7585 68.8617 89.8773 69.4869C91.9961 70.1121 94.2206 68.9013 94.8458 66.7824C95.8194 63.4829 96.3405 59.9938 96.3405 56.39C96.3405 36.1403 79.9249 19.7246 59.6751 19.7246C39.4254 19.7246 23.0098 36.1403 23.0098 56.39C23.0098 73.6299 34.9043 88.0817 50.9295 92.0049C53.0752 92.5302 55.2406 91.2166 55.7659 89.0708C56.2912 86.925 54.9776 84.7597 52.8318 84.2344C40.3028 81.1671 31.0098 69.8588 31.0098 56.39ZM62.8433 60.384C63.5156 60.0195 64.2512 59.9769 65.0536 60.2754C65.8928 60.5876 66.764 61.2761 67.3773 62.279L79.8407 84.7131C81.1574 87.0831 84.1692 87.6971 86.3043 86.2593C88.5142 84.7711 92.1659 83.0732 96.1408 81.7431C100.144 80.4036 103.995 79.5984 106.598 79.5984C113.933 79.5984 119.382 82.3901 123.066 86.8216C126.821 91.3379 128.991 97.8705 128.991 105.626C128.991 120.374 117.204 132.276 102.515 132.276C94.8951 132.276 84.8362 129.093 75.6765 125.331C67.9747 122.168 61.3492 118.787 57.928 117.042C57.3366 116.74 56.8409 116.487 56.452 116.293C54.4198 115.277 53.6856 114.334 53.4005 113.71C53.1238 113.104 53.0002 112.209 53.4114 110.714C53.8935 108.961 55.8005 107.575 58.6772 108.393C62.07 109.358 65.8659 110.887 69.7704 112.55C70.6652 112.931 71.5704 113.321 72.4763 113.711L72.4803 113.713C75.4231 114.981 78.3723 116.252 80.993 117.222C85.0122 118.71 88.4425 114.373 86.4726 110.827L61.5646 65.9931L61.5267 65.9248L61.4861 65.8581C60.3552 63.9974 61.1194 61.3186 62.8433 60.384ZM74.2723 58.2211C71.4282 53.4631 65.0529 50.0863 59.0307 53.351C53.1234 56.5534 51.2731 64.3612 54.6051 69.939L74.5892 105.91C74.035 105.672 73.4733 105.431 72.9043 105.189C68.9862 103.521 64.7857 101.813 60.8654 100.698C54.4819 98.8827 47.5602 101.821 45.6978 108.593C44.9593 111.278 44.836 114.215 46.1239 117.034C47.4034 119.835 49.7982 121.91 52.8742 123.448C53.2266 123.624 53.6899 123.861 54.2525 124.148C57.6315 125.873 64.5925 129.427 72.6371 132.731C81.8945 136.533 93.2076 140.276 102.515 140.276C121.682 140.276 136.991 124.733 136.991 105.626C136.991 96.4535 134.427 87.9724 129.218 81.7069C123.938 75.3567 116.19 71.5984 106.598 71.5984C102.739 71.5984 97.9411 72.7047 93.6022 74.1566C90.6305 75.151 87.6519 76.3827 85.101 77.7086L74.3355 58.3309L74.3048 58.2755L74.2723 58.2211Z" fill="black"/>
</svg>
