<svg width="160" height="160" viewBox="0 0 160 160" xmlns="http://www.w3.org/2000/svg">
<path fill-rule="evenodd" d="M123.195 57.8796C129.042 52.0321 129.042 42.5515 123.195 36.704C117.347 30.8565 107.867 30.8565 102.019 36.704L91.1065 47.6166C89.5444 49.1787 87.0118 49.1787 85.4497 47.6166C83.8876 46.0545 83.8876 43.5219 85.4497 41.9598L96.3623 31.0471C105.334 22.0754 119.88 22.0755 128.852 31.0471C137.823 40.0188 137.823 54.5648 128.852 63.5365L101.18 91.2077C92.2088 100.179 77.6628 100.179 68.6911 91.2077C67.129 89.6456 67.129 87.113 68.6911 85.5509C70.2532 83.9888 72.7859 83.9888 74.348 85.5509C80.1955 91.3984 89.6761 91.3984 95.5236 85.5509L123.195 57.8796ZM91.5397 68.5636C93.1018 70.1257 93.1018 72.6584 91.5397 74.2205C89.9776 75.7826 87.445 75.7826 85.8829 74.2205C80.0354 68.373 70.5547 68.373 64.7072 74.2205L37.036 101.892C31.1885 107.739 31.1885 117.22 37.036 123.067C42.8835 128.915 52.3642 128.915 58.2117 123.067L69.1243 112.155C70.6864 110.593 73.2191 110.593 74.7812 112.155C76.3433 113.717 76.3433 116.249 74.7812 117.812L63.8685 128.724C54.8968 137.696 40.3508 137.696 31.3792 128.724C22.4075 119.753 22.4075 105.207 31.3792 96.2349L59.0504 68.5637C68.0221 59.592 82.568 59.592 91.5397 68.5636Z" fill="var(--spectrum-global-color-gray-800, #292929)"/>
</svg>
