<svg width="48" height="48" viewBox="0 0 48 48" xmlns="http://www.w3.org/2000/svg">
<path fill-rule="evenodd" d="M39.25 20.1615C39.25 11.6979 31.8394 4.99691 23.0364 5.51866C15.7437 5.95088 9.67443 11.4312 8.84788 18.491C8.58594 20.7284 8.86 22.8771 9.54706 24.8417C10.6378 28.2125 12.7369 31.4744 14.9184 34.2338C17.1124 37.009 19.4438 39.3431 21.0613 40.8531C22.6915 42.3749 25.2608 42.3649 26.8854 40.8479C29.8663 38.0645 35.4298 32.3385 37.9094 26.1753C38.7676 24.3409 39.25 22.3056 39.25 20.1615ZM23.1843 8.01428C30.6514 7.57171 36.75 13.2355 36.75 20.1615C36.75 21.937 36.3489 23.6214 35.6318 25.1439C35.6213 25.1663 35.6114 25.189 35.6022 25.2119C33.351 30.8349 28.1402 36.2558 25.1792 39.0207C24.5098 39.6458 23.4315 39.6456 22.7673 39.0256C21.2056 37.5678 18.97 35.3275 16.8796 32.6833C14.7799 30.0274 12.8802 27.0305 11.9214 24.059C11.9182 24.0489 11.9148 24.0389 11.9113 24.0289C11.3415 22.4054 11.1141 20.6336 11.3309 18.7817C12.0077 13.001 17.0244 8.37937 23.1843 8.01428ZM20.25 18.7401C20.25 16.669 21.9289 14.9901 24 14.9901C26.0711 14.9901 27.75 16.669 27.75 18.7401C27.75 20.8111 26.0711 22.4901 24 22.4901C21.9289 22.4901 20.25 20.8111 20.25 18.7401ZM24 12.4901C20.5482 12.4901 17.75 15.2883 17.75 18.7401C17.75 22.1918 20.5482 24.9901 24 24.9901C27.4518 24.9901 30.25 22.1918 30.25 18.7401C30.25 15.2883 27.4518 12.4901 24 12.4901Z" fill="var(--spectrum-global-color-gray-800, #292929)"/>
</svg>
