<svg width="48" height="48" viewBox="0 0 48 48" xmlns="http://www.w3.org/2000/svg">
  <defs>
<clipPath id="clip0_5570_89366">
<rect width="48" height="48" fill="white"/>
</clipPath>
<clipPath id="clip1_5570_89366">
<rect width="48" height="48" fill="white"/>
</clipPath>
</defs>
<g clip-path="url(#clip0_5570_89366)">
<g clip-path="url(#clip1_5570_89366)">
<path fill-rule="evenodd" d="M42.1387 24.6309C42.1387 23.1121 40.9075 21.8809 39.3887 21.8809H35.3572C34.6669 21.8809 34.1072 21.3212 34.1072 20.6309C34.1072 19.9405 34.6669 19.3809 35.3572 19.3809H39.3887C42.2882 19.3809 44.6387 21.7314 44.6387 24.6309V39.1049C44.6387 42.0044 42.2882 44.3549 39.3887 44.3549H17.5861C14.6866 44.3549 12.3361 42.0044 12.3361 39.1049V24.6309C12.3361 21.7314 14.6866 19.3809 17.5861 19.3809H22.0917C22.782 19.3809 23.3417 19.9405 23.3417 20.6309C23.3417 21.3212 22.782 21.8809 22.0917 21.8809H17.5861C16.0674 21.8809 14.8361 23.1121 14.8361 24.6309V39.1049C14.8361 39.1866 14.8397 39.2675 14.8467 39.3473L20.6966 30.3096L20.697 30.3091C21.8708 28.4943 24.5289 28.4943 25.7028 30.309L25.703 30.3093L25.7032 30.3096L30.5125 37.7384L33.1268 33.7859L33.1267 33.7859L33.132 33.778C34.3129 32.0216 36.901 32.0171 38.082 33.7778L42.0755 39.6937C42.1169 39.504 42.1387 39.307 42.1387 39.1049V24.6309ZM22.7957 31.6675L16.3811 41.5775C16.745 41.7552 17.1539 41.8549 17.5861 41.8549H27.7899L29.0075 40.014L23.6042 31.6676L23.6038 31.667C23.415 31.375 22.9848 31.375 22.796 31.667L22.7957 31.6675ZM40.391 41.6665C40.0804 41.7881 39.7423 41.8549 39.3887 41.8549H30.7873L35.2086 35.1702C35.4022 34.8862 35.8186 34.8908 36.0061 35.1709L36.0087 35.1749L36.0087 35.1749L40.391 41.6665ZM34.186 26.562C34.186 27.3904 34.8576 28.062 35.686 28.062C36.5145 28.062 37.186 27.3904 37.186 26.562C37.186 25.7336 36.5145 25.062 35.686 25.062C34.8576 25.062 34.186 25.7336 34.186 26.562Z" fill="var(--spectrum-global-color-gray-800, #292929)"/>
<path fill-rule="evenodd" d="M19.0731 10.4926C13.2457 8.93118 7.25588 12.3894 5.69444 18.2168C4.71738 21.8632 5.7056 25.5752 8.01254 28.2252L8.07915 26.4624C8.10523 25.7725 8.68561 25.2344 9.37547 25.2605C10.0653 25.2866 10.6034 25.867 10.5774 26.5568L10.397 31.3306C10.3715 32.0036 9.8174 32.5355 9.14388 32.5334L4.19578 32.5177C3.50543 32.5155 2.94757 31.954 2.94976 31.2637C2.95195 30.5733 3.51337 30.0155 4.20373 30.0177L6.26669 30.0242C3.33512 26.7605 2.05884 22.1258 3.27962 17.5697C5.19842 10.4087 12.5591 6.15901 19.7201 8.0778C22.827 8.91028 25.3883 10.7694 27.1329 13.1907C27.5365 13.7508 27.4096 14.5321 26.8495 14.9356C26.2894 15.3392 25.5082 15.2123 25.1046 14.6522C23.6844 12.6812 21.6033 11.1706 19.0731 10.4926Z" fill="var(--spectrum-global-color-gray-800, #292929)"/>
<path fill-rule="evenodd" d="M43.6328 5.54698C44.2119 2.96801 41.12 1.18026 39.1751 2.97315L39.1748 2.97337L36.8256 5.13827L36.8252 5.13861C36.7784 5.18179 36.7123 5.1992 36.6513 5.18537L36.6494 5.18494L33.5318 4.48372L33.5314 4.48362C30.9524 3.90453 29.1647 6.9964 30.9576 8.94136L30.9578 8.94159L33.1227 11.2908L33.123 11.2912C33.1662 11.338 33.1836 11.4041 33.1698 11.4651L33.1694 11.467L32.4681 14.5846L32.468 14.585C31.8889 17.1641 34.9811 18.9519 36.926 17.1586L39.2752 14.9937L39.2756 14.9934C39.3224 14.9502 39.3885 14.9328 39.4496 14.9466L39.4515 14.9471L42.569 15.6483L42.5694 15.6484C45.1484 16.2275 46.9362 13.1356 45.1433 11.1907L45.1431 11.1904L42.9782 8.8412L42.9778 8.84083C42.9346 8.79401 42.9172 8.72791 42.9311 8.66687L42.9315 8.66497L43.6327 5.54743L43.6328 5.54698ZM40.8695 4.81136C40.9237 4.76132 40.9594 4.7554 40.979 4.75383C41.0087 4.75146 41.053 4.7583 41.1002 4.78555C41.1474 4.8128 41.1756 4.84781 41.1885 4.8749C41.197 4.89286 41.2097 4.92686 41.1936 4.99881L41.1936 4.99886L41.1935 4.99926L40.4929 8.11446L40.4926 8.11555C40.2973 8.97935 40.54 9.88489 41.1397 10.5354L41.1401 10.5357L43.3049 12.8848L43.3051 12.8851C43.3551 12.9393 43.361 12.975 43.3626 12.9946C43.365 13.0243 43.3581 13.0686 43.3309 13.1158C43.3036 13.163 43.2686 13.1912 43.2415 13.2041C43.2236 13.2126 43.1896 13.2253 43.1176 13.2092L43.1175 13.2092L43.1172 13.2091L40.002 12.5084L40.0009 12.5082C39.1371 12.3129 38.2315 12.5556 37.5811 13.1553L37.5807 13.1557L35.2316 15.3204L35.2314 15.3207C35.1771 15.3707 35.1414 15.3766 35.1218 15.3782C35.0921 15.3806 35.0478 15.3737 35.0006 15.3465C34.9534 15.3192 34.9252 15.2842 34.9124 15.2571C34.9038 15.2392 34.8911 15.2052 34.9072 15.1332L34.9072 15.133L34.9073 15.1328L35.608 12.0176L35.6082 12.0165C35.8036 11.1527 35.5608 10.2471 34.9611 9.59664L34.9608 9.59627L32.796 7.24719L32.7958 7.24695C32.7457 7.19269 32.7398 7.15702 32.7382 7.13739C32.7359 7.1077 32.7427 7.0634 32.77 7.0162C32.7972 6.96901 32.8322 6.94083 32.8593 6.92795C32.8773 6.91941 32.9113 6.90671 32.9832 6.92278L32.9834 6.92282L32.9837 6.92288L36.0989 7.62358L36.0999 7.6238C36.9637 7.81916 37.8693 7.57641 38.5198 6.97669L38.5202 6.97635L40.8692 4.81157L40.8695 4.81136ZM31.6495 22.6424L29.4519 22.1472C29.1609 22.0821 28.8591 22.1634 28.6404 22.364L26.9849 23.8912C26.3325 24.493 25.2951 23.893 25.4903 23.0291L25.9855 20.8315C26.0506 20.5405 25.9693 20.2387 25.7686 20.02L24.2415 18.3645C23.6397 17.7121 24.2397 16.6747 25.1036 16.8699L27.3012 17.3651C27.5922 17.4302 27.894 17.3489 28.1127 17.1482L29.7681 15.6211C30.4206 15.0193 31.4579 15.6193 31.2628 16.4832L30.7676 18.6808C30.7025 18.9718 30.7838 19.2736 30.9844 19.4923L32.5116 21.1477C33.1134 21.8002 32.5134 22.8375 31.6495 22.6424Z" fill="var(--spectrum-global-color-gray-800, #292929)"/>
</g>
</g>

</svg>
