<svg width="160" height="160" viewBox="0 0 160 160" xmlns="http://www.w3.org/2000/svg">
<path fill-rule="evenodd" d="M64.6722 44.8652C59.1958 44.8652 54.7563 49.3047 54.7563 54.7811C54.7563 60.2575 59.1958 64.6969 64.6722 64.6969C70.1384 64.6969 74.5715 60.274 74.588 54.8117L74.5879 54.7812L74.588 54.7507C74.5716 49.2883 70.1384 44.8652 64.6722 44.8652ZM64.6722 72.6969C73.1918 72.6969 80.3224 66.7503 82.1398 58.7812L131.75 58.7813C133.959 58.7813 135.75 56.9904 135.75 54.7813C135.75 52.5721 133.959 50.7813 131.75 50.7813L82.1399 50.7812C80.3226 42.8121 73.1919 36.8652 64.6722 36.8652C56.1525 36.8652 49.0218 42.8121 47.2045 50.7812H28.25C26.0409 50.7812 24.25 52.5721 24.25 54.7812C24.25 56.9904 26.0409 58.7812 28.25 58.7812H47.2046C49.022 66.7503 56.1526 72.6969 64.6722 72.6969ZM77.8603 109.219H28.2504C26.0413 109.219 24.2504 107.428 24.2504 105.219C24.2504 103.01 26.0413 101.219 28.2504 101.219H77.8603C79.6775 93.2496 86.8083 87.3027 95.328 87.3027C103.848 87.3027 110.978 93.2496 112.796 101.219H131.75C133.959 101.219 135.75 103.01 135.75 105.219C135.75 107.428 133.959 109.219 131.75 109.219H112.796C110.978 117.188 103.848 123.134 95.328 123.134C86.8084 123.134 79.6777 117.188 77.8603 109.219ZM105.244 105.201C105.244 105.207 105.244 105.213 105.244 105.219C105.244 105.226 105.244 105.233 105.244 105.24C105.232 110.706 100.797 115.134 95.328 115.134C89.8516 115.134 85.4121 110.695 85.4121 105.219C85.4121 99.7422 89.8516 95.3027 95.328 95.3027C100.799 95.3027 105.234 99.7327 105.244 105.201Z" fill="var(--spectrum-global-color-gray-800, #292929)"/>
</svg>
