<svg width="160" height="160" viewBox="0 0 160 160" xmlns="http://www.w3.org/2000/svg">
<path fill-rule="evenodd" d="M124.174 24.1804C126.383 24.2158 128.145 26.0351 128.11 28.2439L128.054 31.7368L131.552 31.7904C133.76 31.8243 135.524 33.6424 135.49 35.8513C135.456 38.0601 133.638 39.8233 131.429 39.7895L127.926 39.7357L127.87 43.2439C127.834 45.4528 126.015 47.2148 123.806 47.1794C121.597 47.1441 119.835 45.3248 119.871 43.1159L119.927 39.6131L116.429 39.5595C114.22 39.5256 112.457 37.7075 112.491 35.4986C112.525 33.2897 114.343 31.5265 116.552 31.5604L120.055 31.6141L120.111 28.1159C120.146 25.9071 121.965 24.1451 124.174 24.1804ZM66.99 30.79C66.99 28.5809 65.1991 26.79 62.99 26.79C60.7809 26.79 58.99 28.5809 58.99 30.79V40.93C58.99 43.1392 60.7809 44.93 62.99 44.93C65.1991 44.93 66.99 43.1392 66.99 40.93V30.79ZM47.5466 34.5002C46.2488 32.7125 43.7474 32.3153 41.9597 33.6131C40.172 34.9109 39.7748 37.4122 41.0726 39.2L47.0326 47.41C48.3304 49.1977 50.8317 49.5949 52.6194 48.2971C54.4072 46.9993 54.8044 44.498 53.5066 42.7102L47.5466 34.5002ZM84.9154 39.2119C86.2142 37.4249 85.8185 34.9233 84.0315 33.6245C82.2445 32.3256 79.7429 32.7214 78.4441 34.5084L72.4841 42.7084C71.1853 44.4953 71.581 46.9969 73.368 48.2957C75.155 49.5946 77.6565 49.1988 78.9554 47.4119L84.9154 39.2119ZM33.9953 48.9456C31.8941 48.2633 29.6377 49.4136 28.9555 51.5148C28.2733 53.6159 29.4236 55.8723 31.5247 56.5545L41.1647 59.6845C43.2659 60.3667 45.5223 59.2165 46.2045 57.1153C46.8867 55.0142 45.7364 52.7578 43.6353 52.0756L33.9953 48.9456ZM94.4553 56.5645C96.5564 55.8823 97.7067 53.6259 97.0245 51.5248C96.3423 49.4236 94.0859 48.2733 91.9847 48.9556L82.3447 52.0856C80.2436 52.7678 79.0933 55.0242 79.7755 57.1253C80.4577 59.2265 82.7141 60.3767 84.8153 59.6945L94.4553 56.5645ZM43.6341 73.0649C45.7355 72.3833 46.8864 70.1273 46.2049 68.0259C45.5233 65.9246 43.2673 64.7736 41.1659 65.4552L31.5159 68.5852C29.4145 69.2668 28.2636 71.5228 28.9451 73.6242C29.6267 75.7255 31.8827 76.8765 33.9841 76.1949L43.6341 73.0649ZM84.8153 65.4655C82.7141 64.7833 80.4577 65.9336 79.7755 68.0348C79.0933 70.1359 80.2436 72.3923 82.3447 73.0745L91.9847 76.2045C94.0859 76.8867 96.3423 75.7365 97.0245 73.6353C97.7067 71.5342 96.5564 69.2778 94.4553 68.5956L84.8153 65.4655ZM78.947 77.7402C77.6492 75.9524 75.1479 75.5552 73.3601 76.853C71.5724 78.1508 71.1752 80.6522 72.473 82.4399L78.433 90.6499C79.7308 92.4377 82.2321 92.8348 84.0199 91.537C85.8076 90.2392 86.2048 87.7379 84.907 85.9502L78.947 77.7402ZM53.4956 82.4418C54.7945 80.6548 54.3987 78.1532 52.6117 76.8544C50.8248 75.5556 48.3232 75.9513 47.0244 77.7383L41.0644 85.9383C39.7655 87.7253 40.1613 90.2268 41.9482 91.5257C43.7352 92.8245 46.2368 92.4288 47.5356 90.6418L53.4956 82.4418ZM66.9805 84.22C66.9805 82.0108 65.1896 80.22 62.9805 80.22C60.7713 80.22 58.9805 82.0108 58.9805 84.22V94.36C58.9805 96.5691 60.7713 98.36 62.9805 98.36C65.1896 98.36 66.9805 96.5691 66.9805 94.36V84.22ZM113.02 88.8262C113.029 86.6171 111.245 84.819 109.036 84.8101C106.827 84.8012 105.029 86.5848 105.02 88.7939L105 93.7439C104.991 95.953 106.775 97.7511 108.984 97.76C111.193 97.769 112.991 95.9853 113 93.7762L113.02 88.8262ZM95.831 94.1226C93.9215 93.0117 91.473 93.6591 90.3621 95.5686C89.2512 97.4781 89.8986 99.9266 91.8081 101.038L96.0881 103.528C97.9976 104.638 100.446 103.991 101.557 102.082C102.668 100.172 102.021 97.7235 100.111 96.6126L95.831 94.1226ZM126.206 101.062C128.124 99.9651 128.789 97.5213 127.692 95.6038C126.595 93.6863 124.151 93.0211 122.234 94.1181L117.934 96.5781C116.016 97.6751 115.351 100.119 116.448 102.036C117.545 103.954 119.989 104.619 121.906 103.522L126.206 101.062ZM121.941 109.193C120.032 108.082 117.583 108.729 116.472 110.639C115.361 112.548 116.009 114.997 117.918 116.108L122.198 118.598C124.108 119.708 126.556 119.061 127.667 117.152C128.778 115.242 128.131 112.794 126.221 111.683L121.941 109.193ZM100.096 116.142C102.013 115.045 102.679 112.601 101.582 110.684C100.485 108.766 98.0408 108.101 96.1233 109.198L91.8233 111.658C89.9058 112.755 89.2406 115.199 90.3376 117.116C91.4346 119.034 93.8783 119.699 95.7959 118.602L100.096 116.142ZM113.02 118.976C113.029 116.767 111.245 114.969 109.036 114.96C106.827 114.951 105.029 116.735 105.02 118.944L105 123.894C104.991 126.103 106.775 127.901 108.984 127.91C111.193 127.919 112.991 126.135 113 123.926L113.02 118.976ZM39.09 117.221C39.1239 115.012 37.3607 113.194 35.1518 113.16C32.9429 113.127 31.1248 114.89 31.0909 117.099L31.0372 120.604L27.5418 120.55C25.3329 120.517 23.5148 122.28 23.4809 124.489C23.4471 126.697 25.2103 128.516 27.4191 128.549L30.9145 128.603L30.8609 132.099C30.8271 134.307 32.5903 136.126 34.7991 136.159C37.008 136.193 38.8261 134.43 38.86 132.221L38.9136 128.726L42.4191 128.779C44.628 128.813 46.4461 127.05 46.48 124.841C46.5139 122.632 44.7507 120.814 42.5418 120.78L39.0362 120.727L39.09 117.221Z" fill="var(--spectrum-global-color-gray-800, #292929)"/>
</svg>
