<svg width="160" height="160" viewBox="0 0 160 160" xmlns="http://www.w3.org/2000/svg">
<path fill-rule="evenodd" d="M58.3551 40.0652C63.548 28.2998 74.9922 20 88.4301 20C105.908 20 119.975 33.9793 121.384 51.4675C135.192 54.1366 145.42 66.9295 145.42 81.48C145.42 97.285 133.774 110.505 118.612 111.884C116.412 112.084 114.467 110.462 114.267 108.262C114.066 106.062 115.688 104.116 117.888 103.916C128.687 102.935 137.42 93.395 137.42 81.48C137.42 69.572 128.319 59.6484 117.244 58.993C115.13 58.8679 113.48 57.1174 113.48 55C113.48 54.7991 113.489 54.6092 113.494 54.512L113.494 54.4942C113.499 54.3943 113.5 54.3658 113.5 54.3604V54.3603L113.5 54.36V54.3594C113.5 39.6331 102.119 28 88.4301 28C77.3837 28 67.8615 35.5592 64.5732 46.2463C64.2386 47.3339 63.4566 48.2274 62.4231 48.7033C61.3896 49.1792 60.2023 49.1924 59.1584 48.7397C57.1554 47.8709 54.966 47.39 52.6601 47.39C43.312 47.39 35.4501 55.3528 35.4501 65.54C35.4501 66.9335 35.6201 68.3165 35.9188 69.6903C36.3669 71.7518 35.1369 73.807 33.1083 74.3863C27.1358 76.0916 22.5801 81.8637 22.5801 88.92C22.5801 97.3181 28.9891 103.843 36.6124 103.981C36.7233 103.983 36.8331 103.989 36.9416 104H41.3801C43.5892 104 45.3801 105.791 45.3801 108C45.3801 110.209 43.5892 112 41.3801 112H36.5401C36.3646 112 36.1918 111.989 36.0224 111.967C23.9594 111.505 14.5801 101.231 14.5801 88.92C14.5801 79.6783 19.843 71.621 27.5642 67.9565C27.4902 67.1663 27.4501 66.3604 27.4501 65.54C27.4501 51.2672 38.5682 39.39 52.6601 39.39C54.6197 39.39 56.5261 39.6242 58.3551 40.0652ZM83.5 73.6569L100.172 90.3284C101.734 91.8905 104.266 91.8905 105.828 90.3284C107.391 88.7663 107.391 86.2337 105.828 84.6716L82.3284 61.1716C80.7663 59.6095 78.2337 59.6095 76.6716 61.1716L53.1716 84.6716C51.6095 86.2337 51.6095 88.7663 53.1716 90.3284C54.7337 91.8905 57.2663 91.8905 58.8284 90.3284L75.5 73.6569V136C75.5 138.209 77.2909 140 79.5 140C81.7091 140 83.5 138.209 83.5 136V73.6569Z" fill="var(--spectrum-global-color-gray-800, #292929)"/>
</svg>
