<svg width="160" height="160" viewBox="0 0 160 160" xmlns="http://www.w3.org/2000/svg">
<path fill-rule="evenodd" d="M43 36.7402C43 29.5605 48.8203 23.7402 56 23.7402H79.2721C82.7199 23.7402 86.0265 25.1099 88.4645 27.5478L113.192 52.2758C115.63 54.7137 117 58.0203 117 61.4682V96.7402C117 103.92 111.18 109.74 104 109.74H103.906H103.812H103.719H103.625H103.531H103.438H103.344H103.25H103.156H103.062H102.969H102.875H102.781H102.688H102.594H102.5H102.406H102.312H102.219H102.125H102.031H101.938H101.844H101.75H101.656H101.562H101.469H101.375H101.281H101.188H101.094H101H100.906H100.812H100.719H100.625H100.531H100.438H100.344H100.25H100.156H100.062H99.9688H99.875H99.7812H99.6875H99.5938H99.5H99.4062H99.3125H99.2188H99.125H99.0312H98.9375H98.8438H98.75H98.6562H98.5625H98.4688H98.375H98.2812H98.1875H98.0938H98H97.9062H97.8125H97.7188H97.625H97.5312H97.4375H97.3438H97.25H97.1562H97.0625H96.9688H96.875H96.7812H96.6875H96.5938H96.5H96.4062H96.3125H96.2188H96.125H96.0312H95.9375H95.8438H95.75H95.6562H95.5625H95.4688H95.375H95.2812H95.1875H95.0938H95H94.9062H94.8125H94.7188H94.625H94.5312H94.4375H94.3438H94.25H94.1562H94.0625H93.9688H93.875H93.7812H93.6875H93.5938H93.5H93.4062H93.3125H93.2188H93.125H93.0312H92.9375H92.8438H92.75H92.6562H92.5625H92.4688H92.375H92.2812H92.1875H92.0938H92H91.9062H91.8125H91.7188H91.625H91.5312H91.4375H91.3438H91.25H91.1562H91.0625H90.9688H90.875H90.7812H90.6875H90.5938H90.5H90.4062H90.3125H90.2188H90.125H90.0312H89.9375H89.8438H89.75H89.6562H89.5625H89.4688H89.375H89.2812H89.1875H89.0938H89H88.9062H88.8125H88.7188H88.625H88.5312H88.4375H88.3438H88.25H88.1562H88.0625H87.9688H87.875H87.7812H87.6875H87.5938H87.5H87.4062H87.3125H87.2188H87.125H87.0312H86.9375H86.8438H86.75H86.6562H86.5625H86.4688H86.375H86.2812H86.1875H86.0938H86H85.9062H85.8125H85.7188H85.625H85.5312H85.4375H85.3438H85.25H85.1562H85.0625H84.9688H84.875H84.7812H84.6875H84.5938H84.5H84.4062H84.3125H84.2188H84.125H84.0312H83.9375H83.8438H83.75H83.6562H83.5625H83.4688H83.375H83.2812H83.1875H83.0938H83H82.9062H82.8125H82.7188H82.625H82.5312H82.4375H82.3438H82.25H82.1562H82.0625H81.9688H81.875H81.7812H81.6875H81.5938H81.5H81.4062H81.3125H81.2188H81.125H81.0312H80.9375H80.8438H80.75H80.6562H80.5625H80.4688H80.375H80.2812H80.1875H80.0938H80H79.9062H79.8125H79.7188H79.625H79.5312H79.4375H79.3438H79.25H79.1562H79.0625H78.9688H78.875H78.7812H78.6875H78.5938H78.5H78.4062H78.3125H78.2188H78.125H78.0312H77.9375H77.8438H77.75H77.6562H77.5625H77.4688H77.375H77.2812H77.1875H77.0938H77H76.9062H76.8125H76.7188H76.625H76.5312H76.4375H76.3438H76.25H76.1562H76.0625H75.9688H75.875H75.7812H75.6875H75.5938H75.5H75.4062H75.3125H75.2188H75.125H75.0312H74.9375H74.8438H74.75H74.6562H74.5625H74.4688H74.375H74.2812H74.1875H74.0938H74H73.9062H73.8125H73.7188H73.625H73.5312H73.4375H73.3438H73.25H73.1562H73.0625H72.9688H72.875H72.7812H72.6875H72.5938H72.5H72.4062H72.3125H72.2188H72.125H72.0312H71.9375H71.8438H71.75H71.6562H71.5625H71.4688H71.375H71.2812H71.1875H71.0938H71H70.9062H70.8125H70.7188H70.625H70.5312H70.4375H70.3438H70.25H70.1562H70.0625H69.9688H69.875H69.7812H69.6875H69.5938H69.5H69.4062H69.3125H69.2188H69.125H69.0312H68.9375H68.8438H68.75H68.6562H68.5625H68.4688H68.375H68.2812H68.1875H68.0938H68H67.9062H67.8125H67.7188H67.625H67.5312H67.4375H67.3438H67.25H67.1562H67.0625H66.9688H66.875H66.7812H66.6875H66.5938H66.5H66.4062H66.3125H66.2188H66.125H66.0312H65.9375H65.8438H65.75H65.6562H65.5625H65.4688H65.375H65.2812H65.1875H65.0938H65H64.9062H64.8125H64.7188H64.625H64.5312H64.4375H64.3438H64.25H64.1562H64.0625H63.9688H63.875H63.7812H63.6875H63.5938H63.5H63.4062H63.3125H63.2188H63.125H63.0312H62.9375H62.8438H62.75H62.6562H62.5625H62.4688H62.375H62.2812H62.1875H62.0938H62H61.9062H61.8125H61.7188H61.625H61.5312H61.4375H61.3438H61.25H61.1562H61.0625H60.9688H60.875H60.7812H60.6875H60.5938H60.5H60.4062H60.3125H60.2188H60.125H60.0312H59.9375H59.8438H59.75H59.6562H59.5625H59.4688H59.375H59.2812H59.1875H59.0938H59H58.9062H58.8125H58.7188H58.625H58.5312H58.4375H58.3438H58.25H58.1562H58.0625H57.9688H57.875H57.7812H57.6875H57.5938H57.5H57.4062H57.3125H57.2188H57.125H57.0312H56.9375H56.8438H56.75H56.6562H56.5625H56.4688H56.375H56.2812H56.1875H56.0938H56C48.8203 109.74 43 103.92 43 96.7402V36.7402ZM56 31.7402C53.2386 31.7402 51 33.9788 51 36.7402V96.7402C51 99.5017 53.2386 101.74 56 101.74H56.0938H56.1875H56.2812H56.375H56.4688H56.5625H56.6562H56.75H56.8438H56.9375H57.0312H57.125H57.2188H57.3125H57.4062H57.5H57.5938H57.6875H57.7812H57.875H57.9688H58.0625H58.1562H58.25H58.3438H58.4375H58.5312H58.625H58.7188H58.8125H58.9062H59H59.0938H59.1875H59.2812H59.375H59.4688H59.5625H59.6562H59.75H59.8438H59.9375H60.0312H60.125H60.2188H60.3125H60.4062H60.5H60.5938H60.6875H60.7812H60.875H60.9688H61.0625H61.1562H61.25H61.3438H61.4375H61.5312H61.625H61.7188H61.8125H61.9062H62H62.0938H62.1875H62.2812H62.375H62.4688H62.5625H62.6562H62.75H62.8438H62.9375H63.0312H63.125H63.2188H63.3125H63.4062H63.5H63.5938H63.6875H63.7812H63.875H63.9688H64.0625H64.1562H64.25H64.3438H64.4375H64.5312H64.625H64.7188H64.8125H64.9062H65H65.0938H65.1875H65.2812H65.375H65.4688H65.5625H65.6562H65.75H65.8438H65.9375H66.0312H66.125H66.2188H66.3125H66.4062H66.5H66.5938H66.6875H66.7812H66.875H66.9688H67.0625H67.1562H67.25H67.3438H67.4375H67.5312H67.625H67.7188H67.8125H67.9062H68H68.0938H68.1875H68.2812H68.375H68.4688H68.5625H68.6562H68.75H68.8438H68.9375H69.0312H69.125H69.2188H69.3125H69.4062H69.5H69.5938H69.6875H69.7812H69.875H69.9688H70.0625H70.1562H70.25H70.3438H70.4375H70.5312H70.625H70.7188H70.8125H70.9062H71H71.0938H71.1875H71.2812H71.375H71.4688H71.5625H71.6562H71.75H71.8438H71.9375H72.0312H72.125H72.2188H72.3125H72.4062H72.5H72.5938H72.6875H72.7812H72.875H72.9688H73.0625H73.1562H73.25H73.3438H73.4375H73.5312H73.625H73.7188H73.8125H73.9062H74H74.0938H74.1875H74.2812H74.375H74.4688H74.5625H74.6562H74.75H74.8438H74.9375H75.0312H75.125H75.2188H75.3125H75.4062H75.5H75.5938H75.6875H75.7812H75.875H75.9688H76.0625H76.1562H76.25H76.3438H76.4375H76.5312H76.625H76.7188H76.8125H76.9062H77H77.0938H77.1875H77.2812H77.375H77.4688H77.5625H77.6562H77.75H77.8438H77.9375H78.0312H78.125H78.2188H78.3125H78.4062H78.5H78.5938H78.6875H78.7812H78.875H78.9688H79.0625H79.1562H79.25H79.3438H79.4375H79.5312H79.625H79.7188H79.8125H79.9062H80H80.0938H80.1875H80.2812H80.375H80.4688H80.5625H80.6562H80.75H80.8438H80.9375H81.0312H81.125H81.2188H81.3125H81.4062H81.5H81.5938H81.6875H81.7812H81.875H81.9688H82.0625H82.1562H82.25H82.3438H82.4375H82.5312H82.625H82.7188H82.8125H82.9062H83H83.0938H83.1875H83.2812H83.375H83.4688H83.5625H83.6562H83.75H83.8438H83.9375H84.0312H84.125H84.2188H84.3125H84.4062H84.5H84.5938H84.6875H84.7812H84.875H84.9688H85.0625H85.1562H85.25H85.3438H85.4375H85.5312H85.625H85.7188H85.8125H85.9062H86H86.0938H86.1875H86.2812H86.375H86.4688H86.5625H86.6562H86.75H86.8438H86.9375H87.0312H87.125H87.2188H87.3125H87.4062H87.5H87.5938H87.6875H87.7812H87.875H87.9688H88.0625H88.1562H88.25H88.3438H88.4375H88.5312H88.625H88.7188H88.8125H88.9062H89H89.0938H89.1875H89.2812H89.375H89.4688H89.5625H89.6562H89.75H89.8438H89.9375H90.0312H90.125H90.2188H90.3125H90.4062H90.5H90.5938H90.6875H90.7812H90.875H90.9688H91.0625H91.1562H91.25H91.3438H91.4375H91.5312H91.625H91.7188H91.8125H91.9062H92H92.0938H92.1875H92.2812H92.375H92.4688H92.5625H92.6562H92.75H92.8438H92.9375H93.0312H93.125H93.2188H93.3125H93.4062H93.5H93.5938H93.6875H93.7812H93.875H93.9688H94.0625H94.1562H94.25H94.3438H94.4375H94.5312H94.625H94.7188H94.8125H94.9062H95H95.0938H95.1875H95.2812H95.375H95.4688H95.5625H95.6562H95.75H95.8438H95.9375H96.0312H96.125H96.2188H96.3125H96.4062H96.5H96.5938H96.6875H96.7812H96.875H96.9688H97.0625H97.1562H97.25H97.3438H97.4375H97.5312H97.625H97.7188H97.8125H97.9062H98H98.0938H98.1875H98.2812H98.375H98.4688H98.5625H98.6562H98.75H98.8438H98.9375H99.0312H99.125H99.2188H99.3125H99.4062H99.5H99.5938H99.6875H99.7812H99.875H99.9688H100.062H100.156H100.25H100.344H100.438H100.531H100.625H100.719H100.812H100.906H101H101.094H101.188H101.281H101.375H101.469H101.562H101.656H101.75H101.844H101.938H102.031H102.125H102.219H102.312H102.406H102.5H102.594H102.688H102.781H102.875H102.969H103.062H103.156H103.25H103.344H103.438H103.531H103.625H103.719H103.812H103.906H104C106.761 101.74 109 99.5017 109 96.7402V61.4682C109 60.1421 108.473 58.8703 107.536 57.9326L82.8076 33.2047C81.8699 32.267 80.5982 31.7402 79.2721 31.7402H56ZM61.7036 73.5672C63.0787 71.8383 65.5951 71.5514 67.324 72.9266L75.0155 79.0441L75.0728 53.3985C75.0778 51.1894 76.8726 49.4025 79.0818 49.4075C81.2909 49.4124 83.0778 51.2073 83.0728 53.4164L83.0154 79.1102L90.6549 72.9445C92.374 71.557 94.8923 71.8258 96.2798 73.5449C97.6672 75.264 97.3984 77.7824 95.6793 79.1698L81.6165 90.5197C80.159 91.6961 78.0803 91.7035 76.6144 90.5376L62.3442 79.1877C60.6153 77.8125 60.3284 75.2962 61.7036 73.5672ZM28 76.7402C25.7909 76.7402 24 78.5311 24 80.7402V84.1152C24 86.3244 22.2091 88.1152 20 88.1152C17.7909 88.1152 16 86.3244 16 84.1152V80.7402C16 74.1128 21.3726 68.7402 28 68.7402H32.5C34.7091 68.7402 36.5 70.5311 36.5 72.7402C36.5 74.9494 34.7091 76.7402 32.5 76.7402H28ZM123.5 72.7402C123.5 70.5311 125.291 68.7402 127.5 68.7402H132C138.627 68.7402 144 74.1128 144 80.7402V84.1152C144 86.3244 142.209 88.1152 140 88.1152C137.791 88.1152 136 86.3244 136 84.1152V80.7402C136 78.5311 134.209 76.7402 132 76.7402H127.5C125.291 76.7402 123.5 74.9494 123.5 72.7402ZM20 93.8652C22.2091 93.8652 24 95.6561 24 97.8652V106.615C24 108.824 22.2091 110.615 20 110.615C17.7909 110.615 16 108.824 16 106.615V97.8652C16 95.6561 17.7909 93.8652 20 93.8652ZM140 93.8652C142.209 93.8652 144 95.6561 144 97.8652V106.615C144 108.824 142.209 110.615 140 110.615C137.791 110.615 136 108.824 136 106.615V97.8652C136 95.6561 137.791 93.8652 140 93.8652ZM20 116.365C22.2091 116.365 24 118.156 24 120.365V123.74C24 125.949 25.7909 127.74 28 127.74H32.5C34.7091 127.74 36.5 129.531 36.5 131.74C36.5 133.949 34.7091 135.74 32.5 135.74H28C21.3726 135.74 16 130.368 16 123.74V120.365C16 118.156 17.7909 116.365 20 116.365ZM140 116.365C142.209 116.365 144 118.156 144 120.365V123.74C144 130.368 138.627 135.74 132 135.74H127.5C125.291 135.74 123.5 133.949 123.5 131.74C123.5 129.531 125.291 127.74 127.5 127.74H132C134.209 127.74 136 125.949 136 123.74V120.365C136 118.156 137.791 116.365 140 116.365ZM103 127.74C100.791 127.74 99 129.531 99 131.74C99 133.949 100.791 135.74 103 135.74H114C116.209 135.74 118 133.949 118 131.74C118 129.531 116.209 127.74 114 127.74H103ZM70.5 131.74C70.5 129.531 72.2909 127.74 74.5 127.74H85.5C87.7091 127.74 89.5 129.531 89.5 131.74C89.5 133.949 87.7091 135.74 85.5 135.74H74.5C72.2909 135.74 70.5 133.949 70.5 131.74ZM46 127.74C43.7909 127.74 42 129.531 42 131.74C42 133.949 43.7909 135.74 46 135.74H57C59.2091 135.74 61 133.949 61 131.74C61 129.531 59.2091 127.74 57 127.74H46Z" fill="var(--spectrum-global-color-gray-800, #292929)"/>
</svg>
