<svg width="160" height="160" viewBox="0 0 160 160" xmlns="http://www.w3.org/2000/svg">
<path fill-rule="evenodd" d="M136 50C136 43.3726 130.627 38 124 38H36C29.3726 38 24 43.3726 24 50V110C24 110.862 24.0909 111.703 24.2636 112.513L49.0454 74.2274C53.4101 67.4769 63.2973 67.4763 67.6631 74.2255L67.6643 74.2274L88.1929 105.937L99.9377 88.446L99.939 88.444C104.332 81.9101 113.958 81.8956 118.349 88.4435L118.353 88.4505L135.412 113.721C135.794 112.549 136 111.299 136 110V50ZM55.7623 78.5728L29.0756 119.802C31.0319 121.186 33.4209 122 36 122H77.4074L83.3409 113.163L60.9475 78.5731L60.9463 78.5711C59.7332 76.695 56.9765 76.695 55.7634 78.5711L55.7623 78.5728ZM130.19 120.283C128.382 121.373 126.264 122 124 122H87.0436L106.578 92.9076L106.579 92.9062L106.579 92.9056C107.811 91.0766 110.493 91.0894 111.706 92.9011L111.714 92.9138L130.19 120.283ZM79.6091 130H124C135.046 130 144 121.046 144 110V50C144 38.9543 135.046 30 124 30H36C24.9543 30 16 38.9543 16 50V110C16 121.046 24.9543 130 36 130H79.4625C79.5114 130.001 79.5603 130.001 79.6091 130ZM108 58C108 62.4183 111.582 66 116 66C120.418 66 124 62.4183 124 58C124 53.5817 120.418 50 116 50C111.582 50 108 53.5817 108 58Z" fill="var(--spectrum-global-color-gray-800, #292929)"/>
</svg>
