<svg width="160" height="160" viewBox="0 0 160 160" xmlns="http://www.w3.org/2000/svg">
<path fill-rule="evenodd" d="M124.209 28.7596C124.945 27.3839 126.387 26.4609 128.04 26.4609C130.436 26.4609 132.379 28.4034 132.379 30.7995C132.379 31.6924 132.113 32.5122 131.657 33.1976C130.547 34.8643 130.999 37.1146 132.666 38.2238C134.333 39.3331 136.583 38.8812 137.692 37.2146C138.916 35.3761 139.629 33.1656 139.629 30.7995C139.629 24.3993 134.44 19.2109 128.04 19.2109C123.607 19.2109 119.762 21.7011 117.816 25.3418C116.872 27.1074 117.538 29.3039 119.304 30.2476C121.069 31.1914 123.266 30.5252 124.209 28.7596ZM114.192 42.0645C110.438 42.0645 107.169 44.1654 105.507 47.2743C104.465 49.2226 102.042 49.9578 100.094 48.9163C98.1453 47.8749 97.4102 45.4513 98.4516 43.503C101.449 37.8947 107.37 34.0645 114.192 34.0645C124.044 34.0645 132.03 42.0511 132.03 51.9031C132.03 55.5476 130.933 58.9479 129.05 61.777C127.826 63.6161 125.343 64.1147 123.504 62.8907C121.665 61.6667 121.167 59.1836 122.391 57.3445C123.427 55.7878 124.03 53.922 124.03 51.9031C124.03 46.4694 119.626 42.0645 114.192 42.0645ZM81.0949 67.4453C84.1719 63.7226 88.8117 61.3613 94.0065 61.3613C103.252 61.3613 110.748 68.8566 110.748 78.1024C110.748 85.4149 106.057 91.6421 99.5081 93.9196C97.4216 94.6453 96.3184 96.925 97.044 99.0116C97.7697 101.098 100.049 102.201 102.136 101.476C111.801 98.1143 118.748 88.9247 118.748 78.1024C118.748 64.4383 107.671 53.3613 94.0065 53.3613C86.3258 53.3613 79.4602 56.866 74.9286 62.3486C73.5211 64.0514 73.7606 66.5727 75.4633 67.9801C77.1661 69.3875 79.6874 69.1481 81.0949 67.4453ZM27.9961 106.173C27.9961 91.2649 40.0814 79.1797 54.9893 79.1797C69.8972 79.1797 81.9825 91.2649 81.9825 106.173C81.9825 121.081 69.8972 133.166 54.9893 133.166C40.0814 133.166 27.9961 121.081 27.9961 106.173ZM54.9893 71.1797C35.6631 71.1797 19.9961 86.8467 19.9961 106.173C19.9961 125.499 35.6631 141.166 54.9893 141.166C74.3155 141.166 89.9825 125.499 89.9825 106.173C89.9825 86.8467 74.3155 71.1797 54.9893 71.1797Z" fill="var(--spectrum-global-color-gray-800, #292929)"/>
</svg>
