<svg width="160" height="160" viewBox="0 0 160 160" xmlns="http://www.w3.org/2000/svg">
<path fill-rule="evenodd" d="M43.5 32C34.9396 32 28 38.9396 28 47.5V48.5C28 57.0604 34.9396 64 43.5 64H80H116.5C125.06 64 132 57.0604 132 48.5V47.5C132 38.9396 125.06 32 116.5 32H43.5ZM116.5 72H84V88H116.5C129.479 88 140 98.5213 140 111.5V112.5C140 125.479 129.479 136 116.5 136H43.5C30.5213 136 20 125.479 20 112.5V111.5C20 98.5213 30.5213 88 43.5 88H76V72H43.5C30.5213 72 20 61.4787 20 48.5V47.5C20 34.5213 30.5213 24 43.5 24H116.5C129.479 24 140 34.5213 140 47.5V48.5C140 61.4787 129.479 72 116.5 72ZM80 96H43.5C34.9396 96 28 102.94 28 111.5V112.5C28 121.06 34.9396 128 43.5 128H116.5C125.06 128 132 121.06 132 112.5V111.5C132 102.94 125.06 96 116.5 96H80ZM57 44C54.7909 44 53 45.7909 53 48C53 50.2091 54.7909 52 57 52H75C77.2091 52 79 50.2091 79 48C79 45.7909 77.2091 44 75 44H57ZM44.5 52.5C46.9853 52.5 49 50.4853 49 48C49 45.5147 46.9853 43.5 44.5 43.5C42.0147 43.5 40 45.5147 40 48C40 50.4853 42.0147 52.5 44.5 52.5ZM53 112C53 109.791 54.7909 108 57 108H75C77.2091 108 79 109.791 79 112C79 114.209 77.2091 116 75 116H57C54.7909 116 53 114.209 53 112ZM49 112C49 114.485 46.9853 116.5 44.5 116.5C42.0147 116.5 40 114.485 40 112C40 109.515 42.0147 107.5 44.5 107.5C46.9853 107.5 49 109.515 49 112Z" fill="var(--spectrum-global-color-gray-800, #292929)"/>
</svg>
