<svg width="160" height="160" viewBox="0 0 160 160" xmlns="http://www.w3.org/2000/svg">
<path fill-rule="evenodd" d="M70.118 24.0521C76.3993 20.3656 84.1881 20.385 90.4509 24.1029L124.588 44.3686C127.636 46.1779 130.092 48.7267 131.781 51.7098C132.18 52.0399 132.521 52.4534 132.775 52.9412C133.097 53.5604 133.242 54.2252 133.227 54.8771C133.979 56.9941 134.379 59.2522 134.379 61.5664V99.627C134.379 106.873 130.46 113.552 124.134 117.087L89.9986 136.159C83.9664 139.529 76.6216 139.547 70.5731 136.206L35.9508 117.081C29.5777 113.561 25.6211 106.856 25.6211 99.5748V61.6195C25.6211 54.5251 29.3793 47.9617 35.4978 44.3708L70.118 24.0521ZM120.505 51.2477C121.515 51.8478 122.418 52.5834 123.194 53.4237L80.0206 75.9226L37.1993 53.0708C37.896 52.3844 38.6822 51.7779 39.5471 51.2703L74.1674 30.9515C77.9361 28.7396 82.6094 28.7513 86.3671 30.9821L120.505 51.2477ZM33.6211 61.6195C33.6211 61.1654 33.6468 60.7149 33.6971 60.2697L76.2871 82.9981L76.2871 130.029C75.6554 129.808 75.0378 129.533 74.4412 129.203L39.8189 110.079C35.995 107.967 33.6211 103.943 33.6211 99.5748V61.6195ZM84.2871 129.998C84.9064 129.776 85.5118 129.502 86.0965 129.175L120.232 110.103C124.027 107.982 126.379 103.975 126.379 99.627V61.5664C126.379 61.3089 126.371 61.0526 126.354 60.7977L84.2871 82.7204L84.2871 129.998Z" fill="var(--spectrum-global-color-gray-800, #292929)"/>
</svg>
