<svg width="160" height="160" viewBox="0 0 160 160" xmlns="http://www.w3.org/2000/svg">
<path fill-rule="evenodd" d="M53.4456 24.0625C53.4456 21.8534 51.6548 20.0625 49.4456 20.0625C47.2365 20.0625 45.4456 21.8534 45.4456 24.0625V45.3252H24.0625C21.8534 45.3252 20.0625 47.1161 20.0625 49.3252C20.0625 51.5343 21.8534 53.3252 24.0625 53.3252H45.4456V94.6753C45.4456 105.721 54.3999 114.675 65.4456 114.675H106.554V135.938C106.554 138.147 108.345 139.938 110.554 139.938C112.764 139.938 114.554 138.147 114.554 135.938V114.675H135.938C138.147 114.675 139.938 112.884 139.938 110.675C139.938 108.466 138.147 106.675 135.938 106.675H65.4456C58.8182 106.675 53.4456 101.303 53.4456 94.6753V49.3767C53.4458 49.3595 53.4459 49.3424 53.4459 49.3252C53.4459 49.308 53.4458 49.2909 53.4456 49.2737V24.0625ZM62.0594 45.3252C59.8502 45.3252 58.0594 47.1161 58.0594 49.3252C58.0594 51.5343 59.8502 53.3252 62.0594 53.3252H94.5545C101.182 53.3252 106.554 58.6978 106.554 65.3252V98.0449C106.554 100.254 108.345 102.045 110.554 102.045C112.764 102.045 114.554 100.254 114.554 98.0449V65.3252C114.554 54.2795 105.6 45.3252 94.5545 45.3252H62.0594Z" fill="var(--spectrum-global-color-gray-800, #292929)"/>
</svg>
