<svg width="96" height="96" viewBox="0 0 96 96" xmlns="http://www.w3.org/2000/svg">
<path fill-rule="evenodd" d="M48 16.7402C30.8792 16.7402 17 30.6194 17 47.7402C17 55.8649 20.1256 63.2596 25.2399 68.7874C29.8063 60.94 38.3196 55.6094 48.0012 55.6094C57.682 55.6094 66.1938 60.9442 70.7602 68.7873C75.8745 63.2595 79 55.8649 79 47.7402C79 30.6194 65.1208 16.7402 48 16.7402ZM48 78.7402C40.4899 78.7402 33.6036 76.0697 28.2388 71.6264C31.9916 64.4987 39.4816 59.6094 48.0012 59.6094C56.5182 59.6094 64.0074 64.5013 67.7615 71.6261C62.3967 76.0696 55.5102 78.7402 48 78.7402ZM13 47.7402C13 28.4103 28.67 12.7402 48 12.7402C67.33 12.7402 83 28.4103 83 47.7402C83 67.0702 67.33 82.7402 48 82.7402C28.67 82.7402 13 67.0702 13 47.7402ZM37.9131 38.7531C37.9131 32.6241 42.5469 27.875 48.0007 27.875C53.4545 27.875 58.0883 32.6241 58.0883 38.7531C58.0883 44.8821 53.4545 49.6312 48.0007 49.6312C42.5469 49.6312 37.9131 44.8821 37.9131 38.7531ZM48.0007 23.875C40.1029 23.875 33.9131 30.6574 33.9131 38.7531C33.9131 46.8488 40.1029 53.6312 48.0007 53.6312C55.8986 53.6312 62.0883 46.8488 62.0883 38.7531C62.0883 30.6574 55.8986 23.875 48.0007 23.875Z" fill="var(--spectrum-global-color-gray-800, #292929)"/>
</svg>
