<svg width="160" height="160" viewBox="0 0 160 160" xmlns="http://www.w3.org/2000/svg">
<path fill-rule="evenodd" d="M30.0201 65.6808C36.3353 44.0605 56.3055 28.2793 79.9505 28.2793C100.792 28.2793 118.775 40.5382 127.072 58.2515L113.221 51.794C111.219 50.8605 108.839 51.7268 107.906 53.7291C106.972 55.7313 107.839 58.1112 109.841 59.0446L131.011 68.9146C132.964 69.8254 135.288 69.0247 136.266 67.1039L147.246 45.5339C148.248 43.5651 147.464 41.1567 145.496 40.1546C143.527 39.1524 141.119 39.936 140.116 41.9047L133.932 54.0534C124.2 34.0633 103.692 20.2793 79.9505 20.2793C52.6556 20.2793 29.6258 38.4981 22.341 63.4378C21.7216 65.5583 22.9385 67.7795 25.059 68.3989C27.1795 69.0182 29.4007 67.8013 30.0201 65.6808ZM28.9928 91.8546C27.0389 90.9427 24.7139 91.7436 23.7361 93.6654L12.7561 115.245C11.7543 117.214 12.5383 119.623 14.5072 120.624C16.4762 121.626 18.8844 120.842 19.8862 118.873L26.0288 106.801C35.8165 126.636 56.242 140.289 79.8705 140.289C107.165 140.289 130.195 122.07 137.48 97.1308C138.099 95.0103 136.883 92.7891 134.762 92.1698C132.641 91.5504 130.42 92.7673 129.801 94.8878C123.486 116.508 103.516 132.289 79.8705 132.289C59.0885 132.289 41.1496 120.101 32.8205 102.469L46.7795 108.984C48.7814 109.918 51.1616 109.053 52.0959 107.051C53.0301 105.049 52.1647 102.669 50.1628 101.735L28.9928 91.8546Z" fill="var(--spectrum-global-color-gray-800, #292929)"/>
</svg>
