<svg width="160" height="160" viewBox="0 0 160 160" xmlns="http://www.w3.org/2000/svg">
<path fill-rule="evenodd" d="M36.6494 16C28.9149 16 22.666 22.2829 22.666 30V109.983C22.666 117.7 28.9149 123.983 36.6494 123.983H76.666C78.8752 123.983 80.666 122.192 80.666 119.983C80.666 117.774 78.8752 115.983 76.666 115.983H36.6494C33.3505 115.983 30.666 113.3 30.666 109.983V30C30.666 26.6838 33.3505 24 36.6494 24H69.066C70.6164 24 72.0992 24.595 73.19 25.6465L73.1987 25.655L105.815 56.905L105.816 56.9056C106.998 58.0375 107.666 59.5953 107.666 61.2333V85.8167C107.666 88.0258 109.457 89.8167 111.666 89.8167C113.875 89.8167 115.666 88.0258 115.666 85.8167V61.2333C115.666 57.4047 114.101 53.7625 111.349 51.1277L78.7421 19.8868L78.7372 19.8821C76.1285 17.3699 72.6467 16 69.066 16H36.6494ZM111.234 144.15C124.811 144.15 135.817 133.144 135.817 119.567C135.817 105.99 124.811 94.9834 111.234 94.9834C97.6567 94.9834 86.6504 105.99 86.6504 119.567C86.6504 133.144 97.6567 144.15 111.234 144.15ZM115.647 108.316C115.647 106.107 113.856 104.316 111.647 104.316C109.438 104.316 107.647 106.107 107.647 108.316V115.983H99.9805C97.7713 115.983 95.9805 117.774 95.9805 119.983C95.9805 122.192 97.7713 123.983 99.9805 123.983H107.647V131.65C107.647 133.859 109.438 135.65 111.647 135.65C113.856 135.65 115.647 133.859 115.647 131.65V123.983H123.314C125.523 123.983 127.314 122.192 127.314 119.983C127.314 117.774 125.523 115.983 123.314 115.983H115.647V108.316ZM74.3258 77.3394C75.4648 75.4465 74.8536 72.9887 72.9607 71.8497C68.4246 69.1203 62.4211 69.6731 58.4747 73.5585L47.0527 84.8039C42.4026 89.382 42.4026 96.8309 47.0527 101.409L49.859 98.5587L47.0527 101.409C51.6681 105.953 59.1257 105.953 63.7411 101.409L67.883 97.3313C69.4572 95.7814 69.477 93.2488 67.9271 91.6746C66.3772 90.1003 63.8446 90.0806 62.2704 91.6305L58.1285 95.7084C56.6269 97.1867 54.1669 97.1867 52.6653 95.7084C51.1984 94.2641 51.1984 91.9488 52.6653 90.5046L64.0873 79.2593C65.3595 78.0067 67.3411 77.8049 68.8362 78.7045C70.7291 79.8434 73.1869 79.2323 74.3258 77.3394ZM84.1428 69.4805C85.5954 68.0324 85.5954 65.6897 84.1428 64.2416C82.6834 62.7867 80.3122 62.7867 78.8528 64.2416L74.642 68.4393C73.0775 69.999 70.5449 69.9951 68.9852 68.4306C67.4255 66.8661 67.4294 64.3335 68.9939 62.7738L73.2046 58.576C77.7862 54.0085 85.2094 54.0085 89.791 58.576C94.3794 63.1503 94.3794 70.5718 89.791 75.1461L78.5109 86.3914C74.6445 90.2459 68.7661 90.8422 64.2729 88.2052C62.3676 87.087 61.7296 84.636 62.8478 82.7308C63.966 80.8255 66.4169 80.1875 68.3222 81.3057C69.7585 82.1487 71.6377 81.9471 72.8628 80.7259L84.1428 69.4805Z" fill="var(--spectrum-global-color-gray-800, #292929)"/>
</svg>
