<svg width="48" height="48" viewBox="0 0 48 48" xmlns="http://www.w3.org/2000/svg">
<path fill-rule="evenodd" d="M6.96486 8.75C6.31336 8.75 5.75 9.29438 5.75 10.0028V20.3539C5.75 25.0061 9.46616 28.75 14 28.75C18.5355 28.75 22.25 25.0043 22.25 20.3539V10.0028C22.25 9.29438 21.6866 8.75 21.0351 8.75H6.96486ZM3.25 10.0028C3.25 7.94978 4.8968 6.25 6.96486 6.25H21.0351C23.1032 6.25 24.75 7.94978 24.75 10.0028V20.3539C24.75 26.3486 19.9524 31.25 14 31.25C8.04995 31.25 3.25 26.351 3.25 20.3539V10.0028ZM18.0382 14.3617L18.0384 14.3622L20.5032 19.1146L20.5035 19.115C20.8541 19.7919 20.8094 20.549 20.504 21.1385C20.1973 21.7306 19.5651 22.25 18.715 22.25H13.785C12.9349 22.25 12.3027 21.7306 11.996 21.1385C11.6906 20.549 11.6459 19.7919 11.9965 19.115L11.9966 19.1149L14.4596 14.3622L14.4597 14.362C14.8193 13.668 15.5044 13.25 16.249 13.25C16.9935 13.25 17.6785 13.6679 18.0382 14.3617ZM16.2492 16.3424L14.4833 19.75H18.0165L16.2492 16.3424ZM12.138 16.0173C12.4236 15.3888 12.1457 14.6477 11.5173 14.362C10.8888 14.0764 10.1477 14.3543 9.86204 14.9827L7.36204 20.4827C7.07637 21.1112 7.35427 21.8523 7.98275 22.138C8.61122 22.4236 9.35229 22.1457 9.63796 21.5173L12.138 16.0173ZM27.2495 13.1479C26.5592 13.1479 25.9995 13.7076 25.9995 14.3979C25.9995 15.0883 26.5592 15.6479 27.2495 15.6479H27.2724H27.2953H27.318H27.3406H27.3632H27.3856H27.408H27.4302H27.4523H27.4744H27.4964H27.5182H27.54H27.5617H27.5833H27.6048H27.6261H27.6475H27.6687H27.6898H27.7108H27.7318H27.7526H27.7734H27.7941H27.8146H27.8351H27.8555H27.8759H27.8961H27.9163H27.9363H27.9563H27.9762H27.996H28.0157H28.0353H28.0549H28.0744H28.0938H28.1131H28.1323H28.1514H28.1705H28.1895H28.2084H28.2272H28.2459H28.2646H28.2832H28.3017H28.3201H28.3385H28.3567H28.3749H28.393H28.4111H28.4291H28.4469H28.4648H28.4825H28.5002H28.5178H28.5353H28.5528H28.5701H28.5875H28.6047H28.6219H28.639H28.656H28.6729H28.6898H28.7067H28.7234H28.7401H28.7567H28.7733H28.7898H28.8062H28.8225H28.8388H28.855H28.8712H28.8873H28.9033H28.9193H28.9352H28.9511H28.9668H28.9826H28.9982H29.0138H29.0294H29.0448H29.0603H29.0756H29.0909H29.1062H29.1214H29.1365H29.1516H29.1666H29.1815H29.1964H29.209V24.8726C29.209 25.2188 29.594 25.4264 29.8796 25.2317L31.9866 23.8256C32.1337 23.7304 32.3198 23.7304 32.4669 23.8256L34.5739 25.2317C34.8595 25.4221 35.2445 25.2188 35.2445 24.8726V15.6479H35.2511H35.2778H35.3045H35.3314H35.3584H35.3855H35.4127C36.6339 15.6479 37.6239 16.638 37.6239 17.8592V26.4463C37.6239 27.1366 38.1836 27.6963 38.8739 27.6963C39.5643 27.6963 40.1239 27.1366 40.1239 26.4463V17.8592C40.1239 15.2572 38.0146 13.1479 35.4127 13.1479H35.3855H35.3584H35.3314H35.3045H35.2778H35.2511H35.2246H35.1982H35.1719H35.1457H35.1196H35.0937H35.0678H35.0421H35.0164H34.9909H34.9655H34.9402H34.915H34.8899H34.8649H34.8401H34.8153H34.7906H34.7661H34.7416H34.7173H34.693H34.6689H34.6449H34.6209H34.5971H34.5734H34.5498H34.5263H34.5028H34.4795H34.4563H34.4332H34.4102H34.3872H34.3644H34.3417H34.3191H34.2966H34.2741H34.2518H34.2296H34.2074H34.1854H34.1634H34.1416H34.1198H34.0981H34.0766H34.0551H34.0337H34.0124H33.9912H33.9701H33.9491H33.9281H33.9073H33.8865H33.8659H33.8453H33.8248H33.8044H33.7841H33.7639H33.7437H33.7237H33.7037H33.6838H33.664H33.6443H33.6247H33.6051H33.5857H33.5663H33.547H33.5278H33.5086H33.4896H33.4706H33.4517H33.4329H33.4142H33.3955H33.377H33.3585H33.34H33.3217H33.3034H33.2853H33.2671H33.2491H33.2311H33.2133H33.1954H33.1777H33.16H33.1425H33.1249H33.1075H33.0901H33.0728H33.0556H33.0384H33.0213H33.0043H32.9873H32.9705H32.9537H32.9369H32.9202H32.9036H32.8871H32.8706H32.8542H32.8378H32.8215H32.8053H32.7892H32.7731H32.7571H32.7411H32.7252H32.7094H32.6936H32.6779H32.6622H32.6466H32.6311H32.6156H32.6002H32.5848H32.5695H32.5543H32.5391H32.524H32.5089H32.4939H32.479H32.4641H32.4492H32.4344H32.4197H32.405H32.3904H32.3758H32.3613H32.3468H32.3324H32.318H32.3037H32.2894H32.2752H32.261H32.2469H32.2328H32.2188H32.2049H32.1909H32.177H32.1632H32.1494H32.1357H32.122H32.1083H32.0947H32.0812H32.0677H32.0542H32.0407H32.0274H32.014H32.0007H31.9874H31.9742H31.961H31.9479H31.9348H31.9217H31.9087H31.8957H31.8827H31.8698H31.857H31.8441H31.8313H31.8185H31.8058H31.7931H31.7804H31.7678H31.7552H31.7427H31.7301H31.7176H31.7052H31.6927H31.6803H31.668H31.6556H31.6433H31.631H31.6188H31.6065H31.5943H31.5822H31.57H31.5579H31.5458H31.5338H31.5217H31.5097H31.4977H31.4858H31.4738H31.4619H31.45H31.4381H31.4263H31.4145H31.4027H31.3909H31.3791H31.3674H31.3556H31.3439H31.3323H31.3206H31.3089H31.2973H31.2857H31.2741H31.2625H31.251H31.2394H31.2279H31.2164H31.2048H31.1934H31.1819H31.1704H31.159H31.1475H31.1361H31.1247H31.1133H31.1019H31.0905H31.0791H31.0677H31.0564H31.045H31.0337H31.0224H31.011H30.9997H30.9884H30.9771H30.9658H30.9545H30.9432H30.9319H30.9206H30.9094H30.8981H30.8868H30.8755H30.8643H30.853H30.8417H30.8304H30.8192H30.8079H30.7966H30.7854H30.7741H30.7628H30.7515H30.7402H30.729H30.7177H30.7064H30.6951H30.6838H30.6725H30.6612H30.6498H30.6385H30.6272H30.6158H30.6045H30.5931H30.5818H30.5704H30.559H30.5476H30.5362H30.5248H30.5133H30.5019H30.4904H30.479H30.4675H30.456H30.4445H30.433H30.4214H30.4099H30.3983H30.3867H30.3751H30.3635H30.3519H30.3403H30.3286H30.3169H30.3052H30.2935H30.2817H30.27H30.2582H30.2464H30.2345H30.2227H30.2108H30.1989H30.187H30.1751H30.1631H30.1511H30.1391H30.127H30.115H30.1029H30.0908H30.0786H30.0664H30.0542H30.042H30.0298H30.0175H30.0052H29.9928H29.9804H29.968H29.9556H29.9431H29.9306H29.9181H29.9055H29.8929H29.8803H29.8676H29.8549H29.8422H29.8294H29.8166H29.8038H29.7909H29.778H29.765H29.752H29.739H29.7259H29.7128H29.6997H29.6865H29.6732H29.66H29.6467H29.6333H29.6199H29.6065H29.593H29.5795H29.5659H29.5523H29.5386H29.5249H29.5112H29.4974H29.4836H29.4697H29.4557H29.4418H29.4277H29.4137H29.3995H29.3854H29.3711H29.3569H29.3426H29.3282H29.3138H29.2993H29.2847H29.2702H29.2555H29.2408H29.2261H29.2113H29.1964H29.1815H29.1666H29.1516H29.1365H29.1214H29.1062H29.0909H29.0756H29.0603H29.0448H29.0294H29.0138H28.9982H28.9826H28.9668H28.9511H28.9352H28.9193H28.9033H28.8873H28.8712H28.855H28.8388H28.8225H28.8062H28.7898H28.7733H28.7567H28.7401H28.7234H28.7067H28.6898H28.6729H28.656H28.639H28.6219H28.6047H28.5875H28.5701H28.5528H28.5353H28.5178H28.5002H28.4825H28.4648H28.4469H28.4291H28.4111H28.393H28.3749H28.3567H28.3385H28.3201H28.3017H28.2832H28.2646H28.2459H28.2272H28.2084H28.1895H28.1705H28.1514H28.1323H28.1131H28.0938H28.0744H28.0549H28.0353H28.0157H27.996H27.9762H27.9563H27.9363H27.9163H27.8961H27.8759H27.8555H27.8351H27.8146H27.7941H27.7734H27.7526H27.7318H27.7108H27.6898H27.6687H27.6475H27.6261H27.6048H27.5833H27.5617H27.54H27.5182H27.4964H27.4744H27.4523H27.4302H27.408H27.3856H27.3632H27.3406H27.318H27.2953H27.2724H27.2495ZM17.6475 33.1362C17.6475 32.4458 17.0878 31.8862 16.3975 31.8862C15.7071 31.8862 15.1475 32.4458 15.1475 33.1362V33.4132C15.1475 36.0151 17.2568 38.1244 19.8587 38.1244H19.8854H19.9121H19.9386H19.9651H19.9915H20.0178H20.044H20.0701H20.0961H20.1221H20.1479H20.1737H20.1993H20.2249H20.2504H20.2759H20.3012H20.3264H20.3516H20.3767H20.4017H20.4266H20.4514H20.4762H20.5008H20.5254H20.5499H20.5744H20.5987H20.6229H20.6471H20.6712H20.6952H20.7192H20.743H20.7668H20.7905H20.8141H20.8377H20.8611H20.8845H20.9078H20.9311H20.9542H20.9773H21.0003H21.0232H21.0461H21.0689H21.0916H21.1142H21.1367H21.1592H21.1816H21.204H21.2262H21.2484H21.2705H21.2926H21.3146H21.3365H21.3583H21.3801H21.4018H21.4234H21.4449H21.4664H21.4878H21.5092H21.5305H21.5517H21.5728H21.5939H21.6149H21.6358H21.6567H21.6775H21.6983H21.7189H21.7396H21.7601H21.7806H21.801H21.8214H21.8417H21.8619H21.8821H21.9022H21.9222H21.9422H21.9621H21.982H22.0018H22.0215H22.0412H22.0608H22.0803H22.0998H22.1193H22.1387H22.158H22.1772H22.1964H22.2156H22.2347H22.2537H22.2727H22.2916H22.3105H22.3293H22.3481H22.3668H22.3854H22.404H22.4225H22.441H22.4594H22.4778H22.4961H22.5144H22.5326H22.5508H22.5689H22.587H22.605H22.623H22.6409H22.6588H22.6766H22.6943H22.7121H22.7297H22.7474H22.7649H22.7825H22.7999H22.8174H22.8348H22.8521H22.8694H22.8866H22.9038H22.921H22.9381H22.9552H22.9722H22.9892H23.0061H23.023H23.0399H23.0567H23.0735H23.0902H23.1069H23.1235H23.1401H23.1567H23.1732H23.1897H23.2061H23.2225H23.2389H23.2552H23.2715H23.2878H23.304H23.3202H23.3363H23.3524H23.3685H23.3845H23.4005H23.4164H23.4324H23.4483H23.4641H23.4799H23.4957H23.5115H23.5272H23.5429H23.5585H23.5742H23.5898H23.6053H23.6208H23.6363H23.6518H23.6672H23.6826H23.698H23.7134H23.7287H23.744H23.7592H23.7745H23.7897H23.8049H23.82H23.8351H23.8502H23.8653H23.8803H23.8954H23.9104H23.9253H23.9403H23.9552H23.9701H23.985H23.9998H24.0147H24.0295H24.0442H24.059H24.0737H24.0885H24.1032H24.1178H24.1325H24.1471H24.1617H24.1763H24.1909H24.2055H24.22H24.2345H24.2491H24.2635H24.278H24.2925H24.3069H24.3213H24.3357H24.3501H24.3645H24.3788H24.3932H24.4075H24.4218H24.4361H24.4504H24.4647H24.479H24.4932H24.5075H24.5217H24.5359H24.5501H24.5643H24.5785H24.5927H24.6068H24.621H24.6351H24.6493H24.6634H24.6775H24.6916H24.7057H24.7198H24.7339H24.748H24.7621H24.7761H24.7902H24.8043H24.8183H24.8324H24.8464H24.8604H24.8745H24.8885H24.9025H24.9166H24.9306H24.9446H24.9586H24.9727H24.9867H25.0007H25.0147H25.0287H25.0427H25.0568H25.0708H25.0848H25.0988H25.1128H25.1269H25.1409H25.1549H25.1689H25.183H25.197H25.2111H25.2251H25.2392H25.2532H25.2673H25.2813H25.2954H25.3095H25.3236H25.3377H25.3518H25.3659H25.38H25.3941H25.4082H25.4224H25.4365H25.4507H25.4649H25.479H25.4932H25.5074H25.5216H25.5358H25.5501H25.5643H25.5786H25.5928H25.6071H25.6214H25.6357H25.65H25.6644H25.6787H25.6931H25.7075H25.7219H25.7363H25.7507H25.7651H25.7796H25.7941H25.8086H25.8231H25.8376H25.8522H25.8667H25.8813H25.8959H25.9105H25.9252H25.9398H25.9545H25.9692H25.984H25.9987H26.0135H26.0283H26.0431H26.0579H26.0728H26.0877H26.1026H26.1175H26.1325H26.1474H26.1624H26.1775H26.1925H26.2076H26.2227H26.2378H26.253H26.2682H26.2834H26.2986H26.3139H26.3292H26.3445H26.3599H26.3753H26.3907H26.4062H26.4216H26.4371H26.4527H26.4683H26.4839H26.4995H26.5152H26.5309H26.5466H26.5623H26.5781H26.594H26.6098H26.6257H26.6417H26.6577H26.6737H26.6897H26.7058H26.7219H26.738H26.7542H26.7705H26.7867H26.803H26.8194H26.8358H26.8522H26.8686H26.8851H26.9017H26.9182H26.9349H26.9515H26.9682H26.985H27.0017H27.0186H27.0354H27.0523H27.0693H27.0863H27.1033H27.1204H27.1376H27.1547H27.1719H27.1892H27.2065H27.2239H27.2413H27.2587H27.2762H27.2938H27.3114H27.329H27.3467H27.3644H27.3822H27.4H27.4179H27.4359H27.4538H27.4719H27.49H27.5081H27.5263H27.5445H27.5628H27.5812H27.5996H27.618H27.6365H27.6551H27.6737H27.6923H27.7111H27.7298H27.7487H27.7676H27.7865H27.8055H27.8245H27.8437H27.8628H27.882H27.9013H27.9207H27.9401H27.9595H27.979H27.9986H28.0183H28.038H28.0577H28.0775H28.0974H28.1174H28.1374H28.1574H28.1776H28.1977H28.218H28.2383H28.2587H28.2791H28.2996H28.3202H28.3408H28.3615H28.3823H28.4031H28.424H28.445H28.466H28.4871H28.5083H28.5295H28.5508H28.5722H28.5937H28.6152H28.6367H28.6584H28.6801H28.7019H28.7237H28.7457H28.7677H28.7897H28.8119H28.8341H28.8564H28.8788C29.5691 38.1244 30.1288 37.5648 30.1288 36.8744C30.1288 36.1841 29.5691 35.6244 28.8788 35.6244H28.8564H28.8341H28.8119H28.7897H28.7677H28.7457H28.7237H28.7019H28.6801H28.6584H28.6367H28.6152H28.5937H28.5722H28.5508H28.5295H28.5083H28.4871H28.466H28.445H28.424H28.4031H28.3823H28.3615H28.3408H28.3202H28.2996H28.2791H28.2587H28.2383H28.218H28.1977H28.1776H28.1574H28.1374H28.1174H28.0974H28.0775H28.0577H28.038H28.0183H27.9986H27.979H27.9595H27.9401H27.9207H27.9013H27.882H27.8628H27.8437H27.8245H27.8055H27.7865H27.7676H27.7487H27.7298H27.7111H27.6923H27.6737H27.6551H27.6365H27.618H27.5996H27.5812H27.5628H27.5445H27.5263H27.5081H27.49H27.4719H27.4538H27.4359H27.4179H27.4H27.3822H27.3644H27.3467H27.329H27.3114H27.2938H27.2762H27.2587H27.2413H27.2239H27.2065H27.1892H27.1719H27.1547H27.1376H27.1204H27.1033H27.0863H27.0693H27.0523H27.0354H27.0186H27.0017H26.985H26.9682H26.9515H26.9349H26.9182H26.9017H26.8851H26.8686H26.8522H26.8358H26.8194H26.803H26.7867H26.7705H26.7542H26.738H26.7219H26.7058H26.6897H26.6737H26.6577H26.6417H26.6257H26.6098H26.594H26.5781H26.5623H26.5466H26.5309H26.5152H26.4995H26.4839H26.4683H26.4527H26.4371H26.4216H26.4062H26.3907H26.3753H26.3599H26.3445H26.3292H26.3139H26.2986H26.2834H26.2682H26.253H26.2378H26.2227H26.2076H26.1925H26.1775H26.1624H26.1474H26.1325H26.1175H26.1026H26.0877H26.0728H26.0579H26.0431H26.0283H26.0135H25.9987H25.984H25.9692H25.9545H25.9398H25.9252H25.9105H25.8959H25.8813H25.8667H25.8522H25.8376H25.8231H25.8086H25.7941H25.7796H25.7651H25.7507H25.7363H25.7219H25.7075H25.6931H25.6787H25.6644H25.65H25.6357H25.6214H25.6071H25.5928H25.5786H25.5643H25.5501H25.5358H25.5216H25.5074H25.4932H25.479H25.4649H25.4507H25.4365H25.4224H25.4082H25.3941H25.38H25.3659H25.3518H25.3377H25.3236H25.3095H25.2954H25.2813H25.2673H25.2532H25.2392H25.2251H25.2111H25.197H25.183H25.1689H25.1549H25.1409H25.1269H25.1128H25.0988H25.0848H25.0708H25.0568H25.0427H25.0287H25.0147H25.0007H24.9867H24.9727H24.9586H24.9446H24.9306H24.9166H24.9025H24.8885H24.8745H24.8604H24.8464H24.8324H24.8183H24.8043H24.7902H24.7761H24.7621H24.748H24.7339H24.7198H24.7057H24.6916H24.6775H24.6634H24.6493H24.6351H24.621H24.6068H24.5927H24.5785H24.5643H24.5501H24.5359H24.5217H24.5075H24.4932H24.479H24.4647H24.4504H24.4361H24.4218H24.4075H24.3932H24.3788H24.3645H24.3501H24.3357H24.3213H24.3069H24.2925H24.278H24.2635H24.2491H24.2345H24.22H24.2055H24.1909H24.1763H24.1617H24.1471H24.1325H24.1178H24.1032H24.0885H24.0737H24.059H24.0442H24.0295H24.0147H23.9998H23.985H23.9701H23.9552H23.9403H23.9253H23.9104H23.8954H23.8803H23.8653H23.8502H23.8351H23.82H23.8049H23.7897H23.7745H23.7592H23.744H23.7287H23.7134H23.698H23.6826H23.6672H23.6518H23.6363H23.6208H23.6053H23.5898H23.5742H23.5585H23.5429H23.5272H23.5115H23.4957H23.4799H23.4641H23.4483H23.4324H23.4164H23.4005H23.3845H23.3685H23.3524H23.3363H23.3202H23.304H23.2878H23.2715H23.2552H23.2389H23.2225H23.2061H23.1897H23.1732H23.1567H23.1401H23.1235H23.1069H23.0902H23.0735H23.0567H23.0399H23.023H23.0061H22.9892H22.9722H22.9552H22.9381H22.921H22.9038H22.8866H22.8694H22.8521H22.8348H22.8174H22.7999H22.7825H22.7649H22.7474H22.7297H22.7121H22.6943H22.6766H22.6588H22.6409H22.623H22.605H22.587H22.5689H22.5508H22.5326H22.5144H22.4961H22.4778H22.4594H22.441H22.4225H22.404H22.3854H22.3668H22.3481H22.3293H22.3105H22.2916H22.2727H22.2537H22.2347H22.2156H22.1964H22.1772H22.158H22.1387H22.1193H22.0998H22.0803H22.0608H22.0412H22.0215H22.0018H21.982H21.9621H21.9422H21.9222H21.9022H21.8821H21.8619H21.8417H21.8214H21.801H21.7806H21.7601H21.7396H21.7189H21.6983H21.6775H21.6567H21.6358H21.6149H21.5939H21.5728H21.5517H21.5305H21.5092H21.4878H21.4664H21.4449H21.4234H21.4018H21.3801H21.3583H21.3365H21.3146H21.2926H21.2705H21.2484H21.2262H21.204H21.1816H21.1592H21.1367H21.1142H21.0916H21.0689H21.0461H21.0232H21.0003H20.9773H20.9542H20.9311H20.9078H20.8845H20.8611H20.8377H20.8141H20.7905H20.7668H20.743H20.7192H20.6952H20.6712H20.6471H20.6229H20.5987H20.5744H20.5499H20.5254H20.5008H20.4762H20.4514H20.4266H20.4017H20.3767H20.3516H20.3264H20.3012H20.2759H20.2504H20.2249H20.1993H20.1737H20.1479H20.1221H20.0961H20.0701H20.044H20.0178H19.9915H19.9651H19.9386H19.9121H19.8854H19.8587C18.6375 35.6244 17.6475 34.6344 17.6475 33.4132V33.1362ZM38.75 43.75C42.8231 43.75 46.125 40.4481 46.125 36.375C46.125 32.3019 42.8231 29 38.75 29C34.6769 29 31.375 32.3019 31.375 36.375C31.375 40.4481 34.6769 43.75 38.75 43.75ZM40.1251 33C40.1251 32.3096 39.5655 31.75 38.8751 31.75C38.1847 31.75 37.6251 32.3096 37.6251 33V35.25H35.3751C34.6847 35.25 34.1251 35.8096 34.1251 36.5C34.1251 37.1904 34.6847 37.75 35.3751 37.75H37.6251V40C37.6251 40.6904 38.1847 41.25 38.8751 41.25C39.5655 41.25 40.1251 40.6904 40.1251 40V37.75H42.3751C43.0655 37.75 43.6251 37.1904 43.6251 36.5C43.6251 35.8096 43.0655 35.25 42.3751 35.25H40.1251V33Z" fill="var(--spectrum-global-color-gray-800, #292929)"/>
</svg>
