<svg width="96" height="96" viewBox="0 0 96 96" xmlns="http://www.w3.org/2000/svg">
<path fill-rule="evenodd" d="M41.2372 18.6031C44.4088 13.5176 51.9115 13.5998 54.9432 18.8494L54.9433 18.8496L84.3232 69.7394C87.4044 75.0748 83.5486 81.7396 77.3913 81.7396H18.6213C12.464 81.7396 8.60828 75.075 11.6892 69.7396L11.6893 69.7394L41.0692 18.8496C41.1194 18.7626 41.1757 18.6803 41.2372 18.6031ZM51.4792 20.8496C49.939 18.1829 46.0933 18.183 44.5532 20.8498C44.5089 20.9265 44.46 20.9995 44.4069 21.0686L15.1533 71.7396L15.1532 71.7398C13.6144 74.4045 15.5386 77.7396 18.6213 77.7396H77.3913C80.4739 77.7396 82.3982 74.4045 80.8593 71.7398L80.8592 71.7396L51.4793 20.8498L51.4792 20.8496ZM48.0012 32.7598C49.1058 32.7598 50.0012 33.6552 50.0012 34.7598V56.9698C50.0012 58.0743 49.1058 58.9698 48.0012 58.9698C46.8966 58.9698 46.0012 58.0743 46.0012 56.9698V34.7598C46.0012 33.6552 46.8966 32.7598 48.0012 32.7598ZM51.0012 67.2397C51.0012 68.8966 49.6581 70.2397 48.0012 70.2397C46.3444 70.2397 45.0012 68.8966 45.0012 67.2397C45.0012 65.5829 46.3444 64.2397 48.0012 64.2397C49.6581 64.2397 51.0012 65.5829 51.0012 67.2397Z" fill="var(--spectrum-global-color-gray-800, #292929)"/>
</svg>
