<svg width="48" height="48" viewBox="0 0 48 48" xmlns="http://www.w3.org/2000/svg">
<path fill-rule="evenodd" d="M25.5304 8.18994C21.3659 8.18994 17.8269 10.7604 16.213 14.3991C15.6498 14.2636 15.062 14.1899 14.4604 14.1899C10.0897 14.1899 6.64039 17.871 6.64039 22.2999C6.64039 22.5503 6.65175 22.7983 6.67365 23.0433C4.28075 24.183 2.65039 26.6752 2.65039 29.5399C2.65039 33.4031 5.6295 36.6279 9.4401 36.6898L9.46039 36.6899H27.2004C27.8907 36.6899 28.4504 36.1303 28.4504 35.4399C28.4504 34.7496 27.8907 34.1899 27.2004 34.1899H9.47123C7.12598 34.1466 5.15039 32.1333 5.15039 29.5399C5.15039 27.3635 6.5545 25.5835 8.40578 25.0513C9.0397 24.869 9.42292 24.2256 9.2812 23.5814C9.18973 23.1656 9.14039 22.7357 9.14039 22.2999C9.14039 19.1488 11.5711 16.6899 14.4604 16.6899C15.1604 16.6899 15.8434 16.8412 16.468 17.1089C16.7936 17.2484 17.1631 17.2433 17.4847 17.0947C17.8063 16.946 18.0497 16.668 18.1545 16.3295C19.1771 13.0258 22.1163 10.6899 25.5304 10.6899C29.7593 10.6899 33.2804 14.2884 33.2804 18.8399V18.8404V18.8408V18.8412V18.8416V18.842V18.8424V18.8428V18.8432V18.8436V18.844V18.8444V18.8448V18.8453V18.8457V18.8461V18.8465V18.8469V18.8473V18.8477V18.8481V18.8485V18.8489V18.8493V18.8497V18.8501V18.8505V18.8509V18.8513V18.8517V18.8521V18.8526V18.853V18.8534V18.8538V18.8542V18.8546V18.855V18.8554V18.8558V18.8562V18.8566V18.857V18.8574V18.8578V18.8582V18.8586V18.859V18.8594V18.8598V18.8602V18.8606V18.861V18.8614V18.8618V18.8622V18.8626V18.863V18.8634V18.8638V18.8642V18.8646V18.865V18.8654V18.8658V18.8662V18.8666V18.867V18.8674V18.8677V18.8681V18.8685V18.8689V18.8693V18.8697V18.8701V18.8705V18.8709V18.8713V18.8717V18.8721V18.8725V18.8729V18.8733V18.8737V18.8741V18.8745V18.8749V18.8753V18.8756V18.876V18.8764V18.8768V18.8772V18.8776V18.878V18.8784V18.8788V18.8792V18.8796V18.88V18.8804V18.8807V18.8811V18.8815V18.8819V18.8823V18.8827V18.8831V18.8835V18.8839V18.8843V18.8847V18.885V18.8854V18.8858V18.8862V18.8866V18.887V18.8874V18.8878V18.8882V18.8885V18.8889V18.8893V18.8897V18.8901V18.8905V18.8909V18.8913V18.8917V18.892V18.8924V18.8928V18.8932V18.8936V18.894V18.8944V18.8948V18.8951V18.8955V18.8959V18.8963V18.8967V18.8971V18.8975V18.8978V18.8982V18.8986V18.899V18.8994V18.8998V18.9002V18.9006V18.9009V18.9013V18.9017V18.9021V18.9025V18.9029V18.9032V18.9036V18.904V18.9044V18.9048V18.9052V18.9056V18.9059V18.9063V18.9067V18.9071V18.9075V18.9079V18.9082V18.9086V18.909V18.9094V18.9098V18.9102V18.9105V18.9109V18.9113V18.9117V18.9121V18.9125V18.9128V18.9132V18.9136V18.914V18.9144V18.9148V18.9151V18.9155V18.9159V18.9163V18.9167V18.9171V18.9174V18.9178V18.9182V18.9186V18.919V18.9194V18.9197V18.9201V18.9205V18.9209V18.9213V18.9216V18.922V18.9224V18.9228V18.9232V18.9236V18.9239V18.9243V18.9247V18.9251V18.9255V18.9258V18.9262V18.9266V18.927V18.9274V18.9277V18.9281V18.9285V18.9289V18.9293V18.9297V18.93V18.9304V18.9308V18.9312V18.9316V18.9319V18.9323V18.9327V18.9331V18.9335V18.9338V18.9342V18.9346V18.935V18.9354V18.9358V18.9361V18.9365V18.9369V18.9373V18.9377V18.938V18.9384V18.9388V18.9392V18.9396V18.9399V18.9403V18.9407V18.9411V18.9415V18.9418V18.9422V18.9426V18.943V18.9434V18.9438V18.9441V18.9445V18.9449V18.9453V18.9457V18.946V18.9464V18.9468V18.9472V18.9476V18.9479V18.9483V18.9487V18.9491V18.9495V18.9498V18.9502V18.9506V18.951V18.9514V18.9518V18.9521V18.9525V18.9529V18.9533V18.9537V18.954V18.9544V18.9548V18.9552V18.9556V18.9559V18.9563V18.9567V18.9571V18.9575V18.9579V18.9582V18.9586V18.959V18.9594V18.9598V18.9601V18.9605V18.9609V18.9613V18.9617V18.9621V18.9624V18.9628V18.9632V18.9636V18.964V18.9644V18.9647V18.9651V18.9655V18.9659V18.9663V18.9667V18.967V18.9674V18.9678V18.9682V18.9686V18.969V18.9693V18.9697V18.9701V18.9705V18.9709V18.9713V18.9716V18.972V18.9724V18.9728V18.9732V18.9736V18.9739V18.9743V18.9747V18.9751V18.9755V18.9759V18.9763V18.9766V18.977V18.9774V18.9778V18.9782V18.9786V18.9789V18.9793V18.9797V18.9801V18.9805V18.9809V18.9813V18.9816V18.982V18.9824V18.9828V18.9832V18.9836V18.984V18.9844V18.9847V18.9851V18.9855V18.9859V18.9863V18.9867V18.9871V18.9875V18.9878V18.9882V18.9886V18.989V18.9894V18.9898V18.9902V18.9906V18.9909V18.9913V18.9917V18.9921V18.9925V18.9929V18.9933V18.9937V18.9941V18.9945V18.9948V18.9952V18.9956V18.996V18.9964V18.9968V18.9972V18.9976V18.998V18.9984V18.9987V18.9991V18.9995V18.9999V19.0003V19.0007V19.0011V19.0015V19.0019V19.0023V19.0027V19.0031V19.0035V19.0038V19.0042V19.0046V19.005V19.0054V19.0058V19.0062V19.0066V19.007V19.0074V19.0078V19.0082V19.0086V19.009V19.0094V19.0098V19.0102V19.0106V19.0109V19.0113V19.0117V19.0121V19.0125V19.0129V19.0133V19.0137V19.0141V19.0145V19.0149V19.0153V19.0157V19.0161V19.0165V19.0169V19.0173V19.0177V19.0181V19.0185V19.0189V19.0193V19.0197V19.0201V19.0205V19.0209V19.0213V19.0217V19.0221V19.0225V19.0229V19.0233V19.0237V19.0241V19.0245V19.0249V19.0253V19.0257V19.0261V19.0265V19.0269V19.0273V19.0277V19.0281V19.0285V19.0289V19.0294V19.0298V19.0302V19.0306V19.031V19.0314V19.0318V19.0322V19.0326V19.033V19.0334V19.0338V19.0342V19.0346V19.035V19.0354V19.0359V19.0363V19.0367V19.0371V19.0375V19.0379V19.0383V19.0387V19.0391V19.0395V19.0399C33.2804 19.7011 33.7952 20.2479 34.4551 20.2877C36.1165 20.3879 37.6149 21.1212 38.7271 22.284C39.2043 22.7829 39.9955 22.8004 40.4944 22.3232C40.9933 21.8461 41.0109 21.0548 40.5337 20.5559C39.2605 19.2249 37.6027 18.2901 35.7436 17.9345C35.3026 12.5205 30.9429 8.18994 25.5304 8.18994ZM28.9404 30.9799C28.9404 26.7999 32.3304 23.4099 36.5104 23.4099C40.6904 23.4099 44.0804 26.7999 44.0804 30.9799C44.0804 35.1599 40.6904 38.5499 36.5104 38.5499C32.3304 38.5499 28.9404 35.1599 28.9404 30.9799ZM39.9004 34.3699C40.3904 33.8799 40.3904 33.0899 39.9004 32.5999H39.9204L38.3004 30.9799L39.9204 29.3599C40.4104 28.8699 40.4104 28.0799 39.9204 27.5899C39.4304 27.0999 38.6404 27.0999 38.1504 27.5899L36.5304 29.2099L34.9104 27.5899C34.4204 27.0999 33.6304 27.0999 33.1404 27.5899C32.6504 28.0799 32.6504 28.8699 33.1404 29.3599L34.7604 30.9799L33.1404 32.5999C32.6504 33.0899 32.6504 33.8799 33.1404 34.3699C33.3804 34.6199 33.7004 34.7399 34.0204 34.7399C34.3404 34.7399 34.6604 34.6099 34.9004 34.3699L36.5204 32.7499L38.1404 34.3699C38.3804 34.6199 38.7004 34.7399 39.0204 34.7399C39.3404 34.7399 39.6604 34.6099 39.9004 34.3699Z" fill="var(--spectrum-global-color-gray-800, #292929)"/>
</svg>
