<svg width="96" height="96" viewBox="0 0 96 96" xmlns="http://www.w3.org/2000/svg">
<path fill-rule="evenodd" d="M30.0909 16C25.1156 16 21 19.9501 21 24.9231V71.0769C21 76.0499 25.1156 80 30.0909 80H67.9091C72.8844 80 77 76.0499 77 71.0769V43.9446C77 41.5623 76.0303 39.2877 74.3203 37.6182L54.8377 18.5967C53.1293 16.9288 50.8223 16 48.4265 16H30.0909ZM25 24.9231C25 22.249 27.2338 20 30.0909 20H48.4265C49.7919 20 51.0921 20.53 52.0433 21.4588L71.5259 40.4802C72.4756 41.4074 73 42.6545 73 43.9446V71.0769C73 73.751 70.7662 76 67.9091 76H30.0909C27.2338 76 25 73.751 25 71.0769V24.9231ZM35.8787 43.9356C36.1978 43.7203 36.5823 43.5946 36.9961 43.5946H48.9951H60.9933C62.0978 43.5946 62.9933 44.49 62.9933 45.5946L62.9932 45.6058V50.3941C62.9932 51.4986 62.0978 52.3941 60.9932 52.3941C59.8887 52.3941 58.9932 51.4986 58.9932 50.3941V47.5946H50.9951V67.5918H53.7941C54.8987 67.5918 55.7941 68.4872 55.7941 69.5918C55.7941 70.6963 54.8987 71.5918 53.7941 71.5918H48.9951H44.1953C43.0907 71.5918 42.1953 70.6963 42.1953 69.5918C42.1953 68.4872 43.0907 67.5918 44.1953 67.5918H46.9951V47.5946H38.9961V50.3941C38.9961 51.4986 38.1007 52.3941 36.9961 52.3941C35.8915 52.3941 34.9961 51.4986 34.9961 50.3941V45.5946C34.9961 45.3185 35.0521 45.0554 35.1533 44.8161C35.3052 44.4569 35.5591 44.1513 35.8787 43.9356Z" fill="var(--spectrum-global-color-gray-800, #292929)"/>
</svg>
