<svg width="48" height="48" viewBox="0 0 48 48" xmlns="http://www.w3.org/2000/svg">
<path fill-rule="evenodd" d="M6.74609 9C6.74609 6.65736 8.64303 4.75 10.9911 4.75H20.7161C21.803 4.75 22.86 5.1658 23.652 5.92853L23.6536 5.93005L33.4356 15.3022C34.2709 16.102 34.7461 17.2077 34.7461 18.37V25.745C34.7461 26.4354 34.1864 26.995 33.4961 26.995C32.8057 26.995 32.2461 26.4354 32.2461 25.745V18.745H23.6811C21.8994 18.745 20.2461 17.4037 20.2461 15.505V7.25H10.9911C10.0292 7.25 9.24609 8.03264 9.24609 9V32.995C9.24609 33.9624 10.0292 34.745 10.9911 34.745H22.9961C23.6865 34.745 24.2461 35.3046 24.2461 35.995C24.2461 36.6854 23.6865 37.245 22.9961 37.245H10.9911C8.64303 37.245 6.74609 35.3376 6.74609 32.995V9ZM22.7461 8.5228L30.806 16.245H23.6811C23.0528 16.245 22.7461 15.8062 22.7461 15.505V8.5228ZM33.3672 43.2451C37.4403 43.2451 40.7422 39.9432 40.7422 35.8701C40.7422 31.797 37.4403 28.4951 33.3672 28.4951C29.2941 28.4951 25.9922 31.797 25.9922 35.8701C25.9922 39.9432 29.2941 43.2451 33.3672 43.2451ZM34.7422 32.4948C34.7422 31.8044 34.1825 31.2448 33.4922 31.2448C32.8018 31.2448 32.2422 31.8044 32.2422 32.4948V34.7448H29.9922C29.3018 34.7448 28.7422 35.3044 28.7422 35.9948C28.7422 36.6851 29.3018 37.2448 29.9922 37.2448H32.2422V39.4948C32.2422 40.1851 32.8018 40.7448 33.4922 40.7448C34.1825 40.7448 34.7422 40.1851 34.7422 39.4948V37.2448H36.9922C37.6825 37.2448 38.2422 36.6851 38.2422 35.9948C38.2422 35.3044 37.6825 34.7448 36.9922 34.7448H34.7422V32.4948Z" fill="var(--spectrum-global-color-gray-800, #292929)"/>
</svg>
