<svg width="48" height="48" viewBox="0 0 48 48" xmlns="http://www.w3.org/2000/svg">
<path fill-rule="evenodd" d="M11.2926 15.7078C10.8378 14.0103 11.8451 12.2656 13.5425 11.8108L28.5802 7.78147C30.3139 7.31691 32.096 8.3458 32.5606 10.0796L33.9856 15.3978C34.1643 16.0646 33.7686 16.7501 33.1017 16.9287C32.4349 17.1074 31.7495 16.7117 31.5708 16.0449L30.1458 10.7266C30.0386 10.3265 29.6273 10.0891 29.2272 10.1963L14.1895 14.2256C13.8258 14.3231 13.6099 14.697 13.7074 15.0607L13.7977 15.3978C13.9764 16.0646 13.5807 16.7501 12.9138 16.9287C12.247 17.1074 11.5616 16.7117 11.3829 16.0449L11.2926 15.7078ZM9 17.8307C7.75736 17.8307 6.75 18.8381 6.75 20.0807V38.0807C6.75 39.3234 7.75736 40.3307 9 40.3307H34C36.8995 40.3307 39.25 37.9802 39.25 35.0807V34.067C40.375 33.9426 41.25 32.9888 41.25 31.8307V26.3307C41.25 25.1726 40.375 24.2188 39.25 24.0944V23.0807C39.25 20.1812 36.8995 17.8307 34 17.8307H9ZM36.75 24.0807V23.0807C36.75 21.5619 35.5188 20.3307 34 20.3307H9.25V37.8307H34C35.5188 37.8307 36.75 36.5995 36.75 35.0807V34.0807H31C29.7574 34.0807 28.75 33.0734 28.75 31.8307V26.3307C28.75 25.0881 29.7574 24.0807 31 24.0807H36.75ZM31.25 31.5807V26.5807H38.75V31.5807H31.25ZM34 30.7057C34.8284 30.7057 35.5 30.0341 35.5 29.2057C35.5 28.3773 34.8284 27.7057 34 27.7057C33.1716 27.7057 32.5 28.3773 32.5 29.2057C32.5 30.0341 33.1716 30.7057 34 30.7057Z" fill="var(--spectrum-global-color-gray-800, #292929)"/>
</svg>
