<svg width="96" height="96" viewBox="0 0 96 96" xmlns="http://www.w3.org/2000/svg">
<path fill-rule="evenodd" d="M56.3093 16.8301C50.0807 16.8301 44.8193 22.2473 44.8193 29.1998C44.8193 36.1523 50.0807 41.5695 56.3093 41.5695C62.5378 41.5695 67.7992 36.1523 67.7992 29.1998C67.7992 22.2473 62.5378 16.8301 56.3093 16.8301ZM40.8193 29.1998C40.8193 20.28 47.6373 12.8301 56.3093 12.8301C64.9813 12.8301 71.7992 20.28 71.7992 29.1998C71.7992 38.1196 64.9813 45.5695 56.3093 45.5695C47.6373 45.5695 40.8193 38.1196 40.8193 29.1998ZM38.3967 16.9466C39.4893 16.7845 40.2437 15.7675 40.0817 14.6748C39.9196 13.5822 38.9026 12.8278 37.8099 12.9898C30.1891 14.1199 24.4903 21.0324 24.4903 29.1999C24.4903 37.3955 30.2289 44.3283 37.8892 45.4216C38.9827 45.5777 39.9957 44.8177 40.1517 43.7242C40.3078 42.6307 39.5479 41.6178 38.4544 41.4617C32.9244 40.6725 28.4903 35.5702 28.4903 29.1999C28.4903 22.8521 32.8938 17.7626 38.3967 16.9466ZM32.9211 53.6376C33.9805 53.325 34.586 52.2128 34.2734 51.1534C33.9609 50.094 32.8487 49.4885 31.7893 49.8011C21.4762 52.8437 13.4362 61.4031 11.154 72.0116C10.2596 76.1692 13.3686 80.1684 17.69 80.1684H20.9181C22.0226 80.1684 22.9181 79.2729 22.9181 78.1684C22.9181 77.0638 22.0226 76.1684 20.9181 76.1684H17.69C15.9819 76.1684 14.6921 74.5839 15.0645 72.8529C17.0358 63.6898 23.9993 56.2697 32.9211 53.6376ZM31.3077 72.8527C33.7836 61.3438 44.1214 52.6077 56.3088 52.6077C68.4962 52.6077 78.8341 61.3438 81.31 72.8527L83.2653 72.4321L81.31 72.8527C81.6824 74.5837 80.3926 76.1682 78.6845 76.1682H56.3088H33.9331C32.2251 76.1682 30.9352 74.5837 31.3077 72.8527ZM56.3088 48.6077C42.185 48.6077 30.2585 58.7105 27.3971 72.0114C26.5027 76.169 29.6117 80.1682 33.9331 80.1682H56.3088H78.6845C83.0059 80.1682 86.115 76.169 85.2205 72.0114C82.3591 58.7105 70.4327 48.6077 56.3088 48.6077Z" fill="var(--spectrum-global-color-gray-800, #292929)"/>
</svg>
