<svg width="96" height="96" viewBox="0 0 96 96" xmlns="http://www.w3.org/2000/svg">
<path fill-rule="evenodd" d="M22 24C18.6846 24 16 26.6846 16 30V34.04H80V30C80 26.6846 77.3154 24 74 24H22ZM16 66V38.04H26.0195V72H22C18.6846 72 16 69.3154 16 66ZM59.11 72H30.0195V38.04H80V50.96C80 52.0646 80.8954 52.96 82 52.96C83.1046 52.96 84 52.0646 84 50.96V30C84 24.4754 79.5246 20 74 20H22C16.4754 20 12 24.4754 12 30V66C12 71.5246 16.4754 76 22 76H59.11C60.2146 76 61.11 75.1046 61.11 74C61.11 72.8954 60.2146 72 59.11 72ZM63.6104 69.39C63.6104 61.72 69.8304 55.5 77.5004 55.5C85.1703 55.5 91.3904 61.72 91.3904 69.39C91.3904 77.06 85.1703 83.28 77.5004 83.28C69.8304 83.28 63.6104 77.06 63.6104 69.39ZM79.5004 71.36H84.2304C85.3304 71.36 86.2304 70.46 86.2304 69.36C86.2304 68.26 85.3304 67.36 84.2304 67.36H79.5004V62.63C79.5004 61.53 78.6003 60.63 77.5004 60.63C76.4004 60.63 75.5004 61.53 75.5004 62.63V67.36H70.7703C69.6703 67.36 68.7703 68.26 68.7703 69.36C68.7703 70.46 69.6703 71.36 70.7703 71.36H75.5004V76.09C75.5004 77.19 76.4004 78.09 77.5004 78.09C78.6003 78.09 79.5004 77.19 79.5004 76.09V71.36Z" fill="var(--spectrum-global-color-gray-800, #292929)"/>
</svg>
