<svg width="160" height="160" viewBox="0 0 160 160" xmlns="http://www.w3.org/2000/svg">
<path fill-rule="evenodd" d="M24 63.5762C24 42.8655 40.7893 26.0762 61.5 26.0762C82.2107 26.0762 99 42.8655 99 63.5762C99 84.2868 82.2107 101.076 61.5 101.076C40.7893 101.076 24 84.2868 24 63.5762ZM61.5 18.0762C36.371 18.0762 16 38.4472 16 63.5762C16 88.7051 36.371 109.076 61.5 109.076C72.6243 109.076 82.8162 105.084 90.7211 98.4542L94.7037 102.437L92.4019 104.739C90.8398 106.301 90.8398 108.833 92.4019 110.395L121.909 139.903C126.281 144.275 133.369 144.275 137.741 139.903C142.113 135.531 142.113 128.443 137.741 124.071L108.234 94.5637C106.672 93.0016 104.139 93.0016 102.577 94.5637L100.361 96.7799L96.378 92.7973C103.008 84.8924 107 74.7005 107 63.5762C107 38.4472 86.629 18.0762 61.5 18.0762ZM105.405 103.049L100.887 107.567L127.566 134.246C128.814 135.494 130.836 135.494 132.084 134.246C133.332 132.998 133.332 130.975 132.084 129.728L105.405 103.049Z" fill="var(--spectrum-global-color-gray-800, #292929)"/>
</svg>
