<svg width="96" height="96" viewBox="0 0 96 96" xmlns="http://www.w3.org/2000/svg">
<path fill-rule="evenodd" d="M77.5526 7.31577C81.0816 4.06255 86.6922 7.30609 85.6414 11.9862L84.2388 18.222L84.2381 18.225C84.174 18.5078 84.2539 18.808 84.4517 19.0224L88.7821 23.7215C92.0353 27.2506 88.7921 32.8616 84.112 31.8107L77.8732 30.4074C77.5905 30.3434 77.2902 30.4233 77.0758 30.621L72.3767 34.9515C68.8477 38.2052 63.2366 34.9616 64.2875 30.2814L65.6908 24.0425C65.7549 23.7598 65.675 23.4596 65.4772 23.2452L61.1468 18.546C57.8935 15.017 61.1367 9.40598 65.8168 10.4569L72.0557 11.8602C72.3384 11.9242 72.6386 11.8443 72.8531 11.6465L77.5526 7.31577ZM81.7387 11.1091C81.9305 10.2523 80.9056 9.66497 80.2636 10.2569L75.5649 14.5869C74.3846 15.6751 72.7407 16.1161 71.1735 15.7617L71.1718 15.7613L64.9405 14.3597C64.0837 14.1679 63.4956 15.1926 64.0875 15.8346L68.4176 20.5333C69.5057 21.7136 69.9468 23.3574 69.5924 24.9245L69.5919 24.9264L68.1903 31.1577C67.9986 32.0146 69.0233 32.6026 69.6653 32.0107L74.3639 27.6807C75.5439 26.5928 77.1873 26.1517 78.754 26.5056L80.2362 18.8596L80.2367 18.8652L78.757 26.5063L84.9884 27.9079C85.8452 28.0996 86.4333 27.0749 85.8413 26.433L81.5113 21.7343C80.7741 20.9347 80.3337 19.9221 80.2367 18.8652L81.7183 11.2144L80.2362 18.8596C80.1908 18.358 80.2226 17.8464 80.3366 17.3427L80.3369 17.3412L81.7387 11.1091Z" fill="var(--spectrum-global-color-gray-800, #292929)"/>
<path d="M57.767 45.296L62.1623 46.2864C63.89 46.6768 65.0901 44.602 63.8864 43.2972L60.8321 39.9863C60.4309 39.5489 60.2683 38.9453 60.3984 38.3633L61.3888 33.9681C61.7791 32.2403 59.7044 31.0403 58.3995 32.2439L55.0886 35.2982C54.6512 35.6994 54.0476 35.8621 53.4657 35.732L49.0704 34.7416C47.3426 34.3512 46.1426 36.4259 47.3463 37.7308L50.4005 41.0417C50.8018 41.4791 50.9644 42.0827 50.8343 42.6647L49.8439 47.0599C49.4535 48.7877 51.5283 49.9877 52.8331 48.7841L56.1441 45.7298C56.5814 45.3286 57.185 45.1659 57.767 45.296Z" fill="var(--spectrum-global-color-gray-800, #292929)"/>
<path d="M37.1378 21.5022C25.2163 18.3078 12.9625 25.3826 9.76815 37.3041C7.6555 45.1886 10.0343 53.222 15.3414 58.6819L15.5204 53.9437C15.5622 52.8399 16.4908 51.979 17.5945 52.0207C18.6983 52.0624 19.5593 52.991 19.5176 54.0948L19.1568 63.6423C19.1161 64.7192 18.2295 65.5702 17.1518 65.5668L7.25564 65.5353C6.15108 65.5318 5.2585 64.6335 5.26201 63.529C5.26552 62.4244 6.16379 61.5318 7.26836 61.5353L12.5538 61.5521C6.2454 55.117 3.40196 45.6082 5.90444 36.2688C9.67056 22.2134 24.1177 13.8724 38.1731 17.6385C44.2715 19.2726 49.2981 22.9211 52.7225 27.6737C53.3682 28.5698 53.1651 29.8198 52.269 30.4655C51.3728 31.1112 50.1228 30.9082 49.4771 30.012C46.5719 25.9799 42.3136 22.8891 37.1378 21.5022Z" fill="var(--spectrum-global-color-gray-800, #292929)"/>
<path fill-rule="evenodd" d="M83.6396 50.2627C83.6396 46.949 80.9533 44.2627 77.6396 44.2627H69.5768C68.4722 44.2627 67.5768 43.3673 67.5768 42.2627C67.5768 41.1581 68.4722 40.2627 69.5768 40.2627H77.6396C83.1625 40.2627 87.6396 44.7398 87.6396 50.2627V79.2108C87.6396 84.7336 83.1625 89.2108 77.6396 89.2108H34.0345C28.5117 89.2108 24.0345 84.7336 24.0345 79.2108V50.2627C24.0345 44.7398 28.5117 40.2627 34.0345 40.2627H43.0456C44.1502 40.2627 45.0456 41.1581 45.0456 42.2627C45.0456 43.3673 44.1502 44.2627 43.0456 44.2627H34.0345C30.7208 44.2627 28.0345 46.949 28.0345 50.2627V79.2108C28.0345 79.8341 28.1296 80.4353 28.306 81.0005L40.6749 61.8914C42.8256 58.5652 47.6977 58.5652 49.8483 61.8914L59.8827 77.3912L65.5327 68.8488L65.541 68.8362C67.7053 65.6171 72.448 65.6098 74.6112 68.8359L74.6136 68.8394L83.177 81.525C83.475 80.8129 83.6396 80.031 83.6396 79.2108V50.2627ZM44.0334 64.0641L30.9122 84.3354C31.8218 84.8908 32.8908 85.2108 34.0345 85.2108H54.7108L57.4747 81.032L46.4893 64.0633C45.9147 63.1746 44.6081 63.1754 44.0334 64.0641ZM80.3896 84.5449C79.5658 84.9705 78.6308 85.2108 77.6396 85.2108H59.5065L68.8639 71.063C69.4487 70.2003 70.7162 70.208 71.2897 71.0647L71.294 71.0711L80.3896 84.5449Z" fill="var(--spectrum-global-color-gray-800, #292929)"/>
<path d="M67.2343 54.125C67.2343 55.7819 68.5775 57.125 70.2343 57.125C71.8912 57.125 73.2343 55.7819 73.2343 54.125C73.2343 52.4681 71.8912 51.125 70.2343 51.125C68.5775 51.125 67.2343 52.4681 67.2343 54.125Z" fill="var(--spectrum-global-color-gray-800, #292929)"/>
</svg>
