<svg width="96" height="96" viewBox="0 0 96 96" xmlns="http://www.w3.org/2000/svg">
<path fill-rule="evenodd" d="M50.9692 17.6992C42.9411 17.6992 36.1081 22.7305 33.113 29.8475C31.9428 29.5356 30.7162 29.3692 29.4492 29.3692C21.2127 29.3692 14.6892 36.3184 14.6892 44.6992C14.6892 45.2785 14.7217 45.8466 14.7837 46.4044C10.1404 48.483 6.94922 53.2613 6.94922 58.7692C6.94922 66.0531 12.5684 72.1094 19.7158 72.2289L19.7492 72.2292H54.5992C55.7038 72.2292 56.5992 71.3338 56.5992 70.2292C56.5992 69.1247 55.7038 68.2292 54.5992 68.2292H19.7669C14.9613 68.14 10.9492 64.0196 10.9492 58.7692C10.9492 54.3453 13.8028 50.7099 17.5781 49.6324C18.5992 49.341 19.2146 48.3024 18.9797 47.2668C18.791 46.4349 18.6892 45.5832 18.6892 44.6992C18.6892 38.36 23.5857 33.3692 29.4492 33.3692C30.8976 33.3692 32.2675 33.6699 33.524 34.2143C34.0461 34.4406 34.6398 34.4337 35.1566 34.1955C35.6733 33.9573 36.0641 33.5102 36.2311 32.9663C38.2554 26.3741 44.1307 21.6992 50.9692 21.6992C59.4433 21.6992 66.4592 28.9006 66.4592 37.9692V37.97V37.9707V37.9715V37.9723V37.973V37.9738V37.9746V37.9753V37.9761V37.9768V37.9776V37.9784V37.9791V37.9799V37.9806V37.9814V37.9822V37.9829V37.9837V37.9845V37.9852V37.986V37.9867V37.9875V37.9883V37.989V37.9898V37.9905V37.9913V37.9921V37.9928V37.9936V37.9944V37.9951V37.9959V37.9966V37.9974V37.9982V37.9989V37.9997V38.0005V38.0012V38.002V38.0027V38.0035V38.0043V38.005V38.0058V38.0065V38.0073V38.0081V38.0088V38.0096V38.0104V38.0111V38.0119V38.0126V38.0134V38.0142V38.0149V38.0157V38.0164V38.0172V38.018V38.0187V38.0195V38.0203V38.021V38.0218V38.0225V38.0233V38.0241V38.0248V38.0256V38.0263V38.0271V38.0279V38.0286V38.0294V38.0302V38.0309V38.0317V38.0324V38.0332V38.034V38.0347V38.0355V38.0363V38.037V38.0378V38.0385V38.0393V38.0401V38.0408V38.0416V38.0423V38.0431V38.0439V38.0446V38.0454V38.0462V38.0469V38.0477V38.0484V38.0492V38.05V38.0507V38.0515V38.0522V38.053V38.0538V38.0545V38.0553V38.0561V38.0568V38.0576V38.0583V38.0591V38.0599V38.0606V38.0614V38.0621V38.0629V38.0637V38.0644V38.0652V38.066V38.0667V38.0675V38.0682V38.069V38.0698V38.0705V38.0713V38.0721V38.0728V38.0736V38.0743V38.0751V38.0759V38.0766V38.0774V38.0781V38.0789V38.0797V38.0804V38.0812V38.082V38.0827V38.0835V38.0842V38.085V38.0858V38.0865V38.0873V38.088V38.0888V38.0896V38.0903V38.0911V38.0919V38.0926V38.0934V38.0941V38.0949V38.0957V38.0964V38.0972V38.0979V38.0987V38.0995V38.1002V38.101V38.1018V38.1025V38.1033V38.104V38.1048V38.1056V38.1063V38.1071V38.1079V38.1086V38.1094V38.1101V38.1109V38.1117V38.1124V38.1132V38.1139V38.1147V38.1155V38.1162V38.117V38.1178V38.1185V38.1193V38.12V38.1208V38.1216V38.1223V38.1231V38.1238V38.1246V38.1254V38.1261V38.1269V38.1277V38.1284V38.1292V38.1299V38.1307V38.1315V38.1322V38.133V38.1338V38.1345V38.1353V38.136V38.1368V38.1376V38.1383V38.1391V38.1398V38.1406V38.1414V38.1421V38.1429V38.1437V38.1444V38.1452V38.1459V38.1467V38.1475V38.1482V38.149V38.1497V38.1505V38.1513V38.152V38.1528V38.1536V38.1543V38.1551V38.1558V38.1566V38.1574V38.1581V38.1589V38.1596V38.1604V38.1612V38.1619V38.1627V38.1635V38.1642V38.165V38.1657V38.1665V38.1673V38.168V38.1688V38.1696V38.1703V38.1711V38.1718V38.1726V38.1734V38.1741V38.1749V38.1756V38.1764V38.1772V38.1779V38.1787V38.1795V38.1802V38.181V38.1817V38.1825V38.1833V38.184V38.1848V38.1855V38.1863V38.1871V38.1878V38.1886V38.1894V38.1901V38.1909V38.1916V38.1924V38.1932V38.1939V38.1947V38.1954V38.1962V38.197V38.1977V38.1985V38.1993V38.2V38.2008V38.2015V38.2023V38.2031V38.2038V38.2046V38.2054V38.2061V38.2069V38.2076V38.2084V38.2092V38.2099V38.2107V38.2114V38.2122V38.213V38.2137V38.2145V38.2153V38.216V38.2168V38.2175V38.2183V38.2191V38.2198V38.2206V38.2213V38.2221V38.2229V38.2236V38.2244V38.2252V38.2259V38.2267V38.2274V38.2282V38.229V38.2297V38.2305V38.2313V38.232V38.2328V38.2335V38.2343V38.2351V38.2358V38.2366V38.2373V38.2381V38.2389V38.2396V38.2404V38.2412V38.2419V38.2427V38.2434V38.2442V38.245V38.2457V38.2465V38.2472V38.248V38.2488V38.2495V38.2503V38.2511V38.2518V38.2526V38.2533V38.2541V38.2549V38.2556V38.2564V38.2571V38.2579V38.2587V38.2594V38.2602V38.261V38.2617V38.2625V38.2632V38.264V38.2648V38.2655V38.2663V38.267V38.2678V38.2686V38.2693V38.2701V38.2709V38.2716V38.2724V38.2731V38.2739V38.2747V38.2754V38.2762V38.277V38.2777V38.2785V38.2792V38.28V38.2808V38.2815V38.2823V38.283V38.2838V38.2846V38.2853V38.2861V38.2869V38.2876V38.2884V38.2891V38.2899V38.2907V38.2914V38.2922V38.2929V38.2937V38.2945V38.2952V38.296V38.2968V38.2975V38.2983V38.299V38.2998V38.3006V38.3013V38.3021V38.3029V38.3036V38.3044V38.3051V38.3059V38.3067V38.3074V38.3082V38.3089V38.3097V38.3105V38.3112V38.312V38.3128V38.3135V38.3143V38.315V38.3158V38.3166V38.3173V38.3181V38.3188V38.3196V38.3204V38.3211V38.3219V38.3227V38.3234V38.3242V38.3249V38.3257V38.3265V38.3272V38.328V38.3288V38.3295V38.3303V38.331V38.3318V38.3326V38.3333V38.3341V38.3348V38.3356V38.3364V38.3371V38.3379V38.3387V38.3394V38.3402V38.3409V38.3417V38.3425V38.3432V38.344V38.3447V38.3455V38.3463V38.347V38.3478V38.3486V38.3493V38.3501V38.3508V38.3516V38.3524V38.3531V38.3539V38.3546V38.3554V38.3562V38.3569V38.3577V38.3585V38.3592C66.4592 39.4182 67.2846 40.2936 68.3418 40.3558C71.8561 40.5625 75.0128 42.2066 77.2958 44.7695C78.0305 45.5943 79.2947 45.6673 80.1195 44.9326C80.9443 44.1979 81.0173 42.9337 80.2826 42.1089C77.739 39.2534 74.3055 37.2389 70.4135 36.573C69.7255 26.1009 61.3573 17.6992 50.9692 17.6992ZM57.5986 61.5692C57.5986 53.4392 64.1886 46.8492 72.3186 46.8492C80.4486 46.8492 87.0386 53.4392 87.0386 61.5692C87.0386 69.6992 80.4486 76.2892 72.3186 76.2892C64.1886 76.2892 57.5986 69.6992 57.5986 61.5692ZM72.3186 52.6092C71.2186 52.6092 70.3186 53.5092 70.3186 54.6092V62.2892C70.3186 63.3892 71.2186 64.2892 72.3186 64.2892C73.4186 64.2892 74.3186 63.3892 74.3186 62.2892V54.6092C74.3186 53.5092 73.4186 52.6092 72.3186 52.6092ZM74.2986 69.3492C74.3586 69.2192 74.3986 69.0892 74.4286 68.9492L74.4287 68.9491C74.4486 68.8091 74.4686 68.6692 74.4686 68.5292C74.4686 68.3893 74.4486 68.2494 74.4287 68.1094L74.4286 68.1092C74.3986 67.9692 74.3586 67.8392 74.2986 67.7092C74.2486 67.5792 74.1786 67.4492 74.1086 67.3292C74.0286 67.2192 73.9386 67.1092 73.8386 67.0092C73.7386 66.9092 73.6286 66.8192 73.5086 66.7392C73.3987 66.6593 73.2687 66.5993 73.1388 66.5393L73.1386 66.5392C73.0086 66.4892 72.8786 66.4492 72.7386 66.4192C72.4586 66.3692 72.1786 66.3692 71.8986 66.4192C71.7586 66.4492 71.6286 66.4892 71.4986 66.5392L71.4985 66.5393C71.3685 66.5993 71.2386 66.6593 71.1286 66.7392C71.0086 66.8192 70.8986 66.9092 70.7986 67.0092C70.6986 67.1092 70.6086 67.2192 70.5286 67.3292C70.4487 67.4492 70.3887 67.5792 70.3287 67.7092L70.3286 67.7092C70.2786 67.8392 70.2386 67.9692 70.2086 68.1092C70.1686 68.2492 70.1686 68.3892 70.1686 68.5292C70.1686 68.6692 70.1786 68.8092 70.2086 68.9492C70.2386 69.0892 70.2786 69.2192 70.3286 69.3492L70.3287 69.3493C70.3887 69.4793 70.4487 69.6093 70.5286 69.7192C70.6086 69.8392 70.6986 69.9492 70.7986 70.0492C70.8986 70.1492 71.0086 70.2392 71.1286 70.3192C71.2386 70.3892 71.3686 70.4592 71.4986 70.5092C71.6286 70.5692 71.7586 70.6092 71.8986 70.6392C72.0386 70.6792 72.1786 70.6792 72.3186 70.6792C72.4586 70.6792 72.5986 70.6692 72.7386 70.6392C72.8786 70.6092 73.0086 70.5692 73.1386 70.5092C73.2686 70.4592 73.3986 70.3892 73.5086 70.3192C73.6286 70.2392 73.7386 70.1492 73.8386 70.0492C73.9386 69.9492 74.0286 69.8392 74.1086 69.7192C74.1786 69.6092 74.2486 69.4792 74.2986 69.3492Z" fill="var(--spectrum-global-color-gray-800, #292929)"/>
</svg>
