<svg width="96" height="96" viewBox="0 0 96 96" xmlns="http://www.w3.org/2000/svg">
<path fill-rule="evenodd" d="M81 50C82.1046 50 83 49.1046 83 48C83 46.8954 82.1046 46 81 46H18C17.9395 46 17.8796 46.0027 17.8205 46.0079L28.4142 35.4142C29.1953 34.6332 29.1953 33.3668 28.4142 32.5858C27.6332 31.8047 26.3668 31.8047 25.5858 32.5858L11.5858 46.5858C10.8047 47.3668 10.8047 48.6332 11.5858 49.4142L25.5858 63.4142C26.3668 64.1953 27.6332 64.1953 28.4142 63.4142C29.1953 62.6332 29.1953 61.3668 28.4142 60.5858L17.8205 49.9921C17.8796 49.9973 17.9395 50 18 50H81ZM16.0079 48.1795C16.0027 48.1204 16 48.0605 16 48C16 47.9395 16.0027 47.8796 16.0079 47.8205L15.8284 48L16.0079 48.1795Z" fill="var(--spectrum-global-color-gray-800, #292929)"/>
</svg>
