<svg width="160" height="160" viewBox="0 0 160 160" xmlns="http://www.w3.org/2000/svg">
<path fill-rule="evenodd" d="M108 28C108 25.7909 109.791 24 112 24H132C134.209 24 136 25.7909 136 28V72C136 74.2091 134.209 76 132 76H112C109.791 76 108 74.2091 108 72V28ZM112 16C105.373 16 100 21.3726 100 28V72C100 78.6274 105.373 84 112 84H132C138.627 84 144 78.6274 144 72V28C144 21.3726 138.627 16 132 16H112ZM102 108C104.209 108 106 109.791 106 112V132C106 134.209 104.209 136 102 136H58C55.7909 136 54 134.209 54 132V112C54 109.791 55.7909 108 58 108H102ZM114 112C114 105.373 108.627 100 102 100H58C51.3726 100 46 105.373 46 112V132C46 138.627 51.3726 144 58 144H102C108.627 144 114 138.627 114 132V112ZM31.9704 75.94C29.7447 75.94 27.9404 77.7443 27.9404 79.97C27.9404 82.1957 29.7447 84 31.9704 84C34.1961 84 36.0004 82.1957 36.0004 79.97C36.0004 77.7443 34.1961 75.94 31.9704 75.94ZM19.9404 79.97C19.9404 74.7173 23.3069 70.2509 28 68.6106V43.3294C23.3069 41.6891 19.9404 37.2227 19.9404 31.97C19.9404 25.326 25.3264 19.94 31.9704 19.94C37.2233 19.94 41.6898 23.3067 43.33 28H68.6109C70.251 23.3067 74.7176 19.94 79.9704 19.94C86.6144 19.94 92.0004 25.326 92.0004 31.97C92.0004 37.2006 88.6622 41.6516 84 43.3085V58.48C84 60.6891 82.2091 62.48 80 62.48C77.7909 62.48 76 60.6891 76 58.48V43.3294C72.5698 42.1305 69.8484 39.4219 68.632 36H43.3088C42.0995 39.4022 39.4023 42.0993 36 43.3085V68.6315C39.4223 69.8478 42.1311 72.5695 43.33 76H58.6398C60.849 76 62.6398 77.7909 62.6398 80C62.6398 82.2091 60.849 84 58.6398 84H43.3088C41.6517 88.662 37.2009 92 31.9704 92C25.3264 92 19.9404 86.614 19.9404 79.97ZM27.9404 31.97C27.9404 29.7443 29.7447 27.94 31.9704 27.94C34.1961 27.94 36.0004 29.7443 36.0004 31.97C36.0004 34.1957 34.1961 36 31.9704 36C29.7447 36 27.9404 34.1957 27.9404 31.97ZM79.9704 27.94C77.7447 27.94 75.9404 29.7443 75.9404 31.97C75.9404 34.1957 77.7447 36 79.9704 36C82.1961 36 84.0004 34.1957 84.0004 31.97C84.0004 29.7443 82.1961 27.94 79.9704 27.94ZM74.5101 91.59L66.2501 71.47H66.2401C64.8901 68.18 68.1701 64.9 71.4601 66.25L91.5701 74.52C94.8201 75.85 94.8901 80.44 91.6801 81.87L86.2901 84.28C85.3901 84.68 84.6701 85.4 84.2701 86.3L81.8601 91.7C80.4301 94.91 75.8501 94.84 74.5101 91.59Z" fill="var(--spectrum-global-color-gray-800, #292929)"/>
</svg>
