<svg width="48" height="48" viewBox="0 0 48 48" xmlns="http://www.w3.org/2000/svg">
<path fill-rule="evenodd" d="M16.75 13.75C16.75 9.60786 20.1079 6.25 24.25 6.25C28.3921 6.25 31.75 9.60786 31.75 13.75C31.75 14.4404 31.1904 15 30.5 15C29.8096 15 29.25 14.4404 29.25 13.75C29.25 10.9886 27.0114 8.75 24.25 8.75C21.4886 8.75 19.25 10.9886 19.25 13.75V19.25H34C36.8995 19.25 39.25 21.6005 39.25 24.5V35C39.25 37.8995 36.8995 40.25 34 40.25H14C11.1005 40.25 8.75 37.8995 8.75 35V24.5C8.75 21.6005 11.1005 19.25 14 19.25H16.75V13.75ZM22.75 29.6655C22.0027 29.2333 21.5 28.4254 21.5 27.5C21.5 26.1193 22.6193 25 24 25C25.3807 25 26.5 26.1193 26.5 27.5C26.5 28.4254 25.9973 29.2333 25.25 29.6655V32.5C25.25 33.1904 24.6904 33.75 24 33.75C23.3096 33.75 22.75 33.1904 22.75 32.5V29.6655ZM11.25 24.5C11.25 22.9812 12.4812 21.75 14 21.75H34C35.5188 21.75 36.75 22.9812 36.75 24.5V35C36.75 36.5188 35.5188 37.75 34 37.75H14C12.4812 37.75 11.25 36.5188 11.25 35V24.5Z" fill="var(--spectrum-global-color-gray-800, #292929)"/>
</svg>
