<svg width="48" height="49" viewBox="0 0 48 49" xmlns="http://www.w3.org/2000/svg">
<path fill-rule="evenodd" d="M8.5 24.6807C9.19036 24.6807 9.75 25.2403 9.75 25.9307L9.75 34.7542C9.75 36.1038 10.8326 37.1807 12.1471 37.1807L35.8529 37.1807C37.1674 37.1807 38.25 36.1038 38.25 34.7542L38.25 25.9307C38.25 25.2403 38.8096 24.6807 39.5 24.6807C40.1904 24.6807 40.75 25.2403 40.75 25.9307L40.75 34.7542C40.75 37.4655 38.567 39.6807 35.8529 39.6807L12.1471 39.6807C9.43304 39.6807 7.25 37.4655 7.25 34.7542L7.25 25.9307C7.25 25.2403 7.80964 24.6807 8.5 24.6807ZM24 33.4346C23.3096 33.4346 22.75 32.8749 22.75 32.1846L22.75 13.6037L17.8839 18.4698C17.3957 18.958 16.6043 18.958 16.1161 18.4698C15.628 17.9817 15.628 17.1902 16.1161 16.7021L23.1161 9.70205C23.6043 9.2139 24.3957 9.2139 24.8839 9.70205L31.8839 16.7021C32.372 17.1902 32.372 17.9817 31.8839 18.4698C31.3957 18.958 30.6043 18.958 30.1161 18.4698L25.25 13.6037L25.25 32.1846C25.25 32.8749 24.6904 33.4346 24 33.4346Z" fill="var(--spectrum-global-color-gray-800, #292929)"/>
</svg>
