<svg width="96" height="96" viewBox="0 0 96 96" xmlns="http://www.w3.org/2000/svg">
<path fill-rule="evenodd" d="M45.3103 13.0391C42.1773 13.0391 39.5665 15.4516 39.3262 18.5757L39.3261 18.5759L38.7936 25.5076C36.7937 26.3253 34.9288 27.4017 33.2412 28.6941L26.9852 25.6506L26.9816 25.6489C24.1719 24.2888 20.7645 25.2988 19.1823 28.022L19.1803 28.0255L16.4669 32.6642L16.4653 32.6669C14.8718 35.3761 15.6582 38.8494 18.2179 40.6307L18.2207 40.6327L23.926 44.5883C23.7684 45.708 23.6903 46.8498 23.6903 48.0091C23.6903 49.1769 23.7748 50.3139 23.9306 51.4266L18.2223 55.3843L18.221 55.3853L18.2207 55.3855C15.6394 57.1726 14.8779 60.6397 16.4639 63.3489L16.4644 63.3498L19.1839 67.9989L19.1869 68.0039C20.7726 70.6967 24.1593 71.7354 26.9816 70.3693L26.9852 70.3675L33.2412 67.3241C34.9288 68.6164 36.7937 69.6928 38.7936 70.5105L39.3261 77.4423L39.3262 77.4425C39.5665 80.5665 42.1773 82.9791 45.3103 82.9791H50.6903C53.8232 82.9791 56.4341 80.5665 56.6744 77.4425L56.6744 77.4423L57.2069 70.5105C59.2068 69.6928 61.0717 68.6164 62.7593 67.3241L69.0153 70.3675L69.0189 70.3693C71.8286 71.7293 75.2361 70.7193 76.8182 67.9961L76.8202 67.9926L79.5336 63.3539L79.5351 63.3515C81.1288 60.6423 80.3424 57.1687 77.7827 55.3874L77.7798 55.3855L72.0745 51.4298C72.2321 50.3101 72.3103 49.1683 72.3103 48.0091C72.3103 46.8412 72.2257 45.7042 72.07 44.5915L77.7782 40.6338C80.3608 38.847 81.1229 35.379 79.5366 32.6692L79.5361 32.6684L76.8166 28.0192L76.8136 28.0142C75.2279 25.3214 71.8412 24.2827 69.0189 25.6489L69.0153 25.6506L62.7593 28.6941C61.0717 27.4017 59.2068 26.3253 57.2069 25.5076L56.6744 18.5759L56.6744 18.5757C56.4341 15.4516 53.8232 13.0391 50.6903 13.0391H45.3103ZM43.3144 18.8825L43.3144 18.8823C43.3942 17.8465 44.2633 17.0391 45.3103 17.0391H50.6903C51.7373 17.0391 52.6065 17.8465 52.6861 18.8825L53.3161 27.0823C53.3772 27.8765 53.9037 28.5588 54.6565 28.8192C57.0754 29.6558 59.2866 30.9385 61.1893 32.5681C61.7942 33.0862 62.6489 33.196 63.3652 32.8475L70.7616 29.2493L70.7631 29.2485C71.6998 28.7961 72.8313 29.1367 73.3657 30.042L73.3669 30.0439L76.0839 34.6889L76.0844 34.6898C76.6174 35.5999 76.3594 36.7513 75.5023 37.3443L75.5007 37.3455L68.7507 42.0255C68.1005 42.4763 67.7771 43.2681 67.9259 44.0452C68.1741 45.3411 68.3103 46.655 68.3103 48.0091C68.3103 49.3735 68.1821 50.6919 67.9291 51.9568C67.7728 52.7385 68.0956 53.5384 68.7507 53.9927L75.4978 58.6707L75.5001 58.6722C76.3578 59.2708 76.6108 60.4345 76.0869 61.3242L76.0839 61.3292L73.3639 65.9792L73.3603 65.9855C72.8418 66.8793 71.7117 67.228 70.7628 66.7694L70.7616 66.7689L63.3652 63.1706C62.649 62.8222 61.7942 62.9319 61.1893 63.45C59.2866 65.0796 57.0754 66.3623 54.6565 67.1989C53.9037 67.4593 53.3772 68.1416 53.3161 68.9359L52.6861 77.1357C52.6065 78.1716 51.7373 78.9791 50.6903 78.9791H45.3103C44.2633 78.9791 43.3942 78.1717 43.3144 77.1359L43.3144 77.1357L42.6844 68.9359C42.6234 68.1416 42.0968 67.4593 41.344 67.1989C38.9251 66.3623 36.7139 65.0796 34.8112 63.45C34.2063 62.9319 33.3516 62.8222 32.6353 63.1706L25.2389 66.7689L25.2377 66.7694C24.301 67.2221 23.1694 66.8815 22.6349 65.9763L22.6336 65.9742L19.9166 61.3292L19.9161 61.3284C19.3831 60.4183 19.6411 59.2668 20.4982 58.6738L20.4998 58.6727L27.2498 53.9927C27.9001 53.5418 28.2234 52.75 28.0746 51.9729C27.8264 50.677 27.6903 49.3631 27.6903 48.0091C27.6903 46.6446 27.8184 45.3262 28.0714 44.0613C28.2278 43.2796 27.9049 42.4797 27.2498 42.0255L20.5027 37.3474L20.5017 37.3468C19.643 36.7484 19.3894 35.5841 19.9136 34.6939L19.9166 34.6889L22.6366 30.0389L22.6402 30.0326C23.1587 29.139 24.2886 28.7902 25.2374 29.2485L25.2389 29.2493L32.6353 32.8475C33.3516 33.196 34.2063 33.0862 34.8112 32.5681C36.7139 30.9385 38.9251 29.6558 41.344 28.8192C42.0968 28.5588 42.6234 27.8765 42.6844 27.0823L43.3144 18.8825ZM42.7892 48.0191C42.7892 45.1417 45.1218 42.8091 47.9992 42.8091C50.8766 42.8091 53.2092 45.1417 53.2092 48.0191C53.2092 50.8965 50.8766 53.2291 47.9992 53.2291C45.1218 53.2291 42.7892 50.8965 42.7892 48.0191ZM47.9992 38.8091C42.9126 38.8091 38.7892 42.9325 38.7892 48.0191C38.7892 53.1056 42.9126 57.2291 47.9992 57.2291C53.0857 57.2291 57.2092 53.1056 57.2092 48.0191C57.2092 42.9325 53.0857 38.8091 47.9992 38.8091Z" fill="var(--spectrum-global-color-gray-800, #292929)"/>
</svg>
