<svg width="48" height="48" viewBox="0 0 48 48" xmlns="http://www.w3.org/2000/svg">
<path fill-rule="evenodd" d="M8.8125 19.0371C8.8125 13.3762 13.4016 8.78711 19.0625 8.78711C24.7234 8.78711 29.3125 13.3762 29.3125 19.0371C29.3125 24.698 24.7234 29.2871 19.0625 29.2871C13.4016 29.2871 8.8125 24.698 8.8125 19.0371ZM19.0625 6.28711C12.0209 6.28711 6.3125 11.9955 6.3125 19.0371C6.3125 26.0787 12.0209 31.7871 19.0625 31.7871C22.1172 31.7871 24.921 30.7129 27.1167 28.9216L27.9961 29.801L27.4617 30.3354C26.9736 30.8236 26.9736 31.615 27.4617 32.1032L36.0262 40.6677C37.289 41.9305 39.3364 41.9305 40.5992 40.6677C41.862 39.4049 41.862 37.3574 40.5992 36.0946L32.0348 27.5302C31.5466 27.042 30.7552 27.042 30.267 27.5302L29.7639 28.0333L28.8906 27.1599C30.7157 24.9541 31.8125 22.1237 31.8125 19.0371C31.8125 11.9955 26.1041 6.28711 19.0625 6.28711ZM31.1509 30.1818L30.1134 31.2193L37.794 38.8999C38.0805 39.1864 38.545 39.1864 38.8315 38.8999C39.118 38.6134 39.118 38.1489 38.8315 37.8624L31.1509 30.1818ZM24.1964 13.9032C23.7082 13.4151 22.9168 13.4151 22.4286 13.9032L19.0625 17.2693L15.6964 13.9032C15.2082 13.4151 14.4168 13.4151 13.9286 13.9032C13.4405 14.3914 13.4405 15.1828 13.9286 15.671L17.2947 19.0371L13.9286 22.4032C13.4405 22.8914 13.4405 23.6828 13.9286 24.171C14.4168 24.6591 15.2082 24.6591 15.6964 24.171L19.0625 20.8049L22.4286 24.171C22.9168 24.6591 23.7082 24.6591 24.1964 24.171C24.6845 23.6828 24.6845 22.8914 24.1964 22.4032L20.8303 19.0371L24.1964 15.671C24.6845 15.1828 24.6845 14.3914 24.1964 13.9032Z" fill="var(--spectrum-global-color-gray-800, #292929)"/>
</svg>
