<svg width="160" height="160" viewBox="0 0 160 160" xmlns="http://www.w3.org/2000/svg">
<path fill-rule="evenodd" d="M28.907 120.099C22.6586 113.85 22.6586 103.72 28.907 97.4711L97.4711 28.907C103.72 22.6586 113.85 22.6586 120.099 28.907L131.093 39.9017C137.342 46.1501 137.342 56.2808 131.093 62.5291L62.5291 131.093C56.2808 137.342 46.1501 137.342 39.9017 131.093L28.907 120.099ZM34.5639 103.128C31.4397 106.252 31.4397 111.317 34.5638 114.442L45.5586 125.436C48.6828 128.561 53.7481 128.561 56.8723 125.436L125.436 56.8723C128.561 53.7481 128.561 48.6828 125.436 45.5586L114.442 34.5639C111.317 31.4397 106.252 31.4397 103.128 34.5638L97.3399 40.352L105.032 48.0443C106.594 49.6064 106.594 52.139 105.032 53.7011C103.47 55.2632 100.937 55.2632 99.3753 53.7011L91.683 46.0088L80.2291 57.4628L92.5731 69.8068C94.1352 71.3689 94.1352 73.9016 92.5731 75.4637C91.011 77.0258 88.4783 77.0258 86.9162 75.4637L74.5722 63.1196L63.1191 74.5727L70.8106 82.2642C72.3727 83.8263 72.3727 86.359 70.8106 87.9211C69.2485 89.4832 66.7158 89.4832 65.1537 87.9211L57.4623 80.2296L46.0087 91.6831L58.3523 104.027C59.9144 105.589 59.9144 108.122 58.3523 109.684C56.7902 111.246 54.2576 111.246 52.6955 109.684L40.3518 97.34L34.5639 103.128Z" fill="var(--spectrum-global-color-gray-800, #292929)"/>
</svg>
