<svg width="96" height="96" viewBox="0 0 96 96" xmlns="http://www.w3.org/2000/svg">
<path fill-rule="evenodd" d="M50.9702 17.7C42.9421 17.7 36.109 22.7312 33.114 29.8482C31.9438 29.5363 30.7171 29.37 29.4502 29.37C21.2137 29.37 14.6902 36.3191 14.6902 44.7C14.6902 45.2793 14.7226 45.8474 14.7846 46.4052C10.1414 48.4837 6.9502 53.262 6.9502 58.77C6.9502 66.0539 12.5694 72.1102 19.7168 72.2297L19.7502 72.23H54.6002C55.7048 72.23 56.6002 71.3345 56.6002 70.23C56.6002 69.1254 55.7048 68.23 54.6002 68.23H19.7679C14.9622 68.1407 10.9502 64.0203 10.9502 58.77C10.9502 54.346 13.8038 50.7107 17.5791 49.6332C18.6002 49.3417 19.2155 48.3031 18.9807 47.2676C18.792 46.4356 18.6902 45.584 18.6902 44.7C18.6902 38.3608 23.5867 33.37 29.4502 33.37C30.8986 33.37 32.2685 33.6706 33.525 34.2151C34.0471 34.4413 34.6408 34.4345 35.1575 34.1962C35.6743 33.958 36.0651 33.511 36.2321 32.967C38.2563 26.3748 44.1317 21.7 50.9702 21.7C59.4442 21.7 66.4602 28.9013 66.4602 37.97V37.9707V37.9715V37.9722V37.973V37.9738V37.9745V37.9753V37.976V37.9768V37.9776V37.9783V37.9791V37.9799V37.9806V37.9814V37.9821V37.9829V37.9837V37.9844V37.9852V37.9859V37.9867V37.9875V37.9882V37.989V37.9898V37.9905V37.9913V37.992V37.9928V37.9936V37.9943V37.9951V37.9958V37.9966V37.9974V37.9981V37.9989V37.9997V38.0004V38.0012V38.0019V38.0027V38.0035V38.0042V38.005V38.0058V38.0065V38.0073V38.008V38.0088V38.0096V38.0103V38.0111V38.0118V38.0126V38.0134V38.0141V38.0149V38.0157V38.0164V38.0172V38.0179V38.0187V38.0195V38.0202V38.021V38.0217V38.0225V38.0233V38.024V38.0248V38.0256V38.0263V38.0271V38.0278V38.0286V38.0294V38.0301V38.0309V38.0317V38.0324V38.0332V38.0339V38.0347V38.0355V38.0362V38.037V38.0377V38.0385V38.0393V38.04V38.0408V38.0416V38.0423V38.0431V38.0438V38.0446V38.0454V38.0461V38.0469V38.0476V38.0484V38.0492V38.0499V38.0507V38.0515V38.0522V38.053V38.0537V38.0545V38.0553V38.056V38.0568V38.0575V38.0583V38.0591V38.0598V38.0606V38.0614V38.0621V38.0629V38.0636V38.0644V38.0652V38.0659V38.0667V38.0675V38.0682V38.069V38.0697V38.0705V38.0713V38.072V38.0728V38.0735V38.0743V38.0751V38.0758V38.0766V38.0774V38.0781V38.0789V38.0796V38.0804V38.0812V38.0819V38.0827V38.0834V38.0842V38.085V38.0857V38.0865V38.0873V38.088V38.0888V38.0895V38.0903V38.0911V38.0918V38.0926V38.0933V38.0941V38.0949V38.0956V38.0964V38.0972V38.0979V38.0987V38.0994V38.1002V38.101V38.1017V38.1025V38.1033V38.104V38.1048V38.1055V38.1063V38.1071V38.1078V38.1086V38.1093V38.1101V38.1109V38.1116V38.1124V38.1132V38.1139V38.1147V38.1154V38.1162V38.117V38.1177V38.1185V38.1192V38.12V38.1208V38.1215V38.1223V38.1231V38.1238V38.1246V38.1253V38.1261V38.1269V38.1276V38.1284V38.1292V38.1299V38.1307V38.1314V38.1322V38.133V38.1337V38.1345V38.1352V38.136V38.1368V38.1375V38.1383V38.1391V38.1398V38.1406V38.1413V38.1421V38.1429V38.1436V38.1444V38.1451V38.1459V38.1467V38.1474V38.1482V38.149V38.1497V38.1505V38.1512V38.152V38.1528V38.1535V38.1543V38.155V38.1558V38.1566V38.1573V38.1581V38.1589V38.1596V38.1604V38.1611V38.1619V38.1627V38.1634V38.1642V38.165V38.1657V38.1665V38.1672V38.168V38.1688V38.1695V38.1703V38.171V38.1718V38.1726V38.1733V38.1741V38.1749V38.1756V38.1764V38.1771V38.1779V38.1787V38.1794V38.1802V38.1809V38.1817V38.1825V38.1832V38.184V38.1848V38.1855V38.1863V38.187V38.1878V38.1886V38.1893V38.1901V38.1908V38.1916V38.1924V38.1931V38.1939V38.1947V38.1954V38.1962V38.1969V38.1977V38.1985V38.1992V38.2V38.2008V38.2015V38.2023V38.203V38.2038V38.2046V38.2053V38.2061V38.2068V38.2076V38.2084V38.2091V38.2099V38.2107V38.2114V38.2122V38.2129V38.2137V38.2145V38.2152V38.216V38.2167V38.2175V38.2183V38.219V38.2198V38.2206V38.2213V38.2221V38.2228V38.2236V38.2244V38.2251V38.2259V38.2267V38.2274V38.2282V38.2289V38.2297V38.2305V38.2312V38.232V38.2327V38.2335V38.2343V38.235V38.2358V38.2366V38.2373V38.2381V38.2388V38.2396V38.2404V38.2411V38.2419V38.2426V38.2434V38.2442V38.2449V38.2457V38.2465V38.2472V38.248V38.2487V38.2495V38.2503V38.251V38.2518V38.2525V38.2533V38.2541V38.2548V38.2556V38.2564V38.2571V38.2579V38.2586V38.2594V38.2602V38.2609V38.2617V38.2625V38.2632V38.264V38.2647V38.2655V38.2663V38.267V38.2678V38.2685V38.2693V38.2701V38.2708V38.2716V38.2724V38.2731V38.2739V38.2746V38.2754V38.2762V38.2769V38.2777V38.2784V38.2792V38.28V38.2807V38.2815V38.2823V38.283V38.2838V38.2845V38.2853V38.2861V38.2868V38.2876V38.2883V38.2891V38.2899V38.2906V38.2914V38.2922V38.2929V38.2937V38.2944V38.2952V38.296V38.2967V38.2975V38.2983V38.299V38.2998V38.3005V38.3013V38.3021V38.3028V38.3036V38.3043V38.3051V38.3059V38.3066V38.3074V38.3082V38.3089V38.3097V38.3104V38.3112V38.312V38.3127V38.3135V38.3142V38.315V38.3158V38.3165V38.3173V38.3181V38.3188V38.3196V38.3203V38.3211V38.3219V38.3226V38.3234V38.3242V38.3249V38.3257V38.3264V38.3272V38.328V38.3287V38.3295V38.3302V38.331V38.3318V38.3325V38.3333V38.3341V38.3348V38.3356V38.3363V38.3371V38.3379V38.3386V38.3394V38.3401V38.3409V38.3417V38.3424V38.3432V38.344V38.3447V38.3455V38.3462V38.347V38.3478V38.3485V38.3493V38.35V38.3508V38.3516V38.3523V38.3531V38.3539V38.3546V38.3554V38.3561V38.3569V38.3577V38.3584V38.3592V38.36C66.4602 39.4189 67.2856 40.2943 68.3428 40.3565C71.8571 40.5632 75.0138 42.2073 77.2968 44.7703C78.0315 45.595 79.2957 45.6681 80.1205 44.9334C80.9453 44.1987 81.0183 42.9344 80.2836 42.1096C77.74 39.2541 74.3065 37.2396 70.4145 36.5737C69.7264 26.1016 61.3583 17.7 50.9702 17.7ZM57.5996 61.57C57.5996 53.44 64.1896 46.85 72.3196 46.85C80.4496 46.85 87.0396 53.44 87.0396 61.57C87.0396 69.7 80.4496 76.29 72.3196 76.29C64.1896 76.29 57.5996 69.7 57.5996 61.57ZM72.3196 52.61C71.2196 52.61 70.3196 53.51 70.3196 54.61V62.29C70.3196 63.39 71.2196 64.29 72.3196 64.29C73.4196 64.29 74.3196 63.39 74.3196 62.29V54.61C74.3196 53.51 73.4196 52.61 72.3196 52.61ZM74.2996 69.35C74.3596 69.22 74.3996 69.09 74.4296 68.95L74.4296 68.9498C74.4496 68.8099 74.4696 68.6699 74.4696 68.53C74.4696 68.39 74.4496 68.2501 74.4296 68.1101L74.4296 68.11C74.3996 67.97 74.3596 67.84 74.2996 67.71C74.2496 67.58 74.1796 67.45 74.1096 67.33C74.0296 67.22 73.9396 67.11 73.8396 67.01C73.7396 66.91 73.6296 66.82 73.5096 66.74C73.3997 66.66 73.2697 66.6 73.1397 66.54L73.1396 66.54C73.0096 66.49 72.8796 66.45 72.7396 66.42C72.4596 66.37 72.1796 66.37 71.8996 66.42C71.7596 66.45 71.6296 66.49 71.4996 66.54L71.4995 66.54C71.3695 66.6 71.2396 66.66 71.1296 66.74C71.0096 66.82 70.8996 66.91 70.7996 67.01C70.6996 67.11 70.6096 67.22 70.5296 67.33C70.4496 67.45 70.3896 67.5799 70.3297 67.7099L70.3296 67.71C70.2796 67.84 70.2396 67.97 70.2096 68.11C70.1696 68.25 70.1696 68.39 70.1696 68.53C70.1696 68.67 70.1796 68.81 70.2096 68.95C70.2396 69.09 70.2796 69.22 70.3296 69.35L70.3297 69.3501C70.3896 69.48 70.4496 69.61 70.5296 69.72C70.6096 69.84 70.6996 69.95 70.7996 70.05C70.8996 70.15 71.0096 70.24 71.1296 70.32C71.2396 70.39 71.3696 70.46 71.4996 70.51C71.6296 70.57 71.7596 70.61 71.8996 70.64C72.0396 70.68 72.1796 70.68 72.3196 70.68C72.4596 70.68 72.5996 70.67 72.7396 70.64C72.8796 70.61 73.0096 70.57 73.1396 70.51C73.2696 70.46 73.3996 70.39 73.5096 70.32C73.6296 70.24 73.7396 70.15 73.8396 70.05C73.9396 69.95 74.0296 69.84 74.1096 69.72C74.1796 69.61 74.2496 69.48 74.2996 69.35Z" fill="var(--spectrum-global-color-gray-800, #292929)"/>
</svg>
