<svg width="160" height="160" viewBox="0 0 160 160" xmlns="http://www.w3.org/2000/svg">
<path fill-rule="evenodd" d="M20.1158 58.1637C18.5952 38.9705 32.3347 21.9879 51.994 22C64.0666 22.0074 74.5512 28.7394 80 38.6583C85.4488 28.7394 95.9333 22.0074 108.006 22C127.665 21.9879 141.405 38.9674 139.884 58.1608C138.565 74.8134 129.041 92.0223 118.497 106.184C107.885 120.438 95.7993 132.186 88.5504 137.991C83.539 142.004 76.4366 142.003 71.4259 137.989C64.1798 132.184 52.1005 120.436 41.4934 106.183C30.9545 92.0221 21.435 74.8146 20.1158 58.1637ZM51.9891 30C37.546 29.9911 26.8943 42.4301 28.0908 57.5319C29.229 71.8972 37.6422 87.6085 47.9113 101.407C58.1121 115.114 69.7159 126.368 76.4277 131.745C78.5155 133.418 81.4618 133.418 83.55 131.746C90.2645 126.369 101.874 115.115 112.08 101.407C122.354 87.6072 130.772 71.895 131.909 57.5291C133.105 42.4279 122.454 29.9911 108.011 30C94.7885 30.0082 84.0121 40.8342 84.0121 54.2619C84.0121 54.5157 83.9879 54.7686 83.9401 55.0173C83.9354 55.0436 83.929 55.0784 83.9211 55.1175C83.5437 56.9898 81.8953 58.334 79.9854 58.3271C78.0754 58.3201 76.4369 56.9638 76.0732 55.0888C76.0674 55.0591 76.0625 55.0321 76.0588 55.0108C76.0118 54.7642 75.988 54.5135 75.988 54.2619C75.988 40.8342 65.2115 30.0081 51.9891 30ZM76.048 54.9471L76.0483 54.9486C76.0477 54.9454 76.0473 54.943 76.048 54.9471Z" fill="var(--spectrum-global-color-gray-800, #292929)"/>
</svg>
