<svg width="96" height="96" viewBox="0 0 96 96" xmlns="http://www.w3.org/2000/svg">
<path fill-rule="evenodd" d="M36.3902 29.5C36.3902 22.4752 41.7056 17 48.0002 17C54.2948 17 59.6102 22.4752 59.6102 29.5C59.6102 36.5248 54.2948 42 48.0002 42C41.7056 42 36.3902 36.5248 36.3902 29.5ZM48.0002 13C39.2616 13 32.3902 20.5085 32.3902 29.5C32.3902 38.4915 39.2616 46 48.0002 46C56.7388 46 63.6102 38.4915 63.6102 29.5C63.6102 20.5085 56.7388 13 48.0002 13ZM23.0106 73.5976C25.1058 61.7214 35.5836 52.5901 48.001 52.5901C60.4172 52.5901 70.8954 61.7301 72.9912 73.5965C73.2077 74.8419 72.2579 75.9601 71.021 75.9601H48.001H24.981C23.737 75.9601 22.7898 74.8271 23.0095 73.6036L23.0106 73.5976ZM48.001 48.5901C33.5994 48.5901 21.4979 59.1572 19.0719 72.8996C18.4138 76.5749 21.246 79.9601 24.981 79.9601H48.001H71.021C74.7634 79.9601 77.5733 76.5795 76.9311 72.9057L76.9305 72.9023C74.5058 59.1694 62.4042 48.5901 48.001 48.5901Z" fill="var(--spectrum-global-color-gray-800, #292929)"/>
</svg>
