<svg width="160" height="160" viewBox="0 0 160 160" xmlns="http://www.w3.org/2000/svg">
<path fill-rule="evenodd" d="M63.1003 23.2909C79.6454 17.8653 97.3836 19.6776 108.92 24.8826C132.579 35.5565 140.39 58.4951 136.932 78.1466C133.503 97.6314 118.605 115.17 96.0634 113.611C75.3052 112.175 64.1626 104.304 59.6514 94.0014C55.31 84.0866 57.7217 73.2019 61.2309 66.7207C71.2388 48.2367 89.0283 47.0424 98.1632 47.8771C102.661 48.2881 105.43 52.3403 105.06 56.357L100.527 105.652C115.652 104.746 126.318 92.3015 129.053 76.76C131.989 60.0773 125.404 41.0957 105.63 32.1748C95.9146 27.7913 80.2393 26.0898 65.5931 30.8926C51.1852 35.6174 37.748 46.6291 31.9434 67.9334C27.3455 84.8087 32.7174 100.968 43.0562 112.943C53.4561 124.989 68.5362 132.391 82.647 131.984C84.8552 131.92 86.6969 133.659 86.7606 135.867C86.8242 138.075 85.0857 139.917 82.8775 139.981C65.9548 140.469 48.6863 131.706 37.0008 118.171C25.254 104.565 18.8036 85.7274 24.2247 65.8304C30.7847 41.7538 46.3168 28.7947 63.1003 23.2909ZM92.5309 105.243L97.0765 55.8128C89.1317 55.1589 75.8803 56.4664 68.2659 70.5297C65.5595 75.5283 63.9034 83.767 66.9797 90.7926C69.6681 96.9323 76.5093 103.285 92.5309 105.243Z" fill="var(--spectrum-global-color-gray-800, #292929)"/>
</svg>
