<svg width="48" height="48" viewBox="0 0 48 48" xmlns="http://www.w3.org/2000/svg">
<path fill-rule="evenodd" d="M11.75 12.4841C11.75 11.2384 12.7638 10.2246 14.0095 10.2246H34.0428C35.2885 10.2246 36.3023 11.2384 36.3023 12.4841V26.4987C36.3023 27.1891 36.8619 27.7487 37.5523 27.7487C38.2426 27.7487 38.8023 27.1891 38.8023 26.4987V12.4841C38.8023 9.85767 36.6692 7.72461 34.0428 7.72461H14.0095C11.3831 7.72461 9.25 9.85767 9.25 12.4841V26.9987C9.25 35.1557 15.8725 41.7749 24.0261 41.7749C24.7139 41.7749 25.3914 41.7277 26.0555 41.6363C26.7394 41.5421 27.2175 40.9114 27.1233 40.2275C27.0291 39.5436 26.3984 39.0655 25.7145 39.1596C25.1631 39.2356 24.5995 39.2749 24.0261 39.2749C17.2528 39.2749 11.75 33.7746 11.75 26.9987V12.4841ZM28.9806 18.443L28.9803 18.4425C28.0487 16.8283 25.7197 16.8284 24.7883 18.4429L24.7883 18.443L21.1151 24.8097L21.115 24.8098C20.1852 26.4219 21.3444 28.4391 23.2097 28.4391H30.5621C32.4273 28.4391 33.5866 26.4219 32.6568 24.8098L32.6565 24.8093L28.9806 18.443ZM30.422 25.9391L26.8844 19.8124L23.3497 25.9391H30.422ZM23.2805 26.059L23.2806 26.0589L23.2097 26.018L22.1978 25.4344L23.2097 26.0182L23.2805 26.059ZM20.5018 19.0347C21.0996 19.38 21.3043 20.1445 20.9591 20.7423L16.8735 27.8169C16.5282 28.4147 15.7637 28.6194 15.1659 28.2742C14.5681 27.9289 14.3633 27.1644 14.7086 26.5666L18.7942 19.4921C19.1394 18.8942 19.9039 18.6895 20.5018 19.0347ZM35.375 43.75C39.4481 43.75 42.75 40.4481 42.75 36.375C42.75 32.3019 39.4481 29 35.375 29C31.3019 29 28 32.3019 28 36.375C28 40.4481 31.3019 43.75 35.375 43.75ZM36.75 33C36.75 32.3096 36.1904 31.75 35.5 31.75C34.8096 31.75 34.25 32.3096 34.25 33V35.25H32C31.3096 35.25 30.75 35.8096 30.75 36.5C30.75 37.1904 31.3096 37.75 32 37.75H34.25V40C34.25 40.6904 34.8096 41.25 35.5 41.25C36.1904 41.25 36.75 40.6904 36.75 40V37.75H39C39.6904 37.75 40.25 37.1904 40.25 36.5C40.25 35.8096 39.6904 35.25 39 35.25H36.75V33Z" fill="var(--spectrum-global-color-gray-800, #292929)"/>
</svg>
