<svg width="160" height="160" viewBox="0 0 160 160" xmlns="http://www.w3.org/2000/svg">
<path fill-rule="evenodd" d="M80.04 19.9299C82.2492 19.9299 84.04 21.7208 84.04 23.9299V29.9499C84.04 32.1591 82.2492 33.9499 80.04 33.9499C77.8309 33.9499 76.04 32.1591 76.04 29.9499V23.9299C76.04 21.7208 77.8309 19.9299 80.04 19.9299ZM83.2695 53.5C81.0604 53.5 79.2695 55.2909 79.2695 57.5C79.2695 59.7091 81.0604 61.5 83.2695 61.5C88.9716 61.5 93.1695 65.7935 93.1695 70.58C93.1695 72.7891 94.9604 74.58 97.1695 74.58C99.3787 74.58 101.17 72.7891 101.17 70.58C101.17 60.9265 92.9275 53.5 83.2695 53.5ZM63 118V108.234C63 106.057 61.6745 103.728 59.259 101.839C51.1903 95.5282 46 85.6194 46 74.5C46 55.5088 61.1602 40 80 40C98.8398 40 114 55.5088 114 74.5C114 85.6194 108.81 95.5282 100.741 101.839C98.3255 103.728 97 106.057 97 108.234V118V128C97 132.418 93.4183 136 89 136H71C66.5817 136 63 132.418 63 128V118ZM89 114V108.234C89 102.775 92.2134 98.3526 95.8123 95.5377C102.002 90.6965 106 83.0839 106 74.5C106 59.8019 94.2973 48 80 48C65.7027 48 54 59.8019 54 74.5C54 83.0839 57.9982 90.6965 64.1877 95.5377C67.7866 98.3526 71 102.775 71 108.234V114H89ZM71 122H89V128H71V122ZM26 73.98C26 71.7708 27.7909 69.98 30 69.98H36.01C38.2191 69.98 40.01 71.7708 40.01 73.98C40.01 76.1891 38.2191 77.98 36.01 77.98H30C27.7909 77.98 26 76.1891 26 73.98ZM124.07 69.98C121.861 69.98 120.07 71.7708 120.07 73.98C120.07 76.1891 121.861 77.98 124.07 77.98H130.08C132.289 77.98 134.08 76.1891 134.08 73.98C134.08 71.7708 132.289 69.98 130.08 69.98H124.07ZM118.258 41.4185C119.82 39.8564 119.82 37.3238 118.258 35.7617C116.696 34.1996 114.164 34.1996 112.602 35.7617L108.341 40.0217C106.779 41.5838 106.779 44.1164 108.341 45.6785C109.904 47.2406 112.436 47.2406 113.998 45.6785L118.258 41.4185ZM41.822 35.7617C43.3841 34.1996 45.9167 34.1996 47.4788 35.7617L51.7388 40.0217C53.3009 41.5838 53.3009 44.1164 51.7388 45.6785C50.1767 47.2406 47.6441 47.2406 46.082 45.6785L41.822 41.4185C40.2599 39.8564 40.2599 37.3238 41.822 35.7617Z" fill="var(--spectrum-global-color-gray-800, #292929)"/>
</svg>
