<svg width="96" height="96" viewBox="0 0 96 96" xmlns="http://www.w3.org/2000/svg">
<path fill-rule="evenodd" d="M16.2285 24.25C16.2285 19.8317 19.8102 16.25 24.2285 16.25H34.8503C39.2686 16.25 42.8503 19.8317 42.8503 24.25V34.8718C42.8503 39.2901 39.2686 42.8718 34.8503 42.8718H24.2285C19.8102 42.8718 16.2285 39.2901 16.2285 34.8718V24.25ZM24.2285 20.25C22.0194 20.25 20.2285 22.0409 20.2285 24.25V34.8718C20.2285 37.0809 22.0194 38.8718 24.2285 38.8718H34.8503C37.0594 38.8718 38.8503 37.0809 38.8503 34.8718V24.25C38.8503 22.0409 37.0594 20.25 34.8503 20.25H24.2285ZM54.8749 17.3615C53.7709 17.3241 52.8457 18.1887 52.8083 19.2926C52.7709 20.3965 53.6355 21.3218 54.7394 21.3592C57.5887 21.4558 60.5402 22.2778 62.7747 24.4396C64.805 26.4039 66.4932 29.7169 66.7514 35.3172L62.64 31.2057C61.8589 30.4246 60.5926 30.4246 59.8115 31.2057C59.0305 31.9867 59.0305 33.253 59.8115 34.0341L66.9562 41.1788C67.7373 41.9598 69.0036 41.9598 69.7846 41.1788L76.9523 34.011C77.7334 33.23 77.7334 31.9637 76.9523 31.1826C76.1713 30.4016 74.905 30.4016 74.1239 31.1826L70.7174 34.5892C70.3393 28.5381 68.4162 24.332 65.5559 21.5648C62.3804 18.4926 58.3426 17.479 54.8749 17.3615ZM28.9508 54.8214C28.1697 54.0404 26.9034 54.0404 26.1223 54.8214L18.9546 61.9892C18.1736 62.7702 18.1736 64.0365 18.9546 64.8176C19.7357 65.5986 21.002 65.5986 21.783 64.8176L25.1894 61.4112C25.5675 67.4621 27.4906 71.6681 30.3508 74.4352C33.5263 77.5074 37.5642 78.521 41.0319 78.6385C42.1358 78.6759 43.0611 77.8113 43.0985 76.7074C43.1359 75.6035 42.2713 74.6782 41.1673 74.6408C38.318 74.5442 35.3666 73.7222 33.1321 71.5604C31.1017 69.5961 29.4136 66.2831 29.1553 60.6828L33.267 64.7945C34.048 65.5756 35.3144 65.5756 36.0954 64.7945C36.8765 64.0135 36.8765 62.7472 36.0954 61.9661L28.9508 54.8214ZM61.1489 53.1279C56.7306 53.1279 53.1489 56.7097 53.1489 61.1279V71.7497C53.1489 76.168 56.7307 79.7497 61.1489 79.7497H71.7707C76.189 79.7497 79.7707 76.168 79.7707 71.7497V61.1279C79.7707 56.7096 76.189 53.1279 71.7707 53.1279H61.1489ZM57.1489 61.1279C57.1489 58.9188 58.9398 57.1279 61.1489 57.1279H71.7707C73.9798 57.1279 75.7707 58.9188 75.7707 61.1279V71.7497C75.7707 73.9588 73.9798 75.7497 71.7707 75.7497H61.1489C58.9398 75.7497 57.1489 73.9588 57.1489 71.7497V61.1279Z" fill="var(--spectrum-global-color-gray-800, #292929)"/>
</svg>
