<svg width="96" height="96" viewBox="0 0 96 96" xmlns="http://www.w3.org/2000/svg">
<path fill-rule="evenodd" d="M13.9297 17C12.3434 17 11 18.3198 11 20.0056V40.7077C11 50.2811 18.6491 58 28 58C37.3545 58 45 50.2775 45 40.7077V20.0056C45 18.3198 43.6566 17 42.0703 17H13.9297ZM7 20.0056C7 16.1685 10.0769 13 13.9297 13H42.0703C45.9231 13 49 16.1685 49 20.0056V40.7077C49 52.4283 39.6215 62 28 62C16.3831 62 7 52.433 7 40.7077V20.0056ZM35.6325 28.9536L35.6329 28.9544L40.5626 38.4593L40.563 38.4601C41.1845 39.6597 41.1054 41.002 40.564 42.0471C40.0206 43.0963 38.911 44 37.4301 44H27.5699C26.089 44 24.9794 43.0963 24.436 42.0471C23.8946 41.002 23.8155 39.6597 24.437 38.4601L24.4372 38.4599L29.3632 28.9544L29.3633 28.9542C29.9991 27.7272 31.201 27 32.498 27C33.7949 27 34.9966 27.7269 35.6325 28.9536ZM32.4982 31.5984L28.1442 40H36.8556L32.4982 31.5984ZM23.8207 31.8276C24.2778 30.822 23.8332 29.6363 22.8276 29.1793C21.822 28.7222 20.6363 29.1668 20.1793 30.1724L15.1793 41.1724C14.7222 42.178 15.1668 43.3637 16.1724 43.8207C17.178 44.2778 18.3637 43.8332 18.8207 42.8276L23.8207 31.8276ZM54.5 26.7964C53.3954 26.7964 52.5 27.6918 52.5 28.7964C52.5 29.901 53.3954 30.7964 54.5 30.7964H54.5459H54.5915H54.637H54.6822H54.7273H54.7722H54.8169H54.8614H54.9057H54.9498H54.9937H55.0374H55.081H55.1243H55.1675H55.2105H55.2533H55.2959H55.3383H55.3806H55.4226H55.4645H55.5062H55.5477H55.5891H55.6303H55.6713H55.7121H55.7527H55.7932H55.8335H55.8736H55.9136H55.9533H55.993H56.0324H56.0717H56.1108H56.1497H56.1885H56.2271H56.2655H56.3038H56.342H56.3799H56.4177H56.4554H56.4928H56.5302H56.5673H56.6043H56.6412H56.6779H56.7144H56.7508H56.7871H56.8231H56.8591H56.8949H56.9305H56.966H57.0013H57.0365H57.0716H57.1065H57.1413H57.1759H57.2104H57.2447H57.2789H57.313H57.3469H57.3807H57.4143H57.4478H57.4812H57.5144H57.5475H57.5805H57.6133H57.646H57.6786H57.7111H57.7434H57.7756H57.8076H57.8396H57.8714H57.9031H57.9347H57.9661H57.9974H58.0286H58.0597H58.0907H58.1215H58.1522H58.1828H58.2133H58.2437H58.274H58.3041H58.3341H58.3641H58.3939H58.4189V49.7458C58.4189 50.438 59.1891 50.8534 59.7602 50.464L63.9742 47.6517C64.2684 47.4613 64.6405 47.4613 64.9347 47.6517L69.1488 50.464C69.7199 50.8447 70.49 50.438 70.49 49.7458V30.7964H70.5033H70.5565H70.61H70.6638H70.7177H70.7719H70.8264C73.545 30.7964 75.7488 33.0003 75.7488 35.7189V52.893C75.7488 53.9976 76.6443 54.893 77.7488 54.893C78.8534 54.893 79.7488 53.9976 79.7488 52.893V35.7189C79.7488 30.7911 75.7541 26.7964 70.8264 26.7964H70.7719H70.7177H70.6638H70.61H70.5565H70.5033H70.4502H70.3974H70.3448H70.2924H70.2402H70.1883H70.1366H70.0851H70.0339H69.9828H69.932H69.8814H69.831H69.7808H69.7308H69.6811H69.6316H69.5822H69.5331H69.4842H69.4355H69.3871H69.3388H69.2907H69.2429H69.1952H69.1478H69.1005H69.0535H69.0066H68.96H68.9136H68.8673H68.8213H68.7755H68.7298H68.6844H68.6391H68.5941H68.5492H68.5046H68.4601H68.4158H68.3717H68.3278H68.2841H68.2406H68.1973H68.1541H68.1111H68.0684H68.0258H67.9834H67.9411H67.8991H67.8572H67.8155H67.774H67.7327H67.6915H67.6506H67.6098H67.5691H67.5287H67.4884H67.4483H67.4084H67.3686H67.329H67.2896H67.2503H67.2112H67.1723H67.1336H67.095H67.0565H67.0183H66.9802H66.9422H66.9044H66.8668H66.8294H66.792H66.7549H66.7179H66.6811H66.6444H66.6079H66.5715H66.5353H66.4992H66.4633H66.4275H66.3919H66.3564H66.3211H66.2859H66.2508H66.216H66.1812H66.1466H66.1121H66.0778H66.0436H66.0096H65.9757H65.9419H65.9083H65.8748H65.8414H65.8082H65.7751H65.7422H65.7093H65.6766H65.6441H65.6116H65.5793H65.5471H65.5151H65.4832H65.4514H65.4197H65.3881H65.3567H65.3254H65.2942H65.2631H65.2322H65.2014H65.1707H65.1401H65.1096H65.0792H65.049H65.0188H64.9888H64.9589H64.9291H64.8994H64.8698H64.8404H64.811H64.7817H64.7526H64.7235H64.6946H64.6657H64.637H64.6084H64.5798H64.5514H64.5231H64.4948H64.4667H64.4386H64.4107H64.3828H64.3551H64.3274H64.2998H64.2723H64.245H64.2177H64.1904H64.1633H64.1363H64.1093H64.0825H64.0557H64.029H64.0024H63.9758H63.9494H63.923H63.8967H63.8705H63.8444H63.8183H63.7924H63.7665H63.7406H63.7149H63.6892H63.6636H63.6381H63.6126H63.5872H63.5619H63.5366H63.5114H63.4863H63.4612H63.4362H63.4113H63.3864H63.3616H63.3369H63.3122H63.2876H63.263H63.2385H63.214H63.1897H63.1653H63.141H63.1168H63.0926H63.0685H63.0444H63.0204H62.9964H62.9725H62.9486H62.9248H62.901H62.8773H62.8536H62.8299H62.8063H62.7827H62.7592H62.7357H62.7123H62.6889H62.6655H62.6422H62.6189H62.5956H62.5724H62.5492H62.526H62.5029H62.4798H62.4567H62.4337H62.4107H62.3877H62.3647H62.3418H62.3189H62.296H62.2732H62.2503H62.2275H62.2047H62.182H62.1592H62.1365H62.1138H62.0911H62.0684H62.0457H62.0231H62.0004H61.9778H61.9552H61.9326H61.91H61.8874H61.8648H61.8422H61.8197H61.7971H61.7746H61.752H61.7295H61.7069H61.6844H61.6619H61.6393H61.6168H61.5942H61.5717H61.5491H61.5266H61.504H61.4815H61.4589H61.4363H61.4137H61.3911H61.3685H61.3459H61.3233H61.3006H61.278H61.2553H61.2326H61.2099H61.1872H61.1645H61.1417H61.119H61.0962H61.0733H61.0505H61.0277H61.0048H60.9819H60.9589H60.936H60.913H60.89H60.8669H60.8439H60.8208H60.7976H60.7745H60.7513H60.728H60.7048H60.6815H60.6581H60.6348H60.6114H60.5879H60.5644H60.5409H60.5173H60.4937H60.47H60.4463H60.4226H60.3988H60.375H60.3511H60.3272H60.3032H60.2791H60.2551H60.2309H60.2067H60.1825H60.1582H60.1339H60.1095H60.085H60.0605H60.0359H60.0113H59.9866H59.9619H59.937H59.9122H59.8872H59.8622H59.8372H59.812H59.7868H59.7616H59.7362H59.7108H59.6853H59.6598H59.6342H59.6085H59.5827H59.5569H59.531H59.505H59.479H59.4528H59.4266H59.4003H59.3739H59.3475H59.3209H59.2943H59.2676H59.2408H59.2139H59.187H59.1599H59.1328H59.1056H59.0783H59.0509H59.0234H58.9958H58.9681H58.9403H58.9125H58.8845H58.8565H58.8283H58.8001H58.7717H58.7433H58.7147H58.6861H58.6573H58.6285H58.5995H58.5705H58.5413H58.512H58.4827H58.4532H58.4236H58.3939H58.3641H58.3341H58.3041H58.274H58.2437H58.2133H58.1828H58.1522H58.1215H58.0907H58.0597H58.0286H57.9974H57.9661H57.9347H57.9031H57.8714H57.8396H57.8076H57.7756H57.7434H57.7111H57.6786H57.646H57.6133H57.5805H57.5475H57.5144H57.4812H57.4478H57.4143H57.3807H57.3469H57.313H57.2789H57.2447H57.2104H57.1759H57.1413H57.1065H57.0716H57.0365H57.0013H56.966H56.9305H56.8949H56.8591H56.8231H56.7871H56.7508H56.7144H56.6779H56.6412H56.6043H56.5673H56.5302H56.4928H56.4554H56.4177H56.3799H56.342H56.3038H56.2655H56.2271H56.1885H56.1497H56.1108H56.0717H56.0324H55.993H55.9533H55.9136H55.8736H55.8335H55.7932H55.7527H55.7121H55.6713H55.6303H55.5891H55.5477H55.5062H55.4645H55.4226H55.3806H55.3383H55.2959H55.2533H55.2105H55.1675H55.1243H55.081H55.0374H54.9937H54.9498H54.9057H54.8614H54.8169H54.7722H54.7273H54.6822H54.637H54.5915H54.5459H54.5ZM34.7959 66.2729C34.7959 65.1683 33.9005 64.2729 32.7959 64.2729C31.6913 64.2729 30.7959 65.1683 30.7959 66.2729V66.8268C30.7959 71.7546 34.7906 75.7493 39.7184 75.7493H39.7719H39.8252H39.8783H39.9312H39.984H40.0365H40.0889H40.1412H40.1932H40.2451H40.2968H40.3483H40.3997H40.4509H40.5019H40.5527H40.6034H40.6539H40.7042H40.7544H40.8044H40.8542H40.9038H40.9533H41.0027H41.0518H41.1008H41.1497H41.1984H41.2469H41.2952H41.3434H41.3914H41.4393H41.487H41.5346H41.582H41.6292H41.6763H41.7232H41.77H41.8166H41.8631H41.9094H41.9556H42.0016H42.0474H42.0931H42.1387H42.1841H42.2294H42.2745H42.3194H42.3643H42.4089H42.4534H42.4978H42.5421H42.5862H42.6301H42.6739H42.7176H42.7611H42.8045H42.8477H42.8908H42.9338H42.9766H43.0193H43.0619H43.1043H43.1466H43.1888H43.2308H43.2727H43.3144H43.356H43.3975H43.4389H43.4801H43.5212H43.5622H43.603H43.6437H43.6843H43.7248H43.7651H43.8053H43.8454H43.8853H43.9252H43.9649H44.0045H44.044H44.0833H44.1226H44.1617H44.2007H44.2395H44.2783H44.3169H44.3555H44.3939H44.4322H44.4703H44.5084H44.5464H44.5842H44.6219H44.6596H44.6971H44.7345H44.7718H44.809H44.846H44.883H44.9199H44.9566H44.9933H45.0298H45.0663H45.1026H45.1388H45.175H45.211H45.2469H45.2828H45.3185H45.3541H45.3897H45.4251H45.4604H45.4957H45.5308H45.5659H45.6009H45.6357H45.6705H45.7052H45.7398H45.7743H45.8087H45.843H45.8772H45.9114H45.9454H45.9794H46.0132H46.047H46.0807H46.1144H46.1479H46.1814H46.2147H46.248H46.2812H46.3143H46.3474H46.3804H46.4132H46.4461H46.4788H46.5114H46.544H46.5765H46.6089H46.6413H46.6736H46.7058H46.7379H46.77H46.802H46.8339H46.8657H46.8975H46.9292H46.9608H46.9924H47.0239H47.0554H47.0867H47.1181H47.1493H47.1805H47.2116H47.2427H47.2737H47.3046H47.3355H47.3663H47.397H47.4277H47.4584H47.4889H47.5195H47.5499H47.5803H47.6107H47.641H47.6712H47.7014H47.7316H47.7617H47.7917H47.8217H47.8516H47.8815H47.9114H47.9412H47.9709H48.0006H48.0303H48.0599H48.0895H48.119H48.1485H48.1779H48.2073H48.2367H48.266H48.2952H48.3245H48.3537H48.3828H48.4119H48.441H48.4701H48.4991H48.5281H48.557H48.5859H48.6148H48.6436H48.6724H48.7012H48.73H48.7587H48.7874H48.816H48.8447H48.8733H48.9018H48.9304H48.9589H48.9874H49.0159H49.0443H49.0728H49.1012H49.1296H49.1579H49.1863H49.2146H49.2429H49.2712H49.2995H49.3277H49.356H49.3842H49.4124H49.4406H49.4688H49.4969H49.5251H49.5532H49.5814H49.6095H49.6376H49.6657H49.6938H49.7219H49.7499H49.778H49.8061H49.8341H49.8622H49.8902H49.9183H49.9463H49.9743H50.0024H50.0304H50.0584H50.0865H50.1145H50.1425H50.1706H50.1986H50.2267H50.2547H50.2828H50.3108H50.3389H50.3669H50.395H50.4231H50.4512H50.4793H50.5074H50.5355H50.5637H50.5918H50.62H50.6481H50.6763H50.7045H50.7327H50.761H50.7892H50.8175H50.8457H50.874H50.9023H50.9307H50.959H50.9874H51.0158H51.0442H51.0727H51.1011H51.1296H51.1581H51.1867H51.2152H51.2438H51.2724H51.3011H51.3297H51.3584H51.3872H51.4159H51.4447H51.4735H51.5024H51.5313H51.5602H51.5891H51.6181H51.6471H51.6762H51.7053H51.7344H51.7636H51.7928H51.8221H51.8513H51.8807H51.91H51.9394H51.9689H51.9984H52.0279H52.0575H52.0871H52.1168H52.1465H52.1763H52.2061H52.236H52.2659H52.2958H52.3258H52.3559H52.386H52.4162H52.4464H52.4767H52.507H52.5374H52.5678H52.5983H52.6288H52.6594H52.6901H52.7208H52.7516H52.7824H52.8133H52.8442H52.8753H52.9063H52.9375H52.9687H53H53.0313H53.0627H53.0941H53.1257H53.1573H53.1889H53.2207H53.2525H53.2843H53.3163H53.3483H53.3804H53.4125H53.4448H53.4771H53.5095H53.5419H53.5744H53.607H53.6397H53.6725H53.7053H53.7382H53.7712H53.8043H53.8374H53.8707H53.904H53.9374H53.9709H54.0044H54.0381H54.0718H54.1057H54.1396H54.1736H54.2076H54.2418H54.2761H54.3104H54.3449H54.3794H54.414H54.4487H54.4835H54.5184H54.5534H54.5885H54.6237H54.659H54.6944H54.7298H54.7654H54.8011H54.8368H54.8727H54.9087H54.9447H54.9809H55.0172H55.0536H55.09H55.1266H55.1633H55.2001H55.237H55.274H55.3111H55.3483H55.3857H55.4231H55.4606H55.4983H55.5361H55.574H55.612H55.6501H55.6883H55.7266H55.7651H55.8036H55.8423H55.8811H55.92H55.9591H55.9982H56.0375H56.0769H56.1164H56.1561H56.1958H56.2357H56.2757H56.3158H56.3561H56.3965H56.437H56.4776H56.5183H56.5592H56.6002H56.6414H56.6827H56.7241H56.7656H56.8073H56.8491H56.891H56.9331H56.9753H57.0176H57.0601H57.1027H57.1454H57.1883H57.2313H57.2745H57.3177H57.3612H57.4048H57.4485H57.4923H57.5363H57.5805H57.6248H57.6692H57.7138H57.7585C58.8631 75.7493 59.7585 74.8539 59.7585 73.7493C59.7585 72.6448 58.8631 71.7493 57.7585 71.7493H57.7138H57.6692H57.6248H57.5805H57.5363H57.4923H57.4485H57.4048H57.3612H57.3177H57.2745H57.2313H57.1883H57.1454H57.1027H57.0601H57.0176H56.9753H56.9331H56.891H56.8491H56.8073H56.7656H56.7241H56.6827H56.6414H56.6002H56.5592H56.5183H56.4776H56.437H56.3965H56.3561H56.3158H56.2757H56.2357H56.1958H56.1561H56.1164H56.0769H56.0375H55.9982H55.9591H55.92H55.8811H55.8423H55.8036H55.7651H55.7266H55.6883H55.6501H55.612H55.574H55.5361H55.4983H55.4606H55.4231H55.3857H55.3483H55.3111H55.274H55.237H55.2001H55.1633H55.1266H55.09H55.0536H55.0172H54.9809H54.9447H54.9087H54.8727H54.8368H54.8011H54.7654H54.7298H54.6944H54.659H54.6237H54.5885H54.5534H54.5184H54.4835H54.4487H54.414H54.3794H54.3449H54.3104H54.2761H54.2418H54.2076H54.1736H54.1396H54.1057H54.0718H54.0381H54.0044H53.9709H53.9374H53.904H53.8707H53.8374H53.8043H53.7712H53.7382H53.7053H53.6725H53.6397H53.607H53.5744H53.5419H53.5095H53.4771H53.4448H53.4125H53.3804H53.3483H53.3163H53.2843H53.2525H53.2207H53.1889H53.1573H53.1257H53.0941H53.0627H53.0313H53H52.9687H52.9375H52.9063H52.8753H52.8442H52.8133H52.7824H52.7516H52.7208H52.6901H52.6594H52.6288H52.5983H52.5678H52.5374H52.507H52.4767H52.4464H52.4162H52.386H52.3559H52.3258H52.2958H52.2659H52.236H52.2061H52.1763H52.1465H52.1168H52.0871H52.0575H52.0279H51.9984H51.9689H51.9394H51.91H51.8807H51.8513H51.8221H51.7928H51.7636H51.7344H51.7053H51.6762H51.6471H51.6181H51.5891H51.5602H51.5313H51.5024H51.4735H51.4447H51.4159H51.3872H51.3584H51.3297H51.3011H51.2724H51.2438H51.2152H51.1867H51.1581H51.1296H51.1011H51.0727H51.0442H51.0158H50.9874H50.959H50.9307H50.9023H50.874H50.8457H50.8175H50.7892H50.761H50.7327H50.7045H50.6763H50.6481H50.62H50.5918H50.5637H50.5355H50.5074H50.4793H50.4512H50.4231H50.395H50.3669H50.3389H50.3108H50.2828H50.2547H50.2267H50.1986H50.1706H50.1425H50.1145H50.0865H50.0584H50.0304H50.0024H49.9743H49.9463H49.9183H49.8902H49.8622H49.8341H49.8061H49.778H49.7499H49.7219H49.6938H49.6657H49.6376H49.6095H49.5814H49.5532H49.5251H49.4969H49.4688H49.4406H49.4124H49.3842H49.356H49.3277H49.2995H49.2712H49.2429H49.2146H49.1863H49.1579H49.1296H49.1012H49.0728H49.0443H49.0159H48.9874H48.9589H48.9304H48.9018H48.8733H48.8447H48.816H48.7874H48.7587H48.73H48.7012H48.6724H48.6436H48.6148H48.5859H48.557H48.5281H48.4991H48.4701H48.441H48.4119H48.3828H48.3537H48.3245H48.2952H48.266H48.2367H48.2073H48.1779H48.1485H48.119H48.0895H48.0599H48.0303H48.0006H47.9709H47.9412H47.9114H47.8815H47.8516H47.8217H47.7917H47.7617H47.7316H47.7014H47.6712H47.641H47.6107H47.5803H47.5499H47.5195H47.4889H47.4584H47.4277H47.397H47.3663H47.3355H47.3046H47.2737H47.2427H47.2116H47.1805H47.1493H47.1181H47.0867H47.0554H47.0239H46.9924H46.9608H46.9292H46.8975H46.8657H46.8339H46.802H46.77H46.7379H46.7058H46.6736H46.6413H46.6089H46.5765H46.544H46.5114H46.4788H46.4461H46.4132H46.3804H46.3474H46.3143H46.2812H46.248H46.2147H46.1814H46.1479H46.1144H46.0807H46.047H46.0132H45.9794H45.9454H45.9114H45.8772H45.843H45.8087H45.7743H45.7398H45.7052H45.6705H45.6357H45.6009H45.5659H45.5308H45.4957H45.4604H45.4251H45.3897H45.3541H45.3185H45.2828H45.2469H45.211H45.175H45.1388H45.1026H45.0663H45.0298H44.9933H44.9566H44.9199H44.883H44.846H44.809H44.7718H44.7345H44.6971H44.6596H44.6219H44.5842H44.5464H44.5084H44.4703H44.4322H44.3939H44.3555H44.3169H44.2783H44.2395H44.2007H44.1617H44.1226H44.0833H44.044H44.0045H43.9649H43.9252H43.8853H43.8454H43.8053H43.7651H43.7248H43.6843H43.6437H43.603H43.5622H43.5212H43.4801H43.4389H43.3975H43.356H43.3144H43.2727H43.2308H43.1888H43.1466H43.1043H43.0619H43.0193H42.9766H42.9338H42.8908H42.8477H42.8045H42.7611H42.7176H42.6739H42.6301H42.5862H42.5421H42.4978H42.4534H42.4089H42.3643H42.3194H42.2745H42.2294H42.1841H42.1387H42.0931H42.0474H42.0016H41.9556H41.9094H41.8631H41.8166H41.77H41.7232H41.6763H41.6292H41.582H41.5346H41.487H41.4393H41.3914H41.3434H41.2952H41.2469H41.1984H41.1497H41.1008H41.0518H41.0027H40.9533H40.9038H40.8542H40.8044H40.7544H40.7042H40.6539H40.6034H40.5527H40.5019H40.4509H40.3997H40.3483H40.2968H40.2451H40.1932H40.1412H40.0889H40.0365H39.984H39.9312H39.8783H39.8252H39.7719H39.7184C36.9998 71.7493 34.7959 69.5455 34.7959 66.8268V66.2729ZM77.5 87.5C85.6462 87.5 92.25 80.8962 92.25 72.75C92.25 64.6038 85.6462 58 77.5 58C69.3538 58 62.75 64.6038 62.75 72.75C62.75 80.8962 69.3538 87.5 77.5 87.5ZM79.7502 66C79.7502 64.8954 78.8548 64 77.7502 64C76.6456 64 75.7502 64.8954 75.7502 66V71H70.7502C69.6456 71 68.7502 71.8954 68.7502 73C68.7502 74.1046 69.6456 75 70.7502 75H75.7502V80C75.7502 81.1046 76.6456 82 77.7502 82C78.8548 82 79.7502 81.1046 79.7502 80V75H84.7502C85.8548 75 86.7502 74.1046 86.7502 73C86.7502 71.8954 85.8548 71 84.7502 71H79.7502V66Z" fill="var(--spectrum-global-color-gray-800, #292929)"/>
</svg>
