<svg width="160" height="160" viewBox="0 0 160 160" xmlns="http://www.w3.org/2000/svg">
<path fill-rule="evenodd" d="M31.0511 20.0009C24.9874 19.924 20 24.8012 20 30.8822L20.0001 67.06C20.0001 69.9518 21.1541 72.7216 23.2025 74.7611L83.5083 134.803C90.468 141.732 101.745 141.732 108.704 134.803L134.773 108.848C141.742 101.91 141.742 90.6521 134.773 83.7132L74.4308 23.635C72.417 21.63 69.6997 20.4908 66.8594 20.4548L31.0511 20.0009ZM28 30.8822C28 29.2928 29.3099 27.9795 30.9497 28.0003L66.758 28.4541C67.523 28.4638 68.2506 28.7708 68.7864 29.3043L129.129 89.3825C132.957 93.1944 132.957 99.3673 129.129 103.179L103.06 129.134C99.2215 132.955 92.9911 132.955 89.1528 129.134L28.8469 69.0919C28.3027 68.55 28.0001 67.8187 28.0001 67.06L28 30.8822ZM59 51C59 55.4183 55.4183 59 51 59C46.5817 59 43 55.4183 43 51C43 46.5817 46.5817 43 51 43C55.4183 43 59 46.5817 59 51Z" fill="var(--spectrum-global-color-gray-800, #292929)"/>
</svg>
