<svg width="160" height="160" viewBox="0 0 160 160" xmlns="http://www.w3.org/2000/svg">
<path fill-rule="evenodd" d="M106.758 33.0555C115.038 30.5815 123.545 36.67 123.545 45.3914V88.9452C123.545 97.6837 115.02 103.754 106.746 101.28L106.746 101.28L73.2896 91.2696L80.6579 107.478C80.6694 107.503 80.6806 107.529 80.6916 107.554C82.369 111.458 82.2649 115.302 80.778 118.578C79.3313 121.764 76.7085 124.135 73.7774 125.536C70.6343 127.039 66.8631 127.561 63.2875 126.572C59.6044 125.554 56.3721 122.992 54.478 118.845C53.3257 116.322 49.7926 108.517 46.5524 101.354C44.9312 97.7701 43.3819 94.3433 42.2378 91.8126L41.3194 89.7807H40.9362C28.3347 89.7807 18 79.6971 18 67.1402C18 54.5832 28.3347 44.4996 40.9362 44.4996H68.398L106.755 33.0562L106.758 33.0555ZM115.545 45.3914C115.545 42.1901 112.356 39.7317 109.047 40.7209L109.045 40.7216L73 51.4751V82.8325L109.038 93.6157C112.354 94.6071 115.545 92.1481 115.545 88.9452V45.3914ZM26 67.1402C26 59.1197 32.6338 52.4996 40.9362 52.4996H64.8981V81.7807H40.9362C32.6338 81.7807 26 75.1607 26 67.1402ZM53.8414 98.0571C52.5186 95.1328 51.2437 92.3132 50.1977 89.9996H63.9245L73.3563 110.747C74.169 112.661 74.0048 114.144 73.4934 115.271C72.9387 116.493 71.8257 117.602 70.3262 118.319C68.7092 119.092 66.9181 119.276 65.4189 118.861C64.027 118.477 62.6717 117.529 61.7549 115.521C60.6103 113.015 57.0852 105.228 53.8414 98.0571ZM136.417 82.356C134.311 81.6894 132.063 82.8563 131.396 84.9625C130.73 87.0687 131.897 89.3165 134.003 89.9831L139.753 91.8031C141.859 92.4697 144.107 91.3028 144.773 89.1966C145.44 87.0905 144.273 84.8427 142.167 84.176L136.417 82.356ZM144.773 43.8526C145.44 45.9588 144.273 48.2066 142.167 48.8732L136.417 50.6932C134.311 51.3599 132.063 50.1929 131.396 48.0868C130.73 45.9806 131.897 43.7328 134.003 43.0662L139.753 41.2462C141.859 40.5795 144.107 41.7465 144.773 43.8526ZM135.21 62.5297C133.001 62.5297 131.21 64.3205 131.21 66.5297C131.21 68.7388 133.001 70.5297 135.21 70.5297H141.24C143.449 70.5297 145.24 68.7388 145.24 66.5297C145.24 64.3205 143.449 62.5297 141.24 62.5297H135.21Z" fill="var(--spectrum-global-color-gray-800, #292929)"/>
</svg>
