<svg width="160" height="160" viewBox="0 0 160 160" xmlns="http://www.w3.org/2000/svg">
<path fill-rule="evenodd" d="M28.6222 54.8935C22.5088 59.0616 22.5088 68.0763 28.6222 72.2444L71.6805 101.602C76.4379 104.845 82.6962 104.845 87.4537 101.602L130.512 72.2444C136.625 68.0763 136.625 59.0616 130.512 54.8935L87.4537 25.5362C82.6962 22.2926 76.4379 22.2926 71.6805 25.5362L28.6222 54.8935ZM33.1288 65.6345C31.6732 64.6421 31.6732 62.4958 33.1288 61.5034L76.1871 32.1461C78.226 30.756 80.9081 30.756 82.947 32.1461L126.005 61.5034C127.461 62.4958 127.461 64.6421 126.005 65.6345L82.947 94.9918C80.9081 96.3819 78.226 96.3819 76.1871 94.9918L33.1288 65.6345ZM33.1288 99.1345C31.6732 98.1421 31.6732 95.9958 33.1288 95.0034L39.394 90.7317C41.2192 89.4873 41.6901 86.9988 40.4456 85.1735C39.2011 83.3482 36.7126 82.8774 34.8874 84.1219L28.6222 88.3935C22.5088 92.5616 22.5088 101.576 28.6222 105.744L71.6805 135.102C76.4379 138.345 82.6962 138.345 87.4537 135.102L130.512 105.744C136.625 101.576 136.625 92.5616 130.512 88.3935L124.247 84.1219C122.422 82.8774 119.933 83.3482 118.689 85.1735C117.444 86.9988 117.915 89.4873 119.74 90.7317L126.005 95.0034C127.461 95.9958 127.461 98.1421 126.005 99.1345L82.947 128.492C80.9081 129.882 78.226 129.882 76.1871 128.492L33.1288 99.1345Z" fill="var(--spectrum-global-color-gray-800, #292929)"/>
</svg>
