<svg width="96" height="96" viewBox="0 0 96 96" xmlns="http://www.w3.org/2000/svg">
<path fill-rule="evenodd" d="M15 22.6672C15 21.1391 16.1887 20 17.5339 20H33.9409C34.6878 20 35.4126 20.349 35.9021 20.9789L42.9128 30H15V22.6672ZM11 30V22.6672C11 19.0401 13.8711 16 17.5339 16H33.9409C35.9486 16 37.8292 16.94 39.0605 18.5244L37.7276 19.5602L39.0605 18.5244L47.9787 30H74.0246C80.0923 30 85 34.947 85 41.0207V68.9793C85 75.053 80.0923 80 74.0246 80H21.9754C15.9077 80 11 75.053 11 68.9793V34V32V30ZM15 34V68.9793C15 72.8629 18.1358 76 21.9754 76H74.0246C77.8642 76 81 72.8629 81 68.9793V41.0207C81 37.1371 77.8642 34 74.0246 34H51.0872H47H15Z" fill="var(--spectrum-global-color-gray-800, #292929)"/>
<path fill-rule="evenodd" d="M51.0291 52.2354C52.6534 52.2354 53.9702 50.9186 53.9702 49.2942C53.9702 47.6698 52.6534 46.353 51.0291 46.353C49.4047 46.353 48.0879 47.6698 48.0879 49.2942C48.0879 50.9186 49.4047 52.2354 51.0291 52.2354ZM51.0292 64H45.6798C44.9591 64 44.4333 63.4042 44.5847 62.7757C45.2227 60.1281 47.8841 58.1177 51.0292 58.1177C54.1743 58.1177 56.8357 60.1281 57.4737 62.7757C57.6251 63.4042 57.0993 64 56.3785 64H51.0292Z" fill="var(--spectrum-global-color-gray-800, #292929)"/>
<path d="M44.5847 62.7757L46.529 63.2443L46.5291 63.2443L44.5847 62.7757ZM57.4737 62.7757L55.5293 63.2443L55.5293 63.2443L57.4737 62.7757ZM35.5282 60.901C35.3433 61.99 36.0763 63.0227 37.1653 63.2075C38.2543 63.3924 39.2869 62.6595 39.4718 61.5705L35.5282 60.901ZM41.9623 58.2131C42.959 57.737 43.3811 56.5431 42.905 55.5464C42.4289 54.5496 41.235 54.1276 40.2383 54.6037L41.9623 58.2131ZM43.3764 46C44.481 46 45.3764 45.1046 45.3764 44C45.3764 42.8954 44.481 42 43.3764 42V46ZM39.7088 51.0616C40.5024 51.8299 41.7686 51.8094 42.5369 51.0159C43.3052 50.2223 43.2847 48.9561 42.4912 48.1878L39.7088 51.0616ZM51.9702 49.2942C51.9702 49.814 51.5489 50.2354 51.0291 50.2354V54.2354C53.758 54.2354 55.9702 52.0231 55.9702 49.2942H51.9702ZM51.0291 48.353C51.5489 48.353 51.9702 48.7744 51.9702 49.2942H55.9702C55.9702 46.5653 53.758 44.353 51.0291 44.353V48.353ZM50.0879 49.2942C50.0879 48.7744 50.5093 48.353 51.0291 48.353V44.353C48.3001 44.353 46.0879 46.5653 46.0879 49.2942H50.0879ZM51.0291 50.2354C50.5093 50.2354 50.0879 49.814 50.0879 49.2942H46.0879C46.0879 52.0231 48.3001 54.2354 51.0291 54.2354V50.2354ZM45.6798 66H51.0292V62H45.6798V66ZM42.6404 62.3072C42.1262 64.4406 43.9313 66 45.6798 66V62C45.8765 62 46.1129 62.0847 46.2988 62.2934C46.4908 62.5091 46.6209 62.8633 46.529 63.2443L42.6404 62.3072ZM51.0292 56.1177C47.0816 56.1177 43.5221 58.6481 42.6404 62.3072L46.5291 63.2443C46.9233 61.6082 48.6865 60.1177 51.0292 60.1177V56.1177ZM59.418 62.3072C58.5363 58.6481 54.9767 56.1177 51.0292 56.1177V60.1177C53.3719 60.1177 55.1351 61.6082 55.5293 63.2443L59.418 62.3072ZM56.3785 66C58.127 66 59.9321 64.4406 59.418 62.3072L55.5293 63.2443C55.4375 62.8633 55.5675 62.5091 55.7596 62.2934C55.9454 62.0847 56.1819 62 56.3785 62V66ZM51.0292 66H56.3785V62H51.0292V66ZM39.4718 61.5705C39.7278 60.0621 40.6998 58.8161 41.9623 58.2131L40.2383 54.6037C37.7918 55.7723 36.0001 58.1211 35.5282 60.901L39.4718 61.5705ZM42.1034 47.273C42.1034 46.5699 42.6733 46 43.3764 46V42C40.4642 42 38.1034 44.3608 38.1034 47.273H42.1034ZM42.4912 48.1878C42.2496 47.954 42.1034 47.6323 42.1034 47.273H38.1034C38.1034 48.7596 38.7212 50.1054 39.7088 51.0616L42.4912 48.1878Z" fill="var(--spectrum-global-color-gray-800, #292929)"/>
</svg>
