<svg width="96" height="96" viewBox="0 0 96 96" xmlns="http://www.w3.org/2000/svg">
  <defs>
<clipPath id="clip0_5570_89365">
<rect width="96" height="96" fill="white"/>
</clipPath>
</defs>
<g clip-path="url(#clip0_5570_89365)">
<path fill-rule="evenodd" d="M84.7793 49.2617C84.7793 45.948 82.093 43.2617 78.7793 43.2617H70.7164C69.6119 43.2617 68.7164 42.3663 68.7164 41.2617C68.7164 40.1571 69.6119 39.2617 70.7164 39.2617H78.7793C84.3021 39.2617 88.7793 43.7389 88.7793 49.2617V78.2098C88.7793 83.7327 84.3021 88.2098 78.7793 88.2098H35.1742C29.6514 88.2098 25.1742 83.7327 25.1742 78.2098V49.2617C25.1742 43.7389 29.6514 39.2617 35.1742 39.2617H44.1853C45.2898 39.2617 46.1853 40.1571 46.1853 41.2617C46.1853 42.3663 45.2898 43.2617 44.1853 43.2617H35.1742C31.8605 43.2617 29.1742 45.948 29.1742 49.2617V78.2098C29.1742 78.8331 29.2693 79.4343 29.4457 79.9995L41.8146 60.8904C43.9653 57.5642 48.8373 57.5642 50.988 60.8904L61.0224 76.3902L66.6723 67.8478L66.6807 67.8352C68.845 64.6161 73.5876 64.6089 75.7509 67.8349L75.7533 67.8384L84.3167 80.524C84.6147 79.8119 84.7793 79.0301 84.7793 78.2098V49.2617ZM45.1731 63.0631L32.0519 83.3344C32.9615 83.8898 34.0305 84.2098 35.1742 84.2098H55.8505L58.6143 80.031L47.6296 63.0633L47.629 63.0623C47.0544 62.1736 45.7483 62.1736 45.1736 63.0623L45.1731 63.0631ZM81.5292 83.5439C80.7055 83.9695 79.7704 84.2098 78.7793 84.2098H60.6462L70.0036 70.062C70.5884 69.1994 71.8558 69.207 72.4294 70.0637L72.4337 70.0701L72.4337 70.0701L81.5292 83.5439ZM68.374 53.124C68.374 54.7809 69.7172 56.124 71.374 56.124C73.0309 56.124 74.374 54.7809 74.374 53.124C74.374 51.4672 73.0309 50.124 71.374 50.124C69.7172 50.124 68.374 51.4672 68.374 53.124Z" fill="var(--spectrum-global-color-gray-800, #292929)"/>
<path fill-rule="evenodd" d="M38.2775 20.5032C26.356 17.3088 14.1022 24.3836 10.9078 36.305C8.79518 44.1895 11.174 52.2229 16.481 57.6829L16.6601 52.9447C16.7018 51.8409 17.6304 50.9799 18.7342 51.0216C19.838 51.0634 20.699 51.992 20.6573 53.0957L20.2964 62.6433C20.2557 63.7202 19.3691 64.5712 18.2915 64.5677L8.39532 64.5363C7.29075 64.5328 6.39817 63.6345 6.40169 62.5299C6.4052 61.4254 7.30347 60.5328 8.40803 60.5363L13.6935 60.5531C7.38508 54.118 4.54164 44.6092 7.04412 35.2698C10.8102 21.2144 25.2574 12.8734 39.3127 16.6395C45.4111 18.2735 50.4377 21.922 53.8621 26.6747C54.5078 27.5708 54.3048 28.8208 53.4086 29.4665C52.5125 30.1122 51.2625 29.9092 50.6168 29.013C47.7116 24.9809 43.4533 21.89 38.2775 20.5032Z" fill="var(--spectrum-global-color-gray-800, #292929)"/>
<path fill-rule="evenodd" d="M86.782 10.9862C87.8329 6.30609 82.2223 3.06255 78.6932 6.31577L78.6928 6.31611L73.9943 10.646L73.9937 10.6465C73.7793 10.8443 73.4791 10.9242 73.1963 10.8602L73.1933 10.8595L66.9582 9.45703L66.9575 9.45687C62.2774 8.40598 59.0338 14.0166 62.2871 17.5457L62.2874 17.546L66.6173 22.2446L66.6178 22.2452C66.8156 22.4596 66.8955 22.7598 66.8315 23.0425L66.8308 23.0456L65.4283 29.2807L65.4282 29.2814C64.3772 33.9616 69.9883 37.2052 73.5173 33.9515L78.2159 29.6216L78.2165 29.621C78.4309 29.4233 78.7311 29.3434 79.0138 29.4074L79.0169 29.4081L85.252 30.8105L85.2527 30.8107C89.9328 31.8616 93.1763 26.251 89.9231 22.7219L89.9228 22.7215L85.5929 18.023L85.5923 18.0224C85.3946 17.808 85.3147 17.5078 85.3787 17.225L85.3794 17.222L86.7818 10.9869L86.782 10.9862ZM81.4043 9.25689C82.0462 8.66497 83.0711 9.25229 82.8793 10.1091L82.8792 10.1098L81.4776 16.3412L81.4773 16.3427C81.3633 16.8464 81.3315 17.358 81.3769 17.8596L79.8947 25.5056C78.3279 25.1517 76.6852 25.5922 75.5052 26.6801L75.5046 26.6807L70.8063 31.0103L70.8059 31.0107C70.1639 31.6026 69.1391 31.0153 69.3308 30.1584L69.3309 30.1581L69.331 30.1577L70.7326 23.9264L70.733 23.9245C71.0874 22.3574 70.6469 20.7142 69.5588 19.5339L69.5582 19.5333L65.2285 14.835L65.2282 14.8346C64.6363 14.1926 65.2236 13.1678 66.0804 13.3595L66.0806 13.3596L66.0811 13.3597L72.3125 14.7613L72.3142 14.7617C73.8813 15.1161 75.5247 14.6757 76.705 13.5875L76.7056 13.5869L81.4039 9.25723L81.4043 9.25689ZM81.3774 17.8652C81.3772 17.8633 81.377 17.8615 81.3769 17.8596L82.8589 10.2144L81.3774 17.8652ZM81.3774 17.8652C81.4743 18.9221 81.9142 19.9341 82.6514 20.7337L82.652 20.7343L86.9816 25.4326L86.982 25.433C87.5739 26.0749 86.9866 27.0998 86.1297 26.908L86.1294 26.908L86.129 26.9079L79.8977 25.5063L81.3774 17.8652ZM63.3029 45.2864L58.9076 44.296C58.3257 44.1659 57.7221 44.3286 57.2847 44.7298L53.9738 47.7841C52.6689 48.9877 50.5942 47.7877 50.9846 46.0599L51.9749 41.6647C52.1051 41.0827 51.9424 40.4791 51.5412 40.0417L48.4869 36.7308C47.2833 35.4259 48.4833 33.3512 50.211 33.7416L54.6063 34.732C55.1883 34.8621 55.7919 34.6994 56.2293 34.2982L59.5402 31.2439C60.845 30.0403 62.9198 31.2403 62.5294 32.9681L61.539 37.3633C61.4089 37.9453 61.5716 38.5489 61.9728 38.9863L65.0271 42.2972C66.2307 43.602 65.0307 45.6768 63.3029 45.2864Z" fill="var(--spectrum-global-color-gray-800, #292929)"/>
</g>

</svg>
