<svg width="96" height="96" viewBox="0 0 96 96" xmlns="http://www.w3.org/2000/svg">
<path fill-rule="evenodd" d="M19.3393 26.3329C16.0921 22.0169 19.105 15.7402 24.5623 15.7402H71.4375C76.8948 15.7402 79.9077 22.0169 76.6605 26.3329C76.6393 26.3611 76.6174 26.3887 76.5947 26.4158L54.9504 52.222V74.6768C54.9504 75.9052 54.4279 77.0798 53.5072 77.8989L48.1603 82.656L46.8309 81.1618L48.1603 82.6561C45.367 85.1412 41.0494 83.0968 41.0494 79.434V52.222L19.4051 26.4158C19.3824 26.3887 19.3605 26.3611 19.3393 26.3329ZM22.5083 23.8912L44.5818 50.209C44.8838 50.5692 45.0494 51.0242 45.0494 51.4943V79.434C45.0494 79.5283 45.0735 79.5784 45.0942 79.6092C45.12 79.6477 45.1625 79.6862 45.2197 79.7123C45.277 79.7385 45.3291 79.7433 45.366 79.7386C45.3932 79.7351 45.4375 79.7245 45.5015 79.6676L50.8484 74.9105L51.8996 76.092L50.8484 74.9105C50.91 74.8556 50.9504 74.7713 50.9504 74.6768V51.4943C50.9504 51.0242 51.116 50.5692 51.418 50.209L73.4915 23.8911C74.7597 22.1482 73.4992 19.7402 71.4375 19.7402H24.5623C22.5006 19.7402 21.2401 22.1482 22.5083 23.8912Z" fill="var(--spectrum-global-color-gray-800, #292929)"/>
</svg>
