<svg width="96" height="97" viewBox="0 0 96 97" xmlns="http://www.w3.org/2000/svg">
<path fill-rule="evenodd" d="M12.5858 30.4142C11.8047 29.6332 11.8047 28.3668 12.5858 27.5858L26.5858 13.5858C27.3668 12.8047 28.6332 12.8047 29.4142 13.5858C30.1953 14.3668 30.1953 15.6332 29.4142 16.4142L18.8284 27L81.2002 27.0001C82.3048 27.0001 83.2002 27.8955 83.2002 29.0001C83.2002 30.1046 82.3048 31.0001 81.2002 31.0001L18.8285 31L29.4142 41.5858C30.1953 42.3668 30.1953 43.6332 29.4142 44.4142C28.6332 45.1953 27.3668 45.1953 26.5858 44.4142L12.5858 30.4142ZM83.2149 65.5858C83.9959 66.3668 83.9959 67.6332 83.2149 68.4142L69.2149 82.4142C68.4338 83.1953 67.1675 83.1953 66.3864 82.4142C65.6054 81.6332 65.6054 80.3668 66.3864 79.5858L76.9723 68.9999H15.0002C13.8957 68.9999 13.0002 68.1045 13.0002 66.9999C13.0002 65.8954 13.8957 64.9999 15.0002 64.9999H76.9722L66.3864 54.4142C65.6054 53.6332 65.6054 52.3668 66.3864 51.5858C67.1675 50.8047 68.4338 50.8047 69.2149 51.5858L83.2149 65.5858Z" fill="var(--spectrum-global-color-gray-800, #292929)"/>
</svg>
