<svg width="160" height="160" viewBox="0 0 160 160" xmlns="http://www.w3.org/2000/svg">
<path fill-rule="evenodd" d="M44.5527 22.9883C33.507 22.9883 24.5527 31.9426 24.5527 42.9883V98.7258C24.5527 109.772 33.507 118.726 44.5527 118.726H59.3024L70.7293 132.631C75.5298 138.473 84.4712 138.473 89.2717 132.631L100.699 118.726H115.448C126.494 118.726 135.448 109.772 135.448 98.7259V42.9883C135.448 31.9426 126.494 22.9883 115.448 22.9883H44.5527ZM32.5527 42.9883C32.5527 36.3609 37.9253 30.9883 44.5527 30.9883H115.448C122.076 30.9883 127.448 36.3609 127.448 42.9883V98.7259C127.448 105.353 122.076 110.726 115.448 110.726H98.8083C97.6115 110.726 96.4777 111.262 95.7179 112.186L83.0909 127.552C81.4907 129.499 78.5102 129.499 76.9101 127.552L64.2831 112.186C63.5233 111.262 62.3895 110.726 61.1927 110.726H44.5527C37.9253 110.726 32.5527 105.353 32.5527 98.7258V42.9883ZM80.0005 37.9199C82.2096 37.9199 84.0005 39.7108 84.0005 41.9199V80.3216C84.0005 82.5307 82.2096 84.3216 80.0005 84.3216C77.7914 84.3216 76.0005 82.5307 76.0005 80.3216V41.9199C76.0005 39.7108 77.7914 37.9199 80.0005 37.9199ZM80.0005 104.893C83.3142 104.893 86.0005 102.206 86.0005 98.8926C86.0005 95.5789 83.3142 92.8926 80.0005 92.8926C76.6868 92.8926 74.0005 95.5789 74.0005 98.8926C74.0005 102.206 76.6868 104.893 80.0005 104.893Z" fill="var(--spectrum-global-color-gray-800, #292929)"/>
</svg>
