<svg width="160" height="160" viewBox="0 0 160 160" xmlns="http://www.w3.org/2000/svg">
<path fill-rule="evenodd" d="M127.702 34.5764C130.28 23.0937 116.515 15.138 107.858 23.1186L107.858 23.1192L94.8583 35.0986L94.8572 35.0996C93.8935 35.9884 92.5477 36.3477 91.2729 36.0589L91.2668 36.0575L74.0168 32.1775L74.0154 32.1772C62.5327 29.5988 54.577 43.3638 62.5575 52.0207L62.5582 52.0215L74.5376 65.0207L74.5386 65.0219C75.4274 65.9855 75.7867 67.3314 75.4979 68.6062L75.4965 68.6122L71.6165 85.8622L71.6162 85.8637C69.0378 97.3464 82.8028 105.302 91.4597 97.3215L91.4604 97.3208L104.46 85.3415L104.461 85.3404C105.425 84.4516 106.77 84.0923 108.045 84.3812L108.051 84.3825L125.301 88.2625L125.303 88.2628C136.785 90.8412 144.741 77.0763 136.76 68.4193L136.76 68.4186L124.78 55.4193L124.779 55.4182C123.891 54.4545 123.531 53.1087 123.82 51.8339L123.822 51.8278L127.702 34.5778L127.702 34.5764ZM113.28 29.0008C116.163 26.3428 120.757 28.9861 119.897 32.8222L119.896 32.8237L116.018 50.0662L116.017 50.0691C115.147 53.9129 116.228 57.9452 118.898 60.8407L118.899 60.8419L130.878 73.8407L130.878 73.8414C133.536 76.7242 130.893 81.3176 127.057 80.4575L127.055 80.4572L109.813 76.5789L109.81 76.5782C105.966 75.7084 101.934 76.7888 99.0383 79.4586L99.0372 79.4596L86.0383 91.4386L86.0376 91.4392C83.1548 94.0972 78.5614 91.454 79.4215 87.6178L79.4218 87.6164L83.3001 70.3739L83.3011 70.3695C84.1704 66.5262 83.0899 62.4945 80.4205 59.5993L80.4194 59.5982L68.4405 46.5993L68.4398 46.5986C65.7818 43.7158 68.425 39.1224 72.2612 39.9825L72.2614 39.9826L72.2627 39.9828L89.5052 43.8611L89.5092 43.8621C93.3526 44.7315 97.3844 43.651 100.28 40.9815L100.281 40.9804L113.28 29.0015L113.28 29.0008ZM64.2394 129.81L52.0794 127.07C50.4694 126.71 48.7994 127.16 47.5894 128.27L38.4294 136.72C34.8194 140.05 29.0794 136.73 30.1594 131.95L32.8994 119.79C33.2594 118.18 32.8094 116.51 31.6994 115.3L23.2494 106.14C19.9194 102.53 23.2394 96.7901 28.0194 97.8701L40.1794 100.61C41.7894 100.97 43.4594 100.52 44.6694 99.4101L53.8294 90.9601C57.4394 87.6301 63.1794 90.9501 62.0994 95.7301L59.3594 107.89C58.9994 109.5 59.4494 111.17 60.5594 112.38L69.0094 121.54C72.3394 125.15 69.0194 130.89 64.2394 129.81Z" fill="var(--spectrum-global-color-gray-800, #292929)"/>
</svg>
