<svg width="48" height="48" viewBox="0 0 48 48" xmlns="http://www.w3.org/2000/svg">
<path fill-rule="evenodd" d="M46.0133 12.4214C47.3441 9.7789 44.9992 6.77953 42.1135 7.43375L4.33492 15.9987C1.3604 16.6731 0.611726 20.5646 3.12357 22.2946L3.71346 21.4381L3.12357 22.2946L10.4767 27.3589V37.903C10.4767 40.2532 13.2341 41.5206 15.0176 39.9899L21.161 34.7174L27.9705 39.4073C29.7184 40.6111 32.1269 39.9946 33.0816 38.0991L46.0133 12.4214ZM19.0314 33.2507L12.9767 29.0807V37.903C12.9767 38.1167 13.2274 38.2318 13.3895 38.0927L19.0314 33.2507ZM14.3176 26.9686L29.3885 37.3483C29.8879 37.6923 30.576 37.5162 30.8487 36.9746L43.4075 12.0374L14.3176 26.9686ZM41.7446 10.0808L4.88768 18.4368C4.03789 18.6295 3.82391 19.7414 4.54161 20.2357L11.9797 25.3585L41.7446 10.0808Z" fill="var(--spectrum-global-color-gray-800, #292929)"/>
</svg>
