<svg width="96" height="96" viewBox="0 0 96 96" xmlns="http://www.w3.org/2000/svg">
<path fill-rule="evenodd" d="M34 27.5C34 19.4919 40.4919 13 48.5 13C56.5081 13 63 19.4919 63 27.5C63 28.6046 62.1046 29.5 61 29.5C59.8954 29.5 59 28.6046 59 27.5C59 21.701 54.299 17 48.5 17C42.701 17 38 21.701 38 27.5V39H68C73.5228 39 78 43.4772 78 49V70C78 75.5228 73.5228 80 68 80H28C22.4772 80 18 75.5228 18 70V49C18 43.4772 22.4772 39 28 39H34V27.5ZM46 60.584C44.2341 59.8124 43 58.0503 43 56C43 53.2386 45.2386 51 48 51C50.7614 51 53 53.2386 53 56C53 58.0503 51.7659 59.8124 50 60.584V65.5011C50 66.6057 49.1046 67.5011 48 67.5011C46.8954 67.5011 46 66.6057 46 65.5011V60.584ZM22 49C22 45.6863 24.6863 43 28 43H68C71.3137 43 74 45.6863 74 49V70C74 73.3137 71.3137 76 68 76H28C24.6863 76 22 73.3137 22 70V49Z" fill="var(--spectrum-global-color-gray-800, #292929)"/>
</svg>
