<svg width="96" height="96" viewBox="0 0 96 96" xmlns="http://www.w3.org/2000/svg">
<path fill-rule="evenodd" d="M33.6191 28.0938C33.8081 28.0938 33.9946 28.0833 34.1782 28.0628L39.5161 37.3084C36.8627 39.4163 35.012 42.4911 34.4966 46H23.8222C23.0507 44.2341 21.2886 43 19.2383 43C16.4769 43 14.2383 45.2386 14.2383 48C14.2383 50.7614 16.4769 53 19.2383 53C21.2886 53 23.0507 51.7659 23.8222 50H34.4965C35.0117 53.5091 36.8624 56.5841 39.5157 58.6922L34.1776 67.9381C33.9943 67.9177 33.8079 67.9072 33.6191 67.9072C30.8577 67.9072 28.6191 70.1458 28.6191 72.9072C28.6191 75.6687 30.8577 77.9072 33.6191 77.9072C36.3806 77.9072 38.6191 75.6687 38.6191 72.9072C38.6191 71.7952 38.2561 70.7679 37.6421 69.9375L42.9781 60.6951C44.5322 61.3103 46.2261 61.6483 47.999 61.6483C49.7717 61.6483 51.4655 61.3103 53.0194 60.6953L58.3559 69.9383C57.7422 70.7686 57.3794 71.7955 57.3794 72.9072C57.3794 75.6687 59.618 77.9072 62.3794 77.9072C65.1408 77.9072 67.3794 75.6687 67.3794 72.9072C67.3794 70.1458 65.1408 67.9072 62.3794 67.9072C62.1903 67.9072 62.0036 67.9177 61.8199 67.9382L56.4819 58.6924C59.1354 56.5843 60.9862 53.5092 61.5014 50L72.1758 50C72.9474 51.7659 74.7094 53 76.7598 53C79.5212 53 81.7598 50.7614 81.7598 48C81.7598 45.2386 79.5212 43 76.7598 43C74.7094 43 72.9474 44.2341 72.1758 46L61.5013 46C60.9859 42.491 59.1351 39.4161 56.4815 37.3081L61.8194 28.0627C62.0032 28.0832 62.1901 28.0938 62.3794 28.0938C65.1408 28.0938 67.3794 25.8552 67.3794 23.0938C67.3794 20.3323 65.1408 18.0938 62.3794 18.0938C59.618 18.0938 57.3794 20.3323 57.3794 23.0938C57.3794 24.2053 57.7421 25.2321 58.3556 26.0623L53.019 35.3054C51.4652 34.6905 49.7715 34.3525 47.999 34.3525C46.2262 34.3525 44.5325 34.6905 42.9785 35.3056L37.6424 26.0631C38.2562 25.2327 38.6191 24.2056 38.6191 23.0938C38.6191 20.3323 36.3806 18.0938 33.6191 18.0938C30.8577 18.0938 28.6191 20.3323 28.6191 23.0938C28.6191 25.8552 30.8577 28.0938 33.6191 28.0938ZM47.999 38.3525C42.6706 38.3525 38.3511 42.672 38.3511 48.0004C38.3511 53.3288 42.6706 57.6483 47.999 57.6483C53.3273 57.6483 57.6468 53.3288 57.6468 48.0004C57.6468 42.672 53.3273 38.3525 47.999 38.3525Z" fill="var(--spectrum-global-color-gray-800, #292929)"/>
</svg>
