<svg width="96" height="96" viewBox="0 0 96 96" xmlns="http://www.w3.org/2000/svg">
<path fill-rule="evenodd" d="M47.9992 12.74C35.9619 12.74 26.1903 22.462 26.1903 34.4712C26.1903 34.4867 26.1904 34.5011 26.1907 34.514C26.1904 34.5266 26.1903 34.5392 26.1903 34.5518V40.7793C25.9456 48.2873 22.7524 55.1242 19.557 60.1273C16.4547 64.9848 19.9309 71.34 25.7062 71.34H38.7996V73.54C38.7996 78.621 42.9186 82.74 47.9996 82.74C53.0807 82.74 57.1996 78.621 57.1996 73.54V71.34H70.2923C76.0676 71.34 79.5438 64.9848 76.4415 60.1273C73.2461 55.1242 70.0529 48.2873 69.8082 40.7793V34.5518C69.8082 34.5392 69.8081 34.5266 69.8079 34.514C69.8081 34.5011 69.8082 34.4867 69.8082 34.4712C69.8082 22.462 60.0366 12.74 47.9992 12.74ZM53.1996 71.34H42.7996V73.54C42.7996 76.4119 45.1278 78.74 47.9996 78.74C50.8715 78.74 53.1996 76.4119 53.1996 73.54V71.34ZM30.1903 40.8113V34.6424C30.1918 34.6097 30.1925 34.5769 30.1923 34.544C30.1922 34.5149 30.1916 34.4903 30.1911 34.4729L30.1903 34.4492C30.2023 24.674 38.1636 16.74 47.9992 16.74C57.8349 16.74 65.7962 24.674 65.8082 34.4491L65.8074 34.4728C65.8069 34.4902 65.8063 34.5149 65.8062 34.544C65.806 34.5769 65.8067 34.6097 65.8082 34.6424V40.8113C65.8082 40.8323 65.8085 40.8533 65.8092 40.8743C66.0779 49.4041 69.6764 56.9663 73.0704 62.2803C74.4721 64.4751 72.9084 67.34 70.2923 67.34H25.7062C23.0901 67.34 21.5264 64.4751 22.9281 62.2803C26.3221 56.9663 29.9206 49.4041 30.1893 40.8743C30.19 40.8533 30.1903 40.8323 30.1903 40.8113Z" fill="var(--spectrum-global-color-gray-800, #292929)"/>
</svg>
