<svg width="96" height="96" viewBox="0 0 96 96" xmlns="http://www.w3.org/2000/svg">
<path fill-rule="evenodd" d="M47.2433 16.4648C43.3422 12.5638 37.0059 12.5638 33.1048 16.4648L13.4648 36.1049C9.5638 40.0059 9.5638 46.3422 13.4648 50.2433L19.5126 56.291C19.5806 56.3651 19.6504 56.438 19.722 56.5099L19.7253 56.5132C21.2524 58.0404 23.282 58.7664 25.2868 58.6912C25.2157 60.6899 25.9407 62.7115 27.462 64.2399L27.4653 64.2432C28.9927 65.7706 31.0225 66.4966 33.0276 66.4212C32.9537 68.4231 33.6786 70.4491 35.2024 71.98L35.2057 71.9833C36.7328 73.5104 38.7622 74.2364 40.7668 74.1614C40.693 76.1632 41.4179 78.1891 42.9417 79.72L42.945 79.7233C45.8561 82.6344 50.5924 82.6344 53.5034 79.7233L53.9278 79.2989C53.971 79.2625 54.013 79.2239 54.0537 79.1832L82.5437 50.6932C86.4448 46.7922 86.4448 40.4559 82.5437 36.5548L62.9037 16.9148C59.0027 13.0138 52.6663 13.0138 48.7653 16.9148L48.2293 17.4508L47.2433 16.4648ZM51.0577 20.2793L59.8833 29.1049C62.7943 32.0159 62.7943 36.7522 59.8833 39.6633C56.9722 42.5743 52.2359 42.5743 49.3248 39.6633L40.4943 30.8327L22.557 48.7699L22.5557 48.7712C21.2534 50.081 21.2059 52.1681 22.413 53.5346L22.5533 53.6748C22.5852 53.7067 22.6157 53.7394 22.645 53.7729C24.0003 55.0331 26.1363 55.0037 27.4553 53.6848L27.4586 53.6815L27.4602 53.6799L27.462 53.6781L27.4773 53.6629L31.6986 49.4615C32.4815 48.6823 33.7478 48.6853 34.527 49.4681C35.3062 50.251 35.3033 51.5174 34.5204 52.2966L30.2901 56.5069C28.9443 57.8665 28.946 60.0585 30.295 61.4161C31.6441 62.7638 33.8468 62.7633 35.1953 61.4148C35.2368 61.3733 35.2797 61.334 35.3238 61.2969L39.4357 57.1849C40.2168 56.4039 41.4831 56.4039 42.2642 57.1849C43.0452 57.966 43.0452 59.2323 42.2642 60.0133L38.0375 64.24L38.036 64.2415C36.6847 65.6007 36.6846 67.797 38.0356 69.1563C39.3847 70.5039 41.5873 70.5034 42.9357 69.1549L47.1257 64.9649C47.1832 64.9075 47.2433 64.8542 47.3056 64.8052C48.0914 64.1461 49.2645 64.186 50.0034 64.9249C50.7845 65.7059 50.7845 66.9723 50.0034 67.7533L45.7767 71.98L45.7753 71.9815C44.424 73.3407 44.4239 75.5369 45.7749 76.8963C47.1239 78.2439 49.3265 78.2434 50.675 76.8949L60.935 66.6349C60.9757 66.5942 61.0177 66.5557 61.0608 66.5192L79.7153 47.8648C82.0542 45.5258 82.0542 41.7222 79.7153 39.3832L60.0753 19.7432C57.7363 17.4043 53.9327 17.4043 51.5937 19.7432L51.0577 20.2793ZM17.8796 49.0011C18.2264 47.8848 18.8406 46.8337 19.722 45.9481L19.7253 45.9448L38.958 26.7121C38.9948 26.6684 39.0337 26.626 39.0749 26.5849C39.4643 26.1954 39.9743 26.0002 40.4847 25.9991C41.0015 25.9953 41.5194 26.1905 41.9137 26.5848C41.955 26.6261 41.9941 26.6688 42.0311 26.7126L52.1533 36.8349C53.5022 38.1838 55.7059 38.1838 57.0548 36.8349C58.4038 35.4859 58.4038 33.2822 57.0548 31.9333L46.8048 21.6833C46.7456 21.624 46.6908 21.562 46.6406 21.4976C46.5761 21.4473 46.5141 21.3925 46.4548 21.3333L44.4148 19.2933C42.0759 16.9543 38.2722 16.9543 35.9333 19.2933L16.2933 38.9333C13.9543 41.2722 13.9543 45.0759 16.2933 47.4148L17.8796 49.0011Z" fill="var(--spectrum-global-color-gray-800, #292929)"/>
</svg>
