<svg width="48" height="48" viewBox="0 0 48 48" xmlns="http://www.w3.org/2000/svg">
<path fill-rule="evenodd" d="M9.68945 17.0663C9.68945 12.4593 13.4242 8.72461 18.0312 8.72461C22.6382 8.72461 26.3729 12.4593 26.3729 17.0663C26.3729 18.0619 26.199 19.0141 25.881 19.896C25.6469 20.5455 25.9835 21.2618 26.633 21.4959C27.2824 21.7301 27.9987 21.3934 28.2328 20.744C28.6474 19.594 28.8729 18.3551 28.8729 17.0663C28.8729 11.0786 24.0189 6.22461 18.0312 6.22461C12.0435 6.22461 7.18945 11.0786 7.18945 17.0663C7.18945 22.3914 11.0273 26.8175 16.0877 27.7341C16.767 27.8571 17.4174 27.4062 17.5405 26.7269C17.6635 26.0476 17.2126 25.3972 16.5333 25.2741C12.6412 24.5692 9.68945 21.1611 9.68945 17.0663ZM18.9973 18.3053C19.1735 18.2098 19.3666 18.1969 19.584 18.2778C19.8131 18.363 20.0556 18.5531 20.2275 18.8334L23.8302 25.3183C24.2691 26.1083 25.263 26.3061 25.9697 25.8485C26.6356 25.4172 27.6941 24.9346 28.8325 24.5591C29.9815 24.1801 31.0733 23.9565 31.8091 23.9565C33.9418 23.9565 35.52 24.7671 36.5869 26.0502C37.6758 27.3599 38.3091 29.2597 38.3091 31.5236C38.3091 35.8131 34.8813 39.2736 30.6104 39.2736C28.3888 39.2736 25.4469 38.3442 22.7583 37.2399C20.5 36.3124 18.5577 35.3214 17.5528 34.8087L17.5527 34.8087L17.5524 34.8086C17.3786 34.7199 17.2329 34.6455 17.1184 34.5883C16.5315 34.2948 16.3316 34.0286 16.2572 33.8659C16.1855 33.7089 16.1469 33.4655 16.2645 33.0378C16.3931 32.5703 16.9058 32.1778 17.7174 32.4086C18.6653 32.6782 19.7243 33.0998 20.8206 33.5644C21.129 33.6951 21.443 33.8304 21.7572 33.9658L21.7573 33.9659C22.5288 34.2983 23.3019 34.6314 23.9982 34.899C25.3505 35.4187 26.4882 33.9549 25.8349 32.7789L18.6518 19.8493L18.64 19.828L18.6273 19.8072C18.3165 19.2959 18.5308 18.5582 18.9973 18.3053ZM22.382 17.5652C21.5328 16.1444 19.6201 15.124 17.8058 16.1075C16.0321 17.069 15.4784 19.4095 16.4769 21.0823L22.2371 31.4506C22.0918 31.3884 21.9449 31.3256 21.7961 31.2626C20.6897 30.7937 19.509 30.319 18.4012 30.004C16.4937 29.4615 14.4139 30.339 13.854 32.3748C13.6341 33.1744 13.5956 34.056 13.9833 34.9047C14.3684 35.7477 15.0872 36.3678 16.0003 36.8243C16.1034 36.8759 16.239 36.9451 16.4038 37.0292L16.4041 37.0294C17.3959 37.5358 19.4431 38.5809 21.8085 39.5525C24.5277 40.6693 27.8614 41.7736 30.6104 41.7736C36.2806 41.7736 40.8091 37.1752 40.8091 31.5236C40.8091 28.8169 40.0527 26.3082 38.5092 24.4519C36.9438 22.5691 34.647 21.4565 31.8091 21.4565C30.6866 21.4565 29.3031 21.7714 28.0494 22.1849C27.17 22.4749 26.2871 22.8359 25.5274 23.2254L22.4018 17.5994L22.3922 17.5821L22.382 17.5652Z" fill="var(--spectrum-global-color-gray-800, #292929)"/>
</svg>
