<svg width="48" height="48" viewBox="0 0 48 48" xmlns="http://www.w3.org/2000/svg">
<path d="M13.1719 28V42.0731" stroke="var(--spectrum-global-color-gray-800, #292929)" stroke-width="2.5" stroke-linecap="round" stroke-linejoin="round"/>
<path d="M10.3594 42.0742H15.9886" stroke="var(--spectrum-global-color-gray-800, #292929)" stroke-width="2.5" stroke-linecap="round" stroke-linejoin="round"/>
<path d="M6.13672 28H20.2098" stroke="var(--spectrum-global-color-gray-800, #292929)" stroke-width="2.5" stroke-linecap="round" stroke-linejoin="round"/>
<path d="M6.13672 28V30.8146" stroke="var(--spectrum-global-color-gray-800, #292929)" stroke-width="2.5" stroke-linecap="round" stroke-linejoin="round"/>
<path d="M20.2109 28V30.8146" stroke="var(--spectrum-global-color-gray-800, #292929)" stroke-width="2.5" stroke-linecap="round" stroke-linejoin="round"/>
<path fill-rule="evenodd" d="M38.6147 7.28481C38.6045 7.29033 38.5792 7.30598 38.5441 7.34722L32.3823 14.5874C32.3069 14.676 32.3373 14.8122 32.4433 14.8602L35.8945 16.4241L33.8794 21.4634C33.8596 21.5129 33.8575 21.5422 33.8574 21.5539C33.8572 21.5661 33.8591 21.5749 33.8624 21.5836C33.8703 21.6044 33.8958 21.6443 33.951 21.6779C34.0062 21.7114 34.0533 21.7157 34.0754 21.7132C34.0847 21.7121 34.0934 21.7097 34.1041 21.704C34.1144 21.6985 34.1395 21.6831 34.1743 21.6428L40.3429 14.5048C40.4204 14.4152 40.3883 14.2761 40.2793 14.2295L36.7326 12.7128L38.8395 7.5265C38.8599 7.47633 38.8622 7.44674 38.8623 7.43511C38.8625 7.42307 38.8607 7.41446 38.8574 7.40584C38.8496 7.3853 38.8241 7.34497 38.7682 7.31104C38.7123 7.2771 38.6647 7.27308 38.6429 7.27566C38.6338 7.27674 38.6253 7.2791 38.6147 7.28481ZM36.6403 5.72692C38.6095 3.41306 42.2993 5.65244 41.1557 8.46744L39.9727 11.3794L41.2623 11.9308C42.9275 12.6429 43.4186 14.7692 42.2345 16.1395L36.0659 23.2774C34.0923 25.5612 30.4375 23.3378 31.5581 20.5352L32.6859 17.7149L31.4114 17.1373C29.7913 16.4032 29.3256 14.3217 30.4784 12.9671L36.6403 5.72692Z" fill="var(--spectrum-global-color-gray-800, #292929)"/>
<path fill-rule="evenodd" d="M21.3125 11C21.3125 9.48122 20.0813 8.25 18.5625 8.25H7.5C5.98121 8.25 4.75 9.48122 4.75 11V17.375C4.75 17.4018 4.75038 17.4285 4.75114 17.4551L7.66969 12.9462L7.66985 12.946L7.67003 12.9457C8.59838 11.5107 10.6998 11.5107 11.6282 12.9456L11.6284 12.9459L11.6286 12.9462L14.3307 17.1201L15.623 15.1662L15.623 15.1662L15.6282 15.1583C16.5615 13.7702 18.6075 13.7656 19.5419 15.158L21.2879 17.7444C21.3041 17.6236 21.3125 17.5003 21.3125 17.375V11ZM9.64915 14.4889L6.20896 19.8037C6.59392 20.0088 7.03339 20.125 7.5 20.125H12.3432L12.8257 19.3956L9.64915 14.4889ZM19.7098 19.875C19.3606 20.0355 18.972 20.125 18.5625 20.125H15.3406L17.5864 16.7294L19.7098 19.875ZM18.5625 5.75C21.462 5.75 23.8125 8.10051 23.8125 11V17.375C23.8125 20.2745 21.462 22.625 18.5625 22.625H7.5C4.6005 22.625 2.25 20.2745 2.25 17.375V11C2.25 8.10051 4.6005 5.75 7.5 5.75H18.5625ZM17.6927 10.3856C17.6927 11.1047 18.2757 11.6877 18.9948 11.6877C19.7139 11.6877 20.2969 11.1047 20.2969 10.3856C20.2969 9.66646 19.7139 9.0835 18.9948 9.0835C18.2757 9.0835 17.6927 9.66646 17.6927 10.3856Z" fill="var(--spectrum-global-color-gray-800, #292929)"/>
<path fill-rule="evenodd" d="M44.5 32C44.5 30.4812 43.2688 29.25 41.75 29.25H31C29.4812 29.25 28.25 30.4812 28.25 32V38.375C28.25 39.8938 29.4812 41.125 31 41.125H41.75C43.2688 41.125 44.5 39.8938 44.5 38.375V32ZM41.75 26.75C44.6495 26.75 47 29.1005 47 32V38.375C47 41.2745 44.6495 43.625 41.75 43.625H31C28.1005 43.625 25.75 41.2745 25.75 38.375V32C25.75 29.1005 28.1005 26.75 31 26.75H41.75ZM35.3373 32.5241L39.0262 34.6299C39.4393 34.8658 39.4386 35.4541 39.0249 35.689L35.3309 37.7861C34.9172 38.0209 34.4008 37.7261 34.4014 37.2555L34.4065 33.0526C34.407 32.5819 34.9242 32.2883 35.3373 32.5241Z" fill="var(--spectrum-global-color-gray-800, #292929)"/>
</svg>
