<svg width="160" height="160" viewBox="0 0 160 160" xmlns="http://www.w3.org/2000/svg">
<path fill-rule="evenodd" d="M136 44C136 37.3726 130.627 32 124 32H36C29.3726 32 24 37.3726 24 44V56H136V44ZM136 64V116C136 122.627 130.627 128 124 128H36C29.3726 128 24 122.627 24 116V64H136ZM124 24C135.046 24 144 32.9543 144 44V116C144 127.046 135.046 136 124 136H36C24.9543 136 16 127.046 16 116V44C16 32.9543 24.9543 24 36 24H124ZM123.48 49C125.967 49 127.98 46.9862 127.98 44.5C127.98 42.0138 125.967 40 123.492 40H123.48C120.994 40 118.98 42.0138 118.98 44.5C118.98 46.9862 120.994 49 123.48 49Z" fill="var(--spectrum-global-color-gray-800, #292929)"/>
</svg>
