<svg width="160" height="160" viewBox="0 0 160 160" xmlns="http://www.w3.org/2000/svg">
<path fill-rule="evenodd" d="M80 20.5C65.6406 20.5 54 32.1406 54 46.5V63.5H44.3636C35.1288 63.5 27 70.4086 27 79.6875V120.312C27 129.591 35.1288 136.5 44.3636 136.5H115.636C124.871 136.5 133 129.591 133 120.312V79.6875C133 70.4086 124.871 63.5 115.636 63.5H106V46.5C106 32.1406 94.3594 20.5 80 20.5ZM98 63.5V46.5C98 36.5588 89.9412 28.5 80 28.5C70.0588 28.5 62 36.5588 62 46.5V63.5H98ZM58 71.5H44.3636C38.8374 71.5 35 75.5045 35 79.6875V120.312C35 124.495 38.8374 128.5 44.3636 128.5H115.636C121.163 128.5 125 124.495 125 120.312V79.6875C125 75.5045 121.163 71.5 115.636 71.5H102H58ZM85.6536 100.653C85.1607 101.15 84.6028 101.577 84 101.924V109.5C84 111.709 82.2091 113.5 80 113.5C77.7909 113.5 76 111.709 76 109.5V101.924C75.3972 101.577 74.8393 101.15 74.3464 100.653C73.9727 100.293 73.6393 99.8796 73.3464 99.4395C73.0664 99.013 72.8125 98.5462 72.6133 98.0664C72.4128 97.5729 72.2526 97.0801 72.1602 96.5599C72.0534 96.0534 72 95.5195 72 95C72 94.4798 72.0534 93.9466 72.1602 93.4395C72.2526 92.933 72.4128 92.4264 72.6133 91.9466C72.8125 91.4531 73.0664 91 73.3464 90.5599C73.6393 90.1198 73.9727 89.7064 74.3464 89.3464C75.8268 87.8529 77.8932 87 80 87C82.1068 87 84.1732 87.8529 85.6536 89.3464C86.026 89.7064 86.3594 90.1198 86.6536 90.5599C86.9466 91 87.1862 91.4531 87.3867 91.9466C87.5859 92.4264 87.7461 92.933 87.8398 93.4395C87.9466 93.9466 88 94.4798 88 95C88 95.5195 87.9466 96.0534 87.8398 96.5599C87.7461 97.0801 87.5859 97.5729 87.3867 98.0664C87.1862 98.5462 86.9466 99.013 86.6536 99.4395C86.3594 99.8796 86.026 100.293 85.6536 100.653Z" fill="var(--spectrum-global-color-gray-800, #292929)"/>
</svg>
