<svg width="48" height="48" viewBox="0 0 48 48" xmlns="http://www.w3.org/2000/svg">
<path fill-rule="evenodd" d="M39.25 20.1616C39.25 11.698 31.8394 4.99702 23.0364 5.51876C15.7437 5.95099 9.67443 11.4313 8.84788 18.4911C8.58594 20.7285 8.86 22.8772 9.54706 24.8418C10.6378 28.2126 12.7369 31.4745 14.9184 34.2339C17.1124 37.0091 19.4438 39.3433 21.0613 40.8532C22.6915 42.375 25.2608 42.365 26.8854 40.848C29.8663 38.0646 35.4298 32.3386 37.9094 26.1754C38.7676 24.341 39.25 22.3057 39.25 20.1616ZM23.1843 8.01438C30.6514 7.57182 36.75 13.2356 36.75 20.1616C36.75 21.9371 36.3489 23.6215 35.6318 25.1441C35.6213 25.1664 35.6114 25.1891 35.6022 25.212C33.351 30.835 28.1402 36.2559 25.1792 39.0208C24.5098 39.6459 23.4315 39.6457 22.7673 39.0257C21.2056 37.5679 18.97 35.3276 16.8796 32.6834C14.7799 30.0275 12.8802 27.0306 11.9214 24.0591C11.9182 24.049 11.9148 24.039 11.9113 24.029C11.3415 22.4056 11.1141 20.6337 11.3309 18.7818C12.0077 13.0011 17.0244 8.37947 23.1843 8.01438ZM20.25 18.7402C20.25 16.6691 21.9289 14.9902 24 14.9902C26.0711 14.9902 27.75 16.6691 27.75 18.7402C27.75 20.8112 26.0711 22.4902 24 22.4902C21.9289 22.4902 20.25 20.8112 20.25 18.7402ZM24 12.4902C20.5482 12.4902 17.75 15.2884 17.75 18.7402C17.75 22.1919 20.5482 24.9902 24 24.9902C27.4518 24.9902 30.25 22.1919 30.25 18.7402C30.25 15.2884 27.4518 12.4902 24 12.4902Z" fill="var(--spectrum-global-color-gray-800, #292929)"/>
</svg>
