<svg width="48" height="48" viewBox="0 0 48 48" xmlns="http://www.w3.org/2000/svg">
<path fill-rule="evenodd" d="M23.9994 8.75C18.7527 8.75 14.4994 13.0033 14.4994 18.25C14.4994 23.4967 18.7527 27.75 23.9994 27.75C29.2461 27.75 33.4994 23.4967 33.4994 18.25C33.4994 13.0033 29.2461 8.75 23.9994 8.75ZM11.9994 18.25C11.9994 11.6226 17.3719 6.25 23.9994 6.25C30.6268 6.25 35.9994 11.6226 35.9994 18.25C35.9994 21.511 34.6986 24.4683 32.5876 26.6311L35.9955 35.066C36.6629 36.7179 35.2369 38.4533 33.487 38.1189L31.4059 37.7212L30.1852 39.4529C29.1588 40.9091 26.9275 40.6513 26.2601 38.9994L23.9849 33.3682L21.7508 38.8977C21.0776 40.5639 18.8191 40.8074 17.8062 39.3231L16.6193 37.5839L14.5574 38.0105C12.7977 38.3746 11.3422 36.6305 12.0154 34.9643L15.3907 26.6101C13.2918 24.4491 11.9994 21.5005 11.9994 18.25ZM17.4117 28.2817L14.5083 35.4677L16.276 35.102C17.1655 34.9179 18.0784 35.2868 18.5904 36.037L19.6079 37.528L22.5818 30.1672C20.6884 29.9443 18.9299 29.2807 17.4117 28.2817ZM25.3892 30.1704C27.2837 29.9519 29.0438 29.2922 30.5642 28.2967L33.5057 35.5772L31.7169 35.2354C30.8491 35.0695 29.9645 35.4269 29.4555 36.149L28.4062 37.6376L25.3892 30.1704Z" fill="var(--spectrum-global-color-gray-800, #292929)"/>
</svg>
