<svg width="48" height="48" viewBox="0 0 48 48" xmlns="http://www.w3.org/2000/svg">
<path fill-rule="evenodd" d="M37.8097 13.6288L39.9263 13.2059C40.7585 13.04 40.8794 11.8982 40.0984 11.5617L38.1165 10.7078C37.8557 10.5946 37.6669 10.3621 37.6105 10.0821L37.1875 7.96551C37.0217 7.13331 35.8799 7.01239 35.5433 7.79341L34.6894 9.77524C34.5762 10.0361 34.3437 10.2249 34.0637 10.2813L31.9472 10.7043C31.1149 10.8701 30.994 12.0119 31.775 12.3485L33.7569 13.2023C34.0177 13.3156 34.2065 13.548 34.2629 13.8281L34.6859 15.9446C34.8517 16.7768 35.9936 16.8978 36.3301 16.1167L37.184 14.1349C37.2972 13.8741 37.5297 13.6853 37.8097 13.6288ZM20.3215 15.3689L22.0697 15.0195C22.757 14.8825 22.8569 13.9394 22.2118 13.6615L20.5749 12.9562C20.3595 12.8627 20.2036 12.6707 20.1569 12.4394L19.8076 10.6912C19.6706 10.0038 18.7275 9.90396 18.4496 10.5491L17.7443 12.186C17.6508 12.4014 17.4588 12.5573 17.2275 12.6039L15.4793 12.9533C14.7919 13.0903 14.692 14.0334 15.3371 14.3113L16.974 15.0166C17.1895 15.1101 17.3454 15.3021 17.392 15.5334L17.7414 17.2816C17.8783 17.969 18.8214 18.0688 19.0994 17.4237L19.8047 15.7868C19.8982 15.5714 20.0902 15.4155 20.3215 15.3689ZM39.3348 27.6279L37.5866 27.9773C37.3553 28.0239 37.1633 28.1798 37.0698 28.3952L36.3645 30.0321C36.0866 30.6772 35.1435 30.5774 35.0065 29.89L34.6572 28.1418C34.6105 27.9105 34.4546 27.7185 34.2392 27.625L32.6023 26.9197C31.9572 26.6418 32.0571 25.6987 32.7444 25.5617L34.4926 25.2123C34.7239 25.1657 34.9159 25.0098 35.0094 24.7944L35.7147 23.1574C35.9927 22.5124 36.9358 22.6122 37.0727 23.2996L37.4221 25.0478C37.4687 25.2791 37.6246 25.4711 37.8401 25.5646L39.477 26.2699C40.122 26.5478 40.0222 27.4909 39.3348 27.6279ZM25.8968 16.2584C27.5121 14.6431 30.131 14.6431 31.7463 16.2584C33.3616 17.8737 33.3616 20.4926 31.7463 22.1079L13.4282 40.426C11.8129 42.0413 9.19397 42.0413 7.57866 40.426C5.96336 38.8107 5.96336 36.1918 7.57866 34.5765L25.8968 16.2584ZM29.9785 18.0262C29.3395 17.3872 28.3035 17.3872 27.6645 18.0262L24.9891 20.7017L27.3031 23.0156L29.9785 20.3402C30.6175 19.7012 30.6175 18.6652 29.9785 18.0262ZM25.5353 24.7834L23.2213 22.4694L9.34643 36.3443C8.70744 36.9833 8.70744 38.0193 9.34643 38.6583C9.98542 39.2973 11.0214 39.2973 11.6604 38.6583L25.5353 24.7834Z" fill="var(--spectrum-global-color-gray-800, #292929)"/>
</svg>
