<svg width="48" height="48" viewBox="0 0 48 48" xmlns="http://www.w3.org/2000/svg">
<path fill-rule="evenodd" d="M24 8.62109C15.5777 8.62109 8.75 15.4488 8.75 23.8711C8.75 27.7476 10.1964 31.2863 12.5789 33.9769C14.9432 30.1403 19.1876 27.5557 24.0007 27.5557C28.8135 27.5557 33.057 30.1422 35.4212 33.9767C37.8037 31.2861 39.25 27.7475 39.25 23.8711C39.25 15.4488 32.4223 8.62109 24 8.62109ZM24 39.1211C20.3791 39.1211 17.053 37.8592 14.4374 35.7511C16.3025 32.3632 19.9101 30.0557 24.0007 30.0557C28.0899 30.0557 31.6971 32.3642 33.5629 35.7509C30.9472 37.8591 27.621 39.1211 24 39.1211ZM6.25 23.8711C6.25 14.068 14.1969 6.12109 24 6.12109C33.8031 6.12109 41.75 14.068 41.75 23.8711C41.75 33.6741 33.8031 41.6211 24 41.6211C14.1969 41.6211 6.25 33.6741 6.25 23.8711ZM19.2065 18.8463C19.2065 15.9047 21.4262 13.6572 24.0004 13.6572C26.5745 13.6572 28.7942 15.9047 28.7942 18.8463C28.7942 21.7879 26.5745 24.0353 24.0004 24.0353C21.4262 24.0353 19.2065 21.7879 19.2065 18.8463ZM24.0004 11.1572C19.8987 11.1572 16.7065 14.6755 16.7065 18.8463C16.7065 23.017 19.8987 26.5353 24.0004 26.5353C28.102 26.5353 31.2942 23.017 31.2942 18.8463C31.2942 14.6755 28.102 11.1572 24.0004 11.1572Z" fill="var(--spectrum-global-color-gray-800, #292929)"/>
</svg>
