<svg width="48" height="48" viewBox="0 0 48 48" xmlns="http://www.w3.org/2000/svg">
<path fill-rule="evenodd" d="M32.5 17C32.5 12.8587 35.8587 9.5 40 9.5C44.1413 9.5 47.5 12.8587 47.5 17C47.5 21.1413 44.1413 24.5 40 24.5C35.8587 24.5 32.5 21.1413 32.5 17ZM40 12.2048C39.3164 12.2048 38.7616 12.7596 38.7616 13.4432V17.1585C38.7616 17.8421 39.3164 18.397 40 18.397C40.6836 18.397 41.2384 17.8421 41.2384 17.1585V13.4432C41.2384 12.7596 40.6836 12.2048 40 12.2048ZM41.2781 21.072C41.3177 20.9828 41.3573 20.8937 41.3573 20.8045C41.3771 20.7153 41.3871 20.6262 41.3871 20.537C41.3871 20.4478 41.3771 20.3587 41.3573 20.2695C41.3474 20.1803 41.3177 20.0911 41.2781 20.002C41.2483 19.9227 41.2087 19.8435 41.1493 19.7642C41.0997 19.6948 41.0403 19.6255 40.9808 19.5561C40.9214 19.4967 40.8421 19.4373 40.7728 19.3877C40.6935 19.3382 40.6143 19.2886 40.535 19.2589C40.4458 19.2193 40.3567 19.1896 40.2774 19.1797C40.0991 19.14 39.9108 19.14 39.7325 19.1797C39.6433 19.1896 39.5542 19.2193 39.4749 19.2589C39.3857 19.2886 39.3065 19.3382 39.2371 19.3877C39.1579 19.4373 39.0885 19.4967 39.0192 19.5561L39.0191 19.5562C38.9597 19.6256 38.9002 19.6949 38.8507 19.7642C38.8012 19.8435 38.7517 19.9227 38.7219 20.002C38.6823 20.0911 38.6625 20.1803 38.6427 20.2694L38.6427 20.2695C38.6229 20.3587 38.6129 20.4478 38.6129 20.537C38.6129 20.6262 38.6229 20.7153 38.6427 20.8045L38.6427 20.8045C38.6625 20.8937 38.6823 20.9828 38.7219 21.072C38.7517 21.1513 38.8012 21.2305 38.8507 21.3098C38.9002 21.3791 38.9596 21.4484 39.0191 21.5177L39.0192 21.5178C39.0885 21.5773 39.1579 21.6367 39.2371 21.6863C39.3065 21.7358 39.3857 21.7853 39.4749 21.8151C39.5542 21.8547 39.6433 21.8745 39.7325 21.8943C39.8217 21.924 39.9108 21.924 40 21.924C40.0892 21.924 40.1882 21.9141 40.2774 21.8943C40.2861 21.8921 40.2949 21.89 40.3038 21.8878C40.3762 21.8699 40.4556 21.8503 40.535 21.8151C40.6143 21.7853 40.6935 21.7358 40.7728 21.6863C40.8421 21.6367 40.9214 21.5773 40.9808 21.5178C41.0403 21.4485 41.0997 21.3791 41.1493 21.3098C41.2087 21.2305 41.2483 21.1513 41.2781 21.072ZM7.3099 19.9101C11.5752 15.6237 17.4766 12.9727 23.9995 12.9727C26.1889 12.9727 28.3065 13.2712 30.3149 13.8289C30.9801 14.0137 31.6691 13.6242 31.8538 12.959C32.0386 12.2938 31.6491 11.6049 30.9839 11.4201C28.7598 10.8024 26.4171 10.4727 23.9995 10.4727C16.7846 10.4727 10.253 13.4081 5.53776 18.1467C5.05081 18.6361 5.05277 19.4275 5.54214 19.9145C6.0315 20.4014 6.82295 20.3995 7.3099 19.9101ZM23.9999 18.9385C19.1275 18.9385 14.72 20.9192 11.5348 24.1225C11.048 24.612 10.2566 24.6143 9.76706 24.1275C9.27752 23.6407 9.27529 22.8493 9.76206 22.3597C13.3973 18.7039 18.4352 16.4385 23.9999 16.4385C26.0913 16.4385 28.1102 16.7586 30.009 17.3535C30.6678 17.5599 31.0345 18.2612 30.8282 18.92C30.6218 19.5788 29.9204 19.9455 29.2616 19.7392C27.6019 19.2192 25.8349 18.9385 23.9999 18.9385ZM15.7494 28.345C17.8554 26.219 20.7731 24.9043 24.0002 24.9043C27.2266 24.9043 30.1438 26.2184 32.2496 28.3437C32.7355 28.8341 33.527 28.8377 34.0174 28.3518C34.5078 27.8659 34.5114 27.0744 34.0255 26.584C31.4694 24.0044 27.9205 22.4043 24.0002 22.4043C20.079 22.4043 16.5295 24.0051 13.9733 26.5857C13.4874 27.0762 13.4912 27.8676 13.9817 28.3535C14.4721 28.8393 15.2636 28.8355 15.7494 28.345ZM19.9698 32.5592C20.996 31.5147 22.4209 30.8691 23.9988 30.8691C25.5756 30.8691 26.9995 31.5137 28.0255 32.5568C28.5096 33.049 29.301 33.0556 29.7932 32.5715C30.2854 32.0874 30.292 31.296 29.8079 30.8038C28.3313 29.3025 26.2729 28.3691 23.9988 28.3691C21.723 28.3691 19.6632 29.3039 18.1864 30.8073C17.7026 31.2997 17.7097 32.0912 18.2021 32.575C18.6946 33.0588 19.4861 33.0517 19.9698 32.5592ZM25.752 35.7793C25.752 36.7458 24.9685 37.5293 24.002 37.5293C23.0355 37.5293 22.252 36.7458 22.252 35.7793C22.252 34.8128 23.0355 34.0293 24.002 34.0293C24.9685 34.0293 25.752 34.8128 25.752 35.7793Z" fill="var(--spectrum-global-color-gray-800, #292929)"/>
</svg>
