<svg width="48" height="48" viewBox="0 0 48 48" xmlns="http://www.w3.org/2000/svg">
<path fill-rule="evenodd" d="M16.0713 12.125C16.0713 9.77779 17.9741 7.875 20.3213 7.875H35.8824C38.2296 7.875 40.1324 9.77779 40.1324 12.125V17.4265C40.1324 19.7738 38.2296 21.6765 35.8824 21.6765H20.3213C17.9741 21.6765 16.0713 19.7738 16.0713 17.4265V16.0127H12.1191C11.1526 16.0127 10.3691 16.7962 10.3691 17.7627V30.2246C10.3691 31.191 11.1526 31.9746 12.1191 31.9746H16.0713V30.5742C16.0713 28.227 17.9741 26.3242 20.3213 26.3242H35.8824C38.2296 26.3242 40.1324 28.227 40.1324 30.5742V35.8758C40.1324 38.223 38.2296 40.1258 35.8824 40.1258H20.3213C17.9741 40.1258 16.0713 38.223 16.0713 35.8758V34.4746H12.1191C9.77193 34.4746 7.86914 32.5718 7.86914 30.2246V17.7627C7.86914 15.4155 9.77193 13.5127 12.1191 13.5127H16.0713V12.125ZM20.3213 10.375C19.3548 10.375 18.5713 11.1585 18.5713 12.125V17.4265C18.5713 18.393 19.3548 19.1765 20.3213 19.1765H35.8824C36.8489 19.1765 37.6324 18.393 37.6324 17.4265V12.125C37.6324 11.1585 36.8489 10.375 35.8824 10.375H20.3213ZM18.5713 30.5742C18.5713 29.6077 19.3548 28.8242 20.3213 28.8242H35.8824C36.8489 28.8242 37.6324 29.6077 37.6324 30.5742V35.8758C37.6324 36.8423 36.8489 37.6258 35.8824 37.6258H20.3213C19.3548 37.6258 18.5713 36.8423 18.5713 35.8758V30.5742Z" fill="var(--spectrum-global-color-gray-800, #292929)"/>
</svg>
