<svg width="48" height="48" viewBox="0 0 48 48" xmlns="http://www.w3.org/2000/svg">
<path fill-rule="evenodd" d="M37.75 11.5C37.75 9.98122 36.5188 8.75 35 8.75H9C7.48122 8.75 6.25 9.98122 6.25 11.5V16.27H37.75V11.5ZM6.25 33.5V18.77H37.75V25C37.75 25.6904 38.3096 26.25 39 26.25C39.6904 26.25 40.25 25.6904 40.25 25V11.5C40.25 8.6005 37.8995 6.25 35 6.25H9C6.10051 6.25 3.75 8.6005 3.75 11.5V33.5C3.75 36.3995 6.10051 38.75 9 38.75H26.5C27.1904 38.75 27.75 38.1904 27.75 37.5C27.75 36.8096 27.1904 36.25 26.5 36.25H9C7.48122 36.25 6.25 35.0188 6.25 33.5ZM9.5 12.5C9.5 13.3284 10.1716 14 11 14C11.8284 14 12.5 13.3284 12.5 12.5C12.5 11.6716 11.8284 11 11 11C10.1716 11 9.5 11.6716 9.5 12.5ZM29 35C29 30.8587 32.3587 27.5 36.5 27.5C40.6413 27.5 44 30.8587 44 35C44 39.1413 40.6413 42.5 36.5 42.5C32.3587 42.5 29 39.1413 29 35ZM39.8587 38.3587C40.3441 37.8732 40.3441 37.0905 39.8587 36.605H39.8785L38.2734 35L39.8785 33.395C40.3639 32.9095 40.3639 32.1268 39.8785 31.6413C39.393 31.1559 38.6103 31.1559 38.1248 31.6413L36.5198 33.2464L34.9148 31.6413C34.4293 31.1559 33.6466 31.1559 33.1612 31.6413C32.6757 32.1268 32.6757 32.9095 33.1612 33.395L34.7662 35L33.1612 36.605C32.6757 37.0905 32.6757 37.8732 33.1612 38.3587C33.3989 38.6063 33.716 38.7252 34.033 38.7252C34.3501 38.7252 34.6671 38.5964 34.9049 38.3587L36.5099 36.7536L38.1149 38.3587C38.3527 38.6063 38.6697 38.7252 38.9868 38.7252C39.3038 38.7252 39.6209 38.5964 39.8587 38.3587Z" fill="var(--spectrum-global-color-gray-800, #292929)"/>
</svg>
