<svg width="48" height="48" viewBox="0 0 48 48" xmlns="http://www.w3.org/2000/svg">
<path fill-rule="evenodd" d="M9.14096 5.75027C7.28046 5.72669 5.74999 7.22318 5.75 9.08924L5.75003 20.0718C5.75003 20.9592 6.10415 21.8091 6.7327 22.4349L25.0398 40.662C27.1665 42.7793 30.6123 42.7793 32.739 40.662L40.6527 32.7829C42.7824 30.6625 42.7824 27.2223 40.6527 25.1019L22.3345 6.8639C21.7166 6.24867 20.8828 5.8991 20.0113 5.88806L9.14096 5.75027ZM8.25 9.08924C8.25 8.6268 8.63123 8.24402 9.10928 8.25007L19.9797 8.38786C20.2026 8.39068 20.4146 8.48017 20.5707 8.63554L38.8888 26.8736C40.0371 28.0168 40.0371 29.868 38.8888 31.0112L30.9751 38.8903C29.8238 40.0366 27.955 40.0366 26.8037 38.8903L8.49659 20.6633C8.33808 20.5055 8.25003 20.2926 8.25003 20.0718L8.25 9.08924ZM13 15.5C13 16.8807 14.1193 18 15.5 18C16.8807 18 18 16.8807 18 15.5C18 14.1193 16.8807 13 15.5 13C14.1193 13 13 14.1193 13 15.5Z" fill="var(--spectrum-global-color-gray-800, #292929)"/>
</svg>
