<svg width="48" height="48" viewBox="0 0 48 48" xmlns="http://www.w3.org/2000/svg">
<path fill-rule="evenodd" d="M27.2797 6.02349C25.3623 4.48957 22.6378 4.48956 20.7204 6.02348L9.72035 14.8235C8.47497 15.8198 7.75 17.3282 7.75 18.923V34.5005C7.75 37.4 10.1005 39.7505 13 39.7505H35C37.8995 39.7505 40.25 37.4 40.25 34.5005V18.923C40.25 17.3282 39.525 15.8198 38.2796 14.8235L27.2797 6.02349ZM22.2821 7.97566C23.2864 7.17218 24.7136 7.17218 25.7179 7.97566L36.7179 16.7757C37.3703 17.2975 37.75 18.0876 37.75 18.923V34.5005C37.75 36.0193 36.5188 37.2505 35 37.2505H30.25V26.5005C30.25 24.7056 28.7949 23.2505 27 23.2505H21C19.2051 23.2505 17.75 24.7056 17.75 26.5005V37.2505H13C11.4812 37.2505 10.25 36.0193 10.25 34.5005V18.923C10.25 18.0876 10.6297 17.2975 11.2821 16.7757L22.2821 7.97566ZM20.25 37.2505H27.75V26.5005C27.75 26.0863 27.4142 25.7505 27 25.7505H21C20.5858 25.7505 20.25 26.0863 20.25 26.5005V37.2505Z" fill="var(--spectrum-global-color-gray-800, #292929)"/>
</svg>
