<svg width="96" height="96" viewBox="0 0 96 96" xmlns="http://www.w3.org/2000/svg">
<path fill-rule="evenodd" d="M74.2608 34.8306C77.9131 31.2091 77.9131 25.3446 74.2608 21.7231C70.5992 18.0923 64.6557 18.0923 60.9941 21.7231L54.4532 28.209C53.6688 28.9867 52.4025 28.9814 51.6248 28.197C50.847 27.4127 50.8524 26.1464 51.6367 25.3686L58.1777 18.8827C63.3986 13.7057 71.8564 13.7058 77.0773 18.8827C82.3076 24.069 82.3076 32.4847 77.0773 37.6709L60.4914 54.1173C55.2705 59.2942 46.8127 59.2942 41.5918 54.1173C40.8074 53.3395 40.8021 52.0732 41.5798 51.2889C42.3576 50.5045 43.6239 50.4992 44.4082 51.2769C48.0698 54.9077 54.0134 54.9077 57.6749 51.2769L74.2608 34.8306ZM54.4082 41.8827C55.1926 42.6605 55.1979 43.9268 54.4202 44.7111C53.6424 45.4955 52.3761 45.5008 51.5918 44.7231C47.9302 41.0923 41.9866 41.0923 38.3251 44.7231L21.7392 61.1694C18.0869 64.7909 18.0869 70.6554 21.7392 74.2769C25.4008 77.9077 31.3443 77.9077 35.0059 74.2769L41.5469 67.791C42.3312 67.0132 43.5975 67.0186 44.3753 67.8029C45.153 68.5873 45.1477 69.8536 44.3633 70.6313L37.8224 77.1173C32.6014 82.2942 24.1436 82.2942 18.9227 77.1173L20.3199 75.7082L18.9227 77.1173C13.6924 71.931 13.6924 63.5153 18.9227 58.3291L35.5086 41.8827C40.7295 36.7058 49.1873 36.7058 54.4082 41.8827Z" fill="var(--spectrum-global-color-gray-800, #292929)"/>
</svg>
