<svg width="48" height="48" viewBox="0 0 48 48" xmlns="http://www.w3.org/2000/svg">
<path fill-rule="evenodd" d="M40.3133 12.1061C40.3133 9.21581 37.5221 7.14239 34.7545 7.983L21.7224 11.9326H12.4607C8.22861 11.9326 4.79395 15.3673 4.79395 19.5994C4.79395 23.8316 8.22861 27.2662 12.4607 27.2662H12.8708L13.183 27.981C13.5707 28.8684 14.0958 30.0697 14.6452 31.3251C15.7423 33.8319 16.9415 36.5663 17.3339 37.4391C17.9591 38.8296 19.0263 39.6914 20.2495 40.0349C21.4388 40.3688 22.6953 40.1927 23.7424 39.6841C24.7191 39.2097 25.5848 38.4111 26.0602 37.3473C26.5471 36.2576 26.5834 34.9774 26.0298 33.6685L26.0299 33.6685L26.0247 33.6565L23.4723 27.7936L34.7512 31.222L34.7515 31.222C37.5168 32.062 40.3133 29.9946 40.3133 27.099V12.1061ZM20.6855 14.4326V24.7662H12.4607C9.60932 24.7662 7.29395 22.4509 7.29395 19.5994C7.29395 16.748 9.60932 14.4326 12.4607 14.4326H20.6855ZM23.1861 25.0937L35.478 28.83L35.4783 28.83C36.64 29.1827 37.8133 28.3139 37.8133 27.099V12.1061C37.8133 10.8918 36.6407 10.0229 35.4811 10.3751L35.4804 10.3753L23.1861 14.1013V25.0937ZM15.6004 27.2698C15.972 28.1201 16.444 29.1998 16.9355 30.3228C18.0356 32.8366 19.2282 35.5556 19.6141 36.4139C19.9414 37.1419 20.4288 37.4885 20.9253 37.628C21.4557 37.7769 22.084 37.7103 22.65 37.4354C23.1747 37.1806 23.5749 36.7812 23.7777 36.3273C23.9685 35.9004 24.0229 35.345 23.7297 34.648L20.5176 27.2698H15.6004Z" fill="var(--spectrum-global-color-gray-800, #292929)"/>
</svg>
