<svg width="96" height="97" viewBox="0 0 96 97" xmlns="http://www.w3.org/2000/svg">
<path fill-rule="evenodd" d="M72.8094 23.5025C73.0635 24.5774 72.3981 25.6548 71.3232 25.9089L57.5603 29.1621C56.4853 29.4162 55.4079 28.7508 55.1538 27.6758C54.8997 26.6009 55.5652 25.5235 56.6401 25.2694L65.81 23.1018C60.7503 19.5109 54.5689 17.4008 47.89 17.4008C38.5919 17.4008 30.2518 21.4918 24.5669 27.9787C23.8389 28.8095 22.5753 28.8927 21.7446 28.1647C20.9139 27.4367 20.8306 26.1731 21.5586 25.3424C27.9708 18.0256 37.3915 13.4008 47.89 13.4008C55.2741 13.4008 62.1281 15.6895 67.7756 19.595L65.6635 10.6597C65.4094 9.58479 66.0749 8.5074 67.1498 8.25331C68.2248 7.99922 69.3022 8.66465 69.5563 9.7396L72.8094 23.5025ZM77.6375 39.1757C77.3077 38.1216 77.8949 36.9996 78.949 36.6698C80.0032 36.34 81.1252 36.9272 81.455 37.9813C82.4895 41.2877 83.0462 44.8028 83.0462 48.4443C83.0462 62.7291 74.4894 75.0108 62.2275 80.4515L71.0044 82.9589C72.0665 83.2624 72.6815 84.3693 72.3781 85.4314C72.0747 86.4935 70.9677 87.1085 69.9057 86.8051L56.3075 82.9203C55.2455 82.6169 54.6305 81.51 54.9339 80.4479L58.8186 66.8498C59.122 65.7877 60.229 65.1727 61.2911 65.4761C62.3531 65.7795 62.9682 66.8865 62.6647 67.9485L60.0714 77.0262C71.2225 72.3288 79.0462 61.2979 79.0462 48.4443C79.0462 45.2125 78.5524 42.0999 77.6375 39.1757ZM13.3259 43.7235L6.39406 49.5479C5.54838 50.2584 4.2868 50.1489 3.57623 49.3032C2.86567 48.4576 2.9752 47.196 3.82088 46.4854L14.6483 37.3878C15.494 36.6773 16.7556 36.7868 17.4662 37.6325L26.5637 48.4599C27.2743 49.3056 27.1648 50.5672 26.3191 51.2778C25.4734 51.9883 24.2118 51.8788 23.5013 51.0331L17.3667 43.7321C16.4351 49.7574 17.2671 56.1157 20.1398 62.014C24.2111 70.3734 31.5409 76.0802 39.8621 78.3508C40.9277 78.6416 41.5559 79.7412 41.2651 80.8068C40.9743 81.8724 39.8747 82.5005 38.8091 82.2097C29.4234 79.6486 21.1405 73.2041 16.5436 63.7655C13.3974 57.3054 12.4193 50.3476 13.3259 43.7235Z" fill="var(--spectrum-global-color-gray-800, #292929)"/>
</svg>
