<svg width="96" height="96" viewBox="0 0 96 96" xmlns="http://www.w3.org/2000/svg">
<path fill-rule="evenodd" d="M16.5155 16C10.6774 16 5.875 20.615 5.875 26.5V54.5C5.875 60.385 10.6774 65 16.5155 65H21.8826C21.8955 68.8161 21.9023 73.5289 21.8751 77.2515C21.8443 81.4585 26.7912 83.6781 29.9442 80.9657L29.9471 80.9631L48.6136 65H55.9062C57.0108 65 57.9062 64.1046 57.9062 63C57.9062 61.8954 57.0108 61 55.9062 61H47.875H47.1364L46.5751 61.48L27.3418 77.9279L27.3363 77.9327C26.7444 78.4427 25.8697 77.9977 25.8749 77.2808C25.9074 72.8523 25.8919 67.0434 25.875 62.9917L25.8667 61H23.875H16.5155C12.8096 61 9.875 58.0998 9.875 54.5V26.5C9.875 22.9003 12.8096 20 16.5155 20H71.2345C74.9404 20 77.875 22.9003 77.875 26.5V39.0312C77.875 40.1358 78.7704 41.0312 79.875 41.0312C80.9796 41.0312 81.875 40.1358 81.875 39.0312V26.5C81.875 20.615 77.0726 16 71.2345 16H16.5155ZM60.625 58.5C60.625 50.3534 67.2284 43.75 75.375 43.75C83.5216 43.75 90.125 50.3534 90.125 58.5C90.125 66.6466 83.5216 73.25 75.375 73.25C67.2284 73.25 60.625 66.6466 60.625 58.5ZM81.6678 64.7928C82.4494 64.0112 82.4494 62.7386 81.6678 61.957H81.6878L78.2308 58.5L81.6878 55.043C82.4694 54.2614 82.4694 52.9888 81.6878 52.2072C80.9062 51.4256 79.6337 51.4256 78.8521 52.2072L75.395 55.6642L71.938 52.2072C71.1564 51.4256 69.8838 51.4256 69.1022 52.2072C68.3207 52.9888 68.3207 54.2614 69.1022 55.043L72.5593 58.5L69.1022 61.957C68.3207 62.7386 68.3207 64.0112 69.1022 64.7928C69.493 65.1836 70.0041 65.384 70.5151 65.384C71.0262 65.384 71.5372 65.1836 71.928 64.7928L75.385 61.3358L78.842 64.7928C79.2328 65.1836 79.7439 65.384 80.2549 65.384C80.766 65.384 81.277 65.1836 81.6678 64.7928Z" fill="var(--spectrum-global-color-gray-800, #292929)"/>
</svg>
