<svg width="160" height="160" viewBox="0 0 160 160" xmlns="http://www.w3.org/2000/svg">
<path fill-rule="evenodd" d="M129.137 12.7028C135.5 6.83732 145.615 12.6858 143.72 21.1231L141.382 31.5164L141.381 31.5224C141.323 31.7794 141.396 32.0558 141.577 32.2521L148.794 40.0841L148.795 40.0848C154.661 46.4477 148.812 56.5629 140.375 54.6684L129.975 52.3293C129.718 52.2711 129.442 52.3441 129.246 52.5252L129.245 52.5263L121.414 59.7426L121.413 59.7433C115.05 65.6088 104.935 59.7603 106.83 51.323L109.169 40.9237C109.227 40.6667 109.154 40.3903 108.973 40.194L108.972 40.1928L101.755 32.362L101.755 32.3613C95.8891 25.9984 101.738 15.8832 110.175 17.7777L120.574 20.1168C120.831 20.175 121.108 20.102 121.304 19.9209L121.305 19.9198L129.136 12.7035L129.137 12.7028ZM135.024 18.3497C134.921 18.3579 134.767 18.3929 134.559 18.585L134.558 18.5857L126.728 25.8017L126.726 25.8028C124.598 27.7647 121.636 28.5589 118.81 27.9198L118.807 27.9191L108.421 25.583C108.144 25.5212 107.993 25.568 107.9 25.6124C107.777 25.6707 107.636 25.7889 107.529 25.9737C107.422 26.1585 107.391 26.3396 107.401 26.4743C107.41 26.5768 107.445 26.7308 107.637 26.9392L107.638 26.9399L114.855 34.7714C116.816 36.8994 117.611 39.8619 116.972 42.6876L116.971 42.6914L114.635 53.0757C114.573 53.3531 114.62 53.5048 114.664 53.5983C114.722 53.7209 114.841 53.8622 115.026 53.9689C115.21 54.0756 115.391 54.1072 115.526 54.0964C115.629 54.0882 115.783 54.0532 115.991 53.8611L115.992 53.8604L123.822 46.6444L123.823 46.6434C125.952 44.6812 128.914 43.8871 131.741 44.5264L131.743 44.527L142.129 46.8631C142.405 46.9249 142.557 46.8781 142.65 46.8338C142.773 46.7755 142.914 46.6572 143.021 46.4724C143.127 46.2876 143.159 46.1065 143.148 45.9718C143.14 45.8694 143.105 45.7153 142.913 45.5069L142.912 45.5062L135.696 37.6758C133.733 35.5476 132.939 32.5842 133.578 29.7577L133.579 29.7547L135.915 19.3704L135.915 19.3692C135.977 19.0927 135.93 18.9411 135.886 18.8478C135.827 18.7252 135.709 18.5839 135.524 18.4772C135.339 18.3705 135.158 18.3389 135.024 18.3497Z" fill="var(--spectrum-global-color-gray-800, #292929)"/>
<path d="M96.613 76.4936L103.939 78.1442C106.818 78.7948 108.818 75.3369 106.812 73.1622L101.722 67.644C101.053 66.915 100.782 65.909 100.999 64.9391L102.649 57.6136C103.3 54.734 99.842 52.734 97.6673 54.74L92.1491 59.8305C91.4201 60.4992 90.4141 60.7703 89.4442 60.5534L82.1187 58.9028C79.2391 58.2522 77.2391 61.7101 79.2451 63.8848L84.3356 69.403C85.0043 70.132 85.2754 71.138 85.0585 72.1079L83.4079 79.4334C82.7573 82.313 86.2152 84.313 88.3899 82.307L93.9081 77.2165C94.6371 76.5478 95.6431 76.2767 96.613 76.4936Z" fill="var(--spectrum-global-color-gray-800, #292929)"/>
<path d="M62.0575 37.482C42.5441 32.2534 22.4866 43.8336 17.258 63.3471C13.9474 75.7023 17.3748 88.2821 25.2968 97.1748L25.5346 90.882C25.618 88.6744 27.4752 86.9524 29.6828 87.0359C31.8904 87.1193 33.6123 88.9765 33.5289 91.1841L32.9275 107.097C32.8461 109.25 31.0729 110.952 28.9176 110.946L12.424 110.893C10.2149 110.886 8.4297 109.09 8.43673 106.88C8.44375 104.671 10.2403 102.886 12.4494 102.893L19.7034 102.916C9.78847 92.0638 5.44154 76.537 9.53058 61.2765C15.9027 37.4953 40.3469 23.3825 64.1281 29.7546C74.4458 32.5192 82.9516 38.693 88.7454 46.7341C90.0369 48.5265 89.6308 51.0264 87.8385 52.3178C86.0461 53.6092 83.5462 53.2032 82.2548 51.4108C77.4992 44.8107 70.5302 39.7522 62.0575 37.482Z" fill="var(--spectrum-global-color-gray-800, #292929)"/>
<path fill-rule="evenodd" d="M139.067 84.7718C139.067 79.6171 134.889 75.4385 129.734 75.4385H116.296C114.087 75.4385 112.296 73.6476 112.296 71.4385C112.296 69.2293 114.087 67.4385 116.296 67.4385H129.734C139.307 67.4385 147.067 75.1989 147.067 84.7718V133.019C147.067 142.592 139.307 150.352 129.734 150.352H57.059C47.486 150.352 39.7256 142.592 39.7256 133.019V84.7718C39.7256 75.1989 47.486 67.4385 57.059 67.4385H72.0774C74.2865 67.4385 76.0774 69.2293 76.0774 71.4385C76.0774 73.6476 74.2865 75.4385 72.0774 75.4385H57.059C51.9043 75.4385 47.7256 79.6172 47.7256 84.7718V133.019C47.7256 133.456 47.7558 133.887 47.814 134.309L67.5672 103.791L67.5683 103.79C71.4156 97.8421 80.1272 97.842 83.9746 103.79L100.146 128.768L109 115.381L109.017 115.355C112.887 109.599 121.37 109.584 125.24 115.355L125.245 115.362L138.764 135.388C138.962 134.632 139.067 133.837 139.067 133.019V84.7718ZM52.8012 141.326C54.0778 141.982 55.5252 142.352 57.059 142.352H91.1611L95.3294 136.05L77.2578 108.135C76.5628 107.06 74.9803 107.06 74.2853 108.135L52.8012 141.326ZM133.328 141.635C132.222 142.097 131.008 142.352 129.734 142.352H100.753L115.662 119.81C116.373 118.765 117.906 118.78 118.597 119.812L118.606 119.825L133.328 141.635Z" fill="var(--spectrum-global-color-gray-800, #292929)"/>
<path d="M112.476 92.6567C112.476 95.9704 115.162 98.6567 118.476 98.6567C121.789 98.6567 124.476 95.9704 124.476 92.6567C124.476 89.343 121.789 86.6567 118.476 86.6567C115.162 86.6567 112.476 89.343 112.476 92.6567Z" fill="var(--spectrum-global-color-gray-800, #292929)"/>
</svg>
