<svg width="96" height="97" viewBox="0 0 96 97" xmlns="http://www.w3.org/2000/svg">
<path fill-rule="evenodd" d="M69.4142 48.4142L83.4142 34.4142C84.1953 33.6332 84.1953 32.3668 83.4142 31.5858L69.4142 17.5858C68.6332 16.8047 67.3668 16.8047 66.5858 17.5858C65.8047 18.3668 65.8047 19.6332 66.5858 20.4142L77.2017 31.0301H37.4023C23.8649 31.0301 12.8906 42.0044 12.8906 55.5419C12.8906 69.0793 23.8649 80.0536 37.4023 80.0536L53.3515 80.0536C54.4561 80.0536 55.3515 79.1581 55.3515 78.0536C55.3515 76.949 54.4561 76.0536 53.3515 76.0536L37.4023 76.0536C26.074 76.0536 16.8906 66.8702 16.8906 55.5419C16.8906 44.2135 26.074 35.0301 37.4023 35.0301H77.1414L66.5858 45.5858C65.8047 46.3668 65.8047 47.6332 66.5858 48.4142C67.3668 49.1953 68.6332 49.1953 69.4142 48.4142Z" fill="var(--spectrum-global-color-gray-800, #292929)"/>
</svg>
