<svg width="48" height="48" viewBox="0 0 48 48" xmlns="http://www.w3.org/2000/svg">
<path fill-rule="evenodd" d="M39.2502 24C39.2502 15.5777 32.4225 8.75 24.0002 8.75C17.9744 8.75 12.7624 12.2453 10.2856 17.3225L14.9572 15.8515C15.6157 15.6442 16.3176 16.0099 16.5249 16.6684C16.7323 17.3269 16.3666 18.0287 15.7081 18.2361L8.26604 20.5795C7.60756 20.7868 6.90566 20.4211 6.69832 19.7626L4.35492 12.3206C4.14758 11.6621 4.51329 10.9602 5.17177 10.7529C5.83026 10.5455 6.53215 10.9112 6.7395 11.5697L8.14097 16.0205C11.0618 10.2265 17.0653 6.25 24.0002 6.25C33.8032 6.25 41.7502 14.1969 41.7502 24C41.7502 33.803 33.8032 41.75 24.0002 41.75C16.3331 41.75 9.8044 36.8895 7.32129 30.0857C7.0846 29.4372 7.41846 28.7196 8.06697 28.4829C8.71549 28.2462 9.43309 28.5801 9.66977 29.2286C11.8044 35.0775 17.4166 39.25 24.0002 39.25C32.4225 39.25 39.2502 32.4223 39.2502 24Z" fill="var(--spectrum-global-color-gray-800, #292929)"/>
</svg>
