<svg width="48" height="48" viewBox="0 0 48 48" xmlns="http://www.w3.org/2000/svg">
<path fill-rule="evenodd" d="M14 10.25C11.3766 10.25 9.25 12.3766 9.25 15C9.25 17.6234 11.3766 19.75 14 19.75H24H34C36.6234 19.75 38.75 17.6234 38.75 15C38.75 12.3766 36.6234 10.25 34 10.25H14ZM34 22.25H25.25V25.75H34C38.0041 25.75 41.25 28.9959 41.25 33C41.25 37.0041 38.0041 40.25 34 40.25H14C9.99594 40.25 6.75 37.0041 6.75 33C6.75 28.9959 9.99594 25.75 14 25.75H22.75V22.25H14C9.99594 22.25 6.75 19.0041 6.75 15C6.75 10.9959 9.99594 7.75 14 7.75H34C38.0041 7.75 41.25 10.9959 41.25 15C41.25 19.0041 38.0041 22.25 34 22.25ZM24 28.25H14C11.3766 28.25 9.25 30.3766 9.25 33C9.25 35.6234 11.3766 37.75 14 37.75H34C36.6234 37.75 38.75 35.6234 38.75 33C38.75 30.3766 36.6234 28.25 34 28.25H24ZM15.5 15C15.5 15.8284 14.8284 16.5 14 16.5C13.1716 16.5 12.5 15.8284 12.5 15C12.5 14.1716 13.1716 13.5 14 13.5C14.8284 13.5 15.5 14.1716 15.5 15ZM14 34.5C14.8284 34.5 15.5 33.8284 15.5 33C15.5 32.1716 14.8284 31.5 14 31.5C13.1716 31.5 12.5 32.1716 12.5 33C12.5 33.8284 13.1716 34.5 14 34.5ZM18 13.75C17.3096 13.75 16.75 14.3096 16.75 15C16.75 15.6904 17.3096 16.25 18 16.25H23C23.6904 16.25 24.25 15.6904 24.25 15C24.25 14.3096 23.6904 13.75 23 13.75H18ZM16.75 33C16.75 32.3096 17.3096 31.75 18 31.75H23C23.6904 31.75 24.25 32.3096 24.25 33C24.25 33.6904 23.6904 34.25 23 34.25H18C17.3096 34.25 16.75 33.6904 16.75 33Z" fill="var(--spectrum-global-color-gray-800, #292929)"/>
</svg>
