<svg width="96" height="96" viewBox="0 0 96 96" xmlns="http://www.w3.org/2000/svg">
<path fill-rule="evenodd" d="M20.5293 28.5195C20.5293 24.1041 24.1139 20.5195 28.5293 20.5195H60.4793C61.5839 20.5195 62.4793 19.6241 62.4793 18.5195C62.4793 17.415 61.5839 16.5195 60.4793 16.5195H28.5293C21.9047 16.5195 16.5293 21.895 16.5293 28.5195V60.4695C16.5293 61.5741 17.4247 62.4695 18.5293 62.4695C19.6339 62.4695 20.5293 61.5741 20.5293 60.4695V28.5195ZM33.5293 27.5295C30.2156 27.5295 27.5293 30.2158 27.5293 33.5295V69.4795C27.5293 72.7933 30.2156 75.4795 33.5293 75.4795H69.4793C72.793 75.4795 75.4793 72.7933 75.4793 69.4795V33.5295C75.4793 30.2158 72.793 27.5295 69.4793 27.5295H69.0906V49.7397C69.0906 50.5397 68.2006 51.0097 67.5406 50.5697L62.6706 47.3197C62.3306 47.0997 61.9006 47.0997 61.5606 47.3197L56.6906 50.5697C56.0306 51.0197 55.1406 50.5397 55.1406 49.7397V27.5295H33.5293ZM23.5293 33.5295C23.5293 28.0067 28.0064 23.5295 33.5293 23.5295H69.4793C75.0021 23.5295 79.4793 28.0067 79.4793 33.5295V69.4795C79.4793 75.0024 75.0021 79.4795 69.4793 79.4795H33.5293C28.0064 79.4795 23.5293 75.0024 23.5293 69.4795V33.5295Z" fill="var(--spectrum-global-color-gray-800, #292929)"/>
</svg>
