<svg width="48" height="48" viewBox="0 0 48 48" xmlns="http://www.w3.org/2000/svg">
<path fill-rule="evenodd" d="M8.42969 9.95977C8.42969 7.57843 10.4419 5.75977 12.7897 5.75977H22.6297C23.7286 5.75977 24.8022 6.15773 25.6214 6.90562L25.6229 6.907L35.5567 15.9314L35.5587 15.9332C36.4225 16.713 36.9297 17.8163 36.9297 18.9898V25.0348C36.9297 25.7251 36.37 26.2848 35.6797 26.2848C34.9893 26.2848 34.4297 25.7251 34.4297 25.0348V19.2597H25.8292C24.0693 19.2597 22.4492 17.9356 22.4492 16.0697V8.25977H12.7897C11.6974 8.25977 10.9297 9.08111 10.9297 9.95977V34.0798C10.9297 34.9584 11.6974 35.7798 12.7897 35.7798H23.2797C23.97 35.7798 24.5297 36.3394 24.5297 37.0298C24.5297 37.7201 23.97 38.2798 23.2797 38.2798H12.7897C10.4419 38.2798 8.42969 36.4611 8.42969 34.0798V9.95977ZM24.9492 9.67256L32.7506 16.7597H25.8292C25.2292 16.7597 24.9492 16.3439 24.9492 16.0697V9.67256ZM26 35.0698C26 30.8898 29.39 27.4998 33.57 27.4998C37.75 27.4998 41.14 30.8898 41.14 35.0698C41.14 39.2498 37.75 42.6398 33.57 42.6398C29.39 42.6398 26 39.2498 26 35.0698ZM33.57 30.2398C32.88 30.2398 32.32 30.7998 32.32 31.4898V35.2398C32.32 35.9298 32.88 36.4898 33.57 36.4898C34.26 36.4898 34.82 35.9298 34.82 35.2398V31.4898C34.82 30.7998 34.26 30.2398 33.57 30.2398ZM34.86 39.1798C34.9 39.0898 34.94 38.9998 34.94 38.9098C34.96 38.8198 34.97 38.7298 34.97 38.6398C34.97 38.5498 34.96 38.4598 34.94 38.3698C34.93 38.2798 34.9 38.1898 34.86 38.0998C34.83 38.0198 34.79 37.9398 34.73 37.8598C34.68 37.7898 34.62 37.7198 34.56 37.6498C34.5 37.5898 34.42 37.5298 34.35 37.4798C34.27 37.4298 34.19 37.3798 34.11 37.3498C34.02 37.3098 33.93 37.2798 33.85 37.2698C33.67 37.2298 33.48 37.2298 33.3 37.2698C33.21 37.2798 33.12 37.3098 33.04 37.3498C32.95 37.3798 32.87 37.4298 32.8 37.4798C32.72 37.5297 32.65 37.5897 32.58 37.6497L32.58 37.6498C32.52 37.7198 32.46 37.7898 32.41 37.8598L32.41 37.8598C32.36 37.9398 32.31 38.0198 32.28 38.0998C32.24 38.1898 32.22 38.2798 32.2 38.3698C32.18 38.4598 32.17 38.5498 32.17 38.6398C32.17 38.7298 32.18 38.8198 32.2 38.9098C32.22 38.9998 32.24 39.0898 32.28 39.1798C32.31 39.2598 32.36 39.3398 32.41 39.4198C32.46 39.4897 32.52 39.5597 32.58 39.6297L32.58 39.6298C32.65 39.6898 32.72 39.7498 32.8 39.7998C32.87 39.8498 32.95 39.8998 33.04 39.9298C33.12 39.9698 33.21 39.9898 33.3 40.0098C33.39 40.0398 33.48 40.0398 33.57 40.0398C33.66 40.0398 33.76 40.0298 33.85 40.0098C33.8588 40.0076 33.8677 40.0054 33.8767 40.0031C33.9498 39.9851 34.0299 39.9654 34.11 39.9298C34.19 39.8998 34.27 39.8498 34.35 39.7998C34.42 39.7498 34.5 39.6898 34.56 39.6298C34.62 39.5598 34.68 39.4898 34.73 39.4198C34.79 39.3398 34.83 39.2598 34.86 39.1798Z" fill="var(--spectrum-global-color-gray-800, #292929)"/>
</svg>
