<svg width="160" height="160" viewBox="0 0 160 160" xmlns="http://www.w3.org/2000/svg">
<path fill-rule="evenodd" d="M127.703 34.5764C130.281 23.0937 116.516 15.138 107.859 23.1186L107.859 23.1192L94.8593 35.0986L94.8581 35.0996C93.8945 35.9884 92.5487 36.3477 91.2738 36.0589L91.2678 36.0575L74.0178 32.1775L74.0163 32.1772C62.5336 29.5988 54.578 43.3638 62.5585 52.0207L62.5592 52.0215L74.5385 65.0207L74.5396 65.0219C75.4284 65.9855 75.7877 67.3314 75.4989 68.6062L75.4975 68.6122L71.6175 85.8622L71.6172 85.8637C69.0388 97.3464 82.8038 105.302 91.4607 97.3215L91.4614 97.3208L104.461 85.3415L104.462 85.3404C105.426 84.4516 106.771 84.0923 108.046 84.3812L108.052 84.3825L125.302 88.2625L125.304 88.2628C136.786 90.8412 144.742 77.0763 136.761 68.4193L136.761 68.4186L124.781 55.4193L124.78 55.4182C123.892 54.4545 123.532 53.1087 123.821 51.8339L123.822 51.8278L127.702 34.5778L127.703 34.5764ZM113.281 29.0008C116.164 26.3428 120.758 28.9861 119.897 32.8222L119.897 32.8237L116.019 50.0662L116.018 50.0691C115.148 53.9129 116.229 57.9452 118.899 60.8407L118.9 60.8419L130.879 73.8407L130.879 73.8414C133.537 76.7242 130.894 81.3176 127.058 80.4575L127.056 80.4572L109.814 76.5789L109.811 76.5782C105.967 75.7084 101.935 76.7888 99.0393 79.4586L99.0381 79.4596L86.0393 91.4386L86.0386 91.4392C83.1558 94.0972 78.5624 91.454 79.4225 87.6178L79.4228 87.6164L83.3011 70.3739L83.3021 70.3695C84.1714 66.5262 83.0909 62.4945 80.4215 59.5993L80.4204 59.5982L68.4415 46.5993L68.4408 46.5986C65.7828 43.7158 68.426 39.1224 72.2622 39.9825L72.2624 39.9826L72.2636 39.9828L89.5061 43.8611L89.5101 43.8621C93.3536 44.7315 97.3854 43.651 100.281 40.9815L100.282 40.9804L113.281 29.0015L113.281 29.0008ZM64.2404 129.81L52.0804 127.07C50.4704 126.71 48.8004 127.16 47.5904 128.27L38.4304 136.72C34.8204 140.05 29.0804 136.73 30.1604 131.95L32.9004 119.79C33.2604 118.18 32.8104 116.51 31.7004 115.3L23.2504 106.14C19.9204 102.53 23.2404 96.7901 28.0204 97.8701L40.1804 100.61C41.7904 100.97 43.4604 100.52 44.6704 99.4101L53.8304 90.9601C57.4404 87.6301 63.1804 90.9501 62.1004 95.7301L59.3604 107.89C59.0004 109.5 59.4504 111.17 60.5604 112.38L69.0104 121.54C72.3404 125.15 69.0204 130.89 64.2404 129.81Z" fill="var(--spectrum-global-color-gray-800, #292929)"/>
</svg>
