<svg width="48" height="48" viewBox="0 0 48 48" xmlns="http://www.w3.org/2000/svg">
<path fill-rule="evenodd" d="M39.8936 10.1339C40.3818 9.64573 40.3818 8.85427 39.8936 8.36612C39.4055 7.87796 38.614 7.87796 38.1259 8.36612L29.1424 17.3496V11.8117C29.1424 11.1214 28.5827 10.5617 27.8924 10.5617C27.202 10.5617 26.6424 11.1214 26.6424 11.8117V20.3367C26.6424 21.0271 27.202 21.5867 27.8924 21.5867H36.4174C37.1077 21.5867 37.6674 21.0271 37.6674 20.3367C37.6674 19.6464 37.1077 19.0867 36.4174 19.0867H30.9408L39.8936 10.1339ZM21.6174 27.8625C21.6174 27.1722 21.0577 26.6125 20.3674 26.6125H11.8424C11.1521 26.6125 10.5924 27.1722 10.5924 27.8625C10.5924 28.5529 11.1521 29.1125 11.8424 29.1125H17.3697L8.36612 38.1161C7.87796 38.6043 7.87796 39.3957 8.36612 39.8839C8.85427 40.372 9.64573 40.372 10.1339 39.8839L19.1174 30.9004V36.3875C19.1174 37.0778 19.677 37.6375 20.3674 37.6375C21.0577 37.6375 21.6174 37.0778 21.6174 36.3875V27.8625Z" fill="var(--spectrum-global-color-gray-800, #292929)"/>
</svg>
