<svg width="96" height="96" viewBox="0 0 96 96" xmlns="http://www.w3.org/2000/svg">
<path fill-rule="evenodd" d="M30.0909 16C25.1156 16 21 19.9501 21 24.9231V71.0769C21 76.0499 25.1156 80 30.0909 80H67.9091C72.8844 80 77 76.0499 77 71.0769V43.9446C77 41.5623 76.0303 39.2877 74.3203 37.6182L54.8377 18.5967C53.1293 16.9288 50.8223 16 48.4265 16H30.0909ZM25 24.9231C25 22.249 27.2338 20 30.0909 20H48.4265C49.7919 20 51.0921 20.53 52.0433 21.4588L71.5259 40.4802C72.4756 41.4074 73 42.6545 73 43.9446V71.0769C73 73.751 70.7662 76 67.9091 76H30.0909C27.2338 76 25 73.751 25 71.0769V24.9231ZM44.3452 45.4647L55.5594 51.897C56.8153 52.6173 56.8131 54.4145 55.5555 55.1319L44.3258 61.5376C43.0682 62.255 41.4983 61.3545 41.5 59.9168L41.5155 47.0788C41.5172 45.6411 43.0893 44.7443 44.3452 45.4647Z" fill="var(--spectrum-global-color-gray-800, #292929)"/>
</svg>
