<svg width="160" height="160" viewBox="0 0 160 160" xmlns="http://www.w3.org/2000/svg">
<path fill-rule="evenodd" d="M55 40C55 35.5817 58.5817 32 63 32H97C101.418 32 105 35.5817 105 40V120C105 124.418 101.418 128 97 128H63C58.5817 128 55 124.418 55 120V40ZM63 24C54.1634 24 47 31.1634 47 40V120C47 128.837 54.1634 136 63 136H97C105.837 136 113 128.837 113 120V40C113 31.1634 105.837 24 97 24H63ZM85 116.5C85 118.985 82.9853 121 80.5 121C78.0147 121 76 118.985 76 116.5C76 114.015 78.0147 112 80.5 112C82.9853 112 85 114.015 85 116.5Z" fill="var(--spectrum-global-color-gray-800, #292929)"/>
</svg>
