<svg width="96" height="96" viewBox="0 0 96 96" xmlns="http://www.w3.org/2000/svg">
<path d="M57.81 17.62C59.1 17.62 60.31 18.93 59.68 20.42L52.09 38.3C51.66 39.32 52.13 40.49 53.15 40.92L64.87 45.88C66.14 46.42 66.5 48.04 65.58 49.06L39.78 77.7C39.35 78.17 38.83 78.38 38.32 78.38C37.03 78.38 35.82 77.08 36.45 75.59L43.81 58.13C44.24 57.12 43.77 55.95 42.76 55.52L31.12 50.51C29.87 49.97 29.51 48.36 30.42 47.34L56.35 18.31C56.78 17.83 57.3 17.63 57.81 17.63M57.81 13.62C56.11 13.62 54.53 14.34 53.36 15.64L27.43 44.67C26.15 46.11 25.63 48.08 26.05 49.96C26.47 51.84 27.77 53.42 29.54 54.18L39.36 58.41L32.77 74.04C31.98 75.9 32.17 78.01 33.27 79.66C34.38 81.34 36.32 82.38 38.33 82.38C40.02 82.38 41.6 81.67 42.76 80.38L68.56 51.74C69.86 50.3 70.38 48.31 69.96 46.42C69.54 44.53 68.23 42.95 66.44 42.2L56.56 38.02L63.37 21.99C64.16 20.12 63.98 18.02 62.88 16.36C61.77 14.68 59.83 13.63 57.82 13.63L57.81 13.62Z" fill="var(--spectrum-global-color-gray-800, #292929)"/>
</svg>
