<svg width="160" height="160" viewBox="0 0 160 160" xmlns="http://www.w3.org/2000/svg">
<path fill-rule="evenodd" d="M14.5348 30.5649C13.8388 30.7432 13.2919 31.2811 13.1022 31.9741C12.9124 32.667 13.1089 33.4086 13.6169 33.9166L29.346 49.6457C29.761 50.0607 30.3374 50.2725 30.9224 50.2249L42.9904 49.2428L65.9418 72.1942C67.5039 73.7563 70.0366 73.7563 71.5987 72.1942C73.1608 70.6321 73.1608 68.0995 71.5987 66.5374L48.6481 43.5868L49.6302 31.517C49.6778 30.932 49.4661 30.3556 49.051 29.9406L33.322 14.2115C32.8139 13.7035 32.0724 13.507 31.3795 13.6968C30.6865 13.8866 30.1486 14.4335 29.9703 15.1295L26.8227 27.4173L14.5348 30.5649ZM79.8191 27.9448C73.5085 27.9448 67.4688 29.0665 61.8828 31.118C59.8091 31.8796 57.5106 30.8159 56.749 28.7422C55.9874 26.6685 57.0511 24.3701 59.1248 23.6085C65.5811 21.2373 72.5537 19.9448 79.8191 19.9448C112.971 19.9448 139.847 46.82 139.847 79.9723C139.847 113.125 112.971 140 79.8191 140C46.6668 140 19.7916 113.125 19.7916 79.9723C19.7916 72.898 21.017 66.1011 23.2706 59.7881C24.0133 57.7075 26.302 56.6229 28.3825 57.3656C30.4631 58.1083 31.5476 60.397 30.8049 62.4776C28.8552 67.9396 27.7916 73.8274 27.7916 79.9723C27.7916 108.706 51.0851 132 79.8191 132C108.553 132 131.847 108.706 131.847 79.9723C131.847 51.2383 108.553 27.9448 79.8191 27.9448ZM79.8178 54.4623C76.4254 54.4623 73.1971 55.1224 70.2471 56.3174C68.1996 57.1468 65.8673 56.1593 65.0379 54.1118C64.2085 52.0643 65.196 49.732 67.2435 48.9026C71.1316 47.3277 75.3785 46.4623 79.8178 46.4623C98.3241 46.4623 113.326 61.4647 113.326 79.9709C113.326 98.4772 98.3241 113.48 79.8178 113.48C61.3115 113.48 46.3091 98.4772 46.3091 79.9709C46.3091 75.8347 47.0604 71.8648 48.4375 68.1963C49.2139 66.1281 51.5199 65.0808 53.5881 65.8572C55.6563 66.6336 56.7036 68.9396 55.9272 71.0078C54.8824 73.791 54.3091 76.8094 54.3091 79.9709C54.3091 94.059 65.7297 105.48 79.8178 105.48C93.9058 105.48 105.326 94.059 105.326 79.9709C105.326 65.8829 93.9058 54.4623 79.8178 54.4623ZM70.6802 85.6273C78.4093 84.9072 84.5613 78.7543 85.28 71.0248C88.3707 72.8862 90.438 76.2741 90.438 80.1449C90.438 86.0205 85.6749 90.7836 79.7993 90.7836C75.9292 90.7836 72.5418 88.7171 70.6802 85.6273Z" fill="var(--spectrum-global-color-gray-800, #292929)"/>
</svg>
