<svg width="48" height="48" viewBox="0 0 48 48" xmlns="http://www.w3.org/2000/svg">
<path fill-rule="evenodd" d="M33.7231 7.34059C32.0761 5.69359 29.4486 6.01952 27.8692 7.59888L25.5964 9.87171L14.3333 14.6795C13.0891 15.2106 12.1122 16.2843 11.7126 17.5752L6.51261 34.375C5.1602 38.7443 9.25723 42.8413 13.6265 41.4889L30.4263 36.2889C31.7173 35.8893 32.7909 34.9124 33.322 33.6682L38.1298 22.4052L40.4027 20.1323C41.982 18.553 42.3079 15.9255 40.6609 14.2785L33.7231 7.34059ZM15.3148 16.9788L26.023 12.4079L35.5937 21.9786L31.0227 32.6868C30.7762 33.2642 30.268 33.7209 29.6871 33.9007L12.8873 39.1007C12.1671 39.3236 11.4601 39.2823 10.8401 39.0507L20.8903 29.0413C21.0802 29.0874 21.2787 29.1119 21.4828 29.1119C22.8635 29.1119 23.9828 27.9926 23.9828 26.6119C23.9828 25.2312 22.8635 24.1119 21.4828 24.1119C20.1021 24.1119 18.9828 25.2312 18.9828 26.6119C18.9828 26.8554 19.0176 27.0908 19.0825 27.3134L9.02117 37.3338C8.72929 36.6742 8.65695 35.9021 8.90083 35.1142L14.1008 18.3144C14.2806 17.7336 14.7374 17.2253 15.3148 16.9788ZM38.6349 18.3646L37.0751 19.9244L28.0771 10.9265L29.637 9.36665C30.457 8.54667 31.4883 8.64132 31.9553 9.10836L38.8932 16.0462C39.3602 16.5133 39.4549 17.5446 38.6349 18.3646Z" fill="var(--spectrum-global-color-gray-800, #292929)"/>
</svg>
