<svg width="48" height="48" viewBox="0 0 48 48" xmlns="http://www.w3.org/2000/svg">
<path fill-rule="evenodd" d="M5.26562 16.8164C5.26562 13.9169 7.61613 11.5664 10.5156 11.5664H26.9804C29.8799 11.5664 32.2304 13.9169 32.2304 16.8164V18.3823L37.5476 14.4363C39.6921 12.8448 42.7344 14.3756 42.7344 17.0462V30.9013C42.7344 33.5652 39.7056 35.0977 37.5593 33.5198L32.2304 29.6022V31.1818C32.2304 34.0813 29.8799 36.4318 26.9804 36.4318H10.5156C7.61613 36.4318 5.26562 34.0813 5.26562 31.1818V16.8164ZM10.5156 14.0664C8.99684 14.0664 7.76562 15.2976 7.76562 16.8164V31.1818C7.76562 32.7006 8.99684 33.9318 10.5156 33.9318H26.9804C28.4992 33.9318 29.7304 32.7006 29.7304 31.1818V27.1317C29.7304 26.6604 29.9955 26.2292 30.4161 26.0164C30.8366 25.8036 31.3411 25.8454 31.7208 26.1246L39.0401 31.5056C39.5354 31.8697 40.2344 31.5161 40.2344 30.9013V17.0462C40.2344 16.4299 39.5323 16.0766 39.0374 16.4439L31.7253 21.8703C31.3461 22.1518 30.8405 22.1954 30.4186 21.9831C29.9967 21.7708 29.7304 21.3388 29.7304 20.8665V16.8164C29.7304 15.2976 28.4992 14.0664 26.9804 14.0664H10.5156Z" fill="var(--spectrum-global-color-gray-800, #292929)"/>
</svg>
