<svg width="96" height="96" viewBox="0 0 96 96" xmlns="http://www.w3.org/2000/svg">
<path fill-rule="evenodd" d="M26.562 27.4753C27.1796 25.9774 28.6398 25 30.26 25H62.49C64.1102 25 65.5704 25.9774 66.188 27.4753L68.8035 33.8188C68.4588 33.7734 68.1071 33.75 67.75 33.75H25C24.6429 33.75 24.2913 33.7734 23.9465 33.8188L26.562 27.4753ZM74.849 37.9876C74.8792 38.0608 74.9047 38.1347 74.9257 38.2091C75.4534 39.2765 75.75 40.4787 75.75 41.7501V49.5C75.75 50.6046 74.8546 51.5 73.75 51.5C72.6454 51.5 71.75 50.6046 71.75 49.5V41.7501C71.75 39.5409 69.9591 37.75 67.75 37.75H25C22.7909 37.75 21 39.5409 21 41.75V62.75C21 64.9592 22.7909 66.75 25 66.75H54.5C55.6046 66.75 56.5 67.6455 56.5 68.75C56.5 69.8546 55.6046 70.75 54.5 70.75H25C20.5817 70.75 17 67.1683 17 62.75V41.75C17 40.4787 17.2966 39.2765 17.8243 38.2091C17.8453 38.1347 17.8708 38.0608 17.901 37.9876L22.864 25.9505C24.0992 22.9548 27.0196 21 30.26 21H62.49C65.7304 21 68.6508 22.9548 69.886 25.9505L74.849 37.9876ZM38.5 50.5L55 50.5C56.1046 50.5 57 49.6046 57 48.5C57 47.3955 56.1046 46.5 55 46.5L38.5 46.5C37.3954 46.5 36.5 47.3955 36.5 48.5C36.5 49.6046 37.3954 50.5 38.5 50.5ZM73.6908 82.6799C81.362 82.6799 87.5808 76.4611 87.5808 68.7899C87.5808 61.1187 81.362 54.8999 73.6908 54.8999C66.0195 54.8999 59.8008 61.1187 59.8008 68.7899C59.8008 76.4611 66.0195 82.6799 73.6908 82.6799ZM75.8008 62.5C75.8008 61.3954 74.9053 60.5 73.8008 60.5C72.6962 60.5 71.8008 61.3954 71.8008 62.5V66.75H67.4414C66.3368 66.75 65.4414 67.6454 65.4414 68.75C65.4414 69.8546 66.3368 70.75 67.4414 70.75H71.8008V75C71.8008 76.1046 72.6962 77 73.8008 77C74.9053 77 75.8008 76.1046 75.8008 75V70.75H79.9414C81.046 70.75 81.9414 69.8546 81.9414 68.75C81.9414 67.6454 81.046 66.75 79.9414 66.75H75.8008V62.5Z" fill="var(--spectrum-global-color-gray-800, #292929)"/>
</svg>
