<svg width="160" height="160" viewBox="0 0 160 160" xmlns="http://www.w3.org/2000/svg">
<path fill-rule="evenodd" d="M85.1497 28.9004C71.6916 28.9004 60.2259 37.2114 55.0312 49.0067C53.1999 48.5652 51.292 48.3304 49.3297 48.3304C35.2181 48.3304 24.0797 60.2273 24.0797 74.5204C24.0797 75.3459 24.12 76.1556 24.1942 76.9486C16.4638 80.6193 11.1797 88.6833 11.1797 97.9404C11.1797 110.258 20.5766 120.568 32.656 121.018C32.8242 121.039 32.9956 121.05 33.1697 121.05H87.7997C90.0088 121.05 91.7997 119.26 91.7997 117.05C91.7997 114.841 90.0088 113.05 87.7997 113.05H33.5714C33.4615 113.039 33.3503 113.033 33.2379 113.031C25.611 112.901 19.1797 106.352 19.1797 97.9404C19.1797 90.8791 23.7511 85.0916 29.7412 83.3757C31.7681 82.7951 32.9963 80.7409 32.5484 78.6807C32.25 77.3078 32.0797 75.9247 32.0797 74.5204C32.0797 64.3135 39.9613 56.3304 49.3297 56.3304C51.6346 56.3304 53.8261 56.8109 55.8434 57.6824C56.8874 58.1334 58.0741 58.1187 59.1066 57.6419C60.1391 57.1651 60.9199 56.2713 61.2536 55.1841C64.5422 44.4701 74.0826 36.9004 85.1497 36.9004C98.8594 36.9004 110.269 48.5547 110.27 63.3098C110.27 63.3098 110.269 63.321 110.267 63.3698C110.267 63.3887 110.265 63.4131 110.264 63.4446L110.263 63.4624C110.259 63.5596 110.25 63.7495 110.25 63.9504C110.25 66.0676 111.899 67.8181 114.013 67.9434C118.24 68.194 122.142 69.7288 125.378 72.2064C127.132 73.5494 129.643 73.2161 130.986 71.462C132.329 69.708 131.995 67.1973 130.241 65.8544C126.736 63.1708 122.626 61.2694 118.153 60.4143C116.742 42.8972 102.646 28.9004 85.1497 28.9004ZM95.9902 102.59C95.9902 89.0603 106.96 78.0903 120.49 78.0903C134.02 78.0903 144.99 89.0603 144.99 102.59C144.99 116.12 134.02 127.09 120.49 127.09C106.96 127.09 95.9902 116.12 95.9902 102.59ZM131.41 113.52C132.97 111.95 132.97 109.42 131.41 107.86L126.15 102.6L131.41 97.3403C132.97 95.7703 132.97 93.2403 131.41 91.6803C129.85 90.1203 127.31 90.1203 125.75 91.6803L120.49 96.9403L115.23 91.6803C113.67 90.1203 111.13 90.1203 109.57 91.6803C108.01 93.2503 108.01 95.7803 109.57 97.3403L114.83 102.6L109.57 107.86C108.01 109.43 108.01 111.96 109.57 113.52C110.35 114.3 111.37 114.69 112.4 114.69C113.43 114.69 114.45 114.3 115.23 113.52L120.49 108.26L125.75 113.52C126.53 114.3 127.55 114.69 128.58 114.69C129.61 114.69 130.63 114.3 131.41 113.52Z" fill="var(--spectrum-global-color-gray-800, #292929)"/>
</svg>
