<svg width="48" height="48" viewBox="0 0 48 48" xmlns="http://www.w3.org/2000/svg">
<path fill-rule="evenodd" d="M24.9193 8.77726C26.6551 7.0563 29.6055 8.2858 29.6055 10.7301L29.6055 37.2686C29.6055 39.7063 26.6688 40.9388 24.9291 39.2312L19.0917 33.5015C18.9514 33.3639 18.7628 33.2868 18.5663 33.2868H14.3711C12.5762 33.2868 11.1211 31.8317 11.1211 30.0368V18.0257C11.1211 16.2308 12.5762 14.7757 14.3711 14.7757H18.5604C18.7582 14.7757 18.948 14.6975 19.0885 14.5583L24.9193 8.77726ZM26.8078 10.4802C26.7744 10.4858 26.7313 10.5012 26.6795 10.5526L20.9023 16.2804L20.9023 31.7757L26.6803 37.4471C26.7322 37.4979 26.7753 37.5132 26.8087 37.5187C26.8489 37.5254 26.8997 37.5212 26.9522 37.4992C27.0047 37.4771 27.0433 37.4438 27.0667 37.4105C27.0862 37.3827 27.1055 37.3413 27.1055 37.2686L27.1055 10.7301C27.1055 10.6571 27.086 10.6157 27.0666 10.588C27.0431 10.5547 27.0044 10.5213 26.9516 10.4994C26.8989 10.4774 26.8479 10.4733 26.8078 10.4802ZM18.4023 30.7868L18.4023 17.2757H14.3711C13.9569 17.2757 13.6211 17.6115 13.6211 18.0257V30.0368C13.6211 30.451 13.9569 30.7868 14.3711 30.7868H18.4023ZM31.644 17.2355C32.0591 16.6838 32.8428 16.5732 33.3944 16.9883C35.5093 18.5798 36.8808 21.1151 36.8808 23.9704C36.8808 26.8491 35.4868 29.4024 33.3423 30.9914C32.7877 31.4024 32.0048 31.2859 31.5938 30.7313C31.1828 30.1766 31.2993 29.3937 31.854 28.9827C33.3895 27.845 34.3808 26.0236 34.3808 23.9704C34.3808 21.9338 33.4055 20.1254 31.8911 18.9859C31.3395 18.5708 31.2289 17.7871 31.644 17.2355Z" fill="var(--spectrum-global-color-gray-800, #292929)"/>
</svg>
