<svg width="48" height="48" viewBox="0 0 48 48" xmlns="http://www.w3.org/2000/svg">
<path fill-rule="evenodd" d="M37.5161 8.36044C37.7376 7.94594 38.1723 7.66797 38.6701 7.66797C39.3919 7.66797 39.9771 8.25311 39.9771 8.97491C39.9771 9.24395 39.897 9.49087 39.7596 9.69732C39.4153 10.2146 39.5555 10.9129 40.0728 11.2572C40.59 11.6014 41.2884 11.4612 41.6326 10.944C42.0082 10.3797 42.2271 9.70114 42.2271 8.97491C42.2271 7.01047 40.6346 5.41797 38.6701 5.41797C37.3095 5.41797 36.1291 6.18232 35.5318 7.29976C35.2389 7.84771 35.4456 8.52935 35.9936 8.82225C36.5415 9.11515 37.2232 8.90839 37.5161 8.36044ZM34.441 12.4434C33.3055 12.4434 32.3166 13.0788 31.8138 14.0193C31.4884 14.6282 30.731 14.8579 30.1222 14.5325C29.5133 14.207 29.2836 13.4496 29.609 12.8408C30.5293 11.1192 32.3468 9.94336 34.441 9.94336C37.4653 9.94336 39.9171 12.3951 39.9171 15.4195C39.9171 16.5382 39.5803 17.5821 39.0022 18.4506C38.6197 19.0253 37.8438 19.1811 37.2691 18.7986C36.6944 18.4161 36.5386 17.6402 36.9211 17.0654C37.2344 16.5946 37.4171 16.0303 37.4171 15.4195C37.4171 13.7758 36.0846 12.4434 34.441 12.4434ZM24.3556 20.1855C25.2901 19.0549 26.6991 18.3379 28.2767 18.3379C31.0845 18.3379 33.3607 20.6141 33.3607 23.4219C33.3607 25.6426 31.9362 27.5337 29.9474 28.2254C29.2954 28.4522 28.9506 29.1646 29.1774 29.8166C29.4042 30.4687 30.1166 30.8134 30.7686 30.5867C33.7314 29.5563 35.8607 26.7394 35.8607 23.4219C35.8607 19.2334 32.4652 15.8379 28.2767 15.8379C25.9222 15.8379 23.8177 16.9122 22.4286 18.5928C21.9888 19.1249 22.0636 19.9128 22.5957 20.3526C23.1278 20.7925 23.9158 20.7176 24.3556 20.1855ZM8.14648 31.9942C8.14648 27.4572 11.8244 23.7793 16.3614 23.7793C20.8983 23.7793 24.5762 27.4572 24.5762 31.9942C24.5762 36.5311 20.8983 40.209 16.3614 40.209C11.8244 40.209 8.14648 36.5311 8.14648 31.9942ZM16.3614 21.2793C10.4437 21.2793 5.64648 26.0765 5.64648 31.9942C5.64648 37.9118 10.4437 42.709 16.3614 42.709C22.279 42.709 27.0762 37.9118 27.0762 31.9942C27.0762 26.0765 22.279 21.2793 16.3614 21.2793Z" fill="var(--spectrum-global-color-gray-800, #292929)"/>
</svg>
