<svg width="96" height="97" viewBox="0 0 96 97" xmlns="http://www.w3.org/2000/svg">
<path fill-rule="evenodd" d="M26.1982 16.6836C23.3841 16.6836 20.8215 18.3103 19.6331 20.8619L19.6327 20.8628L14.5433 31.8049L14.5431 31.8055L14.5428 31.806C13.5237 33.9939 13 36.3762 13 38.7835C13 43.3015 15.9349 47.1279 20 48.4862V70.4929C20 76.0157 24.4772 80.4929 30 80.4929H66C71.5228 80.4929 76 76.0157 76 70.4929V48.5207C80.1196 47.1938 83.1053 43.3404 83.1053 38.7835C83.1053 36.4355 82.6045 34.1137 81.6394 31.9742C81.619 31.9174 81.596 31.8613 81.5703 31.806L76.4805 20.8628L76.48 20.8619C75.2916 18.3103 72.7291 16.6836 69.9149 16.6836H26.1982ZM72 48.9804C68.9607 48.7342 66.2926 47.1669 64.5789 44.8529C62.7087 47.3784 59.7016 49.0144 56.3158 49.0144C52.93 49.0144 49.9229 47.3784 48.0526 44.8529C46.6015 46.8125 44.4659 48.2365 42 48.7764V64.4932H72V48.9804ZM38 48.8593C35.3566 48.3958 33.0594 46.9232 31.5263 44.8529C29.7929 47.1936 27.0829 48.7702 24 48.9884V70.4929C24 73.8066 26.6863 76.4929 30 76.4929H38.056C38.0194 76.3416 38 76.1837 38 76.0211V48.8593ZM39.7895 45.0144C36.3231 45.0144 33.5263 42.2174 33.5263 38.7835V38.3767C33.5263 37.2721 32.6309 36.3767 31.5263 36.3767C30.4217 36.3767 29.5263 37.2721 29.5263 38.3767V38.7835C29.5263 42.2174 26.7296 45.0144 23.2632 45.0144C19.7968 45.0144 17 42.2174 17 38.7835C17 36.9559 17.3977 35.1501 18.1692 33.4941L18.1697 33.493L23.2591 22.5507L23.2594 22.5501L23.2595 22.5497C23.7889 21.4141 24.9335 20.6836 26.1982 20.6836H69.9149C71.18 20.6836 72.3248 21.4145 72.854 22.5507L77.8708 33.3368C77.89 33.3892 77.9114 33.441 77.9351 33.492C78.7056 35.1507 79.1053 36.9575 79.1053 38.7835C79.1053 42.2174 76.3085 45.0144 72.8421 45.0144C69.3757 45.0144 66.5789 42.2174 66.5789 38.7835V38.3767C66.5789 37.2721 65.6835 36.3767 64.5789 36.3767C63.4744 36.3767 62.5789 37.2721 62.5789 38.3767V38.7835C62.5789 42.2174 59.7822 45.0144 56.3158 45.0144C52.8494 45.0144 50.0526 42.2174 50.0526 38.7835V38.3767C50.0526 37.2721 49.1572 36.3767 48.0526 36.3767C46.9481 36.3767 46.0526 37.2721 46.0526 38.3767V38.7835C46.0526 42.2174 43.2559 45.0144 39.7895 45.0144ZM42 68.4932H72V70.4929C72 73.8066 69.3137 76.4929 66 76.4929H41.944C41.9806 76.3416 42 76.1837 42 76.0211V68.4932Z" fill="var(--spectrum-global-color-gray-800, #292929)"/>
</svg>
