<svg width="48" height="48" viewBox="0 0 48 48" xmlns="http://www.w3.org/2000/svg">
<path fill-rule="evenodd" d="M16.25 13C16.25 11.4812 17.4812 10.25 19 10.25H29C30.5188 10.25 31.75 11.4812 31.75 13V35C31.75 36.5188 30.5188 37.75 29 37.75H19C17.4812 37.75 16.25 36.5188 16.25 35V13ZM19 7.75C16.1005 7.75 13.75 10.1005 13.75 13V35C13.75 37.8995 16.1005 40.25 19 40.25H29C31.8995 40.25 34.25 37.8995 34.25 35V13C34.25 10.1005 31.8995 7.75 29 7.75H19ZM25.5 34.5C25.5 35.3284 24.8284 36 24 36C23.1716 36 22.5 35.3284 22.5 34.5C22.5 33.6716 23.1716 33 24 33C24.8284 33 25.5 33.6716 25.5 34.5Z" fill="var(--spectrum-global-color-gray-800, #292929)"/>
</svg>
