<svg width="48" height="48" viewBox="0 0 48 48" xmlns="http://www.w3.org/2000/svg">
<path fill-rule="evenodd" d="M6.25 13C6.25 11.4812 7.48122 10.25 9 10.25H39C40.5188 10.25 41.75 11.4812 41.75 13V35C41.75 36.5188 40.5188 37.75 39 37.75H9C7.48122 37.75 6.25 36.5188 6.25 35V13ZM9 7.75C6.1005 7.75 3.75 10.1005 3.75 13V35C3.75 37.8995 6.1005 40.25 9 40.25H39C41.8995 40.25 44.25 37.8995 44.25 35V13C44.25 10.1005 41.8995 7.75 39 7.75H9ZM12.5 24C12.5 24.8284 11.8284 25.5 11 25.5C10.1716 25.5 9.5 24.8284 9.5 24C9.5 23.1716 10.1716 22.5 11 22.5C11.8284 22.5 12.5 23.1716 12.5 24Z" fill="var(--spectrum-global-color-gray-800, #292929)"/>
</svg>
