<svg width="96" height="96" viewBox="0 0 96 96" xmlns="http://www.w3.org/2000/svg">
<path fill-rule="evenodd" d="M19.3393 26.3327C16.0921 22.0167 19.105 15.74 24.5623 15.74H71.4375C76.8948 15.74 79.9077 22.0167 76.6605 26.3327C76.6393 26.3609 76.6174 26.3885 76.5947 26.4155L54.9504 52.2217V74.6766C54.9504 75.905 54.4279 77.0795 53.5072 77.8987L48.1603 82.6558L46.8309 81.1616L48.1603 82.6558C45.367 85.141 41.0494 83.0966 41.0494 79.4337V52.2217L19.4051 26.4155C19.3824 26.3885 19.3605 26.3609 19.3393 26.3327ZM22.5083 23.8909L44.5818 50.2088C44.8838 50.569 45.0494 51.024 45.0494 51.4941V79.4337C45.0494 79.5281 45.0735 79.5782 45.0942 79.609C45.12 79.6474 45.1625 79.6859 45.2197 79.7121C45.277 79.7383 45.3291 79.7431 45.366 79.7384C45.3932 79.7349 45.4375 79.7243 45.5015 79.6674L50.8484 74.9102L51.8996 76.0918L50.8484 74.9102C50.91 74.8554 50.9504 74.771 50.9504 74.6766V51.4941C50.9504 51.024 51.116 50.569 51.418 50.2088L73.4915 23.8909C74.7597 22.148 73.4992 19.74 71.4375 19.74H24.5623C22.5006 19.74 21.2401 22.148 22.5083 23.8909Z" fill="var(--spectrum-global-color-gray-800, #292929)"/>
</svg>
