<svg width="96" height="97" viewBox="0 0 96 97" xmlns="http://www.w3.org/2000/svg">
<path fill-rule="evenodd" d="M13.4902 16.6445C12.3857 16.6445 11.4902 17.54 11.4902 18.6445C11.4902 19.7491 12.3857 20.6445 13.4902 20.6445C13.6096 20.6445 13.8544 20.6461 14.2154 20.6485L14.2161 20.6485C14.5381 20.6507 14.9525 20.6534 15.4526 20.6561C16.5029 20.6619 17.9089 20.6675 19.5639 20.6669C21.5511 20.6662 23.2419 22.0965 23.5619 24.0374L29.4521 59.7585C30.0892 63.6223 33.4296 66.4569 37.3455 66.4569H69.6835C70.7881 66.4569 71.6835 65.5615 71.6835 64.4569C71.6835 63.3524 70.7881 62.4569 69.6835 62.4569H37.3455C35.3875 62.4569 33.7173 61.0396 33.3988 59.1077L32.1433 51.4941H67.1762C70.0423 51.4941 72.5082 49.4671 73.0628 46.6552L75.5326 34.1335C76.2621 30.435 73.4435 26.9822 69.6663 26.9732C55.2503 26.9388 33.4898 26.9045 28.0993 26.9688L27.5086 23.3866C26.8666 19.4935 23.4879 16.6655 19.5624 16.6669C17.9172 16.6675 16.5193 16.6619 15.4745 16.6562C15.001 16.6536 14.5953 16.6509 14.2715 16.6488L14.2714 16.6488L14.2713 16.6488L14.2713 16.6488C13.8882 16.6463 13.6199 16.6445 13.4902 16.6445ZM28.7577 30.9618L31.4838 47.4941H67.1762C68.1316 47.4941 68.9535 46.8185 69.1384 45.8812L71.6082 33.3594C71.8523 32.122 70.9104 30.9762 69.6567 30.9732C55.6364 30.9397 34.8773 30.9073 28.7577 30.9618ZM41.0078 78.4932C41.0078 81.2546 38.7692 83.4932 36.0078 83.4932C33.2464 83.4932 31.0078 81.2546 31.0078 78.4932C31.0078 75.7317 33.2464 73.4932 36.0078 73.4932C38.7692 73.4932 41.0078 75.7317 41.0078 78.4932ZM65.9316 83.4932C68.6931 83.4932 70.9316 81.2546 70.9316 78.4932C70.9316 75.7317 68.6931 73.4932 65.9316 73.4932C63.1702 73.4932 60.9316 75.7317 60.9316 78.4932C60.9316 81.2546 63.1702 83.4932 65.9316 83.4932Z" fill="var(--spectrum-global-color-gray-800, #292929)"/>
</svg>
