<svg width="96" height="96" viewBox="0 0 96 96" xmlns="http://www.w3.org/2000/svg">
<path fill-rule="evenodd" d="M18 29C18 24.0294 22.0294 20 27 20H69C73.9706 20 78 24.0294 78 29C78 33.9706 73.9706 38 69 38H48H27C22.0294 38 18 33.9706 18 29ZM50 42H69C76.1797 42 82 36.1797 82 29C82 21.8203 76.1797 16 69 16H27C19.8203 16 14 21.8203 14 29C14 36.1797 19.8203 42 27 42H46V53H27C19.8203 53 14 58.8203 14 66C14 73.1797 19.8203 79 27 79H69C76.1797 79 82 73.1797 82 66C82 58.8203 76.1797 53 69 53H50V42ZM27 57C22.0294 57 18 61.0294 18 66C18 70.9706 22.0294 75 27 75H69C73.9706 75 78 70.9706 78 66C78 61.0294 73.9706 57 69 57H27ZM30 66C30 67.3807 28.8807 68.5 27.5 68.5C26.1193 68.5 25 67.3807 25 66C25 64.6193 26.1193 63.5 27.5 63.5C28.8807 63.5 30 64.6193 30 66ZM32 66C32 64.8954 32.8954 64 34 64H44C45.1046 64 46 64.8954 46 66C46 67.1046 45.1046 68 44 68H34C32.8954 68 32 67.1046 32 66ZM27.5 31.5C28.8807 31.5 30 30.3807 30 29C30 27.6193 28.8807 26.5 27.5 26.5C26.1193 26.5 25 27.6193 25 29C25 30.3807 26.1193 31.5 27.5 31.5ZM34 27C32.8954 27 32 27.8954 32 29C32 30.1046 32.8954 31 34 31H44C45.1046 31 46 30.1046 46 29C46 27.8954 45.1046 27 44 27H34Z" fill="var(--spectrum-global-color-gray-800, #292929)"/>
</svg>
