<svg width="96" height="96" viewBox="0 0 96 96" xmlns="http://www.w3.org/2000/svg">
<path fill-rule="evenodd" d="M50 15C50 13.8954 49.1046 13 48 13C46.8954 13 46 13.8954 46 15V78C46 78.0605 46.0027 78.1204 46.0079 78.1795L35.4142 67.5858C34.6332 66.8047 33.3668 66.8047 32.5858 67.5858C31.8047 68.3668 31.8047 69.6332 32.5858 70.4142L46.5858 84.4142C47.3668 85.1953 48.6332 85.1953 49.4142 84.4142L63.4142 70.4142C64.1953 69.6332 64.1953 68.3668 63.4142 67.5858C62.6332 66.8047 61.3668 66.8047 60.5858 67.5858L49.9921 78.1795C49.9973 78.1204 50 78.0605 50 78V15ZM48.1795 79.9921C48.1204 79.9973 48.0605 80 48 80C47.9395 80 47.8796 79.9973 47.8205 79.9921L48 80.1716L48.1795 79.9921Z" fill="var(--spectrum-global-color-gray-800, #292929)"/>
</svg>
