<svg width="48" height="48" viewBox="0 0 48 48" xmlns="http://www.w3.org/2000/svg">
<path fill-rule="evenodd" d="M9.40078 7.44178C8.48303 5.74323 10.588 4.02806 12.0662 5.27008L23.1883 14.6154L29.681 7.44676C30.8887 6.11332 33.0807 7.25122 32.6852 9.00625L30.8148 17.3062H45.2441C47.2637 17.3062 47.6774 20.161 45.7409 20.7342L33.1863 24.4504L37.008 28.9493C38.1637 30.3097 36.7799 32.3242 35.0954 31.7338L29.2798 29.6954V41.9482C29.2798 43.8912 26.5865 44.387 25.8945 42.5714L21.3211 30.5708C18.3363 32.2871 14.2307 34.6145 11.834 35.9704C10.1778 36.9074 8.47967 34.9289 9.54881 33.4285C10.9568 31.4527 13.2029 28.2875 14.8509 25.9031L6.17629 23.6767C4.40729 23.2227 4.42911 20.7027 6.20571 20.2793L15.1815 18.1407L9.40078 7.44178ZM13.4711 9.71586L18.9292 19.8177L9.73361 22.0087L18.9196 24.3663L17.9265 25.836C16.8225 27.4699 15.0789 29.9528 13.5355 32.1331C16.1541 30.6473 19.2576 28.8801 21.3402 27.6736L22.6116 26.937L26.7798 37.8742V26.17L33.3116 28.4594L28.7953 23.1429L40.068 19.8062H27.6888L29.6194 11.2388L23.4243 18.079L13.4711 9.71586Z" fill="var(--spectrum-global-color-gray-800, #292929)"/>
</svg>
