<svg width="96" height="96" viewBox="0 0 96 96" xmlns="http://www.w3.org/2000/svg">
<path d="M42.7513 67.4768V69.4768C43.8559 69.4768 44.7513 68.5814 44.7513 67.4768H42.7513ZM42.7513 28.2267H44.7513C44.7513 27.1221 43.8559 26.2267 42.7513 26.2267V28.2267ZM47.9949 77.9768L47.9961 75.9768H47.9949V77.9768ZM48.0013 77.9768L48.0001 79.9768L48.0025 79.9768L48.0013 77.9768ZM48.0077 77.9768L48.0077 75.9768L48.0065 75.9768L48.0077 77.9768ZM53.2513 67.4768H51.2513C51.2513 68.5814 52.1468 69.4768 53.2513 69.4768V67.4768ZM53.2513 28.2267V26.2267C52.1468 26.2267 51.2513 27.1221 51.2513 28.2267H53.2513ZM67.6251 28.2267H69.6251C69.6251 27.1221 68.7297 26.2267 67.6251 26.2267V28.2267ZM78.1251 23.0166L76.1252 23.0017C76.1252 23.0067 76.1251 23.0117 76.1251 23.0166L78.1251 23.0166ZM76.5876 19.2644L78.0018 17.8502L78.0018 17.8502L76.5876 19.2644ZM76.4053 19.0906L75.06 20.5705L75.0601 20.5706L76.4053 19.0906ZM72.8366 17.7267V19.7267C72.8414 19.7267 72.8462 19.7267 72.851 19.7266L72.8366 17.7267ZM48.0398 17.7267L48.0327 19.7267H48.0398V17.7267ZM48.0013 17.7266L48.0085 15.7266C48.0037 15.7266 47.9989 15.7266 47.9942 15.7266L48.0013 17.7266ZM47.9628 17.7267L47.9628 19.7267L47.97 19.7267L47.9628 17.7267ZM28.375 28.2267V26.2267C27.2704 26.2267 26.375 27.1221 26.375 28.2267H28.375ZM44.7513 67.4768V28.2267H40.7513V67.4768H44.7513ZM38.0499 69.4768H42.7513V65.4768H38.0499V69.4768ZM34.7999 72.7268C34.7999 70.9319 36.2549 69.4768 38.0499 69.4768V65.4768C34.0458 65.4768 30.7999 68.7228 30.7999 72.7268H34.7999ZM38.0499 75.9768C36.2549 75.9768 34.7999 74.5218 34.7999 72.7268H30.7999C30.7999 76.7309 34.0458 79.9768 38.0499 79.9768V75.9768ZM47.9949 75.9768H38.0499V79.9768H47.9949V75.9768ZM48.0025 75.9768L47.9961 75.9768L47.9937 79.9768L48.0001 79.9768L48.0025 75.9768ZM48.0065 75.9768L48.0001 75.9768L48.0025 79.9768L48.0089 79.9768L48.0065 75.9768ZM57.95 75.9768H48.0077V79.9768H57.95V75.9768ZM61.2 72.7268C61.2 74.5218 59.7449 75.9768 57.95 75.9768V79.9768C61.954 79.9768 65.2 76.7309 65.2 72.7268H61.2ZM57.95 69.4768C59.7449 69.4768 61.2 70.9319 61.2 72.7268H65.2C65.2 68.7228 61.954 65.4768 57.95 65.4768V69.4768ZM53.2513 69.4768H57.95V65.4768H53.2513V69.4768ZM51.2513 28.2267V67.4768H55.2513V28.2267H51.2513ZM67.6251 26.2267H53.2513V30.2267H67.6251V26.2267ZM69.6251 32.9266V28.2267H65.6251V32.9266H69.6251ZM72.8751 36.1766C71.0802 36.1766 69.6251 34.7215 69.6251 32.9266H65.6251C65.6251 36.9307 68.8711 40.1766 72.8751 40.1766V36.1766ZM76.1251 32.9266C76.1251 34.7215 74.6701 36.1766 72.8751 36.1766V40.1766C76.8792 40.1766 80.1251 36.9307 80.1251 32.9266H76.1251ZM76.1251 23.0166V32.9266H80.1251V23.0166H76.1251ZM76.1253 22.9767C76.1253 22.9851 76.1253 22.9934 76.1252 23.0017L80.1251 23.0316C80.1252 23.0133 80.1253 22.995 80.1253 22.9767H76.1253ZM75.1734 20.6786C75.7637 21.2689 76.1253 22.0787 76.1253 22.9767H80.1253C80.1253 20.9752 79.3116 19.16 78.0018 17.8502L75.1734 20.6786ZM75.0601 20.5706C75.0987 20.6057 75.1365 20.6417 75.1734 20.6786L78.0018 17.8502C77.9199 17.7683 77.8361 17.6884 77.7504 17.6105L75.0601 20.5706ZM72.8751 19.7266C73.7177 19.7266 74.4814 20.0446 75.06 20.5705L77.7505 17.6106C76.4644 16.4416 74.751 15.7266 72.8751 15.7266V19.7266ZM72.851 19.7266C72.859 19.7266 72.8671 19.7266 72.8751 19.7266V15.7266C72.8575 15.7266 72.8399 15.7266 72.8223 15.7268L72.851 19.7266ZM48.0398 19.7267H72.8366V15.7267H48.0398V19.7267ZM47.9942 19.7265L48.0327 19.7267L48.047 15.7267L48.0085 15.7266L47.9942 19.7265ZM47.97 19.7267L48.0085 19.7265L47.9942 15.7266L47.9556 15.7267L47.97 19.7267ZM23.125 19.7267H47.9628V15.7267H23.125V19.7267ZM19.875 22.9767C19.875 21.1818 21.3301 19.7267 23.125 19.7267V15.7267C19.1209 15.7267 15.875 18.9726 15.875 22.9767H19.875ZM19.875 32.9268V22.9767H15.875V32.9268H19.875ZM23.125 36.1768C21.3301 36.1768 19.875 34.7217 19.875 32.9268H15.875C15.875 36.9308 19.1209 40.1768 23.125 40.1768V36.1768ZM26.375 32.9268C26.375 34.7217 24.9199 36.1768 23.125 36.1768V40.1768C27.1291 40.1768 30.375 36.9308 30.375 32.9268H26.375ZM26.375 28.2267V32.9268H30.375V28.2267H26.375ZM42.7513 26.2267H28.375V30.2267H42.7513V26.2267Z" fill="var(--spectrum-global-color-gray-800, #292929)"/>
</svg>
