<svg width="48" height="48" viewBox="0 0 48 48" xmlns="http://www.w3.org/2000/svg">
<path fill-rule="evenodd" d="M14.3784 12.3736C14.3784 9.37132 16.8122 6.9375 19.8145 6.9375C21.4984 6.9375 23.0034 7.70308 24.0005 8.90516C24.9976 7.70308 26.5027 6.9375 28.1865 6.9375C31.1888 6.9375 33.6226 9.37132 33.6226 12.3736C33.6226 13.4555 33.3065 14.4636 32.7617 15.3105H35.9674C38.3101 15.3105 40.2092 17.2097 40.2092 19.5524V21.5469C40.2092 23.0642 39.4125 24.3955 38.2146 25.1452V34.5115C38.2146 37.4049 35.869 39.7505 32.9756 39.7505H15.0247C12.1312 39.7505 9.78556 37.4049 9.78556 34.5115V25.1452C8.58769 24.3955 7.79102 23.0642 7.79102 21.5469V19.5524C7.79102 17.2097 9.69014 15.3105 12.0328 15.3105H15.2393C14.6945 14.4636 14.3784 13.4555 14.3784 12.3736ZM22.7505 12.347C22.7504 12.3559 22.7504 12.3647 22.7504 12.3736V15.3097H19.8145C18.193 15.3097 16.8784 13.9951 16.8784 12.3736C16.8784 10.752 18.193 9.4375 19.8145 9.4375C21.4272 9.4375 22.7362 10.7377 22.7505 12.347ZM25.2506 15.3097H28.1865C29.8081 15.3097 31.1226 13.9951 31.1226 12.3736C31.1226 10.752 29.8081 9.4375 28.1865 9.4375C26.5738 9.4375 25.2648 10.7377 25.2505 12.347C25.2506 12.3559 25.2506 12.3647 25.2506 12.3736V15.3097ZM12.0328 23.2887H22.7501V17.8105H12.0328C11.0709 17.8105 10.291 18.5904 10.291 19.5524V21.5469C10.291 22.5089 11.0709 23.2887 12.0328 23.2887ZM25.2501 17.8105V23.2887H35.9674C36.9294 23.2887 37.7092 22.5089 37.7092 21.5469V19.5524C37.7092 18.5904 36.9294 17.8105 35.9674 17.8105H25.2501ZM22.7501 25.7887H12.2856V34.5115C12.2856 36.0242 13.5119 37.2505 15.0247 37.2505H22.7501L22.7501 25.7887ZM25.2501 37.2505L25.2501 25.7887H35.7146V34.5115C35.7146 36.0242 34.4883 37.2505 32.9756 37.2505H25.2501Z" fill="var(--spectrum-global-color-gray-800, #292929)"/>
</svg>
