<svg width="48" height="48" viewBox="0 0 48 48" xmlns="http://www.w3.org/2000/svg">
<path fill-rule="evenodd" d="M35.5309 8.58208C36.6135 8.36626 37.623 9.19442 37.623 10.2983V11.8399L20.1403 15.3251V13.0859C20.1403 12.2513 20.7297 11.5329 21.5482 11.3697L35.5309 8.58208ZM20.1403 17.8743V34.8258C20.1403 34.8439 20.1399 34.8619 20.1392 34.8798C20.1694 35.8942 19.8324 36.898 19.2857 37.7679C18.4678 39.0691 17.122 40.1912 15.473 40.8996C13.824 41.6079 12.0837 41.8116 10.5769 41.509C9.07623 41.2077 7.68068 40.3642 7.04374 38.8815C6.4068 37.3987 6.75572 35.8059 7.57022 34.51C8.38809 33.2087 9.73386 32.0867 11.3829 31.3783C13.0319 30.6699 14.7722 30.4663 16.279 30.7688C16.7499 30.8634 17.2103 31.0113 17.6403 31.2156V13.0859C17.6403 11.059 19.0716 9.31421 21.0594 8.91793L35.0421 6.13033C37.6712 5.60618 40.123 7.61743 40.123 10.2983V30.9834C40.1243 31.043 40.1243 31.1025 40.123 31.162V31.2894C40.123 31.3719 40.115 31.4525 40.0998 31.5305C40.0147 32.3425 39.71 33.132 39.2686 33.8343C38.4507 35.1355 37.1049 36.2576 35.4559 36.966C33.8069 37.6743 32.0666 37.878 30.5598 37.5754C29.0591 37.2741 27.6636 36.4306 27.0267 34.9479C26.3897 33.4652 26.7386 31.8723 27.5531 30.5764C28.371 29.2751 29.7168 28.1531 31.3658 27.4447C33.0148 26.7363 34.7551 26.5327 36.2619 26.8353C36.7327 26.9298 37.1931 27.0777 37.623 27.2819V14.3891L20.1403 17.8743ZM9.68685 35.8403C9.16801 36.6658 9.12073 37.3825 9.34076 37.8947C9.5608 38.4069 10.1132 38.866 11.0691 39.0579C12.0188 39.2486 13.2437 39.1363 14.4863 38.6025C15.7289 38.0687 16.6536 37.2576 17.169 36.4375C17.6879 35.612 17.7352 34.8954 17.5151 34.3832C17.2951 33.8709 16.7427 33.4119 15.7868 33.2199C14.8371 33.0292 13.6122 33.1415 12.3696 33.6753C11.127 34.2091 10.2023 35.0202 9.68685 35.8403ZM29.3237 33.9611C29.1036 33.4489 29.1509 32.7322 29.6698 31.9068C30.1852 31.0866 31.1099 30.2755 32.3525 29.7417C33.5951 29.2079 34.82 29.0956 35.7697 29.2863C36.7256 29.4783 37.278 29.9373 37.498 30.4496C37.7181 30.9618 37.6708 31.6784 37.1519 32.5039C36.6365 33.324 35.7118 34.1351 34.4692 34.6689C33.2266 35.2027 32.0017 35.3151 31.052 35.1243C30.0961 34.9324 29.5437 34.4733 29.3237 33.9611Z" fill="var(--spectrum-global-color-gray-800, #292929)"/>
</svg>
