<svg width="96" height="97" viewBox="0 0 96 97" xmlns="http://www.w3.org/2000/svg">
<path fill-rule="evenodd" d="M43.2464 12.8678C46.387 11.0246 50.2814 11.0343 53.4128 12.8933L77.3999 27.1332C80.4348 28.9348 82.2952 32.2028 82.2952 35.7321V62.5739C82.2952 66.1969 80.3356 69.5366 77.1728 71.3037L53.1867 84.7054C50.1705 86.3906 46.4982 86.3995 43.4739 84.729L19.1648 71.3012C15.9783 69.541 14 66.1882 14 62.5478V35.7586C14 32.2115 15.8791 28.9297 18.9383 27.1343L43.2464 12.8678ZM51.3709 16.3328C49.4921 15.2175 47.1554 15.2116 45.2711 16.3176L20.963 30.584C20.4892 30.8621 20.0625 31.1996 19.6903 31.584L48.1576 46.7757L76.848 31.8241C76.4288 31.3356 75.9279 30.9111 75.358 30.5728L51.3709 16.3328ZM18 35.7586C18 35.5806 18.0079 35.4037 18.0234 35.2284L46.3313 50.335V81.6404C46.0153 81.5301 45.7064 81.3925 45.408 81.2277L21.0989 67.7998C19.187 66.7437 18 64.732 18 62.5478V35.7586ZM50.3313 81.6247C50.6408 81.5139 50.9434 81.3768 51.2356 81.2135L75.2217 67.8118C77.1194 66.7515 78.2952 64.7477 78.2952 62.5739V35.7321C78.2952 35.6818 78.2946 35.6316 78.2933 35.5815L50.3313 50.1535V81.6247Z" fill="var(--spectrum-global-color-gray-800, #292929)"/>
</svg>
