<svg width="96" height="96" viewBox="0 0 96 96" xmlns="http://www.w3.org/2000/svg">
<path fill-rule="evenodd" d="M40.119 18.0246C33.1575 19.8497 27.1519 24.0358 23.0096 29.6756H33.5583C35.1769 25.664 37.3604 21.7575 40.119 18.0246ZM17.0567 46.3512C17.2954 41.7959 18.518 37.5012 20.5159 33.6756H32.141C30.8663 37.839 30.178 42.0886 30.0653 46.3512H17.0567ZM34.0674 46.3512C34.1921 42.0803 34.9479 37.8273 36.3451 33.6756H45.9675V46.3512H34.0674ZM49.9675 46.3512V33.6756H59.6534C61.0507 37.8273 61.8064 42.0803 61.9312 46.3512H49.9675ZM49.9675 29.6756H58.0933C56.1621 25.3346 53.4999 21.1389 50.0941 17.1888C50.0628 17.1525 50.0331 17.1154 50.0048 17.0775L49.9675 17.0752V29.6756ZM65.9332 46.3512C65.8205 42.0886 65.1323 37.839 63.8575 33.6756H75.4823C77.4802 37.5012 78.7027 41.7959 78.9414 46.3512H65.9332ZM62.4403 29.6756H72.9886C68.8463 24.036 62.8409 19.8499 55.8796 18.0247C58.6382 21.7576 60.8217 25.6641 62.4403 29.6756ZM37.9053 29.6756H45.9675V17.1119C45.9472 17.1379 45.9262 17.1636 45.9044 17.1888C42.4987 21.1389 39.8365 25.3346 37.9053 29.6756ZM45.9675 50.3512H34.1346C34.4017 54.6125 35.2928 58.8658 36.7975 63.0288H45.9675V50.3512ZM45.9675 67.0288H38.4458C40.3394 71.1119 42.8393 75.0787 45.9352 78.8477C45.9462 78.8611 45.9569 78.8746 45.9675 78.8881V67.0288ZM32.5686 63.0288C31.1912 58.8614 30.3741 54.6112 30.1281 50.3512H17.1016C17.445 54.9258 18.7816 59.2233 20.8965 63.0288H32.5686ZM23.544 67.0288H34.074C35.668 70.797 37.7308 74.4757 40.2538 78.0086C33.5294 76.2781 27.6883 72.3471 23.544 67.0288ZM49.9675 67.0288H57.5527C55.6592 71.1119 53.1593 75.0787 50.0634 78.8477C50.0437 78.8717 50.0247 78.896 50.0063 78.9205L49.9675 78.923V67.0288ZM59.2011 63.0288H49.9675V50.3512H61.864C61.5969 54.6125 60.7058 58.8658 59.2011 63.0288ZM61.9246 67.0288C60.3305 70.797 58.2678 74.4756 55.7448 78.0085C62.4691 76.2779 68.31 72.3469 72.4542 67.0288H61.9246ZM75.1017 63.0288H63.43C64.8073 58.8614 65.6245 54.6112 65.8704 50.3512H78.8966C78.5532 54.9258 77.2166 59.2233 75.1017 63.0288ZM13.0137 47.9991C13.0137 28.6772 28.6772 13.0137 47.9991 13.0137C67.321 13.0137 82.9845 28.6772 82.9845 47.9991C82.9845 67.321 67.321 82.9845 47.9991 82.9845C28.6772 82.9845 13.0137 67.321 13.0137 47.9991Z" fill="var(--spectrum-global-color-gray-800, #292929)"/>
</svg>
