<svg width="96" height="96" viewBox="0 0 96 96" xmlns="http://www.w3.org/2000/svg">
<path fill-rule="evenodd" d="M28.756 9.01562C28.756 7.91106 27.8606 7.01562 26.756 7.01562C25.6514 7.01562 24.756 7.91106 24.756 9.01562V14.8068C24.756 15.9114 25.6514 16.8068 26.756 16.8068C27.8606 16.8068 28.756 15.9114 28.756 14.8068V9.01562ZM14.0156 19.7562C12.9111 19.7562 12.0156 20.6517 12.0156 21.7562C12.0156 22.8608 12.9111 23.7562 14.0156 23.7562H19.8068C20.9114 23.7562 21.8068 22.8608 21.8068 21.7562C21.8068 20.6517 20.9114 19.7562 19.8068 19.7562H14.0156ZM33.7054 23.7562C30.9719 23.7562 28.756 25.9722 28.756 28.7056V75.0349C28.756 77.7684 30.9719 79.9843 33.7054 79.9843H70.7688C73.5023 79.9843 75.7182 77.7684 75.7182 75.0349V47.0088C75.7182 46.9795 75.718 46.9501 75.7174 46.9208H58.6077C54.9445 46.9208 51.9748 43.9512 51.9748 40.2879V23.7612C51.9009 23.7579 51.8268 23.7562 51.7525 23.7562H33.7054ZM55.9748 25.9001V40.2879C55.9748 41.742 57.1536 42.9208 58.6077 42.9208H73.6587L55.9748 25.9001ZM24.756 28.7056C24.756 23.763 28.7628 19.7562 33.7054 19.7562H51.7525C54.0668 19.7562 56.2912 20.6528 57.9586 22.2577L76.975 40.5609C78.7278 42.248 79.7182 44.576 79.7182 47.0088V75.0349C79.7182 79.9776 75.7114 83.9843 70.7688 83.9843H33.7054C28.7628 83.9843 24.756 79.9776 24.756 75.0349V28.7056Z" fill="var(--spectrum-global-color-gray-800, #292929)"/>
</svg>
