<svg width="48" height="48" viewBox="0 0 48 48" xmlns="http://www.w3.org/2000/svg">
<path fill-rule="evenodd" d="M25.25 7.49219C25.25 6.80183 24.6904 6.24219 24 6.24219C23.3096 6.24219 22.75 6.80183 22.75 7.49219L22.75 40.5078C22.75 41.1982 23.3096 41.7578 24 41.7578C24.6904 41.7578 25.25 41.1982 25.25 40.5078L25.25 7.49219ZM9.125 20.2578C9.81536 20.2578 10.375 20.8175 10.375 21.5078L10.375 26.4922C10.375 27.1825 9.81536 27.7422 9.125 27.7422C8.43464 27.7422 7.875 27.1825 7.875 26.4922V21.5078C7.875 20.8175 8.43464 20.2578 9.125 20.2578ZM38.8745 20.2578C39.5649 20.2578 40.1245 20.8175 40.1245 21.5078V26.4922C40.1245 27.1825 39.5649 27.7422 38.8745 27.7422C38.1842 27.7422 37.6245 27.1825 37.6245 26.4922V21.5078C37.6245 20.8175 38.1842 20.2578 38.8745 20.2578ZM19.0415 14.251C19.7319 14.251 20.2915 14.8106 20.2915 15.501L20.2915 32.499C20.2915 33.1894 19.7319 33.749 19.0415 33.749C18.3511 33.749 17.7915 33.1894 17.7915 32.499L17.7915 15.501C17.7915 14.8106 18.3511 14.251 19.0415 14.251ZM30.208 15.501C30.208 14.8106 29.6484 14.251 28.958 14.251C28.2677 14.251 27.708 14.8106 27.708 15.501V32.499C27.708 33.1894 28.2677 33.749 28.958 33.749C29.6484 33.749 30.208 33.1894 30.208 32.499V15.501ZM14.0835 10.25C14.7739 10.25 15.3335 10.8096 15.3335 11.5L15.3335 36.5C15.3335 37.1904 14.7739 37.75 14.0835 37.75C13.3931 37.75 12.8335 37.1904 12.8335 36.5L12.8335 11.5C12.8335 10.8096 13.3931 10.25 14.0835 10.25ZM35.1665 11.5C35.1665 10.8096 34.6069 10.25 33.9165 10.25C33.2261 10.25 32.6665 10.8096 32.6665 11.5L32.6665 36.5C32.6665 37.1904 33.2261 37.75 33.9165 37.75C34.6069 37.75 35.1665 37.1904 35.1665 36.5L35.1665 11.5Z" fill="var(--spectrum-global-color-gray-800, #292929)"/>
</svg>
