<svg width="160" height="160" viewBox="0 0 160 160" xmlns="http://www.w3.org/2000/svg">
<path fill-rule="evenodd" d="M80 28C51.2812 28 28 51.2812 28 80C28 93.3361 33.0203 105.5 41.2741 114.704C49.2218 101.598 63.6395 92.748 80.0023 92.748C96.3639 92.748 110.779 101.605 118.726 114.703C126.98 105.499 132 93.3358 132 80C132 51.2812 108.719 28 80 28ZM80 132C67.5805 132 56.1779 127.646 47.2354 120.381C53.5774 108.712 65.9549 100.748 80.0023 100.748C94.045 100.748 106.421 108.716 112.765 120.381C103.823 127.646 92.4199 132 80 132ZM20 80C20 46.8629 46.8629 20 80 20C113.137 20 140 46.8629 140 80C140 113.137 113.137 140 80 140C46.8629 140 20 113.137 20 80ZM63.4888 62.8361C63.4888 52.7333 71.1165 44.9824 80.0011 44.9824C88.8857 44.9824 96.5135 52.7333 96.5135 62.8361C96.5135 72.9389 88.8857 80.6898 80.0011 80.6898C71.1165 80.6898 63.4888 72.9389 63.4888 62.8361ZM80.0011 36.9824C66.2284 36.9824 55.4888 48.8 55.4888 62.8361C55.4888 76.8723 66.2284 88.6898 80.0011 88.6898C93.7738 88.6898 104.513 76.8723 104.513 62.8361C104.513 48.8 93.7738 36.9824 80.0011 36.9824Z" fill="var(--spectrum-global-color-gray-800, #292929)"/>
</svg>
