<svg width="48" height="48" viewBox="0 0 48 48" xmlns="http://www.w3.org/2000/svg">
<path fill-rule="evenodd" d="M28.2348 8C25.2163 8 22.6367 10.6307 22.6367 14.0446C22.6367 17.4586 25.2163 20.0893 28.2348 20.0893C31.2532 20.0893 33.8328 17.4586 33.8328 14.0446C33.8328 10.6307 31.2532 8 28.2348 8ZM20.1367 14.0446C20.1367 9.40114 23.6891 5.5 28.2348 5.5C32.7804 5.5 36.3328 9.40114 36.3328 14.0446C36.3328 18.6882 32.7804 22.5893 28.2348 22.5893C23.6891 22.5893 20.1367 18.6882 20.1367 14.0446ZM19.1772 8.05655C19.8601 7.95529 20.3316 7.31961 20.2303 6.63672C20.1291 5.95383 19.4934 5.48233 18.8105 5.58359C14.8176 6.17567 11.8486 9.7917 11.8486 14.0447C11.8486 18.3122 14.8383 21.939 18.852 22.5118C19.5354 22.6093 20.1685 22.1344 20.2661 21.4509C20.3636 20.7675 19.8887 20.1344 19.2052 20.0369C16.523 19.6541 14.3486 17.1714 14.3486 14.0447C14.3486 10.929 16.508 8.45235 19.1772 8.05655ZM16.4292 26.6754C17.0913 26.48 17.4697 25.7849 17.2744 25.1228C17.079 24.4606 16.3839 24.0822 15.7218 24.2775C10.4048 25.8462 6.26022 30.2582 5.08344 35.7283C4.59874 37.9812 6.28379 40.1531 8.63084 40.1531H10.2695C10.9599 40.1531 11.5195 39.5934 11.5195 38.9031C11.5195 38.2127 10.9599 37.6531 10.2695 37.6531H8.63084C7.91711 37.6531 7.3691 36.9904 7.52752 36.2541C8.50996 31.6874 11.9818 27.9875 16.4292 26.6754ZM15.7726 36.254C17.0069 30.5167 22.1615 26.1621 28.2347 26.1621C34.3079 26.1621 39.4626 30.5167 40.6969 36.254C40.8553 36.9903 40.3073 37.653 39.5935 37.653H28.2347H16.8759C16.1622 37.653 15.6142 36.9903 15.7726 36.254ZM28.2347 23.6621C20.9513 23.6621 14.8037 28.8709 13.3285 35.7281C12.8438 37.9811 14.5289 40.153 16.8759 40.153H28.2347H39.5935C41.9406 40.153 43.6256 37.9811 43.1409 35.7281C41.6658 28.8709 35.5182 23.6621 28.2347 23.6621Z" fill="var(--spectrum-global-color-gray-800, #292929)"/>
</svg>
