<svg width="160" height="160" viewBox="0 0 160 160" xmlns="http://www.w3.org/2000/svg">
<path fill-rule="evenodd" d="M56.9116 47.7734L56.9192 47.7734L65.3705 62.4115C61.411 65.7559 58.6127 70.4321 57.6666 75.749H40.7834C39.4031 73.3465 36.8114 71.7285 33.8418 71.7285C29.4235 71.7285 25.8418 75.3102 25.8418 79.7285C25.8418 84.1468 29.4235 87.7285 33.8418 87.7285C36.7945 87.7285 39.3735 86.1289 40.7596 83.749H57.6663C58.6121 89.0666 61.4104 93.7433 65.3702 97.0881L56.9429 111.685L56.9116 111.685C52.4933 111.685 48.9116 115.266 48.9116 119.685C48.9116 124.103 52.4933 127.685 56.9116 127.685C61.3299 127.685 64.9116 124.103 64.9116 119.685C64.9116 118.238 64.5277 116.881 63.8562 115.71L72.2953 101.093C74.7009 101.962 77.2954 102.435 80.0004 102.435C82.7053 102.435 85.2997 101.962 87.7051 101.094L96.124 115.675C95.44 116.854 95.0483 118.224 95.0483 119.685C95.0483 124.103 98.6301 127.685 103.048 127.685C107.467 127.685 111.048 124.103 111.048 119.685C111.048 115.269 107.472 111.69 103.058 111.685L94.6303 97.0883C98.5903 93.7435 101.389 89.0667 102.335 83.749L119.2 83.749C120.586 86.1289 123.165 87.7285 126.118 87.7285C130.536 87.7285 134.118 84.1468 134.118 79.7285C134.118 75.3102 130.536 71.7285 126.118 71.7285C123.148 71.7285 120.556 73.3465 119.176 75.749L102.334 75.749C101.388 70.4318 98.5895 65.7554 94.6296 62.411L103.081 47.7734C107.484 47.756 111.048 44.1809 111.048 39.7734C111.048 35.3552 107.467 31.7734 103.048 31.7734C98.6301 31.7734 95.0483 35.3552 95.0483 39.7734C95.0483 41.2426 95.4444 42.6194 96.1356 43.8026L87.7043 58.406C85.2991 57.5377 82.705 57.0645 80.0004 57.0645C77.2955 57.0645 74.7012 57.5379 72.2957 58.4063L63.8444 43.7682C64.5232 42.5927 64.9116 41.2284 64.9116 39.7734C64.9116 35.3552 61.3299 31.7734 56.9116 31.7734C52.4933 31.7734 48.9116 35.3552 48.9116 39.7734C48.9116 44.1917 52.4933 47.7734 56.9116 47.7734ZM80.0004 65.0645C71.8899 65.0645 65.3149 71.6394 65.3149 79.7499C65.3149 87.8605 71.8899 94.4354 80.0004 94.4354C88.111 94.4354 94.6859 87.8605 94.6859 79.7499C94.6859 71.6394 88.111 65.0645 80.0004 65.0645Z" fill="var(--spectrum-global-color-gray-800, #292929)"/>
</svg>
