<svg width="96" height="96" viewBox="0 0 96 96" xmlns="http://www.w3.org/2000/svg">
<path fill-rule="evenodd" d="M54.3325 13.778C50.6488 10.7641 45.3514 10.7641 41.6677 13.778L19.6676 31.778C17.3463 33.6773 16 36.5183 16 39.5176V69.9993C16 75.5221 20.4772 79.9993 26 79.9993H70C75.5229 79.9993 80 75.5221 80 69.9993V39.5176C80 36.5182 78.6537 33.6773 76.3324 31.778L54.3325 13.778ZM44.2007 16.8738C46.4109 15.0655 49.5893 15.0655 51.7995 16.8738L73.7994 34.8738C75.1922 36.0134 76 37.718 76 39.5176V69.9993C76 73.313 73.3137 75.9993 70 75.9993H60V55.999C60 51.5807 56.4183 47.999 52 47.999H44C39.5817 47.999 36 51.5807 36 55.999V75.9993H26C22.6863 75.9993 20 73.313 20 69.9993V39.5176C20 37.718 20.8078 36.0134 22.2006 34.8738L44.2007 16.8738ZM40 75.9993H56V55.999C56 53.7899 54.2091 51.999 52 51.999H44C41.7909 51.999 40 53.7899 40 55.999V75.9993Z" fill="var(--spectrum-global-color-gray-800, #292929)"/>
</svg>
