<svg width="48" height="48" viewBox="0 0 48 48" xmlns="http://www.w3.org/2000/svg">
<path fill-rule="evenodd" d="M18.9667 7.15441C23.8761 5.54449 29.1397 6.08143 32.5671 7.62775C39.5972 10.7994 41.9176 17.617 40.8903 23.4541C39.8722 29.2391 35.4443 34.4628 28.7323 33.9984C22.5777 33.5726 19.2538 31.2365 17.9062 28.1587C16.6115 25.202 17.3312 21.9606 18.3758 20.0312C21.0765 15.0432 25.6978 14.2822 28.544 14.3727C30.4191 14.4322 31.5452 16.1271 31.3962 17.747L30.1309 31.5056C34.5244 31.2018 37.6276 27.5698 38.4281 23.0208C39.2921 18.1114 37.3548 12.5304 31.539 9.90657C28.6806 8.61697 24.0616 8.11463 19.7457 9.52995C15.5042 10.9208 11.5474 14.1614 9.83694 20.4394C8.48393 25.4052 10.0637 30.1623 13.1098 33.6904C16.175 37.2407 20.6169 39.4185 24.7669 39.2989C25.4569 39.279 26.0325 39.8223 26.0524 40.5123C26.0723 41.2024 25.529 41.778 24.8389 41.7978C19.8102 41.9428 14.6844 39.3398 11.2175 35.3242C7.73142 31.2864 5.81457 25.6923 7.42486 19.7822C9.37139 12.6379 13.9828 8.78875 18.9667 7.15441ZM27.6318 31.3817L28.9067 17.5181C28.9251 17.3184 28.8634 17.1451 28.7732 17.0318C28.6898 16.927 28.5876 16.8753 28.4646 16.8714C26.0933 16.7961 22.637 17.4116 20.5742 21.2215C19.7805 22.6876 19.297 25.1021 20.1962 27.1559C20.9752 28.9348 22.9579 30.7951 27.6318 31.3817Z" fill="var(--spectrum-global-color-gray-800, #292929)"/>
</svg>
