<svg width="160" height="160" viewBox="0 0 160 160" xmlns="http://www.w3.org/2000/svg">
<path fill-rule="evenodd" d="M124 38C130.627 38 136 43.3726 136 50V110C136 116.627 130.627 122 124 122H36C29.3726 122 24 116.627 24 110V50C24 43.3726 29.3726 38 36 38H124ZM144 50C144 38.9543 135.046 30 124 30H36C24.9543 30 16 38.9543 16 50V110C16 121.046 24.9543 130 36 130H124C135.046 130 144 121.046 144 110V50ZM49 53C49 51.8954 49.8954 51 51 51H58C59.1046 51 60 51.8954 60 53V58C60 59.1046 59.1046 60 58 60H51C49.8954 60 49 59.1046 49 58V53ZM34 51C32.8954 51 32 51.8954 32 53V58C32 59.1046 32.8954 60 34 60H41C42.1046 60 43 59.1046 43 58V53C43 51.8954 42.1046 51 41 51H34ZM49 102C49 100.895 49.8954 100 51 100H58C59.1046 100 60 100.895 60 102V107C60 108.105 59.1046 109 58 109H51C49.8954 109 49 108.105 49 107V102ZM34 100C32.8954 100 32 100.895 32 102V107C32 108.105 32.8954 109 34 109H41C42.1046 109 43 108.105 43 107V102C43 100.895 42.1046 100 41 100H34ZM66 53C66 51.8954 66.8954 51 68 51H75C76.1046 51 77 51.8954 77 53V58C77 59.1046 76.1046 60 75 60H68C66.8954 60 66 59.1046 66 58V53ZM68 100C66.8954 100 66 100.895 66 102V107C66 108.105 66.8954 109 68 109H75C76.1046 109 77 108.105 77 107V102C77 100.895 76.1046 100 75 100H68ZM83 53C83 51.8954 83.8954 51 85 51H92C93.1046 51 94 51.8954 94 53V58C94 59.1046 93.1046 60 92 60H85C83.8954 60 83 59.1046 83 58V53ZM85 100C83.8954 100 83 100.895 83 102V107C83 108.105 83.8954 109 85 109H92C93.1046 109 94 108.105 94 107V102C94 100.895 93.1046 100 92 100H85ZM100 53C100 51.8954 100.895 51 102 51H109C110.105 51 111 51.8954 111 53V58C111 59.1046 110.105 60 109 60H102C100.895 60 100 59.1046 100 58V53ZM102 100C100.895 100 100 100.895 100 102V107C100 108.105 100.895 109 102 109H109C110.105 109 111 108.105 111 107V102C111 100.895 110.105 100 109 100H102ZM117 53C117 51.8954 117.895 51 119 51H126C127.105 51 128 51.8954 128 53V58C128 59.1046 127.105 60 126 60H119C117.895 60 117 59.1046 117 58V53ZM119 100C117.895 100 117 100.895 117 102V107C117 108.105 117.895 109 119 109H126C127.105 109 128 108.105 128 107V102C128 100.895 127.105 100 126 100H119Z" fill="var(--spectrum-global-color-gray-800, #292929)"/>
</svg>
