<svg width="96" height="96" viewBox="0 0 96 96" xmlns="http://www.w3.org/2000/svg">
<path fill-rule="evenodd" d="M70.9634 16.6736C73.4379 16.1803 75.7454 18.0733 75.7454 20.5965V24.0887L39.78 31.2585V26.1716C39.78 24.264 41.1271 22.6218 42.998 22.2488L70.9634 16.6736ZM39.78 35.3372V69.6514C39.78 69.6868 39.7791 69.7221 39.7773 69.7572C39.8388 71.6741 39.2045 73.588 38.1477 75.2695C36.5724 77.7758 33.9651 79.9577 30.7483 81.3395C27.5316 82.7214 24.1541 83.1104 21.2518 82.5276C18.3595 81.9468 15.737 80.3367 14.5465 77.5654C13.356 74.7941 13.9935 71.7836 15.5634 69.2859C17.1387 66.7796 19.746 64.5977 22.9627 63.2158C26.1795 61.834 29.557 61.4449 32.4592 62.0277C33.6371 62.2643 34.7702 62.6715 35.78 63.2583V26.1716C35.78 22.3563 38.4743 19.072 42.2159 18.326L70.1813 12.7508C75.1303 11.7642 79.7454 15.5501 79.7454 20.5965V61.9903C79.7475 62.0947 79.7475 62.199 79.7454 62.3033V62.5786C79.7454 62.7182 79.7311 62.8544 79.7039 62.9859C79.5468 64.5292 78.9683 66.0418 78.1132 67.4023C76.538 69.9086 73.9306 72.0905 70.7139 73.4724C67.4972 74.8542 64.1197 75.2432 61.2174 74.6604C58.3251 74.0796 55.7026 72.4695 54.5121 69.6982C53.3216 66.9269 53.9591 63.9164 55.529 61.4187C57.1043 58.9124 59.7116 56.7305 62.9283 55.3486C66.145 53.9668 69.5226 53.5778 72.4248 54.1606C73.6026 54.3971 74.7356 54.8042 75.7454 55.391V28.1674L39.78 35.3372ZM18.95 71.4145C17.8532 73.1595 17.6983 74.7681 18.2218 75.9866C18.7452 77.2051 20.0186 78.2001 22.0393 78.6059C24.0502 79.0097 26.6031 78.7668 29.1695 77.6643C31.736 76.5618 33.6696 74.8774 34.761 73.1409C35.8579 71.3959 36.0128 69.7873 35.4893 68.5688C34.9658 67.3503 33.6925 66.3552 31.6717 65.9495C29.6609 65.5457 27.108 65.7886 24.5415 66.8911C21.9751 67.9936 20.0414 69.678 18.95 71.4145ZM58.1873 68.1194C57.6639 66.9009 57.8188 65.2923 58.9156 63.5473C60.007 61.8108 61.9407 60.1264 64.5071 59.0239C67.0736 57.9214 69.6265 57.6785 71.6373 58.0823C73.6581 58.4881 74.9314 59.4831 75.4549 60.7016C75.9783 61.9201 75.8234 63.5287 74.7266 65.2737C73.6352 67.0102 71.7016 68.6946 69.1351 69.7971C66.5686 70.8996 64.0157 71.1425 62.0049 70.7387C59.9841 70.3329 58.7108 69.3379 58.1873 68.1194Z" fill="var(--spectrum-global-color-gray-800, #292929)"/>
</svg>
