<svg width="96" height="96" viewBox="0 0 96 96" xmlns="http://www.w3.org/2000/svg">
<path fill-rule="evenodd" d="M20.5293 28.52C20.5293 24.1046 24.1139 20.52 28.5293 20.52H60.4793C61.5839 20.52 62.4793 19.6246 62.4793 18.52C62.4793 17.4154 61.5839 16.52 60.4793 16.52H28.5293C21.9047 16.52 16.5293 21.8955 16.5293 28.52V60.47C16.5293 61.5746 17.4247 62.47 18.5293 62.47C19.6339 62.47 20.5293 61.5746 20.5293 60.47V28.52ZM33.5293 27.53C30.2156 27.53 27.5293 30.2163 27.5293 33.53V69.48C27.5293 72.7937 30.2156 75.48 33.5293 75.48H69.4793C72.793 75.48 75.4793 72.7937 75.4793 69.48V33.53C75.4793 30.2163 72.793 27.53 69.4793 27.53H69.0906V49.7402C69.0906 50.5402 68.2006 51.0102 67.5406 50.5702L62.6706 47.3202C62.3306 47.1002 61.9006 47.1002 61.5606 47.3202L56.6906 50.5702C56.0306 51.0202 55.1406 50.5402 55.1406 49.7402V27.53H33.5293ZM23.5293 33.53C23.5293 28.0072 28.0064 23.53 33.5293 23.53H69.4793C75.0021 23.53 79.4793 28.0072 79.4793 33.53V69.48C79.4793 75.0029 75.0021 79.48 69.4793 79.48H33.5293C28.0064 79.48 23.5293 75.0029 23.5293 69.48V33.53Z" fill="var(--spectrum-global-color-gray-800, #292929)"/>
</svg>
