<svg width="48" height="48" viewBox="0 0 48 48" xmlns="http://www.w3.org/2000/svg">
<path fill-rule="evenodd" d="M31.6626 10.1687C34.1777 9.41725 36.763 11.2665 36.763 13.9174V26.9836C36.763 29.6397 34.1722 31.4834 31.6592 30.732L31.659 30.732L21.6851 27.7476L23.8892 32.5155C23.8939 32.5258 23.8986 32.5361 23.903 32.5465C24.4115 33.73 24.3807 34.8978 23.9285 35.8939C23.489 36.8622 22.6927 37.5812 21.8044 38.006C20.8519 38.4614 19.7082 38.6199 18.6225 38.3198C17.5033 38.0105 16.5219 37.2317 15.9475 35.9743C15.6035 35.221 14.5204 32.8584 13.5226 30.6827L12.1942 27.7862L11.9482 27.2499H11.9308C8.13366 27.2499 5 24.2474 5 20.442C5 16.6466 8.12354 13.5999 11.9308 13.5999H20.1618L31.6619 10.169L31.6626 10.1687ZM34.263 13.9174C34.263 12.9915 33.3396 12.2767 32.3781 12.5642L32.3773 12.5644L21.5996 15.7798V25.1125L32.3754 28.3368L32.3756 28.3369C33.3392 28.6248 34.263 27.9098 34.263 26.9836V13.9174ZM7.5 20.442C7.5 18.0642 9.46702 16.0999 11.9308 16.0999H19.0694V24.7499H12.75H11.9308C9.4569 24.7499 7.5 22.8099 7.5 20.442ZM14.6986 27.2499L15.7951 29.6406C16.7923 31.8153 17.8765 34.1802 18.2216 34.9356C18.4905 35.5244 18.8854 35.7987 19.2886 35.9102C19.7254 36.0309 20.2503 35.978 20.7259 35.7506C21.1668 35.5397 21.4913 35.2148 21.6521 34.8605C21.7991 34.5366 21.8488 34.1075 21.6121 33.5476L18.7008 27.2499H14.6986ZM40.5901 24.959C39.9319 24.7507 39.2295 25.1154 39.0212 25.7736C38.8128 26.4317 39.1775 27.1342 39.8357 27.3425L41.5607 27.8885C42.2189 28.0968 42.9213 27.7321 43.1296 27.074C43.3379 26.4158 42.9733 25.7134 42.3151 25.505L40.5901 24.959ZM43.1296 13.4407C43.3379 14.0988 42.9733 14.8013 42.3151 15.0096L40.5901 15.5556C39.9319 15.7639 39.2295 15.3993 39.0212 14.7411C38.8128 14.0829 39.1775 13.3805 39.8357 13.1722L41.5607 12.6262C42.2189 12.4178 42.9213 12.7825 43.1296 13.4407ZM40.2129 19.0088C39.5225 19.0088 38.9629 19.5684 38.9629 20.2588C38.9629 20.9492 39.5225 21.5088 40.2129 21.5088H42.0219C42.7122 21.5088 43.2719 20.9492 43.2719 20.2588C43.2719 19.5684 42.7122 19.0088 42.0219 19.0088H40.2129Z" fill="var(--spectrum-global-color-gray-800, #292929)"/>
</svg>
