<svg width="48" height="48" viewBox="0 0 48 48" xmlns="http://www.w3.org/2000/svg">
<path fill-rule="evenodd" d="M16.8418 7.10156C15.983 7.10156 15.1592 7.44146 14.5502 8.047L6.77287 15.7806C5.61686 16.9302 5.49136 18.7582 6.47943 20.055L21.3871 39.6193C22.6862 41.3242 25.2511 41.3266 26.5535 39.6241L41.518 20.0614C42.512 18.762 42.3851 16.9262 41.2218 15.7758L33.3991 8.04059C32.7907 7.43898 31.9696 7.10156 31.114 7.10156H16.8418ZM16.313 9.81974C16.4535 9.68 16.6436 9.60156 16.8418 9.60156H20.1233L16.5219 17.1191H8.97234L16.313 9.81974ZM19.294 17.1191L22.8954 9.60156H25.1114L28.7128 17.1191H19.294ZM28.5591 19.6191H19.4477L24.0034 35.8316L28.5591 19.6191ZM26.7705 35.2257L31.1559 19.6191H38.7087L26.7705 35.2257ZM31.4849 17.1191L27.8835 9.60156H31.114C31.3114 9.60156 31.5009 9.67943 31.6413 9.81826L39.0247 17.1191H31.4849ZM9.29041 19.6191H16.8509L21.2679 35.338L9.29041 19.6191Z" fill="var(--spectrum-global-color-gray-800, #292929)"/>
</svg>
