<svg width="160" height="160" viewBox="0 0 160 160" xmlns="http://www.w3.org/2000/svg">
<path fill-rule="evenodd" d="M39 41.6143C39 37.3699 42.4539 33.916 46.6983 33.916H113.476C117.72 33.916 121.174 37.3699 121.174 41.6143V88.3298C121.174 90.5389 122.965 92.3298 125.174 92.3298C127.383 92.3298 129.174 90.5389 129.174 88.3298V41.6143C129.174 32.9516 122.139 25.916 113.476 25.916H46.6983C38.0356 25.916 31 32.9516 31 41.6143V89.9965C31 117.094 53.0002 139.084 80.0871 139.084C82.6424 139.084 85.1548 138.888 87.6094 138.509C89.7927 138.173 91.2899 136.13 90.9533 133.947C90.6168 131.763 88.574 130.266 86.3906 130.603C84.3377 130.919 82.2328 131.084 80.0871 131.084C57.4174 131.084 39 112.675 39 89.9965V41.6143ZM96.457 61.5585C93.4159 56.2887 85.8128 56.2891 82.7725 61.5597L86.2357 63.5577L82.7722 61.5601L70.5282 82.7823L70.528 82.7827C67.4927 88.0453 71.277 94.6304 77.366 94.6304H101.874C107.963 94.6304 111.747 88.0453 108.712 82.7827L108.711 82.7811L96.4579 61.5601L92.9929 63.5586L96.457 61.5585ZM77.5441 86.6304L89.6151 65.708L101.696 86.6304H77.5441ZM68.2539 63.5942C70.167 64.699 70.8222 67.1455 69.7174 69.0585L56.0986 92.6403C54.9938 94.5533 52.5474 95.2086 50.6343 94.1038C48.7213 92.9989 48.0661 90.5525 49.1709 88.6395L62.7897 65.0577C63.8945 63.1446 66.3409 62.4894 68.2539 63.5942ZM117.917 145.834C131.494 145.834 142.501 134.827 142.501 121.25C142.501 107.673 131.494 96.667 117.917 96.667C104.34 96.667 93.334 107.673 93.334 121.25C93.334 134.827 104.34 145.834 117.917 145.834ZM122.334 110C122.334 107.791 120.543 106 118.334 106C116.125 106 114.334 107.791 114.334 110V117.667H106.667C104.458 117.667 102.667 119.458 102.667 121.667C102.667 123.876 104.458 125.667 106.667 125.667H114.334V133.334C114.334 135.543 116.125 137.334 118.334 137.334C120.543 137.334 122.334 135.543 122.334 133.334V125.667H130C132.209 125.667 134 123.876 134 121.667C134 119.458 132.209 117.667 130 117.667H122.334V110Z" fill="var(--spectrum-global-color-gray-800, #292929)"/>
</svg>
