<svg width="48" height="48" viewBox="0 0 48 48" xmlns="http://www.w3.org/2000/svg">
<path fill-rule="evenodd" d="M6.75 9C6.75 6.65736 8.64693 4.75 10.995 4.75H20.72C21.8069 4.75 22.8639 5.1658 23.6559 5.92853L23.6575 5.93005L33.4396 15.3022C34.2748 16.102 34.75 17.2077 34.75 18.37V25.745C34.75 26.4354 34.1904 26.995 33.5 26.995C32.8096 26.995 32.25 26.4354 32.25 25.745V18.37C32.25 17.8923 32.0552 17.438 31.7105 17.1078L31.7102 17.1076L21.9252 7.73259L21.9225 7.72995C21.6047 7.42365 21.1724 7.25 20.72 7.25H10.995C10.0331 7.25 9.25 8.03264 9.25 9V32.995C9.25 33.9624 10.0331 34.745 10.995 34.745H23C23.6904 34.745 24.25 35.3046 24.25 35.995C24.25 36.6854 23.6904 37.245 23 37.245H10.995C8.64693 37.245 6.75 35.3376 6.75 32.995V9ZM40.7441 35.8701C40.7441 39.9432 37.4422 43.2451 33.3691 43.2451C29.296 43.2451 25.9941 39.9432 25.9941 35.8701C25.9941 31.797 29.296 28.4951 33.3691 28.4951C37.4422 28.4951 40.7441 31.797 40.7441 35.8701ZM33.4932 31.245C34.1835 31.245 34.7432 31.8046 34.7432 32.495V34.745H36.9932C37.6835 34.745 38.2432 35.3046 38.2432 35.995C38.2432 36.6854 37.6835 37.245 36.9932 37.245H34.7432V39.495C34.7432 40.1854 34.1835 40.745 33.4932 40.745C32.8028 40.745 32.2432 40.1853 32.2432 39.495V37.245H29.9932C29.3028 37.245 28.7432 36.6854 28.7432 35.995C28.7432 35.3046 29.3028 34.745 29.9932 34.745H32.2432V32.495C32.2432 31.8046 32.8028 31.245 33.4932 31.245ZM25.2074 19.3079C25.6236 19.7228 25.6236 20.3939 25.2074 20.8087L21.8234 24.1824C21.4779 24.5268 20.9504 24.5886 20.5408 24.3595C19.9383 24.0224 19.1766 24.2377 18.8396 24.8402C18.5026 25.4427 18.7179 26.2043 19.3204 26.5413C20.6785 27.301 22.4301 27.1076 23.5884 25.9528L26.9724 22.5792C28.3686 21.1874 28.3686 18.9292 26.9724 17.5374C25.5784 16.1477 23.3199 16.1477 21.9259 17.5374L20.7337 18.7259C20.2448 19.2133 20.2436 20.0048 20.731 20.4937C21.2184 20.9826 22.0099 20.9838 22.4988 20.4964L23.691 19.3079C24.1093 18.8909 24.7891 18.8909 25.2074 19.3079ZM22.3406 23.2276C22.6965 22.636 22.5055 21.868 21.914 21.512C20.5341 20.6818 18.708 20.8498 17.5073 22.0319L14.0807 25.4055C12.6658 26.7985 12.6658 29.0653 14.0807 30.4583C15.4848 31.8407 17.7533 31.8407 19.1574 30.4583L20.3916 29.2432C20.8835 28.7589 20.8897 27.9675 20.4054 27.4755C19.921 26.9836 19.1296 26.9774 18.6377 27.4617L17.4035 28.6769C16.9725 29.1012 16.2657 29.1012 15.8347 28.6769C15.4145 28.2632 15.4145 27.6007 15.8347 27.187L19.2613 23.8134C19.6262 23.4541 20.1956 23.3957 20.6251 23.6542C21.2166 24.0101 21.9847 23.8191 22.3406 23.2276Z" fill="var(--spectrum-global-color-gray-800, #292929)"/>
</svg>
