<svg width="160" height="160" viewBox="0 0 160 160" xmlns="http://www.w3.org/2000/svg">
<path fill-rule="evenodd" d="M23.9231 24C16.7918 24 11 29.7737 11 36.9091V118.636C11 127.368 17.4492 134.586 25.84 135.815C26.561 135.937 27.3042 136 28.0652 136H28.3846H40.6538H126.124C131.466 136 136.332 132.789 138.297 127.808L154.095 89.5052C154.105 89.4823 154.114 89.4593 154.123 89.4362C157.463 80.8916 150.944 72 141.935 72H135V63.6364C135 54.0408 127.211 46.2727 117.615 46.2727H72.6898L58.7238 28.8425L58.7238 28.8425C56.2704 25.7805 52.5578 24 48.6345 24H23.9231ZM127 72V63.6364C127 58.4709 122.804 54.2727 117.615 54.2727H70.7692H68.8486L67.6477 52.7739L52.4806 33.8448L52.4806 33.8448C51.5473 32.6799 50.1324 32 48.6345 32H23.9231C21.1982 32 19 34.2038 19 36.9091V110.99L31.7031 80.1926C33.6683 75.2115 38.5338 72 43.8765 72H127ZM28.3846 128C27.9234 128 27.47 127.967 27.0267 127.903C23.9908 127.32 22.2758 124.222 23.3167 121.506L39.1115 83.2119C39.121 83.189 39.1302 83.166 39.1392 83.1429C39.8606 81.2973 41.7181 80 43.8765 80H141.935C145.602 80 147.838 83.4817 146.683 86.4944L130.889 124.788C130.88 124.809 130.871 124.83 130.863 124.851L130.861 124.857C130.139 126.703 128.282 128 126.124 128H40.6538H28.3846Z" fill="var(--spectrum-global-color-gray-800, #292929)"/>
</svg>
