<svg width="48" height="48" viewBox="0 0 48 48" xmlns="http://www.w3.org/2000/svg">
<path fill-rule="evenodd" d="M20.2871 7.44394C22.3373 5.39369 25.6615 5.39369 27.7117 7.44394L40.5549 20.2871C42.6051 22.3373 42.6051 25.6615 40.5549 27.7117L27.7117 40.5549C25.6615 42.6051 22.3373 42.6051 20.2871 40.5549L7.44394 27.7117C5.39369 25.6615 5.39369 22.3373 7.44394 20.2871L20.2871 7.44394ZM25.9439 9.21171C24.87 8.13776 23.1288 8.13776 22.0549 9.21171L9.21171 22.0549C8.13776 23.1288 8.13776 24.87 9.21171 25.9439L22.0549 38.7871C23.1288 39.861 24.87 39.861 25.9439 38.7871L38.7871 25.9439C39.861 24.87 39.861 23.1288 38.7871 22.0549L25.9439 9.21171ZM23.9994 14.2494C24.6898 14.2494 25.2494 14.809 25.2494 15.4994V26.4994C25.2494 27.1898 24.6898 27.7494 23.9994 27.7494C23.309 27.7494 22.7494 27.1898 22.7494 26.4994V15.4994C22.7494 14.809 23.309 14.2494 23.9994 14.2494ZM25.7494 31.9994C25.7494 32.9659 24.9659 33.7494 23.9994 33.7494C23.0329 33.7494 22.2494 32.9659 22.2494 31.9994C22.2494 31.0329 23.0329 30.2494 23.9994 30.2494C24.9659 30.2494 25.7494 31.0329 25.7494 31.9994Z" fill="var(--spectrum-global-color-gray-800, #292929)"/>
</svg>
