<svg width="160" height="160" viewBox="0 0 160 160" xmlns="http://www.w3.org/2000/svg">
<path fill-rule="evenodd" d="M86.4268 37.2817C86.4268 28.3933 75.6981 23.9224 69.3861 30.1804L50.407 48.9976L36.3125 48.9976C29.6851 48.9976 24.3125 54.3702 24.3125 60.9976V99.2024C24.3125 105.83 29.6851 111.202 36.3125 111.202H50.4188L69.4219 129.855C75.748 136.064 86.4268 131.582 86.4268 122.718L86.4268 37.2817ZM75.0187 35.8615C76.2811 34.6099 78.4268 35.5041 78.4268 37.2817L78.4268 122.718C78.4268 124.491 76.2911 125.387 75.0258 124.145L56.9627 106.416L56.9626 53.7634L75.0187 35.8615ZM48.9626 56.9976L48.9626 103.202H36.3125C34.1034 103.202 32.3125 101.412 32.3125 99.2024V60.9976C32.3125 58.7884 34.1034 56.9976 36.3125 56.9976H48.9626ZM99.3462 56.4406C97.5811 55.1123 95.0733 55.4664 93.745 57.2316C92.4166 58.9967 92.7708 61.5045 94.5359 62.8329C99.7183 66.7327 103.057 72.9224 103.057 79.893C103.057 86.9205 99.6635 93.1546 94.4086 97.0483C92.6337 98.3635 92.261 100.869 93.5762 102.644C94.8914 104.419 97.3965 104.791 99.1714 103.476C106.375 98.1384 111.057 89.5621 111.057 79.893C111.057 70.3025 106.45 61.7867 99.3462 56.4406ZM116.281 40.9875C114.516 39.6591 112.008 40.0133 110.68 41.7784C109.352 43.5436 109.706 46.0514 111.471 47.3797C121.327 54.7965 127.688 66.5797 127.688 79.8498C127.688 93.2281 121.222 105.096 111.229 112.501C109.454 113.816 109.081 116.321 110.396 118.096C111.711 119.871 114.217 120.244 115.992 118.928C127.934 110.079 135.688 95.8697 135.688 79.8498C135.688 63.9598 128.059 49.8505 116.281 40.9875Z" fill="var(--spectrum-global-color-gray-800, #292929)"/>
</svg>
