<svg width="96" height="96" viewBox="0 0 96 96" xmlns="http://www.w3.org/2000/svg">
<path fill-rule="evenodd" d="M82 28.4004C82 25.0867 79.3137 22.4004 76 22.4004H20C16.6863 22.4004 14 25.0867 14 28.4004V67.6004C14 70.9141 16.6863 73.6004 20 73.6004H76C79.3137 73.6004 82 70.9141 82 67.6004V28.4004ZM76 18.4004C81.5229 18.4004 86 22.8776 86 28.4004V67.6004C86 73.1232 81.5228 77.6004 76 77.6004H20C14.4771 77.6004 10 73.1232 10 67.6004V28.4004C10 22.8775 14.4771 18.4004 20 18.4004H76ZM44.8462 40.2546L56.0603 46.6869C57.3163 47.4073 57.3141 49.2045 56.0564 49.9218L44.8268 56.3275C43.5691 57.0449 41.9992 56.1445 42.001 54.7067L42.0165 41.8688C42.0182 40.431 43.5903 39.5342 44.8462 40.2546Z" fill="var(--spectrum-global-color-gray-800, #292929)"/>
</svg>
