<svg width="96" height="96" viewBox="0 0 96 96" xmlns="http://www.w3.org/2000/svg">
<path fill-rule="evenodd" d="M61.536 20.5859C61.536 12.4394 68.1395 5.83594 76.286 5.83594C84.4326 5.83594 91.036 12.4394 91.036 20.5859C91.036 28.7325 84.4326 35.3359 76.286 35.3359C68.1395 35.3359 61.536 28.7325 61.536 20.5859ZM82.5788 26.8787C83.3604 26.0971 83.3604 24.8246 82.5788 24.043H82.5989L79.1418 20.5859L82.5989 17.1289C83.3805 16.3473 83.3805 15.0747 82.5989 14.2931C81.8173 13.5116 80.5447 13.5116 79.7631 14.2931L76.3061 17.7502L72.849 14.2931C72.0675 13.5116 70.7949 13.5116 70.0133 14.2931C69.2317 15.0747 69.2317 16.3473 70.0133 17.1289L73.4703 20.5859L70.0133 24.043C69.2317 24.8246 69.2317 26.0971 70.0133 26.8787C70.4041 27.2695 70.9151 27.4699 71.4262 27.4699C71.9372 27.4699 72.4482 27.2695 72.839 26.8787L76.2961 23.4217L79.7531 26.8787C80.1439 27.2695 80.6549 27.4699 81.166 27.4699C81.677 27.4699 82.188 27.2695 82.5788 26.8787ZM24.5623 15.7402C19.105 15.7402 16.0921 22.0169 19.3393 26.3329C19.3605 26.3611 19.3824 26.3887 19.4051 26.4158L41.0494 52.222V79.434C41.0494 83.0968 45.367 85.1412 48.1603 82.6561L53.5072 77.8989C54.4279 77.0798 54.9504 75.9052 54.9504 74.6768V52.222L61.1818 44.7924L66.5054 38.4451C67.2152 37.5988 67.1046 36.3374 66.2583 35.6275C65.412 34.9177 64.1505 35.0284 63.4406 35.8747L58.117 42.222L51.418 50.209C51.116 50.5692 50.9504 51.0242 50.9504 51.4943V74.6768C50.9504 74.7713 50.91 74.8556 50.8484 74.9105L45.5015 79.6676C45.4375 79.7245 45.3932 79.7351 45.366 79.7386C45.3291 79.7433 45.277 79.7385 45.2197 79.7123C45.1625 79.6862 45.12 79.6477 45.0942 79.6092C45.0735 79.5784 45.0494 79.5283 45.0494 79.434V51.4943C45.0494 51.0242 44.8838 50.5692 44.5818 50.209L22.5083 23.8912C21.2401 22.1482 22.5006 19.7402 24.5623 19.7402H56.4687C57.5732 19.7402 58.4687 18.8448 58.4687 17.7402C58.4687 16.6357 57.5732 15.7402 56.4687 15.7402H24.5623Z" fill="var(--spectrum-global-color-gray-800, #292929)"/>
</svg>
