<svg width="160" height="160" viewBox="0 0 160 160" xmlns="http://www.w3.org/2000/svg">
<path fill-rule="evenodd" d="M20 44C20 37.3726 25.3726 32 32 32H128C134.627 32 140 37.3726 140 44V116C140 122.627 134.627 128 128 128H32C25.3726 128 20 122.627 20 116V44ZM32 24C20.9543 24 12 32.9543 12 44V116C12 127.046 20.9543 136 32 136H128C139.046 136 148 127.046 148 116V44C148 32.9543 139.046 24 128 24H32ZM28.5 79.5C28.5 81.9863 30.5138 84 33 84C35.4862 84 37.5 81.9863 37.5 79.5C37.5 77.0137 35.4862 75 33 75H32.9888C30.5025 75 28.5 77.0137 28.5 79.5Z" fill="var(--spectrum-global-color-gray-800, #292929)"/>
</svg>
