<svg width="160" height="160" viewBox="0 0 160 160" xmlns="http://www.w3.org/2000/svg">
<path fill-rule="evenodd" d="M86.8891 22.0039C89.0982 22.0039 90.8891 20.213 90.8891 18.0039C90.8891 15.7948 89.0982 14.0039 86.8891 14.0039H71.1442C68.935 14.0039 67.1442 15.7948 67.1442 18.0039C67.1442 20.213 68.935 22.0039 71.1442 22.0039H75.0164V26.0177C44.1602 28.5506 19.9082 54.3957 19.9082 85.9052C19.9082 119.093 46.8119 145.996 79.9994 145.996C113.187 145.996 140.091 119.093 140.091 85.9052C140.091 53.7295 114.802 27.4602 83.0164 25.8885V22.0039H86.8891ZM27.9082 85.9052C27.9082 57.1361 51.2302 33.8141 79.9994 33.8141C108.769 33.8141 132.091 57.1361 132.091 85.9052C132.091 114.674 108.769 137.996 79.9994 137.996C51.2302 137.996 27.9082 114.674 27.9082 85.9052ZM83.0164 41.6223C83.0164 39.4132 81.2256 37.6223 79.0164 37.6223C76.8073 37.6223 75.0164 39.4132 75.0164 41.6223V47.5266C75.0164 49.7358 76.8073 51.5266 79.0164 51.5266C81.2256 51.5266 83.0164 49.7358 83.0164 47.5266V41.6223ZM79.0164 120.284C81.2256 120.284 83.0164 122.075 83.0164 124.284V130.188C83.0164 132.397 81.2256 134.188 79.0164 134.188C76.8073 134.188 75.0164 132.397 75.0164 130.188V124.284C75.0164 122.075 76.8073 120.284 79.0164 120.284ZM124.463 89.3914C126.672 89.3914 128.463 87.6005 128.463 85.3914C128.463 83.1823 126.672 81.3914 124.463 81.3914H118.342C116.133 81.3914 114.342 83.1823 114.342 85.3914C114.342 87.6005 116.133 89.3914 118.342 89.3914H124.463ZM45.8389 85.3914C45.8389 87.6005 44.048 89.3914 41.8389 89.3914H35.7186C33.5095 89.3914 31.7186 87.6005 31.7186 85.3914C31.7186 83.1823 33.5095 81.3914 35.7186 81.3914H41.8389C44.048 81.3914 45.8389 83.1823 45.8389 85.3914ZM115.048 57.623C116.61 56.0609 116.61 53.5283 115.048 51.9662C113.486 50.4041 110.953 50.4041 109.391 51.9662L105.063 56.2938C103.501 57.8559 103.501 60.3886 105.063 61.9507C106.626 63.5128 109.158 63.5128 110.72 61.9507L115.048 57.623ZM56.6242 110.385C58.1863 111.947 58.1863 114.48 56.6242 116.042L52.2965 120.369C50.7344 121.931 48.2018 121.931 46.6397 120.369C45.0776 118.807 45.0776 116.275 46.6397 114.712L50.9673 110.385C52.5294 108.823 55.0621 108.823 56.6242 110.385ZM47.1925 60.3843C45.6304 58.8222 45.6304 56.2896 47.1925 54.7275C48.7546 53.1654 51.2873 53.1654 52.8493 54.7275L57.0321 58.9102C58.5942 60.4723 58.5942 63.005 57.0321 64.5671C55.47 66.1292 52.9373 66.1292 51.3752 64.5671L47.1925 60.3843ZM103.659 111.197C102.097 112.759 102.097 115.291 103.659 116.853L107.842 121.036C109.404 122.598 111.936 122.598 113.499 121.036C115.061 119.474 115.061 116.941 113.499 115.379L109.316 111.197C107.754 109.634 105.221 109.634 103.659 111.197ZM81.0434 83.4072C78.984 82.6076 76.6664 83.6289 75.8668 85.6882C75.0673 87.7476 76.0885 90.0652 78.1479 90.8648L112.992 104.394C115.052 105.193 117.369 104.172 118.169 102.113C118.969 100.053 117.947 97.7356 115.888 96.936L81.0434 83.4072Z" fill="var(--spectrum-global-color-gray-800, #292929)"/>
</svg>
