<svg width="96" height="97" viewBox="0 0 96 97" xmlns="http://www.w3.org/2000/svg">
<path fill-rule="evenodd" d="M57.8398 54.3066C62.405 51.1457 65.5261 46.0467 66.0133 40.1996C64.1745 39.6104 62.2144 39.2924 60.1799 39.2924C56.8537 39.2924 53.7261 40.1426 51.0025 41.6376C54.4986 44.9569 56.9568 49.359 57.8398 54.3066ZM54.0894 56.3252C51.892 57.207 49.4927 57.6922 46.98 57.6922C44.9456 57.6922 42.9854 57.3741 41.1466 56.785C41.5714 51.6865 43.9988 47.157 47.64 43.9851C51.1713 47.0613 53.561 51.4145 54.0894 56.3252ZM44.2774 41.6376C40.6023 45.127 38.0741 49.8128 37.3169 55.071C32.2319 52.0828 28.6523 46.808 27.9906 40.6593C30.188 39.7776 32.5873 39.2924 35.1 39.2924C38.4262 39.2924 41.5538 40.1426 44.2774 41.6376ZM47.64 38.9891C51.2514 36.6503 55.5571 35.2924 60.1799 35.2924C62.1567 35.2924 64.0754 35.5407 65.9066 36.0077C64.6451 26.6815 56.6521 19.4922 46.98 19.4922C37.1718 19.4922 29.0903 26.8852 28.0041 36.4027C30.2399 35.6818 32.6245 35.2924 35.1 35.2924C39.7229 35.2924 44.0286 36.6503 47.64 38.9891ZM23.8834 38.1936C16.7953 42.1381 12 49.7052 12 58.3924C12 71.1501 22.3422 81.4924 35.1 81.4924C39.7229 81.4924 44.0286 80.1344 47.64 77.7956C51.2514 80.1344 55.5571 81.4924 60.1799 81.4924C72.9377 81.4924 83.2799 71.1501 83.2799 58.3924C83.2799 49.1676 77.8727 41.2057 70.0548 37.5034C69.4863 25.2512 59.3728 15.4922 46.98 15.4922C34.3554 15.4922 24.0961 25.6197 23.8834 38.1936ZM24.2402 42.678C19.2613 46.1253 16 51.878 16 58.3924C16 68.941 24.5514 77.4924 35.1 77.4924C38.4262 77.4924 41.5538 76.6421 44.2774 75.1471C40.0895 71.1709 37.391 65.6412 37.1051 59.4811C30.4689 56.3384 25.5696 50.1264 24.2402 42.678ZM47.64 72.7996C44.2332 69.8319 41.8889 65.6756 41.2533 60.9768C43.0846 61.4439 45.0033 61.6922 46.98 61.6922C49.4555 61.6922 51.8401 61.3028 54.0759 60.5819C53.5211 65.4425 51.1419 69.749 47.64 72.7996ZM51.0025 75.1471C55.3462 71.023 58.0877 65.2275 58.1966 58.791C64.3645 55.3586 68.7962 49.1831 69.843 41.9135C75.4896 45.2318 79.2799 51.3694 79.2799 58.3924C79.2799 68.941 70.7286 77.4924 60.1799 77.4924C56.8537 77.4924 53.7261 76.6421 51.0025 75.1471Z" fill="var(--spectrum-global-color-gray-800, #292929)"/>
</svg>
