<svg width="160" height="160" viewBox="0 0 160 160" xmlns="http://www.w3.org/2000/svg">
<clipPath id="path-1-outside-1_5570_89664">
<rect fill="white" x="24.0684" y="24.0684" width="112" height="112"/>
<path fill-rule="evenodd" d="M37.3184 32.0684C34.4189 32.0684 32.0684 34.4189 32.0684 37.3184V54.3907C32.0684 57.2902 34.4189 59.6407 37.3184 59.6407C40.2179 59.6407 42.5684 57.2902 42.5684 54.3907V42.5684H74.7514V117.429H62.9261C60.0266 117.429 57.6761 119.779 57.6761 122.679C57.6761 125.578 60.0266 127.929 62.9261 127.929H79.8899C79.927 127.93 79.9641 127.93 80.0014 127.93C80.0386 127.93 80.0758 127.93 80.1128 127.929H97.0708C99.9703 127.929 102.321 125.578 102.321 122.679C102.321 119.779 99.9703 117.429 97.0708 117.429H85.2514V42.5684H117.429V54.3907C117.429 57.2902 119.78 59.6407 122.679 59.6407C125.579 59.6407 127.929 57.2902 127.929 54.3907V37.4056C127.93 37.3765 127.93 37.3475 127.93 37.3184C127.93 34.4189 125.579 32.0684 122.68 32.0684H122.679H80.0014H37.3184Z"/>
</clipPath>
<path d="M42.5684 42.5684V34.5684C38.1501 34.5684 34.5684 38.1501 34.5684 42.5684H42.5684ZM74.7514 42.5684H82.7514C82.7514 38.1501 79.1697 34.5684 74.7514 34.5684V42.5684ZM74.7514 117.429V125.429C79.1697 125.429 82.7514 121.847 82.7514 117.429H74.7514ZM79.8899 127.929L80.0562 119.931C80.0008 119.929 79.9454 119.929 79.8899 119.929V127.929ZM80.1128 127.929V119.929C80.0574 119.929 80.002 119.929 79.9465 119.931L80.1128 127.929ZM85.2514 117.429H77.2514C77.2514 121.847 80.8331 125.429 85.2514 125.429V117.429ZM85.2514 42.5684V34.5684C80.8331 34.5684 77.2514 38.1501 77.2514 42.5684H85.2514ZM117.429 42.5684H125.429C125.429 38.1501 121.848 34.5684 117.429 34.5684V42.5684ZM127.929 37.4056L119.93 37.2751C119.93 37.3186 119.929 37.3621 119.929 37.4056L127.929 37.4056ZM40.0684 37.3184C40.0684 38.8371 38.8371 40.0684 37.3184 40.0684V24.0684C30.0006 24.0684 24.0684 30.0006 24.0684 37.3184H40.0684ZM40.0684 54.3907V37.3184H24.0684V54.3907H40.0684ZM37.3184 51.6407C38.8371 51.6407 40.0684 52.8719 40.0684 54.3907H24.0684C24.0684 61.7085 30.0006 67.6407 37.3184 67.6407V51.6407ZM34.5684 54.3907C34.5684 52.8719 35.7996 51.6407 37.3184 51.6407V67.6407C44.6361 67.6407 50.5684 61.7085 50.5684 54.3907H34.5684ZM34.5684 42.5684V54.3907H50.5684V42.5684H34.5684ZM74.7514 34.5684H42.5684V50.5684H74.7514V34.5684ZM82.7514 117.429V42.5684H66.7514V117.429H82.7514ZM62.9261 125.429H74.7514V109.429H62.9261V125.429ZM65.6761 122.679C65.6761 124.198 64.4449 125.429 62.9261 125.429V109.429C55.6084 109.429 49.6761 115.361 49.6761 122.679H65.6761ZM62.9261 119.929C64.4449 119.929 65.6761 121.16 65.6761 122.679H49.6761C49.6761 129.997 55.6084 135.929 62.9261 135.929V119.929ZM79.8899 119.929H62.9261V135.929H79.8899V119.929ZM80.0014 119.93C80.0199 119.93 80.0381 119.93 80.0562 119.931L79.7236 135.927C79.8158 135.929 79.9084 135.93 80.0014 135.93V119.93ZM79.9465 119.931C79.9646 119.93 79.9829 119.93 80.0014 119.93V135.93C80.0944 135.93 80.1869 135.929 80.2792 135.927L79.9465 119.931ZM97.0708 119.929H80.1128V135.929H97.0708V119.929ZM94.3208 122.679C94.3208 121.16 95.552 119.929 97.0708 119.929V135.929C104.389 135.929 110.321 129.997 110.321 122.679H94.3208ZM97.0708 125.429C95.552 125.429 94.3208 124.198 94.3208 122.679H110.321C110.321 115.361 104.389 109.429 97.0708 109.429V125.429ZM85.2514 125.429H97.0708V109.429H85.2514V125.429ZM77.2514 42.5684V117.429H93.2514V42.5684H77.2514ZM117.429 34.5684H85.2514V50.5684H117.429V34.5684ZM125.429 54.3907V42.5684H109.429V54.3907H125.429ZM122.679 51.6407C124.198 51.6407 125.429 52.8719 125.429 54.3907H109.429C109.429 61.7085 115.362 67.6407 122.679 67.6407V51.6407ZM119.929 54.3907C119.929 52.8719 121.16 51.6407 122.679 51.6407V67.6407C129.997 67.6407 135.929 61.7085 135.929 54.3907H119.929ZM119.929 37.4056V54.3907H135.929V37.4056H119.929ZM119.93 37.3184C119.93 37.3042 119.93 37.2898 119.93 37.2751L135.928 37.536C135.929 37.4633 135.93 37.3908 135.93 37.3184H119.93ZM122.68 40.0684C121.161 40.0684 119.93 38.8371 119.93 37.3184H135.93C135.93 30.0006 129.998 24.0684 122.68 24.0684V40.0684ZM122.679 40.0684H122.68V24.0684H122.679V40.0684ZM80.0014 40.0684H122.679V24.0684H80.0014V40.0684ZM37.3184 40.0684H80.0014V24.0684H37.3184V40.0684Z" fill="var(--spectrum-global-color-gray-800, #292929)" clip-path="url(#path-1-outside-1_5570_89664)"/>
</svg>
