<svg width="48" height="48" viewBox="0 0 48 48" xmlns="http://www.w3.org/2000/svg">
<path fill-rule="evenodd" d="M7.25 13C7.25 11.4812 8.48122 10.25 10 10.25H38C39.5188 10.25 40.75 11.4812 40.75 13V27C40.75 28.5188 39.5188 29.75 38 29.75H10C8.48122 29.75 7.25 28.5188 7.25 27V13ZM10 7.75C7.1005 7.75 4.75 10.1005 4.75 13V27C4.75 29.8995 7.1005 32.25 10 32.25H22V37.75H18C17.3096 37.75 16.75 38.3096 16.75 39C16.75 39.6904 17.3096 40.25 18 40.25H30C30.6904 40.25 31.25 39.6904 31.25 39C31.25 38.3096 30.6904 37.75 30 37.75H26V32.25H38C40.8995 32.25 43.25 29.8995 43.25 27V13C43.25 10.1005 40.8995 7.75 38 7.75H10ZM25.5 13.5C25.5 14.3284 24.8284 15 24 15C23.1716 15 22.5 14.3284 22.5 13.5C22.5 12.6716 23.1716 12 24 12C24.8284 12 25.5 12.6716 25.5 13.5Z" fill="var(--spectrum-global-color-gray-800, #292929)"/>
</svg>
