<svg width="48" height="48" viewBox="0 0 48 48" xmlns="http://www.w3.org/2000/svg">
<path fill-rule="evenodd" d="M10.857 27.2212L16.3733 22.845C16.9141 22.4159 17.7004 22.5066 18.1294 23.0474C18.5585 23.5882 18.4679 24.3745 17.927 24.8035L10.1716 30.956C9.63077 31.3851 8.84452 31.2945 8.41547 30.7536L2.26297 22.9982C1.83391 22.4574 1.92453 21.6711 2.46537 21.2421C3.0062 20.813 3.79245 20.9036 4.22151 21.4445L8.37824 26.6842C8.90371 17.4075 16.5928 10.0469 26.001 10.0469C35.7496 10.0469 43.6524 17.9497 43.6524 27.6983C43.6524 28.3887 43.0928 28.9483 42.4024 28.9483C41.7121 28.9483 41.1524 28.3887 41.1524 27.6983C41.1524 19.3304 34.3689 12.5469 26.001 12.5469C17.7927 12.5469 11.109 19.0741 10.857 27.2212ZM7.48827 36.7031C7.48827 36.0128 8.04792 35.4531 8.73827 35.4531L43.2539 35.4531C43.9443 35.4531 44.5039 36.0128 44.5039 36.7031C44.5039 37.3935 43.9443 37.9531 43.2539 37.9531L8.73827 37.9531C8.04792 37.9531 7.48827 37.3935 7.48827 36.7031Z" fill="var(--spectrum-global-color-gray-800, #292929)"/>
</svg>
