<svg width="160" height="160" viewBox="0 0 160 160" xmlns="http://www.w3.org/2000/svg">
<path fill-rule="evenodd" d="M38.541 33.791C35.9177 33.791 33.791 35.9177 33.791 38.541V55.1244C33.791 57.7478 35.9177 59.8744 38.541 59.8744C41.1644 59.8744 43.291 57.7478 43.291 55.1244V47.291C43.291 45.0819 45.0819 43.291 47.291 43.291H71.2526C73.4617 43.291 75.2526 45.0819 75.2526 47.291V112.708C75.2526 114.917 73.4617 116.708 71.2526 116.708H63.4173C60.794 116.708 58.6673 118.834 58.6673 121.458C58.6673 124.081 60.794 126.208 63.4173 126.208H79.9114L79.9526 126.208L80.0026 126.208L80.0526 126.208L80.0938 126.208H96.5842C99.2075 126.208 101.334 124.081 101.334 121.458C101.334 118.834 99.2075 116.708 96.5842 116.708H88.7526C86.5435 116.708 84.7526 114.917 84.7526 112.708V47.291C84.7526 45.0819 86.5435 43.291 88.7526 43.291H112.708C114.917 43.291 116.708 45.0819 116.708 47.291V55.1244C116.708 57.7478 118.834 59.8744 121.458 59.8744C124.081 59.8744 126.208 57.7478 126.208 55.1244V38.6337L126.208 38.5922L126.208 38.541C126.208 35.9177 124.082 33.791 121.458 33.791H121.458H80.0026H38.541ZM25.791 38.541C25.791 31.4994 31.4994 25.791 38.541 25.791H80.0026H121.458H121.458C128.5 25.791 134.208 31.4994 134.208 38.541C134.208 38.5783 134.208 38.6155 134.208 38.6528V55.1244C134.208 62.1661 128.499 67.8744 121.458 67.8744C114.416 67.8744 108.708 62.1661 108.708 55.1244V51.291H92.7526V108.708H96.5842C103.626 108.708 109.334 114.416 109.334 121.458C109.334 128.499 103.626 134.208 96.5842 134.208H80.1123C80.0755 134.208 80.0389 134.208 80.0026 134.208C79.9663 134.208 79.9297 134.208 79.8929 134.208H63.4173C56.3757 134.208 50.6673 128.499 50.6673 121.458C50.6673 114.416 56.3757 108.708 63.4173 108.708H67.2526V51.291H51.291V55.1244C51.291 62.1661 45.5826 67.8744 38.541 67.8744C31.4994 67.8744 25.791 62.1661 25.791 55.1244V38.541Z" fill="var(--spectrum-global-color-gray-800, #292929)"/>
</svg>
