<svg width="48" height="48" viewBox="0 0 48 48" xmlns="http://www.w3.org/2000/svg">
  <defs>
<clipPath id="clip0_14_2376">
<rect width="48" height="48" fill="white"/>
</clipPath>
</defs>
<g clip-path="url(#clip0_14_2376)">
<path fill-rule="evenodd" d="M37.5742 11.2052C37.5048 10.8534 37.2405 10.5891 36.8887 10.5197C34.3237 10.0132 28.8298 10.688 23.3314 16.1864C19.1423 20.3755 17.3371 22.7232 16.5653 24.1222C16.1915 24.7996 16.0848 25.2116 16.0494 25.4718C16.0212 25.6781 16.0266 25.784 16.0351 25.9527C16.0406 26.0614 16.0474 26.1961 16.0474 26.4006C16.0474 27.1375 16.4387 27.9982 18.2672 29.8267C20.0957 31.6552 20.9564 32.0465 21.6933 32.0465C21.8977 32.0465 22.0325 32.0533 22.1412 32.0588C22.3099 32.0673 22.4158 32.0726 22.6221 32.0445C22.8823 32.009 23.2943 31.9024 23.9717 31.5286C25.3707 30.7568 27.7184 28.9516 31.9075 24.7625C37.4059 19.2641 38.0807 13.7702 37.5742 11.2052ZM37.3729 8.06701C38.7193 8.33284 39.761 9.37458 40.0269 10.7209C40.6762 14.0096 39.7974 19.8352 34.6139 25.5457C34.8787 27.0366 34.6633 28.7821 34.2206 30.4753C33.7031 32.4544 32.8296 34.5334 31.7904 36.3748C30.7578 38.2045 29.5175 39.878 28.2276 40.9899C27.02 42.031 25.3189 42.9383 23.6554 42.1066C22.1972 41.3775 21.7964 39.9926 21.663 38.6168C21.5958 37.9236 21.5863 37.1305 21.5847 36.2777C21.5844 36.0991 21.5844 35.9169 21.5844 35.7307V35.7306V35.7305V35.7304C21.5845 35.3528 21.5845 34.9588 21.5816 34.5452C19.783 34.5011 18.2973 33.3923 16.4994 31.5944C14.7019 29.7968 13.5931 28.3113 13.5487 26.5131C13.1346 26.5102 12.7403 26.5102 12.3624 26.5103H12.3623L12.3604 26.5103C12.1749 26.5103 11.9933 26.5104 11.8153 26.51C10.9625 26.5084 10.1694 26.4989 9.47625 26.4317C8.10038 26.2983 6.71549 25.8975 5.98642 24.4393C5.15468 22.7758 6.06206 21.0748 7.10307 19.8671C8.215 18.5772 9.88855 17.3369 11.7182 16.3044C13.5597 15.2651 15.6386 14.3916 17.6177 13.8742C19.3109 13.4315 21.0564 13.216 22.5473 13.4808C28.2581 8.29653 34.0841 7.41767 37.3729 8.06701ZM25.1794 33.7176C26.6877 32.8854 28.8293 31.2376 32.1592 28.0214C32.0907 28.5816 31.972 29.1921 31.8019 29.8429C31.3453 31.589 30.5598 33.4686 29.6131 35.1461C28.6598 36.8355 27.5872 38.2413 26.5953 39.0964C25.5211 40.0224 24.9714 39.9695 24.7734 39.8705C24.5076 39.7376 24.2609 39.5053 24.1514 38.3755C24.0971 37.8159 24.0863 37.134 24.0847 36.2731C24.0844 36.103 24.0844 35.9266 24.0844 35.7442V35.744C24.0845 35.278 24.0846 34.7727 24.0789 34.2322C24.4154 34.1065 24.7791 33.9384 25.1794 33.7176ZM20.0716 15.9355C19.5115 16.004 18.9009 16.1227 18.2501 16.2929C16.504 16.7494 14.6244 17.5349 12.9469 18.4816C11.2575 19.435 9.85168 20.5075 8.99663 21.4994C8.07066 22.5736 8.12349 23.1233 8.22251 23.3213C8.35541 23.5872 8.5877 23.8338 9.71749 23.9434C10.2771 23.9976 10.959 24.0084 11.8199 24.01C11.99 24.0103 12.1664 24.0103 12.3488 24.0103C12.815 24.0102 13.3206 24.0101 13.8614 24.0158C13.9871 23.6791 14.1553 23.3151 14.3763 22.9145C15.2084 21.4063 16.856 19.2649 20.0716 15.9355ZM31.713 19.8278C30.7609 20.78 29.2172 20.78 28.265 19.8278C27.3129 18.8757 27.3129 17.332 28.265 16.3799C29.2172 15.4277 30.7609 15.4277 31.713 16.3799C32.6651 17.332 32.6651 18.8757 31.713 19.8278ZM13.8495 36.0121C14.3376 35.5239 14.3376 34.7324 13.8495 34.2443C13.3613 33.7561 12.5698 33.7561 12.0817 34.2443L6.1555 40.1705C5.66734 40.6586 5.66735 41.4501 6.1555 41.9382C6.64366 42.4264 7.43511 42.4264 7.92327 41.9382L13.8495 36.0121ZM16.866 37.2611C17.3542 37.7493 17.3542 38.5407 16.866 39.0289L13.4181 42.4769C12.9299 42.965 12.1385 42.965 11.6503 42.4769C11.1621 41.9887 11.1621 41.1972 11.6503 40.7091L15.0983 37.2611C15.5864 36.773 16.3779 36.773 16.866 37.2611ZM10.8329 32.995C11.321 32.5068 11.321 31.7153 10.8329 31.2272C10.3447 30.739 9.55325 30.739 9.06509 31.2272L5.61713 34.6752C5.12897 35.1633 5.12897 35.9548 5.61713 36.4429C6.10528 36.9311 6.89674 36.9311 7.38489 36.4429L10.8329 32.995Z" fill="var(--spectrum-global-color-gray-800, #292929)"/>
</g>

</svg>
