<svg width="96" height="97" viewBox="0 0 96 97" xmlns="http://www.w3.org/2000/svg">
<path fill-rule="evenodd" d="M48.0007 19.3125C42.5446 19.3125 38.1216 23.7355 38.1216 29.1916C38.1216 33.1675 40.4703 36.5989 43.8645 38.1664C43.9592 38.2101 44.0489 38.2603 44.1332 38.3162C44.8797 38.7331 45.3013 39.6015 45.1129 40.4813L42.1751 54.201C41.9777 55.1233 41.1627 55.7823 40.2195 55.7823H27.2344C23.9207 55.7823 21.2344 58.4686 21.2344 61.7823V65.6728H74.7675V61.7823C74.7675 58.4686 72.0812 55.7823 68.7675 55.7823H55.7203C54.7632 55.7823 53.9402 55.1041 53.7572 54.1647L51.0847 40.4449C50.9425 39.7148 51.217 39.0001 51.7426 38.5467C51.9134 38.3456 52.1272 38.1753 52.3786 38.0507C55.6427 36.434 57.8799 33.0722 57.8799 29.1916C57.8799 23.7355 53.4568 19.3125 48.0007 19.3125ZM55.2712 41.016C59.2334 38.5748 61.8799 34.1938 61.8799 29.1916C61.8799 21.5264 55.666 15.3125 48.0007 15.3125C40.3355 15.3125 34.1216 21.5264 34.1216 29.1916C34.1216 34.2595 36.8378 38.6896 40.8873 41.1113L38.6024 51.7823H27.2344C21.7115 51.7823 17.2344 56.2594 17.2344 61.7823V67.6728C17.2344 68.7774 18.1298 69.6728 19.2344 69.6728H76.7675C77.8721 69.6728 78.7675 68.7774 78.7675 67.6728V61.7823C78.7675 56.2594 74.2903 51.7823 68.7675 51.7823H57.3683L55.2712 41.016ZM22.2017 79.6719C22.2017 78.5673 23.0971 77.6719 24.2017 77.6719H71.801C72.9056 77.6719 73.801 78.5673 73.801 79.6719C73.801 80.7764 72.9056 81.6719 71.801 81.6719H24.2017C23.0971 81.6719 22.2017 80.7764 22.2017 79.6719Z" fill="var(--spectrum-global-color-gray-800, #292929)"/>
</svg>
