<svg width="48" height="48" viewBox="0 0 48 48" xmlns="http://www.w3.org/2000/svg">
<path fill-rule="evenodd" d="M31.6797 8.5C31.6797 8.08579 32.0155 7.75 32.4297 7.75H38.9297C39.3439 7.75 39.6797 8.08579 39.6797 8.5V22C39.6797 22.4142 39.3439 22.75 38.9297 22.75H32.4297C32.0155 22.75 31.6797 22.4142 31.6797 22V8.5ZM32.4297 5.25C30.6348 5.25 29.1797 6.70507 29.1797 8.5V22C29.1797 23.7949 30.6348 25.25 32.4297 25.25H38.9297C40.7246 25.25 42.1797 23.7949 42.1797 22V8.5C42.1797 6.70507 40.7246 5.25 38.9297 5.25H32.4297ZM30.1797 32.25C30.5939 32.25 30.9297 32.5858 30.9297 33V39.5C30.9297 39.9142 30.5939 40.25 30.1797 40.25H16.6797C16.2655 40.25 15.9297 39.9142 15.9297 39.5V33C15.9297 32.5858 16.2655 32.25 16.6797 32.25H30.1797ZM33.4297 33C33.4297 31.2051 31.9746 29.75 30.1797 29.75H16.6797C14.8848 29.75 13.4297 31.2051 13.4297 33V39.5C13.4297 41.2949 14.8848 42.75 16.6797 42.75H30.1797C31.9746 42.75 33.4297 41.2949 33.4297 39.5V33ZM9.42008 22.9C8.81809 22.9 8.33008 23.388 8.33008 23.99C8.33008 24.592 8.81809 25.08 9.42008 25.08C10.0221 25.08 10.5101 24.592 10.5101 23.99C10.5101 23.388 10.0221 22.9 9.42008 22.9ZM5.83008 23.99C5.83008 22.4433 6.80823 21.125 8.17969 20.6201V13.36C6.80823 12.855 5.83008 11.5367 5.83008 9.99002C5.83008 8.00732 7.43738 6.40002 9.42008 6.40002C10.9669 6.40002 12.2853 7.37835 12.7902 8.75H20.05C20.5549 7.37835 21.8732 6.40002 23.4201 6.40002C25.4028 6.40002 27.0101 8.00732 27.0101 9.99002C27.0101 11.5295 26.0411 12.8427 24.6797 13.3528V18.03C24.6797 18.7203 24.12 19.28 23.4297 19.28C22.7393 19.28 22.1797 18.7203 22.1797 18.03V13.36C21.2013 12.9998 20.4232 12.2257 20.0574 11.25H12.7827C12.4194 12.2193 11.649 12.9896 10.6797 13.3528V20.6272C11.6556 20.9929 12.43 21.7714 12.7902 22.75H17.4604C18.1507 22.75 18.7104 23.3096 18.7104 24C18.7104 24.6904 18.1507 25.25 17.4604 25.25H12.7827C12.2725 26.6112 10.9594 27.58 9.42008 27.58C7.43738 27.58 5.83008 25.9727 5.83008 23.99ZM8.33008 9.99002C8.33008 9.38803 8.81809 8.90002 9.42008 8.90002C10.0221 8.90002 10.5101 9.38803 10.5101 9.99002C10.5101 10.592 10.0221 11.08 9.42008 11.08C8.81809 11.08 8.33008 10.592 8.33008 9.99002ZM23.4201 8.90002C22.8181 8.90002 22.3301 9.38803 22.3301 9.99002C22.3301 10.592 22.8181 11.08 23.4201 11.08C24.0221 11.08 24.5101 10.592 24.5101 9.99002C24.5101 9.38803 24.0221 8.90002 23.4201 8.90002ZM21.9704 27.74L19.2604 21.14V21.13C18.9304 20.31 19.7504 19.49 20.5704 19.83L27.1704 22.54C27.9904 22.88 28.0004 24.02 27.2004 24.38L25.2104 25.27C24.9804 25.37 24.8004 25.55 24.7004 25.78L23.8104 27.77C23.4504 28.57 22.3004 28.55 21.9704 27.74Z" fill="var(--spectrum-global-color-gray-800, #292929)"/>
</svg>
