<svg width="160" height="160" viewBox="0 0 160 160" xmlns="http://www.w3.org/2000/svg">
<path fill-rule="evenodd" d="M29.0648 23.3591C27.5027 21.797 24.97 21.797 23.4079 23.3591C21.8458 24.9212 21.8458 27.4538 23.4079 29.0159L130.934 136.542C132.496 138.104 135.029 138.104 136.591 136.542C138.153 134.98 138.153 132.447 136.591 130.885L29.0648 23.3591ZM35.3755 73.2734C35.3755 96.4544 53.1563 115.482 75.8232 117.463V129.813H56.2803C54.0711 129.813 52.2803 131.603 52.2803 133.813C52.2803 136.022 54.0711 137.813 56.2803 137.813H103.366C105.575 137.813 107.366 136.022 107.366 133.813C107.366 131.603 105.575 129.813 103.366 129.813H83.8232V117.445C86.1499 117.235 89.0137 116.805 92.063 115.941C94.1885 115.338 95.4233 113.127 94.821 111.002C94.2187 108.876 92.0074 107.641 89.882 108.244C85.5816 109.462 81.6706 109.633 79.7349 109.633C59.6541 109.633 43.3755 93.3542 43.3755 73.2734V68.2285C43.3755 66.0194 41.5846 64.2285 39.3755 64.2285C37.1663 64.2285 35.3755 66.0194 35.3755 68.2285V73.2734ZM57.1793 38.3824C59.786 31.1002 66.4366 22.2402 79.8226 22.2402C89.0848 22.2402 95.2933 26.463 99.0555 31.6914C102.679 36.7265 104.002 42.6176 104.002 46.4462L104.002 46.4761C103.942 54.539 103.986 68.3759 103.999 72.581L103.999 72.5868C104.001 73.2611 104.002 73.6865 104.002 73.7991C104.002 75.6577 103.719 77.4593 103.288 79.1237C102.733 81.2621 100.55 82.546 98.4116 81.9914C96.2732 81.4368 94.9893 79.2537 95.5438 77.1153C95.8399 75.9738 96.0023 74.8552 96.0023 73.7991C96.0023 73.7014 96.001 73.3132 95.999 72.6912V72.6912V72.6909V72.6901V72.688C95.9861 68.6201 95.9415 54.5846 96.0022 46.4325C95.9987 44.0837 95.0928 39.8813 92.5619 36.364C90.165 33.0331 86.2837 30.2402 79.8226 30.2402C70.9211 30.2402 66.6033 35.793 64.7113 41.0785C63.9668 43.1584 61.6772 44.241 59.5973 43.4965C57.5174 42.752 56.4348 40.4623 57.1793 38.3824ZM65.7579 81.2567C64.6366 79.3534 62.1845 78.7194 60.2812 79.8407C58.3778 80.9621 57.7438 83.4141 58.8651 85.3175C60.8776 88.7334 63.8824 92.0168 67.7454 94.2863C69.6502 95.4053 72.1014 94.7683 73.2205 92.8636C74.3395 90.9588 73.7025 88.5076 71.7978 87.3886C69.2524 85.8932 67.1709 83.6551 65.7579 81.2567ZM124.182 68.2285C124.182 66.0194 122.391 64.2285 120.182 64.2285C117.973 64.2285 116.182 66.0194 116.182 68.2285C116.182 80.891 114.476 86.6215 111.485 91.3731C110.308 93.2427 110.87 95.7123 112.739 96.8892C114.609 98.066 117.078 97.5045 118.255 95.6349C122.38 89.0823 124.182 81.6279 124.182 68.2285Z" fill="var(--spectrum-global-color-gray-800, #292929)"/>
</svg>
