<svg width="160" height="160" viewBox="0 0 160 160" xmlns="http://www.w3.org/2000/svg">
<path fill-rule="evenodd" d="M84.97 28.9004C71.512 28.9004 60.0463 37.2114 54.8515 49.0067C53.0202 48.5652 51.1123 48.3304 49.15 48.3304C35.0384 48.3304 23.9 60.2273 23.9 74.5204C23.9 75.3459 23.9403 76.1556 24.0145 76.9486C16.2841 80.6193 11 88.6833 11 97.9404C11 110.258 20.3969 120.568 32.4763 121.018C32.6445 121.039 32.8159 121.05 32.99 121.05H87.62C89.8291 121.05 91.62 119.26 91.62 117.05C91.62 114.841 89.8291 113.05 87.62 113.05H33.3917C33.2818 113.039 33.1706 113.033 33.0583 113.031C25.4313 112.901 19 106.352 19 97.9404C19 90.8791 23.5714 85.0916 29.5615 83.3757C31.5884 82.7951 32.8166 80.7409 32.3687 78.6807C32.0703 77.3078 31.9 75.9247 31.9 74.5204C31.9 64.3135 39.7816 56.3304 49.15 56.3304C51.4549 56.3304 53.6464 56.8109 55.6637 57.6824C56.7077 58.1334 57.8944 58.1187 58.9269 57.6419C59.9595 57.1651 60.7402 56.2713 61.0739 55.1841C64.3625 44.4701 73.9029 36.9004 84.97 36.9004C98.6797 36.9004 110.09 48.5547 110.09 63.3098C110.09 63.3098 110.09 63.321 110.088 63.3698C110.087 63.3887 110.086 63.4131 110.084 63.4446L110.083 63.4624C110.079 63.5596 110.07 63.7495 110.07 63.9504C110.07 66.0676 111.72 67.8181 113.833 67.9434C118.06 68.194 121.962 69.7288 125.198 72.2064C126.952 73.5494 129.463 73.2161 130.806 71.462C132.149 69.708 131.816 67.1973 130.062 65.8544C126.557 63.1708 122.446 61.2694 117.974 60.4143C116.562 42.8972 102.466 28.9004 84.97 28.9004ZM95.9902 102.59C95.9902 89.0603 106.96 78.0903 120.49 78.0903C134.02 78.0903 144.99 89.0603 144.99 102.59C144.99 116.12 134.02 127.09 120.49 127.09C106.96 127.09 95.9902 116.12 95.9902 102.59ZM120.49 87.0103C118.28 87.0103 116.49 88.8003 116.49 91.0103V103.79C116.49 106 118.28 107.79 120.49 107.79C122.7 107.79 124.49 106 124.49 103.79V91.0103C124.49 88.8003 122.7 87.0103 120.49 87.0103ZM124.32 115.77C124.43 115.52 124.51 115.25 124.56 114.99C124.61 114.72 124.64 114.45 124.64 114.18C124.64 113.08 124.2 112.02 123.43 111.24C122.46 110.28 121.03 109.84 119.68 110.11C119.42 110.16 119.15 110.24 118.9 110.35C118.65 110.45 118.41 110.58 118.19 110.73C117.96 110.88 117.75 111.05 117.56 111.24C116.78 112.02 116.34 113.09 116.34 114.18C116.34 114.45 116.37 114.72 116.42 114.99C116.47 115.25 116.55 115.52 116.66 115.77C116.76 116.02 116.89 116.26 117.04 116.48C117.19 116.71 117.36 116.92 117.56 117.11C117.75 117.31 117.96 117.48 118.19 117.63C118.41 117.78 118.65 117.91 118.9 118.01C119.15 118.12 119.42 118.2 119.68 118.25C119.95 118.3 120.22 118.33 120.49 118.33C121.58 118.33 122.65 117.89 123.43 117.11C123.62 116.92 123.79 116.71 123.94 116.48C124.09 116.26 124.22 116.02 124.32 115.77Z" fill="var(--spectrum-global-color-gray-800, #292929)"/>
</svg>
