<svg width="96" height="97" viewBox="0 0 96 97" xmlns="http://www.w3.org/2000/svg">
<path fill-rule="evenodd" d="M19.2434 15.136C17.6701 12.2242 21.2787 9.28387 23.8127 11.413L46.4258 30.4135L59.7345 15.7193C61.8049 13.4334 65.5627 15.384 64.8847 18.3927L61.0064 35.6024H90.4902C93.9524 35.6024 94.6616 40.4963 91.3417 41.479L65.4963 49.1294L73.6369 58.7125C75.618 61.0446 73.2459 64.498 70.3582 63.4858L58.0616 59.1757V84.3865C58.0616 87.7174 53.4444 88.5674 52.2583 85.4549L42.9026 60.9062C36.9012 64.361 28.3551 69.2058 23.4238 71.9957C20.5875 73.6004 17.6719 70.2124 19.5068 67.6373C22.4395 63.5216 27.1947 56.8201 30.5226 51.9903L12.4788 47.3593C9.44625 46.581 9.48366 42.2608 12.5293 41.5352L31.1144 37.1068L19.2434 15.136ZM25.257 17.8512L37.1107 39.79L17.3877 44.4895L37.0296 49.5307L35.4408 51.8821C32.9193 55.6139 28.7249 61.5664 25.3671 66.2984C30.9388 63.1403 38.2339 58.9922 42.933 56.2698L44.9672 55.0913L54.0616 78.9545V53.5351L68.2003 58.4909L58.4708 47.0374L83.5887 39.6024H56.0047L60.1466 21.2229L46.8033 35.9553L25.257 17.8512Z" fill="var(--spectrum-global-color-gray-800, #292929)"/>
</svg>
