<svg width="160" height="160" viewBox="0 0 160 160" xmlns="http://www.w3.org/2000/svg">
<path fill-rule="evenodd" d="M66.1453 29.7431C72.2959 19.0697 87.6969 19.0766 93.855 29.7398L93.8553 29.7404L142.925 114.74L142.925 114.74C149.084 125.406 141.391 138.74 129.071 138.74H30.9211C18.6007 138.74 10.9078 125.406 17.0671 114.74L17.0672 114.74L66.1453 29.7431ZM86.9269 33.7401C83.8447 28.4039 76.1462 28.4109 73.0768 33.7374L73.0751 33.7404L23.9951 118.74L23.995 118.741C20.9144 124.075 24.7615 130.74 30.9211 130.74H129.071C135.231 130.74 139.078 124.075 135.997 118.741L135.997 118.74L86.9272 33.7406L86.9269 33.7401ZM80.001 51.7402C82.2101 51.7402 84.001 53.5311 84.001 55.7402V94.7402C84.001 96.9494 82.2101 98.7402 80.001 98.7402C77.7919 98.7402 76.001 96.9494 76.001 94.7402V55.7402C76.001 53.5311 77.7919 51.7402 80.001 51.7402ZM86.001 110.74C86.001 114.054 83.3147 116.74 80.001 116.74C76.6873 116.74 74.001 114.054 74.001 110.74C74.001 107.427 76.6873 104.74 80.001 104.74C83.3147 104.74 86.001 107.427 86.001 110.74Z" fill="var(--spectrum-global-color-gray-800, #292929)"/>
</svg>
