<svg width="48" height="48" viewBox="0 0 48 48" xmlns="http://www.w3.org/2000/svg">
<path fill-rule="evenodd" d="M29.9707 7.34506C30.6238 7.56866 30.9721 8.2794 30.7485 8.93254L26.5307 21.253L39.0155 17.0014C39.669 16.7788 40.3791 17.1282 40.6017 17.7817C40.8242 18.4352 40.4749 19.1454 39.8214 19.3679L25.8083 24.14C25.7571 24.1574 25.7054 24.1714 25.6537 24.1819C25.5913 24.4342 25.532 24.6907 25.4716 24.9525L25.4716 24.9526L25.4715 24.9529L25.4714 24.9531L25.4714 24.9532L25.4714 24.9533C25.2175 26.0528 24.9427 27.2433 24.3217 28.5835C24.2159 28.812 24.1011 29.0431 23.9802 29.2738C24.0072 29.2734 24.0343 29.2732 24.0614 29.2732C27.2227 29.2732 29.7855 31.836 29.7855 34.9972C29.7855 38.1585 27.2227 40.7213 24.0614 40.7213C20.9001 40.7213 18.3374 38.1585 18.3374 34.9972C18.3374 33.7564 18.7322 32.6078 19.4031 31.6702C19.4439 31.603 19.4917 31.5387 19.5465 31.4783C19.6221 31.3814 19.7008 31.287 19.7825 31.1952C20.3102 30.5214 21.3917 28.9607 22.0533 27.5326C22.5169 26.5319 22.7204 25.7315 22.9346 24.8115C22.5241 24.9661 22.0768 25.1439 21.5487 25.3614C20.7239 25.7011 19.7573 26.2417 18.9157 26.7661C18.0633 27.2972 17.4277 27.7561 17.2525 27.9049C17.2104 27.9406 17.1666 27.9731 17.1215 28.0024C16.0843 29.0488 14.6458 29.6969 13.0561 29.6969C9.89477 29.6969 7.33203 27.1341 7.33203 23.9728C7.33203 20.8115 9.89477 18.2488 13.0561 18.2488C16.2075 18.2488 18.7641 20.7956 18.78 23.9432C19.376 23.6112 20.0019 23.2947 20.5966 23.0498C21.8624 22.5284 22.7104 22.2154 23.6612 21.9161L28.3832 8.12283C28.6068 7.46968 29.3176 7.12147 29.9707 7.34506ZM21.4768 33.0697C21.0752 33.6073 20.8374 34.2745 20.8374 34.9972C20.8374 36.7778 22.2809 38.2213 24.0614 38.2213C25.842 38.2213 27.2855 36.7778 27.2855 34.9972C27.2855 33.2167 25.842 31.7732 24.0614 31.7732C23.1195 31.7732 22.2719 32.1772 21.6824 32.8213C21.6065 32.9165 21.5375 32.9998 21.4768 33.0697ZM13.0561 20.7488C11.2755 20.7488 9.83203 22.1923 9.83203 23.9728C9.83203 25.7534 11.2755 27.1969 13.0561 27.1969C14.8367 27.1969 16.2801 25.7534 16.2801 23.9728C16.2801 22.1923 14.8367 20.7488 13.0561 20.7488Z" fill="var(--spectrum-global-color-gray-800, #292929)"/>
</svg>
