<svg width="96" height="97" viewBox="0 0 96 97" xmlns="http://www.w3.org/2000/svg">
<path fill-rule="evenodd" d="M19 34.6756C19 25.1855 26.6933 17.4922 36.1834 17.4922C45.6735 17.4922 53.3668 25.1855 53.3668 34.6756C53.3668 37.1373 52.8504 39.4731 51.9218 41.5849C51.4772 42.596 51.9365 43.7761 52.9476 44.2207C53.9588 44.6653 55.1389 44.2061 55.5835 43.1949C56.7309 40.5855 57.3668 37.7021 57.3668 34.6756C57.3668 22.9763 47.8827 13.4922 36.1834 13.4922C24.4841 13.4922 15 22.9763 15 34.6756C15 45.5293 23.161 54.474 33.6825 55.7127C34.7795 55.8419 35.7735 55.0573 35.9027 53.9603C36.0318 52.8633 35.2472 51.8693 34.1502 51.7402C25.6192 50.7358 19 43.4773 19 34.6756ZM37.8774 36.714C38.764 36.2333 40.151 36.5469 41.0079 37.9577L48.2185 50.9367C48.9498 52.253 50.6078 52.5849 51.7886 51.8202C53.1678 50.9271 55.3275 49.9455 57.6294 49.1863C59.9485 48.4215 62.1903 47.9559 63.7393 47.9559C68.1457 47.9559 71.4459 49.6375 73.6794 52.3238C75.9481 55.0523 77.2393 58.9738 77.2393 63.5901C77.2393 72.4416 70.1635 79.5901 61.3418 79.5901C56.7932 79.5901 50.8311 77.6964 45.4477 75.4853C40.9097 73.6215 37.0042 71.6287 34.9967 70.6045C34.6506 70.4279 34.361 70.2801 34.1342 70.1667C32.8952 69.5472 32.3916 68.944 32.1807 68.4825C31.9741 68.0302 31.9123 67.4158 32.168 66.4859C32.5114 65.2373 33.8502 64.3554 35.6926 64.8793C37.6205 65.4275 39.7628 66.2814 41.9574 67.2114C42.5811 67.4757 43.2132 67.7481 43.8439 68.0199L43.844 68.0199C45.383 68.6831 46.9141 69.3428 48.2969 69.8742C50.5462 70.7386 52.4436 68.3053 51.3538 66.3435L36.9876 40.4845L36.9687 40.4503L36.9484 40.417C36.1855 39.1618 36.6813 37.3624 37.8774 36.714ZM44.456 35.9298C42.8511 33.245 39.2954 31.3953 35.971 33.1975C32.6831 34.9799 31.6444 39.3441 33.5081 42.4579L45.7443 64.4829L45.5112 64.3825L45.511 64.3824C44.8633 64.1033 44.1986 63.8168 43.5182 63.5285C41.3073 62.5916 38.9704 61.6528 36.7867 61.0318C33.1909 60.0093 29.3448 61.6673 28.3112 65.4252C27.8919 66.9501 27.8302 68.5856 28.5424 70.1447C29.2505 71.6945 30.5844 72.8639 32.3453 73.7444C32.5538 73.8487 32.8273 73.9883 33.159 74.1576C35.1455 75.1717 39.2187 77.2512 43.928 79.1854C49.3603 81.4165 55.9494 83.5901 61.3418 83.5901C72.4024 83.5901 81.2393 74.6209 81.2393 63.5901C81.2393 58.2653 79.7511 53.3696 76.7551 49.7664C73.7239 46.1208 69.2741 43.9559 63.7393 43.9559C61.5717 43.9559 58.863 44.5675 56.3765 45.3876C54.4648 46.0181 52.5547 46.8151 50.9758 47.6634L44.4876 35.9847L44.4722 35.957L44.456 35.9298Z" fill="var(--spectrum-global-color-gray-800, #292929)"/>
</svg>
