<svg width="96" height="96" viewBox="0 0 96 96" xmlns="http://www.w3.org/2000/svg">
<path fill-rule="evenodd" d="M76.4777 21.6151C77.9389 15.1077 70.1384 10.5999 65.2329 15.1222L65.2326 15.1225L57.4329 22.3102L57.4324 22.3107C56.7575 22.9331 55.8156 23.1847 54.9222 22.9823L54.9192 22.9816L44.5692 20.6537L44.5685 20.6535C38.0611 19.1923 33.5533 26.9928 38.0756 31.8982L38.0759 31.8986L45.2636 39.6982L45.2641 39.6988C45.8865 40.3737 46.1381 41.3156 45.9357 42.209L45.935 42.212L43.607 52.562L43.6069 52.5627C42.1457 59.0701 49.9462 63.5779 54.8516 59.0556L54.852 59.0553L62.6516 51.8676L62.6522 51.8671C63.327 51.2447 64.269 50.9931 65.1624 51.1955L65.1654 51.1961L75.5154 53.5241L75.5161 53.5243C82.0235 54.9855 86.5313 47.185 82.009 42.2796L82.0087 42.2792L74.821 34.4796L74.8205 34.479C74.1981 33.8041 73.9464 32.8622 74.1488 31.9688L74.1495 31.9658L76.4775 21.6158L76.4777 21.6151ZM67.944 18.0633C69.9624 16.2023 73.1771 18.0539 72.575 20.738L72.5749 20.7387L70.2477 31.085L70.2474 31.0864C69.7545 33.2643 70.3667 35.5495 71.8795 37.1902L71.8796 37.1903L71.8801 37.1908L79.0676 44.9902L79.0679 44.9906C80.9289 47.009 79.0773 50.2237 76.3932 49.6217L76.393 49.6216L76.3925 49.6215L66.0462 47.2943L66.0448 47.294C63.8666 46.801 61.5812 47.4134 59.9404 48.9267L52.1409 56.1142L52.1406 56.1145C50.1222 57.9755 46.9075 56.1239 47.5095 53.4398L47.5097 53.4391L49.8368 43.0928L49.8373 43.0907C50.33 40.9127 49.7176 38.6276 48.2045 36.987L41.017 29.1876L41.0167 29.1872C39.1557 27.1688 41.0073 23.9541 43.6914 24.5562L43.6921 24.5563L54.0384 26.8835L54.0403 26.8839C56.2181 27.3766 58.503 26.7644 60.1436 25.2516L60.1442 25.2511L67.9436 18.0636L67.944 18.0633ZM38.7909 78.8429L31.4949 77.1989C30.5289 76.9829 29.5269 77.2529 28.8009 77.9189L23.3049 82.9889C21.1389 84.9869 17.6949 82.9949 18.3429 80.1269L19.9869 72.8309C20.2029 71.8649 19.9329 70.8629 19.2669 70.1369L14.1969 64.6409C12.1989 62.4749 14.1909 59.0309 17.0589 59.6789L24.3549 61.3229C25.3209 61.5389 26.3229 61.2689 27.0489 60.6029L32.5449 55.5329C34.7109 53.5349 38.1549 55.5269 37.5069 58.3949L35.8629 65.6909C35.6469 66.6569 35.9169 67.6589 36.5829 68.3849L41.6529 73.8809C43.6509 76.0469 41.6589 79.4909 38.7909 78.8429Z" fill="var(--spectrum-global-color-gray-800, #292929)"/>
</svg>
