<svg width="48" height="48" viewBox="0 0 48 48" xmlns="http://www.w3.org/2000/svg">
<path fill-rule="evenodd" d="M12.4988 12.75C10.98 12.75 9.7488 13.9812 9.7488 15.5L9.7488 35.5C9.7488 37.0188 10.98 38.25 12.4988 38.25L32.4988 38.25C34.0176 38.25 35.2488 37.0188 35.2488 35.5L35.2488 21C35.2488 20.3096 35.8084 19.75 36.4988 19.75C37.1892 19.75 37.7488 20.3096 37.7488 21L37.7488 35.5C37.7488 38.3995 35.3983 40.75 32.4988 40.75L12.4988 40.75C9.59931 40.75 7.2488 38.3995 7.2488 35.5L7.2488 15.5C7.2488 12.6005 9.59931 10.25 12.4988 10.25L26.9988 10.25C27.6892 10.25 28.2488 10.8096 28.2488 11.5C28.2488 12.1904 27.6892 12.75 26.9988 12.75L12.4988 12.75ZM23.6149 24.4171C23.1268 23.9289 23.1268 23.1375 23.6149 22.6493L36.2515 10.0127L31.998 10.0127C31.3077 10.0127 30.748 9.45305 30.748 8.76269C30.748 8.07234 31.3077 7.51269 31.998 7.51269L39.5234 7.5127C40.2138 7.5127 40.7734 8.07234 40.7734 8.7627L40.7734 16.2881C40.7734 16.9784 40.2138 17.5381 39.5234 17.5381C38.8331 17.5381 38.2734 16.9784 38.2734 16.2881L38.2734 11.5263L25.3827 24.4171C24.8945 24.9052 24.1031 24.9052 23.6149 24.4171Z" fill="var(--spectrum-global-color-gray-800, #292929)"/>
</svg>
