<svg width="96" height="96" viewBox="0 0 96 96" xmlns="http://www.w3.org/2000/svg">
<path fill-rule="evenodd" d="M75.5 23C75.5 19.6863 72.8137 17 69.5 17H17.5C14.1863 17 11.5 19.6863 11.5 23V29H75.5V23ZM11.5 67V33H75.5V51C75.5 52.1046 76.3954 53 77.5 53C78.6046 53 79.5 52.1046 79.5 51V23C79.5 17.4772 75.0229 13 69.5 13H17.5C11.9771 13 7.5 17.4772 7.5 23V67C7.5 72.5228 11.9771 77 17.5 77H53.5C54.6046 77 55.5 76.1046 55.5 75C55.5 73.8954 54.6046 73 53.5 73H17.5C14.1863 73 11.5 70.3137 11.5 67ZM16.5 23C16.5 24.3807 17.6193 25.5 19 25.5C20.3807 25.5 21.5 24.3807 21.5 23C21.5 21.6193 20.3807 20.5 19 20.5C17.6193 20.5 16.5 21.6193 16.5 23ZM58.25 70.5C58.25 62.3534 64.8534 55.75 73 55.75C81.1466 55.75 87.75 62.3534 87.75 70.5C87.75 78.6466 81.1466 85.25 73 85.25C64.8534 85.25 58.25 78.6466 58.25 70.5ZM79.2928 76.7928C80.0744 76.0112 80.0744 74.7386 79.2928 73.957H79.3128L75.8558 70.5L79.3128 67.043C80.0944 66.2614 80.0944 64.9888 79.3128 64.2072C78.5312 63.4256 77.2587 63.4256 76.4771 64.2072L73.02 67.6642L69.563 64.2072C68.7814 63.4256 67.5088 63.4256 66.7272 64.2072C65.9457 64.9888 65.9457 66.2614 66.7272 67.043L70.1843 70.5L66.7272 73.957C65.9457 74.7386 65.9457 76.0112 66.7272 76.7928C67.118 77.1836 67.6291 77.384 68.1401 77.384C68.6512 77.384 69.1622 77.1836 69.553 76.7928L73.01 73.3358L76.467 76.7928C76.8578 77.1836 77.3689 77.384 77.8799 77.384C78.391 77.384 78.902 77.1836 79.2928 76.7928Z" fill="var(--spectrum-global-color-gray-800, #292929)"/>
</svg>
