<svg width="160" height="160" viewBox="0 0 160 160" xmlns="http://www.w3.org/2000/svg">
<path fill-rule="evenodd" d="M62.4659 28.1989C68.2779 26.0317 74.4308 24.9219 80.6338 24.9219L104.989 24.9219C105.085 24.9219 105.18 24.9252 105.274 24.9319L111.89 24.9319C114.887 24.9319 118.171 25.7485 120.806 27.7702C123.573 29.8925 125.361 33.1598 125.361 37.3208C125.361 38.4884 125.121 40.531 124.168 42.6204C127.573 44.2272 130.155 47.3652 130.951 51.2495C131.624 54.5358 130.921 57.7319 129.279 60.3016C132.185 62.408 134.137 65.7623 134.334 69.6052C134.477 72.3914 133.68 74.999 132.227 77.1298C134.907 79.2475 136.686 82.4644 136.874 86.1242C137.233 93.1325 131.647 99.0116 124.63 99.0116L97.9376 99.0116L99.6294 104.448C101.482 110.399 102.67 116.537 103.173 122.749L103.454 126.221C104.015 133.147 98.5451 139.078 91.596 139.078C87.0107 139.078 82.8335 136.443 80.8588 132.305L71.552 112.801C70.7478 111.115 69.8209 109.491 68.7789 107.942L68.5461 107.595C62.81 99.0651 53.2048 93.9492 42.9253 93.9492L37.1113 93.9492C29.3793 93.9492 23.1113 87.6811 23.1113 79.9492L23.1113 48.2334C23.1113 40.5014 29.3793 34.2334 37.1113 34.2334L38.346 34.2334C43.5947 34.2334 48.801 33.2943 53.7189 31.4605L62.4659 28.1989ZM80.6338 32.9219L93.7761 32.9219C93.8702 32.9285 93.9652 32.9319 94.061 32.9319L111.89 32.9319C113.55 32.9319 115.001 33.3998 115.937 34.1177C116.741 34.735 117.361 35.6621 117.361 37.3208C117.361 37.7845 117.237 38.6971 116.785 39.5144C116.402 40.2063 115.746 40.9313 114.319 41.3118C114.172 41.3508 114.03 41.3974 113.892 41.4512L113.886 41.4512L113.88 41.4512L113.874 41.4512L113.868 41.4512L113.862 41.4512L113.856 41.4512L113.85 41.4512L113.844 41.4512L113.838 41.4512L113.832 41.4512L113.826 41.4512L113.82 41.4512L113.814 41.4512L113.809 41.4512L113.803 41.4512L113.797 41.4512L113.791 41.4512L113.785 41.4512L113.78 41.4512L113.774 41.4512L113.769 41.4512L113.763 41.4512L113.757 41.4512L113.752 41.4512L113.746 41.4512L113.741 41.4512L113.735 41.4512L113.73 41.4512L113.724 41.4512L113.719 41.4512L113.714 41.4512L113.708 41.4512L113.703 41.4512L113.698 41.4512L113.692 41.4512L113.687 41.4512L113.682 41.4512L113.677 41.4512L113.672 41.4512L113.666 41.4512L113.661 41.4512L113.656 41.4512C111.447 41.4512 109.656 43.242 109.656 45.4512C109.656 47.6603 111.447 49.4512 113.656 49.4512L113.661 49.4512L113.666 49.4512L113.672 49.4512L113.677 49.4512L113.682 49.4512L113.687 49.4512L113.692 49.4512L113.698 49.4512L113.703 49.4512L113.708 49.4512L113.714 49.4512L113.719 49.4512L113.724 49.4512L113.73 49.4512L113.735 49.4512L113.741 49.4512L113.746 49.4512L113.752 49.4512L113.757 49.4512L113.763 49.4512L113.769 49.4512L113.774 49.4512L113.78 49.4512L113.785 49.4512L113.791 49.4512L113.797 49.4512L113.803 49.4512L113.809 49.4512L113.814 49.4512L113.82 49.4512L113.826 49.4512L113.832 49.4512L113.838 49.4512L113.844 49.4512L113.85 49.4512L113.856 49.4512L113.862 49.4512L113.868 49.4512L113.874 49.4512L113.88 49.4512L113.886 49.4512L113.892 49.4512L113.898 49.4512L113.905 49.4512L113.911 49.4512L113.917 49.4512L113.923 49.4512L113.93 49.4512L113.936 49.4512L113.942 49.4512L113.949 49.4512L113.955 49.4512L113.961 49.4512L113.968 49.4512L113.974 49.4512L113.981 49.4512L113.987 49.4512L113.994 49.4512L114 49.4512L114.007 49.4512L114.014 49.4512L114.02 49.4512L114.027 49.4512L114.034 49.4512L114.04 49.4512L114.047 49.4512L114.054 49.4512L114.061 49.4512L114.067 49.4512L114.074 49.4512L114.081 49.4512L114.088 49.4512L114.095 49.4512L114.102 49.4512L114.109 49.4512L114.116 49.4512L114.123 49.4512L114.13 49.4512L114.137 49.4512L114.144 49.4512L114.151 49.4512L114.158 49.4512L114.165 49.4512L114.172 49.4512L114.18 49.4512L114.187 49.4512L114.194 49.4512L114.201 49.4512L114.209 49.4512L114.216 49.4512L114.223 49.4512L114.231 49.4512L114.238 49.4512L114.245 49.4512L114.253 49.4512L114.26 49.4512L114.268 49.4512L114.275 49.4512L114.283 49.4512L114.29 49.4512L114.298 49.4512L114.305 49.4512L114.313 49.4512L114.321 49.4512L114.328 49.4512L114.336 49.4512L114.344 49.4512L114.351 49.4512L114.359 49.4512L114.367 49.4512L114.375 49.4512L114.382 49.4512L114.39 49.4512L114.398 49.4512L114.406 49.4512L114.414 49.4512L114.422 49.4512L114.43 49.4512L114.438 49.4512L114.446 49.4512L114.454 49.4512L114.462 49.4512L114.47 49.4512L114.478 49.4512L114.486 49.4512L114.494 49.4512L114.502 49.4512L114.51 49.4512L114.519 49.4512L114.527 49.4512L114.535 49.4512L114.543 49.4512L114.552 49.4512L114.56 49.4512L114.568 49.4512L114.577 49.4512L114.585 49.4512L114.593 49.4512L114.602 49.4512L114.61 49.4512L114.619 49.4512L114.627 49.4512L114.636 49.4512L114.644 49.4512L114.653 49.4512L114.661 49.4512L114.67 49.4512L114.678 49.4512L114.687 49.4512L114.696 49.4512L114.704 49.4512L114.713 49.4512L114.722 49.4512L114.73 49.4512L114.739 49.4512L114.748 49.4512L114.757 49.4512L114.766 49.4512L114.774 49.4512L114.783 49.4512L114.792 49.4512L114.801 49.4512L114.81 49.4512L114.819 49.4512L114.828 49.4512L114.837 49.4512L114.846 49.4512L114.855 49.4512L114.864 49.4512L114.873 49.4512L114.882 49.4512L114.891 49.4512L114.9 49.4512L114.909 49.4512L114.919 49.4512L114.928 49.4512L114.937 49.4512L114.946 49.4512L114.955 49.4512L114.965 49.4512L114.974 49.4512L114.983 49.4512L114.993 49.4512L115.002 49.4512L115.011 49.4512L115.021 49.4512L115.03 49.4512L115.04 49.4512L115.049 49.4512L115.059 49.4512L115.068 49.4512L115.078 49.4512L115.087 49.4512L115.097 49.4512L115.106 49.4512L115.116 49.4512L115.125 49.4512L115.135 49.4512L115.145 49.4512L115.154 49.4512L115.164 49.4512L115.174 49.4512L115.183 49.4512L115.193 49.4512L115.203 49.4512L115.213 49.4512L115.222 49.4512L115.232 49.4512L115.242 49.4512L115.252 49.4512L115.262 49.4512L115.272 49.4512L115.282 49.4512L115.292 49.4512L115.302 49.4512L115.312 49.4512L115.321 49.4512L115.331 49.4512L115.342 49.4512L115.352 49.4512L115.362 49.4512L115.372 49.4512L115.382 49.4512L115.392 49.4512L115.402 49.4512L115.412 49.4512L115.422 49.4512L115.433 49.4512L115.443 49.4512L115.453 49.4512L115.463 49.4512L115.474 49.4512L115.484 49.4512L115.494 49.4512L115.504 49.4512L115.515 49.4512L115.525 49.4512L115.536 49.4512L115.546 49.4512L115.556 49.4512L115.567 49.4512L115.577 49.4512L115.588 49.4512L115.598 49.4512L115.609 49.4512L115.619 49.4512L115.63 49.4512L115.64 49.4512L115.651 49.4512L115.662 49.4512L115.672 49.4512L115.683 49.4512L115.693 49.4512L115.704 49.4512L115.715 49.4512L115.725 49.4512L115.736 49.4512L115.747 49.4512L115.758 49.4512L115.768 49.4512L115.779 49.4512L115.79 49.4512L115.801 49.4512L115.812 49.4512L115.823 49.4512L115.833 49.4512L115.844 49.4512L115.855 49.4512L115.866 49.4512L115.877 49.4512L115.888 49.4512L115.899 49.4512L115.91 49.4512L115.921 49.4512L115.932 49.4512L115.943 49.4512L115.954 49.4512L115.965 49.4512L115.976 49.4512L115.987 49.4512L115.998 49.4512L116.01 49.4512L116.021 49.4512L116.032 49.4512L116.043 49.4512L116.054 49.4512L116.066 49.4512L116.077 49.4512L116.088 49.4512L116.099 49.4512L116.111 49.4512L116.122 49.4512L116.133 49.4512L116.145 49.4512L116.156 49.4512L116.167 49.4512L116.179 49.4512L116.19 49.4512L116.202 49.4512L116.213 49.4512L116.224 49.4512L116.236 49.4512L116.247 49.4512L116.259 49.4512L116.27 49.4512L116.282 49.4512L116.293 49.4512L116.305 49.4512L116.317 49.4512L116.328 49.4512L116.34 49.4512L116.351 49.4512L116.363 49.4512L116.375 49.4512L116.386 49.4512L116.398 49.4512L116.41 49.4512L116.421 49.4512L116.433 49.4512L116.445 49.4512L116.457 49.4512L116.469 49.4512L116.48 49.4512L116.492 49.4512L116.504 49.4512L116.516 49.4512L116.528 49.4512L116.539 49.4512L116.551 49.4512L116.563 49.4512L116.575 49.4512L116.587 49.4512L116.599 49.4512L116.611 49.4512L116.623 49.4512L116.635 49.4512L116.647 49.4512L116.659 49.4512L116.671 49.4512L116.683 49.4512L116.695 49.4512L116.707 49.4512L116.719 49.4512L116.731 49.4512L116.743 49.4512L116.756 49.4512L116.768 49.4512L116.78 49.4512L116.792 49.4512L116.804 49.4512L116.816 49.4512L116.829 49.4512L116.841 49.4512L116.853 49.4512L116.865 49.4512L116.878 49.4512L116.89 49.4512L116.902 49.4512L116.915 49.4512L116.927 49.4512L116.939 49.4512L116.952 49.4512L116.964 49.4512L116.976 49.4512L116.989 49.4512L117.001 49.4512L117.014 49.4512L117.026 49.4512L117.038 49.4512L117.051 49.4512L117.063 49.4512L117.076 49.4512L117.088 49.4512L117.101 49.4512L117.113 49.4512L117.126 49.4512L117.139 49.4512L117.151 49.4512L117.164 49.4512L117.176 49.4512L117.189 49.4512L117.201 49.4512L117.214 49.4512L117.227 49.4512L117.239 49.4512L117.252 49.4512L117.265 49.4512L117.277 49.4512L117.29 49.4512L117.303 49.4512L117.316 49.4512L117.328 49.4512L117.341 49.4512L117.354 49.4512L117.367 49.4512L117.38 49.4512L117.392 49.4512L117.405 49.4512L117.418 49.4512L117.431 49.4512L117.444 49.4512L117.457 49.4512L117.469 49.4512L117.482 49.4512L117.495 49.4512L117.508 49.4512L117.521 49.4512L117.534 49.4512L117.547 49.4512L117.56 49.4512L117.573 49.4512L117.586 49.4512L117.599 49.4512L117.612 49.4512L117.625 49.4512L117.638 49.4512L117.651 49.4512L117.664 49.4512L117.677 49.4512L117.69 49.4512L117.704 49.4512L117.717 49.4512L117.73 49.4512L117.743 49.4512L117.756 49.4512L117.769 49.4512L117.782 49.4512L117.796 49.4512L117.809 49.4512L117.822 49.4512L117.835 49.4512L117.848 49.4512L117.862 49.4512L117.875 49.4512L117.888 49.4512L117.901 49.4512L117.915 49.4512L117.928 49.4512L117.941 49.4512L117.955 49.4512L117.968 49.4512L117.981 49.4512L117.995 49.4512L118.008 49.4512L118.021 49.4512L118.035 49.4512L118.048 49.4512L118.062 49.4512L118.075 49.4512L118.088 49.4512L118.102 49.4512L118.115 49.4512L118.129 49.4512L118.142 49.4512L118.156 49.4512L118.169 49.4512L118.183 49.4512L118.196 49.4512L118.21 49.4512L118.223 49.4512L118.237 49.4512L118.25 49.4512L118.264 49.4512L118.277 49.4512L118.291 49.4512L118.305 49.4512L118.318 49.4512L118.332 49.4512L118.345 49.4512L118.359 49.4512L118.373 49.4512L118.386 49.4512L118.4 49.4512L118.414 49.4512L118.427 49.4512L118.441 49.4512L118.455 49.4512L118.468 49.4512L118.482 49.4512L118.496 49.4512L118.51 49.4512L118.523 49.4512L118.537 49.4512L118.551 49.4512L118.565 49.4512L118.579 49.4512L118.592 49.4512L118.606 49.4512L118.62 49.4512L118.634 49.4512L118.648 49.4512L118.661 49.4512L118.675 49.4512L118.689 49.4512L118.703 49.4512L118.717 49.4512L118.731 49.4512L118.745 49.4512L118.759 49.4512L118.772 49.4512L118.786 49.4512L118.8 49.4512L118.814 49.4512L118.828 49.4512L118.842 49.4512L118.856 49.4512L118.87 49.4512L118.884 49.4512L118.898 49.4512L118.912 49.4512L118.926 49.4512L118.94 49.4512C120.963 49.4512 122.708 50.8742 123.114 52.8558C123.655 55.4974 121.637 57.9711 118.94 57.9711L117.042 57.9711C114.833 57.9711 113.042 59.762 113.042 61.9711C113.042 64.1803 114.833 65.9711 117.042 65.9711L118.94 65.9711C119.255 65.9711 119.566 65.9594 119.873 65.9365C120.05 65.9603 120.23 65.9726 120.413 65.9726L120.415 65.9726L120.418 65.9726L120.42 65.9726L120.422 65.9726L120.424 65.9726L120.427 65.9726L120.429 65.9726L120.431 65.9726L120.434 65.9726L120.436 65.9726L120.438 65.9726L120.441 65.9726L120.443 65.9726L120.445 65.9726L120.447 65.9726L120.45 65.9726L120.452 65.9726L120.454 65.9726L120.457 65.9726L120.459 65.9726L120.462 65.9726L120.464 65.9726L120.466 65.9726L120.469 65.9726L120.471 65.9726L120.473 65.9726L120.476 65.9726L120.478 65.9726L120.48 65.9726L120.483 65.9726L120.485 65.9726L120.488 65.9726L120.49 65.9726L120.492 65.9726L120.495 65.9726L120.497 65.9726L120.5 65.9726L120.502 65.9726L120.504 65.9726L120.507 65.9726L120.509 65.9726L120.512 65.9726L120.514 65.9726L120.517 65.9726L120.519 65.9726L120.522 65.9726L120.524 65.9726L120.526 65.9726L120.529 65.9726L120.531 65.9726L120.534 65.9726L120.536 65.9726L120.539 65.9726L120.541 65.9726L120.544 65.9726L120.546 65.9726L120.549 65.9726L120.551 65.9726L120.554 65.9726L120.556 65.9726L120.559 65.9726L120.561 65.9726L120.564 65.9726L120.566 65.9726L120.569 65.9726L120.572 65.9726L120.574 65.9726L120.577 65.9726L120.579 65.9726L120.582 65.9726L120.584 65.9726L120.587 65.9726L120.589 65.9726L120.592 65.9726L120.595 65.9726L120.597 65.9726L120.6 65.9726L120.602 65.9726L120.605 65.9726L120.608 65.9726L120.61 65.9726L120.613 65.9726L120.615 65.9726L120.618 65.9726L120.621 65.9726L120.623 65.9726L120.626 65.9726L120.628 65.9726L120.631 65.9726L120.634 65.9726L120.636 65.9726L120.639 65.9726L120.642 65.9726L120.644 65.9726L120.647 65.9726L120.65 65.9726L120.652 65.9726L120.655 65.9726L120.658 65.9726L120.66 65.9726L120.663 65.9726L120.666 65.9726L120.668 65.9726L120.671 65.9726L120.674 65.9726L120.677 65.9726L120.679 65.9726L120.682 65.9726L120.685 65.9726L120.687 65.9726L120.69 65.9726L120.693 65.9726L120.696 65.9726L120.698 65.9726L120.701 65.9726L120.704 65.9726L120.707 65.9726L120.709 65.9726L120.712 65.9726L120.715 65.9726L120.718 65.9726L120.72 65.9726L120.723 65.9726L120.726 65.9726L120.729 65.9726L120.732 65.9726L120.734 65.9726L120.737 65.9726L120.74 65.9726L120.743 65.9726L120.746 65.9726L120.748 65.9726L120.751 65.9726L120.754 65.9726L120.757 65.9726L120.76 65.9726L120.762 65.9726L120.765 65.9726L120.768 65.9726L120.771 65.9726L120.774 65.9726L120.777 65.9726L120.78 65.9726L120.782 65.9726L120.785 65.9726L120.788 65.9726L120.791 65.9726L120.794 65.9726L120.797 65.9726L120.8 65.9726L120.803 65.9726L120.805 65.9726L120.808 65.9726L120.811 65.9726L120.814 65.9726L120.817 65.9726L120.82 65.9726L120.823 65.9726L120.826 65.9726L120.829 65.9726L120.832 65.9726L120.835 65.9726L120.837 65.9726L120.84 65.9726L120.843 65.9726L120.846 65.9726L120.849 65.9726L120.852 65.9726L120.855 65.9726L120.858 65.9726L120.861 65.9726L120.864 65.9726L120.867 65.9726L120.87 65.9726L120.873 65.9726L120.876 65.9726L120.879 65.9726L120.882 65.9726L120.885 65.9726L120.888 65.9726L120.891 65.9726L120.894 65.9726L120.897 65.9726L120.9 65.9726L120.903 65.9726L120.906 65.9726L120.909 65.9726L120.912 65.9726L120.915 65.9726L120.918 65.9726L120.921 65.9726L120.924 65.9726L120.927 65.9726L120.93 65.9726L120.934 65.9726L120.937 65.9726L120.94 65.9726L120.943 65.9726L120.946 65.9726L120.949 65.9726L120.952 65.9726L120.955 65.9726L120.958 65.9726L120.961 65.9726L120.964 65.9726L120.967 65.9726L120.971 65.9726L120.974 65.9726L120.977 65.9726L120.98 65.9726L120.983 65.9726L120.986 65.9726L120.989 65.9726L120.992 65.9726L120.996 65.9726L120.999 65.9726L121.002 65.9726L121.005 65.9726L121.008 65.9726L121.011 65.9726L121.015 65.9726L121.018 65.9726L121.021 65.9726L121.024 65.9726L121.027 65.9726L121.03 65.9726L121.034 65.9726L121.037 65.9726L121.04 65.9726L121.043 65.9726L121.046 65.9726L121.05 65.9726L121.053 65.9726L121.056 65.9726L121.059 65.9726L121.062 65.9726L121.066 65.9726L121.069 65.9726L121.072 65.9726L121.075 65.9726L121.079 65.9726L121.082 65.9726L121.085 65.9726L121.088 65.9726L121.092 65.9726L121.095 65.9726L121.098 65.9726L121.101 65.9726L121.105 65.9726L121.108 65.9726L121.111 65.9726L121.115 65.9726L121.118 65.9726L121.121 65.9726L121.124 65.9726L121.128 65.9726L121.131 65.9726L121.134 65.9726L121.138 65.9726L121.141 65.9726L121.144 65.9726L121.148 65.9726L121.151 65.9726L121.154 65.9726L121.158 65.9726L121.161 65.9726L121.164 65.9726L121.168 65.9726L121.171 65.9726L121.174 65.9726L121.178 65.9726L121.181 65.9726L121.184 65.9726L121.188 65.9726L121.191 65.9726L121.194 65.9726L121.198 65.9726L121.201 65.9726L121.205 65.9726L121.208 65.9726L121.211 65.9726L121.215 65.9726L121.218 65.9726L121.222 65.9726L121.225 65.9726L121.228 65.9726L121.232 65.9726L121.235 65.9726L121.239 65.9726L121.242 65.9726L121.245 65.9726L121.249 65.9726L121.252 65.9726L121.256 65.9726L121.259 65.9726L121.263 65.9726L121.266 65.9726L121.27 65.9726L121.273 65.9726L121.276 65.9726L121.28 65.9726L121.283 65.9726L121.287 65.9726L121.29 65.9726L121.294 65.9726L121.297 65.9726L121.301 65.9726L121.304 65.9726L121.308 65.9726L121.311 65.9726L121.315 65.9726L121.318 65.9726L121.322 65.9726L121.325 65.9726L121.329 65.9726L121.332 65.9726L121.336 65.9726L121.339 65.9726L121.343 65.9726L121.346 65.9726L121.35 65.9726L121.354 65.9726L121.357 65.9726L121.361 65.9726L121.364 65.9726L121.368 65.9726L121.371 65.9726L121.375 65.9726L121.378 65.9726L121.382 65.9726L121.386 65.9726L121.389 65.9726L121.393 65.9726L121.396 65.9726L121.4 65.9726L121.403 65.9726L121.407 65.9726L121.411 65.9726L121.414 65.9726L121.418 65.9726L121.421 65.9726L121.425 65.9726L121.429 65.9726L121.432 65.9726L121.436 65.9726L121.44 65.9726L121.443 65.9726L121.447 65.9726L121.45 65.9726L121.454 65.9726L121.458 65.9726L121.461 65.9726L121.465 65.9726L121.469 65.9726L121.472 65.9726L121.476 65.9726L121.48 65.9726L121.483 65.9726L121.487 65.9726L121.491 65.9726L121.494 65.9726L121.498 65.9726L121.502 65.9726L121.505 65.9726L121.509 65.9726L121.513 65.9726L121.517 65.9726L121.52 65.9726L121.524 65.9726L121.528 65.9726L121.531 65.9726L121.535 65.9726L121.539 65.9726L121.543 65.9726L121.546 65.9726L121.55 65.9726L121.554 65.9726L121.557 65.9726L121.561 65.9726L121.565 65.9726L121.569 65.9726L121.572 65.9726L121.576 65.9726L121.58 65.9726L121.584 65.9726L121.587 65.9726L121.591 65.9726L121.595 65.9726L121.599 65.9726L121.603 65.9726L121.606 65.9726L121.61 65.9726L121.614 65.9726L121.618 65.9726L121.622 65.9726L121.625 65.9726L121.629 65.9726L121.633 65.9726L121.637 65.9726L121.641 65.9726L121.644 65.9726L121.648 65.9726L121.652 65.9726L121.656 65.9726L121.66 65.9726L121.664 65.9726L121.667 65.9726L121.671 65.9726L121.675 65.9726L121.679 65.9726L121.683 65.9726L121.687 65.9726L121.69 65.9726L121.694 65.9726L121.698 65.9726L121.702 65.9726L121.706 65.9726L121.71 65.9726L121.714 65.9726L121.718 65.9726L121.721 65.9726L121.725 65.9726L121.729 65.9726L121.733 65.9726L121.737 65.9726L121.741 65.9726L121.745 65.9726L121.749 65.9726L121.753 65.9726L121.757 65.9726L121.761 65.9726L121.764 65.9726L121.768 65.9726L121.772 65.9726L121.776 65.9726L121.78 65.9726L121.784 65.9726L121.788 65.9726L121.792 65.9726L121.796 65.9726L121.8 65.9726L121.804 65.9726L121.808 65.9726L121.812 65.9726L121.816 65.9726L121.82 65.9726L121.824 65.9726L121.828 65.9726L121.832 65.9726L121.836 65.9726L121.84 65.9726L121.844 65.9726L121.848 65.9726L121.852 65.9726L121.856 65.9726L121.86 65.9726L121.864 65.9726L121.868 65.9726L121.872 65.9726L121.876 65.9726L121.88 65.9726L121.884 65.9726L121.888 65.9726L121.892 65.9726L121.896 65.9726L121.9 65.9726L121.904 65.9726L121.908 65.9726L121.912 65.9726L121.916 65.9726L121.92 65.9726L121.924 65.9726L121.928 65.9726L121.932 65.9726L121.936 65.9726L121.94 65.9726L121.944 65.9726L121.949 65.9726L121.953 65.9726L121.957 65.9726L121.961 65.9726L121.965 65.9726L121.969 65.9726L121.973 65.9726L121.977 65.9726L121.981 65.9726L121.985 65.9726L121.989 65.9726L121.994 65.9726L121.998 65.9726L122.002 65.9726L122.006 65.9726L122.01 65.9726L122.014 65.9726L122.018 65.9726L122.022 65.9726L122.027 65.9726L122.031 65.9726L122.035 65.9726L122.039 65.9726L122.043 65.9726L122.047 65.9726L122.051 65.9726L122.056 65.9726L122.06 65.9726L122.064 65.9726L122.068 65.9726L122.072 65.9726L122.076 65.9726L122.081 65.9726L122.085 65.9726L122.089 65.9726C124.358 65.9726 126.229 67.7504 126.345 70.0146C126.468 72.4194 124.577 74.4415 122.182 74.4917L122.18 74.4917L122.172 74.4917L122.163 74.4917L122.155 74.4917L122.147 74.4917L122.138 74.4917L122.13 74.4917L122.122 74.4917L122.113 74.4917L122.105 74.4917L122.097 74.4917L122.089 74.4917L122.08 74.4917L122.072 74.4917L122.064 74.4917L122.056 74.4917L122.048 74.4917L122.039 74.4917L122.031 74.4917L122.023 74.4917L122.015 74.4917L122.007 74.4917L121.998 74.4917L121.99 74.4917L121.982 74.4917L121.974 74.4917L121.966 74.4917L121.958 74.4917L121.95 74.4917L121.942 74.4917L121.933 74.4917L121.925 74.4917L121.917 74.4917L121.909 74.4917L121.901 74.4917L121.893 74.4917L121.885 74.4917L121.877 74.4917L121.869 74.4917L121.861 74.4917L121.853 74.4917L121.845 74.4917L121.837 74.4917L121.829 74.4917L121.821 74.4917L121.813 74.4917L121.805 74.4917L121.797 74.4917L121.79 74.4917L121.782 74.4917L121.774 74.4917L121.766 74.4917L121.758 74.4917L121.75 74.4917L121.742 74.4917L121.734 74.4917L121.726 74.4917L121.719 74.4917L121.711 74.4917L121.703 74.4917L121.695 74.4917L121.687 74.4917L121.68 74.4917L121.672 74.4917L121.664 74.4917L121.656 74.4917L121.648 74.4917L121.641 74.4917L121.633 74.4917L121.625 74.4917L121.617 74.4917L121.61 74.4917L121.602 74.4917L121.594 74.4917L121.587 74.4917L121.579 74.4917L121.571 74.4917L121.564 74.4917L121.556 74.4917L121.548 74.4917L121.541 74.4917L121.533 74.4917L121.525 74.4917L121.518 74.4917L121.51 74.4917L121.503 74.4917L121.495 74.4917L121.487 74.4917L121.48 74.4917L121.472 74.4917L121.465 74.4917L121.457 74.4917L121.45 74.4917L121.442 74.4917L121.435 74.4917L121.427 74.4917L121.42 74.4917L121.412 74.4917L121.405 74.4917L121.397 74.4917L121.39 74.4917L121.382 74.4917L121.375 74.4917L121.368 74.4917L121.36 74.4917L121.353 74.4917L121.345 74.4917L121.338 74.4917L121.33 74.4917L121.323 74.4917L121.316 74.4917L121.308 74.4917L121.301 74.4917L121.294 74.4917L121.286 74.4917L121.279 74.4917L121.272 74.4917L121.264 74.4917L121.257 74.4917L121.25 74.4917L121.242 74.4917L121.235 74.4917L121.228 74.4917L121.221 74.4917L121.213 74.4917L121.206 74.4917L121.199 74.4917L121.192 74.4917L121.185 74.4917L121.177 74.4917L121.17 74.4917L121.163 74.4917L121.156 74.4917L121.149 74.4917L121.141 74.4917L121.134 74.4917L121.127 74.4917L121.12 74.4917L121.113 74.4917L121.106 74.4917L121.099 74.4917L121.092 74.4917L121.084 74.4917L121.077 74.4917L121.07 74.4917L121.063 74.4917L121.056 74.4917L121.049 74.4917L121.042 74.4917L121.035 74.4917L121.028 74.4917L121.021 74.4917L121.014 74.4917L121.007 74.4917L121 74.4917L120.993 74.4917L120.986 74.4917L120.979 74.4917L120.972 74.4917L120.965 74.4917L120.958 74.4917L120.951 74.4917L120.944 74.4917L120.938 74.4917L120.931 74.4917L120.924 74.4917L120.917 74.4917L120.91 74.4917L120.903 74.4917L120.896 74.4917L120.889 74.4917L120.883 74.4917L120.876 74.4917L120.869 74.4917L120.862 74.4917L120.855 74.4917L120.848 74.4917L120.842 74.4917L120.835 74.4917L120.828 74.4917L120.821 74.4917L120.815 74.4917L120.808 74.4917L120.801 74.4917L120.794 74.4917L120.788 74.4917L120.781 74.4917L120.774 74.4917L120.768 74.4917L120.761 74.4917L120.754 74.4917L120.748 74.4917L120.741 74.4917L120.734 74.4917L120.728 74.4917L120.721 74.4917L120.714 74.4917L120.708 74.4917L120.701 74.4917L120.694 74.4917L120.688 74.4917L120.681 74.4917L120.675 74.4917L120.668 74.4917L120.662 74.4917L120.655 74.4917L120.648 74.4917L120.642 74.4917L120.635 74.4917L120.629 74.4917L120.622 74.4917L120.616 74.4917L120.609 74.4917L120.603 74.4917L120.596 74.4917L120.59 74.4917L120.584 74.4917L120.577 74.4917L120.571 74.4917L120.564 74.4917L120.558 74.4917L120.551 74.4917L120.545 74.4917L120.539 74.4917L120.532 74.4917L120.526 74.4917L120.519 74.4917L120.513 74.4917L120.507 74.4917L120.5 74.4917L120.494 74.4917L120.488 74.4917L120.481 74.4917L120.475 74.4917L120.469 74.4917L120.462 74.4917L120.456 74.4917L120.45 74.4917L120.444 74.4917L120.437 74.4917L120.431 74.4917L120.425 74.4917L120.419 74.4917L120.412 74.4917L120.406 74.4917L120.4 74.4917L120.394 74.4917L120.387 74.4917L120.381 74.4917L120.375 74.4917L120.369 74.4917L120.363 74.4917L120.357 74.4917L120.35 74.4917L120.344 74.4917L120.338 74.4917L120.332 74.4917C120.303 74.4917 120.273 74.492 120.244 74.4926L119.567 74.4926C117.358 74.4926 115.567 76.2835 115.567 78.4926C115.567 80.7017 117.358 82.4926 119.567 82.4926L122.09 82.4926C122.142 82.4926 122.193 82.4923 122.245 82.4917L122.247 82.4917L122.256 82.4917L122.264 82.4917L122.272 82.4917L122.281 82.4917L122.289 82.4917L122.298 82.4917L122.306 82.4917L122.315 82.4917L122.323 82.4917L122.332 82.4917L122.34 82.4917L122.349 82.4917L122.357 82.4917L122.366 82.4917L122.375 82.4917L122.383 82.4917L122.392 82.4917L122.4 82.4917L122.409 82.4917L122.418 82.4917L122.426 82.4917L122.435 82.4917L122.443 82.4917L122.452 82.4917L122.461 82.4917L122.469 82.4917L122.478 82.4917L122.487 82.4917L122.495 82.4917L122.504 82.4917L122.513 82.4917L122.522 82.4917L122.53 82.4917L122.539 82.4917L122.548 82.4917L122.557 82.4917L122.565 82.4917L122.574 82.4917L122.583 82.4917L122.592 82.4917L122.6 82.4917L122.609 82.4917L122.618 82.4917L122.627 82.4917L122.636 82.4917L122.645 82.4917L122.653 82.4917L122.662 82.4917L122.671 82.4917L122.68 82.4917L122.689 82.4917L122.698 82.4917L122.707 82.4917L122.716 82.4917L122.725 82.4917L122.734 82.4917L122.743 82.4917L122.752 82.4917L122.761 82.4917L122.77 82.4917L122.778 82.4917L122.787 82.4917L122.797 82.4917L122.806 82.4917L122.815 82.4917L122.824 82.4917L122.833 82.4917L122.842 82.4917L122.851 82.4917L122.86 82.4917L122.869 82.4917L122.878 82.4917L122.887 82.4917L122.896 82.4917L122.905 82.4917L122.914 82.4917L122.924 82.4917L122.933 82.4917L122.942 82.4917L122.951 82.4917L122.96 82.4917L122.969 82.4917L122.979 82.4917L122.988 82.4917L122.997 82.4917L123.006 82.4917L123.016 82.4917L123.025 82.4917L123.034 82.4917L123.043 82.4917L123.053 82.4917L123.062 82.4917L123.071 82.4917L123.08 82.4917L123.09 82.4917L123.099 82.4917L123.108 82.4917L123.118 82.4917L123.127 82.4917L123.137 82.4917L123.146 82.4917L123.155 82.4917L123.165 82.4917L123.174 82.4917L123.183 82.4917L123.193 82.4917L123.202 82.4917L123.212 82.4917L123.221 82.4917L123.231 82.4917L123.24 82.4917L123.25 82.4917L123.259 82.4917L123.269 82.4917L123.278 82.4917L123.288 82.4917L123.297 82.4917L123.307 82.4917L123.316 82.4917L123.326 82.4917L123.335 82.4917L123.345 82.4917L123.354 82.4917L123.364 82.4917L123.374 82.4917L123.383 82.4917L123.393 82.4917L123.402 82.4917L123.412 82.4917L123.422 82.4917L123.431 82.4917L123.441 82.4917L123.451 82.4917L123.46 82.4917L123.47 82.4917L123.48 82.4917L123.49 82.4917L123.499 82.4917L123.509 82.4917L123.519 82.4917L123.529 82.4917L123.538 82.4917L123.548 82.4917L123.558 82.4917L123.568 82.4917L123.577 82.4917L123.587 82.4917L123.597 82.4917L123.607 82.4917L123.617 82.4917L123.627 82.4917L123.636 82.4917L123.646 82.4917L123.656 82.4917L123.666 82.4917L123.676 82.4917L123.686 82.4917L123.696 82.4917L123.706 82.4917L123.716 82.4917L123.726 82.4917L123.736 82.4917L123.746 82.4917L123.756 82.4917L123.766 82.4917L123.776 82.4917L123.786 82.4917L123.796 82.4917L123.806 82.4917L123.816 82.4917L123.826 82.4917L123.836 82.4917L123.846 82.4917L123.856 82.4917L123.866 82.4917L123.876 82.4917L123.886 82.4917L123.896 82.4917L123.906 82.4917L123.917 82.4917L123.927 82.4917L123.937 82.4917L123.947 82.4917L123.957 82.4917L123.967 82.4917L123.978 82.4917L123.988 82.4917L123.998 82.4917L124.008 82.4917L124.018 82.4917L124.029 82.4917L124.039 82.4917L124.049 82.4917L124.059 82.4917L124.07 82.4917L124.08 82.4917L124.09 82.4917L124.101 82.4917L124.111 82.4917L124.121 82.4917L124.132 82.4917L124.142 82.4917L124.152 82.4917L124.163 82.4917L124.173 82.4917L124.183 82.4917L124.194 82.4917L124.204 82.4917L124.215 82.4917L124.225 82.4917L124.236 82.4917L124.246 82.4917L124.256 82.4917L124.267 82.4917L124.277 82.4917L124.288 82.4917L124.298 82.4917L124.309 82.4917L124.319 82.4917L124.33 82.4917L124.341 82.4917L124.351 82.4917L124.362 82.4917L124.372 82.4917L124.383 82.4917L124.393 82.4917L124.404 82.4917L124.415 82.4917L124.425 82.4917L124.436 82.4917L124.446 82.4917L124.457 82.4917L124.468 82.4917L124.478 82.4917L124.489 82.4917L124.5 82.4917L124.511 82.4917L124.521 82.4917L124.532 82.4917L124.543 82.4917L124.553 82.4917L124.564 82.4917L124.575 82.4917L124.586 82.4917L124.596 82.4917L124.607 82.4917L124.618 82.4917L124.629 82.4917C126.897 82.4917 128.768 84.2691 128.884 86.5336C129.009 88.9688 127.068 91.0116 124.63 91.0116L96.9108 91.0116C92.027 91.0116 88.5425 95.7455 89.9939 100.409L91.9909 106.825C93.6679 112.213 94.7439 117.77 95.1993 123.395L95.4803 126.867C95.664 129.135 93.8723 131.078 91.596 131.078C90.094 131.078 88.7257 130.215 88.0789 128.859L78.7722 109.355C77.7993 107.317 76.6781 105.352 75.4175 103.477L75.1848 103.131C68.9714 93.8913 59.1525 87.8329 48.2893 86.3205L48.2893 41.2739C51.0843 40.7294 53.8353 39.9551 56.5139 38.9563L65.2609 35.6947C70.1788 33.861 75.3851 32.9219 80.6338 32.9219ZM40.2893 42.197L40.2893 85.9492L37.1113 85.9492C33.7976 85.9492 31.1113 83.2629 31.1113 79.9492L31.1113 48.2334C31.1113 44.9197 33.7976 42.2334 37.1113 42.2334L38.3461 42.2334C38.9945 42.2334 39.6423 42.2212 40.2893 42.197Z" fill="var(--spectrum-global-color-gray-800, #292929)"/>
</svg>
