<svg width="160" height="160" viewBox="0 0 160 160" xmlns="http://www.w3.org/2000/svg">
<path fill-rule="evenodd" d="M28 80C28 51.2812 51.2812 28 80 28C108.719 28 132 51.2812 132 80C132 108.719 108.719 132 80 132C51.2812 132 28 108.719 28 80ZM80 20C46.8629 20 20 46.8629 20 80C20 113.137 46.8629 140 80 140C113.137 140 140 113.137 140 80C140 46.8629 113.137 20 80 20ZM81.4362 57.0424C80.0576 56.7615 78.6275 56.9047 77.3226 57.4585C76.0165 58.0128 74.8845 58.9582 74.0809 60.1903C73.2767 61.4235 72.8418 62.8832 72.8418 64.3843C72.8418 66.5935 71.0509 68.3843 68.8418 68.3843C66.6327 68.3843 64.8418 66.5935 64.8418 64.3843C64.8418 61.3436 65.7214 58.3635 67.38 55.8202C69.0393 53.276 71.4078 51.2781 74.1973 50.0942C76.9879 48.9099 80.0645 48.5984 83.0337 49.2035C86.0022 49.8085 88.7154 51.2992 90.8355 53.4714C92.9547 55.6426 94.3873 58.3972 94.9668 61.382C95.5462 64.3663 95.2496 67.4606 94.1107 70.2776C92.9716 73.0953 91.0361 75.5192 88.5343 77.2319C87.3109 78.0695 86.1203 79.2061 85.2676 80.4385C84.4028 81.6884 84.0486 82.7919 84.0486 83.6419V90.7253C84.0486 92.9345 82.2577 94.7253 80.0486 94.7253C77.8395 94.7253 76.0486 92.9345 76.0486 90.7253V83.6419C76.0486 80.6673 77.2295 77.9957 78.6888 75.8866C80.1603 73.7599 82.0827 71.9535 84.0152 70.6306C85.1993 69.82 86.1367 68.6574 86.6939 67.279C87.2515 65.8999 87.3988 64.3769 87.1134 62.9067C86.828 61.4368 86.126 60.0997 85.1105 59.0593C84.0961 58.0199 82.8155 57.3235 81.4362 57.0424ZM84.5 105.152C84.5 107.638 82.4853 109.652 80 109.652C77.5147 109.652 75.5 107.638 75.5 105.152C75.5 102.667 77.5147 100.652 80 100.652C82.4853 100.652 84.5 102.667 84.5 105.152Z" fill="var(--spectrum-global-color-gray-800, #292929)"/>
</svg>
