<svg width="48" height="48" viewBox="0 0 48 48" xmlns="http://www.w3.org/2000/svg">
<path fill-rule="evenodd" d="M19.5 10.7647C19.5 10.5037 19.7228 10.25 20.05 10.25H28.45C28.7772 10.25 29 10.5037 29 10.7647V12.75H19.5V10.7647ZM17 12.75V10.7647C17 9.07651 18.389 7.75 20.05 7.75H28.45C30.111 7.75 31.5 9.07651 31.5 10.7647V12.75H37.25H38.6528H39.25C39.9404 12.75 40.5 13.3096 40.5 14C40.5 14.6904 39.9404 15.25 39.25 15.25H38.3639L35.9533 36.1109C35.6765 38.5059 33.5903 40.25 31.1878 40.25H17.3122C14.9097 40.25 12.8235 38.5059 12.5467 36.1109L10.1361 15.25H9.25C8.55964 15.25 8 14.6904 8 14C8 13.3096 8.55964 12.75 9.25 12.75H9.84724H11.25H17ZM12.6528 15.25H35.8472L33.4698 35.8239C33.3476 36.8818 32.3984 37.75 31.1878 37.75H17.3122C16.1016 37.75 15.1524 36.8818 15.0302 35.8239L12.6528 15.25ZM22.5 18C22.5 17.3096 21.9404 16.75 21.25 16.75C20.5596 16.75 20 17.3096 20 18V34C20 34.6904 20.5596 35.25 21.25 35.25C21.9404 35.25 22.5 34.6904 22.5 34V18ZM27.25 16.75C27.9404 16.75 28.5 17.3096 28.5 18V34C28.5 34.6904 27.9404 35.25 27.25 35.25C26.5596 35.25 26 34.6904 26 34V18C26 17.3096 26.5596 16.75 27.25 16.75Z" fill="var(--spectrum-global-color-gray-800, #292929)"/>
</svg>
