<svg width="160" height="160" viewBox="0 0 160 160" xmlns="http://www.w3.org/2000/svg">
<path fill-rule="evenodd" d="M69.8919 31.3973C71.1655 25.0311 76.7673 20.2188 83.512 20.2188C88.6974 20.2188 93.2072 23.0631 95.5941 27.2711C97.8004 25.7885 100.455 24.9229 103.316 24.9229C111.008 24.9229 117.213 31.175 117.213 38.8562V46.9781C120.079 45.2466 123.556 44.6484 126.767 45.2791C133.15 46.5327 137.41 52.3387 136.63 59.7141C136.625 59.7627 136.619 59.8112 136.612 59.8595L132.327 89.8257C132.292 90.0686 132.236 90.3036 132.161 90.5289C128.665 109.415 122.818 121.857 114.535 129.549C106.03 137.448 95.5687 139.781 84.3263 139.781C75.8465 139.781 67.9049 136.149 60.9589 131.157C53.9916 126.149 47.7235 119.557 42.5027 113.106C37.2667 106.636 32.9879 100.187 30.022 95.3666C28.5365 92.9523 27.3742 90.9362 26.5797 89.5171C26.1823 88.8073 25.8765 88.2461 25.668 87.8582C25.5638 87.6643 25.4838 87.5137 25.4287 87.4094L25.3818 87.32C22.0467 81.4622 22.4026 73.7225 28.4584 69.1729C34.3046 64.7806 42.5794 65.9164 47.0348 71.7088L47.035 71.7091L49.8164 75.3259V43.8783C49.8164 36.1985 56.0197 29.9451 63.7082 29.9451C65.9317 29.9451 68.0309 30.4681 69.8919 31.3973ZM32.4421 83.5576L32.4435 83.5604L32.4544 83.5813L32.5042 83.676C32.5498 83.7624 32.62 83.8947 32.7141 84.0698C32.9024 84.42 33.1863 84.9413 33.5602 85.6091C34.3082 86.9453 35.415 88.8654 36.8356 91.1744C39.6821 95.8008 43.7639 101.948 48.7214 108.073C53.694 114.218 59.452 120.222 65.628 124.661C71.8253 129.115 78.1442 131.781 84.3263 131.781C94.4811 131.781 102.63 129.688 109.091 123.687C115.66 117.587 121.089 106.893 124.43 88.3287C124.452 88.2098 124.478 88.0931 124.51 87.9786L128.681 58.8059C129.034 55.2392 127.186 53.5142 125.226 53.1291C122.329 52.5603 119.412 54.3075 119.084 57.6637C119.082 57.6823 119.08 57.7008 119.078 57.7194L118.133 66.1561L117.188 74.5928C116.952 76.7021 115.109 78.2596 112.99 78.1413C110.871 78.023 109.213 76.2701 109.213 74.1475V38.8562C109.213 35.5644 106.561 32.9229 103.316 32.9229C100.077 32.9229 97.424 35.563 97.424 38.8562V71.6743C97.424 73.8835 95.6331 75.6743 93.424 75.6743H93.4039C91.1948 75.6743 89.4039 73.8835 89.4039 71.6743V34.152C89.4039 30.8589 86.7508 28.2188 83.512 28.2188C80.2733 28.2188 77.6202 30.8589 77.6202 34.152V71.6693C77.6202 73.8784 75.8293 75.6693 73.6202 75.6693H73.6001C71.3909 75.6693 69.6001 73.8784 69.6001 71.6693V43.8783C69.6001 40.5852 66.947 37.9451 63.7082 37.9451C60.4694 37.9451 57.8164 40.5852 57.8164 43.8783V87.0891C57.8164 88.8019 56.7258 90.3247 55.1041 90.8761C53.4825 91.4275 51.6897 90.8853 50.6455 89.5275L40.6936 76.5863C40.6935 76.5862 40.6934 76.5861 40.6933 76.586C38.9059 74.2625 35.6002 73.8135 33.2636 75.5689C31.1626 77.1474 30.4892 80.1613 32.3562 83.4007C32.3858 83.4521 32.4143 83.504 32.4415 83.5566C32.4417 83.557 32.4419 83.5573 32.4421 83.5576Z" fill="var(--spectrum-global-color-gray-800, #292929)"/>
</svg>
