<svg width="48" height="48" viewBox="0 0 48 48" xmlns="http://www.w3.org/2000/svg">
<path fill-rule="evenodd" d="M23.513 5.9502C20.8086 5.94697 18.7804 8.13167 18.7517 10.7445L17.5072 10.743C17.4612 10.743 17.4158 10.7454 17.3712 10.7502H13.7227C10.9635 10.7502 8.75 13.0078 8.75 15.7638L8.75 35.2365C8.75 37.9926 10.9635 40.2502 13.7227 40.2502H33.3273C36.0865 40.2502 38.3 37.9926 38.3 35.2365L38.3 15.7638C38.3 13.0078 36.0865 10.7502 33.3273 10.7502H28.2498C28.2246 8.14605 26.2212 5.95344 23.513 5.9502ZM30.7542 13.2502L30.75 16.5018C30.7491 17.1921 30.1888 17.751 29.4985 17.7502L17.4985 17.7358C17.167 17.7354 16.8492 17.6034 16.615 17.3686C16.3809 17.1339 16.2496 16.8158 16.25 16.4842L16.2541 13.2502H13.7227C12.3699 13.2502 11.25 14.3627 11.25 15.7638L11.25 35.2365C11.25 36.6377 12.3699 37.7502 13.7227 37.7502H33.3273C34.6801 37.7502 35.8 36.6377 35.8 35.2365L35.8 15.7638C35.8 14.3627 34.6801 13.2502 33.3273 13.2502H30.7542ZM18.7541 13.2502L18.7516 15.2373L28.2516 15.2487L28.2541 13.2559L26.9971 13.2545C26.6656 13.2541 26.3478 13.122 26.1137 12.8873C25.8795 12.6526 25.7482 12.3345 25.7486 12.003L25.75 10.803C25.7516 9.45508 24.7588 8.45169 23.51 8.4502C22.2551 8.4487 21.253 9.45575 21.2514 10.7974L21.25 11.9974C21.2492 12.6877 20.6889 13.2467 19.9986 13.2459L19.3671 13.2452V13.2502H18.7541Z" fill="var(--spectrum-global-color-gray-800, #292929)"/>
</svg>
