<svg width="160" height="160" viewBox="0 0 160 160" xmlns="http://www.w3.org/2000/svg">
<path fill-rule="evenodd" d="M72.3282 72.5024C74.5373 72.4973 76.324 70.7023 76.319 68.4932L76.2617 43.6275C76.2566 41.4184 74.4616 39.6316 72.2525 39.6367C70.0433 39.6418 68.2566 41.4368 68.2617 43.6459L68.2965 58.7597C61.6564 51.7809 52.2726 47.4233 41.8703 47.4233C21.7285 47.4233 5.40039 63.7515 5.40039 83.8932C5.40039 104.035 21.7285 120.363 41.8703 120.363C50.2254 120.363 57.9345 117.549 64.0855 112.818C64.1786 112.747 64.2677 112.672 64.3528 112.594C64.3935 112.564 64.4338 112.534 64.4736 112.503C69.0041 108.946 73.2206 103.783 76.5154 99.0605C79.8255 94.3163 82.4184 89.7066 83.6334 87.0253C84.5779 84.9409 86.9176 79.9845 90.0129 74.7796C92.6784 70.2974 95.7139 65.9613 98.7163 63.0428C98.8093 62.972 98.9 62.8966 98.9881 62.8165C104.047 58.2198 110.756 55.4233 118.128 55.4233C133.851 55.4233 146.598 68.1697 146.598 83.8932C146.598 99.6167 133.851 112.363 118.128 112.363C108.513 112.363 100.01 107.601 94.8489 100.288C93.5751 98.4831 91.0793 98.0526 89.2744 99.3264C87.4695 100.6 87.039 103.096 88.3128 104.901C94.9083 114.246 105.804 120.363 118.128 120.363C138.269 120.363 154.598 104.035 154.598 83.8932C154.598 63.7514 138.269 47.4233 118.128 47.4233C109.785 47.4233 102.09 50.2287 95.9456 54.9428C95.7685 55.0429 95.5968 55.1577 95.4321 55.2876C90.676 59.0384 86.3752 65.245 83.1369 70.6906C79.8325 76.2472 77.3556 81.4966 76.3465 83.7235C75.379 85.8588 73.0543 90.0402 69.9545 94.4829C66.8396 98.9474 63.154 103.368 59.5334 106.21C59.4517 106.274 59.3732 106.341 59.2979 106.41C59.2679 106.432 59.2381 106.454 59.2085 106.477C54.4068 110.17 48.4004 112.363 41.8703 112.363C26.1468 112.363 13.4004 99.6167 13.4004 83.8932C13.4004 68.1697 26.1468 55.4233 41.8703 55.4233C50.1103 55.4233 57.5339 58.9213 62.7368 64.5244L47.4441 64.5597C45.235 64.5648 43.4482 66.3598 43.4533 68.5689C43.4584 70.778 45.2534 72.5647 47.4625 72.5597L72.3282 72.5024Z" fill="var(--spectrum-global-color-gray-800, #292929)"/>
</svg>
