<svg width="160" height="160" viewBox="0 0 160 160" xmlns="http://www.w3.org/2000/svg">
<path fill-rule="evenodd" d="M129.936 67.6663L148.522 49.0804C150.084 47.5183 150.084 44.9856 148.522 43.4235L129.936 24.8376C128.374 23.2755 125.841 23.2755 124.279 24.8376C122.717 26.3997 122.717 28.9323 124.279 30.4944L135.681 41.8965H128.503C119.774 41.8965 111.72 44.8369 105.293 49.7792C105.195 49.8542 105.102 49.9329 105.014 50.0148C104.971 50.0457 104.929 50.0775 104.887 50.1103C100.152 53.8283 95.7363 59.2319 92.2802 64.1854C88.8089 69.1607 86.0923 73.9915 84.8225 76.7939C83.8288 78.9869 81.3679 84.1999 78.1117 89.6755C75.3089 94.3887 72.1072 98.9655 68.93 102.052C68.8334 102.125 68.7392 102.203 68.6478 102.286C63.2992 107.146 56.2046 110.103 48.41 110.103C31.7844 110.103 18.3066 96.6255 18.3066 79.9999C18.3066 63.3742 31.7844 49.8965 48.41 49.8965C58.5768 49.8965 67.5677 54.9326 73.0243 62.6643L73.0314 62.6743L73.0385 62.6844L75.1199 65.5953C76.4048 67.3923 78.9032 67.8075 80.7003 66.5226C82.4973 65.2377 82.9124 62.7393 81.6275 60.9423L79.5531 58.041C72.6611 48.2824 61.2815 41.8965 48.41 41.8965C27.3661 41.8965 10.3066 58.956 10.3066 79.9999C10.3066 101.044 27.3661 118.103 48.41 118.103C57.1308 118.103 65.1736 115.169 71.5951 110.24C71.7771 110.138 71.9534 110.02 72.1223 109.887C77.0868 105.972 81.5884 99.4807 84.9877 93.7646C88.4531 87.9372 91.0511 82.4311 92.1093 80.0958C93.1317 77.8393 95.5802 73.4368 98.8411 68.763C102.117 64.0674 106.002 59.4063 109.827 56.4026C109.913 56.335 109.996 56.2646 110.075 56.1916C110.107 56.1685 110.139 56.1449 110.17 56.1207C115.247 52.2161 121.599 49.8965 128.503 49.8965H136.392L124.279 62.0094C122.717 63.5715 122.717 66.1042 124.279 67.6663C125.841 69.2284 128.374 69.2284 129.936 67.6663ZM137.955 118.103C140.165 118.103 141.955 116.312 141.955 114.103C141.955 111.894 140.165 110.103 137.955 110.103H128.503C118.542 110.103 110.464 104.374 103.39 96.6573L100.673 93.3744C99.265 91.6724 96.7436 91.4344 95.0416 92.8427C93.3395 94.2511 93.1015 96.7725 94.5098 98.4745L97.2902 101.835L97.3533 101.911L97.4202 101.984C105.049 110.326 115.14 118.103 128.503 118.103H137.955Z" fill="var(--spectrum-global-color-gray-800, #292929)"/>
</svg>
