<svg width="96" height="96" viewBox="0 0 96 96" xmlns="http://www.w3.org/2000/svg">
<path fill-rule="evenodd" d="M14 18C14 13.5898 17.5711 10 21.99 10H41.44C43.487 10 45.4763 10.7833 46.9656 12.2178L46.968 12.2201L66.5333 30.9655C68.1056 32.4712 69 34.5524 69 36.74V51.49C69 52.5946 68.1046 53.49 67 53.49C65.8954 53.49 65 52.5946 65 51.49V36.99H47.37C44.0372 36.99 41 34.488 41 31.01V14.03L41.0002 14H21.99C19.7889 14 18 15.7902 18 18V65.99C18 68.1998 19.7889 69.99 21.99 69.99H46C47.1046 69.99 48 70.8854 48 71.99C48 73.0946 47.1046 73.99 46 73.99H21.99C17.5711 73.99 14 70.4002 14 65.99V18ZM45 15.8741L62.8644 32.99H47.37C45.8828 32.99 45 31.932 45 31.01V15.8741ZM66.7402 86.49C74.8864 86.49 81.4902 79.8862 81.4902 71.74C81.4902 63.5938 74.8864 56.99 66.7402 56.99C58.594 56.99 51.9902 63.5938 51.9902 71.74C51.9902 79.8862 58.594 86.49 66.7402 86.49ZM68.9883 64.9898C68.9883 63.8852 68.0928 62.9898 66.9883 62.9898C65.8837 62.9898 64.9883 63.8852 64.9883 64.9898V69.9898H59.9887C58.8841 69.9898 57.9887 70.8852 57.9887 71.9898C57.9887 73.0944 58.8841 73.9898 59.9887 73.9898H64.9883V78.9898C64.9883 80.0944 65.8837 80.9898 66.9883 80.9898C68.0928 80.9898 68.9883 80.0944 68.9883 78.9898V73.9898H73.9887C75.0932 73.9898 75.9887 73.0944 75.9887 71.9898C75.9887 70.8852 75.0932 69.9898 73.9887 69.9898H68.9883V64.9898Z" fill="var(--spectrum-global-color-gray-800, #292929)"/>
</svg>
