<svg width="160" height="160" viewBox="0 0 160 160" fill="none" xmlns="http://www.w3.org/2000/svg">
<path fill-rule="evenodd" clip-rule="evenodd" d="M24.25 41.3839C24.25 33.6519 30.518 27.3839 38.25 27.3839H104.79C112.522 27.3839 118.79 33.6519 118.79 41.3839V54.1251C118.79 56.3342 116.999 58.1251 114.79 58.1251C112.581 58.1251 110.79 56.3342 110.79 54.1251V41.3839C110.79 38.0702 108.103 35.3839 104.79 35.3839H38.25C34.9363 35.3839 32.25 38.0702 32.25 41.3839V84.6811L48.4867 59.5142C52.1952 53.766 60.6332 53.8588 64.2145 59.6871L64.2179 59.6927L65.4928 61.775C66.6462 63.6591 66.054 66.1215 64.1699 67.275C62.2858 68.4285 59.8233 67.8362 58.6699 65.9521L57.3984 63.8753L57.3973 63.8735C56.8981 63.064 55.7249 63.0517 55.2091 63.8512L36.3701 93.0517C36.9614 93.2466 37.5934 93.3521 38.25 93.3521H57.25C59.4591 93.3521 61.25 95.143 61.25 97.3521C61.25 99.5612 59.4591 101.352 57.25 101.352H38.25C30.518 101.352 24.25 95.0841 24.25 87.3521V41.3839ZM94.1682 57.1573C97.4819 57.1573 100.168 54.471 100.168 51.1573C100.168 47.8436 97.4819 45.1573 94.1682 45.1573C90.8545 45.1573 88.1682 47.8436 88.1682 51.1573C88.1682 54.471 90.8545 57.1573 94.1682 57.1573ZM68.2622 79.128C68.2622 71.396 74.5302 65.128 82.2622 65.128H121.75C129.482 65.128 135.75 71.396 135.75 79.128V118.616C135.75 126.348 129.482 132.616 121.75 132.616H82.2622C74.5302 132.616 68.2622 126.348 68.2622 118.616V79.128ZM82.2622 73.128C78.9485 73.128 76.2622 75.8143 76.2622 79.128V118.616C76.2622 121.93 78.9485 124.616 82.2622 124.616H121.75C125.064 124.616 127.75 121.93 127.75 118.616V79.128C127.75 75.8143 125.064 73.128 121.75 73.128H82.2622ZM95.3376 85.7048L114.845 96.8937C117.029 98.1468 117.025 101.273 114.838 102.521L95.3039 113.664C93.1162 114.911 90.3854 113.345 90.3884 110.844L90.4154 88.5126C90.4184 86.0116 93.153 84.4518 95.3376 85.7048Z" fill="var(--spectrum-global-color-gray-800, #292929)"/>
</svg>
