<svg width="48" height="48" viewBox="0 0 48 48" xmlns="http://www.w3.org/2000/svg">
<path fill-rule="evenodd" d="M9.39844 19.7402C9.39844 14.0793 13.9876 9.49023 19.6486 9.49023C25.3096 9.49023 29.8987 14.0793 29.8987 19.7402C29.8987 25.4011 25.3096 29.9902 19.6486 29.9902C13.9876 29.9902 9.39844 25.4011 9.39844 19.7402ZM19.6486 6.99023C12.6069 6.99023 6.89844 12.6986 6.89844 19.7402C6.89844 26.7819 12.6069 32.4902 19.6486 32.4902C22.7192 32.4902 25.5363 31.4048 27.7371 29.5967L28.1437 30.0033L27.6096 30.5373C27.1215 31.0255 27.1215 31.8169 27.6096 32.3051L36.1742 40.8696C37.437 42.1324 39.4845 42.1324 40.7473 40.8696C42.0101 39.6068 42.0101 37.5594 40.7473 36.2966L32.1827 27.7321C31.6946 27.2439 30.9031 27.2439 30.4149 27.7321L29.9115 28.2355L29.5049 27.8289C31.3132 25.6281 32.3987 22.811 32.3987 19.7402C32.3987 12.6986 26.6903 6.99023 19.6486 6.99023ZM31.2988 30.3837L30.2613 31.4212L37.942 39.1018C38.2285 39.3883 38.693 39.3883 38.9795 39.1018C39.266 38.8153 39.266 38.3508 38.9795 38.0643L31.2988 30.3837Z" fill="var(--spectrum-global-color-gray-800, #292929)"/>
</svg>
