<svg width="160" height="160" viewBox="0 0 160 160" xmlns="http://www.w3.org/2000/svg">
<path fill-rule="evenodd" d="M128 67.9523C128 40.332 104.859 18.1018 76.9559 19.8352C53.8646 21.2696 34.8824 39.4163 32.3057 62.4843C31.4877 69.8075 32.3431 76.8417 34.4914 83.2789C41.2665 105.227 60.6496 126.18 70.6475 135.962C75.8168 141.02 84.0344 140.986 89.1852 135.945C98.5633 126.767 116.031 107.916 123.807 87.6533C126.493 81.6365 128 74.97 128 67.9523ZM77.4519 27.8198C100.683 26.3766 120 44.8774 120 67.9523C120 73.8487 118.729 79.4371 116.463 84.48C116.431 84.5499 116.402 84.6206 116.375 84.6921C109.283 103.257 92.8867 121.128 83.5895 130.227C81.5302 132.243 78.284 132.241 76.2423 130.244C66.2645 120.481 48.2353 100.733 42.1229 80.8786C42.1133 80.8474 42.1033 80.8164 42.093 80.7855C40.2905 75.4024 39.5695 69.5206 40.2563 63.3724C42.4043 44.1419 58.2639 29.0118 77.4519 27.8198ZM66 64.7405C66 57.0085 72.268 50.7405 80 50.7405C87.732 50.7405 94 57.0085 94 64.7405C94 72.4725 87.732 78.7405 80 78.7405C72.268 78.7405 66 72.4725 66 64.7405ZM80 42.7405C67.8497 42.7405 58 52.5902 58 64.7405C58 76.8907 67.8497 86.7405 80 86.7405C92.1503 86.7405 102 76.8907 102 64.7405C102 52.5902 92.1503 42.7405 80 42.7405Z" fill="var(--spectrum-global-color-gray-800, #292929)"/>
</svg>
