<svg width="160" height="160" viewBox="0 0 160 160" xmlns="http://www.w3.org/2000/svg">
<path fill-rule="evenodd" d="M28 79.7402C28 51.0214 51.2812 27.7402 80 27.7402C108.719 27.7402 132 51.0214 132 79.7402C132 108.459 108.719 131.74 80 131.74C51.2812 131.74 28 108.459 28 79.7402ZM80 19.7402C46.8629 19.7402 20 46.6032 20 79.7402C20 112.877 46.8629 139.74 80 139.74C113.137 139.74 140 112.877 140 79.7402C140 46.6032 113.137 19.7402 80 19.7402ZM74.811 64.6805L95.7442 76.7996C98.0885 78.1569 98.0845 81.543 95.7369 82.8946L74.7748 94.9637C72.4272 96.3153 69.4968 94.6188 69.5 91.9099L69.5289 67.7217C69.5322 65.0128 72.4667 63.3232 74.811 64.6805Z" fill="var(--spectrum-global-color-gray-800, #292929)"/>
</svg>
