<svg width="48" height="48" viewBox="0 0 48 48" xmlns="http://www.w3.org/2000/svg">
<path fill-rule="evenodd" d="M5.75 13C5.75 11.2051 7.20507 9.75 9 9.75H12.5C14.2949 9.75 15.75 11.2051 15.75 13V35C15.75 36.7949 14.2949 38.25 12.5 38.25H9C7.20507 38.25 5.75 36.7949 5.75 35V13ZM9 12.25C8.58579 12.25 8.25 12.5858 8.25 13V35C8.25 35.4142 8.58579 35.75 9 35.75H12.5C12.9142 35.75 13.25 35.4142 13.25 35V13C13.25 12.5858 12.9142 12.25 12.5 12.25H9ZM19.3224 14.2387C19.326 11.1522 22.6201 9.08646 25.3447 10.7135L41.7174 20.4905C44.3642 22.0711 44.3598 25.9814 41.709 27.5556L25.3137 37.2923C22.5853 38.9126 19.2962 36.8387 19.2998 33.7524L19.3224 14.2387ZM24.0629 12.8599C23.1202 12.2969 21.8239 12.9573 21.8224 14.2416L21.7998 33.7553C21.7983 35.0398 23.0933 35.7033 24.0372 35.1427L40.4325 25.4061C41.454 24.7994 41.4561 23.2463 40.4356 22.6369L24.0629 12.8599L24.6993 11.7941L24.0629 12.8599Z" fill="var(--spectrum-global-color-gray-800, #292929)"/>
</svg>
