<svg width="48" height="49" viewBox="0 0 48 49" xmlns="http://www.w3.org/2000/svg">
<path fill-rule="evenodd" d="M24 9.23828C15.5777 9.23828 8.75 16.0659 8.75 24.4883C8.75 32.9106 15.5777 39.7383 24 39.7383C32.4223 39.7383 39.25 32.9106 39.25 24.4883C39.25 16.0659 32.4223 9.23828 24 9.23828ZM6.25 24.4883C6.25 14.6852 14.1969 6.73828 24 6.73828C33.8031 6.73828 41.75 14.6852 41.75 24.4883C41.75 34.2913 33.8031 42.2383 24 42.2383C14.1969 42.2383 6.25 34.2913 6.25 24.4883ZM25.5 32.0742C25.5 32.9026 24.8284 33.5742 24 33.5742C23.1716 33.5742 22.5 32.9026 22.5 32.0742C22.5 31.2458 23.1716 30.5742 24 30.5742C24.8284 30.5742 25.5 31.2458 25.5 32.0742ZM23.2391 17.9121C23.6103 17.7546 24.017 17.7139 24.409 17.7937C24.8012 17.8737 25.1657 18.0718 25.4547 18.3679C25.7441 18.6643 25.9444 19.0457 26.0259 19.4652C26.1074 19.8849 26.0653 20.3196 25.9062 20.7131C25.7472 21.1064 25.4799 21.4377 25.1428 21.6685C24.5671 22.0626 23.9941 22.6008 23.555 23.2354C23.1197 23.8645 22.7644 24.6657 22.7644 25.5611V27.6482C22.7644 28.3385 23.3241 28.8982 24.0144 28.8982C24.7048 28.8982 25.2644 28.3385 25.2644 27.6482V25.5611C25.2644 25.3296 25.3614 25.0185 25.6109 24.6579C25.8566 24.3028 26.2009 23.9738 26.555 23.7314C27.3039 23.2187 27.8831 22.4932 28.2239 21.6502C28.5647 20.8073 28.6534 19.8816 28.4801 18.9888C28.3067 18.0958 27.8781 17.2715 27.2438 16.6217C26.6093 15.9715 25.7971 15.5252 24.9082 15.3441C24.0192 15.1629 23.098 15.2562 22.2625 15.6108C21.4273 15.9652 20.7184 16.5633 20.2219 17.3246C19.7255 18.0857 19.4624 18.9773 19.4624 19.887C19.4624 20.5773 20.022 21.137 20.7124 21.137C21.4028 21.137 21.9624 20.5773 21.9624 19.887C21.9624 19.4585 22.0866 19.0419 22.3159 18.6903C22.545 18.3389 22.8675 18.0698 23.2391 17.9121Z" fill="var(--spectrum-global-color-gray-800, #292929)"/>
</svg>
