<svg width="48" height="48" viewBox="0 0 48 48" xmlns="http://www.w3.org/2000/svg">
<path fill-rule="evenodd" d="M8.25 14.4004C8.25 12.8816 9.48122 11.6504 11 11.6504H37C38.5188 11.6504 39.75 12.8816 39.75 14.4004V33.6004C39.75 35.1192 38.5188 36.3504 37 36.3504H11C9.48122 36.3504 8.25 35.1192 8.25 33.6004V14.4004ZM11 9.15039C8.1005 9.15039 5.75 11.5009 5.75 14.4004V33.6004C5.75 36.4999 8.1005 38.8504 11 38.8504H37C39.8995 38.8504 42.25 36.4999 42.25 33.6004V14.4004C42.25 11.5009 39.8995 9.15039 37 9.15039H11ZM19.174 19.4843C19.6621 18.9961 19.6621 18.2047 19.174 17.7165C18.6858 17.2283 17.8944 17.2283 17.4062 17.7165L12.1962 22.9265C11.7201 23.4026 11.7066 24.1701 12.1657 24.6626L17.3757 30.2526C17.8463 30.7577 18.6373 30.7855 19.1423 30.3148C19.6474 29.8441 19.6752 29.0531 19.2045 28.5481L14.8173 23.8409L19.174 19.4843ZM28.8578 17.686C29.3628 17.2153 30.1538 17.2431 30.6245 17.7481L35.8345 23.3381C36.2935 23.8306 36.28 24.5982 35.804 25.0743L30.594 30.2843C30.1058 30.7724 29.3144 30.7724 28.8262 30.2843C28.338 29.7961 28.338 29.0047 28.8262 28.5165L33.1829 24.1598L28.7957 19.4526C28.325 18.9476 28.3528 18.1567 28.8578 17.686ZM27.6163 16.3831C27.8166 15.7225 27.4435 15.0245 26.7828 14.8242C26.1222 14.6238 25.4242 14.997 25.2239 15.6576L20.3839 31.6176C20.1835 32.2783 20.5567 32.9762 21.2173 33.1766C21.878 33.3769 22.5759 33.0038 22.7763 32.3431L27.6163 16.3831Z" fill="var(--spectrum-global-color-gray-800, #292929)"/>
</svg>
