<svg width="96" height="96" viewBox="0 0 96 96" xmlns="http://www.w3.org/2000/svg">
<path fill-rule="evenodd" d="M51.5734 13.7497C49.6126 12.7345 47.2809 12.7345 45.3201 13.7497L17.6577 28.0728C15.4012 29.2412 13.9844 31.5703 13.9844 34.1114V61.8885C13.9844 64.4296 15.4012 66.7586 17.6577 67.927L45.3201 82.2501C47.2809 83.2654 49.6126 83.2654 51.5734 82.2501L79.2358 67.927C81.4924 66.7586 82.9092 64.4296 82.9092 61.8885V34.1114C82.9092 31.5703 81.4924 29.2412 79.2358 28.0728L51.5734 13.7497ZM47.1593 17.3018C47.9667 16.8838 48.9268 16.8838 49.7342 17.3018L77.3966 31.6249C78.3258 32.106 78.9092 33.0651 78.9092 34.1114V61.8885C78.9092 62.9348 78.3258 63.8938 77.3966 64.3749L49.7342 78.698C48.9268 79.1161 47.9667 79.1161 47.1593 78.698L19.4969 64.3749C18.5678 63.8938 17.9844 62.9348 17.9844 61.8885V34.1114C17.9844 33.0651 18.5678 32.106 19.4969 31.6249L47.1593 17.3018ZM51.5359 38.5C53.0755 35.8333 56.9245 35.8333 58.4641 38.5L66.2583 52C67.7979 54.6667 65.8734 58 62.7942 58H47.2058C44.1266 58 42.2021 54.6667 43.7417 52L51.5359 38.5ZM55 40.5L47.2058 54H62.7942L55 40.5ZM43.6054 39.0627C44.562 39.6151 44.8896 40.8383 44.3373 41.7948L35.6207 56.8897C35.0683 57.8462 33.8451 58.1739 32.8885 57.6215C31.932 57.0692 31.6043 55.846 32.1567 54.8894L40.8733 39.7945C41.4257 38.838 42.6489 38.5103 43.6054 39.0627Z" fill="var(--spectrum-global-color-gray-800, #292929)"/>
</svg>
