<svg width="160" height="160" viewBox="0 0 160 160" xmlns="http://www.w3.org/2000/svg">
<path fill-rule="evenodd" d="M28.3346 80.7415C30.5438 80.7415 32.3346 82.5324 32.3346 84.7415L32.3346 114.153C32.3346 118.743 36.0168 122.408 40.4915 122.408L119.511 122.408C123.986 122.408 127.668 118.743 127.668 114.153L127.668 84.7415C127.668 82.5324 129.459 80.7415 131.668 80.7415C133.877 80.7415 135.668 82.5324 135.668 84.7415L135.668 114.153C135.668 123.1 128.465 130.408 119.511 130.408L40.4915 130.408C31.5381 130.408 24.3346 123.1 24.3346 114.153L24.3346 84.7415C24.3346 82.5324 26.1255 80.7415 28.3346 80.7415ZM80.0016 29.5911C82.2108 29.5911 84.0016 31.382 84.0016 33.5911L84.0016 97.9128L100.673 81.2412C102.235 79.6791 104.768 79.6791 106.33 81.2412C107.892 82.8033 107.892 85.336 106.33 86.8981L82.83 110.398C81.2679 111.96 78.7353 111.96 77.1732 110.398L53.6732 86.8981C52.1111 85.336 52.1111 82.8033 53.6732 81.2412C55.2353 79.6791 57.7679 79.6791 59.33 81.2412L76.0016 97.9128L76.0016 33.5911C76.0016 31.382 77.7925 29.5911 80.0016 29.5911Z" fill="var(--spectrum-global-color-gray-800, #292929)"/>
</svg>
