<svg width="48" height="48" viewBox="0 0 48 48" xmlns="http://www.w3.org/2000/svg">
<path fill-rule="evenodd" d="M25.9566 6.7062C25.1562 5.08445 22.8436 5.08445 22.0432 6.7062L18.4205 14.0464C17.7385 15.4282 16.4202 16.386 14.8953 16.6076L6.79476 17.7846C5.00499 18.0447 4.29041 20.2441 5.58545 21.5064L11.447 27.2199L10.5745 28.115L11.447 27.2199C12.5505 28.2955 13.0541 29.8453 12.7936 31.3641L11.4098 39.4317C11.1041 41.2141 12.975 42.5735 14.5759 41.7319L21.8212 37.9229C23.1852 37.2058 24.8146 37.2058 26.1786 37.9229L33.4239 41.7319C35.0248 42.5735 36.8957 41.2141 36.59 39.4317L35.2062 31.3641C34.9457 29.8453 35.4493 28.2955 36.5528 27.2199L42.4144 21.5064C43.7094 20.2441 42.9948 18.0447 41.205 17.7846L33.1045 16.6076C31.5796 16.386 30.2613 15.4282 29.5793 14.0464L25.9566 6.7062ZM19.8014 5.59976C21.5188 2.11992 26.481 2.11992 28.1984 5.59976L31.8211 12.9399C32.1389 13.5839 32.7533 14.0303 33.464 14.1336L41.5645 15.3106C45.4048 15.8686 46.9383 20.5879 44.1594 23.2966L38.2978 29.0101C37.7835 29.5114 37.5489 30.2336 37.6703 30.9415L39.054 39.0091C39.71 42.8338 35.6954 45.7505 32.2606 43.9447L25.0153 40.1357C24.3796 39.8015 23.6202 39.8015 22.9845 40.1357L15.7392 43.9447C12.3044 45.7505 8.2898 42.8338 8.94582 39.0091L10.3295 30.9415C10.4509 30.2336 10.2163 29.5114 9.70201 29.0101L3.84043 23.2966C1.06153 20.5879 2.595 15.8686 6.43527 15.3106L14.5358 14.1336C15.2465 14.0303 15.8609 13.5839 16.1787 12.9399L19.8014 5.59976Z" fill="var(--spectrum-global-color-gray-800, #292929)"/>
</svg>
