<svg width="160" height="160" viewBox="0 0 160 160" xmlns="http://www.w3.org/2000/svg">
<path fill-rule="evenodd" d="M124 32C130.627 32 136 37.3726 136 44V56H24V44C24 37.3726 29.3726 32 36 32H124ZM136 116V64H24V116C24 122.627 29.3726 128 36 128H124C130.627 128 136 122.627 136 116ZM144 44C144 32.9543 135.046 24 124 24H36C24.9543 24 16 32.9543 16 44V116C16 127.046 24.9543 136 36 136H124C135.046 136 144 127.046 144 116V44ZM45.4805 44.5C45.4805 46.9862 43.4667 49 40.9805 49C38.4942 49 36.4805 46.9862 36.4805 44.5C36.4805 42.0138 38.4942 40 40.9805 40H40.9917C43.4667 40 45.4805 42.0138 45.4805 44.5ZM59.2095 73.6341C60.7923 72.093 63.3248 72.1268 64.8659 73.7095L80.5 89.7662L96.1341 73.7095C97.6752 72.1268 100.208 72.093 101.79 73.6341C103.373 75.1753 103.407 77.7077 101.866 79.2905L86.0829 95.5L101.866 111.71C103.407 113.292 103.373 115.825 101.79 117.366C100.208 118.907 97.6752 118.873 96.1341 117.29L80.5 101.234L64.8659 117.29C63.3248 118.873 60.7923 118.907 59.2095 117.366C57.6268 115.825 57.593 113.292 59.1341 111.71L74.9171 95.5L59.1341 79.2905C57.593 77.7077 57.6268 75.1753 59.2095 73.6341Z" fill="var(--spectrum-global-color-gray-800, #292929)"/>
</svg>
