<svg width="160" height="160" viewBox="0 0 160 160" xmlns="http://www.w3.org/2000/svg">
<path fill-rule="evenodd" d="M22.2972 16.4216C20.7351 14.8595 18.2024 14.8595 16.6403 16.4216C15.0782 17.9837 15.0782 20.5163 16.6403 22.0784L137.703 143.141C139.265 144.703 141.798 144.703 143.36 143.141C144.922 141.579 144.922 139.046 143.36 137.484L22.2972 16.4216ZM69.3797 30.1502C75.6917 23.8921 86.4204 28.3631 86.4204 37.2515V61C86.4204 63.2091 84.6296 65 82.4204 65C80.2113 65 78.4204 63.2091 78.4204 61V37.2515C78.4204 35.4738 76.2747 34.5796 75.0123 35.8312L66.0903 44.677C64.5216 46.2324 61.9889 46.2215 60.4335 44.6528C58.8781 43.084 58.889 40.5514 60.4578 38.996L69.3797 30.1502ZM36.4346 56.8958C34.2254 56.8958 32.4346 58.6867 32.4346 60.8958V98.9719C32.4346 101.181 34.2254 102.972 36.4346 102.972H49.2375L49.2375 74.249C49.2376 72.0399 51.0284 70.249 53.2376 70.249C55.4467 70.249 57.2376 72.0399 57.2375 74.249L57.2375 106.39L75.0195 123.844C76.2847 125.086 78.4204 124.19 78.4204 122.417V103.406C78.4204 101.197 80.2113 99.4063 82.4204 99.4063C84.6296 99.4063 86.4204 101.197 86.4204 103.406V122.417C86.4204 131.281 75.7416 135.763 69.4156 129.553L50.4845 110.972H36.4346C29.8072 110.972 24.4346 105.599 24.4346 98.9719V60.8958C24.4346 54.2684 29.8072 48.8958 36.4346 48.8958H36.5313C38.7404 48.8958 40.5313 50.6867 40.5313 52.8958C40.5313 55.1049 38.7404 56.8958 36.5313 56.8958H36.4346ZM93.7043 57.1134C95.0326 55.3482 97.5404 54.9941 99.3056 56.3224C106.395 61.6576 110.992 70.1559 110.992 79.7268C110.992 81.8133 110.773 83.8531 110.356 85.8229C109.898 87.984 107.774 89.3646 105.613 88.9065C103.452 88.4485 102.072 86.3252 102.53 84.164C102.832 82.7363 102.992 81.2524 102.992 79.7268C102.992 72.7758 99.663 66.6036 94.4952 62.7147C92.7301 61.3863 92.3759 58.8786 93.7043 57.1134ZM110.599 41.6974C111.927 39.9322 114.435 39.5781 116.2 40.9064C127.952 49.7501 135.564 63.8287 135.564 79.684C135.564 89.1128 132.87 97.9244 128.207 105.377C127.036 107.25 124.568 107.818 122.695 106.646C120.822 105.475 120.254 103.007 121.425 101.134C125.315 94.9163 127.564 87.5689 127.564 79.684C127.564 66.4486 121.22 54.6961 111.39 47.2987C109.625 45.9703 109.271 43.4626 110.599 41.6974Z" fill="var(--spectrum-global-color-gray-800, #292929)"/>
</svg>
