<svg width="160" height="160" viewBox="0 0 160 160" xmlns="http://www.w3.org/2000/svg">
<path fill-rule="evenodd" d="M61.0001 48.5C61.0001 36.9363 69.741 28 80.0001 28C90.2592 28 99.0001 36.9363 99.0001 48.5C99.0001 60.0637 90.2592 69 80.0001 69C69.741 69 61.0001 60.0637 61.0001 48.5ZM80.0001 20C64.8541 20 53.0001 33.0017 53.0001 48.5C53.0001 63.9983 64.8541 77 80.0001 77C95.1461 77 107 63.9983 107 48.5C107 33.0017 95.1461 20 80.0001 20ZM37.9504 123.051C42.1149 103.693 59.5063 89 79.9999 89C100.493 89 117.885 103.693 122.049 123.051C122.607 125.645 120.677 127.99 118.15 127.99H79.9999H41.8499C39.3232 127.99 37.3924 125.645 37.9504 123.051ZM79.9999 81C55.6334 81 35.0648 98.4268 30.1293 121.369C28.5273 128.815 34.0965 135.99 41.8499 135.99H79.9999H118.15C125.903 135.99 131.472 128.815 129.87 121.369C124.935 98.4268 104.366 81 79.9999 81Z" fill="var(--spectrum-global-color-gray-800, #292929)"/>
</svg>
