<svg width="48" height="48" viewBox="0 0 48 48" xmlns="http://www.w3.org/2000/svg">
<path d="M18.4979 21.5473C18.177 21.5473 17.8844 21.6682 17.663 21.867C17.6314 21.8954 17.6012 21.9254 17.5727 21.9568C17.3709 22.1788 17.2479 22.4737 17.2479 22.7974V25.1971C17.2479 25.8874 17.8075 26.4471 18.4979 26.4471C19.1882 26.4471 19.7479 25.8874 19.7479 25.1971V24.0473H23.2472V33.5459H22.0974C21.4071 33.5459 20.8474 34.1055 20.8474 34.7959C20.8474 35.4863 21.4071 36.0459 22.0974 36.0459H26.8968C27.5872 36.0459 28.1468 35.4863 28.1468 34.7959C28.1468 34.1055 27.5872 33.5459 26.8968 33.5459H25.7472V24.0473H29.2465V25.1971C29.2465 25.8874 29.8061 26.4471 30.4965 26.4471C31.1868 26.4471 31.7465 25.8874 31.7465 25.1971V22.8074L31.7465 22.7973C31.7465 22.1069 31.1869 21.5473 30.4965 21.5473H18.4979Z" fill="var(--spectrum-global-color-gray-800, #292929)"/>
<path fill-rule="evenodd" d="M15.0455 7.75C12.4258 7.75 10.25 9.831 10.25 12.4615V35.5385C10.25 38.169 12.4258 40.25 15.0455 40.25H33.9545C36.5742 40.25 38.75 38.169 38.75 35.5385V21.9723C38.75 20.7129 38.2373 19.5113 37.3348 18.6302L27.5935 9.11946C26.692 8.23929 25.4755 7.75 24.2132 7.75H15.0455ZM12.75 12.4615C12.75 11.2675 13.75 10.25 15.0455 10.25H24.2132C24.8315 10.25 25.4187 10.4901 25.847 10.9083L35.5883 20.419C36.0156 20.8362 36.25 21.3955 36.25 21.9723V35.5385C36.25 36.7325 35.25 37.75 33.9545 37.75H15.0455C13.75 37.75 12.75 36.7325 12.75 35.5385V12.4615ZM12.75 12.4615H12.5C12.75 12.4615 12.75 12.4615 12.75 12.4615Z" fill="var(--spectrum-global-color-gray-800, #292929)"/>
</svg>
