<svg width="48" height="48" viewBox="0 0 48 48" xmlns="http://www.w3.org/2000/svg">
<path fill-rule="evenodd" d="M34.792 7.12595C34.8757 6.44069 35.4991 5.95301 36.1843 6.03669C39.5353 6.4459 42.6656 8.37123 44.4858 11.524C46.3209 14.7025 46.4098 18.4103 45.0545 21.533C44.7796 22.1662 44.0434 22.4568 43.4101 22.1819C42.7769 21.9071 42.4863 21.1709 42.7612 20.5376C43.8148 18.1101 43.7431 15.2376 42.3207 12.774C40.9098 10.3303 38.4862 8.83635 35.8813 8.51825C35.196 8.43457 34.7083 7.81122 34.792 7.12595ZM2.72573 28.2887C1.27598 25.7777 2.13632 22.5668 4.64736 21.1171L24.6957 9.54217C27.2067 8.09243 30.4176 8.95277 31.8673 11.4638L38.2506 22.52C39.7003 25.031 38.84 28.2418 36.329 29.6916L16.2806 41.2665C13.7696 42.7162 10.5587 41.8559 9.109 39.3449L2.72573 28.2887ZM5.89736 23.2821C4.58206 24.0415 4.1314 25.7234 4.89079 27.0387L5.38078 27.8874L30.1922 13.5625L29.7023 12.7138C28.9429 11.3985 27.261 10.9478 25.9457 11.7072L5.89736 23.2821ZM11.2741 38.0949L6.63078 30.0525L31.4422 15.7275L36.0855 23.77C36.8449 25.0853 36.3943 26.7671 35.079 27.5265L15.0306 39.1014C13.7153 39.8608 12.0335 39.4102 11.2741 38.0949ZM35.0519 10.6423C34.3666 10.5586 33.7433 11.0463 33.6596 11.7315C33.5759 12.4168 34.0636 13.0402 34.7489 13.1238C36.0683 13.285 37.2932 14.0409 38.0067 15.2767C38.726 16.5225 38.763 17.9748 38.2293 19.2044C37.9545 19.8376 38.245 20.5738 38.8783 20.8487C39.5116 21.1236 40.2478 20.833 40.5226 20.1997C41.3581 18.275 41.3038 15.9874 40.1718 14.0267C39.0489 12.0818 37.1174 10.8945 35.0519 10.6423ZM11.0382 30.2167C10.4403 30.5619 10.2355 31.3264 10.5807 31.9243C10.926 32.5221 11.6904 32.7269 12.2883 32.3817L21.7566 26.9145C22.3544 26.5693 22.5592 25.8048 22.214 25.207C21.8688 24.6091 21.1043 24.4043 20.5064 24.7495L11.0382 30.2167ZM13.0038 36.1215C12.6586 35.5237 12.8634 34.7592 13.4613 34.414L18.3001 31.62C18.8979 31.2747 19.6624 31.4795 20.0076 32.0774C20.3529 32.6752 20.1481 33.4397 19.5502 33.7849L14.7114 36.579C14.1135 36.9242 13.349 36.7194 13.0038 36.1215ZM24.8409 22.248C24.2431 22.5932 24.0383 23.3577 24.3835 23.9555C24.7287 24.5534 25.4932 24.7582 26.091 24.413L30.6281 21.7932C31.226 21.4479 31.4308 20.6834 31.0855 20.0856C30.7403 19.4878 29.9758 19.283 29.378 19.6282L24.8409 22.248Z" fill="var(--spectrum-global-color-gray-800, #292929)"/>
</svg>
