<svg width="96" height="96" viewBox="0 0 96 96" xmlns="http://www.w3.org/2000/svg">
<path fill-rule="evenodd" d="M29.0637 25.156C29.0637 19.3744 33.7506 14.6875 39.5322 14.6875C43.0131 14.6875 46.0973 16.3865 48.0006 19.0005C49.9039 16.3865 52.9881 14.6875 56.4691 14.6875C62.2506 14.6875 66.9375 19.3744 66.9375 25.156C66.9375 27.5934 66.1045 29.8363 64.7076 31.6154H72.2103C76.6575 31.6154 80.2627 35.2206 80.2627 39.6679V43.7028C80.2627 46.687 78.6394 49.292 76.2277 50.683V69.9301C76.2277 75.4915 71.7193 80 66.1578 80H29.8432C24.2817 80 19.7732 75.4915 19.7732 69.9301V50.683C17.3615 49.292 15.7383 46.687 15.7383 43.7028V39.6679C15.7383 35.2206 19.3435 31.6154 23.7907 31.6154H31.2936C29.8967 29.8363 29.0637 27.5934 29.0637 25.156ZM50.0005 35.6244H56.469C56.6156 35.6244 56.7615 35.6214 56.9066 35.6154H72.2103C74.4484 35.6154 76.2627 37.4298 76.2627 39.6679V43.7028C76.2627 45.9409 74.4484 47.7553 72.2103 47.7553H50.0005V35.6244ZM46.0006 31.6154V25.1559C46.0006 25.1533 46.0006 25.1507 46.0006 25.1481C45.9963 21.5793 43.1019 18.6875 39.5322 18.6875C35.9597 18.6875 33.0637 21.5835 33.0637 25.156C33.0637 28.613 35.7758 31.4367 39.1884 31.6154H46.0006ZM56.8128 31.6154C60.2254 31.4367 62.9375 28.613 62.9375 25.156C62.9375 21.5835 60.0415 18.6875 56.4691 18.6875C52.8993 18.6875 50.0049 21.5793 50.0006 25.1481C50.0006 25.1507 50.0006 25.1533 50.0006 25.1559V31.6154H56.8128ZM39.5322 35.6244C39.3856 35.6244 39.2397 35.6214 39.0946 35.6154H23.7907C21.5526 35.6154 19.7383 37.4298 19.7383 39.6679V43.7028C19.7383 45.9409 21.5526 47.7553 23.7907 47.7553H46.0005V35.6244H39.5322ZM46.0005 51.7553H23.7907H23.7732V69.9301C23.7732 73.2824 26.4908 76 29.8432 76H46.0005L46.0005 51.7553ZM50.0005 76L50.0005 51.7553H72.2103L72.2277 51.7552V69.9301C72.2277 73.2824 69.5101 76 66.1578 76H50.0005Z" fill="var(--spectrum-global-color-gray-800, #292929)"/>
</svg>
