<svg width="96" height="96" viewBox="0 0 96 96" xmlns="http://www.w3.org/2000/svg">
<path fill-rule="evenodd" d="M33.4545 15.7402C29.3484 15.7402 26 19.0528 26 23.1633V59.3172C26 63.4277 29.3484 66.7402 33.4545 66.7402H33.5114H33.5682H33.625H33.6818H33.7386H33.7955H33.8523H33.9091H33.9659H34.0227H34.0795H34.1364H34.1932H34.25H34.3068H34.3636H34.4205H34.4773H34.5341H34.5909H34.6477H34.7045H34.7614H34.8182H34.875H34.9318H34.9886H35.0455H35.1023H35.1591H35.2159H35.2727H35.3295H35.3864H35.4432H35.5H35.5568H35.6136H35.6705H35.7273H35.7841H35.8409H35.8977H35.9545H36.0114H36.0682H36.125H36.1818H36.2386H36.2955H36.3523H36.4091H36.4659H36.5227H36.5795H36.6364H36.6932H36.75H36.8068H36.8636H36.9205H36.9773H37.0341H37.0909H37.1477H37.2045H37.2614H37.3182H37.375H37.4318H37.4886H37.5455H37.6023H37.6591H37.7159H37.7727H37.8295H37.8864H37.9432H38H38.0568H38.1136H38.1705H38.2273H38.2841H38.3409H38.3977H38.4545H38.5114H38.5682H38.625H38.6818H38.7386H38.7955H38.8523H38.9091H38.9659H39.0227H39.0795H39.1364H39.1932H39.25H39.3068H39.3636H39.4205H39.4773H39.5341H39.5909H39.6477H39.7045H39.7614H39.8182H39.875H39.9318H39.9886H40.0455H40.1023H40.1591H40.2159H40.2727H40.3295H40.3864H40.4432H40.5H40.5568H40.6136H40.6705H40.7273H40.7841H40.8409H40.8977H40.9545H41.0114H41.0682H41.125H41.1818H41.2386H41.2955H41.3523H41.4091H41.4659H41.5227H41.5795H41.6364H41.6932H41.75H41.8068H41.8636H41.9205H41.9773H42.0341H42.0909H42.1477H42.2045H42.2614H42.3182H42.375H42.4318H42.4886H42.5455H42.6023H42.6591H42.7159H42.7727H42.8295H42.8864H42.9432H43H43.0568H43.1136H43.1705H43.2273H43.2841H43.3409H43.3977H43.4545H43.5114H43.5682H43.625H43.6818H43.7386H43.7955H43.8523H43.9091H43.9659H44.0227H44.0795H44.1364H44.1932H44.25H44.3068H44.3636H44.4205H44.4773H44.5341H44.5909H44.6477H44.7045H44.7614H44.8182H44.875H44.9318H44.9886H45.0455H45.1023H45.1591H45.2159H45.2727H45.3295H45.3864H45.4432H45.5H45.5568H45.6136H45.6705H45.7273H45.7841H45.8409H45.8977H45.9545H46.0114H46.0682H46.125H46.1818H46.2386H46.2955H46.3523H46.4091H46.4659H46.5227H46.5795H46.6364H46.6932H46.75H46.8068H46.8636H46.9205H46.9773H47.0341H47.0909H47.1477H47.2045H47.2614H47.3182H47.375H47.4318H47.4886H47.5455H47.6023H47.6591H47.7159H47.7727H47.8295H47.8864H47.9432H48H48.0568H48.1136H48.1705H48.2273H48.2841H48.3409H48.3977H48.4545H48.5114H48.5682H48.625H48.6818H48.7386H48.7955H48.8523H48.9091H48.9659H49.0227H49.0795H49.1364H49.1932H49.25H49.3068H49.3636H49.4205H49.4773H49.5341H49.5909H49.6477H49.7045H49.7614H49.8182H49.875H49.9318H49.9886H50.0455H50.1023H50.1591H50.2159H50.2727H50.3295H50.3864H50.4432H50.5H50.5568H50.6136H50.6705H50.7273H50.7841H50.8409H50.8977H50.9545H51.0114H51.0682H51.125H51.1818H51.2386H51.2955H51.3523H51.4091H51.4659H51.5227H51.5795H51.6364H51.6932H51.75H51.8068H51.8636H51.9205H51.9773H52.0341H52.0909H52.1477H52.2045H52.2614H52.3182H52.375H52.4318H52.4886H52.5455H52.6023H52.6591H52.7159H52.7727H52.8295H52.8864H52.9432H53H53.0568H53.1136H53.1705H53.2273H53.2841H53.3409H53.3977H53.4545H53.5114H53.5682H53.625H53.6818H53.7386H53.7955H53.8523H53.9091H53.9659H54.0227H54.0795H54.1364H54.1932H54.25H54.3068H54.3636H54.4205H54.4773H54.5341H54.5909H54.6477H54.7045H54.7614H54.8182H54.875H54.9318H54.9886H55.0455H55.1023H55.1591H55.2159H55.2727H55.3295H55.3864H55.4432H55.5H55.5568H55.6136H55.6705H55.7273H55.7841H55.8409H55.8977H55.9545H56.0114H56.0682H56.125H56.1818H56.2386H56.2955H56.3523H56.4091H56.4659H56.5227H56.5795H56.6364H56.6932H56.75H56.8068H56.8636H56.9205H56.9773H57.0341H57.0909H57.1477H57.2045H57.2614H57.3182H57.375H57.4318H57.4886H57.5455H57.6023H57.6591H57.7159H57.7727H57.8295H57.8864H57.9432H58H58.0568H58.1136H58.1705H58.2273H58.2841H58.3409H58.3977H58.4545H58.5114H58.5682H58.625H58.6818H58.7386H58.7955H58.8523H58.9091H58.9659H59.0227H59.0795H59.1364H59.1932H59.25H59.3068H59.3636H59.4205H59.4773H59.5341H59.5909H59.6477H59.7045H59.7614H59.8182H59.875H59.9318H59.9886H60.0455H60.1023H60.1591H60.2159H60.2727H60.3295H60.3864H60.4432H60.5H60.5568H60.6136H60.6705H60.7273H60.7841H60.8409H60.8977H60.9545H61.0114H61.0682H61.125H61.1818H61.2386H61.2955H61.3523H61.4091H61.4659H61.5227H61.5795H61.6364H61.6932H61.75H61.8068H61.8636H61.9205H61.9773H62.0341H62.0909H62.1477H62.2045H62.2614H62.3182H62.375H62.4318H62.4886H62.5455C66.6516 66.7402 70 63.4277 70 59.3172V38.0635C70 36.091 69.2118 34.2017 67.8125 32.8105L52.8259 17.9103C51.427 16.5195 49.5322 15.7402 47.5588 15.7402H33.4545ZM30 23.1633C30 21.2837 31.5357 19.7402 33.4545 19.7402H47.5588C48.4788 19.7402 49.3587 20.1037 50.0057 20.7469L64.9923 35.6471C65.6389 36.2899 66 37.1594 66 38.0635V59.3172C66 61.1968 64.4643 62.7402 62.5455 62.7402H62.4886H62.4318H62.375H62.3182H62.2614H62.2045H62.1477H62.0909H62.0341H61.9773H61.9205H61.8636H61.8068H61.75H61.6932H61.6364H61.5795H61.5227H61.4659H61.4091H61.3523H61.2955H61.2386H61.1818H61.125H61.0682H61.0114H60.9545H60.8977H60.8409H60.7841H60.7273H60.6705H60.6136H60.5568H60.5H60.4432H60.3864H60.3295H60.2727H60.2159H60.1591H60.1023H60.0455H59.9886H59.9318H59.875H59.8182H59.7614H59.7045H59.6477H59.5909H59.5341H59.4773H59.4205H59.3636H59.3068H59.25H59.1932H59.1364H59.0795H59.0227H58.9659H58.9091H58.8523H58.7955H58.7386H58.6818H58.625H58.5682H58.5114H58.4545H58.3977H58.3409H58.2841H58.2273H58.1705H58.1136H58.0568H58H57.9432H57.8864H57.8295H57.7727H57.7159H57.6591H57.6023H57.5455H57.4886H57.4318H57.375H57.3182H57.2614H57.2045H57.1477H57.0909H57.0341H56.9773H56.9205H56.8636H56.8068H56.75H56.6932H56.6364H56.5795H56.5227H56.4659H56.4091H56.3523H56.2955H56.2386H56.1818H56.125H56.0682H56.0114H55.9545H55.8977H55.8409H55.7841H55.7273H55.6705H55.6136H55.5568H55.5H55.4432H55.3864H55.3295H55.2727H55.2159H55.1591H55.1023H55.0455H54.9886H54.9318H54.875H54.8182H54.7614H54.7045H54.6477H54.5909H54.5341H54.4773H54.4205H54.3636H54.3068H54.25H54.1932H54.1364H54.0795H54.0227H53.9659H53.9091H53.8523H53.7955H53.7386H53.6818H53.625H53.5682H53.5114H53.4545H53.3977H53.3409H53.2841H53.2273H53.1705H53.1136H53.0568H53H52.9432H52.8864H52.8295H52.7727H52.7159H52.6591H52.6023H52.5455H52.4886H52.4318H52.375H52.3182H52.2614H52.2045H52.1477H52.0909H52.0341H51.9773H51.9205H51.8636H51.8068H51.75H51.6932H51.6364H51.5795H51.5227H51.4659H51.4091H51.3523H51.2955H51.2386H51.1818H51.125H51.0682H51.0114H50.9545H50.8977H50.8409H50.7841H50.7273H50.6705H50.6136H50.5568H50.5H50.4432H50.3864H50.3295H50.2727H50.2159H50.1591H50.1023H50.0455H49.9886H49.9318H49.875H49.8182H49.7614H49.7045H49.6477H49.5909H49.5341H49.4773H49.4205H49.3636H49.3068H49.25H49.1932H49.1364H49.0795H49.0227H48.9659H48.9091H48.8523H48.7955H48.7386H48.6818H48.625H48.5682H48.5114H48.4545H48.3977H48.3409H48.2841H48.2273H48.1705H48.1136H48.0568H48H47.9432H47.8864H47.8295H47.7727H47.7159H47.6591H47.6023H47.5455H47.4886H47.4318H47.375H47.3182H47.2614H47.2045H47.1477H47.0909H47.0341H46.9773H46.9205H46.8636H46.8068H46.75H46.6932H46.6364H46.5795H46.5227H46.4659H46.4091H46.3523H46.2955H46.2386H46.1818H46.125H46.0682H46.0114H45.9545H45.8977H45.8409H45.7841H45.7273H45.6705H45.6136H45.5568H45.5H45.4432H45.3864H45.3295H45.2727H45.2159H45.1591H45.1023H45.0455H44.9886H44.9318H44.875H44.8182H44.7614H44.7045H44.6477H44.5909H44.5341H44.4773H44.4205H44.3636H44.3068H44.25H44.1932H44.1364H44.0795H44.0227H43.9659H43.9091H43.8523H43.7955H43.7386H43.6818H43.625H43.5682H43.5114H43.4545H43.3977H43.3409H43.2841H43.2273H43.1705H43.1136H43.0568H43H42.9432H42.8864H42.8295H42.7727H42.7159H42.6591H42.6023H42.5455H42.4886H42.4318H42.375H42.3182H42.2614H42.2045H42.1477H42.0909H42.0341H41.9773H41.9205H41.8636H41.8068H41.75H41.6932H41.6364H41.5795H41.5227H41.4659H41.4091H41.3523H41.2955H41.2386H41.1818H41.125H41.0682H41.0114H40.9545H40.8977H40.8409H40.7841H40.7273H40.6705H40.6136H40.5568H40.5H40.4432H40.3864H40.3295H40.2727H40.2159H40.1591H40.1023H40.0455H39.9886H39.9318H39.875H39.8182H39.7614H39.7045H39.6477H39.5909H39.5341H39.4773H39.4205H39.3636H39.3068H39.25H39.1932H39.1364H39.0795H39.0227H38.9659H38.9091H38.8523H38.7955H38.7386H38.6818H38.625H38.5682H38.5114H38.4545H38.3977H38.3409H38.2841H38.2273H38.1705H38.1136H38.0568H38H37.9432H37.8864H37.8295H37.7727H37.7159H37.6591H37.6023H37.5455H37.4886H37.4318H37.375H37.3182H37.2614H37.2045H37.1477H37.0909H37.0341H36.9773H36.9205H36.8636H36.8068H36.75H36.6932H36.6364H36.5795H36.5227H36.4659H36.4091H36.3523H36.2955H36.2386H36.1818H36.125H36.0682H36.0114H35.9545H35.8977H35.8409H35.7841H35.7273H35.6705H35.6136H35.5568H35.5H35.4432H35.3864H35.3295H35.2727H35.2159H35.1591H35.1023H35.0455H34.9886H34.9318H34.875H34.8182H34.7614H34.7045H34.6477H34.5909H34.5341H34.4773H34.4205H34.3636H34.3068H34.25H34.1932H34.1364H34.0795H34.0227H33.9659H33.9091H33.8523H33.7955H33.7386H33.6818H33.625H33.5682H33.5114H33.4545C31.5357 62.7402 30 61.1968 30 59.3172V23.1633ZM39.7659 45.1918C38.9107 44.4927 37.6507 44.6192 36.9516 45.4744C36.2525 46.3295 36.379 47.5895 37.2341 48.2886L45.453 55.008C45.8189 55.4539 46.3738 55.7389 46.9956 55.7402L47.0145 55.7402L47.0312 55.74C47.495 55.7472 47.9607 55.5936 48.3392 55.2795L56.777 48.2795C57.6271 47.5742 57.7445 46.3134 57.0393 45.4633C56.334 44.6131 55.0731 44.4957 54.223 45.201L49.0092 49.5264L49.0437 33.7446C49.0461 32.64 48.1526 31.7427 47.0481 31.7402C45.9435 31.7378 45.0461 32.6313 45.0437 33.7359L45.0093 49.4786L39.7659 45.1918ZM27 75.7402C25.8954 75.7402 25 76.6357 25 77.7402C25 78.8448 25.8954 79.7402 27 79.7402H34.5C35.6046 79.7402 36.5 78.8448 36.5 77.7402C36.5 76.6357 35.6046 75.7402 34.5 75.7402H27ZM12 66.2402C10.8954 66.2402 10 65.3448 10 64.2402V56.7402C10 55.6357 10.8954 54.7402 12 54.7402C13.1046 54.7402 14 55.6357 14 56.7402V64.2402C14 65.3448 13.1046 66.2402 12 66.2402ZM82 64.7402C82 65.8448 82.8954 66.7402 84 66.7402C85.1046 66.7402 86 65.8448 86 64.7402V57.2402C86 56.1357 85.1046 55.2402 84 55.2402C82.8954 55.2402 82 56.1357 82 57.2402V64.7402ZM21 42.7402C21 41.6357 20.1046 40.7402 19 40.7402H15.5C12.4624 40.7402 10 43.2027 10 46.2402V49.7402C10 50.8448 10.8954 51.7402 12 51.7402C13.1046 51.7402 14 50.8448 14 49.7402V46.2402C14 45.4118 14.6716 44.7402 15.5 44.7402H19C20.1046 44.7402 21 43.8448 21 42.7402ZM77 40.7402C75.8954 40.7402 75 41.6357 75 42.7402C75 43.8448 75.8954 44.7402 77 44.7402H80.5C81.3284 44.7402 82 45.4118 82 46.2402V49.7402C82 50.8448 82.8954 51.7402 84 51.7402C85.1046 51.7402 86 50.8448 86 49.7402V46.2402C86 43.2027 83.5376 40.7402 80.5 40.7402H77ZM12 68.7402C10.8954 68.7402 10 69.6357 10 70.7402V74.2402C10 77.2778 12.4624 79.7402 15.5 79.7402H19C20.1046 79.7402 21 78.8448 21 77.7402C21 76.6357 20.1046 75.7402 19 75.7402H15.5C14.6716 75.7402 14 75.0687 14 74.2402V70.7402C14 69.6357 13.1046 68.7402 12 68.7402ZM86 70.7402C86 69.6357 85.1046 68.7402 84 68.7402C82.8954 68.7402 82 69.6357 82 70.7402V74.2402C82 75.0687 81.3284 75.7402 80.5 75.7402H77C75.8954 75.7402 75 76.6357 75 77.7402C75 78.8448 75.8954 79.7402 77 79.7402H80.5C83.5376 79.7402 86 77.2778 86 74.2402V70.7402ZM42 77.7402C42 76.6357 42.8954 75.7402 44 75.7402H51.5C52.6046 75.7402 53.5 76.6357 53.5 77.7402C53.5 78.8448 52.6046 79.7402 51.5 79.7402H44C42.8954 79.7402 42 78.8448 42 77.7402ZM61 75.7402C59.8954 75.7402 59 76.6357 59 77.7402C59 78.8448 59.8954 79.7402 61 79.7402H68.5C69.6046 79.7402 70.5 78.8448 70.5 77.7402C70.5 76.6357 69.6046 75.7402 68.5 75.7402H61Z" fill="var(--spectrum-global-color-gray-800, #292929)"/>
</svg>
