<svg width="160" height="160" viewBox="0 0 160 160" xmlns="http://www.w3.org/2000/svg">
<path fill-rule="evenodd" d="M132 80C132 51.2812 108.719 28 80 28C67.0804 28 55.2613 32.7116 46.1672 40.5103L119.49 113.833C127.288 104.739 132 92.9196 132 80ZM113.833 119.49L40.5103 46.1672C32.7116 55.2613 28 67.0804 28 80C28 108.719 51.2812 132 80 132C92.9196 132 104.739 127.288 113.833 119.49ZM80 20C113.137 20 140 46.8629 140 80C140 113.137 113.137 140 80 140C46.8629 140 20 113.137 20 80C20 46.8629 46.8629 20 80 20Z" fill="var(--spectrum-global-color-gray-800, #292929)"/>
</svg>
