<svg width="160" height="160" viewBox="0 0 160 160" xmlns="http://www.w3.org/2000/svg">
<path fill-rule="evenodd" d="M47.1364 24C38.2672 24 31 31.1209 31 40V120C31 128.879 38.2672 136 47.1364 136H111.864C120.733 136 128 128.879 128 120V72.9706C128 68.7124 126.289 64.6379 123.258 61.6409L89.9125 28.6704C86.883 25.6749 82.7836 24 78.5184 24H47.1364ZM39 40C39 35.6242 42.6 32 47.1364 32H78.5184C80.6908 32 82.7652 32.8537 84.2877 34.3591L117.633 67.3296C119.154 68.8335 120 70.8635 120 72.9706V120C120 124.376 116.4 128 111.864 128H47.1364C42.6 128 39 124.376 39 120V40ZM95.3789 82.5C90.9606 82.5 87.3789 78.9183 87.3789 74.5C87.3789 70.0817 90.9606 66.5 95.3789 66.5C99.7972 66.5 103.379 70.0817 103.379 74.5C103.379 78.9183 99.7972 82.5 95.3789 82.5ZM63.3704 84.75C65.8723 80.4167 72.1269 80.4167 74.6288 84.75L84.3812 101.642L89.3704 93C91.8723 88.6666 98.1269 88.6667 100.629 93L110.588 110.25C113.09 114.583 109.963 120 104.959 120H80.7778H54.2772C49.2735 120 46.1461 114.583 48.648 110.25L63.3704 84.75ZM79.773 109.66L68.9996 91L56.8752 112H78.447L79.773 109.66ZM87.6423 112H102.361L94.9996 99.25L87.8535 111.627L87.6423 112Z" fill="var(--spectrum-global-color-gray-800, #292929)"/>
</svg>
