<svg width="96" height="96" viewBox="0 0 96 96" xmlns="http://www.w3.org/2000/svg">
<path fill-rule="evenodd" d="M23.302 24.1738C19.6036 24.1738 16.6055 27.172 16.6055 30.8703V57.5034C16.6055 58.2105 16.7151 58.892 16.9182 59.5318L28.6736 41.3109C30.8815 37.8887 35.905 37.9439 38.0371 41.4138L47.3842 56.6258L52.8716 48.2528C55.0808 44.8818 60.0376 44.9284 62.1831 48.3403L66.6006 55.3651L66.6023 55.3678L69.6536 60.2027C70.0177 59.3769 70.2199 58.4638 70.2199 57.5034V30.8703C70.2199 27.172 67.2217 24.1738 63.5234 24.1738H23.302ZM66.8785 63.3001L63.2179 57.4999L63.2162 57.4972L58.797 50.4696C58.2025 49.5243 56.8292 49.5114 56.2171 50.4454L47.2029 64.1999H63.5234C64.7459 64.1999 65.8919 63.8723 66.8785 63.3001ZM42.4204 64.1999L44.9612 60.323L34.629 43.5079C34.0383 42.5465 32.6465 42.5312 32.0348 43.4794L19.4518 62.9831C20.5409 63.7497 21.8689 64.1999 23.302 64.1999H42.4204ZM12.6055 30.8703C12.6055 24.9628 17.3945 20.1738 23.302 20.1738H63.5234C69.4309 20.1738 74.2199 24.9628 74.2199 30.8703V57.5034C74.2199 63.4109 69.4309 68.1999 63.5234 68.1999H23.302C17.3945 68.1999 12.6055 63.4109 12.6055 57.5034V30.8703ZM58.5977 40.3702C61.3591 40.3702 63.5977 38.1317 63.5977 35.3702C63.5977 32.6088 61.3591 30.3702 58.5977 30.3702C55.8362 30.3702 53.5977 32.6088 53.5977 35.3702C53.5977 38.1317 55.8362 40.3702 58.5977 40.3702ZM82.4117 40.9418C82.4117 39.8372 81.5163 38.9418 80.4117 38.9418C79.3072 38.9418 78.4117 39.8372 78.4117 40.9418V62.9548C78.4117 67.8539 74.4402 71.8255 69.5411 71.8255H33.668C32.5634 71.8255 31.668 72.7209 31.668 73.8255C31.668 74.93 32.5634 75.8255 33.668 75.8255H69.5411C76.6494 75.8255 82.4117 70.0631 82.4117 62.9548V40.9418Z" fill="var(--spectrum-global-color-gray-800, #292929)"/>
</svg>
