<svg width="96" height="96" viewBox="0 0 96 96" xmlns="http://www.w3.org/2000/svg">
<path fill-rule="evenodd" d="M17 48.0001C17 30.8792 30.8792 17 48.0001 17C65.121 17 79.0002 30.8792 79.0002 48.0001C79.0002 65.121 65.121 79.0002 48.0001 79.0002C30.8792 79.0002 17 65.121 17 48.0001ZM48.0001 13C28.6701 13 13 28.6701 13 48.0001C13 67.3301 28.6701 83.0002 48.0001 83.0002C67.3301 83.0002 83.0002 67.3301 83.0002 48.0001C83.0002 28.6701 67.3301 13 48.0001 13ZM64.0797 40.6389C64.8961 39.8949 64.9547 38.6299 64.2107 37.8135C63.4666 36.9972 62.2016 36.9385 61.3853 37.6826L51.5569 46.6405L44.9706 52.6434L43.3514 54.1192L35.2215 46.5374C34.4137 45.7841 33.1481 45.8282 32.3948 46.636C31.6414 47.4438 31.6856 48.7094 32.4934 49.4627L41.9718 58.3021C42.7337 59.0125 43.9132 59.0192 44.6831 58.3175L43.3359 56.8394C44.6831 58.3175 44.6832 58.3175 44.6833 58.3173L44.684 58.3168L44.6851 58.3158L44.6866 58.3144L44.6969 58.305L44.7378 58.2677L44.8971 58.1225L45.5023 57.5709L47.6651 55.5997L54.2514 49.5968L64.0797 40.6389Z" fill="var(--spectrum-global-color-gray-800, #292929)"/>
</svg>
