<svg width="48" height="48" viewBox="0 0 48 48" xmlns="http://www.w3.org/2000/svg">
<path fill-rule="evenodd" d="M8.75 24C8.75 15.5777 15.5777 8.75 24 8.75C32.4223 8.75 39.25 15.5777 39.25 24C39.25 32.4223 32.4223 39.25 24 39.25C15.5777 39.25 8.75 32.4223 8.75 24ZM24 6.25C14.1969 6.25 6.25 14.1969 6.25 24C6.25 33.8031 14.1969 41.75 24 41.75C33.8031 41.75 41.75 33.8031 41.75 24C41.75 14.1969 33.8031 6.25 24 6.25ZM26.5 15.0723C26.5 16.453 25.3807 17.5723 24 17.5723C22.6193 17.5723 21.5 16.453 21.5 15.0723C21.5 13.6916 22.6193 12.5723 24 12.5723C25.3807 12.5723 26.5 13.6916 26.5 15.0723ZM16.7177 17.9441C16.1867 17.7922 15.6331 18.0995 15.4812 18.6304C15.3293 19.1614 15.6366 19.715 16.1676 19.867C17.6111 20.28 19.0792 20.5765 20.5581 20.7566C21.0722 20.8192 21.4678 21.2494 21.4678 21.7673V25.72C21.4678 25.8124 21.455 25.9044 21.4297 25.9933C21.0294 27.403 20.5725 29.0177 20.1719 30.4367C19.884 31.4566 19.6251 32.3757 19.437 33.0455C19.343 33.3802 19.2665 33.6532 19.213 33.8453L19.2008 33.8891C19.1616 34.0295 19.1206 34.1763 19.1099 34.2297C19.0016 34.7713 19.3528 35.2981 19.8944 35.4064C20.436 35.5148 20.9628 35.1635 21.0711 34.622C21.0658 34.6485 21.0701 34.633 21.0952 34.542L21.0953 34.5418L21.0953 34.5418L21.1396 34.3822C21.1926 34.192 21.2686 33.9206 21.3625 33.5862C21.5502 32.9177 21.8089 31.9995 22.0967 30.9801C22.4252 29.8163 22.7915 28.5213 23.1333 27.3161C23.2432 26.9285 23.5971 26.6611 24 26.6611C24.4029 26.6611 24.7568 26.9285 24.8667 27.3161C25.2085 28.5213 25.5748 29.8163 25.9033 30.9801C26.1911 31.9995 26.4498 32.9177 26.6375 33.5862C26.7314 33.9206 26.8074 34.192 26.8604 34.3822L26.9047 34.5418L26.9047 34.5418L26.9048 34.542C26.9299 34.633 26.9342 34.6485 26.9289 34.622C27.0372 35.1635 27.564 35.5148 28.1056 35.4064C28.6472 35.2981 28.9984 34.7713 28.8901 34.2297C28.8794 34.1763 28.8384 34.0295 28.7993 33.8892L28.7992 33.8891L28.787 33.8453C28.7335 33.6532 28.657 33.3802 28.563 33.0455C28.3749 32.3757 28.116 31.4566 27.8281 30.4367C27.4275 29.0177 26.9706 27.403 26.5703 25.9933C26.545 25.9044 26.5322 25.8124 26.5322 25.72V21.767C26.5322 21.2492 26.9278 20.819 27.4418 20.7563C28.8542 20.5843 30.257 20.3059 31.6382 19.9212L31.8261 19.8689C32.3581 19.7207 32.6692 19.1692 32.521 18.6372C32.3728 18.1052 31.8214 17.794 31.2894 17.9422L31.1015 17.9945C26.3942 19.3058 21.4157 19.2883 16.7177 17.9441Z" fill="var(--spectrum-global-color-gray-800, #292929)"/>
</svg>
