<svg width="96" height="96" viewBox="0 0 96 96" xmlns="http://www.w3.org/2000/svg">
<path fill-rule="evenodd" d="M47.2066 46.1428L72.8397 20.5099C74.8529 18.4967 78.1168 18.4967 80.13 20.5099C82.1432 22.523 82.1431 25.787 80.13 27.8002L53.8683 54.0617C53.229 52.1676 52.2926 50.4816 51.022 49.0586C49.9432 47.8504 48.666 46.8791 47.2066 46.1428ZM42.9475 44.745L70.0113 17.6814C73.5866 14.1062 79.3832 14.1062 82.9584 17.6814C86.5337 21.2567 86.5337 27.0533 82.9584 30.6286L54.8309 58.7559C54.9118 59.6138 54.9512 60.4974 54.9512 61.4032C54.9512 66.624 53.0017 71.0246 49.5932 74.2958C46.2152 77.5378 41.5102 79.575 36.0979 80.3496C28.1953 81.4806 17.4696 80.3992 12.6401 79.7995C11.224 79.6237 10.3455 78.5635 10.0875 77.4996C9.83281 76.4493 10.1148 75.1516 11.1888 74.321C13.9127 72.2146 18.2926 68.2463 20.2664 63.4528C21.8472 59.6138 23.7949 54.9139 26.6195 51.1904C29.4876 47.4095 33.4393 44.4059 39.0109 44.4059C40.4012 44.4059 41.7152 44.5187 42.9475 44.745ZM23.9651 64.9758C25.5807 61.0521 27.3484 56.8479 29.8063 53.6078C32.2206 50.4251 35.1182 48.4059 39.0109 48.4059C43.3388 48.4059 46.2135 49.6791 48.0384 51.7228C49.8985 53.8059 50.9512 57.0047 50.9512 61.4032C50.9512 65.5529 49.4329 68.9055 46.8235 71.4099C44.1835 73.9436 40.3202 75.7045 35.5312 76.3899C29.1985 77.2963 20.6714 76.6643 15.3518 76.0877C18.2193 73.6299 22.0026 69.7419 23.9651 64.9758Z" fill="var(--spectrum-global-color-gray-800, #292929)"/>
</svg>
