<svg width="160" height="160" viewBox="0 0 160 160" fill="none" xmlns="http://www.w3.org/2000/svg">
<path fill-rule="evenodd" clip-rule="evenodd" d="M47.3125 27.3126C36.2668 27.3126 27.3125 36.2669 27.3125 47.3126V112.688C27.3125 123.733 36.2668 132.688 47.3125 132.688H112.687C123.733 132.688 132.687 123.733 132.687 112.688V69.0929L132.688 69.0443L132.687 68.9956V47.3126C132.687 36.2669 123.733 27.3126 112.687 27.3126H47.3125ZM124.687 73.0443V112.688C124.687 113.532 124.6 114.356 124.434 115.151L112.743 97.8307L112.738 97.8236C108.742 91.8649 99.9825 91.8794 95.9857 97.8242L95.969 97.8493L86.4493 112.242L69.1957 85.6177L69.194 85.6151L69.1935 85.6142C65.22 79.4739 56.2242 79.4751 52.2525 85.6177L35.3125 111.789V73.0443H124.687ZM78.2181 124.688L81.6342 119.523L62.4799 89.9648L62.4777 89.9614C61.6573 88.6927 59.7909 88.6927 58.9706 89.9614L58.9695 89.9631L38.7913 121.137C40.9656 123.33 43.9805 124.688 47.3125 124.688H78.2181ZM87.8096 124.688L102.631 102.278C103.469 101.046 105.278 101.061 106.095 102.281L106.103 102.294L119.696 122.429C117.724 123.85 115.304 124.688 112.687 124.688H87.8096ZM35.3125 65.0443H124.687V47.3126C124.687 40.6852 119.315 35.3126 112.687 35.3126H47.3125C40.685 35.3126 35.3125 40.6852 35.3125 47.3126V65.0443ZM43.375 50.1779C43.3753 47.9688 45.1664 46.1781 47.3755 46.1784L112.75 46.1872C114.96 46.1875 116.75 47.9786 116.75 50.1877C116.75 52.3969 114.959 54.1875 112.749 54.1872L47.3744 54.1784C45.1653 54.1781 43.3747 52.387 43.375 50.1779ZM108.713 82.8277C108.713 86.1414 111.399 88.8277 114.713 88.8277C118.027 88.8277 120.713 86.1414 120.713 82.8277C120.713 79.514 118.027 76.8277 114.713 76.8277C111.399 76.8277 108.713 79.514 108.713 82.8277Z" fill="var(--spectrum-global-color-gray-800, #292929)"/>
</svg>
