<svg width="96" height="96" viewBox="0 0 96 96" xmlns="http://www.w3.org/2000/svg">
<path fill-rule="evenodd" d="M62.4814 18C62.4814 16.8954 63.3769 16 64.4814 16H76.8814C77.986 16 78.8814 16.8954 78.8814 18V44C78.8814 45.1046 77.986 46 76.8814 46H64.4814C63.3769 46 62.4814 45.1046 62.4814 44V18ZM64.4814 12C61.1677 12 58.4814 14.6863 58.4814 18V44C58.4814 47.3137 61.1677 50 64.4814 50H76.8814C80.1952 50 82.8814 47.3137 82.8814 44V18C82.8814 14.6863 80.1952 12 76.8814 12H64.4814ZM59.8809 63.6C60.9854 63.6 61.8809 64.4954 61.8809 65.6V78C61.8809 79.1045 60.9854 80 59.8809 80H33.8809C32.7763 80 31.8809 79.1045 31.8809 78V65.6C31.8809 64.4954 32.7763 63.6 33.8809 63.6H59.8809ZM65.8809 65.6C65.8809 62.2863 63.1946 59.6 59.8809 59.6H33.8809C30.5671 59.6 27.8809 62.2863 27.8809 65.6V78C27.8809 81.3137 30.5671 84 33.8809 84H59.8809C63.1946 84 65.8809 81.3137 65.8809 78V65.6ZM19.6711 45.43C18.2628 45.43 17.1211 46.5717 17.1211 47.98C17.1211 49.3883 18.2628 50.53 19.6711 50.53C21.0794 50.53 22.2211 49.3883 22.2211 47.98C22.2211 46.5717 21.0794 45.43 19.6711 45.43ZM13.1211 47.98C13.1211 45.0565 15.0364 42.5804 17.6807 41.7379V27.0221C15.0364 26.1796 13.1211 23.7035 13.1211 20.78C13.1211 17.1625 16.0536 14.23 19.6711 14.23C22.5984 14.23 25.0772 16.1503 25.9165 18.8H40.6259C41.4651 16.1503 43.944 14.23 46.8713 14.23C50.4888 14.23 53.4213 17.1625 53.4213 20.78C53.4213 23.6964 51.5152 26.1677 48.8809 27.0159V37.02C48.8809 38.1246 47.9854 39.02 46.8809 39.02C45.7763 39.02 44.8809 38.1246 44.8809 37.02V27.0221C42.8742 26.3827 41.2873 24.8026 40.6387 22.8H25.9037C25.2572 24.7962 23.6783 26.3727 21.6807 27.0159V41.744C23.6916 42.3916 25.2782 43.9849 25.9165 46H35.9511C37.0557 46 37.9511 46.8954 37.9511 48C37.9511 49.1046 37.0557 50 35.9511 50H25.9037C25.0522 52.629 22.5837 54.53 19.6711 54.53C16.0536 54.53 13.1211 51.5975 13.1211 47.98ZM17.1211 20.78C17.1211 19.3717 18.2628 18.23 19.6711 18.23C21.0794 18.23 22.2211 19.3717 22.2211 20.78C22.2211 22.1883 21.0794 23.33 19.6711 23.33C18.2628 23.33 17.1211 22.1883 17.1211 20.78ZM46.8713 18.23C45.463 18.23 44.3213 19.3717 44.3213 20.78C44.3213 22.1883 45.463 23.33 46.8713 23.33C48.2796 23.33 49.4213 22.1883 49.4213 20.78C49.4213 19.3717 48.2796 18.23 46.8713 18.23ZM44.0112 55.14L38.8512 42.57H38.8612C38.1812 40.93 39.8312 39.28 41.4712 39.96L54.0312 45.12C55.6512 45.79 55.6912 48.08 54.0812 48.8L50.3612 50.46C49.9112 50.66 49.5512 51.02 49.3512 51.47L47.6912 55.19C46.9712 56.8 44.6812 56.77 44.0112 55.14Z" fill="var(--spectrum-global-color-gray-800, #292929)"/>
</svg>
