<svg width="160" height="160" viewBox="0 0 160 160" xmlns="http://www.w3.org/2000/svg">
<path fill-rule="evenodd" d="M107.99 56.5898C107.99 43.0598 118.96 32.0898 132.49 32.0898C146.02 32.0898 156.99 43.0598 156.99 56.5898C156.99 70.1198 146.02 81.0898 132.49 81.0898C118.96 81.0898 107.99 70.1198 107.99 56.5898ZM132.49 41.0098C130.28 41.0098 128.49 42.7998 128.49 45.0098V57.7898C128.49 59.9998 130.28 61.7898 132.49 61.7898C134.7 61.7898 136.49 59.9998 136.49 57.7898V45.0098C136.49 42.7998 134.7 41.0098 132.49 41.0098ZM136.32 69.7698C136.43 69.5198 136.51 69.2498 136.56 68.9898C136.61 68.7198 136.64 68.4498 136.64 68.1798C136.64 67.0798 136.2 66.0198 135.43 65.2398C134.46 64.2798 133.03 63.8398 131.68 64.1098C131.42 64.1598 131.15 64.2398 130.9 64.3498C130.65 64.4498 130.41 64.5798 130.19 64.7299C129.96 64.8799 129.75 65.0498 129.56 65.2398C128.78 66.0198 128.34 67.0898 128.34 68.1798C128.34 68.4498 128.37 68.7198 128.42 68.9898C128.47 69.2498 128.55 69.5198 128.66 69.7698C128.76 70.0198 128.89 70.2598 129.04 70.4799C129.19 70.7099 129.36 70.9198 129.56 71.1098C129.75 71.3098 129.96 71.4798 130.19 71.6298C130.41 71.7798 130.65 71.9099 130.9 72.0098C131.15 72.1199 131.42 72.1998 131.68 72.2498C131.95 72.2998 132.22 72.3298 132.49 72.3298C133.58 72.3298 134.65 71.8898 135.43 71.1098C135.62 70.9198 135.79 70.7099 135.94 70.4799C136.09 70.2598 136.22 70.0198 136.32 69.7698ZM24.2475 66.249C38.4951 51.9307 58.2085 43.0751 79.9978 43.0751C86.6717 43.0751 93.146 43.9055 99.3253 45.4666C101.467 46.0077 103.642 44.71 104.183 42.5682C104.724 40.4263 103.427 38.2514 101.285 37.7103C94.4701 35.9886 87.3378 35.0751 79.9978 35.0751C55.9943 35.0751 34.2642 44.8409 18.5767 60.6062C17.0185 62.1722 17.0247 64.7048 18.5907 66.2631C20.1567 67.8213 22.6893 67.815 24.2475 66.249ZM79.9992 62.9618C63.7115 62.9618 48.9779 69.5833 38.3306 80.291C36.7729 81.8575 34.2402 81.8647 32.6737 80.307C31.1072 78.7493 31.1001 76.2167 32.6577 74.6501C44.7451 62.4942 61.4963 54.9618 79.9992 54.9618C86.4029 54.9618 92.6024 55.8645 98.4743 57.5522C100.598 58.1624 101.824 60.3783 101.214 62.5015C100.604 64.6247 98.3877 65.8511 96.2645 65.2409C91.1038 63.7577 85.6478 62.9618 79.9992 62.9618ZM52.377 94.3651C59.4269 87.2479 69.1948 82.8466 79.998 82.8466C90.799 82.8466 100.565 87.246 107.615 94.3605C109.169 95.9297 111.702 95.9414 113.271 94.3865C114.841 92.8315 114.852 90.2989 113.297 88.7297C104.807 80.1611 93.0195 74.8466 79.998 74.8466C66.9738 74.8466 55.184 80.1634 46.6933 88.7352C45.1387 90.3047 45.1507 92.8373 46.7202 94.392C48.2897 95.9466 50.8223 95.9346 52.377 94.3651ZM66.4492 108.415C69.8996 104.902 74.6917 102.731 79.9981 102.731C85.3004 102.731 90.0892 104.899 93.539 108.407C95.0881 109.982 97.6207 110.003 99.1957 108.454C100.771 106.905 100.792 104.372 99.2427 102.797C94.3508 97.8232 87.5319 94.7313 79.9981 94.7313C72.4585 94.7313 65.6349 97.8279 60.7422 102.809C59.1941 104.384 59.2166 106.917 60.7926 108.465C62.3685 110.013 64.9011 109.991 66.4492 108.415ZM86.0078 119.266C86.0078 122.579 83.3215 125.266 80.0078 125.266C76.6941 125.266 74.0078 122.579 74.0078 119.266C74.0078 115.952 76.6941 113.266 80.0078 113.266C83.3215 113.266 86.0078 115.952 86.0078 119.266Z" fill="var(--spectrum-global-color-gray-800, #292929)"/>
</svg>
