<svg width="96" height="96" viewBox="0 0 96 96" xmlns="http://www.w3.org/2000/svg">
<path fill-rule="evenodd" d="M17 47.74C17 30.6192 30.8792 16.74 48 16.74C65.1208 16.74 79 30.6192 79 47.74C79 64.8608 65.1208 78.74 48 78.74C30.8792 78.74 17 64.8608 17 47.74ZM48 12.74C28.67 12.74 13 28.41 13 47.74C13 67.07 28.67 82.74 48 82.74C67.33 82.74 83 67.07 83 47.74C83 28.41 67.33 12.74 48 12.74ZM44.2246 38.6334L56.9339 45.9233C58.3573 46.7397 58.3549 48.7765 56.9295 49.5896L44.2026 56.8493C42.7772 57.6624 40.998 56.6419 41 55.0124L41.0176 40.4627C41.0195 38.8332 42.8012 37.8169 44.2246 38.6334Z" fill="var(--spectrum-global-color-gray-800, #292929)"/>
</svg>
