<svg width="48" height="48" viewBox="0 0 48 48" xmlns="http://www.w3.org/2000/svg">
<path fill-rule="evenodd" d="M23.6838 7.5161C21.6341 5.46639 18.3148 5.47044 16.2589 7.51328L16.2561 7.5161L5.99608 17.7761C3.94637 19.8258 3.95042 23.1451 5.99326 25.201L5.99608 25.2039L9.13479 28.3426C9.18675 28.4008 9.24068 28.4579 9.29659 28.5138C10.0694 29.2867 11.0751 29.6834 12.087 29.7041C12.1103 30.7124 12.507 31.7137 13.2771 32.4838C14.0521 33.2588 15.0613 33.6556 16.0761 33.6742C16.0969 34.6858 16.4937 35.6912 17.2663 36.4638C18.0366 37.2341 19.0381 37.6307 20.0466 37.6539C20.0649 38.669 20.4618 39.6785 21.237 40.4538C22.8252 42.042 25.3966 42.042 26.9848 40.4538L32.2648 35.1738L32.2832 35.155L42.0043 25.4338C44.0541 23.3841 44.05 20.0648 42.0072 18.0089L42.0043 18.0061L31.7444 7.74608C29.6946 5.69637 26.3754 5.70042 24.3194 7.74326L24.3166 7.74608L24.1152 7.94746L23.6838 7.5161ZM25.8878 9.71037L30.2735 14.0961C31.8617 15.6842 31.8617 18.2557 30.2735 19.8438C28.6854 21.432 26.1139 21.432 24.5258 19.8438L20.1401 15.4581L11.0644 24.5338C10.4873 25.1109 10.4545 26.0229 10.9658 26.6381L11.0638 26.7361C11.0878 26.76 11.1105 26.7847 11.1321 26.81C11.7166 27.3299 12.5943 27.3365 13.1862 26.8297C13.2159 26.7981 13.2462 26.7669 13.2771 26.736C13.3091 26.7039 13.3425 26.674 13.377 26.6461L15.4586 24.574C15.9479 24.087 16.7394 24.0888 17.2264 24.5781C17.7134 25.0674 17.7116 25.8588 17.2223 26.3459L15.0444 28.5138L15.0434 28.5148C15.0154 28.5428 14.9871 28.5703 14.9585 28.5973C14.4345 29.2125 14.4633 30.1344 15.0448 30.716C15.6567 31.3278 16.6452 31.3278 17.2571 30.716C17.2879 30.6852 17.3199 30.6563 17.353 30.6293L19.4363 28.546C19.9245 28.0579 20.7159 28.0579 21.2041 28.546C21.6922 29.0342 21.6922 29.8257 21.2041 30.3138L19.0341 32.4838C18.4222 33.0957 18.4222 34.0842 19.0341 34.696C19.6459 35.3079 20.6345 35.3079 21.2463 34.696L23.3963 32.546C23.3986 32.5437 23.401 32.5414 23.4033 32.5391C23.4095 32.533 23.4157 32.527 23.422 32.5211C23.9105 32.0379 24.6983 32.0395 25.1848 32.526C25.6729 33.0142 25.6729 33.8056 25.1848 34.2938L23.0048 36.4738C22.3929 37.0856 22.3929 38.0742 23.0048 38.686C23.6166 39.2979 24.6052 39.2979 25.217 38.686L25.4882 38.4149L25.5066 38.3961L40.2366 23.6661C41.3064 22.5962 41.3109 20.8565 40.2351 19.7724L40.2338 19.771L29.9766 9.51384C28.9068 8.44402 27.1671 8.43951 26.0829 9.51526L26.0815 9.51666L25.8878 9.71037ZM8.41351 24.0858C8.61198 23.606 8.90633 23.1563 9.29659 22.7661L19.229 12.8337C19.2378 12.8244 19.2467 12.8152 19.2558 12.8061C19.7439 12.3179 20.5354 12.3179 21.0235 12.8061L26.2935 18.0761C26.9054 18.6879 27.8939 18.6879 28.5058 18.0761C29.1176 17.4642 29.1176 16.4757 28.5058 15.8638L23.2358 10.5938C23.2125 10.5706 23.1904 10.5467 23.1694 10.5221C23.1265 10.4892 23.0853 10.4531 23.0461 10.4139L21.9161 9.28386C20.8462 8.214 19.1065 8.20953 18.0223 9.2854L18.021 9.28668L7.76384 19.5439C6.69391 20.6138 6.68951 22.3537 7.7656 23.4379L7.76666 23.4389L8.41351 24.0858Z" fill="var(--spectrum-global-color-gray-800, #292929)"/>
</svg>
