<svg width="96" height="97" viewBox="0 0 96 97" xmlns="http://www.w3.org/2000/svg">
<path fill-rule="evenodd" d="M25.4141 18.7109C25.4141 17.6064 24.5186 16.7109 23.4141 16.7109C22.3095 16.7109 21.4141 17.6064 21.4141 18.7109L21.4141 78.2734C21.4141 79.378 22.3095 80.2734 23.4141 80.2734C24.5186 80.2734 25.4141 79.378 25.4141 78.2734L25.4141 62.4932H66.5859C71.0042 62.4932 74.5859 58.9114 74.5859 54.4932V28.5352C74.5859 24.1169 71.0042 20.5352 66.5859 20.5352H25.4141V18.7109ZM25.4141 24.5352L25.4141 58.4932H66.5859C68.7951 58.4932 70.5859 56.7023 70.5859 54.4932V28.5352C70.5859 26.326 68.7951 24.5352 66.5859 24.5352H25.4141ZM40.3875 33.6444C41.1686 32.8633 42.4349 32.8633 43.216 33.6444L48.2576 38.686L53.2992 33.6444C54.0802 32.8633 55.3465 32.8633 56.1276 33.6444C56.9086 34.4254 56.9086 35.6918 56.1276 36.4728L51.086 41.5144L56.1276 46.556C56.9086 47.337 56.9086 48.6034 56.1276 49.3844C55.3465 50.1655 54.0802 50.1655 53.2992 49.3844L48.2576 44.3428L43.216 49.3844C42.4349 50.1655 41.1686 50.1655 40.3875 49.3844C39.6065 48.6034 39.6065 47.337 40.3875 46.556L45.4291 41.5144L40.3875 36.4728C39.6065 35.6918 39.6065 34.4254 40.3875 33.6444Z" fill="var(--spectrum-global-color-gray-800, #292929)"/>
</svg>
