<svg width="160" height="160" viewBox="0 0 160 160" xmlns="http://www.w3.org/2000/svg">
<path fill-rule="evenodd" d="M29.2771 43.0552C23.2686 35.1548 28.903 23.791 38.8286 23.791H121.173C131.098 23.791 136.733 35.1548 130.724 43.0552C130.681 43.1115 130.637 43.1666 130.591 43.2206L92.6969 87.9159V126.735C92.6969 129.034 91.708 131.221 89.9824 132.74L80.5897 141.007C75.4219 145.555 67.3042 141.886 67.3042 135.002V87.9159L29.4099 43.2206C29.3642 43.1666 29.3199 43.1115 29.2771 43.0552ZM35.5917 38.1411L74.3552 83.8617C74.9679 84.5844 75.3042 85.5011 75.3042 86.4485V135.002L84.6969 126.735V86.4485C84.6969 85.5011 85.0332 84.5844 85.6459 83.8617L124.409 38.1411C126.325 35.5111 124.451 31.791 121.173 31.791H38.8286C35.5498 31.791 33.6758 35.5112 35.5917 38.1411Z" fill="var(--spectrum-global-color-gray-800, #292929)"/>
</svg>
