<svg width="48" height="48" viewBox="0 0 48 48" xmlns="http://www.w3.org/2000/svg">
  <defs>
<clipPath id="clip0_5570_89490">
<rect width="48" height="48" fill="white"/>
</clipPath>
</defs>
<g clip-path="url(#clip0_5570_89490)">
<path fill-rule="evenodd" d="M37.5742 11.2043C37.5048 10.8525 37.2405 10.5883 36.8887 10.5188C34.3237 10.0124 28.8298 10.6871 23.3314 16.1855C19.1423 20.3746 17.3371 22.7223 16.5653 24.1213C16.1915 24.7987 16.0848 25.2107 16.0494 25.4709C16.0212 25.6772 16.0266 25.7831 16.0351 25.9518C16.0406 26.0605 16.0474 26.1953 16.0474 26.3997C16.0474 27.1366 16.4387 27.9973 18.2672 29.8258C20.0957 31.6543 20.9564 32.0457 21.6933 32.0457C21.8977 32.0457 22.0325 32.0525 22.1412 32.0579C22.3099 32.0665 22.4158 32.0718 22.6221 32.0437C22.8823 32.0082 23.2943 31.9015 23.9717 31.5278C25.3707 30.7559 27.7184 28.9508 31.9075 24.7616C37.4059 19.2632 38.0807 13.7694 37.5742 11.2043ZM37.3729 8.06616C38.7193 8.33198 39.761 9.37373 40.0269 10.7201C40.6762 14.0088 39.7974 19.8343 34.6139 25.5448C34.8787 27.0357 34.6633 28.7812 34.2206 30.4744C33.7031 32.4536 32.8296 34.5325 31.7904 36.374C30.7578 38.2036 29.5175 39.8772 28.2276 40.9891C27.02 42.0301 25.3189 42.9375 23.6554 42.1057C22.1972 41.3767 21.7964 39.9918 21.663 38.6159C21.5958 37.9227 21.5863 37.1297 21.5847 36.2769C21.5844 36.0982 21.5844 35.916 21.5844 35.7299V35.7298V35.7296L21.5844 35.7295C21.5845 35.3519 21.5845 34.958 21.5816 34.5443C19.783 34.5002 18.2973 33.3915 16.4994 31.5936C14.7019 29.796 13.5931 28.3105 13.5487 26.5123C13.1346 26.5093 12.7403 26.5094 12.3624 26.5094L12.3623 26.5094L12.3604 26.5094C12.1749 26.5095 11.9933 26.5095 11.8153 26.5092C10.9625 26.5076 10.1694 26.498 9.47625 26.4308C8.10038 26.2975 6.71549 25.8967 5.98642 24.4385C5.15468 22.7749 6.06206 21.0739 7.10307 19.8663C8.215 18.5764 9.88855 17.3361 11.7182 16.3035C13.5597 15.2643 15.6386 14.3908 17.6177 13.8733C19.3109 13.4306 21.0564 13.2151 22.5473 13.48C28.2581 8.29568 34.0841 7.41681 37.3729 8.06616ZM25.1794 33.7167C26.6877 32.8846 28.8293 31.2368 32.1592 28.0206C32.0907 28.5807 31.972 29.1913 31.8019 29.842C31.3453 31.5882 30.5598 33.4678 29.6131 35.1453C28.6598 36.8346 27.5872 38.2405 26.5953 39.0955C25.5211 40.0215 24.9714 39.9687 24.7734 39.8696C24.5076 39.7368 24.2609 39.5045 24.1514 38.3747C24.0971 37.815 24.0863 37.1331 24.0847 36.2722C24.0844 36.1021 24.0844 35.9257 24.0844 35.7434L24.0844 35.7432C24.0845 35.2771 24.0846 34.7718 24.0789 34.2314C24.4154 34.1056 24.7791 33.9376 25.1794 33.7167ZM20.0716 15.9346C19.5115 16.0031 18.9009 16.1219 18.2501 16.292C16.504 16.7485 14.6244 17.534 12.9469 18.4807C11.2575 19.4341 9.85168 20.5067 8.99663 21.4986C8.07066 22.5728 8.12349 23.1225 8.22251 23.3205C8.35541 23.5863 8.5877 23.833 9.71749 23.9425C10.2771 23.9968 10.959 24.0076 11.8199 24.0092C11.99 24.0095 12.1664 24.0095 12.3488 24.0094C12.815 24.0093 13.3206 24.0093 13.8614 24.015C13.9871 23.6783 14.1553 23.3143 14.3763 22.9136C15.2084 21.4055 16.856 19.2641 20.0716 15.9346ZM31.713 19.827C30.7609 20.7791 29.2172 20.7791 28.265 19.827C27.3129 18.8748 27.3129 17.3311 28.265 16.379C29.2172 15.4269 30.7609 15.4269 31.713 16.379C32.6651 17.3311 32.6651 18.8748 31.713 19.827ZM13.8495 36.0112C14.3376 35.523 14.3376 34.7316 13.8495 34.2434C13.3613 33.7553 12.5698 33.7553 12.0817 34.2434L6.1555 40.1696C5.66734 40.6578 5.66735 41.4492 6.1555 41.9374C6.64366 42.4255 7.43511 42.4255 7.92327 41.9374L13.8495 36.0112ZM16.866 37.2603C17.3542 37.7484 17.3542 38.5399 16.866 39.028L13.4181 42.476C12.9299 42.9642 12.1385 42.9642 11.6503 42.476C11.1621 41.9878 11.1621 41.1964 11.6503 40.7082L15.0983 37.2603C15.5864 36.7721 16.3779 36.7721 16.866 37.2603ZM10.8329 32.9941C11.321 32.5059 11.321 31.7145 10.8329 31.2263C10.3447 30.7382 9.55325 30.7382 9.06509 31.2263L5.61713 34.6743C5.12897 35.1625 5.12897 35.9539 5.61713 36.4421C6.10528 36.9302 6.89674 36.9302 7.38489 36.4421L10.8329 32.9941Z" fill="var(--spectrum-global-color-gray-800, #292929)"/>
</g>

</svg>
