<svg width="96" height="96" viewBox="0 0 96 96" xmlns="http://www.w3.org/2000/svg">
<path fill-rule="evenodd" d="M27.9692 19.9497C25.2016 19.9497 22.9502 22.2011 22.9502 24.9687V53.998C22.9502 67.826 34.1798 79.0503 48.0025 79.0503C61.8305 79.0503 73.0548 67.8207 73.0548 53.998V24.9687C73.0548 22.2011 70.8034 19.9497 68.0358 19.9497H27.9692ZM18.9502 24.9687C18.9502 19.992 22.9925 15.9497 27.9692 15.9497H68.0358C73.0125 15.9497 77.0548 19.992 77.0548 24.9687V53.998C77.0548 70.0293 64.0402 83.0503 48.0025 83.0503C31.9712 83.0503 18.9502 70.0357 18.9502 53.998V24.9687ZM49.9599 37.1354C51.6302 34.2399 55.8071 34.2397 57.4778 37.1348L55.7458 38.1349L57.4782 37.1357L64.8301 49.8684L64.8306 49.8692C66.4984 52.7608 64.4191 56.378 61.0743 56.378H46.3696C43.0248 56.378 40.9455 52.7608 42.6133 49.8692L42.6134 49.869L49.9598 37.1357L51.6923 38.1349L49.9599 37.1354ZM54.0133 39.1342C53.8821 38.9068 53.5559 38.9068 53.4248 39.1342L53.4247 39.1344L46.0783 51.8678L46.0781 51.868C45.9446 52.0998 46.1113 52.378 46.3696 52.378H61.0743C61.3325 52.378 61.4992 52.0999 61.3659 51.8681L61.3657 51.8678L54.0137 39.135L54.0133 39.1342ZM41.4344 41.2351C41.9868 40.2786 41.6592 39.0553 40.7027 38.5029C39.7462 37.9505 38.523 38.2781 37.9706 39.2347L29.7993 53.3837C29.2469 54.3402 29.5745 55.5635 30.531 56.1159C31.4876 56.6683 32.7108 56.3407 33.2632 55.3841L41.4344 41.2351Z" fill="var(--spectrum-global-color-gray-800, #292929)"/>
</svg>
