<svg width="48" height="48" viewBox="0 0 48 48" xmlns="http://www.w3.org/2000/svg">
<path fill-rule="evenodd" d="M11.7422 7.85938C12.4325 7.85938 12.9922 8.41902 12.9922 9.10938V9.77148H33.2578C35.605 9.77148 37.5078 11.6743 37.5078 14.0215V27.0005C37.5078 29.3477 35.605 31.2505 33.2578 31.2505H12.9922L12.9922 38.8906C12.9922 39.581 12.4325 40.1406 11.7422 40.1406C11.0518 40.1406 10.4922 39.581 10.4922 38.8906V9.10938C10.4922 8.41902 11.0518 7.85938 11.7422 7.85938ZM12.9922 28.7505L12.9922 12.2715H33.2578C34.2243 12.2715 35.0078 13.055 35.0078 14.0215V27.0005C35.0078 27.967 34.2243 28.7505 33.2578 28.7505H12.9922ZM30.4548 18.1992C30.965 17.7342 31.0017 16.9436 30.5366 16.4334C30.0716 15.9231 29.281 15.8865 28.7708 16.3515L24.0005 20.6993L23.9621 20.7343L22.5807 21.9934L19.9824 19.5703C19.4775 19.0994 18.6866 19.127 18.2157 19.6319C17.7449 20.1368 17.7725 20.9278 18.2774 21.3986L21.7185 24.6077C22.1946 25.0517 22.9321 25.0556 23.4133 24.6171L30.4548 18.1992ZM22.571 23.6935L23.4133 24.6171C23.4133 24.6171 23.413 24.6174 22.571 23.6935Z" fill="var(--spectrum-global-color-gray-800, #292929)"/>
</svg>
