<svg width="48" height="48" viewBox="0 0 48 48" xmlns="http://www.w3.org/2000/svg">
<path d="M28.7002 8.38086C29.5102 8.38086 30.2602 9.20086 29.8702 10.1309L26.2702 18.6209C26.0002 19.2609 26.3002 19.9909 26.9302 20.2609L32.8502 22.7709C33.6402 23.1009 33.8702 24.1209 33.2902 24.7609L20.2602 39.2109C19.9902 39.5109 19.6702 39.6309 19.3502 39.6309C18.5402 39.6309 17.7902 38.8209 18.1802 37.8809L21.6702 29.6009C21.9402 28.9709 21.6402 28.2409 21.0102 27.9709L15.1302 25.4409C14.3502 25.1009 14.1202 24.1009 14.6902 23.4609L27.7802 8.81086C28.0502 8.51086 28.3702 8.38086 28.6902 8.38086M28.7002 5.88086C27.6302 5.88086 26.6502 6.33086 25.9202 7.14086L12.8302 21.7909C12.0302 22.6909 11.7102 23.9209 11.9602 25.1009C12.2202 26.2709 13.0302 27.2609 14.1402 27.7309L18.8802 29.7709L15.8702 36.9109C15.3802 38.0809 15.5002 39.3909 16.1802 40.4209C16.8802 41.4709 18.0902 42.1209 19.3402 42.1209C20.4002 42.1209 21.3802 41.6809 22.1102 40.8709L35.1402 26.4209C35.9502 25.5209 36.2802 24.2809 36.0202 23.1009C35.7602 21.9209 34.9402 20.9309 33.8202 20.4609L29.0502 18.4409L32.1602 11.1109C32.6502 9.94086 32.5402 8.63086 31.8502 7.59086C31.1502 6.54086 29.9402 5.88086 28.6902 5.88086H28.7002Z" fill="var(--spectrum-global-color-gray-800, #292929)"/>
</svg>
