<svg width="160" height="160" viewBox="0 0 160 160" xmlns="http://www.w3.org/2000/svg">
<path fill-rule="evenodd" d="M52.7725 40.2715C52.7725 31.4349 59.9359 24.2715 68.7725 24.2715H119.75C128.587 24.2715 135.75 31.4349 135.75 40.2715V55.5719C135.75 64.4085 128.587 71.5719 119.75 71.5719H68.7725C59.9359 71.5719 52.7725 64.4085 52.7725 55.572V51.875H40.25C35.8317 51.875 32.25 55.4567 32.25 59.875V100.075C32.25 104.493 35.8317 108.075 40.25 108.075H52.7725V104.427C52.7725 95.5902 59.9359 88.4268 68.7725 88.4268H119.75C128.587 88.4268 135.75 95.5902 135.75 104.427V119.727C135.75 128.564 128.587 135.727 119.75 135.727H68.7725C59.9359 135.727 52.7725 128.564 52.7725 119.727V116.075H40.25C31.4134 116.075 24.25 108.912 24.25 100.075V59.875C24.25 51.0384 31.4134 43.875 40.25 43.875H52.7725V40.2715ZM68.7725 32.2715C64.3542 32.2715 60.7725 35.8532 60.7725 40.2715V55.572C60.7725 59.9902 64.3542 63.5719 68.7725 63.5719H119.75C124.168 63.5719 127.75 59.9902 127.75 55.5719V40.2715C127.75 35.8532 124.168 32.2715 119.75 32.2715H68.7725ZM60.7725 104.427C60.7725 100.008 64.3542 96.4268 68.7725 96.4268H119.75C124.168 96.4268 127.75 100.008 127.75 104.427V119.727C127.75 124.145 124.168 127.727 119.75 127.727H68.7725C64.3542 127.727 60.7725 124.146 60.7725 119.727V104.427Z" fill="var(--spectrum-global-color-gray-800, #292929)"/>
</svg>
