<svg width="160" height="160" viewBox="0 0 160 160" xmlns="http://www.w3.org/2000/svg">
  <defs>
<clipPath id="clip0_14_2394">
<rect width="160" height="160" fill="white"/>
</clipPath>
</defs>
<g clip-path="url(#clip0_14_2394)">
<path fill-rule="evenodd" d="M127.924 34.6114C127.669 33.1746 126.577 32.0831 125.14 31.828C116.521 30.2975 98.7301 32.7373 80.946 50.5214C67.1992 64.2681 61.2672 71.98 58.7273 76.5837C57.4962 78.8149 57.1412 80.1788 57.0228 81.0476C56.9293 81.7326 56.9472 82.0903 56.9753 82.6514C56.9932 83.0088 57.0152 83.4489 57.0152 84.109C57.0152 86.5721 58.3289 89.4226 64.329 95.4227C70.329 101.423 73.1795 102.736 75.6427 102.736C76.3025 102.736 76.7426 102.758 77.1 102.776L77.1001 102.776L77.1003 102.776C77.6614 102.804 78.019 102.822 78.704 102.729C79.5728 102.61 80.9367 102.255 83.1679 101.024C87.7716 98.4844 95.4835 92.5524 109.23 78.8057C127.014 61.0215 129.454 43.2309 127.924 34.6114ZM126.539 23.9512C131.28 24.793 134.959 28.4715 135.8 33.2128C137.726 44.0564 134.679 62.8432 117.927 81.2757C118.805 86.1562 118.102 91.8855 116.646 97.4535C114.951 103.938 112.088 110.752 108.682 116.787C105.297 122.785 101.234 128.266 97.0135 131.904C93.0564 135.315 87.5217 138.253 82.1226 135.554C77.3864 133.186 76.0776 128.688 75.6409 124.184C75.4209 121.915 75.3896 119.317 75.3843 116.518C75.3832 115.933 75.3833 115.335 75.3834 114.724V114.723V114.722V114.721V114.72C75.3836 113.452 75.3838 112.127 75.3734 110.734C69.473 110.627 64.6029 107.01 58.6721 101.08C52.7411 95.1485 49.1241 90.2782 49.0177 84.3774C47.6266 84.367 46.3037 84.3672 45.0372 84.3674L45.035 84.3674L45.0325 84.3674H45.0287L45.0268 84.3674L45.0266 84.3674C44.4158 84.3675 43.8182 84.3676 43.2323 84.3665C40.4338 84.3612 37.836 84.3299 35.5669 84.1099C31.0623 83.6732 26.565 82.3644 24.1969 77.6282C21.4975 72.2291 24.4359 66.6944 27.847 62.7373C31.4851 58.5168 36.9656 54.4539 42.9635 51.069C48.9992 47.6627 55.8127 44.8001 62.2972 43.1047C67.8658 41.6487 73.5957 40.9459 78.4765 41.8243C96.9089 25.0722 115.695 22.0258 126.539 23.9512ZM87.0325 108.029C92.0003 105.288 99.0755 99.8392 110.115 89.1601C109.895 91.0803 109.494 93.1833 108.906 95.4299C107.406 101.169 104.825 107.344 101.715 112.855C98.5832 118.404 95.057 123.028 91.7902 125.844C88.2601 128.887 86.4096 128.753 85.7002 128.398C84.7796 127.938 83.9639 127.129 83.6035 123.412C83.425 121.57 83.3896 119.328 83.3843 116.503C83.3833 115.955 83.3834 115.386 83.3835 114.798L83.3835 114.794V114.773L83.3835 114.767V114.767C83.3838 113.218 83.3841 111.537 83.3646 109.738C84.4831 109.324 85.6947 108.767 87.0325 108.029ZM70.5925 49.6361C68.6719 49.8552 66.5681 50.2569 64.3209 50.8445C58.5819 52.345 52.4063 54.9259 46.8953 58.0361C41.3464 61.1676 36.7225 64.6938 33.9064 67.9606C30.8634 71.4907 30.9977 73.3412 31.3524 74.0506C31.8127 74.9712 32.6218 75.7869 36.3389 76.1473C38.1807 76.3258 40.4226 76.3612 43.2473 76.3665C43.8057 76.3675 44.3847 76.3674 44.9833 76.3673L44.9837 76.3673C46.5334 76.367 48.2149 76.3667 50.0143 76.3862C50.4276 75.268 50.9847 74.0566 51.7226 72.7191C54.4635 67.7512 59.9128 60.6757 70.5925 49.6361ZM108.523 62.542C105.399 65.6662 100.334 65.6662 97.2096 62.542C94.0854 59.4178 94.0854 54.3525 97.2096 51.2283C100.334 48.1041 105.399 48.1041 108.523 51.2283C111.647 54.3525 111.647 59.4178 108.523 62.542ZM49.8335 115.575C51.3956 114.013 51.3956 111.48 49.8335 109.918C48.2714 108.356 45.7388 108.356 44.1767 109.918L24.7312 129.364C23.1691 130.926 23.1691 133.458 24.7312 135.02C26.2933 136.583 28.826 136.583 30.3881 135.02L49.8335 115.575ZM59.7329 119.818C61.295 121.38 61.295 123.912 59.7329 125.475L48.4192 136.788C46.8571 138.35 44.3245 138.35 42.7624 136.788C41.2003 135.226 41.2003 132.693 42.7624 131.131L54.0761 119.818C55.6382 118.256 58.1708 118.256 59.7329 119.818ZM39.9331 105.676C41.4952 104.113 41.4952 101.581 39.9331 100.019C38.371 98.4566 35.8384 98.4566 34.2763 100.019L22.9626 111.332C21.4005 112.894 21.4005 115.427 22.9626 116.989C24.5247 118.551 27.0573 118.551 28.6194 116.989L39.9331 105.676Z" fill="var(--spectrum-global-color-gray-800, #292929)"/>
</g>

</svg>
