<svg width="48" height="48" viewBox="0 0 48 48" xmlns="http://www.w3.org/2000/svg">
<path fill-rule="evenodd" d="M25.6434 7.21327C24.6681 6.59841 23.4242 6.59818 22.4487 7.21258L7.98047 16.818V34.9895C7.98047 37.7517 10.2182 39.9895 12.9805 39.9895H35.0205C37.7828 39.9895 40.0205 37.7517 40.0205 34.9895L40.0205 16.8209L40.0205 16.8195C40.0205 16.5703 39.9293 16.3424 39.7786 16.1673C39.7447 16.1279 39.7076 16.091 39.6675 16.057C39.6273 16.0228 39.5844 15.9918 39.5391 15.9643L25.6434 7.21327ZM24.577 8.90525C24.2529 8.70085 23.838 8.70085 23.514 8.90525L23.5109 8.90718L10.8614 16.8222L14.8906 19.3597V17.8995C14.8906 16.2473 16.2383 14.8995 17.8906 14.8995H30.1106C31.7629 14.8995 33.1106 16.2473 33.1106 17.8995V19.3377L37.1396 16.8167L24.577 8.90525ZM31.1106 20.5891V17.8995C31.1106 17.3518 30.6583 16.8995 30.1106 16.8995H17.8906C17.3429 16.8995 16.8906 17.3518 16.8906 17.8995V20.6192L23.4234 24.7333C23.7474 24.9377 24.1629 24.9381 24.487 24.7337L24.49 24.7317L31.1106 20.5891ZM9.98047 34.9895V18.631L22.357 26.4253C23.3323 27.0405 24.5765 27.0409 25.5522 26.4264L25.554 26.4253L38.0205 18.6248V34.9895C38.0205 36.6472 36.6782 37.9895 35.0205 37.9895H12.9805C11.3228 37.9895 9.98047 36.6472 9.98047 34.9895Z" fill="var(--spectrum-global-color-gray-800, #292929)"/>
</svg>
