<svg width="96" height="96" viewBox="0 0 96 96" xmlns="http://www.w3.org/2000/svg">
<path fill-rule="evenodd" d="M80.2418 24.8541C80.2418 19.5831 75.1518 15.802 70.1051 17.334L70.1044 17.3342L70.1039 17.3344L45.0872 24.9162H27.2899C19.4019 24.9162 13 31.318 13 39.206C13 47.0941 19.4019 53.4959 27.2899 53.4959H28.3334L29.0347 55.1015C29.7772 56.801 30.7829 59.1018 31.8352 61.5062C33.9368 66.3085 36.2326 71.5431 36.9832 73.2125C38.1337 75.7712 40.0862 77.3406 42.3144 77.9662C44.4884 78.5767 46.7959 78.2567 48.7255 77.3194C50.5249 76.4453 52.1096 74.9787 52.9771 73.0374C53.8631 71.0547 53.9354 68.7167 52.9158 66.306L52.9075 66.2868L47.678 54.2743L70.0976 61.0891L70.098 61.0892C75.1416 62.6211 80.2418 58.8505 80.2418 53.5695V24.8541ZM43.4376 28.9162V49.4959H27.2899C21.611 49.4959 17 44.8849 17 39.206C17 33.5272 21.611 28.9162 27.2899 28.9162H43.4376ZM47.4377 50.0206L71.2605 57.2618L71.2609 57.2619C73.7387 58.0143 76.2418 56.1614 76.2418 53.5695V24.8541C76.2418 22.2642 73.7408 20.4102 71.2664 21.1617L71.2652 21.1621L47.4377 28.3835V50.0206ZM32.7014 53.5031C33.4437 55.2019 34.4484 57.5005 35.4996 59.9025C37.6061 64.7159 39.8913 69.926 40.6314 71.5722C41.3053 73.0709 42.3302 73.816 43.3957 74.1152C44.5154 74.4296 45.8178 74.2849 46.9777 73.7215C48.0538 73.1988 48.8937 72.371 49.3251 71.4055C49.7372 70.4834 49.8387 69.3051 49.2355 67.8731L42.9796 53.5031H32.7014Z" fill="var(--spectrum-global-color-gray-800, #292929)"/>
</svg>
