<svg width="96" height="96" viewBox="0 0 96 96" xmlns="http://www.w3.org/2000/svg">
<path fill-rule="evenodd" d="M13.5705 10.742C12.7894 9.96099 11.5231 9.96099 10.742 10.742C9.96099 11.5231 9.96099 12.7894 10.742 13.5705L82.4315 85.2599C83.2125 86.041 84.4789 86.041 85.2599 85.2599C86.041 84.4789 86.041 83.2125 85.2599 82.4315L13.5705 10.742ZM42.9142 17.9374C46.0702 14.8084 51.4346 17.0438 51.4346 21.488V39.6885C51.4346 40.793 50.5391 41.6885 49.4346 41.6885C48.33 41.6885 47.4346 40.793 47.4346 39.6885V21.488C47.4346 20.5992 46.3617 20.1521 45.7305 20.7779L38.122 28.3215C37.3376 29.0991 36.0713 29.0937 35.2936 28.3093C34.5159 27.5249 34.5213 26.2586 35.3057 25.4809L42.9142 17.9374ZM21.4658 34.0792C20.3613 34.0792 19.4658 34.9746 19.4658 36.0792V60.1014C19.4658 61.2059 20.3613 62.1014 21.4658 62.1014H29.8563C29.9556 62.1014 30.0546 62.1038 30.1533 62.1087L30.1533 41.9385C30.1533 40.8339 31.0488 39.9385 32.1533 39.9385C33.2579 39.9385 34.1533 40.8339 34.1533 41.9385L34.1533 63.9118L45.7341 75.2787C46.3667 75.8997 47.4346 75.4515 47.4346 74.5651V59.251C47.4346 58.1464 48.33 57.251 49.4346 57.251C50.5391 57.251 51.4346 58.1464 51.4346 59.251V74.5651C51.4346 78.9972 46.0952 81.238 42.9321 78.1334L31.2572 66.674C30.8833 66.307 30.3802 66.1014 29.8563 66.1014H21.4658C18.1521 66.1014 15.4658 63.4151 15.4658 60.1014V36.0792C15.4658 32.7655 18.1521 30.0792 21.4658 30.0792H22.251C23.3555 30.0792 24.251 30.9746 24.251 32.0792C24.251 33.1837 23.3555 34.0792 22.251 34.0792H21.4658ZM56.411 34.7984C57.0751 33.9158 58.329 33.7387 59.2116 34.4029C63.3213 37.4956 65.9852 42.4208 65.9852 47.9677C65.9852 50.0478 65.6099 52.0448 64.9217 53.8917C64.536 54.9268 63.3843 55.4532 62.3492 55.0675C61.3142 54.6818 60.7878 53.5301 61.1735 52.495C61.6977 51.0882 61.9852 49.5638 61.9852 47.9677C61.9852 43.7308 59.9552 39.9686 56.8065 37.599C55.9239 36.9349 55.7468 35.681 56.411 34.7984ZM66.4156 25.6695C67.0798 24.7869 68.3337 24.6098 69.2163 25.274C76.0869 30.4443 80.5361 38.674 80.5361 47.9423C80.5361 54.2243 78.4907 60.0344 75.0302 64.7352C74.3754 65.6248 73.1234 65.815 72.2339 65.1602C71.3443 64.5053 71.1541 63.2534 71.8089 62.3639C74.7807 58.3269 76.5361 53.3425 76.5361 47.9423C76.5361 39.984 72.7208 32.9173 66.8111 28.4701C65.9285 27.806 65.7514 26.5521 66.4156 25.6695Z" fill="var(--spectrum-global-color-gray-800, #292929)"/>
</svg>
