<svg width="96" height="96" viewBox="0 0 96 96" xmlns="http://www.w3.org/2000/svg">
<path fill-rule="evenodd" d="M12.5518 16C8.93577 16 6 18.9283 6 22.546V69.8182C6 73.8888 8.39039 77.3994 11.8435 79.0292C12.9345 79.6437 14.2036 80 15.5786 80H16.1923H23.7019H75.9222C79.0479 80 81.8696 78.0948 82.9957 75.18L91.4948 53.18C93.4062 48.2324 89.6907 43 84.4214 43H81V40.7284C81 34.6 76.0263 29.6364 69.8964 29.6364H43.0951L34.1392 18.4558L32.5782 19.7061L34.1392 18.4558C32.8954 16.9031 31.0132 16 29.0238 16H12.5518ZM77 43V40.7284C77 36.814 73.822 33.6364 69.8964 33.6364H42.1346H41.1741L40.5737 32.8867L31.0173 20.9565C30.5334 20.3524 29.8 20 29.0238 20H12.5518C11.1401 20 10 21.1423 10 22.546V65.9506L17.0044 47.82C18.1305 44.9052 20.9521 43 24.0778 43H77ZM16.1853 76C15.2907 75.999 14.4408 75.8088 13.6735 75.4672C12.2975 74.6156 11.6117 72.8785 12.2364 71.2615L20.7356 49.2615C21.2568 47.9124 22.5793 47 24.0778 47H84.4214C86.9608 47 88.6339 49.4858 87.7636 51.7385L79.2644 73.7385C78.7432 75.0877 77.4207 76 75.9222 76L23.7019 76H16.1923C16.19 76 16.1877 76 16.1853 76Z" fill="var(--spectrum-global-color-gray-800, #292929)"/>
</svg>
