<svg width="48" height="48" viewBox="0 0 48 48" xmlns="http://www.w3.org/2000/svg">
<path fill-rule="evenodd" d="M24.4579 39.4139C24.2989 39.4188 24.1393 39.4212 23.9792 39.4212C18.3334 39.4212 13.3979 36.3803 10.7213 31.847H26.8475L24.4579 39.4139ZM8.59375 24.0358C8.59375 25.9025 8.92619 27.6915 9.5351 29.347H17.457L12.4306 13.8698C10.0424 16.5806 8.59375 20.139 8.59375 24.0358ZM14.4401 11.9637C17.0621 9.889 20.376 8.65039 23.9792 8.65039C26.4609 8.65039 28.8053 9.23797 30.881 10.2816L17.1241 20.2282L14.4401 11.9637ZM17.9302 22.7104C17.9896 22.6805 18.0474 22.6456 18.1031 22.6054L23.8616 18.4418L29.7397 22.6883L27.6369 29.347H20.0596C20.0502 29.2657 20.0326 29.1841 20.0064 29.1033L17.9302 22.7104ZM27.1828 39.0872C32.4942 37.9622 36.7938 34.0969 38.5323 29.0403L31.8744 24.2305L27.1828 39.0872ZM33.1806 11.704L25.9953 16.8991L39.1803 26.4243C39.3016 25.6459 39.3646 24.8482 39.3646 24.0358C39.3646 18.9889 36.9345 14.5095 33.1806 11.704ZM23.9792 41.9212C33.857 41.9212 41.8646 33.9136 41.8646 24.0358C41.8646 14.158 33.857 6.15039 23.9792 6.15039C14.1013 6.15039 6.09375 14.158 6.09375 24.0358C6.09375 33.9136 14.1013 41.9212 23.9792 41.9212Z" fill="var(--spectrum-global-color-gray-800, #292929)"/>
</svg>
