<svg width="160" height="160" viewBox="0 0 160 160" xmlns="http://www.w3.org/2000/svg">
<path fill-rule="evenodd" d="M123.195 57.8791C129.043 52.0316 129.043 42.551 123.195 36.7035C117.348 30.856 107.867 30.856 102.02 36.7035L91.107 47.6161C89.5449 49.1782 87.0122 49.1782 85.4501 47.6161C83.888 46.054 83.888 43.5214 85.4501 41.9593L96.3628 31.0466C105.334 22.0749 119.88 22.075 128.852 31.0466C137.824 40.0183 137.824 54.5643 128.852 63.536L101.181 91.2072C92.2093 100.179 77.6633 100.179 68.6916 91.2072C67.1295 89.6451 67.1295 87.1125 68.6916 85.5504C70.2537 83.9883 72.7864 83.9883 74.3485 85.5504C80.196 91.3979 89.6766 91.3979 95.5241 85.5504L123.195 57.8791ZM91.5402 68.5632C93.1023 70.1253 93.1023 72.6579 91.5402 74.22C89.9781 75.7821 87.4455 75.7821 85.8834 74.22C80.0359 68.3725 70.5552 68.3725 64.7077 74.22L37.0365 101.891C31.189 107.739 31.189 117.219 37.0365 123.067C42.884 128.914 52.3647 128.914 58.2122 123.067L69.1248 112.154C70.6869 110.592 73.2196 110.592 74.7817 112.154C76.3438 113.716 76.3438 116.249 74.7817 117.811L63.869 128.724C54.8973 137.695 40.3513 137.695 31.3796 128.724C22.408 119.752 22.408 105.206 31.3796 96.2344L59.0509 68.5632C68.0225 59.5915 82.5685 59.5915 91.5402 68.5632Z" fill="var(--spectrum-global-color-gray-800, #292929)"/>
</svg>
