<svg width="160" height="160" viewBox="0 0 160 160" xmlns="http://www.w3.org/2000/svg">
<path fill-rule="evenodd" d="M108.001 28C108.001 25.7909 109.792 24 112.001 24H132.001C134.21 24 136.001 25.7909 136.001 28V72C136.001 74.2091 134.21 76 132.001 76H112.001C109.792 76 108.001 74.2091 108.001 72V28ZM112.001 16C105.374 16 100.001 21.3726 100.001 28V72C100.001 78.6274 105.374 84 112.001 84H132.001C138.628 84 144.001 78.6274 144.001 72V28C144.001 21.3726 138.628 16 132.001 16H112.001ZM102.001 108C104.21 108 106.001 109.791 106.001 112V132C106.001 134.209 104.21 136 102.001 136H58.001C55.7918 136 54.001 134.209 54.001 132V112C54.001 109.791 55.7918 108 58.001 108H102.001ZM114.001 112C114.001 105.373 108.628 100 102.001 100H58.001C51.3736 100 46.001 105.373 46.001 112V132C46.001 138.627 51.3736 144 58.001 144H102.001C108.628 144 114.001 138.627 114.001 132V112ZM31.9714 75.94C29.7457 75.94 27.9414 77.7443 27.9414 79.97C27.9414 82.1957 29.7457 84 31.9714 84C34.1971 84 36.0014 82.1957 36.0014 79.97C36.0014 77.7443 34.1971 75.94 31.9714 75.94ZM19.9414 79.97C19.9414 74.7173 23.3079 70.2509 28.001 68.6106V43.3294C23.3079 41.6891 19.9414 37.2227 19.9414 31.97C19.9414 25.326 25.3274 19.94 31.9714 19.94C37.2243 19.94 41.6908 23.3067 43.3309 28H68.6119C70.252 23.3067 74.7185 19.94 79.9714 19.94C86.6154 19.94 92.0014 25.326 92.0014 31.97C92.0014 37.2006 88.6632 41.6516 84.001 43.3085V58.48C84.001 60.6891 82.2101 62.48 80.001 62.48C77.7918 62.48 76.001 60.6891 76.001 58.48V43.3294C72.5708 42.1305 69.8493 39.4219 68.633 36H43.3098C42.1005 39.4022 39.4033 42.0993 36.001 43.3085V68.6315C39.4232 69.8478 42.1321 72.5695 43.3309 76H58.6408C60.85 76 62.6408 77.7909 62.6408 80C62.6408 82.2091 60.85 84 58.6408 84H43.3098C41.6527 88.662 37.2019 92 31.9714 92C25.3274 92 19.9414 86.614 19.9414 79.97ZM27.9414 31.97C27.9414 29.7443 29.7457 27.94 31.9714 27.94C34.1971 27.94 36.0014 29.7443 36.0014 31.97C36.0014 34.1957 34.1971 36 31.9714 36C29.7457 36 27.9414 34.1957 27.9414 31.97ZM79.9714 27.94C77.7457 27.94 75.9414 29.7443 75.9414 31.97C75.9414 34.1957 77.7457 36 79.9714 36C82.1971 36 84.0014 34.1957 84.0014 31.97C84.0014 29.7443 82.1971 27.94 79.9714 27.94ZM74.5111 91.59L66.2511 71.47H66.2411C64.8911 68.18 68.1711 64.9 71.4611 66.25L91.5711 74.52C94.8211 75.85 94.8911 80.44 91.6811 81.87L86.2911 84.28C85.3911 84.68 84.6711 85.4 84.2711 86.3L81.8611 91.7C80.4311 94.91 75.8511 94.84 74.5111 91.59Z" fill="var(--spectrum-global-color-gray-800, #292929)"/>
</svg>
