<svg width="96" height="96" viewBox="0 0 96 96" xmlns="http://www.w3.org/2000/svg">
<path fill-rule="evenodd" d="M29.2998 15.75H47.4986C47.5648 15.7434 47.6319 15.74 47.6998 15.74C50.0037 15.74 52.2203 16.6279 53.8841 18.2265L53.8858 18.2281L72.8923 36.4147L72.8926 36.415C74.6701 38.1153 75.6698 40.4787 75.6698 42.93V70.73C75.6698 75.6871 71.6619 79.72 66.7098 79.72H29.2998C24.3478 79.72 20.3398 75.6871 20.3398 70.73V24.74C20.3398 19.7829 24.3478 15.75 29.2998 15.75ZM47.6998 19.75C47.757 19.75 47.8136 19.7476 47.8695 19.7429C49.0832 19.7844 50.2386 20.2705 51.1138 21.1119L51.1171 21.115L70.1271 39.305L70.1274 39.3053C71.1097 40.2449 71.6698 41.5614 71.6698 42.93V70.73C71.6698 73.4929 69.4378 75.72 66.7098 75.72H29.2998C26.5719 75.72 24.3398 73.4929 24.3398 70.73V24.74C24.3398 21.9771 26.5719 19.75 29.2998 19.75H47.6998ZM45.6602 66.47V60.57H49.7502V66.47H45.6602ZM43.9402 52.57C42.6293 52.57 41.6602 53.6423 41.6602 54.85V66.47C41.6602 68.6911 43.4621 70.47 45.6602 70.47H49.7502C51.9712 70.47 53.7502 68.668 53.7502 66.47V54.85C53.7502 53.5392 52.6779 52.57 51.4702 52.57H49.6898V46.11V43.89H52.9191C54.0236 43.89 54.9191 42.9946 54.9191 41.89C54.9191 40.7854 54.0236 39.89 52.9191 39.89H49.6898V37.66V35.44H52.9191C54.0236 35.44 54.9191 34.5446 54.9191 33.44C54.9191 32.3354 54.0236 31.44 52.9191 31.44H49.6898V29.22C49.6898 28.1154 48.7944 27.22 47.6898 27.22H43.0898C41.9853 27.22 41.0898 28.1154 41.0898 29.22C41.0898 30.3246 41.9853 31.22 43.0898 31.22H45.6898V35.66H43.0898C41.9853 35.66 41.0898 36.5554 41.0898 37.66C41.0898 38.7646 41.9853 39.66 43.0898 39.66H45.6898V44.11H43.0898C41.9853 44.11 41.0898 45.0054 41.0898 46.11C41.0898 47.2146 41.9853 48.11 43.0898 48.11H45.6898V52.57H43.9402Z" fill="var(--spectrum-global-color-gray-800, #292929)"/>
</svg>
