<svg width="96" height="96" viewBox="0 0 96 96" xmlns="http://www.w3.org/2000/svg">
<path fill-rule="evenodd" d="M47.9053 13.0957C49.0098 13.0957 49.9053 13.9911 49.9053 15.0957V18.5731C49.9053 19.6776 49.0098 20.5731 47.9053 20.5731C46.8007 20.5731 45.9053 19.6776 45.9053 18.5731V15.0957C45.9053 13.9911 46.8007 13.0957 47.9053 13.0957ZM49.7695 32.4868C48.665 32.4868 47.7695 33.3822 47.7695 34.4868C47.7695 35.5914 48.665 36.4868 49.7695 36.4868C53.2168 36.4868 55.7986 39.0885 55.7986 42.0422C55.7986 43.1468 56.6941 44.0423 57.7986 44.0423C58.9032 44.0423 59.7986 43.1468 59.7986 42.0422C59.7986 36.655 55.1947 32.4868 49.7695 32.4868ZM42.3715 71.4336V75.2099C42.3715 75.3814 42.5105 75.5204 42.682 75.5204H53.0794C53.2509 75.5204 53.39 75.3813 53.39 75.2099V71.4336H42.3715ZM53.39 67.4336V63.7922C53.39 60.7662 55.1728 58.2932 57.2057 56.7032C60.854 53.8497 63.2097 49.3633 63.2097 44.3065C63.2097 35.6497 56.3157 28.6887 47.8807 28.6887C39.4458 28.6887 32.5518 35.6497 32.5518 44.3065C32.5518 49.3633 34.9075 53.8497 38.5557 56.7032C40.5886 58.2932 42.3715 60.7662 42.3715 63.7922V67.4336H53.39ZM57.39 69.3771V63.7922C57.39 62.4075 58.2289 60.9812 59.6701 59.8539C64.2579 56.2655 67.2097 50.631 67.2097 44.3065C67.2097 33.5032 58.5869 24.6887 47.8807 24.6887C37.1746 24.6887 28.5518 33.5032 28.5518 44.3065C28.5518 50.631 31.5036 56.2655 36.0914 59.8539C37.5326 60.9812 38.3715 62.4075 38.3715 63.7922V75.2099C38.3715 77.5905 40.3014 79.5204 42.682 79.5204H53.0794C55.4601 79.5204 57.39 77.5905 57.39 75.2099V69.4901C57.3905 69.4713 57.3907 69.4525 57.3907 69.4336C57.3907 69.4147 57.3905 69.3959 57.39 69.3771ZM17 44.0063C17 42.9017 17.8954 42.0063 19 42.0063H22.4716C23.5761 42.0063 24.4716 42.9017 24.4716 44.0063C24.4716 45.1108 23.5761 46.0063 22.4716 46.0063H19C17.8954 46.0063 17 45.1108 17 44.0063ZM73.3377 42.0063C72.2331 42.0063 71.3377 42.9017 71.3377 44.0063C71.3377 45.1108 72.2331 46.0063 73.3377 46.0063H76.8092C77.9138 46.0063 78.8092 45.1108 78.8092 44.0063C78.8092 42.9017 77.9138 42.0063 76.8092 42.0063H73.3377ZM69.7618 24.9781C70.5429 24.1971 70.5429 22.9307 69.7618 22.1497C68.9808 21.3686 67.7144 21.3686 66.9334 22.1497L64.4727 24.6104C63.6916 25.3914 63.6916 26.6578 64.4727 27.4388C65.2537 28.2199 66.52 28.2199 67.3011 27.4388L69.7618 24.9781ZM26.0487 22.1498C26.8297 21.3687 28.0961 21.3687 28.8771 22.1498L31.3378 24.6105C32.1189 25.3915 32.1189 26.6578 31.3378 27.4389C30.5568 28.2199 29.2904 28.2199 28.5094 27.4389L26.0487 24.9782C25.2676 24.1971 25.2676 22.9308 26.0487 22.1498Z" fill="var(--spectrum-global-color-gray-800, #292929)"/>
</svg>
