<svg width="160" height="160" viewBox="0 0 160 160" xmlns="http://www.w3.org/2000/svg">
  <defs>
<clipPath id="clip0_5570_89364">
<rect width="160" height="160" fill="white"/>
</clipPath>
</defs>
<g clip-path="url(#clip0_5570_89364)">
<path fill-rule="evenodd" d="M140.633 84.7708C140.633 79.6162 136.454 75.4375 131.299 75.4375H117.861C115.652 75.4375 113.861 73.6466 113.861 71.4375C113.861 69.2284 115.652 67.4375 117.861 67.4375H131.299C140.872 67.4375 148.633 75.1979 148.633 84.7708V133.018C148.633 142.591 140.872 150.351 131.299 150.351H58.6244C49.0514 150.351 41.291 142.591 41.291 133.018V84.7708C41.291 75.1979 49.0514 67.4375 58.6244 67.4375H73.6428C75.8519 67.4375 77.6428 69.2284 77.6428 71.4375C77.6428 73.6466 75.8519 75.4375 73.6428 75.4375H58.6244C53.4697 75.4375 49.291 79.6162 49.291 84.7708V133.018C49.291 133.455 49.3212 133.886 49.3794 134.308L69.1326 103.79L69.1337 103.789C72.981 97.8411 81.6926 97.841 85.54 103.789L85.5405 103.789L85.5413 103.79L101.711 128.767L110.565 115.38L110.582 115.354C114.453 109.598 122.935 109.583 126.806 115.354L126.81 115.361L140.329 135.387C140.527 134.631 140.633 133.836 140.633 133.018V84.7708ZM75.8496 108.136L54.3666 141.325C55.6432 141.981 57.0906 142.351 58.6244 142.351H92.7265L96.8948 136.049L78.8245 108.136L78.8232 108.134C78.1282 107.059 76.5457 107.059 75.8507 108.134L75.8496 108.136ZM134.894 141.634C133.788 142.096 132.573 142.351 131.299 142.351H102.318L117.227 119.809C117.939 118.764 119.471 118.779 120.163 119.812L120.171 119.824L134.894 141.634ZM114.041 92.6558C114.041 95.9695 116.727 98.6558 120.041 98.6558C123.355 98.6558 126.041 95.9695 126.041 92.6558C126.041 89.3421 123.355 86.6558 120.041 86.6558C116.727 86.6558 114.041 89.3421 114.041 92.6558Z" fill="var(--spectrum-global-color-gray-800, #292929)"/>
<path fill-rule="evenodd" d="M63.6239 37.482C44.1104 32.2534 24.053 43.8336 18.8244 63.3471C15.5138 75.7023 18.9412 88.2821 26.8631 97.1748L27.101 90.8819C27.1844 88.6744 29.0416 86.9524 31.2492 87.0359C33.4567 87.1193 35.1787 88.9765 35.0953 91.1841L34.4939 107.097C34.4125 109.25 32.6393 110.952 30.484 110.946L13.9904 110.893C11.7812 110.886 9.99607 109.09 10.0031 106.88C10.0101 104.671 11.8067 102.886 14.0158 102.893L21.2698 102.916C11.3548 92.0638 7.00791 76.537 11.097 61.2765C17.4691 37.4953 41.9133 23.3825 65.6945 29.7546C76.0122 32.5192 84.518 38.693 90.3118 46.7341C91.6032 48.5265 91.1972 51.0264 89.4048 52.3178C87.6125 53.6092 85.1126 53.2032 83.8212 51.4108C79.0656 44.8107 72.0965 39.7522 63.6239 37.482Z" fill="var(--spectrum-global-color-gray-800, #292929)"/>
<path fill-rule="evenodd" d="M145.287 21.1226C147.181 12.6854 137.066 6.83683 130.703 12.7023L130.702 12.703L122.872 19.9193L122.87 19.9204C122.674 20.1015 122.398 20.1746 122.141 20.1163L122.135 20.115L111.743 17.7775L111.741 17.7772C103.304 15.8827 97.4555 25.9979 103.321 32.3608L103.322 32.3615L110.538 40.1923L110.539 40.1935C110.72 40.3898 110.793 40.6662 110.735 40.9232L110.734 40.9293L108.396 51.3211L108.396 51.3225C106.501 59.7598 116.617 65.6083 122.979 59.7428L122.98 59.7421L130.811 52.5258L130.812 52.5247C131.009 52.3436 131.285 52.2706 131.542 52.3288L131.548 52.3302L141.94 54.6676L141.941 54.6679C150.378 56.5624 156.227 46.4472 150.362 40.0843L150.361 40.0836L143.144 32.2528L143.143 32.2516C142.962 32.0553 142.889 31.779 142.947 31.5219L142.949 31.5159L145.286 21.1241L145.287 21.1226ZM136.125 18.5845C136.334 18.3924 136.488 18.3574 136.59 18.3492C136.725 18.3384 136.906 18.37 137.091 18.4767C137.275 18.5834 137.394 18.7247 137.452 18.8473C137.496 18.9407 137.543 19.092 137.481 19.3685L137.481 19.3687L137.481 19.3699L135.145 29.7542L135.145 29.7572C134.505 32.5837 135.3 35.5471 137.263 37.6754L144.479 45.5057L144.479 45.5064C144.671 45.7148 144.706 45.8689 144.715 45.9713C144.725 46.106 144.694 46.2871 144.587 46.4719C144.48 46.6567 144.339 46.775 144.217 46.8333C144.123 46.8777 143.972 46.9244 143.695 46.8626L143.695 46.8624L143.694 46.8623L133.31 44.5266L133.307 44.5259C130.481 43.8866 127.518 44.6807 125.39 46.6429L125.388 46.644L117.558 53.8599L117.557 53.8606C117.349 54.0527 117.195 54.0877 117.092 54.0959C116.958 54.1067 116.777 54.0751 116.592 53.9684C116.407 53.8617 116.289 53.7204 116.231 53.5978C116.186 53.5043 116.139 53.3526 116.202 53.0752L118.537 42.6909L118.538 42.6871C119.177 39.8614 118.383 36.8989 116.421 34.771L116.42 34.7698L109.204 26.9394L109.203 26.9387C109.011 26.7303 108.976 26.5763 108.968 26.4738C108.957 26.3392 108.989 26.158 109.095 25.9732C109.202 25.7884 109.343 25.6702 109.466 25.6119C109.559 25.5675 109.711 25.5207 109.987 25.5825L109.988 25.5827L109.989 25.5829L120.373 27.9186L120.376 27.9194C123.202 28.5584 126.165 27.7642 128.293 25.8023L128.294 25.8012L136.124 18.5852L136.125 18.5845ZM105.505 78.1437L98.1794 76.4931C97.2095 76.2762 96.2034 76.5473 95.4745 77.216L89.9563 82.3065C87.7816 84.3125 84.3236 82.3125 84.9743 79.4329L86.6249 72.1074C86.8418 71.1375 86.5707 70.1315 85.902 69.4025L80.8115 63.8843C78.8054 61.7096 80.8055 58.2517 83.6851 58.9023L91.0106 60.5529C91.9805 60.7698 92.9865 60.4987 93.7154 59.83L99.2336 54.7395C101.408 52.7335 104.866 54.7335 104.216 57.6131L102.565 64.9386C102.348 65.9085 102.619 66.9145 103.288 67.6435L108.378 73.1617C110.385 75.3364 108.384 78.7943 105.505 78.1437Z" fill="var(--spectrum-global-color-gray-800, #292929)"/>
</g>

</svg>
