<svg width="96" height="96" viewBox="0 0 96 96" xmlns="http://www.w3.org/2000/svg">
<path fill-rule="evenodd" d="M43.097 43.6056C44.2016 43.6031 45.095 42.7056 45.0924 41.601L45.0578 26.5891C45.0553 25.4846 44.1578 24.5912 43.0532 24.5938C41.9487 24.5963 41.0553 25.4938 41.0578 26.5984L41.0813 36.8026C37.122 32.2082 31.2565 29.2949 24.7101 29.2949C12.7793 29.295 3.10742 38.9668 3.10742 50.8977C3.10742 62.8285 12.7793 72.5004 24.7101 72.5004C29.6596 72.5004 34.2254 70.8334 37.8689 68.0314C37.9211 67.9912 37.9708 67.949 38.018 67.9049C38.0457 67.8853 38.073 67.865 38.0999 67.8438C40.7879 65.7334 43.3059 62.6552 45.2857 59.8175C47.2732 56.969 48.8247 54.2082 49.5453 52.6179C50.1189 51.352 51.5385 48.3446 53.4181 45.184C55.0358 42.4636 56.8986 39.796 58.7626 37.9909C58.8145 37.9522 58.865 37.9107 58.9139 37.8662C62.0412 35.0244 66.1902 33.295 70.7478 33.295C80.4696 33.295 88.3505 41.1759 88.3505 50.8977C88.3505 60.6194 80.4696 68.5004 70.7478 68.5004C64.8026 68.5004 59.5452 65.5549 56.3551 61.0347C55.7182 60.1323 54.4702 59.917 53.5678 60.5539C52.6653 61.1908 52.4501 62.4387 53.087 63.3412C56.9944 68.8777 63.448 72.5004 70.7478 72.5004C82.6787 72.5004 92.3505 62.8285 92.3505 50.8977C92.3505 38.9668 82.6787 29.295 70.7478 29.295C65.7936 29.295 61.2256 30.9648 57.5813 33.7699C57.4852 33.8227 57.3922 33.884 57.3032 33.9542C54.4955 36.1684 51.9311 39.8587 49.98 43.1395C47.996 46.4759 46.5077 49.6299 45.9019 50.9669C45.3049 52.2843 43.8876 54.831 42.0053 57.5287C40.1154 60.2374 37.8628 62.9444 35.6298 64.6976C35.5833 64.7341 35.5389 64.7722 35.4966 64.8118C35.4743 64.8276 35.4523 64.8438 35.4305 64.8606C32.4616 67.1438 28.7471 68.5004 24.7101 68.5004C14.9884 68.5004 7.10742 60.6194 7.10742 50.8977C7.10742 41.1759 14.9884 33.2949 24.7101 33.2949C30.1377 33.2949 34.9923 35.75 38.2237 39.6168L28.0759 39.6402C26.9714 39.6428 26.078 40.5402 26.0806 41.6448C26.0831 42.7494 26.9806 43.6427 28.0852 43.6402L43.097 43.6056Z" fill="var(--spectrum-global-color-gray-800, #292929)"/>
</svg>
