<svg width="160" height="160" viewBox="0 0 160 160" xmlns="http://www.w3.org/2000/svg">
<path fill-rule="evenodd" d="M80.0001 20.74C59.5722 20.74 42.9853 37.2393 42.9853 57.6253C42.9853 57.6506 42.9854 57.6743 42.9857 57.6959C42.9854 57.7171 42.9853 57.7384 42.9853 57.7597V68.1279C42.5802 80.469 37.3263 91.7412 32.0346 100.027C26.5806 108.566 32.693 119.74 42.845 119.74H64.0002V122.74C64.0002 131.577 71.1636 138.74 80.0002 138.74C88.8367 138.74 96.0002 131.577 96.0002 122.74V119.74H117.155C127.307 119.74 133.42 108.566 127.966 100.027C122.674 91.7412 117.42 80.469 117.015 68.1279V57.7597C117.015 57.7384 117.015 57.7171 117.015 57.6959C117.015 57.6743 117.015 57.6506 117.015 57.6253C117.015 37.2393 100.428 20.74 80.0001 20.74ZM88.0002 119.74H72.0002V122.74C72.0002 127.158 75.5819 130.74 80.0002 130.74C84.4184 130.74 88.0002 127.158 88.0002 122.74V119.74ZM50.9853 68.1922V57.925C50.9877 57.8648 50.9889 57.8045 50.9886 57.744C50.9884 57.6882 50.9873 57.6411 50.9863 57.6085L50.9853 57.576C51.012 41.6605 63.9773 28.74 80.0001 28.74C96.0229 28.74 108.988 41.6604 109.015 57.5758L109.014 57.6084C109.013 57.641 109.012 57.6881 109.012 57.744C109.011 57.8046 109.013 57.865 109.015 57.9253V68.1922C109.015 68.2184 109.015 68.2445 109.016 68.2707C109.016 68.2865 109.017 68.3024 109.017 68.3182C109.47 82.7027 115.535 95.4253 121.223 104.333C123.276 107.547 120.989 111.74 117.155 111.74H42.845C39.0114 111.74 36.724 107.547 38.7768 104.333C44.4658 95.4253 50.5301 82.7027 50.9833 68.3182C50.9846 68.2762 50.9853 68.2342 50.9853 68.1922Z" fill="var(--spectrum-global-color-gray-800, #292929)"/>
</svg>
