<svg width="96" height="96" viewBox="0 0 96 96" xmlns="http://www.w3.org/2000/svg">
<path fill-rule="evenodd" d="M45.25 25.3672C45.25 17.2206 51.8534 10.6172 60 10.6172C68.1466 10.6172 74.75 17.2206 74.75 25.3672C74.75 33.5138 68.1466 40.1172 60 40.1172C51.8534 40.1172 45.25 33.5138 45.25 25.3672ZM66.2928 31.66C67.0744 30.8784 67.0744 29.6058 66.2928 28.8242H66.3128L62.8558 25.3672L66.3128 21.9102C67.0944 21.1286 67.0944 19.856 66.3128 19.0744C65.5313 18.2928 64.2587 18.2928 63.4771 19.0744L60.02 22.5314L56.563 19.0744C55.7814 18.2928 54.5088 18.2928 53.7272 19.0744C52.9457 19.856 52.9457 21.1286 53.7272 21.9102L57.1843 25.3672L53.7272 28.8242C52.9457 29.6058 52.9457 30.8784 53.7272 31.66C54.118 32.0508 54.6291 32.2512 55.1401 32.2512C55.6512 32.2512 56.1622 32.0508 56.553 31.66L60.01 28.203L63.4671 31.66C63.8578 32.0508 64.3689 32.2512 64.8799 32.2512C65.391 32.2512 65.902 32.0508 66.2928 31.66ZM10 26.6109C10 22.0273 13.7829 18.3828 18.3603 18.3828H40.625C41.7296 18.3828 42.625 19.2782 42.625 20.3828C42.625 21.4874 41.7296 22.3828 40.625 22.3828H18.3603C15.9124 22.3828 14 24.3152 14 26.6109V48.7131C14 51.0088 15.9124 52.9412 18.3603 52.9412H24.0561C25.1574 52.9412 26.0514 53.8315 26.0561 54.9328C26.0686 57.8843 26.045 62.1006 26.0212 65.3035C26.0211 65.3169 26.0222 65.3245 26.0228 65.3277C26.0263 65.3322 26.0416 65.3497 26.0759 65.3652C26.1125 65.3816 26.1459 65.3845 26.1667 65.382C26.176 65.381 26.1838 65.3788 26.1918 65.3754C26.1991 65.3722 26.214 65.3648 26.2357 65.3463L40.2888 53.4165C40.6503 53.1097 41.109 52.9412 41.5832 52.9412H58.6397C61.0876 52.9412 63 51.0088 63 48.7131V44.6953C63 43.5907 63.8954 42.6953 65 42.6953C66.1046 42.6953 67 43.5907 67 44.6953V48.7131C67 53.2968 63.2171 56.9412 58.6397 56.9412H42.3176L28.8244 68.3957C26.208 70.6168 21.9947 68.8577 22.0213 65.2737C22.0401 62.7439 22.0587 59.5948 22.0595 56.9412H18.3603C13.7829 56.9412 10 53.2968 10 48.7131V26.6109ZM70 41.3828C70 40.2782 70.8954 39.3828 72 39.3828H78.3597C82.5541 39.3828 86 42.745 86 46.9484V66.6992C86 70.9026 82.5541 74.2648 78.3597 74.2648H75.3058C75.3075 76.5894 75.3234 79.3032 75.3396 81.4966C75.3644 84.8638 71.4103 86.5687 68.928 84.4453L57.0272 74.2648H42.6403C38.9954 74.2648 35.9251 71.7322 35.1743 68.3116C34.9375 67.2327 35.6202 66.1661 36.699 65.9293C37.7779 65.6925 38.8445 66.3752 39.0813 67.4541C39.4302 69.0438 40.8783 70.2648 42.6403 70.2648H57.7659C58.2426 70.2648 58.7037 70.4351 59.066 70.745L71.3377 81.2427C71.3173 78.4189 71.298 74.809 71.3087 72.2564C71.3134 71.1551 72.2074 70.2648 73.3087 70.2648H78.3597C80.3954 70.2648 82 68.6434 82 66.6992V46.9484C82 45.0042 80.3954 43.3828 78.3597 43.3828H72C70.8954 43.3828 70 42.4874 70 41.3828Z" fill="var(--spectrum-global-color-gray-800, #292929)"/>
</svg>
