<svg width="48" height="48" viewBox="0 0 48 48" xmlns="http://www.w3.org/2000/svg">
<path fill-rule="evenodd" d="M15.1905 7.83398C12.5853 7.83398 10.4492 9.92589 10.4492 12.536V35.5497C10.4492 38.1599 12.5853 40.2518 15.1905 40.2518H33.8107C36.4159 40.2518 38.552 38.1599 38.552 35.5497V22.0207C38.552 20.7691 38.049 19.5716 37.1583 18.6909L27.5658 9.20621C26.6756 8.32599 25.4712 7.83398 24.2182 7.83398H15.1905ZM12.9492 12.536C12.9492 11.3332 13.9393 10.334 15.1905 10.334H24.2182C24.8172 10.334 25.3888 10.5694 25.808 10.9839L35.4005 20.4686C35.8193 20.8827 36.052 21.4413 36.052 22.0207V35.5497C36.052 36.7526 35.0619 37.7518 33.8107 37.7518H15.1905C13.9393 37.7518 12.9492 36.7526 12.9492 35.5497V12.536ZM29.0687 24.7621C27.7977 24.7621 26.7674 23.7317 26.7674 22.4607C26.7674 21.1897 27.7977 20.1594 29.0687 20.1594C30.3398 20.1594 31.3701 21.1897 31.3701 22.4607C31.3701 23.7317 30.3398 24.7621 29.0687 24.7621ZM19.7748 25.3597C20.5327 24.0469 22.4275 24.0469 23.1855 25.3597L25.9049 30.0699L27.2542 27.733C28.0121 26.4202 29.907 26.4202 30.6649 27.733L33.5299 32.6953C34.2879 34.0081 33.3404 35.6491 31.8246 35.6491H24.8684H17.2449C15.729 35.6491 14.7816 34.0081 15.5395 32.6953L19.7748 25.3597ZM24.4649 32.5757L21.4801 27.4059L18.1643 33.1491H24.14L24.4649 32.5757ZM30.9052 33.1491L28.9596 29.7792L27.014 33.1491H30.9052Z" fill="var(--spectrum-global-color-gray-800, #292929)"/>
</svg>
