<svg width="160" height="160" viewBox="0 0 160 160" xmlns="http://www.w3.org/2000/svg">
<path fill-rule="evenodd" d="M87.3054 23.2532C82.7195 20.8997 77.2806 20.8997 72.6947 23.2532L30.1351 45.0948C24.7971 47.8342 21.4404 53.3298 21.4404 59.3296V100.67C21.4404 106.67 24.7971 112.166 30.1351 114.905L72.6947 136.747C77.2806 139.1 82.7195 139.1 87.3054 136.747L129.865 114.905C135.203 112.166 138.56 106.67 138.56 100.67V59.3296C138.56 53.3298 135.203 47.8342 129.865 45.0947L87.3054 23.2532ZM76.3474 30.3706C78.6403 29.1939 81.3597 29.1939 83.6527 30.3706L126.212 52.2122C128.881 53.5819 130.56 56.3297 130.56 59.3296V100.67C130.56 103.67 128.881 106.418 126.212 107.788L83.6527 129.629C81.3597 130.806 78.6403 130.806 76.3474 129.629L33.7878 107.788C31.1188 106.418 29.4404 103.67 29.4404 100.67V59.3296C29.4404 56.3297 31.1188 53.5819 33.7878 52.2122L76.3474 30.3706ZM84.1088 61.8121C87.2037 56.5632 94.7963 56.5631 97.8913 61.8121L111.674 85.1867C114.818 90.5197 110.974 97.25 104.783 97.25H77.2175C71.0265 97.25 67.1818 90.5197 70.3263 85.1867L84.1088 61.8121ZM104.783 89.25L91 65.8754L77.2175 89.25H104.783ZM68.0069 64.5399C69.9179 65.6483 70.5685 68.0959 69.4602 70.0069L54.9602 95.0069C53.8518 96.9179 51.4041 97.5685 49.4932 96.4602C47.5822 95.3518 46.9315 92.9041 48.0399 90.9932L62.5399 65.9932C63.6483 64.0822 66.0959 63.4316 68.0069 64.5399Z" fill="var(--spectrum-global-color-gray-800, #292929)"/>
</svg>
