<svg width="48" height="48" viewBox="0 0 48 48" xmlns="http://www.w3.org/2000/svg">
<path fill-rule="evenodd" d="M12 13C12 11.2051 13.4551 9.75 15.25 9.75H18.75C20.5449 9.75 22 11.2051 22 13V35C22 36.7949 20.5449 38.25 18.75 38.25H15.25C13.4551 38.25 12 36.7949 12 35V13ZM15.25 12.25C14.8358 12.25 14.5 12.5858 14.5 13V35C14.5 35.4142 14.8358 35.75 15.25 35.75H18.75C19.1642 35.75 19.5 35.4142 19.5 35V13C19.5 12.5858 19.1642 12.25 18.75 12.25H15.25ZM26 13C26 11.2051 27.4551 9.75 29.25 9.75H32.75C34.5449 9.75 36 11.2051 36 13V35C36 36.7949 34.5449 38.25 32.75 38.25H29.25C27.4551 38.25 26 36.7949 26 35V13ZM29.25 12.25C28.8358 12.25 28.5 12.5858 28.5 13V35C28.5 35.4142 28.8358 35.75 29.25 35.75H32.75C33.1642 35.75 33.5 35.4142 33.5 35V13C33.5 12.5858 33.1642 12.25 32.75 12.25H29.25Z" fill="var(--spectrum-global-color-gray-800, #292929)"/>
</svg>
