<svg width="160" height="160" viewBox="0 0 160 160" xmlns="http://www.w3.org/2000/svg">
<path fill-rule="evenodd" d="M134.826 20.3315C137.693 22.0591 139.578 25.5439 138.728 29.495L138.727 29.4964L136.632 39.2175L136.631 39.2234C136.582 39.4454 136.654 39.6567 136.756 39.7719L136.757 39.7731L143.226 47.0984L143.227 47.0992C145.921 50.1491 145.881 54.1259 144.294 56.9944C142.697 59.8812 139.273 62.054 135.19 61.0972L135.188 61.0969L125.872 58.9103L125.866 58.9089C125.845 58.9039 125.823 58.9035 125.795 58.9112C125.767 58.919 125.727 58.9375 125.682 58.9803L125.681 58.9814L118.661 65.732L118.66 65.7327C115.662 68.6165 111.629 68.6099 108.734 66.8659C105.867 65.1384 103.982 61.6535 104.832 57.7025L104.833 57.7011L106.928 47.9799L106.929 47.9741C106.978 47.752 106.906 47.5407 106.804 47.4255L106.803 47.4243L100.334 40.099L100.333 40.0982C97.6389 37.0483 97.6784 33.0715 99.2657 30.203C100.863 27.3162 104.287 25.1435 108.37 26.1002L108.371 26.1005L117.688 28.2871L117.694 28.2886C117.715 28.2936 117.737 28.2939 117.765 28.2863C117.793 28.2784 117.833 28.26 117.878 28.2172L117.879 28.216L124.899 21.4655L124.9 21.4648C127.898 18.5809 131.931 18.5875 134.826 20.3315ZM130.57 27.1354C130.563 27.1386 130.519 27.1597 130.445 27.2305L130.445 27.2312L123.425 33.9814L123.424 33.9825C121.425 35.905 118.591 36.72 115.857 36.0748L115.853 36.074L106.545 33.8893L106.545 33.8892C106.504 33.8797 106.477 33.8769 106.463 33.8761C106.452 33.8755 106.446 33.8757 106.443 33.876L106.441 33.8767C106.425 33.8845 106.343 33.9356 106.266 34.0764C106.188 34.2163 106.162 34.3619 106.17 34.4717C106.177 34.5521 106.201 34.6571 106.329 34.8019L106.33 34.8026L112.798 42.1275L112.799 42.1287C114.619 44.1879 115.325 47.0063 114.748 49.6681L114.747 49.6715L112.653 59.3854C112.602 59.6256 112.644 59.7449 112.669 59.8008C112.706 59.8811 112.774 59.96 112.863 60.0136C112.93 60.0544 112.976 60.0609 112.99 60.0621C112.997 60.0588 113.041 60.0377 113.115 59.9669L113.115 59.9662L120.135 53.216L120.136 53.215L120.136 53.2149C122.135 51.2924 124.969 50.4774 127.703 51.1227L127.707 51.1235L137.015 53.3082L137.015 53.3083C137.056 53.3177 137.083 53.3205 137.097 53.3213C137.102 53.3216 137.106 53.3217 137.109 53.3217C137.113 53.3217 137.116 53.3216 137.117 53.3215L137.119 53.3207C137.134 53.3129 137.216 53.2618 137.294 53.121C137.372 52.9811 137.398 52.8355 137.389 52.7257C137.383 52.6453 137.359 52.5403 137.231 52.3956L137.23 52.3948L130.761 45.0699L130.761 45.0695L130.76 45.0687C128.941 43.0098 128.235 40.1916 128.812 37.53L128.813 37.5259L130.907 27.812L130.57 27.1354ZM49.957 40.7776C43.3296 40.7776 37.957 46.1502 37.957 52.7776V112.864C37.957 119.492 43.3296 124.864 49.957 124.864H110.044C116.671 124.864 122.044 119.492 122.044 112.864V82.8209V74.0101C122.044 71.8009 123.834 70.0101 126.044 70.0101C128.253 70.0101 130.044 71.8009 130.044 74.0101V82.8209V112.864C130.044 123.91 121.089 132.864 110.044 132.864H49.957C38.9113 132.864 29.957 123.91 29.957 112.864V52.7776C29.957 41.7319 38.9113 32.7776 49.957 32.7776H87.207C89.4162 32.7776 91.207 34.5685 91.207 36.7776C91.207 38.9868 89.4162 40.7776 87.207 40.7776H49.957ZM102.136 81.5818L95.2883 80.0389C94.3817 79.8362 93.4413 80.0896 92.76 80.7147L87.6019 85.4729C85.5691 87.3481 82.3369 85.4785 82.945 82.7869L84.4879 75.9395C84.6907 75.0329 84.4373 74.0925 83.8122 73.4112L79.054 68.2531C77.1788 66.2203 79.0483 62.988 81.74 63.5962L88.5874 65.1391C89.494 65.3418 90.4344 65.0884 91.1157 64.4634L96.2738 59.7051C98.3066 57.83 101.539 59.6995 100.931 62.3912L99.3878 69.2385C99.185 70.1451 99.4384 71.0855 100.063 71.7669L104.822 76.9249C106.697 78.9578 104.827 82.19 102.136 81.5818Z" fill="var(--spectrum-global-color-gray-800, #292929)"/>
</svg>
