<svg width="48" height="48" viewBox="0 0 48 48" xmlns="http://www.w3.org/2000/svg">
<path fill-rule="evenodd" d="M24 7.99001C15.3015 7.99001 8.25 15.0415 8.25 23.74C8.25 32.4385 15.3015 39.49 24 39.49C32.6985 39.49 39.75 32.4385 39.75 23.74C39.75 15.0415 32.6985 7.99001 24 7.99001ZM5.75 23.74C5.75 13.6608 13.9208 5.49001 24 5.49001C34.0792 5.49001 42.25 13.6608 42.25 23.74C42.25 33.8192 34.0792 41.99 24 41.99C13.9208 41.99 5.75 33.8192 5.75 23.74ZM25.25 23.0183V12.24C25.25 11.5496 24.6904 10.99 24 10.99C23.3096 10.99 22.75 11.5496 22.75 12.24V23.716C22.7491 23.7658 22.7512 23.8155 22.7561 23.8648C22.7741 24.0456 22.8305 24.2151 22.9172 24.365C23.0036 24.515 23.1222 24.6488 23.2699 24.7548C23.3102 24.7838 23.3522 24.8104 23.3958 24.8345L29.8043 28.5345C30.4022 28.8797 31.1666 28.6748 31.5118 28.077C31.857 27.4791 31.6522 26.7146 31.0543 26.3694L25.25 23.0183Z" fill="var(--spectrum-global-color-gray-800, #292929)"/>
</svg>
