<svg width="160" height="160" viewBox="0 0 160 160" xmlns="http://www.w3.org/2000/svg">
<path fill-rule="evenodd" d="M80 28C51.2812 28 28 51.2812 28 80C28 108.719 51.2812 132 80 132C108.719 132 132 108.719 132 80C132 51.2812 108.719 28 80 28ZM20 80C20 46.8629 46.8629 20 80 20C113.137 20 140 46.8629 140 80C140 113.137 113.137 140 80 140C46.8629 140 20 113.137 20 80ZM61.1716 61.1716C62.7337 59.6095 65.2663 59.6095 66.8284 61.1716L80.4617 74.8048L94.0949 61.1716C95.657 59.6095 98.1896 59.6095 99.7517 61.1716C101.314 62.7337 101.314 65.2663 99.7517 66.8284L86.1185 80.4617L99.7517 94.0949C101.314 95.657 101.314 98.1896 99.7517 99.7517C98.1896 101.314 95.657 101.314 94.0949 99.7517L80.4617 86.1185L66.8284 99.7517C65.2663 101.314 62.7337 101.314 61.1716 99.7517C59.6095 98.1896 59.6095 95.657 61.1716 94.0949L74.8048 80.4617L61.1716 66.8284C59.6095 65.2663 59.6095 62.7337 61.1716 61.1716Z" fill="var(--spectrum-global-color-gray-800, #292929)"/>
</svg>
