<svg width="48" height="48" viewBox="0 0 48 48" xmlns="http://www.w3.org/2000/svg">
<path fill-rule="evenodd" d="M12.957 9.10938C12.957 8.41902 12.3974 7.85938 11.707 7.85938C11.0167 7.85938 10.457 8.41902 10.457 9.10938V38.8906C10.457 39.581 11.0167 40.1406 11.707 40.1406C12.3974 40.1406 12.957 39.581 12.957 38.8906L12.957 31.2505H33.293C35.6402 31.2505 37.543 29.3477 37.543 27.0005V14.0215C37.543 11.6743 35.6402 9.77148 33.293 9.77148H12.957V9.10938ZM12.957 12.2715L12.957 28.7505H33.293C34.2595 28.7505 35.043 27.967 35.043 27.0005V14.0215C35.043 13.055 34.2595 12.2715 33.293 12.2715H12.957ZM20.017 16.3993C20.5052 15.9112 21.2966 15.9112 21.7848 16.3993L24.1288 18.7433L26.4728 16.3993C26.961 15.9112 27.7524 15.9112 28.2406 16.3993C28.7287 16.8875 28.7287 17.6789 28.2406 18.1671L25.8966 20.5111L28.2406 22.8551C28.7287 23.3433 28.7287 24.1347 28.2406 24.6229C27.7524 25.1111 26.961 25.1111 26.4728 24.6229L24.1288 22.2789L21.7848 24.6229C21.2966 25.1111 20.5052 25.1111 20.017 24.6229C19.5288 24.1347 19.5288 23.3433 20.017 22.8551L22.361 20.5111L20.017 18.1671C19.5288 17.6789 19.5288 16.8875 20.017 16.3993Z" fill="var(--spectrum-global-color-gray-800, #292929)"/>
</svg>
