<svg width="160" height="160" viewBox="0 0 160 160" xmlns="http://www.w3.org/2000/svg">
<path fill-rule="evenodd" d="M104.458 34.12C108.495 34.12 111.768 30.8472 111.768 26.81C111.768 22.7728 108.495 19.5 104.458 19.5C100.421 19.5 97.1478 22.7728 97.1478 26.81C97.1478 30.8472 100.421 34.12 104.458 34.12ZM86.2054 41.3498C88.4035 41.5698 90.0072 43.5301 89.7872 45.7283C88.5771 57.8199 82.0012 69.901 71.2918 77.3533C69.4785 78.6151 66.9856 78.168 65.7238 76.3547C64.462 74.5414 64.909 72.0485 66.7223 70.7867C75.4133 64.7389 80.8374 54.82 81.8269 44.9317C82.0469 42.7335 84.0072 41.1299 86.2054 41.3498ZM98.7486 92.466C100.631 91.3098 103.094 91.8986 104.251 93.781C106.787 97.9105 108.665 101.902 109.513 105.402C110.301 108.658 110.49 112.821 107.612 115.699C107.506 115.805 107.398 115.907 107.289 116.004C106.856 116.515 106.288 116.924 105.614 117.171L105.394 117.251C104.958 117.455 104.51 117.616 104.054 117.741L35.8331 142.7C25.8433 146.355 16.1445 136.656 19.7993 126.667L44.7583 58.4452C44.8836 57.9899 45.0451 57.5415 45.2485 57.1054L45.3289 56.8856C45.5755 56.2116 45.9844 55.6441 46.4952 55.2109C46.5929 55.1015 46.6947 54.9937 46.8007 54.8877C49.6253 52.0632 53.6896 52.1968 56.8877 52.9374C60.3102 53.7301 64.204 55.5236 68.2297 57.9515C70.1214 59.0924 70.7301 61.5509 69.5891 63.4426C68.4482 65.3343 65.9898 65.943 64.0981 64.802C60.4329 62.5915 57.3563 61.2577 55.0827 60.7311C53.4703 60.3577 52.7496 60.4847 52.5033 60.5596L52.431 60.7574C52.3808 61.0394 52.352 61.5645 52.5023 62.4628C52.8013 64.2513 53.7079 66.7316 55.3468 69.7871C58.5997 75.8517 64.2948 83.3688 71.7128 90.7868C79.1309 98.2049 86.6479 103.9 92.7125 107.153C95.7681 108.792 98.2484 109.698 100.037 109.997C100.935 110.148 101.46 110.119 101.742 110.069L101.939 109.997C102.016 109.745 102.15 108.991 101.737 107.285C101.166 104.924 99.7505 101.74 97.4336 97.9679C96.2774 96.0854 96.8662 93.6222 98.7486 92.466ZM88.9312 114.203C89.1376 114.313 89.3437 114.422 89.5495 114.529L33.0845 135.187C29.4882 136.503 25.9966 133.012 27.3123 129.415L47.9702 72.9502C48.0772 73.1559 48.1861 73.362 48.2969 73.5685C52.013 80.4968 58.2436 88.6313 66.056 96.4437C73.8684 104.256 82.0028 110.487 88.9312 114.203ZM95.626 72.4783C97.1881 70.9162 97.1881 68.3836 95.626 66.8215C94.064 65.2594 91.5313 65.2594 89.9692 66.8215L74.3692 82.4215C72.8071 83.9836 72.8071 86.5162 74.3692 88.0783C75.9313 89.6404 78.4639 89.6404 80.026 88.0783L95.626 72.4783ZM116.91 72.8543C119.1 72.5654 121.11 74.1066 121.399 76.2968C121.688 78.4869 120.146 80.4967 117.956 80.7856C108.104 82.0854 98.3603 87.8184 92.5886 96.6952C91.3844 98.5472 88.9068 99.0724 87.0547 97.8682C85.2027 96.664 84.6775 94.1864 85.8817 92.3343C92.9938 81.396 104.862 74.4437 116.91 72.8543ZM137.228 97.16C137.228 101.197 133.955 104.47 129.918 104.47C125.881 104.47 122.608 101.197 122.608 97.16C122.608 93.1228 125.881 89.85 129.918 89.85C133.955 89.85 137.228 93.1228 137.228 97.16ZM69.4616 39.5718L61.6479 28.8957C60.3432 27.113 57.8404 26.7255 56.0577 28.0303L54.1371 29.4359C52.3544 30.7406 51.967 33.2435 53.2717 35.0262L61.0854 45.7023C62.3901 47.4849 64.893 47.8724 66.6757 46.5677L68.5962 45.162C70.3789 43.8573 70.7664 41.3545 69.4616 39.5718ZM106.937 54.6615L120.083 53.173C122.278 52.9245 124.259 54.5025 124.508 56.6976L124.775 59.0625C125.024 61.2576 123.446 63.2386 121.251 63.4871L108.105 64.9756C105.91 65.2242 103.929 63.6462 103.68 61.4511L103.412 59.0862C103.164 56.8911 104.742 54.9101 106.937 54.6615Z" fill="var(--spectrum-global-color-gray-800, #292929)"/>
</svg>
