<svg width="48" height="48" viewBox="0 0 48 48" xmlns="http://www.w3.org/2000/svg">
<path fill-rule="evenodd" d="M10.4102 15.1799C10.4102 12.5603 12.5405 10.4299 15.1602 10.4299H28.8302C29.5205 10.4299 30.0802 9.87029 30.0802 9.17993C30.0802 8.48958 29.5205 7.92993 28.8302 7.92993H15.1602C11.1598 7.92993 7.91016 11.1796 7.91016 15.1799V28.8499C7.91016 29.5403 8.4698 30.0999 9.16016 30.0999C9.85051 30.0999 10.4102 29.5403 10.4102 28.8499V15.1799ZM17.1602 14.3999C15.6414 14.3999 14.4102 15.6311 14.4102 17.1499V34.8199C14.4102 36.3387 15.6414 37.5699 17.1602 37.5699H34.8302C36.3489 37.5699 37.5802 36.3387 37.5802 34.8199V17.1499C37.5802 15.6311 36.3489 14.3999 34.8302 14.3999H34.4491V25.1099C34.4491 25.5099 33.9991 25.7499 33.6691 25.5299L31.2691 23.9299C31.1091 23.8199 30.8891 23.8199 30.7191 23.9299L28.3191 25.5299C27.9891 25.7499 27.5391 25.5099 27.5391 25.1099V14.3999H17.1602ZM11.9102 17.1499C11.9102 14.2504 14.2607 11.8999 17.1602 11.8999H34.8302C37.7297 11.8999 40.0802 14.2504 40.0802 17.1499V34.8199C40.0802 37.7194 37.7297 40.0699 34.8302 40.0699H17.1602C14.2607 40.0699 11.9102 37.7194 11.9102 34.8199V17.1499Z" fill="var(--spectrum-global-color-gray-800, #292929)"/>
</svg>
