<svg width="96" height="96" viewBox="0 0 96 96" xmlns="http://www.w3.org/2000/svg">
<path fill-rule="evenodd" d="M48.0253 12.4004C42.8756 12.3942 39.0089 16.5784 39.0029 21.5894L39.0024 21.9895L36.0138 21.9861C35.9316 21.986 35.8505 21.9908 35.7709 22.0004H28.4455C23.2083 22.0004 19 26.2865 19 31.5276L19 70.4731C19 75.7142 23.2083 80.0004 28.4455 80.0004H67.6545C72.8917 80.0004 77.1 75.7142 77.1 70.4731L77.1 31.5276C77.1 26.2865 72.8917 22.0004 67.6546 22.0004H56.9995L57 21.6114C57.006 16.6104 53.1848 12.4066 48.0253 12.4004ZM62.0089 26.0004L62 33.0029C61.9986 34.1074 61.1021 35.0017 59.9976 35.0004L35.9976 34.9717C35.4671 34.971 34.9587 34.7597 34.584 34.3841C34.2094 34.0086 33.9993 33.4996 34 32.9691L34.0089 26.0004H28.4455C25.4586 26.0004 23 28.4543 23 31.5276L23 70.4731C23 73.5464 25.4586 76.0004 28.4455 76.0004H67.6545C70.6414 76.0004 73.1 73.5464 73.1 70.4731L73.1 31.5276C73.1 28.4543 70.6414 26.0004 67.6546 26.0004H62.0089ZM38.0089 26.0004L38.0026 30.9741L58.0026 30.998L58.0089 26.0124L54.9948 26.009C54.4644 26.0084 53.9559 25.7971 53.5813 25.4216C53.2066 25.046 52.9965 24.5371 52.9971 24.0066L53 21.6066C53.0035 18.6546 50.814 16.4037 48.0205 16.4004C45.2174 16.397 43.0064 18.6523 43.0029 21.5942L43 23.9942C42.9987 25.0987 42.1022 25.9931 40.9977 25.9918L39.7341 25.9903V26.0004H38.0089Z" fill="var(--spectrum-global-color-gray-800, #292929)"/>
</svg>
