<svg width="96" height="96" viewBox="0 0 96 96" xmlns="http://www.w3.org/2000/svg">
<path fill-rule="evenodd" d="M82.1992 28C82.1992 24.6863 79.5129 22 76.1992 22H18.9992C15.6855 22 12.9992 24.6863 12.9992 28V67.2C12.9992 67.8784 13.1118 68.5305 13.3193 69.1387L29.3622 44.3537L29.3627 44.3529C31.8242 40.5471 37.3995 40.5471 39.8611 44.3528L39.8617 44.3537L52.5636 63.9739L59.8864 52.9024L59.8948 52.8898C62.3725 49.2044 67.8013 49.1972 70.2767 52.8896L70.279 52.893L81.6428 69.7269C81.9999 68.9589 82.1992 68.1027 82.1992 67.2V28ZM32.7206 46.5264L15.9815 72.387C16.868 72.9039 17.899 73.2 18.9992 73.2H46.4615L50.1556 67.6147L36.5033 46.5266L36.5027 46.5256C35.6172 45.1562 33.6066 45.1562 32.7212 46.5256L32.7206 46.5264ZM78.7712 72.6223C77.9917 72.9927 77.1197 73.2 76.1992 73.2H51.2572L63.2179 55.1162C64.1163 53.7877 66.0695 53.7955 66.9551 55.1183L66.9594 55.1247L78.7712 72.6223ZM76.1992 18C81.7221 18 86.1992 22.4772 86.1992 28V67.2C86.1992 72.7229 81.7221 77.2 76.1992 77.2H18.9992C13.4764 77.2 8.99921 72.7228 8.99921 67.2V28C8.99921 22.4772 13.4764 18 18.9992 18H76.1992ZM65.499 33C65.499 35.7614 67.7376 38 70.499 38C73.2604 38 75.499 35.7614 75.499 33C75.499 30.2386 73.2604 28 70.499 28C67.7376 28 65.499 30.2386 65.499 33Z" fill="var(--spectrum-global-color-gray-800, #292929)"/>
</svg>
