<svg width="48" height="48" viewBox="0 0 48 48" xmlns="http://www.w3.org/2000/svg">
<path fill-rule="evenodd" d="M5.36612 15.1339C4.87796 14.6457 4.87796 13.8543 5.36612 13.3661L12.3661 6.36612C12.8543 5.87796 13.6457 5.87796 14.1339 6.36612C14.622 6.85427 14.622 7.64573 14.1339 8.13388L9.26772 13L40.3501 13C41.0405 13 41.6001 13.5597 41.6001 14.25C41.6001 14.9404 41.0405 15.5 40.3501 15.5L9.26781 15.5L14.1339 20.3661C14.622 20.8543 14.622 21.6457 14.1339 22.1339C13.6457 22.622 12.8543 22.622 12.3661 22.1339L5.36612 15.1339ZM35.1339 25.3661L42.1339 32.3661C42.622 32.8543 42.622 33.6457 42.1339 34.1339L35.1339 41.1339C34.6457 41.622 33.8543 41.622 33.3661 41.1339C32.878 40.6457 32.878 39.8543 33.3661 39.3661L38.2321 34.5002H7.25C6.55964 34.5002 6 33.9405 6 33.2502C6 32.5598 6.55964 32.0002 7.25 32.0002H38.2324L33.3661 27.1339C32.878 26.6457 32.878 25.8543 33.3661 25.3661C33.8543 24.878 34.6457 24.878 35.1339 25.3661Z" fill="var(--spectrum-global-color-gray-800, #292929)"/>
</svg>
