<svg width="48" height="48" viewBox="0 0 48 48" xmlns="http://www.w3.org/2000/svg">
<path fill-rule="evenodd" d="M39.9161 10.2519C40.3445 10.7933 40.2528 11.5794 39.7114 12.0077L28.1632 21.1436C27.7764 21.4496 27.2458 21.4996 26.8087 21.2711L19.599 17.5035L9.87303 25.753C9.34655 26.1995 8.55775 26.1347 8.1112 25.6082C7.66465 25.0818 7.72944 24.293 8.25592 23.8464L18.6236 15.0527C19.0116 14.7236 19.5603 14.6625 20.0111 14.8981L27.248 18.6799L38.1603 10.0471C38.7017 9.61875 39.4878 9.71043 39.9161 10.2519ZM16.4785 26.1836C16.4785 24.3887 17.9336 22.9336 19.7285 22.9336C21.5235 22.9336 22.9785 24.3887 22.9785 26.1836V34.9722C22.9785 36.7671 21.5235 38.2222 19.7285 38.2222C17.9336 38.2222 16.4785 36.7671 16.4785 34.9722V26.1836ZM19.7285 25.4336C19.3143 25.4336 18.9785 25.7694 18.9785 26.1836V34.9722C18.9785 35.3864 19.3143 35.7222 19.7285 35.7222C20.1428 35.7222 20.4785 35.3864 20.4785 34.9722V26.1836C20.4785 25.7694 20.1428 25.4336 19.7285 25.4336ZM28.3321 24.6446C26.5371 24.6446 25.0821 26.0997 25.0821 27.8946V34.9723C25.0821 36.7672 26.5371 38.2223 28.3321 38.2223C30.127 38.2223 31.5821 36.7672 31.5821 34.9723V27.8946C31.5821 26.0997 30.127 24.6446 28.3321 24.6446ZM27.5821 27.8946C27.5821 27.4804 27.9178 27.1446 28.3321 27.1446C28.7463 27.1446 29.0821 27.4804 29.0821 27.8946V34.9723C29.0821 35.3865 28.7463 35.7223 28.3321 35.7223C27.9178 35.7223 27.5821 35.3865 27.5821 34.9723V27.8946ZM33.6856 21.8731C33.6856 20.0782 35.1406 18.6231 36.9356 18.6231C38.7305 18.6231 40.1856 20.0782 40.1856 21.8731V34.973C40.1856 36.7679 38.7305 38.223 36.9356 38.223C35.1406 38.223 33.6856 36.7679 33.6856 34.973V21.8731ZM36.9356 21.1231C36.5214 21.1231 36.1856 21.4589 36.1856 21.8731V34.973C36.1856 35.3872 36.5214 35.723 36.9356 35.723C37.3498 35.723 37.6856 35.3872 37.6856 34.973V21.8731C37.6856 21.4589 37.3498 21.1231 36.9356 21.1231ZM11.125 28.0333C9.3301 28.0333 7.87503 29.4883 7.87503 31.2833V34.9735C7.87503 36.7684 9.3301 38.2235 11.125 38.2235C12.92 38.2235 14.375 36.7684 14.375 34.9735V31.2833C14.375 29.4883 12.92 28.0333 11.125 28.0333ZM10.375 31.2833C10.375 30.869 10.7108 30.5333 11.125 30.5333C11.5392 30.5333 11.875 30.869 11.875 31.2833V34.9735C11.875 35.3877 11.5392 35.7235 11.125 35.7235C10.7108 35.7235 10.375 35.3877 10.375 34.9735V31.2833Z" fill="var(--spectrum-global-color-gray-800, #292929)"/>
</svg>
