<svg width="96" height="96" viewBox="0 0 96 96" xmlns="http://www.w3.org/2000/svg">
<path fill-rule="evenodd" d="M68.957 17.0233C67.1424 16.0131 64.9344 16.0131 63.1198 17.0233L48.9736 24.899C48.3688 25.2358 47.6328 25.2358 47.0279 24.8991L33.4728 17.3528C31.3059 16.1464 28.5582 16.2655 26.4894 17.4432C24.0861 18.8114 20.2797 20.9094 16.6552 22.8901C14.8323 23.8863 13.8028 25.5967 13.5734 27.3964C13.5306 27.5592 13.5078 27.73 13.5078 27.9062V52.401C13.5078 55.7884 15.2227 58.9455 18.0642 60.7895L46.8824 79.4904C47.5434 79.9194 48.3948 79.9202 49.0566 79.4925L77.9979 60.79C80.8486 58.9478 82.5703 55.7853 82.5703 52.3911V27.9062C82.5703 27.7846 82.5595 27.6655 82.5386 27.5498C82.3638 25.7003 81.3457 23.9205 79.4844 22.8843L68.957 17.0233ZM78.5703 33.8778L49.9711 49.8V74.139L75.8269 57.4304C77.5373 56.3251 78.5703 54.4276 78.5703 52.3911V33.8778ZM45.9711 49.767L17.5078 33.9208V52.401C17.5078 54.4334 18.5367 56.3277 20.2417 57.4341L45.9711 74.1307V49.767ZM65.0656 20.5182C65.6704 20.1814 66.4064 20.1814 67.0113 20.5182L77.5387 26.3792C78.9082 27.1416 78.9082 29.1116 77.5387 29.874L48.0008 46.3188L18.5529 29.9245C17.1764 29.1582 17.1791 27.1621 18.5734 26.4002C22.1979 24.4195 26.0317 22.3065 28.4683 20.9194C29.4098 20.3834 30.6675 20.3691 31.5272 20.8477L45.0823 28.394C46.8968 29.4042 49.1048 29.4041 50.9194 28.3939L65.0656 20.5182Z" fill="var(--spectrum-global-color-gray-800, #292929)"/>
</svg>
