<svg width="160" height="160" viewBox="0 0 160 160" xmlns="http://www.w3.org/2000/svg">
<path fill-rule="evenodd" d="M24 37.2C24 34.3607 26.3312 32 29.28 32H54.9798C56.5971 32 58.1163 32.7292 59.1134 33.9648L69.6322 47H24V37.2ZM16 47V37.2C16 29.8773 21.9784 24 29.28 24H54.9798C59.0007 24 62.814 25.8117 65.3391 28.9408L62.2969 31.3958L65.3391 28.9408L79.9121 47H126.154C136.031 47 144 55.0635 144 64.9412V118.059C144 127.936 136.031 136 126.154 136H33.8462C23.9694 136 16 127.936 16 118.059V55V51V47ZM24 55V118.059C24 123.57 28.4391 128 33.8462 128H126.154C131.561 128 136 123.57 136 118.059V64.9412C136 59.4301 131.561 55 126.154 55H86.3678H78H24Z" fill="var(--spectrum-global-color-gray-800, #292929)"/>
</svg>
