<svg width="48" height="48" viewBox="0 0 48 48" xmlns="http://www.w3.org/2000/svg">
<path fill-rule="evenodd" d="M28.5425 8.01511L28.5427 8.01543L42.4525 32.1151L42.4527 32.1154C44.4721 35.6166 41.9544 39.99 37.9099 39.99H10.0899C6.04535 39.99 3.52767 35.6166 5.54707 32.1154L5.54725 32.1151L19.3812 8.1468C19.4005 8.10208 19.4224 8.05821 19.4471 8.01543C21.468 4.51159 26.5213 4.51148 28.5425 8.01511ZM21.6783 9.1562C22.7772 7.42919 25.3393 7.4653 26.3771 9.2645L26.3773 9.26483L40.2871 33.3645L40.2873 33.3648C41.3475 35.2036 40.0252 37.49 37.9099 37.49H10.0899C7.9745 37.49 6.65222 35.2036 7.71248 33.3648L7.71267 33.3645L21.6225 9.26483C21.643 9.22933 21.6616 9.19307 21.6783 9.1562ZM24.0002 13.99C24.6906 13.99 25.2502 14.5496 25.2502 15.24V26.24C25.2502 26.9304 24.6906 27.49 24.0002 27.49C23.3099 27.49 22.7502 26.9304 22.7502 26.24V15.24C22.7502 14.5496 23.3099 13.99 24.0002 13.99ZM25.7502 31.74C25.7502 32.7065 24.9667 33.49 24.0002 33.49C23.0337 33.49 22.2502 32.7065 22.2502 31.74C22.2502 30.7735 23.0337 29.99 24.0002 29.99C24.9667 29.99 25.7502 30.7735 25.7502 31.74Z" fill="var(--spectrum-global-color-gray-800, #292929)"/>
</svg>
