<svg width="48" height="48" viewBox="0 0 48 48" xmlns="http://www.w3.org/2000/svg">
<path fill-rule="evenodd" d="M8.73285 36.9231C7.26924 34.3946 6.41529 31.4691 6.37107 28.3513C6.36979 28.3281 6.36914 28.3048 6.36914 28.2812C6.36914 28.2672 6.36937 28.2532 6.36983 28.2393C6.36945 28.1917 6.36926 28.144 6.36926 28.0963C6.36926 18.3522 14.2684 10.4531 24.0124 10.4531C28.2205 10.4531 32.0875 11.9279 35.1199 14.3877C35.656 14.8226 35.7381 15.6098 35.3032 16.1459C34.8683 16.6821 34.0811 16.7641 33.5449 16.3292C33.2811 16.1152 33.0099 15.9099 32.7319 15.7137L31.5601 17.7433C31.215 18.3412 30.4505 18.546 29.8526 18.2008C29.2547 17.8557 29.0499 17.0912 29.3951 16.4933L30.5772 14.4458C28.9433 13.6585 27.1464 13.1562 25.2501 13.0029V15.3887C25.2501 16.079 24.6905 16.6387 24.0001 16.6387C23.3098 16.6387 22.7501 16.079 22.7501 15.3887V13.005C20.8708 13.1601 19.0887 13.6584 17.4668 14.437L18.654 16.4933C18.9992 17.0912 18.7943 17.8557 18.1965 18.2008C17.5986 18.546 16.8341 18.3412 16.4889 17.7433L15.3102 15.7017C13.8088 16.7578 12.5079 18.0799 11.476 19.5993L13.4631 20.7466C14.061 21.0918 14.2659 21.8563 13.9207 22.4542C13.5755 23.052 12.811 23.2569 12.2131 22.9117L10.247 21.7765C9.50289 23.3946 9.0357 25.1665 8.90614 27.0312H11.1251C11.8155 27.0312 12.3751 27.5909 12.3751 28.2812C12.3751 28.9716 11.8155 29.5312 11.1251 29.5312H8.93628C9.14495 31.7535 9.8334 33.834 10.8965 35.6707C11.2424 36.2681 11.0384 37.0329 10.4409 37.3787C9.84341 37.7246 9.0787 37.5206 8.73285 36.9231ZM40.7023 22.3616C40.478 21.7087 39.7669 21.3612 39.114 21.5855C38.4611 21.8098 38.1137 22.5209 38.338 23.1739C38.7576 24.3955 39.0256 25.6886 39.1188 27.0312H36.9043C36.2139 27.0312 35.6543 27.5909 35.6543 28.2812C35.6543 28.9716 36.2139 29.5312 36.9043 29.5312H39.0886C38.8799 31.7535 38.1915 33.834 37.1284 35.6707C36.7825 36.2681 36.9865 37.0329 37.584 37.3787C38.1815 37.7246 38.9462 37.5206 39.292 36.9231C40.745 34.413 41.5971 31.5118 41.6527 28.4195C41.6577 28.3741 41.6603 28.328 41.6603 28.2812C41.6603 28.244 41.6587 28.2072 41.6555 28.1709L41.6556 28.0963C41.6556 26.0909 41.3206 24.1612 40.7023 22.3616ZM39.7539 16.1637C39.1683 15.5781 38.2267 15.5534 37.6112 16.1075L22.4164 29.7858C21.2962 30.7941 21.2505 32.5356 22.3162 33.6014C23.382 34.6671 25.1235 34.6214 26.1319 33.5012L39.8101 18.3064C40.3642 17.6909 40.3395 16.7493 39.7539 16.1637Z" fill="var(--spectrum-global-color-gray-800, #292929)"/>
</svg>
