<svg width="160" height="160" viewBox="0 0 160 160" xmlns="http://www.w3.org/2000/svg">
<path fill-rule="evenodd" d="M130.46 79.5758C130.46 82.3272 130.245 85.0284 129.83 87.6633L85.3148 55.5046L109.318 38.0178C109.338 38.0036 109.357 37.9892 109.377 37.9748C122.161 47.3613 130.46 62.4994 130.46 79.5758ZM89.1282 130.134C107.268 126.479 121.962 113.305 127.774 96.0474L105.072 79.6466L89.1282 130.134ZM80.4246 131.129C79.9131 131.144 79.3996 131.152 78.8844 131.152C59.7718 131.152 43.0874 120.755 34.1774 105.31H88.5781L80.4246 131.129ZM27.3086 79.5758C27.3086 85.8069 28.4136 91.78 30.4384 97.3097H57.4635L40.5122 45.113C32.3033 54.2471 27.3086 66.3281 27.3086 79.5758ZM46.9595 39.0655C55.7409 32.1356 66.8297 28 78.8843 28C87.1933 28 95.0433 29.9648 101.995 33.4551L56.0157 66.9513L46.9595 39.0655ZM58.603 74.9182C58.7622 74.8325 58.9176 74.7351 59.0678 74.6256L78.5128 60.4598L98.2406 74.7117L91.1044 97.3097H65.8179C65.7855 97.0946 65.7351 96.8793 65.6656 96.6655L58.603 74.9182ZM78.8844 139.152C111.787 139.152 138.46 112.479 138.46 79.5758C138.46 46.673 111.787 20 78.8843 20C45.9816 20 19.3086 46.673 19.3086 79.5758C19.3086 112.479 45.9816 139.152 78.8844 139.152Z" fill="var(--spectrum-global-color-gray-800, #292929)"/>
</svg>
