<svg width="48" height="48" viewBox="0 0 48 48" xmlns="http://www.w3.org/2000/svg">
<path fill-rule="evenodd" d="M13.7595 10.5C12.5138 10.5 11.5 11.5138 11.5 12.7595V27.2741C11.5 34.05 17.0028 39.5503 23.7761 39.5503C30.552 39.5503 36.0523 34.0475 36.0523 27.2741V12.7595C36.0523 11.5138 35.0385 10.5 33.7928 10.5H13.7595ZM9 12.7595C9 10.1331 11.1331 8 13.7595 8H33.7928C36.4192 8 38.5523 10.1331 38.5523 12.7595V27.2741C38.5523 35.4278 31.9331 42.0503 23.7761 42.0503C15.6225 42.0503 9 35.4311 9 27.2741V12.7595ZM28.7303 18.7177L28.7306 18.7182L32.4065 25.0845L32.4068 25.085C33.3366 26.697 32.1773 28.7143 30.3121 28.7143H22.9597C21.0944 28.7143 19.9352 26.697 20.865 25.085L20.8651 25.0848L24.5383 18.7182L24.5383 18.7181C25.4697 17.1035 27.7987 17.1034 28.7303 18.7177ZM26.6344 20.0876L23.0997 26.2143H30.172L26.6344 20.0876ZM23.0306 26.3341L23.0305 26.3342L22.9597 26.2933L21.9493 25.7104L22.9597 26.2932L23.0306 26.3341ZM20.7091 21.0177C21.0543 20.4199 20.8496 19.6554 20.2518 19.3101C19.6539 18.9649 18.8894 19.1696 18.5442 19.7674L14.4586 26.842C14.1133 27.4398 14.3181 28.2043 14.9159 28.5496C15.5137 28.8948 16.2782 28.6901 16.6235 28.0922L20.7091 21.0177Z" fill="var(--spectrum-global-color-gray-800, #292929)"/>
</svg>
