<svg width="160" height="160" viewBox="0 0 160 160" xmlns="http://www.w3.org/2000/svg">
<path fill-rule="evenodd" d="M24.2109 24C24.2109 21.7909 22.4201 20 20.2109 20C18.0018 20 16.2109 21.7909 16.2109 24V140C16.2109 142.209 18.0018 144 20.2109 144H136.001C138.21 144 140.001 142.209 140.001 140C140.001 137.791 138.21 136 136.001 136H24.2109V24ZM40.001 79.05C40.001 76.8409 41.7918 75.05 44.001 75.05H48.001C50.2101 75.05 52.001 76.8409 52.001 79.05V116C52.001 118.209 50.2101 120 48.001 120H44.001C41.7918 120 40.001 118.209 40.001 116V79.05ZM44.001 67.05C37.3736 67.05 32.001 72.4226 32.001 79.05V116C32.001 122.627 37.3736 128 44.001 128H48.001C54.6284 128 60.001 122.627 60.001 116V79.05C60.001 72.4226 54.6284 67.05 48.001 67.05H44.001ZM116.001 100C113.792 100 112.001 101.791 112.001 104V116C112.001 118.209 113.792 120 116.001 120H120.001C122.21 120 124.001 118.209 124.001 116V104C124.001 101.791 122.21 100 120.001 100H116.001ZM104.001 104C104.001 97.3726 109.374 92 116.001 92H120.001C126.628 92 132.001 97.3726 132.001 104V116C132.001 122.627 126.628 128 120.001 128H116.001C109.374 128 104.001 122.627 104.001 116V104ZM76.001 48C76.001 45.7909 77.7918 44 80.001 44H84.001C86.2101 44 88.001 45.7909 88.001 48V116C88.001 118.209 86.2101 120 84.001 120H80.001C77.7918 120 76.001 118.209 76.001 116V48ZM80.001 36C73.3736 36 68.001 41.3726 68.001 48V116C68.001 122.627 73.3736 128 80.001 128H84.001C90.6284 128 96.001 122.627 96.001 116V48C96.001 41.3726 90.6284 36 84.001 36H80.001Z" fill="var(--spectrum-global-color-gray-800, #292929)"/>
</svg>
