<svg width="48" height="48" viewBox="0 0 48 48" xmlns="http://www.w3.org/2000/svg">
<path fill-rule="evenodd" d="M24.1104 13C24.1104 11.4812 25.3416 10.25 26.8604 10.25H35.0303C36.5491 10.25 37.7803 11.4812 37.7803 13V21.17C37.7803 22.6888 36.5491 23.92 35.0303 23.92H26.8604C25.3416 23.92 24.1104 22.6888 24.1104 21.17V13ZM26.8604 7.75C23.9609 7.75 21.6104 10.1005 21.6104 13V21.17C21.6104 24.0695 23.9609 26.42 26.8604 26.42H35.0303C37.9298 26.42 40.2803 24.0695 40.2803 21.17V13C40.2803 10.1005 37.9298 7.75 35.0303 7.75H26.8604ZM10.2598 18.4299C10.2598 17.7396 10.8194 17.1799 11.5098 17.1799H15.7398C16.4301 17.1799 16.9898 17.7396 16.9898 18.4299V22.6599C16.9898 23.3503 16.4301 23.9099 15.7398 23.9099H11.5098C10.8194 23.9099 10.2598 23.3503 10.2598 22.6599V18.4299ZM11.5098 14.6799C9.4387 14.6799 7.75977 16.3589 7.75977 18.4299V22.6599C7.75977 24.731 9.4387 26.4099 11.5098 26.4099H15.7398C17.8108 26.4099 19.4898 24.731 19.4898 22.6599V18.4299C19.4898 16.3589 17.8108 14.6799 15.7398 14.6799H11.5098ZM11.5098 31.02C10.8194 31.02 10.2598 31.5797 10.2598 32.27V36.5C10.2598 37.1904 10.8194 37.75 11.5098 37.75H15.7398C16.4301 37.75 16.9898 37.1904 16.9898 36.5V32.27C16.9898 31.5797 16.4301 31.02 15.7398 31.02H11.5098ZM7.75977 32.27C7.75977 30.199 9.4387 28.52 11.5098 28.52H15.7398C17.8108 28.52 19.4898 30.199 19.4898 32.27V36.5C19.4898 38.5711 17.8108 40.25 15.7398 40.25H11.5098C9.4387 40.25 7.75977 38.5711 7.75977 36.5V32.27ZM24.1104 32.27C24.1104 31.5797 24.67 31.02 25.3604 31.02H29.5904C30.2807 31.02 30.8404 31.5797 30.8404 32.27V36.5C30.8404 37.1904 30.2807 37.75 29.5904 37.75H25.3604C24.67 37.75 24.1104 37.1904 24.1104 36.5V32.27ZM25.3604 28.52C23.2893 28.52 21.6104 30.199 21.6104 32.27V36.5C21.6104 38.5711 23.2893 40.25 25.3604 40.25H29.5904C31.6614 40.25 33.3404 38.5711 33.3404 36.5V32.27C33.3404 30.199 31.6614 28.52 29.5904 28.52H25.3604Z" fill="var(--spectrum-global-color-gray-800, #292929)"/>
</svg>
