<svg width="48" height="48" viewBox="0 0 48 48" xmlns="http://www.w3.org/2000/svg">
<path fill-rule="evenodd" d="M23.6915 12.4711C23.8751 12.3951 24.0814 12.3951 24.265 12.471L38.0557 18.1776C38.6734 18.4331 38.6734 19.308 38.0557 19.5636L24.265 25.2701C24.0814 25.3461 23.8751 25.3461 23.6915 25.2701L19.9776 23.7333C19.3397 23.4694 18.6086 23.7725 18.3447 24.4104C18.0807 25.0483 18.3838 25.7794 19.0217 26.0434L22.7356 27.5801C23.5313 27.9094 24.4252 27.9094 25.2209 27.5801L34.5347 23.7261V28.0533C34.5347 28.4903 34.4176 29.2479 33.8482 30.0959C33.2812 30.9405 32.2168 31.9471 30.2089 32.8076C28.6824 33.4618 26.8158 33.7489 25.0591 33.8142C23.3066 33.8794 21.7683 33.7204 20.9507 33.5521C20.2746 33.4129 19.6135 33.8482 19.4743 34.5244C19.3351 35.2005 19.7704 35.8615 20.4466 36.0007C21.4874 36.215 23.2287 36.384 25.152 36.3125C27.0712 36.2412 29.2768 35.927 31.1937 35.1055C33.5671 34.0883 35.0445 32.7992 35.9238 31.4895C36.8007 30.1833 37.0347 28.9281 37.0347 28.0533V22.6917L39.0116 21.8736C41.6881 20.7661 41.6881 16.975 39.0116 15.8675L25.2209 10.161C24.4251 9.83175 23.5313 9.83175 22.7356 10.161L8.94486 15.8675C6.26838 16.975 6.26838 20.7661 8.94486 21.8736L11.2717 22.8365C11.9096 23.1004 12.6407 22.7973 12.9047 22.1594C13.1687 21.5215 12.8655 20.7904 12.2276 20.5264L9.90074 19.5636C9.28309 19.308 9.28309 18.4331 9.90074 18.1776L23.6915 12.4711ZM24.5854 19.3076C25.1888 18.9724 25.4063 18.2114 25.071 17.6079C24.7357 17.0044 23.9747 16.787 23.3712 17.1222L16.5738 20.8986C14.9071 21.8245 13.8735 23.5813 13.8735 25.4879V34.2602C13.2321 35.6059 12.6299 37.2129 12.5163 38.5882C12.5053 38.6827 12.4997 38.7787 12.4997 38.876V38.8762C12.4997 40.3252 13.7477 41.4998 15.2873 41.4998C16.8269 41.4998 18.075 40.3252 18.075 38.8762V38.876V38.8756C18.0749 38.7553 18.0663 38.637 18.0496 38.521C17.896 37.0615 17.1391 35.3526 16.3735 33.9745V25.4879C16.3735 24.4892 16.9149 23.569 17.7879 23.084L24.5854 19.3076Z" fill="var(--spectrum-global-color-gray-800, #292929)"/>
</svg>
