<svg width="160" height="160" viewBox="0 0 160 160" xmlns="http://www.w3.org/2000/svg">
<path fill-rule="evenodd" d="M135.96 41.0086C135.96 31.6179 126.892 24.881 117.9 27.6105L117.899 27.6109L117.897 27.6112L75.2757 40.5286H44.98C31.1909 40.5286 20 51.7194 20 65.5086C20 79.2977 31.1909 90.4886 44.98 90.4886H46.3766L47.4205 92.8782C48.6881 95.7796 50.4049 99.7073 52.2013 103.812C55.7883 112.008 59.709 120.948 60.9919 123.801C63.0256 128.324 66.4947 131.124 70.4686 132.24C74.3342 133.326 78.4206 132.754 81.8273 131.099C85.0051 129.555 87.8194 126.958 89.3641 123.501C90.9459 119.961 91.0651 115.801 89.2641 111.543L89.2476 111.504L80.8266 92.1608L117.887 103.426L117.887 103.426C126.873 106.155 135.96 99.4375 135.96 90.0286V41.0086ZM71.96 48.5286V82.4886H44.98C35.6091 82.4886 28 74.8794 28 65.5086C28 56.1377 35.6091 48.5286 44.98 48.5286H71.96ZM79.96 83.536L120.212 95.7712L120.213 95.7715C124.067 96.9415 127.96 94.0594 127.96 90.0286V41.0086C127.96 36.9801 124.07 34.0974 120.222 35.2659L120.22 35.2666L79.96 47.4682V83.536ZM55.112 90.5008C56.3348 93.2994 57.8997 96.8792 59.5302 100.605C63.1269 108.823 67.0263 117.714 68.2883 120.521C69.3689 122.924 70.9825 124.075 72.6313 124.538C74.3883 125.031 76.4645 124.81 78.3318 123.903C80.0628 123.062 81.3875 121.743 82.0602 120.237C82.6942 118.818 82.8716 116.977 81.9036 114.677L71.3788 90.5008H55.112Z" fill="var(--spectrum-global-color-gray-800, #292929)"/>
</svg>
