<svg width="160" height="160" viewBox="0 0 160 160" xmlns="http://www.w3.org/2000/svg">
<path fill-rule="evenodd" d="M74.2606 17.6077C77.9734 15.4641 82.5478 15.4641 86.2606 17.6077L131.521 43.7389C135.234 45.8825 137.521 49.844 137.521 54.1312V106.394C137.521 110.681 135.234 114.642 131.521 116.786L86.2606 142.917C82.5477 145.061 77.9734 145.061 74.2606 142.917L29 116.786C25.2872 114.642 23 110.681 23 106.394V54.1312C23 49.844 25.2872 45.8825 29 43.7389L74.2606 17.6077ZM82.2606 24.5359C81.023 23.8214 79.4982 23.8214 78.2606 24.5359L33 50.6671C31.7624 51.3816 31 52.7021 31 54.1312V106.394C31 107.823 31.7624 109.143 33 109.858L78.2606 135.989C79.4982 136.703 81.023 136.703 82.2606 135.989L127.521 109.858C128.759 109.143 129.521 107.823 129.521 106.394V54.1312C129.521 52.7021 128.759 51.3816 127.521 50.6671L82.2606 24.5359ZM80.2598 47.592C82.4689 47.592 84.2598 49.3829 84.2598 51.592V90.592C84.2598 92.8012 82.4689 94.592 80.2598 94.592C78.0506 94.592 76.2598 92.8012 76.2598 90.592V51.592C76.2598 49.3829 78.0506 47.592 80.2598 47.592ZM86.2598 107.762C86.2598 111.076 83.5735 113.762 80.2598 113.762C76.9461 113.762 74.2598 111.076 74.2598 107.762C74.2598 104.448 76.9461 101.762 80.2598 101.762C83.5735 101.762 86.2598 104.448 86.2598 107.762Z" fill="var(--spectrum-global-color-gray-800, #292929)"/>
</svg>
