<svg width="48" height="48" viewBox="0 0 48 48" xmlns="http://www.w3.org/2000/svg">
<path fill-rule="evenodd" d="M7.25 11.8C7.25 10.9096 7.94205 10.25 8.72 10.25H16.2527C16.685 10.25 17.1053 10.452 17.3897 10.8179L20.4455 14.75H7.25V11.8ZM4.75 14.75V11.8C4.75 9.59765 6.49352 7.75 8.72 7.75H16.2527C17.473 7.75 18.6157 8.32134 19.3637 9.28382L18.3929 10.0383L19.3637 9.28382L23.6117 14.75H37.8462C40.8017 14.75 43.25 17.1012 43.25 20.0588V34.9412C43.25 37.8988 40.8017 40.25 37.8462 40.25H10.1538C7.19835 40.25 4.75 37.8988 4.75 34.9412V17.25V16V14.75ZM7.25 17.25V34.9412C7.25 36.4638 8.5242 37.75 10.1538 37.75H37.8462C39.4758 37.75 40.75 36.4638 40.75 34.9412V20.0588C40.75 18.5362 39.4758 17.25 37.8462 17.25H25.5545H23H7.25Z" fill="var(--spectrum-global-color-gray-800, #292929)"/>
<path fill-rule="evenodd" d="M25.5145 26.1177C26.3267 26.1177 26.9851 25.4593 26.9851 24.6471C26.9851 23.8349 26.3267 23.1765 25.5145 23.1765C24.7024 23.1765 24.0439 23.8349 24.0439 24.6471C24.0439 25.4593 24.7024 26.1177 25.5145 26.1177ZM25.5146 32H22.8399C22.4795 32 22.2166 31.7021 22.2924 31.3879C22.6114 30.0641 23.942 29.0588 25.5146 29.0588C27.0871 29.0588 28.4178 30.0641 28.7368 31.3879C28.8125 31.7021 28.5496 32 28.1893 32H25.5146Z" fill="var(--spectrum-global-color-gray-800, #292929)"/>
<path d="M22.2924 31.3879L23.5076 31.6807L23.5076 31.6807L22.2924 31.3879ZM28.7368 31.3879L27.5216 31.6807L27.5216 31.6807L28.7368 31.3879ZM17.5176 30.4087C17.4021 31.0893 17.8602 31.7347 18.5408 31.8503C19.2214 31.9658 19.8668 31.5077 19.9824 30.8271L17.5176 30.4087ZM21.0889 29.3322C21.7118 29.0346 21.9756 28.2884 21.6781 27.6655C21.3805 27.0425 20.6343 26.7787 20.0114 27.0763L21.0889 29.3322ZM21.6883 23.25C22.3786 23.25 22.9383 22.6904 22.9383 22C22.9383 21.3096 22.3786 20.75 21.6883 20.75V23.25ZM19.6806 25.7104C20.1766 26.1906 20.9679 26.1778 21.4481 25.6818C21.9283 25.1858 21.9155 24.3945 21.4195 23.9143L19.6806 25.7104ZM25.7351 24.6471C25.7351 24.7689 25.6364 24.8677 25.5145 24.8677V27.3677C27.0171 27.3677 28.2351 26.1496 28.2351 24.6471H25.7351ZM25.5145 24.4265C25.6364 24.4265 25.7351 24.5253 25.7351 24.6471H28.2351C28.2351 23.1446 27.0171 21.9265 25.5145 21.9265V24.4265ZM25.2939 24.6471C25.2939 24.5253 25.3927 24.4265 25.5145 24.4265V21.9265C24.012 21.9265 22.7939 23.1446 22.7939 24.6471H25.2939ZM25.5145 24.8677C25.3927 24.8677 25.2939 24.7689 25.2939 24.6471H22.7939C22.7939 26.1496 24.012 27.3677 25.5145 27.3677V24.8677ZM22.8399 33.25H25.5146V30.75H22.8399V33.25ZM21.0771 31.095C20.7747 32.3499 21.8372 33.25 22.8399 33.25V30.75C23.0079 30.75 23.1946 30.8216 23.3361 30.9805C23.4814 31.1437 23.5744 31.4033 23.5076 31.6807L21.0771 31.095ZM25.5146 27.8088C23.4405 27.8088 21.5485 29.139 21.0771 31.095L23.5076 31.6807C23.6742 30.9891 24.4435 30.3088 25.5146 30.3088V27.8088ZM29.952 31.095C29.4807 29.139 27.5887 27.8088 25.5146 27.8088V30.3088C26.5856 30.3088 27.355 30.9891 27.5216 31.6807L29.952 31.095ZM28.1893 33.25C29.192 33.25 30.2544 32.3499 29.952 31.095L27.5216 31.6807C27.4548 31.4033 27.5477 31.1437 27.6931 30.9805C27.8346 30.8216 28.0213 30.75 28.1893 30.75V33.25ZM25.5146 33.25H28.1893V30.75H25.5146V33.25ZM19.9824 30.8271C20.0969 30.1524 20.5317 29.5983 21.0889 29.3322L20.0114 27.0763C18.7141 27.6959 17.7671 28.9393 17.5176 30.4087L19.9824 30.8271ZM21.3018 23.6365C21.3018 23.423 21.4748 23.25 21.6883 23.25V20.75C20.0941 20.75 18.8018 22.0423 18.8018 23.6365H21.3018ZM21.4195 23.9143C21.3454 23.8425 21.3018 23.7457 21.3018 23.6365H18.8018C18.8018 24.4503 19.1401 25.1872 19.6806 25.7104L21.4195 23.9143Z" fill="var(--spectrum-global-color-gray-800, #292929)"/>
</svg>
