<svg width="48" height="48" viewBox="0 0 48 48" xmlns="http://www.w3.org/2000/svg">
<path fill-rule="evenodd" d="M40.75 14C40.75 12.4812 39.5188 11.25 38 11.25H10C8.48122 11.25 7.25 12.4812 7.25 14V34C7.25 34.0204 7.25023 34.0408 7.25067 34.0612L15.0136 22.068L15.0139 22.0675C16.3235 20.0429 19.2893 20.0429 20.5989 22.0675L20.5993 22.068L26.7842 31.6216L30.2769 26.3409L30.2768 26.3408L30.2819 26.3333C31.5998 24.3731 34.4876 24.3688 35.8048 26.3332L35.8062 26.3353L40.75 33.6589V14ZM17.0287 23.3716L8.61213 36.3746C9.01951 36.6132 9.49378 36.75 10 36.75H23.4092C23.4347 36.6946 23.4647 36.6404 23.4994 36.588L25.3393 33.8061L18.5843 23.3717L18.5839 23.3711C18.22 22.8083 17.3929 22.8083 17.029 23.3711L17.0287 23.3716ZM39.5964 36.2395C39.1463 36.5609 38.5952 36.75 38 36.75H26.2697L32.2756 27.6694C32.6458 27.1231 33.4485 27.1277 33.8119 27.6704L33.8144 27.6742L39.5964 36.2395ZM38 8.75C40.8995 8.75 43.25 11.1005 43.25 14V34C43.25 36.8995 40.8995 39.25 38 39.25H10C7.10051 39.25 4.75 36.8995 4.75 34V14C4.75 11.1005 7.10051 8.75 10 8.75H38ZM32 17.5C32 18.8807 33.1193 20 34.5 20C35.8807 20 37 18.8807 37 17.5C37 16.1193 35.8807 15 34.5 15C33.1193 15 32 16.1193 32 17.5Z" fill="var(--spectrum-global-color-gray-800, #292929)"/>
</svg>
