<svg width="96" height="97" viewBox="0 0 96 97" xmlns="http://www.w3.org/2000/svg">
<path fill-rule="evenodd" d="M17 49C18.1046 49 19 49.8954 19 51L19 68.6471C19 71.6186 21.3854 74 24.2941 74L71.7059 74C74.6146 74 77 71.6186 77 68.6471L77 51C77 49.8954 77.8954 49 79 49C80.1046 49 81 49.8954 81 51L81 68.6471C81 73.7974 76.854 78 71.7059 78L24.2941 78C19.146 78 15 73.7974 15 68.6471L15 51C15 49.8954 15.8954 49 17 49ZM48 63C46.8954 63 46 62.1046 46 61L46 25.138L39.4142 31.7238C38.6332 32.5048 37.3668 32.5048 36.5858 31.7238C35.8047 30.9427 35.8047 29.6764 36.5858 28.8954L46.5858 18.8954C47.3668 18.1143 48.6332 18.1143 49.4142 18.8954L59.4142 28.8954C60.1953 29.6764 60.1953 30.9427 59.4142 31.7238C58.6332 32.5048 57.3668 32.5048 56.5858 31.7238L50 25.138L50 61C50 62.1046 49.1046 63 48 63Z" fill="var(--spectrum-global-color-gray-800, #292929)"/>
</svg>
