<svg width="96" height="97" viewBox="0 0 96 97" xmlns="http://www.w3.org/2000/svg">
<path fill-rule="evenodd" d="M23.0681 31.7801C22.23 28.652 24.0863 25.4368 27.2144 24.5986L57.2898 16.5399C60.4906 15.6823 63.7806 17.5818 64.6382 20.7826L67.4883 31.419C67.7742 32.486 67.141 33.5827 66.0741 33.8685C65.0071 34.1544 63.9105 33.5213 63.6246 32.4543L60.7745 21.8178C60.4886 20.7509 59.392 20.1177 58.325 20.4036L28.2497 28.4623C27.2555 28.7287 26.6655 29.7506 26.9319 30.7448L27.1125 31.419C27.3984 32.486 26.7652 33.5827 25.6983 33.8685C24.6314 34.1544 23.5347 33.5213 23.2488 32.4543L23.0681 31.7801ZM18 36.6535C15.7909 36.6535 14 38.4443 14 40.6535V76.6535C14 78.8626 15.7909 80.6535 18 80.6535H68C73.5228 80.6535 78 76.1763 78 70.6535V68.1535C80.2091 68.1535 82 66.3626 82 64.1535V53.1535C82 50.9443 80.2091 49.1535 78 49.1535V46.6535C78 41.1306 73.5228 36.6535 68 36.6535H18ZM74 49.1535V46.6535C74 43.3398 71.3137 40.6535 68 40.6535H18V76.6535H68C71.3137 76.6535 74 73.9672 74 70.6535V68.1535H62C59.7909 68.1535 58 66.3626 58 64.1535V53.1535C58 50.9443 59.7909 49.1535 62 49.1535H74ZM62 53.1535H78V64.1535H62V53.1535ZM67.5 60.9054C68.8807 60.9054 70 59.7861 70 58.4054C70 57.0247 68.8807 55.9054 67.5 55.9054C66.1193 55.9054 65 57.0247 65 58.4054C65 59.7861 66.1193 60.9054 67.5 60.9054Z" fill="var(--spectrum-global-color-gray-800, #292929)"/>
</svg>
