<svg width="160" height="160" viewBox="0 0 160 160" xmlns="http://www.w3.org/2000/svg">
<path fill-rule="evenodd" d="M85.4929 29.1899C83.2402 24.5904 76.7617 24.5904 74.5089 29.1899L63.8158 51.022C61.7641 55.211 57.7898 58.1289 53.1755 58.8045L29.2651 62.3054C24.27 63.0368 22.1897 69.2864 25.8742 72.9054L43.1759 89.8993C46.5017 93.166 48.0121 97.863 47.2297 102.459L43.1453 126.455C42.271 131.592 47.5912 135.361 52.0283 133.01L73.4143 121.681C77.5368 119.497 82.465 119.497 86.5875 121.681L107.974 133.01C112.411 135.361 117.731 131.592 116.856 126.455L112.772 102.459C111.99 97.8631 113.5 93.166 116.826 89.8993L134.128 72.9054C137.812 69.2864 135.732 63.0368 130.737 62.3054L106.826 58.8045C102.212 58.1288 98.2377 55.211 96.186 51.022L85.4929 29.1899ZM67.3244 25.671C72.5035 15.0966 87.4983 15.0966 92.6775 25.671L103.371 47.5031C104.27 49.3397 106 50.5982 107.985 50.8889L131.896 54.3898C143.519 56.0917 148.074 70.4205 139.734 78.6128L122.432 95.6067C120.982 97.0303 120.314 99.0908 120.659 101.117L124.743 125.113C126.708 136.654 114.655 145.603 104.229 140.08L82.8425 128.75C81.0625 127.807 78.9393 127.807 77.1593 128.75L55.7732 140.08C45.3464 145.603 33.2943 136.654 35.2588 125.113L39.3431 101.117C39.688 99.0908 39.0194 97.0303 37.57 95.6067L20.2683 78.6128L23.0532 75.7774L20.2683 78.6128C11.9277 70.4205 16.483 56.0917 28.1061 54.3898L52.0165 50.8889C54.0014 50.5983 55.7318 49.3397 56.6313 47.5031L67.3244 25.671Z" fill="var(--spectrum-global-color-gray-800, #292929)"/>
</svg>
