<svg width="96" height="96" viewBox="0 0 96 96" xmlns="http://www.w3.org/2000/svg">
<path fill-rule="evenodd" d="M64.75 34C64.75 25.8534 71.3534 19.25 79.5 19.25C87.6466 19.25 94.25 25.8534 94.25 34C94.25 42.1466 87.6466 48.75 79.5 48.75C71.3534 48.75 64.75 42.1466 64.75 34ZM79.5 25.0217C78.3978 25.0217 77.4959 25.9236 77.4959 27.0258V34.7215C77.4959 35.8237 78.3978 36.7255 79.5 36.7255C80.6022 36.7255 81.5041 35.8237 81.5041 34.7215V27.0258C81.5041 25.9236 80.6022 25.0217 79.5 25.0217ZM81.484 41.7959C81.5442 41.6656 81.5842 41.5353 81.6143 41.395L81.6143 41.3949C81.6344 41.2546 81.6544 41.1144 81.6544 40.9742C81.6544 40.834 81.6344 40.6937 81.6143 40.5535L81.6143 40.5533C81.5842 40.413 81.5442 40.2828 81.484 40.1525C81.4339 40.0222 81.3638 39.892 81.2936 39.7717C81.2135 39.6615 81.1233 39.5513 81.0231 39.4511C80.9229 39.3509 80.8127 39.2607 80.6924 39.1805C80.5822 39.1004 80.452 39.0403 80.3217 38.9802L80.3217 38.9801C80.1914 38.93 80.0611 38.8899 79.9209 38.8599C79.6403 38.8098 79.3597 38.8098 79.0791 38.8599C78.9389 38.8899 78.8086 38.93 78.6783 38.9801C78.5481 39.0403 78.4178 39.1004 78.3076 39.1805C78.1873 39.2607 78.0771 39.3509 77.9769 39.4511C77.8767 39.5513 77.7865 39.6615 77.7064 39.7717C77.6262 39.892 77.5661 40.0222 77.506 40.1525C77.4558 40.2828 77.4158 40.413 77.3857 40.5533C77.3456 40.6936 77.3456 40.8339 77.3456 40.9742C77.3456 41.1145 77.3556 41.2548 77.3857 41.395C77.4158 41.5353 77.4558 41.6656 77.506 41.7959C77.5661 41.9261 77.6262 42.0564 77.7064 42.1666C77.7865 42.2869 77.8767 42.3971 77.9769 42.4973C78.0771 42.5975 78.1873 42.6877 78.3076 42.7678C78.4178 42.838 78.5481 42.9081 78.6783 42.9582C78.8086 43.0183 78.9389 43.0584 79.0791 43.0885C79.2194 43.1286 79.3597 43.1286 79.5 43.1286C79.6403 43.1286 79.7806 43.1185 79.9209 43.0885C80.0611 43.0584 80.1914 43.0183 80.3217 42.9582C80.4519 42.9081 80.5822 42.838 80.6924 42.7678C80.8127 42.6877 80.9229 42.5975 81.0231 42.4973C81.1233 42.3971 81.2135 42.2869 81.2936 42.1666C81.3638 42.0564 81.4339 41.9261 81.484 41.7959ZM39.585 64.7681C41.7273 62.5872 44.7041 61.2383 47.9996 61.2383C51.2926 61.2383 54.2674 62.5851 56.4094 64.763C57.1839 65.5505 58.4502 65.5611 59.2377 64.7865C60.0252 64.012 60.0358 62.7457 59.2612 61.9582C56.3982 59.0472 52.4083 57.2383 47.9996 57.2383C43.5875 57.2383 39.595 59.05 36.7315 61.9649C35.9574 62.7529 35.9687 64.0192 36.7566 64.7932C37.5446 65.5673 38.8109 65.556 39.585 64.7681ZM47.9984 49.3086C41.4054 49.3086 35.4436 51.9952 31.1416 56.3382C30.3643 57.123 29.098 57.129 28.3132 56.3517C27.5285 55.5743 27.5225 54.308 28.2998 53.5233C33.3221 48.4529 40.2949 45.3086 47.9984 45.3086C55.7003 45.3086 62.6717 48.4516 67.6938 53.52C68.4713 54.3046 68.4655 55.5709 67.6809 56.3484C66.8962 57.1259 65.6299 57.12 64.8525 56.3354C60.5507 51.994 54.59 49.3086 47.9984 49.3086ZM22.7151 47.8924C29.1755 41.3954 38.1165 37.377 47.9999 37.377C51.721 37.377 55.3054 37.9463 58.6728 39.0012C59.7268 39.3314 60.849 38.7446 61.1792 37.6905C61.5094 36.6365 60.9226 35.5143 59.8685 35.1841C56.1187 34.0094 52.1312 33.377 47.9999 33.377C37.0089 33.377 27.0591 37.8509 19.8787 45.072C19.0998 45.8553 19.1034 47.1216 19.8867 47.9004C20.6699 48.6793 21.9362 48.6757 22.7151 47.8924ZM47.9991 25.4453C34.8148 25.4453 22.8859 30.8042 14.2654 39.4676C13.4863 40.2505 12.2199 40.2537 11.4369 39.4746C10.654 38.6954 10.6508 37.4291 11.4299 36.6461C20.7704 27.2593 33.7077 21.4453 47.9991 21.4453C52.7886 21.4453 57.4289 22.0986 61.834 23.322C62.8983 23.6176 63.5214 24.72 63.2259 25.7843C62.9303 26.8485 61.8279 27.4717 60.7636 27.1761C56.7037 26.0486 52.4235 25.4453 47.9991 25.4453ZM48.0039 74.5596C49.6608 74.5596 51.0039 73.2164 51.0039 71.5596C51.0039 69.9027 49.6608 68.5596 48.0039 68.5596C46.3471 68.5596 45.0039 69.9027 45.0039 71.5596C45.0039 73.2164 46.3471 74.5596 48.0039 74.5596Z" fill="var(--spectrum-global-color-gray-800, #292929)"/>
</svg>
