<svg width="96" height="96" viewBox="0 0 96 96" xmlns="http://www.w3.org/2000/svg">
<path fill-rule="evenodd" d="M23.5293 20.5195C19.1139 20.5195 15.5293 24.1041 15.5293 28.5195V60.4695C15.5293 61.5741 14.6339 62.4695 13.5293 62.4695C12.4247 62.4695 11.5293 61.5741 11.5293 60.4695V28.5195C11.5293 21.895 16.9047 16.5195 23.5293 16.5195H55.4793C56.5839 16.5195 57.4793 17.415 57.4793 18.5195C57.4793 19.6241 56.5839 20.5195 55.4793 20.5195H23.5293ZM22.5293 33.5295C22.5293 30.2158 25.2156 27.5295 28.5293 27.5295H50.1406V49.7397C50.1406 50.5397 51.0306 51.0197 51.6906 50.5697L56.5606 47.3197C56.9006 47.0997 57.3306 47.0997 57.6706 47.3197L62.5406 50.5697C63.2006 51.0097 64.0906 50.5397 64.0906 49.7397V27.5295H64.4793C67.793 27.5295 70.4793 30.2158 70.4793 33.5295V56.9995C70.4793 58.1041 71.3747 58.9995 72.4793 58.9995C73.5839 58.9995 74.4793 58.1041 74.4793 56.9995V33.5295C74.4793 28.0067 70.0021 23.5295 64.4793 23.5295H28.5293C23.0064 23.5295 18.5293 28.0067 18.5293 33.5295V69.4795C18.5293 75.0024 23.0064 79.4795 28.5293 79.4795H28.5911H28.6528H28.7143H28.7757H28.8369H28.898H28.959H29.0198H29.0804H29.1409H29.2013H29.2615H29.3216H29.3815H29.4413H29.501H29.5605H29.6199H29.6791H29.7382H29.7972H29.856H29.9147H29.9732H30.0316H30.0899H30.148H30.206H30.2639H30.3216H30.3792H30.4367H30.494H30.5512H30.6083H30.6653H30.7221H30.7787H30.8353H30.8917H30.948H31.0042H31.0602H31.1161H31.1719H31.2276H31.2831H31.3385H31.3938H31.449H31.504H31.5589H31.6137H31.6684H31.7229H31.7773H31.8316H31.8858H31.9399H31.9938H32.0477H32.1014H32.155H32.2085H32.2618H32.3151H32.3682H32.4212H32.4741H32.5269H32.5796H32.6321H32.6846H32.7369H32.7891H32.8412H32.8932H32.9451H32.9969H33.0486H33.1002H33.1516H33.203H33.2542H33.3054H33.3564H33.4073H33.4581H33.5089H33.5595H33.61H33.6604H33.7107H33.7609H33.811H33.861H33.9109H33.9607H34.0104H34.06H34.1095H34.1589H34.2082H34.2575H34.3066H34.3556H34.4045H34.4533H34.5021H34.5507H34.5993H34.6477H34.6961H34.7444H34.7926H34.8406H34.8886H34.9366H34.9844H35.0321H35.0798H35.1273H35.1748H35.2222H35.2695H35.3167H35.3638H35.4109H35.4578H35.5047H35.5515H35.5982H35.6448H35.6914H35.7378H35.7842H35.8305H35.8767H35.9229H35.9689H36.0149H36.0608H36.1067H36.1524H36.1981H36.2437H36.2892H36.3347H36.3801H36.4254H36.4706H36.5158H36.5609H36.6059H36.6508H36.6957H36.7405H36.7852H36.8299H36.8745H36.919H36.9635H37.0079H37.0522H37.0965H37.1407H37.1848H37.2289H37.2729H37.3168H37.3607H37.4045H37.4482H37.4919H37.5356H37.5791H37.6226H37.6661H37.7095H37.7528H37.7961H37.8393H37.8825H37.9256H37.9686H38.0116H38.0545H38.0974H38.1402H38.183H38.2257H38.2684H38.311H38.3536H38.3961H38.4386H38.481H38.5233H38.5657H38.6079H38.6501H38.6923H38.7344H38.7765H38.8186H38.8605H38.9025H38.9444H38.9862H39.028H39.0698H39.1115H39.1532H39.1948H39.2365H39.278H39.3195H39.361H39.4024H39.4439H39.4852H39.5265H39.5678H39.6091H39.6503H39.6915H39.7326H39.7738H39.8148H39.8559H39.8969H39.9379H39.9788H40.0197H40.0606H40.1015H40.1423H40.1831H40.2239H40.2646H40.3053H40.346H40.3867H40.4273H40.4679H40.5085H40.549H40.5896H40.6301H40.6706H40.711H40.7515H40.7919H40.8323H40.8727H40.913H40.9534H40.9937H41.034H41.0742H41.1145H41.1548H41.195H41.2352H41.2754H41.3156H41.3557H41.3959H41.436H41.4761H41.5163H41.5564H41.5964H41.6365H41.6766H41.7166H41.7567H41.7967H41.8367H41.8768H41.9168H41.9568H41.9968H42.0368H42.0768H42.1167H42.1567H42.1967H42.2367H42.2766H42.3166H42.3565H42.3965H42.4365H42.4764H42.5164H42.5563H42.5963H42.6362H42.6762H42.7162H42.7561H42.7961H42.8361H42.8761H42.916H42.956H42.996H43.036H43.076H43.116H43.1561H43.1961H43.2361H43.2762H43.3162H43.3563H43.3964H43.4365H43.4766H43.5167H43.5568H43.597H43.6371H43.6773H43.7175H43.7577H43.7979H43.8381H43.8784H43.9186H43.9589H43.9992H44.0396H44.0799H44.1203H44.1606H44.201H44.2415H44.2819H44.3224H44.3629H44.4034H44.4439H44.4845H44.5251H44.5657H44.6064H44.647H44.6877H44.7284H44.7692H44.81H44.8508H44.8916H44.9325H44.9734H45.0143H45.0553H45.0963H45.1373H45.1783H45.2194H45.2606H45.3017H45.3429H45.3841H45.4254H45.4667H45.5081H45.5494H45.5909H45.6323H45.6738H45.7153H45.7569H45.7985H45.8402H45.8819H45.9236H45.9654H46.0072H46.0491H46.091H46.133H46.175H46.217H46.2591H46.3012H46.3434H46.3857H46.4279H46.4703H46.5127H46.5551H46.5976H46.6401H46.6827H46.7253H46.768H46.8107H46.8535H46.8964H46.9393H46.9822H47.0252H47.0683H47.1114H47.1546H47.1978H47.2411H47.2845H47.3279H47.3714H47.4149H47.4585H47.5021H47.5459H47.5896H47.6335H47.6774H47.7213H47.7654H47.8094H47.8536H47.8978H47.9421H47.9865H48.0309H48.0754H48.1199H48.1645H48.2092H48.254H48.2988H48.3437H48.3887H48.4337H48.4788H48.524H48.5693H48.6146H48.66H48.7055H48.7511H48.7967H48.8424H48.8882H48.934H48.98H49.026H49.0721H49.1182H49.1645H49.2108H49.2572H49.3037H49.3503H49.397H49.4437H49.4905H49.5374H49.5844H49.6315H49.6786H49.7259H49.7732H49.8206H49.8681H49.9157H49.9634H50.0111H50.059H50.1069H50.155H50.2031H50.2513H50.2996H50.348H50.3965H50.4451H50.4938H50.5425H50.5914H50.6404H50.6894H50.7386H50.7878H50.8372H50.8866H50.9361H50.9858H51.0355H51.0854H51.1353H51.1853H51.2355H51.2857H51.3361H51.3865H51.437H51.4877H51.5384H51.5893H51.6403H51.6913H51.7425H51.7938H51.8452H51.8967H51.9483H52C53.1046 79.4795 54 78.5841 54 77.4795C54 76.375 53.1046 75.4795 52 75.4795H51.9483H51.8967H51.8452H51.7938H51.7425H51.6913H51.6403H51.5893H51.5384H51.4877H51.437H51.3865H51.3361H51.2857H51.2355H51.1853H51.1353H51.0854H51.0355H50.9858H50.9361H50.8866H50.8372H50.7878H50.7386H50.6894H50.6404H50.5914H50.5425H50.4938H50.4451H50.3965H50.348H50.2996H50.2513H50.2031H50.155H50.1069H50.059H50.0111H49.9634H49.9157H49.8681H49.8206H49.7732H49.7259H49.6786H49.6315H49.5844H49.5374H49.4905H49.4437H49.397H49.3503H49.3037H49.2572H49.2108H49.1645H49.1182H49.0721H49.026H48.98H48.934H48.8882H48.8424H48.7967H48.7511H48.7055H48.66H48.6146H48.5693H48.524H48.4788H48.4337H48.3887H48.3437H48.2988H48.254H48.2092H48.1645H48.1199H48.0754H48.0309H47.9865H47.9421H47.8978H47.8536H47.8094H47.7654H47.7213H47.6774H47.6335H47.5896H47.5459H47.5021H47.4585H47.4149H47.3714H47.3279H47.2845H47.2411H47.1978H47.1546H47.1114H47.0683H47.0252H46.9822H46.9393H46.8964H46.8535H46.8107H46.768H46.7253H46.6827H46.6401H46.5976H46.5551H46.5127H46.4703H46.4279H46.3857H46.3434H46.3012H46.2591H46.217H46.175H46.133H46.091H46.0491H46.0072H45.9654H45.9236H45.8819H45.8402H45.7985H45.7569H45.7153H45.6738H45.6323H45.5909H45.5494H45.5081H45.4667H45.4254H45.3841H45.3429H45.3017H45.2606H45.2194H45.1783H45.1373H45.0963H45.0553H45.0143H44.9734H44.9325H44.8916H44.8508H44.81H44.7692H44.7284H44.6877H44.647H44.6064H44.5657H44.5251H44.4845H44.4439H44.4034H44.3629H44.3224H44.2819H44.2415H44.201H44.1606H44.1203H44.0799H44.0396H43.9992H43.9589H43.9186H43.8784H43.8381H43.7979H43.7577H43.7175H43.6773H43.6371H43.597H43.5568H43.5167H43.4766H43.4365H43.3964H43.3563H43.3162H43.2762H43.2361H43.1961H43.1561H43.116H43.076H43.036H42.996H42.956H42.916H42.8761H42.8361H42.7961H42.7561H42.7162H42.6762H42.6362H42.5963H42.5563H42.5164H42.4764H42.4365H42.3965H42.3565H42.3166H42.2766H42.2367H42.1967H42.1567H42.1167H42.0768H42.0368H41.9968H41.9568H41.9168H41.8768H41.8367H41.7967H41.7567H41.7166H41.6766H41.6365H41.5964H41.5564H41.5163H41.4761H41.436H41.3959H41.3557H41.3156H41.2754H41.2352H41.195H41.1548H41.1145H41.0742H41.034H40.9937H40.9534H40.913H40.8727H40.8323H40.7919H40.7515H40.711H40.6706H40.6301H40.5896H40.549H40.5085H40.4679H40.4273H40.3867H40.346H40.3053H40.2646H40.2239H40.1831H40.1423H40.1015H40.0606H40.0197H39.9788H39.9379H39.8969H39.8559H39.8148H39.7738H39.7326H39.6915H39.6503H39.6091H39.5678H39.5265H39.4852H39.4439H39.4024H39.361H39.3195H39.278H39.2365H39.1948H39.1532H39.1115H39.0698H39.028H38.9862H38.9444H38.9025H38.8605H38.8186H38.7765H38.7344H38.6923H38.6501H38.6079H38.5657H38.5233H38.481H38.4386H38.3961H38.3536H38.311H38.2684H38.2257H38.183H38.1402H38.0974H38.0545H38.0116H37.9686H37.9256H37.8825H37.8393H37.7961H37.7528H37.7095H37.6661H37.6226H37.5791H37.5356H37.4919H37.4482H37.4045H37.3607H37.3168H37.2729H37.2289H37.1848H37.1407H37.0965H37.0522H37.0079H36.9635H36.919H36.8745H36.8299H36.7852H36.7405H36.6957H36.6508H36.6059H36.5609H36.5158H36.4706H36.4254H36.3801H36.3347H36.2892H36.2437H36.1981H36.1524H36.1067H36.0608H36.0149H35.9689H35.9229H35.8767H35.8305H35.7842H35.7378H35.6914H35.6448H35.5982H35.5515H35.5047H35.4578H35.4109H35.3638H35.3167H35.2695H35.2222H35.1748H35.1273H35.0798H35.0321H34.9844H34.9366H34.8886H34.8406H34.7926H34.7444H34.6961H34.6477H34.5993H34.5507H34.5021H34.4533H34.4045H34.3556H34.3066H34.2575H34.2082H34.1589H34.1095H34.06H34.0104H33.9607H33.9109H33.861H33.811H33.7609H33.7107H33.6604H33.61H33.5595H33.5089H33.4581H33.4073H33.3564H33.3054H33.2542H33.203H33.1516H33.1002H33.0486H32.9969H32.9451H32.8932H32.8412H32.7891H32.7369H32.6846H32.6321H32.5796H32.5269H32.4741H32.4212H32.3682H32.3151H32.2618H32.2085H32.155H32.1014H32.0477H31.9938H31.9399H31.8858H31.8316H31.7773H31.7229H31.6684H31.6137H31.5589H31.504H31.449H31.3938H31.3385H31.2831H31.2276H31.1719H31.1161H31.0602H31.0042H30.948H30.8917H30.8353H30.7787H30.7221H30.6653H30.6083H30.5512H30.494H30.4367H30.3792H30.3216H30.2639H30.206H30.148H30.0899H30.0316H29.9732H29.9147H29.856H29.7972H29.7382H29.6791H29.6199H29.5605H29.501H29.4413H29.3815H29.3216H29.2615H29.2013H29.1409H29.0804H29.0198H28.959H28.898H28.8369H28.7757H28.7143H28.6528H28.5911H28.5293C25.2156 75.4795 22.5293 72.7933 22.5293 69.4795V33.5295ZM72.2002 91.8994C80.3464 91.8994 86.9502 85.2956 86.9502 77.1494C86.9502 69.0032 80.3464 62.3994 72.2002 62.3994C64.054 62.3994 57.4502 69.0032 57.4502 77.1494C57.4502 85.2956 64.054 91.8994 72.2002 91.8994ZM74.4502 70.3994C74.4502 69.2948 73.5548 68.3994 72.4502 68.3994C71.3456 68.3994 70.4502 69.2948 70.4502 70.3994V75.3994H65.4502C64.3456 75.3994 63.4502 76.2948 63.4502 77.3994C63.4502 78.504 64.3456 79.3994 65.4502 79.3994H70.4502V84.3994C70.4502 85.504 71.3456 86.3994 72.4502 86.3994C73.5548 86.3994 74.4502 85.504 74.4502 84.3994V79.3994H79.4502C80.5548 79.3994 81.4502 78.504 81.4502 77.3994C81.4502 76.2948 80.5548 75.3994 79.4502 75.3994H74.4502V70.3994Z" fill="var(--spectrum-global-color-gray-800, #292929)"/>
</svg>
