<svg width="48" height="48" viewBox="0 0 48 48" xmlns="http://www.w3.org/2000/svg">
<path fill-rule="evenodd" d="M19 10.25C17.4804 10.25 16.25 11.4804 16.25 13V13.75H31.75V13C31.75 11.4804 30.5196 10.25 29 10.25H19ZM13.75 13V13.75H11C8.1005 13.75 5.75 16.1005 5.75 19V35C5.75 37.8995 8.1005 40.25 11 40.25H37C39.8995 40.25 42.25 37.8995 42.25 35V19C42.25 16.1005 39.8995 13.75 37 13.75H34.25V13C34.25 10.0996 31.9004 7.75 29 7.75H19C16.0996 7.75 13.75 10.0996 13.75 13ZM11 16.25C9.48122 16.25 8.25 17.4812 8.25 19V25.75H13.75V25C13.75 24.3096 14.3096 23.75 15 23.75C15.6904 23.75 16.25 24.3096 16.25 25V25.75H31.75V25C31.75 24.3096 32.3096 23.75 33 23.75C33.6904 23.75 34.25 24.3096 34.25 25V25.75H39.75V19C39.75 17.4812 38.5188 16.25 37 16.25H11ZM31.75 28.25V29C31.75 29.6904 32.3096 30.25 33 30.25C33.6904 30.25 34.25 29.6904 34.25 29V28.25H39.75V35C39.75 36.5188 38.5188 37.75 37 37.75H11C9.48122 37.75 8.25 36.5188 8.25 35V28.25H13.75V29C13.75 29.6904 14.3096 30.25 15 30.25C15.6904 30.25 16.25 29.6904 16.25 29V28.25H31.75Z" fill="var(--spectrum-global-color-gray-800, #292929)"/>
</svg>
