<svg width="96" height="97" viewBox="0 0 96 97" xmlns="http://www.w3.org/2000/svg">
<path fill-rule="evenodd" d="M42.0009 22.9922C42.0009 19.9546 44.4634 17.4922 47.5009 17.4922C50.5385 17.4922 53.0009 19.9546 53.0009 22.9922V26.4922H42.0009V22.9922ZM38.0009 30.4922V36.4922C38.0009 37.5968 38.8963 38.4922 40.0009 38.4922C41.1055 38.4922 42.0009 37.5968 42.0009 36.4922V30.4922L53.0009 30.4922V36.4922C53.0009 37.5968 53.8963 38.4922 55.0009 38.4922C56.1055 38.4922 57.0009 37.5968 57.0009 36.4922V30.4922H67.1909L71.1312 69.8952C71.4845 73.4273 68.7108 76.4922 65.161 76.4922L29.8408 76.4922C26.2911 76.4922 23.5174 73.4273 23.8706 69.8952L27.8109 30.4922H38.0009ZM38.0009 26.4922V22.9922C38.0009 17.7455 42.2542 13.4922 47.5009 13.4922C52.7476 13.4922 57.0009 17.7455 57.0009 22.9922V26.4922L67.1909 26.4922C69.246 26.4922 70.9666 28.0494 71.1711 30.0942L75.1114 69.4972C75.7001 75.384 71.0772 80.4922 65.161 80.4922H29.8408C23.9246 80.4922 19.3018 75.384 19.8904 69.4972L23.8307 30.0942C24.0352 28.0494 25.7559 26.4922 27.8109 26.4922L38.0009 26.4922Z" fill="var(--spectrum-global-color-gray-800, #292929)"/>
</svg>
