<svg width="48" height="48" viewBox="0 0 48 48" xmlns="http://www.w3.org/2000/svg">
<path fill-rule="evenodd" d="M15.0406 7.72359H23.8408C23.8773 7.72039 23.9143 7.71875 23.9516 7.71875C25.1396 7.71875 26.2829 8.17661 27.1413 9.00116L27.1425 9.00226L36.3467 17.8094L36.3468 17.8096C37.2636 18.6866 37.7787 19.9048 37.7787 21.1681V34.6315C37.7787 37.1865 35.7127 39.2667 33.158 39.2667H15.0406C12.4859 39.2667 10.4199 37.1865 10.4199 34.6315V12.3588C10.4199 9.80375 12.4859 7.72359 15.0406 7.72359ZM25.41 10.8046C25.04 10.449 24.5526 10.2418 24.0393 10.2206C24.0103 10.2226 23.9811 10.2236 23.9516 10.2236H15.0406C13.8759 10.2236 12.9199 11.1751 12.9199 12.3588V34.6315C12.9199 35.8152 13.8759 36.7667 15.0406 36.7667H33.158C34.3227 36.7667 35.2787 35.8152 35.2787 34.6315V21.1681C35.2787 20.5815 35.0384 20.0176 34.6186 19.616L34.6185 19.6159L25.412 10.8066L25.41 10.8046ZM23.246 32.287V29.7111H24.6639V32.287H23.246ZM22.1316 25.5553C21.3349 25.5553 20.746 26.2072 20.746 26.9409V32.5684C20.746 33.8004 21.7456 34.787 22.9646 34.787H24.9454C26.1774 34.787 27.1639 33.7874 27.1639 32.5684V26.9409C27.1639 26.1441 26.5121 25.5553 25.7783 25.5553H25.1965V21.9144H26.4786C27.169 21.9144 27.7286 21.3548 27.7286 20.6644C27.7286 19.9741 27.169 19.4144 26.4786 19.4144H25.1965V17.8221H26.4786C27.169 17.8221 27.7286 17.2625 27.7286 16.5721C27.7286 15.8818 27.169 15.3221 26.4786 15.3221H25.1965V14.5284C25.1965 13.8381 24.6369 13.2784 23.9465 13.2784H21.7188C21.0284 13.2784 20.4688 13.8381 20.4688 14.5284C20.4688 15.2188 21.0284 15.7784 21.7188 15.7784H22.6965V17.3659H21.7187C21.0284 17.3659 20.4687 17.9255 20.4687 18.6159C20.4687 19.3062 21.0284 19.8659 21.7187 19.8659H22.6965V21.4582H21.7187C21.0284 21.4582 20.4687 22.0178 20.4687 22.7082C20.4687 23.3985 21.0284 23.9582 21.7187 23.9582H22.6965V25.5553H22.1316Z" fill="var(--spectrum-global-color-gray-800, #292929)"/>
</svg>
