<svg width="96" height="96" viewBox="0 0 96 96" xmlns="http://www.w3.org/2000/svg">
<path fill-rule="evenodd" d="M63.9682 20.3166C68.6876 18.9064 73.5259 22.378 73.5259 27.3349V53.4672C73.5259 58.4335 68.6778 61.8952 63.9616 60.4851L63.9612 60.485L42.9508 54.1983L47.8245 64.7408C47.8321 64.7573 47.8395 64.7738 47.8467 64.7905C48.8107 67.0341 48.7453 69.2229 47.9018 71.0811C47.0784 72.895 45.5802 74.2542 43.8931 75.0609C42.0835 75.9262 39.9198 76.2221 37.8783 75.6578C35.783 75.0786 33.9375 73.622 32.8499 71.2408C32.1616 69.7339 29.9952 65.0082 27.9998 60.657C27.0023 58.4819 26.0479 56.4011 25.3429 54.8641L24.7171 53.4998H24.3617C17.032 53.4998 11 47.7073 11 40.3841C11 33.0767 17.0158 27.1998 24.3617 27.1998H40.8966L63.967 20.317L63.9682 20.3166ZM69.5259 27.3349C69.5259 25.1381 67.3466 23.4815 65.1129 24.1494L65.1117 24.1497L43.1992 30.687V50.0974L65.1075 56.6527C67.3448 57.3217 69.5259 55.6657 69.5259 53.4672V27.3349ZM15 40.3841C15 35.345 19.1653 31.1998 24.3617 31.1998H39.1389V49.4998H26H24.3617C19.1491 49.4998 15 45.4073 15 40.3841ZM29.1178 53.4998C29.8067 55.0018 30.7024 56.9544 31.6357 58.9897C33.6303 63.3392 35.7984 68.0685 36.4883 69.5789C37.0873 70.8903 37.9943 71.5399 38.944 71.8024C39.9473 72.0797 41.121 71.9527 42.1675 71.4523C43.1388 70.9878 43.8821 70.2591 44.2595 69.4277C44.6146 68.6454 44.7105 67.6391 44.1815 66.3928L38.2212 53.4998H29.1178ZM81.5293 49.8948C80.4762 49.5615 79.3523 50.145 79.019 51.198C78.6857 52.2511 79.2692 53.375 80.3223 53.7083L83.7722 54.8003C84.8253 55.1337 85.9492 54.5502 86.2825 53.4971C86.6159 52.444 86.0324 51.3201 84.9793 50.9868L81.5293 49.8948ZM86.2825 26.5323C86.6159 27.5854 86.0324 28.7093 84.9793 29.0426L81.5293 30.1346C80.4762 30.4679 79.3523 29.8844 79.019 28.8313C78.6857 27.7783 79.2692 26.6544 80.3223 26.321L83.7722 25.229C84.8253 24.8957 85.9492 25.4792 86.2825 26.5323ZM80.9258 38.0176C79.8212 38.0176 78.9258 38.9131 78.9258 40.0176C78.9258 41.1222 79.8212 42.0176 80.9258 42.0176H84.5438C85.6484 42.0176 86.5438 41.1222 86.5438 40.0176C86.5438 38.9131 85.6484 38.0176 84.5438 38.0176H80.9258Z" fill="var(--spectrum-global-color-gray-800, #292929)"/>
</svg>
