<svg width="160" height="160" viewBox="0 0 160 160" xmlns="http://www.w3.org/2000/svg">
<path fill-rule="evenodd" d="M27.9086 24C17.7696 24 9.50781 32.1749 9.50781 42.3114V93.0994C9.50781 103.236 17.7696 111.411 27.9086 111.411H36.8125C36.8132 117.631 36.7698 125.155 36.7258 131.158C36.6702 138.754 45.5995 142.749 51.2811 137.854L81.974 111.411L91.6328 111.411C93.842 111.411 95.6328 109.62 95.6328 107.411C95.6328 105.202 93.8419 103.411 91.6328 103.411L80.4885 103.411H79.0031L77.8777 104.38L46.0593 131.794C45.8928 131.937 45.7529 131.981 45.6378 131.995C45.5039 132.011 45.342 131.99 45.1809 131.916C45.0198 131.842 44.9041 131.737 44.8354 131.634C44.7777 131.548 44.7241 131.426 44.7256 131.217C44.7795 123.857 44.8329 114.172 44.8047 107.394L44.7881 103.411H40.8047H27.9086C22.1409 103.411 17.5078 98.7708 17.5078 93.0994V42.3114C17.5078 36.64 22.1409 32 27.9086 32H119.107C124.875 32 129.508 36.64 129.508 42.3114L129.508 63.875C129.508 66.0841 131.299 67.875 133.508 67.875C135.717 67.875 137.508 66.0841 137.508 63.875V42.3114C137.508 32.1749 129.246 24 119.107 24H27.9086ZM101.493 98.6348C101.493 85.1048 112.463 74.1348 125.993 74.1348C139.523 74.1348 150.493 85.1048 150.493 98.6348C150.493 112.165 139.523 123.135 125.993 123.135C112.463 123.135 101.493 112.165 101.493 98.6348ZM136.913 109.565C138.473 107.995 138.473 105.465 136.913 103.905L131.653 98.6448L136.913 93.3848C138.473 91.8148 138.473 89.2848 136.913 87.7248C135.353 86.1648 132.813 86.1648 131.253 87.7248L125.993 92.9848L120.733 87.7248C119.173 86.1648 116.633 86.1648 115.073 87.7248C113.513 89.2948 113.513 91.8248 115.073 93.3848L120.333 98.6448L115.073 103.905C113.513 105.475 113.513 108.005 115.073 109.565C115.853 110.345 116.873 110.735 117.903 110.735C118.933 110.735 119.953 110.345 120.733 109.565L125.993 104.305L131.253 109.565C132.033 110.345 133.053 110.735 134.083 110.735C135.113 110.735 136.133 110.345 136.913 109.565Z" fill="var(--spectrum-global-color-gray-800, #292929)"/>
</svg>
