<svg width="160" height="160" viewBox="0 0 160 160" xmlns="http://www.w3.org/2000/svg">
<path fill-rule="evenodd" d="M30.0191 65.6815C36.3343 44.0612 56.3045 28.28 79.9496 28.28C100.791 28.28 118.774 40.5389 127.071 58.2522L113.22 51.7947C111.218 50.8612 108.838 51.7275 107.905 53.7298C106.971 55.732 107.838 58.1119 109.84 59.0453L131.01 68.9153C132.963 69.8261 135.287 69.0254 136.265 67.1046L147.245 45.5346C148.247 43.5658 147.463 41.1574 145.495 40.1553C143.526 39.1531 141.118 39.9367 140.115 41.9054L133.931 54.0541C124.199 34.0641 103.691 20.28 79.9496 20.28C52.6546 20.28 29.6248 38.4988 22.34 63.4385C21.7206 65.559 22.9375 67.7802 25.058 68.3996C27.1786 69.019 29.3997 67.802 30.0191 65.6815ZM28.9918 91.8553C27.0379 90.9434 24.7129 91.7443 23.7351 93.6661L12.7551 115.246C11.7533 117.215 12.5373 119.623 14.5063 120.625C16.4752 121.627 18.8835 120.843 19.8853 118.874L26.0278 106.801C35.8155 126.637 56.241 140.29 79.8695 140.29C107.164 140.29 130.194 122.071 137.479 97.1315C138.098 95.011 136.882 92.7898 134.761 92.1705C132.641 91.5511 130.419 92.768 129.8 94.8885C123.485 116.509 103.515 132.29 79.8695 132.29C59.0875 132.29 41.1487 120.101 32.8196 102.47L46.7786 108.985C48.7804 109.919 51.1606 109.053 52.0949 107.052C53.0291 105.05 52.1637 102.67 50.1618 101.735L28.9918 91.8553Z" fill="var(--spectrum-global-color-gray-800, #292929)"/>
</svg>
