<svg width="160" height="160" viewBox="0 0 160 160" xmlns="http://www.w3.org/2000/svg">
<path fill-rule="evenodd" d="M24.21 24C24.21 21.7909 22.4191 20 20.21 20C18.0008 20 16.21 21.7909 16.21 24V140C16.21 142.209 18.0008 144 20.21 144H136C138.209 144 140 142.209 140 140C140 137.791 138.209 136 136 136H24.21V24ZM40 79.05C40 76.8409 41.7909 75.05 44 75.05H48C50.2091 75.05 52 76.8409 52 79.05V116C52 118.209 50.2091 120 48 120H44C41.7909 120 40 118.209 40 116V79.05ZM44 67.05C37.3726 67.05 32 72.4226 32 79.05V116C32 122.627 37.3726 128 44 128H48C54.6274 128 60 122.627 60 116V79.05C60 72.4226 54.6274 67.05 48 67.05H44ZM116 100C113.791 100 112 101.791 112 104V116C112 118.209 113.791 120 116 120H120C122.209 120 124 118.209 124 116V104C124 101.791 122.209 100 120 100H116ZM104 104C104 97.3726 109.373 92 116 92H120C126.627 92 132 97.3726 132 104V116C132 122.627 126.627 128 120 128H116C109.373 128 104 122.627 104 116V104ZM76 48C76 45.7909 77.7909 44 80 44H84C86.2091 44 88 45.7909 88 48V116C88 118.209 86.2091 120 84 120H80C77.7909 120 76 118.209 76 116V48ZM80 36C73.3726 36 68 41.3726 68 48V116C68 122.627 73.3726 128 80 128H84C90.6274 128 96 122.627 96 116V48C96 41.3726 90.6274 36 84 36H80Z" fill="var(--spectrum-global-color-gray-800, #292929)"/>
</svg>
