<svg width="160" height="160" viewBox="0 0 160 160" xmlns="http://www.w3.org/2000/svg">
<path fill-rule="evenodd" d="M35.9492 37.9102C29.3184 37.9102 23.9492 43.2793 23.9492 49.9102V53.9902H43.9992H135.969V49.9102C135.969 43.2793 130.6 37.9102 123.969 37.9102H35.9492ZM23.9492 110.03V61.9902H39.9992V122.03H35.9492C29.3184 122.03 23.9492 116.661 23.9492 110.03ZM97.2792 122.03H47.9992V61.9902H135.969V83.6402C135.969 85.8493 137.76 87.6402 139.969 87.6402C142.178 87.6402 143.969 85.8493 143.969 83.6402V49.9102C143.969 38.861 135.018 29.9102 123.969 29.9102H35.9492C24.9001 29.9102 15.9492 38.861 15.9492 49.9102V110.03C15.9492 121.079 24.9001 130.03 35.9492 130.03H97.2792C99.4884 130.03 101.279 128.239 101.279 126.03C101.279 123.821 99.4884 122.03 97.2792 122.03ZM107.379 117.98C107.379 104.43 118.359 93.4502 131.909 93.4502C145.459 93.4502 156.439 104.43 156.439 117.98C156.439 131.53 145.459 142.51 131.909 142.51C118.359 142.51 107.379 131.53 107.379 117.98ZM135.919 121.94H143.799C146.009 121.94 147.799 120.15 147.799 117.94C147.799 115.73 146.009 113.94 143.799 113.94H135.919V106.06C135.919 103.85 134.129 102.06 131.919 102.06C129.709 102.06 127.919 103.85 127.919 106.06V113.94H120.039C117.829 113.94 116.039 115.73 116.039 117.94C116.039 120.15 117.829 121.94 120.039 121.94H127.919V129.82C127.919 132.03 129.709 133.82 131.919 133.82C134.129 133.82 135.919 132.03 135.919 129.82V121.94Z" fill="var(--spectrum-global-color-gray-800, #292929)"/>
</svg>
