<svg width="48" height="48" viewBox="0 0 48 48" xmlns="http://www.w3.org/2000/svg">
<path fill-rule="evenodd" d="M21.5496 22.0528C22.2399 22.0512 22.7983 21.4903 22.7967 20.7999L22.7794 13.294C22.7778 12.6036 22.2169 12.0453 21.5265 12.0469C20.8362 12.0485 20.2778 12.6094 20.2794 13.2998L20.2897 17.7556C18.2822 15.6861 15.4697 14.3977 12.356 14.3977C6.25255 14.3977 1.30469 19.3455 1.30469 25.449C1.30469 31.5525 6.25255 36.5004 12.356 36.5004C14.8878 36.5004 17.2239 35.6475 19.0878 34.214C19.1167 34.1918 19.1444 34.1686 19.1708 34.1445C19.1824 34.136 19.1939 34.1272 19.2053 34.1183C20.5777 33.0408 21.8533 31.4784 22.8488 30.0516C23.8491 28.6179 24.6332 27.2241 25.0013 26.4119C25.2861 25.7834 25.9916 24.2888 26.9248 22.7196C27.7285 21.3681 28.6416 20.0644 29.5426 19.1879C29.5712 19.1661 29.599 19.1429 29.6261 19.1183C31.1455 17.7376 33.1607 16.8977 35.3749 16.8977C40.0977 16.8977 43.9263 20.7262 43.9263 25.449C43.9263 30.1718 40.0977 34.0004 35.3749 34.0004C32.487 34.0004 29.933 32.57 28.3828 30.3734C27.9847 29.8093 27.2048 29.6748 26.6407 30.0729C26.0767 30.4709 25.9421 31.2509 26.3402 31.8149C28.3388 34.6467 31.6403 36.5004 35.3749 36.5004C41.4784 36.5004 46.4263 31.5525 46.4263 25.449C46.4263 19.3455 41.4784 14.3977 35.3749 14.3977C32.8482 14.3977 30.5177 15.2468 28.6562 16.6739C28.6015 16.7049 28.5486 16.7404 28.4977 16.7805C27.0555 17.9179 25.754 19.7973 24.7761 21.4417C23.7775 23.1209 23.0291 24.7071 22.7242 25.38C22.4334 26.0217 21.7331 27.2816 20.7985 28.6211C19.8592 29.9674 18.7495 31.2977 17.6614 32.1519C17.6361 32.1718 17.6118 32.1924 17.5885 32.2138C17.5802 32.2199 17.572 32.226 17.5638 32.2323C16.1215 33.3415 14.3175 34.0004 12.356 34.0004C7.63326 34.0004 3.80469 30.1718 3.80469 25.449C3.80469 20.7262 7.63326 16.8977 12.356 16.8977C14.7957 16.8977 16.9971 17.9185 18.5563 19.5597L14.0379 19.5701C13.3475 19.5717 12.7892 20.1326 12.7908 20.823C12.7924 21.5133 13.3533 22.0717 14.0436 22.0701L21.5496 22.0528Z" fill="var(--spectrum-global-color-gray-800, #292929)"/>
</svg>
