<svg width="160" height="160" viewBox="0 0 160 160" xmlns="http://www.w3.org/2000/svg">
<path fill-rule="evenodd" d="M37.2135 32.8672C30.2227 32.8672 24.5469 38.543 24.5469 45.5339V98.7839C24.5469 100.993 22.756 102.784 20.5469 102.784C18.3377 102.784 16.5469 100.993 16.5469 98.7839V45.5339C16.5469 34.1247 25.8044 24.8672 37.2135 24.8672H90.4635C92.6727 24.8672 94.4635 26.658 94.4635 28.8672C94.4635 31.0763 92.6727 32.8672 90.4635 32.8672H37.2135ZM38.2139 55.8841C38.2139 50.7295 42.3925 46.5508 47.5472 46.5508H83.5661V82.9007C83.5661 84.2341 85.0494 85.034 86.1494 84.284L94.2661 78.8674C94.8328 78.5007 95.5494 78.5007 96.1161 78.8674L104.233 84.284C105.333 85.0174 106.816 84.2341 106.816 82.9007V46.5508H107.464C112.619 46.5508 116.797 50.7295 116.797 55.8841V95.0007C116.797 97.2099 118.588 99.0007 120.797 99.0007C123.006 99.0007 124.797 97.2099 124.797 95.0007V55.8841C124.797 46.3112 117.037 38.5508 107.464 38.5508H47.5472C37.9743 38.5508 30.2139 46.3112 30.2139 55.8841V115.801C30.2139 125.374 37.9743 133.134 47.5472 133.134H47.6502H47.753H47.8556H47.9579H48.0599H48.1618H48.2633H48.3647H48.4657H48.5666H48.6672H48.7676H48.8677H48.9676H49.0673H49.1667H49.2659H49.3648H49.4636H49.5621H49.6603H49.7584H49.8562H49.9537H50.0511H50.1482H50.2451H50.3418H50.4382H50.5344H50.6304H50.7262H50.8218H50.9171H51.0122H51.1071H51.2018H51.2963H51.3905H51.4846H51.5784H51.672H51.7654H51.8586H51.9516H52.0443H52.1369H52.2292H52.3214H52.4133H52.505H52.5965H52.6879H52.779H52.8699H52.9606H53.0511H53.1414H53.2315H53.3214H53.4112H53.5007H53.59H53.6791H53.7681H53.8568H53.9454H54.0337H54.1219H54.2099H54.2976H54.3852H54.4726H54.5599H54.6469H54.7338H54.8204H54.9069H54.9932H55.0794H55.1653H55.2511H55.3367H55.4221H55.5073H55.5924H55.6772H55.7619H55.8465H55.9308H56.015H56.099H56.1829H56.2665H56.35H56.4334H56.5165H56.5995H56.6824H56.7651H56.8476H56.9299H57.0121H57.0941H57.176H57.2577H57.3392H57.4206H57.5018H57.5829H57.6638H57.7446H57.8252H57.9057H57.986H58.0661H58.1461H58.226H58.3057H58.3852H58.4646H58.5439H58.623H58.702H58.7808H58.8595H58.9381H59.0165H59.0947H59.1729H59.2508H59.3287H59.4064H59.484H59.5614H59.6387H59.7159H59.7929H59.8698H59.9466H60.0232H60.0998H60.1762H60.2524H60.3285H60.4045H60.4804H60.5562H60.6318H60.7073H60.7827H60.858H60.9331H61.0082H61.0831H61.1579H61.2325H61.3071H61.3815H61.4559H61.5301H61.6042H61.6782H61.7521H61.8258H61.8995H61.973H62.0465H62.1198H62.1931H62.2662H62.3392H62.4121H62.4849H62.5577H62.6303H62.7028H62.7752H62.8475H62.9197H62.9919H63.0639H63.1358H63.2077H63.2794H63.351H63.4226H63.4941H63.5655H63.6367H63.7079H63.7791H63.8501H63.921H63.9919H64.0627H64.1333H64.2039H64.2745H64.3449H64.4153H64.4856H64.5558H64.6259H64.696H64.7659H64.8358H64.9057H64.9754H65.0451H65.1147H65.1843H65.2537H65.3231H65.3925H65.4617H65.5309H65.6001H65.6691H65.7381H65.8071H65.8759H65.9448H66.0135H66.0822H66.1509H66.2194H66.288H66.3564H66.4248H66.4932H66.5615H66.6297H66.6979H66.7661H66.8342H66.9022H66.9702H67.0382H67.1061H67.1739H67.2417H67.3095H67.3772H67.4449H67.5125H67.5801H67.6477H67.7152H67.7827H67.8501H67.9175H67.9849H68.0522H68.1195H68.1867H68.254H68.3212H68.3883H68.4555H68.5226H68.5896H68.6567H68.7237H68.7907H68.8577H68.9246H68.9915H69.0584H69.1253H69.1921H69.259H69.3258H69.3926H69.4593H69.5261H69.5928H69.6596H69.7263H69.793H69.8597H69.9263H69.993H70.0597H70.1263H70.1929H70.2596H70.3262H70.3928H70.4594H70.526H70.5926H70.6592H70.7258H70.7924H70.859H70.9256H70.9922H71.0588H71.1254H71.192H71.2586H71.3252H71.3918H71.4585H71.5251H71.5917H71.6584H71.7251H71.7917H71.8584H71.9251H71.9919H72.0586H72.1253H72.1921H72.2589H72.3257H72.3925H72.4593H72.5262H72.5931H72.66H72.7269H72.7939H72.8608H72.9278H72.9949H73.0619H73.129H73.1961H73.2633H73.3304H73.3976H73.4649H73.5322H73.5995H73.6668H73.7342H73.8016H73.869H73.9365H74.004H74.0716H74.1392H74.2069H74.2746H74.3423H74.4101H74.4779H74.5458H74.6137H74.6817H74.7497H74.8177H74.8858H74.954H75.0222H75.0905H75.1588H75.2272H75.2956H75.3641H75.4326H75.5012H75.5699H75.6386H75.7074H75.7762H75.8451H75.9141H75.9831H76.0522H76.1214H76.1906H76.2599H76.3292H76.3987H76.4682H76.5377H76.6074H76.6771H76.7468H76.8167H76.8866H76.9566H77.0267H77.0969H77.1671H77.2374H77.3078H77.3783H77.4488H77.5195H77.5902H77.661H77.7319H77.8028H77.8739H77.945H78.0163H78.0876H78.159H78.2305H78.3021H78.3738H78.4456H78.5174H78.5894H78.6615H78.7336H78.8059H78.8782H78.9507H79.0232H79.0959H79.1686H79.2415H79.3144H79.3875H79.4606H79.5339H79.6073H79.6808H79.7544H79.8281H79.9019H79.9758H80.0498H80.124H80.1982H80.2726H80.3471H80.4217H80.4964H80.5712H80.6462H80.7212H80.7964H80.8717H80.9472H81.0227H81.0984H81.1742H81.2501H81.3262H81.4024H81.4787H81.5551H81.6317H81.7083H81.7852H81.8621H81.9392H82.0164H82.0938H82.1712H82.2489H82.3266H82.4045H82.4826H82.5607H82.6391H82.7175H82.7961H82.8748H82.9537H83.0327H83.1119H83.1912H83.2707H83.3503H83.43H83.5099H83.59H83.6702H83.7506H83.8311H83.9117H83.9926H84.0735H84.1547H84.2359H84.3174H84.399H84.4807H84.5627H84.6447H84.727H84.8094H84.892H84.9747H85.0576H85.1406H85.2239H85.3073H85.3908H85.4746H85.5585H85.6425H85.7268H85.8112H85.8958H85.9806H86.0655H86.1506H86.2359H86.3214H86.407H86.4928H86.5789H86.665C88.8742 133.134 90.665 131.343 90.665 129.134C90.665 126.925 88.8742 125.134 86.665 125.134H86.5789H86.4928H86.407H86.3214H86.2359H86.1506H86.0655H85.9806H85.8958H85.8112H85.7268H85.6425H85.5585H85.4746H85.3908H85.3073H85.2239H85.1406H85.0576H84.9747H84.892H84.8094H84.727H84.6447H84.5627H84.4807H84.399H84.3174H84.2359H84.1547H84.0735H83.9926H83.9117H83.8311H83.7506H83.6702H83.59H83.5099H83.43H83.3503H83.2707H83.1912H83.1119H83.0327H82.9537H82.8748H82.7961H82.7175H82.6391H82.5607H82.4826H82.4045H82.3266H82.2489H82.1712H82.0938H82.0164H81.9392H81.8621H81.7852H81.7083H81.6317H81.5551H81.4787H81.4024H81.3262H81.2501H81.1742H81.0984H81.0227H80.9472H80.8717H80.7964H80.7212H80.6462H80.5712H80.4964H80.4217H80.3471H80.2726H80.1982H80.124H80.0498H79.9758H79.9019H79.8281H79.7544H79.6808H79.6073H79.5339H79.4606H79.3875H79.3144H79.2415H79.1686H79.0959H79.0232H78.9507H78.8782H78.8059H78.7336H78.6615H78.5894H78.5174H78.4456H78.3738H78.3021H78.2305H78.159H78.0876H78.0163H77.945H77.8739H77.8028H77.7319H77.661H77.5902H77.5195H77.4488H77.3783H77.3078H77.2374H77.1671H77.0969H77.0267H76.9566H76.8866H76.8167H76.7468H76.6771H76.6074H76.5377H76.4682H76.3987H76.3292H76.2599H76.1906H76.1214H76.0522H75.9831H75.9141H75.8451H75.7762H75.7074H75.6386H75.5699H75.5012H75.4326H75.3641H75.2956H75.2272H75.1588H75.0905H75.0222H74.954H74.8858H74.8177H74.7497H74.6817H74.6137H74.5458H74.4779H74.4101H74.3423H74.2746H74.2069H74.1392H74.0716H74.004H73.9365H73.869H73.8016H73.7342H73.6668H73.5995H73.5322H73.4649H73.3976H73.3304H73.2633H73.1961H73.129H73.0619H72.9949H72.9278H72.8608H72.7939H72.7269H72.66H72.5931H72.5262H72.4593H72.3925H72.3257H72.2589H72.1921H72.1253H72.0586H71.9919H71.9251H71.8584H71.7917H71.7251H71.6584H71.5917H71.5251H71.4585H71.3918H71.3252H71.2586H71.192H71.1254H71.0588H70.9922H70.9256H70.859H70.7924H70.7258H70.6592H70.5926H70.526H70.4594H70.3928H70.3262H70.2596H70.1929H70.1263H70.0597H69.993H69.9263H69.8597H69.793H69.7263H69.6596H69.5928H69.5261H69.4593H69.3926H69.3258H69.259H69.1921H69.1253H69.0584H68.9915H68.9246H68.8577H68.7907H68.7237H68.6567H68.5896H68.5226H68.4555H68.3883H68.3212H68.254H68.1867H68.1195H68.0522H67.9849H67.9175H67.8501H67.7827H67.7152H67.6477H67.5801H67.5125H67.4449H67.3772H67.3095H67.2417H67.1739H67.1061H67.0382H66.9702H66.9022H66.8342H66.7661H66.6979H66.6297H66.5615H66.4932H66.4248H66.3564H66.288H66.2194H66.1509H66.0822H66.0135H65.9448H65.8759H65.8071H65.7381H65.6691H65.6001H65.5309H65.4617H65.3925H65.3231H65.2537H65.1843H65.1147H65.0451H64.9754H64.9057H64.8358H64.7659H64.696H64.6259H64.5558H64.4856H64.4153H64.3449H64.2745H64.2039H64.1333H64.0627H63.9919H63.921H63.8501H63.7791H63.7079H63.6367H63.5655H63.4941H63.4226H63.351H63.2794H63.2077H63.1358H63.0639H62.9919H62.9197H62.8475H62.7752H62.7028H62.6303H62.5577H62.4849H62.4121H62.3392H62.2662H62.1931H62.1198H62.0465H61.973H61.8995H61.8258H61.7521H61.6782H61.6042H61.5301H61.4559H61.3815H61.3071H61.2325H61.1579H61.0831H61.0082H60.9331H60.858H60.7827H60.7073H60.6318H60.5562H60.4804H60.4045H60.3285H60.2524H60.1762H60.0998H60.0232H59.9466H59.8698H59.7929H59.7159H59.6387H59.5614H59.484H59.4064H59.3287H59.2508H59.1729H59.0947H59.0165H58.9381H58.8595H58.7808H58.702H58.623H58.5439H58.4646H58.3852H58.3057H58.226H58.1461H58.0661H57.986H57.9057H57.8252H57.7446H57.6638H57.5829H57.5018H57.4206H57.3392H57.2577H57.176H57.0941H57.0121H56.9299H56.8476H56.7651H56.6824H56.5995H56.5165H56.4334H56.35H56.2665H56.1829H56.099H56.015H55.9308H55.8465H55.7619H55.6772H55.5924H55.5073H55.4221H55.3367H55.2511H55.1653H55.0794H54.9932H54.9069H54.8204H54.7338H54.6469H54.5599H54.4726H54.3852H54.2976H54.2099H54.1219H54.0337H53.9454H53.8568H53.7681H53.6791H53.59H53.5007H53.4112H53.3214H53.2315H53.1414H53.0511H52.9606H52.8699H52.779H52.6879H52.5965H52.505H52.4133H52.3214H52.2292H52.1369H52.0443H51.9516H51.8586H51.7654H51.672H51.5784H51.4846H51.3905H51.2963H51.2018H51.1071H51.0122H50.9171H50.8218H50.7262H50.6304H50.5344H50.4382H50.3418H50.2451H50.1482H50.0511H49.9537H49.8562H49.7584H49.6603H49.5621H49.4636H49.3648H49.2659H49.1667H49.0673H48.9676H48.8677H48.7676H48.6672H48.5666H48.4657H48.3647H48.2633H48.1618H48.0599H47.9579H47.8556H47.753H47.6502H47.5472C42.3925 125.134 38.2139 120.955 38.2139 115.801V55.8841ZM120.333 153.166C133.91 153.166 144.917 142.16 144.917 128.583C144.917 115.006 133.91 104 120.333 104C106.756 104 95.75 115.006 95.75 128.583C95.75 142.16 106.756 153.166 120.333 153.166ZM124.75 117.333C124.75 115.124 122.959 113.333 120.75 113.333C118.541 113.333 116.75 115.124 116.75 117.333V125H109.083C106.874 125 105.083 126.791 105.083 129C105.083 131.209 106.874 133 109.083 133H116.75V140.666C116.75 142.875 118.541 144.666 120.75 144.666C122.959 144.666 124.75 142.875 124.75 140.666V133H132.416C134.625 133 136.416 131.209 136.416 129C136.416 126.791 134.625 125 132.416 125H124.75V117.333Z" fill="var(--spectrum-global-color-gray-800, #292929)"/>
</svg>
