<svg width="48" height="48" viewBox="0 0 48 48" xmlns="http://www.w3.org/2000/svg">
<path fill-rule="evenodd" d="M18.2494 15.25C18.2494 11.7156 20.9036 9 23.9994 9C27.0953 9 29.7494 11.7156 29.7494 15.25C29.7494 18.7844 27.0953 21.5 23.9994 21.5C20.9036 21.5 18.2494 18.7844 18.2494 15.25ZM23.9994 6.5C19.3633 6.5 15.7494 10.5001 15.7494 15.25C15.7494 19.9999 19.3633 24 23.9994 24C28.6356 24 32.2494 19.9999 32.2494 15.25C32.2494 10.5001 28.6356 6.5 23.9994 6.5ZM11.5309 38.0927C12.56 32.1476 17.7921 27.5701 23.9991 27.5701C30.2062 27.5701 35.4383 32.1476 36.4674 38.0927C36.5444 38.5423 36.1902 38.9701 35.7191 38.9701H23.9991H12.2791C11.808 38.9701 11.4539 38.5423 11.5309 38.0927ZM11.5309 38.0927C11.531 38.0925 11.531 38.0923 11.531 38.0921L10.2991 37.8801L11.5308 38.0932C11.5309 38.093 11.5309 38.0929 11.5309 38.0927ZM23.9991 25.0701C16.5464 25.0701 10.2986 30.5522 9.06745 37.6669L9.06727 37.668C8.72469 39.6582 10.2704 41.4701 12.2791 41.4701H23.9991H35.7191C37.7278 41.4701 39.2736 39.6582 38.931 37.668L38.9308 37.6669C37.6997 30.5522 31.4519 25.0701 23.9991 25.0701Z" fill="var(--spectrum-global-color-gray-800, #292929)"/>
</svg>
