<svg width="48" height="48" viewBox="0 0 48 48" xmlns="http://www.w3.org/2000/svg">
<path fill-rule="evenodd" d="M30.655 10.1602C30.655 6.01881 34.0137 2.66016 38.155 2.66016C42.2964 2.66016 45.655 6.01881 45.655 10.1602C45.655 14.3015 42.2964 17.6602 38.155 17.6602C34.0137 17.6602 30.655 14.3015 30.655 10.1602ZM41.5137 13.5188C41.9991 13.0333 41.9991 12.2506 41.5137 11.7652H41.5335L39.9285 10.1602L41.5335 8.55514C42.0189 8.06967 42.0189 7.28697 41.5335 6.8015C41.048 6.31603 40.2653 6.31603 39.7798 6.8015L38.1748 8.40652L36.5698 6.8015C36.0843 6.31603 35.3016 6.31603 34.8162 6.8015C34.3307 7.28697 34.3307 8.06967 34.8162 8.55514L36.4212 10.1602L34.8162 11.7652C34.3307 12.2506 34.3307 13.0333 34.8162 13.5188C35.054 13.7665 35.371 13.8854 35.688 13.8854C36.0051 13.8854 36.3221 13.7566 36.5599 13.5188L38.1649 11.9138L39.7699 13.5188C40.0077 13.7665 40.3248 13.8854 40.6418 13.8854C40.9588 13.8854 41.2759 13.7566 41.5137 13.5188ZM28.4562 9.92049C29.1372 9.807 29.5972 9.16296 29.4837 8.482C29.3754 7.83195 28.7836 7.38324 28.1377 7.44256C28.1247 7.44306 28.1048 7.44369 28.0765 7.44439C28.004 7.44618 27.898 7.44793 27.7582 7.44958C27.4799 7.45285 27.0841 7.45552 26.591 7.45764C25.6057 7.46187 24.2421 7.46386 22.6753 7.4642C19.5421 7.46488 15.602 7.45899 12.2637 7.45144C9.24382 7.4446 7.59489 10.9707 9.53287 13.2847L20.2481 26.0793V39.9625C20.2481 41.9033 22.5405 42.9336 23.9919 41.6451L27.0038 38.9712C27.4848 38.5442 27.7601 37.9318 27.7601 37.2886V26.0758L33.4317 19.2353C33.8724 18.7039 33.7988 17.9159 33.2673 17.4752C32.7359 17.0346 31.9478 17.1082 31.5072 17.6397L25.778 24.5495C25.4433 24.9532 25.2601 25.4612 25.2601 25.9856V37.1762L22.7481 39.4063V25.9884C22.7481 25.4602 22.5623 24.9488 22.2231 24.5438L11.4495 11.6796C10.875 10.9936 11.3648 9.94941 12.258 9.95143C15.5974 9.95899 19.5397 9.96488 22.6758 9.9642C24.2436 9.96386 25.6113 9.96187 26.6018 9.95762C27.0966 9.95549 27.4998 9.95279 27.7876 9.9494C27.9309 9.94772 28.0497 9.94582 28.1384 9.94362C28.1821 9.94254 28.224 9.94125 28.2604 9.93961L28.2615 9.93957C28.2733 9.93913 28.3649 9.9357 28.4562 9.92049ZM28.1597 7.44153C28.1614 7.44142 28.1621 7.44135 28.1619 7.44133C28.1614 7.4413 28.1565 7.44152 28.1482 7.44213C28.1538 7.44187 28.1575 7.44167 28.1597 7.44153Z" fill="var(--spectrum-global-color-gray-800, #292929)"/>
</svg>
