<svg width="48" height="48" viewBox="0 0 48 48" xmlns="http://www.w3.org/2000/svg">
<path fill-rule="evenodd" d="M17.5688 9.88889C17.8581 9.39089 18.5775 9.39128 18.8662 9.8896L27.6168 24.9912C27.9065 25.4912 27.5457 26.1172 26.9678 26.1172H9.44433C8.86608 26.1172 8.50536 25.4905 8.79582 24.9905L17.5688 9.88889ZM21.0293 8.6362C19.778 6.47681 16.6607 6.47509 15.4071 8.63309L6.63411 23.7347C5.37544 25.9013 6.93861 28.6172 9.44433 28.6172H26.9678C29.472 28.6172 31.0353 25.9044 29.7799 23.7378L21.0293 8.6362ZM28.4778 17.2373C28.5462 17.236 28.6148 17.2354 28.6836 17.2354C34.5887 17.2354 39.3757 22.0224 39.3757 27.9275C39.3757 33.8326 34.5887 38.6196 28.6836 38.6196C23.8517 38.6196 19.7654 35.4135 18.4421 31.0098C18.2434 30.3487 17.5464 29.9737 16.8852 30.1724C16.2241 30.3711 15.8492 31.0681 16.0478 31.7293C17.6799 37.1605 22.7178 41.1196 28.6836 41.1196C35.9694 41.1196 41.8757 35.2133 41.8757 27.9275C41.8757 20.6417 35.9694 14.7354 28.6836 14.7354C28.5991 14.7354 28.5148 14.7362 28.4307 14.7377C27.7405 14.7507 27.1915 15.3208 27.2045 16.0111C27.2175 16.7013 27.7875 17.2503 28.4778 17.2373Z" fill="var(--spectrum-global-color-gray-800, #292929)"/>
</svg>
