<svg width="160" height="160" viewBox="0 0 160 160" xmlns="http://www.w3.org/2000/svg">
<path fill-rule="evenodd" d="M80.4236 26.8537C72.5904 19.3412 60.1528 19.4407 52.4414 27.152L22.0114 57.582C14.1993 65.3941 14.1993 78.0568 22.0114 85.8689L30.8348 94.6923C30.9305 94.7944 31.0281 94.8953 31.1276 94.995C31.195 95.0627 31.2646 95.1276 31.3362 95.1899C33.8905 97.644 37.1786 98.8857 40.4754 98.9149C40.5066 102.298 41.8114 105.672 44.3876 108.255C44.455 108.323 44.5246 108.388 44.5962 108.45C47.1504 110.904 50.4384 112.146 53.7351 112.175C53.7636 115.561 55.0683 118.939 57.6471 121.525C57.7145 121.593 57.7841 121.658 57.8558 121.72C60.4128 124.177 63.7051 125.418 67.0054 125.445C67.0366 128.828 68.3414 132.202 70.9176 134.785C70.985 134.853 71.0546 134.918 71.1262 134.98C76.3619 140.01 84.6806 139.947 89.8383 134.789L107.428 117.199C107.44 117.187 107.452 117.175 107.464 117.162L137.998 86.6289C145.81 78.8168 145.81 66.1541 137.998 58.3421L107.568 27.9121C100.126 20.4703 88.2827 20.1175 80.4236 26.8537ZM86.1069 32.5407L100.778 47.212C106 52.4341 106 60.8968 100.778 66.1189C95.5562 71.341 87.0935 71.341 81.8714 66.1189L67.1348 51.3823L36.7883 81.7289C34.7565 83.7607 34.6892 87.0278 36.6051 89.1489L36.7883 89.3321C36.7896 89.3334 36.7909 89.3347 36.7923 89.3361C36.7943 89.338 36.7963 89.3401 36.7983 89.342C38.841 91.3848 42.1157 91.4385 44.2232 89.5033C44.2787 89.4458 44.3347 89.3887 44.3914 89.3321C44.4504 89.2731 44.5108 89.2163 44.5724 89.1618L51.6573 82.1062C53.2226 80.5473 55.7553 80.5526 57.3141 82.1179C58.873 83.6832 58.8677 86.2159 57.3024 87.7748L50.0483 94.9989L50.0465 95.0007C50.0253 95.0218 50.0041 95.0429 49.9828 95.0639C49.9502 95.0961 49.9174 95.1281 49.8846 95.1599C47.9931 97.2232 48.0021 100.418 49.9291 102.479C49.973 102.519 50.016 102.56 50.0583 102.602C52.1562 104.7 55.5535 104.7 57.6514 102.602L64.9008 95.3521C66.4629 93.7899 68.9955 93.7898 70.5577 95.3519C72.1199 96.9139 72.1199 99.4466 70.5579 101.009L63.3084 108.259L63.3083 108.259C61.2539 110.313 61.2078 113.63 63.1886 115.748C63.2325 115.789 63.2756 115.83 63.3178 115.872C65.4157 117.97 68.813 117.97 70.9109 115.872L78.0909 108.692C78.0964 108.687 78.1019 108.681 78.1074 108.676C78.1151 108.668 78.1229 108.66 78.1306 108.653L78.1814 108.602C79.7435 107.04 82.2762 107.04 83.8383 108.602C85.4004 110.164 85.4004 112.697 83.8383 114.259L76.5783 121.519C74.5242 123.573 74.478 126.89 76.4591 129.009C76.503 129.049 76.546 129.09 76.5883 129.132C78.6862 131.23 82.0835 131.23 84.1814 129.132L98.4241 114.889C98.4363 114.877 98.4486 114.864 98.4609 114.852L132.341 80.9721C137.029 76.2842 137.029 68.6868 132.341 63.9989L101.911 33.5689C97.5954 29.2533 90.8141 28.9106 86.1069 32.5407ZM28.1253 80.6691C28.7771 78.9943 29.7791 77.4244 31.1314 76.0721L64.1367 43.0667C64.1896 43.0073 64.2444 42.949 64.3014 42.892C65.0847 42.1087 66.1121 41.7182 67.1388 41.7205C68.1628 41.7202 69.187 42.1107 69.9683 42.8921C70.0252 42.949 70.08 43.0072 70.1328 43.0666L87.5283 60.462C89.6262 62.5599 93.0235 62.5599 95.1214 60.462C97.2193 58.3641 97.2193 54.9668 95.1214 52.8689L77.5514 35.2989C77.4412 35.1886 77.3387 35.0735 77.244 34.9543C77.1432 34.8715 77.0456 34.783 76.9514 34.6889L75.0714 32.8089C70.3835 28.121 62.7862 28.121 58.0983 32.8089L27.6683 63.2389C22.9804 67.9268 22.9804 75.5241 27.6683 80.212L28.1253 80.6691Z" fill="var(--spectrum-global-color-gray-800, #292929)"/>
</svg>
