<svg width="48" height="48" viewBox="0 0 48 48" xmlns="http://www.w3.org/2000/svg">
<path fill-rule="evenodd" d="M23.5156 6C24.206 6 24.7656 6.55964 24.7656 7.25V9.02885C24.7656 9.7192 24.206 10.2788 23.5156 10.2788C22.8253 10.2788 22.2656 9.7192 22.2656 9.02885V7.25C22.2656 6.55964 22.8253 6 23.5156 6ZM24.4705 15.9196C23.7802 15.9196 23.2205 16.4792 23.2205 17.1696C23.2205 17.8599 23.7802 18.4196 24.4705 18.4196C26.1278 18.4196 27.3349 19.6636 27.3349 21.0346C27.3349 21.7249 27.8946 22.2846 28.5849 22.2846C29.2753 22.2846 29.8349 21.7249 29.8349 21.0346C29.8349 18.1387 27.3598 15.9196 24.4705 15.9196ZM20.905 36.2967V37.9335H26.101V36.2967H20.905ZM26.101 33.7967V32.1608C26.101 30.5188 27.0688 29.1943 28.1436 28.355C29.9601 26.9367 31.133 24.7069 31.133 22.1928C31.133 17.8883 27.6996 14.4304 23.503 14.4304C19.3065 14.4304 15.873 17.8883 15.873 22.1928C15.873 24.7069 17.0459 26.9367 18.8624 28.355C19.9373 29.1943 20.905 30.5188 20.905 32.1608V33.7967H26.101ZM28.601 35.0404V32.1608C28.601 31.5465 28.9768 30.8763 29.6822 30.3255C32.0861 28.4485 33.633 25.5009 33.633 22.1928C33.633 16.5426 29.1151 11.9304 23.503 11.9304C17.891 11.9304 13.373 16.5426 13.373 22.1928C13.373 25.5009 14.92 28.4485 17.3239 30.3255C18.0293 30.8763 18.405 31.5465 18.405 32.1608V38.0015C18.405 39.3467 19.4968 40.4335 20.839 40.4335H26.167C27.5093 40.4335 28.601 39.3467 28.601 38.0015V35.0529C28.601 35.0508 28.601 35.0488 28.601 35.0467C28.601 35.0446 28.601 35.0425 28.601 35.0404ZM7.45312 22.0393C7.45312 21.3489 8.01277 20.7893 8.70312 20.7893H10.4821C11.1724 20.7893 11.7321 21.3489 11.7321 22.0393C11.7321 22.7296 11.1724 23.2893 10.4821 23.2893H8.70312C8.01277 23.2893 7.45312 22.7296 7.45312 22.0393ZM36.5477 20.7893C35.8573 20.7893 35.2977 21.3489 35.2977 22.0393C35.2977 22.7296 35.8573 23.2893 36.5477 23.2893H38.3266C39.017 23.2893 39.5766 22.7296 39.5766 22.0393C39.5766 21.3489 39.017 20.7893 38.3266 20.7893H36.5477ZM34.8737 12.4666C35.3623 11.9788 35.363 11.1874 34.8752 10.6988C34.3875 10.2102 33.5961 10.2095 33.1075 10.6973L31.8465 11.9561C31.3579 12.4438 31.3573 13.2353 31.845 13.7238C32.3327 14.2124 33.1242 14.2131 33.6128 13.7254L34.8737 12.4666ZM12.1552 10.6988C12.6429 10.2103 13.4344 10.2096 13.9229 10.6973L15.1839 11.9561C15.6725 12.4438 15.6732 13.2353 15.1854 13.7239C14.6977 14.2124 13.9062 14.2131 13.4177 13.7254L12.1567 12.4666C11.6681 11.9789 11.6674 11.1874 12.1552 10.6988Z" fill="var(--spectrum-global-color-gray-800, #292929)"/>
</svg>
