<svg width="160" height="160" viewBox="0 0 160 160" xmlns="http://www.w3.org/2000/svg">
<path fill-rule="evenodd" d="M16 42.3114C16 32.1749 24.2618 24 34.4008 24H125.599C135.738 24 144 32.1749 144 42.3114V93.0994C144 103.236 135.738 111.411 125.599 111.411H88.4662L57.7733 137.854C52.0917 142.749 43.1624 138.754 43.218 131.158C43.2619 125.155 43.3054 117.631 43.3047 111.411H34.4008C24.2618 111.411 16 103.236 16 93.0994V42.3114ZM34.4008 32C28.6331 32 24 36.64 24 42.3114V93.0994C24 98.7708 28.6331 103.411 34.4008 103.411H47.2969H51.2803L51.2969 107.394C51.3251 114.172 51.2717 123.857 51.2178 131.217C51.2162 131.426 51.2699 131.548 51.3276 131.634C51.3963 131.737 51.512 131.842 51.6731 131.916C51.8342 131.99 51.996 132.011 52.13 131.995C52.2451 131.981 52.385 131.937 52.5515 131.794L84.3699 104.38L85.4953 103.411H86.9807H125.599C131.367 103.411 136 98.7708 136 93.0994V42.3114C136 36.64 131.367 32 125.599 32H34.4008Z" fill="var(--spectrum-global-color-gray-800, #292929)"/>
</svg>
