<svg width="160" height="160" viewBox="0 0 160 160" xmlns="http://www.w3.org/2000/svg">
<path fill-rule="evenodd" d="M20.9697 44C20.9697 37.3726 26.3423 32 32.9697 32H127.03C133.657 32 139.03 37.3726 139.03 44V88C139.03 94.6274 133.657 100 127.03 100H32.9697C26.3423 100 20.9697 94.6274 20.9697 88V44ZM32.9697 24C21.924 24 12.9697 32.9543 12.9697 44V88C12.9697 99.0457 21.924 108 32.9697 108H73V128H58.9902C56.7811 128 54.9902 129.791 54.9902 132C54.9902 134.209 56.7811 136 58.9902 136H101.01C103.219 136 105.01 134.209 105.01 132C105.01 129.791 103.219 128 101.01 128H87V108H127.03C138.075 108 147.03 99.0457 147.03 88V44C147.03 32.9543 138.075 24 127.03 24H32.9697ZM76.0205 44.5C76.0205 46.9862 78.0343 49 80.5205 49C83.0068 49 85.0205 46.9862 85.0205 44.5C85.0205 42.0138 83.0068 40 80.5205 40H80.5093C78.0343 40 76.0205 42.0138 76.0205 44.5Z" fill="var(--spectrum-global-color-gray-800, #292929)"/>
</svg>
