<svg width="96" height="96" viewBox="0 0 96 96" xmlns="http://www.w3.org/2000/svg">
<path fill-rule="evenodd" d="M75.6192 27.2577L79.8523 26.4117C81.5167 26.0801 81.7585 23.7964 80.1965 23.1234L76.2328 21.4156C75.7112 21.1892 75.3336 20.7242 75.2207 20.1641L74.3747 15.931C74.0431 14.2666 71.7595 14.0248 71.0864 15.5868L69.3787 19.5505C69.1522 20.0721 68.6872 20.4497 68.1272 20.5626L63.8941 21.4086C62.2296 21.7402 61.9878 24.0239 63.5499 24.6969L67.5135 26.4047C68.0351 26.6311 68.4127 27.0961 68.5256 27.6562L69.3716 31.8893C69.7032 33.5537 71.9869 33.7955 72.66 32.2335L74.3677 28.2698C74.5942 27.7482 75.0591 27.3706 75.6192 27.2577ZM40.643 30.7358L44.1394 30.037C45.5141 29.7631 45.7138 27.8769 44.4237 27.321L41.1498 25.9105C40.719 25.7234 40.4071 25.3394 40.3139 24.8768L39.6151 21.3804C39.3412 20.0057 37.455 19.806 36.8991 21.0961L35.4886 24.37C35.3015 24.8008 34.9175 25.1127 34.4549 25.2059L30.9586 25.9047C29.5838 26.1786 29.3841 28.0648 30.6743 28.6207L33.9481 30.0312C34.3789 30.2183 34.6908 30.6023 34.784 31.0649L35.4828 34.5612C35.7567 35.936 37.6429 36.1357 38.1988 34.8455L39.6093 31.5717C39.7964 31.1409 40.1804 30.829 40.643 30.7358ZM78.6694 55.2558L75.173 55.9545C74.7104 56.0478 74.3264 56.3596 74.1393 56.7905L72.7288 60.0643C72.1729 61.3545 70.2867 61.1547 70.0128 59.78L69.3141 56.2836C69.2208 55.821 68.9089 55.437 68.4781 55.25L65.2043 53.8394C63.9141 53.2835 64.1139 51.3973 65.4886 51.1234L68.9849 50.4247C69.4475 50.3314 69.8316 50.0195 70.0186 49.5887L71.4291 46.3149C71.9851 45.0247 73.8713 45.2245 74.1452 46.5992L74.8439 50.0955C74.9372 50.5581 75.249 50.9422 75.6799 51.1292L78.9537 52.5398C80.2439 53.0957 80.0441 54.9819 78.6694 55.2558ZM52.1471 32.8704C55.1824 29.835 60.1037 29.835 63.1391 32.8704C66.1744 35.9057 66.1744 40.827 63.1391 43.8623L26.5028 80.4985C23.4675 83.5339 18.5462 83.5339 15.5109 80.4985C12.4755 77.4632 12.4755 72.5419 15.5109 69.5066L52.1471 32.8704ZM60.3106 35.6988C58.8374 34.2255 56.4488 34.2255 54.9755 35.6988L48.9171 41.7572L54.2522 47.0923L60.3106 41.0339C61.7839 39.5606 61.7839 37.172 60.3106 35.6988ZM51.4238 49.9207L46.0887 44.5856L18.3393 72.335C16.8661 73.8083 16.8661 76.1969 18.3393 77.6701C19.8126 79.1433 22.2012 79.1433 23.6744 77.6701L51.4238 49.9207Z" fill="var(--spectrum-global-color-gray-800, #292929)"/>
</svg>
