<svg width="96" height="96" viewBox="0 0 96 96" xmlns="http://www.w3.org/2000/svg">
<path fill-rule="evenodd" d="M47.6797 26.02C47.6797 22.7063 50.366 20.02 53.6797 20.02H69.9797C73.2934 20.02 75.9797 22.7063 75.9797 26.02V42.32C75.9797 45.6337 73.2934 48.32 69.9797 48.32H53.6797C50.366 48.32 47.6797 45.6337 47.6797 42.32V26.02ZM53.6797 16.02C48.1568 16.02 43.6797 20.4972 43.6797 26.02V42.32C43.6797 47.8429 48.1568 52.32 53.6797 52.32H69.9797C75.5025 52.32 79.9797 47.8429 79.9797 42.32V26.02C79.9797 20.4972 75.5025 16.02 69.9797 16.02H53.6797ZM20.0098 37.8799C20.0098 35.6707 21.8006 33.8799 24.0098 33.8799H30.4498C32.6589 33.8799 34.4498 35.6707 34.4498 37.8799V44.3199C34.4498 46.529 32.6589 48.3199 30.4498 48.3199H24.0098C21.8006 48.3199 20.0098 46.529 20.0098 44.3199V37.8799ZM24.0098 29.8799C19.5915 29.8799 16.0098 33.4616 16.0098 37.8799V44.3199C16.0098 48.7382 19.5915 52.3199 24.0098 52.3199H30.4498C34.868 52.3199 38.4498 48.7382 38.4498 44.3199V37.8799C38.4498 33.4616 34.868 29.8799 30.4498 29.8799H24.0098ZM24.0098 61.52C21.8006 61.52 20.0098 63.3109 20.0098 65.52V71.96C20.0098 74.1692 21.8006 75.96 24.0098 75.96H30.4498C32.6589 75.96 34.4498 74.1692 34.4498 71.96V65.52C34.4498 63.3109 32.6589 61.52 30.4498 61.52H24.0098ZM16.0098 65.52C16.0098 61.1017 19.5915 57.52 24.0098 57.52H30.4498C34.868 57.52 38.4498 61.1017 38.4498 65.52V71.96C38.4498 76.3783 34.868 79.96 30.4498 79.96H24.0098C19.5915 79.96 16.0098 76.3783 16.0098 71.96V65.52ZM47.6797 65.52C47.6797 63.3109 49.4705 61.52 51.6797 61.52H58.1197C60.3288 61.52 62.1197 63.3109 62.1197 65.52V71.96C62.1197 74.1692 60.3288 75.96 58.1197 75.96H51.6797C49.4705 75.96 47.6797 74.1692 47.6797 71.96V65.52ZM51.6797 57.52C47.2614 57.52 43.6797 61.1017 43.6797 65.52V71.96C43.6797 76.3783 47.2614 79.96 51.6797 79.96H58.1197C62.538 79.96 66.1197 76.3783 66.1197 71.96V65.52C66.1197 61.1017 62.538 57.52 58.1197 57.52H51.6797Z" fill="var(--spectrum-global-color-gray-800, #292929)"/>
</svg>
