<svg width="96" height="96" viewBox="0 0 96 96" xmlns="http://www.w3.org/2000/svg">
  <defs>
<clipPath id="clip0_14_2385">
<rect width="96" height="96" fill="white"/>
</clipPath>
</defs>
<g clip-path="url(#clip0_14_2385)">
<path fill-rule="evenodd" d="M75.7869 20.1345C75.6674 19.6807 75.3247 19.338 74.8709 19.2185C69.937 17.9195 58.3299 18.9083 46.7582 30.48C38.4121 38.8261 34.7759 43.5411 33.2038 46.3905C32.4373 47.7799 32.2007 48.6577 32.1203 49.2478C32.0588 49.6984 32.0713 49.9597 32.089 50.3306L32.089 50.3307C32.0995 50.5495 32.1118 50.8066 32.1118 51.1632C32.1118 52.8479 33.0329 54.6885 36.6749 58.3305C40.3169 61.9725 42.1575 62.8936 43.8422 62.8936C44.1989 62.8936 44.456 62.9059 44.6749 62.9164H44.6749C45.0458 62.9341 45.307 62.9466 45.7576 62.8852C46.3478 62.8047 47.2256 62.5682 48.615 61.8016C51.4644 60.2295 56.1794 56.5933 64.5254 48.2472C76.0971 36.6756 77.0859 25.0684 75.7869 20.1345ZM75.8894 15.3504C77.7372 15.8369 79.1686 17.2682 79.6551 19.1161C81.2892 25.3228 79.9162 37.4416 69.0407 49.3139C69.6153 52.2268 69.2082 55.7157 68.3096 59.1529C67.2912 63.0479 65.5692 67.1483 63.518 70.7828C61.4776 74.3983 59.0408 77.6782 56.5308 79.8419C54.1524 81.8922 50.9906 83.5111 47.9649 81.9983C45.2947 80.6632 44.5268 78.1312 44.2659 75.4398C44.1346 74.0857 44.1154 72.5284 44.1122 70.8288C44.1116 70.4767 44.1116 70.1171 44.1117 69.7492V69.7472V69.7453V69.7433V69.743V69.7428C44.1118 68.8477 44.1119 67.904 44.102 66.9019C43.9921 66.8972 43.9038 66.8936 43.8422 66.8936C40.378 66.8936 37.4988 64.8113 33.8465 61.1589C30.1942 57.5066 28.1118 54.6274 28.1118 51.1632C28.1118 51.1015 28.1083 51.0129 28.1035 50.9027C27.1009 50.8927 26.1567 50.8928 25.2611 50.893H25.261L25.2571 50.893C24.8885 50.893 24.5282 50.8931 24.1755 50.8924C22.4759 50.8892 20.9186 50.87 19.5645 50.7387C16.8731 50.4778 14.3411 49.71 13.006 47.0397C11.4932 44.014 13.1121 40.8523 15.1624 38.4739C17.3261 35.9638 20.606 33.527 24.2215 31.4866C27.856 29.4355 31.9564 27.7135 35.8514 26.6951C39.2892 25.7962 42.7788 25.3892 45.692 25.9642C57.5642 15.0892 69.6827 13.7163 75.8894 15.3504ZM50.5473 65.3039C53.6323 63.6019 58.1185 60.1261 65.2823 53.1244C65.2008 54.6168 64.9184 56.3098 64.4397 58.1411C63.5187 61.6633 61.9375 65.4448 60.0345 68.8169C58.1207 72.208 55.9523 75.0595 53.9191 76.8122C51.7542 78.6784 50.4346 78.761 49.7537 78.4206C48.9913 78.0394 48.47 77.3515 48.2472 75.0538C48.1367 73.9134 48.1154 72.534 48.1122 70.8214C48.1116 70.4833 48.1116 70.1334 48.1117 69.772V69.7648C48.1119 68.7377 48.1121 67.6181 48.0967 66.4147C48.8292 66.165 49.6359 65.8068 50.5473 65.3039ZM41.8819 29.7222C40.3891 29.8036 38.6953 30.086 36.8633 30.565C33.341 31.4859 29.5596 33.0671 26.1874 34.9701C22.7964 36.8839 19.9448 39.0523 18.1921 41.0855C16.3259 43.2504 16.2433 44.5701 16.5838 45.2509C16.965 46.0134 17.6529 46.5346 19.9505 46.7574C21.0909 46.868 22.4703 46.8892 24.1829 46.8924C24.5233 46.893 24.8756 46.893 25.2395 46.8929H25.2397C26.2672 46.8927 27.3871 46.8925 28.591 46.908C28.8407 46.1757 29.1988 45.3692 29.7015 44.4582C31.4036 41.373 34.8796 36.8866 41.8819 29.7222ZM63.7939 38.0764C61.8981 39.9722 58.8244 39.9722 56.9287 38.0764C55.0329 36.1807 55.0329 33.107 56.9287 31.2112C58.8244 29.3154 61.8981 29.3154 63.7939 31.2112C65.6897 33.107 65.6897 36.1807 63.7939 38.0764ZM27.879 69.955C28.66 69.174 28.66 67.9077 27.879 67.1266C27.0979 66.3456 25.8316 66.3456 25.0506 67.1266L13.251 78.9262C12.4699 79.7072 12.4699 80.9736 13.251 81.7546C14.032 82.5357 15.2984 82.5357 16.0794 81.7546L27.879 69.955ZM33.8858 73.1337C34.6669 73.9147 34.6669 75.1811 33.8858 75.9621L27.0206 82.8273C26.2396 83.6084 24.9732 83.6084 24.1922 82.8273C23.4111 82.0463 23.4111 80.78 24.1922 79.9989L31.0574 73.1337C31.8385 72.3526 33.1048 72.3526 33.8858 73.1337ZM21.8712 63.948C22.6522 63.167 22.6522 61.9006 21.8712 61.1196C21.0901 60.3385 19.8238 60.3385 19.0428 61.1196L12.1775 67.9848C11.3965 68.7659 11.3965 70.0322 12.1775 70.8132C12.9586 71.5943 14.2249 71.5943 15.006 70.8132L21.8712 63.948Z" fill="var(--spectrum-global-color-gray-800, #292929)"/>
</g>

</svg>
