<svg width="48" height="48" viewBox="0 0 48 48" xmlns="http://www.w3.org/2000/svg">
<path fill-rule="evenodd" d="M40.75 14.1992C40.75 12.6804 39.5188 11.4492 38 11.4492H10C8.48122 11.4492 7.25 12.6804 7.25 14.1992V33.7992C7.25 35.318 8.48122 36.5492 10 36.5492H38C39.5188 36.5492 40.75 35.318 40.75 33.7992V14.1992ZM38 8.94922C40.8995 8.94922 43.25 11.2997 43.25 14.1992V33.7992C43.25 36.6987 40.8995 39.0492 38 39.0492H10C7.10051 39.0492 4.75 36.6987 4.75 33.7992V14.1992C4.75 11.2997 7.10051 8.94922 10 8.94922H38ZM21.6113 19.143L27.966 22.788C28.6777 23.1962 28.6765 24.2146 27.9638 24.6211L21.6003 28.251C20.8876 28.6575 19.998 28.1473 19.999 27.3325L20.0078 20.0577C20.0088 19.243 20.8996 18.7348 21.6113 19.143Z" fill="var(--spectrum-global-color-gray-800, #292929)"/>
</svg>
