<svg width="48" height="48" viewBox="0 0 48 48" xmlns="http://www.w3.org/2000/svg">
<path fill-rule="evenodd" d="M25.2491 7.48047C25.2491 6.79011 24.6895 6.23047 23.9991 6.23047C23.3087 6.23047 22.7491 6.79011 22.7491 7.48047V9.82106C22.7491 10.5114 23.3087 11.0711 23.9991 11.0711C24.6895 11.0711 25.2491 10.5114 25.2491 9.82106V7.48047ZM16.9052 23.9998C16.9052 20.0821 20.0811 16.9062 23.9988 16.9062C23.999 16.9062 23.9993 16.9062 23.9995 16.9062V31.0933C23.9993 31.0933 23.999 31.0933 23.9988 31.0933C20.0811 31.0933 16.9052 27.9174 16.9052 23.9998ZM23.9988 14.4062C18.7004 14.4062 14.4052 18.7014 14.4052 23.9998C14.4052 29.2981 18.7004 33.5933 23.9988 33.5933C29.2971 33.5933 33.5923 29.2981 33.5923 23.9998C33.5923 18.7014 29.2971 14.4062 23.9988 14.4062ZM23.9991 36.9278C24.6895 36.9278 25.2491 37.4874 25.2491 38.1778V40.5184C25.2491 41.2088 24.6895 41.7684 23.9991 41.7684C23.3087 41.7684 22.7491 41.2088 22.7491 40.5184V38.1778C22.7491 37.4874 23.3087 36.9278 23.9991 36.9278ZM40.5189 25.25C41.2092 25.25 41.7689 24.6904 41.7689 24C41.7689 23.3096 41.2092 22.75 40.5189 22.75H38.1783C37.4879 22.75 36.9283 23.3096 36.9283 24C36.9283 24.6904 37.4879 25.25 38.1783 25.25H40.5189ZM11.0711 24C11.0711 24.6904 10.5114 25.25 9.82106 25.25H7.48047C6.79011 25.25 6.23047 24.6904 6.23047 24C6.23047 23.3096 6.79011 22.75 7.48047 22.75H9.82106C10.5114 22.75 11.0711 23.3096 11.0711 24ZM36.5641 13.2013C37.0523 12.7131 37.0523 11.9217 36.5641 11.4335C36.076 10.9453 35.2845 10.9453 34.7964 11.4335L33.1413 13.0885C32.6532 13.5767 32.6532 14.3682 33.1413 14.8563C33.6295 15.3445 34.4209 15.3445 34.9091 14.8563L36.5641 13.2013ZM14.8572 33.1404C15.3454 33.6286 15.3454 34.42 14.8572 34.9082L13.2022 36.5632C12.714 37.0514 11.9225 37.0514 11.4344 36.5632C10.9462 36.0751 10.9462 35.2836 11.4344 34.7955L13.0894 33.1404C13.5776 32.6523 14.369 32.6523 14.8572 33.1404ZM11.4335 13.2013C10.9453 12.7131 10.9453 11.9217 11.4335 11.4335C11.9216 10.9453 12.7131 10.9453 13.2012 11.4335L14.8563 13.0885C15.3444 13.5767 15.3444 14.3682 14.8563 14.8563C14.3681 15.3445 13.5767 15.3445 13.0885 14.8563L11.4335 13.2013ZM33.1404 33.1404C32.6522 33.6286 32.6522 34.42 33.1404 34.9082L34.7954 36.5632C35.2836 37.0514 36.0751 37.0514 36.5632 36.5632C37.0514 36.0751 37.0514 35.2836 36.5632 34.7955L34.9082 33.1404C34.42 32.6523 33.6285 32.6523 33.1404 33.1404Z" fill="var(--spectrum-global-color-gray-800, #292929)"/>
</svg>
