<svg width="48" height="48" viewBox="0 0 48 48" xmlns="http://www.w3.org/2000/svg">
<path fill-rule="evenodd" d="M37.8402 16.9647C39.7285 15.0763 39.7285 12.0146 37.8402 10.1262C35.9519 8.23787 32.8903 8.23787 31.002 10.1262L27.502 13.6263C27.0139 14.1145 26.2224 14.1145 25.7342 13.6263C25.2461 13.1382 25.2461 12.3467 25.7342 11.8586L29.2342 8.35849C32.0989 5.49378 36.7434 5.49379 39.608 8.35849C42.4726 11.2232 42.4726 15.8677 39.608 18.7324L30.733 27.6076C27.8684 30.4723 23.2239 30.4723 20.3593 27.6076C19.8711 27.1194 19.8711 26.328 20.3593 25.8398C20.8475 25.3517 21.6389 25.3517 22.1271 25.8399C24.0154 27.7282 27.0769 27.7282 28.9652 25.8399L37.8402 16.9647ZM27.6413 20.3922C28.1295 20.8803 28.1295 21.6718 27.6413 22.1599C27.1531 22.6481 26.3617 22.6481 25.8735 22.1599C23.9852 20.2715 20.9237 20.2715 19.0354 22.1599L10.1604 31.0351C8.27206 32.9235 8.27206 35.9851 10.1604 37.8735C12.0487 39.7619 15.1103 39.7619 16.9986 37.8735L20.4986 34.3734C20.9867 33.8853 21.7782 33.8853 22.2663 34.3734C22.7545 34.8616 22.7545 35.653 22.2664 36.1412L18.7664 39.6413C15.9017 42.506 11.2572 42.506 8.3926 39.6413C5.52799 36.7766 5.52799 32.132 8.3926 29.2673L17.2676 20.3922C20.1322 17.5275 24.7767 17.5275 27.6413 20.3922Z" fill="var(--spectrum-global-color-gray-800, #292929)"/>
</svg>
