<svg width="96" height="96" viewBox="0 0 96 96" xmlns="http://www.w3.org/2000/svg">
<path fill-rule="evenodd" d="M63.2371 21.254C65.5164 21.254 67.3641 19.4063 67.3641 17.127C67.3641 14.8477 65.5164 13 63.2371 13C60.9578 13 59.1101 14.8477 59.1101 17.127C59.1101 19.4063 60.9578 21.254 63.2371 21.254ZM52.9073 25.5927C54.0064 25.7027 54.8082 26.6828 54.6982 27.7819C54.0222 34.5374 50.3468 41.2882 44.3658 45.4501C43.4591 46.0811 42.2127 45.8575 41.5818 44.9509C40.9509 44.0442 41.1744 42.7978 42.081 42.1669C47.0529 38.7071 50.1523 33.0374 50.7181 27.3836C50.8281 26.2845 51.8083 25.4827 52.9073 25.5927ZM42.2124 37.0328C41.6419 37.9786 40.4127 38.2829 39.4668 37.7125C37.3646 36.4446 35.9418 35.8821 34.9978 35.7316C34.1857 35.6021 33.9002 35.7898 33.7047 35.9834L33.6154 36.2274C33.5762 36.442 33.5662 36.7891 33.6513 37.298C33.8266 38.3466 34.3524 39.7751 35.2844 41.5126C37.1358 44.9644 40.3684 49.2282 44.5691 53.4289C48.7698 57.6297 53.0337 60.8623 56.4854 62.7137C58.223 63.6456 59.6514 64.1714 60.7 64.3468C61.214 64.4327 61.5629 64.4216 61.777 64.3815L62.0129 64.2952C62.2667 64.04 62.4336 63.7563 62.3214 63.0219C62.1833 62.1184 61.6277 60.7165 60.295 58.5466C59.7169 57.6054 60.0112 56.3738 60.9525 55.7957C61.8937 55.2176 63.1253 55.512 63.7034 56.4532C65.1106 58.7444 66.0135 60.7027 66.2755 62.4177C66.5627 64.2972 66.0739 65.891 64.8367 67.1283C64.7769 67.188 64.7161 67.2453 64.6542 67.3002C64.436 67.5631 64.1474 67.7736 63.8033 67.8994L63.6609 67.9516C63.4262 68.0612 63.1843 68.1484 62.9379 68.2161L24.4071 82.3127C18.9736 84.3006 13.6983 79.0253 15.6862 73.5918L29.7786 35.0725C29.8478 34.818 29.9377 34.5681 30.0517 34.3261L30.0994 34.1956C30.2243 33.8542 30.4326 33.5673 30.6927 33.3497C30.7491 33.2858 30.8081 33.223 30.8698 33.1614C32.1385 31.8927 33.7926 31.4888 35.6277 31.7815C37.3399 32.0545 39.2928 32.9364 41.5326 34.2872C42.4785 34.8577 42.7828 36.0869 42.2124 37.0328ZM19.4427 74.9661L31.3094 42.5305C31.4522 42.8196 31.6024 43.1107 31.7594 43.4033C33.8425 47.2869 37.3428 51.8595 41.7407 56.2574C46.1386 60.6553 50.7111 64.1556 54.5948 66.2386C54.8878 66.3958 55.1794 66.5463 55.4689 66.6893L23.0328 78.5562C20.796 79.3745 18.6243 77.2029 19.4427 74.9661ZM58.0689 42.7273C58.85 41.9463 58.85 40.6799 58.0689 39.8989C57.2879 39.1178 56.0216 39.1178 55.2405 39.8989L46.4332 48.7062C45.6522 49.4872 45.6522 50.7536 46.4332 51.5346C47.2143 52.3157 48.4806 52.3157 49.2616 51.5346L58.0689 42.7273ZM70.3015 43.3783C71.3966 43.2338 72.4014 44.0044 72.5459 45.0995C72.6904 46.1946 71.9197 47.1994 70.8247 47.3439C65.1914 48.0871 59.6219 51.3632 56.3201 56.4412C55.718 57.3673 54.4792 57.6299 53.5532 57.0278C52.6271 56.4257 52.3645 55.1869 52.9666 54.2608C56.9386 48.152 63.5706 44.2663 70.3015 43.3783ZM81.7382 56.8445C81.7382 59.1238 79.8904 60.9715 77.6112 60.9715C75.3319 60.9715 73.4842 59.1238 73.4842 56.8445C73.4842 54.5653 75.3319 52.7175 77.6112 52.7175C79.8904 52.7175 81.7382 54.5653 81.7382 56.8445ZM43.4793 24.3319L39.0679 18.3045C38.3313 17.2981 36.9183 17.0793 35.9118 17.8159L34.8275 18.6095C33.8211 19.3461 33.6023 20.7592 34.3389 21.7656L38.7503 27.793C39.4869 28.7995 40.9 29.0182 41.9064 28.2816L42.9907 27.488C43.9972 26.7514 44.2159 25.3384 43.4793 24.3319ZM64.6373 32.8511L72.0591 32.0108C73.2984 31.8705 74.4168 32.7614 74.5571 34.0006L74.7083 35.3358C74.8486 36.5751 73.9577 37.6935 72.7184 37.8338L65.2966 38.6742C64.0573 38.8145 62.9389 37.9236 62.7986 36.6843L62.6474 35.3492C62.5071 34.1099 63.398 32.9915 64.6373 32.8511Z" fill="var(--spectrum-global-color-gray-800, #292929)"/>
</svg>
