<svg width="48" height="48" viewBox="0 0 48 48" xmlns="http://www.w3.org/2000/svg">
<path fill-rule="evenodd" d="M9.62195 11.7396C8.94939 12.2326 8.85086 12.5689 8.84415 12.6966L8.84424 12.7119V12.7275C8.85172 12.8564 8.95228 13.192 9.62195 13.6829C10.2962 14.1771 11.3519 14.6745 12.7689 15.1138C15.5879 15.9878 19.5586 16.5475 23.9991 16.5475C28.4396 16.5475 32.4103 15.9878 35.2292 15.1138C36.6462 14.6745 37.702 14.1771 38.3762 13.6829C39.0763 13.1697 39.1544 12.8262 39.1544 12.7112C39.1544 12.5962 39.0763 12.2528 38.3762 11.7396C37.702 11.2454 36.6462 10.748 35.2292 10.3087C32.4103 9.43469 28.4396 8.875 23.9991 8.875C19.5586 8.875 15.5879 9.43469 12.7689 10.3087C11.3519 10.748 10.2962 11.2454 9.62195 11.7396ZM12.0286 17.5017C10.8176 17.1262 9.73153 16.6793 8.84424 16.1575V18.3806C8.85172 18.5095 8.95229 18.845 9.62195 19.3359C10.2962 19.8301 11.3519 20.3275 12.7689 20.7668C15.5879 21.6408 19.5586 22.2005 23.9991 22.2005C28.4396 22.2005 32.4103 21.6408 35.2292 20.7668C36.6462 20.3275 37.702 19.8301 38.3762 19.3359C39.0763 18.8227 39.1544 18.4793 39.1544 18.3643H39.1548V16.157C38.2673 16.679 37.1809 17.1261 35.9696 17.5017C32.8509 18.4686 28.619 19.0475 23.9991 19.0475C19.3792 19.0475 15.1472 18.4686 12.0286 17.5017ZM41.6541 12.6709C41.6368 11.401 40.8043 10.4197 39.8542 9.72328C38.8681 9.00046 37.5213 8.40189 35.9696 7.92079C32.8509 6.9539 28.619 6.375 23.9991 6.375C19.3792 6.375 15.1472 6.9539 12.0286 7.92079C10.4768 8.40189 9.13007 9.00046 8.14397 9.72328C7.1838 10.4271 6.34375 11.4217 6.34375 12.7112C6.34375 12.7292 6.34391 12.7472 6.34424 12.765L6.34424 18.3643H6.34375C6.34375 18.3822 6.34391 18.4002 6.34424 18.4181L6.34424 24.001H6.34375C6.34375 24.019 6.34391 24.0369 6.34424 24.0548L6.34424 29.6689H6.34375C6.34375 29.6869 6.34391 29.7049 6.34424 29.7228L6.34424 35.3193H6.34375C6.34375 35.3373 6.34391 35.3553 6.34424 35.3732L6.34424 35.4146C6.34424 35.4725 6.34818 35.5295 6.35581 35.5853C6.46173 36.7464 7.25089 37.6527 8.14397 38.3073C9.13007 39.0301 10.4768 39.6287 12.0286 40.1098C15.1472 41.0767 19.3792 41.6556 23.9991 41.6556C28.619 41.6556 32.8509 41.0767 35.9696 40.1098C37.5213 39.6287 38.8681 39.0301 39.8542 38.3073C40.7427 37.656 41.5284 36.7556 41.6407 35.603C41.65 35.5415 41.6548 35.4786 41.6548 35.4146V12.7119C41.6548 12.6982 41.6546 12.6845 41.6541 12.6709ZM39.1548 35.3193V33.1147C38.2673 33.6367 37.1809 34.0838 35.9696 34.4594C32.8509 35.4263 28.619 36.0052 23.9991 36.0052C19.3792 36.0052 15.1472 35.4263 12.0286 34.4594C10.8176 34.084 9.73153 33.637 8.84424 33.1152V35.3357C8.85173 35.4646 8.95231 35.8001 9.62195 36.291C10.2962 36.7852 11.3519 37.2826 12.7689 37.7219C15.5879 38.5959 19.5586 39.1556 23.9991 39.1556C28.4396 39.1556 32.4103 38.5959 35.2292 37.7219C36.6462 37.2826 37.702 36.7852 38.3762 36.291C39.0763 35.7778 39.1544 35.4343 39.1544 35.3193H39.1548ZM39.1548 29.6689V27.4468C38.2673 27.9687 37.1809 28.4159 35.9696 28.7914C32.8509 29.7583 28.619 30.3372 23.9991 30.3372C19.3792 30.3372 15.1472 29.7583 12.0286 28.7914C10.8176 28.416 9.73153 27.969 8.84424 27.4473V29.6853C8.85173 29.8142 8.9523 30.1497 9.62195 30.6406C10.2962 31.1348 11.3519 31.6322 12.7689 32.0715C15.5879 32.9455 19.5586 33.5052 23.9991 33.5052C28.4396 33.5052 32.4103 32.9455 35.2292 32.0715C36.6462 31.6322 37.702 31.1348 38.3762 30.6406C39.0763 30.1274 39.1544 29.7839 39.1544 29.6689H39.1548ZM39.1548 24.001V21.81C38.2673 22.332 37.1809 22.7791 35.9696 23.1547C32.8509 24.1216 28.619 24.7005 23.9991 24.7005C19.3792 24.7005 15.1472 24.1216 12.0286 23.1547C10.8176 22.7793 9.73153 22.3323 8.84424 21.8106V24.0173C8.85173 24.1462 8.9523 24.4817 9.62195 24.9726C10.2962 25.4668 11.3519 25.9642 12.7689 26.4036C15.5879 27.2775 19.5586 27.8372 23.9991 27.8372C28.4396 27.8372 32.4103 27.2775 35.2292 26.4036C36.6462 25.9642 37.702 25.4668 38.3762 24.9726C39.0763 24.4594 39.1544 24.116 39.1544 24.001H39.1548Z" fill="var(--spectrum-global-color-gray-800, #292929)"/>
</svg>
