<svg width="96" height="96" viewBox="0 0 96 96" xmlns="http://www.w3.org/2000/svg">
<path fill-rule="evenodd" d="M23 29C23 25.6846 25.6846 23 29 23H67C70.3154 23 73 25.6846 73 29V63H23V29ZM19 63V29C19 23.4754 23.4754 19 29 19H67C72.5246 19 77 23.4754 77 29V63H80.63C84.496 63 87.63 66.134 87.63 70C87.63 73.866 84.496 77 80.63 77H16C12.134 77 9 73.866 9 70C9 66.134 12.134 63 16 63H19ZM48.5 31C49.8807 31 51 29.8807 51 28.5C51 27.1193 49.8807 26 48.5 26C47.1193 26 46 27.1193 46 28.5C46 29.8807 47.1193 31 48.5 31ZM16 67C14.3431 67 13 68.3431 13 70C13 71.6569 14.3431 73 16 73H80.63C82.2868 73 83.63 71.6569 83.63 70C83.63 68.3431 82.2868 67 80.63 67H16Z" fill="var(--spectrum-global-color-gray-800, #292929)"/>
</svg>
