<svg width="96" height="96" viewBox="0 0 96 96" xmlns="http://www.w3.org/2000/svg">
<path fill-rule="evenodd" d="M62.6134 20.7946C64.6973 21.9085 66.6391 23.2527 68.4048 24.7965C69.4872 25.7437 70.5031 26.765 71.4446 27.8524C72.2818 28.8201 73.0605 29.8415 73.7755 30.9115C76.6077 35.1503 78.3509 40.0222 78.8506 45.0956C78.901 45.6077 78.9386 46.1202 78.9635 46.6327C78.9872 47.1302 78.9992 47.6308 78.9992 48.1342C78.9992 48.6359 78.9873 49.1349 78.9637 49.6309C78.792 53.1831 78.0097 56.6909 76.6402 59.9973C75.3637 63.0789 73.603 65.9235 71.4343 68.4278C70.4978 69.5083 69.4879 70.5234 68.4122 71.4653C68.1671 71.6797 67.9184 71.8905 67.6662 72.0975C63.7255 75.3316 59.0479 77.5439 54.048 78.5385C49.048 79.5331 43.88 79.2792 39.0016 77.7993C34.7627 76.5135 30.8563 74.3365 27.5401 71.423L49.4145 49.5484C49.7896 49.1733 50.0003 48.6646 50.0003 48.1342V17.1987C54.4053 17.4835 58.7068 18.7065 62.6134 20.7946ZM45.115 48.191L24.7111 68.5952C19.9109 63.1359 17 55.975 17 48.1342C17 40.9964 19.4123 34.422 23.4661 29.182L45.115 48.191ZM46.0003 43.6451V17.1976C38.2524 17.6908 31.2782 21.0303 26.1117 26.1818L46.0003 43.6451ZM13 48.1342C13 28.8042 28.6698 13.1342 47.9996 13.1342H48.0003L48.062 13.1342C56.9107 13.1496 64.9892 16.4489 71.1438 21.8784C72.2868 22.8859 73.3638 23.9679 74.3674 25.1177C79.4221 30.9037 82.6032 38.3684 82.9647 46.5658C83.0116 47.6105 83.0115 48.655 82.965 49.6963C82.6045 57.903 79.418 65.3758 74.3546 71.1653C73.3591 72.3044 72.2886 73.3805 71.1486 74.3857C64.9789 79.8305 56.8751 83.1342 47.9996 83.1342C28.6698 83.1342 13 67.4641 13 48.1342Z" fill="var(--spectrum-global-color-gray-800, #292929)"/>
</svg>
