<svg width="48" height="48" viewBox="0 0 48 48" xmlns="http://www.w3.org/2000/svg">
<path fill-rule="evenodd" d="M21.4967 5.97221C23.1455 5.0045 25.19 5.00962 26.834 5.98556L38.8276 13.1055C40.4209 14.0514 41.3976 15.7671 41.3976 17.62V31.0409C41.3976 32.943 40.3688 34.6963 38.7083 35.624L26.7153 42.3249C25.1318 43.2096 23.2038 43.2143 21.6161 42.3372L9.46154 35.6233C7.7886 34.6992 6.75 32.939 6.75 31.0278V17.6332C6.75 15.771 7.73654 14.0481 9.34263 13.1054L21.4967 5.97221ZM25.5578 8.13529C24.6967 7.62408 23.6257 7.62141 22.7621 8.1283L10.608 15.2615C10.4905 15.3305 10.3793 15.4075 10.2749 15.4916L24.0802 22.8588L38.0121 15.5984C37.8724 15.4697 37.7184 15.3544 37.5514 15.2553L25.5578 8.13529ZM9.25 31.0278V17.7783L22.9155 25.071V40.1968C22.8851 40.1814 22.8549 40.1655 22.8249 40.1489L10.6703 33.435C9.79403 32.9509 9.25 32.0289 9.25 31.0278ZM25.4155 40.1856C25.4425 40.1717 25.4693 40.1573 25.4959 40.1424L37.4889 33.4416C38.3587 32.9556 38.8976 32.0372 38.8976 31.0409V17.956L25.4155 24.982V40.1856Z" fill="var(--spectrum-global-color-gray-800, #292929)"/>
</svg>
