<svg width="48" height="48" viewBox="0 0 48 48" xmlns="http://www.w3.org/2000/svg">
<path fill-rule="evenodd" d="M8 9.25C8 8.55964 8.55964 8 9.25 8H16.212C16.9024 8 17.462 8.55964 17.462 9.25C17.462 9.94036 16.9024 10.5 16.212 10.5H11.9483L23.769 22.3207L35.5897 10.5H31.7694C31.079 10.5 30.5194 9.94036 30.5194 9.25C30.5194 8.55964 31.079 8 31.7694 8H38.7314C39.4217 8 39.9814 8.55964 39.9814 9.25V16.212C39.9814 16.9024 39.4217 17.462 38.7314 17.462C38.041 17.462 37.4814 16.9024 37.4814 16.212V12.1439L25.5368 24.0885L37.4819 36.0336V32.1254C37.4819 31.4351 38.0415 30.8754 38.7319 30.8754C39.4223 30.8754 39.9819 31.4351 39.9819 32.1254V39.0874C39.9819 39.7778 39.4223 40.3374 38.7319 40.3374H31.7699C31.0795 40.3374 30.5199 39.7778 30.5199 39.0874C30.5199 38.3971 31.0795 37.8374 31.7699 37.8374H35.7502L23.769 25.8563L11.7878 37.8374H16.2125C16.9029 37.8374 17.4625 38.3971 17.4625 39.0874C17.4625 39.7778 16.9029 40.3374 16.2125 40.3374H9.25053C8.56017 40.3374 8.00053 39.7778 8.00053 39.0874V32.1254C8.00053 31.4351 8.56017 30.8754 9.25053 30.8754C9.94088 30.8754 10.5005 31.4351 10.5005 32.1254V35.5892L22.0012 24.0885L10.5 12.5873V16.212C10.5 16.9024 9.94036 17.462 9.25 17.462C8.55964 17.462 8 16.9024 8 16.212V9.25Z" fill="var(--spectrum-global-color-gray-800, #292929)"/>
</svg>
