<svg width="48" height="48" viewBox="0 0 48 48" xmlns="http://www.w3.org/2000/svg">
<path fill-rule="evenodd" d="M38.6067 3.47395C40.5516 1.68105 43.6435 3.46881 43.0644 6.04777L42.3626 9.16766C42.3488 9.2287 42.3662 9.2948 42.4094 9.34163L44.5746 11.6912C46.3675 13.6362 44.58 16.7283 42.001 16.1492L38.8811 15.4474C38.8201 15.4336 38.754 15.451 38.7072 15.4942L36.3576 17.6594C34.4127 19.4527 31.3205 17.6649 31.8996 15.0858L32.6014 11.9659C32.6152 11.9049 32.5978 11.8388 32.5546 11.792L30.3894 9.44239C28.5965 7.49743 30.384 4.40532 32.963 4.98441L36.0829 5.68616C36.1439 5.69999 36.21 5.68258 36.2568 5.6394L38.6067 3.47395ZM40.4106 5.25463C40.391 5.2562 40.3553 5.26212 40.3011 5.31215L37.9517 7.47714C37.3012 8.07686 36.3953 8.31996 35.5315 8.1246L35.5305 8.12437L32.4153 7.42368C32.3433 7.4076 32.3089 7.42021 32.2909 7.42875C32.2638 7.44162 32.2288 7.4698 32.2016 7.51699C32.1743 7.56419 32.1675 7.6085 32.1698 7.63818C32.1714 7.65782 32.1773 7.69348 32.2274 7.74774L34.3923 10.0971C34.9921 10.7475 35.2351 11.6535 35.0398 12.5173L35.0396 12.5183L34.3389 15.6335C34.3228 15.7055 34.3354 15.7399 34.344 15.7579C34.3568 15.785 34.385 15.82 34.4322 15.8473C34.4794 15.8745 34.5237 15.8813 34.5534 15.879C34.573 15.8774 34.6087 15.8715 34.6629 15.8214L37.0123 13.6565C37.6628 13.0568 38.5687 12.8137 39.4325 13.009L39.4335 13.0092L42.5488 13.7099C42.6207 13.726 42.6552 13.7134 42.6731 13.7049C42.7002 13.692 42.7352 13.6638 42.7625 13.6166C42.7897 13.5694 42.7966 13.5251 42.7942 13.4954C42.7926 13.4758 42.7867 13.4401 42.7367 13.3859L40.5717 11.0365C39.972 10.3861 39.7289 9.48014 39.9242 8.61634L39.9244 8.61525L40.6251 5.50005C40.6412 5.4281 40.6286 5.39365 40.6201 5.37569C40.6072 5.34861 40.579 5.3136 40.5318 5.28634C40.4846 5.25909 40.4403 5.25225 40.4106 5.25463Z" fill="var(--spectrum-global-color-gray-800, #292929)"/>
<path d="M28.8835 22.648L31.0811 23.1431C31.945 23.3383 32.545 22.301 31.9432 21.6485L30.416 19.9931C30.2154 19.7744 30.1341 19.4726 30.1991 19.1816L30.6943 16.984C30.8895 16.1201 29.8521 15.5201 29.1997 16.1219L27.5443 17.649C27.3256 17.8496 27.0238 17.931 26.7328 17.8659L24.5352 17.3707C23.6713 17.1755 23.0713 18.2129 23.6731 18.8653L25.2002 20.5208C25.4008 20.7395 25.4822 21.0413 25.4171 21.3323L24.9219 23.5299C24.7267 24.3938 25.7641 24.9938 26.4165 24.392L28.072 22.8648C28.2907 22.6642 28.5925 22.5829 28.8835 22.648Z" fill="var(--spectrum-global-color-gray-800, #292929)"/>
<path d="M18.5046 10.9927C12.6772 9.43127 6.68737 12.8895 5.12593 18.7169C4.14887 22.3633 5.13709 26.0753 7.44403 28.7253L7.51064 26.9625C7.53672 26.2726 8.1171 25.7345 8.80696 25.7606C9.49682 25.7867 10.0349 26.3671 10.0089 27.0569L9.82845 31.8307C9.80301 32.5037 9.24889 33.0356 8.57537 33.0335L3.62727 33.0177C2.93692 33.0156 2.37906 32.4541 2.38125 31.7638C2.38344 31.0734 2.94486 30.5156 3.63522 30.5178L5.69818 30.5243C2.76661 27.2606 1.49033 22.6259 2.71111 18.0698C4.62991 10.9088 11.9906 6.6591 19.1516 8.5779C22.2585 9.41038 24.8198 11.2695 26.5644 13.6908C26.968 14.2509 26.8411 15.0321 26.281 15.4357C25.7209 15.8393 24.9397 15.7124 24.5361 15.1523C23.1159 13.1813 21.0348 11.6707 18.5046 10.9927Z" fill="var(--spectrum-global-color-gray-800, #292929)"/>
<path fill-rule="evenodd" d="M41.5693 25.1314C41.5693 23.6126 40.3381 22.3814 38.8193 22.3814H34.7878C34.0975 22.3814 33.5379 21.8217 33.5379 21.1314C33.5379 20.441 34.0975 19.8814 34.7878 19.8814H38.8193C41.7188 19.8814 44.0693 22.2319 44.0693 25.1314V39.6054C44.0693 42.5049 41.7188 44.8554 38.8193 44.8554H17.0167C14.1172 44.8554 11.7667 42.5049 11.7667 39.6054V25.1314C11.7667 22.2319 14.1172 19.8814 17.0167 19.8814H21.5223C22.2126 19.8814 22.7723 20.441 22.7723 21.1314C22.7723 21.8217 22.2126 22.3814 21.5223 22.3814H17.0167C15.498 22.3814 14.2667 23.6126 14.2667 25.1314V39.6054C14.2667 39.6871 14.2703 39.768 14.2773 39.8478L20.1272 30.8101C21.3011 28.9954 23.9595 28.9948 25.1334 30.8095L29.9432 38.239L32.5574 34.2864L32.5626 34.2786C33.7435 32.5221 36.3316 32.5176 37.5126 34.2783L41.5061 40.1942C41.5475 40.0045 41.5693 39.8075 41.5693 39.6054V25.1314ZM22.2263 32.168L15.8117 42.078C16.1756 42.2557 16.5845 42.3554 17.0167 42.3554H27.2205L28.4381 40.5145L23.0348 32.1681C22.846 31.8761 22.4151 31.876 22.2263 32.168ZM39.8216 42.167C39.511 42.2886 39.1729 42.3554 38.8193 42.3554H30.2179L34.6392 35.6707C34.8328 35.3867 35.2492 35.3913 35.4367 35.6714L35.4394 35.6754L39.8216 42.167Z" fill="var(--spectrum-global-color-gray-800, #292929)"/>
<path d="M33.6166 27.0625C33.6166 27.8909 34.2882 28.5625 35.1166 28.5625C35.9451 28.5625 36.6166 27.8909 36.6166 27.0625C36.6166 26.2341 35.9451 25.5625 35.1166 25.5625C34.2882 25.5625 33.6166 26.2341 33.6166 27.0625Z" fill="var(--spectrum-global-color-gray-800, #292929)"/>
</svg>
