<svg width="48" height="48" viewBox="0 0 48 48" xmlns="http://www.w3.org/2000/svg">
<path fill-rule="evenodd" d="M31.8632 10.5623C33.0029 10.5623 33.9268 9.63844 33.9268 8.4988C33.9268 7.35916 33.0029 6.4353 31.8632 6.4353C30.7236 6.4353 29.7997 7.35916 29.7997 8.4988C29.7997 9.63844 30.7236 10.5623 31.8632 10.5623ZM26.7233 12.4828C27.4102 12.5515 27.9113 13.1641 27.8426 13.851C27.4977 17.2976 25.6239 20.7406 22.5703 22.8655C22.0036 23.2598 21.2246 23.1201 20.8303 22.5534C20.436 21.9867 20.5757 21.2077 21.1424 20.8134C23.5652 19.1274 25.079 16.3601 25.355 13.6021C25.4237 12.9152 26.0363 12.414 26.7233 12.4828ZM30.8467 27.4348C31.4349 27.0735 32.2047 27.2575 32.566 27.8457C33.309 29.0553 33.7201 30.1483 33.7712 31.1381C33.825 32.181 33.4726 33.0445 32.841 33.6761C32.8116 33.7055 32.7817 33.7339 32.7514 33.7611C32.6167 33.918 32.4411 34.0436 32.2331 34.1197L32.1765 34.1404C32.0499 34.1992 31.92 34.2459 31.7885 34.2824L12.5347 41.3263C9.61808 42.3934 6.78644 39.5618 7.85348 36.6452L14.897 17.3931C14.9337 17.2606 14.9808 17.1298 15.0401 17.0022L15.0602 16.9471C15.1362 16.7395 15.2615 16.5642 15.418 16.4295C15.4455 16.399 15.474 16.3688 15.5037 16.3391C16.0749 15.768 16.8664 15.3504 17.8989 15.3459C18.8793 15.3417 19.9533 15.7105 21.1456 16.4296C21.7368 16.7861 21.927 17.5544 21.5705 18.1456C21.2139 18.7367 20.4457 18.9269 19.8545 18.5704C18.8758 17.9801 18.2597 17.8444 17.9097 17.8459C17.6367 17.8471 17.4633 17.93 17.3122 18.0679L17.2958 18.113C17.2854 18.1793 17.2791 18.3113 17.3179 18.543C17.3992 19.0296 17.6486 19.7166 18.1081 20.5733C19.0194 22.2722 20.619 24.3849 22.7071 26.4729C24.7951 28.5609 26.9078 30.1605 28.6067 31.0717C29.4634 31.5313 30.1505 31.7806 30.6371 31.862C30.8696 31.9009 31.0017 31.8944 31.0678 31.884L31.1106 31.8683C31.2099 31.7541 31.2909 31.5863 31.2745 31.2669C31.2532 30.8549 31.0628 30.175 30.4357 29.1541C30.0744 28.5659 30.2584 27.7961 30.8467 27.4348ZM20.9393 28.2407C23.1266 30.4279 25.4062 32.1804 27.3608 33.2402L11.6757 38.9786C10.7571 39.3146 9.86522 38.4228 10.2013 37.5042L15.9397 21.8194C16.9995 23.774 18.752 26.0534 20.9393 28.2407ZM29.4564 21.4757C29.9446 20.9875 29.9446 20.1961 29.4564 19.7079C28.9683 19.2198 28.1768 19.2198 27.6887 19.7079L23.285 24.1115C22.7968 24.5997 22.7968 25.3912 23.2849 25.8793C23.7731 26.3675 24.5645 26.3675 25.0527 25.8793L29.4564 21.4757ZM35.3632 21.3767C36.0476 21.2864 36.6756 21.768 36.7659 22.4524C36.8562 23.1369 36.3746 23.7649 35.6901 23.8552C32.9421 24.2177 30.2237 25.8176 28.6146 28.2923C28.2383 28.871 27.464 29.0352 26.8853 28.6588C26.3065 28.2825 26.1424 27.5083 26.5187 26.9295C28.5466 23.8106 31.9291 21.8297 35.3632 21.3767ZM41.1143 28.3574C41.1143 29.4971 40.1904 30.4209 39.0507 30.4209C37.9111 30.4209 36.9872 29.4971 36.9872 28.3574C36.9872 27.2178 37.9111 26.2939 39.0507 26.2939C40.1904 26.2939 41.1143 27.2178 41.1143 28.3574ZM21.9848 12.1011L19.7791 9.08744C19.4108 8.58421 18.7042 8.47484 18.201 8.84315L17.6588 9.23994C17.1556 9.60824 17.0462 10.3148 17.4145 10.818L19.6203 13.8317C19.9886 14.3349 20.6951 14.4443 21.1983 14.076L21.7405 13.6792C22.2437 13.3109 22.3531 12.6044 21.9848 12.1011ZM32.5633 16.3608L36.2743 15.9406C36.8939 15.8704 37.4531 16.3159 37.5233 16.9355L37.5989 17.6031C37.669 18.2227 37.2236 18.7819 36.6039 18.8521L32.8929 19.2723C32.2733 19.3424 31.7141 18.897 31.6439 18.2773L31.5683 17.6098C31.4982 16.9901 31.9436 16.4309 32.5633 16.3608Z" fill="var(--spectrum-global-color-gray-800, #292929)"/>
</svg>
