<svg width="48" height="48" viewBox="0 0 48 48" xmlns="http://www.w3.org/2000/svg">
<path fill-rule="evenodd" d="M10.25 12.4615C10.25 9.831 12.4258 7.75 15.0455 7.75H24.2132C25.4755 7.75 26.692 8.23929 27.5935 9.11946L37.3348 18.6302C38.2373 19.5113 38.75 20.7129 38.75 21.9723V35.5385C38.75 38.169 36.5742 40.25 33.9545 40.25H15.0455C12.4258 40.25 10.25 38.169 10.25 35.5385V12.4615ZM15.0455 10.25C13.75 10.25 12.75 11.2675 12.75 12.4615V35.5385C12.75 36.7325 13.75 37.75 15.0455 37.75H33.9545C35.25 37.75 36.25 36.7325 36.25 35.5385V21.9723C36.25 21.3955 36.0156 20.8362 35.5883 20.419L25.847 10.9083C25.4187 10.4901 24.8315 10.25 24.2132 10.25H15.0455ZM21.8623 22.1966L28.217 25.8416C28.9287 26.2498 28.9274 27.2682 28.2148 27.6747L21.8513 31.3046C21.1386 31.7111 20.249 31.2009 20.25 30.3861L20.2588 23.1113C20.2598 22.2966 21.1506 21.7884 21.8623 22.1966Z" fill="var(--spectrum-global-color-gray-800, #292929)"/>
</svg>
