<svg width="160" height="160" viewBox="0 0 160 160" xmlns="http://www.w3.org/2000/svg">
<path fill-rule="evenodd" d="M115.073 31.0486C111.444 29.0281 107.028 29.0281 103.399 31.0486L81.9472 42.9915C80.7375 43.665 79.2655 43.665 78.0558 42.9915L57.7866 31.7075C53.463 29.3004 47.9624 29.5143 43.8147 31.859C40.4943 33.736 35.8948 36.2767 31.2567 38.8181C27.4748 40.8903 25.401 44.5019 25.0531 48.2537C24.9801 48.5559 24.9414 48.8716 24.9414 49.1963V85.8272C24.9414 92.602 28.3712 98.9163 34.0543 102.604L77.7794 130.979C79.1015 131.837 80.8042 131.838 82.1279 130.983L126.041 102.605C131.743 98.9208 135.186 92.5958 135.186 85.8074V49.1963C135.186 49.0824 135.181 48.9697 135.172 48.8582C135.031 44.9078 132.979 41.0174 129.017 38.8115L115.073 31.0486ZM127.186 60.8001L83.9569 84.8672V120.276L121.699 95.8861C125.12 93.6754 127.186 89.8804 127.186 85.8074V60.8001ZM75.9569 84.8175L32.9414 60.8698V85.8272C32.9414 89.8921 34.9993 93.6806 38.4091 95.8934L75.9569 120.259V84.8175ZM107.29 38.0383C108.5 37.3648 109.972 37.3648 111.182 38.0383L125.125 45.8012C127.864 47.3261 127.864 51.2661 125.125 52.791L80.0015 77.913L35.058 52.892C32.3081 51.361 32.3072 47.3647 35.1009 45.8339C39.7458 43.2889 44.3833 40.7273 47.7516 38.8232C49.6349 37.7586 52.1659 37.7345 53.8953 38.6973L74.1645 49.9814C77.7936 52.0018 82.2095 52.0017 85.8386 49.9813L107.29 38.0383Z" fill="var(--spectrum-global-color-gray-800, #292929)"/>
</svg>
