<svg width="160" height="160" viewBox="0 0 160 160" xmlns="http://www.w3.org/2000/svg">
<path fill-rule="evenodd" d="M28.0467 123.972C23.108 115.44 20.2124 105.578 20.0257 95.0654C20.0087 94.9158 20 94.7636 20 94.6094C20 94.4855 20.0056 94.363 20.0166 94.242C20.0163 94.1551 20.0161 94.0681 20.0161 93.9811C20.0161 60.8739 46.8548 34.0352 79.9621 34.0352C93.6424 34.0352 106.263 38.6226 116.353 46.341C118.107 47.6832 118.442 50.1937 117.1 51.9483C115.757 53.7029 113.247 54.0373 111.492 52.6951C110.88 52.2265 110.256 51.7713 109.623 51.3299L105.475 58.5144C104.37 60.4276 101.924 61.0831 100.011 59.9785C98.0977 58.8739 97.4422 56.4276 98.5468 54.5144L102.727 47.2748C96.9698 44.4633 90.6163 42.6856 83.9043 42.1824V50.6094C83.9043 52.8185 82.1134 54.6094 79.9043 54.6094C77.6951 54.6094 75.9043 52.8185 75.9043 50.6094V42.1913C69.2526 42.7053 62.952 44.472 57.2382 47.256L61.4288 54.5144C62.5334 56.4276 61.8779 58.8739 59.9647 59.9785C58.0515 61.0831 55.6052 60.4276 54.5006 58.5144L50.338 51.3047C45.0113 55.0092 40.4111 59.6854 36.7941 65.0766L43.811 69.1278C45.7242 70.2324 46.3797 72.6787 45.2751 74.5919C44.1705 76.5051 41.7242 77.1606 39.811 76.056L32.8618 72.0439C30.2018 77.7453 28.5466 84.0097 28.1238 90.6094H35.9651C38.1742 90.6094 39.9651 92.4002 39.9651 94.6094C39.9651 96.8185 38.1742 98.6094 35.9651 98.6094H28.2192C28.9014 106.343 31.2766 113.582 34.9704 119.964C36.0771 121.876 35.4243 124.323 33.5124 125.43C31.6005 126.536 29.1534 125.883 28.0467 123.972ZM137.321 76.5094C136.678 74.3959 134.443 73.2039 132.33 73.8469C130.216 74.4899 129.024 76.7245 129.667 78.8379C130.811 82.5958 131.54 86.5368 131.8 90.6094H123.943C121.734 90.6094 119.943 92.4002 119.943 94.6094C119.943 96.8185 121.734 98.6094 123.943 98.6094H131.705C131.023 106.343 128.648 113.582 124.954 119.964C123.847 121.876 124.5 124.323 126.412 125.43C128.324 126.536 130.771 125.883 131.877 123.972C136.854 115.375 139.756 105.428 139.902 94.8259C139.906 94.7542 139.908 94.682 139.908 94.6094C139.908 94.5669 139.907 94.5245 139.906 94.4824C139.907 94.3154 139.908 94.1483 139.908 93.9811C139.908 87.9097 139.004 82.0421 137.321 76.5094ZM133.684 53.2578C131.686 51.2592 128.472 51.1749 126.371 53.0659L74.5153 99.7466C70.6923 103.188 70.5364 109.131 74.1735 112.768C77.8107 116.406 83.7539 116.25 87.1953 112.427L133.876 60.5704C135.767 58.4698 135.683 55.2564 133.684 53.2578Z" fill="var(--spectrum-global-color-gray-800, #292929)"/>
</svg>
