<svg width="96" height="96" viewBox="0 0 96 96" xmlns="http://www.w3.org/2000/svg">
<path fill-rule="evenodd" d="M18.2803 39.32C22.028 26.4706 33.9027 17.08 47.9703 17.08C60.6946 17.08 71.633 24.7722 76.3739 35.7595L67.3748 31.5671C66.3735 31.1006 65.1837 31.5342 64.7173 32.5354C64.2508 33.5367 64.6844 34.7265 65.6856 35.1929L78.1356 40.9929C79.1125 41.448 80.2743 41.0473 80.7628 40.0868L87.2128 27.4068C87.7136 26.4223 87.3215 25.2182 86.337 24.7174C85.3525 24.2166 84.1484 24.6087 83.6476 25.5932L79.6893 33.3747C74.1591 21.4001 62.0355 13.08 47.9703 13.08C32.0779 13.08 18.6725 23.6895 14.4403 38.2C14.131 39.2604 14.7399 40.3707 15.8003 40.68C16.8607 40.9893 17.971 40.3804 18.2803 39.32ZM17.866 55.1176C16.889 54.6617 15.7264 55.0622 15.2376 56.0232L8.78763 68.7032C8.28683 69.6877 8.67896 70.8918 9.66347 71.3926C10.648 71.8934 11.8521 71.5013 12.3529 70.5168L16.2801 62.7962C21.8464 74.679 33.9215 82.92 47.9197 82.92C63.8121 82.92 77.2174 72.3105 81.4497 57.8C81.7589 56.7396 81.1501 55.6293 80.0897 55.32C79.0293 55.0107 77.9189 55.6196 77.6097 56.68C73.8619 69.5294 61.9873 78.92 47.9197 78.92C35.225 78.92 24.3078 71.2636 19.5492 60.3172L28.6245 64.5524C29.6254 65.0195 30.8155 64.5867 31.2826 63.5858C31.7497 62.5848 31.317 61.3947 30.316 60.9276L17.866 55.1176Z" fill="var(--spectrum-global-color-gray-800, #292929)"/>
</svg>
