<svg width="160" height="160" viewBox="0 0 160 160" xmlns="http://www.w3.org/2000/svg">
<path fill-rule="evenodd" d="M130.329 22.1028C133.215 23.8415 135.112 27.3487 134.256 31.3262L134.256 31.3276L132.135 41.1678L132.134 41.1737C132.082 41.4134 132.158 41.6433 132.271 41.7718L132.273 41.773L138.821 49.188L138.822 49.1888C141.534 52.2586 141.494 56.2612 139.896 59.1491C138.288 62.0552 134.843 64.2408 130.734 63.2781L130.733 63.2778L121.303 61.0645L121.296 61.063C121.267 61.056 121.236 61.0559 121.2 61.0658C121.164 61.0759 121.116 61.0987 121.065 61.1477L121.064 61.1488L113.958 67.982L113.957 67.9827C110.94 70.8849 106.882 70.8784 103.969 69.1232C101.083 67.3845 99.1858 63.8773 100.042 59.8998L100.042 59.8984L102.163 50.0582L102.164 50.0523C102.216 49.8127 102.14 49.5828 102.027 49.4543L102.026 49.4531L95.477 42.038L95.4763 42.0372C92.7644 38.9674 92.8039 34.9648 94.402 32.077C96.0101 29.1708 99.455 26.9852 103.564 27.9479L103.565 27.9482L112.995 30.1616L113.002 30.163C113.031 30.17 113.062 30.1702 113.098 30.1602C113.134 30.1501 113.182 30.1273 113.233 30.0784L113.234 30.0773L120.34 23.244L120.341 23.2433C123.358 20.3411 127.416 20.3477 130.329 22.1028ZM126.027 28.9032C126.016 28.908 125.967 28.9318 125.887 29.0091L125.886 29.0098L118.78 35.8426C116.769 37.7781 113.917 38.5985 111.165 37.9494L111.161 37.9484L101.739 35.7369L101.738 35.7368C101.657 35.7178 101.62 35.7223 101.617 35.7227L101.617 35.7227L101.617 35.7227C101.613 35.7231 101.61 35.7235 101.601 35.728C101.575 35.7408 101.485 35.7999 101.402 35.9504C101.319 36.0999 101.29 36.2568 101.3 36.378C101.307 36.4697 101.335 36.5861 101.472 36.7409L101.473 36.7416L108.021 44.1562L108.022 44.1574C109.853 46.23 110.564 49.0672 109.983 51.7468L109.982 51.7498L107.863 61.5828L107.863 61.583C107.808 61.8363 107.852 61.9677 107.882 62.0339C107.923 62.1244 107.999 62.2117 108.097 62.2709C108.196 62.3302 108.257 62.3273 108.259 62.3272L108.261 62.3269C108.261 62.3269 108.264 62.3261 108.271 62.3228C108.282 62.318 108.331 62.2942 108.411 62.217L108.412 62.2163L115.518 55.3834L115.519 55.3823C117.53 53.4478 120.381 52.6279 123.132 53.2765L123.137 53.2776L132.559 55.4891L132.561 55.4893L132.561 55.4894C132.642 55.5082 132.678 55.5038 132.681 55.5034L132.681 55.5034L132.682 55.5033L132.685 55.5028C132.688 55.5022 132.691 55.501 132.697 55.498C132.723 55.4853 132.813 55.4261 132.896 55.2756C132.979 55.1261 133.008 54.9692 132.999 54.848C132.991 54.7563 132.963 54.6399 132.826 54.4852L132.825 54.4844L126.277 47.0698L126.277 47.0693L126.276 47.0686C124.445 44.9959 123.734 42.1584 124.315 39.4786L124.316 39.4762L126.435 29.6433C126.49 29.3898 126.446 29.2584 126.416 29.1922C126.375 29.1016 126.299 29.0143 126.201 28.9551C126.102 28.8958 126.041 28.8987 126.039 28.8989L126.037 28.8991C126.037 28.8992 126.034 28.9 126.027 28.9032ZM24.25 49.0213C24.25 39.9614 31.7416 32.9817 40.6792 32.9817H82.375C84.5841 32.9817 86.375 34.7726 86.375 36.9817C86.375 39.1909 84.5841 40.9817 82.375 40.9817H40.6792C35.8879 40.9817 32.25 44.6468 32.25 49.0213V88.6812C32.25 93.0557 35.8879 96.7208 40.6792 96.7208H51.2659H55.249L55.2658 100.704C55.2901 106.443 55.3125 114.677 55.2658 120.957L55.2658 120.96C55.2766 120.969 55.2934 120.98 55.3178 120.991C55.375 121.017 55.4242 121.019 55.4482 121.017C55.4579 121.015 55.4648 121.013 55.4721 121.01C55.4783 121.008 55.4996 120.998 55.5351 120.968L55.5407 120.963L55.5463 120.958L83.2132 97.6611L84.3299 96.7208H85.7897H119.392C124.184 96.7208 127.821 93.0557 127.821 88.6812V74.8958C127.821 72.6867 129.612 70.8958 131.821 70.8958C134.031 70.8958 135.821 72.6867 135.821 74.8958V88.6812C135.821 97.7412 128.33 104.721 119.392 104.721H87.2495L60.7104 127.068L60.704 127.074C55.5379 131.448 47.2133 127.983 47.266 120.898C47.3024 116.004 47.2965 109.897 47.2806 104.721H40.6792C31.7416 104.721 24.25 97.7412 24.25 88.6812V49.0213ZM90.3584 84.0612L83.4271 82.4994C82.5094 82.2942 81.5575 82.5507 80.8678 83.1834L75.6466 87.9999C73.5889 89.898 70.317 88.0056 70.9326 85.281L72.4944 78.3498C72.6996 77.4321 72.4431 76.4802 71.8104 75.7905L66.9939 70.5692C65.0958 68.5115 66.9882 65.2397 69.7128 65.8553L76.6441 67.4171C77.5618 67.6223 78.5137 67.3658 79.2034 66.7331L84.4246 61.9166C86.4823 60.0185 89.7542 61.9109 89.1386 64.6355L87.5767 71.5667C87.3715 72.4844 87.628 73.4363 88.2607 74.126L93.0773 79.3473C94.9754 81.405 93.083 84.6768 90.3584 84.0612Z" fill="var(--spectrum-global-color-gray-800, #292929)"/>
</svg>
