<svg width="48" height="48" viewBox="0 0 48 48" xmlns="http://www.w3.org/2000/svg">
<path fill-rule="evenodd" d="M4.81035 9.15262C4.46235 9.24176 4.18891 9.51072 4.09402 9.8572C3.99913 10.2037 4.09737 10.5744 4.35139 10.8284L8.95018 15.4272C9.1577 15.6348 9.44589 15.7406 9.73839 15.7168L13.513 15.4097L19.8866 21.7833C20.3748 22.2714 21.1662 22.2714 21.6544 21.7833C22.1425 21.2951 22.1425 20.5037 21.6544 20.0155L15.2811 13.6422L15.5883 9.86693C15.6121 9.57443 15.5062 9.28623 15.2987 9.07872L10.6999 4.47993C10.4459 4.22591 10.0751 4.12766 9.72866 4.22255C9.38218 4.31744 9.11323 4.59089 9.02408 4.93889L8.16481 8.29334L4.81035 9.15262ZM24.0009 8.86939C22.2571 8.86939 20.5846 9.16389 19.029 9.70485C18.377 9.9316 17.6645 9.58683 17.4378 8.93477C17.211 8.28272 17.5558 7.5703 18.2079 7.34355C20.0239 6.71202 21.9737 6.36939 24.0009 6.36939C33.7383 6.36938 41.632 14.2631 41.632 24.0004C41.632 33.7378 33.7383 41.6315 24.0009 41.6315C14.2636 41.6315 6.36987 33.7378 6.36987 24.0004C6.36987 22.0442 6.68895 20.1599 7.27887 18.3983C7.49809 17.7437 8.20648 17.3907 8.8611 17.61C9.51573 17.8292 9.86869 18.5376 9.64947 19.1922C9.14415 20.7012 8.86987 22.3175 8.86987 24.0004C8.86987 32.3571 15.6443 39.1315 24.0009 39.1315C32.3576 39.1315 39.132 32.3571 39.132 24.0004C39.132 15.6438 32.3576 8.86939 24.0009 8.86939ZM24.0004 16.6223C23.1992 16.6223 22.4302 16.7496 21.7111 16.984C21.0547 17.198 20.3492 16.8394 20.1352 16.1831C19.9212 15.5267 20.2798 14.8212 20.9361 14.6072C21.9024 14.2921 22.9328 14.1223 24.0004 14.1223C29.4556 14.1223 33.878 18.5447 33.878 23.9999C33.878 29.4551 29.4556 33.8775 24.0004 33.8775C18.5451 33.8775 14.1228 29.4551 14.1228 23.9999C14.1228 22.9941 14.2735 22.0213 14.5545 21.1039C14.7566 20.4438 15.4556 20.0726 16.1157 20.2747C16.7758 20.4769 17.1471 21.1759 16.9449 21.836C16.7358 22.5188 16.6228 23.245 16.6228 23.9999C16.6228 28.0744 19.9259 31.3775 24.0004 31.3775C28.0749 31.3775 31.378 28.0744 31.378 23.9999C31.378 19.9254 28.0749 16.6223 24.0004 16.6223ZM21.3284 25.6532C23.5882 25.4428 25.3869 23.6439 25.5972 21.384C26.5008 21.9282 27.1052 22.9188 27.1052 24.0505C27.1052 25.7684 25.7126 27.161 23.9947 27.161C22.8631 27.161 21.8726 26.5567 21.3284 25.6532Z" fill="var(--spectrum-global-color-gray-800, #292929)"/>
</svg>
