<svg width="48" height="48" viewBox="0 0 48 48" xmlns="http://www.w3.org/2000/svg">
<path fill-rule="evenodd" d="M24 8.61914C23.4386 8.61914 22.8843 8.64948 22.3386 8.7086C22.891 9.06541 23.4356 9.24902 23.8265 9.24902C24.3514 9.24902 24.8307 9.03688 25.283 8.67235C24.86 8.63711 24.4321 8.61914 24 8.61914ZM8.75 23.8691C8.75 19.3824 10.6876 15.3483 13.7717 12.5578C13.9691 12.9134 14.196 13.2837 14.4469 13.6394C14.9992 14.4222 15.8599 15.4161 16.9842 15.7373C17.9641 16.0173 19.0981 15.9762 19.9446 15.9455C20.0342 15.9422 20.1206 15.9391 20.2032 15.9365C20.6837 15.9212 21.0658 15.9174 21.3804 15.9496C21.7038 15.9827 21.8246 16.0431 21.8512 16.0608C21.929 16.1127 21.9438 16.1489 21.9461 16.1546L21.9462 16.1549C21.9501 16.1645 21.9593 16.1928 21.9495 16.2502C21.9271 16.3809 21.8129 16.5855 21.5735 16.7185C20.959 17.0599 20.34 17.4916 19.8745 18.0902C19.3857 18.7185 19.1107 19.4737 19.1107 20.359C19.1107 20.5781 19.0955 20.7214 19.0772 20.8117C18.9954 20.8228 18.858 20.8296 18.6447 20.8118C18.5669 20.8053 18.4827 20.7979 18.3931 20.7899L18.393 20.7899C17.7109 20.7295 16.7111 20.6408 15.7669 20.7396C14.717 20.8494 13.3452 21.2291 12.6024 22.5293C12.2797 23.094 11.9055 24.0355 11.9946 25.1622C12.0878 26.3397 12.6752 27.5556 13.9985 28.6144C15.5247 29.8356 17.2031 30.0955 19.373 30.3366C20.6048 30.4735 21.292 30.7365 21.6776 31.0088C22.0113 31.2443 22.1955 31.5385 22.2893 32.0083C22.4542 32.8335 22.1761 34.0854 21.576 35.6338C21.2897 36.3724 20.9555 37.1184 20.622 37.8439C20.5494 38.002 20.4762 38.1602 20.4034 38.3176L20.2479 38.6541C13.6399 36.9823 8.75 30.9968 8.75 23.8691ZM16.4897 12.1982C16.2174 11.8121 15.9763 11.3947 15.7841 11.0193C16.886 10.3133 18.0846 9.74517 19.3558 9.33922C19.751 9.85524 20.2697 10.3212 20.8017 10.6881C21.6256 11.2564 22.7146 11.749 23.8265 11.749C25.1223 11.749 26.1604 11.1931 26.9205 10.5627C27.4453 10.1274 27.8665 9.63366 28.1867 9.20103C28.444 9.27431 28.6984 9.35418 28.9499 9.44044C28.7846 10.6549 28.6496 12.1454 28.8523 13.5032C29.0967 15.1406 29.8981 16.8929 31.9914 17.5095C34.1747 18.1527 36.0498 17.4265 37.297 16.3969C37.7313 17.168 38.1004 17.9807 38.3969 18.8275C37.642 18.6966 36.7456 18.5716 35.8199 18.5151C34.6301 18.4424 33.3001 18.4761 32.1358 18.8136C30.9596 19.1545 29.7742 19.8668 29.2582 21.2597C27.814 25.1582 29.7641 27.5269 30.2743 28.0373C31.036 28.7991 31.8192 29.1557 32.3865 29.4139L32.3867 29.414C32.4554 29.4453 32.5209 29.4751 32.5829 29.5041C33.1262 29.7579 33.5037 29.9741 33.8914 30.5341C34.2133 30.9992 34.3578 31.7444 34.3823 32.7792C34.3921 33.1886 34.3835 33.5944 34.3746 34.0116V34.0117V34.0117C34.3727 34.1024 34.3708 34.1938 34.369 34.2858C34.3642 34.5357 34.3605 34.7969 34.3647 35.0556C31.6442 37.5775 28.0021 39.1191 24 39.1191C23.5989 39.1191 23.2015 39.1037 22.8082 39.0733L22.8935 38.8881C23.231 38.154 23.5918 37.3506 23.907 36.5373C24.5099 34.9818 25.0608 33.1197 24.7409 31.5184C24.5407 30.5167 24.0506 29.6239 23.1196 28.9665C22.2406 28.3459 21.0728 28.0101 19.6491 27.8519C17.4522 27.6078 16.4602 27.3824 15.5603 26.6624C14.7213 25.991 14.5202 25.3871 14.4868 24.965C14.4494 24.4921 14.6105 24.0541 14.7731 23.7695C14.9065 23.536 15.2333 23.309 16.027 23.226C16.7128 23.1543 17.4563 23.2186 18.1628 23.2797C18.2549 23.2877 18.3464 23.2956 18.437 23.3032C19.2872 23.374 20.2338 23.276 20.9042 22.5684C21.5328 21.9049 21.6107 21.0096 21.6107 20.359C21.6107 20.031 21.6996 19.8156 21.8479 19.625C22.0193 19.4046 22.3102 19.1691 22.7876 18.9039C23.6402 18.4302 24.2539 17.6036 24.4135 16.6727C24.5827 15.6857 24.2202 14.6356 23.2379 13.9807C22.7185 13.6344 22.1265 13.5129 21.6348 13.4625C21.1343 13.4113 20.5989 13.4226 20.1239 13.4377L19.9375 13.4437C18.9818 13.4748 18.2489 13.4986 17.671 13.3335C17.4365 13.2665 17.0031 12.9259 16.4897 12.1982ZM36.8522 32.0814C38.37 29.711 39.25 26.8928 39.25 23.8691C39.25 23.0644 39.1877 22.2741 39.0675 21.503C38.9144 21.4706 38.7458 21.4359 38.5641 21.4004C37.7621 21.2437 36.7231 21.0749 35.6675 21.0104C34.5943 20.9449 33.5948 20.9936 32.8318 21.2148C32.0806 21.4325 31.7408 21.755 31.6025 22.1282C30.6196 24.7813 31.9338 26.1613 32.0423 26.2697C32.4709 26.6984 32.8593 26.8777 33.4272 27.1399L33.4282 27.1404C33.4964 27.1719 33.5673 27.2046 33.641 27.2391C34.3598 27.5749 35.1956 28.0259 35.9468 29.1111C36.574 30.0169 36.7824 31.1126 36.8522 32.0814ZM35.8884 14.3169C34.6406 12.7659 33.0955 11.4642 31.3396 10.4983C31.2421 11.4144 31.2053 12.3328 31.3249 13.1341C31.4971 14.288 31.927 14.8844 32.6978 15.1114C34.0371 15.5059 35.1973 14.9693 35.8884 14.3169ZM6.25 23.8691C6.25 14.0661 14.1969 6.11914 24 6.11914C33.8031 6.11914 41.75 14.0661 41.75 23.8691C41.75 33.6722 33.8031 41.6191 24 41.6191C14.1969 41.6191 6.25 33.6722 6.25 23.8691Z" fill="var(--spectrum-global-color-gray-800, #292929)"/>
</svg>
