<svg width="96" height="96" viewBox="0 0 96 96" xmlns="http://www.w3.org/2000/svg">
<path fill-rule="evenodd" d="M13.7482 16.8969C14.0251 16.3044 14.5742 15.8847 15.2186 15.7731C17.3111 15.4105 20.2219 15.326 23.1725 15.9101C25.6884 16.408 28.3593 17.4189 30.5574 19.2809C35.745 16.8607 41.6919 15.4917 47.9999 15.4917C64.9776 15.4917 79.6354 25.5236 83.4085 39.4087C83.8913 39.2875 84.4378 39.0488 84.9397 38.6293C85.7588 37.9447 86.6694 36.6014 86.7916 33.9089C86.8417 32.8054 87.7768 31.9515 88.8803 32.0016C89.9837 32.0517 90.8376 32.9868 90.7875 34.0903C90.6235 37.7028 89.3276 40.175 87.5049 41.6984C86.4351 42.5926 85.2554 43.0989 84.1674 43.3386C84.2874 44.3679 84.3489 45.4137 84.3489 46.4737C84.3489 57.4592 77.6779 66.9688 67.8566 72.4342L64.9169 80.439C64.6278 81.2263 63.8782 81.7496 63.0395 81.7496H55.4041C54.5661 81.7496 53.817 81.2271 53.5273 80.4408L52.3473 77.2365C50.9212 77.3813 49.4704 77.4557 47.9999 77.4557C46.5131 77.4557 45.0465 77.3796 43.6052 77.2317L42.4233 80.4408C42.1337 81.2271 41.3846 81.7496 40.5466 81.7496H32.9112C32.0725 81.7496 31.3229 81.2263 31.0338 80.439L28.0815 72.3998C22.0221 69.0134 17.1785 64.0985 14.3576 58.2343L8.19276 54.6462C6.34661 53.5717 5.21094 51.5967 5.21094 49.4606V43.4876C5.21094 41.3524 6.34567 39.3781 8.19061 38.3032L14.3594 34.7094C15.5686 32.1968 17.1496 29.8582 19.037 27.7405L13.8292 18.7458C13.5015 18.1798 13.4713 17.4894 13.7482 16.8969ZM28.7173 23.0431C29.3406 23.7116 30.3147 23.8573 31.09 23.4609L31.0949 23.4705C36.0033 20.9528 41.7889 19.4917 47.9999 19.4917C66.1977 19.4917 80.3489 31.877 80.3489 46.4737C80.3489 55.8624 74.5608 64.2763 65.5294 69.1484C65.0102 69.3482 64.5765 69.7625 64.3697 70.3257L61.6434 77.7496H56.7989L55.5574 74.3787C55.2303 73.4904 54.3392 72.9736 53.4386 73.0841L53.4374 73.0757C51.6707 73.3254 49.8542 73.4557 47.9999 73.4557C46.1456 73.4557 44.3291 73.3254 42.5624 73.0757L42.5603 73.0906C41.6435 72.9552 40.7262 73.4746 40.3932 74.3787L39.1518 77.7496H34.3073L31.581 70.3257C31.4115 69.8642 31.0898 69.5028 30.6935 69.2773L30.6975 69.2698C24.8595 66.1772 20.3399 61.5977 17.8406 56.2436C17.6975 55.7814 17.3874 55.3695 16.9362 55.107L10.2049 51.1891C9.58949 50.8309 9.21094 50.1726 9.21094 49.4606V43.4876C9.21094 42.7759 9.58918 42.1178 10.2042 41.7595L16.937 37.8371C17.3848 37.5762 17.6936 37.1681 17.8378 36.7098C19.0457 34.1202 20.7254 31.7122 22.8008 29.5641C23.5334 28.9517 23.7417 27.8832 23.2469 27.0287L18.8803 19.4867C19.9868 19.4935 21.1891 19.5951 22.3958 19.8339C24.8313 20.316 27.1114 21.3207 28.7173 23.0431ZM30.0005 35.9996C30.0005 37.6564 28.6573 38.9996 27.0005 38.9996C25.3436 38.9996 24.0005 37.6564 24.0005 35.9996C24.0005 34.3427 25.3436 32.9996 27.0005 32.9996C28.6573 32.9996 30.0005 34.3427 30.0005 35.9996ZM43.6896 27.7654C47.0272 27.0318 49.6541 27.0614 52.8099 27.7641C53.888 28.0043 54.9567 27.3249 55.1968 26.2467C55.4369 25.1686 54.7575 24.0999 53.6794 23.8598C49.9601 23.0315 46.7433 22.9988 42.831 23.8586C41.7521 24.0957 41.0698 25.1624 41.3069 26.2413C41.544 27.3201 42.6107 28.0024 43.6896 27.7654Z" fill="var(--spectrum-global-color-gray-800, #292929)"/>
</svg>
