<svg width="48" height="48" viewBox="0 0 48 48" xmlns="http://www.w3.org/2000/svg">
<path fill-rule="evenodd" d="M7.875 14.0273C7.875 11.1278 10.2255 8.77734 13.125 8.77734H30C32.8995 8.77734 35.25 11.1278 35.25 14.0273V16.876C35.25 17.5663 34.6904 18.126 34 18.126C33.3096 18.126 32.75 17.5663 32.75 16.876V14.0273C32.75 12.5086 31.5188 11.2773 30 11.2773H13.125C11.6062 11.2773 10.375 12.5086 10.375 14.0273V24.9893L10.3751 25.0061L14.8576 18.0581C15.9636 16.3438 18.48 16.3715 19.548 18.1097L19.5491 18.1114L20.1028 19.0158C20.4633 19.6046 20.2782 20.3741 19.6894 20.7346C19.1006 21.0951 18.3311 20.91 17.9707 20.3212L17.418 19.4185L17.4177 19.4179C17.3128 19.2481 17.0666 19.2456 16.9583 19.4134L11.8044 27.402C12.1964 27.617 12.6464 27.7393 13.125 27.7393H17.7812C18.4716 27.7393 19.0312 28.2989 19.0312 28.9893C19.0312 29.6796 18.4716 30.2393 17.7812 30.2393H13.125C10.2255 30.2393 7.875 27.8888 7.875 24.9893V14.0273ZM28.0725 17.2109C28.9009 17.2109 29.5725 16.5394 29.5725 15.7109C29.5725 14.8825 28.9009 14.2109 28.0725 14.2109C27.2441 14.2109 26.5725 14.8825 26.5725 15.7109C26.5725 16.5394 27.2441 17.2109 28.0725 17.2109ZM20.5259 24.876C20.5259 21.9765 22.8764 19.626 25.7759 19.626H34.875C37.7745 19.626 40.125 21.9765 40.125 24.876V33.9751C40.125 36.8746 37.7745 39.2251 34.875 39.2251H25.7759C22.8764 39.2251 20.5259 36.8746 20.5259 33.9751V24.876ZM25.7759 22.126C24.2571 22.126 23.0259 23.3572 23.0259 24.876V33.9751C23.0259 35.4939 24.2571 36.7251 25.7759 36.7251H34.875C36.3938 36.7251 37.625 35.4939 37.625 33.9751V24.876C37.625 23.3572 36.3938 22.126 34.875 22.126H25.7759ZM28.4087 25.6407L34.0158 28.8569C34.6437 29.2171 34.6426 30.1157 34.0138 30.4744L28.399 33.6772C27.7702 34.0359 26.9852 33.5857 26.9861 32.8668L26.9938 26.4478C26.9947 25.7289 27.7807 25.2806 28.4087 25.6407Z" fill="var(--spectrum-global-color-gray-800, #292929)"/>
</svg>
