<svg width="48" height="48" viewBox="0 0 48 48" xmlns="http://www.w3.org/2000/svg">
<path fill-rule="evenodd" d="M18.821 7.75C16.5908 7.75 14.75 9.53529 14.75 11.7779C14.75 13.67 16.0385 15.4695 17.981 15.8374V20.3572C16.1154 20.6828 14.75 22.2343 14.75 24.2221C14.75 26.4647 16.5908 28.25 18.821 28.25H22.75V40.5C22.75 41.1904 23.3096 41.75 24 41.75C24.6904 41.75 25.25 41.1904 25.25 40.5V28.25H29.1791C31.4092 28.25 33.25 26.4647 33.25 24.2221C33.25 22.33 31.9615 20.5304 30.019 20.1625V15.6427C31.8846 15.3172 33.25 13.7657 33.25 11.7779C33.25 9.53529 31.4092 7.75 29.1791 7.75H18.821ZM17.25 11.7779C17.25 10.9521 17.9351 10.25 18.821 10.25H29.1791C30.0648 10.25 30.75 10.9521 30.75 11.7779C30.75 12.605 30.1672 13.2058 29.2827 13.2058H28.769C28.0787 13.2058 27.519 13.7655 27.519 14.4558V21.3443C27.519 22.0346 28.0787 22.5943 28.769 22.5943H29.2827C30.0521 22.5943 30.75 23.2759 30.75 24.2221C30.75 25.0479 30.0648 25.75 29.1791 25.75H18.821C17.9351 25.75 17.25 25.0479 17.25 24.2221C17.25 23.395 17.8328 22.7942 18.7173 22.7942H19.231C19.9213 22.7942 20.481 22.2345 20.481 21.5442V14.6557C20.481 13.9654 19.9213 13.4057 19.231 13.4057H18.7173C17.9478 13.4057 17.25 12.7241 17.25 11.7779Z" fill="var(--spectrum-global-color-gray-800, #292929)"/>
</svg>
