<svg width="48" height="48" viewBox="0 0 48 48" xmlns="http://www.w3.org/2000/svg">
<path fill-rule="evenodd" d="M13.0991 7.8457C11.5952 7.8457 10.2253 8.71507 9.58992 10.0793L9.58965 10.0799L7.04505 15.5508L7.04484 15.5512L7.04472 15.5515C6.51974 16.6787 6.25 17.9058 6.25 19.1457C6.25 21.4519 7.70766 23.4137 9.75 24.1739V34.9999C9.75 37.8994 12.1005 40.2499 15 40.2499H33C35.8995 40.2499 38.25 37.8993 38.25 34.9999V24.1931C40.3199 23.4473 41.8026 21.4716 41.8026 19.1457C41.8026 17.9393 41.546 16.7464 41.0515 15.6468C41.0396 15.6147 41.0264 15.5829 41.0118 15.5515L38.4669 10.0799L38.4666 10.0793C37.8312 8.71507 36.4613 7.8457 34.9575 7.8457H13.0991ZM35.75 24.4698C34.3651 24.2979 33.1421 23.601 32.2895 22.584C31.3015 23.7625 29.8161 24.5111 28.1579 24.5111C26.4997 24.5111 25.0143 23.7625 24.0263 22.584C23.3713 23.3653 22.4977 23.9577 21.5 24.2682V32H35.75V24.4698ZM19 24.4372C17.7073 24.2214 16.5695 23.5459 15.7632 22.584C14.8998 23.6139 13.6565 24.3155 12.25 24.476V34.9999C12.25 36.5186 13.4812 37.7499 15 37.7499H19.0222C19.0076 37.6735 19 37.5946 19 37.514V24.4372ZM11.6316 22.0111C13.1596 22.0111 14.403 20.8311 14.5062 19.3459L16.816 18.4716C16.9408 18.6662 17.0132 18.8976 17.0132 19.1457C17.0132 20.7236 18.2987 22.0111 19.8947 22.0111C21.4908 22.0111 22.7763 20.7236 22.7763 19.1457V18.9423C22.7763 18.2519 23.336 17.6923 24.0263 17.6923C24.7167 17.6923 25.2763 18.2519 25.2763 18.9423V19.1457C25.2763 20.7236 26.5618 22.0111 28.1579 22.0111C29.7539 22.0111 31.0395 20.7236 31.0395 19.1457V18.9423C31.0395 18.2519 31.5991 17.6923 32.2895 17.6923C32.9798 17.6923 33.5395 18.2519 33.5395 18.9423V19.1457C33.5395 20.7236 34.825 22.0111 36.4211 22.0111C38.0171 22.0111 39.3026 20.7236 39.3026 19.1457C39.3026 18.2691 39.1108 17.4017 38.7408 16.6052C38.7276 16.5767 38.7155 16.5479 38.7045 16.5187L36.2004 11.1348L16.816 18.4716C16.816 18.4716 16.816 18.4716 16.816 18.4716L36.2001 11.1342C35.9766 10.6549 35.493 10.3457 34.9575 10.3457H13.0991C12.5634 10.3457 12.0796 10.6552 11.8562 11.1348L9.31153 16.6058L9.3112 16.6065C8.94096 17.4013 8.75 18.2681 8.75 19.1457C8.75 20.7236 10.0355 22.0111 11.6316 22.0111ZM16.816 18.4716L14.5062 19.3459L14.5138 19.1063C14.5353 18.4239 15.1003 17.8851 15.7829 17.8958C16.2174 17.9027 16.5973 18.1307 16.816 18.4716ZM21.5 34.5H35.75V34.9999C35.75 36.5186 34.5188 37.7499 33 37.7499H21.4778C21.4924 37.6735 21.5 37.5946 21.5 37.514V34.5Z" fill="var(--spectrum-global-color-gray-800, #292929)"/>
</svg>
