<svg width="48" height="48" viewBox="0 0 48 48" xmlns="http://www.w3.org/2000/svg">
<path fill-rule="evenodd" d="M14.3096 11.5469C14.3096 12.9276 15.4289 14.0469 16.8096 14.0469L19.4357 18.5954C18.2026 19.6376 17.3309 21.094 17.0355 22.75H11.7847C11.3524 22.0027 10.5445 21.5 9.61914 21.5C8.23843 21.5 7.11914 22.6193 7.11914 24C7.11914 25.3807 8.23843 26.5 9.61914 26.5C10.5445 26.5 11.3524 25.9973 11.7847 25.25H17.0353C17.3304 26.9063 18.202 28.3631 19.4351 29.4055L16.8096 33.9531C15.4289 33.9531 14.3096 35.0724 14.3096 36.4531C14.3096 37.8338 15.4289 38.9531 16.8096 38.9531C18.1903 38.9531 19.3096 37.8338 19.3096 36.4531C19.3096 35.9976 19.1877 35.5705 18.9749 35.2027L21.5993 30.6571C22.3486 30.9274 23.1567 31.0746 23.9992 31.0746C24.8419 31.0746 25.6502 30.9273 26.3997 30.657L29.0247 35.2036C28.8118 35.5714 28.6899 35.9985 28.6899 36.4541C28.6899 37.8348 29.8092 38.9541 31.1899 38.9541C32.5707 38.9541 33.6899 37.8348 33.6899 36.4541C33.6899 35.0734 32.5707 33.9541 31.19 33.9541L28.5637 29.4052C29.7967 28.3628 30.6681 26.9061 30.9632 25.25H36.2143C36.6466 25.9973 37.4545 26.5 38.3799 26.5C39.7606 26.5 40.8799 25.3807 40.8799 24C40.8799 22.6193 39.7606 21.5 38.3799 21.5C37.4545 21.5 36.6466 22.0027 36.2143 22.75L30.963 22.75C30.6676 21.0942 29.7961 19.6379 28.5632 18.5958L31.1895 14.0469H31.1899C32.5707 14.0469 33.6899 12.9276 33.6899 11.5469C33.6899 10.1662 32.5707 9.04688 31.1899 9.04688C29.8092 9.04688 28.6899 10.1662 28.6899 11.5469C28.6899 12.0022 28.8117 12.4292 29.0244 12.7969L26.399 17.3442C25.6497 17.074 24.8417 16.9268 23.9992 16.9268C23.157 16.9268 22.3491 17.074 21.5999 17.344L18.9749 12.7973C19.1877 12.4295 19.3096 12.0024 19.3096 11.5469C19.3096 10.1662 18.1903 9.04688 16.8096 9.04688C15.4289 9.04688 14.3096 10.1662 14.3096 11.5469ZM23.9992 19.4268C21.4731 19.4268 19.4253 21.4746 19.4253 24.0007C19.4253 26.5268 21.4731 28.5746 23.9992 28.5746C26.5254 28.5746 28.5732 26.5268 28.5732 24.0007C28.5732 21.4746 26.5254 19.4268 23.9992 19.4268Z" fill="var(--spectrum-global-color-gray-800, #292929)"/>
</svg>
