<svg width="48" height="48" viewBox="0 0 48 48" xmlns="http://www.w3.org/2000/svg">
<path fill-rule="evenodd" d="M18.2499 15.25C18.2499 11.7156 20.9041 9 23.9999 9C27.0957 9 29.7499 11.7156 29.7499 15.25C29.7499 18.7844 27.0957 21.5 23.9999 21.5C20.9041 21.5 18.2499 18.7844 18.2499 15.25ZM23.9999 6.5C19.3638 6.5 15.7499 10.5001 15.7499 15.25C15.7499 19.9999 19.3638 24 23.9999 24C28.6361 24 32.2499 19.9999 32.2499 15.25C32.2499 10.5001 28.6361 6.5 23.9999 6.5ZM11.5314 38.0927C12.5605 32.1476 17.7926 27.5701 23.9996 27.5701C30.2067 27.5701 35.4388 32.1476 36.4679 38.0927C36.5449 38.5423 36.1907 38.9701 35.7196 38.9701H23.9996H12.2796C11.8085 38.9701 11.4544 38.5423 11.5314 38.0927ZM11.5314 38.0927C11.5315 38.0925 11.5315 38.0923 11.5315 38.0921L10.2996 37.8801L11.5313 38.0932C11.5314 38.093 11.5314 38.0929 11.5314 38.0927ZM23.9996 25.0701C16.5469 25.0701 10.2991 30.5522 9.06794 37.6669L9.06775 37.668C8.72518 39.6582 10.2709 41.4701 12.2796 41.4701H23.9996H35.7196C37.7283 41.4701 39.2741 39.6582 38.9315 37.668L38.9313 37.6669C37.7002 30.5522 31.4524 25.0701 23.9996 25.0701Z" fill="var(--spectrum-global-color-gray-800, #292929)"/>
</svg>
