<svg width="48" height="48" viewBox="0 0 48 48" xmlns="http://www.w3.org/2000/svg">
<path fill-rule="evenodd" d="M17 6.75C17.6904 6.75 18.25 7.30964 18.25 8V9.75H29.75V8C29.75 7.30964 30.3096 6.75 31 6.75C31.6904 6.75 32.25 7.30964 32.25 8V9.75H35C37.8995 9.75 40.25 12.1005 40.25 15V20V35C40.25 37.8995 37.8995 40.25 35 40.25H13C10.1005 40.25 7.75 37.8995 7.75 35V15C7.75 12.1005 10.1005 9.75 13 9.75H15.75V8C15.75 7.30964 16.3096 6.75 17 6.75ZM29.75 12.25V14C29.75 14.6904 30.3096 15.25 31 15.25C31.6904 15.25 32.25 14.6904 32.25 14V12.25H35C36.5188 12.25 37.75 13.4812 37.75 15V18.75H10.25V15C10.25 13.4812 11.4812 12.25 13 12.25H15.75V14C15.75 14.6904 16.3096 15.25 17 15.25C17.6904 15.25 18.25 14.6904 18.25 14V12.25H29.75ZM10.25 21.25V35C10.25 36.5188 11.4812 37.75 13 37.75H35C36.5188 37.75 37.75 36.5188 37.75 35V21.25H10.25ZM15 24H17C17.5523 24 18 24.4477 18 25V27C18 27.5523 17.5523 28 17 28H15C14.4477 28 14 27.5523 14 27V25C14 24.4477 14.4477 24 15 24ZM25 24H23C22.4477 24 22 24.4477 22 25V27C22 27.5523 22.4477 28 23 28H25C25.5523 28 26 27.5523 26 27V25C26 24.4477 25.5523 24 25 24ZM31 24H33C33.5523 24 34 24.4477 34 25V27C34 27.5523 33.5523 28 33 28H31C30.4477 28 30 27.5523 30 27V25C30 24.4477 30.4477 24 31 24ZM17 31H15C14.4477 31 14 31.4477 14 32V34C14 34.5523 14.4477 35 15 35H17C17.5523 35 18 34.5523 18 34V32C18 31.4477 17.5523 31 17 31ZM23 31H25C25.5523 31 26 31.4477 26 32V34C26 34.5523 25.5523 35 25 35H23C22.4477 35 22 34.5523 22 34V32C22 31.4477 22.4477 31 23 31ZM33 31H31C30.4477 31 30 31.4477 30 32V34C30 34.5523 30.4477 35 31 35H33C33.5523 35 34 34.5523 34 34V32C34 31.4477 33.5523 31 33 31Z" fill="var(--spectrum-global-color-gray-800, #292929)"/>
</svg>
