<svg width="160" height="160" viewBox="0 0 160 160" xmlns="http://www.w3.org/2000/svg">
<path fill-rule="evenodd" d="M73.8675 30.9649C70.1681 33.7825 67.5539 38.2426 66.0433 42.3881L60.6926 59.8219H88.7465C90.2014 59.8219 91.5416 60.6119 92.2461 61.8848L103.238 81.7422C110.752 74.2346 118.333 66.6624 124.047 60.9564C125.61 59.3954 128.143 59.3971 129.704 60.9603C131.265 62.5235 131.263 65.0561 129.7 66.6172C123.574 72.7343 115.303 80.9963 107.269 89.0239L119.711 111.5C120.781 113.433 120.081 115.867 118.148 116.937C116.216 118.007 113.781 117.308 112.712 115.375L101.382 94.9072L98.663 97.6247C93.5132 102.773 88.8819 107.404 85.528 110.763C83.8508 112.442 82.4944 113.802 81.5528 114.748C81.0815 115.221 80.7166 115.588 80.4682 115.839C80.3961 115.912 80.3353 115.974 80.2855 116.025C80.2489 116.062 80.2182 116.093 80.1933 116.118L80.1695 116.143C78.7964 117.642 76.4834 117.882 74.8232 116.637C73.0559 115.312 72.6977 112.804 74.0232 111.037C74.1252 110.901 74.2176 110.797 74.23 110.783L74.2312 110.782C74.2604 110.749 74.2848 110.722 74.2978 110.708C74.3251 110.679 74.3497 110.653 74.365 110.637C74.3978 110.603 74.4354 110.564 74.4722 110.527C74.548 110.449 74.6523 110.343 74.7804 110.214C75.038 109.953 75.4101 109.579 75.8829 109.104C76.8294 108.153 78.1895 106.79 79.8674 105.109C83.2238 101.749 87.857 97.115 93.0073 91.9668C94.4214 90.5532 95.8745 89.1009 97.3509 87.6253L86.3888 67.8219H58.2372L36.952 137.173C36.3038 139.285 34.0663 140.472 31.9544 139.824C29.8425 139.175 28.6559 136.938 29.3041 134.826L49.8689 67.8219H37.0606C34.8515 67.8219 33.0606 66.0311 33.0606 63.8219C33.0606 61.6128 34.8515 59.8219 37.0606 59.8219H52.3242L58.4248 39.945C58.4439 39.8831 58.4644 39.8215 58.4864 39.7605C60.2932 34.7553 63.6373 28.7005 69.0203 24.6006C74.6217 20.3345 82.1274 18.4395 91.3271 21.5164C93.4222 22.2171 94.5526 24.4835 93.8519 26.5786C93.1512 28.6737 90.8848 29.804 88.7897 29.1033C82.118 26.872 77.375 28.2936 73.8675 30.9649ZM80.1444 116.169L80.1562 116.157C80.1028 116.215 80.0857 116.23 80.1444 116.169Z" fill="var(--spectrum-global-color-gray-800, #292929)"/>
</svg>
