<svg width="160" height="160" viewBox="0 0 160 160" xmlns="http://www.w3.org/2000/svg">
<path fill-rule="evenodd" d="M47.5602 23.7402C38.6739 23.7402 31.4902 30.9783 31.4902 39.8702V119.62C31.4902 128.51 38.6617 135.75 47.5602 135.75H112.43C121.317 135.75 128.5 128.512 128.5 119.62V71.4102C128.5 67.0105 126.712 62.78 123.511 59.7355L123.505 59.7302L90.5601 28.2144L90.5576 28.212C87.6806 25.4518 83.8923 23.8812 79.9349 23.7669C79.7825 23.7493 79.6274 23.7402 79.4702 23.7402H47.5602ZM47.5602 31.7402H79.0677C79.2001 31.7535 79.3344 31.7602 79.4702 31.7602C81.5446 31.7602 83.5302 32.5557 85.0204 33.986L85.0252 33.9907L117.985 65.5207L117.995 65.5302C119.59 67.0453 120.5 69.1725 120.5 71.4102V119.62C120.5 124.128 116.864 127.75 112.43 127.75H47.5602C43.1187 127.75 39.4902 124.13 39.4902 119.62V39.8702C39.4902 35.3621 43.1266 31.7402 47.5602 31.7402ZM71.4805 43.6202C69.2713 43.6202 67.4805 45.4111 67.4805 47.6202C67.4805 49.8294 69.2713 51.6202 71.4805 51.6202H75.4605V58.2802H71.4805C69.2713 58.2802 67.4805 60.0711 67.4805 62.2802C67.4805 64.4894 69.2713 66.2802 71.4805 66.2802H75.4605V72.9302H71.4805C69.2713 72.9302 67.4805 74.7211 67.4805 76.9302C67.4805 79.1394 69.2713 80.9302 71.4805 80.9302H75.4605V87.5902H72.4805C70.2713 87.5902 68.4805 89.3811 68.4805 91.5902V111.68C68.4805 116.099 72.0613 119.68 76.4805 119.68H82.4905C86.9096 119.68 90.4905 116.099 90.4905 111.68V91.5902C90.4905 89.3811 88.6996 87.5902 86.4905 87.5902H83.4605V76.9302V73.6003H88.5398C90.7489 73.6003 92.5398 71.8094 92.5398 69.6003C92.5398 67.3911 90.7489 65.6003 88.5398 65.6003H83.4605V62.2802V58.9502H88.5398C90.7489 58.9502 92.5398 57.1594 92.5398 54.9502C92.5398 52.7411 90.7489 50.9502 88.5398 50.9502H83.4605V47.6202C83.4605 45.4111 81.6696 43.6202 79.4605 43.6202H71.4805ZM76.4805 103.64V111.68H82.4905V103.64H76.4805Z" fill="var(--spectrum-global-color-gray-800, #292929)"/>
</svg>
