<svg width="160" height="160" viewBox="0 0 160 160" xmlns="http://www.w3.org/2000/svg">
<path fill-rule="evenodd" d="M33.0769 41.3333C33.0769 36.6109 36.5943 32 41.8462 32H65.6923C70.9442 32 74.4615 36.6109 74.4615 41.3333V50.6667H85.5385V41.3333C85.5385 36.6109 89.0558 32 94.3077 32H118.154C123.406 32 126.923 36.6109 126.923 41.3333V50.6667H127.692C138.212 50.6667 146 60.0532 146 70.6667V116C146 126.613 138.212 136 127.692 136H32.3077C21.7879 136 14 126.613 14 116V70.6667C14 60.0532 21.7879 50.6667 32.3077 50.6667H33.0769V41.3333ZM41.4555 40.2284C41.2604 40.4466 41.0769 40.8259 41.0769 41.3333V54.6667V58.6667H37.0769H32.3077C27.0237 58.6667 22 63.607 22 70.6667V116C22 123.06 27.0237 128 32.3077 128H127.692C132.976 128 138 123.06 138 116V70.6667C138 63.607 132.976 58.6667 127.692 58.6667H122.923H118.923V54.6667V41.3333C118.923 40.8259 118.74 40.4466 118.544 40.2284C118.356 40.0173 118.211 40 118.154 40H94.3077C94.2501 40 94.1059 40.0173 93.9171 40.2284C93.7219 40.4466 93.5385 40.8259 93.5385 41.3333V54.6667V58.6667H89.5385H70.4615H66.4615V54.6667V41.3333C66.4615 40.8259 66.2781 40.4466 66.083 40.2284C65.8941 40.0173 65.7499 40 65.6923 40H41.8462C41.7886 40 41.6443 40.0173 41.4555 40.2284Z" fill="var(--spectrum-global-color-gray-800, #292929)"/>
</svg>
