<svg width="160" height="160" viewBox="0 0 160 160" xmlns="http://www.w3.org/2000/svg">
<path fill-rule="evenodd" d="M117.577 80.0784L141.077 56.5784C142.64 55.0163 142.64 52.4837 141.077 50.9216L117.577 27.4216C116.015 25.8595 113.483 25.8595 111.921 27.4216C110.358 28.9837 110.358 31.5163 111.921 33.0784L128.55 49.7077H61.9784C38.6283 49.7077 19.6992 68.6367 19.6992 91.9869C19.6992 115.337 38.6282 134.266 61.9784 134.266L89.0986 134.266C91.3077 134.266 93.0986 132.475 93.0986 130.266C93.0986 128.057 91.3077 126.266 89.0986 126.266L61.9784 126.266C43.0465 126.266 27.6992 110.919 27.6992 91.9869C27.6992 73.055 43.0465 57.7077 61.9784 57.7077H128.635L111.921 74.4216C110.358 75.9837 110.358 78.5163 111.921 80.0784C113.483 81.6405 116.015 81.6405 117.577 80.0784Z" fill="var(--spectrum-global-color-gray-800, #292929)"/>
</svg>
