<svg width="48" height="48" viewBox="0 0 48 48" xmlns="http://www.w3.org/2000/svg">
<path fill-rule="evenodd" d="M21.2505 12C21.2505 10.6193 22.3698 9.5 23.7505 9.5C25.1312 9.5 26.2505 10.6193 26.2505 12V13.5H21.2505V12ZM18.7505 16V18.75C18.7505 19.4404 19.3101 20 20.0005 20C20.6908 20 21.2505 19.4404 21.2505 18.75V16L26.2505 16V18.75C26.2505 19.4404 26.8101 20 27.5005 20C28.1908 20 28.7505 19.4404 28.7505 18.75V16H33.3693L35.3169 35.4764C35.4788 37.0953 34.2075 38.5 32.5805 38.5L14.9204 38.5C13.2935 38.5 12.0222 37.0953 12.1841 35.4764L14.1317 16H18.7505ZM18.7505 13.5V12C18.7505 9.23858 20.9891 7 23.7505 7C26.5119 7 28.7505 9.23858 28.7505 12V13.5H33.5955C34.7514 13.5 35.7193 14.3759 35.8343 15.5261L37.8045 35.2276C38.1135 38.3182 35.6865 41 32.5805 41H14.9204C11.8144 41 9.38743 38.3182 9.69649 35.2276L11.6666 15.5261C11.7817 14.3759 12.7495 13.5 13.9055 13.5H18.7505Z" fill="var(--spectrum-global-color-gray-800, #292929)"/>
</svg>
