<svg width="96" height="96" viewBox="0 0 96 96" xmlns="http://www.w3.org/2000/svg">
<path fill-rule="evenodd" d="M45.2854 12.8889C59.731 11.3119 72.0001 22.4913 72.0001 36.5481C72.0001 44.5024 68.0646 51.5364 62.04 55.8533C60.6096 56.8783 59.7779 58.4209 59.7779 60.0383V73.702C59.7779 77.0534 57.0418 79.7404 53.7038 79.7404H42.2964C38.9583 79.7404 36.2223 77.0534 36.2223 73.702L38.2223 73.702H36.2223V60.0274C36.2223 58.4163 35.3936 56.8796 33.9681 55.859L35.1323 54.2328L33.9681 55.859C27.4843 51.2169 23.4198 43.4291 24.0676 34.7418C24.9255 23.2357 33.7398 14.1493 45.2854 12.8889ZM68.0001 36.5481C68.0001 24.8856 57.8114 15.5452 45.7194 16.8652C36.0752 17.9181 28.7699 25.4713 28.0565 35.0393C27.5181 42.2596 30.8851 48.7323 36.2966 52.6066C38.6644 54.3018 40.2223 57.0001 40.2223 60.0274V66.7404H55.7779V60.0383C55.7779 57.005 57.3384 54.3014 59.7102 52.6019C64.7399 48.9978 68.0001 43.1484 68.0001 36.5481ZM55.7779 70.7404H40.2223V73.702C40.2223 74.8112 41.1343 75.7404 42.2964 75.7404H53.7038C54.8659 75.7404 55.7779 74.8112 55.7779 73.702V70.7404ZM49.0001 24.7404C49.0001 23.6358 49.8955 22.7404 51.0001 22.7404C57.2682 22.7404 62.0001 28.3164 62.0001 34.7404C62.0001 35.845 61.1047 36.7404 60.0001 36.7404C58.8955 36.7404 58.0001 35.845 58.0001 34.7404C58.0001 30.1187 54.6731 26.7404 51.0001 26.7404C49.8955 26.7404 49.0001 25.845 49.0001 24.7404Z" fill="var(--spectrum-global-color-gray-800, #292929)"/>
</svg>
