<svg width="96" height="96" viewBox="0 0 96 96" xmlns="http://www.w3.org/2000/svg">
<path fill-rule="evenodd" d="M48 16.74C30.8792 16.74 17 30.6192 17 47.74C17 64.8608 30.8792 78.74 48 78.74C65.1208 78.74 79 64.8608 79 47.74C79 30.6192 65.1208 16.74 48 16.74ZM13 47.74C13 28.41 28.67 12.74 48 12.74C67.33 12.74 83 28.41 83 47.74C83 67.07 67.33 82.74 48 82.74C28.67 82.74 13 67.07 13 47.74ZM50 46.5853V24.74C50 23.6354 49.1046 22.74 48 22.74C46.8954 22.74 46 23.6354 46 24.74V47.7016C45.9985 47.7814 46.0019 47.861 46.0099 47.9399C46.0386 48.2293 46.129 48.5004 46.2677 48.7402C46.4061 48.9805 46.5961 49.1946 46.8328 49.3643C46.8969 49.4104 46.9638 49.4528 47.0332 49.4912L59.8586 56.896C60.8152 57.4482 62.0383 57.1205 62.5906 56.1639C63.1429 55.2073 62.8152 53.9841 61.8586 53.4319L50 46.5853Z" fill="var(--spectrum-global-color-gray-800, #292929)"/>
</svg>
