<svg width="160" height="160" viewBox="0 0 160 160" xmlns="http://www.w3.org/2000/svg">
<path fill-rule="evenodd" d="M101.991 30.5898C101.991 17.0598 112.961 6.08984 126.491 6.08984C140.021 6.08984 150.991 17.0598 150.991 30.5898C150.991 44.1198 140.021 55.0898 126.491 55.0898C112.961 55.0898 101.991 44.1198 101.991 30.5898ZM137.411 41.5198C138.971 39.9498 138.971 37.4198 137.411 35.8598L132.151 30.5998L137.411 25.3398C138.971 23.7698 138.971 21.2398 137.411 19.6798C135.851 18.1198 133.311 18.1198 131.751 19.6798L126.491 24.9398L121.231 19.6798C119.671 18.1198 117.131 18.1198 115.571 19.6798C114.011 21.2498 114.011 23.7798 115.571 25.3398L120.831 30.5998L115.571 35.8598C114.011 37.4298 114.011 39.9598 115.571 41.5198C116.351 42.2998 117.371 42.6898 118.401 42.6898C119.431 42.6898 120.451 42.2998 121.231 41.5198L126.491 36.2598L131.751 41.5198C132.531 42.2998 133.551 42.6898 134.581 42.6898C135.611 42.6898 136.631 42.2998 137.411 41.5198ZM38.8286 23.791C28.903 23.791 23.2686 35.1548 29.2771 43.0552C29.3199 43.1115 29.3642 43.1666 29.4099 43.2206L67.3042 87.9159V135.002C67.3042 141.886 75.4219 145.555 80.5897 141.007L89.9824 132.74C91.708 131.221 92.6969 129.034 92.6969 126.735V87.9159L112.709 64.3117C114.138 62.6267 113.93 60.1026 112.245 58.6739C110.56 57.2453 108.036 57.4532 106.607 59.1382L85.6459 83.8617C85.0332 84.5844 84.6969 85.5011 84.6969 86.4485V126.735L75.3042 135.002V86.4485C75.3042 85.5011 74.9679 84.5844 74.3552 83.8617L35.5917 38.1411C33.6758 35.5112 35.5498 31.791 38.8286 31.791H91.1099C93.319 31.791 95.1099 30.0002 95.1099 27.791C95.1099 25.5819 93.319 23.791 91.1099 23.791H38.8286Z" fill="var(--spectrum-global-color-gray-800, #292929)"/>
</svg>
