<svg width="96" height="96" viewBox="0 0 96 96" xmlns="http://www.w3.org/2000/svg">
<path fill-rule="evenodd" d="M22.0496 26.6182C22.0568 20.3874 28.687 16.2806 34.1296 19.5288L70.0149 40.9452C75.3355 44.1205 75.3267 51.9908 69.9983 55.1533L34.0633 76.4812L33.0426 74.7613L34.0633 76.4812C28.613 79.7161 21.9928 75.5929 22 69.3624L22.0496 26.6182ZM32.0797 22.9636C29.4844 21.4147 26.0534 23.2795 26.0496 26.6228L26 69.3671C25.9961 72.7108 29.4232 74.5838 32.0218 73.0415L67.9567 51.7136C70.6771 50.0989 70.6823 46.0016 67.965 44.38L32.0797 22.9636L32.9807 21.4537L32.0797 22.9636Z" fill="var(--spectrum-global-color-gray-800, #292929)"/>
</svg>
