<svg width="96" height="96" viewBox="0 0 96 96" xmlns="http://www.w3.org/2000/svg">
<path fill-rule="evenodd" d="M23 24.9682C23 22.2006 25.2514 19.9492 28.019 19.9492H68.0856C70.8532 19.9492 73.1046 22.2006 73.1046 24.9682V52.9975C73.1046 54.1021 74 54.9975 75.1046 54.9975C76.2091 54.9975 77.1046 54.1021 77.1046 52.9975V24.9682C77.1046 19.9915 73.0623 15.9492 68.0856 15.9492H28.019C23.0423 15.9492 19 19.9915 19 24.9682V53.9975C19 70.0352 32.021 83.0498 48.0523 83.0498C49.5446 83.0498 51.0119 82.9369 52.4459 82.7188C53.538 82.5528 54.2886 81.5329 54.1226 80.4409C53.9565 79.3489 52.9367 78.5982 51.8447 78.7643C50.6089 78.9522 49.3425 79.0498 48.0523 79.0498C34.2296 79.0498 23 67.8255 23 53.9975V24.9682ZM57.5276 37.1346C55.8569 34.2394 51.68 34.2396 50.0098 37.1352L51.7421 38.1347L50.0096 37.1354L42.6632 49.8688L42.6631 49.869C40.9953 52.7606 43.0746 56.3777 46.4194 56.3777H61.1241C64.4689 56.3777 66.5482 52.7606 64.8804 49.869L64.8799 49.8682L57.528 37.1354L55.7956 38.1347L57.5276 37.1346ZM53.4746 39.1339C53.6057 38.9065 53.9319 38.9065 54.0631 39.1339L54.0635 39.1347L61.4155 51.8675L61.4157 51.8679C61.549 52.0996 61.3823 52.3777 61.1241 52.3777H46.4194C46.1612 52.3777 45.9944 52.0995 46.1279 51.8677L46.1281 51.8675L53.4745 39.1341L53.4746 39.1339ZM40.7525 38.5024C41.709 39.0548 42.0366 40.2781 41.4842 41.2346L33.313 55.3837C32.7606 56.3402 31.5374 56.6678 30.5808 56.1154C29.6243 55.563 29.2967 54.3398 29.8491 53.3832L38.0204 39.2342C38.5728 38.2776 39.796 37.95 40.7525 38.5024ZM70.75 87.4995C78.8962 87.4995 85.5 80.8957 85.5 72.7495C85.5 64.6033 78.8962 57.9995 70.75 57.9995C62.6038 57.9995 56 64.6033 56 72.7495C56 80.8957 62.6038 87.4995 70.75 87.4995ZM73 65.9995C73 64.8949 72.1046 63.9995 71 63.9995C69.8954 63.9995 69 64.8949 69 65.9995V70.9995H64C62.8954 70.9995 62 71.8949 62 72.9995C62 74.1041 62.8954 74.9995 64 74.9995H69V79.9995C69 81.1041 69.8954 81.9995 71 81.9995C72.1046 81.9995 73 81.1041 73 79.9995V74.9995H78C79.1046 74.9995 80 74.1041 80 72.9995C80 71.8949 79.1046 70.9995 78 70.9995H73V65.9995Z" fill="var(--spectrum-global-color-gray-800, #292929)"/>
</svg>
