<svg width="96" height="96" viewBox="0 0 96 96" xmlns="http://www.w3.org/2000/svg">
<path fill-rule="evenodd" d="M17 48C17 30.8792 30.8792 16.9999 48.0001 16.9999C65.121 16.9999 79.0002 30.8792 79.0002 48C79.0002 65.1209 65.121 79.0001 48.0001 79.0001C30.8792 79.0001 17 65.1209 17 48ZM48.0001 12.9999C28.6701 12.9999 13 28.67 13 48C13 67.3301 28.6701 83.0001 48.0001 83.0001C67.3301 83.0001 83.0002 67.3301 83.0002 48C83.0002 28.67 67.3301 12.9999 48.0001 12.9999ZM64.0797 40.6389C64.8961 39.8948 64.9547 38.6298 64.2107 37.8135C63.4666 36.9971 62.2016 36.9385 61.3853 37.6825L58.2082 40.5782L55.0956 43.4151L55.0425 43.4635L54.9892 43.5121L54.9358 43.5607L54.8824 43.6095L54.6675 43.8053L54.2336 44.2007L54.1244 44.3003L54.0148 44.4002L53.9049 44.5003L53.8499 44.5505L53.7948 44.6007L53.7396 44.651L53.6844 44.7013L53.6291 44.7517L53.5738 44.8021L53.3519 45.0044L53.1292 45.2074L53.0176 45.3091L52.9058 45.411L52.7939 45.513L52.7379 45.564L52.6818 45.6151L52.5696 45.7174L52.4573 45.8197L52.0074 46.2298L51.9511 46.2811L51.8948 46.3324L51.8385 46.3837L51.7822 46.4351L51.5569 46.6404L49.766 48.2727L48.8893 49.0717L48.8352 49.121L48.7811 49.1703L48.6733 49.2686L48.5658 49.3666L48.4587 49.4642L48.352 49.5614L48.2988 49.6099L48.2457 49.6583L48.1927 49.7066L48.1399 49.7548L48.0871 49.8029L48.0344 49.8509L47.9819 49.8988L47.9294 49.9466L47.8771 49.9943L47.8249 50.0418L47.7208 50.1367L47.6173 50.2311L47.5657 50.2781L47.5142 50.325L47.4117 50.4185L47.3097 50.5115L47.2082 50.6039L47.0069 50.7874L46.9071 50.8783L46.808 50.9687L46.7586 51.0137L46.7094 51.0585L46.6604 51.1032L46.6115 51.1478L46.5627 51.1922L46.5142 51.2365L46.4658 51.2806L46.4175 51.3246L46.0377 51.6707L45.6694 52.0065L45.6242 52.0477L45.5792 52.0887L45.5344 52.1295L45.4898 52.1702L45.3134 52.3309L45.2264 52.4102L45.1832 52.4495L45.1403 52.4887L44.9706 52.6433L43.3514 54.1191L35.2215 46.5373C34.4137 45.784 33.1481 45.8282 32.3948 46.636C31.6414 47.4438 31.6856 48.7093 32.4934 49.4627L41.9718 58.302C42.7337 59.0124 43.9132 59.0192 44.6831 58.3175L43.3359 56.8393C44.6831 58.3175 44.6832 58.3174 44.6833 58.3173L44.684 58.3167L44.6866 58.3143L44.6885 58.3126L44.6909 58.3104L44.6969 58.3049L44.714 58.2893L44.7193 58.2845L44.7251 58.2792L44.7378 58.2677L44.7521 58.2546C44.8239 58.1892 44.6958 58.306 44.7681 58.2401L44.8048 58.2066L44.8255 58.1877L44.8365 58.1777L44.8479 58.1673L44.8971 58.1224L45.1543 57.888L45.5023 57.5708L45.9344 57.1771L46.0547 57.0674L46.1166 57.011L46.148 56.9824L46.1797 56.9535L46.2439 56.8949L46.2765 56.8653L46.3093 56.8353L46.3758 56.7747L46.4434 56.7131L46.4776 56.6819L46.5121 56.6505L46.5819 56.5869L46.7247 56.4567L47.0226 56.1852L47.1776 56.044L47.2169 56.0081L47.2565 55.972L47.2963 55.9357L47.3364 55.8992L47.3767 55.8625L47.4172 55.8256L47.4579 55.7884L47.4989 55.7511L47.5815 55.6758L47.6651 55.5997L47.7495 55.5227L47.792 55.484L47.8347 55.445L47.8777 55.4058L47.9209 55.3665L48.0078 55.2872L48.0516 55.2473L48.0956 55.2072L48.1842 55.1265L48.3638 54.9628L48.7322 54.6271L49.112 54.2809L49.3059 54.1041L49.5024 53.925L49.552 53.8799L49.6016 53.8346L49.7014 53.7437L49.9026 53.5603L49.9533 53.5141L50.0041 53.4678L50.0551 53.4213L50.1061 53.3748L50.2087 53.2813L50.2602 53.2344L50.3118 53.1874L50.7289 52.8072L50.9402 52.6146L51.0465 52.5177L51.1532 52.4205L51.2067 52.3717L51.2603 52.3229L51.314 52.2739L51.3678 52.2249L51.4216 52.1758L51.4756 52.1266L51.5296 52.0774L51.5838 52.028L51.6923 51.9291L51.7467 51.8795L51.8012 51.8299L52.0198 51.6306L52.1296 51.5306L52.1846 51.4805L52.2396 51.4303L52.2947 51.38L52.3499 51.3298L52.4052 51.2794L52.4604 51.229L54.2514 49.5967L54.4767 49.3914L54.5893 49.2887L54.6456 49.2374L54.7019 49.1861L54.8145 49.0835L54.8707 49.0322L54.927 48.9809L54.9832 48.9297L55.0394 48.8784L55.0956 48.8272L55.1518 48.776L55.208 48.7248L55.2641 48.6737L55.3763 48.5714L55.6003 48.3673L55.8237 48.1637L56.0464 47.9607L56.1574 47.8595L56.2683 47.7585L56.3236 47.708L56.3789 47.6576L56.4341 47.6073L56.4893 47.557L56.9281 47.1571L57.7901 46.3714L58.0017 46.1785L58.0544 46.1306L58.1069 46.0827L58.2116 45.9873L58.4195 45.7977L58.6255 45.61L58.6767 45.5634L58.7277 45.5169L58.8294 45.4242L58.88 45.3781L58.9305 45.332L58.9808 45.2861L59.031 45.2404L59.4273 44.8792L59.5249 44.7903L59.5734 44.7461L59.6217 44.702L59.6699 44.6581L59.718 44.6143L59.7658 44.5707L59.8135 44.5272L59.861 44.4839L59.9084 44.4408L60.0025 44.3549L60.096 44.2698L60.1424 44.2274L60.1887 44.1853L60.5521 43.8541L60.6409 43.7731L60.6851 43.7328L60.729 43.6928L60.7728 43.6529L60.8163 43.6133L60.8596 43.5738L60.9027 43.5345L64.0797 40.6389Z" fill="var(--spectrum-global-color-gray-800, #292929)"/>
</svg>
