<svg width="48" height="48" viewBox="0 0 48 48" xmlns="http://www.w3.org/2000/svg">
<path fill-rule="evenodd" d="M23.513 5.95002C20.8086 5.94678 18.7804 8.13149 18.7517 10.7443L17.5072 10.7428C17.4612 10.7428 17.4158 10.7452 17.3712 10.75H13.7227C10.9635 10.75 8.75 13.0076 8.75 15.7636L8.75 35.2364C8.75 37.9924 10.9635 40.25 13.7227 40.25H33.3273C36.0865 40.25 38.3 37.9924 38.3 35.2364L38.3 15.7636C38.3 13.0076 36.0865 10.75 33.3273 10.75H28.2498C28.2246 8.14587 26.2212 5.95325 23.513 5.95002ZM30.7542 13.25L30.75 16.5016C30.7491 17.1919 30.1888 17.7508 29.4985 17.75L17.4985 17.7357C17.167 17.7353 16.8492 17.6032 16.615 17.3684C16.3809 17.1337 16.2496 16.8156 16.25 16.4841L16.2541 13.25H13.7227C12.3699 13.25 11.25 14.3625 11.25 15.7636L11.25 35.2364C11.25 36.6375 12.3699 37.75 13.7227 37.75H33.3273C34.6801 37.75 35.8 36.6375 35.8 35.2364L35.8 15.7636C35.8 14.3625 34.6801 13.25 33.3273 13.25H30.7542ZM18.7541 13.25L18.7516 15.2372L28.2516 15.2485L28.2541 13.2558L26.9971 13.2543C26.6656 13.2539 26.3478 13.1219 26.1137 12.8872C25.8795 12.6525 25.7482 12.3344 25.7486 12.0028L25.75 10.8028C25.7516 9.45489 24.7588 8.45151 23.51 8.45001C22.2551 8.44851 21.253 9.45557 21.2514 10.7972L21.25 11.9972C21.2492 12.6875 20.6889 13.2465 19.9986 13.2457L19.3671 13.245V13.25H18.7541Z" fill="var(--spectrum-global-color-gray-800, #292929)"/>
</svg>
