<svg width="160" height="160" viewBox="0 0 160 160" xmlns="http://www.w3.org/2000/svg">
<path fill-rule="evenodd" d="M22.846 24.1181C21.5571 24.3414 20.4589 25.1807 19.9051 26.3657C19.3512 27.5507 19.4118 28.9316 20.0672 30.0636L28.9459 45.3987C25.7748 49.0047 23.1049 52.9717 21.0406 57.2265L8.96703 64.2604C6.50711 65.6935 4.99414 68.326 4.99414 71.1729V84.9777C4.99414 87.8258 6.50836 90.4591 8.9699 91.8918L21.038 98.9158C25.9834 109.113 34.4026 117.655 44.9052 123.564L49.9787 137.38C50.5569 138.954 52.0561 140.001 53.7335 140.001H67.0252C68.7012 140.001 70.1995 138.956 70.7787 137.383L72.6974 132.173C75.095 132.406 77.5319 132.526 80.0002 132.526C82.4402 132.526 84.8495 132.409 87.2205 132.181L89.1363 137.383C89.7155 138.956 91.2138 140.001 92.8898 140.001H106.182C107.859 140.001 109.358 138.954 109.936 137.38L114.988 123.625C132.123 114.022 143.795 97.3583 143.795 78.0739C143.795 76.3653 143.705 74.6782 143.527 73.0154C145.367 72.5456 147.319 71.6506 149.103 70.1602C152.406 67.3995 154.711 62.9495 155.002 56.5416C155.103 54.3347 153.395 52.4645 151.188 52.3643C148.981 52.2641 147.111 53.9719 147.011 56.1787C146.803 60.7467 145.268 62.9388 143.972 64.0219C143.329 64.5591 142.642 64.9106 142.001 65.1294C135.147 40.957 109.522 23.6219 80.0002 23.6219C69.0657 23.6219 58.7461 25.9688 49.7171 30.1276C45.8541 26.9482 41.2218 25.218 36.8812 24.3588C31.6777 23.3289 26.5461 23.477 22.846 24.1181ZM50.7994 38.4736C49.2488 39.2665 47.3006 38.9752 46.0539 37.6381C43.3566 34.745 39.5014 33.0326 35.3279 32.2066C33.5882 31.8622 31.8535 31.6846 30.2182 31.63L37.3588 43.963C38.3425 45.662 37.9367 47.7838 36.4923 49.012C32.9308 52.7013 30.0501 56.8315 27.9768 61.2675C27.6839 62.17 27.0706 62.9722 26.1862 63.4874L12.9941 71.1729V84.9777L26.1848 92.655C27.0746 93.1729 27.6902 93.9812 27.9815 94.8901C32.2816 104.084 40.0573 111.967 50.1227 117.299L50.1158 117.312C50.9147 117.763 51.5636 118.489 51.9045 119.417L56.5257 132.001H64.2357L66.2719 126.472C66.9375 124.665 68.7707 123.626 70.6034 123.896L70.6071 123.869C73.6586 124.301 76.7965 124.526 80.0002 124.526C83.2039 124.526 86.3419 124.301 89.3933 123.869L89.3954 123.884C91.2 123.658 92.9877 124.692 93.6432 126.472L95.6794 132.001H103.389L108.011 119.417C108.42 118.303 109.273 117.48 110.296 117.075C125.87 108.664 135.795 94.181 135.795 78.0739C135.795 53.0291 111.479 31.6219 80.0002 31.6219C69.2691 31.6219 59.2786 34.1463 50.8084 38.491L50.7994 38.4736ZM44.2217 65.8406C47.5354 65.8406 50.2217 63.1543 50.2217 59.8406C50.2217 56.5269 47.5354 53.8406 44.2217 53.8406C40.908 53.8406 38.2217 56.5269 38.2217 59.8406C38.2217 63.1543 40.908 65.8406 44.2217 65.8406ZM72.6081 46.0114C78.3438 44.7508 82.8404 44.8018 88.2609 46.009C90.4172 46.4892 92.5545 45.1304 93.0347 42.9741C93.5149 40.8178 92.1562 38.6805 89.9999 38.2003C83.4523 36.7421 77.7761 36.6847 70.8909 38.1978C68.7333 38.672 67.3686 40.8056 67.8427 42.9632C68.3169 45.1209 70.4505 46.4856 72.6081 46.0114Z" fill="var(--spectrum-global-color-gray-800, #292929)"/>
</svg>
