<svg width="96" height="96" viewBox="0 0 96 96" xmlns="http://www.w3.org/2000/svg">
<path d="M58.5977 40.3706C61.3591 40.3706 63.5977 38.132 63.5977 35.3706C63.5977 32.6092 61.3591 30.3706 58.5977 30.3706C55.8362 30.3706 53.5977 32.6092 53.5977 35.3706C53.5977 38.132 55.8362 40.3706 58.5977 40.3706Z" fill="var(--spectrum-global-color-gray-800, #292929)"/>
<path fill-rule="evenodd" d="M12.6055 30.8707C12.6055 24.9632 17.3945 20.1742 23.302 20.1742H63.5234C69.4309 20.1742 74.2199 24.9632 74.2199 30.8707V57.5038C74.2199 63.4113 69.4309 68.2003 63.5234 68.2003H23.302C17.3945 68.2003 12.6055 63.4113 12.6055 57.5038V30.8707ZM23.302 24.1742C19.6036 24.1742 16.6055 27.1723 16.6055 30.8707V57.5038C16.6055 58.2109 16.7151 58.8923 16.9182 59.5322L28.6736 41.3112C30.8815 37.889 35.905 37.9443 38.0371 41.4142L47.3842 56.6262L52.8716 48.2532C55.0808 44.8821 60.0376 44.9287 62.1831 48.3406L66.6006 55.3655L69.6536 60.203C70.0177 59.3773 70.2199 58.4642 70.2199 57.5038V30.8707C70.2199 27.1723 67.2217 24.1742 63.5234 24.1742H23.302ZM66.8785 63.3005L58.797 50.47C58.2025 49.5247 56.8292 49.5118 56.2171 50.4457L47.2029 64.2003H63.5234C64.7459 64.2003 65.8919 63.8727 66.8785 63.3005ZM42.4204 64.2003L44.9612 60.3234L34.629 43.5083C34.0383 42.5469 32.6465 42.5316 32.0348 43.4797L19.4518 62.9834C20.5409 63.7501 21.8689 64.2003 23.302 64.2003H42.4204Z" fill="var(--spectrum-global-color-gray-800, #292929)"/>
<path d="M82.4117 40.9421C82.4117 39.8376 81.5163 38.9421 80.4117 38.9421C79.3072 38.9421 78.4117 39.8376 78.4117 40.9421V62.9552C78.4117 67.8543 74.4402 71.8258 69.5411 71.8258H33.668C32.5634 71.8258 31.668 72.7213 31.668 73.8258C31.668 74.9304 32.5634 75.8258 33.668 75.8258H69.5411C76.6494 75.8258 82.4117 70.0634 82.4117 62.9552V40.9421Z" fill="var(--spectrum-global-color-gray-800, #292929)"/>
</svg>
