<svg width="96" height="96" viewBox="0 0 96 96" xmlns="http://www.w3.org/2000/svg">
<path fill-rule="evenodd" d="M17 48.8457C18.1046 48.8457 19 49.7411 19 50.8457L19 68.4928C19 71.4643 21.3854 73.8457 24.2941 73.8457L71.7059 73.8457C74.6146 73.8457 77 71.4643 77 68.4928L77 50.8457C77 49.7411 77.8954 48.8457 79 48.8457C80.1046 48.8457 81 49.7411 81 50.8457L81 68.4928C81 73.6431 76.854 77.8457 71.7059 77.8457L24.2941 77.8457C19.146 77.8457 15 73.6431 15 68.4928L15 50.8457C15 49.7411 15.8954 48.8457 17 48.8457ZM48 62.8457C46.8954 62.8457 46 61.9503 46 60.8457L46 24.8284L35.4142 35.4142C34.6332 36.1953 33.3668 36.1953 32.5858 35.4142C31.8047 34.6332 31.8047 33.3668 32.5858 32.5858L46.5858 18.5858C47.3668 17.8047 48.6332 17.8047 49.4142 18.5858L63.4142 32.5858C64.1953 33.3668 64.1953 34.6332 63.4142 35.4142C62.6332 36.1953 61.3668 36.1953 60.5858 35.4142L50 24.8284L50 60.8457C50 61.9503 49.1046 62.8457 48 62.8457Z" fill="var(--spectrum-global-color-gray-800, #292929)"/>
</svg>
