<svg width="160" height="160" viewBox="0 0 160 160" xmlns="http://www.w3.org/2000/svg">
<path d="M95.1004 29.8809C97.6804 29.8809 100.11 32.4909 98.8404 35.4709L87.2704 62.7309C86.4104 64.7609 87.3604 67.1109 89.3904 67.9809L108.39 76.0309C110.92 77.1009 111.64 80.3509 109.8 82.3909L68.0004 128.781C67.1504 129.731 66.1004 130.131 65.0804 130.131C62.5004 130.131 60.0804 127.531 61.3404 124.551L72.5504 97.9509C73.4004 95.9309 72.4604 93.5909 70.4504 92.7209L51.5804 84.6009C49.0704 83.5209 48.3604 80.3009 50.1804 78.2609L92.1804 31.2509C93.0304 30.2909 94.0804 29.8809 95.1104 29.8809M95.1004 21.8809C91.6904 21.8809 88.5304 23.3109 86.2104 25.9209L44.2104 72.9309C41.6504 75.8009 40.6104 79.7609 41.4404 83.5209C42.2704 87.2809 44.8804 90.4309 48.4104 91.9509L63.6404 98.5009L53.9704 121.441C52.4004 125.171 52.7704 129.371 54.9704 132.691C57.2004 136.051 61.0704 138.131 65.0804 138.131C68.4704 138.131 71.6204 136.711 73.9404 134.131L115.74 87.7409C118.33 84.8609 119.38 80.8909 118.54 77.1109C117.7 73.3309 115.07 70.1709 111.5 68.6609L96.1904 62.1709L106.2 38.6009C107.78 34.8709 107.42 30.6609 105.22 27.3409C102.99 23.9709 99.1104 21.8809 95.1004 21.8809Z" fill="var(--spectrum-global-color-gray-800, #292929)"/>
</svg>
