<svg width="160" height="160" viewBox="0 0 160 160" xmlns="http://www.w3.org/2000/svg">
<path fill-rule="evenodd" d="M80.04 19.9297C82.2492 19.9297 84.04 21.7205 84.04 23.9297V29.9497C84.04 32.1588 82.2492 33.9497 80.04 33.9497C77.8309 33.9497 76.04 32.1588 76.04 29.9497V23.9297C76.04 21.7205 77.8309 19.9297 80.04 19.9297ZM83.2695 53.4998C81.0604 53.4998 79.2695 55.2906 79.2695 57.4998C79.2695 59.7089 81.0604 61.4998 83.2695 61.4998C88.9716 61.4998 93.1695 65.7932 93.1695 70.5798C93.1695 72.7889 94.9604 74.5798 97.1695 74.5798C99.3787 74.5798 101.17 72.7889 101.17 70.5798C101.17 60.9263 92.9275 53.4998 83.2695 53.4998ZM63 118V108.233C63 106.057 61.6745 103.728 59.259 101.839C51.1903 95.5279 46 85.6191 46 74.4998C46 55.5085 61.1602 39.9998 80 39.9998C98.8398 39.9998 114 55.5085 114 74.4998C114 85.6191 108.81 95.5279 100.741 101.839C98.3255 103.728 97 106.057 97 108.233V118V128C97 132.418 93.4183 136 89 136H71C66.5817 136 63 132.418 63 128V118ZM89 114V108.233C89 102.774 92.2134 98.3524 95.8123 95.5375C102.002 90.6963 106 83.0836 106 74.4998C106 59.8016 94.2973 47.9998 80 47.9998C65.7027 47.9998 54 59.8016 54 74.4998C54 83.0836 57.9982 90.6963 64.1877 95.5375C67.7866 98.3524 71 102.774 71 108.233V114H89ZM71 122H89V128H71V122ZM26 73.9797C26 71.7706 27.7909 69.9797 30 69.9797H36.01C38.2191 69.9797 40.01 71.7706 40.01 73.9797C40.01 76.1889 38.2191 77.9797 36.01 77.9797H30C27.7909 77.9797 26 76.1889 26 73.9797ZM124.07 69.9797C121.861 69.9797 120.07 71.7706 120.07 73.9797C120.07 76.1889 121.861 77.9797 124.07 77.9797H130.08C132.289 77.9797 134.08 76.1889 134.08 73.9797C134.08 71.7706 132.289 69.9797 130.08 69.9797H124.07ZM118.258 41.4183C119.82 39.8562 119.82 37.3235 118.258 35.7614C116.696 34.1993 114.164 34.1993 112.602 35.7614L108.341 40.0214C106.779 41.5835 106.779 44.1162 108.341 45.6783C109.904 47.2404 112.436 47.2404 113.998 45.6783L118.258 41.4183ZM41.822 35.7614C43.3841 34.1993 45.9167 34.1993 47.4788 35.7614L51.7388 40.0214C53.3009 41.5835 53.3009 44.1162 51.7388 45.6783C50.1767 47.2404 47.6441 47.2404 46.082 45.6783L41.822 41.4183C40.2599 39.8562 40.2599 37.3235 41.822 35.7614Z" fill="var(--spectrum-global-color-gray-800, #292929)"/>
</svg>
