<svg width="160" height="160" viewBox="0 0 160 160" xmlns="http://www.w3.org/2000/svg">
<path fill-rule="evenodd" d="M41.2773 28.25C41.2773 26.0409 39.4865 24.25 37.2773 24.25C35.0682 24.25 33.2773 26.0409 33.2773 28.25L33.2773 131.75C33.2773 133.959 35.0682 135.75 37.2773 135.75C39.4865 135.75 41.2773 133.959 41.2773 131.75L41.2773 104.853H110.722C119.559 104.853 126.722 97.6896 126.722 88.853V46.8945C126.722 38.058 119.559 30.8945 110.722 30.8945H41.2773V28.25ZM41.2773 38.8945L41.2773 96.853H110.722C115.14 96.853 118.722 93.2713 118.722 88.853V46.8945C118.722 42.4762 115.14 38.8945 110.722 38.8945H41.2773Z" fill="var(--spectrum-global-color-gray-800, #292929)"/>
</svg>
