<svg width="96" height="96" viewBox="0 0 96 96" xmlns="http://www.w3.org/2000/svg">
<path fill-rule="evenodd" d="M91.7249 24.406C94.4336 19.006 89.6672 12.8377 83.7504 14.1845L8.07408 31.4103C1.98874 32.7954 0.472897 40.7714 5.59658 44.3143L6.73409 42.6693L5.59658 44.3143L19.5006 53.9287V77.3596C19.5006 81.4898 24.3882 83.319 27.3409 80.9089L41.6398 69.2377L55.3688 78.731C58.9464 81.2049 63.8719 79.9338 65.8207 76.0485L91.7249 24.406ZM38.2152 66.8696L23.5006 56.6947V77.3596C23.5006 77.5776 23.6147 77.7902 23.9155 77.9217C24.2212 78.0553 24.5537 78.0206 24.8116 77.8101L38.2152 66.8696ZM25.5188 53.2271L57.6438 75.441C59.2143 76.527 61.3825 75.9752 62.2453 74.255L88.1495 22.6126C88.29 22.3325 88.3854 22.0486 88.4402 21.7664L25.5188 53.2271ZM86.5423 18.2432C85.9746 18.0041 85.3219 17.9292 84.6382 18.0848L8.96187 35.3105C6.28642 35.9195 5.597 39.4514 7.8716 41.0243L21.7654 50.6317L86.5423 18.2432Z" fill="var(--spectrum-global-color-gray-800, #292929)"/>
</svg>
