<svg width="96" height="96" viewBox="0 0 96 96" fill="none" xmlns="http://www.w3.org/2000/svg">
<path fill-rule="evenodd" clip-rule="evenodd" d="M16.25 26.0519C16.25 21.6336 19.8317 18.0519 24.25 18.0519H62C66.4183 18.0519 70 21.6336 70 26.0519V34.7521C70 35.8566 69.1046 36.7521 68 36.7521C66.8954 36.7521 66 35.8566 66 34.7521V26.0519C66 23.8427 64.2091 22.0519 62 22.0519H24.25C22.0409 22.0519 20.25 23.8427 20.25 26.0519V51.7077L30.1353 36.3855C32.1478 33.2662 36.7267 33.3165 38.6701 36.4793L38.6718 36.4821L40.4693 39.4182C41.0461 40.3603 40.7499 41.5915 39.8079 42.1682C38.8658 42.7449 37.6346 42.4488 37.0579 41.5068L35.262 38.5734L35.2613 38.5722C34.8589 37.9191 33.9126 37.9091 33.4965 38.554L22.5123 55.5796C23.0378 55.8334 23.6273 55.9757 24.25 55.9757H36.5625C37.6671 55.9757 38.5625 56.8711 38.5625 57.9757C38.5625 59.0803 37.6671 59.9757 36.5625 59.9757H24.25C19.8317 59.9757 16.25 56.394 16.25 51.9757V26.0519ZM56.145 34.4191C57.8019 34.4191 59.145 33.0759 59.145 31.4191C59.145 29.7622 57.8019 28.4191 56.145 28.4191C54.4882 28.4191 53.145 29.7622 53.145 31.4191C53.145 33.0759 54.4882 34.4191 56.145 34.4191ZM41.5518 47.7501C41.5518 43.3318 45.1335 39.7501 49.5518 39.7501H71.7501C76.1684 39.7501 79.7501 43.3318 79.7501 47.7501V69.9485C79.7501 74.3667 76.1684 77.9485 71.7501 77.9485H49.5518C45.1335 77.9485 41.5518 74.3667 41.5518 69.9485V47.7501ZM49.5518 43.7501C47.3426 43.7501 45.5518 45.541 45.5518 47.7501V69.9485C45.5518 72.1576 47.3426 73.9485 49.5518 73.9485H71.7501C73.9592 73.9485 75.7501 72.1576 75.7501 69.9485V47.7501C75.7501 45.541 73.9592 43.7501 71.7501 43.7501H49.5518ZM56.8174 51.2796L68.0315 57.7119C69.2874 58.4323 69.2853 60.2295 68.0276 60.9469L56.798 67.3526C55.5403 68.07 53.9704 67.1695 53.9722 65.7317L53.9877 52.8938C53.9894 51.456 55.5615 50.5593 56.8174 51.2796Z" fill="var(--spectrum-global-color-gray-800, #292929)"/>
</svg>
