<svg width="96" height="97" viewBox="0 0 96 97" xmlns="http://www.w3.org/2000/svg">
<path fill-rule="evenodd" d="M48 17.4922C30.8792 17.4922 17 31.3714 17 48.4922C17 65.613 30.8792 79.4922 48 79.4922C65.1208 79.4922 79 65.613 79 48.4922C79 31.3714 65.1208 17.4922 48 17.4922ZM13 48.4922C13 29.1622 28.67 13.4922 48 13.4922C67.33 13.4922 83 29.1622 83 48.4922C83 67.8222 67.33 83.4922 48 83.4922C28.67 83.4922 13 67.8222 13 48.4922ZM33.6077 57.3689C34.4007 56.5999 35.6669 56.6194 36.4358 57.4124C39.3564 60.4243 43.4806 62.3047 48.0625 62.3047C52.6443 62.3047 56.7686 60.4243 59.6892 57.4124C60.4581 56.6194 61.7243 56.5999 62.5173 57.3689C63.3103 58.1378 63.3297 59.404 62.5608 60.197C58.9102 63.9618 53.7595 66.3047 48.0625 66.3047C42.3654 66.3047 37.2148 63.9618 33.5642 60.197C32.7953 59.404 32.8147 58.1378 33.6077 57.3689ZM37 43.6572C39.2091 43.6572 41 41.8664 41 39.6572C41 37.4481 39.2091 35.6572 37 35.6572C34.7909 35.6572 33 37.4481 33 39.6572C33 41.8664 34.7909 43.6572 37 43.6572ZM59 43.6572C61.2091 43.6572 63 41.8664 63 39.6572C63 37.4481 61.2091 35.6572 59 35.6572C56.7909 35.6572 55 37.4481 55 39.6572C55 41.8664 56.7909 43.6572 59 43.6572Z" fill="var(--spectrum-global-color-gray-800, #292929)"/>
</svg>
