<svg width="96" height="96" viewBox="0 0 96 96" xmlns="http://www.w3.org/2000/svg">
<path fill-rule="evenodd" d="M47.1917 24.4801C47.6814 24.2775 48.2315 24.2775 48.7211 24.4801L76.3026 35.8931C77.9496 36.5746 77.9497 38.9076 76.3026 39.5892L48.7211 51.0022C48.2315 51.2048 47.6814 51.2048 47.1917 51.0022L39.7641 47.9287C38.7434 47.5063 37.5737 47.9913 37.1513 49.012C36.729 50.0326 37.214 51.2024 38.2347 51.6247L45.6623 54.6982C47.1313 55.3061 48.7815 55.3061 50.2506 54.6982L69.5694 46.7043V56.1066C69.5694 57.0682 69.3118 58.6829 68.1115 60.4706C66.915 62.2527 64.7037 64.3224 60.6149 66.0748C57.4836 67.4167 53.6827 67.9963 50.1369 68.1281C46.5976 68.2597 43.4804 67.9398 41.8006 67.5939C40.7187 67.3712 39.6611 68.0677 39.4384 69.1495C39.2157 70.2314 39.9121 71.289 40.994 71.5117C43.0311 71.9311 46.473 72.2671 50.2855 72.1254C54.0914 71.9839 58.4347 71.361 62.1905 69.7513C66.8642 67.7483 69.7363 65.2266 71.4324 62.7003C73.1249 60.1795 73.5694 57.7687 73.5694 56.1066V45.0491L77.832 43.2852C82.7732 41.2406 82.7732 34.2417 77.832 32.197L50.2505 20.784C48.7815 20.1762 47.1313 20.1762 45.6623 20.784L18.0809 32.197C13.1397 34.2417 13.1397 41.2406 18.0809 43.2852L22.7347 45.2109C23.7553 45.6333 24.9251 45.1482 25.3474 44.1276C25.7697 43.107 25.2847 41.9372 24.2641 41.5149L19.6103 39.5892C17.9632 38.9076 17.9632 36.5746 19.6103 35.8931L47.1917 24.4801ZM48.9279 38.1777C49.8935 37.6413 50.2413 36.4237 49.7049 35.4581C49.1685 34.4925 47.9509 34.1446 46.9853 34.6811L33.3905 42.2337C30.2158 43.9974 28.2469 47.3436 28.2469 50.9753V67.5044C26.793 70.3707 25.291 74.0658 25.0332 77.1711C25.0108 77.3619 24.9994 77.5558 24.9994 77.7521C24.9994 80.6501 27.4955 82.9994 30.5746 82.9994C33.6538 82.9994 36.1499 80.6501 36.1499 77.7521V77.752H36.1501L36.1499 77.7469C36.1497 77.5089 36.1326 77.2746 36.0997 77.0451C35.7598 73.8069 33.9343 69.9546 32.2469 67.0723V50.9753C32.2469 48.7963 33.4283 46.7886 35.3331 45.7304L48.9279 38.1777Z" fill="var(--spectrum-global-color-gray-800, #292929)"/>
</svg>
