<svg width="96" height="96" viewBox="0 0 96 96" xmlns="http://www.w3.org/2000/svg">
<path fill-rule="evenodd" d="M45.2854 12.8885C59.731 11.3115 72.0001 22.4909 72.0001 36.5477C72.0001 44.502 68.0646 51.5359 62.04 55.8529C60.6096 56.8779 59.7779 58.4205 59.7779 60.0378V73.7015C59.7779 77.053 57.0418 79.74 53.7038 79.74H42.2964C38.9583 79.74 36.2223 77.053 36.2223 73.7016L38.2223 73.7015H36.2223V60.027C36.2223 58.4159 35.3936 56.8792 33.9681 55.8586L35.1323 54.2324L33.9681 55.8586C27.4843 51.2165 23.4198 43.4287 24.0676 34.7414C24.9255 23.2352 33.7398 14.1489 45.2854 12.8885ZM68.0001 36.5477C68.0001 24.8852 57.8114 15.5448 45.7194 16.8648C36.0752 17.9177 28.7699 25.4709 28.0565 35.0389C27.5181 42.2591 30.8851 48.7319 36.2966 52.6062C38.6644 54.3014 40.2223 56.9997 40.2223 60.027V66.74H55.7779V60.0378C55.7779 57.0046 57.3384 54.301 59.7102 52.6015C64.7399 48.9974 68.0001 43.1479 68.0001 36.5477ZM55.7779 70.74H40.2223V73.7015C40.2223 74.8108 41.1343 75.74 42.2964 75.74H53.7038C54.8659 75.74 55.7779 74.8108 55.7779 73.7015V70.74ZM49.0001 24.74C49.0001 23.6354 49.8955 22.74 51.0001 22.74C57.2682 22.74 62.0001 28.316 62.0001 34.74C62.0001 35.8446 61.1047 36.74 60.0001 36.74C58.8955 36.74 58.0001 35.8446 58.0001 34.74C58.0001 30.1183 54.6731 26.74 51.0001 26.74C49.8955 26.74 49.0001 25.8446 49.0001 24.74Z" fill="var(--spectrum-global-color-gray-800, #292929)"/>
</svg>
