<svg width="160" height="160" viewBox="0 0 160 160" xmlns="http://www.w3.org/2000/svg">
<path fill-rule="evenodd" d="M128 67.9518C128 40.3315 104.859 18.1013 76.9559 19.8347C53.8646 21.2691 34.8824 39.4158 32.3057 62.4838C31.4877 69.807 32.3431 76.8412 34.4914 83.2785C41.2665 105.226 60.6496 126.179 70.6475 135.961C75.8168 141.019 84.0345 140.985 89.1852 135.944C98.5633 126.766 116.031 107.916 123.807 87.6528C126.493 81.636 128 74.9695 128 67.9518ZM77.4519 27.8193C100.683 26.3761 120 44.8769 120 67.9518C120 73.8482 118.729 79.4366 116.463 84.4795C116.431 84.5494 116.402 84.6201 116.375 84.6916C109.283 103.256 92.8867 121.128 83.5895 130.227C81.5302 132.242 78.284 132.241 76.2423 130.243C66.2645 120.48 48.2353 100.733 42.1229 80.8781C42.1133 80.8469 42.1033 80.8159 42.093 80.785C40.2905 75.4019 39.5695 69.5202 40.2563 63.3719C42.4043 44.1414 58.2639 29.0113 77.4519 27.8193ZM66 64.74C66 57.008 72.268 50.74 80 50.74C87.732 50.74 94 57.008 94 64.74C94 72.472 87.732 78.74 80 78.74C72.268 78.74 66 72.472 66 64.74ZM80 42.74C67.8498 42.74 58 52.5897 58 64.74C58 76.8903 67.8498 86.74 80 86.74C92.1503 86.74 102 76.8903 102 64.74C102 52.5897 92.1503 42.74 80 42.74Z" fill="var(--spectrum-global-color-gray-800, #292929)"/>
</svg>
