<svg width="48" height="48" viewBox="0 0 48 48" xmlns="http://www.w3.org/2000/svg">
<path fill-rule="evenodd" d="M9.87347 11.85C9.87347 10.4111 10.9459 9 12.5542 9H19.7081C21.3164 9 22.3889 10.4111 22.3889 11.85V14.6H25.6119V11.85C25.6119 10.4111 26.6844 9 28.2927 9H35.4465C37.0548 9 38.1273 10.4111 38.1273 11.85V14.6H38.3081C41.4968 14.6 43.8504 17.4437 43.8504 20.65V34.25C43.8504 37.4563 41.4968 40.3 38.3081 40.3H9.6927C6.50403 40.3 4.15039 37.4563 4.15039 34.25V20.65C4.15039 17.4437 6.50403 14.6 9.6927 14.6H9.87347V11.85ZM12.4743 11.5519C12.4241 11.608 12.3735 11.7098 12.3735 11.85V15.85C12.3735 16.5404 11.8138 17.1 11.1235 17.1H9.6927C8.14022 17.1 6.65039 18.5543 6.65039 20.65V34.25C6.65039 36.3457 8.14022 37.8 9.6927 37.8H38.3081C39.8606 37.8 41.3504 36.3457 41.3504 34.25V20.65C41.3504 18.5543 39.8606 17.1 38.3081 17.1H36.8773C36.187 17.1 35.6273 16.5404 35.6273 15.85V11.85C35.6273 11.7098 35.5767 11.608 35.5265 11.5519C35.4794 11.4993 35.4496 11.4999 35.4467 11.5L35.4465 11.5H28.2927L28.2925 11.5C28.2897 11.4999 28.2598 11.4993 28.2128 11.5519C28.1626 11.608 28.1119 11.7098 28.1119 11.85V15.85C28.1119 16.5404 27.5523 17.1 26.8619 17.1H21.1389C20.4485 17.1 19.8889 16.5404 19.8889 15.85V11.85C19.8889 11.7098 19.8382 11.608 19.788 11.5519C19.741 11.4993 19.7111 11.4999 19.7082 11.5L19.7081 11.5H12.5542L12.5541 11.5C12.5512 11.4999 12.5214 11.4993 12.4743 11.5519Z" fill="var(--spectrum-global-color-gray-800, #292929)"/>
</svg>
