<svg width="96" height="97" viewBox="0 0 96 97" xmlns="http://www.w3.org/2000/svg">
<path fill-rule="evenodd" d="M69.3226 15.2441C69.4565 14.1477 70.4539 13.3674 71.5503 13.5013C78.1031 14.3015 84.2222 18.0659 87.7808 24.2295C91.3685 30.4436 91.5429 37.6921 88.8926 43.7985C88.4528 44.8117 87.2749 45.2766 86.2616 44.8368C85.2484 44.397 84.7835 43.2191 85.2233 42.2059C87.3908 37.2119 87.244 31.2998 84.3167 26.2295C81.4131 21.2003 76.4244 18.1262 71.0654 17.4718C69.969 17.3379 69.1887 16.3405 69.3226 15.2441ZM6.6422 56.3848C3.88077 51.6019 5.51952 45.486 10.3025 42.7246L50.3991 19.5747C55.182 16.8133 61.2979 18.4521 64.0594 23.235L76.8259 45.3473C79.5873 50.1302 77.9486 56.2461 73.1656 59.0075L33.069 82.1574C28.2861 84.9188 22.1702 83.28 19.4087 78.4971L6.6422 56.3848ZM12.3025 46.1887C9.43269 47.8455 8.44944 51.515 10.1063 54.3848L11.3366 56.5158L61.8256 27.366L60.5952 25.235C58.9384 22.3652 55.2688 21.382 52.3991 23.0388L12.3025 46.1887ZM22.8728 76.4971L13.3366 59.9799L63.8256 30.8301L73.3618 47.3473C75.0186 50.217 74.0354 53.8866 71.1656 55.5434L31.069 78.6933C28.1992 80.3501 24.5297 79.3669 22.8728 76.4971ZM70.8008 21.837C69.7043 21.7031 68.707 22.4833 68.5731 23.5798C68.4392 24.6762 69.2195 25.6736 70.3159 25.8075C73.1039 26.1479 75.6951 27.746 77.204 30.3594C78.7251 32.9941 78.8026 36.0657 77.6749 38.6639C77.2351 39.6771 77.7 40.855 78.7132 41.2948C79.7265 41.7346 80.9044 41.2697 81.3442 40.2565C82.9547 36.546 82.8496 32.138 80.6681 28.3594C78.5043 24.6116 74.7825 22.3232 70.8008 21.837ZM20.922 60.8828C19.9655 61.4351 19.6378 62.6583 20.1901 63.6149C20.7424 64.5715 21.9656 64.8991 22.9222 64.3468L42.2774 53.1707C43.234 52.6183 43.5617 51.3951 43.0093 50.4386C42.457 49.482 41.2338 49.1543 40.2772 49.7067L20.922 60.8828ZM24.3813 70.8727C23.8289 69.9162 24.1566 68.693 25.1132 68.1406L34.7908 62.5526C35.7473 62.0002 36.9705 62.3279 37.5229 63.2845C38.0752 64.241 37.7475 65.4642 36.791 66.0165L27.1134 71.6046C26.1568 72.1569 24.9336 71.8293 24.3813 70.8727ZM51.7753 43.0703C50.8187 43.6226 50.491 44.8458 51.0434 45.8024C51.5957 46.759 52.8189 47.0866 53.7755 46.5343L62.8496 41.2947C63.8062 40.7424 64.1339 39.5192 63.5815 38.5626C63.0292 37.606 61.806 37.2784 60.8494 37.8307L51.7753 43.0703Z" fill="var(--spectrum-global-color-gray-800, #292929)"/>
</svg>
