<svg width="48" height="48" viewBox="0 0 48 48" xmlns="http://www.w3.org/2000/svg">
<path fill-rule="evenodd" d="M15.0406 7.72335H23.8408C23.8773 7.72014 23.9143 7.71851 23.9516 7.71851C25.1396 7.71851 26.2829 8.17636 27.1413 9.00091L27.1425 9.00202L36.3467 17.8092L36.3468 17.8093C37.2636 18.6863 37.7787 19.9046 37.7787 21.1679V34.6312C37.7787 37.1863 35.7127 39.2664 33.158 39.2664H15.0406C12.4859 39.2664 10.4199 37.1863 10.4199 34.6312V12.3586C10.4199 9.8035 12.4859 7.72335 15.0406 7.72335ZM25.41 10.8044C25.04 10.4488 24.5526 10.2416 24.0393 10.2203C24.0103 10.2223 23.9811 10.2233 23.9516 10.2233H15.0406C13.8759 10.2233 12.9199 11.1749 12.9199 12.3586V34.6312C12.9199 35.8149 13.8759 36.7664 15.0406 36.7664H33.158C34.3227 36.7664 35.2787 35.8149 35.2787 34.6312V21.1679C35.2787 20.5812 35.0384 20.0173 34.6186 19.6158L34.6185 19.6156L25.412 10.8063L25.41 10.8044ZM23.246 32.2867V29.7108H24.6639V32.2867H23.246ZM22.1316 25.555C21.3349 25.555 20.746 26.2069 20.746 26.9406V32.5681C20.746 33.8001 21.7456 34.7867 22.9646 34.7867H24.9454C26.1774 34.7867 27.1639 33.7871 27.1639 32.5681V26.9406C27.1639 26.1439 26.5121 25.555 25.7783 25.555H25.1965V21.9142H26.4786C27.169 21.9142 27.7286 21.3545 27.7286 20.6642C27.7286 19.9738 27.169 19.4142 26.4786 19.4142H25.1965V17.8219H26.4786C27.169 17.8219 27.7286 17.2623 27.7286 16.5719C27.7286 15.8815 27.169 15.3219 26.4786 15.3219H25.1965V14.5282C25.1965 13.8378 24.6369 13.2782 23.9465 13.2782H21.7188C21.0284 13.2782 20.4688 13.8378 20.4688 14.5282C20.4688 15.2185 21.0284 15.7782 21.7188 15.7782H22.6965V17.3656H21.7187C21.0284 17.3656 20.4687 17.9253 20.4687 18.6156C20.4687 19.306 21.0284 19.8656 21.7187 19.8656H22.6965V21.4579H21.7187C21.0284 21.4579 20.4687 22.0176 20.4687 22.7079C20.4687 23.3983 21.0284 23.9579 21.7187 23.9579H22.6965V25.555H22.1316Z" fill="var(--spectrum-global-color-gray-800, #292929)"/>
</svg>
