<svg width="96" height="96" viewBox="0 0 96 96" xmlns="http://www.w3.org/2000/svg">
<path fill-rule="evenodd" d="M19.9955 14.0005C16.4299 13.9553 13.5 16.823 13.5 20.395L13.5001 40.5602C13.5001 42.259 14.1779 43.8865 15.3817 45.0851L49.2856 78.8428C53.5134 83.0524 60.3646 83.0524 64.5925 78.8428L78.3255 65.1689C82.5582 60.9546 82.5582 54.1181 78.3255 49.9037L44.3985 16.1229C43.2149 14.9445 41.6177 14.2746 39.9477 14.2534L19.9955 14.0005ZM17.5 20.395C17.5 19.0686 18.5913 17.9831 19.9448 18.0002L19.9448 18.0002L39.897 18.2531C40.5292 18.2611 41.1316 18.5148 41.5761 18.9574L75.5032 52.7382C78.1656 55.3891 78.1656 59.6835 75.5032 62.3344L61.7702 76.0082C59.103 78.6639 54.7751 78.6639 52.1079 76.0082L18.204 42.2506C17.7523 41.8008 17.5001 41.1925 17.5001 40.5602L17.5 20.395ZM27 32C27 34.7614 29.2386 37 32 37C34.7614 37 37 34.7614 37 32C37 29.2386 34.7614 27 32 27C29.2386 27 27 29.2386 27 32Z" fill="var(--spectrum-global-color-gray-800, #292929)"/>
</svg>
