<svg width="160" height="160" viewBox="0 0 160 160" xmlns="http://www.w3.org/2000/svg">
<path fill-rule="evenodd" d="M99.9289 23.6562C102.019 24.3717 103.133 26.646 102.418 28.7361L87.936 71.0383L131.012 56.3688C133.104 55.6567 135.376 56.7746 136.088 58.8658C136.8 60.957 135.682 63.2296 133.591 63.9417L85.6772 80.2586C85.5824 80.291 85.4871 80.3195 85.3916 80.3444C85.1433 81.3263 84.9129 82.3242 84.6776 83.3431L84.6774 83.3439L84.6773 83.3442L84.6773 83.3443L84.6773 83.3444L84.6773 83.3445C83.8182 87.0645 82.8947 91.0638 80.8025 95.5798C80.3914 96.467 79.9406 97.3656 79.464 98.2608C79.6863 98.2531 79.9095 98.2493 80.1337 98.2493C90.7133 98.2493 99.2898 106.826 99.2898 117.405C99.2898 127.985 90.7133 136.562 80.1337 136.562C69.554 136.562 60.9775 127.985 60.9775 117.405C60.9775 113.25 62.3004 109.404 64.5479 106.266C64.6816 106.044 64.8389 105.832 65.0199 105.634C65.2748 105.307 65.54 104.989 65.815 104.68C67.6153 102.383 71.2929 97.0751 73.5436 92.2169C75.193 88.6568 75.8792 85.8288 76.6442 82.5264C75.1386 83.0865 73.5001 83.7351 71.5317 84.5458C68.7201 85.7039 65.4329 87.5429 62.5774 89.3223C59.6874 91.1231 57.5224 92.6847 56.9156 93.2001C56.7749 93.3196 56.6284 93.4277 56.4771 93.5244C53.0044 97.0384 48.1822 99.2158 42.8514 99.2158C32.2718 99.2158 23.6953 90.6393 23.6953 80.0597C23.6953 69.4801 32.2718 60.9036 42.8514 60.9036C53.4311 60.9036 62.0075 69.4801 62.0075 80.0597C62.0075 80.1599 62.0068 80.26 62.0052 80.3599C64.1221 79.1672 66.3637 78.0224 68.485 77.1487C72.6934 75.4153 75.5346 74.3634 78.6829 73.3672L94.849 26.145C95.5645 24.0549 97.8389 22.9406 99.9289 23.6562ZM71.1966 110.727C69.803 112.589 68.9775 114.901 68.9775 117.405C68.9775 123.567 73.9723 128.562 80.1337 128.562C86.295 128.562 91.2898 123.567 91.2898 117.405C91.2898 111.244 86.295 106.249 80.1337 106.249C76.8708 106.249 73.9351 107.65 71.8951 109.883C71.6365 110.207 71.402 110.49 71.1966 110.727ZM42.8514 68.9036C36.6901 68.9036 31.6953 73.8983 31.6953 80.0597C31.6953 86.221 36.6901 91.2158 42.8514 91.2158C49.0128 91.2158 54.0075 86.221 54.0075 80.0597C54.0075 73.8983 49.0128 68.9036 42.8514 68.9036Z" fill="var(--spectrum-global-color-gray-800, #292929)"/>
</svg>
