<svg width="96" height="96" viewBox="0 0 96 96" xmlns="http://www.w3.org/2000/svg">
<path fill-rule="evenodd" d="M17.6967 70.4621C14.5725 67.3379 14.5725 62.2726 17.6967 59.1484L59.1484 17.6967C62.2726 14.5725 67.3379 14.5725 70.4621 17.6967L78.3036 25.5381C81.4278 28.6623 81.4278 33.7276 78.3036 36.8518L36.8518 78.3036C33.7276 81.4278 28.6623 81.4278 25.5381 78.3036L17.6967 70.4621ZM20.5251 61.9768C18.963 63.5389 18.963 66.0716 20.5251 67.6337L28.3666 75.4751C29.9287 77.0372 32.4613 77.0372 34.0234 75.4751L75.4751 34.0234C77.0372 32.4613 77.0372 29.9287 75.4752 28.3666L67.6337 20.5251C66.0716 18.963 63.5389 18.963 61.9768 20.5251L57.6494 24.8525L62.3773 29.5803C63.1583 30.3614 63.1583 31.6277 62.3773 32.4088C61.5962 33.1898 60.3299 33.1898 59.5489 32.4088L54.821 27.6809L47.66 34.8419L55.1034 42.2853C55.8844 43.0664 55.8844 44.3327 55.1034 45.1137C54.3223 45.8948 53.056 45.8948 52.275 45.1138L44.8316 37.6704L37.6703 44.8316L42.398 49.5592C43.179 50.3403 43.179 51.6066 42.398 52.3876C41.6169 53.1687 40.3506 53.1687 39.5695 52.3876L34.8419 47.66L27.6811 54.8208L35.1245 62.2642C35.9056 63.0452 35.9056 64.3116 35.1245 65.0926C34.3435 65.8737 33.0771 65.8737 32.2961 65.0926L24.8527 57.6492L20.5251 61.9768Z" fill="var(--spectrum-global-color-gray-800, #292929)"/>
</svg>
