<svg width="160" height="160" viewBox="0 0 160 160" xmlns="http://www.w3.org/2000/svg">
<path fill-rule="evenodd" d="M136 44C136 37.3726 130.627 32 124 32H36C29.3726 32 24 37.3726 24 44V56H136V44ZM136 64V116C136 122.627 130.627 128 124 128H36C29.3726 128 24 122.627 24 116V64H136ZM124 24C135.046 24 144 32.9543 144 44V116C144 127.046 135.046 136 124 136H36C24.9543 136 16 127.046 16 116V44C16 32.9543 24.9543 24 36 24H124ZM40.9805 49C43.4667 49 45.4805 46.9862 45.4805 44.5C45.4805 42.0138 43.4667 40 40.9917 40H40.9805C38.4942 40 36.4805 42.0138 36.4805 44.5C36.4805 46.9862 38.4942 49 40.9805 49Z" fill="var(--spectrum-global-color-gray-800, #292929)"/>
</svg>
