<svg width="160" height="160" viewBox="0 0 160 160" xmlns="http://www.w3.org/2000/svg">
<path fill-rule="evenodd" d="M80 28C51.2812 28 28 51.2812 28 80C28 108.719 51.2812 132 80 132C108.719 132 132 108.719 132 80C132 51.2812 108.719 28 80 28ZM20 80C20 46.8629 46.8629 20 80 20C113.137 20 140 46.8629 140 80C140 113.137 113.137 140 80 140C46.8629 140 20 113.137 20 80ZM55.1549 95.0678C56.7409 93.53 59.2732 93.5689 60.8111 95.1549C65.6566 100.152 72.4998 103.273 80.1061 103.273C87.7124 103.273 94.5557 100.152 99.4012 95.1549C100.939 93.5689 103.471 93.53 105.057 95.0678C106.643 96.6057 106.682 99.138 105.144 100.724C98.8387 107.227 89.9428 111.273 80.1061 111.273C70.2694 111.273 61.3735 107.227 55.0678 100.724C53.53 99.138 53.5689 96.6057 55.1549 95.0678ZM61.0469 71.6582C64.6367 71.6582 67.5469 68.7481 67.5469 65.1582C67.5469 61.5684 64.6367 58.6582 61.0469 58.6582C57.457 58.6582 54.5469 61.5684 54.5469 65.1582C54.5469 68.7481 57.457 71.6582 61.0469 71.6582ZM98.3806 71.6582C101.97 71.6582 104.881 68.7481 104.881 65.1582C104.881 61.5684 101.97 58.6582 98.3806 58.6582C94.7908 58.6582 91.8806 61.5684 91.8806 65.1582C91.8806 68.7481 94.7908 71.6582 98.3806 71.6582Z" fill="var(--spectrum-global-color-gray-800, #292929)"/>
</svg>
