<svg width="48" height="48" viewBox="0 0 48 48" xmlns="http://www.w3.org/2000/svg">
<path fill-rule="evenodd" d="M10.3024 27.0262C6.89919 30.5088 6.89923 36.1435 10.3024 39.626C13.7213 43.1247 19.2766 43.1247 22.6955 39.626L36.4921 25.5077C36.9746 25.0139 36.9654 24.2225 36.4717 23.74C35.9779 23.2575 35.1865 23.2666 34.704 23.7604L20.9075 37.8787C18.4694 40.3738 14.5286 40.3738 12.0904 37.8787C9.63654 35.3676 9.63652 31.2846 12.0904 28.7735L30.9854 9.43777C32.533 7.85408 35.0299 7.85408 36.5775 9.43777C38.1408 11.0376 38.1408 13.643 36.5775 15.2428L19.6412 32.5742C19.0024 33.2279 17.9789 33.2279 17.3401 32.5742C16.6855 31.9043 16.6855 30.8067 17.34 30.1369L29.1779 18.0229C29.6604 17.5291 29.6513 16.7377 29.1575 16.2552C28.6638 15.7727 27.8724 15.7819 27.3899 16.2756L15.552 28.3896C13.9482 30.0309 13.9482 32.6802 15.552 34.3214C17.1716 35.9788 19.8097 35.9788 21.4292 34.3214L38.3655 16.9901C40.8781 14.4188 40.8781 10.2617 38.3655 7.6905C35.8372 5.10317 31.7257 5.10317 29.1973 7.6905L10.3024 27.0262Z" fill="var(--spectrum-global-color-gray-800, #292929)"/>
</svg>
