<svg width="160" height="160" viewBox="0 0 160 160" xmlns="http://www.w3.org/2000/svg">
<path fill-rule="evenodd" d="M71.7752 21.5909C76.4615 16.9046 84.0595 16.9046 88.7458 21.5909L138.932 71.7772C143.618 76.4635 143.618 84.0614 138.932 88.7477L88.7458 138.934C84.0595 143.62 76.4615 143.62 71.7752 138.934L21.5889 88.7477C16.9026 84.0615 16.9026 76.4635 21.5889 71.7772L71.7752 21.5909ZM83.0889 27.2477C81.5268 25.6856 78.9942 25.6856 77.4321 27.2477L27.2458 77.434C25.6837 78.9961 25.6837 81.5288 27.2458 83.0909L77.4321 133.277C78.9942 134.839 81.5268 134.839 83.0889 133.277L133.275 83.0909C134.837 81.5288 134.837 78.9961 133.275 77.434L83.0889 27.2477ZM80.2597 47.5921C82.4688 47.5921 84.2597 49.383 84.2597 51.5921V90.5921C84.2597 92.8012 82.4688 94.5921 80.2597 94.5921C78.0506 94.5921 76.2597 92.8012 76.2597 90.5921V51.5921C76.2597 49.383 78.0506 47.5921 80.2597 47.5921ZM86.2597 107.762C86.2597 111.076 83.5734 113.762 80.2597 113.762C76.946 113.762 74.2597 111.076 74.2597 107.762C74.2597 104.448 76.946 101.762 80.2597 101.762C83.5734 101.762 86.2597 104.448 86.2597 107.762Z" fill="var(--spectrum-global-color-gray-800, #292929)"/>
</svg>
