<svg width="96" height="96" viewBox="0 0 96 96" xmlns="http://www.w3.org/2000/svg">
<path fill-rule="evenodd" d="M18.9503 23.072C17.5247 24.117 17.2012 24.9235 17.1898 25.3926L17.1899 25.4189V25.4508C17.2041 25.9208 17.531 26.7248 18.9503 27.7651C20.3611 28.7992 22.5308 29.8143 25.3917 30.7013C31.0895 32.4678 39.0832 33.591 48.0001 33.591C56.917 33.591 64.9107 32.4678 70.6085 30.7013C73.4695 29.8143 75.6391 28.7992 77.0499 27.7651C78.5022 26.7006 78.8108 25.8835 78.8108 25.4186C78.8108 24.9537 78.5022 24.1366 77.0499 23.072C75.6391 22.0379 73.4695 21.0228 70.6085 20.1358C64.9107 18.3693 56.917 17.2461 48.0001 17.2461C39.0832 17.2461 31.0895 18.3693 25.3917 20.1358C22.5308 21.0228 20.3611 22.0379 18.9503 23.072ZM24.2072 34.5219C21.4433 33.665 19.0355 32.628 17.1899 31.4111V36.7559C17.2041 37.2258 17.531 38.0298 18.9503 39.0702C20.3611 40.1043 22.5308 41.1194 25.3917 42.0064C31.0895 43.7729 39.0832 44.8961 48.0001 44.8961C56.917 44.8961 64.9107 43.7729 70.6085 42.0064C73.4695 41.1194 75.6391 40.1043 77.0499 39.0702C78.5022 38.0056 78.8108 37.1885 78.8108 36.7236H78.811V31.4106C76.9654 32.6278 74.5573 33.6649 71.793 34.5219C65.6157 36.4371 57.204 37.591 48.0001 37.591C38.7962 37.591 30.3845 36.4371 24.2072 34.5219ZM82.8106 25.3761C82.7923 23.052 81.2718 21.2072 79.4147 19.8459C77.5049 18.446 74.8696 17.2691 71.793 16.3152C65.6157 14.4001 57.204 13.2461 48.0001 13.2461C38.7962 13.2461 30.3845 14.4001 24.2072 16.3152C21.1306 17.2691 18.4953 18.446 16.5855 19.8459C14.7172 21.2154 13.1895 23.0744 13.1895 25.4186C13.1895 25.4428 13.1896 25.467 13.1899 25.4911L13.1899 36.7236H13.1895C13.1895 36.7479 13.1896 36.7721 13.1899 36.7962L13.1899 47.999H13.1895C13.1895 48.0233 13.1896 48.0475 13.1899 48.0716L13.1899 59.333H13.1895C13.1895 59.3573 13.1896 59.3815 13.1899 59.4056L13.1899 70.6357H13.1895C13.1895 70.66 13.1896 70.6842 13.1899 70.7084L13.1899 70.8242C13.1899 70.9232 13.1971 71.0206 13.211 71.1157C13.4027 73.235 14.8465 74.9337 16.5855 76.2084C18.4953 77.6083 21.1306 78.7852 24.2072 79.7391C30.3845 81.6543 38.7962 82.8082 48.0001 82.8082C57.204 82.8082 65.6157 81.6543 71.793 79.7391C74.8696 78.7852 77.5049 77.6083 79.4147 76.2084C81.15 74.9364 82.5915 73.2421 82.7879 71.1291C82.8032 71.0297 82.811 70.9279 82.811 70.8242V25.4189C82.811 25.4046 82.8109 25.3904 82.8106 25.3761ZM78.811 70.6357V65.325C76.9654 66.5422 74.5573 67.5793 71.793 68.4363C65.6157 70.3515 57.204 71.5055 48.0001 71.5055C38.7962 71.5055 30.3845 70.3515 24.2072 68.4363C21.4433 67.5794 19.0355 66.5425 17.1899 65.3256V70.6681C17.2041 71.138 17.5311 71.942 18.9503 72.9823C20.3611 74.0164 22.5308 75.0315 25.3917 75.9185C31.0895 77.685 39.0832 78.8082 48.0001 78.8082C56.917 78.8082 64.9107 77.685 70.6085 75.9185C73.4695 75.0315 75.6391 74.0164 77.0499 72.9823C78.5022 71.9177 78.8108 71.1006 78.8108 70.6357H78.811ZM78.811 59.333V53.9911C76.9654 55.2082 74.5573 56.2453 71.793 57.1023C65.6157 59.0175 57.204 60.1715 48.0001 60.1715C38.7962 60.1715 30.3845 59.0175 24.2072 57.1023C21.4433 56.2454 19.0355 55.2085 17.1899 53.9916V59.3653C17.2041 59.8352 17.531 60.6392 18.9503 61.6795C20.3611 62.7137 22.5308 63.7287 25.3917 64.6157C31.0895 66.3823 39.0832 67.5055 48.0001 67.5055C56.917 67.5055 64.9107 66.3823 70.6085 64.6157C73.4695 63.7287 75.6391 62.7137 77.0499 61.6795C78.5022 60.615 78.8108 59.7979 78.8108 59.333H78.811ZM78.811 47.999V42.7157C76.9654 43.9328 74.5573 44.9699 71.793 45.827C65.6157 47.7421 57.204 48.8961 48.0001 48.8961C38.7962 48.8961 30.3845 47.7421 24.2072 45.827C21.4433 44.97 19.0355 43.9331 17.1899 42.7162V48.0313C17.2041 48.5012 17.531 49.3052 18.9503 50.3456C20.3611 51.3797 22.5308 52.3947 25.3917 53.2818C31.0895 55.0483 39.0832 56.1715 48.0001 56.1715C56.917 56.1715 64.9107 55.0483 70.6085 53.2818C73.4695 52.3947 75.6391 51.3797 77.0499 50.3456C78.5022 49.281 78.8108 48.4639 78.8108 47.999H78.811Z" fill="var(--spectrum-global-color-gray-800, #292929)"/>
</svg>
