<svg width="48" height="48" viewBox="0 0 48 48" xmlns="http://www.w3.org/2000/svg">
<path fill-rule="evenodd" d="M22.9615 9.0724C23.5926 8.64253 24.423 8.64253 25.0541 9.0724L38.4302 18.1837C38.8774 18.4884 38.8774 19.1465 38.4302 19.4511L25.0541 28.5625C24.423 28.9924 23.5926 28.9924 22.9615 28.5625L9.58545 19.4511C9.13818 19.1465 9.13818 18.4884 9.58545 18.1837L22.9615 9.0724ZM26.4615 7.00621C24.9813 5.99793 23.0343 5.99793 21.5541 7.00621L8.17803 16.1176C6.27399 17.4145 6.27399 20.2204 8.17803 21.5173L21.5541 30.6287C23.0343 31.637 24.9813 31.637 26.4615 30.6287L39.8376 21.5173C41.7416 20.2204 41.7416 17.4145 39.8376 16.1176L26.4615 7.00621ZM11.5317 26.747C12.1023 26.3583 12.2498 25.5807 11.8611 25.0102C11.4725 24.4396 10.6949 24.2921 10.1243 24.6808L8.17803 26.0065C6.27399 27.3035 6.27399 30.1093 8.17803 31.4063L21.5541 40.5177C23.0343 41.5259 24.9813 41.5259 26.4615 40.5177L39.8376 31.4063C41.7416 30.1093 41.7416 27.3035 39.8376 26.0065L37.8913 24.6808C37.3207 24.2921 36.5432 24.4396 36.1545 25.0102C35.7659 25.5807 35.9133 26.3583 36.4839 26.747L38.4302 28.0727C38.8774 28.3774 38.8774 29.0354 38.4302 29.3401L25.0541 38.4515C24.423 38.8813 23.5926 38.8813 22.9615 38.4515L9.58545 29.3401C9.13818 29.0354 9.13818 28.3774 9.58545 28.0727L11.5317 26.747Z" fill="var(--spectrum-global-color-gray-800, #292929)"/>
</svg>
