<svg width="96" height="96" viewBox="0 0 96 96" xmlns="http://www.w3.org/2000/svg">
<path fill-rule="evenodd" d="M47.2443 16.4658C43.3432 12.5648 37.0069 12.5648 33.1058 16.4658L13.4658 36.1058C9.56478 40.0069 9.56478 46.3432 13.4658 50.2443L19.5136 56.292C19.5816 56.366 19.6514 56.439 19.7229 56.5109L19.7263 56.5142C21.2534 58.0414 23.2829 58.7674 25.2877 58.6922C25.2166 60.6908 25.9417 62.7125 27.4629 64.2409L27.4663 64.2442C28.9936 65.7716 31.0235 66.4976 33.0286 66.4222C32.9547 68.4241 33.6796 70.45 35.2034 71.981L35.2067 71.9843C36.7338 73.5114 38.7632 74.2374 40.7678 74.1623C40.694 76.1642 41.4189 78.1901 42.9427 79.721L42.946 79.7243C45.857 82.6354 50.5934 82.6354 53.5044 79.7243L53.9288 79.2999C53.972 79.2634 54.014 79.2249 54.0547 79.1842L82.5447 50.6942C86.4457 46.7932 86.4457 40.4568 82.5447 36.5558L62.9047 16.9158C59.0036 13.0147 52.6673 13.0147 48.7663 16.9158L48.2302 17.4518L47.2443 16.4658ZM51.0587 20.2802L59.8843 29.1058C62.7953 32.0169 62.7953 36.7532 59.8843 39.6643C56.9732 42.5753 52.2369 42.5753 49.3258 39.6643L40.4952 30.8337L22.558 48.7709L22.5567 48.7722C21.2544 50.082 21.2069 52.1691 22.414 53.5356L22.5543 53.6758C22.5861 53.7077 22.6167 53.7404 22.646 53.7738C24.0013 55.0341 26.1373 55.0047 27.4563 53.6858L27.4596 53.6824L27.4611 53.6809L27.4629 53.6791L27.4783 53.6639L31.6996 49.4624C32.4825 48.6832 33.7488 48.6862 34.528 49.4691C35.3072 50.252 35.3042 51.5183 34.5213 52.2975L30.2911 56.5079C28.9453 57.8674 28.9469 60.0595 30.296 61.4171C31.645 62.7647 33.8477 62.7643 35.1963 61.4158C35.2378 61.3743 35.2806 61.335 35.3247 61.2979L39.4367 57.1859C40.2178 56.4048 41.4841 56.4048 42.2652 57.1859C43.0462 57.9669 43.0462 59.2333 42.2652 60.0143L38.0385 64.241L38.037 64.2425C36.6857 65.6017 36.6856 67.7979 38.0366 69.1573C39.3857 70.5049 41.5882 70.5044 42.9367 69.1559L47.1267 64.9659C47.1842 64.9084 47.2443 64.8552 47.3066 64.8062C48.0923 64.1471 49.2655 64.187 50.0044 64.9259C50.7855 65.7069 50.7855 66.9733 50.0044 67.7543L45.7777 71.981L45.7763 71.9824C44.425 73.3416 44.4248 75.5379 45.7758 76.8973C47.1249 78.2448 49.3275 78.2444 50.676 76.8959L60.936 66.6359C60.9767 66.5952 61.0187 66.5566 61.0618 66.5202L79.7162 47.8658C82.0552 45.5268 82.0552 41.7232 79.7162 39.3842L60.0763 19.7442C57.7373 17.4053 53.9336 17.4053 51.5947 19.7442L51.0587 20.2802ZM17.8806 49.0021C18.2274 47.8858 18.8415 46.8346 19.7229 45.9491L19.7263 45.9458L38.959 26.713C38.9958 26.6694 39.0347 26.6269 39.0758 26.5858C39.4652 26.1964 39.9753 26.0011 40.4857 26C41.0024 25.9962 41.5204 26.1915 41.9147 26.5858C41.956 26.6271 41.9951 26.6697 42.032 26.7136L52.1543 36.8358C53.5032 38.1848 55.7069 38.1848 57.0558 36.8358C58.4048 35.4869 58.4048 33.2832 57.0558 31.9343L46.8058 21.6843C46.7466 21.625 46.6918 21.5629 46.6415 21.4985C46.5771 21.4483 46.5151 21.3935 46.4558 21.3343L44.4158 19.2943C42.0769 16.9553 38.2732 16.9553 35.9343 19.2943L16.2943 38.9343C13.9553 41.2732 13.9553 45.0769 16.2943 47.4158L17.8806 49.0021Z" fill="var(--spectrum-global-color-gray-800, #292929)"/>
</svg>
