<svg width="96" height="97" viewBox="0 0 96 97" xmlns="http://www.w3.org/2000/svg">
<path fill-rule="evenodd" d="M17 49C18.1046 49 19 49.8954 19 51L19 68.6471C19 71.6186 21.3854 74 24.2941 74L71.7059 74C74.6146 74 77 71.6186 77 68.6471L77 51C77 49.8954 77.8954 49 79 49C80.1046 49 81 49.8954 81 51L81 68.6471C81 73.7974 76.854 78 71.7059 78L24.2941 78C19.146 78 15 73.7974 15 68.6471L15 51C15 49.8954 15.8954 49 17 49ZM48 18.3096C49.1046 18.3096 50 19.205 50 20.3096L50 56.1716L56.5858 49.5858C57.3668 48.8047 58.6332 48.8047 59.4142 49.5858C60.1953 50.3668 60.1953 51.6332 59.4142 52.4142L49.4142 62.4142C48.6332 63.1953 47.3668 63.1953 46.5858 62.4142L36.5858 52.4142C35.8047 51.6332 35.8047 50.3668 36.5858 49.5858C37.3668 48.8047 38.6332 48.8047 39.4142 49.5858L46 56.1716L46 20.3096C46 19.205 46.8954 18.3096 48 18.3096Z" fill="var(--spectrum-global-color-gray-800, #292929)"/>
</svg>
