<svg width="96" height="96" viewBox="0 0 96 96" xmlns="http://www.w3.org/2000/svg">
<path fill-rule="evenodd" d="M17 48.8457C18.1046 48.8457 19 49.7411 19 50.8457L19 68.4928C19 71.4643 21.3854 73.8457 24.2941 73.8457L71.7059 73.8457C74.6146 73.8457 77 71.4643 77 68.4928L77 50.8457C77 49.7411 77.8954 48.8457 79 48.8457C80.1046 48.8457 81 49.7411 81 50.8457L81 68.4928C81 73.6431 76.854 77.8457 71.7059 77.8457L24.2941 77.8457C19.146 77.8457 15 73.6431 15 68.4928L15 50.8457C15 49.7411 15.8954 48.8457 17 48.8457ZM48 18.1543C49.1046 18.1543 50 19.0497 50 20.1543L50 56.0173L60.5858 45.4315C61.3668 44.6504 62.6332 44.6504 63.4142 45.4315C64.1953 46.2125 64.1953 47.4789 63.4142 48.2599L49.4142 62.2599C48.6332 63.041 47.3668 63.041 46.5858 62.2599L32.5858 48.2599C31.8047 47.4789 31.8047 46.2125 32.5858 45.4315C33.3668 44.6504 34.6332 44.6504 35.4142 45.4315L46 56.0173L46 20.1543C46 19.0497 46.8954 18.1543 48 18.1543Z" fill="var(--spectrum-global-color-gray-800, #292929)"/>
</svg>
