<svg width="48" height="48" viewBox="0 0 48 48" xmlns="http://www.w3.org/2000/svg">
<path fill-rule="evenodd" d="M25.5304 8.18945C21.3659 8.18945 17.8269 10.7599 16.213 14.3986C15.6498 14.2631 15.062 14.1895 14.4604 14.1895C10.0897 14.1895 6.64039 17.8706 6.64039 22.2995C6.64039 22.5498 6.65175 22.7978 6.67365 23.0428C4.28075 24.1825 2.65039 26.6747 2.65039 29.5395C2.65039 33.4026 5.6295 36.6274 9.4401 36.6893L9.46039 36.6895H27.2004C27.8907 36.6895 28.4504 36.1298 28.4504 35.4395C28.4504 34.7491 27.8907 34.1895 27.2004 34.1895H9.47123C7.12598 34.1461 5.15039 32.1328 5.15039 29.5395C5.15039 27.3631 6.5545 25.583 8.40578 25.0508C9.0397 24.8685 9.42292 24.2251 9.2812 23.5809C9.18973 23.1651 9.14039 22.7352 9.14039 22.2995C9.14039 19.1483 11.5711 16.6895 14.4604 16.6895C15.1604 16.6895 15.8434 16.8407 16.468 17.1084C16.7936 17.2479 17.1631 17.2428 17.4847 17.0942C17.8063 16.9456 18.0497 16.6675 18.1545 16.3291C19.1771 13.0253 22.1163 10.6895 25.5304 10.6895C29.7593 10.6895 33.2804 14.2879 33.2804 18.8395V18.8399V18.8403V18.8407V18.8411V18.8415V18.8419V18.8423V18.8427V18.8431V18.8435V18.844V18.8444V18.8448V18.8452V18.8456V18.846V18.8464V18.8468V18.8472V18.8476V18.848V18.8484V18.8488V18.8492V18.8496V18.85V18.8504V18.8509V18.8513V18.8517V18.8521V18.8525V18.8529V18.8533V18.8537V18.8541V18.8545V18.8549V18.8553V18.8557V18.8561V18.8565V18.8569V18.8573V18.8577V18.8581V18.8585V18.8589V18.8593V18.8597V18.8601V18.8605V18.8609V18.8613V18.8617V18.8621V18.8625V18.8629V18.8633V18.8637V18.8641V18.8645V18.8649V18.8653V18.8657V18.8661V18.8665V18.8669V18.8673V18.8677V18.8681V18.8684V18.8688V18.8692V18.8696V18.87V18.8704V18.8708V18.8712V18.8716V18.872V18.8724V18.8728V18.8732V18.8736V18.874V18.8744V18.8748V18.8752V18.8755V18.8759V18.8763V18.8767V18.8771V18.8775V18.8779V18.8783V18.8787V18.8791V18.8795V18.8799V18.8803V18.8806V18.881V18.8814V18.8818V18.8822V18.8826V18.883V18.8834V18.8838V18.8842V18.8846V18.8849V18.8853V18.8857V18.8861V18.8865V18.8869V18.8873V18.8877V18.8881V18.8884V18.8888V18.8892V18.8896V18.89V18.8904V18.8908V18.8912V18.8916V18.8919V18.8923V18.8927V18.8931V18.8935V18.8939V18.8943V18.8947V18.895V18.8954V18.8958V18.8962V18.8966V18.897V18.8974V18.8977V18.8981V18.8985V18.8989V18.8993V18.8997V18.9001V18.9004V18.9008V18.9012V18.9016V18.902V18.9024V18.9028V18.9031V18.9035V18.9039V18.9043V18.9047V18.9051V18.9055V18.9058V18.9062V18.9066V18.907V18.9074V18.9078V18.9081V18.9085V18.9089V18.9093V18.9097V18.9101V18.9104V18.9108V18.9112V18.9116V18.912V18.9124V18.9127V18.9131V18.9135V18.9139V18.9143V18.9147V18.915V18.9154V18.9158V18.9162V18.9166V18.917V18.9173V18.9177V18.9181V18.9185V18.9189V18.9192V18.9196V18.92V18.9204V18.9208V18.9212V18.9215V18.9219V18.9223V18.9227V18.9231V18.9234V18.9238V18.9242V18.9246V18.925V18.9254V18.9257V18.9261V18.9265V18.9269V18.9273V18.9276V18.928V18.9284V18.9288V18.9292V18.9295V18.9299V18.9303V18.9307V18.9311V18.9315V18.9318V18.9322V18.9326V18.933V18.9334V18.9337V18.9341V18.9345V18.9349V18.9353V18.9356V18.936V18.9364V18.9368V18.9372V18.9375V18.9379V18.9383V18.9387V18.9391V18.9395V18.9398V18.9402V18.9406V18.941V18.9414V18.9417V18.9421V18.9425V18.9429V18.9433V18.9436V18.944V18.9444V18.9448V18.9452V18.9455V18.9459V18.9463V18.9467V18.9471V18.9475V18.9478V18.9482V18.9486V18.949V18.9494V18.9497V18.9501V18.9505V18.9509V18.9513V18.9516V18.952V18.9524V18.9528V18.9532V18.9536V18.9539V18.9543V18.9547V18.9551V18.9555V18.9558V18.9562V18.9566V18.957V18.9574V18.9578V18.9581V18.9585V18.9589V18.9593V18.9597V18.96V18.9604V18.9608V18.9612V18.9616V18.962V18.9623V18.9627V18.9631V18.9635V18.9639V18.9643V18.9646V18.965V18.9654V18.9658V18.9662V18.9665V18.9669V18.9673V18.9677V18.9681V18.9685V18.9688V18.9692V18.9696V18.97V18.9704V18.9708V18.9712V18.9715V18.9719V18.9723V18.9727V18.9731V18.9735V18.9738V18.9742V18.9746V18.975V18.9754V18.9758V18.9761V18.9765V18.9769V18.9773V18.9777V18.9781V18.9785V18.9788V18.9792V18.9796V18.98V18.9804V18.9808V18.9812V18.9815V18.9819V18.9823V18.9827V18.9831V18.9835V18.9839V18.9843V18.9846V18.985V18.9854V18.9858V18.9862V18.9866V18.987V18.9874V18.9877V18.9881V18.9885V18.9889V18.9893V18.9897V18.9901V18.9905V18.9908V18.9912V18.9916V18.992V18.9924V18.9928V18.9932V18.9936V18.994V18.9944V18.9947V18.9951V18.9955V18.9959V18.9963V18.9967V18.9971V18.9975V18.9979V18.9983V18.9987V18.999V18.9994V18.9998V19.0002V19.0006V19.001V19.0014V19.0018V19.0022V19.0026V19.003V19.0034V19.0038V19.0041V19.0045V19.0049V19.0053V19.0057V19.0061V19.0065V19.0069V19.0073V19.0077V19.0081V19.0085V19.0089V19.0093V19.0097V19.0101V19.0105V19.0109V19.0113V19.0116V19.012V19.0124V19.0128V19.0132V19.0136V19.014V19.0144V19.0148V19.0152V19.0156V19.016V19.0164V19.0168V19.0172V19.0176V19.018V19.0184V19.0188V19.0192V19.0196V19.02V19.0204V19.0208V19.0212V19.0216V19.022V19.0224V19.0228V19.0232V19.0236V19.024V19.0244V19.0248V19.0252V19.0256V19.026V19.0264V19.0268V19.0272V19.0277V19.0281V19.0285V19.0289V19.0293V19.0297V19.0301V19.0305V19.0309V19.0313V19.0317V19.0321V19.0325V19.0329V19.0333V19.0337V19.0341V19.0345V19.035V19.0354V19.0358V19.0362V19.0366V19.037V19.0374V19.0378V19.0382V19.0386V19.039V19.0395C33.2804 19.7006 33.7952 20.2474 34.4551 20.2872C36.1165 20.3874 37.6149 21.1207 38.7271 22.2835C39.2043 22.7824 39.9955 22.7999 40.4944 22.3228C40.9933 21.8456 41.0109 21.0543 40.5337 20.5554C39.2605 19.2244 37.6027 18.2896 35.7436 17.9341C35.3026 12.52 30.9429 8.18945 25.5304 8.18945ZM28.9404 30.9794C28.9404 26.7994 32.3304 23.4094 36.5104 23.4094C40.6904 23.4094 44.0804 26.7994 44.0804 30.9794C44.0804 35.1594 40.6904 38.5494 36.5104 38.5494C32.3304 38.5494 28.9404 35.1594 28.9404 30.9794ZM39.9004 34.3694C40.3904 33.8794 40.3904 33.0894 39.9004 32.5994H39.9204L38.3004 30.9794L39.9204 29.3594C40.4104 28.8694 40.4104 28.0794 39.9204 27.5894C39.4304 27.0994 38.6404 27.0994 38.1504 27.5894L36.5304 29.2094L34.9104 27.5894C34.4204 27.0994 33.6304 27.0994 33.1404 27.5894C32.6504 28.0794 32.6504 28.8694 33.1404 29.3594L34.7604 30.9794L33.1404 32.5994C32.6504 33.0894 32.6504 33.8794 33.1404 34.3694C33.3804 34.6194 33.7004 34.7394 34.0204 34.7394C34.3404 34.7394 34.6604 34.6094 34.9004 34.3694L36.5204 32.7494L38.1404 34.3694C38.3804 34.6194 38.7004 34.7394 39.0204 34.7394C39.3404 34.7394 39.6604 34.6094 39.9004 34.3694Z" fill="var(--spectrum-global-color-gray-800, #292929)"/>
</svg>
