<svg width="160" height="160" viewBox="0 0 160 160" xmlns="http://www.w3.org/2000/svg">
<path fill-rule="evenodd" d="M28.6192 39.7487C30.1766 38.6272 31.9925 38 33.8462 38H126.154C128.235 38 130.268 38.7903 131.941 40.1831L82.3784 69.2433C80.6259 70.2708 78.4741 70.2509 76.7393 69.1895L28.6192 39.7487ZM24.3062 46.4884C24.1071 47.3865 24 48.3378 24 49.3333V110.667C24 117.32 28.7824 122 33.8462 122H126.154C131.218 122 136 117.32 136 110.667V49.3333C136 48.5892 135.94 47.8697 135.827 47.1787L86.4248 76.1445C82.1263 78.6649 76.8146 78.6141 72.5641 76.0136L24.3062 46.4884ZM33.8462 30C23.6159 30 16 39.0495 16 49.3333V110.667C16 120.95 23.6159 130 33.8462 130H126.154C136.384 130 144 120.95 144 110.667V49.3333C144 39.0495 136.384 30 126.154 30H33.8462Z" fill="var(--spectrum-global-color-gray-800, #292929)"/>
</svg>
