<svg width="48" height="48" viewBox="0 0 48 48" xmlns="http://www.w3.org/2000/svg">
<path fill-rule="evenodd" d="M7.95996 7.18994C7.95996 6.49959 7.40032 5.93994 6.70996 5.93994C6.0196 5.93994 5.45996 6.49959 5.45996 7.18994V41.2799C5.45996 41.9703 6.0196 42.5299 6.70996 42.5299H40.74C41.4303 42.5299 41.99 41.9703 41.99 41.2799C41.99 40.5896 41.4303 40.0299 40.74 40.0299H7.95996V7.18994ZM12.5996 23.02C12.5996 22.6058 12.9354 22.27 13.3496 22.27H15.2296C15.6438 22.27 15.9796 22.6058 15.9796 23.02V34.58C15.9796 34.9942 15.6438 35.33 15.2296 35.33H13.3496C12.9354 35.33 12.5996 34.9942 12.5996 34.58V23.02ZM13.3496 19.77C11.5547 19.77 10.0996 21.2251 10.0996 23.02V34.58C10.0996 36.375 11.5547 37.83 13.3496 37.83H15.2296C17.0245 37.83 18.4796 36.375 18.4796 34.58V23.02C18.4796 21.2251 17.0245 19.77 15.2296 19.77H13.3496ZM34.5096 29.6C34.0954 29.6 33.7596 29.9358 33.7596 30.35V34.58C33.7596 34.9942 34.0954 35.33 34.5096 35.33H36.3896C36.8038 35.33 37.1396 34.9942 37.1396 34.58V30.35C37.1396 29.9358 36.8038 29.6 36.3896 29.6H34.5096ZM31.2596 30.35C31.2596 28.5551 32.7147 27.1 34.5096 27.1H36.3896C38.1845 27.1 39.6396 28.5551 39.6396 30.35V34.58C39.6396 36.375 38.1845 37.83 36.3896 37.83H34.5096C32.7147 37.83 31.2596 36.375 31.2596 34.58V30.35ZM23.1796 13.9C23.1796 13.4858 23.5154 13.15 23.9296 13.15H25.8096C26.2238 13.15 26.5596 13.4858 26.5596 13.9V34.58C26.5596 34.9942 26.2238 35.33 25.8096 35.33H23.9296C23.5154 35.33 23.1796 34.9942 23.1796 34.58V13.9ZM23.9296 10.65C22.1347 10.65 20.6796 12.1051 20.6796 13.9V34.58C20.6796 36.375 22.1347 37.83 23.9296 37.83H25.8096C27.6045 37.83 29.0596 36.375 29.0596 34.58V13.9C29.0596 12.1051 27.6045 10.65 25.8096 10.65H23.9296Z" fill="var(--spectrum-global-color-gray-800, #292929)"/>
</svg>
