<svg width="96" height="96" viewBox="0 0 96 96" xmlns="http://www.w3.org/2000/svg">
<path fill-rule="evenodd" d="M16 34C16 28.4772 20.4772 24 26 24H70C75.5228 24 80 28.4772 80 34V62C80 67.5228 75.5228 72 70 72H26C20.4772 72 16 67.5228 16 62V34ZM26 28C22.6863 28 20 30.6863 20 34V62C20 65.3137 22.6863 68 26 68H70C73.3137 68 76 65.3137 76 62V34C76 30.6863 73.3137 28 70 28H26ZM42 60C42 58.8954 42.8954 58 44 58H68C69.1046 58 70 58.8954 70 60C70 61.1046 69.1046 62 68 62H44C42.8954 62 42 61.1046 42 60ZM26.4657 60.8477C25.7743 61.7091 25.9121 62.9679 26.7735 63.6593C27.6349 64.3507 28.8937 64.2129 29.5851 63.3515L40.9851 49.1483C41.5755 48.4127 41.5718 47.3647 40.9761 46.6333L29.5761 32.6366C28.8786 31.7801 27.6188 31.6513 26.7624 32.3489C25.9059 33.0464 25.7771 34.3062 26.4747 35.1626L36.8535 47.9056L26.4657 60.8477Z" fill="var(--spectrum-global-color-gray-800, #292929)"/>
</svg>
