<svg width="96" height="96" viewBox="0 0 96 96" xmlns="http://www.w3.org/2000/svg">
<path fill-rule="evenodd" d="M73.7997 16.2202C74.9041 16.2368 75.786 17.1455 75.7694 18.25L75.7344 20.5825L78.0724 20.6202C79.1768 20.6381 80.0577 21.5478 80.0399 22.6523C80.022 23.7567 79.1123 24.6375 78.0078 24.6197L75.6744 24.582L75.6394 26.91C75.6228 28.0144 74.7141 28.8963 73.6096 28.8797C72.5052 28.8632 71.6233 27.9544 71.6399 26.85L71.6749 24.5174L69.3378 24.4797C68.2334 24.4619 67.3525 23.5521 67.3704 22.4477C67.3882 21.3433 68.298 20.4624 69.4024 20.4802L71.7349 20.5179L71.7699 18.19C71.7864 17.0855 72.6952 16.2036 73.7997 16.2202ZM40.4795 19.73C40.4795 18.6254 39.5841 17.73 38.4795 17.73C37.3749 17.73 36.4795 18.6254 36.4795 19.73V25.58C36.4795 26.6845 37.3749 27.58 38.4795 27.58C39.5841 27.58 40.4795 26.6845 40.4795 25.58V19.73ZM50.8864 24.4069C51.5364 23.5139 51.3393 22.263 50.4463 21.613C49.5532 20.9629 48.3023 21.16 47.6523 22.053L44.2023 26.793C43.5523 27.6861 43.7493 28.937 44.6424 29.587C45.5354 30.237 46.7864 30.04 47.4364 29.1469L50.8864 24.4069ZM29.2968 22.053C28.6468 21.16 27.3959 20.9629 26.5028 21.613C25.6098 22.263 25.4127 23.5139 26.0627 24.4069L29.5127 29.1469C30.1627 30.04 31.4137 30.237 32.3067 29.587C33.1998 28.937 33.3968 27.6861 32.7468 26.793L29.2968 22.053ZM56.5475 34.312C57.598 33.9706 58.1728 32.8423 57.8315 31.7918C57.4901 30.7413 56.3618 30.1665 55.3113 30.5078L49.7413 32.3178C48.6908 32.6592 48.1159 33.7875 48.4573 34.838C48.7986 35.8885 49.927 36.4634 50.9775 36.122L56.5475 34.312ZM21.6279 30.5079C20.5774 30.1665 19.449 30.7414 19.1077 31.7919C18.7663 32.8424 19.3412 33.9707 20.3917 34.3121L25.9617 36.1221C27.0122 36.4634 28.1405 35.8886 28.4819 34.8381C28.8232 33.7876 28.2484 32.6593 27.1979 32.3179L21.6279 30.5079ZM50.9775 40.0479C49.927 39.7065 48.7986 40.2814 48.4573 41.3319C48.1159 42.3824 48.6908 43.5107 49.7413 43.852L55.3113 45.662C56.3618 46.0034 57.4901 45.4285 57.8315 44.378C58.1728 43.3275 57.598 42.1992 56.5475 41.8579L50.9775 40.0479ZM27.1979 43.8521C28.2484 43.5107 28.8232 42.3824 28.4819 41.3319C28.1405 40.2814 27.0122 39.7065 25.9617 40.0479L20.3917 41.8579C19.3412 42.1992 18.7663 43.3276 19.1077 44.3781C19.449 45.4286 20.5774 46.0034 21.6279 45.6621L27.1979 43.8521ZM47.438 47.0252C46.7892 46.1313 45.5386 45.9325 44.6446 46.5813C43.7507 47.2301 43.5519 48.4807 44.2007 49.3747L47.6407 54.1147C48.2895 55.0086 49.5401 55.2074 50.4341 54.5586C51.328 53.9098 51.5268 52.6592 50.878 51.7652L47.438 47.0252ZM32.7384 49.3747C33.3872 48.4807 33.1884 47.2301 32.2945 46.5813C31.4005 45.9326 30.1499 46.1313 29.5011 47.0253L26.0611 51.7653C25.4123 52.6592 25.6111 53.9099 26.505 54.5586C27.399 55.2074 28.6496 55.0087 29.2984 54.1147L32.7384 49.3747ZM40.4698 50.59C40.4698 49.4854 39.5743 48.59 38.4698 48.59C37.3652 48.59 36.4698 49.4854 36.4698 50.59V56.44C36.4698 57.5445 37.3652 58.44 38.4698 58.44C39.5743 58.44 40.4698 57.5445 40.4698 56.44V50.59ZM67.0598 53.247C67.0637 52.1424 66.1714 51.2439 65.0668 51.24C63.9622 51.2361 63.0637 52.1284 63.0598 53.233L63.0498 56.083C63.0459 57.1875 63.9382 58.0861 65.0428 58.09C66.1474 58.0938 67.0459 57.2016 67.0498 56.097L67.0598 53.247ZM57.2868 56.5722C56.3326 56.0159 55.108 56.3384 54.5517 57.2927C53.9954 58.2469 54.318 59.4715 55.2722 60.0278L57.7422 61.4678C58.6965 62.0241 59.921 61.7015 60.4773 60.7473C61.0337 59.7931 60.7111 58.5685 59.7568 58.0122L57.2868 56.5722ZM74.8233 60.0456C75.7819 59.4968 76.114 58.2748 75.5652 57.3162C75.0163 56.3576 73.7943 56.0255 72.8358 56.5744L70.3557 57.9944C69.3972 58.5432 69.0651 59.7652 69.6139 60.7238C70.1628 61.6823 71.3848 62.0145 72.3433 61.4656L74.8233 60.0456ZM72.3668 65.2722C71.4126 64.7159 70.188 65.0384 69.6317 65.9927C69.0754 66.9469 69.398 68.1715 70.3522 68.7278L72.8222 70.1678C73.7765 70.7241 75.001 70.4015 75.5573 69.4473C76.1137 68.4931 75.7911 67.2685 74.8368 66.7122L72.3668 65.2722ZM59.7433 68.7556C60.7019 68.2068 61.034 66.9848 60.4852 66.0262C59.9363 65.0676 58.7143 64.7355 57.7557 65.2844L55.2757 66.7044C54.3172 67.2532 53.9851 68.4752 54.5339 69.4338C55.0828 70.3923 56.3048 70.7245 57.2633 70.1756L59.7433 68.7556ZM67.0598 70.6569C67.0636 69.5523 66.1714 68.6538 65.0668 68.6499C63.9622 68.6461 63.0637 69.5384 63.0598 70.6429L63.0498 73.5029C63.046 74.6075 63.9383 75.506 65.0428 75.5099C66.1474 75.5137 67.0459 74.6215 67.0498 73.5169L67.0598 70.6569ZM24.3593 69.6401C24.3758 68.5357 23.494 67.6269 22.3895 67.6103C21.2851 67.5938 20.3763 68.4756 20.3597 69.5801L20.3247 71.9153L17.9899 71.8803C16.8855 71.8638 15.9767 72.7457 15.9602 73.8501C15.9436 74.9546 16.8255 75.8633 17.93 75.8799L20.2646 75.9149L20.2297 78.2401C20.2131 79.3445 21.095 80.2533 22.1995 80.2699C23.3039 80.2865 24.2127 79.4046 24.2293 78.3001L24.2642 75.9749L26.6 76.0099C27.7044 76.0264 28.6132 75.1445 28.6297 74.0401C28.6463 72.9356 27.7644 72.0269 26.6599 72.0103L24.3242 71.9753L24.3593 69.6401Z" fill="var(--spectrum-global-color-gray-800, #292929)"/>
</svg>
