<svg width="160" height="160" viewBox="0 0 160 160" xmlns="http://www.w3.org/2000/svg">
<path fill-rule="evenodd" d="M80 26.4219C82.2091 26.4219 84 28.2127 84 30.4219L84 93.8441L95.1716 82.6726C96.7337 81.1105 99.2663 81.1105 100.828 82.6726C102.391 84.2346 102.391 86.7673 100.828 88.3294L82.8284 106.329C81.2663 107.892 78.7337 107.892 77.1716 106.329L59.1716 88.3294C57.6095 86.7673 57.6095 84.2346 59.1716 82.6726C60.7337 81.1105 63.2663 81.1105 64.8284 82.6726L76 93.8441L76 30.4219C76 28.2127 77.7909 26.4219 80 26.4219ZM24 81.001C26.2091 81.001 28 82.7918 28 85.001V116.06C28 120.93 32.0402 125.001 37.1765 125.001H122.824C127.96 125.001 132 120.93 132 116.06V85.001C132 82.7918 133.791 81.001 136 81.001C138.209 81.001 140 82.7918 140 85.001V116.06C140 125.484 132.242 133.001 122.824 133.001H37.1765C27.7584 133.001 20 125.484 20 116.06V85.001C20 82.7918 21.7909 81.001 24 81.001Z" fill="var(--spectrum-global-color-gray-800, #292929)"/>
</svg>
