<svg width="160" height="160" viewBox="0 0 160 160" xmlns="http://www.w3.org/2000/svg">
<path fill-rule="evenodd" d="M82.8579 61.1261L65.578 43.8463L51.8989 50.9442C49.3603 52.2615 47.3757 54.442 46.3026 57.093L34.7875 85.5397L50.1234 70.2038C49.9946 68.5189 50.5746 66.79 51.8632 65.5014C54.2063 63.1582 58.0053 63.1582 60.3485 65.5014C62.6916 67.8445 62.6916 71.6435 60.3485 73.9866C59.1246 75.2105 57.5037 75.7951 55.9004 75.7405L38.7446 92.8962L69.6111 80.4016C72.2621 79.3285 74.4427 77.3438 75.7599 74.8053L82.8579 61.1261ZM63.8681 35.7207L72.3903 27.1985C76.2956 23.2932 82.6272 23.2932 86.5325 27.1985L99.4832 40.1492C103.388 44.0544 103.388 50.3861 99.4832 54.2913L91.0321 62.7424L82.8609 78.4899C80.6655 82.7208 77.0312 86.0285 72.6129 87.8171L37.8277 101.898C29.6415 105.212 21.4924 97.0627 24.8062 88.8764L38.8871 54.0913C40.6756 49.6729 43.9834 46.0387 48.2143 43.8433L63.8681 35.7207ZM93.8263 48.6345L87.7531 54.7077L71.974 38.9285L78.0472 32.8553C78.8282 32.0743 80.0946 32.0743 80.8756 32.8553L93.8263 45.806C94.6074 46.5871 94.6074 47.8534 93.8263 48.6345ZM101.066 102.928L126.627 71.7249C128.34 69.6337 128.034 66.5498 125.942 64.8368C123.851 63.1237 120.767 63.4302 119.054 65.5214L93.59 96.6061C94.9053 97.1795 96.0964 97.8906 97.1093 98.7204C98.4684 99.8337 99.8686 101.229 101.066 102.928ZM104.215 111.708L132.816 76.7945C137.329 71.2855 136.521 63.1611 131.012 58.6482C125.503 54.1352 117.379 54.9427 112.866 60.4517L84.5862 94.973C83.7082 95.0048 82.8254 95.0898 81.9469 95.2312C76.0095 96.1868 70.0005 99.7504 66.439 107.102C64.9931 110.086 63.9177 112.433 63.0296 114.372C61.8149 117.023 60.9508 118.908 59.9686 120.614C58.5133 123.142 56.9294 124.979 53.171 127.905C51.8891 128.903 51.3382 130.577 51.7768 132.141C52.2154 133.705 53.5564 134.849 55.1703 135.035C60.4511 135.644 69.7863 136.497 78.7623 135.403C87.4569 134.343 97.3912 131.258 101.741 122.564C103.693 118.662 104.43 115.023 104.215 111.708ZM94.5858 118.985C92.181 123.792 86.0682 126.453 77.794 127.461C73.4024 127.997 68.8409 128.011 64.7662 127.816C65.5406 126.814 66.2347 125.764 66.9016 124.606C68.0369 122.634 69.1546 120.205 70.5467 117.179L70.5467 117.179C71.439 115.24 72.4441 113.055 73.6386 110.59C75.9739 105.769 79.6521 103.703 83.2181 103.13C87.0319 102.516 90.4853 103.636 92.0397 104.909C93.7868 106.34 95.2391 108.135 95.8821 110.275C96.4935 112.309 96.5175 115.123 94.5858 118.985Z" fill="var(--spectrum-global-color-gray-800, #292929)"/>
</svg>
