<svg width="160" height="160" viewBox="0 0 160 160" xmlns="http://www.w3.org/2000/svg">
<path fill-rule="evenodd" d="M31.4297 47.4297C31.4297 38.5888 38.5888 31.4297 47.4297 31.4297H101.25C103.459 31.4297 105.25 29.6388 105.25 27.4297C105.25 25.2205 103.459 23.4297 101.25 23.4297H47.4297C34.1705 23.4297 23.4297 34.1705 23.4297 47.4297V101.25C23.4297 103.459 25.2205 105.25 27.4297 105.25C29.6388 105.25 31.4297 103.459 31.4297 101.25V47.4297ZM58.4297 46.4297C51.8023 46.4297 46.4297 51.8023 46.4297 58.4297V116.58C46.4297 123.207 51.8023 128.58 58.4297 128.58H116.58C123.207 128.58 128.58 123.207 128.58 116.58V58.4297C128.58 52.3379 124.04 47.3064 118.16 46.5328V83.9599C118.16 85.5499 116.38 86.5099 115.05 85.6199L107.15 80.3599C106.48 79.9099 105.6 79.9099 104.93 80.3599L97.0299 85.6199C95.6999 86.5099 93.9199 85.5599 93.9199 83.9599V46.4297H58.4297ZM38.4297 58.4297C38.4297 47.384 47.384 38.4297 58.4297 38.4297H116.58C127.625 38.4297 136.58 47.384 136.58 58.4297V116.58C136.58 127.625 127.625 136.58 116.58 136.58H58.4297C47.384 136.58 38.4297 127.625 38.4297 116.58V58.4297Z" fill="var(--spectrum-global-color-gray-800, #292929)"/>
</svg>
