<svg width="96" height="96" viewBox="0 0 96 96" xmlns="http://www.w3.org/2000/svg">
<path fill-rule="evenodd" d="M73.7987 16.2209C74.9031 16.2375 75.785 17.1463 75.7684 18.2507L75.7334 20.5832L78.0714 20.621C79.1759 20.6388 80.0567 21.5486 80.0389 22.653C80.021 23.7574 79.1113 24.6383 78.0069 24.6204L75.6734 24.5828L75.6385 26.9107C75.6219 28.0152 74.7131 28.8971 73.6087 28.8805C72.5042 28.8639 71.6223 27.9551 71.6389 26.8507L71.6739 24.5182L69.3369 24.4804C68.2324 24.4626 67.3516 23.5528 67.3694 22.4484C67.3872 21.344 68.297 20.4631 69.4014 20.481L71.734 20.5186L71.7689 18.1907C71.7855 17.0862 72.6942 16.2044 73.7987 16.2209ZM40.4785 19.7307C40.4785 18.6261 39.5831 17.7307 38.4785 17.7307C37.374 17.7307 36.4785 18.6261 36.4785 19.7307V25.5807C36.4785 26.6853 37.374 27.5807 38.4785 27.5807C39.5831 27.5807 40.4785 26.6853 40.4785 25.5807V19.7307ZM50.8854 24.4077C51.5354 23.5146 51.3384 22.2637 50.4453 21.6137C49.5523 20.9637 48.3013 21.1607 47.6513 22.0538L44.2013 26.7938C43.5513 27.6868 43.7484 28.9377 44.6414 29.5877C45.5345 30.2378 46.7854 30.0407 47.4354 29.1477L50.8854 24.4077ZM29.2958 22.0538C28.6458 21.1607 27.3949 20.9637 26.5018 21.6137C25.6088 22.2637 25.4118 23.5146 26.0618 24.4077L29.5118 29.1477C30.1618 30.0407 31.4127 30.2378 32.3057 29.5877C33.1988 28.9377 33.3958 27.6868 32.7458 26.7938L29.2958 22.0538ZM56.5465 34.3127C57.597 33.9714 58.1719 32.8431 57.8305 31.7926C57.4891 30.7421 56.3608 30.1672 55.3103 30.5086L49.7403 32.3186C48.6898 32.6599 48.1149 33.7882 48.4563 34.8387C48.7977 35.8892 49.926 36.4641 50.9765 36.1227L56.5465 34.3127ZM21.6269 30.5086C20.5764 30.1673 19.4481 30.7421 19.1067 31.7926C18.7653 32.8431 19.3402 33.9714 20.3907 34.3128L25.9607 36.1228C27.0112 36.4642 28.1395 35.8893 28.4809 34.8388C28.8223 33.7883 28.2474 32.66 27.1969 32.3186L21.6269 30.5086ZM50.9765 40.0486C49.926 39.7072 48.7977 40.2821 48.4563 41.3326C48.1149 42.3831 48.6898 43.5114 49.7403 43.8528L55.3103 45.6628C56.3608 46.0041 57.4891 45.4293 57.8305 44.3788C58.1719 43.3283 57.597 42.2 56.5465 41.8586L50.9765 40.0486ZM27.1969 43.8528C28.2474 43.5114 28.8223 42.3831 28.4809 41.3326C28.1395 40.2821 27.0112 39.7073 25.9607 40.0486L20.3907 41.8586C19.3402 42.2 18.7653 43.3283 19.1067 44.3788C19.4481 45.4293 20.5764 46.0042 21.6269 45.6628L27.1969 43.8528ZM47.437 47.026C46.7882 46.132 45.5376 45.9333 44.6436 46.582C43.7497 47.2308 43.5509 48.4815 44.1997 49.3754L47.6397 54.1154C48.2885 55.0094 49.5391 55.2081 50.4331 54.5593C51.327 53.9106 51.5258 52.6599 50.877 51.766L47.437 47.026ZM32.7374 49.3754C33.3862 48.4815 33.1875 47.2308 32.2935 46.5821C31.3996 45.9333 30.1489 46.132 29.5001 47.026L26.0601 51.766C25.4114 52.66 25.6101 53.9106 26.5041 54.5594C27.398 55.2082 28.6487 55.0094 29.2974 54.1154L32.7374 49.3754ZM40.4688 50.5907C40.4688 49.4861 39.5734 48.5907 38.4688 48.5907C37.3642 48.5907 36.4688 49.4861 36.4688 50.5907V56.4407C36.4688 57.5453 37.3642 58.4407 38.4688 58.4407C39.5734 58.4407 40.4688 57.5453 40.4688 56.4407V50.5907ZM67.0588 53.2477C67.0627 52.1432 66.1704 51.2446 65.0658 51.2407C63.9613 51.2369 63.0627 52.1292 63.0588 53.2337L63.0488 56.0837C63.045 57.1883 63.9373 58.0868 65.0418 58.0907C66.1464 58.0946 67.0449 57.2023 67.0488 56.0977L67.0588 53.2477ZM57.2859 56.5729C56.3316 56.0166 55.1071 56.3392 54.5507 57.2934C53.9944 58.2477 54.317 59.4722 55.2712 60.0285L57.7413 61.4685C58.6955 62.0249 59.92 61.7023 60.4764 60.748C61.0327 59.7938 60.7101 58.5692 59.7559 58.0129L57.2859 56.5729ZM74.8223 60.0464C75.7809 59.4975 76.113 58.2755 75.5642 57.3169C75.0153 56.3584 73.7933 56.0263 72.8348 56.5751L70.3548 57.9951C69.3962 58.544 69.0641 59.766 69.6129 60.7245C70.1618 61.6831 71.3838 62.0152 72.3423 61.4664L74.8223 60.0464ZM72.3659 65.2729C71.4116 64.7166 70.1871 65.0392 69.6307 65.9934C69.0744 66.9477 69.397 68.1722 70.3513 68.7285L72.8213 70.1685C73.7755 70.7249 75.0001 70.4023 75.5564 69.448C76.1127 68.4938 75.7901 67.2692 74.8359 66.7129L72.3659 65.2729ZM59.7423 68.7563C60.7009 68.2075 61.033 66.9855 60.4842 66.0269C59.9353 65.0684 58.7133 64.7362 57.7548 65.2851L55.2748 66.7051C54.3162 67.254 53.9841 68.476 54.5329 69.4345C55.0818 70.3931 56.3038 70.7252 57.2623 70.1764L59.7423 68.7563ZM67.0588 70.6576C67.0627 69.5531 66.1704 68.6545 65.0658 68.6507C63.9613 68.6468 63.0627 69.5391 63.0588 70.6437L63.0488 73.5037C63.045 74.6082 63.9373 75.5068 65.0418 75.5106C66.1464 75.5145 67.045 74.6222 67.0488 73.5176L67.0588 70.6576ZM24.3583 69.6409C24.3749 68.5364 23.493 67.6276 22.3885 67.6111C21.2841 67.5945 20.3753 68.4764 20.3587 69.5808L20.3237 71.9161L17.989 71.8811C16.8845 71.8645 15.9758 72.7464 15.9592 73.8509C15.9427 74.9553 16.8246 75.8641 17.929 75.8806L20.2637 75.9156L20.2287 78.2408C20.2122 79.3453 21.0941 80.254 22.1985 80.2706C23.3029 80.2872 24.2117 79.4053 24.2283 78.3009L24.2632 75.9756L26.599 76.0106C27.7034 76.0272 28.6122 75.1453 28.6288 74.0408C28.6453 72.9364 27.7634 72.0276 26.659 72.0111L24.3232 71.976L24.3583 69.6409Z" fill="var(--spectrum-global-color-gray-800, #292929)"/>
</svg>
