<svg width="48" height="48" viewBox="0 0 48 48" xmlns="http://www.w3.org/2000/svg">
<path fill-rule="evenodd" d="M38.4012 9.84185C39.1854 6.34923 34.9986 3.92937 32.3654 6.35678L32.3652 6.357L28.4654 9.95078L28.465 9.95112C28.188 10.2066 27.8011 10.3099 27.4347 10.2269L27.4328 10.2265L22.2578 9.06246L22.2573 9.06236C18.7647 8.27813 16.3448 12.4649 18.7722 15.0981L18.7724 15.0983L22.3662 18.9981L22.3666 18.9984C22.6221 19.2755 22.7254 19.6624 22.6424 20.0288L22.6419 20.0307L21.4779 25.2057L21.4778 25.2061C20.6935 28.6989 24.8807 31.1187 27.5138 28.691L31.4136 25.0972L31.4139 25.0969C31.691 24.8414 32.0779 24.7381 32.4443 24.8211L32.4462 24.8215L37.6212 25.9855L37.6217 25.9856C41.1143 26.7699 43.5342 22.5831 41.1068 19.9499L41.1065 19.9497L37.5127 16.0499L37.5124 16.0495C37.2569 15.7725 37.1536 15.3856 37.2366 15.0192L37.2371 15.0173L38.4011 9.8423L38.4012 9.84185ZM34.0598 8.19499C34.8887 7.43075 36.2096 8.19085 35.9619 9.29413L34.7984 14.4668L34.7982 14.4678C34.5337 15.637 34.8623 16.8634 35.6743 17.7441L35.6747 17.7444L39.2683 21.6441L39.2686 21.6443C40.0327 22.473 39.2729 23.7937 38.1698 23.5465L38.1694 23.5464L32.9967 22.3829L32.9957 22.3827C31.8265 22.1181 30.6001 22.4468 29.7194 23.2588L29.719 23.2591L25.8194 26.8528L25.8192 26.853C24.9904 27.6171 23.6697 26.8573 23.917 25.7543L23.9171 25.7539L25.0806 20.5812L25.0808 20.58C25.3453 19.4109 25.0166 18.1846 24.2047 17.3039L24.2043 17.3035L20.6106 13.4039L20.6104 13.4037C19.8462 12.5748 20.6063 11.2539 21.7096 11.5016L26.8823 12.6651L26.8832 12.6653C28.0524 12.9299 29.2789 12.6012 30.1596 11.7892L30.1599 11.7889L34.0596 8.1952L34.0598 8.19499ZM19.3133 38.4008L15.6653 37.5788C15.1823 37.4708 14.6813 37.6058 14.3183 37.9388L11.5703 40.4738C10.4873 41.4728 8.76527 40.4768 9.08927 39.0428L9.91128 35.3948C10.0193 34.9118 9.88428 34.4108 9.55127 34.0478L7.01626 31.2998C6.01726 30.2168 7.01326 28.4948 8.44727 28.8188L12.0953 29.6408C12.5783 29.7488 13.0793 29.6138 13.4423 29.2808L16.1903 26.7458C17.2733 25.7468 18.9953 26.7428 18.6713 28.1768L17.8493 31.8248C17.7413 32.3078 17.8763 32.8088 18.2093 33.1718L20.7443 35.9198C21.7433 37.0028 20.7473 38.7248 19.3133 38.4008Z" fill="var(--spectrum-global-color-gray-800, #292929)"/>
</svg>
