<svg width="100" height="96" viewBox="0 0 100 96" xmlns="http://www.w3.org/2000/svg">
<path fill-rule="evenodd" d="M40.3759 78.7131C43.2819 79.7966 46.3584 80.3516 49.4599 80.3516H64.6309C64.6843 80.3516 64.7373 80.3495 64.7897 80.3453H68.8351C70.5444 80.3453 72.401 79.8788 73.8806 78.7437C75.4257 77.5584 76.4289 75.7346 76.4289 73.3903C76.4289 72.6668 76.2668 71.3617 75.5956 70.0798C77.6715 69.2329 79.2656 67.3959 79.7381 65.0902C80.1418 63.1207 79.6644 61.209 78.6049 59.7216C80.394 58.5586 81.613 56.5843 81.7299 54.3032C81.8178 52.5881 81.2711 50.9935 80.3 49.7405C81.9116 48.5572 82.9921 46.6864 83.1018 44.5454C83.3033 40.6132 80.1693 37.3145 76.2319 37.3145H59.973L61.1187 33.6332C62.2049 30.1434 62.9017 26.5443 63.1967 22.9014L63.3627 20.8508C63.6768 16.9707 60.6127 13.6484 56.7199 13.6484C54.1513 13.6484 51.8113 15.1246 50.7051 17.4428L45.1794 29.0229C44.7157 29.9947 44.1812 30.9311 43.5804 31.8247L42.4849 33.4539C39.6052 37.7363 34.783 40.3047 29.6225 40.3047H23.6309C19.7649 40.3047 16.6309 43.4387 16.6309 47.3047V67.8516C16.6309 71.7176 19.7649 74.8516 23.6309 74.8516H26.0519C28.6762 74.8516 31.2793 75.3211 33.7383 76.238L40.3759 78.7131ZM49.4599 76.3516H58.145C58.1974 76.3474 58.2504 76.3453 58.3039 76.3453H68.8351C69.8759 76.3453 70.8162 76.0531 71.4459 75.57C72.0102 75.1372 72.4289 74.4834 72.4289 73.3903C72.4289 73.0718 72.3476 72.4686 72.0437 71.919C71.7744 71.4322 71.3097 70.9349 70.3629 70.6825C70.2679 70.6572 70.1764 70.6255 70.0887 70.5879H70.0853H70.0814H70.0775H70.0737H70.0698H70.066H70.0622H70.0584H70.0546H70.0508H70.047H70.0433H70.0396H70.0358H70.0321H70.0284H70.0248H70.0211H70.0175H70.0138H70.0102H70.0066H70.0031H69.9995H69.9959H69.9924H69.9889H69.9854H69.9819H69.9784H69.9749H69.9715H69.968H69.9646H69.9612H69.9578H69.9545H69.9511H69.9478H69.9444H69.9411H69.9378H69.9345H69.9313H69.928H69.9248H69.9216H69.9184H69.9152H69.912H69.9088H69.9057H69.9026H69.8995H69.8964H69.8933H69.8902H69.8872H69.8841H69.8811H69.8781C68.7735 70.5879 67.8781 69.6925 67.8781 68.5879C67.8781 67.4833 68.7735 66.5879 69.8781 66.5879H69.8811H69.8841H69.8872H69.8902H69.8933H69.8964H69.8995H69.9026H69.9057H69.9088H69.912H69.9152H69.9184H69.9216H69.9248H69.928H69.9313H69.9345H69.9378H69.9411H69.9444H69.9478H69.9511H69.9545H69.9578H69.9612H69.9646H69.968H69.9715H69.9749H69.9784H69.9819H69.9854H69.9889H69.9924H69.9959H69.9995H70.0031H70.0066H70.0102H70.0138H70.0175H70.0211H70.0248H70.0284H70.0321H70.0358H70.0396H70.0433H70.047H70.0508H70.0546H70.0584H70.0622H70.066H70.0698H70.0737H70.0775H70.0814H70.0853H70.0892H70.0931H70.0971H70.101H70.105H70.1089H70.1129H70.1169H70.121H70.125H70.129H70.1331H70.1372H70.1413H70.1454H70.1495H70.1536H70.1578H70.1619H70.1661H70.1703H70.1745H70.1787H70.183H70.1872H70.1915H70.1957H70.2H70.2043H70.2086H70.213H70.2173H70.2217H70.226H70.2304H70.2348H70.2392H70.2437H70.2481H70.2526H70.257H70.2615H70.266H70.2705H70.275H70.2796H70.2841H70.2887H70.2932H70.2978H70.3024H70.307H70.3117H70.3163H70.321H70.3256H70.3303H70.335H70.3397H70.3444H70.3492H70.3539H70.3587H70.3634H70.3682H70.373H70.3778H70.3827H70.3875H70.3924H70.3972H70.4021H70.407H70.4119H70.4168H70.4217H70.4267H70.4316H70.4366H70.4416H70.4466H70.4516H70.4566H70.4616H70.4667H70.4717H70.4768H70.4819H70.487H70.4921H70.4972H70.5023H70.5075H70.5126H70.5178H70.523H70.5282H70.5334H70.5386H70.5438H70.5491H70.5543H70.5596H70.5649H70.5702H70.5755H70.5808H70.5861H70.5914H70.5968H70.6022H70.6075H70.6129H70.6183H70.6237H70.6292H70.6346H70.6401H70.6455H70.651H70.6565H70.662H70.6675H70.673H70.6785H70.6841H70.6896H70.6952H70.7008H70.7064H70.712H70.7176H70.7232H70.7289H70.7345H70.7402H70.7458H70.7515H70.7572H70.7629H70.7687H70.7744H70.7801H70.7859H70.7917H70.7974H70.8032H70.809H70.8148H70.8206H70.8265H70.8323H70.8382H70.844H70.8499H70.8558H70.8617H70.8676H70.8736H70.8795H70.8854H70.8914H70.8974H70.9033H70.9093H70.9153H70.9213H70.9273H70.9334H70.9394H70.9455H70.9515H70.9576H70.9637H70.9698H70.9759H70.982H70.9882H70.9943H71.0005H71.0066H71.0128H71.019H71.0252H71.0314H71.0376H71.0438H71.0501H71.0563H71.0626H71.0688H71.0751H71.0814H71.0877H71.094H71.1003H71.1066H71.113H71.1193H71.1257H71.1321H71.1385H71.1448H71.1512H71.1577H71.1641H71.1705H71.1769H71.1834H71.1899H71.1963H71.2028H71.2093H71.2158H71.2223H71.2288H71.2354H71.2419H71.2485H71.255H71.2616H71.2682H71.2748H71.2814H71.288H71.2946H71.3012H71.3079H71.3145H71.3212H71.3279H71.3345H71.3412H71.3479H71.3546H71.3613H71.3681H71.3748H71.3815H71.3883H71.3951H71.4018H71.4086H71.4154H71.4222H71.429H71.4358H71.4427H71.4495H71.4563H71.4632H71.4701H71.4769H71.4838H71.4907H71.4976H71.5045H71.5115H71.5184H71.5253H71.5323H71.5392H71.5462H71.5532H71.5601H71.5671H71.5741H71.5811H71.5882H71.5952H71.6022H71.6093H71.6163H71.6234H71.6305H71.6375H71.6446H71.6517H71.6588H71.6659H71.6731H71.6802H71.6873H71.6945H71.7016H71.7088H71.716H71.7231H71.7303H71.7375H71.7447H71.752H71.7592H71.7664H71.7737H71.7809H71.7882H71.7954H71.8027H71.81H71.8173H71.8246H71.8319H71.8392H71.8465H71.8538H71.8612H71.8685H71.8759H71.8832H71.8906H71.898H71.9054H71.9128H71.9202H71.9276H71.935H71.9424H71.9498H71.9573H71.9647H71.9722H71.9796H71.9871H71.9946H72.0021H72.0096H72.0171H72.0246H72.0321H72.0396H72.0471H72.0547H72.0622H72.0698H72.0773H72.0849H72.0925H72.1001H72.1077H72.1153H72.1229H72.1305H72.1381H72.1457H72.1534H72.161H72.1686H72.1763H72.184H72.1916H72.1993H72.207H72.2147H72.2224H72.2301H72.2378H72.2455H72.2532H72.261H72.2687H72.2765H72.2842H72.292H72.2997H72.3075H72.3153H72.3231H72.3309H72.3387H72.3465H72.3543H72.3621H72.3699H72.3778H72.3856H72.3935H72.4013H72.4092H72.417H72.4249H72.4328H72.4407H72.4486H72.4565H72.4644H72.4723H72.4802H72.4881H72.4961H72.504H72.5119H72.5199H72.5278H72.5358H72.5438H72.5517H72.5597H72.5677H72.5757H72.5837H72.5917H72.5997H72.6077H72.6157H72.6238H72.6318H72.6398H72.6479H72.6559H72.664H72.6721H72.6801H72.6882H72.6963H72.7044H72.7125H72.7206H72.7287H72.7368H72.7449H72.753H72.7611H72.7693H72.7774H72.7855H72.7937H72.8018H72.81H72.8182H72.8263H72.8345H72.8427H72.8509H72.8591H72.8672H72.8755H72.8837H72.8919H72.9001H72.9083H72.9165H72.9248H72.933H72.9412H72.9495H72.9578H72.966H72.9743H72.9825H72.9908H72.9991C74.3664 66.5879 75.5451 65.6262 75.8196 64.287C76.1855 62.5018 74.8217 60.8301 72.9993 60.8301H71.8781C70.7735 60.8301 69.8781 59.9346 69.8781 58.8301C69.8781 57.7255 70.7735 56.8301 71.8781 56.8301H72.9993C73.1906 56.8301 73.3796 56.8378 73.5664 56.8529C73.6652 56.8379 73.7663 56.8301 73.8693 56.8301H73.8707H73.872H73.8733H73.8747H73.876H73.8774H73.8787H73.8801H73.8814H73.8828H73.8841H73.8855H73.8869H73.8882H73.8896H73.891H73.8924H73.8937H73.8951H73.8965H73.8979H73.8993H73.9007H73.9021H73.9035H73.9049H73.9063H73.9077H73.9091H73.9105H73.9119H73.9133H73.9147H73.9161H73.9176H73.919H73.9204H73.9218H73.9233H73.9247H73.9261H73.9276H73.929H73.9305H73.9319H73.9334H73.9348H73.9363H73.9377H73.9392H73.9407H73.9421H73.9436H73.9451H73.9465H73.948H73.9495H73.951H73.9524H73.9539H73.9554H73.9569H73.9584H73.9599H73.9614H73.9629H73.9644H73.9659H73.9674H73.9689H73.9704H73.9719H73.9734H73.975H73.9765H73.978H73.9795H73.9811H73.9826H73.9841H73.9857H73.9872H73.9888H73.9903H73.9918H73.9934H73.9949H73.9965H73.9981H73.9996H74.0012H74.0027H74.0043H74.0059H74.0075H74.009H74.0106H74.0122H74.0138H74.0153H74.0169H74.0185H74.0201H74.0217H74.0233H74.0249H74.0265H74.0281H74.0297H74.0313H74.0329H74.0345H74.0361H74.0378H74.0394H74.041H74.0426H74.0443H74.0459H74.0475H74.0492H74.0508H74.0524H74.0541H74.0557H74.0574H74.059H74.0607H74.0623H74.064H74.0656H74.0673H74.069H74.0706H74.0723H74.074H74.0756H74.0773H74.079H74.0807H74.0823H74.084H74.0857H74.0874H74.0891H74.0908H74.0925H74.0942H74.0959H74.0976H74.0993H74.101H74.1027H74.1044H74.1062H74.1079H74.1096H74.1113H74.113H74.1148H74.1165H74.1182H74.12H74.1217H74.1234H74.1252H74.1269H74.1287H74.1304H74.1322H74.1339H74.1357H74.1374H74.1392H74.141H74.1427H74.1445H74.1463H74.148H74.1498H74.1516H74.1534H74.1551H74.1569H74.1587H74.1605H74.1623H74.1641H74.1659H74.1677H74.1695H74.1713H74.1731H74.1749H74.1767H74.1785H74.1803H74.1821H74.184H74.1858H74.1876H74.1894H74.1913H74.1931H74.1949H74.1968H74.1986H74.2004H74.2023H74.2041H74.206H74.2078H74.2097H74.2115H74.2134H74.2152H74.2171H74.2189H74.2208H74.2227H74.2245H74.2264H74.2283H74.2302H74.232H74.2339H74.2358H74.2377H74.2396H74.2415H74.2434H74.2453H74.2471H74.249H74.2509H74.2528H74.2548H74.2567H74.2586H74.2605H74.2624H74.2643H74.2662H74.2682H74.2701H74.272H74.2739H74.2759H74.2778H74.2797H74.2817H74.2836H74.2855H74.2875H74.2894H74.2914H74.2933H74.2953H74.2972H74.2992H74.3011H74.3031H74.3051H74.307H74.309H74.311H74.3129H74.3149H74.3169H74.3189H74.3209H74.3228H74.3248H74.3268H74.3288H74.3308H74.3328H74.3348H74.3368H74.3388H74.3408H74.3428H74.3448H74.3468H74.3488H74.3508H74.3528H74.3549H74.3569H74.3589H74.3609H74.363H74.365H74.367H74.369H74.3711H74.3731H74.3752H74.3772H74.3792H74.3813H74.3833H74.3854H74.3874H74.3895H74.3916H74.3936H74.3957H74.3977H74.3998H74.4019H74.4039H74.406H74.4081H74.4102H74.4122H74.4143H74.4164H74.4185H74.4206H74.4227H74.4248H74.4268H74.4289H74.431H74.4331H74.4352H74.4373H74.4395H74.4416H74.4437H74.4458H74.4479H74.45H74.4521H74.4543H74.4564H74.4585H74.4606H74.4628H74.4649H74.467H74.4692H74.4713H74.4734H74.4756H74.4777H74.4799H74.482H74.4842H74.4863H74.4885H74.4906H74.4928H74.495H74.4971H74.4993H74.5014H74.5036H74.5058H74.508H74.5101H74.5123H74.5145H74.5167H74.5189H74.521H74.5232H74.5254H74.5276H74.5298H74.532H74.5342H74.5364H74.5386H74.5408H74.543H74.5452H74.5474H74.5497H74.5519H74.5541H74.5563H74.5585H74.5607H74.563H74.5652H74.5674H74.5697H74.5719H74.5741H74.5764H74.5786H74.5808H74.5831H74.5853H74.5876H74.5898H74.5921H74.5943H74.5966H74.5988H74.6011H74.6034H74.6056H74.6079H74.6102H74.6124H74.6147H74.617H74.6193H74.6215H74.6238H74.6261H74.6284H74.6307H74.6329H74.6352H74.6375H74.6398H74.6421H74.6444H74.6467H74.649H74.6513H74.6536H74.6559H74.6582H74.6606H74.6629H74.6652H74.6675H74.6698H74.6721H74.6745H74.6768H74.6791H74.6814H74.6838H74.6861H74.6884H74.6908H74.6931H74.6955H74.6978H74.7001H74.7025H74.7048H74.7072H74.7095H74.7119H74.7143H74.7166H74.719H74.7213H74.7237H74.7261H74.7284H74.7308H74.7332H74.7356H74.7379H74.7403H74.7427H74.7451H74.7475H74.7498H74.7522H74.7546H74.757H74.7594H74.7618H74.7642H74.7666H74.769H74.7714H74.7738H74.7762H74.7786H74.781H74.7834H74.7859H74.7883H74.7907H74.7931H74.7955H74.798H74.8004H74.8028H74.8052H74.8077H74.8101H74.8125H74.815H74.8174H74.8199H74.8223H74.8248H74.8272H74.8297H74.8321H74.8346H74.837H74.8395H74.8419H74.8444H74.8468H74.8493H74.8518H74.8542H74.8567H74.8592C76.3923 56.8301 77.6567 55.6288 77.7351 54.0985C77.8194 52.4528 76.5078 51.0723 74.86 51.0723H74.8595H74.8545H74.8495H74.8445H74.8395H74.8345H74.8295H74.8246H74.8196H74.8146H74.8097H74.8047H74.7997H74.7948H74.7899H74.7849H74.78H74.7751H74.7701H74.7652H74.7603H74.7554H74.7505H74.7456H74.7407H74.7358H74.731H74.7261H74.7212H74.7164H74.7115H74.7067H74.7018H74.697H74.6921H74.6873H74.6825H74.6777H74.6728H74.668H74.6632H74.6584H74.6536H74.6489H74.6441H74.6393H74.6345H74.6298H74.625H74.6203H74.6155H74.6108H74.606H74.6013H74.5966H74.5918H74.5871H74.5824H74.5777H74.573H74.5683H74.5636H74.5589H74.5542H74.5496H74.5449H74.5402H74.5356H74.5309H74.5263H74.5216H74.517H74.5124H74.5077H74.5031H74.4985H74.4939H74.4893H74.4847H74.4801H74.4755H74.4709H74.4663H74.4618H74.4572H74.4526H74.4481H74.4435H74.439H74.4344H74.4299H74.4254H74.4208H74.4163H74.4118H74.4073H74.4028H74.3983H74.3938H74.3893H74.3848H74.3803H74.3759H74.3714H74.3669H74.3625H74.358H74.3536H74.3491H74.3447H74.3403H74.3358H74.3314H74.327H74.3226H74.3182H74.3138H74.3094H74.305H74.3006H74.2962H74.2919H74.2875H74.2831H74.2788H74.2744H74.2701H74.2657H74.2614H74.257H74.2527H74.2484H74.2441H74.2398H74.2355H74.2312H74.2269H74.2226H74.2183H74.214H74.2097H74.2054H74.2012H74.1969H74.1927H74.1884H74.1842H74.1799H74.1757H74.1715H74.1672H74.163H74.1588H74.1546H74.1504H74.1462H74.142H74.1378H74.1336H74.1294H74.1253H74.1211H74.1169H74.1128H74.1086H74.1045H74.1003H74.0962H74.0921H74.0879H74.0838H74.0797H74.0756H74.0715H74.0674H74.0633H74.0592H74.0551H74.051H74.0469H74.0429H74.0388H74.0347H74.0307H74.0266H74.0226H74.0185H74.0145H74.0105H74.0065H74.0024H73.9984H73.9944H73.9904H73.9864H73.9824H73.9784H73.9744H73.9704H73.9665H73.9625H73.9585H73.9546H73.9506H73.9467H73.9427H73.9388H73.9349H73.9309H73.927H73.9231H73.9192H73.9153H73.9113H73.9074H73.9035H73.8997H73.8958H73.8919H73.888H73.8842H73.8803H73.8764H73.8726H73.8687H73.8649H73.861H73.8572H73.8534H73.8495H73.8457H73.8419H73.8381H73.8343H73.8305H73.8267H73.8229H73.8191H73.8153H73.8116H73.8078H73.804H73.8003H73.7965H73.7928H73.789H73.7853H73.7815H73.7778H73.7741H73.7704H73.7666H73.7629H73.7592H73.7555H73.7518H73.7481H73.7445H73.7408H73.7371H73.7334H73.7298H73.7261H73.7224H73.7188H73.7151H73.7115H73.7079H73.7042H73.7006H73.697H73.6934H73.3693C72.2647 51.0723 71.3693 50.1768 71.3693 49.0723C71.3693 47.9677 72.2647 47.0723 73.3693 47.0723H73.6934H73.697H73.7006H73.7042H73.7079H73.7115H73.7151H73.7188H73.7224H73.7261H73.7298H73.7334H73.7371H73.7408H73.7445H73.7481H73.7518H73.7555H73.7592H73.7629H73.7666H73.7704H73.7741H73.7778H73.7815H73.7853H73.789H73.7928H73.7965H73.8003H73.804H73.8078H73.8116H73.8153H73.8191H73.8229H73.8267H73.8305H73.8343H73.8381H73.8419H73.8457H73.8495H73.8534H73.8572H73.861H73.8649H73.8687H73.8726H73.8764H73.8803H73.8842H73.888H73.8919H73.8958H73.8997H73.9035H73.9074H73.9113H73.9153H73.9192H73.9231H73.927H73.9309H73.9349H73.9388H73.9427H73.9467H73.9506H73.9546H73.9585H73.9625H73.9665H73.9704H73.9744H73.9784H73.9824H73.9864H73.9904H73.9944H73.9984H74.0024H74.0065H74.0105H74.0145H74.0185H74.0226H74.0266H74.0307H74.0347H74.0388H74.0429H74.0469H74.051H74.0551H74.0592H74.0633H74.0674H74.0715H74.0756H74.0797H74.0838H74.0879H74.0921H74.0962H74.1003H74.1045H74.1086H74.1128H74.1169H74.1211H74.1253H74.1294H74.1336H74.1378H74.142H74.1462H74.1504H74.1546H74.1588H74.163H74.1672H74.1715H74.1757H74.1799H74.1842H74.1884H74.1927H74.1969H74.2012H74.2054H74.2097H74.214H74.2183H74.2226H74.2269H74.2312H74.2355H74.2398H74.2441H74.2484H74.2527H74.257H74.2614H74.2657H74.2701H74.2744H74.2788H74.2831H74.2875H74.2919H74.2962H74.3006H74.305H74.3094H74.3138H74.3182H74.3226H74.327H74.3314H74.3358H74.3403H74.3447H74.3491H74.3536H74.358H74.3625H74.3669H74.3714H74.3759H74.3803H74.3848H74.3893H74.3938H74.3983H74.4028H74.4073H74.4118H74.4163H74.4208H74.4254H74.4299H74.4344H74.439H74.4435H74.4481H74.4526H74.4572H74.4618H74.4663H74.4709H74.4755H74.4801H74.4847H74.4893H74.4939H74.4985H74.5031H74.5077H74.5124H74.517H74.5216H74.5263H74.5309H74.5356H74.5402H74.5449H74.5496H74.5542H74.5589H74.5636H74.5683H74.573H74.5777H74.5824H74.5871H74.5918H74.5966H74.6013H74.606H74.6108H74.6155H74.6203H74.625H74.6298H74.6345H74.6393H74.6441H74.6489H74.6536H74.6584H74.6632H74.668H74.6728H74.6777H74.6825H74.6873H74.6921H74.697H74.7018H74.7067H74.7115H74.7164H74.7212H74.7261H74.731H74.7358H74.7407H74.7456H74.7505H74.7554H74.7603H74.7652H74.7701H74.7751H74.78H74.7849H74.7899H74.7948H74.7997H74.8047H74.8097H74.8146H74.8196H74.8246H74.8295H74.8345H74.8395H74.8445H74.8495H74.8545H74.8595H74.86H74.8646H74.8696H74.8746H74.8797H74.8847H74.8897H74.8948H74.8999H74.9049H74.91H74.9151H74.9201H74.9252H74.9303H74.9354H74.9405H74.9456H74.9507H74.9558H74.961H74.9661H74.9712H74.9764H74.9815H74.9867H74.9918H74.997H75.0021H75.0073H75.0125H75.0177H75.0229H75.0281H75.0333H75.0385H75.0437H75.0489H75.0541H75.0593H75.0646H75.0698H75.0751H75.0803H75.0856H75.0908H75.0961H75.1014H75.1066H75.1119H75.1172H75.1225H75.1278H75.1331H75.1384H75.1437H75.1491H75.1544H75.1597H75.1651H75.1704H75.1757H75.1811H75.1865H75.1918H75.1972H75.2026H75.208H75.2133H75.2187H75.2241H75.2295H75.235H75.2404H75.2458H75.2512H75.2567H75.2621H75.2675H75.273H75.2784H75.2839H75.2894H75.2948H75.3003H75.3058H75.3113H75.3168H75.3223H75.3278H75.3333H75.3388H75.3443H75.3499H75.3554H75.361H75.3665H75.372H75.3776H75.3832H75.3887H75.3943H75.3999H75.4055H75.4111H75.4167H75.4223H75.4279H75.4335H75.4391H75.4447H75.4504H75.456H75.4616H75.4673H75.4729H75.4786H75.4843H75.4899H75.4956H75.5013H75.507H75.5127H75.5184H75.5241H75.5298H75.5355H75.5412H75.5469H75.5527H75.5584H75.5642H75.5699H75.5757H75.5814H75.5872H75.593H75.5987H75.6045H75.6103H75.6161H75.6219H75.6277H75.6335H75.6394H75.6452H75.651H75.6568H75.6627H75.6685H75.6744H75.6803H75.6861H75.692H75.6979H75.7037H75.7096H75.7155H75.7214H75.7273H75.7332H75.7392H75.7451H75.751H75.7569H75.7629H75.7688H75.7748H75.7807H75.7867H75.7927H75.7986H75.8046H75.8106H75.8166H75.8226H75.8286H75.8346H75.8406H75.8466H75.8527H75.8587H75.8647H75.8708H75.8768H75.8829H75.889H75.895H75.9011H75.9072H75.9133H75.9193H75.9254H75.9315H75.9377H75.9438H75.9499H75.956H75.9621H75.9683H75.9744H75.9806H75.9867H75.9929H75.9991H76.0052H76.0114H76.0176H76.0238H76.03H76.0362H76.0424H76.0486H76.0548H76.0611H76.0673H76.0735H76.0798H76.086H76.0923H76.0985H76.1048H76.1111H76.1173H76.1236H76.1299H76.1362H76.1425H76.1488H76.1551H76.1615H76.1678H76.1741H76.1805H76.1868H76.1931H76.1995H76.2059H76.2122H76.2186H76.225H76.2314C77.7644 47.0723 79.0286 45.8711 79.107 44.3407C79.1913 42.695 77.8797 41.3145 76.2319 41.3145H59.8592C57.219 41.3145 55.3353 38.7553 56.1199 36.2344L57.2994 32.4445C58.2979 29.2363 58.9386 25.9276 59.2097 22.5786L59.3757 20.528C59.5013 18.9767 58.2763 17.6484 56.7199 17.6484C55.693 17.6484 54.7574 18.2386 54.3151 19.1655L48.7895 30.7455C48.2414 31.894 47.6098 33.0007 46.8997 34.0567L45.8042 35.6859C42.4212 40.7169 36.9072 43.8675 30.9054 44.2625L30.9054 71.3086C32.3435 71.5819 33.7588 71.9766 35.1358 72.4901L41.7734 74.9651C44.2324 75.882 46.8355 76.3516 49.4599 76.3516ZM26.9054 70.8656L26.9054 44.3047H23.6309C21.974 44.3047 20.6309 45.6478 20.6309 47.3047V67.8516C20.6309 69.5084 21.974 70.8516 23.6309 70.8516H26.0519C26.3366 70.8516 26.6212 70.8562 26.9054 70.8656Z" fill="var(--spectrum-global-color-gray-800, #292929)"/>
</svg>
