<svg width="48" height="48" viewBox="0 0 48 48" fill="none" xmlns="http://www.w3.org/2000/svg">
<path fill-rule="evenodd" clip-rule="evenodd" d="M14.0233 8.77344C11.1238 8.77344 8.77332 11.1239 8.77332 14.0234V33.9766C8.77332 36.8761 11.1238 39.2266 14.0233 39.2266H33.9764C36.8759 39.2266 39.2264 36.8761 39.2264 33.9766V20.8722L39.2266 20.855L39.2264 20.8377V14.0234C39.2264 11.1239 36.8759 8.77344 33.9764 8.77344H14.0233ZM36.7264 33.8658L33.482 29.0597C32.2944 27.289 29.6918 27.2935 28.5043 29.0599L28.499 29.0677L28.499 29.0677L25.8497 33.0734L20.9838 25.5574L19.9341 26.2361L20.9834 25.5568C19.8028 23.7317 17.1295 23.7319 15.9492 25.5574L15.9495 25.5568L16.9989 26.2361L15.9492 25.5574L11.2733 32.7812V22.105H36.7264V33.8658ZM23.4334 36.7266L24.3446 35.3489L18.8848 26.9154L18.8845 26.9148C18.6891 26.6126 18.2439 26.6126 18.0485 26.9148L18.0482 26.9153L12.1653 36.004C12.6547 36.4527 13.307 36.7266 14.0233 36.7266H23.4334ZM26.4308 36.7266L30.5808 30.452C30.7811 30.1581 31.212 30.1628 31.4061 30.4527L31.4088 30.4567L35.3812 36.3412C34.97 36.586 34.4897 36.7266 33.9764 36.7266H26.4308ZM11.2733 19.605H36.7264V14.0234C36.7264 12.5047 35.4952 11.2734 33.9764 11.2734H14.0233C12.5045 11.2734 11.2733 12.5047 11.2733 14.0234V19.605ZM13.3842 15.439C13.3843 14.7487 13.944 14.1891 14.6343 14.1892L33.4013 14.1917C34.0917 14.1918 34.6512 14.7515 34.6511 15.4419C34.6511 16.1322 34.0913 16.6918 33.401 16.6917L14.634 16.6892C13.9436 16.6891 13.3841 16.1294 13.3842 15.439ZM32.2147 24.8119C32.2147 25.7784 32.9982 26.5619 33.9647 26.5619C34.9312 26.5619 35.7147 25.7784 35.7147 24.8119C35.7147 23.8454 34.9312 23.0619 33.9647 23.0619C32.9982 23.0619 32.2147 23.8454 32.2147 24.8119Z" fill="var(--spectrum-global-color-gray-800, #292929)"/>
</svg>
