<svg width="96" height="96" viewBox="0 0 96 96" xmlns="http://www.w3.org/2000/svg">
<path fill-rule="evenodd" d="M42.0002 10.1547C45.713 8.0111 50.2874 8.0111 54.0002 10.1547L77.3422 23.6312C81.055 25.7748 83.3422 29.7363 83.3422 34.0235V60.9765C83.3422 65.2637 81.055 69.2252 77.3422 71.3688L54.0002 84.8453C50.2874 86.9889 45.713 86.9889 42.0002 84.8453L18.6582 71.3688C14.9454 69.2252 12.6582 65.2637 12.6582 60.9765V34.0235C12.6582 29.7363 14.9454 25.7748 18.6582 23.6312L42.0002 10.1547ZM52.0002 13.6188C49.525 12.1897 46.4754 12.1897 44.0002 13.6188L20.6582 27.0953C18.183 28.5244 16.6582 31.1654 16.6582 34.0235V60.9765C16.6582 63.8346 18.183 66.4756 20.6582 67.9047L44.0002 81.3812C46.4754 82.8102 49.525 82.8102 52.0002 81.3812L75.3422 67.9047C77.8174 66.4756 79.3422 63.8346 79.3422 60.9765V34.0235C79.3422 31.1654 77.8174 28.5244 75.3422 27.0953L52.0002 13.6188ZM48.0002 28.7998C49.1047 28.7998 50.0002 29.6952 50.0002 30.7998V52.9998C50.0002 54.1044 49.1047 54.9998 48.0002 54.9998C46.8956 54.9998 46.0002 54.1044 46.0002 52.9998V30.7998C46.0002 29.6952 46.8956 28.7998 48.0002 28.7998ZM51.0002 63.2798C51.0002 64.9366 49.657 66.2798 48.0002 66.2798C46.3433 66.2798 45.0002 64.9366 45.0002 63.2798C45.0002 61.6229 46.3433 60.2798 48.0002 60.2798C49.657 60.2798 51.0002 61.6229 51.0002 63.2798Z" fill="var(--spectrum-global-color-gray-800, #292929)"/>
</svg>
