<svg width="160" height="160" viewBox="0 0 160 160" xmlns="http://www.w3.org/2000/svg">
<path fill-rule="evenodd" d="M28 80C28 51.2812 51.2812 28 80 28C108.719 28 132 51.2812 132 80C132 108.719 108.719 132 80 132C51.2812 132 28 108.719 28 80ZM80 20C46.8629 20 20 46.8629 20 80C20 113.137 46.8629 140 80 140C113.137 140 140 113.137 140 80C140 46.8629 113.137 20 80 20ZM107.694 67.9563C109.327 66.4682 109.444 63.9383 107.956 62.3055C106.468 60.6728 103.938 60.5556 102.306 62.0437L85.6271 77.2448L74.4504 87.4316L72.1157 89.5595L58.7281 77.0747C57.1125 75.568 54.5813 75.6563 53.0747 77.2719C51.568 78.8875 51.6563 81.4187 53.2719 82.9253L69.3565 97.9253C70.8802 99.3462 73.2393 99.3597 74.7791 97.9563L72.0846 95C74.7791 97.9563 74.7792 97.9562 74.7795 97.956L74.7806 97.955L74.785 97.951L74.8025 97.935L74.8718 97.8718L75.1423 97.6253L76.1693 96.6893L79.8394 93.3443L91.0161 83.1575L107.694 67.9563Z" fill="var(--spectrum-global-color-gray-800, #292929)"/>
</svg>
