<svg width="160" height="160" viewBox="0 0 160 160" xmlns="http://www.w3.org/2000/svg">
<path fill-rule="evenodd" d="M19.1716 51.8284C17.6095 50.2663 17.6095 47.7337 19.1716 46.1716L42.1716 23.1716C43.7337 21.6095 46.2663 21.6095 47.8284 23.1716C49.3905 24.7337 49.3905 27.2663 47.8284 28.8284L31.3191 45.3378H135.768C137.977 45.3378 139.768 47.1286 139.768 49.3378C139.768 51.5469 137.977 53.3378 135.768 53.3378H31.9946L47.8284 69.1716C49.3905 70.7337 49.3905 73.2663 47.8284 74.8284C46.2663 76.3905 43.7337 76.3905 42.1716 74.8284L19.1716 51.8284ZM117.596 85.6726L140.596 108.673C142.158 110.235 142.158 112.767 140.596 114.329L117.596 137.329C116.034 138.892 113.501 138.892 111.939 137.329C110.377 135.767 110.377 133.235 111.939 131.673L127.773 115.839H24C21.7909 115.839 20 114.048 20 111.839C20 109.63 21.7909 107.839 24 107.839H128.448L111.939 91.3294C110.377 89.7673 110.377 87.2347 111.939 85.6726C113.501 84.1105 116.034 84.1105 117.596 85.6726Z" fill="var(--spectrum-global-color-gray-800, #292929)"/>
</svg>
