<svg width="48" height="48" viewBox="0 0 48 48" xmlns="http://www.w3.org/2000/svg">
<path fill-rule="evenodd" d="M8.25 23.74C8.25 15.0415 15.3015 7.99001 24 7.99001C32.6985 7.99001 39.75 15.0415 39.75 23.74C39.75 32.4385 32.6985 39.49 24 39.49C15.3015 39.49 8.25 32.4385 8.25 23.74ZM24 5.49001C13.9208 5.49001 5.75 13.6608 5.75 23.74C5.75 33.8192 13.9208 41.99 24 41.99C34.0792 41.99 42.25 33.8192 42.25 23.74C42.25 13.6608 34.0792 5.49001 24 5.49001ZM21.8866 17.9229L29.3763 22.5862C30.2091 23.1047 30.2076 24.3983 29.3737 24.9147L21.8737 29.5587C21.0398 30.0751 19.9989 29.4269 20 28.3921L20.0103 19.0847C20.0115 18.0499 21.0539 17.4044 21.8866 17.9229Z" fill="var(--spectrum-global-color-gray-800, #292929)"/>
</svg>
