<svg width="48" height="48" viewBox="0 0 48 48" xmlns="http://www.w3.org/2000/svg">
<path fill-rule="evenodd" d="M37 10.25C38.5188 10.25 39.75 11.4812 39.75 13V17.77H8.25V13C8.25 11.4812 9.48122 10.25 11 10.25H37ZM8.25 20.27H39.75V35C39.75 36.5188 38.5188 37.75 37 37.75H11C9.48122 37.75 8.25 36.5188 8.25 35V20.27ZM42.25 13C42.25 10.1005 39.8995 7.75 37 7.75H11C8.10051 7.75 5.75 10.1005 5.75 13V35C5.75 37.8995 8.10051 40.25 11 40.25H37C39.8995 40.25 42.25 37.8995 42.25 35V13ZM35.5 15.5C34.6716 15.5 34 14.8284 34 14C34 13.1716 34.6716 12.5 35.5 12.5C36.3284 12.5 37 13.1716 37 14C37 14.8284 36.3284 15.5 35.5 15.5Z" fill="var(--spectrum-global-color-gray-800, #292929)"/>
</svg>
