<svg width="48" height="48" viewBox="0 0 48 48" xmlns="http://www.w3.org/2000/svg">
<path fill-rule="evenodd" d="M13.123 7.875C10.2236 7.875 7.87305 10.2255 7.87305 13.125V30.497C7.87305 33.3965 10.2236 35.747 13.123 35.747H17.9712L21.4898 40.0288C22.7899 41.611 25.2116 41.611 26.5117 40.0288L30.0303 35.747H34.8784C37.7779 35.747 40.1284 33.3965 40.1284 30.497V13.125C40.1284 10.2255 37.7779 7.875 34.8784 7.875H13.123ZM10.373 13.125C10.373 11.6062 11.6043 10.375 13.123 10.375H34.8784C36.3972 10.375 37.6284 11.6062 37.6284 13.125V30.497C37.6284 32.0158 36.3972 33.247 34.8784 33.247H29.4396C29.0656 33.247 28.7113 33.4144 28.4738 33.7034L24.5802 38.4416C24.2802 38.8067 23.7213 38.8067 23.4213 38.4416L19.5276 33.7034C19.2902 33.4144 18.9359 33.247 18.5619 33.247H13.123C11.6043 33.247 10.373 32.0158 10.373 30.497V13.125ZM24.0007 12.1924C24.6911 12.1924 25.2507 12.752 25.2507 13.4424V24.5474C25.2507 25.2377 24.6911 25.7974 24.0007 25.7974C23.3104 25.7974 22.7507 25.2377 22.7507 24.5474V13.4424C22.7507 12.752 23.3104 12.1924 24.0007 12.1924ZM24.0007 31.4326C24.9672 31.4326 25.7507 30.6491 25.7507 29.6826C25.7507 28.7161 24.9672 27.9326 24.0007 27.9326C23.0342 27.9326 22.2507 28.7161 22.2507 29.6826C22.2507 30.6491 23.0342 31.4326 24.0007 31.4326Z" fill="var(--spectrum-global-color-gray-800, #292929)"/>
</svg>
