<svg width="48" height="48" viewBox="0 0 48 48" xmlns="http://www.w3.org/2000/svg">
<path fill-rule="evenodd" d="M11.6294 11.813C9.79752 11.813 8.3125 13.298 8.3125 15.1299V29.1159C8.3125 29.3092 8.32904 29.4987 8.36077 29.6829L14.2824 20.5044C15.5216 18.5837 18.3409 18.6147 19.5376 20.5621L24.2815 28.2827L26.9909 24.1485C28.2309 22.2566 31.0128 22.2827 32.2169 24.1976L34.5365 27.8863L34.5376 27.8881L35.9242 30.0851C36.0177 29.7786 36.0681 29.4531 36.0681 29.1159V15.1299C36.0681 13.298 34.583 11.813 32.7512 11.813H11.6294ZM34.2304 32.0855L32.4223 29.2206L32.4213 29.2189L30.1006 25.5284C29.8659 25.1552 29.3236 25.1501 29.0819 25.5189L24.5508 32.4328H32.7512C33.2827 32.4328 33.7851 32.3078 34.2304 32.0855ZM21.5617 32.4328L22.7672 30.5935L17.4075 21.8709C17.1743 21.4913 16.6247 21.4853 16.3832 21.8597L9.88235 31.936C10.3897 32.2509 10.9883 32.4328 11.6294 32.4328H21.5617ZM5.8125 15.1299C5.8125 11.9173 8.4168 9.31299 11.6294 9.31299H32.7512C35.9638 9.31299 38.5681 11.9173 38.5681 15.1299V29.1159C38.5681 32.3285 35.9638 34.9328 32.7512 34.9328H11.6294C8.4168 34.9328 5.8125 32.3285 5.8125 29.1159V15.1299ZM30.0391 19.8672C31.4198 19.8672 32.5391 18.7479 32.5391 17.3672C32.5391 15.9865 31.4198 14.8672 30.0391 14.8672C28.6584 14.8672 27.5391 15.9865 27.5391 17.3672C27.5391 18.7479 28.6584 19.8672 30.0391 19.8672ZM42.8692 20.4189C42.8692 19.7286 42.3096 19.1689 41.6192 19.1689C40.9289 19.1689 40.3692 19.7286 40.3692 20.4189V31.9789C40.3692 34.4413 38.373 36.4374 35.9106 36.4374H17.0723C16.3819 36.4374 15.8223 36.9971 15.8223 37.6874C15.8223 38.3778 16.3819 38.9374 17.0723 38.9374H35.9106C39.7538 38.9374 42.8692 35.822 42.8692 31.9789V20.4189Z" fill="var(--spectrum-global-color-gray-800, #292929)"/>
</svg>
