<svg width="96" height="96" viewBox="0 0 96 96" xmlns="http://www.w3.org/2000/svg">
<path fill-rule="evenodd" d="M44.9119 14.4921C46.8593 13.2787 49.3298 13.2787 51.2772 14.4921L51.2857 14.4974L78.9252 31.9115C79.5583 32.2472 79.9895 32.913 79.9895 33.6796V69.9496C79.9895 75.4741 75.5141 79.9496 69.9895 79.9496H26.0195C20.495 79.9496 16.0195 75.4741 16.0195 69.9496L16.0195 33.6765C16.0203 33.1891 16.1953 32.7426 16.4857 32.3959C16.564 32.3024 16.6511 32.2157 16.7463 32.1371C16.8219 32.0747 16.9021 32.0177 16.9863 31.9668L44.9119 14.4921ZM47.0285 17.8862L47.0272 17.887L21.7806 33.6853L29.8105 38.7445V35.8495C29.8105 32.5349 32.496 29.8495 35.8105 29.8495H60.2005C63.5151 29.8495 66.2005 32.5349 66.2005 35.8495V38.691L74.2185 33.6738L49.1619 17.887L49.1583 17.8848C48.5067 17.4806 47.6797 17.4811 47.0285 17.8862ZM62.2005 41.1941V35.8495C62.2005 34.7441 61.306 33.8495 60.2005 33.8495H35.8105C34.7051 33.8495 33.8105 34.7441 33.8105 35.8495V41.2647L46.8372 49.4721L46.8405 49.4741C47.4925 49.8786 48.3201 49.878 48.9716 49.4722L62.2005 41.1941ZM51.0872 52.867L75.9895 37.2841V69.9496C75.9895 73.265 73.305 75.9496 69.9895 75.9496H26.0195C22.7041 75.9496 20.0195 73.265 20.0195 69.9496V37.3035L44.7134 52.8617L44.7219 52.867C46.6693 54.0804 49.1398 54.0804 51.0872 52.867Z" fill="var(--spectrum-global-color-gray-800, #292929)"/>
</svg>
