<svg width="160" height="160" viewBox="0 0 160 160" xmlns="http://www.w3.org/2000/svg">
<path fill-rule="evenodd" d="M78.4696 43.6672C79.4489 43.262 80.549 43.262 81.5284 43.6672L127.426 62.6592C130.72 64.0223 130.72 68.6883 127.426 70.0514L81.5284 89.0434C80.549 89.4487 79.4489 89.4487 78.4696 89.0434L68.2925 84.8322C66.2512 83.9876 63.9117 84.9576 63.067 86.9989C62.2224 89.0402 63.1924 91.3797 65.2337 92.2244L75.4108 96.4355C78.3488 97.6513 81.6492 97.6513 84.5872 96.4355L117.473 82.8275V98.6129C117.473 100.217 117.044 102.956 114.995 106.007C112.955 109.046 109.151 112.626 102.04 115.674C96.6166 117.998 90.0065 119.011 83.8102 119.241C77.6269 119.471 72.1913 118.911 69.2843 118.313C67.1206 117.867 65.0054 119.26 64.5599 121.424C64.1144 123.588 65.5074 125.703 67.6711 126.148C71.2926 126.894 77.3778 127.486 84.1074 127.236C90.8239 126.986 98.5188 125.887 105.192 123.027C113.472 119.478 118.597 114.994 121.637 110.466C124.67 105.949 125.473 101.618 125.473 98.6129V79.5171L130.485 77.4435C140.367 73.3543 140.367 59.3564 130.485 55.2671L84.5872 36.2751C81.6492 35.0593 78.3488 35.0593 75.4108 36.2751L29.5133 55.2671C19.631 59.3564 19.631 73.3543 29.5133 77.4435L34.8168 79.6381C36.8581 80.4827 39.1976 79.5127 40.0423 77.4714C40.887 75.4301 39.9169 73.0906 37.8756 72.2459L32.5722 70.0514C29.278 68.6883 29.278 64.0223 32.5722 62.6592L78.4696 43.6672ZM81.9415 67.5487C83.8726 66.4759 84.5684 64.0407 83.4955 62.1095C82.4227 60.1784 79.9875 59.4826 78.0563 60.5555L51.0651 75.5506C47.2555 77.6671 44.8928 81.6825 44.8928 86.0405V119.609C42.4981 124.491 40.1558 130.512 39.7342 135.622C39.6957 135.954 39.676 136.291 39.676 136.633C39.676 141.723 44.0603 145.85 49.4686 145.85C54.877 145.85 59.2613 141.723 59.2613 136.633C59.2613 136.208 59.2308 135.79 59.1717 135.381C58.6048 130.006 55.71 123.669 52.8928 118.718V86.0405C52.8928 84.5878 53.6803 83.2494 54.9502 82.5439L81.9415 67.5487Z" fill="var(--spectrum-global-color-gray-800, #292929)"/>
</svg>
