<svg width="96" height="96" viewBox="0 0 96 96" xmlns="http://www.w3.org/2000/svg">
<path fill-rule="evenodd" d="M16.21 15.09C16.21 13.9855 15.3145 13.09 14.21 13.09C13.1054 13.09 12.21 13.9855 12.21 15.09V82C12.21 83.1046 13.1054 84 14.21 84H81C82.1045 84 83 83.1046 83 82C83 80.8955 82.1045 80 81 80H16.21V15.09ZM25.3203 46.23C25.3203 45.1254 26.2157 44.23 27.3203 44.23H30.8603C31.9649 44.23 32.8603 45.1254 32.8603 46.23V68.77C32.8603 69.8746 31.9649 70.77 30.8603 70.77H27.3203C26.2157 70.77 25.3203 69.8746 25.3203 68.77V46.23ZM27.3203 40.23C24.0066 40.23 21.3203 42.9163 21.3203 46.23V68.77C21.3203 72.0837 24.0066 74.77 27.3203 74.77H30.8603C34.174 74.77 36.8603 72.0837 36.8603 68.77V46.23C36.8603 42.9163 34.174 40.23 30.8603 40.23H27.3203ZM68.8506 58.62C67.746 58.62 66.8506 59.5154 66.8506 60.62V68.77C66.8506 69.8746 67.746 70.77 68.8506 70.77H72.3906C73.4952 70.77 74.3906 69.8746 74.3906 68.77V60.62C74.3906 59.5154 73.4952 58.62 72.3906 58.62H68.8506ZM62.8506 60.62C62.8506 57.3063 65.5369 54.62 68.8506 54.62H72.3906C75.7043 54.62 78.3906 57.3063 78.3906 60.62V68.77C78.3906 72.0837 75.7043 74.77 72.3906 74.77H68.8506C65.5369 74.77 62.8506 72.0837 62.8506 68.77V60.62ZM46.0803 28.32C46.0803 27.2154 46.9757 26.32 48.0803 26.32H51.6203C52.7249 26.32 53.6203 27.2154 53.6203 28.32V68.77C53.6203 69.8746 52.7249 70.77 51.6203 70.77H48.0803C46.9757 70.77 46.0803 69.8746 46.0803 68.77V28.32ZM48.0803 22.32C44.7666 22.32 42.0803 25.0063 42.0803 28.32V68.77C42.0803 72.0837 44.7666 74.77 48.0803 74.77H51.6203C54.934 74.77 57.6203 72.0837 57.6203 68.77V28.32C57.6203 25.0063 54.934 22.32 51.6203 22.32H48.0803Z" fill="var(--spectrum-global-color-gray-800, #292929)"/>
</svg>
