<svg width="96" height="96" viewBox="0 0 96 96" xmlns="http://www.w3.org/2000/svg">
<path fill-rule="evenodd" d="M17 47.7402C17 30.6194 30.8792 16.7402 48 16.7402C65.1208 16.7402 79 30.6194 79 47.7402C79 64.8611 65.1208 78.7402 48 78.7402C30.8792 78.7402 17 64.8611 17 47.7402ZM48 12.7402C28.67 12.7402 13 28.4103 13 47.7402C13 67.0702 28.67 82.7402 48 82.7402C67.33 82.7402 83 67.0702 83 47.7402C83 28.4103 67.33 12.7402 48 12.7402ZM44.2246 38.6336L56.9339 45.9235C58.3573 46.7399 58.3549 48.7767 56.9295 49.5898L44.2026 56.8496C42.7772 57.6626 40.998 56.6421 41 55.0126L41.0176 40.4629C41.0195 38.8335 42.8012 37.8172 44.2246 38.6336Z" fill="var(--spectrum-global-color-gray-800, #292929)"/>
</svg>
