<svg width="96" height="96" viewBox="0 0 96 96" xmlns="http://www.w3.org/2000/svg">
<path fill-rule="evenodd" d="M21.8347 53.9241C15.3884 60.3468 15.3885 70.7632 21.8348 77.186C28.277 83.6047 38.719 83.6047 45.1613 77.186L71.8345 50.6103C72.617 49.8307 72.6193 48.5643 71.8397 47.7818C71.0601 46.9994 69.7938 46.997 69.0113 47.7767L42.338 74.3524C37.4567 79.2159 29.5394 79.2159 24.658 74.3524L23.2464 75.7692L24.658 74.3524C19.7807 69.4929 19.7807 61.6172 24.658 56.7577L23.2463 55.3409L24.658 56.7577L61.1882 20.3611C64.3479 17.213 69.4737 17.213 72.6333 20.3611C75.7889 23.5051 75.7889 28.5995 72.6333 31.7436L39.8898 64.3673C38.4871 65.7648 36.21 65.7648 34.8073 64.3673C33.4087 62.9738 33.4087 60.7175 34.8073 59.3241L57.6938 36.5213C58.4763 35.7417 58.4786 34.4753 57.699 33.6929C56.9194 32.9104 55.653 32.9081 54.8706 33.6877L31.984 56.4905C29.0164 59.4472 29.0165 64.2442 31.9841 67.2009C34.9476 70.1536 39.7495 70.1536 42.713 67.2009L75.4566 34.5772C80.1811 29.8699 80.1811 22.2347 75.4565 17.5275C70.736 12.8242 63.0855 12.8242 58.365 17.5275L21.8347 53.9241Z" fill="var(--spectrum-global-color-gray-800, #292929)"/>
</svg>
