<svg width="160" height="160" viewBox="0 0 160 160" xmlns="http://www.w3.org/2000/svg">
<path fill-rule="evenodd" d="M80 27.74C51.2812 27.74 28 51.0212 28 79.74C28 108.459 51.2812 131.74 80 131.74C108.719 131.74 132 108.459 132 79.74C132 51.0212 108.719 27.74 80 27.74ZM20 79.74C20 46.6029 46.8629 19.74 80 19.74C113.137 19.74 140 46.6029 140 79.74C140 112.877 113.137 139.74 80 139.74C46.8629 139.74 20 112.877 20 79.74ZM84 77.4306V40.74C84 38.5309 82.2091 36.74 80 36.74C77.7909 36.74 76 38.5309 76 40.74V79.6632C75.9971 79.8226 76.0037 79.9816 76.0197 80.1393C76.0771 80.7182 76.2578 81.2607 76.5353 81.7403C76.8117 82.2201 77.1909 82.6477 77.6631 82.9867C77.792 83.0797 77.9267 83.1652 78.0666 83.2425L99.8206 95.8022C101.734 96.9068 104.18 96.2513 105.285 94.3381C106.389 92.4249 105.734 89.9786 103.821 88.874L84 77.4306Z" fill="var(--spectrum-global-color-gray-800, #292929)"/>
</svg>
