<svg width="160" height="160" viewBox="0 0 160 160" xmlns="http://www.w3.org/2000/svg">
<path fill-rule="evenodd" d="M135.852 41.0384C135.852 32.7699 124.839 29.9348 120.846 37.1754L107.739 60.9454L96.6125 47.3341C93.1784 43.1329 86.6468 43.4968 83.7006 48.0534L67.6005 72.954L55.2905 58.7263C52.3114 55.2832 47.0635 55.017 43.7514 58.1411L26.7197 74.2059C25.1173 75.7173 24.209 77.8227 24.209 80.0255V123.751C24.209 130.378 29.5816 135.751 36.209 135.751H123.852C130.479 135.751 135.852 130.378 135.852 123.751V41.0384ZM127.852 91.7369V41.0384L114.744 64.8084C112.01 69.7678 105.129 70.3933 101.545 66.0085L90.4186 52.3972L74.3185 77.2977C71.4231 81.7758 65.0398 82.2211 61.5506 78.1884L49.2406 63.9607L32.209 80.0255V105.607L49.0655 94.3019C51.9601 92.3606 55.7785 92.5166 58.505 94.6877L73.2956 106.465L91.3294 85.1984C94.3705 81.6121 99.8337 81.4093 103.132 84.7602L115.669 97.4959L127.852 91.7369ZM127.852 100.586L119.088 104.729C116.013 106.182 112.354 105.532 109.968 103.108L97.431 90.3724L79.3972 111.639C76.6018 114.936 71.6933 115.416 68.3121 112.724L53.5216 100.946L32.7651 114.867C32.5854 114.988 32.3994 115.092 32.209 115.179V123.751C32.209 125.96 33.9998 127.751 36.209 127.751H123.852C126.061 127.751 127.852 125.96 127.852 123.751V100.586Z" fill="var(--spectrum-global-color-gray-800, #292929)"/>
</svg>
