<svg width="48" height="48" viewBox="0 0 48 48" xmlns="http://www.w3.org/2000/svg">
<path fill-rule="evenodd" d="M24 8.25C15.3015 8.25 8.25 15.3015 8.25 24C8.25 32.6985 15.3015 39.75 24 39.75C32.6985 39.75 39.75 32.6985 39.75 24C39.75 15.3015 32.6985 8.25 24 8.25ZM5.75 24C5.75 13.9208 13.9208 5.75 24 5.75C34.0792 5.75 42.25 13.9208 42.25 24C42.25 34.0792 34.0792 42.25 24 42.25C13.9208 42.25 5.75 34.0792 5.75 24ZM18.1161 18.1161C18.6043 17.628 19.3957 17.628 19.8839 18.1161L24.1835 22.4157L28.4831 18.1161C28.9713 17.628 29.7627 17.628 30.2509 18.1161C30.7391 18.6043 30.7391 19.3957 30.2509 19.8839L25.9513 24.1835L30.2509 28.4831C30.7391 28.9713 30.7391 29.7627 30.2509 30.2509C29.7627 30.7391 28.9713 30.7391 28.4831 30.2509L24.1835 25.9513L19.8839 30.2509C19.3957 30.7391 18.6043 30.7391 18.1161 30.2509C17.628 29.7627 17.628 28.9713 18.1161 28.4831L22.4157 24.1835L18.1161 19.8839C17.628 19.3957 17.628 18.6043 18.1161 18.1161Z" fill="var(--spectrum-global-color-gray-800, #292929)"/>
</svg>
