<svg width="96" height="96" viewBox="0 0 96 96" xmlns="http://www.w3.org/2000/svg">
<path fill-rule="evenodd" d="M49.7936 17.777C49.06 16.2905 46.9402 16.2905 46.2066 17.777L44.4131 16.8918L46.2066 17.777L38.7264 32.9335C37.8525 34.7043 36.1631 35.9318 34.2088 36.2157L17.4826 38.6462C15.8422 38.8845 15.1872 40.9005 16.3742 42.0576L15.0014 43.4659L16.3742 42.0576L28.4774 53.8552C29.8915 55.2337 30.5368 57.2197 30.203 59.166L27.3458 75.8246C27.0656 77.4585 28.7804 78.7044 30.2477 77.933L45.2081 70.0679L45.909 71.4012L45.2081 70.0679C46.956 69.1489 49.0442 69.1489 50.7921 70.0679L65.7525 77.933C67.2198 78.7044 68.9346 77.4584 68.6544 75.8246L65.7972 59.166C65.4634 57.2197 66.1087 55.2337 67.5228 53.8552L79.626 42.0576C80.813 40.9005 80.158 38.8845 78.5176 38.6462L61.7914 36.2157L62.079 34.2365L61.7914 36.2157C59.8371 35.9317 58.1477 34.7043 57.2738 32.9335L59.0672 32.0483L57.2738 32.9335L49.7936 17.777ZM42.6197 16.0067C44.8205 11.5472 51.1796 11.5472 53.3805 16.0067L60.8607 31.1632C61.152 31.7535 61.7152 32.1626 62.3666 32.2573L79.0928 34.6877C84.0141 35.4029 85.9791 41.4507 82.418 44.9219L70.3149 56.7196C69.8435 57.1791 69.6284 57.8411 69.7397 58.4899L72.5968 75.1485C73.4375 80.0499 68.2929 83.7877 63.8911 81.4735L48.9308 73.6084C48.3481 73.3021 47.6521 73.3021 47.0694 73.6084L32.1091 81.4735C27.7073 83.7877 22.5627 80.0499 23.4034 75.1485L26.2605 58.4899C26.3718 57.8411 26.1567 57.1791 25.6853 56.7196L13.5822 44.9219L14.9782 43.4897L13.5822 44.9219C10.0211 41.4507 11.9861 35.4029 16.9074 34.6877L33.6336 32.2573L33.9212 34.2365L33.6336 32.2573C34.285 32.1626 34.8482 31.7535 35.1395 31.1632L42.6197 16.0067Z" fill="var(--spectrum-global-color-gray-800, #292929)"/>
</svg>
