<svg width="96" height="96" viewBox="0 0 96 96" xmlns="http://www.w3.org/2000/svg">
<path fill-rule="evenodd" d="M76 22.4004C79.3137 22.4004 82 25.0867 82 28.4004V67.6004C82 70.9141 79.3137 73.6004 76 73.6004H20C16.6863 73.6004 14 70.9141 14 67.6004V28.4004C14 25.0867 16.6863 22.4004 20 22.4004H76ZM86 28.4004C86 22.8776 81.5229 18.4004 76 18.4004H20C14.4771 18.4004 10 22.8775 10 28.4004V67.6004C10 73.1232 14.4771 77.6004 20 77.6004H76C81.5228 77.6004 86 73.1232 86 67.6004V28.4004ZM29.4023 31.8006C29.4023 31.1378 29.9396 30.6006 30.6023 30.6006H34.8023C35.4651 30.6006 36.0023 31.1378 36.0023 31.8006V34.8006C36.0023 35.4633 35.4651 36.0006 34.8023 36.0006H30.6023C29.9396 36.0006 29.4023 35.4633 29.4023 34.8006V31.8006ZM20.4012 30.6006C19.7384 30.6006 19.2012 31.1378 19.2012 31.8006V34.8006C19.2012 35.4633 19.7384 36.0006 20.4012 36.0006H24.6012C25.2639 36.0006 25.8012 35.4633 25.8012 34.8006V31.8006C25.8012 31.1378 25.2639 30.6006 24.6012 30.6006H20.4012ZM29.4023 61.2005C29.4023 60.5377 29.9396 60.0005 30.6023 60.0005H34.8023C35.4651 60.0005 36.0023 60.5377 36.0023 61.2005V64.2005C36.0023 64.8632 35.4651 65.4005 34.8023 65.4005H30.6023C29.9396 65.4005 29.4023 64.8632 29.4023 64.2005V61.2005ZM20.4012 60.0005C19.7384 60.0005 19.2012 60.5377 19.2012 61.2005V64.2005C19.2012 64.8632 19.7384 65.4005 20.4012 65.4005H24.6012C25.2639 65.4005 25.8012 64.8632 25.8012 64.2005V61.2005C25.8012 60.5377 25.2639 60.0005 24.6012 60.0005H20.4012ZM39.6016 31.8006C39.6016 31.1378 40.1388 30.6006 40.8016 30.6006H45.0016C45.6643 30.6006 46.2016 31.1378 46.2016 31.8006V34.8006C46.2016 35.4633 45.6643 36.0006 45.0016 36.0006H40.8016C40.1388 36.0006 39.6016 35.4633 39.6016 34.8006V31.8006ZM40.8016 60.0005C40.1388 60.0005 39.6016 60.5377 39.6016 61.2005V64.2005C39.6016 64.8632 40.1388 65.4005 40.8016 65.4005H45.0016C45.6643 65.4005 46.2016 64.8632 46.2016 64.2005V61.2005C46.2016 60.5377 45.6643 60.0005 45.0016 60.0005H40.8016ZM49.8008 31.8006C49.8008 31.1378 50.338 30.6006 51.0008 30.6006H55.2008C55.8635 30.6006 56.4008 31.1378 56.4008 31.8006V34.8006C56.4008 35.4633 55.8635 36.0006 55.2008 36.0006H51.0008C50.338 36.0006 49.8008 35.4633 49.8008 34.8006V31.8006ZM51.0008 60.0005C50.338 60.0005 49.8008 60.5377 49.8008 61.2005V64.2005C49.8008 64.8632 50.338 65.4005 51.0008 65.4005H55.2008C55.8635 65.4005 56.4008 64.8632 56.4008 64.2005V61.2005C56.4008 60.5377 55.8635 60.0005 55.2008 60.0005H51.0008ZM60 31.8006C60 31.1378 60.5373 30.6006 61.2 30.6006H65.4C66.0627 30.6006 66.6 31.1378 66.6 31.8006V34.8006C66.6 35.4633 66.0627 36.0006 65.4 36.0006H61.2C60.5373 36.0006 60 35.4633 60 34.8006V31.8006ZM61.2 60.0005C60.5373 60.0005 60 60.5377 60 61.2005V64.2005C60 64.8632 60.5373 65.4005 61.2 65.4005H65.4C66.0627 65.4005 66.6 64.8632 66.6 64.2005V61.2005C66.6 60.5377 66.0627 60.0005 65.4 60.0005H61.2ZM70.2012 31.8006C70.2012 31.1378 70.7384 30.6006 71.4012 30.6006H75.6012C76.2639 30.6006 76.8012 31.1378 76.8012 31.8006V34.8006C76.8012 35.4633 76.2639 36.0006 75.6012 36.0006H71.4012C70.7384 36.0006 70.2012 35.4633 70.2012 34.8006V31.8006ZM71.4012 60.0005C70.7384 60.0005 70.2012 60.5377 70.2012 61.2005V64.2005C70.2012 64.8632 70.7384 65.4005 71.4012 65.4005H75.6012C76.2639 65.4005 76.8012 64.8632 76.8012 64.2005V61.2005C76.8012 60.5377 76.2639 60.0005 75.6012 60.0005H71.4012Z" fill="var(--spectrum-global-color-gray-800, #292929)"/>
</svg>
