<svg width="96" height="96" viewBox="0 0 96 96" xmlns="http://www.w3.org/2000/svg">
<path fill-rule="evenodd" d="M34.7044 19.5286C35.4759 18.2006 37.3943 18.2016 38.1643 19.5305L55.6654 49.7336C56.438 51.067 55.4759 52.7364 53.9349 52.7364H18.8879C17.3459 52.7364 16.384 51.065 17.1585 49.7317L34.7044 19.5286ZM41.6252 17.525C39.3152 13.5385 33.5601 13.5353 31.2457 17.5193L13.6998 47.7225C11.3761 51.7224 14.262 56.7364 18.8879 56.7364H53.9349C58.5579 56.7364 61.4441 51.7282 59.1264 47.7282L41.6252 17.525ZM55.7983 34.0299C56.3159 33.9933 56.8388 33.9746 57.3664 33.9746C69.4527 33.9746 79.2506 43.7725 79.2506 55.8589C79.2506 67.9452 69.4527 77.7431 57.3664 77.7431C47.1327 77.7431 38.5351 70.7168 36.1438 61.2224C35.874 60.1513 34.787 59.5017 33.7159 59.7715C32.6447 60.0413 31.9951 61.1283 32.2649 62.1994C35.0932 73.4285 45.2563 81.7431 57.3664 81.7431C71.6619 81.7431 83.2506 70.1543 83.2506 55.8589C83.2506 41.5634 71.6619 29.9746 57.3664 29.9746C56.7446 29.9746 56.1276 29.9966 55.5162 30.0398C54.4143 30.1177 53.5843 31.0741 53.6622 32.1759C53.7401 33.2777 54.6965 34.1078 55.7983 34.0299Z" fill="var(--spectrum-global-color-gray-800, #292929)"/>
</svg>
