<svg width="96" height="96" viewBox="0 0 96 96" xmlns="http://www.w3.org/2000/svg">
<path fill-rule="evenodd" d="M76.9718 14.6512C78.5361 15.5937 79.5655 17.4939 79.1003 19.6559L79.1002 19.6566L77.8714 25.3572L77.8707 25.3601C77.8196 25.5958 77.8889 25.8324 78.0229 25.984L78.0234 25.9846L81.8171 30.2803C83.2887 31.9458 83.2692 34.1164 82.4 35.6871C81.5258 37.2669 79.6629 38.4441 77.4425 37.9239L77.4418 37.9237L71.9788 36.6415L71.9756 36.6408C71.8415 36.6091 71.6815 36.6422 71.5487 36.77L71.5482 36.7705L67.4315 40.7292L67.4311 40.7295C65.7974 42.301 63.6062 42.2979 62.0282 41.3471C60.4639 40.4046 59.4345 38.5044 59.8997 36.3424L59.8998 36.3417L61.1286 30.6412L61.1293 30.6382C61.1804 30.4026 61.1111 30.1659 60.9771 30.0143L60.9766 30.0138L57.1829 25.7181L57.1825 25.7177C55.7113 24.0523 55.7308 21.8818 56.6 20.3112C57.4742 18.7314 59.3371 17.5542 61.5575 18.0745L61.5582 18.0746L67.0212 19.3568L67.0244 19.3576C67.1585 19.3893 67.3185 19.3561 67.4513 19.2284L67.4518 19.2278L71.5685 15.2692L71.5689 15.2688C73.2026 13.6974 75.3938 13.7004 76.9718 14.6512ZM74.6237 18.0003C74.5688 18.0049 74.4732 18.0253 74.3418 18.1517L74.3414 18.1521L70.2249 22.1105L70.2245 22.1109L70.2244 22.111C69.1352 23.1589 67.5925 23.6015 66.106 23.2507L66.1041 23.2503L60.6449 21.969L60.6442 21.9688L60.6442 21.9688C60.4958 21.9342 60.4115 21.9588 60.3517 21.9885C60.2742 22.027 60.1765 22.1093 60.0998 22.2479C59.9445 22.5286 59.9672 22.8282 60.1804 23.0695L60.1807 23.0699L63.9742 27.3653L63.9746 27.3658L63.9748 27.3659C64.9675 28.4895 65.354 30.0297 65.0385 31.4853L65.0382 31.4869L63.8102 37.1839L63.8101 37.1841L63.81 37.1846C63.7643 37.3975 63.797 37.543 63.8428 37.6435C63.8942 37.7562 63.9827 37.8548 64.0925 37.921C64.2025 37.9872 64.3042 38.004 64.3763 37.998C64.4312 37.9934 64.5268 37.9731 64.6582 37.8466L64.6586 37.8463L68.775 33.8878L68.7755 33.8874L68.7756 33.8873C69.8647 32.8395 71.4072 32.3969 72.8936 32.7475L72.8959 32.7481L78.355 34.0294L78.3553 34.0294C78.504 34.0642 78.5884 34.0395 78.6483 34.0098C78.7258 33.9714 78.8235 33.889 78.9002 33.7504C79.0555 33.4698 79.0328 33.1701 78.8196 32.9288L78.8193 32.9285L75.0258 28.633L75.0252 28.6324C74.0326 27.5089 73.646 25.9688 73.9614 24.5133L73.9618 24.5114L75.1898 18.8145L74.6237 18.0003ZM16 29.9738C16 24.9111 20.1872 20.9992 25.2004 20.9992H51C52.1046 20.9992 53 21.8946 53 22.9992C53 24.1037 52.1046 24.9992 51 24.9992H25.2004C22.2603 24.9992 20 27.2538 20 29.9738V52.9492C20 55.6692 22.2603 57.9239 25.2004 57.9239H31.3333H33.3249L33.3333 59.9154C33.3474 63.24 33.3603 68.0086 33.3333 71.6448C33.3326 71.7342 33.3552 71.7843 33.3801 71.8208C33.411 71.8661 33.4669 71.9182 33.5503 71.9558C33.6337 71.9933 33.7198 72.005 33.793 71.9965C33.857 71.989 33.9294 71.9649 34.0118 71.8951L34.0174 71.8903L50.0451 58.394L50.6034 57.9239H51.3333H70.7996C73.7397 57.9239 76 55.6692 76 52.9492V42.9992C76 41.8946 76.8954 40.9992 78 40.9992C79.1046 40.9992 80 41.8946 80 42.9992V52.9492C80 58.0119 75.8128 61.9239 70.7996 61.9239H52.0632L36.5994 74.9453L36.5963 74.948C33.7996 77.3162 29.305 75.4345 29.3334 71.6151C29.3552 68.6777 29.3508 64.9878 29.3408 61.9239H25.2004C20.1872 61.9239 16 58.0119 16 52.9492V29.9738ZM53.9801 50.2726L49.9647 49.3678C49.4331 49.249 48.8817 49.3976 48.4821 49.7641L45.4574 52.5544C44.2653 53.6539 42.3699 52.5577 42.7266 50.9793L43.6313 46.9639C43.7502 46.4323 43.6016 45.8808 43.2351 45.4813L40.4448 42.4566C39.3452 41.2645 40.4415 39.3691 42.0199 39.7257L46.0353 40.6305C46.5669 40.7494 47.1183 40.6008 47.5179 40.2343L50.5426 37.444C51.7347 36.3444 53.6301 37.4407 53.2734 39.0191L52.3687 43.0344C52.2498 43.5661 52.3984 44.1175 52.7649 44.5171L55.5552 47.5418C56.6548 48.7338 55.5585 50.6292 53.9801 50.2726Z" fill="var(--spectrum-global-color-gray-800, #292929)"/>
</svg>
