<svg width="96" height="96" viewBox="0 0 96 96" xmlns="http://www.w3.org/2000/svg">
<path fill-rule="evenodd" d="M20 20C16.6863 20 14 22.6863 14 26V54C14 57.3137 16.6863 60 20 60H76C79.3137 60 82 57.3137 82 54V26C82 22.6863 79.3137 20 76 20H20ZM10 26C10 20.4772 14.4772 16 20 16H76C81.5229 16 86 20.4772 86 26V54C86 59.5228 81.5229 64 76 64H53V76H60C61.1046 76 62 76.8954 62 78C62 79.1046 61.1046 80 60 80H36C34.8954 80 34 79.1046 34 78C34 76.8954 34.8954 76 36 76H44V64H20C14.4772 64 10 59.5228 10 54V26ZM51 26.5C51 27.8807 49.8807 29 48.5 29C47.1193 29 46 27.8807 46 26.5C46 25.1193 47.1193 24 48.5 24C49.8807 24 51 25.1193 51 26.5Z" fill="var(--spectrum-global-color-gray-800, #292929)"/>
</svg>
