<svg width="160" height="160" viewBox="0 0 160 160" xmlns="http://www.w3.org/2000/svg">
<path fill-rule="evenodd" d="M48 36C41.4207 36 36 41.4172 36 48.22V106H124V48.22C124 41.4172 118.579 36 112 36H48ZM28 48.22V106H24C16.8203 106 11 111.82 11 119C11 126.18 16.8203 132 24 132H136C143.18 132 149 126.18 149 119C149 111.82 143.18 106 136 106H132V48.22C132 37.1028 123.101 28 112 28H48C36.8993 28 28 37.1028 28 48.22ZM24 114C21.2386 114 19 116.239 19 119C19 121.761 21.2386 124 24 124H136C138.761 124 141 121.761 141 119C141 116.239 138.761 114 136 114H24ZM85 45.5C85 47.9853 82.9853 50 80.5 50C78.0147 50 76 47.9853 76 45.5C76 43.0147 78.0147 41 80.5 41C82.9853 41 85 43.0147 85 45.5Z" fill="var(--spectrum-global-color-gray-800, #292929)"/>
</svg>
