<svg width="96" height="96" viewBox="0 0 96 96" xmlns="http://www.w3.org/2000/svg">
<path fill-rule="evenodd" d="M47.9998 25.5127C51.2936 18.9261 58.3082 14.5208 66.2874 15.0417C77.0293 15.7429 84.6837 25.4696 83.9511 35.9905C83.2349 46.2749 77.1587 56.1465 70.4971 64.0849C63.7933 72.0736 56.2598 78.3816 52.1916 81.5562C49.7239 83.4817 46.2608 83.4814 43.7935 81.5553C39.7267 78.3804 32.1966 72.0724 25.4961 64.084C18.8375 56.1458 12.7645 46.2747 12.0484 35.991C11.3159 25.4707 18.969 15.7439 29.7105 15.0418C37.6903 14.5203 44.7056 18.9256 47.9998 25.5127ZM66.0269 19.0332C57.2747 18.4619 50.0071 25.3775 50.0071 33.984C50.0071 34.113 49.9946 34.2415 49.9699 34.3678C49.9674 34.3818 49.9639 34.4009 49.9595 34.4224C49.7692 35.3568 48.9456 36.0269 47.9921 36.0232C47.0385 36.0195 46.2201 35.3431 46.037 34.4073C46.0338 34.3911 46.0311 34.3765 46.0291 34.3652C46.0048 34.2398 45.9925 34.1121 45.9925 33.984C45.9925 25.3771 38.724 18.4612 29.9713 19.0333C21.6434 19.5777 15.4457 27.1953 16.0388 35.7132C16.6656 44.716 22.0707 53.7761 28.5607 61.5134C35.0086 69.2006 42.2975 75.3128 46.255 78.4023C47.2758 79.1992 48.7098 79.1994 49.7308 78.4026C53.6897 75.3134 60.982 69.2011 67.433 61.5137C73.9262 53.776 79.3338 44.7156 79.9607 35.7126C80.5539 27.1946 74.3553 19.5769 66.0269 19.0332Z" fill="var(--spectrum-global-color-gray-800, #292929)"/>
</svg>
