<svg width="48" height="48" viewBox="0 0 48 48" xmlns="http://www.w3.org/2000/svg">
<path fill-rule="evenodd" d="M22.5312 12.6016C22.5312 8.46021 25.8899 5.10156 30.0312 5.10156C34.1726 5.10156 37.5312 8.46021 37.5312 12.6016C37.5312 16.7429 34.1726 20.1016 30.0312 20.1016C25.8899 20.1016 22.5312 16.7429 22.5312 12.6016ZM33.3899 15.9602C33.8754 15.4747 33.8754 14.692 33.3899 14.2066H33.4097L31.8047 12.6016L33.4097 10.9965C33.8952 10.5111 33.8952 9.72838 33.4097 9.24291C32.9242 8.75744 32.1416 8.75744 31.6561 9.24291L30.0511 10.8479L28.446 9.24291C27.9606 8.75744 27.1779 8.75744 26.6924 9.24291C26.2069 9.72838 26.2069 10.5111 26.6924 10.9965L28.2974 12.6016L26.6924 14.2066C26.2069 14.692 26.2069 15.4747 26.6924 15.9602C26.9302 16.2079 27.2472 16.3268 27.5643 16.3268C27.8813 16.3268 28.1984 16.198 28.4361 15.9602L30.0412 14.3552L31.6462 15.9602C31.884 16.2079 32.201 16.3268 32.518 16.3268C32.8351 16.3268 33.1521 16.198 33.3899 15.9602ZM4.75 13.2625C4.75 10.8277 6.75834 8.89844 9.18017 8.89844H20.0625C20.7529 8.89844 21.3125 9.45808 21.3125 10.1484C21.3125 10.8388 20.7529 11.3984 20.0625 11.3984H9.18017C8.08928 11.3984 7.25 12.2576 7.25 13.2625V24.3136C7.25 25.3184 8.08928 26.1776 9.18017 26.1776H12.0281C12.7164 26.1776 13.2751 26.7341 13.2781 27.4223C13.2838 28.7702 13.2744 30.6442 13.2637 32.1785L19.9826 26.4747C20.2085 26.2829 20.4952 26.1776 20.7916 26.1776H29.3198C30.4107 26.1776 31.25 25.3184 31.25 24.3136V22.5195C31.25 21.8292 31.8096 21.2695 32.5 21.2695C33.1904 21.2695 33.75 21.8292 33.75 22.5195V24.3136C33.75 26.7484 31.7417 28.6776 29.3198 28.6776H21.2506L14.574 34.3455C13.111 35.5874 10.7457 34.6087 10.7607 32.592C10.7695 31.4057 10.7782 29.9478 10.7796 28.6776H9.18017C6.75834 28.6776 4.75 26.7484 4.75 24.3136V13.2625ZM35.2505 20.6484C35.2505 19.9581 35.8101 19.3984 36.5005 19.3984H39.1803C41.4124 19.3984 43.2505 21.1883 43.2505 23.4312V33.3066C43.2505 35.5496 41.4124 37.3394 39.1803 37.3394H37.9037C37.9053 38.4418 37.9128 39.6846 37.9203 40.7035C37.9343 42.6084 35.7006 43.5661 34.302 42.3696L28.4217 37.3394H21.3206C19.6199 37.3394 18.1552 36.304 17.5484 34.8232C17.2867 34.1844 17.5923 33.4543 18.2311 33.1926C18.8699 32.9308 19.6 33.2364 19.8617 33.8752C20.0911 34.4351 20.6536 34.8394 21.3206 34.8394H28.8834C29.1814 34.8394 29.4696 34.9459 29.696 35.1396L35.4155 40.0323C35.4069 38.7236 35.4002 37.2018 35.4049 36.0842C35.4077 35.3959 35.9665 34.8394 36.6548 34.8394H39.1803C40.0633 34.8394 40.7505 34.1375 40.7505 33.3066V23.4312C40.7505 22.6004 40.0633 21.8984 39.1803 21.8984H36.5005C35.8101 21.8984 35.2505 21.3388 35.2505 20.6484Z" fill="var(--spectrum-global-color-gray-800, #292929)"/>
</svg>
