<svg width="160" height="160" viewBox="0 0 160 160" xmlns="http://www.w3.org/2000/svg">
<path fill-rule="evenodd" d="M24.2305 40.2676C24.2305 31.431 31.3939 24.2676 40.2305 24.2676H55.5679C64.4044 24.2676 71.5679 31.431 71.5679 40.2676V55.605C71.5679 64.4416 64.4044 71.605 55.5679 71.605H40.2305C31.3939 71.605 24.2305 64.4416 24.2305 55.605V40.2676ZM40.2305 32.2676C35.8122 32.2676 32.2305 35.8493 32.2305 40.2676V55.605C32.2305 60.0233 35.8122 63.605 40.2305 63.605H55.5679C59.9862 63.605 63.5679 60.0233 63.5679 55.605V40.2676C63.5679 35.8493 59.9862 32.2676 55.5679 32.2676H40.2305ZM91.9734 26.1996C89.7655 26.1247 87.915 27.8539 87.8402 30.0618C87.7654 32.2697 89.4945 34.1201 91.7024 34.195C96.5764 34.3601 101.567 35.7647 105.33 39.405C108.577 42.5463 111.361 47.7915 112.005 56.6039L105.828 50.4263C104.266 48.8642 101.733 48.8642 100.171 50.4263C98.6089 51.9884 98.6089 54.521 100.171 56.0831L112.595 68.5071C114.157 70.0692 116.69 70.0692 118.252 68.5071L130.716 56.0431C132.278 54.481 132.278 51.9483 130.716 50.3862C129.154 48.8241 126.621 48.8241 125.059 50.3862L119.943 55.5026C119.114 45.4901 115.797 38.4007 110.892 33.6553C105.247 28.1942 98.0842 26.4067 91.9734 26.1996ZM47.2443 91.4931C45.6822 89.931 43.1496 89.931 41.5875 91.4931L29.1234 103.957C27.5613 105.519 27.5613 108.052 29.1234 109.614C30.6855 111.176 33.2182 111.176 34.7803 109.614L39.8963 104.498C40.7247 114.51 44.0417 121.599 48.9466 126.345C54.5914 131.806 61.7547 133.593 67.8655 133.8C70.0734 133.875 71.9239 132.146 71.9987 129.938C72.0735 127.73 70.3443 125.88 68.1365 125.805C63.2625 125.64 58.2719 124.235 54.5092 120.595C51.2622 117.454 48.4773 112.208 47.8334 103.396L54.0115 109.574C55.5736 111.136 58.1062 111.136 59.6683 109.574C61.2304 108.012 61.2304 105.479 59.6683 103.917L47.2443 91.4931ZM104.432 88.3955C95.5956 88.3955 88.4321 95.559 88.4321 104.396V119.733C88.4321 128.569 95.5956 135.733 104.432 135.733H119.77C128.606 135.733 135.77 128.569 135.77 119.733V104.396C135.77 95.559 128.606 88.3955 119.77 88.3955H104.432ZM96.4321 104.396C96.4321 99.9772 100.014 96.3955 104.432 96.3955H119.77C124.188 96.3955 127.77 99.9772 127.77 104.396V119.733C127.77 124.151 124.188 127.733 119.77 127.733H104.432C100.014 127.733 96.4321 124.151 96.4321 119.733V104.396Z" fill="var(--spectrum-global-color-gray-800, #292929)"/>
</svg>
