<svg width="96" height="96" viewBox="0 0 96 96" xmlns="http://www.w3.org/2000/svg">
<path fill-rule="evenodd" d="M51.4336 21.4612C51.4336 17.017 46.0692 14.7815 42.9132 17.9105L31.2517 29.4726C30.8771 29.844 30.371 30.0523 29.8435 30.0523H21.4648C18.1511 30.0523 15.4648 32.7386 15.4648 36.0523V60.0745C15.4648 63.3882 18.1511 66.0745 21.4648 66.0745H29.8553C30.3793 66.0745 30.8823 66.2801 31.2563 66.6472L42.9312 78.1065C46.0942 81.2112 51.4336 78.9703 51.4336 74.5382L51.4336 21.4612ZM45.7295 20.7511C46.3607 20.1252 47.4336 20.5723 47.4336 21.4612L47.4336 74.5382C47.4336 75.4246 46.3657 75.8728 45.7331 75.2519L34.0582 63.7925L34.0273 63.7625L34.0273 32.353L34.0679 32.3131L45.7295 20.7511ZM30.0273 34.0495L30.0273 62.077C29.9701 62.0753 29.9127 62.0745 29.8553 62.0745H21.4648C20.3603 62.0745 19.4648 61.1791 19.4648 60.0745V36.0523C19.4648 34.9478 20.3603 34.0523 21.4648 34.0523H29.8435C29.9049 34.0523 29.9662 34.0514 30.0273 34.0495ZM59.2108 34.3761C58.3282 33.7119 57.0743 33.889 56.4101 34.7715C55.7459 35.6541 55.923 36.908 56.8056 37.5722C59.9544 39.9417 61.9843 43.7039 61.9843 47.9408C61.9843 52.2123 59.9211 56.0014 56.7282 58.3672C55.8408 59.0248 55.6544 60.2773 56.312 61.1648C56.9696 62.0523 58.2222 62.2387 59.1096 61.5811C63.2768 58.4933 65.9843 53.5331 65.9843 47.9408C65.9843 42.394 63.3205 37.4687 59.2108 34.3761ZM69.2152 25.2472C68.3326 24.583 67.0787 24.7601 66.4145 25.6426C65.7504 26.5252 65.9274 27.7791 66.81 28.4433C72.7197 32.8905 76.535 39.9571 76.535 47.9155C76.535 55.9388 72.6571 63.0559 66.6648 67.4961C65.7773 68.1537 65.5909 69.4063 66.2485 70.2937C66.9061 71.1812 68.1587 71.3676 69.0462 70.71C76.0128 65.5479 80.535 57.2596 80.535 47.9155C80.535 38.6472 76.0858 30.4175 69.2152 25.2472Z" fill="var(--spectrum-global-color-gray-800, #292929)"/>
</svg>
