<svg width="48" height="48" viewBox="0 0 48 48" xmlns="http://www.w3.org/2000/svg">
<path fill-rule="evenodd" d="M12.9492 10.5195C10.3296 10.5195 8.19922 12.6499 8.19922 15.2695V37.4895H13.0488V32.6594C13.0488 30.8691 14.5085 29.4094 16.2988 29.4094H20.2488C22.0392 29.4094 23.4988 30.8691 23.4988 32.6594V37.4895H28.3592V15.2695C28.3592 12.6499 26.2289 10.5195 23.6092 10.5195H12.9492ZM22.4068 39.9895H29.6092C30.2996 39.9895 30.8592 39.4299 30.8592 38.7395V15.2695C30.8592 11.2692 27.6096 8.01953 23.6092 8.01953H12.9492C8.94886 8.01953 5.69922 11.2692 5.69922 15.2695V38.7395C5.69922 39.4299 6.25886 39.9895 6.94922 39.9895H14.1408C14.1926 39.9961 14.2453 39.9994 14.2988 39.9994H22.2488C22.3024 39.9994 22.3551 39.9961 22.4068 39.9895ZM20.9988 37.4895V32.6594C20.9988 32.2498 20.6585 31.9094 20.2488 31.9094H16.2988C15.8892 31.9094 15.5488 32.2498 15.5488 32.6594V37.4895H20.9988ZM32.3691 15.3894C32.3691 14.699 32.9288 14.1394 33.6191 14.1394H35.0491C39.0495 14.1394 42.2991 17.389 42.2991 21.3894V38.7394C42.2991 39.4298 41.7395 39.9894 41.0491 39.9894H33.6191C32.9288 39.9894 32.3691 39.4298 32.3691 38.7394C32.3691 38.0491 32.9288 37.4894 33.6191 37.4894H39.7991V21.3894C39.7991 18.7698 37.6688 16.6394 35.0491 16.6394H33.6191C32.9288 16.6394 32.3691 16.0798 32.3691 15.3894ZM15.2291 13.4395H13.3291C12.7768 13.4395 12.3291 13.8872 12.3291 14.4395V16.3395C12.3291 16.8917 12.7768 17.3395 13.3291 17.3395H15.2291C15.7814 17.3395 16.2291 16.8917 16.2291 16.3395V14.4395C16.2291 13.8872 15.7814 13.4395 15.2291 13.4395ZM21.3291 13.4395H23.2291C23.7814 13.4395 24.2291 13.8872 24.2291 14.4395V16.3395C24.2291 16.8917 23.7814 17.3395 23.2291 17.3395H21.3291C20.7768 17.3395 20.3291 16.8917 20.3291 16.3395V14.4395C20.3291 13.8872 20.7768 13.4395 21.3291 13.4395ZM15.2291 21.3795H13.3291C12.7768 21.3795 12.3291 21.8272 12.3291 22.3795V24.2795C12.3291 24.8317 12.7768 25.2795 13.3291 25.2795H15.2291C15.7814 25.2795 16.2291 24.8317 16.2291 24.2795V22.3795C16.2291 21.8272 15.7814 21.3795 15.2291 21.3795ZM21.3291 21.3795H23.2291C23.7814 21.3795 24.2291 21.8272 24.2291 22.3795V24.2795C24.2291 24.8317 23.7814 25.2795 23.2291 25.2795H21.3291C20.7768 25.2795 20.3291 24.8317 20.3291 24.2795V22.3795C20.3291 21.8272 20.7768 21.3795 21.3291 21.3795ZM36.2789 21.1494H34.3789C33.8266 21.1494 33.3789 21.5971 33.3789 22.1494V24.0494C33.3789 24.6017 33.8266 25.0494 34.3789 25.0494H36.2789C36.8312 25.0494 37.2789 24.6017 37.2789 24.0494V22.1494C37.2789 21.5971 36.8312 21.1494 36.2789 21.1494ZM34.3789 29.0894H36.2789C36.8312 29.0894 37.2789 29.5371 37.2789 30.0894V31.9894C37.2789 32.5417 36.8312 32.9894 36.2789 32.9894H34.3789C33.8266 32.9894 33.3789 32.5417 33.3789 31.9894V30.0894C33.3789 29.5371 33.8266 29.0894 34.3789 29.0894Z" fill="var(--spectrum-global-color-gray-800, #292929)"/>
</svg>
