<svg width="48" height="48" viewBox="0 0 48 48" xmlns="http://www.w3.org/2000/svg">
<path fill-rule="evenodd" d="M13.252 6.21777C13.252 5.52742 12.6923 4.96777 12.002 4.96777C11.3116 4.96777 10.752 5.52742 10.752 6.21777V9.0385C10.752 9.72886 11.3116 10.2885 12.002 10.2885C12.6923 10.2885 13.252 9.72886 13.252 9.0385V6.21777ZM5.79688 11.1734C5.10652 11.1734 4.54688 11.7331 4.54688 12.4234C4.54688 13.1138 5.10652 13.6735 5.79688 13.6735H8.6176C9.30796 13.6735 9.8676 13.1138 9.8676 12.4234C9.8676 11.7331 9.30796 11.1734 8.6176 11.1734H5.79688ZM15.3868 13.6733C14.2078 13.6733 13.252 14.6292 13.252 15.8082V38.374C13.252 39.5531 14.2078 40.5089 15.3868 40.5089H33.4395C34.6185 40.5089 35.5743 39.5531 35.5743 38.374V24.9562H27.5164C25.5798 24.9562 24.0099 23.3863 24.0099 21.4496V13.6733H15.3868ZM26.5099 15.0904V21.4496C26.5099 22.0056 26.9605 22.4562 27.5164 22.4562H34.1627L26.5099 15.0904ZM10.752 15.8082C10.752 13.2484 12.8271 11.1733 15.3868 11.1733H24.1771C25.3757 11.1733 26.5277 11.6377 27.3913 12.4688L36.6536 21.3839C37.5614 22.2576 38.0743 23.4633 38.0743 24.7232V38.374C38.0743 40.9338 35.9992 43.0089 33.4395 43.0089H15.3868C12.8271 43.0089 10.752 40.9338 10.752 38.374V15.8082Z" fill="var(--spectrum-global-color-gray-800, #292929)"/>
</svg>
