<svg width="96" height="96" viewBox="0 0 96 96" xmlns="http://www.w3.org/2000/svg">
<path fill-rule="evenodd" d="M76.0281 41.6442L86.6431 31.0292C87.4241 30.2482 87.4241 28.9819 86.6431 28.2008L76.0281 17.5858C75.247 16.8047 73.9807 16.8047 73.1996 17.5858C72.4186 18.3668 72.4186 19.6332 73.1996 20.4142L80.1975 27.4121H75.4109C70.4901 27.4121 65.9508 29.0694 62.3284 31.8552C62.2766 31.895 62.2273 31.9368 62.1806 31.9805C62.1529 32.0001 62.1255 32.0205 62.0986 32.0416C59.4263 34.1397 56.9235 37.1995 54.9561 40.0194C52.981 42.8502 51.4389 45.5941 50.7225 47.1752C50.1527 48.4327 48.7423 51.4204 46.8751 54.5603C45.2679 57.2629 43.418 59.912 41.5674 61.7042C41.5158 61.7428 41.4655 61.7842 41.4168 61.8284C38.3117 64.65 34.1922 66.3672 29.667 66.3672C20.0144 66.3672 12.1895 58.5422 12.1895 48.8896C12.1895 39.2371 20.0144 31.4121 29.667 31.4121C35.5699 31.4121 40.79 34.3366 43.9574 38.8247L43.9574 38.8247L43.9646 38.8347L45.987 41.6633C46.6295 42.5618 47.8787 42.7694 48.7772 42.1269C49.6757 41.4845 49.8833 40.2353 49.2408 39.3367L47.2219 36.5131C43.3367 31.0115 36.9223 27.4121 29.667 27.4121C17.8053 27.4121 8.18945 37.0279 8.18945 48.8896C8.18945 60.7514 17.8053 70.3672 29.667 70.3672C34.5922 70.3672 39.1334 68.7073 42.7565 65.9187C42.8523 65.8661 42.945 65.8049 43.0337 65.735C45.8255 63.5333 48.3745 59.8649 50.3132 56.6048C52.2849 53.2891 53.7639 50.1548 54.3659 48.8261C54.9587 47.5179 56.3666 44.9883 58.2365 42.3082C60.114 39.6172 62.3514 36.9287 64.5687 35.1878C64.6147 35.1517 64.6587 35.114 64.7006 35.0748C64.7229 35.059 64.745 35.0428 64.7668 35.026C67.7146 32.759 71.4027 31.4121 75.4109 31.4121H80.6034L73.1996 38.8158C72.4186 39.5969 72.4186 40.8632 73.1996 41.6442C73.9807 42.4253 75.247 42.4253 76.0281 41.6442ZM80.8094 70.3672C81.914 70.3672 82.8094 69.4718 82.8094 68.3672C82.8094 67.2626 81.914 66.3672 80.8094 66.3672H75.4109C69.5999 66.3672 64.9143 63.0212 60.8533 58.5902L58.516 55.7655C57.8118 54.9145 56.5511 54.7955 55.7001 55.4997C54.8491 56.2038 54.7301 57.4646 55.4343 58.3156L57.8035 61.1788L57.835 61.2169L57.8685 61.2535C62.2064 65.997 67.899 70.3672 75.4109 70.3672H80.8094Z" fill="var(--spectrum-global-color-gray-800, #292929)"/>
</svg>
