<svg width="160" height="160" viewBox="0 0 160 160" xmlns="http://www.w3.org/2000/svg">
<path fill-rule="evenodd" d="M32.5229 90.5275L48.2717 77.2878C49.9627 75.8663 52.486 76.0847 53.9075 77.7757C55.3291 79.4667 55.1107 81.9899 53.4197 83.4114L30.5596 102.629C28.8686 104.051 26.3454 103.833 24.9238 102.142L5.70587 79.2814C4.2843 77.5904 4.5027 75.0672 6.19369 73.6456C7.88468 72.2241 10.4079 72.4425 11.8295 74.1335L24.5725 89.2916C26.3069 57.6999 52.4734 32.6172 84.4983 32.6172C117.645 32.6172 144.516 59.4879 144.516 92.6345C144.516 94.8437 142.725 96.6345 140.516 96.6345C138.307 96.6345 136.516 94.8437 136.516 92.6345C136.516 63.9061 113.227 40.6172 84.4983 40.6172C56.4756 40.6172 33.6284 62.776 32.5229 90.5275ZM21.5401 123.383C21.5401 121.174 23.3309 119.383 25.5401 119.383L143.425 119.383C145.634 119.383 147.425 121.174 147.425 123.383C147.425 125.592 145.634 127.383 143.425 127.383L25.5401 127.383C23.3309 127.383 21.5401 125.592 21.5401 123.383Z" fill="var(--spectrum-global-color-gray-800, #292929)"/>
</svg>
