<svg width="160" height="160" viewBox="0 0 160 160" xmlns="http://www.w3.org/2000/svg">
<path fill-rule="evenodd" d="M74.6899 19.97C69.4586 19.97 65.1221 23.9903 64.7217 29.2028L64.7216 29.2035L64.7216 29.2042L63.7858 41.3524C60.5835 42.6973 57.5833 44.4254 54.8431 46.4857L43.8795 41.1529L43.8778 41.1521C39.1826 38.8711 33.5152 40.5823 30.8775 45.0897L30.8772 45.0903L25.5072 54.2703L25.5043 54.2753C22.881 58.7747 24.1313 64.561 28.4444 67.5397L28.4483 67.5424L38.4542 74.4778C38.2148 76.2853 38.0899 78.1274 38.0899 80C38.0899 81.8699 38.2144 83.7152 38.4537 85.5225L28.4412 92.4625L28.4397 92.4635C24.1405 95.4463 22.8736 101.229 25.5075 105.73L30.8743 114.905L30.875 114.906C33.5104 119.425 39.1817 121.143 43.8832 118.845L43.8881 118.843L54.8431 113.514C57.5832 115.575 60.5835 117.303 63.7858 118.648L64.7216 130.796L64.7217 130.797C65.1224 136.014 69.4728 140.03 74.6899 140.03H85.3199C90.5511 140.03 94.8877 136.01 95.2881 130.797L95.2882 130.796L96.2239 118.648C99.4263 117.303 102.426 115.575 105.167 113.514L116.13 118.847L116.132 118.848C120.827 121.129 126.495 119.418 129.132 114.91L129.133 114.91L134.503 105.73L134.505 105.725C137.129 101.225 135.878 95.4389 131.565 92.4602L131.561 92.4575L121.556 85.5221C121.795 83.7146 121.92 81.8725 121.92 80C121.92 78.13 121.795 76.2848 121.556 74.4775L131.569 67.5375L131.57 67.5364C135.869 64.5538 137.136 58.7713 134.503 54.2703L134.502 54.2697L129.135 45.0953L129.134 45.0927C126.498 40.5752 120.828 38.8574 116.127 41.1545L116.122 41.1571L105.167 46.4857C102.426 44.4254 99.4263 42.6973 96.2239 41.3524L95.2882 29.2042L95.2881 29.2035L95.2881 29.2028C94.8873 23.9861 90.5369 19.97 85.3199 19.97H74.6899ZM72.6982 29.8158C72.7784 28.769 73.6416 27.97 74.6899 27.97H85.3199C86.3623 27.97 87.2316 28.7732 87.3116 29.8158L87.3117 29.8172L88.4417 44.4872C88.5639 46.0734 89.6145 47.4365 91.1174 47.9585C95.1613 49.3632 98.8544 51.5006 102.037 54.2276C103.247 55.2641 104.957 55.4839 106.389 54.787L119.629 48.347L119.638 48.3428C120.575 47.8843 121.7 48.2258 122.224 49.1247L122.227 49.1297L127.597 58.3097L127.598 58.3102C128.123 59.2086 127.871 60.365 127.011 60.9625L127.011 60.9626L127.01 60.9635L114.921 69.3425C113.614 70.2488 112.967 71.844 113.276 73.4049C113.696 75.5338 113.92 77.7443 113.92 80C113.92 82.2541 113.696 84.4556 113.275 86.5981C112.968 88.1582 113.614 89.7518 114.921 90.6575L127.011 99.0375L127.018 99.0424C127.862 99.6244 128.13 100.776 127.595 101.695L127.594 101.695L122.228 110.87C121.705 111.762 120.573 112.111 119.628 111.652L106.389 105.213C104.957 104.516 103.247 104.736 102.037 105.772C98.8544 108.499 95.1613 110.637 91.1174 112.041C89.6145 112.563 88.5639 113.926 88.4417 115.513L87.3117 130.183L87.3116 130.184C87.2313 131.231 86.3681 132.03 85.3199 132.03H74.6899C73.6474 132.03 72.7781 131.227 72.6982 130.184L72.6981 130.183L71.5681 115.513C71.4459 113.926 70.3952 112.563 68.8923 112.041C64.8484 110.637 61.1553 108.499 57.9723 105.772C56.7625 104.736 55.0529 104.516 53.6202 105.213L40.3802 111.653L40.3717 111.657C39.4345 112.116 38.3095 111.774 37.7854 110.875L37.7825 110.87L32.4125 101.69L32.4122 101.69C31.8863 100.791 32.1391 99.6343 32.9993 99.037L33 99.0364L45.0885 90.6575C46.3962 89.7511 47.0423 88.1559 46.7341 86.595C46.3137 84.4662 46.0899 82.2557 46.0899 80C46.0899 77.7458 46.3134 75.5443 46.7347 73.4018C47.0415 71.8418 46.3952 70.2482 45.0885 69.3425L32.9985 60.9625L32.9914 60.9575C32.1482 60.3758 31.8798 59.2253 32.4145 58.3064L32.4154 58.3047L37.7822 49.1302L37.7825 49.1297C38.3048 48.2377 39.4368 47.8891 40.3813 48.3475L40.382 48.3479L53.6202 54.787C55.0529 55.4839 56.7625 55.2641 57.9723 54.2276C61.1553 51.5006 64.8484 49.3632 68.8923 47.9585C70.3952 47.4365 71.4459 46.0734 71.5681 44.4872L72.6981 29.8172L72.6982 29.8158ZM70.9998 80C70.9998 75.0294 75.0293 71 79.9998 71C84.9704 71 88.9998 75.0294 88.9998 80C88.9998 84.9705 84.9704 89 79.9998 89C75.0293 89 70.9998 84.9705 70.9998 80ZM79.9998 63C70.611 63 62.9998 70.6111 62.9998 80C62.9998 89.3888 70.611 97 79.9998 97C89.3887 97 96.9998 89.3888 96.9998 80C96.9998 70.6111 89.3887 63 79.9998 63Z" fill="var(--spectrum-global-color-gray-800, #292929)"/>
</svg>
