<svg width="96" height="96" viewBox="0 0 96 96" xmlns="http://www.w3.org/2000/svg">
<path d="M50.9702 17.7C42.9421 17.7 36.109 22.7312 33.114 29.8482C31.9438 29.5363 30.7171 29.37 29.4502 29.37C21.2137 29.37 14.6902 36.3191 14.6902 44.7C14.6902 45.2793 14.7226 45.8474 14.7846 46.4052C10.1414 48.4837 6.9502 53.262 6.9502 58.77C6.9502 66.0539 12.5694 72.1102 19.7168 72.2297L19.7502 72.23H54.6002C55.7048 72.23 56.6002 71.3345 56.6002 70.23C56.6002 69.1254 55.7048 68.23 54.6002 68.23H19.7679C14.9622 68.1407 10.9502 64.0203 10.9502 58.77C10.9502 54.346 13.8038 50.7107 17.5791 49.6332C18.6002 49.3417 19.2155 48.3031 18.9807 47.2676C18.792 46.4356 18.6902 45.584 18.6902 44.7C18.6902 38.3608 23.5867 33.37 29.4502 33.37C30.8986 33.37 32.2685 33.6706 33.525 34.2151C34.0471 34.4413 34.6408 34.4345 35.1575 34.1962C35.6743 33.958 36.0651 33.511 36.2321 32.967C38.2563 26.3748 44.1317 21.7 50.9702 21.7C59.4442 21.7 66.4602 28.9013 66.4602 37.97V38.36C66.4602 39.4189 67.2856 40.2943 68.3428 40.3565C71.8571 40.5632 75.0138 42.2073 77.2968 44.7703C78.0315 45.595 79.2957 45.6681 80.1205 44.9334C80.9453 44.1987 81.0183 42.9344 80.2836 42.1096C77.74 39.2541 74.3065 37.2396 70.4145 36.5737C69.7264 26.1016 61.3583 17.7 50.9702 17.7Z" fill="var(--spectrum-global-color-gray-800, #292929)"/>
<path fill-rule="evenodd" d="M57.5996 61.57C57.5996 53.44 64.1896 46.85 72.3196 46.85C80.4496 46.85 87.0396 53.44 87.0396 61.57C87.0396 69.7 80.4496 76.29 72.3196 76.29C64.1896 76.29 57.5996 69.7 57.5996 61.57ZM78.5996 67.85C79.3796 67.07 79.3796 65.8 78.5996 65.02H78.6196L75.1696 61.57L78.6196 58.12C79.3996 57.34 79.3996 56.07 78.6196 55.29C77.8396 54.51 76.5696 54.51 75.7896 55.29L72.3396 58.74L68.8896 55.29C68.1096 54.51 66.8396 54.51 66.0596 55.29C65.2796 56.07 65.2796 57.34 66.0596 58.12L69.5096 61.57L66.0596 65.02C65.2796 65.8 65.2796 67.07 66.0596 67.85C66.4496 68.24 66.9596 68.44 67.4696 68.44C67.9796 68.44 68.4896 68.24 68.8796 67.85L72.3296 64.4L75.7796 67.85C76.1696 68.24 76.6796 68.44 77.1896 68.44C77.6996 68.44 78.2096 68.24 78.5996 67.85Z" fill="var(--spectrum-global-color-gray-800, #292929)"/>
</svg>
