<svg width="160" height="160" viewBox="0 0 160 160" xmlns="http://www.w3.org/2000/svg">
<path fill-rule="evenodd" d="M80 19.5C65.6406 19.5 54 31.1406 54 45.5V62.5H44.3636C35.1288 62.5 27 69.4086 27 78.6875V119.312C27 128.591 35.1288 135.5 44.3636 135.5H115.636C124.871 135.5 133 128.591 133 119.312V78.6875C133 69.4086 124.871 62.5 115.636 62.5H62V45.5C62 35.5588 70.0588 27.5 80 27.5C89.9412 27.5 98 35.5588 98 45.5C98 47.7091 99.7909 49.5 102 49.5C104.209 49.5 106 47.7091 106 45.5C106 31.1406 94.3594 19.5 80 19.5ZM58 70.5H44.3636C38.8374 70.5 35 74.5045 35 78.6875V119.312C35 123.495 38.8374 127.5 44.3636 127.5H115.636C121.163 127.5 125 123.495 125 119.312V78.6875C125 74.5045 121.163 70.5 115.636 70.5H58ZM84 101.924C84.6028 101.577 85.1607 101.15 85.6536 100.653C86.026 100.293 86.3594 99.8796 86.6536 99.4395C86.9466 99.013 87.1862 98.5462 87.3867 98.0664C87.5859 97.5729 87.7461 97.0801 87.8398 96.5599C87.9466 96.0534 88 95.5195 88 95C88 94.4798 87.9466 93.9466 87.8398 93.4395C87.7461 92.933 87.5859 92.4264 87.3867 91.9466C87.1862 91.4531 86.9466 91 86.6536 90.5599C86.3594 90.1198 86.026 89.7064 85.6536 89.3464C84.1732 87.8529 82.1068 87 80 87C77.8932 87 75.8268 87.8529 74.3464 89.3464C73.9727 89.7064 73.6393 90.1198 73.3464 90.5599C73.0664 91 72.8125 91.4531 72.6133 91.9466C72.4128 92.4264 72.2526 92.933 72.1602 93.4395C72.0534 93.9466 72 94.4798 72 95C72 95.5195 72.0534 96.0534 72.1602 96.5599C72.2526 97.0801 72.4128 97.5729 72.6133 98.0664C72.8125 98.5462 73.0664 99.013 73.3464 99.4395C73.6393 99.8796 73.9727 100.293 74.3464 100.653C74.8393 101.15 75.3972 101.577 76 101.924V109.5C76 111.709 77.7909 113.5 80 113.5C82.2091 113.5 84 111.709 84 109.5V101.924Z" fill="var(--spectrum-global-color-gray-800, #292929)"/>
</svg>
