<svg width="96" height="96" viewBox="0 0 96 96" xmlns="http://www.w3.org/2000/svg">
<path fill-rule="evenodd" d="M80.2418 24.8549C80.2418 19.5839 75.1518 15.8028 70.1051 17.3349L70.1044 17.3351L70.1039 17.3352L45.0872 24.917H27.2899C19.4019 24.917 13 31.3189 13 39.2069C13 47.0949 19.4019 53.4968 27.2899 53.4968H28.3334L29.0347 55.1023C29.7772 56.8019 30.7829 59.1026 31.8352 61.5071C33.9368 66.3094 36.2326 71.5439 36.9832 73.2133C38.1337 75.7721 40.0862 77.3414 42.3144 77.9671C44.4884 78.5776 46.7959 78.2576 48.7255 77.3203C50.5249 76.4462 52.1096 74.9796 52.9771 73.0383C53.8631 71.0556 53.9354 68.7175 52.9158 66.3068L52.9075 66.2876L47.678 54.2752L70.0976 61.0899L70.098 61.09C75.1416 62.622 80.2418 58.8513 80.2418 53.5704V24.8549ZM43.4376 28.917V49.4968H27.2899C21.611 49.4968 17 44.8858 17 39.2069C17 33.528 21.611 28.917 27.2899 28.917H43.4376ZM47.4377 50.0214L71.2605 57.2627L71.2609 57.2628C73.7387 58.0151 76.2418 56.1623 76.2418 53.5704V24.8549C76.2418 22.265 73.7408 20.411 71.2664 21.1626L71.2652 21.1629L47.4377 28.3843V50.0214ZM32.7014 53.5039C33.4437 55.2027 34.4484 57.5013 35.4996 59.9034C37.6061 64.7168 39.8913 69.9269 40.6314 71.573C41.3053 73.0718 42.3302 73.8168 43.3957 74.1161C44.5154 74.4305 45.8178 74.2857 46.9777 73.7223C48.0538 73.1996 48.8937 72.3719 49.3251 71.4064C49.7372 70.4842 49.8387 69.3059 49.2355 67.874L42.9796 53.5039H32.7014Z" fill="var(--spectrum-global-color-gray-800, #292929)"/>
</svg>
