<svg width="48" height="48" viewBox="0 0 48 48" xmlns="http://www.w3.org/2000/svg">
<path fill-rule="evenodd" d="M16.7557 15.679C18.4553 11.7643 22.2459 9 26.699 9C32.4772 9 37.1315 13.6402 37.5697 19.4372C42.1408 20.278 45.55 24.4291 45.55 29.3405C45.55 34.8445 41.2645 39.4 35.8649 39.4C35.8559 39.4 35.8476 39.3999 35.84 39.3998C35.8326 39.3999 35.8252 39.4 35.8178 39.4H9.46422C9.4136 39.4 9.36368 39.397 9.31463 39.3911C5.34467 39.2524 2.25 35.869 2.25 31.8154C2.25 28.7571 4.00483 26.096 6.56731 24.9024C6.53946 24.6236 6.5245 24.3393 6.5245 24.0499C6.5245 19.3473 10.188 15.4414 14.8202 15.4414C15.4872 15.4414 16.1352 15.5242 16.7557 15.679ZM35.7618 36.9C35.7826 36.8991 35.8034 36.8987 35.8242 36.8988C35.8423 36.8989 35.8575 36.8992 35.8681 36.8996L35.8797 36.9C39.7907 36.8916 43.05 33.5619 43.05 29.3405C43.05 25.2633 40.0053 22.0144 36.2747 21.7942C35.6045 21.7546 35.0852 21.1927 35.0986 20.5215C35.1 20.4518 35.1012 20.4213 35.1021 20.3996C35.103 20.3785 35.1035 20.3656 35.1035 20.3331C35.1035 15.403 31.29 11.5 26.699 11.5C22.9923 11.5 19.802 14.0354 18.7013 17.6155C18.5969 17.955 18.3531 18.2341 18.0306 18.383C17.7082 18.5319 17.3376 18.5366 17.0115 18.396C16.3335 18.1036 15.5951 17.9414 14.8202 17.9414C11.6699 17.9414 9.0245 20.6245 9.0245 24.0499C9.0245 24.5217 9.08113 24.9854 9.18216 25.4417C9.32505 26.0869 8.94094 26.7319 8.30553 26.9137C6.28613 27.4914 4.75 29.4404 4.75 31.8154C4.75 34.6441 6.9118 36.8504 9.48579 36.8949C9.51755 36.8954 9.54902 36.8971 9.58016 36.9H35.7618Z" fill="var(--spectrum-global-color-gray-800, #292929)"/>
</svg>
