<svg width="160" height="160" viewBox="0 0 160 160" xmlns="http://www.w3.org/2000/svg">
<path fill-rule="evenodd" d="M80 28C62.246 28 47.8534 42.3925 47.8534 60.1466C47.8534 77.9006 62.246 92.2931 80 92.2931C97.7541 92.2931 112.147 77.9006 112.147 60.1466C112.147 42.3925 97.7541 28 80 28ZM39.8534 60.1466C39.8534 37.9742 57.8277 20 80 20C102.172 20 120.147 37.9742 120.147 60.1466C120.147 71.1185 115.745 81.0624 108.612 88.309L121.031 119.047C122.819 123.474 118.97 128.116 114.288 127.177L104.72 125.26L99.17 133.286C96.4539 137.213 90.4609 136.548 88.672 132.121L80.0005 110.658L71.339 132.096C69.5438 136.539 63.5211 137.188 60.8199 133.23L55.3179 125.167L45.7593 127.145C41.0666 128.116 37.1853 123.465 38.9805 119.022L51.3891 88.3097C44.2552 81.063 39.8534 71.1188 39.8534 60.1466ZM57.8625 93.6432L47.7979 118.554L55.0026 117.063C57.3746 116.572 59.809 117.556 61.1743 119.557L65.3214 125.634L75.6537 100.061C69.1274 99.358 63.0695 97.0915 57.8625 93.6432ZM84.3472 100.06C90.8735 99.3578 96.9313 97.0911 102.138 93.6427L112.224 118.604L105.003 117.157C102.654 116.686 100.251 117.657 98.8887 119.627L94.7 125.684L84.3472 100.06Z" fill="var(--spectrum-global-color-gray-800, #292929)"/>
</svg>
