<svg width="48" height="48" viewBox="0 0 48 48" xmlns="http://www.w3.org/2000/svg">
<path fill-rule="evenodd" d="M39.75 24C39.75 15.3015 32.6985 8.25 24 8.25C20.1007 8.25 16.5324 9.66696 13.7819 12.0141L35.9859 34.2181C38.333 31.4676 39.75 27.8993 39.75 24ZM34.2182 35.9859L12.0141 13.7818C9.66699 16.5324 8.25 20.1007 8.25 24C8.25 32.6985 15.3015 39.75 24 39.75C27.8993 39.75 31.4676 38.333 34.2182 35.9859ZM24 5.75C34.0792 5.75 42.25 13.9208 42.25 24C42.25 34.0792 34.0792 42.25 24 42.25C13.9208 42.25 5.75 34.0792 5.75 24C5.75 13.9208 13.9208 5.75 24 5.75Z" fill="var(--spectrum-global-color-gray-800, #292929)"/>
</svg>
