<svg width="160" height="160" viewBox="0 0 160 160" xmlns="http://www.w3.org/2000/svg">
<path fill-rule="evenodd" d="M114.542 24.7792C114.81 22.5864 116.805 21.0258 118.997 21.2936C130.155 22.6561 140.577 29.0666 146.637 39.5636C152.747 50.1464 153.044 62.4914 148.531 72.8889C147.651 74.9153 145.295 75.8451 143.269 74.9656C141.242 74.086 140.313 71.7302 141.192 69.7037C144.739 61.531 144.498 51.8588 139.709 43.5636C134.959 35.3354 126.798 30.3056 118.028 29.2346C115.835 28.9668 114.274 26.9721 114.542 24.7792ZM11.0715 96.2718C5.54865 86.706 8.82616 74.4742 18.392 68.9513L80.9398 32.8393C90.5056 27.3165 102.737 30.594 108.26 40.1598L127.002 72.6208C132.524 82.1866 129.247 94.4184 119.681 99.9413L57.1333 136.053C47.5675 141.576 35.3357 138.299 29.8128 128.733L11.0715 96.2718ZM22.392 75.8795C16.6525 79.1932 14.686 86.5323 17.9997 92.2718L18.4229 93.0048L101.755 44.8928L101.332 44.1598C98.0184 38.4203 90.6793 36.4538 84.9398 39.7675L22.392 75.8795ZM36.741 124.733L22.4229 99.933L105.755 51.821L120.073 76.6208C123.387 82.3603 121.421 89.6994 115.681 93.0131L53.1333 129.125C47.3938 132.439 40.0547 130.472 36.741 124.733ZM117.744 35.2385C115.551 34.9707 113.556 36.5313 113.288 38.7241C113.021 40.917 114.581 42.9117 116.774 43.1795C121.243 43.7252 125.393 46.2859 127.81 50.4725C130.247 54.6931 130.372 59.6133 128.565 63.7779C127.685 65.8044 128.615 68.1602 130.641 69.0398C132.668 69.9193 135.024 68.9896 135.903 66.9631C138.676 60.5737 138.496 52.9808 134.738 46.4725C131.011 40.017 124.6 36.0758 117.744 35.2385ZM33.8921 100.635C31.979 101.74 31.3236 104.186 32.4283 106.099C33.533 108.012 35.9794 108.668 37.8925 107.563L70.2728 88.8659C72.1859 87.7613 72.8412 85.3149 71.7366 83.4017C70.6319 81.4886 68.1855 80.8333 66.2724 81.9379L33.8921 100.635ZM39.44 118.244C38.3353 116.331 38.9907 113.884 40.9038 112.78L57.094 103.431C59.0071 102.326 61.4535 102.982 62.5582 104.895C63.6628 106.808 63.0075 109.254 61.0943 110.359L44.9042 119.708C42.9911 120.812 40.5447 120.157 39.44 118.244ZM85.5081 70.8362C83.595 71.9409 82.9396 74.3873 84.0443 76.3004C85.1489 78.2135 87.5953 78.8688 89.5084 77.7642L104.689 68.9986C106.602 67.8939 107.258 65.4475 106.153 63.5344C105.048 61.6213 102.602 60.9659 100.689 62.0706L85.5081 70.8362Z" fill="var(--spectrum-global-color-gray-800, #292929)"/>
</svg>
