<svg width="160" height="160" viewBox="0 0 160 160" xmlns="http://www.w3.org/2000/svg">
<path d="M43.9043 93.334V140.244" stroke="var(--spectrum-global-color-gray-800, #292929)" stroke-width="8" stroke-linecap="round" stroke-linejoin="round"/>
<path d="M34.5234 140.244H53.2876" stroke="var(--spectrum-global-color-gray-800, #292929)" stroke-width="8" stroke-linecap="round" stroke-linejoin="round"/>
<path d="M20.4512 93.334H67.3615" stroke="var(--spectrum-global-color-gray-800, #292929)" stroke-width="8" stroke-linecap="round" stroke-linejoin="round"/>
<path d="M20.4512 93.334V102.716" stroke="var(--spectrum-global-color-gray-800, #292929)" stroke-width="8" stroke-linecap="round" stroke-linejoin="round"/>
<path d="M67.3613 93.334V102.716" stroke="var(--spectrum-global-color-gray-800, #292929)" stroke-width="8" stroke-linecap="round" stroke-linejoin="round"/>
<path fill-rule="evenodd" d="M135.987 20.1646C134.5 17.8283 131.955 16.2664 129.154 16.085ZM129.154 16.085C127.42 15.7717 125.873 16.3744 125.028 16.7958C123.917 17.3498 122.862 18.1672 122.051 19.1038L122.046 19.1095L101.506 43.0141L101.5 43.0214C99.6706 45.1607 98.9432 48.0563 99.5364 50.8164C100.124 53.5521 101.959 55.932 104.579 57.102C104.579 57.1023 104.58 57.1025 104.581 57.1028L108.83 59.0058L105.066 68.287C105.065 68.2887 105.065 68.2904 105.064 68.292C103.962 70.9944 104.206 74.0991 105.793 76.5789C107.384 79.0771 110.173 80.6658 113.172 80.6658C115.727 80.6658 118.064 79.5341 119.705 77.6367C119.705 77.6369 119.705 77.6365 119.705 77.6367L140.132 54.0641C142.005 51.9084 142.722 48.9825 142.133 46.2255C141.543 43.469 139.689 41.0808 137.038 39.9235C137.036 39.9224 137.033 39.9214 137.031 39.9203L132.786 38.0532L136.705 28.4628L136.708 28.4556C137.804 25.7581 137.579 22.6627 135.988 20.1655M128.099 24.3401L107.58 48.2205C107.579 48.2212 107.579 48.222 107.578 48.2227C107.381 48.4544 107.286 48.8013 107.358 49.1355C107.435 49.4948 107.659 49.716 107.841 49.7975L107.846 49.7994L119.145 54.8591L112.476 71.3033L112.472 71.3128C112.326 71.6692 112.382 72.0331 112.532 72.2672L112.536 72.2741L112.541 72.2809C112.709 72.545 112.991 72.6658 113.172 72.6658C113.294 72.6658 113.459 72.6287 113.655 72.4024L134.092 48.8186C134.279 48.6034 134.385 48.2527 134.309 47.8978C134.234 47.545 134.017 47.3335 133.836 47.2548L133.83 47.2519L122.433 42.2395L129.297 25.4437C129.297 25.4428 129.297 25.442 129.298 25.4411C129.451 25.0608 129.391 24.7001 129.241 24.4648L129.238 24.4603C129.063 24.1845 128.775 24.0672 128.607 24.0672H128.412C128.385 24.0862 128.357 24.107 128.328 24.1295C128.223 24.2106 128.146 24.2864 128.102 24.3369C128.101 24.338 128.1 24.3391 128.099 24.3401Z" fill="var(--spectrum-global-color-gray-800, #292929)"/>
<path fill-rule="evenodd" d="M71.207 36.6673C71.207 31.5127 67.0284 27.334 61.8737 27.334H24.9987C19.844 27.334 15.6654 31.5127 15.6654 36.6673V57.9173C15.6654 58.1823 15.6764 58.4447 15.6981 58.704L25.7043 43.2452L25.7054 43.2435C28.7342 38.5615 35.5905 38.5615 38.6195 43.2432L38.6198 43.2438L38.6207 43.2452L47.7662 57.3719L52.2144 50.6465L52.2312 50.6214C55.2762 46.0922 61.9516 46.0776 65.0002 50.6204L71.0571 59.5928C71.1556 59.0492 71.207 58.4893 71.207 57.9173V36.6673ZM32.1625 47.9903L20.4577 66.0734C21.8017 66.8233 23.3503 67.2507 24.9987 67.2507H41.2324L42.9501 64.6535L32.1625 47.9903ZM65.9449 66.3183C64.7146 66.9156 63.3333 67.2507 61.8737 67.2507H50.8239L58.6187 55.4654L65.9449 66.3183ZM61.8737 19.334C71.4466 19.334 79.207 27.0944 79.207 36.6673V57.9173C79.207 67.4903 71.4466 75.2507 61.8737 75.2507H24.9987C15.4258 75.2507 7.66536 67.4902 7.66536 57.9173V36.6673C7.66536 27.0944 15.4258 19.334 24.9987 19.334H61.8737ZM57.9737 35.6186C57.9737 38.0157 59.917 39.9589 62.314 39.9589C64.7111 39.9589 66.6543 38.0157 66.6543 35.6186C66.6543 33.2215 64.7111 31.2783 62.314 31.2783C59.917 31.2783 57.9737 33.2215 57.9737 35.6186Z" fill="var(--spectrum-global-color-gray-800, #292929)"/>
<path fill-rule="evenodd" d="M148.5 106.667C148.5 101.513 144.321 97.334 139.167 97.334H103.333C98.1787 97.334 94 101.513 94 106.667V127.917C94 133.072 98.1787 137.251 103.333 137.251H139.167C144.321 137.251 148.5 133.072 148.5 127.917V106.667ZM139.167 89.334C148.74 89.334 156.5 97.0944 156.5 106.667V127.917C156.5 137.49 148.74 145.251 139.167 145.251H103.333C93.7604 145.251 86 137.49 86 127.917V106.667C86 97.0944 93.7604 89.334 103.333 89.334H139.167ZM117.792 108.414L130.088 115.433C131.465 116.219 131.463 118.18 130.084 118.963L117.77 125.953C116.391 126.736 114.67 125.754 114.672 124.185L114.689 110.175C114.691 108.606 116.415 107.627 117.792 108.414Z" fill="var(--spectrum-global-color-gray-800, #292929)"/>
</svg>
