<svg width="48" height="48" viewBox="0 0 48 48" xmlns="http://www.w3.org/2000/svg">
<path fill-rule="evenodd" d="M22.6202 6.00977C20.9129 6.00977 19.5132 7.31697 19.3838 9.0148L19.1238 12.428C18.1874 12.8243 17.3095 13.329 16.5057 13.9304L13.4296 12.437L13.4277 12.4361C11.8917 11.6856 10.0585 12.2629 9.2031 13.7155L9.20309 13.7155L9.2013 13.7185L7.7931 16.1255L7.79207 16.1272C6.92967 17.5937 7.35304 19.478 8.7504 20.4387L8.75306 20.4405L11.5488 22.3773C11.4787 22.9066 11.4402 23.4495 11.4402 23.9998C11.4402 24.55 11.4787 25.0929 11.5488 25.6223L8.74838 27.5622L8.74498 27.5646C7.35022 28.5377 6.94462 30.4056 7.78788 31.8651L7.78786 31.8651L7.7913 31.871L9.2013 34.281L9.2031 34.2841C10.0584 35.7365 11.8915 36.3139 13.4275 35.5636L13.4296 35.5625L16.5057 34.0692C17.3095 34.6705 18.1874 35.1752 19.1238 35.5716L19.3838 38.9847L19.3839 38.9856C19.5136 40.672 20.9221 41.9898 22.6202 41.9898H25.4102C27.1036 41.9898 28.5169 40.6865 28.6466 38.9847L28.9066 35.5716C29.8427 35.1753 30.7203 34.6708 31.524 34.0697L34.5908 35.5625L34.5923 35.5633C36.1284 36.314 37.9619 35.7367 38.8173 34.2841L38.8191 34.281L40.2273 31.8741L40.2282 31.8726C41.0908 30.4061 40.6675 28.5216 39.27 27.5608L39.2674 27.559L36.4716 25.6223C36.5417 25.0929 36.5802 24.55 36.5802 23.9998C36.5802 23.4495 36.5417 22.9066 36.4716 22.3773L39.272 20.4373L39.2754 20.4349C40.6702 19.4618 41.0758 17.5939 40.2326 16.1344L40.2291 16.1285L38.8191 13.7185L38.8173 13.7155C37.9619 12.2629 36.1286 11.6855 34.5925 12.4361L34.5908 12.437L31.524 13.9298C30.7203 13.3287 29.8427 12.8242 28.9066 12.428L28.6466 9.0148L28.6465 9.01389C28.5168 7.32757 27.1083 6.00977 25.4102 6.00977H22.6202ZM21.8766 9.20473C21.9072 8.80257 22.2275 8.50977 22.6202 8.50977H25.4102C25.7921 8.50977 26.1236 8.81196 26.1539 9.20564L26.4738 13.4047C26.5116 13.9005 26.8396 14.3268 27.3092 14.4903C28.5121 14.9091 29.6052 15.5406 30.546 16.3482C30.9242 16.6729 31.4591 16.7418 31.9073 16.5237L35.6873 14.6837L35.6896 14.6825C36.0328 14.5146 36.4579 14.6369 36.6625 14.983L36.6631 14.9841L38.0679 17.3851L38.0692 17.3874C38.2639 17.7271 38.1697 18.157 37.8463 18.3837L37.845 18.3846L34.3984 20.7722C33.9897 21.0554 33.7876 21.5538 33.8838 22.0416C34.0096 22.6792 34.0802 23.3381 34.0802 23.9998C34.0802 24.6615 34.0096 25.3203 33.8838 25.9579C33.7876 26.4457 33.9897 26.9442 34.3984 27.2273L37.8484 29.6173L37.8531 29.6205C38.173 29.84 38.2688 30.2732 38.0731 30.6055L38.0713 30.6085L36.6631 33.0155L36.6625 33.0165C36.458 33.3626 36.0329 33.4849 35.6896 33.317L35.6873 33.3158L31.9073 31.4758C31.4591 31.2577 30.9242 31.3266 30.546 31.6513C29.6052 32.459 28.5121 33.0905 27.3092 33.5093C26.8396 33.6727 26.5116 34.099 26.4738 34.5948L26.1538 38.7948C26.1235 39.193 25.7968 39.4898 25.4102 39.4898H22.6202C22.2384 39.4898 21.9071 39.1878 21.8766 38.7943L21.8765 38.7939L21.5566 34.5948C21.5188 34.099 21.1908 33.6727 20.7212 33.5093C19.5183 33.0905 18.4252 32.459 17.4844 31.6513C17.1066 31.327 16.5723 31.2578 16.1243 31.4753L12.3343 33.3153L12.3308 33.317C11.9876 33.4849 11.5625 33.3626 11.358 33.0166L11.3573 33.0155L9.95254 30.6144L9.95125 30.6122C9.75647 30.2725 9.85066 29.8425 10.1741 29.6158L10.1754 29.6149L13.622 27.2273C14.0307 26.9442 14.2328 26.4457 14.1366 25.9579C14.0109 25.3203 13.9402 24.6615 13.9402 23.9998C13.9402 23.3381 14.0109 22.6792 14.1366 22.0416C14.2328 21.5538 14.0307 21.0554 13.622 20.7722L10.172 18.3822L10.172 18.3822L10.1674 18.379C9.84739 18.1595 9.75163 17.7264 9.94732 17.3941L9.94912 17.391L11.3573 14.9841L11.358 14.9829C11.5625 14.6369 11.9876 14.5146 12.3308 14.6825L12.3343 14.6843L16.1243 16.5243C16.5723 16.7417 17.1066 16.6726 17.4844 16.3482C18.4252 15.5406 19.5183 14.9091 20.7212 14.4903C21.1908 14.3268 21.5188 13.9005 21.5566 13.4047L21.8766 9.20473ZM21.59 23.9997C21.59 22.6687 22.669 21.5897 24 21.5897C25.331 21.5897 26.41 22.6687 26.41 23.9997C26.41 25.3307 25.331 26.4097 24 26.4097C22.669 26.4097 21.59 25.3307 21.59 23.9997ZM24 19.0897C21.2883 19.0897 19.09 21.288 19.09 23.9997C19.09 26.7114 21.2883 28.9097 24 28.9097C26.7117 28.9097 28.91 26.7114 28.91 23.9997C28.91 21.288 26.7117 19.0897 24 19.0897Z" fill="var(--spectrum-global-color-gray-800, #292929)"/>
</svg>
