<svg width="96" height="96" viewBox="0 0 96 96" xmlns="http://www.w3.org/2000/svg">
<path fill-rule="evenodd" d="M27.9682 19.9492C25.2006 19.9492 22.9492 22.2006 22.9492 24.9682V53.9975C22.9492 67.8255 34.1788 79.0498 48.0015 79.0498C61.8295 79.0498 73.0538 67.8202 73.0538 53.9975V24.9682C73.0538 22.2006 70.8024 19.9492 68.0348 19.9492H27.9682ZM18.9492 24.9682C18.9492 19.9915 22.9915 15.9492 27.9682 15.9492H68.0348C73.0115 15.9492 77.0538 19.9915 77.0538 24.9682V53.9975C77.0538 70.0288 64.0392 83.0498 48.0015 83.0498C31.9702 83.0498 18.9492 70.0352 18.9492 53.9975V24.9682ZM49.959 37.135C51.6293 34.2394 55.8061 34.2392 57.4768 37.1344L55.7448 38.1344L57.4773 37.1352L64.8292 49.8679L64.8296 49.8687C66.4974 52.7603 64.4181 56.3775 61.0733 56.3775H46.3686C43.0238 56.3775 40.9445 52.7603 42.6123 49.8687L42.6124 49.8685L49.9588 37.1352L51.6913 38.1344L49.959 37.135ZM54.0123 39.1337C53.8811 38.9063 53.555 38.9063 53.4238 39.1337L53.4237 39.1339L46.0773 51.8673L46.0772 51.8675C45.9437 52.0993 46.1104 52.3775 46.3686 52.3775H61.0733C61.3315 52.3775 61.4982 52.0994 61.3649 51.8676L61.3647 51.8673L54.0128 39.1345L54.0123 39.1337ZM41.4335 41.2346C41.9859 40.2781 41.6583 39.0548 40.7017 38.5024C39.7452 37.95 38.522 38.2776 37.9696 39.2342L29.7983 53.3832C29.2459 54.3398 29.5735 55.563 30.5301 56.1154C31.4866 56.6678 32.7098 56.3402 33.2622 55.3837L41.4335 41.2346Z" fill="var(--spectrum-global-color-gray-800, #292929)"/>
</svg>
