<svg width="48" height="48" viewBox="0 0 48 48" xmlns="http://www.w3.org/2000/svg">
<path fill-rule="evenodd" d="M28.543 9.01436L28.5432 9.01468L42.453 33.1144L42.4532 33.1147C44.4725 36.6158 41.9549 40.9892 37.9104 40.9892H10.0904C6.04584 40.9892 3.52816 36.6158 5.54755 33.1147L5.54774 33.1144L19.3817 9.14605C19.4009 9.10133 19.4229 9.05746 19.4476 9.01468C21.4685 5.51084 26.5218 5.51073 28.543 9.01436ZM21.6788 10.1555C22.7777 8.42845 25.3398 8.46455 26.3776 10.2638L26.3777 10.2641L40.2876 34.3638L40.2877 34.3641C41.348 36.2029 40.0257 38.4892 37.9104 38.4892H10.0904C7.97499 38.4892 6.65271 36.2029 7.71297 34.3641L7.71315 34.3638L21.623 10.2641C21.6435 10.2286 21.6621 10.1923 21.6788 10.1555ZM24.0007 14.9893C24.6911 14.9893 25.2507 15.5489 25.2507 16.2393V27.2393C25.2507 27.9296 24.6911 28.4893 24.0007 28.4893C23.3103 28.4893 22.7507 27.9296 22.7507 27.2393V16.2393C22.7507 15.5489 23.3103 14.9893 24.0007 14.9893ZM25.7507 32.7393C25.7507 33.7058 24.9672 34.4893 24.0007 34.4893C23.0342 34.4893 22.2507 33.7058 22.2507 32.7393C22.2507 31.7728 23.0342 30.9893 24.0007 30.9893C24.9672 30.9893 25.7507 31.7728 25.7507 32.7393Z" fill="var(--spectrum-global-color-gray-800, #292929)"/>
</svg>
