<svg width="160" height="160" viewBox="0 0 160 160" xmlns="http://www.w3.org/2000/svg">
<path fill-rule="evenodd" d="M80.0002 27.9629C77.859 27.9629 75.7481 28.0922 73.6747 28.3436C73.7233 28.3779 73.7724 28.4121 73.8219 28.4463C75.8543 29.8481 77.922 30.5905 79.4112 30.5905C81.3217 30.5905 83.0471 29.7932 84.653 28.4612C84.7576 28.3745 84.8608 28.2862 84.9626 28.1965C83.3293 28.0419 81.674 27.9629 80.0002 27.9629ZM27.9766 79.9865C27.9766 64.5697 34.6825 50.7192 45.3367 41.1928C46.0368 42.4744 46.8536 43.8222 47.7637 45.1122C49.6351 47.7648 52.5157 51.0756 56.2462 52.1415C59.5333 53.0806 63.343 52.9429 66.223 52.8388C66.5266 52.8278 66.8198 52.8172 67.1011 52.8083C68.7318 52.7565 70.0443 52.7427 71.1305 52.8539C72.2452 52.9679 72.7014 53.1791 72.8396 53.2713C73.147 53.4762 73.2267 53.6379 73.2527 53.701C73.2853 53.7802 73.319 53.9235 73.2786 54.159C73.1892 54.6808 72.7527 55.4363 71.8801 55.9211C69.807 57.0728 67.7374 58.5195 66.1854 60.5149C64.5592 62.6057 63.6436 65.1172 63.6436 68.0684C63.6436 68.9306 63.5753 69.4673 63.4946 69.7875L63.4862 69.8197C63.2126 69.875 62.6884 69.9237 61.7967 69.8494C61.531 69.8272 61.2443 69.8018 60.9395 69.7748L60.9394 69.7748C58.621 69.5694 55.2515 69.2709 52.0713 69.6036C48.5316 69.9738 43.976 71.248 41.5131 75.5587C40.4334 77.4486 39.1834 80.5961 39.4811 84.3578C39.7916 88.2822 41.7483 92.3509 46.1939 95.908C51.3147 100.005 56.9465 100.884 64.3167 101.704C68.5179 102.17 70.8983 103.07 72.2559 104.029C73.447 104.87 74.1023 105.927 74.4314 107.574C75.0064 110.452 74.0356 114.762 71.9976 120.02C71.0228 122.535 69.8855 125.074 68.7526 127.538C68.506 128.075 68.2578 128.612 68.0111 129.145L68.0091 129.149L68.0059 129.156C67.8015 129.598 67.5982 130.038 67.3977 130.473C44.7551 124.84 27.9766 104.372 27.9766 79.9865ZM54.3006 40.5004C53.3205 39.1111 52.4593 37.6042 51.7864 36.2705C55.6437 33.7759 59.8522 31.778 64.3214 30.3671C65.6548 32.1465 67.4387 33.762 69.2796 35.0317C72.0544 36.9456 75.7034 38.5905 79.4112 38.5905C83.7371 38.5905 87.2086 36.7353 89.7603 34.6188C91.5785 33.1108 93.0285 31.3918 94.1197 29.9018C95.1177 30.1826 96.1035 30.4924 97.0762 30.8302C96.5036 34.9826 96.0228 40.1038 96.717 44.7542C97.5399 50.2664 100.225 56.1032 107.203 58.1587C114.655 60.3537 121.037 57.7902 125.217 54.2405C126.829 57.0653 128.183 60.0558 129.249 63.18C126.61 62.7113 123.418 62.2524 120.118 62.0508C116.09 61.8047 111.606 61.9209 107.692 63.0553C103.74 64.2008 99.798 66.581 98.0828 71.2111C93.2243 84.326 99.7833 92.2723 101.477 93.9659C104.03 96.5195 106.65 97.713 108.576 98.5902C108.81 98.6967 109.034 98.7986 109.246 98.8976C111.108 99.7675 112.434 100.525 113.786 102.477C114.923 104.12 115.413 106.714 115.496 110.233C115.529 111.63 115.5 113.014 115.47 114.431C115.464 114.739 115.457 115.048 115.451 115.359C115.434 116.244 115.421 117.165 115.438 118.073C106.149 126.721 93.6924 132.01 80.0002 132.01C78.5132 132.01 77.0409 131.948 75.5856 131.825C75.7289 131.515 75.8742 131.2 76.0214 130.88C77.1669 128.388 78.3894 125.666 79.4569 122.911C81.5036 117.631 83.3476 111.368 82.2763 106.007C81.607 102.657 79.9729 99.6844 76.87 97.4937C73.9338 95.4206 70.0157 94.2876 65.2004 93.7524C57.7437 92.9238 54.3086 92.1551 51.192 89.6614C48.2958 87.3441 47.5754 85.2337 47.4562 83.7268C47.324 82.0572 47.8916 80.521 48.4594 79.5273C48.9719 78.6301 50.1838 77.8447 52.9036 77.5602C55.2572 77.314 57.8062 77.5347 60.2023 77.7422C60.5151 77.7693 60.8254 77.7962 61.1323 77.8217C63.9951 78.0603 67.113 77.7229 69.3116 75.4022C71.3764 73.2227 71.6436 70.2688 71.6436 68.0684C71.6436 66.9003 71.9637 66.1162 72.5002 65.4264C73.1109 64.6413 74.1308 63.8223 75.7652 62.9143C78.6 61.3394 80.6351 58.5935 81.1636 55.5107C81.7228 52.2489 80.5274 48.7817 77.2773 46.6149C75.5618 45.4713 73.5978 45.0646 71.9448 44.8954C70.2634 44.7234 68.4605 44.7611 66.8472 44.8123C66.7205 44.8163 66.5947 44.8204 66.47 44.8244C66.378 44.8274 66.2865 44.8304 66.1956 44.8334L66.1944 44.8334C62.9699 44.9385 60.4444 45.0208 58.444 44.4493C57.5608 44.1969 56.0474 42.9764 54.3006 40.5004ZM123.44 108.622C128.866 100.409 132.024 90.5665 132.024 79.9865C132.024 77.1832 131.802 74.4317 131.375 71.7485C130.811 71.628 130.182 71.4978 129.497 71.3641C126.769 70.8311 123.23 70.2558 119.63 70.0359C115.975 69.8127 112.549 69.9768 109.919 70.7391C107.327 71.4904 106.091 72.6235 105.585 73.9902C102.202 83.1202 106.727 87.9021 107.134 88.3096C108.621 89.7972 109.978 90.4235 111.906 91.313L111.909 91.3145C112.141 91.4217 112.382 91.5328 112.632 91.6496C115.055 92.7817 117.848 94.2903 120.363 97.9235C122.616 101.177 123.257 105.177 123.44 108.622ZM120.695 47.5738C116.339 42.1116 110.906 37.546 104.717 34.1984C104.356 37.4394 104.203 40.7189 104.629 43.573C105.221 47.5381 106.717 49.6758 109.463 50.4847C114.218 51.8852 118.317 49.9083 120.695 47.5738ZM19.9766 79.9865C19.9766 46.8364 46.8501 19.9629 80.0002 19.9629C113.15 19.9629 140.024 46.8364 140.024 79.9865C140.024 113.137 113.15 140.01 80.0002 140.01C46.8501 140.01 19.9766 113.137 19.9766 79.9865Z" fill="var(--spectrum-global-color-gray-800, #292929)"/>
</svg>
