<svg width="160" height="160" viewBox="0 0 160 160" xmlns="http://www.w3.org/2000/svg">
<path fill-rule="evenodd" d="M77.0275 19.8459C101.052 18.1314 121 37.3174 121 61.1243C121 75.0283 114.199 87.3358 103.773 94.8363C101.708 96.3218 100.445 98.8476 100.445 101.602V125.509C100.445 131.12 95.9317 135.74 90.2779 135.74H69.7224C64.0686 135.74 59.5557 131.12 59.5557 125.509V101.596C59.5557 98.8681 58.2229 96.2968 55.9696 94.6491C44.9135 86.5648 38.0139 73.0422 39.1149 57.9909C40.5996 37.6961 56.8556 21.2854 77.0275 19.8459ZM113 61.1243C113 41.8407 96.8723 26.45 77.5969 27.8256C61.4501 28.9779 48.2928 42.1818 47.0936 58.5746C46.2016 70.7676 51.7751 81.6715 60.6916 88.1914C64.9315 91.2916 67.5557 96.2259 67.5557 101.596V111.016C67.7014 110.998 67.8498 110.99 68.0001 110.99H92.4446V101.602C92.4446 96.4601 94.7992 91.4367 99.1008 88.3421C107.511 82.2916 113 72.3643 113 61.1243ZM92.4446 118.49H68.0001C67.8498 118.49 67.7014 118.481 67.5557 118.464V125.509C67.5557 126.78 68.5646 127.74 69.7224 127.74H90.2779C91.4356 127.74 92.4446 126.78 92.4446 125.509V118.49ZM80.2501 40.7396C80.2501 38.6686 81.9291 36.9896 84.0001 36.9896C95.2426 36.9896 104.75 45.6211 104.75 56.7396C104.75 58.8107 103.071 60.4896 101 60.4896C98.9291 60.4896 97.2501 58.8107 97.2501 56.7396C97.2501 50.1851 91.5353 44.4896 84.0001 44.4896C81.9291 44.4896 80.2501 42.8107 80.2501 40.7396Z" fill="var(--spectrum-global-color-gray-800, #292929)"/>
</svg>
