<svg width="48" height="48" viewBox="0 0 48 48" xmlns="http://www.w3.org/2000/svg">
<path fill-rule="evenodd" d="M42.3839 17.3839C42.872 16.8957 42.872 16.1043 42.3839 15.6161L35.3839 8.61612C34.8957 8.12796 34.1043 8.12796 33.6161 8.61612C33.128 9.10427 33.128 9.89573 33.6161 10.3839L38.2502 15.018H18.7012C11.7944 15.018 6.19531 20.6171 6.19531 27.5239C6.19531 34.4307 11.7944 40.0297 18.7012 40.0297H26.6757C27.3661 40.0297 27.9257 39.4701 27.9257 38.7797C27.9257 38.0894 27.3661 37.5297 26.6757 37.5297H18.7012C13.1751 37.5297 8.69531 33.05 8.69531 27.5239C8.69531 21.9978 13.1751 17.518 18.7012 17.518H38.7142L33.6161 22.6161C33.128 23.1043 33.128 23.8957 33.6161 24.3839C34.1043 24.872 34.8957 24.872 35.3839 24.3839L42.3839 17.3839Z" fill="var(--spectrum-global-color-gray-800, #292929)"/>
</svg>
