<svg width="160" height="160" viewBox="0 0 160 160" xmlns="http://www.w3.org/2000/svg">
<path fill-rule="evenodd" d="M24.2344 58.0391C24.2344 46.9934 33.1887 38.0391 44.2344 38.0391H115.766C126.811 38.0391 135.766 46.9934 135.766 58.0391V101.962C135.766 113.008 126.811 121.962 115.766 121.962H44.2344C33.1887 121.962 24.2344 113.008 24.2344 101.962V58.0391ZM44.2344 46.0391C37.607 46.0391 32.2344 51.4116 32.2344 58.0391V101.962C32.2344 108.589 37.607 113.962 44.2344 113.962H115.766C122.393 113.962 127.766 108.589 127.766 101.962V58.0391C127.766 51.4116 122.393 46.0391 115.766 46.0391H44.2344ZM69.0977 100.706C69.0977 98.4969 70.8885 96.7061 73.0977 96.7061H114.51C116.719 96.7061 118.51 98.4969 118.51 100.706C118.51 102.915 116.719 104.706 114.51 104.706H73.0977C70.8885 104.706 69.0977 102.915 69.0977 100.706ZM42.4137 101.826C41.0309 103.549 41.3066 106.067 43.0294 107.45C44.7522 108.832 47.2699 108.557 48.6527 106.834L68.3236 82.3259C69.5044 80.8548 69.4969 78.7587 68.3056 77.296L48.6347 53.1443C47.2396 51.4314 44.72 51.1738 43.0071 52.5689C41.2943 53.964 41.0366 56.4836 42.4317 58.1964L60.0603 79.8405L42.4137 101.826Z" fill="var(--spectrum-global-color-gray-800, #292929)"/>
</svg>
