<svg width="96" height="96" viewBox="0 0 96 96" xmlns="http://www.w3.org/2000/svg">
<path fill-rule="evenodd" d="M48.0253 12.4C42.8756 12.3939 39.0089 16.578 39.0029 21.589L39.0024 21.9891L36.0138 21.9857C35.9316 21.9856 35.8505 21.9905 35.7709 22H28.4455C23.2083 22 19 26.2862 19 31.5273L19 70.4727C19 75.7138 23.2083 80 28.4455 80H67.6545C72.8917 80 77.1 75.7138 77.1 70.4727L77.1 31.5273C77.1 26.2862 72.8917 22 67.6546 22H56.9995L57 21.611C57.006 16.6101 53.1848 12.4062 48.0253 12.4ZM62.0089 26L62 33.0026C61.9986 34.1071 61.1021 35.0013 59.9976 35L35.9976 34.9713C35.4671 34.9707 34.9587 34.7593 34.584 34.3838C34.2094 34.0082 33.9993 33.4992 34 32.9688L34.0089 26H28.4455C25.4586 26 23 28.454 23 31.5273L23 70.4727C23 73.546 25.4586 76 28.4455 76H67.6545C70.6414 76 73.1 73.546 73.1 70.4727L73.1 31.5273C73.1 28.454 70.6414 26 67.6546 26H62.0089ZM38.0089 26L38.0026 30.9737L58.0026 30.9976L58.0089 26.0121L54.9948 26.0086C54.4644 26.008 53.9559 25.7967 53.5813 25.4212C53.2066 25.0457 52.9965 24.5367 52.9971 24.0062L53 21.6062C53.0035 18.6543 50.814 16.4034 48.0205 16.4C45.2174 16.3967 43.0064 18.6519 43.0029 21.5938L43 23.9938C42.9987 25.0983 42.1022 25.9927 40.9977 25.9914L39.7341 25.99V26H38.0089Z" fill="var(--spectrum-global-color-gray-800, #292929)"/>
</svg>
