<svg width="160" height="160" viewBox="0 0 160 160" xmlns="http://www.w3.org/2000/svg">
<path fill-rule="evenodd" d="M34.6239 41.2715C32.4704 42.85 32.1995 43.9084 32.1879 44.2728L32.188 44.2979V44.3256C32.2007 44.6922 32.4749 45.7494 34.6239 47.3246C36.7468 48.8807 40.075 50.4495 44.5475 51.8362C53.4441 54.5945 65.9793 56.3617 79.9998 56.3617C94.0203 56.3617 106.555 54.5945 115.452 51.8362C119.925 50.4495 123.253 48.8807 125.376 47.3246C127.581 45.7078 127.812 44.6367 127.812 44.298C127.812 43.9594 127.581 42.8883 125.376 41.2715C123.253 39.7154 119.925 38.1465 115.452 36.7599C106.555 34.0016 94.0203 32.2344 79.9998 32.2344C65.9793 32.2344 53.4441 34.0016 44.5475 36.7599C40.075 38.1465 36.7468 39.7154 34.6239 41.2715ZM42.1784 59.4774C38.387 58.3019 34.9807 56.9039 32.188 55.2728L32.188 62.1761C32.2007 62.5427 32.475 63.5998 34.6239 65.175C36.7468 66.7311 40.075 68.2999 44.5475 69.6866C53.4441 72.4449 65.9793 74.2121 79.9998 74.2121C94.0203 74.2121 106.555 72.4449 115.452 69.6866C119.925 68.2999 123.253 66.7311 125.376 65.175C127.581 63.5582 127.812 62.4871 127.812 62.1484H127.812V55.2722C125.02 56.9036 121.613 58.3017 117.821 59.4774C107.965 62.533 94.5944 64.3617 79.9998 64.3617C65.4052 64.3617 52.0341 62.533 42.1784 59.4774ZM135.812 44.2172C135.777 40.1593 133.123 37.0314 130.105 34.8192C126.984 32.5316 122.725 30.639 117.821 29.1187C107.965 26.0631 94.5944 24.2344 79.9998 24.2344C65.4052 24.2344 52.0341 26.0631 42.1784 29.1187C37.2748 30.639 33.0153 32.5316 29.8944 34.8192C26.8565 37.046 24.1875 40.2009 24.1875 44.298C24.1875 44.3301 24.1877 44.362 24.188 44.394L24.188 62.1484H24.1875C24.1875 62.1805 24.1877 62.2125 24.188 62.2444L24.188 79.9551H24.1875C24.1875 79.9872 24.1877 80.0192 24.188 80.0512L24.188 97.8516H24.1875C24.1875 97.8837 24.1877 97.9157 24.188 97.9477L24.188 115.702H24.1875C24.1875 115.734 24.1877 115.766 24.188 115.798L24.188 115.999C24.188 116.189 24.2012 116.375 24.2268 116.558C24.5673 120.241 27.0716 123.112 29.8944 125.181C33.0153 127.469 37.2748 129.361 42.1784 130.881C52.0341 133.937 65.4052 135.766 79.9998 135.766C94.5944 135.766 107.965 133.937 117.821 130.881C122.725 129.361 126.984 127.469 130.105 125.181C132.923 123.115 135.424 120.251 135.771 116.577C135.798 116.389 135.812 116.195 135.812 115.999V44.2979C135.812 44.2709 135.812 44.244 135.812 44.2172ZM127.812 115.702V108.826C125.02 110.457 121.613 111.855 117.821 113.031C107.965 116.086 94.5944 117.915 79.9998 117.915C65.4052 117.915 52.0341 116.086 42.1784 113.031C38.387 111.855 34.9807 110.457 32.188 108.826V115.73C32.2007 116.096 32.4751 117.154 34.6239 118.729C36.7468 120.285 40.075 121.854 44.5475 123.24C53.4441 125.999 65.9793 127.766 79.9998 127.766C94.0203 127.766 106.555 125.999 115.452 123.24C119.925 121.854 123.253 120.285 125.376 118.729C127.581 117.112 127.812 116.041 127.812 115.702H127.812ZM127.812 97.8516V90.9293C125.02 92.5606 121.613 93.9588 117.821 95.1344C107.965 98.19 94.5944 100.019 79.9998 100.019C65.4052 100.019 52.0341 98.19 42.1784 95.1344C38.387 93.9589 34.9807 92.5609 32.188 90.9298V97.8792C32.2007 98.2459 32.4751 99.303 34.6239 100.878C36.7468 102.434 40.075 104.003 44.5475 105.39C53.4441 108.148 65.9793 109.915 79.9998 109.915C94.0203 109.915 106.555 108.148 115.452 105.39C119.925 104.003 123.253 102.434 125.376 100.878C127.581 99.2613 127.812 98.1902 127.812 97.8516H127.812ZM127.812 79.9551V73.1226C125.02 74.754 121.613 76.1521 117.821 77.3278C107.965 80.3834 94.5944 82.2121 79.9998 82.2121C65.4052 82.2121 52.0341 80.3834 42.1784 77.3278C38.387 76.1523 34.9807 74.7543 32.188 73.1232V79.9827C32.2007 80.3493 32.475 81.4065 34.6239 82.9817C36.7468 84.5377 40.075 86.1066 44.5475 87.4932C53.4441 90.2515 65.9793 92.0187 79.9998 92.0187C94.0203 92.0187 106.555 90.2515 115.452 87.4932C119.925 86.1066 123.253 84.5377 125.376 82.9817C127.581 81.3648 127.812 80.2938 127.812 79.9551H127.812Z" fill="var(--spectrum-global-color-gray-800, #292929)"/>
</svg>
