<svg width="48" height="48" viewBox="0 0 48 48" xmlns="http://www.w3.org/2000/svg">
<path fill-rule="evenodd" d="M24.874 18.4771L19.9921 13.5952L15.9103 15.7132C15.3285 16.0151 14.8737 16.5148 14.6278 17.1223L11.4944 24.8629L15.4506 20.9067C15.4768 20.8806 15.5037 20.8559 15.5315 20.8325C15.5511 20.4124 15.7213 19.998 16.0421 19.6772C16.7256 18.9938 17.8336 18.9938 18.517 19.6772C19.2004 20.3606 19.2004 21.4686 18.517 22.1521C18.1624 22.5067 17.6935 22.6773 17.2289 22.6639L17.2184 22.6745L12.45 27.4429L21.3469 23.8414C21.9544 23.5955 22.4541 23.1407 22.756 22.5589L24.874 18.4771ZM19.46 11.0548L21.7152 8.79956C22.9844 7.53036 25.0422 7.53036 26.3114 8.79956L29.6633 12.1514C30.9325 13.4206 30.9325 15.4784 29.6633 16.7476L27.4282 18.9828L24.9751 23.7104C24.3988 24.821 23.4448 25.6893 22.285 26.1588L11.5431 30.507C9.2919 31.4183 7.05089 29.1773 7.96218 26.9261L12.3104 16.1843C12.7799 15.0245 13.6482 14.0705 14.7588 13.4942L19.46 11.0548ZM27.8955 14.9799L26.404 16.4715L21.9914 12.0589L23.483 10.5673C23.7759 10.2744 24.2508 10.2744 24.5437 10.5673L27.8955 13.9192C28.1884 14.2121 28.1884 14.687 27.8955 14.9799ZM30.2471 30.3511L37.537 21.4522C37.997 20.8906 37.9147 20.0624 37.3531 19.6024C36.7916 19.1424 35.9634 19.2247 35.5033 19.7862L28.2417 28.6506C28.5829 28.8097 28.8938 29.0013 29.1628 29.2216C29.532 29.5241 29.9129 29.899 30.2471 30.3511ZM31.2491 33.073L39.4709 23.0365C40.8059 21.4068 40.5671 19.0035 38.9374 17.6685C37.3077 16.3335 34.9044 16.5723 33.5694 18.202L25.4437 28.1211C25.2009 28.1316 24.9571 28.1559 24.7145 28.195C22.974 28.4751 21.2134 29.5206 20.1717 31.6708C19.7516 32.5379 19.4408 33.2163 19.185 33.7747L19.185 33.7748C18.837 34.5343 18.5908 35.0719 18.3094 35.5606C17.8977 36.2756 17.4507 36.7962 16.374 37.6345C15.9734 37.9463 15.8012 38.4695 15.9383 38.9583C16.0753 39.4471 16.4944 39.8045 16.9987 39.8626C18.5228 40.0382 21.2236 40.2855 23.8235 39.9685C26.3353 39.6623 29.2457 38.7679 30.5232 36.2142C31.0855 35.0902 31.3041 34.0371 31.2491 33.073ZM28.2874 35.0957C27.6176 36.4347 25.9014 37.1967 23.5209 37.4869C22.3265 37.6325 21.0875 37.6436 19.9643 37.5966C20.1462 37.3491 20.3139 37.0895 20.476 36.808C20.8052 36.2361 21.1307 35.5287 21.5341 34.6522L21.5341 34.6522C21.7912 34.0933 22.08 33.4658 22.4216 32.7607C23.0801 31.4016 24.1124 30.8241 25.1118 30.6632C26.1887 30.4899 27.1552 30.8088 27.5785 31.1556C28.0728 31.5605 28.4769 32.0629 28.655 32.6555C28.8232 33.2153 28.8349 34.0013 28.2874 35.0957Z" fill="var(--spectrum-global-color-gray-800, #292929)"/>
</svg>
