<svg width="160" height="160" viewBox="0 0 160 160" xmlns="http://www.w3.org/2000/svg">
<path fill-rule="evenodd" d="M22.9316 24.2656C20.7225 24.2656 18.9316 26.0565 18.9316 28.2656C18.9316 30.4748 20.7225 32.2656 22.9316 32.2656C23.2028 32.2656 23.6769 32.2688 24.3526 32.2734C25.8745 32.2836 28.419 32.3007 31.9707 32.3038C35.9492 32.3072 39.3303 35.1701 39.9703 39.0513L49.6583 97.8048C50.9326 105.532 57.6133 111.202 65.4452 111.202H119.754C121.963 111.202 123.754 109.411 123.754 107.202C123.754 104.993 121.963 103.202 119.754 103.202H65.4452C61.5292 103.202 58.1889 100.367 57.5518 96.5033L55.7247 85.4232H114.522C120.254 85.4232 125.186 81.3691 126.295 75.7453L130.115 56.3822C131.573 48.9865 125.939 42.0795 118.383 42.0618C93.9891 42.0048 58.4459 41.9503 48.5731 42.0523L47.8637 37.7497C46.5797 29.9631 39.8244 24.3105 31.9776 24.3038C28.5551 24.3008 25.6433 24.2821 24.0804 24.272L24.0804 24.272L24.0802 24.272C23.4896 24.2682 23.0917 24.2656 22.9316 24.2656ZM49.8902 50.0399L54.4056 77.4232H114.522C116.433 77.4232 118.077 76.0718 118.447 74.1972L122.266 54.8341C122.754 52.3581 120.871 50.0677 118.365 50.0618C94.7074 50.0065 60.9517 49.9554 49.8902 50.0399ZM69.7285 131.385C69.7285 135.803 66.1468 139.385 61.7285 139.385C57.3102 139.385 53.7285 135.803 53.7285 131.385C53.7285 126.966 57.3102 123.385 61.7285 123.385C66.1468 123.385 69.7285 126.966 69.7285 131.385ZM113.288 139.385C117.706 139.385 121.288 135.803 121.288 131.385C121.288 126.966 117.706 123.385 113.288 123.385C108.87 123.385 105.288 126.966 105.288 131.385C105.288 135.803 108.87 139.385 113.288 139.385Z" fill="var(--spectrum-global-color-gray-800, #292929)"/>
</svg>
