<svg width="96" height="96" viewBox="0 0 96 96" xmlns="http://www.w3.org/2000/svg">
<path fill-rule="evenodd" d="M50.969 17C33.331 17 19 31.4411 19 49.2954C19 66.864 35.3112 79.942 53.2554 79.942C58.083 79.942 64.3198 78.4568 69.1962 76.1015C71.6328 74.9246 73.6034 73.5904 74.8802 72.2275C76.1588 70.8628 76.5579 69.6843 76.4236 68.6894C76.2034 67.0593 75.6436 66.3507 75.1135 65.949C74.481 65.4697 73.6127 65.2077 72.3558 64.95C72.1998 64.918 72.032 64.8854 71.8552 64.8511L71.855 64.8511L71.855 64.8511C70.8103 64.6482 69.4503 64.3842 68.3341 63.816C67.6184 63.4517 66.9191 62.9322 66.3624 62.1687C65.8052 61.4044 65.4657 60.4979 65.32 59.4685C64.9305 56.7157 65.4617 54.4887 66.5753 52.5835C67.6393 50.7629 69.1931 49.3199 70.6326 48.0454C70.8236 47.8762 71.0138 47.7088 71.2028 47.5425C73.9774 45.1001 76.487 42.891 77.4412 38.9337C78.6592 33.8825 76.6577 28.4914 71.945 24.238C67.238 19.9897 59.9141 17 50.969 17ZM15 49.2954C15 29.2681 31.0859 13 50.969 13C60.7846 13 69.0989 16.2809 74.625 21.2686C80.1454 26.251 82.9718 33.0613 81.3297 39.8713C80.0675 45.106 76.6408 48.1026 73.9365 50.4674L73.9361 50.4678L73.9326 50.4708L73.9309 50.4723C73.71 50.6655 73.4939 50.8545 73.2842 51.0402C71.8373 52.3213 70.7354 53.3927 70.0287 54.6019C69.3715 55.7263 69.0168 57.0443 69.2806 58.9081C69.3497 59.3969 69.4836 59.66 69.5946 59.8122C69.7062 59.9653 69.87 60.1094 70.1488 60.2513C70.7228 60.5436 71.4322 60.6853 72.5046 60.8995L72.5047 60.8995L72.5055 60.8997L72.5059 60.8997L72.5106 60.9007C72.7134 60.9412 72.9291 60.9843 73.1594 61.0315C74.4323 61.2925 76.1095 61.685 77.5294 62.761C79.0517 63.9146 80.051 65.6621 80.3876 68.154C80.7431 70.7866 79.5329 73.1118 77.7993 74.9623C76.064 76.8146 73.6199 78.407 70.9359 79.7034C65.571 82.2946 58.7428 83.942 53.2554 83.942C33.6785 83.942 15 69.6085 15 49.2954ZM57.9991 31C57.9991 34.3137 55.3128 37 51.9991 37C48.6854 37 45.9991 34.3137 45.9991 31C45.9991 27.6863 48.6854 25 51.9991 25C55.3128 25 57.9991 27.6863 57.9991 31ZM36.9991 44.9146C40.3128 44.9146 42.9991 42.2283 42.9991 38.9146C42.9991 35.6008 40.3128 32.9146 36.9991 32.9146C33.6854 32.9146 30.9991 35.6008 30.9991 38.9146C30.9991 42.2283 33.6854 44.9146 36.9991 44.9146ZM42.9991 58.4478C42.9991 61.7615 40.3128 64.4478 36.9991 64.4478C33.6854 64.4478 30.9991 61.7615 30.9991 58.4478C30.9991 55.134 33.6854 52.4478 36.9991 52.4478C40.3128 52.4478 42.9991 55.134 42.9991 58.4478ZM51.9991 73C55.3128 73 57.9991 70.3137 57.9991 67C57.9991 63.6863 55.3128 61 51.9991 61C48.6854 61 45.9991 63.6863 45.9991 67C45.9991 70.3137 48.6854 73 51.9991 73Z" fill="var(--spectrum-global-color-gray-800, #292929)"/>
</svg>
