<svg width="48" height="48" viewBox="0 0 48 48" xmlns="http://www.w3.org/2000/svg">
<path fill-rule="evenodd" d="M37.8407 16.9649C39.729 15.0765 39.729 12.0148 37.8407 10.1265C35.9524 8.23811 32.8908 8.23811 31.0025 10.1265L27.5025 13.6266C27.0144 14.1147 26.2229 14.1147 25.7347 13.6266C25.2466 13.1384 25.2466 12.347 25.7347 11.8588L29.2347 8.35873C32.0993 5.49402 36.7438 5.49403 39.6085 8.35873C42.4731 11.2234 42.4731 15.868 39.6085 18.7326L30.7335 27.6078C27.8689 30.4725 23.2244 30.4725 20.3598 27.6078C19.8716 27.1197 19.8716 26.3282 20.3598 25.8401C20.8479 25.3519 21.6394 25.3519 22.1276 25.8401C24.0159 27.7285 27.0774 27.7285 28.9657 25.8401L37.8407 16.9649ZM27.6418 20.3924C28.13 20.8806 28.1299 21.672 27.6418 22.1602C27.1536 22.6483 26.3622 22.6483 25.874 22.1601C23.9857 20.2718 20.9242 20.2718 19.0358 22.1601L10.1609 31.0353C8.27254 32.9237 8.27255 35.9854 10.1609 37.8738C12.0492 39.7621 15.1107 39.7621 16.9991 37.8738L20.4991 34.3737C20.9872 33.8855 21.7787 33.8855 22.2668 34.3737C22.755 34.8618 22.755 35.6533 22.2668 36.1414L18.7668 39.6415C15.9022 42.5062 11.2577 42.5062 8.39309 39.6415C5.52847 36.7768 5.52847 32.1323 8.39309 29.2676L17.2681 20.3924C20.1327 17.5277 24.7772 17.5277 27.6418 20.3924Z" fill="var(--spectrum-global-color-gray-800, #292929)"/>
</svg>
