<svg width="160" height="160" viewBox="0 0 160 160" xmlns="http://www.w3.org/2000/svg">
<path fill-rule="evenodd" d="M80 27.7402C51.2812 27.7402 28 51.0214 28 79.7402C28 108.459 51.2812 131.74 80 131.74C108.719 131.74 132 108.459 132 79.7402C132 51.0214 108.719 27.7402 80 27.7402ZM20 79.7402C20 46.6032 46.8629 19.7402 80 19.7402C113.137 19.7402 140 46.6032 140 79.7402C140 112.877 113.137 139.74 80 139.74C46.8629 139.74 20 112.877 20 79.7402ZM84 77.4308V40.7402C84 38.5311 82.2091 36.7402 80 36.7402C77.7909 36.7402 76 38.5311 76 40.7402V79.6635C75.9971 79.8228 76.0037 79.9818 76.0197 80.1396C76.0771 80.7184 76.2578 81.261 76.5353 81.7406C76.8117 82.2204 77.1909 82.6479 77.6631 82.9869C77.792 83.0799 77.9267 83.1654 78.0666 83.2428L99.8206 95.8024C101.734 96.907 104.18 96.2515 105.285 94.3383C106.389 92.4252 105.734 89.9788 103.821 88.8742L84 77.4308Z" fill="var(--spectrum-global-color-gray-800, #292929)"/>
</svg>
