<svg width="48" height="48" viewBox="0 0 48 48" xmlns="http://www.w3.org/2000/svg">
<path fill-rule="evenodd" d="M38 8.75C40.8995 8.75 43.25 11.1005 43.25 14V25.5625C43.25 26.2529 42.6904 26.8125 42 26.8125C41.3096 26.8125 40.75 26.2529 40.75 25.5625V14C40.75 12.4812 39.5188 11.25 38 11.25H10C8.48122 11.25 7.25 12.4812 7.25 14V33.9702L14.9716 22.0409L14.972 22.0404C16.3012 19.9853 19.3116 19.9852 20.6409 22.0403L20.6411 22.0406L20.6413 22.0409L26.7846 31.5303L30.2352 26.3133L30.2352 26.3132L30.2404 26.3054C31.4098 24.5662 33.785 24.3485 35.2617 25.6396C35.7814 26.094 35.8344 26.8837 35.38 27.4034C34.9256 27.9232 34.1359 27.9761 33.6162 27.5217C33.236 27.1893 32.6191 27.252 32.3172 27.6972L26.3297 36.75H29.5938C30.2841 36.75 30.8438 37.3096 30.8438 38C30.8438 38.6904 30.2841 39.25 29.5938 39.25L10 39.25C7.10051 39.25 4.75 36.8995 4.75 34V14C4.75 11.1005 7.10051 8.75 10 8.75H38ZM17.0707 23.3988L8.65556 36.3995C9.05307 36.6227 9.51167 36.75 10 36.75L23.3544 36.75C23.3829 36.685 23.4172 36.6216 23.4577 36.5604L25.2796 33.8058L18.5423 23.3989L18.5419 23.3983C18.1977 22.8659 17.4152 22.8659 17.071 23.3983L17.0707 23.3988ZM32 17.5C32 18.8807 33.1193 20 34.5 20C35.8807 20 37 18.8807 37 17.5C37 16.1193 35.8807 15 34.5 15C33.1193 15 32 16.1193 32 17.5Z" fill="var(--spectrum-global-color-gray-800, #292929)"/>
<path d="M39.5156 27.9844C35.3743 27.9844 32.0156 31.343 32.0156 35.4844C32.0156 39.6257 35.3743 42.9844 39.5156 42.9844C43.657 42.9844 47.0156 39.6257 47.0156 35.4844C47.0156 31.343 43.657 27.9844 39.5156 27.9844ZM42.8743 37.0894C43.3597 37.5749 43.3597 38.3576 42.8743 38.843C42.6365 39.0808 42.3195 39.2096 42.0024 39.2096C41.6854 39.2096 41.3683 39.0907 41.1306 38.843L39.5255 37.238L37.9205 38.843C37.6827 39.0808 37.3657 39.2096 37.0486 39.2096C36.7316 39.2096 36.4146 39.0907 36.1768 38.843C35.6913 38.3576 35.6913 37.5749 36.1768 37.0894L37.7818 35.4844L36.1768 33.8794C35.6913 33.3939 35.6913 32.6112 36.1768 32.1257C36.6623 31.6403 37.445 31.6403 37.9304 32.1257L39.5354 33.7307L41.1405 32.1257C41.6259 31.6403 42.4086 31.6403 42.8941 32.1257C43.3796 32.6112 43.3796 33.3939 42.8941 33.8794L41.2891 35.4844L42.8941 37.0894H42.8743Z" fill="var(--spectrum-global-color-gray-800, #292929)"/>
</svg>
