<svg width="96" height="96" viewBox="0 0 96 96" xmlns="http://www.w3.org/2000/svg">
<path fill-rule="evenodd" d="M39.5152 14.6573C44.2015 9.971 51.7994 9.97101 56.4857 14.6573L80.8436 39.0152C85.5299 43.7015 85.5299 51.2994 80.8436 55.9857L56.4857 80.3436C51.7994 85.0299 44.2015 85.0299 39.5152 80.3436L15.1573 55.9857C10.471 51.2994 10.471 43.7015 15.1573 39.0152L39.5152 14.6573ZM53.6573 17.4857C50.5331 14.3615 45.4678 14.3615 42.3436 17.4857L17.9857 41.8436C14.8615 44.9678 14.8615 50.0331 17.9857 53.1573L42.3436 77.5152C45.4678 80.6394 50.5331 80.6394 53.6573 77.5152L78.0152 53.1573C81.1394 50.0331 81.1394 44.9678 78.0152 41.8436L53.6573 17.4857ZM48.0004 28.8003C49.105 28.8003 50.0004 29.6957 50.0004 30.8003V53.0003C50.0004 54.1048 49.105 55.0003 48.0004 55.0003C46.8959 55.0003 46.0004 54.1048 46.0004 53.0003V30.8003C46.0004 29.6957 46.8959 28.8003 48.0004 28.8003ZM51.0004 63.2802C51.0004 64.9371 49.6573 66.2802 48.0004 66.2802C46.3436 66.2802 45.0004 64.9371 45.0004 63.2802C45.0004 61.6234 46.3436 60.2802 48.0004 60.2802C49.6573 60.2802 51.0004 61.6234 51.0004 63.2802Z" fill="var(--spectrum-global-color-gray-800, #292929)"/>
</svg>
