<svg width="160" height="160" viewBox="0 0 160 160" xmlns="http://www.w3.org/2000/svg">
<path fill-rule="evenodd" d="M28.6997 36.109C28.7002 27.206 36.0957 20.11 44.8297 20.11H76.1597C80.2673 20.11 84.2118 21.703 87.1758 24.5601L119.982 56.1469C123.122 59.166 124.89 63.3493 124.89 67.7V85C124.89 87.2091 123.099 89 120.89 89C118.681 89 116.89 87.2091 116.89 85V68.094C116.771 68.1046 116.651 68.11 116.53 68.11H85.9097C80.401 68.11 75.8797 63.6694 75.8797 58.13V28.11H44.8297C40.384 28.11 36.6997 31.7534 36.6997 36.11V36.111L36.6797 116.11V116.111C36.6803 120.467 40.3643 124.11 44.8097 124.11H77.3847C79.5938 124.11 81.3847 125.901 81.3847 128.11C81.3847 130.319 79.5938 132.11 77.3847 132.11H44.8097C36.0754 132.11 28.6797 125.013 28.6797 116.11V116.109L28.6997 36.11L28.6997 36.109ZM83.8797 32.492L112.564 60.11H85.9097C84.7584 60.11 83.8797 59.1905 83.8797 58.13V32.492ZM87.5 119.5C87.5 105.97 98.47 95 112 95C125.53 95 136.5 105.97 136.5 119.5C136.5 133.03 125.53 144 112 144C98.47 144 87.5 133.03 87.5 119.5ZM112 103.92C109.79 103.92 108 105.71 108 107.92V120.7C108 122.91 109.79 124.7 112 124.7C114.21 124.7 116 122.91 116 120.7V107.92C116 105.71 114.21 103.92 112 103.92ZM115.83 132.68C115.94 132.43 116.02 132.16 116.07 131.9C116.12 131.63 116.15 131.36 116.15 131.09C116.15 129.99 115.71 128.93 114.94 128.15C113.97 127.19 112.54 126.75 111.19 127.02C110.93 127.07 110.66 127.15 110.41 127.26C110.16 127.36 109.92 127.49 109.7 127.64C109.47 127.79 109.26 127.96 109.07 128.15C108.29 128.93 107.85 130 107.85 131.09C107.85 131.36 107.88 131.63 107.93 131.9C107.98 132.16 108.06 132.43 108.17 132.68C108.27 132.93 108.4 133.17 108.55 133.39C108.7 133.62 108.87 133.83 109.07 134.02C109.26 134.22 109.47 134.39 109.7 134.54C109.92 134.69 110.16 134.82 110.41 134.92C110.66 135.03 110.93 135.11 111.19 135.16C111.46 135.21 111.73 135.24 112 135.24C113.09 135.24 114.16 134.8 114.94 134.02C115.13 133.83 115.3 133.62 115.45 133.39C115.6 133.17 115.73 132.93 115.83 132.68Z" fill="var(--spectrum-global-color-gray-800, #292929)"/>
</svg>
