<svg width="48" height="48" viewBox="0 0 48 48" xmlns="http://www.w3.org/2000/svg">
<path fill-rule="evenodd" d="M21.375 5.57226C22.9993 4.63444 25.0006 4.63444 26.625 5.57226L38.6465 12.5129C40.2708 13.4507 41.2715 15.1839 41.2715 17.0595V30.9407C41.2715 32.8163 40.2708 34.5495 38.6465 35.4873L26.625 42.4279C25.0006 43.3657 22.9993 43.3657 21.375 42.4279L9.35351 35.4873C7.72916 34.5495 6.72852 32.8163 6.72852 30.9407V17.0595C6.72852 15.1839 7.72916 13.4507 9.35352 12.5129L21.375 5.57226ZM25.375 7.73733C24.5241 7.24609 23.4758 7.24609 22.625 7.73733L10.6035 14.6779C9.75266 15.1692 9.22852 16.077 9.22852 17.0595V30.9407C9.22852 31.9232 9.75266 32.831 10.6035 33.3223L22.625 40.2629C23.4758 40.7541 24.5241 40.7541 25.375 40.2629L37.3965 33.3223C38.2473 32.831 38.7715 31.9232 38.7715 30.9407V17.0595C38.7715 16.077 38.2473 15.1692 37.3965 14.6779L25.375 7.73733ZM24 14.2501C24.6903 14.2501 25.25 14.8097 25.25 15.5001V26.5001C25.25 27.1905 24.6903 27.7501 24 27.7501C23.3096 27.7501 22.75 27.1905 22.75 26.5001V15.5001C22.75 14.8097 23.3096 14.2501 24 14.2501ZM25.75 32.0001C25.75 32.9666 24.9665 33.7501 24 33.7501C23.0335 33.7501 22.25 32.9666 22.25 32.0001C22.25 31.0336 23.0335 30.2501 24 30.2501C24.9665 30.2501 25.75 31.0336 25.75 32.0001Z" fill="var(--spectrum-global-color-gray-800, #292929)"/>
</svg>
