<svg width="48" height="48" viewBox="0 0 48 48" xmlns="http://www.w3.org/2000/svg">
<path fill-rule="evenodd" d="M16.2372 7.5C16.2372 6.80964 15.6776 6.25 14.9872 6.25C14.2968 6.25 13.7372 6.80964 13.7372 7.5V13.7017H7.5C6.80964 13.7017 6.25 14.2613 6.25 14.9517C6.25 15.642 6.80964 16.2017 7.5 16.2017H13.7372V29.048C13.7372 31.9475 16.0877 34.298 18.9872 34.298H31.7624V40.4997C31.7624 41.19 32.322 41.7497 33.0124 41.7497C33.7027 41.7497 34.2624 41.19 34.2624 40.4997V34.298H40.4996C41.1899 34.298 41.7496 33.7384 41.7496 33.048C41.7496 32.3576 41.1899 31.798 40.4996 31.798H18.9872C17.4684 31.798 16.2372 30.5668 16.2372 29.048V14.9677C16.2373 14.9624 16.2373 14.957 16.2373 14.9517C16.2373 14.9463 16.2373 14.941 16.2372 14.9356V7.5ZM19.0001 13.7017C18.3097 13.7017 17.7501 14.2613 17.7501 14.9517C17.7501 15.642 18.3097 16.2017 19.0001 16.2017H29.0124C30.5312 16.2017 31.7624 17.4329 31.7624 18.9517V29.0152C31.7624 29.7055 32.322 30.2652 33.0124 30.2652C33.7027 30.2652 34.2624 29.7055 34.2624 29.0152V18.9517C34.2624 16.0522 31.9119 13.7017 29.0124 13.7017H19.0001Z" fill="var(--spectrum-global-color-gray-800, #292929)"/>
</svg>
