<svg width="160" height="160" viewBox="0 0 160 160" xmlns="http://www.w3.org/2000/svg">
  <defs>
<clipPath id="clip0_5570_89388">
<rect width="160" height="160" fill="white" transform="matrix(-1 0 0 1 160 0)"/>
</clipPath>
</defs>
<g clip-path="url(#clip0_5570_89388)">
<path d="M132.49 93.0898C118.96 93.0898 107.99 104.06 107.99 117.59C107.99 131.12 118.96 142.09 132.49 142.09C146.02 142.09 156.99 131.12 156.99 117.59C156.99 104.06 146.02 93.0898 132.49 93.0898ZM143.41 122.86C144.97 124.42 144.97 126.95 143.41 128.52C142.63 129.3 141.61 129.69 140.58 129.69C139.55 129.69 138.53 129.3 137.75 128.52L132.49 123.26L127.23 128.52C126.45 129.3 125.43 129.69 124.4 129.69C123.37 129.69 122.35 129.3 121.57 128.52C120.01 126.96 120.01 124.43 121.57 122.86L126.83 117.6L121.57 112.34C120.01 110.78 120.01 108.25 121.57 106.68C123.13 105.12 125.67 105.12 127.23 106.68L132.49 111.94L137.75 106.68C139.31 105.12 141.85 105.12 143.41 106.68C144.97 108.24 144.97 110.77 143.41 112.34L138.15 117.6L143.41 122.86Z" fill="var(--spectrum-global-color-gray-800, #292929)"/>
<path fill-rule="evenodd" d="M124 30C135.046 30 144 38.9543 144 50V82.875C144 85.0841 142.209 86.875 140 86.875C137.791 86.875 136 85.0841 136 82.875V50C136 43.3726 130.627 38 124 38H36C29.3726 38 24 43.3726 24 50V110C24 110.862 24.0909 111.703 24.2636 112.513L49.0454 74.2274C53.4101 67.4769 63.2973 67.4763 67.6631 74.2255L67.6643 74.2274L88.1928 105.937L99.9375 88.446L99.9388 88.444C103.23 83.5492 109.426 82.3387 114.154 84.7251C116.126 85.7204 116.918 88.1261 115.923 90.0983C114.928 92.0705 112.522 92.8624 110.55 91.8671C109.202 91.1866 107.483 91.5623 106.578 92.9068L106.578 92.9076L87.0434 122H98C100.209 122 102 123.791 102 126C102 128.209 100.209 130 98 130H79.6089C79.5601 130.001 79.5112 130.001 79.4623 130H36C24.9543 130 16 121.046 16 110V50C16 38.9543 24.9543 30 36 30H124ZM55.7623 78.5728L29.0756 119.802C31.0319 121.186 33.4209 122 36 122H77.4072L83.3408 113.163L60.9475 78.5731L60.9463 78.5711C59.7332 76.695 56.9765 76.695 55.7634 78.5711L55.7623 78.5728ZM108 58C108 62.4183 111.582 66 116 66C120.418 66 124 62.4183 124 58C124 53.5817 120.418 50 116 50C111.582 50 108 53.5817 108 58Z" fill="var(--spectrum-global-color-gray-800, #292929)"/>
</g>

</svg>
