<svg width="160" height="160" viewBox="0 0 160 160" xmlns="http://www.w3.org/2000/svg">
<path fill-rule="evenodd" d="M35.3534 89.5524C24.2154 100.635 24.2156 118.613 35.3535 129.696C46.4805 140.768 64.5128 140.768 75.6398 129.696L120.708 84.8494C122.274 83.2911 122.281 80.7585 120.722 79.1925C119.164 77.6266 116.632 77.6203 115.066 79.1786L69.9969 124.025C61.9909 131.992 49.0024 131.992 40.9964 124.025C33.0012 116.069 33.0012 103.179 40.9963 95.2232L102.72 33.8038C107.817 28.7321 116.089 28.7321 121.186 33.8038C126.271 38.8647 126.271 47.0618 121.186 52.1227L65.8603 107.175C63.7321 109.293 60.2734 109.293 58.1452 107.175C56.0279 105.068 56.0279 101.661 58.1451 99.5539L96.8155 61.0742C98.3814 59.516 98.3877 56.9833 96.8294 55.4174C95.2712 53.8514 92.7386 53.8452 91.1726 55.4034L52.5023 93.8831C47.2421 99.1173 47.2422 107.612 52.5023 112.846C57.7515 118.069 66.254 118.069 71.5031 112.846L126.828 57.7935C135.057 49.6053 135.057 36.3213 126.828 28.133C118.61 19.9557 105.295 19.9557 97.077 28.133L35.3534 89.5524Z" fill="var(--spectrum-global-color-gray-800, #292929)"/>
</svg>
