<svg width="96" height="96" viewBox="0 0 96 96" xmlns="http://www.w3.org/2000/svg">
<path fill-rule="evenodd" d="M15 46C13.8954 46 13 46.8954 13 48C13 49.1046 13.8954 50 15 50H78C78.0605 50 78.1204 49.9973 78.1795 49.9921L67.5858 60.5858C66.8047 61.3668 66.8047 62.6332 67.5858 63.4142C68.3668 64.1953 69.6332 64.1953 70.4142 63.4142L84.4142 49.4142C85.1953 48.6332 85.1953 47.3668 84.4142 46.5858L70.4142 32.5858C69.6332 31.8047 68.3668 31.8047 67.5858 32.5858C66.8047 33.3668 66.8047 34.6332 67.5858 35.4142L78.1795 46.0079C78.1204 46.0027 78.0605 46 78 46H15ZM79.9921 47.8205C79.9973 47.8796 80 47.9395 80 48C80 48.0605 79.9973 48.1204 79.9921 48.1795L80.1716 48L79.9921 47.8205Z" fill="var(--spectrum-global-color-gray-800, #292929)"/>
</svg>
