<svg width="160" height="160" viewBox="0 0 160 160" xmlns="http://www.w3.org/2000/svg">
<path fill-rule="evenodd" d="M80 28C51.2812 28 28 51.2812 28 80C28 108.719 51.2812 132 80 132C108.719 132 132 108.719 132 80C132 51.2812 108.719 28 80 28ZM20 80C20 46.8629 46.8629 20 80 20C113.137 20 140 46.8629 140 80C140 113.137 113.137 140 80 140C46.8629 140 20 113.137 20 80ZM88.484 49.7036C88.484 54.3896 84.6852 58.1884 79.9991 58.1884C75.3131 58.1884 71.5143 54.3896 71.5143 49.7036C71.5143 45.0175 75.3131 41.2188 79.9991 41.2188C84.6852 41.2188 88.484 45.0175 88.484 49.7036ZM51.0869 61.7799C51.6025 59.9777 53.4814 58.9348 55.2835 59.4505C71.2283 64.0126 88.1247 64.0719 104.101 59.6216L104.739 59.444C106.545 58.941 108.416 59.9971 108.919 61.8028C109.422 63.6084 108.366 65.48 106.56 65.9829L105.923 66.1606C100.823 67.5812 95.6354 68.5746 90.4136 69.1409C89.3841 69.2525 88.5932 70.1146 88.5932 71.1502V86.0354C88.5932 86.2202 88.6187 86.4035 88.6692 86.5813C90.0405 91.4097 91.614 96.9705 92.9914 101.85C93.9685 105.311 94.8473 108.43 95.4856 110.703C95.8047 111.84 96.0642 112.766 96.2459 113.418L96.2874 113.567C96.4203 114.043 96.5593 114.541 96.5956 114.723C96.9632 116.561 95.7712 118.349 93.9332 118.716C92.0951 119.084 90.3071 117.892 89.9395 116.054C89.9575 116.144 89.9429 116.091 89.8574 115.782C89.8211 115.65 89.772 115.473 89.7072 115.24C89.5273 114.595 89.2693 113.673 88.9506 112.539C88.3134 110.27 87.4354 107.153 86.4588 103.694C85.2735 99.4949 83.9434 94.7928 82.7223 90.4888C82.4783 89.6286 81.6928 89.0353 80.7986 89.0353H79.1995C78.3053 89.0353 77.5198 89.6286 77.2757 90.4888C76.0547 94.7928 74.7246 99.4949 73.5392 103.694C72.5626 107.153 71.6847 110.27 71.0475 112.539C70.7288 113.673 70.4708 114.595 70.2909 115.24C70.2263 115.472 70.1774 115.649 70.1411 115.78L70.141 115.78L70.1407 115.782L70.1406 115.782L70.1406 115.782C70.0551 116.091 70.0406 116.144 70.0585 116.054C69.6909 117.892 67.9029 119.084 66.0649 118.716C64.2269 118.349 63.0349 116.561 63.4025 114.723C63.4388 114.541 63.5778 114.043 63.7107 113.567L63.7521 113.418C63.9339 112.766 64.1933 111.84 64.5124 110.703C65.1507 108.43 66.0296 105.311 67.0067 101.85C68.384 96.9705 69.9575 91.4097 71.3288 86.5813C71.3793 86.4036 71.4048 86.2202 71.4048 86.0354V71.1509C71.4048 70.1153 70.6139 69.2532 69.5843 69.1416C64.1366 68.5512 58.7274 67.4961 53.4163 65.9765C51.6142 65.4608 50.5713 63.582 51.0869 61.7799Z" fill="var(--spectrum-global-color-gray-800, #292929)"/>
</svg>
