<svg width="48" height="48" viewBox="0 0 48 48" xmlns="http://www.w3.org/2000/svg">
<path fill-rule="evenodd" d="M40.751 14.2002C40.751 12.6814 39.5198 11.4502 38.001 11.4502H10.001C8.48219 11.4502 7.25098 12.6814 7.25098 14.2002V33.8002C7.25098 35.319 8.4822 36.5502 10.001 36.5502H38.001C39.5198 36.5502 40.751 35.319 40.751 33.8002V14.2002ZM38.001 8.9502C40.9005 8.9502 43.251 11.3007 43.251 14.2002V33.8002C43.251 36.6997 40.9005 39.0502 38.001 39.0502H10.001C7.10148 39.0502 4.75098 36.6997 4.75098 33.8002V14.2002C4.75098 11.3007 7.10148 8.9502 10.001 8.9502H38.001ZM21.6123 19.144L27.967 22.789C28.6787 23.1972 28.6774 24.2156 27.9648 24.6221L21.6013 28.252C20.8886 28.6585 19.999 28.1483 20 27.3335L20.0088 20.0587C20.0098 19.2439 20.9006 18.7358 21.6123 19.144Z" fill="var(--spectrum-global-color-gray-800, #292929)"/>
</svg>
