<svg width="48" height="48" viewBox="0 0 48 48" xmlns="http://www.w3.org/2000/svg">
<path fill-rule="evenodd" d="M7.25 11.8C7.25 10.9096 7.94205 10.25 8.72 10.25H16.2527C16.685 10.25 17.1053 10.452 17.3897 10.8179L20.4455 14.75H7.25V11.8ZM4.75 14.75V11.8C4.75 9.59765 6.49352 7.75 8.72 7.75H16.2527C17.473 7.75 18.6157 8.32134 19.3637 9.28382L18.3929 10.0383L19.3637 9.28382L23.6117 14.75H37.8462C40.8017 14.75 43.25 17.1012 43.25 20.0588V34.9412C43.25 37.8988 40.8017 40.25 37.8462 40.25H10.1538C7.19835 40.25 4.75 37.8988 4.75 34.9412V17.25V16V14.75ZM7.25 17.25V34.9412C7.25 36.4638 8.5242 37.75 10.1538 37.75H37.8462C39.4758 37.75 40.75 36.4638 40.75 34.9412V20.0588C40.75 18.5362 39.4758 17.25 37.8462 17.25H25.5545H23H7.25Z" fill="var(--spectrum-global-color-gray-800, #292929)"/>
</svg>
