<svg width="160" height="160" viewBox="0 0 160 160" xmlns="http://www.w3.org/2000/svg">
<path fill-rule="evenodd" d="M54.689 34.6411C56.2319 31.9851 60.0687 31.9872 61.6087 34.645L87.7905 79.8292C89.3357 82.4958 87.4116 85.8346 84.3296 85.8346H31.8989C28.8149 85.8346 26.891 82.492 28.4401 79.8253L54.689 34.6411ZM68.5306 30.6341C63.9106 22.661 52.4004 22.6546 47.7715 30.6226L21.5227 75.8068C16.8753 83.8068 22.647 93.8346 31.8989 93.8346H84.3296C93.5756 93.8346 99.348 83.8183 94.7124 75.8183L68.5306 30.6341ZM94.1307 48.6253C91.9233 48.5376 90.0628 50.2561 89.9752 52.4635C89.8876 54.6709 91.606 56.5314 93.8134 56.619C112.527 57.3619 127.473 72.7712 127.473 91.6693C127.473 111.043 111.768 126.748 92.3947 126.748C77.1675 126.748 64.1967 117.043 59.3492 103.469C58.6062 101.389 56.3174 100.304 54.2369 101.047C52.1565 101.79 51.0722 104.079 51.8152 106.16C57.7638 122.817 73.6809 134.748 92.3947 134.748C116.186 134.748 135.473 115.461 135.473 91.6693C135.473 68.4592 117.119 49.5379 94.1307 48.6253Z" fill="var(--spectrum-global-color-gray-800, #292929)"/>
</svg>
