<svg width="48" height="48" viewBox="0 0 48 48" xmlns="http://www.w3.org/2000/svg">
<path fill-rule="evenodd" d="M7.99935 23.7833C8.68971 23.7833 9.24935 24.343 9.24935 25.0333L9.24935 33.8333C9.24935 35.168 10.3313 36.25 11.666 36.25L35.4994 36.25C36.834 36.25 37.916 35.168 37.916 33.8333L37.916 25.0333C37.916 24.343 38.4757 23.7833 39.166 23.7833C39.8564 23.7833 40.416 24.343 40.416 25.0333L40.416 33.8333C40.416 36.5487 38.2147 38.75 35.4994 38.75L11.666 38.75C8.95062 38.75 6.74935 36.5487 6.74935 33.8333L6.74935 25.0333C6.74935 24.343 7.309 23.7833 7.99935 23.7833ZM23 31.75C22.3096 31.75 21.75 31.1904 21.75 30.5L21.75 12.926L18.8839 15.7921C18.3957 16.2802 17.6043 16.2802 17.1161 15.7921C16.628 15.3039 16.628 14.5125 17.1161 14.0243L22.1161 9.02432C22.6043 8.53616 23.3957 8.53616 23.8839 9.02432L28.8839 14.0243C29.372 14.5125 29.372 15.3039 28.8839 15.7921C28.3957 16.2802 27.6043 16.2802 27.1161 15.7921L24.25 12.926L24.25 30.5C24.25 31.1904 23.6904 31.75 23 31.75Z" fill="var(--spectrum-global-color-gray-800, #292929)"/>
</svg>
