<svg width="160" height="160" viewBox="0 0 160 160" xmlns="http://www.w3.org/2000/svg">
<path fill-rule="evenodd" d="M55.4996 21.8418C52.3287 21.8418 49.2867 23.0968 47.0383 25.3326L20.9021 51.322C16.6337 55.5664 16.1703 62.3163 19.8186 67.1042L70.3588 133.431C75.1557 139.727 84.6262 139.736 89.4348 133.449L140.167 67.1285C143.837 62.3305 143.369 55.5522 139.073 51.3048L112.784 25.309C110.537 23.0876 107.506 21.8418 104.346 21.8418H55.4996ZM52.6792 31.0054C53.4286 30.2601 54.4426 29.8418 55.4996 29.8418H67.0608L54.6697 55.707H27.838L52.6792 31.0054ZM63.5403 55.707L75.9315 29.8418H84.0903L96.4814 55.707H63.5403ZM96.6273 63.707H63.3944L80.0109 122.84L96.6273 63.707ZM88.8101 121.099L104.937 63.707H132.712L88.8101 121.099ZM105.352 55.707L92.9609 29.8418H104.346C105.399 29.8418 106.41 30.2571 107.159 30.9975L132.147 55.707H105.352ZM27.2878 63.707H55.0846L71.324 121.499L27.2878 63.707Z" fill="var(--spectrum-global-color-gray-800, #292929)"/>
</svg>
