<svg width="96" height="97" viewBox="0 0 96 97" xmlns="http://www.w3.org/2000/svg">
<path fill-rule="evenodd" d="M42.2974 20.3047C42.8148 16.4634 46.0946 13.4922 50.0783 13.4922C53.1537 13.4922 55.8095 15.2629 57.0988 17.8376C58.4074 16.8566 60.0319 16.2752 61.7942 16.2752C66.1412 16.2752 69.6492 19.8085 69.6492 24.1516V29.642C71.3556 28.3819 73.5676 27.9122 75.5975 28.3109C79.1716 29.0129 81.5817 32.2617 81.1384 36.4526C81.1359 36.4769 81.1328 36.5011 81.1294 36.5253L78.5944 54.2532C78.5758 54.383 78.5451 54.5082 78.5035 54.6279C76.4423 65.7802 73.0036 73.0591 68.1821 77.5369C63.244 82.123 57.1612 83.4922 50.5601 83.4922C45.6487 83.4922 41.0248 81.3878 36.9498 78.459C32.8642 75.5224 29.1794 71.6496 26.1021 67.8471C23.0173 64.0353 20.495 60.2339 18.7459 57.391C17.87 55.9675 17.1849 54.7793 16.717 53.9435C16.483 53.5255 16.3031 53.1953 16.1807 52.9676C16.1195 52.8537 16.0726 52.7654 16.0405 52.7046L16.0101 52.6467C14.1023 49.3012 14.326 44.9364 17.7288 42.3798C21.0267 39.9021 25.6945 40.5426 28.2081 43.8105L28.2082 43.8107L30.5105 46.8045V27.1227C30.5105 22.7802 34.0177 19.2462 38.3625 19.2462C39.7976 19.2462 41.1413 19.6318 42.2974 20.3047ZM19.5402 50.7655L19.5414 50.7677L19.5481 50.7806L19.5782 50.8379C19.6056 50.8898 19.6476 50.9689 19.7038 51.0734C19.8161 51.2823 19.985 51.5925 20.2073 51.9895C20.652 52.7838 21.3092 53.9241 22.1527 55.2949C23.8421 58.0408 26.2659 61.691 29.2115 65.3308C32.1646 68.9799 35.5944 72.5588 39.2844 75.2109C42.985 77.8707 46.7975 79.4922 50.5601 79.4922C56.6174 79.4922 61.5442 78.2427 65.46 74.606C69.4299 70.919 72.6628 64.502 74.6461 53.4843C74.6582 53.4175 74.6734 53.352 74.6917 53.2879L77.1641 35.9979C77.393 33.7108 76.189 32.5035 74.8266 32.2359C72.9345 31.8643 70.9763 33.009 70.7577 35.2424L70.7548 35.2703L70.1958 40.2614L69.6368 45.2525C69.5186 46.3072 68.5973 47.0859 67.5377 47.0268C66.4781 46.9676 65.6492 46.0912 65.6492 45.0299V24.1516C65.6492 22.0032 63.9177 20.2752 61.7942 20.2752C59.6744 20.2752 57.9422 22.0025 57.9422 24.1516V43.5667C57.9422 44.6713 57.0468 45.5667 55.9422 45.5667H55.9303C54.8258 45.5667 53.9303 44.6713 53.9303 43.5667V21.3687C53.9303 19.2196 52.1982 17.4922 50.0783 17.4922C47.9585 17.4922 46.2263 19.2196 46.2263 21.3687V43.5638C46.2263 44.6683 45.3309 45.5638 44.2263 45.5638H44.2145C43.1099 45.5638 42.2145 44.6683 42.2145 43.5638V27.1227C42.2145 24.9736 40.4823 23.2462 38.3625 23.2462C36.2426 23.2462 34.5105 24.9736 34.5105 27.1227V52.6861C34.5105 53.5425 33.9652 54.3039 33.1544 54.5796C32.3435 54.8553 31.4471 54.5842 30.9251 53.9053L25.0375 46.2493C25.0375 46.2492 25.0374 46.2492 25.0374 46.2491C23.8578 44.7157 21.6745 44.4186 20.1315 45.5778C18.7062 46.6486 18.3234 48.6503 19.4973 50.687C19.5121 50.7127 19.5263 50.7387 19.54 50.765L19.5401 50.7652L19.5402 50.7655Z" fill="var(--spectrum-global-color-gray-800, #292929)"/>
</svg>
