<svg width="48" height="48" viewBox="0 0 48 48" xmlns="http://www.w3.org/2000/svg">
<path fill-rule="evenodd" d="M40.3123 12.1067C40.3123 9.21644 37.5211 7.14302 34.7536 7.98363L21.7214 11.9333H12.4598C8.22763 11.9333 4.79297 15.3679 4.79297 19.6001C4.79297 23.8322 8.22763 27.2669 12.4598 27.2669H12.8698L13.182 27.9816C13.5697 28.869 14.0948 30.0703 14.6442 31.3258C15.7413 33.8326 16.9405 36.5669 17.333 37.4397C17.9582 38.8302 19.0253 39.692 20.2485 40.0355C21.4378 40.3695 22.6943 40.1934 23.7414 39.6848C24.7181 39.2103 25.5839 38.4117 26.0592 37.3479C26.5462 36.2582 26.5824 34.978 26.0288 33.6692L26.0289 33.6691L26.0237 33.6572L23.4713 27.7942L34.7503 31.2226L34.7505 31.2227C37.5158 32.0626 40.3123 29.9952 40.3123 27.0996V12.1067ZM20.6846 14.4333V24.7669H12.4598C9.60835 24.7669 7.29297 22.4515 7.29297 19.6001C7.29297 16.7487 9.60835 14.4333 12.4598 14.4333H20.6846ZM23.1851 25.0943L35.4771 28.8306L35.4773 28.8307C36.639 29.1834 37.8123 28.3146 37.8123 27.0996V12.1067C37.8123 10.8924 36.6397 10.0235 35.4801 10.3757L35.4794 10.3759L23.1851 14.102V25.0943ZM15.5995 27.2704C15.971 28.1207 16.443 29.2004 16.9345 30.3234C18.0346 32.8372 19.2272 35.5563 19.6131 36.4145C19.9404 37.1425 20.4278 37.4891 20.9244 37.6286C21.4547 37.7775 22.083 37.711 22.6491 37.436C23.1737 37.1812 23.5739 36.7819 23.7768 36.3279C23.9675 35.9011 24.022 35.3456 23.7287 34.6486L20.5166 27.2704H15.5995Z" fill="var(--spectrum-global-color-gray-800, #292929)"/>
</svg>
