<svg width="48" height="48" viewBox="0 0 48 48" xmlns="http://www.w3.org/2000/svg">
<path fill-rule="evenodd" d="M25.4845 8.5C16.6655 8.5 9.5 15.7205 9.5 24.6477C9.5 33.432 17.6556 39.971 26.6277 39.971C29.0415 39.971 32.1599 39.2284 34.5981 38.0507C35.8164 37.4623 36.8017 36.7952 37.4401 36.1138C38.0794 35.4314 38.279 34.8421 38.2118 34.3447C38.1017 33.5296 37.8218 33.1754 37.5568 32.9745C37.2405 32.7349 36.8063 32.6039 36.1779 32.475C36.0999 32.459 36.016 32.4427 35.9276 32.4255L35.9275 32.4255L35.9275 32.4255C35.4051 32.3241 34.7252 32.1921 34.167 31.908C33.8092 31.7258 33.4595 31.4661 33.1812 31.0844C32.9026 30.7022 32.7328 30.249 32.66 29.7343C32.4653 28.3579 32.7309 27.2443 33.2876 26.2917C33.8197 25.3815 34.5965 24.6599 35.3163 24.0227C35.4118 23.9381 35.5069 23.8544 35.6014 23.7712C36.9887 22.5501 38.2435 21.4455 38.7206 19.4669C39.3296 16.9412 38.3288 14.2457 35.9725 12.119C33.619 9.99484 29.957 8.5 25.4845 8.5ZM7.5 24.6477C7.5 14.634 15.5429 6.5 25.4845 6.5C30.3923 6.5 34.5494 8.14046 37.3125 10.6343C40.0727 13.1255 41.4859 16.5306 40.6649 19.9357C40.0338 22.553 38.3204 24.0513 36.9683 25.2337L36.968 25.2339L36.9663 25.2354L36.9654 25.2362C36.855 25.3328 36.7469 25.4273 36.6421 25.5201C35.9186 26.1606 35.3677 26.6964 35.0143 27.3009C34.6857 27.8632 34.5084 28.5221 34.6403 29.4541C34.6749 29.6985 34.7418 29.83 34.7973 29.9061C34.8531 29.9827 34.935 30.0547 35.0744 30.1257C35.3614 30.2718 35.7161 30.3426 36.2523 30.4497L36.2523 30.4498L36.2527 30.4498L36.2529 30.4499L36.2553 30.4503C36.3567 30.4706 36.4646 30.4922 36.5797 30.5158C37.2161 30.6463 38.0548 30.8425 38.7647 31.3805C39.5258 31.9573 40.0255 32.8311 40.1938 34.077C40.3716 35.3933 39.7664 36.5559 38.8997 37.4811C38.032 38.4073 36.81 39.2035 35.4679 39.8517C32.7855 41.1473 29.3714 41.971 26.6277 41.971C16.8392 41.971 7.5 34.8043 7.5 24.6477ZM28.9995 15.5C28.9995 17.1569 27.6564 18.5 25.9995 18.5C24.3427 18.5 22.9995 17.1569 22.9995 15.5C22.9995 13.8431 24.3427 12.5 25.9995 12.5C27.6564 12.5 28.9995 13.8431 28.9995 15.5ZM18.4995 22.457C20.1564 22.457 21.4995 21.1139 21.4995 19.457C21.4995 17.8002 20.1564 16.457 18.4995 16.457C16.8427 16.457 15.4995 17.8002 15.4995 19.457C15.4995 21.1139 16.8427 22.457 18.4995 22.457ZM21.4995 29.2236C21.4995 30.8805 20.1564 32.2236 18.4995 32.2236C16.8427 32.2236 15.4995 30.8805 15.4995 29.2236C15.4995 27.5668 16.8427 26.2236 18.4995 26.2236C20.1564 26.2236 21.4995 27.5668 21.4995 29.2236ZM25.9995 36.5C27.6564 36.5 28.9995 35.1569 28.9995 33.5C28.9995 31.8431 27.6564 30.5 25.9995 30.5C24.3427 30.5 22.9995 31.8431 22.9995 33.5C22.9995 35.1569 24.3427 36.5 25.9995 36.5Z" fill="var(--spectrum-global-color-gray-800, #292929)"/>
</svg>
