<svg width="160" height="160" viewBox="0 0 160 160" xmlns="http://www.w3.org/2000/svg">
<path fill-rule="evenodd" d="M37.2773 24.25C39.4865 24.25 41.2773 26.0409 41.2773 28.25V30.8945H110.722C119.559 30.8945 126.722 38.058 126.722 46.8945V88.853C126.722 97.6896 119.559 104.853 110.722 104.853H41.2773L41.2773 131.75C41.2773 133.959 39.4865 135.75 37.2773 135.75C35.0682 135.75 33.2773 133.959 33.2773 131.75L33.2773 28.25C33.2773 26.0409 35.0682 24.25 37.2773 24.25ZM41.2773 96.853L41.2773 38.8945H110.722C115.14 38.8945 118.722 42.4762 118.722 46.8945V88.853C118.722 93.2713 115.14 96.853 110.722 96.853H41.2773ZM102.078 59.5852C103.711 58.0971 103.828 55.5672 102.34 53.9344C100.852 52.3017 98.3221 52.1845 96.6894 53.6726L95.5122 54.7455L95.4458 54.806L95.3779 54.8679L95.2373 54.9961L95.0905 55.1299L94.9376 55.2692L94.6143 55.5639L94.2684 55.8791L93.901 56.214L93.8537 56.2571L93.806 56.3006L93.7579 56.3444L93.7096 56.3884L93.5133 56.5674L92.6809 57.326L90.8194 59.0226L88.7537 60.9053L88.2136 61.3976L87.9407 61.6463L87.8722 61.7088L87.8036 61.7713L87.7349 61.8339L87.6661 61.8966L87.5283 62.0223L87.4592 62.0852L87.39 62.1483L87.3208 62.2114L87.2514 62.2746L87.1125 62.4012L86.5537 62.9106L86.2727 63.1667L86.2023 63.2308L86.1318 63.295L86.0613 63.3593L85.9908 63.4235L85.425 63.9392L85.3541 64.0038L85.2832 64.0685L85.2123 64.1331L85.1413 64.1978L84.8573 64.4566L84.7863 64.5214L84.7153 64.5861L84.5732 64.7156L84.2889 64.9747L83.7208 65.4925L83.1541 66.009L82.8716 66.2665L82.8011 66.3307L82.7307 66.3949L82.6603 66.4591L82.5899 66.5232L82.3091 66.7792L82.0293 67.0342L81.4734 67.5409L81.4043 67.6038L81.3353 67.6667L81.1975 67.7923L80.9232 68.0423L80.6507 68.2907L80.5151 68.4143L80.4474 68.4759L80.3799 68.5375L80.2453 68.6602L80.1112 68.7824L80.0443 68.8433L79.9776 68.9041L79.911 68.9648L79.8446 69.0254L78.8021 69.9755L78.6748 70.0916L78.6114 70.1493L78.5482 70.207L78.2972 70.4357L78.0493 70.6617L77.9265 70.7736L77.8654 70.8292L77.8046 70.8847L77.7439 70.94L77.6835 70.9951L77.5632 71.1047L77.5034 71.1592L77.4438 71.2135L77.3253 71.3215L77.0911 71.535L77.0331 71.5878L76.9754 71.6405L76.9179 71.6929L76.8606 71.7451L76.7468 71.8488L76.6903 71.9003L76.634 71.9516L76.4114 72.1544L76.1931 72.3535L75.979 72.5486L75.1684 73.2874L74.9422 73.4936L65.6802 64.8561C64.0646 63.3494 61.5335 63.4378 60.0268 65.0534C58.5201 66.669 58.6085 69.2001 60.2241 70.7068L72.183 81.8594C73.7067 83.2803 76.0658 83.2937 77.6056 81.8903L74.9111 78.934C77.6056 81.8903 77.6057 81.8903 77.6059 81.8901L77.6067 81.8893L77.61 81.8863L77.623 81.8745L77.6746 81.8275L77.8756 81.6442L77.9455 81.5805L77.9833 81.5461L78.0029 81.5282L78.023 81.5099L78.2001 81.3485L78.4059 81.161L78.6392 80.9483L78.899 80.7115L79.1843 80.4515L79.8266 79.8661L80.0013 79.7068L80.0458 79.6662L80.0907 79.6253L80.1359 79.5841L80.1814 79.5426L80.3668 79.3737L80.4615 79.2874L80.5574 79.2L80.9532 78.8392L81.1583 78.6523L81.2103 78.6049L81.2625 78.5573L81.3679 78.4613L81.582 78.2661L81.6907 78.1671L81.8004 78.0671L82.2495 77.6577L82.48 77.4476L82.7143 77.2341L82.7734 77.1802L82.8328 77.1261L82.9521 77.0173L83.0724 76.9077L83.1935 76.7974L83.2544 76.7419L83.3154 76.6862L83.3767 76.6304L83.4382 76.5743L83.6861 76.3484L83.9371 76.1196L84.0637 76.0042L84.1911 75.8881L84.4478 75.6541L84.7072 75.4177L84.7725 75.3582L84.8379 75.2986L84.9692 75.179L85.0351 75.1189L85.1011 75.0588L85.2335 74.938L86.3122 73.9549L86.8623 73.4535L87.4182 72.9468L87.4881 72.8832L87.558 72.8194L87.698 72.6918L87.9789 72.4359L88.1196 72.3076L88.1901 72.2434L88.2606 72.1791L88.3311 72.1148L88.4017 72.0504L88.543 71.9216L89.1097 71.4051L89.1807 71.3405L89.2517 71.2758L89.3937 71.1463L89.6779 70.8873L89.9621 70.6283L90.0332 70.5635L90.1042 70.4987L90.2463 70.3693L90.5303 70.1104L90.6722 69.9811L90.7431 69.9165L90.8139 69.8519L91.0971 69.5938L91.1679 69.5293L91.2385 69.4649L91.3797 69.3362L91.4503 69.2719L91.5208 69.2076L91.5912 69.1434L91.6616 69.0793L91.8022 68.9511L91.8724 68.8871L91.9426 68.8232L92.0827 68.6955L92.2226 68.568L92.5014 68.3139L92.6404 68.1872L92.7097 68.124L92.779 68.0609L92.8481 67.9979L92.9172 67.9349L93.0551 67.8092L93.1926 67.6839L93.3297 67.559L93.398 67.4967L93.4663 67.4344L93.6025 67.3103L93.6705 67.2483L93.7383 67.1865L93.806 67.1248L93.8736 67.0632L94.0084 66.9404L94.0756 66.8791L94.1427 66.818L95.1967 65.8573L95.3256 65.7398L95.3899 65.6813L95.4539 65.6229L95.5178 65.5647L95.5815 65.5066L95.645 65.4487L95.7084 65.391L95.7715 65.3334L95.8345 65.276L95.8973 65.2188L95.9599 65.1617L96.0845 65.0481L96.1465 64.9916L96.2084 64.9353L96.27 64.8791L96.3314 64.8231L96.3926 64.7673L96.4536 64.7117L96.6956 64.4912L96.7556 64.4365L96.8153 64.3821L96.9341 64.2738L96.9932 64.22L97.052 64.1663L97.169 64.0597L97.2271 64.0067L97.285 63.9539L97.3427 63.9014L97.4001 63.849L97.5143 63.745L97.571 63.6933L97.6274 63.6419L97.6836 63.5907L97.7396 63.5397L97.7953 63.4889L97.8507 63.4384L97.9059 63.3881L97.9608 63.338L98.0155 63.2882L98.0698 63.2387L98.2847 63.0428L98.4951 62.851L98.701 62.6634L98.7518 62.6171L98.8022 62.5712L98.8524 62.5254L98.9022 62.48L99.6573 61.7918L100.003 61.4765L100.327 61.1818L100.404 61.1115L100.479 61.0425L100.626 60.9087L100.767 60.7805L100.835 60.7186L100.868 60.6882L100.901 60.6582L101.372 60.2287L101.731 59.9014L102.078 59.5852Z" fill="var(--spectrum-global-color-gray-800, #292929)"/>
</svg>
