<svg width="48" height="48" viewBox="0 0 48 48" xmlns="http://www.w3.org/2000/svg">
<path fill-rule="evenodd" d="M34.6006 8.29322C33.6177 7.74601 32.4217 7.74601 31.4388 8.29323L24.3657 12.2311C24.1389 12.3574 23.8629 12.3574 23.6361 12.2311L16.8585 8.45795C15.6934 7.8093 14.2264 7.87536 13.1215 8.50434C11.9219 9.18724 10.0204 10.2353 8.20822 11.2257C7.22771 11.7615 6.671 12.679 6.5418 13.6465C6.51705 13.7446 6.50391 13.8473 6.50391 13.9531V26.2005C6.50391 27.9789 7.40421 29.6364 8.89603 30.6045L23.3051 39.9549C23.7183 40.223 24.2503 40.2235 24.664 39.9562L39.1346 30.605C40.6313 29.6378 41.5352 27.9775 41.5352 26.1955V13.9531C41.5352 13.8832 41.5294 13.8147 41.5184 13.7479C41.4229 12.7471 40.8715 11.7845 39.8643 11.2237L34.6006 8.29322ZM39.0352 17.3645L25.2356 25.0472V36.6103L37.7777 28.5052C38.5617 27.9986 39.0352 27.1289 39.0352 26.1955V17.3645ZM22.7356 25.0302L9.00391 17.3854V26.2005C9.00391 27.132 9.4755 28.0002 10.2569 28.5073L22.7356 36.6051V25.0302ZM32.6549 10.4775C32.8817 10.3512 33.1577 10.3512 33.3845 10.4775L38.6482 13.408C39.1618 13.6939 39.1618 14.4327 38.6482 14.7186L24.0009 22.8733L9.39857 14.7438C8.88297 14.4568 8.88192 13.7065 9.4071 13.4195C11.2193 12.4291 13.1379 11.3717 14.3583 10.677C14.7586 10.4491 15.2944 10.4485 15.6425 10.6423L22.42 14.4154C23.4029 14.9626 24.5989 14.9626 25.5818 14.4154L32.6549 10.4775Z" fill="var(--spectrum-global-color-gray-800, #292929)"/>
</svg>
