<svg width="96" height="96" viewBox="0 0 96 96" xmlns="http://www.w3.org/2000/svg">
<path fill-rule="evenodd" d="M31.9744 15C31.9744 13.8954 31.079 13 29.9744 13C28.8698 13 27.9744 13.8954 27.9744 15V27.9033H15C13.8954 27.9033 13 28.7988 13 29.9033C13 31.0079 13.8954 31.9033 15 31.9033H27.9744V58.096C27.9744 63.6189 32.4516 68.096 37.9744 68.096H64.0247V80.9994C64.0247 82.1039 64.9202 82.9994 66.0247 82.9994C67.1293 82.9994 68.0247 82.1039 68.0247 80.9994V68.096H80.9992C82.1037 68.096 82.9992 67.2006 82.9992 66.096C82.9992 64.9914 82.1037 64.096 80.9992 64.096H37.9744C34.6607 64.096 31.9744 61.4097 31.9744 58.096V29.9321C31.9745 29.9225 31.9746 29.9129 31.9746 29.9033C31.9746 29.8938 31.9745 29.8842 31.9744 29.8746V15ZM37.4157 27.9033C36.3111 27.9033 35.4157 28.7988 35.4157 29.9033C35.4157 31.0079 36.3111 31.9033 37.4157 31.9033H58.0247C61.3385 31.9033 64.0247 34.5896 64.0247 37.9033V58.6449C64.0247 59.7494 64.9202 60.6449 66.0247 60.6449C67.1293 60.6449 68.0247 59.7494 68.0247 58.6449V37.9033C68.0247 32.3805 63.5476 27.9033 58.0247 27.9033H37.4157Z" fill="var(--spectrum-global-color-gray-800, #292929)"/>
</svg>
