<svg width="160" height="160" viewBox="0 0 160 160" xmlns="http://www.w3.org/2000/svg">
<path fill-rule="evenodd" d="M147.987 38.528C145.456 35.8252 141.592 34.3372 137.398 35.2818L17.6786 62.2417C8.23721 64.3678 5.80677 76.6957 13.8311 82.1852L37.9999 98.719V130.816C37.9999 138.441 46.9733 142.054 52.5202 137.438L71.5048 121.64L92.57 136.05C98.1129 139.842 105.764 137.915 108.808 131.911L149.788 51.0856C151.472 47.7653 151.319 44.2886 149.959 41.4202C149.896 40.9905 149.761 40.5639 149.55 40.1568C149.182 39.4485 148.632 38.8964 147.987 38.528ZM132.219 44.6482L19.4361 70.0462C16.7584 70.6492 16.1382 74.0705 18.3481 75.5824L41.7759 91.6093L132.219 44.6482ZM50.3896 97.5019L97.087 129.448C98.6658 130.528 100.827 129.96 101.673 128.293L142.118 48.5226L49.2833 96.7254L50.3896 97.5019ZM45.9999 104.195V130.816C45.9999 130.979 46.0414 131.071 46.09 131.14C46.1508 131.228 46.2636 131.333 46.4363 131.41C46.7855 131.566 47.1254 131.52 47.4029 131.289L64.4222 117.126L45.9999 104.195Z" fill="var(--spectrum-global-color-gray-800, #292929)"/>
</svg>
