<svg width="96" height="96" viewBox="0 0 96 96" xmlns="http://www.w3.org/2000/svg">
<path fill-rule="evenodd" d="M47.6797 26.0195C47.6797 22.7058 50.366 20.0195 53.6797 20.0195H69.9797C73.2934 20.0195 75.9797 22.7058 75.9797 26.0195V42.3195C75.9797 45.6332 73.2934 48.3195 69.9797 48.3195H53.6797C50.366 48.3195 47.6797 45.6332 47.6797 42.3195V26.0195ZM53.6797 16.0195C48.1568 16.0195 43.6797 20.4967 43.6797 26.0195V42.3195C43.6797 47.8424 48.1568 52.3195 53.6797 52.3195H69.9797C75.5025 52.3195 79.9797 47.8424 79.9797 42.3195V26.0195C79.9797 20.4967 75.5025 16.0195 69.9797 16.0195H53.6797ZM20.0098 37.8794C20.0098 35.6703 21.8006 33.8794 24.0098 33.8794H30.4498C32.6589 33.8794 34.4498 35.6703 34.4498 37.8794V44.3194C34.4498 46.5285 32.6589 48.3194 30.4498 48.3194H24.0098C21.8006 48.3194 20.0098 46.5285 20.0098 44.3194V37.8794ZM24.0098 29.8794C19.5915 29.8794 16.0098 33.4611 16.0098 37.8794V44.3194C16.0098 48.7377 19.5915 52.3194 24.0098 52.3194H30.4498C34.868 52.3194 38.4498 48.7377 38.4498 44.3194V37.8794C38.4498 33.4611 34.868 29.8794 30.4498 29.8794H24.0098ZM24.0098 61.5195C21.8006 61.5195 20.0098 63.3104 20.0098 65.5195V71.9595C20.0098 74.1687 21.8006 75.9595 24.0098 75.9595H30.4498C32.6589 75.9595 34.4498 74.1687 34.4498 71.9595V65.5195C34.4498 63.3104 32.6589 61.5195 30.4498 61.5195H24.0098ZM16.0098 65.5195C16.0098 61.1012 19.5915 57.5195 24.0098 57.5195H30.4498C34.868 57.5195 38.4498 61.1012 38.4498 65.5195V71.9595C38.4498 76.3778 34.868 79.9595 30.4498 79.9595H24.0098C19.5915 79.9595 16.0098 76.3778 16.0098 71.9595V65.5195ZM47.6797 65.5195C47.6797 63.3104 49.4705 61.5195 51.6797 61.5195H58.1197C60.3288 61.5195 62.1197 63.3104 62.1197 65.5195V71.9595C62.1197 74.1687 60.3288 75.9595 58.1197 75.9595H51.6797C49.4705 75.9595 47.6797 74.1687 47.6797 71.9595V65.5195ZM51.6797 57.5195C47.2614 57.5195 43.6797 61.1012 43.6797 65.5195V71.9595C43.6797 76.3778 47.2614 79.9595 51.6797 79.9595H58.1197C62.538 79.9595 66.1197 76.3778 66.1197 71.9595V65.5195C66.1197 61.1012 62.538 57.5195 58.1197 57.5195H51.6797Z" fill="var(--spectrum-global-color-gray-800, #292929)"/>
</svg>
