<svg width="96" height="96" viewBox="0 0 96 96" xmlns="http://www.w3.org/2000/svg">
<path fill-rule="evenodd" d="M56.3093 16.8308C50.0807 16.8308 44.8193 22.248 44.8193 29.2005C44.8193 36.1531 50.0807 41.5703 56.3093 41.5703C62.5378 41.5703 67.7992 36.1531 67.7992 29.2005C67.7992 22.248 62.5378 16.8308 56.3093 16.8308ZM40.8193 29.2005C40.8193 20.2807 47.6373 12.8308 56.3093 12.8308C64.9813 12.8308 71.7992 20.2807 71.7992 29.2005C71.7992 38.1204 64.9813 45.5703 56.3093 45.5703C47.6373 45.5703 40.8193 38.1204 40.8193 29.2005ZM38.3967 16.9473C39.4893 16.7853 40.2437 15.7682 40.0817 14.6756C39.9196 13.5829 38.9026 12.8285 37.8099 12.9906C30.1891 14.1206 24.4903 21.0331 24.4903 29.2007C24.4903 37.3963 30.2289 44.329 37.8892 45.4223C38.9827 45.5784 39.9957 44.8185 40.1517 43.725C40.3078 42.6315 39.5479 41.6185 38.4544 41.4625C32.9244 40.6732 28.4903 35.571 28.4903 29.2007C28.4903 22.8528 32.8938 17.7633 38.3967 16.9473ZM32.9211 53.6383C33.9805 53.3258 34.586 52.2136 34.2734 51.1541C33.9609 50.0947 32.8487 49.4892 31.7893 49.8018C21.4762 52.8444 13.4362 61.4038 11.154 72.0123C10.2596 76.1699 13.3686 80.1691 17.69 80.1691H20.9181C22.0226 80.1691 22.9181 79.2737 22.9181 78.1691C22.9181 77.0645 22.0226 76.1691 20.9181 76.1691H17.69C15.9819 76.1691 14.6921 74.5846 15.0645 72.8536C17.0358 63.6906 23.9993 56.2705 32.9211 53.6383ZM31.3077 72.8534C33.7836 61.3445 44.1214 52.6084 56.3088 52.6084C68.4962 52.6084 78.8341 61.3445 81.31 72.8534L83.2653 72.4328L81.31 72.8534C81.6824 74.5845 80.3926 76.1689 78.6845 76.1689H56.3088H33.9331C32.2251 76.1689 30.9352 74.5845 31.3077 72.8534ZM56.3088 48.6084C42.185 48.6084 30.2585 58.7113 27.3971 72.0121C26.5027 76.1697 29.6117 80.1689 33.9331 80.1689H56.3088H78.6845C83.0059 80.1689 86.115 76.1697 85.2205 72.0121C82.3591 58.7113 70.4327 48.6084 56.3088 48.6084Z" fill="var(--spectrum-global-color-gray-800, #292929)"/>
</svg>
