<svg width="48" height="48" viewBox="0 0 48 48" xmlns="http://www.w3.org/2000/svg">
<path fill-rule="evenodd" d="M19.1524 38.954C20.6333 39.5063 22.2011 39.7891 23.7817 39.7891H31.1631C31.1922 39.7891 31.221 39.7881 31.2496 39.7861H33.1586C34.0406 39.7861 35.0115 39.5459 35.7934 38.9461C36.6162 38.3149 37.1469 37.3428 37.1469 36.1104C37.1469 35.781 37.0823 35.2136 36.8303 34.6229C37.8002 34.1351 38.5316 33.2233 38.7614 32.1019C38.9549 31.1578 38.7657 30.2389 38.3113 29.4893C39.135 28.8617 39.6847 27.8896 39.7415 26.7802C39.7823 25.9843 39.5648 25.2375 39.1639 24.6187C39.9217 23.9903 40.4217 23.059 40.4758 22.0037C40.5824 19.9238 38.9248 18.1791 36.8422 18.1791H29.251L29.7025 16.7284C30.2401 15.001 30.5851 13.2194 30.7311 11.4162L30.8123 10.4123C30.9789 8.35516 29.3543 6.59375 27.2904 6.59375C25.9286 6.59375 24.6879 7.3764 24.1014 8.6055L21.4044 14.2576C21.1778 14.7325 20.9166 15.1901 20.623 15.6267L20.1515 16.328C18.7581 18.4001 16.4248 19.6429 13.9277 19.6429H10.6445C8.8496 19.6429 7.39453 21.098 7.39453 22.8929V33.8466C7.39453 35.6416 8.84961 37.0966 10.6445 37.0966H12.2321C13.5144 37.0966 14.7864 37.3261 15.9879 37.7741L19.1524 38.954ZM23.7817 37.2891H27.9166C27.9452 37.2871 27.9741 37.2861 28.0032 37.2861H33.1586C33.6228 37.2861 34.021 37.1549 34.2717 36.9625C34.4815 36.8016 34.6469 36.5608 34.6469 36.1104C34.6469 35.9878 34.6134 35.7405 34.4922 35.5214C34.3926 35.3414 34.2224 35.1495 33.8367 35.0467C33.7971 35.0361 33.7584 35.0238 33.7208 35.0098H33.72H33.7183H33.7166H33.7149H33.7132H33.7115H33.7099H33.7082H33.7066H33.7049H33.7033H33.7017H33.7H33.6984H33.6968H33.6952H33.6936H33.692H33.6905H33.6889H33.6873H33.6858H33.6842H33.6827H33.6812H33.6796H33.6781H33.6766H33.6751H33.6736H33.6721H33.6707H33.6692C32.9788 35.0098 32.4192 34.4501 32.4192 33.7598C32.4192 33.0694 32.9788 32.5098 33.6692 32.5098H33.6707H33.6721H33.6736H33.6751H33.6766H33.6781H33.6796H33.6812H33.6827H33.6842H33.6858H33.6873H33.6889H33.6905H33.692H33.6936H33.6952H33.6968H33.6984H33.7H33.7017H33.7033H33.7049H33.7066H33.7082H33.7099H33.7115H33.7132H33.7149H33.7166H33.7183H33.72H33.7217H33.7234H33.7251H33.7269H33.7286H33.7304H33.7321H33.7339H33.7356H33.7374H33.7392H33.741H33.7428H33.7446H33.7464H33.7482H33.75H33.7519H33.7537H33.7556H33.7574H33.7593H33.7612H33.763H33.7649H33.7668H33.7687H33.7706H33.7725H33.7744H33.7764H33.7783H33.7802H33.7822H33.7841H33.7861H33.7881H33.7901H33.792H33.794H33.796H33.798H33.8H33.802H33.8041H33.8061H33.8081H33.8102H33.8122H33.8143H33.8164H33.8184H33.8205H33.8226H33.8247H33.8268H33.8289H33.831H33.8331H33.8352H33.8374H33.8395H33.8417H33.8438H33.846H33.8481H33.8503H33.8525H33.8547H33.8569H33.8591H33.8613H33.8635H33.8657H33.8679H33.8702H33.8724H33.8747H33.8769H33.8792H33.8814H33.8837H33.886H33.8883H33.8906H33.8929H33.8952H33.8975H33.8998H33.9021H33.9044H33.9068H33.9091H33.9115H33.9138H33.9162H33.9186H33.9209H33.9233H33.9257H33.9281H33.9305H33.9329H33.9353H33.9377H33.9402H33.9426H33.945H33.9475H33.9499H33.9524H33.9548H33.9573H33.9598H33.9623H33.9648H33.9672H33.9697H33.9722H33.9748H33.9773H33.9798H33.9823H33.9849H33.9874H33.99H33.9925H33.9951H33.9976H34.0002H34.0028H34.0054H34.008H34.0106H34.0132H34.0158H34.0184H34.021H34.0236H34.0263H34.0289H34.0316H34.0342H34.0369H34.0395H34.0422H34.0449H34.0475H34.0502H34.0529H34.0556H34.0583H34.061H34.0637H34.0665H34.0692H34.0719H34.0747H34.0774H34.0802H34.0829H34.0857H34.0884H34.0912H34.094H34.0968H34.0996H34.1023H34.1051H34.108H34.1108H34.1136H34.1164H34.1192H34.1221H34.1249H34.1277H34.1306H34.1335H34.1363H34.1392H34.1421H34.1449H34.1478H34.1507H34.1536H34.1565H34.1594H34.1623H34.1652H34.1681H34.1711H34.174H34.1769H34.1799H34.1828H34.1858H34.1887H34.1917H34.1947H34.1977H34.2006H34.2036H34.2066H34.2096H34.2126H34.2156H34.2186H34.2216H34.2247H34.2277H34.2307H34.2338H34.2368H34.2398H34.2429H34.246H34.249H34.2521H34.2552H34.2582H34.2613H34.2644H34.2675H34.2706H34.2737H34.2768H34.2799H34.283H34.2862H34.2893H34.2924H34.2956H34.2987H34.3019H34.305H34.3082H34.3113H34.3145H34.3177H34.3209H34.324H34.3272H34.3304H34.3336H34.3368H34.34H34.3432H34.3465H34.3497H34.3529H34.3561H34.3594H34.3626H34.3659H34.3691H34.3724H34.3756H34.3789H34.3822H34.3854H34.3887H34.392H34.3953H34.3986H34.4019H34.4052H34.4085H34.4118H34.4151H34.4184H34.4217H34.4251H34.4284H34.4317H34.4351H34.4384H34.4418H34.4451H34.4485H34.4519H34.4552H34.4586H34.462H34.4654H34.4688H34.4722H34.4756H34.479H34.4824H34.4858H34.4892H34.4926H34.496H34.4995H34.5029H34.5063H34.5098H34.5132H34.5167H34.5201H34.5236H34.527H34.5305H34.534H34.5374H34.5409H34.5444H34.5479H34.5514H34.5549H34.5584H34.5619H34.5654H34.5689H34.5724H34.5759H34.5794H34.583H34.5865H34.59H34.5936H34.5971H34.6007H34.6042H34.6078H34.6113H34.6149H34.6185H34.622H34.6256H34.6292H34.6328H34.6364H34.64H34.6436H34.6472H34.6508H34.6544H34.658H34.6616H34.6652H34.6688H34.6725H34.6761H34.6797H34.6834H34.687H34.6907H34.6943H34.698H34.7016H34.7053H34.7089H34.7126H34.7163H34.72H34.7236H34.7273H34.731H34.7347H34.7384H34.7421H34.7458H34.7495H34.7532H34.7569H34.7606H34.7644H34.7681H34.7718H34.7755H34.7793H34.783H34.7867H34.7905H34.7942H34.798H34.8017H34.8055H34.8093H34.813H34.8168H34.8206H34.8243H34.8281H34.8319H34.8357H34.8395H34.8433H34.8471H34.8509H34.8547H34.8585H34.8623H34.8661H34.8699H34.8737H34.8775H34.8814H34.8852H34.889H34.8929H34.8967H34.9005H34.9044H34.9082H34.9121H34.9159H34.9198H34.9237H34.9275H34.9314H34.9353H34.9391H34.943H34.9469H34.9508H34.9546H34.9585H34.9624H34.9663H34.9702H34.9741H34.978H34.9819H34.9858H34.9897H34.9937H34.9976H35.0015H35.0054H35.0094H35.0133H35.0172H35.0212H35.0251H35.029H35.033H35.0369H35.0409H35.0448H35.0488H35.0527H35.0567H35.0607H35.0646H35.0686H35.0726H35.0765H35.0805H35.0845H35.0885H35.0925H35.0965H35.1005H35.1044H35.1084H35.1124H35.1164H35.1204H35.1245H35.1285H35.1325H35.1365H35.1405H35.1445H35.1486H35.1526H35.1566H35.1606H35.1647H35.1687H35.1727H35.1768H35.1808H35.1849H35.1889H35.193H35.197C35.7377 32.5098 36.2038 32.1295 36.3123 31.6C36.457 30.894 35.9177 30.233 35.1971 30.233H34.6483C33.9579 30.233 33.3983 29.6733 33.3983 28.983C33.3983 28.2926 33.9579 27.733 34.6483 27.733H35.1971C35.2869 27.733 35.3757 27.7362 35.4636 27.7425C35.5157 27.7358 35.5689 27.7324 35.6229 27.7324H35.6236H35.6242H35.6249H35.6256H35.6262H35.6269H35.6275H35.6282H35.6289H35.6295H35.6302H35.6309H35.6315H35.6322H35.6329H35.6335H35.6342H35.6349H35.6356H35.6362H35.6369H35.6376H35.6383H35.639H35.6397H35.6403H35.641H35.6417H35.6424H35.6431H35.6438H35.6445H35.6452H35.6459H35.6466H35.6473H35.648H35.6487H35.6494H35.6501H35.6508H35.6515H35.6522H35.6529H35.6536H35.6543H35.655H35.6557H35.6564H35.6571H35.6579H35.6586H35.6593H35.66H35.6607H35.6615H35.6622H35.6629H35.6636H35.6644H35.6651H35.6658H35.6665H35.6673H35.668H35.6687H35.6695H35.6702H35.671H35.6717H35.6724H35.6732H35.6739H35.6747H35.6754H35.6762H35.6769H35.6776H35.6784H35.6791H35.6799H35.6807H35.6814H35.6822H35.6829H35.6837H35.6844H35.6852H35.686H35.6867H35.6875H35.6883H35.689H35.6898H35.6906H35.6913H35.6921H35.6929H35.6936H35.6944H35.6952H35.696H35.6968H35.6975H35.6983H35.6991H35.6999H35.7007H35.7015H35.7022H35.703H35.7038H35.7046H35.7054H35.7062H35.707H35.7078H35.7086H35.7094H35.7102H35.711H35.7118H35.7126H35.7134H35.7142H35.715H35.7158H35.7166H35.7174H35.7182H35.719H35.7199H35.7207H35.7215H35.7223H35.7231H35.7239H35.7248H35.7256H35.7264H35.7272H35.7281H35.7289H35.7297H35.7305H35.7314H35.7322H35.733H35.7339H35.7347H35.7355H35.7364H35.7372H35.738H35.7389H35.7397H35.7406H35.7414H35.7423H35.7431H35.7439H35.7448H35.7456H35.7465H35.7473H35.7482H35.749H35.7499H35.7508H35.7516H35.7525H35.7533H35.7542H35.7551H35.7559H35.7568H35.7576H35.7585H35.7594H35.7603H35.7611H35.762H35.7629H35.7637H35.7646H35.7655H35.7664H35.7672H35.7681H35.769H35.7699H35.7708H35.7716H35.7725H35.7734H35.7743H35.7752H35.7761H35.777H35.7779H35.7788H35.7796H35.7805H35.7814H35.7823H35.7832H35.7841H35.785H35.7859H35.7868H35.7877H35.7886H35.7896H35.7905H35.7914H35.7923H35.7932H35.7941H35.795H35.7959H35.7968H35.7978H35.7987H35.7996H35.8005H35.8014H35.8023H35.8033H35.8042H35.8051H35.806H35.807H35.8079H35.8088H35.8098H35.8107H35.8116H35.8126H35.8135H35.8144H35.8154H35.8163H35.8172H35.8182H35.8191H35.8201H35.821H35.822H35.8229H35.8238H35.8248H35.8257H35.8267H35.8276H35.8286H35.8296H35.8305H35.8315H35.8324H35.8334H35.8343H35.8353H35.8363H35.8372H35.8382H35.8391H35.8401H35.8411H35.842H35.843H35.844H35.845H35.8459H35.8469H35.8479H35.8488H35.8498H35.8508H35.8518H35.8528H35.8537H35.8547H35.8557H35.8567H35.8577H35.8587H35.8596H35.8606H35.8616H35.8626H35.8636H35.8646H35.8656H35.8666H35.8676H35.8686H35.8696H35.8706H35.8716H35.8726H35.8736H35.8746H35.8756H35.8766H35.8776H35.8786H35.8796H35.8806H35.8816H35.8826H35.8836H35.8847H35.8857H35.8867H35.8877H35.8887H35.8897H35.8908H35.8918H35.8928H35.8938H35.8948H35.8959H35.8969H35.8979H35.899H35.9H35.901H35.902H35.9031H35.9041H35.9051H35.9062H35.9072H35.9083H35.9093H35.9103H35.9114H35.9124H35.9135H35.9145H35.9155H35.9166H35.9176H35.9187H35.9197H35.9208H35.9218H35.9229H35.9239H35.925H35.926H35.9271H35.9282H35.9292H35.9303H35.9313H35.9324H35.9335H35.9345H35.9356H35.9366H35.9377H35.9388H35.9398H35.9409H35.942H35.9431H35.9441H35.9452H35.9463H35.9473H35.9484H35.9495H35.9506H35.9517H35.9527H35.9538H35.9549H35.956H35.9571H35.9582H35.9592H35.9603H35.9614H35.9625H35.9636H35.9647H35.9658H35.9669H35.968H35.9691H35.9702H35.9713H35.9724H35.9735H35.9746H35.9757H35.9768H35.9779H35.979H35.9801H35.9812H35.9823H35.9834H35.9845H35.9856H35.9867H35.9878H35.9889H35.9901H35.9912H35.9923H35.9934H35.9945H35.9956H35.9968H35.9979H35.999H36.0001H36.0013H36.0024H36.0035H36.0046H36.0058H36.0069H36.008H36.0091H36.0103H36.0114H36.0125H36.0137H36.0148H36.0159H36.0171H36.0182H36.0194H36.0205H36.0216H36.0228H36.0239H36.0251H36.0262H36.0274H36.0285H36.0297H36.0308H36.032H36.0331H36.0343H36.0354H36.0366H36.0377H36.0389H36.04H36.0412H36.0424H36.0435H36.0447H36.0458H36.047H36.0482H36.0493H36.0505H36.0517H36.0528H36.054H36.0552H36.0563H36.0575H36.0587H36.0598H36.061H36.0622H36.0634H36.0645H36.0657H36.0669H36.0681H36.0693H36.0704H36.0716H36.0728H36.074H36.0752H36.0764H36.0775H36.0787H36.0799H36.0811H36.0823H36.0835H36.0847H36.0859H36.0871H36.0883H36.0895H36.0907H36.0919H36.0931H36.0943H36.0955H36.0967H36.0979H36.0991H36.1003H36.1015H36.1027H36.1039H36.1051H36.1063H36.1075C36.7139 27.7324 37.2138 27.2573 37.2448 26.6523C37.2778 26.0089 36.7712 25.468 36.13 25.4559H36.129H36.1266H36.1242H36.1218H36.1194H36.117H36.1146H36.1122H36.1098H36.1074H36.1051H36.1027H36.1003H36.0979H36.0955H36.0932H36.0908H36.0884H36.0861H36.0837H36.0813H36.079H36.0766H36.0743H36.0719H36.0696H36.0672H36.0649H36.0626H36.0602H36.0579H36.0556H36.0532H36.0509H36.0486H36.0463H36.044H36.0416H36.0393H36.037H36.0347H36.0324H36.0301H36.0278H36.0255H36.0232H36.0209H36.0186H36.0164H36.0141H36.0118H36.0095H36.0072H36.005H36.0027H36.0004H35.9982H35.9959H35.9936H35.9914H35.9891H35.9869H35.9846H35.9824H35.9801H35.9779H35.9757H35.9734H35.9712H35.969H35.9667H35.9645H35.9623H35.9601H35.9578H35.9556H35.9534H35.9512H35.949H35.9468H35.9446H35.9424H35.9402H35.938H35.9358H35.9336H35.9314H35.9292H35.9271H35.9249H35.9227H35.9205H35.9183H35.9162H35.914H35.9118H35.9097H35.9075H35.9054H35.9032H35.9011H35.8989H35.8968H35.8946H35.8925H35.8903H35.8882H35.8861H35.8839H35.8818H35.8797H35.8776H35.8754H35.8733H35.8712H35.8691H35.867H35.8649H35.8628H35.8607H35.8586H35.8565H35.8544H35.8523H35.8502H35.8481H35.846H35.8439H35.8418H35.8398H35.8377H35.8356H35.8335H35.8315H35.8294H35.8273H35.8253H35.8232H35.8212H35.8191H35.8171H35.815H35.813H35.8109H35.8089H35.8069H35.8048H35.8028H35.8008H35.7987H35.7967H35.7947H35.7927H35.7906H35.7886H35.7866H35.7846H35.7826H35.7806H35.7786H35.7766H35.7746H35.7726H35.7706H35.7686H35.7666H35.7646H35.7626H35.7607H35.7587H35.7567H35.7547H35.7528H35.7508H35.7488H35.7469H35.7449H35.743H35.741H35.739H35.7371H35.7351H35.7332H35.7313H35.7293H35.7274H35.7254H35.7235H35.7216H35.7196H35.7177H35.7158H35.7139H35.712H35.71H35.7081H35.7062H35.7043H35.7024H35.7005H35.6986H35.6967H35.6948H35.6929H35.691H35.6891H35.6872H35.6853H35.6835H35.6816H35.6797H35.6778H35.676H35.6741H35.6722H35.6704H35.6685H35.6666H35.6648H35.6629H35.6611H35.6592H35.6574H35.6555H35.6537H35.6518H35.65H35.6482H35.6463H35.6445H35.6427H35.6408H35.639H35.6372H35.6354H35.6336H35.6317H35.6299H35.6281H35.6263H35.6245H35.6227H35.6209H35.6191H35.6173H35.6155H35.6137H35.6119H35.6102H35.6084H35.6066H35.6048H35.603H35.6013H35.5995L35.5764 25.4556H35.3782C34.6878 25.4556 34.1282 24.896 34.1282 24.2056C34.1282 23.5153 34.6878 22.9556 35.3782 22.9556H36.1079L36.1474 22.9559H36.1484H36.1508H36.1533H36.1557H36.1581H36.1606H36.163H36.1655H36.1679H36.1704H36.1728H36.1753H36.1778H36.1802H36.1827H36.1852H36.1876H36.1901H36.1926H36.1951H36.1976H36.2H36.2025H36.205H36.2075H36.21H36.2125H36.215H36.2175H36.22H36.2225H36.2251H36.2276H36.2301H36.2326H36.2351H36.2377H36.2402H36.2427H36.2453H36.2478H36.2503H36.2529H36.2554H36.258H36.2605H36.2631H36.2656H36.2682H36.2708H36.2733H36.2759H36.2785H36.281H36.2836H36.2862H36.2888H36.2913H36.2939H36.2965H36.2991H36.3017H36.3043H36.3069H36.3095H36.3121H36.3147H36.3173H36.3199H36.3226H36.3252H36.3278H36.3304H36.333H36.3357H36.3383H36.3409H36.3436H36.3462H36.3489H36.3515H36.3542H36.3568H36.3595H36.3621H36.3648H36.3674H36.3701H36.3728H36.3755H36.3781H36.3808H36.3835H36.3862H36.3888H36.3915H36.3942H36.3969H36.3996H36.4023H36.405H36.4077H36.4104H36.4131H36.4158H36.4186H36.4213H36.424H36.4267H36.4294H36.4322H36.4349H36.4376H36.4404H36.4431H36.4459H36.4486H36.4513H36.4541H36.4569H36.4596H36.4624H36.4651H36.4679H36.4707H36.4734H36.4762H36.479H36.4818H36.4845H36.4873H36.4901H36.4929H36.4957H36.4985H36.5013H36.5041H36.5069H36.5097H36.5125H36.5153H36.5181H36.521H36.5238H36.5266H36.5294H36.5322H36.5351H36.5379H36.5408H36.5436H36.5464H36.5493H36.5521H36.555H36.5578H36.5607H36.5636H36.5664H36.5693H36.5721H36.575H36.5779H36.5808H36.5836H36.5865H36.5894H36.5923H36.5952H36.5981H36.601H36.6039H36.6068H36.6097H36.6126H36.6155H36.6184H36.6213H36.6243H36.6272H36.6301H36.633H36.636H36.6389H36.6418H36.6448H36.6477H36.6507H36.6536H36.6566H36.6595H36.6625H36.6654H36.6684H36.6713H36.6743H36.6773H36.6803H36.6832H36.6862H36.6892H36.6922H36.6952H36.6982H36.7011H36.7041H36.7071H36.7101H36.7132H36.7162H36.7192H36.7222H36.7252H36.7282H36.7312H36.7343H36.7373H36.7403H36.7434H36.7464H36.7494H36.7525H36.7555H36.7586H36.7616H36.7647H36.7677H36.7708H36.7738H36.7769H36.78H36.783H36.7861H36.7892H36.7923H36.7954H36.7984H36.8015H36.8046H36.8077H36.8108H36.8139H36.817H36.8201H36.8232H36.8263H36.8295H36.8326H36.8357H36.8388H36.8419C37.4482 22.9559 37.9481 22.4808 37.9791 21.8757C38.0124 21.225 37.4938 20.6791 36.8422 20.6791H28.8272C27.3521 20.6791 26.2996 19.2492 26.738 17.8408L27.3154 15.9855C27.7983 14.434 28.1081 12.834 28.2392 11.2144L28.3205 10.2106C28.3692 9.60892 27.8941 9.09375 27.2904 9.09375C26.8921 9.09375 26.5293 9.32265 26.3577 9.68213L23.6607 15.3343C23.3814 15.9196 23.0595 16.4836 22.6976 17.0217L22.2261 17.723C20.5432 20.2257 17.8319 21.821 14.8616 22.0993L14.8616 34.8602C15.5408 34.9977 16.2095 35.1886 16.8614 35.4316L20.0258 36.6116C21.2273 37.0596 22.4993 37.2891 23.7817 37.2891ZM12.3616 34.5973L12.3616 22.1429H10.6445C10.2303 22.1429 9.89453 22.4787 9.89453 22.8929V33.8466C9.89453 34.2608 10.2303 34.5966 10.6445 34.5966H12.2321C12.2752 34.5966 12.3184 34.5968 12.3616 34.5973Z" fill="var(--spectrum-global-color-gray-800, #292929)"/>
</svg>
