<svg width="96" height="96" viewBox="0 0 96 96" xmlns="http://www.w3.org/2000/svg">
<path fill-rule="evenodd" d="M16.2109 15.0898C16.2109 13.9853 15.3155 13.0898 14.2109 13.0898C13.1064 13.0898 12.2109 13.9853 12.2109 15.0898V81.9998C12.2109 83.1044 13.1064 83.9998 14.2109 83.9998H81.0009C82.1055 83.9998 83.0009 83.1044 83.0009 81.9998C83.0009 80.8953 82.1055 79.9998 81.0009 79.9998H16.2109V15.0898ZM25.3213 46.2298C25.3213 45.1253 26.2167 44.2298 27.3213 44.2298H30.8613C31.9659 44.2298 32.8613 45.1253 32.8613 46.2298V68.7698C32.8613 69.8744 31.9659 70.7698 30.8613 70.7698H27.3213C26.2167 70.7698 25.3213 69.8744 25.3213 68.7698V46.2298ZM27.3213 40.2298C24.0076 40.2298 21.3213 42.9161 21.3213 46.2298V68.7698C21.3213 72.0835 24.0076 74.7698 27.3213 74.7698H30.8613C34.175 74.7698 36.8613 72.0835 36.8613 68.7698V46.2298C36.8613 42.9161 34.175 40.2298 30.8613 40.2298H27.3213ZM68.8516 58.6198C67.747 58.6198 66.8516 59.5152 66.8516 60.6198V68.7698C66.8516 69.8744 67.747 70.7698 68.8516 70.7698H72.3916C73.4961 70.7698 74.3916 69.8744 74.3916 68.7698V60.6198C74.3916 59.5152 73.4961 58.6198 72.3916 58.6198H68.8516ZM62.8516 60.6198C62.8516 57.3061 65.5379 54.6198 68.8516 54.6198H72.3916C75.7053 54.6198 78.3916 57.3061 78.3916 60.6198V68.7698C78.3916 72.0835 75.7053 74.7698 72.3916 74.7698H68.8516C65.5379 74.7698 62.8516 72.0835 62.8516 68.7698V60.6198ZM46.0813 28.3198C46.0813 27.2153 46.9767 26.3198 48.0813 26.3198H51.6213C52.7259 26.3198 53.6213 27.2153 53.6213 28.3198V68.7698C53.6213 69.8744 52.7259 70.7698 51.6213 70.7698H48.0813C46.9767 70.7698 46.0813 69.8744 46.0813 68.7698V28.3198ZM48.0813 22.3198C44.7676 22.3198 42.0813 25.0061 42.0813 28.3198V68.7698C42.0813 72.0835 44.7676 74.7698 48.0813 74.7698H51.6213C54.935 74.7698 57.6213 72.0835 57.6213 68.7698V28.3198C57.6213 25.0061 54.935 22.3198 51.6213 22.3198H48.0813Z" fill="var(--spectrum-global-color-gray-800, #292929)"/>
</svg>
