<svg width="48" height="48" viewBox="0 0 48 48" xmlns="http://www.w3.org/2000/svg">
<path fill-rule="evenodd" d="M8.25 23.7402C8.25 15.0417 15.3015 7.99023 24 7.99023C32.6985 7.99023 39.75 15.0417 39.75 23.7402C39.75 32.4387 32.6985 39.4902 24 39.4902C15.3015 39.4902 8.25 32.4387 8.25 23.7402ZM24 5.49023C13.9208 5.49023 5.75 13.661 5.75 23.7402C5.75 33.8194 13.9208 41.9902 24 41.9902C34.0792 41.9902 42.25 33.8194 42.25 23.7402C42.25 13.661 34.0792 5.49023 24 5.49023ZM21.8866 17.9231L29.3763 22.5865C30.2091 23.105 30.2076 24.3985 29.3737 24.9149L21.8737 29.5589C21.0398 30.0753 19.9989 29.4272 20 28.3923L20.0103 19.085C20.0115 18.0501 21.0539 17.4046 21.8866 17.9231Z" fill="var(--spectrum-global-color-gray-800, #292929)"/>
</svg>
