<svg width="48" height="48" viewBox="0 0 48 48" xmlns="http://www.w3.org/2000/svg">
<path fill-rule="evenodd" d="M24.0012 5.99023C17.8454 5.99023 12.8468 10.9622 12.8468 17.1058L12.8469 17.127L12.8468 17.1461V20.2558C12.7255 23.9452 11.1544 27.3177 9.56945 29.7993C7.91199 32.3945 9.76961 35.7902 12.8547 35.7902H19.1513V36.6402C19.1513 39.3188 21.3227 41.4902 24.0013 41.4902C26.6798 41.4902 28.8513 39.3188 28.8513 36.6402V35.7902H35.1478C38.2329 35.7902 40.0905 32.3945 38.4331 29.7993C36.8481 27.3177 35.277 23.9452 35.1557 20.2558V17.1461L35.1556 17.127L35.1557 17.1058C35.1557 10.9622 30.1571 5.99023 24.0012 5.99023ZM26.3513 35.7902H21.6513V36.6402C21.6513 37.9381 22.7034 38.9902 24.0013 38.9902C25.2991 38.9902 26.3513 37.9381 26.3513 36.6402V35.7902ZM15.3468 20.2759V17.1968C15.3475 17.1783 15.3479 17.1598 15.3478 17.1412C15.3477 17.1239 15.3474 17.1094 15.3471 17.0993L15.3468 17.0908C15.3549 12.3441 19.2219 8.49023 24.0012 8.49023C28.7806 8.49023 32.6476 12.344 32.6557 17.0908L32.6554 17.0993C32.6551 17.1093 32.6548 17.1239 32.6547 17.1412C32.6546 17.1598 32.655 17.1783 32.6557 17.1968V20.2759C32.6557 20.289 32.6559 20.3021 32.6563 20.3153C32.7927 24.6432 34.617 28.4689 36.3261 31.145C36.9207 32.0759 36.2584 33.2902 35.1478 33.2902H12.8547C11.7441 33.2902 11.0818 32.0759 11.6764 31.145C13.3855 28.4689 15.2098 24.6432 15.3462 20.3153C15.3466 20.3021 15.3468 20.289 15.3468 20.2759Z" fill="var(--spectrum-global-color-gray-800, #292929)"/>
</svg>
