<svg width="96" height="96" viewBox="0 0 96 96" xmlns="http://www.w3.org/2000/svg">
<path fill-rule="evenodd" d="M20.4609 22.5098C20.4609 18.0995 24.032 14.5098 28.4509 14.5098H47.9009C49.948 14.5098 51.9372 15.2931 53.4266 16.7275L53.429 16.7298L72.9942 35.4753C74.5666 36.981 75.4609 39.0621 75.4609 41.2498V52.3748C75.4609 53.4793 74.5655 54.3748 73.4609 54.3748C72.3564 54.3748 71.4609 53.4793 71.4609 52.3748V41.4998H53.8309C50.4982 41.4998 47.4609 38.9978 47.4609 35.5198V18.5398L47.4612 18.5098H28.4509C26.2499 18.5098 24.4609 20.3 24.4609 22.5098V70.4998C24.4609 72.7095 26.2499 74.4998 28.4509 74.4998H49.4609C50.5655 74.4998 51.4609 75.3952 51.4609 76.4998C51.4609 77.6043 50.5655 78.4998 49.4609 78.4998H28.4509C24.032 78.4998 20.4609 74.91 20.4609 70.4998V22.5098ZM51.4609 20.3839L69.3254 37.4998H53.8309C52.3437 37.4998 51.4609 36.4418 51.4609 35.5198V20.3839ZM53.501 71.2198C53.501 63.0898 60.091 56.4998 68.221 56.4998C76.351 56.4998 82.941 63.0898 82.941 71.2198C82.941 79.3498 76.351 85.9398 68.221 85.9398C60.091 85.9398 53.501 79.3498 53.501 71.2198ZM68.221 62.2598C67.121 62.2598 66.221 63.1598 66.221 64.2598V71.9398C66.221 73.0398 67.121 73.9398 68.221 73.9398C69.321 73.9398 70.221 73.0398 70.221 71.9398V64.2598C70.221 63.1598 69.321 62.2598 68.221 62.2598ZM70.201 78.9898C70.261 78.8598 70.301 78.7298 70.331 78.5898C70.351 78.4498 70.371 78.3098 70.371 78.1698C70.371 78.0298 70.351 77.8898 70.331 77.7498C70.301 77.6098 70.261 77.4798 70.201 77.3498C70.151 77.2198 70.081 77.0898 70.011 76.9698C69.931 76.8598 69.841 76.7498 69.741 76.6498C69.641 76.5498 69.531 76.4598 69.411 76.3798C69.301 76.2998 69.171 76.2398 69.041 76.1798L69.041 76.1798C68.911 76.1298 68.781 76.0898 68.641 76.0598C68.361 76.0098 68.081 76.0098 67.801 76.0598C67.661 76.0898 67.531 76.1298 67.401 76.1798L67.4009 76.1798C67.2709 76.2398 67.141 76.2998 67.031 76.3798C66.911 76.4598 66.801 76.5498 66.701 76.6498C66.601 76.7498 66.511 76.8598 66.431 76.9698C66.351 77.0897 66.291 77.2197 66.231 77.3497L66.231 77.3498C66.181 77.4798 66.141 77.6098 66.111 77.7498C66.071 77.8898 66.071 78.0298 66.071 78.1698C66.071 78.3098 66.081 78.4498 66.111 78.5898C66.141 78.7298 66.181 78.8598 66.231 78.9898C66.291 79.1198 66.351 79.2498 66.431 79.3598C66.511 79.4798 66.601 79.5898 66.701 79.6898C66.801 79.7898 66.911 79.8798 67.031 79.9598C67.141 80.0298 67.271 80.0998 67.401 80.1498C67.531 80.2098 67.661 80.2498 67.801 80.2798C67.941 80.3198 68.081 80.3198 68.221 80.3198C68.361 80.3198 68.501 80.3098 68.641 80.2798C68.781 80.2498 68.911 80.2098 69.041 80.1498C69.171 80.0998 69.301 80.0298 69.411 79.9598C69.531 79.8798 69.641 79.7898 69.741 79.6898C69.841 79.5898 69.931 79.4798 70.011 79.3598C70.081 79.2498 70.151 79.1198 70.201 78.9898Z" fill="var(--spectrum-global-color-gray-800, #292929)"/>
</svg>
