<svg width="48" height="48" viewBox="0 0 48 48" xmlns="http://www.w3.org/2000/svg">
<path fill-rule="evenodd" d="M31.8627 10.5625C33.0024 10.5625 33.9263 9.63869 33.9263 8.49905C33.9263 7.35941 33.0024 6.43555 31.8627 6.43555C30.7231 6.43555 29.7992 7.35941 29.7992 8.49905C29.7992 9.63869 30.7231 10.5625 31.8627 10.5625ZM26.7228 12.483C27.4097 12.5518 27.9108 13.1644 27.8421 13.8513C27.4972 17.2979 25.6234 20.7408 22.5698 22.8657C22.0031 23.26 21.2241 23.1203 20.8298 22.5536C20.4355 21.987 20.5752 21.2079 21.1419 20.8136C23.5648 19.1277 25.0785 16.3604 25.3545 13.6023C25.4233 12.9154 26.0358 12.4143 26.7228 12.483ZM30.8462 27.435C31.4345 27.0737 32.2042 27.2577 32.5655 27.846C33.3085 29.0556 33.7196 30.1485 33.7707 31.1383C33.8245 32.1813 33.4721 33.0447 32.8405 33.6764C32.8111 33.7058 32.7812 33.7341 32.7509 33.7614C32.6162 33.9183 32.4406 34.0439 32.2326 34.12L32.176 34.1407C32.0494 34.1994 31.9195 34.2462 31.788 34.2826L12.5342 41.3266C9.61759 42.3936 6.78595 39.562 7.85299 36.6455L14.8966 17.3934C14.9332 17.2609 14.9803 17.13 15.0396 17.0025L15.0597 16.9474C15.1357 16.7397 15.261 16.5644 15.4175 16.4298C15.445 16.3992 15.4735 16.3691 15.5032 16.3394C16.0744 15.7682 16.8659 15.3507 17.8984 15.3462C18.8788 15.3419 19.9528 15.7107 21.1452 16.4299C21.7363 16.7864 21.9265 17.5547 21.57 18.1458C21.2134 18.737 20.4452 18.9272 19.854 18.5706C18.8753 17.9804 18.2592 17.8446 17.9092 17.8461C17.6362 17.8473 17.4628 17.9303 17.3118 18.0682L17.2953 18.1132C17.2849 18.1796 17.2786 18.3115 17.3174 18.5432C17.3988 19.0299 17.6481 19.7169 18.1077 20.5736C19.0189 22.2725 20.6185 24.3851 22.7066 26.4731C24.7946 28.5612 26.9073 30.1607 28.6062 31.072C29.463 31.5315 30.15 31.7809 30.6366 31.8623C30.8691 31.9011 31.0012 31.8947 31.0673 31.8843L31.1102 31.8686C31.2094 31.7543 31.2905 31.5866 31.274 31.2671C31.2527 30.8551 31.0623 30.1753 30.4352 29.1544C30.0739 28.5661 30.2579 27.7963 30.8462 27.435ZM20.9388 28.2409C23.1261 30.4282 25.4057 32.1807 27.3603 33.2404L11.6752 38.9788C10.7566 39.3149 9.86474 38.423 10.2008 37.5044L15.9393 21.8196C16.9991 23.7742 18.7515 26.0537 20.9388 28.2409ZM29.4559 21.4759C29.9441 20.9878 29.9441 20.1963 29.4559 19.7082C28.9678 19.22 28.1763 19.22 27.6882 19.7081L23.2845 24.1118C22.7963 24.5999 22.7963 25.3914 23.2844 25.8796C23.7726 26.3677 24.5641 26.3677 25.0522 25.8796L29.4559 21.4759ZM35.3627 21.3769C36.0471 21.2866 36.6751 21.7682 36.7654 22.4527C36.8557 23.1371 36.3741 23.7651 35.6896 23.8554C32.9416 24.218 30.2232 25.8179 28.6141 28.2925C28.2378 28.8713 27.4636 29.0354 26.8848 28.6591C26.306 28.2828 26.1419 27.5085 26.5182 26.9297C28.5461 23.8109 31.9286 21.8299 35.3627 21.3769ZM41.1138 28.3577C41.1138 29.4973 40.1899 30.4212 39.0502 30.4212C37.9106 30.4212 36.9867 29.4973 36.9867 28.3577C36.9867 27.2181 37.9106 26.2942 39.0502 26.2942C40.1899 26.2942 41.1138 27.2181 41.1138 28.3577ZM21.9843 12.1014L19.7786 9.08768C19.4103 8.58446 18.7037 8.47508 18.2005 8.84339L17.6584 9.24018C17.1551 9.60849 17.0457 10.315 17.4141 10.8182L19.6198 13.8319C19.9881 14.3351 20.6946 14.4445 21.1979 14.0762L21.74 13.6794C22.2433 13.3111 22.3526 12.6046 21.9843 12.1014ZM32.5628 16.361L36.2738 15.9408C36.8934 15.8707 37.4526 16.3161 37.5228 16.9357L37.5984 17.6033C37.6685 18.223 37.2231 18.7822 36.6034 18.8523L32.8925 19.2725C32.2728 19.3427 31.7136 18.8972 31.6434 18.2776L31.5678 17.61C31.4977 16.9904 31.9431 16.4312 32.5628 16.361Z" fill="var(--spectrum-global-color-gray-800, #292929)"/>
</svg>
