<svg width="160" height="160" viewBox="0 0 160 160" xmlns="http://www.w3.org/2000/svg">
<path fill-rule="evenodd" d="M84.287 28.2188C55.2666 28.2188 31.6758 51.981 31.6758 81.3739C31.6758 110.195 58.4646 131.781 88.0974 131.781C96.0328 131.781 106.328 129.333 114.374 125.447C118.393 123.506 121.598 121.325 123.65 119.136C125.705 116.942 126.235 115.169 126.047 113.784C125.7 111.211 124.84 110.204 124.122 109.66C123.199 108.96 121.887 108.545 119.795 108.116C119.547 108.066 119.276 108.013 118.988 107.957C117.256 107.622 114.877 107.162 112.924 106.168C111.659 105.523 110.404 104.595 109.402 103.221C108.399 101.845 107.799 100.227 107.543 98.4214C106.873 93.6854 107.788 89.8224 109.72 86.5171C111.553 83.3811 114.218 80.9143 116.615 78.7913C116.926 78.5162 117.235 78.2444 117.54 77.9749C122.186 73.8833 126.217 70.3331 127.756 63.9492C129.715 55.8243 126.517 47.0765 118.798 40.1094C111.09 33.1527 99.0492 28.2188 84.287 28.2188ZM23.6758 81.3739C23.6758 47.635 50.7764 20.2188 84.287 20.2188C100.79 20.2188 114.812 25.7351 124.158 34.1706C133.492 42.5957 138.34 54.1819 135.533 65.8245C133.378 74.763 127.513 79.8882 123.012 83.8216L123.01 83.823L123.008 83.8244C122.635 84.1509 122.271 84.4693 121.919 84.7809C119.506 86.9171 117.745 88.6407 116.627 90.5539C115.607 92.2977 115.046 94.3426 115.464 97.3006C115.567 98.0251 115.756 98.3562 115.866 98.5078C115.978 98.6612 116.162 98.8388 116.554 99.0382C117.422 99.4803 118.499 99.696 120.288 100.054L120.288 100.054C120.632 100.123 121.002 100.197 121.402 100.279C123.526 100.715 126.456 101.391 128.954 103.283C131.656 105.331 133.395 108.417 133.975 112.714C134.605 117.374 132.453 121.44 129.488 124.605C126.519 127.774 122.367 130.471 117.853 132.651C108.831 137.009 97.3523 139.781 88.0974 139.781C55.1991 139.781 23.6758 115.684 23.6758 81.3739ZM96.003 50.8831C96.003 56.4056 91.5262 60.8824 86.0037 60.8824C80.4812 60.8824 76.0044 56.4056 76.0044 50.8831C76.0044 45.3606 80.4812 40.8838 86.0037 40.8838C91.5262 40.8838 96.003 45.3606 96.003 50.8831ZM61.0052 74.0729C66.5277 74.0729 71.0045 69.596 71.0045 64.0735C71.0045 58.5511 66.5277 54.0742 61.0052 54.0742C55.4827 54.0742 51.0059 58.5511 51.0059 64.0735C51.0059 69.596 55.4827 74.0729 61.0052 74.0729ZM71.0045 96.6263C71.0045 102.149 66.5277 106.626 61.0052 106.626C55.4827 106.626 51.0059 102.149 51.0059 96.6263C51.0059 91.1038 55.4827 86.627 61.0052 86.627C66.5277 86.627 71.0045 91.1038 71.0045 96.6263ZM86.0037 120.879C91.5262 120.879 96.003 116.402 96.003 110.879C96.003 105.357 91.5262 100.88 86.0037 100.88C80.4812 100.88 76.0044 105.357 76.0044 110.879C76.0044 116.402 80.4812 120.879 86.0037 120.879Z" fill="var(--spectrum-global-color-gray-800, #292929)"/>
</svg>
