<svg width="160" height="160" viewBox="0 0 160 160" xmlns="http://www.w3.org/2000/svg">
<path fill-rule="evenodd" d="M104.459 34.12C108.496 34.12 111.769 30.8472 111.769 26.81C111.769 22.7728 108.496 19.5 104.459 19.5C100.422 19.5 97.1488 22.7728 97.1488 26.81C97.1488 30.8472 100.422 34.12 104.459 34.12ZM86.2063 41.3498C88.4045 41.5698 90.0081 43.5301 89.7882 45.7283C88.5781 57.8199 82.0022 69.901 71.2928 77.3533C69.4795 78.6151 66.9866 78.168 65.7247 76.3547C64.4629 74.5414 64.91 72.0485 66.7233 70.7867C75.4143 64.7389 80.8384 54.82 81.8279 44.9317C82.0479 42.7335 84.0082 41.1299 86.2063 41.3498ZM98.7496 92.466C100.632 91.3098 103.095 91.8986 104.251 93.781C106.788 97.9105 108.666 101.902 109.514 105.402C110.302 108.658 110.491 112.821 107.613 115.699C107.507 115.805 107.399 115.907 107.29 116.004C106.857 116.515 106.289 116.924 105.615 117.171L105.395 117.251C104.959 117.455 104.511 117.616 104.055 117.741L35.8341 142.7C25.8443 146.355 16.1455 136.656 19.8003 126.667L44.7593 58.4452C44.8846 57.9899 45.0461 57.5415 45.2495 57.1054L45.3299 56.8856C45.5765 56.2116 45.9853 55.6441 46.4962 55.2109C46.5939 55.1015 46.6957 54.9937 46.8017 54.8877C49.6263 52.0632 53.6906 52.1968 56.8887 52.9374C60.3112 53.7301 64.205 55.5236 68.2307 57.9515C70.1224 59.0924 70.731 61.5509 69.5901 63.4426C68.4492 65.3343 65.9908 65.943 64.099 64.802C60.4338 62.5915 57.3573 61.2577 55.0837 60.7311C53.4713 60.3577 52.7506 60.4847 52.5043 60.5596L52.432 60.7574C52.3817 61.0394 52.353 61.5645 52.5032 62.4628C52.8023 64.2513 53.7089 66.7316 55.3478 69.7871C58.6006 75.8517 64.2958 83.3688 71.7138 90.7868C79.1318 98.2049 86.6489 103.9 92.7135 107.153C95.769 108.792 98.2494 109.698 100.038 109.997C100.936 110.148 101.461 110.119 101.743 110.069L101.94 109.997C102.017 109.745 102.151 108.991 101.738 107.285C101.167 104.924 99.7514 101.74 97.4346 97.9679C96.2784 96.0854 96.8672 93.6222 98.7496 92.466ZM88.9321 114.203C89.1386 114.313 89.3447 114.422 89.5505 114.529L33.0854 135.187C29.4891 136.503 25.9975 133.012 27.3133 129.415L47.9712 72.9502C48.0782 73.1559 48.1871 73.362 48.2979 73.5685C52.014 80.4968 58.2445 88.6313 66.0569 96.4437C73.8694 104.256 82.0038 110.487 88.9321 114.203ZM95.627 72.4783C97.1891 70.9162 97.1891 68.3836 95.627 66.8215C94.0649 65.2594 91.5323 65.2594 89.9702 66.8215L74.3702 82.4215C72.8081 83.9836 72.8081 86.5162 74.3702 88.0783C75.9323 89.6404 78.4649 89.6404 80.027 88.0783L95.627 72.4783ZM116.911 72.8543C119.101 72.5654 121.111 74.1066 121.4 76.2968C121.689 78.4869 120.147 80.4967 117.957 80.7856C108.105 82.0854 98.3613 87.8184 92.5896 96.6952C91.3854 98.5472 88.9078 99.0724 87.0557 97.8682C85.2036 96.664 84.6784 94.1864 85.8827 92.3343C92.9947 81.396 104.863 74.4437 116.911 72.8543ZM137.229 97.16C137.229 101.197 133.956 104.47 129.919 104.47C125.882 104.47 122.609 101.197 122.609 97.16C122.609 93.1228 125.882 89.85 129.919 89.85C133.956 89.85 137.229 93.1228 137.229 97.16ZM69.4626 39.5718L61.6489 28.8957C60.3442 27.113 57.8413 26.7255 56.0586 28.0303L54.1381 29.4359C52.3554 30.7406 51.9679 33.2435 53.2727 35.0262L61.0864 45.7023C62.3911 47.4849 64.8939 47.8724 66.6766 46.5677L68.5972 45.162C70.3799 43.8573 70.7673 41.3545 69.4626 39.5718ZM106.938 54.6615L120.084 53.173C122.279 52.9245 124.26 54.5025 124.508 56.6976L124.776 59.0625C125.025 61.2576 123.447 63.2386 121.252 63.4871L108.106 64.9756C105.911 65.2242 103.93 63.6462 103.681 61.4511L103.413 59.0862C103.165 56.8911 104.743 54.9101 106.938 54.6615Z" fill="var(--spectrum-global-color-gray-800, #292929)"/>
</svg>
