<svg width="96" height="96" viewBox="0 0 96 96" xmlns="http://www.w3.org/2000/svg">
<path fill-rule="evenodd" d="M76 40.7934C76 24.7145 62.4943 11.7871 46.2241 12.7951C32.7607 13.6292 21.6823 24.1841 20.1785 37.6102C19.7008 41.8749 20.2006 45.9701 21.4553 49.7175C25.4288 62.5592 36.8229 74.8535 42.7298 80.6171C45.6417 83.4584 50.2687 83.4401 53.1713 80.6071C58.7097 75.2016 68.9857 64.1349 73.5493 52.2678C75.1193 48.7641 76 44.8814 76 40.7934ZM46.4714 16.7874C60.4171 15.9235 72 26.9983 72 40.7934C72 44.3191 71.2376 47.6614 69.8787 50.6775C69.8629 50.7124 69.8482 50.7478 69.8344 50.7837C65.6146 61.8006 55.8758 72.378 50.3774 77.7446C49.0195 79.0699 46.8724 79.0705 45.5233 77.7542C39.6257 71.9996 28.9108 60.3078 25.2701 48.5143C25.2653 48.4987 25.2603 48.4831 25.2551 48.4676C24.1741 45.2484 23.7419 41.731 24.1536 38.0555C25.4417 26.5557 34.9516 17.5011 46.4714 16.7874ZM40 39.24C40 34.4999 43.7388 30.74 48.25 30.74C52.7612 30.74 56.5 34.4999 56.5 39.24C56.5 43.9801 52.7612 47.74 48.25 47.74C43.7388 47.74 40 43.9801 40 39.24ZM48.25 26.74C41.4394 26.74 36 32.3822 36 39.24C36 46.0979 41.4394 51.74 48.25 51.74C55.0607 51.74 60.5 46.0979 60.5 39.24C60.5 32.3822 55.0607 26.74 48.25 26.74Z" fill="var(--spectrum-global-color-gray-800, #292929)"/>
</svg>
