<svg width="160" height="160" viewBox="0 0 160 160" xmlns="http://www.w3.org/2000/svg">
<path fill-rule="evenodd" d="M84.0005 22.5684C84.0005 20.3592 82.2096 18.5684 80.0005 18.5684C77.7913 18.5684 76.0005 20.3592 76.0005 22.5684L76.0005 137.431C76.0005 139.64 77.7913 141.431 80.0005 141.431C82.2096 141.431 84.0005 139.64 84.0005 137.431L84.0005 22.5684ZM28.25 67.3301C30.4591 67.3301 32.25 69.1209 32.25 71.3301L32.25 88.671C32.25 90.8801 30.4591 92.671 28.25 92.671C26.0409 92.671 24.25 90.8801 24.25 88.671V71.3301C24.25 69.1209 26.0409 67.3301 28.25 67.3301ZM131.75 67.3301C133.959 67.3301 135.75 69.1209 135.75 71.3301V88.671C135.75 90.8801 133.959 92.671 131.75 92.671C129.541 92.671 127.75 90.8801 127.75 88.671V71.3301C127.75 69.1209 129.541 67.3301 131.75 67.3301ZM62.75 46.4316C64.9591 46.4316 66.75 48.2225 66.75 50.4316L66.75 109.569C66.75 111.778 64.9591 113.569 62.75 113.569C60.5409 113.569 58.75 111.778 58.75 109.569L58.75 50.4316C58.75 48.2225 60.5409 46.4316 62.75 46.4316ZM101.25 50.4316C101.25 48.2225 99.4591 46.4316 97.25 46.4316C95.0409 46.4316 93.25 48.2225 93.25 50.4316V109.569C93.25 111.778 95.0409 113.569 97.25 113.569C99.4591 113.569 101.25 111.778 101.25 109.569V50.4316ZM45.4995 32.5117C47.7087 32.5117 49.4995 34.3026 49.4995 36.5117L49.4995 123.488C49.4995 125.697 47.7087 127.488 45.4995 127.488C43.2904 127.488 41.4995 125.697 41.4995 123.488L41.4995 36.5117C41.4995 34.3026 43.2904 32.5117 45.4995 32.5117ZM118.5 36.5117C118.5 34.3026 116.709 32.5117 114.5 32.5117C112.29 32.5117 110.5 34.3026 110.5 36.5117V123.488C110.5 125.697 112.29 127.488 114.5 127.488C116.709 127.488 118.5 125.697 118.5 123.488V36.5117Z" fill="var(--spectrum-global-color-gray-800, #292929)"/>
</svg>
