<svg width="160" height="160" viewBox="0 0 160 160" xmlns="http://www.w3.org/2000/svg">
<path fill-rule="evenodd" d="M20.1148 58.1637C18.5942 38.9705 32.3337 21.9879 51.9931 22C64.0657 22.0074 74.5502 28.7394 79.9991 38.6583C85.4478 28.7394 95.9323 22.0074 108.005 22C127.664 21.9879 141.404 38.9674 139.883 58.1608C138.565 74.8134 129.04 92.0223 118.496 106.184C107.884 120.438 95.7983 132.186 88.5495 137.991C83.538 142.004 76.4356 142.003 71.425 137.989C64.1789 132.184 52.0996 120.436 41.4925 106.183C30.9536 92.0221 21.4341 74.8146 20.1148 58.1637ZM51.9881 30C37.545 29.9911 26.8933 42.4301 28.0898 57.5319C29.228 71.8972 37.6413 87.6085 47.9103 101.407C58.1111 115.114 69.7149 126.368 76.4267 131.745C78.5145 133.418 81.4609 133.418 83.549 131.746C90.2636 126.369 101.873 115.115 112.079 101.407C122.353 87.6072 130.771 71.895 131.908 57.5291C133.104 42.4279 122.453 29.9911 108.01 30C94.7875 30.0082 84.0111 40.8342 84.0111 54.2619C84.0111 54.5157 83.9869 54.7686 83.9391 55.0173C83.9344 55.0436 83.928 55.0784 83.9201 55.1175C83.5427 56.9898 81.8943 58.334 79.9844 58.3271C78.0744 58.3201 76.4359 56.9638 76.0722 55.0888C76.0664 55.0591 76.0615 55.0321 76.0578 55.0108C76.0108 54.7642 75.9871 54.5135 75.9871 54.2619C75.9871 40.8342 65.2105 30.0081 51.9881 30ZM76.047 54.9471L76.0473 54.9486C76.0467 54.9454 76.0464 54.943 76.047 54.9471Z" fill="var(--spectrum-global-color-gray-800, #292929)"/>
</svg>
