<svg width="160" height="160" viewBox="0 0 160 160" xmlns="http://www.w3.org/2000/svg">
<path fill-rule="evenodd" d="M77.0275 19.8463C101.052 18.1318 121 37.3177 121 61.1246C121 75.0286 114.199 87.3362 103.773 94.8366C101.708 96.3222 100.445 98.848 100.445 101.603V125.509C100.445 131.12 95.9317 135.74 90.2779 135.74H69.7224C64.0686 135.74 59.5557 131.12 59.5557 125.509V101.597C59.5557 98.8685 58.2229 96.2972 55.9696 94.6495C44.9135 86.5651 38.0139 73.0426 39.1149 57.9912C40.5996 37.6964 56.8556 21.2858 77.0275 19.8463ZM113 61.1246C113 41.8411 96.8723 26.4504 77.5969 27.826C61.4501 28.9783 48.2928 42.1822 47.0936 58.5749C46.2016 70.768 51.7751 81.6718 60.6916 88.1917C64.9315 91.292 67.5557 96.2263 67.5557 101.597V111.016C67.7014 110.999 67.8498 110.99 68.0001 110.99H92.4446V101.603C92.4446 96.4605 94.7992 91.437 99.1008 88.3425C107.511 82.292 113 72.3647 113 61.1246ZM92.4446 118.49H68.0001C67.8498 118.49 67.7014 118.481 67.5557 118.464V125.509C67.5557 126.78 68.5646 127.74 69.7224 127.74H90.2779C91.4356 127.74 92.4446 126.78 92.4446 125.509V118.49ZM80.2501 40.74C80.2501 38.6689 81.9291 36.99 84.0001 36.99C95.2426 36.99 104.75 45.6215 104.75 56.74C104.75 58.8111 103.071 60.49 101 60.49C98.9291 60.49 97.2501 58.8111 97.2501 56.74C97.2501 50.1855 91.5353 44.49 84.0001 44.49C81.9291 44.49 80.2501 42.8111 80.2501 40.74Z" fill="var(--spectrum-global-color-gray-800, #292929)"/>
</svg>
