<svg width="96" height="96" viewBox="0 0 96 96" xmlns="http://www.w3.org/2000/svg">
<path fill-rule="evenodd" d="M47.9999 13.2344C49.1045 13.2344 49.9999 14.1298 49.9999 15.2344V19.879C49.9999 20.9835 49.1045 21.879 47.9999 21.879C46.8953 21.879 45.9999 20.9835 45.9999 19.879V15.2344C45.9999 14.1298 46.8953 13.2344 47.9999 13.2344ZM47.9996 33.4521C39.9645 33.4521 33.4508 39.9658 33.4508 48.0009C33.4508 56.0359 39.9645 62.5496 47.9996 62.5496C56.0346 62.5496 62.5483 56.0359 62.5483 48.0009C62.5483 39.9658 56.0346 33.4521 47.9996 33.4521ZM29.4508 48.0009C29.4508 37.7567 37.7554 29.4521 47.9996 29.4521C58.2438 29.4521 66.5483 37.7567 66.5483 48.0009C66.5483 58.2451 58.2438 66.5496 47.9996 66.5496C37.7554 66.5496 29.4508 58.2451 29.4508 48.0009ZM50 76.1212C50 75.0166 49.1046 74.1212 48 74.1212C46.8954 74.1212 46 75.0166 46 76.1212V80.7658C46 81.8703 46.8954 82.7658 48 82.7658C49.1046 82.7658 50 81.8703 50 80.7658V76.1212ZM82.7656 48C82.7656 49.1046 81.8702 50 80.7656 50H76.1211C75.0165 50 74.1211 49.1046 74.1211 48C74.1211 46.8954 75.0165 46 76.1211 46H80.7656C81.8702 46 82.7656 46.8954 82.7656 48ZM19.879 50C20.9835 50 21.879 49.1046 21.879 48C21.879 46.8954 20.9835 46 19.879 46H15.2344C14.1298 46 13.2344 46.8954 13.2344 48C13.2344 49.1046 14.1298 50 15.2344 50H19.879ZM72.5828 23.4161C73.3638 24.1972 73.3638 25.4635 72.5828 26.2445L69.2986 29.5288C68.5175 30.3098 67.2512 30.3098 66.4702 29.5287C65.6891 28.7477 65.6891 27.4814 66.4702 26.7003L69.7544 23.4161C70.5354 22.6351 71.8018 22.6351 72.5828 23.4161ZM29.5291 69.2978C30.3101 68.5167 30.3101 67.2504 29.5291 66.4693C28.748 65.6883 27.4817 65.6883 26.7006 66.4693L23.4164 69.7536C22.6354 70.5346 22.6354 71.8009 23.4164 72.582C24.1975 73.363 25.4638 73.363 26.2449 72.582L29.5291 69.2978ZM23.4162 23.4161C22.6352 24.1972 22.6352 25.4635 23.4162 26.2445L26.7005 29.5288C27.4815 30.3098 28.7478 30.3098 29.5289 29.5287C30.3099 28.7477 30.3099 27.4814 29.5289 26.7003L26.2447 23.4161C25.4636 22.6351 24.1973 22.6351 23.4162 23.4161ZM66.47 69.2977C65.689 68.5167 65.689 67.2503 66.47 66.4693C67.2511 65.6882 68.5174 65.6882 69.2985 66.4693L72.5827 69.7535C73.3637 70.5346 73.3637 71.8009 72.5827 72.5819C71.8016 73.363 70.5353 73.363 69.7543 72.5819L66.47 69.2977Z" fill="var(--spectrum-global-color-gray-800, #292929)"/>
</svg>
