<svg width="160" height="160" viewBox="0 0 160 160" xmlns="http://www.w3.org/2000/svg">
<path fill-rule="evenodd" d="M55 20C57.2091 20 59 21.7909 59 24V30H101V24C101 21.7909 102.791 20 105 20C107.209 20 109 21.7909 109 24V30H116C127.046 30 136 38.9543 136 50V116C136 127.046 127.046 136 116 136H44C32.9543 136 24 127.046 24 116V50C24 38.9543 32.9543 30 44 30H51V24C51 21.7909 52.7909 20 55 20ZM101 38V44C101 46.2091 102.791 48 105 48C107.209 48 109 46.2091 109 44V38H116C122.627 38 128 43.3726 128 50V60H32V50C32 43.3726 37.3726 38 44 38H51V44C51 46.2091 52.7909 48 55 48C57.2091 48 59 46.2091 59 44V38H101ZM32 68V116C32 122.627 37.3726 128 44 128H116C122.627 128 128 122.627 128 116V68H32ZM49 80H55C57.2091 80 59 81.7909 59 84V90C59 92.2091 57.2091 94 55 94H49C46.7909 94 45 92.2091 45 90V84C45 81.7909 46.7909 80 49 80ZM83 80H77C74.7909 80 73 81.7909 73 84V90C73 92.2091 74.7909 94 77 94H83C85.2091 94 87 92.2091 87 90V84C87 81.7909 85.2091 80 83 80ZM105 80H111C113.209 80 115 81.7909 115 84V90C115 92.2091 113.209 94 111 94H105C102.791 94 101 92.2091 101 90V84C101 81.7909 102.791 80 105 80ZM55 102H49C46.7909 102 45 103.791 45 106V112C45 114.209 46.7909 116 49 116H55C57.2091 116 59 114.209 59 112V106C59 103.791 57.2091 102 55 102ZM77 102H83C85.2091 102 87 103.791 87 106V112C87 114.209 85.2091 116 83 116H77C74.7909 116 73 114.209 73 112V106C73 103.791 74.7909 102 77 102ZM111 102H105C102.791 102 101 103.791 101 106V112C101 114.209 102.791 116 105 116H111C113.209 116 115 114.209 115 112V106C115 103.791 113.209 102 111 102Z" fill="var(--spectrum-global-color-gray-800, #292929)"/>
</svg>
