<svg width="96" height="96" viewBox="0 0 96 96" xmlns="http://www.w3.org/2000/svg">
<path fill-rule="evenodd" d="M47.9997 12.7402C35.9624 12.7402 26.1908 22.4622 26.1908 34.4714C26.1908 34.487 26.1909 34.5013 26.1911 34.5142C26.1909 34.5268 26.1908 34.5394 26.1908 34.552V40.7795C25.9461 48.2875 22.7529 55.1245 19.5575 60.1275C16.4552 64.985 19.9314 71.3402 25.7066 71.3402H38.8001V73.5402C38.8001 78.6213 42.9191 82.7402 48.0001 82.7402C53.0812 82.7402 57.2001 78.6213 57.2001 73.5402V71.3402H70.2928C76.0681 71.3402 79.5443 64.985 76.4419 60.1275C73.2466 55.1245 70.0534 48.2875 69.8087 40.7795V34.552C69.8087 34.5394 69.8086 34.5268 69.8083 34.5142C69.8086 34.5014 69.8087 34.487 69.8087 34.4714C69.8087 22.4622 60.0371 12.7402 47.9997 12.7402ZM53.2001 71.3402H42.8001V73.5402C42.8001 76.4121 45.1283 78.7402 48.0001 78.7402C50.872 78.7402 53.2001 76.4121 53.2001 73.5402V71.3402ZM30.1908 40.8116V34.6426C30.1923 34.6099 30.193 34.5771 30.1928 34.5442C30.1927 34.5152 30.1921 34.4905 30.1916 34.4731L30.1908 34.4494C30.2027 24.6743 38.1641 16.7402 47.9997 16.7402C57.8354 16.7402 65.7967 24.6742 65.8087 34.4493L65.8079 34.473C65.8074 34.4904 65.8068 34.5151 65.8067 34.5442C65.8065 34.5771 65.8072 34.6099 65.8087 34.6427V40.8116C65.8087 40.8326 65.809 40.8536 65.8097 40.8745C66.0784 49.4043 69.6769 56.9665 73.0708 62.2806C74.4726 64.4754 72.9089 67.3402 70.2928 67.3402H25.7066C23.0906 67.3402 21.5269 64.4754 22.9286 62.2806C26.3226 56.9665 29.9211 49.4043 30.1898 40.8745C30.1905 40.8536 30.1908 40.8326 30.1908 40.8116Z" fill="var(--spectrum-global-color-gray-800, #292929)"/>
</svg>
