<svg width="160" height="160" viewBox="0 0 160 160" xmlns="http://www.w3.org/2000/svg">
<path fill-rule="evenodd" d="M20.9688 44C20.9688 37.3726 26.3413 32 32.9688 32H127.029C133.656 32 139.029 37.3726 139.029 44V88C139.029 94.6274 133.656 100 127.029 100H32.9688C26.3413 100 20.9688 94.6274 20.9688 88V44ZM32.9688 24C21.9231 24 12.9688 32.9543 12.9688 44V88C12.9688 99.0457 21.9231 108 32.9688 108H72.999V128H58.9893C56.7801 128 54.9893 129.791 54.9893 132C54.9893 134.209 56.7801 136 58.9893 136H101.009C103.218 136 105.009 134.209 105.009 132C105.009 129.791 103.218 128 101.009 128H86.999V108H127.029C138.074 108 147.029 99.0457 147.029 88V44C147.029 32.9543 138.074 24 127.029 24H32.9688ZM76.0195 44.5C76.0195 46.9862 78.0333 49 80.5195 49C83.0058 49 85.0195 46.9862 85.0195 44.5C85.0195 42.0138 83.0058 40 80.5195 40H80.5083C78.0333 40 76.0195 42.0138 76.0195 44.5Z" fill="var(--spectrum-global-color-gray-800, #292929)"/>
</svg>
