<svg width="48" height="48" viewBox="0 0 48 48" xmlns="http://www.w3.org/2000/svg">
<path fill-rule="evenodd" d="M7.98761 7.25C4.92635 7.25 2.375 9.64614 2.375 12.74V27.2035C2.375 30.2973 4.92635 32.6934 7.98761 32.6934H10.7814C10.7874 34.5492 10.7899 36.7759 10.7768 38.5505C10.7594 40.896 13.5181 42.0666 15.2422 40.6012L15.2437 40.5999L24.6018 32.6934H28.1875C28.8779 32.6934 29.4375 32.1338 29.4375 31.4434C29.4375 30.7531 28.8779 30.1934 28.1875 30.1934H24.1445H23.6871L23.3378 30.4886L13.6268 38.6932L13.6233 38.6962C13.5792 38.7337 13.5427 38.7451 13.5121 38.7487C13.4757 38.7529 13.4312 38.7472 13.3871 38.7273C13.343 38.7073 13.3146 38.6801 13.2996 38.6581C13.2882 38.6414 13.2764 38.6172 13.2767 38.569C13.2931 36.3583 13.2853 33.4593 13.2768 31.4382L13.2715 30.1934H12.0268H7.98761C6.23006 30.1934 4.875 28.8408 4.875 27.2035V12.74C4.875 11.1026 6.23006 9.75 7.98761 9.75H36.2624C38.0199 9.75 39.375 11.1026 39.375 12.74V19.0312C39.375 19.7216 39.9346 20.2812 40.625 20.2812C41.3154 20.2812 41.875 19.7216 41.875 19.0312V12.74C41.875 9.64614 39.3236 7.25 36.2624 7.25H7.98761ZM30.625 28.9355C30.625 24.7942 33.9837 21.4355 38.125 21.4355C42.2663 21.4355 45.625 24.7942 45.625 28.9355C45.625 33.0769 42.2663 36.4355 38.125 36.4355C33.9837 36.4355 30.625 33.0769 30.625 28.9355ZM41.4837 32.2942C41.9691 31.8087 41.9691 31.026 41.4837 30.5406H41.5035L39.8984 28.9355L41.5035 27.3305C41.9889 26.8451 41.9889 26.0624 41.5035 25.5769C41.018 25.0914 40.2353 25.0914 39.7498 25.5769L38.1448 27.1819L36.5398 25.5769C36.0543 25.0914 35.2716 25.0914 34.7862 25.5769C34.3007 26.0624 34.3007 26.8451 34.7862 27.3305L36.3912 28.9355L34.7862 30.5406C34.3007 31.026 34.3007 31.8087 34.7862 32.2942C35.0239 32.5419 35.341 32.6608 35.658 32.6608C35.9751 32.6608 36.2921 32.532 36.5299 32.2942L38.1349 30.6892L39.7399 32.2942C39.9777 32.5419 40.2947 32.6608 40.6118 32.6608C40.9288 32.6608 41.2459 32.532 41.4837 32.2942Z" fill="var(--spectrum-global-color-gray-800, #292929)"/>
</svg>
