<svg width="96" height="96" viewBox="0 0 96 96" xmlns="http://www.w3.org/2000/svg">
<path fill-rule="evenodd" d="M48 12C40.268 12 34 18.268 34 26V42C34 49.732 40.268 56 48 56C55.732 56 62 49.732 62 42V26C62 18.268 55.732 12 48 12ZM38 26C38 20.4772 42.4772 16 48 16C53.5228 16 58 20.4772 58 26V42C58 47.5228 53.5228 52 48 52C42.4772 52 38 47.5228 38 42V26ZM46 67.9242C32.5751 66.903 22 55.6865 22 42V39C22 37.8954 22.8954 37 24 37C25.1046 37 26 37.8954 26 39V42C26 54.1503 35.8497 64 48 64C60.1503 64 70 54.1503 70 42V39C70 37.8954 70.8954 37 72 37C73.1046 37 74 37.8954 74 39V42C74 55.6865 63.4249 66.903 50 67.9242V76H62C63.1046 76 64 76.8954 64 78C64 79.1046 63.1046 80 62 80H34C32.8954 80 32 79.1046 32 78C32 76.8954 32.8954 76 34 76H46V67.9242Z" fill="var(--spectrum-global-color-gray-800, #292929)"/>
</svg>
