<svg width="96" height="96" viewBox="0 0 96 96" xmlns="http://www.w3.org/2000/svg">
<path fill-rule="evenodd" d="M14 18C14 13.5898 17.5711 10 21.99 10H41.44C43.487 10 45.4763 10.7833 46.9656 12.2178L46.968 12.2201L66.5333 30.9655C68.1056 32.4712 69 34.5524 69 36.74V51.49C69 52.5946 68.1046 53.49 67 53.49C65.8954 53.49 65 52.5946 65 51.49V36.74C65 35.6476 64.5544 34.6087 63.7667 33.8545L63.7664 33.8541L44.1964 15.1041L44.192 15.0999C43.4616 14.3958 42.4719 14 41.44 14H21.99C19.7889 14 18 15.7902 18 18V65.99C18 68.1998 19.7889 69.99 21.99 69.99H46C47.1046 69.99 48 70.8854 48 71.99C48 73.0946 47.1046 73.99 46 73.99H21.99C17.5711 73.99 14 70.4002 14 65.99V18ZM81.4902 71.74C81.4902 79.8862 74.8864 86.49 66.7402 86.49C58.594 86.49 51.9902 79.8862 51.9902 71.74C51.9902 63.5938 58.594 56.99 66.7402 56.99C74.8864 56.99 81.4902 63.5938 81.4902 71.74ZM66.9883 62.9898C68.0928 62.9898 68.9883 63.8852 68.9883 64.9898V69.9898H73.9887C75.0932 69.9898 75.9887 70.8852 75.9887 71.9898C75.9887 73.0944 75.0932 73.9898 73.9887 73.9898H68.9883V78.9898C68.9883 80.0944 68.0928 80.9898 66.9883 80.9898C65.8837 80.9898 64.9883 80.0944 64.9883 78.9898V73.9898H59.9887C58.8841 73.9898 57.9887 73.0944 57.9887 71.9898C57.9887 70.8852 58.8841 69.9898 59.9887 69.9898H64.9883V64.9898C64.9883 63.8852 65.8837 62.9898 66.9883 62.9898ZM50.768 41.9716C51.7964 40.9464 51.7964 39.2868 50.768 38.2617C49.7363 37.2331 48.0609 37.2331 47.0292 38.2617L44.3601 40.9226C43.5778 41.7024 42.3115 41.7004 41.5316 40.9182C40.7518 40.1359 40.7537 38.8696 41.536 38.0898L44.2051 35.4289C46.7979 32.844 50.9992 32.844 53.5921 35.4289C56.1883 38.0171 56.1883 42.2161 53.5921 44.8044L46.824 51.5516C44.5373 53.8312 41.0049 54.0985 38.4233 52.3625C37.5066 51.7462 37.2632 50.5035 37.8796 49.5869C38.4959 48.6702 39.7387 48.4268 40.6553 49.0432C41.6831 49.7343 43.0929 49.6231 44 48.7188L50.768 41.9716ZM30.771 53.5184C29.7427 54.5436 29.7427 56.2031 30.771 57.2283C31.8028 58.2569 33.4782 58.2569 34.5099 57.2283L37.179 54.5674C37.9613 53.7876 39.2276 53.7895 40.0074 54.5718C40.7873 55.354 40.7853 56.6204 40.0031 57.4002L37.334 60.0611C34.7411 62.646 30.5398 62.646 27.947 60.0611C25.3507 57.4728 25.3507 53.2739 27.947 50.6856L34.715 43.9384C37.0017 41.6588 40.5342 41.3915 43.1158 43.1274C44.0324 43.7438 44.2758 44.9865 43.6595 45.9031C43.0431 46.8197 41.8004 47.0632 40.8838 46.4468C39.856 45.7557 38.4462 45.8669 37.5391 46.7712L30.771 53.5184Z" fill="var(--spectrum-global-color-gray-800, #292929)"/>
</svg>
