<svg width="48" height="48" viewBox="0 0 48 48" xmlns="http://www.w3.org/2000/svg">
<path fill-rule="evenodd" d="M13.5121 13.8329C13.7823 13.1776 14.4212 12.75 15.13 12.75H31.245C31.9538 12.75 32.5927 13.1776 32.8629 13.8329L34.015 16.6273C33.9685 16.6258 33.9218 16.625 33.875 16.625H12.5C12.4532 16.625 12.4065 16.6258 12.36 16.6273L13.5121 13.8329ZM37.6556 18.8985C37.6713 18.9365 37.6849 18.9748 37.6966 19.0134C37.971 19.5756 38.125 20.2073 38.125 20.875V24.75C38.125 25.4404 37.5654 26 36.875 26C36.1846 26 35.625 25.4404 35.625 24.75V20.875C35.625 19.9085 34.8415 19.125 33.875 19.125H12.5C11.5335 19.125 10.75 19.9085 10.75 20.875V31.375C10.75 32.3415 11.5335 33.125 12.5 33.125H27.25C27.9404 33.125 28.5 33.6847 28.5 34.375C28.5 35.0654 27.9404 35.625 27.25 35.625H12.5C10.1528 35.625 8.25 33.7222 8.25 31.375V20.875C8.25 20.2073 8.40398 19.5756 8.67836 19.0134C8.69005 18.9748 8.70371 18.9365 8.71937 18.8985L11.2009 12.88C11.8571 11.2885 13.4085 10.25 15.13 10.25H31.245C32.9665 10.25 34.5179 11.2885 35.1741 12.88L37.6556 18.8985ZM19.25 25.5L27.5 25.5C28.1904 25.5 28.75 24.9404 28.75 24.25C28.75 23.5597 28.1904 23 27.5 23L19.25 23C18.5596 23 18 23.5597 18 24.25C18 24.9404 18.5596 25.5 19.25 25.5ZM36.8454 41.3402C40.681 41.3402 43.7904 38.2308 43.7904 34.3952C43.7904 30.5596 40.681 27.4502 36.8454 27.4502C33.0098 27.4502 29.9004 30.5596 29.9004 34.3952C29.9004 38.2308 33.0098 41.3402 36.8454 41.3402ZM38.1504 31.2502C38.1504 30.5598 37.5907 30.0002 36.9004 30.0002C36.21 30.0002 35.6504 30.5598 35.6504 31.2502V33.1252H33.7204C33.03 33.1252 32.4704 33.6848 32.4704 34.3752C32.4704 35.0655 33.03 35.6252 33.7204 35.6252H35.6504V37.5002C35.6504 38.1906 36.21 38.7502 36.9004 38.7502C37.5907 38.7502 38.1504 38.1905 38.1504 37.5002V35.6252H39.9704C40.6607 35.6252 41.2204 35.0655 41.2204 34.3752C41.2204 33.6848 40.6607 33.1252 39.9704 33.1252H38.1504V31.2502Z" fill="var(--spectrum-global-color-gray-800, #292929)"/>
</svg>
