<svg width="96" height="96" viewBox="0 0 96 96" xmlns="http://www.w3.org/2000/svg">
<path fill-rule="evenodd" d="M35.2146 25.0389C38.2096 17.9219 45.0427 12.8906 53.0708 12.8906C63.4573 12.8906 71.8245 21.2897 72.5147 31.7596C80.7508 33.1289 86.9608 40.3167 86.9608 49.4806C86.9608 59.3226 79.3062 67.4406 69.6808 67.4406H69.6806H69.6804H69.6803H69.6801H69.6799H69.6797H69.6795H69.6794H69.6792H69.679H69.6788H69.6786H69.6784H69.6783H69.6781H69.6779H69.6777H69.6775H69.6773H69.6771H69.6769H69.6768H69.6766H69.6764H69.6762H69.676H69.6758H69.6756H69.6754H69.6752H69.675H69.6748H69.6746H69.6744H69.6742H69.674H69.6738H69.6736H69.6734H69.6732H69.673H69.6728H69.6726H69.6724H69.6722H69.672H69.6718H69.6716H69.6714H69.6712H69.671H69.6708H69.6706H69.6704H69.6702H69.67H69.6698H69.6696H69.6694H69.6691H69.6689H69.6687H69.6685H69.6683H69.6681H69.6679H69.6677H69.6675H69.6672H69.667H69.6668H69.6666H69.6664H69.6662H69.666H69.6657H69.6655H69.6653H69.6651H69.6649H69.6646H69.6644H69.6642H69.664H69.6638H69.6636H69.6633H69.6631H69.6629H69.6627H69.6624H69.6622H69.662H69.6618H69.6616H69.6613H69.6611H69.6609H69.6607H69.6604H69.6602H69.66H69.6598H69.6595H69.6593H69.6591H69.6589H69.6586H69.6584H69.6582H69.658H69.6577H69.6575H69.6573H69.657H69.6568H69.6566H69.6564H69.6561H69.6559H69.6557H69.6554H69.6552H69.655H69.6548H69.6545H69.6543H69.6541H69.6538H69.6536H69.6534H69.6531H69.6529H69.6527H69.6524H69.6522H69.652H69.6517H69.6515H69.6513H69.6511H69.6508H69.6506H69.6504H69.6501H69.6499H69.6497H69.6494H69.6492H69.649H69.6487H69.6485H69.6483H69.648H69.6478H69.6475H69.6473H69.6471H69.6468H69.6466H69.6464H69.6461H69.6459H69.6457H69.6454H69.6452H69.645H69.6447H69.6445H69.6443H69.644H69.6438H69.6436H69.6433H69.6431H69.6429H69.6426H69.6424H69.6422H69.6419H69.6417H69.6415H69.6412H69.641H69.6408H69.6405H69.6403H69.6401H69.6398H69.6396H69.6394H69.6391H69.6389H69.6387H69.6384H69.6382H69.638H69.6377H69.6375H69.6373H69.637H69.6368H69.6366H69.6363H69.6361H69.6359H69.6356H69.6354H69.6352H69.6349H69.6347H69.6345H69.6342H69.634H69.6338H69.6336H69.6333H69.6331H69.6329H69.6326H69.6324H69.6322H69.6319H69.6317H69.6315H69.6313H69.631H69.6308H69.6306H69.6303H69.6301H69.6299H69.6297H69.6294H69.6292H69.629H69.6288H69.6285H69.6283H69.6281H69.6279H69.6276H69.6274H69.6272H69.627H69.6267H69.6265H69.6263H69.6261H69.6259H69.6256H69.6254H69.6252H69.625H69.6248H69.6245H69.6243H69.6241H69.6239H69.6237H69.6234H69.6232H69.623H69.6228H69.6226H69.6224H69.6221H69.6219H69.6217H69.6215H69.6213H69.6211H69.6208H69.6206H69.6204H69.6202H69.62H69.6198H69.6196H69.6194H69.6192H69.6189H69.6187H69.6185H69.6183H69.6181H69.6179H69.6177H69.6175H69.6173H69.6171H69.6169H69.6167H69.6165H69.6163H69.6161H69.6159H69.6157H69.6155H69.6152H69.6151H69.6148H69.6147H69.6145H69.6143H69.6141H69.6139H69.6137H69.6135H69.6133H69.6131H69.6129H69.6127H69.6125H69.6123H69.6121H69.6119H69.6117H69.6115H69.6113H69.6112H69.611H69.6108H69.6106H69.6104H69.6102H69.61H69.6098H69.6097H69.6095H69.6093H69.6091H69.6089H69.6088H69.6086H69.6084H69.6082H69.608H69.6079H69.6077H69.6075H69.6073H69.6072H69.607H69.6068H69.6066H69.6065H69.6063H69.6061H69.6059H69.6058H69.6056H69.6054H69.6053H69.6051H69.6049H69.6048H69.6046H69.6045H69.6043H69.6041H69.604H69.6038H69.6036H69.6035H69.6033H69.6032H69.603H69.6029H69.6027H69.6026H69.6024H69.6022H69.6021H69.6019H69.6018H69.6016H69.6015H69.6013H69.6012H69.6011H69.6009H69.6008H69.6006H69.6005H69.6003H69.6002H69.6001H69.5999H69.5998H69.5996H69.5995H69.5994H69.5992H69.5991H69.599H69.5988H69.5987H69.5986H69.5984H69.5983H69.5982H69.5981H69.5979H69.5978H69.5977H69.5976H69.5975H69.5973H69.5972H69.5971H69.597H69.5969H69.5967H69.5966H69.5965H69.5964H69.5963H69.5962H69.5961H69.596H69.5959H69.5957H69.5956H69.5955H69.5954H69.5953H69.5952H69.5951H69.595H69.5949H69.5948H69.5947H69.5946H69.5945H69.5945H69.5944H69.5943H69.5942H69.5941H69.594H69.5939H69.5938H69.5937H69.5937H69.5936H69.5935H69.5934H69.5933H69.5933H69.5932H69.5931H69.593H69.593H69.5929H69.5928H69.5927H69.5927H69.5926H69.5925H69.5925H69.5924H69.5924H69.5923H69.5922H69.5922H69.5921H69.5921H69.592H69.5919H69.5919H69.5918H69.5918H69.5917H69.5917H69.5916H69.5916H69.5915H69.5915H69.5915H69.5914H69.5914H69.5913H69.5913H69.5913H69.5912H69.5912H69.5912H69.5911H69.5911H69.591H69.591H69.591H69.5909H69.5909H69.5908H69.5908H69.5908H68.9008C67.7962 67.4406 66.9008 66.5452 66.9008 65.4406C66.9008 64.3361 67.7962 63.4406 68.9008 63.4406H69.5908H69.5908H69.5908H69.5909H69.5909H69.591H69.591H69.591H69.5911H69.5911H69.5912H69.5912H69.5912H69.5913H69.5913H69.5913H69.5914H69.5914H69.5915H69.5915H69.5915H69.5916H69.5916H69.5917H69.5917H69.5918H69.5918H69.5919H69.5919H69.592H69.5921H69.5921H69.5922H69.5922H69.5923H69.5924H69.5924H69.5925H69.5925H69.5926H69.5927H69.5927H69.5928H69.5929H69.593H69.593H69.5931H69.5932H69.5933H69.5933H69.5934H69.5935H69.5936H69.5937H69.5937H69.5938H69.5939H69.594H69.5941H69.5942H69.5943H69.5944H69.5945H69.5945H69.5946H69.5947H69.5948H69.5949H69.595H69.5951H69.5952H69.5953H69.5954H69.5955H69.5956H69.5957H69.5959H69.596H69.5961H69.5962H69.5963H69.5964H69.5965H69.5966H69.5967H69.5969H69.597H69.5971H69.5972H69.5973H69.5975H69.5976H69.5977H69.5978H69.5979H69.5981H69.5982H69.5983H69.5984H69.5986H69.5987H69.5988H69.599H69.5991H69.5992H69.5994H69.5995H69.5996H69.5998H69.5999H69.6001H69.6002H69.6003H69.6005H69.6006H69.6008H69.6009H69.6011H69.6012H69.6013H69.6015H69.6016H69.6018H69.6019H69.6021H69.6022H69.6024H69.6026H69.6027H69.6029H69.603H69.6032H69.6033H69.6035H69.6036H69.6038H69.604H69.6041H69.6043H69.6045H69.6046H69.6048H69.6049H69.6051H69.6053H69.6054H69.6056H69.6058H69.6059H69.6061H69.6063H69.6065H69.6066H69.6068H69.607H69.6072H69.6073H69.6075H69.6077H69.6079H69.608H69.6082H69.6084H69.6086H69.6088H69.6089H69.6091H69.6093H69.6095H69.6097H69.6098H69.61H69.6102H69.6104H69.6106H69.6108H69.611H69.6112H69.6113H69.6115H69.6117H69.6119H69.6121H69.6123H69.6125H69.6127H69.6129H69.6131H69.6133H69.6135H69.6137H69.6139H69.6141H69.6143H69.6145H69.6147H69.6148H69.6151H69.6152H69.6155H69.6157H69.6159H69.6161H69.6163H69.6165H69.6167H69.6169H69.6171H69.6173H69.6175H69.6177H69.6179H69.6181H69.6183H69.6185H69.6187H69.6189H69.6192H69.6194H69.6196H69.6198H69.62H69.6202H69.6204H69.6206H69.6208H69.6211H69.6213H69.6215H69.6217H69.6219H69.6221H69.6224H69.6226H69.6228H69.623H69.6232H69.6234H69.6237H69.6239H69.6241H69.6243H69.6245H69.6248H69.625H69.6252H69.6254H69.6256H69.6259H69.6261H69.6263H69.6265H69.6267H69.627H69.6272H69.6274H69.6276H69.6279H69.6281H69.6283H69.6285H69.6288H69.629H69.6292H69.6294H69.6297H69.6299H69.6301H69.6303H69.6306H69.6308H69.631H69.6313H69.6315H69.6317H69.6319H69.6322H69.6324H69.6326H69.6329H69.6331H69.6333H69.6336H69.6338H69.634H69.6342H69.6345H69.6347H69.6349H69.6352H69.6354H69.6356H69.6359H69.6361H69.6363H69.6366H69.6368H69.637H69.6373H69.6375H69.6377H69.638H69.6382H69.6384H69.6387H69.6389H69.6391H69.6394H69.6396H69.6398H69.6401H69.6403H69.6405H69.6408H69.641H69.6412H69.6415H69.6417H69.6419H69.6422H69.6424H69.6426H69.6429H69.6431H69.6433H69.6436H69.6438H69.644H69.6443H69.6445H69.6447H69.645H69.6452H69.6454H69.6457H69.6459H69.6461H69.6464H69.6466H69.6468H69.6471H69.6473H69.6475H69.6478H69.648H69.6483H69.6485H69.6487H69.649H69.6492H69.6494H69.6497H69.6499H69.6501H69.6504H69.6506H69.6508H69.6511H69.6513H69.6515H69.6517H69.652H69.6522H69.6524H69.6527H69.6529H69.6531H69.6534H69.6536H69.6538H69.6541H69.6543H69.6545H69.6548H69.655H69.6552H69.6554H69.6557H69.6559H69.6561H69.6564H69.6566H69.6568H69.657H69.6573H69.6575H69.6577H69.658H69.6582H69.6584H69.6586H69.6589H69.6591H69.6593H69.6595H69.6598H69.66H69.6602H69.6604H69.6607H69.6609H69.6611H69.6613H69.6616H69.6618H69.662H69.6622H69.6624H69.6627H69.6629H69.6631H69.6633H69.6636H69.6638H69.664H69.6642H69.6644H69.6646H69.6649H69.6651H69.6653H69.6655H69.6657H69.666H69.6662H69.6664H69.6666H69.6668H69.667H69.6672H69.6675H69.6677H69.6679H69.6681H69.6683H69.6685H69.6687H69.6689H69.6691H69.6694H69.6696H69.6698H69.67H69.6702H69.6704H69.6706H69.6708H69.671H69.6712H69.6714H69.6716H69.6718H69.672H69.6722H69.6724H69.6726H69.6728H69.673H69.6732H69.6734H69.6736H69.6738H69.674H69.6742H69.6744H69.6746H69.6748H69.675H69.6752H69.6754H69.6756H69.6758H69.676H69.6762H69.6764H69.6766H69.6768H69.6769H69.6771H69.6773H69.6775H69.6777H69.6779H69.6781H69.6783H69.6784H69.6786H69.6788H69.679H69.6792H69.6794H69.6795H69.6797H69.6799H69.6801H69.6803H69.6804H69.6806H69.6808C76.9354 63.4406 82.9608 57.2787 82.9608 49.4806C82.9608 41.6745 77.3719 35.9527 70.4439 35.5472C69.3866 35.4853 68.5608 34.6098 68.5608 33.5506V33.5499V33.5491V33.5483V33.5476V33.5468V33.5461V33.5453V33.5445V33.5438V33.543V33.5422V33.5415V33.5407V33.54V33.5392V33.5384V33.5377V33.5369V33.5362V33.5354V33.5346V33.5339V33.5331V33.5323V33.5316V33.5308V33.5301V33.5293V33.5285V33.5278V33.527V33.5262V33.5255V33.5247V33.524V33.5232V33.5224V33.5217V33.5209V33.5202V33.5194V33.5186V33.5179V33.5171V33.5163V33.5156V33.5148V33.5141V33.5133V33.5125V33.5118V33.511V33.5103V33.5095V33.5087V33.508V33.5072V33.5064V33.5057V33.5049V33.5042V33.5034V33.5026V33.5019V33.5011V33.5004V33.4996V33.4988V33.4981V33.4973V33.4965V33.4958V33.495V33.4943V33.4935V33.4927V33.492V33.4912V33.4904V33.4897V33.4889V33.4882V33.4874V33.4866V33.4859V33.4851V33.4844V33.4836V33.4828V33.4821V33.4813V33.4805V33.4798V33.479V33.4783V33.4775V33.4767V33.476V33.4752V33.4745V33.4737V33.4729V33.4722V33.4714V33.4706V33.4699V33.4691V33.4684V33.4676V33.4668V33.4661V33.4653V33.4646V33.4638V33.463V33.4623V33.4615V33.4607V33.46V33.4592V33.4585V33.4577V33.4569V33.4562V33.4554V33.4546V33.4539V33.4531V33.4524V33.4516V33.4508V33.4501V33.4493V33.4486V33.4478V33.447V33.4463V33.4455V33.4447V33.444V33.4432V33.4425V33.4417V33.4409V33.4402V33.4394V33.4387V33.4379V33.4371V33.4364V33.4356V33.4348V33.4341V33.4333V33.4326V33.4318V33.431V33.4303V33.4295V33.4287V33.428V33.4272V33.4265V33.4257V33.4249V33.4242V33.4234V33.4227V33.4219V33.4211V33.4204V33.4196V33.4188V33.4181V33.4173V33.4166V33.4158V33.415V33.4143V33.4135V33.4128V33.412V33.4112V33.4105V33.4097V33.4089V33.4082V33.4074V33.4067V33.4059V33.4051V33.4044V33.4036V33.4029V33.4021V33.4013V33.4006V33.3998V33.399V33.3983V33.3975V33.3968V33.396V33.3952V33.3945V33.3937V33.393V33.3922V33.3914V33.3907V33.3899V33.3891V33.3884V33.3876V33.3869V33.3861V33.3853V33.3846V33.3838V33.383V33.3823V33.3815V33.3808V33.38V33.3792V33.3785V33.3777V33.377V33.3762V33.3754V33.3747V33.3739V33.3731V33.3724V33.3716V33.3709V33.3701V33.3693V33.3686V33.3678V33.3671V33.3663V33.3655V33.3648V33.364V33.3632V33.3625V33.3617V33.361V33.3602V33.3594V33.3587V33.3579V33.3571V33.3564V33.3556V33.3549V33.3541V33.3533V33.3526V33.3518V33.3511V33.3503V33.3495V33.3488V33.348V33.3472V33.3465V33.3457V33.345V33.3442V33.3434V33.3427V33.3419V33.3412V33.3404V33.3396V33.3389V33.3381V33.3373V33.3366V33.3358V33.3351V33.3343V33.3335V33.3328V33.332V33.3313V33.3305V33.3297V33.329V33.3282V33.3274V33.3267V33.3259V33.3252V33.3244V33.3236V33.3229V33.3221V33.3213V33.3206V33.3198V33.3191V33.3183V33.3175V33.3168V33.316V33.3153V33.3145V33.3137V33.313V33.3122V33.3114V33.3107V33.3099V33.3092V33.3084V33.3076V33.3069V33.3061V33.3054V33.3046V33.3038V33.3031V33.3023V33.3015V33.3008V33.3V33.2993V33.2985V33.2977V33.297V33.2962V33.2955V33.2947V33.2939V33.2932V33.2924V33.2916V33.2909V33.2901V33.2894V33.2886V33.2878V33.2871V33.2863V33.2855V33.2848V33.284V33.2833V33.2825V33.2817V33.281V33.2802V33.2795V33.2787V33.2779V33.2772V33.2764V33.2756V33.2749V33.2741V33.2734V33.2726V33.2718V33.2711V33.2703V33.2696V33.2688V33.268V33.2673V33.2665V33.2657V33.265V33.2642V33.2635V33.2627V33.2619V33.2612V33.2604V33.2596V33.2589V33.2581V33.2574V33.2566V33.2558V33.2551V33.2543V33.2536V33.2528V33.252V33.2513V33.2505V33.2497V33.249V33.2482V33.2475V33.2467V33.2459V33.2452V33.2444V33.2437V33.2429V33.2421V33.2414V33.2406V33.2398V33.2391V33.2383V33.2376V33.2368V33.236V33.2353V33.2345V33.2338V33.233V33.2322V33.2315V33.2307V33.2299V33.2292V33.2284V33.2277V33.2269V33.2261V33.2254V33.2246V33.2238V33.2231V33.2223V33.2216V33.2208V33.22V33.2193V33.2185V33.2178V33.217V33.2162V33.2155V33.2147V33.2139V33.2132V33.2124V33.2117V33.2109V33.2101V33.2094V33.2086V33.2079V33.2071V33.2063V33.2056V33.2048V33.204V33.2033V33.2025V33.2018V33.201V33.2002V33.1995V33.1987V33.198V33.1972V33.1964V33.1957V33.1949V33.1941V33.1934V33.1926V33.1919V33.1911V33.1903V33.1896V33.1888V33.188V33.1873V33.1865V33.1858V33.185V33.1842V33.1835V33.1827V33.182V33.1812V33.1804V33.1797V33.1789V33.1781V33.1774V33.1766V33.1759V33.1751V33.1743V33.1736V33.1728V33.1721V33.1713V33.1705V33.1698V33.169V33.1682V33.1675V33.1667V33.166V33.1652V33.1644V33.1637V33.1629V33.1621V33.1614V33.1606C68.5608 24.092 61.5448 16.8906 53.0708 16.8906C46.2323 16.8906 40.3569 21.5655 38.3327 28.1577C38.1657 28.7016 37.7749 29.1487 37.2581 29.3869C36.7414 29.6251 36.1477 29.632 35.6256 29.4057C34.3691 28.8613 32.9992 28.5606 31.5508 28.5606C25.6873 28.5606 20.7908 33.5514 20.7908 39.8906C20.7908 40.7746 20.8925 41.6263 21.0812 42.4583C21.3161 43.4938 20.7008 44.5324 19.6797 44.8238C15.9043 45.9013 13.0508 49.5367 13.0508 53.9606C13.0508 59.2096 17.0619 63.3324 21.8701 63.4306H26.9108C28.0154 63.4306 28.9108 64.3261 28.9108 65.4306C28.9108 66.5352 28.0154 67.4306 26.9108 67.4306H21.8508C21.8385 67.4306 21.8263 67.4305 21.814 67.4303C14.67 67.2989 9.05078 61.2453 9.05078 53.9606C9.05078 48.4527 12.242 43.6744 16.8852 41.5958C16.8232 41.0381 16.7908 40.4699 16.7908 39.8906C16.7908 31.5098 23.3143 24.5606 31.5508 24.5606C32.8177 24.5606 34.0444 24.727 35.2146 25.0389ZM50 43.829L60.5858 54.4148C61.3668 55.1959 62.6332 55.1959 63.4142 54.4148C64.1953 53.6338 64.1953 52.3674 63.4142 51.5864L49.4142 37.5864C48.6332 36.8053 47.3668 36.8053 46.5858 37.5864L32.5858 51.5864C31.8047 52.3674 31.8047 53.6338 32.5858 54.4148C33.3668 55.1959 34.6332 55.1959 35.4142 54.4148L46 43.829V80.8106C46 81.9152 46.8954 82.8106 48 82.8106C49.1046 82.8106 50 81.9152 50 80.8106V43.829Z" fill="var(--spectrum-global-color-gray-800, #292929)"/>
</svg>
