<svg width="96" height="96" viewBox="0 0 96 96" xmlns="http://www.w3.org/2000/svg">
<path fill-rule="evenodd" d="M35.2136 25.0383C38.2086 17.9213 45.0417 12.89 53.0698 12.89C63.4563 12.89 71.8235 21.2891 72.5138 31.759C80.7498 33.1283 86.9598 40.316 86.9598 49.48C86.9598 59.322 79.3052 67.44 69.6798 67.44H69.6796H69.6795H69.6793H69.6791H69.6789H69.6787H69.6786H69.6784H69.6782H69.678H69.6778H69.6776H69.6775H69.6773H69.6771H69.6769H69.6767H69.6765H69.6763H69.6762H69.676H69.6758H69.6756H69.6754H69.6752H69.675H69.6748H69.6746H69.6744H69.6742H69.674H69.6739H69.6737H69.6735H69.6733H69.6731H69.6729H69.6727H69.6725H69.6723H69.6721H69.6719H69.6717H69.6715H69.6713H69.6711H69.6709H69.6707H69.6704H69.6702H69.67H69.6698H69.6696H69.6694H69.6692H69.669H69.6688H69.6686H69.6684H69.6682H69.668H69.6677H69.6675H69.6673H69.6671H69.6669H69.6667H69.6665H69.6663H69.666H69.6658H69.6656H69.6654H69.6652H69.665H69.6648H69.6645H69.6643H69.6641H69.6639H69.6637H69.6635H69.6632H69.663H69.6628H69.6626H69.6624H69.6621H69.6619H69.6617H69.6615H69.6613H69.661H69.6608H69.6606H69.6604H69.6601H69.6599H69.6597H69.6595H69.6592H69.659H69.6588H69.6586H69.6583H69.6581H69.6579H69.6577H69.6574H69.6572H69.657H69.6568H69.6565H69.6563H69.6561H69.6558H69.6556H69.6554H69.6552H69.6549H69.6547H69.6545H69.6542H69.654H69.6538H69.6535H69.6533H69.6531H69.6529H69.6526H69.6524H69.6522H69.6519H69.6517H69.6515H69.6512H69.651H69.6508H69.6505H69.6503H69.6501H69.6498H69.6496H69.6494H69.6491H69.6489H69.6487H69.6484H69.6482H69.648H69.6477H69.6475H69.6473H69.647H69.6468H69.6466H69.6463H69.6461H69.6459H69.6456H69.6454H69.6452H69.6449H69.6447H69.6445H69.6442H69.644H69.6438H69.6435H69.6433H69.6431H69.6428H69.6426H69.6424H69.6421H69.6419H69.6417H69.6414H69.6412H69.6409H69.6407H69.6405H69.6402H69.64H69.6398H69.6395H69.6393H69.6391H69.6388H69.6386H69.6384H69.6381H69.6379H69.6377H69.6374H69.6372H69.637H69.6367H69.6365H69.6363H69.636H69.6358H69.6356H69.6353H69.6351H69.6349H69.6347H69.6344H69.6342H69.634H69.6337H69.6335H69.6333H69.633H69.6328H69.6326H69.6323H69.6321H69.6319H69.6317H69.6314H69.6312H69.631H69.6307H69.6305H69.6303H69.6301H69.6298H69.6296H69.6294H69.6291H69.6289H69.6287H69.6285H69.6282H69.628H69.6278H69.6276H69.6273H69.6271H69.6269H69.6267H69.6264H69.6262H69.626H69.6258H69.6255H69.6253H69.6251H69.6249H69.6247H69.6244H69.6242H69.624H69.6238H69.6236H69.6233H69.6231H69.6229H69.6227H69.6225H69.6222H69.622H69.6218H69.6216H69.6214H69.6212H69.6209H69.6207H69.6205H69.6203H69.6201H69.6199H69.6197H69.6194H69.6192H69.619H69.6188H69.6186H69.6184H69.6182H69.618H69.6178H69.6175H69.6173H69.6171H69.6169H69.6167H69.6165H69.6163H69.6161H69.6159H69.6157H69.6155H69.6153H69.6151H69.6149H69.6147H69.6145H69.6143H69.6141H69.6139H69.6137H69.6135H69.6133H69.6131H69.6129H69.6127H69.6125H69.6123H69.6121H69.6119H69.6117H69.6115H69.6113H69.6111H69.6109H69.6107H69.6106H69.6104H69.6102H69.61H69.6098H69.6096H69.6094H69.6092H69.6091H69.6089H69.6087H69.6085H69.6083H69.6081H69.608H69.6078H69.6076H69.6074H69.6072H69.6071H69.6069H69.6067H69.6065H69.6064H69.6062H69.606H69.6058H69.6057H69.6055H69.6053H69.6051H69.605H69.6048H69.6046H69.6045H69.6043H69.6041H69.604H69.6038H69.6036H69.6035H69.6033H69.6031H69.603H69.6028H69.6027H69.6025H69.6024H69.6022H69.602H69.6019H69.6017H69.6016H69.6014H69.6013H69.6011H69.601H69.6008H69.6007H69.6005H69.6004H69.6002H69.6001H69.5999H69.5998H69.5996H69.5995H69.5994H69.5992H69.5991H69.5989H69.5988H69.5987H69.5985H69.5984H69.5983H69.5981H69.598H69.5979H69.5977H69.5976H69.5975H69.5973H69.5972H69.5971H69.597H69.5968H69.5967H69.5966H69.5965H69.5964H69.5962H69.5961H69.596H69.5959H69.5958H69.5956H69.5955H69.5954H69.5953H69.5952H69.5951H69.595H69.5949H69.5948H69.5947H69.5946H69.5945H69.5944H69.5942H69.5942H69.594H69.594H69.5939H69.5938H69.5937H69.5936H69.5935H69.5934H69.5933H69.5932H69.5931H69.593H69.5929H69.5928H69.5928H69.5927H69.5926H69.5925H69.5924H69.5924H69.5923H69.5922H69.5921H69.5921H69.592H69.5919H69.5918H69.5918H69.5917H69.5916H69.5916H69.5915H69.5914H69.5914H69.5913H69.5912H69.5912H69.5911H69.5911H69.591H69.591H69.5909H69.5909H69.5908H69.5908H69.5907H69.5907H69.5906H69.5906H69.5905H69.5905H69.5904H69.5904H69.5904H69.5903H69.5903H69.5903H69.5902H69.5902H69.5902H69.5901H69.5901H69.59H69.59H69.5899H69.5899H69.5899H69.5898H69.5898H68.8998C67.7952 67.44 66.8998 66.5446 66.8998 65.44C66.8998 64.3354 67.7952 63.44 68.8998 63.44H69.5898H69.5898H69.5899H69.5899H69.5899H69.59H69.59H69.5901H69.5901H69.5902H69.5902H69.5902H69.5903H69.5903H69.5903H69.5904H69.5904H69.5904H69.5905H69.5905H69.5906H69.5906H69.5907H69.5907H69.5908H69.5908H69.5909H69.5909H69.591H69.591H69.5911H69.5911H69.5912H69.5912H69.5913H69.5914H69.5914H69.5915H69.5916H69.5916H69.5917H69.5918H69.5918H69.5919H69.592H69.5921H69.5921H69.5922H69.5923H69.5924H69.5924H69.5925H69.5926H69.5927H69.5928H69.5928H69.5929H69.593H69.5931H69.5932H69.5933H69.5934H69.5935H69.5936H69.5937H69.5938H69.5939H69.594H69.594H69.5942H69.5942H69.5944H69.5945H69.5946H69.5947H69.5948H69.5949H69.595H69.5951H69.5952H69.5953H69.5954H69.5955H69.5956H69.5958H69.5959H69.596H69.5961H69.5962H69.5964H69.5965H69.5966H69.5967H69.5968H69.597H69.5971H69.5972H69.5973H69.5975H69.5976H69.5977H69.5979H69.598H69.5981H69.5983H69.5984H69.5985H69.5987H69.5988H69.5989H69.5991H69.5992H69.5994H69.5995H69.5996H69.5998H69.5999H69.6001H69.6002H69.6004H69.6005H69.6007H69.6008H69.601H69.6011H69.6013H69.6014H69.6016H69.6017H69.6019H69.602H69.6022H69.6024H69.6025H69.6027H69.6028H69.603H69.6031H69.6033H69.6035H69.6036H69.6038H69.604H69.6041H69.6043H69.6045H69.6046H69.6048H69.605H69.6051H69.6053H69.6055H69.6057H69.6058H69.606H69.6062H69.6064H69.6065H69.6067H69.6069H69.6071H69.6072H69.6074H69.6076H69.6078H69.608H69.6081H69.6083H69.6085H69.6087H69.6089H69.6091H69.6092H69.6094H69.6096H69.6098H69.61H69.6102H69.6104H69.6106H69.6107H69.6109H69.6111H69.6113H69.6115H69.6117H69.6119H69.6121H69.6123H69.6125H69.6127H69.6129H69.6131H69.6133H69.6135H69.6137H69.6139H69.6141H69.6143H69.6145H69.6147H69.6149H69.6151H69.6153H69.6155H69.6157H69.6159H69.6161H69.6163H69.6165H69.6167H69.6169H69.6171H69.6173H69.6175H69.6178H69.618H69.6182H69.6184H69.6186H69.6188H69.619H69.6192H69.6194H69.6197H69.6199H69.6201H69.6203H69.6205H69.6207H69.6209H69.6212H69.6214H69.6216H69.6218H69.622H69.6222H69.6225H69.6227H69.6229H69.6231H69.6233H69.6236H69.6238H69.624H69.6242H69.6244H69.6247H69.6249H69.6251H69.6253H69.6255H69.6258H69.626H69.6262H69.6264H69.6267H69.6269H69.6271H69.6273H69.6276H69.6278H69.628H69.6282H69.6285H69.6287H69.6289H69.6291H69.6294H69.6296H69.6298H69.6301H69.6303H69.6305H69.6307H69.631H69.6312H69.6314H69.6317H69.6319H69.6321H69.6323H69.6326H69.6328H69.633H69.6333H69.6335H69.6337H69.634H69.6342H69.6344H69.6347H69.6349H69.6351H69.6353H69.6356H69.6358H69.636H69.6363H69.6365H69.6367H69.637H69.6372H69.6374H69.6377H69.6379H69.6381H69.6384H69.6386H69.6388H69.6391H69.6393H69.6395H69.6398H69.64H69.6402H69.6405H69.6407H69.6409H69.6412H69.6414H69.6417H69.6419H69.6421H69.6424H69.6426H69.6428H69.6431H69.6433H69.6435H69.6438H69.644H69.6442H69.6445H69.6447H69.6449H69.6452H69.6454H69.6456H69.6459H69.6461H69.6463H69.6466H69.6468H69.647H69.6473H69.6475H69.6477H69.648H69.6482H69.6484H69.6487H69.6489H69.6491H69.6494H69.6496H69.6498H69.6501H69.6503H69.6505H69.6508H69.651H69.6512H69.6515H69.6517H69.6519H69.6522H69.6524H69.6526H69.6529H69.6531H69.6533H69.6535H69.6538H69.654H69.6542H69.6545H69.6547H69.6549H69.6552H69.6554H69.6556H69.6558H69.6561H69.6563H69.6565H69.6568H69.657H69.6572H69.6574H69.6577H69.6579H69.6581H69.6583H69.6586H69.6588H69.659H69.6592H69.6595H69.6597H69.6599H69.6601H69.6604H69.6606H69.6608H69.661H69.6613H69.6615H69.6617H69.6619H69.6621H69.6624H69.6626H69.6628H69.663H69.6632H69.6635H69.6637H69.6639H69.6641H69.6643H69.6645H69.6648H69.665H69.6652H69.6654H69.6656H69.6658H69.666H69.6663H69.6665H69.6667H69.6669H69.6671H69.6673H69.6675H69.6677H69.668H69.6682H69.6684H69.6686H69.6688H69.669H69.6692H69.6694H69.6696H69.6698H69.67H69.6702H69.6704H69.6707H69.6709H69.6711H69.6713H69.6715H69.6717H69.6719H69.6721H69.6723H69.6725H69.6727H69.6729H69.6731H69.6733H69.6735H69.6737H69.6739H69.674H69.6742H69.6744H69.6746H69.6748H69.675H69.6752H69.6754H69.6756H69.6758H69.676H69.6762H69.6763H69.6765H69.6767H69.6769H69.6771H69.6773H69.6775H69.6776H69.6778H69.678H69.6782H69.6784H69.6786H69.6787H69.6789H69.6791H69.6793H69.6795H69.6796H69.6798C76.9344 63.44 82.9598 57.278 82.9598 49.48C82.9598 41.6739 77.3709 35.9521 70.4429 35.5466C69.3856 35.4847 68.5598 34.6092 68.5598 33.55V33.5493V33.5485V33.5477V33.547V33.5462V33.5454V33.5447V33.5439V33.5432V33.5424V33.5416V33.5409V33.5401V33.5394V33.5386V33.5378V33.5371V33.5363V33.5355V33.5348V33.534V33.5333V33.5325V33.5317V33.531V33.5302V33.5294V33.5287V33.5279V33.5272V33.5264V33.5256V33.5249V33.5241V33.5234V33.5226V33.5218V33.5211V33.5203V33.5195V33.5188V33.518V33.5173V33.5165V33.5157V33.515V33.5142V33.5135V33.5127V33.5119V33.5112V33.5104V33.5096V33.5089V33.5081V33.5074V33.5066V33.5058V33.5051V33.5043V33.5035V33.5028V33.502V33.5013V33.5005V33.4997V33.499V33.4982V33.4975V33.4967V33.4959V33.4952V33.4944V33.4936V33.4929V33.4921V33.4914V33.4906V33.4898V33.4891V33.4883V33.4876V33.4868V33.486V33.4853V33.4845V33.4837V33.483V33.4822V33.4815V33.4807V33.4799V33.4792V33.4784V33.4777V33.4769V33.4761V33.4754V33.4746V33.4738V33.4731V33.4723V33.4716V33.4708V33.47V33.4693V33.4685V33.4677V33.467V33.4662V33.4655V33.4647V33.4639V33.4632V33.4624V33.4617V33.4609V33.4601V33.4594V33.4586V33.4578V33.4571V33.4563V33.4556V33.4548V33.454V33.4533V33.4525V33.4518V33.451V33.4502V33.4495V33.4487V33.4479V33.4472V33.4464V33.4457V33.4449V33.4441V33.4434V33.4426V33.4419V33.4411V33.4403V33.4396V33.4388V33.438V33.4373V33.4365V33.4358V33.435V33.4342V33.4335V33.4327V33.4319V33.4312V33.4304V33.4297V33.4289V33.4281V33.4274V33.4266V33.4259V33.4251V33.4243V33.4236V33.4228V33.422V33.4213V33.4205V33.4198V33.419V33.4182V33.4175V33.4167V33.416V33.4152V33.4144V33.4137V33.4129V33.4121V33.4114V33.4106V33.4099V33.4091V33.4083V33.4076V33.4068V33.406V33.4053V33.4045V33.4038V33.403V33.4022V33.4015V33.4007V33.4V33.3992V33.3984V33.3977V33.3969V33.3961V33.3954V33.3946V33.3939V33.3931V33.3923V33.3916V33.3908V33.3901V33.3893V33.3885V33.3878V33.387V33.3862V33.3855V33.3847V33.384V33.3832V33.3824V33.3817V33.3809V33.3802V33.3794V33.3786V33.3779V33.3771V33.3763V33.3756V33.3748V33.3741V33.3733V33.3725V33.3718V33.371V33.3702V33.3695V33.3687V33.368V33.3672V33.3664V33.3657V33.3649V33.3642V33.3634V33.3626V33.3619V33.3611V33.3603V33.3596V33.3588V33.3581V33.3573V33.3565V33.3558V33.355V33.3543V33.3535V33.3527V33.352V33.3512V33.3504V33.3497V33.3489V33.3482V33.3474V33.3466V33.3459V33.3451V33.3444V33.3436V33.3428V33.3421V33.3413V33.3405V33.3398V33.339V33.3383V33.3375V33.3367V33.336V33.3352V33.3344V33.3337V33.3329V33.3322V33.3314V33.3306V33.3299V33.3291V33.3284V33.3276V33.3268V33.3261V33.3253V33.3245V33.3238V33.323V33.3223V33.3215V33.3207V33.32V33.3192V33.3185V33.3177V33.3169V33.3162V33.3154V33.3146V33.3139V33.3131V33.3124V33.3116V33.3108V33.3101V33.3093V33.3085V33.3078V33.307V33.3063V33.3055V33.3047V33.304V33.3032V33.3025V33.3017V33.3009V33.3002V33.2994V33.2986V33.2979V33.2971V33.2964V33.2956V33.2948V33.2941V33.2933V33.2926V33.2918V33.291V33.2903V33.2895V33.2887V33.288V33.2872V33.2865V33.2857V33.2849V33.2842V33.2834V33.2827V33.2819V33.2811V33.2804V33.2796V33.2788V33.2781V33.2773V33.2766V33.2758V33.275V33.2743V33.2735V33.2727V33.272V33.2712V33.2705V33.2697V33.2689V33.2682V33.2674V33.2667V33.2659V33.2651V33.2644V33.2636V33.2628V33.2621V33.2613V33.2606V33.2598V33.259V33.2583V33.2575V33.2568V33.256V33.2552V33.2545V33.2537V33.2529V33.2522V33.2514V33.2507V33.2499V33.2491V33.2484V33.2476V33.2469V33.2461V33.2453V33.2446V33.2438V33.243V33.2423V33.2415V33.2408V33.24V33.2392V33.2385V33.2377V33.2369V33.2362V33.2354V33.2347V33.2339V33.2331V33.2324V33.2316V33.2309V33.2301V33.2293V33.2286V33.2278V33.227V33.2263V33.2255V33.2248V33.224V33.2232V33.2225V33.2217V33.221V33.2202V33.2194V33.2187V33.2179V33.2171V33.2164V33.2156V33.2149V33.2141V33.2133V33.2126V33.2118V33.2111V33.2103V33.2095V33.2088V33.208V33.2072V33.2065V33.2057V33.205V33.2042V33.2034V33.2027V33.2019V33.2011V33.2004V33.1996V33.1989V33.1981V33.1973V33.1966V33.1958V33.1951V33.1943V33.1935V33.1928V33.192V33.1912V33.1905V33.1897V33.189V33.1882V33.1874V33.1867V33.1859V33.1852V33.1844V33.1836V33.1829V33.1821V33.1813V33.1806V33.1798V33.1791V33.1783V33.1775V33.1768V33.176V33.1752V33.1745V33.1737V33.173V33.1722V33.1714V33.1707V33.1699V33.1692V33.1684V33.1676V33.1669V33.1661V33.1653V33.1646V33.1638V33.1631V33.1623V33.1615V33.1608V33.16C68.5598 24.0914 61.5438 16.89 53.0698 16.89C46.2313 16.89 40.3559 21.5648 38.3317 28.1571C38.1647 28.701 37.7739 29.1481 37.2571 29.3863C36.7404 29.6245 36.1467 29.6314 35.6246 29.4051C34.3681 28.8607 32.9982 28.56 31.5498 28.56C25.6863 28.56 20.7898 33.5508 20.7898 39.89C20.7898 40.774 20.8916 41.6257 21.0803 42.4576C21.3151 43.4932 20.6998 44.5318 19.6787 44.8232C15.9034 45.9007 13.0498 49.5361 13.0498 53.96C13.0498 59.2089 17.0609 63.3318 21.8691 63.43H26.9098C28.0144 63.43 28.9098 64.3254 28.9098 65.43C28.9098 66.5346 28.0144 67.43 26.9098 67.43H21.8498C21.8375 67.43 21.8253 67.4299 21.813 67.4297C14.669 67.2983 9.0498 61.2447 9.0498 53.96C9.0498 48.4521 12.241 43.6738 16.8842 41.5952C16.8222 41.0374 16.7898 40.4693 16.7898 39.89C16.7898 31.5092 23.3133 24.56 31.5498 24.56C32.8167 24.56 34.0434 24.7264 35.2136 25.0383ZM50.1004 44.321L60.8483 52.9496C61.7097 53.6411 62.9685 53.5034 63.66 52.6421C64.3515 51.7807 64.2138 50.5219 63.3525 49.8304L49.1525 38.4304C48.417 37.8399 47.3689 37.8436 46.6375 38.4391L32.6375 49.8391C31.781 50.5366 31.6521 51.7963 32.3495 52.6528C33.047 53.5094 34.3067 53.6383 35.1632 52.9409L46.1004 44.0349V81C46.1004 82.1046 46.9958 83 48.1004 83C49.205 83 50.1004 82.1046 50.1004 81V44.321Z" fill="var(--spectrum-global-color-gray-800, #292929)"/>
</svg>
