<svg width="160" height="160" viewBox="0 0 160 160" xmlns="http://www.w3.org/2000/svg">
<path fill-rule="evenodd" d="M71.1708 36.8294C71.1708 31.953 75.1238 28 80.0001 28C84.8765 28 88.8295 31.953 88.8295 36.8294V42.2363H71.1708V36.8294ZM63.1708 50.2363V59.9222C63.1708 62.1314 64.9616 63.9222 67.1708 63.9222C69.3799 63.9222 71.1708 62.1314 71.1708 59.9222V50.2363H88.8295V59.9222C88.8295 62.1314 90.6204 63.9222 92.8295 63.9222C95.0387 63.9222 96.8295 62.1314 96.8295 59.9222V50.2363H113.158L119.591 114.571C120.298 121.636 114.75 127.765 107.651 127.765H52.3496C45.2501 127.765 39.7027 121.636 40.4092 114.571L46.8427 50.2363H63.1708ZM63.1708 42.2363V36.8294C63.1708 27.5348 70.7055 20 80.0001 20C89.2948 20 96.8295 27.5348 96.8295 36.8294V42.2363H113.158C117.268 42.2363 120.709 45.3507 121.118 49.4403L127.552 113.775C128.729 125.549 119.483 135.765 107.651 135.765H52.3496C40.5172 135.765 31.2715 125.549 32.4489 113.775L38.8824 49.4403C39.2913 45.3507 42.7327 42.2363 46.8427 42.2363H63.1708Z" fill="var(--spectrum-global-color-gray-800, #292929)"/>
</svg>
