<svg style="max-height: 246px; background: #f4f6fc; padding: 32px; margin-bottom: 16px; width: calc(100% - 64px); border-radius: 4px;" viewBox="0 0 295.139 246">
  <title>Radio group anatomy diagram</title>
  <desc>Shows a radio group component with labels pointing to its parts, including the radio group label, and radio group element containing three radios with input and label elements.</desc>
  <g transform="translate(-138 -76)">
    <g transform="translate(192 153)">
      <text transform="translate(36 30)" fill="#4a6fc3" font-size="21" font-family="Adobe-Clean">
        <tspan x="0" y="0">Cat</tspan>
      </text>
      <g transform="translate(0 13.5)" fill="#fff" stroke="#718dcf" stroke-width="7.5">
        <circle cx="10.5" cy="10.5" r="10.5" stroke="none" />
        <circle cx="10.5" cy="10.5" r="6.75" fill="none" />
      </g>
    </g>
    <g transform="translate(192 201)">
      <text transform="translate(36 30)" fill="#4a6fc3" font-size="21" font-family="Adobe-Clean">
        <tspan x="0" y="0">Dog</tspan>
      </text>
      <g transform="translate(0 13.5)" fill="#fff" stroke="#718dcf" stroke-width="3">
        <circle cx="10.5" cy="10.5" r="10.5" stroke="none" />
        <circle cx="10.5" cy="10.5" r="9" fill="none" />
      </g>
    </g>
    <g transform="translate(9 145)">
      <text transform="translate(156 35)" fill="#4a6fc3" font-size="13" font-family="Adobe-Clean" style="font-style: italic">
        <tspan x="-26.299" y="0">Input</tspan>
      </text>
      <path d="M-2458.95-69H-2479v-1h20.05a2.5,2.5,0,0,1,2.45-2,2.5,2.5,0,0,1,2.5,2.5,2.5,2.5,0,0,1-2.5,2.5A2.5,2.5,0,0,1-2458.95-69Z" transform="translate(2639 101.5)" fill="#a2b6e1" />
    </g><text transform="translate(195 135)" fill="#718dcf" font-size="18" font-family="Adobe-Clean">
      <tspan x="0" y="0">Favorite Pet</tspan>
    </text>
    <g transform="translate(-200 439)">
      <text transform="translate(402 -350)" fill="#4a6fc3" font-size="13" font-family="Adobe-Clean" style="font-style: italic">
        <tspan x="-45.006" y="0">Radio group label</tspan>
      </text>
      <path d="M-1170-358.5a2.5,2.5,0,0,1,2-2.45V-381h1v20.05a2.5,2.5,0,0,1,2,2.45,2.5,2.5,0,0,1-2.5,2.5A2.5,2.5,0,0,1-1170-358.5Z" transform="translate(1569.5 38)" fill="#a2b6e1" />
    </g>
    <g transform="translate(192 249)">
      <text transform="translate(36 30)" fill="#4a6fc3" font-size="21" font-family="Adobe-Clean">
        <tspan x="0" y="0">Dragon</tspan>
      </text>
      <g transform="translate(0 13.5)" fill="#fff" stroke="#718dcf" stroke-width="3">
        <circle cx="10.5" cy="10.5" r="10.5" stroke="none" />
        <circle cx="10.5" cy="10.5" r="9" fill="none" />
      </g>
    </g><text transform="translate(361.139 230.413)" fill="#4a6fc3" font-size="13" font-family="Adobe-Clean" style="font-style: italic">
      <tspan x="0" y="0">Radio group</tspan>
    </text>
    <rect width="8" height="1" transform="translate(344.14 226.419)" fill="#a2b6e1" />
    <g transform="translate(335.14 156)">
      <rect width="8" height="1" fill="#a2b6e1" />
      <rect width="1" height="141" transform="translate(8)" fill="#a2b6e1" />
      <rect width="8" height="1" transform="translate(0 140)" fill="#a2b6e1" />
    </g>
    <g transform="translate(-123 635.5)">
      <text transform="translate(364 -316.5)" fill="#4a6fc3" font-size="13" font-family="Adobe-Clean" style="font-style: italic">
        <tspan x="-28.49" y="0">Radio label</tspan>
      </text>
      <path d="M-6242-425.5v-20.05a2.5,2.5,0,0,1-2-2.451,2.5,2.5,0,0,1,2.5-2.5,2.5,2.5,0,0,1,2.5,2.5,2.5,2.5,0,0,1-2,2.451v20.05Z" transform="translate(6605.5 96)" fill="#a2b6e1" />
    </g>
  </g>
</svg>
