<svg style="max-height: 150px; background: var(--anatomy-gray-100); padding: 32px; margin-bottom: 16px; width: calc(100% - 64px); border-radius: 4px;" viewBox="0 0 324 150">
  <title>Number field anatomy diagram</title>
  <desc>Shows a number field with labels pointing to its parts, including the label, group, input, increment button, and decrement button elements.</desc>
  <g transform="translate(-341 -39)">
    <rect width="264" height="84" transform="translate(349 68)" fill="red" opacity="0" />
    <g transform="translate(349 104)" fill="var(--anatomy-gray-50)" stroke="var(--anatomy-gray-400)" stroke-width="1.5">
      <rect width="264" height="48" rx="6" stroke="none" />
      <rect x="0.75" y="0.75" width="262.5" height="46.5" rx="5.25" fill="none" />
    </g><text transform="translate(367 134)" fill="var(--anatomy-gray-800)" font-size="21" font-family="Adobe-Clean">
      <tspan x="0" y="0">1280</tspan>
    </text><text transform="translate(349 92)" fill="var(--anatomy-gray-700)" font-size="18" font-family="Adobe-Clean">
      <tspan x="0" y="0">Label</tspan>
    </text>
    <g transform="translate(86 435)">
      <rect width="20" height="19" transform="translate(392 -343)" fill="red" opacity="0" /><text transform="translate(402 -348)" fill="var(--anatomy-gray-700)" font-size="13" font-family="Adobe-Clean" style="font-style: italic">
        <tspan x="-13.149" y="0">Input</tspan>
      </text>
      <circle cx="2.5" cy="2.5" r="2.5" transform="translate(399.5 -317)" fill="var(--anatomy-gray-500)" />
      <rect width="1" height="27" transform="translate(401.5 -343)" fill="var(--anatomy-gray-500)" />
    </g>
    <g transform="translate(-41 400)">
      <rect width="20" height="19" transform="translate(392 -343)" fill="red" opacity="0" /><text transform="translate(410 -348)" fill="var(--anatomy-gray-700)" font-size="13" font-family="Adobe-Clean" style="font-style: italic">
        <tspan x="-27.651" y="0">Label</tspan>
      </text>
      <circle cx="2.5" cy="2.5" r="2.5" transform="translate(399.5 -327)" fill="var(--anatomy-gray-500)" />
      <rect width="1" height="17" transform="translate(401.5 -343)" fill="var(--anatomy-gray-500)" />
    </g>
    <g transform="translate(577 104)" fill="var(--anatomy-gray-75)" stroke="var(--anatomy-gray-400)" stroke-width="1.5">
      <path d="M0,0H30a6,6,0,0,1,6,6V24.75a0,0,0,0,1,0,0H0a0,0,0,0,1,0,0V0A0,0,0,0,1,0,0Z" stroke="none" />
      <path d="M1.5.75H30A5.25,5.25,0,0,1,35.25,6V23.25a.75.75,0,0,1-.75.75H1.5a.75.75,0,0,1-.75-.75V1.5A.75.75,0,0,1,1.5.75Z" fill="none" />
    </g>
    <path d="M7.05,6a1.146,1.146,0,0,0-.3-.75L1.8.3A1.146,1.146,0,0,0,1.05,0,1.07,1.07,0,0,0,0,1.2a.826.826,0,0,0,.3.75L4.35,6,.3,10.05a.826.826,0,0,0-.3.75A1.07,1.07,0,0,0,1.05,12a1.146,1.146,0,0,0,.75-.3L6.6,6.9A1.3,1.3,0,0,0,7.05,6Z" transform="translate(589 120.8) rotate(-90)" fill="var(--anatomy-gray-800)" />
    <g transform="translate(577 127.25)" fill="var(--anatomy-gray-75)" stroke="var(--anatomy-gray-400)" stroke-width="1.5">
      <path d="M0,0H36a0,0,0,0,1,0,0V18.75a6,6,0,0,1-6,6H0a0,0,0,0,1,0,0V0A0,0,0,0,1,0,0Z" stroke="none" />
      <path d="M1.5.75h33a.75.75,0,0,1,.75.75V18.75A5.25,5.25,0,0,1,30,24H1.5a.75.75,0,0,1-.75-.75V1.5A.75.75,0,0,1,1.5.75Z" fill="none" />
    </g>
    <path d="M7.05,6a1.146,1.146,0,0,0-.3-.75L1.8.3A1.146,1.146,0,0,0,1.05,0,1.07,1.07,0,0,0,0,1.2a.826.826,0,0,0,.3.75L4.35,6,.3,10.05a.826.826,0,0,0-.3.75A1.07,1.07,0,0,0,1.05,12a1.146,1.146,0,0,0,.75-.3L6.6,6.9A1.3,1.3,0,0,0,7.05,6Z" transform="translate(601 135.2) rotate(90)" fill="var(--anatomy-gray-800)" />
    <g transform="translate(204 435)"><text transform="translate(413 -348)" fill="var(--anatomy-gray-700)" font-size="13" font-family="Adobe-Clean" style="font-style: italic">
        <tspan x="-43.361" y="0">Increment button</tspan>
      </text>
      <circle cx="2.5" cy="2.5" r="2.5" transform="translate(399.5 -317)" fill="var(--anatomy-gray-500)" />
      <rect width="1" height="27" transform="translate(401.5 -343)" fill="var(--anatomy-gray-500)" />
    </g>
    <g transform="translate(574 142)"><text transform="translate(45 44)" fill="var(--anatomy-gray-700)" font-size="13" font-family="Adobe-Clean" style="font-style: italic">
        <tspan x="-45.513" y="0">Decrement button</tspan>
      </text>
      <circle cx="2.5" cy="2.5" r="2.5" transform="translate(29.5)" fill="var(--anatomy-gray-500)" />
      <rect width="1" height="27" transform="translate(31.5 4)" fill="var(--anatomy-gray-500)" />
    </g>
    <g transform="translate(410 149)"><text transform="translate(32 37)" fill="var(--anatomy-gray-700)" font-size="13" font-family="Adobe-Clean" style="font-style: italic">
        <tspan x="-15.854" y="0">Group</tspan>
      </text>
      <circle cx="2.5" cy="2.5" r="2.5" transform="translate(29.5)" fill="var(--anatomy-gray-500)" />
      <rect width="1" height="20" transform="translate(31.5 4)" fill="var(--anatomy-gray-500)" />
    </g>
  </g>
</svg>
