<?xml version="1.0" encoding="UTF-8"?>
<svg   xmlns="http://www.w3.org/2000/svg" width="20" height="20" viewBox="0 0 20 20">
  <path d="M18.73145,12.88867l-.69092-.06055c-.08691-.18359-.1875-.36035-.30127-.52832l.29785-.625c.30225-.63379.06396-1.40625-.54199-1.75977l-.48047-.28027c-.60742-.35449-1.39795-.18066-1.79883.39453l-.39697.56543c-.1001-.00781-.20166-.0127-.3042-.01367-.10986-.01074-.20459.00391-.30566.01172l-.39111-.57031c-.40381-.58691-1.17529-.76367-1.7959-.40918l-.48193.27539c-.61035.34863-.85498,1.11914-.55811,1.75391l.29199.62793c-.11523.16699-.21729.34277-.30566.52637l-.68994.05469c-.70068.05371-1.25098.64648-1.25391,1.34863l-.00244.55664c-.00342.70215.5415,1.2998,1.24072,1.36133l.69043.06055c.08643.18359.1875.36035.30127.52832l-.29785.62402c-.30273.63379-.06445,1.40723.54248,1.76074l.48047.28027c.60645.35156,1.39551.17969,1.79883-.39453l.396-.56641c.10059.00879.20215.01367.30518.01465.09668-.00781.2041-.00391.30518-.01172l.3916.57031c.26074.37891.68994.58691,1.12598.58691.229,0,.45947-.05762.66943-.17773l.48193-.27539c.60938-.34766.85449-1.11816.55859-1.75488l-.29248-.62891c.11572-.16602.21777-.3418.30566-.52441l.69141-.05469c.69971-.05566,1.24951-.64844,1.25244-1.34961l.00244-.55664c.00342-.70117-.5415-1.29883-1.24023-1.36035ZM18.71924,14.80078c0,.05566-.04492.10352-.10059.1084l-1.07031.08398c-.24561.01953-.45654.18066-.53955.41211-.11084.31055-.27539.59277-.48926.84082-.16064.18652-.19727.44922-.09326.67188l.45264.97266c.02441.05176.00537.11328-.04541.14258l-.48242.27539c-.0498.02832-.11279.01367-.14453-.0332l-.60791-.88379c-.11816-.1709-.31152-.27051-.51514-.27051-.03662,0-.07373.00293-.11084.00977-.15479.02832-.31348.04492-.47607.04492-.18555-.0127-.33691-.01855-.49854-.0498-.24219-.04297-.48779.05469-.62891.25586l-.61475.87793c-.03271.04688-.09619.05957-.14551.03223l-.48047-.28027c-.04932-.02832-.06836-.09082-.04395-.1416l.46191-.96777c.10596-.22266.07178-.48535-.08691-.67383-.21191-.25-.37451-.53418-.48242-.84473-.08105-.23242-.29053-.39648-.53564-.41797l-1.06982-.09375c-.05615-.00488-.1001-.05273-.09961-.10938l.00244-.55762c0-.05566.04395-.10254.10107-.10742l1.07031-.08496c.24512-.01953.45605-.18066.53906-.41211.11133-.31055.27588-.59375.48926-.84082.16064-.18555.19727-.44922.09326-.67188l-.45264-.97363c-.02441-.05176-.00488-.11133.04541-.14062l.48193-.27539c.0498-.02734.11279-.01367.14551.03223l.60742.88477c.13916.20117.38135.30273.62598.26074.15479-.02832.31396-.04492.47656-.04492.16113.00977.33789.01855.50098.04883.24365.04395.48535-.05469.62549-.25586l.61572-.87793c.03271-.04688.09521-.06152.14502-.03125l.48047.28027c.0498.02832.06836.08984.04346.1416l-.46143.96875c-.10547.22168-.07129.48438.08691.67188.21191.25098.37451.53516.48242.8457.08105.23145.29053.39453.53516.41699l1.07031.09473c.05713.00488.1001.05078.09961.1084l-.00244.55762Z" fill="var(--iconPrimary, #222)"/>
  <path d="M14.50183,13.39221c-.61359-.00269-1.11316.49255-1.11591,1.10608-.00269.61353.49249,1.11316,1.10602,1.11584.61359.00281,1.11316-.49255,1.11591-1.10608.00269-.61353-.49249-1.11304-1.10602-1.11584Z" fill="var(--iconPrimary, #222)"/>
  <path d="M7.82617,16.39746c-3.10352-.31445-4.2749-1.14844-4.3291-1.39453v-3.14673c1.24506.62183,2.96045.89648,3.92432,1.0061.02881.00293.05713.00488.08545.00488.37646,0,.70068-.28223.74414-.66504.04688-.41211-.24902-.7832-.66064-.83008-2.93408-.33301-4.04199-1.13574-4.09326-1.36914v-3.27551c1.52985.84216,4.02393,1.27551,6.5,1.27551s4.97015-.43335,6.5-1.27551v.61926c0,.41406.33594.75.75.75s.75-.33594.75-.75v-2.28223c0-.04102-.01697-.07629-.02332-.11548.00787-.06531.02332-.12866.02332-.19604,0-2.13379-4.02441-3.25-8-3.25S1.99707,2.61914,1.99707,4.75293c0,.06738.01544.13074.02332.19604-.00635.03918-.02332.07446-.02332.11548v9.93848c0,2.14551,4.3457,2.75195,5.67773,2.88672.02588.00293.05127.00391.07666.00391.38037,0,.70605-.28809.74512-.6748.04199-.41211-.2583-.7793-.67041-.82129ZM9.99707,3.00293c4.28857,0,6.5,1.22656,6.5,1.75s-2.21143,1.75-6.5,1.75-6.5-1.22656-6.5-1.75,2.21143-1.75,6.5-1.75Z" fill="var(--iconPrimary, #222)"/>
</svg>