<?xml version="1.0" encoding="UTF-8"?>
<svg xmlns="http://www.w3.org/2000/svg" width="20" height="20" viewBox="0 0 20 20">
  <path d="m12.75,3.49996h-1.25c-.41406,0-.75-.33594-.75-.75s.33594-.75.75-.75h1.25c.41406,0,.75.33594.75.75s-.33594.75-.75.75Zm.75,13.75c0-.41406-.33594-.75-.75-.75h-1.25c-.41406,0-.75.33594-.75.75s.33594.75.75.75h1.25c.41406,0,.75-.33594.75-.75ZM9.25,2.74996c0-.41406-.33594-.75-.75-.75h-1.25c-.41406,0-.75.33594-.75.75s.33594.75.75.75h1.25c.41406,0,.75-.33594.75-.75Zm0,14.5c0-.41406-.33594-.75-.75-.75h-1.25c-.41406,0-.75.33594-.75.75s.33594.75.75.75h1.25c.41406,0,.75-.33594.75-.75Zm8.75-13c0-1.24072-1.00928-2.25-2.25-2.25-.41406,0-.75.33594-.75.75s.33594.75.75.75c.41357,0,.75.33643.75.75,0,.41406.33594.75.75.75s.75-.33594.75-.75Zm0,4.25v-1.25c0-.41406-.33594-.75-.75-.75s-.75.33594-.75.75v1.25c0,.41406.33594.75.75.75s.75-.33594.75-.75Zm-14.5,0v-1.25c0-.41406-.33594-.75-.75-.75s-.75.33594-.75.75v1.25c0,.41406.33594.75.75.75s.75-.33594.75-.75Zm14.5,4.25v-1.25c0-.41406-.33594-.75-.75-.75s-.75.33594-.75.75v1.25c0,.41406.33594.75.75.75s.75-.33594.75-.75Zm-14.5,0v-1.25c0-.41406-.33594-.75-.75-.75s-.75.33594-.75.75v1.25c0,.41406.33594.75.75.75s.75-.33594.75-.75Zm1.5,4.5c0-.41406-.33594-.75-.75-.75-.41357,0-.75-.33643-.75-.75,0-.41406-.33594-.75-.75-.75s-.75.33594-.75.75c0,1.24072,1.00928,2.25,2.25,2.25.41406,0,.75-.33594.75-.75Zm13.78027,1.53027c.29297-.29297.29297-.76758,0-1.06055L2.28027,1.21969c-.29297-.29297-.76758-.29297-1.06055,0s-.29297.76758,0,1.06055l16.5,16.5c.14648.14648.33838.21973.53027.21973s.38379-.07324.53027-.21973Z" fill="var(--iconPrimary, #222)"/>
</svg>