<?xml version="1.0" encoding="UTF-8"?>
<svg   xmlns="http://www.w3.org/2000/svg" width="20" height="20" viewBox="0 0 20 20">
  <path d="m10.7998,7.25h-2.0498v-2.0498c0-.41406-.33594-.75-.75-.75s-.75.33594-.75.75v2.0498h-2.0498c-.41406,0-.75.33594-.75.75s.33594.75.75.75h2.0498v2.0498c0,.41406.33594.75.75.75s.75-.33594.75-.75v-2.0498h2.0498c.41406,0,.75-.33594.75-.75s-.33594-.75-.75-.75Z" fill="var(--iconPrimary, #222)"/>
  <path d="m18.78027,17.71973l-5.33301-5.33301c-.00006,0-.00024,0-.00031-.00024.96942-1.20142,1.55304-2.72632,1.55304-4.38647,0-3.85938-3.14014-7-7-7S1,4.14062,1,8s3.14014,7,7,7c1.66022,0,3.18524-.5835,4.38654-1.55298.00006,0,.00012.00024.00018.00024l5.33301,5.33301c.14648.14648.33838.21973.53027.21973s.38379-.07324.53027-.21973c.29297-.29297.29297-.76758,0-1.06055Zm-10.78027-4.21973c-3.03271,0-5.5-2.46777-5.5-5.5s2.46729-5.5,5.5-5.5,5.5,2.46777,5.5,5.5-2.46729,5.5-5.5,5.5Z" fill="var(--iconPrimary, #222)" />
</svg>