<?xml version="1.0" encoding="UTF-8"?>
<svg   xmlns="http://www.w3.org/2000/svg" width="20" height="20" viewBox="0 0 20 20">
  <path d="M16.75,5h-5.96387c-.21777,0-.42383-.09375-.56641-.25879l-1.7041-1.96387c-.42676-.49414-1.0459-.77734-1.7002-.77734h-3.56543c-1.24023,0-2.25,1.00977-2.25,2.25v9.41699c0,.41406.33594.75.75.75s.75-.33594.75-.75v-7.16699h14.25c.41309,0,.75.33691.75.75v7.5c0,.41309-.33691.75-.75.75h-5.25c-.41406,0-.75.33594-.75.75s.33594.75.75.75h5.25c1.24023,0,2.25-1.00977,2.25-2.25v-7.5c0-1.24023-1.00977-2.25-2.25-2.25ZM2.5,4.25c0-.41309.33691-.75.75-.75h3.56543c.21777,0,.42383.09375.56641.25879l1.07703,1.24121H2.5v-.75Z" fill="var(--iconPrimary, #222)" stroke-width="0"/>
  <path d="M9.25,10.02148h-3.5c-.41406,0-.75.33594-.75.75s.33594.75.75.75h1.66797l-4.69824,4.69824c-.29297.29297-.29297.76758,0,1.06055.14648.14648.33789.21973.53027.21973s.38379-.07324.53027-.21973l4.71973-4.71973v1.71094c0,.41406.33594.75.75.75s.75-.33594.75-.75v-3.5c0-.41406-.33594-.75-.75-.75Z" fill="var(--iconPrimary, #222)" stroke-width="0"/>
</svg>