<?xml version="1.0" encoding="UTF-8"?>
<svg xmlns="http://www.w3.org/2000/svg" width="20" height="20" viewBox="0 0 20 20">
  <path d="M10,18.75c-4.8252,0-8.75-3.9248-8.75-8.75S5.1748,1.25,10,1.25s8.75,3.9248,8.75,8.75-3.9248,8.75-8.75,8.75ZM10,2.75c-3.99805,0-7.25,3.25195-7.25,7.25s3.25195,7.25,7.25,7.25,7.25-3.25195,7.25-7.25-3.25195-7.25-7.25-7.25Z" fill="var(--iconPrimary, #222)"/>
  <path d="M9.22266,13.5c-.21191,0-.41504-.08984-.55762-.24805l-2.51074-2.79199c-.27734-.30859-.25195-.78223.05566-1.05957s.78125-.25195,1.05957.05566l1.89355,2.10645,3.4873-4.75586c.24316-.33398.71094-.40918,1.04785-.16113.33398.24414.40625.71387.16113,1.04785l-4.03223,5.5c-.13281.18262-.3418.29492-.56738.30566-.01172.00098-.02441.00098-.03711.00098Z" fill="var(--iconPrimary, #222)"/>
</svg>