<svg xmlns="http://www.w3.org/2000/svg" xmlns:xlink="http://www.w3.org/1999/xlink" width="700" height="335" viewBox="0 0 700 335">
  <defs>
    <clipPath id="clip-Custom_Size_3">
      <rect width="700" height="335"/>
    </clipPath>
  </defs>
  <g id="Custom_Size_3" data-name="Custom Size – 3" clip-path="url(#clip-Custom_Size_3)">
    <g id="Group_2" data-name="Group 2" transform="translate(-22.432 4)">
      <g id="Adobe_Corporate_logo" transform="translate(64.432 13.489)">
        <g id="Group_1" data-name="Group 1">
          <path id="Path_1" data-name="Path 1" d="M72.474,0H0V173.324Zm0,0" fill="#fa0c00"/>
          <path id="Path_2" data-name="Path 2" d="M10.215,0h72.38V173.324Zm0,0" transform="translate(113.251)" fill="#fa0c00"/>
          <path id="Path_3" data-name="Path 3" d="M37.165,5.285,83.294,114.728H53.029L39.243,79.884H5.484Zm0,0" transform="translate(60.805 58.596)" fill="#fa0c00"/>
        </g>
      </g>
      <path id="Path_5" data-name="Path 5" d="M16.65,0c.45,0,.72-.18.72-.72V-22.68h7.74c.99,0,1.44.45,2.07,1.53C31.14-14.85,37.44-4.5,40.05-.45A1.5,1.5,0,0,0,41.31,0H52.56c.54,0,.45-.45.18-.99C50.13-5.49,39.33-21.6,36.36-25.74c6.57-2.43,11.61-8.01,11.61-15.84,0-11.52-8.46-17.73-22.86-17.73-6.93,0-10.71.09-17.82.27-.54,0-.63.36-.63.81V-.72c0,.54.18.72.72.72Zm.72-31.95V-49.68c1.44-.09,4.32-.18,7.38-.18,7.65,0,12.42,2.97,12.42,8.91,0,5.76-4.68,9-11.97,9ZM83.88-19.71a68.552,68.552,0,0,0,9.27-.36.773.773,0,0,0,.72-.63,27.238,27.238,0,0,0,.36-5.58c0-8.55-5.13-18.99-18.45-18.99-13.59,0-21.15,11.07-21.15,23.58C54.63-10.62,60.48.9,76.86.9c6.12,0,10.08-.99,13.5-2.61a.953.953,0,0,0,.54-.99v-7.47c0-.45-.27-.54-.54-.36A28.36,28.36,0,0,1,79.2-8.37c-9.18,0-13.32-5.04-13.59-11.34ZM65.61-27.45c.72-4.41,3.51-9.18,9.72-9.18a8.325,8.325,0,0,1,8.64,8.37v.72a44.112,44.112,0,0,1-4.95.09ZM125.37-8.73a16.454,16.454,0,0,1-6.39,1.08c-6.48,0-8.82-2.88-8.82-6.21,0-3.87,3.15-6.21,10.26-6.21a37.026,37.026,0,0,1,4.95.27ZM135.9-27.45c0-9.99-5.4-17.82-17.91-17.82a33.438,33.438,0,0,0-13.68,2.7.855.855,0,0,0-.54.9v7.83a.526.526,0,0,0,.72.54,26.772,26.772,0,0,1,11.79-2.52c7.92,0,9.09,4.68,9.09,6.75v1.08c-.81-.09-2.88-.18-5.58-.18-11.7,0-20.25,4.77-20.25,14.31C99.54-3.69,107.37.9,117.18.9c6.12,0,11.34-.9,18.72-4.05.18-.09.18-.18.18-.36-.18-1.89-.18-3.69-.18-5.67ZM177.75-9.27c0-.36-.18-.63-.63-.45a25.915,25.915,0,0,1-7.83.9c-6.93,0-14.04-3.78-14.04-13.59,0-8.64,5.76-13.5,13.95-13.5a21.157,21.157,0,0,1,7.74,1.17c.36.09.72.09.72-.54l.09-8.01c0-.54-.09-.81-.45-.99-1.53-.54-3.96-.99-8.46-.99-14.85,0-24.75,9.9-24.75,23.22C144.09-9.09,152.73.9,167.31.9c3.51,0,7.11-.27,9.99-1.44.36-.09.45-.27.45-.72Zm31.32,1.35c0-.54-.27-.63-.54-.54a15.253,15.253,0,0,1-3.42.36c-3.87,0-5.13-1.89-5.13-5.85V-35.28h8.82c.45,0,.63-.18.63-.63v-7.83c0-.45-.18-.63-.63-.63h-8.73c0-4.41.18-9.72.45-12.69,0-.45-.18-.54-.63-.45l-9.09,1.26a.865.865,0,0,0-.72.81,94.991,94.991,0,0,0-.9,11.07h-5.67c-.54,0-.72.18-.72.72v7.56c0,.54.18.72.63.81h5.67v23.67C189.09-2.7,193.5.9,200.88.9a20.689,20.689,0,0,0,7.65-1.26c.45-.18.54-.54.54-1.08ZM19.62,113.9c13.59,0,21.87-6.84,21.87-17.37,0-7.11-3.33-12.78-15.03-17.64l-3.42-1.44c-7.11-2.97-9.18-5.22-9.18-8.46,0-3.15,2.43-6.39,10.17-6.39,5.22,0,10.17.99,13.59,2.97.54.36.81,0,.81-.36V56.48c0-.63-.09-.9-.54-1.17-2.97-1.53-8.1-2.34-13.77-2.34-13.59,0-20.88,7.38-20.88,17.01,0,6.75,2.88,12.33,13.95,17.01l4.32,1.8c6.84,2.88,9,5.4,9,8.73,0,3.87-3.15,6.75-10.53,6.75A30.284,30.284,0,0,1,3.96,99.59c-.36-.18-.72,0-.72.36v9.36a1.337,1.337,0,0,0,.63,1.35C7.56,112.64,13.05,113.9,19.62,113.9ZM68.58,67.73c-7.83,0-14.13,2.25-18.18,3.6a.421.421,0,0,0-.36.45c.18,1.26.27,4.23.27,5.31V131c0,.45.09.54.63.54.45,0,6.48-.54,9.63-.9.54-.09.63-.36.63-.72v-16.2a23.947,23.947,0,0,0,2.7.18c13.59,0,26.91-8.1,26.91-24.57C90.81,77.81,83.43,67.73,68.58,67.73ZM67.59,77c7.65,0,12.06,4.86,12.06,13.05,0,10.53-7.83,14.67-14.85,14.67a15.4,15.4,0,0,1-3.6-.27V77.9A20.311,20.311,0,0,1,67.59,77Zm58.77,16.29a68.553,68.553,0,0,0,9.27-.36.773.773,0,0,0,.72-.63,27.24,27.24,0,0,0,.36-5.58c0-8.55-5.13-18.99-18.45-18.99-13.59,0-21.15,11.07-21.15,23.58,0,11.07,5.85,22.59,22.23,22.59,6.12,0,10.08-.99,13.5-2.61a.953.953,0,0,0,.54-.99v-7.47c0-.45-.27-.54-.54-.36a28.36,28.36,0,0,1-11.16,2.16c-9.18,0-13.32-5.04-13.59-11.34Zm-18.27-7.74c.72-4.41,3.51-9.18,9.72-9.18a8.325,8.325,0,0,1,8.64,8.37v.72a44.109,44.109,0,0,1-4.95.09Zm68.49,18.18c0-.36-.18-.63-.63-.45a25.915,25.915,0,0,1-7.83.9c-6.93,0-14.04-3.78-14.04-13.59,0-8.64,5.76-13.5,13.95-13.5a21.157,21.157,0,0,1,7.74,1.17c.36.09.72.09.72-.54l.09-8.01c0-.54-.09-.81-.45-.99-1.53-.54-3.96-.99-8.46-.99-14.85,0-24.75,9.9-24.75,23.22,0,12.96,8.64,22.95,23.22,22.95,3.51,0,7.11-.27,9.99-1.44.36-.09.45-.27.45-.72Zm31.32,1.35c0-.54-.27-.63-.54-.54a15.253,15.253,0,0,1-3.42.36c-3.87,0-5.13-1.89-5.13-5.85V77.72h8.82c.45,0,.63-.18.63-.63V69.26c0-.45-.18-.63-.63-.63H198.9c0-4.41.18-9.72.45-12.69,0-.45-.18-.54-.63-.45l-9.09,1.26a.865.865,0,0,0-.72.81,94.991,94.991,0,0,0-.9,11.07h-5.67c-.54,0-.72.18-.72.72v7.56c0,.54.18.72.63.81h5.67v23.67c0,8.91,4.41,12.51,11.79,12.51a20.688,20.688,0,0,0,7.65-1.26c.45-.18.54-.54.54-1.08Zm7.74-36.45c-.45,0-.54.09-.54.54.36,2.97.45,8.19.45,12.06v31.05c0,.45.18.72.81.72h9.36c.54,0,.81-.18.81-.72V83.3c2.07-2.7,7.38-4.95,13.77-4.77.63,0,.81-.18.81-.63V68.36c0-.54-.18-.63-.72-.63a18.751,18.751,0,0,0-14.4,7.02,20.344,20.344,0,0,0-.9-5.4.892.892,0,0,0-.99-.72Zm69.12.63c0-.45-.09-.63-.63-.63h-9.45c-.54,0-.72.18-.72.63v31.95a11.413,11.413,0,0,1-8.19,3.24c-5.4,0-7.83-3.42-7.83-9V69.26c0-.45-.09-.63-.63-.63h-9.45c-.54,0-.72.09-.72.63V96.71c0,12.6,6.57,17.19,15.12,17.19a17.785,17.785,0,0,0,12.51-4.59,19.521,19.521,0,0,0,.63,3.15c.09.36.27.54.9.54h8.28c.54,0,.81-.18.72-.63a79.905,79.905,0,0,1-.54-9.27ZM306.36,113c.54,0,.72-.18.72-.72V80.51a12.664,12.664,0,0,1,8.55-3.33c4.86,0,7.56,2.88,7.56,8.82v26.19c0,.63.27.81.81.81h9.36c.54,0,.63-.27.63-.72V86.09a41.179,41.179,0,0,0-.27-5.31,12.749,12.749,0,0,1,8.82-3.69c5.49,0,7.56,4.05,7.56,9.18v25.92c0,.54.18.81.81.81h9.27c.45,0,.81-.18.81-.72v-27c0-13.59-7.74-17.55-15.21-17.55-6.12,0-10.89,2.61-14.76,5.94q-3.645-5.94-11.61-5.94a19.209,19.209,0,0,0-13.14,5.04,15.254,15.254,0,0,0-.54-3.6.855.855,0,0,0-.9-.54h-8.28c-.54,0-.81.18-.72.63.18,1.71.36,5.4.36,8.91v34.02c0,.54.18.81.72.81Z" transform="translate(313 74)" fill="#fff"/>
    </g>
    <path id="Path_4" data-name="Path 4" d="M-.082-3.772a.661.661,0,0,0,.246.738A24.271,24.271,0,0,0,13.858.82C25.42.82,31.652-6.314,31.652-14.432c0-7.38-4.018-11.316-11.562-15.99C14.76-33.866,11.48-36.408,11.48-41c0-4.182,2.788-9.266,10.742-9.266a18.68,18.68,0,0,1,10.906,3.034c.164.082.328.082.41-.246l.9-4.264c.082-.328.082-.492-.164-.656C31.98-53.956,27.962-55.1,22.8-55.1c-10.988,0-16.482,7.052-16.482,14.268,0,7.462,4.346,10.988,11.316,15.334,5.74,3.69,8.528,6.642,8.528,11.48,0,5.33-3.854,9.922-11.726,9.922A21.588,21.588,0,0,1,1.394-8.364C1.148-8.528.984-8.446.9-8.2ZM58.712-40.344c-6.232,0-10.66,1.886-13.694,2.952a.85.85,0,0,0-.492.656L34.932,18.122c-.082.328,0,.492.328.492,1.148-.082,2.788-.246,4.428-.492.328-.082.328-.082.41-.41L43.214,0a19.062,19.062,0,0,0,6.068.82c12.136,0,23.7-10.168,23.7-25.256C72.98-34.276,67.24-40.344,58.712-40.344Zm-1.23,4.592c7.626,0,10.25,5.166,10.25,11.89,0,11.48-8.364,20.09-17.876,20.09a13.773,13.773,0,0,1-5.576-.984l4.92-29.11A20.564,20.564,0,0,1,57.482-35.752Zm47.97,29.274c0-.328-.082-.41-.328-.328a18.278,18.278,0,0,1-10.086,2.87c-7.872,0-10.66-5-10.824-10.66a23.523,23.523,0,0,1,.246-3.116c17.63.656,26.158-4.182,26.076-13.2-.082-4.674-2.87-9.43-10.906-9.43-11.89,0-20.418,12.054-20.418,24.764C79.212-4.92,84.87.82,94.054.82c4.756,0,7.626-.82,10.168-2.46a.714.714,0,0,0,.492-.656Zm-20.5-15.5c1.886-8.364,7.708-13.94,14.186-13.94,5.9,0,6.56,3.526,6.56,5.412C105.7-26.158,102.418-21.156,84.952-21.976ZM139.482-4.92c0-.164,0-.41-.328-.246a18.967,18.967,0,0,1-7.134,1.23c-8.282,0-11.808-5.9-11.808-12.71,0-10.66,7.216-19.024,16.974-19.024a15.16,15.16,0,0,1,5.494.9c.246.082.328.082.41-.246l.9-3.854c.082-.328.082-.41-.164-.574a17.739,17.739,0,0,0-6.56-.9c-12.628,0-22.386,10.578-22.386,24.272C114.882-5.166,121.606.82,130.954.82A17.759,17.759,0,0,0,138.17-.41c.328-.082.41-.246.492-.574Zm23.452.41c0-.328-.246-.328-.492-.246a9.585,9.585,0,0,1-4.51.984c-3.116,0-3.936-2.214-3.28-5.822l4.428-25.42h7.79c.246,0,.41-.082.492-.41l.656-3.69c.082-.328-.082-.492-.328-.492h-7.708c.656-3.936,1.476-8.2,2.132-11.234,0-.246-.082-.41-.328-.246a18.268,18.268,0,0,1-4.674.984c-.328,0-.41.082-.492.328-.492,2.788-1.23,6.806-1.8,10.168H149.4c-.328,0-.41.082-.492.41l-.82,3.69c-.082.41.082.492.328.492h5.494L149.486-9.758C148.01-1.886,151.372.82,156.046.82A10.92,10.92,0,0,0,161.7-.328a.937.937,0,0,0,.574-.656Zm13.284-35.1c-.246,0-.41.082-.41.328a86.288,86.288,0,0,1-1.312,10L169.33-.41a.387.387,0,0,0,.41.41h4.428c.328,0,.328-.082.41-.41l4.182-23.534a6.141,6.141,0,0,1,1.312-2.87c2.87-4.182,7.954-7.462,12.874-7.872.246,0,.41-.082.492-.41l.9-4.756c.082-.328-.082-.492-.328-.492-4.838,0-11.07,4.182-14.268,8.938a62.476,62.476,0,0,0,.738-7.872c0-.246-.082-.328-.41-.328Zm53.3.41c0-.246-.082-.41-.41-.41h-4.264c-.328,0-.41.082-.492.328l-4.92,26.486a6.1,6.1,0,0,1-1.312,2.624c-3.854,4.92-7.708,6.232-11.07,6.232-4.92,0-6.888-3.444-5.822-9.43L205.9-39.114c0-.246,0-.492-.328-.492h-4.346a.546.546,0,0,0-.574.41L195.98-13.448C193.93-2.05,200,.738,205.328.738c4.264,0,8.856-1.394,13.284-6.642a30.906,30.906,0,0,0-.492,5.412c0,.328.246.492.574.492h3.772c.328,0,.41-.164.41-.492.082-1.476.41-4.264,1.066-8.282Zm12.218-.41c-.246,0-.41.164-.41.492-.082,1.558-.656,5.248-1.148,8.036L234.766-.492c-.082.41.164.492.41.492h4.264c.41,0,.41-.164.492-.41l4.428-24.764a6.109,6.109,0,0,1,1.066-2.706c3.936-5.658,8.364-7.872,12.136-7.872,4.674,0,6.232,3.526,5.084,10.25L258.218-.492c-.082.328.082.492.41.492h4.264c.328,0,.492-.082.574-.41l4.264-24.682a7.111,7.111,0,0,1,.984-2.706c3.772-5.74,8.118-7.954,11.972-7.954,4.92,0,6.314,3.608,5.33,9.512L281.506-.574c0,.41.164.574.492.574h4.346c.328,0,.41-.082.492-.492l4.346-25.01c2.132-12.136-3.936-14.842-8.692-14.842-5.084,0-10,2.214-14.678,7.708-.574-5.412-4.018-7.708-8.446-7.708-4.838,0-9.512,2.132-13.94,7.216a33.9,33.9,0,0,0,.738-6.068c0-.328-.164-.41-.41-.41ZM345.384,0c.328,0,.328-.082.41-.328l1.476-4.018c.082-.246,0-.328-.246-.328H332.346c-5.494,0-7.626,0-10.168.164,2.788-2.132,7.134-5.412,14.35-11.972,9.1-8.282,12.218-15.088,12.218-22.14,0-9.594-6.478-14.514-14.432-14.514A23.66,23.66,0,0,0,321.932-50.1a.767.767,0,0,0-.41.574l-.82,4.51c-.082.41.082.41.246.328a22.4,22.4,0,0,1,12.218-3.526c6.724,0,10.414,4.264,10.414,10.168,0,5.33-2.3,11.4-11.644,19.68A161.022,161.022,0,0,1,314.142-4.1c-.164.082-.246.246-.41.492l-.656,3.2c0,.246.082.41.246.41Zm27.88-.492c-.082.328.082.492.328.492h4.592c.246,0,.328-.082.41-.41L382.2-21.238c1.8.164,3.526.164,6.15.164,13.612.082,23.206-6.56,23.206-18.286,0-10.906-8.856-15.17-18.778-15.17-3.362,0-6.97.164-9.676.246q-.369,0-.492.492ZM387.286-49.61c1.886-.082,3.362-.164,5.33-.164,8.282-.082,13.612,3.526,13.612,10.824,0,8.61-7.134,13.2-17.138,13.2-2.46,0-4.1-.082-5.986-.246Zm33.046,10c-.246,0-.41.082-.41.328a86.285,86.285,0,0,1-1.312,10L413.444-.41a.387.387,0,0,0,.41.41h4.428c.328,0,.328-.082.41-.41l4.182-23.534a6.141,6.141,0,0,1,1.312-2.87c2.87-4.182,7.954-7.462,12.874-7.872.246,0,.41-.082.492-.41l.9-4.756c.082-.328-.082-.492-.328-.492-4.838,0-11.07,4.182-14.268,8.938a62.476,62.476,0,0,0,.738-7.872c0-.246-.082-.328-.41-.328ZM465.268-6.478c0-.328-.082-.41-.328-.328a18.278,18.278,0,0,1-10.086,2.87c-7.872,0-10.66-5-10.824-10.66a23.523,23.523,0,0,1,.246-3.116c17.63.656,26.158-4.182,26.076-13.2-.082-4.674-2.87-9.43-10.906-9.43-11.89,0-20.418,12.054-20.418,24.764,0,10.66,5.658,16.4,14.842,16.4,4.756,0,7.626-.82,10.168-2.46a.714.714,0,0,0,.492-.656Zm-20.5-15.5c1.886-8.364,7.708-13.94,14.186-13.94,5.9,0,6.56,3.526,6.56,5.412C465.514-26.158,462.234-21.156,444.768-21.976ZM487.818,0c.246,0,.41-.082.492-.41,1.722-2.788,17.794-33.128,20.582-38.7.164-.246.082-.492-.246-.492h-4.592c-.246,0-.328.082-.492.328C490.032-13.612,487.736-8.2,486.342-5.084h-.164c-.246-3.2-.984-10.5-4.51-34.112-.082-.246-.164-.41-.41-.41h-4.51c-.328.082-.41.164-.41.41.738,4.592,5.33,34.358,6.068,38.786a.617.617,0,0,0,.574.41Zm22.058-.41c0,.246.082.41.41.41h4.346c.246,0,.41-.082.492-.41l6.888-38.7c.082-.328,0-.492-.41-.492h-4.346c-.328,0-.41.082-.492.41Zm11.316-48.3a3.473,3.473,0,0,0,3.608-3.28,2.721,2.721,0,0,0-2.87-3.362,3.544,3.544,0,0,0-3.69,3.28A2.808,2.808,0,0,0,521.192-48.708ZM553.91-6.478c0-.328-.082-.41-.328-.328A18.278,18.278,0,0,1,543.5-3.936c-7.872,0-10.66-5-10.824-10.66a23.524,23.524,0,0,1,.246-3.116c17.63.656,26.158-4.182,26.076-13.2-.082-4.674-2.87-9.43-10.906-9.43-11.89,0-20.418,12.054-20.418,24.764,0,10.66,5.658,16.4,14.842,16.4,4.756,0,7.626-.82,10.168-2.46a.714.714,0,0,0,.492-.656Zm-20.5-15.5c1.886-8.364,7.708-13.94,14.186-13.94,5.9,0,6.56,3.526,6.56,5.412C554.156-26.158,550.876-21.156,533.41-21.976ZM599.174,0c.328,0,.41-.082.574-.41l18.532-38.7c.082-.246,0-.492-.246-.492h-4.51c-.246,0-.41,0-.574.41-11.972,25.5-14.432,31.488-15.334,33.784h-.082c-.164-2.624-.656-10.414-2.788-33.784,0-.246-.082-.41-.41-.41H589.58c-.328,0-.41.164-.492.41C577.034-13.612,574.82-8.282,573.672-5.412h-.164c-.082-2.624-.41-8.856-2.542-33.866,0-.246-.246-.328-.492-.328h-4.346c-.328,0-.41.164-.41.492l3.444,38.7a.546.546,0,0,0,.574.41h5.248c.41,0,.41-.164.574-.41C582.61-15.744,589.826-31,590.81-33.866c0,2.3,1.066,14.514,2.706,33.374a.473.473,0,0,0,.492.492Z" transform="translate(42 302)" fill="#fff"/>
  </g>
</svg>
