<?xml version="1.0" encoding="UTF-8"?>
<svg xmlns="http://www.w3.org/2000/svg" width="16" height="16" viewBox="0 0 16 16">

  <path d="m14.78552,8.3783c.10016-.24194.10016-.51477,0-.75671-.05017-.12085-.12256-.2301-.21375-.32129l-4.63037-4.63037c-.38574-.38672-1.0127-.38672-1.39844,0-.38623.38574-.38623,1.0127,0,1.39844l2.94238,2.94238H1.87012c-.54639,0-.98877.44336-.98877.98926s.44238.98926.98877.98926h9.61523l-2.94238,2.94238c-.38623.38574-.38623,1.0127,0,1.39844.19287.19336.44629.29004.69922.29004s.50635-.09668.69922-.29004l4.63037-4.63037c.09125-.09119.16357-.20044.21375-.32141Z" fill="var(--iconPrimary, #222)"/>
</svg>