<?xml version="1.0" encoding="UTF-8"?>
<svg xmlns="http://www.w3.org/2000/svg" width="10" height="10" viewBox="0 0 10 10">

  <path id="e" data-name="Shape" d="m7.861,7.95302c.062.06299.1.146,0,.22998l-1.293.83398c-.1.06299-.145.021-.187-.08301l-1.6-2.79303-2.105,2.31403c-.021.03998-.083.08197-.145,0l-1-1.04303c-.1-.06201-.083-.125,0-.18701l2.375-1.98102-2.715-1.02594c-.042,0-.1-.08301-.063-.18799l.707-1.41199c.01782-.05743.07811-.09021.136-.07397.02012.00635.03811.01813.052.034l2.378,1.53998.146-3.04303c-.009-.05957.03156-.1153.091-.125.0113-.00116.0227-.00116.034,0l1.73.22998c.1,0,.125.04199.1.146l-.814,2.979,2.751-.83398c.062-.04199.125-.04199.167.08301l.271,1.54199c.02.09998,0,.146-.083.146l-2.876.22998,1.943,2.48108Z" fill="var(--iconPrimary, #222)"/>

</svg>