<?xml version="1.0" encoding="UTF-8"?>
<svg xmlns="http://www.w3.org/2000/svg" width="8" height="8" viewBox="0 0 8 8">

  <path d="m5.18787,4l2.14026-2.14062c.32764-.32812.32764-.85938-.00049-1.1875s-.85986-.32812-1.18799,0l-2.13965,2.14001L1.86035.67188c-.32812-.32812-.85986-.32812-1.18799,0s-.32812.85938-.00049,1.1875l2.14026,2.14062L.67188,6.14062c-.32764.32812-.32764.85938.00049,1.1875.16406.16406.37891.24609.59375.24609s.43018-.08203.59424-.24609l2.13965-2.14001,2.13965,2.14001c.16406.16406.37939.24609.59424.24609s.42969-.08203.59375-.24609c.32812-.32812.32812-.85938.00049-1.1875l-2.14026-2.14062Z" fill="var(--iconPrimary, #222)"/>
  
</svg>