<svg width="48" height="48" viewBox="0 0 48 48" xmlns="http://www.w3.org/2000/svg">
  <defs>
<radialGradient id="paint0_radial_5481_122342" cx="0" cy="0" r="1" gradientUnits="userSpaceOnUse" gradientTransform="translate(39.2305 29.7551) rotate(90) scale(53.4895 56.7422)">
<stop offset="0.0885417" stop-color="#EB1000"/>
<stop offset="1" stop-color="#EB1000" stop-opacity="0"/>
</radialGradient>
<linearGradient id="paint1_linear_5481_122342" x1="32.6353" y1="4.20965" x2="11.5336" y2="33.2322" gradientUnits="userSpaceOnUse">
<stop stop-color="#FF4885"/>
<stop offset="1" stop-color="#FF4885" stop-opacity="0"/>
</linearGradient>
<linearGradient id="paint2_linear_5481_122342" x1="18.7672" y1="-8.5973" x2="22.6792" y2="17.9615" gradientUnits="userSpaceOnUse">
<stop offset="0.15625" stop-color="#7A6AFD"/>
<stop offset="1" stop-color="#7A6AFD" stop-opacity="0"/>
</linearGradient>
<linearGradient id="paint3_linear_5481_122342" x1="-31.8922" y1="44.6565" x2="41.6341" y2="29.2415" gradientUnits="userSpaceOnUse">
<stop stop-color="#30A7FE" stop-opacity="0"/>
<stop offset="0.432292" stop-color="#30A7FE" stop-opacity="0.994652"/>
<stop offset="0.609375" stop-color="#30A7FE"/>
<stop offset="1" stop-color="#30A7FE" stop-opacity="0"/>
</linearGradient>
<clipPath id="clip0_5481_122342">
<rect x="4.19922" y="5.40039" width="39.3001" height="37.0472" rx="10" fill="white"/>
</clipPath>
</defs>
<clipPath id="mask0_5481_122342">
<path fill-rule="evenodd" d="M25.6088 8.02253L38.3798 14.3945C39.6008 15.0035 40.3718 16.2515 40.3718 17.6165V30.3545C40.3718 31.7165 39.6038 32.9645 38.3858 33.5735L25.6148 39.9725C24.6008 40.4825 23.4038 40.4825 22.3898 39.9725L9.61881 33.5735C8.40081 32.9615 7.63281 31.7165 7.63281 30.3545V17.6165C7.63281 16.2515 8.40381 15.0035 9.62481 14.3945L22.3958 8.02253C23.4068 7.51853 24.5978 7.51853 25.6088 8.02253ZM15.3968 29.2805C15.8138 29.2805 16.2158 29.0645 16.4378 28.6805H16.4348L20.8298 21.0695C21.1628 20.4965 20.9648 19.7615 20.3918 19.4315C19.8188 19.0985 19.0838 19.2965 18.7538 19.8695L14.3588 27.4805C14.0258 28.0535 14.2238 28.7885 14.7968 29.1185C14.9858 29.2295 15.1928 29.2805 15.3968 29.2805ZM31.3988 29.2805C32.2658 29.2805 33.0428 28.8305 33.4778 28.0805C33.9128 27.3275 33.9128 26.4305 33.4778 25.6805L29.4188 18.6515C28.9838 17.9015 28.2068 17.4515 27.3398 17.4515C26.4728 17.4515 25.6958 17.9015 25.2608 18.6515L21.2018 25.6805C20.7668 26.4305 20.7668 27.3305 21.2018 28.0805C21.6368 28.8305 22.4138 29.2805 23.2808 29.2805H31.3988ZM27.3428 19.8515L31.4018 26.8805H23.2838L27.3428 19.8515Z" fill="white"/>
</clipPath>
<g clip-path="url(#mask0_5481_122342)">
<g clip-path="url(#clip0_5481_122342)">
<rect x="4.19922" y="5.40039" width="39.3001" height="37.0472" rx="10" fill="#D9F4FD"/>
<ellipse cx="39.2305" cy="29.7551" rx="56.7422" ry="53.4895" fill="url(#paint0_radial_5481_122342)"/>
<path d="M0.662594 17.0046C0.0318416 4.19942 10.5324 -6.66322 24.1162 -7.25781C37.7001 -7.85241 49.2233 2.0462 49.854 14.8513C50.4848 27.6565 39.9842 38.5191 26.4004 39.1137C12.8165 39.7083 1.29335 29.8097 0.662594 17.0046Z" fill="url(#paint1_linear_5481_122342)"/>
<path d="M14.1261 -20.2357C11.0617 -22.0232 7.17924 -22.0341 4.10352 -20.2639L-26.6592 -2.5579C-29.6721 -0.823789 -29.6771 3.26937 -26.6684 5.01004L3.89113 22.691C6.96224 24.4676 10.8448 24.4654 13.9132 22.6846L44.4097 4.98716C47.4025 3.25021 47.408 -0.820077 44.4189 -2.56359L14.1261 -20.2357Z" fill="url(#paint2_linear_5481_122342)"/>
<path d="M-15.3934 23.12C-9.05273 23.12 -3.3092 25.5391 0.849178 29.4417C9.16593 37.2604 16.061 37.2671 24.3778 29.4618C28.5361 25.5391 34.2868 23.1133 40.6345 23.1133C53.3229 23.12 63.6016 32.7831 63.6016 44.7116C63.6016 56.6401 53.3229 66.2965 40.6345 66.2965C34.2726 66.2965 28.5219 63.864 24.3636 59.9413C16.0539 52.1493 9.16593 52.156 0.849178 59.9747C-3.3092 63.884 -9.05273 66.2965 -15.3934 66.2965C-28.0746 66.2965 -38.3533 56.6334 -38.3533 44.7116C-38.3533 32.7897 -28.0746 23.12 -15.3934 23.12Z" fill="url(#paint3_linear_5481_122342)"/>
</g>
</g>

</svg>
