<svg width="160" height="160" viewBox="0 0 160 160" xmlns="http://www.w3.org/2000/svg">
  <defs>
<radialGradient id="paint0_radial_5481_122166" cx="0" cy="0" r="1" gradientUnits="userSpaceOnUse" gradientTransform="translate(135.705 101.93) rotate(90) scale(179.114 190.006)">
<stop offset="0.0885417" stop-color="#EB1000"/>
<stop offset="1" stop-color="#EB1000" stop-opacity="0"/>
</radialGradient>
<linearGradient id="paint1_linear_5481_122166" x1="113.619" y1="16.3842" x2="42.9581" y2="113.569" gradientUnits="userSpaceOnUse">
<stop stop-color="#FF4885"/>
<stop offset="1" stop-color="#FF4885" stop-opacity="0"/>
</linearGradient>
<linearGradient id="paint2_linear_5481_122166" x1="67.1869" y1="-26.4974" x2="80.2863" y2="62.4367" gradientUnits="userSpaceOnUse">
<stop offset="0.15625" stop-color="#7A6AFD"/>
<stop offset="1" stop-color="#7A6AFD" stop-opacity="0"/>
</linearGradient>
<linearGradient id="paint3_linear_5481_122166" x1="-102.452" y1="151.827" x2="143.757" y2="100.208" gradientUnits="userSpaceOnUse">
<stop stop-color="#30A7FE" stop-opacity="0"/>
<stop offset="0.432292" stop-color="#30A7FE" stop-opacity="0.994652"/>
<stop offset="0.609375" stop-color="#30A7FE"/>
<stop offset="1" stop-color="#30A7FE" stop-opacity="0"/>
</linearGradient>
<clipPath id="clip0_5481_122166">
<rect x="18.3984" y="20.373" width="131.6" height="124.056" rx="10" fill="white"/>
</clipPath>
</defs>
<clipPath id="mask0_5481_122166">
<path fill-rule="evenodd" d="M125.43 48.4707V97.4707C125.43 106.311 118.27 113.471 109.43 113.471H35.4297C26.5897 113.471 19.4297 106.311 19.4297 97.4707V48.4707C19.4297 39.6307 26.5897 32.4707 35.4297 32.4707H109.43C118.27 32.4707 125.43 39.6307 125.43 48.4707ZM111.39 55.3507C111.39 50.5307 107.48 46.6207 102.66 46.6207C97.8397 46.6207 93.9297 50.5307 93.9297 55.3507C93.9297 60.1707 97.8397 64.0807 102.66 64.0807C107.48 64.0807 111.39 60.1707 111.39 55.3507ZM28.9797 96.2207C26.4197 100.211 29.2797 105.461 34.0297 105.461V105.451H110.21C114.96 105.451 117.82 100.201 115.26 96.2107L103.48 77.8607C101.12 74.1807 95.7397 74.1807 93.3797 77.8607L80.0197 98.6807L58.7597 65.5607C56.3997 61.8807 51.0197 61.8807 48.6597 65.5607L28.9797 96.2207ZM136.571 66.4907C136.571 64.2807 138.361 62.4907 140.571 62.4907H140.581C142.791 62.4907 144.581 64.2807 144.581 66.4907V107.541C144.581 120.771 133.811 131.541 120.581 131.541L54.6406 131.491C52.4306 131.491 50.6406 129.701 50.6406 127.491C50.6406 125.281 52.4306 123.491 54.6406 123.491L120.571 123.541C129.391 123.541 136.571 116.361 136.571 107.541V66.4907Z" fill="white"/>
</clipPath>
<g clip-path="url(#mask0_5481_122166)">
<g clip-path="url(#clip0_5481_122166)">
<rect x="18.3984" y="20.373" width="131.6" height="124.056" rx="10" fill="#D9F4FD"/>
<ellipse cx="135.705" cy="101.93" rx="190.006" ry="179.114" fill="url(#paint0_radial_5481_122166)"/>
<path d="M6.55579 59.229C4.44366 16.35 39.6056 -20.0244 85.0922 -22.0155C130.579 -24.0065 169.165 9.13975 171.277 52.0188C173.389 94.8979 138.227 131.272 92.7408 133.263C47.2543 135.254 8.66791 102.108 6.55579 59.229Z" fill="url(#paint1_linear_5481_122166)"/>
<path d="M51.6456 -65.4695C41.3844 -71.4551 28.3836 -71.4917 18.0843 -65.5641L-84.9272 -6.27402C-95.0159 -0.467198 -95.0328 13.2391 -84.9578 19.0678L17.3731 78.2739C27.6569 84.2229 40.6578 84.2158 50.9328 78.2526L153.053 18.9912C163.075 13.1749 163.093 -0.454767 153.083 -6.29306L51.6456 -65.4695Z" fill="url(#paint2_linear_5481_122166)"/>
<path d="M-47.2045 79.7099C-25.9723 79.7099 -6.73964 87.8105 7.18502 100.879C35.0343 127.06 58.1231 127.083 85.9724 100.946C99.897 87.8105 119.154 79.6875 140.409 79.6875C182.898 79.7099 217.316 112.068 217.316 152.011C217.316 191.955 182.898 224.29 140.409 224.29C119.106 224.29 99.8494 216.145 85.9248 203.009C58.0993 176.917 35.0343 176.939 7.18502 203.121C-6.73964 216.212 -25.9723 224.29 -47.2045 224.29C-89.6687 224.29 -124.088 191.932 -124.088 152.011C-124.088 112.09 -89.6687 79.7099 -47.2045 79.7099Z" fill="url(#paint3_linear_5481_122166)"/>
</g>
</g>

</svg>
