<svg width="48" height="48" viewBox="0 0 48 48" xmlns="http://www.w3.org/2000/svg">
  <defs>
<radialGradient id="paint0_radial_5481_122375" cx="0" cy="0" r="1" gradientUnits="userSpaceOnUse" gradientTransform="translate(42.7877 31.5552) rotate(90) scale(69.3033)">
<stop offset="0.0885417" stop-color="#EB1000"/>
<stop offset="1" stop-color="#EB1000" stop-opacity="0"/>
</radialGradient>
<linearGradient id="paint1_linear_5481_122375" x1="34.7309" y1="-1.54315" x2="6.93278" y2="34.4977" gradientUnits="userSpaceOnUse">
<stop stop-color="#FF4885"/>
<stop offset="1" stop-color="#FF4885" stop-opacity="0"/>
</linearGradient>
<linearGradient id="paint2_linear_5481_122375" x1="17.7929" y1="-18.1348" x2="23.1553" y2="16.1845" gradientUnits="userSpaceOnUse">
<stop offset="0.15625" stop-color="#7A6AFD"/>
<stop offset="1" stop-color="#7A6AFD" stop-opacity="0"/>
</linearGradient>
<linearGradient id="paint3_linear_5481_122375" x1="-44.0785" y1="50.8616" x2="46.1473" y2="33.0298" gradientUnits="userSpaceOnUse">
<stop stop-color="#30A7FE" stop-opacity="0"/>
<stop offset="0.432292" stop-color="#30A7FE" stop-opacity="0.994652"/>
<stop offset="0.609375" stop-color="#30A7FE"/>
<stop offset="1" stop-color="#30A7FE" stop-opacity="0"/>
</linearGradient>
<clipPath id="clip0_5481_122375">
<rect width="48" height="48" rx="10" fill="white"/>
</clipPath>
</defs>
<clipPath id="mask0_5481_122375">
<path fill-rule="evenodd" d="M41.0263 9.04248C41.0263 10.0192 40.4484 10.861 39.6159 11.2446C38.7467 10.1685 37.5514 9.3667 36.1802 8.9895C36.2084 7.67559 37.2823 6.61914 38.6029 6.61914C39.9413 6.61914 41.0263 7.70411 41.0263 9.04248ZM38.6021 15.4541C38.6021 17.1891 37.5511 18.6787 36.051 19.3208C34.8727 17.0875 32.7627 15.4219 30.2383 14.8412C30.535 12.8099 32.2843 11.25 34.398 11.25C36.7199 11.25 38.6021 13.1322 38.6021 15.4541ZM30.818 17.6593C30.0351 17.3109 29.168 17.1172 28.2556 17.1172C25.4222 17.1172 23.0251 18.9853 22.2287 21.557C25.244 23.2517 27.4478 26.2197 28.1111 29.7321C28.1592 29.7332 28.2073 29.7337 28.2556 29.7337C31.7396 29.7337 34.5639 26.9094 34.5639 23.4255C34.5639 20.9419 33.1287 18.7935 31.0424 17.7645C30.9684 17.7281 30.8936 17.693 30.818 17.6593ZM25.8184 31.958C25.8184 37.1622 21.5997 41.3809 16.3955 41.3809C11.1914 41.3809 6.97266 37.1622 6.97266 31.958C6.97266 26.7539 11.1914 22.5352 16.3955 22.5352C18.5046 22.5352 20.4518 23.2281 22.022 24.3986C22.022 24.3986 22.022 24.3986 22.022 24.3985C23.5648 25.5487 24.7436 27.16 25.3542 29.0283C25.3542 29.0283 25.3541 29.0283 25.3541 29.0283C25.6555 29.9504 25.8184 30.9352 25.8184 31.958Z" fill="white"/>
</clipPath>
<g clip-path="url(#mask0_5481_122375)">
<g clip-path="url(#clip0_5481_122375)">
<rect width="48" height="48" rx="10" fill="#D9F4FD"/>
<circle cx="42.7877" cy="31.5552" r="69.3033" fill="url(#paint0_radial_5481_122375)"/>
<path d="M-4.31959 15.0345C-5.08998 -1.55641 7.73508 -15.6305 24.326 -16.4009C40.9169 -17.1713 54.991 -4.34621 55.7613 12.2447C56.5317 28.8356 43.7067 42.9097 27.1158 43.6801C10.5249 44.4504 -3.54921 31.6254 -4.31959 15.0345Z" fill="url(#paint1_linear_5481_122375)"/>
<path d="M12.1243 -33.214C8.38167 -35.53 3.6397 -35.5442 -0.116893 -33.2506L-37.6896 -10.3099C-41.3694 -8.06314 -41.3755 -2.75987 -37.7007 -0.504581L-0.376298 22.4036C3.37467 24.7054 8.11665 24.7027 11.8644 22.3954L49.1119 -0.534222C52.7672 -2.7847 52.7739 -8.05833 49.1231 -10.3173L12.1243 -33.214Z" fill="url(#paint2_linear_5481_122375)"/>
<path d="M-23.9274 22.9579C-16.1831 22.9579 -9.16812 26.0922 -4.0892 31.1486C6.06863 41.2789 14.4901 41.2875 24.6479 31.1746C29.7268 26.0922 36.7505 22.9492 44.5034 22.9492C60.0006 22.9579 72.5547 35.4778 72.5547 50.9329C72.5547 66.388 60.0006 78.8992 44.5034 78.8992C36.7331 78.8992 29.7095 75.7476 24.6306 70.6652C14.4814 60.5696 6.06863 60.5782 -4.0892 70.7085C-9.16812 75.7736 -16.1831 78.8992 -23.9274 78.8992C-39.4159 78.8992 -51.9699 66.3793 -51.9699 50.9329C-51.9699 35.4865 -39.4159 22.9579 -23.9274 22.9579Z" fill="url(#paint3_linear_5481_122375)"/>
</g>
</g>

</svg>
