<svg width="48" height="48" viewBox="0 0 48 48" xmlns="http://www.w3.org/2000/svg">
  <defs>
<radialGradient id="paint0_radial_5481_122390" cx="0" cy="0" r="1" gradientUnits="userSpaceOnUse" gradientTransform="translate(42.7877 31.5552) rotate(90) scale(69.3033)">
<stop offset="0.0885417" stop-color="#EB1000"/>
<stop offset="1" stop-color="#EB1000" stop-opacity="0"/>
</radialGradient>
<linearGradient id="paint1_linear_5481_122390" x1="34.7309" y1="-1.54315" x2="6.93278" y2="34.4977" gradientUnits="userSpaceOnUse">
<stop stop-color="#FF4885"/>
<stop offset="1" stop-color="#FF4885" stop-opacity="0"/>
</linearGradient>
<linearGradient id="paint2_linear_5481_122390" x1="17.7929" y1="-18.1348" x2="23.1553" y2="16.1845" gradientUnits="userSpaceOnUse">
<stop offset="0.15625" stop-color="#7A6AFD"/>
<stop offset="1" stop-color="#7A6AFD" stop-opacity="0"/>
</linearGradient>
<linearGradient id="paint3_linear_5481_122390" x1="-44.0785" y1="50.8616" x2="46.1473" y2="33.0298" gradientUnits="userSpaceOnUse">
<stop stop-color="#30A7FE" stop-opacity="0"/>
<stop offset="0.432292" stop-color="#30A7FE" stop-opacity="0.994652"/>
<stop offset="0.609375" stop-color="#30A7FE"/>
<stop offset="1" stop-color="#30A7FE" stop-opacity="0"/>
</linearGradient>
<clipPath id="clip0_5481_122390">
<rect width="48" height="48" rx="10" fill="white"/>
</clipPath>
</defs>
<clipPath id="mask0_5481_122390">
<path fill-rule="evenodd" d="M24 40.5C33.1127 40.5 40.5 33.1127 40.5 24C40.5 14.8873 33.1127 7.5 24 7.5C14.8873 7.5 7.5 14.8873 7.5 24C7.5 33.1127 14.8873 40.5 24 40.5ZM26.5 15.0723C26.5 16.453 25.3807 17.5723 24 17.5723C22.6193 17.5723 21.5 16.453 21.5 15.0723C21.5 13.6916 22.6193 12.5723 24 12.5723C25.3807 12.5723 26.5 13.6916 26.5 15.0723ZM15.4812 18.6314C15.6331 18.1004 16.1867 17.7932 16.7177 17.9451C21.4157 19.2893 26.3942 19.3068 31.1015 17.9955L31.2894 17.9432C31.8214 17.795 32.3728 18.1061 32.521 18.6382C32.6692 19.1702 32.3581 19.7216 31.8261 19.8698L31.6382 19.9222C30.257 20.3069 28.8542 20.5853 27.4418 20.7573C26.9278 20.8199 26.5322 21.2502 26.5322 21.768V25.721C26.5322 25.8134 26.545 25.9053 26.5703 25.9942C26.9706 27.404 27.4275 29.0187 27.8281 30.4377C28.116 31.4575 28.3749 32.3767 28.563 33.0464C28.657 33.3812 28.7335 33.6541 28.787 33.8463L28.7992 33.8901L28.7993 33.8902C28.8384 34.0305 28.8794 34.1773 28.8901 34.2307C28.9984 34.7723 28.6472 35.2991 28.1056 35.4074C27.564 35.5157 27.0372 35.1645 26.9289 34.623C26.9342 34.6494 26.9299 34.634 26.9048 34.5429L26.9047 34.5428L26.9047 34.5427L26.8604 34.3832C26.8074 34.193 26.7314 33.9215 26.6375 33.5872C26.4498 32.9186 26.1911 32.0004 25.9033 30.9811C25.5748 29.8173 25.2085 28.5223 24.8667 27.3171C24.7568 26.9295 24.4029 26.6621 24 26.6621C23.5971 26.6621 23.2432 26.9295 23.1333 27.3171C22.7915 28.5223 22.4252 29.8173 22.0967 30.9811C21.8089 32.0004 21.5502 32.9186 21.3625 33.5872C21.2686 33.9215 21.1926 34.193 21.1396 34.3832L21.0953 34.5427L21.0953 34.5428L21.0952 34.5429C21.0701 34.634 21.0658 34.6494 21.0711 34.623C20.9628 35.1645 20.436 35.5157 19.8944 35.4074C19.3528 35.2991 19.0016 34.7723 19.1099 34.2307C19.1206 34.1772 19.1616 34.0305 19.2008 33.8901L19.213 33.8463C19.2665 33.6541 19.343 33.3812 19.437 33.0464C19.6251 32.3767 19.884 31.4575 20.1719 30.4377C20.5725 29.0187 21.0294 27.404 21.4297 25.9942C21.455 25.9053 21.4678 25.8134 21.4678 25.721V21.7682C21.4678 21.2504 21.0722 20.8202 20.5581 20.7576C19.0792 20.5775 17.6111 20.281 16.1676 19.8679C15.6366 19.716 15.3293 19.1624 15.4812 18.6314Z" fill="white"/>
</clipPath>
<g clip-path="url(#mask0_5481_122390)">
<g clip-path="url(#clip0_5481_122390)">
<rect width="48" height="48" rx="10" fill="#D9F4FD"/>
<circle cx="42.7877" cy="31.5552" r="69.3033" fill="url(#paint0_radial_5481_122390)"/>
<path d="M-4.31959 15.0345C-5.08998 -1.55641 7.73508 -15.6305 24.326 -16.4009C40.9169 -17.1713 54.991 -4.34621 55.7613 12.2447C56.5317 28.8356 43.7067 42.9097 27.1158 43.6801C10.5249 44.4504 -3.54921 31.6254 -4.31959 15.0345Z" fill="url(#paint1_linear_5481_122390)"/>
<path d="M12.1243 -33.214C8.38167 -35.53 3.6397 -35.5442 -0.116893 -33.2506L-37.6896 -10.3099C-41.3694 -8.06314 -41.3755 -2.75987 -37.7007 -0.504581L-0.376298 22.4036C3.37467 24.7054 8.11665 24.7027 11.8644 22.3954L49.1119 -0.534222C52.7672 -2.7847 52.7739 -8.05833 49.1231 -10.3173L12.1243 -33.214Z" fill="url(#paint2_linear_5481_122390)"/>
<path d="M-23.9274 22.9579C-16.1831 22.9579 -9.16812 26.0922 -4.0892 31.1486C6.06863 41.2789 14.4901 41.2875 24.6479 31.1746C29.7268 26.0922 36.7505 22.9492 44.5034 22.9492C60.0006 22.9579 72.5547 35.4778 72.5547 50.9329C72.5547 66.388 60.0006 78.8992 44.5034 78.8992C36.7331 78.8992 29.7095 75.7476 24.6306 70.6652C14.4814 60.5696 6.06863 60.5782 -4.0892 70.7085C-9.16812 75.7736 -16.1831 78.8992 -23.9274 78.8992C-39.4159 78.8992 -51.9699 66.3793 -51.9699 50.9329C-51.9699 35.4865 -39.4159 22.9579 -23.9274 22.9579Z" fill="url(#paint3_linear_5481_122390)"/>
</g>
</g>

</svg>
