<svg width="48" height="48" viewBox="0 0 48 48" xmlns="http://www.w3.org/2000/svg">
  <defs>
<radialGradient id="paint0_radial_5481_122319" cx="0" cy="0" r="1" gradientUnits="userSpaceOnUse" gradientTransform="translate(39.1062 30.3118) rotate(90) scale(51.2844 54.4031)">
<stop offset="0.0885417" stop-color="#EB1000"/>
<stop offset="1" stop-color="#EB1000" stop-opacity="0"/>
</radialGradient>
<linearGradient id="paint1_linear_5481_122319" x1="32.7828" y1="5.819" x2="12.551" y2="33.6451" gradientUnits="userSpaceOnUse">
<stop stop-color="#FF4885"/>
<stop offset="1" stop-color="#FF4885" stop-opacity="0"/>
</linearGradient>
<linearGradient id="paint2_linear_5481_122319" x1="19.4888" y1="-6.45884" x2="23.2394" y2="19.0051" gradientUnits="userSpaceOnUse">
<stop offset="0.15625" stop-color="#7A6AFD"/>
<stop offset="1" stop-color="#7A6AFD" stop-opacity="0"/>
</linearGradient>
<linearGradient id="paint3_linear_5481_122319" x1="-29.0844" y1="44.5985" x2="41.4108" y2="29.819" gradientUnits="userSpaceOnUse">
<stop stop-color="#30A7FE" stop-opacity="0"/>
<stop offset="0.432292" stop-color="#30A7FE" stop-opacity="0.994652"/>
<stop offset="0.609375" stop-color="#30A7FE"/>
<stop offset="1" stop-color="#30A7FE" stop-opacity="0"/>
</linearGradient>
<clipPath id="clip0_5481_122319">
<rect x="5.51953" y="6.96094" width="37.68" height="35.52" rx="10" fill="white"/>
</clipPath>
</defs>
<clipPath id="mask0_5481_122319">
<path d="M37.2 9.59961H10.8C8.148 9.59961 6 11.7476 6 14.3996V33.5996C6 36.2516 8.148 38.3996 10.8 38.3996H37.2C39.852 38.3996 42 36.2516 42 33.5996V14.3996C42 11.7476 39.852 9.59961 37.2 9.59961ZM18.825 28.8926C19.278 29.3786 19.251 30.1376 18.768 30.5876C18.537 30.8036 18.243 30.9116 17.949 30.9116C17.628 30.9116 17.307 30.7826 17.07 30.5306L11.553 24.6206C11.112 24.1466 11.124 23.4116 11.583 22.9526L17.1 17.4356C17.568 16.9676 18.33 16.9676 18.798 17.4356C19.266 17.9036 19.266 18.6626 18.798 19.1336L14.103 23.8286L18.828 28.8896L18.825 28.8926ZM27.711 15.8936L22.587 32.8016C22.431 33.3206 21.954 33.6536 21.438 33.6536C21.324 33.6536 21.207 33.6356 21.09 33.6026C20.457 33.4106 20.097 32.7416 20.289 32.1056L25.413 15.1976C25.605 14.5646 26.274 14.2046 26.91 14.3966C27.543 14.5886 27.903 15.2576 27.711 15.8936ZM36.417 25.0436L30.9 30.5606C30.666 30.7946 30.36 30.9116 30.051 30.9116C29.742 30.9116 29.436 30.7946 29.202 30.5606C28.734 30.0926 28.734 29.3336 29.202 28.8626L33.897 24.1676L29.172 19.1066C28.719 18.6206 28.746 17.8616 29.229 17.4116C29.712 16.9586 30.474 16.9856 30.924 17.4686L36.441 23.3786C36.882 23.8526 36.87 24.5876 36.411 25.0466L36.417 25.0436Z" fill="white"/>
</clipPath>
<g clip-path="url(#mask0_5481_122319)">
<g clip-path="url(#clip0_5481_122319)">
<rect x="5.51953" y="6.96094" width="37.68" height="35.52" rx="10" fill="#D9F4FD"/>
<ellipse cx="39.1062" cy="30.3118" rx="54.4031" ry="51.2844" fill="url(#paint0_radial_5481_122319)"/>
<path d="M2.12818 18.0865C1.52343 5.80919 11.5911 -4.60564 24.615 -5.17572C37.6388 -5.74581 48.687 3.74473 49.2917 16.022C49.8965 28.2993 39.8288 38.7141 26.8049 39.2842C13.7811 39.8543 2.73293 30.3637 2.12818 18.0865Z" fill="url(#paint1_linear_5481_122319)"/>
<path d="M15.0389 -17.6174C12.1009 -19.3312 8.3785 -19.3417 5.42957 -17.6445L-24.065 -0.668411C-26.9536 0.994216 -26.9584 4.91864 -24.0738 6.58755L5.22594 23.5396C8.17045 25.2429 11.8929 25.2409 14.8349 23.5335L44.0742 6.56562C46.9436 4.90026 46.9489 0.997775 44.083 -0.673862L15.0389 -17.6174Z" fill="url(#paint2_linear_5481_122319)"/>
<path d="M-13.2658 23.9498C-7.18652 23.9498 -1.67976 26.2692 2.30719 30.0109C10.2811 37.5073 16.8919 37.5137 24.8658 30.0302C28.8528 26.2692 34.3664 23.9434 40.4524 23.9434C52.6177 23.9498 62.4727 33.2145 62.4727 44.6513C62.4727 56.088 52.6177 65.3464 40.4524 65.3464C34.3527 65.3464 28.8392 63.0142 24.8522 59.2532C16.8851 51.7824 10.2811 51.7888 2.30719 59.2852C-1.67976 63.0334 -7.18652 65.3464 -13.2658 65.3464C-25.4243 65.3464 -35.2792 56.0816 -35.2792 44.6513C-35.2792 33.2209 -25.4243 23.9498 -13.2658 23.9498Z" fill="url(#paint3_linear_5481_122319)"/>
</g>
</g>

</svg>
