<svg width="160" height="160" viewBox="0 0 160 160" xmlns="http://www.w3.org/2000/svg">
  <defs>
<radialGradient id="paint0_radial_5481_122268" cx="0" cy="0" r="1" gradientUnits="userSpaceOnUse" gradientTransform="translate(142.62 105.187) rotate(90) scale(231.011)">
<stop offset="0.0885417" stop-color="#EB1000"/>
<stop offset="1" stop-color="#EB1000" stop-opacity="0"/>
</radialGradient>
<linearGradient id="paint1_linear_5481_122268" x1="115.768" y1="-5.14512" x2="23.108" y2="114.991" gradientUnits="userSpaceOnUse">
<stop stop-color="#FF4885"/>
<stop offset="1" stop-color="#FF4885" stop-opacity="0"/>
</linearGradient>
<linearGradient id="paint2_linear_5481_122268" x1="59.3137" y1="-60.4521" x2="77.1884" y2="53.9458" gradientUnits="userSpaceOnUse">
<stop offset="0.15625" stop-color="#7A6AFD"/>
<stop offset="1" stop-color="#7A6AFD" stop-opacity="0"/>
</linearGradient>
<linearGradient id="paint3_linear_5481_122268" x1="-146.934" y1="169.541" x2="153.819" y2="110.102" gradientUnits="userSpaceOnUse">
<stop stop-color="#30A7FE" stop-opacity="0"/>
<stop offset="0.432292" stop-color="#30A7FE" stop-opacity="0.994652"/>
<stop offset="0.609375" stop-color="#30A7FE"/>
<stop offset="1" stop-color="#30A7FE" stop-opacity="0"/>
</linearGradient>
<clipPath id="clip0_5481_122268">
<rect width="160" height="160" rx="10" fill="white"/>
</clipPath>
</defs>
<clipPath id="mask0_5481_122268">
<path fill-rule="evenodd" d="M87.5147 31.5147L120.485 64.4853C122.736 66.7357 124 69.788 124 72.9706V120C124 126.627 118.627 132 112 132H48C41.3726 132 36 126.627 36 120V40C36 33.3726 41.3726 28 48 28H79.0294C82.212 28 85.2643 29.2643 87.5147 31.5147ZM69.8398 78.789C69.8398 77.9854 70.4913 77.334 71.2948 77.334C73.504 77.334 75.2948 75.5431 75.2948 73.334C75.2948 71.1248 73.504 69.334 71.2948 69.334C66.073 69.334 61.8398 73.5671 61.8398 78.789C61.8398 81.4546 62.9481 83.8683 64.7185 85.5823C66.3057 87.1189 68.838 87.078 70.3746 85.4908C71.9113 83.9037 71.8703 81.3713 70.2831 79.8347C70.005 79.5654 69.8398 79.1999 69.8398 78.789ZM84.0488 73.2555C79.1323 73.2555 75.1468 77.2411 75.1468 82.1575C75.1468 87.0739 79.1323 91.0595 84.0488 91.0595C88.9652 91.0595 92.9507 87.0739 92.9507 82.1575C92.9507 77.2411 88.9652 73.2555 84.0488 73.2555ZM69.2252 97.6241C71.2186 96.672 72.0627 94.2841 71.1105 92.2907C70.1583 90.2973 67.7705 89.4532 65.7771 90.4053C61.5022 92.4473 58.3796 96.5458 57.5571 101.391C57.1873 103.569 58.6532 105.634 60.8312 106.004C63.0092 106.374 65.0745 104.908 65.4442 102.73C65.835 100.428 67.3183 98.5349 69.2252 97.6241ZM84.0489 92.8633C77.2022 92.8633 70.9703 97.2539 69.4195 103.69C68.4417 107.747 71.8766 110.667 75.1333 110.667H92.9646C96.2213 110.667 99.6562 107.747 98.6784 103.69C97.1276 97.2539 90.8957 92.8633 84.0489 92.8633Z" fill="#292929"/>
</clipPath>
<g clip-path="url(#mask0_5481_122268)">
<g clip-path="url(#clip0_5481_122268)">
<rect width="160" height="160" rx="10" fill="#D9F4FD"/>
<circle cx="142.62" cy="105.187" r="231.011" fill="url(#paint0_radial_5481_122268)"/>
<path d="M-14.3999 50.1137C-16.9679 -5.18932 25.7823 -52.103 81.0853 -54.6709C136.388 -57.2388 183.302 -14.4887 185.87 40.8143C188.438 96.1173 145.688 143.031 90.3846 145.599C35.0817 148.167 -11.832 105.417 -14.3999 50.1137Z" fill="url(#paint1_linear_5481_122268)"/>
<path d="M40.4184 -110.716C27.9428 -118.436 12.1362 -118.483 -0.385738 -110.838L-125.628 -34.3691C-137.894 -26.8797 -137.914 -9.20217 -125.665 -1.68455L-1.25042 74.676C11.2528 82.3487 27.0594 82.3396 39.5518 74.6486L163.71 -1.78335C175.895 -9.28493 175.917 -26.8637 163.748 -34.3936L40.4184 -110.716Z" fill="url(#paint2_linear_5481_122268)"/>
<path d="M-79.7631 76.5289C-53.9489 76.5289 -30.5656 86.9766 -13.6359 103.831C20.2235 137.599 48.2951 137.628 82.1545 103.918C99.0842 86.9766 122.496 76.5 148.34 76.5C199.997 76.5289 241.844 118.262 241.844 169.779C241.844 221.296 199.997 263 148.34 263C122.439 263 99.0263 252.495 82.0966 235.553C48.2661 201.901 20.2235 201.93 -13.6359 235.697C-30.5656 252.581 -53.9489 263 -79.7631 263C-131.392 263 -173.238 221.267 -173.238 169.779C-173.238 118.291 -131.392 76.5289 -79.7631 76.5289Z" fill="url(#paint3_linear_5481_122268)"/>
</g>
</g>

</svg>
