<svg width="96" height="96" viewBox="0 0 96 96" xmlns="http://www.w3.org/2000/svg">
  <defs>
<radialGradient id="paint0_radial_5481_122476" cx="0" cy="0" r="1" gradientUnits="userSpaceOnUse" gradientTransform="translate(78.2124 60.6236) rotate(90) scale(102.569 108.806)">
<stop offset="0.0885417" stop-color="#EB1000"/>
<stop offset="1" stop-color="#EB1000" stop-opacity="0"/>
</radialGradient>
<linearGradient id="paint1_linear_5481_122476" x1="65.5656" y1="11.6361" x2="25.102" y2="67.2883" gradientUnits="userSpaceOnUse">
<stop stop-color="#FF4885"/>
<stop offset="1" stop-color="#FF4885" stop-opacity="0"/>
</linearGradient>
<linearGradient id="paint2_linear_5481_122476" x1="38.9776" y1="-12.9196" x2="46.4789" y2="38.0082" gradientUnits="userSpaceOnUse">
<stop offset="0.15625" stop-color="#7A6AFD"/>
<stop offset="1" stop-color="#7A6AFD" stop-opacity="0"/>
</linearGradient>
<linearGradient id="paint3_linear_5481_122476" x1="-58.1649" y1="89.197" x2="82.8254" y2="59.6379" gradientUnits="userSpaceOnUse">
<stop stop-color="#30A7FE" stop-opacity="0"/>
<stop offset="0.432292" stop-color="#30A7FE" stop-opacity="0.994652"/>
<stop offset="0.609375" stop-color="#30A7FE"/>
<stop offset="1" stop-color="#30A7FE" stop-opacity="0"/>
</linearGradient>
<clipPath id="clip0_5481_122476">
<rect x="11.0391" y="13.9199" width="75.36" height="71.04" rx="10" fill="white"/>
</clipPath>
</defs>
<clipPath id="mask0_5481_122476">
<path fill-rule="evenodd" d="M52.673 18.8106L72.449 37.7286V37.7406C73.889 39.1086 74.699 41.0166 74.699 43.0086V71.9346C74.699 75.9546 71.453 79.2126 67.457 79.2126H28.535C24.533 79.2126 21.293 75.9546 21.293 71.9346V24.0846C21.293 20.0646 24.539 16.8066 28.535 16.8066H47.681C49.541 16.8066 51.329 17.5206 52.673 18.8106ZM55.523 41.9166C55.523 40.5906 54.449 39.5166 53.123 39.5166H50.081V35.5206H53.129C54.455 35.5206 55.529 34.4466 55.529 33.1206C55.529 31.7946 54.455 30.7206 53.129 30.7206H50.081V28.7226C50.081 27.3966 49.007 26.3226 47.681 26.3226H42.887C41.561 26.3226 40.487 27.3966 40.487 28.7226C40.487 30.0486 41.561 31.1226 42.887 31.1226H45.281V35.1186H42.887C41.561 35.1186 40.487 36.1926 40.487 37.5186C40.487 38.8446 41.561 39.9186 42.887 39.9186H45.281V43.9146H42.887C41.561 43.9146 40.487 44.9886 40.487 46.3146C40.487 47.6406 41.561 48.7146 42.887 48.7146H45.281V52.7106H43.487C42.161 52.7106 41.087 53.7846 41.087 55.1106V67.1646C41.087 69.8106 43.241 71.9646 45.887 71.9646H49.493C52.139 71.9646 54.293 69.8106 54.293 67.1646V55.1106C54.293 53.7846 53.219 52.7106 51.893 52.7106H50.075V44.3166H53.123C54.449 44.3166 55.523 43.2426 55.523 41.9166ZM45.8871 62.3346H49.4991V67.1586H45.8871V62.3346Z" fill="white"/>
</clipPath>
<g clip-path="url(#mask0_5481_122476)">
<g clip-path="url(#clip0_5481_122476)">
<rect x="11.0391" y="13.9199" width="75.36" height="71.04" rx="10" fill="#D9F4FD"/>
<ellipse cx="78.2124" cy="60.6236" rx="108.806" ry="102.569" fill="url(#paint0_radial_5481_122476)"/>
<path d="M4.25636 36.171C3.04686 11.6164 23.1822 -9.21323 49.2299 -10.3534C75.2776 -11.4936 97.3739 7.48752 98.5834 32.0421C99.7929 56.5966 79.6576 77.4262 53.6099 78.5664C27.5622 79.7066 5.46586 60.7255 4.25636 36.171Z" fill="url(#paint1_linear_5481_122476)"/>
<path d="M30.0779 -35.2368C24.2019 -38.6645 16.757 -38.6854 10.8591 -35.291L-48.13 -1.33878C-53.9073 1.98648 -53.9169 9.83532 -48.1475 13.1731L10.4519 47.0772C16.3409 50.4839 23.7858 50.4799 29.6697 47.0651L88.1484 13.1293C93.8873 9.79858 93.8977 1.9936 88.1659 -1.34968L30.0779 -35.2368Z" fill="url(#paint2_linear_5481_122476)"/>
<path d="M-26.5276 47.8995C-14.3691 47.8995 -3.35561 52.5383 4.61829 60.0219C20.5661 75.0146 33.7878 75.0274 49.7356 60.0603C57.7095 52.5383 68.7366 47.8867 80.9088 47.8867C105.239 47.8995 124.949 66.429 124.949 89.3025C124.949 112.176 105.239 130.693 80.9088 130.693C68.7094 130.693 57.6822 126.028 49.7083 118.506C33.7741 103.565 20.5661 103.578 4.61829 118.57C-3.35561 126.067 -14.3691 130.693 -26.5276 130.693C-50.8446 130.693 -70.5544 112.163 -70.5544 89.3025C-70.5544 66.4418 -50.8446 47.8995 -26.5276 47.8995Z" fill="url(#paint3_linear_5481_122476)"/>
</g>
</g>

</svg>
