<svg width="160" height="160" viewBox="0 0 160 160" xmlns="http://www.w3.org/2000/svg">
  <defs>
<radialGradient id="paint0_radial_5481_122195" cx="0" cy="0" r="1" gradientUnits="userSpaceOnUse" gradientTransform="translate(142.62 105.187) rotate(90) scale(231.011)">
<stop offset="0.0885417" stop-color="#EB1000"/>
<stop offset="1" stop-color="#EB1000" stop-opacity="0"/>
</radialGradient>
<linearGradient id="paint1_linear_5481_122195" x1="115.768" y1="-5.14512" x2="23.108" y2="114.991" gradientUnits="userSpaceOnUse">
<stop stop-color="#FF4885"/>
<stop offset="1" stop-color="#FF4885" stop-opacity="0"/>
</linearGradient>
<linearGradient id="paint2_linear_5481_122195" x1="59.3137" y1="-60.4521" x2="77.1884" y2="53.9458" gradientUnits="userSpaceOnUse">
<stop offset="0.15625" stop-color="#7A6AFD"/>
<stop offset="1" stop-color="#7A6AFD" stop-opacity="0"/>
</linearGradient>
<linearGradient id="paint3_linear_5481_122195" x1="-146.934" y1="169.541" x2="153.819" y2="110.102" gradientUnits="userSpaceOnUse">
<stop stop-color="#30A7FE" stop-opacity="0"/>
<stop offset="0.432292" stop-color="#30A7FE" stop-opacity="0.994652"/>
<stop offset="0.609375" stop-color="#30A7FE"/>
<stop offset="1" stop-color="#30A7FE" stop-opacity="0"/>
</linearGradient>
<clipPath id="clip0_5481_122195">
<rect width="160" height="160" rx="10" fill="white"/>
</clipPath>
</defs>
<clipPath id="mask0_5481_122195">
<path fill-rule="evenodd" d="M132.689 44.5905L125.634 46.0004C124.7 46.1886 123.925 46.8179 123.548 47.6873L120.702 54.2934C119.58 56.8968 115.774 56.4937 115.221 53.7197L113.811 46.6646C113.623 45.7311 112.994 44.9562 112.124 44.5787L105.518 41.7325C102.915 40.6107 103.318 36.8046 106.092 36.2519L113.147 34.842C114.08 34.6538 114.855 34.0245 115.233 33.1551L118.079 26.549C119.201 23.9456 123.007 24.3487 123.56 27.1227L124.969 34.1778C125.158 35.1113 125.787 35.8862 126.656 36.2637L133.262 39.1099C135.866 40.2317 135.463 44.0378 132.689 44.5905ZM73.1673 50.6333L67.34 51.7979C66.569 51.9533 65.929 52.4731 65.6172 53.1912L63.2664 58.6475C62.3398 60.7978 59.1962 60.4649 58.7397 58.1737L57.5751 52.3464C57.4197 51.5754 56.8999 50.9354 56.1818 50.6236L50.7255 48.2728C48.5752 47.3462 48.9081 44.2026 51.1993 43.7461L57.0266 42.5815C57.7976 42.4261 58.4376 41.9063 58.7494 41.1882L61.1002 35.7319C62.0268 33.5816 65.1704 33.9145 65.6269 36.2057L66.7915 42.0329C66.9469 42.8039 67.4667 43.444 68.1848 43.7557L73.6411 46.1066C75.7914 47.0331 75.4585 50.1768 73.1673 50.6333ZM124.89 93.8282L130.717 92.6636C133.009 92.2071 133.341 89.0634 131.191 88.1369L125.735 85.786C125.017 85.4743 124.497 84.8342 124.342 84.0632L123.177 78.236C122.72 75.9448 119.577 75.6118 118.65 77.7621L116.299 83.2185C115.988 83.9365 115.348 84.4563 114.577 84.6118L108.749 85.7763C106.458 86.2328 106.125 89.3765 108.276 90.303L113.732 92.6539C114.45 92.9656 114.97 93.6057 115.125 94.3767L116.29 100.204C116.746 102.495 119.89 102.828 120.816 100.678L123.167 95.2214C123.479 94.5034 124.119 93.9836 124.89 93.8282ZM88.8704 57.7125C92.6276 53.9554 98.7191 53.9554 102.476 57.7125C106.233 61.4697 106.233 67.5612 102.476 71.3184L93.3223 80.4724L79.7164 66.8665L88.8704 57.7125ZM74.0596 72.5234L87.6655 86.1292L41.4159 132.379C37.6588 136.136 31.5672 136.136 27.8101 132.379C24.0529 128.622 24.0529 122.53 27.8101 118.773L74.0596 72.5234Z" fill="#292929"/>
</clipPath>
<g clip-path="url(#mask0_5481_122195)">
<g clip-path="url(#clip0_5481_122195)">
<rect width="160" height="160" rx="10" fill="#D9F4FD"/>
<circle cx="142.62" cy="105.187" r="231.011" fill="url(#paint0_radial_5481_122195)"/>
<path d="M-14.3999 50.1137C-16.9679 -5.18932 25.7823 -52.103 81.0853 -54.6709C136.388 -57.2388 183.302 -14.4887 185.87 40.8143C188.438 96.1173 145.688 143.031 90.3846 145.599C35.0817 148.167 -11.832 105.417 -14.3999 50.1137Z" fill="url(#paint1_linear_5481_122195)"/>
<path d="M40.4184 -110.716C27.9428 -118.436 12.1362 -118.483 -0.385738 -110.838L-125.628 -34.3691C-137.894 -26.8797 -137.914 -9.20217 -125.665 -1.68455L-1.25042 74.676C11.2528 82.3487 27.0594 82.3396 39.5518 74.6486L163.71 -1.78335C175.895 -9.28493 175.917 -26.8637 163.748 -34.3936L40.4184 -110.716Z" fill="url(#paint2_linear_5481_122195)"/>
<path d="M-79.7631 76.5289C-53.9489 76.5289 -30.5656 86.9766 -13.6359 103.831C20.2235 137.599 48.2951 137.628 82.1545 103.918C99.0842 86.9766 122.496 76.5 148.34 76.5C199.997 76.5289 241.844 118.262 241.844 169.779C241.844 221.296 199.997 263 148.34 263C122.439 263 99.0263 252.495 82.0966 235.553C48.2661 201.901 20.2235 201.93 -13.6359 235.697C-30.5656 252.581 -53.9489 263 -79.7631 263C-131.392 263 -173.238 221.267 -173.238 169.779C-173.238 118.291 -131.392 76.5289 -79.7631 76.5289Z" fill="url(#paint3_linear_5481_122195)"/>
</g>
</g>

</svg>
