<svg width="160" height="160" viewBox="0 0 160 160" xmlns="http://www.w3.org/2000/svg">
  <defs>
<radialGradient id="paint0_radial_5481_122118" cx="0" cy="0" r="1" gradientUnits="userSpaceOnUse" gradientTransform="translate(134.458 101.903) rotate(90) scale(200.895 200.895)">
<stop offset="0.0885417" stop-color="#EB1000"/>
<stop offset="1" stop-color="#EB1000" stop-opacity="0"/>
</radialGradient>
<linearGradient id="paint1_linear_5481_122118" x1="111.107" y1="5.95414" x2="30.5263" y2="110.429" gradientUnits="userSpaceOnUse">
<stop stop-color="#FF4885"/>
<stop offset="1" stop-color="#FF4885" stop-opacity="0"/>
</linearGradient>
<linearGradient id="paint2_linear_5481_122118" x1="62.0108" y1="-42.1418" x2="77.5552" y2="57.3426" gradientUnits="userSpaceOnUse">
<stop offset="0.15625" stop-color="#7A6AFD"/>
<stop offset="1" stop-color="#7A6AFD" stop-opacity="0"/>
</linearGradient>
<linearGradient id="paint3_linear_5481_122118" x1="-117.348" y1="157.868" x2="144.197" y2="106.177" gradientUnits="userSpaceOnUse">
<stop stop-color="#30A7FE" stop-opacity="0"/>
<stop offset="0.432292" stop-color="#30A7FE" stop-opacity="0.994652"/>
<stop offset="0.609375" stop-color="#30A7FE"/>
<stop offset="1" stop-color="#30A7FE" stop-opacity="0"/>
</linearGradient>
<clipPath id="clip0_5481_122118">
<rect x="10.4297" y="10.4287" width="139.142" height="139.142" rx="10" fill="white"/>
</clipPath>
</defs>
<clipPath id="mask0_5481_122118">
<path d="M116.525 69.2069C116.53 68.9967 116.541 68.7883 116.541 68.5771C116.541 52.1272 103.764 38.792 88.0031 38.792C75.2883 38.792 64.5204 47.473 60.8313 59.4643C58.3833 58.4092 55.7039 57.8196 52.8909 57.8196C41.3888 57.8196 32.0646 67.5514 32.0646 79.5562C32.0646 81.2473 32.2679 82.8857 32.618 84.4658C25.0205 86.6378 19.4297 93.8763 19.4297 102.495C19.4297 112.724 27.2971 121.023 37.0592 121.192V121.207H114.957V121.204C115.004 121.204 115.05 121.207 115.097 121.207C128.867 121.207 140.03 109.556 140.03 95.1844C140.03 81.3132 129.63 69.9801 116.525 69.2069Z" fill="white"/>
</clipPath>
<g clip-path="url(#mask0_5481_122118)">
<g clip-path="url(#clip0_5481_122118)">
<rect x="10.4297" y="10.4287" width="139.142" height="139.142" rx="10" fill="#D9F4FD"/>
<ellipse cx="134.458" cy="101.903" rx="200.895" ry="200.895" fill="url(#paint0_radial_5481_122118)"/>
<path d="M-2.09191 54.0091C-4.32508 5.9157 32.852 -34.8821 80.9454 -37.1152C129.039 -39.3484 169.837 -2.17134 172.07 45.9221C174.303 94.0155 137.126 134.813 89.0324 137.046C40.939 139.28 0.141263 102.103 -2.09191 54.0091Z" fill="url(#paint1_linear_5481_122118)"/>
<path d="M45.5787 -85.853C34.7295 -92.5665 20.9836 -92.6076 10.094 -85.9592L-98.8211 -19.459C-109.488 -12.9461 -109.506 2.42696 -98.8535 8.96455L9.34205 75.3704C20.2153 82.0429 33.9613 82.0349 44.8251 75.3466L152.798 8.87863C163.394 2.35499 163.413 -12.9321 152.83 -19.4804L45.5787 -85.853Z" fill="url(#paint2_linear_5481_122118)"/>
<path d="M-58.9346 76.9812C-36.4856 76.9812 -16.1507 86.0668 -1.42803 100.724C28.0173 130.09 52.4293 130.115 81.8747 100.8C96.5974 86.0668 116.957 76.9561 139.432 76.9561C184.355 76.9812 220.746 113.274 220.746 158.075C220.746 202.876 184.355 239.143 139.432 239.143C116.907 239.143 96.547 230.007 81.8243 215.274C52.4041 186.009 28.0173 186.034 -1.42803 215.4C-16.1507 230.082 -36.4856 239.143 -58.9346 239.143C-103.832 239.143 -140.224 202.851 -140.224 158.075C-140.224 113.299 -103.832 76.9812 -58.9346 76.9812Z" fill="url(#paint3_linear_5481_122118)"/>
</g>
</g>

</svg>
