<svg width="160" height="160" viewBox="0 0 160 160" xmlns="http://www.w3.org/2000/svg">
  <defs>
<radialGradient id="paint0_radial_5481_122261" cx="0" cy="0" r="1" gradientUnits="userSpaceOnUse" gradientTransform="translate(142.62 105.187) rotate(90) scale(231.011)">
<stop offset="0.0885417" stop-color="#EB1000"/>
<stop offset="1" stop-color="#EB1000" stop-opacity="0"/>
</radialGradient>
<linearGradient id="paint1_linear_5481_122261" x1="115.768" y1="-5.14512" x2="23.108" y2="114.991" gradientUnits="userSpaceOnUse">
<stop stop-color="#FF4885"/>
<stop offset="1" stop-color="#FF4885" stop-opacity="0"/>
</linearGradient>
<linearGradient id="paint2_linear_5481_122261" x1="59.3137" y1="-60.4521" x2="77.1884" y2="53.9458" gradientUnits="userSpaceOnUse">
<stop offset="0.15625" stop-color="#7A6AFD"/>
<stop offset="1" stop-color="#7A6AFD" stop-opacity="0"/>
</linearGradient>
<linearGradient id="paint3_linear_5481_122261" x1="-146.934" y1="169.541" x2="153.819" y2="110.102" gradientUnits="userSpaceOnUse">
<stop stop-color="#30A7FE" stop-opacity="0"/>
<stop offset="0.432292" stop-color="#30A7FE" stop-opacity="0.994652"/>
<stop offset="0.609375" stop-color="#30A7FE"/>
<stop offset="1" stop-color="#30A7FE" stop-opacity="0"/>
</linearGradient>
<clipPath id="clip0_5481_122261">
<rect width="160" height="160" rx="10" fill="white"/>
</clipPath>
</defs>
<clipPath id="mask0_5481_122261">
<path d="M79.95 54.6069C77.7408 54.6069 75.95 52.8161 75.95 50.6069V38.6419C75.95 38.4725 75.9605 38.3056 75.9809 38.1418C68.5764 38.6681 61.5706 40.6371 55.2432 43.7695C55.3322 43.8901 55.4155 44.017 55.4922 44.1499L61.4748 54.5119C62.5793 56.4251 61.9238 58.8715 60.0106 59.9761C58.0975 61.0806 55.6511 60.4251 54.5465 58.5119L48.564 48.1499C48.4974 48.0346 48.4372 47.9173 48.3833 47.7985C42.4523 51.8761 37.3478 57.0691 33.3726 63.075C33.4136 63.0968 33.4544 63.1194 33.4949 63.1428L43.857 69.1254C45.7701 70.2299 46.4256 72.6763 45.3211 74.5895C44.2165 76.5026 41.7701 77.1581 39.857 76.0536L29.4949 70.071C29.479 70.0618 29.4631 70.0525 29.4473 70.0431C26.4729 76.3415 24.641 83.2852 24.2188 90.6069H36.0105C38.2197 90.6069 40.0105 92.3978 40.0105 94.6069C40.0105 96.8161 38.2197 98.6069 36.0105 98.6069H24.3224C24.9377 105.944 26.9706 112.877 30.1464 119.133C31.406 121.614 34.0281 123.041 36.8107 123.041H123.189C125.972 123.041 128.594 121.614 129.853 119.133C133.029 112.877 135.062 105.944 135.677 98.6069H123.988C121.779 98.6069 119.988 96.8161 119.988 94.6069C119.988 92.3978 121.779 90.6069 123.988 90.6069H135.781C134.757 72.8589 125.45 57.3319 111.667 47.8337C111.618 47.9405 111.563 48.046 111.503 48.1499L105.52 58.5119C104.416 60.4251 101.969 61.0806 100.056 59.9761C98.1432 58.8715 97.4877 56.4251 98.5922 54.5119L104.575 44.1499C104.646 44.0259 104.724 43.9072 104.806 43.794C98.4369 40.6332 91.3791 38.6516 83.9182 38.1348C83.9392 38.3008 83.95 38.4701 83.95 38.6419V50.6069C83.95 52.8161 82.1591 54.6069 79.95 54.6069ZM120.492 63.8174C122.091 65.4163 122.158 67.9871 120.645 69.6678L83.2989 111.155C80.5457 114.213 75.7909 114.338 72.881 111.428C69.9712 108.518 70.0959 103.763 73.1544 101.01L114.641 63.6638C116.322 62.151 118.893 62.2184 120.492 63.8174Z" fill="#D9D9D9"/>
</clipPath>
<g clip-path="url(#mask0_5481_122261)">
<g clip-path="url(#clip0_5481_122261)">
<rect width="160" height="160" rx="10" fill="#D9F4FD"/>
<circle cx="142.62" cy="105.187" r="231.011" fill="url(#paint0_radial_5481_122261)"/>
<path d="M-14.3999 50.1137C-16.9679 -5.18932 25.7823 -52.103 81.0853 -54.6709C136.388 -57.2388 183.302 -14.4887 185.87 40.8143C188.438 96.1173 145.688 143.031 90.3846 145.599C35.0817 148.167 -11.832 105.417 -14.3999 50.1137Z" fill="url(#paint1_linear_5481_122261)"/>
<path d="M40.4184 -110.716C27.9428 -118.436 12.1362 -118.483 -0.385738 -110.838L-125.628 -34.3691C-137.894 -26.8797 -137.914 -9.20217 -125.665 -1.68455L-1.25042 74.676C11.2528 82.3487 27.0594 82.3396 39.5518 74.6486L163.71 -1.78335C175.895 -9.28493 175.917 -26.8637 163.748 -34.3936L40.4184 -110.716Z" fill="url(#paint2_linear_5481_122261)"/>
<path d="M-79.7631 76.5289C-53.9489 76.5289 -30.5656 86.9766 -13.6359 103.831C20.2235 137.599 48.2951 137.628 82.1545 103.918C99.0842 86.9766 122.496 76.5 148.34 76.5C199.997 76.5289 241.844 118.262 241.844 169.779C241.844 221.296 199.997 263 148.34 263C122.439 263 99.0263 252.495 82.0966 235.553C48.2661 201.901 20.2235 201.93 -13.6359 235.697C-30.5656 252.581 -53.9489 263 -79.7631 263C-131.392 263 -173.238 221.267 -173.238 169.779C-173.238 118.291 -131.392 76.5289 -79.7631 76.5289Z" fill="url(#paint3_linear_5481_122261)"/>
</g>
</g>

</svg>
