<svg width="160" height="160" viewBox="0 0 160 160" xmlns="http://www.w3.org/2000/svg">
  <defs>
<radialGradient id="paint0_radial_5481_122151" cx="0" cy="0" r="1" gradientUnits="userSpaceOnUse" gradientTransform="translate(129.774 104.384) rotate(90) scale(178.298 189.141)">
<stop offset="0.0885417" stop-color="#EB1000"/>
<stop offset="1" stop-color="#EB1000" stop-opacity="0"/>
</radialGradient>
<linearGradient id="paint1_linear_5481_122151" x1="107.785" y1="19.2281" x2="37.4466" y2="115.97" gradientUnits="userSpaceOnUse">
<stop stop-color="#FF4885"/>
<stop offset="1" stop-color="#FF4885" stop-opacity="0"/>
</linearGradient>
<linearGradient id="paint2_linear_5481_122151" x1="61.5653" y1="-23.4591" x2="74.605" y2="65.0701" gradientUnits="userSpaceOnUse">
<stop offset="0.15625" stop-color="#7A6AFD"/>
<stop offset="1" stop-color="#7A6AFD" stop-opacity="0"/>
</linearGradient>
<linearGradient id="paint3_linear_5481_122151" x1="-107.301" y1="154.055" x2="137.787" y2="102.672" gradientUnits="userSpaceOnUse">
<stop stop-color="#30A7FE" stop-opacity="0"/>
<stop offset="0.432292" stop-color="#30A7FE" stop-opacity="0.994652"/>
<stop offset="0.609375" stop-color="#30A7FE"/>
<stop offset="1" stop-color="#30A7FE" stop-opacity="0"/>
</linearGradient>
<clipPath id="clip0_5481_122151">
<rect x="13" y="23.1992" width="131" height="123.491" rx="10" fill="white"/>
</clipPath>
</defs>
<clipPath id="mask0_5481_122151">
<path fill-rule="evenodd" d="M107.022 87.2201C100.862 93.1001 93.2322 99.2001 83.8022 105.41H83.7922C83.0022 105.93 82.1822 106.37 81.3322 106.74C75.3822 109.32 68.3322 108.1 63.6222 103.39L60.0822 99.8501L56.5422 96.3101C52.0822 91.84 50.7622 85.2901 52.8322 79.5501C53.2622 78.3701 53.8222 77.22 54.5322 76.14C59.0222 69.32 63.4622 63.4501 67.7922 58.3901C92.9622 29.0001 114.762 27.1001 124.712 28.2301C128.392 28.6501 131.292 31.5601 131.712 35.2301C132.762 44.5301 131.182 64.1701 107.022 87.2201ZM108.722 51.2301C105.412 47.9301 100.052 47.9301 96.7522 51.2301C93.4522 54.5401 93.4422 59.9001 96.7522 63.2001C100.062 66.5 105.422 66.5101 108.722 63.2001C112.022 59.8901 112.032 54.5301 108.722 51.2301ZM44.1112 81.94L33.6312 82.12V82.13C26.8212 82.25 22.9612 74.33 27.2812 69.07C39.4912 54.22 55.9412 48.93 66.6712 47.72C60.2011 54.54 53.9111 62.56 47.8511 71.76C45.7911 74.89 44.5612 78.39 44.1112 81.94ZM28.7011 118.54C27.9211 119.32 26.8911 119.71 25.8711 119.71C24.8411 119.71 23.8211 119.32 23.0411 118.54C21.4811 116.97 21.4811 114.44 23.0411 112.88L33.5411 102.38C35.1111 100.82 37.6411 100.82 39.2011 102.38C40.7611 103.95 40.7611 106.48 39.2011 108.04L28.7011 118.54ZM42.7013 111.54C44.2713 109.98 46.8013 109.98 48.3613 111.54C49.9212 113.11 49.9212 115.64 48.3613 117.2L28.3612 137.2C27.5812 137.98 26.5613 138.37 25.5312 138.37C24.5013 138.37 23.4812 137.98 22.7012 137.2C21.1413 135.63 21.1413 133.1 22.7012 131.54L42.7013 111.54ZM51.922 120.75L40.922 131.75C39.362 133.31 39.362 135.84 40.922 137.41C41.702 138.19 42.722 138.58 43.752 138.58C44.782 138.58 45.802 138.19 46.582 137.41L57.582 126.41C59.142 124.85 59.142 122.32 57.582 120.75C56.022 119.18 53.492 119.19 51.922 120.75ZM78.0329 115.86L77.8529 126.3C77.7329 133.15 85.7029 136.95 90.9829 132.59C105.743 120.41 111.023 104.04 112.253 93.3201C105.773 99.4401 97.8629 105.73 88.2029 112.09C85.1229 114.12 81.6529 115.39 78.0329 115.86Z" fill="white"/>
</clipPath>
<g clip-path="url(#mask0_5481_122151)">
<g clip-path="url(#clip0_5481_122151)">
<rect x="13" y="23.1992" width="131" height="123.491" rx="10" fill="#D9F4FD"/>
<ellipse cx="129.774" cy="104.384" rx="189.141" ry="178.298" fill="url(#paint0_radial_5481_122151)"/>
<path d="M1.20997 61.8778C-0.892543 19.194 34.1093 -17.0148 79.3887 -18.9967C124.668 -20.9787 163.079 12.0166 165.181 54.7005C167.284 97.3843 132.282 133.593 87.0026 135.575C41.7231 137.557 3.31247 104.562 1.20997 61.8778Z" fill="url(#paint1_linear_5481_122151)"/>
<path d="M46.0947 -62.2537C35.8803 -68.212 22.9386 -68.2485 12.6862 -62.3479L-89.8563 -3.32779C-99.899 2.4526 -99.9158 16.0965 -89.8867 21.8987L11.9782 80.8351C22.2153 86.7571 35.157 86.75 45.3852 80.814L147.04 21.8224C157.016 16.0326 157.034 2.46497 147.071 -3.34673L46.0947 -62.2537Z" fill="url(#paint2_linear_5481_122151)"/>
<path d="M-52.3047 82.2664C-31.1693 82.2664 -12.0241 90.3301 1.83711 103.339C29.5596 129.401 52.5432 129.424 80.2657 103.406C94.127 90.3301 113.296 82.2441 134.455 82.2441C176.75 82.2664 211.012 114.477 211.012 154.238C211.012 194 176.75 226.188 134.455 226.188C113.248 226.188 94.0796 218.08 80.2183 205.004C52.5195 179.031 29.5596 179.053 1.83711 205.116C-12.0241 218.147 -31.1693 226.188 -52.3047 226.188C-94.5756 226.188 -128.838 193.978 -128.838 154.238C-128.838 114.499 -94.5756 82.2664 -52.3047 82.2664Z" fill="url(#paint3_linear_5481_122151)"/>
</g>
</g>

</svg>
