<svg width="97" height="96" viewBox="0 0 97 96" xmlns="http://www.w3.org/2000/svg">
  <defs>
<radialGradient id="paint0_radial_5481_122527" cx="0" cy="0" r="1" gradientUnits="userSpaceOnUse" gradientTransform="translate(86.5128 63.1124) rotate(90) scale(138.607)">
<stop offset="0.0885417" stop-color="#EB1000"/>
<stop offset="1" stop-color="#EB1000" stop-opacity="0"/>
</radialGradient>
<linearGradient id="paint1_linear_5481_122527" x1="70.4031" y1="-3.08825" x2="14.807" y2="68.9935" gradientUnits="userSpaceOnUse">
<stop stop-color="#FF4885"/>
<stop offset="1" stop-color="#FF4885" stop-opacity="0"/>
</linearGradient>
<linearGradient id="paint2_linear_5481_122527" x1="36.5312" y1="-36.2716" x2="47.256" y2="32.3671" gradientUnits="userSpaceOnUse">
<stop offset="0.15625" stop-color="#7A6AFD"/>
<stop offset="1" stop-color="#7A6AFD" stop-opacity="0"/>
</linearGradient>
<linearGradient id="paint3_linear_5481_122527" x1="-87.2195" y1="101.725" x2="93.2321" y2="66.0615" gradientUnits="userSpaceOnUse">
<stop stop-color="#30A7FE" stop-opacity="0"/>
<stop offset="0.432292" stop-color="#30A7FE" stop-opacity="0.994652"/>
<stop offset="0.609375" stop-color="#30A7FE"/>
<stop offset="1" stop-color="#30A7FE" stop-opacity="0"/>
</linearGradient>
<clipPath id="clip0_5481_122527">
<rect x="0.941406" width="96" height="96" rx="10" fill="white"/>
</clipPath>
</defs>
<clipPath id="mask0_5481_122527">
<path fill-rule="evenodd" d="M48.9413 13.2344C50.0459 13.2344 50.9413 14.1298 50.9413 15.2344V19.879C50.9413 20.9835 50.0459 21.879 48.9413 21.879C47.8367 21.879 46.9413 20.9835 46.9413 19.879V15.2344C46.9413 14.1298 47.8367 13.2344 48.9413 13.2344ZM65.4897 48.0009C65.4897 57.1405 58.0806 64.5496 48.941 64.5496C39.8013 64.5496 32.3922 57.1405 32.3922 48.0009C32.3922 38.8613 39.8013 31.4521 48.941 31.4521C58.0806 31.4521 65.4897 38.8613 65.4897 48.0009ZM50.9414 76.1212C50.9414 75.0166 50.046 74.1212 48.9414 74.1212C47.8368 74.1212 46.9414 75.0166 46.9414 76.1212V80.7658C46.9414 81.8703 47.8368 82.7658 48.9414 82.7658C50.046 82.7658 50.9414 81.8703 50.9414 80.7658V76.1212ZM83.707 48C83.707 49.1046 82.8116 50 81.707 50H77.0625C75.9579 50 75.0625 49.1046 75.0625 48C75.0625 46.8954 75.9579 46 77.0625 46H81.707C82.8116 46 83.707 46.8954 83.707 48ZM20.8204 50C21.9249 50 22.8204 49.1046 22.8204 48C22.8204 46.8954 21.9249 46 20.8204 46H16.1758C15.0712 46 14.1758 46.8954 14.1758 48C14.1758 49.1046 15.0712 50 16.1758 50H20.8204ZM73.5242 23.4161C74.3053 24.1972 74.3053 25.4635 73.5242 26.2445L70.24 29.5288C69.4589 30.3098 68.1926 30.3098 67.4116 29.5287C66.6305 28.7477 66.6305 27.4814 67.4116 26.7003L70.6958 23.4161C71.4768 22.6351 72.7432 22.6351 73.5242 23.4161ZM30.4705 69.2978C31.2515 68.5167 31.2515 67.2504 30.4705 66.4693C29.6894 65.6883 28.4231 65.6883 27.6421 66.4693L24.3578 69.7536C23.5768 70.5346 23.5768 71.8009 24.3578 72.582C25.1389 73.363 26.4052 73.363 27.1863 72.582L30.4705 69.2978ZM24.3576 23.4161C23.5766 24.1972 23.5766 25.4635 24.3576 26.2445L27.6419 29.5288C28.4229 30.3098 29.6892 30.3098 30.4703 29.5287C31.2513 28.7477 31.2513 27.4814 30.4703 26.7003L27.1861 23.4161C26.405 22.6351 25.1387 22.6351 24.3576 23.4161ZM67.4114 69.2977C66.6304 68.5167 66.6304 67.2503 67.4114 66.4693C68.1925 65.6882 69.4588 65.6882 70.2399 66.4693L73.5241 69.7535C74.3051 70.5346 74.3051 71.8009 73.5241 72.5819C72.743 73.363 71.4767 73.363 70.6957 72.5819L67.4114 69.2977Z" fill="white"/>
</clipPath>
<g clip-path="url(#mask0_5481_122527)">
<g clip-path="url(#clip0_5481_122527)">
<rect x="0.941406" width="96" height="96" rx="10" fill="#D9F4FD"/>
<circle cx="86.5128" cy="63.1124" r="138.607" fill="url(#paint0_radial_5481_122527)"/>
<path d="M-7.69778 30.067C-9.23855 -3.11477 16.4116 -31.263 49.5934 -32.8037C82.7751 -34.3445 110.923 -8.69438 112.464 24.4874C114.005 57.6692 88.3548 85.8174 55.173 87.3582C21.9912 88.8989 -6.15701 63.2488 -7.69778 30.067Z" fill="url(#paint1_linear_5481_122527)"/>
<path d="M25.194 -66.43C17.7087 -71.0619 8.22471 -71.0903 0.711526 -66.5032L-74.4339 -20.6218C-81.7934 -16.1282 -81.8057 -5.52169 -74.4562 -1.01111L0.192716 44.8052C7.69465 49.4089 17.1786 49.4034 24.6741 44.7888L99.1692 -1.0704C106.48 -5.57135 106.493 -16.1186 99.1915 -20.6366L25.194 -66.43Z" fill="url(#paint2_linear_5481_122527)"/>
<path d="M-46.9172 45.9177C-31.4287 45.9177 -17.3987 52.1863 -7.24091 62.2992C13.0748 82.5597 29.9177 82.577 50.2333 62.3512C60.3912 52.1863 74.4385 45.9004 89.9444 45.9004C120.939 45.9177 146.047 70.9575 146.047 101.868C146.047 132.778 120.939 157.8 89.9444 157.8C74.4038 157.8 60.3564 151.497 50.1986 141.332C29.9003 121.141 13.0748 121.158 -7.24091 141.419C-17.3987 151.549 -31.4287 157.8 -46.9172 157.8C-77.8943 157.8 -103.002 132.761 -103.002 101.868C-103.002 70.9749 -77.8943 45.9177 -46.9172 45.9177Z" fill="url(#paint3_linear_5481_122527)"/>
</g>
</g>

</svg>
