<svg width="96" height="96" viewBox="0 0 96 96" xmlns="http://www.w3.org/2000/svg">
  <defs>
<radialGradient id="paint0_radial_5481_122523" cx="0" cy="0" r="1" gradientUnits="userSpaceOnUse" gradientTransform="translate(85.5714 63.1124) rotate(90) scale(138.607)">
<stop offset="0.0885417" stop-color="#EB1000"/>
<stop offset="1" stop-color="#EB1000" stop-opacity="0"/>
</radialGradient>
<linearGradient id="paint1_linear_5481_122523" x1="69.4617" y1="-3.08825" x2="13.8656" y2="68.9935" gradientUnits="userSpaceOnUse">
<stop stop-color="#FF4885"/>
<stop offset="1" stop-color="#FF4885" stop-opacity="0"/>
</linearGradient>
<linearGradient id="paint2_linear_5481_122523" x1="35.5898" y1="-36.2716" x2="46.3146" y2="32.3671" gradientUnits="userSpaceOnUse">
<stop offset="0.15625" stop-color="#7A6AFD"/>
<stop offset="1" stop-color="#7A6AFD" stop-opacity="0"/>
</linearGradient>
<linearGradient id="paint3_linear_5481_122523" x1="-88.1609" y1="101.725" x2="92.2907" y2="66.0615" gradientUnits="userSpaceOnUse">
<stop stop-color="#30A7FE" stop-opacity="0"/>
<stop offset="0.432292" stop-color="#30A7FE" stop-opacity="0.994652"/>
<stop offset="0.609375" stop-color="#30A7FE"/>
<stop offset="1" stop-color="#30A7FE" stop-opacity="0"/>
</linearGradient>
<clipPath id="clip0_5481_122523">
<rect width="96" height="96" rx="10" fill="white"/>
</clipPath>
</defs>
<clipPath id="mask0_5481_122523">
<path fill-rule="evenodd" d="M79.614 26.7555L75.3809 27.6014C74.8208 27.7143 74.3559 28.0919 74.1294 28.6136L72.4217 32.5772C71.7486 34.1393 69.4649 33.8974 69.1333 32.233L68.2873 27.9999C68.1744 27.4398 67.7968 26.9749 67.2752 26.7484L63.3116 25.0407C61.7495 24.3676 61.9914 22.084 63.6558 21.7523L67.8889 20.9063C68.4489 20.7935 68.9139 20.4159 69.1404 19.8942L70.8481 15.9306C71.5212 14.3685 73.8048 14.6104 74.1364 16.2748L74.9824 20.5079C75.0953 21.068 75.4729 21.5329 75.9945 21.7594L79.9582 23.4671C81.5202 24.1402 81.2784 26.4238 79.614 26.7555ZM43.9011 30.3808L40.4047 31.0795C39.9421 31.1728 39.5581 31.4846 39.371 31.9155L37.9605 35.1893C37.4046 36.4795 35.5184 36.2797 35.2445 34.905L34.5457 31.4086C34.4525 30.946 34.1406 30.562 33.7098 30.375L30.436 28.9644C29.1458 28.4085 29.3455 26.5223 30.7203 26.2484L34.2166 25.5497C34.6792 25.4564 35.0633 25.1445 35.2503 24.7137L36.6608 21.4399C37.2167 20.1497 39.1029 20.3495 39.3768 21.7242L40.0756 25.2205C40.1688 25.6831 40.4807 26.0672 40.9115 26.2542L44.1854 27.6648C45.4755 28.2207 45.2758 30.1069 43.9011 30.3808ZM74.9347 56.2983L78.4311 55.5995C79.8058 55.3256 80.0056 53.4394 78.7154 52.8835L75.4416 51.473C75.0107 51.2859 74.6989 50.9019 74.6056 50.4393L73.9069 46.9429C73.633 45.5682 71.7468 45.3685 71.1908 46.6586L69.7803 49.9325C69.5933 50.3633 69.2092 50.6752 68.7466 50.7684L65.2503 51.4672C63.8756 51.7411 63.6758 53.6273 64.966 54.1832L68.2398 55.5937C68.6706 55.7808 68.9825 56.1648 69.0758 56.6274L69.7745 60.1237C70.0484 61.4985 71.9346 61.6982 72.4905 60.408L73.9011 57.1342C74.0881 56.7034 74.4721 56.3915 74.9347 56.2983ZM53.323 34.6279C55.5773 32.3736 59.2323 32.3736 61.4866 34.6279C63.7409 36.8822 63.7409 40.5371 61.4866 42.7914L55.4286 48.8494L47.2651 40.6859L53.323 34.6279ZM44.4367 43.5143L52.6002 51.6778L24.8503 79.4277C22.596 81.682 18.9411 81.6819 16.6868 79.4277C14.4325 77.1734 14.4325 73.5184 16.6868 71.2641L44.4367 43.5143Z" fill="#292929"/>
</clipPath>
<g clip-path="url(#mask0_5481_122523)">
<g clip-path="url(#clip0_5481_122523)">
<rect width="96" height="96" rx="10" fill="#D9F4FD"/>
<circle cx="85.5714" cy="63.1124" r="138.607" fill="url(#paint0_radial_5481_122523)"/>
<path d="M-8.63919 30.067C-10.18 -3.11477 15.4702 -31.263 48.652 -32.8037C81.8337 -34.3445 109.982 -8.69438 111.523 24.4874C113.063 57.6692 87.4133 85.8174 54.2316 87.3582C21.0498 88.8989 -7.09842 63.2488 -8.63919 30.067Z" fill="url(#paint1_linear_5481_122523)"/>
<path d="M24.2526 -66.43C16.7672 -71.0619 7.28331 -71.0903 -0.22988 -66.5032L-75.3753 -20.6218C-82.7348 -16.1282 -82.7471 -5.52169 -75.3976 -1.01111L-0.748691 44.8052C6.75324 49.4089 16.2372 49.4034 23.7327 44.7888L98.2278 -1.0704C105.538 -5.57135 105.552 -16.1186 98.2501 -20.6366L24.2526 -66.43Z" fill="url(#paint2_linear_5481_122523)"/>
<path d="M-47.8586 45.9177C-32.3701 45.9177 -18.3401 52.1863 -8.18231 62.2992C12.1334 82.5597 28.9763 82.577 49.2919 62.3512C59.4498 52.1863 73.4971 45.9004 89.003 45.9004C119.997 45.9177 145.105 70.9575 145.105 101.868C145.105 132.778 119.997 157.8 89.003 157.8C73.4624 157.8 59.415 151.497 49.2572 141.332C28.9589 121.141 12.1334 121.158 -8.18231 141.419C-18.3401 151.549 -32.3701 157.8 -47.8586 157.8C-78.8357 157.8 -103.944 132.761 -103.944 101.868C-103.944 70.9749 -78.8357 45.9177 -47.8586 45.9177Z" fill="url(#paint3_linear_5481_122523)"/>
</g>
</g>

</svg>
