<svg width="160" height="160" viewBox="0 0 160 160" xmlns="http://www.w3.org/2000/svg">
  <defs>
<radialGradient id="paint0_radial_5481_122170" cx="0" cy="0" r="1" gradientUnits="userSpaceOnUse" gradientTransform="translate(129.774 101.839) rotate(90) scale(178.298 189.141)">
<stop offset="0.0885417" stop-color="#EB1000"/>
<stop offset="1" stop-color="#EB1000" stop-opacity="0"/>
</radialGradient>
<linearGradient id="paint1_linear_5481_122170" x1="107.785" y1="16.6832" x2="37.4466" y2="113.425" gradientUnits="userSpaceOnUse">
<stop stop-color="#FF4885"/>
<stop offset="1" stop-color="#FF4885" stop-opacity="0"/>
</linearGradient>
<linearGradient id="paint2_linear_5481_122170" x1="61.5653" y1="-26.004" x2="74.605" y2="62.5252" gradientUnits="userSpaceOnUse">
<stop offset="0.15625" stop-color="#7A6AFD"/>
<stop offset="1" stop-color="#7A6AFD" stop-opacity="0"/>
</linearGradient>
<linearGradient id="paint3_linear_5481_122170" x1="-107.301" y1="151.51" x2="137.787" y2="100.127" gradientUnits="userSpaceOnUse">
<stop stop-color="#30A7FE" stop-opacity="0"/>
<stop offset="0.432292" stop-color="#30A7FE" stop-opacity="0.994652"/>
<stop offset="0.609375" stop-color="#30A7FE"/>
<stop offset="1" stop-color="#30A7FE" stop-opacity="0"/>
</linearGradient>
<clipPath id="clip0_5481_122170">
<rect x="13" y="20.6543" width="131" height="123.491" rx="10" fill="white"/>
</clipPath>
</defs>
<clipPath id="mask0_5481_122170">
<path fill-rule="evenodd" d="M116.85 50.4492C116.85 63.9802 106.552 74.9492 93.8496 74.9492C81.1471 74.9492 70.8496 63.9802 70.8496 50.4492C70.8496 36.9182 81.1471 25.9492 93.8496 25.9492C106.552 25.9492 116.85 36.9182 116.85 50.4492ZM72.5904 74.0792C70.5504 74.7092 68.3904 75.0592 66.1504 75.0592C53.4504 75.0592 43.1504 64.0892 43.1504 50.5592C43.1504 37.0292 53.4504 26.0592 66.1504 26.0592C68.3204 26.0592 70.4304 26.3892 72.4204 26.9892C66.5204 32.9092 62.8404 41.1492 62.8404 50.4492C62.8404 59.7492 66.5904 68.1492 72.5904 74.0792ZM40.0701 122.469C43.3201 107.379 52.7201 94.7692 65.2601 87.0692C43.2201 87.4892 24.6801 103.389 20.1901 124.259C19.1101 129.279 22.8601 134.039 28.0001 134.039H41.9401C39.9001 130.579 39.2001 126.479 40.0701 122.469ZM93.8396 86.9492C116.27 86.9492 135.25 103.009 139.8 124.159C140.88 129.179 137.13 133.939 131.99 133.939H55.6896C50.5496 133.939 46.7996 129.179 47.8796 124.159C52.4296 103.009 71.4096 86.9492 93.8396 86.9492Z" fill="white"/>
</clipPath>
<g clip-path="url(#mask0_5481_122170)">
<g clip-path="url(#clip0_5481_122170)">
<rect x="13" y="20.6543" width="131" height="123.491" rx="10" fill="#D9F4FD"/>
<ellipse cx="129.774" cy="101.839" rx="189.141" ry="178.298" fill="url(#paint0_radial_5481_122170)"/>
<path d="M1.20997 59.3329C-0.892543 16.6491 34.1093 -19.5597 79.3887 -21.5417C124.668 -23.5236 163.079 9.47171 165.181 52.1555C167.284 94.8394 132.282 131.048 87.0026 133.03C41.7231 135.012 3.31247 102.017 1.20997 59.3329Z" fill="url(#paint1_linear_5481_122170)"/>
<path d="M46.0947 -64.7986C35.8803 -70.757 22.9386 -70.7935 12.6862 -64.8928L-89.8563 -5.87271C-99.899 -0.0923241 -99.9158 13.5515 -89.8867 19.3538L11.9782 78.2902C22.2153 84.2121 35.157 84.2051 45.3852 78.2691L147.04 19.2775C157.016 13.4877 157.034 -0.0799501 147.071 -5.89166L46.0947 -64.7986Z" fill="url(#paint2_linear_5481_122170)"/>
<path d="M-52.3047 79.7215C-31.1693 79.7215 -12.0241 87.7852 1.83711 100.794C29.5596 126.856 52.5432 126.879 80.2657 100.861C94.127 87.7852 113.296 79.6992 134.455 79.6992C176.75 79.7215 211.012 111.932 211.012 151.693C211.012 191.455 176.75 223.643 134.455 223.643C113.248 223.643 94.0796 215.535 80.2183 202.459C52.5195 176.486 29.5596 176.508 1.83711 202.571C-12.0241 215.602 -31.1693 223.643 -52.3047 223.643C-94.5756 223.643 -128.838 191.433 -128.838 151.693C-128.838 111.954 -94.5756 79.7215 -52.3047 79.7215Z" fill="url(#paint3_linear_5481_122170)"/>
</g>
</g>

</svg>
