<svg width="96" height="96" viewBox="0 0 96 96" xmlns="http://www.w3.org/2000/svg">
  <defs>
<radialGradient id="paint0_radial_5481_122507" cx="0" cy="0" r="1" gradientUnits="userSpaceOnUse" gradientTransform="translate(80.4161 60.8848) rotate(90) scale(120.537)">
<stop offset="0.0885417" stop-color="#EB1000"/>
<stop offset="1" stop-color="#EB1000" stop-opacity="0"/>
</radialGradient>
<linearGradient id="paint1_linear_5481_122507" x1="66.4063" y1="3.31564" x2="18.0579" y2="66.0005" gradientUnits="userSpaceOnUse">
<stop stop-color="#FF4885"/>
<stop offset="1" stop-color="#FF4885" stop-opacity="0"/>
</linearGradient>
<linearGradient id="paint2_linear_5481_122507" x1="36.9502" y1="-25.5415" x2="46.2768" y2="34.1491" gradientUnits="userSpaceOnUse">
<stop offset="0.15625" stop-color="#7A6AFD"/>
<stop offset="1" stop-color="#7A6AFD" stop-opacity="0"/>
</linearGradient>
<linearGradient id="paint3_linear_5481_122507" x1="-70.6653" y1="94.4631" x2="86.2618" y2="63.4489" gradientUnits="userSpaceOnUse">
<stop stop-color="#30A7FE" stop-opacity="0"/>
<stop offset="0.432292" stop-color="#30A7FE" stop-opacity="0.994652"/>
<stop offset="0.609375" stop-color="#30A7FE"/>
<stop offset="1" stop-color="#30A7FE" stop-opacity="0"/>
</linearGradient>
<clipPath id="clip0_5481_122507">
<rect x="6" y="6" width="83.485" height="83.485" rx="10" fill="white"/>
</clipPath>
</defs>
<clipPath id="mask0_5481_122507">
<path fill-rule="evenodd" d="M21.6 20.5C16.2981 20.5 12 24.7981 12 30.1V66.1C12 71.4019 16.2981 75.7 21.6 75.7H74.4C79.7019 75.7 84 71.4019 84 66.1V30.1C84 24.7981 79.7019 20.5 74.4 20.5H21.6ZM19.2 31.9C19.2 31.2373 19.7373 30.7 20.4 30.7H24.6C25.2627 30.7 25.8 31.2373 25.8 31.9V34.9C25.8 35.5627 25.2627 36.1 24.6 36.1H20.4C19.7373 36.1 19.2 35.5627 19.2 34.9V31.9ZM19.2 61.3C19.2 60.6373 19.7373 60.1 20.4 60.1H24.6C25.2627 60.1 25.8 60.6373 25.8 61.3V64.3C25.8 64.9627 25.2627 65.5 24.6 65.5H20.4C19.7373 65.5 19.2 64.9627 19.2 64.3V61.3ZM29.4 31.9C29.4 31.2373 29.9373 30.7 30.6 30.7H34.8C35.4627 30.7 36 31.2373 36 31.9V34.9C36 35.5627 35.4627 36.1 34.8 36.1H30.6C29.9373 36.1 29.4 35.5627 29.4 34.9V31.9ZM29.4 61.3C29.4 60.6373 29.9373 60.1 30.6 60.1H34.8C35.4627 60.1 36 60.6373 36 61.3V64.3C36 64.9627 35.4627 65.5 34.8 65.5H30.6C29.9373 65.5 29.4 64.9627 29.4 64.3V61.3ZM39.6 31.9C39.6 31.2373 40.1373 30.7 40.8 30.7H45C45.6627 30.7 46.2 31.2373 46.2 31.9V34.9C46.2 35.5627 45.6627 36.1 45 36.1H40.8C40.1373 36.1 39.6 35.5627 39.6 34.9V31.9ZM39.6 61.3C39.6 60.6373 40.1373 60.1 40.8 60.1H45C45.6627 60.1 46.2 60.6373 46.2 61.3V64.3C46.2 64.9627 45.6627 65.5 45 65.5H40.8C40.1373 65.5 39.6 64.9627 39.6 64.3V61.3ZM49.8 31.9C49.8 31.2373 50.3373 30.7 51 30.7H55.2C55.8627 30.7 56.4 31.2373 56.4 31.9V34.9C56.4 35.5627 55.8627 36.1 55.2 36.1H51C50.3373 36.1 49.8 35.5627 49.8 34.9V31.9ZM49.8 61.3C49.8 60.6373 50.3373 60.1 51 60.1H55.2C55.8627 60.1 56.4 60.6373 56.4 61.3V64.3C56.4 64.9627 55.8627 65.5 55.2 65.5H51C50.3373 65.5 49.8 64.9627 49.8 64.3V61.3ZM60 31.9C60 31.2373 60.5373 30.7 61.2 30.7H65.4C66.0627 30.7 66.6 31.2373 66.6 31.9V34.9C66.6 35.5627 66.0627 36.1 65.4 36.1H61.2C60.5373 36.1 60 35.5627 60 34.9V31.9ZM60 61.3C60 60.6373 60.5373 60.1 61.2 60.1H65.4C66.0627 60.1 66.6 60.6373 66.6 61.3V64.3C66.6 64.9627 66.0627 65.5 65.4 65.5H61.2C60.5373 65.5 60 64.9627 60 64.3V61.3ZM70.2 31.9C70.2 31.2373 70.7373 30.7 71.4 30.7H75.6C76.2627 30.7 76.8 31.2373 76.8 31.9V34.9C76.8 35.5627 76.2627 36.1 75.6 36.1H71.4C70.7373 36.1 70.2 35.5627 70.2 34.9V31.9ZM70.2 61.3C70.2 60.6373 70.7373 60.1 71.4 60.1H75.6C76.2627 60.1 76.8 60.6373 76.8 61.3V64.3C76.8 64.9627 76.2627 65.5 75.6 65.5H71.4C70.7373 65.5 70.2 64.9627 70.2 64.3V61.3Z" fill="white"/>
</clipPath>
<g clip-path="url(#mask0_5481_122507)">
<g clip-path="url(#clip0_5481_122507)">
<rect x="6" y="6" width="83.485" height="83.485" rx="10" fill="#D9F4FD"/>
<circle cx="80.4161" cy="60.8848" r="120.537" fill="url(#paint0_radial_5481_122507)"/>
<path d="M-1.51297 32.1486C-2.85287 3.29258 19.4534 -21.1861 48.3094 -22.526C77.1655 -23.8659 101.644 -1.55964 102.984 27.2964C104.324 56.1525 82.0177 80.6311 53.1616 81.971C24.3056 83.3109 -0.173066 61.0047 -1.51297 32.1486Z" fill="url(#paint1_linear_5481_122507)"/>
<path d="M27.091 -51.7683C20.5814 -55.7964 12.3339 -55.821 5.80015 -51.8319L-59.5489 -11.9319C-65.9491 -8.0241 -65.9597 1.19973 -59.5683 5.12228L5.34897 44.9658C11.8729 48.9693 20.1205 48.9645 26.6388 44.9515L91.4224 5.07073C97.78 1.15654 97.7916 -8.01573 91.4418 -11.9447L27.091 -51.7683Z" fill="url(#paint2_linear_5481_122507)"/>
<path d="M-35.617 45.9311C-22.1476 45.9311 -9.94668 51.3825 -1.11306 60.177C16.5542 77.7962 31.2013 77.8113 48.8686 60.2222C57.7022 51.3825 69.9182 45.916 83.4027 45.916C110.357 45.9311 132.191 67.7066 132.191 94.5872C132.191 121.468 110.357 143.228 83.4027 143.228C69.888 143.228 57.672 137.747 48.8384 128.907C31.1862 111.348 16.5542 111.363 -1.11306 128.982C-9.94668 137.792 -22.1476 143.228 -35.617 143.228C-62.5557 143.228 -84.3906 121.453 -84.3906 94.5872C-84.3906 67.7217 -62.5557 45.9311 -35.617 45.9311Z" fill="url(#paint3_linear_5481_122507)"/>
</g>
</g>

</svg>
