<svg width="160" height="160" viewBox="0 0 160 160" xmlns="http://www.w3.org/2000/svg">
  <defs>
<radialGradient id="paint0_radial_5481_122223" cx="0" cy="0" r="1" gradientUnits="userSpaceOnUse" gradientTransform="translate(142.62 105.187) rotate(90) scale(231.011)">
<stop offset="0.0885417" stop-color="#EB1000"/>
<stop offset="1" stop-color="#EB1000" stop-opacity="0"/>
</radialGradient>
<linearGradient id="paint1_linear_5481_122223" x1="115.768" y1="-5.14512" x2="23.108" y2="114.991" gradientUnits="userSpaceOnUse">
<stop stop-color="#FF4885"/>
<stop offset="1" stop-color="#FF4885" stop-opacity="0"/>
</linearGradient>
<linearGradient id="paint2_linear_5481_122223" x1="59.3137" y1="-60.4521" x2="77.1884" y2="53.9458" gradientUnits="userSpaceOnUse">
<stop offset="0.15625" stop-color="#7A6AFD"/>
<stop offset="1" stop-color="#7A6AFD" stop-opacity="0"/>
</linearGradient>
<linearGradient id="paint3_linear_5481_122223" x1="-146.934" y1="169.541" x2="153.819" y2="110.102" gradientUnits="userSpaceOnUse">
<stop stop-color="#30A7FE" stop-opacity="0"/>
<stop offset="0.432292" stop-color="#30A7FE" stop-opacity="0.994652"/>
<stop offset="0.609375" stop-color="#30A7FE"/>
<stop offset="1" stop-color="#30A7FE" stop-opacity="0"/>
</linearGradient>
<clipPath id="clip0_5481_122223">
<rect width="160" height="160" rx="10" fill="white"/>
</clipPath>
</defs>
<clipPath id="mask0_5481_122223">
<path fill-rule="evenodd" d="M33.1163 43.0311C37.7578 40.4879 42.3763 37.9367 45.7207 36.0462C48.7361 34.3415 52.7519 34.2225 55.7785 35.9074L76.0476 47.1915C78.4671 48.5385 81.411 48.5384 83.8304 47.1915L105.282 35.2485C107.701 33.9015 110.645 33.9015 113.065 35.2485L127.009 43.0114C129.762 44.5442 131.131 47.2969 131.117 50.0433L79.9386 78.6149L28.9382 50.1427C28.9202 47.359 30.316 44.5655 33.1163 43.0311ZM28.8789 59.2719V86.5322C28.8789 91.9521 31.6227 97.0036 36.1692 99.9539L75.9386 125.761V85.5441L28.8789 59.2719ZM83.9386 125.715L123.808 99.9507C128.369 97.0032 131.123 91.9432 131.123 86.5125V59.202L83.9386 85.5441V125.715Z" fill="white"/>
</clipPath>
<g clip-path="url(#mask0_5481_122223)">
<g clip-path="url(#clip0_5481_122223)">
<rect width="160" height="160" rx="10" fill="#D9F4FD"/>
<circle cx="142.62" cy="105.187" r="231.011" fill="url(#paint0_radial_5481_122223)"/>
<path d="M-14.3999 50.1137C-16.9679 -5.18932 25.7823 -52.103 81.0853 -54.6709C136.388 -57.2388 183.302 -14.4887 185.87 40.8143C188.438 96.1173 145.688 143.031 90.3846 145.599C35.0817 148.167 -11.832 105.417 -14.3999 50.1137Z" fill="url(#paint1_linear_5481_122223)"/>
<path d="M40.4184 -110.716C27.9428 -118.436 12.1362 -118.483 -0.385738 -110.838L-125.628 -34.3691C-137.894 -26.8797 -137.914 -9.20217 -125.665 -1.68455L-1.25042 74.676C11.2528 82.3487 27.0594 82.3396 39.5518 74.6486L163.71 -1.78335C175.895 -9.28493 175.917 -26.8637 163.748 -34.3936L40.4184 -110.716Z" fill="url(#paint2_linear_5481_122223)"/>
<path d="M-79.7631 76.5289C-53.9489 76.5289 -30.5656 86.9766 -13.6359 103.831C20.2235 137.599 48.2951 137.628 82.1545 103.918C99.0842 86.9766 122.496 76.5 148.34 76.5C199.997 76.5289 241.844 118.262 241.844 169.779C241.844 221.296 199.997 263 148.34 263C122.439 263 99.0263 252.495 82.0966 235.553C48.2661 201.901 20.2235 201.93 -13.6359 235.697C-30.5656 252.581 -53.9489 263 -79.7631 263C-131.392 263 -173.238 221.267 -173.238 169.779C-173.238 118.291 -131.392 76.5289 -79.7631 76.5289Z" fill="url(#paint3_linear_5481_122223)"/>
</g>
</g>

</svg>
