<svg width="48" height="48" viewBox="0 0 48 48" xmlns="http://www.w3.org/2000/svg">
  <defs>
<radialGradient id="paint0_radial_5481_122426" cx="0" cy="0" r="1" gradientUnits="userSpaceOnUse" gradientTransform="translate(42.7877 31.5552) rotate(90) scale(69.3033)">
<stop offset="0.0885417" stop-color="#EB1000"/>
<stop offset="1" stop-color="#EB1000" stop-opacity="0"/>
</radialGradient>
<linearGradient id="paint1_linear_5481_122426" x1="34.7309" y1="-1.54315" x2="6.93278" y2="34.4977" gradientUnits="userSpaceOnUse">
<stop stop-color="#FF4885"/>
<stop offset="1" stop-color="#FF4885" stop-opacity="0"/>
</linearGradient>
<linearGradient id="paint2_linear_5481_122426" x1="17.7929" y1="-18.1348" x2="23.1553" y2="16.1845" gradientUnits="userSpaceOnUse">
<stop offset="0.15625" stop-color="#7A6AFD"/>
<stop offset="1" stop-color="#7A6AFD" stop-opacity="0"/>
</linearGradient>
<linearGradient id="paint3_linear_5481_122426" x1="-44.0785" y1="50.8616" x2="46.1473" y2="33.0298" gradientUnits="userSpaceOnUse">
<stop stop-color="#30A7FE" stop-opacity="0"/>
<stop offset="0.432292" stop-color="#30A7FE" stop-opacity="0.994652"/>
<stop offset="0.609375" stop-color="#30A7FE"/>
<stop offset="1" stop-color="#30A7FE" stop-opacity="0"/>
</linearGradient>
<clipPath id="clip0_5481_122426">
<rect width="48" height="48" rx="10" fill="white"/>
</clipPath>
</defs>
<clipPath id="mask0_5481_122426">
<path fill-rule="evenodd" d="M21.5496 22.0528C22.2399 22.0512 22.7983 21.4903 22.7967 20.7999L22.7794 13.294C22.7778 12.6036 22.2169 12.0453 21.5265 12.0469C20.8362 12.0485 20.2778 12.6094 20.2794 13.2998L20.2897 17.7546C18.2822 15.6851 15.4697 14.3967 12.356 14.3967C6.25255 14.3967 1.30469 19.3445 1.30469 25.448C1.30469 31.5515 6.25255 36.4994 12.356 36.4994C14.8878 36.4994 17.2239 35.6465 19.0878 34.2131C19.1167 34.1908 19.1444 34.1676 19.1708 34.1435C19.1824 34.135 19.1939 34.1263 19.2053 34.1173C20.5777 33.0398 21.8533 31.4775 22.8488 30.0506C23.8491 28.6169 24.6332 27.2231 25.0013 26.4109C25.2861 25.7824 25.9916 24.2878 26.9248 22.7186C27.7285 21.3672 28.6416 20.0634 29.5426 19.1869C29.5712 19.1651 29.599 19.1419 29.6261 19.1173C31.1455 17.7366 33.1607 16.8967 35.3749 16.8967C40.0977 16.8967 43.9263 20.7252 43.9263 25.448C43.9263 30.1708 40.0977 33.9994 35.3749 33.9994C32.487 33.9994 29.933 32.569 28.3828 30.3724C27.9847 29.8084 27.2048 29.6738 26.6407 30.0719C26.0767 30.47 25.9421 31.2499 26.3402 31.8139C28.3388 34.6457 31.6403 36.4994 35.3749 36.4994C41.4784 36.4994 46.4263 31.5515 46.4263 25.448C46.4263 19.3445 41.4784 14.3967 35.3749 14.3967C32.8482 14.3967 30.5177 15.2459 28.6562 16.673C28.6015 16.7039 28.5486 16.7395 28.4977 16.7795C27.0555 17.9169 25.754 19.7963 24.7761 21.4407C23.7775 23.1199 23.0291 24.7061 22.7242 25.379C22.4334 26.0207 21.7331 27.2806 20.7985 28.6201C19.8592 29.9664 18.7495 31.2967 17.6614 32.151C17.6361 32.1708 17.6118 32.1915 17.5885 32.2128C17.5802 32.2189 17.572 32.225 17.5638 32.2313C16.1215 33.3405 14.3175 33.9994 12.356 33.9994C7.63326 33.9994 3.80469 30.1708 3.80469 25.448C3.80469 20.7252 7.63326 16.8967 12.356 16.8967C14.7962 16.8967 16.998 17.9179 18.5573 19.5597L14.0379 19.5701C13.3475 19.5717 12.7892 20.1326 12.7908 20.823C12.7924 21.5133 13.3533 22.0717 14.0436 22.0701L21.5496 22.0528Z" fill="white"/>
</clipPath>
<g clip-path="url(#mask0_5481_122426)">
<g clip-path="url(#clip0_5481_122426)">
<rect width="48" height="48" rx="10" fill="#D9F4FD"/>
<circle cx="42.7877" cy="31.5552" r="69.3033" fill="url(#paint0_radial_5481_122426)"/>
<path d="M-4.31959 15.0345C-5.08998 -1.55641 7.73508 -15.6305 24.326 -16.4009C40.9169 -17.1713 54.991 -4.34621 55.7613 12.2447C56.5317 28.8356 43.7067 42.9097 27.1158 43.6801C10.5249 44.4504 -3.54921 31.6254 -4.31959 15.0345Z" fill="url(#paint1_linear_5481_122426)"/>
<path d="M12.1243 -33.214C8.38167 -35.53 3.6397 -35.5442 -0.116893 -33.2506L-37.6896 -10.3099C-41.3694 -8.06314 -41.3755 -2.75987 -37.7007 -0.504581L-0.376298 22.4036C3.37467 24.7054 8.11665 24.7027 11.8644 22.3954L49.1119 -0.534222C52.7672 -2.7847 52.7739 -8.05833 49.1231 -10.3173L12.1243 -33.214Z" fill="url(#paint2_linear_5481_122426)"/>
<path d="M-23.9274 22.9579C-16.1831 22.9579 -9.16812 26.0922 -4.0892 31.1486C6.06863 41.2789 14.4901 41.2875 24.6479 31.1746C29.7268 26.0922 36.7505 22.9492 44.5034 22.9492C60.0006 22.9579 72.5547 35.4778 72.5547 50.9329C72.5547 66.388 60.0006 78.8992 44.5034 78.8992C36.7331 78.8992 29.7095 75.7476 24.6306 70.6652C14.4814 60.5696 6.06863 60.5782 -4.0892 70.7085C-9.16812 75.7736 -16.1831 78.8992 -23.9274 78.8992C-39.4159 78.8992 -51.9699 66.3793 -51.9699 50.9329C-51.9699 35.4865 -39.4159 22.9579 -23.9274 22.9579Z" fill="url(#paint3_linear_5481_122426)"/>
</g>
</g>

</svg>
