<svg width="96" height="96" viewBox="0 0 96 96" xmlns="http://www.w3.org/2000/svg">
  <defs>
<radialGradient id="paint0_radial_5481_122504" cx="0" cy="0" r="1" gradientUnits="userSpaceOnUse" gradientTransform="translate(78.461 59.5122) rotate(90) scale(106.979 113.484)">
<stop offset="0.0885417" stop-color="#EB1000"/>
<stop offset="1" stop-color="#EB1000" stop-opacity="0"/>
</radialGradient>
<linearGradient id="paint1_linear_5481_122504" x1="65.2705" y1="8.41735" x2="23.0672" y2="66.4624" gradientUnits="userSpaceOnUse">
<stop stop-color="#FF4885"/>
<stop offset="1" stop-color="#FF4885" stop-opacity="0"/>
</linearGradient>
<linearGradient id="paint2_linear_5481_122504" x1="37.5384" y1="-17.1946" x2="45.3622" y2="35.9229" gradientUnits="userSpaceOnUse">
<stop offset="0.15625" stop-color="#7A6AFD"/>
<stop offset="1" stop-color="#7A6AFD" stop-opacity="0"/>
</linearGradient>
<linearGradient id="paint3_linear_5481_122504" x1="-63.7843" y1="89.313" x2="83.2682" y2="58.483" gradientUnits="userSpaceOnUse">
<stop stop-color="#30A7FE" stop-opacity="0"/>
<stop offset="0.432292" stop-color="#30A7FE" stop-opacity="0.994652"/>
<stop offset="0.609375" stop-color="#30A7FE"/>
<stop offset="1" stop-color="#30A7FE" stop-opacity="0"/>
</linearGradient>
<clipPath id="clip0_5481_122504">
<rect x="8.39844" y="10.8008" width="78.6002" height="74.0945" rx="10" fill="white"/>
</clipPath>
</defs>
<clipPath id="mask0_5481_122504">
<path fill-rule="evenodd" d="M27.45 15.6367H68.55C72.528 15.6367 75.75 18.8587 75.75 22.8367V52.6147C75.75 67.9447 63.33 80.3647 48 80.3647C32.67 80.3647 20.25 67.9387 20.25 52.6147V22.8367C20.25 18.8587 23.472 15.6367 27.45 15.6367ZM29.898 55.0867C30.2751 55.3082 30.688 55.4102 31.095 55.4107C31.9279 55.4097 32.7305 54.9778 33.174 54.2107L41.55 39.7027C42.216 38.5567 41.82 37.0867 40.674 36.4267C39.528 35.7607 38.058 36.1567 37.398 37.3027L29.022 51.8107C28.356 52.9567 28.752 54.4267 29.898 55.0867ZM61.41 55.4107C63.144 55.4107 64.698 54.5107 65.568 53.0107C66.438 51.5047 66.438 49.7107 65.568 48.2107L58.026 35.1487C57.156 33.6487 55.602 32.7487 53.868 32.7487C52.134 32.7487 50.58 33.6487 49.71 35.1487L42.168 48.2107C41.298 49.7107 41.298 51.5107 42.168 53.0107C43.038 54.5107 44.592 55.4107 46.326 55.4107H61.41ZM53.8686 37.5427L61.4106 50.6107H46.3266L53.8686 37.5427Z" fill="white"/>
</clipPath>
<g clip-path="url(#mask0_5481_122504)">
<g clip-path="url(#clip0_5481_122504)">
<rect x="8.39844" y="10.8008" width="78.6002" height="74.0945" rx="10" fill="#D9F4FD"/>
<ellipse cx="78.461" cy="59.5122" rx="113.484" ry="106.979" fill="url(#paint0_radial_5481_122504)"/>
<path d="M1.32519 34.0072C0.0636832 8.39689 21.0648 -13.3284 48.2325 -14.5176C75.4001 -15.7068 98.4465 4.09045 99.708 29.7007C100.97 55.311 79.9684 77.0363 52.8008 78.2255C25.6331 79.4147 2.58669 59.6175 1.32519 34.0072Z" fill="url(#paint1_linear_5481_122504)"/>
<path d="M28.256 -40.4714C22.1274 -44.0464 14.3624 -44.0683 8.21094 -40.5279L-53.3145 -5.11581C-59.3402 -1.64758 -59.3503 6.53874 -53.3328 10.0201L7.78616 45.3819C13.9284 48.9351 21.6934 48.9309 27.8303 45.3693L88.8234 9.97433C94.809 6.50041 94.8199 -1.64015 88.8416 -5.12718L28.256 -40.4714Z" fill="url(#paint2_linear_5481_122504)"/>
<path d="M-30.7867 46.2399C-18.1055 46.2399 -6.6184 51.0782 1.69836 58.8835C18.3319 74.5208 32.122 74.5342 48.7555 58.9236C57.0723 51.0782 68.5736 46.2266 81.2691 46.2266C106.646 46.2399 127.203 65.5661 127.203 89.4231C127.203 113.28 106.646 132.593 81.2691 132.593C68.5451 132.593 57.0439 127.728 48.7271 119.883C32.1078 104.299 18.3319 104.312 1.69836 119.949C-6.6184 127.768 -18.1055 132.593 -30.7867 132.593C-56.1493 132.593 -76.7066 113.267 -76.7066 89.4231C-76.7066 65.5795 -56.1493 46.2399 -30.7867 46.2399Z" fill="url(#paint3_linear_5481_122504)"/>
</g>
</g>

</svg>
