<svg width="96" height="96" viewBox="0 0 96 96" xmlns="http://www.w3.org/2000/svg">
  <defs>
<radialGradient id="paint0_radial_5481_122548" cx="0" cy="0" r="1" gradientUnits="userSpaceOnUse" gradientTransform="translate(85.5714 63.1124) rotate(90) scale(138.607)">
<stop offset="0.0885417" stop-color="#EB1000"/>
<stop offset="1" stop-color="#EB1000" stop-opacity="0"/>
</radialGradient>
<linearGradient id="paint1_linear_5481_122548" x1="69.4617" y1="-3.08825" x2="13.8656" y2="68.9935" gradientUnits="userSpaceOnUse">
<stop stop-color="#FF4885"/>
<stop offset="1" stop-color="#FF4885" stop-opacity="0"/>
</linearGradient>
<linearGradient id="paint2_linear_5481_122548" x1="35.5898" y1="-36.2716" x2="46.3146" y2="32.3671" gradientUnits="userSpaceOnUse">
<stop offset="0.15625" stop-color="#7A6AFD"/>
<stop offset="1" stop-color="#7A6AFD" stop-opacity="0"/>
</linearGradient>
<linearGradient id="paint3_linear_5481_122548" x1="-88.1609" y1="101.725" x2="92.2907" y2="66.0615" gradientUnits="userSpaceOnUse">
<stop stop-color="#30A7FE" stop-opacity="0"/>
<stop offset="0.432292" stop-color="#30A7FE" stop-opacity="0.994652"/>
<stop offset="0.609375" stop-color="#30A7FE"/>
<stop offset="1" stop-color="#30A7FE" stop-opacity="0"/>
</linearGradient>
<clipPath id="clip0_5481_122548">
<rect width="96" height="96" rx="10" fill="white"/>
</clipPath>
</defs>
<clipPath id="mask0_5481_122548">
<path fill-rule="evenodd" d="M59.3121 14.8466C60.3571 15.2044 60.9143 16.3416 60.5565 17.3866L51.7083 43.233L78.348 34.161C79.3936 33.8049 80.5299 34.3639 80.8859 35.4095C81.242 36.4551 80.683 37.5914 79.6374 37.9474L50.861 47.7471C50.85 47.8264 50.8342 47.9059 50.8134 47.9853C50.626 48.6974 50.4601 49.4157 50.2911 50.1475L50.2911 50.1477C49.7855 52.3366 49.2519 54.6465 48.034 57.2754C47.7064 57.9825 47.3354 58.7022 46.9419 59.4122C47.2795 59.3809 47.6214 59.3649 47.9671 59.3649C54.0136 59.3649 58.9152 64.2665 58.9152 70.313C58.9152 76.3594 54.0136 81.261 47.9671 81.261C41.9207 81.261 37.019 76.3594 37.019 70.313C37.019 67.9325 37.7788 65.7295 39.069 63.9332C39.1392 63.8152 39.2227 63.7028 39.3196 63.5979C39.4702 63.4042 39.6272 63.2157 39.7902 63.0328C40.874 61.6519 43.0626 58.4904 44.4046 55.5939C45.4344 53.3709 45.8429 51.6048 46.3212 49.5369L46.3213 49.5367L46.4104 49.1519C45.342 49.5356 44.1958 49.9837 42.7508 50.5789C41.0639 51.2737 39.1037 52.3714 37.4107 53.4263C35.7005 54.492 34.4041 55.4252 34.0252 55.7471C33.9442 55.8158 33.8593 55.877 33.7715 55.9307C31.7847 57.9559 29.017 59.2122 25.9559 59.2122C19.9094 59.2122 15.0078 54.3106 15.0078 48.2641C15.0078 42.2177 19.9094 37.316 25.9559 37.316C32.0023 37.316 36.904 42.2177 36.904 48.2641C36.904 48.5391 36.8938 48.8116 36.8739 49.0815C38.2765 48.268 39.8012 47.4677 41.2274 46.8803C43.5884 45.9079 45.2151 45.301 46.9647 44.7394L56.7721 16.0911C57.1299 15.046 58.2671 14.4889 59.3121 14.8466ZM42.4078 66.1446C41.5358 67.3058 41.019 68.749 41.019 70.313C41.019 74.1503 44.1298 77.261 47.9671 77.261C51.8044 77.261 54.9152 74.1503 54.9152 70.313C54.9152 66.4756 51.8044 63.3649 47.9671 63.3649C45.9319 63.3649 44.1011 64.2399 42.8303 65.6343C42.6727 65.8322 42.5307 66.0035 42.4078 66.1446ZM25.9559 41.316C22.1186 41.316 19.0078 44.4268 19.0078 48.2641C19.0078 52.1014 22.1186 55.2122 25.9559 55.2122C29.7932 55.2122 32.904 52.1014 32.904 48.2641C32.904 44.4268 29.7932 41.316 25.9559 41.316Z" fill="white"/>
</clipPath>
<g clip-path="url(#mask0_5481_122548)">
<g clip-path="url(#clip0_5481_122548)">
<rect width="96" height="96" rx="10" fill="#D9F4FD"/>
<circle cx="85.5714" cy="63.1124" r="138.607" fill="url(#paint0_radial_5481_122548)"/>
<path d="M-8.63919 30.067C-10.18 -3.11477 15.4702 -31.263 48.652 -32.8037C81.8337 -34.3445 109.982 -8.69438 111.523 24.4874C113.063 57.6692 87.4133 85.8174 54.2316 87.3582C21.0498 88.8989 -7.09842 63.2488 -8.63919 30.067Z" fill="url(#paint1_linear_5481_122548)"/>
<path d="M24.2526 -66.43C16.7672 -71.0619 7.28331 -71.0903 -0.22988 -66.5032L-75.3753 -20.6218C-82.7348 -16.1282 -82.7471 -5.52169 -75.3976 -1.01111L-0.748691 44.8052C6.75324 49.4089 16.2372 49.4034 23.7327 44.7888L98.2278 -1.0704C105.538 -5.57135 105.552 -16.1186 98.2501 -20.6366L24.2526 -66.43Z" fill="url(#paint2_linear_5481_122548)"/>
<path d="M-47.8586 45.9177C-32.3701 45.9177 -18.3401 52.1863 -8.18231 62.2992C12.1334 82.5597 28.9763 82.577 49.2919 62.3512C59.4498 52.1863 73.4971 45.9004 89.003 45.9004C119.997 45.9177 145.105 70.9575 145.105 101.868C145.105 132.778 119.997 157.8 89.003 157.8C73.4624 157.8 59.415 151.497 49.2572 141.332C28.9589 121.141 12.1334 121.158 -8.18231 141.419C-18.3401 151.549 -32.3701 157.8 -47.8586 157.8C-78.8357 157.8 -103.944 132.761 -103.944 101.868C-103.944 70.9749 -78.8357 45.9177 -47.8586 45.9177Z" fill="url(#paint3_linear_5481_122548)"/>
</g>
</g>

</svg>
