<svg width="48" height="48" viewBox="0 0 48 48" xmlns="http://www.w3.org/2000/svg">
  <defs>
<radialGradient id="paint0_radial_5481_122346" cx="0" cy="0" r="1" gradientUnits="userSpaceOnUse" gradientTransform="translate(42.7877 31.5552) rotate(90) scale(69.3033)">
<stop offset="0.0885417" stop-color="#EB1000"/>
<stop offset="1" stop-color="#EB1000" stop-opacity="0"/>
</radialGradient>
<linearGradient id="paint1_linear_5481_122346" x1="34.7309" y1="-1.54315" x2="6.93278" y2="34.4977" gradientUnits="userSpaceOnUse">
<stop stop-color="#FF4885"/>
<stop offset="1" stop-color="#FF4885" stop-opacity="0"/>
</linearGradient>
<linearGradient id="paint2_linear_5481_122346" x1="17.7929" y1="-18.1348" x2="23.1553" y2="16.1845" gradientUnits="userSpaceOnUse">
<stop offset="0.15625" stop-color="#7A6AFD"/>
<stop offset="1" stop-color="#7A6AFD" stop-opacity="0"/>
</linearGradient>
<linearGradient id="paint3_linear_5481_122346" x1="-44.0785" y1="50.8616" x2="46.1473" y2="33.0298" gradientUnits="userSpaceOnUse">
<stop stop-color="#30A7FE" stop-opacity="0"/>
<stop offset="0.432292" stop-color="#30A7FE" stop-opacity="0.994652"/>
<stop offset="0.609375" stop-color="#30A7FE"/>
<stop offset="1" stop-color="#30A7FE" stop-opacity="0"/>
</linearGradient>
<clipPath id="clip0_5481_122346">
<rect width="48" height="48" rx="10" fill="white"/>
</clipPath>
</defs>
<clipPath id="mask0_5481_122346">
<path d="M37.5223 6.51685C37.8002 6.19578 38.2825 5.92689 38.5795 6.01796L38.5819 6.02043C39.0594 6.02043 39.5203 6.27975 39.784 6.69467C40.0454 7.10465 40.0882 7.6233 39.9005 8.08514L38.2825 12.0442L40.6298 13.0765C41.0551 13.2618 41.3663 13.652 41.4661 14.1188C41.5659 14.5855 41.4424 15.077 41.1335 15.4327L35.0039 22.506C34.7283 22.8246 34.3529 23 33.9514 23C33.4739 23 33.013 22.7431 32.7493 22.3282C32.4879 21.9207 32.4428 21.3996 32.6305 20.9402L34.1961 17.08L31.8631 16.0353C31.4426 15.8476 31.1337 15.4574 31.0339 14.9931C30.9341 14.5287 31.0577 14.0422 31.3618 13.6865L37.5223 6.51685Z" fill="black"/>
<path fill-rule="evenodd" d="M27 38.375V32C27 29.7909 28.7909 28 31 28H41.75C43.9591 28 45.75 29.7909 45.75 32V38.375C45.75 40.5841 43.9591 42.375 41.75 42.375H31C28.7909 42.375 27 40.5841 27 38.375ZM39.0262 34.6294L35.3373 32.5236C34.9242 32.2878 34.407 32.5814 34.4065 33.0521L34.4014 37.255C34.4008 37.7257 34.9172 38.0205 35.3309 37.7856L39.0249 35.6885C39.4386 35.4536 39.4393 34.8653 39.0262 34.6294Z" fill="black"/>
<path fill-rule="evenodd" d="M3.5 17.375V11C3.5 8.79086 5.29086 7 7.5 7H18.5625C20.7716 7 22.5625 8.79086 22.5625 11V17.375C22.5625 17.9684 22.4333 18.5316 22.2015 19.038L20.0606 15.6977C18.7819 13.7027 15.8668 13.7027 14.5881 15.6977L14.1972 16.3076L12.5947 13.7815C11.3226 11.7763 8.39941 11.768 7.11592 13.7659L3.80759 18.9159C3.60944 18.4417 3.5 17.9211 3.5 17.375ZM19.25 11.5C19.9404 11.5 20.5 10.9404 20.5 10.25C20.5 9.55964 19.9404 9 19.25 9C18.5596 9 18 9.55964 18 10.25C18 10.9404 18.5596 11.5 19.25 11.5Z" fill="black"/>
<path d="M10.4836 15.1207L12.7093 18.6291L11.2525 20.9019C11.1574 21.0504 11.0976 21.2114 11.071 21.375H7.5C6.78438 21.375 6.11265 21.1871 5.53147 20.8579L9.21931 15.1171C9.5155 14.6561 10.1901 14.658 10.4836 15.1207Z" fill="black"/>
<path d="M13.9188 21.375H18.5625C19.2382 21.375 19.8748 21.2075 20.4329 20.9116L17.9558 17.0468C17.6607 16.5864 16.988 16.5864 16.6929 17.0468L13.9188 21.375Z" fill="black"/>
<path d="M4.88672 28C4.88672 27.3096 5.44636 26.75 6.13672 26.75H20.2098C20.9002 26.75 21.4598 27.3096 21.4598 27.9999L21.46 30.8146C21.46 31.5049 20.9004 32.0646 20.21 32.0646C19.5197 32.0647 18.96 31.505 18.96 30.8147L18.9599 29.25H14.4229V40.8232H15.9876C16.678 40.8232 17.2376 41.3829 17.2376 42.0732C17.2376 42.7636 16.678 43.3232 15.9876 43.3232H10.3584C9.66804 43.3232 9.1084 42.7636 9.1084 42.0732C9.1084 41.3829 9.66804 40.8232 10.3584 40.8232H11.9229V29.25H7.38672V30.8146C7.38672 31.505 6.82707 32.0646 6.13672 32.0646C5.44636 32.0646 4.88672 31.505 4.88672 30.8146V28Z" fill="black"/>
</clipPath>
<g clip-path="url(#mask0_5481_122346)">
<g clip-path="url(#clip0_5481_122346)">
<rect width="48" height="48" rx="10" fill="#D9F4FD"/>
<circle cx="42.7877" cy="31.5552" r="69.3033" fill="url(#paint0_radial_5481_122346)"/>
<path d="M-4.31959 15.0345C-5.08998 -1.55641 7.73508 -15.6305 24.326 -16.4009C40.9169 -17.1713 54.991 -4.34621 55.7613 12.2447C56.5317 28.8356 43.7067 42.9097 27.1158 43.6801C10.5249 44.4504 -3.54921 31.6254 -4.31959 15.0345Z" fill="url(#paint1_linear_5481_122346)"/>
<path d="M12.1243 -33.214C8.38167 -35.53 3.6397 -35.5442 -0.116893 -33.2506L-37.6896 -10.3099C-41.3694 -8.06314 -41.3755 -2.75987 -37.7007 -0.504581L-0.376298 22.4036C3.37467 24.7054 8.11665 24.7027 11.8644 22.3954L49.1119 -0.534222C52.7672 -2.7847 52.7739 -8.05833 49.1231 -10.3173L12.1243 -33.214Z" fill="url(#paint2_linear_5481_122346)"/>
<path d="M-23.9274 22.9579C-16.1831 22.9579 -9.16812 26.0922 -4.0892 31.1486C6.06863 41.2789 14.4901 41.2875 24.6479 31.1746C29.7268 26.0922 36.7505 22.9492 44.5034 22.9492C60.0006 22.9579 72.5547 35.4778 72.5547 50.9329C72.5547 66.388 60.0006 78.8992 44.5034 78.8992C36.7331 78.8992 29.7095 75.7476 24.6306 70.6652C14.4814 60.5696 6.06863 60.5782 -4.0892 70.7085C-9.16812 75.7736 -16.1831 78.8992 -23.9274 78.8992C-39.4159 78.8992 -51.9699 66.3793 -51.9699 50.9329C-51.9699 35.4865 -39.4159 22.9579 -23.9274 22.9579Z" fill="url(#paint3_linear_5481_122346)"/>
</g>
</g>

</svg>
