<svg width="96" height="96" viewBox="0 0 96 96" xmlns="http://www.w3.org/2000/svg">
  <defs>
<radialGradient id="paint0_radial_5481_122585" cx="0" cy="0" r="1" gradientUnits="userSpaceOnUse" gradientTransform="translate(85.5714 63.1124) rotate(90) scale(138.607)">
<stop offset="0.0885417" stop-color="#EB1000"/>
<stop offset="1" stop-color="#EB1000" stop-opacity="0"/>
</radialGradient>
<linearGradient id="paint1_linear_5481_122585" x1="69.4617" y1="-3.08825" x2="13.8656" y2="68.9935" gradientUnits="userSpaceOnUse">
<stop stop-color="#FF4885"/>
<stop offset="1" stop-color="#FF4885" stop-opacity="0"/>
</linearGradient>
<linearGradient id="paint2_linear_5481_122585" x1="35.5898" y1="-36.2716" x2="46.3146" y2="32.3671" gradientUnits="userSpaceOnUse">
<stop offset="0.15625" stop-color="#7A6AFD"/>
<stop offset="1" stop-color="#7A6AFD" stop-opacity="0"/>
</linearGradient>
<linearGradient id="paint3_linear_5481_122585" x1="-88.1609" y1="101.725" x2="92.2907" y2="66.0615" gradientUnits="userSpaceOnUse">
<stop stop-color="#30A7FE" stop-opacity="0"/>
<stop offset="0.432292" stop-color="#30A7FE" stop-opacity="0.994652"/>
<stop offset="0.609375" stop-color="#30A7FE"/>
<stop offset="1" stop-color="#30A7FE" stop-opacity="0"/>
</linearGradient>
<clipPath id="clip0_5481_122585">
<rect width="96" height="96" rx="10" fill="white"/>
</clipPath>
</defs>
<clipPath id="mask0_5481_122585">
<path fill-rule="evenodd" d="M48 14.7402C49.7873 14.7402 51.5415 14.8823 53.2517 15.1558C52.7134 15.8853 52.0029 16.7211 51.1701 17.4319C50.0158 18.4172 48.8211 19 47.6531 19C46.4238 19 45.1068 18.4602 43.9367 17.5856C42.9399 16.8405 42.2182 15.9784 41.8421 15.3138C43.8371 14.9372 45.8955 14.7402 48 14.7402ZM57.1218 16.5936C57.2271 16.4324 57.3061 16.2617 57.3599 16.0864C57.8426 16.229 58.3207 16.3822 58.7939 16.5459C58.7688 16.6316 58.7492 16.72 58.7355 16.8108C58.3419 19.4177 57.8578 23.1236 58.2726 26.4421C58.6841 29.7345 60.1018 33.3565 64.1241 34.5414C67.1975 35.4467 70.1129 34.8442 72.3951 33.7141C73.9548 32.9417 75.3118 31.8776 76.2961 30.7503C77.781 33.218 78.9522 35.8959 79.7545 38.7287C79.4441 38.6619 79.103 38.5907 78.7363 38.5177C77.0118 38.1742 74.6918 37.7845 72.2577 37.6232C69.8475 37.4635 67.1954 37.5177 64.8603 38.1415C62.5192 38.767 60.224 40.0483 59.0514 42.5369C57.3261 46.1988 57.5292 49.3216 58.3544 51.654C59.1576 53.9244 60.5044 55.3247 60.9021 55.7225C62.358 57.1787 63.8447 57.8564 64.9791 58.3736L64.9795 58.3738C65.1176 58.4368 65.2504 58.4973 65.3773 58.5566C66.499 59.0807 67.3457 59.5601 68.1937 60.7851C68.5211 61.2579 68.8137 62.01 69.0268 63.0617C69.2356 64.092 69.3429 65.2792 69.3864 66.5226C69.4445 68.1835 69.3922 69.6851 69.346 71.0119V71.012C69.3218 71.7069 69.2992 72.3539 69.2951 72.9507C63.5477 77.8104 56.116 80.7402 48 80.7402C46.6419 80.7402 45.3029 80.6582 43.9878 80.4988C44.2584 79.8953 44.5553 79.2532 44.8702 78.5721C45.0206 78.2468 45.1752 77.9126 45.3329 77.5694C46.0071 76.1028 46.7234 74.5075 47.3481 72.8958C48.5533 69.7863 49.6006 66.1842 48.9917 63.1368C48.6126 61.2396 47.6936 59.5737 45.951 58.3434C44.2917 57.1719 42.0522 56.5149 39.2432 56.2027C34.8548 55.715 32.7336 55.2574 30.8086 53.7171C29.0336 52.2969 28.5542 50.9666 28.4755 49.9714C28.3903 48.8947 28.755 47.9182 29.1122 47.2929C29.501 46.6125 30.3636 46.1281 32.0022 45.9567C33.425 45.8078 34.9625 45.9412 36.37 46.0633C36.5544 46.0793 36.7365 46.0951 36.9159 46.11C38.5673 46.2477 40.2638 46.0423 41.4456 44.7948C42.5606 43.618 42.7217 42.0035 42.7217 40.7199C42.7217 39.9524 42.9368 39.4137 43.3013 38.945C43.7029 38.4286 44.3504 37.9183 45.3327 37.3726C46.9151 36.4935 48.0427 34.9646 48.3344 33.2628C48.6415 31.4714 47.9888 29.5727 46.1987 28.3793C45.2585 27.7525 44.1687 27.5216 43.219 27.4245C42.2551 27.3258 41.2149 27.347 40.2639 27.3772L39.8537 27.3905C37.9815 27.4519 36.4394 27.5025 35.2049 27.1498C34.4798 26.9426 33.3284 26.0591 32.2108 24.5829C31.1251 23.1489 30.4103 21.6014 30.2523 20.5717C30.2223 20.3763 30.165 20.192 30.0849 20.0219C32.4943 18.4614 35.1201 17.2065 37.9074 16.3121C37.9274 16.3781 37.9509 16.4436 37.9782 16.5086C38.6077 18.008 39.9364 19.5894 41.5418 20.7894C43.1624 22.0008 45.3016 23 47.6531 23C50.1585 23 52.2487 21.7703 53.767 20.4743C55.3009 19.165 56.4512 17.6204 57.1218 16.5936ZM73.4038 68.8045C78.1478 63.0896 81 55.748 81 47.7402C81 46.1416 80.8863 44.5695 80.6666 43.0316C80.6346 43.0248 80.6025 43.0178 80.571 43.0108C80.4574 42.9857 80.3117 42.9524 80.1484 42.915L79.9496 42.8695C79.4495 42.7555 78.7678 42.6025 77.955 42.4407C76.3226 42.1155 74.1889 41.76 71.9932 41.6144C69.7735 41.4673 67.6194 41.5447 65.8928 42.006C64.1721 42.4657 63.1499 43.2231 62.6699 44.2418C61.4173 46.9003 61.6328 48.9276 62.1254 50.3199C62.6399 51.7743 63.51 52.6734 63.7309 52.8943C64.6538 53.8175 65.5089 54.2117 66.643 54.7346C66.7811 54.7983 66.9234 54.8639 67.0704 54.9326C68.4728 55.5878 70.0527 56.443 71.4825 58.5082C72.2471 59.6126 72.6825 60.9612 72.9471 62.2672C73.2161 63.5945 73.3364 65.0217 73.384 66.3828C73.4117 67.1763 73.414 68.0035 73.4038 68.8045ZM41.2585 76.8521C40.7896 77.866 40.3328 78.854 39.9471 79.7507C25.6141 76.1563 15 63.1878 15 47.7402C15 37.6611 19.5186 28.6373 26.6407 22.5843C27.1365 24.1076 28.0224 25.6775 29.0217 26.9974C30.3014 28.6877 32.1136 30.4266 34.106 30.9959C35.984 31.5324 38.1689 31.4541 39.8743 31.393C40.052 31.3866 40.2245 31.3804 40.3908 31.3751C41.3506 31.3447 42.1455 31.3355 42.8118 31.4037C43.4924 31.4733 43.8282 31.6064 43.9799 31.7075C44.2161 31.865 44.311 32.0146 44.3549 32.1212C44.4022 32.2359 44.4259 32.3889 44.392 32.5869C44.3197 33.0083 43.9914 33.5419 43.3901 33.876C42.1885 34.5435 41.0161 35.3678 40.1439 36.4893C39.2345 37.6585 38.7217 39.0609 38.7217 40.7199C38.7217 41.2427 38.6807 41.5913 38.6231 41.8196C38.5909 41.9471 38.5603 42.0108 38.5455 42.0364C38.4694 42.0771 38.1497 42.199 37.248 42.1239C37.0896 42.1107 36.9195 42.0956 36.7394 42.0797L36.7389 42.0796H36.7389C35.3699 41.9586 33.4221 41.7863 31.5861 41.9784C29.5376 42.1927 27.003 42.9215 25.6391 45.3086C25.0259 46.3819 24.32 48.1642 24.488 50.2869C24.6624 52.4909 25.7599 54.8003 28.3095 56.8404C31.2367 59.1824 34.4562 59.6954 38.8014 60.1782C41.3034 60.4563 42.7739 60.9968 43.6439 61.6111C44.4306 62.1665 44.8602 62.8746 45.0692 63.9206C45.43 65.7262 44.8193 68.352 43.6184 71.4502C43.0401 72.9424 42.3664 74.4459 41.6985 75.8987C41.5519 76.2176 41.4047 76.536 41.2586 76.8519L41.2585 76.8521L41.2585 76.8521ZM73.8865 27.2713C70.8581 23.4466 67.0002 20.3088 62.5844 18.1297C62.2302 20.603 61.9336 23.4806 62.2417 25.946C62.5836 28.6814 63.5486 30.2019 65.2543 30.7044C67.153 31.2636 69.0237 30.92 70.6201 30.1295C72.2608 29.317 73.4113 28.1307 73.8521 27.3311C73.8633 27.3109 73.8747 27.291 73.8865 27.2713ZM38.5361 42.0506C38.5361 42.0505 38.5368 42.0494 38.5384 42.0476C38.5369 42.0498 38.5361 42.0507 38.5361 42.0506ZM38.5554 42.0308C38.5611 42.0258 38.5645 42.0237 38.5648 42.0239C38.565 42.0241 38.5622 42.0266 38.5554 42.0308Z" fill="white"/>
</clipPath>
<g clip-path="url(#mask0_5481_122585)">
<g clip-path="url(#clip0_5481_122585)">
<rect width="96" height="96" rx="10" fill="#D9F4FD"/>
<circle cx="85.5714" cy="63.1124" r="138.607" fill="url(#paint0_radial_5481_122585)"/>
<path d="M-8.63919 30.067C-10.18 -3.11477 15.4702 -31.263 48.652 -32.8037C81.8337 -34.3445 109.982 -8.69438 111.523 24.4874C113.063 57.6692 87.4133 85.8174 54.2316 87.3582C21.0498 88.8989 -7.09842 63.2488 -8.63919 30.067Z" fill="url(#paint1_linear_5481_122585)"/>
<path d="M24.2526 -66.43C16.7672 -71.0619 7.28331 -71.0903 -0.22988 -66.5032L-75.3753 -20.6218C-82.7348 -16.1282 -82.7471 -5.52169 -75.3976 -1.01111L-0.748691 44.8052C6.75324 49.4089 16.2372 49.4034 23.7327 44.7888L98.2278 -1.0704C105.538 -5.57135 105.552 -16.1186 98.2501 -20.6366L24.2526 -66.43Z" fill="url(#paint2_linear_5481_122585)"/>
<path d="M-47.8586 45.9177C-32.3701 45.9177 -18.3401 52.1863 -8.18231 62.2992C12.1334 82.5597 28.9763 82.577 49.2919 62.3512C59.4498 52.1863 73.4971 45.9004 89.003 45.9004C119.997 45.9177 145.105 70.9575 145.105 101.868C145.105 132.778 119.997 157.8 89.003 157.8C73.4624 157.8 59.415 151.497 49.2572 141.332C28.9589 121.141 12.1334 121.158 -8.18231 141.419C-18.3401 151.549 -32.3701 157.8 -47.8586 157.8C-78.8357 157.8 -103.944 132.761 -103.944 101.868C-103.944 70.9749 -78.8357 45.9177 -47.8586 45.9177Z" fill="url(#paint3_linear_5481_122585)"/>
</g>
</g>

</svg>
