<svg width="48" height="48" viewBox="0 0 48 48" xmlns="http://www.w3.org/2000/svg">
  <defs>
<radialGradient id="paint0_radial_5481_122381" cx="0" cy="0" r="1" gradientUnits="userSpaceOnUse" gradientTransform="translate(42.7877 31.5552) rotate(90) scale(69.3033)">
<stop offset="0.0885417" stop-color="#EB1000"/>
<stop offset="1" stop-color="#EB1000" stop-opacity="0"/>
</radialGradient>
<linearGradient id="paint1_linear_5481_122381" x1="34.7309" y1="-1.54315" x2="6.93278" y2="34.4977" gradientUnits="userSpaceOnUse">
<stop stop-color="#FF4885"/>
<stop offset="1" stop-color="#FF4885" stop-opacity="0"/>
</linearGradient>
<linearGradient id="paint2_linear_5481_122381" x1="17.7929" y1="-18.1348" x2="23.1553" y2="16.1845" gradientUnits="userSpaceOnUse">
<stop offset="0.15625" stop-color="#7A6AFD"/>
<stop offset="1" stop-color="#7A6AFD" stop-opacity="0"/>
</linearGradient>
<linearGradient id="paint3_linear_5481_122381" x1="-44.0785" y1="50.8616" x2="46.1473" y2="33.0298" gradientUnits="userSpaceOnUse">
<stop stop-color="#30A7FE" stop-opacity="0"/>
<stop offset="0.432292" stop-color="#30A7FE" stop-opacity="0.994652"/>
<stop offset="0.609375" stop-color="#30A7FE"/>
<stop offset="1" stop-color="#30A7FE" stop-opacity="0"/>
</linearGradient>
<clipPath id="clip0_5481_122381">
<rect width="48" height="48" rx="10" fill="white"/>
</clipPath>
</defs>
<clipPath id="mask0_5481_122381">
<path fill-rule="evenodd" d="M38.075 7.77535C38.9906 7.034 40.3426 7.89352 40.0791 9.11802L39.4647 11.9683C39.3729 12.3913 39.4869 12.8358 39.7688 13.1547L41.6658 15.3027C42.2222 15.9325 42.0449 16.8081 41.5108 17.2481C41.2373 17.4693 40.8721 17.577 40.4648 17.4816L37.7332 16.8405C37.3279 16.7446 36.9019 16.8636 36.5963 17.1577L34.5378 19.1372C33.6241 20.0162 32.1705 19.1405 32.4428 17.8748L33.0572 15.0246C33.1491 14.6016 33.035 14.1571 32.7532 13.8382L30.8562 11.6902C30.2997 11.0604 30.477 10.1848 31.0111 9.74483C31.2846 9.52353 31.6498 9.41582 32.0572 9.51127L34.7887 10.1524C35.1625 10.2407 35.5537 10.1465 35.852 9.90072C35.8803 9.87782 35.9078 9.85356 35.9344 9.82798L37.9929 7.84848C38.0198 7.8226 38.0472 7.79823 38.075 7.77535ZM28.0779 11.5H14.5156C12.3065 11.5 10.5156 13.2909 10.5156 15.5V34.5C10.5156 36.7091 12.3065 38.5 14.5156 38.5H33.5156C35.7248 38.5 37.5156 36.7091 37.5156 34.5V19.742L36.2711 20.9388C34.9142 22.2438 33.0624 22.2392 31.7553 21.4516C30.4653 20.6744 29.6215 19.1022 29.9988 17.3489L30.4931 15.0557L28.9827 13.3455C28.4833 12.7801 28.1948 12.1428 28.0779 11.5ZM26.4886 26.1843L28.4963 26.6366C29.2855 26.815 29.8336 25.8673 29.2838 25.2712L27.8887 23.7589C27.7054 23.5591 27.6311 23.2834 27.6905 23.0176L28.1429 21.0099C28.3212 20.2207 27.3735 19.6725 26.7775 20.2223L25.2652 21.6175C25.0654 21.8007 24.7897 21.875 24.5238 21.8156L22.5162 21.3632C21.727 21.1849 21.1788 22.1326 21.7286 22.7286L23.1238 24.241C23.307 24.4408 23.3813 24.7165 23.3219 24.9823L22.8695 26.99C22.6912 27.7792 23.6389 28.3273 24.2349 27.7775L25.7473 26.3824C25.947 26.1991 26.2228 26.1248 26.4886 26.1843Z" fill="white"/>
</clipPath>
<g clip-path="url(#mask0_5481_122381)">
<g clip-path="url(#clip0_5481_122381)">
<rect width="48" height="48" rx="10" fill="#D9F4FD"/>
<circle cx="42.7877" cy="31.5552" r="69.3033" fill="url(#paint0_radial_5481_122381)"/>
<path d="M-4.31959 15.0345C-5.08998 -1.55641 7.73508 -15.6305 24.326 -16.4009C40.9169 -17.1713 54.991 -4.34621 55.7613 12.2447C56.5317 28.8356 43.7067 42.9097 27.1158 43.6801C10.5249 44.4504 -3.54921 31.6254 -4.31959 15.0345Z" fill="url(#paint1_linear_5481_122381)"/>
<path d="M12.1243 -33.214C8.38167 -35.53 3.6397 -35.5442 -0.116893 -33.2506L-37.6896 -10.3099C-41.3694 -8.06314 -41.3755 -2.75987 -37.7007 -0.504581L-0.376298 22.4036C3.37467 24.7054 8.11665 24.7027 11.8644 22.3954L49.1119 -0.534222C52.7672 -2.7847 52.7739 -8.05833 49.1231 -10.3173L12.1243 -33.214Z" fill="url(#paint2_linear_5481_122381)"/>
<path d="M-23.9274 22.9579C-16.1831 22.9579 -9.16812 26.0922 -4.0892 31.1486C6.06863 41.2789 14.4901 41.2875 24.6479 31.1746C29.7268 26.0922 36.7505 22.9492 44.5034 22.9492C60.0006 22.9579 72.5547 35.4778 72.5547 50.9329C72.5547 66.388 60.0006 78.8992 44.5034 78.8992C36.7331 78.8992 29.7095 75.7476 24.6306 70.6652C14.4814 60.5696 6.06863 60.5782 -4.0892 70.7085C-9.16812 75.7736 -16.1831 78.8992 -23.9274 78.8992C-39.4159 78.8992 -51.9699 66.3793 -51.9699 50.9329C-51.9699 35.4865 -39.4159 22.9579 -23.9274 22.9579Z" fill="url(#paint3_linear_5481_122381)"/>
</g>
</g>

</svg>
