<svg width="160" height="160" viewBox="0 0 160 160" xmlns="http://www.w3.org/2000/svg">
  <defs>
<radialGradient id="paint0_radial_5481_122149" cx="0" cy="0" r="1" gradientUnits="userSpaceOnUse" gradientTransform="translate(141.052 108.474) rotate(90) scale(187.28 198.669)">
<stop offset="0.0885417" stop-color="#EB1000"/>
<stop offset="1" stop-color="#EB1000" stop-opacity="0"/>
</radialGradient>
<linearGradient id="paint1_linear_5481_122149" x1="117.96" y1="19.0284" x2="44.0779" y2="120.644" gradientUnits="userSpaceOnUse">
<stop stop-color="#FF4885"/>
<stop offset="1" stop-color="#FF4885" stop-opacity="0"/>
</linearGradient>
<linearGradient id="paint2_linear_5481_122149" x1="69.4091" y1="-25.8077" x2="83.1057" y2="67.1812" gradientUnits="userSpaceOnUse">
<stop offset="0.15625" stop-color="#7A6AFD"/>
<stop offset="1" stop-color="#7A6AFD" stop-opacity="0"/>
</linearGradient>
<linearGradient id="paint3_linear_5481_122149" x1="-107.965" y1="160.645" x2="149.469" y2="106.673" gradientUnits="userSpaceOnUse">
<stop stop-color="#30A7FE" stop-opacity="0"/>
<stop offset="0.432292" stop-color="#30A7FE" stop-opacity="0.994652"/>
<stop offset="0.609375" stop-color="#30A7FE"/>
<stop offset="1" stop-color="#30A7FE" stop-opacity="0"/>
</linearGradient>
<clipPath id="clip0_5481_122149">
<rect x="18.3984" y="23.1992" width="137.6" height="129.712" rx="10" fill="white"/>
</clipPath>
</defs>
<clipPath id="mask0_5481_122149">
<path fill-rule="evenodd" d="M123.969 33.9004C132.809 33.9004 139.969 41.0604 139.969 49.9004V53.9904H19.9492V49.9004C19.9492 41.0604 27.1092 33.9004 35.9492 33.9004H123.969ZM139.97 86.4604C137.39 85.8004 134.69 85.4504 131.91 85.4504H131.9C113.96 85.4504 99.37 100.04 99.37 117.98C99.37 120.75 99.72 123.45 100.38 126.02H48V61.9904H139.97V86.4604ZM19.9492 110.03C19.9492 118.87 27.1092 126.03 35.9492 126.03H39.9992V62.0004H19.9492V110.03ZM131.911 93.4604C134.731 93.4604 137.441 93.9404 139.971 94.8204H139.981C149.571 98.1604 156.451 107.27 156.451 117.99C156.451 131.54 145.471 142.52 131.921 142.52C121.191 142.52 112.071 135.63 108.741 126.03C107.861 123.51 107.381 120.81 107.381 117.99C107.381 104.44 118.361 93.4604 131.911 93.4604ZM135.921 121.94H143.801C146.011 121.94 147.801 120.15 147.801 117.94C147.801 115.73 146.011 113.94 143.801 113.94H135.921V106.06C135.921 103.85 134.131 102.06 131.921 102.06C129.711 102.06 127.921 103.85 127.921 106.06V113.94H120.041C117.831 113.94 116.041 115.73 116.041 117.94C116.041 120.15 117.831 121.94 120.041 121.94H127.921V129.82C127.921 132.03 129.711 133.82 131.921 133.82C134.131 133.82 135.921 132.03 135.921 129.82V121.94Z" fill="white"/>
</clipPath>
<g clip-path="url(#mask0_5481_122149)">
<g clip-path="url(#clip0_5481_122149)">
<rect x="18.3984" y="23.1992" width="137.6" height="129.712" rx="10" fill="#D9F4FD"/>
<ellipse cx="141.052" cy="108.474" rx="198.669" ry="187.28" fill="url(#paint0_radial_5481_122149)"/>
<path d="M6.01584 63.8266C3.80742 18.9925 40.5725 -19.0403 88.1329 -21.1221C135.693 -23.2039 176.039 11.4536 178.247 56.2876C180.456 101.122 143.691 139.154 96.1303 141.236C48.5699 143.318 8.22427 108.661 6.01584 63.8266Z" fill="url(#paint1_linear_5481_122149)"/>
<path d="M53.1592 -66.5566C42.4302 -72.8151 28.8366 -72.8534 18.0677 -66.6555L-89.6404 -4.66226C-100.189 1.40931 -100.207 15.7405 -89.6724 21.835L17.3241 83.7404C28.0768 89.9607 41.6705 89.9533 52.4139 83.7182L159.19 21.7549C169.668 15.6734 169.688 1.42231 159.222 -4.68216L53.1592 -66.5566Z" fill="url(#paint2_linear_5481_122149)"/>
<path d="M-50.1983 85.2402C-27.9981 85.2402 -7.88856 93.7101 6.67096 107.374C35.79 134.75 59.9314 134.773 89.0505 107.445C103.61 93.7101 123.744 85.2168 145.969 85.2168C190.395 85.2402 226.383 119.073 226.383 160.838C226.383 202.603 190.395 236.412 145.969 236.412C123.695 236.412 103.56 227.895 89.0007 214.161C59.9065 186.879 35.79 186.903 6.67096 214.278C-7.88856 227.966 -27.9981 236.412 -50.1983 236.412C-94.5986 236.412 -130.587 202.579 -130.587 160.838C-130.587 119.097 -94.5986 85.2402 -50.1983 85.2402Z" fill="url(#paint3_linear_5481_122149)"/>
</g>
</g>

</svg>
