<svg width="96" height="96" viewBox="0 0 96 96" xmlns="http://www.w3.org/2000/svg">
  <defs>
<radialGradient id="paint0_radial_5481_122581" cx="0" cy="0" r="1" gradientUnits="userSpaceOnUse" gradientTransform="translate(85.5714 63.1124) rotate(90) scale(138.607)">
<stop offset="0.0885417" stop-color="#EB1000"/>
<stop offset="1" stop-color="#EB1000" stop-opacity="0"/>
</radialGradient>
<linearGradient id="paint1_linear_5481_122581" x1="69.4617" y1="-3.08825" x2="13.8656" y2="68.9935" gradientUnits="userSpaceOnUse">
<stop stop-color="#FF4885"/>
<stop offset="1" stop-color="#FF4885" stop-opacity="0"/>
</linearGradient>
<linearGradient id="paint2_linear_5481_122581" x1="35.5898" y1="-36.2716" x2="46.3146" y2="32.3671" gradientUnits="userSpaceOnUse">
<stop offset="0.15625" stop-color="#7A6AFD"/>
<stop offset="1" stop-color="#7A6AFD" stop-opacity="0"/>
</linearGradient>
<linearGradient id="paint3_linear_5481_122581" x1="-88.1609" y1="101.725" x2="92.2907" y2="66.0615" gradientUnits="userSpaceOnUse">
<stop stop-color="#30A7FE" stop-opacity="0"/>
<stop offset="0.432292" stop-color="#30A7FE" stop-opacity="0.994652"/>
<stop offset="0.609375" stop-color="#30A7FE"/>
<stop offset="1" stop-color="#30A7FE" stop-opacity="0"/>
</linearGradient>
<clipPath id="clip0_5481_122581">
<rect width="96" height="96" rx="10" fill="white"/>
</clipPath>
</defs>
<clipPath id="mask0_5481_122581">
<path fill-rule="evenodd" d="M68.3224 15.7519C68.4563 14.6555 69.4537 13.8752 70.5501 14.0091C77.1028 14.8093 83.222 18.5737 86.7806 24.7373C90.3683 30.9514 90.5427 38.1999 87.8923 44.3063C87.4526 45.3195 86.2746 45.7844 85.2614 45.3446C84.2482 44.9048 83.7833 43.7269 84.2231 42.7137C86.3906 37.7197 86.2438 31.8076 83.3165 26.7373C80.4129 21.7081 75.4242 18.634 70.0652 17.9796C68.9688 17.8457 68.1885 16.8483 68.3224 15.7519ZM67.5728 24.0859C67.7067 22.9895 68.704 22.2092 69.8004 22.3431C73.7822 22.8294 77.504 25.1178 79.6678 28.8656C81.8493 32.6441 81.9544 37.0521 80.3439 40.7626C79.9041 41.7759 78.7262 42.2408 77.713 41.801C76.6997 41.3612 76.2348 40.1833 76.6746 39.1701C77.8023 36.5719 77.7248 33.5003 76.2037 30.8656C74.6948 28.2522 72.1036 26.6541 69.3156 26.3136C68.2192 26.1797 67.4389 25.1824 67.5728 24.0859ZM10.3021 44.9637C6.47578 47.1729 5.16477 52.0656 7.37391 55.8919L8.58524 57.99L62.5634 26.8837L61.327 24.7421C59.1178 20.9158 54.2251 19.6048 50.3988 21.8139L10.3021 44.9637ZM64.5634 30.3478L10.5852 61.4541L20.1405 78.0042C22.3496 81.8306 27.2423 83.1416 31.0687 80.9324L71.1653 57.7826C74.9916 55.5735 76.3027 50.6808 74.0935 46.8544L64.5634 30.3478ZM19.1898 64.122C18.6374 63.1655 18.9651 61.9423 19.9217 61.3899L39.2769 50.2138C40.2335 49.6615 41.4567 49.9891 42.009 50.9457C42.5613 51.9023 42.2337 53.1255 41.2771 53.6778L21.9219 64.8539C20.9653 65.4063 19.7421 65.0786 19.1898 64.122ZM24.1131 68.6477C23.1565 69.2001 22.8288 70.4233 23.3812 71.3798C23.9335 72.3364 25.1567 72.6641 26.1133 72.1117L35.7909 66.5237C36.7474 65.9713 37.0751 64.7481 36.5228 63.7916C35.9704 62.835 34.7473 62.5073 33.7907 63.0597L24.1131 68.6477ZM50.0433 46.3095C49.4909 45.353 49.8186 44.1298 50.7752 43.5774L59.8493 38.3378C60.8059 37.7855 62.0291 38.1132 62.5814 39.0697C63.1338 40.0263 62.8061 41.2495 61.8495 41.8018L52.7754 47.0414C51.8188 47.5938 50.5956 47.2661 50.0433 46.3095Z" fill="white"/>
</clipPath>
<g clip-path="url(#mask0_5481_122581)">
<g clip-path="url(#clip0_5481_122581)">
<rect width="96" height="96" rx="10" fill="#D9F4FD"/>
<circle cx="85.5714" cy="63.1124" r="138.607" fill="url(#paint0_radial_5481_122581)"/>
<path d="M-8.63919 30.067C-10.18 -3.11477 15.4702 -31.263 48.652 -32.8037C81.8337 -34.3445 109.982 -8.69438 111.523 24.4874C113.063 57.6692 87.4133 85.8174 54.2316 87.3582C21.0498 88.8989 -7.09842 63.2488 -8.63919 30.067Z" fill="url(#paint1_linear_5481_122581)"/>
<path d="M24.2526 -66.43C16.7672 -71.0619 7.28331 -71.0903 -0.22988 -66.5032L-75.3753 -20.6218C-82.7348 -16.1282 -82.7471 -5.52169 -75.3976 -1.01111L-0.748691 44.8052C6.75324 49.4089 16.2372 49.4034 23.7327 44.7888L98.2278 -1.0704C105.538 -5.57135 105.552 -16.1186 98.2501 -20.6366L24.2526 -66.43Z" fill="url(#paint2_linear_5481_122581)"/>
<path d="M-47.8586 45.9177C-32.3701 45.9177 -18.3401 52.1863 -8.18231 62.2992C12.1334 82.5597 28.9763 82.577 49.2919 62.3512C59.4498 52.1863 73.4971 45.9004 89.003 45.9004C119.997 45.9177 145.105 70.9575 145.105 101.868C145.105 132.778 119.997 157.8 89.003 157.8C73.4624 157.8 59.415 151.497 49.2572 141.332C28.9589 121.141 12.1334 121.158 -8.18231 141.419C-18.3401 151.549 -32.3701 157.8 -47.8586 157.8C-78.8357 157.8 -103.944 132.761 -103.944 101.868C-103.944 70.9749 -78.8357 45.9177 -47.8586 45.9177Z" fill="url(#paint3_linear_5481_122581)"/>
</g>
</g>

</svg>
