<svg width="96" height="96" viewBox="0 0 96 96" xmlns="http://www.w3.org/2000/svg">
  <defs>
<radialGradient id="paint0_radial_5481_122554" cx="0" cy="0" r="1" gradientUnits="userSpaceOnUse" gradientTransform="translate(85.5714 63.1124) rotate(90) scale(138.607)">
<stop offset="0.0885417" stop-color="#EB1000"/>
<stop offset="1" stop-color="#EB1000" stop-opacity="0"/>
</radialGradient>
<linearGradient id="paint1_linear_5481_122554" x1="69.4617" y1="-3.08825" x2="13.8656" y2="68.9935" gradientUnits="userSpaceOnUse">
<stop stop-color="#FF4885"/>
<stop offset="1" stop-color="#FF4885" stop-opacity="0"/>
</linearGradient>
<linearGradient id="paint2_linear_5481_122554" x1="35.5898" y1="-36.2716" x2="46.3146" y2="32.3671" gradientUnits="userSpaceOnUse">
<stop offset="0.15625" stop-color="#7A6AFD"/>
<stop offset="1" stop-color="#7A6AFD" stop-opacity="0"/>
</linearGradient>
<linearGradient id="paint3_linear_5481_122554" x1="-88.1609" y1="101.725" x2="92.2907" y2="66.0615" gradientUnits="userSpaceOnUse">
<stop stop-color="#30A7FE" stop-opacity="0"/>
<stop offset="0.432292" stop-color="#30A7FE" stop-opacity="0.994652"/>
<stop offset="0.609375" stop-color="#30A7FE"/>
<stop offset="1" stop-color="#30A7FE" stop-opacity="0"/>
</linearGradient>
<clipPath id="clip0_5481_122554">
<rect width="96" height="96" rx="10" fill="white"/>
</clipPath>
</defs>
<clipPath id="mask0_5481_122554">
<path fill-rule="evenodd" d="M48 81C66.2254 81 81 66.2254 81 48C81 29.7746 66.2254 15 48 15C29.7746 15 15 29.7746 15 48C15 66.2254 29.7746 81 48 81ZM53.0004 30.1465C53.0004 32.9079 50.7618 35.1465 48.0004 35.1465C45.2389 35.1465 43.0004 32.9079 43.0004 30.1465C43.0004 27.3851 45.2389 25.1465 48.0004 25.1465C50.7618 25.1465 53.0004 27.3851 53.0004 30.1465ZM30.9624 37.2628C31.2663 36.2009 32.3735 35.5863 33.4354 35.8902C42.8315 38.5786 52.7883 38.6135 62.203 35.991L62.5788 35.8864C63.6428 35.59 64.7457 36.2123 65.0421 37.2763C65.3385 38.3404 64.7162 39.4433 63.6521 39.7397L63.2763 39.8443C60.5141 40.6138 57.7085 41.1705 54.8836 41.5147C53.8556 41.6399 53.0645 42.5004 53.0645 43.536V51.441C53.0645 51.6258 53.0901 51.8097 53.1406 51.9875C53.9412 54.8069 54.855 58.0364 55.6562 60.8745C56.232 62.9141 56.7499 64.7524 57.126 66.0919C57.3141 66.7614 57.467 67.3073 57.5741 67.6917L57.5985 67.7792L57.5985 67.7793C57.6768 68.06 57.7587 68.3535 57.7801 68.4605C57.9967 69.5436 57.2943 70.5972 56.2112 70.8139C55.1281 71.0305 54.0744 70.328 53.8578 69.2449C53.8684 69.2979 53.8598 69.2669 53.8095 69.0849L53.8094 69.0846L53.8094 69.0845L53.8088 69.0823C53.7875 69.0051 53.7587 68.9011 53.7209 68.7654C53.6149 68.3849 53.4628 67.8421 53.275 67.1734C52.8995 65.8363 52.3822 63.9999 51.8067 61.9612C51.1497 59.634 50.4172 57.0444 49.7338 54.6345C49.5139 53.8591 48.8059 53.3242 48 53.3242C47.1941 53.3242 46.4861 53.8591 46.2662 54.6345C45.5828 57.0444 44.8503 59.634 44.1933 61.9612C43.6178 63.9999 43.1005 65.8363 42.725 67.1734C42.5372 67.8421 42.3851 68.3849 42.2791 68.7654C42.2556 68.8496 42.2357 68.9216 42.2188 68.9826C42.2082 69.0208 42.1989 69.0547 42.1906 69.0845L42.1906 69.0846L42.1905 69.0849C42.1402 69.2669 42.1316 69.2979 42.1422 69.2449C41.9256 70.328 40.8719 71.0305 39.7888 70.8139C38.7057 70.5972 38.0033 69.5436 38.2199 68.4605C38.2413 68.3535 38.3232 68.0599 38.4015 67.7792L38.4259 67.6917C38.533 67.3073 38.6859 66.7614 38.874 66.0919C39.2501 64.7524 39.768 62.9141 40.3438 60.8745C41.145 58.0364 42.0588 54.8069 42.8594 51.9875C42.9099 51.8097 42.9355 51.6258 42.9355 51.441V43.5365C42.9355 42.5008 42.1444 41.6403 41.1163 41.5152C38.1584 41.155 35.2222 40.5619 32.3351 39.7359C31.2732 39.432 30.6586 38.3248 30.9624 37.2628Z" fill="white"/>
</clipPath>
<g clip-path="url(#mask0_5481_122554)">
<g clip-path="url(#clip0_5481_122554)">
<rect width="96" height="96" rx="10" fill="#D9F4FD"/>
<circle cx="85.5714" cy="63.1124" r="138.607" fill="url(#paint0_radial_5481_122554)"/>
<path d="M-8.63919 30.067C-10.18 -3.11477 15.4702 -31.263 48.652 -32.8037C81.8337 -34.3445 109.982 -8.69438 111.523 24.4874C113.063 57.6692 87.4133 85.8174 54.2316 87.3582C21.0498 88.8989 -7.09842 63.2488 -8.63919 30.067Z" fill="url(#paint1_linear_5481_122554)"/>
<path d="M24.2526 -66.43C16.7672 -71.0619 7.28331 -71.0903 -0.22988 -66.5032L-75.3753 -20.6218C-82.7348 -16.1282 -82.7471 -5.52169 -75.3976 -1.01111L-0.748691 44.8052C6.75324 49.4089 16.2372 49.4034 23.7327 44.7888L98.2278 -1.0704C105.538 -5.57135 105.552 -16.1186 98.2501 -20.6366L24.2526 -66.43Z" fill="url(#paint2_linear_5481_122554)"/>
<path d="M-47.8586 45.9177C-32.3701 45.9177 -18.3401 52.1863 -8.18231 62.2992C12.1334 82.5597 28.9763 82.577 49.2919 62.3512C59.4498 52.1863 73.4971 45.9004 89.003 45.9004C119.997 45.9177 145.105 70.9575 145.105 101.868C145.105 132.778 119.997 157.8 89.003 157.8C73.4624 157.8 59.415 151.497 49.2572 141.332C28.9589 121.141 12.1334 121.158 -8.18231 141.419C-18.3401 151.549 -32.3701 157.8 -47.8586 157.8C-78.8357 157.8 -103.944 132.761 -103.944 101.868C-103.944 70.9749 -78.8357 45.9177 -47.8586 45.9177Z" fill="url(#paint3_linear_5481_122554)"/>
</g>
</g>

</svg>
