<svg width="48" height="48" viewBox="0 0 48 48" xmlns="http://www.w3.org/2000/svg">
  <defs>
<radialGradient id="paint0_radial_5481_122316" cx="0" cy="0" r="1" gradientUnits="userSpaceOnUse" gradientTransform="translate(41.0705 30.6366) rotate(90) scale(56.7421 60.2072)">
<stop offset="0.0885417" stop-color="#EB1000"/>
<stop offset="1" stop-color="#EB1000" stop-opacity="0"/>
</radialGradient>
<linearGradient id="paint1_linear_5481_122316" x1="34.0687" y1="3.53745" x2="11.6856" y2="34.33" gradientUnits="userSpaceOnUse">
<stop stop-color="#FF4885"/>
<stop offset="1" stop-color="#FF4885" stop-opacity="0"/>
</linearGradient>
<linearGradient id="paint2_linear_5481_122316" x1="19.3591" y1="-10.0479" x2="23.5079" y2="18.1262" gradientUnits="userSpaceOnUse">
<stop offset="0.15625" stop-color="#7A6AFD"/>
<stop offset="1" stop-color="#7A6AFD" stop-opacity="0"/>
</linearGradient>
<linearGradient id="paint3_linear_5481_122316" x1="-34.3954" y1="46.445" x2="43.6192" y2="30.085" gradientUnits="userSpaceOnUse">
<stop stop-color="#30A7FE" stop-opacity="0"/>
<stop offset="0.432292" stop-color="#30A7FE" stop-opacity="0.994652"/>
<stop offset="0.609375" stop-color="#30A7FE"/>
<stop offset="1" stop-color="#30A7FE" stop-opacity="0"/>
</linearGradient>
<clipPath id="clip0_5481_122316">
<rect x="3.89844" y="4.80078" width="41.7" height="39.3" rx="10" fill="white"/>
</clipPath>
</defs>
<clipPath id="mask0_5481_122316">
<path fill-rule="evenodd" d="M33.5982 4.80078H39.5982C41.5865 4.80078 43.1982 6.41256 43.1982 8.40078V21.6008C43.1982 23.589 41.5865 25.2008 39.5982 25.2008H33.5982C31.61 25.2008 29.9982 23.589 29.9982 21.6008V8.40078C29.9982 6.41256 31.61 4.80078 33.5982 4.80078ZM17.3982 30.0008H30.5982C32.5865 30.0008 34.1982 31.6126 34.1982 33.6008V39.6008C34.1982 41.589 32.5865 43.2008 30.5982 43.2008H17.3982C15.41 43.2008 13.7982 41.589 13.7982 39.6008V33.6008C13.7982 31.6126 15.41 30.0008 17.3982 30.0008ZM19.8736 21.4417L22.3516 27.4777C22.7536 28.4527 24.1276 28.4737 24.5566 27.5107L25.2796 25.8907C25.3996 25.6207 25.6156 25.4047 25.8856 25.2847L27.5026 24.5617C28.4656 24.1327 28.4446 22.7557 27.4696 22.3567L21.4366 19.8757C20.4496 19.4707 19.4656 20.4547 19.8706 21.4417H19.8736ZM16.9244 22.6059C17.5874 22.6059 18.1244 23.1429 18.1244 23.8059C18.1244 24.4689 17.5874 25.0059 16.9244 25.0059H10.7894C10.3424 25.9239 9.40641 26.5569 8.31741 26.5569C6.79641 26.5569 5.56641 25.3239 5.56641 23.8059C5.56641 22.7169 6.20241 21.7809 7.11741 21.3339V10.7709C6.19941 10.3239 5.56641 9.38785 5.56641 8.29885C5.56641 6.77785 6.79941 5.54785 8.31741 5.54785C9.40641 5.54785 10.3424 6.18385 10.7894 7.09885H21.3074C21.7544 6.18085 22.6904 5.54785 23.7794 5.54785C25.3004 5.54785 26.5304 6.78085 26.5304 8.29885C26.5304 9.38785 25.8944 10.3239 24.9794 10.7709V16.9209C24.9794 17.5839 24.4424 18.1209 23.7794 18.1209C23.1164 18.1209 22.5794 17.5839 22.5794 16.9209V10.7709C22.0244 10.5009 21.5774 10.0509 21.3074 9.49885H10.7894C10.5194 10.0539 10.0694 10.5009 9.51741 10.7709V21.3339C10.0724 21.6039 10.5194 22.0539 10.7894 22.6059H16.9244Z" fill="white"/>
</clipPath>
<g clip-path="url(#mask0_5481_122316)">
<g clip-path="url(#clip0_5481_122316)">
<rect x="3.89844" y="4.80078" width="41.7" height="39.3" rx="10" fill="#D9F4FD"/>
<ellipse cx="41.0705" cy="30.6366" rx="60.2072" ry="56.7421" fill="url(#paint0_radial_5481_122316)"/>
<path d="M0.14364 17.1104C-0.52563 3.52659 10.6161 -7.99657 25.0295 -8.62732C39.4428 -9.25807 51.6697 1.24244 52.339 14.8262C53.0082 28.41 41.8665 39.9332 27.4531 40.564C13.0398 41.1947 0.812909 30.6942 0.14364 17.1104Z" fill="url(#paint1_linear_5481_122316)"/>
<path d="M14.4345 -22.3939C11.183 -24.2901 7.06346 -24.3017 3.79992 -22.4239L-28.8414 -3.64121C-32.0382 -1.80165 -32.0435 2.5404 -28.8511 4.38692L3.57456 23.143C6.83321 25.0276 10.9528 25.0254 14.2086 23.1363L46.5675 4.36265C49.743 2.52008 49.7488 -1.79771 46.5771 -3.64724L14.4345 -22.3939Z" fill="url(#paint2_linear_5481_122316)"/>
<path d="M-16.8891 23.5989C-10.1613 23.5989 -4.067 26.1651 0.345304 30.3051C9.16992 38.5992 16.4861 38.6063 25.3107 30.3263C29.723 26.1651 35.8248 23.5918 42.5602 23.5918C56.0234 23.5989 66.9297 33.8496 66.9297 46.5034C66.9297 59.1573 56.0234 69.4009 42.5602 69.4009C35.8097 69.4009 29.7079 66.8205 25.2956 62.6592C16.4785 54.3935 9.16992 54.4006 0.345304 62.6947C-4.067 66.8417 -10.1613 69.4009 -16.8891 69.4009C-30.3448 69.4009 -41.2511 59.1502 -41.2511 46.5034C-41.2511 33.8567 -30.3448 23.5989 -16.8891 23.5989Z" fill="url(#paint3_linear_5481_122316)"/>
</g>
</g>

</svg>
