<svg width="160" height="160" viewBox="0 0 160 160" xmlns="http://www.w3.org/2000/svg">
  <defs>
<radialGradient id="paint0_radial_5481_122172" cx="0" cy="0" r="1" gradientUnits="userSpaceOnUse" gradientTransform="translate(132.774 101.839) rotate(90) scale(178.298 189.141)">
<stop offset="0.0885417" stop-color="#EB1000"/>
<stop offset="1" stop-color="#EB1000" stop-opacity="0"/>
</radialGradient>
<linearGradient id="paint1_linear_5481_122172" x1="110.785" y1="16.6832" x2="40.4466" y2="113.425" gradientUnits="userSpaceOnUse">
<stop stop-color="#FF4885"/>
<stop offset="1" stop-color="#FF4885" stop-opacity="0"/>
</linearGradient>
<linearGradient id="paint2_linear_5481_122172" x1="64.5653" y1="-26.004" x2="77.605" y2="62.5252" gradientUnits="userSpaceOnUse">
<stop offset="0.15625" stop-color="#7A6AFD"/>
<stop offset="1" stop-color="#7A6AFD" stop-opacity="0"/>
</linearGradient>
<linearGradient id="paint3_linear_5481_122172" x1="-104.301" y1="151.51" x2="140.787" y2="100.127" gradientUnits="userSpaceOnUse">
<stop stop-color="#30A7FE" stop-opacity="0"/>
<stop offset="0.432292" stop-color="#30A7FE" stop-opacity="0.994652"/>
<stop offset="0.609375" stop-color="#30A7FE"/>
<stop offset="1" stop-color="#30A7FE" stop-opacity="0"/>
</linearGradient>
<clipPath id="clip0_5481_122172">
<rect x="16" y="20.6543" width="131" height="123.491" rx="10" fill="white"/>
</clipPath>
</defs>
<clipPath id="mask0_5481_122172">
<path fill-rule="evenodd" d="M69.24 48.0202L107.8 36.3102L107.81 36.3002C113.56 34.5502 119.36 38.8502 119.36 44.8602V88.7202C119.36 94.7302 113.56 99.0302 107.81 97.2802L69.25 85.5502H69.21L79.65 109.8C81.89 114.98 79.51 120.99 74.34 123.23C69.16 125.47 63.15 123.09 60.91 117.92L46.84 85.5602H41.52C31.16 85.5602 22.75 77.1502 22.75 66.7902C22.75 56.4302 31.15 48.0202 41.52 48.0202H69.24ZM136.42 82.3601L142.17 84.1801C144.27 84.8501 145.44 87.0901 144.77 89.2001C144.23 90.9001 142.66 91.9901 140.96 91.9901C140.56 91.9901 140.15 91.9301 139.75 91.8001L134 89.9801C131.9 89.3101 130.73 87.0701 131.4 84.9601C132.07 82.8601 134.31 81.6901 136.42 82.3601ZM135.211 50.8801C135.611 50.8801 136.021 50.8201 136.421 50.6901L142.171 48.8701C144.281 48.2001 145.441 45.9501 144.771 43.8501C144.101 41.7401 141.861 40.5801 139.751 41.2501L134.001 43.0701C131.891 43.7401 130.731 45.9901 131.401 48.0901C131.941 49.7901 133.511 50.8801 135.211 50.8801ZM141.231 70.5302H135.211C133.001 70.5302 131.211 68.7402 131.211 66.5302C131.211 64.3202 133.001 62.5302 135.211 62.5302H141.231C143.441 62.5302 145.231 64.3202 145.231 66.5302C145.231 68.7402 143.441 70.5302 141.231 70.5302Z" fill="white"/>
</clipPath>
<g clip-path="url(#mask0_5481_122172)">
<g clip-path="url(#clip0_5481_122172)">
<rect x="16" y="20.6543" width="131" height="123.491" rx="10" fill="#D9F4FD"/>
<ellipse cx="132.774" cy="101.839" rx="189.141" ry="178.298" fill="url(#paint0_radial_5481_122172)"/>
<path d="M4.20997 59.3329C2.10746 16.6491 37.1093 -19.5597 82.3887 -21.5417C127.668 -23.5236 166.079 9.47171 168.181 52.1555C170.284 94.8394 135.282 131.048 90.0026 133.03C44.7231 135.012 6.31247 102.017 4.20997 59.3329Z" fill="url(#paint1_linear_5481_122172)"/>
<path d="M49.0947 -64.7986C38.8803 -70.757 25.9386 -70.7935 15.6862 -64.8928L-86.8563 -5.87271C-96.899 -0.0923241 -96.9158 13.5515 -86.8867 19.3538L14.9782 78.2902C25.2153 84.2121 38.157 84.2051 48.3852 78.2691L150.04 19.2775C160.016 13.4877 160.034 -0.0799501 150.071 -5.89166L49.0947 -64.7986Z" fill="url(#paint2_linear_5481_122172)"/>
<path d="M-49.3047 79.7215C-28.1693 79.7215 -9.02414 87.7852 4.83711 100.794C32.5596 126.856 55.5432 126.879 83.2657 100.861C97.127 87.7852 116.296 79.6992 137.455 79.6992C179.75 79.7215 214.012 111.932 214.012 151.693C214.012 191.455 179.75 223.643 137.455 223.643C116.248 223.643 97.0796 215.535 83.2183 202.459C55.5195 176.486 32.5596 176.508 4.83711 202.571C-9.02414 215.602 -28.1693 223.643 -49.3047 223.643C-91.5756 223.643 -125.838 191.433 -125.838 151.693C-125.838 111.954 -91.5756 79.7215 -49.3047 79.7215Z" fill="url(#paint3_linear_5481_122172)"/>
</g>
</g>

</svg>
