<svg width="96" height="96" viewBox="0 0 96 96" xmlns="http://www.w3.org/2000/svg">
  <defs>
<radialGradient id="paint0_radial_5481_122465" cx="0" cy="0" r="1" gradientUnits="userSpaceOnUse" gradientTransform="translate(78.2124 60.6236) rotate(90) scale(102.569 108.806)">
<stop offset="0.0885417" stop-color="#EB1000"/>
<stop offset="1" stop-color="#EB1000" stop-opacity="0"/>
</radialGradient>
<linearGradient id="paint1_linear_5481_122465" x1="65.5656" y1="11.6361" x2="25.102" y2="67.2883" gradientUnits="userSpaceOnUse">
<stop stop-color="#FF4885"/>
<stop offset="1" stop-color="#FF4885" stop-opacity="0"/>
</linearGradient>
<linearGradient id="paint2_linear_5481_122465" x1="38.9776" y1="-12.9196" x2="46.4789" y2="38.0082" gradientUnits="userSpaceOnUse">
<stop offset="0.15625" stop-color="#7A6AFD"/>
<stop offset="1" stop-color="#7A6AFD" stop-opacity="0"/>
</linearGradient>
<linearGradient id="paint3_linear_5481_122465" x1="-58.1649" y1="89.197" x2="82.8254" y2="59.6379" gradientUnits="userSpaceOnUse">
<stop stop-color="#30A7FE" stop-opacity="0"/>
<stop offset="0.432292" stop-color="#30A7FE" stop-opacity="0.994652"/>
<stop offset="0.609375" stop-color="#30A7FE"/>
<stop offset="1" stop-color="#30A7FE" stop-opacity="0"/>
</linearGradient>
<clipPath id="clip0_5481_122465">
<rect x="11.0391" y="13.9199" width="75.36" height="71.04" rx="10" fill="white"/>
</clipPath>
</defs>
<clipPath id="mask0_5481_122465">
<path d="M69.8984 40.8008C76.3604 40.8008 81.5984 35.5628 81.5984 29.1008V28.5008C81.5984 22.0388 76.3604 16.8008 69.8984 16.8008H26.0984C19.6364 16.8008 14.3984 22.0388 14.3984 28.5008V29.1008C14.3984 35.5628 19.6364 40.8008 26.0984 40.8008H45.5984V55.2008H26.0984C19.6364 55.2008 14.3984 60.4388 14.3984 66.9008V67.5008C14.3984 73.9628 19.6364 79.2008 26.0984 79.2008H69.8984C76.3604 79.2008 81.5984 73.9628 81.5984 67.5008V66.9008C81.5984 60.4388 76.3604 55.2008 69.8984 55.2008H50.3984V40.8008H69.8984ZM26.3984 31.2008C25.0724 31.2008 23.9984 30.1268 23.9984 28.8008C23.9984 27.4748 25.0724 26.4008 26.3984 26.4008C27.7244 26.4008 28.7984 27.4748 28.7984 28.8008C28.7984 30.1268 27.7244 31.2008 26.3984 31.2008ZM26.3984 69.6008C25.0724 69.6008 23.9984 68.5268 23.9984 67.2008C23.9984 65.8748 25.0724 64.8008 26.3984 64.8008C27.7244 64.8008 28.7984 65.8748 28.7984 67.2008C28.7984 68.5268 27.7244 69.6008 26.3984 69.6008ZM44.3984 69.6008H33.5984C32.2724 69.6008 31.1984 68.5268 31.1984 67.2008C31.1984 65.8748 32.2724 64.8008 33.5984 64.8008H44.3984C45.7244 64.8008 46.7984 65.8748 46.7984 67.2008C46.7984 68.5268 45.7244 69.6008 44.3984 69.6008ZM44.3984 31.2008H33.5984C32.2724 31.2008 31.1984 30.1268 31.1984 28.8008C31.1984 27.4748 32.2724 26.4008 33.5984 26.4008H44.3984C45.7244 26.4008 46.7984 27.4748 46.7984 28.8008C46.7984 30.1268 45.7244 31.2008 44.3984 31.2008Z" fill="white"/>
</clipPath>
<g clip-path="url(#mask0_5481_122465)">
<g clip-path="url(#clip0_5481_122465)">
<rect x="11.0391" y="13.9199" width="75.36" height="71.04" rx="10" fill="#D9F4FD"/>
<ellipse cx="78.2124" cy="60.6236" rx="108.806" ry="102.569" fill="url(#paint0_radial_5481_122465)"/>
<path d="M4.25636 36.171C3.04686 11.6164 23.1822 -9.21323 49.2299 -10.3534C75.2776 -11.4936 97.3739 7.48752 98.5834 32.0421C99.7929 56.5966 79.6576 77.4262 53.6099 78.5664C27.5622 79.7066 5.46586 60.7255 4.25636 36.171Z" fill="url(#paint1_linear_5481_122465)"/>
<path d="M30.0779 -35.2368C24.2019 -38.6645 16.757 -38.6854 10.8591 -35.291L-48.13 -1.33878C-53.9073 1.98648 -53.9169 9.83532 -48.1475 13.1731L10.4519 47.0772C16.3409 50.4839 23.7858 50.4799 29.6697 47.0651L88.1484 13.1293C93.8873 9.79858 93.8977 1.9936 88.1659 -1.34968L30.0779 -35.2368Z" fill="url(#paint2_linear_5481_122465)"/>
<path d="M-26.5276 47.8995C-14.3691 47.8995 -3.35561 52.5383 4.61829 60.0219C20.5661 75.0146 33.7878 75.0274 49.7356 60.0603C57.7095 52.5383 68.7366 47.8867 80.9088 47.8867C105.239 47.8995 124.949 66.429 124.949 89.3025C124.949 112.176 105.239 130.693 80.9088 130.693C68.7094 130.693 57.6822 126.028 49.7083 118.506C33.7741 103.565 20.5661 103.578 4.61829 118.57C-3.35561 126.067 -14.3691 130.693 -26.5276 130.693C-50.8446 130.693 -70.5544 112.163 -70.5544 89.3025C-70.5544 66.4418 -50.8446 47.8995 -26.5276 47.8995Z" fill="url(#paint3_linear_5481_122465)"/>
</g>
</g>

</svg>
