<svg width="160" height="160" viewBox="0 0 160 160" xmlns="http://www.w3.org/2000/svg">
  <defs>
<radialGradient id="paint0_radial_5481_122251" cx="0" cy="0" r="1" gradientUnits="userSpaceOnUse" gradientTransform="translate(142.62 105.187) rotate(90) scale(231.011)">
<stop offset="0.0885417" stop-color="#EB1000"/>
<stop offset="1" stop-color="#EB1000" stop-opacity="0"/>
</radialGradient>
<linearGradient id="paint1_linear_5481_122251" x1="115.768" y1="-5.14512" x2="23.108" y2="114.991" gradientUnits="userSpaceOnUse">
<stop stop-color="#FF4885"/>
<stop offset="1" stop-color="#FF4885" stop-opacity="0"/>
</linearGradient>
<linearGradient id="paint2_linear_5481_122251" x1="59.3137" y1="-60.4521" x2="77.1884" y2="53.9458" gradientUnits="userSpaceOnUse">
<stop offset="0.15625" stop-color="#7A6AFD"/>
<stop offset="1" stop-color="#7A6AFD" stop-opacity="0"/>
</linearGradient>
<linearGradient id="paint3_linear_5481_122251" x1="-146.934" y1="169.541" x2="153.819" y2="110.102" gradientUnits="userSpaceOnUse">
<stop stop-color="#30A7FE" stop-opacity="0"/>
<stop offset="0.432292" stop-color="#30A7FE" stop-opacity="0.994652"/>
<stop offset="0.609375" stop-color="#30A7FE"/>
<stop offset="1" stop-color="#30A7FE" stop-opacity="0"/>
</linearGradient>
<clipPath id="clip0_5481_122251">
<rect width="160" height="160" rx="10" fill="white"/>
</clipPath>
</defs>
<clipPath id="mask0_5481_122251">
<path fill-rule="evenodd" d="M19.5195 96.8013C19.5195 85.5075 24.2957 75.3291 31.9384 68.1759C33.5184 83.2557 42.199 96.2218 54.5763 103.67C56.345 115.802 62.7282 126.436 71.8873 133.735C67.7717 135.202 63.3388 136.001 58.7193 136.001C37.0699 136.001 19.5195 118.451 19.5195 96.8013ZM88.1119 133.735C92.2275 135.202 96.6603 136.001 101.28 136.001C122.929 136.001 140.48 118.451 140.48 96.8013C140.48 84.5122 134.825 73.5439 125.975 66.3567C124.996 81.1855 117.168 94.1429 105.626 102.095C104.199 114.88 97.6653 126.122 88.1119 133.735ZM116.487 52.1047C111.701 35.8586 96.6749 24 78.879 24C60.7446 24 45.4862 36.314 41.0096 53.0365C46.4781 50.8214 52.4563 49.6016 58.7193 49.6016C66.3752 49.6016 73.6054 51.4243 79.9996 54.6596C86.3938 51.4243 93.6239 49.6016 101.28 49.6016C106.6 49.6016 111.715 50.4818 116.487 52.1047ZM39.6849 62.5249C39.6811 62.7494 39.6792 62.9744 39.6792 63.1998C39.6792 75.4889 45.3342 86.4572 54.184 93.6445C55.0864 79.9788 61.805 67.9025 71.8873 59.8681C67.7717 58.4006 63.3388 57.6016 58.7193 57.6016C51.8115 57.6016 45.3211 59.3883 39.6849 62.5249ZM118.036 61.3531C118.064 61.9651 118.079 62.5808 118.079 63.1998C118.079 74.4937 113.303 84.672 105.66 91.8252C104.307 78.9093 97.7444 67.5441 88.1119 59.8681C92.2275 58.4006 96.6604 57.6016 101.28 57.6016C107.275 57.6016 112.955 58.9473 118.036 61.3531ZM79.9996 129.728C88.0376 124.522 94.0487 116.453 96.5887 106.965C91.1202 109.18 85.142 110.4 78.879 110.4C73.5586 110.4 68.4438 109.519 63.6723 107.896C66.3482 116.981 72.226 124.693 79.9996 129.728ZM97.9191 96.8013C97.9191 82.9969 90.7835 70.8591 79.9996 63.8751C69.2156 70.8591 62.0801 82.9969 62.0801 96.8013C62.0801 97.4203 62.0944 98.036 62.1228 98.648C67.2035 101.054 72.8841 102.4 78.879 102.4C85.7868 102.4 92.2772 100.613 97.9134 97.4762C97.9172 97.2517 97.9191 97.0267 97.9191 96.8013Z" fill="white"/>
</clipPath>
<g clip-path="url(#mask0_5481_122251)">
<g clip-path="url(#clip0_5481_122251)">
<rect width="160" height="160" rx="10" fill="#D9F4FD"/>
<circle cx="142.62" cy="105.187" r="231.011" fill="url(#paint0_radial_5481_122251)"/>
<path d="M-14.3999 50.1137C-16.9679 -5.18932 25.7823 -52.103 81.0853 -54.6709C136.388 -57.2388 183.302 -14.4887 185.87 40.8143C188.438 96.1173 145.688 143.031 90.3846 145.599C35.0817 148.167 -11.832 105.417 -14.3999 50.1137Z" fill="url(#paint1_linear_5481_122251)"/>
<path d="M40.4184 -110.716C27.9428 -118.436 12.1362 -118.483 -0.385738 -110.838L-125.628 -34.3691C-137.894 -26.8797 -137.914 -9.20217 -125.665 -1.68455L-1.25042 74.676C11.2528 82.3487 27.0594 82.3396 39.5518 74.6486L163.71 -1.78335C175.895 -9.28493 175.917 -26.8637 163.748 -34.3936L40.4184 -110.716Z" fill="url(#paint2_linear_5481_122251)"/>
<path d="M-79.7631 76.5289C-53.9489 76.5289 -30.5656 86.9766 -13.6359 103.831C20.2235 137.599 48.2951 137.628 82.1545 103.918C99.0842 86.9766 122.496 76.5 148.34 76.5C199.997 76.5289 241.844 118.262 241.844 169.779C241.844 221.296 199.997 263 148.34 263C122.439 263 99.0263 252.495 82.0966 235.553C48.2661 201.901 20.2235 201.93 -13.6359 235.697C-30.5656 252.581 -53.9489 263 -79.7631 263C-131.392 263 -173.238 221.267 -173.238 169.779C-173.238 118.291 -131.392 76.5289 -79.7631 76.5289Z" fill="url(#paint3_linear_5481_122251)"/>
</g>
</g>

</svg>
