<svg width="48" height="48" viewBox="0 0 48 48" xmlns="http://www.w3.org/2000/svg">
  <defs>
<radialGradient id="paint0_radial_5481_122289" cx="0" cy="0" r="1" gradientUnits="userSpaceOnUse" gradientTransform="translate(40.3389 30.5713) rotate(90) scale(60.2686)">
<stop offset="0.0885417" stop-color="#EB1000"/>
<stop offset="1" stop-color="#EB1000" stop-opacity="0"/>
</radialGradient>
<linearGradient id="paint1_linear_5481_122289" x1="33.3301" y1="1.78672" x2="9.15592" y2="33.1292" gradientUnits="userSpaceOnUse">
<stop stop-color="#FF4885"/>
<stop offset="1" stop-color="#FF4885" stop-opacity="0"/>
</linearGradient>
<linearGradient id="paint2_linear_5481_122289" x1="18.6021" y1="-12.6418" x2="23.2654" y2="17.2035" gradientUnits="userSpaceOnUse">
<stop offset="0.15625" stop-color="#7A6AFD"/>
<stop offset="1" stop-color="#7A6AFD" stop-opacity="0"/>
</linearGradient>
<linearGradient id="paint3_linear_5481_122289" x1="-35.2057" y1="47.3605" x2="43.2579" y2="31.8533" gradientUnits="userSpaceOnUse">
<stop stop-color="#30A7FE" stop-opacity="0"/>
<stop offset="0.432292" stop-color="#30A7FE" stop-opacity="0.994652"/>
<stop offset="0.609375" stop-color="#30A7FE"/>
<stop offset="1" stop-color="#30A7FE" stop-opacity="0"/>
</linearGradient>
<clipPath id="clip0_5481_122289">
<rect x="3.12891" y="3.12891" width="41.7425" height="41.7425" rx="10" fill="white"/>
</clipPath>
</defs>
<clipPath id="mask0_5481_122289">
<path fill-rule="evenodd" d="M16.1969 13.6496C16.1969 9.34178 19.689 5.84961 23.9969 5.84961C28.3047 5.84961 31.7969 9.34178 31.7969 13.6496C31.7969 14.3124 31.2596 14.8496 30.5969 14.8496C29.9341 14.8496 29.3969 14.3124 29.3969 13.6496C29.3969 10.6673 26.9792 8.24961 23.9969 8.24961C21.0145 8.24961 18.5969 10.6673 18.5969 13.6496V19.9496L34.6878 19.9496C36.9019 19.9496 38.6969 21.5866 38.6969 23.6059V35.7934C38.6969 37.8126 36.9019 39.4496 34.6878 39.4496H13.306C11.0918 39.4496 9.29688 37.8126 9.29688 35.7934V23.6059C9.29688 21.5866 11.0918 19.9496 13.306 19.9496L16.1969 19.9496V13.6496ZM22.302 30.1955C22.4498 30.3447 22.6172 30.4726 22.798 30.5769V32.8496C22.798 33.5124 23.3353 34.0496 23.998 34.0496C24.6608 34.0496 25.198 33.5124 25.198 32.8496V30.5769C25.3789 30.4726 25.5463 30.3447 25.6941 30.1955C25.8059 30.0875 25.9059 29.9635 25.9941 29.8314C26.082 29.7035 26.1539 29.5635 26.2141 29.4195C26.2738 29.2715 26.3219 29.1236 26.35 28.9676C26.382 28.8156 26.398 28.6555 26.398 28.4996C26.398 28.3436 26.382 28.1836 26.35 28.0314C26.3219 27.8795 26.2738 27.7275 26.2141 27.5836C26.1539 27.4355 26.082 27.2996 25.9941 27.1676C25.9059 27.0355 25.8059 26.9115 25.6941 26.8035C25.25 26.3555 24.6301 26.0996 23.998 26.0996C23.366 26.0996 22.7461 26.3555 22.302 26.8035C22.1898 26.9115 22.0898 27.0355 22.002 27.1676C21.918 27.2996 21.8418 27.4355 21.782 27.5836C21.7219 27.7275 21.6738 27.8795 21.6461 28.0314C21.6141 28.1836 21.598 28.3436 21.598 28.4996C21.598 28.6555 21.6141 28.8156 21.6461 28.9676C21.6738 29.1236 21.7219 29.2715 21.782 29.4195C21.8418 29.5635 21.918 29.7035 22.002 29.8314C22.0898 29.9635 22.1898 30.0875 22.302 30.1955Z" fill="white"/>
</clipPath>
<g clip-path="url(#mask0_5481_122289)">
<g clip-path="url(#clip0_5481_122289)">
<rect x="3.12891" y="3.12891" width="41.7425" height="41.7425" rx="10" fill="#D9F4FD"/>
<circle cx="40.3389" cy="30.5713" r="60.2686" fill="url(#paint0_radial_5481_122289)"/>
<path d="M-0.629539 16.2032C-1.29949 1.77519 9.85363 -10.4641 24.2817 -11.1341C38.7097 -11.804 50.949 -0.650915 51.619 13.7771C52.2889 28.2051 41.1358 40.4445 26.7078 41.1144C12.2797 41.7844 0.0404127 30.6313 -0.629539 16.2032Z" fill="url(#paint1_linear_5481_122289)"/>
<path d="M13.6724 -25.7552C10.4177 -27.7693 6.2939 -27.7816 3.02703 -25.7871L-29.6475 -5.83703C-32.8476 -3.88314 -32.8529 0.728775 -29.6572 2.69005L2.80145 22.6118C6.06342 24.6136 10.1872 24.6112 13.4464 22.6047L45.8382 2.66428C49.017 0.707183 49.0228 -3.87896 45.8479 -5.84343L13.6724 -25.7552Z" fill="url(#paint2_linear_5481_122289)"/>
<path d="M-17.6816 23.0944C-10.9469 23.0944 -4.84639 25.8201 -0.429584 30.2174C8.40403 39.027 15.7276 39.0345 24.5612 30.24C28.978 25.8201 35.0861 23.0869 41.8283 23.0869C55.3052 23.0944 66.2227 33.9822 66.2227 47.4225C66.2227 60.8628 55.3052 71.743 41.8283 71.743C35.071 71.743 28.9629 69.0022 24.5461 64.5824C15.7201 55.8029 8.40403 55.8104 -0.429584 64.62C-4.84639 69.0248 -10.9469 71.743 -17.6816 71.743C-31.1509 71.743 -42.0684 60.8553 -42.0684 47.4225C-42.0684 33.9897 -31.1509 23.0944 -17.6816 23.0944Z" fill="url(#paint3_linear_5481_122289)"/>
</g>
</g>

</svg>
