<svg width="96" height="96" viewBox="0 0 96 96" xmlns="http://www.w3.org/2000/svg">
  <defs>
<radialGradient id="paint0_radial_5481_122540" cx="0" cy="0" r="1" gradientUnits="userSpaceOnUse" gradientTransform="translate(85.5714 63.1124) rotate(90) scale(138.607)">
<stop offset="0.0885417" stop-color="#EB1000"/>
<stop offset="1" stop-color="#EB1000" stop-opacity="0"/>
</radialGradient>
<linearGradient id="paint1_linear_5481_122540" x1="69.4617" y1="-3.08825" x2="13.8656" y2="68.9935" gradientUnits="userSpaceOnUse">
<stop stop-color="#FF4885"/>
<stop offset="1" stop-color="#FF4885" stop-opacity="0"/>
</linearGradient>
<linearGradient id="paint2_linear_5481_122540" x1="35.5898" y1="-36.2716" x2="46.3146" y2="32.3671" gradientUnits="userSpaceOnUse">
<stop offset="0.15625" stop-color="#7A6AFD"/>
<stop offset="1" stop-color="#7A6AFD" stop-opacity="0"/>
</linearGradient>
<linearGradient id="paint3_linear_5481_122540" x1="-88.1609" y1="101.725" x2="92.2907" y2="66.0615" gradientUnits="userSpaceOnUse">
<stop stop-color="#30A7FE" stop-opacity="0"/>
<stop offset="0.432292" stop-color="#30A7FE" stop-opacity="0.994652"/>
<stop offset="0.609375" stop-color="#30A7FE"/>
<stop offset="1" stop-color="#30A7FE" stop-opacity="0"/>
</linearGradient>
<clipPath id="clip0_5481_122540">
<rect width="96" height="96" rx="10" fill="white"/>
</clipPath>
</defs>
<clipPath id="mask0_5481_122540">
<path fill-rule="evenodd" d="M24.2305 16.25C19.8122 16.25 16.2305 19.8317 16.2305 24.25V34.8718C16.2305 39.2901 19.8122 42.8718 24.2305 42.8718H34.8523C39.2705 42.8718 42.8523 39.2901 42.8523 34.8718V24.25C42.8523 19.8317 39.2705 16.25 34.8522 16.25H24.2305ZM54.8768 17.3605C53.7729 17.3231 52.8476 18.1877 52.8102 19.2916C52.7728 20.3956 53.6374 21.3208 54.7413 21.3582C57.5907 21.4548 60.5421 22.2769 62.7766 24.4386C64.807 26.4029 66.4951 29.7159 66.7534 35.3162L62.6419 31.2047C61.8609 30.4236 60.5945 30.4236 59.8135 31.2047C59.0324 31.9857 59.0324 33.2521 59.8135 34.0331L66.9582 41.1778C67.7392 41.9588 69.0055 41.9588 69.7866 41.1778L76.9543 34.0101C77.7353 33.229 77.7353 31.9627 76.9543 31.1816C76.1733 30.4006 74.9069 30.4006 74.1259 31.1816L70.7193 34.5882C70.3413 28.5371 68.4181 24.331 65.5579 21.5638C62.3824 18.4917 58.3445 17.478 54.8768 17.3605ZM28.9527 54.8205C28.1717 54.0394 26.9053 54.0394 26.1243 54.8205L18.9566 61.9882C18.1755 62.7692 18.1755 64.0356 18.9566 64.8166C19.7376 65.5976 21.0039 65.5976 21.785 64.8166L25.1913 61.4103C25.5695 67.4611 27.4926 71.6671 30.3528 74.4342C33.5283 77.5064 37.5661 78.52 41.0338 78.6375C42.1378 78.6749 43.063 77.8103 43.1004 76.7064C43.1378 75.6025 42.2732 74.6772 41.1693 74.6398C38.32 74.5433 35.3685 73.7212 33.134 71.5594C31.1037 69.5951 29.4155 66.2821 29.1572 60.6818L33.2689 64.7936C34.05 65.5746 35.3163 65.5746 36.0974 64.7936C36.8784 64.0125 36.8784 62.7462 36.0974 61.9651L28.9527 54.8205ZM61.1509 53.1289C56.7326 53.1289 53.1509 56.7106 53.1509 61.1289V71.7507C53.1509 76.169 56.7326 79.7507 61.1509 79.7507H71.7727C76.1909 79.7507 79.7727 76.169 79.7727 71.7507V61.1289C79.7727 56.7106 76.1909 53.1289 71.7727 53.1289H61.1509Z" fill="white"/>
</clipPath>
<g clip-path="url(#mask0_5481_122540)">
<g clip-path="url(#clip0_5481_122540)">
<rect width="96" height="96" rx="10" fill="#D9F4FD"/>
<circle cx="85.5714" cy="63.1124" r="138.607" fill="url(#paint0_radial_5481_122540)"/>
<path d="M-8.63919 30.067C-10.18 -3.11477 15.4702 -31.263 48.652 -32.8037C81.8337 -34.3445 109.982 -8.69438 111.523 24.4874C113.063 57.6692 87.4133 85.8174 54.2316 87.3582C21.0498 88.8989 -7.09842 63.2488 -8.63919 30.067Z" fill="url(#paint1_linear_5481_122540)"/>
<path d="M24.2526 -66.43C16.7672 -71.0619 7.28331 -71.0903 -0.22988 -66.5032L-75.3753 -20.6218C-82.7348 -16.1282 -82.7471 -5.52169 -75.3976 -1.01111L-0.748691 44.8052C6.75324 49.4089 16.2372 49.4034 23.7327 44.7888L98.2278 -1.0704C105.538 -5.57135 105.552 -16.1186 98.2501 -20.6366L24.2526 -66.43Z" fill="url(#paint2_linear_5481_122540)"/>
<path d="M-47.8586 45.9177C-32.3701 45.9177 -18.3401 52.1863 -8.18231 62.2992C12.1334 82.5597 28.9763 82.577 49.2919 62.3512C59.4498 52.1863 73.4971 45.9004 89.003 45.9004C119.997 45.9177 145.105 70.9575 145.105 101.868C145.105 132.778 119.997 157.8 89.003 157.8C73.4624 157.8 59.415 151.497 49.2572 141.332C28.9589 121.141 12.1334 121.158 -8.18231 141.419C-18.3401 151.549 -32.3701 157.8 -47.8586 157.8C-78.8357 157.8 -103.944 132.761 -103.944 101.868C-103.944 70.9749 -78.8357 45.9177 -47.8586 45.9177Z" fill="url(#paint3_linear_5481_122540)"/>
</g>
</g>

</svg>
