<svg width="96" height="96" viewBox="0 0 96 96" xmlns="http://www.w3.org/2000/svg">
  <defs>
<radialGradient id="paint0_radial_5481_122509" cx="0" cy="0" r="1" gradientUnits="userSpaceOnUse" gradientTransform="translate(80.4161 60.8848) rotate(90) scale(120.537)">
<stop offset="0.0885417" stop-color="#EB1000"/>
<stop offset="1" stop-color="#EB1000" stop-opacity="0"/>
</radialGradient>
<linearGradient id="paint1_linear_5481_122509" x1="66.4063" y1="3.31564" x2="18.0579" y2="66.0005" gradientUnits="userSpaceOnUse">
<stop stop-color="#FF4885"/>
<stop offset="1" stop-color="#FF4885" stop-opacity="0"/>
</linearGradient>
<linearGradient id="paint2_linear_5481_122509" x1="36.9502" y1="-25.5415" x2="46.2768" y2="34.1491" gradientUnits="userSpaceOnUse">
<stop offset="0.15625" stop-color="#7A6AFD"/>
<stop offset="1" stop-color="#7A6AFD" stop-opacity="0"/>
</linearGradient>
<linearGradient id="paint3_linear_5481_122509" x1="-70.6653" y1="94.4631" x2="86.2618" y2="63.4489" gradientUnits="userSpaceOnUse">
<stop stop-color="#30A7FE" stop-opacity="0"/>
<stop offset="0.432292" stop-color="#30A7FE" stop-opacity="0.994652"/>
<stop offset="0.609375" stop-color="#30A7FE"/>
<stop offset="1" stop-color="#30A7FE" stop-opacity="0"/>
</linearGradient>
<clipPath id="clip0_5481_122509">
<rect x="6" y="6" width="83.485" height="83.485" rx="10" fill="white"/>
</clipPath>
</defs>
<clipPath id="mask0_5481_122509">
<path fill-rule="evenodd" d="M47.4005 14.8789C41.0381 14.8789 35.8805 20.0366 35.8805 26.3989V43.5589C35.8805 49.9212 41.0382 55.0789 47.4005 55.0789H48.9605C55.3228 55.0789 60.4805 49.9212 60.4805 43.5589V26.3989C60.4805 20.0366 55.3228 14.8789 48.9605 14.8789H47.4005ZM45.4805 69.3441C32.0025 67.9906 21.4805 56.6135 21.4805 42.7789V40.0789C21.4805 38.7534 22.555 37.6789 23.8805 37.6789C25.206 37.6789 26.2805 38.7534 26.2805 40.0789V42.7789C26.2805 54.8739 36.0854 64.6789 48.1805 64.6789C60.2755 64.6789 70.0805 54.8739 70.0805 42.7789V40.0789C70.0805 38.7534 71.155 37.6789 72.4805 37.6789C73.806 37.6789 74.8805 38.7534 74.8805 40.0789V42.7789C74.8805 56.8182 64.0449 68.3266 50.2805 69.3975V76.6789H62.2805C63.606 76.6789 64.6805 77.7534 64.6805 79.0789C64.6805 80.4044 63.606 81.4789 62.2805 81.4789H34.0805C32.755 81.4789 31.6805 80.4044 31.6805 79.0789C31.6805 77.7534 32.755 76.6789 34.0805 76.6789H45.4805V69.3441Z" fill="white"/>
</clipPath>
<g clip-path="url(#mask0_5481_122509)">
<g clip-path="url(#clip0_5481_122509)">
<rect x="6" y="6" width="83.485" height="83.485" rx="10" fill="#D9F4FD"/>
<circle cx="80.4161" cy="60.8848" r="120.537" fill="url(#paint0_radial_5481_122509)"/>
<path d="M-1.51297 32.1486C-2.85287 3.29258 19.4534 -21.1861 48.3094 -22.526C77.1655 -23.8659 101.644 -1.55964 102.984 27.2964C104.324 56.1525 82.0177 80.6311 53.1616 81.971C24.3056 83.3109 -0.173066 61.0047 -1.51297 32.1486Z" fill="url(#paint1_linear_5481_122509)"/>
<path d="M27.091 -51.7683C20.5814 -55.7964 12.3339 -55.821 5.80015 -51.8319L-59.5489 -11.9319C-65.9491 -8.0241 -65.9597 1.19973 -59.5683 5.12228L5.34897 44.9658C11.8729 48.9693 20.1205 48.9645 26.6388 44.9515L91.4224 5.07073C97.78 1.15654 97.7916 -8.01573 91.4418 -11.9447L27.091 -51.7683Z" fill="url(#paint2_linear_5481_122509)"/>
<path d="M-35.617 45.9311C-22.1476 45.9311 -9.94668 51.3825 -1.11306 60.177C16.5542 77.7962 31.2013 77.8113 48.8686 60.2222C57.7022 51.3825 69.9182 45.916 83.4027 45.916C110.357 45.9311 132.191 67.7066 132.191 94.5872C132.191 121.468 110.357 143.228 83.4027 143.228C69.888 143.228 57.672 137.747 48.8384 128.907C31.1862 111.348 16.5542 111.363 -1.11306 128.982C-9.94668 137.792 -22.1476 143.228 -35.617 143.228C-62.5557 143.228 -84.3906 121.453 -84.3906 94.5872C-84.3906 67.7217 -62.5557 45.9311 -35.617 45.9311Z" fill="url(#paint3_linear_5481_122509)"/>
</g>
</g>

</svg>
