<svg width="48" height="48" viewBox="0 0 48 48" xmlns="http://www.w3.org/2000/svg">
  <defs>
<radialGradient id="paint0_radial_5481_122270" cx="0" cy="0" r="1" gradientUnits="userSpaceOnUse" gradientTransform="translate(39.3954 29.88) rotate(90) scale(53.1036 56.3329)">
<stop offset="0.0885417" stop-color="#EB1000"/>
<stop offset="1" stop-color="#EB1000" stop-opacity="0"/>
</radialGradient>
<linearGradient id="paint1_linear_5481_122270" x1="32.8458" y1="4.51715" x2="11.8964" y2="33.3303" gradientUnits="userSpaceOnUse">
<stop stop-color="#FF4885"/>
<stop offset="1" stop-color="#FF4885" stop-opacity="0"/>
</linearGradient>
<linearGradient id="paint2_linear_5481_122270" x1="19.0834" y1="-8.19587" x2="22.9671" y2="18.1713" gradientUnits="userSpaceOnUse">
<stop offset="0.15625" stop-color="#7A6AFD"/>
<stop offset="1" stop-color="#7A6AFD" stop-opacity="0"/>
</linearGradient>
<linearGradient id="paint3_linear_5481_122270" x1="-31.2111" y1="44.673" x2="41.7847" y2="29.3692" gradientUnits="userSpaceOnUse">
<stop stop-color="#30A7FE" stop-opacity="0"/>
<stop offset="0.432292" stop-color="#30A7FE" stop-opacity="0.994652"/>
<stop offset="0.609375" stop-color="#30A7FE"/>
<stop offset="1" stop-color="#30A7FE" stop-opacity="0"/>
</linearGradient>
<clipPath id="clip0_5481_122270">
<rect x="4.61719" y="5.7002" width="39.0166" height="36.78" rx="10" fill="white"/>
</clipPath>
</defs>
<clipPath id="mask0_5481_122270">
<path d="M38.1078 8.40039H9.88984C7.23784 8.40039 5.08984 10.5484 5.08984 13.2004V26.4004C5.08984 29.0524 7.23784 31.2004 9.88984 31.2004H20.6988V38.4004H17.6958C17.0328 38.4004 16.4958 38.9374 16.4958 39.6004C16.4958 40.2634 17.0328 40.8004 17.6958 40.8004H30.3018C30.9648 40.8004 31.5018 40.2634 31.5018 39.6004C31.5018 38.9374 30.9648 38.4004 30.3018 38.4004H27.2988V31.2004H38.1078C40.7598 31.2004 42.9078 29.0524 42.9078 26.4004V13.2004C42.9078 10.5484 40.7598 8.40039 38.1078 8.40039ZM24.0048 14.4004C23.3418 14.4004 22.8048 13.8634 22.8048 13.2004C22.8048 12.5374 23.3418 12.0004 24.0018 12.0004H24.0048C24.6678 12.0004 25.2048 12.5374 25.2048 13.2004C25.2048 13.8634 24.6678 14.4004 24.0048 14.4004Z" fill="white"/>
</clipPath>
<g clip-path="url(#mask0_5481_122270)">
<g clip-path="url(#clip0_5481_122270)">
<rect x="4.61719" y="5.7002" width="39.0166" height="36.78" rx="10" fill="#D9F4FD"/>
<ellipse cx="39.3954" cy="29.88" rx="56.3329" ry="53.1036" fill="url(#paint0_radial_5481_122270)"/>
<path d="M1.10383 17.2198C0.477625 4.50699 10.9024 -6.27728 24.3883 -6.86758C37.8741 -7.45789 49.3142 2.36931 49.9404 15.0821C50.5666 27.7949 40.1418 38.5791 26.6559 39.1694C13.1701 39.7597 1.73003 29.9325 1.10383 17.2198Z" fill="url(#paint1_linear_5481_122270)"/>
<path d="M14.4757 -19.7503C11.4335 -21.5249 7.57896 -21.5358 4.52543 -19.7783L-26.0154 -2.20004C-29.0065 -0.478437 -29.0115 3.58519 -26.0245 5.31331L4.31457 22.8667C7.36353 24.6305 11.218 24.6284 14.2644 22.8604L44.5409 5.29059C47.5121 3.56617 47.5175 -0.474751 44.5499 -2.20569L14.4757 -19.7503Z" fill="url(#paint2_linear_5481_122270)"/>
<path d="M-14.8313 23.2918C-8.53642 23.2918 -2.83432 25.6935 1.29406 29.568C9.55082 37.3302 16.3962 37.3369 24.6529 29.5879C28.7813 25.6935 34.4905 23.2852 40.7924 23.2852C53.3892 23.2918 63.5938 32.8852 63.5938 44.7276C63.5938 56.5701 53.3892 66.1568 40.7924 66.1568C34.4763 66.1568 28.7672 63.7419 24.6388 59.8475C16.3891 52.1118 9.55082 52.1184 1.29406 59.8807C-2.83432 63.7618 -8.53642 66.1568 -14.8313 66.1568C-27.4211 66.1568 -37.6256 56.5635 -37.6256 44.7276C-37.6256 32.8918 -27.4211 23.2918 -14.8313 23.2918Z" fill="url(#paint3_linear_5481_122270)"/>
</g>
</g>

</svg>
