<svg width="48" height="48" viewBox="0 0 48 48" xmlns="http://www.w3.org/2000/svg">
  <defs>
<radialGradient id="paint0_radial_5481_122378" cx="0" cy="0" r="1" gradientUnits="userSpaceOnUse" gradientTransform="translate(42.7877 31.5552) rotate(90) scale(69.3033)">
<stop offset="0.0885417" stop-color="#EB1000"/>
<stop offset="1" stop-color="#EB1000" stop-opacity="0"/>
</radialGradient>
<linearGradient id="paint1_linear_5481_122378" x1="34.7309" y1="-1.54315" x2="6.93278" y2="34.4977" gradientUnits="userSpaceOnUse">
<stop stop-color="#FF4885"/>
<stop offset="1" stop-color="#FF4885" stop-opacity="0"/>
</linearGradient>
<linearGradient id="paint2_linear_5481_122378" x1="17.7929" y1="-18.1348" x2="23.1553" y2="16.1845" gradientUnits="userSpaceOnUse">
<stop offset="0.15625" stop-color="#7A6AFD"/>
<stop offset="1" stop-color="#7A6AFD" stop-opacity="0"/>
</linearGradient>
<linearGradient id="paint3_linear_5481_122378" x1="-44.0785" y1="50.8616" x2="46.1473" y2="33.0298" gradientUnits="userSpaceOnUse">
<stop stop-color="#30A7FE" stop-opacity="0"/>
<stop offset="0.432292" stop-color="#30A7FE" stop-opacity="0.994652"/>
<stop offset="0.609375" stop-color="#30A7FE"/>
<stop offset="1" stop-color="#30A7FE" stop-opacity="0"/>
</linearGradient>
<clipPath id="clip0_5481_122378">
<rect width="48" height="48" rx="10" fill="white"/>
</clipPath>
</defs>
<clipPath id="mask0_5481_122378">
<path fill-rule="evenodd" d="M14.3115 11.5469C14.3115 12.9276 15.4308 14.0469 16.8115 14.0469L19.4373 18.5948C18.2041 19.6371 17.3325 21.0938 17.0373 22.75H11.7866C11.3544 22.0027 10.5464 21.5 9.62109 21.5C8.24038 21.5 7.12109 22.6193 7.12109 24C7.12109 25.3807 8.24038 26.5 9.62109 26.5C10.5464 26.5 11.3544 25.9973 11.7866 25.25H17.0374C17.3327 26.9061 18.2044 28.3626 19.4375 29.4048L16.8115 33.9531C15.4308 33.9531 14.3115 35.0724 14.3115 36.4531C14.3115 37.8338 15.4308 38.9531 16.8115 38.9531C18.1922 38.9531 19.3115 37.8338 19.3115 36.4531C19.3115 35.9976 19.1897 35.5705 18.9768 35.2027L21.6017 30.6563C22.3509 30.9264 23.1589 31.0737 24.0012 31.0737C24.8437 31.0737 25.6518 30.9264 26.4011 30.6562L29.0263 35.2031C28.8136 35.5708 28.6919 35.9978 28.6919 36.4531C28.6919 37.8338 29.8112 38.9531 31.1919 38.9531C32.5726 38.9531 33.6919 37.8338 33.6919 36.4531C33.6919 35.0724 32.5726 33.9531 31.1919 33.9531C31.1917 33.9531 31.1916 33.9531 31.1914 33.9531L28.5653 29.4045C29.7982 28.3623 30.6697 26.9059 30.965 25.25H36.2163C36.6486 25.9973 37.4565 26.5 38.3818 26.5C39.7625 26.5 40.8818 25.3807 40.8818 24C40.8818 22.6193 39.7625 21.5 38.3818 21.5C37.4565 21.5 36.6486 22.0027 36.2163 22.75L30.9651 22.75C30.6699 21.094 29.7984 19.6374 28.5655 18.5951L31.1914 14.0469H31.1919C32.5726 14.0469 33.6919 12.9276 33.6919 11.5469C33.6919 10.1662 32.5726 9.04688 31.1919 9.04688C29.8112 9.04688 28.6919 10.1662 28.6919 11.5469C28.6919 12.0022 28.8136 12.4292 29.0263 12.7969L26.4014 17.3434C25.652 17.0731 24.8438 16.9258 24.0012 16.9258C23.1588 16.9258 22.3507 17.073 21.6014 17.3432L18.9768 12.7973C19.1897 12.4295 19.3115 12.0024 19.3115 11.5469C19.3115 10.1662 18.1922 9.04688 16.8115 9.04688C15.4308 9.04688 14.3115 10.1662 14.3115 11.5469Z" fill="white"/>
</clipPath>
<g clip-path="url(#mask0_5481_122378)">
<g clip-path="url(#clip0_5481_122378)">
<rect width="48" height="48" rx="10" fill="#D9F4FD"/>
<circle cx="42.7877" cy="31.5552" r="69.3033" fill="url(#paint0_radial_5481_122378)"/>
<path d="M-4.31959 15.0345C-5.08998 -1.55641 7.73508 -15.6305 24.326 -16.4009C40.9169 -17.1713 54.991 -4.34621 55.7613 12.2447C56.5317 28.8356 43.7067 42.9097 27.1158 43.6801C10.5249 44.4504 -3.54921 31.6254 -4.31959 15.0345Z" fill="url(#paint1_linear_5481_122378)"/>
<path d="M12.1243 -33.214C8.38167 -35.53 3.6397 -35.5442 -0.116893 -33.2506L-37.6896 -10.3099C-41.3694 -8.06314 -41.3755 -2.75987 -37.7007 -0.504581L-0.376298 22.4036C3.37467 24.7054 8.11665 24.7027 11.8644 22.3954L49.1119 -0.534222C52.7672 -2.7847 52.7739 -8.05833 49.1231 -10.3173L12.1243 -33.214Z" fill="url(#paint2_linear_5481_122378)"/>
<path d="M-23.9274 22.9579C-16.1831 22.9579 -9.16812 26.0922 -4.0892 31.1486C6.06863 41.2789 14.4901 41.2875 24.6479 31.1746C29.7268 26.0922 36.7505 22.9492 44.5034 22.9492C60.0006 22.9579 72.5547 35.4778 72.5547 50.9329C72.5547 66.388 60.0006 78.8992 44.5034 78.8992C36.7331 78.8992 29.7095 75.7476 24.6306 70.6652C14.4814 60.5696 6.06863 60.5782 -4.0892 70.7085C-9.16812 75.7736 -16.1831 78.8992 -23.9274 78.8992C-39.4159 78.8992 -51.9699 66.3793 -51.9699 50.9329C-51.9699 35.4865 -39.4159 22.9579 -23.9274 22.9579Z" fill="url(#paint3_linear_5481_122378)"/>
</g>
</g>

</svg>
