<svg width="160" height="160" viewBox="0 0 160 160" xmlns="http://www.w3.org/2000/svg">
  <defs>
<radialGradient id="paint0_radial_5481_122194" cx="0" cy="0" r="1" gradientUnits="userSpaceOnUse" gradientTransform="translate(142.62 105.187) rotate(90) scale(231.011)">
<stop offset="0.0885417" stop-color="#EB1000"/>
<stop offset="1" stop-color="#EB1000" stop-opacity="0"/>
</radialGradient>
<linearGradient id="paint1_linear_5481_122194" x1="115.768" y1="-5.14512" x2="23.108" y2="114.991" gradientUnits="userSpaceOnUse">
<stop stop-color="#FF4885"/>
<stop offset="1" stop-color="#FF4885" stop-opacity="0"/>
</linearGradient>
<linearGradient id="paint2_linear_5481_122194" x1="59.3137" y1="-60.4521" x2="77.1884" y2="53.9458" gradientUnits="userSpaceOnUse">
<stop offset="0.15625" stop-color="#7A6AFD"/>
<stop offset="1" stop-color="#7A6AFD" stop-opacity="0"/>
</linearGradient>
<linearGradient id="paint3_linear_5481_122194" x1="-146.934" y1="169.541" x2="153.819" y2="110.102" gradientUnits="userSpaceOnUse">
<stop stop-color="#30A7FE" stop-opacity="0"/>
<stop offset="0.432292" stop-color="#30A7FE" stop-opacity="0.994652"/>
<stop offset="0.609375" stop-color="#30A7FE"/>
<stop offset="1" stop-color="#30A7FE" stop-opacity="0"/>
</linearGradient>
<clipPath id="clip0_5481_122194">
<rect width="160" height="160" rx="10" fill="white"/>
</clipPath>
</defs>
<clipPath id="mask0_5481_122194">
<path d="M68.9019 115.017V58.3742L127.511 46.6904V90.1377C126.024 89.4037 124.42 88.877 122.775 88.5466C117.789 87.5454 112.022 88.2182 106.553 90.5678C101.083 92.9174 96.6254 96.6369 93.9193 100.942C91.224 105.231 90.0811 110.482 92.1764 115.359C94.2718 120.237 98.8674 123.023 103.833 124.02C108.819 125.021 114.586 124.349 120.055 121.999C125.525 119.649 129.983 115.93 132.689 111.625C134.152 109.297 135.158 106.685 135.436 104.003C135.485 103.753 135.511 103.494 135.511 103.229V102.813C135.515 102.61 135.515 102.407 135.511 102.204V33.2586C135.511 24.4275 127.434 17.8022 118.774 19.5288L72.1647 28.8208C65.6168 30.1262 60.9019 35.8738 60.9019 42.5506V103.249C59.4153 102.515 57.8107 101.988 56.1654 101.658C51.1797 100.657 45.413 101.33 39.9435 103.679C34.4739 106.029 30.016 109.748 27.31 114.054C24.6147 118.342 23.4717 123.593 25.567 128.471C27.6624 133.348 32.258 136.134 37.2238 137.132C42.2095 138.133 47.9761 137.46 53.4457 135.11C58.9153 132.761 63.3731 129.041 66.0792 124.736C67.8909 121.853 69.0013 118.536 68.8982 115.189C68.9006 115.132 68.9019 115.075 68.9019 115.017Z" fill="#292929"/>
</clipPath>
<g clip-path="url(#mask0_5481_122194)">
<g clip-path="url(#clip0_5481_122194)">
<rect width="160" height="160" rx="10" fill="#D9F4FD"/>
<circle cx="142.62" cy="105.187" r="231.011" fill="url(#paint0_radial_5481_122194)"/>
<path d="M-14.3999 50.1137C-16.9679 -5.18932 25.7823 -52.103 81.0853 -54.6709C136.388 -57.2388 183.302 -14.4887 185.87 40.8143C188.438 96.1173 145.688 143.031 90.3846 145.599C35.0817 148.167 -11.832 105.417 -14.3999 50.1137Z" fill="url(#paint1_linear_5481_122194)"/>
<path d="M40.4184 -110.716C27.9428 -118.436 12.1362 -118.483 -0.385738 -110.838L-125.628 -34.3691C-137.894 -26.8797 -137.914 -9.20217 -125.665 -1.68455L-1.25042 74.676C11.2528 82.3487 27.0594 82.3396 39.5518 74.6486L163.71 -1.78335C175.895 -9.28493 175.917 -26.8637 163.748 -34.3936L40.4184 -110.716Z" fill="url(#paint2_linear_5481_122194)"/>
<path d="M-79.7631 76.5289C-53.9489 76.5289 -30.5656 86.9766 -13.6359 103.831C20.2235 137.599 48.2951 137.628 82.1545 103.918C99.0842 86.9766 122.496 76.5 148.34 76.5C199.997 76.5289 241.844 118.262 241.844 169.779C241.844 221.296 199.997 263 148.34 263C122.439 263 99.0263 252.495 82.0966 235.553C48.2661 201.901 20.2235 201.93 -13.6359 235.697C-30.5656 252.581 -53.9489 263 -79.7631 263C-131.392 263 -173.238 221.267 -173.238 169.779C-173.238 118.291 -131.392 76.5289 -79.7631 76.5289Z" fill="url(#paint3_linear_5481_122194)"/>
</g>
</g>

</svg>
