<svg width="160" height="160" viewBox="0 0 160 160" xmlns="http://www.w3.org/2000/svg">
  <defs>
<radialGradient id="paint0_radial_5481_122236" cx="0" cy="0" r="1" gradientUnits="userSpaceOnUse" gradientTransform="translate(142.62 105.187) rotate(90) scale(231.011)">
<stop offset="0.0885417" stop-color="#EB1000"/>
<stop offset="1" stop-color="#EB1000" stop-opacity="0"/>
</radialGradient>
<linearGradient id="paint1_linear_5481_122236" x1="115.768" y1="-5.14512" x2="23.108" y2="114.991" gradientUnits="userSpaceOnUse">
<stop stop-color="#FF4885"/>
<stop offset="1" stop-color="#FF4885" stop-opacity="0"/>
</linearGradient>
<linearGradient id="paint2_linear_5481_122236" x1="59.3137" y1="-60.4521" x2="77.1884" y2="53.9458" gradientUnits="userSpaceOnUse">
<stop offset="0.15625" stop-color="#7A6AFD"/>
<stop offset="1" stop-color="#7A6AFD" stop-opacity="0"/>
</linearGradient>
<linearGradient id="paint3_linear_5481_122236" x1="-146.934" y1="169.541" x2="153.819" y2="110.102" gradientUnits="userSpaceOnUse">
<stop stop-color="#30A7FE" stop-opacity="0"/>
<stop offset="0.432292" stop-color="#30A7FE" stop-opacity="0.994652"/>
<stop offset="0.609375" stop-color="#30A7FE"/>
<stop offset="1" stop-color="#30A7FE" stop-opacity="0"/>
</linearGradient>
<clipPath id="clip0_5481_122236">
<rect width="160" height="160" rx="10" fill="white"/>
</clipPath>
</defs>
<clipPath id="mask0_5481_122236">
<path fill-rule="evenodd" d="M126.811 40.1866C127.359 42.3267 126.068 44.5057 123.928 45.0535L99.1369 51.3994C96.9968 51.9472 94.8177 50.6563 94.2699 48.5162C93.7221 46.3761 95.0129 44.1971 97.1531 43.6492L112.386 39.7501C112.305 39.695 112.225 39.6366 112.147 39.5748C103.294 32.5476 92.1005 28.3529 79.9161 28.3529C64.3532 28.3529 50.3943 35.1995 40.8779 46.0584C39.4219 47.7198 36.8947 47.8863 35.2333 46.4303C33.5719 44.9743 33.4054 42.4471 34.8614 40.7857C45.8322 28.2671 61.9523 20.3529 79.9161 20.3529C93.7825 20.3529 106.558 25.0704 116.71 32.9851L112.715 17.3796C112.167 15.2395 113.458 13.0604 115.598 12.5126C117.738 11.9648 119.917 13.2556 120.465 15.3958L126.811 40.1866ZM129.71 64.8012C129.051 62.6928 130.225 60.4489 132.333 59.7893C134.442 59.1296 136.686 60.304 137.345 62.4124C139.116 68.0704 140.068 74.0852 140.068 80.315C140.068 104.449 125.795 125.24 105.24 134.722L119.787 139.841C121.871 140.574 122.966 142.858 122.233 144.942C121.5 147.026 119.216 148.121 117.132 147.387L92.9923 138.894C90.9084 138.161 89.8134 135.877 90.5467 133.793L99.0399 109.654C99.7731 107.57 102.057 106.475 104.141 107.208C106.225 107.941 107.32 110.225 106.586 112.309L101.137 127.798C119.36 119.743 132.068 101.509 132.068 80.315C132.068 74.9047 131.242 69.6949 129.71 64.8012ZM28.6885 73.3921L38.7535 85.7294C40.1499 87.4412 42.6697 87.6968 44.3814 86.3003C46.0932 84.9038 46.3488 82.3841 44.9523 80.6723L28.7759 60.8437C27.3794 59.1319 24.8597 58.8763 23.1479 60.2728L3.31923 76.4493C1.60747 77.8457 1.35188 80.3655 2.74835 82.0772C4.14483 83.789 6.66456 84.0446 8.37633 82.6481L20.7271 72.5722C19.2543 83.8058 20.9475 95.586 26.2777 106.53C34.1434 122.68 48.317 133.708 64.3754 138.09C66.5066 138.671 68.7057 137.415 69.2873 135.284C69.8688 133.152 68.6126 130.953 66.4814 130.372C52.5519 126.571 40.2844 117.019 33.4701 103.027C28.8146 93.4683 27.3611 83.1891 28.6885 73.3921Z" fill="white"/>
</clipPath>
<g clip-path="url(#mask0_5481_122236)">
<g clip-path="url(#clip0_5481_122236)">
<rect width="160" height="160" rx="10" fill="#D9F4FD"/>
<circle cx="142.62" cy="105.187" r="231.011" fill="url(#paint0_radial_5481_122236)"/>
<path d="M-14.3999 50.1137C-16.9679 -5.18932 25.7823 -52.103 81.0853 -54.6709C136.388 -57.2388 183.302 -14.4887 185.87 40.8143C188.438 96.1173 145.688 143.031 90.3846 145.599C35.0817 148.167 -11.832 105.417 -14.3999 50.1137Z" fill="url(#paint1_linear_5481_122236)"/>
<path d="M40.4184 -110.716C27.9428 -118.436 12.1362 -118.483 -0.385738 -110.838L-125.628 -34.3691C-137.894 -26.8797 -137.914 -9.20217 -125.665 -1.68455L-1.25042 74.676C11.2528 82.3487 27.0594 82.3396 39.5518 74.6486L163.71 -1.78335C175.895 -9.28493 175.917 -26.8637 163.748 -34.3936L40.4184 -110.716Z" fill="url(#paint2_linear_5481_122236)"/>
<path d="M-79.7631 76.5289C-53.9489 76.5289 -30.5656 86.9766 -13.6359 103.831C20.2235 137.599 48.2951 137.628 82.1545 103.918C99.0842 86.9766 122.496 76.5 148.34 76.5C199.997 76.5289 241.844 118.262 241.844 169.779C241.844 221.296 199.997 263 148.34 263C122.439 263 99.0263 252.495 82.0966 235.553C48.2661 201.901 20.2235 201.93 -13.6359 235.697C-30.5656 252.581 -53.9489 263 -79.7631 263C-131.392 263 -173.238 221.267 -173.238 169.779C-173.238 118.291 -131.392 76.5289 -79.7631 76.5289Z" fill="url(#paint3_linear_5481_122236)"/>
</g>
</g>

</svg>
