<svg width="48" height="48" viewBox="0 0 48 48" xmlns="http://www.w3.org/2000/svg">
  <defs>
<radialGradient id="paint0_radial_5481_122315" cx="0" cy="0" r="1" gradientUnits="userSpaceOnUse" gradientTransform="translate(38.9297 31.3157) rotate(90) scale(53.4895 56.7422)">
<stop offset="0.0885417" stop-color="#EB1000"/>
<stop offset="1" stop-color="#EB1000" stop-opacity="0"/>
</radialGradient>
<linearGradient id="paint1_linear_5481_122315" x1="32.3345" y1="5.7702" x2="11.2328" y2="34.7927" gradientUnits="userSpaceOnUse">
<stop stop-color="#FF4885"/>
<stop offset="1" stop-color="#FF4885" stop-opacity="0"/>
</linearGradient>
<linearGradient id="paint2_linear_5481_122315" x1="18.4665" y1="-7.03676" x2="22.3784" y2="19.522" gradientUnits="userSpaceOnUse">
<stop offset="0.15625" stop-color="#7A6AFD"/>
<stop offset="1" stop-color="#7A6AFD" stop-opacity="0"/>
</linearGradient>
<linearGradient id="paint3_linear_5481_122315" x1="-32.1929" y1="46.2171" x2="41.3333" y2="30.8021" gradientUnits="userSpaceOnUse">
<stop stop-color="#30A7FE" stop-opacity="0"/>
<stop offset="0.432292" stop-color="#30A7FE" stop-opacity="0.994652"/>
<stop offset="0.609375" stop-color="#30A7FE"/>
<stop offset="1" stop-color="#30A7FE" stop-opacity="0"/>
</linearGradient>
<clipPath id="clip0_5481_122315">
<rect x="3.89844" y="6.96094" width="39.3001" height="37.0472" rx="10" fill="white"/>
</clipPath>
</defs>
<clipPath id="mask0_5481_122315">
<path fill-rule="evenodd" d="M32.1043 26.1656C30.2563 27.9296 27.9673 29.7596 25.1383 31.6226H25.1353C24.8983 31.7786 24.6523 31.9106 24.3973 32.0216C22.6123 32.7956 20.4973 32.4296 19.0843 31.0166L18.0223 29.9546L16.9603 28.8926C15.6223 27.5516 15.2263 25.5866 15.8473 23.8646C15.9763 23.5106 16.1443 23.1656 16.3573 22.8416C17.7043 20.7956 19.0363 19.0346 20.3353 17.5166C27.8863 8.69962 34.4263 8.12962 37.4113 8.46862C38.5153 8.59462 39.3853 9.46762 39.5113 10.5686C39.8263 13.3586 39.3523 19.2506 32.1043 26.1656ZM32.6143 15.3686C31.6213 14.3786 30.0133 14.3786 29.0233 15.3686C28.0333 16.3616 28.0303 17.9696 29.0233 18.9596C30.0163 19.9496 31.6243 19.9526 32.6143 18.9596C33.6043 17.9666 33.6073 16.3586 32.6143 15.3686ZM13.231 24.5816L10.087 24.6356V24.6386C8.044 24.6746 6.886 22.2986 8.182 20.7206C11.845 16.2656 16.78 14.6786 19.999 14.3156C18.058 16.3616 16.171 18.7676 14.353 21.5276C13.735 22.4666 13.366 23.5166 13.231 24.5816ZM8.60798 35.5616C8.37398 35.7956 8.06498 35.9126 7.75898 35.9126C7.44998 35.9126 7.14398 35.7956 6.90998 35.5616C6.44198 35.0906 6.44198 34.3316 6.90998 33.8636L10.06 30.7136C10.531 30.2456 11.29 30.2456 11.758 30.7136C12.226 31.1846 12.226 31.9436 11.758 32.4116L8.60798 35.5616ZM12.808 33.4616C13.279 32.9936 14.038 32.9936 14.506 33.4616C14.974 33.9326 14.974 34.6916 14.506 35.1596L8.50603 41.1596C8.27203 41.3936 7.96603 41.5106 7.65703 41.5106C7.34803 41.5106 7.04203 41.3936 6.80803 41.1596C6.34003 40.6886 6.34003 39.9296 6.80803 39.4616L12.808 33.4616ZM15.5742 36.2246L12.2742 39.5246C11.8062 39.9926 11.8062 40.7516 12.2742 41.2226C12.5082 41.4566 12.8142 41.5736 13.1232 41.5736C13.4322 41.5736 13.7382 41.4566 13.9722 41.2226L17.2722 37.9226C17.7402 37.4546 17.7402 36.6956 17.2722 36.2246C16.8042 35.7536 16.0452 35.7566 15.5742 36.2246ZM23.4075 34.7576L23.3535 37.8896C23.3175 39.9446 25.7085 41.0846 27.2925 39.7766C31.7205 36.1226 33.3045 31.2116 33.6735 27.9956C31.7295 29.8316 29.3565 31.7186 26.4585 33.6266C25.5345 34.2356 24.4935 34.6166 23.4075 34.7576Z" fill="white"/>
</clipPath>
<g clip-path="url(#mask0_5481_122315)">
<g clip-path="url(#clip0_5481_122315)">
<rect x="3.89844" y="6.96094" width="39.3001" height="37.0472" rx="10" fill="#D9F4FD"/>
<ellipse cx="38.9297" cy="31.3157" rx="56.7422" ry="53.4895" fill="url(#paint0_radial_5481_122315)"/>
<path d="M0.361813 18.5651C-0.26894 5.75997 10.2316 -5.10267 23.8154 -5.69726C37.3993 -6.29186 48.9225 3.60675 49.5532 16.4119C50.184 29.217 39.6834 40.0797 26.0996 40.6743C12.5158 41.2689 0.992566 31.3703 0.361813 18.5651Z" fill="url(#paint1_linear_5481_122315)"/>
<path d="M13.8253 -18.6751C10.761 -20.4626 6.87845 -20.4736 3.80273 -18.7034L-26.96 -0.997357C-29.9728 0.736758 -29.9779 4.82992 -26.9691 6.57059L3.59035 24.2515C6.66146 26.0281 10.544 26.026 13.6124 24.2452L44.109 6.54771C47.1018 4.81075 47.1072 0.74047 44.1181 -1.00304L13.8253 -18.6751Z" fill="url(#paint2_linear_5481_122315)"/>
<path d="M-15.6941 24.6805C-9.35351 24.6805 -3.60998 27.0996 0.548396 31.0023C8.86515 38.821 15.7602 38.8277 24.077 31.0223C28.2354 27.0996 33.986 24.6738 40.3337 24.6738C53.0221 24.6805 63.3008 34.3436 63.3008 46.2721C63.3008 58.2006 53.0221 67.857 40.3337 67.857C33.9718 67.857 28.2211 65.4245 24.0628 61.5018C15.7531 53.7099 8.86515 53.7166 0.548396 61.5353C-3.60998 65.4446 -9.35351 67.857 -15.6941 67.857C-28.3754 67.857 -38.6541 58.1939 -38.6541 46.2721C-38.6541 34.3503 -28.3754 24.6805 -15.6941 24.6805Z" fill="url(#paint3_linear_5481_122315)"/>
</g>
</g>

</svg>
