<svg width="96" height="96" viewBox="0 0 96 96" xmlns="http://www.w3.org/2000/svg">
  <defs>
<radialGradient id="paint0_radial_5481_122480" cx="0" cy="0" r="1" gradientUnits="userSpaceOnUse" gradientTransform="translate(82.141 61.2732) rotate(90) scale(113.484 120.414)">
<stop offset="0.0885417" stop-color="#EB1000"/>
<stop offset="1" stop-color="#EB1000" stop-opacity="0"/>
</radialGradient>
<linearGradient id="paint1_linear_5481_122480" x1="68.1453" y1="7.07099" x2="23.379" y2="68.656" gradientUnits="userSpaceOnUse">
<stop stop-color="#FF4885"/>
<stop offset="1" stop-color="#FF4885" stop-opacity="0"/>
</linearGradient>
<linearGradient id="paint2_linear_5481_122480" x1="38.7182" y1="-20.0977" x2="47.0158" y2="36.2504" gradientUnits="userSpaceOnUse">
<stop offset="0.15625" stop-color="#7A6AFD"/>
<stop offset="1" stop-color="#7A6AFD" stop-opacity="0"/>
</linearGradient>
<linearGradient id="paint3_linear_5481_122480" x1="-68.7869" y1="92.8861" x2="87.2422" y2="60.1662" gradientUnits="userSpaceOnUse">
<stop stop-color="#30A7FE" stop-opacity="0"/>
<stop offset="0.432292" stop-color="#30A7FE" stop-opacity="0.994652"/>
<stop offset="0.609375" stop-color="#30A7FE"/>
<stop offset="1" stop-color="#30A7FE" stop-opacity="0"/>
</linearGradient>
<clipPath id="clip0_5481_122480">
<rect x="7.80078" y="9.59961" width="83.4" height="78.6" rx="10" fill="white"/>
</clipPath>
</defs>
<clipPath id="mask0_5481_122480">
<path fill-rule="evenodd" d="M67.2004 9.59961H79.2004C83.1768 9.59961 86.4004 12.8232 86.4004 16.7996V43.1996C86.4004 47.1761 83.1768 50.3996 79.2004 50.3996H67.2004C63.2239 50.3996 60.0004 47.1761 60.0004 43.1996V16.7996C60.0004 12.8232 63.2239 9.59961 67.2004 9.59961ZM34.8004 59.9996H61.2004C65.1768 59.9996 68.4004 63.2232 68.4004 67.1996V79.1996C68.4004 83.1761 65.1768 86.3996 61.2004 86.3996H34.8004C30.8239 86.3996 27.6004 83.1761 27.6004 79.1996V67.1996C27.6004 63.2232 30.8239 59.9996 34.8004 59.9996ZM39.751 42.8815L44.707 54.9535C45.511 56.9035 48.259 56.9455 49.117 55.0195L50.563 51.7795C50.803 51.2395 51.235 50.8075 51.775 50.5675L55.009 49.1215C56.935 48.2635 56.893 45.5095 54.943 44.7115L42.877 39.7495C40.903 38.9395 38.935 40.9075 39.745 42.8815H39.751ZM33.8527 45.2097C35.1787 45.2097 36.2527 46.2837 36.2527 47.6097C36.2527 48.9357 35.1787 50.0097 33.8527 50.0097H21.5827C20.6887 51.8457 18.8167 53.1117 16.6387 53.1117C13.5967 53.1117 11.1367 50.6457 11.1367 47.6097C11.1367 45.4317 12.4087 43.5597 14.2387 42.6657V21.5398C12.4027 20.6458 11.1367 18.7737 11.1367 16.5957C11.1367 13.5537 13.6027 11.0938 16.6387 11.0938C18.8167 11.0938 20.6887 12.3658 21.5827 14.1957H42.6187C43.5127 12.3598 45.3847 11.0938 47.5627 11.0938C50.6047 11.0938 53.0647 13.5597 53.0647 16.5957C53.0647 18.7737 51.7927 20.6458 49.9627 21.5398V33.8398C49.9627 35.1658 48.8887 36.2397 47.5627 36.2397C46.2367 36.2397 45.1627 35.1658 45.1627 33.8398V21.5398C44.0527 20.9998 43.1587 20.0997 42.6187 18.9957H21.5827C21.0427 20.1057 20.1427 20.9998 19.0387 21.5398V42.6657C20.1487 43.2057 21.0427 44.1057 21.5827 45.2097H33.8527Z" fill="white"/>
</clipPath>
<g clip-path="url(#mask0_5481_122480)">
<g clip-path="url(#clip0_5481_122480)">
<rect x="7.80078" y="9.59961" width="83.4" height="78.6" rx="10" fill="#D9F4FD"/>
<ellipse cx="82.141" cy="61.2732" rx="120.414" ry="113.484" fill="url(#paint0_radial_5481_122480)"/>
<path d="M0.295092 34.2169C-1.04345 7.04927 21.2401 -15.9971 50.0668 -17.2586C78.8935 -18.5201 103.347 2.48097 104.686 29.6486C106.024 56.8162 83.7407 79.8625 54.9141 81.124C26.0874 82.3855 1.63363 61.3845 0.295092 34.2169Z" fill="url(#paint1_linear_5481_122480)"/>
<path d="M28.869 -44.7898C22.3661 -48.5822 14.1269 -48.6054 7.59983 -44.8498L-57.6827 -7.28438C-64.0763 -3.60525 -64.087 5.07886 -57.7021 8.77189L7.14911 46.284C13.6664 50.0532 21.9056 50.0488 28.4173 46.2706L93.1349 8.72335C99.486 5.0382 99.4976 -3.59738 93.1543 -7.29644L28.869 -44.7898Z" fill="url(#paint2_linear_5481_122480)"/>
<path d="M-33.7743 47.1939C-20.3186 47.1939 -8.1301 52.3263 0.694515 60.6062C18.3438 77.1945 32.976 77.2087 50.6253 60.6488C59.4499 52.3263 71.6535 47.1797 85.1242 47.1797C112.051 47.1939 133.863 67.6952 133.863 93.0029C133.863 118.311 112.051 138.798 85.1242 138.798C71.6233 138.798 59.4197 133.637 50.5951 125.315C32.9609 108.783 18.3438 108.797 0.694515 125.385C-8.1301 133.68 -20.3186 138.798 -33.7743 138.798C-60.6856 138.798 -82.4982 118.296 -82.4982 93.0029C-82.4982 67.7094 -60.6856 47.1939 -33.7743 47.1939Z" fill="url(#paint3_linear_5481_122480)"/>
</g>
</g>

</svg>
