<svg width="48" height="48" viewBox="0 0 48 48" xmlns="http://www.w3.org/2000/svg">
  <defs>
<radialGradient id="paint0_radial_5481_122377" cx="0" cy="0" r="1" gradientUnits="userSpaceOnUse" gradientTransform="translate(42.7877 31.5552) rotate(90) scale(69.3033)">
<stop offset="0.0885417" stop-color="#EB1000"/>
<stop offset="1" stop-color="#EB1000" stop-opacity="0"/>
</radialGradient>
<linearGradient id="paint1_linear_5481_122377" x1="34.7309" y1="-1.54315" x2="6.93278" y2="34.4977" gradientUnits="userSpaceOnUse">
<stop stop-color="#FF4885"/>
<stop offset="1" stop-color="#FF4885" stop-opacity="0"/>
</linearGradient>
<linearGradient id="paint2_linear_5481_122377" x1="17.7929" y1="-18.1348" x2="23.1553" y2="16.1845" gradientUnits="userSpaceOnUse">
<stop offset="0.15625" stop-color="#7A6AFD"/>
<stop offset="1" stop-color="#7A6AFD" stop-opacity="0"/>
</linearGradient>
<linearGradient id="paint3_linear_5481_122377" x1="-44.0785" y1="50.8616" x2="46.1473" y2="33.0298" gradientUnits="userSpaceOnUse">
<stop stop-color="#30A7FE" stop-opacity="0"/>
<stop offset="0.432292" stop-color="#30A7FE" stop-opacity="0.994652"/>
<stop offset="0.609375" stop-color="#30A7FE"/>
<stop offset="1" stop-color="#30A7FE" stop-opacity="0"/>
</linearGradient>
<clipPath id="clip0_5481_122377">
<rect width="48" height="48" rx="10" fill="white"/>
</clipPath>
</defs>
<clipPath id="mask0_5481_122377">
<path fill-rule="evenodd" d="M17.9443 12.125C17.9443 10.4681 19.2875 9.125 20.9443 9.125H36.5054C38.1623 9.125 39.5054 10.4681 39.5054 12.125V17.4265C39.5054 19.0834 38.1623 20.4265 36.5054 20.4265H20.9443C19.2875 20.4265 17.9443 19.0834 17.9443 17.4265V15.8921C17.7824 15.9688 17.6013 16.0117 17.4101 16.0117H12.7422C11.7757 16.0117 10.9922 16.7952 10.9922 17.7617V30.2236C10.9922 31.1901 11.7757 31.9736 12.7422 31.9736H17.4101C17.6013 31.9736 17.7824 32.0165 17.9443 32.0931V30.5742C17.9443 28.9174 19.2875 27.5742 20.9443 27.5742H36.5054C38.1623 27.5742 39.5054 28.9174 39.5054 30.5742V35.8758C39.5054 37.5326 38.1623 38.8758 36.5054 38.8758H20.9443C19.2875 38.8758 17.9443 37.5326 17.9443 35.8758V34.354C17.7824 34.4307 17.6013 34.4736 17.4101 34.4736H12.7422C10.395 34.4736 8.49219 32.5708 8.49219 30.2236V17.7617C8.49219 15.4145 10.395 13.5117 12.7422 13.5117H17.4101C17.6013 13.5117 17.7824 13.5546 17.9443 13.6313V12.125Z" fill="white"/>
</clipPath>
<g clip-path="url(#mask0_5481_122377)">
<g clip-path="url(#clip0_5481_122377)">
<rect width="48" height="48" rx="10" fill="#D9F4FD"/>
<circle cx="42.7877" cy="31.5552" r="69.3033" fill="url(#paint0_radial_5481_122377)"/>
<path d="M-4.31959 15.0345C-5.08998 -1.55641 7.73508 -15.6305 24.326 -16.4009C40.9169 -17.1713 54.991 -4.34621 55.7613 12.2447C56.5317 28.8356 43.7067 42.9097 27.1158 43.6801C10.5249 44.4504 -3.54921 31.6254 -4.31959 15.0345Z" fill="url(#paint1_linear_5481_122377)"/>
<path d="M12.1243 -33.214C8.38167 -35.53 3.6397 -35.5442 -0.116893 -33.2506L-37.6896 -10.3099C-41.3694 -8.06314 -41.3755 -2.75987 -37.7007 -0.504581L-0.376298 22.4036C3.37467 24.7054 8.11665 24.7027 11.8644 22.3954L49.1119 -0.534222C52.7672 -2.7847 52.7739 -8.05833 49.1231 -10.3173L12.1243 -33.214Z" fill="url(#paint2_linear_5481_122377)"/>
<path d="M-23.9274 22.9579C-16.1831 22.9579 -9.16812 26.0922 -4.0892 31.1486C6.06863 41.2789 14.4901 41.2875 24.6479 31.1746C29.7268 26.0922 36.7505 22.9492 44.5034 22.9492C60.0006 22.9579 72.5547 35.4778 72.5547 50.9329C72.5547 66.388 60.0006 78.8992 44.5034 78.8992C36.7331 78.8992 29.7095 75.7476 24.6306 70.6652C14.4814 60.5696 6.06863 60.5782 -4.0892 70.7085C-9.16812 75.7736 -16.1831 78.8992 -23.9274 78.8992C-39.4159 78.8992 -51.9699 66.3793 -51.9699 50.9329C-51.9699 35.4865 -39.4159 22.9579 -23.9274 22.9579Z" fill="url(#paint3_linear_5481_122377)"/>
</g>
</g>

</svg>
