<svg width="160" height="160" viewBox="0 0 160 160" xmlns="http://www.w3.org/2000/svg">
  <defs>
<radialGradient id="paint0_radial_5481_122203" cx="0" cy="0" r="1" gradientUnits="userSpaceOnUse" gradientTransform="translate(142.62 105.187) rotate(90) scale(231.011)">
<stop offset="0.0885417" stop-color="#EB1000"/>
<stop offset="1" stop-color="#EB1000" stop-opacity="0"/>
</radialGradient>
<linearGradient id="paint1_linear_5481_122203" x1="115.768" y1="-5.14512" x2="23.108" y2="114.991" gradientUnits="userSpaceOnUse">
<stop stop-color="#FF4885"/>
<stop offset="1" stop-color="#FF4885" stop-opacity="0"/>
</linearGradient>
<linearGradient id="paint2_linear_5481_122203" x1="59.3137" y1="-60.4521" x2="77.1884" y2="53.9458" gradientUnits="userSpaceOnUse">
<stop offset="0.15625" stop-color="#7A6AFD"/>
<stop offset="1" stop-color="#7A6AFD" stop-opacity="0"/>
</linearGradient>
<linearGradient id="paint3_linear_5481_122203" x1="-146.934" y1="169.541" x2="153.819" y2="110.102" gradientUnits="userSpaceOnUse">
<stop stop-color="#30A7FE" stop-opacity="0"/>
<stop offset="0.432292" stop-color="#30A7FE" stop-opacity="0.994652"/>
<stop offset="0.609375" stop-color="#30A7FE"/>
<stop offset="1" stop-color="#30A7FE" stop-opacity="0"/>
</linearGradient>
<clipPath id="clip0_5481_122203">
<rect width="160" height="160" rx="10" fill="white"/>
</clipPath>
</defs>
<clipPath id="mask0_5481_122203">
<path fill-rule="evenodd" d="M62.7218 40.7743L85.93 63.9825L79.4096 76.5485C77.6533 79.9332 74.7459 82.5794 71.2112 84.0102L36.426 98.0911C35.3385 98.5313 34.2521 98.6344 33.2412 98.4747L56.0014 75.6412C57.604 75.6953 59.2243 75.1106 60.4476 73.8872C62.7908 71.5441 62.7908 67.7451 60.4476 65.402C58.1045 63.0588 54.3055 63.0588 51.9624 65.402C50.6732 66.6911 50.0933 68.4209 50.2227 70.1065L28.168 92.2323C28.2041 91.5923 28.347 90.9354 28.6131 90.2782L42.694 55.493C44.1248 51.9584 46.771 49.0509 50.1558 47.2946L62.7218 40.7743ZM96.7539 51.3633L90.6892 57.428L69.2532 35.992L75.3179 29.9273C77.6611 27.5841 81.4601 27.5841 83.8032 29.9273L96.7539 42.878C99.0971 45.2211 99.0971 49.0201 96.7539 51.3633ZM92.3726 91.8019L116.059 62.8872C119.172 59.0871 124.776 58.5301 128.576 61.6431C132.376 64.7561 132.933 70.3603 129.82 74.1604L106.046 103.182C104.335 99.8467 101.937 97.3238 99.7433 95.5267C97.6839 93.8397 95.1426 92.5834 92.3726 91.8019ZM94.6737 101.715C96.4606 103.179 98.1939 105.111 99.2653 107.544C100.661 110.713 100.933 114.733 98.7353 119.674C98.5888 120.004 98.4312 120.337 98.2623 120.675C93.6189 129.957 80.1906 131.907 68.8587 131.829C68.1218 131.823 67.3939 131.81 66.6777 131.789L66.6776 131.789C62.3878 131.664 58.5233 131.284 55.7274 130.962C55.8977 130.829 56.0643 130.698 56.2274 130.569C59.1505 128.251 60.9441 126.423 62.4082 124.302C62.5685 124.07 62.7248 123.834 62.8783 123.594C64.2046 121.517 65.3144 119.101 66.8853 115.68C67.7788 113.734 68.8215 111.464 70.138 108.746C70.409 108.187 70.6961 107.655 70.9976 107.15C75.5204 99.5733 83.2994 98.0027 89.1247 99.2365C91.3603 99.7101 93.3081 100.597 94.6737 101.715Z" fill="white"/>
</clipPath>
<g clip-path="url(#mask0_5481_122203)">
<g clip-path="url(#clip0_5481_122203)">
<rect width="160" height="160" rx="10" fill="#D9F4FD"/>
<circle cx="142.62" cy="105.187" r="231.011" fill="url(#paint0_radial_5481_122203)"/>
<path d="M-14.3999 50.1137C-16.9679 -5.18932 25.7823 -52.103 81.0853 -54.6709C136.388 -57.2388 183.302 -14.4887 185.87 40.8143C188.438 96.1173 145.688 143.031 90.3846 145.599C35.0817 148.167 -11.832 105.417 -14.3999 50.1137Z" fill="url(#paint1_linear_5481_122203)"/>
<path d="M40.4184 -110.716C27.9428 -118.436 12.1362 -118.483 -0.385738 -110.838L-125.628 -34.3691C-137.894 -26.8797 -137.914 -9.20217 -125.665 -1.68455L-1.25042 74.676C11.2528 82.3487 27.0594 82.3396 39.5518 74.6486L163.71 -1.78335C175.895 -9.28493 175.917 -26.8637 163.748 -34.3936L40.4184 -110.716Z" fill="url(#paint2_linear_5481_122203)"/>
<path d="M-79.7631 76.5289C-53.9489 76.5289 -30.5656 86.9766 -13.6359 103.831C20.2235 137.599 48.2951 137.628 82.1545 103.918C99.0842 86.9766 122.496 76.5 148.34 76.5C199.997 76.5289 241.844 118.262 241.844 169.779C241.844 221.296 199.997 263 148.34 263C122.439 263 99.0263 252.495 82.0966 235.553C48.2661 201.901 20.2235 201.93 -13.6359 235.697C-30.5656 252.581 -53.9489 263 -79.7631 263C-131.392 263 -173.238 221.267 -173.238 169.779C-173.238 118.291 -131.392 76.5289 -79.7631 76.5289Z" fill="url(#paint3_linear_5481_122203)"/>
</g>
</g>

</svg>
