<svg width="160" height="160" viewBox="0 0 160 160" xmlns="http://www.w3.org/2000/svg">
  <defs>
<radialGradient id="paint0_radial_5481_122113" cx="0" cy="0" r="1" gradientUnits="userSpaceOnUse" gradientTransform="translate(134.227 102.582) rotate(90) scale(185.103 196.359)">
<stop offset="0.0885417" stop-color="#EB1000"/>
<stop offset="1" stop-color="#EB1000" stop-opacity="0"/>
</radialGradient>
<linearGradient id="paint1_linear_5481_122113" x1="111.403" y1="14.1747" x2="38.3794" y2="114.609" gradientUnits="userSpaceOnUse">
<stop stop-color="#FF4885"/>
<stop offset="1" stop-color="#FF4885" stop-opacity="0"/>
</linearGradient>
<linearGradient id="paint2_linear_5481_122113" x1="63.4172" y1="-30.14" x2="76.9546" y2="61.7679" gradientUnits="userSpaceOnUse">
<stop offset="0.15625" stop-color="#7A6AFD"/>
<stop offset="1" stop-color="#7A6AFD" stop-opacity="0"/>
</linearGradient>
<linearGradient id="paint3_linear_5481_122113" x1="-111.894" y1="154.147" x2="142.547" y2="100.803" gradientUnits="userSpaceOnUse">
<stop stop-color="#30A7FE" stop-opacity="0"/>
<stop offset="0.432292" stop-color="#30A7FE" stop-opacity="0.994652"/>
<stop offset="0.609375" stop-color="#30A7FE"/>
<stop offset="1" stop-color="#30A7FE" stop-opacity="0"/>
</linearGradient>
<clipPath id="clip0_5481_122113">
<rect x="13" y="18.2979" width="136" height="128.204" rx="10" fill="white"/>
</clipPath>
</defs>
<clipPath id="mask0_5481_122113">
<path d="M136 110H128V48.22C128 39.26 120.84 32 112 32H48C39.16 32 32 39.26 32 48.22V110H24C19.03 110 15 114.03 15 119C15 123.97 19.03 128 24 128H136C140.97 128 145 123.97 145 119C145 114.03 140.97 110 136 110ZM80 49C77.79 49 76 47.21 76 45C76 42.79 77.79 41 80 41C82.21 41 84 42.79 84 45C84 47.21 82.21 49 80 49Z" fill="white"/>
</clipPath>
<g clip-path="url(#mask0_5481_122113)">
<g clip-path="url(#clip0_5481_122113)">
<rect x="13" y="18.2979" width="136" height="128.204" rx="10" fill="#D9F4FD"/>
<ellipse cx="134.227" cy="102.582" rx="196.359" ry="185.103" fill="url(#paint0_radial_5481_122113)"/>
<path d="M0.75986 58.4522C-1.42289 14.1393 34.9148 -23.4514 81.9223 -25.509C128.93 -27.5666 168.806 6.68801 170.989 51.0009C173.172 95.3137 136.834 132.904 89.8267 134.962C42.8192 137.02 2.94261 102.765 0.75986 58.4522Z" fill="url(#paint1_linear_5481_122113)"/>
<path d="M47.3562 -70.4152C36.752 -76.6009 23.3164 -76.6388 12.6727 -70.513L-93.7833 -9.24037C-104.209 -3.23938 -104.227 10.9252 -93.8149 16.9489L11.9377 78.1346C22.5655 84.2826 36.0011 84.2752 46.6197 78.1127L152.154 16.8697C162.511 10.8589 162.53 -3.22654 152.186 -9.26005L47.3562 -70.4152Z" fill="url(#paint2_linear_5481_122113)"/>
<path d="M-54.7994 79.6188C-32.8573 79.6188 -12.9816 87.9903 1.4087 101.496C30.1892 128.553 54.05 128.576 82.8305 101.565C97.2208 87.9903 117.121 79.5957 139.088 79.5957C182.997 79.6188 218.566 113.058 218.566 154.338C218.566 195.617 182.997 229.033 139.088 229.033C117.072 229.033 97.1716 220.616 82.7813 207.041C54.0254 180.076 30.1892 180.1 1.4087 207.156C-12.9816 220.685 -32.8573 229.033 -54.7994 229.033C-98.6836 229.033 -134.253 195.594 -134.253 154.338C-134.253 113.082 -98.6836 79.6188 -54.7994 79.6188Z" fill="url(#paint3_linear_5481_122113)"/>
</g>
</g>

</svg>
