<svg width="48" height="48" viewBox="0 0 48 48" xmlns="http://www.w3.org/2000/svg">
  <defs>
<radialGradient id="paint0_radial_5481_122340" cx="0" cy="0" r="1" gradientUnits="userSpaceOnUse" gradientTransform="translate(39.2305 29.7551) rotate(90) scale(53.4895 56.7422)">
<stop offset="0.0885417" stop-color="#EB1000"/>
<stop offset="1" stop-color="#EB1000" stop-opacity="0"/>
</radialGradient>
<linearGradient id="paint1_linear_5481_122340" x1="32.6353" y1="4.20965" x2="11.5336" y2="33.2322" gradientUnits="userSpaceOnUse">
<stop stop-color="#FF4885"/>
<stop offset="1" stop-color="#FF4885" stop-opacity="0"/>
</linearGradient>
<linearGradient id="paint2_linear_5481_122340" x1="18.7672" y1="-8.5973" x2="22.6792" y2="17.9615" gradientUnits="userSpaceOnUse">
<stop offset="0.15625" stop-color="#7A6AFD"/>
<stop offset="1" stop-color="#7A6AFD" stop-opacity="0"/>
</linearGradient>
<linearGradient id="paint3_linear_5481_122340" x1="-31.8922" y1="44.6565" x2="41.6341" y2="29.2415" gradientUnits="userSpaceOnUse">
<stop stop-color="#30A7FE" stop-opacity="0"/>
<stop offset="0.432292" stop-color="#30A7FE" stop-opacity="0.994652"/>
<stop offset="0.609375" stop-color="#30A7FE"/>
<stop offset="1" stop-color="#30A7FE" stop-opacity="0"/>
</linearGradient>
<clipPath id="clip0_5481_122340">
<rect x="4.19922" y="5.40039" width="39.3001" height="37.0472" rx="10" fill="white"/>
</clipPath>
</defs>
<clipPath id="mask0_5481_122340">
<path fill-rule="evenodd" d="M13.725 7.81836H34.275C36.264 7.81836 37.875 9.42936 37.875 11.4184V26.3074C37.875 33.9724 31.665 40.1824 24 40.1824C16.335 40.1824 10.125 33.9694 10.125 26.3074V11.4184C10.125 9.42936 11.736 7.81836 13.725 7.81836ZM14.949 27.5434C15.1375 27.6541 15.344 27.7051 15.5475 27.7054C15.964 27.7048 16.3653 27.4889 16.587 27.1054L20.775 19.8514C21.108 19.2784 20.91 18.5434 20.337 18.2134C19.764 17.8804 19.029 18.0784 18.699 18.6514L14.511 25.9054C14.178 26.4784 14.376 27.2134 14.949 27.5434ZM30.705 27.7054C31.572 27.7054 32.349 27.2554 32.784 26.5054C33.219 25.7524 33.219 24.8554 32.784 24.1054L29.013 17.5744C28.578 16.8244 27.801 16.3744 26.934 16.3744C26.067 16.3744 25.29 16.8244 24.855 17.5744L21.084 24.1054C20.649 24.8554 20.649 25.7554 21.084 26.5054C21.519 27.2554 22.296 27.7054 23.163 27.7054H30.705ZM26.9343 18.7714L30.7053 25.3054H23.1633L26.9343 18.7714Z" fill="white"/>
</clipPath>
<g clip-path="url(#mask0_5481_122340)">
<g clip-path="url(#clip0_5481_122340)">
<rect x="4.19922" y="5.40039" width="39.3001" height="37.0472" rx="10" fill="#D9F4FD"/>
<ellipse cx="39.2305" cy="29.7551" rx="56.7422" ry="53.4895" fill="url(#paint0_radial_5481_122340)"/>
<path d="M0.662594 17.0046C0.0318416 4.19942 10.5324 -6.66322 24.1162 -7.25781C37.7001 -7.85241 49.2233 2.0462 49.854 14.8513C50.4848 27.6565 39.9842 38.5191 26.4004 39.1137C12.8165 39.7083 1.29335 29.8097 0.662594 17.0046Z" fill="url(#paint1_linear_5481_122340)"/>
<path d="M14.1261 -20.2357C11.0617 -22.0232 7.17924 -22.0341 4.10352 -20.2639L-26.6592 -2.5579C-29.6721 -0.823789 -29.6771 3.26937 -26.6684 5.01004L3.89113 22.691C6.96224 24.4676 10.8448 24.4654 13.9132 22.6846L44.4097 4.98716C47.4025 3.25021 47.408 -0.820077 44.4189 -2.56359L14.1261 -20.2357Z" fill="url(#paint2_linear_5481_122340)"/>
<path d="M-15.3934 23.12C-9.05273 23.12 -3.3092 25.5391 0.849178 29.4417C9.16593 37.2604 16.061 37.2671 24.3778 29.4618C28.5361 25.5391 34.2868 23.1133 40.6345 23.1133C53.3229 23.12 63.6016 32.7831 63.6016 44.7116C63.6016 56.6401 53.3229 66.2965 40.6345 66.2965C34.2726 66.2965 28.5219 63.864 24.3636 59.9413C16.0539 52.1493 9.16593 52.156 0.849178 59.9747C-3.3092 63.884 -9.05273 66.2965 -15.3934 66.2965C-28.0746 66.2965 -38.3533 56.6334 -38.3533 44.7116C-38.3533 32.7897 -28.0746 23.12 -15.3934 23.12Z" fill="url(#paint3_linear_5481_122340)"/>
</g>
</g>

</svg>
