<svg width="48" height="48" viewBox="0 0 48 48" xmlns="http://www.w3.org/2000/svg">
  <defs>
<radialGradient id="paint0_radial_5481_122380" cx="0" cy="0" r="1" gradientUnits="userSpaceOnUse" gradientTransform="translate(42.7877 31.5552) rotate(90) scale(69.3033)">
<stop offset="0.0885417" stop-color="#EB1000"/>
<stop offset="1" stop-color="#EB1000" stop-opacity="0"/>
</radialGradient>
<linearGradient id="paint1_linear_5481_122380" x1="34.7309" y1="-1.54315" x2="6.93278" y2="34.4977" gradientUnits="userSpaceOnUse">
<stop stop-color="#FF4885"/>
<stop offset="1" stop-color="#FF4885" stop-opacity="0"/>
</linearGradient>
<linearGradient id="paint2_linear_5481_122380" x1="17.7929" y1="-18.1348" x2="23.1553" y2="16.1845" gradientUnits="userSpaceOnUse">
<stop offset="0.15625" stop-color="#7A6AFD"/>
<stop offset="1" stop-color="#7A6AFD" stop-opacity="0"/>
</linearGradient>
<linearGradient id="paint3_linear_5481_122380" x1="-44.0785" y1="50.8616" x2="46.1473" y2="33.0298" gradientUnits="userSpaceOnUse">
<stop stop-color="#30A7FE" stop-opacity="0"/>
<stop offset="0.432292" stop-color="#30A7FE" stop-opacity="0.994652"/>
<stop offset="0.609375" stop-color="#30A7FE"/>
<stop offset="1" stop-color="#30A7FE" stop-opacity="0"/>
</linearGradient>
<clipPath id="clip0_5481_122380">
<rect width="48" height="48" rx="10" fill="white"/>
</clipPath>
</defs>
<clipPath id="mask0_5481_122380">
<path fill-rule="evenodd" d="M30.9202 18.423C30.9227 18.4094 30.9255 18.3957 30.9284 18.382L31.5427 15.5324L31.5428 15.5317C31.5455 15.5194 31.548 15.5072 31.5503 15.4948C31.6276 15.0833 31.5122 14.6555 31.2387 14.3461L29.3417 12.198C29.1653 11.9984 29.0626 11.7742 29.0217 11.5469H29.022C28.8667 10.6883 29.5923 9.78651 30.5516 10.0113L33.2831 10.6524C33.6885 10.7482 34.1144 10.6292 34.42 10.3351L36.4786 8.35564C37.3922 7.4766 38.8459 8.35233 38.5735 9.61802L37.9591 12.4683C37.8673 12.8913 37.9813 13.3358 38.2631 13.6547L40.1602 15.8027C40.9915 16.7435 40.1851 18.2331 38.998 17.999V17.9998L38.9704 17.994L38.9502 17.9895L36.2187 17.3484C35.8134 17.2525 35.3874 17.3715 35.0818 17.6656L33.0233 19.6451C32.1193 20.5148 30.6868 19.6668 30.9202 18.423ZM36.3227 19.9407L38.379 20.4233C38.5895 20.4726 38.7961 20.5036 38.998 20.5178V26.4995C38.998 28.4423 37.4133 29.9816 35.4584 29.9816H25.3903L17.5112 36.7197C16.7442 37.3805 15.5511 36.8347 15.5585 35.8259C15.5717 34.0169 15.5654 31.6414 15.5585 29.9816H12.5436C10.5887 29.9816 9.00391 28.4423 9.00391 26.4995V15.029C9.00391 13.0862 10.5887 11.5469 12.5436 11.5469H26.5084C26.5544 12.3419 26.8494 13.1529 27.4682 13.8534L28.9786 15.5636L28.4843 17.8568C28.107 19.6101 28.9508 21.1823 30.2408 21.9595C31.5479 22.7471 33.3997 22.7517 34.7566 21.4467L36.3227 19.9407ZM26.991 25.1367L24.9833 24.6843C24.7175 24.6249 24.4418 24.6992 24.242 24.8825L22.7297 26.2776C22.1336 26.8274 21.1859 26.2792 21.3643 25.49L21.8166 23.4824C21.8761 23.2166 21.8018 22.9408 21.6185 22.7411L20.2234 21.2287C19.6736 20.6327 20.2217 19.685 21.0109 19.8633L23.0186 20.3157C23.2844 20.3751 23.5601 20.3008 23.7599 20.1175L25.2723 18.7224C25.8683 18.1726 26.816 18.7208 26.6377 19.51L26.1853 21.5176C26.1259 21.7834 26.2002 22.0592 26.3834 22.2589L27.7786 23.7713C28.3284 24.3673 27.7802 25.315 26.991 25.1367Z" fill="white"/>
</clipPath>
<g clip-path="url(#mask0_5481_122380)">
<g clip-path="url(#clip0_5481_122380)">
<rect width="48" height="48" rx="10" fill="#D9F4FD"/>
<circle cx="42.7877" cy="31.5552" r="69.3033" fill="url(#paint0_radial_5481_122380)"/>
<path d="M-4.31959 15.0345C-5.08998 -1.55641 7.73508 -15.6305 24.326 -16.4009C40.9169 -17.1713 54.991 -4.34621 55.7613 12.2447C56.5317 28.8356 43.7067 42.9097 27.1158 43.6801C10.5249 44.4504 -3.54921 31.6254 -4.31959 15.0345Z" fill="url(#paint1_linear_5481_122380)"/>
<path d="M12.1243 -33.214C8.38167 -35.53 3.6397 -35.5442 -0.116893 -33.2506L-37.6896 -10.3099C-41.3694 -8.06314 -41.3755 -2.75987 -37.7007 -0.504581L-0.376298 22.4036C3.37467 24.7054 8.11665 24.7027 11.8644 22.3954L49.1119 -0.534222C52.7672 -2.7847 52.7739 -8.05833 49.1231 -10.3173L12.1243 -33.214Z" fill="url(#paint2_linear_5481_122380)"/>
<path d="M-23.9274 22.9579C-16.1831 22.9579 -9.16812 26.0922 -4.0892 31.1486C6.06863 41.2789 14.4901 41.2875 24.6479 31.1746C29.7268 26.0922 36.7505 22.9492 44.5034 22.9492C60.0006 22.9579 72.5547 35.4778 72.5547 50.9329C72.5547 66.388 60.0006 78.8992 44.5034 78.8992C36.7331 78.8992 29.7095 75.7476 24.6306 70.6652C14.4814 60.5696 6.06863 60.5782 -4.0892 70.7085C-9.16812 75.7736 -16.1831 78.8992 -23.9274 78.8992C-39.4159 78.8992 -51.9699 66.3793 -51.9699 50.9329C-51.9699 35.4865 -39.4159 22.9579 -23.9274 22.9579Z" fill="url(#paint3_linear_5481_122380)"/>
</g>
</g>

</svg>
