<svg width="96" height="96" viewBox="0 0 96 96" xmlns="http://www.w3.org/2000/svg">
  <defs>
<radialGradient id="paint0_radial_5481_122479" cx="0" cy="0" r="1" gradientUnits="userSpaceOnUse" gradientTransform="translate(77.8634 62.6313) rotate(90) scale(106.979 113.484)">
<stop offset="0.0885417" stop-color="#EB1000"/>
<stop offset="1" stop-color="#EB1000" stop-opacity="0"/>
</radialGradient>
<linearGradient id="paint1_linear_5481_122479" x1="64.6728" y1="11.5365" x2="22.4695" y2="69.5816" gradientUnits="userSpaceOnUse">
<stop stop-color="#FF4885"/>
<stop offset="1" stop-color="#FF4885" stop-opacity="0"/>
</linearGradient>
<linearGradient id="paint2_linear_5481_122479" x1="36.9407" y1="-14.0755" x2="44.7646" y2="39.0421" gradientUnits="userSpaceOnUse">
<stop offset="0.15625" stop-color="#7A6AFD"/>
<stop offset="1" stop-color="#7A6AFD" stop-opacity="0"/>
</linearGradient>
<linearGradient id="paint3_linear_5481_122479" x1="-64.382" y1="92.4322" x2="82.6705" y2="61.6022" gradientUnits="userSpaceOnUse">
<stop stop-color="#30A7FE" stop-opacity="0"/>
<stop offset="0.432292" stop-color="#30A7FE" stop-opacity="0.994652"/>
<stop offset="0.609375" stop-color="#30A7FE"/>
<stop offset="1" stop-color="#30A7FE" stop-opacity="0"/>
</linearGradient>
<clipPath id="clip0_5481_122479">
<rect x="7.80078" y="13.9199" width="78.6002" height="74.0945" rx="10" fill="white"/>
</clipPath>
</defs>
<clipPath id="mask0_5481_122479">
<path fill-rule="evenodd" d="M64.2125 52.3312C60.5165 55.8592 55.9385 59.5193 50.2805 63.2453H50.2745C49.8005 63.5573 49.3085 63.8213 48.7985 64.0433C45.2285 65.5913 40.9985 64.8593 38.1725 62.0333L36.0485 59.9093L33.9245 57.7853C31.2485 55.1033 30.4565 51.1733 31.6985 47.7293C31.9565 47.0213 32.2925 46.3312 32.7185 45.6832C35.4125 41.5912 38.0765 38.0693 40.6745 35.0333C55.7765 17.3992 68.8565 16.2592 74.8265 16.9372C77.0345 17.1892 78.7745 18.9352 79.0265 21.1372C79.6565 26.7172 78.7085 38.5013 64.2125 52.3312ZM65.2325 30.7373C63.2465 28.7572 60.0305 28.7572 58.0505 30.7373C56.0705 32.7233 56.0645 35.9392 58.0505 37.9193C60.0365 39.8993 63.2525 39.9053 65.2325 37.9193C67.2125 35.9333 67.2185 32.7172 65.2325 30.7373ZM26.4659 49.1632L20.1779 49.2712V49.2772C16.0919 49.3492 13.7759 44.5972 16.3679 41.4412C23.6939 32.5312 33.5639 29.3572 40.0019 28.6312C36.1199 32.7232 32.3459 37.5352 28.7099 43.0552C27.4739 44.9332 26.7359 47.0332 26.4659 49.1632ZM17.2199 71.1232C16.7519 71.5912 16.1339 71.8252 15.5219 71.8252C14.9039 71.8252 14.2919 71.5912 13.8239 71.1232C12.8879 70.1812 12.8879 68.6632 13.8239 67.7272L20.1239 61.4272C21.0659 60.4912 22.5839 60.4912 23.5199 61.4272C24.4559 62.3692 24.4559 63.8872 23.5199 64.8232L17.2199 71.1232ZM25.62 66.9232C26.562 65.9872 28.08 65.9872 29.016 66.9232C29.952 67.8652 29.952 69.3832 29.016 70.3192L17.016 82.3192C16.548 82.7872 15.936 83.0212 15.318 83.0212C14.7 83.0212 14.088 82.7872 13.62 82.3192C12.684 81.3772 12.684 79.8592 13.62 78.9232L25.62 66.9232ZM31.1524 72.4492L24.5524 79.0492C23.6164 79.9852 23.6164 81.5032 24.5524 82.4452C25.0204 82.9132 25.6324 83.1472 26.2504 83.1472C26.8684 83.1472 27.4804 82.9132 27.9484 82.4452L34.5484 75.8452C35.4844 74.9092 35.4844 73.3912 34.5484 72.4492C33.6124 71.5072 32.0944 71.5132 31.1524 72.4492ZM46.819 69.5152L46.711 75.7793C46.639 79.8892 51.421 82.1692 54.589 79.5532C63.445 72.2452 66.613 62.4232 67.351 55.9912C63.463 59.6632 58.717 63.4372 52.921 67.2532C51.073 68.4712 48.991 69.2332 46.819 69.5152Z" fill="white"/>
</clipPath>
<g clip-path="url(#mask0_5481_122479)">
<g clip-path="url(#clip0_5481_122479)">
<rect x="7.80078" y="13.9199" width="78.6002" height="74.0945" rx="10" fill="#D9F4FD"/>
<ellipse cx="77.8634" cy="62.6313" rx="113.484" ry="106.979" fill="url(#paint0_radial_5481_122479)"/>
<path d="M0.727532 37.1263C-0.533973 11.516 20.4671 -10.2092 47.6348 -11.3984C74.8025 -12.5876 97.8489 7.20959 99.1104 32.8199C100.372 58.4302 79.3708 80.1554 52.2031 81.3446C25.0354 82.5338 1.98904 62.7366 0.727532 37.1263Z" fill="url(#paint1_linear_5481_122479)"/>
<path d="M27.6584 -37.3522C21.5297 -40.9272 13.7647 -40.9491 7.61328 -37.4087L-53.9122 -1.99667C-59.9379 1.47156 -59.9479 9.65788 -53.9305 13.1392L7.1885 48.5011C13.3307 52.0543 21.0958 52.05 27.2327 48.4884L88.2257 13.0935C94.2113 9.61956 94.2223 1.47899 88.244 -2.00804L27.6584 -37.3522Z" fill="url(#paint2_linear_5481_122479)"/>
<path d="M-31.3844 49.3591C-18.7031 49.3591 -7.21605 54.1973 1.1007 62.0026C17.7342 77.64 31.5244 77.6534 48.1579 62.0427C56.4746 54.1973 67.9759 49.3457 80.6714 49.3457C106.048 49.3591 126.605 68.6853 126.605 92.5423C126.605 116.399 106.048 135.712 80.6714 135.712C67.9475 135.712 56.4462 130.847 48.1294 123.002C31.5102 107.418 17.7342 107.431 1.1007 123.069C-7.21605 130.887 -18.7031 135.712 -31.3844 135.712C-56.7469 135.712 -77.3042 116.386 -77.3042 92.5423C-77.3042 68.6986 -56.7469 49.3591 -31.3844 49.3591Z" fill="url(#paint3_linear_5481_122479)"/>
</g>
</g>

</svg>
