<svg width="160" height="160" viewBox="0 0 160 160" xmlns="http://www.w3.org/2000/svg">
  <defs>
<radialGradient id="paint0_radial_5481_122197" cx="0" cy="0" r="1" gradientUnits="userSpaceOnUse" gradientTransform="translate(142.62 105.187) rotate(90) scale(231.011)">
<stop offset="0.0885417" stop-color="#EB1000"/>
<stop offset="1" stop-color="#EB1000" stop-opacity="0"/>
</radialGradient>
<linearGradient id="paint1_linear_5481_122197" x1="115.768" y1="-5.14512" x2="23.108" y2="114.991" gradientUnits="userSpaceOnUse">
<stop stop-color="#FF4885"/>
<stop offset="1" stop-color="#FF4885" stop-opacity="0"/>
</linearGradient>
<linearGradient id="paint2_linear_5481_122197" x1="59.3137" y1="-60.4521" x2="77.1884" y2="53.9458" gradientUnits="userSpaceOnUse">
<stop offset="0.15625" stop-color="#7A6AFD"/>
<stop offset="1" stop-color="#7A6AFD" stop-opacity="0"/>
</linearGradient>
<linearGradient id="paint3_linear_5481_122197" x1="-146.934" y1="169.541" x2="153.819" y2="110.102" gradientUnits="userSpaceOnUse">
<stop stop-color="#30A7FE" stop-opacity="0"/>
<stop offset="0.432292" stop-color="#30A7FE" stop-opacity="0.994652"/>
<stop offset="0.609375" stop-color="#30A7FE"/>
<stop offset="1" stop-color="#30A7FE" stop-opacity="0"/>
</linearGradient>
<clipPath id="clip0_5481_122197">
<rect width="160" height="160" rx="10" fill="white"/>
</clipPath>
</defs>
<clipPath id="mask0_5481_122197">
<path fill-rule="evenodd" d="M114.843 123.843C105.28 131.453 93.1709 136 80 136C66.8809 136 54.8155 131.489 45.2704 123.933C45.5744 123.615 45.8307 123.241 46.0223 122.817C51.8962 109.835 64.9956 100.748 80.0004 100.748C94.8783 100.748 107.885 109.692 113.831 122.5C114.077 123.032 114.426 123.484 114.843 123.843ZM120.747 118.415C113.408 103.306 97.8643 92.748 80.0004 92.748C62.1368 92.748 46.5914 103.296 39.2521 118.414C29.796 108.387 24 94.8703 24 80C24 49.0721 49.0721 24 80 24C110.928 24 136 49.0721 136 80C136 94.871 130.203 108.388 120.747 118.415ZM63.4873 62.8361C63.4873 52.7333 71.1151 44.9824 79.9997 44.9824C88.8843 44.9824 96.512 52.7333 96.512 62.8361C96.512 72.9389 88.8843 80.6898 79.9997 80.6898C71.1151 80.6898 63.4873 72.9389 63.4873 62.8361ZM79.9997 36.9824C66.227 36.9824 55.4873 48.8 55.4873 62.8361C55.4873 76.8723 66.227 88.6898 79.9997 88.6898C93.7724 88.6898 104.512 76.8723 104.512 62.8361C104.512 48.8 93.7724 36.9824 79.9997 36.9824Z" fill="#292929"/>
</clipPath>
<g clip-path="url(#mask0_5481_122197)">
<g clip-path="url(#clip0_5481_122197)">
<rect width="160" height="160" rx="10" fill="#D9F4FD"/>
<circle cx="142.62" cy="105.187" r="231.011" fill="url(#paint0_radial_5481_122197)"/>
<path d="M-14.3999 50.1137C-16.9679 -5.18932 25.7823 -52.103 81.0853 -54.6709C136.388 -57.2388 183.302 -14.4887 185.87 40.8143C188.438 96.1173 145.688 143.031 90.3846 145.599C35.0817 148.167 -11.832 105.417 -14.3999 50.1137Z" fill="url(#paint1_linear_5481_122197)"/>
<path d="M40.4184 -110.716C27.9428 -118.436 12.1362 -118.483 -0.385738 -110.838L-125.628 -34.3691C-137.894 -26.8797 -137.914 -9.20217 -125.665 -1.68455L-1.25042 74.676C11.2528 82.3487 27.0594 82.3396 39.5518 74.6486L163.71 -1.78335C175.895 -9.28493 175.917 -26.8637 163.748 -34.3936L40.4184 -110.716Z" fill="url(#paint2_linear_5481_122197)"/>
<path d="M-79.7631 76.5289C-53.9489 76.5289 -30.5656 86.9766 -13.6359 103.831C20.2235 137.599 48.2951 137.628 82.1545 103.918C99.0842 86.9766 122.496 76.5 148.34 76.5C199.997 76.5289 241.844 118.262 241.844 169.779C241.844 221.296 199.997 263 148.34 263C122.439 263 99.0263 252.495 82.0966 235.553C48.2661 201.901 20.2235 201.93 -13.6359 235.697C-30.5656 252.581 -53.9489 263 -79.7631 263C-131.392 263 -173.238 221.267 -173.238 169.779C-173.238 118.291 -131.392 76.5289 -79.7631 76.5289Z" fill="url(#paint3_linear_5481_122197)"/>
</g>
</g>

</svg>
