<svg width="48" height="48" viewBox="0 0 48 48" xmlns="http://www.w3.org/2000/svg">
  <defs>
<radialGradient id="paint0_radial_5481_122385" cx="0" cy="0" r="1" gradientUnits="userSpaceOnUse" gradientTransform="translate(42.7877 31.5552) rotate(90) scale(69.3033)">
<stop offset="0.0885417" stop-color="#EB1000"/>
<stop offset="1" stop-color="#EB1000" stop-opacity="0"/>
</radialGradient>
<linearGradient id="paint1_linear_5481_122385" x1="34.7309" y1="-1.54315" x2="6.93278" y2="34.4977" gradientUnits="userSpaceOnUse">
<stop stop-color="#FF4885"/>
<stop offset="1" stop-color="#FF4885" stop-opacity="0"/>
</linearGradient>
<linearGradient id="paint2_linear_5481_122385" x1="17.7929" y1="-18.1348" x2="23.1553" y2="16.1845" gradientUnits="userSpaceOnUse">
<stop offset="0.15625" stop-color="#7A6AFD"/>
<stop offset="1" stop-color="#7A6AFD" stop-opacity="0"/>
</linearGradient>
<linearGradient id="paint3_linear_5481_122385" x1="-44.0785" y1="50.8616" x2="46.1473" y2="33.0298" gradientUnits="userSpaceOnUse">
<stop stop-color="#30A7FE" stop-opacity="0"/>
<stop offset="0.432292" stop-color="#30A7FE" stop-opacity="0.994652"/>
<stop offset="0.609375" stop-color="#30A7FE"/>
<stop offset="1" stop-color="#30A7FE" stop-opacity="0"/>
</linearGradient>
<clipPath id="clip0_5481_122385">
<rect width="48" height="48" fill="white"/>
</clipPath>
<clipPath id="clip1_5481_122385">
<rect width="48" height="48" rx="10" fill="white"/>
</clipPath>
</defs>
<g clip-path="url(#clip0_5481_122385)">
<clipPath id="mask0_5481_122385">
<path fill-rule="evenodd" d="M4.8084 9.15262C4.4604 9.24176 4.18695 9.51072 4.09206 9.8572C3.99717 10.2037 4.09542 10.5744 4.34944 10.8284L8.94823 15.4272C9.15574 15.6348 9.44394 15.7406 9.73644 15.7168L13.511 15.4097L19.8847 21.7833C20.3728 22.2714 21.1643 22.2714 21.6524 21.7833C22.1406 21.2951 22.1406 20.5037 21.6524 20.0155L15.2791 13.6422L15.5863 9.86693C15.6101 9.57443 15.5043 9.28623 15.2967 9.07872L10.698 4.47993C10.4439 4.22591 10.0732 4.12766 9.72671 4.22255C9.38023 4.31744 9.11127 4.59089 9.02213 4.93889L8.16286 8.29334L4.8084 9.15262ZM23.999 8.86939C22.2551 8.86939 20.5827 9.16389 19.0271 9.70485C18.375 9.9316 17.6626 9.58683 17.4358 8.93477C17.2091 8.28272 17.5539 7.5703 18.2059 7.34355C20.022 6.71202 21.9718 6.36939 23.999 6.36939C33.7363 6.36938 41.63 14.2631 41.63 24.0004C41.63 33.7378 33.7363 41.6315 23.999 41.6315C14.2616 41.6315 6.36792 33.7378 6.36792 24.0004C6.36792 22.0442 6.68699 20.1599 7.27691 18.3983C7.49613 17.7437 8.20452 17.3907 8.85915 17.61C9.51377 17.8292 9.86674 18.5376 9.64752 19.1922C9.1422 20.7012 8.86792 22.3175 8.86792 24.0004C8.86792 32.3571 15.6423 39.1315 23.999 39.1315C32.3556 39.1315 39.13 32.3571 39.13 24.0004C39.13 15.6438 32.3556 8.86939 23.999 8.86939ZM23.9984 16.6223C23.1972 16.6223 22.4282 16.7496 21.7091 16.984C21.0528 17.198 20.3472 16.8394 20.1332 16.1831C19.9192 15.5267 20.2778 14.8212 20.9342 14.6072C21.9004 14.2921 22.9308 14.1223 23.9984 14.1223C29.4537 14.1223 33.876 18.5447 33.876 23.9999C33.876 29.4551 29.4537 33.8775 23.9984 33.8775C18.5432 33.8775 14.1208 29.4551 14.1208 23.9999C14.1208 22.9941 14.2716 22.0213 14.5525 21.1039C14.7547 20.4438 15.4537 20.0726 16.1138 20.2747C16.7739 20.4769 17.1451 21.1759 16.9429 21.836C16.7338 22.5188 16.6208 23.245 16.6208 23.9999C16.6208 28.0744 19.9239 31.3775 23.9984 31.3775C28.073 31.3775 31.376 28.0744 31.376 23.9999C31.376 19.9254 28.073 16.6223 23.9984 16.6223ZM21.3264 25.6532C23.5862 25.4428 25.385 23.6439 25.5952 21.384C26.4988 21.9282 27.1032 22.9188 27.1032 24.0505C27.1032 25.7684 25.7106 27.161 23.9927 27.161C22.8611 27.161 21.8707 26.5567 21.3264 25.6532Z" fill="white"/>
</clipPath>
<g clip-path="url(#mask0_5481_122385)">
<g clip-path="url(#clip1_5481_122385)">
<rect width="48" height="48" rx="10" fill="#D9F4FD"/>
<circle cx="42.7877" cy="31.5552" r="69.3033" fill="url(#paint0_radial_5481_122385)"/>
<path d="M-4.31959 15.0345C-5.08998 -1.55641 7.73508 -15.6305 24.326 -16.4009C40.9169 -17.1713 54.991 -4.34621 55.7613 12.2447C56.5317 28.8356 43.7067 42.9097 27.1158 43.6801C10.5249 44.4504 -3.54921 31.6254 -4.31959 15.0345Z" fill="url(#paint1_linear_5481_122385)"/>
<path d="M12.1243 -33.214C8.38167 -35.53 3.6397 -35.5442 -0.116893 -33.2506L-37.6896 -10.3099C-41.3694 -8.06314 -41.3755 -2.75987 -37.7007 -0.504581L-0.376298 22.4036C3.37467 24.7054 8.11665 24.7027 11.8644 22.3954L49.1119 -0.534222C52.7672 -2.7847 52.7739 -8.05833 49.1231 -10.3173L12.1243 -33.214Z" fill="url(#paint2_linear_5481_122385)"/>
<path d="M-23.9274 22.9579C-16.1831 22.9579 -9.16812 26.0922 -4.0892 31.1486C6.06863 41.2789 14.4901 41.2875 24.6479 31.1746C29.7268 26.0922 36.7505 22.9492 44.5034 22.9492C60.0006 22.9579 72.5547 35.4778 72.5547 50.9329C72.5547 66.388 60.0006 78.8992 44.5034 78.8992C36.7331 78.8992 29.7095 75.7476 24.6306 70.6652C14.4814 60.5696 6.06863 60.5782 -4.0892 70.7085C-9.16812 75.7736 -16.1831 78.8992 -23.9274 78.8992C-39.4159 78.8992 -51.9699 66.3793 -51.9699 50.9329C-51.9699 35.4865 -39.4159 22.9579 -23.9274 22.9579Z" fill="url(#paint3_linear_5481_122385)"/>
</g>
</g>
</g>

</svg>
