<svg width="160" height="160" viewBox="0 0 160 160" xmlns="http://www.w3.org/2000/svg">
  <defs>
<radialGradient id="paint0_radial_5481_122152" cx="0" cy="0" r="1" gradientUnits="userSpaceOnUse" gradientTransform="translate(136.902 102.123) rotate(90) scale(189.14 200.691)">
<stop offset="0.0885417" stop-color="#EB1000"/>
<stop offset="1" stop-color="#EB1000" stop-opacity="0"/>
</radialGradient>
<linearGradient id="paint1_linear_5481_122152" x1="113.572" y1="11.7876" x2="38.9611" y2="114.429" gradientUnits="userSpaceOnUse">
<stop stop-color="#FF4885"/>
<stop offset="1" stop-color="#FF4885" stop-opacity="0"/>
</linearGradient>
<linearGradient id="paint2_linear_5481_122152" x1="64.5303" y1="-33.4948" x2="78.3597" y2="60.4186" gradientUnits="userSpaceOnUse">
<stop offset="0.15625" stop-color="#7A6AFD"/>
<stop offset="1" stop-color="#7A6AFD" stop-opacity="0"/>
</linearGradient>
<linearGradient id="paint3_linear_5481_122152" x1="-114.649" y1="154.812" x2="145.4" y2="100.279" gradientUnits="userSpaceOnUse">
<stop stop-color="#30A7FE" stop-opacity="0"/>
<stop offset="0.432292" stop-color="#30A7FE" stop-opacity="0.994652"/>
<stop offset="0.609375" stop-color="#30A7FE"/>
<stop offset="1" stop-color="#30A7FE" stop-opacity="0"/>
</linearGradient>
<clipPath id="clip0_5481_122152">
<rect x="13" y="16" width="139" height="131" rx="10" fill="white"/>
</clipPath>
</defs>
<clipPath id="mask0_5481_122152">
<path fill-rule="evenodd" d="M111.999 16H131.999C138.626 16 143.999 21.3726 143.999 28V72C143.999 78.6274 138.626 84 131.999 84H111.999C105.371 84 99.9986 78.6274 99.9986 72V28C99.9986 21.3726 105.371 16 111.999 16ZM57.9986 100H101.999C108.626 100 113.999 105.373 113.999 112V132C113.999 138.627 108.626 144 101.999 144H57.9986C51.3712 144 45.9986 138.627 45.9986 132V112C45.9986 105.373 51.3712 100 57.9986 100ZM66.2486 71.4699L74.5086 91.5898C75.8486 94.8398 80.4286 94.9098 81.8586 91.6998L84.2686 86.2999C84.6686 85.3998 85.3886 84.6798 86.2886 84.2798L91.6786 81.8699C94.8886 80.4398 94.8186 75.8498 91.5686 74.5198L71.4586 66.2499C68.1686 64.8998 64.8886 68.1799 66.2386 71.4699H66.2486ZM56.4186 75.3502C58.6286 75.3502 60.4186 77.1402 60.4186 79.3502C60.4186 81.5602 58.6286 83.3502 56.4186 83.3502H35.9686C34.4786 86.4102 31.3586 88.5202 27.7286 88.5202C22.6586 88.5202 18.5586 84.4102 18.5586 79.3502C18.5586 75.7202 20.6786 72.6002 23.7286 71.1102V35.9002C20.6686 34.4102 18.5586 31.2902 18.5586 27.6602C18.5586 22.5902 22.6686 18.4902 27.7286 18.4902C31.3586 18.4902 34.4786 20.6102 35.9686 23.6602H71.0286C72.5186 20.6002 75.6386 18.4902 79.2686 18.4902C84.3386 18.4902 88.4386 22.6002 88.4386 27.6602C88.4386 31.2902 86.3186 34.4102 83.2686 35.9002V56.4002C83.2686 58.6102 81.4786 60.4002 79.2686 60.4002C77.0586 60.4002 75.2686 58.6102 75.2686 56.4002V35.9002C73.4186 35.0002 71.9286 33.5002 71.0286 31.6602H35.9686C35.0686 33.5102 33.5686 35.0002 31.7286 35.9002V71.1102C33.5786 72.0102 35.0686 73.5102 35.9686 75.3502H56.4186Z" fill="white"/>
</clipPath>
<g clip-path="url(#mask0_5481_122152)">
<g clip-path="url(#clip0_5481_122152)">
<rect x="13" y="16" width="139" height="131" rx="10" fill="#D9F4FD"/>
<ellipse cx="136.902" cy="102.123" rx="200.691" ry="189.14" fill="url(#paint0_radial_5481_122152)"/>
<path d="M0.487913 57.0307C-1.74299 11.7514 35.3963 -26.6591 83.4407 -28.7616C131.485 -30.8641 172.241 4.13757 174.472 49.4169C176.703 94.6962 139.564 133.107 91.5195 135.209C43.4751 137.312 2.71881 102.31 0.487913 57.0307Z" fill="url(#paint1_linear_5481_122152)"/>
<path d="M48.115 -74.6484C37.2768 -80.969 23.5449 -81.0077 12.6664 -74.7483L-96.1379 -12.1393C-106.794 -6.00745 -106.812 8.46606 -96.1702 14.6211L11.9152 77.1413C22.7774 83.4234 36.5094 83.4159 47.3622 77.1189L155.225 14.5402C165.81 8.3983 165.829 -5.99433 155.257 -12.1594L48.115 -74.6484Z" fill="url(#paint2_linear_5481_122152)"/>
<path d="M-56.2944 78.6584C-33.8683 78.6584 -13.5541 87.2124 1.15361 101.012C30.569 128.659 54.9561 128.683 84.3715 101.083C99.0792 87.2124 119.419 78.6348 141.87 78.6348C186.747 78.6584 223.102 112.827 223.102 155.007C223.102 197.186 186.747 231.332 141.87 231.332C119.368 231.332 99.0289 222.73 84.3212 208.86C54.931 181.307 30.569 181.331 1.15361 208.978C-13.5541 222.801 -33.8683 231.332 -56.2944 231.332C-101.147 231.332 -137.501 197.163 -137.501 155.007C-137.501 112.851 -101.147 78.6584 -56.2944 78.6584Z" fill="url(#paint3_linear_5481_122152)"/>
</g>
</g>

</svg>
