<svg width="48" height="48" viewBox="0 0 48 48" xmlns="http://www.w3.org/2000/svg">
  <defs>
<radialGradient id="paint0_radial_5481_122328" cx="0" cy="0" r="1" gradientUnits="userSpaceOnUse" gradientTransform="translate(39.1062 30.3118) rotate(90) scale(51.2844 54.4031)">
<stop offset="0.0885417" stop-color="#EB1000"/>
<stop offset="1" stop-color="#EB1000" stop-opacity="0"/>
</radialGradient>
<linearGradient id="paint1_linear_5481_122328" x1="32.7828" y1="5.819" x2="12.551" y2="33.6451" gradientUnits="userSpaceOnUse">
<stop stop-color="#FF4885"/>
<stop offset="1" stop-color="#FF4885" stop-opacity="0"/>
</linearGradient>
<linearGradient id="paint2_linear_5481_122328" x1="19.4888" y1="-6.45884" x2="23.2394" y2="19.0051" gradientUnits="userSpaceOnUse">
<stop offset="0.15625" stop-color="#7A6AFD"/>
<stop offset="1" stop-color="#7A6AFD" stop-opacity="0"/>
</linearGradient>
<linearGradient id="paint3_linear_5481_122328" x1="-29.0844" y1="44.5985" x2="41.4108" y2="29.819" gradientUnits="userSpaceOnUse">
<stop stop-color="#30A7FE" stop-opacity="0"/>
<stop offset="0.432292" stop-color="#30A7FE" stop-opacity="0.994652"/>
<stop offset="0.609375" stop-color="#30A7FE"/>
<stop offset="1" stop-color="#30A7FE" stop-opacity="0"/>
</linearGradient>
<clipPath id="clip0_5481_122328">
<rect x="5.51953" y="6.96094" width="37.68" height="35.52" rx="10" fill="white"/>
</clipPath>
</defs>
<clipPath id="mask0_5481_122328">
<path fill-rule="evenodd" d="M35.2619 16.3957C35.2604 16.4279 35.2589 16.4602 35.2589 16.4917C39.2699 16.7287 42.4529 20.0467 42.4529 24.4477C42.4529 28.8487 39.0389 32.4157 34.8239 32.4157H34.7819H25.0529V22.2217L30.3029 26.4337C30.5249 26.6107 30.7889 26.6977 31.0529 26.6977C31.4039 26.6977 31.7519 26.5417 31.9889 26.2477C32.4029 25.7317 32.3189 24.9757 31.8029 24.5617L24.7019 18.8617C24.2609 18.5077 23.6309 18.5107 23.1929 18.8677L16.1939 24.5677C15.6779 24.9877 15.5999 25.7437 16.0199 26.2567C16.4399 26.7727 17.1959 26.8507 17.7089 26.4307L22.6499 22.4047V32.4157L25.0498 32.4157V40.8007C25.0498 41.4637 24.5128 42.0007 23.8498 42.0007C23.1868 42.0007 22.6498 41.4637 22.6498 40.8007V32.4157L10.9409 32.4157V32.4097C7.95588 32.3587 5.54688 29.8177 5.54688 26.6857C5.54688 24.0487 7.25688 21.8317 9.58188 21.1657C9.47688 20.6827 9.41387 20.1817 9.41387 19.6627C9.41387 15.9847 12.2669 13.0057 15.7859 13.0057C16.6469 13.0057 17.4659 13.1857 18.2159 13.5097C19.3469 9.83769 22.6409 7.17969 26.5319 7.17969C31.3559 7.17969 35.2649 11.2627 35.2649 16.2997C35.2649 16.3312 35.2634 16.3634 35.2619 16.3957Z" fill="white"/>
</clipPath>
<g clip-path="url(#mask0_5481_122328)">
<g clip-path="url(#clip0_5481_122328)">
<rect x="5.51953" y="6.96094" width="37.68" height="35.52" rx="10" fill="#D9F4FD"/>
<ellipse cx="39.1062" cy="30.3118" rx="54.4031" ry="51.2844" fill="url(#paint0_radial_5481_122328)"/>
<path d="M2.12818 18.0865C1.52343 5.80919 11.5911 -4.60564 24.615 -5.17572C37.6388 -5.74581 48.687 3.74473 49.2917 16.022C49.8965 28.2993 39.8288 38.7141 26.8049 39.2842C13.7811 39.8543 2.73293 30.3637 2.12818 18.0865Z" fill="url(#paint1_linear_5481_122328)"/>
<path d="M15.0389 -17.6174C12.1009 -19.3312 8.3785 -19.3417 5.42957 -17.6445L-24.065 -0.668411C-26.9536 0.994216 -26.9584 4.91864 -24.0738 6.58755L5.22594 23.5396C8.17045 25.2429 11.8929 25.2409 14.8349 23.5335L44.0742 6.56562C46.9436 4.90026 46.9489 0.997775 44.083 -0.673862L15.0389 -17.6174Z" fill="url(#paint2_linear_5481_122328)"/>
<path d="M-13.2658 23.9498C-7.18652 23.9498 -1.67976 26.2692 2.30719 30.0109C10.2811 37.5073 16.8919 37.5137 24.8658 30.0302C28.8528 26.2692 34.3664 23.9434 40.4524 23.9434C52.6177 23.9498 62.4727 33.2145 62.4727 44.6513C62.4727 56.088 52.6177 65.3464 40.4524 65.3464C34.3527 65.3464 28.8392 63.0142 24.8522 59.2532C16.8851 51.7824 10.2811 51.7888 2.30719 59.2852C-1.67976 63.0334 -7.18652 65.3464 -13.2658 65.3464C-25.4243 65.3464 -35.2792 56.0816 -35.2792 44.6513C-35.2792 33.2209 -25.4243 23.9498 -13.2658 23.9498Z" fill="url(#paint3_linear_5481_122328)"/>
</g>
</g>

</svg>
