<svg width="96" height="96" viewBox="0 0 96 96" xmlns="http://www.w3.org/2000/svg">
  <defs>
<radialGradient id="paint0_radial_5481_122498" cx="0" cy="0" r="1" gradientUnits="userSpaceOnUse" gradientTransform="translate(77.8634 61.104) rotate(90) scale(106.979 113.484)">
<stop offset="0.0885417" stop-color="#EB1000"/>
<stop offset="1" stop-color="#EB1000" stop-opacity="0"/>
</radialGradient>
<linearGradient id="paint1_linear_5481_122498" x1="64.6728" y1="10.0091" x2="22.4695" y2="68.0542" gradientUnits="userSpaceOnUse">
<stop stop-color="#FF4885"/>
<stop offset="1" stop-color="#FF4885" stop-opacity="0"/>
</linearGradient>
<linearGradient id="paint2_linear_5481_122498" x1="36.9407" y1="-15.6028" x2="44.7646" y2="37.5147" gradientUnits="userSpaceOnUse">
<stop offset="0.15625" stop-color="#7A6AFD"/>
<stop offset="1" stop-color="#7A6AFD" stop-opacity="0"/>
</linearGradient>
<linearGradient id="paint3_linear_5481_122498" x1="-64.382" y1="90.9048" x2="82.6705" y2="60.0748" gradientUnits="userSpaceOnUse">
<stop stop-color="#30A7FE" stop-opacity="0"/>
<stop offset="0.432292" stop-color="#30A7FE" stop-opacity="0.994652"/>
<stop offset="0.609375" stop-color="#30A7FE"/>
<stop offset="1" stop-color="#30A7FE" stop-opacity="0"/>
</linearGradient>
<clipPath id="clip0_5481_122498">
<rect x="7.80078" y="12.3926" width="78.6002" height="74.0945" rx="10" fill="white"/>
</clipPath>
</defs>
<clipPath id="mask0_5481_122498">
<path fill-rule="evenodd" d="M70.1113 30.2703C70.1113 38.3889 63.9329 44.9703 56.3113 44.9703C48.6898 44.9703 42.5113 38.3889 42.5113 30.2703C42.5113 22.1517 48.6898 15.5703 56.3113 15.5703C63.9329 15.5703 70.1113 22.1517 70.1113 30.2703ZM43.5558 44.4483C42.3318 44.8263 41.0358 45.0363 39.6918 45.0363C32.0718 45.0363 25.8918 38.4543 25.8918 30.3363C25.8918 22.2183 32.0718 15.6363 39.6918 15.6363C40.9938 15.6363 42.2598 15.8343 43.4538 16.1943C39.9138 19.7463 37.7058 24.6903 37.7058 30.2703C37.7058 35.8503 39.9558 40.8903 43.5558 44.4483ZM24.0436 73.4823C25.9936 64.4283 31.6336 56.8623 39.1576 52.2423C25.9336 52.4943 14.8096 62.0343 12.1156 74.5563C11.4676 77.5683 13.7176 80.4243 16.8016 80.4243H25.1656C23.9416 78.3483 23.5216 75.8883 24.0436 73.4823ZM56.3053 52.1703C69.7633 52.1703 81.1513 61.8063 83.8813 74.4963C84.5293 77.5083 82.2793 80.3643 79.1953 80.3643H33.4153C30.3313 80.3643 28.0813 77.5083 28.7293 74.4963C31.4593 61.8063 42.8473 52.1703 56.3053 52.1703Z" fill="white"/>
</clipPath>
<g clip-path="url(#mask0_5481_122498)">
<g clip-path="url(#clip0_5481_122498)">
<rect x="7.80078" y="12.3926" width="78.6002" height="74.0945" rx="10" fill="#D9F4FD"/>
<ellipse cx="77.8634" cy="61.104" rx="113.484" ry="106.979" fill="url(#paint0_radial_5481_122498)"/>
<path d="M0.727532 35.599C-0.533973 9.98868 20.4671 -11.7366 47.6348 -12.9258C74.8025 -14.115 97.8489 5.68225 99.1104 31.2925C100.372 56.9028 79.3708 78.6281 52.2031 79.8173C25.0354 81.0065 1.98904 61.2093 0.727532 35.599Z" fill="url(#paint1_linear_5481_122498)"/>
<path d="M27.6584 -38.8796C21.5297 -42.4546 13.7647 -42.4765 7.61328 -38.9361L-53.9122 -3.52401C-59.9379 -0.0557808 -59.9479 8.13054 -53.9305 11.6119L7.1885 46.9737C13.3307 50.5269 21.0958 50.5227 27.2327 46.9611L88.2257 11.5661C94.2113 8.09221 94.2223 -0.0483564 88.244 -3.53538L27.6584 -38.8796Z" fill="url(#paint2_linear_5481_122498)"/>
<path d="M-31.3844 47.8317C-18.7031 47.8317 -7.21605 52.67 1.1007 60.4753C17.7342 76.1126 31.5244 76.126 48.1579 60.5154C56.4746 52.67 67.9759 47.8184 80.6714 47.8184C106.048 47.8317 126.605 67.1579 126.605 91.0149C126.605 114.872 106.048 134.185 80.6714 134.185C67.9475 134.185 56.4462 129.32 48.1294 121.474C31.5102 105.89 17.7342 105.904 1.1007 121.541C-7.21605 129.36 -18.7031 134.185 -31.3844 134.185C-56.7469 134.185 -77.3042 114.859 -77.3042 91.0149C-77.3042 67.1713 -56.7469 47.8317 -31.3844 47.8317Z" fill="url(#paint3_linear_5481_122498)"/>
</g>
</g>

</svg>
