<svg width="48" height="48" viewBox="0 0 48 48" xmlns="http://www.w3.org/2000/svg">
  <defs>
<radialGradient id="paint0_radial_5481_122359" cx="0" cy="0" r="1" gradientUnits="userSpaceOnUse" gradientTransform="translate(42.7877 31.5552) rotate(90) scale(69.3033)">
<stop offset="0.0885417" stop-color="#EB1000"/>
<stop offset="1" stop-color="#EB1000" stop-opacity="0"/>
</radialGradient>
<linearGradient id="paint1_linear_5481_122359" x1="34.7309" y1="-1.54315" x2="6.93278" y2="34.4977" gradientUnits="userSpaceOnUse">
<stop stop-color="#FF4885"/>
<stop offset="1" stop-color="#FF4885" stop-opacity="0"/>
</linearGradient>
<linearGradient id="paint2_linear_5481_122359" x1="17.7929" y1="-18.1348" x2="23.1553" y2="16.1845" gradientUnits="userSpaceOnUse">
<stop offset="0.15625" stop-color="#7A6AFD"/>
<stop offset="1" stop-color="#7A6AFD" stop-opacity="0"/>
</linearGradient>
<linearGradient id="paint3_linear_5481_122359" x1="-44.0785" y1="50.8616" x2="46.1473" y2="33.0298" gradientUnits="userSpaceOnUse">
<stop stop-color="#30A7FE" stop-opacity="0"/>
<stop offset="0.432292" stop-color="#30A7FE" stop-opacity="0.994652"/>
<stop offset="0.609375" stop-color="#30A7FE"/>
<stop offset="1" stop-color="#30A7FE" stop-opacity="0"/>
</linearGradient>
<clipPath id="clip0_5481_122359">
<rect width="48" height="48" rx="10" fill="white"/>
</clipPath>
</defs>
<clipPath id="mask0_5481_122359">
<path fill-rule="evenodd" d="M39.8052 13.3758L37.6886 13.7988C37.4086 13.8552 37.1761 14.044 37.0629 14.3048L36.209 16.2867C35.8725 17.0677 34.7306 16.9468 34.5648 16.1146L34.1418 13.998C34.0854 13.718 33.8966 13.4855 33.6358 13.3723L31.6539 12.5184C30.8729 12.1819 30.9938 11.04 31.8261 10.8742L33.9426 10.4512C34.2226 10.3948 34.4551 10.206 34.5683 9.94516L35.4222 7.96333C35.7588 7.18231 36.9006 7.30323 37.0664 8.13544L37.4894 10.252C37.5458 10.532 37.7346 10.7645 37.9954 10.8777L39.9773 11.7316C40.7583 12.0681 40.6374 13.21 39.8052 13.3758ZM21.9486 15.1904L20.2004 15.5398C19.9691 15.5864 19.7771 15.7423 19.6836 15.9577L18.9783 17.5946C18.7003 18.2397 17.7572 18.1399 17.6203 17.4525L17.2709 15.7043C17.2243 15.473 17.0684 15.281 16.8529 15.1875L15.216 14.4822C14.5709 14.2043 14.6708 13.2612 15.3582 13.1242L17.1064 12.7748C17.3377 12.7282 17.5297 12.5723 17.6232 12.3569L18.3285 10.7199C18.6064 10.0749 19.5495 10.1747 19.6865 10.8621L20.0358 12.6103C20.0825 12.8416 20.2384 13.0336 20.4538 13.1271L22.0907 13.8324C22.7358 14.1103 22.6359 15.0534 21.9486 15.1904ZM37.4655 28.1472L39.2137 27.7978C39.9011 27.6609 40.0009 26.7178 39.3559 26.4398L37.719 25.7345C37.5035 25.641 37.3476 25.449 37.301 25.2177L36.9516 23.4695C36.8147 22.7822 35.8716 22.6823 35.5936 23.3274L34.8883 24.9643C34.7948 25.1797 34.6028 25.3356 34.3715 25.3823L32.6233 25.7316C31.936 25.8686 31.8361 26.8117 32.4812 27.0896L34.1181 27.7949C34.3335 27.8884 34.4894 28.0804 34.5361 28.3117L34.8854 30.0599C35.0224 30.7473 35.9655 30.8472 36.2434 30.2021L36.9487 28.5652C37.0422 28.3497 37.2342 28.1938 37.4655 28.1472ZM26.6596 17.313C27.7867 16.1858 29.6142 16.1858 30.7413 17.313C31.8685 18.4401 31.8685 20.2676 30.7413 21.3947L28.0658 24.0702L23.9841 19.9885L26.6596 17.313ZM22.2163 21.7562L26.2981 25.838L12.4232 39.7129C11.2961 40.84 9.4686 40.84 8.34145 39.7128C7.21431 38.5857 7.21431 36.7582 8.34145 35.6311L22.2163 21.7562Z" fill="#292929"/>
</clipPath>
<g clip-path="url(#mask0_5481_122359)">
<g clip-path="url(#clip0_5481_122359)">
<rect width="48" height="48" rx="10" fill="#D9F4FD"/>
<circle cx="42.7877" cy="31.5552" r="69.3033" fill="url(#paint0_radial_5481_122359)"/>
<path d="M-4.31959 15.0345C-5.08998 -1.55641 7.73508 -15.6305 24.326 -16.4009C40.9169 -17.1713 54.991 -4.34621 55.7613 12.2447C56.5317 28.8356 43.7067 42.9097 27.1158 43.6801C10.5249 44.4504 -3.54921 31.6254 -4.31959 15.0345Z" fill="url(#paint1_linear_5481_122359)"/>
<path d="M12.1243 -33.214C8.38167 -35.53 3.6397 -35.5442 -0.116893 -33.2506L-37.6896 -10.3099C-41.3694 -8.06314 -41.3755 -2.75987 -37.7007 -0.504581L-0.376298 22.4036C3.37467 24.7054 8.11665 24.7027 11.8644 22.3954L49.1119 -0.534222C52.7672 -2.7847 52.7739 -8.05833 49.1231 -10.3173L12.1243 -33.214Z" fill="url(#paint2_linear_5481_122359)"/>
<path d="M-23.9274 22.9579C-16.1831 22.9579 -9.16812 26.0922 -4.0892 31.1486C6.06863 41.2789 14.4901 41.2875 24.6479 31.1746C29.7268 26.0922 36.7505 22.9492 44.5034 22.9492C60.0006 22.9579 72.5547 35.4778 72.5547 50.9329C72.5547 66.388 60.0006 78.8992 44.5034 78.8992C36.7331 78.8992 29.7095 75.7476 24.6306 70.6652C14.4814 60.5696 6.06863 60.5782 -4.0892 70.7085C-9.16812 75.7736 -16.1831 78.8992 -23.9274 78.8992C-39.4159 78.8992 -51.9699 66.3793 -51.9699 50.9329C-51.9699 35.4865 -39.4159 22.9579 -23.9274 22.9579Z" fill="url(#paint3_linear_5481_122359)"/>
</g>
</g>

</svg>
