<svg width="96" height="96" viewBox="0 0 96 96" xmlns="http://www.w3.org/2000/svg">
  <defs>
<radialGradient id="paint0_radial_5481_122482" cx="0" cy="0" r="1" gradientUnits="userSpaceOnUse" gradientTransform="translate(78.2124 60.6236) rotate(90) scale(102.569 108.806)">
<stop offset="0.0885417" stop-color="#EB1000"/>
<stop offset="1" stop-color="#EB1000" stop-opacity="0"/>
</radialGradient>
<linearGradient id="paint1_linear_5481_122482" x1="65.5656" y1="11.6361" x2="25.102" y2="67.2883" gradientUnits="userSpaceOnUse">
<stop stop-color="#FF4885"/>
<stop offset="1" stop-color="#FF4885" stop-opacity="0"/>
</linearGradient>
<linearGradient id="paint2_linear_5481_122482" x1="38.9776" y1="-12.9196" x2="46.4789" y2="38.0082" gradientUnits="userSpaceOnUse">
<stop offset="0.15625" stop-color="#7A6AFD"/>
<stop offset="1" stop-color="#7A6AFD" stop-opacity="0"/>
</linearGradient>
<linearGradient id="paint3_linear_5481_122482" x1="-58.1649" y1="89.197" x2="82.8254" y2="59.6379" gradientUnits="userSpaceOnUse">
<stop stop-color="#30A7FE" stop-opacity="0"/>
<stop offset="0.432292" stop-color="#30A7FE" stop-opacity="0.994652"/>
<stop offset="0.609375" stop-color="#30A7FE"/>
<stop offset="1" stop-color="#30A7FE" stop-opacity="0"/>
</linearGradient>
<clipPath id="clip0_5481_122482">
<rect x="11.0391" y="13.9199" width="75.36" height="71.04" rx="10" fill="white"/>
</clipPath>
</defs>
<clipPath id="mask0_5481_122482">
<path fill-rule="evenodd" d="M45.6019 14.4961C38.1319 15.0241 31.3339 17.9941 26.0059 22.6141L45.6019 42.2101V14.4961ZM22.6163 26.0042C17.5043 31.8962 14.4023 39.5822 14.4023 48.0002C14.4023 56.4182 17.5043 64.0982 22.6163 69.9962L44.6123 48.0002L22.6163 26.0042ZM50.4019 48.0001V14.5021C67.8379 15.7321 81.6019 29.4481 81.6019 48.0061C81.6019 66.5641 66.5599 81.6061 48.0019 81.6061C39.5839 81.6061 31.8979 78.5041 26.0059 73.3921L49.6999 49.6981C49.7287 49.6692 49.7564 49.6396 49.7832 49.6093C49.7559 49.6396 49.7278 49.6692 49.699 49.6981C49.7614 49.6324 49.8202 49.5667 49.8744 49.4991C49.9126 49.4501 49.9491 49.3997 49.9845 49.3485L49.9852 49.3475L49.9999 49.3261C50.0539 49.2421 50.0959 49.1521 50.1378 49.0621L50.1379 49.0621C50.1433 49.0512 50.1491 49.0402 50.155 49.0293L50.1681 49.0053L50.1682 49.0052C50.1845 48.9755 50.2013 48.9449 50.2159 48.9121C50.2496 48.8301 50.2718 48.748 50.2948 48.6629C50.3003 48.6421 50.306 48.6212 50.3119 48.6001L50.3165 48.5846L50.3227 48.5657C50.3274 48.5508 50.3324 48.5364 50.3373 48.5223L50.3441 48.5025L50.3494 48.4846L50.3539 48.4681C50.3839 48.3121 50.4019 48.1561 50.4019 48.0001Z" fill="white"/>
</clipPath>
<g clip-path="url(#mask0_5481_122482)">
<g clip-path="url(#clip0_5481_122482)">
<rect x="11.0391" y="13.9199" width="75.36" height="71.04" rx="10" fill="#D9F4FD"/>
<ellipse cx="78.2124" cy="60.6236" rx="108.806" ry="102.569" fill="url(#paint0_radial_5481_122482)"/>
<path d="M4.25636 36.171C3.04686 11.6164 23.1822 -9.21323 49.2299 -10.3534C75.2776 -11.4936 97.3739 7.48752 98.5834 32.0421C99.7929 56.5966 79.6576 77.4262 53.6099 78.5664C27.5622 79.7066 5.46586 60.7255 4.25636 36.171Z" fill="url(#paint1_linear_5481_122482)"/>
<path d="M30.0779 -35.2368C24.2019 -38.6645 16.757 -38.6854 10.8591 -35.291L-48.13 -1.33878C-53.9073 1.98648 -53.9169 9.83532 -48.1475 13.1731L10.4519 47.0772C16.3409 50.4839 23.7858 50.4799 29.6697 47.0651L88.1484 13.1293C93.8873 9.79858 93.8977 1.9936 88.1659 -1.34968L30.0779 -35.2368Z" fill="url(#paint2_linear_5481_122482)"/>
<path d="M-26.5276 47.8995C-14.3691 47.8995 -3.35561 52.5383 4.61829 60.0219C20.5661 75.0146 33.7878 75.0274 49.7356 60.0603C57.7095 52.5383 68.7366 47.8867 80.9088 47.8867C105.239 47.8995 124.949 66.429 124.949 89.3025C124.949 112.176 105.239 130.693 80.9088 130.693C68.7094 130.693 57.6822 126.028 49.7083 118.506C33.7741 103.565 20.5661 103.578 4.61829 118.57C-3.35561 126.067 -14.3691 130.693 -26.5276 130.693C-50.8446 130.693 -70.5544 112.163 -70.5544 89.3025C-70.5544 66.4418 -50.8446 47.8995 -26.5276 47.8995Z" fill="url(#paint3_linear_5481_122482)"/>
</g>
</g>

</svg>
