<svg width="48" height="48" viewBox="0 0 48 48" xmlns="http://www.w3.org/2000/svg">
  <defs>
<radialGradient id="paint0_radial_5481_122363" cx="0" cy="0" r="1" gradientUnits="userSpaceOnUse" gradientTransform="translate(42.7877 31.5552) rotate(90) scale(69.3033)">
<stop offset="0.0885417" stop-color="#EB1000"/>
<stop offset="1" stop-color="#EB1000" stop-opacity="0"/>
</radialGradient>
<linearGradient id="paint1_linear_5481_122363" x1="34.7309" y1="-1.54315" x2="6.93278" y2="34.4977" gradientUnits="userSpaceOnUse">
<stop stop-color="#FF4885"/>
<stop offset="1" stop-color="#FF4885" stop-opacity="0"/>
</linearGradient>
<linearGradient id="paint2_linear_5481_122363" x1="17.7929" y1="-18.1348" x2="23.1553" y2="16.1845" gradientUnits="userSpaceOnUse">
<stop offset="0.15625" stop-color="#7A6AFD"/>
<stop offset="1" stop-color="#7A6AFD" stop-opacity="0"/>
</linearGradient>
<linearGradient id="paint3_linear_5481_122363" x1="-44.0785" y1="50.8616" x2="46.1473" y2="33.0298" gradientUnits="userSpaceOnUse">
<stop stop-color="#30A7FE" stop-opacity="0"/>
<stop offset="0.432292" stop-color="#30A7FE" stop-opacity="0.994652"/>
<stop offset="0.609375" stop-color="#30A7FE"/>
<stop offset="1" stop-color="#30A7FE" stop-opacity="0"/>
</linearGradient>
<clipPath id="clip0_5481_122363">
<rect width="48" height="48" rx="10" fill="white"/>
</clipPath>
</defs>
<clipPath id="mask0_5481_122363">
<path fill-rule="evenodd" d="M23.9991 6.23047C24.6895 6.23047 25.2491 6.79011 25.2491 7.48047V9.82106C25.2491 10.5114 24.6895 11.0711 23.9991 11.0711C23.3087 11.0711 22.7491 10.5114 22.7491 9.82106V7.48047C22.7491 6.79011 23.3087 6.23047 23.9991 6.23047ZM32.3423 23.9998C32.3423 28.6078 28.6068 32.3433 23.9988 32.3433C19.3908 32.3433 15.6552 28.6078 15.6552 23.9998C15.6552 19.3918 19.3908 15.6562 23.9988 15.6562C28.6068 15.6562 32.3423 19.3918 32.3423 23.9998ZM25.2491 38.1778C25.2491 37.4874 24.6895 36.9278 23.9991 36.9278C23.3087 36.9278 22.7491 37.4874 22.7491 38.1778V40.5184C22.7491 41.2088 23.3087 41.7684 23.9991 41.7684C24.6895 41.7684 25.2491 41.2088 25.2491 40.5184V38.1778ZM41.7689 24C41.7689 24.6904 41.2092 25.25 40.5189 25.25H38.1783C37.4879 25.25 36.9283 24.6904 36.9283 24C36.9283 23.3096 37.4879 22.75 38.1783 22.75H40.5189C41.2092 22.75 41.7689 23.3096 41.7689 24ZM9.82106 25.25C10.5114 25.25 11.0711 24.6904 11.0711 24C11.0711 23.3096 10.5114 22.75 9.82106 22.75H7.48047C6.79011 22.75 6.23047 23.3096 6.23047 24C6.23047 24.6904 6.79011 25.25 7.48047 25.25H9.82106ZM36.5641 11.4335C37.0523 11.9217 37.0523 12.7131 36.5641 13.2013L34.9091 14.8563C34.4209 15.3445 33.6295 15.3445 33.1413 14.8563C32.6532 14.3682 32.6532 13.5767 33.1413 13.0885L34.7964 11.4335C35.2845 10.9453 36.076 10.9453 36.5641 11.4335ZM14.8572 34.9082C15.3454 34.42 15.3454 33.6286 14.8572 33.1404C14.369 32.6523 13.5776 32.6523 13.0894 33.1404L11.4344 34.7955C10.9462 35.2836 10.9462 36.0751 11.4344 36.5632C11.9225 37.0514 12.714 37.0514 13.2022 36.5632L14.8572 34.9082ZM11.4335 11.4335C10.9453 11.9217 10.9453 12.7131 11.4335 13.2013L13.0885 14.8563C13.5767 15.3445 14.3681 15.3445 14.8563 14.8563C15.3444 14.3682 15.3444 13.5767 14.8563 13.0885L13.2012 11.4335C12.7131 10.9453 11.9216 10.9453 11.4335 11.4335ZM33.1404 34.9082C32.6522 34.42 32.6522 33.6286 33.1404 33.1404C33.6285 32.6523 34.42 32.6523 34.9082 33.1404L36.5632 34.7955C37.0514 35.2836 37.0514 36.0751 36.5632 36.5632C36.0751 37.0514 35.2836 37.0514 34.7954 36.5632L33.1404 34.9082Z" fill="white"/>
</clipPath>
<g clip-path="url(#mask0_5481_122363)">
<g clip-path="url(#clip0_5481_122363)">
<rect width="48" height="48" rx="10" fill="#D9F4FD"/>
<circle cx="42.7877" cy="31.5552" r="69.3033" fill="url(#paint0_radial_5481_122363)"/>
<path d="M-4.31959 15.0345C-5.08998 -1.55641 7.73508 -15.6305 24.326 -16.4009C40.9169 -17.1713 54.991 -4.34621 55.7613 12.2447C56.5317 28.8356 43.7067 42.9097 27.1158 43.6801C10.5249 44.4504 -3.54921 31.6254 -4.31959 15.0345Z" fill="url(#paint1_linear_5481_122363)"/>
<path d="M12.1243 -33.214C8.38167 -35.53 3.6397 -35.5442 -0.116893 -33.2506L-37.6896 -10.3099C-41.3694 -8.06314 -41.3755 -2.75987 -37.7007 -0.504581L-0.376298 22.4036C3.37467 24.7054 8.11665 24.7027 11.8644 22.3954L49.1119 -0.534222C52.7672 -2.7847 52.7739 -8.05833 49.1231 -10.3173L12.1243 -33.214Z" fill="url(#paint2_linear_5481_122363)"/>
<path d="M-23.9274 22.9579C-16.1831 22.9579 -9.16812 26.0922 -4.0892 31.1486C6.06863 41.2789 14.4901 41.2875 24.6479 31.1746C29.7268 26.0922 36.7505 22.9492 44.5034 22.9492C60.0006 22.9579 72.5547 35.4778 72.5547 50.9329C72.5547 66.388 60.0006 78.8992 44.5034 78.8992C36.7331 78.8992 29.7095 75.7476 24.6306 70.6652C14.4814 60.5696 6.06863 60.5782 -4.0892 70.7085C-9.16812 75.7736 -16.1831 78.8992 -23.9274 78.8992C-39.4159 78.8992 -51.9699 66.3793 -51.9699 50.9329C-51.9699 35.4865 -39.4159 22.9579 -23.9274 22.9579Z" fill="url(#paint3_linear_5481_122363)"/>
</g>
</g>

</svg>
