<svg width="96" height="96" viewBox="0 0 96 96" xmlns="http://www.w3.org/2000/svg">
  <defs>
<radialGradient id="paint0_radial_5481_122545" cx="0" cy="0" r="1" gradientUnits="userSpaceOnUse" gradientTransform="translate(85.5714 63.1124) rotate(90) scale(138.607)">
<stop offset="0.0885417" stop-color="#EB1000"/>
<stop offset="1" stop-color="#EB1000" stop-opacity="0"/>
</radialGradient>
<linearGradient id="paint1_linear_5481_122545" x1="69.4617" y1="-3.08825" x2="13.8656" y2="68.9935" gradientUnits="userSpaceOnUse">
<stop stop-color="#FF4885"/>
<stop offset="1" stop-color="#FF4885" stop-opacity="0"/>
</linearGradient>
<linearGradient id="paint2_linear_5481_122545" x1="35.5898" y1="-36.2716" x2="46.3146" y2="32.3671" gradientUnits="userSpaceOnUse">
<stop offset="0.15625" stop-color="#7A6AFD"/>
<stop offset="1" stop-color="#7A6AFD" stop-opacity="0"/>
</linearGradient>
<linearGradient id="paint3_linear_5481_122545" x1="-88.1609" y1="101.725" x2="92.2907" y2="66.0615" gradientUnits="userSpaceOnUse">
<stop stop-color="#30A7FE" stop-opacity="0"/>
<stop offset="0.432292" stop-color="#30A7FE" stop-opacity="0.994652"/>
<stop offset="0.609375" stop-color="#30A7FE"/>
<stop offset="1" stop-color="#30A7FE" stop-opacity="0"/>
</linearGradient>
<clipPath id="clip0_5481_122545">
<rect width="96" height="96" rx="10" fill="white"/>
</clipPath>
</defs>
<clipPath id="mask0_5481_122545">
<path fill-rule="evenodd" d="M80.9343 33.9766C80.6405 35.2808 79.4163 36.3324 77.9003 35.9772L72.4372 34.695C72.2987 34.6622 72.159 34.642 72.0195 34.6339V34.6342C71.3424 34.5951 70.6701 34.842 70.1633 35.3297L66.0463 39.2887C64.2189 41.0468 61.3116 39.2953 61.8564 36.764L63.0851 31.0634C63.2688 30.2174 63.0408 29.3285 62.4771 28.6907L58.6831 24.3946C58.5708 24.2675 58.4734 24.1354 58.3902 23.9997H58.3904C58.0462 23.4384 57.9445 22.8154 58.0303 22.2298C58.2351 20.8328 59.5072 19.6487 61.1026 20.0225L66.5656 21.3048C67.3764 21.4964 68.2283 21.2585 68.8395 20.6703L72.9566 16.7113C74.7839 14.9532 77.6912 16.7047 77.1465 19.236L75.9177 24.9363C75.9177 24.9364 75.9177 24.9365 75.9177 24.9366C75.8947 25.0423 75.8782 25.1487 75.868 25.2553C75.7963 26.0009 76.0325 26.7513 76.5258 27.3093L80.3198 31.6054C80.8294 32.1822 81.0313 32.8621 80.9979 33.5142C80.9899 33.6705 80.9683 33.8252 80.9343 33.9766ZM54.1427 23.9997C54.3647 25.0609 54.8594 26.1079 55.6849 27.0424L55.6856 27.0432L59.0409 30.8425L57.9459 35.9225C57.2878 38.9808 58.756 41.7105 60.9974 43.061C63.2662 44.428 66.4651 44.4358 68.8188 42.172L68.8195 42.1712L72.0195 39.0941V69.9997C72.0195 74.418 68.4378 77.9997 64.0195 77.9997H26.0195C21.6013 77.9997 18.0195 74.418 18.0195 69.9997V31.9997C18.0195 27.5814 21.6013 23.9997 26.0195 23.9997H54.1427ZM51.9662 51.3684L55.9816 52.2731C57.56 52.6298 58.6562 50.7344 57.5566 49.5423L54.7664 46.5176C54.3999 46.118 54.2513 45.5666 54.3701 45.035L55.2749 41.0196C55.6315 39.4412 53.7361 38.3449 52.5441 39.4445L49.5194 42.2348C49.1198 42.6013 48.5684 42.7499 48.0367 42.631L44.0214 41.7263C42.443 41.3696 41.3467 43.265 42.4463 44.4571L45.2365 47.4818C45.6031 47.8814 45.7517 48.4328 45.6328 48.9645L44.728 52.9798C44.3714 54.5582 46.2668 55.6545 47.4589 54.5549L50.4836 51.7646C50.8831 51.3981 51.4346 51.2495 51.9662 51.3684Z" fill="white"/>
</clipPath>
<g clip-path="url(#mask0_5481_122545)">
<g clip-path="url(#clip0_5481_122545)">
<rect width="96" height="96" rx="10" fill="#D9F4FD"/>
<circle cx="85.5714" cy="63.1124" r="138.607" fill="url(#paint0_radial_5481_122545)"/>
<path d="M-8.63919 30.067C-10.18 -3.11477 15.4702 -31.263 48.652 -32.8037C81.8337 -34.3445 109.982 -8.69438 111.523 24.4874C113.063 57.6692 87.4133 85.8174 54.2316 87.3582C21.0498 88.8989 -7.09842 63.2488 -8.63919 30.067Z" fill="url(#paint1_linear_5481_122545)"/>
<path d="M24.2526 -66.43C16.7672 -71.0619 7.28331 -71.0903 -0.22988 -66.5032L-75.3753 -20.6218C-82.7348 -16.1282 -82.7471 -5.52169 -75.3976 -1.01111L-0.748691 44.8052C6.75324 49.4089 16.2372 49.4034 23.7327 44.7888L98.2278 -1.0704C105.538 -5.57135 105.552 -16.1186 98.2501 -20.6366L24.2526 -66.43Z" fill="url(#paint2_linear_5481_122545)"/>
<path d="M-47.8586 45.9177C-32.3701 45.9177 -18.3401 52.1863 -8.18231 62.2992C12.1334 82.5597 28.9763 82.577 49.2919 62.3512C59.4498 52.1863 73.4971 45.9004 89.003 45.9004C119.997 45.9177 145.105 70.9575 145.105 101.868C145.105 132.778 119.997 157.8 89.003 157.8C73.4624 157.8 59.415 151.497 49.2572 141.332C28.9589 121.141 12.1334 121.158 -8.18231 141.419C-18.3401 151.549 -32.3701 157.8 -47.8586 157.8C-78.8357 157.8 -103.944 132.761 -103.944 101.868C-103.944 70.9749 -78.8357 45.9177 -47.8586 45.9177Z" fill="url(#paint3_linear_5481_122545)"/>
</g>
</g>

</svg>
