<svg width="160" height="160" viewBox="0 0 160 160" xmlns="http://www.w3.org/2000/svg">
  <defs>
<radialGradient id="paint0_radial_5594_78781" cx="0" cy="0" r="1" gradientUnits="userSpaceOnUse" gradientTransform="translate(142.62 105.187) rotate(90) scale(231.011)">
<stop offset="0.0885417" stop-color="#EB1000"/>
<stop offset="1" stop-color="#EB1000" stop-opacity="0"/>
</radialGradient>
<linearGradient id="paint1_linear_5594_78781" x1="115.768" y1="-5.1461" x2="23.108" y2="114.99" gradientUnits="userSpaceOnUse">
<stop stop-color="#FF4885"/>
<stop offset="1" stop-color="#FF4885" stop-opacity="0"/>
</linearGradient>
<linearGradient id="paint2_linear_5594_78781" x1="59.3137" y1="-60.4511" x2="77.1884" y2="53.9467" gradientUnits="userSpaceOnUse">
<stop offset="0.15625" stop-color="#7A6AFD"/>
<stop offset="1" stop-color="#7A6AFD" stop-opacity="0"/>
</linearGradient>
<linearGradient id="paint3_linear_5594_78781" x1="-146.934" y1="169.541" x2="153.819" y2="110.102" gradientUnits="userSpaceOnUse">
<stop stop-color="#30A7FE" stop-opacity="0"/>
<stop offset="0.432292" stop-color="#30A7FE" stop-opacity="0.994652"/>
<stop offset="0.609375" stop-color="#30A7FE"/>
<stop offset="1" stop-color="#30A7FE" stop-opacity="0"/>
</linearGradient>
<clipPath id="clip0_5594_78781">
<rect width="160" height="160" rx="10" fill="white"/>
</clipPath>
</defs>
<clipPath id="mask0_5594_78781">
<path fill-rule="evenodd" d="M80.0006 20C82.2097 20 84.0006 21.7909 84.0006 24V31.9381C84.0006 34.1472 82.2097 35.9381 80.0006 35.9381C77.7915 35.9381 76.0006 34.1472 76.0006 31.9381V24C76.0006 21.7909 77.7915 20 80.0006 20ZM79.7721 55.7198C66.466 55.8427 55.7174 66.6673 55.7174 80.0024C55.7174 93.3375 66.466 104.162 79.7721 104.285V55.7198ZM80.0011 47.7188C97.8308 47.7188 112.285 62.1726 112.285 80.0024C112.285 97.8322 97.8308 112.286 80.0011 112.286C62.1713 112.286 47.7174 97.8322 47.7174 80.0024C47.7174 62.1726 62.1713 47.7188 80.0011 47.7188ZM84.0006 128.062C84.0006 125.852 82.2097 124.062 80.0006 124.062C77.7915 124.062 76.0006 125.852 76.0006 128.062V136C76.0006 138.209 77.7915 140 80.0006 140C82.2097 140 84.0006 138.209 84.0006 136V128.062ZM140.001 80C140.001 82.2091 138.21 84 136.001 84H128.062C125.853 84 124.062 82.2091 124.062 80C124.062 77.7909 125.853 76 128.062 76H136.001C138.21 76 140.001 77.7909 140.001 80ZM31.9381 84C34.1472 84 35.9381 82.2091 35.9381 80C35.9381 77.7909 34.1472 76 31.9381 76H24C21.7909 76 20 77.7909 20 80C20 82.2091 21.7909 84 24 84H31.9381ZM122.426 37.5729C123.988 39.135 123.988 41.6677 122.426 43.2298L116.813 48.8429C115.251 50.405 112.718 50.405 111.156 48.8429C109.594 47.2808 109.594 44.7481 111.156 43.186L116.769 37.5729C118.331 36.0108 120.864 36.0108 122.426 37.5729ZM48.8441 116.813C50.4061 115.251 50.4062 112.719 48.8441 111.156C47.282 109.594 44.7493 109.594 43.1872 111.156L37.5741 116.77C36.012 118.332 36.012 120.864 37.5741 122.426C39.1362 123.988 41.6689 123.988 43.231 122.426L48.8441 116.813ZM37.5732 37.571C36.0111 39.1331 36.0111 41.6657 37.5732 43.2278L43.1863 48.8409C44.7484 50.403 47.281 50.403 48.8431 48.8409C50.4052 47.2788 50.4052 44.7462 48.8431 43.1841L43.23 37.571C41.6679 36.0089 39.1353 36.0089 37.5732 37.571ZM111.157 116.811C109.595 115.249 109.595 112.717 111.157 111.154C112.719 109.592 115.252 109.592 116.814 111.154L122.427 116.768C123.989 118.33 123.989 120.862 122.427 122.424C120.865 123.987 118.332 123.987 116.77 122.424L111.157 116.811Z" fill="#D9D9D9"/>
</clipPath>
<g clip-path="url(#mask0_5594_78781)">
<g clip-path="url(#clip0_5594_78781)">
<rect width="160" height="160" rx="10" fill="#D9F4FD"/>
<circle cx="142.62" cy="105.187" r="231.011" fill="url(#paint0_radial_5594_78781)"/>
<path d="M-14.3999 50.1127C-16.9679 -5.1903 25.7823 -52.1039 81.0853 -54.6719C136.388 -57.2398 183.302 -14.4896 185.87 40.8134C188.438 96.1163 145.688 143.03 90.3846 145.598C35.0817 148.166 -11.832 105.416 -14.3999 50.1127Z" fill="url(#paint1_linear_5594_78781)"/>
<path d="M40.4184 -110.715C27.9428 -118.435 12.1362 -118.482 -0.385738 -110.837L-125.628 -34.3681C-137.894 -26.8788 -137.914 -9.2012 -125.665 -1.68357L-1.25042 74.677C11.2528 82.3497 27.0594 82.3406 39.5518 74.6496L163.71 -1.78237C175.895 -9.28396 175.917 -26.8627 163.748 -34.3926L40.4184 -110.715Z" fill="url(#paint2_linear_5594_78781)"/>
<path d="M-79.7631 76.5289C-53.9489 76.5289 -30.5656 86.9766 -13.6359 103.831C20.2235 137.599 48.2951 137.628 82.1545 103.918C99.0842 86.9766 122.496 76.5 148.34 76.5C199.997 76.5289 241.844 118.262 241.844 169.779C241.844 221.296 199.997 263 148.34 263C122.439 263 99.0263 252.495 82.0966 235.553C48.2661 201.901 20.2235 201.93 -13.6359 235.697C-30.5656 252.581 -53.9489 263 -79.7631 263C-131.392 263 -173.238 221.267 -173.238 169.779C-173.238 118.291 -131.392 76.5289 -79.7631 76.5289Z" fill="url(#paint3_linear_5594_78781)"/>
</g>
</g>

</svg>
