<svg width="96" height="96" viewBox="0 0 96 96" xmlns="http://www.w3.org/2000/svg">
  <defs>
<radialGradient id="paint0_radial_5481_122467" cx="0" cy="0" r="1" gradientUnits="userSpaceOnUse" gradientTransform="translate(78.2124 58.8228) rotate(90) scale(102.569 108.806)">
<stop offset="0.0885417" stop-color="#EB1000"/>
<stop offset="1" stop-color="#EB1000" stop-opacity="0"/>
</radialGradient>
<linearGradient id="paint1_linear_5481_122467" x1="65.5656" y1="9.83527" x2="25.102" y2="65.4875" gradientUnits="userSpaceOnUse">
<stop stop-color="#FF4885"/>
<stop offset="1" stop-color="#FF4885" stop-opacity="0"/>
</linearGradient>
<linearGradient id="paint2_linear_5481_122467" x1="38.9776" y1="-14.7204" x2="46.4789" y2="36.2074" gradientUnits="userSpaceOnUse">
<stop offset="0.15625" stop-color="#7A6AFD"/>
<stop offset="1" stop-color="#7A6AFD" stop-opacity="0"/>
</linearGradient>
<linearGradient id="paint3_linear_5481_122467" x1="-58.1649" y1="87.3962" x2="82.8254" y2="57.8371" gradientUnits="userSpaceOnUse">
<stop stop-color="#30A7FE" stop-opacity="0"/>
<stop offset="0.432292" stop-color="#30A7FE" stop-opacity="0.994652"/>
<stop offset="0.609375" stop-color="#30A7FE"/>
<stop offset="1" stop-color="#30A7FE" stop-opacity="0"/>
</linearGradient>
<clipPath id="clip0_5481_122467">
<rect x="11.0391" y="12.1191" width="75.36" height="71.04" rx="10" fill="white"/>
</clipPath>
</defs>
<clipPath id="mask0_5481_122467">
<path fill-rule="evenodd" d="M81.2 47.6C81.2 66.1568 66.1568 81.2 47.6 81.2C29.0432 81.2 14 66.1568 14 47.6C14 29.0432 29.0432 14 47.6 14C66.1568 14 81.2 29.0432 81.2 47.6ZM43.1 39.5C41.7746 39.5 40.7 40.5745 40.7 41.9C40.7 43.2255 41.7746 44.3 43.1 44.3H46.1V58.1H43.1C41.7746 58.1 40.7 59.1745 40.7 60.5C40.7 61.8255 41.7746 62.9 43.1 62.9H53.9C55.2254 62.9 56.3 61.8255 56.3 60.5C56.3 59.1745 55.2254 58.1 53.9 58.1H50.9V41.9C50.9 40.5745 49.8254 39.5 48.5 39.5H43.1ZM47.9 36.5C49.5569 36.5 50.9 35.1569 50.9 33.5C50.9 31.8431 49.5569 30.5 47.9 30.5C46.2431 30.5 44.9 31.8431 44.9 33.5C44.9 35.1569 46.2431 36.5 47.9 36.5Z" fill="white"/>
</clipPath>
<g clip-path="url(#mask0_5481_122467)">
<g clip-path="url(#clip0_5481_122467)">
<rect x="11.0391" y="12.1191" width="75.36" height="71.04" rx="10" fill="#D9F4FD"/>
<ellipse cx="78.2124" cy="58.8228" rx="108.806" ry="102.569" fill="url(#paint0_radial_5481_122467)"/>
<path d="M4.25636 34.3702C3.04686 9.81564 23.1822 -11.014 49.2299 -12.1542C75.2776 -13.2943 97.3739 5.68673 98.5834 30.2413C99.7929 54.7958 79.6576 75.6255 53.6099 76.7656C27.5622 77.9058 5.46586 58.9247 4.25636 34.3702Z" fill="url(#paint1_linear_5481_122467)"/>
<path d="M30.0779 -37.0376C24.2019 -40.4652 16.757 -40.4862 10.8591 -37.0918L-48.13 -3.13956C-53.9073 0.185698 -53.9169 8.03454 -48.1475 11.3724L10.4519 45.2765C16.3409 48.6832 23.7858 48.6791 29.6697 45.2643L88.1484 11.3285C93.8873 7.9978 93.8977 0.192816 88.1659 -3.15046L30.0779 -37.0376Z" fill="url(#paint2_linear_5481_122467)"/>
<path d="M-26.5276 46.0988C-14.3691 46.0988 -3.35561 50.7375 4.61829 58.2211C20.5661 73.2138 33.7878 73.2266 49.7356 58.2595C57.7095 50.7375 68.7366 46.0859 80.9088 46.0859C105.239 46.0988 124.949 64.6282 124.949 87.5018C124.949 110.375 105.239 128.892 80.9088 128.892C68.7094 128.892 57.6822 124.228 49.7083 116.706C33.7741 101.764 20.5661 101.777 4.61829 116.77C-3.35561 124.266 -14.3691 128.892 -26.5276 128.892C-50.8446 128.892 -70.5544 110.362 -70.5544 87.5018C-70.5544 64.641 -50.8446 46.0988 -26.5276 46.0988Z" fill="url(#paint3_linear_5481_122467)"/>
</g>
</g>

</svg>
