<svg width="48" height="48" viewBox="0 0 48 48" xmlns="http://www.w3.org/2000/svg">
  <defs>
<radialGradient id="paint0_radial_5481_122372" cx="0" cy="0" r="1" gradientUnits="userSpaceOnUse" gradientTransform="translate(42.7877 31.5552) rotate(90) scale(69.3033)">
<stop offset="0.0885417" stop-color="#EB1000"/>
<stop offset="1" stop-color="#EB1000" stop-opacity="0"/>
</radialGradient>
<linearGradient id="paint1_linear_5481_122372" x1="34.7309" y1="-1.54315" x2="6.93278" y2="34.4977" gradientUnits="userSpaceOnUse">
<stop stop-color="#FF4885"/>
<stop offset="1" stop-color="#FF4885" stop-opacity="0"/>
</linearGradient>
<linearGradient id="paint2_linear_5481_122372" x1="17.7929" y1="-18.1348" x2="23.1553" y2="16.1845" gradientUnits="userSpaceOnUse">
<stop offset="0.15625" stop-color="#7A6AFD"/>
<stop offset="1" stop-color="#7A6AFD" stop-opacity="0"/>
</linearGradient>
<linearGradient id="paint3_linear_5481_122372" x1="-44.0785" y1="50.8616" x2="46.1473" y2="33.0298" gradientUnits="userSpaceOnUse">
<stop stop-color="#30A7FE" stop-opacity="0"/>
<stop offset="0.432292" stop-color="#30A7FE" stop-opacity="0.994652"/>
<stop offset="0.609375" stop-color="#30A7FE"/>
<stop offset="1" stop-color="#30A7FE" stop-opacity="0"/>
</linearGradient>
<clipPath id="clip0_5481_122372">
<rect width="48" height="48" rx="10" fill="white"/>
</clipPath>
</defs>
<clipPath id="mask0_5481_122372">
<path fill-rule="evenodd" d="M9.125 14.0273C9.125 11.8182 10.9159 10.0273 13.125 10.0273H30C32.2091 10.0273 34 11.8182 34 14.0273V18.375H25.7759C23.8844 18.375 22.1817 19.1829 20.9939 20.4724L19.5493 18.1116L19.548 18.1097C18.48 16.3715 15.9636 16.3438 14.8576 18.0581L14.8575 18.0582L9.41738 26.4923C9.22885 26.028 9.125 25.5203 9.125 24.9883V14.0273ZM19.2759 24.875V28.9883H13.125C12.3972 28.9883 11.7148 28.7939 11.1269 28.4542L16.9583 19.4134L16.9584 19.4133C17.0667 19.2456 17.3128 19.2482 17.4177 19.4179L17.418 19.4185L19.5702 22.9355C19.3789 23.548 19.2759 24.1995 19.2759 24.875ZM28.0725 17.2109C28.9009 17.2109 29.5725 16.5394 29.5725 15.7109C29.5725 14.8825 28.9009 14.2109 28.0725 14.2109C27.2441 14.2109 26.5725 14.8825 26.5725 15.7109C26.5725 16.5394 27.2441 17.2109 28.0725 17.2109ZM21.7759 24.875C21.7759 22.6659 23.5667 20.875 25.7759 20.875H34.875C37.0842 20.875 38.875 22.6659 38.875 24.875V33.9742C38.875 36.1833 37.0842 37.9742 34.875 37.9742H25.7759C23.5667 37.9742 21.7759 36.1833 21.7759 33.9742V24.875ZM34.0158 28.8569L28.4087 25.6407C27.7807 25.2806 26.9947 25.7289 26.9938 26.4478L26.9861 32.8668C26.9852 33.5857 27.7702 34.0359 28.399 33.6772L34.0138 30.4744C34.6426 30.1157 34.6437 29.2171 34.0158 28.8569Z" fill="white"/>
</clipPath>
<g clip-path="url(#mask0_5481_122372)">
<g clip-path="url(#clip0_5481_122372)">
<rect width="48" height="48" rx="10" fill="#D9F4FD"/>
<circle cx="42.7877" cy="31.5552" r="69.3033" fill="url(#paint0_radial_5481_122372)"/>
<path d="M-4.31959 15.0345C-5.08998 -1.55641 7.73508 -15.6305 24.326 -16.4009C40.9169 -17.1713 54.991 -4.34621 55.7613 12.2447C56.5317 28.8356 43.7067 42.9097 27.1158 43.6801C10.5249 44.4504 -3.54921 31.6254 -4.31959 15.0345Z" fill="url(#paint1_linear_5481_122372)"/>
<path d="M12.1243 -33.214C8.38167 -35.53 3.6397 -35.5442 -0.116893 -33.2506L-37.6896 -10.3099C-41.3694 -8.06314 -41.3755 -2.75987 -37.7007 -0.504581L-0.376298 22.4036C3.37467 24.7054 8.11665 24.7027 11.8644 22.3954L49.1119 -0.534222C52.7672 -2.7847 52.7739 -8.05833 49.1231 -10.3173L12.1243 -33.214Z" fill="url(#paint2_linear_5481_122372)"/>
<path d="M-23.9274 22.9579C-16.1831 22.9579 -9.16812 26.0922 -4.0892 31.1486C6.06863 41.2789 14.4901 41.2875 24.6479 31.1746C29.7268 26.0922 36.7505 22.9492 44.5034 22.9492C60.0006 22.9579 72.5547 35.4778 72.5547 50.9329C72.5547 66.388 60.0006 78.8992 44.5034 78.8992C36.7331 78.8992 29.7095 75.7476 24.6306 70.6652C14.4814 60.5696 6.06863 60.5782 -4.0892 70.7085C-9.16812 75.7736 -16.1831 78.8992 -23.9274 78.8992C-39.4159 78.8992 -51.9699 66.3793 -51.9699 50.9329C-51.9699 35.4865 -39.4159 22.9579 -23.9274 22.9579Z" fill="url(#paint3_linear_5481_122372)"/>
</g>
</g>

</svg>
