<svg width="96" height="96" viewBox="0 0 96 96" xmlns="http://www.w3.org/2000/svg">
  <defs>
<radialGradient id="paint0_radial_5481_122462" cx="0" cy="0" r="1" gradientUnits="userSpaceOnUse" gradientTransform="translate(82.6782 58.8618) rotate(90) scale(129.272 129.272)">
<stop offset="0.0885417" stop-color="#EB1000"/>
<stop offset="1" stop-color="#EB1000" stop-opacity="0"/>
</radialGradient>
<linearGradient id="paint1_linear_5481_122462" x1="67.6502" y1="-2.88023" x2="15.7982" y2="64.3471" gradientUnits="userSpaceOnUse">
<stop stop-color="#FF4885"/>
<stop offset="1" stop-color="#FF4885" stop-opacity="0"/>
</linearGradient>
<linearGradient id="paint2_linear_5481_122462" x1="36.0609" y1="-33.829" x2="46.0634" y2="30.1872" gradientUnits="userSpaceOnUse">
<stop offset="0.15625" stop-color="#7A6AFD"/>
<stop offset="1" stop-color="#7A6AFD" stop-opacity="0"/>
</linearGradient>
<linearGradient id="paint3_linear_5481_122462" x1="-79.3537" y1="94.8737" x2="88.9452" y2="61.612" gradientUnits="userSpaceOnUse">
<stop stop-color="#30A7FE" stop-opacity="0"/>
<stop offset="0.432292" stop-color="#30A7FE" stop-opacity="0.994652"/>
<stop offset="0.609375" stop-color="#30A7FE"/>
<stop offset="1" stop-color="#30A7FE" stop-opacity="0"/>
</linearGradient>
<clipPath id="clip0_5481_122462">
<rect x="2.86719" width="89.5348" height="89.5348" rx="10" fill="white"/>
</clipPath>
</defs>
<clipPath id="mask0_5481_122462">
<path fill-rule="evenodd" d="M77.7016 40.8008V38.1826C77.7016 33.7543 74.1061 30.1644 69.6708 30.1644H41.5631L32.4629 18.807C31.4469 17.5389 29.9086 16.8008 28.2822 16.8008H13.4554C10.4986 16.8008 8.10156 19.194 8.10156 22.1462V71.1826C8.10156 71.9405 8.20688 72.6738 8.4037 73.3688C8.46339 72.3475 8.68548 71.3044 9.09165 70.2653C9.10247 70.2376 9.11356 70.2101 9.12489 70.1826L18.5973 47.2173C20.153 43.2963 23.9705 40.8008 28.1266 40.8008H77.7016ZM78.2378 79.1486C80.1755 78.8812 81.8413 77.6083 82.5525 75.7888L92.0392 52.7888C93.3953 49.3196 90.7683 45.6008 86.9616 45.6008H28.1266C25.8723 45.6008 23.852 46.9584 23.049 49.0128L13.5623 72.0128C12.2092 75.4745 14.8217 79.1846 18.6149 79.2008H18.6407L23.4939 79.2008L77.4757 79.2008" fill="white"/>
</clipPath>
<g clip-path="url(#mask0_5481_122462)">
<g clip-path="url(#clip0_5481_122462)">
<rect x="2.86719" width="89.5348" height="89.5348" rx="10" fill="#D9F4FD"/>
<ellipse cx="82.6782" cy="58.8618" rx="129.272" ry="129.272" fill="url(#paint0_radial_5481_122462)"/>
<path d="M-5.19089 28.0422C-6.62789 -2.90496 17.2948 -29.1575 48.2419 -30.5945C79.189 -32.0315 105.442 -8.1088 106.879 22.8383C108.316 53.7855 84.3929 80.038 53.4457 81.475C22.4986 82.912 -3.75389 58.9893 -5.19089 28.0422Z" fill="url(#paint1_linear_5481_122462)"/>
<path d="M25.4872 -61.9563C18.506 -66.2763 9.66075 -66.3027 2.65354 -62.0246L-67.4311 -19.2331C-74.295 -15.0422 -74.3065 -5.14995 -67.4519 -0.943141L2.16967 41.7876C9.16638 46.0812 18.0116 46.0761 25.0023 41.7723L94.4804 -0.998431C101.299 -5.19626 101.311 -15.0332 94.5012 -19.2469L25.4872 -61.9563Z" fill="url(#paint2_linear_5481_122462)"/>
<path d="M-41.7656 42.8247C-27.3202 42.8247 -14.2351 48.6712 -4.76132 58.103C14.1862 76.999 29.8948 77.0152 48.8422 58.1515C58.316 48.6712 71.4173 42.8086 85.8789 42.8086C114.786 42.8247 138.203 66.1782 138.203 95.0067C138.203 123.835 114.786 147.173 85.8789 147.173C71.3849 147.173 58.2836 141.294 48.8099 131.814C29.8786 112.982 14.1862 112.998 -4.76132 131.894C-14.2351 141.342 -27.3202 147.173 -41.7656 147.173C-70.6565 147.173 -94.0736 123.819 -94.0736 95.0067C-94.0736 66.1944 -70.6565 42.8247 -41.7656 42.8247Z" fill="url(#paint3_linear_5481_122462)"/>
</g>
</g>

</svg>
