<svg width="96" height="96" viewBox="0 0 96 96" xmlns="http://www.w3.org/2000/svg">
  <defs>
<radialGradient id="paint0_radial_5481_122440" cx="0" cy="0" r="1" gradientUnits="userSpaceOnUse" gradientTransform="translate(78.2124 60.6226) rotate(90) scale(102.569 108.806)">
<stop offset="0.0885417" stop-color="#EB1000"/>
<stop offset="1" stop-color="#EB1000" stop-opacity="0"/>
</radialGradient>
<linearGradient id="paint1_linear_5481_122440" x1="65.5656" y1="11.6351" x2="25.102" y2="67.2873" gradientUnits="userSpaceOnUse">
<stop stop-color="#FF4885"/>
<stop offset="1" stop-color="#FF4885" stop-opacity="0"/>
</linearGradient>
<linearGradient id="paint2_linear_5481_122440" x1="38.9776" y1="-12.9206" x2="46.4789" y2="38.0072" gradientUnits="userSpaceOnUse">
<stop offset="0.15625" stop-color="#7A6AFD"/>
<stop offset="1" stop-color="#7A6AFD" stop-opacity="0"/>
</linearGradient>
<linearGradient id="paint3_linear_5481_122440" x1="-58.1649" y1="89.196" x2="82.8254" y2="59.6369" gradientUnits="userSpaceOnUse">
<stop stop-color="#30A7FE" stop-opacity="0"/>
<stop offset="0.432292" stop-color="#30A7FE" stop-opacity="0.994652"/>
<stop offset="0.609375" stop-color="#30A7FE"/>
<stop offset="1" stop-color="#30A7FE" stop-opacity="0"/>
</linearGradient>
<clipPath id="clip0_5481_122440">
<rect x="11.0391" y="13.9199" width="75.36" height="71.04" rx="10" fill="white"/>
</clipPath>
</defs>
<clipPath id="mask0_5481_122440">
<path fill-rule="evenodd" d="M73.9163 34.7275C77.4248 31.219 77.4248 25.5306 73.9163 22.0221C70.4078 18.5136 64.7194 18.5136 61.2109 22.0221L54.6633 28.5697C53.726 29.5069 52.2064 29.5069 51.2692 28.5697C50.3319 27.6324 50.3319 26.1128 51.2692 25.1755L57.8168 18.6279C63.1998 13.2449 71.9274 13.245 77.3104 18.628C82.6934 24.011 82.6934 32.7386 77.3104 38.1216L60.7077 54.7243C55.3247 60.1073 46.5971 60.1073 41.2141 54.7243C40.2768 53.787 40.2768 52.2675 41.2141 51.3302C42.1513 50.3929 43.6709 50.3929 44.6082 51.3302C48.1167 54.8387 53.8051 54.8387 57.3136 51.3302L73.9163 34.7275ZM54.923 41.1379C55.8602 42.0751 55.8602 43.5947 54.923 44.532C53.9857 45.4693 52.4661 45.4693 51.5288 44.532C48.0203 41.0235 42.3319 41.0235 38.8235 44.532L22.2207 61.1347C18.7122 64.6432 18.7122 70.3316 22.2207 73.8401C25.7292 77.3486 31.4176 77.3486 34.9261 73.8401L41.4737 67.2925C42.411 66.3553 43.9306 66.3553 44.8678 67.2925C45.8051 68.2298 45.8051 69.7494 44.8678 70.6866L38.3202 77.2342C32.9372 82.6173 24.2096 82.6172 18.8266 77.2342C13.4436 71.8512 13.4436 63.1236 18.8266 57.7406L35.4293 41.1379C40.8123 35.7549 49.5399 35.7549 54.923 41.1379Z" fill="white" stroke="white" stroke-width="1.2" stroke-linecap="round" stroke-linejoin="round"/>
</clipPath>
<g clip-path="url(#mask0_5481_122440)">
<g clip-path="url(#clip0_5481_122440)">
<rect x="11.0391" y="13.9199" width="75.36" height="71.04" rx="10" fill="#D9F4FD"/>
<ellipse cx="78.2124" cy="60.6226" rx="108.806" ry="102.569" fill="url(#paint0_radial_5481_122440)"/>
<path d="M4.25636 36.17C3.04686 11.6154 23.1822 -9.21421 49.2299 -10.3544C75.2776 -11.4945 97.3739 7.48654 98.5834 32.0411C99.7929 56.5956 79.6576 77.4253 53.6099 78.5654C27.5622 79.7056 5.46586 60.7245 4.25636 36.17Z" fill="url(#paint1_linear_5481_122440)"/>
<path d="M30.0779 -35.2378C24.2019 -38.6654 16.757 -38.6864 10.8591 -35.292L-48.13 -1.33975C-53.9073 1.9855 -53.9169 9.83435 -48.1475 13.1722L10.4519 47.0763C16.3409 50.483 23.7858 50.4789 29.6697 47.0641L88.1484 13.1283C93.8873 9.7976 93.8977 1.99262 88.1659 -1.35065L30.0779 -35.2378Z" fill="url(#paint2_linear_5481_122440)"/>
<path d="M-26.5276 47.8986C-14.3691 47.8986 -3.35561 52.5373 4.61829 60.0209C20.5661 75.0136 33.7878 75.0264 49.7356 60.0593C57.7095 52.5373 68.7366 47.8857 80.9088 47.8857C105.239 47.8986 124.949 66.428 124.949 89.3016C124.949 112.175 105.239 130.692 80.9088 130.692C68.7094 130.692 57.6822 126.027 49.7083 118.505C33.7741 103.564 20.5661 103.577 4.61829 118.569C-3.35561 126.066 -14.3691 130.692 -26.5276 130.692C-50.8446 130.692 -70.5544 112.162 -70.5544 89.3016C-70.5544 66.4409 -50.8446 47.8986 -26.5276 47.8986Z" fill="url(#paint3_linear_5481_122440)"/>
</g>
</g>

</svg>
