<svg width="48" height="48" viewBox="0 0 48 48" xmlns="http://www.w3.org/2000/svg">
  <defs>
<radialGradient id="paint0_radial_5481_122334" cx="0" cy="0" r="1" gradientUnits="userSpaceOnUse" gradientTransform="translate(38.9297 30.552) rotate(90) scale(53.4895 56.7422)">
<stop offset="0.0885417" stop-color="#EB1000"/>
<stop offset="1" stop-color="#EB1000" stop-opacity="0"/>
</radialGradient>
<linearGradient id="paint1_linear_5481_122334" x1="32.3345" y1="5.00653" x2="11.2328" y2="34.0291" gradientUnits="userSpaceOnUse">
<stop stop-color="#FF4885"/>
<stop offset="1" stop-color="#FF4885" stop-opacity="0"/>
</linearGradient>
<linearGradient id="paint2_linear_5481_122334" x1="18.4665" y1="-7.80043" x2="22.3784" y2="18.7583" gradientUnits="userSpaceOnUse">
<stop offset="0.15625" stop-color="#7A6AFD"/>
<stop offset="1" stop-color="#7A6AFD" stop-opacity="0"/>
</linearGradient>
<linearGradient id="paint3_linear_5481_122334" x1="-32.1929" y1="45.4534" x2="41.3333" y2="30.0384" gradientUnits="userSpaceOnUse">
<stop stop-color="#30A7FE" stop-opacity="0"/>
<stop offset="0.432292" stop-color="#30A7FE" stop-opacity="0.994652"/>
<stop offset="0.609375" stop-color="#30A7FE"/>
<stop offset="1" stop-color="#30A7FE" stop-opacity="0"/>
</linearGradient>
<clipPath id="clip0_5481_122334">
<rect x="3.89844" y="6.19727" width="39.3001" height="37.0472" rx="10" fill="white"/>
</clipPath>
</defs>
<clipPath id="mask0_5481_122334">
<path fill-rule="evenodd" d="M35.0537 15.1352C35.0537 19.1944 31.9645 22.4852 28.1537 22.4852C24.3429 22.4852 21.2537 19.1944 21.2537 15.1352C21.2537 11.0759 24.3429 7.78516 28.1537 7.78516C31.9645 7.78516 35.0537 11.0759 35.0537 15.1352ZM21.7759 22.2242C21.1639 22.4132 20.5159 22.5182 19.8439 22.5182C16.0339 22.5182 12.9439 19.2272 12.9439 15.1682C12.9439 11.1092 16.0339 7.81816 19.8439 7.81816C20.4949 7.81816 21.1279 7.91716 21.7249 8.09716C19.9549 9.87316 18.8509 12.3452 18.8509 15.1352C18.8509 17.9252 19.9759 20.4452 21.7759 22.2242ZM12.0199 36.7412C12.9949 32.2142 15.8149 28.4312 19.5769 26.1212C12.9649 26.2472 7.40287 31.0172 6.05587 37.2782C5.73187 38.7842 6.85687 40.2122 8.39887 40.2122H12.5809C11.9689 39.1742 11.7589 37.9442 12.0199 36.7412ZM28.1507 26.0852C34.8797 26.0852 40.5737 30.9032 41.9387 37.2482C42.2627 38.7542 41.1377 40.1822 39.5957 40.1822H16.7057C15.1637 40.1822 14.0387 38.7542 14.3627 37.2482C15.7277 30.9032 21.4217 26.0852 28.1507 26.0852Z" fill="white"/>
</clipPath>
<g clip-path="url(#mask0_5481_122334)">
<g clip-path="url(#clip0_5481_122334)">
<rect x="3.89844" y="6.19727" width="39.3001" height="37.0472" rx="10" fill="#D9F4FD"/>
<ellipse cx="38.9297" cy="30.552" rx="56.7422" ry="53.4895" fill="url(#paint0_radial_5481_122334)"/>
<path d="M0.361813 17.8014C-0.26894 4.99629 10.2316 -5.86634 23.8154 -6.46094C37.3993 -7.05553 48.9225 2.84308 49.5532 15.6482C50.184 28.4534 39.6834 39.316 26.0996 39.9106C12.5158 40.5052 0.992566 30.6066 0.361813 17.8014Z" fill="url(#paint1_linear_5481_122334)"/>
<path d="M13.8253 -19.4388C10.761 -21.2263 6.87845 -21.2373 3.80273 -19.4671L-26.96 -1.76103C-29.9728 -0.0269138 -29.9779 4.06625 -26.9691 5.80692L3.59035 23.4878C6.66146 25.2644 10.544 25.2623 13.6124 23.4815L44.109 5.78404C47.1018 4.04708 47.1072 -0.0232016 44.1181 -1.76671L13.8253 -19.4388Z" fill="url(#paint2_linear_5481_122334)"/>
<path d="M-15.6941 23.9168C-9.35351 23.9168 -3.60998 26.336 0.548396 30.2386C8.86515 38.0573 15.7602 38.064 24.077 30.2587C28.2354 26.336 33.986 23.9102 40.3337 23.9102C53.0221 23.9168 63.3008 33.5799 63.3008 45.5084C63.3008 57.4369 53.0221 67.0934 40.3337 67.0934C33.9718 67.0934 28.2211 64.6609 24.0628 60.7382C15.7531 52.9462 8.86515 52.9529 0.548396 60.7716C-3.60998 64.6809 -9.35351 67.0934 -15.6941 67.0934C-28.3754 67.0934 -38.6541 57.4303 -38.6541 45.5084C-38.6541 33.5866 -28.3754 23.9168 -15.6941 23.9168Z" fill="url(#paint3_linear_5481_122334)"/>
</g>
</g>

</svg>
