<svg width="160" height="160" viewBox="0 0 160 160" xmlns="http://www.w3.org/2000/svg">
  <defs>
<radialGradient id="paint0_radial_5481_122159" cx="0" cy="0" r="1" gradientUnits="userSpaceOnUse" gradientTransform="translate(133.577 106.095) rotate(90) scale(193.472 205.022)">
<stop offset="0.0885417" stop-color="#EB1000"/>
<stop offset="1" stop-color="#EB1000" stop-opacity="0"/>
</radialGradient>
<linearGradient id="paint1_linear_5481_122159" x1="109.744" y1="13.6909" x2="33.3948" y2="118.59" gradientUnits="userSpaceOnUse">
<stop stop-color="#FF4885"/>
<stop offset="1" stop-color="#FF4885" stop-opacity="0"/>
</linearGradient>
<linearGradient id="paint2_linear_5481_122159" x1="59.6433" y1="-32.6287" x2="73.8069" y2="63.4302" gradientUnits="userSpaceOnUse">
<stop offset="0.15625" stop-color="#7A6AFD"/>
<stop offset="1" stop-color="#7A6AFD" stop-opacity="0"/>
</linearGradient>
<linearGradient id="paint3_linear_5481_122159" x1="-123.403" y1="159.99" x2="142.287" y2="104.346" gradientUnits="userSpaceOnUse">
<stop stop-color="#30A7FE" stop-opacity="0"/>
<stop offset="0.432292" stop-color="#30A7FE" stop-opacity="0.994652"/>
<stop offset="0.609375" stop-color="#30A7FE"/>
<stop offset="1" stop-color="#30A7FE" stop-opacity="0"/>
</linearGradient>
<clipPath id="clip0_5481_122159">
<rect x="7" y="18" width="142" height="134" rx="10" fill="white"/>
</clipPath>
</defs>
<clipPath id="mask0_5481_122159">
<path fill-rule="evenodd" d="M109.922 32.1608C112.782 29.3008 112.782 24.6808 109.922 21.8208C107.062 18.9608 102.442 18.9608 99.5825 21.8208C96.7225 24.6808 96.7225 29.3008 99.5825 32.1608C102.442 35.0208 107.062 35.0208 109.922 32.1608ZM64.8011 72.1208C63.0711 73.5008 62.7911 76.0208 64.1711 77.7408C64.9611 78.7308 66.1211 79.2408 67.3011 79.2408C68.1811 79.2408 69.0611 78.9508 69.7911 78.3608C89.0111 63.0108 88.1311 46.9008 88.091 46.2208C87.941 44.0308 86.0611 42.4008 83.8711 42.5208C81.6811 42.6508 80.0011 44.5408 80.1111 46.7308C80.1311 47.2508 80.5411 59.5408 64.8011 72.1108V72.1208ZM98.8026 101.991C97.7726 100.041 98.5226 97.6208 100.473 96.5908H100.483C102.433 95.5608 104.853 96.3108 105.883 98.2608C111.613 109.121 109.773 114.441 107.223 116.991C106.393 117.821 105.273 118.571 103.773 119.011L34.5226 143.611C33.1826 144.091 31.8126 144.321 30.4626 144.321C27.3526 144.321 24.3226 143.091 22.0226 140.791C18.7226 137.491 17.6426 132.701 19.2026 128.291L43.5226 59.7608C43.6626 59.2408 43.8426 58.7408 44.0726 58.2608C44.5226 57.1408 45.1426 56.2608 45.8226 55.5808C48.3926 53.0108 53.7626 51.1808 64.7526 57.0308C66.7026 58.0708 67.4426 60.4908 66.4026 62.4408C65.3626 64.3908 62.9426 65.1308 60.9926 64.0908C54.8026 60.8008 51.9626 61.0008 51.4726 61.2508V61.2708L51.2926 61.7808C50.8926 64.8208 55.4926 76.6508 70.8226 91.9808C82.4426 103.601 92.0426 109.051 97.3626 110.821C99.4226 111.241 100.883 111.341 101.623 111.241C101.813 110.691 101.913 107.891 98.8026 101.991ZM77.4922 89.4308C76.4622 89.4308 75.4422 89.0408 74.6622 88.2608C73.1022 86.6908 73.1022 84.1608 74.6622 82.6008L90.2722 66.9908C91.8422 65.4308 94.3722 65.4308 95.9322 66.9908C97.4922 68.5608 97.4922 71.0908 95.9322 72.6508L80.3222 88.2608C79.5422 89.0408 78.5222 89.4308 77.4922 89.4308ZM84.5421 93.1308C99.8922 73.9108 116.002 74.7908 116.682 74.8308L116.672 74.8408C118.882 74.9908 120.542 76.9008 120.392 79.1008C120.242 81.2908 118.352 82.9608 116.162 82.8208C115.572 82.8008 103.322 82.4508 90.7921 98.1308C90.0022 99.1208 88.8322 99.6308 87.6621 99.6308C86.7922 99.6308 85.9121 99.3408 85.1721 98.7508C83.4421 97.3708 83.1621 94.8608 84.5421 93.1308ZM125.041 92.1708C127.901 89.3108 132.521 89.3108 135.381 92.1708C138.241 95.0308 138.241 99.6508 135.381 102.511C132.521 105.371 127.901 105.371 125.041 102.511C122.181 99.6508 122.181 95.0308 125.041 92.1708ZM56.3535 28.1962L54.4329 29.6018C52.6502 30.9065 52.2628 33.4094 53.5675 35.1921L61.3812 45.8682C62.6859 47.6508 65.1888 48.0383 66.9715 46.7336L68.892 45.3279C70.6747 44.0232 71.0622 41.5204 69.7575 39.7377L61.9437 29.0616C60.639 27.2789 58.1362 26.8914 56.3535 28.1962ZM107.23 54.8523L120.376 53.3638C122.572 53.1153 124.553 54.6933 124.801 56.8884L125.069 59.2533C125.317 61.4484 123.739 63.4294 121.544 63.6779L108.398 65.1664C106.203 65.415 104.222 63.837 103.974 61.6419L103.706 59.277C103.457 57.0819 105.035 55.1009 107.23 54.8523Z" fill="white"/>
</clipPath>
<g clip-path="url(#mask0_5481_122159)">
<g clip-path="url(#clip0_5481_122159)">
<rect x="7" y="18" width="142" height="134" rx="10" fill="#D9F4FD"/>
<ellipse cx="133.577" cy="106.095" rx="205.022" ry="193.472" fill="url(#paint0_radial_5481_122159)"/>
<path d="M-5.78011 59.9701C-8.05916 13.6539 29.8816 -25.6363 78.963 -27.7869C128.044 -29.9376 169.68 5.86569 171.959 52.1819C174.238 98.4982 136.298 137.788 87.2162 139.939C38.1348 142.09 -3.50107 106.286 -5.78011 59.9701Z" fill="url(#paint1_linear_5481_122159)"/>
<path d="M42.8737 -74.7247C31.8016 -81.1901 17.7733 -81.2297 6.66005 -74.8269L-104.493 -10.7842C-115.379 -4.51188 -115.397 10.2931 -104.526 16.5891L5.89264 80.5411C16.9893 86.967 31.0176 86.9593 42.1046 80.5181L152.295 16.5063C163.109 10.2238 163.129 -4.49846 152.328 -10.8047L42.8737 -74.7247Z" fill="url(#paint2_linear_5481_122159)"/>
<path d="M-63.7893 82.0925C-40.8792 82.0925 -20.1266 90.8425 -5.10145 104.958C24.9488 133.239 49.8623 133.263 79.9125 105.031C94.9376 90.8425 115.716 82.0684 138.652 82.0684C184.498 82.0925 221.637 117.044 221.637 160.189C221.637 203.335 184.498 238.262 138.652 238.262C115.665 238.262 94.8863 229.464 79.8611 215.275C49.8366 187.092 24.9488 187.116 -5.10145 215.396C-20.1266 229.536 -40.8792 238.262 -63.7893 238.262C-109.61 238.262 -146.749 203.311 -146.749 160.189C-146.749 117.068 -109.61 82.0925 -63.7893 82.0925Z" fill="url(#paint3_linear_5481_122159)"/>
</g>
</g>

</svg>
