<svg width="160" height="160" viewBox="0 0 160 160" xmlns="http://www.w3.org/2000/svg">
  <defs>
<radialGradient id="paint0_radial_5481_122245" cx="0" cy="0" r="1" gradientUnits="userSpaceOnUse" gradientTransform="translate(142.62 105.187) rotate(90) scale(231.011)">
<stop offset="0.0885417" stop-color="#EB1000"/>
<stop offset="1" stop-color="#EB1000" stop-opacity="0"/>
</radialGradient>
<linearGradient id="paint1_linear_5481_122245" x1="115.768" y1="-5.14512" x2="23.108" y2="114.991" gradientUnits="userSpaceOnUse">
<stop stop-color="#FF4885"/>
<stop offset="1" stop-color="#FF4885" stop-opacity="0"/>
</linearGradient>
<linearGradient id="paint2_linear_5481_122245" x1="59.3137" y1="-60.4521" x2="77.1884" y2="53.9458" gradientUnits="userSpaceOnUse">
<stop offset="0.15625" stop-color="#7A6AFD"/>
<stop offset="1" stop-color="#7A6AFD" stop-opacity="0"/>
</linearGradient>
<linearGradient id="paint3_linear_5481_122245" x1="-146.934" y1="169.541" x2="153.819" y2="110.102" gradientUnits="userSpaceOnUse">
<stop stop-color="#30A7FE" stop-opacity="0"/>
<stop offset="0.432292" stop-color="#30A7FE" stop-opacity="0.994652"/>
<stop offset="0.609375" stop-color="#30A7FE"/>
<stop offset="1" stop-color="#30A7FE" stop-opacity="0"/>
</linearGradient>
<clipPath id="clip0_5481_122245">
<rect width="160" height="160" rx="10" fill="white"/>
</clipPath>
</defs>
<clipPath id="mask0_5481_122245">
<path fill-rule="evenodd" d="M41.2773 28.25C41.2773 26.0409 39.4865 24.25 37.2773 24.25C35.0682 24.25 33.2773 26.0409 33.2773 28.25L33.2773 131.75C33.2773 133.959 35.0682 135.75 37.2773 135.75C39.4865 135.75 41.2773 133.959 41.2773 131.75L41.2773 100.853H110.722C117.35 100.853 122.722 95.4805 122.722 88.853V46.8945C122.722 40.2671 117.35 34.8945 110.722 34.8945H41.2773V28.25ZM66.4008 54.322C67.9629 52.7599 70.4956 52.7599 72.0577 54.322L80.4473 62.7116L88.837 54.322C90.3991 52.7599 92.9317 52.7599 94.4938 54.322C96.0559 55.8841 96.0559 58.4167 94.4938 59.9788L86.1042 68.3685L94.4938 76.7581C96.0559 78.3202 96.0559 80.8529 94.4938 82.415C92.9317 83.9771 90.3991 83.9771 88.837 82.415L80.4473 74.0253L72.0577 82.415C70.4956 83.9771 67.9629 83.9771 66.4008 82.415C64.8387 80.8529 64.8387 78.3202 66.4008 76.7581L74.7905 68.3685L66.4008 59.9788C64.8387 58.4167 64.8387 55.8841 66.4008 54.322Z" fill="white"/>
</clipPath>
<g clip-path="url(#mask0_5481_122245)">
<g clip-path="url(#clip0_5481_122245)">
<rect width="160" height="160" rx="10" fill="#D9F4FD"/>
<circle cx="142.62" cy="105.187" r="231.011" fill="url(#paint0_radial_5481_122245)"/>
<path d="M-14.3999 50.1137C-16.9679 -5.18932 25.7823 -52.103 81.0853 -54.6709C136.388 -57.2388 183.302 -14.4887 185.87 40.8143C188.438 96.1173 145.688 143.031 90.3846 145.599C35.0817 148.167 -11.832 105.417 -14.3999 50.1137Z" fill="url(#paint1_linear_5481_122245)"/>
<path d="M40.4184 -110.716C27.9428 -118.436 12.1362 -118.483 -0.385738 -110.838L-125.628 -34.3691C-137.894 -26.8797 -137.914 -9.20217 -125.665 -1.68455L-1.25042 74.676C11.2528 82.3487 27.0594 82.3396 39.5518 74.6486L163.71 -1.78335C175.895 -9.28493 175.917 -26.8637 163.748 -34.3936L40.4184 -110.716Z" fill="url(#paint2_linear_5481_122245)"/>
<path d="M-79.7631 76.5289C-53.9489 76.5289 -30.5656 86.9766 -13.6359 103.831C20.2235 137.599 48.2951 137.628 82.1545 103.918C99.0842 86.9766 122.496 76.5 148.34 76.5C199.997 76.5289 241.844 118.262 241.844 169.779C241.844 221.296 199.997 263 148.34 263C122.439 263 99.0263 252.495 82.0966 235.553C48.2661 201.901 20.2235 201.93 -13.6359 235.697C-30.5656 252.581 -53.9489 263 -79.7631 263C-131.392 263 -173.238 221.267 -173.238 169.779C-173.238 118.291 -131.392 76.5289 -79.7631 76.5289Z" fill="url(#paint3_linear_5481_122245)"/>
</g>
</g>

</svg>
