<svg width="96" height="96" viewBox="0 0 96 96" xmlns="http://www.w3.org/2000/svg">
  <defs>
<radialGradient id="paint0_radial_5481_122456" cx="0" cy="0" r="1" gradientUnits="userSpaceOnUse" gradientTransform="translate(80.5117 61.0762) rotate(90) scale(119.937 119.938)">
<stop offset="0.0885417" stop-color="#EB1000"/>
<stop offset="1" stop-color="#EB1000" stop-opacity="0"/>
</radialGradient>
<linearGradient id="paint1_linear_5481_122456" x1="66.5691" y1="3.79254" x2="18.4613" y2="66.1655" gradientUnits="userSpaceOnUse">
<stop stop-color="#FF4885"/>
<stop offset="1" stop-color="#FF4885" stop-opacity="0"/>
</linearGradient>
<linearGradient id="paint2_linear_5481_122456" x1="37.2587" y1="-24.9205" x2="46.539" y2="34.4732" gradientUnits="userSpaceOnUse">
<stop offset="0.15625" stop-color="#7A6AFD"/>
<stop offset="1" stop-color="#7A6AFD" stop-opacity="0"/>
</linearGradient>
<linearGradient id="paint3_linear_5481_122456" x1="-69.8201" y1="94.4872" x2="86.3263" y2="63.6273" gradientUnits="userSpaceOnUse">
<stop stop-color="#30A7FE" stop-opacity="0"/>
<stop offset="0.432292" stop-color="#30A7FE" stop-opacity="0.994652"/>
<stop offset="0.609375" stop-color="#30A7FE"/>
<stop offset="1" stop-color="#30A7FE" stop-opacity="0"/>
</linearGradient>
<clipPath id="clip0_5481_122456">
<rect x="6.46484" y="6.46484" width="83.0696" height="83.0696" rx="10" fill="white"/>
</clipPath>
</defs>
<clipPath id="mask0_5481_122456">
<path d="M72.2927 38.692L52.5104 18.9096C51.1601 17.5593 49.3288 16.8008 47.4192 16.8008H28.8016C24.8251 16.8008 21.6016 20.0243 21.6016 24.0008V72.0008C21.6016 75.9772 24.8251 79.2008 28.8016 79.2008H67.2016C71.178 79.2008 74.4016 75.9772 74.4016 72.0008V43.7831C74.4016 41.8736 73.643 40.0422 72.2927 38.692ZM62.4016 50.4008C62.4016 51.7262 61.327 52.8008 60.0016 52.8008C58.6762 52.8008 57.6016 51.7262 57.6016 50.4008V48.0008H50.4016V67.2008H52.8016C54.127 67.2008 55.2016 68.2754 55.2016 69.6008C55.2016 70.9262 54.127 72.0008 52.8016 72.0008H43.2016C41.8762 72.0008 40.8016 70.9262 40.8016 69.6008C40.8016 68.2754 41.8762 67.2008 43.2016 67.2008H45.6016V48.0008H38.4016V50.4008C38.4016 51.7262 37.327 52.8008 36.0016 52.8008C34.6762 52.8008 33.6016 51.7262 33.6016 50.4008V45.6008C33.6016 44.2754 34.6762 43.2008 36.0016 43.2008H60.0016C61.327 43.2008 62.4016 44.2754 62.4016 45.6008V50.4008Z" fill="white"/>
</clipPath>
<g clip-path="url(#mask0_5481_122456)">
<g clip-path="url(#clip0_5481_122456)">
<rect x="6.46484" y="6.46484" width="83.0696" height="83.0696" rx="10" fill="#D9F4FD"/>
<ellipse cx="80.5117" cy="61.0762" rx="119.938" ry="119.937" fill="url(#paint0_radial_5481_122456)"/>
<path d="M-1.01227 32.4821C-2.34551 3.76959 19.8498 -20.5873 48.5623 -21.9205C77.2748 -23.2538 101.632 -1.05849 102.965 27.654C104.298 56.3665 82.1028 80.7234 53.3903 82.0566C24.6778 83.3899 0.320967 61.1946 -1.01227 32.4821Z" fill="url(#paint1_linear_5481_122456)"/>
<path d="M27.4485 -51.0168C20.9714 -55.0248 12.7649 -55.0494 6.26363 -51.0801L-58.7604 -11.3786C-65.1286 -7.49024 -65.1393 1.6877 -58.7797 5.59074L5.8147 45.236C12.3062 49.2196 20.5128 49.2149 26.9986 45.2218L91.4599 5.53944C97.7859 1.64473 97.7974 -7.48191 91.4792 -11.3913L27.4485 -51.0168Z" fill="url(#paint2_linear_5481_122456)"/>
<path d="M-34.9462 46.1966C-21.5439 46.1966 -9.4036 51.6209 -0.613938 60.3717C16.9654 77.9032 31.5397 77.9182 49.119 60.4167C57.9087 51.6209 70.064 46.1816 83.4814 46.1816C110.301 46.1966 132.027 67.8638 132.027 94.6107C132.027 121.357 110.301 143.01 83.4814 143.01C70.0339 143.01 57.8786 137.555 49.089 128.76C31.5247 111.288 16.9654 111.303 -0.613938 128.835C-9.4036 137.6 -21.5439 143.01 -34.9462 143.01C-61.7509 143.01 -83.4772 121.343 -83.4772 94.6107C-83.4772 67.8788 -61.7509 46.1966 -34.9462 46.1966Z" fill="url(#paint3_linear_5481_122456)"/>
</g>
</g>

</svg>
