<svg width="97" height="96" viewBox="0 0 97 96" xmlns="http://www.w3.org/2000/svg">
  <defs>
<radialGradient id="paint0_radial_5481_122531" cx="0" cy="0" r="1" gradientUnits="userSpaceOnUse" gradientTransform="translate(86.5128 63.1124) rotate(90) scale(138.607)">
<stop offset="0.0885417" stop-color="#EB1000"/>
<stop offset="1" stop-color="#EB1000" stop-opacity="0"/>
</radialGradient>
<linearGradient id="paint1_linear_5481_122531" x1="70.4031" y1="-3.08825" x2="14.807" y2="68.9935" gradientUnits="userSpaceOnUse">
<stop stop-color="#FF4885"/>
<stop offset="1" stop-color="#FF4885" stop-opacity="0"/>
</linearGradient>
<linearGradient id="paint2_linear_5481_122531" x1="36.5312" y1="-36.2716" x2="47.256" y2="32.3671" gradientUnits="userSpaceOnUse">
<stop offset="0.15625" stop-color="#7A6AFD"/>
<stop offset="1" stop-color="#7A6AFD" stop-opacity="0"/>
</linearGradient>
<linearGradient id="paint3_linear_5481_122531" x1="-87.2195" y1="101.725" x2="93.2321" y2="66.0615" gradientUnits="userSpaceOnUse">
<stop stop-color="#30A7FE" stop-opacity="0"/>
<stop offset="0.432292" stop-color="#30A7FE" stop-opacity="0.994652"/>
<stop offset="0.609375" stop-color="#30A7FE"/>
<stop offset="1" stop-color="#30A7FE" stop-opacity="0"/>
</linearGradient>
<clipPath id="clip0_5481_122531">
<rect x="0.941406" width="96" height="96" rx="10" fill="white"/>
</clipPath>
</defs>
<clipPath id="mask0_5481_122531">
<path fill-rule="evenodd" d="M39.5611 25.1335L52.7985 38.3709L48.6736 46.3204C47.7954 48.0127 46.3417 49.3358 44.5744 50.0512L23.0907 58.7477C22.623 58.9371 22.1557 59.0017 21.7124 58.9652L35.1374 45.5727C35.1547 45.5555 35.1716 45.538 35.1881 45.5203C36.0567 45.6111 36.9574 45.3236 37.623 44.658C38.7946 43.4864 38.7946 41.5869 37.623 40.4153C36.4515 39.2438 34.552 39.2438 33.3804 40.4153C32.7851 41.0106 32.4923 41.7938 32.5019 42.574C32.4362 42.6249 32.3729 42.6805 32.3124 42.7408L18.9581 56.0628C18.9472 55.6668 19.0171 55.2542 19.1842 54.8413L27.8808 33.3576C28.5962 31.5903 29.9193 30.1365 31.6116 29.2584L39.5611 25.1335ZM46.1408 19.4196L42.8224 22.738L55.183 35.0986L58.5014 31.7802C60.0635 30.2181 60.0635 27.6855 58.5014 26.1234L51.7976 19.4196C50.2355 17.8575 47.7029 17.8575 46.1408 19.4196ZM41.6603 68.4325C39.6391 72.8337 38.942 74.3517 35.227 77.244C36.6621 77.4093 38.5851 77.6012 40.7347 77.692C47.604 77.9823 56.787 77.2416 59.7532 71.3121C60.589 69.6413 60.9416 68.1454 60.9564 66.8165C60.9691 65.6678 60.7294 64.644 60.3311 63.74L60.3316 63.7404C59.7138 62.3377 58.7143 61.2236 57.6838 60.3795C56.8964 59.7344 55.7731 59.2231 54.484 58.9501L54.4851 58.951C50.902 58.1917 46.0366 59.2724 43.5359 64.4344C42.7767 66.0014 42.1755 67.3106 41.6603 68.4325L41.6603 68.4325ZM60.2187 57.2852C59.0384 56.3183 57.5543 55.6057 55.9313 55.1828L70.0153 37.9902C71.8103 35.7989 75.0419 35.4777 77.2331 37.2728C79.4243 39.0678 79.7455 42.2994 77.9505 44.4906L63.8157 61.7452C62.8725 59.7976 61.4917 58.328 60.2187 57.2852Z" fill="white"/>
</clipPath>
<g clip-path="url(#mask0_5481_122531)">
<g clip-path="url(#clip0_5481_122531)">
<rect x="0.941406" width="96" height="96" rx="10" fill="#D9F4FD"/>
<circle cx="86.5128" cy="63.1124" r="138.607" fill="url(#paint0_radial_5481_122531)"/>
<path d="M-7.69778 30.067C-9.23855 -3.11477 16.4116 -31.263 49.5934 -32.8037C82.7751 -34.3445 110.923 -8.69438 112.464 24.4874C114.005 57.6692 88.3548 85.8174 55.173 87.3582C21.9912 88.8989 -6.15701 63.2488 -7.69778 30.067Z" fill="url(#paint1_linear_5481_122531)"/>
<path d="M25.194 -66.43C17.7087 -71.0619 8.22471 -71.0903 0.711526 -66.5032L-74.4339 -20.6218C-81.7934 -16.1282 -81.8057 -5.52169 -74.4562 -1.01111L0.192716 44.8052C7.69465 49.4089 17.1786 49.4034 24.6741 44.7888L99.1692 -1.0704C106.48 -5.57135 106.493 -16.1186 99.1915 -20.6366L25.194 -66.43Z" fill="url(#paint2_linear_5481_122531)"/>
<path d="M-46.9172 45.9177C-31.4287 45.9177 -17.3987 52.1863 -7.24091 62.2992C13.0748 82.5597 29.9177 82.577 50.2333 62.3512C60.3912 52.1863 74.4385 45.9004 89.9444 45.9004C120.939 45.9177 146.047 70.9575 146.047 101.868C146.047 132.778 120.939 157.8 89.9444 157.8C74.4038 157.8 60.3564 151.497 50.1986 141.332C29.9003 121.141 13.0748 121.158 -7.24091 141.419C-17.3987 151.549 -31.4287 157.8 -46.9172 157.8C-77.8943 157.8 -103.002 132.761 -103.002 101.868C-103.002 70.9749 -77.8943 45.9177 -46.9172 45.9177Z" fill="url(#paint3_linear_5481_122531)"/>
</g>
</g>

</svg>
