<svg width="160" height="160" viewBox="0 0 160 160" xmlns="http://www.w3.org/2000/svg">
  <defs>
<radialGradient id="paint0_radial_5481_122191" cx="0" cy="0" r="1" gradientUnits="userSpaceOnUse" gradientTransform="translate(142.62 105.187) rotate(90) scale(231.011)">
<stop offset="0.0885417" stop-color="#EB1000"/>
<stop offset="1" stop-color="#EB1000" stop-opacity="0"/>
</radialGradient>
<linearGradient id="paint1_linear_5481_122191" x1="115.768" y1="-5.14512" x2="23.108" y2="114.991" gradientUnits="userSpaceOnUse">
<stop stop-color="#FF4885"/>
<stop offset="1" stop-color="#FF4885" stop-opacity="0"/>
</linearGradient>
<linearGradient id="paint2_linear_5481_122191" x1="59.3137" y1="-60.4521" x2="77.1884" y2="53.9458" gradientUnits="userSpaceOnUse">
<stop offset="0.15625" stop-color="#7A6AFD"/>
<stop offset="1" stop-color="#7A6AFD" stop-opacity="0"/>
</linearGradient>
<linearGradient id="paint3_linear_5481_122191" x1="-146.934" y1="169.541" x2="153.819" y2="110.102" gradientUnits="userSpaceOnUse">
<stop stop-color="#30A7FE" stop-opacity="0"/>
<stop offset="0.432292" stop-color="#30A7FE" stop-opacity="0.994652"/>
<stop offset="0.609375" stop-color="#30A7FE"/>
<stop offset="1" stop-color="#30A7FE" stop-opacity="0"/>
</linearGradient>
<clipPath id="clip0_5481_122191">
<rect width="160" height="160" rx="10" fill="white"/>
</clipPath>
</defs>
<clipPath id="mask0_5481_122191">
<clipPath id="path-1-outside-1_5481_122191">
<rect fill="white" x="30.0703" y="30.0703" width="100" height="100"/>
<path fill-rule="evenodd" d="M37.3203 32.0703C34.4208 32.0703 32.0703 34.4208 32.0703 37.3203V54.3926C32.0703 57.2921 34.4208 59.6426 37.3203 59.6426C40.2198 59.6426 42.5703 57.2921 42.5703 54.3926V42.5703H74.7533V117.431H62.9281C60.0286 117.431 57.6781 119.781 57.6781 122.681C57.6781 125.58 60.0286 127.931 62.9281 127.931H79.8919C79.9289 127.932 79.9661 127.932 80.0033 127.932C80.0406 127.932 80.0777 127.932 80.1148 127.931H97.0727C99.9722 127.931 102.323 125.58 102.323 122.681C102.323 119.781 99.9722 117.431 97.0727 117.431H85.2533V42.5703H117.431V54.3926C117.431 57.2921 119.782 59.6426 122.681 59.6426C125.581 59.6426 127.931 57.2921 127.931 54.3926V37.4075C127.932 37.3785 127.932 37.3494 127.932 37.3203C127.932 34.4208 125.581 32.0703 122.682 32.0703H122.681H80.0033H37.3203Z"/>
</clipPath>
<path fill-rule="evenodd" d="M37.3203 32.0703C34.4208 32.0703 32.0703 34.4208 32.0703 37.3203V54.3926C32.0703 57.2921 34.4208 59.6426 37.3203 59.6426C40.2198 59.6426 42.5703 57.2921 42.5703 54.3926V42.5703H74.7533V117.431H62.9281C60.0286 117.431 57.6781 119.781 57.6781 122.681C57.6781 125.58 60.0286 127.931 62.9281 127.931H79.8919C79.9289 127.932 79.9661 127.932 80.0033 127.932C80.0406 127.932 80.0777 127.932 80.1148 127.931H97.0727C99.9722 127.931 102.323 125.58 102.323 122.681C102.323 119.781 99.9722 117.431 97.0727 117.431H85.2533V42.5703H117.431V54.3926C117.431 57.2921 119.782 59.6426 122.681 59.6426C125.581 59.6426 127.931 57.2921 127.931 54.3926V37.4075C127.932 37.3785 127.932 37.3494 127.932 37.3203C127.932 34.4208 125.581 32.0703 122.682 32.0703H122.681H80.0033H37.3203Z" fill="#292929"/>
<path d="M42.5703 42.5703V40.5703C41.4657 40.5703 40.5703 41.4657 40.5703 42.5703H42.5703ZM74.7533 42.5703H76.7533C76.7533 41.4657 75.8579 40.5703 74.7533 40.5703V42.5703ZM74.7533 117.431V119.431C75.8579 119.431 76.7533 118.535 76.7533 117.431H74.7533ZM79.8919 127.931L79.9335 125.931C79.9196 125.931 79.9057 125.931 79.8919 125.931V127.931ZM80.1148 127.931V125.931C80.1009 125.931 80.0871 125.931 80.0732 125.931L80.1148 127.931ZM85.2533 117.431H83.2533C83.2533 118.535 84.1488 119.431 85.2533 119.431V117.431ZM85.2533 42.5703V40.5703C84.1488 40.5703 83.2533 41.4657 83.2533 42.5703H85.2533ZM117.431 42.5703H119.431C119.431 41.4657 118.536 40.5703 117.431 40.5703V42.5703ZM127.931 37.4075L125.932 37.3749C125.931 37.3858 125.931 37.3966 125.931 37.4075H127.931ZM34.0703 37.3203C34.0703 35.5254 35.5254 34.0703 37.3203 34.0703V30.0703C33.3162 30.0703 30.0703 33.3162 30.0703 37.3203H34.0703ZM34.0703 54.3926V37.3203H30.0703V54.3926H34.0703ZM37.3203 57.6426C35.5254 57.6426 34.0703 56.1876 34.0703 54.3926H30.0703C30.0703 58.3967 33.3162 61.6426 37.3203 61.6426V57.6426ZM40.5703 54.3926C40.5703 56.1876 39.1152 57.6426 37.3203 57.6426V61.6426C41.3244 61.6426 44.5703 58.3967 44.5703 54.3926H40.5703ZM40.5703 42.5703V54.3926H44.5703V42.5703H40.5703ZM74.7533 40.5703H42.5703V44.5703H74.7533V40.5703ZM76.7533 117.431V42.5703H72.7533V117.431H76.7533ZM62.9281 119.431H74.7533V115.431H62.9281V119.431ZM59.6781 122.681C59.6781 120.886 61.1332 119.431 62.9281 119.431V115.431C58.924 115.431 55.6781 118.677 55.6781 122.681H59.6781ZM62.9281 125.931C61.1332 125.931 59.6781 124.476 59.6781 122.681H55.6781C55.6781 126.685 58.924 129.931 62.9281 129.931V125.931ZM79.8919 125.931H62.9281V129.931H79.8919V125.931ZM80.0033 125.932C79.98 125.932 79.9567 125.932 79.9335 125.931L79.8503 129.93C79.9012 129.931 79.9522 129.932 80.0033 129.932V125.932ZM80.0732 125.931C80.05 125.932 80.0267 125.932 80.0033 125.932V129.932C80.0545 129.932 80.1055 129.931 80.1564 129.93L80.0732 125.931ZM97.0727 125.931H80.1148V129.931H97.0727V125.931ZM100.323 122.681C100.323 124.476 98.8677 125.931 97.0727 125.931V129.931C101.077 129.931 104.323 126.685 104.323 122.681H100.323ZM97.0727 119.431C98.8677 119.431 100.323 120.886 100.323 122.681H104.323C104.323 118.677 101.077 115.431 97.0727 115.431V119.431ZM85.2533 119.431H97.0727V115.431H85.2533V119.431ZM83.2533 42.5703V117.431H87.2533V42.5703H83.2533ZM117.431 40.5703H85.2533V44.5703H117.431V40.5703ZM119.431 54.3926V42.5703H115.431V54.3926H119.431ZM122.681 57.6426C120.886 57.6426 119.431 56.1876 119.431 54.3926H115.431C115.431 58.3967 118.677 61.6426 122.681 61.6426V57.6426ZM125.931 54.3926C125.931 56.1876 124.476 57.6426 122.681 57.6426V61.6426C126.685 61.6426 129.931 58.3967 129.931 54.3926H125.931ZM125.931 37.4075V54.3926H129.931V37.4075H125.931ZM125.932 37.3203C125.932 37.3386 125.932 37.3568 125.932 37.3749L129.931 37.4401C129.932 37.4002 129.932 37.3603 129.932 37.3203H125.932ZM122.682 34.0703C124.477 34.0703 125.932 35.5254 125.932 37.3203H129.932C129.932 33.3162 126.686 30.0703 122.682 30.0703V34.0703ZM122.681 34.0703H122.682V30.0703H122.681V34.0703ZM80.0033 34.0703H122.681V30.0703H80.0033V34.0703ZM37.3203 34.0703H80.0033V30.0703H37.3203V34.0703Z" fill="#292929" clip-path="url(#path-1-outside-1_5481_122191)"/>
</clipPath>
<g clip-path="url(#mask0_5481_122191)">
<g clip-path="url(#clip0_5481_122191)">
<rect width="160" height="160" rx="10" fill="#D9F4FD"/>
<circle cx="142.62" cy="105.187" r="231.011" fill="url(#paint0_radial_5481_122191)"/>
<path d="M-14.3999 50.1137C-16.9679 -5.18932 25.7823 -52.103 81.0853 -54.6709C136.388 -57.2388 183.302 -14.4887 185.87 40.8143C188.438 96.1173 145.688 143.031 90.3846 145.599C35.0817 148.167 -11.832 105.417 -14.3999 50.1137Z" fill="url(#paint1_linear_5481_122191)"/>
<path d="M40.4184 -110.716C27.9428 -118.436 12.1362 -118.483 -0.385738 -110.838L-125.628 -34.3691C-137.894 -26.8797 -137.914 -9.20217 -125.665 -1.68455L-1.25042 74.676C11.2528 82.3487 27.0594 82.3396 39.5518 74.6486L163.71 -1.78335C175.895 -9.28493 175.917 -26.8637 163.748 -34.3936L40.4184 -110.716Z" fill="url(#paint2_linear_5481_122191)"/>
<path d="M-79.7631 76.5289C-53.9489 76.5289 -30.5656 86.9766 -13.6359 103.831C20.2235 137.599 48.2951 137.628 82.1545 103.918C99.0842 86.9766 122.496 76.5 148.34 76.5C199.997 76.5289 241.844 118.262 241.844 169.779C241.844 221.296 199.997 263 148.34 263C122.439 263 99.0263 252.495 82.0966 235.553C48.2661 201.901 20.2235 201.93 -13.6359 235.697C-30.5656 252.581 -53.9489 263 -79.7631 263C-131.392 263 -173.238 221.267 -173.238 169.779C-173.238 118.291 -131.392 76.5289 -79.7631 76.5289Z" fill="url(#paint3_linear_5481_122191)"/>
</g>
</g>

</svg>
