<svg width="160" height="160" viewBox="0 0 160 160" xmlns="http://www.w3.org/2000/svg">
  <defs>
<radialGradient id="paint0_radial_5481_122111" cx="0" cy="0" r="1" gradientUnits="userSpaceOnUse" gradientTransform="translate(130.355 98.538) rotate(90) scale(170.948 181.344)">
<stop offset="0.0885417" stop-color="#EB1000"/>
<stop offset="1" stop-color="#EB1000" stop-opacity="0"/>
</radialGradient>
<linearGradient id="paint1_linear_5481_122111" x1="109.277" y1="16.8921" x2="41.838" y2="109.646" gradientUnits="userSpaceOnUse">
<stop stop-color="#FF4885"/>
<stop offset="1" stop-color="#FF4885" stop-opacity="0"/>
</linearGradient>
<linearGradient id="paint2_linear_5481_122111" x1="64.9613" y1="-24.0337" x2="77.4635" y2="60.846" gradientUnits="userSpaceOnUse">
<stop offset="0.15625" stop-color="#7A6AFD"/>
<stop offset="1" stop-color="#7A6AFD" stop-opacity="0"/>
</linearGradient>
<linearGradient id="paint3_linear_5481_122111" x1="-96.9441" y1="146.161" x2="138.04" y2="96.8959" gradientUnits="userSpaceOnUse">
<stop stop-color="#30A7FE" stop-opacity="0"/>
<stop offset="0.432292" stop-color="#30A7FE" stop-opacity="0.994652"/>
<stop offset="0.609375" stop-color="#30A7FE"/>
<stop offset="1" stop-color="#30A7FE" stop-opacity="0"/>
</linearGradient>
<clipPath id="clip0_5481_122111">
<rect x="18.3984" y="20.7002" width="125.6" height="118.4" rx="10" fill="white"/>
</clipPath>
</defs>
<clipPath id="mask0_5481_122111">
<path fill-rule="evenodd" d="M35.3534 89.5524C24.2154 100.635 24.2156 118.613 35.3535 129.696C46.4805 140.768 64.5128 140.768 75.6398 129.696L120.708 84.8494C122.274 83.2911 122.281 80.7585 120.722 79.1925C119.164 77.6266 116.632 77.6203 115.066 79.1785L69.9969 124.025C61.9909 131.992 49.0024 131.992 40.9964 124.025C33.0012 116.069 33.0012 103.179 40.9963 95.2232L102.72 33.8038C107.817 28.7321 116.089 28.7321 121.186 33.8038C126.271 38.8647 126.271 47.0618 121.186 52.1227L65.8603 107.175C63.7321 109.293 60.2734 109.293 58.1452 107.175C56.0279 105.068 56.0279 101.661 58.1451 99.5539L96.8155 61.0742C98.3814 59.516 98.3877 56.9833 96.8294 55.4174C95.2712 53.8514 92.7386 53.8452 91.1726 55.4034L52.5023 93.8831C47.2421 99.1173 47.2422 107.612 52.5023 112.846C57.7515 118.069 66.254 118.069 71.5032 112.846L126.828 57.7935C135.057 49.6053 135.057 36.3212 126.828 28.133C118.611 19.9557 105.295 19.9557 97.077 28.133L35.3534 89.5524Z" fill="white" stroke="white" stroke-width="2" stroke-linecap="round" stroke-linejoin="round"/>
</clipPath>
<g clip-path="url(#mask0_5481_122111)">
<g clip-path="url(#clip0_5481_122111)">
<rect x="18.3984" y="20.7002" width="125.6" height="118.4" rx="10" fill="#D9F4FD"/>
<ellipse cx="130.355" cy="98.538" rx="181.344" ry="170.948" fill="url(#paint0_radial_5481_122111)"/>
<path d="M7.09525 57.7836C5.07941 16.8594 38.6383 -17.8567 82.0512 -19.757C125.464 -21.6572 162.291 9.97792 164.307 50.9021C166.323 91.8263 132.764 126.542 89.3511 128.443C45.9383 130.343 9.11108 98.7079 7.09525 57.7836Z" fill="url(#paint1_linear_5481_122111)"/>
<path d="M50.1285 -61.229C40.3352 -66.9417 27.927 -66.9767 18.0973 -61.3193L-80.218 -4.73227C-89.8467 0.809818 -89.8628 13.8912 -80.2472 19.4543L17.4185 75.9611C27.2335 81.6389 39.6417 81.6322 49.4483 75.9408L146.913 19.3812C156.477 13.83 156.495 0.821682 146.942 -4.75044L50.1285 -61.229Z" fill="url(#paint2_linear_5481_122111)"/>
<path d="M-44.2153 77.3319C-23.9511 77.3319 -5.59525 85.0632 7.69458 97.5358C34.2742 122.524 56.3104 122.545 82.89 97.5999C96.1799 85.0632 114.558 77.3105 134.845 77.3105C175.396 77.3319 208.246 108.214 208.246 146.337C208.246 184.459 175.396 215.321 134.845 215.321C114.513 215.321 96.1344 207.547 82.8446 195.01C56.2877 170.107 34.2742 170.129 7.69458 195.117C-5.59525 207.611 -23.9511 215.321 -44.2153 215.321C-84.7436 215.321 -117.593 184.438 -117.593 146.337C-117.593 108.236 -84.7436 77.3319 -44.2153 77.3319Z" fill="url(#paint3_linear_5481_122111)"/>
</g>
</g>

</svg>
