<svg width="96" height="96" viewBox="0 0 96 96" xmlns="http://www.w3.org/2000/svg">
  <defs>
<radialGradient id="paint0_radial_5481_122457" cx="0" cy="0" r="1" gradientUnits="userSpaceOnUse" gradientTransform="translate(80.6739 61.1426) rotate(90) scale(120.537)">
<stop offset="0.0885417" stop-color="#EB1000"/>
<stop offset="1" stop-color="#EB1000" stop-opacity="0"/>
</radialGradient>
<linearGradient id="paint1_linear_5481_122457" x1="66.6642" y1="3.57344" x2="18.3158" y2="66.2583" gradientUnits="userSpaceOnUse">
<stop stop-color="#FF4885"/>
<stop offset="1" stop-color="#FF4885" stop-opacity="0"/>
</linearGradient>
<linearGradient id="paint2_linear_5481_122457" x1="37.208" y1="-25.2847" x2="46.5347" y2="34.406" gradientUnits="userSpaceOnUse">
<stop offset="0.15625" stop-color="#7A6AFD"/>
<stop offset="1" stop-color="#7A6AFD" stop-opacity="0"/>
</linearGradient>
<linearGradient id="paint3_linear_5481_122457" x1="-70.4075" y1="94.7209" x2="86.5196" y2="63.7067" gradientUnits="userSpaceOnUse">
<stop stop-color="#30A7FE" stop-opacity="0"/>
<stop offset="0.432292" stop-color="#30A7FE" stop-opacity="0.994652"/>
<stop offset="0.609375" stop-color="#30A7FE"/>
<stop offset="1" stop-color="#30A7FE" stop-opacity="0"/>
</linearGradient>
<clipPath id="clip0_5481_122457">
<rect x="6.25781" y="6.25781" width="83.485" height="83.485" rx="10" fill="white"/>
</clipPath>
</defs>
<clipPath id="mask0_5481_122457">
<path d="M72.4095 38.6452L52.5282 18.7639C51.1711 17.4069 49.3306 16.6445 47.4115 16.6445H28.7008C24.7045 16.6445 21.4648 19.8842 21.4648 23.8805V72.1205C21.4648 76.1168 24.7045 79.3565 28.7008 79.3565H67.2928C71.2892 79.3565 74.5288 76.1168 74.5288 72.1205V43.7618C74.5288 41.8427 73.7666 40.0022 72.4095 38.6452ZM57.0393 55.9892L42.6714 64.2616C41.0623 65.1881 39.0537 64.0252 39.0559 62.1684L39.0758 45.5892C39.078 43.7325 41.0894 42.5744 42.6962 43.5047L57.0444 51.8115C58.6512 52.7418 58.6484 55.0627 57.0393 55.9892Z" fill="white"/>
</clipPath>
<g clip-path="url(#mask0_5481_122457)">
<g clip-path="url(#clip0_5481_122457)">
<rect x="6.25781" y="6.25781" width="83.485" height="83.485" rx="10" fill="#D9F4FD"/>
<circle cx="80.6739" cy="61.1426" r="120.537" fill="url(#paint0_radial_5481_122457)"/>
<path d="M-1.25517 32.4064C-2.59508 3.55039 19.7112 -20.9283 48.5672 -22.2682C77.4233 -23.6081 101.902 -1.30183 103.242 27.5542C104.582 56.4103 82.2755 80.8889 53.4195 82.2288C24.5634 83.5687 0.0847316 61.2625 -1.25517 32.4064Z" fill="url(#paint1_linear_5481_122457)"/>
<path d="M27.3488 -51.5114C20.8393 -55.5395 12.5917 -55.5642 6.05797 -51.5751L-59.2911 -11.675C-65.6913 -7.76725 -65.7019 1.45657 -59.3105 5.37913L5.6068 45.2226C12.1307 49.2261 20.3783 49.2214 26.8967 45.2084L91.6802 5.32757C98.0378 1.41339 98.0494 -7.75889 91.6996 -11.6878L27.3488 -51.5114Z" fill="url(#paint2_linear_5481_122457)"/>
<path d="M-35.3592 46.1889C-21.8898 46.1889 -9.68887 51.6403 -0.855262 60.4348C16.812 78.054 31.4591 78.0691 49.1264 60.48C57.96 51.6403 70.176 46.1738 83.6605 46.1738C110.614 46.1889 132.449 67.9644 132.449 94.845C132.449 121.726 110.614 143.486 83.6605 143.486C70.1458 143.486 57.9298 138.004 49.0962 129.165C31.444 111.606 16.812 111.621 -0.855262 129.24C-9.68887 138.05 -21.8898 143.486 -35.3592 143.486C-62.2979 143.486 -84.1328 121.711 -84.1328 94.845C-84.1328 67.9795 -62.2979 46.1889 -35.3592 46.1889Z" fill="url(#paint3_linear_5481_122457)"/>
</g>
</g>

</svg>
