<svg width="48" height="48" viewBox="0 0 48 48" xmlns="http://www.w3.org/2000/svg">
  <defs>
<radialGradient id="paint0_radial_5481_122312" cx="0" cy="0" r="1" gradientUnits="userSpaceOnUse" gradientTransform="translate(39.1062 30.3118) rotate(90) scale(51.2844 54.4031)">
<stop offset="0.0885417" stop-color="#EB1000"/>
<stop offset="1" stop-color="#EB1000" stop-opacity="0"/>
</radialGradient>
<linearGradient id="paint1_linear_5481_122312" x1="32.7828" y1="5.819" x2="12.551" y2="33.6451" gradientUnits="userSpaceOnUse">
<stop stop-color="#FF4885"/>
<stop offset="1" stop-color="#FF4885" stop-opacity="0"/>
</linearGradient>
<linearGradient id="paint2_linear_5481_122312" x1="19.4888" y1="-6.45884" x2="23.2394" y2="19.0051" gradientUnits="userSpaceOnUse">
<stop offset="0.15625" stop-color="#7A6AFD"/>
<stop offset="1" stop-color="#7A6AFD" stop-opacity="0"/>
</linearGradient>
<linearGradient id="paint3_linear_5481_122312" x1="-29.0844" y1="44.5985" x2="41.4108" y2="29.819" gradientUnits="userSpaceOnUse">
<stop stop-color="#30A7FE" stop-opacity="0"/>
<stop offset="0.432292" stop-color="#30A7FE" stop-opacity="0.994652"/>
<stop offset="0.609375" stop-color="#30A7FE"/>
<stop offset="1" stop-color="#30A7FE" stop-opacity="0"/>
</linearGradient>
<clipPath id="clip0_5481_122312">
<rect x="5.51953" y="6.96094" width="37.68" height="35.52" rx="10" fill="white"/>
</clipPath>
</defs>
<clipPath id="mask0_5481_122312">
<path fill-rule="evenodd" d="M26.3384 9.40434L36.2264 18.8633V18.8693C36.9464 19.5533 37.3514 20.5073 37.3514 21.5033V35.9663C37.3514 37.9763 35.7284 39.6053 33.7304 39.6053H14.2694C12.2684 39.6053 10.6484 37.9763 10.6484 35.9663V12.0413C10.6484 10.0313 12.2714 8.40234 14.2694 8.40234H23.8424C24.7724 8.40234 25.6664 8.75934 26.3384 9.40434ZM27.7634 20.9573C27.7634 20.2943 27.2264 19.7573 26.5634 19.7573H25.0424V17.7593H26.5664C27.2294 17.7593 27.7664 17.2223 27.7664 16.5593C27.7664 15.8963 27.2294 15.3593 26.5664 15.3593H25.0424V14.3603C25.0424 13.6973 24.5054 13.1603 23.8424 13.1603H21.4454C20.7824 13.1603 20.2454 13.6973 20.2454 14.3603C20.2454 15.0233 20.7824 15.5603 21.4454 15.5603H22.6424V17.5583H21.4454C20.7824 17.5583 20.2454 18.0953 20.2454 18.7583C20.2454 19.4213 20.7824 19.9583 21.4454 19.9583H22.6424V21.9563H21.4454C20.7824 21.9563 20.2454 22.4933 20.2454 23.1563C20.2454 23.8193 20.7824 24.3563 21.4454 24.3563H22.6424V26.3543H21.7454C21.0824 26.3543 20.5454 26.8913 20.5454 27.5543V33.5813C20.5454 34.9043 21.6224 35.9813 22.9454 35.9813H24.7484C26.0714 35.9813 27.1484 34.9043 27.1484 33.5813V27.5543C27.1484 26.8913 26.6114 26.3543 25.9484 26.3543H25.0394V22.1573H26.5634C27.2264 22.1573 27.7634 21.6203 27.7634 20.9573ZM22.9455 31.1663H24.7515V33.5783H22.9455V31.1663Z" fill="white"/>
</clipPath>
<g clip-path="url(#mask0_5481_122312)">
<g clip-path="url(#clip0_5481_122312)">
<rect x="5.51953" y="6.96094" width="37.68" height="35.52" rx="10" fill="#D9F4FD"/>
<ellipse cx="39.1062" cy="30.3118" rx="54.4031" ry="51.2844" fill="url(#paint0_radial_5481_122312)"/>
<path d="M2.12818 18.0865C1.52343 5.80919 11.5911 -4.60564 24.615 -5.17572C37.6388 -5.74581 48.687 3.74473 49.2917 16.022C49.8965 28.2993 39.8288 38.7141 26.8049 39.2842C13.7811 39.8543 2.73293 30.3637 2.12818 18.0865Z" fill="url(#paint1_linear_5481_122312)"/>
<path d="M15.0389 -17.6174C12.1009 -19.3312 8.3785 -19.3417 5.42957 -17.6445L-24.065 -0.668411C-26.9536 0.994216 -26.9584 4.91864 -24.0738 6.58755L5.22594 23.5396C8.17045 25.2429 11.8929 25.2409 14.8349 23.5335L44.0742 6.56562C46.9436 4.90026 46.9489 0.997775 44.083 -0.673862L15.0389 -17.6174Z" fill="url(#paint2_linear_5481_122312)"/>
<path d="M-13.2658 23.9498C-7.18652 23.9498 -1.67976 26.2692 2.30719 30.0109C10.2811 37.5073 16.8919 37.5137 24.8658 30.0302C28.8528 26.2692 34.3664 23.9434 40.4524 23.9434C52.6177 23.9498 62.4727 33.2145 62.4727 44.6513C62.4727 56.088 52.6177 65.3464 40.4524 65.3464C34.3527 65.3464 28.8392 63.0142 24.8522 59.2532C16.8851 51.7824 10.2811 51.7888 2.30719 59.2852C-1.67976 63.0334 -7.18652 65.3464 -13.2658 65.3464C-25.4243 65.3464 -35.2792 56.0816 -35.2792 44.6513C-35.2792 33.2209 -25.4243 23.9498 -13.2658 23.9498Z" fill="url(#paint3_linear_5481_122312)"/>
</g>
</g>

</svg>
