<svg width="48" height="48" viewBox="0 0 48 48" xmlns="http://www.w3.org/2000/svg">
  <defs>
<radialGradient id="paint0_radial_5594_78782" cx="0" cy="0" r="1" gradientUnits="userSpaceOnUse" gradientTransform="translate(42.7877 31.5552) rotate(90) scale(69.3033)">
<stop offset="0.0885417" stop-color="#EB1000"/>
<stop offset="1" stop-color="#EB1000" stop-opacity="0"/>
</radialGradient>
<linearGradient id="paint1_linear_5594_78782" x1="34.7309" y1="-1.5451" x2="6.93278" y2="34.4958" gradientUnits="userSpaceOnUse">
<stop stop-color="#FF4885"/>
<stop offset="1" stop-color="#FF4885" stop-opacity="0"/>
</linearGradient>
<linearGradient id="paint2_linear_5594_78782" x1="17.7929" y1="-18.1368" x2="23.1553" y2="16.1826" gradientUnits="userSpaceOnUse">
<stop offset="0.15625" stop-color="#7A6AFD"/>
<stop offset="1" stop-color="#7A6AFD" stop-opacity="0"/>
</linearGradient>
<linearGradient id="paint3_linear_5594_78782" x1="-44.0785" y1="50.8616" x2="46.1473" y2="33.0298" gradientUnits="userSpaceOnUse">
<stop stop-color="#30A7FE" stop-opacity="0"/>
<stop offset="0.432292" stop-color="#30A7FE" stop-opacity="0.994652"/>
<stop offset="0.609375" stop-color="#30A7FE"/>
<stop offset="1" stop-color="#30A7FE" stop-opacity="0"/>
</linearGradient>
<clipPath id="clip0_5594_78782">
<rect y="-0.000976562" width="48" height="48" rx="10" fill="white"/>
</clipPath>
</defs>
<clipPath id="mask0_5594_78782">
<path fill-rule="evenodd" d="M23.9991 6.23145C24.6895 6.23145 25.2491 6.79109 25.2491 7.48145V9.82204C25.2491 10.5124 24.6895 11.072 23.9991 11.072C23.3087 11.072 22.7491 10.5124 22.7491 9.82204V7.48145C22.7491 6.79109 23.3087 6.23145 23.9991 6.23145Z" fill="#D9D9D9"/>
<path fill-rule="evenodd" d="M23.9988 14.4072C29.2971 14.4072 33.5923 18.7024 33.5923 24.0008C33.5923 29.2991 29.2971 33.5943 23.9988 33.5943C18.7004 33.5943 14.4052 29.2991 14.4052 24.0008C14.4052 18.7024 18.7004 14.4072 23.9988 14.4072ZM23.771 16.9108C19.9588 17.0311 16.9052 20.1593 16.9052 24.0008C16.9052 27.8422 19.9588 30.9704 23.771 31.0907V16.9108Z" fill="#D9D9D9"/>
<path fill-rule="evenodd" d="M25.2491 38.1788C25.2491 37.4884 24.6895 36.9288 23.9991 36.9288C23.3087 36.9288 22.7491 37.4884 22.7491 38.1788V40.5194C22.7491 41.2097 23.3087 41.7694 23.9991 41.7694C24.6895 41.7694 25.2491 41.2097 25.2491 40.5194V38.1788Z" fill="#D9D9D9"/>
<path fill-rule="evenodd" d="M41.7689 24.001C41.7689 24.6913 41.2092 25.251 40.5189 25.251H38.1783C37.4879 25.251 36.9283 24.6913 36.9283 24.001C36.9283 23.3106 37.4879 22.751 38.1783 22.751H40.5189C41.2092 22.751 41.7689 23.3106 41.7689 24.001Z" fill="#D9D9D9"/>
<path fill-rule="evenodd" d="M9.82106 25.251C10.5114 25.251 11.0711 24.6913 11.0711 24.001C11.0711 23.3106 10.5114 22.751 9.82106 22.751H7.48047C6.79011 22.751 6.23047 23.3106 6.23047 24.001C6.23047 24.6913 6.79011 25.251 7.48047 25.251H9.82106Z" fill="#D9D9D9"/>
<path fill-rule="evenodd" d="M36.5641 11.4345C37.0523 11.9226 37.0523 12.7141 36.5641 13.2022L34.9091 14.8573C34.4209 15.3454 33.6295 15.3454 33.1413 14.8573C32.6532 14.3691 32.6532 13.5777 33.1413 13.0895L34.7964 11.4345C35.2845 10.9463 36.076 10.9463 36.5641 11.4345Z" fill="#D9D9D9"/>
<path fill-rule="evenodd" d="M14.8572 34.9092C15.3454 34.421 15.3454 33.6296 14.8572 33.1414C14.369 32.6533 13.5776 32.6533 13.0894 33.1414L11.4344 34.7965C10.9462 35.2846 10.9462 36.0761 11.4344 36.5642C11.9225 37.0524 12.714 37.0524 13.2022 36.5642L14.8572 34.9092Z" fill="#D9D9D9"/>
<path fill-rule="evenodd" d="M11.4335 11.4345C10.9453 11.9226 10.9453 12.7141 11.4335 13.2022L13.0885 14.8573C13.5767 15.3454 14.3681 15.3454 14.8563 14.8573C15.3444 14.3691 15.3444 13.5777 14.8563 13.0895L13.2012 11.4345C12.7131 10.9463 11.9216 10.9463 11.4335 11.4345Z" fill="#D9D9D9"/>
<path fill-rule="evenodd" d="M33.1404 34.9092C32.6522 34.421 32.6522 33.6296 33.1404 33.1414C33.6285 32.6533 34.42 32.6533 34.9082 33.1414L36.5632 34.7965C37.0514 35.2846 37.0514 36.0761 36.5632 36.5642C36.0751 37.0524 35.2836 37.0524 34.7954 36.5642L33.1404 34.9092Z" fill="#D9D9D9"/>
</clipPath>
<g clip-path="url(#mask0_5594_78782)">
<g clip-path="url(#clip0_5594_78782)">
<rect y="-0.000976562" width="48" height="48" rx="10" fill="#D9F4FD"/>
<circle cx="42.7877" cy="31.5552" r="69.3033" fill="url(#paint0_radial_5594_78782)"/>
<path d="M-4.31959 15.0325C-5.08998 -1.55836 7.73508 -15.6325 24.326 -16.4028C40.9169 -17.1732 54.991 -4.34817 55.7613 12.2427C56.5317 28.8336 43.7067 42.9077 27.1158 43.6781C10.5249 44.4485 -3.54921 31.6234 -4.31959 15.0325Z" fill="url(#paint1_linear_5594_78782)"/>
<path d="M12.1243 -33.216C8.38167 -35.5319 3.6397 -35.5461 -0.116893 -33.2526L-37.6896 -10.3119C-41.3694 -8.06509 -41.3755 -2.76182 -37.7007 -0.506534L-0.376298 22.4016C3.37467 24.7035 8.11665 24.7007 11.8644 22.3934L49.1119 -0.536175C52.7672 -2.78665 52.7739 -8.06028 49.1231 -10.3193L12.1243 -33.216Z" fill="url(#paint2_linear_5594_78782)"/>
<path d="M-23.9274 22.9579C-16.1831 22.9579 -9.16812 26.0922 -4.0892 31.1486C6.06863 41.2789 14.4901 41.2875 24.6479 31.1746C29.7268 26.0922 36.7505 22.9492 44.5034 22.9492C60.0006 22.9579 72.5547 35.4778 72.5547 50.9329C72.5547 66.388 60.0006 78.8992 44.5034 78.8992C36.7331 78.8992 29.7095 75.7476 24.6306 70.6652C14.4814 60.5696 6.06863 60.5782 -4.0892 70.7085C-9.16812 75.7736 -16.1831 78.8992 -23.9274 78.8992C-39.4159 78.8992 -51.9699 66.3793 -51.9699 50.9329C-51.9699 35.4865 -39.4159 22.9579 -23.9274 22.9579Z" fill="url(#paint3_linear_5594_78782)"/>
</g>
</g>

</svg>
