<svg width="96" height="96" viewBox="0 0 96 96" xmlns="http://www.w3.org/2000/svg">
  <defs>
<radialGradient id="paint0_radial_5481_122547" cx="0" cy="0" r="1" gradientUnits="userSpaceOnUse" gradientTransform="translate(85.5714 63.1124) rotate(90) scale(138.607)">
<stop offset="0.0885417" stop-color="#EB1000"/>
<stop offset="1" stop-color="#EB1000" stop-opacity="0"/>
</radialGradient>
<linearGradient id="paint1_linear_5481_122547" x1="69.4617" y1="-3.08825" x2="13.8656" y2="68.9935" gradientUnits="userSpaceOnUse">
<stop stop-color="#FF4885"/>
<stop offset="1" stop-color="#FF4885" stop-opacity="0"/>
</linearGradient>
<linearGradient id="paint2_linear_5481_122547" x1="35.5898" y1="-36.2716" x2="46.3146" y2="32.3671" gradientUnits="userSpaceOnUse">
<stop offset="0.15625" stop-color="#7A6AFD"/>
<stop offset="1" stop-color="#7A6AFD" stop-opacity="0"/>
</linearGradient>
<linearGradient id="paint3_linear_5481_122547" x1="-88.1609" y1="101.725" x2="92.2907" y2="66.0615" gradientUnits="userSpaceOnUse">
<stop stop-color="#30A7FE" stop-opacity="0"/>
<stop offset="0.432292" stop-color="#30A7FE" stop-opacity="0.994652"/>
<stop offset="0.609375" stop-color="#30A7FE"/>
<stop offset="1" stop-color="#30A7FE" stop-opacity="0"/>
</linearGradient>
<clipPath id="clip0_5481_122547">
<rect width="96" height="96" rx="10" fill="white"/>
</clipPath>
</defs>
<clipPath id="mask0_5481_122547">
<path fill-rule="evenodd" d="M18.5264 30.3785L46.4861 18.9572C47.4556 18.5611 48.5418 18.5611 49.5113 18.9572L77.471 30.3785C80.7874 31.7333 80.7874 36.4297 77.4709 37.7844L73.5685 39.3786L73.5685 52.4472C73.5685 54.1093 73.124 56.5202 71.4316 59.0409C69.7354 61.5673 66.8634 64.089 62.1897 66.092C58.4339 67.7016 54.0905 68.3245 50.2846 68.466C46.4722 68.6077 43.0302 68.2718 40.9932 67.8524C39.9113 67.6297 39.2148 66.5721 39.4376 65.4902C39.6603 64.4083 40.7179 63.7118 41.7998 63.9346C43.4796 64.2804 46.5968 64.6004 50.136 64.4688C53.6818 64.337 57.4828 63.7574 60.614 62.4154C64.7029 60.663 66.9142 58.5934 68.1107 56.8112C69.311 55.0235 69.5685 53.4088 69.5685 52.4472V41.0125L49.5113 49.2058C48.5418 49.6018 47.4556 49.6018 46.4861 49.2058L33.3539 43.8414C33.8641 43.1225 34.5348 42.513 35.3323 42.07L48.9271 34.5173C49.8927 33.9809 50.2406 32.7633 49.7042 31.7977C49.1677 30.8321 47.9501 30.4842 46.9846 31.0207L33.3897 38.5733C31.7811 39.467 30.4821 40.767 29.5919 42.3046L18.5264 37.7844C15.2099 36.4297 15.2099 31.7333 18.5264 30.3785ZM28.2462 63.8449V47.3149C28.2462 45.5235 28.7253 43.8015 29.5919 42.3046L33.3539 43.8414C32.6454 44.8394 32.2462 46.0482 32.2462 47.3149V63.4131C33.9335 66.2954 35.759 70.1476 36.0989 73.3857C36.1317 73.6153 36.1488 73.8495 36.1491 74.0875L36.1493 74.0927H36.1491V74.0928C36.1491 76.9908 33.6529 79.3401 30.5738 79.3401C27.4947 79.3401 24.9985 76.9908 24.9985 74.0928C24.9985 73.8964 25.01 73.7025 25.0323 73.5118C25.2902 70.4064 26.7923 66.7112 28.2462 63.8449Z" fill="white"/>
</clipPath>
<g clip-path="url(#mask0_5481_122547)">
<g clip-path="url(#clip0_5481_122547)">
<rect width="96" height="96" rx="10" fill="#D9F4FD"/>
<circle cx="85.5714" cy="63.1124" r="138.607" fill="url(#paint0_radial_5481_122547)"/>
<path d="M-8.63919 30.067C-10.18 -3.11477 15.4702 -31.263 48.652 -32.8037C81.8337 -34.3445 109.982 -8.69438 111.523 24.4874C113.063 57.6692 87.4133 85.8174 54.2316 87.3582C21.0498 88.8989 -7.09842 63.2488 -8.63919 30.067Z" fill="url(#paint1_linear_5481_122547)"/>
<path d="M24.2526 -66.43C16.7672 -71.0619 7.28331 -71.0903 -0.22988 -66.5032L-75.3753 -20.6218C-82.7348 -16.1282 -82.7471 -5.52169 -75.3976 -1.01111L-0.748691 44.8052C6.75324 49.4089 16.2372 49.4034 23.7327 44.7888L98.2278 -1.0704C105.538 -5.57135 105.552 -16.1186 98.2501 -20.6366L24.2526 -66.43Z" fill="url(#paint2_linear_5481_122547)"/>
<path d="M-47.8586 45.9177C-32.3701 45.9177 -18.3401 52.1863 -8.18231 62.2992C12.1334 82.5597 28.9763 82.577 49.2919 62.3512C59.4498 52.1863 73.4971 45.9004 89.003 45.9004C119.997 45.9177 145.105 70.9575 145.105 101.868C145.105 132.778 119.997 157.8 89.003 157.8C73.4624 157.8 59.415 151.497 49.2572 141.332C28.9589 121.141 12.1334 121.158 -8.18231 141.419C-18.3401 151.549 -32.3701 157.8 -47.8586 157.8C-78.8357 157.8 -103.944 132.761 -103.944 101.868C-103.944 70.9749 -78.8357 45.9177 -47.8586 45.9177Z" fill="url(#paint3_linear_5481_122547)"/>
</g>
</g>

</svg>
