<svg width="160" height="160" viewBox="0 0 160 160" xmlns="http://www.w3.org/2000/svg">
  <defs>
<radialGradient id="paint0_radial_5481_122258" cx="0" cy="0" r="1" gradientUnits="userSpaceOnUse" gradientTransform="translate(142.62 105.187) rotate(90) scale(231.011)">
<stop offset="0.0885417" stop-color="#EB1000"/>
<stop offset="1" stop-color="#EB1000" stop-opacity="0"/>
</radialGradient>
<linearGradient id="paint1_linear_5481_122258" x1="115.768" y1="-5.14512" x2="23.108" y2="114.991" gradientUnits="userSpaceOnUse">
<stop stop-color="#FF4885"/>
<stop offset="1" stop-color="#FF4885" stop-opacity="0"/>
</linearGradient>
<linearGradient id="paint2_linear_5481_122258" x1="59.3137" y1="-60.4521" x2="77.1884" y2="53.9458" gradientUnits="userSpaceOnUse">
<stop offset="0.15625" stop-color="#7A6AFD"/>
<stop offset="1" stop-color="#7A6AFD" stop-opacity="0"/>
</linearGradient>
<linearGradient id="paint3_linear_5481_122258" x1="-146.934" y1="169.541" x2="153.819" y2="110.102" gradientUnits="userSpaceOnUse">
<stop stop-color="#30A7FE" stop-opacity="0"/>
<stop offset="0.432292" stop-color="#30A7FE" stop-opacity="0.994652"/>
<stop offset="0.609375" stop-color="#30A7FE"/>
<stop offset="1" stop-color="#30A7FE" stop-opacity="0"/>
</linearGradient>
<clipPath id="clip0_5481_122258">
<rect width="160" height="160" rx="10" fill="white"/>
</clipPath>
</defs>
<clipPath id="mask0_5481_122258">
<path fill-rule="evenodd" d="M34.8994 81.1483V115.768C34.8994 124.604 42.0629 131.768 50.8994 131.768H62.6034L62.5983 81.0169C58.0874 80.25 54.1349 77.8368 51.3907 74.4159C48.034 78.6004 42.8693 81.2772 37.086 81.2772C36.3462 81.2772 35.6165 81.2334 34.8994 81.1483ZM70.5983 80.6149L70.601 107.533H124.919V81.169C124.261 81.2405 123.592 81.2772 122.914 81.2772C117.131 81.2772 111.966 78.6004 108.61 74.4159C105.253 78.6004 100.088 81.2772 94.3049 81.2772C88.5217 81.2772 83.3569 78.6004 80.0002 74.4159C77.6288 77.3721 74.355 79.5758 70.5983 80.6149ZM65.6955 73.2772C59.9896 73.2772 55.3907 68.6739 55.3907 63.0284V62.3241C55.3907 60.1149 53.5999 58.3241 51.3907 58.3241C49.1816 58.3241 47.3907 60.1149 47.3907 62.3241V63.0284C47.3907 68.6739 42.7919 73.2772 37.086 73.2772C31.3801 73.2772 26.7812 68.6739 26.7812 63.0284C26.7812 59.9424 27.4528 56.8939 28.755 54.0986L28.756 54.0964L37.5664 35.1539L37.5669 35.1529L37.5673 35.1521C38.3952 33.3765 40.1859 32.2324 42.167 32.2324H117.847C119.829 32.2324 121.62 33.3773 122.448 35.1539L131.123 53.8062C131.159 53.9034 131.199 53.9996 131.244 54.0945C132.544 56.8952 133.219 59.9456 133.219 63.0284C133.219 68.6739 128.62 73.2772 122.914 73.2772C117.209 73.2772 112.61 68.6739 112.61 63.0284V62.3241C112.61 60.1149 110.819 58.3241 108.61 58.3241C106.401 58.3241 104.61 60.1149 104.61 62.3241V63.0284C104.61 68.6739 100.011 73.2772 94.3049 73.2772C88.5991 73.2772 84.0002 68.6739 84.0002 63.0284V62.3241C84.0002 60.1149 82.2093 58.3241 80.0002 58.3241C77.7911 58.3241 76.0002 60.1149 76.0002 62.3241V63.0284C76.0002 68.6739 71.4013 73.2772 65.6955 73.2772ZM70.6018 115.533H124.919V115.768C124.919 124.604 117.756 131.768 108.919 131.768H70.6034L70.6018 115.533Z" fill="white"/>
</clipPath>
<g clip-path="url(#mask0_5481_122258)">
<g clip-path="url(#clip0_5481_122258)">
<rect width="160" height="160" rx="10" fill="#D9F4FD"/>
<circle cx="142.62" cy="105.187" r="231.011" fill="url(#paint0_radial_5481_122258)"/>
<path d="M-14.3999 50.1137C-16.9679 -5.18932 25.7823 -52.103 81.0853 -54.6709C136.388 -57.2388 183.302 -14.4887 185.87 40.8143C188.438 96.1173 145.688 143.031 90.3846 145.599C35.0817 148.167 -11.832 105.417 -14.3999 50.1137Z" fill="url(#paint1_linear_5481_122258)"/>
<path d="M40.4184 -110.716C27.9428 -118.436 12.1362 -118.483 -0.385738 -110.838L-125.628 -34.3691C-137.894 -26.8797 -137.914 -9.20217 -125.665 -1.68455L-1.25042 74.676C11.2528 82.3487 27.0594 82.3396 39.5518 74.6486L163.71 -1.78335C175.895 -9.28493 175.917 -26.8637 163.748 -34.3936L40.4184 -110.716Z" fill="url(#paint2_linear_5481_122258)"/>
<path d="M-79.7631 76.5289C-53.9489 76.5289 -30.5656 86.9766 -13.6359 103.831C20.2235 137.599 48.2951 137.628 82.1545 103.918C99.0842 86.9766 122.496 76.5 148.34 76.5C199.997 76.5289 241.844 118.262 241.844 169.779C241.844 221.296 199.997 263 148.34 263C122.439 263 99.0263 252.495 82.0966 235.553C48.2661 201.901 20.2235 201.93 -13.6359 235.697C-30.5656 252.581 -53.9489 263 -79.7631 263C-131.392 263 -173.238 221.267 -173.238 169.779C-173.238 118.291 -131.392 76.5289 -79.7631 76.5289Z" fill="url(#paint3_linear_5481_122258)"/>
</g>
</g>

</svg>
