<svg width="48" height="48" viewBox="0 0 48 48" xmlns="http://www.w3.org/2000/svg">
  <defs>
<radialGradient id="paint0_radial_5481_122361" cx="0" cy="0" r="1" gradientUnits="userSpaceOnUse" gradientTransform="translate(42.7877 31.5552) rotate(90) scale(69.3033)">
<stop offset="0.0885417" stop-color="#EB1000"/>
<stop offset="1" stop-color="#EB1000" stop-opacity="0"/>
</radialGradient>
<linearGradient id="paint1_linear_5481_122361" x1="34.7309" y1="-1.54315" x2="6.93278" y2="34.4977" gradientUnits="userSpaceOnUse">
<stop stop-color="#FF4885"/>
<stop offset="1" stop-color="#FF4885" stop-opacity="0"/>
</linearGradient>
<linearGradient id="paint2_linear_5481_122361" x1="17.7929" y1="-18.1348" x2="23.1553" y2="16.1845" gradientUnits="userSpaceOnUse">
<stop offset="0.15625" stop-color="#7A6AFD"/>
<stop offset="1" stop-color="#7A6AFD" stop-opacity="0"/>
</linearGradient>
<linearGradient id="paint3_linear_5481_122361" x1="-44.0785" y1="50.8616" x2="46.1473" y2="33.0298" gradientUnits="userSpaceOnUse">
<stop stop-color="#30A7FE" stop-opacity="0"/>
<stop offset="0.432292" stop-color="#30A7FE" stop-opacity="0.994652"/>
<stop offset="0.609375" stop-color="#30A7FE"/>
<stop offset="1" stop-color="#30A7FE" stop-opacity="0"/>
</linearGradient>
<clipPath id="clip0_5481_122361">
<rect width="48" height="48" rx="10" fill="white"/>
</clipPath>
</defs>
<clipPath id="mask0_5481_122361">
<path fill-rule="evenodd" d="M34.2098 36.8338C31.4011 39.0491 27.8549 40.3711 24 40.3711C20.1606 40.3711 16.6275 39.0597 13.8241 36.8605C13.9172 36.7621 13.9959 36.6467 14.0549 36.5162C15.7746 32.7153 19.6095 30.0557 24.0012 30.0557C28.3557 30.0557 32.1636 32.6735 33.9042 36.4234C33.9792 36.585 34.0844 36.723 34.2098 36.8338ZM36.0588 35.1334C33.88 30.6715 29.2835 27.5557 24.0012 27.5557C18.7185 27.5557 14.1209 30.6692 11.9423 35.1344C9.18666 32.1857 7.5 28.2254 7.5 23.8711C7.5 14.7584 14.8873 7.37109 24 7.37109C33.1127 7.37109 40.5 14.7584 40.5 23.8711C40.5 28.2248 38.8138 32.1848 36.0588 35.1334ZM19.207 18.8463C19.207 15.9047 21.4267 13.6572 24.0008 13.6572C26.575 13.6572 28.7947 15.9047 28.7947 18.8463C28.7947 21.7879 26.575 24.0353 24.0008 24.0353C21.4267 24.0353 19.207 21.7879 19.207 18.8463ZM24.0008 11.1572C19.8992 11.1572 16.707 14.6755 16.707 18.8463C16.707 23.017 19.8992 26.5353 24.0008 26.5353C28.1025 26.5353 31.2947 23.017 31.2947 18.8463C31.2947 14.6755 28.1025 11.1572 24.0008 11.1572Z" fill="white"/>
</clipPath>
<g clip-path="url(#mask0_5481_122361)">
<g clip-path="url(#clip0_5481_122361)">
<rect width="48" height="48" rx="10" fill="#D9F4FD"/>
<circle cx="42.7877" cy="31.5552" r="69.3033" fill="url(#paint0_radial_5481_122361)"/>
<path d="M-4.31959 15.0345C-5.08998 -1.55641 7.73508 -15.6305 24.326 -16.4009C40.9169 -17.1713 54.991 -4.34621 55.7613 12.2447C56.5317 28.8356 43.7067 42.9097 27.1158 43.6801C10.5249 44.4504 -3.54921 31.6254 -4.31959 15.0345Z" fill="url(#paint1_linear_5481_122361)"/>
<path d="M12.1243 -33.214C8.38167 -35.53 3.6397 -35.5442 -0.116893 -33.2506L-37.6896 -10.3099C-41.3694 -8.06314 -41.3755 -2.75987 -37.7007 -0.504581L-0.376298 22.4036C3.37467 24.7054 8.11665 24.7027 11.8644 22.3954L49.1119 -0.534222C52.7672 -2.7847 52.7739 -8.05833 49.1231 -10.3173L12.1243 -33.214Z" fill="url(#paint2_linear_5481_122361)"/>
<path d="M-23.9274 22.9579C-16.1831 22.9579 -9.16812 26.0922 -4.0892 31.1486C6.06863 41.2789 14.4901 41.2875 24.6479 31.1746C29.7268 26.0922 36.7505 22.9492 44.5034 22.9492C60.0006 22.9579 72.5547 35.4778 72.5547 50.9329C72.5547 66.388 60.0006 78.8992 44.5034 78.8992C36.7331 78.8992 29.7095 75.7476 24.6306 70.6652C14.4814 60.5696 6.06863 60.5782 -4.0892 70.7085C-9.16812 75.7736 -16.1831 78.8992 -23.9274 78.8992C-39.4159 78.8992 -51.9699 66.3793 -51.9699 50.9329C-51.9699 35.4865 -39.4159 22.9579 -23.9274 22.9579Z" fill="url(#paint3_linear_5481_122361)"/>
</g>
</g>

</svg>
