<svg width="160" height="160" viewBox="0 0 160 160" xmlns="http://www.w3.org/2000/svg">
  <defs>
<radialGradient id="paint0_radial_5481_122110" cx="0" cy="0" r="1" gradientUnits="userSpaceOnUse" gradientTransform="translate(134.99 101.37) rotate(90) scale(188.091 199.529)">
<stop offset="0.0885417" stop-color="#EB1000"/>
<stop offset="1" stop-color="#EB1000" stop-opacity="0"/>
</radialGradient>
<linearGradient id="paint1_linear_5481_122110" x1="111.795" y1="11.5372" x2="37.5931" y2="113.592" gradientUnits="userSpaceOnUse">
<stop stop-color="#FF4885"/>
<stop offset="1" stop-color="#FF4885" stop-opacity="0"/>
</linearGradient>
<linearGradient id="paint2_linear_5481_122110" x1="63.038" y1="-33.4937" x2="76.7939" y2="59.8977" gradientUnits="userSpaceOnUse">
<stop offset="0.15625" stop-color="#7A6AFD"/>
<stop offset="1" stop-color="#7A6AFD" stop-opacity="0"/>
</linearGradient>
<linearGradient id="paint3_linear_5481_122110" x1="-115.103" y1="153.768" x2="143.445" y2="99.563" gradientUnits="userSpaceOnUse">
<stop stop-color="#30A7FE" stop-opacity="0"/>
<stop offset="0.432292" stop-color="#30A7FE" stop-opacity="0.994652"/>
<stop offset="0.609375" stop-color="#30A7FE"/>
<stop offset="1" stop-color="#30A7FE" stop-opacity="0"/>
</linearGradient>
<clipPath id="clip0_5481_122110">
<rect x="11.8047" y="15.7266" width="138.195" height="130.273" rx="10" fill="white"/>
</clipPath>
</defs>
<clipPath id="mask0_5481_122110">
<path fill-rule="evenodd" d="M138.276 39.1841C139.92 38.8139 141.478 39.0218 142.81 39.6303L39.1567 93.45C38.8309 93.6192 38.5381 93.827 38.281 94.0648L16.0897 78.8837C10.9725 75.3831 12.4978 67.5085 18.5574 66.1439L138.276 39.1841ZM94.8286 132.749L45.639 99.0984L146.843 46.55C146.893 46.5244 146.941 46.4979 146.989 46.4705C146.936 47.3994 146.691 48.3489 146.221 49.2767L105.241 130.102C103.296 133.937 98.3894 135.185 94.8286 132.749ZM41 131.316V105.934L64.4919 121.94L48.9616 134.864C45.8346 137.466 41 135.311 41 131.316Z" fill="white"/>
</clipPath>
<g clip-path="url(#mask0_5481_122110)">
<g clip-path="url(#clip0_5481_122110)">
<rect x="11.8047" y="15.7266" width="138.195" height="130.273" rx="10" fill="#D9F4FD"/>
<ellipse cx="134.99" cy="101.37" rx="199.529" ry="188.091" fill="url(#paint0_radial_5481_122110)"/>
<path d="M-0.633654 56.5293C-2.85164 11.5012 34.0726 -26.6963 81.8388 -28.7871C129.605 -30.8779 170.125 3.92959 172.343 48.9577C174.561 93.9858 137.637 132.183 89.8709 134.274C42.1046 136.365 1.58433 101.557 -0.633654 56.5293Z" fill="url(#paint1_linear_5481_122110)"/>
<path d="M46.7178 -74.419C35.9424 -80.7046 22.2899 -80.7431 11.4744 -74.5183L-96.6999 -12.2567C-107.294 -6.15888 -107.312 8.23433 -96.732 14.3552L10.7276 76.5286C21.5269 82.7758 35.1794 82.7683 45.9693 76.5063L153.207 14.2748C163.731 8.16695 163.751 -6.14582 153.24 -12.2767L46.7178 -74.419Z" fill="url(#paint2_linear_5481_122110)"/>
<path d="M-57.0868 78.0372C-34.7906 78.0372 -14.594 86.5438 0.0285373 100.267C29.2736 127.761 53.5195 127.784 82.7646 100.338C97.3872 86.5438 117.609 78.0137 139.93 78.0137C184.547 78.0372 220.691 112.017 220.691 153.962C220.691 195.907 184.547 229.863 139.93 229.863C117.559 229.863 97.3372 221.31 82.7146 207.516C53.4945 180.116 29.2736 180.14 0.0285373 207.633C-14.594 221.38 -34.7906 229.863 -57.0868 229.863C-101.679 229.863 -137.823 195.884 -137.823 153.962C-137.823 112.04 -101.679 78.0372 -57.0868 78.0372Z" fill="url(#paint3_linear_5481_122110)"/>
</g>
</g>

</svg>
