<svg width="160" height="160" viewBox="0 0 160 160" xmlns="http://www.w3.org/2000/svg">
  <defs>
<radialGradient id="paint0_radial_5481_122267" cx="0" cy="0" r="1" gradientUnits="userSpaceOnUse" gradientTransform="translate(142.62 105.187) rotate(90) scale(231.011)">
<stop offset="0.0885417" stop-color="#EB1000"/>
<stop offset="1" stop-color="#EB1000" stop-opacity="0"/>
</radialGradient>
<linearGradient id="paint1_linear_5481_122267" x1="115.768" y1="-5.14512" x2="23.108" y2="114.991" gradientUnits="userSpaceOnUse">
<stop stop-color="#FF4885"/>
<stop offset="1" stop-color="#FF4885" stop-opacity="0"/>
</linearGradient>
<linearGradient id="paint2_linear_5481_122267" x1="59.3137" y1="-60.4521" x2="77.1884" y2="53.9458" gradientUnits="userSpaceOnUse">
<stop offset="0.15625" stop-color="#7A6AFD"/>
<stop offset="1" stop-color="#7A6AFD" stop-opacity="0"/>
</linearGradient>
<linearGradient id="paint3_linear_5481_122267" x1="-146.934" y1="169.541" x2="153.819" y2="110.102" gradientUnits="userSpaceOnUse">
<stop stop-color="#30A7FE" stop-opacity="0"/>
<stop offset="0.432292" stop-color="#30A7FE" stop-opacity="0.994652"/>
<stop offset="0.609375" stop-color="#30A7FE"/>
<stop offset="1" stop-color="#30A7FE" stop-opacity="0"/>
</linearGradient>
<clipPath id="clip0_5481_122267">
<rect width="160" height="160" rx="10" fill="white"/>
</clipPath>
</defs>
<clipPath id="mask0_5481_122267">
<path fill-rule="evenodd" d="M30.6723 84.4786L30.672 84.4779L30.6718 84.4777C30.6582 84.4513 30.6439 84.4252 30.6291 84.3995C28.3834 80.5033 28.9717 76.296 32.0679 73.9699C35.2819 71.5552 39.83 72.176 42.2844 75.3668L42.2845 75.3669L52.2365 88.3083C52.7586 88.9872 53.655 89.2583 54.4658 88.9826C55.2767 88.7069 55.8219 87.9455 55.8219 87.0891V43.8783C55.8219 39.4885 59.3626 35.9451 63.7138 35.9451C68.065 35.9451 71.6057 39.4885 71.6057 43.8783V71.6693C71.6057 72.7738 72.5011 73.6693 73.6057 73.6693H73.6258C74.7303 73.6693 75.6258 72.7738 75.6258 71.6693V34.152C75.6258 29.7622 79.1664 26.2188 83.5176 26.2188C87.8688 26.2188 91.4095 29.7622 91.4095 34.152V71.6743C91.4095 72.7789 92.3049 73.6743 93.4095 73.6743H93.4296C94.5342 73.6743 95.4296 72.7789 95.4296 71.6743V38.8562C95.4296 34.4664 98.9703 30.9229 103.321 30.9229C107.678 30.9229 111.218 34.467 111.218 38.8562V74.1475C111.218 75.2088 112.047 76.0853 113.107 76.1444C114.166 76.2036 115.088 75.4248 115.206 74.3702L116.151 65.9335L117.096 57.4967L117.099 57.4689C117.56 52.7595 121.745 50.4062 125.617 51.1666C128.684 51.7691 131.138 54.5161 130.673 59.048L126.474 88.4079C126.445 88.4967 126.421 88.5886 126.404 88.683C123.028 107.438 117.483 118.628 110.457 125.153C103.486 131.628 94.7586 133.781 84.3319 133.781C77.5753 133.781 70.8508 130.874 64.4663 126.285C58.0925 121.704 52.2069 115.553 47.1723 109.332C42.1452 103.12 38.0141 96.8974 35.1378 92.2225C33.7009 89.8871 32.5803 87.943 31.8207 86.5861C31.4409 85.9078 31.1516 85.3765 30.9582 85.0169C30.8615 84.8371 30.7889 84.7002 30.7409 84.6094L30.6876 84.508L30.6751 84.4839L30.6723 84.4786Z" fill="white"/>
</clipPath>
<g clip-path="url(#mask0_5481_122267)">
<g clip-path="url(#clip0_5481_122267)">
<rect width="160" height="160" rx="10" fill="#D9F4FD"/>
<circle cx="142.62" cy="105.187" r="231.011" fill="url(#paint0_radial_5481_122267)"/>
<path d="M-14.3999 50.1137C-16.9679 -5.18932 25.7823 -52.103 81.0853 -54.6709C136.388 -57.2388 183.302 -14.4887 185.87 40.8143C188.438 96.1173 145.688 143.031 90.3846 145.599C35.0817 148.167 -11.832 105.417 -14.3999 50.1137Z" fill="url(#paint1_linear_5481_122267)"/>
<path d="M40.4184 -110.716C27.9428 -118.436 12.1362 -118.483 -0.385738 -110.838L-125.628 -34.3691C-137.894 -26.8797 -137.914 -9.20217 -125.665 -1.68455L-1.25042 74.676C11.2528 82.3487 27.0594 82.3396 39.5518 74.6486L163.71 -1.78335C175.895 -9.28493 175.917 -26.8637 163.748 -34.3936L40.4184 -110.716Z" fill="url(#paint2_linear_5481_122267)"/>
<path d="M-79.7631 76.5289C-53.9489 76.5289 -30.5656 86.9766 -13.6359 103.831C20.2235 137.599 48.2951 137.628 82.1545 103.918C99.0842 86.9766 122.496 76.5 148.34 76.5C199.997 76.5289 241.844 118.262 241.844 169.779C241.844 221.296 199.997 263 148.34 263C122.439 263 99.0263 252.495 82.0966 235.553C48.2661 201.901 20.2235 201.93 -13.6359 235.697C-30.5656 252.581 -53.9489 263 -79.7631 263C-131.392 263 -173.238 221.267 -173.238 169.779C-173.238 118.291 -131.392 76.5289 -79.7631 76.5289Z" fill="url(#paint3_linear_5481_122267)"/>
</g>
</g>

</svg>
