<svg width="96" height="96" viewBox="0 0 96 96" xmlns="http://www.w3.org/2000/svg">
  <defs>
<radialGradient id="paint0_radial_5481_122475" cx="0" cy="0" r="1" gradientUnits="userSpaceOnUse" gradientTransform="translate(81.0167 60.3839) rotate(90) scale(127.345)">
<stop offset="0.0885417" stop-color="#EB1000"/>
<stop offset="1" stop-color="#EB1000" stop-opacity="0"/>
</radialGradient>
<linearGradient id="paint1_linear_5481_122475" x1="66.2152" y1="-0.436856" x2="15.1362" y2="65.7883" gradientUnits="userSpaceOnUse">
<stop stop-color="#FF4885"/>
<stop offset="1" stop-color="#FF4885" stop-opacity="0"/>
</linearGradient>
<linearGradient id="paint2_linear_5481_122475" x1="35.0975" y1="-30.9238" x2="44.9509" y2="32.138" gradientUnits="userSpaceOnUse">
<stop offset="0.15625" stop-color="#7A6AFD"/>
<stop offset="1" stop-color="#7A6AFD" stop-opacity="0"/>
</linearGradient>
<linearGradient id="paint3_linear_5481_122475" x1="-78.5987" y1="95.8592" x2="87.1913" y2="63.0934" gradientUnits="userSpaceOnUse">
<stop stop-color="#30A7FE" stop-opacity="0"/>
<stop offset="0.432292" stop-color="#30A7FE" stop-opacity="0.994652"/>
<stop offset="0.609375" stop-color="#30A7FE"/>
<stop offset="1" stop-color="#30A7FE" stop-opacity="0"/>
</linearGradient>
<clipPath id="clip0_5481_122475">
<rect x="2.39844" y="2.40039" width="88.2" height="88.2" rx="10" fill="white"/>
</clipPath>
</defs>
<clipPath id="mask0_5481_122475">
<path fill-rule="evenodd" d="M31.0455 13.1602H47.488C49.1745 13.1602 50.7919 13.8301 51.9844 15.0226L69.4555 32.4937C70.648 33.6862 71.318 35.3036 71.318 36.9901V61.911C71.318 65.4229 68.471 68.2698 64.9592 68.2698H31.0455C27.5337 68.2698 24.6867 65.4229 24.6867 61.911V19.519C24.6867 16.0071 27.5337 13.1602 31.0455 13.1602ZM49.6456 31.5353C49.6482 30.3647 48.7013 29.4136 47.5307 29.411C46.3601 29.4084 45.409 30.3552 45.4064 31.5259L45.3595 52.5154L38.1936 46.816C37.2775 46.0873 35.944 46.2393 35.2153 47.1555C34.4867 48.0717 34.6386 49.4051 35.5548 50.1338L46.2304 58.6247C47.0072 59.2425 48.1087 59.2386 48.8811 58.6152L59.4015 50.1243C60.3124 49.3891 60.4549 48.0546 59.7197 47.1437C58.9844 46.2327 57.65 46.0903 56.739 46.8255L49.5985 52.5885L49.6456 31.5353ZM13.4416 45.3146C13.4416 44.2542 14.3012 43.3946 15.3616 43.3946H18.8902C19.9506 43.3946 20.8102 42.535 20.8102 41.4746C20.8102 40.4142 19.9506 39.5546 18.8902 39.5546H15.3616C12.1804 39.5546 9.60156 42.1334 9.60156 45.3146V48.6357C9.60156 49.696 10.4612 50.5557 11.5216 50.5557C12.5819 50.5557 13.4416 49.696 13.4416 48.6357V45.3146ZM77.1129 39.5546C76.0525 39.5546 75.1929 40.4142 75.1929 41.4746C75.1929 42.535 76.0525 43.3946 77.1129 43.3946H80.6416C81.702 43.3946 82.5616 44.2542 82.5616 45.3146V48.6357C82.5616 49.696 83.4212 50.5557 84.4816 50.5557C85.542 50.5557 86.4016 49.696 86.4016 48.6357V45.3146C86.4016 42.1334 83.8227 39.5546 80.6416 39.5546H77.1129ZM86.4016 57.3535C86.4016 56.2931 85.542 55.4335 84.4816 55.4335C83.4212 55.4335 82.5616 56.2931 82.5616 57.3535V63.9957C82.5616 65.056 83.4212 65.9157 84.4816 65.9157C85.542 65.9157 86.4016 65.056 86.4016 63.9957V57.3535ZM13.4416 57.3535C13.4416 56.2931 12.5819 55.4335 11.5216 55.4335C10.4612 55.4335 9.60156 56.2931 9.60156 57.3535V63.9957C9.60156 65.056 10.4612 65.9157 11.5216 65.9157C12.5819 65.9157 13.4416 65.056 13.4416 63.9957V57.3535ZM13.4416 72.7135C13.4416 71.6531 12.5819 70.7935 11.5216 70.7935C10.4612 70.7935 9.60156 71.6531 9.60156 72.7135V76.0346C9.60156 79.2157 12.1804 81.7946 15.3616 81.7946H18.8902C19.9506 81.7946 20.8102 80.935 20.8102 79.8746C20.8102 78.8142 19.9506 77.9546 18.8902 77.9546H15.3616C14.3012 77.9546 13.4416 77.095 13.4416 76.0346V72.7135ZM86.4016 72.7135C86.4016 71.6531 85.542 70.7935 84.4816 70.7935C83.4212 70.7935 82.5616 71.6531 82.5616 72.7135V76.0346C82.5616 77.095 81.702 77.9546 80.6416 77.9546H77.1129C76.0525 77.9546 75.1929 78.8142 75.1929 79.8746C75.1929 80.935 76.0525 81.7946 77.1129 81.7946H80.6416C83.8227 81.7946 86.4016 79.2157 86.4016 76.0346V72.7135ZM28.1529 77.9546C27.0925 77.9546 26.2329 78.8142 26.2329 79.8746C26.2329 80.935 27.0925 81.7946 28.1529 81.7946H35.2102C36.2706 81.7946 37.1302 80.935 37.1302 79.8746C37.1302 78.8142 36.2706 77.9546 35.2102 77.9546H28.1529ZM44.4729 77.9546C43.4125 77.9546 42.5529 78.8142 42.5529 79.8746C42.5529 80.935 43.4125 81.7946 44.4729 81.7946H51.5302C52.5906 81.7946 53.4502 80.935 53.4502 79.8746C53.4502 78.8142 52.5906 77.9546 51.5302 77.9546H44.4729ZM60.7929 77.9546C59.7325 77.9546 58.8729 78.8142 58.8729 79.8746C58.8729 80.935 59.7325 81.7946 60.7929 81.7946H67.8502C68.9106 81.7946 69.7702 80.935 69.7702 79.8746C69.7702 78.8142 68.9106 77.9546 67.8502 77.9546H60.7929Z" fill="white"/>
</clipPath>
<g clip-path="url(#mask0_5481_122475)">
<g clip-path="url(#clip0_5481_122475)">
<rect x="2.39844" y="2.40039" width="88.2" height="88.2" rx="10" fill="#D9F4FD"/>
<circle cx="81.0167" cy="60.3839" r="127.345" fill="url(#paint0_radial_5481_122475)"/>
<path d="M-5.53999 30.0246C-6.95557 -0.461216 16.6105 -26.3224 47.0962 -27.7379C77.582 -29.1535 103.443 -5.58748 104.859 24.8983C106.274 55.3841 82.7083 81.2452 52.2225 82.6608C21.7367 84.0764 -4.12441 60.5103 -5.53999 30.0246Z" fill="url(#paint1_linear_5481_122475)"/>
<path d="M24.6814 -58.6318C17.8043 -62.8874 9.09088 -62.9135 2.18814 -58.6991L-66.8517 -16.5456C-73.6133 -12.4171 -73.6246 -2.67233 -66.8722 1.47176L1.71149 43.5655C8.60389 47.7951 17.3173 47.7901 24.2037 43.5504L92.6461 1.41729C99.3628 -2.71796 99.375 -12.4083 92.6666 -16.5591L24.6814 -58.6318Z" fill="url(#paint2_linear_5481_122475)"/>
<path d="M-41.5709 44.5862C-27.3409 44.5862 -14.4508 50.3455 -5.11832 59.6367C13.5467 78.251 29.0211 78.2669 47.6861 59.6845C57.0186 50.3455 69.9246 44.5703 84.1707 44.5703C112.647 44.5862 135.715 67.5916 135.715 95.9903C135.715 124.389 112.647 147.378 84.1707 147.378C69.8927 147.378 56.9867 141.587 47.6542 132.248C29.0052 113.698 13.5467 113.714 -5.11832 132.328C-14.4508 141.635 -27.3409 147.378 -41.5709 147.378C-70.0311 147.378 -93.0992 124.373 -93.0992 95.9903C-93.0992 67.6075 -70.0311 44.5862 -41.5709 44.5862Z" fill="url(#paint3_linear_5481_122475)"/>
</g>
</g>

</svg>
