<svg width="160" height="160" viewBox="0 0 160 160" xmlns="http://www.w3.org/2000/svg">
  <defs>
<radialGradient id="paint0_radial_5481_122239" cx="0" cy="0" r="1" gradientUnits="userSpaceOnUse" gradientTransform="translate(142.62 105.187) rotate(90) scale(231.011)">
<stop offset="0.0885417" stop-color="#EB1000"/>
<stop offset="1" stop-color="#EB1000" stop-opacity="0"/>
</radialGradient>
<linearGradient id="paint1_linear_5481_122239" x1="115.768" y1="-5.14512" x2="23.108" y2="114.991" gradientUnits="userSpaceOnUse">
<stop stop-color="#FF4885"/>
<stop offset="1" stop-color="#FF4885" stop-opacity="0"/>
</linearGradient>
<linearGradient id="paint2_linear_5481_122239" x1="59.3137" y1="-60.4521" x2="77.1884" y2="53.9458" gradientUnits="userSpaceOnUse">
<stop offset="0.15625" stop-color="#7A6AFD"/>
<stop offset="1" stop-color="#7A6AFD" stop-opacity="0"/>
</linearGradient>
<linearGradient id="paint3_linear_5481_122239" x1="-146.934" y1="169.541" x2="153.819" y2="110.102" gradientUnits="userSpaceOnUse">
<stop stop-color="#30A7FE" stop-opacity="0"/>
<stop offset="0.432292" stop-color="#30A7FE" stop-opacity="0.994652"/>
<stop offset="0.609375" stop-color="#30A7FE"/>
<stop offset="1" stop-color="#30A7FE" stop-opacity="0"/>
</linearGradient>
<clipPath id="clip0_5481_122239">
<rect width="160" height="160" rx="10" fill="white"/>
</clipPath>
</defs>
<clipPath id="mask0_5481_122239">
<path fill-rule="evenodd" d="M73.8656 30.9649C70.1661 33.7825 67.5519 38.2426 66.0414 42.3881L60.6906 59.8219H88.7446C90.1995 59.8219 91.5396 60.6119 92.2442 61.8848L103.236 81.7422C110.75 74.2346 118.331 66.6624 124.045 60.9564C125.608 59.3954 128.141 59.3971 129.702 60.9603C131.263 62.5235 131.261 65.0561 129.698 66.6172C123.572 72.7343 115.301 80.9963 107.267 89.0239L119.709 111.5C120.779 113.433 120.079 115.867 118.146 116.937C116.214 118.007 113.779 117.308 112.71 115.375L101.38 94.9072L98.6611 97.6247C93.5112 102.773 88.8799 107.404 85.526 110.763C83.8488 112.442 82.4925 113.802 81.5508 114.748C81.0795 115.221 80.7147 115.588 80.4662 115.839C80.3941 115.912 80.3333 115.974 80.2835 116.025C80.2469 116.062 80.2163 116.093 80.1914 116.118L80.1676 116.143C78.7945 117.642 76.4814 117.882 74.8213 116.637C73.054 115.312 72.6958 112.804 74.0213 111.037C74.1233 110.901 74.2156 110.797 74.2281 110.783L74.2292 110.782C74.2585 110.749 74.2829 110.722 74.2959 110.708C74.3231 110.679 74.3478 110.653 74.363 110.637C74.3959 110.603 74.4334 110.564 74.4702 110.527C74.546 110.449 74.6504 110.343 74.7784 110.214C75.0361 109.953 75.4082 109.579 75.8809 109.104C76.8274 108.153 78.1876 106.79 79.8655 105.109C83.2218 101.749 87.8551 97.115 93.0053 91.9668C94.4194 90.5532 95.8725 89.1009 97.3489 87.6253L86.3868 67.8219H58.2352L36.95 137.173C36.3018 139.285 34.0643 140.472 31.9524 139.824C29.8405 139.175 28.6539 136.938 29.3021 134.826L49.8669 67.8219H37.0587C34.8495 67.8219 33.0587 66.0311 33.0587 63.8219C33.0587 61.6128 34.8495 59.8219 37.0587 59.8219H52.3223L58.4229 39.945C58.4419 39.8831 58.4624 39.8215 58.4845 39.7605C60.2913 34.7553 63.6353 28.7005 69.0183 24.6006C74.6197 20.3345 82.1254 18.4395 91.3252 21.5164C93.4203 22.2171 94.5506 24.4835 93.8499 26.5786C93.1492 28.6737 90.8828 29.804 88.7877 29.1033C82.116 26.872 77.373 28.2936 73.8656 30.9649ZM80.1424 116.169L80.1543 116.157C80.1008 116.215 80.0837 116.23 80.1424 116.169Z" fill="white"/>
</clipPath>
<g clip-path="url(#mask0_5481_122239)">
<g clip-path="url(#clip0_5481_122239)">
<rect width="160" height="160" rx="10" fill="#D9F4FD"/>
<circle cx="142.62" cy="105.187" r="231.011" fill="url(#paint0_radial_5481_122239)"/>
<path d="M-14.3999 50.1137C-16.9679 -5.18932 25.7823 -52.103 81.0853 -54.6709C136.388 -57.2388 183.302 -14.4887 185.87 40.8143C188.438 96.1173 145.688 143.031 90.3846 145.599C35.0817 148.167 -11.832 105.417 -14.3999 50.1137Z" fill="url(#paint1_linear_5481_122239)"/>
<path d="M40.4184 -110.716C27.9428 -118.436 12.1362 -118.483 -0.385738 -110.838L-125.628 -34.3691C-137.894 -26.8797 -137.914 -9.20217 -125.665 -1.68455L-1.25042 74.676C11.2528 82.3487 27.0594 82.3396 39.5518 74.6486L163.71 -1.78335C175.895 -9.28493 175.917 -26.8637 163.748 -34.3936L40.4184 -110.716Z" fill="url(#paint2_linear_5481_122239)"/>
<path d="M-79.7631 76.5289C-53.9489 76.5289 -30.5656 86.9766 -13.6359 103.831C20.2235 137.599 48.2951 137.628 82.1545 103.918C99.0842 86.9766 122.496 76.5 148.34 76.5C199.997 76.5289 241.844 118.262 241.844 169.779C241.844 221.296 199.997 263 148.34 263C122.439 263 99.0263 252.495 82.0966 235.553C48.2661 201.901 20.2235 201.93 -13.6359 235.697C-30.5656 252.581 -53.9489 263 -79.7631 263C-131.392 263 -173.238 221.267 -173.238 169.779C-173.238 118.291 -131.392 76.5289 -79.7631 76.5289Z" fill="url(#paint3_linear_5481_122239)"/>
</g>
</g>

</svg>
