<svg width="160" height="160" viewBox="0 0 160 160" xmlns="http://www.w3.org/2000/svg">
  <defs>
<radialGradient id="paint0_radial_5481_122192" cx="0" cy="0" r="1" gradientUnits="userSpaceOnUse" gradientTransform="translate(142.62 105.187) rotate(90) scale(231.011)">
<stop offset="0.0885417" stop-color="#EB1000"/>
<stop offset="1" stop-color="#EB1000" stop-opacity="0"/>
</radialGradient>
<linearGradient id="paint1_linear_5481_122192" x1="115.768" y1="-5.14512" x2="23.108" y2="114.991" gradientUnits="userSpaceOnUse">
<stop stop-color="#FF4885"/>
<stop offset="1" stop-color="#FF4885" stop-opacity="0"/>
</linearGradient>
<linearGradient id="paint2_linear_5481_122192" x1="59.3137" y1="-60.4521" x2="77.1884" y2="53.9458" gradientUnits="userSpaceOnUse">
<stop offset="0.15625" stop-color="#7A6AFD"/>
<stop offset="1" stop-color="#7A6AFD" stop-opacity="0"/>
</linearGradient>
<linearGradient id="paint3_linear_5481_122192" x1="-146.934" y1="169.541" x2="153.819" y2="110.102" gradientUnits="userSpaceOnUse">
<stop stop-color="#30A7FE" stop-opacity="0"/>
<stop offset="0.432292" stop-color="#30A7FE" stop-opacity="0.994652"/>
<stop offset="0.609375" stop-color="#30A7FE"/>
<stop offset="1" stop-color="#30A7FE" stop-opacity="0"/>
</linearGradient>
<clipPath id="clip0_5481_122192">
<rect width="160" height="160" rx="10" fill="white"/>
</clipPath>
</defs>
<clipPath id="mask0_5481_122192">
<path fill-rule="evenodd" d="M84.0005 22.5684C84.0005 20.3592 82.2096 18.5684 80.0005 18.5684C77.7913 18.5684 76.0005 20.3592 76.0005 22.5684L76.0005 137.431C76.0005 139.64 77.7913 141.431 80.0005 141.431C82.2096 141.431 84.0005 139.64 84.0005 137.431L84.0005 22.5684ZM28.25 67.3301C30.4591 67.3301 32.25 69.1209 32.25 71.3301L32.25 88.671C32.25 90.8801 30.4591 92.671 28.25 92.671C26.0409 92.671 24.25 90.8801 24.25 88.671V71.3301C24.25 69.1209 26.0409 67.3301 28.25 67.3301ZM131.75 67.3301C133.959 67.3301 135.75 69.1209 135.75 71.3301V88.671C135.75 90.8801 133.959 92.671 131.75 92.671C129.541 92.671 127.75 90.8801 127.75 88.671V71.3301C127.75 69.1209 129.541 67.3301 131.75 67.3301ZM62.75 46.4316C64.9591 46.4316 66.75 48.2225 66.75 50.4316L66.75 109.569C66.75 111.778 64.9591 113.569 62.75 113.569C60.5409 113.569 58.75 111.778 58.75 109.569L58.75 50.4316C58.75 48.2225 60.5409 46.4316 62.75 46.4316ZM101.25 50.4316C101.25 48.2225 99.4591 46.4316 97.25 46.4316C95.0409 46.4316 93.25 48.2225 93.25 50.4316V109.569C93.25 111.778 95.0409 113.569 97.25 113.569C99.4591 113.569 101.25 111.778 101.25 109.569V50.4316ZM45.4995 32.5117C47.7087 32.5117 49.4995 34.3026 49.4995 36.5117L49.4995 123.488C49.4995 125.697 47.7087 127.488 45.4995 127.488C43.2904 127.488 41.4995 125.697 41.4995 123.488L41.4995 36.5117C41.4995 34.3026 43.2904 32.5117 45.4995 32.5117ZM118.5 36.5117C118.5 34.3026 116.709 32.5117 114.5 32.5117C112.29 32.5117 110.5 34.3026 110.5 36.5117V123.488C110.5 125.697 112.29 127.488 114.5 127.488C116.709 127.488 118.5 125.697 118.5 123.488V36.5117Z" fill="#292929"/>
</clipPath>
<g clip-path="url(#mask0_5481_122192)">
<g clip-path="url(#clip0_5481_122192)">
<rect width="160" height="160" rx="10" fill="#D9F4FD"/>
<circle cx="142.62" cy="105.187" r="231.011" fill="url(#paint0_radial_5481_122192)"/>
<path d="M-14.3999 50.1137C-16.9679 -5.18932 25.7823 -52.103 81.0853 -54.6709C136.388 -57.2388 183.302 -14.4887 185.87 40.8143C188.438 96.1173 145.688 143.031 90.3846 145.599C35.0817 148.167 -11.832 105.417 -14.3999 50.1137Z" fill="url(#paint1_linear_5481_122192)"/>
<path d="M40.4184 -110.716C27.9428 -118.436 12.1362 -118.483 -0.385738 -110.838L-125.628 -34.3691C-137.894 -26.8797 -137.914 -9.20217 -125.665 -1.68455L-1.25042 74.676C11.2528 82.3487 27.0594 82.3396 39.5518 74.6486L163.71 -1.78335C175.895 -9.28493 175.917 -26.8637 163.748 -34.3936L40.4184 -110.716Z" fill="url(#paint2_linear_5481_122192)"/>
<path d="M-79.7631 76.5289C-53.9489 76.5289 -30.5656 86.9766 -13.6359 103.831C20.2235 137.599 48.2951 137.628 82.1545 103.918C99.0842 86.9766 122.496 76.5 148.34 76.5C199.997 76.5289 241.844 118.262 241.844 169.779C241.844 221.296 199.997 263 148.34 263C122.439 263 99.0263 252.495 82.0966 235.553C48.2661 201.901 20.2235 201.93 -13.6359 235.697C-30.5656 252.581 -53.9489 263 -79.7631 263C-131.392 263 -173.238 221.267 -173.238 169.779C-173.238 118.291 -131.392 76.5289 -79.7631 76.5289Z" fill="url(#paint3_linear_5481_122192)"/>
</g>
</g>

</svg>
