<svg width="48" height="48" viewBox="0 0 48 48" xmlns="http://www.w3.org/2000/svg">
  <defs>
<radialGradient id="paint0_radial_5481_122373" cx="0" cy="0" r="1" gradientUnits="userSpaceOnUse" gradientTransform="translate(42.7877 31.5552) rotate(90) scale(69.3033)">
<stop offset="0.0885417" stop-color="#EB1000"/>
<stop offset="1" stop-color="#EB1000" stop-opacity="0"/>
</radialGradient>
<linearGradient id="paint1_linear_5481_122373" x1="34.7309" y1="-1.54315" x2="6.93278" y2="34.4977" gradientUnits="userSpaceOnUse">
<stop stop-color="#FF4885"/>
<stop offset="1" stop-color="#FF4885" stop-opacity="0"/>
</linearGradient>
<linearGradient id="paint2_linear_5481_122373" x1="17.7929" y1="-18.1348" x2="23.1553" y2="16.1845" gradientUnits="userSpaceOnUse">
<stop offset="0.15625" stop-color="#7A6AFD"/>
<stop offset="1" stop-color="#7A6AFD" stop-opacity="0"/>
</linearGradient>
<linearGradient id="paint3_linear_5481_122373" x1="-44.0785" y1="50.8616" x2="46.1473" y2="33.0298" gradientUnits="userSpaceOnUse">
<stop stop-color="#30A7FE" stop-opacity="0"/>
<stop offset="0.432292" stop-color="#30A7FE" stop-opacity="0.994652"/>
<stop offset="0.609375" stop-color="#30A7FE"/>
<stop offset="1" stop-color="#30A7FE" stop-opacity="0"/>
</linearGradient>
<clipPath id="clip0_5481_122373">
<rect width="48" height="48" rx="10" fill="white"/>
</clipPath>
</defs>
<clipPath id="mask0_5481_122373">
<path fill-rule="evenodd" d="M23.5942 16.75C23.5942 18.9591 21.8034 20.75 19.5942 20.75C17.3851 20.75 15.5942 18.9591 15.5942 16.75C15.5942 14.5409 17.3851 12.75 19.5942 12.75C21.8034 12.75 23.5942 14.5409 23.5942 16.75ZM14.3442 16.75C14.3442 17.1808 14.3961 17.5994 14.494 18H9.125C8.43464 18 7.875 17.4404 7.875 16.75C7.875 16.0596 8.43464 15.5 9.125 15.5H14.494C14.3961 15.9006 14.3442 16.3192 14.3442 16.75ZM24.8442 16.75C24.8442 17.1808 24.7924 17.5994 24.6945 18H38.8752C39.5656 18 40.1252 17.4404 40.1252 16.75C40.1252 16.0596 39.5656 15.5 38.8752 15.5H24.6945C24.7924 15.9006 24.8442 16.3192 24.8442 16.75ZM23.1559 31.25C23.1559 31.6808 23.2078 32.0994 23.3056 32.5H9.125C8.43464 32.5 7.875 31.9404 7.875 31.25C7.875 30.5596 8.43464 30 9.125 30H23.3056C23.2078 30.4006 23.1559 30.8192 23.1559 31.25ZM33.6559 31.25C33.6559 31.6808 33.604 32.0994 33.5062 32.5H38.8751C39.5655 32.5 40.1251 31.9404 40.1251 31.25C40.1251 30.5596 39.5655 30 38.8751 30H33.5062C33.604 30.4006 33.6559 30.8192 33.6559 31.25ZM28.406 35.25C30.6151 35.25 32.406 33.4591 32.406 31.25C32.406 29.0409 30.6151 27.25 28.406 27.25C26.1969 27.25 24.406 29.0409 24.406 31.25C24.406 33.4591 26.1969 35.25 28.406 35.25Z" fill="white"/>
</clipPath>
<g clip-path="url(#mask0_5481_122373)">
<g clip-path="url(#clip0_5481_122373)">
<rect width="48" height="48" rx="10" fill="#D9F4FD"/>
<circle cx="42.7877" cy="31.5552" r="69.3033" fill="url(#paint0_radial_5481_122373)"/>
<path d="M-4.31959 15.0345C-5.08998 -1.55641 7.73508 -15.6305 24.326 -16.4009C40.9169 -17.1713 54.991 -4.34621 55.7613 12.2447C56.5317 28.8356 43.7067 42.9097 27.1158 43.6801C10.5249 44.4504 -3.54921 31.6254 -4.31959 15.0345Z" fill="url(#paint1_linear_5481_122373)"/>
<path d="M12.1243 -33.214C8.38167 -35.53 3.6397 -35.5442 -0.116893 -33.2506L-37.6896 -10.3099C-41.3694 -8.06314 -41.3755 -2.75987 -37.7007 -0.504581L-0.376298 22.4036C3.37467 24.7054 8.11665 24.7027 11.8644 22.3954L49.1119 -0.534222C52.7672 -2.7847 52.7739 -8.05833 49.1231 -10.3173L12.1243 -33.214Z" fill="url(#paint2_linear_5481_122373)"/>
<path d="M-23.9274 22.9579C-16.1831 22.9579 -9.16812 26.0922 -4.0892 31.1486C6.06863 41.2789 14.4901 41.2875 24.6479 31.1746C29.7268 26.0922 36.7505 22.9492 44.5034 22.9492C60.0006 22.9579 72.5547 35.4778 72.5547 50.9329C72.5547 66.388 60.0006 78.8992 44.5034 78.8992C36.7331 78.8992 29.7095 75.7476 24.6306 70.6652C14.4814 60.5696 6.06863 60.5782 -4.0892 70.7085C-9.16812 75.7736 -16.1831 78.8992 -23.9274 78.8992C-39.4159 78.8992 -51.9699 66.3793 -51.9699 50.9329C-51.9699 35.4865 -39.4159 22.9579 -23.9274 22.9579Z" fill="url(#paint3_linear_5481_122373)"/>
</g>
</g>

</svg>
