<svg width="160" height="160" viewBox="0 0 160 160" xmlns="http://www.w3.org/2000/svg">
  <defs>
<radialGradient id="paint0_radial_5481_122121" cx="0" cy="0" r="1" gradientUnits="userSpaceOnUse" gradientTransform="translate(131.327 99.599) rotate(90) scale(177.012 187.776)">
<stop offset="0.0885417" stop-color="#EB1000"/>
<stop offset="1" stop-color="#EB1000" stop-opacity="0"/>
</radialGradient>
<linearGradient id="paint1_linear_5481_122121" x1="109.5" y1="15.0572" x2="39.6689" y2="111.101" gradientUnits="userSpaceOnUse">
<stop stop-color="#FF4885"/>
<stop offset="1" stop-color="#FF4885" stop-opacity="0"/>
</linearGradient>
<linearGradient id="paint2_linear_5481_122121" x1="63.6138" y1="-27.3212" x2="76.5595" y2="60.5694" gradientUnits="userSpaceOnUse">
<stop offset="0.15625" stop-color="#7A6AFD"/>
<stop offset="1" stop-color="#7A6AFD" stop-opacity="0"/>
</linearGradient>
<linearGradient id="paint3_linear_5481_122121" x1="-104.036" y1="148.91" x2="139.284" y2="97.8973" gradientUnits="userSpaceOnUse">
<stop stop-color="#30A7FE" stop-opacity="0"/>
<stop offset="0.432292" stop-color="#30A7FE" stop-opacity="0.994652"/>
<stop offset="0.609375" stop-color="#30A7FE"/>
<stop offset="1" stop-color="#30A7FE" stop-opacity="0"/>
</linearGradient>
<clipPath id="clip0_5481_122121">
<rect x="15.3984" y="19" width="130.055" height="122.6" rx="10" fill="white"/>
</clipPath>
</defs>
<clipPath id="mask0_5481_122121">
<path fill-rule="evenodd" d="M33.8462 34H126.154C129.845 34 133.199 35.5994 135.681 38.2065L82.5599 69.1995C80.6964 70.2867 78.405 70.2654 76.5607 69.1427L24.8605 37.6671C27.2789 35.3805 30.417 34 33.8462 34ZM20.7016 44.5011C20.2464 46.0203 20 47.6449 20 49.3333V110.667C20 119.135 26.1991 126 33.8462 126H126.154C133.801 126 140 119.135 140 110.667V49.3333C140 47.9156 139.826 46.5428 139.501 45.2397L86.5915 76.1094C82.1897 78.6775 76.7535 78.626 72.4006 75.9759L20.7016 44.5011Z" fill="white"/>
</clipPath>
<g clip-path="url(#mask0_5481_122121)">
<g clip-path="url(#clip0_5481_122121)">
<rect x="15.3984" y="19" width="130.055" height="122.6" rx="10" fill="#D9F4FD"/>
<ellipse cx="131.327" cy="99.599" rx="187.776" ry="177.012" fill="url(#paint0_radial_5481_122121)"/>
<path d="M3.69374 57.3992C1.6064 15.0233 36.3557 -20.9243 81.3085 -22.8919C126.261 -24.8596 164.395 7.8977 166.482 50.2736C168.57 92.6495 133.82 128.597 88.8675 130.565C43.9146 132.532 5.78108 99.7751 3.69374 57.3992Z" fill="url(#paint1_linear_5481_122121)"/>
<path d="M48.2548 -65.8359C38.1141 -71.7513 25.2658 -71.7875 15.0874 -65.9294L-86.7154 -7.3351C-96.6857 -1.59641 -96.7023 11.949 -86.7456 17.7094L14.3845 76.2207C24.5477 82.0999 37.3961 82.0929 47.5505 76.1997L148.472 17.6337C158.376 11.8856 158.394 -1.58413 148.502 -7.35391L48.2548 -65.8359Z" fill="url(#paint2_linear_5481_122121)"/>
<path d="M-49.4364 77.6393C-28.4534 77.6393 -9.44639 85.6448 4.31487 98.5599C31.8374 124.434 54.6552 124.456 82.1777 98.6262C95.939 85.6448 114.969 77.6172 135.976 77.6172C177.965 77.6393 211.98 109.617 211.98 149.092C211.98 188.567 177.965 220.523 135.976 220.523C114.922 220.523 95.8919 212.473 82.1307 199.492C54.6317 173.706 31.8374 173.728 4.31487 199.602C-9.44639 212.539 -28.4534 220.523 -49.4364 220.523C-91.4023 220.523 -125.417 188.545 -125.417 149.092C-125.417 109.639 -91.4023 77.6393 -49.4364 77.6393Z" fill="url(#paint3_linear_5481_122121)"/>
</g>
</g>

</svg>
