<svg width="160" height="160" viewBox="0 0 160 160" xmlns="http://www.w3.org/2000/svg">
  <defs>
<radialGradient id="paint0_radial_5481_122139" cx="0" cy="0" r="1" gradientUnits="userSpaceOnUse" gradientTransform="translate(130.355 98.038) rotate(90) scale(170.948 181.344)">
<stop offset="0.0885417" stop-color="#EB1000"/>
<stop offset="1" stop-color="#EB1000" stop-opacity="0"/>
</radialGradient>
<linearGradient id="paint1_linear_5481_122139" x1="109.277" y1="16.3921" x2="41.838" y2="109.146" gradientUnits="userSpaceOnUse">
<stop stop-color="#FF4885"/>
<stop offset="1" stop-color="#FF4885" stop-opacity="0"/>
</linearGradient>
<linearGradient id="paint2_linear_5481_122139" x1="64.9613" y1="-24.5347" x2="77.4635" y2="60.345" gradientUnits="userSpaceOnUse">
<stop offset="0.15625" stop-color="#7A6AFD"/>
<stop offset="1" stop-color="#7A6AFD" stop-opacity="0"/>
</linearGradient>
<linearGradient id="paint3_linear_5481_122139" x1="-96.9441" y1="145.659" x2="138.04" y2="96.3939" gradientUnits="userSpaceOnUse">
<stop stop-color="#30A7FE" stop-opacity="0"/>
<stop offset="0.432292" stop-color="#30A7FE" stop-opacity="0.994652"/>
<stop offset="0.609375" stop-color="#30A7FE"/>
<stop offset="1" stop-color="#30A7FE" stop-opacity="0"/>
</linearGradient>
<clipPath id="clip0_5481_122139">
<rect x="18.3984" y="20.1992" width="125.6" height="118.4" rx="10" fill="white"/>
</clipPath>
</defs>
<clipPath id="mask0_5481_122139">
<path fill-rule="evenodd" d="M136 80C136 110.928 110.928 136 80 136C49.0721 136 24 110.928 24 80C24 49.0721 49.0721 24 80 24C110.928 24 136 49.0721 136 80ZM72.5 66.5C70.291 66.5 68.5 68.2908 68.5 70.5C68.5 72.7092 70.291 74.5 72.5 74.5H77.5V97.5H72.5C70.291 97.5 68.5 99.2908 68.5 101.5C68.5 103.709 70.291 105.5 72.5 105.5H90.5C92.709 105.5 94.5 103.709 94.5 101.5C94.5 99.2908 92.709 97.5 90.5 97.5H85.5V70.5C85.5 68.2908 83.709 66.5 81.5 66.5H72.5ZM80.5 61.5C83.2614 61.5 85.5 59.2614 85.5 56.5C85.5 53.7386 83.2614 51.5 80.5 51.5C77.7386 51.5 75.5 53.7386 75.5 56.5C75.5 59.2614 77.7386 61.5 80.5 61.5Z" fill="white"/>
</clipPath>
<g clip-path="url(#mask0_5481_122139)">
<g clip-path="url(#clip0_5481_122139)">
<rect x="18.3984" y="20.1992" width="125.6" height="118.4" rx="10" fill="#D9F4FD"/>
<ellipse cx="130.355" cy="98.038" rx="181.344" ry="170.948" fill="url(#paint0_radial_5481_122139)"/>
<path d="M7.09525 57.2836C5.07941 16.3594 38.6383 -18.3567 82.0512 -20.257C125.464 -22.1572 162.291 9.47792 164.307 50.4021C166.323 91.3263 132.764 126.042 89.3511 127.943C45.9383 129.843 9.11108 98.2079 7.09525 57.2836Z" fill="url(#paint1_linear_5481_122139)"/>
<path d="M50.1285 -61.73C40.3352 -67.4427 27.927 -67.4777 18.0973 -61.8203L-80.218 -5.23325C-89.8467 0.308841 -89.8628 13.3902 -80.2472 18.9533L17.4185 75.4601C27.2335 81.1379 39.6417 81.1312 49.4483 75.4399L146.913 18.8802C156.477 13.329 156.495 0.320705 146.942 -5.25142L50.1285 -61.73Z" fill="url(#paint2_linear_5481_122139)"/>
<path d="M-44.2153 76.83C-23.9511 76.83 -5.59525 84.5612 7.69458 97.0338C34.2742 122.022 56.3104 122.043 82.89 97.0979C96.1799 84.5612 114.558 76.8086 134.845 76.8086C175.396 76.83 208.246 107.712 208.246 145.835C208.246 183.958 175.396 214.819 134.845 214.819C114.513 214.819 96.1344 207.045 82.8446 194.508C56.2877 169.605 34.2742 169.627 7.69458 194.615C-5.59525 207.109 -23.9511 214.819 -44.2153 214.819C-84.7436 214.819 -117.593 183.936 -117.593 145.835C-117.593 107.734 -84.7436 76.83 -44.2153 76.83Z" fill="url(#paint3_linear_5481_122139)"/>
</g>
</g>

</svg>
