<svg width="96" height="96" viewBox="0 0 96 96" xmlns="http://www.w3.org/2000/svg">
  <defs>
<radialGradient id="paint0_radial_5481_122477" cx="0" cy="0" r="1" gradientUnits="userSpaceOnUse" gradientTransform="translate(84.631 65.0849) rotate(90) scale(112.368 119.201)">
<stop offset="0.0885417" stop-color="#EB1000"/>
<stop offset="1" stop-color="#EB1000" stop-opacity="0"/>
</radialGradient>
<linearGradient id="paint1_linear_5481_122477" x1="70.7761" y1="11.4174" x2="26.4467" y2="72.3865" gradientUnits="userSpaceOnUse">
<stop stop-color="#FF4885"/>
<stop offset="1" stop-color="#FF4885" stop-opacity="0"/>
</linearGradient>
<linearGradient id="paint2_linear_5481_122477" x1="41.6439" y1="-15.4838" x2="49.8618" y2="40.3095" gradientUnits="userSpaceOnUse">
<stop offset="0.15625" stop-color="#7A6AFD"/>
<stop offset="1" stop-color="#7A6AFD" stop-opacity="0"/>
</linearGradient>
<linearGradient id="paint3_linear_5481_122477" x1="-64.7765" y1="96.3878" x2="89.6838" y2="64.0047" gradientUnits="userSpaceOnUse">
<stop stop-color="#30A7FE" stop-opacity="0"/>
<stop offset="0.432292" stop-color="#30A7FE" stop-opacity="0.994652"/>
<stop offset="0.609375" stop-color="#30A7FE"/>
<stop offset="1" stop-color="#30A7FE" stop-opacity="0"/>
</linearGradient>
<clipPath id="clip0_5481_122477">
<rect x="11.0391" y="13.9199" width="82.5598" height="77.827" rx="10" fill="white"/>
</clipPath>
</defs>
<clipPath id="mask0_5481_122477">
<path fill-rule="evenodd" d="M74.3807 20.3398C79.6847 20.3398 83.9808 24.6358 83.9808 29.9398V32.3938H11.9688V29.9398C11.9688 24.6358 16.2647 20.3398 21.5687 20.3398H74.3807ZM83.9812 51.8758C82.4332 51.4798 80.8132 51.2698 79.1452 51.2698H79.1392C68.3752 51.2698 59.6212 60.0238 59.6212 70.7878C59.6212 72.4498 59.8312 74.0698 60.2272 75.6118H28.7992V37.1938H83.9812V51.8758ZM11.9688 66.0178C11.9688 71.3218 16.2648 75.6178 21.5688 75.6178H23.9987V37.1998H11.9688V66.0178ZM79.1457 56.0758C80.8377 56.0758 82.4637 56.3638 83.9817 56.8918H83.9877C89.7417 58.8958 93.8697 64.3618 93.8697 70.7938C93.8697 78.9238 87.2817 85.5118 79.1517 85.5118C72.7137 85.5118 67.2417 81.3778 65.2437 75.6178C64.7157 74.1058 64.4277 72.4858 64.4277 70.7938C64.4277 62.6638 71.0157 56.0758 79.1457 56.0758ZM81.5517 73.1638H86.2797C87.6057 73.1638 88.6797 72.0898 88.6797 70.7638C88.6797 69.4378 87.6057 68.3638 86.2797 68.3638H81.5517V63.6358C81.5517 62.3098 80.4777 61.2358 79.1517 61.2358C77.8257 61.2358 76.7517 62.3098 76.7517 63.6358V68.3638H72.0237C70.6977 68.3638 69.6237 69.4378 69.6237 70.7638C69.6237 72.0898 70.6977 73.1638 72.0237 73.1638H76.7517V77.8918C76.7517 79.2178 77.8257 80.2918 79.1517 80.2918C80.4777 80.2918 81.5517 79.2178 81.5517 77.8918V73.1638Z" fill="white"/>
</clipPath>
<g clip-path="url(#mask0_5481_122477)">
<g clip-path="url(#clip0_5481_122477)">
<rect x="11.0391" y="13.9199" width="82.5598" height="77.827" rx="10" fill="#D9F4FD"/>
<ellipse cx="84.631" cy="65.0849" rx="119.201" ry="112.368" fill="url(#paint0_radial_5481_122477)"/>
<path d="M3.60951 38.2963C2.28445 11.3959 24.3435 -11.4238 52.8797 -12.6729C81.416 -13.922 105.623 6.87252 106.948 33.773C108.273 60.6734 86.2144 83.4931 57.6782 84.7422C29.1419 85.9913 4.93456 65.1968 3.60951 38.2963Z" fill="url(#paint1_linear_5481_122477)"/>
<path d="M31.8939 -39.9332C25.4565 -43.6883 17.3004 -43.7113 10.8391 -39.9925L-53.7858 -2.79657C-60.115 0.846371 -60.1256 9.44508 -53.805 13.1018L10.3929 50.245C16.8445 53.9772 25.0007 53.9727 31.4468 50.2317L95.5124 13.0537C101.8 9.40482 101.811 0.854169 95.5316 -2.80852L31.8939 -39.9332Z" fill="url(#paint2_linear_5481_122477)"/>
<path d="M-30.1166 51.1449C-16.7965 51.1449 -4.7308 56.2269 4.00491 64.4254C21.4763 80.8505 35.9612 80.8645 53.4326 64.4675C62.1683 56.2269 74.249 51.1309 87.584 51.1309C114.239 51.1449 135.832 71.4447 135.832 96.5035C135.832 121.562 114.239 141.848 87.584 141.848C74.2191 141.848 62.1385 136.738 53.4027 128.497C35.9463 112.128 21.4763 112.142 4.00491 128.568C-4.7308 136.78 -16.7965 141.848 -30.1166 141.848C-56.7568 141.848 -78.3497 121.548 -78.3497 96.5035C-78.3497 71.4587 -56.7568 51.1449 -30.1166 51.1449Z" fill="url(#paint3_linear_5481_122477)"/>
</g>
</g>

</svg>
