<svg width="96" height="96" viewBox="0 0 96 96" xmlns="http://www.w3.org/2000/svg">
  <defs>
<radialGradient id="paint0_radial_5481_122544" cx="0" cy="0" r="1" gradientUnits="userSpaceOnUse" gradientTransform="translate(85.5714 63.1124) rotate(90) scale(138.607)">
<stop offset="0.0885417" stop-color="#EB1000"/>
<stop offset="1" stop-color="#EB1000" stop-opacity="0"/>
</radialGradient>
<linearGradient id="paint1_linear_5481_122544" x1="69.4617" y1="-3.08825" x2="13.8656" y2="68.9935" gradientUnits="userSpaceOnUse">
<stop stop-color="#FF4885"/>
<stop offset="1" stop-color="#FF4885" stop-opacity="0"/>
</linearGradient>
<linearGradient id="paint2_linear_5481_122544" x1="35.5898" y1="-36.2716" x2="46.3146" y2="32.3671" gradientUnits="userSpaceOnUse">
<stop offset="0.15625" stop-color="#7A6AFD"/>
<stop offset="1" stop-color="#7A6AFD" stop-opacity="0"/>
</linearGradient>
<linearGradient id="paint3_linear_5481_122544" x1="-88.1609" y1="101.725" x2="92.2907" y2="66.0615" gradientUnits="userSpaceOnUse">
<stop stop-color="#30A7FE" stop-opacity="0"/>
<stop offset="0.432292" stop-color="#30A7FE" stop-opacity="0.994652"/>
<stop offset="0.609375" stop-color="#30A7FE"/>
<stop offset="1" stop-color="#30A7FE" stop-opacity="0"/>
</linearGradient>
<clipPath id="clip0_5481_122544">
<rect width="96" height="96" rx="10" fill="white"/>
</clipPath>
</defs>
<clipPath id="mask0_5481_122544">
<path fill-rule="evenodd" d="M61.8174 36.9736C61.8273 36.9044 61.8398 36.8345 61.8549 36.764L63.0837 31.0634C63.1144 30.9222 63.1336 30.7798 63.1417 30.6375C63.1818 29.9277 62.9452 29.2222 62.4756 28.691L58.6816 24.3949C58.3221 23.9881 58.1157 23.5299 58.0371 23.0664H58.0372C57.7469 21.3574 59.1928 19.5754 61.1012 20.0225L66.5642 21.3048C67.375 21.4964 68.2269 21.2585 68.8381 20.6703L72.9552 16.7113C74.7825 14.9532 77.6898 16.7047 77.1451 19.236L75.9163 24.9366C75.9111 24.9602 75.9063 24.9838 75.9019 25.0075C75.8963 25.0368 75.8912 25.0662 75.8866 25.0956C75.8719 25.1904 75.8622 25.2855 75.8574 25.3804C75.8221 26.0842 76.0587 26.7825 76.5243 27.3093L80.3184 31.6054C81.965 33.469 80.399 36.409 78.0625 36.0106V36.0109C78.0083 36.0017 77.9537 35.9906 77.8988 35.9777L72.4357 34.6955C71.625 34.5039 70.7731 34.7418 70.1618 35.33L66.0448 39.289C64.2683 40.9982 61.4711 39.3903 61.8174 36.9736ZM72.3426 38.7824L76.9862 39.8723C77.3522 39.958 77.7114 40.0117 78.0625 40.0362V52.9716C78.0625 56.8572 74.893 59.9359 70.9832 59.9359H50.8471L35.0888 73.412C33.5547 74.7337 31.1686 73.6421 31.1834 71.6245C31.2098 68.0064 31.1972 63.2554 31.1834 59.9359H25.1535C21.2437 59.9359 18.0742 56.8572 18.0742 52.9716V30.0306C18.0742 26.1451 21.2437 23.0664 25.1535 23.0664H54.0149C54.1018 24.4383 54.6162 25.8345 55.6834 27.0427L55.6841 27.0435L59.0394 30.8428L57.9444 35.9228C57.2863 38.9811 58.7546 41.7108 60.996 43.0613C63.2648 44.4283 66.4636 44.4361 68.8173 42.1723L68.8181 42.1715L72.3426 38.7824ZM53.9801 50.2734L49.9647 49.3687C49.4331 49.2498 48.8817 49.3984 48.4821 49.7649L45.4574 52.5552C44.2653 53.6548 42.3699 52.5585 42.7266 50.9801L43.6313 46.9647C43.7502 46.4331 43.6016 45.8817 43.2351 45.4821L40.4448 42.4574C39.3452 41.2653 40.4415 39.3699 42.0199 39.7266L46.0353 40.6313C46.5669 40.7502 47.1183 40.6016 47.5179 40.2351L50.5426 37.4448C51.7347 36.3452 53.6301 37.4415 53.2734 39.0199L52.3687 43.0353C52.2498 43.5669 52.3984 44.1183 52.7649 44.5179L55.5552 47.5426C56.6548 48.7347 55.5585 50.6301 53.9801 50.2734Z" fill="white"/>
</clipPath>
<g clip-path="url(#mask0_5481_122544)">
<g clip-path="url(#clip0_5481_122544)">
<rect width="96" height="96" rx="10" fill="#D9F4FD"/>
<circle cx="85.5714" cy="63.1124" r="138.607" fill="url(#paint0_radial_5481_122544)"/>
<path d="M-8.63919 30.067C-10.18 -3.11477 15.4702 -31.263 48.652 -32.8037C81.8337 -34.3445 109.982 -8.69438 111.523 24.4874C113.063 57.6692 87.4133 85.8174 54.2316 87.3582C21.0498 88.8989 -7.09842 63.2488 -8.63919 30.067Z" fill="url(#paint1_linear_5481_122544)"/>
<path d="M24.2526 -66.43C16.7672 -71.0619 7.28331 -71.0903 -0.22988 -66.5032L-75.3753 -20.6218C-82.7348 -16.1282 -82.7471 -5.52169 -75.3976 -1.01111L-0.748691 44.8052C6.75324 49.4089 16.2372 49.4034 23.7327 44.7888L98.2278 -1.0704C105.538 -5.57135 105.552 -16.1186 98.2501 -20.6366L24.2526 -66.43Z" fill="url(#paint2_linear_5481_122544)"/>
<path d="M-47.8586 45.9177C-32.3701 45.9177 -18.3401 52.1863 -8.18231 62.2992C12.1334 82.5597 28.9763 82.577 49.2919 62.3512C59.4498 52.1863 73.4971 45.9004 89.003 45.9004C119.997 45.9177 145.105 70.9575 145.105 101.868C145.105 132.778 119.997 157.8 89.003 157.8C73.4624 157.8 59.415 151.497 49.2572 141.332C28.9589 121.141 12.1334 121.158 -8.18231 141.419C-18.3401 151.549 -32.3701 157.8 -47.8586 157.8C-78.8357 157.8 -103.944 132.761 -103.944 101.868C-103.944 70.9749 -78.8357 45.9177 -47.8586 45.9177Z" fill="url(#paint3_linear_5481_122544)"/>
</g>
</g>

</svg>
