<svg width="48" height="48" viewBox="0 0 48 48" xmlns="http://www.w3.org/2000/svg">
  <defs>
<radialGradient id="paint0_radial_5481_122327" cx="0" cy="0" r="1" gradientUnits="userSpaceOnUse" gradientTransform="translate(40.7495 28.9551) rotate(90) scale(57.0019 60.4683)">
<stop offset="0.0885417" stop-color="#EB1000"/>
<stop offset="1" stop-color="#EB1000" stop-opacity="0"/>
</radialGradient>
<linearGradient id="paint1_linear_5481_122327" x1="33.7225" y1="1.73053" x2="11.2352" y2="32.6589" gradientUnits="userSpaceOnUse">
<stop stop-color="#FF4885"/>
<stop offset="1" stop-color="#FF4885" stop-opacity="0"/>
</linearGradient>
<linearGradient id="paint2_linear_5481_122327" x1="18.9457" y1="-11.9164" x2="23.1145" y2="16.3864" gradientUnits="userSpaceOnUse">
<stop offset="0.15625" stop-color="#7A6AFD"/>
<stop offset="1" stop-color="#7A6AFD" stop-opacity="0"/>
</linearGradient>
<linearGradient id="paint3_linear_5481_122327" x1="-35.0417" y1="44.8348" x2="43.3127" y2="28.4076" gradientUnits="userSpaceOnUse">
<stop stop-color="#30A7FE" stop-opacity="0"/>
<stop offset="0.432292" stop-color="#30A7FE" stop-opacity="0.994652"/>
<stop offset="0.609375" stop-color="#30A7FE"/>
<stop offset="1" stop-color="#30A7FE" stop-opacity="0"/>
</linearGradient>
<clipPath id="clip0_5481_122327">
<rect x="3.41797" y="3" width="41.8808" height="39.48" rx="10" fill="white"/>
</clipPath>
</defs>
<clipPath id="mask0_5481_122327">
<path d="M34.7984 10.2H32.6984V13.2C32.6984 13.863 32.1614 14.4 31.4984 14.4C30.8354 14.4 30.2984 13.863 30.2984 13.2V10.2H17.6984V13.2C17.6984 13.863 17.1614 14.4 16.4984 14.4C15.8354 14.4 15.2984 13.863 15.2984 13.2V10.2H13.1984C10.5464 10.2 8.39844 12.348 8.39844 15V18H39.5984V15C39.5984 12.348 37.4504 10.2 34.7984 10.2ZM8.39844 34.8C8.39844 37.452 10.5464 39.6 13.1984 39.6H34.7984C37.4504 39.6 39.5984 37.452 39.5984 34.8V20.4H8.39844V34.8ZM30.2984 25.2C30.2984 24.537 30.8354 24 31.4984 24H33.2984C33.9614 24 34.4984 24.537 34.4984 25.2V27C34.4984 27.663 33.9614 28.2 33.2984 28.2H31.4984C30.8354 28.2 30.2984 27.663 30.2984 27V25.2ZM30.2984 31.8C30.2984 31.137 30.8354 30.6 31.4984 30.6H33.2984C33.9614 30.6 34.4984 31.137 34.4984 31.8V33.6C34.4984 34.263 33.9614 34.8 33.2984 34.8H31.4984C30.8354 34.8 30.2984 34.263 30.2984 33.6V31.8ZM21.8984 25.2C21.8984 24.537 22.4354 24 23.0984 24H24.8984C25.5614 24 26.0984 24.537 26.0984 25.2V27C26.0984 27.663 25.5614 28.2 24.8984 28.2H23.0984C22.4354 28.2 21.8984 27.663 21.8984 27V25.2ZM21.8984 31.8C21.8984 31.137 22.4354 30.6 23.0984 30.6H24.8984C25.5614 30.6 26.0984 31.137 26.0984 31.8V33.6C26.0984 34.263 25.5614 34.8 24.8984 34.8H23.0984C22.4354 34.8 21.8984 34.263 21.8984 33.6V31.8ZM13.4984 25.2C13.4984 24.537 14.0354 24 14.6984 24H16.4984C17.1614 24 17.6984 24.537 17.6984 25.2V27C17.6984 27.663 17.1614 28.2 16.4984 28.2H14.6984C14.0354 28.2 13.4984 27.663 13.4984 27V25.2ZM13.4984 31.8C13.4984 31.137 14.0354 30.6 14.6984 30.6H16.4984C17.1614 30.6 17.6984 31.137 17.6984 31.8V33.6C17.6984 34.263 17.1614 34.8 16.4984 34.8H14.6984C14.0354 34.8 13.4984 34.263 13.4984 33.6V31.8ZM17.6984 7.2C17.6984 6.537 17.1614 6 16.4984 6C15.8354 6 15.2984 6.537 15.2984 7.2V10.2H17.6984V7.2ZM32.6984 7.2C32.6984 6.537 32.1614 6 31.4984 6C30.8354 6 30.2984 6.537 30.2984 7.2V10.2H32.6984V7.2Z" fill="white"/>
</clipPath>
<g clip-path="url(#mask0_5481_122327)">
<g clip-path="url(#clip0_5481_122327)">
<rect x="3.41797" y="3" width="41.8808" height="39.48" rx="10" fill="#D9F4FD"/>
<ellipse cx="40.7495" cy="28.9551" rx="60.4683" ry="57.0019" fill="url(#paint0_radial_5481_122327)"/>
<path d="M-0.349631 15.3656C-1.0218 1.71962 10.1683 -9.85632 24.6441 -10.49C39.1199 -11.1236 51.3998 -0.574991 52.072 13.071C52.7442 26.717 41.5541 38.293 27.0783 38.9266C12.6024 39.5602 0.32254 29.0116 -0.349631 15.3656Z" fill="url(#paint1_linear_5481_122327)"/>
<path d="M13.9997 -24.319C10.7342 -26.2239 6.59672 -26.2356 3.31903 -24.3491L-29.4638 -5.48041C-32.6744 -3.63243 -32.6798 0.729514 -29.4735 2.58449L3.0927 21.4264C6.36548 23.3197 10.5029 23.3174 13.7729 21.4197L46.272 2.56011C49.4613 0.709092 49.4671 -3.62847 46.2817 -5.48647L13.9997 -24.319Z" fill="url(#paint2_linear_5481_122327)"/>
<path d="M-17.4595 21.8841C-10.7025 21.8841 -4.58185 24.462 -0.15041 28.621C8.71247 36.9531 16.0603 36.9602 24.9232 28.6423C29.3546 24.462 35.4829 21.877 42.2475 21.877C55.769 21.8841 66.7227 32.1817 66.7227 44.8935C66.7227 57.6053 55.769 67.8958 42.2475 67.8958C35.4678 67.8958 29.3395 65.3036 24.9081 61.1233C16.0527 52.8197 8.71247 52.8268 -0.15041 61.1589C-4.58185 65.325 -10.7025 67.8958 -17.4595 67.8958C-30.9735 67.8958 -41.9271 57.5982 -41.9271 44.8935C-41.9271 32.1888 -30.9735 21.8841 -17.4595 21.8841Z" fill="url(#paint3_linear_5481_122327)"/>
</g>
</g>

</svg>
