<svg width="48" height="48" viewBox="0 0 48 48" xmlns="http://www.w3.org/2000/svg">
  <defs>
<radialGradient id="paint0_radial_5481_122366" cx="0" cy="0" r="1" gradientUnits="userSpaceOnUse" gradientTransform="translate(42.7877 31.5552) rotate(90) scale(69.3033)">
<stop offset="0.0885417" stop-color="#EB1000"/>
<stop offset="1" stop-color="#EB1000" stop-opacity="0"/>
</radialGradient>
<linearGradient id="paint1_linear_5481_122366" x1="34.7309" y1="-1.54315" x2="6.93278" y2="34.4977" gradientUnits="userSpaceOnUse">
<stop stop-color="#FF4885"/>
<stop offset="1" stop-color="#FF4885" stop-opacity="0"/>
</linearGradient>
<linearGradient id="paint2_linear_5481_122366" x1="17.7929" y1="-18.1348" x2="23.1553" y2="16.1845" gradientUnits="userSpaceOnUse">
<stop offset="0.15625" stop-color="#7A6AFD"/>
<stop offset="1" stop-color="#7A6AFD" stop-opacity="0"/>
</linearGradient>
<linearGradient id="paint3_linear_5481_122366" x1="-44.0785" y1="50.8616" x2="46.1473" y2="33.0298" gradientUnits="userSpaceOnUse">
<stop stop-color="#30A7FE" stop-opacity="0"/>
<stop offset="0.432292" stop-color="#30A7FE" stop-opacity="0.994652"/>
<stop offset="0.609375" stop-color="#30A7FE"/>
<stop offset="1" stop-color="#30A7FE" stop-opacity="0"/>
</linearGradient>
<clipPath id="clip0_5481_122366">
<rect width="48" height="48" rx="10" fill="white"/>
</clipPath>
</defs>
<clipPath id="mask0_5481_122366">
<path fill-rule="evenodd" d="M16.2372 7.5C16.2372 6.80964 15.6776 6.25 14.9872 6.25C14.2968 6.25 13.7372 6.80964 13.7372 7.5V13.7017H7.5C6.80964 13.7017 6.25 14.2613 6.25 14.9517C6.25 15.642 6.80964 16.2017 7.5 16.2017H13.7372V29.048C13.7372 31.9475 16.0877 34.298 18.9872 34.298H31.7624V40.4997C31.7624 41.19 32.322 41.7497 33.0124 41.7497C33.7027 41.7497 34.2624 41.19 34.2624 40.4997V34.298H40.4996C41.1899 34.298 41.7496 33.7384 41.7496 33.048C41.7496 32.3576 41.1899 31.798 40.4996 31.798H18.9872C17.4684 31.798 16.2372 30.5668 16.2372 29.048V14.9677C16.2373 14.9624 16.2373 14.957 16.2373 14.9517C16.2373 14.9463 16.2373 14.941 16.2372 14.9356V7.5ZM19.0001 13.7017C18.3097 13.7017 17.7501 14.2613 17.7501 14.9517C17.7501 15.642 18.3097 16.2017 19.0001 16.2017H29.0124C30.5312 16.2017 31.7624 17.4329 31.7624 18.9517V29.0152C31.7624 29.7055 32.322 30.2652 33.0124 30.2652C33.7027 30.2652 34.2624 29.7055 34.2624 29.0152V18.9517C34.2624 16.0522 31.9119 13.7017 29.0124 13.7017H19.0001Z" fill="white"/>
</clipPath>
<g clip-path="url(#mask0_5481_122366)">
<g clip-path="url(#clip0_5481_122366)">
<rect width="48" height="48" rx="10" fill="#D9F4FD"/>
<circle cx="42.7877" cy="31.5552" r="69.3033" fill="url(#paint0_radial_5481_122366)"/>
<path d="M-4.31959 15.0345C-5.08998 -1.55641 7.73508 -15.6305 24.326 -16.4009C40.9169 -17.1713 54.991 -4.34621 55.7613 12.2447C56.5317 28.8356 43.7067 42.9097 27.1158 43.6801C10.5249 44.4504 -3.54921 31.6254 -4.31959 15.0345Z" fill="url(#paint1_linear_5481_122366)"/>
<path d="M12.1243 -33.214C8.38167 -35.53 3.6397 -35.5442 -0.116893 -33.2506L-37.6896 -10.3099C-41.3694 -8.06314 -41.3755 -2.75987 -37.7007 -0.504581L-0.376298 22.4036C3.37467 24.7054 8.11665 24.7027 11.8644 22.3954L49.1119 -0.534222C52.7672 -2.7847 52.7739 -8.05833 49.1231 -10.3173L12.1243 -33.214Z" fill="url(#paint2_linear_5481_122366)"/>
<path d="M-23.9274 22.9579C-16.1831 22.9579 -9.16812 26.0922 -4.0892 31.1486C6.06863 41.2789 14.4901 41.2875 24.6479 31.1746C29.7268 26.0922 36.7505 22.9492 44.5034 22.9492C60.0006 22.9579 72.5547 35.4778 72.5547 50.9329C72.5547 66.388 60.0006 78.8992 44.5034 78.8992C36.7331 78.8992 29.7095 75.7476 24.6306 70.6652C14.4814 60.5696 6.06863 60.5782 -4.0892 70.7085C-9.16812 75.7736 -16.1831 78.8992 -23.9274 78.8992C-39.4159 78.8992 -51.9699 66.3793 -51.9699 50.9329C-51.9699 35.4865 -39.4159 22.9579 -23.9274 22.9579Z" fill="url(#paint3_linear_5481_122366)"/>
</g>
</g>

</svg>
