<svg width="48" height="48" viewBox="0 0 48 48" xmlns="http://www.w3.org/2000/svg">
  <defs>
<radialGradient id="paint0_radial_5481_122282" cx="0" cy="0" r="1" gradientUnits="userSpaceOnUse" gradientTransform="translate(40.3389 30.5713) rotate(90) scale(60.2686)">
<stop offset="0.0885417" stop-color="#EB1000"/>
<stop offset="1" stop-color="#EB1000" stop-opacity="0"/>
</radialGradient>
<linearGradient id="paint1_linear_5481_122282" x1="33.3301" y1="1.78672" x2="9.15592" y2="33.1292" gradientUnits="userSpaceOnUse">
<stop stop-color="#FF4885"/>
<stop offset="1" stop-color="#FF4885" stop-opacity="0"/>
</linearGradient>
<linearGradient id="paint2_linear_5481_122282" x1="18.6021" y1="-12.6418" x2="23.2654" y2="17.2035" gradientUnits="userSpaceOnUse">
<stop offset="0.15625" stop-color="#7A6AFD"/>
<stop offset="1" stop-color="#7A6AFD" stop-opacity="0"/>
</linearGradient>
<linearGradient id="paint3_linear_5481_122282" x1="-35.2057" y1="47.3605" x2="43.2579" y2="31.8533" gradientUnits="userSpaceOnUse">
<stop stop-color="#30A7FE" stop-opacity="0"/>
<stop offset="0.432292" stop-color="#30A7FE" stop-opacity="0.994652"/>
<stop offset="0.609375" stop-color="#30A7FE"/>
<stop offset="1" stop-color="#30A7FE" stop-opacity="0"/>
</linearGradient>
<clipPath id="clip0_5481_122282">
<rect x="3.12891" y="3.12891" width="41.7425" height="41.7425" rx="10" fill="white"/>
</clipPath>
</defs>
<clipPath id="mask0_5481_122282">
<path d="M34.9569 20.7622C34.9581 20.6991 34.9614 20.6366 34.9614 20.5732C34.9614 15.6383 31.1284 11.6377 26.4002 11.6377C22.5857 11.6377 19.3553 14.242 18.2486 17.8394C17.5142 17.5228 16.7104 17.346 15.8665 17.346C12.4159 17.346 9.6186 20.2655 9.6186 23.8669C9.6186 24.3743 9.67959 24.8658 9.78462 25.3398C7.50536 25.9914 5.82812 28.163 5.82812 30.7487C5.82812 33.8174 8.18834 36.3071 11.117 36.3576V36.3623H34.4864V36.3612C34.5004 36.3613 34.5142 36.3623 34.5282 36.3623C38.6592 36.3623 42.0081 32.867 42.0081 28.5554C42.0081 24.3941 38.8883 20.9941 34.9569 20.7622Z" fill="white"/>
</clipPath>
<g clip-path="url(#mask0_5481_122282)">
<g clip-path="url(#clip0_5481_122282)">
<rect x="3.12891" y="3.12891" width="41.7425" height="41.7425" rx="10" fill="#D9F4FD"/>
<circle cx="40.3389" cy="30.5713" r="60.2686" fill="url(#paint0_radial_5481_122282)"/>
<path d="M-0.629539 16.2032C-1.29949 1.77519 9.85363 -10.4641 24.2817 -11.1341C38.7097 -11.804 50.949 -0.650915 51.619 13.7771C52.2889 28.2051 41.1358 40.4445 26.7078 41.1144C12.2797 41.7844 0.0404127 30.6313 -0.629539 16.2032Z" fill="url(#paint1_linear_5481_122282)"/>
<path d="M13.6724 -25.7552C10.4177 -27.7693 6.2939 -27.7816 3.02703 -25.7871L-29.6475 -5.83703C-32.8476 -3.88314 -32.8529 0.728775 -29.6572 2.69005L2.80145 22.6118C6.06342 24.6136 10.1872 24.6112 13.4464 22.6047L45.8382 2.66428C49.017 0.707183 49.0228 -3.87896 45.8479 -5.84343L13.6724 -25.7552Z" fill="url(#paint2_linear_5481_122282)"/>
<path d="M-17.6816 23.0944C-10.9469 23.0944 -4.84639 25.8201 -0.429584 30.2174C8.40403 39.027 15.7276 39.0345 24.5612 30.24C28.978 25.8201 35.0861 23.0869 41.8283 23.0869C55.3052 23.0944 66.2227 33.9822 66.2227 47.4225C66.2227 60.8628 55.3052 71.743 41.8283 71.743C35.071 71.743 28.9629 69.0022 24.5461 64.5824C15.7201 55.8029 8.40403 55.8104 -0.429584 64.62C-4.84639 69.0248 -10.9469 71.743 -17.6816 71.743C-31.1509 71.743 -42.0684 60.8553 -42.0684 47.4225C-42.0684 33.9897 -31.1509 23.0944 -17.6816 23.0944Z" fill="url(#paint3_linear_5481_122282)"/>
</g>
</g>

</svg>
