<svg width="48" height="48" viewBox="0 0 48 48" xmlns="http://www.w3.org/2000/svg">
  <defs>
<radialGradient id="paint0_radial_5481_122356" cx="0" cy="0" r="1" gradientUnits="userSpaceOnUse" gradientTransform="translate(42.7877 31.5552) rotate(90) scale(69.3033)">
<stop offset="0.0885417" stop-color="#EB1000"/>
<stop offset="1" stop-color="#EB1000" stop-opacity="0"/>
</radialGradient>
<linearGradient id="paint1_linear_5481_122356" x1="34.7309" y1="-1.54315" x2="6.93278" y2="34.4977" gradientUnits="userSpaceOnUse">
<stop stop-color="#FF4885"/>
<stop offset="1" stop-color="#FF4885" stop-opacity="0"/>
</linearGradient>
<linearGradient id="paint2_linear_5481_122356" x1="17.7929" y1="-18.1348" x2="23.1553" y2="16.1845" gradientUnits="userSpaceOnUse">
<stop offset="0.15625" stop-color="#7A6AFD"/>
<stop offset="1" stop-color="#7A6AFD" stop-opacity="0"/>
</linearGradient>
<linearGradient id="paint3_linear_5481_122356" x1="-44.0785" y1="50.8616" x2="46.1473" y2="33.0298" gradientUnits="userSpaceOnUse">
<stop stop-color="#30A7FE" stop-opacity="0"/>
<stop offset="0.432292" stop-color="#30A7FE" stop-opacity="0.994652"/>
<stop offset="0.609375" stop-color="#30A7FE"/>
<stop offset="1" stop-color="#30A7FE" stop-opacity="0"/>
</linearGradient>
<clipPath id="clip0_5481_122356">
<rect width="48" height="48" rx="10" fill="white"/>
</clipPath>
</defs>
<clipPath id="mask0_5481_122356">
<path fill-rule="evenodd" d="M25.2498 7.49219C25.2498 6.80183 24.6901 6.24219 23.9998 6.24219C23.3094 6.24219 22.7498 6.80183 22.7498 7.49219L22.7498 40.5078C22.7498 41.1982 23.3094 41.7578 23.9998 41.7578C24.6901 41.7578 25.2498 41.1982 25.2498 40.5078L25.2498 7.49219ZM9.125 20.2578C9.81536 20.2578 10.375 20.8175 10.375 21.5078L10.375 26.4922C10.375 27.1825 9.81536 27.7422 9.125 27.7422C8.43464 27.7422 7.875 27.1825 7.875 26.4922V21.5078C7.875 20.8175 8.43464 20.2578 9.125 20.2578ZM38.8745 20.2578C39.5649 20.2578 40.1245 20.8175 40.1245 21.5078V26.4922C40.1245 27.1825 39.5649 27.7422 38.8745 27.7422C38.1842 27.7422 37.6245 27.1825 37.6245 26.4922V21.5078C37.6245 20.8175 38.1842 20.2578 38.8745 20.2578ZM19.0415 14.251C19.7319 14.251 20.2915 14.8106 20.2915 15.501L20.2915 32.499C20.2915 33.1894 19.7319 33.749 19.0415 33.749C18.3511 33.749 17.7915 33.1894 17.7915 32.499L17.7915 15.501C17.7915 14.8106 18.3511 14.251 19.0415 14.251ZM30.208 15.501C30.208 14.8106 29.6484 14.251 28.958 14.251C28.2677 14.251 27.708 14.8106 27.708 15.501V32.499C27.708 33.1894 28.2677 33.749 28.958 33.749C29.6484 33.749 30.208 33.1894 30.208 32.499V15.501ZM14.0833 10.25C14.7736 10.25 15.3333 10.8096 15.3333 11.5L15.3333 36.5C15.3333 37.1904 14.7736 37.75 14.0833 37.75C13.3929 37.75 12.8333 37.1904 12.8333 36.5L12.8333 11.5C12.8333 10.8096 13.3929 10.25 14.0833 10.25ZM35.1663 11.5C35.1663 10.8096 34.6066 10.25 33.9163 10.25C33.2259 10.25 32.6663 10.8096 32.6663 11.5L32.6663 36.5C32.6663 37.1904 33.2259 37.75 33.9163 37.75C34.6066 37.75 35.1663 37.1904 35.1663 36.5L35.1663 11.5Z" fill="#292929"/>
</clipPath>
<g clip-path="url(#mask0_5481_122356)">
<g clip-path="url(#clip0_5481_122356)">
<rect width="48" height="48" rx="10" fill="#D9F4FD"/>
<circle cx="42.7877" cy="31.5552" r="69.3033" fill="url(#paint0_radial_5481_122356)"/>
<path d="M-4.31959 15.0345C-5.08998 -1.55641 7.73508 -15.6305 24.326 -16.4009C40.9169 -17.1713 54.991 -4.34621 55.7613 12.2447C56.5317 28.8356 43.7067 42.9097 27.1158 43.6801C10.5249 44.4504 -3.54921 31.6254 -4.31959 15.0345Z" fill="url(#paint1_linear_5481_122356)"/>
<path d="M12.1243 -33.214C8.38167 -35.53 3.6397 -35.5442 -0.116893 -33.2506L-37.6896 -10.3099C-41.3694 -8.06314 -41.3755 -2.75987 -37.7007 -0.504581L-0.376298 22.4036C3.37467 24.7054 8.11665 24.7027 11.8644 22.3954L49.1119 -0.534222C52.7672 -2.7847 52.7739 -8.05833 49.1231 -10.3173L12.1243 -33.214Z" fill="url(#paint2_linear_5481_122356)"/>
<path d="M-23.9274 22.9579C-16.1831 22.9579 -9.16812 26.0922 -4.0892 31.1486C6.06863 41.2789 14.4901 41.2875 24.6479 31.1746C29.7268 26.0922 36.7505 22.9492 44.5034 22.9492C60.0006 22.9579 72.5547 35.4778 72.5547 50.9329C72.5547 66.388 60.0006 78.8992 44.5034 78.8992C36.7331 78.8992 29.7095 75.7476 24.6306 70.6652C14.4814 60.5696 6.06863 60.5782 -4.0892 70.7085C-9.16812 75.7736 -16.1831 78.8992 -23.9274 78.8992C-39.4159 78.8992 -51.9699 66.3793 -51.9699 50.9329C-51.9699 35.4865 -39.4159 22.9579 -23.9274 22.9579Z" fill="url(#paint3_linear_5481_122356)"/>
</g>
</g>

</svg>
