<svg width="160" height="160" viewBox="0 0 160 160" xmlns="http://www.w3.org/2000/svg">
  <defs>
<radialGradient id="paint0_radial_5481_122176" cx="0" cy="0" r="1" gradientUnits="userSpaceOnUse" gradientTransform="translate(130.774 99.185) rotate(90) scale(178.298 189.141)">
<stop offset="0.0885417" stop-color="#EB1000"/>
<stop offset="1" stop-color="#EB1000" stop-opacity="0"/>
</radialGradient>
<linearGradient id="paint1_linear_5481_122176" x1="108.785" y1="14.0289" x2="38.4466" y2="110.771" gradientUnits="userSpaceOnUse">
<stop stop-color="#FF4885"/>
<stop offset="1" stop-color="#FF4885" stop-opacity="0"/>
</linearGradient>
<linearGradient id="paint2_linear_5481_122176" x1="62.5653" y1="-28.6583" x2="75.605" y2="59.8709" gradientUnits="userSpaceOnUse">
<stop offset="0.15625" stop-color="#7A6AFD"/>
<stop offset="1" stop-color="#7A6AFD" stop-opacity="0"/>
</linearGradient>
<linearGradient id="paint3_linear_5481_122176" x1="-106.301" y1="148.856" x2="138.787" y2="97.4723" gradientUnits="userSpaceOnUse">
<stop stop-color="#30A7FE" stop-opacity="0"/>
<stop offset="0.432292" stop-color="#30A7FE" stop-opacity="0.994652"/>
<stop offset="0.609375" stop-color="#30A7FE"/>
<stop offset="1" stop-color="#30A7FE" stop-opacity="0"/>
</linearGradient>
<clipPath id="clip0_5481_122176">
<rect x="14" y="18" width="131" height="123.491" rx="10" fill="white"/>
</clipPath>
</defs>
<clipPath id="mask0_5481_122176">
<path fill-rule="evenodd" d="M45.75 26.0605H114.25C120.88 26.0605 126.25 31.4305 126.25 38.0605V87.6906C126.25 113.241 105.55 133.941 80 133.941C54.45 133.941 33.75 113.231 33.75 87.6906V38.0605C33.75 31.4305 39.12 26.0605 45.75 26.0605ZM49.83 91.8105C50.4585 92.1796 51.1466 92.3497 51.825 92.3505C53.2132 92.3488 54.5509 91.629 55.29 90.3505L69.25 66.1705C70.36 64.2605 69.7 61.8105 67.79 60.7105C65.88 59.6005 63.43 60.2605 62.33 62.1705L48.37 86.3505C47.26 88.2605 47.92 90.7105 49.83 91.8105ZM102.35 92.3505C105.24 92.3505 107.83 90.8505 109.28 88.3505C110.73 85.8405 110.73 82.8505 109.28 80.3505L96.71 58.5806C95.26 56.0806 92.67 54.5805 89.78 54.5805C86.89 54.5805 84.3 56.0806 82.85 58.5806L70.28 80.3505C68.83 82.8505 68.83 85.8505 70.28 88.3505C71.73 90.8505 74.32 92.3505 77.21 92.3505H102.35ZM89.7809 62.5706L102.351 84.3506H77.2109L89.7809 62.5706Z" fill="white"/>
</clipPath>
<g clip-path="url(#mask0_5481_122176)">
<g clip-path="url(#clip0_5481_122176)">
<rect x="14" y="18" width="131" height="123.491" rx="10" fill="#D9F4FD"/>
<ellipse cx="130.774" cy="99.185" rx="189.141" ry="178.298" fill="url(#paint0_radial_5481_122176)"/>
<path d="M2.20997 56.6786C0.107457 13.9948 35.1093 -22.214 80.3887 -24.196C125.668 -26.1779 164.079 6.81742 166.181 49.5012C168.284 92.1851 133.282 128.394 88.0026 130.376C42.7231 132.358 4.31247 99.3625 2.20997 56.6786Z" fill="url(#paint1_linear_5481_122176)"/>
<path d="M47.0947 -67.4529C36.8803 -73.4113 23.9386 -73.4478 13.6862 -67.5471L-88.8563 -8.527C-98.899 -2.74662 -98.9158 10.8972 -88.8867 16.6995L12.9782 75.6359C23.2153 81.5579 36.157 81.5508 46.3852 75.6148L148.04 16.6232C158.016 10.8334 158.034 -2.73425 148.071 -8.54595L47.0947 -67.4529Z" fill="url(#paint2_linear_5481_122176)"/>
<path d="M-51.3047 77.0672C-30.1693 77.0672 -11.0241 85.1309 2.83711 98.1398C30.5596 124.202 53.5432 124.224 81.2657 98.2066C95.127 85.1309 114.296 77.0449 135.455 77.0449C177.75 77.0672 212.012 109.278 212.012 149.039C212.012 188.801 177.75 220.989 135.455 220.989C114.248 220.989 95.0796 212.881 81.2183 199.805C53.5195 173.832 30.5596 173.854 2.83711 199.916C-11.0241 212.947 -30.1693 220.989 -51.3047 220.989C-93.5756 220.989 -127.838 188.779 -127.838 149.039C-127.838 109.3 -93.5756 77.0672 -51.3047 77.0672Z" fill="url(#paint3_linear_5481_122176)"/>
</g>
</g>

</svg>
