<svg width="48" height="48" viewBox="0 0 48 48" xmlns="http://www.w3.org/2000/svg">
  <defs>
<radialGradient id="paint0_radial_5481_122336" cx="0" cy="0" r="1" gradientUnits="userSpaceOnUse" gradientTransform="translate(39.8321 30.552) rotate(90) scale(53.4895 56.7422)">
<stop offset="0.0885417" stop-color="#EB1000"/>
<stop offset="1" stop-color="#EB1000" stop-opacity="0"/>
</radialGradient>
<linearGradient id="paint1_linear_5481_122336" x1="33.2368" y1="5.00653" x2="12.1351" y2="34.0291" gradientUnits="userSpaceOnUse">
<stop stop-color="#FF4885"/>
<stop offset="1" stop-color="#FF4885" stop-opacity="0"/>
</linearGradient>
<linearGradient id="paint2_linear_5481_122336" x1="19.3688" y1="-7.80043" x2="23.2807" y2="18.7583" gradientUnits="userSpaceOnUse">
<stop offset="0.15625" stop-color="#7A6AFD"/>
<stop offset="1" stop-color="#7A6AFD" stop-opacity="0"/>
</linearGradient>
<linearGradient id="paint3_linear_5481_122336" x1="-31.2906" y1="45.4534" x2="42.2356" y2="30.0384" gradientUnits="userSpaceOnUse">
<stop stop-color="#30A7FE" stop-opacity="0"/>
<stop offset="0.432292" stop-color="#30A7FE" stop-opacity="0.994652"/>
<stop offset="0.609375" stop-color="#30A7FE"/>
<stop offset="1" stop-color="#30A7FE" stop-opacity="0"/>
</linearGradient>
<clipPath id="clip0_5481_122336">
<rect x="4.80078" y="6.19727" width="39.3001" height="37.0472" rx="10" fill="white"/>
</clipPath>
</defs>
<clipPath id="mask0_5481_122336">
<path fill-rule="evenodd" d="M20.7712 14.4057L32.3392 10.8927L32.3422 10.8897C34.0672 10.3647 35.8072 11.6547 35.8072 13.4577V26.6157C35.8072 28.4187 34.0672 29.7087 32.3422 29.1837L20.7742 25.6647H20.7622L23.8942 32.9397C24.5662 34.4937 23.8522 36.2967 22.3012 36.9687C20.7472 37.6407 18.9442 36.9267 18.2722 35.3757L14.0512 25.6677H12.4552C9.34722 25.6677 6.82422 23.1447 6.82422 20.0367C6.82422 16.9287 9.34422 14.4057 12.4552 14.4057H20.7712ZM40.9252 24.7077L42.6502 25.2537C43.2802 25.4547 43.6312 26.1266 43.4302 26.7597C43.2682 27.2696 42.7972 27.5967 42.2872 27.5967C42.1672 27.5967 42.0442 27.5787 41.9242 27.5397L40.1992 26.9937C39.5692 26.7927 39.2182 26.1207 39.4192 25.4877C39.6202 24.8577 40.2922 24.5067 40.9252 24.7077ZM40.5624 15.2636C40.6824 15.2636 40.8054 15.2456 40.9254 15.2066L42.6504 14.6606C43.2834 14.4596 43.6314 13.7846 43.4304 13.1546C43.2294 12.5216 42.5574 12.1736 41.9244 12.3746L40.1994 12.9206C39.5664 13.1216 39.2184 13.7966 39.4194 14.4266C39.5814 14.9366 40.0524 15.2636 40.5624 15.2636ZM42.3685 21.1587H40.5625C39.8995 21.1587 39.3625 20.6217 39.3625 19.9587C39.3625 19.2957 39.8995 18.7587 40.5625 18.7587H42.3685C43.0315 18.7587 43.5685 19.2957 43.5685 19.9587C43.5685 20.6217 43.0315 21.1587 42.3685 21.1587Z" fill="white"/>
</clipPath>
<g clip-path="url(#mask0_5481_122336)">
<g clip-path="url(#clip0_5481_122336)">
<rect x="4.80078" y="6.19727" width="39.3001" height="37.0472" rx="10" fill="#D9F4FD"/>
<ellipse cx="39.8321" cy="30.552" rx="56.7422" ry="53.4895" fill="url(#paint0_radial_5481_122336)"/>
<path d="M1.26416 17.8014C0.633404 4.99629 11.134 -5.86634 24.7178 -6.46094C38.3016 -7.05553 49.8248 2.84308 50.4556 15.6482C51.0863 28.4534 40.5858 39.316 27.0019 39.9106C13.4181 40.5052 1.89491 30.6066 1.26416 17.8014Z" fill="url(#paint1_linear_5481_122336)"/>
<path d="M14.7276 -19.4388C11.6633 -21.2263 7.7808 -21.2373 4.70508 -19.4671L-26.0577 -1.76103C-29.0705 -0.0269138 -29.0755 4.06625 -26.0668 5.80692L4.49269 23.4878C7.5638 25.2644 11.4463 25.2623 14.5148 23.4815L45.0113 5.78404C48.0041 4.04708 48.0096 -0.0232016 45.0204 -1.76671L14.7276 -19.4388Z" fill="url(#paint2_linear_5481_122336)"/>
<path d="M-14.7918 23.9168C-8.45117 23.9168 -2.70764 26.336 1.45074 30.2386C9.76749 38.0573 16.6626 38.064 24.9793 30.2587C29.1377 26.336 34.8883 23.9102 41.2361 23.9102C53.9245 23.9168 64.2031 33.5799 64.2031 45.5084C64.2031 57.4369 53.9245 67.0934 41.2361 67.0934C34.8741 67.0934 29.1235 64.6609 24.9651 60.7382C16.6555 52.9462 9.76749 52.9529 1.45074 60.7716C-2.70764 64.6809 -8.45117 67.0934 -14.7918 67.0934C-27.4731 67.0934 -37.7517 57.4303 -37.7517 45.5084C-37.7517 33.5866 -27.4731 23.9168 -14.7918 23.9168Z" fill="url(#paint3_linear_5481_122336)"/>
</g>
</g>

</svg>
