<svg width="96" height="96" viewBox="0 0 96 96" xmlns="http://www.w3.org/2000/svg">
  <defs>
<radialGradient id="paint0_radial_5481_122500" cx="0" cy="0" r="1" gradientUnits="userSpaceOnUse" gradientTransform="translate(79.6642 61.104) rotate(90) scale(106.979 113.484)">
<stop offset="0.0885417" stop-color="#EB1000"/>
<stop offset="1" stop-color="#EB1000" stop-opacity="0"/>
</radialGradient>
<linearGradient id="paint1_linear_5481_122500" x1="66.4736" y1="10.0091" x2="24.2703" y2="68.0542" gradientUnits="userSpaceOnUse">
<stop stop-color="#FF4885"/>
<stop offset="1" stop-color="#FF4885" stop-opacity="0"/>
</linearGradient>
<linearGradient id="paint2_linear_5481_122500" x1="38.7415" y1="-15.6028" x2="46.5653" y2="37.5147" gradientUnits="userSpaceOnUse">
<stop offset="0.15625" stop-color="#7A6AFD"/>
<stop offset="1" stop-color="#7A6AFD" stop-opacity="0"/>
</linearGradient>
<linearGradient id="paint3_linear_5481_122500" x1="-62.5812" y1="90.9048" x2="84.4713" y2="60.0748" gradientUnits="userSpaceOnUse">
<stop stop-color="#30A7FE" stop-opacity="0"/>
<stop offset="0.432292" stop-color="#30A7FE" stop-opacity="0.994652"/>
<stop offset="0.609375" stop-color="#30A7FE"/>
<stop offset="1" stop-color="#30A7FE" stop-opacity="0"/>
</linearGradient>
<clipPath id="clip0_5481_122500">
<rect x="9.60156" y="12.3926" width="78.6002" height="74.0945" rx="10" fill="white"/>
</clipPath>
</defs>
<clipPath id="mask0_5481_122500">
<path fill-rule="evenodd" d="M41.5424 28.8113L64.6784 21.7853L64.6844 21.7793C68.1344 20.7293 71.6144 23.3093 71.6144 26.9153V53.2313C71.6144 56.8373 68.1344 59.4173 64.6844 58.3673L41.5484 51.3293H41.5244L47.7884 65.8793C49.1324 68.9873 47.7044 72.5933 44.6024 73.9373C41.4944 75.2813 37.8884 73.8533 36.5444 70.7513L28.1024 51.3353H24.9104C18.6944 51.3353 13.6484 46.2893 13.6484 40.0733C13.6484 33.8573 18.6884 28.8113 24.9104 28.8113H41.5424ZM81.8503 49.4153L85.3003 50.5073C86.5603 50.9093 87.2623 52.2533 86.8603 53.5193C86.5363 54.5393 85.5943 55.1933 84.5743 55.1933C84.3343 55.1933 84.0883 55.1573 83.8483 55.0793L80.3983 53.9873C79.1383 53.5853 78.4363 52.2413 78.8383 50.9753C79.2403 49.7153 80.5843 49.0133 81.8503 49.4153ZM81.1249 30.5273C81.3649 30.5273 81.6109 30.4913 81.8509 30.4133L85.3009 29.3213C86.5669 28.9193 87.2629 27.5693 86.8609 26.3093C86.4589 25.0433 85.1149 24.3473 83.8489 24.7493L80.3989 25.8413C79.1329 26.2433 78.4369 27.5933 78.8389 28.8533C79.1629 29.8733 80.1049 30.5273 81.1249 30.5273ZM84.737 42.3173H81.125C79.799 42.3173 78.725 41.2433 78.725 39.9173C78.725 38.5913 79.799 37.5173 81.125 37.5173H84.737C86.063 37.5173 87.137 38.5913 87.137 39.9173C87.137 41.2433 86.063 42.3173 84.737 42.3173Z" fill="white"/>
</clipPath>
<g clip-path="url(#mask0_5481_122500)">
<g clip-path="url(#clip0_5481_122500)">
<rect x="9.60156" y="12.3926" width="78.6002" height="74.0945" rx="10" fill="#D9F4FD"/>
<ellipse cx="79.6642" cy="61.104" rx="113.484" ry="106.979" fill="url(#paint0_radial_5481_122500)"/>
<path d="M2.52831 35.599C1.26681 9.98868 22.2679 -11.7366 49.4356 -12.9258C76.6032 -14.115 99.6497 5.68225 100.911 31.2925C102.173 56.9028 81.1716 78.6281 54.0039 79.8173C26.8362 81.0065 3.78982 61.2093 2.52831 35.599Z" fill="url(#paint1_linear_5481_122500)"/>
<path d="M29.4591 -38.8796C23.3305 -42.4546 15.5655 -42.4765 9.41406 -38.9361L-52.1114 -3.52401C-58.1371 -0.0557808 -58.1471 8.13054 -52.1297 11.6119L8.98929 46.9737C15.1315 50.5269 22.8965 50.5227 29.0335 46.9611L90.0265 11.5661C96.0121 8.09221 96.023 -0.0483564 90.0448 -3.53538L29.4591 -38.8796Z" fill="url(#paint2_linear_5481_122500)"/>
<path d="M-29.5836 47.8317C-16.9023 47.8317 -5.41527 52.67 2.90148 60.4753C19.535 76.1126 33.3252 76.126 49.9587 60.5154C58.2754 52.67 69.7767 47.8184 82.4722 47.8184C107.849 47.8317 128.406 67.1579 128.406 91.0149C128.406 114.872 107.849 134.185 82.4722 134.185C69.7483 134.185 58.247 129.32 49.9302 121.474C33.3109 105.89 19.535 105.904 2.90148 121.541C-5.41527 129.36 -16.9023 134.185 -29.5836 134.185C-54.9462 134.185 -75.5035 114.859 -75.5035 91.0149C-75.5035 67.1713 -54.9462 47.8317 -29.5836 47.8317Z" fill="url(#paint3_linear_5481_122500)"/>
</g>
</g>

</svg>
