<svg width="48" height="48" viewBox="0 0 48 48" xmlns="http://www.w3.org/2000/svg">
  <defs>
<radialGradient id="paint0_radial_5481_122423" cx="0" cy="0" r="1" gradientUnits="userSpaceOnUse" gradientTransform="translate(42.7877 31.5552) rotate(90) scale(69.3033)">
<stop offset="0.0885417" stop-color="#EB1000"/>
<stop offset="1" stop-color="#EB1000" stop-opacity="0"/>
</radialGradient>
<linearGradient id="paint1_linear_5481_122423" x1="34.7309" y1="-1.54315" x2="6.93278" y2="34.4977" gradientUnits="userSpaceOnUse">
<stop stop-color="#FF4885"/>
<stop offset="1" stop-color="#FF4885" stop-opacity="0"/>
</linearGradient>
<linearGradient id="paint2_linear_5481_122423" x1="17.7929" y1="-18.1348" x2="23.1553" y2="16.1845" gradientUnits="userSpaceOnUse">
<stop offset="0.15625" stop-color="#7A6AFD"/>
<stop offset="1" stop-color="#7A6AFD" stop-opacity="0"/>
</linearGradient>
<linearGradient id="paint3_linear_5481_122423" x1="-44.0785" y1="50.8616" x2="46.1473" y2="33.0298" gradientUnits="userSpaceOnUse">
<stop stop-color="#30A7FE" stop-opacity="0"/>
<stop offset="0.432292" stop-color="#30A7FE" stop-opacity="0.994652"/>
<stop offset="0.609375" stop-color="#30A7FE"/>
<stop offset="1" stop-color="#30A7FE" stop-opacity="0"/>
</linearGradient>
<clipPath id="clip0_5481_122423">
<rect width="48" height="48" rx="10" fill="white"/>
</clipPath>
</defs>
<clipPath id="mask0_5481_122423">
<path fill-rule="evenodd" d="M24 40.0234C33.1127 40.0234 40.5 32.6361 40.5 23.5234C40.5 14.4107 33.1127 7.02344 24 7.02344C14.8873 7.02344 7.5 14.4107 7.5 23.5234C7.5 32.6361 14.8873 40.0234 24 40.0234ZM24.4466 16.8289C24.0546 16.749 23.6479 16.7897 23.2767 16.9473C22.9051 17.1049 22.5826 17.3741 22.3535 17.7254C22.1242 18.0771 22 18.4936 22 18.9221C22 19.6125 21.4404 20.1721 20.75 20.1721C20.0596 20.1721 19.5 19.6125 19.5 18.9221C19.5 18.0125 19.7631 17.1208 20.2595 16.3598C20.756 15.5984 21.4649 15.0003 22.3001 14.6459C23.1356 14.2913 24.0568 14.1981 24.9458 14.3792C25.8347 14.5604 26.6469 15.0067 27.2814 15.6568C27.9157 16.3067 28.3443 17.1309 28.5177 18.0239C28.691 18.9167 28.6023 19.8425 28.2615 20.6853C27.9207 21.5284 27.3415 22.2539 26.5926 22.7665C26.2385 23.009 25.8942 23.3379 25.6485 23.693C25.399 24.0536 25.302 24.3648 25.302 24.5963V26.6833C25.302 27.3737 24.7424 27.9333 24.052 27.9333C23.3616 27.9333 22.802 27.3737 22.802 26.6833V24.5963C22.802 23.7008 23.1573 22.8997 23.5926 22.2706C24.0317 21.636 24.6047 21.0978 25.1804 20.7036C25.5175 20.4728 25.7848 20.1416 25.9438 19.7483C26.1029 19.3548 26.145 18.9201 26.0635 18.5004C25.982 18.0808 25.7817 17.6995 25.4923 17.403C25.2033 17.1069 24.8388 16.9088 24.4466 16.8289ZM25.5 31.0234C25.5 31.8519 24.8284 32.5234 24 32.5234C23.1716 32.5234 22.5 31.8519 22.5 31.0234C22.5 30.195 23.1716 29.5234 24 29.5234C24.8284 29.5234 25.5 30.195 25.5 31.0234Z" fill="#D9D9D9"/>
</clipPath>
<g clip-path="url(#mask0_5481_122423)">
<g clip-path="url(#clip0_5481_122423)">
<rect width="48" height="48" rx="10" fill="#D9F4FD"/>
<circle cx="42.7877" cy="31.5552" r="69.3033" fill="url(#paint0_radial_5481_122423)"/>
<path d="M-4.31959 15.0345C-5.08998 -1.55641 7.73508 -15.6305 24.326 -16.4009C40.9169 -17.1713 54.991 -4.34621 55.7613 12.2447C56.5317 28.8356 43.7067 42.9097 27.1158 43.6801C10.5249 44.4504 -3.54921 31.6254 -4.31959 15.0345Z" fill="url(#paint1_linear_5481_122423)"/>
<path d="M12.1243 -33.214C8.38167 -35.53 3.6397 -35.5442 -0.116893 -33.2506L-37.6896 -10.3099C-41.3694 -8.06314 -41.3755 -2.75987 -37.7007 -0.504581L-0.376298 22.4036C3.37467 24.7054 8.11665 24.7027 11.8644 22.3954L49.1119 -0.534222C52.7672 -2.7847 52.7739 -8.05833 49.1231 -10.3173L12.1243 -33.214Z" fill="url(#paint2_linear_5481_122423)"/>
<path d="M-23.9274 22.9579C-16.1831 22.9579 -9.16812 26.0922 -4.0892 31.1486C6.06863 41.2789 14.4901 41.2875 24.6479 31.1746C29.7268 26.0922 36.7505 22.9492 44.5034 22.9492C60.0006 22.9579 72.5547 35.4778 72.5547 50.9329C72.5547 66.388 60.0006 78.8992 44.5034 78.8992C36.7331 78.8992 29.7095 75.7476 24.6306 70.6652C14.4814 60.5696 6.06863 60.5782 -4.0892 70.7085C-9.16812 75.7736 -16.1831 78.8992 -23.9274 78.8992C-39.4159 78.8992 -51.9699 66.3793 -51.9699 50.9329C-51.9699 35.4865 -39.4159 22.9579 -23.9274 22.9579Z" fill="url(#paint3_linear_5481_122423)"/>
</g>
</g>

</svg>
