<svg width="48" height="48" viewBox="0 0 48 48" xmlns="http://www.w3.org/2000/svg">
  <defs>
<radialGradient id="paint0_radial_5481_122322" cx="0" cy="0" r="1" gradientUnits="userSpaceOnUse" gradientTransform="translate(39.1062 30.3118) rotate(90) scale(51.2844 54.4031)">
<stop offset="0.0885417" stop-color="#EB1000"/>
<stop offset="1" stop-color="#EB1000" stop-opacity="0"/>
</radialGradient>
<linearGradient id="paint1_linear_5481_122322" x1="32.7828" y1="5.819" x2="12.551" y2="33.6451" gradientUnits="userSpaceOnUse">
<stop stop-color="#FF4885"/>
<stop offset="1" stop-color="#FF4885" stop-opacity="0"/>
</linearGradient>
<linearGradient id="paint2_linear_5481_122322" x1="19.4888" y1="-6.45884" x2="23.2394" y2="19.0051" gradientUnits="userSpaceOnUse">
<stop offset="0.15625" stop-color="#7A6AFD"/>
<stop offset="1" stop-color="#7A6AFD" stop-opacity="0"/>
</linearGradient>
<linearGradient id="paint3_linear_5481_122322" x1="-29.0844" y1="44.5985" x2="41.4108" y2="29.819" gradientUnits="userSpaceOnUse">
<stop stop-color="#30A7FE" stop-opacity="0"/>
<stop offset="0.432292" stop-color="#30A7FE" stop-opacity="0.994652"/>
<stop offset="0.609375" stop-color="#30A7FE"/>
<stop offset="1" stop-color="#30A7FE" stop-opacity="0"/>
</linearGradient>
<clipPath id="clip0_5481_122322">
<rect x="5.51953" y="6.96094" width="37.68" height="35.52" rx="10" fill="white"/>
</clipPath>
</defs>
<clipPath id="mask0_5481_122322">
<path d="M38.7868 28.7254L35.1598 26.2114C35.3008 25.4944 35.3758 24.7564 35.3758 24.0004C35.3758 23.2444 35.3008 22.5034 35.1598 21.7894L38.7868 19.2754C39.5608 18.7384 39.7888 17.6974 39.3148 16.8874L37.7038 14.1334C37.2298 13.3204 36.2098 13.0114 35.3638 13.4254L31.3918 15.3574C30.3238 14.4424 29.0848 13.7254 27.7288 13.2544L27.3898 8.85341C27.3178 7.91441 26.5348 7.19141 25.5958 7.19141H22.4068C21.4648 7.19141 20.6848 7.91441 20.6128 8.85341L20.2738 13.2544C18.9178 13.7254 17.6788 14.4424 16.6108 15.3574L12.6388 13.4254C11.7928 13.0144 10.7728 13.3234 10.2988 14.1334L8.68781 16.8874C8.21381 17.7004 8.44181 18.7414 9.21581 19.2754L12.8428 21.7894C12.7018 22.5064 12.6268 23.2444 12.6268 24.0004C12.6268 24.7564 12.7018 25.4974 12.8428 26.2114L9.21581 28.7254C8.44181 29.2624 8.21381 30.3034 8.68781 31.1134L10.2988 33.8674C10.7728 34.6804 11.7928 34.9894 12.6388 34.5754L16.6108 32.6434C17.6788 33.5584 18.9178 34.2754 20.2738 34.7464L20.6128 39.1474C20.6848 40.0864 21.4678 40.8094 22.4068 40.8094H25.5958C26.5378 40.8094 27.3178 40.0864 27.3898 39.1474L27.7288 34.7464C29.0848 34.2754 30.3238 33.5584 31.3918 32.6434L35.3638 34.5754C36.2098 34.9864 37.2298 34.6774 37.7038 33.8674L39.3148 31.1134C39.7888 30.3004 39.5608 29.2594 38.7868 28.7254ZM23.9998 27.6784C21.9688 27.6784 20.3218 26.0314 20.3218 24.0004C20.3218 21.9694 21.9688 20.3224 23.9998 20.3224C26.0308 20.3224 27.6778 21.9694 27.6778 24.0004C27.6778 26.0314 26.0308 27.6784 23.9998 27.6784Z" fill="white"/>
</clipPath>
<g clip-path="url(#mask0_5481_122322)">
<g clip-path="url(#clip0_5481_122322)">
<rect x="5.51953" y="6.96094" width="37.68" height="35.52" rx="10" fill="#D9F4FD"/>
<ellipse cx="39.1062" cy="30.3118" rx="54.4031" ry="51.2844" fill="url(#paint0_radial_5481_122322)"/>
<path d="M2.12818 18.0865C1.52343 5.80919 11.5911 -4.60564 24.615 -5.17572C37.6388 -5.74581 48.687 3.74473 49.2917 16.022C49.8965 28.2993 39.8288 38.7141 26.8049 39.2842C13.7811 39.8543 2.73293 30.3637 2.12818 18.0865Z" fill="url(#paint1_linear_5481_122322)"/>
<path d="M15.0389 -17.6174C12.1009 -19.3312 8.3785 -19.3417 5.42957 -17.6445L-24.065 -0.668411C-26.9536 0.994216 -26.9584 4.91864 -24.0738 6.58755L5.22594 23.5396C8.17045 25.2429 11.8929 25.2409 14.8349 23.5335L44.0742 6.56562C46.9436 4.90026 46.9489 0.997775 44.083 -0.673862L15.0389 -17.6174Z" fill="url(#paint2_linear_5481_122322)"/>
<path d="M-13.2658 23.9498C-7.18652 23.9498 -1.67976 26.2692 2.30719 30.0109C10.2811 37.5073 16.8919 37.5137 24.8658 30.0302C28.8528 26.2692 34.3664 23.9434 40.4524 23.9434C52.6177 23.9498 62.4727 33.2145 62.4727 44.6513C62.4727 56.088 52.6177 65.3464 40.4524 65.3464C34.3527 65.3464 28.8392 63.0142 24.8522 59.2532C16.8851 51.7824 10.2811 51.7888 2.30719 59.2852C-1.67976 63.0334 -7.18652 65.3464 -13.2658 65.3464C-25.4243 65.3464 -35.2792 56.0816 -35.2792 44.6513C-35.2792 33.2209 -25.4243 23.9498 -13.2658 23.9498Z" fill="url(#paint3_linear_5481_122322)"/>
</g>
</g>

</svg>
