<svg width="96" height="96" viewBox="0 0 96 96" xmlns="http://www.w3.org/2000/svg">
  <defs>
<radialGradient id="paint0_radial_5481_122438" cx="0" cy="0" r="1" gradientUnits="userSpaceOnUse" gradientTransform="translate(80.9946 60.8233) rotate(90) scale(112.855 119.717)">
<stop offset="0.0885417" stop-color="#EB1000"/>
<stop offset="1" stop-color="#EB1000" stop-opacity="0"/>
</radialGradient>
<linearGradient id="paint1_linear_5481_122438" x1="67.0779" y1="6.9223" x2="22.5566" y2="68.1553" gradientUnits="userSpaceOnUse">
<stop stop-color="#FF4885"/>
<stop offset="1" stop-color="#FF4885" stop-opacity="0"/>
</linearGradient>
<linearGradient id="paint2_linear_5481_122438" x1="37.8197" y1="-20.0952" x2="46.0733" y2="35.9396" gradientUnits="userSpaceOnUse">
<stop offset="0.15625" stop-color="#7A6AFD"/>
<stop offset="1" stop-color="#7A6AFD" stop-opacity="0"/>
</linearGradient>
<linearGradient id="paint3_linear_5481_122438" x1="-69.0628" y1="92.2615" x2="86.0661" y2="59.7382" gradientUnits="userSpaceOnUse">
<stop stop-color="#30A7FE" stop-opacity="0"/>
<stop offset="0.432292" stop-color="#30A7FE" stop-opacity="0.994652"/>
<stop offset="0.609375" stop-color="#30A7FE"/>
<stop offset="1" stop-color="#30A7FE" stop-opacity="0"/>
</linearGradient>
<clipPath id="clip0_5481_122438">
<rect x="7.08203" y="9.43652" width="82.9171" height="78.1639" rx="10" fill="white"/>
</clipPath>
</defs>
<clipPath id="mask0_5481_122438">
<path fill-rule="evenodd" d="M82.9627 23.5108C83.9489 23.2887 84.8835 23.4135 85.6826 23.7786L23.4909 56.0704C23.2954 56.1719 23.1197 56.2966 22.9655 56.4393L9.65068 47.3306C6.58039 45.2302 7.49558 40.5055 11.1313 39.6867L82.9627 23.5108ZM56.894 79.6497L27.3803 59.4594L88.1028 27.9304C88.1324 27.915 88.1616 27.8991 88.1903 27.8827C88.1585 28.44 88.0115 29.0097 87.7293 29.5664L63.1413 78.0614C61.9744 80.3629 59.0305 81.1113 56.894 79.6497ZM24.598 78.7896V63.5606L38.6932 73.1639L29.375 80.9183C27.4988 82.4797 24.598 81.187 24.598 78.7896Z" fill="white"/>
</clipPath>
<g clip-path="url(#mask0_5481_122438)">
<g clip-path="url(#clip0_5481_122438)">
<rect x="7.08203" y="9.43652" width="82.9171" height="78.1639" rx="10" fill="#D9F4FD"/>
<ellipse cx="80.9946" cy="60.8233" rx="119.717" ry="112.855" fill="url(#paint0_radial_5481_122438)"/>
<path d="M-0.379408 33.9176C-1.7102 6.90071 20.4443 -16.0178 49.1041 -17.2723C77.7639 -18.5268 102.076 2.35775 103.407 29.3746C104.738 56.3915 82.5831 79.3099 53.9233 80.5644C25.2635 81.8189 0.951382 60.9344 -0.379408 33.9176Z" fill="url(#paint1_linear_5481_122438)"/>
<path d="M28.0276 -44.6504C21.5623 -48.4218 13.3708 -48.4449 6.88155 -44.71L-58.023 -7.35305C-64.3796 -3.69434 -64.3902 4.94159 -58.0423 8.61413L6.43344 45.9181C12.913 49.6665 21.1045 49.662 27.5785 45.9048L91.9214 8.56586C98.2357 4.90116 98.2473 -3.68651 91.9407 -7.36505L28.0276 -44.6504Z" fill="url(#paint2_linear_5481_122438)"/>
<path d="M-34.2529 46.8227C-20.8751 46.8227 -8.75718 51.9266 0.0163432 60.1607C17.5634 76.6569 32.1109 76.671 49.658 60.2029C58.4315 51.9266 70.5645 46.8086 83.9572 46.8086C110.728 46.8227 132.414 67.2103 132.414 92.3776C132.414 117.545 110.728 137.918 83.9572 137.918C70.5345 137.918 58.4015 132.786 49.628 124.51C32.0959 108.07 17.5634 108.084 0.0163432 124.58C-8.75718 132.829 -20.8751 137.918 -34.2529 137.918C-61.0084 137.918 -82.6947 117.531 -82.6947 92.3776C-82.6947 67.2244 -61.0084 46.8227 -34.2529 46.8227Z" fill="url(#paint3_linear_5481_122438)"/>
</g>
</g>

</svg>
