<svg width="160" height="160" viewBox="0 0 160 160" xmlns="http://www.w3.org/2000/svg">
  <defs>
<radialGradient id="paint0_radial_5481_122179" cx="0" cy="0" r="1" gradientUnits="userSpaceOnUse" gradientTransform="translate(134.028 101.473) rotate(90) scale(200.895 200.895)">
<stop offset="0.0885417" stop-color="#EB1000"/>
<stop offset="1" stop-color="#EB1000" stop-opacity="0"/>
</radialGradient>
<linearGradient id="paint1_linear_5481_122179" x1="110.677" y1="5.52542" x2="30.0966" y2="110" gradientUnits="userSpaceOnUse">
<stop stop-color="#FF4885"/>
<stop offset="1" stop-color="#FF4885" stop-opacity="0"/>
</linearGradient>
<linearGradient id="paint2_linear_5481_122179" x1="61.5811" y1="-42.5705" x2="77.1255" y2="56.9139" gradientUnits="userSpaceOnUse">
<stop offset="0.15625" stop-color="#7A6AFD"/>
<stop offset="1" stop-color="#7A6AFD" stop-opacity="0"/>
</linearGradient>
<linearGradient id="paint3_linear_5481_122179" x1="-117.778" y1="157.439" x2="143.767" y2="105.749" gradientUnits="userSpaceOnUse">
<stop stop-color="#30A7FE" stop-opacity="0"/>
<stop offset="0.432292" stop-color="#30A7FE" stop-opacity="0.994652"/>
<stop offset="0.609375" stop-color="#30A7FE"/>
<stop offset="1" stop-color="#30A7FE" stop-opacity="0"/>
</linearGradient>
<clipPath id="clip0_5481_122179">
<rect x="10" y="10" width="139.142" height="139.142" rx="10" fill="white"/>
</clipPath>
</defs>
<clipPath id="mask0_5481_122179">
<path fill-rule="evenodd" d="M36 34C27.1634 34 20 41.1634 20 50V110C20 118.837 27.1634 126 36 126H124C132.837 126 140 118.837 140 110V50C140 41.1634 132.837 34 124 34H36ZM32 53C32 51.8954 32.8954 51 34 51H41C42.1046 51 43 51.8954 43 53V58C43 59.1046 42.1046 60 41 60H34C32.8954 60 32 59.1046 32 58V53ZM32 102C32 100.895 32.8954 100 34 100H41C42.1046 100 43 100.895 43 102V107C43 108.105 42.1046 109 41 109H34C32.8954 109 32 108.105 32 107V102ZM49 53C49 51.8954 49.8954 51 51 51H58C59.1046 51 60 51.8954 60 53V58C60 59.1046 59.1046 60 58 60H51C49.8954 60 49 59.1046 49 58V53ZM49 102C49 100.895 49.8954 100 51 100H58C59.1046 100 60 100.895 60 102V107C60 108.105 59.1046 109 58 109H51C49.8954 109 49 108.105 49 107V102ZM66 53C66 51.8954 66.8954 51 68 51H75C76.1046 51 77 51.8954 77 53V58C77 59.1046 76.1046 60 75 60H68C66.8954 60 66 59.1046 66 58V53ZM66 102C66 100.895 66.8954 100 68 100H75C76.1046 100 77 100.895 77 102V107C77 108.105 76.1046 109 75 109H68C66.8954 109 66 108.105 66 107V102ZM83 53C83 51.8954 83.8954 51 85 51H92C93.1046 51 94 51.8954 94 53V58C94 59.1046 93.1046 60 92 60H85C83.8954 60 83 59.1046 83 58V53ZM83 102C83 100.895 83.8954 100 85 100H92C93.1046 100 94 100.895 94 102V107C94 108.105 93.1046 109 92 109H85C83.8954 109 83 108.105 83 107V102ZM100 53C100 51.8954 100.895 51 102 51H109C110.105 51 111 51.8954 111 53V58C111 59.1046 110.105 60 109 60H102C100.895 60 100 59.1046 100 58V53ZM100 102C100 100.895 100.895 100 102 100H109C110.105 100 111 100.895 111 102V107C111 108.105 110.105 109 109 109H102C100.895 109 100 108.105 100 107V102ZM117 53C117 51.8954 117.895 51 119 51H126C127.105 51 128 51.8954 128 53V58C128 59.1046 127.105 60 126 60H119C117.895 60 117 59.1046 117 58V53ZM117 102C117 100.895 117.895 100 119 100H126C127.105 100 128 100.895 128 102V107C128 108.105 127.105 109 126 109H119C117.895 109 117 108.105 117 107V102Z" fill="white"/>
</clipPath>
<g clip-path="url(#mask0_5481_122179)">
<g clip-path="url(#clip0_5481_122179)">
<rect x="10" y="10" width="139.142" height="139.142" rx="10" fill="#D9F4FD"/>
<ellipse cx="134.028" cy="101.473" rx="200.895" ry="200.895" fill="url(#paint0_radial_5481_122179)"/>
<path d="M-2.5216 53.5804C-4.75477 5.48699 32.4223 -35.3108 80.5157 -37.5439C128.609 -39.7771 169.407 -2.60005 171.64 45.4934C173.873 93.5868 136.696 134.385 88.6028 136.618C40.5093 138.851 -0.288425 101.674 -2.5216 53.5804Z" fill="url(#paint1_linear_5481_122179)"/>
<path d="M45.149 -86.2817C34.2998 -92.9952 20.5539 -93.0364 9.66433 -86.3879L-99.2508 -19.8878C-109.918 -13.3748 -109.936 1.99825 -99.2832 8.53584L8.91237 74.9417C19.7856 81.6142 33.5316 81.6062 44.3955 74.9179L152.368 8.44992C162.964 1.92628 162.983 -13.3608 152.4 -19.9091L45.149 -86.2817Z" fill="url(#paint2_linear_5481_122179)"/>
<path d="M-59.3643 76.5524C-36.9153 76.5524 -16.5804 85.6381 -1.85772 100.296C27.5876 129.661 51.9996 129.686 81.445 100.371C96.1677 85.6381 116.528 76.5273 139.002 76.5273C183.925 76.5524 220.316 112.845 220.316 157.646C220.316 202.447 183.925 238.714 139.002 238.714C116.477 238.714 96.1173 229.578 81.3947 214.846C51.9745 185.581 27.5876 185.606 -1.85772 214.971C-16.5804 229.654 -36.9153 238.714 -59.3643 238.714C-104.262 238.714 -140.654 202.422 -140.654 157.646C-140.654 112.87 -104.262 76.5524 -59.3643 76.5524Z" fill="url(#paint3_linear_5481_122179)"/>
</g>
</g>

</svg>
