<svg width="96" height="96" viewBox="0 0 96 96" xmlns="http://www.w3.org/2000/svg">
  <defs>
<radialGradient id="paint0_radial_5481_122569" cx="0" cy="0" r="1" gradientUnits="userSpaceOnUse" gradientTransform="translate(85.5714 63.1124) rotate(90) scale(138.607)">
<stop offset="0.0885417" stop-color="#EB1000"/>
<stop offset="1" stop-color="#EB1000" stop-opacity="0"/>
</radialGradient>
<linearGradient id="paint1_linear_5481_122569" x1="69.4617" y1="-3.08825" x2="13.8656" y2="68.9935" gradientUnits="userSpaceOnUse">
<stop stop-color="#FF4885"/>
<stop offset="1" stop-color="#FF4885" stop-opacity="0"/>
</linearGradient>
<linearGradient id="paint2_linear_5481_122569" x1="35.5898" y1="-36.2716" x2="46.3146" y2="32.3671" gradientUnits="userSpaceOnUse">
<stop offset="0.15625" stop-color="#7A6AFD"/>
<stop offset="1" stop-color="#7A6AFD" stop-opacity="0"/>
</linearGradient>
<linearGradient id="paint3_linear_5481_122569" x1="-88.1609" y1="101.725" x2="92.2907" y2="66.0615" gradientUnits="userSpaceOnUse">
<stop stop-color="#30A7FE" stop-opacity="0"/>
<stop offset="0.432292" stop-color="#30A7FE" stop-opacity="0.994652"/>
<stop offset="0.609375" stop-color="#30A7FE"/>
<stop offset="1" stop-color="#30A7FE" stop-opacity="0"/>
</linearGradient>
<clipPath id="clip0_5481_122569">
<rect width="96" height="96" rx="10" fill="white"/>
</clipPath>
</defs>
<clipPath id="mask0_5481_122569">
<path fill-rule="evenodd" d="M47.9999 13.2344C49.1045 13.2344 49.9999 14.1298 49.9999 15.2344V19.879C49.9999 20.9835 49.1045 21.879 47.9999 21.879C46.8953 21.879 45.9999 20.9835 45.9999 19.879V15.2344C45.9999 14.1298 46.8953 13.2344 47.9999 13.2344ZM47.7715 33.4539C39.8416 33.5758 33.4508 40.042 33.4508 48.0009C33.4508 55.9598 39.8416 62.426 47.7715 62.5479V33.4539ZM47.9996 29.4521C37.7554 29.4521 29.4508 37.7567 29.4508 48.0009C29.4508 58.2451 37.7554 66.5496 47.9996 66.5496C58.2438 66.5496 66.5483 58.2451 66.5483 48.0009C66.5483 37.7567 58.2438 29.4521 47.9996 29.4521ZM50 76.1212C50 75.0166 49.1046 74.1212 48 74.1212C46.8954 74.1212 46 75.0166 46 76.1212V80.7658C46 81.8703 46.8954 82.7658 48 82.7658C49.1046 82.7658 50 81.8703 50 80.7658V76.1212ZM82.7656 48C82.7656 49.1046 81.8702 50 80.7656 50H76.1211C75.0165 50 74.1211 49.1046 74.1211 48C74.1211 46.8954 75.0165 46 76.1211 46H80.7656C81.8702 46 82.7656 46.8954 82.7656 48ZM19.879 50C20.9835 50 21.879 49.1046 21.879 48C21.879 46.8954 20.9835 46 19.879 46H15.2344C14.1298 46 13.2344 46.8954 13.2344 48C13.2344 49.1046 14.1298 50 15.2344 50H19.879ZM72.5828 23.4161C73.3638 24.1972 73.3638 25.4635 72.5828 26.2445L69.2986 29.5288C68.5175 30.3098 67.2512 30.3098 66.4702 29.5287C65.6891 28.7477 65.6891 27.4814 66.4702 26.7003L69.7544 23.4161C70.5354 22.6351 71.8018 22.6351 72.5828 23.4161ZM29.5291 69.2978C30.3101 68.5167 30.3101 67.2504 29.5291 66.4693C28.748 65.6883 27.4817 65.6883 26.7006 66.4693L23.4164 69.7536C22.6354 70.5346 22.6354 71.8009 23.4164 72.582C24.1975 73.363 25.4638 73.363 26.2449 72.582L29.5291 69.2978ZM23.4162 23.4161C22.6352 24.1972 22.6352 25.4635 23.4162 26.2445L26.7005 29.5288C27.4815 30.3098 28.7478 30.3098 29.5289 29.5287C30.3099 28.7477 30.3099 27.4814 29.5289 26.7003L26.2447 23.4161C25.4636 22.6351 24.1973 22.6351 23.4162 23.4161ZM66.47 69.2977C65.689 68.5167 65.689 67.2503 66.47 66.4693C67.2511 65.6882 68.5174 65.6882 69.2985 66.4693L72.5827 69.7535C73.3637 70.5346 73.3637 71.8009 72.5827 72.5819C71.8016 73.363 70.5353 73.363 69.7543 72.5819L66.47 69.2977Z" fill="white"/>
</clipPath>
<g clip-path="url(#mask0_5481_122569)">
<g clip-path="url(#clip0_5481_122569)">
<rect width="96" height="96" rx="10" fill="#D9F4FD"/>
<circle cx="85.5714" cy="63.1124" r="138.607" fill="url(#paint0_radial_5481_122569)"/>
<path d="M-8.63919 30.067C-10.18 -3.11477 15.4702 -31.263 48.652 -32.8037C81.8337 -34.3445 109.982 -8.69438 111.523 24.4874C113.063 57.6692 87.4133 85.8174 54.2316 87.3582C21.0498 88.8989 -7.09842 63.2488 -8.63919 30.067Z" fill="url(#paint1_linear_5481_122569)"/>
<path d="M24.2526 -66.43C16.7672 -71.0619 7.28331 -71.0903 -0.22988 -66.5032L-75.3753 -20.6218C-82.7348 -16.1282 -82.7471 -5.52169 -75.3976 -1.01111L-0.748691 44.8052C6.75324 49.4089 16.2372 49.4034 23.7327 44.7888L98.2278 -1.0704C105.538 -5.57135 105.552 -16.1186 98.2501 -20.6366L24.2526 -66.43Z" fill="url(#paint2_linear_5481_122569)"/>
<path d="M-47.8586 45.9177C-32.3701 45.9177 -18.3401 52.1863 -8.18231 62.2992C12.1334 82.5597 28.9763 82.577 49.2919 62.3512C59.4498 52.1863 73.4971 45.9004 89.003 45.9004C119.997 45.9177 145.105 70.9575 145.105 101.868C145.105 132.778 119.997 157.8 89.003 157.8C73.4624 157.8 59.415 151.497 49.2572 141.332C28.9589 121.141 12.1334 121.158 -8.18231 141.419C-18.3401 151.549 -32.3701 157.8 -47.8586 157.8C-78.8357 157.8 -103.944 132.761 -103.944 101.868C-103.944 70.9749 -78.8357 45.9177 -47.8586 45.9177Z" fill="url(#paint3_linear_5481_122569)"/>
</g>
</g>

</svg>
