<svg width="160" height="160" viewBox="0 0 160 160" xmlns="http://www.w3.org/2000/svg">
  <defs>
<radialGradient id="paint0_radial_5481_122171" cx="0" cy="0" r="1" gradientUnits="userSpaceOnUse" gradientTransform="translate(129.774 101.839) rotate(90) scale(178.298 189.141)">
<stop offset="0.0885417" stop-color="#EB1000"/>
<stop offset="1" stop-color="#EB1000" stop-opacity="0"/>
</radialGradient>
<linearGradient id="paint1_linear_5481_122171" x1="107.785" y1="16.6832" x2="37.4466" y2="113.425" gradientUnits="userSpaceOnUse">
<stop stop-color="#FF4885"/>
<stop offset="1" stop-color="#FF4885" stop-opacity="0"/>
</linearGradient>
<linearGradient id="paint2_linear_5481_122171" x1="61.5653" y1="-26.004" x2="74.605" y2="62.5252" gradientUnits="userSpaceOnUse">
<stop offset="0.15625" stop-color="#7A6AFD"/>
<stop offset="1" stop-color="#7A6AFD" stop-opacity="0"/>
</linearGradient>
<linearGradient id="paint3_linear_5481_122171" x1="-107.301" y1="151.51" x2="137.787" y2="100.127" gradientUnits="userSpaceOnUse">
<stop stop-color="#30A7FE" stop-opacity="0"/>
<stop offset="0.432292" stop-color="#30A7FE" stop-opacity="0.994652"/>
<stop offset="0.609375" stop-color="#30A7FE"/>
<stop offset="1" stop-color="#30A7FE" stop-opacity="0"/>
</linearGradient>
<clipPath id="clip0_5481_122171">
<rect x="13" y="20.6543" width="131" height="123.491" rx="10" fill="white"/>
</clipPath>
</defs>
<clipPath id="mask0_5481_122171">
<path fill-rule="evenodd" d="M84 29.9497C84 32.1597 82.21 33.9497 80 33.9497C77.79 33.9497 76 32.1597 76 29.9497V23.9297C76 21.7197 77.79 19.9297 80 19.9297C82.21 19.9297 84 21.7197 84 23.9297V29.9497ZM77.8004 43.6797C62.9504 44.7397 50.9304 56.8497 49.8304 71.8397C49.0204 82.9797 54.1104 92.9597 62.2804 98.9297C64.9304 100.87 66.5504 103.94 66.5504 107.25V114H93.0804C93.1524 114 93.2244 114.01 93.2964 114.021L93.2968 114.021C93.3447 114.029 93.3925 114.036 93.4404 114.04V107.26C93.4404 104.03 94.9204 100.95 97.5204 99.0697C105.22 93.5297 110.24 84.4397 110.24 74.1597C110.24 56.5397 95.4904 42.4097 77.7904 43.6697L77.8004 43.6797ZM97.1704 74.5797C94.9604 74.5797 93.1704 72.7897 93.1704 70.5797C93.1704 65.5697 88.7304 61.4997 83.2704 61.4997C81.0604 61.4997 79.2704 59.7097 79.2704 57.4997C79.2704 55.2897 81.0604 53.4997 83.2704 53.4997C93.1404 53.4997 101.17 61.1597 101.17 70.5797C101.17 72.7897 99.3804 74.5797 97.1704 74.5797ZM66.5605 122V126.8C66.5605 129.61 68.8205 131.89 71.6005 131.89H88.4106C91.1906 131.89 93.4505 129.61 93.4505 126.8V121.96C93.4025 121.964 93.3546 121.971 93.3066 121.978C93.2346 121.989 93.1626 122 93.0905 122H66.5605ZM29.9492 69.9797H35.9692C38.1792 69.9797 39.9692 71.7697 39.9692 73.9797C39.9692 76.1897 38.1792 77.9797 35.9692 77.9797H29.9492C27.7392 77.9797 25.9492 76.1897 25.9492 73.9797C25.9492 71.7697 27.7392 69.9797 29.9492 69.9797ZM130.04 69.9797H124.02C121.81 69.9797 120.02 71.7697 120.02 73.9797C120.02 76.1897 121.81 77.9797 124.02 77.9797H130.04C132.25 77.9797 134.04 76.1897 134.04 73.9797C134.04 71.7697 132.25 69.9797 130.04 69.9797ZM112.561 35.7597L108.311 40.0097C106.751 41.5697 106.751 44.0997 108.311 45.6697C109.091 46.4497 110.111 46.8397 111.141 46.8397C112.171 46.8397 113.191 46.4497 113.971 45.6697L118.221 41.4197C119.781 39.8597 119.781 37.3297 118.221 35.7597C116.661 34.1997 114.131 34.1997 112.561 35.7597ZM47.4491 35.7697L51.6991 40.0197C53.2591 41.5897 53.2591 44.1197 51.6991 45.6797C50.9191 46.4597 49.8991 46.8497 48.8691 46.8497C47.8391 46.8497 46.8191 46.4597 46.0391 45.6797L41.7891 41.4297C40.2291 39.8597 40.2291 37.3297 41.7891 35.7697C43.3591 34.2097 45.8891 34.2097 47.4491 35.7697Z" fill="white"/>
</clipPath>
<g clip-path="url(#mask0_5481_122171)">
<g clip-path="url(#clip0_5481_122171)">
<rect x="13" y="20.6543" width="131" height="123.491" rx="10" fill="#D9F4FD"/>
<ellipse cx="129.774" cy="101.839" rx="189.141" ry="178.298" fill="url(#paint0_radial_5481_122171)"/>
<path d="M1.20997 59.3329C-0.892543 16.6491 34.1093 -19.5597 79.3887 -21.5417C124.668 -23.5236 163.079 9.47171 165.181 52.1555C167.284 94.8394 132.282 131.048 87.0026 133.03C41.7231 135.012 3.31247 102.017 1.20997 59.3329Z" fill="url(#paint1_linear_5481_122171)"/>
<path d="M46.0947 -64.7986C35.8803 -70.757 22.9386 -70.7935 12.6862 -64.8928L-89.8563 -5.87271C-99.899 -0.0923241 -99.9158 13.5515 -89.8867 19.3538L11.9782 78.2902C22.2153 84.2121 35.157 84.2051 45.3852 78.2691L147.04 19.2775C157.016 13.4877 157.034 -0.0799501 147.071 -5.89166L46.0947 -64.7986Z" fill="url(#paint2_linear_5481_122171)"/>
<path d="M-52.3047 79.7215C-31.1693 79.7215 -12.0241 87.7852 1.83711 100.794C29.5596 126.856 52.5432 126.879 80.2657 100.861C94.127 87.7852 113.296 79.6992 134.455 79.6992C176.75 79.7215 211.012 111.932 211.012 151.693C211.012 191.455 176.75 223.643 134.455 223.643C113.248 223.643 94.0796 215.535 80.2183 202.459C52.5195 176.486 29.5596 176.508 1.83711 202.571C-12.0241 215.602 -31.1693 223.643 -52.3047 223.643C-94.5756 223.643 -128.838 191.433 -128.838 151.693C-128.838 111.954 -94.5756 79.7215 -52.3047 79.7215Z" fill="url(#paint3_linear_5481_122171)"/>
</g>
</g>

</svg>
