<svg width="96" height="96" viewBox="0 0 96 96" xmlns="http://www.w3.org/2000/svg">
  <defs>
<radialGradient id="paint0_radial_5481_122595" cx="0" cy="0" r="1" gradientUnits="userSpaceOnUse" gradientTransform="translate(85.5714 63.1124) rotate(90) scale(138.607)">
<stop offset="0.0885417" stop-color="#EB1000"/>
<stop offset="1" stop-color="#EB1000" stop-opacity="0"/>
</radialGradient>
<linearGradient id="paint1_linear_5481_122595" x1="69.4617" y1="-3.08825" x2="13.8656" y2="68.9935" gradientUnits="userSpaceOnUse">
<stop stop-color="#FF4885"/>
<stop offset="1" stop-color="#FF4885" stop-opacity="0"/>
</linearGradient>
<linearGradient id="paint2_linear_5481_122595" x1="35.5898" y1="-36.2716" x2="46.3146" y2="32.3671" gradientUnits="userSpaceOnUse">
<stop offset="0.15625" stop-color="#7A6AFD"/>
<stop offset="1" stop-color="#7A6AFD" stop-opacity="0"/>
</linearGradient>
<linearGradient id="paint3_linear_5481_122595" x1="-88.1609" y1="101.725" x2="92.2907" y2="66.0615" gradientUnits="userSpaceOnUse">
<stop stop-color="#30A7FE" stop-opacity="0"/>
<stop offset="0.432292" stop-color="#30A7FE" stop-opacity="0.994652"/>
<stop offset="0.609375" stop-color="#30A7FE"/>
<stop offset="1" stop-color="#30A7FE" stop-opacity="0"/>
</linearGradient>
<clipPath id="clip0_5481_122595">
<rect width="96" height="96" rx="10" fill="white"/>
</clipPath>
</defs>
<clipPath id="mask0_5481_122595">
<path fill-rule="evenodd" d="M18.6525 50.734L18.6522 50.7334C18.6454 50.7202 18.6382 50.7071 18.6308 50.6942C17.2676 48.329 17.6078 45.7308 19.5307 44.2861C21.5125 42.7972 24.3169 43.1802 25.83 45.1474L31.7176 52.8035C31.9787 53.1429 32.4269 53.2785 32.8323 53.1406C33.2377 53.0028 33.5103 52.6221 33.5103 52.1939V26.6305C33.5103 23.9331 35.6863 21.7541 38.3623 21.7541C41.0384 21.7541 43.2143 23.9331 43.2143 26.6305V43.0716C43.2143 43.6239 43.662 44.0716 44.2143 44.0716H44.2262C44.7785 44.0716 45.2262 43.6239 45.2262 43.0716V20.8765C45.2262 18.179 47.4022 16 50.0782 16C52.7543 16 54.9302 18.179 54.9302 20.8765V43.0746C54.9302 43.6268 55.3779 44.0746 55.9302 44.0746H55.9421C56.4944 44.0746 56.9421 43.6268 56.9421 43.0746V23.6595C56.9421 20.962 59.118 18.783 61.7941 18.783C64.4734 18.783 66.649 20.9623 66.649 23.6595V44.5377C66.649 45.0683 67.0635 45.5066 67.5933 45.5362C68.1231 45.5657 68.5838 45.1764 68.6428 44.649L69.2019 39.6579L69.7609 34.6668L69.761 34.6668L69.7624 34.6528C70.0472 31.7428 72.6395 30.2951 75.0192 30.7625C76.9355 31.1389 78.4426 32.858 78.1568 35.6272L75.6701 53.0169C75.6531 53.0659 75.6396 53.1168 75.6302 53.1693C73.6298 64.2822 70.3388 70.9474 66.1404 74.8465C61.969 78.7206 56.7532 80 50.5599 80C46.5101 80 42.4948 78.2578 38.7006 75.5307C34.9118 72.8075 31.4182 69.1552 28.434 65.4677C25.4536 61.7849 23.0052 58.0969 21.3008 55.3268C20.4493 53.9428 19.7851 52.7904 19.3346 51.9858C19.1094 51.5835 18.9377 51.2683 18.8229 51.0547C18.7655 50.9479 18.7222 50.8666 18.6937 50.8124L18.6618 50.7518L18.6542 50.7372L18.6525 50.734Z" fill="white"/>
</clipPath>
<g clip-path="url(#mask0_5481_122595)">
<g clip-path="url(#clip0_5481_122595)">
<rect width="96" height="96" rx="10" fill="#D9F4FD"/>
<circle cx="85.5714" cy="63.1124" r="138.607" fill="url(#paint0_radial_5481_122595)"/>
<path d="M-8.63919 30.067C-10.18 -3.11477 15.4702 -31.263 48.652 -32.8037C81.8337 -34.3445 109.982 -8.69438 111.523 24.4874C113.063 57.6692 87.4133 85.8174 54.2316 87.3582C21.0498 88.8989 -7.09842 63.2488 -8.63919 30.067Z" fill="url(#paint1_linear_5481_122595)"/>
<path d="M24.2526 -66.43C16.7672 -71.0619 7.28331 -71.0903 -0.22988 -66.5032L-75.3753 -20.6218C-82.7348 -16.1282 -82.7471 -5.52169 -75.3976 -1.01111L-0.748691 44.8052C6.75324 49.4089 16.2372 49.4034 23.7327 44.7888L98.2278 -1.0704C105.538 -5.57135 105.552 -16.1186 98.2501 -20.6366L24.2526 -66.43Z" fill="url(#paint2_linear_5481_122595)"/>
<path d="M-47.8586 45.9177C-32.3701 45.9177 -18.3401 52.1863 -8.18231 62.2992C12.1334 82.5597 28.9763 82.577 49.2919 62.3512C59.4498 52.1863 73.4971 45.9004 89.003 45.9004C119.997 45.9177 145.105 70.9575 145.105 101.868C145.105 132.778 119.997 157.8 89.003 157.8C73.4624 157.8 59.415 151.497 49.2572 141.332C28.9589 121.141 12.1334 121.158 -8.18231 141.419C-18.3401 151.549 -32.3701 157.8 -47.8586 157.8C-78.8357 157.8 -103.944 132.761 -103.944 101.868C-103.944 70.9749 -78.8357 45.9177 -47.8586 45.9177Z" fill="url(#paint3_linear_5481_122595)"/>
</g>
</g>

</svg>
