<svg width="96" height="96" viewBox="0 0 96 96" xmlns="http://www.w3.org/2000/svg">
  <defs>
<radialGradient id="paint0_radial_5481_122458" cx="0" cy="0" r="1" gradientUnits="userSpaceOnUse" gradientTransform="translate(78.2124 60.6226) rotate(90) scale(102.569 108.806)">
<stop offset="0.0885417" stop-color="#EB1000"/>
<stop offset="1" stop-color="#EB1000" stop-opacity="0"/>
</radialGradient>
<linearGradient id="paint1_linear_5481_122458" x1="65.5656" y1="11.6361" x2="25.102" y2="67.2883" gradientUnits="userSpaceOnUse">
<stop stop-color="#FF4885"/>
<stop offset="1" stop-color="#FF4885" stop-opacity="0"/>
</linearGradient>
<linearGradient id="paint2_linear_5481_122458" x1="38.9776" y1="-12.9206" x2="46.4789" y2="38.0072" gradientUnits="userSpaceOnUse">
<stop offset="0.15625" stop-color="#7A6AFD"/>
<stop offset="1" stop-color="#7A6AFD" stop-opacity="0"/>
</linearGradient>
<linearGradient id="paint3_linear_5481_122458" x1="-58.1649" y1="89.197" x2="82.8254" y2="59.6379" gradientUnits="userSpaceOnUse">
<stop stop-color="#30A7FE" stop-opacity="0"/>
<stop offset="0.432292" stop-color="#30A7FE" stop-opacity="0.994652"/>
<stop offset="0.609375" stop-color="#30A7FE"/>
<stop offset="1" stop-color="#30A7FE" stop-opacity="0"/>
</linearGradient>
<clipPath id="clip0_5481_122458">
<rect x="11.0391" y="13.9199" width="75.36" height="71.04" rx="10" fill="white"/>
</clipPath>
</defs>
<clipPath id="mask0_5481_122458">
<path fill-rule="evenodd" d="M32.9986 24.0008H27.8439C23.7319 24.0008 20.3984 27.3708 20.3984 31.528V71.6735C20.3984 75.8307 23.7319 79.2008 27.8439 79.2008H67.553C71.665 79.2008 74.9984 75.8307 74.9984 71.6735V31.528C74.9984 27.3708 71.665 24.0008 67.553 24.0008H61.7985C61.7986 24.0065 61.7986 24.0122 61.7986 24.018L61.7871 33.618C61.7863 34.2545 61.5327 34.8647 61.0821 35.3142C60.6315 35.7638 60.0207 36.0159 59.3842 36.0151L35.3842 35.9864C34.0588 35.9848 32.9855 34.9091 32.9871 33.5836L32.9986 24.0008ZM37.79 31.1893L37.7957 26.3893L40.1957 26.3922C41.5212 26.3938 42.597 25.3205 42.5986 23.995L42.6014 21.595C42.6046 18.9441 44.7562 16.7976 47.4072 16.8008C50.0582 16.804 52.2046 18.9555 52.2014 21.6065L52.1986 24.0065C52.197 25.332 53.2702 26.4078 54.5957 26.4094L56.9957 26.4123L56.99 31.2123L37.79 31.1893Z" fill="white"/>
</clipPath>
<g clip-path="url(#mask0_5481_122458)">
<g clip-path="url(#clip0_5481_122458)">
<rect x="11.0391" y="13.9199" width="75.36" height="71.04" rx="10" fill="#D9F4FD"/>
<ellipse cx="78.2124" cy="60.6226" rx="108.806" ry="102.569" fill="url(#paint0_radial_5481_122458)"/>
<path d="M4.25636 36.171C3.04686 11.6164 23.1822 -9.21323 49.2299 -10.3534C75.2776 -11.4936 97.3739 7.48752 98.5834 32.0421C99.7929 56.5966 79.6576 77.4262 53.6099 78.5664C27.5622 79.7066 5.46586 60.7255 4.25636 36.171Z" fill="url(#paint1_linear_5481_122458)"/>
<path d="M30.0779 -35.2378C24.2019 -38.6654 16.757 -38.6864 10.8591 -35.292L-48.13 -1.33975C-53.9073 1.9855 -53.9169 9.83435 -48.1475 13.1722L10.4519 47.0763C16.3409 50.483 23.7858 50.4789 29.6697 47.0641L88.1484 13.1283C93.8873 9.7976 93.8977 1.99262 88.1659 -1.35065L30.0779 -35.2378Z" fill="url(#paint2_linear_5481_122458)"/>
<path d="M-26.5276 47.8995C-14.3691 47.8995 -3.35561 52.5383 4.61829 60.0219C20.5661 75.0146 33.7878 75.0274 49.7356 60.0603C57.7095 52.5383 68.7366 47.8867 80.9088 47.8867C105.239 47.8995 124.949 66.429 124.949 89.3025C124.949 112.176 105.239 130.693 80.9088 130.693C68.7094 130.693 57.6822 126.028 49.7083 118.506C33.7741 103.565 20.5661 103.578 4.61829 118.57C-3.35561 126.067 -14.3691 130.693 -26.5276 130.693C-50.8446 130.693 -70.5544 112.163 -70.5544 89.3025C-70.5544 66.4418 -50.8446 47.8995 -26.5276 47.8995Z" fill="url(#paint3_linear_5481_122458)"/>
</g>
</g>

</svg>
