<svg width="160" height="160" viewBox="0 0 160 160" xmlns="http://www.w3.org/2000/svg">
  <defs>
<radialGradient id="paint0_radial_5481_122199" cx="0" cy="0" r="1" gradientUnits="userSpaceOnUse" gradientTransform="translate(142.62 105.187) rotate(90) scale(231.011)">
<stop offset="0.0885417" stop-color="#EB1000"/>
<stop offset="1" stop-color="#EB1000" stop-opacity="0"/>
</radialGradient>
<linearGradient id="paint1_linear_5481_122199" x1="115.768" y1="-5.14512" x2="23.108" y2="114.991" gradientUnits="userSpaceOnUse">
<stop stop-color="#FF4885"/>
<stop offset="1" stop-color="#FF4885" stop-opacity="0"/>
</linearGradient>
<linearGradient id="paint2_linear_5481_122199" x1="59.3137" y1="-60.4521" x2="77.1884" y2="53.9458" gradientUnits="userSpaceOnUse">
<stop offset="0.15625" stop-color="#7A6AFD"/>
<stop offset="1" stop-color="#7A6AFD" stop-opacity="0"/>
</linearGradient>
<linearGradient id="paint3_linear_5481_122199" x1="-146.934" y1="169.541" x2="153.819" y2="110.102" gradientUnits="userSpaceOnUse">
<stop stop-color="#30A7FE" stop-opacity="0"/>
<stop offset="0.432292" stop-color="#30A7FE" stop-opacity="0.994652"/>
<stop offset="0.609375" stop-color="#30A7FE"/>
<stop offset="1" stop-color="#30A7FE" stop-opacity="0"/>
</linearGradient>
<clipPath id="clip0_5481_122199">
<rect width="160" height="160" rx="10" fill="white"/>
</clipPath>
</defs>
<clipPath id="mask0_5481_122199">
<path fill-rule="evenodd" d="M80 20C82.2091 20 84 21.7909 84 24V31.9381C84 34.1472 82.2091 35.9381 80 35.9381C77.7909 35.9381 76 34.1472 76 31.9381V24C76 21.7909 77.7909 20 80 20ZM108.283 80.0024C108.283 95.6231 95.6201 108.286 79.9995 108.286C64.3788 108.286 51.7158 95.6231 51.7158 80.0024C51.7158 64.3818 64.3788 51.7188 79.9995 51.7188C95.6201 51.7188 108.283 64.3818 108.283 80.0024ZM84.0002 128.062C84.0002 125.853 82.2094 124.062 80.0002 124.062C77.7911 124.062 76.0002 125.853 76.0002 128.062V136C76.0002 138.209 77.7911 140 80.0002 140C82.2094 140 84.0002 138.209 84.0002 136V128.062ZM140 80C140 82.2091 138.209 84 136 84H128.062C125.853 84 124.062 82.2091 124.062 80C124.062 77.7909 125.853 76 128.062 76H136C138.209 76 140 77.7909 140 80ZM31.9381 84C34.1472 84 35.9381 82.2091 35.9381 80C35.9381 77.7909 34.1472 76 31.9381 76H24C21.7909 76 20 77.7909 20 80C20 82.2091 21.7909 84 24 84H31.9381ZM122.426 37.573C123.988 39.1351 123.988 41.6678 122.426 43.2299L116.813 48.8429C115.251 50.405 112.718 50.405 111.156 48.8429C109.594 47.2808 109.594 44.7482 111.156 43.1861L116.769 37.573C118.331 36.0109 120.864 36.0109 122.426 37.573ZM48.8426 116.813C50.4047 115.251 50.4047 112.718 48.8426 111.156C47.2805 109.594 44.7479 109.594 43.1858 111.156L37.5727 116.769C36.0106 118.332 36.0106 120.864 37.5727 122.426C39.1348 123.988 41.6674 123.988 43.2295 122.426L48.8426 116.813ZM37.5723 37.5711C36.0102 39.1332 36.0102 41.6659 37.5723 43.228L43.1854 48.8411C44.7475 50.4031 47.2802 50.4031 48.8423 48.8411C50.4044 47.279 50.4044 44.7463 48.8423 43.1842L43.2292 37.5711C41.6671 36.009 39.1344 36.009 37.5723 37.5711ZM111.156 116.811C109.594 115.249 109.594 112.717 111.156 111.154C112.718 109.592 115.251 109.592 116.813 111.154L122.426 116.768C123.988 118.33 123.988 120.862 122.426 122.424C120.864 123.987 118.331 123.987 116.769 122.424L111.156 116.811Z" fill="white"/>
</clipPath>
<g clip-path="url(#mask0_5481_122199)">
<g clip-path="url(#clip0_5481_122199)">
<rect width="160" height="160" rx="10" fill="#D9F4FD"/>
<circle cx="142.62" cy="105.187" r="231.011" fill="url(#paint0_radial_5481_122199)"/>
<path d="M-14.3999 50.1137C-16.9679 -5.18932 25.7823 -52.103 81.0853 -54.6709C136.388 -57.2388 183.302 -14.4887 185.87 40.8143C188.438 96.1173 145.688 143.031 90.3846 145.599C35.0817 148.167 -11.832 105.417 -14.3999 50.1137Z" fill="url(#paint1_linear_5481_122199)"/>
<path d="M40.4184 -110.716C27.9428 -118.436 12.1362 -118.483 -0.385738 -110.838L-125.628 -34.3691C-137.894 -26.8797 -137.914 -9.20217 -125.665 -1.68455L-1.25042 74.676C11.2528 82.3487 27.0594 82.3396 39.5518 74.6486L163.71 -1.78335C175.895 -9.28493 175.917 -26.8637 163.748 -34.3936L40.4184 -110.716Z" fill="url(#paint2_linear_5481_122199)"/>
<path d="M-79.7631 76.5289C-53.9489 76.5289 -30.5656 86.9766 -13.6359 103.831C20.2235 137.599 48.2951 137.628 82.1545 103.918C99.0842 86.9766 122.496 76.5 148.34 76.5C199.997 76.5289 241.844 118.262 241.844 169.779C241.844 221.296 199.997 263 148.34 263C122.439 263 99.0263 252.495 82.0966 235.553C48.2661 201.901 20.2235 201.93 -13.6359 235.697C-30.5656 252.581 -53.9489 263 -79.7631 263C-131.392 263 -173.238 221.267 -173.238 169.779C-173.238 118.291 -131.392 76.5289 -79.7631 76.5289Z" fill="url(#paint3_linear_5481_122199)"/>
</g>
</g>

</svg>
