<svg width="160" height="160" viewBox="0 0 160 160" xmlns="http://www.w3.org/2000/svg">
  <defs>
<radialGradient id="paint0_radial_5481_122115" cx="0" cy="0" r="1" gradientUnits="userSpaceOnUse" gradientTransform="translate(134.795 103.175) rotate(90) scale(190.547 202.135)">
<stop offset="0.0885417" stop-color="#EB1000"/>
<stop offset="1" stop-color="#EB1000" stop-opacity="0"/>
</radialGradient>
<linearGradient id="paint1_linear_5481_122115" x1="111.296" y1="12.1683" x2="36.1246" y2="115.556" gradientUnits="userSpaceOnUse">
<stop stop-color="#FF4885"/>
<stop offset="1" stop-color="#FF4885" stop-opacity="0"/>
</linearGradient>
<linearGradient id="paint2_linear_5481_122115" x1="61.9" y1="-33.4501" x2="75.8355" y2="61.161" gradientUnits="userSpaceOnUse">
<stop offset="0.15625" stop-color="#7A6AFD"/>
<stop offset="1" stop-color="#7A6AFD" stop-opacity="0"/>
</linearGradient>
<linearGradient id="paint3_linear_5481_122115" x1="-118.567" y1="156.258" x2="143.358" y2="101.344" gradientUnits="userSpaceOnUse">
<stop stop-color="#30A7FE" stop-opacity="0"/>
<stop offset="0.432292" stop-color="#30A7FE" stop-opacity="0.994652"/>
<stop offset="0.609375" stop-color="#30A7FE"/>
<stop offset="1" stop-color="#30A7FE" stop-opacity="0"/>
</linearGradient>
<clipPath id="clip0_5481_122115">
<rect x="10" y="16.4131" width="140" height="131.975" rx="10" fill="white"/>
</clipPath>
</defs>
<clipPath id="mask0_5481_122115">
<path d="M128 28H32C23.16 28 16 35.16 16 44V116C16 124.84 23.16 132 32 132H128C136.84 132 144 124.84 144 116V44C144 35.16 136.84 28 128 28ZM34 84C31.79 84 30 82.21 30 80C30 77.79 31.78 76 33.99 76H34C36.21 76 38 77.79 38 80C38 82.21 36.21 84 34 84Z" fill="white"/>
</clipPath>
<g clip-path="url(#mask0_5481_122115)">
<g clip-path="url(#clip0_5481_122115)">
<rect x="10" y="16.4131" width="140" height="131.975" rx="10" fill="#D9F4FD"/>
<ellipse cx="134.795" cy="103.175" rx="202.135" ry="190.547" fill="url(#paint0_radial_5481_122115)"/>
<path d="M-2.6014 57.748C-4.84835 12.1318 32.5581 -26.5645 80.9482 -28.6826C129.338 -30.8008 170.388 4.46134 172.635 50.0775C174.882 95.6937 137.475 134.39 89.0851 136.508C40.695 138.626 -0.354455 103.364 -2.6014 57.748Z" fill="url(#paint1_linear_5481_122115)"/>
<path d="M45.3666 -74.9098C34.4504 -81.2775 20.6197 -81.3165 9.66296 -75.0104L-99.9241 -11.9357C-110.657 -5.75823 -110.675 8.82295 -99.9566 15.0238L8.90636 78.0091C19.8467 84.3379 33.6775 84.3303 44.6083 77.9865L153.247 14.9423C163.908 8.75468 163.928 -5.74501 153.28 -11.956L45.3666 -74.9098Z" fill="url(#paint2_linear_5481_122115)"/>
<path d="M-59.7927 79.5375C-37.2053 79.5375 -16.7449 88.1552 -1.9314 102.058C27.6956 129.91 52.2582 129.934 81.8852 102.129C96.6987 88.1552 117.184 79.5137 139.797 79.5137C184.997 79.5375 221.613 113.961 221.613 156.454C221.613 198.947 184.997 233.346 139.797 233.346C117.134 233.346 96.6481 224.681 81.8345 210.707C52.2329 182.95 27.6956 182.973 -1.9314 210.826C-16.7449 224.753 -37.2053 233.346 -59.7927 233.346C-104.968 233.346 -141.584 198.923 -141.584 156.454C-141.584 113.984 -104.968 79.5375 -59.7927 79.5375Z" fill="url(#paint3_linear_5481_122115)"/>
</g>
</g>

</svg>
