<svg width="48" height="48" viewBox="0 0 48 48" xmlns="http://www.w3.org/2000/svg">
  <defs>
<radialGradient id="paint0_radial_5481_122318" cx="0" cy="0" r="1" gradientUnits="userSpaceOnUse" gradientTransform="translate(39.1101 30.3118) rotate(90) scale(51.2844 54.4031)">
<stop offset="0.0885417" stop-color="#EB1000"/>
<stop offset="1" stop-color="#EB1000" stop-opacity="0"/>
</radialGradient>
<linearGradient id="paint1_linear_5481_122318" x1="32.7867" y1="5.81901" x2="12.5549" y2="33.6451" gradientUnits="userSpaceOnUse">
<stop stop-color="#FF4885"/>
<stop offset="1" stop-color="#FF4885" stop-opacity="0"/>
</linearGradient>
<linearGradient id="paint2_linear_5481_122318" x1="19.4927" y1="-6.45884" x2="23.2433" y2="19.0051" gradientUnits="userSpaceOnUse">
<stop offset="0.15625" stop-color="#7A6AFD"/>
<stop offset="1" stop-color="#7A6AFD" stop-opacity="0"/>
</linearGradient>
<linearGradient id="paint3_linear_5481_122318" x1="-29.0805" y1="44.5985" x2="41.4147" y2="29.819" gradientUnits="userSpaceOnUse">
<stop stop-color="#30A7FE" stop-opacity="0"/>
<stop offset="0.432292" stop-color="#30A7FE" stop-opacity="0.994652"/>
<stop offset="0.609375" stop-color="#30A7FE"/>
<stop offset="1" stop-color="#30A7FE" stop-opacity="0"/>
</linearGradient>
<clipPath id="clip0_5481_122318">
<rect x="5.52344" y="6.96094" width="37.68" height="35.52" rx="10" fill="white"/>
</clipPath>
</defs>
<clipPath id="mask0_5481_122318">
<path fill-rule="evenodd" d="M22.8 7.24805C19.065 7.51205 15.666 8.99705 13.002 11.307L22.8 21.105V7.24805ZM11.3062 13.0021C8.75022 15.9481 7.19922 19.7911 7.19922 24.0001C7.19922 28.2091 8.75022 32.0491 11.3062 34.9981L22.3042 24.0001L11.3062 13.0021ZM25.2 24V7.25105C33.918 7.86605 40.8 14.724 40.8 24.003C40.8 33.282 33.279 40.803 24 40.803C19.791 40.803 15.948 39.252 13.002 36.696L24.849 24.849L24.8589 24.839C24.8754 24.8213 24.8914 24.8037 24.9069 24.7858C24.9399 24.7467 24.97 24.7055 24.999 24.663C25.0259 24.6211 25.0469 24.5761 25.0679 24.5311L25.068 24.531L25.0744 24.5186L25.0831 24.5026C25.0913 24.4878 25.0997 24.4725 25.107 24.456C25.1238 24.415 25.1349 24.374 25.1464 24.3314L25.155 24.3L25.1579 24.2903L25.1638 24.273C25.1681 24.2606 25.1725 24.2478 25.176 24.234C25.191 24.156 25.2 24.078 25.2 24ZM25.1636 24.273L25.1636 24.2729L25.1637 24.2729C25.1679 24.2605 25.1723 24.2478 25.1758 24.2341C25.1732 24.243 25.1701 24.252 25.1669 24.2611L25.1669 24.2612L25.1669 24.2612L25.1669 24.2613C25.1626 24.2736 25.1582 24.2864 25.1548 24.3001C25.1573 24.2911 25.1604 24.2822 25.1636 24.273L25.1636 24.273Z" fill="white"/>
</clipPath>
<g clip-path="url(#mask0_5481_122318)">
<g clip-path="url(#clip0_5481_122318)">
<rect x="5.52344" y="6.96094" width="37.68" height="35.52" rx="10" fill="#D9F4FD"/>
<ellipse cx="39.1101" cy="30.3118" rx="54.4031" ry="51.2844" fill="url(#paint0_radial_5481_122318)"/>
<path d="M2.13209 18.0865C1.52734 5.8092 11.595 -4.60563 24.6189 -5.17572C37.6427 -5.7458 48.6909 3.74474 49.2956 16.022C49.9004 28.2993 39.8327 38.7141 26.8089 39.2842C13.785 39.8543 2.73684 30.3637 2.13209 18.0865Z" fill="url(#paint1_linear_5481_122318)"/>
<path d="M15.0428 -17.6174C12.1048 -19.3312 8.3824 -19.3417 5.43347 -17.6445L-24.0611 -0.668415C-26.9497 0.994212 -26.9545 4.91863 -24.0699 6.58755L5.22984 23.5396C8.17435 25.2429 11.8968 25.2409 14.8388 23.5335L44.0781 6.56561C46.9475 4.90026 46.9528 0.997771 44.0869 -0.673866L15.0428 -17.6174Z" fill="url(#paint2_linear_5481_122318)"/>
<path d="M-13.2619 23.9498C-7.18261 23.9498 -1.67585 26.2692 2.3111 30.0109C10.285 37.5073 16.8958 37.5137 24.8697 30.0302C28.8567 26.2692 34.3703 23.9434 40.4563 23.9434C52.6216 23.9498 62.4766 33.2145 62.4766 44.6513C62.4766 56.088 52.6216 65.3464 40.4563 65.3464C34.3566 65.3464 28.8431 63.0142 24.8561 59.2532C16.889 51.7824 10.285 51.7888 2.3111 59.2852C-1.67585 63.0334 -7.18261 65.3464 -13.2619 65.3464C-25.4204 65.3464 -35.2753 56.0816 -35.2753 44.6513C-35.2753 33.2209 -25.4204 23.9498 -13.2619 23.9498Z" fill="url(#paint3_linear_5481_122318)"/>
</g>
</g>

</svg>
