<svg width="160" height="160" viewBox="0 0 160 160" xmlns="http://www.w3.org/2000/svg">
  <defs>
<radialGradient id="paint0_radial_5481_122262" cx="0" cy="0" r="1" gradientUnits="userSpaceOnUse" gradientTransform="translate(142.62 105.187) rotate(90) scale(231.011)">
<stop offset="0.0885417" stop-color="#EB1000"/>
<stop offset="1" stop-color="#EB1000" stop-opacity="0"/>
</radialGradient>
<linearGradient id="paint1_linear_5481_122262" x1="115.768" y1="-5.14512" x2="23.108" y2="114.991" gradientUnits="userSpaceOnUse">
<stop stop-color="#FF4885"/>
<stop offset="1" stop-color="#FF4885" stop-opacity="0"/>
</linearGradient>
<linearGradient id="paint2_linear_5481_122262" x1="59.3137" y1="-60.4521" x2="77.1884" y2="53.9458" gradientUnits="userSpaceOnUse">
<stop offset="0.15625" stop-color="#7A6AFD"/>
<stop offset="1" stop-color="#7A6AFD" stop-opacity="0"/>
</linearGradient>
<linearGradient id="paint3_linear_5481_122262" x1="-146.934" y1="169.541" x2="153.819" y2="110.102" gradientUnits="userSpaceOnUse">
<stop stop-color="#30A7FE" stop-opacity="0"/>
<stop offset="0.432292" stop-color="#30A7FE" stop-opacity="0.994652"/>
<stop offset="0.609375" stop-color="#30A7FE"/>
<stop offset="1" stop-color="#30A7FE" stop-opacity="0"/>
</linearGradient>
<clipPath id="clip0_5481_122262">
<rect width="160" height="160" rx="10" fill="white"/>
</clipPath>
</defs>
<clipPath id="mask0_5481_122262">
<path fill-rule="evenodd" d="M72.3301 72.5024C74.5393 72.4973 76.326 70.7023 76.3209 68.4932L76.2636 43.6275C76.2585 41.4184 74.4635 39.6316 72.2544 39.6367C70.0453 39.6418 68.2585 41.4368 68.2636 43.6459L68.2985 58.7597C61.6584 51.7809 52.2746 47.4233 41.8723 47.4233C21.7305 47.4233 5.40234 63.7514 5.40234 83.8932C5.40234 104.035 21.7305 120.363 41.8723 120.363C50.2274 120.363 57.9365 117.549 64.0874 112.818C64.1806 112.747 64.2697 112.672 64.3547 112.594C64.3954 112.564 64.4357 112.534 64.4756 112.503C69.0061 108.946 73.2225 103.783 76.5174 99.0605C79.8275 94.3163 82.4204 89.7066 83.6353 87.0253C84.5798 84.9408 86.9196 79.9845 90.0148 74.7796C92.6803 70.2974 95.7158 65.9613 98.7182 63.0428C98.8112 62.972 98.902 62.8966 98.9901 62.8165C104.049 58.2198 110.758 55.4233 118.13 55.4233C133.853 55.4233 146.6 68.1697 146.6 83.8932C146.6 99.6167 133.853 112.363 118.13 112.363C108.515 112.363 100.012 107.601 94.8509 100.288C93.5771 98.4831 91.0813 98.0526 89.2764 99.3264C87.4715 100.6 87.0409 103.096 88.3148 104.901C94.9103 114.246 105.805 120.363 118.13 120.363C138.271 120.363 154.6 104.035 154.6 83.8932C154.6 63.7514 138.271 47.4233 118.13 47.4233C109.787 47.4233 102.092 50.2287 95.9475 54.9428C95.7704 55.0429 95.5987 55.1577 95.4341 55.2876C90.6779 59.0384 86.3771 65.245 83.1388 70.6905C79.8344 76.2472 77.3575 81.4966 76.3485 83.7235C75.3809 85.8588 73.0562 90.0402 69.9565 94.4829C66.8415 98.9474 63.156 103.368 59.5353 106.21C59.4537 106.274 59.3752 106.341 59.2999 106.41C59.2699 106.432 59.2401 106.454 59.2105 106.477C54.4087 110.17 48.4024 112.363 41.8723 112.363C26.1488 112.363 13.4023 99.6167 13.4023 83.8932C13.4023 68.1697 26.1488 55.4233 41.8723 55.4233C50.1122 55.4233 57.5359 58.9213 62.7387 64.5244L47.446 64.5597C45.2369 64.5648 43.4502 66.3598 43.4553 68.5689C43.4604 70.778 45.2553 72.5647 47.4645 72.5597L72.3301 72.5024Z" fill="white"/>
</clipPath>
<g clip-path="url(#mask0_5481_122262)">
<g clip-path="url(#clip0_5481_122262)">
<rect width="160" height="160" rx="10" fill="#D9F4FD"/>
<circle cx="142.62" cy="105.187" r="231.011" fill="url(#paint0_radial_5481_122262)"/>
<path d="M-14.3999 50.1137C-16.9679 -5.18932 25.7823 -52.103 81.0853 -54.6709C136.388 -57.2388 183.302 -14.4887 185.87 40.8143C188.438 96.1173 145.688 143.031 90.3846 145.599C35.0817 148.167 -11.832 105.417 -14.3999 50.1137Z" fill="url(#paint1_linear_5481_122262)"/>
<path d="M40.4184 -110.716C27.9428 -118.436 12.1362 -118.483 -0.385738 -110.838L-125.628 -34.3691C-137.894 -26.8797 -137.914 -9.20217 -125.665 -1.68455L-1.25042 74.676C11.2528 82.3487 27.0594 82.3396 39.5518 74.6486L163.71 -1.78335C175.895 -9.28493 175.917 -26.8637 163.748 -34.3936L40.4184 -110.716Z" fill="url(#paint2_linear_5481_122262)"/>
<path d="M-79.7631 76.5289C-53.9489 76.5289 -30.5656 86.9766 -13.6359 103.831C20.2235 137.599 48.2951 137.628 82.1545 103.918C99.0842 86.9766 122.496 76.5 148.34 76.5C199.997 76.5289 241.844 118.262 241.844 169.779C241.844 221.296 199.997 263 148.34 263C122.439 263 99.0263 252.495 82.0966 235.553C48.2661 201.901 20.2235 201.93 -13.6359 235.697C-30.5656 252.581 -53.9489 263 -79.7631 263C-131.392 263 -173.238 221.267 -173.238 169.779C-173.238 118.291 -131.392 76.5289 -79.7631 76.5289Z" fill="url(#paint3_linear_5481_122262)"/>
</g>
</g>

</svg>
