<svg width="96" height="96" viewBox="0 0 96 96" xmlns="http://www.w3.org/2000/svg">
  <defs>
<radialGradient id="paint0_radial_5481_122455" cx="0" cy="0" r="1" gradientUnits="userSpaceOnUse" gradientTransform="translate(81.2461 61.0762) rotate(90) scale(119.937 119.938)">
<stop offset="0.0885417" stop-color="#EB1000"/>
<stop offset="1" stop-color="#EB1000" stop-opacity="0"/>
</radialGradient>
<linearGradient id="paint1_linear_5481_122455" x1="67.3035" y1="3.79254" x2="19.1957" y2="66.1655" gradientUnits="userSpaceOnUse">
<stop stop-color="#FF4885"/>
<stop offset="1" stop-color="#FF4885" stop-opacity="0"/>
</linearGradient>
<linearGradient id="paint2_linear_5481_122455" x1="37.9931" y1="-24.9205" x2="47.2733" y2="34.4732" gradientUnits="userSpaceOnUse">
<stop offset="0.15625" stop-color="#7A6AFD"/>
<stop offset="1" stop-color="#7A6AFD" stop-opacity="0"/>
</linearGradient>
<linearGradient id="paint3_linear_5481_122455" x1="-69.0858" y1="94.4872" x2="87.0606" y2="63.6273" gradientUnits="userSpaceOnUse">
<stop stop-color="#30A7FE" stop-opacity="0"/>
<stop offset="0.432292" stop-color="#30A7FE" stop-opacity="0.994652"/>
<stop offset="0.609375" stop-color="#30A7FE"/>
<stop offset="1" stop-color="#30A7FE" stop-opacity="0"/>
</linearGradient>
<clipPath id="clip0_5481_122455">
<rect x="7.19922" y="6.46484" width="83.0696" height="83.0696" rx="10" fill="white"/>
</clipPath>
</defs>
<clipPath id="mask0_5481_122455">
<path fill-rule="evenodd" d="M52.5104 18.9096L72.2927 38.692C73.643 40.0422 74.4016 41.8736 74.4016 43.7831V72.0008C74.4016 75.9772 71.178 79.2008 67.2016 79.2008H28.8016C24.8251 79.2008 21.6016 75.9772 21.6016 72.0008V24.0008C21.6016 20.0243 24.8251 16.8008 28.8016 16.8008H47.4192C49.3288 16.8008 51.1601 17.5593 52.5104 18.9096ZM56.7013 40.8008C54.216 40.8008 52.2013 42.8155 52.2013 45.3008C52.2013 47.7861 54.216 49.8008 56.7013 49.8008C59.1866 49.8008 61.2013 47.7861 61.2013 45.3008C61.2013 42.8155 59.1866 40.8008 56.7013 40.8008ZM32.4043 69.6008H63.5982C64.5369 69.6008 65.1121 68.5715 64.6203 67.772L57.9082 56.8621C57.4396 56.1005 56.3326 56.1005 55.864 56.8621L50.5745 65.4597L42.7197 52.1404C42.2548 51.3568 41.1205 51.3568 40.6556 52.1404L31.3723 67.7885C30.8977 68.5884 31.4742 69.6008 32.4043 69.6008Z" fill="white"/>
</clipPath>
<g clip-path="url(#mask0_5481_122455)">
<g clip-path="url(#clip0_5481_122455)">
<rect x="7.19922" y="6.46484" width="83.0696" height="83.0696" rx="10" fill="#D9F4FD"/>
<ellipse cx="81.2461" cy="61.0762" rx="119.938" ry="119.937" fill="url(#paint0_radial_5481_122455)"/>
<path d="M-0.277895 32.4821C-1.61113 3.76959 20.5841 -20.5873 49.2966 -21.9205C78.0091 -23.2538 102.366 -1.05849 103.699 27.654C105.032 56.3665 82.8372 80.7234 54.1247 82.0566C25.4122 83.3899 1.05534 61.1946 -0.277895 32.4821Z" fill="url(#paint1_linear_5481_122455)"/>
<path d="M28.1829 -51.0168C21.7058 -55.0248 13.4992 -55.0494 6.99801 -51.0801L-58.026 -11.3786C-64.3943 -7.49024 -64.4049 1.6877 -58.0453 5.59074L6.54908 45.236C13.0406 49.2196 21.2471 49.2149 27.733 45.2218L92.1943 5.53944C98.5202 1.64473 98.5318 -7.48191 92.2136 -11.3913L28.1829 -51.0168Z" fill="url(#paint2_linear_5481_122455)"/>
<path d="M-34.2118 46.1966C-20.8095 46.1966 -8.66923 51.6209 0.120437 60.3717C17.6998 77.9032 32.2741 77.9182 49.8534 60.4167C58.6431 51.6209 70.7983 46.1816 84.2157 46.1816C111.035 46.1966 132.762 67.8638 132.762 94.6107C132.762 121.357 111.035 143.01 84.2157 143.01C70.7683 143.01 58.613 137.555 49.8234 128.76C32.2591 111.288 17.6998 111.303 0.120437 128.835C-8.66923 137.6 -20.8095 143.01 -34.2118 143.01C-61.0166 143.01 -82.7428 121.343 -82.7428 94.6107C-82.7428 67.8788 -61.0166 46.1966 -34.2118 46.1966Z" fill="url(#paint3_linear_5481_122455)"/>
</g>
</g>

</svg>
