<svg width="48" height="48" viewBox="0 0 48 48" xmlns="http://www.w3.org/2000/svg">
  <defs>
<radialGradient id="paint0_radial_5481_122367" cx="0" cy="0" r="1" gradientUnits="userSpaceOnUse" gradientTransform="translate(42.7877 31.5552) rotate(90) scale(69.3033)">
<stop offset="0.0885417" stop-color="#EB1000"/>
<stop offset="1" stop-color="#EB1000" stop-opacity="0"/>
</radialGradient>
<linearGradient id="paint1_linear_5481_122367" x1="34.7309" y1="-1.54315" x2="6.93278" y2="34.4977" gradientUnits="userSpaceOnUse">
<stop stop-color="#FF4885"/>
<stop offset="1" stop-color="#FF4885" stop-opacity="0"/>
</linearGradient>
<linearGradient id="paint2_linear_5481_122367" x1="17.7929" y1="-18.1348" x2="23.1553" y2="16.1845" gradientUnits="userSpaceOnUse">
<stop offset="0.15625" stop-color="#7A6AFD"/>
<stop offset="1" stop-color="#7A6AFD" stop-opacity="0"/>
</linearGradient>
<linearGradient id="paint3_linear_5481_122367" x1="-44.0785" y1="50.8616" x2="46.1473" y2="33.0298" gradientUnits="userSpaceOnUse">
<stop stop-color="#30A7FE" stop-opacity="0"/>
<stop offset="0.432292" stop-color="#30A7FE" stop-opacity="0.994652"/>
<stop offset="0.609375" stop-color="#30A7FE"/>
<stop offset="1" stop-color="#30A7FE" stop-opacity="0"/>
</linearGradient>
<clipPath id="clip0_5481_122367">
<rect width="48" height="48" rx="10" fill="white"/>
</clipPath>
</defs>
<clipPath id="mask0_5481_122367">
<path fill-rule="evenodd" d="M18.9284 12.6765L25.6588 19.4069L23.7168 23.1494C23.2777 23.9956 22.5509 24.6572 21.6672 25.0149L10.9254 29.3631C10.7149 29.4483 10.5046 29.483 10.3031 29.4758L17.0998 22.6791C17.5579 22.6872 18.0187 22.5165 18.3683 22.1669C19.0517 21.4834 19.0517 20.3754 18.3683 19.692C17.6849 19.0086 16.5768 19.0086 15.8934 19.692C15.569 20.0163 15.3986 20.4364 15.3822 20.8612L9.06641 27.177L13.3204 16.6681C13.6781 15.7844 14.3396 15.0575 15.1858 14.6185L18.9284 12.6765ZM28.6307 15.8794L27.1488 17.3613L20.9685 11.181L22.4504 9.69907C23.2314 8.91802 24.4978 8.91802 25.2788 9.69907L28.6307 13.0509C29.4117 13.832 29.4117 15.0983 28.6307 15.8794ZM20.2101 34.2299C19.1995 36.4305 18.851 37.1895 16.9935 38.6357L16.9931 38.6359C20.0033 38.9829 27.3093 39.5627 29.2566 35.6701C30.0362 34.1115 29.975 32.8573 29.5449 31.8822L29.5451 31.8823C29.2362 31.1817 28.7367 30.6252 28.2219 30.2034C27.8285 29.8811 27.2675 29.6257 26.6236 29.4891L26.6241 29.4895C24.8324 29.1092 22.3987 29.6491 21.1479 32.2309C20.7683 33.0144 20.4677 33.669 20.2101 34.2299L20.2101 34.2299ZM29.8062 28.2695C29.2103 27.7813 28.4827 27.4155 27.6913 27.1821L34.3876 19.0078C35.2851 17.9122 36.9009 17.7516 37.9965 18.6491C39.0921 19.5466 39.2527 21.1624 38.3552 22.258L31.6338 30.463C31.1283 29.5087 30.4364 28.7857 29.8062 28.2695Z" fill="white"/>
</clipPath>
<g clip-path="url(#mask0_5481_122367)">
<g clip-path="url(#clip0_5481_122367)">
<rect width="48" height="48" rx="10" fill="#D9F4FD"/>
<circle cx="42.7877" cy="31.5552" r="69.3033" fill="url(#paint0_radial_5481_122367)"/>
<path d="M-4.31959 15.0345C-5.08998 -1.55641 7.73508 -15.6305 24.326 -16.4009C40.9169 -17.1713 54.991 -4.34621 55.7613 12.2447C56.5317 28.8356 43.7067 42.9097 27.1158 43.6801C10.5249 44.4504 -3.54921 31.6254 -4.31959 15.0345Z" fill="url(#paint1_linear_5481_122367)"/>
<path d="M12.1243 -33.214C8.38167 -35.53 3.6397 -35.5442 -0.116893 -33.2506L-37.6896 -10.3099C-41.3694 -8.06314 -41.3755 -2.75987 -37.7007 -0.504581L-0.376298 22.4036C3.37467 24.7054 8.11665 24.7027 11.8644 22.3954L49.1119 -0.534222C52.7672 -2.7847 52.7739 -8.05833 49.1231 -10.3173L12.1243 -33.214Z" fill="url(#paint2_linear_5481_122367)"/>
<path d="M-23.9274 22.9579C-16.1831 22.9579 -9.16812 26.0922 -4.0892 31.1486C6.06863 41.2789 14.4901 41.2875 24.6479 31.1746C29.7268 26.0922 36.7505 22.9492 44.5034 22.9492C60.0006 22.9579 72.5547 35.4778 72.5547 50.9329C72.5547 66.388 60.0006 78.8992 44.5034 78.8992C36.7331 78.8992 29.7095 75.7476 24.6306 70.6652C14.4814 60.5696 6.06863 60.5782 -4.0892 70.7085C-9.16812 75.7736 -16.1831 78.8992 -23.9274 78.8992C-39.4159 78.8992 -51.9699 66.3793 -51.9699 50.9329C-51.9699 35.4865 -39.4159 22.9579 -23.9274 22.9579Z" fill="url(#paint3_linear_5481_122367)"/>
</g>
</g>

</svg>
