<svg width="48" height="48" viewBox="0 0 48 48" xmlns="http://www.w3.org/2000/svg">
  <defs>
<radialGradient id="paint0_radial_5481_122406" cx="0" cy="0" r="1" gradientUnits="userSpaceOnUse" gradientTransform="translate(42.7877 31.5552) rotate(90) scale(69.3033)">
<stop offset="0.0885417" stop-color="#EB1000"/>
<stop offset="1" stop-color="#EB1000" stop-opacity="0"/>
</radialGradient>
<linearGradient id="paint1_linear_5481_122406" x1="34.7309" y1="-1.54315" x2="6.93278" y2="34.4977" gradientUnits="userSpaceOnUse">
<stop stop-color="#FF4885"/>
<stop offset="1" stop-color="#FF4885" stop-opacity="0"/>
</linearGradient>
<linearGradient id="paint2_linear_5481_122406" x1="17.7929" y1="-18.1348" x2="23.1553" y2="16.1845" gradientUnits="userSpaceOnUse">
<stop offset="0.15625" stop-color="#7A6AFD"/>
<stop offset="1" stop-color="#7A6AFD" stop-opacity="0"/>
</linearGradient>
<linearGradient id="paint3_linear_5481_122406" x1="-44.0785" y1="50.8616" x2="46.1473" y2="33.0298" gradientUnits="userSpaceOnUse">
<stop stop-color="#30A7FE" stop-opacity="0"/>
<stop offset="0.432292" stop-color="#30A7FE" stop-opacity="0.994652"/>
<stop offset="0.609375" stop-color="#30A7FE"/>
<stop offset="1" stop-color="#30A7FE" stop-opacity="0"/>
</linearGradient>
<clipPath id="clip0_5481_122406">
<rect width="48" height="48" rx="10" fill="white"/>
</clipPath>
</defs>
<clipPath id="mask0_5481_122406">
<path fill-rule="evenodd" d="M39.9142 10.2519C40.3425 10.7933 40.2508 11.5794 39.7094 12.0077L28.1612 21.1436C27.7744 21.4496 27.2438 21.4996 26.8067 21.2711L19.5971 17.5035L9.87108 25.753C9.3446 26.1995 8.5558 26.1347 8.10925 25.6082C7.6627 25.0818 7.72749 24.293 8.25397 23.8464L18.6217 15.0527C19.0096 14.7236 19.5583 14.6625 20.0092 14.8981L27.246 18.6799L38.1583 10.0471C38.6997 9.61875 39.4859 9.71043 39.9142 10.2519ZM17.7266 26.1836C17.7266 25.0791 18.622 24.1836 19.7266 24.1836C20.8312 24.1836 21.7266 25.0791 21.7266 26.1836V34.9722C21.7266 36.0768 20.8312 36.9722 19.7266 36.9722C18.622 36.9722 17.7266 36.0768 17.7266 34.9722V26.1836ZM28.3301 25.8946C27.2255 25.8946 26.3301 26.79 26.3301 27.8946V34.9723C26.3301 36.0769 27.2255 36.9723 28.3301 36.9723C29.4347 36.9723 30.3301 36.0769 30.3301 34.9723V27.8946C30.3301 26.79 29.4347 25.8946 28.3301 25.8946ZM34.9336 21.8731C34.9336 20.7685 35.829 19.8731 36.9336 19.8731C38.0382 19.8731 38.9336 20.7685 38.9336 21.8731V34.973C38.9336 36.0776 38.0382 36.973 36.9336 36.973C35.829 36.973 34.9336 36.0776 34.9336 34.973V21.8731ZM11.1231 29.2833C10.0185 29.2833 9.12307 30.1787 9.12307 31.2833V34.9735C9.12307 36.0781 10.0185 36.9735 11.1231 36.9735C12.2276 36.9735 13.1231 36.0781 13.1231 34.9735V31.2833C13.1231 30.1787 12.2276 29.2833 11.1231 29.2833Z" fill="white"/>
</clipPath>
<g clip-path="url(#mask0_5481_122406)">
<g clip-path="url(#clip0_5481_122406)">
<rect width="48" height="48" rx="10" fill="#D9F4FD"/>
<circle cx="42.7877" cy="31.5552" r="69.3033" fill="url(#paint0_radial_5481_122406)"/>
<path d="M-4.31959 15.0345C-5.08998 -1.55641 7.73508 -15.6305 24.326 -16.4009C40.9169 -17.1713 54.991 -4.34621 55.7613 12.2447C56.5317 28.8356 43.7067 42.9097 27.1158 43.6801C10.5249 44.4504 -3.54921 31.6254 -4.31959 15.0345Z" fill="url(#paint1_linear_5481_122406)"/>
<path d="M12.1243 -33.214C8.38167 -35.53 3.6397 -35.5442 -0.116893 -33.2506L-37.6896 -10.3099C-41.3694 -8.06314 -41.3755 -2.75987 -37.7007 -0.504581L-0.376298 22.4036C3.37467 24.7054 8.11665 24.7027 11.8644 22.3954L49.1119 -0.534222C52.7672 -2.7847 52.7739 -8.05833 49.1231 -10.3173L12.1243 -33.214Z" fill="url(#paint2_linear_5481_122406)"/>
<path d="M-23.9274 22.9579C-16.1831 22.9579 -9.16812 26.0922 -4.0892 31.1486C6.06863 41.2789 14.4901 41.2875 24.6479 31.1746C29.7268 26.0922 36.7505 22.9492 44.5034 22.9492C60.0006 22.9579 72.5547 35.4778 72.5547 50.9329C72.5547 66.388 60.0006 78.8992 44.5034 78.8992C36.7331 78.8992 29.7095 75.7476 24.6306 70.6652C14.4814 60.5696 6.06863 60.5782 -4.0892 70.7085C-9.16812 75.7736 -16.1831 78.8992 -23.9274 78.8992C-39.4159 78.8992 -51.9699 66.3793 -51.9699 50.9329C-51.9699 35.4865 -39.4159 22.9579 -23.9274 22.9579Z" fill="url(#paint3_linear_5481_122406)"/>
</g>
</g>

</svg>
