<svg width="96" height="96" viewBox="0 0 96 96" xmlns="http://www.w3.org/2000/svg">
  <defs>
<radialGradient id="paint0_radial_5481_122506" cx="0" cy="0" r="1" gradientUnits="userSpaceOnUse" gradientTransform="translate(78.461 59.5122) rotate(90) scale(106.979 113.484)">
<stop offset="0.0885417" stop-color="#EB1000"/>
<stop offset="1" stop-color="#EB1000" stop-opacity="0"/>
</radialGradient>
<linearGradient id="paint1_linear_5481_122506" x1="65.2705" y1="8.41735" x2="23.0672" y2="66.4624" gradientUnits="userSpaceOnUse">
<stop stop-color="#FF4885"/>
<stop offset="1" stop-color="#FF4885" stop-opacity="0"/>
</linearGradient>
<linearGradient id="paint2_linear_5481_122506" x1="37.5384" y1="-17.1946" x2="45.3622" y2="35.9229" gradientUnits="userSpaceOnUse">
<stop offset="0.15625" stop-color="#7A6AFD"/>
<stop offset="1" stop-color="#7A6AFD" stop-opacity="0"/>
</linearGradient>
<linearGradient id="paint3_linear_5481_122506" x1="-63.7843" y1="89.313" x2="83.2682" y2="58.483" gradientUnits="userSpaceOnUse">
<stop stop-color="#30A7FE" stop-opacity="0"/>
<stop offset="0.432292" stop-color="#30A7FE" stop-opacity="0.994652"/>
<stop offset="0.609375" stop-color="#30A7FE"/>
<stop offset="1" stop-color="#30A7FE" stop-opacity="0"/>
</linearGradient>
<clipPath id="clip0_5481_122506">
<rect x="8.39844" y="10.8008" width="78.6002" height="74.0945" rx="10" fill="white"/>
</clipPath>
</defs>
<clipPath id="mask0_5481_122506">
<path fill-rule="evenodd" d="M51.2176 16.0431L76.7596 28.7871C79.2016 30.0051 80.7436 32.5011 80.7436 35.2311V60.7071C80.7436 63.4311 79.2076 65.9271 76.7716 67.1451L51.2296 79.9431C49.2016 80.9631 46.8076 80.9631 44.7796 79.9431L19.2376 67.1451C16.8016 65.9211 15.2656 63.4311 15.2656 60.7071V35.2311C15.2656 32.5011 16.8076 30.0051 19.2496 28.7871L44.7916 16.0431C46.8136 15.0351 49.1956 15.0351 51.2176 16.0431ZM30.7936 58.5591C31.6276 58.5591 32.4316 58.1271 32.8756 57.3591H32.8696L41.6596 42.1371C42.3256 40.9911 41.9296 39.5211 40.7836 38.8611C39.6376 38.1951 38.1676 38.5911 37.5076 39.7371L28.7176 54.9591C28.0516 56.1051 28.4476 57.5751 29.5936 58.2351C29.9716 58.4571 30.3856 58.5591 30.7936 58.5591ZM62.7976 58.5591C64.5316 58.5591 66.0856 57.6591 66.9556 56.1591C67.8256 54.6531 67.8256 52.8591 66.9556 51.3591L58.8376 37.3011C57.9676 35.8011 56.4136 34.9011 54.6796 34.9011C52.9456 34.9011 51.3916 35.8011 50.5216 37.3011L42.4036 51.3591C41.5336 52.8591 41.5336 54.6591 42.4036 56.1591C43.2736 57.6591 44.8276 58.5591 46.5616 58.5591H62.7976ZM54.6856 39.7011L62.8036 53.7591H46.5676L54.6856 39.7011Z" fill="white"/>
</clipPath>
<g clip-path="url(#mask0_5481_122506)">
<g clip-path="url(#clip0_5481_122506)">
<rect x="8.39844" y="10.8008" width="78.6002" height="74.0945" rx="10" fill="#D9F4FD"/>
<ellipse cx="78.461" cy="59.5122" rx="113.484" ry="106.979" fill="url(#paint0_radial_5481_122506)"/>
<path d="M1.32519 34.0072C0.0636832 8.39689 21.0648 -13.3284 48.2325 -14.5176C75.4001 -15.7068 98.4465 4.09045 99.708 29.7007C100.97 55.311 79.9684 77.0363 52.8008 78.2255C25.6331 79.4147 2.58669 59.6175 1.32519 34.0072Z" fill="url(#paint1_linear_5481_122506)"/>
<path d="M28.256 -40.4714C22.1274 -44.0464 14.3624 -44.0683 8.21094 -40.5279L-53.3145 -5.11581C-59.3402 -1.64758 -59.3503 6.53874 -53.3328 10.0201L7.78616 45.3819C13.9284 48.9351 21.6934 48.9309 27.8303 45.3693L88.8234 9.97433C94.809 6.50041 94.8199 -1.64015 88.8416 -5.12718L28.256 -40.4714Z" fill="url(#paint2_linear_5481_122506)"/>
<path d="M-30.7867 46.2399C-18.1055 46.2399 -6.6184 51.0782 1.69836 58.8835C18.3319 74.5208 32.122 74.5342 48.7555 58.9236C57.0723 51.0782 68.5736 46.2266 81.2691 46.2266C106.646 46.2399 127.203 65.5661 127.203 89.4231C127.203 113.28 106.646 132.593 81.2691 132.593C68.5451 132.593 57.0439 127.728 48.7271 119.883C32.1078 104.299 18.3319 104.312 1.69836 119.949C-6.6184 127.768 -18.1055 132.593 -30.7867 132.593C-56.1493 132.593 -76.7066 113.267 -76.7066 89.4231C-76.7066 65.5795 -56.1493 46.2399 -30.7867 46.2399Z" fill="url(#paint3_linear_5481_122506)"/>
</g>
</g>

</svg>
