<svg width="48" height="48" viewBox="0 0 48 48" xmlns="http://www.w3.org/2000/svg">
  <defs>
<radialGradient id="paint0_radial_5481_122417" cx="0" cy="0" r="1" gradientUnits="userSpaceOnUse" gradientTransform="translate(42.7877 31.5552) rotate(90) scale(69.3033)">
<stop offset="0.0885417" stop-color="#EB1000"/>
<stop offset="1" stop-color="#EB1000" stop-opacity="0"/>
</radialGradient>
<linearGradient id="paint1_linear_5481_122417" x1="34.7309" y1="-1.54315" x2="6.93278" y2="34.4977" gradientUnits="userSpaceOnUse">
<stop stop-color="#FF4885"/>
<stop offset="1" stop-color="#FF4885" stop-opacity="0"/>
</linearGradient>
<linearGradient id="paint2_linear_5481_122417" x1="17.7929" y1="-18.1348" x2="23.1553" y2="16.1845" gradientUnits="userSpaceOnUse">
<stop offset="0.15625" stop-color="#7A6AFD"/>
<stop offset="1" stop-color="#7A6AFD" stop-opacity="0"/>
</linearGradient>
<linearGradient id="paint3_linear_5481_122417" x1="-44.0785" y1="50.8616" x2="46.1473" y2="33.0298" gradientUnits="userSpaceOnUse">
<stop stop-color="#30A7FE" stop-opacity="0"/>
<stop offset="0.432292" stop-color="#30A7FE" stop-opacity="0.994652"/>
<stop offset="0.609375" stop-color="#30A7FE"/>
<stop offset="1" stop-color="#30A7FE" stop-opacity="0"/>
</linearGradient>
<clipPath id="clip0_5481_122417">
<rect width="48" height="48" rx="10" fill="white"/>
</clipPath>
</defs>
<clipPath id="mask0_5481_122417">
<path fill-rule="evenodd" d="M34.7898 7.12595C34.8734 6.44069 35.4968 5.95301 36.1821 6.03669C39.533 6.4459 42.6633 8.37123 44.4835 11.524C46.3186 14.7025 46.4076 18.4103 45.0522 21.533C44.7773 22.1662 44.0412 22.4568 43.4079 22.1819C42.7746 21.9071 42.484 21.1709 42.7589 20.5376C43.8125 18.1101 43.7408 15.2376 42.3185 12.774C40.9076 10.3303 38.4839 8.83635 35.879 8.51825C35.1937 8.43457 34.7061 7.81122 34.7898 7.12595ZM33.6574 11.7324C33.741 11.0472 34.3644 10.5595 35.0497 10.6432C37.1152 10.8954 39.0467 12.0827 40.1695 14.0276C41.3016 15.9883 41.3558 18.2758 40.5204 20.2006C40.2456 20.8339 39.5094 21.1244 38.8761 20.8496C38.2428 20.5747 37.9522 19.8385 38.2271 19.2052C38.7608 17.9757 38.7238 16.5234 38.0045 15.2776C37.291 14.0418 36.066 13.2858 34.7466 13.1247C34.0614 13.041 33.5737 12.4177 33.6574 11.7324ZM5.2702 22.1997C3.35703 23.3042 2.70153 25.7506 3.8061 27.6638L4.29126 28.5041L31.2764 12.944L30.7826 12.0889C29.6781 10.1757 27.2317 9.52019 25.3185 10.6248L5.2702 22.1997ZM32.5264 15.1091L5.54126 30.6692L10.1894 38.7199C11.2939 40.6331 13.7403 41.2886 15.6535 40.184L35.7018 28.6091C37.615 27.5045 38.2705 25.0582 37.1659 23.145L32.5264 15.1091ZM10.5786 31.9243C10.2334 31.3265 10.4382 30.562 11.036 30.2168L20.5043 24.7496C21.1021 24.4044 21.8666 24.6092 22.2118 25.207C22.5571 25.8049 22.3522 26.5694 21.7544 26.9146L12.2861 32.3818C11.6883 32.727 10.9238 32.5222 10.5786 31.9243ZM13.4594 34.414C12.8615 34.7592 12.6567 35.5237 13.0019 36.1216C13.3471 36.7194 14.1116 36.9242 14.7095 36.579L19.5483 33.785C20.1461 33.4398 20.3509 32.6753 20.0057 32.0774C19.6605 31.4796 18.896 31.2748 18.2982 31.62L13.4594 34.414ZM24.3813 23.9556C24.0361 23.3577 24.2409 22.5932 24.8388 22.248L29.3758 19.6282C29.9737 19.283 30.7382 19.4878 31.0834 20.0857C31.4286 20.6835 31.2238 21.448 30.6259 21.7932L26.0889 24.413C25.491 24.7582 24.7265 24.5534 24.3813 23.9556Z" fill="white"/>
</clipPath>
<g clip-path="url(#mask0_5481_122417)">
<g clip-path="url(#clip0_5481_122417)">
<rect width="48" height="48" rx="10" fill="#D9F4FD"/>
<circle cx="42.7877" cy="31.5552" r="69.3033" fill="url(#paint0_radial_5481_122417)"/>
<path d="M-4.31959 15.0345C-5.08998 -1.55641 7.73508 -15.6305 24.326 -16.4009C40.9169 -17.1713 54.991 -4.34621 55.7613 12.2447C56.5317 28.8356 43.7067 42.9097 27.1158 43.6801C10.5249 44.4504 -3.54921 31.6254 -4.31959 15.0345Z" fill="url(#paint1_linear_5481_122417)"/>
<path d="M12.1243 -33.214C8.38167 -35.53 3.6397 -35.5442 -0.116893 -33.2506L-37.6896 -10.3099C-41.3694 -8.06314 -41.3755 -2.75987 -37.7007 -0.504581L-0.376298 22.4036C3.37467 24.7054 8.11665 24.7027 11.8644 22.3954L49.1119 -0.534222C52.7672 -2.7847 52.7739 -8.05833 49.1231 -10.3173L12.1243 -33.214Z" fill="url(#paint2_linear_5481_122417)"/>
<path d="M-23.9274 22.9579C-16.1831 22.9579 -9.16812 26.0922 -4.0892 31.1486C6.06863 41.2789 14.4901 41.2875 24.6479 31.1746C29.7268 26.0922 36.7505 22.9492 44.5034 22.9492C60.0006 22.9579 72.5547 35.4778 72.5547 50.9329C72.5547 66.388 60.0006 78.8992 44.5034 78.8992C36.7331 78.8992 29.7095 75.7476 24.6306 70.6652C14.4814 60.5696 6.06863 60.5782 -4.0892 70.7085C-9.16812 75.7736 -16.1831 78.8992 -23.9274 78.8992C-39.4159 78.8992 -51.9699 66.3793 -51.9699 50.9329C-51.9699 35.4865 -39.4159 22.9579 -23.9274 22.9579Z" fill="url(#paint3_linear_5481_122417)"/>
</g>
</g>

</svg>
