<svg width="160" height="160" viewBox="0 0 160 160" xmlns="http://www.w3.org/2000/svg">
  <defs>
<radialGradient id="paint0_radial_5481_122215" cx="0" cy="0" r="1" gradientUnits="userSpaceOnUse" gradientTransform="translate(142.62 105.187) rotate(90) scale(231.011)">
<stop offset="0.0885417" stop-color="#EB1000"/>
<stop offset="1" stop-color="#EB1000" stop-opacity="0"/>
</radialGradient>
<linearGradient id="paint1_linear_5481_122215" x1="115.768" y1="-5.14512" x2="23.108" y2="114.991" gradientUnits="userSpaceOnUse">
<stop stop-color="#FF4885"/>
<stop offset="1" stop-color="#FF4885" stop-opacity="0"/>
</linearGradient>
<linearGradient id="paint2_linear_5481_122215" x1="59.3137" y1="-60.4521" x2="77.1884" y2="53.9458" gradientUnits="userSpaceOnUse">
<stop offset="0.15625" stop-color="#7A6AFD"/>
<stop offset="1" stop-color="#7A6AFD" stop-opacity="0"/>
</linearGradient>
<linearGradient id="paint3_linear_5481_122215" x1="-146.934" y1="169.541" x2="153.819" y2="110.102" gradientUnits="userSpaceOnUse">
<stop stop-color="#30A7FE" stop-opacity="0"/>
<stop offset="0.432292" stop-color="#30A7FE" stop-opacity="0.994652"/>
<stop offset="0.609375" stop-color="#30A7FE"/>
<stop offset="1" stop-color="#30A7FE" stop-opacity="0"/>
</linearGradient>
<clipPath id="clip0_5481_122215">
<rect width="160" height="160" rx="10" fill="white"/>
</clipPath>
</defs>
<clipPath id="mask0_5481_122215">
<path fill-rule="evenodd" d="M127.749 44.5088C127.749 44.4815 127.75 44.4541 127.75 44.4268C127.75 37.5734 106.371 32.0176 79.9998 32.0176C53.6283 32.0176 32.25 37.5734 32.25 44.4268C32.25 44.4541 32.2503 44.4815 32.251 44.5088H32.2505V44.7064C32.4098 45.2223 32.9441 46.137 34.6239 47.3684C36.7468 48.9244 40.075 50.4933 44.5475 51.8799C53.4441 54.6382 65.9793 56.4055 79.9998 56.4055C94.0203 56.4055 106.555 54.6382 115.452 51.8799C119.925 50.4933 123.253 48.9244 125.376 47.3684C127.059 46.1346 127.592 45.2187 127.75 44.7034V44.5088H127.749ZM32.2505 62.557V55.353C35.0314 56.9684 38.4152 58.3544 42.1784 59.5211C52.0341 62.5767 65.4052 64.4055 79.9998 64.4055C94.5944 64.4055 107.965 62.5767 117.821 59.5211C121.585 58.3543 124.969 56.9681 127.75 55.3524V62.554C127.592 63.0692 127.059 63.9852 125.376 65.219C123.253 66.775 119.925 68.3439 115.452 69.7305C106.555 72.4888 94.0203 74.256 79.9998 74.256C65.9793 74.256 53.4441 72.4888 44.5475 69.7305C40.075 68.3439 36.7468 66.775 34.6239 65.219C32.9441 63.9876 32.4098 63.0729 32.2505 62.557ZM127.75 73.203C124.969 74.8187 121.585 76.2048 117.821 77.3717C107.965 80.4273 94.5944 82.256 79.9998 82.256C65.4052 82.256 52.0341 80.4273 42.1784 77.3717C38.4152 76.205 35.0314 74.819 32.2505 73.2035V80.3646C32.4098 80.8805 32.9441 81.7952 34.6239 83.0266C36.7468 84.5826 40.075 86.1515 44.5475 87.5381C53.4441 90.2964 65.9793 92.0637 79.9998 92.0637C94.0203 92.0637 106.555 90.2964 115.452 87.5381C119.925 86.1515 123.253 84.5826 125.376 83.0266C127.059 81.7928 127.592 80.8769 127.75 80.3616V73.203ZM32.2505 98.2602V91.0112C35.0314 92.6266 38.4152 94.0126 42.1784 95.1793C52.0341 98.2349 65.4052 100.064 79.9998 100.064C94.5944 100.064 107.965 98.2349 117.821 95.1793C121.585 94.0125 124.969 92.6263 127.75 91.0106V98.2571C127.592 98.7724 127.059 99.6883 125.376 100.922C123.253 102.478 119.925 104.047 115.452 105.434C106.555 108.192 94.0203 109.959 79.9998 109.959C65.9793 109.959 53.4441 108.192 44.5475 105.434C40.075 104.047 36.7468 102.478 34.6239 100.922C32.9441 99.6908 32.4098 98.776 32.2505 98.2602ZM32.2505 108.907V116.523C42.5 130.461 113.5 133.086 127.75 116.523V108.906C124.969 110.522 121.585 111.908 117.821 113.075C107.965 116.13 94.5944 117.959 79.9998 117.959C65.4052 117.959 52.0341 116.13 42.1784 113.075C38.4152 111.908 35.0314 110.522 32.2505 108.907Z" fill="white"/>
</clipPath>
<g clip-path="url(#mask0_5481_122215)">
<g clip-path="url(#clip0_5481_122215)">
<rect width="160" height="160" rx="10" fill="#D9F4FD"/>
<circle cx="142.62" cy="105.187" r="231.011" fill="url(#paint0_radial_5481_122215)"/>
<path d="M-14.3999 50.1137C-16.9679 -5.18932 25.7823 -52.103 81.0853 -54.6709C136.388 -57.2388 183.302 -14.4887 185.87 40.8143C188.438 96.1173 145.688 143.031 90.3846 145.599C35.0817 148.167 -11.832 105.417 -14.3999 50.1137Z" fill="url(#paint1_linear_5481_122215)"/>
<path d="M40.4184 -110.716C27.9428 -118.436 12.1362 -118.483 -0.385738 -110.838L-125.628 -34.3691C-137.894 -26.8797 -137.914 -9.20217 -125.665 -1.68455L-1.25042 74.676C11.2528 82.3487 27.0594 82.3396 39.5518 74.6486L163.71 -1.78335C175.895 -9.28493 175.917 -26.8637 163.748 -34.3936L40.4184 -110.716Z" fill="url(#paint2_linear_5481_122215)"/>
<path d="M-79.7631 76.5289C-53.9489 76.5289 -30.5656 86.9766 -13.6359 103.831C20.2235 137.599 48.2951 137.628 82.1545 103.918C99.0842 86.9766 122.496 76.5 148.34 76.5C199.997 76.5289 241.844 118.262 241.844 169.779C241.844 221.296 199.997 263 148.34 263C122.439 263 99.0263 252.495 82.0966 235.553C48.2661 201.901 20.2235 201.93 -13.6359 235.697C-30.5656 252.581 -53.9489 263 -79.7631 263C-131.392 263 -173.238 221.267 -173.238 169.779C-173.238 118.291 -131.392 76.5289 -79.7631 76.5289Z" fill="url(#paint3_linear_5481_122215)"/>
</g>
</g>

</svg>
