<svg width="160" height="160" viewBox="0 0 160 160" xmlns="http://www.w3.org/2000/svg">
  <defs>
<radialGradient id="paint0_radial_5481_122158" cx="0" cy="0" r="1" gradientUnits="userSpaceOnUse" gradientTransform="translate(130.355 101.038) rotate(90) scale(170.948 181.344)">
<stop offset="0.0885417" stop-color="#EB1000"/>
<stop offset="1" stop-color="#EB1000" stop-opacity="0"/>
</radialGradient>
<linearGradient id="paint1_linear_5481_122158" x1="109.277" y1="19.3921" x2="41.838" y2="112.146" gradientUnits="userSpaceOnUse">
<stop stop-color="#FF4885"/>
<stop offset="1" stop-color="#FF4885" stop-opacity="0"/>
</linearGradient>
<linearGradient id="paint2_linear_5481_122158" x1="64.9613" y1="-21.5347" x2="77.4635" y2="63.345" gradientUnits="userSpaceOnUse">
<stop offset="0.15625" stop-color="#7A6AFD"/>
<stop offset="1" stop-color="#7A6AFD" stop-opacity="0"/>
</linearGradient>
<linearGradient id="paint3_linear_5481_122158" x1="-96.9441" y1="148.659" x2="138.04" y2="99.3939" gradientUnits="userSpaceOnUse">
<stop stop-color="#30A7FE" stop-opacity="0"/>
<stop offset="0.432292" stop-color="#30A7FE" stop-opacity="0.994652"/>
<stop offset="0.609375" stop-color="#30A7FE"/>
<stop offset="1" stop-color="#30A7FE" stop-opacity="0"/>
</linearGradient>
<clipPath id="clip0_5481_122158">
<rect x="18.3984" y="23.1992" width="125.6" height="118.4" rx="10" fill="white"/>
</clipPath>
</defs>
<clipPath id="mask0_5481_122158">
<path d="M129.288 95.7507L117.198 87.3707C117.668 84.9807 117.918 82.5207 117.918 80.0007C117.918 77.4807 117.668 75.0107 117.198 72.6307L129.288 64.2507C131.868 62.4607 132.628 58.9907 131.048 56.2907L125.678 47.1107C124.098 44.4007 120.698 43.3707 117.878 44.7507L104.638 51.1907C101.078 48.1407 96.9481 45.7507 92.4281 44.1807L91.2981 29.5107C91.0581 26.3807 88.4481 23.9707 85.3181 23.9707H74.6881C71.5481 23.9707 68.9481 26.3807 68.7081 29.5107L67.5781 44.1807C63.0581 45.7507 58.9281 48.1407 55.3681 51.1907L42.1281 44.7507C39.3081 43.3807 35.9081 44.4107 34.3281 47.1107L28.9581 56.2907C27.3781 59.0007 28.1381 62.4707 30.7181 64.2507L42.8081 72.6307C42.3381 75.0207 42.0881 77.4807 42.0881 80.0007C42.0881 82.5207 42.3381 84.9907 42.8081 87.3707L30.7181 95.7507C28.1381 97.5407 27.3781 101.011 28.9581 103.711L34.3281 112.891C35.9081 115.601 39.3081 116.631 42.1281 115.251L55.3681 108.811C58.9281 111.861 63.0581 114.251 67.5781 115.821L68.7081 130.491C68.9481 133.621 71.5581 136.031 74.6881 136.031H85.3181C88.4581 136.031 91.0581 133.621 91.2981 130.491L92.4281 115.821C96.9481 114.251 101.078 111.861 104.638 108.811L117.878 115.251C120.698 116.621 124.098 115.591 125.678 112.891L131.048 103.711C132.628 101.001 131.868 97.5307 129.288 95.7507ZM79.9981 92.2607C73.2281 92.2607 67.7381 86.7707 67.7381 80.0007C67.7381 73.2307 73.2281 67.7407 79.9981 67.7407C86.7681 67.7407 92.2581 73.2307 92.2581 80.0007C92.2581 86.7707 86.7681 92.2607 79.9981 92.2607Z" fill="white"/>
</clipPath>
<g clip-path="url(#mask0_5481_122158)">
<g clip-path="url(#clip0_5481_122158)">
<rect x="18.3984" y="23.1992" width="125.6" height="118.4" rx="10" fill="#D9F4FD"/>
<ellipse cx="130.355" cy="101.038" rx="181.344" ry="170.948" fill="url(#paint0_radial_5481_122158)"/>
<path d="M7.09525 60.2836C5.07941 19.3594 38.6383 -15.3567 82.0512 -17.257C125.464 -19.1572 162.291 12.4779 164.307 53.4021C166.323 94.3263 132.764 129.042 89.3511 130.943C45.9383 132.843 9.11108 101.208 7.09525 60.2836Z" fill="url(#paint1_linear_5481_122158)"/>
<path d="M50.1285 -58.73C40.3352 -64.4427 27.927 -64.4777 18.0973 -58.8203L-80.218 -2.23325C-89.8467 3.30884 -89.8628 16.3902 -80.2472 21.9533L17.4185 78.4601C27.2335 84.1379 39.6417 84.1312 49.4483 78.4399L146.913 21.8802C156.477 16.329 156.495 3.32071 146.942 -2.25142L50.1285 -58.73Z" fill="url(#paint2_linear_5481_122158)"/>
<path d="M-44.2153 79.83C-23.9511 79.83 -5.59525 87.5612 7.69458 100.034C34.2742 125.022 56.3104 125.043 82.89 100.098C96.1799 87.5612 114.558 79.8086 134.845 79.8086C175.396 79.83 208.246 110.712 208.246 148.835C208.246 186.958 175.396 217.819 134.845 217.819C114.513 217.819 96.1344 210.045 82.8446 197.508C56.2877 172.605 34.2742 172.627 7.69458 197.615C-5.59525 210.109 -23.9511 217.819 -44.2153 217.819C-84.7436 217.819 -117.593 186.936 -117.593 148.835C-117.593 110.734 -84.7436 79.83 -44.2153 79.83Z" fill="url(#paint3_linear_5481_122158)"/>
</g>
</g>

</svg>
