<svg width="160" height="160" viewBox="0 0 160 160" xmlns="http://www.w3.org/2000/svg">
  <defs>
<radialGradient id="paint0_radial_5481_122153" cx="0" cy="0" r="1" gradientUnits="userSpaceOnUse" gradientTransform="translate(136.671 95.8316) rotate(90) scale(192.894 204.624)">
<stop offset="0.0885417" stop-color="#EB1000"/>
<stop offset="1" stop-color="#EB1000" stop-opacity="0"/>
</radialGradient>
<linearGradient id="paint1_linear_5481_122153" x1="112.885" y1="3.70266" x2="36.7877" y2="108.364" gradientUnits="userSpaceOnUse">
<stop stop-color="#FF4885"/>
<stop offset="1" stop-color="#FF4885" stop-opacity="0"/>
</linearGradient>
<linearGradient id="paint2_linear_5481_122153" x1="62.879" y1="-42.476" x2="76.9862" y2="53.3004" gradientUnits="userSpaceOnUse">
<stop offset="0.15625" stop-color="#7A6AFD"/>
<stop offset="1" stop-color="#7A6AFD" stop-opacity="0"/>
</linearGradient>
<linearGradient id="paint3_linear_5481_122153" x1="-119.811" y1="149.566" x2="145.339" y2="93.9766" gradientUnits="userSpaceOnUse">
<stop stop-color="#30A7FE" stop-opacity="0"/>
<stop offset="0.432292" stop-color="#30A7FE" stop-opacity="0.994652"/>
<stop offset="0.609375" stop-color="#30A7FE"/>
<stop offset="1" stop-color="#30A7FE" stop-opacity="0"/>
</linearGradient>
<clipPath id="clip0_5481_122153">
<rect x="10.3398" y="8" width="141.724" height="133.6" rx="10" fill="white"/>
</clipPath>
</defs>
<clipPath id="mask0_5481_122153">
<path fill-rule="evenodd" d="M140.117 41.8993C141.117 39.9293 143.527 39.1493 145.497 40.1493H145.507C147.477 41.1493 148.257 43.5593 147.257 45.5293L136.277 67.0993C135.567 68.4893 134.167 69.2893 132.707 69.2893C132.137 69.2893 131.567 69.1593 131.017 68.9093L109.847 59.0393C107.837 58.0993 106.967 55.7193 107.907 53.7193C108.847 51.7193 111.227 50.8493 113.227 51.7893L127.057 58.2393C118.567 40.1893 100.067 28.2793 79.9473 28.2793C56.9773 28.2793 36.4473 43.6593 30.0173 65.6793C29.5073 67.4293 27.9073 68.5593 26.1773 68.5593C25.8073 68.5593 25.4273 68.5093 25.0573 68.3993C22.9373 67.7793 21.7173 65.5593 22.3373 63.4393C29.7573 38.0293 53.4473 20.2793 79.9473 20.2793C102.877 20.2793 123.977 33.6793 133.927 54.0693L140.117 41.8993ZM129.798 94.8893C130.418 92.7693 132.638 91.5493 134.758 92.1693V92.1793C136.878 92.7993 138.098 95.0193 137.478 97.1393C130.058 122.549 106.368 140.299 79.8679 140.299C57.0479 140.299 36.0379 127.019 26.0279 106.789L19.8779 118.879C19.1679 120.269 17.7679 121.069 16.3079 121.069C15.6979 121.069 15.0779 120.929 14.4979 120.629C12.5279 119.629 11.7479 117.219 12.7479 115.249L23.7279 93.6693C24.7079 91.7493 27.0379 90.9493 28.9879 91.8593L50.1579 101.729C52.1679 102.669 53.0279 105.049 52.0979 107.049C51.1579 109.049 48.7779 109.909 46.7779 108.979L32.8279 102.469C41.3379 120.449 59.7979 132.289 79.8679 132.289C102.838 132.289 123.368 116.909 129.798 94.8893Z" fill="white"/>
<path d="M145.497 40.1493L145.045 41.041L145.258 41.1493H145.497V40.1493ZM140.117 41.8993L141.009 42.3527L141.009 42.3519L140.117 41.8993ZM145.507 40.1493L145.96 39.2576L145.747 39.1493H145.507V40.1493ZM147.257 45.5293L148.148 45.9829L148.149 45.9819L147.257 45.5293ZM136.277 67.0993L137.168 67.5542L137.168 67.5529L136.277 67.0993ZM131.017 68.9093L130.595 69.8157L130.603 69.8197L131.017 68.9093ZM109.847 59.0393L109.424 59.9451L109.425 59.9456L109.847 59.0393ZM113.227 51.7893L112.802 52.6943L112.805 52.6956L113.227 51.7893ZM127.057 58.2393L126.635 59.1456L129.138 60.313L127.962 57.8137L127.057 58.2393ZM30.0173 65.6793L29.0574 65.399L29.0572 65.3995L30.0173 65.6793ZM25.0573 68.3993L25.3423 67.4408L25.338 67.4395L25.0573 68.3993ZM22.3373 63.4393L23.2971 63.72L23.2972 63.7196L22.3373 63.4393ZM133.927 54.0693L133.029 54.5079L133.909 56.3115L134.819 54.5227L133.927 54.0693ZM134.758 92.1693H135.758V91.4199L135.039 91.2095L134.758 92.1693ZM129.798 94.8893L128.838 94.6086L128.838 94.609L129.798 94.8893ZM134.758 92.1793H133.758V92.9287L134.477 93.1391L134.758 92.1793ZM137.478 97.1393L136.518 96.8586L136.518 96.859L137.478 97.1393ZM26.0279 106.789L26.9242 106.346L26.0403 104.559L25.1366 106.336L26.0279 106.789ZM19.8779 118.879L20.7685 119.334L20.7692 119.333L19.8779 118.879ZM14.4979 120.629L14.9574 119.741L14.9506 119.738L14.4979 120.629ZM12.7479 115.249L11.8567 114.796L11.8562 114.797L12.7479 115.249ZM23.7279 93.6693L22.8372 93.2147L22.8367 93.2158L23.7279 93.6693ZM28.9879 91.8593L28.565 92.7655L28.5654 92.7656L28.9879 91.8593ZM50.1579 101.729L50.5816 100.823L50.5805 100.823L50.1579 101.729ZM52.0979 107.049L53.003 107.475L53.0047 107.471L52.0979 107.049ZM46.7779 108.979L46.355 109.885L46.3563 109.886L46.7779 108.979ZM32.8279 102.469L33.2508 101.563L30.7376 100.39L31.9241 102.897L32.8279 102.469ZM145.95 39.2576C143.49 38.009 140.477 38.9814 139.226 41.4467L141.009 42.3519C141.758 40.8772 143.564 40.2896 145.045 41.041L145.95 39.2576ZM145.507 39.1493H145.497V41.1493H145.507V39.1493ZM148.149 45.9819C149.398 43.5222 148.425 40.509 145.96 39.2576L145.055 41.041C146.529 41.7896 147.117 43.5964 146.366 45.0767L148.149 45.9819ZM137.168 67.5529L148.148 45.9829L146.366 45.0756L135.386 66.6456L137.168 67.5529ZM132.707 70.2893C134.531 70.2893 136.282 69.2894 137.168 67.5542L135.387 66.6444C134.853 67.6892 133.804 68.2893 132.707 68.2893V70.2893ZM130.603 69.8197C131.273 70.1238 131.983 70.2893 132.707 70.2893V68.2893C132.292 68.2893 131.862 68.1948 131.431 67.9989L130.603 69.8197ZM109.425 59.9456L130.595 69.8156L131.44 68.003L110.27 58.133L109.425 59.9456ZM107.002 53.2939C105.825 55.7994 106.918 58.7732 109.424 59.9451L110.271 58.1335C108.757 57.4254 108.11 55.6392 108.812 54.1447L107.002 53.2939ZM113.653 50.8843C111.148 49.7072 108.175 50.7988 107.002 53.2939L108.812 54.1447C109.52 52.6398 111.306 51.9914 112.802 52.6943L113.653 50.8843ZM127.48 57.333L113.65 50.883L112.805 52.6956L126.635 59.1456L127.48 57.333ZM79.9473 29.2793C99.676 29.2793 117.826 40.962 126.152 58.6649L127.962 57.8137C119.309 39.4166 100.459 27.2793 79.9473 27.2793V29.2793ZM30.9772 65.9596C37.2824 44.3668 57.4209 29.2793 79.9473 29.2793V27.2793C56.5337 27.2793 35.6121 42.9518 29.0574 65.399L30.9772 65.9596ZM26.1773 69.5593C28.3377 69.5593 30.3391 68.1492 30.9773 65.9591L29.0572 65.3995C28.6755 66.7094 27.4768 67.5593 26.1773 67.5593V69.5593ZM24.7723 69.3578C25.2416 69.4974 25.7182 69.5593 26.1773 69.5593V67.5593C25.8964 67.5593 25.6129 67.5212 25.3423 67.4408L24.7723 69.3578ZM21.3775 63.1586C20.6019 65.8105 22.1283 68.5846 24.7766 69.3591L25.338 67.4395C23.7462 66.974 22.8326 65.3081 23.2971 63.72L21.3775 63.1586ZM79.9473 19.2793C53.0035 19.2793 28.9221 37.3219 21.3774 63.159L23.2972 63.7196C30.5925 38.7367 53.891 21.2793 79.9473 21.2793V19.2793ZM134.826 53.6307C124.71 32.9011 103.264 19.2793 79.9473 19.2793V21.2793C102.491 21.2793 123.244 34.4575 133.029 54.5079L134.826 53.6307ZM139.226 41.4459L133.036 53.6159L134.819 54.5227L141.009 42.3527L139.226 41.4459ZM135.039 91.2095C132.387 90.4339 129.613 91.9603 128.838 94.6086L130.758 95.17C131.223 93.5783 132.889 92.6646 134.477 93.1291L135.039 91.2095ZM135.758 92.1793V92.1693H133.758V92.1793H135.758ZM138.438 97.42C139.213 94.7681 137.687 91.994 135.039 91.2195L134.477 93.1391C136.069 93.6046 136.983 95.2705 136.518 96.8586L138.438 97.42ZM79.8679 141.299C106.812 141.299 130.893 123.257 138.438 97.4196L136.518 96.859C129.223 121.842 105.924 139.299 79.8679 139.299V141.299ZM25.1317 107.233C35.3082 127.799 56.6629 141.299 79.8679 141.299V139.299C57.4329 139.299 36.7677 126.239 26.9242 106.346L25.1317 107.233ZM20.7692 119.333L26.9192 107.243L25.1366 106.336L18.9866 118.426L20.7692 119.333ZM16.3079 122.069C18.1315 122.069 19.8822 121.069 20.7685 119.334L18.9874 118.424C18.4537 119.469 17.4043 120.069 16.3079 120.069V122.069ZM14.0385 121.518C14.7658 121.894 15.5441 122.069 16.3079 122.069V120.069C15.8518 120.069 15.3901 119.965 14.9574 119.741L14.0385 121.518ZM11.8562 114.797C10.6077 117.256 11.5801 120.27 14.0453 121.521L14.9506 119.738C13.4758 118.989 12.8882 117.182 13.6396 115.702L11.8562 114.797ZM22.8367 93.2158L11.8567 114.796L13.6392 115.703L24.6192 94.1228L22.8367 93.2158ZM29.4108 90.9531C26.9726 89.8153 24.062 90.8152 22.8372 93.2147L24.6186 94.1239C25.3539 92.6834 27.1032 92.0833 28.565 92.7655L29.4108 90.9531ZM50.5805 100.823L29.4105 90.953L28.5654 92.7656L49.7354 102.636L50.5805 100.823ZM53.0047 107.471C54.167 104.971 53.0915 101.997 50.5816 100.823L49.7343 102.635C51.2443 103.341 51.8889 105.127 51.1912 106.628L53.0047 107.471ZM46.3563 109.886C48.8548 111.048 51.8283 109.974 53.003 107.475L51.1929 106.624C50.4875 108.125 48.701 108.771 47.1996 108.073L46.3563 109.886ZM32.4051 103.375L46.355 109.885L47.2008 108.073L33.2508 101.563L32.4051 103.375ZM79.8679 131.289C60.1878 131.289 42.0779 119.675 33.7318 102.041L31.9241 102.897C40.598 121.223 59.408 133.289 79.8679 133.289V131.289ZM128.838 94.609C122.533 116.202 102.394 131.289 79.8679 131.289V133.289C103.282 133.289 124.203 117.617 130.758 95.1696L128.838 94.609Z" fill="white"/>
</clipPath>
<g clip-path="url(#mask0_5481_122153)">
<g clip-path="url(#clip0_5481_122153)">
<rect x="10.3398" y="8" width="141.724" height="133.6" rx="10" fill="#D9F4FD"/>
<ellipse cx="136.671" cy="95.8316" rx="204.624" ry="192.894" fill="url(#paint0_radial_5481_122153)"/>
<path d="M-2.41524 49.8437C-4.68986 3.66575 33.1773 -35.5071 82.1634 -37.6514C131.149 -39.7956 172.704 -4.0992 174.979 42.0788C177.254 88.2568 139.387 127.43 90.4005 129.574C41.4144 131.718 -0.140615 96.0217 -2.41524 49.8437Z" fill="url(#paint1_linear_5481_122153)"/>
<path d="M46.142 -84.4463C35.0914 -90.8924 21.0903 -90.9319 9.99867 -84.5482L-100.938 -20.6967C-111.803 -14.4431 -111.821 0.317676 -100.971 6.59489L9.23275 70.3559C20.3078 76.7627 34.3089 76.755 45.3744 70.3331L155.351 6.51239C166.144 0.248571 166.164 -14.4297 155.384 -20.7172L46.142 -84.4463Z" fill="url(#paint2_linear_5481_122153)"/>
<path d="M-60.3133 71.9011C-37.4477 71.9011 -16.7353 80.6249 -1.73935 94.6987C28.2526 122.894 53.1177 122.919 83.1096 94.771C98.1055 80.6249 118.844 71.877 141.735 71.877C187.492 71.9011 224.559 106.748 224.559 149.765C224.559 192.781 187.492 227.604 141.735 227.604C118.792 227.604 98.0542 218.832 83.0583 204.686C53.092 176.587 28.2526 176.611 -1.73935 204.807C-16.7353 218.905 -37.4477 227.604 -60.3133 227.604C-106.045 227.604 -143.111 192.757 -143.111 149.765C-143.111 106.772 -106.045 71.9011 -60.3133 71.9011Z" fill="url(#paint3_linear_5481_122153)"/>
</g>
</g>

</svg>
