<svg width="96" height="96" viewBox="0 0 96 96" xmlns="http://www.w3.org/2000/svg">
  <defs>
<radialGradient id="paint0_radial_5481_122452" cx="0" cy="0" r="1" gradientUnits="userSpaceOnUse" gradientTransform="translate(80.6739 61.1426) rotate(90) scale(120.537)">
<stop offset="0.0885417" stop-color="#EB1000"/>
<stop offset="1" stop-color="#EB1000" stop-opacity="0"/>
</radialGradient>
<linearGradient id="paint1_linear_5481_122452" x1="66.6642" y1="3.57344" x2="18.3158" y2="66.2583" gradientUnits="userSpaceOnUse">
<stop stop-color="#FF4885"/>
<stop offset="1" stop-color="#FF4885" stop-opacity="0"/>
</linearGradient>
<linearGradient id="paint2_linear_5481_122452" x1="37.208" y1="-25.2847" x2="46.5347" y2="34.406" gradientUnits="userSpaceOnUse">
<stop offset="0.15625" stop-color="#7A6AFD"/>
<stop offset="1" stop-color="#7A6AFD" stop-opacity="0"/>
</linearGradient>
<linearGradient id="paint3_linear_5481_122452" x1="-70.4075" y1="94.7209" x2="86.5196" y2="63.7067" gradientUnits="userSpaceOnUse">
<stop stop-color="#30A7FE" stop-opacity="0"/>
<stop offset="0.432292" stop-color="#30A7FE" stop-opacity="0.994652"/>
<stop offset="0.609375" stop-color="#30A7FE"/>
<stop offset="1" stop-color="#30A7FE" stop-opacity="0"/>
</linearGradient>
<clipPath id="clip0_5481_122452">
<rect x="6.25781" y="6.25781" width="83.485" height="83.485" rx="10" fill="white"/>
</clipPath>
</defs>
<clipPath id="mask0_5481_122452">
<path opacity="0.9" fill-rule="evenodd" d="M32.3312 27.8203C32.3312 19.1661 39.3469 12.1504 48.0012 12.1504C56.6555 12.1504 63.6711 19.1661 63.6711 27.8203V40.1756H69.6975C74.0246 40.1756 77.5324 43.6834 77.5324 48.0105V71.5155C77.5324 75.8426 74.0246 79.3504 69.6975 79.3504H26.3037C21.9766 79.3504 18.4688 75.8426 18.4688 71.5155V48.0105C18.4688 43.6834 21.9766 40.1756 26.3037 40.1756H32.3312V27.8203ZM37.1527 40.1756H58.8496V27.8203C58.8496 21.8289 53.9926 16.9719 48.0012 16.9719C42.0098 16.9719 37.1527 21.8289 37.1527 27.8203V40.1756ZM50.4121 60.9261C51.8532 60.0925 52.8229 58.5343 52.8229 56.7496C52.8229 54.0868 50.6642 51.9281 48.0013 51.9281C45.3385 51.9281 43.1798 54.0868 43.1798 56.7496C43.1798 58.5343 44.1494 60.0925 45.5906 60.9261V65.79C45.5906 67.1214 46.6699 68.2008 48.0013 68.2008C49.3328 68.2008 50.4121 67.1214 50.4121 65.79V60.9261Z" fill="white"/>
</clipPath>
<g clip-path="url(#mask0_5481_122452)">
<g clip-path="url(#clip0_5481_122452)">
<rect x="6.25781" y="6.25781" width="83.485" height="83.485" rx="10" fill="#D9F4FD"/>
<circle cx="80.6739" cy="61.1426" r="120.537" fill="url(#paint0_radial_5481_122452)"/>
<path d="M-1.25517 32.4064C-2.59508 3.55039 19.7112 -20.9283 48.5672 -22.2682C77.4233 -23.6081 101.902 -1.30183 103.242 27.5542C104.582 56.4103 82.2755 80.8889 53.4195 82.2288C24.5634 83.5687 0.0847316 61.2625 -1.25517 32.4064Z" fill="url(#paint1_linear_5481_122452)"/>
<path d="M27.3488 -51.5114C20.8393 -55.5395 12.5917 -55.5642 6.05797 -51.5751L-59.2911 -11.675C-65.6913 -7.76725 -65.7019 1.45657 -59.3105 5.37913L5.6068 45.2226C12.1307 49.2261 20.3783 49.2214 26.8967 45.2084L91.6802 5.32757C98.0378 1.41339 98.0494 -7.75889 91.6996 -11.6878L27.3488 -51.5114Z" fill="url(#paint2_linear_5481_122452)"/>
<path d="M-35.3592 46.1889C-21.8898 46.1889 -9.68887 51.6403 -0.855262 60.4348C16.812 78.054 31.4591 78.0691 49.1264 60.48C57.96 51.6403 70.176 46.1738 83.6605 46.1738C110.614 46.1889 132.449 67.9644 132.449 94.845C132.449 121.726 110.614 143.486 83.6605 143.486C70.1458 143.486 57.9298 138.004 49.0962 129.165C31.444 111.606 16.812 111.621 -0.855262 129.24C-9.68887 138.05 -21.8898 143.486 -35.3592 143.486C-62.2979 143.486 -84.1328 121.711 -84.1328 94.845C-84.1328 67.9795 -62.2979 46.1889 -35.3592 46.1889Z" fill="url(#paint3_linear_5481_122452)"/>
</g>
</g>

</svg>
