<svg width="48" height="48" viewBox="0 0 48 48" xmlns="http://www.w3.org/2000/svg">
  <defs>
<radialGradient id="paint0_radial_5481_122400" cx="0" cy="0" r="1" gradientUnits="userSpaceOnUse" gradientTransform="translate(42.7877 31.5552) rotate(90) scale(69.3033)">
<stop offset="0.0885417" stop-color="#EB1000"/>
<stop offset="1" stop-color="#EB1000" stop-opacity="0"/>
</radialGradient>
<linearGradient id="paint1_linear_5481_122400" x1="34.7309" y1="-1.54315" x2="6.93278" y2="34.4977" gradientUnits="userSpaceOnUse">
<stop stop-color="#FF4885"/>
<stop offset="1" stop-color="#FF4885" stop-opacity="0"/>
</linearGradient>
<linearGradient id="paint2_linear_5481_122400" x1="17.7929" y1="-18.1348" x2="23.1553" y2="16.1845" gradientUnits="userSpaceOnUse">
<stop offset="0.15625" stop-color="#7A6AFD"/>
<stop offset="1" stop-color="#7A6AFD" stop-opacity="0"/>
</linearGradient>
<linearGradient id="paint3_linear_5481_122400" x1="-44.0785" y1="50.8616" x2="46.1473" y2="33.0298" gradientUnits="userSpaceOnUse">
<stop stop-color="#30A7FE" stop-opacity="0"/>
<stop offset="0.432292" stop-color="#30A7FE" stop-opacity="0.994652"/>
<stop offset="0.609375" stop-color="#30A7FE"/>
<stop offset="1" stop-color="#30A7FE" stop-opacity="0"/>
</linearGradient>
<clipPath id="clip0_5481_122400">
<rect width="48" height="48" rx="10" fill="white"/>
</clipPath>
</defs>
<clipPath id="mask0_5481_122400">
<path fill-rule="evenodd" d="M36.3301 11.2912C36.4875 11.9634 36.0703 12.6359 35.3981 12.7934L28.5135 14.4063C27.8413 14.5637 27.1688 14.1465 27.0113 13.4743C26.8538 12.8022 27.2711 12.1296 27.9432 11.9722L32.0228 11.0165C29.6804 9.55009 26.9119 8.70287 23.9432 8.70287C19.3692 8.70287 15.2667 10.715 12.4697 13.9066C12.0147 14.4258 11.2249 14.4778 10.7057 14.0228C10.1865 13.5678 10.1345 12.7781 10.5895 12.2589C13.8411 8.54865 18.6189 6.20287 23.9432 6.20287C27.3241 6.20287 30.4862 7.14911 33.1766 8.7907L32.2831 4.97681C32.1256 4.30465 32.5429 3.6321 33.215 3.47464C33.8872 3.31717 34.5597 3.73441 34.7172 4.40657L36.3301 11.2912ZM38.5784 19.416C38.3722 18.7571 38.7392 18.0559 39.3981 17.8497C40.0569 17.6436 40.7582 18.0106 40.9643 18.6695C41.489 20.3465 41.7713 22.1292 41.7713 23.9756C41.7713 31.026 37.6612 37.1138 31.7096 39.9783L35.5183 41.1826C36.1765 41.3907 36.5414 42.093 36.3333 42.7512C36.1252 43.4095 35.4229 43.7744 34.7646 43.5662L28.0225 41.4345C27.3643 41.2264 26.9994 40.5241 27.2075 39.8658L29.3393 33.1238C29.5474 32.4655 30.2497 32.1006 30.9079 32.3087C31.5662 32.5169 31.9311 33.2192 31.7229 33.8774L30.4851 37.7923C35.6776 35.3589 39.2713 30.0856 39.2713 23.9756C39.2713 22.3853 39.0283 20.8542 38.5784 19.416ZM6.30558 22.5796L3.3114 25.1345C2.78624 25.5826 1.99725 25.5202 1.54914 24.995C1.10103 24.4698 1.16349 23.6809 1.68865 23.2327L7.06764 18.6429C7.5928 18.1948 8.38178 18.2573 8.82989 18.7824L13.4197 24.1614C13.8678 24.6866 13.8054 25.4756 13.2802 25.9237C12.7551 26.3718 11.9661 26.3093 11.518 25.7842L8.81174 22.6126C8.56913 25.2876 9.03042 28.0598 10.2929 30.652C12.2957 34.7642 15.901 37.5715 19.9951 38.6887C20.6611 38.8704 21.0537 39.5576 20.8719 40.2236C20.6902 40.8896 20.003 41.2822 19.337 41.1005C14.5776 39.8018 10.3766 36.5334 8.04528 31.7466C6.60692 28.7933 6.06211 25.6345 6.30558 22.5796Z" fill="white"/>
</clipPath>
<g clip-path="url(#mask0_5481_122400)">
<g clip-path="url(#clip0_5481_122400)">
<rect width="48" height="48" rx="10" fill="#D9F4FD"/>
<circle cx="42.7877" cy="31.5552" r="69.3033" fill="url(#paint0_radial_5481_122400)"/>
<path d="M-4.31959 15.0345C-5.08998 -1.55641 7.73508 -15.6305 24.326 -16.4009C40.9169 -17.1713 54.991 -4.34621 55.7613 12.2447C56.5317 28.8356 43.7067 42.9097 27.1158 43.6801C10.5249 44.4504 -3.54921 31.6254 -4.31959 15.0345Z" fill="url(#paint1_linear_5481_122400)"/>
<path d="M12.1243 -33.214C8.38167 -35.53 3.6397 -35.5442 -0.116893 -33.2506L-37.6896 -10.3099C-41.3694 -8.06314 -41.3755 -2.75987 -37.7007 -0.504581L-0.376298 22.4036C3.37467 24.7054 8.11665 24.7027 11.8644 22.3954L49.1119 -0.534222C52.7672 -2.7847 52.7739 -8.05833 49.1231 -10.3173L12.1243 -33.214Z" fill="url(#paint2_linear_5481_122400)"/>
<path d="M-23.9274 22.9579C-16.1831 22.9579 -9.16812 26.0922 -4.0892 31.1486C6.06863 41.2789 14.4901 41.2875 24.6479 31.1746C29.7268 26.0922 36.7505 22.9492 44.5034 22.9492C60.0006 22.9579 72.5547 35.4778 72.5547 50.9329C72.5547 66.388 60.0006 78.8992 44.5034 78.8992C36.7331 78.8992 29.7095 75.7476 24.6306 70.6652C14.4814 60.5696 6.06863 60.5782 -4.0892 70.7085C-9.16812 75.7736 -16.1831 78.8992 -23.9274 78.8992C-39.4159 78.8992 -51.9699 66.3793 -51.9699 50.9329C-51.9699 35.4865 -39.4159 22.9579 -23.9274 22.9579Z" fill="url(#paint3_linear_5481_122400)"/>
</g>
</g>

</svg>
