<svg width="96" height="96" viewBox="0 0 96 96" xmlns="http://www.w3.org/2000/svg">
  <defs>
<radialGradient id="paint0_radial_5481_122539" cx="0" cy="0" r="1" gradientUnits="userSpaceOnUse" gradientTransform="translate(85.5714 63.1124) rotate(90) scale(138.607)">
<stop offset="0.0885417" stop-color="#EB1000"/>
<stop offset="1" stop-color="#EB1000" stop-opacity="0"/>
</radialGradient>
<linearGradient id="paint1_linear_5481_122539" x1="69.4617" y1="-3.08825" x2="13.8656" y2="68.9935" gradientUnits="userSpaceOnUse">
<stop stop-color="#FF4885"/>
<stop offset="1" stop-color="#FF4885" stop-opacity="0"/>
</linearGradient>
<linearGradient id="paint2_linear_5481_122539" x1="35.5898" y1="-36.2716" x2="46.3146" y2="32.3671" gradientUnits="userSpaceOnUse">
<stop offset="0.15625" stop-color="#7A6AFD"/>
<stop offset="1" stop-color="#7A6AFD" stop-opacity="0"/>
</linearGradient>
<linearGradient id="paint3_linear_5481_122539" x1="-88.1609" y1="101.725" x2="92.2907" y2="66.0615" gradientUnits="userSpaceOnUse">
<stop stop-color="#30A7FE" stop-opacity="0"/>
<stop offset="0.432292" stop-color="#30A7FE" stop-opacity="0.994652"/>
<stop offset="0.609375" stop-color="#30A7FE"/>
<stop offset="1" stop-color="#30A7FE" stop-opacity="0"/>
</linearGradient>
<clipPath id="clip0_5481_122539">
<rect width="96" height="96" rx="10" fill="white"/>
</clipPath>
</defs>
<clipPath id="mask0_5481_122539">
<path fill-rule="evenodd" d="M82.0527 18.0869C82.0527 20.4181 80.407 22.3648 78.2139 22.8287C76.7075 21.0744 74.7194 19.7458 72.4547 19.0481C72.3922 18.7374 72.3594 18.416 72.3594 18.0869C72.3594 15.4102 74.5293 13.2402 77.2061 13.2402C79.8828 13.2402 82.0527 15.4102 82.0527 18.0869ZM77.2047 30.9082C77.2047 34.7347 74.6486 37.9642 71.1508 38.9824C68.9376 34.8729 65.0447 31.8019 60.3911 30.6888C60.5075 26.1465 64.2261 22.5 68.7965 22.5C73.4402 22.5 77.2047 26.2645 77.2047 30.9082ZM51.6368 63.9151C51.6368 74.3233 43.1993 82.7609 32.7911 82.7609C22.3828 82.7609 13.9453 74.3233 13.9453 63.9151C13.9453 53.5069 22.3828 45.0693 32.7911 45.0693C37.0092 45.0693 40.9036 46.4551 44.044 48.7963C44.044 48.7962 44.044 48.7962 44.0439 48.7961C47.1296 51.0964 49.4872 54.319 50.7084 58.0557C50.7083 58.0557 50.7082 58.0556 50.7081 58.0556C51.3109 59.8999 51.6368 61.8694 51.6368 63.9151ZM69.1278 46.8499C69.1278 53.8179 63.4792 59.4665 56.5113 59.4665C56.0653 59.4665 55.6247 59.4433 55.1906 59.3982C53.8804 52.865 49.7835 47.3391 44.1924 44.1131C45.4425 38.461 50.4832 34.2334 56.5113 34.2334C63.4792 34.2334 69.1278 39.882 69.1278 46.8499Z" fill="white"/>
</clipPath>
<g clip-path="url(#mask0_5481_122539)">
<g clip-path="url(#clip0_5481_122539)">
<rect width="96" height="96" rx="10" fill="#D9F4FD"/>
<circle cx="85.5714" cy="63.1124" r="138.607" fill="url(#paint0_radial_5481_122539)"/>
<path d="M-8.63919 30.067C-10.18 -3.11477 15.4702 -31.263 48.652 -32.8037C81.8337 -34.3445 109.982 -8.69438 111.523 24.4874C113.063 57.6692 87.4133 85.8174 54.2316 87.3582C21.0498 88.8989 -7.09842 63.2488 -8.63919 30.067Z" fill="url(#paint1_linear_5481_122539)"/>
<path d="M24.2526 -66.43C16.7672 -71.0619 7.28331 -71.0903 -0.22988 -66.5032L-75.3753 -20.6218C-82.7348 -16.1282 -82.7471 -5.52169 -75.3976 -1.01111L-0.748691 44.8052C6.75324 49.4089 16.2372 49.4034 23.7327 44.7888L98.2278 -1.0704C105.538 -5.57135 105.552 -16.1186 98.2501 -20.6366L24.2526 -66.43Z" fill="url(#paint2_linear_5481_122539)"/>
<path d="M-47.8586 45.9177C-32.3701 45.9177 -18.3401 52.1863 -8.18231 62.2992C12.1334 82.5597 28.9763 82.577 49.2919 62.3512C59.4498 52.1863 73.4971 45.9004 89.003 45.9004C119.997 45.9177 145.105 70.9575 145.105 101.868C145.105 132.778 119.997 157.8 89.003 157.8C73.4624 157.8 59.415 151.497 49.2572 141.332C28.9589 121.141 12.1334 121.158 -8.18231 141.419C-18.3401 151.549 -32.3701 157.8 -47.8586 157.8C-78.8357 157.8 -103.944 132.761 -103.944 101.868C-103.944 70.9749 -78.8357 45.9177 -47.8586 45.9177Z" fill="url(#paint3_linear_5481_122539)"/>
</g>
</g>

</svg>
