<svg width="48" height="48" viewBox="0 0 48 48" xmlns="http://www.w3.org/2000/svg">
  <defs>
<radialGradient id="paint0_radial_5481_122403" cx="0" cy="0" r="1" gradientUnits="userSpaceOnUse" gradientTransform="translate(42.7877 31.5552) rotate(90) scale(69.3033)">
<stop offset="0.0885417" stop-color="#EB1000"/>
<stop offset="1" stop-color="#EB1000" stop-opacity="0"/>
</radialGradient>
<linearGradient id="paint1_linear_5481_122403" x1="34.7309" y1="-1.54315" x2="6.93278" y2="34.4977" gradientUnits="userSpaceOnUse">
<stop stop-color="#FF4885"/>
<stop offset="1" stop-color="#FF4885" stop-opacity="0"/>
</linearGradient>
<linearGradient id="paint2_linear_5481_122403" x1="17.7929" y1="-18.1348" x2="23.1553" y2="16.1845" gradientUnits="userSpaceOnUse">
<stop offset="0.15625" stop-color="#7A6AFD"/>
<stop offset="1" stop-color="#7A6AFD" stop-opacity="0"/>
</linearGradient>
<linearGradient id="paint3_linear_5481_122403" x1="-44.0785" y1="50.8616" x2="46.1473" y2="33.0298" gradientUnits="userSpaceOnUse">
<stop stop-color="#30A7FE" stop-opacity="0"/>
<stop offset="0.432292" stop-color="#30A7FE" stop-opacity="0.994652"/>
<stop offset="0.609375" stop-color="#30A7FE"/>
<stop offset="1" stop-color="#30A7FE" stop-opacity="0"/>
</linearGradient>
<clipPath id="clip0_5481_122403">
<rect width="48" height="48" rx="10" fill="white"/>
</clipPath>
</defs>
<clipPath id="mask0_5481_122403">
<path fill-rule="evenodd" d="M22.2137 9.43099C21.1275 10.2583 20.3564 11.5711 19.9098 12.7961L18.345 17.8944H26.5983C27.0529 17.8944 27.4717 18.1413 27.6919 18.5391L30.9189 24.3687C33.1326 22.1568 35.361 19.931 37.0442 18.2502C37.5326 17.7624 38.3241 17.7629 38.8119 18.2514C39.2997 18.7399 39.2992 19.5313 38.8107 20.0192C36.9989 21.8285 34.5553 24.2692 32.1785 26.6442L35.8531 33.2826C36.1874 33.8866 35.9688 34.6472 35.3649 34.9816C34.7609 35.3159 34.0002 35.0973 33.6659 34.4933L30.3387 28.4828L29.588 29.2332C28.0577 30.7629 26.6815 32.1392 25.6849 33.1371C25.1865 33.6361 24.7835 34.0401 24.5037 34.3212C24.3637 34.4618 24.2553 34.5709 24.1816 34.6455C24.1444 34.683 24.1175 34.7104 24.1001 34.7281L24.0938 34.7347C23.6646 35.2024 22.9422 35.2773 22.4237 34.8884C21.8714 34.4742 21.7595 33.6907 22.1737 33.1384C22.2055 33.0959 22.2344 33.0636 22.2382 33.0592L22.2386 33.0588C22.2431 33.0538 22.2472 33.0492 22.2507 33.0453C22.2543 33.0414 22.2573 33.0381 22.2593 33.0359C22.2678 33.0268 22.2754 33.0188 22.28 33.014L22.3123 32.9807C22.3349 32.9575 22.366 32.926 22.4041 32.8875C22.4808 32.81 22.5914 32.6986 22.7319 32.5575C23.0132 32.2749 23.4174 31.8697 23.916 31.3705C24.9133 30.3718 26.2902 28.9949 27.8206 27.465L29.0791 26.2072L25.8615 20.3944H17.5777L11.2656 40.9604C11.0631 41.6204 10.3639 41.9912 9.70388 41.7886C9.04391 41.5861 8.6731 40.8869 8.87566 40.2269L14.9626 20.3944H11.2396C10.5492 20.3944 9.98959 19.8348 9.98959 19.1444C9.98959 18.4541 10.5492 17.8944 11.2396 17.8944H15.7299L17.529 12.0326C17.535 12.0132 17.5414 11.994 17.5483 11.975C18.0875 10.4812 19.0867 8.67011 20.699 7.44214C22.3795 6.1622 24.6311 5.59548 27.3842 6.51628C28.0389 6.73525 28.3922 7.4435 28.1732 8.09821C27.9542 8.75292 27.246 9.10616 26.5913 8.88719C24.6281 8.23062 23.2399 8.64942 22.2137 9.43099Z" fill="white"/>
</clipPath>
<g clip-path="url(#mask0_5481_122403)">
<g clip-path="url(#clip0_5481_122403)">
<rect width="48" height="48" rx="10" fill="#D9F4FD"/>
<circle cx="42.7877" cy="31.5552" r="69.3033" fill="url(#paint0_radial_5481_122403)"/>
<path d="M-4.31959 15.0345C-5.08998 -1.55641 7.73508 -15.6305 24.326 -16.4009C40.9169 -17.1713 54.991 -4.34621 55.7613 12.2447C56.5317 28.8356 43.7067 42.9097 27.1158 43.6801C10.5249 44.4504 -3.54921 31.6254 -4.31959 15.0345Z" fill="url(#paint1_linear_5481_122403)"/>
<path d="M12.1243 -33.214C8.38167 -35.53 3.6397 -35.5442 -0.116893 -33.2506L-37.6896 -10.3099C-41.3694 -8.06314 -41.3755 -2.75987 -37.7007 -0.504581L-0.376298 22.4036C3.37467 24.7054 8.11665 24.7027 11.8644 22.3954L49.1119 -0.534222C52.7672 -2.7847 52.7739 -8.05833 49.1231 -10.3173L12.1243 -33.214Z" fill="url(#paint2_linear_5481_122403)"/>
<path d="M-23.9274 22.9579C-16.1831 22.9579 -9.16812 26.0922 -4.0892 31.1486C6.06863 41.2789 14.4901 41.2875 24.6479 31.1746C29.7268 26.0922 36.7505 22.9492 44.5034 22.9492C60.0006 22.9579 72.5547 35.4778 72.5547 50.9329C72.5547 66.388 60.0006 78.8992 44.5034 78.8992C36.7331 78.8992 29.7095 75.7476 24.6306 70.6652C14.4814 60.5696 6.06863 60.5782 -4.0892 70.7085C-9.16812 75.7736 -16.1831 78.8992 -23.9274 78.8992C-39.4159 78.8992 -51.9699 66.3793 -51.9699 50.9329C-51.9699 35.4865 -39.4159 22.9579 -23.9274 22.9579Z" fill="url(#paint3_linear_5481_122403)"/>
</g>
</g>

</svg>
