<svg width="160" height="160" viewBox="0 0 160 160" xmlns="http://www.w3.org/2000/svg">
  <defs>
<radialGradient id="paint0_radial_5481_122219" cx="0" cy="0" r="1" gradientUnits="userSpaceOnUse" gradientTransform="translate(142.62 105.187) rotate(90) scale(231.011)">
<stop offset="0.0885417" stop-color="#EB1000"/>
<stop offset="1" stop-color="#EB1000" stop-opacity="0"/>
</radialGradient>
<linearGradient id="paint1_linear_5481_122219" x1="115.768" y1="-5.14512" x2="23.108" y2="114.991" gradientUnits="userSpaceOnUse">
<stop stop-color="#FF4885"/>
<stop offset="1" stop-color="#FF4885" stop-opacity="0"/>
</linearGradient>
<linearGradient id="paint2_linear_5481_122219" x1="59.3137" y1="-60.4521" x2="77.1884" y2="53.9458" gradientUnits="userSpaceOnUse">
<stop offset="0.15625" stop-color="#7A6AFD"/>
<stop offset="1" stop-color="#7A6AFD" stop-opacity="0"/>
</linearGradient>
<linearGradient id="paint3_linear_5481_122219" x1="-146.934" y1="169.541" x2="153.819" y2="110.102" gradientUnits="userSpaceOnUse">
<stop stop-color="#30A7FE" stop-opacity="0"/>
<stop offset="0.432292" stop-color="#30A7FE" stop-opacity="0.994652"/>
<stop offset="0.609375" stop-color="#30A7FE"/>
<stop offset="1" stop-color="#30A7FE" stop-opacity="0"/>
</linearGradient>
<clipPath id="clip0_5481_122219">
<rect width="160" height="160" rx="10" fill="white"/>
</clipPath>
</defs>
<clipPath id="mask0_5481_122219">
<path fill-rule="evenodd" d="M30.4435 50.9499L76.9759 31.9417C78.9149 31.1496 81.0873 31.1496 83.0264 31.9417L129.559 50.9499C136.192 53.6594 136.192 63.0522 129.559 65.7618L125.475 67.4299L125.475 90.6135C125.475 93.6182 124.672 97.9497 121.639 102.466C118.599 106.994 113.474 111.479 105.194 115.028C98.5206 117.887 90.8257 118.987 84.1091 119.236C77.3795 119.487 71.2943 118.895 67.6729 118.149C65.5091 117.703 64.1162 115.588 64.5617 113.425C65.0071 111.261 67.1223 109.868 69.2861 110.313C72.1931 110.912 77.6287 111.472 83.812 111.242C90.0083 111.012 96.6184 109.999 102.042 107.674C109.153 104.627 112.956 101.047 114.997 98.0071C117.045 94.9563 117.475 92.2171 117.475 90.6135L117.475 70.6979L83.0264 84.7699C81.0873 85.562 78.9149 85.562 76.9759 84.7699L53.9299 75.3558C54.2195 75.0359 54.5632 74.7604 54.9521 74.5444L81.9434 59.5492C83.8745 58.4764 84.5703 56.0412 83.4974 54.11C82.4246 52.1789 79.9894 51.4831 78.0582 52.556L51.067 67.5511C49.0533 68.6699 47.4438 70.3192 46.3739 72.2692L30.4435 65.7617C23.8105 63.0522 23.8105 53.6594 30.4435 50.9499ZM44.8947 111.609V78.041C44.8947 75.9866 45.4197 74.0083 46.3739 72.2692L53.9299 75.3558C53.2737 76.0804 52.8947 77.0332 52.8947 78.041V110.719C55.7118 115.67 58.6066 122.006 59.1734 127.381C59.2325 127.791 59.2631 128.209 59.2631 128.634C59.2631 133.724 54.8787 137.85 49.4704 137.85C44.0621 137.85 39.6777 133.724 39.6777 128.634C39.6777 128.292 39.6975 127.955 39.7359 127.623C40.1576 122.513 42.5 116.491 44.8947 111.609Z" fill="white"/>
</clipPath>
<g clip-path="url(#mask0_5481_122219)">
<g clip-path="url(#clip0_5481_122219)">
<rect width="160" height="160" rx="10" fill="#D9F4FD"/>
<circle cx="142.62" cy="105.187" r="231.011" fill="url(#paint0_radial_5481_122219)"/>
<path d="M-14.3999 50.1137C-16.9679 -5.18932 25.7823 -52.103 81.0853 -54.6709C136.388 -57.2388 183.302 -14.4887 185.87 40.8143C188.438 96.1173 145.688 143.031 90.3846 145.599C35.0817 148.167 -11.832 105.417 -14.3999 50.1137Z" fill="url(#paint1_linear_5481_122219)"/>
<path d="M40.4184 -110.716C27.9428 -118.436 12.1362 -118.483 -0.385738 -110.838L-125.628 -34.3691C-137.894 -26.8797 -137.914 -9.20217 -125.665 -1.68455L-1.25042 74.676C11.2528 82.3487 27.0594 82.3396 39.5518 74.6486L163.71 -1.78335C175.895 -9.28493 175.917 -26.8637 163.748 -34.3936L40.4184 -110.716Z" fill="url(#paint2_linear_5481_122219)"/>
<path d="M-79.7631 76.5289C-53.9489 76.5289 -30.5656 86.9766 -13.6359 103.831C20.2235 137.599 48.2951 137.628 82.1545 103.918C99.0842 86.9766 122.496 76.5 148.34 76.5C199.997 76.5289 241.844 118.262 241.844 169.779C241.844 221.296 199.997 263 148.34 263C122.439 263 99.0263 252.495 82.0966 235.553C48.2661 201.901 20.2235 201.93 -13.6359 235.697C-30.5656 252.581 -53.9489 263 -79.7631 263C-131.392 263 -173.238 221.267 -173.238 169.779C-173.238 118.291 -131.392 76.5289 -79.7631 76.5289Z" fill="url(#paint3_linear_5481_122219)"/>
</g>
</g>

</svg>
