<svg width="160" height="160" viewBox="0 0 160 160" xmlns="http://www.w3.org/2000/svg">
  <defs>
<radialGradient id="paint0_radial_5481_122148" cx="0" cy="0" r="1" gradientUnits="userSpaceOnUse" gradientTransform="translate(130.355 101.038) rotate(90) scale(170.948 181.344)">
<stop offset="0.0885417" stop-color="#EB1000"/>
<stop offset="1" stop-color="#EB1000" stop-opacity="0"/>
</radialGradient>
<linearGradient id="paint1_linear_5481_122148" x1="109.277" y1="19.3921" x2="41.838" y2="112.146" gradientUnits="userSpaceOnUse">
<stop stop-color="#FF4885"/>
<stop offset="1" stop-color="#FF4885" stop-opacity="0"/>
</linearGradient>
<linearGradient id="paint2_linear_5481_122148" x1="64.9613" y1="-21.5347" x2="77.4635" y2="63.345" gradientUnits="userSpaceOnUse">
<stop offset="0.15625" stop-color="#7A6AFD"/>
<stop offset="1" stop-color="#7A6AFD" stop-opacity="0"/>
</linearGradient>
<linearGradient id="paint3_linear_5481_122148" x1="-96.9441" y1="148.659" x2="138.04" y2="99.3939" gradientUnits="userSpaceOnUse">
<stop stop-color="#30A7FE" stop-opacity="0"/>
<stop offset="0.432292" stop-color="#30A7FE" stop-opacity="0.994652"/>
<stop offset="0.609375" stop-color="#30A7FE"/>
<stop offset="1" stop-color="#30A7FE" stop-opacity="0"/>
</linearGradient>
<clipPath id="clip0_5481_122148">
<rect x="18.3984" y="23.1992" width="125.6" height="118.4" rx="10" fill="white"/>
</clipPath>
</defs>
<clipPath id="mask0_5481_122148">
<path fill-rule="evenodd" d="M87.7922 31.3498L120.752 62.8798V62.8998C123.152 65.1798 124.502 68.3598 124.502 71.6798V119.89C124.502 126.59 119.092 132.02 112.432 132.02H47.5622C40.8922 132.02 35.4922 126.59 35.4922 119.89V40.1398C35.4922 33.4398 40.9022 28.0098 47.5622 28.0098H79.4722C82.5722 28.0098 85.5522 29.1998 87.7922 31.3498ZM92.5422 69.8598C92.5422 67.6498 90.7522 65.8598 88.5422 65.8598H83.4722V59.1998H88.5522C90.7622 59.1998 92.5522 57.4098 92.5522 55.1998C92.5522 52.9898 90.7622 51.1998 88.5522 51.1998H83.4722V47.8698C83.4722 45.6598 81.6822 43.8698 79.4722 43.8698H71.4822C69.2722 43.8698 67.4822 45.6598 67.4822 47.8698C67.4822 50.0798 69.2722 51.8698 71.4822 51.8698H75.4722V58.5298H71.4822C69.2722 58.5298 67.4822 60.3198 67.4822 62.5298C67.4822 64.7398 69.2722 66.5298 71.4822 66.5298H75.4722V73.1898H71.4822C69.2722 73.1898 67.4822 74.9798 67.4822 77.1898C67.4822 79.3998 69.2722 81.1898 71.4822 81.1898H75.4722V87.8498H72.4822C70.2722 87.8498 68.4822 89.6398 68.4822 91.8498V111.94C68.4822 116.35 72.0722 119.94 76.4822 119.94H82.4922C86.9022 119.94 90.4922 116.35 90.4922 111.94V91.8498C90.4922 89.6398 88.7022 87.8498 86.4922 87.8498H83.4622V73.8598H88.5422C90.7522 73.8598 92.5422 72.0698 92.5422 69.8598ZM76.4824 103.89H82.5024V111.93H76.4824V103.89Z" fill="white"/>
</clipPath>
<g clip-path="url(#mask0_5481_122148)">
<g clip-path="url(#clip0_5481_122148)">
<rect x="18.3984" y="23.1992" width="125.6" height="118.4" rx="10" fill="#D9F4FD"/>
<ellipse cx="130.355" cy="101.038" rx="181.344" ry="170.948" fill="url(#paint0_radial_5481_122148)"/>
<path d="M7.09525 60.2836C5.07941 19.3594 38.6383 -15.3567 82.0512 -17.257C125.464 -19.1572 162.291 12.4779 164.307 53.4021C166.323 94.3263 132.764 129.042 89.3511 130.943C45.9383 132.843 9.11108 101.208 7.09525 60.2836Z" fill="url(#paint1_linear_5481_122148)"/>
<path d="M50.1285 -58.73C40.3352 -64.4427 27.927 -64.4777 18.0973 -58.8203L-80.218 -2.23325C-89.8467 3.30884 -89.8628 16.3902 -80.2472 21.9533L17.4185 78.4601C27.2335 84.1379 39.6417 84.1312 49.4483 78.4399L146.913 21.8802C156.477 16.329 156.495 3.32071 146.942 -2.25142L50.1285 -58.73Z" fill="url(#paint2_linear_5481_122148)"/>
<path d="M-44.2153 79.83C-23.9511 79.83 -5.59525 87.5612 7.69458 100.034C34.2742 125.022 56.3104 125.043 82.89 100.098C96.1799 87.5612 114.558 79.8086 134.845 79.8086C175.396 79.83 208.246 110.712 208.246 148.835C208.246 186.958 175.396 217.819 134.845 217.819C114.513 217.819 96.1344 210.045 82.8446 197.508C56.2877 172.605 34.2742 172.627 7.69458 197.615C-5.59525 210.109 -23.9511 217.819 -44.2153 217.819C-84.7436 217.819 -117.593 186.936 -117.593 148.835C-117.593 110.734 -84.7436 79.83 -44.2153 79.83Z" fill="url(#paint3_linear_5481_122148)"/>
</g>
</g>

</svg>
