<svg width="96" height="96" viewBox="0 0 96 96" xmlns="http://www.w3.org/2000/svg">
  <defs>
<radialGradient id="paint0_radial_5481_122459" cx="0" cy="0" r="1" gradientUnits="userSpaceOnUse" gradientTransform="translate(78.2124 60.6226) rotate(90) scale(102.569 108.806)">
<stop offset="0.0885417" stop-color="#EB1000"/>
<stop offset="1" stop-color="#EB1000" stop-opacity="0"/>
</radialGradient>
<linearGradient id="paint1_linear_5481_122459" x1="65.5656" y1="11.6361" x2="25.102" y2="67.2883" gradientUnits="userSpaceOnUse">
<stop stop-color="#FF4885"/>
<stop offset="1" stop-color="#FF4885" stop-opacity="0"/>
</linearGradient>
<linearGradient id="paint2_linear_5481_122459" x1="38.9776" y1="-12.9206" x2="46.4789" y2="38.0072" gradientUnits="userSpaceOnUse">
<stop offset="0.15625" stop-color="#7A6AFD"/>
<stop offset="1" stop-color="#7A6AFD" stop-opacity="0"/>
</linearGradient>
<linearGradient id="paint3_linear_5481_122459" x1="-58.1649" y1="89.197" x2="82.8254" y2="59.6379" gradientUnits="userSpaceOnUse">
<stop stop-color="#30A7FE" stop-opacity="0"/>
<stop offset="0.432292" stop-color="#30A7FE" stop-opacity="0.994652"/>
<stop offset="0.609375" stop-color="#30A7FE"/>
<stop offset="1" stop-color="#30A7FE" stop-opacity="0"/>
</linearGradient>
<clipPath id="clip0_5481_122459">
<rect x="11.0391" y="13.9199" width="75.36" height="71.04" rx="10" fill="white"/>
</clipPath>
</defs>
<clipPath id="mask0_5481_122459">
<path fill-rule="evenodd" d="M33.6016 19.5996C33.6016 16.2858 36.2875 13.5996 39.6016 13.5996H56.4016C59.7156 13.5996 62.4016 16.2858 62.4016 19.5996V23.1996H81.0016C82.327 23.1996 83.4016 24.2742 83.4016 25.5996C83.4016 26.925 82.327 27.9996 81.0016 27.9996H75.3016L70.0574 72.0507C69.6262 75.6726 66.5547 78.3996 62.9078 78.3996H33.0953C29.4484 78.3996 26.377 75.6726 25.9457 72.0507L20.7016 27.9996H15.0016C13.6762 27.9996 12.6016 26.925 12.6016 25.5996C12.6016 24.2742 13.6762 23.1996 15.0016 23.1996H33.6016V19.5996ZM39.6016 18.3996C38.9378 18.3996 38.4016 18.9377 38.4016 19.5996V23.1996H57.6016V19.5996C57.6016 18.9369 57.0648 18.3996 56.4016 18.3996H39.6016ZM40.8016 32.7996C39.4762 32.7996 38.4016 33.8741 38.4016 35.1996V68.7996C38.4016 70.1251 39.4762 71.1996 40.8016 71.1996C42.127 71.1996 43.2016 70.1251 43.2016 68.7996V35.1996C43.2016 33.8741 42.127 32.7996 40.8016 32.7996ZM55.2016 32.7996C53.8762 32.7996 52.8016 33.8741 52.8016 35.1996V68.7996C52.8016 70.1251 53.8762 71.1996 55.2016 71.1996C56.527 71.1996 57.6016 70.1251 57.6016 68.7996V35.1996C57.6016 33.8741 56.527 32.7996 55.2016 32.7996Z" fill="white"/>
</clipPath>
<g clip-path="url(#mask0_5481_122459)">
<g clip-path="url(#clip0_5481_122459)">
<rect x="11.0391" y="13.9199" width="75.36" height="71.04" rx="10" fill="#D9F4FD"/>
<ellipse cx="78.2124" cy="60.6226" rx="108.806" ry="102.569" fill="url(#paint0_radial_5481_122459)"/>
<path d="M4.25636 36.171C3.04686 11.6164 23.1822 -9.21323 49.2299 -10.3534C75.2776 -11.4936 97.3739 7.48752 98.5834 32.0421C99.7929 56.5966 79.6576 77.4262 53.6099 78.5664C27.5622 79.7066 5.46586 60.7255 4.25636 36.171Z" fill="url(#paint1_linear_5481_122459)"/>
<path d="M30.0779 -35.2378C24.2019 -38.6654 16.757 -38.6864 10.8591 -35.292L-48.13 -1.33975C-53.9073 1.9855 -53.9169 9.83435 -48.1475 13.1722L10.4519 47.0763C16.3409 50.483 23.7858 50.4789 29.6697 47.0641L88.1484 13.1283C93.8873 9.7976 93.8977 1.99262 88.1659 -1.35065L30.0779 -35.2378Z" fill="url(#paint2_linear_5481_122459)"/>
<path d="M-26.5276 47.8995C-14.3691 47.8995 -3.35561 52.5383 4.61829 60.0219C20.5661 75.0146 33.7878 75.0274 49.7356 60.0603C57.7095 52.5383 68.7366 47.8867 80.9088 47.8867C105.239 47.8995 124.949 66.429 124.949 89.3025C124.949 112.176 105.239 130.693 80.9088 130.693C68.7094 130.693 57.6822 126.028 49.7083 118.506C33.7741 103.565 20.5661 103.578 4.61829 118.57C-3.35561 126.067 -14.3691 130.693 -26.5276 130.693C-50.8446 130.693 -70.5544 112.163 -70.5544 89.3025C-70.5544 66.4418 -50.8446 47.8995 -26.5276 47.8995Z" fill="url(#paint3_linear_5481_122459)"/>
</g>
</g>

</svg>
