<svg width="96" height="96" viewBox="0 0 96 96" xmlns="http://www.w3.org/2000/svg">
  <defs>
<radialGradient id="paint0_radial_5481_122542" cx="0" cy="0" r="1" gradientUnits="userSpaceOnUse" gradientTransform="translate(85.5714 63.1124) rotate(90) scale(138.607)">
<stop offset="0.0885417" stop-color="#EB1000"/>
<stop offset="1" stop-color="#EB1000" stop-opacity="0"/>
</radialGradient>
<linearGradient id="paint1_linear_5481_122542" x1="69.4617" y1="-3.08825" x2="13.8656" y2="68.9935" gradientUnits="userSpaceOnUse">
<stop stop-color="#FF4885"/>
<stop offset="1" stop-color="#FF4885" stop-opacity="0"/>
</linearGradient>
<linearGradient id="paint2_linear_5481_122542" x1="35.5898" y1="-36.2716" x2="46.3146" y2="32.3671" gradientUnits="userSpaceOnUse">
<stop offset="0.15625" stop-color="#7A6AFD"/>
<stop offset="1" stop-color="#7A6AFD" stop-opacity="0"/>
</linearGradient>
<linearGradient id="paint3_linear_5481_122542" x1="-88.1609" y1="101.725" x2="92.2907" y2="66.0615" gradientUnits="userSpaceOnUse">
<stop stop-color="#30A7FE" stop-opacity="0"/>
<stop offset="0.432292" stop-color="#30A7FE" stop-opacity="0.994652"/>
<stop offset="0.609375" stop-color="#30A7FE"/>
<stop offset="1" stop-color="#30A7FE" stop-opacity="0"/>
</linearGradient>
<clipPath id="clip0_5481_122542">
<rect width="96" height="96" rx="10" fill="white"/>
</clipPath>
</defs>
<clipPath id="mask0_5481_122542">
<path fill-rule="evenodd" d="M33.6191 28.0938C33.8081 28.0938 33.9946 28.0833 34.1782 28.0628L39.5157 37.3077C36.8623 39.4158 35.0117 42.4908 34.4965 46H23.8222C23.0507 44.2341 21.2886 43 19.2383 43C16.4769 43 14.2383 45.2386 14.2383 48C14.2383 50.7614 16.4769 53 19.2383 53C21.2886 53 23.0507 51.7659 23.8222 50H34.4967C35.0121 53.5089 36.8628 56.5836 39.5161 58.6915L34.1782 67.9371C33.9946 67.9167 33.8081 67.9062 33.6191 67.9062C30.8577 67.9062 28.6191 70.1448 28.6191 72.9062C28.6191 75.6677 30.8577 77.9062 33.6191 77.9062C36.3806 77.9062 38.6191 75.6677 38.6191 72.9062C38.6191 71.7944 38.2562 70.7673 37.6424 69.9369L42.9786 60.6943C44.5325 61.3094 46.2263 61.6473 47.999 61.6473C49.7717 61.6473 51.4655 61.3093 53.0194 60.6943L58.3559 69.9373C57.7422 70.7676 57.3794 71.7946 57.3794 72.9062C57.3794 75.6677 59.618 77.9062 62.3794 77.9062C65.1408 77.9062 67.3794 75.6677 67.3794 72.9062C67.3794 70.1448 65.1408 67.9062 62.3794 67.9062C62.1903 67.9062 62.0036 67.9168 61.8199 67.9372L56.4819 58.6915C59.1352 56.5835 60.9858 53.5088 61.5013 50L72.1758 50C72.9474 51.7659 74.7094 53 76.7598 53C79.5212 53 81.7598 50.7614 81.7598 48C81.7598 45.2386 79.5212 43 76.7598 43C74.7094 43 72.9474 44.2341 72.1758 46L61.5014 46C60.9863 42.4909 59.1357 39.4159 56.4823 37.3078L61.8199 28.0628C62.0036 28.0832 62.1903 28.0938 62.3794 28.0938C65.1408 28.0938 67.3794 25.8552 67.3794 23.0938C67.3794 20.3323 65.1408 18.0938 62.3794 18.0938C59.618 18.0938 57.3794 20.3323 57.3794 23.0938C57.3794 24.2054 57.7422 25.2324 58.3559 26.0627L53.0199 35.3048C51.4659 34.6896 49.7719 34.3516 47.999 34.3516C46.2261 34.3516 44.5321 34.6896 42.9781 35.3048L37.6424 26.0631C38.2562 25.2327 38.6191 24.2056 38.6191 23.0938C38.6191 20.3323 36.3806 18.0938 33.6191 18.0938C30.8577 18.0938 28.6191 20.3323 28.6191 23.0938C28.6191 25.8552 30.8577 28.0938 33.6191 28.0938Z" fill="white"/>
</clipPath>
<g clip-path="url(#mask0_5481_122542)">
<g clip-path="url(#clip0_5481_122542)">
<rect width="96" height="96" rx="10" fill="#D9F4FD"/>
<circle cx="85.5714" cy="63.1124" r="138.607" fill="url(#paint0_radial_5481_122542)"/>
<path d="M-8.63919 30.067C-10.18 -3.11477 15.4702 -31.263 48.652 -32.8037C81.8337 -34.3445 109.982 -8.69438 111.523 24.4874C113.063 57.6692 87.4133 85.8174 54.2316 87.3582C21.0498 88.8989 -7.09842 63.2488 -8.63919 30.067Z" fill="url(#paint1_linear_5481_122542)"/>
<path d="M24.2526 -66.43C16.7672 -71.0619 7.28331 -71.0903 -0.22988 -66.5032L-75.3753 -20.6218C-82.7348 -16.1282 -82.7471 -5.52169 -75.3976 -1.01111L-0.748691 44.8052C6.75324 49.4089 16.2372 49.4034 23.7327 44.7888L98.2278 -1.0704C105.538 -5.57135 105.552 -16.1186 98.2501 -20.6366L24.2526 -66.43Z" fill="url(#paint2_linear_5481_122542)"/>
<path d="M-47.8586 45.9177C-32.3701 45.9177 -18.3401 52.1863 -8.18231 62.2992C12.1334 82.5597 28.9763 82.577 49.2919 62.3512C59.4498 52.1863 73.4971 45.9004 89.003 45.9004C119.997 45.9177 145.105 70.9575 145.105 101.868C145.105 132.778 119.997 157.8 89.003 157.8C73.4624 157.8 59.415 151.497 49.2572 141.332C28.9589 121.141 12.1334 121.158 -8.18231 141.419C-18.3401 151.549 -32.3701 157.8 -47.8586 157.8C-78.8357 157.8 -103.944 132.761 -103.944 101.868C-103.944 70.9749 -78.8357 45.9177 -47.8586 45.9177Z" fill="url(#paint3_linear_5481_122542)"/>
</g>
</g>

</svg>
