<svg width="96" height="96" viewBox="0 0 96 96" xmlns="http://www.w3.org/2000/svg">
  <defs>
<radialGradient id="paint0_radial_5481_122483" cx="0" cy="0" r="1" gradientUnits="userSpaceOnUse" gradientTransform="translate(78.2124 60.6236) rotate(90) scale(102.569 108.806)">
<stop offset="0.0885417" stop-color="#EB1000"/>
<stop offset="1" stop-color="#EB1000" stop-opacity="0"/>
</radialGradient>
<linearGradient id="paint1_linear_5481_122483" x1="65.5656" y1="11.6361" x2="25.102" y2="67.2883" gradientUnits="userSpaceOnUse">
<stop stop-color="#FF4885"/>
<stop offset="1" stop-color="#FF4885" stop-opacity="0"/>
</linearGradient>
<linearGradient id="paint2_linear_5481_122483" x1="38.9776" y1="-12.9196" x2="46.4789" y2="38.0082" gradientUnits="userSpaceOnUse">
<stop offset="0.15625" stop-color="#7A6AFD"/>
<stop offset="1" stop-color="#7A6AFD" stop-opacity="0"/>
</linearGradient>
<linearGradient id="paint3_linear_5481_122483" x1="-58.1649" y1="89.197" x2="82.8254" y2="59.6379" gradientUnits="userSpaceOnUse">
<stop stop-color="#30A7FE" stop-opacity="0"/>
<stop offset="0.432292" stop-color="#30A7FE" stop-opacity="0.994652"/>
<stop offset="0.609375" stop-color="#30A7FE"/>
<stop offset="1" stop-color="#30A7FE" stop-opacity="0"/>
</linearGradient>
<clipPath id="clip0_5481_122483">
<rect x="11.0391" y="13.9199" width="75.36" height="71.04" rx="10" fill="white"/>
</clipPath>
</defs>
<clipPath id="mask0_5481_122483">
<path d="M74.4 19.1992H21.6C16.296 19.1992 12 23.4952 12 28.7992V67.1992C12 72.5032 16.296 76.7992 21.6 76.7992H74.4C79.704 76.7992 84 72.5032 84 67.1992V28.7992C84 23.4952 79.704 19.1992 74.4 19.1992ZM37.65 57.7852C38.556 58.7572 38.502 60.2752 37.536 61.1752C37.074 61.6072 36.486 61.8232 35.898 61.8232C35.256 61.8232 34.614 61.5652 34.14 61.0612L23.106 49.2412C22.224 48.2932 22.248 46.8232 23.166 45.9052L34.2 34.8712C35.136 33.9352 36.66 33.9352 37.596 34.8712C38.532 35.8072 38.532 37.3252 37.596 38.2672L28.206 47.6572L37.656 57.7792L37.65 57.7852ZM55.422 31.7872L45.174 65.6032C44.862 66.6412 43.908 67.3072 42.876 67.3072C42.648 67.3072 42.414 67.2712 42.18 67.2052C40.914 66.8212 40.194 65.4832 40.578 64.2112L50.826 30.3952C51.21 29.1292 52.548 28.4092 53.82 28.7932C55.086 29.1772 55.806 30.5152 55.422 31.7872ZM72.834 50.0872L61.8 61.1212C61.332 61.5892 60.72 61.8232 60.102 61.8232C59.484 61.8232 58.872 61.5892 58.404 61.1212C57.468 60.1852 57.468 58.6672 58.404 57.7252L67.794 48.3352L58.344 38.2132C57.438 37.2412 57.492 35.7232 58.458 34.8232C59.424 33.9172 60.948 33.9712 61.848 34.9372L72.882 46.7572C73.764 47.7052 73.74 49.1752 72.822 50.0932L72.834 50.0872Z" fill="white"/>
</clipPath>
<g clip-path="url(#mask0_5481_122483)">
<g clip-path="url(#clip0_5481_122483)">
<rect x="11.0391" y="13.9199" width="75.36" height="71.04" rx="10" fill="#D9F4FD"/>
<ellipse cx="78.2124" cy="60.6236" rx="108.806" ry="102.569" fill="url(#paint0_radial_5481_122483)"/>
<path d="M4.25636 36.171C3.04686 11.6164 23.1822 -9.21323 49.2299 -10.3534C75.2776 -11.4936 97.3739 7.48752 98.5834 32.0421C99.7929 56.5966 79.6576 77.4262 53.6099 78.5664C27.5622 79.7066 5.46586 60.7255 4.25636 36.171Z" fill="url(#paint1_linear_5481_122483)"/>
<path d="M30.0779 -35.2368C24.2019 -38.6645 16.757 -38.6854 10.8591 -35.291L-48.13 -1.33878C-53.9073 1.98648 -53.9169 9.83532 -48.1475 13.1731L10.4519 47.0772C16.3409 50.4839 23.7858 50.4799 29.6697 47.0651L88.1484 13.1293C93.8873 9.79858 93.8977 1.9936 88.1659 -1.34968L30.0779 -35.2368Z" fill="url(#paint2_linear_5481_122483)"/>
<path d="M-26.5276 47.8995C-14.3691 47.8995 -3.35561 52.5383 4.61829 60.0219C20.5661 75.0146 33.7878 75.0274 49.7356 60.0603C57.7095 52.5383 68.7366 47.8867 80.9088 47.8867C105.239 47.8995 124.949 66.429 124.949 89.3025C124.949 112.176 105.239 130.693 80.9088 130.693C68.7094 130.693 57.6822 126.028 49.7083 118.506C33.7741 103.565 20.5661 103.578 4.61829 118.57C-3.35561 126.067 -14.3691 130.693 -26.5276 130.693C-50.8446 130.693 -70.5544 112.163 -70.5544 89.3025C-70.5544 66.4418 -50.8446 47.8995 -26.5276 47.8995Z" fill="url(#paint3_linear_5481_122483)"/>
</g>
</g>

</svg>
