<svg width="160" height="160" viewBox="0 0 160 160" xmlns="http://www.w3.org/2000/svg">
  <defs>
<radialGradient id="paint0_radial_5481_122142" cx="0" cy="0" r="1" gradientUnits="userSpaceOnUse" gradientTransform="translate(134.458 101.903) rotate(90) scale(200.895 200.895)">
<stop offset="0.0885417" stop-color="#EB1000"/>
<stop offset="1" stop-color="#EB1000" stop-opacity="0"/>
</radialGradient>
<linearGradient id="paint1_linear_5481_122142" x1="111.107" y1="5.95511" x2="30.5263" y2="110.43" gradientUnits="userSpaceOnUse">
<stop stop-color="#FF4885"/>
<stop offset="1" stop-color="#FF4885" stop-opacity="0"/>
</linearGradient>
<linearGradient id="paint2_linear_5481_122142" x1="62.0108" y1="-42.1408" x2="77.5552" y2="57.3436" gradientUnits="userSpaceOnUse">
<stop offset="0.15625" stop-color="#7A6AFD"/>
<stop offset="1" stop-color="#7A6AFD" stop-opacity="0"/>
</linearGradient>
<linearGradient id="paint3_linear_5481_122142" x1="-117.348" y1="157.869" x2="144.197" y2="106.178" gradientUnits="userSpaceOnUse">
<stop stop-color="#30A7FE" stop-opacity="0"/>
<stop offset="0.432292" stop-color="#30A7FE" stop-opacity="0.994652"/>
<stop offset="0.609375" stop-color="#30A7FE"/>
<stop offset="1" stop-color="#30A7FE" stop-opacity="0"/>
</linearGradient>
<clipPath id="clip0_5481_122142">
<rect x="10.4297" y="10.4297" width="139.142" height="139.142" rx="10" fill="white"/>
</clipPath>
</defs>
<clipPath id="mask0_5481_122142">
<path d="M77.3719 27.1828C59.6151 28.437 45.2343 42.7671 43.9221 60.5198C42.9477 73.7032 49.046 85.5228 58.811 92.5897C61.9857 94.8871 63.9203 98.519 63.9203 102.438V111.761H96.0803V102.444C96.0803 98.6224 97.8491 94.9694 100.962 92.7531C110.171 86.196 116.18 75.4368 116.18 63.2699C116.18 42.4189 98.5419 25.6876 77.3719 27.1828ZM100.1 63.0186C98.0187 63.0186 96.3316 61.3315 96.3316 59.2499C96.3316 52.4612 90.809 46.9386 84.0203 46.9386C81.9387 46.9386 80.2516 45.2515 80.2516 43.1698C80.2516 41.0882 81.9387 39.4011 84.0203 39.4011C94.9654 39.4011 103.869 48.3053 103.869 59.2499C103.869 61.3315 102.182 63.0186 100.1 63.0186Z" fill="white"/>
<path d="M63.9219 125.58C63.9219 128.91 66.6216 131.61 69.9519 131.61H90.0519C93.3822 131.61 96.0819 128.91 96.0819 125.58V119.299H63.9219V125.58Z" fill="white"/>
</clipPath>
<g clip-path="url(#mask0_5481_122142)">
<g clip-path="url(#clip0_5481_122142)">
<rect x="10.4297" y="10.4297" width="139.142" height="139.142" rx="10" fill="#D9F4FD"/>
<ellipse cx="134.458" cy="101.903" rx="200.895" ry="200.895" fill="url(#paint0_radial_5481_122142)"/>
<path d="M-2.09191 54.0101C-4.32508 5.91667 32.852 -34.8811 80.9454 -37.1143C129.039 -39.3474 169.837 -2.17036 172.07 45.9231C174.303 94.0165 137.126 134.814 89.0324 137.047C40.939 139.281 0.141263 102.104 -2.09191 54.0101Z" fill="url(#paint1_linear_5481_122142)"/>
<path d="M45.5787 -85.8521C34.7295 -92.5656 20.9836 -92.6067 10.094 -85.9582L-98.8211 -19.4581C-109.488 -12.9451 -109.506 2.42794 -98.8535 8.96553L9.34205 75.3714C20.2153 82.0438 33.9613 82.0359 44.8251 75.3476L152.798 8.87961C163.394 2.35597 163.413 -12.9312 152.83 -19.4794L45.5787 -85.8521Z" fill="url(#paint2_linear_5481_122142)"/>
<path d="M-58.9346 76.9821C-36.4856 76.9821 -16.1507 86.0678 -1.42803 100.725C28.0173 130.091 52.4293 130.116 81.8747 100.801C96.5974 86.0678 116.957 76.957 139.432 76.957C184.355 76.9821 220.746 113.275 220.746 158.076C220.746 202.877 184.355 239.144 139.432 239.144C116.907 239.144 96.547 230.008 81.8243 215.275C52.4041 186.01 28.0173 186.035 -1.42803 215.401C-16.1507 230.083 -36.4856 239.144 -58.9346 239.144C-103.832 239.144 -140.224 202.851 -140.224 158.076C-140.224 113.3 -103.832 76.9821 -58.9346 76.9821Z" fill="url(#paint3_linear_5481_122142)"/>
</g>
</g>

</svg>
