<svg width="160" height="160" viewBox="0 0 160 160" xmlns="http://www.w3.org/2000/svg">
  <defs>
<radialGradient id="paint0_radial_5481_122242" cx="0" cy="0" r="1" gradientUnits="userSpaceOnUse" gradientTransform="translate(142.62 105.187) rotate(90) scale(231.011)">
<stop offset="0.0885417" stop-color="#EB1000"/>
<stop offset="1" stop-color="#EB1000" stop-opacity="0"/>
</radialGradient>
<linearGradient id="paint1_linear_5481_122242" x1="115.768" y1="-5.14512" x2="23.108" y2="114.991" gradientUnits="userSpaceOnUse">
<stop stop-color="#FF4885"/>
<stop offset="1" stop-color="#FF4885" stop-opacity="0"/>
</linearGradient>
<linearGradient id="paint2_linear_5481_122242" x1="59.3137" y1="-60.4521" x2="77.1884" y2="53.9458" gradientUnits="userSpaceOnUse">
<stop offset="0.15625" stop-color="#7A6AFD"/>
<stop offset="1" stop-color="#7A6AFD" stop-opacity="0"/>
</linearGradient>
<linearGradient id="paint3_linear_5481_122242" x1="-146.934" y1="169.541" x2="153.819" y2="110.102" gradientUnits="userSpaceOnUse">
<stop stop-color="#30A7FE" stop-opacity="0"/>
<stop offset="0.432292" stop-color="#30A7FE" stop-opacity="0.994652"/>
<stop offset="0.609375" stop-color="#30A7FE"/>
<stop offset="1" stop-color="#30A7FE" stop-opacity="0"/>
</linearGradient>
<clipPath id="clip0_5481_122242">
<rect width="160" height="160" rx="10" fill="white"/>
</clipPath>
</defs>
<clipPath id="mask0_5481_122242">
<path fill-rule="evenodd" d="M135.135 32.3563C136.506 34.0888 136.213 36.6045 134.48 37.9751L94.276 69.7809C93.0383 70.7601 91.3404 70.9199 89.9417 70.189L64.6321 56.9627L30.5914 85.8355C28.9066 87.2644 26.3825 87.0571 24.9535 85.3724C23.5245 83.6876 23.7319 81.1635 25.4166 79.7345L61.5108 49.1199C62.7523 48.0669 64.5081 47.8713 65.9508 48.6253L91.3474 61.897L129.516 31.701C131.249 30.3304 133.765 30.6238 135.135 32.3563ZM118.043 72.5099C118.043 68.7119 121.122 65.633 124.92 65.633C128.718 65.633 131.797 68.7119 131.797 72.5099V118.287C131.797 122.085 128.718 125.164 124.92 125.164C121.122 125.164 118.043 122.085 118.043 118.287V72.5099ZM58.1583 87.5158C58.1583 83.7178 61.2372 80.6388 65.0352 80.6388C68.8333 80.6388 71.9122 83.7178 71.9122 87.5158V118.287C71.9122 122.085 68.8333 125.164 65.0352 125.164C61.2372 125.164 58.1583 122.085 58.1583 118.287V87.5158ZM94.9776 86.5998C91.1796 86.5998 88.1007 89.6787 88.1007 93.4767V118.287C88.1007 122.085 91.1796 125.164 94.9776 125.164C98.7757 125.164 101.855 122.085 101.855 118.287V93.4767C101.855 89.6787 98.7757 86.5998 94.9776 86.5998ZM35.0929 98.3908C31.2948 98.3908 28.2159 101.47 28.2159 105.268V118.287C28.2159 122.085 31.2948 125.164 35.0929 125.164C38.8909 125.164 41.9698 122.085 41.9698 118.287V105.268C41.9698 101.47 38.8909 98.3908 35.0929 98.3908Z" fill="white"/>
</clipPath>
<g clip-path="url(#mask0_5481_122242)">
<g clip-path="url(#clip0_5481_122242)">
<rect width="160" height="160" rx="10" fill="#D9F4FD"/>
<circle cx="142.62" cy="105.187" r="231.011" fill="url(#paint0_radial_5481_122242)"/>
<path d="M-14.3999 50.1137C-16.9679 -5.18932 25.7823 -52.103 81.0853 -54.6709C136.388 -57.2388 183.302 -14.4887 185.87 40.8143C188.438 96.1173 145.688 143.031 90.3846 145.599C35.0817 148.167 -11.832 105.417 -14.3999 50.1137Z" fill="url(#paint1_linear_5481_122242)"/>
<path d="M40.4184 -110.716C27.9428 -118.436 12.1362 -118.483 -0.385738 -110.838L-125.628 -34.3691C-137.894 -26.8797 -137.914 -9.20217 -125.665 -1.68455L-1.25042 74.676C11.2528 82.3487 27.0594 82.3396 39.5518 74.6486L163.71 -1.78335C175.895 -9.28493 175.917 -26.8637 163.748 -34.3936L40.4184 -110.716Z" fill="url(#paint2_linear_5481_122242)"/>
<path d="M-79.7631 76.5289C-53.9489 76.5289 -30.5656 86.9766 -13.6359 103.831C20.2235 137.599 48.2951 137.628 82.1545 103.918C99.0842 86.9766 122.496 76.5 148.34 76.5C199.997 76.5289 241.844 118.262 241.844 169.779C241.844 221.296 199.997 263 148.34 263C122.439 263 99.0263 252.495 82.0966 235.553C48.2661 201.901 20.2235 201.93 -13.6359 235.697C-30.5656 252.581 -53.9489 263 -79.7631 263C-131.392 263 -173.238 221.267 -173.238 169.779C-173.238 118.291 -131.392 76.5289 -79.7631 76.5289Z" fill="url(#paint3_linear_5481_122242)"/>
</g>
</g>

</svg>
