<svg width="96" height="96" viewBox="0 0 96 96" xmlns="http://www.w3.org/2000/svg">
  <defs>
<radialGradient id="paint0_radial_5481_122596" cx="0" cy="0" r="1" gradientUnits="userSpaceOnUse" gradientTransform="translate(85.5714 63.1124) rotate(90) scale(138.607)">
<stop offset="0.0885417" stop-color="#EB1000"/>
<stop offset="1" stop-color="#EB1000" stop-opacity="0"/>
</radialGradient>
<linearGradient id="paint1_linear_5481_122596" x1="69.4617" y1="-3.08825" x2="13.8656" y2="68.9935" gradientUnits="userSpaceOnUse">
<stop stop-color="#FF4885"/>
<stop offset="1" stop-color="#FF4885" stop-opacity="0"/>
</linearGradient>
<linearGradient id="paint2_linear_5481_122596" x1="35.5898" y1="-36.2716" x2="46.3146" y2="32.3671" gradientUnits="userSpaceOnUse">
<stop offset="0.15625" stop-color="#7A6AFD"/>
<stop offset="1" stop-color="#7A6AFD" stop-opacity="0"/>
</linearGradient>
<linearGradient id="paint3_linear_5481_122596" x1="-88.1609" y1="101.725" x2="92.2907" y2="66.0615" gradientUnits="userSpaceOnUse">
<stop stop-color="#30A7FE" stop-opacity="0"/>
<stop offset="0.432292" stop-color="#30A7FE" stop-opacity="0.994652"/>
<stop offset="0.609375" stop-color="#30A7FE"/>
<stop offset="1" stop-color="#30A7FE" stop-opacity="0"/>
</linearGradient>
<clipPath id="clip0_5481_122596">
<rect width="96" height="96" rx="10" fill="white"/>
</clipPath>
</defs>
<clipPath id="mask0_5481_122596">
<path fill-rule="evenodd" d="M52.9088 18.6323L72.6912 38.4146C74.0414 39.7649 74.8 41.5962 74.8 43.5058V71.7234C74.8 75.6999 71.5764 78.9234 67.6 78.9234H29.2C25.2235 78.9234 22 75.6999 22 71.7234V23.7234C22 19.747 25.2235 16.5234 29.2 16.5234H47.8177C49.7272 16.5234 51.5586 17.282 52.9088 18.6323ZM41.1037 46.7955C41.1037 46.0924 41.6737 45.5225 42.3767 45.5225C43.4813 45.5225 44.3767 44.627 44.3767 43.5225C44.3767 42.4179 43.4813 41.5225 42.3767 41.5225C39.4645 41.5225 37.1037 43.8833 37.1037 46.7955C37.1037 48.2821 37.7215 49.6279 38.7092 50.5841C39.5027 51.3524 40.7689 51.3319 41.5372 50.5383C42.3055 49.7447 42.2851 48.4786 41.4915 47.7103C41.25 47.4764 41.1037 47.1548 41.1037 46.7955ZM50.0294 43.8755C47.3004 43.8755 45.0882 46.0877 45.0882 48.8167C45.0882 51.5456 47.3004 53.7578 50.0294 53.7578C52.7583 53.7578 54.9706 51.5456 54.9706 48.8167C54.9706 46.0877 52.7583 43.8755 50.0294 43.8755ZM40.9626 57.7355C41.9593 57.2594 42.3814 56.0655 41.9053 55.0688C41.4292 54.0721 40.2353 53.6501 39.2386 54.1261C36.7921 55.2947 35.0004 57.6436 34.5285 60.4235C34.3437 61.5125 35.0766 62.5451 36.1656 62.73C37.2546 62.9149 38.2872 62.1819 38.4721 61.0929C38.7282 59.5846 39.7001 58.3386 40.9626 57.7355ZM50.0295 55.6401C46.082 55.6401 42.5224 58.1705 41.6407 61.8297C41.1266 63.9631 42.9316 65.5225 44.6801 65.5225H55.3789C57.1274 65.5225 58.9324 63.9631 58.4183 61.8297C57.5366 58.1705 53.977 55.6401 50.0295 55.6401Z" fill="#292929"/>
</clipPath>
<g clip-path="url(#mask0_5481_122596)">
<g clip-path="url(#clip0_5481_122596)">
<rect width="96" height="96" rx="10" fill="#D9F4FD"/>
<circle cx="85.5714" cy="63.1124" r="138.607" fill="url(#paint0_radial_5481_122596)"/>
<path d="M-8.63919 30.067C-10.18 -3.11477 15.4702 -31.263 48.652 -32.8037C81.8337 -34.3445 109.982 -8.69438 111.523 24.4874C113.063 57.6692 87.4133 85.8174 54.2316 87.3582C21.0498 88.8989 -7.09842 63.2488 -8.63919 30.067Z" fill="url(#paint1_linear_5481_122596)"/>
<path d="M24.2526 -66.43C16.7672 -71.0619 7.28331 -71.0903 -0.22988 -66.5032L-75.3753 -20.6218C-82.7348 -16.1282 -82.7471 -5.52169 -75.3976 -1.01111L-0.748691 44.8052C6.75324 49.4089 16.2372 49.4034 23.7327 44.7888L98.2278 -1.0704C105.538 -5.57135 105.552 -16.1186 98.2501 -20.6366L24.2526 -66.43Z" fill="url(#paint2_linear_5481_122596)"/>
<path d="M-47.8586 45.9177C-32.3701 45.9177 -18.3401 52.1863 -8.18231 62.2992C12.1334 82.5597 28.9763 82.577 49.2919 62.3512C59.4498 52.1863 73.4971 45.9004 89.003 45.9004C119.997 45.9177 145.105 70.9575 145.105 101.868C145.105 132.778 119.997 157.8 89.003 157.8C73.4624 157.8 59.415 151.497 49.2572 141.332C28.9589 121.141 12.1334 121.158 -8.18231 141.419C-18.3401 151.549 -32.3701 157.8 -47.8586 157.8C-78.8357 157.8 -103.944 132.761 -103.944 101.868C-103.944 70.9749 -78.8357 45.9177 -47.8586 45.9177Z" fill="url(#paint3_linear_5481_122596)"/>
</g>
</g>

</svg>
