<svg width="96" height="96" viewBox="0 0 96 96" xmlns="http://www.w3.org/2000/svg">
  <defs>
<radialGradient id="paint0_radial_5481_122489" cx="0" cy="0" r="1" gradientUnits="userSpaceOnUse" gradientTransform="translate(76.46 57.9101) rotate(90) scale(114.004 120.937)">
<stop offset="0.0885417" stop-color="#EB1000"/>
<stop offset="1" stop-color="#EB1000" stop-opacity="0"/>
</radialGradient>
<linearGradient id="paint1_linear_5481_122489" x1="62.4021" y1="3.46105" x2="17.4274" y2="65.3177" gradientUnits="userSpaceOnUse">
<stop stop-color="#FF4885"/>
<stop offset="1" stop-color="#FF4885" stop-opacity="0"/>
</linearGradient>
<linearGradient id="paint2_linear_5481_122489" x1="32.8484" y1="-23.8328" x2="41.186" y2="32.7728" gradientUnits="userSpaceOnUse">
<stop offset="0.15625" stop-color="#7A6AFD"/>
<stop offset="1" stop-color="#7A6AFD" stop-opacity="0"/>
</linearGradient>
<linearGradient id="paint3_linear_5481_122489" x1="-75.1225" y1="89.6677" x2="81.5863" y2="56.8132" gradientUnits="userSpaceOnUse">
<stop stop-color="#30A7FE" stop-opacity="0"/>
<stop offset="0.432292" stop-color="#30A7FE" stop-opacity="0.994652"/>
<stop offset="0.609375" stop-color="#30A7FE"/>
<stop offset="1" stop-color="#30A7FE" stop-opacity="0"/>
</linearGradient>
<clipPath id="clip0_5481_122489">
<rect x="1.79688" y="6" width="83.7616" height="78.96" rx="10" fill="white"/>
</clipPath>
</defs>
<clipPath id="mask0_5481_122489">
<path fill-rule="evenodd" d="M24 14.4V8.4C24 7.074 22.926 6 21.6 6C20.274 6 19.2 7.074 19.2 8.4V14.4C19.2 15.726 20.274 16.8 21.6 16.8C22.926 16.8 24 15.726 24 14.4ZM47.4 42.012C47.4 45.312 50.1 48 53.418 48H53.424H74.406V76.8C74.406 80.778 71.202 84 67.248 84H28.758C24.804 84 21.6 80.778 21.6 76.8V28.8C21.6 24.822 24.804 21.6 28.758 21.6H47.4V42.012ZM72.7799 43.1999H53.4239C52.7519 43.1999 52.2059 42.6659 52.2059 42.0119V23.3339C52.236 23.3603 52.2673 23.3866 52.299 23.4133C52.3684 23.4718 52.44 23.532 52.5059 23.5979L72.1919 42.5519C72.4019 42.7559 72.5939 42.9719 72.7799 43.1999ZM8.4 19.2H14.4C15.726 19.2 16.8 20.274 16.8 21.6C16.8 22.926 15.726 24 14.4 24H8.4C7.074 24 6 22.926 6 21.6C6 20.274 7.074 19.2 8.4 19.2Z" fill="white"/>
</clipPath>
<g clip-path="url(#mask0_5481_122489)">
<g clip-path="url(#clip0_5481_122489)">
<rect x="1.79688" y="6" width="83.7616" height="78.96" rx="10" fill="#D9F4FD"/>
<ellipse cx="76.46" cy="57.9101" rx="120.937" ry="114.004" fill="url(#paint0_radial_5481_122489)"/>
<path d="M-5.74223 30.7313C-7.08657 3.43924 15.2936 -19.7126 44.2452 -20.9799C73.1969 -22.2472 97.7567 -1.14998 99.101 26.142C100.445 53.4341 78.0652 76.5859 49.1135 77.8532C20.1619 79.1205 -4.39789 58.0233 -5.74223 30.7313Z" fill="url(#paint1_linear_5481_122489)"/>
<path d="M22.9565 -48.638C16.4254 -52.4478 8.15048 -52.4711 1.5951 -48.6983L-63.9705 -10.9608C-70.3918 -7.26485 -70.4026 1.45903 -63.99 5.16897L1.14243 42.8529C7.68799 46.6394 15.9629 46.6349 22.5028 42.8394L87.501 5.12021C93.8797 1.41818 93.8913 -7.25694 87.5205 -10.9729L22.9565 -48.638Z" fill="url(#paint2_linear_5481_122489)"/>
<path d="M-39.9581 43.7662C-26.4441 43.7662 -14.2028 48.9221 -5.33988 57.24C12.3859 73.9042 27.0816 73.9185 44.8073 57.2827C53.6702 48.9221 65.9267 43.752 79.4559 43.752C106.499 43.7662 128.406 64.3615 128.406 89.7851C128.406 115.209 106.499 135.79 79.4559 135.79C65.8964 135.79 53.6399 130.605 44.777 122.245C27.0664 105.637 12.3859 105.652 -5.33988 122.316C-14.2028 130.648 -26.4441 135.79 -39.9581 135.79C-66.9861 135.79 -88.8933 115.194 -88.8933 89.7851C-88.8933 64.3757 -66.9861 43.7662 -39.9581 43.7662Z" fill="url(#paint3_linear_5481_122489)"/>
</g>
</g>

</svg>
