<svg width="48" height="48" viewBox="0 0 48 48" xmlns="http://www.w3.org/2000/svg">
  <defs>
<radialGradient id="paint0_radial_5481_122330" cx="0" cy="0" r="1" gradientUnits="userSpaceOnUse" gradientTransform="translate(40.7127 30.5779) rotate(90) scale(53.7342 57.0018)">
<stop offset="0.0885417" stop-color="#EB1000"/>
<stop offset="1" stop-color="#EB1000" stop-opacity="0"/>
</radialGradient>
<linearGradient id="paint1_linear_5481_122330" x1="34.0864" y1="4.91429" x2="12.8882" y2="34.0696" gradientUnits="userSpaceOnUse">
<stop stop-color="#FF4885"/>
<stop offset="1" stop-color="#FF4885" stop-opacity="0"/>
</linearGradient>
<linearGradient id="paint2_linear_5481_122330" x1="20.1572" y1="-7.95001" x2="24.0871" y2="18.7302" gradientUnits="userSpaceOnUse">
<stop offset="0.15625" stop-color="#7A6AFD"/>
<stop offset="1" stop-color="#7A6AFD" stop-opacity="0"/>
</linearGradient>
<linearGradient id="paint3_linear_5481_122330" x1="-30.7352" y1="45.548" x2="43.1273" y2="30.0625" gradientUnits="userSpaceOnUse">
<stop stop-color="#30A7FE" stop-opacity="0"/>
<stop offset="0.432292" stop-color="#30A7FE" stop-opacity="0.994652"/>
<stop offset="0.609375" stop-color="#30A7FE"/>
<stop offset="1" stop-color="#30A7FE" stop-opacity="0"/>
</linearGradient>
<clipPath id="clip0_5481_122330">
<rect x="5.51953" y="6.11133" width="39.4799" height="37.2167" rx="10" fill="white"/>
</clipPath>
</defs>
<clipPath id="mask0_5481_122330">
<path fill-rule="evenodd" d="M37.6281 14.5402V29.2402C37.6281 31.8922 35.4801 34.0402 32.8281 34.0402H10.6281C7.97612 34.0402 5.82812 31.8922 5.82812 29.2402V14.5402C5.82812 11.8882 7.97612 9.74023 10.6281 9.74023H32.8281C35.4801 9.74023 37.6281 11.8882 37.6281 14.5402ZM33.4161 16.6042C33.4161 15.1582 32.2431 13.9852 30.7971 13.9852C29.3511 13.9852 28.1781 15.1582 28.1781 16.6042C28.1781 18.0502 29.3511 19.2232 30.7971 19.2232C32.2431 19.2232 33.4161 18.0502 33.4161 16.6042ZM8.69312 28.8652C7.92512 30.0622 8.78312 31.6372 10.2081 31.6372V31.6342H33.0621C34.4871 31.6342 35.3451 30.0592 34.5771 28.8622L31.0431 23.3572C30.3351 22.2532 28.7211 22.2532 28.0131 23.3572L24.0051 29.6032L17.6271 19.6672C16.9191 18.5632 15.3051 18.5632 14.5971 19.6672L8.69312 28.8652ZM40.9704 19.9462C40.9704 19.2832 41.5074 18.7462 42.1704 18.7462H42.1734C42.8364 18.7462 43.3734 19.2832 43.3734 19.9462V32.2612C43.3734 36.2302 40.1424 39.4612 36.1734 39.4612L16.3914 39.4462C15.7284 39.4462 15.1914 38.9092 15.1914 38.2462C15.1914 37.5832 15.7284 37.0462 16.3914 37.0462L36.1704 37.0612C38.8164 37.0612 40.9704 34.9072 40.9704 32.2612V19.9462Z" fill="white"/>
</clipPath>
<g clip-path="url(#mask0_5481_122330)">
<g clip-path="url(#clip0_5481_122330)">
<rect x="5.51953" y="6.11133" width="39.4799" height="37.2167" rx="10" fill="#D9F4FD"/>
<ellipse cx="40.7127" cy="30.5779" rx="57.0018" ry="53.7342" fill="url(#paint0_radial_5481_122330)"/>
<path d="M1.96752 17.7677C1.33388 4.90401 11.8825 -6.00831 25.5284 -6.60562C39.1744 -7.20294 50.7503 2.74095 51.3839 15.6047C52.0176 28.4684 41.469 39.3807 27.823 39.978C14.1771 40.5753 2.60116 30.6315 1.96752 17.7677Z" fill="url(#paint1_linear_5481_122330)"/>
<path d="M15.4948 -19.6416C12.4165 -21.4373 8.51624 -21.4483 5.42646 -19.67L-25.477 -1.88299C-28.5036 -0.140939 -28.5087 3.97094 -25.4862 5.71958L5.2131 23.4814C8.29826 25.2661 12.1985 25.264 15.281 23.475L45.917 5.69659C48.9235 3.95169 48.929 -0.13721 45.9262 -1.8887L15.4948 -19.6416Z" fill="url(#paint2_linear_5481_122330)"/>
<path d="M-14.1609 23.913C-7.79131 23.913 -2.02151 26.3431 2.15589 30.2637C10.5107 38.1181 17.4373 38.1248 25.7921 30.2838C29.9695 26.3431 35.7464 23.9062 42.1232 23.9062C54.8696 23.913 65.1953 33.6203 65.1953 45.6033C65.1953 57.5864 54.8696 67.287 42.1232 67.287C35.7322 67.287 29.9552 64.8434 25.7778 60.9027C17.4302 53.0751 10.5107 53.0818 2.15589 60.9363C-2.02151 64.8635 -7.79131 67.287 -14.1609 67.287C-26.9002 67.287 -37.2259 57.5797 -37.2259 45.6033C-37.2259 33.627 -26.9002 23.913 -14.1609 23.913Z" fill="url(#paint3_linear_5481_122330)"/>
</g>
</g>

</svg>
