<svg width="160" height="160" viewBox="0 0 160 160" xmlns="http://www.w3.org/2000/svg">
  <defs>
<radialGradient id="paint0_radial_5481_122140" cx="0" cy="0" r="1" gradientUnits="userSpaceOnUse" gradientTransform="translate(134.185 101.794) rotate(90) scale(199.896 199.896)">
<stop offset="0.0885417" stop-color="#EB1000"/>
<stop offset="1" stop-color="#EB1000" stop-opacity="0"/>
</radialGradient>
<linearGradient id="paint1_linear_5481_122140" x1="110.95" y1="6.32352" x2="30.7701" y2="110.278" gradientUnits="userSpaceOnUse">
<stop stop-color="#FF4885"/>
<stop offset="1" stop-color="#FF4885" stop-opacity="0"/>
</linearGradient>
<linearGradient id="paint2_linear_5481_122140" x1="62.1004" y1="-41.5338" x2="77.5675" y2="57.4556" gradientUnits="userSpaceOnUse">
<stop offset="0.15625" stop-color="#7A6AFD"/>
<stop offset="1" stop-color="#7A6AFD" stop-opacity="0"/>
</linearGradient>
<linearGradient id="paint3_linear_5481_122140" x1="-116.369" y1="157.48" x2="143.875" y2="106.047" gradientUnits="userSpaceOnUse">
<stop stop-color="#30A7FE" stop-opacity="0"/>
<stop offset="0.432292" stop-color="#30A7FE" stop-opacity="0.994652"/>
<stop offset="0.609375" stop-color="#30A7FE"/>
<stop offset="1" stop-color="#30A7FE" stop-opacity="0"/>
</linearGradient>
<clipPath id="clip0_5481_122140">
<rect x="10.7734" y="10.7754" width="138.449" height="138.449" rx="10" fill="white"/>
</clipPath>
</defs>
<clipPath id="mask0_5481_122140">
<path d="M80 28C51.2812 28 28 51.2812 28 80C28 108.719 51.2812 132 80 132C108.719 132 132 108.719 132 80C132 51.2812 108.719 28 80 28ZM96.9958 83.4951L72.9956 97.3134C70.3272 98.8498 66.9961 96.9213 67 93.8421L67.033 66.1483C67.0366 63.0691 70.3723 61.1486 73.0371 62.6913L97.0042 76.567C99.6689 78.1098 99.6643 81.9587 96.9958 83.4951Z" fill="white"/>
</clipPath>
<g clip-path="url(#mask0_5481_122140)">
<g clip-path="url(#clip0_5481_122140)">
<rect x="10.7734" y="10.7754" width="138.449" height="138.449" rx="10" fill="#D9F4FD"/>
<ellipse cx="134.185" cy="101.794" rx="199.896" ry="199.896" fill="url(#paint0_radial_5481_122140)"/>
<path d="M-1.68579 54.1394C-3.90786 6.28528 33.0843 -34.3095 80.9384 -36.5316C128.793 -38.7536 169.387 -1.76152 171.609 46.0926C173.831 93.9468 136.839 134.542 88.9852 136.764C41.1311 138.986 0.536268 101.994 -1.68579 54.1394Z" fill="url(#paint1_linear_5481_122140)"/>
<path d="M45.7501 -85.0276C34.9549 -91.7077 21.2773 -91.7486 10.442 -85.1332L-97.9313 -18.964C-108.545 -12.4834 -108.563 2.81314 -97.9635 9.31821L9.69375 75.3937C20.5129 82.033 34.1905 82.0251 45.0003 75.37L152.436 9.23271C162.979 2.74153 162.998 -12.4695 152.468 -18.9852L45.7501 -85.0276Z" fill="url(#paint2_linear_5481_122140)"/>
<path d="M-58.2463 76.9957C-35.909 76.9957 -15.6752 86.0362 -1.0258 100.621C28.2731 129.84 52.5636 129.865 81.8625 100.696C96.5119 86.0362 116.771 76.9707 139.133 76.9707C183.833 76.9957 220.043 113.108 220.043 157.686C220.043 202.264 183.833 238.351 139.133 238.351C116.721 238.351 96.4618 229.26 81.8124 214.601C52.5385 185.481 28.2731 185.506 -1.0258 214.726C-15.6752 229.335 -35.909 238.351 -58.2463 238.351C-102.921 238.351 -139.131 202.239 -139.131 157.686C-139.131 113.133 -102.921 76.9957 -58.2463 76.9957Z" fill="url(#paint3_linear_5481_122140)"/>
</g>
</g>

</svg>
