<svg width="96" height="96" viewBox="0 0 96 96" xmlns="http://www.w3.org/2000/svg">
  <defs>
<radialGradient id="paint0_radial_5481_122552" cx="0" cy="0" r="1" gradientUnits="userSpaceOnUse" gradientTransform="translate(85.5714 63.1124) rotate(90) scale(138.607)">
<stop offset="0.0885417" stop-color="#EB1000"/>
<stop offset="1" stop-color="#EB1000" stop-opacity="0"/>
</radialGradient>
<linearGradient id="paint1_linear_5481_122552" x1="69.4617" y1="-3.08825" x2="13.8656" y2="68.9935" gradientUnits="userSpaceOnUse">
<stop stop-color="#FF4885"/>
<stop offset="1" stop-color="#FF4885" stop-opacity="0"/>
</linearGradient>
<linearGradient id="paint2_linear_5481_122552" x1="35.5898" y1="-36.2716" x2="46.3146" y2="32.3671" gradientUnits="userSpaceOnUse">
<stop offset="0.15625" stop-color="#7A6AFD"/>
<stop offset="1" stop-color="#7A6AFD" stop-opacity="0"/>
</linearGradient>
<linearGradient id="paint3_linear_5481_122552" x1="-88.1609" y1="101.725" x2="92.2907" y2="66.0615" gradientUnits="userSpaceOnUse">
<stop stop-color="#30A7FE" stop-opacity="0"/>
<stop offset="0.432292" stop-color="#30A7FE" stop-opacity="0.994652"/>
<stop offset="0.609375" stop-color="#30A7FE"/>
<stop offset="1" stop-color="#30A7FE" stop-opacity="0"/>
</linearGradient>
<clipPath id="clip0_5481_122552">
<rect width="96" height="96" rx="10" fill="white"/>
</clipPath>
</defs>
<clipPath id="mask0_5481_122552">
<path fill-rule="evenodd" d="M71.905 23.2349C74.056 19.3404 79.9991 20.8546 79.9991 25.3182V56.2182V73.1241C79.9991 76.7854 77.0272 79.748 73.3679 79.748H22.6312C18.9719 79.748 16 76.7854 16 73.1241V66.0439V47.8519C16 46.6635 16.4908 45.5285 17.3556 44.7141L27.2153 35.429C29.0015 33.7469 31.8307 33.8898 33.4379 35.7443L40.5642 43.9676C40.7023 44.127 40.956 44.1085 41.0697 43.9328L50.3901 29.5409C51.9799 27.086 55.5015 26.8908 57.3537 29.1531L63.7948 37.0202C63.9367 37.1936 64.2099 37.1675 64.3171 36.9734L71.905 23.2349ZM75.5492 25.0206C75.5234 25.0307 75.4695 25.0546 75.4065 25.1688L67.8186 38.9073L66.0679 37.9404L67.8186 38.9073C66.3427 41.5796 62.6328 41.9152 60.6998 39.5542L54.2587 31.6871C54.1229 31.5213 53.8633 31.5364 53.7475 31.7152L44.4272 46.1071C42.8647 48.5197 39.4231 48.7586 37.5413 46.5872L30.415 38.3639C30.2975 38.2284 30.0888 38.2174 29.9576 38.341L20.0979 47.6261L18.7618 46.2073L20.0979 47.6261C20.035 47.6853 20 47.7671 20 47.8519V62.3792L29.0749 56.5415C30.845 55.4028 33.1388 55.4945 34.8123 56.771L42.6409 62.7422C43.2722 63.2237 44.1693 63.1299 44.6873 62.5283L54.6108 51.003C56.5073 48.8005 59.8757 48.6735 61.9325 50.7271L69.3557 58.1384L75.9991 54.9583V25.3182C75.9991 25.1885 75.9638 25.1425 75.9468 25.1221C75.917 25.0864 75.8561 25.0403 75.7629 25.0163C75.6698 24.9924 75.5935 25.0033 75.5492 25.0206ZM75.9991 59.393L69.8071 62.357C69.0425 62.723 68.1303 62.5673 67.5304 61.9684L59.1064 53.5578C58.695 53.1471 58.0213 53.1725 57.642 53.613L47.7185 65.1382C45.8191 67.3442 42.5297 67.6881 40.215 65.9226L32.3864 59.9514C32.0517 59.6961 31.593 59.6778 31.2389 59.9055L20 67.1354V73.1241C20 74.5702 21.175 75.748 22.6312 75.748H73.3679C74.8241 75.748 75.9991 74.5702 75.9991 73.1241V59.393Z" fill="#8F8F8F"/>
</clipPath>
<g clip-path="url(#mask0_5481_122552)">
<g clip-path="url(#clip0_5481_122552)">
<rect width="96" height="96" rx="10" fill="#D9F4FD"/>
<circle cx="85.5714" cy="63.1124" r="138.607" fill="url(#paint0_radial_5481_122552)"/>
<path d="M-8.63919 30.067C-10.18 -3.11477 15.4702 -31.263 48.652 -32.8037C81.8337 -34.3445 109.982 -8.69438 111.523 24.4874C113.063 57.6692 87.4133 85.8174 54.2316 87.3582C21.0498 88.8989 -7.09842 63.2488 -8.63919 30.067Z" fill="url(#paint1_linear_5481_122552)"/>
<path d="M24.2526 -66.43C16.7672 -71.0619 7.28331 -71.0903 -0.22988 -66.5032L-75.3753 -20.6218C-82.7348 -16.1282 -82.7471 -5.52169 -75.3976 -1.01111L-0.748691 44.8052C6.75324 49.4089 16.2372 49.4034 23.7327 44.7888L98.2278 -1.0704C105.538 -5.57135 105.552 -16.1186 98.2501 -20.6366L24.2526 -66.43Z" fill="url(#paint2_linear_5481_122552)"/>
<path d="M-47.8586 45.9177C-32.3701 45.9177 -18.3401 52.1863 -8.18231 62.2992C12.1334 82.5597 28.9763 82.577 49.2919 62.3512C59.4498 52.1863 73.4971 45.9004 89.003 45.9004C119.997 45.9177 145.105 70.9575 145.105 101.868C145.105 132.778 119.997 157.8 89.003 157.8C73.4624 157.8 59.415 151.497 49.2572 141.332C28.9589 121.141 12.1334 121.158 -8.18231 141.419C-18.3401 151.549 -32.3701 157.8 -47.8586 157.8C-78.8357 157.8 -103.944 132.761 -103.944 101.868C-103.944 70.9749 -78.8357 45.9177 -47.8586 45.9177Z" fill="url(#paint3_linear_5481_122552)"/>
</g>
</g>

</svg>
