<svg width="160" height="160" viewBox="0 0 160 160" xmlns="http://www.w3.org/2000/svg">
  <defs>
<radialGradient id="paint0_radial_5481_122112" cx="0" cy="0" r="1" gradientUnits="userSpaceOnUse" gradientTransform="translate(130.355 101.038) rotate(90) scale(170.948 181.344)">
<stop offset="0.0885417" stop-color="#EB1000"/>
<stop offset="1" stop-color="#EB1000" stop-opacity="0"/>
</radialGradient>
<linearGradient id="paint1_linear_5481_122112" x1="109.277" y1="19.3921" x2="41.838" y2="112.146" gradientUnits="userSpaceOnUse">
<stop stop-color="#FF4885"/>
<stop offset="1" stop-color="#FF4885" stop-opacity="0"/>
</linearGradient>
<linearGradient id="paint2_linear_5481_122112" x1="64.9613" y1="-21.5337" x2="77.4635" y2="63.346" gradientUnits="userSpaceOnUse">
<stop offset="0.15625" stop-color="#7A6AFD"/>
<stop offset="1" stop-color="#7A6AFD" stop-opacity="0"/>
</linearGradient>
<linearGradient id="paint3_linear_5481_122112" x1="-96.9441" y1="148.661" x2="138.04" y2="99.3959" gradientUnits="userSpaceOnUse">
<stop stop-color="#30A7FE" stop-opacity="0"/>
<stop offset="0.432292" stop-color="#30A7FE" stop-opacity="0.994652"/>
<stop offset="0.609375" stop-color="#30A7FE"/>
<stop offset="1" stop-color="#30A7FE" stop-opacity="0"/>
</linearGradient>
<clipPath id="clip0_5481_122112">
<rect x="18.3984" y="23.2002" width="125.6" height="118.4" rx="10" fill="white"/>
</clipPath>
</defs>
<clipPath id="mask0_5481_122112">
<path fill-rule="evenodd" d="M123.196 57.8788C129.044 52.0313 129.044 42.5506 123.196 36.7031C117.349 30.8556 107.868 30.8556 102.021 36.7031L91.1081 47.6158C89.546 49.1779 87.0133 49.1779 85.4512 47.6158C83.8891 46.0537 83.8891 43.521 85.4512 41.9589L96.3639 31.0463C105.336 22.0746 119.882 22.0746 128.853 31.0463C137.825 40.0179 137.825 54.5639 128.853 63.5356L101.182 91.2068C92.2104 100.179 77.6644 100.179 68.6927 91.2068C67.1306 89.6448 67.1306 87.1121 68.6927 85.55C70.2548 83.9879 72.7875 83.9879 74.3496 85.55C80.1971 91.3975 89.6777 91.3975 95.5252 85.55L123.196 57.8788ZM91.5409 68.5628C93.103 70.1249 93.103 72.6576 91.5409 74.2197C89.9788 75.7818 87.4461 75.7818 85.884 74.2197C80.0365 68.3722 70.5559 68.3722 64.7084 74.2197L37.0371 101.891C31.1897 107.738 31.1897 117.219 37.0371 123.067C42.8847 128.914 52.3653 128.914 58.2128 123.067L69.1255 112.154C70.6876 110.592 73.2202 110.592 74.7823 112.154C76.3444 113.716 76.3444 116.249 74.7823 117.811L63.8697 128.723C54.898 137.695 40.352 137.695 31.3803 128.723C22.4086 119.752 22.4086 105.206 31.3803 96.234L59.0515 68.5628C68.0232 59.5911 82.5692 59.5911 91.5409 68.5628Z" fill="white" stroke="white" stroke-width="2" stroke-linecap="round" stroke-linejoin="round"/>
</clipPath>
<g clip-path="url(#mask0_5481_122112)">
<g clip-path="url(#clip0_5481_122112)">
<rect x="18.3984" y="23.2002" width="125.6" height="118.4" rx="10" fill="#D9F4FD"/>
<ellipse cx="130.355" cy="101.038" rx="181.344" ry="170.948" fill="url(#paint0_radial_5481_122112)"/>
<path d="M7.09525 60.2836C5.07941 19.3594 38.6383 -15.3567 82.0512 -17.257C125.464 -19.1572 162.291 12.4779 164.307 53.4021C166.323 94.3263 132.764 129.042 89.3511 130.943C45.9383 132.843 9.11108 101.208 7.09525 60.2836Z" fill="url(#paint1_linear_5481_122112)"/>
<path d="M50.1285 -58.729C40.3352 -64.4417 27.927 -64.4767 18.0973 -58.8193L-80.218 -2.23227C-89.8467 3.30982 -89.8628 16.3912 -80.2472 21.9543L17.4185 78.4611C27.2335 84.1389 39.6417 84.1322 49.4483 78.4408L146.913 21.8812C156.477 16.33 156.495 3.32168 146.942 -2.25044L50.1285 -58.729Z" fill="url(#paint2_linear_5481_122112)"/>
<path d="M-44.2153 79.8319C-23.9511 79.8319 -5.59525 87.5632 7.69458 100.036C34.2742 125.024 56.3104 125.045 82.89 100.1C96.1799 87.5632 114.558 79.8105 134.845 79.8105C175.396 79.8319 208.246 110.714 208.246 148.837C208.246 186.959 175.396 217.821 134.845 217.821C114.513 217.821 96.1344 210.047 82.8446 197.51C56.2877 172.607 34.2742 172.629 7.69458 197.617C-5.59525 210.111 -23.9511 217.821 -44.2153 217.821C-84.7436 217.821 -117.593 186.938 -117.593 148.837C-117.593 110.736 -84.7436 79.8319 -44.2153 79.8319Z" fill="url(#paint3_linear_5481_122112)"/>
</g>
</g>

</svg>
