<svg width="48" height="48" viewBox="0 0 48 48" xmlns="http://www.w3.org/2000/svg">
  <defs>
<radialGradient id="paint0_radial_5481_122335" cx="0" cy="0" r="1" gradientUnits="userSpaceOnUse" gradientTransform="translate(38.9297 30.552) rotate(90) scale(53.4895 56.7422)">
<stop offset="0.0885417" stop-color="#EB1000"/>
<stop offset="1" stop-color="#EB1000" stop-opacity="0"/>
</radialGradient>
<linearGradient id="paint1_linear_5481_122335" x1="32.3345" y1="5.00653" x2="11.2328" y2="34.0291" gradientUnits="userSpaceOnUse">
<stop stop-color="#FF4885"/>
<stop offset="1" stop-color="#FF4885" stop-opacity="0"/>
</linearGradient>
<linearGradient id="paint2_linear_5481_122335" x1="18.4665" y1="-7.80043" x2="22.3784" y2="18.7583" gradientUnits="userSpaceOnUse">
<stop offset="0.15625" stop-color="#7A6AFD"/>
<stop offset="1" stop-color="#7A6AFD" stop-opacity="0"/>
</linearGradient>
<linearGradient id="paint3_linear_5481_122335" x1="-32.1929" y1="45.4534" x2="41.3333" y2="30.0384" gradientUnits="userSpaceOnUse">
<stop stop-color="#30A7FE" stop-opacity="0"/>
<stop offset="0.432292" stop-color="#30A7FE" stop-opacity="0.994652"/>
<stop offset="0.609375" stop-color="#30A7FE"/>
<stop offset="1" stop-color="#30A7FE" stop-opacity="0"/>
</linearGradient>
<clipPath id="clip0_5481_122335">
<rect x="3.89844" y="6.19727" width="39.3001" height="37.0472" rx="10" fill="white"/>
</clipPath>
</defs>
<clipPath id="mask0_5481_122335">
<path fill-rule="evenodd" d="M25.2004 8.98452C25.2004 9.64752 24.6634 10.1845 24.0004 10.1845C23.3374 10.1845 22.8004 9.64752 22.8004 8.98452V7.17852C22.8004 6.51552 23.3374 5.97852 24.0004 5.97852C24.6634 5.97852 25.2004 6.51552 25.2004 7.17852V8.98452ZM23.3405 13.1035C18.8855 13.4215 15.2795 17.0545 14.9495 21.5515C14.7065 24.8935 16.2335 27.8875 18.6845 29.6785C19.4795 30.2605 19.9655 31.1815 19.9655 32.1745V34.1995H27.9245C27.9461 34.1995 27.9677 34.2028 27.9893 34.206L27.9894 34.206C28.0038 34.2082 28.0181 34.2103 28.0325 34.2115V32.1775C28.0325 31.2085 28.4765 30.2845 29.2565 29.7205C31.5665 28.0585 33.0725 25.3315 33.0725 22.2475C33.0725 16.9615 28.6475 12.7225 23.3375 13.1005L23.3405 13.1035ZM29.1515 22.3735C28.4885 22.3735 27.9515 21.8365 27.9515 21.1735C27.9515 19.6705 26.6195 18.4495 24.9815 18.4495C24.3185 18.4495 23.7815 17.9125 23.7815 17.2495C23.7815 16.5865 24.3185 16.0495 24.9815 16.0495C27.9425 16.0495 30.3515 18.3475 30.3515 21.1735C30.3515 21.8365 29.8145 22.3735 29.1515 22.3735ZM19.9686 36.5995V38.0395C19.9686 38.8825 20.6466 39.5665 21.4806 39.5665H26.5236C27.3576 39.5665 28.0356 38.8825 28.0356 38.0395V36.5875C28.0212 36.5887 28.0068 36.5909 27.9924 36.593L27.9924 36.593C27.9708 36.5963 27.9492 36.5995 27.9276 36.5995H19.9686ZM8.98516 20.9935H10.7912C11.4542 20.9935 11.9912 21.5305 11.9912 22.1935C11.9912 22.8565 11.4542 23.3935 10.7912 23.3935H8.98516C8.32216 23.3935 7.78516 22.8565 7.78516 22.1935C7.78516 21.5305 8.32216 20.9935 8.98516 20.9935ZM39.0122 20.9935H37.2063C36.5433 20.9935 36.0063 21.5305 36.0063 22.1935C36.0063 22.8565 36.5433 23.3935 37.2063 23.3935H39.0122C39.6752 23.3935 40.2122 22.8565 40.2122 22.1935C40.2122 21.5305 39.6752 20.9935 39.0122 20.9935ZM33.7686 10.7275L32.4936 12.0025C32.0256 12.4705 32.0256 13.2295 32.4936 13.7005C32.7276 13.9345 33.0336 14.0515 33.3426 14.0515C33.6516 14.0515 33.9576 13.9345 34.1916 13.7005L35.4666 12.4255C35.9346 11.9575 35.9346 11.1985 35.4666 10.7275C34.9986 10.2595 34.2396 10.2595 33.7686 10.7275ZM14.2351 10.7305L15.5101 12.0055C15.9781 12.4765 15.9781 13.2355 15.5101 13.7035C15.2761 13.9375 14.9701 14.0545 14.6611 14.0545C14.3521 14.0545 14.0461 13.9375 13.8121 13.7035L12.5371 12.4285C12.0691 11.9575 12.0691 11.1985 12.5371 10.7305C13.0081 10.2625 13.7671 10.2625 14.2351 10.7305Z" fill="white"/>
</clipPath>
<g clip-path="url(#mask0_5481_122335)">
<g clip-path="url(#clip0_5481_122335)">
<rect x="3.89844" y="6.19727" width="39.3001" height="37.0472" rx="10" fill="#D9F4FD"/>
<ellipse cx="38.9297" cy="30.552" rx="56.7422" ry="53.4895" fill="url(#paint0_radial_5481_122335)"/>
<path d="M0.361813 17.8014C-0.26894 4.99629 10.2316 -5.86634 23.8154 -6.46094C37.3993 -7.05553 48.9225 2.84308 49.5532 15.6482C50.184 28.4534 39.6834 39.316 26.0996 39.9106C12.5158 40.5052 0.992566 30.6066 0.361813 17.8014Z" fill="url(#paint1_linear_5481_122335)"/>
<path d="M13.8253 -19.4388C10.761 -21.2263 6.87845 -21.2373 3.80273 -19.4671L-26.96 -1.76103C-29.9728 -0.0269138 -29.9779 4.06625 -26.9691 5.80692L3.59035 23.4878C6.66146 25.2644 10.544 25.2623 13.6124 23.4815L44.109 5.78404C47.1018 4.04708 47.1072 -0.0232016 44.1181 -1.76671L13.8253 -19.4388Z" fill="url(#paint2_linear_5481_122335)"/>
<path d="M-15.6941 23.9168C-9.35351 23.9168 -3.60998 26.336 0.548396 30.2386C8.86515 38.0573 15.7602 38.064 24.077 30.2587C28.2354 26.336 33.986 23.9102 40.3337 23.9102C53.0221 23.9168 63.3008 33.5799 63.3008 45.5084C63.3008 57.4369 53.0221 67.0934 40.3337 67.0934C33.9718 67.0934 28.2211 64.6609 24.0628 60.7382C15.7531 52.9462 8.86515 52.9529 0.548396 60.7716C-3.60998 64.6809 -9.35351 67.0934 -15.6941 67.0934C-28.3754 67.0934 -38.6541 57.4303 -38.6541 45.5084C-38.6541 33.5866 -28.3754 23.9168 -15.6941 23.9168Z" fill="url(#paint3_linear_5481_122335)"/>
</g>
</g>

</svg>
