<svg width="48" height="48" viewBox="0 0 48 48" xmlns="http://www.w3.org/2000/svg">
  <defs>
<radialGradient id="paint0_radial_5481_122376" cx="0" cy="0" r="1" gradientUnits="userSpaceOnUse" gradientTransform="translate(42.7877 31.5552) rotate(90) scale(69.3033)">
<stop offset="0.0885417" stop-color="#EB1000"/>
<stop offset="1" stop-color="#EB1000" stop-opacity="0"/>
</radialGradient>
<linearGradient id="paint1_linear_5481_122376" x1="34.7309" y1="-1.54315" x2="6.93278" y2="34.4977" gradientUnits="userSpaceOnUse">
<stop stop-color="#FF4885"/>
<stop offset="1" stop-color="#FF4885" stop-opacity="0"/>
</linearGradient>
<linearGradient id="paint2_linear_5481_122376" x1="17.7929" y1="-18.1348" x2="23.1553" y2="16.1845" gradientUnits="userSpaceOnUse">
<stop offset="0.15625" stop-color="#7A6AFD"/>
<stop offset="1" stop-color="#7A6AFD" stop-opacity="0"/>
</linearGradient>
<linearGradient id="paint3_linear_5481_122376" x1="-44.0785" y1="50.8616" x2="46.1473" y2="33.0298" gradientUnits="userSpaceOnUse">
<stop stop-color="#30A7FE" stop-opacity="0"/>
<stop offset="0.432292" stop-color="#30A7FE" stop-opacity="0.994652"/>
<stop offset="0.609375" stop-color="#30A7FE"/>
<stop offset="1" stop-color="#30A7FE" stop-opacity="0"/>
</linearGradient>
<clipPath id="clip0_5481_122376">
<rect width="48" height="48" rx="10" fill="white"/>
</clipPath>
</defs>
<clipPath id="mask0_5481_122376">
<path fill-rule="evenodd" d="M12.1133 7.875C9.76607 7.875 7.86328 9.77779 7.86328 12.125V17.4359C7.86328 19.7831 9.76607 21.6859 12.1133 21.6859H17.4242C19.7714 21.6859 21.6742 19.7831 21.6742 17.4359V12.125C21.6742 9.77779 19.7714 7.875 17.4242 7.875H12.1133ZM27.4452 8.4304C26.7552 8.40702 26.1769 8.94739 26.1535 9.63735C26.1302 10.3273 26.6705 10.9056 27.3605 10.929C28.7465 10.9759 30.1543 11.375 31.2128 12.399C32.0915 13.2491 32.8604 14.6572 33.0797 17.0092L31.496 15.4256C31.0079 14.9374 30.2164 14.9374 29.7283 15.4256C29.2401 15.9137 29.2401 16.7052 29.7283 17.1933L33.3006 20.7657C33.7887 21.2538 34.5802 21.2538 35.0684 20.7657L38.6522 17.1818C39.1404 16.6937 39.1404 15.9022 38.6522 15.414C38.1641 14.9259 37.3726 14.9259 36.8845 15.414L35.5643 16.7342C35.2959 13.9488 34.3474 11.9531 32.9511 10.6022C31.3045 9.00925 29.2177 8.49047 27.4452 8.4304ZM14.6517 27.2344C14.1635 26.7463 13.3721 26.7463 12.8839 27.2344L9.30004 30.8183C8.81188 31.3064 8.81188 32.0979 9.30004 32.5861C9.78819 33.0742 10.5797 33.0742 11.0678 32.5861L12.3878 31.266C12.6563 34.0513 13.6048 36.0469 15.0011 37.3978C16.6477 38.9907 18.7345 39.5095 20.507 39.5696C21.1969 39.593 21.7752 39.0526 21.7986 38.3626C21.822 37.6727 21.2816 37.0944 20.5917 37.071C19.2056 37.0241 17.7978 36.625 16.7394 35.601C15.8607 34.7509 15.0917 33.3428 14.8725 30.9908L16.4562 32.5745C16.9444 33.0627 17.7358 33.0627 18.224 32.5745C18.7122 32.0864 18.7122 31.2949 18.224 30.8068L14.6517 27.2344ZM30.5737 26.3145C28.2265 26.3145 26.3237 28.2172 26.3237 30.5645V35.8753C26.3237 38.2226 28.2265 40.1253 30.5737 40.1253H35.8846C38.2318 40.1253 40.1346 38.2225 40.1346 35.8753V30.5645C40.1346 28.2172 38.2318 26.3145 35.8846 26.3145H30.5737Z" fill="white"/>
</clipPath>
<g clip-path="url(#mask0_5481_122376)">
<g clip-path="url(#clip0_5481_122376)">
<rect width="48" height="48" rx="10" fill="#D9F4FD"/>
<circle cx="42.7877" cy="31.5552" r="69.3033" fill="url(#paint0_radial_5481_122376)"/>
<path d="M-4.31959 15.0345C-5.08998 -1.55641 7.73508 -15.6305 24.326 -16.4009C40.9169 -17.1713 54.991 -4.34621 55.7613 12.2447C56.5317 28.8356 43.7067 42.9097 27.1158 43.6801C10.5249 44.4504 -3.54921 31.6254 -4.31959 15.0345Z" fill="url(#paint1_linear_5481_122376)"/>
<path d="M12.1243 -33.214C8.38167 -35.53 3.6397 -35.5442 -0.116893 -33.2506L-37.6896 -10.3099C-41.3694 -8.06314 -41.3755 -2.75987 -37.7007 -0.504581L-0.376298 22.4036C3.37467 24.7054 8.11665 24.7027 11.8644 22.3954L49.1119 -0.534222C52.7672 -2.7847 52.7739 -8.05833 49.1231 -10.3173L12.1243 -33.214Z" fill="url(#paint2_linear_5481_122376)"/>
<path d="M-23.9274 22.9579C-16.1831 22.9579 -9.16812 26.0922 -4.0892 31.1486C6.06863 41.2789 14.4901 41.2875 24.6479 31.1746C29.7268 26.0922 36.7505 22.9492 44.5034 22.9492C60.0006 22.9579 72.5547 35.4778 72.5547 50.9329C72.5547 66.388 60.0006 78.8992 44.5034 78.8992C36.7331 78.8992 29.7095 75.7476 24.6306 70.6652C14.4814 60.5696 6.06863 60.5782 -4.0892 70.7085C-9.16812 75.7736 -16.1831 78.8992 -23.9274 78.8992C-39.4159 78.8992 -51.9699 66.3793 -51.9699 50.9329C-51.9699 35.4865 -39.4159 22.9579 -23.9274 22.9579Z" fill="url(#paint3_linear_5481_122376)"/>
</g>
</g>

</svg>
