<svg width="48" height="48" viewBox="0 0 48 48" xmlns="http://www.w3.org/2000/svg">
  <defs>
<radialGradient id="paint0_radial_5481_122379" cx="0" cy="0" r="1" gradientUnits="userSpaceOnUse" gradientTransform="translate(42.7877 31.5552) rotate(90) scale(69.3033)">
<stop offset="0.0885417" stop-color="#EB1000"/>
<stop offset="1" stop-color="#EB1000" stop-opacity="0"/>
</radialGradient>
<linearGradient id="paint1_linear_5481_122379" x1="34.7309" y1="-1.54315" x2="6.93278" y2="34.4977" gradientUnits="userSpaceOnUse">
<stop stop-color="#FF4885"/>
<stop offset="1" stop-color="#FF4885" stop-opacity="0"/>
</linearGradient>
<linearGradient id="paint2_linear_5481_122379" x1="17.7929" y1="-18.1348" x2="23.1553" y2="16.1845" gradientUnits="userSpaceOnUse">
<stop offset="0.15625" stop-color="#7A6AFD"/>
<stop offset="1" stop-color="#7A6AFD" stop-opacity="0"/>
</linearGradient>
<linearGradient id="paint3_linear_5481_122379" x1="-44.0785" y1="50.8616" x2="46.1473" y2="33.0298" gradientUnits="userSpaceOnUse">
<stop stop-color="#30A7FE" stop-opacity="0"/>
<stop offset="0.432292" stop-color="#30A7FE" stop-opacity="0.994652"/>
<stop offset="0.609375" stop-color="#30A7FE"/>
<stop offset="1" stop-color="#30A7FE" stop-opacity="0"/>
</linearGradient>
<clipPath id="clip0_5481_122379">
<rect width="48" height="48" rx="10" fill="white"/>
</clipPath>
</defs>
<clipPath id="mask0_5481_122379">
<path fill-rule="evenodd" d="M35.9699 17.517C37.1796 17.142 38.2647 16.6955 39.1515 16.1745V18.4074C39.1312 18.5529 39.0026 18.876 38.3765 19.3349C37.7023 19.8291 36.6466 20.3265 35.2296 20.7659C32.4106 21.6398 28.4399 22.1995 23.9994 22.1995C19.5589 22.1995 15.5882 21.6398 12.7692 20.7659C11.3522 20.3265 10.2965 19.8291 9.62227 19.3349C8.99942 18.8784 8.86888 18.5562 8.84766 18.4096V16.1747C9.73438 16.6956 10.8194 17.142 12.0289 17.517C15.1475 18.4839 19.3795 19.0628 23.9994 19.0628C28.6193 19.0628 32.8512 18.4839 35.9699 17.517ZM39.151 12.7737C39.1028 10.6183 32.3376 8.875 23.9994 8.875C15.6613 8.875 8.89621 10.6183 8.84775 12.7736C8.86927 12.9204 9.00034 13.2423 9.62227 13.6982C10.2965 14.1924 11.3522 14.6898 12.7692 15.1291C15.5882 16.0031 19.5589 16.5628 23.9994 16.5628C28.4399 16.5628 32.4106 16.0031 35.2296 15.1291C36.6466 14.6898 37.7023 14.1924 38.3765 13.6982C38.9983 13.2424 39.1295 12.9205 39.151 12.7737ZM39.1515 21.8112C38.2647 22.3322 37.1796 22.7787 35.9699 23.1537C32.8512 24.1206 28.6193 24.6995 23.9994 24.6995C19.3795 24.6995 15.1475 24.1206 12.0289 23.1537C10.8194 22.7787 9.73438 22.3324 8.84766 21.8114V24.0463C8.86888 24.1929 8.99942 24.5151 9.62227 24.9716C10.2965 25.4658 11.3522 25.9633 12.7692 26.4026C15.5882 27.2766 19.5589 27.8362 23.9994 27.8362C28.4399 27.8362 32.4106 27.2766 35.2296 26.4026C36.6466 25.9633 37.7023 25.4658 38.3765 24.9716C39.0026 24.5127 39.1312 24.1896 39.1515 24.0441V21.8112ZM8.84766 29.7143V27.4481C9.73438 27.9691 10.8194 28.4154 12.0289 28.7904C15.1475 29.7573 19.3795 30.3362 23.9994 30.3362C28.6193 30.3362 32.8512 29.7573 35.9699 28.7904C37.1796 28.4154 38.2647 27.969 39.1515 27.4479V29.7121C39.1312 29.8576 39.0026 30.1807 38.3765 30.6396C37.7023 31.1338 36.6466 31.6312 35.2296 32.0705C32.4106 32.9445 28.4399 33.5042 23.9994 33.5042C19.5589 33.5042 15.5882 32.9445 12.7692 32.0705C11.3522 31.6312 10.2965 31.1338 9.62227 30.6396C8.99942 30.183 8.86888 29.8608 8.84766 29.7143ZM8.84766 33.1161V35.3284C9.25 37.3284 16.4457 39.1259 23.8497 39.1259C29.6924 39.1259 37.7656 38.0315 39.1515 35.3909V33.1159C38.2647 33.6369 37.1796 34.0834 35.9699 34.4584C32.8512 35.4253 28.6193 36.0042 23.9994 36.0042C19.3795 36.0042 15.1475 35.4253 12.0289 34.4584C10.8194 34.0834 9.73438 33.637 8.84766 33.1161Z" fill="white"/>
</clipPath>
<g clip-path="url(#mask0_5481_122379)">
<g clip-path="url(#clip0_5481_122379)">
<rect width="48" height="48" rx="10" fill="#D9F4FD"/>
<circle cx="42.7877" cy="31.5552" r="69.3033" fill="url(#paint0_radial_5481_122379)"/>
<path d="M-4.31959 15.0345C-5.08998 -1.55641 7.73508 -15.6305 24.326 -16.4009C40.9169 -17.1713 54.991 -4.34621 55.7613 12.2447C56.5317 28.8356 43.7067 42.9097 27.1158 43.6801C10.5249 44.4504 -3.54921 31.6254 -4.31959 15.0345Z" fill="url(#paint1_linear_5481_122379)"/>
<path d="M12.1243 -33.214C8.38167 -35.53 3.6397 -35.5442 -0.116893 -33.2506L-37.6896 -10.3099C-41.3694 -8.06314 -41.3755 -2.75987 -37.7007 -0.504581L-0.376298 22.4036C3.37467 24.7054 8.11665 24.7027 11.8644 22.3954L49.1119 -0.534222C52.7672 -2.7847 52.7739 -8.05833 49.1231 -10.3173L12.1243 -33.214Z" fill="url(#paint2_linear_5481_122379)"/>
<path d="M-23.9274 22.9579C-16.1831 22.9579 -9.16812 26.0922 -4.0892 31.1486C6.06863 41.2789 14.4901 41.2875 24.6479 31.1746C29.7268 26.0922 36.7505 22.9492 44.5034 22.9492C60.0006 22.9579 72.5547 35.4778 72.5547 50.9329C72.5547 66.388 60.0006 78.8992 44.5034 78.8992C36.7331 78.8992 29.7095 75.7476 24.6306 70.6652C14.4814 60.5696 6.06863 60.5782 -4.0892 70.7085C-9.16812 75.7736 -16.1831 78.8992 -23.9274 78.8992C-39.4159 78.8992 -51.9699 66.3793 -51.9699 50.9329C-51.9699 35.4865 -39.4159 22.9579 -23.9274 22.9579Z" fill="url(#paint3_linear_5481_122379)"/>
</g>
</g>

</svg>
