<svg width="48" height="48" viewBox="0 0 48 48" xmlns="http://www.w3.org/2000/svg">
  <defs>
<radialGradient id="paint0_radial_5481_122431" cx="0" cy="0" r="1" gradientUnits="userSpaceOnUse" gradientTransform="translate(42.7877 31.5552) rotate(90) scale(69.3033)">
<stop offset="0.0885417" stop-color="#EB1000"/>
<stop offset="1" stop-color="#EB1000" stop-opacity="0"/>
</radialGradient>
<linearGradient id="paint1_linear_5481_122431" x1="34.7309" y1="-1.54315" x2="6.93278" y2="34.4977" gradientUnits="userSpaceOnUse">
<stop stop-color="#FF4885"/>
<stop offset="1" stop-color="#FF4885" stop-opacity="0"/>
</linearGradient>
<linearGradient id="paint2_linear_5481_122431" x1="17.7929" y1="-18.1348" x2="23.1553" y2="16.1845" gradientUnits="userSpaceOnUse">
<stop offset="0.15625" stop-color="#7A6AFD"/>
<stop offset="1" stop-color="#7A6AFD" stop-opacity="0"/>
</linearGradient>
<linearGradient id="paint3_linear_5481_122431" x1="-44.0785" y1="50.8616" x2="46.1473" y2="33.0298" gradientUnits="userSpaceOnUse">
<stop stop-color="#30A7FE" stop-opacity="0"/>
<stop offset="0.432292" stop-color="#30A7FE" stop-opacity="0.994652"/>
<stop offset="0.609375" stop-color="#30A7FE"/>
<stop offset="1" stop-color="#30A7FE" stop-opacity="0"/>
</linearGradient>
<clipPath id="clip0_5481_122431">
<rect width="48" height="48" rx="10" fill="white"/>
</clipPath>
</defs>
<clipPath id="mask0_5481_122431">
<path fill-rule="evenodd" d="M9.32627 25.367L9.32612 25.3667C9.32269 25.3601 9.31911 25.3536 9.31539 25.3471C8.6338 24.1645 8.80391 22.8654 9.76535 22.1431C10.7562 21.3986 12.1585 21.5901 12.915 22.5737L15.8588 26.4017C15.9893 26.5715 16.2134 26.6392 16.4161 26.5703C16.6188 26.5014 16.7552 26.311 16.7552 26.0969V13.3153C16.7552 11.9665 17.8431 10.877 19.1812 10.877C20.5192 10.877 21.6072 11.9665 21.6072 13.3153V21.5358C21.6072 21.8119 21.831 22.0358 22.1072 22.0358H22.1131C22.3893 22.0358 22.6131 21.8119 22.6131 21.5358V10.4382C22.6131 9.08951 23.7011 8 25.0391 8C26.3771 8 27.4651 9.08951 27.4651 10.4382V21.5373C27.4651 21.8134 27.689 22.0373 27.9651 22.0373H27.971C28.2472 22.0373 28.471 21.8134 28.471 21.5373V11.8297C28.471 10.481 29.559 9.39149 30.897 9.39149C32.2367 9.39149 33.3245 10.4812 33.3245 11.8297V22.2689C33.3245 22.5342 33.5318 22.7533 33.7967 22.7681C34.0616 22.7829 34.2919 22.5882 34.3214 22.3245L34.6009 19.8289L34.8804 17.3334L34.8805 17.3334L34.8812 17.3264C35.0236 15.8714 36.3198 15.1476 37.5096 15.3813C38.4677 15.5694 39.2213 16.429 39.0784 17.8136L37.8351 26.5085C37.8265 26.533 37.8198 26.5584 37.8151 26.5847C36.8149 32.1411 35.1694 35.4737 33.0702 37.4233C30.9845 39.3603 28.3766 40 25.28 40C23.2551 40 21.2474 39.1289 19.3503 37.7654C17.4559 36.4037 15.7091 34.5776 14.217 32.7338C12.7268 30.8924 11.5026 29.0484 10.6504 27.6634C10.2247 26.9714 9.89254 26.3952 9.6673 25.9929C9.5547 25.7918 9.46886 25.6342 9.41144 25.5274C9.38273 25.474 9.36112 25.4333 9.34683 25.4062L9.33091 25.3759L9.32712 25.3686L9.32627 25.367Z" fill="white"/>
</clipPath>
<g clip-path="url(#mask0_5481_122431)">
<g clip-path="url(#clip0_5481_122431)">
<rect width="48" height="48" rx="10" fill="#D9F4FD"/>
<circle cx="42.7877" cy="31.5552" r="69.3033" fill="url(#paint0_radial_5481_122431)"/>
<path d="M-4.31959 15.0345C-5.08998 -1.55641 7.73508 -15.6305 24.326 -16.4009C40.9169 -17.1713 54.991 -4.34621 55.7613 12.2447C56.5317 28.8356 43.7067 42.9097 27.1158 43.6801C10.5249 44.4504 -3.54921 31.6254 -4.31959 15.0345Z" fill="url(#paint1_linear_5481_122431)"/>
<path d="M12.1243 -33.214C8.38167 -35.53 3.6397 -35.5442 -0.116893 -33.2506L-37.6896 -10.3099C-41.3694 -8.06314 -41.3755 -2.75987 -37.7007 -0.504581L-0.376298 22.4036C3.37467 24.7054 8.11665 24.7027 11.8644 22.3954L49.1119 -0.534222C52.7672 -2.7847 52.7739 -8.05833 49.1231 -10.3173L12.1243 -33.214Z" fill="url(#paint2_linear_5481_122431)"/>
<path d="M-23.9274 22.9579C-16.1831 22.9579 -9.16812 26.0922 -4.0892 31.1486C6.06863 41.2789 14.4901 41.2875 24.6479 31.1746C29.7268 26.0922 36.7505 22.9492 44.5034 22.9492C60.0006 22.9579 72.5547 35.4778 72.5547 50.9329C72.5547 66.388 60.0006 78.8992 44.5034 78.8992C36.7331 78.8992 29.7095 75.7476 24.6306 70.6652C14.4814 60.5696 6.06863 60.5782 -4.0892 70.7085C-9.16812 75.7736 -16.1831 78.8992 -23.9274 78.8992C-39.4159 78.8992 -51.9699 66.3793 -51.9699 50.9329C-51.9699 35.4865 -39.4159 22.9579 -23.9274 22.9579Z" fill="url(#paint3_linear_5481_122431)"/>
</g>
</g>

</svg>
