<svg width="48" height="48" viewBox="0 0 48 48" xmlns="http://www.w3.org/2000/svg">
  <defs>
<radialGradient id="paint0_radial_5481_122292" cx="0" cy="0" r="1" gradientUnits="userSpaceOnUse" gradientTransform="translate(40.2578 30.5381) rotate(90) scale(59.9687 59.9688)">
<stop offset="0.0885417" stop-color="#EB1000"/>
<stop offset="1" stop-color="#EB1000" stop-opacity="0"/>
</radialGradient>
<linearGradient id="paint1_linear_5481_122292" x1="33.2865" y1="1.89627" x2="9.23259" y2="33.0828" gradientUnits="userSpaceOnUse">
<stop stop-color="#FF4885"/>
<stop offset="1" stop-color="#FF4885" stop-opacity="0"/>
</linearGradient>
<linearGradient id="paint2_linear_5481_122292" x1="18.6313" y1="-12.4607" x2="23.2714" y2="17.2361" gradientUnits="userSpaceOnUse">
<stop offset="0.15625" stop-color="#7A6AFD"/>
<stop offset="1" stop-color="#7A6AFD" stop-opacity="0"/>
</linearGradient>
<linearGradient id="paint3_linear_5481_122292" x1="-34.9081" y1="47.2436" x2="43.1651" y2="31.8136" gradientUnits="userSpaceOnUse">
<stop stop-color="#30A7FE" stop-opacity="0"/>
<stop offset="0.432292" stop-color="#30A7FE" stop-opacity="0.994652"/>
<stop offset="0.609375" stop-color="#30A7FE"/>
<stop offset="1" stop-color="#30A7FE" stop-opacity="0"/>
</linearGradient>
<clipPath id="clip0_5481_122292">
<rect x="3.23438" y="3.23242" width="41.5348" height="41.5348" rx="10" fill="white"/>
</clipPath>
</defs>
<clipPath id="mask0_5481_122292">
<path d="M36.1464 19.346L26.2552 9.4548C25.5801 8.77967 24.6644 8.40039 23.7096 8.40039H14.4008C12.4125 8.40039 10.8008 10.0122 10.8008 12.0004V36.0004C10.8008 37.9886 12.4125 39.6004 14.4008 39.6004H33.6008C35.589 39.6004 37.2008 37.9886 37.2008 36.0004V21.8916C37.2008 20.9368 36.8215 20.0211 36.1464 19.346ZM31.2008 25.2004C31.2008 25.8631 30.6635 26.4004 30.0008 26.4004C29.3381 26.4004 28.8008 25.8631 28.8008 25.2004V24.0004H25.2008V33.6004H26.4008C27.0635 33.6004 27.6008 34.1377 27.6008 34.8004C27.6008 35.4631 27.0635 36.0004 26.4008 36.0004H21.6008C20.9381 36.0004 20.4008 35.4631 20.4008 34.8004C20.4008 34.1377 20.9381 33.6004 21.6008 33.6004H22.8008V24.0004H19.2008V25.2004C19.2008 25.8631 18.6635 26.4004 18.0008 26.4004C17.3381 26.4004 16.8008 25.8631 16.8008 25.2004V22.8004C16.8008 22.1377 17.3381 21.6004 18.0008 21.6004H30.0008C30.6635 21.6004 31.2008 22.1377 31.2008 22.8004V25.2004Z" fill="white"/>
</clipPath>
<g clip-path="url(#mask0_5481_122292)">
<g clip-path="url(#clip0_5481_122292)">
<rect x="3.23438" y="3.23242" width="41.5348" height="41.5348" rx="10" fill="#D9F4FD"/>
<ellipse cx="40.2578" cy="30.5381" rx="59.9688" ry="59.9687" fill="url(#paint0_radial_5481_122292)"/>
<path d="M-0.504182 16.241C-1.1708 1.88479 9.92684 -10.2936 24.2831 -10.9603C38.6393 -11.6269 50.8178 -0.529246 51.4844 13.827C52.151 28.1833 41.0534 40.3617 26.6971 41.0283C12.3409 41.6949 0.162437 30.5973 -0.504182 16.241Z" fill="url(#paint1_linear_5481_122292)"/>
<path d="M13.7262 -25.5089C10.4877 -27.5129 6.38438 -27.5252 3.13377 -25.5406L-29.3782 -5.68978C-32.5624 -3.74561 -32.5677 0.843361 -29.3879 2.79488L2.9093 22.6175C6.15505 24.6093 10.2583 24.6069 13.5013 22.6104L45.7319 2.76923C48.8949 0.821877 48.9007 -3.74144 45.7416 -5.69615L13.7262 -25.5089Z" fill="url(#paint2_linear_5481_122292)"/>
<path d="M-17.4712 23.0983C-10.77 23.0983 -4.69985 25.8105 -0.305016 30.1859C8.48465 38.9516 15.7718 38.9591 24.5615 30.2083C28.9563 25.8105 35.0339 23.0908 41.7426 23.0908C55.1525 23.0983 66.0156 33.9319 66.0156 47.3053C66.0156 60.6787 55.1525 71.5048 41.7426 71.5048C35.0189 71.5048 28.9413 68.7777 24.5464 64.3799C15.7643 55.644 8.48465 55.6515 -0.305016 64.4173C-4.69985 68.8002 -10.77 71.5048 -17.4712 71.5048C-30.8735 71.5048 -41.7366 60.6713 -41.7366 47.3053C-41.7366 33.9394 -30.8735 23.0983 -17.4712 23.0983Z" fill="url(#paint3_linear_5481_122292)"/>
</g>
</g>

</svg>
