<svg width="48" height="48" viewBox="0 0 48 48" xmlns="http://www.w3.org/2000/svg">
  <defs>
<radialGradient id="paint0_radial_5481_122280" cx="0" cy="0" r="1" gradientUnits="userSpaceOnUse" gradientTransform="translate(39.1062 30.3118) rotate(90) scale(51.2844 54.4031)">
<stop offset="0.0885417" stop-color="#EB1000"/>
<stop offset="1" stop-color="#EB1000" stop-opacity="0"/>
</radialGradient>
<linearGradient id="paint1_linear_5481_122280" x1="32.7828" y1="5.81803" x2="12.551" y2="33.6441" gradientUnits="userSpaceOnUse">
<stop stop-color="#FF4885"/>
<stop offset="1" stop-color="#FF4885" stop-opacity="0"/>
</linearGradient>
<linearGradient id="paint2_linear_5481_122280" x1="19.4888" y1="-6.45982" x2="23.2394" y2="19.0041" gradientUnits="userSpaceOnUse">
<stop offset="0.15625" stop-color="#7A6AFD"/>
<stop offset="1" stop-color="#7A6AFD" stop-opacity="0"/>
</linearGradient>
<linearGradient id="paint3_linear_5481_122280" x1="-29.0844" y1="44.5985" x2="41.4108" y2="29.819" gradientUnits="userSpaceOnUse">
<stop stop-color="#30A7FE" stop-opacity="0"/>
<stop offset="0.432292" stop-color="#30A7FE" stop-opacity="0.994652"/>
<stop offset="0.609375" stop-color="#30A7FE"/>
<stop offset="1" stop-color="#30A7FE" stop-opacity="0"/>
</linearGradient>
<clipPath id="clip0_5481_122280">
<rect x="5.51953" y="6.95996" width="37.68" height="35.52" rx="10" fill="white"/>
</clipPath>
</defs>
<clipPath id="mask0_5481_122280">
<path d="M29.1008 8.40039H18.9008C16.9118 8.40039 15.3008 10.0114 15.3008 12.0004V36.0004C15.3008 37.9894 16.9118 39.6004 18.9008 39.6004H29.1008C31.0898 39.6004 32.7008 37.9894 32.7008 36.0004V12.0004C32.7008 10.0114 31.0898 8.40039 29.1008 8.40039ZM24.0008 36.0004C23.3378 36.0004 22.8008 35.4634 22.8008 34.8004C22.8008 34.1374 23.3378 33.6004 24.0008 33.6004C24.6638 33.6004 25.2008 34.1374 25.2008 34.8004C25.2008 35.4634 24.6638 36.0004 24.0008 36.0004Z" fill="white"/>
</clipPath>
<g clip-path="url(#mask0_5481_122280)">
<g clip-path="url(#clip0_5481_122280)">
<rect x="5.51953" y="6.95996" width="37.68" height="35.52" rx="10" fill="#D9F4FD"/>
<ellipse cx="39.1062" cy="30.3118" rx="54.4031" ry="51.2844" fill="url(#paint0_radial_5481_122280)"/>
<path d="M2.12818 18.0855C1.52343 5.80821 11.5911 -4.60662 24.615 -5.1767C37.6388 -5.74678 48.687 3.74376 49.2917 16.021C49.8965 28.2983 39.8288 38.7131 26.8049 39.2832C13.7811 39.8533 2.73293 30.3627 2.12818 18.0855Z" fill="url(#paint1_linear_5481_122280)"/>
<path d="M15.0389 -17.6184C12.1009 -19.3322 8.3785 -19.3427 5.42957 -17.6455L-24.065 -0.669388C-26.9536 0.99324 -26.9584 4.91766 -24.0738 6.58657L5.22594 23.5386C8.17045 25.242 11.8929 25.2399 14.8349 23.5325L44.0742 6.56464C46.9436 4.89929 46.9489 0.996799 44.083 -0.674839L15.0389 -17.6184Z" fill="url(#paint2_linear_5481_122280)"/>
<path d="M-13.2658 23.9498C-7.18652 23.9498 -1.67976 26.2692 2.30719 30.0109C10.2811 37.5073 16.8919 37.5137 24.8658 30.0302C28.8528 26.2692 34.3664 23.9434 40.4524 23.9434C52.6177 23.9498 62.4727 33.2145 62.4727 44.6513C62.4727 56.088 52.6177 65.3464 40.4524 65.3464C34.3527 65.3464 28.8392 63.0142 24.8522 59.2532C16.8851 51.7824 10.2811 51.7888 2.30719 59.2852C-1.67976 63.0334 -7.18652 65.3464 -13.2658 65.3464C-25.4243 65.3464 -35.2792 56.0816 -35.2792 44.6513C-35.2792 33.2209 -25.4243 23.9498 -13.2658 23.9498Z" fill="url(#paint3_linear_5481_122280)"/>
</g>
</g>

</svg>
