<svg width="48" height="48" viewBox="0 0 48 48" xmlns="http://www.w3.org/2000/svg">
  <defs>
<radialGradient id="paint0_radial_5481_122416" cx="0" cy="0" r="1" gradientUnits="userSpaceOnUse" gradientTransform="translate(42.7877 31.5552) rotate(90) scale(69.3033)">
<stop offset="0.0885417" stop-color="#EB1000"/>
<stop offset="1" stop-color="#EB1000" stop-opacity="0"/>
</radialGradient>
<linearGradient id="paint1_linear_5481_122416" x1="34.7309" y1="-1.54315" x2="6.93278" y2="34.4977" gradientUnits="userSpaceOnUse">
<stop stop-color="#FF4885"/>
<stop offset="1" stop-color="#FF4885" stop-opacity="0"/>
</linearGradient>
<linearGradient id="paint2_linear_5481_122416" x1="17.7929" y1="-18.1348" x2="23.1553" y2="16.1845" gradientUnits="userSpaceOnUse">
<stop offset="0.15625" stop-color="#7A6AFD"/>
<stop offset="1" stop-color="#7A6AFD" stop-opacity="0"/>
</linearGradient>
<linearGradient id="paint3_linear_5481_122416" x1="-44.0785" y1="50.8616" x2="46.1473" y2="33.0298" gradientUnits="userSpaceOnUse">
<stop stop-color="#30A7FE" stop-opacity="0"/>
<stop offset="0.432292" stop-color="#30A7FE" stop-opacity="0.994652"/>
<stop offset="0.609375" stop-color="#30A7FE"/>
<stop offset="1" stop-color="#30A7FE" stop-opacity="0"/>
</linearGradient>
<clipPath id="clip0_5481_122416">
<rect width="48" height="48" rx="10" fill="white"/>
</clipPath>
</defs>
<clipPath id="mask0_5481_122416">
<path fill-rule="evenodd" d="M27.625 17.0664C27.625 18.6174 27.2569 20.0825 26.6032 21.379C26.4196 21.4507 26.237 21.5251 26.0567 21.6019L23.4771 16.9586L23.4568 16.9246C22.3734 15.1122 19.7864 13.6138 17.2119 15.0094C14.7901 16.3223 14.0641 19.4533 15.3947 21.7058L18.1457 26.6576C18.1082 26.658 18.0707 26.6582 18.0332 26.6582C12.7358 26.6582 8.44141 22.3638 8.44141 17.0664C8.44141 11.769 12.7358 7.47461 18.0332 7.47461C23.3306 7.47461 27.625 11.769 27.625 17.0664ZM20.7841 26.2579L24.7441 33.3859C24.8555 33.5863 24.6626 33.8144 24.4486 33.7322C23.7768 33.474 23.0411 33.157 22.2801 32.8291C20.8796 32.2256 19.3932 31.5851 18.0612 31.2063C16.7017 30.8197 15.4055 31.4547 15.0612 32.7063C14.7237 33.9337 15.0614 34.9563 16.5613 35.7063C16.6701 35.7607 16.8109 35.8325 16.9803 35.919C19.1471 37.0249 26.0023 40.5236 30.6123 40.5236C35.5829 40.5236 39.5611 36.4941 39.5611 31.5236C39.5611 26.553 36.7816 22.7065 31.8111 22.7065C29.9528 22.7065 26.8605 23.7836 25.2922 24.7993C25.1667 24.8805 24.9974 24.8419 24.9248 24.7112L21.3111 18.2065C20.6959 17.1774 19.4575 16.635 18.4035 17.2064C17.7545 17.5582 17.3528 18.2227 17.2568 18.9318C17.1863 19.4514 17.28 19.995 17.5609 20.4572L20.7836 26.258C20.7838 26.258 20.784 26.2579 20.7841 26.2579Z" fill="white"/>
</clipPath>
<g clip-path="url(#mask0_5481_122416)">
<g clip-path="url(#clip0_5481_122416)">
<rect width="48" height="48" rx="10" fill="#D9F4FD"/>
<circle cx="42.7877" cy="31.5552" r="69.3033" fill="url(#paint0_radial_5481_122416)"/>
<path d="M-4.31959 15.0345C-5.08998 -1.55641 7.73508 -15.6305 24.326 -16.4009C40.9169 -17.1713 54.991 -4.34621 55.7613 12.2447C56.5317 28.8356 43.7067 42.9097 27.1158 43.6801C10.5249 44.4504 -3.54921 31.6254 -4.31959 15.0345Z" fill="url(#paint1_linear_5481_122416)"/>
<path d="M12.1243 -33.214C8.38167 -35.53 3.6397 -35.5442 -0.116893 -33.2506L-37.6896 -10.3099C-41.3694 -8.06314 -41.3755 -2.75987 -37.7007 -0.504581L-0.376298 22.4036C3.37467 24.7054 8.11665 24.7027 11.8644 22.3954L49.1119 -0.534222C52.7672 -2.7847 52.7739 -8.05833 49.1231 -10.3173L12.1243 -33.214Z" fill="url(#paint2_linear_5481_122416)"/>
<path d="M-23.9274 22.9579C-16.1831 22.9579 -9.16812 26.0922 -4.0892 31.1486C6.06863 41.2789 14.4901 41.2875 24.6479 31.1746C29.7268 26.0922 36.7505 22.9492 44.5034 22.9492C60.0006 22.9579 72.5547 35.4778 72.5547 50.9329C72.5547 66.388 60.0006 78.8992 44.5034 78.8992C36.7331 78.8992 29.7095 75.7476 24.6306 70.6652C14.4814 60.5696 6.06863 60.5782 -4.0892 70.7085C-9.16812 75.7736 -16.1831 78.8992 -23.9274 78.8992C-39.4159 78.8992 -51.9699 66.3793 -51.9699 50.9329C-51.9699 35.4865 -39.4159 22.9579 -23.9274 22.9579Z" fill="url(#paint3_linear_5481_122416)"/>
</g>
</g>

</svg>
