<svg width="48" height="48" viewBox="0 0 48 48" xmlns="http://www.w3.org/2000/svg">
  <defs>
<radialGradient id="paint0_radial_5481_122370" cx="0" cy="0" r="1" gradientUnits="userSpaceOnUse" gradientTransform="translate(40.7877 31.5552) rotate(90) scale(69.3033)">
<stop offset="0.0885417" stop-color="#EB1000"/>
<stop offset="1" stop-color="#EB1000" stop-opacity="0"/>
</radialGradient>
<linearGradient id="paint1_linear_5481_122370" x1="32.7309" y1="-1.54315" x2="4.93278" y2="34.4977" gradientUnits="userSpaceOnUse">
<stop stop-color="#FF4885"/>
<stop offset="1" stop-color="#FF4885" stop-opacity="0"/>
</linearGradient>
<linearGradient id="paint2_linear_5481_122370" x1="15.7929" y1="-18.1348" x2="21.1553" y2="16.1845" gradientUnits="userSpaceOnUse">
<stop offset="0.15625" stop-color="#7A6AFD"/>
<stop offset="1" stop-color="#7A6AFD" stop-opacity="0"/>
</linearGradient>
<linearGradient id="paint3_linear_5481_122370" x1="-46.0785" y1="50.8616" x2="44.1473" y2="33.0298" gradientUnits="userSpaceOnUse">
<stop stop-color="#30A7FE" stop-opacity="0"/>
<stop offset="0.432292" stop-color="#30A7FE" stop-opacity="0.994652"/>
<stop offset="0.609375" stop-color="#30A7FE"/>
<stop offset="1" stop-color="#30A7FE" stop-opacity="0"/>
</linearGradient>
<clipPath id="clip0_5481_122370">
<rect x="-2" width="48" height="48" rx="10" fill="white"/>
</clipPath>
</defs>
<clipPath id="mask0_5481_122370">
<path d="M39.5765 21.5637L23.2038 11.7867C21.3702 10.6917 19.0749 12.0548 19.0724 14.2402L19.0498 33.7538C19.0473 35.9392 21.3393 37.3079 23.1755 36.2175L39.5708 26.4809C41.4069 25.3904 41.4101 22.6587 39.5765 21.5637Z" fill="white"/>
<path d="M7 13C7 11.8954 7.89543 11 9 11H12.5C13.6046 11 14.5 11.8954 14.5 13V35C14.5 36.1046 13.6046 37 12.5 37H9C7.89543 37 7 36.1046 7 35V13Z" fill="white"/>
</clipPath>
<g clip-path="url(#mask0_5481_122370)">
<g clip-path="url(#clip0_5481_122370)">
<rect x="-2" width="48" height="48" rx="10" fill="#D9F4FD"/>
<circle cx="40.7877" cy="31.5552" r="69.3033" fill="url(#paint0_radial_5481_122370)"/>
<path d="M-6.31959 15.0345C-7.08998 -1.55641 5.73508 -15.6305 22.326 -16.4009C38.9169 -17.1713 52.991 -4.34621 53.7613 12.2447C54.5317 28.8356 41.7067 42.9097 25.1158 43.6801C8.52489 44.4504 -5.54921 31.6254 -6.31959 15.0345Z" fill="url(#paint1_linear_5481_122370)"/>
<path d="M10.1243 -33.214C6.38167 -35.53 1.6397 -35.5442 -2.11689 -33.2506L-39.6896 -10.3099C-43.3694 -8.06314 -43.3755 -2.75987 -39.7007 -0.504581L-2.3763 22.4036C1.37467 24.7054 6.11665 24.7027 9.86438 22.3954L47.1119 -0.534222C50.7672 -2.7847 50.7739 -8.05833 47.1231 -10.3173L10.1243 -33.214Z" fill="url(#paint2_linear_5481_122370)"/>
<path d="M-25.9274 22.9579C-18.1831 22.9579 -11.1681 26.0922 -6.0892 31.1486C4.06863 41.2789 12.4901 41.2875 22.6479 31.1746C27.7268 26.0922 34.7505 22.9492 42.5034 22.9492C58.0006 22.9579 70.5547 35.4778 70.5547 50.9329C70.5547 66.388 58.0006 78.8992 42.5034 78.8992C34.7331 78.8992 27.7095 75.7476 22.6306 70.6652C12.4814 60.5696 4.06863 60.5782 -6.0892 70.7085C-11.1681 75.7736 -18.1831 78.8992 -25.9274 78.8992C-41.4159 78.8992 -53.9699 66.3793 -53.9699 50.9329C-53.9699 35.4865 -41.4159 22.9579 -25.9274 22.9579Z" fill="url(#paint3_linear_5481_122370)"/>
</g>
</g>

</svg>
