<svg width="160" height="160" viewBox="0 0 160 160" xmlns="http://www.w3.org/2000/svg">
  <defs>
<radialGradient id="paint0_radial_5481_122196" cx="0" cy="0" r="1" gradientUnits="userSpaceOnUse" gradientTransform="translate(142.62 105.187) rotate(90) scale(231.011)">
<stop offset="0.0885417" stop-color="#EB1000"/>
<stop offset="1" stop-color="#EB1000" stop-opacity="0"/>
</radialGradient>
<linearGradient id="paint1_linear_5481_122196" x1="115.768" y1="-5.14512" x2="23.108" y2="114.991" gradientUnits="userSpaceOnUse">
<stop stop-color="#FF4885"/>
<stop offset="1" stop-color="#FF4885" stop-opacity="0"/>
</linearGradient>
<linearGradient id="paint2_linear_5481_122196" x1="59.3137" y1="-60.4521" x2="77.1884" y2="53.9458" gradientUnits="userSpaceOnUse">
<stop offset="0.15625" stop-color="#7A6AFD"/>
<stop offset="1" stop-color="#7A6AFD" stop-opacity="0"/>
</linearGradient>
<linearGradient id="paint3_linear_5481_122196" x1="-146.934" y1="169.541" x2="153.819" y2="110.102" gradientUnits="userSpaceOnUse">
<stop stop-color="#30A7FE" stop-opacity="0"/>
<stop offset="0.432292" stop-color="#30A7FE" stop-opacity="0.994652"/>
<stop offset="0.609375" stop-color="#30A7FE"/>
<stop offset="1" stop-color="#30A7FE" stop-opacity="0"/>
</linearGradient>
<clipPath id="clip0_5481_122196">
<rect width="160" height="160" rx="10" fill="white"/>
</clipPath>
</defs>
<clipPath id="mask0_5481_122196">
<path fill-rule="evenodd" d="M46.9626 52.9974H34.3125C29.8942 52.9974 26.3125 56.5791 26.3125 60.9974V99.2022C26.3125 103.62 29.8942 107.202 34.3125 107.202H46.9626L46.9626 52.9974ZM54.9626 48.1305L54.9626 112.02L70.2239 127C74.0195 130.725 80.4268 128.036 80.4268 122.718L80.4268 37.2815C80.4268 31.9485 73.9896 29.2659 70.2024 33.0208L54.9626 48.1305ZM91.745 57.2316C93.0733 55.4664 95.5811 55.1123 97.3462 56.4406C104.45 61.7867 109.057 70.3025 109.057 79.893C109.057 89.5621 104.375 98.1384 97.1714 103.476C95.3965 104.791 92.8914 104.419 91.5762 102.644C90.261 100.869 90.6337 98.3635 92.4086 97.0483C97.6635 93.1545 101.057 86.9205 101.057 79.893C101.057 72.9224 97.7183 66.7327 92.5359 62.8328C90.7708 61.5045 90.4166 58.9967 91.745 57.2316ZM114.281 40.9875C112.516 39.6591 110.008 40.0133 108.68 41.7784C107.352 43.5436 107.706 46.0514 109.471 47.3797C119.327 54.7965 125.688 66.5797 125.688 79.8497C125.688 93.2281 119.222 105.096 109.229 112.501C107.454 113.816 107.081 116.321 108.396 118.096C109.711 119.871 112.217 120.244 113.992 118.928C125.934 110.079 133.688 95.8697 133.688 79.8497C133.688 63.9598 126.059 49.8505 114.281 40.9875Z" fill="#292929"/>
</clipPath>
<g clip-path="url(#mask0_5481_122196)">
<g clip-path="url(#clip0_5481_122196)">
<rect width="160" height="160" rx="10" fill="#D9F4FD"/>
<circle cx="142.62" cy="105.187" r="231.011" fill="url(#paint0_radial_5481_122196)"/>
<path d="M-14.3999 50.1137C-16.9679 -5.18932 25.7823 -52.103 81.0853 -54.6709C136.388 -57.2388 183.302 -14.4887 185.87 40.8143C188.438 96.1173 145.688 143.031 90.3846 145.599C35.0817 148.167 -11.832 105.417 -14.3999 50.1137Z" fill="url(#paint1_linear_5481_122196)"/>
<path d="M40.4184 -110.716C27.9428 -118.436 12.1362 -118.483 -0.385738 -110.838L-125.628 -34.3691C-137.894 -26.8797 -137.914 -9.20217 -125.665 -1.68455L-1.25042 74.676C11.2528 82.3487 27.0594 82.3396 39.5518 74.6486L163.71 -1.78335C175.895 -9.28493 175.917 -26.8637 163.748 -34.3936L40.4184 -110.716Z" fill="url(#paint2_linear_5481_122196)"/>
<path d="M-79.7631 76.5289C-53.9489 76.5289 -30.5656 86.9766 -13.6359 103.831C20.2235 137.599 48.2951 137.628 82.1545 103.918C99.0842 86.9766 122.496 76.5 148.34 76.5C199.997 76.5289 241.844 118.262 241.844 169.779C241.844 221.296 199.997 263 148.34 263C122.439 263 99.0263 252.495 82.0966 235.553C48.2661 201.901 20.2235 201.93 -13.6359 235.697C-30.5656 252.581 -53.9489 263 -79.7631 263C-131.392 263 -173.238 221.267 -173.238 169.779C-173.238 118.291 -131.392 76.5289 -79.7631 76.5289Z" fill="url(#paint3_linear_5481_122196)"/>
</g>
</g>

</svg>
