<svg width="160" height="160" viewBox="0 0 160 160" xmlns="http://www.w3.org/2000/svg">
  <defs>
<radialGradient id="paint0_radial_5481_122150" cx="0" cy="0" r="1" gradientUnits="userSpaceOnUse" gradientTransform="translate(132.683 104.408) rotate(90) scale(196.359 208.3)">
<stop offset="0.0885417" stop-color="#EB1000"/>
<stop offset="1" stop-color="#EB1000" stop-opacity="0"/>
</radialGradient>
<linearGradient id="paint1_linear_5481_122150" x1="108.469" y1="10.6264" x2="31.0047" y2="117.168" gradientUnits="userSpaceOnUse">
<stop stop-color="#FF4885"/>
<stop offset="1" stop-color="#FF4885" stop-opacity="0"/>
</linearGradient>
<linearGradient id="paint2_linear_5481_122150" x1="57.5662" y1="-36.3827" x2="71.9268" y2="61.1142" gradientUnits="userSpaceOnUse">
<stop offset="0.15625" stop-color="#7A6AFD"/>
<stop offset="1" stop-color="#7A6AFD" stop-opacity="0"/>
</linearGradient>
<linearGradient id="paint3_linear_5481_122150" x1="-128.408" y1="159.11" x2="141.506" y2="102.522" gradientUnits="userSpaceOnUse">
<stop stop-color="#30A7FE" stop-opacity="0"/>
<stop offset="0.432292" stop-color="#30A7FE" stop-opacity="0.994652"/>
<stop offset="0.609375" stop-color="#30A7FE"/>
<stop offset="1" stop-color="#30A7FE" stop-opacity="0"/>
</linearGradient>
<clipPath id="clip0_5481_122150">
<rect x="4.08203" y="15" width="144.27" height="136" rx="10" fill="white"/>
</clipPath>
</defs>
<clipPath id="mask0_5481_122150">
<path fill-rule="evenodd" d="M24.2109 136H136.001C138.211 136 140.001 137.79 140.001 140C140.001 142.21 138.211 144 136.001 144H20.2109C18.0009 144 16.2109 142.21 16.2109 140V24C16.2109 21.79 18.0009 20 20.2109 20C22.4209 20 24.2109 21.79 24.2109 24V136ZM44 71.05H48C52.4183 71.05 56 74.6318 56 79.05V116C56 120.418 52.4183 124 48 124H44C39.5817 124 36 120.418 36 116V79.05C36 74.6318 39.5817 71.05 44 71.05ZM120 96H116C111.582 96 108 99.5817 108 104V116C108 120.418 111.582 124 116 124H120C124.418 124 128 120.418 128 116V104C128 99.5817 124.418 96 120 96ZM80 40H84C88.4183 40 92 43.5817 92 48V116C92 120.418 88.4183 124 84 124H80C75.5817 124 72 120.418 72 116V48C72 43.5817 75.5817 40 80 40Z" fill="white"/>
</clipPath>
<g clip-path="url(#mask0_5481_122150)">
<g clip-path="url(#clip0_5481_122150)">
<rect x="4.08203" y="15" width="144.27" height="136" rx="10" fill="#D9F4FD"/>
<ellipse cx="132.683" cy="104.408" rx="208.3" ry="196.359" fill="url(#paint0_radial_5481_122150)"/>
<path d="M-8.90256 57.5964C-11.218 10.5889 27.3293 -29.2877 77.1954 -31.4705C127.062 -33.6532 169.363 2.68444 171.679 49.692C173.994 96.6995 135.447 136.576 85.5805 138.759C35.7145 140.942 -6.58707 104.604 -8.90256 57.5964Z" fill="url(#paint1_linear_5481_122150)"/>
<path d="M40.5284 -79.107C29.2794 -85.6689 15.0267 -85.7091 3.73581 -79.2108L-109.194 -14.2121C-120.254 -7.84622 -120.272 7.17971 -109.227 13.5697L2.95614 78.4762C14.2302 84.998 28.4828 84.9902 39.7471 78.4529L151.699 13.4857C162.686 7.10937 162.706 -7.8326 151.733 -14.233L40.5284 -79.107Z" fill="url(#paint2_linear_5481_122150)"/>
<path d="M-67.841 80.0499C-44.5646 80.0499 -23.4801 88.9305 -8.21478 103.257C22.3159 131.959 47.6277 131.984 78.1584 103.331C93.4237 88.9305 114.534 80.0254 137.837 80.0254C184.416 80.0499 222.148 115.523 222.148 159.312C222.148 203.102 184.416 238.55 137.837 238.55C114.482 238.55 93.3715 229.621 78.1062 215.221C47.6016 186.616 22.3159 186.641 -8.21478 215.343C-23.4801 229.694 -44.5646 238.55 -67.841 238.55C-114.394 238.55 -152.127 203.077 -152.127 159.312C-152.127 115.548 -114.394 80.0499 -67.841 80.0499Z" fill="url(#paint3_linear_5481_122150)"/>
</g>
</g>

</svg>
