<svg width="96" height="96" viewBox="0 0 96 96" xmlns="http://www.w3.org/2000/svg">
  <defs>
<radialGradient id="paint0_radial_5481_122518" cx="0" cy="0" r="1" gradientUnits="userSpaceOnUse" gradientTransform="translate(85.5714 63.1124) rotate(90) scale(138.607)">
<stop offset="0.0885417" stop-color="#EB1000"/>
<stop offset="1" stop-color="#EB1000" stop-opacity="0"/>
</radialGradient>
<linearGradient id="paint1_linear_5481_122518" x1="69.4617" y1="-3.08825" x2="13.8656" y2="68.9935" gradientUnits="userSpaceOnUse">
<stop stop-color="#FF4885"/>
<stop offset="1" stop-color="#FF4885" stop-opacity="0"/>
</linearGradient>
<linearGradient id="paint2_linear_5481_122518" x1="35.5898" y1="-36.2716" x2="46.3146" y2="32.3671" gradientUnits="userSpaceOnUse">
<stop offset="0.15625" stop-color="#7A6AFD"/>
<stop offset="1" stop-color="#7A6AFD" stop-opacity="0"/>
</linearGradient>
<linearGradient id="paint3_linear_5481_122518" x1="-88.1609" y1="101.725" x2="92.2907" y2="66.0615" gradientUnits="userSpaceOnUse">
<stop stop-color="#30A7FE" stop-opacity="0"/>
<stop offset="0.432292" stop-color="#30A7FE" stop-opacity="0.994652"/>
<stop offset="0.609375" stop-color="#30A7FE"/>
<stop offset="1" stop-color="#30A7FE" stop-opacity="0"/>
</linearGradient>
<clipPath id="clip0_5481_122518">
<rect width="96" height="96" rx="10" fill="white"/>
</clipPath>
</defs>
<clipPath id="mask0_5481_122518">
<path fill-rule="evenodd" d="M72.7659 49.0194C75.5051 46.6234 78.4791 44.0171 79.5929 39.4231C82.4585 27.5509 69.9062 15 51.0808 15C32.2554 15 17 30.3673 17 49.3257C17 68.2841 34.5551 82 53.3745 82C63.7234 82 79.5929 75.7306 78.6055 68.4703C78.0035 64.0264 75.0716 63.4499 72.3565 62.9215C70.0266 62.4651 67.8593 62.0387 67.462 59.2343C66.7576 54.286 69.5992 51.7938 72.7599 49.0315L72.7659 49.0194ZM37.0656 64.4888C33.7424 64.4888 31.0453 61.7985 31.0453 58.4836C31.0453 55.1688 33.7424 52.4784 37.0656 52.4784C40.3888 52.4784 43.0859 55.1688 43.0859 58.4836C43.0859 61.7985 40.3888 64.4888 37.0656 64.4888ZM37.0656 44.9359C33.7424 44.9359 31.0453 42.2456 31.0453 38.9307C31.0453 35.6158 33.7424 32.9255 37.0656 32.9255C40.3888 32.9255 43.0859 35.6158 43.0859 38.9307C43.0859 42.2456 40.3888 44.9359 37.0656 44.9359ZM52.1163 73.0462C48.7931 73.0462 46.096 70.3559 46.096 67.0411C46.096 63.7262 48.7931 61.0359 52.1163 61.0359C55.4395 61.0359 58.1366 63.7262 58.1366 67.0411C58.1366 70.3559 55.4395 73.0462 52.1163 73.0462ZM52.1163 37.0151C48.7931 37.0151 46.096 34.3247 46.096 31.0099C46.096 27.695 48.7931 25.0047 52.1163 25.0047C55.4395 25.0047 58.1366 27.695 58.1366 31.0099C58.1366 34.3247 55.4395 37.0151 52.1163 37.0151Z" fill="#292929"/>
</clipPath>
<g clip-path="url(#mask0_5481_122518)">
<g clip-path="url(#clip0_5481_122518)">
<rect width="96" height="96" rx="10" fill="#D9F4FD"/>
<circle cx="85.5714" cy="63.1124" r="138.607" fill="url(#paint0_radial_5481_122518)"/>
<path d="M-8.63919 30.067C-10.18 -3.11477 15.4702 -31.263 48.652 -32.8037C81.8337 -34.3445 109.982 -8.69438 111.523 24.4874C113.063 57.6692 87.4133 85.8174 54.2316 87.3582C21.0498 88.8989 -7.09842 63.2488 -8.63919 30.067Z" fill="url(#paint1_linear_5481_122518)"/>
<path d="M24.2526 -66.43C16.7672 -71.0619 7.28331 -71.0903 -0.22988 -66.5032L-75.3753 -20.6218C-82.7348 -16.1282 -82.7471 -5.52169 -75.3976 -1.01111L-0.748691 44.8052C6.75324 49.4089 16.2372 49.4034 23.7327 44.7888L98.2278 -1.0704C105.538 -5.57135 105.552 -16.1186 98.2501 -20.6366L24.2526 -66.43Z" fill="url(#paint2_linear_5481_122518)"/>
<path d="M-47.8586 45.9177C-32.3701 45.9177 -18.3401 52.1863 -8.18231 62.2992C12.1334 82.5597 28.9763 82.577 49.2919 62.3512C59.4498 52.1863 73.4971 45.9004 89.003 45.9004C119.997 45.9177 145.105 70.9575 145.105 101.868C145.105 132.778 119.997 157.8 89.003 157.8C73.4624 157.8 59.415 151.497 49.2572 141.332C28.9589 121.141 12.1334 121.158 -8.18231 141.419C-18.3401 151.549 -32.3701 157.8 -47.8586 157.8C-78.8357 157.8 -103.944 132.761 -103.944 101.868C-103.944 70.9749 -78.8357 45.9177 -47.8586 45.9177Z" fill="url(#paint3_linear_5481_122518)"/>
</g>
</g>

</svg>
