<svg width="160" height="160" viewBox="0 0 160 160" xmlns="http://www.w3.org/2000/svg">
  <defs>
<radialGradient id="paint0_radial_5481_122252" cx="0" cy="0" r="1" gradientUnits="userSpaceOnUse" gradientTransform="translate(142.62 105.187) rotate(90) scale(231.011)">
<stop offset="0.0885417" stop-color="#EB1000"/>
<stop offset="1" stop-color="#EB1000" stop-opacity="0"/>
</radialGradient>
<linearGradient id="paint1_linear_5481_122252" x1="115.768" y1="-5.14512" x2="23.108" y2="114.991" gradientUnits="userSpaceOnUse">
<stop stop-color="#FF4885"/>
<stop offset="1" stop-color="#FF4885" stop-opacity="0"/>
</linearGradient>
<linearGradient id="paint2_linear_5481_122252" x1="59.3137" y1="-60.4521" x2="77.1884" y2="53.9458" gradientUnits="userSpaceOnUse">
<stop offset="0.15625" stop-color="#7A6AFD"/>
<stop offset="1" stop-color="#7A6AFD" stop-opacity="0"/>
</linearGradient>
<linearGradient id="paint3_linear_5481_122252" x1="-146.934" y1="169.541" x2="153.819" y2="110.102" gradientUnits="userSpaceOnUse">
<stop stop-color="#30A7FE" stop-opacity="0"/>
<stop offset="0.432292" stop-color="#30A7FE" stop-opacity="0.994652"/>
<stop offset="0.609375" stop-color="#30A7FE"/>
<stop offset="1" stop-color="#30A7FE" stop-opacity="0"/>
</linearGradient>
<clipPath id="clip0_5481_122252">
<rect width="160" height="160" rx="10" fill="white"/>
</clipPath>
</defs>
<clipPath id="mask0_5481_122252">
<path fill-rule="evenodd" d="M92.3389 56.3901C92.3389 61.9505 90.9496 67.1864 88.4991 71.7697C87.9195 72.002 87.3437 72.242 86.7749 72.4889L77.7683 56.2771L77.7033 56.1683C74.1101 50.157 65.5768 45.2505 57.122 49.8339C49.1406 54.1607 46.7392 64.499 51.1343 71.9317L60.6398 89.0416C60.3188 89.051 59.9966 89.0557 59.6733 89.0557C41.6327 89.0557 27.0078 74.4308 27.0078 56.3901C27.0078 38.3495 41.6327 23.7246 59.6733 23.7246C77.714 23.7246 92.3389 38.3495 92.3389 56.3901ZM69.0419 87.6924L82.974 112.77C83.1967 113.171 82.8098 113.63 82.3798 113.471C79.867 112.541 77.0569 111.33 74.1371 110.072C69.3675 108.017 64.3055 105.835 59.7694 104.545C55.1392 103.229 50.7249 105.391 49.5526 109.654C48.403 113.834 49.553 117.316 54.6611 119.87C55.0316 120.056 55.5111 120.3 56.0882 120.595C63.4675 124.361 86.8133 136.276 102.513 136.276C119.441 136.276 132.989 122.554 132.989 105.626C132.989 88.6982 123.523 75.5984 106.596 75.5984C100.135 75.5984 89.2956 79.4212 84.0681 82.9414C83.8202 83.1084 83.4805 83.0318 83.3354 82.7705L70.8369 60.2734C70.7632 60.1501 70.6868 60.0287 70.6079 59.9095C70.5466 59.817 70.4838 59.7257 70.4196 59.6358C68.2169 56.5522 64.2999 55.0427 60.9347 56.867C57.106 58.9426 55.8037 64.2135 58.0656 67.9351L69.0419 87.6924Z" fill="white"/>
</clipPath>
<g clip-path="url(#mask0_5481_122252)">
<g clip-path="url(#clip0_5481_122252)">
<rect width="160" height="160" rx="10" fill="#D9F4FD"/>
<circle cx="142.62" cy="105.187" r="231.011" fill="url(#paint0_radial_5481_122252)"/>
<path d="M-14.3999 50.1137C-16.9679 -5.18932 25.7823 -52.103 81.0853 -54.6709C136.388 -57.2388 183.302 -14.4887 185.87 40.8143C188.438 96.1173 145.688 143.031 90.3846 145.599C35.0817 148.167 -11.832 105.417 -14.3999 50.1137Z" fill="url(#paint1_linear_5481_122252)"/>
<path d="M40.4184 -110.716C27.9428 -118.436 12.1362 -118.483 -0.385738 -110.838L-125.628 -34.3691C-137.894 -26.8797 -137.914 -9.20217 -125.665 -1.68455L-1.25042 74.676C11.2528 82.3487 27.0594 82.3396 39.5518 74.6486L163.71 -1.78335C175.895 -9.28493 175.917 -26.8637 163.748 -34.3936L40.4184 -110.716Z" fill="url(#paint2_linear_5481_122252)"/>
<path d="M-79.7631 76.5289C-53.9489 76.5289 -30.5656 86.9766 -13.6359 103.831C20.2235 137.599 48.2951 137.628 82.1545 103.918C99.0842 86.9766 122.496 76.5 148.34 76.5C199.997 76.5289 241.844 118.262 241.844 169.779C241.844 221.296 199.997 263 148.34 263C122.439 263 99.0263 252.495 82.0966 235.553C48.2661 201.901 20.2235 201.93 -13.6359 235.697C-30.5656 252.581 -53.9489 263 -79.7631 263C-131.392 263 -173.238 221.267 -173.238 169.779C-173.238 118.291 -131.392 76.5289 -79.7631 76.5289Z" fill="url(#paint3_linear_5481_122252)"/>
</g>
</g>

</svg>
