<svg width="160" height="160" viewBox="0 0 160 160" xmlns="http://www.w3.org/2000/svg">
  <defs>
<radialGradient id="paint0_radial_5481_122224" cx="0" cy="0" r="1" gradientUnits="userSpaceOnUse" gradientTransform="translate(142.62 105.187) rotate(90) scale(231.011)">
<stop offset="0.0885417" stop-color="#EB1000"/>
<stop offset="1" stop-color="#EB1000" stop-opacity="0"/>
</radialGradient>
<linearGradient id="paint1_linear_5481_122224" x1="115.768" y1="-5.14512" x2="23.108" y2="114.991" gradientUnits="userSpaceOnUse">
<stop stop-color="#FF4885"/>
<stop offset="1" stop-color="#FF4885" stop-opacity="0"/>
</linearGradient>
<linearGradient id="paint2_linear_5481_122224" x1="59.3137" y1="-60.4521" x2="77.1884" y2="53.9458" gradientUnits="userSpaceOnUse">
<stop offset="0.15625" stop-color="#7A6AFD"/>
<stop offset="1" stop-color="#7A6AFD" stop-opacity="0"/>
</linearGradient>
<linearGradient id="paint3_linear_5481_122224" x1="-146.934" y1="169.541" x2="153.819" y2="110.102" gradientUnits="userSpaceOnUse">
<stop stop-color="#30A7FE" stop-opacity="0"/>
<stop offset="0.432292" stop-color="#30A7FE" stop-opacity="0.994652"/>
<stop offset="0.609375" stop-color="#30A7FE"/>
<stop offset="1" stop-color="#30A7FE" stop-opacity="0"/>
</linearGradient>
<clipPath id="clip0_5481_122224">
<rect width="160" height="160" rx="10" fill="white"/>
</clipPath>
</defs>
<clipPath id="mask0_5481_122224">
<path fill-rule="evenodd" d="M120.637 37.1442C124.63 29.9036 135.643 32.7387 135.643 41.0072V123.719C135.643 130.347 130.27 135.719 123.643 135.719H36C29.3726 135.719 24 130.347 24 123.719V79.9943C24 77.7914 24.9083 75.6861 26.5107 74.1746L43.5424 58.1099C46.8545 54.9858 52.1024 55.2519 55.0815 58.695L67.3915 72.9227L83.4916 48.0222C86.4378 43.4655 92.9694 43.1016 96.4036 47.3028L107.53 60.9141L120.637 37.1442L124.14 39.0757L124.179 39.0972M124.14 39.0757L120.637 37.1442ZM127.643 41.0072L114.535 64.7771C111.801 69.7365 104.92 70.3621 101.336 65.9772L90.2096 52.3659L74.1095 77.2664C71.2141 81.7445 64.8308 82.1898 61.3417 78.1572L49.0316 63.9295L32 79.9943V104.134L48.1186 93.7483C50.5988 92.1502 53.8149 92.279 56.1595 94.0702L72.428 106.499L92.3579 83.315C95.0134 80.2259 99.7354 80.048 102.616 82.9284L116.825 97.1377L127.643 91.9512L127.643 41.0072ZM127.643 100.823L117.729 105.576C116.199 106.31 114.372 105.998 113.172 104.798L97.7215 89.3478L78.1869 112.072C75.5962 115.085 71.1045 115.555 67.9464 113.142L51.8611 100.854L32 113.651V123.719C32 125.929 33.7909 127.719 36 127.719H123.643C125.852 127.719 127.643 125.929 127.643 123.719V100.823Z" fill="#8F8F8F"/>
</clipPath>
<g clip-path="url(#mask0_5481_122224)">
<g clip-path="url(#clip0_5481_122224)">
<rect width="160" height="160" rx="10" fill="#D9F4FD"/>
<circle cx="142.62" cy="105.187" r="231.011" fill="url(#paint0_radial_5481_122224)"/>
<path d="M-14.3999 50.1137C-16.9679 -5.18932 25.7823 -52.103 81.0853 -54.6709C136.388 -57.2388 183.302 -14.4887 185.87 40.8143C188.438 96.1173 145.688 143.031 90.3846 145.599C35.0817 148.167 -11.832 105.417 -14.3999 50.1137Z" fill="url(#paint1_linear_5481_122224)"/>
<path d="M40.4184 -110.716C27.9428 -118.436 12.1362 -118.483 -0.385738 -110.838L-125.628 -34.3691C-137.894 -26.8797 -137.914 -9.20217 -125.665 -1.68455L-1.25042 74.676C11.2528 82.3487 27.0594 82.3396 39.5518 74.6486L163.71 -1.78335C175.895 -9.28493 175.917 -26.8637 163.748 -34.3936L40.4184 -110.716Z" fill="url(#paint2_linear_5481_122224)"/>
<path d="M-79.7631 76.5289C-53.9489 76.5289 -30.5656 86.9766 -13.6359 103.831C20.2235 137.599 48.2951 137.628 82.1545 103.918C99.0842 86.9766 122.496 76.5 148.34 76.5C199.997 76.5289 241.844 118.262 241.844 169.779C241.844 221.296 199.997 263 148.34 263C122.439 263 99.0263 252.495 82.0966 235.553C48.2661 201.901 20.2235 201.93 -13.6359 235.697C-30.5656 252.581 -53.9489 263 -79.7631 263C-131.392 263 -173.238 221.267 -173.238 169.779C-173.238 118.291 -131.392 76.5289 -79.7631 76.5289Z" fill="url(#paint3_linear_5481_122224)"/>
</g>
</g>

</svg>
