<svg width="48" height="48" viewBox="0 0 48 48" xmlns="http://www.w3.org/2000/svg">
  <defs>
<radialGradient id="paint0_radial_5481_122313" cx="0" cy="0" r="1" gradientUnits="userSpaceOnUse" gradientTransform="translate(42.3155 32.5434) rotate(90) scale(56.1841 59.6007)">
<stop offset="0.0885417" stop-color="#EB1000"/>
<stop offset="1" stop-color="#EB1000" stop-opacity="0"/>
</radialGradient>
<linearGradient id="paint1_linear_5481_122313" x1="35.3861" y1="5.7087" x2="13.2214" y2="36.1933" gradientUnits="userSpaceOnUse">
<stop stop-color="#FF4885"/>
<stop offset="1" stop-color="#FF4885" stop-opacity="0"/>
</linearGradient>
<linearGradient id="paint2_linear_5481_122313" x1="20.8219" y1="-7.74192" x2="24.9309" y2="20.1548" gradientUnits="userSpaceOnUse">
<stop offset="0.15625" stop-color="#7A6AFD"/>
<stop offset="1" stop-color="#7A6AFD" stop-opacity="0"/>
</linearGradient>
<linearGradient id="paint3_linear_5481_122313" x1="-32.3902" y1="48.1949" x2="44.84" y2="32.0033" gradientUnits="userSpaceOnUse">
<stop stop-color="#30A7FE" stop-opacity="0"/>
<stop offset="0.432292" stop-color="#30A7FE" stop-opacity="0.994652"/>
<stop offset="0.609375" stop-color="#30A7FE"/>
<stop offset="1" stop-color="#30A7FE" stop-opacity="0"/>
</linearGradient>
<clipPath id="clip0_5481_122313">
<rect x="5.51953" y="6.96094" width="41.2799" height="38.9135" rx="10" fill="white"/>
</clipPath>
</defs>
<clipPath id="mask0_5481_122313">
<path fill-rule="evenodd" d="M37.1904 10.1699C39.8424 10.1699 41.9904 12.3179 41.9904 14.9699V16.1969H5.98438V14.9699C5.98438 12.3179 8.13237 10.1699 10.7844 10.1699H37.1904ZM41.9906 25.9379C41.2166 25.7399 40.4066 25.6349 39.5726 25.6349H39.5696C34.1876 25.6349 29.8106 30.0119 29.8106 35.3939C29.8106 36.2249 29.9156 37.0349 30.1136 37.8059H14.3996V18.5969H41.9906V25.9379ZM5.98438 33.0089C5.98438 35.6609 8.13238 37.8089 10.7844 37.8089H11.9994V18.5999H5.98438V33.0089ZM39.5729 28.0379C40.4189 28.0379 41.2319 28.1819 41.9909 28.4459H41.9939C44.8709 29.4479 46.9349 32.1809 46.9349 35.3969C46.9349 39.4619 43.6409 42.7559 39.5759 42.7559C36.3569 42.7559 33.6209 40.6889 32.6219 37.8089C32.3579 37.0529 32.2139 36.2429 32.2139 35.3969C32.2139 31.3319 35.5079 28.0379 39.5729 28.0379ZM40.7759 36.5819H43.1399C43.8029 36.5819 44.3399 36.0449 44.3399 35.3819C44.3399 34.7189 43.8029 34.1819 43.1399 34.1819H40.7759V31.8179C40.7759 31.1549 40.2389 30.6179 39.5759 30.6179C38.9129 30.6179 38.3759 31.1549 38.3759 31.8179V34.1819H36.0119C35.3489 34.1819 34.8119 34.7189 34.8119 35.3819C34.8119 36.0449 35.3489 36.5819 36.0119 36.5819H38.3759V38.9459C38.3759 39.6089 38.9129 40.1459 39.5759 40.1459C40.2389 40.1459 40.7759 39.6089 40.7759 38.9459V36.5819Z" fill="white"/>
</clipPath>
<g clip-path="url(#mask0_5481_122313)">
<g clip-path="url(#clip0_5481_122313)">
<rect x="5.51953" y="6.96094" width="41.2799" height="38.9135" rx="10" fill="#D9F4FD"/>
<ellipse cx="42.3155" cy="32.5434" rx="59.6007" ry="56.1841" fill="url(#paint0_radial_5481_122313)"/>
<path d="M1.8028 19.1482C1.14027 5.69795 12.1698 -5.71189 26.4379 -6.33644C40.706 -6.96099 52.8097 3.43626 53.4723 16.8865C54.1348 30.3367 43.1053 41.7465 28.8371 42.3711C14.569 42.9956 2.46533 32.5984 1.8028 19.1482Z" fill="url(#paint1_linear_5481_122313)"/>
<path d="M15.947 -19.9666C12.7283 -21.8441 8.65019 -21.8556 5.41953 -19.9963L-26.8929 -1.39829C-30.0575 0.423186 -30.0628 4.72254 -26.9025 6.5509L5.19644 25.1225C8.42226 26.9886 12.5004 26.9864 15.7234 25.1159L47.7562 6.52687C50.8998 4.70241 50.9055 0.427085 47.7658 -1.40426L15.947 -19.9666Z" fill="url(#paint2_linear_5481_122313)"/>
<path d="M-15.0603 25.5734C-8.40022 25.5734 -2.36735 28.1144 2.0005 32.2137C10.7362 40.4262 17.9786 40.4332 26.7144 32.2347C31.0822 28.1144 37.1225 25.5664 43.7901 25.5664C57.1176 25.5734 67.9141 35.7233 67.9141 48.2527C67.9141 60.7821 57.1176 70.925 43.7901 70.925C37.1076 70.925 31.0673 68.37 26.6994 64.2496C17.9712 56.0652 10.7362 56.0722 2.0005 64.2847C-2.36735 68.391 -8.40022 70.925 -15.0603 70.925C-28.3804 70.925 -39.1768 60.7751 -39.1768 48.2527C-39.1768 35.7303 -28.3804 25.5734 -15.0603 25.5734Z" fill="url(#paint3_linear_5481_122313)"/>
</g>
</g>

</svg>
