<svg width="160" height="160" viewBox="0 0 160 160" xmlns="http://www.w3.org/2000/svg">
  <defs>
<radialGradient id="paint0_radial_5481_122214" cx="0" cy="0" r="1" gradientUnits="userSpaceOnUse" gradientTransform="translate(142.62 105.187) rotate(90) scale(231.011)">
<stop offset="0.0885417" stop-color="#EB1000"/>
<stop offset="1" stop-color="#EB1000" stop-opacity="0"/>
</radialGradient>
<linearGradient id="paint1_linear_5481_122214" x1="115.768" y1="-5.14512" x2="23.108" y2="114.991" gradientUnits="userSpaceOnUse">
<stop stop-color="#FF4885"/>
<stop offset="1" stop-color="#FF4885" stop-opacity="0"/>
</linearGradient>
<linearGradient id="paint2_linear_5481_122214" x1="59.3137" y1="-60.4521" x2="77.1884" y2="53.9458" gradientUnits="userSpaceOnUse">
<stop offset="0.15625" stop-color="#7A6AFD"/>
<stop offset="1" stop-color="#7A6AFD" stop-opacity="0"/>
</linearGradient>
<linearGradient id="paint3_linear_5481_122214" x1="-146.934" y1="169.541" x2="153.819" y2="110.102" gradientUnits="userSpaceOnUse">
<stop stop-color="#30A7FE" stop-opacity="0"/>
<stop offset="0.432292" stop-color="#30A7FE" stop-opacity="0.994652"/>
<stop offset="0.609375" stop-color="#30A7FE"/>
<stop offset="1" stop-color="#30A7FE" stop-opacity="0"/>
</linearGradient>
<clipPath id="clip0_5481_122214">
<rect width="160" height="160" rx="10" fill="white"/>
</clipPath>
</defs>
<clipPath id="mask0_5481_122214">
<path fill-rule="evenodd" d="M56.9331 48.0449L56.9407 48.0449L65.392 62.683C61.4325 66.0274 58.6342 70.7036 57.6881 76.0205H40.8048C39.4246 73.618 36.8329 72 33.8633 72C29.445 72 25.8633 75.5817 25.8633 80C25.8633 84.4183 29.445 88 33.8633 88C36.8159 88 39.395 86.4004 40.7811 84.0205H57.6878C58.6335 89.3381 61.4319 94.0148 65.3917 97.3595L56.9644 111.956L56.9331 111.956C52.5148 111.956 48.9331 115.538 48.9331 119.956C48.9331 124.374 52.5148 127.956 56.9331 127.956C61.3514 127.956 64.9331 124.374 64.9331 119.956C64.9331 118.51 64.5492 117.153 63.8777 115.982L72.3168 101.365C74.7224 102.233 77.3168 102.707 80.0219 102.707C82.7268 102.707 85.3212 102.233 87.7266 101.365L96.1454 115.947C95.4614 117.126 95.0698 118.495 95.0698 119.956C95.0698 124.374 98.6515 127.956 103.07 127.956C107.488 127.956 111.07 124.374 111.07 119.956C111.07 115.541 107.493 111.961 103.079 111.956L94.6518 97.3598C98.6118 94.015 101.41 89.3382 102.356 84.0205L119.221 84.0205C120.607 86.4004 123.187 88 126.139 88C130.557 88 134.139 84.4183 134.139 80C134.139 75.5817 130.557 72 126.139 72C123.17 72 120.578 73.618 119.198 76.0205L102.356 76.0205C101.41 70.7033 98.611 66.0269 94.6511 62.6825L103.102 48.0449C107.506 48.0274 111.07 44.4524 111.07 40.0449C111.07 35.6266 107.488 32.0449 103.07 32.0449C98.6515 32.0449 95.0698 35.6266 95.0698 40.0449C95.0698 41.5141 95.4659 42.8908 96.157 44.0741L87.7258 58.6775C85.3206 57.8092 82.7265 57.3359 80.0219 57.3359C77.317 57.3359 74.7227 57.8093 72.3172 58.6778L63.8659 44.0397C64.5447 42.8642 64.9331 41.4999 64.9331 40.0449C64.9331 35.6266 61.3514 32.0449 56.9331 32.0449C52.5148 32.0449 48.9331 35.6266 48.9331 40.0449C48.9331 44.4632 52.5148 48.0449 56.9331 48.0449Z" fill="white"/>
</clipPath>
<g clip-path="url(#mask0_5481_122214)">
<g clip-path="url(#clip0_5481_122214)">
<rect width="160" height="160" rx="10" fill="#D9F4FD"/>
<circle cx="142.62" cy="105.187" r="231.011" fill="url(#paint0_radial_5481_122214)"/>
<path d="M-14.3999 50.1137C-16.9679 -5.18932 25.7823 -52.103 81.0853 -54.6709C136.388 -57.2388 183.302 -14.4887 185.87 40.8143C188.438 96.1173 145.688 143.031 90.3846 145.599C35.0817 148.167 -11.832 105.417 -14.3999 50.1137Z" fill="url(#paint1_linear_5481_122214)"/>
<path d="M40.4184 -110.716C27.9428 -118.436 12.1362 -118.483 -0.385738 -110.838L-125.628 -34.3691C-137.894 -26.8797 -137.914 -9.20217 -125.665 -1.68455L-1.25042 74.676C11.2528 82.3487 27.0594 82.3396 39.5518 74.6486L163.71 -1.78335C175.895 -9.28493 175.917 -26.8637 163.748 -34.3936L40.4184 -110.716Z" fill="url(#paint2_linear_5481_122214)"/>
<path d="M-79.7631 76.5289C-53.9489 76.5289 -30.5656 86.9766 -13.6359 103.831C20.2235 137.599 48.2951 137.628 82.1545 103.918C99.0842 86.9766 122.496 76.5 148.34 76.5C199.997 76.5289 241.844 118.262 241.844 169.779C241.844 221.296 199.997 263 148.34 263C122.439 263 99.0263 252.495 82.0966 235.553C48.2661 201.901 20.2235 201.93 -13.6359 235.697C-30.5656 252.581 -53.9489 263 -79.7631 263C-131.392 263 -173.238 221.267 -173.238 169.779C-173.238 118.291 -131.392 76.5289 -79.7631 76.5289Z" fill="url(#paint3_linear_5481_122214)"/>
</g>
</g>

</svg>
