<svg width="48" height="48" viewBox="0 0 48 48" xmlns="http://www.w3.org/2000/svg">
  <defs>
<radialGradient id="paint0_radial_5481_122424" cx="0" cy="0" r="1" gradientUnits="userSpaceOnUse" gradientTransform="translate(42.7877 31.5552) rotate(90) scale(69.3033)">
<stop offset="0.0885417" stop-color="#EB1000"/>
<stop offset="1" stop-color="#EB1000" stop-opacity="0"/>
</radialGradient>
<linearGradient id="paint1_linear_5481_122424" x1="34.7309" y1="-1.54315" x2="6.93278" y2="34.4977" gradientUnits="userSpaceOnUse">
<stop stop-color="#FF4885"/>
<stop offset="1" stop-color="#FF4885" stop-opacity="0"/>
</linearGradient>
<linearGradient id="paint2_linear_5481_122424" x1="17.7929" y1="-18.1348" x2="23.1553" y2="16.1845" gradientUnits="userSpaceOnUse">
<stop offset="0.15625" stop-color="#7A6AFD"/>
<stop offset="1" stop-color="#7A6AFD" stop-opacity="0"/>
</linearGradient>
<linearGradient id="paint3_linear_5481_122424" x1="-44.0785" y1="50.8616" x2="46.1473" y2="33.0298" gradientUnits="userSpaceOnUse">
<stop stop-color="#30A7FE" stop-opacity="0"/>
<stop offset="0.432292" stop-color="#30A7FE" stop-opacity="0.994652"/>
<stop offset="0.609375" stop-color="#30A7FE"/>
<stop offset="1" stop-color="#30A7FE" stop-opacity="0"/>
</linearGradient>
<clipPath id="clip0_5481_122424">
<rect width="48" height="48" rx="10" fill="white"/>
</clipPath>
</defs>
<clipPath id="mask0_5481_122424">
<path fill-rule="evenodd" d="M25.2354 7.0625L25.2881 7.06637C27.2292 9.36853 28.7226 11.8161 29.7761 14.3464L25.2354 14.3464V7.0625ZM28.9743 7.75839C30.4574 9.87382 31.6192 12.0826 32.4654 14.3464L37.973 14.3464C35.8238 11.2416 32.6664 8.88777 28.9743 7.75839ZM25.2354 16.8464H30.6668C31.2623 18.8466 31.5945 20.8844 31.6669 22.9304H25.2354V16.8464ZM33.2666 16.8464C33.8044 18.8516 34.1039 20.888 34.1687 22.9304H40.9491C40.8146 20.7678 40.2754 18.7148 39.4062 16.8464H33.2666ZM25.2354 25.4304H31.6266C31.4885 27.4737 31.0934 29.5134 30.4447 31.5202H25.2354V25.4304ZM22.7354 31.5202V25.4304H16.3446C16.4827 27.4737 16.8779 29.5134 17.5265 31.5202H22.7354ZM18.4738 34.0202H22.7354V40.7819C22.7354 40.8345 22.7386 40.8863 22.7449 40.9372L22.6931 40.9333C20.9225 38.729 19.5139 36.4075 18.4738 34.0202ZM14.9129 31.5202C14.3248 29.5117 13.9659 27.4733 13.84 25.4304H7.07694C7.25798 27.6021 7.84769 29.6578 8.76895 31.5202H14.9129ZM10.287 34.0202H15.7698C16.6115 36.1586 17.719 38.2497 19.0873 40.2615C15.5151 39.1837 12.4394 36.9611 10.287 34.0202ZM25.2354 34.0202H29.4974C28.457 36.4083 27.0478 38.7306 25.2763 40.9356L25.2256 40.9393C25.232 40.8878 25.2354 40.8352 25.2354 40.7819V34.0202ZM32.2014 34.0202C31.3582 36.1625 30.2483 38.2572 28.8766 40.2723C32.4641 39.1986 35.5532 36.971 37.7129 34.0202H32.2014ZM39.2309 31.5202C40.1521 29.6578 40.7419 27.6021 40.9229 25.4304H34.1312C34.0054 27.4733 33.6464 29.5117 33.0583 31.5202H39.2309ZM18.9891 7.7696C15.3126 8.90329 12.1689 11.2518 10.0268 14.3464L15.5058 14.3464C16.3506 12.0866 17.5098 9.88162 18.9891 7.7696ZM14.7046 16.8464H8.75003C8.69852 16.8464 8.64774 16.8433 8.59787 16.8372C7.72625 18.7081 7.18548 20.7642 7.05078 22.9304H13.8025C13.8674 20.8881 14.1668 18.8516 14.7046 16.8464ZM16.3043 22.9304C16.3767 20.8844 16.7089 18.8466 17.3044 16.8464H22.7354V22.9304H16.3043ZM18.1951 14.3464C19.2483 11.8169 20.741 9.37018 22.6811 7.06869L22.7354 7.06462V14.3464L18.1951 14.3464Z" fill="white"/>
</clipPath>
<g clip-path="url(#mask0_5481_122424)">
<g clip-path="url(#clip0_5481_122424)">
<rect width="48" height="48" rx="10" fill="#D9F4FD"/>
<circle cx="42.7877" cy="31.5552" r="69.3033" fill="url(#paint0_radial_5481_122424)"/>
<path d="M-4.31959 15.0345C-5.08998 -1.55641 7.73508 -15.6305 24.326 -16.4009C40.9169 -17.1713 54.991 -4.34621 55.7613 12.2447C56.5317 28.8356 43.7067 42.9097 27.1158 43.6801C10.5249 44.4504 -3.54921 31.6254 -4.31959 15.0345Z" fill="url(#paint1_linear_5481_122424)"/>
<path d="M12.1243 -33.214C8.38167 -35.53 3.6397 -35.5442 -0.116893 -33.2506L-37.6896 -10.3099C-41.3694 -8.06314 -41.3755 -2.75987 -37.7007 -0.504581L-0.376298 22.4036C3.37467 24.7054 8.11665 24.7027 11.8644 22.3954L49.1119 -0.534222C52.7672 -2.7847 52.7739 -8.05833 49.1231 -10.3173L12.1243 -33.214Z" fill="url(#paint2_linear_5481_122424)"/>
<path d="M-23.9274 22.9579C-16.1831 22.9579 -9.16812 26.0922 -4.0892 31.1486C6.06863 41.2789 14.4901 41.2875 24.6479 31.1746C29.7268 26.0922 36.7505 22.9492 44.5034 22.9492C60.0006 22.9579 72.5547 35.4778 72.5547 50.9329C72.5547 66.388 60.0006 78.8992 44.5034 78.8992C36.7331 78.8992 29.7095 75.7476 24.6306 70.6652C14.4814 60.5696 6.06863 60.5782 -4.0892 70.7085C-9.16812 75.7736 -16.1831 78.8992 -23.9274 78.8992C-39.4159 78.8992 -51.9699 66.3793 -51.9699 50.9329C-51.9699 35.4865 -39.4159 22.9579 -23.9274 22.9579Z" fill="url(#paint3_linear_5481_122424)"/>
</g>
</g>

</svg>
