<svg width="160" height="160" viewBox="0 0 160 160" xmlns="http://www.w3.org/2000/svg">
  <defs>
<radialGradient id="paint0_radial_5481_122208" cx="0" cy="0" r="1" gradientUnits="userSpaceOnUse" gradientTransform="translate(142.62 105.187) rotate(90) scale(231.011)">
<stop offset="0.0885417" stop-color="#EB1000"/>
<stop offset="1" stop-color="#EB1000" stop-opacity="0"/>
</radialGradient>
<linearGradient id="paint1_linear_5481_122208" x1="115.768" y1="-5.14512" x2="23.108" y2="114.991" gradientUnits="userSpaceOnUse">
<stop stop-color="#FF4885"/>
<stop offset="1" stop-color="#FF4885" stop-opacity="0"/>
</linearGradient>
<linearGradient id="paint2_linear_5481_122208" x1="59.3137" y1="-60.4521" x2="77.1884" y2="53.9458" gradientUnits="userSpaceOnUse">
<stop offset="0.15625" stop-color="#7A6AFD"/>
<stop offset="1" stop-color="#7A6AFD" stop-opacity="0"/>
</linearGradient>
<linearGradient id="paint3_linear_5481_122208" x1="-146.934" y1="169.541" x2="153.819" y2="110.102" gradientUnits="userSpaceOnUse">
<stop stop-color="#30A7FE" stop-opacity="0"/>
<stop offset="0.432292" stop-color="#30A7FE" stop-opacity="0.994652"/>
<stop offset="0.609375" stop-color="#30A7FE"/>
<stop offset="1" stop-color="#30A7FE" stop-opacity="0"/>
</linearGradient>
<clipPath id="clip0_5481_122208">
<rect width="160" height="160" rx="10" fill="white"/>
</clipPath>
</defs>
<clipPath id="mask0_5481_122208">
<path fill-rule="evenodd" d="M28.25 41.3828C28.25 35.86 32.7272 31.3828 38.25 31.3828H104.79C110.313 31.3828 114.79 35.86 114.79 41.3828V61.127H82.2622C76.8948 61.127 72.0761 63.4762 68.7782 67.2026L64.225 59.7041L64.214 59.6861C60.6327 53.8577 52.1947 53.7649 48.4862 59.5132L48.4779 59.526L28.7242 90.4024C28.4163 89.4403 28.25 88.4149 28.25 87.3506V41.3828ZM64.2622 79.1269V97.3506H38.25C36.8455 97.3506 35.5086 97.061 34.2958 96.5384L55.2086 63.8502L55.2114 63.8458C55.7278 63.0521 56.8944 63.0643 57.3942 63.8681L57.3979 63.8742L64.5858 75.7118C64.3734 76.8176 64.2622 77.9593 64.2622 79.1269ZM94.1682 57.1562C97.4819 57.1562 100.168 54.47 100.168 51.1563C100.168 47.8425 97.4819 45.1562 94.1682 45.1562C90.8545 45.1562 88.1682 47.8425 88.1682 51.1563C88.1682 54.47 90.8545 57.1562 94.1682 57.1562ZM72.2622 79.1269C72.2622 73.6041 76.7394 69.127 82.2622 69.127H121.75C127.273 69.127 131.75 73.6041 131.75 79.127V118.615C131.75 124.138 127.273 128.615 121.75 128.615H82.2622C76.7394 128.615 72.2622 124.138 72.2622 118.615V79.1269ZM114.845 96.8927L95.3376 85.7038C93.153 84.4507 90.4184 86.0106 90.4154 88.5116L90.3884 110.843C90.3854 113.344 93.1162 114.91 95.3039 113.663L114.838 102.52C117.025 101.272 117.029 98.1457 114.845 96.8927Z" fill="white"/>
</clipPath>
<g clip-path="url(#mask0_5481_122208)">
<g clip-path="url(#clip0_5481_122208)">
<rect width="160" height="160" rx="10" fill="#D9F4FD"/>
<circle cx="142.62" cy="105.187" r="231.011" fill="url(#paint0_radial_5481_122208)"/>
<path d="M-14.3999 50.1137C-16.9679 -5.18932 25.7823 -52.103 81.0853 -54.6709C136.388 -57.2388 183.302 -14.4887 185.87 40.8143C188.438 96.1173 145.688 143.031 90.3846 145.599C35.0817 148.167 -11.832 105.417 -14.3999 50.1137Z" fill="url(#paint1_linear_5481_122208)"/>
<path d="M40.4184 -110.716C27.9428 -118.436 12.1362 -118.483 -0.385738 -110.838L-125.628 -34.3691C-137.894 -26.8797 -137.914 -9.20217 -125.665 -1.68455L-1.25042 74.676C11.2528 82.3487 27.0594 82.3396 39.5518 74.6486L163.71 -1.78335C175.895 -9.28493 175.917 -26.8637 163.748 -34.3936L40.4184 -110.716Z" fill="url(#paint2_linear_5481_122208)"/>
<path d="M-79.7631 76.5289C-53.9489 76.5289 -30.5656 86.9766 -13.6359 103.831C20.2235 137.599 48.2951 137.628 82.1545 103.918C99.0842 86.9766 122.496 76.5 148.34 76.5C199.997 76.5289 241.844 118.262 241.844 169.779C241.844 221.296 199.997 263 148.34 263C122.439 263 99.0263 252.495 82.0966 235.553C48.2661 201.901 20.2235 201.93 -13.6359 235.697C-30.5656 252.581 -53.9489 263 -79.7631 263C-131.392 263 -173.238 221.267 -173.238 169.779C-173.238 118.291 -131.392 76.5289 -79.7631 76.5289Z" fill="url(#paint3_linear_5481_122208)"/>
</g>
</g>

</svg>
