<svg width="48" height="48" viewBox="0 0 48 48" xmlns="http://www.w3.org/2000/svg">
  <defs>
<radialGradient id="paint0_radial_5481_122311" cx="0" cy="0" r="1" gradientUnits="userSpaceOnUse" gradientTransform="translate(40.5083 30.1919) rotate(90) scale(63.6724)">
<stop offset="0.0885417" stop-color="#EB1000"/>
<stop offset="1" stop-color="#EB1000" stop-opacity="0"/>
</radialGradient>
<linearGradient id="paint1_linear_5481_122311" x1="33.1076" y1="-0.218428" x2="7.56812" y2="32.8941" gradientUnits="userSpaceOnUse">
<stop stop-color="#FF4885"/>
<stop offset="1" stop-color="#FF4885" stop-opacity="0"/>
</linearGradient>
<linearGradient id="paint2_linear_5481_122311" x1="17.5487" y1="-15.4629" x2="22.4754" y2="16.068" gradientUnits="userSpaceOnUse">
<stop offset="0.15625" stop-color="#7A6AFD"/>
<stop offset="1" stop-color="#7A6AFD" stop-opacity="0"/>
</linearGradient>
<linearGradient id="paint3_linear_5481_122311" x1="-39.2974" y1="47.9296" x2="43.5976" y2="31.5467" gradientUnits="userSpaceOnUse">
<stop stop-color="#30A7FE" stop-opacity="0"/>
<stop offset="0.432292" stop-color="#30A7FE" stop-opacity="0.994652"/>
<stop offset="0.609375" stop-color="#30A7FE"/>
<stop offset="1" stop-color="#30A7FE" stop-opacity="0"/>
</linearGradient>
<clipPath id="clip0_5481_122311">
<rect x="1.19922" y="1.19922" width="44.1" height="44.1" rx="10" fill="white"/>
</clipPath>
</defs>
<clipPath id="mask0_5481_122311">
<path fill-rule="evenodd" d="M15.5228 6.58008H23.744C24.5873 6.58008 25.3959 6.91505 25.9922 7.5113L34.7278 16.2469C35.324 16.8431 35.659 17.6518 35.659 18.495V30.9555C35.659 32.7114 34.2355 34.1349 32.4796 34.1349H15.5228C13.7668 34.1349 12.3434 32.7114 12.3434 30.9555V9.75948C12.3434 8.00354 13.7668 6.58008 15.5228 6.58008ZM24.8219 15.7677C24.8232 15.1824 24.3498 14.7068 23.7645 14.7055C23.1792 14.7042 22.7036 15.1776 22.7023 15.7629L22.6789 26.2577L19.096 23.408C18.6379 23.0437 17.9712 23.1197 17.6068 23.5777C17.2425 24.0358 17.3185 24.7025 17.7766 25.0669L23.1144 29.3124C23.5027 29.6213 24.0535 29.6193 24.4397 29.3076L29.6999 25.0622C30.1553 24.6945 30.2266 24.0273 29.859 23.5718C29.4914 23.1164 28.8241 23.0451 28.3687 23.4127L24.7984 26.2943L24.8219 15.7677ZM6.72078 22.6573C6.72078 22.1271 7.15059 21.6973 7.68078 21.6973H9.44511C9.9753 21.6973 10.4051 21.2675 10.4051 20.7373C10.4051 20.2071 9.9753 19.7773 9.44511 19.7773H7.68078C6.0902 19.7773 4.80078 21.0667 4.80078 22.6573V24.3178C4.80078 24.848 5.23059 25.2778 5.76078 25.2778C6.29097 25.2778 6.72078 24.848 6.72078 24.3178V22.6573ZM38.5565 19.7773C38.0263 19.7773 37.5965 20.2071 37.5965 20.7373C37.5965 21.2675 38.0263 21.6973 38.5565 21.6973H40.3208C40.851 21.6973 41.2808 22.1271 41.2808 22.6573V24.3178C41.2808 24.848 41.7106 25.2778 42.2408 25.2778C42.771 25.2778 43.2008 24.848 43.2008 24.3178V22.6573C43.2008 21.0667 41.9114 19.7773 40.3208 19.7773H38.5565ZM43.2008 28.6767C43.2008 28.1466 42.771 27.7167 42.2408 27.7167C41.7106 27.7167 41.2808 28.1466 41.2808 28.6767V31.9978C41.2808 32.528 41.7106 32.9578 42.2408 32.9578C42.771 32.9578 43.2008 32.528 43.2008 31.9978V28.6767ZM6.72078 28.6767C6.72078 28.1466 6.29097 27.7167 5.76078 27.7167C5.23059 27.7167 4.80078 28.1466 4.80078 28.6767V31.9978C4.80078 32.528 5.23059 32.9578 5.76078 32.9578C6.29097 32.9578 6.72078 32.528 6.72078 31.9978V28.6767ZM6.72078 36.3567C6.72078 35.8266 6.29097 35.3967 5.76078 35.3967C5.23059 35.3967 4.80078 35.8266 4.80078 36.3567V38.0173C4.80078 39.6079 6.0902 40.8973 7.68078 40.8973H9.4451C9.9753 40.8973 10.4051 40.4675 10.4051 39.9373C10.4051 39.4071 9.9753 38.9773 9.4451 38.9773H7.68078C7.15059 38.9773 6.72078 38.5475 6.72078 38.0173V36.3567ZM43.2008 36.3567C43.2008 35.8266 42.771 35.3967 42.2408 35.3967C41.7106 35.3967 41.2808 35.8266 41.2808 36.3567V38.0173C41.2808 38.5475 40.851 38.9773 40.3208 38.9773H38.5565C38.0263 38.9773 37.5965 39.4071 37.5965 39.9373C37.5965 40.4675 38.0263 40.8973 38.5565 40.8973H40.3208C41.9114 40.8973 43.2008 39.6079 43.2008 38.0173V36.3567ZM14.0765 38.9773C13.5463 38.9773 13.1165 39.4071 13.1165 39.9373C13.1165 40.4675 13.5463 40.8973 14.0765 40.8973H17.6051C18.1353 40.8973 18.5651 40.4675 18.5651 39.9373C18.5651 39.4071 18.1353 38.9773 17.6051 38.9773H14.0765ZM22.2365 38.9773C21.7063 38.9773 21.2765 39.4071 21.2765 39.9373C21.2765 40.4675 21.7063 40.8973 22.2365 40.8973H25.7651C26.2953 40.8973 26.7251 40.4675 26.7251 39.9373C26.7251 39.4071 26.2953 38.9773 25.7651 38.9773H22.2365ZM30.3965 38.9773C29.8663 38.9773 29.4365 39.4071 29.4365 39.9373C29.4365 40.4675 29.8663 40.8973 30.3965 40.8973H33.9251C34.4553 40.8973 34.8851 40.4675 34.8851 39.9373C34.8851 39.4071 34.4553 38.9773 33.9251 38.9773H30.3965Z" fill="white"/>
</clipPath>
<g clip-path="url(#mask0_5481_122311)">
<g clip-path="url(#clip0_5481_122311)">
<rect x="1.19922" y="1.19922" width="44.1" height="44.1" rx="10" fill="#D9F4FD"/>
<circle cx="40.5083" cy="30.1919" r="63.6724" fill="url(#paint0_radial_5481_122311)"/>
<path d="M-2.77 15.0123C-3.47779 -0.230608 8.30524 -13.1612 23.5481 -13.869C38.791 -14.5768 51.7216 -2.79374 52.4294 12.4491C53.1372 27.692 41.3541 40.6226 26.1113 41.3304C10.8684 42.0382 -2.06221 30.2552 -2.77 15.0123Z" fill="url(#paint1_linear_5481_122311)"/>
<path d="M12.3407 -29.3169C8.90213 -31.4447 4.54544 -31.4577 1.09407 -29.3505L-33.4258 -8.27377C-36.8066 -6.20952 -36.8123 -1.33714 -33.4361 0.734902L0.855743 21.7818C4.30194 23.8966 8.65864 23.8941 12.1019 21.7742L46.3231 0.707669C49.6814 -1.35996 49.6875 -6.20511 46.3333 -8.28053L12.3407 -29.3169Z" fill="url(#paint2_linear_5481_122311)"/>
<path d="M-20.7835 22.2931C-13.6685 22.2931 -7.22346 25.1728 -2.55721 29.8184C6.7753 39.1255 14.5125 39.1335 23.845 29.8422C28.5113 25.1728 34.9643 22.2852 42.0873 22.2852C56.3253 22.2931 67.8594 33.7958 67.8594 47.9951C67.8594 62.1945 56.3253 73.6892 42.0873 73.6892C34.9483 73.6892 28.4953 70.7937 23.8291 66.1242C14.5045 56.8489 6.7753 56.8568 -2.55721 66.164C-7.22346 70.8175 -13.6685 73.6892 -20.7835 73.6892C-35.0136 73.6892 -46.5476 62.1866 -46.5476 47.9951C-46.5476 33.8037 -35.0136 22.2931 -20.7835 22.2931Z" fill="url(#paint3_linear_5481_122311)"/>
</g>
</g>

</svg>
