<svg width="48" height="48" viewBox="0 0 48 48" xmlns="http://www.w3.org/2000/svg">
  <defs>
<radialGradient id="paint0_radial_5481_122291" cx="0" cy="0" r="1" gradientUnits="userSpaceOnUse" gradientTransform="translate(40.625 30.5381) rotate(90) scale(59.9687 59.9688)">
<stop offset="0.0885417" stop-color="#EB1000"/>
<stop offset="1" stop-color="#EB1000" stop-opacity="0"/>
</radialGradient>
<linearGradient id="paint1_linear_5481_122291" x1="33.6537" y1="1.89627" x2="9.59978" y2="33.0828" gradientUnits="userSpaceOnUse">
<stop stop-color="#FF4885"/>
<stop offset="1" stop-color="#FF4885" stop-opacity="0"/>
</linearGradient>
<linearGradient id="paint2_linear_5481_122291" x1="18.9985" y1="-12.4607" x2="23.6386" y2="17.2361" gradientUnits="userSpaceOnUse">
<stop offset="0.15625" stop-color="#7A6AFD"/>
<stop offset="1" stop-color="#7A6AFD" stop-opacity="0"/>
</linearGradient>
<linearGradient id="paint3_linear_5481_122291" x1="-34.5409" y1="47.2436" x2="43.5323" y2="31.8136" gradientUnits="userSpaceOnUse">
<stop stop-color="#30A7FE" stop-opacity="0"/>
<stop offset="0.432292" stop-color="#30A7FE" stop-opacity="0.994652"/>
<stop offset="0.609375" stop-color="#30A7FE"/>
<stop offset="1" stop-color="#30A7FE" stop-opacity="0"/>
</linearGradient>
<clipPath id="clip0_5481_122291">
<rect x="3.60156" y="3.23242" width="41.5348" height="41.5348" rx="10" fill="white"/>
</clipPath>
</defs>
<clipPath id="mask0_5481_122291">
<path fill-rule="evenodd" d="M26.2552 9.4548L36.1464 19.346C36.8215 20.0211 37.2008 20.9368 37.2008 21.8916V36.0004C37.2008 37.9886 35.589 39.6004 33.6008 39.6004H14.4008C12.4125 39.6004 10.8008 37.9886 10.8008 36.0004V12.0004C10.8008 10.0122 12.4125 8.40039 14.4008 8.40039H23.7096C24.6644 8.40039 25.5801 8.77967 26.2552 9.4548ZM28.3506 20.4004C27.108 20.4004 26.1006 21.4077 26.1006 22.6504C26.1006 23.893 27.108 24.9004 28.3506 24.9004C29.5933 24.9004 30.6006 23.893 30.6006 22.6504C30.6006 21.4077 29.5933 20.4004 28.3506 20.4004ZM16.2022 34.8004H31.7991C32.2685 34.8004 32.5561 34.2858 32.3101 33.886L28.9541 28.431C28.7198 28.0502 28.1663 28.0502 27.932 28.431L25.2873 32.7299L21.3598 26.0702C21.1274 25.6784 20.5602 25.6784 20.3278 26.0702L15.6861 33.8943C15.4489 34.2942 15.7371 34.8004 16.2022 34.8004Z" fill="white"/>
</clipPath>
<g clip-path="url(#mask0_5481_122291)">
<g clip-path="url(#clip0_5481_122291)">
<rect x="3.60156" y="3.23242" width="41.5348" height="41.5348" rx="10" fill="#D9F4FD"/>
<ellipse cx="40.625" cy="30.5381" rx="59.9688" ry="59.9687" fill="url(#paint0_radial_5481_122291)"/>
<path d="M-0.136995 16.241C-0.803614 1.88479 10.294 -10.2936 24.6503 -10.9603C39.0065 -11.6269 51.185 -0.529246 51.8516 13.827C52.5182 28.1833 41.4206 40.3617 27.0643 41.0283C12.7081 41.6949 0.529624 30.5973 -0.136995 16.241Z" fill="url(#paint1_linear_5481_122291)"/>
<path d="M14.0934 -25.5089C10.8548 -27.5129 6.75157 -27.5252 3.50096 -25.5406L-29.011 -5.68978C-32.1952 -3.74561 -32.2005 0.843361 -29.0207 2.79488L3.27649 22.6175C6.52224 24.6093 10.6255 24.6069 13.8685 22.6104L46.0991 2.76923C49.2621 0.821877 49.2678 -3.74144 46.1087 -5.69615L14.0934 -25.5089Z" fill="url(#paint2_linear_5481_122291)"/>
<path d="M-17.104 23.0983C-10.4028 23.0983 -4.33266 25.8105 0.0621715 30.1859C8.85184 38.9516 16.139 38.9591 24.9287 30.2083C29.3235 25.8105 35.4011 23.0908 42.1098 23.0908C55.5197 23.0983 66.3828 33.9319 66.3828 47.3053C66.3828 60.6787 55.5197 71.5048 42.1098 71.5048C35.3861 71.5048 29.3085 68.7777 24.9136 64.3799C16.1315 55.644 8.85184 55.6515 0.0621715 64.4173C-4.33266 68.8002 -10.4028 71.5048 -17.104 71.5048C-30.5063 71.5048 -41.3694 60.6713 -41.3694 47.3053C-41.3694 33.9394 -30.5063 23.0983 -17.104 23.0983Z" fill="url(#paint3_linear_5481_122291)"/>
</g>
</g>

</svg>
