<svg width="160" height="160" viewBox="0 0 160 160" xmlns="http://www.w3.org/2000/svg">
  <defs>
<radialGradient id="paint0_radial_5481_122160" cx="0" cy="0" r="1" gradientUnits="userSpaceOnUse" gradientTransform="translate(133.577 106.095) rotate(90) scale(193.472 205.022)">
<stop offset="0.0885417" stop-color="#EB1000"/>
<stop offset="1" stop-color="#EB1000" stop-opacity="0"/>
</radialGradient>
<linearGradient id="paint1_linear_5481_122160" x1="109.744" y1="13.6909" x2="33.3948" y2="118.59" gradientUnits="userSpaceOnUse">
<stop stop-color="#FF4885"/>
<stop offset="1" stop-color="#FF4885" stop-opacity="0"/>
</linearGradient>
<linearGradient id="paint2_linear_5481_122160" x1="59.6433" y1="-32.6287" x2="73.8069" y2="63.4302" gradientUnits="userSpaceOnUse">
<stop offset="0.15625" stop-color="#7A6AFD"/>
<stop offset="1" stop-color="#7A6AFD" stop-opacity="0"/>
</linearGradient>
<linearGradient id="paint3_linear_5481_122160" x1="-123.403" y1="159.99" x2="142.287" y2="104.346" gradientUnits="userSpaceOnUse">
<stop stop-color="#30A7FE" stop-opacity="0"/>
<stop offset="0.432292" stop-color="#30A7FE" stop-opacity="0.994652"/>
<stop offset="0.609375" stop-color="#30A7FE"/>
<stop offset="1" stop-color="#30A7FE" stop-opacity="0"/>
</linearGradient>
<clipPath id="clip0_5481_122160">
<rect x="7" y="18" width="142" height="134" rx="10" fill="white"/>
</clipPath>
</defs>
<clipPath id="mask0_5481_122160">
<path fill-rule="evenodd" d="M35.75 27.9297H83.82C92.66 27.9297 99.82 35.0897 99.82 43.9297V132.06H73.83V111.48C73.83 107.06 70.25 103.48 65.83 103.48H53.74C49.32 103.48 45.74 107.06 45.74 111.48V132.06H19.75V43.9297C19.75 35.0897 26.91 27.9297 35.75 27.9297ZM48.54 84.4897C50.75 84.4897 52.54 82.6997 52.54 80.4897V74.7297C52.54 72.5197 50.75 70.7297 48.54 70.7297H42.78C40.57 70.7297 38.78 72.5197 38.78 74.7297V80.4897C38.78 82.6997 40.57 84.4897 42.78 84.4897H48.54ZM48.54 56.4297C50.75 56.4297 52.54 54.6397 52.54 52.4297V46.6697C52.54 44.4597 50.75 42.6697 48.54 42.6697H42.78C40.57 42.6697 38.78 44.4597 38.78 46.6697V52.4297C38.78 54.6397 40.57 56.4297 42.78 56.4297H48.54ZM76.8 84.4897C79.01 84.4897 80.8 82.6997 80.8 80.4897V74.7297C80.8 72.5197 79.01 70.7297 76.8 70.7297H71.04C68.83 70.7297 67.04 72.5197 67.04 74.7297V80.4897C67.04 82.6997 68.83 84.4897 71.04 84.4897H76.8ZM76.8 56.4297C79.01 56.4297 80.8 54.6397 80.8 52.4297V46.6697C80.8 44.4597 79.01 42.6697 76.8 42.6697H71.04C68.83 42.6697 67.04 44.4597 67.04 46.6697V52.4297C67.04 54.6397 68.83 56.4297 71.04 56.4297H76.8ZM124.24 49.5597C133.08 49.5597 140.24 56.7197 140.24 65.5597V132.06H107.83V49.5597H124.24ZM122.91 111.72C125.12 111.72 126.91 109.93 126.91 107.72V101.96C126.91 99.7497 125.12 97.9597 122.91 97.9597H117.15C114.94 97.9597 113.15 99.7497 113.15 101.96V107.72C113.15 109.93 114.94 111.72 117.15 111.72H122.91ZM122.91 83.6597C125.12 83.6597 126.91 81.8697 126.91 79.6597V73.8997C126.91 71.6897 125.12 69.8997 122.91 69.8997H117.15C114.94 69.8997 113.15 71.6897 113.15 73.8997V79.6597C113.15 81.8697 114.94 83.6597 117.15 83.6597H122.91Z" fill="white"/>
</clipPath>
<g clip-path="url(#mask0_5481_122160)">
<g clip-path="url(#clip0_5481_122160)">
<rect x="7" y="18" width="142" height="134" rx="10" fill="#D9F4FD"/>
<ellipse cx="133.577" cy="106.095" rx="205.022" ry="193.472" fill="url(#paint0_radial_5481_122160)"/>
<path d="M-5.78011 59.9701C-8.05916 13.6539 29.8816 -25.6363 78.963 -27.7869C128.044 -29.9376 169.68 5.86569 171.959 52.1819C174.238 98.4982 136.298 137.788 87.2162 139.939C38.1348 142.09 -3.50107 106.286 -5.78011 59.9701Z" fill="url(#paint1_linear_5481_122160)"/>
<path d="M42.8737 -74.7247C31.8016 -81.1901 17.7733 -81.2297 6.66005 -74.8269L-104.493 -10.7842C-115.379 -4.51188 -115.397 10.2931 -104.526 16.5891L5.89264 80.5411C16.9893 86.967 31.0176 86.9593 42.1046 80.5181L152.295 16.5063C163.109 10.2238 163.129 -4.49846 152.328 -10.8047L42.8737 -74.7247Z" fill="url(#paint2_linear_5481_122160)"/>
<path d="M-63.7893 82.0925C-40.8792 82.0925 -20.1266 90.8425 -5.10145 104.958C24.9488 133.239 49.8623 133.263 79.9125 105.031C94.9376 90.8425 115.716 82.0684 138.652 82.0684C184.498 82.0925 221.637 117.044 221.637 160.189C221.637 203.335 184.498 238.262 138.652 238.262C115.665 238.262 94.8863 229.464 79.8611 215.275C49.8366 187.092 24.9488 187.116 -5.10145 215.396C-20.1266 229.536 -40.8792 238.262 -63.7893 238.262C-109.61 238.262 -146.749 203.311 -146.749 160.189C-146.749 117.068 -109.61 82.0925 -63.7893 82.0925Z" fill="url(#paint3_linear_5481_122160)"/>
</g>
</g>

</svg>
