<svg width="160" height="160" viewBox="0 0 160 160" xmlns="http://www.w3.org/2000/svg">
  <defs>
<radialGradient id="paint0_radial_5481_122178" cx="0" cy="0" r="1" gradientUnits="userSpaceOnUse" gradientTransform="translate(130.774 99.185) rotate(90) scale(178.298 189.141)">
<stop offset="0.0885417" stop-color="#EB1000"/>
<stop offset="1" stop-color="#EB1000" stop-opacity="0"/>
</radialGradient>
<linearGradient id="paint1_linear_5481_122178" x1="108.785" y1="14.0289" x2="38.4466" y2="110.771" gradientUnits="userSpaceOnUse">
<stop stop-color="#FF4885"/>
<stop offset="1" stop-color="#FF4885" stop-opacity="0"/>
</linearGradient>
<linearGradient id="paint2_linear_5481_122178" x1="62.5653" y1="-28.6583" x2="75.605" y2="59.8709" gradientUnits="userSpaceOnUse">
<stop offset="0.15625" stop-color="#7A6AFD"/>
<stop offset="1" stop-color="#7A6AFD" stop-opacity="0"/>
</linearGradient>
<linearGradient id="paint3_linear_5481_122178" x1="-106.301" y1="148.856" x2="138.787" y2="97.4723" gradientUnits="userSpaceOnUse">
<stop stop-color="#30A7FE" stop-opacity="0"/>
<stop offset="0.432292" stop-color="#30A7FE" stop-opacity="0.994652"/>
<stop offset="0.609375" stop-color="#30A7FE"/>
<stop offset="1" stop-color="#30A7FE" stop-opacity="0"/>
</linearGradient>
<clipPath id="clip0_5481_122178">
<rect x="14" y="18" width="131" height="123.491" rx="10" fill="white"/>
</clipPath>
</defs>
<clipPath id="mask0_5481_122178">
<path fill-rule="evenodd" d="M85.3575 26.7405L127.927 47.9805C131.997 50.0105 134.568 54.1705 134.568 58.7205V101.18C134.568 105.72 132.007 109.88 127.947 111.91L85.3775 133.24C81.9975 134.94 78.0075 134.94 74.6275 133.24L32.0575 111.91C27.9975 109.87 25.4375 105.72 25.4375 101.18V58.7205C25.4375 54.1705 28.0075 50.0105 32.0775 47.9805L74.6475 26.7405C78.0175 25.0605 81.9875 25.0605 85.3575 26.7405ZM51.3175 97.6005C52.7075 97.6005 54.0475 96.8805 54.7875 95.6005H54.7775L69.4275 70.2305C70.5375 68.3205 69.8775 65.8705 67.9675 64.7705C66.0575 63.6605 63.6075 64.3205 62.5075 66.2305L47.8575 91.6005C46.7475 93.5105 47.4075 95.9605 49.3175 97.0605C49.9475 97.4305 50.6375 97.6005 51.3175 97.6005ZM104.658 97.6005C107.548 97.6005 110.137 96.1005 111.587 93.6005C113.037 91.0905 113.037 88.1005 111.587 85.6005L98.0575 62.1705C96.6075 59.6705 94.0175 58.1705 91.1275 58.1705C88.2375 58.1705 85.6475 59.6705 84.1975 62.1705L70.6675 85.6005C69.2175 88.1005 69.2175 91.1005 70.6675 93.6005C72.1175 96.1005 74.7075 97.6005 77.5975 97.6005H104.658ZM91.1374 66.1705L104.667 89.6005H77.6074L91.1374 66.1705Z" fill="white"/>
</clipPath>
<g clip-path="url(#mask0_5481_122178)">
<g clip-path="url(#clip0_5481_122178)">
<rect x="14" y="18" width="131" height="123.491" rx="10" fill="#D9F4FD"/>
<ellipse cx="130.774" cy="99.185" rx="189.141" ry="178.298" fill="url(#paint0_radial_5481_122178)"/>
<path d="M2.20997 56.6786C0.107457 13.9948 35.1093 -22.214 80.3887 -24.196C125.668 -26.1779 164.079 6.81742 166.181 49.5012C168.284 92.1851 133.282 128.394 88.0026 130.376C42.7231 132.358 4.31247 99.3625 2.20997 56.6786Z" fill="url(#paint1_linear_5481_122178)"/>
<path d="M47.0947 -67.4529C36.8803 -73.4113 23.9386 -73.4478 13.6862 -67.5471L-88.8563 -8.527C-98.899 -2.74662 -98.9158 10.8972 -88.8867 16.6995L12.9782 75.6359C23.2153 81.5579 36.157 81.5508 46.3852 75.6148L148.04 16.6232C158.016 10.8334 158.034 -2.73425 148.071 -8.54595L47.0947 -67.4529Z" fill="url(#paint2_linear_5481_122178)"/>
<path d="M-51.3047 77.0672C-30.1693 77.0672 -11.0241 85.1309 2.83711 98.1398C30.5596 124.202 53.5432 124.224 81.2657 98.2066C95.127 85.1309 114.296 77.0449 135.455 77.0449C177.75 77.0672 212.012 109.278 212.012 149.039C212.012 188.801 177.75 220.989 135.455 220.989C114.248 220.989 95.0796 212.881 81.2183 199.805C53.5195 173.832 30.5596 173.854 2.83711 199.916C-11.0241 212.947 -30.1693 220.989 -51.3047 220.989C-93.5756 220.989 -127.838 188.779 -127.838 149.039C-127.838 109.3 -93.5756 77.0672 -51.3047 77.0672Z" fill="url(#paint3_linear_5481_122178)"/>
</g>
</g>

</svg>
