<svg width="96" height="96" viewBox="0 0 96 96" xmlns="http://www.w3.org/2000/svg">
  <defs>
<radialGradient id="paint0_radial_5481_122511" cx="0" cy="0" r="1" gradientUnits="userSpaceOnUse" gradientTransform="translate(85.5714 63.1124) rotate(90) scale(138.607)">
<stop offset="0.0885417" stop-color="#EB1000"/>
<stop offset="1" stop-color="#EB1000" stop-opacity="0"/>
</radialGradient>
<linearGradient id="paint1_linear_5481_122511" x1="69.4617" y1="-3.08825" x2="13.8656" y2="68.9935" gradientUnits="userSpaceOnUse">
<stop stop-color="#FF4885"/>
<stop offset="1" stop-color="#FF4885" stop-opacity="0"/>
</linearGradient>
<linearGradient id="paint2_linear_5481_122511" x1="35.5898" y1="-36.2716" x2="46.3146" y2="32.3671" gradientUnits="userSpaceOnUse">
<stop offset="0.15625" stop-color="#7A6AFD"/>
<stop offset="1" stop-color="#7A6AFD" stop-opacity="0"/>
</linearGradient>
<linearGradient id="paint3_linear_5481_122511" x1="-88.1609" y1="101.725" x2="92.2907" y2="66.0615" gradientUnits="userSpaceOnUse">
<stop stop-color="#30A7FE" stop-opacity="0"/>
<stop offset="0.432292" stop-color="#30A7FE" stop-opacity="0.994652"/>
<stop offset="0.609375" stop-color="#30A7FE"/>
<stop offset="1" stop-color="#30A7FE" stop-opacity="0"/>
</linearGradient>
<clipPath id="clip0_5481_122511">
<rect width="96" height="96" rx="10" fill="white"/>
</clipPath>
</defs>
<clipPath id="mask0_5481_122511">
<path fill-rule="evenodd" d="M12 25.8008H42.9266L37.3358 18.8725C36.2791 17.563 34.6793 16.8008 32.9879 16.8008H17.568C14.4929 16.8008 12 19.2722 12 22.3208V25.8008ZM12 30.6008H75.6923C80.2775 30.6008 84 34.3489 84 38.9655V70.8361C84 75.4527 80.2775 79.2008 75.6923 79.2008H20.3077C15.7226 79.2008 12 75.4527 12 70.8361V30.6008ZM43.3765 46C42.6734 46 42.1035 46.5699 42.1035 47.273C42.1035 47.6323 42.2497 47.954 42.4912 48.1878C43.2848 48.9561 43.3053 50.2223 42.537 51.0159C41.7687 51.8094 40.5025 51.8299 39.7089 51.0616C38.7213 50.1054 38.1035 48.7596 38.1035 47.273C38.1035 44.3608 40.4643 42 43.3765 42C44.481 42 45.3765 42.8954 45.3765 44C45.3765 45.1046 44.481 46 43.3765 46ZM46.088 49.2942C46.088 46.5653 48.3002 44.353 51.0291 44.353C53.7581 44.353 55.9703 46.5653 55.9703 49.2942C55.9703 52.0231 53.7581 54.2354 51.0291 54.2354C48.3002 54.2354 46.088 52.0231 46.088 49.2942ZM42.9051 55.5464C43.3811 56.5431 42.9591 57.737 41.9624 58.2131C40.6999 58.8161 39.7279 60.0621 39.4719 61.5705C39.287 62.6595 38.2543 63.3924 37.1653 63.2075C36.0764 63.0227 35.3434 61.99 35.5283 60.901C36.0002 58.1211 37.7918 55.7723 40.2383 54.6037C41.2351 54.1276 42.429 54.5496 42.9051 55.5464ZM42.6404 62.3072C43.5222 58.6481 47.0817 56.1177 51.0293 56.1177C54.9768 56.1177 58.5363 58.6481 59.4181 62.3072C59.9322 64.4406 58.1271 66 56.3786 66H45.6799C43.9314 66 42.1263 64.4406 42.6404 62.3072Z" fill="white"/>
</clipPath>
<g clip-path="url(#mask0_5481_122511)">
<g clip-path="url(#clip0_5481_122511)">
<rect width="96" height="96" rx="10" fill="#D9F4FD"/>
<circle cx="85.5714" cy="63.1124" r="138.607" fill="url(#paint0_radial_5481_122511)"/>
<path d="M-8.63919 30.067C-10.18 -3.11477 15.4702 -31.263 48.652 -32.8037C81.8337 -34.3445 109.982 -8.69438 111.523 24.4874C113.063 57.6692 87.4133 85.8174 54.2316 87.3582C21.0498 88.8989 -7.09842 63.2488 -8.63919 30.067Z" fill="url(#paint1_linear_5481_122511)"/>
<path d="M24.2526 -66.43C16.7672 -71.0619 7.28331 -71.0903 -0.22988 -66.5032L-75.3753 -20.6218C-82.7348 -16.1282 -82.7471 -5.52169 -75.3976 -1.01111L-0.748691 44.8052C6.75324 49.4089 16.2372 49.4034 23.7327 44.7888L98.2278 -1.0704C105.538 -5.57135 105.552 -16.1186 98.2501 -20.6366L24.2526 -66.43Z" fill="url(#paint2_linear_5481_122511)"/>
<path d="M-47.8586 45.9177C-32.3701 45.9177 -18.3401 52.1863 -8.18231 62.2992C12.1334 82.5597 28.9763 82.577 49.2919 62.3512C59.4498 52.1863 73.4971 45.9004 89.003 45.9004C119.997 45.9177 145.105 70.9575 145.105 101.868C145.105 132.778 119.997 157.8 89.003 157.8C73.4624 157.8 59.415 151.497 49.2572 141.332C28.9589 121.141 12.1334 121.158 -8.18231 141.419C-18.3401 151.549 -32.3701 157.8 -47.8586 157.8C-78.8357 157.8 -103.944 132.761 -103.944 101.868C-103.944 70.9749 -78.8357 45.9177 -47.8586 45.9177Z" fill="url(#paint3_linear_5481_122511)"/>
</g>
</g>

</svg>
