<svg width="48" height="48" viewBox="0 0 48 48" xmlns="http://www.w3.org/2000/svg">
  <defs>
<radialGradient id="paint0_radial_5481_122301" cx="0" cy="0" r="1" gradientUnits="userSpaceOnUse" gradientTransform="translate(39.1062 30.3118) rotate(90) scale(51.2844 54.4031)">
<stop offset="0.0885417" stop-color="#EB1000"/>
<stop offset="1" stop-color="#EB1000" stop-opacity="0"/>
</radialGradient>
<linearGradient id="paint1_linear_5481_122301" x1="32.7828" y1="5.819" x2="12.551" y2="33.6451" gradientUnits="userSpaceOnUse">
<stop stop-color="#FF4885"/>
<stop offset="1" stop-color="#FF4885" stop-opacity="0"/>
</linearGradient>
<linearGradient id="paint2_linear_5481_122301" x1="19.4888" y1="-6.45884" x2="23.2394" y2="19.0051" gradientUnits="userSpaceOnUse">
<stop offset="0.15625" stop-color="#7A6AFD"/>
<stop offset="1" stop-color="#7A6AFD" stop-opacity="0"/>
</linearGradient>
<linearGradient id="paint3_linear_5481_122301" x1="-29.0844" y1="44.5985" x2="41.4108" y2="29.819" gradientUnits="userSpaceOnUse">
<stop stop-color="#30A7FE" stop-opacity="0"/>
<stop offset="0.432292" stop-color="#30A7FE" stop-opacity="0.994652"/>
<stop offset="0.609375" stop-color="#30A7FE"/>
<stop offset="1" stop-color="#30A7FE" stop-opacity="0"/>
</linearGradient>
<clipPath id="clip0_5481_122301">
<rect x="5.51953" y="6.96094" width="37.68" height="35.52" rx="10" fill="white"/>
</clipPath>
</defs>
<clipPath id="mask0_5481_122301">
<path d="M34.9492 20.4004C38.1802 20.4004 40.7992 17.7814 40.7992 14.5504V14.2504C40.7992 11.0194 38.1802 8.40039 34.9492 8.40039H13.0492C9.81822 8.40039 7.19922 11.0194 7.19922 14.2504V14.5504C7.19922 17.7814 9.81822 20.4004 13.0492 20.4004H22.7992V27.6004H13.0492C9.81822 27.6004 7.19922 30.2194 7.19922 33.4504V33.7504C7.19922 36.9814 9.81822 39.6004 13.0492 39.6004H34.9492C38.1802 39.6004 40.7992 36.9814 40.7992 33.7504V33.4504C40.7992 30.2194 38.1802 27.6004 34.9492 27.6004H25.1992V20.4004H34.9492ZM13.1992 15.6004C12.5362 15.6004 11.9992 15.0634 11.9992 14.4004C11.9992 13.7374 12.5362 13.2004 13.1992 13.2004C13.8622 13.2004 14.3992 13.7374 14.3992 14.4004C14.3992 15.0634 13.8622 15.6004 13.1992 15.6004ZM13.1992 34.8004C12.5362 34.8004 11.9992 34.2634 11.9992 33.6004C11.9992 32.9374 12.5362 32.4004 13.1992 32.4004C13.8622 32.4004 14.3992 32.9374 14.3992 33.6004C14.3992 34.2634 13.8622 34.8004 13.1992 34.8004ZM22.1992 34.8004H16.7992C16.1362 34.8004 15.5992 34.2634 15.5992 33.6004C15.5992 32.9374 16.1362 32.4004 16.7992 32.4004H22.1992C22.8622 32.4004 23.3992 32.9374 23.3992 33.6004C23.3992 34.2634 22.8622 34.8004 22.1992 34.8004ZM22.1992 15.6004H16.7992C16.1362 15.6004 15.5992 15.0634 15.5992 14.4004C15.5992 13.7374 16.1362 13.2004 16.7992 13.2004H22.1992C22.8622 13.2004 23.3992 13.7374 23.3992 14.4004C23.3992 15.0634 22.8622 15.6004 22.1992 15.6004Z" fill="white"/>
</clipPath>
<g clip-path="url(#mask0_5481_122301)">
<g clip-path="url(#clip0_5481_122301)">
<rect x="5.51953" y="6.96094" width="37.68" height="35.52" rx="10" fill="#D9F4FD"/>
<ellipse cx="39.1062" cy="30.3118" rx="54.4031" ry="51.2844" fill="url(#paint0_radial_5481_122301)"/>
<path d="M2.12818 18.0865C1.52343 5.80919 11.5911 -4.60564 24.615 -5.17572C37.6388 -5.74581 48.687 3.74473 49.2917 16.022C49.8965 28.2993 39.8288 38.7141 26.8049 39.2842C13.7811 39.8543 2.73293 30.3637 2.12818 18.0865Z" fill="url(#paint1_linear_5481_122301)"/>
<path d="M15.0389 -17.6174C12.1009 -19.3312 8.3785 -19.3417 5.42957 -17.6445L-24.065 -0.668411C-26.9536 0.994216 -26.9584 4.91864 -24.0738 6.58755L5.22594 23.5396C8.17045 25.2429 11.8929 25.2409 14.8349 23.5335L44.0742 6.56562C46.9436 4.90026 46.9489 0.997775 44.083 -0.673862L15.0389 -17.6174Z" fill="url(#paint2_linear_5481_122301)"/>
<path d="M-13.2658 23.9498C-7.18652 23.9498 -1.67976 26.2692 2.30719 30.0109C10.2811 37.5073 16.8919 37.5137 24.8658 30.0302C28.8528 26.2692 34.3664 23.9434 40.4524 23.9434C52.6177 23.9498 62.4727 33.2145 62.4727 44.6513C62.4727 56.088 52.6177 65.3464 40.4524 65.3464C34.3527 65.3464 28.8392 63.0142 24.8522 59.2532C16.8851 51.7824 10.2811 51.7888 2.30719 59.2852C-1.67976 63.0334 -7.18652 65.3464 -13.2658 65.3464C-25.4243 65.3464 -35.2792 56.0816 -35.2792 44.6513C-35.2792 33.2209 -25.4243 23.9498 -13.2658 23.9498Z" fill="url(#paint3_linear_5481_122301)"/>
</g>
</g>

</svg>
