<svg width="96" height="96" viewBox="0 0 96 96" xmlns="http://www.w3.org/2000/svg">
  <defs>
<radialGradient id="paint0_radial_5481_122434" cx="0" cy="0" r="1" gradientUnits="userSpaceOnUse" gradientTransform="translate(78.7986 59.76) rotate(90) scale(106.207 112.666)">
<stop offset="0.0885417" stop-color="#EB1000"/>
<stop offset="1" stop-color="#EB1000" stop-opacity="0"/>
</radialGradient>
<linearGradient id="paint1_linear_5481_122434" x1="65.7034" y1="9.03431" x2="23.8045" y2="66.6607" gradientUnits="userSpaceOnUse">
<stop stop-color="#FF4885"/>
<stop offset="1" stop-color="#FF4885" stop-opacity="0"/>
</linearGradient>
<linearGradient id="paint2_linear_5481_122434" x1="38.1706" y1="-16.3917" x2="45.938" y2="36.3426" gradientUnits="userSpaceOnUse">
<stop offset="0.15625" stop-color="#7A6AFD"/>
<stop offset="1" stop-color="#7A6AFD" stop-opacity="0"/>
</linearGradient>
<linearGradient id="paint3_linear_5481_122434" x1="-62.4183" y1="89.3469" x2="83.5734" y2="58.7393" gradientUnits="userSpaceOnUse">
<stop stop-color="#30A7FE" stop-opacity="0"/>
<stop offset="0.432292" stop-color="#30A7FE" stop-opacity="0.994652"/>
<stop offset="0.609375" stop-color="#30A7FE"/>
<stop offset="1" stop-color="#30A7FE" stop-opacity="0"/>
</linearGradient>
<clipPath id="clip0_5481_122434">
<rect x="9.24219" y="11.4004" width="78.0332" height="73.56" rx="10" fill="white"/>
</clipPath>
</defs>
<clipPath id="mask0_5481_122434">
<path d="M76.2196 16.7998H19.7836C14.4796 16.7998 10.1836 21.0958 10.1836 26.3998V52.7998C10.1836 58.1038 14.4796 62.3998 19.7836 62.3998H41.4016V76.7998H35.3956C34.0696 76.7998 32.9956 77.8738 32.9956 79.1998C32.9956 80.5258 34.0696 81.5998 35.3956 81.5998H60.6076C61.9336 81.5998 63.0076 80.5258 63.0076 79.1998C63.0076 77.8738 61.9336 76.7998 60.6076 76.7998H54.6016V62.3998H76.2196C81.5236 62.3998 85.8196 58.1038 85.8196 52.7998V26.3998C85.8196 21.0958 81.5236 16.7998 76.2196 16.7998ZM48.0136 28.7998C46.6876 28.7998 45.6136 27.7258 45.6136 26.3998C45.6136 25.0738 46.6876 23.9998 48.0076 23.9998H48.0136C49.3396 23.9998 50.4136 25.0738 50.4136 26.3998C50.4136 27.7258 49.3396 28.7998 48.0136 28.7998Z" fill="white"/>
</clipPath>
<g clip-path="url(#mask0_5481_122434)">
<g clip-path="url(#clip0_5481_122434)">
<rect x="9.24219" y="11.4004" width="78.0332" height="73.56" rx="10" fill="#D9F4FD"/>
<ellipse cx="78.7986" cy="59.76" rx="112.666" ry="106.207" fill="url(#paint0_radial_5481_122434)"/>
<path d="M2.21937 34.4395C0.966969 9.01399 21.8166 -12.5546 48.7882 -13.7352C75.7599 -14.9158 98.6401 4.73862 99.8925 30.1642C101.145 55.5897 80.2953 77.1582 53.3236 78.3389C26.3519 79.5195 3.47178 59.8651 2.21937 34.4395Z" fill="url(#paint1_linear_5481_122434)"/>
<path d="M28.9552 -39.5006C22.8708 -43.0498 15.1618 -43.0715 9.05476 -39.5567L-52.0269 -4.40008C-58.0091 -0.956874 -58.019 7.17039 -52.045 10.6266L8.63305 45.7334C14.731 49.2609 22.44 49.2567 28.5326 45.7208L89.0857 10.5812C95.0281 7.13234 95.0389 -0.949503 89.1038 -4.41137L28.9552 -39.5006Z" fill="url(#paint2_linear_5481_122434)"/>
<path d="M-29.6587 46.5846C-17.0689 46.5846 -5.66472 51.3879 2.59203 59.1369C19.1055 74.6615 32.7962 74.6747 49.3097 59.1767C57.5665 51.3879 68.9848 46.5713 81.5887 46.5713C106.782 46.5846 127.191 65.7713 127.191 89.4562C127.191 113.141 106.782 132.315 81.5887 132.315C68.9566 132.315 57.5383 127.485 49.2815 119.696C32.7821 104.224 19.1055 104.238 2.59203 119.762C-5.66472 127.525 -17.0689 132.315 -29.6587 132.315C-54.8383 132.315 -75.2473 113.128 -75.2473 89.4562C-75.2473 65.7846 -54.8383 46.5846 -29.6587 46.5846Z" fill="url(#paint3_linear_5481_122434)"/>
</g>
</g>

</svg>
