<svg width="96" height="96" viewBox="0 0 96 96" xmlns="http://www.w3.org/2000/svg">
  <defs>
<radialGradient id="paint0_radial_5481_122525" cx="0" cy="0" r="1" gradientUnits="userSpaceOnUse" gradientTransform="translate(85.5714 63.1124) rotate(90) scale(138.607)">
<stop offset="0.0885417" stop-color="#EB1000"/>
<stop offset="1" stop-color="#EB1000" stop-opacity="0"/>
</radialGradient>
<linearGradient id="paint1_linear_5481_122525" x1="69.4617" y1="-3.08825" x2="13.8656" y2="68.9935" gradientUnits="userSpaceOnUse">
<stop stop-color="#FF4885"/>
<stop offset="1" stop-color="#FF4885" stop-opacity="0"/>
</linearGradient>
<linearGradient id="paint2_linear_5481_122525" x1="35.5898" y1="-36.2716" x2="46.3146" y2="32.3671" gradientUnits="userSpaceOnUse">
<stop offset="0.15625" stop-color="#7A6AFD"/>
<stop offset="1" stop-color="#7A6AFD" stop-opacity="0"/>
</linearGradient>
<linearGradient id="paint3_linear_5481_122525" x1="-88.1609" y1="101.725" x2="92.2907" y2="66.0615" gradientUnits="userSpaceOnUse">
<stop stop-color="#30A7FE" stop-opacity="0"/>
<stop offset="0.432292" stop-color="#30A7FE" stop-opacity="0.994652"/>
<stop offset="0.609375" stop-color="#30A7FE"/>
<stop offset="1" stop-color="#30A7FE" stop-opacity="0"/>
</linearGradient>
<clipPath id="clip0_5481_122525">
<rect width="96" height="96" rx="10" fill="white"/>
</clipPath>
</defs>
<clipPath id="mask0_5481_122525">
<path fill-rule="evenodd" d="M68.8163 73.3479C63.1377 77.9696 55.8924 80.7402 48 80.7402C40.1402 80.7402 32.9222 77.9924 27.2542 73.4051C27.4159 73.2412 27.5518 73.0464 27.6523 72.8244C31.1687 65.0523 39.0114 59.6094 48.0004 59.6094C56.9136 59.6094 64.701 64.9669 68.26 72.6344C68.3932 72.9213 68.5858 73.1617 68.8163 73.3479ZM71.7483 70.6536C67.5046 61.8025 58.4311 55.6094 48.0004 55.6094C37.5697 55.6094 28.495 61.7969 24.2513 70.6531C18.5233 64.7175 15 56.6403 15 47.7402C15 29.5148 29.7746 14.7402 48 14.7402C66.2254 14.7402 81 29.5148 81 47.7402C81 56.6406 77.4765 64.718 71.7483 70.6536ZM37.9141 38.7531C37.9141 32.6241 42.5479 27.875 48.0017 27.875C53.4555 27.875 58.0893 32.6241 58.0893 38.7531C58.0893 44.8821 53.4555 49.6312 48.0017 49.6312C42.5479 49.6312 37.9141 44.8821 37.9141 38.7531ZM48.0017 23.875C40.1039 23.875 33.9141 30.6574 33.9141 38.7531C33.9141 46.8488 40.1039 53.6312 48.0017 53.6312C55.8995 53.6312 62.0893 46.8488 62.0893 38.7531C62.0893 30.6574 55.8995 23.875 48.0017 23.875Z" fill="white"/>
</clipPath>
<g clip-path="url(#mask0_5481_122525)">
<g clip-path="url(#clip0_5481_122525)">
<rect width="96" height="96" rx="10" fill="#D9F4FD"/>
<circle cx="85.5714" cy="63.1124" r="138.607" fill="url(#paint0_radial_5481_122525)"/>
<path d="M-8.63919 30.067C-10.18 -3.11477 15.4702 -31.263 48.652 -32.8037C81.8337 -34.3445 109.982 -8.69438 111.523 24.4874C113.063 57.6692 87.4133 85.8174 54.2316 87.3582C21.0498 88.8989 -7.09842 63.2488 -8.63919 30.067Z" fill="url(#paint1_linear_5481_122525)"/>
<path d="M24.2526 -66.43C16.7672 -71.0619 7.28331 -71.0903 -0.22988 -66.5032L-75.3753 -20.6218C-82.7348 -16.1282 -82.7471 -5.52169 -75.3976 -1.01111L-0.748691 44.8052C6.75324 49.4089 16.2372 49.4034 23.7327 44.7888L98.2278 -1.0704C105.538 -5.57135 105.552 -16.1186 98.2501 -20.6366L24.2526 -66.43Z" fill="url(#paint2_linear_5481_122525)"/>
<path d="M-47.8586 45.9177C-32.3701 45.9177 -18.3401 52.1863 -8.18231 62.2992C12.1334 82.5597 28.9763 82.577 49.2919 62.3512C59.4498 52.1863 73.4971 45.9004 89.003 45.9004C119.997 45.9177 145.105 70.9575 145.105 101.868C145.105 132.778 119.997 157.8 89.003 157.8C73.4624 157.8 59.415 151.497 49.2572 141.332C28.9589 121.141 12.1334 121.158 -8.18231 141.419C-18.3401 151.549 -32.3701 157.8 -47.8586 157.8C-78.8357 157.8 -103.944 132.761 -103.944 101.868C-103.944 70.9749 -78.8357 45.9177 -47.8586 45.9177Z" fill="url(#paint3_linear_5481_122525)"/>
</g>
</g>

</svg>
