<svg width="48" height="48" viewBox="0 0 48 48" xmlns="http://www.w3.org/2000/svg">
  <defs>
<radialGradient id="paint0_radial_5481_122286" cx="0" cy="0" r="1" gradientUnits="userSpaceOnUse" gradientTransform="translate(40.21 30.4424) rotate(90) scale(60.2686)">
<stop offset="0.0885417" stop-color="#EB1000"/>
<stop offset="1" stop-color="#EB1000" stop-opacity="0"/>
</radialGradient>
<linearGradient id="paint1_linear_5481_122286" x1="33.2012" y1="1.65782" x2="9.02702" y2="33.0002" gradientUnits="userSpaceOnUse">
<stop stop-color="#FF4885"/>
<stop offset="1" stop-color="#FF4885" stop-opacity="0"/>
</linearGradient>
<linearGradient id="paint2_linear_5481_122286" x1="18.4731" y1="-12.7708" x2="23.1365" y2="17.0746" gradientUnits="userSpaceOnUse">
<stop offset="0.15625" stop-color="#7A6AFD"/>
<stop offset="1" stop-color="#7A6AFD" stop-opacity="0"/>
</linearGradient>
<linearGradient id="paint3_linear_5481_122286" x1="-35.3346" y1="47.2316" x2="43.129" y2="31.7244" gradientUnits="userSpaceOnUse">
<stop stop-color="#30A7FE" stop-opacity="0"/>
<stop offset="0.432292" stop-color="#30A7FE" stop-opacity="0.994652"/>
<stop offset="0.609375" stop-color="#30A7FE"/>
<stop offset="1" stop-color="#30A7FE" stop-opacity="0"/>
</linearGradient>
<clipPath id="clip0_5481_122286">
<rect x="3" y="3" width="41.7425" height="41.7425" rx="10" fill="white"/>
</clipPath>
</defs>
<clipPath id="mask0_5481_122286">
<path fill-rule="evenodd" d="M17.9791 14.4239C15.9931 14.4239 14.3791 16.0379 14.3791 18.0239V19.4969L9.53711 16.4609L22.7731 8.1779C23.5561 7.6889 24.5461 7.6889 25.3261 8.1809L38.4661 16.4579L33.6211 19.4969V18.0239C33.6211 16.0379 32.0071 14.4239 30.0211 14.4239H17.9791ZM17.9793 16.8239C17.3163 16.8239 16.7793 17.3609 16.7793 18.0239V20.9999L23.3643 25.1309C23.7513 25.3739 24.2523 25.3739 24.6393 25.1309L31.2243 20.9999V18.0209C31.2243 17.3579 30.6873 16.8209 30.0243 16.8209H17.9823L17.9793 16.8239ZM25.9142 27.1649C25.3323 27.5279 24.6663 27.7109 24.0003 27.7109C23.3343 27.7109 22.6683 27.5279 22.0863 27.1649L8.40625 18.5849V35.3909C8.40625 38.0429 10.5543 40.1939 13.2063 40.1939H34.7943C37.4463 40.1939 39.5942 38.0429 39.5942 35.3909V18.5849L25.9142 27.1649Z" fill="white"/>
</clipPath>
<g clip-path="url(#mask0_5481_122286)">
<g clip-path="url(#clip0_5481_122286)">
<rect x="3" y="3" width="41.7425" height="41.7425" rx="10" fill="#D9F4FD"/>
<circle cx="40.21" cy="30.4424" r="60.2686" fill="url(#paint0_radial_5481_122286)"/>
<path d="M-0.758438 16.0743C-1.42839 1.64629 9.72473 -10.593 24.1528 -11.263C38.5808 -11.9329 50.8201 -0.779822 51.4901 13.6482C52.16 28.0762 41.0069 40.3156 26.5789 40.9855C12.1508 41.6555 -0.088486 30.5023 -0.758438 16.0743Z" fill="url(#paint1_linear_5481_122286)"/>
<path d="M13.5435 -25.8841C10.2888 -27.8982 6.16499 -27.9105 2.89812 -25.916L-29.7764 -5.96594C-32.9765 -4.01205 -32.9818 0.599863 -29.7861 2.56114L2.67253 22.4829C5.93451 24.4846 10.0583 24.4823 13.3175 22.4757L45.7092 2.53536C48.888 0.578272 48.8938 -4.00787 45.7189 -5.97234L13.5435 -25.8841Z" fill="url(#paint2_linear_5481_122286)"/>
<path d="M-17.8105 22.9655C-11.0758 22.9655 -4.97529 25.6912 -0.558485 30.0885C8.27513 38.8981 15.5987 38.9056 24.4323 30.1111C28.8491 25.6912 34.9572 22.958 41.6994 22.958C55.1763 22.9655 66.0938 33.8533 66.0938 47.2936C66.0938 60.7339 55.1763 71.6141 41.6994 71.6141C34.9421 71.6141 28.834 68.8733 24.4172 64.4535C15.5912 55.674 8.27513 55.6815 -0.558485 64.4911C-4.97529 68.8959 -11.0758 71.6141 -17.8105 71.6141C-31.2798 71.6141 -42.1973 60.7263 -42.1973 47.2936C-42.1973 33.8608 -31.2798 22.9655 -17.8105 22.9655Z" fill="url(#paint3_linear_5481_122286)"/>
</g>
</g>

</svg>
