<svg width="97" height="96" viewBox="0 0 97 96" xmlns="http://www.w3.org/2000/svg">
  <defs>
<radialGradient id="paint0_radial_5481_122529" cx="0" cy="0" r="1" gradientUnits="userSpaceOnUse" gradientTransform="translate(86.5128 63.1124) rotate(90) scale(138.607)">
<stop offset="0.0885417" stop-color="#EB1000"/>
<stop offset="1" stop-color="#EB1000" stop-opacity="0"/>
</radialGradient>
<linearGradient id="paint1_linear_5481_122529" x1="70.4031" y1="-3.08825" x2="14.807" y2="68.9935" gradientUnits="userSpaceOnUse">
<stop stop-color="#FF4885"/>
<stop offset="1" stop-color="#FF4885" stop-opacity="0"/>
</linearGradient>
<linearGradient id="paint2_linear_5481_122529" x1="36.5312" y1="-36.2716" x2="47.256" y2="32.3671" gradientUnits="userSpaceOnUse">
<stop offset="0.15625" stop-color="#7A6AFD"/>
<stop offset="1" stop-color="#7A6AFD" stop-opacity="0"/>
</linearGradient>
<linearGradient id="paint3_linear_5481_122529" x1="-87.2195" y1="101.725" x2="93.2321" y2="66.0615" gradientUnits="userSpaceOnUse">
<stop stop-color="#30A7FE" stop-opacity="0"/>
<stop offset="0.432292" stop-color="#30A7FE" stop-opacity="0.994652"/>
<stop offset="0.609375" stop-color="#30A7FE"/>
<stop offset="1" stop-color="#30A7FE" stop-opacity="0"/>
</linearGradient>
<clipPath id="clip0_5481_122529">
<rect x="0.941406" width="96" height="96" rx="10" fill="white"/>
</clipPath>
</defs>
<clipPath id="mask0_5481_122529">
<path fill-rule="evenodd" d="M57.2248 21.7854L40.5238 21.7854V18.25C40.5238 17.1454 39.6284 16.25 38.5238 16.25C37.4192 16.25 36.5238 17.1454 36.5238 18.25V21.7854L19.25 21.7854C18.1454 21.7854 17.25 22.6808 17.25 23.7854C17.25 24.89 18.1454 25.7854 19.25 25.7854L48.5108 25.7854C47.5189 32.6461 43.749 38.2026 39.0093 42.3691C37.848 43.3899 36.6353 44.321 35.4011 45.1612C33.1837 41.3457 31.5893 37.649 31.1149 34.9568C30.9231 33.869 29.8859 33.1426 28.7981 33.3343C27.7103 33.526 26.9839 34.5633 27.1756 35.6511C27.7634 38.9867 29.6096 43.1684 31.9822 47.239C28.8532 48.9266 25.7624 50.0379 23.1829 50.5571C22.1 50.7751 21.3989 51.8296 21.6169 52.9124C21.8349 53.9953 22.8894 54.6964 23.9723 54.4784C27.009 53.8671 30.5566 52.5787 34.1018 50.6396L34.1382 50.6945C37.504 55.7511 41.6647 60.5752 45.3372 62.9475C46.2651 63.5468 47.5031 63.2805 48.1024 62.3526C48.7017 61.4248 48.4354 60.1868 47.5076 59.5875C44.5461 57.6745 40.7769 53.4341 37.5205 48.5568C38.9362 47.6007 40.3242 46.539 41.6502 45.3733C47.0375 40.6376 51.5201 34.0755 52.5466 25.7854H57.2248C58.3294 25.7854 59.2248 24.89 59.2248 23.7854C59.2248 22.6808 58.3294 21.7854 57.2248 21.7854ZM56.3714 67.134L51.5414 78.5298C51.1103 79.5467 49.9365 80.0217 48.9195 79.5907C47.9025 79.1596 47.4275 77.9858 47.8585 76.9688L62.3205 42.848C62.3506 42.7752 62.385 42.7041 62.4235 42.6352C62.4979 42.5019 62.5859 42.3798 62.6851 42.2701C62.8744 42.0605 63.1113 41.8879 63.3884 41.7704C63.6435 41.6623 63.9084 41.6112 64.169 41.6113C64.4296 41.6112 64.6945 41.6623 64.9495 41.7704C65.2267 41.8879 65.4636 42.0605 65.6529 42.2701C65.752 42.3798 65.8401 42.5019 65.9145 42.6352C65.953 42.7041 65.9874 42.7752 66.0174 42.848L80.4794 76.9688C80.9105 77.9858 80.4355 79.1596 79.4185 79.5907C78.4015 80.0217 77.2276 79.5467 76.7966 78.5298L71.9559 67.109C71.8526 67.1255 71.7466 67.134 71.6386 67.134H56.3714ZM64.1686 48.7371L58.0664 63.1342H70.2707L64.1686 48.7371Z" fill="#292929"/>
</clipPath>
<g clip-path="url(#mask0_5481_122529)">
<g clip-path="url(#clip0_5481_122529)">
<rect x="0.941406" width="96" height="96" rx="10" fill="#D9F4FD"/>
<circle cx="86.5128" cy="63.1124" r="138.607" fill="url(#paint0_radial_5481_122529)"/>
<path d="M-7.69778 30.067C-9.23855 -3.11477 16.4116 -31.263 49.5934 -32.8037C82.7751 -34.3445 110.923 -8.69438 112.464 24.4874C114.005 57.6692 88.3548 85.8174 55.173 87.3582C21.9912 88.8989 -6.15701 63.2488 -7.69778 30.067Z" fill="url(#paint1_linear_5481_122529)"/>
<path d="M25.194 -66.43C17.7087 -71.0619 8.22471 -71.0903 0.711526 -66.5032L-74.4339 -20.6218C-81.7934 -16.1282 -81.8057 -5.52169 -74.4562 -1.01111L0.192716 44.8052C7.69465 49.4089 17.1786 49.4034 24.6741 44.7888L99.1692 -1.0704C106.48 -5.57135 106.493 -16.1186 99.1915 -20.6366L25.194 -66.43Z" fill="url(#paint2_linear_5481_122529)"/>
<path d="M-46.9172 45.9177C-31.4287 45.9177 -17.3987 52.1863 -7.24091 62.2992C13.0748 82.5597 29.9177 82.577 50.2333 62.3512C60.3912 52.1863 74.4385 45.9004 89.9444 45.9004C120.939 45.9177 146.047 70.9575 146.047 101.868C146.047 132.778 120.939 157.8 89.9444 157.8C74.4038 157.8 60.3564 151.497 50.1986 141.332C29.9003 121.141 13.0748 121.158 -7.24091 141.419C-17.3987 151.549 -31.4287 157.8 -46.9172 157.8C-77.8943 157.8 -103.002 132.761 -103.002 101.868C-103.002 70.9749 -77.8943 45.9177 -46.9172 45.9177Z" fill="url(#paint3_linear_5481_122529)"/>
</g>
</g>

</svg>
