<svg width="48" height="48" viewBox="0 0 48 48" xmlns="http://www.w3.org/2000/svg">
  <defs>
<radialGradient id="paint0_radial_5481_122333" cx="0" cy="0" r="1" gradientUnits="userSpaceOnUse" gradientTransform="translate(39.1062 30.3118) rotate(90) scale(51.2844 54.4031)">
<stop offset="0.0885417" stop-color="#EB1000"/>
<stop offset="1" stop-color="#EB1000" stop-opacity="0"/>
</radialGradient>
<linearGradient id="paint1_linear_5481_122333" x1="32.7828" y1="5.819" x2="12.551" y2="33.6451" gradientUnits="userSpaceOnUse">
<stop stop-color="#FF4885"/>
<stop offset="1" stop-color="#FF4885" stop-opacity="0"/>
</linearGradient>
<linearGradient id="paint2_linear_5481_122333" x1="19.4888" y1="-6.45884" x2="23.2394" y2="19.0051" gradientUnits="userSpaceOnUse">
<stop offset="0.15625" stop-color="#7A6AFD"/>
<stop offset="1" stop-color="#7A6AFD" stop-opacity="0"/>
</linearGradient>
<linearGradient id="paint3_linear_5481_122333" x1="-29.0844" y1="44.5985" x2="41.4108" y2="29.819" gradientUnits="userSpaceOnUse">
<stop stop-color="#30A7FE" stop-opacity="0"/>
<stop offset="0.432292" stop-color="#30A7FE" stop-opacity="0.994652"/>
<stop offset="0.609375" stop-color="#30A7FE"/>
<stop offset="1" stop-color="#30A7FE" stop-opacity="0"/>
</linearGradient>
<clipPath id="clip0_5481_122333">
<rect x="5.51953" y="6.96094" width="37.68" height="35.52" rx="10" fill="white"/>
</clipPath>
</defs>
<clipPath id="mask0_5481_122333">
<path fill-rule="evenodd" d="M30.9002 14.5492C30.9002 18.6085 27.811 21.8992 24.0002 21.8992C20.1894 21.8992 17.1002 18.6085 17.1002 14.5492C17.1002 10.4899 20.1894 7.19922 24.0002 7.19922C27.811 7.19922 30.9002 10.4899 30.9002 14.5492ZM12.5551 39.5962H24.0001H35.4451C36.9871 39.5962 38.1121 38.1682 37.7881 36.6622C36.4231 30.3172 30.7291 25.4992 24.0001 25.4992C17.2711 25.4992 11.5771 30.3172 10.2121 36.6622C9.88812 38.1682 11.0131 39.5962 12.5551 39.5962Z" fill="white"/>
</clipPath>
<g clip-path="url(#mask0_5481_122333)">
<g clip-path="url(#clip0_5481_122333)">
<rect x="5.51953" y="6.96094" width="37.68" height="35.52" rx="10" fill="#D9F4FD"/>
<ellipse cx="39.1062" cy="30.3118" rx="54.4031" ry="51.2844" fill="url(#paint0_radial_5481_122333)"/>
<path d="M2.12818 18.0865C1.52343 5.80919 11.5911 -4.60564 24.615 -5.17572C37.6388 -5.74581 48.687 3.74473 49.2917 16.022C49.8965 28.2993 39.8288 38.7141 26.8049 39.2842C13.7811 39.8543 2.73293 30.3637 2.12818 18.0865Z" fill="url(#paint1_linear_5481_122333)"/>
<path d="M15.0389 -17.6174C12.1009 -19.3312 8.3785 -19.3417 5.42957 -17.6445L-24.065 -0.668411C-26.9536 0.994216 -26.9584 4.91864 -24.0738 6.58755L5.22594 23.5396C8.17045 25.2429 11.8929 25.2409 14.8349 23.5335L44.0742 6.56562C46.9436 4.90026 46.9489 0.997775 44.083 -0.673862L15.0389 -17.6174Z" fill="url(#paint2_linear_5481_122333)"/>
<path d="M-13.2658 23.9498C-7.18652 23.9498 -1.67976 26.2692 2.30719 30.0109C10.2811 37.5073 16.8919 37.5137 24.8658 30.0302C28.8528 26.2692 34.3664 23.9434 40.4524 23.9434C52.6177 23.9498 62.4727 33.2145 62.4727 44.6513C62.4727 56.088 52.6177 65.3464 40.4524 65.3464C34.3527 65.3464 28.8392 63.0142 24.8522 59.2532C16.8851 51.7824 10.2811 51.7888 2.30719 59.2852C-1.67976 63.0334 -7.18652 65.3464 -13.2658 65.3464C-25.4243 65.3464 -35.2792 56.0816 -35.2792 44.6513C-35.2792 33.2209 -25.4243 23.9498 -13.2658 23.9498Z" fill="url(#paint3_linear_5481_122333)"/>
</g>
</g>

</svg>
