<svg width="48" height="48" viewBox="0 0 48 48" xmlns="http://www.w3.org/2000/svg">
  <defs>
<radialGradient id="paint0_radial_5481_122341" cx="0" cy="0" r="1" gradientUnits="userSpaceOnUse" gradientTransform="translate(39.2305 30.9543) rotate(90) scale(53.4895 56.7422)">
<stop offset="0.0885417" stop-color="#EB1000"/>
<stop offset="1" stop-color="#EB1000" stop-opacity="0"/>
</radialGradient>
<linearGradient id="paint1_linear_5481_122341" x1="32.6353" y1="5.40887" x2="11.5336" y2="34.4314" gradientUnits="userSpaceOnUse">
<stop stop-color="#FF4885"/>
<stop offset="1" stop-color="#FF4885" stop-opacity="0"/>
</linearGradient>
<linearGradient id="paint2_linear_5481_122341" x1="18.7672" y1="-7.39809" x2="22.6792" y2="19.1607" gradientUnits="userSpaceOnUse">
<stop offset="0.15625" stop-color="#7A6AFD"/>
<stop offset="1" stop-color="#7A6AFD" stop-opacity="0"/>
</linearGradient>
<linearGradient id="paint3_linear_5481_122341" x1="-31.8922" y1="45.8557" x2="41.6341" y2="30.4407" gradientUnits="userSpaceOnUse">
<stop stop-color="#30A7FE" stop-opacity="0"/>
<stop offset="0.432292" stop-color="#30A7FE" stop-opacity="0.994652"/>
<stop offset="0.609375" stop-color="#30A7FE"/>
<stop offset="1" stop-color="#30A7FE" stop-opacity="0"/>
</linearGradient>
<clipPath id="clip0_5481_122341">
<rect x="4.19922" y="6.59961" width="39.3001" height="37.0472" rx="10" fill="white"/>
</clipPath>
</defs>
<clipPath id="mask0_5481_122341">
<path fill-rule="evenodd" d="M27.0926 6.50391H36.6836C39.3345 6.50391 41.4836 8.65294 41.4836 11.3039V20.8949C41.4836 23.5459 39.3345 25.6949 36.6836 25.6949H27.0926C24.4416 25.6949 22.2926 23.5459 22.2926 20.8949V11.3039C22.2926 8.65294 24.4416 6.50391 27.0926 6.50391ZM10.7156 12.3419H15.6716C17.9912 12.3419 19.8716 14.2223 19.8716 16.5419V21.4979C19.8716 23.8175 17.9912 25.6979 15.6716 25.6979H10.7156C8.39603 25.6979 6.51562 23.8175 6.51562 21.4979V16.5419C6.51562 14.2223 8.39603 12.3419 10.7156 12.3419ZM15.6716 28.1399H10.7156C8.39603 28.1399 6.51562 30.0203 6.51562 32.3399V37.2959C6.51562 39.6155 8.39603 41.4959 10.7156 41.4959H15.6716C17.9912 41.4959 19.8716 39.6155 19.8716 37.2959V32.3399C19.8716 30.0203 17.9912 28.1399 15.6716 28.1399ZM26.4926 28.1399H31.4486C33.7682 28.1399 35.6486 30.0203 35.6486 32.3399V37.2959C35.6486 39.6155 33.7682 41.4959 31.4486 41.4959H26.4926C24.173 41.4959 22.2926 39.6155 22.2926 37.2959V32.3399C22.2926 30.0203 24.173 28.1399 26.4926 28.1399Z" fill="white"/>
</clipPath>
<g clip-path="url(#mask0_5481_122341)">
<g clip-path="url(#clip0_5481_122341)">
<rect x="4.19922" y="6.59961" width="39.3001" height="37.0472" rx="10" fill="#D9F4FD"/>
<ellipse cx="39.2305" cy="30.9543" rx="56.7422" ry="53.4895" fill="url(#paint0_radial_5481_122341)"/>
<path d="M0.662594 18.2038C0.0318416 5.39864 10.5324 -5.464 24.1162 -6.05859C37.7001 -6.65319 49.2233 3.24542 49.854 16.0506C50.4848 28.8557 39.9842 39.7183 26.4004 40.3129C12.8165 40.9075 1.29335 31.0089 0.662594 18.2038Z" fill="url(#paint1_linear_5481_122341)"/>
<path d="M14.1261 -19.0365C11.0617 -20.824 7.17924 -20.8349 4.10352 -19.0647L-26.6592 -1.35869C-29.6721 0.37543 -29.6771 4.46859 -26.6684 6.20926L3.89113 23.8902C6.96224 25.6668 10.8448 25.6647 13.9132 23.8839L44.4097 6.18638C47.4025 4.44943 47.408 0.379142 44.4189 -1.36437L14.1261 -19.0365Z" fill="url(#paint2_linear_5481_122341)"/>
<path d="M-15.3934 24.3192C-9.05273 24.3192 -3.3092 26.7383 0.849178 30.641C9.16593 38.4596 16.061 38.4663 24.3778 30.661C28.5361 26.7383 34.2868 24.3125 40.6345 24.3125C53.3229 24.3192 63.6016 33.9823 63.6016 45.9108C63.6016 57.8393 53.3229 67.4957 40.6345 67.4957C34.2726 67.4957 28.5219 65.0632 24.3636 61.1405C16.0539 53.3486 9.16593 53.3552 0.849178 61.1739C-3.3092 65.0833 -9.05273 67.4957 -15.3934 67.4957C-28.0746 67.4957 -38.3533 57.8326 -38.3533 45.9108C-38.3533 33.989 -28.0746 24.3192 -15.3934 24.3192Z" fill="url(#paint3_linear_5481_122341)"/>
</g>
</g>

</svg>
