<svg width="160" height="160" viewBox="0 0 160 160" xmlns="http://www.w3.org/2000/svg">
  <defs>
<radialGradient id="paint0_radial_5481_122253" cx="0" cy="0" r="1" gradientUnits="userSpaceOnUse" gradientTransform="translate(142.62 105.187) rotate(90) scale(231.011)">
<stop offset="0.0885417" stop-color="#EB1000"/>
<stop offset="1" stop-color="#EB1000" stop-opacity="0"/>
</radialGradient>
<linearGradient id="paint1_linear_5481_122253" x1="115.768" y1="-5.14512" x2="23.108" y2="114.991" gradientUnits="userSpaceOnUse">
<stop stop-color="#FF4885"/>
<stop offset="1" stop-color="#FF4885" stop-opacity="0"/>
</linearGradient>
<linearGradient id="paint2_linear_5481_122253" x1="59.3137" y1="-60.4521" x2="77.1884" y2="53.9458" gradientUnits="userSpaceOnUse">
<stop offset="0.15625" stop-color="#7A6AFD"/>
<stop offset="1" stop-color="#7A6AFD" stop-opacity="0"/>
</linearGradient>
<linearGradient id="paint3_linear_5481_122253" x1="-146.934" y1="169.541" x2="153.819" y2="110.102" gradientUnits="userSpaceOnUse">
<stop stop-color="#30A7FE" stop-opacity="0"/>
<stop offset="0.432292" stop-color="#30A7FE" stop-opacity="0.994652"/>
<stop offset="0.609375" stop-color="#30A7FE"/>
<stop offset="1" stop-color="#30A7FE" stop-opacity="0"/>
</linearGradient>
<clipPath id="clip0_5481_122253">
<rect width="160" height="160" rx="10" fill="white"/>
</clipPath>
</defs>
<clipPath id="mask0_5481_122253">
<path fill-rule="evenodd" d="M112.544 26.7792C112.811 24.5864 114.806 23.0258 116.999 23.2936C128.157 24.6561 138.578 31.0666 144.639 41.5636C150.749 52.1464 151.045 64.4914 146.532 74.8889C145.653 76.9153 143.297 77.8451 141.27 76.9656C139.244 76.086 138.314 73.7302 139.194 71.7037C142.741 63.531 142.5 53.8588 137.711 45.5636C132.96 37.3354 124.799 32.3056 116.029 31.2346C113.836 30.9668 112.276 28.9721 112.544 26.7792ZM111.29 40.7241C111.557 38.5313 113.552 36.9707 115.745 37.2385C122.602 38.0758 129.013 42.017 132.74 48.4725C136.497 54.9808 136.678 62.5737 133.904 68.9631C133.025 70.9896 130.669 71.9193 128.642 71.0398C126.616 70.1602 125.686 67.8044 126.566 65.7779C128.373 61.6133 128.248 56.6931 125.812 52.4725C123.394 48.2859 119.244 45.7252 114.775 45.1795C112.582 44.9117 111.022 42.917 111.29 40.7241ZM18.3933 74.4158C10.7406 78.8341 8.11861 88.6196 12.5369 96.2722L12.9575 97.0008L103.202 44.8609L102.797 44.1603C98.3792 36.5076 88.5937 33.8856 80.9411 38.3039L18.3933 74.4158ZM107.202 51.7891L16.9575 103.929L31.2782 128.733C35.6965 136.386 45.4819 139.008 53.1346 134.59L115.682 98.4776C123.335 94.0593 125.957 84.2739 121.539 76.6212L107.202 51.7891ZM30.4293 108.1C29.3247 106.187 29.98 103.74 31.8932 102.635L64.2734 83.9384C66.1865 82.8337 68.6329 83.4891 69.7376 85.4022C70.8423 87.3153 70.1869 89.7617 68.2738 90.8664L35.8935 109.563C33.9804 110.668 31.534 110.013 30.4293 108.1ZM38.9049 114.78C36.9918 115.885 36.3364 118.331 37.4411 120.244C38.5457 122.157 40.9921 122.813 42.9052 121.708L59.0954 112.359C61.0085 111.255 61.6639 108.808 60.5592 106.895C59.4545 104.982 57.0081 104.327 55.095 105.431L38.9049 114.78ZM82.0456 78.3008C80.9409 76.3877 81.5963 73.9413 83.5094 72.8366L98.6899 64.071C100.603 62.9663 103.049 63.6217 104.154 65.5348C105.259 67.4479 104.603 69.8943 102.69 70.999L87.5097 79.7646C85.5966 80.8693 83.1502 80.2139 82.0456 78.3008Z" fill="white"/>
</clipPath>
<g clip-path="url(#mask0_5481_122253)">
<g clip-path="url(#clip0_5481_122253)">
<rect width="160" height="160" rx="10" fill="#D9F4FD"/>
<circle cx="142.62" cy="105.187" r="231.011" fill="url(#paint0_radial_5481_122253)"/>
<path d="M-14.3999 50.1137C-16.9679 -5.18932 25.7823 -52.103 81.0853 -54.6709C136.388 -57.2388 183.302 -14.4887 185.87 40.8143C188.438 96.1173 145.688 143.031 90.3846 145.599C35.0817 148.167 -11.832 105.417 -14.3999 50.1137Z" fill="url(#paint1_linear_5481_122253)"/>
<path d="M40.4184 -110.716C27.9428 -118.436 12.1362 -118.483 -0.385738 -110.838L-125.628 -34.3691C-137.894 -26.8797 -137.914 -9.20217 -125.665 -1.68455L-1.25042 74.676C11.2528 82.3487 27.0594 82.3396 39.5518 74.6486L163.71 -1.78335C175.895 -9.28493 175.917 -26.8637 163.748 -34.3936L40.4184 -110.716Z" fill="url(#paint2_linear_5481_122253)"/>
<path d="M-79.7631 76.5289C-53.9489 76.5289 -30.5656 86.9766 -13.6359 103.831C20.2235 137.599 48.2951 137.628 82.1545 103.918C99.0842 86.9766 122.496 76.5 148.34 76.5C199.997 76.5289 241.844 118.262 241.844 169.779C241.844 221.296 199.997 263 148.34 263C122.439 263 99.0263 252.495 82.0966 235.553C48.2661 201.901 20.2235 201.93 -13.6359 235.697C-30.5656 252.581 -53.9489 263 -79.7631 263C-131.392 263 -173.238 221.267 -173.238 169.779C-173.238 118.291 -131.392 76.5289 -79.7631 76.5289Z" fill="url(#paint3_linear_5481_122253)"/>
</g>
</g>

</svg>
