<svg width="48" height="48" viewBox="0 0 48 48" xmlns="http://www.w3.org/2000/svg">
  <defs>
<radialGradient id="paint0_radial_5481_122365" cx="0" cy="0" r="1" gradientUnits="userSpaceOnUse" gradientTransform="translate(42.7877 31.5552) rotate(90) scale(69.3033)">
<stop offset="0.0885417" stop-color="#EB1000"/>
<stop offset="1" stop-color="#EB1000" stop-opacity="0"/>
</radialGradient>
<linearGradient id="paint1_linear_5481_122365" x1="34.7309" y1="-1.54315" x2="6.93278" y2="34.4977" gradientUnits="userSpaceOnUse">
<stop stop-color="#FF4885"/>
<stop offset="1" stop-color="#FF4885" stop-opacity="0"/>
</linearGradient>
<linearGradient id="paint2_linear_5481_122365" x1="17.7929" y1="-18.1348" x2="23.1553" y2="16.1845" gradientUnits="userSpaceOnUse">
<stop offset="0.15625" stop-color="#7A6AFD"/>
<stop offset="1" stop-color="#7A6AFD" stop-opacity="0"/>
</linearGradient>
<linearGradient id="paint3_linear_5481_122365" x1="-44.0785" y1="50.8616" x2="46.1473" y2="33.0298" gradientUnits="userSpaceOnUse">
<stop stop-color="#30A7FE" stop-opacity="0"/>
<stop offset="0.432292" stop-color="#30A7FE" stop-opacity="0.994652"/>
<stop offset="0.609375" stop-color="#30A7FE"/>
<stop offset="1" stop-color="#30A7FE" stop-opacity="0"/>
</linearGradient>
<clipPath id="clip0_5481_122365">
<rect width="48" height="48" rx="10" fill="white"/>
</clipPath>
</defs>
<clipPath id="mask0_5481_122365">
<path fill-rule="evenodd" d="M28.1398 10.6432L20.0392 10.6432V9.125C20.0392 8.43464 19.4795 7.875 18.7892 7.875C18.0988 7.875 17.5392 8.43464 17.5392 9.125V10.6432L9.15234 10.6432C8.46199 10.6432 7.90234 11.2028 7.90234 11.8932C7.90234 12.5835 8.46199 13.1432 9.15234 13.1432L23.4903 13.1432C22.9437 16.3699 21.1372 19.0006 18.8669 20.9963C18.3637 21.4386 17.841 21.8467 17.309 22.2201C16.2799 20.4118 15.5517 18.6878 15.3309 17.435C15.2111 16.7552 14.5628 16.3011 13.883 16.4209C13.2031 16.5408 12.7491 17.189 12.8689 17.8689C13.1587 19.5134 14.0397 21.5406 15.1721 23.5198C13.7074 24.2844 12.2723 24.7908 11.0694 25.033C10.3926 25.1692 9.95445 25.8283 10.0907 26.5051C10.2269 27.1819 10.886 27.62 11.5628 27.4838C13.0485 27.1847 14.7696 26.5685 16.4966 25.6475C18.1666 28.1267 20.2205 30.4954 22.0603 31.6837C22.6402 32.0583 23.4139 31.8919 23.7885 31.312C24.1631 30.7321 23.9966 29.9583 23.4167 29.5837C22.0197 28.6814 20.2222 26.6857 18.6333 24.3443C19.2786 23.8975 19.9109 23.4072 20.5175 22.8739C23.1969 20.5186 25.4465 17.2593 26.0198 13.1432H28.1398C28.8301 13.1432 29.3898 12.5835 29.3898 11.8932C29.3898 11.2028 28.8301 10.6432 28.1398 10.6432ZM27.8786 33.817L25.5282 39.3624C25.2588 39.9981 24.5251 40.2949 23.8895 40.0255C23.2539 39.7561 22.957 39.0225 23.2264 38.3868L30.4558 21.3303C30.4791 21.2735 30.5067 21.2185 30.5381 21.1656C30.5758 21.1023 30.6185 21.0432 30.6655 20.9888C30.7868 20.8481 30.9414 20.7324 31.124 20.655C31.2834 20.5874 31.4489 20.5555 31.6118 20.5556C31.7747 20.5555 31.9403 20.5874 32.0997 20.655C32.2822 20.7324 32.4369 20.8481 32.5582 20.9888C32.6464 21.0911 32.717 21.2067 32.7678 21.3303L39.9972 38.3868C40.2666 39.0225 39.9697 39.7561 39.3341 40.0255C38.6985 40.2949 37.9648 39.9981 37.6954 39.3624L35.345 33.817H27.8786ZM31.6111 25.009L28.9375 31.3169H34.2847L31.6111 25.009Z" fill="#292929"/>
</clipPath>
<g clip-path="url(#mask0_5481_122365)">
<g clip-path="url(#clip0_5481_122365)">
<rect width="48" height="48" rx="10" fill="#D9F4FD"/>
<circle cx="42.7877" cy="31.5552" r="69.3033" fill="url(#paint0_radial_5481_122365)"/>
<path d="M-4.31959 15.0345C-5.08998 -1.55641 7.73508 -15.6305 24.326 -16.4009C40.9169 -17.1713 54.991 -4.34621 55.7613 12.2447C56.5317 28.8356 43.7067 42.9097 27.1158 43.6801C10.5249 44.4504 -3.54921 31.6254 -4.31959 15.0345Z" fill="url(#paint1_linear_5481_122365)"/>
<path d="M12.1243 -33.214C8.38167 -35.53 3.6397 -35.5442 -0.116893 -33.2506L-37.6896 -10.3099C-41.3694 -8.06314 -41.3755 -2.75987 -37.7007 -0.504581L-0.376298 22.4036C3.37467 24.7054 8.11665 24.7027 11.8644 22.3954L49.1119 -0.534222C52.7672 -2.7847 52.7739 -8.05833 49.1231 -10.3173L12.1243 -33.214Z" fill="url(#paint2_linear_5481_122365)"/>
<path d="M-23.9274 22.9579C-16.1831 22.9579 -9.16812 26.0922 -4.0892 31.1486C6.06863 41.2789 14.4901 41.2875 24.6479 31.1746C29.7268 26.0922 36.7505 22.9492 44.5034 22.9492C60.0006 22.9579 72.5547 35.4778 72.5547 50.9329C72.5547 66.388 60.0006 78.8992 44.5034 78.8992C36.7331 78.8992 29.7095 75.7476 24.6306 70.6652C14.4814 60.5696 6.06863 60.5782 -4.0892 70.7085C-9.16812 75.7736 -16.1831 78.8992 -23.9274 78.8992C-39.4159 78.8992 -51.9699 66.3793 -51.9699 50.9329C-51.9699 35.4865 -39.4159 22.9579 -23.9274 22.9579Z" fill="url(#paint3_linear_5481_122365)"/>
</g>
</g>

</svg>
