<svg width="96" height="96" viewBox="0 0 96 96" xmlns="http://www.w3.org/2000/svg">
  <defs>
<radialGradient id="paint0_radial_5481_122522" cx="0" cy="0" r="1" gradientUnits="userSpaceOnUse" gradientTransform="translate(85.5714 63.1124) rotate(90) scale(138.607)">
<stop offset="0.0885417" stop-color="#EB1000"/>
<stop offset="1" stop-color="#EB1000" stop-opacity="0"/>
</radialGradient>
<linearGradient id="paint1_linear_5481_122522" x1="69.4617" y1="-3.08825" x2="13.8656" y2="68.9935" gradientUnits="userSpaceOnUse">
<stop stop-color="#FF4885"/>
<stop offset="1" stop-color="#FF4885" stop-opacity="0"/>
</linearGradient>
<linearGradient id="paint2_linear_5481_122522" x1="35.5898" y1="-36.2716" x2="46.3146" y2="32.3671" gradientUnits="userSpaceOnUse">
<stop offset="0.15625" stop-color="#7A6AFD"/>
<stop offset="1" stop-color="#7A6AFD" stop-opacity="0"/>
</linearGradient>
<linearGradient id="paint3_linear_5481_122522" x1="-88.1609" y1="101.725" x2="92.2907" y2="66.0615" gradientUnits="userSpaceOnUse">
<stop stop-color="#30A7FE" stop-opacity="0"/>
<stop offset="0.432292" stop-color="#30A7FE" stop-opacity="0.994652"/>
<stop offset="0.609375" stop-color="#30A7FE"/>
<stop offset="1" stop-color="#30A7FE" stop-opacity="0"/>
</linearGradient>
<clipPath id="clip0_5481_122522">
<rect width="96" height="96" rx="10" fill="white"/>
</clipPath>
</defs>
<clipPath id="mask0_5481_122522">
<path fill-rule="evenodd" d="M39.7802 69.6514V35.3374L75.7456 28.1676V55.3915C74.7358 54.8047 73.6028 54.3975 72.425 54.161C69.5227 53.5782 66.1452 53.9673 62.9285 55.3491C59.7117 56.731 57.1044 58.9129 55.5291 61.4191C53.9593 63.9168 53.3218 66.9274 54.5123 69.6987C55.7028 72.47 58.3252 74.0801 61.2175 74.6609C64.1198 75.2437 67.4973 74.8547 70.7141 73.4728C73.9308 72.091 76.5381 69.9091 78.1134 67.4028C78.9686 66.0421 79.5472 64.5292 79.7042 62.9856C79.7313 62.8542 79.7456 62.718 79.7456 62.5786V62.3031C79.7476 62.1993 79.7476 62.0954 79.7456 61.9915V20.5965C79.7456 15.5501 75.1305 11.7642 70.1815 12.7508L42.2161 18.326C38.4744 19.072 35.7802 22.3563 35.7802 26.1716V63.2587C34.7703 62.6718 33.6371 62.2645 32.4592 62.028C29.557 61.4452 26.1795 61.8343 22.9627 63.2161C19.746 64.5979 17.1387 66.7799 15.5634 69.2861C13.9935 71.7838 13.356 74.7943 14.5465 77.5657C15.737 80.337 18.3595 81.9471 21.2518 82.5279C24.1541 83.1107 27.5316 82.7217 30.7483 81.3398C33.9651 79.958 36.5724 77.776 38.1477 75.2698C39.2042 73.5888 39.8384 71.6755 39.7773 69.7592C39.7792 69.7235 39.7802 69.6875 39.7802 69.6514Z" fill="#292929"/>
</clipPath>
<g clip-path="url(#mask0_5481_122522)">
<g clip-path="url(#clip0_5481_122522)">
<rect width="96" height="96" rx="10" fill="#D9F4FD"/>
<circle cx="85.5714" cy="63.1124" r="138.607" fill="url(#paint0_radial_5481_122522)"/>
<path d="M-8.63919 30.067C-10.18 -3.11477 15.4702 -31.263 48.652 -32.8037C81.8337 -34.3445 109.982 -8.69438 111.523 24.4874C113.063 57.6692 87.4133 85.8174 54.2316 87.3582C21.0498 88.8989 -7.09842 63.2488 -8.63919 30.067Z" fill="url(#paint1_linear_5481_122522)"/>
<path d="M24.2526 -66.43C16.7672 -71.0619 7.28331 -71.0903 -0.22988 -66.5032L-75.3753 -20.6218C-82.7348 -16.1282 -82.7471 -5.52169 -75.3976 -1.01111L-0.748691 44.8052C6.75324 49.4089 16.2372 49.4034 23.7327 44.7888L98.2278 -1.0704C105.538 -5.57135 105.552 -16.1186 98.2501 -20.6366L24.2526 -66.43Z" fill="url(#paint2_linear_5481_122522)"/>
<path d="M-47.8586 45.9177C-32.3701 45.9177 -18.3401 52.1863 -8.18231 62.2992C12.1334 82.5597 28.9763 82.577 49.2919 62.3512C59.4498 52.1863 73.4971 45.9004 89.003 45.9004C119.997 45.9177 145.105 70.9575 145.105 101.868C145.105 132.778 119.997 157.8 89.003 157.8C73.4624 157.8 59.415 151.497 49.2572 141.332C28.9589 121.141 12.1334 121.158 -8.18231 141.419C-18.3401 151.549 -32.3701 157.8 -47.8586 157.8C-78.8357 157.8 -103.944 132.761 -103.944 101.868C-103.944 70.9749 -78.8357 45.9177 -47.8586 45.9177Z" fill="url(#paint3_linear_5481_122522)"/>
</g>
</g>

</svg>
