<svg width="160" height="160" viewBox="0 0 160 160" xmlns="http://www.w3.org/2000/svg">
  <defs>
<radialGradient id="paint0_radial_5481_122125" cx="0" cy="0" r="1" gradientUnits="userSpaceOnUse" gradientTransform="translate(134.458 101.904) rotate(90) scale(200.895 200.895)">
<stop offset="0.0885417" stop-color="#EB1000"/>
<stop offset="1" stop-color="#EB1000" stop-opacity="0"/>
</radialGradient>
<linearGradient id="paint1_linear_5481_122125" x1="111.107" y1="5.95511" x2="30.5263" y2="110.43" gradientUnits="userSpaceOnUse">
<stop stop-color="#FF4885"/>
<stop offset="1" stop-color="#FF4885" stop-opacity="0"/>
</linearGradient>
<linearGradient id="paint2_linear_5481_122125" x1="62.0108" y1="-42.1408" x2="77.5552" y2="57.3436" gradientUnits="userSpaceOnUse">
<stop offset="0.15625" stop-color="#7A6AFD"/>
<stop offset="1" stop-color="#7A6AFD" stop-opacity="0"/>
</linearGradient>
<linearGradient id="paint3_linear_5481_122125" x1="-117.348" y1="157.869" x2="144.197" y2="106.178" gradientUnits="userSpaceOnUse">
<stop stop-color="#30A7FE" stop-opacity="0"/>
<stop offset="0.432292" stop-color="#30A7FE" stop-opacity="0.994652"/>
<stop offset="0.609375" stop-color="#30A7FE"/>
<stop offset="1" stop-color="#30A7FE" stop-opacity="0"/>
</linearGradient>
<clipPath id="clip0_5481_122125">
<rect x="10.4297" y="10.4297" width="139.142" height="139.142" rx="10" fill="white"/>
</clipPath>
</defs>
<clipPath id="mask0_5481_122125">
<path fill-rule="evenodd" d="M54 45.5C54 31.1406 65.6406 19.5 80 19.5C94.3594 19.5 106 31.1406 106 45.5C106 47.7091 104.209 49.5 102 49.5C99.7909 49.5 98 47.7091 98 45.5C98 35.5588 89.9412 27.5 80 27.5C70.0588 27.5 62 35.5588 62 45.5V66.5H115.636C123.017 66.5 129 71.9565 129 78.6875V119.312C129 126.043 123.017 131.5 115.636 131.5H44.3636C36.9831 131.5 31 126.043 31 119.312V78.6875C31 71.9565 36.9831 66.5 44.3636 66.5H54V45.5ZM74.3464 100.653C74.8393 101.15 75.3972 101.577 76 101.924V109.5C76 111.709 77.7909 113.5 80 113.5C82.2091 113.5 84 111.709 84 109.5V101.924C84.6028 101.577 85.1607 101.15 85.6536 100.653C86.026 100.293 86.3594 99.8796 86.6536 99.4395C86.9466 99.013 87.1862 98.5462 87.3867 98.0664C87.5859 97.5729 87.7461 97.0801 87.8398 96.5599C87.9466 96.0534 88 95.5195 88 95C88 94.4798 87.9466 93.9466 87.8398 93.4395C87.7461 92.933 87.5859 92.4264 87.3867 91.9466C87.1862 91.4531 86.9466 91 86.6536 90.5599C86.3594 90.1198 86.026 89.7064 85.6536 89.3464C84.1732 87.8529 82.1068 87 80 87C77.8932 87 75.8268 87.8529 74.3464 89.3464C73.9727 89.7064 73.6393 90.1198 73.3464 90.5599C73.0664 91 72.8125 91.4531 72.6133 91.9466C72.4128 92.4264 72.2526 92.933 72.1602 93.4395C72.0534 93.9466 72 94.4798 72 95C72 95.5195 72.0534 96.0534 72.1602 96.5599C72.2526 97.0801 72.4128 97.5729 72.6133 98.0664C72.8125 98.5462 73.0664 99.013 73.3464 99.4395C73.6393 99.8796 73.9727 100.293 74.3464 100.653Z" fill="white"/>
</clipPath>
<g clip-path="url(#mask0_5481_122125)">
<g clip-path="url(#clip0_5481_122125)">
<rect x="10.4297" y="10.4297" width="139.142" height="139.142" rx="10" fill="#D9F4FD"/>
<ellipse cx="134.458" cy="101.904" rx="200.895" ry="200.895" fill="url(#paint0_radial_5481_122125)"/>
<path d="M-2.09191 54.0101C-4.32508 5.91667 32.852 -34.8811 80.9454 -37.1143C129.039 -39.3474 169.837 -2.17036 172.07 45.9231C174.303 94.0165 137.126 134.814 89.0324 137.047C40.939 139.281 0.141263 102.104 -2.09191 54.0101Z" fill="url(#paint1_linear_5481_122125)"/>
<path d="M45.5787 -85.8521C34.7295 -92.5656 20.9836 -92.6067 10.094 -85.9582L-98.8211 -19.4581C-109.488 -12.9451 -109.506 2.42794 -98.8535 8.96553L9.34205 75.3714C20.2153 82.0438 33.9613 82.0359 44.8251 75.3476L152.798 8.87961C163.394 2.35597 163.413 -12.9312 152.83 -19.4794L45.5787 -85.8521Z" fill="url(#paint2_linear_5481_122125)"/>
<path d="M-58.9346 76.9821C-36.4856 76.9821 -16.1507 86.0678 -1.42803 100.725C28.0173 130.091 52.4293 130.116 81.8747 100.801C96.5974 86.0678 116.957 76.957 139.432 76.957C184.355 76.9821 220.746 113.275 220.746 158.076C220.746 202.877 184.355 239.144 139.432 239.144C116.907 239.144 96.547 230.008 81.8243 215.275C52.4041 186.01 28.0173 186.035 -1.42803 215.401C-16.1507 230.083 -36.4856 239.144 -58.9346 239.144C-103.832 239.144 -140.224 202.851 -140.224 158.076C-140.224 113.3 -103.832 76.9821 -58.9346 76.9821Z" fill="url(#paint3_linear_5481_122125)"/>
</g>
</g>

</svg>
