<svg width="48" height="48" viewBox="0 0 48 48" xmlns="http://www.w3.org/2000/svg">
  <defs>
<radialGradient id="paint0_radial_5481_122317" cx="0" cy="0" r="1" gradientUnits="userSpaceOnUse" gradientTransform="translate(41.0005 28.7491) rotate(90) scale(57.8682 61.3872)">
<stop offset="0.0885417" stop-color="#EB1000"/>
<stop offset="1" stop-color="#EB1000" stop-opacity="0"/>
</radialGradient>
<linearGradient id="paint1_linear_5481_122317" x1="33.8666" y1="1.11236" x2="11.0375" y2="32.5107" gradientUnits="userSpaceOnUse">
<stop stop-color="#FF4885"/>
<stop offset="1" stop-color="#FF4885" stop-opacity="0"/>
</linearGradient>
<linearGradient id="paint2_linear_5481_122317" x1="18.8625" y1="-12.7432" x2="23.0947" y2="15.9897" gradientUnits="userSpaceOnUse">
<stop offset="0.15625" stop-color="#7A6AFD"/>
<stop offset="1" stop-color="#7A6AFD" stop-opacity="0"/>
</linearGradient>
<linearGradient id="paint3_linear_5481_122317" x1="-35.9438" y1="44.8712" x2="43.6014" y2="28.1943" gradientUnits="userSpaceOnUse">
<stop stop-color="#30A7FE" stop-opacity="0"/>
<stop offset="0.432292" stop-color="#30A7FE" stop-opacity="0.994652"/>
<stop offset="0.609375" stop-color="#30A7FE"/>
<stop offset="1" stop-color="#30A7FE" stop-opacity="0"/>
</linearGradient>
<clipPath id="clip0_5481_122317">
<rect x="3.10156" y="2.40039" width="42.5173" height="40.08" rx="10" fill="white"/>
</clipPath>
</defs>
<clipPath id="mask0_5481_122317">
<path fill-rule="evenodd" d="M42.0367 12.57C42.3367 11.979 43.0597 11.745 43.6507 12.045H43.6537C44.2447 12.345 44.4787 13.068 44.1787 13.659L40.8847 20.13C40.6717 20.547 40.2517 20.787 39.8137 20.787C39.6427 20.787 39.4717 20.748 39.3067 20.673L32.9557 17.712C32.3527 17.43 32.0917 16.716 32.3737 16.116C32.6557 15.516 33.3697 15.255 33.9697 15.537L38.1187 17.472C35.5717 12.057 30.0217 8.48398 23.9857 8.48398C17.0947 8.48398 10.9357 13.098 9.00675 19.704C8.85375 20.229 8.37375 20.568 7.85475 20.568C7.74375 20.568 7.62975 20.553 7.51875 20.52C6.88275 20.334 6.51675 19.668 6.70275 19.032C8.92875 11.409 16.0357 6.08398 23.9857 6.08398C30.8647 6.08398 37.1947 10.104 40.1797 16.221L42.0367 12.57ZM38.9409 28.467C39.1269 27.831 39.7929 27.465 40.4289 27.651V27.654C41.0649 27.84 41.4309 28.506 41.2449 29.142C39.0189 36.765 31.9119 42.09 23.9619 42.09C17.1159 42.09 10.8129 38.106 7.80994 32.037L5.96494 35.664C5.75194 36.081 5.33194 36.321 4.89394 36.321C4.71094 36.321 4.52494 36.279 4.35094 36.189C3.75994 35.889 3.52594 35.166 3.82594 34.575L7.11994 28.101C7.41394 27.525 8.11294 27.285 8.69794 27.558L15.0489 30.519C15.6519 30.801 15.9099 31.515 15.6309 32.115C15.3489 32.715 14.6349 32.973 14.0349 32.694L9.84994 30.741C12.4029 36.135 17.9409 39.687 23.9619 39.687C30.8529 39.687 37.0119 35.073 38.9409 28.467Z" fill="white"/>
<path d="M43.6507 12.045L43.515 12.3125L43.579 12.345H43.6507V12.045ZM42.0367 12.57L42.3041 12.706L42.3043 12.7058L42.0367 12.57ZM43.6537 12.045L43.7895 11.7775L43.7255 11.745H43.6537V12.045ZM44.1787 13.659L44.4461 13.7951L44.4463 13.7948L44.1787 13.659ZM40.8847 20.13L41.1519 20.2665L41.1521 20.2661L40.8847 20.13ZM39.3067 20.673L39.18 20.9449L39.1826 20.9461L39.3067 20.673ZM32.9557 17.712L32.8287 17.9837L32.829 17.9839L32.9557 17.712ZM32.3737 16.116L32.1022 15.9884L32.1022 15.9884L32.3737 16.116ZM33.9697 15.537L33.8421 15.8085L33.8429 15.8089L33.9697 15.537ZM38.1187 17.472L37.9919 17.7439L38.7429 18.0941L38.3902 17.3443L38.1187 17.472ZM9.00675 19.704L8.71877 19.6199L8.71873 19.62L9.00675 19.704ZM7.51875 20.52L7.60424 20.2324L7.60296 20.232L7.51875 20.52ZM6.70275 19.032L6.99069 19.1162L6.99072 19.1161L6.70275 19.032ZM40.1797 16.221L39.9101 16.3526L40.1742 16.8937L40.4471 16.357L40.1797 16.221ZM40.4289 27.651H40.7289V27.4262L40.5132 27.363L40.4289 27.651ZM38.9409 28.467L38.653 28.3828L38.653 28.3829L38.9409 28.467ZM40.4289 27.654H40.1289V27.8788L40.3447 27.9419L40.4289 27.654ZM41.2449 29.142L40.957 29.0578L40.957 29.0579L41.2449 29.142ZM7.80994 32.037L8.07883 31.9039L7.81365 31.368L7.54255 31.901L7.80994 32.037ZM5.96494 35.664L6.23211 35.8004L6.23234 35.8L5.96494 35.664ZM4.35094 36.189L4.48877 35.9225L4.48673 35.9215L4.35094 36.189ZM3.82594 34.575L3.55856 34.4389L3.55843 34.4392L3.82594 34.575ZM7.11994 28.101L6.85274 27.9646L6.85256 27.9649L7.11994 28.101ZM8.69794 27.558L8.57108 27.8298L8.57118 27.8299L8.69794 27.558ZM15.0489 30.519L15.176 30.2472L15.1757 30.2471L15.0489 30.519ZM15.6309 32.115L15.9025 32.2426L15.903 32.2415L15.6309 32.115ZM14.0349 32.694L13.9081 32.9658L13.9084 32.966L14.0349 32.694ZM9.84994 30.741L9.97681 30.4691L9.22283 30.1173L9.57878 30.8693L9.84994 30.741ZM43.7865 11.7775C43.0486 11.4029 42.1447 11.6946 41.7692 12.4342L42.3043 12.7058C42.5288 12.2633 43.0709 12.0871 43.515 12.3125L43.7865 11.7775ZM43.6537 11.745H43.6507V12.345H43.6537V11.745ZM44.4463 13.7948C44.8208 13.0569 44.5291 12.1529 43.7895 11.7775L43.518 12.3125C43.9604 12.5371 44.1367 13.0791 43.9112 13.5232L44.4463 13.7948ZM41.1521 20.2661L44.4461 13.7951L43.9114 13.5229L40.6174 19.9939L41.1521 20.2661ZM39.8137 21.087C40.3608 21.087 40.886 20.787 41.1519 20.2665L40.6176 19.9935C40.4575 20.307 40.1427 20.487 39.8137 20.487V21.087ZM39.1826 20.9461C39.3833 21.0373 39.5965 21.087 39.8137 21.087V20.487C39.689 20.487 39.5602 20.4586 39.4309 20.3999L39.1826 20.9461ZM32.829 17.9839L39.18 20.9449L39.4335 20.4011L33.0825 17.4401L32.829 17.9839ZM32.1022 15.9884C31.749 16.74 32.0769 17.6322 32.8287 17.9837L33.0828 17.4402C32.6286 17.2278 32.4345 16.6919 32.6453 16.2436L32.1022 15.9884ZM34.0974 15.2655C33.346 14.9123 32.4541 15.2398 32.1022 15.9884L32.6453 16.2436C32.8574 15.7921 33.3935 15.5976 33.8421 15.8085L34.0974 15.2655ZM38.2455 17.2001L34.0965 15.2651L33.8429 15.8089L37.9919 17.7439L38.2455 17.2001ZM23.9857 8.78398C29.9044 8.78398 35.3493 12.2888 37.8473 17.5997L38.3902 17.3443C35.7942 11.8252 30.1391 8.18398 23.9857 8.18398V8.78398ZM9.29472 19.7881C11.1863 13.3102 17.2278 8.78398 23.9857 8.78398V8.18398C16.9617 8.18398 10.6852 12.8857 8.71877 19.6199L9.29472 19.7881ZM7.85475 20.868C8.50288 20.868 9.10328 20.445 9.29476 19.7879L8.71873 19.62C8.60421 20.013 8.24461 20.268 7.85475 20.268V20.868ZM7.43326 20.8075C7.57406 20.8494 7.71702 20.868 7.85475 20.868V20.268C7.77047 20.268 7.68544 20.2566 7.60424 20.2324L7.43326 20.8075ZM6.41481 18.9478C6.18214 19.7433 6.64006 20.5756 7.43454 20.8079L7.60296 20.232C7.12544 20.0924 6.85135 19.5926 6.99069 19.1162L6.41481 18.9478ZM23.9857 5.78398C15.9026 5.78398 8.67819 11.1968 6.41477 18.9479L6.99072 19.1161C9.17931 11.6212 16.1689 6.38398 23.9857 6.38398V5.78398ZM40.4494 16.0894C37.4146 9.87052 30.9807 5.78398 23.9857 5.78398V6.38398C30.7488 6.38398 36.9749 10.3375 39.9101 16.3526L40.4494 16.0894ZM41.7693 12.434L39.9123 16.085L40.4471 16.357L42.3041 12.706L41.7693 12.434ZM40.5132 27.363C39.7176 27.1304 38.8854 27.5883 38.653 28.3828L39.2289 28.5512C39.3685 28.0737 39.8683 27.7996 40.3447 27.9389L40.5132 27.363ZM40.7289 27.654V27.651H40.1289V27.654H40.7289ZM41.5329 29.2262C41.7655 28.4306 41.3076 27.5984 40.5132 27.366L40.3447 27.9419C40.8223 28.0816 41.0963 28.5813 40.957 29.0578L41.5329 29.2262ZM23.9619 42.39C32.0451 42.39 39.2695 36.9772 41.5329 29.2261L40.957 29.0579C38.7684 36.5528 31.7788 41.79 23.9619 41.79V42.39ZM7.54106 32.17C10.594 38.34 17.0004 42.39 23.9619 42.39V41.79C17.2314 41.79 11.0319 37.872 8.07883 31.9039L7.54106 32.17ZM6.23234 35.8L8.07734 32.173L7.54255 31.901L5.69755 35.528L6.23234 35.8ZM4.89394 36.621C5.44102 36.621 5.96621 36.321 6.23211 35.8004L5.69778 35.5275C5.53767 35.841 5.22286 36.021 4.89394 36.021V36.621ZM4.21312 36.4555C4.4313 36.5683 4.66479 36.621 4.89394 36.621V36.021C4.75709 36.021 4.61858 35.9897 4.48877 35.9225L4.21312 36.4555ZM3.55843 34.4392C3.18386 35.1771 3.47558 36.0811 4.21515 36.4565L4.48673 35.9215C4.04431 35.6969 3.86802 35.1549 4.09345 34.7108L3.55843 34.4392ZM6.85256 27.9649L3.55856 34.4389L4.09332 34.711L7.38732 28.237L6.85256 27.9649ZM8.82481 27.2861C8.09336 26.9448 7.22016 27.2447 6.85274 27.9646L7.38715 28.2374C7.60772 27.8052 8.13253 27.6252 8.57108 27.8298L8.82481 27.2861ZM15.1757 30.2471L8.82471 27.2861L8.57118 27.8299L14.9222 30.7909L15.1757 30.2471ZM15.903 32.2415C16.2517 31.4916 15.929 30.5994 15.176 30.2472L14.9219 30.7907C15.3749 31.0026 15.5682 31.5384 15.3589 31.9885L15.903 32.2415ZM13.9084 32.966C14.658 33.3146 15.5501 32.9923 15.9024 32.2426L15.3594 31.9874C15.1478 32.4376 14.6119 32.6314 14.1614 32.422L13.9084 32.966ZM9.72308 31.0128L13.9081 32.9658L14.1618 32.4221L9.97681 30.4691L9.72308 31.0128ZM23.9619 39.387C18.0579 39.387 12.6249 35.9027 10.1211 30.6126L9.57878 30.8693C12.181 36.3672 17.824 39.987 23.9619 39.987V39.387ZM38.653 28.3829C36.7614 34.8607 30.7199 39.387 23.9619 39.387V39.987C30.986 39.987 37.2625 35.2852 39.2289 28.5511L38.653 28.3829Z" fill="white"/>
</clipPath>
<g clip-path="url(#mask0_5481_122317)">
<g clip-path="url(#clip0_5481_122317)">
<rect x="3.10156" y="2.40039" width="42.5173" height="40.08" rx="10" fill="#D9F4FD"/>
<ellipse cx="41.0005" cy="28.7491" rx="61.3872" ry="57.8682" fill="url(#paint0_radial_5481_122317)"/>
<path d="M-0.723398 14.9547C-1.40579 1.10129 9.95435 -10.6506 24.6502 -11.2938C39.346 -11.9371 51.8125 -1.2282 52.4949 12.6252C53.1773 26.4786 41.8171 38.2305 27.1213 38.8737C12.4255 39.517 -0.0410112 28.8081 -0.723398 14.9547Z" fill="url(#paint1_linear_5481_122317)"/>
<path d="M13.8414 -25.3343C10.5263 -27.2681 6.32593 -27.28 2.99843 -25.3649L-30.2826 -6.20939C-33.5421 -4.33332 -33.5475 0.0949148 -30.2925 1.97808L2.76865 21.1064C6.09117 23.0284 10.2915 23.0261 13.6112 21.0995L46.6042 1.95333C49.842 0.0741832 49.8479 -4.3293 46.614 -6.21554L13.8414 -25.3343Z" fill="url(#paint2_linear_5481_122317)"/>
<path d="M-18.0944 21.5717C-11.2347 21.5717 -5.02097 24.1888 -0.522188 28.411C8.47538 36.8697 15.9349 36.8769 24.9325 28.4327C29.4313 24.1888 35.6527 21.5645 42.52 21.5645C56.2471 21.5717 67.3672 32.0258 67.3672 44.9308C67.3672 57.8358 56.2471 68.2827 42.52 68.2827C35.6373 68.2827 29.4159 65.6511 24.9171 61.4073C15.9272 52.9774 8.47538 52.9847 -0.522188 61.4434C-5.02097 65.6728 -11.2347 68.2827 -18.0944 68.2827C-31.8137 68.2827 -42.9338 57.8286 -42.9338 44.9308C-42.9338 32.033 -31.8137 21.5717 -18.0944 21.5717Z" fill="url(#paint3_linear_5481_122317)"/>
</g>
</g>

</svg>
