<svg width="96" height="96" viewBox="0 0 96 96" xmlns="http://www.w3.org/2000/svg">
  <defs>
<radialGradient id="paint0_radial_5481_122496" cx="0" cy="0" r="1" gradientUnits="userSpaceOnUse" gradientTransform="translate(78.2124 60.6236) rotate(90) scale(102.569 108.806)">
<stop offset="0.0885417" stop-color="#EB1000"/>
<stop offset="1" stop-color="#EB1000" stop-opacity="0"/>
</radialGradient>
<linearGradient id="paint1_linear_5481_122496" x1="65.5656" y1="11.6361" x2="25.102" y2="67.2883" gradientUnits="userSpaceOnUse">
<stop stop-color="#FF4885"/>
<stop offset="1" stop-color="#FF4885" stop-opacity="0"/>
</linearGradient>
<linearGradient id="paint2_linear_5481_122496" x1="38.9776" y1="-12.9196" x2="46.4789" y2="38.0082" gradientUnits="userSpaceOnUse">
<stop offset="0.15625" stop-color="#7A6AFD"/>
<stop offset="1" stop-color="#7A6AFD" stop-opacity="0"/>
</linearGradient>
<linearGradient id="paint3_linear_5481_122496" x1="-58.1649" y1="89.197" x2="82.8254" y2="59.6379" gradientUnits="userSpaceOnUse">
<stop stop-color="#30A7FE" stop-opacity="0"/>
<stop offset="0.432292" stop-color="#30A7FE" stop-opacity="0.994652"/>
<stop offset="0.609375" stop-color="#30A7FE"/>
<stop offset="1" stop-color="#30A7FE" stop-opacity="0"/>
</linearGradient>
<clipPath id="clip0_5481_122496">
<rect x="11.0391" y="13.9199" width="75.36" height="71.04" rx="10" fill="white"/>
</clipPath>
</defs>
<clipPath id="mask0_5481_122496">
<path fill-rule="evenodd" d="M75.7217 50.6464L65.3717 48.3184C63.8357 47.9704 62.2217 48.4024 61.0637 49.4704L53.2637 56.6584C49.8017 59.8504 44.2937 56.6704 45.3257 52.0744L47.6537 41.7244C48.0017 40.1884 47.5697 38.5744 46.5017 37.4164L39.3137 29.6164C36.1217 26.1544 39.3017 20.6464 43.8977 21.6784L54.2477 24.0064C55.7837 24.3544 57.3977 23.9224 58.5557 22.8544L66.3557 15.6664C69.8177 12.4744 75.3257 15.6544 74.2937 20.2504L71.9657 30.6004C71.6177 32.1364 72.0497 33.7504 73.1177 34.9084L80.3057 42.7084C83.4977 46.1704 80.3177 51.6784 75.7217 50.6464ZM38.5585 77.9164L31.2625 76.2724C30.2965 76.0564 29.2945 76.3264 28.5685 76.9924L23.0725 82.0624C20.9065 84.0604 17.4625 82.0684 18.1105 79.2004L19.7545 71.9044C19.9705 70.9384 19.7005 69.9364 19.0345 69.2104L13.9645 63.7144C11.9665 61.5484 13.9585 58.1044 16.8265 58.7524L24.1225 60.3964C25.0885 60.6124 26.0905 60.3424 26.8165 59.6764L32.3125 54.6064C34.4785 52.6084 37.9225 54.6004 37.2745 57.4684L35.6305 64.7644C35.4145 65.7304 35.6845 66.7324 36.3505 67.4584L41.4205 72.9544C43.4185 75.1204 41.4265 78.5644 38.5585 77.9164Z" fill="white"/>
</clipPath>
<g clip-path="url(#mask0_5481_122496)">
<g clip-path="url(#clip0_5481_122496)">
<rect x="11.0391" y="13.9199" width="75.36" height="71.04" rx="10" fill="#D9F4FD"/>
<ellipse cx="78.2124" cy="60.6236" rx="108.806" ry="102.569" fill="url(#paint0_radial_5481_122496)"/>
<path d="M4.25636 36.171C3.04686 11.6164 23.1822 -9.21323 49.2299 -10.3534C75.2776 -11.4936 97.3739 7.48752 98.5834 32.0421C99.7929 56.5966 79.6576 77.4262 53.6099 78.5664C27.5622 79.7066 5.46586 60.7255 4.25636 36.171Z" fill="url(#paint1_linear_5481_122496)"/>
<path d="M30.0779 -35.2368C24.2019 -38.6645 16.757 -38.6854 10.8591 -35.291L-48.13 -1.33878C-53.9073 1.98648 -53.9169 9.83532 -48.1475 13.1731L10.4519 47.0772C16.3409 50.4839 23.7858 50.4799 29.6697 47.0651L88.1484 13.1293C93.8873 9.79858 93.8977 1.9936 88.1659 -1.34968L30.0779 -35.2368Z" fill="url(#paint2_linear_5481_122496)"/>
<path d="M-26.5276 47.8995C-14.3691 47.8995 -3.35561 52.5383 4.61829 60.0219C20.5661 75.0146 33.7878 75.0274 49.7356 60.0603C57.7095 52.5383 68.7366 47.8867 80.9088 47.8867C105.239 47.8995 124.949 66.429 124.949 89.3025C124.949 112.176 105.239 130.693 80.9088 130.693C68.7094 130.693 57.6822 126.028 49.7083 118.506C33.7741 103.565 20.5661 103.578 4.61829 118.57C-3.35561 126.067 -14.3691 130.693 -26.5276 130.693C-50.8446 130.693 -70.5544 112.163 -70.5544 89.3025C-70.5544 66.4418 -50.8446 47.8995 -26.5276 47.8995Z" fill="url(#paint3_linear_5481_122496)"/>
</g>
</g>

</svg>
