<svg width="160" height="160" viewBox="0 0 160 160" xmlns="http://www.w3.org/2000/svg">
  <defs>
<radialGradient id="paint0_radial_5481_122106" cx="0" cy="0" r="1" gradientUnits="userSpaceOnUse" gradientTransform="translate(131.327 99.599) rotate(90) scale(177.012 187.776)">
<stop offset="0.0885417" stop-color="#EB1000"/>
<stop offset="1" stop-color="#EB1000" stop-opacity="0"/>
</radialGradient>
<linearGradient id="paint1_linear_5481_122106" x1="109.5" y1="15.0572" x2="39.6689" y2="111.101" gradientUnits="userSpaceOnUse">
<stop stop-color="#FF4885"/>
<stop offset="1" stop-color="#FF4885" stop-opacity="0"/>
</linearGradient>
<linearGradient id="paint2_linear_5481_122106" x1="63.6138" y1="-27.3212" x2="76.5595" y2="60.5694" gradientUnits="userSpaceOnUse">
<stop offset="0.15625" stop-color="#7A6AFD"/>
<stop offset="1" stop-color="#7A6AFD" stop-opacity="0"/>
</linearGradient>
<linearGradient id="paint3_linear_5481_122106" x1="-104.036" y1="148.911" x2="139.284" y2="97.8982" gradientUnits="userSpaceOnUse">
<stop stop-color="#30A7FE" stop-opacity="0"/>
<stop offset="0.432292" stop-color="#30A7FE" stop-opacity="0.994652"/>
<stop offset="0.609375" stop-color="#30A7FE"/>
<stop offset="1" stop-color="#30A7FE" stop-opacity="0"/>
</linearGradient>
<clipPath id="clip0_5481_122106">
<rect x="15.3984" y="19" width="130.055" height="122.6" rx="10" fill="white"/>
</clipPath>
</defs>
<clipPath id="mask0_5481_122106">
<path d="M127.029 28H32.9688C24.1288 28 16.9688 35.16 16.9688 44V88C16.9688 96.84 24.1288 104 32.9688 104H68.9987V128H58.9888C56.7788 128 54.9888 129.79 54.9888 132C54.9888 134.21 56.7788 136 58.9888 136H101.009C103.219 136 105.009 134.21 105.009 132C105.009 129.79 103.219 128 101.009 128H90.9987V104H127.029C135.869 104 143.029 96.84 143.029 88V44C143.029 35.16 135.869 28 127.029 28ZM80.0187 48C77.8087 48 76.0187 46.21 76.0187 44C76.0187 41.79 77.8088 40 80.0088 40H80.0187C82.2287 40 84.0187 41.79 84.0187 44C84.0187 46.21 82.2287 48 80.0187 48Z" fill="white"/>
</clipPath>
<g clip-path="url(#mask0_5481_122106)">
<g clip-path="url(#clip0_5481_122106)">
<rect x="15.3984" y="19" width="130.055" height="122.6" rx="10" fill="#D9F4FD"/>
<ellipse cx="131.327" cy="99.599" rx="187.776" ry="177.012" fill="url(#paint0_radial_5481_122106)"/>
<path d="M3.69374 57.3992C1.6064 15.0233 36.3557 -20.9243 81.3085 -22.8919C126.261 -24.8596 164.395 7.8977 166.482 50.2736C168.57 92.6495 133.82 128.597 88.8675 130.565C43.9146 132.532 5.78108 99.7751 3.69374 57.3992Z" fill="url(#paint1_linear_5481_122106)"/>
<path d="M48.2548 -65.8359C38.1141 -71.7513 25.2658 -71.7875 15.0874 -65.9294L-86.7154 -7.3351C-96.6857 -1.59641 -96.7023 11.949 -86.7456 17.7094L14.3845 76.2207C24.5477 82.0999 37.3961 82.0929 47.5505 76.1997L148.472 17.6337C158.376 11.8856 158.394 -1.58413 148.502 -7.35391L48.2548 -65.8359Z" fill="url(#paint2_linear_5481_122106)"/>
<path d="M-49.4364 77.6403C-28.4534 77.6403 -9.44639 85.6458 4.31487 98.5608C31.8374 124.435 54.6552 124.457 82.1777 98.6272C95.939 85.6458 114.969 77.6182 135.976 77.6182C177.965 77.6403 211.98 109.618 211.98 149.093C211.98 188.568 177.965 220.524 135.976 220.524C114.922 220.524 95.8919 212.474 82.1307 199.493C54.6317 173.707 31.8374 173.729 4.31487 199.603C-9.44639 212.54 -28.4534 220.524 -49.4364 220.524C-91.4023 220.524 -125.417 188.546 -125.417 149.093C-125.417 109.64 -91.4023 77.6403 -49.4364 77.6403Z" fill="url(#paint3_linear_5481_122106)"/>
</g>
</g>

</svg>
