<svg width="160" height="160" viewBox="0 0 160 160" xmlns="http://www.w3.org/2000/svg">
  <defs>
<radialGradient id="paint0_radial_5481_122216" cx="0" cy="0" r="1" gradientUnits="userSpaceOnUse" gradientTransform="translate(142.62 105.187) rotate(90) scale(231.011)">
<stop offset="0.0885417" stop-color="#EB1000"/>
<stop offset="1" stop-color="#EB1000" stop-opacity="0"/>
</radialGradient>
<linearGradient id="paint1_linear_5481_122216" x1="115.768" y1="-5.14512" x2="23.108" y2="114.991" gradientUnits="userSpaceOnUse">
<stop stop-color="#FF4885"/>
<stop offset="1" stop-color="#FF4885" stop-opacity="0"/>
</linearGradient>
<linearGradient id="paint2_linear_5481_122216" x1="59.3137" y1="-60.4521" x2="77.1884" y2="53.9458" gradientUnits="userSpaceOnUse">
<stop offset="0.15625" stop-color="#7A6AFD"/>
<stop offset="1" stop-color="#7A6AFD" stop-opacity="0"/>
</linearGradient>
<linearGradient id="paint3_linear_5481_122216" x1="-146.934" y1="169.541" x2="153.819" y2="110.102" gradientUnits="userSpaceOnUse">
<stop stop-color="#30A7FE" stop-opacity="0"/>
<stop offset="0.432292" stop-color="#30A7FE" stop-opacity="0.994652"/>
<stop offset="0.609375" stop-color="#30A7FE"/>
<stop offset="1" stop-color="#30A7FE" stop-opacity="0"/>
</linearGradient>
<clipPath id="clip0_5481_122216">
<rect width="160" height="160" rx="10" fill="white"/>
</clipPath>
</defs>
<clipPath id="mask0_5481_122216">
<path fill-rule="evenodd" d="M106.073 50.9011L103.952 60.741L103.952 60.7413C103.012 65.111 108.03 68.1343 111.185 65.0995L118.292 58.2656C119.347 57.2502 120.817 56.8395 122.217 57.1703L131.647 59.3837C131.751 59.4081 131.854 59.4286 131.957 59.4454V59.4451C135.975 60.1053 138.66 55.046 135.824 51.8363L129.274 44.4205C128.434 43.47 128.026 42.1964 128.134 40.9264C128.144 40.8172 128.157 40.7081 128.174 40.5992C128.188 40.5075 128.205 40.4159 128.225 40.3247L130.346 30.4845C131.286 26.1148 126.268 23.0915 123.113 26.1262L116.006 32.9602C114.951 33.9756 113.481 34.3863 112.081 34.0555L102.651 31.8421C99.3996 31.0803 96.926 34.0672 97.344 36.9814H97.3439C97.4642 37.8205 97.8242 38.6536 98.4744 39.3895L105.024 46.8053C105.856 47.747 106.264 49.006 106.167 50.2645C106.15 50.4771 106.119 50.6897 106.073 50.9008L106.073 50.9011ZM89.3155 36.9814H40.4886C33.7294 36.9814 28.25 42.3038 28.25 49.0211V88.6812C28.25 95.3984 33.7294 100.721 40.4886 100.721H50.9129C50.9368 106.46 50.9587 114.673 50.9129 120.928C50.8874 124.416 55.0125 126.303 57.6646 124.018L84.9072 100.721H119.718C126.477 100.721 131.957 95.3984 131.957 88.6812V67.4896C131.261 67.4465 130.549 67.343 129.822 67.1727L129.819 67.172L122.386 65.4274L116.731 70.8646L116.73 70.866C112.272 75.153 106.199 75.137 101.904 72.5494C97.6643 69.9947 94.8895 64.8285 96.1311 59.0583L97.9048 50.83L92.4794 44.6866L92.478 44.6851C90.4121 42.3463 89.4435 39.634 89.3155 36.9814ZM90.3584 84.0609L83.4271 82.4991C82.5094 82.2939 81.5575 82.5504 80.8678 83.1831L75.6466 87.9996C73.5889 89.8978 70.317 88.0053 70.9326 85.2807L72.4944 78.3495C72.6996 77.4318 72.4431 76.4799 71.8104 75.7902L66.9939 70.5689C65.0958 68.5112 66.9882 65.2394 69.7128 65.855L76.6441 67.4168C77.5618 67.622 78.5137 67.3655 79.2034 66.7328L84.4246 61.9163C86.4823 60.0182 89.7542 61.9106 89.1386 64.6352L87.5767 71.5664C87.3715 72.4841 87.628 73.4361 88.2608 74.1258L93.0773 79.347C94.9754 81.4047 93.083 84.6765 90.3584 84.0609Z" fill="white"/>
</clipPath>
<g clip-path="url(#mask0_5481_122216)">
<g clip-path="url(#clip0_5481_122216)">
<rect width="160" height="160" rx="10" fill="#D9F4FD"/>
<circle cx="142.62" cy="105.187" r="231.011" fill="url(#paint0_radial_5481_122216)"/>
<path d="M-14.3999 50.1137C-16.9679 -5.18932 25.7823 -52.103 81.0853 -54.6709C136.388 -57.2388 183.302 -14.4887 185.87 40.8143C188.438 96.1173 145.688 143.031 90.3846 145.599C35.0817 148.167 -11.832 105.417 -14.3999 50.1137Z" fill="url(#paint1_linear_5481_122216)"/>
<path d="M40.4184 -110.716C27.9428 -118.436 12.1362 -118.483 -0.385738 -110.838L-125.628 -34.3691C-137.894 -26.8797 -137.914 -9.20217 -125.665 -1.68455L-1.25042 74.676C11.2528 82.3487 27.0594 82.3396 39.5518 74.6486L163.71 -1.78335C175.895 -9.28493 175.917 -26.8637 163.748 -34.3936L40.4184 -110.716Z" fill="url(#paint2_linear_5481_122216)"/>
<path d="M-79.7631 76.5289C-53.9489 76.5289 -30.5656 86.9766 -13.6359 103.831C20.2235 137.599 48.2951 137.628 82.1545 103.918C99.0842 86.9766 122.496 76.5 148.34 76.5C199.997 76.5289 241.844 118.262 241.844 169.779C241.844 221.296 199.997 263 148.34 263C122.439 263 99.0263 252.495 82.0966 235.553C48.2661 201.901 20.2235 201.93 -13.6359 235.697C-30.5656 252.581 -53.9489 263 -79.7631 263C-131.392 263 -173.238 221.267 -173.238 169.779C-173.238 118.291 -131.392 76.5289 -79.7631 76.5289Z" fill="url(#paint3_linear_5481_122216)"/>
</g>
</g>

</svg>
