<svg width="160" height="160" viewBox="0 0 160 160" xmlns="http://www.w3.org/2000/svg">
  <defs>
<radialGradient id="paint0_radial_5481_122241" cx="0" cy="0" r="1" gradientUnits="userSpaceOnUse" gradientTransform="translate(142.62 105.187) rotate(90) scale(231.011)">
<stop offset="0.0885417" stop-color="#EB1000"/>
<stop offset="1" stop-color="#EB1000" stop-opacity="0"/>
</radialGradient>
<linearGradient id="paint1_linear_5481_122241" x1="115.768" y1="-5.14512" x2="23.108" y2="114.991" gradientUnits="userSpaceOnUse">
<stop stop-color="#FF4885"/>
<stop offset="1" stop-color="#FF4885" stop-opacity="0"/>
</linearGradient>
<linearGradient id="paint2_linear_5481_122241" x1="59.3137" y1="-60.4521" x2="77.1884" y2="53.9458" gradientUnits="userSpaceOnUse">
<stop offset="0.15625" stop-color="#7A6AFD"/>
<stop offset="1" stop-color="#7A6AFD" stop-opacity="0"/>
</linearGradient>
<linearGradient id="paint3_linear_5481_122241" x1="-146.934" y1="169.541" x2="153.819" y2="110.102" gradientUnits="userSpaceOnUse">
<stop stop-color="#30A7FE" stop-opacity="0"/>
<stop offset="0.432292" stop-color="#30A7FE" stop-opacity="0.994652"/>
<stop offset="0.609375" stop-color="#30A7FE"/>
<stop offset="1" stop-color="#30A7FE" stop-opacity="0"/>
</linearGradient>
<clipPath id="clip0_5481_122241">
<rect width="160" height="160" rx="10" fill="white"/>
</clipPath>
</defs>
<clipPath id="mask0_5481_122241">
<path fill-rule="evenodd" d="M84 24C84 21.7909 82.2091 20 80 20C77.7909 20 76 21.7909 76 24V31.9381C76 34.1472 77.7909 35.9381 80 35.9381C82.2091 35.9381 84 34.1472 84 31.9381V24ZM79.771 55.7198C66.4647 55.8424 55.7158 66.6672 55.7158 80.0024C55.7158 93.3377 66.4647 104.162 79.771 104.285V55.7198ZM79.9995 47.7188C62.1697 47.7188 47.7158 62.1726 47.7158 80.0024C47.7158 97.8322 62.1697 112.286 79.9995 112.286C97.8293 112.286 112.283 97.8322 112.283 80.0024C112.283 62.1726 97.8293 47.7188 79.9995 47.7188ZM80.0002 124.062C82.2094 124.062 84.0002 125.853 84.0002 128.062V136C84.0002 138.209 82.2094 140 80.0002 140C77.7911 140 76.0002 138.209 76.0002 136V128.062C76.0002 125.853 77.7911 124.062 80.0002 124.062ZM136 84C138.209 84 140 82.2091 140 80C140 77.7909 138.209 76 136 76H128.062C125.853 76 124.062 77.7909 124.062 80C124.062 82.2091 125.853 84 128.062 84H136ZM35.9381 80C35.9381 82.2091 34.1472 84 31.9381 84H24C21.7909 84 20 82.2091 20 80C20 77.7909 21.7909 76 24 76H31.9381C34.1472 76 35.9381 77.7909 35.9381 80ZM122.426 43.2299C123.988 41.6678 123.988 39.1351 122.426 37.573C120.864 36.0109 118.331 36.0109 116.769 37.573L111.156 43.1861C109.594 44.7482 109.594 47.2808 111.156 48.8429C112.718 50.405 115.251 50.405 116.813 48.8429L122.426 43.2299ZM48.8426 111.156C50.4047 112.718 50.4047 115.251 48.8426 116.813L43.2295 122.426C41.6674 123.988 39.1348 123.988 37.5727 122.426C36.0106 120.864 36.0106 118.332 37.5727 116.769L43.1858 111.156C44.7479 109.594 47.2805 109.594 48.8426 111.156ZM37.5723 43.228C36.0102 41.6659 36.0102 39.1332 37.5723 37.5711C39.1344 36.009 41.6671 36.009 43.2292 37.5711L48.8423 43.1842C50.4044 44.7463 50.4044 47.279 48.8423 48.8411C47.2802 50.4031 44.7475 50.4031 43.1854 48.8411L37.5723 43.228ZM111.156 111.154C109.594 112.717 109.594 115.249 111.156 116.811L116.769 122.424C118.331 123.987 120.864 123.987 122.426 122.424C123.988 120.862 123.988 118.33 122.426 116.768L116.813 111.154C115.251 109.592 112.718 109.592 111.156 111.154Z" fill="white"/>
</clipPath>
<g clip-path="url(#mask0_5481_122241)">
<g clip-path="url(#clip0_5481_122241)">
<rect width="160" height="160" rx="10" fill="#D9F4FD"/>
<circle cx="142.62" cy="105.187" r="231.011" fill="url(#paint0_radial_5481_122241)"/>
<path d="M-14.3999 50.1137C-16.9679 -5.18932 25.7823 -52.103 81.0853 -54.6709C136.388 -57.2388 183.302 -14.4887 185.87 40.8143C188.438 96.1173 145.688 143.031 90.3846 145.599C35.0817 148.167 -11.832 105.417 -14.3999 50.1137Z" fill="url(#paint1_linear_5481_122241)"/>
<path d="M40.4184 -110.716C27.9428 -118.436 12.1362 -118.483 -0.385738 -110.838L-125.628 -34.3691C-137.894 -26.8797 -137.914 -9.20217 -125.665 -1.68455L-1.25042 74.676C11.2528 82.3487 27.0594 82.3396 39.5518 74.6486L163.71 -1.78335C175.895 -9.28493 175.917 -26.8637 163.748 -34.3936L40.4184 -110.716Z" fill="url(#paint2_linear_5481_122241)"/>
<path d="M-79.7631 76.5289C-53.9489 76.5289 -30.5656 86.9766 -13.6359 103.831C20.2235 137.599 48.2951 137.628 82.1545 103.918C99.0842 86.9766 122.496 76.5 148.34 76.5C199.997 76.5289 241.844 118.262 241.844 169.779C241.844 221.296 199.997 263 148.34 263C122.439 263 99.0263 252.495 82.0966 235.553C48.2661 201.901 20.2235 201.93 -13.6359 235.697C-30.5656 252.581 -53.9489 263 -79.7631 263C-131.392 263 -173.238 221.267 -173.238 169.779C-173.238 118.291 -131.392 76.5289 -79.7631 76.5289Z" fill="url(#paint3_linear_5481_122241)"/>
</g>
</g>

</svg>
