<svg width="100" height="96" viewBox="0 0 100 96" xmlns="http://www.w3.org/2000/svg">
  <defs>
<radialGradient id="paint0_radial_5481_122526" cx="0" cy="0" r="1" gradientUnits="userSpaceOnUse" gradientTransform="translate(87.5441 63.1124) rotate(90) scale(138.607)">
<stop offset="0.0885417" stop-color="#EB1000"/>
<stop offset="1" stop-color="#EB1000" stop-opacity="0"/>
</radialGradient>
<linearGradient id="paint1_linear_5481_122526" x1="71.4344" y1="-3.08825" x2="15.8382" y2="68.9935" gradientUnits="userSpaceOnUse">
<stop stop-color="#FF4885"/>
<stop offset="1" stop-color="#FF4885" stop-opacity="0"/>
</linearGradient>
<linearGradient id="paint2_linear_5481_122526" x1="37.5624" y1="-36.2716" x2="48.2872" y2="32.3671" gradientUnits="userSpaceOnUse">
<stop offset="0.15625" stop-color="#7A6AFD"/>
<stop offset="1" stop-color="#7A6AFD" stop-opacity="0"/>
</linearGradient>
<linearGradient id="paint3_linear_5481_122526" x1="-86.1883" y1="101.725" x2="94.2634" y2="66.0615" gradientUnits="userSpaceOnUse">
<stop stop-color="#30A7FE" stop-opacity="0"/>
<stop offset="0.432292" stop-color="#30A7FE" stop-opacity="0.994652"/>
<stop offset="0.609375" stop-color="#30A7FE"/>
<stop offset="1" stop-color="#30A7FE" stop-opacity="0"/>
</linearGradient>
<clipPath id="clip0_5481_122526">
<rect x="1.97266" width="96" height="96" rx="10" fill="white"/>
</clipPath>
</defs>
<clipPath id="mask0_5481_122526">
<path fill-rule="evenodd" d="M40.2836 76.9653C43.504 78.1642 46.9066 78.7813 50.3445 78.7813L50.3328 78.7695H64.6484C64.6778 78.7695 64.7366 78.7636 64.7366 78.7636H68.7034C70.1725 78.7636 71.6946 78.3581 72.8699 77.459C74.0629 76.5422 74.8563 75.1377 74.8563 73.2454C74.8563 72.6342 74.7681 71.5529 74.2451 70.4951C73.9983 69.9838 73.6457 69.4843 73.1638 69.0494C75.6144 68.9084 77.683 67.1336 78.1825 64.7065C78.635 62.5028 77.6888 60.3871 76.0199 59.1883C78.2941 58.6241 80.016 56.626 80.1394 54.1872C80.2393 52.2126 79.2756 50.4496 77.7594 49.4153C79.9102 48.7689 81.5087 46.8296 81.6321 44.4789C81.7908 41.3701 79.3108 38.7609 76.1962 38.7609H59.9059C59.0185 38.7609 58.3839 37.897 58.6483 37.0507L59.8236 33.2779C60.8756 29.9046 61.5455 26.4256 61.8335 22.9055L61.998 20.8663C62.2449 17.828 59.8413 15.2188 56.7854 15.2188C54.7697 15.2188 52.9361 16.3823 52.0664 18.1982L46.5952 29.6578C46.0839 30.7274 45.4962 31.7558 44.838 32.7372L44.7029 32.9429C41.5373 37.6535 36.54 40.7479 31.0066 41.5396V73.865C32.4112 74.1509 33.7937 74.5464 35.1415 75.0495L40.2836 76.9653ZM27.0066 73.3514V41.7403H24.7691C21.196 41.7403 18.3047 44.6317 18.3047 48.2047V66.8456C18.3047 70.4187 21.196 73.31 24.7691 73.31H25.4919C25.9977 73.31 26.5028 73.3239 27.0066 73.3514Z" fill="white"/>
</clipPath>
<g clip-path="url(#mask0_5481_122526)">
<g clip-path="url(#clip0_5481_122526)">
<rect x="1.97266" width="96" height="96" rx="10" fill="#D9F4FD"/>
<circle cx="87.5441" cy="63.1124" r="138.607" fill="url(#paint0_radial_5481_122526)"/>
<path d="M-6.66653 30.067C-8.2073 -3.11477 17.4428 -31.263 50.6246 -32.8037C83.8064 -34.3445 111.955 -8.69438 113.495 24.4874C115.036 57.6692 89.386 85.8174 56.2042 87.3582C23.0224 88.8989 -5.12576 63.2488 -6.66653 30.067Z" fill="url(#paint1_linear_5481_122526)"/>
<path d="M26.2252 -66.43C18.7399 -71.0619 9.25596 -71.0903 1.74278 -66.5032L-73.4026 -20.6218C-80.7622 -16.1282 -80.7745 -5.52169 -73.4249 -1.01111L1.22397 44.8052C8.7259 49.4089 18.2099 49.4034 25.7053 44.7888L100.2 -1.0704C107.511 -5.57135 107.524 -16.1186 100.223 -20.6366L26.2252 -66.43Z" fill="url(#paint2_linear_5481_122526)"/>
<path d="M-45.886 45.9177C-30.3975 45.9177 -16.3675 52.1863 -6.20966 62.2992C14.106 82.5597 30.9489 82.577 51.2646 62.3512C61.4224 52.1863 75.4697 45.9004 90.9756 45.9004C121.97 45.9177 147.078 70.9575 147.078 101.868C147.078 132.778 121.97 157.8 90.9756 157.8C75.435 157.8 61.3877 151.497 51.2299 141.332C30.9315 121.141 14.106 121.158 -6.20966 141.419C-16.3675 151.549 -30.3975 157.8 -45.886 157.8C-76.863 157.8 -101.971 132.761 -101.971 101.868C-101.971 70.9749 -76.863 45.9177 -45.886 45.9177Z" fill="url(#paint3_linear_5481_122526)"/>
</g>
</g>

</svg>
