<svg width="160" height="160" viewBox="0 0 160 160" xmlns="http://www.w3.org/2000/svg">
  <defs>
<radialGradient id="paint0_radial_5481_122212" cx="0" cy="0" r="1" gradientUnits="userSpaceOnUse" gradientTransform="translate(142.62 105.187) rotate(90) scale(231.011)">
<stop offset="0.0885417" stop-color="#EB1000"/>
<stop offset="1" stop-color="#EB1000" stop-opacity="0"/>
</radialGradient>
<linearGradient id="paint1_linear_5481_122212" x1="115.768" y1="-5.14512" x2="23.108" y2="114.991" gradientUnits="userSpaceOnUse">
<stop stop-color="#FF4885"/>
<stop offset="1" stop-color="#FF4885" stop-opacity="0"/>
</linearGradient>
<linearGradient id="paint2_linear_5481_122212" x1="59.3137" y1="-60.4521" x2="77.1884" y2="53.9458" gradientUnits="userSpaceOnUse">
<stop offset="0.15625" stop-color="#7A6AFD"/>
<stop offset="1" stop-color="#7A6AFD" stop-opacity="0"/>
</linearGradient>
<linearGradient id="paint3_linear_5481_122212" x1="-146.934" y1="169.541" x2="153.819" y2="110.102" gradientUnits="userSpaceOnUse">
<stop stop-color="#30A7FE" stop-opacity="0"/>
<stop offset="0.432292" stop-color="#30A7FE" stop-opacity="0.994652"/>
<stop offset="0.609375" stop-color="#30A7FE"/>
<stop offset="1" stop-color="#30A7FE" stop-opacity="0"/>
</linearGradient>
<clipPath id="clip0_5481_122212">
<rect width="160" height="160" rx="10" fill="white"/>
</clipPath>
</defs>
<clipPath id="mask0_5481_122212">
<path fill-rule="evenodd" d="M40.2305 24.2676C31.3939 24.2676 24.2305 31.431 24.2305 40.2676V55.605C24.2305 64.4416 31.3939 71.605 40.2305 71.605H55.5679C64.4044 71.605 71.5679 64.4416 71.5679 55.605V40.2676C71.5679 31.431 64.4044 24.2676 55.5679 24.2676H40.2305ZM91.9734 26.1996C89.7655 26.1247 87.915 27.8539 87.8402 30.0618C87.7654 32.2697 89.4945 34.1201 91.7024 34.195C96.5764 34.3601 101.567 35.7647 105.33 39.405C108.577 42.5463 111.361 47.7915 112.005 56.6039L105.828 50.4263C104.266 48.8642 101.733 48.8642 100.171 50.4263C98.6089 51.9884 98.6089 54.521 100.171 56.0831L112.595 68.5071C114.157 70.0692 116.69 70.0692 118.252 68.5071L130.716 56.0431C132.278 54.481 132.278 51.9483 130.716 50.3862C129.154 48.8241 126.621 48.8241 125.059 50.3862L119.943 55.5026C119.114 45.4901 115.797 38.4007 110.892 33.6553C105.247 28.1942 98.0842 26.4067 91.9734 26.1996ZM47.2443 91.4931C45.6822 89.931 43.1496 89.931 41.5875 91.4931L29.1234 103.957C27.5613 105.519 27.5613 108.052 29.1234 109.614C30.6855 111.176 33.2182 111.176 34.7803 109.614L39.8963 104.498C40.7247 114.51 44.0417 121.599 48.9466 126.345C54.5914 131.806 61.7547 133.593 67.8655 133.8C70.0734 133.875 71.9239 132.146 71.9987 129.938C72.0735 127.73 70.3443 125.88 68.1365 125.805C63.2625 125.64 58.2719 124.235 54.5092 120.595C51.2622 117.454 48.4773 112.208 47.8334 103.396L54.0115 109.574C55.5736 111.136 58.1062 111.136 59.6683 109.574C61.2304 108.012 61.2304 105.479 59.6683 103.917L47.2443 91.4931ZM104.432 88.3955C95.5956 88.3955 88.4321 95.559 88.4321 104.396V119.733C88.4321 128.569 95.5956 135.733 104.432 135.733H119.77C128.606 135.733 135.77 128.569 135.77 119.733V104.396C135.77 95.559 128.606 88.3955 119.77 88.3955H104.432Z" fill="white"/>
</clipPath>
<g clip-path="url(#mask0_5481_122212)">
<g clip-path="url(#clip0_5481_122212)">
<rect width="160" height="160" rx="10" fill="#D9F4FD"/>
<circle cx="142.62" cy="105.187" r="231.011" fill="url(#paint0_radial_5481_122212)"/>
<path d="M-14.3999 50.1137C-16.9679 -5.18932 25.7823 -52.103 81.0853 -54.6709C136.388 -57.2388 183.302 -14.4887 185.87 40.8143C188.438 96.1173 145.688 143.031 90.3846 145.599C35.0817 148.167 -11.832 105.417 -14.3999 50.1137Z" fill="url(#paint1_linear_5481_122212)"/>
<path d="M40.4184 -110.716C27.9428 -118.436 12.1362 -118.483 -0.385738 -110.838L-125.628 -34.3691C-137.894 -26.8797 -137.914 -9.20217 -125.665 -1.68455L-1.25042 74.676C11.2528 82.3487 27.0594 82.3396 39.5518 74.6486L163.71 -1.78335C175.895 -9.28493 175.917 -26.8637 163.748 -34.3936L40.4184 -110.716Z" fill="url(#paint2_linear_5481_122212)"/>
<path d="M-79.7631 76.5289C-53.9489 76.5289 -30.5656 86.9766 -13.6359 103.831C20.2235 137.599 48.2951 137.628 82.1545 103.918C99.0842 86.9766 122.496 76.5 148.34 76.5C199.997 76.5289 241.844 118.262 241.844 169.779C241.844 221.296 199.997 263 148.34 263C122.439 263 99.0263 252.495 82.0966 235.553C48.2661 201.901 20.2235 201.93 -13.6359 235.697C-30.5656 252.581 -53.9489 263 -79.7631 263C-131.392 263 -173.238 221.267 -173.238 169.779C-173.238 118.291 -131.392 76.5289 -79.7631 76.5289Z" fill="url(#paint3_linear_5481_122212)"/>
</g>
</g>

</svg>
