<svg width="160" height="160" viewBox="0 0 160 160" xmlns="http://www.w3.org/2000/svg">
  <defs>
<radialGradient id="paint0_radial_5481_122183" cx="0" cy="0" r="1" gradientUnits="userSpaceOnUse" gradientTransform="translate(142.62 105.187) rotate(90) scale(231.011)">
<stop offset="0.0885417" stop-color="#EB1000"/>
<stop offset="1" stop-color="#EB1000" stop-opacity="0"/>
</radialGradient>
<linearGradient id="paint1_linear_5481_122183" x1="115.768" y1="-5.14512" x2="23.108" y2="114.991" gradientUnits="userSpaceOnUse">
<stop stop-color="#FF4885"/>
<stop offset="1" stop-color="#FF4885" stop-opacity="0"/>
</linearGradient>
<linearGradient id="paint2_linear_5481_122183" x1="59.3137" y1="-60.4521" x2="77.1884" y2="53.9458" gradientUnits="userSpaceOnUse">
<stop offset="0.15625" stop-color="#7A6AFD"/>
<stop offset="1" stop-color="#7A6AFD" stop-opacity="0"/>
</linearGradient>
<linearGradient id="paint3_linear_5481_122183" x1="-146.934" y1="169.541" x2="153.819" y2="110.102" gradientUnits="userSpaceOnUse">
<stop stop-color="#30A7FE" stop-opacity="0"/>
<stop offset="0.432292" stop-color="#30A7FE" stop-opacity="0.994652"/>
<stop offset="0.609375" stop-color="#30A7FE"/>
<stop offset="1" stop-color="#30A7FE" stop-opacity="0"/>
</linearGradient>
<clipPath id="clip0_5481_122183">
<rect width="160" height="160" rx="10" fill="white"/>
</clipPath>
</defs>
<clipPath id="mask0_5481_122183">
<path fill-rule="evenodd" d="M20 43H71.5443L62.2263 31.4528C60.4652 29.2704 57.7989 28 54.9798 28H29.28C24.1548 28 20 32.119 20 37.2V43ZM20 51H126.154C133.796 51 140 57.2468 140 64.9412V118.059C140 125.753 133.796 132 126.154 132H33.8462C26.2043 132 20 125.753 20 118.059V51ZM72.2941 77.334C71.4905 77.334 70.8391 77.9854 70.8391 78.789C70.8391 79.1999 71.0042 79.5654 71.2824 79.8347C72.8696 81.3713 72.9105 83.9037 71.3739 85.4908C69.8373 87.078 67.3049 87.1189 65.7178 85.5823C63.9474 83.8683 62.8391 81.4546 62.8391 78.789C62.8391 73.5671 67.0722 69.334 72.2941 69.334C74.5032 69.334 76.2941 71.1248 76.2941 73.334C76.2941 75.5431 74.5032 77.334 72.2941 77.334ZM76.1461 82.1575C76.1461 77.2411 80.1316 73.2555 85.048 73.2555C89.9644 73.2555 93.95 77.2411 93.95 82.1575C93.95 87.0739 89.9644 91.0595 85.048 91.0595C80.1316 91.0595 76.1461 87.0739 76.1461 82.1575ZM72.1098 92.2907C73.0619 94.2841 72.2178 96.672 70.2244 97.6241C68.3176 98.5349 66.8343 100.428 66.4435 102.73C66.0738 104.908 64.0084 106.374 61.8305 106.004C59.6525 105.634 58.1866 103.569 58.5563 101.391C59.3788 96.5458 62.5015 92.4473 66.7763 90.4053C68.7698 89.4532 71.1576 90.2973 72.1098 92.2907ZM70.4187 103.69C71.9696 97.2539 78.2015 92.8633 85.0482 92.8633C91.8949 92.8633 98.1269 97.2539 99.6777 103.69C100.655 107.747 97.2206 110.667 93.9638 110.667H76.1326C72.8758 110.667 69.441 107.747 70.4187 103.69Z" fill="white"/>
</clipPath>
<g clip-path="url(#mask0_5481_122183)">
<g clip-path="url(#clip0_5481_122183)">
<rect width="160" height="160" rx="10" fill="#D9F4FD"/>
<circle cx="142.62" cy="105.187" r="231.011" fill="url(#paint0_radial_5481_122183)"/>
<path d="M-14.3999 50.1137C-16.9679 -5.18932 25.7823 -52.103 81.0853 -54.6709C136.388 -57.2388 183.302 -14.4887 185.87 40.8143C188.438 96.1173 145.688 143.031 90.3846 145.599C35.0817 148.167 -11.832 105.417 -14.3999 50.1137Z" fill="url(#paint1_linear_5481_122183)"/>
<path d="M40.4184 -110.716C27.9428 -118.436 12.1362 -118.483 -0.385738 -110.838L-125.628 -34.3691C-137.894 -26.8797 -137.914 -9.20217 -125.665 -1.68455L-1.25042 74.676C11.2528 82.3487 27.0594 82.3396 39.5518 74.6486L163.71 -1.78335C175.895 -9.28493 175.917 -26.8637 163.748 -34.3936L40.4184 -110.716Z" fill="url(#paint2_linear_5481_122183)"/>
<path d="M-79.7631 76.5289C-53.9489 76.5289 -30.5656 86.9766 -13.6359 103.831C20.2235 137.599 48.2951 137.628 82.1545 103.918C99.0842 86.9766 122.496 76.5 148.34 76.5C199.997 76.5289 241.844 118.262 241.844 169.779C241.844 221.296 199.997 263 148.34 263C122.439 263 99.0263 252.495 82.0966 235.553C48.2661 201.901 20.2235 201.93 -13.6359 235.697C-30.5656 252.581 -53.9489 263 -79.7631 263C-131.392 263 -173.238 221.267 -173.238 169.779C-173.238 118.291 -131.392 76.5289 -79.7631 76.5289Z" fill="url(#paint3_linear_5481_122183)"/>
</g>
</g>

</svg>
