<svg width="97" height="96" viewBox="0 0 97 96" xmlns="http://www.w3.org/2000/svg">
  <defs>
<radialGradient id="paint0_radial_5481_122528" cx="0" cy="0" r="1" gradientUnits="userSpaceOnUse" gradientTransform="translate(86.5128 63.1124) rotate(90) scale(138.607)">
<stop offset="0.0885417" stop-color="#EB1000"/>
<stop offset="1" stop-color="#EB1000" stop-opacity="0"/>
</radialGradient>
<linearGradient id="paint1_linear_5481_122528" x1="70.4031" y1="-3.08825" x2="14.807" y2="68.9935" gradientUnits="userSpaceOnUse">
<stop stop-color="#FF4885"/>
<stop offset="1" stop-color="#FF4885" stop-opacity="0"/>
</linearGradient>
<linearGradient id="paint2_linear_5481_122528" x1="36.5312" y1="-36.2716" x2="47.256" y2="32.3671" gradientUnits="userSpaceOnUse">
<stop offset="0.15625" stop-color="#7A6AFD"/>
<stop offset="1" stop-color="#7A6AFD" stop-opacity="0"/>
</linearGradient>
<linearGradient id="paint3_linear_5481_122528" x1="-87.2195" y1="101.725" x2="93.2321" y2="66.0615" gradientUnits="userSpaceOnUse">
<stop stop-color="#30A7FE" stop-opacity="0"/>
<stop offset="0.432292" stop-color="#30A7FE" stop-opacity="0.994652"/>
<stop offset="0.609375" stop-color="#30A7FE"/>
<stop offset="1" stop-color="#30A7FE" stop-opacity="0"/>
</linearGradient>
<clipPath id="clip0_5481_122528">
<rect x="0.941406" width="96" height="96" rx="10" fill="white"/>
</clipPath>
</defs>
<clipPath id="mask0_5481_122528">
<path fill-rule="evenodd" d="M33.851 18.3853L16.3051 48.5884C14.7559 51.2551 16.6798 54.5977 19.7638 54.5977H34.3848H54.8108C57.8928 54.5977 59.817 51.2589 58.2718 48.5922L49.5154 33.4807L40.7707 18.3891C39.2307 15.7314 35.3939 15.7293 33.851 18.3853ZM58.2427 79.6035C46.0261 79.6035 35.9518 70.4313 34.5306 58.5977H54.8108C60.9748 58.5977 64.8231 51.9201 61.7327 46.5868L53.4626 32.3144C55.0071 32.0007 56.6057 31.836 58.2427 31.836C71.4334 31.836 82.1265 42.5291 82.1265 55.7198C82.1265 68.9104 71.4334 79.6035 58.2427 79.6035Z" fill="white"/>
</clipPath>
<g clip-path="url(#mask0_5481_122528)">
<g clip-path="url(#clip0_5481_122528)">
<rect x="0.941406" width="96" height="96" rx="10" fill="#D9F4FD"/>
<circle cx="86.5128" cy="63.1124" r="138.607" fill="url(#paint0_radial_5481_122528)"/>
<path d="M-7.69778 30.067C-9.23855 -3.11477 16.4116 -31.263 49.5934 -32.8037C82.7751 -34.3445 110.923 -8.69438 112.464 24.4874C114.005 57.6692 88.3548 85.8174 55.173 87.3582C21.9912 88.8989 -6.15701 63.2488 -7.69778 30.067Z" fill="url(#paint1_linear_5481_122528)"/>
<path d="M25.194 -66.43C17.7087 -71.0619 8.22471 -71.0903 0.711526 -66.5032L-74.4339 -20.6218C-81.7934 -16.1282 -81.8057 -5.52169 -74.4562 -1.01111L0.192716 44.8052C7.69465 49.4089 17.1786 49.4034 24.6741 44.7888L99.1692 -1.0704C106.48 -5.57135 106.493 -16.1186 99.1915 -20.6366L25.194 -66.43Z" fill="url(#paint2_linear_5481_122528)"/>
<path d="M-46.9172 45.9177C-31.4287 45.9177 -17.3987 52.1863 -7.24091 62.2992C13.0748 82.5597 29.9177 82.577 50.2333 62.3512C60.3912 52.1863 74.4385 45.9004 89.9444 45.9004C120.939 45.9177 146.047 70.9575 146.047 101.868C146.047 132.778 120.939 157.8 89.9444 157.8C74.4038 157.8 60.3564 151.497 50.1986 141.332C29.9003 121.141 13.0748 121.158 -7.24091 141.419C-17.3987 151.549 -31.4287 157.8 -46.9172 157.8C-77.8943 157.8 -103.002 132.761 -103.002 101.868C-103.002 70.9749 -77.8943 45.9177 -46.9172 45.9177Z" fill="url(#paint3_linear_5481_122528)"/>
</g>
</g>

</svg>
