<svg width="96" height="96" viewBox="0 0 96 96" xmlns="http://www.w3.org/2000/svg">
  <defs>
<radialGradient id="paint0_radial_5481_122553" cx="0" cy="0" r="1" gradientUnits="userSpaceOnUse" gradientTransform="translate(85.5714 63.1124) rotate(90) scale(138.607)">
<stop offset="0.0885417" stop-color="#EB1000"/>
<stop offset="1" stop-color="#EB1000" stop-opacity="0"/>
</radialGradient>
<linearGradient id="paint1_linear_5481_122553" x1="69.4617" y1="-3.08825" x2="13.8656" y2="68.9935" gradientUnits="userSpaceOnUse">
<stop stop-color="#FF4885"/>
<stop offset="1" stop-color="#FF4885" stop-opacity="0"/>
</linearGradient>
<linearGradient id="paint2_linear_5481_122553" x1="35.5898" y1="-36.2716" x2="46.3146" y2="32.3671" gradientUnits="userSpaceOnUse">
<stop offset="0.15625" stop-color="#7A6AFD"/>
<stop offset="1" stop-color="#7A6AFD" stop-opacity="0"/>
</linearGradient>
<linearGradient id="paint3_linear_5481_122553" x1="-88.1609" y1="101.725" x2="92.2907" y2="66.0615" gradientUnits="userSpaceOnUse">
<stop stop-color="#30A7FE" stop-opacity="0"/>
<stop offset="0.432292" stop-color="#30A7FE" stop-opacity="0.994652"/>
<stop offset="0.609375" stop-color="#30A7FE"/>
<stop offset="1" stop-color="#30A7FE" stop-opacity="0"/>
</linearGradient>
<clipPath id="clip0_5481_122553">
<rect width="96" height="96" rx="10" fill="white"/>
</clipPath>
</defs>
<clipPath id="mask0_5481_122553">
<path fill-rule="evenodd" d="M48 80.7461C66.2254 80.7461 81 65.9715 81 47.7461C81 29.5207 66.2254 14.7461 48 14.7461C29.7746 14.7461 15 29.5207 15 47.7461C15 65.9715 29.7746 80.7461 48 80.7461ZM41.1466 38.6123C41.1466 40.7277 39.4317 42.4427 37.3162 42.4427C35.2008 42.4427 33.4859 40.7277 33.4859 38.6123C33.4859 36.4968 35.2008 34.7819 37.3162 34.7819C39.4317 34.7819 41.1466 36.4968 41.1466 38.6123ZM62.9501 38.6123C62.9501 40.7277 61.2352 42.4427 59.1198 42.4427C57.0043 42.4427 55.2894 40.7277 55.2894 38.6123C55.2894 36.4968 57.0043 34.7819 59.1198 34.7819C61.2352 34.7819 62.9501 36.4968 62.9501 38.6123ZM64.6462 54.3608C65.667 55.1687 65.8396 56.6511 65.0318 57.6719C63.0462 60.1808 60.4967 62.2075 57.5844 63.6006C54.6724 64.9936 51.4724 65.7175 48.2312 65.7194C44.99 65.7213 41.7892 65.0012 38.8754 63.6117C35.9613 62.2221 33.4093 60.1985 31.4206 57.692C30.6115 56.6721 30.7823 55.1895 31.8021 54.3804C32.8219 53.5712 34.3046 53.742 35.1137 54.7618C36.6496 56.6977 38.6296 58.2716 40.9046 59.3565C43.1798 60.4415 45.6859 61.0066 48.2284 61.0051C50.7709 61.0036 53.2763 60.4355 55.5501 59.3478C57.8237 58.2603 59.8016 56.684 61.3351 54.7464C62.1429 53.7256 63.6254 53.5529 64.6462 54.3608Z" fill="#D9D9D9"/>
</clipPath>
<g clip-path="url(#mask0_5481_122553)">
<g clip-path="url(#clip0_5481_122553)">
<rect width="96" height="96" rx="10" fill="#D9F4FD"/>
<circle cx="85.5714" cy="63.1124" r="138.607" fill="url(#paint0_radial_5481_122553)"/>
<path d="M-8.63919 30.067C-10.18 -3.11477 15.4702 -31.263 48.652 -32.8037C81.8337 -34.3445 109.982 -8.69438 111.523 24.4874C113.063 57.6692 87.4133 85.8174 54.2316 87.3582C21.0498 88.8989 -7.09842 63.2488 -8.63919 30.067Z" fill="url(#paint1_linear_5481_122553)"/>
<path d="M24.2526 -66.43C16.7672 -71.0619 7.28331 -71.0903 -0.22988 -66.5032L-75.3753 -20.6218C-82.7348 -16.1282 -82.7471 -5.52169 -75.3976 -1.01111L-0.748691 44.8052C6.75324 49.4089 16.2372 49.4034 23.7327 44.7888L98.2278 -1.0704C105.538 -5.57135 105.552 -16.1186 98.2501 -20.6366L24.2526 -66.43Z" fill="url(#paint2_linear_5481_122553)"/>
<path d="M-47.8586 45.9177C-32.3701 45.9177 -18.3401 52.1863 -8.18231 62.2992C12.1334 82.5597 28.9763 82.577 49.2919 62.3512C59.4498 52.1863 73.4971 45.9004 89.003 45.9004C119.997 45.9177 145.105 70.9575 145.105 101.868C145.105 132.778 119.997 157.8 89.003 157.8C73.4624 157.8 59.415 151.497 49.2572 141.332C28.9589 121.141 12.1334 121.158 -8.18231 141.419C-18.3401 151.549 -32.3701 157.8 -47.8586 157.8C-78.8357 157.8 -103.944 132.761 -103.944 101.868C-103.944 70.9749 -78.8357 45.9177 -47.8586 45.9177Z" fill="url(#paint3_linear_5481_122553)"/>
</g>
</g>

</svg>
