<svg width="48" height="48" viewBox="0 0 48 48" xmlns="http://www.w3.org/2000/svg">
  <defs>
<radialGradient id="paint0_radial_5481_122422" cx="0" cy="0" r="1" gradientUnits="userSpaceOnUse" gradientTransform="translate(42.7877 31.5552) rotate(90) scale(69.3033)">
<stop offset="0.0885417" stop-color="#EB1000"/>
<stop offset="1" stop-color="#EB1000" stop-opacity="0"/>
</radialGradient>
<linearGradient id="paint1_linear_5481_122422" x1="34.7309" y1="-1.54315" x2="6.93278" y2="34.4977" gradientUnits="userSpaceOnUse">
<stop stop-color="#FF4885"/>
<stop offset="1" stop-color="#FF4885" stop-opacity="0"/>
</linearGradient>
<linearGradient id="paint2_linear_5481_122422" x1="17.7929" y1="-18.1348" x2="23.1553" y2="16.1845" gradientUnits="userSpaceOnUse">
<stop offset="0.15625" stop-color="#7A6AFD"/>
<stop offset="1" stop-color="#7A6AFD" stop-opacity="0"/>
</linearGradient>
<linearGradient id="paint3_linear_5481_122422" x1="-44.0785" y1="50.8616" x2="46.1473" y2="33.0298" gradientUnits="userSpaceOnUse">
<stop stop-color="#30A7FE" stop-opacity="0"/>
<stop offset="0.432292" stop-color="#30A7FE" stop-opacity="0.994652"/>
<stop offset="0.609375" stop-color="#30A7FE"/>
<stop offset="1" stop-color="#30A7FE" stop-opacity="0"/>
</linearGradient>
<clipPath id="clip0_5481_122422">
<rect width="48" height="48" rx="10" fill="white"/>
</clipPath>
</defs>
<clipPath id="mask0_5481_122422">
<path fill-rule="evenodd" d="M11 24.4745V34.9999C11 37.209 12.7909 38.9999 15 38.9999H19L19 24.4372C17.7073 24.2214 16.5695 23.5459 15.7632 22.584C14.7752 23.7625 13.2898 24.5111 11.6316 24.5111C11.418 24.5111 11.2072 24.4987 11 24.4745ZM21.5 24.2682L21.5 32H37V24.4804C36.8098 24.5007 36.6166 24.5111 36.4211 24.5111C34.7628 24.5111 33.2774 23.7625 32.2895 22.584C31.3015 23.7625 29.8161 24.5111 28.1579 24.5111C26.4997 24.5111 25.0143 23.7625 24.0263 22.584C23.3713 23.3653 22.4977 23.9577 21.5 24.2682ZM11.6316 22.0111C13.1596 22.0111 14.403 20.8311 14.5062 19.3459L16.816 18.4716C16.9408 18.6662 17.0132 18.8976 17.0132 19.1457C17.0132 20.7236 18.2987 22.0111 19.8947 22.0111C21.4908 22.0111 22.7763 20.7236 22.7763 19.1457V18.9423C22.7763 18.2519 23.336 17.6923 24.0263 17.6923C24.7167 17.6923 25.2763 18.2519 25.2763 18.9423V19.1457C25.2763 20.7236 26.5618 22.0111 28.1579 22.0111C29.7539 22.0111 31.0395 20.7236 31.0395 19.1457V18.9423C31.0395 18.2519 31.5991 17.6923 32.2895 17.6923C32.9798 17.6923 33.5395 18.2519 33.5395 18.9423V19.1457C33.5395 20.7236 34.825 22.0111 36.4211 22.0111C38.0171 22.0111 39.3026 20.7236 39.3026 19.1457C39.3026 18.2691 39.1108 17.4017 38.7408 16.6052C38.7276 16.5767 38.7155 16.5479 38.7045 16.5187L36.2004 11.1348L16.816 18.4716C16.816 18.4716 16.816 18.4716 16.816 18.4716L36.2001 11.1342C35.9766 10.6549 35.493 10.3457 34.9575 10.3457H13.0991C12.5634 10.3457 12.0796 10.6552 11.8562 11.1348L9.31153 16.6058L9.3112 16.6065C8.94096 17.4013 8.75 18.2681 8.75 19.1457C8.75 20.7236 10.0355 22.0111 11.6316 22.0111ZM16.816 18.4716L14.5062 19.3459L14.5138 19.1063C14.5353 18.4239 15.1003 17.8851 15.7829 17.8958C16.2174 17.9027 16.5973 18.1307 16.816 18.4716ZM21.5 34.5H37V34.9999C37 37.209 35.2091 38.9999 33 38.9999H21.5V34.5Z" fill="white"/>
</clipPath>
<g clip-path="url(#mask0_5481_122422)">
<g clip-path="url(#clip0_5481_122422)">
<rect width="48" height="48" rx="10" fill="#D9F4FD"/>
<circle cx="42.7877" cy="31.5552" r="69.3033" fill="url(#paint0_radial_5481_122422)"/>
<path d="M-4.31959 15.0345C-5.08998 -1.55641 7.73508 -15.6305 24.326 -16.4009C40.9169 -17.1713 54.991 -4.34621 55.7613 12.2447C56.5317 28.8356 43.7067 42.9097 27.1158 43.6801C10.5249 44.4504 -3.54921 31.6254 -4.31959 15.0345Z" fill="url(#paint1_linear_5481_122422)"/>
<path d="M12.1243 -33.214C8.38167 -35.53 3.6397 -35.5442 -0.116893 -33.2506L-37.6896 -10.3099C-41.3694 -8.06314 -41.3755 -2.75987 -37.7007 -0.504581L-0.376298 22.4036C3.37467 24.7054 8.11665 24.7027 11.8644 22.3954L49.1119 -0.534222C52.7672 -2.7847 52.7739 -8.05833 49.1231 -10.3173L12.1243 -33.214Z" fill="url(#paint2_linear_5481_122422)"/>
<path d="M-23.9274 22.9579C-16.1831 22.9579 -9.16812 26.0922 -4.0892 31.1486C6.06863 41.2789 14.4901 41.2875 24.6479 31.1746C29.7268 26.0922 36.7505 22.9492 44.5034 22.9492C60.0006 22.9579 72.5547 35.4778 72.5547 50.9329C72.5547 66.388 60.0006 78.8992 44.5034 78.8992C36.7331 78.8992 29.7095 75.7476 24.6306 70.6652C14.4814 60.5696 6.06863 60.5782 -4.0892 70.7085C-9.16812 75.7736 -16.1831 78.8992 -23.9274 78.8992C-39.4159 78.8992 -51.9699 66.3793 -51.9699 50.9329C-51.9699 35.4865 -39.4159 22.9579 -23.9274 22.9579Z" fill="url(#paint3_linear_5481_122422)"/>
</g>
</g>

</svg>
