<svg width="96" height="96" viewBox="0 0 96 96" xmlns="http://www.w3.org/2000/svg">
  <defs>
<radialGradient id="paint0_radial_5481_122502" cx="0" cy="0" r="1" gradientUnits="userSpaceOnUse" gradientTransform="translate(77.8634 61.104) rotate(90) scale(106.979 113.484)">
<stop offset="0.0885417" stop-color="#EB1000"/>
<stop offset="1" stop-color="#EB1000" stop-opacity="0"/>
</radialGradient>
<linearGradient id="paint1_linear_5481_122502" x1="64.6728" y1="10.0091" x2="22.4695" y2="68.0542" gradientUnits="userSpaceOnUse">
<stop stop-color="#FF4885"/>
<stop offset="1" stop-color="#FF4885" stop-opacity="0"/>
</linearGradient>
<linearGradient id="paint2_linear_5481_122502" x1="36.9407" y1="-15.6028" x2="44.7646" y2="37.5147" gradientUnits="userSpaceOnUse">
<stop offset="0.15625" stop-color="#7A6AFD"/>
<stop offset="1" stop-color="#7A6AFD" stop-opacity="0"/>
</linearGradient>
<linearGradient id="paint3_linear_5481_122502" x1="-64.382" y1="90.9048" x2="82.6705" y2="60.0748" gradientUnits="userSpaceOnUse">
<stop stop-color="#30A7FE" stop-opacity="0"/>
<stop offset="0.432292" stop-color="#30A7FE" stop-opacity="0.994652"/>
<stop offset="0.609375" stop-color="#30A7FE"/>
<stop offset="1" stop-color="#30A7FE" stop-opacity="0"/>
</linearGradient>
<clipPath id="clip0_5481_122502">
<rect x="7.80078" y="12.3926" width="78.6002" height="74.0945" rx="10" fill="white"/>
</clipPath>
</defs>
<clipPath id="mask0_5481_122502">
<path fill-rule="evenodd" d="M36.6743 23.8287L40.0673 27.2217L43.5353 30.6897L50.3153 37.4697C52.5113 39.6657 56.0693 39.6657 58.2653 37.4697C60.4613 35.2737 60.4613 31.7157 58.2653 29.5197L51.4853 22.7397L48.0173 19.2717L46.8893 18.1437C46.0853 17.3517 45.1793 16.7397 44.2133 16.2897C44.1826 16.275 44.1519 16.26 44.1211 16.245C44.0136 16.1925 43.9053 16.1397 43.7933 16.0977C43.4153 15.9417 43.0253 15.8217 42.6353 15.7137C39.4313 14.8617 35.8793 15.6837 33.3653 18.1917L15.1073 36.4497C12.1733 39.3837 11.5493 43.7397 13.2053 47.2977L33.2813 27.2217L36.6743 23.8287ZM62.6324 18.2397L80.8904 36.4977V36.5097C84.6404 40.2597 84.6404 46.3377 80.8904 50.0877L60.5624 70.4157L51.9944 78.9837C49.7984 81.1797 46.2404 81.1797 44.0444 78.9777H44.0384C41.8424 76.7817 41.8424 73.2237 44.0384 71.0277C41.8424 73.2237 38.2844 73.2237 36.0884 71.0217H36.0824C33.9044 68.8437 33.8924 65.3277 36.0344 63.1257C33.8324 65.2677 30.3164 65.2497 28.1384 63.0657H28.1324C25.9364 60.8697 25.9364 57.3057 28.1324 55.1097H28.1264C25.9304 57.3057 22.3724 57.3057 20.1764 55.1037H20.1704C19.9964 54.9297 19.8404 54.7437 19.6964 54.5577C17.9924 52.3497 18.1484 49.1697 20.1704 47.1477L29.1464 38.1657L36.6824 30.6297L40.1504 34.0977L46.9304 40.8777C48.8984 42.8457 51.5144 43.9317 54.2984 43.9317C57.0824 43.9317 59.6984 42.8457 61.6664 40.8777C65.7284 36.8097 65.7284 30.1977 61.6664 26.1357L51.8444 16.3137C55.3844 14.6877 59.7104 15.3177 62.6324 18.2397Z" fill="white"/>
</clipPath>
<g clip-path="url(#mask0_5481_122502)">
<g clip-path="url(#clip0_5481_122502)">
<rect x="7.80078" y="12.3926" width="78.6002" height="74.0945" rx="10" fill="#D9F4FD"/>
<ellipse cx="77.8634" cy="61.104" rx="113.484" ry="106.979" fill="url(#paint0_radial_5481_122502)"/>
<path d="M0.727532 35.599C-0.533973 9.98868 20.4671 -11.7366 47.6348 -12.9258C74.8025 -14.115 97.8489 5.68225 99.1104 31.2925C100.372 56.9028 79.3708 78.6281 52.2031 79.8173C25.0354 81.0065 1.98904 61.2093 0.727532 35.599Z" fill="url(#paint1_linear_5481_122502)"/>
<path d="M27.6584 -38.8796C21.5297 -42.4546 13.7647 -42.4765 7.61328 -38.9361L-53.9122 -3.52401C-59.9379 -0.0557808 -59.9479 8.13054 -53.9305 11.6119L7.1885 46.9737C13.3307 50.5269 21.0958 50.5227 27.2327 46.9611L88.2257 11.5661C94.2113 8.09221 94.2223 -0.0483564 88.244 -3.53538L27.6584 -38.8796Z" fill="url(#paint2_linear_5481_122502)"/>
<path d="M-31.3844 47.8317C-18.7031 47.8317 -7.21605 52.67 1.1007 60.4753C17.7342 76.1126 31.5244 76.126 48.1579 60.5154C56.4746 52.67 67.9759 47.8184 80.6714 47.8184C106.048 47.8317 126.605 67.1579 126.605 91.0149C126.605 114.872 106.048 134.185 80.6714 134.185C67.9475 134.185 56.4462 129.32 48.1294 121.474C31.5102 105.89 17.7342 105.904 1.1007 121.541C-7.21605 129.36 -18.7031 134.185 -31.3844 134.185C-56.7469 134.185 -77.3042 114.859 -77.3042 91.0149C-77.3042 67.1713 -56.7469 47.8317 -31.3844 47.8317Z" fill="url(#paint3_linear_5481_122502)"/>
</g>
</g>

</svg>
