<svg width="96" height="96" viewBox="0 0 96 96" xmlns="http://www.w3.org/2000/svg">
  <defs>
<radialGradient id="paint0_radial_5481_122512" cx="0" cy="0" r="1" gradientUnits="userSpaceOnUse" gradientTransform="translate(85.5714 63.1124) rotate(90) scale(138.607)">
<stop offset="0.0885417" stop-color="#EB1000"/>
<stop offset="1" stop-color="#EB1000" stop-opacity="0"/>
</radialGradient>
<linearGradient id="paint1_linear_5481_122512" x1="69.4617" y1="-3.08825" x2="13.8656" y2="68.9935" gradientUnits="userSpaceOnUse">
<stop stop-color="#FF4885"/>
<stop offset="1" stop-color="#FF4885" stop-opacity="0"/>
</linearGradient>
<linearGradient id="paint2_linear_5481_122512" x1="35.5898" y1="-36.2716" x2="46.3146" y2="32.3671" gradientUnits="userSpaceOnUse">
<stop offset="0.15625" stop-color="#7A6AFD"/>
<stop offset="1" stop-color="#7A6AFD" stop-opacity="0"/>
</linearGradient>
<linearGradient id="paint3_linear_5481_122512" x1="-88.1609" y1="101.725" x2="92.2907" y2="66.0615" gradientUnits="userSpaceOnUse">
<stop stop-color="#30A7FE" stop-opacity="0"/>
<stop offset="0.432292" stop-color="#30A7FE" stop-opacity="0.994652"/>
<stop offset="0.609375" stop-color="#30A7FE"/>
<stop offset="1" stop-color="#30A7FE" stop-opacity="0"/>
</linearGradient>
<clipPath id="clip0_5481_122512">
<rect width="96" height="96" rx="10" fill="white"/>
</clipPath>
</defs>
<clipPath id="mask0_5481_122512">
<path fill-rule="evenodd" d="M85.6923 28.8586L79.4572 27.4561C78.5319 27.2465 77.5596 27.5067 76.862 28.1501L72.1631 32.4804C70.0775 34.4033 66.7593 32.4876 67.381 29.7188L68.7835 23.4838C68.9931 22.5584 68.7329 21.5861 68.0895 20.8885L63.7593 16.1896C61.8363 14.104 63.752 10.7859 66.5208 11.4076L72.7559 12.81C73.6812 13.0196 74.6535 12.7594 75.3511 12.116L80.05 7.78578C82.1356 5.86285 85.4538 7.77856 84.8321 10.5473L83.4296 16.7824C83.22 17.7077 83.4802 18.68 84.1236 19.3776L88.4538 24.0765C90.3768 26.1621 88.4611 29.4803 85.6923 28.8586ZM10.9087 36.305C14.103 24.3836 26.3568 17.3088 38.2783 20.5032C43.4541 21.89 47.7124 24.9809 50.6176 29.013C51.2633 29.9092 52.5133 30.1122 53.4095 29.4665C54.3056 28.8208 54.5087 27.5708 53.863 26.6747C50.4386 21.922 45.412 18.2735 39.3136 16.6395C25.2582 12.8734 10.8111 21.2144 7.04495 35.2698C4.54248 44.6091 7.38587 54.1179 13.6942 60.553L8.40943 60.5362C7.30487 60.5327 6.4066 61.4253 6.40309 62.5298C6.39958 63.6344 7.29216 64.5327 8.39672 64.5362L18.2929 64.5676C19.3705 64.5711 20.2571 63.7201 20.2978 62.6432L20.6587 53.0956C20.7004 51.9919 19.8394 51.0633 18.7356 51.0215C17.6318 50.9798 16.7032 51.8408 16.6615 52.9446L16.4824 57.6835C11.175 52.2235 8.79593 44.1898 10.9087 36.305ZM50.9854 46.0607C50.595 47.7885 52.6698 48.9885 53.9746 47.7849L57.2855 44.7306C57.7229 44.3294 58.3265 44.1667 58.9085 44.2968L63.3038 45.2872C65.0315 45.6776 66.2315 43.6028 65.0279 42.298L64.0719 41.2617L61.9736 38.9871C61.5724 38.5497 61.4097 37.9461 61.5399 37.3641L62.5302 32.9689C62.9206 31.2411 60.8459 30.0411 59.541 31.2447L56.2301 34.299C55.7927 34.7002 55.1891 34.8629 54.6072 34.7328L50.2119 33.7424C48.4841 33.352 47.2841 35.4267 48.4877 36.7316L51.542 40.0425C51.8507 40.379 52.0182 40.814 52.0197 41.2617C52.0202 41.3959 52.0058 41.5313 51.9758 41.6655L50.9854 46.0607ZM47.2247 41.2617H35.1747C30.7564 41.2617 27.1747 44.8434 27.1747 49.2617V83.4745L41.806 60.4753L43.4944 61.5472L41.807 60.4737L41.806 60.4753C43.954 57.0919 48.8481 57.0916 50.9967 60.4743L49.3088 61.5472L50.9973 60.4753L61.0716 76.3234L66.6719 67.8483L66.6808 67.8351C68.8453 64.6156 73.5888 64.6087 75.7517 67.8359L75.7533 67.8383L85.5771 82.4301C86.3397 81.2049 86.7801 79.7584 86.7801 78.209V49.2617C86.7801 44.8434 83.1984 41.2617 78.7801 41.2617H69.0708C70.8357 45.324 67.2863 50.2861 62.4245 49.1894L62.4233 49.1891L62.4222 49.1889L59.151 48.4518L56.6868 50.725L56.6867 50.725C52.5008 54.5862 45.8288 50.7423 47.0832 45.1815L47.0835 45.1803L47.0837 45.1792L47.8208 41.908L47.2247 41.2617ZM30.1759 86.209H54.5393L58.6558 79.9793L47.621 62.6202L47.6203 62.6192C47.0433 61.7103 45.76 61.7103 45.1829 62.6192L45.1819 62.6207L30.1759 86.209ZM72.4323 70.0679L82.6341 85.2212C81.491 85.8508 80.1774 86.209 78.7801 86.209H59.3337L70.0038 70.0616C70.5888 69.1992 71.8559 69.207 72.4294 70.0636L72.4323 70.0679ZM72.0008 57C70.344 57 69.0008 55.6569 69.0008 54C69.0008 52.3431 70.344 51 72.0008 51C73.6577 51 75.0008 52.3431 75.0008 54C75.0008 55.6569 73.6577 57 72.0008 57Z" fill="white"/>
</clipPath>
<g clip-path="url(#mask0_5481_122512)">
<g clip-path="url(#clip0_5481_122512)">
<rect width="96" height="96" rx="10" fill="#D9F4FD"/>
<circle cx="85.5714" cy="63.1124" r="138.607" fill="url(#paint0_radial_5481_122512)"/>
<path d="M-8.63919 30.067C-10.18 -3.11477 15.4702 -31.263 48.652 -32.8037C81.8337 -34.3445 109.982 -8.69438 111.523 24.4874C113.063 57.6692 87.4133 85.8174 54.2316 87.3582C21.0498 88.8989 -7.09842 63.2488 -8.63919 30.067Z" fill="url(#paint1_linear_5481_122512)"/>
<path d="M24.2526 -66.43C16.7672 -71.0619 7.28331 -71.0903 -0.22988 -66.5032L-75.3753 -20.6218C-82.7348 -16.1282 -82.7471 -5.52169 -75.3976 -1.01111L-0.748691 44.8052C6.75324 49.4089 16.2372 49.4034 23.7327 44.7888L98.2278 -1.0704C105.538 -5.57135 105.552 -16.1186 98.2501 -20.6366L24.2526 -66.43Z" fill="url(#paint2_linear_5481_122512)"/>
<path d="M-47.8586 45.9177C-32.3701 45.9177 -18.3401 52.1863 -8.18231 62.2992C12.1334 82.5597 28.9763 82.577 49.2919 62.3512C59.4498 52.1863 73.4971 45.9004 89.003 45.9004C119.997 45.9177 145.105 70.9575 145.105 101.868C145.105 132.778 119.997 157.8 89.003 157.8C73.4624 157.8 59.415 151.497 49.2572 141.332C28.9589 121.141 12.1334 121.158 -8.18231 141.419C-18.3401 151.549 -32.3701 157.8 -47.8586 157.8C-78.8357 157.8 -103.944 132.761 -103.944 101.868C-103.944 70.9749 -78.8357 45.9177 -47.8586 45.9177Z" fill="url(#paint3_linear_5481_122512)"/>
</g>
</g>

</svg>
