<svg width="48" height="48" viewBox="0 0 48 48" xmlns="http://www.w3.org/2000/svg">
  <defs>
<radialGradient id="paint0_radial_5481_122427" cx="0" cy="0" r="1" gradientUnits="userSpaceOnUse" gradientTransform="translate(42.7877 31.5552) rotate(90) scale(69.3033)">
<stop offset="0.0885417" stop-color="#EB1000"/>
<stop offset="1" stop-color="#EB1000" stop-opacity="0"/>
</radialGradient>
<linearGradient id="paint1_linear_5481_122427" x1="34.7309" y1="-1.54315" x2="6.93278" y2="34.4977" gradientUnits="userSpaceOnUse">
<stop stop-color="#FF4885"/>
<stop offset="1" stop-color="#FF4885" stop-opacity="0"/>
</linearGradient>
<linearGradient id="paint2_linear_5481_122427" x1="17.7929" y1="-18.1348" x2="23.1553" y2="16.1845" gradientUnits="userSpaceOnUse">
<stop offset="0.15625" stop-color="#7A6AFD"/>
<stop offset="1" stop-color="#7A6AFD" stop-opacity="0"/>
</linearGradient>
<linearGradient id="paint3_linear_5481_122427" x1="-44.0785" y1="50.8616" x2="46.1473" y2="33.0298" gradientUnits="userSpaceOnUse">
<stop stop-color="#30A7FE" stop-opacity="0"/>
<stop offset="0.432292" stop-color="#30A7FE" stop-opacity="0.994652"/>
<stop offset="0.609375" stop-color="#30A7FE"/>
<stop offset="1" stop-color="#30A7FE" stop-opacity="0"/>
</linearGradient>
<clipPath id="clip0_5481_122427">
<rect width="48" height="48" rx="10" fill="white"/>
</clipPath>
</defs>
<clipPath id="mask0_5481_122427">
<path fill-rule="evenodd" d="M38.1897 20.9989L43.4972 15.6914C43.9853 15.2032 43.9853 14.4118 43.4972 13.9236L38.1897 8.61612C37.7015 8.12796 36.91 8.12796 36.4219 8.61612C35.9337 9.10427 35.9337 9.89573 36.4219 10.3839L39.4931 13.4551H37.7045C35.1871 13.4551 32.8642 14.3031 31.0108 15.7284C30.9824 15.7503 30.9552 15.7731 30.9293 15.7968C30.9174 15.8054 30.9057 15.8143 30.894 15.8235C29.5295 16.8948 28.2615 18.4479 27.2721 19.8659C26.278 21.2908 25.4986 22.6761 25.1327 23.4837C24.8498 24.108 24.1489 25.5927 23.2218 27.1516C22.4233 28.4945 21.5163 29.7892 20.6218 30.6594C20.5936 30.6809 20.5661 30.7039 20.5393 30.7282C19.031 32.0988 17.0306 32.9326 14.8325 32.9326C10.1443 32.9326 6.34375 29.1321 6.34375 24.4438C6.34375 19.7556 10.1443 15.9551 14.8325 15.9551C17.6993 15.9551 20.2346 17.375 21.7735 19.5555L21.7735 19.5555L21.7779 19.5618L22.2292 20.1928C22.6307 20.7544 23.4114 20.8841 23.973 20.4826C24.5346 20.0811 24.6643 19.3003 24.2628 18.7388L23.8138 18.1108C21.8263 15.2968 18.5445 13.4551 14.8325 13.4551C8.76359 13.4551 3.84375 18.3749 3.84375 24.4438C3.84375 30.5128 8.76359 35.4326 14.8325 35.4326C17.345 35.4326 19.6624 34.5882 21.5134 33.169C21.5677 33.1382 21.6203 33.1029 21.6708 33.0631C23.105 31.932 24.3988 30.0635 25.3706 28.4295C26.363 26.7606 27.1068 25.1843 27.4098 24.5155C27.6984 23.8785 28.394 22.6271 29.3224 21.2964C30.2556 19.959 31.3576 18.6379 32.4379 17.7898C32.4627 17.7703 32.4865 17.7501 32.5095 17.7292C32.518 17.723 32.5264 17.7166 32.5349 17.7102C33.9666 16.6091 35.7574 15.9551 37.7045 15.9551H39.6979L36.4219 19.2311C35.9337 19.7193 35.9337 20.5107 36.4219 20.9989C36.91 21.4871 37.7015 21.4871 38.1897 20.9989ZM40.4037 35.4326C41.0941 35.4326 41.6537 34.873 41.6537 34.1826C41.6537 33.4923 41.0941 32.9326 40.4037 32.9326H37.7045C34.9059 32.9326 32.6267 31.3244 30.6143 29.1298L30.0868 28.4924C29.6467 27.9605 28.8587 27.8861 28.3268 28.3262C27.7949 28.7663 27.7206 29.5543 28.1607 30.0862L28.7081 30.7478L28.7279 30.7716L28.7488 30.7945C30.9346 33.1846 33.8432 35.4326 37.7045 35.4326H40.4037Z" fill="white"/>
</clipPath>
<g clip-path="url(#mask0_5481_122427)">
<g clip-path="url(#clip0_5481_122427)">
<rect width="48" height="48" rx="10" fill="#D9F4FD"/>
<circle cx="42.7877" cy="31.5552" r="69.3033" fill="url(#paint0_radial_5481_122427)"/>
<path d="M-4.31959 15.0345C-5.08998 -1.55641 7.73508 -15.6305 24.326 -16.4009C40.9169 -17.1713 54.991 -4.34621 55.7613 12.2447C56.5317 28.8356 43.7067 42.9097 27.1158 43.6801C10.5249 44.4504 -3.54921 31.6254 -4.31959 15.0345Z" fill="url(#paint1_linear_5481_122427)"/>
<path d="M12.1243 -33.214C8.38167 -35.53 3.6397 -35.5442 -0.116893 -33.2506L-37.6896 -10.3099C-41.3694 -8.06314 -41.3755 -2.75987 -37.7007 -0.504581L-0.376298 22.4036C3.37467 24.7054 8.11665 24.7027 11.8644 22.3954L49.1119 -0.534222C52.7672 -2.7847 52.7739 -8.05833 49.1231 -10.3173L12.1243 -33.214Z" fill="url(#paint2_linear_5481_122427)"/>
<path d="M-23.9274 22.9579C-16.1831 22.9579 -9.16812 26.0922 -4.0892 31.1486C6.06863 41.2789 14.4901 41.2875 24.6479 31.1746C29.7268 26.0922 36.7505 22.9492 44.5034 22.9492C60.0006 22.9579 72.5547 35.4778 72.5547 50.9329C72.5547 66.388 60.0006 78.8992 44.5034 78.8992C36.7331 78.8992 29.7095 75.7476 24.6306 70.6652C14.4814 60.5696 6.06863 60.5782 -4.0892 70.7085C-9.16812 75.7736 -16.1831 78.8992 -23.9274 78.8992C-39.4159 78.8992 -51.9699 66.3793 -51.9699 50.9329C-51.9699 35.4865 -39.4159 22.9579 -23.9274 22.9579Z" fill="url(#paint3_linear_5481_122427)"/>
</g>
</g>

</svg>
