<svg width="96" height="96" viewBox="0 0 96 96" xmlns="http://www.w3.org/2000/svg">
  <defs>
<radialGradient id="paint0_radial_5481_122453" cx="0" cy="0" r="1" gradientUnits="userSpaceOnUse" gradientTransform="translate(80.6739 61.1426) rotate(90) scale(120.537)">
<stop offset="0.0885417" stop-color="#EB1000"/>
<stop offset="1" stop-color="#EB1000" stop-opacity="0"/>
</radialGradient>
<linearGradient id="paint1_linear_5481_122453" x1="66.6642" y1="3.57344" x2="18.3158" y2="66.2583" gradientUnits="userSpaceOnUse">
<stop stop-color="#FF4885"/>
<stop offset="1" stop-color="#FF4885" stop-opacity="0"/>
</linearGradient>
<linearGradient id="paint2_linear_5481_122453" x1="37.208" y1="-25.2847" x2="46.5347" y2="34.406" gradientUnits="userSpaceOnUse">
<stop offset="0.15625" stop-color="#7A6AFD"/>
<stop offset="1" stop-color="#7A6AFD" stop-opacity="0"/>
</linearGradient>
<linearGradient id="paint3_linear_5481_122453" x1="-70.4075" y1="94.7209" x2="86.5196" y2="63.7067" gradientUnits="userSpaceOnUse">
<stop stop-color="#30A7FE" stop-opacity="0"/>
<stop offset="0.432292" stop-color="#30A7FE" stop-opacity="0.994652"/>
<stop offset="0.609375" stop-color="#30A7FE"/>
<stop offset="1" stop-color="#30A7FE" stop-opacity="0"/>
</linearGradient>
<clipPath id="clip0_5481_122453">
<rect x="6.25781" y="6.25781" width="83.485" height="83.485" rx="10" fill="white"/>
</clipPath>
</defs>
<clipPath id="mask0_5481_122453">
<path fill-rule="evenodd" d="M32.4016 27.2992C32.4016 18.6836 39.3859 11.6992 48.0016 11.6992C56.6172 11.6992 63.6016 18.6836 63.6016 27.2992C63.6016 28.6247 62.527 29.6992 61.2016 29.6992C59.8761 29.6992 58.8016 28.6247 58.8016 27.2992C58.8016 21.3345 53.9663 16.4992 48.0016 16.4992C42.0369 16.4992 37.2016 21.3345 37.2016 27.2992V39.8992L69.3834 39.8992C73.8117 39.8992 77.4016 43.1731 77.4016 47.2117V71.5867C77.4016 75.6253 73.8117 78.8992 69.3834 78.8992H26.6197C22.1914 78.8992 18.6016 75.6253 18.6016 71.5867V47.2117C18.6016 43.1731 22.1914 39.8992 26.6197 39.8992L32.4016 39.8992V27.2992ZM44.6098 60.391C44.9055 60.6894 45.2403 60.9452 45.602 61.1537V65.6992C45.602 67.0247 46.6765 68.0992 48.002 68.0992C49.3274 68.0992 50.402 67.0247 50.402 65.6992V61.1537C50.7636 60.9452 51.0984 60.6894 51.3941 60.391C51.6176 60.175 51.8176 59.927 51.9941 59.6629C52.1699 59.407 52.3137 59.1269 52.434 58.8391C52.5535 58.543 52.6496 58.2473 52.7059 57.9352C52.7699 57.6313 52.802 57.3109 52.802 56.9992C52.802 56.6871 52.7699 56.3672 52.7059 56.0629C52.6496 55.759 52.5535 55.4551 52.434 55.1672C52.3137 54.8711 52.1699 54.5992 51.9941 54.3352C51.8176 54.0711 51.6176 53.823 51.3941 53.607C50.5059 52.7109 49.266 52.1992 48.002 52.1992C46.7379 52.1992 45.498 52.7109 44.6098 53.607C44.3856 53.823 44.1856 54.0711 44.0098 54.3352C43.8418 54.5992 43.6895 54.8711 43.5699 55.1672C43.4496 55.4551 43.3535 55.759 43.2981 56.0629C43.234 56.3672 43.202 56.6871 43.202 56.9992C43.202 57.3109 43.234 57.6313 43.2981 57.9352C43.3535 58.2473 43.4496 58.543 43.5699 58.8391C43.6895 59.127 43.8418 59.407 44.0098 59.6629C44.1856 59.927 44.3856 60.175 44.6098 60.391Z" fill="white"/>
</clipPath>
<g clip-path="url(#mask0_5481_122453)">
<g clip-path="url(#clip0_5481_122453)">
<rect x="6.25781" y="6.25781" width="83.485" height="83.485" rx="10" fill="#D9F4FD"/>
<circle cx="80.6739" cy="61.1426" r="120.537" fill="url(#paint0_radial_5481_122453)"/>
<path d="M-1.25517 32.4064C-2.59508 3.55039 19.7112 -20.9283 48.5672 -22.2682C77.4233 -23.6081 101.902 -1.30183 103.242 27.5542C104.582 56.4103 82.2755 80.8889 53.4195 82.2288C24.5634 83.5687 0.0847316 61.2625 -1.25517 32.4064Z" fill="url(#paint1_linear_5481_122453)"/>
<path d="M27.3488 -51.5114C20.8393 -55.5395 12.5917 -55.5642 6.05797 -51.5751L-59.2911 -11.675C-65.6913 -7.76725 -65.7019 1.45657 -59.3105 5.37913L5.6068 45.2226C12.1307 49.2261 20.3783 49.2214 26.8967 45.2084L91.6802 5.32757C98.0378 1.41339 98.0494 -7.75889 91.6996 -11.6878L27.3488 -51.5114Z" fill="url(#paint2_linear_5481_122453)"/>
<path d="M-35.3592 46.1889C-21.8898 46.1889 -9.68887 51.6403 -0.855262 60.4348C16.812 78.054 31.4591 78.0691 49.1264 60.48C57.96 51.6403 70.176 46.1738 83.6605 46.1738C110.614 46.1889 132.449 67.9644 132.449 94.845C132.449 121.726 110.614 143.486 83.6605 143.486C70.1458 143.486 57.9298 138.004 49.0962 129.165C31.444 111.606 16.812 111.621 -0.855262 129.24C-9.68887 138.05 -21.8898 143.486 -35.3592 143.486C-62.2979 143.486 -84.1328 121.711 -84.1328 94.845C-84.1328 67.9795 -62.2979 46.1889 -35.3592 46.1889Z" fill="url(#paint3_linear_5481_122453)"/>
</g>
</g>

</svg>
