<svg width="48" height="48" viewBox="0 0 48 48" xmlns="http://www.w3.org/2000/svg">
  <defs>
<radialGradient id="paint0_radial_5481_122324" cx="0" cy="0" r="1" gradientUnits="userSpaceOnUse" gradientTransform="translate(40.0731 31.8286) rotate(90) scale(58.0415 61.5067)">
<stop offset="0.0885417" stop-color="#EB1000"/>
<stop offset="1" stop-color="#EB1000" stop-opacity="0"/>
</radialGradient>
<linearGradient id="paint1_linear_5481_122324" x1="32.9256" y1="4.10825" x2="10.0208" y2="35.5778" gradientUnits="userSpaceOnUse">
<stop stop-color="#FF4885"/>
<stop offset="1" stop-color="#FF4885" stop-opacity="0"/>
</linearGradient>
<linearGradient id="paint2_linear_5481_122324" x1="17.8926" y1="-9.78705" x2="22.1417" y2="19.0306" gradientUnits="userSpaceOnUse">
<stop offset="0.15625" stop-color="#7A6AFD"/>
<stop offset="1" stop-color="#7A6AFD" stop-opacity="0"/>
</linearGradient>
<linearGradient id="paint3_linear_5481_122324" x1="-37.0198" y1="47.9977" x2="42.6872" y2="31.3043" gradientUnits="userSpaceOnUse">
<stop stop-color="#30A7FE" stop-opacity="0"/>
<stop offset="0.432292" stop-color="#30A7FE" stop-opacity="0.994652"/>
<stop offset="0.609375" stop-color="#30A7FE"/>
<stop offset="1" stop-color="#30A7FE" stop-opacity="0"/>
</linearGradient>
<clipPath id="clip0_5481_122324">
<rect x="2.10156" y="5.40039" width="42.6" height="40.2" rx="10" fill="white"/>
</clipPath>
</defs>
<clipPath id="mask0_5481_122324">
<path fill-rule="evenodd" d="M10.7258 8.37891H25.1468C27.7988 8.37891 29.9468 10.5269 29.9468 13.1789V39.6179H22.1498V33.4439C22.1498 32.1179 21.0758 31.0439 19.7498 31.0439H16.1228C14.7968 31.0439 13.7228 32.1179 13.7228 33.4439V39.6179H5.92578V13.1789C5.92578 10.5269 8.07378 8.37891 10.7258 8.37891ZM14.5628 25.3469C15.2258 25.3469 15.7628 24.8099 15.7628 24.1469V22.4189C15.7628 21.7559 15.2258 21.2189 14.5628 21.2189H12.8348C12.1718 21.2189 11.6348 21.7559 11.6348 22.4189V24.1469C11.6348 24.8099 12.1718 25.3469 12.8348 25.3469H14.5628ZM14.5628 16.9289C15.2258 16.9289 15.7628 16.3919 15.7628 15.7289V14.0009C15.7628 13.3379 15.2258 12.8009 14.5628 12.8009H12.8348C12.1718 12.8009 11.6348 13.3379 11.6348 14.0009V15.7289C11.6348 16.3919 12.1718 16.9289 12.8348 16.9289H14.5628ZM23.0408 25.3469C23.7038 25.3469 24.2408 24.8099 24.2408 24.1469V22.4189C24.2408 21.7559 23.7038 21.2189 23.0408 21.2189H21.3128C20.6498 21.2189 20.1128 21.7559 20.1128 22.4189V24.1469C20.1128 24.8099 20.6498 25.3469 21.3128 25.3469H23.0408ZM23.0408 16.9289C23.7038 16.9289 24.2408 16.3919 24.2408 15.7289V14.0009C24.2408 13.3379 23.7038 12.8009 23.0408 12.8009H21.3128C20.6498 12.8009 20.1128 13.3379 20.1128 14.0009V15.7289C20.1128 16.3919 20.6498 16.9289 21.3128 16.9289H23.0408ZM37.2728 14.8679C39.9248 14.8679 42.0728 17.0159 42.0728 19.6679V39.6179H32.3498V14.8679H37.2728ZM36.8738 33.5159C37.5368 33.5159 38.0738 32.9789 38.0738 32.3159V30.5879C38.0738 29.9249 37.5368 29.3879 36.8738 29.3879H35.1458C34.4828 29.3879 33.9458 29.9249 33.9458 30.5879V32.3159C33.9458 32.9789 34.4828 33.5159 35.1458 33.5159H36.8738ZM36.8738 25.0979C37.5368 25.0979 38.0738 24.5609 38.0738 23.8979V22.1699C38.0738 21.5069 37.5368 20.9699 36.8738 20.9699H35.1458C34.4828 20.9699 33.9458 21.5069 33.9458 22.1699V23.8979C33.9458 24.5609 34.4828 25.0979 35.1458 25.0979H36.8738Z" fill="white"/>
</clipPath>
<g clip-path="url(#mask0_5481_122324)">
<g clip-path="url(#clip0_5481_122324)">
<rect x="2.10156" y="5.40039" width="42.6" height="40.2" rx="10" fill="#D9F4FD"/>
<ellipse cx="40.0731" cy="31.8286" rx="61.5067" ry="58.0415" fill="url(#paint0_radial_5481_122324)"/>
<path d="M-1.73169 17.992C-2.4154 4.09714 8.96684 -7.68991 23.6913 -8.3351C38.4157 -8.9803 50.9064 1.76068 51.5902 15.6556C52.2739 29.5504 40.8916 41.3375 26.1672 41.9827C11.4428 42.6279 -1.04797 31.8869 -1.73169 17.992Z" fill="url(#paint1_linear_5481_122324)"/>
<path d="M12.8617 -22.4159C9.5401 -24.3555 5.3316 -24.3674 1.99763 -22.4465L-31.3481 -3.23369C-34.6139 -1.352 -34.6194 3.08949 -31.358 4.97829L1.76741 24.1639C5.09639 26.0917 9.3049 26.0894 12.631 24.157L45.6882 4.95347C48.9323 3.0687 48.9382 -1.34797 45.6981 -3.23986L12.8617 -22.4159Z" fill="url(#paint2_linear_5481_122324)"/>
<path d="M-19.1356 24.6283C-12.2626 24.6283 -6.03681 27.2533 -1.52927 31.4881C7.48581 39.9722 14.9598 39.9794 23.9749 31.5099C28.4825 27.2533 34.716 24.6211 41.5967 24.6211C55.3505 24.6283 66.4922 35.1138 66.4922 48.0574C66.4922 61.001 55.3505 71.4792 41.5967 71.4792C34.7006 71.4792 28.467 68.8397 23.9595 64.5832C14.9521 56.1281 7.48581 56.1354 -1.52927 64.6195C-6.03681 68.8615 -12.2626 71.4792 -19.1356 71.4792C-32.8817 71.4792 -44.0234 60.9938 -44.0234 48.0574C-44.0234 35.121 -32.8817 24.6283 -19.1356 24.6283Z" fill="url(#paint3_linear_5481_122324)"/>
</g>
</g>

</svg>
