<svg width="96" height="96" viewBox="0 0 96 96" xmlns="http://www.w3.org/2000/svg">
  <defs>
<radialGradient id="paint0_radial_5481_122505" cx="0" cy="0" r="1" gradientUnits="userSpaceOnUse" gradientTransform="translate(78.461 61.9106) rotate(90) scale(106.979 113.484)">
<stop offset="0.0885417" stop-color="#EB1000"/>
<stop offset="1" stop-color="#EB1000" stop-opacity="0"/>
</radialGradient>
<linearGradient id="paint1_linear_5481_122505" x1="65.2705" y1="10.8158" x2="23.0672" y2="68.8609" gradientUnits="userSpaceOnUse">
<stop stop-color="#FF4885"/>
<stop offset="1" stop-color="#FF4885" stop-opacity="0"/>
</linearGradient>
<linearGradient id="paint2_linear_5481_122505" x1="37.5384" y1="-14.7962" x2="45.3622" y2="38.3214" gradientUnits="userSpaceOnUse">
<stop offset="0.15625" stop-color="#7A6AFD"/>
<stop offset="1" stop-color="#7A6AFD" stop-opacity="0"/>
</linearGradient>
<linearGradient id="paint3_linear_5481_122505" x1="-63.7843" y1="91.7115" x2="83.2682" y2="60.8815" gradientUnits="userSpaceOnUse">
<stop stop-color="#30A7FE" stop-opacity="0"/>
<stop offset="0.432292" stop-color="#30A7FE" stop-opacity="0.994652"/>
<stop offset="0.609375" stop-color="#30A7FE"/>
<stop offset="1" stop-color="#30A7FE" stop-opacity="0"/>
</linearGradient>
<clipPath id="clip0_5481_122505">
<rect x="8.39844" y="13.1992" width="78.6002" height="74.0945" rx="10" fill="white"/>
</clipPath>
</defs>
<clipPath id="mask0_5481_122505">
<path fill-rule="evenodd" d="M54.1852 13.0078H73.3672C78.6691 13.0078 82.9672 17.3059 82.9672 22.6078V41.7898C82.9672 47.0917 78.6691 51.3898 73.3672 51.3898H54.1852C48.8832 51.3898 44.5852 47.0917 44.5852 41.7898V22.6078C44.5852 17.3059 48.8832 13.0078 54.1852 13.0078ZM21.4313 24.6838H31.3433C35.9824 24.6838 39.7432 28.4446 39.7432 33.0838V42.9958C39.7432 47.635 35.9824 51.3958 31.3433 51.3958H21.4313C16.7921 51.3958 13.0312 47.635 13.0312 42.9958V33.0838C13.0312 28.4446 16.7921 24.6838 21.4313 24.6838ZM31.3433 56.2798H21.4313C16.7921 56.2798 13.0312 60.0406 13.0312 64.6798V74.5918C13.0312 79.231 16.7921 82.9918 21.4313 82.9918H31.3433C35.9824 82.9918 39.7432 79.231 39.7432 74.5918V64.6798C39.7432 60.0406 35.9824 56.2798 31.3433 56.2798ZM52.9852 56.2798H62.8972C67.5364 56.2798 71.2972 60.0406 71.2972 64.6798V74.5918C71.2972 79.231 67.5364 82.9918 62.8972 82.9918H52.9852C48.346 82.9918 44.5852 79.231 44.5852 74.5918V64.6798C44.5852 60.0406 48.346 56.2798 52.9852 56.2798Z" fill="white"/>
</clipPath>
<g clip-path="url(#mask0_5481_122505)">
<g clip-path="url(#clip0_5481_122505)">
<rect x="8.39844" y="13.1992" width="78.6002" height="74.0945" rx="10" fill="#D9F4FD"/>
<ellipse cx="78.461" cy="61.9106" rx="113.484" ry="106.979" fill="url(#paint0_radial_5481_122505)"/>
<path d="M1.32519 36.4056C0.0636832 10.7953 21.0648 -10.9299 48.2325 -12.1191C75.4001 -13.3083 98.4465 6.48889 99.708 32.0992C100.97 57.7095 79.9684 79.4347 52.8008 80.6239C25.6331 81.8131 2.58669 62.0159 1.32519 36.4056Z" fill="url(#paint1_linear_5481_122505)"/>
<path d="M28.256 -38.0729C22.1274 -41.6479 14.3624 -41.6698 8.21094 -38.1294L-53.3145 -2.71737C-59.3402 0.75086 -59.3503 8.93718 -53.3328 12.4185L7.78616 47.7804C13.9284 51.3335 21.6934 51.3293 27.8303 47.7677L88.8234 12.3728C94.809 8.89885 94.8199 0.758284 88.8416 -2.72874L28.256 -38.0729Z" fill="url(#paint2_linear_5481_122505)"/>
<path d="M-30.7867 48.6384C-18.1055 48.6384 -6.6184 53.4766 1.69836 61.2819C18.3319 76.9193 32.122 76.9326 48.7555 61.322C57.0723 53.4766 68.5736 48.625 81.2691 48.625C106.646 48.6384 127.203 67.9645 127.203 91.8216C127.203 115.679 106.646 134.991 81.2691 134.991C68.5451 134.991 57.0439 130.126 48.7271 122.281C32.1078 106.697 18.3319 106.71 1.69836 122.348C-6.6184 130.167 -18.1055 134.991 -30.7867 134.991C-56.1493 134.991 -76.7066 115.665 -76.7066 91.8216C-76.7066 67.9779 -56.1493 48.6384 -30.7867 48.6384Z" fill="url(#paint3_linear_5481_122505)"/>
</g>
</g>

</svg>
