<svg width="160" height="160" viewBox="0 0 160 160" xmlns="http://www.w3.org/2000/svg">
  <defs>
<radialGradient id="paint0_radial_5481_122257" cx="0" cy="0" r="1" gradientUnits="userSpaceOnUse" gradientTransform="translate(142.62 105.187) rotate(90) scale(231.011)">
<stop offset="0.0885417" stop-color="#EB1000"/>
<stop offset="1" stop-color="#EB1000" stop-opacity="0"/>
</radialGradient>
<linearGradient id="paint1_linear_5481_122257" x1="115.768" y1="-5.14512" x2="23.108" y2="114.991" gradientUnits="userSpaceOnUse">
<stop stop-color="#FF4885"/>
<stop offset="1" stop-color="#FF4885" stop-opacity="0"/>
</linearGradient>
<linearGradient id="paint2_linear_5481_122257" x1="59.3137" y1="-60.4521" x2="77.1884" y2="53.9458" gradientUnits="userSpaceOnUse">
<stop offset="0.15625" stop-color="#7A6AFD"/>
<stop offset="1" stop-color="#7A6AFD" stop-opacity="0"/>
</linearGradient>
<linearGradient id="paint3_linear_5481_122257" x1="-146.934" y1="169.541" x2="153.819" y2="110.102" gradientUnits="userSpaceOnUse">
<stop stop-color="#30A7FE" stop-opacity="0"/>
<stop offset="0.432292" stop-color="#30A7FE" stop-opacity="0.994652"/>
<stop offset="0.609375" stop-color="#30A7FE"/>
<stop offset="1" stop-color="#30A7FE" stop-opacity="0"/>
</linearGradient>
<clipPath id="clip0_5481_122257">
<rect width="160" height="160" rx="10" fill="white"/>
</clipPath>
</defs>
<clipPath id="mask0_5481_122257">
<path fill-rule="evenodd" d="M23.9766 79.9865C23.9766 62.9783 31.5558 47.7403 43.5209 37.4657C44.4437 39.4876 45.8408 42.1355 47.5239 44.5978C48.5743 46.1346 49.8021 47.6967 51.1695 49.0074C52.498 50.2809 54.2069 51.559 56.2461 52.1416C59.5332 53.0807 63.3429 52.943 66.2228 52.8389C66.5264 52.8279 66.8197 52.8173 67.101 52.8084C68.7317 52.7566 70.0441 52.7428 71.1304 52.854C72.2451 52.9681 72.7012 53.1792 72.8395 53.2714C73.1469 53.4763 73.2265 53.638 73.2525 53.7011C73.2852 53.7803 73.3189 53.9236 73.2785 54.1591C73.1891 54.6809 72.7526 55.4364 71.8799 55.9212C69.8069 57.0729 67.7372 58.5196 66.1853 60.515C64.5591 62.6058 63.6434 65.1173 63.6434 68.0685C63.6434 68.9307 63.5752 69.4675 63.4945 69.7876L63.4861 69.8198C63.2125 69.8751 62.6883 69.9238 61.7965 69.8495C61.5309 69.8273 61.2442 69.8019 60.9394 69.7749L60.9393 69.7749C58.6209 69.5695 55.2514 69.271 52.0712 69.6037C48.5315 69.9739 43.9758 71.2482 41.513 75.5588C40.4333 77.4487 39.1833 80.5962 39.481 84.3579C39.7915 88.2823 41.7482 92.351 46.1938 95.9081C51.3146 100.005 56.9464 100.885 64.3166 101.704C68.5178 102.171 70.8981 103.071 72.2558 104.029C73.4469 104.87 74.1022 105.927 74.4313 107.575C75.0063 110.452 74.0355 114.762 71.9975 120.02C71.0226 122.536 69.8853 125.074 68.7525 127.538C68.5052 128.076 68.2563 128.615 68.0089 129.15C67.1973 130.905 66.4024 132.623 65.7359 134.178C41.7037 127.869 23.9766 105.998 23.9766 79.9865ZM50.3391 33.0846C50.2702 32.9153 50.1909 32.7533 50.1024 32.599C53.9361 30.1751 58.0844 28.2036 62.472 26.7596C62.5222 27.0591 62.6076 27.3577 62.7303 27.6499C64.7861 32.5467 71.0321 38.59 79.4109 38.59C83.7368 38.59 87.2084 36.7347 89.7601 34.6183C92.2872 32.5222 94.1031 30.0186 95.2328 28.2887C95.646 27.656 95.857 26.9497 95.8817 26.2458C96.5712 26.4492 97.2551 26.6656 97.9333 26.8945C97.8773 27.0788 97.8339 27.2693 97.8043 27.4653C97.131 31.9249 96.3669 38.1659 97.0646 43.8077C97.7502 49.352 100.071 55.7164 106.823 58.0601C112.179 59.9192 117.479 59.0048 121.619 57.1603C124.356 55.9409 126.849 54.1971 128.69 52.256C130.799 55.9511 132.5 59.9094 133.73 64.0696C133.195 63.9567 132.609 63.8365 131.98 63.7133C128.967 63.123 124.916 62.4507 120.7 62.1707C116.541 61.8946 111.93 61.9777 107.923 63.0765C103.902 64.1793 99.8202 66.5206 98.0827 71.2108C93.2243 84.3258 99.7832 92.272 101.476 93.9656C104.03 96.5193 106.65 97.7127 108.576 98.59C108.81 98.6964 109.034 98.7983 109.246 98.8973C111.107 99.7672 112.434 100.524 113.786 102.477C114.253 103.152 114.731 104.364 115.086 106.217C115.429 108.013 115.603 110.111 115.669 112.323C115.734 114.522 115.69 116.738 115.626 118.758C115.609 119.309 115.59 119.858 115.571 120.392L115.571 120.398L115.571 120.399C115.533 121.473 115.497 122.489 115.484 123.343C105.822 131.259 93.4659 136.01 80.0002 136.01C77.911 136.01 75.8485 135.896 73.8186 135.673C74.2537 134.706 74.7282 133.68 75.2316 132.591L75.2321 132.59L75.2322 132.59L75.2326 132.589C75.4885 132.036 75.7519 131.466 76.0213 130.88C77.1667 128.388 78.3892 125.666 79.4568 122.912C81.5035 117.631 83.3475 111.368 82.2762 106.007C81.6069 102.657 79.9728 99.6845 76.8699 97.4938C73.9336 95.4207 70.0155 94.2877 65.2002 93.7526C57.7436 92.9239 54.3085 92.1552 51.1918 89.6615C48.2957 87.3442 47.5753 85.2339 47.456 83.7269C47.3239 82.0573 47.8915 80.5211 48.4592 79.5274C48.9718 78.6302 50.1836 77.8448 52.9034 77.5603C55.2571 77.3141 57.8061 77.5348 60.2021 77.7423L60.203 77.7424L60.2041 77.7425C60.5163 77.7695 60.8259 77.7963 61.1322 77.8218C63.995 78.0604 67.1129 77.723 69.3114 75.4023C71.3763 73.2228 71.6434 70.2689 71.6434 68.0685C71.6434 66.9004 71.9636 66.1163 72.5001 65.4265C73.1108 64.6414 74.1307 63.8224 75.7651 62.9144C78.5999 61.3395 80.635 58.5936 81.1635 55.5109C81.7227 52.249 80.5273 48.7818 77.2771 46.615C75.5617 45.4714 73.5977 45.0647 71.9447 44.8955C70.2632 44.7235 68.4604 44.7612 66.8471 44.8124C66.6264 44.8194 66.4087 44.8265 66.1942 44.8335C62.9698 44.9386 60.4443 45.0209 58.4439 44.4494C58.1762 44.3729 57.5817 44.0722 56.7055 43.2322C55.8682 42.4296 54.99 41.3438 54.1284 40.0833C52.4002 37.5551 51.0043 34.7173 50.3391 33.0846ZM123.7 115.047C131.41 105.449 136.024 93.2563 136.024 79.9865C136.024 77.4995 135.862 75.0504 135.548 72.6491C135.5 72.641 135.458 72.6333 135.423 72.6267C135.288 72.6012 135.138 72.5696 135 72.5396C134.801 72.4965 134.546 72.4392 134.261 72.3753L133.913 72.297C133.04 72.1018 131.853 71.8406 130.442 71.564C127.604 71.008 123.918 70.402 120.17 70.1532C116.365 69.9005 112.786 70.0383 110.039 70.7917C107.306 71.541 106.069 72.6833 105.585 73.9899C102.202 83.1199 106.727 87.9019 107.134 88.3093C108.621 89.7969 109.978 90.4232 111.906 91.3128C112.139 91.4204 112.381 91.5319 112.632 91.6493C115.055 92.7814 117.848 94.29 120.363 97.9232C121.75 99.9256 122.499 102.395 122.943 104.713C123.398 107.089 123.593 109.654 123.665 112.086C123.695 113.086 123.704 114.08 123.7 115.047ZM123.977 45.2747C119.003 38.9809 112.706 33.7804 105.506 30.0924C104.934 34.189 104.511 38.8393 105.004 42.8259C105.568 47.3829 107.105 49.6898 109.446 50.5024C112.403 51.5286 115.558 51.1028 118.363 49.8527C121.276 48.5549 123.21 46.6415 123.819 45.5373C123.869 45.4471 123.922 45.3595 123.977 45.2747ZM80.0002 23.9629C82.7548 23.9629 85.463 24.1617 88.1113 24.5458C87.211 25.8518 86.0529 27.2994 84.6528 28.4607C83.0469 29.7926 81.3215 30.59 79.4109 30.59C75.0163 30.59 71.4198 27.3169 70.2233 24.813C73.3982 24.2543 76.6652 23.9629 80.0002 23.9629Z" fill="white"/>
</clipPath>
<g clip-path="url(#mask0_5481_122257)">
<g clip-path="url(#clip0_5481_122257)">
<rect width="160" height="160" rx="10" fill="#D9F4FD"/>
<circle cx="142.62" cy="105.187" r="231.011" fill="url(#paint0_radial_5481_122257)"/>
<path d="M-14.3999 50.1137C-16.9679 -5.18932 25.7823 -52.103 81.0853 -54.6709C136.388 -57.2388 183.302 -14.4887 185.87 40.8143C188.438 96.1173 145.688 143.031 90.3846 145.599C35.0817 148.167 -11.832 105.417 -14.3999 50.1137Z" fill="url(#paint1_linear_5481_122257)"/>
<path d="M40.4184 -110.716C27.9428 -118.436 12.1362 -118.483 -0.385738 -110.838L-125.628 -34.3691C-137.894 -26.8797 -137.914 -9.20217 -125.665 -1.68455L-1.25042 74.676C11.2528 82.3487 27.0594 82.3396 39.5518 74.6486L163.71 -1.78335C175.895 -9.28493 175.917 -26.8637 163.748 -34.3936L40.4184 -110.716Z" fill="url(#paint2_linear_5481_122257)"/>
<path d="M-79.7631 76.5289C-53.9489 76.5289 -30.5656 86.9766 -13.6359 103.831C20.2235 137.599 48.2951 137.628 82.1545 103.918C99.0842 86.9766 122.496 76.5 148.34 76.5C199.997 76.5289 241.844 118.262 241.844 169.779C241.844 221.296 199.997 263 148.34 263C122.439 263 99.0263 252.495 82.0966 235.553C48.2661 201.901 20.2235 201.93 -13.6359 235.697C-30.5656 252.581 -53.9489 263 -79.7631 263C-131.392 263 -173.238 221.267 -173.238 169.779C-173.238 118.291 -131.392 76.5289 -79.7631 76.5289Z" fill="url(#paint3_linear_5481_122257)"/>
</g>
</g>

</svg>
