<svg width="48" height="48" viewBox="0 0 48 48" xmlns="http://www.w3.org/2000/svg">
  <defs>
<radialGradient id="paint0_radial_5481_122428" cx="0" cy="0" r="1" gradientUnits="userSpaceOnUse" gradientTransform="translate(42.7877 31.5552) rotate(90) scale(69.3033)">
<stop offset="0.0885417" stop-color="#EB1000"/>
<stop offset="1" stop-color="#EB1000" stop-opacity="0"/>
</radialGradient>
<linearGradient id="paint1_linear_5481_122428" x1="34.7309" y1="-1.54315" x2="6.93278" y2="34.4977" gradientUnits="userSpaceOnUse">
<stop stop-color="#FF4885"/>
<stop offset="1" stop-color="#FF4885" stop-opacity="0"/>
</linearGradient>
<linearGradient id="paint2_linear_5481_122428" x1="17.7929" y1="-18.1348" x2="23.1553" y2="16.1845" gradientUnits="userSpaceOnUse">
<stop offset="0.15625" stop-color="#7A6AFD"/>
<stop offset="1" stop-color="#7A6AFD" stop-opacity="0"/>
</linearGradient>
<linearGradient id="paint3_linear_5481_122428" x1="-44.0785" y1="50.8616" x2="46.1473" y2="33.0298" gradientUnits="userSpaceOnUse">
<stop stop-color="#30A7FE" stop-opacity="0"/>
<stop offset="0.432292" stop-color="#30A7FE" stop-opacity="0.994652"/>
<stop offset="0.609375" stop-color="#30A7FE"/>
<stop offset="1" stop-color="#30A7FE" stop-opacity="0"/>
</linearGradient>
<clipPath id="clip0_5481_122428">
<rect width="48" height="48" rx="10" fill="white"/>
</clipPath>
</defs>
<clipPath id="mask0_5481_122428">
<path fill-rule="evenodd" d="M32.8448 35.2157C37.6859 32.6516 40.9043 28.106 40.9043 22.926C40.9043 22.501 40.8827 22.0803 40.8402 21.6646C41.5081 21.5756 42.2723 21.3012 42.9526 20.7327C43.9267 19.9185 44.5987 18.6118 44.6833 16.7481C44.7146 16.0585 44.1809 15.474 43.4913 15.4427C42.8016 15.4114 42.2172 15.9451 42.1859 16.6347C42.1274 17.9235 41.6962 18.5246 41.3493 18.8145C40.9857 19.1184 40.5698 19.202 40.3312 19.1983C38.3823 12.9975 31.6872 8.42773 23.7276 8.42773C20.4481 8.42773 17.3835 9.20331 14.7769 10.5493C13.2277 8.88777 10.8012 8.40669 8.92083 8.4294C8.22501 8.4378 7.86332 9.19272 8.21199 9.79494L10.4727 13.6996L10.4892 13.6875C9.30718 14.8929 8.35183 16.2624 7.67821 17.7494V17.7411L4.30963 19.7036C3.69465 20.0619 3.31641 20.72 3.31641 21.4317V24.4208C3.31641 25.1329 3.69496 25.7912 4.31035 26.1494L7.67821 28.1096V28.1027C9.01543 31.0546 11.4629 33.5432 14.5895 35.2045C14.581 35.2034 14.5739 35.2029 14.5684 35.2029L15.8121 38.5894C16.0289 39.1798 16.5911 39.5723 17.2201 39.5723H18.9466C19.5751 39.5723 20.1369 39.1804 20.3541 38.5907L20.8548 37.2312L20.8102 37.216C21.7584 37.353 22.7332 37.4243 23.7276 37.4243C24.7003 37.4243 25.6541 37.3561 26.5826 37.225L26.5631 37.2312L27.0638 38.5907C27.281 39.1804 27.8428 39.5723 28.4713 39.5723H30.1978C30.8268 39.5723 31.389 39.1798 31.6058 38.5894L32.8448 35.2157ZM26.2107 13.8177C24.6681 13.4742 23.3914 13.4596 21.7586 13.8185C21.0843 13.9667 20.4176 13.5402 20.2694 12.8659C20.1212 12.1917 20.5477 11.5249 21.2219 11.3767C23.214 10.9389 24.8593 10.9555 26.7542 11.3775C27.428 11.5276 27.8526 12.1955 27.7025 12.8693C27.5525 13.5432 26.8846 13.9678 26.2107 13.8177ZM15.3613 17.6914C15.3613 18.6579 14.5778 19.4414 13.6113 19.4414C12.6448 19.4414 11.8613 18.6579 11.8613 17.6914C11.8613 16.7249 12.6448 15.9414 13.6113 15.9414C14.5778 15.9414 15.3613 16.7249 15.3613 17.6914Z" fill="#292929"/>
</clipPath>
<g clip-path="url(#mask0_5481_122428)">
<g clip-path="url(#clip0_5481_122428)">
<rect width="48" height="48" rx="10" fill="#D9F4FD"/>
<circle cx="42.7877" cy="31.5552" r="69.3033" fill="url(#paint0_radial_5481_122428)"/>
<path d="M-4.31959 15.0345C-5.08998 -1.55641 7.73508 -15.6305 24.326 -16.4009C40.9169 -17.1713 54.991 -4.34621 55.7613 12.2447C56.5317 28.8356 43.7067 42.9097 27.1158 43.6801C10.5249 44.4504 -3.54921 31.6254 -4.31959 15.0345Z" fill="url(#paint1_linear_5481_122428)"/>
<path d="M12.1243 -33.214C8.38167 -35.53 3.6397 -35.5442 -0.116893 -33.2506L-37.6896 -10.3099C-41.3694 -8.06314 -41.3755 -2.75987 -37.7007 -0.504581L-0.376298 22.4036C3.37467 24.7054 8.11665 24.7027 11.8644 22.3954L49.1119 -0.534222C52.7672 -2.7847 52.7739 -8.05833 49.1231 -10.3173L12.1243 -33.214Z" fill="url(#paint2_linear_5481_122428)"/>
<path d="M-23.9274 22.9579C-16.1831 22.9579 -9.16812 26.0922 -4.0892 31.1486C6.06863 41.2789 14.4901 41.2875 24.6479 31.1746C29.7268 26.0922 36.7505 22.9492 44.5034 22.9492C60.0006 22.9579 72.5547 35.4778 72.5547 50.9329C72.5547 66.388 60.0006 78.8992 44.5034 78.8992C36.7331 78.8992 29.7095 75.7476 24.6306 70.6652C14.4814 60.5696 6.06863 60.5782 -4.0892 70.7085C-9.16812 75.7736 -16.1831 78.8992 -23.9274 78.8992C-39.4159 78.8992 -51.9699 66.3793 -51.9699 50.9329C-51.9699 35.4865 -39.4159 22.9579 -23.9274 22.9579Z" fill="url(#paint3_linear_5481_122428)"/>
</g>
</g>

</svg>
