<svg width="160" height="160" viewBox="0 0 160 160" xmlns="http://www.w3.org/2000/svg">
  <defs>
<radialGradient id="paint0_radial_5481_122263" cx="0" cy="0" r="1" gradientUnits="userSpaceOnUse" gradientTransform="translate(142.62 105.187) rotate(90) scale(231.011)">
<stop offset="0.0885417" stop-color="#EB1000"/>
<stop offset="1" stop-color="#EB1000" stop-opacity="0"/>
</radialGradient>
<linearGradient id="paint1_linear_5481_122263" x1="115.768" y1="-5.14512" x2="23.108" y2="114.991" gradientUnits="userSpaceOnUse">
<stop stop-color="#FF4885"/>
<stop offset="1" stop-color="#FF4885" stop-opacity="0"/>
</linearGradient>
<linearGradient id="paint2_linear_5481_122263" x1="59.3137" y1="-60.4521" x2="77.1884" y2="53.9458" gradientUnits="userSpaceOnUse">
<stop offset="0.15625" stop-color="#7A6AFD"/>
<stop offset="1" stop-color="#7A6AFD" stop-opacity="0"/>
</linearGradient>
<linearGradient id="paint3_linear_5481_122263" x1="-146.934" y1="169.541" x2="153.819" y2="110.102" gradientUnits="userSpaceOnUse">
<stop stop-color="#30A7FE" stop-opacity="0"/>
<stop offset="0.432292" stop-color="#30A7FE" stop-opacity="0.994652"/>
<stop offset="0.609375" stop-color="#30A7FE"/>
<stop offset="1" stop-color="#30A7FE" stop-opacity="0"/>
</linearGradient>
<clipPath id="clip0_5481_122263">
<rect width="160" height="160" rx="10" fill="white"/>
</clipPath>
</defs>
<clipPath id="mask0_5481_122263">
<path fill-rule="evenodd" d="M129.934 67.6663L148.52 49.0804C150.082 47.5183 150.082 44.9856 148.52 43.4235L129.934 24.8376C128.372 23.2755 125.839 23.2755 124.277 24.8376C122.715 26.3997 122.715 28.9323 124.277 30.4944L135.679 41.8965H128.501C119.772 41.8965 111.718 44.8369 105.291 49.7792C105.193 49.8542 105.1 49.9329 105.012 50.0148C104.969 50.0457 104.927 50.0775 104.885 50.1103C100.15 53.8283 95.7344 59.2319 92.2783 64.1854C88.807 69.1607 86.0903 73.9915 84.8205 76.7939C83.8269 78.9869 81.366 84.1999 78.1097 89.6755C75.3069 94.3887 72.1053 98.9655 68.928 102.052C68.8314 102.125 68.7372 102.203 68.6458 102.286C63.2972 107.146 56.2026 110.103 48.4081 110.103C31.7824 110.103 18.3047 96.6255 18.3047 79.9999C18.3047 63.3742 31.7824 49.8965 48.4081 49.8965C58.5748 49.8965 67.5657 54.9326 73.0223 62.6643L73.0294 62.6743L73.0366 62.6844L75.118 65.5953C76.4029 67.3923 78.9013 67.8075 80.6983 66.5226C82.4953 65.2377 82.9105 62.7393 81.6256 60.9423L79.5512 58.041C72.6591 48.2824 61.2795 41.8965 48.4081 41.8965C27.3642 41.8965 10.3047 58.956 10.3047 79.9999C10.3047 101.044 27.3642 118.103 48.4081 118.103C57.1288 118.103 65.1716 115.169 71.5932 110.24C71.7751 110.138 71.9514 110.02 72.1203 109.887C77.0849 105.972 81.5865 99.4807 84.9858 93.7646C88.4511 87.9372 91.0492 82.4311 92.1074 80.0958C93.1298 77.8393 95.5782 73.4368 98.8392 68.763C102.115 64.0674 106 59.4063 109.825 56.4026C109.911 56.335 109.994 56.2646 110.073 56.1916C110.105 56.1685 110.137 56.1449 110.168 56.1207C115.245 52.2161 121.597 49.8965 128.501 49.8965H136.39L124.277 62.0094C122.715 63.5715 122.715 66.1042 124.277 67.6663C125.839 69.2284 128.372 69.2284 129.934 67.6663ZM137.953 118.103C140.163 118.103 141.953 116.312 141.953 114.103C141.953 111.894 140.163 110.103 137.953 110.103H128.501C118.54 110.103 110.462 104.374 103.388 96.6573L100.671 93.3744C99.2631 91.6724 96.7416 91.4344 95.0396 92.8427C93.3376 94.2511 93.0995 96.7725 94.5079 98.4745L97.2883 101.835L97.3514 101.911L97.4182 101.984C105.047 110.326 115.138 118.103 128.501 118.103H137.953Z" fill="white"/>
</clipPath>
<g clip-path="url(#mask0_5481_122263)">
<g clip-path="url(#clip0_5481_122263)">
<rect width="160" height="160" rx="10" fill="#D9F4FD"/>
<circle cx="142.62" cy="105.187" r="231.011" fill="url(#paint0_radial_5481_122263)"/>
<path d="M-14.3999 50.1137C-16.9679 -5.18932 25.7823 -52.103 81.0853 -54.6709C136.388 -57.2388 183.302 -14.4887 185.87 40.8143C188.438 96.1173 145.688 143.031 90.3846 145.599C35.0817 148.167 -11.832 105.417 -14.3999 50.1137Z" fill="url(#paint1_linear_5481_122263)"/>
<path d="M40.4184 -110.716C27.9428 -118.436 12.1362 -118.483 -0.385738 -110.838L-125.628 -34.3691C-137.894 -26.8797 -137.914 -9.20217 -125.665 -1.68455L-1.25042 74.676C11.2528 82.3487 27.0594 82.3396 39.5518 74.6486L163.71 -1.78335C175.895 -9.28493 175.917 -26.8637 163.748 -34.3936L40.4184 -110.716Z" fill="url(#paint2_linear_5481_122263)"/>
<path d="M-79.7631 76.5289C-53.9489 76.5289 -30.5656 86.9766 -13.6359 103.831C20.2235 137.599 48.2951 137.628 82.1545 103.918C99.0842 86.9766 122.496 76.5 148.34 76.5C199.997 76.5289 241.844 118.262 241.844 169.779C241.844 221.296 199.997 263 148.34 263C122.439 263 99.0263 252.495 82.0966 235.553C48.2661 201.901 20.2235 201.93 -13.6359 235.697C-30.5656 252.581 -53.9489 263 -79.7631 263C-131.392 263 -173.238 221.267 -173.238 169.779C-173.238 118.291 -131.392 76.5289 -79.7631 76.5289Z" fill="url(#paint3_linear_5481_122263)"/>
</g>
</g>

</svg>
