<svg width="48" height="48" viewBox="0 0 48 48" xmlns="http://www.w3.org/2000/svg">
  <defs>
<radialGradient id="paint0_radial_6243_79734" cx="0" cy="0" r="1" gradientUnits="userSpaceOnUse" gradientTransform="translate(42.7877 31.5562) rotate(90) scale(69.3033)">
<stop offset="0.0885417" stop-color="#EB1000"/>
<stop offset="1" stop-color="#EB1000" stop-opacity="0"/>
</radialGradient>
<linearGradient id="paint1_linear_6243_79734" x1="34.7309" y1="-1.54413" x2="6.93278" y2="34.4968" gradientUnits="userSpaceOnUse">
<stop stop-color="#FF4885"/>
<stop offset="1" stop-color="#FF4885" stop-opacity="0"/>
</linearGradient>
<linearGradient id="paint2_linear_6243_79734" x1="17.7929" y1="-18.1358" x2="23.1553" y2="16.1835" gradientUnits="userSpaceOnUse">
<stop offset="0.15625" stop-color="#7A6AFD"/>
<stop offset="1" stop-color="#7A6AFD" stop-opacity="0"/>
</linearGradient>
<linearGradient id="paint3_linear_6243_79734" x1="-44.0785" y1="50.8625" x2="46.1473" y2="33.0308" gradientUnits="userSpaceOnUse">
<stop stop-color="#30A7FE" stop-opacity="0"/>
<stop offset="0.432292" stop-color="#30A7FE" stop-opacity="0.994652"/>
<stop offset="0.609375" stop-color="#30A7FE"/>
<stop offset="1" stop-color="#30A7FE" stop-opacity="0"/>
</linearGradient>
<clipPath id="clip0_6243_79734">
<rect width="48" height="48" rx="10" fill="white"/>
</clipPath>
</defs>
<clipPath id="mask0_6243_79734">
<path fill-rule="evenodd" d="M8.5 24.1728C9.19036 24.1728 9.75 24.7325 9.75 25.4228L9.75 34.2464C9.75 35.596 10.8326 36.6728 12.1471 36.6728L35.8529 36.6728C37.1674 36.6728 38.25 35.596 38.25 34.2464L38.25 25.4228C38.25 24.7325 38.8096 24.1728 39.5 24.1728C40.1904 24.1728 40.75 24.7325 40.75 25.4228L40.75 34.2464C40.75 36.9577 38.567 39.1728 35.8529 39.1728L12.1471 39.1728C9.43304 39.1728 7.25 36.9577 7.25 34.2464L7.25 25.4228C7.25 24.7325 7.80964 24.1728 8.5 24.1728ZM24 8.82812C24.6904 8.82812 25.25 9.38777 25.25 10.0781L25.25 28.659L30.1161 23.7929C30.6043 23.3047 31.3957 23.3047 31.8839 23.7929C32.372 24.281 32.372 25.0725 31.8839 25.5606L24.8839 32.5606C24.3957 33.0488 23.6043 33.0488 23.1161 32.5606L16.1161 25.5606C15.628 25.0725 15.628 24.281 16.1161 23.7929C16.6043 23.3047 17.3957 23.3047 17.8839 23.7929L22.75 28.659L22.75 10.0781C22.75 9.38777 23.3097 8.82812 24 8.82812Z" fill="white"/>
</clipPath>
<g clip-path="url(#mask0_6243_79734)">
<g clip-path="url(#clip0_6243_79734)">
<rect width="48" height="48" rx="10" fill="#D9F4FD"/>
<circle cx="42.7877" cy="31.5562" r="69.3033" fill="url(#paint0_radial_6243_79734)"/>
<path d="M-4.31959 15.0335C-5.08998 -1.55739 7.73508 -15.6315 24.326 -16.4019C40.9169 -17.1722 54.991 -4.34719 55.7613 12.2437C56.5317 28.8346 43.7067 42.9087 27.1158 43.6791C10.5249 44.4495 -3.54921 31.6244 -4.31959 15.0335Z" fill="url(#paint1_linear_6243_79734)"/>
<path d="M12.1243 -33.215C8.38167 -35.531 3.6397 -35.5451 -0.116894 -33.2516L-37.6896 -10.3109C-41.3694 -8.06412 -41.3755 -2.76085 -37.7007 -0.505558L-0.376297 22.4026C3.37467 24.7044 8.11665 24.7017 11.8644 22.3944L49.1119 -0.535198C52.7673 -2.78568 52.7739 -8.05931 49.1231 -10.3183L12.1243 -33.215Z" fill="url(#paint2_linear_6243_79734)"/>
<path d="M-23.9274 22.9589C-16.1831 22.9589 -9.16812 26.0932 -4.0892 31.1496C6.06863 41.2798 14.4901 41.2885 24.6479 31.1756C29.7268 26.0932 36.7505 22.9502 44.5034 22.9502C60.0006 22.9589 72.5547 35.4788 72.5547 50.9339C72.5547 66.3889 60.0006 78.9002 44.5034 78.9002C36.7331 78.9002 29.7095 75.7486 24.6306 70.6661C14.4814 60.5706 6.06863 60.5792 -4.0892 70.7094C-9.16812 75.7745 -16.1831 78.9002 -23.9274 78.9002C-39.4159 78.9002 -51.9699 66.3803 -51.9699 50.9339C-51.9699 35.4874 -39.4159 22.9589 -23.9274 22.9589Z" fill="url(#paint3_linear_6243_79734)"/>
</g>
</g>

</svg>
