<svg width="96" height="96" viewBox="0 0 96 96" xmlns="http://www.w3.org/2000/svg">
  <defs>
<radialGradient id="paint0_radial_5481_122439" cx="0" cy="0" r="1" gradientUnits="userSpaceOnUse" gradientTransform="translate(78.2124 59.1226) rotate(90) scale(102.569 108.806)">
<stop offset="0.0885417" stop-color="#EB1000"/>
<stop offset="1" stop-color="#EB1000" stop-opacity="0"/>
</radialGradient>
<linearGradient id="paint1_linear_5481_122439" x1="65.5656" y1="10.1351" x2="25.102" y2="65.7873" gradientUnits="userSpaceOnUse">
<stop stop-color="#FF4885"/>
<stop offset="1" stop-color="#FF4885" stop-opacity="0"/>
</linearGradient>
<linearGradient id="paint2_linear_5481_122439" x1="38.9776" y1="-14.4206" x2="46.4789" y2="36.5072" gradientUnits="userSpaceOnUse">
<stop offset="0.15625" stop-color="#7A6AFD"/>
<stop offset="1" stop-color="#7A6AFD" stop-opacity="0"/>
</linearGradient>
<linearGradient id="paint3_linear_5481_122439" x1="-58.1649" y1="87.696" x2="82.8254" y2="58.1369" gradientUnits="userSpaceOnUse">
<stop stop-color="#30A7FE" stop-opacity="0"/>
<stop offset="0.432292" stop-color="#30A7FE" stop-opacity="0.994652"/>
<stop offset="0.609375" stop-color="#30A7FE"/>
<stop offset="1" stop-color="#30A7FE" stop-opacity="0"/>
</linearGradient>
<clipPath id="clip0_5481_122439">
<rect x="11.0391" y="12.4199" width="75.36" height="71.04" rx="10" fill="white"/>
</clipPath>
</defs>
<clipPath id="mask0_5481_122439">
<path fill-rule="evenodd" d="M21.2113 53.7316C14.5285 60.3815 14.5286 71.1679 21.2113 77.8177C27.8875 84.461 38.7069 84.461 45.3831 77.8177L72.4243 50.9098C73.3639 49.9749 73.3676 48.4553 72.4327 47.5157C71.4977 46.5761 69.9781 46.5724 69.0386 47.5073L41.9974 74.4152C37.1938 79.1952 29.4007 79.1952 24.597 74.4152C19.8 69.6418 19.7999 61.9075 24.597 57.1341L61.6311 20.2825C64.6893 17.2394 69.6524 17.2394 72.7105 20.2825C75.7621 23.319 75.7621 28.2373 72.7106 31.2738L39.5154 64.3053C38.2385 65.576 36.1633 65.576 34.8863 64.3053C33.616 63.0412 33.616 60.9966 34.8863 59.7325L58.0885 36.6447C59.0281 35.7098 59.0318 34.1902 58.0969 33.2506C57.1619 32.311 55.6424 32.3073 54.7028 33.2422L31.5006 56.3301C28.3445 59.4706 28.3446 64.5673 31.5006 67.7078C34.6501 70.8418 39.7516 70.8418 42.9011 67.7078L76.0963 34.6763C81.0336 29.7634 81.0335 21.7929 76.0962 16.88C71.1655 11.9736 63.1761 11.9736 58.2454 16.88L21.2113 53.7316Z" fill="white" stroke="white" stroke-width="1.2" stroke-linecap="round" stroke-linejoin="round"/>
</clipPath>
<g clip-path="url(#mask0_5481_122439)">
<g clip-path="url(#clip0_5481_122439)">
<rect x="11.0391" y="12.4199" width="75.36" height="71.04" rx="10" fill="#D9F4FD"/>
<ellipse cx="78.2124" cy="59.1226" rx="108.806" ry="102.569" fill="url(#paint0_radial_5481_122439)"/>
<path d="M4.25636 34.67C3.04686 10.1154 23.1822 -10.7142 49.2299 -11.8544C75.2776 -12.9945 97.3739 5.98654 98.5834 30.5411C99.7929 55.0956 79.6576 75.9253 53.6099 77.0654C27.5622 78.2056 5.46586 59.2245 4.25636 34.67Z" fill="url(#paint1_linear_5481_122439)"/>
<path d="M30.0779 -36.7378C24.2019 -40.1654 16.757 -40.1864 10.8591 -36.792L-48.13 -2.83975C-53.9073 0.485503 -53.9169 8.33435 -48.1475 11.6722L10.4519 45.5763C16.3409 48.983 23.7858 48.9789 29.6697 45.5641L88.1484 11.6283C93.8873 8.2976 93.8977 0.492621 88.1659 -2.85065L30.0779 -36.7378Z" fill="url(#paint2_linear_5481_122439)"/>
<path d="M-26.5276 46.3986C-14.3691 46.3986 -3.35561 51.0373 4.61829 58.5209C20.5661 73.5136 33.7878 73.5264 49.7356 58.5593C57.7095 51.0373 68.7366 46.3857 80.9088 46.3857C105.239 46.3986 124.949 64.928 124.949 87.8016C124.949 110.675 105.239 129.192 80.9088 129.192C68.7094 129.192 57.6822 124.527 49.7083 117.005C33.7741 102.064 20.5661 102.077 4.61829 117.069C-3.35561 124.566 -14.3691 129.192 -26.5276 129.192C-50.8446 129.192 -70.5544 110.662 -70.5544 87.8016C-70.5544 64.9409 -50.8446 46.3986 -26.5276 46.3986Z" fill="url(#paint3_linear_5481_122439)"/>
</g>
</g>

</svg>
