<svg width="48" height="48" viewBox="0 0 48 48" xmlns="http://www.w3.org/2000/svg">
  <defs>
<radialGradient id="paint0_radial_5481_122273" cx="0" cy="0" r="1" gradientUnits="userSpaceOnUse" gradientTransform="translate(38.8346 29.4977) rotate(90) scale(54.7144 58.0417)">
<stop offset="0.0885417" stop-color="#EB1000"/>
<stop offset="1" stop-color="#EB1000" stop-opacity="0"/>
</radialGradient>
<linearGradient id="paint1_linear_5481_122273" x1="32.0859" y1="3.36564" x2="10.501" y2="33.0528" gradientUnits="userSpaceOnUse">
<stop stop-color="#FF4885"/>
<stop offset="1" stop-color="#FF4885" stop-opacity="0"/>
</linearGradient>
<linearGradient id="paint2_linear_5481_122273" x1="17.9023" y1="-9.73349" x2="21.9038" y2="17.4335" gradientUnits="userSpaceOnUse">
<stop offset="0.15625" stop-color="#7A6AFD"/>
<stop offset="1" stop-color="#7A6AFD" stop-opacity="0"/>
</linearGradient>
<linearGradient id="paint3_linear_5481_122273" x1="-33.9189" y1="44.7397" x2="41.2912" y2="28.9717" gradientUnits="userSpaceOnUse">
<stop stop-color="#30A7FE" stop-opacity="0"/>
<stop offset="0.432292" stop-color="#30A7FE" stop-opacity="0.994652"/>
<stop offset="0.609375" stop-color="#30A7FE"/>
<stop offset="1" stop-color="#30A7FE" stop-opacity="0"/>
</linearGradient>
<clipPath id="clip0_5481_122273">
<rect x="3" y="4.58398" width="40.2001" height="37.8957" rx="10" fill="white"/>
</clipPath>
</defs>
<clipPath id="mask0_5481_122273">
<path fill-rule="evenodd" d="M7.20078 19.0729C7.20078 12.8596 12.2376 7.82285 18.4508 7.82285C24.664 7.82285 29.7008 12.8596 29.7008 19.0729C29.7008 25.2861 24.664 30.3229 18.4508 30.3229C12.2376 30.3229 7.20078 25.2861 7.20078 19.0729ZM18.4508 5.42285C10.9121 5.42285 4.80078 11.5342 4.80078 19.0729C4.80078 26.6115 10.9121 32.7229 18.4508 32.7229C21.7881 32.7229 24.8456 31.5252 27.2171 29.5362L29.2603 31.5794L28.5696 32.2701L37.4218 41.1223C38.2647 41.9652 39.6313 41.9652 40.4743 41.1223C41.3172 40.2794 41.3172 38.9127 40.4743 38.0698L31.6221 29.2176L30.9573 29.8824L28.9142 27.8392C30.9031 25.4677 32.1008 22.4101 32.1008 19.0729C32.1008 11.5342 25.9895 5.42285 18.4508 5.42285Z" fill="white"/>
</clipPath>
<g clip-path="url(#mask0_5481_122273)">
<g clip-path="url(#clip0_5481_122273)">
<rect x="3" y="4.58398" width="40.2001" height="37.8957" rx="10" fill="#D9F4FD"/>
<ellipse cx="38.8346" cy="29.4977" rx="58.0417" ry="54.7144" fill="url(#paint0_radial_5481_122273)"/>
<path d="M-0.618982 16.4536C-1.26418 3.35517 9.47684 -7.75622 23.3718 -8.36443C37.2667 -8.97264 49.0538 1.15265 49.699 14.251C50.3442 27.3494 39.6031 38.4608 25.7082 39.069C11.8133 39.6772 0.0262157 29.552 -0.618982 16.4536Z" fill="url(#paint1_linear_5481_122273)"/>
<path d="M13.1549 -21.6384C10.0204 -23.4668 6.04895 -23.478 2.90279 -21.6673L-28.5644 -3.55579C-31.6463 -1.78196 -31.6514 2.40494 -28.5738 4.18547L2.68554 22.2713C5.82698 24.0886 9.79841 24.0864 12.9371 22.2648L44.1321 4.16207C47.1934 2.38533 47.199 -1.77816 44.1414 -3.5616L13.1549 -21.6384Z" fill="url(#paint2_linear_5481_122273)"/>
<path d="M-17.0422 22.71C-10.5564 22.71 -4.68134 25.1845 -0.427733 29.1765C8.07948 37.1742 15.1325 37.1811 23.6397 29.197C27.8933 25.1845 33.7756 22.7031 40.2687 22.7031C53.2477 22.71 63.7617 32.5943 63.7617 44.796C63.7617 56.9977 53.2477 66.8752 40.2687 66.8752C33.7611 66.8752 27.8787 64.3871 23.6251 60.3745C15.1252 52.4041 8.07948 52.411 -0.427733 60.4087C-4.68134 64.4076 -10.5564 66.8752 -17.0422 66.8752C-30.0139 66.8752 -40.528 56.9909 -40.528 44.796C-40.528 32.6012 -30.0139 22.71 -17.0422 22.71Z" fill="url(#paint3_linear_5481_122273)"/>
</g>
</g>

</svg>
