<svg width="160" height="160" viewBox="0 0 160 160" xmlns="http://www.w3.org/2000/svg">
  <defs>
<radialGradient id="paint0_radial_5481_122174" cx="0" cy="0" r="1" gradientUnits="userSpaceOnUse" gradientTransform="translate(129.774 101.839) rotate(90) scale(178.298 189.141)">
<stop offset="0.0885417" stop-color="#EB1000"/>
<stop offset="1" stop-color="#EB1000" stop-opacity="0"/>
</radialGradient>
<linearGradient id="paint1_linear_5481_122174" x1="107.785" y1="16.6832" x2="37.4466" y2="113.425" gradientUnits="userSpaceOnUse">
<stop stop-color="#FF4885"/>
<stop offset="1" stop-color="#FF4885" stop-opacity="0"/>
</linearGradient>
<linearGradient id="paint2_linear_5481_122174" x1="61.5653" y1="-26.004" x2="74.605" y2="62.5252" gradientUnits="userSpaceOnUse">
<stop offset="0.15625" stop-color="#7A6AFD"/>
<stop offset="1" stop-color="#7A6AFD" stop-opacity="0"/>
</linearGradient>
<linearGradient id="paint3_linear_5481_122174" x1="-107.301" y1="151.51" x2="137.787" y2="100.127" gradientUnits="userSpaceOnUse">
<stop stop-color="#30A7FE" stop-opacity="0"/>
<stop offset="0.432292" stop-color="#30A7FE" stop-opacity="0.994652"/>
<stop offset="0.609375" stop-color="#30A7FE"/>
<stop offset="1" stop-color="#30A7FE" stop-opacity="0"/>
</linearGradient>
<clipPath id="clip0_5481_122174">
<rect x="13" y="20.6543" width="131" height="123.491" rx="10" fill="white"/>
</clipPath>
</defs>
<clipPath id="mask0_5481_122174">
<path fill-rule="evenodd" d="M61.1239 39.7152L66.7789 45.3701L72.5589 51.1502L83.8589 62.4502C87.5189 66.1102 93.4489 66.1102 97.1089 62.4502C100.769 58.7902 100.769 52.8602 97.1089 49.2002L85.8089 37.9002L80.0289 32.1201L78.1489 30.2402C76.8089 28.9202 75.2989 27.9002 73.6889 27.1502C73.6377 27.1256 73.5864 27.1006 73.5351 27.0756C73.3559 26.9882 73.1754 26.9001 72.9889 26.8302C72.3589 26.5702 71.7089 26.3702 71.0589 26.1902C65.7189 24.7702 59.7989 26.1402 55.6089 30.3202L25.1789 60.7502C20.2889 65.6402 19.2489 72.9002 22.0089 78.8302L55.4689 45.3701L61.1239 39.7152ZM104.387 30.4001L134.817 60.8301V60.8501C141.067 67.1001 141.067 77.2301 134.817 83.4801L100.937 117.36L86.6573 131.64C82.9974 135.3 77.0674 135.3 73.4074 131.63H73.3974C69.7374 127.97 69.7374 122.04 73.3974 118.38C69.7374 122.04 63.8073 122.04 60.1473 118.37H60.1373C56.5073 114.74 56.4873 108.88 60.0573 105.21C56.3873 108.78 50.5273 108.75 46.8973 105.11H46.8873C43.2273 101.45 43.2273 95.5101 46.8873 91.8501H46.8773C43.2173 95.5101 37.2873 95.5101 33.6273 91.8401H33.6173C33.3273 91.5501 33.0673 91.2401 32.8273 90.9301C29.9873 87.2501 30.2473 81.9501 33.6173 78.5801L48.5773 63.6101L61.1373 51.0501L66.9173 56.8301L78.2173 68.1301C81.4973 71.4101 85.8573 73.2201 90.4973 73.2201C95.1374 73.2201 99.4973 71.4101 102.777 68.1301C109.547 61.3501 109.547 50.3301 102.777 43.5601L86.4073 27.1901C92.3073 24.4801 99.5173 25.5301 104.387 30.4001Z" fill="white"/>
</clipPath>
<g clip-path="url(#mask0_5481_122174)">
<g clip-path="url(#clip0_5481_122174)">
<rect x="13" y="20.6543" width="131" height="123.491" rx="10" fill="#D9F4FD"/>
<ellipse cx="129.774" cy="101.839" rx="189.141" ry="178.298" fill="url(#paint0_radial_5481_122174)"/>
<path d="M1.20997 59.3329C-0.892543 16.6491 34.1093 -19.5597 79.3887 -21.5417C124.668 -23.5236 163.079 9.47171 165.181 52.1555C167.284 94.8394 132.282 131.048 87.0026 133.03C41.7231 135.012 3.31247 102.017 1.20997 59.3329Z" fill="url(#paint1_linear_5481_122174)"/>
<path d="M46.0947 -64.7986C35.8803 -70.757 22.9386 -70.7935 12.6862 -64.8928L-89.8563 -5.87271C-99.899 -0.0923241 -99.9158 13.5515 -89.8867 19.3538L11.9782 78.2902C22.2153 84.2121 35.157 84.2051 45.3852 78.2691L147.04 19.2775C157.016 13.4877 157.034 -0.0799501 147.071 -5.89166L46.0947 -64.7986Z" fill="url(#paint2_linear_5481_122174)"/>
<path d="M-52.3047 79.7215C-31.1693 79.7215 -12.0241 87.7852 1.83711 100.794C29.5596 126.856 52.5432 126.879 80.2657 100.861C94.127 87.7852 113.296 79.6992 134.455 79.6992C176.75 79.7215 211.012 111.932 211.012 151.693C211.012 191.455 176.75 223.643 134.455 223.643C113.248 223.643 94.0796 215.535 80.2183 202.459C52.5195 176.486 29.5596 176.508 1.83711 202.571C-12.0241 215.602 -31.1693 223.643 -52.3047 223.643C-94.5756 223.643 -128.838 191.433 -128.838 151.693C-128.838 111.954 -94.5756 79.7215 -52.3047 79.7215Z" fill="url(#paint3_linear_5481_122174)"/>
</g>
</g>

</svg>
