<svg width="96" height="96" viewBox="0 0 96 96" xmlns="http://www.w3.org/2000/svg">
  <defs>
<radialGradient id="paint0_radial_5481_122450" cx="0" cy="0" r="1" gradientUnits="userSpaceOnUse" gradientTransform="translate(80.4161 60.8848) rotate(90) scale(120.537)">
<stop offset="0.0885417" stop-color="#EB1000"/>
<stop offset="1" stop-color="#EB1000" stop-opacity="0"/>
</radialGradient>
<linearGradient id="paint1_linear_5481_122450" x1="66.4063" y1="3.31564" x2="18.0579" y2="66.0005" gradientUnits="userSpaceOnUse">
<stop stop-color="#FF4885"/>
<stop offset="1" stop-color="#FF4885" stop-opacity="0"/>
</linearGradient>
<linearGradient id="paint2_linear_5481_122450" x1="36.9502" y1="-25.5425" x2="46.2768" y2="34.1482" gradientUnits="userSpaceOnUse">
<stop offset="0.15625" stop-color="#7A6AFD"/>
<stop offset="1" stop-color="#7A6AFD" stop-opacity="0"/>
</linearGradient>
<linearGradient id="paint3_linear_5481_122450" x1="-70.6653" y1="94.4631" x2="86.2618" y2="63.4489" gradientUnits="userSpaceOnUse">
<stop stop-color="#30A7FE" stop-opacity="0"/>
<stop offset="0.432292" stop-color="#30A7FE" stop-opacity="0.994652"/>
<stop offset="0.609375" stop-color="#30A7FE"/>
<stop offset="1" stop-color="#30A7FE" stop-opacity="0"/>
</linearGradient>
<clipPath id="clip0_5481_122450">
<rect x="6" y="6" width="83.485" height="83.485" rx="10" fill="white"/>
</clipPath>
</defs>
<clipPath id="mask0_5481_122450">
<path fill-rule="evenodd" d="M35.9582 28.8478C31.9862 28.8478 28.7582 32.0758 28.7582 36.0478V38.9938L19.0742 32.9218L45.5462 16.3558C47.1122 15.3778 49.0922 15.3778 50.6522 16.3618L76.9322 32.9158L67.2422 38.9938V36.0478C67.2422 32.0758 64.0142 28.8478 60.0422 28.8478H35.9582ZM35.9586 33.6478C34.6326 33.6478 33.5586 34.7218 33.5586 36.0478V41.9998L46.7286 50.2618C47.5026 50.7478 48.5046 50.7478 49.2786 50.2618L62.4486 41.9998V36.0418C62.4486 34.7158 61.3746 33.6418 60.0486 33.6418H35.9646L35.9586 33.6478ZM51.8285 54.3298C50.6645 55.0558 49.3325 55.4218 48.0005 55.4218C46.6685 55.4218 45.3365 55.0558 44.1725 54.3298L16.8125 37.1698V70.7818C16.8125 76.0858 21.1085 80.3878 26.4125 80.3878H69.5885C74.8925 80.3878 79.1885 76.0858 79.1885 70.7818V37.1698L51.8285 54.3298Z" fill="white"/>
</clipPath>
<g clip-path="url(#mask0_5481_122450)">
<g clip-path="url(#clip0_5481_122450)">
<rect x="6" y="6" width="83.485" height="83.485" rx="10" fill="#D9F4FD"/>
<circle cx="80.4161" cy="60.8848" r="120.537" fill="url(#paint0_radial_5481_122450)"/>
<path d="M-1.51297 32.1486C-2.85287 3.29258 19.4534 -21.1861 48.3094 -22.526C77.1655 -23.8659 101.644 -1.55964 102.984 27.2964C104.324 56.1525 82.0177 80.6311 53.1616 81.971C24.3056 83.3109 -0.173066 61.0047 -1.51297 32.1486Z" fill="url(#paint1_linear_5481_122450)"/>
<path d="M27.091 -51.7692C20.5814 -55.7973 12.3339 -55.822 5.80015 -51.8329L-59.5489 -11.9329C-65.9491 -8.02507 -65.9597 1.19875 -59.5683 5.12131L5.34897 44.9648C11.8729 48.9683 20.1205 48.9635 26.6388 44.9505L91.4224 5.06975C97.78 1.15557 97.7916 -8.01671 91.4418 -11.9457L27.091 -51.7692Z" fill="url(#paint2_linear_5481_122450)"/>
<path d="M-35.617 45.9311C-22.1476 45.9311 -9.94668 51.3825 -1.11306 60.177C16.5542 77.7962 31.2013 77.8113 48.8686 60.2222C57.7022 51.3825 69.9182 45.916 83.4027 45.916C110.357 45.9311 132.191 67.7066 132.191 94.5872C132.191 121.468 110.357 143.228 83.4027 143.228C69.888 143.228 57.672 137.747 48.8384 128.907C31.1862 111.348 16.5542 111.363 -1.11306 128.982C-9.94668 137.792 -22.1476 143.228 -35.617 143.228C-62.5557 143.228 -84.3906 121.453 -84.3906 94.5872C-84.3906 67.7217 -62.5557 45.9311 -35.617 45.9311Z" fill="url(#paint3_linear_5481_122450)"/>
</g>
</g>

</svg>
