<svg width="48" height="48" viewBox="0 0 48 48" xmlns="http://www.w3.org/2000/svg">
  <defs>
<radialGradient id="paint0_radial_5481_122388" cx="0" cy="0" r="1" gradientUnits="userSpaceOnUse" gradientTransform="translate(42.7877 31.5552) rotate(90) scale(69.3033)">
<stop offset="0.0885417" stop-color="#EB1000"/>
<stop offset="1" stop-color="#EB1000" stop-opacity="0"/>
</radialGradient>
<linearGradient id="paint1_linear_5481_122388" x1="34.7309" y1="-1.54315" x2="6.93278" y2="34.4977" gradientUnits="userSpaceOnUse">
<stop stop-color="#FF4885"/>
<stop offset="1" stop-color="#FF4885" stop-opacity="0"/>
</linearGradient>
<linearGradient id="paint2_linear_5481_122388" x1="17.7929" y1="-18.1348" x2="23.1553" y2="16.1845" gradientUnits="userSpaceOnUse">
<stop offset="0.15625" stop-color="#7A6AFD"/>
<stop offset="1" stop-color="#7A6AFD" stop-opacity="0"/>
</linearGradient>
<linearGradient id="paint3_linear_5481_122388" x1="-44.0785" y1="50.8616" x2="46.1473" y2="33.0298" gradientUnits="userSpaceOnUse">
<stop stop-color="#30A7FE" stop-opacity="0"/>
<stop offset="0.432292" stop-color="#30A7FE" stop-opacity="0.994652"/>
<stop offset="0.609375" stop-color="#30A7FE"/>
<stop offset="1" stop-color="#30A7FE" stop-opacity="0"/>
</linearGradient>
<clipPath id="clip0_5481_122388">
<rect width="48" height="48" rx="10" fill="white"/>
</clipPath>
</defs>
<clipPath id="mask0_5481_122388">
<path fill-rule="evenodd" d="M35.7431 11.2417C36.938 9.07824 40.2402 9.91865 40.2402 12.3994V27.7158V36.0957C40.2402 38.0537 38.6509 39.6376 36.6946 39.6376H11.5456C9.5893 39.6376 8 38.0537 8 36.0957V32.5862V23.5688C8 22.9084 8.27277 22.2777 8.75326 21.8252L13.6405 17.2228C14.6329 16.2882 16.2047 16.3676 17.0976 17.398L20.5416 21.3721L25.0879 14.3519C25.9713 12.9879 27.9277 12.8795 28.9569 14.1364L32.0546 17.92L35.7431 11.2417ZM20.468 21.4857C20.4681 21.4856 20.4681 21.4855 20.4682 21.4854ZM37.7402 12.7967L34.1703 19.2603L33.0761 18.6559L34.1703 19.2603C33.3502 20.7451 31.2891 20.9314 30.2152 19.6197L27.1106 15.8278L22.5664 22.8446C21.6983 24.1851 19.7862 24.3178 18.7407 23.1113L15.2776 19.1151L10.5 23.6143V30.2958L14.5996 27.6585C15.5686 27.0352 16.8242 27.0854 17.7403 27.7842L21.6208 30.744C21.8248 30.8996 22.1148 30.8693 22.2823 30.6748L27.2011 24.962C28.2393 23.7563 30.0831 23.6868 31.2091 24.811L34.7591 28.3554L37.7402 26.9284V12.7967ZM37.7402 29.7L35.0412 30.992C34.5634 31.2207 33.9933 31.1234 33.6183 30.7491L29.4427 26.5802C29.3452 26.4828 29.1855 26.4888 29.0956 26.5932L24.1768 32.306C23.146 33.5032 21.3608 33.6899 20.1046 32.7317L16.2242 29.7719C16.1448 29.7114 16.0361 29.7071 15.9522 29.7611L10.5 33.2684V36.0957C10.5 36.6693 10.9662 37.1376 11.5456 37.1376H36.6946C37.2739 37.1376 37.7402 36.6693 37.7402 36.0957V29.7ZM10.4674 23.645L10.4672 23.6452L10.3953 23.5688L10.4672 23.6452C10.4673 23.6451 10.4673 23.6451 10.4674 23.645ZM27.1861 15.7111C27.1862 15.711 27.1863 15.7109 27.1863 15.7108L27.1012 15.6557L27.1863 15.7108L27.1861 15.7111Z" fill="#8F8F8F"/>
</clipPath>
<g clip-path="url(#mask0_5481_122388)">
<g clip-path="url(#clip0_5481_122388)">
<rect width="48" height="48" rx="10" fill="#D9F4FD"/>
<circle cx="42.7877" cy="31.5552" r="69.3033" fill="url(#paint0_radial_5481_122388)"/>
<path d="M-4.31959 15.0345C-5.08998 -1.55641 7.73508 -15.6305 24.326 -16.4009C40.9169 -17.1713 54.991 -4.34621 55.7613 12.2447C56.5317 28.8356 43.7067 42.9097 27.1158 43.6801C10.5249 44.4504 -3.54921 31.6254 -4.31959 15.0345Z" fill="url(#paint1_linear_5481_122388)"/>
<path d="M12.1243 -33.214C8.38167 -35.53 3.6397 -35.5442 -0.116893 -33.2506L-37.6896 -10.3099C-41.3694 -8.06314 -41.3755 -2.75987 -37.7007 -0.504581L-0.376298 22.4036C3.37467 24.7054 8.11665 24.7027 11.8644 22.3954L49.1119 -0.534222C52.7672 -2.7847 52.7739 -8.05833 49.1231 -10.3173L12.1243 -33.214Z" fill="url(#paint2_linear_5481_122388)"/>
<path d="M-23.9274 22.9579C-16.1831 22.9579 -9.16812 26.0922 -4.0892 31.1486C6.06863 41.2789 14.4901 41.2875 24.6479 31.1746C29.7268 26.0922 36.7505 22.9492 44.5034 22.9492C60.0006 22.9579 72.5547 35.4778 72.5547 50.9329C72.5547 66.388 60.0006 78.8992 44.5034 78.8992C36.7331 78.8992 29.7095 75.7476 24.6306 70.6652C14.4814 60.5696 6.06863 60.5782 -4.0892 70.7085C-9.16812 75.7736 -16.1831 78.8992 -23.9274 78.8992C-39.4159 78.8992 -51.9699 66.3793 -51.9699 50.9329C-51.9699 35.4865 -39.4159 22.9579 -23.9274 22.9579Z" fill="url(#paint3_linear_5481_122388)"/>
</g>
</g>

</svg>
