<svg width="160" height="160" viewBox="0 0 160 160" xmlns="http://www.w3.org/2000/svg">
  <defs>
<radialGradient id="paint0_radial_5481_122154" cx="0" cy="0" r="1" gradientUnits="userSpaceOnUse" gradientTransform="translate(130.355 101.038) rotate(90) scale(170.948 181.344)">
<stop offset="0.0885417" stop-color="#EB1000"/>
<stop offset="1" stop-color="#EB1000" stop-opacity="0"/>
</radialGradient>
<linearGradient id="paint1_linear_5481_122154" x1="109.277" y1="19.3921" x2="41.838" y2="112.146" gradientUnits="userSpaceOnUse">
<stop stop-color="#FF4885"/>
<stop offset="1" stop-color="#FF4885" stop-opacity="0"/>
</linearGradient>
<linearGradient id="paint2_linear_5481_122154" x1="64.9613" y1="-21.5347" x2="77.4635" y2="63.345" gradientUnits="userSpaceOnUse">
<stop offset="0.15625" stop-color="#7A6AFD"/>
<stop offset="1" stop-color="#7A6AFD" stop-opacity="0"/>
</linearGradient>
<linearGradient id="paint3_linear_5481_122154" x1="-96.9441" y1="148.659" x2="138.04" y2="99.3939" gradientUnits="userSpaceOnUse">
<stop stop-color="#30A7FE" stop-opacity="0"/>
<stop offset="0.432292" stop-color="#30A7FE" stop-opacity="0.994652"/>
<stop offset="0.609375" stop-color="#30A7FE"/>
<stop offset="1" stop-color="#30A7FE" stop-opacity="0"/>
</linearGradient>
<clipPath id="clip0_5481_122154">
<rect x="18.3984" y="23.1992" width="125.6" height="118.4" rx="10" fill="white"/>
</clipPath>
</defs>
<clipPath id="mask0_5481_122154">
<path fill-rule="evenodd" d="M75.9998 24.1602C63.5498 25.0402 52.2198 29.9902 43.3398 37.6902L75.9998 70.3502V24.1602ZM37.69 43.3403C29.17 53.1603 24 65.9703 24 80.0003C24 94.0303 29.17 106.83 37.69 116.66L74.35 80.0003L37.69 43.3403ZM83.9998 80.0002V24.1702C113.06 26.2202 136 49.0802 136 80.0102C136 110.94 110.93 136.01 79.9998 136.01C65.9698 136.01 53.1598 130.84 43.3398 122.32L82.8298 82.8302L82.8356 82.8244C82.9151 82.7405 82.9911 82.6566 83.0628 82.5712C83.1574 82.4552 83.2452 82.3343 83.3298 82.2102C83.4198 82.0702 83.4898 81.9202 83.5598 81.7702L83.5598 81.7702L83.5693 81.7516L83.5815 81.7284C83.5909 81.7108 83.6005 81.6932 83.6103 81.6754C83.6375 81.6258 83.6655 81.5748 83.6898 81.5202C83.7461 81.3835 83.783 81.2468 83.8213 81.1049L83.8213 81.1048L83.8216 81.1036C83.8309 81.0694 83.8402 81.035 83.8498 81.0002C83.8539 80.9861 83.8583 80.972 83.8629 80.9579C83.8681 80.9421 83.8737 80.9262 83.8793 80.91L83.9998 80.0002Z" fill="white"/>
</clipPath>
<g clip-path="url(#mask0_5481_122154)">
<g clip-path="url(#clip0_5481_122154)">
<rect x="18.3984" y="23.1992" width="125.6" height="118.4" rx="10" fill="#D9F4FD"/>
<ellipse cx="130.355" cy="101.038" rx="181.344" ry="170.948" fill="url(#paint0_radial_5481_122154)"/>
<path d="M7.09525 60.2836C5.07941 19.3594 38.6383 -15.3567 82.0512 -17.257C125.464 -19.1572 162.291 12.4779 164.307 53.4021C166.323 94.3263 132.764 129.042 89.3511 130.943C45.9383 132.843 9.11108 101.208 7.09525 60.2836Z" fill="url(#paint1_linear_5481_122154)"/>
<path d="M50.1285 -58.73C40.3352 -64.4427 27.927 -64.4777 18.0973 -58.8203L-80.218 -2.23325C-89.8467 3.30884 -89.8628 16.3902 -80.2472 21.9533L17.4185 78.4601C27.2335 84.1379 39.6417 84.1312 49.4483 78.4399L146.913 21.8802C156.477 16.329 156.495 3.32071 146.942 -2.25142L50.1285 -58.73Z" fill="url(#paint2_linear_5481_122154)"/>
<path d="M-44.2153 79.83C-23.9511 79.83 -5.59525 87.5612 7.69458 100.034C34.2742 125.022 56.3104 125.043 82.89 100.098C96.1799 87.5612 114.558 79.8086 134.845 79.8086C175.396 79.83 208.246 110.712 208.246 148.835C208.246 186.958 175.396 217.819 134.845 217.819C114.513 217.819 96.1344 210.045 82.8446 197.508C56.2877 172.605 34.2742 172.627 7.69458 197.615C-5.59525 210.109 -23.9511 217.819 -44.2153 217.819C-84.7436 217.819 -117.593 186.936 -117.593 148.835C-117.593 110.734 -84.7436 79.83 -44.2153 79.83Z" fill="url(#paint3_linear_5481_122154)"/>
</g>
</g>

</svg>
