<svg width="96" height="96" viewBox="0 0 96 96" xmlns="http://www.w3.org/2000/svg">
  <defs>
<radialGradient id="paint0_radial_5481_122543" cx="0" cy="0" r="1" gradientUnits="userSpaceOnUse" gradientTransform="translate(85.5714 63.1124) rotate(90) scale(138.607)">
<stop offset="0.0885417" stop-color="#EB1000"/>
<stop offset="1" stop-color="#EB1000" stop-opacity="0"/>
</radialGradient>
<linearGradient id="paint1_linear_5481_122543" x1="69.4617" y1="-3.08825" x2="13.8656" y2="68.9935" gradientUnits="userSpaceOnUse">
<stop stop-color="#FF4885"/>
<stop offset="1" stop-color="#FF4885" stop-opacity="0"/>
</linearGradient>
<linearGradient id="paint2_linear_5481_122543" x1="35.5898" y1="-36.2716" x2="46.3146" y2="32.3671" gradientUnits="userSpaceOnUse">
<stop offset="0.15625" stop-color="#7A6AFD"/>
<stop offset="1" stop-color="#7A6AFD" stop-opacity="0"/>
</linearGradient>
<linearGradient id="paint3_linear_5481_122543" x1="-88.1609" y1="101.725" x2="92.2907" y2="66.0615" gradientUnits="userSpaceOnUse">
<stop stop-color="#30A7FE" stop-opacity="0"/>
<stop offset="0.432292" stop-color="#30A7FE" stop-opacity="0.994652"/>
<stop offset="0.609375" stop-color="#30A7FE"/>
<stop offset="1" stop-color="#30A7FE" stop-opacity="0"/>
</linearGradient>
<clipPath id="clip0_5481_122543">
<rect width="96" height="96" rx="10" fill="white"/>
</clipPath>
</defs>
<clipPath id="mask0_5481_122543">
<path fill-rule="evenodd" d="M78.8033 25.5C78.8042 25.474 78.8047 25.4479 78.8047 25.4219C78.8047 20.9087 65.013 17.25 48 17.25C30.987 17.25 17.1953 20.9087 17.1953 25.4219C17.1953 25.4479 17.1958 25.474 17.1967 25.5H17.1953V25.5315C17.2437 26.0101 17.6097 26.7819 18.9503 27.7645C20.3611 28.7986 22.5308 29.8137 25.3917 30.7007C31.0895 32.4672 39.0832 33.5904 48.0001 33.5904C56.917 33.5904 64.9107 32.4672 70.6085 30.7007C73.4695 29.8137 75.6391 28.7986 77.0499 27.7645C78.3886 26.7832 78.7555 26.0122 78.8047 25.5335V25.5H78.8033ZM17.1953 36.8381V31.4141C19.0402 32.6294 21.446 33.6652 24.2072 34.5213C30.3845 36.4365 38.7962 37.5904 48.0001 37.5904C57.204 37.5904 65.6157 36.4365 71.793 34.5213C74.5541 33.6652 76.9599 32.6295 78.8047 31.4142V36.8401C78.7555 37.3189 78.3886 38.0899 77.0499 39.0711C75.6391 40.1053 73.4695 41.1203 70.6085 42.0073C64.9107 43.7739 56.917 44.8971 48.0001 44.8971C39.0832 44.8971 31.0895 43.7739 25.3917 42.0073C22.5308 41.1203 20.3611 40.1053 18.9503 39.0711C17.6097 38.0885 17.2437 37.3167 17.1953 36.8381ZM78.8047 42.7208C76.9599 43.9362 74.5541 44.9719 71.793 45.8279C65.6157 47.7431 57.204 48.8971 48.0001 48.8971C38.7962 48.8971 30.3845 47.7431 24.2072 45.8279C21.446 44.9719 19.0402 43.9361 17.1953 42.7207V48.1135C17.2437 48.5921 17.6097 49.3639 18.9503 50.3465C20.3611 51.3806 22.5308 52.3957 25.3917 53.2827C31.0895 55.0493 39.0832 56.1725 48.0001 56.1725C56.917 56.1725 64.9107 55.0493 70.6085 53.2827C73.4695 52.3957 75.6391 51.3806 77.0499 50.3465C78.3886 49.3653 78.7555 48.5943 78.8047 48.1155V42.7208ZM17.1953 59.4475V53.9961C19.0402 55.2115 21.446 56.2472 24.2072 57.1033C30.3845 59.0185 38.7962 60.1725 48.0001 60.1725C57.204 60.1725 65.6157 59.0185 71.793 57.1033C74.5541 56.2473 76.9599 55.2116 78.8047 53.9962V59.4495C78.7555 59.9283 78.3886 60.6993 77.0499 61.6805C75.6391 62.7146 73.4695 63.7297 70.6085 64.6167C64.9107 66.3832 56.917 67.5065 48.0001 67.5065C39.0832 67.5065 31.0895 66.3832 25.3917 64.6167C22.5308 63.7297 20.3611 62.7146 18.9503 61.6805C17.6097 60.6979 17.2437 59.9261 17.1953 59.4475ZM17.1953 65.3301V70.8281C18.6953 75.3125 32.6426 78.75 47.6953 78.75C59.574 78.75 76.0703 76.375 78.8047 70.8281V65.3302C76.9599 66.5455 74.5541 67.5813 71.793 68.4373C65.6157 70.3525 57.204 71.5065 48.0001 71.5065C38.7962 71.5065 30.3845 70.3525 24.2072 68.4373C21.446 67.5812 19.0402 66.5455 17.1953 65.3301Z" fill="white"/>
</clipPath>
<g clip-path="url(#mask0_5481_122543)">
<g clip-path="url(#clip0_5481_122543)">
<rect width="96" height="96" rx="10" fill="#D9F4FD"/>
<circle cx="85.5714" cy="63.1124" r="138.607" fill="url(#paint0_radial_5481_122543)"/>
<path d="M-8.63919 30.067C-10.18 -3.11477 15.4702 -31.263 48.652 -32.8037C81.8337 -34.3445 109.982 -8.69438 111.523 24.4874C113.063 57.6692 87.4133 85.8174 54.2316 87.3582C21.0498 88.8989 -7.09842 63.2488 -8.63919 30.067Z" fill="url(#paint1_linear_5481_122543)"/>
<path d="M24.2526 -66.43C16.7672 -71.0619 7.28331 -71.0903 -0.22988 -66.5032L-75.3753 -20.6218C-82.7348 -16.1282 -82.7471 -5.52169 -75.3976 -1.01111L-0.748691 44.8052C6.75324 49.4089 16.2372 49.4034 23.7327 44.7888L98.2278 -1.0704C105.538 -5.57135 105.552 -16.1186 98.2501 -20.6366L24.2526 -66.43Z" fill="url(#paint2_linear_5481_122543)"/>
<path d="M-47.8586 45.9177C-32.3701 45.9177 -18.3401 52.1863 -8.18231 62.2992C12.1334 82.5597 28.9763 82.577 49.2919 62.3512C59.4498 52.1863 73.4971 45.9004 89.003 45.9004C119.997 45.9177 145.105 70.9575 145.105 101.868C145.105 132.778 119.997 157.8 89.003 157.8C73.4624 157.8 59.415 151.497 49.2572 141.332C28.9589 121.141 12.1334 121.158 -8.18231 141.419C-18.3401 151.549 -32.3701 157.8 -47.8586 157.8C-78.8357 157.8 -103.944 132.761 -103.944 101.868C-103.944 70.9749 -78.8357 45.9177 -47.8586 45.9177Z" fill="url(#paint3_linear_5481_122543)"/>
</g>
</g>

</svg>
