<svg width="160" height="160" viewBox="0 0 160 160" xmlns="http://www.w3.org/2000/svg">
  <defs>
<radialGradient id="paint0_radial_5481_122259" cx="0" cy="0" r="1" gradientUnits="userSpaceOnUse" gradientTransform="translate(142.62 105.187) rotate(90) scale(231.011)">
<stop offset="0.0885417" stop-color="#EB1000"/>
<stop offset="1" stop-color="#EB1000" stop-opacity="0"/>
</radialGradient>
<linearGradient id="paint1_linear_5481_122259" x1="115.768" y1="-5.14512" x2="23.108" y2="114.991" gradientUnits="userSpaceOnUse">
<stop stop-color="#FF4885"/>
<stop offset="1" stop-color="#FF4885" stop-opacity="0"/>
</linearGradient>
<linearGradient id="paint2_linear_5481_122259" x1="59.3137" y1="-60.4521" x2="77.1884" y2="53.9458" gradientUnits="userSpaceOnUse">
<stop offset="0.15625" stop-color="#7A6AFD"/>
<stop offset="1" stop-color="#7A6AFD" stop-opacity="0"/>
</linearGradient>
<linearGradient id="paint3_linear_5481_122259" x1="-146.934" y1="169.541" x2="153.819" y2="110.102" gradientUnits="userSpaceOnUse">
<stop stop-color="#30A7FE" stop-opacity="0"/>
<stop offset="0.432292" stop-color="#30A7FE" stop-opacity="0.994652"/>
<stop offset="0.609375" stop-color="#30A7FE"/>
<stop offset="1" stop-color="#30A7FE" stop-opacity="0"/>
</linearGradient>
<clipPath id="clip0_5481_122259">
<rect width="160" height="160" rx="10" fill="white"/>
</clipPath>
</defs>
<clipPath id="mask0_5481_122259">
<path fill-rule="evenodd" d="M80 136.016C110.928 136.016 136 110.944 136 80.0156C136 49.0877 110.928 24.0156 80 24.0156C49.0721 24.0156 24 49.0877 24 80.0156C24 110.944 49.0721 136.016 80 136.016ZM81.5944 57.0585C80.2158 56.7776 78.7857 56.9208 77.4808 57.4746C76.1748 58.0289 75.0427 58.9743 74.2391 60.2065C73.4349 61.4396 73 62.8994 73 64.4004C73 66.6096 71.2091 68.4004 69 68.4004C66.7909 68.4004 65 66.6096 65 64.4004C65 61.3597 65.8796 58.3796 67.5382 55.8363C69.1975 53.2921 71.566 51.2942 74.3555 50.1103C77.1461 48.926 80.2227 48.6145 83.1919 49.2197C86.1604 49.8246 88.8736 51.3153 90.9937 53.4875C93.1129 55.6587 94.5455 58.4133 95.125 61.3981C95.7044 64.3824 95.4078 67.4767 94.269 70.2937C93.1298 73.1114 91.1943 75.5353 88.6926 77.248C87.4691 78.0856 86.2785 79.2222 85.4258 80.4546C84.561 81.7045 84.2068 82.808 84.2068 83.658V90.7414C84.2068 92.9506 82.4159 94.7414 80.2068 94.7414C77.9977 94.7414 76.2068 92.9506 76.2068 90.7414V83.658C76.2068 80.6834 77.3877 78.0119 78.847 75.9027C80.3185 73.776 82.2409 71.9696 84.1734 70.6467C85.3575 69.8361 86.2949 68.6735 86.8521 67.2952C87.4097 65.916 87.557 64.393 87.2716 62.9228C86.9862 61.4529 86.2842 60.1158 85.2687 59.0754C84.2543 58.036 82.9737 57.3396 81.5944 57.0585ZM85 105.016C85 107.501 82.9853 109.516 80.5 109.516C78.0147 109.516 76 107.501 76 105.016C76 102.53 78.0147 100.516 80.5 100.516C82.9853 100.516 85 102.53 85 105.016Z" fill="#D9D9D9"/>
</clipPath>
<g clip-path="url(#mask0_5481_122259)">
<g clip-path="url(#clip0_5481_122259)">
<rect width="160" height="160" rx="10" fill="#D9F4FD"/>
<circle cx="142.62" cy="105.187" r="231.011" fill="url(#paint0_radial_5481_122259)"/>
<path d="M-14.3999 50.1137C-16.9679 -5.18932 25.7823 -52.103 81.0853 -54.6709C136.388 -57.2388 183.302 -14.4887 185.87 40.8143C188.438 96.1173 145.688 143.031 90.3846 145.599C35.0817 148.167 -11.832 105.417 -14.3999 50.1137Z" fill="url(#paint1_linear_5481_122259)"/>
<path d="M40.4184 -110.716C27.9428 -118.436 12.1362 -118.483 -0.385738 -110.838L-125.628 -34.3691C-137.894 -26.8797 -137.914 -9.20217 -125.665 -1.68455L-1.25042 74.676C11.2528 82.3487 27.0594 82.3396 39.5518 74.6486L163.71 -1.78335C175.895 -9.28493 175.917 -26.8637 163.748 -34.3936L40.4184 -110.716Z" fill="url(#paint2_linear_5481_122259)"/>
<path d="M-79.7631 76.5289C-53.9489 76.5289 -30.5656 86.9766 -13.6359 103.831C20.2235 137.599 48.2951 137.628 82.1545 103.918C99.0842 86.9766 122.496 76.5 148.34 76.5C199.997 76.5289 241.844 118.262 241.844 169.779C241.844 221.296 199.997 263 148.34 263C122.439 263 99.0263 252.495 82.0966 235.553C48.2661 201.901 20.2235 201.93 -13.6359 235.697C-30.5656 252.581 -53.9489 263 -79.7631 263C-131.392 263 -173.238 221.267 -173.238 169.779C-173.238 118.291 -131.392 76.5289 -79.7631 76.5289Z" fill="url(#paint3_linear_5481_122259)"/>
</g>
</g>

</svg>
