<svg width="160" height="160" viewBox="0 0 160 160" xmlns="http://www.w3.org/2000/svg">
  <defs>
<radialGradient id="paint0_radial_5481_122182" cx="0" cy="0" r="1" gradientUnits="userSpaceOnUse" gradientTransform="translate(142.62 105.187) rotate(90) scale(231.011)">
<stop offset="0.0885417" stop-color="#EB1000"/>
<stop offset="1" stop-color="#EB1000" stop-opacity="0"/>
</radialGradient>
<linearGradient id="paint1_linear_5481_122182" x1="115.768" y1="-5.14512" x2="23.108" y2="114.991" gradientUnits="userSpaceOnUse">
<stop stop-color="#FF4885"/>
<stop offset="1" stop-color="#FF4885" stop-opacity="0"/>
</linearGradient>
<linearGradient id="paint2_linear_5481_122182" x1="59.3137" y1="-60.4521" x2="77.1884" y2="53.9458" gradientUnits="userSpaceOnUse">
<stop offset="0.15625" stop-color="#7A6AFD"/>
<stop offset="1" stop-color="#7A6AFD" stop-opacity="0"/>
</linearGradient>
<linearGradient id="paint3_linear_5481_122182" x1="-146.934" y1="169.541" x2="153.819" y2="110.102" gradientUnits="userSpaceOnUse">
<stop stop-color="#30A7FE" stop-opacity="0"/>
<stop offset="0.432292" stop-color="#30A7FE" stop-opacity="0.994652"/>
<stop offset="0.609375" stop-color="#30A7FE"/>
<stop offset="1" stop-color="#30A7FE" stop-opacity="0"/>
</linearGradient>
<clipPath id="clip0_5481_122182">
<rect width="160" height="160" rx="10" fill="white"/>
</clipPath>
</defs>
<clipPath id="mask0_5481_122182">
<path d="M125.071 21.7228C125.997 20.6526 127.605 19.7563 128.595 20.0599L128.603 20.0681C130.195 20.0681 131.731 20.9325 132.61 22.3156C133.481 23.6822 133.624 25.411 132.998 26.9505L127.605 40.1472L135.429 43.5884C136.847 44.2058 137.884 45.5066 138.217 47.0625C138.55 48.6185 138.138 50.2567 137.108 51.4422L116.676 75.0202C115.758 76.0822 114.506 76.6667 113.168 76.6667C111.576 76.6667 110.04 75.8105 109.161 74.4274C108.29 73.0691 108.139 71.332 108.765 69.8008L113.984 56.9333L106.207 53.451C104.805 52.8253 103.776 51.5246 103.443 49.9768C103.11 48.4291 103.522 46.8073 104.536 45.6218L125.071 21.7228Z" fill="#D9D9D9"/>
<path d="M16.4478 93.333C16.4478 91.1239 18.2386 89.333 20.4478 89.333H67.3581C69.5672 89.333 71.3581 91.1239 71.3581 93.333L71.3579 93.3717V102.715C71.3579 104.924 69.5671 106.715 67.3579 106.715C65.1488 106.715 63.3579 104.924 63.3579 102.715V97.333H47.9009V136.244H53.2842C55.4933 136.244 57.2842 138.035 57.2842 140.244C57.2842 142.453 55.4933 144.244 53.2842 144.244H34.52C32.3109 144.244 30.52 142.453 30.52 140.244C30.52 138.035 32.3109 136.244 34.52 136.244H39.9009V97.333H24.4478V102.715C24.4478 104.924 22.6569 106.715 20.4478 106.715C18.2386 106.715 16.4478 104.924 16.4478 102.715V93.333Z" fill="#D9D9D9"/>
<path fill-rule="evenodd" d="M89.9978 106.666V127.916C89.9978 135.28 95.9673 141.25 103.331 141.25H139.164C146.528 141.25 152.498 135.28 152.498 127.916V106.666C152.498 99.3026 146.528 93.333 139.164 93.333H103.331C95.9673 93.333 89.9978 99.3025 89.9978 106.666ZM117.789 108.413L130.085 115.432C131.462 116.219 131.46 118.18 130.081 118.963L117.768 125.953C116.389 126.736 114.667 125.753 114.669 124.184L114.686 110.175C114.688 108.606 116.412 107.627 117.789 108.413Z" fill="#D9D9D9"/>
<path fill-rule="evenodd" d="M11.6641 57.9163V36.6663C11.6641 29.3025 17.6336 23.333 24.9974 23.333H61.8724C69.2362 23.333 75.2057 29.3026 75.2057 36.6664V57.9163C75.2057 59.955 74.7482 61.8869 73.9302 63.6147L67.1357 53.0139C63.2013 46.8754 54.2318 46.8754 50.2974 53.0139L47.608 57.21L40.5105 46.1138C36.5797 39.9683 27.6038 39.9641 23.6673 46.106L12.7355 63.1618C12.0459 61.5518 11.6641 59.7787 11.6641 57.9163ZM62.4961 40C64.9814 40 66.9961 37.9853 66.9961 35.5C66.9961 33.0147 64.9814 31 62.4961 31C60.0108 31 57.9961 33.0147 57.9961 35.5C57.9961 37.9853 60.0108 40 62.4961 40Z" fill="#D9D9D9"/>
<path d="M42.8548 64.6259L33.7712 50.4245C32.985 49.1954 31.1899 49.1945 30.4026 50.4229L18.2335 69.4091C20.2165 70.5787 22.5286 71.2497 24.9974 71.2497H38.6094L42.8548 64.6259Z" fill="#D9D9D9"/>
<path d="M48.1116 71.2497H61.8724C64.1923 71.2497 66.3739 70.6572 68.274 69.6153L60.4004 57.3308C59.6135 56.1031 57.8196 56.1031 57.0327 57.3308L48.1116 71.2497Z" fill="#D9D9D9"/>
</clipPath>
<g clip-path="url(#mask0_5481_122182)">
<g clip-path="url(#clip0_5481_122182)">
<rect width="160" height="160" rx="10" fill="#D9F4FD"/>
<circle cx="142.62" cy="105.187" r="231.011" fill="url(#paint0_radial_5481_122182)"/>
<path d="M-14.3999 50.1137C-16.9679 -5.18932 25.7823 -52.103 81.0853 -54.6709C136.388 -57.2388 183.302 -14.4887 185.87 40.8143C188.438 96.1173 145.688 143.031 90.3846 145.599C35.0817 148.167 -11.832 105.417 -14.3999 50.1137Z" fill="url(#paint1_linear_5481_122182)"/>
<path d="M40.4184 -110.716C27.9428 -118.436 12.1362 -118.483 -0.385738 -110.838L-125.628 -34.3691C-137.894 -26.8797 -137.914 -9.20217 -125.665 -1.68455L-1.25042 74.676C11.2528 82.3487 27.0594 82.3396 39.5518 74.6486L163.71 -1.78335C175.895 -9.28493 175.917 -26.8637 163.748 -34.3936L40.4184 -110.716Z" fill="url(#paint2_linear_5481_122182)"/>
<path d="M-79.7631 76.5289C-53.9489 76.5289 -30.5656 86.9766 -13.6359 103.831C20.2235 137.599 48.2951 137.628 82.1545 103.918C99.0842 86.9766 122.496 76.5 148.34 76.5C199.997 76.5289 241.844 118.262 241.844 169.779C241.844 221.296 199.997 263 148.34 263C122.439 263 99.0263 252.495 82.0966 235.553C48.2661 201.901 20.2235 201.93 -13.6359 235.697C-30.5656 252.581 -53.9489 263 -79.7631 263C-131.392 263 -173.238 221.267 -173.238 169.779C-173.238 118.291 -131.392 76.5289 -79.7631 76.5289Z" fill="url(#paint3_linear_5481_122182)"/>
</g>
</g>

</svg>
