<svg width="48" height="48" viewBox="0 0 48 48" xmlns="http://www.w3.org/2000/svg">
  <defs>
<radialGradient id="paint0_radial_5481_122382" cx="0" cy="0" r="1" gradientUnits="userSpaceOnUse" gradientTransform="translate(42.7877 31.5552) rotate(90) scale(69.3033)">
<stop offset="0.0885417" stop-color="#EB1000"/>
<stop offset="1" stop-color="#EB1000" stop-opacity="0"/>
</radialGradient>
<linearGradient id="paint1_linear_5481_122382" x1="34.7309" y1="-1.54315" x2="6.93278" y2="34.4977" gradientUnits="userSpaceOnUse">
<stop stop-color="#FF4885"/>
<stop offset="1" stop-color="#FF4885" stop-opacity="0"/>
</linearGradient>
<linearGradient id="paint2_linear_5481_122382" x1="17.7929" y1="-18.1348" x2="23.1553" y2="16.1845" gradientUnits="userSpaceOnUse">
<stop offset="0.15625" stop-color="#7A6AFD"/>
<stop offset="1" stop-color="#7A6AFD" stop-opacity="0"/>
</linearGradient>
<linearGradient id="paint3_linear_5481_122382" x1="-44.0785" y1="50.8616" x2="46.1473" y2="33.0298" gradientUnits="userSpaceOnUse">
<stop stop-color="#30A7FE" stop-opacity="0"/>
<stop offset="0.432292" stop-color="#30A7FE" stop-opacity="0.994652"/>
<stop offset="0.609375" stop-color="#30A7FE"/>
<stop offset="1" stop-color="#30A7FE" stop-opacity="0"/>
</linearGradient>
<clipPath id="clip0_5481_122382">
<rect width="48" height="48" rx="10" fill="white"/>
</clipPath>
</defs>
<clipPath id="mask0_5481_122382">
<path fill-rule="evenodd" d="M14.3567 12.3423C14.3567 9.39182 16.7486 7 19.699 7C21.3952 7 23.0512 7.79048 24.0299 9.02315C25.0085 7.79048 26.3755 7 28.0717 7C31.0222 7 33.414 9.39182 33.414 12.3423C33.414 13.4676 33.0661 14.5116 32.4719 15.3727H28.1032C29.7624 15.3558 31.1023 14.0055 31.1023 12.3423C31.1023 10.6686 29.7455 9.31173 28.0717 9.31173C26.4055 9.31173 25.3423 10.6564 25.3302 12.3198L25.3303 15.3727L22.7295 15.371L22.7295 12.3198C22.7174 10.6564 21.3652 9.31173 19.699 9.31173C18.0253 9.31173 16.6685 10.6686 16.6685 12.3423C16.6685 14.0055 18.0083 15.3558 19.6675 15.3727H15.2988C14.7047 14.5116 14.3567 13.4676 14.3567 12.3423ZM8 17.6919C8 16.4151 9.035 15.3801 10.3117 15.3801H22.7373V24.916H10.3117C9.03499 24.916 8 23.881 8 22.6043V17.6919ZM40.0752 17.6919C40.0752 16.4151 39.0402 15.3801 37.7635 15.3801H25.338V24.916H37.7635C39.0402 24.916 40.0752 23.881 40.0752 22.6043V17.6919ZM25.3375 27.2277H38.052V34.4519C38.052 37.3245 35.7233 39.6533 32.8507 39.6533H25.3375V27.2277ZM10.0232 27.2277H22.7377V39.6533H15.2246C12.3519 39.6533 10.0232 37.3245 10.0232 34.4519V27.2277Z" fill="#D9D9D9"/>
</clipPath>
<g clip-path="url(#mask0_5481_122382)">
<g clip-path="url(#clip0_5481_122382)">
<rect width="48" height="48" rx="10" fill="#D9F4FD"/>
<circle cx="42.7877" cy="31.5552" r="69.3033" fill="url(#paint0_radial_5481_122382)"/>
<path d="M-4.31959 15.0345C-5.08998 -1.55641 7.73508 -15.6305 24.326 -16.4009C40.9169 -17.1713 54.991 -4.34621 55.7613 12.2447C56.5317 28.8356 43.7067 42.9097 27.1158 43.6801C10.5249 44.4504 -3.54921 31.6254 -4.31959 15.0345Z" fill="url(#paint1_linear_5481_122382)"/>
<path d="M12.1243 -33.214C8.38167 -35.53 3.6397 -35.5442 -0.116893 -33.2506L-37.6896 -10.3099C-41.3694 -8.06314 -41.3755 -2.75987 -37.7007 -0.504581L-0.376298 22.4036C3.37467 24.7054 8.11665 24.7027 11.8644 22.3954L49.1119 -0.534222C52.7672 -2.7847 52.7739 -8.05833 49.1231 -10.3173L12.1243 -33.214Z" fill="url(#paint2_linear_5481_122382)"/>
<path d="M-23.9274 22.9579C-16.1831 22.9579 -9.16812 26.0922 -4.0892 31.1486C6.06863 41.2789 14.4901 41.2875 24.6479 31.1746C29.7268 26.0922 36.7505 22.9492 44.5034 22.9492C60.0006 22.9579 72.5547 35.4778 72.5547 50.9329C72.5547 66.388 60.0006 78.8992 44.5034 78.8992C36.7331 78.8992 29.7095 75.7476 24.6306 70.6652C14.4814 60.5696 6.06863 60.5782 -4.0892 70.7085C-9.16812 75.7736 -16.1831 78.8992 -23.9274 78.8992C-39.4159 78.8992 -51.9699 66.3793 -51.9699 50.9329C-51.9699 35.4865 -39.4159 22.9579 -23.9274 22.9579Z" fill="url(#paint3_linear_5481_122382)"/>
</g>
</g>

</svg>
