<svg width="96" height="96" viewBox="0 0 96 96" xmlns="http://www.w3.org/2000/svg">
  <defs>
<radialGradient id="paint0_radial_5481_122491" cx="0" cy="0" r="1" gradientUnits="userSpaceOnUse" gradientTransform="translate(81.499 57.9101) rotate(90) scale(114.004 120.937)">
<stop offset="0.0885417" stop-color="#EB1000"/>
<stop offset="1" stop-color="#EB1000" stop-opacity="0"/>
</radialGradient>
<linearGradient id="paint1_linear_5481_122491" x1="67.4412" y1="3.46105" x2="22.4665" y2="65.3177" gradientUnits="userSpaceOnUse">
<stop stop-color="#FF4885"/>
<stop offset="1" stop-color="#FF4885" stop-opacity="0"/>
</linearGradient>
<linearGradient id="paint2_linear_5481_122491" x1="37.8874" y1="-23.8328" x2="46.225" y2="32.7728" gradientUnits="userSpaceOnUse">
<stop offset="0.15625" stop-color="#7A6AFD"/>
<stop offset="1" stop-color="#7A6AFD" stop-opacity="0"/>
</linearGradient>
<linearGradient id="paint3_linear_5481_122491" x1="-70.0835" y1="89.6677" x2="86.6253" y2="56.8132" gradientUnits="userSpaceOnUse">
<stop stop-color="#30A7FE" stop-opacity="0"/>
<stop offset="0.432292" stop-color="#30A7FE" stop-opacity="0.994652"/>
<stop offset="0.609375" stop-color="#30A7FE"/>
<stop offset="1" stop-color="#30A7FE" stop-opacity="0"/>
</linearGradient>
<clipPath id="clip0_5481_122491">
<rect x="6.83594" y="6" width="83.7616" height="78.96" rx="10" fill="white"/>
</clipPath>
</defs>
<clipPath id="mask0_5481_122491">
<path d="M69.5969 20.4H65.3969V26.4C65.3969 27.726 64.3229 28.8 62.9969 28.8C61.6709 28.8 60.5969 27.726 60.5969 26.4V20.4H35.3969V26.4C35.3969 27.726 34.3229 28.8 32.9969 28.8C31.6709 28.8 30.5969 27.726 30.5969 26.4V20.4H26.3969C21.0929 20.4 16.7969 24.696 16.7969 30V36H79.1969V30C79.1969 24.696 74.9009 20.4 69.5969 20.4ZM16.7969 69.6C16.7969 74.904 21.0929 79.2 26.3969 79.2H69.5969C74.9009 79.2 79.1969 74.904 79.1969 69.6V40.8H16.7969V69.6ZM60.5969 50.4C60.5969 49.074 61.6709 48 62.9969 48H66.5969C67.9229 48 68.9969 49.074 68.9969 50.4V54C68.9969 55.326 67.9229 56.4 66.5969 56.4H62.9969C61.6709 56.4 60.5969 55.326 60.5969 54V50.4ZM60.5969 63.6C60.5969 62.274 61.6709 61.2 62.9969 61.2H66.5969C67.9229 61.2 68.9969 62.274 68.9969 63.6V67.2C68.9969 68.526 67.9229 69.6 66.5969 69.6H62.9969C61.6709 69.6 60.5969 68.526 60.5969 67.2V63.6ZM43.7969 50.4C43.7969 49.074 44.8709 48 46.1969 48H49.7969C51.1229 48 52.1969 49.074 52.1969 50.4V54C52.1969 55.326 51.1229 56.4 49.7969 56.4H46.1969C44.8709 56.4 43.7969 55.326 43.7969 54V50.4ZM43.7969 63.6C43.7969 62.274 44.8709 61.2 46.1969 61.2H49.7969C51.1229 61.2 52.1969 62.274 52.1969 63.6V67.2C52.1969 68.526 51.1229 69.6 49.7969 69.6H46.1969C44.8709 69.6 43.7969 68.526 43.7969 67.2V63.6ZM26.9969 50.4C26.9969 49.074 28.0709 48 29.3969 48H32.9969C34.3229 48 35.3969 49.074 35.3969 50.4V54C35.3969 55.326 34.3229 56.4 32.9969 56.4H29.3969C28.0709 56.4 26.9969 55.326 26.9969 54V50.4ZM26.9969 63.6C26.9969 62.274 28.0709 61.2 29.3969 61.2H32.9969C34.3229 61.2 35.3969 62.274 35.3969 63.6V67.2C35.3969 68.526 34.3229 69.6 32.9969 69.6H29.3969C28.0709 69.6 26.9969 68.526 26.9969 67.2V63.6ZM35.3969 14.4C35.3969 13.074 34.3229 12 32.9969 12C31.6709 12 30.5969 13.074 30.5969 14.4V20.4H35.3969V14.4ZM65.3969 14.4C65.3969 13.074 64.3229 12 62.9969 12C61.6709 12 60.5969 13.074 60.5969 14.4V20.4H65.3969V14.4Z" fill="white"/>
</clipPath>
<g clip-path="url(#mask0_5481_122491)">
<g clip-path="url(#clip0_5481_122491)">
<rect x="6.83594" y="6" width="83.7616" height="78.96" rx="10" fill="#D9F4FD"/>
<ellipse cx="81.499" cy="57.9101" rx="120.937" ry="114.004" fill="url(#paint0_radial_5481_122491)"/>
<path d="M-0.703169 30.7313C-2.04751 3.43924 20.3326 -19.7126 49.2843 -20.9799C78.236 -22.2472 102.796 -1.14998 104.14 26.142C105.484 53.4341 83.1043 76.5859 54.1526 77.8532C25.2009 79.1205 0.641175 58.0233 -0.703169 30.7313Z" fill="url(#paint1_linear_5481_122491)"/>
<path d="M27.9955 -48.638C21.4644 -52.4478 13.1895 -52.4711 6.63416 -48.6983L-58.9315 -10.9608C-65.3528 -7.26485 -65.3635 1.45903 -58.9509 5.16897L6.18149 42.8529C12.7271 46.6394 21.002 46.6349 27.5419 42.8394L92.5401 5.12021C98.9187 1.41818 98.9304 -7.25694 92.5596 -10.9729L27.9955 -48.638Z" fill="url(#paint2_linear_5481_122491)"/>
<path d="M-34.9191 43.7662C-21.4051 43.7662 -9.1637 48.9221 -0.300821 57.24C17.4249 73.9042 32.1206 73.9185 49.8464 57.2827C58.7093 48.9221 70.9658 43.752 84.495 43.752C111.538 43.7662 133.445 64.3615 133.445 89.7851C133.445 115.209 111.538 135.79 84.495 135.79C70.9355 135.79 58.679 130.605 49.8161 122.245C32.1055 105.637 17.4249 105.652 -0.300821 122.316C-9.1637 130.648 -21.4051 135.79 -34.9191 135.79C-61.9471 135.79 -83.8543 115.194 -83.8543 89.7851C-83.8543 64.3757 -61.9471 43.7662 -34.9191 43.7662Z" fill="url(#paint3_linear_5481_122491)"/>
</g>
</g>

</svg>
