<svg width="160" height="160" viewBox="0 0 160 160" xmlns="http://www.w3.org/2000/svg">
  <defs>
<radialGradient id="paint0_radial_5481_122109" cx="0" cy="0" r="1" gradientUnits="userSpaceOnUse" gradientTransform="translate(129.445 98.3258) rotate(90) scale(182.381 193.472)">
<stop offset="0.0885417" stop-color="#EB1000"/>
<stop offset="1" stop-color="#EB1000" stop-opacity="0"/>
</radialGradient>
<linearGradient id="paint1_linear_5481_122109" x1="106.954" y1="11.2191" x2="35.0045" y2="110.176" gradientUnits="userSpaceOnUse">
<stop stop-color="#FF4885"/>
<stop offset="1" stop-color="#FF4885" stop-opacity="0"/>
</linearGradient>
<linearGradient id="paint2_linear_5481_122109" x1="59.6783" y1="-32.4443" x2="73.0166" y2="58.1123" gradientUnits="userSpaceOnUse">
<stop offset="0.15625" stop-color="#7A6AFD"/>
<stop offset="1" stop-color="#7A6AFD" stop-opacity="0"/>
</linearGradient>
<linearGradient id="paint3_linear_5481_122109" x1="-113.055" y1="149.133" x2="137.645" y2="96.573" gradientUnits="userSpaceOnUse">
<stop stop-color="#30A7FE" stop-opacity="0"/>
<stop offset="0.432292" stop-color="#30A7FE" stop-opacity="0.994652"/>
<stop offset="0.609375" stop-color="#30A7FE"/>
<stop offset="1" stop-color="#30A7FE" stop-opacity="0"/>
</linearGradient>
<clipPath id="clip0_5481_122109">
<rect x="10" y="15.2812" width="134" height="126.319" rx="10" fill="white"/>
</clipPath>
</defs>
<clipPath id="mask0_5481_122109">
<path fill-rule="evenodd" d="M24 63.5762C24 42.8655 40.7893 26.0762 61.5 26.0762C82.2107 26.0762 99 42.8655 99 63.5762C99 84.2868 82.2107 101.076 61.5 101.076C40.7893 101.076 24 84.2868 24 63.5762ZM61.5 18.0762C36.371 18.0762 16 38.4472 16 63.5762C16 88.7051 36.371 109.076 61.5 109.076C72.6243 109.076 82.8162 105.084 90.7211 98.4542L97.5317 105.265L95.2294 107.567L124.737 137.074C127.546 139.884 132.102 139.884 134.912 137.074C137.721 134.265 137.721 129.709 134.912 126.899L105.404 97.3921L103.189 99.6078L96.378 92.7973C103.008 84.8924 107 74.7005 107 63.5762C107 38.4472 86.629 18.0762 61.5 18.0762Z" fill="white"/>
</clipPath>
<g clip-path="url(#mask0_5481_122109)">
<g clip-path="url(#clip0_5481_122109)">
<rect x="10" y="15.2812" width="134" height="126.319" rx="10" fill="#D9F4FD"/>
<ellipse cx="129.445" cy="98.3258" rx="193.472" ry="182.381" fill="url(#paint0_radial_5481_122109)"/>
<path d="M-2.06198 54.8455C-4.21263 11.1842 31.5908 -25.8538 77.9071 -27.8811C124.224 -29.9085 163.514 3.84247 165.664 47.5038C167.815 91.1651 132.012 128.203 85.6954 130.23C39.379 132.258 0.0886824 98.5069 -2.06198 54.8455Z" fill="url(#paint1_linear_5481_122109)"/>
<path d="M43.8534 -72.1273C33.4051 -78.2221 20.1671 -78.2595 9.67987 -72.2237L-95.2109 -11.852C-105.484 -5.93922 -105.501 8.01709 -95.242 13.9522L8.95569 74.2383C19.4272 80.2959 32.6653 80.2887 43.1277 74.2167L147.111 13.8742C157.315 7.95176 157.334 -5.92656 147.142 -11.8714L43.8534 -72.1273Z" fill="url(#paint2_linear_5481_122109)"/>
<path d="M-56.7997 75.7005C-35.1802 75.7005 -15.5967 83.9489 -1.41798 97.2557C26.9394 123.915 50.4494 123.938 78.8067 97.324C92.9854 83.9489 112.593 75.6777 134.237 75.6777C177.5 75.7005 212.547 108.648 212.547 149.321C212.547 189.993 177.5 222.918 134.237 222.918C112.545 222.918 92.9369 214.624 78.7582 201.249C50.4251 174.681 26.9394 174.704 -1.41798 201.363C-15.5967 214.693 -35.1802 222.918 -56.7997 222.918C-100.039 222.918 -135.085 189.97 -135.085 149.321C-135.085 108.671 -100.039 75.7005 -56.7997 75.7005Z" fill="url(#paint3_linear_5481_122109)"/>
</g>
</g>

</svg>
