<svg width="160" height="160" viewBox="0 0 160 160" xmlns="http://www.w3.org/2000/svg">
  <defs>
<radialGradient id="paint0_radial_5481_122163" cx="0" cy="0" r="1" gradientUnits="userSpaceOnUse" gradientTransform="translate(135.838 96.5162) rotate(90) scale(190.006 201.561)">
<stop offset="0.0885417" stop-color="#EB1000"/>
<stop offset="1" stop-color="#EB1000" stop-opacity="0"/>
</radialGradient>
<linearGradient id="paint1_linear_5481_122163" x1="112.407" y1="5.76712" x2="37.4494" y2="108.862" gradientUnits="userSpaceOnUse">
<stop stop-color="#FF4885"/>
<stop offset="1" stop-color="#FF4885" stop-opacity="0"/>
</linearGradient>
<linearGradient id="paint2_linear_5481_122163" x1="63.1522" y1="-39.722" x2="77.0482" y2="54.6206" gradientUnits="userSpaceOnUse">
<stop offset="0.15625" stop-color="#7A6AFD"/>
<stop offset="1" stop-color="#7A6AFD" stop-opacity="0"/>
</linearGradient>
<linearGradient id="paint3_linear_5481_122163" x1="-116.805" y1="149.448" x2="144.377" y2="94.6907" gradientUnits="userSpaceOnUse">
<stop stop-color="#30A7FE" stop-opacity="0"/>
<stop offset="0.432292" stop-color="#30A7FE" stop-opacity="0.994652"/>
<stop offset="0.609375" stop-color="#30A7FE"/>
<stop offset="1" stop-color="#30A7FE" stop-opacity="0"/>
</linearGradient>
<clipPath id="clip0_5481_122163">
<rect x="11.3984" y="10" width="139.603" height="131.6" rx="10" fill="white"/>
</clipPath>
</defs>
<clipPath id="mask0_5481_122163">
<path d="M116 34H109V44C109 46.21 107.21 48 105 48C102.79 48 101 46.21 101 44V34H59V44C59 46.21 57.21 48 55 48C52.79 48 51 46.21 51 44V34H44C35.16 34 28 41.16 28 50V60H132V50C132 41.16 124.84 34 116 34ZM28 116C28 124.84 35.16 132 44 132H116C124.84 132 132 124.84 132 116V68H28V116ZM101 84C101 81.79 102.79 80 105 80H111C113.21 80 115 81.79 115 84V90C115 92.21 113.21 94 111 94H105C102.79 94 101 92.21 101 90V84ZM101 106C101 103.79 102.79 102 105 102H111C113.21 102 115 103.79 115 106V112C115 114.21 113.21 116 111 116H105C102.79 116 101 114.21 101 112V106ZM73 84C73 81.79 74.79 80 77 80H83C85.21 80 87 81.79 87 84V90C87 92.21 85.21 94 83 94H77C74.79 94 73 92.21 73 90V84ZM73 106C73 103.79 74.79 102 77 102H83C85.21 102 87 103.79 87 106V112C87 114.21 85.21 116 83 116H77C74.79 116 73 114.21 73 112V106ZM45 84C45 81.79 46.79 80 49 80H55C57.21 80 59 81.79 59 84V90C59 92.21 57.21 94 55 94H49C46.79 94 45 92.21 45 90V84ZM45 106C45 103.79 46.79 102 49 102H55C57.21 102 59 103.79 59 106V112C59 114.21 57.21 116 55 116H49C46.79 116 45 114.21 45 112V106ZM59 24C59 21.79 57.21 20 55 20C52.79 20 51 21.79 51 24V34H59V24ZM109 24C109 21.79 107.21 20 105 20C102.79 20 101 21.79 101 24V34H109V24Z" fill="white"/>
</clipPath>
<g clip-path="url(#mask0_5481_122163)">
<g clip-path="url(#clip0_5481_122163)">
<rect x="11.3984" y="10" width="139.603" height="131.6" rx="10" fill="#D9F4FD"/>
<ellipse cx="135.838" cy="96.5162" rx="201.561" ry="190.006" fill="url(#paint0_radial_5481_122163)"/>
<path d="M-1.16673 51.2175C-3.40731 5.73078 33.8929 -32.8557 82.1457 -34.9678C130.398 -37.08 171.331 -1.91793 173.572 43.5688C175.813 89.0555 138.512 127.642 90.2595 129.754C42.0068 131.866 1.07384 96.7042 -1.16673 51.2175Z" fill="url(#paint1_linear_5481_122163)"/>
<path d="M46.6657 -81.064C35.7806 -87.4136 21.9891 -87.4525 11.0634 -81.1644L-98.2126 -18.2687C-108.915 -12.1088 -108.933 2.43105 -98.245 8.61429L10.309 71.4208C21.2183 77.7316 35.0098 77.7241 45.9096 71.3983L154.24 8.53303C164.871 2.36298 164.89 -12.0956 154.272 -18.2889L46.6657 -81.064Z" fill="url(#paint2_linear_5481_122163)"/>
<path d="M-58.1972 72.9456C-35.6738 72.9456 -15.2716 81.5388 -0.50009 95.4019C29.0428 123.176 53.5357 123.199 83.0786 95.4732C97.8501 81.5388 118.278 72.9219 140.826 72.9219C185.898 72.9456 222.41 107.271 222.41 149.644C222.41 192.016 185.898 226.318 140.826 226.318C118.227 226.318 97.7996 217.677 83.0281 203.743C53.5104 176.064 29.0428 176.088 -0.50009 203.862C-15.2716 217.749 -35.6738 226.318 -58.1972 226.318C-103.244 226.318 -139.756 191.993 -139.756 149.644C-139.756 107.295 -103.244 72.9456 -58.1972 72.9456Z" fill="url(#paint3_linear_5481_122163)"/>
</g>
</g>

</svg>
