<svg width="160" height="160" viewBox="0 0 160 160" xmlns="http://www.w3.org/2000/svg">
  <defs>
<radialGradient id="paint0_radial_5481_122221" cx="0" cy="0" r="1" gradientUnits="userSpaceOnUse" gradientTransform="translate(142.62 105.187) rotate(90) scale(231.011)">
<stop offset="0.0885417" stop-color="#EB1000"/>
<stop offset="1" stop-color="#EB1000" stop-opacity="0"/>
</radialGradient>
<linearGradient id="paint1_linear_5481_122221" x1="115.768" y1="-5.14512" x2="23.108" y2="114.991" gradientUnits="userSpaceOnUse">
<stop stop-color="#FF4885"/>
<stop offset="1" stop-color="#FF4885" stop-opacity="0"/>
</linearGradient>
<linearGradient id="paint2_linear_5481_122221" x1="59.3137" y1="-60.4521" x2="77.1884" y2="53.9458" gradientUnits="userSpaceOnUse">
<stop offset="0.15625" stop-color="#7A6AFD"/>
<stop offset="1" stop-color="#7A6AFD" stop-opacity="0"/>
</linearGradient>
<linearGradient id="paint3_linear_5481_122221" x1="-146.934" y1="169.541" x2="153.819" y2="110.102" gradientUnits="userSpaceOnUse">
<stop stop-color="#30A7FE" stop-opacity="0"/>
<stop offset="0.432292" stop-color="#30A7FE" stop-opacity="0.994652"/>
<stop offset="0.609375" stop-color="#30A7FE"/>
<stop offset="1" stop-color="#30A7FE" stop-opacity="0"/>
</linearGradient>
<clipPath id="clip0_5481_122221">
<rect width="160" height="160" fill="white"/>
</clipPath>
<clipPath id="clip1_5481_122221">
<rect width="160" height="160" rx="10" fill="white"/>
</clipPath>
</defs>
<g clip-path="url(#clip0_5481_122221)">
<clipPath id="mask0_5481_122221">
<path fill-rule="evenodd" d="M14.5368 30.5649C13.8408 30.7432 13.2939 31.2811 13.1041 31.9741C12.9143 32.667 13.1108 33.4086 13.6189 33.9166L29.3479 49.6457C29.763 50.0607 30.3394 50.2725 30.9244 50.2249L42.9924 49.2428L65.9438 72.1942C67.5059 73.7563 70.0385 73.7563 71.6006 72.1942C73.1627 70.6321 73.1627 68.0995 71.6006 66.5374L48.65 43.5868L49.6322 31.517C49.6798 30.932 49.468 30.3556 49.053 29.9406L33.3239 14.2115C32.8159 13.7035 32.0744 13.507 31.3814 13.6968C30.6885 13.8866 30.1505 14.4335 29.9723 15.1295L26.8246 27.4173L14.5368 30.5649ZM79.821 27.9448C73.5104 27.9448 67.4708 29.0665 61.8847 31.118C59.811 31.8796 57.5126 30.8159 56.751 28.7422C55.9894 26.6685 57.0531 24.3701 59.1268 23.6085C65.5831 21.2373 72.5556 19.9448 79.821 19.9448C112.973 19.9448 139.849 46.82 139.849 79.9723C139.849 113.125 112.973 140 79.821 140C46.6688 140 19.7935 113.125 19.7935 79.9723C19.7935 72.898 21.019 66.1011 23.2725 59.7881C24.0152 57.7075 26.3039 56.6229 28.3845 57.3656C30.465 58.1083 31.5496 60.397 30.8069 62.4776C28.8571 67.9396 27.7935 73.8274 27.7935 79.9723C27.7935 108.706 51.087 132 79.821 132C108.555 132 131.849 108.706 131.849 79.9723C131.849 51.2383 108.555 27.9448 79.821 27.9448ZM79.8197 54.4623C76.4274 54.4623 73.1991 55.1224 70.249 56.3174C68.2015 57.1468 65.8693 56.1593 65.0399 54.1118C64.2105 52.0643 65.198 49.732 67.2455 48.9026C71.1335 47.3277 75.3805 46.4623 79.8197 46.4623C98.326 46.4623 113.328 61.4647 113.328 79.9709C113.328 98.4772 98.326 113.48 79.8197 113.48C61.3134 113.48 46.3111 98.4772 46.3111 79.9709C46.3111 75.8347 47.0624 71.8648 48.4395 68.1963C49.2158 66.1281 51.5218 65.0808 53.59 65.8572C55.6583 66.6336 56.7055 68.9396 55.9292 71.0078C54.8844 73.791 54.3111 76.8094 54.3111 79.9709C54.3111 94.059 65.7317 105.48 79.8197 105.48C93.9077 105.48 105.328 94.059 105.328 79.9709C105.328 65.8829 93.9077 54.4623 79.8197 54.4623ZM70.6822 85.6273C78.4113 84.9072 84.5633 78.7543 85.282 71.0248C88.3727 72.8862 90.4399 76.2741 90.4399 80.1449C90.4399 86.0205 85.6768 90.7836 79.8013 90.7836C75.9312 90.7836 72.5437 88.7171 70.6822 85.6273Z" fill="white"/>
</clipPath>
<g clip-path="url(#mask0_5481_122221)">
<g clip-path="url(#clip1_5481_122221)">
<rect width="160" height="160" rx="10" fill="#D9F4FD"/>
<circle cx="142.62" cy="105.187" r="231.011" fill="url(#paint0_radial_5481_122221)"/>
<path d="M-14.3999 50.1137C-16.9679 -5.18932 25.7823 -52.103 81.0853 -54.6709C136.388 -57.2388 183.302 -14.4887 185.87 40.8143C188.438 96.1173 145.688 143.031 90.3846 145.599C35.0817 148.167 -11.832 105.417 -14.3999 50.1137Z" fill="url(#paint1_linear_5481_122221)"/>
<path d="M40.4184 -110.716C27.9428 -118.436 12.1362 -118.483 -0.385738 -110.838L-125.628 -34.3691C-137.894 -26.8797 -137.914 -9.20217 -125.665 -1.68455L-1.25042 74.676C11.2528 82.3487 27.0594 82.3396 39.5518 74.6486L163.71 -1.78335C175.895 -9.28493 175.917 -26.8637 163.748 -34.3936L40.4184 -110.716Z" fill="url(#paint2_linear_5481_122221)"/>
<path d="M-79.7631 76.5289C-53.9489 76.5289 -30.5656 86.9766 -13.6359 103.831C20.2235 137.599 48.2951 137.628 82.1545 103.918C99.0842 86.9766 122.496 76.5 148.34 76.5C199.997 76.5289 241.844 118.262 241.844 169.779C241.844 221.296 199.997 263 148.34 263C122.439 263 99.0263 252.495 82.0966 235.553C48.2661 201.901 20.2235 201.93 -13.6359 235.697C-30.5656 252.581 -53.9489 263 -79.7631 263C-131.392 263 -173.238 221.267 -173.238 169.779C-173.238 118.291 -131.392 76.5289 -79.7631 76.5289Z" fill="url(#paint3_linear_5481_122221)"/>
</g>
</g>
</g>

</svg>
