<svg width="96" height="96" viewBox="0 0 96 96" xmlns="http://www.w3.org/2000/svg">
  <defs>
<radialGradient id="paint0_radial_5481_122524" cx="0" cy="0" r="1" gradientUnits="userSpaceOnUse" gradientTransform="translate(85.5714 63.1124) rotate(90) scale(138.607)">
<stop offset="0.0885417" stop-color="#EB1000"/>
<stop offset="1" stop-color="#EB1000" stop-opacity="0"/>
</radialGradient>
<linearGradient id="paint1_linear_5481_122524" x1="69.4617" y1="-3.08825" x2="13.8656" y2="68.9935" gradientUnits="userSpaceOnUse">
<stop stop-color="#FF4885"/>
<stop offset="1" stop-color="#FF4885" stop-opacity="0"/>
</linearGradient>
<linearGradient id="paint2_linear_5481_122524" x1="35.5898" y1="-36.2716" x2="46.3146" y2="32.3671" gradientUnits="userSpaceOnUse">
<stop offset="0.15625" stop-color="#7A6AFD"/>
<stop offset="1" stop-color="#7A6AFD" stop-opacity="0"/>
</linearGradient>
<linearGradient id="paint3_linear_5481_122524" x1="-88.1609" y1="101.725" x2="92.2907" y2="66.0615" gradientUnits="userSpaceOnUse">
<stop stop-color="#30A7FE" stop-opacity="0"/>
<stop offset="0.432292" stop-color="#30A7FE" stop-opacity="0.994652"/>
<stop offset="0.609375" stop-color="#30A7FE"/>
<stop offset="1" stop-color="#30A7FE" stop-opacity="0"/>
</linearGradient>
<clipPath id="clip0_5481_122524">
<rect width="96" height="96" rx="10" fill="white"/>
</clipPath>
</defs>
<clipPath id="mask0_5481_122524">
<path fill-rule="evenodd" d="M28.8435 32.0522H20.4648C18.2557 32.0522 16.4648 33.8431 16.4648 36.0522V60.0744C16.4648 62.2836 18.2557 64.0744 20.4648 64.0744H28.8553C28.9128 64.0744 28.9701 64.0757 29.0273 64.0781L29.0273 32.048C28.9662 32.0508 28.905 32.0522 28.8435 32.0522ZM33.0273 29.5369L33.0273 66.5646L43.3321 76.6791C45.2299 78.5419 48.4336 77.1974 48.4336 74.5381L48.4336 21.4611C48.4336 18.7946 45.215 17.4533 43.3214 19.3307L33.0273 29.5369ZM55.4101 34.772C56.0743 33.8894 57.3282 33.7124 58.2108 34.3765C62.3205 37.4692 64.9843 42.3945 64.9843 47.9413C64.9843 53.5335 62.2768 58.4938 58.1096 61.5815C57.2222 62.2391 55.9696 62.0528 55.312 61.1653C54.6544 60.2778 54.8408 59.0253 55.7282 58.3677C58.9211 56.0019 60.9843 52.2127 60.9843 47.9413C60.9843 43.7044 58.9544 39.9422 55.8056 37.5727C54.923 36.9085 54.7459 35.6546 55.4101 34.772ZM68.2152 25.2476C67.3326 24.5835 66.0787 24.7605 65.4145 25.6431C64.7504 26.5257 64.9274 27.7796 65.81 28.4438C71.7197 32.891 75.535 39.9576 75.535 47.9159C75.535 55.9393 71.6571 63.0564 65.6648 67.4966C64.7773 68.1542 64.5909 69.4067 65.2485 70.2942C65.9061 71.1817 67.1587 71.3681 68.0462 70.7104C75.0128 65.5483 79.535 57.26 79.535 47.9159C79.535 38.6477 75.0858 30.418 68.2152 25.2476Z" fill="#292929"/>
</clipPath>
<g clip-path="url(#mask0_5481_122524)">
<g clip-path="url(#clip0_5481_122524)">
<rect width="96" height="96" rx="10" fill="#D9F4FD"/>
<circle cx="85.5714" cy="63.1124" r="138.607" fill="url(#paint0_radial_5481_122524)"/>
<path d="M-8.63919 30.067C-10.18 -3.11477 15.4702 -31.263 48.652 -32.8037C81.8337 -34.3445 109.982 -8.69438 111.523 24.4874C113.063 57.6692 87.4133 85.8174 54.2316 87.3582C21.0498 88.8989 -7.09842 63.2488 -8.63919 30.067Z" fill="url(#paint1_linear_5481_122524)"/>
<path d="M24.2526 -66.43C16.7672 -71.0619 7.28331 -71.0903 -0.22988 -66.5032L-75.3753 -20.6218C-82.7348 -16.1282 -82.7471 -5.52169 -75.3976 -1.01111L-0.748691 44.8052C6.75324 49.4089 16.2372 49.4034 23.7327 44.7888L98.2278 -1.0704C105.538 -5.57135 105.552 -16.1186 98.2501 -20.6366L24.2526 -66.43Z" fill="url(#paint2_linear_5481_122524)"/>
<path d="M-47.8586 45.9177C-32.3701 45.9177 -18.3401 52.1863 -8.18231 62.2992C12.1334 82.5597 28.9763 82.577 49.2919 62.3512C59.4498 52.1863 73.4971 45.9004 89.003 45.9004C119.997 45.9177 145.105 70.9575 145.105 101.868C145.105 132.778 119.997 157.8 89.003 157.8C73.4624 157.8 59.415 151.497 49.2572 141.332C28.9589 121.141 12.1334 121.158 -8.18231 141.419C-18.3401 151.549 -32.3701 157.8 -47.8586 157.8C-78.8357 157.8 -103.944 132.761 -103.944 101.868C-103.944 70.9749 -78.8357 45.9177 -47.8586 45.9177Z" fill="url(#paint3_linear_5481_122524)"/>
</g>
</g>

</svg>
