<svg width="160" height="160" viewBox="0 0 160 160" xmlns="http://www.w3.org/2000/svg">
  <defs>
<radialGradient id="paint0_radial_5481_122255" cx="0" cy="0" r="1" gradientUnits="userSpaceOnUse" gradientTransform="translate(142.62 105.187) rotate(90) scale(231.011)">
<stop offset="0.0885417" stop-color="#EB1000"/>
<stop offset="1" stop-color="#EB1000" stop-opacity="0"/>
</radialGradient>
<linearGradient id="paint1_linear_5481_122255" x1="115.768" y1="-5.14512" x2="23.108" y2="114.991" gradientUnits="userSpaceOnUse">
<stop stop-color="#FF4885"/>
<stop offset="1" stop-color="#FF4885" stop-opacity="0"/>
</linearGradient>
<linearGradient id="paint2_linear_5481_122255" x1="59.3137" y1="-60.4521" x2="77.1884" y2="53.9458" gradientUnits="userSpaceOnUse">
<stop offset="0.15625" stop-color="#7A6AFD"/>
<stop offset="1" stop-color="#7A6AFD" stop-opacity="0"/>
</linearGradient>
<linearGradient id="paint3_linear_5481_122255" x1="-146.934" y1="169.541" x2="153.819" y2="110.102" gradientUnits="userSpaceOnUse">
<stop stop-color="#30A7FE" stop-opacity="0"/>
<stop offset="0.432292" stop-color="#30A7FE" stop-opacity="0.994652"/>
<stop offset="0.609375" stop-color="#30A7FE"/>
<stop offset="1" stop-color="#30A7FE" stop-opacity="0"/>
</linearGradient>
<clipPath id="clip0_5481_122255">
<rect width="160" height="160" rx="10" fill="white"/>
</clipPath>
</defs>
<clipPath id="mask0_5481_122255">
<path fill-rule="evenodd" d="M28.2969 24.2656C26.0877 24.2656 24.2969 26.0565 24.2969 28.2656C24.2969 30.4748 26.0877 32.2656 28.2969 32.2656C28.568 32.2656 29.0421 32.2688 29.7178 32.2734C31.2397 32.2836 33.7842 32.3007 37.3359 32.3038C41.3145 32.3072 44.6955 35.1701 45.3355 39.0513L55.0236 97.8048C56.2978 105.532 62.9785 111.202 70.8104 111.202H125.12C127.329 111.202 129.12 109.411 129.12 107.202C129.12 104.993 127.329 103.202 125.12 103.202H70.8104C66.8945 103.202 63.5541 100.367 62.917 96.5033L61.0899 85.423H119.888C125.62 85.423 130.551 81.3689 131.661 75.7451L135.475 56.4081C136.936 48.9996 131.281 42.0859 123.713 42.0859L53.9439 42.0859L53.2289 37.7497C51.9449 29.9631 45.1896 24.3105 37.3428 24.3038C33.9203 24.3008 31.0085 24.2821 29.4456 24.272L29.4456 24.272L29.4454 24.272C28.8549 24.2682 28.4569 24.2656 28.2969 24.2656ZM75.0938 131.385C75.0938 135.803 71.512 139.385 67.0938 139.385C62.6755 139.385 59.0938 135.803 59.0938 131.385C59.0938 126.966 62.6755 123.385 67.0938 123.385C71.512 123.385 75.0938 126.966 75.0938 131.385ZM118.653 139.385C123.072 139.385 126.653 135.803 126.653 131.385C126.653 126.966 123.072 123.385 118.653 123.385C114.235 123.385 110.653 126.966 110.653 131.385C110.653 135.803 114.235 139.385 118.653 139.385Z" fill="white"/>
</clipPath>
<g clip-path="url(#mask0_5481_122255)">
<g clip-path="url(#clip0_5481_122255)">
<rect width="160" height="160" rx="10" fill="#D9F4FD"/>
<circle cx="142.62" cy="105.187" r="231.011" fill="url(#paint0_radial_5481_122255)"/>
<path d="M-14.3999 50.1137C-16.9679 -5.18932 25.7823 -52.103 81.0853 -54.6709C136.388 -57.2388 183.302 -14.4887 185.87 40.8143C188.438 96.1173 145.688 143.031 90.3846 145.599C35.0817 148.167 -11.832 105.417 -14.3999 50.1137Z" fill="url(#paint1_linear_5481_122255)"/>
<path d="M40.4184 -110.716C27.9428 -118.436 12.1362 -118.483 -0.385738 -110.838L-125.628 -34.3691C-137.894 -26.8797 -137.914 -9.20217 -125.665 -1.68455L-1.25042 74.676C11.2528 82.3487 27.0594 82.3396 39.5518 74.6486L163.71 -1.78335C175.895 -9.28493 175.917 -26.8637 163.748 -34.3936L40.4184 -110.716Z" fill="url(#paint2_linear_5481_122255)"/>
<path d="M-79.7631 76.5289C-53.9489 76.5289 -30.5656 86.9766 -13.6359 103.831C20.2235 137.599 48.2951 137.628 82.1545 103.918C99.0842 86.9766 122.496 76.5 148.34 76.5C199.997 76.5289 241.844 118.262 241.844 169.779C241.844 221.296 199.997 263 148.34 263C122.439 263 99.0263 252.495 82.0966 235.553C48.2661 201.901 20.2235 201.93 -13.6359 235.697C-30.5656 252.581 -53.9489 263 -79.7631 263C-131.392 263 -173.238 221.267 -173.238 169.779C-173.238 118.291 -131.392 76.5289 -79.7631 76.5289Z" fill="url(#paint3_linear_5481_122255)"/>
</g>
</g>

</svg>
