<svg width="48" height="48" viewBox="0 0 48 48" xmlns="http://www.w3.org/2000/svg">
  <defs>
<radialGradient id="paint0_radial_5481_122347" cx="0" cy="0" r="1" gradientUnits="userSpaceOnUse" gradientTransform="translate(42.7877 31.5552) rotate(90) scale(69.3033)">
<stop offset="0.0885417" stop-color="#EB1000"/>
<stop offset="1" stop-color="#EB1000" stop-opacity="0"/>
</radialGradient>
<linearGradient id="paint1_linear_5481_122347" x1="34.7309" y1="-1.54315" x2="6.93278" y2="34.4977" gradientUnits="userSpaceOnUse">
<stop stop-color="#FF4885"/>
<stop offset="1" stop-color="#FF4885" stop-opacity="0"/>
</linearGradient>
<linearGradient id="paint2_linear_5481_122347" x1="17.7929" y1="-18.1348" x2="23.1553" y2="16.1845" gradientUnits="userSpaceOnUse">
<stop offset="0.15625" stop-color="#7A6AFD"/>
<stop offset="1" stop-color="#7A6AFD" stop-opacity="0"/>
</linearGradient>
<linearGradient id="paint3_linear_5481_122347" x1="-44.0785" y1="50.8616" x2="46.1473" y2="33.0298" gradientUnits="userSpaceOnUse">
<stop stop-color="#30A7FE" stop-opacity="0"/>
<stop offset="0.432292" stop-color="#30A7FE" stop-opacity="0.994652"/>
<stop offset="0.609375" stop-color="#30A7FE"/>
<stop offset="1" stop-color="#30A7FE" stop-opacity="0"/>
</linearGradient>
<clipPath id="clip0_5481_122347">
<rect width="48" height="48" rx="10" fill="white"/>
</clipPath>
</defs>
<clipPath id="mask0_5481_122347">
<path fill-rule="evenodd" d="M6 12.9004H21.4633L18.6679 9.43623C18.1396 8.78152 17.3397 8.40039 16.4939 8.40039H8.784C7.24644 8.40039 6 9.63608 6 11.1604V12.9004ZM6 15.3004H37.8462C40.1387 15.3004 42 17.1744 42 19.4827V35.418C42 37.7263 40.1387 39.6004 37.8462 39.6004H10.1538C7.86128 39.6004 6 37.7263 6 35.418V15.3004ZM21.6882 23.25C21.4748 23.25 21.3017 23.423 21.3017 23.6365C21.3017 23.7457 21.3454 23.8425 21.4195 23.9143C21.9155 24.3945 21.9283 25.1858 21.4481 25.6818C20.9679 26.1778 20.1765 26.1906 19.6805 25.7104C19.1401 25.1872 18.8017 24.4503 18.8017 23.6365C18.8017 22.0423 20.094 20.75 21.6882 20.75C22.3786 20.75 22.9382 21.3096 22.9382 22C22.9382 22.6904 22.3786 23.25 21.6882 23.25ZM22.7939 24.6471C22.7939 23.1446 24.0119 21.9265 25.5145 21.9265C27.017 21.9265 28.2351 23.1446 28.2351 24.6471C28.2351 26.1496 27.017 27.3677 25.5145 27.3677C24.0119 27.3677 22.7939 26.1496 22.7939 24.6471ZM21.678 27.6655C21.9756 28.2884 21.7118 29.0346 21.0889 29.3322C20.5316 29.5983 20.0969 30.1524 19.9823 30.8271C19.8668 31.5077 19.2214 31.9658 18.5408 31.8503C17.8601 31.7347 17.402 31.0893 17.5176 30.4087C17.767 28.9393 18.7141 27.6959 20.0113 27.0763C20.6343 26.7787 21.3805 27.0425 21.678 27.6655ZM21.0771 31.095C21.5484 29.139 23.4405 27.8088 25.5145 27.8088C27.5886 27.8088 29.4807 29.139 29.952 31.095C30.2544 32.3499 29.1919 33.25 28.1892 33.25H22.8399C21.8371 33.25 20.7747 32.3499 21.0771 31.095Z" fill="white"/>
</clipPath>
<g clip-path="url(#mask0_5481_122347)">
<g clip-path="url(#clip0_5481_122347)">
<rect width="48" height="48" rx="10" fill="#D9F4FD"/>
<circle cx="42.7877" cy="31.5552" r="69.3033" fill="url(#paint0_radial_5481_122347)"/>
<path d="M-4.31959 15.0345C-5.08998 -1.55641 7.73508 -15.6305 24.326 -16.4009C40.9169 -17.1713 54.991 -4.34621 55.7613 12.2447C56.5317 28.8356 43.7067 42.9097 27.1158 43.6801C10.5249 44.4504 -3.54921 31.6254 -4.31959 15.0345Z" fill="url(#paint1_linear_5481_122347)"/>
<path d="M12.1243 -33.214C8.38167 -35.53 3.6397 -35.5442 -0.116893 -33.2506L-37.6896 -10.3099C-41.3694 -8.06314 -41.3755 -2.75987 -37.7007 -0.504581L-0.376298 22.4036C3.37467 24.7054 8.11665 24.7027 11.8644 22.3954L49.1119 -0.534222C52.7672 -2.7847 52.7739 -8.05833 49.1231 -10.3173L12.1243 -33.214Z" fill="url(#paint2_linear_5481_122347)"/>
<path d="M-23.9274 22.9579C-16.1831 22.9579 -9.16812 26.0922 -4.0892 31.1486C6.06863 41.2789 14.4901 41.2875 24.6479 31.1746C29.7268 26.0922 36.7505 22.9492 44.5034 22.9492C60.0006 22.9579 72.5547 35.4778 72.5547 50.9329C72.5547 66.388 60.0006 78.8992 44.5034 78.8992C36.7331 78.8992 29.7095 75.7476 24.6306 70.6652C14.4814 60.5696 6.06863 60.5782 -4.0892 70.7085C-9.16812 75.7736 -16.1831 78.8992 -23.9274 78.8992C-39.4159 78.8992 -51.9699 66.3793 -51.9699 50.9329C-51.9699 35.4865 -39.4159 22.9579 -23.9274 22.9579Z" fill="url(#paint3_linear_5481_122347)"/>
</g>
</g>

</svg>
