<svg width="48" height="48" viewBox="0 0 48 48" xmlns="http://www.w3.org/2000/svg">
  <defs>
<radialGradient id="paint0_radial_5481_122325" cx="0" cy="0" r="1" gradientUnits="userSpaceOnUse" gradientTransform="translate(38.23 28.9551) rotate(90) scale(57.0019 60.4683)">
<stop offset="0.0885417" stop-color="#EB1000"/>
<stop offset="1" stop-color="#EB1000" stop-opacity="0"/>
</radialGradient>
<linearGradient id="paint1_linear_5481_122325" x1="31.203" y1="1.73053" x2="8.71567" y2="32.6589" gradientUnits="userSpaceOnUse">
<stop stop-color="#FF4885"/>
<stop offset="1" stop-color="#FF4885" stop-opacity="0"/>
</linearGradient>
<linearGradient id="paint2_linear_5481_122325" x1="16.4261" y1="-11.9164" x2="20.5949" y2="16.3864" gradientUnits="userSpaceOnUse">
<stop offset="0.15625" stop-color="#7A6AFD"/>
<stop offset="1" stop-color="#7A6AFD" stop-opacity="0"/>
</linearGradient>
<linearGradient id="paint3_linear_5481_122325" x1="-37.5613" y1="44.8348" x2="40.7931" y2="28.4076" gradientUnits="userSpaceOnUse">
<stop stop-color="#30A7FE" stop-opacity="0"/>
<stop offset="0.432292" stop-color="#30A7FE" stop-opacity="0.994652"/>
<stop offset="0.609375" stop-color="#30A7FE"/>
<stop offset="1" stop-color="#30A7FE" stop-opacity="0"/>
</linearGradient>
<clipPath id="clip0_5481_122325">
<rect x="0.898438" y="3" width="41.8808" height="39.48" rx="10" fill="white"/>
</clipPath>
</defs>
<clipPath id="mask0_5481_122325">
<path fill-rule="evenodd" d="M12 7.2V4.2C12 3.537 11.463 3 10.8 3C10.137 3 9.6 3.537 9.6 4.2V7.2C9.6 7.863 10.137 8.4 10.8 8.4C11.463 8.4 12 7.863 12 7.2ZM23.7 21.006C23.7 22.656 25.05 24 26.709 24H26.712H37.203V38.4C37.203 40.389 35.601 42 33.624 42H14.379C12.402 42 10.8 40.389 10.8 38.4V14.4C10.8 12.411 12.402 10.8 14.379 10.8H23.7V21.006ZM36.3899 21.6H26.7119C26.3759 21.6 26.1029 21.333 26.1029 21.006V11.667C26.118 11.6801 26.1336 11.6933 26.1495 11.7067C26.1842 11.7359 26.22 11.766 26.2529 11.799L36.0959 21.276C36.2009 21.378 36.2969 21.486 36.3899 21.6ZM4.2 9.6H7.2C7.863 9.6 8.4 10.137 8.4 10.8C8.4 11.463 7.863 12 7.2 12H4.2C3.537 12 3 11.463 3 10.8C3 10.137 3.537 9.6 4.2 9.6Z" fill="white"/>
</clipPath>
<g clip-path="url(#mask0_5481_122325)">
<g clip-path="url(#clip0_5481_122325)">
<rect x="0.898438" y="3" width="41.8808" height="39.48" rx="10" fill="#D9F4FD"/>
<ellipse cx="38.23" cy="28.9551" rx="60.4683" ry="57.0019" fill="url(#paint0_radial_5481_122325)"/>
<path d="M-2.86916 15.3656C-3.54133 1.71962 7.64874 -9.85632 22.1246 -10.49C36.6004 -11.1236 48.8803 -0.574991 49.5525 13.071C50.2246 26.717 39.0346 38.293 24.5587 38.9266C10.0829 39.5602 -2.19699 29.0116 -2.86916 15.3656Z" fill="url(#paint1_linear_5481_122325)"/>
<path d="M11.4802 -24.319C8.21464 -26.2239 4.07719 -26.2356 0.799503 -24.3491L-31.9833 -5.48041C-35.194 -3.63243 -35.1993 0.729514 -31.993 2.58449L0.573167 21.4264C3.84595 23.3197 7.98341 23.3174 11.2534 21.4197L43.7525 2.56011C46.9418 0.709092 46.9476 -3.62847 43.7622 -5.48647L11.4802 -24.319Z" fill="url(#paint2_linear_5481_122325)"/>
<path d="M-19.9791 21.8841C-13.2221 21.8841 -7.10138 24.462 -2.66994 28.621C6.19294 36.9531 13.5408 36.9602 22.4037 28.6423C26.8351 24.462 32.9634 21.877 39.7279 21.877C53.2495 21.8841 64.2031 32.1817 64.2031 44.8935C64.2031 57.6053 53.2495 67.8958 39.7279 67.8958C32.9482 67.8958 26.82 65.3036 22.3885 61.1233C13.5332 52.8197 6.19294 52.8268 -2.66994 61.1589C-7.10138 65.325 -13.2221 67.8958 -19.9791 67.8958C-33.4931 67.8958 -44.4467 57.5982 -44.4467 44.8935C-44.4467 32.1888 -33.4931 21.8841 -19.9791 21.8841Z" fill="url(#paint3_linear_5481_122325)"/>
</g>
</g>

</svg>
