<svg width="96" height="96" viewBox="0 0 96 96" xmlns="http://www.w3.org/2000/svg">
  <defs>
<radialGradient id="paint0_radial_5481_122478" cx="0" cy="0" r="1" gradientUnits="userSpaceOnUse" gradientTransform="translate(79.609 62.6457) rotate(90) scale(117.816 124.98)">
<stop offset="0.0885417" stop-color="#EB1000"/>
<stop offset="1" stop-color="#EB1000" stop-opacity="0"/>
</radialGradient>
<linearGradient id="paint1_linear_5481_122478" x1="65.082" y1="6.37665" x2="18.6036" y2="70.3015" gradientUnits="userSpaceOnUse">
<stop stop-color="#FF4885"/>
<stop offset="1" stop-color="#FF4885" stop-opacity="0"/>
</linearGradient>
<linearGradient id="paint2_linear_5481_122478" x1="34.5397" y1="-21.8292" x2="43.1561" y2="36.6689" gradientUnits="userSpaceOnUse">
<stop offset="0.15625" stop-color="#7A6AFD"/>
<stop offset="1" stop-color="#7A6AFD" stop-opacity="0"/>
</linearGradient>
<linearGradient id="paint3_linear_5481_122478" x1="-77.0447" y1="95.4666" x2="84.9036" y2="61.5136" gradientUnits="userSpaceOnUse">
<stop stop-color="#30A7FE" stop-opacity="0"/>
<stop offset="0.432292" stop-color="#30A7FE" stop-opacity="0.994652"/>
<stop offset="0.609375" stop-color="#30A7FE"/>
<stop offset="1" stop-color="#30A7FE" stop-opacity="0"/>
</linearGradient>
<clipPath id="clip0_5481_122478">
<rect x="2.44922" y="9" width="86.5622" height="81.6" rx="10" fill="white"/>
</clipPath>
</defs>
<clipPath id="mask0_5481_122478">
<path fill-rule="evenodd" d="M14.5266 81.6H81.6006C82.9266 81.6 84.0006 82.674 84.0006 84C84.0006 85.326 82.9266 86.4 81.6006 86.4H12.1266C10.8006 86.4 9.72656 85.326 9.72656 84V14.4C9.72656 13.074 10.8006 12 12.1266 12C13.4526 12 14.5266 13.074 14.5266 14.4V81.6ZM26.4 42.63H28.8C31.451 42.63 33.6 44.7791 33.6 47.43V69.6C33.6 72.251 31.451 74.4 28.8 74.4H26.4C23.749 74.4 21.6 72.251 21.6 69.6V47.43C21.6 44.7791 23.749 42.63 26.4 42.63ZM72 57.6H69.6C66.949 57.6 64.8 59.749 64.8 62.4V69.6C64.8 72.251 66.949 74.4 69.6 74.4H72C74.651 74.4 76.8 72.251 76.8 69.6V62.4C76.8 59.749 74.651 57.6 72 57.6ZM48 24H50.4C53.051 24 55.2 26.149 55.2 28.8V69.6C55.2 72.251 53.051 74.4 50.4 74.4H48C45.349 74.4 43.2 72.251 43.2 69.6V28.8C43.2 26.149 45.349 24 48 24Z" fill="white"/>
</clipPath>
<g clip-path="url(#mask0_5481_122478)">
<g clip-path="url(#clip0_5481_122478)">
<rect x="2.44922" y="9" width="86.5622" height="81.6" rx="10" fill="#D9F4FD"/>
<ellipse cx="79.609" cy="62.6457" rx="124.98" ry="117.816" fill="url(#paint0_radial_5481_122478)"/>
<path d="M-5.34078 34.5586C-6.73007 6.35411 16.3984 -17.5719 46.318 -18.8815C76.2377 -20.1912 101.619 1.61144 103.008 29.816C104.397 58.0205 81.2688 81.9464 51.3491 83.2561C21.4294 84.5657 -3.95148 62.7632 -5.34078 34.5586Z" fill="url(#paint1_linear_5481_122478)"/>
<path d="M24.3171 -47.4638C17.5676 -51.401 9.01606 -51.4251 2.2415 -47.5261L-65.5163 -8.52689C-72.1523 -4.70734 -72.1634 4.30822 -65.5364 8.14221L1.77369 47.0861C8.53811 50.9992 17.0897 50.9945 23.8483 47.0721L91.0197 8.09182C97.6116 4.26601 97.6237 -4.69917 91.0398 -8.53941L24.3171 -47.4638Z" fill="url(#paint2_linear_5481_122478)"/>
<path d="M-40.7046 48.0303C-26.7387 48.0303 -14.0881 53.3587 -4.92887 61.9546C13.3895 79.176 28.5766 79.1907 46.895 61.9988C56.0542 53.3587 68.7206 48.0156 82.702 48.0156C110.649 48.0303 133.289 69.3142 133.289 95.5878C133.289 121.861 110.649 143.131 82.702 143.131C68.6892 143.131 56.0229 137.773 46.8637 129.133C28.5609 111.97 13.3895 111.985 -4.92887 129.206C-14.0881 137.817 -26.7387 143.131 -40.7046 143.131C-68.6363 143.131 -91.2759 121.847 -91.2759 95.5878C-91.2759 69.3289 -68.6363 48.0303 -40.7046 48.0303Z" fill="url(#paint3_linear_5481_122478)"/>
</g>
</g>

</svg>
