<svg width="160" height="160" viewBox="0 0 160 160" xmlns="http://www.w3.org/2000/svg">
  <defs>
<radialGradient id="paint0_radial_5481_122147" cx="0" cy="0" r="1" gradientUnits="userSpaceOnUse" gradientTransform="translate(135.034 100.64) rotate(90) scale(212.241 212.241)">
<stop offset="0.0885417" stop-color="#EB1000"/>
<stop offset="1" stop-color="#EB1000" stop-opacity="0"/>
</radialGradient>
<linearGradient id="paint1_linear_5481_122147" x1="110.361" y1="-0.728089" x2="25.2297" y2="109.647" gradientUnits="userSpaceOnUse">
<stop stop-color="#FF4885"/>
<stop offset="1" stop-color="#FF4885" stop-opacity="0"/>
</linearGradient>
<linearGradient id="paint2_linear_5481_122147" x1="58.4958" y1="-51.5404" x2="74.9181" y2="53.5626" gradientUnits="userSpaceOnUse">
<stop offset="0.15625" stop-color="#7A6AFD"/>
<stop offset="1" stop-color="#7A6AFD" stop-opacity="0"/>
</linearGradient>
<linearGradient id="paint3_linear_5481_122147" x1="-130.994" y1="159.767" x2="145.323" y2="105.157" gradientUnits="userSpaceOnUse">
<stop stop-color="#30A7FE" stop-opacity="0"/>
<stop offset="0.432292" stop-color="#30A7FE" stop-opacity="0.994652"/>
<stop offset="0.609375" stop-color="#30A7FE"/>
<stop offset="1" stop-color="#30A7FE" stop-opacity="0"/>
</linearGradient>
<clipPath id="clip0_5481_122147">
<rect x="4" y="4" width="147" height="147" rx="10" fill="white"/>
</clipPath>
</defs>
<clipPath id="mask0_5481_122147">
<path fill-rule="evenodd" d="M51.7386 21.9316H79.1428C81.9536 21.9316 84.6492 23.0482 86.6367 25.0357L115.755 54.1543C117.743 56.1418 118.859 58.8374 118.859 61.6482V103.183C118.859 109.036 114.114 113.781 108.261 113.781H51.7386C45.8855 113.781 41.1406 109.036 41.1406 103.183V32.5297C41.1406 26.6765 45.8855 21.9316 51.7386 21.9316ZM82.7387 52.5569C82.7431 50.6059 81.165 49.0207 79.2139 49.0164C77.2629 49.012 75.6777 50.5901 75.6734 52.5411L75.5952 87.5237L63.6521 78.0247C62.1252 76.8103 59.9028 77.0636 58.6883 78.5905C57.4738 80.1175 57.7272 82.3399 59.2541 83.5544L77.0468 97.7059C78.3414 98.7356 80.1773 98.729 81.4645 97.6901L98.9985 83.5386C100.517 82.3132 100.754 80.0891 99.5288 78.5708C98.3035 77.0526 96.0794 76.8152 94.5611 78.0405L82.6603 87.6456L82.7387 52.5569ZM22.4 75.5223C22.4 73.755 23.8327 72.3223 25.6 72.3223H31.4811C33.2484 72.3223 34.6811 70.8896 34.6811 69.1223C34.6811 67.355 33.2484 65.9223 31.4811 65.9223H25.6C20.2981 65.9223 16 70.2204 16 75.5223V81.0575C16 82.8248 17.4327 84.2575 19.2 84.2575C20.9673 84.2575 22.4 82.8248 22.4 81.0575V75.5223ZM128.519 65.9223C126.752 65.9223 125.319 67.355 125.319 69.1223C125.319 70.8896 126.752 72.3223 128.519 72.3223H134.4C136.167 72.3223 137.6 73.755 137.6 75.5223V81.0575C137.6 82.8248 139.033 84.2575 140.8 84.2575C142.567 84.2575 144 82.8248 144 81.0575V75.5223C144 70.2204 139.702 65.9223 134.4 65.9223H128.519ZM144 95.5872C144 93.8199 142.567 92.3872 140.8 92.3872C139.033 92.3872 137.6 93.8199 137.6 95.5872V106.657C137.6 108.425 139.033 109.857 140.8 109.857C142.567 109.857 144 108.425 144 106.657V95.5872ZM22.4 95.5872C22.4 93.8199 20.9673 92.3872 19.2 92.3872C17.4327 92.3872 16 93.8199 16 95.5872V106.657C16 108.425 17.4327 109.857 19.2 109.857C20.9673 109.857 22.4 108.425 22.4 106.657V95.5872ZM22.4 121.187C22.4 119.42 20.9673 117.987 19.2 117.987C17.4327 117.987 16 119.42 16 121.187V126.722C16 132.024 20.2981 136.322 25.6 136.322H31.4811C33.2484 136.322 34.6811 134.89 34.6811 133.122C34.6811 131.355 33.2484 129.922 31.4811 129.922H25.6C23.8327 129.922 22.4 128.49 22.4 126.722V121.187ZM144 121.187C144 119.42 142.567 117.987 140.8 117.987C139.033 117.987 137.6 119.42 137.6 121.187V126.722C137.6 128.49 136.167 129.922 134.4 129.922H128.519C126.752 129.922 125.319 131.355 125.319 133.122C125.319 134.89 126.752 136.322 128.519 136.322H134.4C139.702 136.322 144 132.024 144 126.722V121.187ZM46.9189 129.922C45.1516 129.922 43.7189 131.355 43.7189 133.122C43.7189 134.89 45.1516 136.322 46.9189 136.322H58.6811C60.4484 136.322 61.8811 134.89 61.8811 133.122C61.8811 131.355 60.4484 129.922 58.6811 129.922H46.9189ZM74.1189 129.922C72.3516 129.922 70.9189 131.355 70.9189 133.122C70.9189 134.89 72.3516 136.322 74.1189 136.322H85.8811C87.6484 136.322 89.0811 134.89 89.0811 133.122C89.0811 131.355 87.6484 129.922 85.8811 129.922H74.1189ZM101.319 129.922C99.5516 129.922 98.1189 131.355 98.1189 133.122C98.1189 134.89 99.5516 136.322 101.319 136.322H113.081C114.848 136.322 116.281 134.89 116.281 133.122C116.281 131.355 114.848 129.922 113.081 129.922H101.319Z" fill="white"/>
</clipPath>
<g clip-path="url(#mask0_5481_122147)">
<g clip-path="url(#clip0_5481_122147)">
<rect x="4" y="4" width="147" height="147" rx="10" fill="#D9F4FD"/>
<ellipse cx="135.034" cy="100.64" rx="212.241" ry="212.241" fill="url(#paint0_radial_5481_122147)"/>
<path d="M-9.23068 50.0409C-11.59 -0.768696 27.6868 -43.8706 78.4964 -46.2299C129.306 -48.5892 172.408 -9.31246 174.767 41.4972C177.126 92.3068 137.85 135.409 87.0401 137.768C36.2305 140.127 -6.87139 100.851 -9.23068 50.0409Z" fill="url(#paint1_linear_5481_122147)"/>
<path d="M41.1357 -97.7204C29.6738 -104.813 15.1515 -104.856 3.6469 -97.8325L-111.419 -27.5766C-122.689 -20.6958 -122.708 -4.45454 -111.454 2.45228L2.85247 72.6085C14.3398 79.6579 28.8621 79.6495 40.3396 72.5834L154.41 2.3615C165.605 -4.53058 165.625 -20.6811 154.444 -27.5992L41.1357 -97.7204Z" fill="url(#paint2_linear_5481_122147)"/>
<path d="M-69.281 74.3117C-45.5642 74.3117 -24.0808 83.9105 -8.52661 99.3959C22.5818 130.42 48.3724 130.446 79.4808 99.4754C95.035 83.9105 116.545 74.2852 140.288 74.2852C187.749 74.3117 226.195 112.654 226.195 159.985C226.195 207.316 187.749 245.632 140.288 245.632C116.492 245.632 94.9818 235.98 79.4276 220.415C48.3459 189.498 22.5818 189.524 -8.52661 220.548C-24.0808 236.06 -45.5642 245.632 -69.281 245.632C-116.715 245.632 -155.161 207.29 -155.161 159.985C-155.161 112.68 -116.715 74.3117 -69.281 74.3117Z" fill="url(#paint3_linear_5481_122147)"/>
</g>
</g>

</svg>
