<svg width="160" height="160" viewBox="0 0 160 160" xmlns="http://www.w3.org/2000/svg">
  <defs>
<radialGradient id="paint0_radial_5481_122164" cx="0" cy="0" r="1" gradientUnits="userSpaceOnUse" gradientTransform="translate(130.355 101.038) rotate(90) scale(170.948 181.344)">
<stop offset="0.0885417" stop-color="#EB1000"/>
<stop offset="1" stop-color="#EB1000" stop-opacity="0"/>
</radialGradient>
<linearGradient id="paint1_linear_5481_122164" x1="109.277" y1="19.3921" x2="41.838" y2="112.146" gradientUnits="userSpaceOnUse">
<stop stop-color="#FF4885"/>
<stop offset="1" stop-color="#FF4885" stop-opacity="0"/>
</linearGradient>
<linearGradient id="paint2_linear_5481_122164" x1="64.9613" y1="-21.5347" x2="77.4635" y2="63.345" gradientUnits="userSpaceOnUse">
<stop offset="0.15625" stop-color="#7A6AFD"/>
<stop offset="1" stop-color="#7A6AFD" stop-opacity="0"/>
</linearGradient>
<linearGradient id="paint3_linear_5481_122164" x1="-96.9441" y1="148.659" x2="138.04" y2="99.3939" gradientUnits="userSpaceOnUse">
<stop stop-color="#30A7FE" stop-opacity="0"/>
<stop offset="0.432292" stop-color="#30A7FE" stop-opacity="0.994652"/>
<stop offset="0.609375" stop-color="#30A7FE"/>
<stop offset="1" stop-color="#30A7FE" stop-opacity="0"/>
</linearGradient>
<clipPath id="clip0_5481_122164">
<rect x="18.3984" y="23.1992" width="125.6" height="118.4" rx="10" fill="white"/>
</clipPath>
</defs>
<clipPath id="mask0_5481_122164">
<path fill-rule="evenodd" d="M117.542 54.6497C117.537 54.7572 117.532 54.8647 117.532 54.9697C130.902 55.7597 141.512 66.8197 141.512 81.4897C141.512 96.1597 130.132 108.05 116.082 108.05H115.942H83.5122V74.0697L101.012 88.1097C101.752 88.6997 102.632 88.9897 103.512 88.9897C104.682 88.9897 105.842 88.4697 106.632 87.4897C108.012 85.7697 107.732 83.2497 106.012 81.8697L82.3422 62.8697C80.8722 61.6897 78.7722 61.6997 77.3122 62.8897L53.9822 81.8897C52.2622 83.2897 52.0022 85.8097 53.4022 87.5197C54.8022 89.2397 57.3222 89.4997 59.0322 88.0997L75.5022 74.6797V108.05L83.502 108.05V136C83.502 138.21 81.712 140 79.502 140C77.292 140 75.502 138.21 75.502 136V108.05L36.4722 108.05V108.03C26.5222 107.86 18.4922 99.3897 18.4922 88.9497C18.4922 80.1597 24.1922 72.7697 31.9422 70.5497C31.5922 68.9397 31.3822 67.2697 31.3822 65.5397C31.3822 53.2797 40.8922 43.3497 52.6222 43.3497C55.4922 43.3497 58.2222 43.9497 60.7222 45.0297C64.4922 32.7897 75.4722 23.9297 88.4422 23.9297C104.522 23.9297 117.552 37.5397 117.552 54.3297C117.552 54.4347 117.547 54.5422 117.542 54.6497Z" fill="white"/>
</clipPath>
<g clip-path="url(#mask0_5481_122164)">
<g clip-path="url(#clip0_5481_122164)">
<rect x="18.3984" y="23.1992" width="125.6" height="118.4" rx="10" fill="#D9F4FD"/>
<ellipse cx="130.355" cy="101.038" rx="181.344" ry="170.948" fill="url(#paint0_radial_5481_122164)"/>
<path d="M7.09525 60.2836C5.07941 19.3594 38.6383 -15.3567 82.0512 -17.257C125.464 -19.1572 162.291 12.4779 164.307 53.4021C166.323 94.3263 132.764 129.042 89.3511 130.943C45.9383 132.843 9.11108 101.208 7.09525 60.2836Z" fill="url(#paint1_linear_5481_122164)"/>
<path d="M50.1285 -58.73C40.3352 -64.4427 27.927 -64.4777 18.0973 -58.8203L-80.218 -2.23325C-89.8467 3.30884 -89.8628 16.3902 -80.2472 21.9533L17.4185 78.4601C27.2335 84.1379 39.6417 84.1312 49.4483 78.4399L146.913 21.8802C156.477 16.329 156.495 3.32071 146.942 -2.25142L50.1285 -58.73Z" fill="url(#paint2_linear_5481_122164)"/>
<path d="M-44.2153 79.83C-23.9511 79.83 -5.59525 87.5612 7.69458 100.034C34.2742 125.022 56.3104 125.043 82.89 100.098C96.1799 87.5612 114.558 79.8086 134.845 79.8086C175.396 79.83 208.246 110.712 208.246 148.835C208.246 186.958 175.396 217.819 134.845 217.819C114.513 217.819 96.1344 210.045 82.8446 197.508C56.2877 172.605 34.2742 172.627 7.69458 197.615C-5.59525 210.109 -23.9511 217.819 -44.2153 217.819C-84.7436 217.819 -117.593 186.936 -117.593 148.835C-117.593 110.734 -84.7436 79.83 -44.2153 79.83Z" fill="url(#paint3_linear_5481_122164)"/>
</g>
</g>

</svg>
