<svg width="96" height="96" viewBox="0 0 96 96" xmlns="http://www.w3.org/2000/svg">
  <defs>
<radialGradient id="paint0_radial_5481_122587" cx="0" cy="0" r="1" gradientUnits="userSpaceOnUse" gradientTransform="translate(85.5714 63.1124) rotate(90) scale(138.607)">
<stop offset="0.0885417" stop-color="#EB1000"/>
<stop offset="1" stop-color="#EB1000" stop-opacity="0"/>
</radialGradient>
<linearGradient id="paint1_linear_5481_122587" x1="69.4617" y1="-3.08825" x2="13.8656" y2="68.9935" gradientUnits="userSpaceOnUse">
<stop stop-color="#FF4885"/>
<stop offset="1" stop-color="#FF4885" stop-opacity="0"/>
</linearGradient>
<linearGradient id="paint2_linear_5481_122587" x1="35.5898" y1="-36.2716" x2="46.3146" y2="32.3671" gradientUnits="userSpaceOnUse">
<stop offset="0.15625" stop-color="#7A6AFD"/>
<stop offset="1" stop-color="#7A6AFD" stop-opacity="0"/>
</linearGradient>
<linearGradient id="paint3_linear_5481_122587" x1="-88.1609" y1="101.725" x2="92.2907" y2="66.0615" gradientUnits="userSpaceOnUse">
<stop stop-color="#30A7FE" stop-opacity="0"/>
<stop offset="0.432292" stop-color="#30A7FE" stop-opacity="0.994652"/>
<stop offset="0.609375" stop-color="#30A7FE"/>
<stop offset="1" stop-color="#30A7FE" stop-opacity="0"/>
</linearGradient>
<clipPath id="clip0_5481_122587">
<rect width="96" height="96" rx="10" fill="white"/>
</clipPath>
</defs>
<clipPath id="mask0_5481_122587">
<path fill-rule="evenodd" d="M48 81.0156C66.2254 81.0156 81 66.241 81 48.0156C81 29.7902 66.2254 15.0156 48 15.0156C29.7746 15.0156 15 29.7902 15 48.0156C15 66.241 29.7746 81.0156 48 81.0156ZM48.743 34.1366C47.8596 33.9566 46.9434 34.0485 46.1081 34.403C45.2722 34.7577 44.5499 35.3618 44.0382 36.1465C43.5261 36.9317 43.25 37.8597 43.25 38.813C43.25 39.9176 42.3546 40.813 41.25 40.813C40.1454 40.813 39.25 39.9176 39.25 38.813C39.25 37.0899 39.7485 35.4016 40.6877 33.9614C41.6273 32.5207 42.9679 31.3904 44.5454 30.7209C46.1236 30.0511 47.8631 29.8751 49.5418 30.2172C51.2201 30.5592 52.755 31.4022 53.955 32.6317C55.1545 33.8606 55.9661 35.4206 56.2945 37.1119C56.6228 38.8029 56.4547 40.5562 55.8095 42.152C55.1642 43.7482 54.0682 45.1203 52.6528 46.0892C51.9002 46.6045 51.1659 47.3042 50.6358 48.0703C50.0996 48.8452 49.854 49.5655 49.854 50.1613V54.3354C49.854 55.44 48.9586 56.3354 47.854 56.3354C46.7494 56.3354 45.854 55.44 45.854 54.3354V50.1613C45.854 48.5032 46.513 46.9989 47.3464 45.7944C48.1859 44.5811 49.2861 43.5465 50.3932 42.7886C51.1498 42.2706 51.7468 41.5292 52.1011 40.6527C52.4556 39.7758 52.5491 38.8082 52.3678 37.8742C52.1865 36.9404 51.7402 36.0892 51.0925 35.4256C50.4453 34.7626 49.6268 34.3167 48.743 34.1366ZM50.5 62.5156C50.5 63.8963 49.3807 65.0156 48 65.0156C46.6193 65.0156 45.5 63.8963 45.5 62.5156C45.5 61.1349 46.6193 60.0156 48 60.0156C49.3807 60.0156 50.5 61.1349 50.5 62.5156Z" fill="#D9D9D9"/>
</clipPath>
<g clip-path="url(#mask0_5481_122587)">
<g clip-path="url(#clip0_5481_122587)">
<rect width="96" height="96" rx="10" fill="#D9F4FD"/>
<circle cx="85.5714" cy="63.1124" r="138.607" fill="url(#paint0_radial_5481_122587)"/>
<path d="M-8.63919 30.067C-10.18 -3.11477 15.4702 -31.263 48.652 -32.8037C81.8337 -34.3445 109.982 -8.69438 111.523 24.4874C113.063 57.6692 87.4133 85.8174 54.2316 87.3582C21.0498 88.8989 -7.09842 63.2488 -8.63919 30.067Z" fill="url(#paint1_linear_5481_122587)"/>
<path d="M24.2526 -66.43C16.7672 -71.0619 7.28331 -71.0903 -0.22988 -66.5032L-75.3753 -20.6218C-82.7348 -16.1282 -82.7471 -5.52169 -75.3976 -1.01111L-0.748691 44.8052C6.75324 49.4089 16.2372 49.4034 23.7327 44.7888L98.2278 -1.0704C105.538 -5.57135 105.552 -16.1186 98.2501 -20.6366L24.2526 -66.43Z" fill="url(#paint2_linear_5481_122587)"/>
<path d="M-47.8586 45.9177C-32.3701 45.9177 -18.3401 52.1863 -8.18231 62.2992C12.1334 82.5597 28.9763 82.577 49.2919 62.3512C59.4498 52.1863 73.4971 45.9004 89.003 45.9004C119.997 45.9177 145.105 70.9575 145.105 101.868C145.105 132.778 119.997 157.8 89.003 157.8C73.4624 157.8 59.415 151.497 49.2572 141.332C28.9589 121.141 12.1334 121.158 -8.18231 141.419C-18.3401 151.549 -32.3701 157.8 -47.8586 157.8C-78.8357 157.8 -103.944 132.761 -103.944 101.868C-103.944 70.9749 -78.8357 45.9177 -47.8586 45.9177Z" fill="url(#paint3_linear_5481_122587)"/>
</g>
</g>

</svg>
