<svg width="160" height="160" viewBox="0 0 160 160" xmlns="http://www.w3.org/2000/svg">
  <defs>
<radialGradient id="paint0_radial_5481_122240" cx="0" cy="0" r="1" gradientUnits="userSpaceOnUse" gradientTransform="translate(142.62 105.187) rotate(90) scale(231.011)">
<stop offset="0.0885417" stop-color="#EB1000"/>
<stop offset="1" stop-color="#EB1000" stop-opacity="0"/>
</radialGradient>
<linearGradient id="paint1_linear_5481_122240" x1="115.768" y1="-5.14512" x2="23.108" y2="114.991" gradientUnits="userSpaceOnUse">
<stop stop-color="#FF4885"/>
<stop offset="1" stop-color="#FF4885" stop-opacity="0"/>
</linearGradient>
<linearGradient id="paint2_linear_5481_122240" x1="59.3137" y1="-60.4521" x2="77.1884" y2="53.9458" gradientUnits="userSpaceOnUse">
<stop offset="0.15625" stop-color="#7A6AFD"/>
<stop offset="1" stop-color="#7A6AFD" stop-opacity="0"/>
</linearGradient>
<linearGradient id="paint3_linear_5481_122240" x1="-146.934" y1="169.541" x2="153.819" y2="110.102" gradientUnits="userSpaceOnUse">
<stop stop-color="#30A7FE" stop-opacity="0"/>
<stop offset="0.432292" stop-color="#30A7FE" stop-opacity="0.994652"/>
<stop offset="0.609375" stop-color="#30A7FE"/>
<stop offset="1" stop-color="#30A7FE" stop-opacity="0"/>
</linearGradient>
<clipPath id="clip0_5481_122240">
<rect width="160" height="160" rx="10" fill="white"/>
</clipPath>
</defs>
<clipPath id="mask0_5481_122240">
<path fill-rule="evenodd" d="M63.1003 23.2909C79.6454 17.8653 97.3836 19.6776 108.92 24.8826C132.579 35.5565 140.39 58.4951 136.932 78.1466C133.503 97.6314 118.605 115.17 96.0634 113.611C75.3052 112.175 64.1626 104.304 59.6514 94.0014C55.31 84.0866 57.7217 73.2019 61.2309 66.7207C71.2388 48.2367 89.0283 47.0424 98.1632 47.8771C102.661 48.2881 105.43 52.3403 105.06 56.357L100.527 105.652C115.652 104.746 126.318 92.3015 129.053 76.76C131.989 60.0773 125.404 41.0957 105.63 32.1748C95.9146 27.7913 80.2393 26.0898 65.5931 30.8926C51.1852 35.6174 37.748 46.6291 31.9434 67.9334C27.3455 84.8087 32.7174 100.968 43.0562 112.943C53.4561 124.989 68.5362 132.391 82.647 131.984C84.8552 131.92 86.6969 133.659 86.7606 135.867C86.8242 138.075 85.0857 139.917 82.8775 139.981C65.9548 140.469 48.6863 131.706 37.0008 118.171C25.254 104.565 18.8036 85.7274 24.2247 65.8304C30.7847 41.7538 46.3168 28.7947 63.1003 23.2909ZM92.5309 105.243L97.0765 55.8128C89.1317 55.1589 75.8803 56.4664 68.2659 70.5297C65.5595 75.5283 63.9034 83.767 66.9797 90.7926C69.6681 96.9323 76.5093 103.285 92.5309 105.243Z" fill="#292929"/>
</clipPath>
<g clip-path="url(#mask0_5481_122240)">
<g clip-path="url(#clip0_5481_122240)">
<rect width="160" height="160" rx="10" fill="#D9F4FD"/>
<circle cx="142.62" cy="105.187" r="231.011" fill="url(#paint0_radial_5481_122240)"/>
<path d="M-14.3999 50.1137C-16.9679 -5.18932 25.7823 -52.103 81.0853 -54.6709C136.388 -57.2388 183.302 -14.4887 185.87 40.8143C188.438 96.1173 145.688 143.031 90.3846 145.599C35.0817 148.167 -11.832 105.417 -14.3999 50.1137Z" fill="url(#paint1_linear_5481_122240)"/>
<path d="M40.4184 -110.716C27.9428 -118.436 12.1362 -118.483 -0.385738 -110.838L-125.628 -34.3691C-137.894 -26.8797 -137.914 -9.20217 -125.665 -1.68455L-1.25042 74.676C11.2528 82.3487 27.0594 82.3396 39.5518 74.6486L163.71 -1.78335C175.895 -9.28493 175.917 -26.8637 163.748 -34.3936L40.4184 -110.716Z" fill="url(#paint2_linear_5481_122240)"/>
<path d="M-79.7631 76.5289C-53.9489 76.5289 -30.5656 86.9766 -13.6359 103.831C20.2235 137.599 48.2951 137.628 82.1545 103.918C99.0842 86.9766 122.496 76.5 148.34 76.5C199.997 76.5289 241.844 118.262 241.844 169.779C241.844 221.296 199.997 263 148.34 263C122.439 263 99.0263 252.495 82.0966 235.553C48.2661 201.901 20.2235 201.93 -13.6359 235.697C-30.5656 252.581 -53.9489 263 -79.7631 263C-131.392 263 -173.238 221.267 -173.238 169.779C-173.238 118.291 -131.392 76.5289 -79.7631 76.5289Z" fill="url(#paint3_linear_5481_122240)"/>
</g>
</g>

</svg>
