<svg width="160" height="160" viewBox="0 0 160 160" xmlns="http://www.w3.org/2000/svg">
  <defs>
<radialGradient id="paint0_radial_5481_122260" cx="0" cy="0" r="1" gradientUnits="userSpaceOnUse" gradientTransform="translate(142.62 105.187) rotate(90) scale(231.011)">
<stop offset="0.0885417" stop-color="#EB1000"/>
<stop offset="1" stop-color="#EB1000" stop-opacity="0"/>
</radialGradient>
<linearGradient id="paint1_linear_5481_122260" x1="115.768" y1="-5.14512" x2="23.108" y2="114.991" gradientUnits="userSpaceOnUse">
<stop stop-color="#FF4885"/>
<stop offset="1" stop-color="#FF4885" stop-opacity="0"/>
</linearGradient>
<linearGradient id="paint2_linear_5481_122260" x1="59.3137" y1="-60.4521" x2="77.1884" y2="53.9458" gradientUnits="userSpaceOnUse">
<stop offset="0.15625" stop-color="#7A6AFD"/>
<stop offset="1" stop-color="#7A6AFD" stop-opacity="0"/>
</linearGradient>
<linearGradient id="paint3_linear_5481_122260" x1="-146.934" y1="169.541" x2="153.819" y2="110.102" gradientUnits="userSpaceOnUse">
<stop stop-color="#30A7FE" stop-opacity="0"/>
<stop offset="0.432292" stop-color="#30A7FE" stop-opacity="0.994652"/>
<stop offset="0.609375" stop-color="#30A7FE"/>
<stop offset="1" stop-color="#30A7FE" stop-opacity="0"/>
</linearGradient>
<clipPath id="clip0_5481_122260">
<rect width="160" height="160" rx="10" fill="white"/>
</clipPath>
</defs>
<clipPath id="mask0_5481_122260">
<path fill-rule="evenodd" d="M83.9472 25.207V48.286L98.4279 48.286C94.9758 40.2654 90.1568 32.509 83.9472 25.207ZM107.074 48.286C104.098 40.5943 99.9949 33.1051 94.7425 25.9617C107.679 29.4827 118.752 37.5249 126.16 48.286L107.074 48.286ZM101.393 56.286L83.9472 56.286V76.5985H104.946C104.658 69.7624 103.478 62.9571 101.393 56.286ZM112.953 76.5985C112.695 69.7753 111.63 62.9745 109.745 56.286L129.875 56.286C130.159 56.286 130.437 56.2563 130.705 56.1998C133.645 62.4535 135.463 69.3397 135.898 76.5985H112.953ZM104.876 84.5985H83.9472V104.911H101.036C103.187 98.2177 104.471 91.4129 104.876 84.5985ZM109.396 104.911C111.349 98.2124 112.517 91.4118 112.887 84.5985H135.814C135.224 91.8515 133.253 98.7137 130.163 104.921C130.068 104.914 129.972 104.911 129.875 104.911H109.396ZM98.0276 112.911H83.9472V135.864C83.9749 135.862 84.0027 135.86 84.0304 135.858C89.93 128.549 94.6032 120.84 98.0276 112.911ZM95.5219 133.822C100.146 127.09 103.868 120.082 106.67 112.911H125.314C118.076 122.859 107.643 130.332 95.5219 133.822ZM33.8398 48.286C41.2223 37.5615 52.2455 29.5375 65.1253 25.9978C59.8856 33.1303 55.7911 40.6073 52.8203 48.286L33.8398 48.286ZM30.6249 56.286L50.1498 56.286C48.2642 62.9745 47.1991 69.7753 46.9411 76.5985H24.1016C24.5394 69.293 26.3778 62.3649 29.3518 56.0792C29.7517 56.2133 30.1798 56.286 30.6249 56.286ZM58.5009 56.286C56.4159 62.9571 55.2361 69.7624 54.9488 76.5985H75.9472V56.286L58.5009 56.286ZM24.1859 84.5985H47.0074C47.377 91.4117 48.5451 98.2124 50.4982 104.911H30.6249C30.3658 104.911 30.1125 104.936 29.8672 104.983C26.7598 98.7589 24.7773 91.8754 24.1859 84.5985ZM55.0187 84.5985C55.4232 91.4129 56.7072 98.2177 58.8582 104.911H75.9472V84.5985H55.0187ZM34.6858 112.911H53.2242C56.0212 120.068 59.7343 127.064 64.3463 133.784C52.2814 130.278 41.8971 122.823 34.6858 112.911ZM61.8667 112.911C65.2899 120.838 69.9608 128.543 75.8574 135.85L75.9472 135.856V112.911H61.8667ZM75.9472 25.207C69.7375 32.509 64.9185 40.2654 61.4665 48.286L75.9472 48.286V25.207Z" fill="white"/>
</clipPath>
<g clip-path="url(#mask0_5481_122260)">
<g clip-path="url(#clip0_5481_122260)">
<rect width="160" height="160" rx="10" fill="#D9F4FD"/>
<circle cx="142.62" cy="105.187" r="231.011" fill="url(#paint0_radial_5481_122260)"/>
<path d="M-14.3999 50.1137C-16.9679 -5.18932 25.7823 -52.103 81.0853 -54.6709C136.388 -57.2388 183.302 -14.4887 185.87 40.8143C188.438 96.1173 145.688 143.031 90.3846 145.599C35.0817 148.167 -11.832 105.417 -14.3999 50.1137Z" fill="url(#paint1_linear_5481_122260)"/>
<path d="M40.4184 -110.716C27.9428 -118.436 12.1362 -118.483 -0.385738 -110.838L-125.628 -34.3691C-137.894 -26.8797 -137.914 -9.20217 -125.665 -1.68455L-1.25042 74.676C11.2528 82.3487 27.0594 82.3396 39.5518 74.6486L163.71 -1.78335C175.895 -9.28493 175.917 -26.8637 163.748 -34.3936L40.4184 -110.716Z" fill="url(#paint2_linear_5481_122260)"/>
<path d="M-79.7631 76.5289C-53.9489 76.5289 -30.5656 86.9766 -13.6359 103.831C20.2235 137.599 48.2951 137.628 82.1545 103.918C99.0842 86.9766 122.496 76.5 148.34 76.5C199.997 76.5289 241.844 118.262 241.844 169.779C241.844 221.296 199.997 263 148.34 263C122.439 263 99.0263 252.495 82.0966 235.553C48.2661 201.901 20.2235 201.93 -13.6359 235.697C-30.5656 252.581 -53.9489 263 -79.7631 263C-131.392 263 -173.238 221.267 -173.238 169.779C-173.238 118.291 -131.392 76.5289 -79.7631 76.5289Z" fill="url(#paint3_linear_5481_122260)"/>
</g>
</g>

</svg>
