<svg width="96" height="96" viewBox="0 0 96 96" xmlns="http://www.w3.org/2000/svg">
  <defs>
<radialGradient id="paint0_radial_5481_122589" cx="0" cy="0" r="1" gradientUnits="userSpaceOnUse" gradientTransform="translate(85.5714 63.1124) rotate(90) scale(138.607)">
<stop offset="0.0885417" stop-color="#EB1000"/>
<stop offset="1" stop-color="#EB1000" stop-opacity="0"/>
</radialGradient>
<linearGradient id="paint1_linear_5481_122589" x1="69.4617" y1="-3.08825" x2="13.8656" y2="68.9935" gradientUnits="userSpaceOnUse">
<stop stop-color="#FF4885"/>
<stop offset="1" stop-color="#FF4885" stop-opacity="0"/>
</linearGradient>
<linearGradient id="paint2_linear_5481_122589" x1="35.5898" y1="-36.2716" x2="46.3146" y2="32.3671" gradientUnits="userSpaceOnUse">
<stop offset="0.15625" stop-color="#7A6AFD"/>
<stop offset="1" stop-color="#7A6AFD" stop-opacity="0"/>
</linearGradient>
<linearGradient id="paint3_linear_5481_122589" x1="-88.1609" y1="101.725" x2="92.2907" y2="66.0615" gradientUnits="userSpaceOnUse">
<stop stop-color="#30A7FE" stop-opacity="0"/>
<stop offset="0.432292" stop-color="#30A7FE" stop-opacity="0.994652"/>
<stop offset="0.609375" stop-color="#30A7FE"/>
<stop offset="1" stop-color="#30A7FE" stop-opacity="0"/>
</linearGradient>
<clipPath id="clip0_5481_122589">
<rect width="96" height="96" rx="10" fill="white"/>
</clipPath>
</defs>
<clipPath id="mask0_5481_122589">
<path d="M47.9976 32.7775C46.8931 32.7775 45.9976 31.8821 45.9976 30.7775V23.7656C45.9976 23.6525 46.007 23.5416 46.0251 23.4336C41.4262 23.7066 37.0825 24.9281 33.1871 26.9052C33.2526 26.9861 33.3127 27.0732 33.3664 27.1662L36.8724 33.2388C37.4247 34.1953 37.0969 35.4185 36.1403 35.9708C35.1838 36.5231 33.9606 36.1953 33.4083 35.2388L29.9023 29.1662C29.8531 29.081 29.8108 28.9936 29.7754 28.9047C26.0705 31.388 22.9003 34.6072 20.474 38.353C20.5168 38.3738 20.5593 38.3963 20.6012 38.4205L26.6737 41.9265C27.6303 42.4788 27.958 43.7019 27.4057 44.6585C26.8535 45.6151 25.6303 45.9429 24.6737 45.3906L18.6012 41.8846C18.5707 41.867 18.5409 41.8488 18.5118 41.8299C16.6255 45.708 15.4818 50.0139 15.2656 54.5627H22.2476C23.3522 54.5627 24.2476 55.4581 24.2476 56.5627C24.2476 57.6673 23.3522 58.5627 22.2476 58.5627H15.316C15.6493 63.1333 16.9201 67.4438 18.937 71.3026C19.5815 72.5357 20.8895 73.2502 22.2808 73.2502H73.7144C75.1058 73.2502 76.4138 72.5357 77.0583 71.3026C79.0751 67.4438 80.3459 63.1333 80.6793 58.5627H73.806C72.7014 58.5627 71.806 57.6673 71.806 56.5627C71.806 55.4581 72.7014 54.5627 73.806 54.5627H80.7296C80.2227 43.8973 74.617 34.5672 66.2962 28.9561C66.2655 29.0273 66.2303 29.0974 66.1906 29.1662L62.6846 35.2388C62.1324 36.1953 60.9092 36.5231 59.9526 35.9708C58.996 35.4185 58.6683 34.1953 59.2205 33.2388L62.7265 27.1662C62.7725 27.0866 62.8231 27.0114 62.8778 26.9406C58.9645 24.9427 54.5965 23.7083 49.9702 23.4336C49.9883 23.5416 49.9976 23.6525 49.9976 23.7656V30.7775C49.9976 31.8821 49.1022 32.7775 47.9976 32.7775ZM71.6128 38.6314C72.5455 39.5641 72.5849 41.0637 71.7024 42.0441L49.9171 66.2447C48.3111 68.0288 45.5374 68.1016 43.84 66.4042C42.1426 64.7068 42.2154 61.9331 43.9995 60.3271L68.2001 38.5418C69.1805 37.6593 70.6801 37.6987 71.6128 38.6314Z" fill="#D9D9D9"/>
</clipPath>
<g clip-path="url(#mask0_5481_122589)">
<g clip-path="url(#clip0_5481_122589)">
<rect width="96" height="96" rx="10" fill="#D9F4FD"/>
<circle cx="85.5714" cy="63.1124" r="138.607" fill="url(#paint0_radial_5481_122589)"/>
<path d="M-8.63919 30.067C-10.18 -3.11477 15.4702 -31.263 48.652 -32.8037C81.8337 -34.3445 109.982 -8.69438 111.523 24.4874C113.063 57.6692 87.4133 85.8174 54.2316 87.3582C21.0498 88.8989 -7.09842 63.2488 -8.63919 30.067Z" fill="url(#paint1_linear_5481_122589)"/>
<path d="M24.2526 -66.43C16.7672 -71.0619 7.28331 -71.0903 -0.22988 -66.5032L-75.3753 -20.6218C-82.7348 -16.1282 -82.7471 -5.52169 -75.3976 -1.01111L-0.748691 44.8052C6.75324 49.4089 16.2372 49.4034 23.7327 44.7888L98.2278 -1.0704C105.538 -5.57135 105.552 -16.1186 98.2501 -20.6366L24.2526 -66.43Z" fill="url(#paint2_linear_5481_122589)"/>
<path d="M-47.8586 45.9177C-32.3701 45.9177 -18.3401 52.1863 -8.18231 62.2992C12.1334 82.5597 28.9763 82.577 49.2919 62.3512C59.4498 52.1863 73.4971 45.9004 89.003 45.9004C119.997 45.9177 145.105 70.9575 145.105 101.868C145.105 132.778 119.997 157.8 89.003 157.8C73.4624 157.8 59.415 151.497 49.2572 141.332C28.9589 121.141 12.1334 121.158 -8.18231 141.419C-18.3401 151.549 -32.3701 157.8 -47.8586 157.8C-78.8357 157.8 -103.944 132.761 -103.944 101.868C-103.944 70.9749 -78.8357 45.9177 -47.8586 45.9177Z" fill="url(#paint3_linear_5481_122589)"/>
</g>
</g>

</svg>
