<svg width="48" height="48" viewBox="0 0 48 48" xmlns="http://www.w3.org/2000/svg">
  <defs>
<radialGradient id="paint0_radial_5481_122362" cx="0" cy="0" r="1" gradientUnits="userSpaceOnUse" gradientTransform="translate(42.7877 31.5552) rotate(90) scale(69.3033)">
<stop offset="0.0885417" stop-color="#EB1000"/>
<stop offset="1" stop-color="#EB1000" stop-opacity="0"/>
</radialGradient>
<linearGradient id="paint1_linear_5481_122362" x1="34.7309" y1="-1.54315" x2="6.93278" y2="34.4977" gradientUnits="userSpaceOnUse">
<stop stop-color="#FF4885"/>
<stop offset="1" stop-color="#FF4885" stop-opacity="0"/>
</linearGradient>
<linearGradient id="paint2_linear_5481_122362" x1="17.7929" y1="-18.1348" x2="23.1553" y2="16.1845" gradientUnits="userSpaceOnUse">
<stop offset="0.15625" stop-color="#7A6AFD"/>
<stop offset="1" stop-color="#7A6AFD" stop-opacity="0"/>
</linearGradient>
<linearGradient id="paint3_linear_5481_122362" x1="-44.0785" y1="50.8616" x2="46.1473" y2="33.0298" gradientUnits="userSpaceOnUse">
<stop stop-color="#30A7FE" stop-opacity="0"/>
<stop offset="0.432292" stop-color="#30A7FE" stop-opacity="0.994652"/>
<stop offset="0.609375" stop-color="#30A7FE"/>
<stop offset="1" stop-color="#30A7FE" stop-opacity="0"/>
</linearGradient>
<clipPath id="clip0_5481_122362">
<rect width="48" height="48" rx="10" fill="white"/>
</clipPath>
</defs>
<clipPath id="mask0_5481_122362">
<path fill-rule="evenodd" d="M19.274 37.6144C20.8446 38.1991 22.5041 38.5 24.1808 38.5L24.1751 38.4943H31.1569C31.1713 38.4943 31.1999 38.4914 31.1999 38.4914H33.1346C33.8511 38.4914 34.5934 38.2936 35.1666 37.8551C35.7485 37.408 36.1354 36.723 36.1354 35.8001C36.1354 35.502 36.0924 34.9747 35.8373 34.4588C35.7169 34.2094 35.545 33.9658 35.31 33.7537C36.5051 33.6849 37.514 32.8193 37.7576 31.6356C37.9783 30.5608 37.5169 29.529 36.7029 28.9443C37.8121 28.6692 38.6519 27.6947 38.712 26.5053C38.7608 25.5422 38.2907 24.6824 37.5513 24.178C38.6003 23.8627 39.3799 22.9169 39.44 21.7704C39.5174 20.2543 38.3079 18.9817 36.7889 18.9817H28.844C28.4112 18.9817 28.1017 18.5604 28.2306 18.1477L28.8039 16.3076C29.3169 14.6624 29.6436 12.9657 29.7841 11.2489L29.8643 10.2543C29.9847 8.77256 28.8125 7.5 27.3221 7.5C26.339 7.5 25.4448 8.06749 25.0206 8.95312L22.3522 14.5421C22.1029 15.0637 21.8162 15.5653 21.4952 16.0439L21.4293 16.1442C19.9186 18.3923 17.5525 19.8856 14.9231 20.3105V36.1388C15.5485 36.2747 16.1644 36.4554 16.7661 36.68L19.274 37.6144ZM12.4231 35.8365V20.4348H11.7074C9.96482 20.4348 8.55469 21.845 8.55469 23.5876V32.6789C8.55469 34.4215 9.96482 35.8316 11.7074 35.8316H12.06C12.1811 35.8316 12.3022 35.8333 12.4231 35.8365Z" fill="white"/>
</clipPath>
<g clip-path="url(#mask0_5481_122362)">
<g clip-path="url(#clip0_5481_122362)">
<rect width="48" height="48" rx="10" fill="#D9F4FD"/>
<circle cx="42.7877" cy="31.5552" r="69.3033" fill="url(#paint0_radial_5481_122362)"/>
<path d="M-4.31959 15.0345C-5.08998 -1.55641 7.73508 -15.6305 24.326 -16.4009C40.9169 -17.1713 54.991 -4.34621 55.7613 12.2447C56.5317 28.8356 43.7067 42.9097 27.1158 43.6801C10.5249 44.4504 -3.54921 31.6254 -4.31959 15.0345Z" fill="url(#paint1_linear_5481_122362)"/>
<path d="M12.1243 -33.214C8.38167 -35.53 3.6397 -35.5442 -0.116893 -33.2506L-37.6896 -10.3099C-41.3694 -8.06314 -41.3755 -2.75987 -37.7007 -0.504581L-0.376298 22.4036C3.37467 24.7054 8.11665 24.7027 11.8644 22.3954L49.1119 -0.534222C52.7672 -2.7847 52.7739 -8.05833 49.1231 -10.3173L12.1243 -33.214Z" fill="url(#paint2_linear_5481_122362)"/>
<path d="M-23.9274 22.9579C-16.1831 22.9579 -9.16812 26.0922 -4.0892 31.1486C6.06863 41.2789 14.4901 41.2875 24.6479 31.1746C29.7268 26.0922 36.7505 22.9492 44.5034 22.9492C60.0006 22.9579 72.5547 35.4778 72.5547 50.9329C72.5547 66.388 60.0006 78.8992 44.5034 78.8992C36.7331 78.8992 29.7095 75.7476 24.6306 70.6652C14.4814 60.5696 6.06863 60.5782 -4.0892 70.7085C-9.16812 75.7736 -16.1831 78.8992 -23.9274 78.8992C-39.4159 78.8992 -51.9699 66.3793 -51.9699 50.9329C-51.9699 35.4865 -39.4159 22.9579 -23.9274 22.9579Z" fill="url(#paint3_linear_5481_122362)"/>
</g>
</g>

</svg>
