<svg width="96" height="96" viewBox="0 0 96 96" xmlns="http://www.w3.org/2000/svg">
  <defs>
<radialGradient id="paint0_radial_5481_122580" cx="0" cy="0" r="1" gradientUnits="userSpaceOnUse" gradientTransform="translate(85.5714 63.1124) rotate(90) scale(138.607)">
<stop offset="0.0885417" stop-color="#EB1000"/>
<stop offset="1" stop-color="#EB1000" stop-opacity="0"/>
</radialGradient>
<linearGradient id="paint1_linear_5481_122580" x1="69.4617" y1="-3.08825" x2="13.8656" y2="68.9935" gradientUnits="userSpaceOnUse">
<stop stop-color="#FF4885"/>
<stop offset="1" stop-color="#FF4885" stop-opacity="0"/>
</linearGradient>
<linearGradient id="paint2_linear_5481_122580" x1="35.5898" y1="-36.2716" x2="46.3146" y2="32.3671" gradientUnits="userSpaceOnUse">
<stop offset="0.15625" stop-color="#7A6AFD"/>
<stop offset="1" stop-color="#7A6AFD" stop-opacity="0"/>
</linearGradient>
<linearGradient id="paint3_linear_5481_122580" x1="-88.1609" y1="101.725" x2="92.2907" y2="66.0615" gradientUnits="userSpaceOnUse">
<stop stop-color="#30A7FE" stop-opacity="0"/>
<stop offset="0.432292" stop-color="#30A7FE" stop-opacity="0.994652"/>
<stop offset="0.609375" stop-color="#30A7FE"/>
<stop offset="1" stop-color="#30A7FE" stop-opacity="0"/>
</linearGradient>
<clipPath id="clip0_5481_122580">
<rect width="96" height="96" rx="10" fill="white"/>
</clipPath>
</defs>
<clipPath id="mask0_5481_122580">
<path fill-rule="evenodd" d="M55.3672 34.1836C55.3672 37.8571 54.3347 41.2894 52.544 44.2061C52.2929 44.3137 52.0444 44.4234 51.7992 44.5351L46.205 34.4656L46.1725 34.4112C44.193 31.0997 39.5584 28.4852 35.0177 30.9468C30.6923 33.2916 29.3783 38.9216 31.7742 42.9629L37.5286 53.3208C37.0842 53.3515 36.6357 53.3672 36.1836 53.3672C25.5888 53.3672 17 44.7784 17 34.1836C17 23.5888 25.5888 15 36.1836 15C46.7784 15 55.3672 23.5888 55.3672 34.1836ZM42.7393 36.4638L49.2669 48.2135L49.9668 49.4732C50.112 49.7345 50.4506 49.8118 50.7015 49.6493C53.8382 47.618 60.0227 45.4637 63.7393 45.4637C73.6804 45.4637 79.2393 53.1568 79.2393 63.0979C79.2393 73.039 71.283 81.0979 61.3418 81.0979C52.1218 81.0979 38.4115 74.1006 34.0778 71.8888C33.7389 71.7159 33.4573 71.5722 33.2397 71.4634C30.2399 69.9634 29.5645 67.9181 30.2396 65.4634C30.9281 62.9601 33.5205 61.6902 36.2396 62.4634C38.9036 63.2209 41.8764 64.5019 44.6774 65.7089C46.1995 66.3648 47.6708 66.9988 49.0144 67.5151C49.4424 67.6796 49.8281 67.2234 49.6054 66.8226L41.6854 52.5666L35.2393 40.9636L35.2391 40.9633C33.9107 38.7777 34.6755 35.6822 36.924 34.4633C38.9395 33.3707 41.292 34.3143 42.5699 36.1981C42.6287 36.2847 42.6852 36.3733 42.7393 36.4638Z" fill="white"/>
</clipPath>
<g clip-path="url(#mask0_5481_122580)">
<g clip-path="url(#clip0_5481_122580)">
<rect width="96" height="96" rx="10" fill="#D9F4FD"/>
<circle cx="85.5714" cy="63.1124" r="138.607" fill="url(#paint0_radial_5481_122580)"/>
<path d="M-8.63919 30.067C-10.18 -3.11477 15.4702 -31.263 48.652 -32.8037C81.8337 -34.3445 109.982 -8.69438 111.523 24.4874C113.063 57.6692 87.4133 85.8174 54.2316 87.3582C21.0498 88.8989 -7.09842 63.2488 -8.63919 30.067Z" fill="url(#paint1_linear_5481_122580)"/>
<path d="M24.2526 -66.43C16.7672 -71.0619 7.28331 -71.0903 -0.22988 -66.5032L-75.3753 -20.6218C-82.7348 -16.1282 -82.7471 -5.52169 -75.3976 -1.01111L-0.748691 44.8052C6.75324 49.4089 16.2372 49.4034 23.7327 44.7888L98.2278 -1.0704C105.538 -5.57135 105.552 -16.1186 98.2501 -20.6366L24.2526 -66.43Z" fill="url(#paint2_linear_5481_122580)"/>
<path d="M-47.8586 45.9177C-32.3701 45.9177 -18.3401 52.1863 -8.18231 62.2992C12.1334 82.5597 28.9763 82.577 49.2919 62.3512C59.4498 52.1863 73.4971 45.9004 89.003 45.9004C119.997 45.9177 145.105 70.9575 145.105 101.868C145.105 132.778 119.997 157.8 89.003 157.8C73.4624 157.8 59.415 151.497 49.2572 141.332C28.9589 121.141 12.1334 121.158 -8.18231 141.419C-18.3401 151.549 -32.3701 157.8 -47.8586 157.8C-78.8357 157.8 -103.944 132.761 -103.944 101.868C-103.944 70.9749 -78.8357 45.9177 -47.8586 45.9177Z" fill="url(#paint3_linear_5481_122580)"/>
</g>
</g>

</svg>
