<svg width="96" height="96" viewBox="0 0 96 96" xmlns="http://www.w3.org/2000/svg">
  <defs>
<radialGradient id="paint0_radial_5481_122567" cx="0" cy="0" r="1" gradientUnits="userSpaceOnUse" gradientTransform="translate(85.5714 63.1124) rotate(90) scale(138.607)">
<stop offset="0.0885417" stop-color="#EB1000"/>
<stop offset="1" stop-color="#EB1000" stop-opacity="0"/>
</radialGradient>
<linearGradient id="paint1_linear_5481_122567" x1="69.4617" y1="-3.08825" x2="13.8656" y2="68.9935" gradientUnits="userSpaceOnUse">
<stop stop-color="#FF4885"/>
<stop offset="1" stop-color="#FF4885" stop-opacity="0"/>
</linearGradient>
<linearGradient id="paint2_linear_5481_122567" x1="35.5898" y1="-36.2716" x2="46.3146" y2="32.3671" gradientUnits="userSpaceOnUse">
<stop offset="0.15625" stop-color="#7A6AFD"/>
<stop offset="1" stop-color="#7A6AFD" stop-opacity="0"/>
</linearGradient>
<linearGradient id="paint3_linear_5481_122567" x1="-88.1609" y1="101.725" x2="92.2907" y2="66.0615" gradientUnits="userSpaceOnUse">
<stop stop-color="#30A7FE" stop-opacity="0"/>
<stop offset="0.432292" stop-color="#30A7FE" stop-opacity="0.994652"/>
<stop offset="0.609375" stop-color="#30A7FE"/>
<stop offset="1" stop-color="#30A7FE" stop-opacity="0"/>
</linearGradient>
<clipPath id="clip0_5481_122567">
<rect width="96" height="96" rx="10" fill="white"/>
</clipPath>
</defs>
<clipPath id="mask0_5481_122567">
<path fill-rule="evenodd" d="M44.1244 18.4642C41.8455 20.1999 40.2568 22.9275 39.3452 25.4333L36.0128 36.2908H53.1959C53.9233 36.2908 54.5934 36.6858 54.9457 37.3222L61.7214 49.5628C66.3019 44.9859 70.9565 40.3368 74.442 36.8561C75.2236 36.0756 76.4899 36.0765 77.2704 36.8581C78.0509 37.6397 78.05 38.906 77.2685 39.6865C73.5769 43.3729 68.574 48.3701 63.7368 53.2036L71.2681 66.8093C71.8031 67.7756 71.4533 68.9927 70.4869 69.5277C69.5205 70.0626 68.3035 69.7128 67.7685 68.7465L60.7932 56.1453L58.8229 58.1147C55.7622 61.1741 53.0097 63.9269 51.0164 65.9228C50.0196 66.9209 49.2133 67.7291 48.6534 68.2915C48.3733 68.573 48.1561 68.7916 48.008 68.9414C47.9336 69.0166 47.8788 69.0722 47.8431 69.1088L47.8226 69.1298C47.1363 69.8809 45.9785 70.0019 45.1477 69.3788C44.264 68.7161 44.085 67.4625 44.7477 66.5788C44.7987 66.5108 44.8449 66.4589 44.8514 66.4517L44.8514 66.4516L44.852 66.451C44.8668 66.4343 44.8792 66.4208 44.8859 66.4135C44.9 66.3983 44.9131 66.3846 44.9215 66.3757L44.944 66.3524L44.9825 66.3129C45.0267 66.2676 45.0881 66.2053 45.1641 66.1285C45.3168 65.9741 45.5376 65.7518 45.8185 65.4696C46.3807 64.9048 47.1889 64.0947 48.1861 63.0962C50.1807 61.099 52.9342 58.3453 55.995 55.2857L58.7778 52.5043L52.017 40.2908H34.7851L22.0531 81.7741C21.729 82.8301 20.6103 83.4234 19.5543 83.0993C18.4984 82.7752 17.9051 81.6565 18.2292 80.6005L30.601 40.2908H22.4786C21.374 40.2908 20.4786 39.3954 20.4786 38.2908C20.4786 37.1863 21.374 36.2908 22.4786 36.2908H31.8287L35.5359 24.212C35.5454 24.181 35.5557 24.1502 35.5667 24.1197C36.6263 21.1844 38.5798 17.6591 41.7008 15.2821C44.931 12.8219 49.2614 11.718 54.6097 13.5068C55.6572 13.8571 56.2224 14.9903 55.8721 16.0378C55.5217 17.0854 54.3885 17.6506 53.341 17.3002C49.2567 15.9342 46.3076 16.8014 44.1244 18.4642ZM47.8112 69.1415L47.8154 69.1372C47.789 69.1661 47.781 69.1731 47.8112 69.1415Z" fill="white"/>
</clipPath>
<g clip-path="url(#mask0_5481_122567)">
<g clip-path="url(#clip0_5481_122567)">
<rect width="96" height="96" rx="10" fill="#D9F4FD"/>
<circle cx="85.5714" cy="63.1124" r="138.607" fill="url(#paint0_radial_5481_122567)"/>
<path d="M-8.63919 30.067C-10.18 -3.11477 15.4702 -31.263 48.652 -32.8037C81.8337 -34.3445 109.982 -8.69438 111.523 24.4874C113.063 57.6692 87.4133 85.8174 54.2316 87.3582C21.0498 88.8989 -7.09842 63.2488 -8.63919 30.067Z" fill="url(#paint1_linear_5481_122567)"/>
<path d="M24.2526 -66.43C16.7672 -71.0619 7.28331 -71.0903 -0.22988 -66.5032L-75.3753 -20.6218C-82.7348 -16.1282 -82.7471 -5.52169 -75.3976 -1.01111L-0.748691 44.8052C6.75324 49.4089 16.2372 49.4034 23.7327 44.7888L98.2278 -1.0704C105.538 -5.57135 105.552 -16.1186 98.2501 -20.6366L24.2526 -66.43Z" fill="url(#paint2_linear_5481_122567)"/>
<path d="M-47.8586 45.9177C-32.3701 45.9177 -18.3401 52.1863 -8.18231 62.2992C12.1334 82.5597 28.9763 82.577 49.2919 62.3512C59.4498 52.1863 73.4971 45.9004 89.003 45.9004C119.997 45.9177 145.105 70.9575 145.105 101.868C145.105 132.778 119.997 157.8 89.003 157.8C73.4624 157.8 59.415 151.497 49.2572 141.332C28.9589 121.141 12.1334 121.158 -8.18231 141.419C-18.3401 151.549 -32.3701 157.8 -47.8586 157.8C-78.8357 157.8 -103.944 132.761 -103.944 101.868C-103.944 70.9749 -78.8357 45.9177 -47.8586 45.9177Z" fill="url(#paint3_linear_5481_122567)"/>
</g>
</g>

</svg>
