<svg width="48" height="48" viewBox="0 0 48 48" xmlns="http://www.w3.org/2000/svg">
  <defs>
<radialGradient id="paint0_radial_5481_122314" cx="0" cy="0" r="1" gradientUnits="userSpaceOnUse" gradientTransform="translate(39.8025 31.3219) rotate(90) scale(58.9078 62.49)">
<stop offset="0.0885417" stop-color="#EB1000"/>
<stop offset="1" stop-color="#EB1000" stop-opacity="0"/>
</radialGradient>
<linearGradient id="paint1_linear_5481_122314" x1="32.5371" y1="3.18735" x2="9.29788" y2="35.1498" gradientUnits="userSpaceOnUse">
<stop stop-color="#FF4885"/>
<stop offset="1" stop-color="#FF4885" stop-opacity="0"/>
</linearGradient>
<linearGradient id="paint2_linear_5481_122314" x1="17.2659" y1="-10.9146" x2="21.5741" y2="18.3345" gradientUnits="userSpaceOnUse">
<stop offset="0.15625" stop-color="#7A6AFD"/>
<stop offset="1" stop-color="#7A6AFD" stop-opacity="0"/>
</linearGradient>
<linearGradient id="paint3_linear_5481_122314" x1="-38.5224" y1="47.7333" x2="42.4518" y2="30.7568" gradientUnits="userSpaceOnUse">
<stop stop-color="#30A7FE" stop-opacity="0"/>
<stop offset="0.432292" stop-color="#30A7FE" stop-opacity="0.994652"/>
<stop offset="0.609375" stop-color="#30A7FE"/>
<stop offset="1" stop-color="#30A7FE" stop-opacity="0"/>
</linearGradient>
<clipPath id="clip0_5481_122314">
<rect x="1.22266" y="4.5" width="43.2811" height="40.8" rx="10" fill="white"/>
</clipPath>
</defs>
<clipPath id="mask0_5481_122314">
<path fill-rule="evenodd" d="M7.26328 40.8H40.8003C41.4633 40.8 42.0003 41.337 42.0003 42C42.0003 42.663 41.4633 43.2 40.8003 43.2H6.06328C5.40028 43.2 4.86328 42.663 4.86328 42V7.2C4.86328 6.537 5.40028 6 6.06328 6C6.72628 6 7.26328 6.537 7.26328 7.2V40.8ZM13.2 21.315H14.4C15.7255 21.315 16.8 22.3895 16.8 23.715V34.8C16.8 36.1255 15.7255 37.2 14.4 37.2H13.2C11.8745 37.2 10.8 36.1255 10.8 34.8V23.715C10.8 22.3895 11.8745 21.315 13.2 21.315ZM36 28.8H34.8C33.4745 28.8 32.4 29.8745 32.4 31.2V34.8C32.4 36.1255 33.4745 37.2 34.8 37.2H36C37.3255 37.2 38.4 36.1255 38.4 34.8V31.2C38.4 29.8745 37.3255 28.8 36 28.8ZM24 12H25.2C26.5255 12 27.6 13.0745 27.6 14.4V34.8C27.6 36.1255 26.5255 37.2 25.2 37.2H24C22.6745 37.2 21.6 36.1255 21.6 34.8V14.4C21.6 13.0745 22.6745 12 24 12Z" fill="white"/>
</clipPath>
<g clip-path="url(#mask0_5481_122314)">
<g clip-path="url(#clip0_5481_122314)">
<rect x="1.22266" y="4.5" width="43.2811" height="40.8" rx="10" fill="#D9F4FD"/>
<ellipse cx="39.8025" cy="31.3219" rx="62.49" ry="58.9078" fill="url(#paint0_radial_5481_122314)"/>
<path d="M-2.67429 17.2783C-3.36894 3.17608 8.19528 -8.78691 23.1551 -9.44173C38.1149 -10.0966 50.8054 0.804745 51.5 14.907C52.1947 29.0093 40.6305 40.9722 25.6706 41.6271C10.7108 42.2819 -1.97965 31.3806 -2.67429 17.2783Z" fill="url(#paint1_linear_5481_122314)"/>
<path d="M12.1546 -23.7319C8.77991 -25.7005 4.50412 -25.7125 1.11684 -23.763L-32.7621 -4.26345C-36.0801 -2.35367 -36.0856 2.15411 -32.7721 4.0711L0.882941 23.543C4.26515 25.4996 8.54094 25.4973 11.9202 23.5361L45.5059 4.04591C48.8019 2.13301 48.8079 -2.34958 45.516 -4.26971L12.1546 -23.7319Z" fill="url(#paint2_linear_5481_122314)"/>
<path d="M-20.3523 24.0152C-13.3694 24.0152 -7.04404 26.6793 -2.46444 30.9773C6.69477 39.588 14.2883 39.5954 23.4475 30.9994C28.0271 26.6793 34.3603 24.0078 41.351 24.0078C55.3247 24.0152 66.6445 34.6571 66.6445 47.7939C66.6445 60.9307 55.3247 71.5653 41.351 71.5653C34.3446 71.5653 28.0115 68.8864 23.4319 64.5664C14.2805 55.9851 6.69477 55.9925 -2.46444 64.6032C-7.04404 68.9085 -13.3694 71.5653 -20.3523 71.5653C-34.3181 71.5653 -45.638 60.9234 -45.638 47.7939C-45.638 34.6645 -34.3181 24.0152 -20.3523 24.0152Z" fill="url(#paint3_linear_5481_122314)"/>
</g>
</g>

</svg>
