<svg width="96" height="96" viewBox="0 0 96 96" xmlns="http://www.w3.org/2000/svg">
  <defs>
<radialGradient id="paint0_radial_5481_122492" cx="0" cy="0" r="1" gradientUnits="userSpaceOnUse" gradientTransform="translate(78.2124 60.6236) rotate(90) scale(102.569 108.806)">
<stop offset="0.0885417" stop-color="#EB1000"/>
<stop offset="1" stop-color="#EB1000" stop-opacity="0"/>
</radialGradient>
<linearGradient id="paint1_linear_5481_122492" x1="65.5656" y1="11.6361" x2="25.102" y2="67.2883" gradientUnits="userSpaceOnUse">
<stop stop-color="#FF4885"/>
<stop offset="1" stop-color="#FF4885" stop-opacity="0"/>
</linearGradient>
<linearGradient id="paint2_linear_5481_122492" x1="38.9776" y1="-12.9196" x2="46.4789" y2="38.0082" gradientUnits="userSpaceOnUse">
<stop offset="0.15625" stop-color="#7A6AFD"/>
<stop offset="1" stop-color="#7A6AFD" stop-opacity="0"/>
</linearGradient>
<linearGradient id="paint3_linear_5481_122492" x1="-58.1649" y1="89.197" x2="82.8254" y2="59.6379" gradientUnits="userSpaceOnUse">
<stop stop-color="#30A7FE" stop-opacity="0"/>
<stop offset="0.432292" stop-color="#30A7FE" stop-opacity="0.994652"/>
<stop offset="0.609375" stop-color="#30A7FE"/>
<stop offset="1" stop-color="#30A7FE" stop-opacity="0"/>
</linearGradient>
<clipPath id="clip0_5481_122492">
<rect x="11.0391" y="13.9199" width="75.36" height="71.04" rx="10" fill="white"/>
</clipPath>
</defs>
<clipPath id="mask0_5481_122492">
<path fill-rule="evenodd" d="M70.5238 32.7894C70.5208 32.8539 70.5178 32.9184 70.5178 32.9814C78.5398 33.4554 84.9057 40.0914 84.9057 48.8934C84.9057 57.6954 78.0778 64.8294 69.6478 64.8294H69.5638H50.1058V44.4414L60.6058 52.8654C61.0498 53.2194 61.5778 53.3934 62.1058 53.3934C62.8078 53.3934 63.5038 53.0814 63.9778 52.4934C64.8058 51.4614 64.6378 49.9494 63.6058 49.1214L49.4038 37.7214C48.5217 37.0134 47.2618 37.0194 46.3858 37.7334L32.3877 49.1334C31.3557 49.9734 31.1998 51.4854 32.0398 52.5114C32.8798 53.5434 34.3918 53.6994 35.4178 52.8594L45.2998 44.8074V64.8294L50.0996 64.8294V81.5994C50.0996 82.9254 49.0256 83.9994 47.6996 83.9994C46.3736 83.9994 45.2996 82.9254 45.2996 81.5994V64.8294L21.8818 64.8294V64.8174C15.9118 64.7154 11.0938 59.6334 11.0938 53.3694C11.0938 48.0954 14.5138 43.6614 19.1638 42.3294C18.9538 41.3634 18.8277 40.3614 18.8277 39.3234C18.8277 31.9674 24.5337 26.0094 31.5717 26.0094C33.2937 26.0094 34.9318 26.3694 36.4318 27.0174C38.6938 19.6734 45.2818 14.3574 53.0638 14.3574C62.7118 14.3574 70.5298 22.5234 70.5298 32.5974C70.5298 32.6604 70.5268 32.7249 70.5238 32.7894Z" fill="white"/>
</clipPath>
<g clip-path="url(#mask0_5481_122492)">
<g clip-path="url(#clip0_5481_122492)">
<rect x="11.0391" y="13.9199" width="75.36" height="71.04" rx="10" fill="#D9F4FD"/>
<ellipse cx="78.2124" cy="60.6236" rx="108.806" ry="102.569" fill="url(#paint0_radial_5481_122492)"/>
<path d="M4.25636 36.171C3.04686 11.6164 23.1822 -9.21323 49.2299 -10.3534C75.2776 -11.4936 97.3739 7.48752 98.5834 32.0421C99.7929 56.5966 79.6576 77.4262 53.6099 78.5664C27.5622 79.7066 5.46586 60.7255 4.25636 36.171Z" fill="url(#paint1_linear_5481_122492)"/>
<path d="M30.0779 -35.2368C24.2019 -38.6645 16.757 -38.6854 10.8591 -35.291L-48.13 -1.33878C-53.9073 1.98648 -53.9169 9.83532 -48.1475 13.1731L10.4519 47.0772C16.3409 50.4839 23.7858 50.4799 29.6697 47.0651L88.1484 13.1293C93.8873 9.79858 93.8977 1.9936 88.1659 -1.34968L30.0779 -35.2368Z" fill="url(#paint2_linear_5481_122492)"/>
<path d="M-26.5276 47.8995C-14.3691 47.8995 -3.35561 52.5383 4.61829 60.0219C20.5661 75.0146 33.7878 75.0274 49.7356 60.0603C57.7095 52.5383 68.7366 47.8867 80.9088 47.8867C105.239 47.8995 124.949 66.429 124.949 89.3025C124.949 112.176 105.239 130.693 80.9088 130.693C68.7094 130.693 57.6822 126.028 49.7083 118.506C33.7741 103.565 20.5661 103.578 4.61829 118.57C-3.35561 126.067 -14.3691 130.693 -26.5276 130.693C-50.8446 130.693 -70.5544 112.163 -70.5544 89.3025C-70.5544 66.4418 -50.8446 47.8995 -26.5276 47.8995Z" fill="url(#paint3_linear_5481_122492)"/>
</g>
</g>

</svg>
