<svg width="48" height="48" viewBox="0 0 48 48" xmlns="http://www.w3.org/2000/svg">
  <defs>
<radialGradient id="paint0_radial_5481_122348" cx="0" cy="0" r="1" gradientUnits="userSpaceOnUse" gradientTransform="translate(42.7877 31.5552) rotate(90) scale(69.3033)">
<stop offset="0.0885417" stop-color="#EB1000"/>
<stop offset="1" stop-color="#EB1000" stop-opacity="0"/>
</radialGradient>
<linearGradient id="paint1_linear_5481_122348" x1="34.7309" y1="-1.54315" x2="6.93278" y2="34.4977" gradientUnits="userSpaceOnUse">
<stop stop-color="#FF4885"/>
<stop offset="1" stop-color="#FF4885" stop-opacity="0"/>
</linearGradient>
<linearGradient id="paint2_linear_5481_122348" x1="17.7929" y1="-18.1348" x2="23.1553" y2="16.1845" gradientUnits="userSpaceOnUse">
<stop offset="0.15625" stop-color="#7A6AFD"/>
<stop offset="1" stop-color="#7A6AFD" stop-opacity="0"/>
</linearGradient>
<linearGradient id="paint3_linear_5481_122348" x1="-44.0785" y1="50.8616" x2="46.1473" y2="33.0298" gradientUnits="userSpaceOnUse">
<stop stop-color="#30A7FE" stop-opacity="0"/>
<stop offset="0.432292" stop-color="#30A7FE" stop-opacity="0.994652"/>
<stop offset="0.609375" stop-color="#30A7FE"/>
<stop offset="1" stop-color="#30A7FE" stop-opacity="0"/>
</linearGradient>
<clipPath id="clip0_5481_122348">
<rect width="48" height="48" rx="10" fill="white"/>
</clipPath>
</defs>
<clipPath id="mask0_5481_122348">
<path fill-rule="evenodd" d="M39.7288 13.7281L42.8463 14.4293C44.2307 14.7401 45.1885 13.0811 44.2271 12.0383L42.0619 9.68882C41.7402 9.34001 41.6101 8.85385 41.7149 8.39119L42.4162 5.27365C42.727 3.88928 41.0679 2.93142 40.0252 3.89289L37.6757 6.058C37.3269 6.3797 36.8407 6.50982 36.3781 6.405L33.2605 5.70378C31.8762 5.39293 30.9183 7.052 31.8798 8.0948L34.0449 10.4443C34.3666 10.7931 34.4967 11.2792 34.3919 11.7419L33.6907 14.8594C33.3798 16.2438 35.0389 17.2016 36.0817 16.2402L38.4311 14.0751C38.7799 13.7534 39.2661 13.6232 39.7288 13.7281ZM5.69587 18.2168C7.25731 12.3895 13.2471 8.93125 19.0745 10.4927C21.6048 11.1707 23.6859 12.6812 25.106 14.6523C25.5096 15.2124 26.2908 15.3393 26.8509 14.9357C27.4111 14.5321 27.5379 13.7509 27.1344 13.1908C25.3897 10.7695 22.8284 8.91036 19.7216 8.07788C12.5605 6.15908 5.19985 10.4088 3.28106 17.5698C2.0603 22.1257 3.33649 26.7604 6.26791 30.0241L4.20468 30.0175C3.51432 30.0153 2.9529 30.5732 2.95071 31.2635C2.94851 31.9539 3.50638 32.5153 4.19673 32.5175L9.14482 32.5332C9.81835 32.5354 10.3725 32.0035 10.3979 31.3304L10.5783 26.5567C10.6044 25.8668 10.0663 25.2864 9.37642 25.2603C8.68655 25.2343 8.10617 25.7724 8.0801 26.4622L8.01349 28.2247C5.7069 25.5748 4.71888 21.863 5.69587 18.2168ZM32.0361 20.6309L32.0919 20.6914L32.0929 20.6924L32.5141 21.149C32.5893 21.2306 32.6458 21.3181 32.6853 21.4085C32.9618 22.0415 32.4079 22.8144 31.652 22.6436L31.0427 22.5063L31.0427 22.5063L30.3606 22.3526L30.1871 22.3135L29.4544 22.1484C29.1634 22.0834 28.8616 22.1647 28.6429 22.3653L28.0906 22.8748L27.9599 22.9953L27.4451 23.4703L27.444 23.4712L26.9874 23.8924C26.335 24.4943 25.2976 23.8942 25.4928 23.0304L25.6301 22.4211L25.6301 22.421L25.7838 21.739L25.8229 21.5654L25.988 20.8327C26.003 20.7656 26.0102 20.698 26.01 20.6309C26.0092 20.407 25.9255 20.1895 25.7712 20.0213L24.244 18.3658C23.6422 17.7134 24.2422 16.676 25.1061 16.8712L27.3037 17.3664C27.5947 17.4314 27.8965 17.3501 28.1152 17.1495L29.7706 15.6224C30.4231 15.0205 31.4604 15.6206 31.2653 16.4844L30.7701 18.6821C30.705 18.973 30.7863 19.2749 30.9869 19.4935L32.0361 20.6309ZM35.0753 20.6309H39.3892C41.5984 20.6309 43.3892 22.4217 43.3892 24.6309V39.1055C43.3892 39.7803 43.2221 40.4162 42.927 40.9739L38.0836 33.7801L38.0826 33.7787C36.9019 32.0171 34.3132 32.0213 33.1321 33.778L33.1266 33.7862L33.1266 33.7863L30.5132 37.7406L25.7033 30.3108L25.7031 30.3105L25.7029 30.3102C24.5292 28.4958 21.8719 28.4956 20.6977 30.3093L20.6967 30.3108L13.5865 41.2422V24.6309C13.5865 22.4217 15.3774 20.6309 17.5865 20.6309H22.9322L23.3651 21.1001L23.0543 22.4794L23.0541 22.4804L23.054 22.4808C22.3188 25.7404 26.2294 27.9928 28.6825 25.73L28.6826 25.73L29.7217 24.7713L31.1011 25.0821L31.1025 25.0825C33.875 25.7078 35.9188 22.972 35.0753 20.6309ZM15.3569 43.1055H26.9676L29.0087 40.017L23.6043 31.6688L23.6039 31.6682C23.4151 31.3762 22.9849 31.3762 22.7961 31.6682L22.7942 31.6711L15.3569 43.1055ZM36.008 35.1736L41.0926 42.7257C40.5758 42.9693 39.9984 43.1055 39.3892 43.1055H29.9642L35.2087 35.17C35.4024 34.8862 35.8187 34.8908 36.0061 35.1709L36.008 35.1736ZM36.0006 28.75C35.0341 28.75 34.2506 27.9665 34.2506 27C34.2506 26.0335 35.0341 25.25 36.0006 25.25C36.9671 25.25 37.7506 26.0335 37.7506 27C37.7506 27.9665 36.9671 28.75 36.0006 28.75Z" fill="white"/>
</clipPath>
<g clip-path="url(#mask0_5481_122348)">
<g clip-path="url(#clip0_5481_122348)">
<rect width="48" height="48" rx="10" fill="#D9F4FD"/>
<circle cx="42.7877" cy="31.5552" r="69.3033" fill="url(#paint0_radial_5481_122348)"/>
<path d="M-4.31959 15.0345C-5.08998 -1.55641 7.73508 -15.6305 24.326 -16.4009C40.9169 -17.1713 54.991 -4.34621 55.7613 12.2447C56.5317 28.8356 43.7067 42.9097 27.1158 43.6801C10.5249 44.4504 -3.54921 31.6254 -4.31959 15.0345Z" fill="url(#paint1_linear_5481_122348)"/>
<path d="M12.1243 -33.214C8.38167 -35.53 3.6397 -35.5442 -0.116893 -33.2506L-37.6896 -10.3099C-41.3694 -8.06314 -41.3755 -2.75987 -37.7007 -0.504581L-0.376298 22.4036C3.37467 24.7054 8.11665 24.7027 11.8644 22.3954L49.1119 -0.534222C52.7672 -2.7847 52.7739 -8.05833 49.1231 -10.3173L12.1243 -33.214Z" fill="url(#paint2_linear_5481_122348)"/>
<path d="M-23.9274 22.9579C-16.1831 22.9579 -9.16812 26.0922 -4.0892 31.1486C6.06863 41.2789 14.4901 41.2875 24.6479 31.1746C29.7268 26.0922 36.7505 22.9492 44.5034 22.9492C60.0006 22.9579 72.5547 35.4778 72.5547 50.9329C72.5547 66.388 60.0006 78.8992 44.5034 78.8992C36.7331 78.8992 29.7095 75.7476 24.6306 70.6652C14.4814 60.5696 6.06863 60.5782 -4.0892 70.7085C-9.16812 75.7736 -16.1831 78.8992 -23.9274 78.8992C-39.4159 78.8992 -51.9699 66.3793 -51.9699 50.9329C-51.9699 35.4865 -39.4159 22.9579 -23.9274 22.9579Z" fill="url(#paint3_linear_5481_122348)"/>
</g>
</g>

</svg>
