<svg width="160" height="160" viewBox="0 0 160 160" xmlns="http://www.w3.org/2000/svg">
  <defs>
<radialGradient id="paint0_radial_5481_122122" cx="0" cy="0" r="1" gradientUnits="userSpaceOnUse" gradientTransform="translate(134.028 101.474) rotate(90) scale(200.895 200.895)">
<stop offset="0.0885417" stop-color="#EB1000"/>
<stop offset="1" stop-color="#EB1000" stop-opacity="0"/>
</radialGradient>
<linearGradient id="paint1_linear_5481_122122" x1="110.677" y1="5.52542" x2="30.0966" y2="110" gradientUnits="userSpaceOnUse">
<stop stop-color="#FF4885"/>
<stop offset="1" stop-color="#FF4885" stop-opacity="0"/>
</linearGradient>
<linearGradient id="paint2_linear_5481_122122" x1="61.5811" y1="-42.5705" x2="77.1255" y2="56.9139" gradientUnits="userSpaceOnUse">
<stop offset="0.15625" stop-color="#7A6AFD"/>
<stop offset="1" stop-color="#7A6AFD" stop-opacity="0"/>
</linearGradient>
<linearGradient id="paint3_linear_5481_122122" x1="-117.778" y1="157.439" x2="143.767" y2="105.749" gradientUnits="userSpaceOnUse">
<stop stop-color="#30A7FE" stop-opacity="0"/>
<stop offset="0.432292" stop-color="#30A7FE" stop-opacity="0.994652"/>
<stop offset="0.609375" stop-color="#30A7FE"/>
<stop offset="1" stop-color="#30A7FE" stop-opacity="0"/>
</linearGradient>
<clipPath id="clip0_5481_122122">
<rect x="10" y="10" width="139.142" height="139.142" rx="10" fill="white"/>
</clipPath>
</defs>
<clipPath id="mask0_5481_122122">
<path fill-rule="evenodd" d="M59.9291 48.0803C53.3091 48.0803 47.9291 53.4603 47.9291 60.0803V64.9903L31.7891 54.8703L75.9091 27.2603C78.5191 25.6303 81.8191 25.6303 84.4191 27.2703L128.219 54.8603L112.069 64.9903V60.0803C112.069 53.4603 106.689 48.0803 100.069 48.0803H59.9291ZM59.9297 56.0803C57.7197 56.0803 55.9297 57.8703 55.9297 60.0803V70.0003L77.8797 83.7703C79.1697 84.5803 80.8397 84.5803 82.1297 83.7703L104.08 70.0003V60.0703C104.08 57.8603 102.29 56.0703 100.08 56.0703H59.9397L59.9297 56.0803ZM86.3795 90.5503C84.4395 91.7603 82.2195 92.3703 79.9995 92.3703C77.7795 92.3703 75.5595 91.7603 73.6195 90.5503L28.0195 61.9503V117.97C28.0195 126.81 35.1795 133.98 44.0195 133.98H115.98C124.82 133.98 131.98 126.81 131.98 117.97V61.9503L86.3795 90.5503Z" fill="white"/>
</clipPath>
<g clip-path="url(#mask0_5481_122122)">
<g clip-path="url(#clip0_5481_122122)">
<rect x="10" y="10" width="139.142" height="139.142" rx="10" fill="#D9F4FD"/>
<ellipse cx="134.028" cy="101.474" rx="200.895" ry="200.895" fill="url(#paint0_radial_5481_122122)"/>
<path d="M-2.5216 53.5804C-4.75477 5.48699 32.4223 -35.3108 80.5157 -37.5439C128.609 -39.7771 169.407 -2.60005 171.64 45.4934C173.873 93.5868 136.696 134.385 88.6028 136.618C40.5093 138.851 -0.288425 101.674 -2.5216 53.5804Z" fill="url(#paint1_linear_5481_122122)"/>
<path d="M45.149 -86.2817C34.2998 -92.9952 20.5539 -93.0364 9.66433 -86.3879L-99.2508 -19.8878C-109.918 -13.3748 -109.936 1.99825 -99.2832 8.53584L8.91237 74.9417C19.7856 81.6142 33.5316 81.6062 44.3955 74.9179L152.368 8.44992C162.964 1.92628 162.983 -13.3608 152.4 -19.9091L45.149 -86.2817Z" fill="url(#paint2_linear_5481_122122)"/>
<path d="M-59.3643 76.5524C-36.9153 76.5524 -16.5804 85.6381 -1.85772 100.296C27.5876 129.661 51.9996 129.686 81.445 100.371C96.1677 85.6381 116.528 76.5273 139.002 76.5273C183.925 76.5524 220.316 112.845 220.316 157.646C220.316 202.447 183.925 238.714 139.002 238.714C116.477 238.714 96.1173 229.578 81.3947 214.846C51.9745 185.581 27.5876 185.606 -1.85772 214.971C-16.5804 229.654 -36.9153 238.714 -59.3643 238.714C-104.262 238.714 -140.654 202.422 -140.654 157.646C-140.654 112.87 -104.262 76.5524 -59.3643 76.5524Z" fill="url(#paint3_linear_5481_122122)"/>
</g>
</g>

</svg>
