<svg width="48" height="48" viewBox="0 0 48 48" xmlns="http://www.w3.org/2000/svg">
  <defs>
<radialGradient id="paint0_radial_5481_122298" cx="0" cy="0" r="1" gradientUnits="userSpaceOnUse" gradientTransform="translate(41.3352 29.4309) rotate(90) scale(64.636 64.636)">
<stop offset="0.0885417" stop-color="#EB1000"/>
<stop offset="1" stop-color="#EB1000" stop-opacity="0"/>
</radialGradient>
<linearGradient id="paint1_linear_5481_122298" x1="33.8193" y1="-1.43914" x2="7.89326" y2="32.1745" gradientUnits="userSpaceOnUse">
<stop stop-color="#FF4885"/>
<stop offset="1" stop-color="#FF4885" stop-opacity="0"/>
</linearGradient>
<linearGradient id="paint2_linear_5481_122298" x1="18.0265" y1="-16.9145" x2="23.0278" y2="15.0936" gradientUnits="userSpaceOnUse">
<stop offset="0.15625" stop-color="#7A6AFD"/>
<stop offset="1" stop-color="#7A6AFD" stop-opacity="0"/>
</linearGradient>
<linearGradient id="paint3_linear_5481_122298" x1="-39.6807" y1="47.4368" x2="44.4687" y2="30.806" gradientUnits="userSpaceOnUse">
<stop stop-color="#30A7FE" stop-opacity="0"/>
<stop offset="0.432292" stop-color="#30A7FE" stop-opacity="0.994652"/>
<stop offset="0.609375" stop-color="#30A7FE"/>
<stop offset="1" stop-color="#30A7FE" stop-opacity="0"/>
</linearGradient>
<clipPath id="clip0_5481_122298">
<rect x="1.42969" width="44.7674" height="44.7674" rx="10" fill="white"/>
</clipPath>
</defs>
<clipPath id="mask0_5481_122298">
<path fill-rule="evenodd" d="M38.8469 20.4004V19.0913C38.8469 16.8771 37.0491 15.0822 34.8315 15.0822H20.7776L16.2275 9.40348C15.7195 8.76945 14.9504 8.40039 14.1372 8.40039H6.7238C5.24538 8.40039 4.04688 9.59701 4.04688 11.0731V35.5913C4.04688 35.9713 4.09982 36.3389 4.19876 36.6873C4.22835 36.1757 4.33943 35.6532 4.54289 35.1327C4.54831 35.1188 4.55385 35.105 4.55952 35.0913L9.29573 23.6086C10.0736 21.6481 11.9823 20.4004 14.0604 20.4004H38.8469ZM43.4779 22.8004C43.4779 22.8004 43.4779 22.8004 43.4779 22.8004H14.0604C12.9332 22.8004 11.9231 23.4792 11.5216 24.5064L6.7782 36.0064C6.10165 37.7372 7.40791 39.5923 9.30453 39.6004H9.31645L11.743 39.6004L38.7339 39.6004C39.8611 39.6004 40.8712 38.9216 41.2728 37.8944L46.0161 26.3944C46.6677 24.7275 45.4802 22.9455 43.6976 22.8088C43.6253 22.8032 43.5521 22.8004 43.4779 22.8004Z" fill="white"/>
</clipPath>
<g clip-path="url(#mask0_5481_122298)">
<g clip-path="url(#clip0_5481_122298)">
<rect x="1.42969" width="44.7674" height="44.7674" rx="10" fill="#D9F4FD"/>
<ellipse cx="41.3352" cy="29.4309" rx="64.636" ry="64.636" fill="url(#paint0_radial_5481_122298)"/>
<path d="M-2.6013 14.0221C-3.3198 -1.4515 8.64154 -14.5778 24.1151 -15.2963C39.5887 -16.0148 52.7149 -4.05342 53.4334 11.4201C54.1519 26.8937 42.1906 40.02 26.717 40.7385C11.2435 41.457 -1.8828 29.4956 -2.6013 14.0221Z" fill="url(#paint1_linear_5481_122298)"/>
<path d="M12.7397 -30.9781C9.24908 -33.1381 4.82647 -33.1514 1.32287 -31.0123L-33.7195 -9.61657C-37.1514 -7.52109 -37.1571 -2.57497 -33.7299 -0.47157L1.08093 20.8938C4.57928 23.0406 9.00191 23.0381 12.4972 20.8862L47.2363 -0.499215C50.6455 -2.59813 50.6517 -7.5166 47.2467 -9.62344L12.7397 -30.9781Z" fill="url(#paint2_linear_5481_122298)"/>
<path d="M-20.8867 21.4124C-13.664 21.4124 -7.12144 24.3356 -2.38456 29.0515C7.08918 38.4995 14.9435 38.5076 24.4172 29.0757C29.1541 24.3356 35.7047 21.4043 42.9356 21.4043C57.3891 21.4124 69.0977 33.0891 69.0977 47.5034C69.0977 61.9176 57.3891 73.5863 42.9356 73.5863C35.6885 73.5863 29.1379 70.6469 24.401 65.9068C14.9354 56.4911 7.08918 56.4991 -2.38456 65.9471C-7.12144 70.6711 -13.664 73.5863 -20.8867 73.5863C-35.3321 73.5863 -47.0407 61.9095 -47.0407 47.5034C-47.0407 33.0972 -35.3321 21.4124 -20.8867 21.4124Z" fill="url(#paint3_linear_5481_122298)"/>
</g>
</g>

</svg>
