<svg width="160" height="160" viewBox="0 0 160 160" xmlns="http://www.w3.org/2000/svg">
  <defs>
<radialGradient id="paint0_radial_5481_122229" cx="0" cy="0" r="1" gradientUnits="userSpaceOnUse" gradientTransform="translate(142.62 105.187) rotate(90) scale(231.011)">
<stop offset="0.0885417" stop-color="#EB1000"/>
<stop offset="1" stop-color="#EB1000" stop-opacity="0"/>
</radialGradient>
<linearGradient id="paint1_linear_5481_122229" x1="115.768" y1="-5.14512" x2="23.108" y2="114.991" gradientUnits="userSpaceOnUse">
<stop stop-color="#FF4885"/>
<stop offset="1" stop-color="#FF4885" stop-opacity="0"/>
</linearGradient>
<linearGradient id="paint2_linear_5481_122229" x1="59.3137" y1="-60.4521" x2="77.1884" y2="53.9458" gradientUnits="userSpaceOnUse">
<stop offset="0.15625" stop-color="#7A6AFD"/>
<stop offset="1" stop-color="#7A6AFD" stop-opacity="0"/>
</linearGradient>
<linearGradient id="paint3_linear_5481_122229" x1="-146.934" y1="169.541" x2="153.819" y2="110.102" gradientUnits="userSpaceOnUse">
<stop stop-color="#30A7FE" stop-opacity="0"/>
<stop offset="0.432292" stop-color="#30A7FE" stop-opacity="0.994652"/>
<stop offset="0.609375" stop-color="#30A7FE"/>
<stop offset="1" stop-color="#30A7FE" stop-opacity="0"/>
</linearGradient>
<clipPath id="clip0_5481_122229">
<rect width="160" height="160" rx="10" fill="white"/>
</clipPath>
</defs>
<clipPath id="mask0_5481_122229">
<path fill-rule="evenodd" d="M24 28C24 25.7909 25.7909 24 28 24H52.1836C54.3927 24 56.1836 25.7909 56.1836 28C56.1836 30.2091 54.3927 32 52.1836 32L37.2877 32L79.4081 74.1204L121.529 32L106.908 32C104.699 32 102.908 30.2091 102.908 28C102.908 25.7909 104.699 24 106.908 24H131.092C133.301 24 135.092 25.7909 135.092 28V52.1836C135.092 54.3927 133.301 56.1836 131.092 56.1836C128.883 56.1836 127.092 54.3927 127.092 52.1836V37.7505L85.065 79.7773L127.092 121.804V106.908C127.092 104.699 128.883 102.908 131.092 102.908C133.301 102.908 135.092 104.699 135.092 106.908V131.092C135.092 133.301 133.301 135.092 131.092 135.092H106.908C104.699 135.092 102.908 133.301 102.908 131.092C102.908 128.883 104.699 127.092 106.908 127.092H121.066L79.4081 85.4341L37.7505 127.092H52.1836C54.3927 127.092 56.1836 128.883 56.1836 131.092C56.1836 133.301 54.3927 135.092 52.1836 135.092H28C25.7909 135.092 24 133.301 24 131.092L24 106.908C24 104.699 25.7909 102.908 28 102.908C30.2091 102.908 32 104.699 32 106.908L32 121.529L73.7513 79.7773L32 38.026L32 52.1836C32 54.3927 30.2091 56.1836 28 56.1836C25.7909 56.1836 24 54.3927 24 52.1836L24 28Z" fill="white"/>
</clipPath>
<g clip-path="url(#mask0_5481_122229)">
<g clip-path="url(#clip0_5481_122229)">
<rect width="160" height="160" rx="10" fill="#D9F4FD"/>
<circle cx="142.62" cy="105.187" r="231.011" fill="url(#paint0_radial_5481_122229)"/>
<path d="M-14.3999 50.1137C-16.9679 -5.18932 25.7823 -52.103 81.0853 -54.6709C136.388 -57.2388 183.302 -14.4887 185.87 40.8143C188.438 96.1173 145.688 143.031 90.3846 145.599C35.0817 148.167 -11.832 105.417 -14.3999 50.1137Z" fill="url(#paint1_linear_5481_122229)"/>
<path d="M40.4184 -110.716C27.9428 -118.436 12.1362 -118.483 -0.385738 -110.838L-125.628 -34.3691C-137.894 -26.8797 -137.914 -9.20217 -125.665 -1.68455L-1.25042 74.676C11.2528 82.3487 27.0594 82.3396 39.5518 74.6486L163.71 -1.78335C175.895 -9.28493 175.917 -26.8637 163.748 -34.3936L40.4184 -110.716Z" fill="url(#paint2_linear_5481_122229)"/>
<path d="M-79.7631 76.5289C-53.9489 76.5289 -30.5656 86.9766 -13.6359 103.831C20.2235 137.599 48.2951 137.628 82.1545 103.918C99.0842 86.9766 122.496 76.5 148.34 76.5C199.997 76.5289 241.844 118.262 241.844 169.779C241.844 221.296 199.997 263 148.34 263C122.439 263 99.0263 252.495 82.0966 235.553C48.2661 201.901 20.2235 201.93 -13.6359 235.697C-30.5656 252.581 -53.9489 263 -79.7631 263C-131.392 263 -173.238 221.267 -173.238 169.779C-173.238 118.291 -131.392 76.5289 -79.7631 76.5289Z" fill="url(#paint3_linear_5481_122229)"/>
</g>
</g>

</svg>
