<svg width="48" height="48" viewBox="0 0 48 48" xmlns="http://www.w3.org/2000/svg">
  <defs>
<radialGradient id="paint0_radial_5481_122275" cx="0" cy="0" r="1" gradientUnits="userSpaceOnUse" gradientTransform="translate(39.1062 29.5618) rotate(90) scale(51.2844 54.4031)">
<stop offset="0.0885417" stop-color="#EB1000"/>
<stop offset="1" stop-color="#EB1000" stop-opacity="0"/>
</radialGradient>
<linearGradient id="paint1_linear_5481_122275" x1="32.7828" y1="5.06803" x2="12.551" y2="32.8941" gradientUnits="userSpaceOnUse">
<stop stop-color="#FF4885"/>
<stop offset="1" stop-color="#FF4885" stop-opacity="0"/>
</linearGradient>
<linearGradient id="paint2_linear_5481_122275" x1="19.4888" y1="-7.20982" x2="23.2394" y2="18.2541" gradientUnits="userSpaceOnUse">
<stop offset="0.15625" stop-color="#7A6AFD"/>
<stop offset="1" stop-color="#7A6AFD" stop-opacity="0"/>
</linearGradient>
<linearGradient id="paint3_linear_5481_122275" x1="-29.0844" y1="43.8485" x2="41.4108" y2="29.069" gradientUnits="userSpaceOnUse">
<stop stop-color="#30A7FE" stop-opacity="0"/>
<stop offset="0.432292" stop-color="#30A7FE" stop-opacity="0.994652"/>
<stop offset="0.609375" stop-color="#30A7FE"/>
<stop offset="1" stop-color="#30A7FE" stop-opacity="0"/>
</linearGradient>
<clipPath id="clip0_5481_122275">
<rect x="5.51953" y="6.20996" width="37.68" height="35.52" rx="10" fill="white"/>
</clipPath>
</defs>
<clipPath id="mask0_5481_122275">
<path fill-rule="evenodd" d="M10.6076 26.8653C7.2662 30.1902 7.26623 35.5835 10.6076 38.9084C13.9457 42.23 19.3554 42.23 22.6935 38.9084L36.2141 25.4544C36.6839 24.9869 36.6858 24.2272 36.2183 23.7574C35.7508 23.2876 34.991 23.2857 34.5212 23.7532L21.0006 37.2071C18.5988 39.5971 14.7023 39.5971 12.3005 37.2071C9.90194 34.8204 9.90192 30.9533 12.3004 28.5666L30.8175 10.1408C32.3466 8.61923 34.8281 8.61923 36.3572 10.1408C37.883 11.659 37.883 14.1182 36.3572 15.6364L19.7597 32.1522C19.1212 32.7875 18.0836 32.7875 17.4451 32.1522C16.8099 31.5201 16.8099 30.4978 17.4451 29.8658L29.0462 18.3219C29.516 17.8544 29.5179 17.0946 29.0504 16.6248C28.5829 16.155 27.8231 16.1532 27.3533 16.6206L15.7522 28.1645C14.1742 29.7348 14.1742 32.2832 15.7523 33.8534C17.327 35.4204 19.8778 35.4204 21.4525 33.8534L38.0501 17.3377C40.5187 14.8812 40.5187 10.896 38.0501 8.43951C35.5847 5.98631 31.59 5.98631 29.1247 8.43952L10.6076 26.8653Z" fill="white" stroke="white" stroke-width="0.6" stroke-linecap="round" stroke-linejoin="round"/>
</clipPath>
<g clip-path="url(#mask0_5481_122275)">
<g clip-path="url(#clip0_5481_122275)">
<rect x="5.51953" y="6.20996" width="37.68" height="35.52" rx="10" fill="#D9F4FD"/>
<ellipse cx="39.1062" cy="29.5618" rx="54.4031" ry="51.2844" fill="url(#paint0_radial_5481_122275)"/>
<path d="M2.12818 17.3355C1.52343 5.05821 11.5911 -5.35662 24.615 -5.9267C37.6388 -6.49678 48.687 2.99376 49.2917 15.271C49.8965 27.5483 39.8288 37.9631 26.8049 38.5332C13.7811 39.1033 2.73293 29.6127 2.12818 17.3355Z" fill="url(#paint1_linear_5481_122275)"/>
<path d="M15.0389 -18.3684C12.1009 -20.0822 8.3785 -20.0927 5.42957 -18.3955L-24.065 -1.41939C-26.9536 0.24324 -26.9584 4.16766 -24.0738 5.83657L5.22594 22.7886C8.17045 24.492 11.8929 24.4899 14.8349 22.7825L44.0742 5.81464C46.9436 4.14929 46.9489 0.246799 44.083 -1.42484L15.0389 -18.3684Z" fill="url(#paint2_linear_5481_122275)"/>
<path d="M-13.2658 23.1998C-7.18652 23.1998 -1.67976 25.5192 2.30719 29.2609C10.2811 36.7573 16.8919 36.7637 24.8658 29.2802C28.8528 25.5192 34.3664 23.1934 40.4524 23.1934C52.6177 23.1998 62.4727 32.4645 62.4727 43.9013C62.4727 55.338 52.6177 64.5964 40.4524 64.5964C34.3527 64.5964 28.8392 62.2642 24.8522 58.5032C16.8851 51.0324 10.2811 51.0388 2.30719 58.5352C-1.67976 62.2834 -7.18652 64.5964 -13.2658 64.5964C-25.4243 64.5964 -35.2792 55.3316 -35.2792 43.9013C-35.2792 32.4709 -25.4243 23.1998 -13.2658 23.1998Z" fill="url(#paint3_linear_5481_122275)"/>
</g>
</g>

</svg>
