<svg width="96" height="96" viewBox="0 0 96 96" xmlns="http://www.w3.org/2000/svg">
  <defs>
<radialGradient id="paint0_radial_5481_122520" cx="0" cy="0" r="1" gradientUnits="userSpaceOnUse" gradientTransform="translate(85.5714 63.1124) rotate(90) scale(138.607)">
<stop offset="0.0885417" stop-color="#EB1000"/>
<stop offset="1" stop-color="#EB1000" stop-opacity="0"/>
</radialGradient>
<linearGradient id="paint1_linear_5481_122520" x1="69.4617" y1="-3.08825" x2="13.8656" y2="68.9935" gradientUnits="userSpaceOnUse">
<stop stop-color="#FF4885"/>
<stop offset="1" stop-color="#FF4885" stop-opacity="0"/>
</linearGradient>
<linearGradient id="paint2_linear_5481_122520" x1="35.5898" y1="-36.2716" x2="46.3146" y2="32.3671" gradientUnits="userSpaceOnUse">
<stop offset="0.15625" stop-color="#7A6AFD"/>
<stop offset="1" stop-color="#7A6AFD" stop-opacity="0"/>
</linearGradient>
<linearGradient id="paint3_linear_5481_122520" x1="-88.1609" y1="101.725" x2="92.2907" y2="66.0615" gradientUnits="userSpaceOnUse">
<stop stop-color="#30A7FE" stop-opacity="0"/>
<stop offset="0.432292" stop-color="#30A7FE" stop-opacity="0.994652"/>
<stop offset="0.609375" stop-color="#30A7FE"/>
<stop offset="1" stop-color="#30A7FE" stop-opacity="0"/>
</linearGradient>
<clipPath id="clip0_5481_122520">
<rect width="96" height="96" rx="10" fill="white"/>
</clipPath>
</defs>
<clipPath id="mask0_5481_122520">
<path fill-rule="evenodd" d="M49.9998 14.9844C49.9998 13.8798 49.1043 12.9844 47.9998 12.9844C46.8952 12.9844 45.9998 13.8798 45.9998 14.9844L45.9998 81.0156C45.9998 82.1202 46.8952 83.0156 47.9998 83.0156C49.1043 83.0156 49.9998 82.1202 49.9998 81.0156L49.9998 14.9844ZM18.25 41.0156C19.3546 41.0156 20.25 41.9111 20.25 43.0156L20.25 52.9844C20.25 54.0889 19.3546 54.9844 18.25 54.9844C17.1454 54.9844 16.25 54.0889 16.25 52.9844V43.0156C16.25 41.9111 17.1454 41.0156 18.25 41.0156ZM77.7493 41.0156C78.8538 41.0156 79.7493 41.9111 79.7493 43.0156V52.9844C79.7493 54.0889 78.8538 54.9844 77.7493 54.9844C76.6447 54.9844 75.7493 54.0889 75.7493 52.9844V43.0156C75.7493 41.9111 76.6447 41.0156 77.7493 41.0156ZM38.0833 29.002C39.1878 29.002 40.0833 29.8974 40.0833 31.002L40.0833 64.998C40.0833 66.1026 39.1878 66.998 38.0833 66.998C36.9787 66.998 36.0833 66.1026 36.0833 64.998L36.0833 31.002C36.0833 29.8974 36.9787 29.002 38.0833 29.002ZM59.9163 31.002C59.9163 29.8974 59.0208 29.002 57.9163 29.002C56.8117 29.002 55.9163 29.8974 55.9163 31.002V64.998C55.9163 66.1026 56.8117 66.998 57.9163 66.998C59.0208 66.998 59.9163 66.1026 59.9163 64.998V31.002ZM28.1667 21C29.2713 21 30.1667 21.8954 30.1667 23L30.1667 73C30.1667 74.1046 29.2713 75 28.1667 75C27.0622 75 26.1667 74.1046 26.1667 73L26.1667 23C26.1667 21.8954 27.0622 21 28.1667 21ZM69.8328 23C69.8328 21.8954 68.9373 21 67.8328 21C66.7282 21 65.8328 21.8954 65.8328 23L65.8328 73C65.8328 74.1046 66.7282 75 67.8328 75C68.9373 75 69.8328 74.1046 69.8328 73L69.8328 23Z" fill="#292929"/>
</clipPath>
<g clip-path="url(#mask0_5481_122520)">
<g clip-path="url(#clip0_5481_122520)">
<rect width="96" height="96" rx="10" fill="#D9F4FD"/>
<circle cx="85.5714" cy="63.1124" r="138.607" fill="url(#paint0_radial_5481_122520)"/>
<path d="M-8.63919 30.067C-10.18 -3.11477 15.4702 -31.263 48.652 -32.8037C81.8337 -34.3445 109.982 -8.69438 111.523 24.4874C113.063 57.6692 87.4133 85.8174 54.2316 87.3582C21.0498 88.8989 -7.09842 63.2488 -8.63919 30.067Z" fill="url(#paint1_linear_5481_122520)"/>
<path d="M24.2526 -66.43C16.7672 -71.0619 7.28331 -71.0903 -0.22988 -66.5032L-75.3753 -20.6218C-82.7348 -16.1282 -82.7471 -5.52169 -75.3976 -1.01111L-0.748691 44.8052C6.75324 49.4089 16.2372 49.4034 23.7327 44.7888L98.2278 -1.0704C105.538 -5.57135 105.552 -16.1186 98.2501 -20.6366L24.2526 -66.43Z" fill="url(#paint2_linear_5481_122520)"/>
<path d="M-47.8586 45.9177C-32.3701 45.9177 -18.3401 52.1863 -8.18231 62.2992C12.1334 82.5597 28.9763 82.577 49.2919 62.3512C59.4498 52.1863 73.4971 45.9004 89.003 45.9004C119.997 45.9177 145.105 70.9575 145.105 101.868C145.105 132.778 119.997 157.8 89.003 157.8C73.4624 157.8 59.415 151.497 49.2572 141.332C28.9589 121.141 12.1334 121.158 -8.18231 141.419C-18.3401 151.549 -32.3701 157.8 -47.8586 157.8C-78.8357 157.8 -103.944 132.761 -103.944 101.868C-103.944 70.9749 -78.8357 45.9177 -47.8586 45.9177Z" fill="url(#paint3_linear_5481_122520)"/>
</g>
</g>

</svg>
