<svg width="96" height="96" viewBox="0 0 96 96" xmlns="http://www.w3.org/2000/svg">
  <defs>
<radialGradient id="paint0_radial_5481_122490" cx="0" cy="0" r="1" gradientUnits="userSpaceOnUse" gradientTransform="translate(78.2124 60.6236) rotate(90) scale(102.569 108.806)">
<stop offset="0.0885417" stop-color="#EB1000"/>
<stop offset="1" stop-color="#EB1000" stop-opacity="0"/>
</radialGradient>
<linearGradient id="paint1_linear_5481_122490" x1="65.5656" y1="11.6361" x2="25.102" y2="67.2883" gradientUnits="userSpaceOnUse">
<stop stop-color="#FF4885"/>
<stop offset="1" stop-color="#FF4885" stop-opacity="0"/>
</linearGradient>
<linearGradient id="paint2_linear_5481_122490" x1="38.9776" y1="-12.9196" x2="46.4789" y2="38.0082" gradientUnits="userSpaceOnUse">
<stop offset="0.15625" stop-color="#7A6AFD"/>
<stop offset="1" stop-color="#7A6AFD" stop-opacity="0"/>
</linearGradient>
<linearGradient id="paint3_linear_5481_122490" x1="-58.1649" y1="89.197" x2="82.8254" y2="59.6379" gradientUnits="userSpaceOnUse">
<stop stop-color="#30A7FE" stop-opacity="0"/>
<stop offset="0.432292" stop-color="#30A7FE" stop-opacity="0.994652"/>
<stop offset="0.609375" stop-color="#30A7FE"/>
<stop offset="1" stop-color="#30A7FE" stop-opacity="0"/>
</linearGradient>
<clipPath id="clip0_5481_122490">
<rect x="11.0391" y="13.9199" width="75.36" height="71.04" rx="10" fill="white"/>
</clipPath>
</defs>
<clipPath id="mask0_5481_122490">
<path fill-rule="evenodd" d="M69 29.4004H74.4C79.704 29.4004 84 33.6964 84 39.0004V52.2004H69V51.0004C69 49.6744 67.926 48.6004 66.6 48.6004C65.274 48.6004 64.2 49.6744 64.2 51.0004V52.2004H31.8V51.0004C31.8 49.6744 30.726 48.6004 29.4 48.6004C28.074 48.6004 27 49.6744 27 51.0004V52.2004H12V39.0004C12 33.6964 16.296 29.4004 21.6 29.4004H27V22.8004C27 18.1684 30.768 14.4004 35.4 14.4004H60.6C65.232 14.4004 69 18.1684 69 22.8004V29.4004ZM31.8 29.4004H64.2V22.8004C64.2 20.8144 62.586 19.2004 60.6 19.2004H35.4C33.414 19.2004 31.8 20.8144 31.8 22.8004V29.4004ZM66.6 61.2004C67.926 61.2004 69 60.1264 69 58.8004V57.0004H84V69.6004C84 74.9044 79.704 79.2004 74.4 79.2004H21.6C16.296 79.2004 12 74.9044 12 69.6004V57.0004H27V58.8004C27 60.1264 28.074 61.2004 29.4 61.2004C30.726 61.2004 31.8 60.1264 31.8 58.8004V57.0004H64.2V58.8004C64.2 60.1264 65.274 61.2004 66.6 61.2004Z" fill="white"/>
</clipPath>
<g clip-path="url(#mask0_5481_122490)">
<g clip-path="url(#clip0_5481_122490)">
<rect x="11.0391" y="13.9199" width="75.36" height="71.04" rx="10" fill="#D9F4FD"/>
<ellipse cx="78.2124" cy="60.6236" rx="108.806" ry="102.569" fill="url(#paint0_radial_5481_122490)"/>
<path d="M4.25636 36.171C3.04686 11.6164 23.1822 -9.21323 49.2299 -10.3534C75.2776 -11.4936 97.3739 7.48752 98.5834 32.0421C99.7929 56.5966 79.6576 77.4262 53.6099 78.5664C27.5622 79.7066 5.46586 60.7255 4.25636 36.171Z" fill="url(#paint1_linear_5481_122490)"/>
<path d="M30.0779 -35.2368C24.2019 -38.6645 16.757 -38.6854 10.8591 -35.291L-48.13 -1.33878C-53.9073 1.98648 -53.9169 9.83532 -48.1475 13.1731L10.4519 47.0772C16.3409 50.4839 23.7858 50.4799 29.6697 47.0651L88.1484 13.1293C93.8873 9.79858 93.8977 1.9936 88.1659 -1.34968L30.0779 -35.2368Z" fill="url(#paint2_linear_5481_122490)"/>
<path d="M-26.5276 47.8995C-14.3691 47.8995 -3.35561 52.5383 4.61829 60.0219C20.5661 75.0146 33.7878 75.0274 49.7356 60.0603C57.7095 52.5383 68.7366 47.8867 80.9088 47.8867C105.239 47.8995 124.949 66.429 124.949 89.3025C124.949 112.176 105.239 130.693 80.9088 130.693C68.7094 130.693 57.6822 126.028 49.7083 118.506C33.7741 103.565 20.5661 103.578 4.61829 118.57C-3.35561 126.067 -14.3691 130.693 -26.5276 130.693C-50.8446 130.693 -70.5544 112.163 -70.5544 89.3025C-70.5544 66.4418 -50.8446 47.8995 -26.5276 47.8995Z" fill="url(#paint3_linear_5481_122490)"/>
</g>
</g>

</svg>
