<svg width="96" height="96" viewBox="0 0 96 96" xmlns="http://www.w3.org/2000/svg">
  <defs>
<radialGradient id="paint0_radial_5481_122592" cx="0" cy="0" r="1" gradientUnits="userSpaceOnUse" gradientTransform="translate(85.5714 63.1124) rotate(90) scale(138.607)">
<stop offset="0.0885417" stop-color="#EB1000"/>
<stop offset="1" stop-color="#EB1000" stop-opacity="0"/>
</radialGradient>
<linearGradient id="paint1_linear_5481_122592" x1="69.4617" y1="-3.08825" x2="13.8656" y2="68.9935" gradientUnits="userSpaceOnUse">
<stop stop-color="#FF4885"/>
<stop offset="1" stop-color="#FF4885" stop-opacity="0"/>
</linearGradient>
<linearGradient id="paint2_linear_5481_122592" x1="35.5898" y1="-36.2716" x2="46.3146" y2="32.3671" gradientUnits="userSpaceOnUse">
<stop offset="0.15625" stop-color="#7A6AFD"/>
<stop offset="1" stop-color="#7A6AFD" stop-opacity="0"/>
</linearGradient>
<linearGradient id="paint3_linear_5481_122592" x1="-88.1609" y1="101.725" x2="92.2907" y2="66.0615" gradientUnits="userSpaceOnUse">
<stop stop-color="#30A7FE" stop-opacity="0"/>
<stop offset="0.432292" stop-color="#30A7FE" stop-opacity="0.994652"/>
<stop offset="0.609375" stop-color="#30A7FE"/>
<stop offset="1" stop-color="#30A7FE" stop-opacity="0"/>
</linearGradient>
<clipPath id="clip0_5481_122592">
<rect width="96" height="96" rx="10" fill="white"/>
</clipPath>
</defs>
<clipPath id="mask0_5481_122592">
<path fill-rule="evenodd" d="M65.762 70.3768C75.4202 65.2613 81.8412 56.1927 81.8412 45.8583C81.8412 44.8463 81.7796 43.8465 81.6594 42.8613C82.9622 42.7305 84.5035 42.2209 85.8664 41.0817C87.6891 39.5583 88.985 37.086 89.149 33.4735C89.1991 32.3701 88.3452 31.435 87.2418 31.3849C86.1383 31.3348 85.2032 32.1887 85.1531 33.2921C85.0309 35.9847 84.1203 37.328 83.3012 38.0126C82.425 38.7449 81.4127 38.9263 80.841 38.8931C77.1476 26.2829 63.6538 16.9336 47.5729 16.9336C41.0301 16.9336 34.9161 18.4809 29.7157 21.1662C26.627 17.8534 21.7902 16.8928 18.0397 16.9368C16.648 16.9532 15.9247 18.4629 16.622 19.6674L21.1287 27.4512L21.1615 27.4272C18.8034 29.8319 16.8975 32.564 15.5536 35.5307V35.5142L8.83801 39.4266C7.60805 40.1431 6.85156 41.4593 6.85156 42.8828V48.8349C6.85156 50.2589 7.60867 51.5756 8.83944 52.2919L15.5536 56.1998V56.186C18.2214 62.0752 23.1042 67.0401 29.3418 70.3545C29.3249 70.3523 29.3108 70.3513 29.2998 70.3513L31.7792 77.1026C32.2129 78.2835 33.3373 79.0684 34.5953 79.0684H38.0292C39.2863 79.0684 40.41 78.2847 40.8444 77.1051L41.8414 74.3979L41.7524 74.3676C43.6442 74.6408 45.5889 74.7831 47.5729 74.7831C49.5134 74.7831 51.4162 74.6469 53.2687 74.3854L53.2298 74.3979L54.2268 77.1051C54.6612 78.2847 55.785 79.0684 57.042 79.0684H60.4759C61.734 79.0684 62.8584 78.2835 63.292 77.1026L65.762 70.3768ZM52.5308 27.1474C49.375 26.4446 46.7481 26.4151 43.4104 27.1486C42.3316 27.3857 41.2649 26.7033 41.0278 25.6245C40.7907 24.5457 41.473 23.4789 42.5518 23.2418C46.4642 22.382 49.681 22.4148 53.4003 23.243C54.4784 23.4832 55.1578 24.5518 54.9177 25.63C54.6776 26.7081 53.6089 27.3875 52.5308 27.1474ZM29.7207 35.3828C29.7207 37.0397 28.3776 38.3828 26.7207 38.3828C25.0638 38.3828 23.7207 37.0397 23.7207 35.3828C23.7207 33.726 25.0638 32.3828 26.7207 32.3828C28.3776 32.3828 29.7207 33.726 29.7207 35.3828Z" fill="#292929"/>
</clipPath>
<g clip-path="url(#mask0_5481_122592)">
<g clip-path="url(#clip0_5481_122592)">
<rect width="96" height="96" rx="10" fill="#D9F4FD"/>
<circle cx="85.5714" cy="63.1124" r="138.607" fill="url(#paint0_radial_5481_122592)"/>
<path d="M-8.63919 30.067C-10.18 -3.11477 15.4702 -31.263 48.652 -32.8037C81.8337 -34.3445 109.982 -8.69438 111.523 24.4874C113.063 57.6692 87.4133 85.8174 54.2316 87.3582C21.0498 88.8989 -7.09842 63.2488 -8.63919 30.067Z" fill="url(#paint1_linear_5481_122592)"/>
<path d="M24.2526 -66.43C16.7672 -71.0619 7.28331 -71.0903 -0.22988 -66.5032L-75.3753 -20.6218C-82.7348 -16.1282 -82.7471 -5.52169 -75.3976 -1.01111L-0.748691 44.8052C6.75324 49.4089 16.2372 49.4034 23.7327 44.7888L98.2278 -1.0704C105.538 -5.57135 105.552 -16.1186 98.2501 -20.6366L24.2526 -66.43Z" fill="url(#paint2_linear_5481_122592)"/>
<path d="M-47.8586 45.9177C-32.3701 45.9177 -18.3401 52.1863 -8.18231 62.2992C12.1334 82.5597 28.9763 82.577 49.2919 62.3512C59.4498 52.1863 73.4971 45.9004 89.003 45.9004C119.997 45.9177 145.105 70.9575 145.105 101.868C145.105 132.778 119.997 157.8 89.003 157.8C73.4624 157.8 59.415 151.497 49.2572 141.332C28.9589 121.141 12.1334 121.158 -8.18231 141.419C-18.3401 151.549 -32.3701 157.8 -47.8586 157.8C-78.8357 157.8 -103.944 132.761 -103.944 101.868C-103.944 70.9749 -78.8357 45.9177 -47.8586 45.9177Z" fill="url(#paint3_linear_5481_122592)"/>
</g>
</g>

</svg>
