<svg width="48" height="48" viewBox="0 0 48 48" xmlns="http://www.w3.org/2000/svg">
  <defs>
<radialGradient id="paint0_radial_5481_122343" cx="0" cy="0" r="1" gradientUnits="userSpaceOnUse" gradientTransform="translate(40.21 30.4424) rotate(90) scale(60.2686)">
<stop offset="0.0885417" stop-color="#EB1000"/>
<stop offset="1" stop-color="#EB1000" stop-opacity="0"/>
</radialGradient>
<linearGradient id="paint1_linear_5481_122343" x1="33.2012" y1="1.65684" x2="9.02702" y2="32.9993" gradientUnits="userSpaceOnUse">
<stop stop-color="#FF4885"/>
<stop offset="1" stop-color="#FF4885" stop-opacity="0"/>
</linearGradient>
<linearGradient id="paint2_linear_5481_122343" x1="18.4731" y1="-12.7717" x2="23.1365" y2="17.0736" gradientUnits="userSpaceOnUse">
<stop offset="0.15625" stop-color="#7A6AFD"/>
<stop offset="1" stop-color="#7A6AFD" stop-opacity="0"/>
</linearGradient>
<linearGradient id="paint3_linear_5481_122343" x1="-35.3346" y1="47.2325" x2="43.129" y2="31.7254" gradientUnits="userSpaceOnUse">
<stop stop-color="#30A7FE" stop-opacity="0"/>
<stop offset="0.432292" stop-color="#30A7FE" stop-opacity="0.994652"/>
<stop offset="0.609375" stop-color="#30A7FE"/>
<stop offset="1" stop-color="#30A7FE" stop-opacity="0"/>
</linearGradient>
<clipPath id="clip0_5481_122343">
<rect x="3" y="3" width="41.7425" height="41.7425" rx="10" fill="white"/>
</clipPath>
</defs>
<clipPath id="mask0_5481_122343">
<path fill-rule="evenodd" d="M10.8 10.3008C8.14903 10.3008 6 12.4498 6 15.1008V33.1008C6 35.7517 8.14903 37.9008 10.8 37.9008H37.2C39.851 37.9008 42 35.7517 42 33.1008V15.1008C42 12.4498 39.851 10.3008 37.2 10.3008H10.8ZM9.6 16.0008C9.6 15.6694 9.86863 15.4008 10.2 15.4008H12.3C12.6314 15.4008 12.9 15.6694 12.9 16.0008V17.5008C12.9 17.8322 12.6314 18.1008 12.3 18.1008H10.2C9.86863 18.1008 9.6 17.8322 9.6 17.5008V16.0008ZM9.6 30.7008C9.6 30.3694 9.86863 30.1008 10.2 30.1008H12.3C12.6314 30.1008 12.9 30.3694 12.9 30.7008V32.2008C12.9 32.5322 12.6314 32.8008 12.3 32.8008H10.2C9.86863 32.8008 9.6 32.5322 9.6 32.2008V30.7008ZM14.7 16.0008C14.7 15.6694 14.9686 15.4008 15.3 15.4008H17.4C17.7314 15.4008 18 15.6694 18 16.0008V17.5008C18 17.8322 17.7314 18.1008 17.4 18.1008H15.3C14.9686 18.1008 14.7 17.8322 14.7 17.5008V16.0008ZM14.7 30.7008C14.7 30.3694 14.9686 30.1008 15.3 30.1008H17.4C17.7314 30.1008 18 30.3694 18 30.7008V32.2008C18 32.5322 17.7314 32.8008 17.4 32.8008H15.3C14.9686 32.8008 14.7 32.5322 14.7 32.2008V30.7008ZM19.8 16.0008C19.8 15.6694 20.0686 15.4008 20.4 15.4008H22.5C22.8314 15.4008 23.1 15.6694 23.1 16.0008V17.5008C23.1 17.8322 22.8314 18.1008 22.5 18.1008H20.4C20.0686 18.1008 19.8 17.8322 19.8 17.5008V16.0008ZM19.8 30.7008C19.8 30.3694 20.0686 30.1008 20.4 30.1008H22.5C22.8314 30.1008 23.1 30.3694 23.1 30.7008V32.2008C23.1 32.5322 22.8314 32.8008 22.5 32.8008H20.4C20.0686 32.8008 19.8 32.5322 19.8 32.2008V30.7008ZM24.9 16.0008C24.9 15.6694 25.1686 15.4008 25.5 15.4008H27.6C27.9314 15.4008 28.2 15.6694 28.2 16.0008V17.5008C28.2 17.8322 27.9314 18.1008 27.6 18.1008H25.5C25.1686 18.1008 24.9 17.8322 24.9 17.5008V16.0008ZM24.9 30.7008C24.9 30.3694 25.1686 30.1008 25.5 30.1008H27.6C27.9314 30.1008 28.2 30.3694 28.2 30.7008V32.2008C28.2 32.5322 27.9314 32.8008 27.6 32.8008H25.5C25.1686 32.8008 24.9 32.5322 24.9 32.2008V30.7008ZM30 16.0008C30 15.6694 30.2686 15.4008 30.6 15.4008H32.7C33.0314 15.4008 33.3 15.6694 33.3 16.0008V17.5008C33.3 17.8322 33.0314 18.1008 32.7 18.1008H30.6C30.2686 18.1008 30 17.8322 30 17.5008V16.0008ZM30 30.7008C30 30.3694 30.2686 30.1008 30.6 30.1008H32.7C33.0314 30.1008 33.3 30.3694 33.3 30.7008V32.2008C33.3 32.5322 33.0314 32.8008 32.7 32.8008H30.6C30.2686 32.8008 30 32.5322 30 32.2008V30.7008ZM35.1 16.0008C35.1 15.6694 35.3686 15.4008 35.7 15.4008H37.8C38.1314 15.4008 38.4 15.6694 38.4 16.0008V17.5008C38.4 17.8322 38.1314 18.1008 37.8 18.1008H35.7C35.3686 18.1008 35.1 17.8322 35.1 17.5008V16.0008ZM35.1 30.7008C35.1 30.3694 35.3686 30.1008 35.7 30.1008H37.8C38.1314 30.1008 38.4 30.3694 38.4 30.7008V32.2008C38.4 32.5322 38.1314 32.8008 37.8 32.8008H35.7C35.3686 32.8008 35.1 32.5322 35.1 32.2008V30.7008Z" fill="white"/>
</clipPath>
<g clip-path="url(#mask0_5481_122343)">
<g clip-path="url(#clip0_5481_122343)">
<rect x="3" y="3" width="41.7425" height="41.7425" rx="10" fill="#D9F4FD"/>
<circle cx="40.21" cy="30.4424" r="60.2686" fill="url(#paint0_radial_5481_122343)"/>
<path d="M-0.758438 16.0733C-1.42839 1.64531 9.72473 -10.594 24.1528 -11.264C38.5808 -11.9339 50.8201 -0.780798 51.4901 13.6472C52.16 28.0753 41.0069 40.3146 26.5789 40.9845C12.1508 41.6545 -0.088486 30.5014 -0.758438 16.0733Z" fill="url(#paint1_linear_5481_122343)"/>
<path d="M13.5435 -25.8851C10.2888 -27.8992 6.16499 -27.9115 2.89812 -25.917L-29.7764 -5.96692C-32.9765 -4.01303 -32.9818 0.598887 -29.7861 2.56016L2.67253 22.4819C5.93451 24.4837 10.0583 24.4813 13.3175 22.4748L45.7092 2.53439C48.888 0.577295 48.8938 -4.00884 45.7189 -5.97332L13.5435 -25.8851Z" fill="url(#paint2_linear_5481_122343)"/>
<path d="M-17.8105 22.9665C-11.0758 22.9665 -4.97529 25.6922 -0.558485 30.0895C8.27513 38.8991 15.5987 38.9066 24.4323 30.1121C28.8491 25.6922 34.9572 22.959 41.6994 22.959C55.1763 22.9665 66.0938 33.8543 66.0938 47.2946C66.0938 60.7348 55.1763 71.6151 41.6994 71.6151C34.9421 71.6151 28.834 68.8743 24.4172 64.4545C15.5912 55.675 8.27513 55.6825 -0.558485 64.4921C-4.97529 68.8969 -11.0758 71.6151 -17.8105 71.6151C-31.2798 71.6151 -42.1973 60.7273 -42.1973 47.2946C-42.1973 33.8618 -31.2798 22.9665 -17.8105 22.9665Z" fill="url(#paint3_linear_5481_122343)"/>
</g>
</g>

</svg>
