<svg width="48" height="48" viewBox="0 0 48 48" xmlns="http://www.w3.org/2000/svg">
  <defs>
<radialGradient id="paint0_radial_5481_122432" cx="0" cy="0" r="1" gradientUnits="userSpaceOnUse" gradientTransform="translate(42.7877 31.5552) rotate(90) scale(69.3033)">
<stop offset="0.0885417" stop-color="#EB1000"/>
<stop offset="1" stop-color="#EB1000" stop-opacity="0"/>
</radialGradient>
<linearGradient id="paint1_linear_5481_122432" x1="34.7309" y1="-1.54315" x2="6.93278" y2="34.4977" gradientUnits="userSpaceOnUse">
<stop stop-color="#FF4885"/>
<stop offset="1" stop-color="#FF4885" stop-opacity="0"/>
</linearGradient>
<linearGradient id="paint2_linear_5481_122432" x1="17.7929" y1="-18.1348" x2="23.1553" y2="16.1845" gradientUnits="userSpaceOnUse">
<stop offset="0.15625" stop-color="#7A6AFD"/>
<stop offset="1" stop-color="#7A6AFD" stop-opacity="0"/>
</linearGradient>
<linearGradient id="paint3_linear_5481_122432" x1="-44.0785" y1="50.8616" x2="46.1473" y2="33.0298" gradientUnits="userSpaceOnUse">
<stop stop-color="#30A7FE" stop-opacity="0"/>
<stop offset="0.432292" stop-color="#30A7FE" stop-opacity="0.994652"/>
<stop offset="0.609375" stop-color="#30A7FE"/>
<stop offset="1" stop-color="#30A7FE" stop-opacity="0"/>
</linearGradient>
<clipPath id="clip0_5481_122432">
<rect width="48" height="48" rx="10" fill="white"/>
</clipPath>
</defs>
<clipPath id="mask0_5481_122432">
<path fill-rule="evenodd" d="M26.4544 8.57785L36.3456 18.469C37.0207 19.1442 37.4 20.0598 37.4 21.0146V35.1234C37.4 37.1117 35.7882 38.7234 33.8 38.7234H14.6C12.6118 38.7234 11 37.1117 11 35.1234V11.1234C11 9.13521 12.6118 7.52344 14.6 7.52344H23.9088C24.8636 7.52344 25.7793 7.90272 26.4544 8.57785ZM21.302 23.1599C21.302 22.9465 21.475 22.7734 21.6885 22.7734C22.3788 22.7734 22.9385 22.2138 22.9385 21.5234C22.9385 20.8331 22.3788 20.2734 21.6885 20.2734C20.0943 20.2734 18.802 21.5658 18.802 23.1599C18.802 23.9737 19.1403 24.7106 19.6808 25.2338C20.1768 25.714 20.9681 25.7012 21.4483 25.2053C21.9285 24.7093 21.9157 23.9179 21.4197 23.4377C21.3456 23.366 21.302 23.2691 21.302 23.1599ZM25.5147 21.45C24.0122 21.45 22.7941 22.668 22.7941 24.1705C22.7941 25.6731 24.0122 26.8911 25.5147 26.8911C27.0173 26.8911 28.2353 25.6731 28.2353 24.1705C28.2353 22.668 27.0173 21.45 25.5147 21.45ZM21.0891 28.8556C21.712 28.558 21.9758 27.8118 21.6783 27.1889C21.3807 26.566 20.6345 26.3022 20.0116 26.5997C18.7143 27.2194 17.7673 28.4627 17.5178 29.9321C17.4023 30.6128 17.8604 31.2582 18.541 31.3737C19.2216 31.4893 19.867 31.0312 19.9826 30.3505C20.0971 29.6758 20.5319 29.1218 21.0891 28.8556ZM25.5148 27.3323C23.4407 27.3323 21.5487 28.6625 21.0773 30.6185C20.7749 31.8733 21.8374 32.7735 22.8401 32.7735H28.1895C29.1922 32.7735 30.2546 31.8733 29.9522 30.6185C29.4809 28.6625 27.5889 27.3323 25.5148 27.3323Z" fill="#292929"/>
</clipPath>
<g clip-path="url(#mask0_5481_122432)">
<g clip-path="url(#clip0_5481_122432)">
<rect width="48" height="48" rx="10" fill="#D9F4FD"/>
<circle cx="42.7877" cy="31.5552" r="69.3033" fill="url(#paint0_radial_5481_122432)"/>
<path d="M-4.31959 15.0345C-5.08998 -1.55641 7.73508 -15.6305 24.326 -16.4009C40.9169 -17.1713 54.991 -4.34621 55.7613 12.2447C56.5317 28.8356 43.7067 42.9097 27.1158 43.6801C10.5249 44.4504 -3.54921 31.6254 -4.31959 15.0345Z" fill="url(#paint1_linear_5481_122432)"/>
<path d="M12.1243 -33.214C8.38167 -35.53 3.6397 -35.5442 -0.116893 -33.2506L-37.6896 -10.3099C-41.3694 -8.06314 -41.3755 -2.75987 -37.7007 -0.504581L-0.376298 22.4036C3.37467 24.7054 8.11665 24.7027 11.8644 22.3954L49.1119 -0.534222C52.7672 -2.7847 52.7739 -8.05833 49.1231 -10.3173L12.1243 -33.214Z" fill="url(#paint2_linear_5481_122432)"/>
<path d="M-23.9274 22.9579C-16.1831 22.9579 -9.16812 26.0922 -4.0892 31.1486C6.06863 41.2789 14.4901 41.2875 24.6479 31.1746C29.7268 26.0922 36.7505 22.9492 44.5034 22.9492C60.0006 22.9579 72.5547 35.4778 72.5547 50.9329C72.5547 66.388 60.0006 78.8992 44.5034 78.8992C36.7331 78.8992 29.7095 75.7476 24.6306 70.6652C14.4814 60.5696 6.06863 60.5782 -4.0892 70.7085C-9.16812 75.7736 -16.1831 78.8992 -23.9274 78.8992C-39.4159 78.8992 -51.9699 66.3793 -51.9699 50.9329C-51.9699 35.4865 -39.4159 22.9579 -23.9274 22.9579Z" fill="url(#paint3_linear_5481_122432)"/>
</g>
</g>

</svg>
