<svg width="96" height="96" viewBox="0 0 96 96" xmlns="http://www.w3.org/2000/svg">
  <defs>
<radialGradient id="paint0_radial_5481_122579" cx="0" cy="0" r="1" gradientUnits="userSpaceOnUse" gradientTransform="translate(85.5714 63.1124) rotate(90) scale(138.607)">
<stop offset="0.0885417" stop-color="#EB1000"/>
<stop offset="1" stop-color="#EB1000" stop-opacity="0"/>
</radialGradient>
<linearGradient id="paint1_linear_5481_122579" x1="69.4617" y1="-3.08825" x2="13.8656" y2="68.9935" gradientUnits="userSpaceOnUse">
<stop stop-color="#FF4885"/>
<stop offset="1" stop-color="#FF4885" stop-opacity="0"/>
</linearGradient>
<linearGradient id="paint2_linear_5481_122579" x1="35.5898" y1="-36.2716" x2="46.3146" y2="32.3671" gradientUnits="userSpaceOnUse">
<stop offset="0.15625" stop-color="#7A6AFD"/>
<stop offset="1" stop-color="#7A6AFD" stop-opacity="0"/>
</linearGradient>
<linearGradient id="paint3_linear_5481_122579" x1="-88.1609" y1="101.725" x2="92.2907" y2="66.0615" gradientUnits="userSpaceOnUse">
<stop stop-color="#30A7FE" stop-opacity="0"/>
<stop offset="0.432292" stop-color="#30A7FE" stop-opacity="0.994652"/>
<stop offset="0.609375" stop-color="#30A7FE"/>
<stop offset="1" stop-color="#30A7FE" stop-opacity="0"/>
</linearGradient>
<clipPath id="clip0_5481_122579">
<rect width="96" height="96" rx="10" fill="white"/>
</clipPath>
</defs>
<clipPath id="mask0_5481_122579">
<path fill-rule="evenodd" d="M12 57.9002C12 50.9249 15.0916 44.6717 19.9793 40.4362C20.7476 49.4348 25.9133 57.1786 33.3182 61.5095C34.2834 68.7621 38.117 75.1081 43.641 79.3698C40.999 80.4218 38.117 81.0002 35.1 81.0002C22.3422 81.0002 12 70.658 12 57.9002ZM51.6389 79.3698C54.281 80.4218 57.1629 81.0002 60.1799 81.0002C72.9377 81.0002 83.2799 70.658 83.2799 57.9002C83.2799 50.3464 79.6542 43.6395 74.0482 39.4247C73.623 48.2582 68.9685 55.9824 62.0656 60.6164C61.3069 68.2402 57.3886 74.9341 51.6389 79.3698ZM69.371 32.3985C66.8324 22.3981 57.7701 15 46.98 15C35.9844 15 26.7832 22.6824 24.4511 32.9725C27.72 31.5742 31.3196 30.8002 35.1 30.8002C39.6246 30.8002 43.8902 31.909 47.64 33.8698C51.3897 31.909 55.6553 30.8002 60.1799 30.8002C63.4064 30.8002 66.5011 31.364 69.371 32.3985ZM23.8834 37.7014C23.8811 37.834 23.88 37.9669 23.88 38.1C23.88 45.6538 27.5057 52.3607 33.1118 56.5755C33.5064 48.3771 37.544 41.1342 43.641 36.4305C40.999 35.3786 38.117 34.8002 35.1 34.8002C31.0294 34.8002 27.2047 35.8531 23.8834 37.7014ZM47.64 77.3034C52.6183 74.0794 56.2773 68.9915 57.6289 63.0277C54.36 64.4259 50.7604 65.2 46.98 65.2C43.7536 65.2 40.6588 64.6362 37.7889 63.6016C39.2399 69.3176 42.8221 74.1833 47.64 77.3034ZM70.08 38.1C70.08 45.0753 66.9884 51.3284 62.1007 55.564C61.4363 47.7828 57.4839 40.9398 51.6389 36.4305C54.281 35.3786 57.1629 34.8002 60.1799 34.8002C63.7129 34.8002 67.0607 35.5933 70.0548 37.0112C70.0715 37.3721 70.08 37.735 70.08 38.1ZM58.2 57.9002C58.2 49.7653 53.995 42.6125 47.64 38.4969C41.285 42.6125 37.0799 49.7653 37.0799 57.9002C37.0799 58.2651 37.0884 58.6281 37.1051 58.9889C40.0993 60.4069 43.447 61.2 46.98 61.2C51.0506 61.2 54.8753 60.1471 58.1966 58.2988C58.1989 58.1662 58.2 58.0333 58.2 57.9002Z" fill="white"/>
</clipPath>
<g clip-path="url(#mask0_5481_122579)">
<g clip-path="url(#clip0_5481_122579)">
<rect width="96" height="96" rx="10" fill="#D9F4FD"/>
<circle cx="85.5714" cy="63.1124" r="138.607" fill="url(#paint0_radial_5481_122579)"/>
<path d="M-8.63919 30.067C-10.18 -3.11477 15.4702 -31.263 48.652 -32.8037C81.8337 -34.3445 109.982 -8.69438 111.523 24.4874C113.063 57.6692 87.4133 85.8174 54.2316 87.3582C21.0498 88.8989 -7.09842 63.2488 -8.63919 30.067Z" fill="url(#paint1_linear_5481_122579)"/>
<path d="M24.2526 -66.43C16.7672 -71.0619 7.28331 -71.0903 -0.22988 -66.5032L-75.3753 -20.6218C-82.7348 -16.1282 -82.7471 -5.52169 -75.3976 -1.01111L-0.748691 44.8052C6.75324 49.4089 16.2372 49.4034 23.7327 44.7888L98.2278 -1.0704C105.538 -5.57135 105.552 -16.1186 98.2501 -20.6366L24.2526 -66.43Z" fill="url(#paint2_linear_5481_122579)"/>
<path d="M-47.8586 45.9177C-32.3701 45.9177 -18.3401 52.1863 -8.18231 62.2992C12.1334 82.5597 28.9763 82.577 49.2919 62.3512C59.4498 52.1863 73.4971 45.9004 89.003 45.9004C119.997 45.9177 145.105 70.9575 145.105 101.868C145.105 132.778 119.997 157.8 89.003 157.8C73.4624 157.8 59.415 151.497 49.2572 141.332C28.9589 121.141 12.1334 121.158 -8.18231 141.419C-18.3401 151.549 -32.3701 157.8 -47.8586 157.8C-78.8357 157.8 -103.944 132.761 -103.944 101.868C-103.944 70.9749 -78.8357 45.9177 -47.8586 45.9177Z" fill="url(#paint3_linear_5481_122579)"/>
</g>
</g>

</svg>
