<svg width="160" height="160" viewBox="0 0 160 160" xmlns="http://www.w3.org/2000/svg">
  <defs>
<radialGradient id="paint0_radial_5481_122225" cx="0" cy="0" r="1" gradientUnits="userSpaceOnUse" gradientTransform="translate(142.62 105.187) rotate(90) scale(231.011)">
<stop offset="0.0885417" stop-color="#EB1000"/>
<stop offset="1" stop-color="#EB1000" stop-opacity="0"/>
</radialGradient>
<linearGradient id="paint1_linear_5481_122225" x1="115.768" y1="-5.14512" x2="23.108" y2="114.991" gradientUnits="userSpaceOnUse">
<stop stop-color="#FF4885"/>
<stop offset="1" stop-color="#FF4885" stop-opacity="0"/>
</linearGradient>
<linearGradient id="paint2_linear_5481_122225" x1="59.3137" y1="-60.4521" x2="77.1884" y2="53.9458" gradientUnits="userSpaceOnUse">
<stop offset="0.15625" stop-color="#7A6AFD"/>
<stop offset="1" stop-color="#7A6AFD" stop-opacity="0"/>
</linearGradient>
<linearGradient id="paint3_linear_5481_122225" x1="-146.934" y1="169.541" x2="153.819" y2="110.102" gradientUnits="userSpaceOnUse">
<stop stop-color="#30A7FE" stop-opacity="0"/>
<stop offset="0.432292" stop-color="#30A7FE" stop-opacity="0.994652"/>
<stop offset="0.609375" stop-color="#30A7FE"/>
<stop offset="1" stop-color="#30A7FE" stop-opacity="0"/>
</linearGradient>
<clipPath id="clip0_5481_122225">
<rect width="160" height="160" rx="10" fill="white"/>
</clipPath>
</defs>
<clipPath id="mask0_5481_122225">
<path fill-rule="evenodd" d="M80 135.746C110.928 135.746 136 110.674 136 79.7461C136 48.8181 110.928 23.7461 80 23.7461C49.0721 23.7461 24 48.8181 24 79.7461C24 110.674 49.0721 135.746 80 135.746ZM68.3713 64.2461C68.3713 67.8359 65.4611 70.7461 61.8713 70.7461C58.2814 70.7461 55.3713 67.8359 55.3713 64.2461C55.3713 60.6562 58.2814 57.7461 61.8713 57.7461C65.4611 57.7461 68.3713 60.6562 68.3713 64.2461ZM105.371 64.2461C105.371 67.8359 102.461 70.7461 98.8712 70.7461C95.2814 70.7461 92.3712 67.8359 92.3712 64.2461C92.3712 60.6562 95.2814 57.7461 98.8712 57.7461C102.461 57.7461 105.371 60.6562 105.371 64.2461ZM108.249 90.9708C109.982 92.3418 110.275 94.8574 108.904 96.5897C105.534 100.847 101.208 104.286 96.2658 106.65C91.3241 109.014 85.8939 110.243 80.3937 110.246C74.8935 110.249 69.4618 109.027 64.5171 106.669C59.5721 104.311 55.2413 100.877 51.8666 96.6237C50.4936 94.8931 50.7834 92.3771 52.514 91.004C54.2446 89.631 56.7606 89.9208 58.1337 91.6514C60.7401 94.9364 64.1001 97.6074 67.9606 99.4484C71.8216 101.29 76.0744 102.249 80.3889 102.246C84.7035 102.243 88.955 101.279 92.8136 99.4337C96.6718 97.5881 100.028 94.9132 102.631 91.6251C104.001 89.8928 106.517 89.5999 108.249 90.9708Z" fill="#D9D9D9"/>
</clipPath>
<g clip-path="url(#mask0_5481_122225)">
<g clip-path="url(#clip0_5481_122225)">
<rect width="160" height="160" rx="10" fill="#D9F4FD"/>
<circle cx="142.62" cy="105.187" r="231.011" fill="url(#paint0_radial_5481_122225)"/>
<path d="M-14.3999 50.1137C-16.9679 -5.18932 25.7823 -52.103 81.0853 -54.6709C136.388 -57.2388 183.302 -14.4887 185.87 40.8143C188.438 96.1173 145.688 143.031 90.3846 145.599C35.0817 148.167 -11.832 105.417 -14.3999 50.1137Z" fill="url(#paint1_linear_5481_122225)"/>
<path d="M40.4184 -110.716C27.9428 -118.436 12.1362 -118.483 -0.385738 -110.838L-125.628 -34.3691C-137.894 -26.8797 -137.914 -9.20217 -125.665 -1.68455L-1.25042 74.676C11.2528 82.3487 27.0594 82.3396 39.5518 74.6486L163.71 -1.78335C175.895 -9.28493 175.917 -26.8637 163.748 -34.3936L40.4184 -110.716Z" fill="url(#paint2_linear_5481_122225)"/>
<path d="M-79.7631 76.5289C-53.9489 76.5289 -30.5656 86.9766 -13.6359 103.831C20.2235 137.599 48.2951 137.628 82.1545 103.918C99.0842 86.9766 122.496 76.5 148.34 76.5C199.997 76.5289 241.844 118.262 241.844 169.779C241.844 221.296 199.997 263 148.34 263C122.439 263 99.0263 252.495 82.0966 235.553C48.2661 201.901 20.2235 201.93 -13.6359 235.697C-30.5656 252.581 -53.9489 263 -79.7631 263C-131.392 263 -173.238 221.267 -173.238 169.779C-173.238 118.291 -131.392 76.5289 -79.7631 76.5289Z" fill="url(#paint3_linear_5481_122225)"/>
</g>
</g>

</svg>
