<svg width="160" height="160" viewBox="0 0 160 160" xmlns="http://www.w3.org/2000/svg">
  <defs>
<radialGradient id="paint0_radial_5481_122134" cx="0" cy="0" r="1" gradientUnits="userSpaceOnUse" gradientTransform="translate(137.789 98.1036) rotate(90) scale(215.453)">
<stop offset="0.0885417" stop-color="#EB1000"/>
<stop offset="1" stop-color="#EB1000" stop-opacity="0"/>
</radialGradient>
<linearGradient id="paint1_linear_5481_122134" x1="112.744" y1="-4.79843" x2="26.3239" y2="107.247" gradientUnits="userSpaceOnUse">
<stop stop-color="#FF4885"/>
<stop offset="1" stop-color="#FF4885" stop-opacity="0"/>
</linearGradient>
<linearGradient id="paint2_linear_5481_122134" x1="60.0937" y1="-56.3797" x2="76.7645" y2="50.3139" gradientUnits="userSpaceOnUse">
<stop offset="0.15625" stop-color="#7A6AFD"/>
<stop offset="1" stop-color="#7A6AFD" stop-opacity="0"/>
</linearGradient>
<linearGradient id="paint3_linear_5481_122134" x1="-132.263" y1="158.123" x2="148.236" y2="102.687" gradientUnits="userSpaceOnUse">
<stop stop-color="#30A7FE" stop-opacity="0"/>
<stop offset="0.432292" stop-color="#30A7FE" stop-opacity="0.994652"/>
<stop offset="0.609375" stop-color="#30A7FE"/>
<stop offset="1" stop-color="#30A7FE" stop-opacity="0"/>
</linearGradient>
<clipPath id="clip0_5481_122134">
<rect x="4.77344" width="149.225" height="149.225" rx="10" fill="white"/>
</clipPath>
</defs>
<clipPath id="mask0_5481_122134">
<path fill-rule="evenodd" d="M129.5 68V63.6364C129.5 56.2558 123.508 50.2727 116.115 50.2727H69.2692L54.1022 31.3436C52.4088 29.2302 49.8451 28 47.1345 28H22.4231C17.495 28 13.5 31.9887 13.5 36.9091V118.636C13.5 119.9 13.6757 121.123 14.0041 122.282C14.1034 120.579 14.4736 118.84 15.1508 117.108C15.1688 117.061 15.1873 117.015 15.2062 116.97L30.9936 78.6941C33.5864 72.159 39.949 68 46.8757 68H129.5ZM31.0645 132H31.0652H39.1538H129.123C129.123 132 129.123 132 129.124 132C129.362 132 129.599 131.991 129.834 131.973C133.3 131.708 136.332 129.52 137.586 126.313L153.397 87.98C155.516 82.5596 151.8 76.7735 146.1 76.071C145.72 76.0242 145.331 76 144.935 76C144.935 76 144.934 76 144.934 76H126.866H46.8757C43.1185 76 39.7514 78.2626 38.413 81.6867L22.6018 120.02C20.3417 125.802 24.72 132 31.0645 132Z" fill="white"/>
</clipPath>
<g clip-path="url(#mask0_5481_122134)">
<g clip-path="url(#clip0_5481_122134)">
<rect x="4.77344" width="149.225" height="149.225" rx="10" fill="#D9F4FD"/>
<circle cx="137.789" cy="98.1036" r="215.453" fill="url(#paint0_radial_5481_122134)"/>
<path d="M-8.65799 46.7389C-11.053 -4.83965 28.8181 -48.5938 80.3967 -50.9888C131.975 -53.3838 175.729 -13.5127 178.124 38.0658C180.519 89.6444 140.648 133.399 89.0697 135.794C37.4912 138.189 -6.26299 98.3174 -8.65799 46.7389Z" fill="url(#paint1_linear_5481_122134)"/>
<path d="M42.4709 -103.259C30.8355 -110.459 16.0934 -110.503 4.41475 -103.372L-112.393 -32.0533C-123.833 -25.0683 -123.852 -8.58129 -112.428 -1.56995L3.6083 69.648C15.2695 76.804 30.0116 76.7955 41.6627 69.6225L157.46 -1.6621C168.823 -8.65848 168.844 -25.0534 157.494 -32.0762L42.4709 -103.259Z" fill="url(#paint2_linear_5481_122134)"/>
<path d="M-69.6158 71.3746C-45.5401 71.3746 -23.7316 81.1187 -7.94203 96.8384C23.6371 128.332 49.8181 128.359 81.3972 96.9191C97.1868 81.1187 119.022 71.3477 143.125 71.3477C191.303 71.3746 230.332 110.297 230.332 158.345C230.332 206.392 191.303 245.288 143.125 245.288C118.968 245.288 97.1328 235.49 81.3433 219.689C49.7911 188.304 23.6371 188.33 -7.94203 219.824C-23.7316 235.57 -45.5401 245.288 -69.6158 245.288C-117.767 245.288 -156.796 206.365 -156.796 158.345C-156.796 110.324 -117.767 71.3746 -69.6158 71.3746Z" fill="url(#paint3_linear_5481_122134)"/>
</g>
</g>

</svg>
