<svg width="48" height="48" viewBox="0 0 48 48" xmlns="http://www.w3.org/2000/svg">
  <defs>
<radialGradient id="paint0_radial_5481_122419" cx="0" cy="0" r="1" gradientUnits="userSpaceOnUse" gradientTransform="translate(42.7877 31.5552) rotate(90) scale(69.3033)">
<stop offset="0.0885417" stop-color="#EB1000"/>
<stop offset="1" stop-color="#EB1000" stop-opacity="0"/>
</radialGradient>
<linearGradient id="paint1_linear_5481_122419" x1="34.7309" y1="-1.54315" x2="6.93278" y2="34.4977" gradientUnits="userSpaceOnUse">
<stop stop-color="#FF4885"/>
<stop offset="1" stop-color="#FF4885" stop-opacity="0"/>
</linearGradient>
<linearGradient id="paint2_linear_5481_122419" x1="17.7929" y1="-18.1348" x2="23.1553" y2="16.1845" gradientUnits="userSpaceOnUse">
<stop offset="0.15625" stop-color="#7A6AFD"/>
<stop offset="1" stop-color="#7A6AFD" stop-opacity="0"/>
</linearGradient>
<linearGradient id="paint3_linear_5481_122419" x1="-44.0785" y1="50.8616" x2="46.1473" y2="33.0298" gradientUnits="userSpaceOnUse">
<stop stop-color="#30A7FE" stop-opacity="0"/>
<stop offset="0.432292" stop-color="#30A7FE" stop-opacity="0.994652"/>
<stop offset="0.609375" stop-color="#30A7FE"/>
<stop offset="1" stop-color="#30A7FE" stop-opacity="0"/>
</linearGradient>
<clipPath id="clip0_5481_122419">
<rect width="48" height="48" rx="10" fill="white"/>
</clipPath>
</defs>
<clipPath id="mask0_5481_122419">
<path fill-rule="evenodd" d="M6.74609 7.82617C6.05574 7.82617 5.49609 8.38582 5.49609 9.07617C5.49609 9.76653 6.05574 10.3262 6.74609 10.3262C6.80512 10.3262 6.92609 10.327 7.10516 10.3282L7.10573 10.3282C7.26657 10.3292 7.47422 10.3306 7.72589 10.332C8.25138 10.3348 8.95489 10.3376 9.78301 10.3373C10.6555 10.337 11.3954 10.9649 11.5353 11.8133L14.4803 29.6738C14.8188 31.7265 16.5934 33.2324 18.6737 33.2324H34.8427C35.5331 33.2324 36.0927 32.6727 36.0927 31.9824C36.0927 31.292 35.5331 30.7324 34.8427 30.7324H18.6737C17.8171 30.7324 17.0864 30.1123 16.947 29.2671L16.3673 25.7514H33.5891C35.1416 25.7514 36.4772 24.6535 36.7777 23.1304L38.0126 16.8695C38.4076 14.8665 36.8811 12.9959 34.8347 12.991C27.8114 12.9742 17.2883 12.9574 14.2625 12.9865L14.0019 11.4065C13.6608 9.33796 11.866 7.83659 9.78211 7.83735C8.96012 7.83765 8.26167 7.83486 7.73959 7.832C7.50452 7.83072 7.30222 7.82939 7.14027 7.82833L7.14022 7.82833L7.1401 7.82833C6.94719 7.82706 6.81158 7.82617 6.74609 7.82617ZM20.5049 39C20.5049 40.3807 19.3856 41.5 18.0049 41.5C16.6242 41.5 15.5049 40.3807 15.5049 39C15.5049 37.6193 16.6242 36.5 18.0049 36.5C19.3856 36.5 20.5049 37.6193 20.5049 39ZM32.9668 41.5C34.3475 41.5 35.4668 40.3807 35.4668 39C35.4668 37.6193 34.3475 36.5 32.9668 36.5C31.5861 36.5 30.4668 37.6193 30.4668 39C30.4668 40.3807 31.5861 41.5 32.9668 41.5Z" fill="white"/>
</clipPath>
<g clip-path="url(#mask0_5481_122419)">
<g clip-path="url(#clip0_5481_122419)">
<rect width="48" height="48" rx="10" fill="#D9F4FD"/>
<circle cx="42.7877" cy="31.5552" r="69.3033" fill="url(#paint0_radial_5481_122419)"/>
<path d="M-4.31959 15.0345C-5.08998 -1.55641 7.73508 -15.6305 24.326 -16.4009C40.9169 -17.1713 54.991 -4.34621 55.7613 12.2447C56.5317 28.8356 43.7067 42.9097 27.1158 43.6801C10.5249 44.4504 -3.54921 31.6254 -4.31959 15.0345Z" fill="url(#paint1_linear_5481_122419)"/>
<path d="M12.1243 -33.214C8.38167 -35.53 3.6397 -35.5442 -0.116893 -33.2506L-37.6896 -10.3099C-41.3694 -8.06314 -41.3755 -2.75987 -37.7007 -0.504581L-0.376298 22.4036C3.37467 24.7054 8.11665 24.7027 11.8644 22.3954L49.1119 -0.534222C52.7672 -2.7847 52.7739 -8.05833 49.1231 -10.3173L12.1243 -33.214Z" fill="url(#paint2_linear_5481_122419)"/>
<path d="M-23.9274 22.9579C-16.1831 22.9579 -9.16812 26.0922 -4.0892 31.1486C6.06863 41.2789 14.4901 41.2875 24.6479 31.1746C29.7268 26.0922 36.7505 22.9492 44.5034 22.9492C60.0006 22.9579 72.5547 35.4778 72.5547 50.9329C72.5547 66.388 60.0006 78.8992 44.5034 78.8992C36.7331 78.8992 29.7095 75.7476 24.6306 70.6652C14.4814 60.5696 6.06863 60.5782 -4.0892 70.7085C-9.16812 75.7736 -16.1831 78.8992 -23.9274 78.8992C-39.4159 78.8992 -51.9699 66.3793 -51.9699 50.9329C-51.9699 35.4865 -39.4159 22.9579 -23.9274 22.9579Z" fill="url(#paint3_linear_5481_122419)"/>
</g>
</g>

</svg>
