<svg width="160" height="160" viewBox="0 0 160 160" xmlns="http://www.w3.org/2000/svg">
  <defs>
<radialGradient id="paint0_radial_5481_122264" cx="0" cy="0" r="1" gradientUnits="userSpaceOnUse" gradientTransform="translate(142.62 105.187) rotate(90) scale(231.011)">
<stop offset="0.0885417" stop-color="#EB1000"/>
<stop offset="1" stop-color="#EB1000" stop-opacity="0"/>
</radialGradient>
<linearGradient id="paint1_linear_5481_122264" x1="115.768" y1="-5.14512" x2="23.108" y2="114.991" gradientUnits="userSpaceOnUse">
<stop stop-color="#FF4885"/>
<stop offset="1" stop-color="#FF4885" stop-opacity="0"/>
</linearGradient>
<linearGradient id="paint2_linear_5481_122264" x1="59.3137" y1="-60.4521" x2="77.1884" y2="53.9458" gradientUnits="userSpaceOnUse">
<stop offset="0.15625" stop-color="#7A6AFD"/>
<stop offset="1" stop-color="#7A6AFD" stop-opacity="0"/>
</linearGradient>
<linearGradient id="paint3_linear_5481_122264" x1="-146.934" y1="169.541" x2="153.819" y2="110.102" gradientUnits="userSpaceOnUse">
<stop stop-color="#30A7FE" stop-opacity="0"/>
<stop offset="0.432292" stop-color="#30A7FE" stop-opacity="0.994652"/>
<stop offset="0.609375" stop-color="#30A7FE"/>
<stop offset="1" stop-color="#30A7FE" stop-opacity="0"/>
</linearGradient>
<clipPath id="clip0_5481_122264">
<rect width="160" height="160" rx="10" fill="white"/>
</clipPath>
</defs>
<clipPath id="mask0_5481_122264">
<path fill-rule="evenodd" d="M110.974 119.029C127.82 110.106 139.02 94.2885 139.02 76.2627C139.02 74.5952 138.924 72.9466 138.737 71.3207C140.994 71.0143 143.577 70.0827 145.878 68.1594C149.181 65.3987 151.487 60.9487 151.778 54.5408C151.878 52.3339 150.17 50.4637 147.963 50.3635C145.757 50.2633 143.886 51.9711 143.786 54.178C143.579 58.7459 142.044 60.9381 140.748 62.0211C139.458 63.0991 137.988 63.4295 137.072 63.4395C130.35 41.7859 107.009 25.8105 79.2472 25.8105C67.8348 25.8105 57.1695 28.5102 48.0986 33.1941L48.0996 33.1934C42.9116 27.6289 34.8959 25.8691 28.4676 25.815C25.6843 25.7916 24.2339 28.8051 25.6286 31.214L33.1218 44.1559L33.179 44.114C29.0659 48.3085 25.7414 53.074 23.3973 58.2487V58.2198L12.1916 64.7481C9.73172 66.1812 8.21875 68.8136 8.21875 71.6605V80.8663C8.21875 83.7144 9.73297 86.3478 12.1945 87.7804L23.3973 94.3008V94.2767C28.0506 104.549 36.5674 113.209 47.4475 118.99C47.4179 118.986 47.3935 118.985 47.3743 118.985L51.5143 130.258C52.3816 132.62 54.6304 134.189 57.1465 134.189H62.0655C64.5796 134.189 66.827 132.622 67.6959 130.263L69.25 126.043L69.0948 125.99C72.3945 126.467 75.7865 126.715 79.2472 126.715C82.6319 126.715 85.951 126.477 89.1822 126.021L89.1143 126.043L90.6684 130.263C91.5372 132.622 93.7847 134.189 96.2987 134.189H101.218C103.734 134.189 105.983 132.62 106.85 130.258L110.974 119.029ZM88.0051 44.0082C82.5847 42.801 78.0881 42.75 72.3524 44.0106C70.1947 44.4848 68.0612 43.1201 67.587 40.9624C67.1128 38.8048 68.4775 36.6713 70.6352 36.1971C77.5203 34.6839 83.1966 34.7413 89.7441 36.1995C91.9005 36.6797 93.2592 38.817 92.779 40.9733C92.2988 43.1297 90.1615 44.4884 88.0051 44.0082ZM49.9668 57.8398C49.9668 61.1536 47.2805 63.8398 43.9668 63.8398C40.6531 63.8398 37.9668 61.1536 37.9668 57.8398C37.9668 54.5261 40.6531 51.8398 43.9668 51.8398C47.2805 51.8398 49.9668 54.5261 49.9668 57.8398Z" fill="#292929"/>
</clipPath>
<g clip-path="url(#mask0_5481_122264)">
<g clip-path="url(#clip0_5481_122264)">
<rect width="160" height="160" rx="10" fill="#D9F4FD"/>
<circle cx="142.62" cy="105.187" r="231.011" fill="url(#paint0_radial_5481_122264)"/>
<path d="M-14.3999 50.1137C-16.9679 -5.18932 25.7823 -52.103 81.0853 -54.6709C136.388 -57.2388 183.302 -14.4887 185.87 40.8143C188.438 96.1173 145.688 143.031 90.3846 145.599C35.0817 148.167 -11.832 105.417 -14.3999 50.1137Z" fill="url(#paint1_linear_5481_122264)"/>
<path d="M40.4184 -110.716C27.9428 -118.436 12.1362 -118.483 -0.385738 -110.838L-125.628 -34.3691C-137.894 -26.8797 -137.914 -9.20217 -125.665 -1.68455L-1.25042 74.676C11.2528 82.3487 27.0594 82.3396 39.5518 74.6486L163.71 -1.78335C175.895 -9.28493 175.917 -26.8637 163.748 -34.3936L40.4184 -110.716Z" fill="url(#paint2_linear_5481_122264)"/>
<path d="M-79.7631 76.5289C-53.9489 76.5289 -30.5656 86.9766 -13.6359 103.831C20.2235 137.599 48.2951 137.628 82.1545 103.918C99.0842 86.9766 122.496 76.5 148.34 76.5C199.997 76.5289 241.844 118.262 241.844 169.779C241.844 221.296 199.997 263 148.34 263C122.439 263 99.0263 252.495 82.0966 235.553C48.2661 201.901 20.2235 201.93 -13.6359 235.697C-30.5656 252.581 -53.9489 263 -79.7631 263C-131.392 263 -173.238 221.267 -173.238 169.779C-173.238 118.291 -131.392 76.5289 -79.7631 76.5289Z" fill="url(#paint3_linear_5481_122264)"/>
</g>
</g>

</svg>
