<svg width="48" height="48" viewBox="0 0 48 48" xmlns="http://www.w3.org/2000/svg">
  <defs>
<radialGradient id="paint0_radial_5481_122338" cx="0" cy="0" r="1" gradientUnits="userSpaceOnUse" gradientTransform="translate(38.9297 30.552) rotate(90) scale(53.4895 56.7422)">
<stop offset="0.0885417" stop-color="#EB1000"/>
<stop offset="1" stop-color="#EB1000" stop-opacity="0"/>
</radialGradient>
<linearGradient id="paint1_linear_5481_122338" x1="32.3345" y1="5.00653" x2="11.2328" y2="34.0291" gradientUnits="userSpaceOnUse">
<stop stop-color="#FF4885"/>
<stop offset="1" stop-color="#FF4885" stop-opacity="0"/>
</linearGradient>
<linearGradient id="paint2_linear_5481_122338" x1="18.4665" y1="-7.80043" x2="22.3784" y2="18.7583" gradientUnits="userSpaceOnUse">
<stop offset="0.15625" stop-color="#7A6AFD"/>
<stop offset="1" stop-color="#7A6AFD" stop-opacity="0"/>
</linearGradient>
<linearGradient id="paint3_linear_5481_122338" x1="-32.1929" y1="45.4534" x2="41.3333" y2="30.0384" gradientUnits="userSpaceOnUse">
<stop stop-color="#30A7FE" stop-opacity="0"/>
<stop offset="0.432292" stop-color="#30A7FE" stop-opacity="0.994652"/>
<stop offset="0.609375" stop-color="#30A7FE"/>
<stop offset="1" stop-color="#30A7FE" stop-opacity="0"/>
</linearGradient>
<clipPath id="clip0_5481_122338">
<rect x="3.89844" y="6.19727" width="39.3001" height="37.0472" rx="10" fill="white"/>
</clipPath>
</defs>
<clipPath id="mask0_5481_122338">
<path fill-rule="evenodd" d="M18.3372 11.9153L20.0337 13.6118L21.7677 15.3458L25.1577 18.7358C26.2557 19.8338 28.0347 19.8338 29.1327 18.7358C30.2307 17.6378 30.2307 15.8588 29.1327 14.7608L25.7427 11.3708L24.0087 9.63683L23.4447 9.07283C23.0427 8.67683 22.5897 8.37083 22.1067 8.14583C22.0913 8.13848 22.0759 8.13097 22.0605 8.12346C22.0068 8.09723 21.9526 8.07081 21.8967 8.04983C21.7077 7.97183 21.5127 7.91183 21.3177 7.85783C19.7157 7.43183 17.9397 7.84283 16.6827 9.09683L7.55367 18.2258C6.08667 19.6928 5.77467 21.8708 6.60267 23.6498L16.6407 13.6118L18.3372 11.9153ZM31.3162 9.12083L40.4452 18.2498V18.2558C42.3202 20.1308 42.3202 23.1698 40.4452 25.0448L30.2812 35.2088L25.9972 39.4928C24.8992 40.5908 23.1202 40.5908 22.0222 39.4898H22.0192C20.9212 38.3918 20.9212 36.6128 22.0192 35.5148C20.9212 36.6128 19.1422 36.6128 18.0442 35.5118H18.0412C16.9522 34.4228 16.9462 32.6648 18.0172 31.5638C16.9162 32.6348 15.1582 32.6258 14.0692 31.5338H14.0662C12.9682 30.4358 12.9682 28.6538 14.0662 27.5558H14.0632C12.9652 28.6538 11.1862 28.6538 10.0882 27.5528H10.0852C9.9982 27.4658 9.92021 27.3728 9.84821 27.2798C8.99621 26.1758 9.0742 24.5858 10.0852 23.5748L14.5732 19.0838L18.3412 15.3158L20.0752 17.0498L23.4652 20.4398C24.4492 21.4238 25.7572 21.9668 27.1492 21.9668C28.5412 21.9668 29.8492 21.4238 30.8332 20.4398C32.8642 18.4058 32.8642 15.0998 30.8332 13.0688L25.9222 8.15783C27.6922 7.34483 29.8552 7.65983 31.3162 9.12083Z" fill="white"/>
</clipPath>
<g clip-path="url(#mask0_5481_122338)">
<g clip-path="url(#clip0_5481_122338)">
<rect x="3.89844" y="6.19727" width="39.3001" height="37.0472" rx="10" fill="#D9F4FD"/>
<ellipse cx="38.9297" cy="30.552" rx="56.7422" ry="53.4895" fill="url(#paint0_radial_5481_122338)"/>
<path d="M0.361813 17.8014C-0.26894 4.99629 10.2316 -5.86634 23.8154 -6.46094C37.3993 -7.05553 48.9225 2.84308 49.5532 15.6482C50.184 28.4534 39.6834 39.316 26.0996 39.9106C12.5158 40.5052 0.992566 30.6066 0.361813 17.8014Z" fill="url(#paint1_linear_5481_122338)"/>
<path d="M13.8253 -19.4388C10.761 -21.2263 6.87845 -21.2373 3.80273 -19.4671L-26.96 -1.76103C-29.9728 -0.0269138 -29.9779 4.06625 -26.9691 5.80692L3.59035 23.4878C6.66146 25.2644 10.544 25.2623 13.6124 23.4815L44.109 5.78404C47.1018 4.04708 47.1072 -0.0232016 44.1181 -1.76671L13.8253 -19.4388Z" fill="url(#paint2_linear_5481_122338)"/>
<path d="M-15.6941 23.9168C-9.35351 23.9168 -3.60998 26.336 0.548396 30.2386C8.86515 38.0573 15.7602 38.064 24.077 30.2587C28.2354 26.336 33.986 23.9102 40.3337 23.9102C53.0221 23.9168 63.3008 33.5799 63.3008 45.5084C63.3008 57.4369 53.0221 67.0934 40.3337 67.0934C33.9718 67.0934 28.2211 64.6609 24.0628 60.7382C15.7531 52.9462 8.86515 52.9529 0.548396 60.7716C-3.60998 64.6809 -9.35351 67.0934 -15.6941 67.0934C-28.3754 67.0934 -38.6541 57.4303 -38.6541 45.5084C-38.6541 33.5866 -28.3754 23.9168 -15.6941 23.9168Z" fill="url(#paint3_linear_5481_122338)"/>
</g>
</g>

</svg>
