<svg width="96" height="96" viewBox="0 0 96 96" xmlns="http://www.w3.org/2000/svg">
  <defs>
<radialGradient id="paint0_radial_5481_122591" cx="0" cy="0" r="1" gradientUnits="userSpaceOnUse" gradientTransform="translate(85.5714 63.1124) rotate(90) scale(138.607)">
<stop offset="0.0885417" stop-color="#EB1000"/>
<stop offset="1" stop-color="#EB1000" stop-opacity="0"/>
</radialGradient>
<linearGradient id="paint1_linear_5481_122591" x1="69.4617" y1="-3.08825" x2="13.8656" y2="68.9935" gradientUnits="userSpaceOnUse">
<stop stop-color="#FF4885"/>
<stop offset="1" stop-color="#FF4885" stop-opacity="0"/>
</linearGradient>
<linearGradient id="paint2_linear_5481_122591" x1="35.5898" y1="-36.2716" x2="46.3146" y2="32.3671" gradientUnits="userSpaceOnUse">
<stop offset="0.15625" stop-color="#7A6AFD"/>
<stop offset="1" stop-color="#7A6AFD" stop-opacity="0"/>
</linearGradient>
<linearGradient id="paint3_linear_5481_122591" x1="-88.1609" y1="101.725" x2="92.2907" y2="66.0615" gradientUnits="userSpaceOnUse">
<stop stop-color="#30A7FE" stop-opacity="0"/>
<stop offset="0.432292" stop-color="#30A7FE" stop-opacity="0.994652"/>
<stop offset="0.609375" stop-color="#30A7FE"/>
<stop offset="1" stop-color="#30A7FE" stop-opacity="0"/>
</linearGradient>
<clipPath id="clip0_5481_122591">
<rect width="96" height="96" rx="10" fill="white"/>
</clipPath>
</defs>
<clipPath id="mask0_5481_122591">
<path fill-rule="evenodd" d="M76.03 41.6442L86.645 31.0292C87.4261 30.2482 87.4261 28.9819 86.645 28.2008L76.03 17.5858C75.249 16.8047 73.9826 16.8047 73.2016 17.5858C72.4205 18.3668 72.4205 19.6332 73.2016 20.4142L80.1995 27.4121H75.4129C70.4921 27.4121 65.9527 29.0694 62.3303 31.8552C62.2786 31.895 62.2293 31.9368 62.1825 31.9805C62.1548 32.0001 62.1275 32.0205 62.1005 32.0416C59.4283 34.1397 56.9255 37.1995 54.958 40.0194C52.9829 42.8502 51.4409 45.5941 50.7245 47.1752C50.1546 48.4327 48.7443 51.4204 46.8771 54.5603C45.2699 57.2629 43.4199 59.912 41.5694 61.7042C41.5177 61.7428 41.4674 61.7842 41.4187 61.8284C38.3136 64.65 34.1941 66.3672 29.6689 66.3672C20.0164 66.3672 12.1914 58.5422 12.1914 48.8896C12.1914 39.2371 20.0164 31.4121 29.6689 31.4121C35.5719 31.4121 40.7919 34.3366 43.9594 38.8247L43.9594 38.8247L43.9665 38.8347L45.989 41.6633C46.6314 42.5618 47.8806 42.7694 48.7792 42.1269C49.6777 41.4845 49.8853 40.2353 49.2428 39.3367L47.2238 36.5131C43.3387 31.0115 36.9242 27.4121 29.6689 27.4121C17.8072 27.4121 8.19141 37.0279 8.19141 48.8896C8.19141 60.7514 17.8072 70.3672 29.6689 70.3672C34.5942 70.3672 39.1353 68.7073 42.7585 65.9187C42.8542 65.8661 42.947 65.8049 43.0356 65.735C45.8274 63.5333 48.3764 59.8649 50.3151 56.6048C52.2869 53.2891 53.7658 50.1548 54.3679 48.8261C54.9606 47.5179 56.3685 44.9883 58.2385 42.3082C60.116 39.6172 62.3533 36.9287 64.5707 35.1878C64.6167 35.1517 64.6606 35.114 64.7026 35.0748C64.7249 35.059 64.747 35.0428 64.7688 35.026C67.7166 32.759 71.4046 31.4121 75.4129 31.4121H80.6053L73.2016 38.8158C72.4205 39.5969 72.4205 40.8632 73.2016 41.6442C73.9826 42.4253 75.249 42.4253 76.03 41.6442ZM80.8114 70.3672C81.916 70.3672 82.8114 69.4718 82.8114 68.3672C82.8114 67.2626 81.916 66.3672 80.8114 66.3672H75.4129C69.6018 66.3672 64.9162 63.0212 60.8553 58.5902L58.518 55.7655C57.8138 54.9145 56.5531 54.7955 55.7021 55.4997C54.8511 56.2038 54.732 57.4646 55.4362 58.3156L57.8054 61.1788L57.837 61.2169L57.8704 61.2535C62.2083 65.997 67.9009 70.3672 75.4129 70.3672H80.8114Z" fill="white"/>
</clipPath>
<g clip-path="url(#mask0_5481_122591)">
<g clip-path="url(#clip0_5481_122591)">
<rect width="96" height="96" rx="10" fill="#D9F4FD"/>
<circle cx="85.5714" cy="63.1124" r="138.607" fill="url(#paint0_radial_5481_122591)"/>
<path d="M-8.63919 30.067C-10.18 -3.11477 15.4702 -31.263 48.652 -32.8037C81.8337 -34.3445 109.982 -8.69438 111.523 24.4874C113.063 57.6692 87.4133 85.8174 54.2316 87.3582C21.0498 88.8989 -7.09842 63.2488 -8.63919 30.067Z" fill="url(#paint1_linear_5481_122591)"/>
<path d="M24.2526 -66.43C16.7672 -71.0619 7.28331 -71.0903 -0.22988 -66.5032L-75.3753 -20.6218C-82.7348 -16.1282 -82.7471 -5.52169 -75.3976 -1.01111L-0.748691 44.8052C6.75324 49.4089 16.2372 49.4034 23.7327 44.7888L98.2278 -1.0704C105.538 -5.57135 105.552 -16.1186 98.2501 -20.6366L24.2526 -66.43Z" fill="url(#paint2_linear_5481_122591)"/>
<path d="M-47.8586 45.9177C-32.3701 45.9177 -18.3401 52.1863 -8.18231 62.2992C12.1334 82.5597 28.9763 82.577 49.2919 62.3512C59.4498 52.1863 73.4971 45.9004 89.003 45.9004C119.997 45.9177 145.105 70.9575 145.105 101.868C145.105 132.778 119.997 157.8 89.003 157.8C73.4624 157.8 59.415 151.497 49.2572 141.332C28.9589 121.141 12.1334 121.158 -8.18231 141.419C-18.3401 151.549 -32.3701 157.8 -47.8586 157.8C-78.8357 157.8 -103.944 132.761 -103.944 101.868C-103.944 70.9749 -78.8357 45.9177 -47.8586 45.9177Z" fill="url(#paint3_linear_5481_122591)"/>
</g>
</g>

</svg>
