<svg width="96" height="96" viewBox="0 0 96 96" xmlns="http://www.w3.org/2000/svg">
  <defs>
<radialGradient id="paint0_radial_5481_122568" cx="0" cy="0" r="1" gradientUnits="userSpaceOnUse" gradientTransform="translate(85.5714 63.1124) rotate(90) scale(138.607)">
<stop offset="0.0885417" stop-color="#EB1000"/>
<stop offset="1" stop-color="#EB1000" stop-opacity="0"/>
</radialGradient>
<linearGradient id="paint1_linear_5481_122568" x1="69.4617" y1="-3.08825" x2="13.8656" y2="68.9935" gradientUnits="userSpaceOnUse">
<stop stop-color="#FF4885"/>
<stop offset="1" stop-color="#FF4885" stop-opacity="0"/>
</linearGradient>
<linearGradient id="paint2_linear_5481_122568" x1="35.5898" y1="-36.2716" x2="46.3146" y2="32.3671" gradientUnits="userSpaceOnUse">
<stop offset="0.15625" stop-color="#7A6AFD"/>
<stop offset="1" stop-color="#7A6AFD" stop-opacity="0"/>
</linearGradient>
<linearGradient id="paint3_linear_5481_122568" x1="-88.1609" y1="101.725" x2="92.2907" y2="66.0615" gradientUnits="userSpaceOnUse">
<stop stop-color="#30A7FE" stop-opacity="0"/>
<stop offset="0.432292" stop-color="#30A7FE" stop-opacity="0.994652"/>
<stop offset="0.609375" stop-color="#30A7FE"/>
<stop offset="1" stop-color="#30A7FE" stop-opacity="0"/>
</linearGradient>
<clipPath id="clip0_5481_122568">
<rect width="96" height="96" rx="10" fill="white"/>
</clipPath>
</defs>
<clipPath id="mask0_5481_122568">
<path fill-rule="evenodd" d="M38.0889 14.782C47.789 11.6011 58.1873 12.668 64.9284 15.7093C78.7456 21.9431 83.3098 35.3309 81.2879 46.8196C79.2807 58.2249 70.588 68.4016 57.4988 67.496C45.3016 66.6522 38.8651 62.0414 36.2701 56.1148C33.7599 50.3821 35.1519 44.0646 37.191 40.2985C42.4648 30.5581 51.4744 29.0653 57.0719 29.2431C60.4856 29.3516 62.5705 32.4424 62.2942 35.4463L59.7108 63.5392C69.0963 63.2055 75.6853 55.5767 77.3484 46.1263C79.1091 36.122 75.1578 24.7127 63.2834 19.3554C57.4528 16.7249 48.0859 15.7133 39.3353 18.5828C30.7038 21.4133 22.6594 28.0162 19.1912 40.7453C16.4337 50.8659 19.6607 60.5474 25.8409 67.7057C32.0517 74.8994 41.0722 79.34 49.5479 79.0956C50.652 79.0638 51.5728 79.933 51.6047 81.0371C51.6365 82.1413 50.7672 83.0621 49.6631 83.0939C39.7815 83.3788 29.6667 78.2579 22.8132 70.3197C15.929 62.346 12.1627 51.3253 15.3319 39.6938C19.1777 25.5786 28.2696 18.002 38.0889 14.782ZM55.7142 63.3187L58.311 35.08C58.4137 33.9631 57.6673 33.2641 56.9449 33.2411C52.1072 33.0874 44.9617 34.3476 40.7085 42.2031C39.0708 45.2278 38.0566 50.2223 39.9342 54.5104C41.6139 58.3466 45.8858 62.2043 55.7142 63.3187Z" fill="#292929"/>
</clipPath>
<g clip-path="url(#mask0_5481_122568)">
<g clip-path="url(#clip0_5481_122568)">
<rect width="96" height="96" rx="10" fill="#D9F4FD"/>
<circle cx="85.5714" cy="63.1124" r="138.607" fill="url(#paint0_radial_5481_122568)"/>
<path d="M-8.63919 30.067C-10.18 -3.11477 15.4702 -31.263 48.652 -32.8037C81.8337 -34.3445 109.982 -8.69438 111.523 24.4874C113.063 57.6692 87.4133 85.8174 54.2316 87.3582C21.0498 88.8989 -7.09842 63.2488 -8.63919 30.067Z" fill="url(#paint1_linear_5481_122568)"/>
<path d="M24.2526 -66.43C16.7672 -71.0619 7.28331 -71.0903 -0.22988 -66.5032L-75.3753 -20.6218C-82.7348 -16.1282 -82.7471 -5.52169 -75.3976 -1.01111L-0.748691 44.8052C6.75324 49.4089 16.2372 49.4034 23.7327 44.7888L98.2278 -1.0704C105.538 -5.57135 105.552 -16.1186 98.2501 -20.6366L24.2526 -66.43Z" fill="url(#paint2_linear_5481_122568)"/>
<path d="M-47.8586 45.9177C-32.3701 45.9177 -18.3401 52.1863 -8.18231 62.2992C12.1334 82.5597 28.9763 82.577 49.2919 62.3512C59.4498 52.1863 73.4971 45.9004 89.003 45.9004C119.997 45.9177 145.105 70.9575 145.105 101.868C145.105 132.778 119.997 157.8 89.003 157.8C73.4624 157.8 59.415 151.497 49.2572 141.332C28.9589 121.141 12.1334 121.158 -8.18231 141.419C-18.3401 151.549 -32.3701 157.8 -47.8586 157.8C-78.8357 157.8 -103.944 132.761 -103.944 101.868C-103.944 70.9749 -78.8357 45.9177 -47.8586 45.9177Z" fill="url(#paint3_linear_5481_122568)"/>
</g>
</g>

</svg>
