<svg width="160" height="160" viewBox="0 0 160 160" xmlns="http://www.w3.org/2000/svg">
  <defs>
<radialGradient id="paint0_radial_5481_122217" cx="0" cy="0" r="1" gradientUnits="userSpaceOnUse" gradientTransform="translate(142.62 105.187) rotate(90) scale(231.011)">
<stop offset="0.0885417" stop-color="#EB1000"/>
<stop offset="1" stop-color="#EB1000" stop-opacity="0"/>
</radialGradient>
<linearGradient id="paint1_linear_5481_122217" x1="115.768" y1="-5.14512" x2="23.108" y2="114.991" gradientUnits="userSpaceOnUse">
<stop stop-color="#FF4885"/>
<stop offset="1" stop-color="#FF4885" stop-opacity="0"/>
</linearGradient>
<linearGradient id="paint2_linear_5481_122217" x1="59.3137" y1="-60.4521" x2="77.1884" y2="53.9458" gradientUnits="userSpaceOnUse">
<stop offset="0.15625" stop-color="#7A6AFD"/>
<stop offset="1" stop-color="#7A6AFD" stop-opacity="0"/>
</linearGradient>
<linearGradient id="paint3_linear_5481_122217" x1="-146.934" y1="169.541" x2="153.819" y2="110.102" gradientUnits="userSpaceOnUse">
<stop stop-color="#30A7FE" stop-opacity="0"/>
<stop offset="0.432292" stop-color="#30A7FE" stop-opacity="0.994652"/>
<stop offset="0.609375" stop-color="#30A7FE"/>
<stop offset="1" stop-color="#30A7FE" stop-opacity="0"/>
</linearGradient>
<clipPath id="clip0_5481_122217">
<rect width="160" height="160" rx="10" fill="white"/>
</clipPath>
</defs>
<clipPath id="mask0_5481_122217">
<path fill-rule="evenodd" d="M126.787 55.0178L136.103 57.2044C140.24 58.1737 143.102 53.0003 140.229 49.7487L133.759 42.4226C132.798 41.3349 132.409 39.819 132.722 38.3763L134.818 28.6551C135.747 24.3384 130.789 21.3516 127.673 24.3497L120.652 31.1009C119.609 32.104 118.157 32.5098 116.774 32.1829L107.458 29.9964C103.321 29.0271 100.459 34.2004 103.332 37.4521L109.802 44.7782C110.176 45.2012 110.463 45.6891 110.656 46.2122C110.773 46.5297 110.856 46.8601 110.902 47.197C110.975 47.732 110.956 48.2832 110.839 48.8241L108.743 58.5452C108.627 59.085 108.603 59.6039 108.656 60.093C108.695 60.4597 108.778 60.8096 108.898 61.1388C109.895 63.8827 113.454 65.1933 115.888 62.8511L122.909 56.0998C123.951 55.0967 125.404 54.691 126.787 55.0178ZM94.3867 36.7793H49.957C41.1205 36.7793 33.957 43.9427 33.957 52.7793V112.866C33.957 121.703 41.1205 128.866 49.957 128.866H110.044C118.881 128.866 126.044 121.703 126.044 112.866V64.1836L121.435 68.6158L121.433 68.6172C116.995 72.8858 110.946 72.8698 106.67 70.2933C102.449 67.7498 99.6862 62.606 100.922 56.8622L102.664 48.7812L97.3367 42.7489L97.3354 42.7473C95.7193 40.9178 94.7778 38.8587 94.3867 36.7793ZM97.1362 86.5835L90.2888 85.0406C89.3822 84.8379 88.4418 85.0913 87.7605 85.7163L82.6024 90.4746C80.5696 92.3497 77.3374 90.4802 77.9455 87.7886L79.4884 80.9412C79.6912 80.0346 79.4378 79.0942 78.8127 78.4128L74.0544 73.2548C72.1793 71.2219 74.0488 67.9897 76.7405 68.5979L83.5879 70.1408C84.4945 70.3435 85.4348 70.0901 86.1162 69.4651L91.2743 64.7068C93.3071 62.8316 96.5393 64.7012 95.9312 67.3928L94.3882 74.2402C94.1855 75.1468 94.4389 76.0872 95.064 76.7685L99.8222 81.9266C101.697 83.9594 99.8279 87.1917 97.1362 86.5835Z" fill="white"/>
</clipPath>
<g clip-path="url(#mask0_5481_122217)">
<g clip-path="url(#clip0_5481_122217)">
<rect width="160" height="160" rx="10" fill="#D9F4FD"/>
<circle cx="142.62" cy="105.187" r="231.011" fill="url(#paint0_radial_5481_122217)"/>
<path d="M-14.3999 50.1137C-16.9679 -5.18932 25.7823 -52.103 81.0853 -54.6709C136.388 -57.2388 183.302 -14.4887 185.87 40.8143C188.438 96.1173 145.688 143.031 90.3846 145.599C35.0817 148.167 -11.832 105.417 -14.3999 50.1137Z" fill="url(#paint1_linear_5481_122217)"/>
<path d="M40.4184 -110.716C27.9428 -118.436 12.1362 -118.483 -0.385738 -110.838L-125.628 -34.3691C-137.894 -26.8797 -137.914 -9.20217 -125.665 -1.68455L-1.25042 74.676C11.2528 82.3487 27.0594 82.3396 39.5518 74.6486L163.71 -1.78335C175.895 -9.28493 175.917 -26.8637 163.748 -34.3936L40.4184 -110.716Z" fill="url(#paint2_linear_5481_122217)"/>
<path d="M-79.7631 76.5289C-53.9489 76.5289 -30.5656 86.9766 -13.6359 103.831C20.2235 137.599 48.2951 137.628 82.1545 103.918C99.0842 86.9766 122.496 76.5 148.34 76.5C199.997 76.5289 241.844 118.262 241.844 169.779C241.844 221.296 199.997 263 148.34 263C122.439 263 99.0263 252.495 82.0966 235.553C48.2661 201.901 20.2235 201.93 -13.6359 235.697C-30.5656 252.581 -53.9489 263 -79.7631 263C-131.392 263 -173.238 221.267 -173.238 169.779C-173.238 118.291 -131.392 76.5289 -79.7631 76.5289Z" fill="url(#paint3_linear_5481_122217)"/>
</g>
</g>

</svg>
