<svg width="96" height="96" viewBox="0 0 96 96" xmlns="http://www.w3.org/2000/svg">
  <defs>
<radialGradient id="paint0_radial_5481_122536" cx="0" cy="0" r="1" gradientUnits="userSpaceOnUse" gradientTransform="translate(85.5714 63.1124) rotate(90) scale(138.607)">
<stop offset="0.0885417" stop-color="#EB1000"/>
<stop offset="1" stop-color="#EB1000" stop-opacity="0"/>
</radialGradient>
<linearGradient id="paint1_linear_5481_122536" x1="69.4617" y1="-3.08825" x2="13.8656" y2="68.9935" gradientUnits="userSpaceOnUse">
<stop stop-color="#FF4885"/>
<stop offset="1" stop-color="#FF4885" stop-opacity="0"/>
</linearGradient>
<linearGradient id="paint2_linear_5481_122536" x1="35.5898" y1="-36.2716" x2="46.3146" y2="32.3671" gradientUnits="userSpaceOnUse">
<stop offset="0.15625" stop-color="#7A6AFD"/>
<stop offset="1" stop-color="#7A6AFD" stop-opacity="0"/>
</linearGradient>
<linearGradient id="paint3_linear_5481_122536" x1="-88.1609" y1="101.725" x2="92.2907" y2="66.0615" gradientUnits="userSpaceOnUse">
<stop stop-color="#30A7FE" stop-opacity="0"/>
<stop offset="0.432292" stop-color="#30A7FE" stop-opacity="0.994652"/>
<stop offset="0.609375" stop-color="#30A7FE"/>
<stop offset="1" stop-color="#30A7FE" stop-opacity="0"/>
</linearGradient>
<clipPath id="clip0_5481_122536">
<rect width="96" height="96" rx="10" fill="white"/>
</clipPath>
</defs>
<clipPath id="mask0_5481_122536">
<path fill-rule="evenodd" d="M18.25 26.0508C18.25 22.7371 20.9363 20.0508 24.25 20.0508H62C65.3137 20.0508 68 22.7371 68 26.0508V37.75H49.5518C46.4084 37.75 43.6037 39.2003 41.7705 41.4684L38.6701 36.4772L38.6672 36.4725C36.7222 33.3144 32.1468 33.2656 30.1353 36.3834L30.1339 36.3856L18.6751 54.1971C18.4008 53.5098 18.25 52.7598 18.25 51.9746V26.0508ZM35.2672 38.5796L39.7443 45.7871C39.618 46.4218 39.5518 47.0782 39.5518 47.75V57.9746H24.25C23.2376 57.9746 22.2838 57.7239 21.4473 57.2811L33.4965 38.5519L33.4971 38.551C33.9137 37.9067 34.8602 37.9174 35.262 38.5713L35.262 38.5713L35.2672 38.5796ZM59.145 31.418C59.145 33.0748 57.8019 34.418 56.145 34.418C54.4882 34.418 53.145 33.0748 53.145 31.418C53.145 29.7611 54.4882 28.418 56.145 28.418C57.8019 28.418 59.145 29.7611 59.145 31.418ZM43.5518 47.75C43.5518 44.4363 46.2381 41.75 49.5518 41.75H71.7501C75.0638 41.75 77.7501 44.4363 77.7501 47.75V69.9483C77.7501 73.262 75.0638 75.9483 71.7501 75.9483H49.5518C46.238 75.9483 43.5518 73.262 43.5518 69.9483V47.75ZM68.0315 57.7098L56.8174 51.2776C55.5614 50.5572 53.9894 51.4539 53.9877 52.8917L53.9722 65.7297C53.9704 67.1674 55.5403 68.0679 56.798 67.3505L68.0276 60.9448C69.2853 60.2274 69.2875 58.4302 68.0315 57.7098Z" fill="white"/>
</clipPath>
<g clip-path="url(#mask0_5481_122536)">
<g clip-path="url(#clip0_5481_122536)">
<rect width="96" height="96" rx="10" fill="#D9F4FD"/>
<circle cx="85.5714" cy="63.1124" r="138.607" fill="url(#paint0_radial_5481_122536)"/>
<path d="M-8.63919 30.067C-10.18 -3.11477 15.4702 -31.263 48.652 -32.8037C81.8337 -34.3445 109.982 -8.69438 111.523 24.4874C113.063 57.6692 87.4133 85.8174 54.2316 87.3582C21.0498 88.8989 -7.09842 63.2488 -8.63919 30.067Z" fill="url(#paint1_linear_5481_122536)"/>
<path d="M24.2526 -66.43C16.7672 -71.0619 7.28331 -71.0903 -0.22988 -66.5032L-75.3753 -20.6218C-82.7348 -16.1282 -82.7471 -5.52169 -75.3976 -1.01111L-0.748691 44.8052C6.75324 49.4089 16.2372 49.4034 23.7327 44.7888L98.2278 -1.0704C105.538 -5.57135 105.552 -16.1186 98.2501 -20.6366L24.2526 -66.43Z" fill="url(#paint2_linear_5481_122536)"/>
<path d="M-47.8586 45.9177C-32.3701 45.9177 -18.3401 52.1863 -8.18231 62.2992C12.1334 82.5597 28.9763 82.577 49.2919 62.3512C59.4498 52.1863 73.4971 45.9004 89.003 45.9004C119.997 45.9177 145.105 70.9575 145.105 101.868C145.105 132.778 119.997 157.8 89.003 157.8C73.4624 157.8 59.415 151.497 49.2572 141.332C28.9589 121.141 12.1334 121.158 -8.18231 141.419C-18.3401 151.549 -32.3701 157.8 -47.8586 157.8C-78.8357 157.8 -103.944 132.761 -103.944 101.868C-103.944 70.9749 -78.8357 45.9177 -47.8586 45.9177Z" fill="url(#paint3_linear_5481_122536)"/>
</g>
</g>

</svg>
