<svg width="48" height="48" viewBox="0 0 48 48" xmlns="http://www.w3.org/2000/svg">
  <defs>
<radialGradient id="paint0_radial_5481_122404" cx="0" cy="0" r="1" gradientUnits="userSpaceOnUse" gradientTransform="translate(42.7877 31.5552) rotate(90) scale(69.3033)">
<stop offset="0.0885417" stop-color="#EB1000"/>
<stop offset="1" stop-color="#EB1000" stop-opacity="0"/>
</radialGradient>
<linearGradient id="paint1_linear_5481_122404" x1="34.7309" y1="-1.54315" x2="6.93278" y2="34.4977" gradientUnits="userSpaceOnUse">
<stop stop-color="#FF4885"/>
<stop offset="1" stop-color="#FF4885" stop-opacity="0"/>
</linearGradient>
<linearGradient id="paint2_linear_5481_122404" x1="17.7929" y1="-18.1348" x2="23.1553" y2="16.1845" gradientUnits="userSpaceOnUse">
<stop offset="0.15625" stop-color="#7A6AFD"/>
<stop offset="1" stop-color="#7A6AFD" stop-opacity="0"/>
</linearGradient>
<linearGradient id="paint3_linear_5481_122404" x1="-44.0785" y1="50.8616" x2="46.1473" y2="33.0298" gradientUnits="userSpaceOnUse">
<stop stop-color="#30A7FE" stop-opacity="0"/>
<stop offset="0.432292" stop-color="#30A7FE" stop-opacity="0.994652"/>
<stop offset="0.609375" stop-color="#30A7FE"/>
<stop offset="1" stop-color="#30A7FE" stop-opacity="0"/>
</linearGradient>
<clipPath id="clip0_5481_122404">
<rect width="48" height="48" rx="10" fill="white"/>
</clipPath>
</defs>
<clipPath id="mask0_5481_122404">
<path fill-rule="evenodd" d="M18.9667 7.15441C23.8761 5.54449 29.1397 6.08143 32.5671 7.62775C39.5972 10.7994 41.9176 17.617 40.8903 23.4541C39.8722 29.2391 35.4443 34.4628 28.7323 33.9984C22.5777 33.5726 19.2538 31.2365 17.9062 28.1587C16.6115 25.202 17.3312 21.9606 18.3758 20.0312C21.0765 15.0432 25.6978 14.2822 28.544 14.3727C30.4191 14.4322 31.5452 16.1271 31.3962 17.747L30.1309 31.5056C34.5244 31.2018 37.6276 27.5698 38.4281 23.0208C39.2921 18.1114 37.3548 12.5304 31.539 9.90657C28.6806 8.61697 24.0616 8.11463 19.7457 9.52995C15.5042 10.9208 11.5474 14.1614 9.83694 20.4394C8.48393 25.4052 10.0637 30.1623 13.1098 33.6904C16.175 37.2407 20.6169 39.4185 24.7669 39.2989C25.4569 39.279 26.0325 39.8223 26.0524 40.5123C26.0723 41.2024 25.529 41.778 24.8389 41.7978C19.8102 41.9428 14.6844 39.3398 11.2175 35.3242C7.73142 31.2864 5.81457 25.6923 7.42486 19.7822C9.37139 12.6379 13.9828 8.78875 18.9667 7.15441ZM27.6318 31.3817L28.9067 17.5181C28.9251 17.3184 28.8634 17.1451 28.7732 17.0318C28.6898 16.927 28.5876 16.8753 28.4646 16.8714C26.0933 16.7961 22.637 17.4116 20.5742 21.2215C19.7805 22.6876 19.297 25.1021 20.1962 27.1559C20.9752 28.9348 22.9579 30.7951 27.6318 31.3817Z" fill="#292929"/>
</clipPath>
<g clip-path="url(#mask0_5481_122404)">
<g clip-path="url(#clip0_5481_122404)">
<rect width="48" height="48" rx="10" fill="#D9F4FD"/>
<circle cx="42.7877" cy="31.5552" r="69.3033" fill="url(#paint0_radial_5481_122404)"/>
<path d="M-4.31959 15.0345C-5.08998 -1.55641 7.73508 -15.6305 24.326 -16.4009C40.9169 -17.1713 54.991 -4.34621 55.7613 12.2447C56.5317 28.8356 43.7067 42.9097 27.1158 43.6801C10.5249 44.4504 -3.54921 31.6254 -4.31959 15.0345Z" fill="url(#paint1_linear_5481_122404)"/>
<path d="M12.1243 -33.214C8.38167 -35.53 3.6397 -35.5442 -0.116893 -33.2506L-37.6896 -10.3099C-41.3694 -8.06314 -41.3755 -2.75987 -37.7007 -0.504581L-0.376298 22.4036C3.37467 24.7054 8.11665 24.7027 11.8644 22.3954L49.1119 -0.534222C52.7672 -2.7847 52.7739 -8.05833 49.1231 -10.3173L12.1243 -33.214Z" fill="url(#paint2_linear_5481_122404)"/>
<path d="M-23.9274 22.9579C-16.1831 22.9579 -9.16812 26.0922 -4.0892 31.1486C6.06863 41.2789 14.4901 41.2875 24.6479 31.1746C29.7268 26.0922 36.7505 22.9492 44.5034 22.9492C60.0006 22.9579 72.5547 35.4778 72.5547 50.9329C72.5547 66.388 60.0006 78.8992 44.5034 78.8992C36.7331 78.8992 29.7095 75.7476 24.6306 70.6652C14.4814 60.5696 6.06863 60.5782 -4.0892 70.7085C-9.16812 75.7736 -16.1831 78.8992 -23.9274 78.8992C-39.4159 78.8992 -51.9699 66.3793 -51.9699 50.9329C-51.9699 35.4865 -39.4159 22.9579 -23.9274 22.9579Z" fill="url(#paint3_linear_5481_122404)"/>
</g>
</g>

</svg>
