<svg width="160" height="160" viewBox="0 0 160 160" xmlns="http://www.w3.org/2000/svg">
  <defs>
<radialGradient id="paint0_radial_5481_122155" cx="0" cy="0" r="1" gradientUnits="userSpaceOnUse" gradientTransform="translate(130.355 101.038) rotate(90) scale(170.948 181.344)">
<stop offset="0.0885417" stop-color="#EB1000"/>
<stop offset="1" stop-color="#EB1000" stop-opacity="0"/>
</radialGradient>
<linearGradient id="paint1_linear_5481_122155" x1="109.277" y1="19.3921" x2="41.838" y2="112.146" gradientUnits="userSpaceOnUse">
<stop stop-color="#FF4885"/>
<stop offset="1" stop-color="#FF4885" stop-opacity="0"/>
</linearGradient>
<linearGradient id="paint2_linear_5481_122155" x1="64.9613" y1="-21.5347" x2="77.4635" y2="63.345" gradientUnits="userSpaceOnUse">
<stop offset="0.15625" stop-color="#7A6AFD"/>
<stop offset="1" stop-color="#7A6AFD" stop-opacity="0"/>
</linearGradient>
<linearGradient id="paint3_linear_5481_122155" x1="-96.9441" y1="148.659" x2="138.04" y2="99.3939" gradientUnits="userSpaceOnUse">
<stop stop-color="#30A7FE" stop-opacity="0"/>
<stop offset="0.432292" stop-color="#30A7FE" stop-opacity="0.994652"/>
<stop offset="0.609375" stop-color="#30A7FE"/>
<stop offset="1" stop-color="#30A7FE" stop-opacity="0"/>
</linearGradient>
<clipPath id="clip0_5481_122155">
<rect x="18.3984" y="23.1992" width="125.6" height="118.4" rx="10" fill="white"/>
</clipPath>
</defs>
<clipPath id="mask0_5481_122155">
<path d="M124 32H36C27.16 32 20 39.16 20 48V112C20 120.84 27.16 128 36 128H124C132.84 128 140 120.84 140 112V48C140 39.16 132.84 32 124 32ZM62.75 96.31C64.26 97.93 64.17 100.46 62.56 101.96C61.79 102.68 60.81 103.04 59.83 103.04C58.76 103.04 57.69 102.61 56.9 101.77L38.51 82.07C37.04 80.49 37.08 78.04 38.61 76.51L57 58.12C58.56 56.56 61.1 56.56 62.66 58.12C64.22 59.68 64.22 62.21 62.66 63.78L47.01 79.43L62.76 96.3L62.75 96.31ZM92.37 52.98L75.29 109.34C74.77 111.07 73.18 112.18 71.46 112.18C71.08 112.18 70.69 112.12 70.3 112.01C68.19 111.37 66.99 109.14 67.63 107.02L84.71 50.66C85.35 48.55 87.58 47.35 89.7 47.99C91.81 48.63 93.01 50.86 92.37 52.98ZM121.39 83.48L103 101.87C102.22 102.65 101.2 103.04 100.17 103.04C99.14 103.04 98.12 102.65 97.34 101.87C95.78 100.31 95.78 97.78 97.34 96.21L112.99 80.56L97.24 63.69C95.73 62.07 95.82 59.54 97.43 58.04C99.04 56.53 101.58 56.62 103.08 58.23L121.47 77.93C122.94 79.51 122.9 81.96 121.37 83.49L121.39 83.48Z" fill="white"/>
</clipPath>
<g clip-path="url(#mask0_5481_122155)">
<g clip-path="url(#clip0_5481_122155)">
<rect x="18.3984" y="23.1992" width="125.6" height="118.4" rx="10" fill="#D9F4FD"/>
<ellipse cx="130.355" cy="101.038" rx="181.344" ry="170.948" fill="url(#paint0_radial_5481_122155)"/>
<path d="M7.09525 60.2836C5.07941 19.3594 38.6383 -15.3567 82.0512 -17.257C125.464 -19.1572 162.291 12.4779 164.307 53.4021C166.323 94.3263 132.764 129.042 89.3511 130.943C45.9383 132.843 9.11108 101.208 7.09525 60.2836Z" fill="url(#paint1_linear_5481_122155)"/>
<path d="M50.1285 -58.73C40.3352 -64.4427 27.927 -64.4777 18.0973 -58.8203L-80.218 -2.23325C-89.8467 3.30884 -89.8628 16.3902 -80.2472 21.9533L17.4185 78.4601C27.2335 84.1379 39.6417 84.1312 49.4483 78.4399L146.913 21.8802C156.477 16.329 156.495 3.32071 146.942 -2.25142L50.1285 -58.73Z" fill="url(#paint2_linear_5481_122155)"/>
<path d="M-44.2153 79.83C-23.9511 79.83 -5.59525 87.5612 7.69458 100.034C34.2742 125.022 56.3104 125.043 82.89 100.098C96.1799 87.5612 114.558 79.8086 134.845 79.8086C175.396 79.83 208.246 110.712 208.246 148.835C208.246 186.958 175.396 217.819 134.845 217.819C114.513 217.819 96.1344 210.045 82.8446 197.508C56.2877 172.605 34.2742 172.627 7.69458 197.615C-5.59525 210.109 -23.9511 217.819 -44.2153 217.819C-84.7436 217.819 -117.593 186.936 -117.593 148.835C-117.593 110.734 -84.7436 79.83 -44.2153 79.83Z" fill="url(#paint3_linear_5481_122155)"/>
</g>
</g>

</svg>
