<svg width="48" height="48" viewBox="0 0 48 48" xmlns="http://www.w3.org/2000/svg">
  <defs>
<radialGradient id="paint0_radial_5481_122415" cx="0" cy="0" r="1" gradientUnits="userSpaceOnUse" gradientTransform="translate(42.7877 31.5552) rotate(90) scale(69.3033)">
<stop offset="0.0885417" stop-color="#EB1000"/>
<stop offset="1" stop-color="#EB1000" stop-opacity="0"/>
</radialGradient>
<linearGradient id="paint1_linear_5481_122415" x1="34.7309" y1="-1.54315" x2="6.93278" y2="34.4977" gradientUnits="userSpaceOnUse">
<stop stop-color="#FF4885"/>
<stop offset="1" stop-color="#FF4885" stop-opacity="0"/>
</linearGradient>
<linearGradient id="paint2_linear_5481_122415" x1="17.7929" y1="-18.1348" x2="23.1553" y2="16.1845" gradientUnits="userSpaceOnUse">
<stop offset="0.15625" stop-color="#7A6AFD"/>
<stop offset="1" stop-color="#7A6AFD" stop-opacity="0"/>
</linearGradient>
<linearGradient id="paint3_linear_5481_122415" x1="-44.0785" y1="50.8616" x2="46.1473" y2="33.0298" gradientUnits="userSpaceOnUse">
<stop stop-color="#30A7FE" stop-opacity="0"/>
<stop offset="0.432292" stop-color="#30A7FE" stop-opacity="0.994652"/>
<stop offset="0.609375" stop-color="#30A7FE"/>
<stop offset="1" stop-color="#30A7FE" stop-opacity="0"/>
</linearGradient>
<clipPath id="clip0_5481_122415">
<rect width="48" height="48" rx="10" fill="white"/>
</clipPath>
</defs>
<clipPath id="mask0_5481_122415">
<path fill-rule="evenodd" d="M6 28.9504C6 25.6873 7.35316 22.7403 9.52896 20.6398C10.0266 25.0587 12.5739 28.857 16.1976 31.0617C16.733 34.6141 18.5984 37.7307 21.2705 39.8881C20.1031 40.2851 18.8517 40.5004 17.55 40.5004C11.1711 40.5004 6 35.3293 6 28.9504ZM26.3695 39.8881C27.5369 40.2851 28.7883 40.5004 30.09 40.5004C36.4689 40.5004 41.64 35.3293 41.64 28.9504C41.64 25.3927 40.0315 22.2106 37.502 20.0919C37.1832 24.4404 34.8853 28.2391 31.5052 30.591C31.0694 34.3384 29.159 37.6359 26.3695 39.8881ZM34.52 15.613C33.0569 10.9126 28.672 7.5 23.49 7.5C18.2096 7.5 13.7568 11.0435 12.3798 15.8822C13.98 15.2486 15.7243 14.9004 17.55 14.9004C19.8032 14.9004 21.9326 15.4308 23.82 16.3736C25.7074 15.4308 27.8368 14.9004 30.09 14.9004C31.6379 14.9004 33.1273 15.1507 34.52 15.613ZM11.9417 18.851C11.9406 18.9172 11.94 18.9835 11.94 19.05C11.94 22.6077 13.5486 25.7898 16.0781 27.9085C16.3709 23.9143 18.3334 20.384 21.2705 18.0127C20.1031 17.6157 18.8517 17.4004 17.55 17.4004C15.5147 17.4004 13.6023 17.9268 11.9417 18.851ZM23.82 38.652C26.1394 37.1499 27.8859 34.8388 28.6602 32.1182C27.06 32.7518 25.3157 33.1 23.49 33.1C21.9421 33.1 20.4527 32.8497 19.06 32.3874C19.8705 34.9911 21.5776 37.1997 23.82 38.652ZM35.04 19.05C35.04 22.3131 33.6868 25.2601 31.511 27.3606C31.0866 23.5922 29.1716 20.275 26.3695 18.0127C27.5369 17.6157 28.7883 17.4004 30.09 17.4004C31.8565 17.4004 33.5304 17.797 35.0274 18.5059C35.0358 18.6862 35.04 18.8676 35.04 19.05ZM29.1 28.9504C29.1 24.883 26.9975 21.3066 23.82 19.2488C20.6425 21.3066 18.54 24.883 18.54 28.9504C18.54 29.1328 18.5443 29.3142 18.5526 29.4945C20.0497 30.2034 21.7235 30.6 23.49 30.6C25.5253 30.6 27.4377 30.0736 29.0983 29.1494C29.0994 29.0832 29.1 29.0169 29.1 28.9504Z" fill="white"/>
</clipPath>
<g clip-path="url(#mask0_5481_122415)">
<g clip-path="url(#clip0_5481_122415)">
<rect width="48" height="48" rx="10" fill="#D9F4FD"/>
<circle cx="42.7877" cy="31.5552" r="69.3033" fill="url(#paint0_radial_5481_122415)"/>
<path d="M-4.31959 15.0345C-5.08998 -1.55641 7.73508 -15.6305 24.326 -16.4009C40.9169 -17.1713 54.991 -4.34621 55.7613 12.2447C56.5317 28.8356 43.7067 42.9097 27.1158 43.6801C10.5249 44.4504 -3.54921 31.6254 -4.31959 15.0345Z" fill="url(#paint1_linear_5481_122415)"/>
<path d="M12.1243 -33.214C8.38167 -35.53 3.6397 -35.5442 -0.116893 -33.2506L-37.6896 -10.3099C-41.3694 -8.06314 -41.3755 -2.75987 -37.7007 -0.504581L-0.376298 22.4036C3.37467 24.7054 8.11665 24.7027 11.8644 22.3954L49.1119 -0.534222C52.7672 -2.7847 52.7739 -8.05833 49.1231 -10.3173L12.1243 -33.214Z" fill="url(#paint2_linear_5481_122415)"/>
<path d="M-23.9274 22.9579C-16.1831 22.9579 -9.16812 26.0922 -4.0892 31.1486C6.06863 41.2789 14.4901 41.2875 24.6479 31.1746C29.7268 26.0922 36.7505 22.9492 44.5034 22.9492C60.0006 22.9579 72.5547 35.4778 72.5547 50.9329C72.5547 66.388 60.0006 78.8992 44.5034 78.8992C36.7331 78.8992 29.7095 75.7476 24.6306 70.6652C14.4814 60.5696 6.06863 60.5782 -4.0892 70.7085C-9.16812 75.7736 -16.1831 78.8992 -23.9274 78.8992C-39.4159 78.8992 -51.9699 66.3793 -51.9699 50.9329C-51.9699 35.4865 -39.4159 22.9579 -23.9274 22.9579Z" fill="url(#paint3_linear_5481_122415)"/>
</g>
</g>

</svg>
