<svg width="160" height="160" viewBox="0 0 160 160" xmlns="http://www.w3.org/2000/svg">
  <defs>
<radialGradient id="paint0_radial_5481_122127" cx="0" cy="0" r="1" gradientUnits="userSpaceOnUse" gradientTransform="translate(135.411 101.794) rotate(90) scale(199.896 199.896)">
<stop offset="0.0885417" stop-color="#EB1000"/>
<stop offset="1" stop-color="#EB1000" stop-opacity="0"/>
</radialGradient>
<linearGradient id="paint1_linear_5481_122127" x1="112.176" y1="6.32352" x2="31.9967" y2="110.278" gradientUnits="userSpaceOnUse">
<stop stop-color="#FF4885"/>
<stop offset="1" stop-color="#FF4885" stop-opacity="0"/>
</linearGradient>
<linearGradient id="paint2_linear_5481_122127" x1="63.327" y1="-41.5338" x2="78.7941" y2="57.4556" gradientUnits="userSpaceOnUse">
<stop offset="0.15625" stop-color="#7A6AFD"/>
<stop offset="1" stop-color="#7A6AFD" stop-opacity="0"/>
</linearGradient>
<linearGradient id="paint3_linear_5481_122127" x1="-115.143" y1="157.48" x2="145.101" y2="106.047" gradientUnits="userSpaceOnUse">
<stop stop-color="#30A7FE" stop-opacity="0"/>
<stop offset="0.432292" stop-color="#30A7FE" stop-opacity="0.994652"/>
<stop offset="0.609375" stop-color="#30A7FE"/>
<stop offset="1" stop-color="#30A7FE" stop-opacity="0"/>
</linearGradient>
<clipPath id="clip0_5481_122127">
<rect x="12" y="10.7754" width="138.449" height="138.449" rx="10" fill="white"/>
</clipPath>
</defs>
<clipPath id="mask0_5481_122127">
<path fill-rule="evenodd" d="M87.5147 31.5147L120.485 64.4853C122.736 66.7357 124 69.788 124 72.9706V120C124 126.627 118.627 132 112 132H48C41.3726 132 36 126.627 36 120V40C36 33.3726 41.3726 28 48 28H79.0294C82.212 28 85.2643 29.2643 87.5147 31.5147ZM94.4995 68C90.3574 68 86.9995 71.3578 86.9995 75.5C86.9995 79.6422 90.3574 83 94.4995 83C98.6417 83 102 79.6422 102 75.5C102 71.3578 98.6417 68 94.4995 68ZM54.0046 116H105.994C107.559 116 108.518 114.285 107.698 112.952L96.511 94.7688C95.7301 93.4995 93.885 93.4995 93.1041 94.7688L84.2882 109.098L71.1969 86.8994C70.422 85.5933 68.5315 85.5933 67.7568 86.8994L52.2845 112.98C51.4936 114.313 52.4544 116 54.0046 116Z" fill="white"/>
</clipPath>
<g clip-path="url(#mask0_5481_122127)">
<g clip-path="url(#clip0_5481_122127)">
<rect x="12" y="10.7754" width="138.449" height="138.449" rx="10" fill="#D9F4FD"/>
<ellipse cx="135.411" cy="101.794" rx="199.896" ry="199.896" fill="url(#paint0_radial_5481_122127)"/>
<path d="M-0.459232 54.1394C-2.68129 6.28528 34.3108 -34.3095 82.165 -36.5316C130.019 -38.7536 170.614 -1.76152 172.836 46.0926C175.058 93.9468 138.066 134.542 90.2118 136.764C42.3576 138.986 1.76283 101.994 -0.459232 54.1394Z" fill="url(#paint1_linear_5481_122127)"/>
<path d="M46.9767 -85.0276C36.1815 -91.7077 22.5039 -91.7486 11.6685 -85.1332L-96.7048 -18.964C-107.319 -12.4834 -107.336 2.81314 -96.7369 9.31821L10.9203 75.3937C21.7395 82.033 35.4171 82.0251 46.2269 75.37L153.662 9.23271C164.206 2.74153 164.225 -12.4695 153.694 -18.9852L46.9767 -85.0276Z" fill="url(#paint2_linear_5481_122127)"/>
<path d="M-57.0197 76.9957C-34.6824 76.9957 -14.4487 86.0362 0.200759 100.621C29.4996 129.84 53.7902 129.865 83.089 100.696C97.7385 86.0362 117.997 76.9707 140.36 76.9707C185.059 76.9957 221.27 113.108 221.27 157.686C221.27 202.264 185.059 238.351 140.36 238.351C117.947 238.351 97.6884 229.26 83.0389 214.601C53.7651 185.481 29.4996 185.506 0.200759 214.726C-14.4487 229.335 -34.6824 238.351 -57.0197 238.351C-101.694 238.351 -137.905 202.239 -137.905 157.686C-137.905 113.133 -101.694 76.9957 -57.0197 76.9957Z" fill="url(#paint3_linear_5481_122127)"/>
</g>
</g>

</svg>
