<svg width="96" height="96" viewBox="0 0 96 96" xmlns="http://www.w3.org/2000/svg">
  <defs>
<radialGradient id="paint0_radial_5481_122586" cx="0" cy="0" r="1" gradientUnits="userSpaceOnUse" gradientTransform="translate(85.5714 63.1124) rotate(90) scale(138.607)">
<stop offset="0.0885417" stop-color="#EB1000"/>
<stop offset="1" stop-color="#EB1000" stop-opacity="0"/>
</radialGradient>
<linearGradient id="paint1_linear_5481_122586" x1="69.4617" y1="-3.08825" x2="13.8656" y2="68.9935" gradientUnits="userSpaceOnUse">
<stop stop-color="#FF4885"/>
<stop offset="1" stop-color="#FF4885" stop-opacity="0"/>
</linearGradient>
<linearGradient id="paint2_linear_5481_122586" x1="35.5898" y1="-36.2716" x2="46.3146" y2="32.3671" gradientUnits="userSpaceOnUse">
<stop offset="0.15625" stop-color="#7A6AFD"/>
<stop offset="1" stop-color="#7A6AFD" stop-opacity="0"/>
</linearGradient>
<linearGradient id="paint3_linear_5481_122586" x1="-88.1609" y1="101.725" x2="92.2907" y2="66.0615" gradientUnits="userSpaceOnUse">
<stop stop-color="#30A7FE" stop-opacity="0"/>
<stop offset="0.432292" stop-color="#30A7FE" stop-opacity="0.994652"/>
<stop offset="0.609375" stop-color="#30A7FE"/>
<stop offset="1" stop-color="#30A7FE" stop-opacity="0"/>
</linearGradient>
<clipPath id="clip0_5481_122586">
<rect width="96" height="96" rx="10" fill="white"/>
</clipPath>
</defs>
<clipPath id="mask0_5481_122586">
<path fill-rule="evenodd" d="M22 48.4455V69.9997C22 74.418 25.5817 77.9997 30 77.9997H38V48.3671C35.3566 47.9036 33.0594 46.431 31.5263 44.3607C29.6561 46.8862 26.6489 48.5222 23.2632 48.5222C22.8356 48.5222 22.414 48.4961 22 48.4455ZM42 48.2842V64H74V48.4578C73.6199 48.5004 73.2335 48.5222 72.8421 48.5222C69.4563 48.5222 66.4492 46.8862 64.5789 44.3607C62.7087 46.8862 59.7016 48.5222 56.3158 48.5222C52.93 48.5222 49.9229 46.8862 48.0526 44.3607C46.6015 46.3203 44.4659 47.7444 42 48.2842ZM39.7895 44.5222C36.3231 44.5222 33.5263 41.7252 33.5263 38.2913V37.8845C33.5263 36.7799 32.6309 35.8845 31.5263 35.8845C30.4217 35.8845 29.5263 36.7799 29.5263 37.8845V38.2913C29.5263 41.7252 26.7296 44.5222 23.2632 44.5222C19.7968 44.5222 17 41.7252 17 38.2913C17 36.4637 17.3977 34.6579 18.1692 33.0019L18.1697 33.0008L23.2591 22.0585L23.2594 22.0579L23.2595 22.0576C23.7889 20.9219 24.9335 20.1914 26.1982 20.1914H69.9149C71.18 20.1914 72.3248 20.9223 72.854 22.0585L77.8708 32.8446C77.89 32.897 77.9114 32.9488 77.9351 32.9999C78.7056 34.6586 79.1053 36.4653 79.1053 38.2913C79.1053 41.7252 76.3085 44.5222 72.8421 44.5222C69.3757 44.5222 66.5789 41.7252 66.5789 38.2913V37.8845C66.5789 36.7799 65.6835 35.8845 64.5789 35.8845C63.4744 35.8845 62.5789 36.7799 62.5789 37.8845V38.2913C62.5789 41.7252 59.7822 44.5222 56.3158 44.5222C52.8494 44.5222 50.0526 41.7252 50.0526 38.2913V37.8845C50.0526 36.7799 49.1572 35.8845 48.0526 35.8845C46.9481 35.8845 46.0526 36.7799 46.0526 37.8845V38.2913C46.0526 41.7252 43.2559 44.5222 39.7895 44.5222ZM42 68H74V69.9997C74 74.418 70.4183 77.9997 66 77.9997H42V68Z" fill="white"/>
</clipPath>
<g clip-path="url(#mask0_5481_122586)">
<g clip-path="url(#clip0_5481_122586)">
<rect width="96" height="96" rx="10" fill="#D9F4FD"/>
<circle cx="85.5714" cy="63.1124" r="138.607" fill="url(#paint0_radial_5481_122586)"/>
<path d="M-8.63919 30.067C-10.18 -3.11477 15.4702 -31.263 48.652 -32.8037C81.8337 -34.3445 109.982 -8.69438 111.523 24.4874C113.063 57.6692 87.4133 85.8174 54.2316 87.3582C21.0498 88.8989 -7.09842 63.2488 -8.63919 30.067Z" fill="url(#paint1_linear_5481_122586)"/>
<path d="M24.2526 -66.43C16.7672 -71.0619 7.28331 -71.0903 -0.22988 -66.5032L-75.3753 -20.6218C-82.7348 -16.1282 -82.7471 -5.52169 -75.3976 -1.01111L-0.748691 44.8052C6.75324 49.4089 16.2372 49.4034 23.7327 44.7888L98.2278 -1.0704C105.538 -5.57135 105.552 -16.1186 98.2501 -20.6366L24.2526 -66.43Z" fill="url(#paint2_linear_5481_122586)"/>
<path d="M-47.8586 45.9177C-32.3701 45.9177 -18.3401 52.1863 -8.18231 62.2992C12.1334 82.5597 28.9763 82.577 49.2919 62.3512C59.4498 52.1863 73.4971 45.9004 89.003 45.9004C119.997 45.9177 145.105 70.9575 145.105 101.868C145.105 132.778 119.997 157.8 89.003 157.8C73.4624 157.8 59.415 151.497 49.2572 141.332C28.9589 121.141 12.1334 121.158 -8.18231 141.419C-18.3401 151.549 -32.3701 157.8 -47.8586 157.8C-78.8357 157.8 -103.944 132.761 -103.944 101.868C-103.944 70.9749 -78.8357 45.9177 -47.8586 45.9177Z" fill="url(#paint3_linear_5481_122586)"/>
</g>
</g>

</svg>
