<svg width="48" height="48" viewBox="0 0 48 48" xmlns="http://www.w3.org/2000/svg">
  <defs>
<radialGradient id="paint0_radial_5481_122358" cx="0" cy="0" r="1" gradientUnits="userSpaceOnUse" gradientTransform="translate(42.7877 31.5552) rotate(90) scale(69.3033)">
<stop offset="0.0885417" stop-color="#EB1000"/>
<stop offset="1" stop-color="#EB1000" stop-opacity="0"/>
</radialGradient>
<linearGradient id="paint1_linear_5481_122358" x1="34.7309" y1="-1.54315" x2="6.93278" y2="34.4977" gradientUnits="userSpaceOnUse">
<stop stop-color="#FF4885"/>
<stop offset="1" stop-color="#FF4885" stop-opacity="0"/>
</linearGradient>
<linearGradient id="paint2_linear_5481_122358" x1="17.7929" y1="-18.1348" x2="23.1553" y2="16.1845" gradientUnits="userSpaceOnUse">
<stop offset="0.15625" stop-color="#7A6AFD"/>
<stop offset="1" stop-color="#7A6AFD" stop-opacity="0"/>
</linearGradient>
<linearGradient id="paint3_linear_5481_122358" x1="-44.0785" y1="50.8616" x2="46.1473" y2="33.0298" gradientUnits="userSpaceOnUse">
<stop stop-color="#30A7FE" stop-opacity="0"/>
<stop offset="0.432292" stop-color="#30A7FE" stop-opacity="0.994652"/>
<stop offset="0.609375" stop-color="#30A7FE"/>
<stop offset="1" stop-color="#30A7FE" stop-opacity="0"/>
</linearGradient>
<clipPath id="clip0_5481_122358">
<rect width="48" height="48" rx="10" fill="white"/>
</clipPath>
</defs>
<clipPath id="mask0_5481_122358">
<path d="M20.1412 34.8258V17.8742L37.624 14.389V27.2826C37.1936 27.078 36.7327 26.9299 36.2614 26.8353C34.7546 26.5327 33.0143 26.7363 31.3653 27.4447C29.7163 28.1531 28.3705 29.2752 27.5526 30.5764C26.7381 31.8723 26.3892 33.4652 27.0262 34.9479C27.6631 36.4306 29.0586 37.2741 30.5593 37.5754C32.0661 37.878 33.8064 37.6744 35.4554 36.966C37.1044 36.2576 38.4502 35.1355 39.2681 33.8343C39.7068 33.1363 40.0104 32.3521 40.0977 31.5454C40.1149 31.4628 40.124 31.3771 40.124 31.2894V10.2983C40.124 7.61743 37.6722 5.60618 35.043 6.13033L21.0603 8.91793C19.0726 9.31421 17.6412 11.059 17.6412 13.0859V31.2161C17.211 31.0116 16.7502 30.8635 16.279 30.7689C14.7722 30.4663 13.0319 30.6699 11.3829 31.3783C9.73386 32.0867 8.38809 33.2088 7.57022 34.51C6.75572 35.8059 6.4068 37.3988 7.04374 38.8815C7.68068 40.3642 9.07623 41.2077 10.5769 41.509C12.0837 41.8116 13.824 41.608 15.473 40.8996C17.122 40.1912 18.4678 39.0691 19.2857 37.7679C19.8302 36.9015 20.1667 35.9023 20.1395 34.8921C20.1407 34.8701 20.1412 34.848 20.1412 34.8258Z" fill="#292929"/>
</clipPath>
<g clip-path="url(#mask0_5481_122358)">
<g clip-path="url(#clip0_5481_122358)">
<rect width="48" height="48" rx="10" fill="#D9F4FD"/>
<circle cx="42.7877" cy="31.5552" r="69.3033" fill="url(#paint0_radial_5481_122358)"/>
<path d="M-4.31959 15.0345C-5.08998 -1.55641 7.73508 -15.6305 24.326 -16.4009C40.9169 -17.1713 54.991 -4.34621 55.7613 12.2447C56.5317 28.8356 43.7067 42.9097 27.1158 43.6801C10.5249 44.4504 -3.54921 31.6254 -4.31959 15.0345Z" fill="url(#paint1_linear_5481_122358)"/>
<path d="M12.1243 -33.214C8.38167 -35.53 3.6397 -35.5442 -0.116893 -33.2506L-37.6896 -10.3099C-41.3694 -8.06314 -41.3755 -2.75987 -37.7007 -0.504581L-0.376298 22.4036C3.37467 24.7054 8.11665 24.7027 11.8644 22.3954L49.1119 -0.534222C52.7672 -2.7847 52.7739 -8.05833 49.1231 -10.3173L12.1243 -33.214Z" fill="url(#paint2_linear_5481_122358)"/>
<path d="M-23.9274 22.9579C-16.1831 22.9579 -9.16812 26.0922 -4.0892 31.1486C6.06863 41.2789 14.4901 41.2875 24.6479 31.1746C29.7268 26.0922 36.7505 22.9492 44.5034 22.9492C60.0006 22.9579 72.5547 35.4778 72.5547 50.9329C72.5547 66.388 60.0006 78.8992 44.5034 78.8992C36.7331 78.8992 29.7095 75.7476 24.6306 70.6652C14.4814 60.5696 6.06863 60.5782 -4.0892 70.7085C-9.16812 75.7736 -16.1831 78.8992 -23.9274 78.8992C-39.4159 78.8992 -51.9699 66.3793 -51.9699 50.9329C-51.9699 35.4865 -39.4159 22.9579 -23.9274 22.9579Z" fill="url(#paint3_linear_5481_122358)"/>
</g>
</g>

</svg>
