<svg width="160" height="160" viewBox="0 0 160 160" xmlns="http://www.w3.org/2000/svg">
  <defs>
<radialGradient id="paint0_radial_5481_122181" cx="0" cy="0" r="1" gradientUnits="userSpaceOnUse" gradientTransform="translate(134.028 101.473) rotate(90) scale(200.895 200.895)">
<stop offset="0.0885417" stop-color="#EB1000"/>
<stop offset="1" stop-color="#EB1000" stop-opacity="0"/>
</radialGradient>
<linearGradient id="paint1_linear_5481_122181" x1="110.677" y1="5.52542" x2="30.0966" y2="110" gradientUnits="userSpaceOnUse">
<stop stop-color="#FF4885"/>
<stop offset="1" stop-color="#FF4885" stop-opacity="0"/>
</linearGradient>
<linearGradient id="paint2_linear_5481_122181" x1="61.5811" y1="-42.5705" x2="77.1255" y2="56.9139" gradientUnits="userSpaceOnUse">
<stop offset="0.15625" stop-color="#7A6AFD"/>
<stop offset="1" stop-color="#7A6AFD" stop-opacity="0"/>
</linearGradient>
<linearGradient id="paint3_linear_5481_122181" x1="-117.778" y1="157.439" x2="143.767" y2="105.749" gradientUnits="userSpaceOnUse">
<stop stop-color="#30A7FE" stop-opacity="0"/>
<stop offset="0.432292" stop-color="#30A7FE" stop-opacity="0.994652"/>
<stop offset="0.609375" stop-color="#30A7FE"/>
<stop offset="1" stop-color="#30A7FE" stop-opacity="0"/>
</linearGradient>
<clipPath id="clip0_5481_122181">
<rect x="10" y="10" width="139.142" height="139.142" rx="10" fill="white"/>
</clipPath>
</defs>
<clipPath id="mask0_5481_122181">
<path fill-rule="evenodd" d="M79.0008 24.8008C68.3969 24.8008 59.8008 33.3969 59.8008 44.0008V72.6008C59.8008 83.2046 68.3969 91.8008 79.0008 91.8008H81.6008C92.2046 91.8008 100.801 83.2047 100.801 72.6008V44.0008C100.801 33.3969 92.2046 24.8008 81.6008 24.8008H79.0008ZM75.8008 115.576C53.3375 113.32 35.8008 94.3585 35.8008 71.3008V66.8008C35.8008 64.5916 37.5916 62.8008 39.8008 62.8008C42.0099 62.8008 43.8008 64.5916 43.8008 66.8008V71.3008C43.8008 91.4592 60.1424 107.801 80.3008 107.801C100.459 107.801 116.801 91.4592 116.801 71.3008V66.8008C116.801 64.5916 118.592 62.8008 120.801 62.8008C123.01 62.8008 124.801 64.5916 124.801 66.8008V71.3008C124.801 94.6995 106.741 113.88 83.8008 115.665V127.801H103.801C106.01 127.801 107.801 129.592 107.801 131.801C107.801 134.01 106.01 135.801 103.801 135.801H56.8008C54.5916 135.801 52.8008 134.01 52.8008 131.801C52.8008 129.592 54.5916 127.801 56.8008 127.801H75.8008V115.576Z" fill="white"/>
</clipPath>
<g clip-path="url(#mask0_5481_122181)">
<g clip-path="url(#clip0_5481_122181)">
<rect x="10" y="10" width="139.142" height="139.142" rx="10" fill="#D9F4FD"/>
<ellipse cx="134.028" cy="101.473" rx="200.895" ry="200.895" fill="url(#paint0_radial_5481_122181)"/>
<path d="M-2.5216 53.5804C-4.75477 5.48699 32.4223 -35.3108 80.5157 -37.5439C128.609 -39.7771 169.407 -2.60005 171.64 45.4934C173.873 93.5868 136.696 134.385 88.6028 136.618C40.5093 138.851 -0.288425 101.674 -2.5216 53.5804Z" fill="url(#paint1_linear_5481_122181)"/>
<path d="M45.149 -86.2817C34.2998 -92.9952 20.5539 -93.0364 9.66433 -86.3879L-99.2508 -19.8878C-109.918 -13.3748 -109.936 1.99825 -99.2832 8.53584L8.91237 74.9417C19.7856 81.6142 33.5316 81.6062 44.3955 74.9179L152.368 8.44992C162.964 1.92628 162.983 -13.3608 152.4 -19.9091L45.149 -86.2817Z" fill="url(#paint2_linear_5481_122181)"/>
<path d="M-59.3643 76.5524C-36.9153 76.5524 -16.5804 85.6381 -1.85772 100.296C27.5876 129.661 51.9996 129.686 81.445 100.371C96.1677 85.6381 116.528 76.5273 139.002 76.5273C183.925 76.5524 220.316 112.845 220.316 157.646C220.316 202.447 183.925 238.714 139.002 238.714C116.477 238.714 96.1173 229.578 81.3947 214.846C51.9745 185.581 27.5876 185.606 -1.85772 214.971C-16.5804 229.654 -36.9153 238.714 -59.3643 238.714C-104.262 238.714 -140.654 202.422 -140.654 157.646C-140.654 112.87 -104.262 76.5524 -59.3643 76.5524Z" fill="url(#paint3_linear_5481_122181)"/>
</g>
</g>

</svg>
