<svg width="48" height="48" viewBox="0 0 48 48" xmlns="http://www.w3.org/2000/svg">
  <defs>
<radialGradient id="paint0_radial_5481_122393" cx="0" cy="0" r="1" gradientUnits="userSpaceOnUse" gradientTransform="translate(42.7877 31.5552) rotate(90) scale(69.3033)">
<stop offset="0.0885417" stop-color="#EB1000"/>
<stop offset="1" stop-color="#EB1000" stop-opacity="0"/>
</radialGradient>
<linearGradient id="paint1_linear_5481_122393" x1="34.7309" y1="-1.54315" x2="6.93278" y2="34.4977" gradientUnits="userSpaceOnUse">
<stop stop-color="#FF4885"/>
<stop offset="1" stop-color="#FF4885" stop-opacity="0"/>
</linearGradient>
<linearGradient id="paint2_linear_5481_122393" x1="17.7929" y1="-18.1348" x2="23.1553" y2="16.1845" gradientUnits="userSpaceOnUse">
<stop offset="0.15625" stop-color="#7A6AFD"/>
<stop offset="1" stop-color="#7A6AFD" stop-opacity="0"/>
</linearGradient>
<linearGradient id="paint3_linear_5481_122393" x1="-44.0785" y1="50.8616" x2="46.1473" y2="33.0298" gradientUnits="userSpaceOnUse">
<stop stop-color="#30A7FE" stop-opacity="0"/>
<stop offset="0.432292" stop-color="#30A7FE" stop-opacity="0.994652"/>
<stop offset="0.609375" stop-color="#30A7FE"/>
<stop offset="1" stop-color="#30A7FE" stop-opacity="0"/>
</linearGradient>
<clipPath id="clip0_5481_122393">
<rect width="48" height="48" rx="10" fill="white"/>
</clipPath>
</defs>
<clipPath id="mask0_5481_122393">
<path fill-rule="evenodd" d="M8 9.25C8 8.55964 8.55964 8 9.25 8H16.212C16.9024 8 17.462 8.55964 17.462 9.25C17.462 9.94036 16.9024 10.5 16.212 10.5H11.9483L23.769 22.3207L35.5897 10.5H31.7694C31.079 10.5 30.5194 9.94036 30.5194 9.25C30.5194 8.55964 31.079 8 31.7694 8H38.7314C39.4217 8 39.9814 8.55964 39.9814 9.25V16.212C39.9814 16.9024 39.4217 17.462 38.7314 17.462C38.041 17.462 37.4814 16.9024 37.4814 16.212V12.1439L25.5368 24.0885L37.4819 36.0336V32.1254C37.4819 31.4351 38.0415 30.8754 38.7319 30.8754C39.4223 30.8754 39.9819 31.4351 39.9819 32.1254V39.0874C39.9819 39.7778 39.4223 40.3374 38.7319 40.3374H31.7699C31.0795 40.3374 30.5199 39.7778 30.5199 39.0874C30.5199 38.3971 31.0795 37.8374 31.7699 37.8374H35.7502L23.769 25.8563L11.7878 37.8374H16.2125C16.9029 37.8374 17.4625 38.3971 17.4625 39.0874C17.4625 39.7778 16.9029 40.3374 16.2125 40.3374H9.25053C8.56017 40.3374 8.00053 39.7778 8.00053 39.0874V32.1254C8.00053 31.4351 8.56017 30.8754 9.25053 30.8754C9.94088 30.8754 10.5005 31.4351 10.5005 32.1254V35.5892L22.0012 24.0885L10.5 12.5873V16.212C10.5 16.9024 9.94036 17.462 9.25 17.462C8.55964 17.462 8 16.9024 8 16.212V9.25Z" fill="white"/>
</clipPath>
<g clip-path="url(#mask0_5481_122393)">
<g clip-path="url(#clip0_5481_122393)">
<rect width="48" height="48" rx="10" fill="#D9F4FD"/>
<circle cx="42.7877" cy="31.5552" r="69.3033" fill="url(#paint0_radial_5481_122393)"/>
<path d="M-4.31959 15.0345C-5.08998 -1.55641 7.73508 -15.6305 24.326 -16.4009C40.9169 -17.1713 54.991 -4.34621 55.7613 12.2447C56.5317 28.8356 43.7067 42.9097 27.1158 43.6801C10.5249 44.4504 -3.54921 31.6254 -4.31959 15.0345Z" fill="url(#paint1_linear_5481_122393)"/>
<path d="M12.1243 -33.214C8.38167 -35.53 3.6397 -35.5442 -0.116893 -33.2506L-37.6896 -10.3099C-41.3694 -8.06314 -41.3755 -2.75987 -37.7007 -0.504581L-0.376298 22.4036C3.37467 24.7054 8.11665 24.7027 11.8644 22.3954L49.1119 -0.534222C52.7672 -2.7847 52.7739 -8.05833 49.1231 -10.3173L12.1243 -33.214Z" fill="url(#paint2_linear_5481_122393)"/>
<path d="M-23.9274 22.9579C-16.1831 22.9579 -9.16812 26.0922 -4.0892 31.1486C6.06863 41.2789 14.4901 41.2875 24.6479 31.1746C29.7268 26.0922 36.7505 22.9492 44.5034 22.9492C60.0006 22.9579 72.5547 35.4778 72.5547 50.9329C72.5547 66.388 60.0006 78.8992 44.5034 78.8992C36.7331 78.8992 29.7095 75.7476 24.6306 70.6652C14.4814 60.5696 6.06863 60.5782 -4.0892 70.7085C-9.16812 75.7736 -16.1831 78.8992 -23.9274 78.8992C-39.4159 78.8992 -51.9699 66.3793 -51.9699 50.9329C-51.9699 35.4865 -39.4159 22.9579 -23.9274 22.9579Z" fill="url(#paint3_linear_5481_122393)"/>
</g>
</g>

</svg>
