<svg width="96" height="96" viewBox="0 0 96 96" xmlns="http://www.w3.org/2000/svg">
  <defs>
<radialGradient id="paint0_radial_5481_122541" cx="0" cy="0" r="1" gradientUnits="userSpaceOnUse" gradientTransform="translate(85.5714 63.1124) rotate(90) scale(138.607)">
<stop offset="0.0885417" stop-color="#EB1000"/>
<stop offset="1" stop-color="#EB1000" stop-opacity="0"/>
</radialGradient>
<linearGradient id="paint1_linear_5481_122541" x1="69.4617" y1="-3.08825" x2="13.8656" y2="68.9935" gradientUnits="userSpaceOnUse">
<stop stop-color="#FF4885"/>
<stop offset="1" stop-color="#FF4885" stop-opacity="0"/>
</linearGradient>
<linearGradient id="paint2_linear_5481_122541" x1="35.5898" y1="-36.2716" x2="46.3146" y2="32.3671" gradientUnits="userSpaceOnUse">
<stop offset="0.15625" stop-color="#7A6AFD"/>
<stop offset="1" stop-color="#7A6AFD" stop-opacity="0"/>
</linearGradient>
<linearGradient id="paint3_linear_5481_122541" x1="-88.1609" y1="101.725" x2="92.2907" y2="66.0615" gradientUnits="userSpaceOnUse">
<stop stop-color="#30A7FE" stop-opacity="0"/>
<stop offset="0.432292" stop-color="#30A7FE" stop-opacity="0.994652"/>
<stop offset="0.609375" stop-color="#30A7FE"/>
<stop offset="1" stop-color="#30A7FE" stop-opacity="0"/>
</linearGradient>
<clipPath id="clip0_5481_122541">
<rect width="96" height="96" rx="10" fill="white"/>
</clipPath>
</defs>
<clipPath id="mask0_5481_122541">
<path fill-rule="evenodd" d="M35.6426 24.25C35.6426 20.9363 38.3289 18.25 41.6426 18.25H72.7648C76.0785 18.25 78.7648 20.9363 78.7648 24.25V34.8531C78.7648 38.1668 76.0785 40.8531 72.7648 40.8531H41.6426C38.3289 40.8531 35.6426 38.1668 35.6426 34.8531V31.2164C35.3335 31.4121 34.9671 31.5254 34.5742 31.5254H25.2383C23.0291 31.5254 21.2383 33.3162 21.2383 35.5254V60.4491C21.2383 62.6582 23.0291 64.4491 25.2383 64.4491H34.5742C34.9671 64.4491 35.3335 64.5624 35.6426 64.7581V61.1465C35.6426 57.8328 38.3289 55.1465 41.6426 55.1465H72.7648C76.0785 55.1465 78.7648 57.8328 78.7648 61.1465V71.7496C78.7648 75.0633 76.0785 77.7496 72.7648 77.7496H41.6426C38.3289 77.7496 35.6426 75.0633 35.6426 71.7496V68.1401C35.3335 68.3358 34.9671 68.4491 34.5742 68.4491H25.2383C20.82 68.4491 17.2383 64.8674 17.2383 60.4491V35.5254C17.2383 31.1071 20.82 27.5254 25.2383 27.5254H34.5742C34.9671 27.5254 35.3335 27.6387 35.6426 27.8344V24.25Z" fill="white"/>
</clipPath>
<g clip-path="url(#mask0_5481_122541)">
<g clip-path="url(#clip0_5481_122541)">
<rect width="96" height="96" rx="10" fill="#D9F4FD"/>
<circle cx="85.5714" cy="63.1124" r="138.607" fill="url(#paint0_radial_5481_122541)"/>
<path d="M-8.63919 30.067C-10.18 -3.11477 15.4702 -31.263 48.652 -32.8037C81.8337 -34.3445 109.982 -8.69438 111.523 24.4874C113.063 57.6692 87.4133 85.8174 54.2316 87.3582C21.0498 88.8989 -7.09842 63.2488 -8.63919 30.067Z" fill="url(#paint1_linear_5481_122541)"/>
<path d="M24.2526 -66.43C16.7672 -71.0619 7.28331 -71.0903 -0.22988 -66.5032L-75.3753 -20.6218C-82.7348 -16.1282 -82.7471 -5.52169 -75.3976 -1.01111L-0.748691 44.8052C6.75324 49.4089 16.2372 49.4034 23.7327 44.7888L98.2278 -1.0704C105.538 -5.57135 105.552 -16.1186 98.2501 -20.6366L24.2526 -66.43Z" fill="url(#paint2_linear_5481_122541)"/>
<path d="M-47.8586 45.9177C-32.3701 45.9177 -18.3401 52.1863 -8.18231 62.2992C12.1334 82.5597 28.9763 82.577 49.2919 62.3512C59.4498 52.1863 73.4971 45.9004 89.003 45.9004C119.997 45.9177 145.105 70.9575 145.105 101.868C145.105 132.778 119.997 157.8 89.003 157.8C73.4624 157.8 59.415 151.497 49.2572 141.332C28.9589 121.141 12.1334 121.158 -8.18231 141.419C-18.3401 151.549 -32.3701 157.8 -47.8586 157.8C-78.8357 157.8 -103.944 132.761 -103.944 101.868C-103.944 70.9749 -78.8357 45.9177 -47.8586 45.9177Z" fill="url(#paint3_linear_5481_122541)"/>
</g>
</g>

</svg>
