<svg width="96" height="96" viewBox="0 0 96 96" xmlns="http://www.w3.org/2000/svg">
  <defs>
<radialGradient id="paint0_radial_5481_122488" cx="0" cy="0" r="1" gradientUnits="userSpaceOnUse" gradientTransform="translate(80.1462 63.6572) rotate(90) scale(116.083 123.013)">
<stop offset="0.0885417" stop-color="#EB1000"/>
<stop offset="1" stop-color="#EB1000" stop-opacity="0"/>
</radialGradient>
<linearGradient id="paint1_linear_5481_122488" x1="65.8473" y1="8.21454" x2="20.0376" y2="71.1537" gradientUnits="userSpaceOnUse">
<stop stop-color="#FF4885"/>
<stop offset="1" stop-color="#FF4885" stop-opacity="0"/>
</linearGradient>
<linearGradient id="paint2_linear_5481_122488" x1="35.7852" y1="-19.5761" x2="44.2834" y2="38.0593" gradientUnits="userSpaceOnUse">
<stop offset="0.15625" stop-color="#7A6AFD"/>
<stop offset="1" stop-color="#7A6AFD" stop-opacity="0"/>
</linearGradient>
<linearGradient id="paint3_linear_5481_122488" x1="-74.0435" y1="95.9953" x2="85.3705" y2="62.6087" gradientUnits="userSpaceOnUse">
<stop stop-color="#30A7FE" stop-opacity="0"/>
<stop offset="0.432292" stop-color="#30A7FE" stop-opacity="0.994652"/>
<stop offset="0.609375" stop-color="#30A7FE"/>
<stop offset="1" stop-color="#30A7FE" stop-opacity="0"/>
</linearGradient>
<clipPath id="clip0_5481_122488">
<rect x="4.19922" y="10.8008" width="85.2" height="80.4" rx="10" fill="white"/>
</clipPath>
</defs>
<clipPath id="mask0_5481_122488">
<path fill-rule="evenodd" d="M21.4516 16.7578H50.2936C55.5976 16.7578 59.8936 21.0538 59.8936 26.3578V79.2358H44.2996V66.8878C44.2996 64.2358 42.1516 62.0878 39.4996 62.0878H32.2456C29.5936 62.0878 27.4456 64.2358 27.4456 66.8878V79.2358H11.8516V26.3578C11.8516 21.0538 16.1476 16.7578 21.4516 16.7578ZM29.1256 50.6938C30.4516 50.6938 31.5256 49.6198 31.5256 48.2938V44.8378C31.5256 43.5118 30.4516 42.4378 29.1256 42.4378H25.6696C24.3436 42.4378 23.2696 43.5118 23.2696 44.8378V48.2938C23.2696 49.6198 24.3436 50.6938 25.6696 50.6938H29.1256ZM29.1256 33.8578C30.4516 33.8578 31.5256 32.7838 31.5256 31.4578V28.0018C31.5256 26.6758 30.4516 25.6018 29.1256 25.6018H25.6696C24.3436 25.6018 23.2696 26.6758 23.2696 28.0018V31.4578C23.2696 32.7838 24.3436 33.8578 25.6696 33.8578H29.1256ZM46.0816 50.6938C47.4076 50.6938 48.4816 49.6198 48.4816 48.2938V44.8378C48.4816 43.5118 47.4076 42.4378 46.0816 42.4378H42.6256C41.2996 42.4378 40.2256 43.5118 40.2256 44.8378V48.2938C40.2256 49.6198 41.2996 50.6938 42.6256 50.6938H46.0816ZM46.0816 33.8578C47.4076 33.8578 48.4816 32.7838 48.4816 31.4578V28.0018C48.4816 26.6758 47.4076 25.6018 46.0816 25.6018H42.6256C41.2996 25.6018 40.2256 26.6758 40.2256 28.0018V31.4578C40.2256 32.7838 41.2996 33.8578 42.6256 33.8578H46.0816ZM74.5456 29.7358C79.8496 29.7358 84.1456 34.0318 84.1456 39.3358V79.2358H64.6996V29.7358H74.5456ZM73.7476 67.0318C75.0736 67.0318 76.1476 65.9578 76.1476 64.6318V61.1758C76.1476 59.8498 75.0736 58.7758 73.7476 58.7758H70.2916C68.9656 58.7758 67.8916 59.8498 67.8916 61.1758V64.6318C67.8916 65.9578 68.9656 67.0318 70.2916 67.0318H73.7476ZM73.7476 50.1958C75.0736 50.1958 76.1476 49.1218 76.1476 47.7958V44.3398C76.1476 43.0138 75.0736 41.9398 73.7476 41.9398H70.2916C68.9656 41.9398 67.8916 43.0138 67.8916 44.3398V47.7958C67.8916 49.1218 68.9656 50.1958 70.2916 50.1958H73.7476Z" fill="white"/>
</clipPath>
<g clip-path="url(#mask0_5481_122488)">
<g clip-path="url(#clip0_5481_122488)">
<rect x="4.19922" y="10.8008" width="85.2" height="80.4" rx="10" fill="#D9F4FD"/>
<ellipse cx="80.1462" cy="63.6572" rx="123.013" ry="116.083" fill="url(#paint0_radial_5481_122488)"/>
<path d="M-3.46728 35.9821C-4.83471 8.19233 17.9298 -15.3818 47.3786 -16.6722C76.8274 -17.9626 101.809 3.51941 103.176 31.3092C104.544 59.0989 81.7793 82.673 52.3305 83.9634C22.8817 85.2538 -2.09985 63.7718 -3.46728 35.9821Z" fill="url(#paint1_linear_5481_122488)"/>
<path d="M25.7235 -44.8337C19.0802 -48.7129 10.6632 -48.7367 3.99526 -44.895L-62.6963 -6.46933C-69.2279 -2.70596 -69.2388 6.17703 -62.7161 9.95463L3.53481 48.3258C10.1928 52.1814 18.6098 52.1768 25.262 48.3121L91.3764 9.90498C97.8646 6.13544 97.8765 -2.6979 91.3962 -6.48167L25.7235 -44.8337Z" fill="url(#paint2_linear_5481_122488)"/>
<path d="M-38.2752 49.2567C-24.5291 49.2567 -12.0775 54.5067 -3.06245 62.9762C14.9677 79.9443 29.9158 79.9588 47.9459 63.0197C56.961 54.5067 69.428 49.2422 83.1895 49.2422C110.697 49.2567 132.98 70.2276 132.98 96.1148C132.98 122.002 110.697 142.958 83.1895 142.958C69.3972 142.958 56.9302 137.679 47.9151 129.166C29.9004 112.256 14.9677 112.271 -3.06245 129.239C-12.0775 137.723 -24.5291 142.958 -38.2752 142.958C-65.7673 142.958 -88.0507 121.988 -88.0507 96.1148C-88.0507 70.2421 -65.7673 49.2567 -38.2752 49.2567Z" fill="url(#paint3_linear_5481_122488)"/>
</g>
</g>

</svg>
