<svg width="96" height="96" viewBox="0 0 96 96" xmlns="http://www.w3.org/2000/svg">
  <defs>
<radialGradient id="paint0_radial_5481_122487" cx="0" cy="0" r="1" gradientUnits="userSpaceOnUse" gradientTransform="translate(80.1462 63.6572) rotate(90) scale(116.083 123.013)">
<stop offset="0.0885417" stop-color="#EB1000"/>
<stop offset="1" stop-color="#EB1000" stop-opacity="0"/>
</radialGradient>
<linearGradient id="paint1_linear_5481_122487" x1="65.8473" y1="8.21454" x2="20.0376" y2="71.1537" gradientUnits="userSpaceOnUse">
<stop stop-color="#FF4885"/>
<stop offset="1" stop-color="#FF4885" stop-opacity="0"/>
</linearGradient>
<linearGradient id="paint2_linear_5481_122487" x1="35.7852" y1="-19.5761" x2="44.2834" y2="38.0593" gradientUnits="userSpaceOnUse">
<stop offset="0.15625" stop-color="#7A6AFD"/>
<stop offset="1" stop-color="#7A6AFD" stop-opacity="0"/>
</linearGradient>
<linearGradient id="paint3_linear_5481_122487" x1="-74.0435" y1="95.9953" x2="85.3705" y2="62.6087" gradientUnits="userSpaceOnUse">
<stop stop-color="#30A7FE" stop-opacity="0"/>
<stop offset="0.432292" stop-color="#30A7FE" stop-opacity="0.994652"/>
<stop offset="0.609375" stop-color="#30A7FE"/>
<stop offset="1" stop-color="#30A7FE" stop-opacity="0"/>
</linearGradient>
<clipPath id="clip0_5481_122487">
<rect x="4.19922" y="10.8008" width="85.2" height="80.4" rx="10" fill="white"/>
</clipPath>
</defs>
<clipPath id="mask0_5481_122487">
<path fill-rule="evenodd" d="M65.9512 19.2957C67.6672 17.5797 67.6672 14.8077 65.9512 13.0917C64.2352 11.3757 61.4632 11.3757 59.7472 13.0917C58.0312 14.8077 58.0312 17.5797 59.7472 19.2957C61.4632 21.0117 64.2352 21.0117 65.9512 19.2957ZM38.8783 43.2717C37.8403 44.0997 37.6723 45.6117 38.5003 46.6437C38.9743 47.2377 39.6703 47.5437 40.3783 47.5437C40.9063 47.5437 41.4343 47.3697 41.8723 47.0157C53.4043 37.8057 52.8763 28.1397 52.8523 27.7317C52.7623 26.4177 51.6343 25.4397 50.3203 25.5117C49.0063 25.5897 47.9983 26.7237 48.0643 28.0377C48.0763 28.3497 48.3223 35.7237 38.8783 43.2657V43.2717ZM59.2792 61.1937C58.6612 60.0237 59.1112 58.5717 60.2812 57.9537H60.2872C61.4572 57.3357 62.9092 57.7857 63.5272 58.9557C66.9652 65.4717 65.8612 68.6637 64.3312 70.1937C63.8332 70.6917 63.1612 71.1417 62.2612 71.4057L20.7112 86.1657C19.9072 86.4537 19.0852 86.5917 18.2752 86.5917C16.4092 86.5917 14.5912 85.8537 13.2112 84.4737C11.2312 82.4937 10.5832 79.6197 11.5192 76.9737L26.1112 35.8557C26.1952 35.5437 26.3032 35.2437 26.4412 34.9557C26.7112 34.2837 27.0832 33.7557 27.4912 33.3477C29.0332 31.8057 32.2552 30.7077 38.8492 34.2177C40.0192 34.8417 40.4632 36.2937 39.8392 37.4637C39.2152 38.6337 37.7632 39.0777 36.5932 38.4537C32.8792 36.4797 31.1752 36.5997 30.8812 36.7497V36.7617L30.7732 37.0677C30.5332 38.8917 33.2932 45.9897 42.4912 55.1877C49.4632 62.1597 55.2232 65.4297 58.4152 66.4917C59.6512 66.7437 60.5272 66.8037 60.9712 66.7437C61.0852 66.4137 61.1452 64.7337 59.2792 61.1937ZM46.493 53.6577C45.875 53.6577 45.263 53.4237 44.795 52.9557C43.859 52.0137 43.859 50.4957 44.795 49.5597L54.161 40.1937C55.103 39.2577 56.621 39.2577 57.557 40.1937C58.493 41.1357 58.493 42.6537 57.557 43.5897L48.191 52.9557C47.723 53.4237 47.111 53.6577 46.493 53.6577ZM50.7229 55.8777C59.9329 44.3457 69.5989 44.8737 70.0069 44.8977L70.0009 44.9037C71.3269 44.9937 72.3229 46.1397 72.2329 47.4597C72.1429 48.7737 71.0089 49.7757 69.6949 49.6917C69.3409 49.6797 61.9909 49.4697 54.4729 58.8777C53.9989 59.4717 53.2969 59.7777 52.5949 59.7777C52.0729 59.7777 51.5449 59.6037 51.1009 59.2497C50.0629 58.4217 49.8949 56.9157 50.7229 55.8777ZM75.0225 55.3017C76.7385 53.5857 79.5106 53.5857 81.2265 55.3017C82.9426 57.0177 82.9426 59.7897 81.2265 61.5057C79.5106 63.2217 76.7385 63.2217 75.0225 61.5057C73.3065 59.7897 73.3065 57.0177 75.0225 55.3017ZM33.8097 16.9169L32.6574 17.7603C31.5878 18.5431 31.3553 20.0449 32.1382 21.1145L36.8264 27.5201C37.6092 28.5897 39.1109 28.8222 40.1805 28.0394L41.3329 27.196C42.4025 26.4131 42.635 24.9114 41.8521 23.8418L37.1639 17.4362C36.3811 16.3666 34.8794 16.1341 33.8097 16.9169ZM64.3359 32.9106L72.2235 32.0175C73.5406 31.8684 74.7292 32.8152 74.8783 34.1323L75.039 35.5512C75.1881 36.8683 74.2413 38.0568 72.9242 38.206L65.0366 39.0991C63.7196 39.2482 62.531 38.3014 62.3819 36.9843L62.2212 35.5654C62.0721 34.2483 63.0189 33.0597 64.3359 32.9106Z" fill="white"/>
</clipPath>
<g clip-path="url(#mask0_5481_122487)">
<g clip-path="url(#clip0_5481_122487)">
<rect x="4.19922" y="10.8008" width="85.2" height="80.4" rx="10" fill="#D9F4FD"/>
<ellipse cx="80.1462" cy="63.6572" rx="123.013" ry="116.083" fill="url(#paint0_radial_5481_122487)"/>
<path d="M-3.46728 35.9821C-4.83471 8.19233 17.9298 -15.3818 47.3786 -16.6722C76.8274 -17.9626 101.809 3.51941 103.176 31.3092C104.544 59.0989 81.7793 82.673 52.3305 83.9634C22.8817 85.2538 -2.09985 63.7718 -3.46728 35.9821Z" fill="url(#paint1_linear_5481_122487)"/>
<path d="M25.7235 -44.8337C19.0802 -48.7129 10.6632 -48.7367 3.99526 -44.895L-62.6963 -6.46933C-69.2279 -2.70596 -69.2388 6.17703 -62.7161 9.95463L3.53481 48.3258C10.1928 52.1814 18.6098 52.1768 25.262 48.3121L91.3764 9.90498C97.8646 6.13544 97.8765 -2.6979 91.3962 -6.48167L25.7235 -44.8337Z" fill="url(#paint2_linear_5481_122487)"/>
<path d="M-38.2752 49.2567C-24.5291 49.2567 -12.0775 54.5067 -3.06245 62.9762C14.9677 79.9443 29.9158 79.9588 47.9459 63.0197C56.961 54.5067 69.428 49.2422 83.1895 49.2422C110.697 49.2567 132.98 70.2276 132.98 96.1148C132.98 122.002 110.697 142.958 83.1895 142.958C69.3972 142.958 56.9302 137.679 47.9151 129.166C29.9004 112.256 14.9677 112.271 -3.06245 129.239C-12.0775 137.723 -24.5291 142.958 -38.2752 142.958C-65.7673 142.958 -88.0507 121.988 -88.0507 96.1148C-88.0507 70.2421 -65.7673 49.2567 -38.2752 49.2567Z" fill="url(#paint3_linear_5481_122487)"/>
</g>
</g>

</svg>
