<svg width="96" height="96" viewBox="0 0 96 96" xmlns="http://www.w3.org/2000/svg">
  <defs>
<radialGradient id="paint0_radial_5481_122437" cx="0" cy="0" r="1" gradientUnits="userSpaceOnUse" gradientTransform="translate(77.6693 58.9953) rotate(90) scale(109.429 116.083)">
<stop offset="0.0885417" stop-color="#EB1000"/>
<stop offset="1" stop-color="#EB1000" stop-opacity="0"/>
</radialGradient>
<linearGradient id="paint1_linear_5481_122437" x1="64.1717" y1="6.73128" x2="21.0019" y2="66.1056" gradientUnits="userSpaceOnUse">
<stop stop-color="#FF4885"/>
<stop offset="1" stop-color="#FF4885" stop-opacity="0"/>
</linearGradient>
<linearGradient id="paint2_linear_5481_122437" x1="35.8046" y1="-19.467" x2="43.8076" y2="34.867" gradientUnits="userSpaceOnUse">
<stop offset="0.15625" stop-color="#7A6AFD"/>
<stop offset="1" stop-color="#7A6AFD" stop-opacity="0"/>
</linearGradient>
<linearGradient id="paint3_linear_5481_122437" x1="-67.8338" y1="89.4794" x2="82.5862" y2="57.9434" gradientUnits="userSpaceOnUse">
<stop stop-color="#30A7FE" stop-opacity="0"/>
<stop offset="0.432292" stop-color="#30A7FE" stop-opacity="0.994652"/>
<stop offset="0.609375" stop-color="#30A7FE"/>
<stop offset="1" stop-color="#30A7FE" stop-opacity="0"/>
</linearGradient>
<clipPath id="clip0_5481_122437">
<rect x="6" y="9.16895" width="80.4002" height="75.7913" rx="10" fill="white"/>
</clipPath>
</defs>
<clipPath id="mask0_5481_122437">
<path fill-rule="evenodd" d="M14.4016 38.1457C14.4016 25.7193 24.4752 15.6457 36.9016 15.6457C49.328 15.6457 59.4016 25.7193 59.4016 38.1457C59.4016 50.5721 49.328 60.6457 36.9016 60.6457C24.4752 60.6457 14.4016 50.5721 14.4016 38.1457ZM36.9016 10.8457C21.8242 10.8457 9.60156 23.0683 9.60156 38.1457C9.60156 53.2231 21.8242 65.4457 36.9016 65.4457C43.5761 65.4457 49.6913 63.0504 54.4342 59.0725L58.5206 63.1588L57.1392 64.5402L74.8436 82.2446C76.5294 83.9304 79.2627 83.9304 80.9485 82.2446C82.6344 80.5587 82.6343 77.8255 80.9485 76.1396L63.2441 58.4353L61.9147 59.7647L57.8284 55.6784C61.8063 50.9354 64.2016 44.8203 64.2016 38.1457C64.2016 23.0683 51.9789 10.8457 36.9016 10.8457Z" fill="white"/>
</clipPath>
<g clip-path="url(#mask0_5481_122437)">
<g clip-path="url(#clip0_5481_122437)">
<rect x="6" y="9.16895" width="80.4002" height="75.7913" rx="10" fill="#D9F4FD"/>
<ellipse cx="77.6693" cy="58.9953" rx="116.083" ry="109.429" fill="url(#paint0_radial_5481_122437)"/>
<path d="M-1.23796 32.9071C-2.52836 6.71035 18.9537 -15.5124 46.7435 -16.7289C74.5333 -17.9453 98.1075 2.30529 99.3979 28.5021C100.688 54.6989 79.2063 76.9217 51.4164 78.1381C23.6266 79.3545 0.0524313 59.1039 -1.23796 32.9071Z" fill="url(#paint1_linear_5481_122437)"/>
<path d="M26.3097 -43.2768C20.0407 -46.9337 12.0979 -46.9561 5.80558 -43.3346L-57.1289 -7.11157C-63.2925 -3.56392 -63.3028 4.80987 -57.1476 8.37094L5.37108 44.5426C11.654 48.1771 19.5968 48.1728 25.8743 44.5296L88.2641 8.32414C94.3868 4.77067 94.398 -3.55633 88.2828 -7.1232L26.3097 -43.2768Z" fill="url(#paint2_linear_5481_122437)"/>
<path d="M-34.0806 45.4199C-21.1089 45.4199 -9.35877 50.3689 -0.851559 58.353C16.1629 74.3485 30.2688 74.3622 47.2833 58.394C55.7905 50.3689 67.5551 45.4062 80.5414 45.4062C106.499 45.4199 127.527 65.1887 127.527 89.592C127.527 113.995 106.499 133.75 80.5414 133.75C67.5261 133.75 55.7614 128.774 47.2542 120.749C30.2543 104.808 16.1629 104.822 -0.851559 120.817C-9.35877 128.815 -21.1089 133.75 -34.0806 133.75C-60.0239 133.75 -81.052 113.982 -81.052 89.592C-81.052 65.2024 -60.0239 45.4199 -34.0806 45.4199Z" fill="url(#paint3_linear_5481_122437)"/>
</g>
</g>

</svg>
