<svg width="48" height="48" viewBox="0 0 48 48" xmlns="http://www.w3.org/2000/svg">
  <defs>
<radialGradient id="paint0_radial_5481_122304" cx="0" cy="0" r="1" gradientUnits="userSpaceOnUse" gradientTransform="translate(40.2578 30.5391) rotate(90) scale(59.9687 59.9688)">
<stop offset="0.0885417" stop-color="#EB1000"/>
<stop offset="1" stop-color="#EB1000" stop-opacity="0"/>
</radialGradient>
<linearGradient id="paint1_linear_5481_122304" x1="33.2865" y1="1.89725" x2="9.23259" y2="33.0837" gradientUnits="userSpaceOnUse">
<stop stop-color="#FF4885"/>
<stop offset="1" stop-color="#FF4885" stop-opacity="0"/>
</linearGradient>
<linearGradient id="paint2_linear_5481_122304" x1="18.6313" y1="-12.4598" x2="23.2714" y2="17.2371" gradientUnits="userSpaceOnUse">
<stop offset="0.15625" stop-color="#7A6AFD"/>
<stop offset="1" stop-color="#7A6AFD" stop-opacity="0"/>
</linearGradient>
<linearGradient id="paint3_linear_5481_122304" x1="-34.9081" y1="47.2446" x2="43.1651" y2="31.8146" gradientUnits="userSpaceOnUse">
<stop stop-color="#30A7FE" stop-opacity="0"/>
<stop offset="0.432292" stop-color="#30A7FE" stop-opacity="0.994652"/>
<stop offset="0.609375" stop-color="#30A7FE"/>
<stop offset="1" stop-color="#30A7FE" stop-opacity="0"/>
</linearGradient>
<clipPath id="clip0_5481_122304">
<rect x="3.23438" y="3.23242" width="41.5348" height="41.5348" rx="10" fill="white"/>
</clipPath>
</defs>
<clipPath id="mask0_5481_122304">
<path d="M23.9984 8.40039C15.3828 8.40039 8.39844 15.3847 8.39844 24.0004C8.39844 32.616 15.3828 39.6004 23.9984 39.6004C32.6141 39.6004 39.5984 32.616 39.5984 24.0004C39.5984 15.3847 32.6141 8.40039 23.9984 8.40039ZM29.0972 25.0489L21.8971 29.1944C21.0966 29.6553 20.0973 29.0768 20.0984 28.153L20.1083 19.8449C20.1094 18.9211 21.1101 18.345 21.9096 18.8078L29.0997 22.9705C29.8991 23.4333 29.8977 24.588 29.0972 25.0489Z" fill="white"/>
</clipPath>
<g clip-path="url(#mask0_5481_122304)">
<g clip-path="url(#clip0_5481_122304)">
<rect x="3.23438" y="3.23242" width="41.5348" height="41.5348" rx="10" fill="#D9F4FD"/>
<ellipse cx="40.2578" cy="30.5391" rx="59.9688" ry="59.9687" fill="url(#paint0_radial_5481_122304)"/>
<path d="M-0.504182 16.242C-1.1708 1.88577 9.92684 -10.2927 24.2831 -10.9593C38.6393 -11.6259 50.8178 -0.528269 51.4844 13.828C52.151 28.1842 41.0534 40.3627 26.6971 41.0293C12.3409 41.6959 0.162437 30.5983 -0.504182 16.242Z" fill="url(#paint1_linear_5481_122304)"/>
<path d="M13.7262 -25.5079C10.4877 -27.5119 6.38438 -27.5242 3.13377 -25.5396L-29.3782 -5.6888C-32.5624 -3.74463 -32.5677 0.844338 -29.3879 2.79586L2.9093 22.6185C6.15505 24.6103 10.2583 24.6079 13.5013 22.6114L45.7319 2.77021C48.8949 0.822854 48.9007 -3.74047 45.7416 -5.69517L13.7262 -25.5079Z" fill="url(#paint2_linear_5481_122304)"/>
<path d="M-17.4712 23.0993C-10.77 23.0993 -4.69985 25.8114 -0.305016 30.1868C8.48465 38.9526 15.7718 38.9601 24.5615 30.2093C28.9563 25.8114 35.0339 23.0918 41.7426 23.0918C55.1525 23.0993 66.0156 33.9329 66.0156 47.3063C66.0156 60.6797 55.1525 71.5058 41.7426 71.5058C35.0189 71.5058 28.9413 68.7787 24.5464 64.3808C15.7643 55.645 8.48465 55.6525 -0.305016 64.4183C-4.69985 68.8012 -10.77 71.5058 -17.4712 71.5058C-30.8735 71.5058 -41.7366 60.6722 -41.7366 47.3063C-41.7366 33.9404 -30.8735 23.0993 -17.4712 23.0993Z" fill="url(#paint3_linear_5481_122304)"/>
</g>
</g>

</svg>
