<svg width="48" height="48" viewBox="0 0 48 48" xmlns="http://www.w3.org/2000/svg">
  <defs>
<radialGradient id="paint0_radial_5481_122414" cx="0" cy="0" r="1" gradientUnits="userSpaceOnUse" gradientTransform="translate(42.7877 31.5552) rotate(90) scale(69.3033)">
<stop offset="0.0885417" stop-color="#EB1000"/>
<stop offset="1" stop-color="#EB1000" stop-opacity="0"/>
</radialGradient>
<linearGradient id="paint1_linear_5481_122414" x1="34.7309" y1="-1.54315" x2="6.93278" y2="34.4977" gradientUnits="userSpaceOnUse">
<stop stop-color="#FF4885"/>
<stop offset="1" stop-color="#FF4885" stop-opacity="0"/>
</linearGradient>
<linearGradient id="paint2_linear_5481_122414" x1="17.7929" y1="-18.1348" x2="23.1553" y2="16.1845" gradientUnits="userSpaceOnUse">
<stop offset="0.15625" stop-color="#7A6AFD"/>
<stop offset="1" stop-color="#7A6AFD" stop-opacity="0"/>
</linearGradient>
<linearGradient id="paint3_linear_5481_122414" x1="-44.0785" y1="50.8616" x2="46.1473" y2="33.0298" gradientUnits="userSpaceOnUse">
<stop stop-color="#30A7FE" stop-opacity="0"/>
<stop offset="0.432292" stop-color="#30A7FE" stop-opacity="0.994652"/>
<stop offset="0.609375" stop-color="#30A7FE"/>
<stop offset="1" stop-color="#30A7FE" stop-opacity="0"/>
</linearGradient>
<clipPath id="clip0_5481_122414">
<rect width="48" height="48" rx="10" fill="white"/>
</clipPath>
</defs>
<clipPath id="mask0_5481_122414">
<path fill-rule="evenodd" d="M8.49805 15.5C8.49805 13.2909 10.2889 11.5 12.498 11.5L31.7321 11.5C31.8196 11.5084 31.9083 11.5127 31.9981 11.5127L32.6292 11.5127L22.5533 21.5887C21.4793 22.6626 21.4793 24.4038 22.5533 25.4777C23.6272 26.5517 25.3684 26.5517 26.4424 25.4777L36.4973 15.4228C36.4978 15.4485 36.4981 15.4742 36.4981 15.5L36.498 35.5C36.498 37.7091 34.7072 39.5 32.498 39.5L12.498 39.5C10.2889 39.5 8.49805 37.7091 8.49805 35.5L8.49805 15.5ZM23.6139 22.6493L34.3234 11.9398L36.2506 10.0127L31.998 10.0127C31.3077 10.0127 30.748 9.45305 30.748 8.76269C30.748 8.07234 31.3077 7.51269 31.998 7.51269L39.5234 7.5127C40.2138 7.5127 40.7734 8.07234 40.7734 8.7627L40.7734 16.2881C40.7734 16.9784 40.2138 17.5381 39.5234 17.5381C38.8331 17.5381 38.2734 16.9784 38.2734 16.2881L38.2734 11.5254L36.0804 13.7184L25.3817 24.4171C25.3207 24.4781 25.2549 24.5315 25.1856 24.5773C24.7004 24.8976 24.0411 24.8442 23.6139 24.4171C23.1258 23.9289 23.1258 23.1375 23.6139 22.6493Z" fill="white"/>
</clipPath>
<g clip-path="url(#mask0_5481_122414)">
<g clip-path="url(#clip0_5481_122414)">
<rect width="48" height="48" rx="10" fill="#D9F4FD"/>
<circle cx="42.7877" cy="31.5552" r="69.3033" fill="url(#paint0_radial_5481_122414)"/>
<path d="M-4.31959 15.0345C-5.08998 -1.55641 7.73508 -15.6305 24.326 -16.4009C40.9169 -17.1713 54.991 -4.34621 55.7613 12.2447C56.5317 28.8356 43.7067 42.9097 27.1158 43.6801C10.5249 44.4504 -3.54921 31.6254 -4.31959 15.0345Z" fill="url(#paint1_linear_5481_122414)"/>
<path d="M12.1243 -33.214C8.38167 -35.53 3.6397 -35.5442 -0.116893 -33.2506L-37.6896 -10.3099C-41.3694 -8.06314 -41.3755 -2.75987 -37.7007 -0.504581L-0.376298 22.4036C3.37467 24.7054 8.11665 24.7027 11.8644 22.3954L49.1119 -0.534222C52.7672 -2.7847 52.7739 -8.05833 49.1231 -10.3173L12.1243 -33.214Z" fill="url(#paint2_linear_5481_122414)"/>
<path d="M-23.9274 22.9579C-16.1831 22.9579 -9.16812 26.0922 -4.0892 31.1486C6.06863 41.2789 14.4901 41.2875 24.6479 31.1746C29.7268 26.0922 36.7505 22.9492 44.5034 22.9492C60.0006 22.9579 72.5547 35.4778 72.5547 50.9329C72.5547 66.388 60.0006 78.8992 44.5034 78.8992C36.7331 78.8992 29.7095 75.7476 24.6306 70.6652C14.4814 60.5696 6.06863 60.5782 -4.0892 70.7085C-9.16812 75.7736 -16.1831 78.8992 -23.9274 78.8992C-39.4159 78.8992 -51.9699 66.3793 -51.9699 50.9329C-51.9699 35.4865 -39.4159 22.9579 -23.9274 22.9579Z" fill="url(#paint3_linear_5481_122414)"/>
</g>
</g>

</svg>
