<svg width="48" height="48" viewBox="0 0 48 48" xmlns="http://www.w3.org/2000/svg">
  <defs>
<radialGradient id="paint0_radial_5481_122296" cx="0" cy="0" r="1" gradientUnits="userSpaceOnUse" gradientTransform="translate(39.1101 30.3118) rotate(90) scale(51.2844 54.4031)">
<stop offset="0.0885417" stop-color="#EB1000"/>
<stop offset="1" stop-color="#EB1000" stop-opacity="0"/>
</radialGradient>
<linearGradient id="paint1_linear_5481_122296" x1="32.7867" y1="5.81803" x2="12.5549" y2="33.6441" gradientUnits="userSpaceOnUse">
<stop stop-color="#FF4885"/>
<stop offset="1" stop-color="#FF4885" stop-opacity="0"/>
</linearGradient>
<linearGradient id="paint2_linear_5481_122296" x1="19.4927" y1="-6.45982" x2="23.2434" y2="19.0041" gradientUnits="userSpaceOnUse">
<stop offset="0.15625" stop-color="#7A6AFD"/>
<stop offset="1" stop-color="#7A6AFD" stop-opacity="0"/>
</linearGradient>
<linearGradient id="paint3_linear_5481_122296" x1="-29.0805" y1="44.5985" x2="41.4147" y2="29.819" gradientUnits="userSpaceOnUse">
<stop stop-color="#30A7FE" stop-opacity="0"/>
<stop offset="0.432292" stop-color="#30A7FE" stop-opacity="0.994652"/>
<stop offset="0.609375" stop-color="#30A7FE"/>
<stop offset="1" stop-color="#30A7FE" stop-opacity="0"/>
</linearGradient>
<clipPath id="clip0_5481_122296">
<rect x="5.52344" y="6.95996" width="37.68" height="35.52" rx="10" fill="white"/>
</clipPath>
</defs>
<clipPath id="mask0_5481_122296">
<path d="M31.5006 13.2004H16.4994L18.441 10.0924C19.098 9.03939 20.253 8.40039 21.495 8.40039H26.505C27.747 8.40039 28.899 9.03939 29.559 10.0924L31.5006 13.2004ZM10.8 15.6004H37.2C39.8511 15.6004 42 17.7493 42 20.4004V34.8004C42 37.4515 39.8511 39.6004 37.2 39.6004H10.8C8.1489 39.6004 6 37.4515 6 34.8004V20.4004C6 17.7493 8.1489 15.6004 10.8 15.6004ZM11.25 22.5004C12.2441 22.5004 13.05 21.6945 13.05 20.7004C13.05 19.7063 12.2441 18.9004 11.25 18.9004C10.2559 18.9004 9.45 19.7063 9.45 20.7004C9.45 21.6945 10.2559 22.5004 11.25 22.5004ZM24 34.8004C27.9765 34.8004 31.2 31.5769 31.2 27.6004C31.2 23.6239 27.9765 20.4004 24 20.4004C20.0235 20.4004 16.8 23.6239 16.8 27.6004C16.8 31.5769 20.0235 34.8004 24 34.8004Z" fill="#D9D9D9"/>
</clipPath>
<g clip-path="url(#mask0_5481_122296)">
<g clip-path="url(#clip0_5481_122296)">
<rect x="5.52344" y="6.95996" width="37.68" height="35.52" rx="10" fill="#D9F4FD"/>
<ellipse cx="39.1101" cy="30.3118" rx="54.4031" ry="51.2844" fill="url(#paint0_radial_5481_122296)"/>
<path d="M2.13208 18.0855C1.52733 5.80821 11.595 -4.60662 24.6189 -5.1767C37.6427 -5.74678 48.6909 3.74376 49.2956 16.021C49.9004 28.2983 39.8327 38.7131 26.8089 39.2832C13.785 39.8533 2.73683 30.3627 2.13208 18.0855Z" fill="url(#paint1_linear_5481_122296)"/>
<path d="M15.0428 -17.6184C12.1049 -19.3322 8.3824 -19.3427 5.43348 -17.6455L-24.0611 -0.669388C-26.9497 0.99324 -26.9545 4.91766 -24.0699 6.58657L5.22984 23.5386C8.17435 25.242 11.8968 25.2399 14.8388 23.5325L44.0781 6.56464C46.9475 4.89929 46.9528 0.996799 44.0869 -0.674839L15.0428 -17.6184Z" fill="url(#paint2_linear_5481_122296)"/>
<path d="M-13.2619 23.9498C-7.18261 23.9498 -1.67585 26.2692 2.3111 30.0109C10.285 37.5073 16.8958 37.5137 24.8697 30.0302C28.8567 26.2692 34.3703 23.9434 40.4563 23.9434C52.6216 23.9498 62.4766 33.2145 62.4766 44.6513C62.4766 56.088 52.6216 65.3464 40.4563 65.3464C34.3566 65.3464 28.8431 63.0142 24.8561 59.2532C16.889 51.7824 10.285 51.7888 2.3111 59.2852C-1.67585 63.0334 -7.18261 65.3464 -13.2619 65.3464C-25.4204 65.3464 -35.2753 56.0816 -35.2753 44.6513C-35.2753 33.2209 -25.4204 23.9498 -13.2619 23.9498Z" fill="url(#paint3_linear_5481_122296)"/>
</g>
</g>

</svg>
