<svg width="48" height="48" viewBox="0 0 48 48" xmlns="http://www.w3.org/2000/svg">
  <defs>
<radialGradient id="paint0_radial_5481_122389" cx="0" cy="0" r="1" gradientUnits="userSpaceOnUse" gradientTransform="translate(42.7877 31.5552) rotate(90) scale(69.3033)">
<stop offset="0.0885417" stop-color="#EB1000"/>
<stop offset="1" stop-color="#EB1000" stop-opacity="0"/>
</radialGradient>
<linearGradient id="paint1_linear_5481_122389" x1="34.7309" y1="-1.54315" x2="6.93278" y2="34.4977" gradientUnits="userSpaceOnUse">
<stop stop-color="#FF4885"/>
<stop offset="1" stop-color="#FF4885" stop-opacity="0"/>
</linearGradient>
<linearGradient id="paint2_linear_5481_122389" x1="17.7929" y1="-18.1348" x2="23.1553" y2="16.1845" gradientUnits="userSpaceOnUse">
<stop offset="0.15625" stop-color="#7A6AFD"/>
<stop offset="1" stop-color="#7A6AFD" stop-opacity="0"/>
</linearGradient>
<linearGradient id="paint3_linear_5481_122389" x1="-44.0785" y1="50.8616" x2="46.1473" y2="33.0298" gradientUnits="userSpaceOnUse">
<stop stop-color="#30A7FE" stop-opacity="0"/>
<stop offset="0.432292" stop-color="#30A7FE" stop-opacity="0.994652"/>
<stop offset="0.609375" stop-color="#30A7FE"/>
<stop offset="1" stop-color="#30A7FE" stop-opacity="0"/>
</linearGradient>
<clipPath id="clip0_5481_122389">
<rect width="48" height="48" rx="10" fill="white"/>
</clipPath>
</defs>
<clipPath id="mask0_5481_122389">
<path fill-rule="evenodd" d="M24 40.7539C33.1127 40.7539 40.5 33.3666 40.5 24.2539C40.5 15.1412 33.1127 7.75391 24 7.75391C14.8873 7.75391 7.5 15.1412 7.5 24.2539C7.5 33.3666 14.8873 40.7539 24 40.7539ZM20.5726 19.6868C20.5726 20.7445 19.7151 21.602 18.6574 21.602C17.5997 21.602 16.7422 20.7445 16.7422 19.6868C16.7422 18.6291 17.5997 17.7716 18.6574 17.7716C19.7151 17.7716 20.5726 18.6291 20.5726 19.6868ZM31.4744 19.6868C31.4744 20.7445 30.6169 21.602 29.5592 21.602C28.5015 21.602 27.644 20.7445 27.644 19.6868C27.644 18.6291 28.5015 17.7716 29.5592 17.7716C30.6169 17.7716 31.4744 18.6291 31.4744 19.6868ZM32.3224 27.5611C32.8328 27.965 32.9191 28.7062 32.5152 29.2166C31.5224 30.4711 30.2477 31.4844 28.7915 32.181C27.3355 32.8775 25.7355 33.2394 24.1149 33.2404C22.4943 33.2413 20.8939 32.8813 19.437 32.1865C17.98 31.4917 16.704 30.4799 15.7096 29.2266C15.3051 28.7167 15.3905 27.9754 15.9004 27.5708C16.4103 27.1663 17.1516 27.2517 17.5562 27.7616C18.3241 28.7295 19.3141 29.5165 20.4516 30.0589C21.5892 30.6014 22.8423 30.884 24.1135 30.8832C25.3848 30.8825 26.6375 30.5984 27.7744 30.0546C28.9111 29.5108 29.9001 28.7227 30.6668 27.7538C31.0708 27.2434 31.812 27.1571 32.3224 27.5611Z" fill="#D9D9D9"/>
</clipPath>
<g clip-path="url(#mask0_5481_122389)">
<g clip-path="url(#clip0_5481_122389)">
<rect width="48" height="48" rx="10" fill="#D9F4FD"/>
<circle cx="42.7877" cy="31.5552" r="69.3033" fill="url(#paint0_radial_5481_122389)"/>
<path d="M-4.31959 15.0345C-5.08998 -1.55641 7.73508 -15.6305 24.326 -16.4009C40.9169 -17.1713 54.991 -4.34621 55.7613 12.2447C56.5317 28.8356 43.7067 42.9097 27.1158 43.6801C10.5249 44.4504 -3.54921 31.6254 -4.31959 15.0345Z" fill="url(#paint1_linear_5481_122389)"/>
<path d="M12.1243 -33.214C8.38167 -35.53 3.6397 -35.5442 -0.116893 -33.2506L-37.6896 -10.3099C-41.3694 -8.06314 -41.3755 -2.75987 -37.7007 -0.504581L-0.376298 22.4036C3.37467 24.7054 8.11665 24.7027 11.8644 22.3954L49.1119 -0.534222C52.7672 -2.7847 52.7739 -8.05833 49.1231 -10.3173L12.1243 -33.214Z" fill="url(#paint2_linear_5481_122389)"/>
<path d="M-23.9274 22.9579C-16.1831 22.9579 -9.16812 26.0922 -4.0892 31.1486C6.06863 41.2789 14.4901 41.2875 24.6479 31.1746C29.7268 26.0922 36.7505 22.9492 44.5034 22.9492C60.0006 22.9579 72.5547 35.4778 72.5547 50.9329C72.5547 66.388 60.0006 78.8992 44.5034 78.8992C36.7331 78.8992 29.7095 75.7476 24.6306 70.6652C14.4814 60.5696 6.06863 60.5782 -4.0892 70.7085C-9.16812 75.7736 -16.1831 78.8992 -23.9274 78.8992C-39.4159 78.8992 -51.9699 66.3793 -51.9699 50.9329C-51.9699 35.4865 -39.4159 22.9579 -23.9274 22.9579Z" fill="url(#paint3_linear_5481_122389)"/>
</g>
</g>

</svg>
