<svg width="160" height="160" viewBox="0 0 160 160" xmlns="http://www.w3.org/2000/svg">
  <defs>
<radialGradient id="paint0_radial_5481_122177" cx="0" cy="0" r="1" gradientUnits="userSpaceOnUse" gradientTransform="translate(130.774 103.185) rotate(90) scale(178.298 189.141)">
<stop offset="0.0885417" stop-color="#EB1000"/>
<stop offset="1" stop-color="#EB1000" stop-opacity="0"/>
</radialGradient>
<linearGradient id="paint1_linear_5481_122177" x1="108.785" y1="18.0289" x2="38.4466" y2="114.771" gradientUnits="userSpaceOnUse">
<stop stop-color="#FF4885"/>
<stop offset="1" stop-color="#FF4885" stop-opacity="0"/>
</linearGradient>
<linearGradient id="paint2_linear_5481_122177" x1="62.5653" y1="-24.6583" x2="75.605" y2="63.8709" gradientUnits="userSpaceOnUse">
<stop offset="0.15625" stop-color="#7A6AFD"/>
<stop offset="1" stop-color="#7A6AFD" stop-opacity="0"/>
</linearGradient>
<linearGradient id="paint3_linear_5481_122177" x1="-106.301" y1="152.856" x2="138.787" y2="101.472" gradientUnits="userSpaceOnUse">
<stop stop-color="#30A7FE" stop-opacity="0"/>
<stop offset="0.432292" stop-color="#30A7FE" stop-opacity="0.994652"/>
<stop offset="0.609375" stop-color="#30A7FE"/>
<stop offset="1" stop-color="#30A7FE" stop-opacity="0"/>
</linearGradient>
<clipPath id="clip0_5481_122177">
<rect x="14" y="22" width="131" height="123.491" rx="10" fill="white"/>
</clipPath>
</defs>
<clipPath id="mask0_5481_122177">
<path fill-rule="evenodd" d="M90.3088 21.6797H122.279C131.115 21.6797 138.279 28.8431 138.279 37.6797V69.6497C138.279 78.4862 131.115 85.6497 122.279 85.6497H90.3088C81.4723 85.6497 74.3088 78.4862 74.3088 69.6497V37.6797C74.3088 28.8431 81.4723 21.6797 90.3088 21.6797ZM35.7188 41.1396H52.2388C59.9707 41.1396 66.2387 47.4077 66.2387 55.1396V71.6597C66.2387 79.3916 59.9707 85.6597 52.2388 85.6597H35.7188C27.9868 85.6597 21.7188 79.3916 21.7188 71.6597V55.1396C21.7188 47.4077 27.9868 41.1396 35.7188 41.1396ZM52.2388 93.7997H35.7188C27.9868 93.7997 21.7188 100.068 21.7188 107.8V124.32C21.7188 132.052 27.9868 138.32 35.7188 138.32H52.2388C59.9707 138.32 66.2387 132.052 66.2387 124.32V107.8C66.2387 100.068 59.9707 93.7997 52.2388 93.7997ZM88.3088 93.7997H104.829C112.561 93.7997 118.829 100.068 118.829 107.8V124.32C118.829 132.052 112.561 138.32 104.829 138.32H88.3088C80.5769 138.32 74.3088 132.052 74.3088 124.32V107.8C74.3088 100.068 80.5769 93.7997 88.3088 93.7997Z" fill="white"/>
</clipPath>
<g clip-path="url(#mask0_5481_122177)">
<g clip-path="url(#clip0_5481_122177)">
<rect x="14" y="22" width="131" height="123.491" rx="10" fill="#D9F4FD"/>
<ellipse cx="130.774" cy="103.185" rx="189.141" ry="178.298" fill="url(#paint0_radial_5481_122177)"/>
<path d="M2.20997 60.6786C0.107457 17.9948 35.1093 -18.214 80.3887 -20.196C125.668 -22.1779 164.079 10.8174 166.181 53.5012C168.284 96.1851 133.282 132.394 88.0026 134.376C42.7231 136.358 4.31247 103.362 2.20997 60.6786Z" fill="url(#paint1_linear_5481_122177)"/>
<path d="M47.0947 -63.4529C36.8803 -69.4113 23.9386 -69.4478 13.6862 -63.5471L-88.8563 -4.527C-98.899 1.25338 -98.9158 14.8972 -88.8867 20.6995L12.9782 79.6359C23.2153 85.5579 36.157 85.5508 46.3852 79.6148L148.04 20.6232C158.016 14.8334 158.034 1.26575 148.071 -4.54595L47.0947 -63.4529Z" fill="url(#paint2_linear_5481_122177)"/>
<path d="M-51.3047 81.0672C-30.1693 81.0672 -11.0241 89.1309 2.83711 102.14C30.5596 128.202 53.5432 128.224 81.2657 102.207C95.127 89.1309 114.296 81.0449 135.455 81.0449C177.75 81.0672 212.012 113.278 212.012 153.039C212.012 192.801 177.75 224.989 135.455 224.989C114.248 224.989 95.0796 216.881 81.2183 203.805C53.5195 177.832 30.5596 177.854 2.83711 203.916C-11.0241 216.947 -30.1693 224.989 -51.3047 224.989C-93.5756 224.989 -127.838 192.779 -127.838 153.039C-127.838 113.3 -93.5756 81.0672 -51.3047 81.0672Z" fill="url(#paint3_linear_5481_122177)"/>
</g>
</g>

</svg>
