<svg width="96" height="96" viewBox="0 0 96 96" xmlns="http://www.w3.org/2000/svg">
  <defs>
<radialGradient id="paint0_radial_5481_122499" cx="0" cy="0" r="1" gradientUnits="userSpaceOnUse" gradientTransform="translate(77.8634 61.104) rotate(90) scale(106.979 113.484)">
<stop offset="0.0885417" stop-color="#EB1000"/>
<stop offset="1" stop-color="#EB1000" stop-opacity="0"/>
</radialGradient>
<linearGradient id="paint1_linear_5481_122499" x1="64.6728" y1="10.0091" x2="22.4695" y2="68.0542" gradientUnits="userSpaceOnUse">
<stop stop-color="#FF4885"/>
<stop offset="1" stop-color="#FF4885" stop-opacity="0"/>
</linearGradient>
<linearGradient id="paint2_linear_5481_122499" x1="36.9407" y1="-15.6028" x2="44.7646" y2="37.5147" gradientUnits="userSpaceOnUse">
<stop offset="0.15625" stop-color="#7A6AFD"/>
<stop offset="1" stop-color="#7A6AFD" stop-opacity="0"/>
</linearGradient>
<linearGradient id="paint3_linear_5481_122499" x1="-64.382" y1="90.9048" x2="82.6705" y2="60.0748" gradientUnits="userSpaceOnUse">
<stop stop-color="#30A7FE" stop-opacity="0"/>
<stop offset="0.432292" stop-color="#30A7FE" stop-opacity="0.994652"/>
<stop offset="0.609375" stop-color="#30A7FE"/>
<stop offset="1" stop-color="#30A7FE" stop-opacity="0"/>
</linearGradient>
<clipPath id="clip0_5481_122499">
<rect x="7.80078" y="12.3926" width="78.6002" height="74.0945" rx="10" fill="white"/>
</clipPath>
</defs>
<clipPath id="mask0_5481_122499">
<path fill-rule="evenodd" d="M50.4008 17.969C50.4008 19.295 49.3268 20.369 48.0008 20.369C46.6748 20.369 45.6008 19.295 45.6008 17.969V14.357C45.6008 13.031 46.6748 11.957 48.0008 11.957C49.3268 11.957 50.4008 13.031 50.4008 14.357V17.969ZM46.681 26.207C37.771 26.843 30.559 34.109 29.899 43.103C29.413 49.787 32.467 55.775 37.369 59.357C38.959 60.521 39.931 62.363 39.931 64.349V68.399H55.849C55.8922 68.399 55.9354 68.4055 55.9786 68.412L55.9788 68.412C56.0076 68.4163 56.0363 68.4206 56.065 68.423V64.355C56.065 62.417 56.953 60.569 58.513 59.441C63.133 56.117 66.145 50.663 66.145 44.495C66.145 33.923 57.295 25.445 46.675 26.201L46.681 26.207ZM58.303 44.747C56.977 44.747 55.903 43.673 55.903 42.347C55.903 39.341 53.239 36.899 49.963 36.899C48.637 36.899 47.563 35.825 47.563 34.499C47.563 33.173 48.637 32.099 49.963 32.099C55.885 32.099 60.703 36.695 60.703 42.347C60.703 43.673 59.629 44.747 58.303 44.747ZM39.9371 73.199V76.079C39.9371 77.765 41.2931 79.133 42.9611 79.133H53.0471C54.7151 79.133 56.0711 77.765 56.0711 76.079V73.175C56.0424 73.1774 56.0136 73.1817 55.9849 73.1861L55.9847 73.1861C55.9415 73.1926 55.8983 73.199 55.8551 73.199H39.9371ZM17.9703 41.987H21.5823C22.9083 41.987 23.9823 43.061 23.9823 44.387C23.9823 45.713 22.9083 46.787 21.5823 46.787H17.9703C16.6443 46.787 15.5703 45.713 15.5703 44.387C15.5703 43.061 16.6443 41.987 17.9703 41.987ZM78.0245 41.987H74.4125C73.0865 41.987 72.0125 43.061 72.0125 44.387C72.0125 45.713 73.0865 46.787 74.4125 46.787H78.0245C79.3505 46.787 80.4245 45.713 80.4245 44.387C80.4245 43.061 79.3505 41.987 78.0245 41.987ZM67.5372 21.455L64.9872 24.005C64.0512 24.941 64.0512 26.459 64.9872 27.401C65.4552 27.869 66.0672 28.103 66.6852 28.103C67.3032 28.103 67.9152 27.869 68.3832 27.401L70.9332 24.851C71.8692 23.915 71.8692 22.397 70.9332 21.455C69.9972 20.519 68.4792 20.519 67.5372 21.455ZM28.4703 21.461L31.0203 24.011C31.9563 24.953 31.9563 26.471 31.0203 27.407C30.5523 27.875 29.9403 28.109 29.3223 28.109C28.7043 28.109 28.0923 27.875 27.6243 27.407L25.0743 24.857C24.1383 23.915 24.1383 22.397 25.0743 21.461C26.0163 20.525 27.5343 20.525 28.4703 21.461Z" fill="white"/>
</clipPath>
<g clip-path="url(#mask0_5481_122499)">
<g clip-path="url(#clip0_5481_122499)">
<rect x="7.80078" y="12.3926" width="78.6002" height="74.0945" rx="10" fill="#D9F4FD"/>
<ellipse cx="77.8634" cy="61.104" rx="113.484" ry="106.979" fill="url(#paint0_radial_5481_122499)"/>
<path d="M0.727532 35.599C-0.533973 9.98868 20.4671 -11.7366 47.6348 -12.9258C74.8025 -14.115 97.8489 5.68225 99.1104 31.2925C100.372 56.9028 79.3708 78.6281 52.2031 79.8173C25.0354 81.0065 1.98904 61.2093 0.727532 35.599Z" fill="url(#paint1_linear_5481_122499)"/>
<path d="M27.6584 -38.8796C21.5297 -42.4546 13.7647 -42.4765 7.61328 -38.9361L-53.9122 -3.52401C-59.9379 -0.0557808 -59.9479 8.13054 -53.9305 11.6119L7.1885 46.9737C13.3307 50.5269 21.0958 50.5227 27.2327 46.9611L88.2257 11.5661C94.2113 8.09221 94.2223 -0.0483564 88.244 -3.53538L27.6584 -38.8796Z" fill="url(#paint2_linear_5481_122499)"/>
<path d="M-31.3844 47.8317C-18.7031 47.8317 -7.21605 52.67 1.1007 60.4753C17.7342 76.1126 31.5244 76.126 48.1579 60.5154C56.4746 52.67 67.9759 47.8184 80.6714 47.8184C106.048 47.8317 126.605 67.1579 126.605 91.0149C126.605 114.872 106.048 134.185 80.6714 134.185C67.9475 134.185 56.4462 129.32 48.1294 121.474C31.5102 105.89 17.7342 105.904 1.1007 121.541C-7.21605 129.36 -18.7031 134.185 -31.3844 134.185C-56.7469 134.185 -77.3042 114.859 -77.3042 91.0149C-77.3042 67.1713 -56.7469 47.8317 -31.3844 47.8317Z" fill="url(#paint3_linear_5481_122499)"/>
</g>
</g>

</svg>
