<svg width="160" height="160" viewBox="0 0 160 160" xmlns="http://www.w3.org/2000/svg">
  <defs>
<radialGradient id="paint0_radial_5481_122226" cx="0" cy="0" r="1" gradientUnits="userSpaceOnUse" gradientTransform="translate(142.62 105.187) rotate(90) scale(231.011)">
<stop offset="0.0885417" stop-color="#EB1000"/>
<stop offset="1" stop-color="#EB1000" stop-opacity="0"/>
</radialGradient>
<linearGradient id="paint1_linear_5481_122226" x1="115.768" y1="-5.14512" x2="23.108" y2="114.991" gradientUnits="userSpaceOnUse">
<stop stop-color="#FF4885"/>
<stop offset="1" stop-color="#FF4885" stop-opacity="0"/>
</linearGradient>
<linearGradient id="paint2_linear_5481_122226" x1="59.3137" y1="-60.4521" x2="77.1884" y2="53.9458" gradientUnits="userSpaceOnUse">
<stop offset="0.15625" stop-color="#7A6AFD"/>
<stop offset="1" stop-color="#7A6AFD" stop-opacity="0"/>
</linearGradient>
<linearGradient id="paint3_linear_5481_122226" x1="-146.934" y1="169.541" x2="153.819" y2="110.102" gradientUnits="userSpaceOnUse">
<stop stop-color="#30A7FE" stop-opacity="0"/>
<stop offset="0.432292" stop-color="#30A7FE" stop-opacity="0.994652"/>
<stop offset="0.609375" stop-color="#30A7FE"/>
<stop offset="1" stop-color="#30A7FE" stop-opacity="0"/>
</linearGradient>
<clipPath id="clip0_5481_122226">
<rect width="160" height="160" rx="10" fill="white"/>
</clipPath>
</defs>
<clipPath id="mask0_5481_122226">
<path fill-rule="evenodd" d="M80 136C110.928 136 136 110.928 136 80C136 49.0721 110.928 24 80 24C49.0721 24 24 49.0721 24 80C24 110.928 49.0721 136 80 136ZM88.484 49.7036C88.484 54.3897 84.6852 58.1884 79.9991 58.1884C75.3131 58.1884 71.5143 54.3897 71.5143 49.7036C71.5143 45.0175 75.3131 41.2188 79.9991 41.2188C84.6852 41.2188 88.484 45.0175 88.484 49.7036ZM51.0869 61.7799C51.6025 59.9777 53.4814 58.9348 55.2835 59.4505C71.2283 64.0126 88.1247 64.0719 104.101 59.6216L104.739 59.444C106.545 58.941 108.416 59.9971 108.919 61.8028C109.422 63.6084 108.366 65.48 106.56 65.9829L105.923 66.1606C100.823 67.5812 95.6354 68.5746 90.4136 69.1409C89.3841 69.2525 88.5932 70.1146 88.5932 71.1502V86.0354C88.5932 86.2202 88.6187 86.4036 88.6692 86.5813C90.0405 91.4097 91.614 96.9705 92.9914 101.85C93.9685 105.311 94.8473 108.43 95.4856 110.703C95.8047 111.84 96.0642 112.766 96.2459 113.418L96.2874 113.567C96.4203 114.043 96.5593 114.541 96.5956 114.723C96.9632 116.561 95.7712 118.349 93.9332 118.716C92.0951 119.084 90.3071 117.892 89.9395 116.054C89.9575 116.144 89.9429 116.091 89.8574 115.782C89.8211 115.65 89.772 115.473 89.7072 115.24C89.5273 114.595 89.2693 113.673 88.9506 112.539C88.3134 110.27 87.4354 107.153 86.4588 103.694C85.2735 99.4949 83.9434 94.7928 82.7223 90.4888C82.4783 89.6286 81.6928 89.0353 80.7986 89.0353H79.1995C78.3053 89.0353 77.5198 89.6286 77.2757 90.4888C76.0547 94.7928 74.7246 99.4949 73.5392 103.694C72.5626 107.153 71.6847 110.27 71.0475 112.539C70.7288 113.673 70.4708 114.595 70.2909 115.24C70.2263 115.472 70.1774 115.649 70.1411 115.78L70.141 115.78L70.1407 115.782L70.1406 115.782L70.1406 115.782C70.0551 116.091 70.0406 116.144 70.0585 116.054C69.6909 117.892 67.9029 119.084 66.0649 118.716C64.2269 118.349 63.0349 116.561 63.4025 114.723C63.4388 114.541 63.5778 114.043 63.7107 113.567L63.7521 113.418C63.9339 112.766 64.1933 111.84 64.5124 110.703C65.1507 108.43 66.0296 105.311 67.0067 101.85C68.384 96.9705 69.9575 91.4097 71.3288 86.5813C71.3793 86.4036 71.4048 86.2202 71.4048 86.0354V71.1509C71.4048 70.1153 70.6139 69.2532 69.5843 69.1416C64.1366 68.5512 58.7274 67.4961 53.4163 65.9765C51.6142 65.4608 50.5713 63.582 51.0869 61.7799Z" fill="white"/>
</clipPath>
<g clip-path="url(#mask0_5481_122226)">
<g clip-path="url(#clip0_5481_122226)">
<rect width="160" height="160" rx="10" fill="#D9F4FD"/>
<circle cx="142.62" cy="105.187" r="231.011" fill="url(#paint0_radial_5481_122226)"/>
<path d="M-14.3999 50.1137C-16.9679 -5.18932 25.7823 -52.103 81.0853 -54.6709C136.388 -57.2388 183.302 -14.4887 185.87 40.8143C188.438 96.1173 145.688 143.031 90.3846 145.599C35.0817 148.167 -11.832 105.417 -14.3999 50.1137Z" fill="url(#paint1_linear_5481_122226)"/>
<path d="M40.4184 -110.716C27.9428 -118.436 12.1362 -118.483 -0.385738 -110.838L-125.628 -34.3691C-137.894 -26.8797 -137.914 -9.20217 -125.665 -1.68455L-1.25042 74.676C11.2528 82.3487 27.0594 82.3396 39.5518 74.6486L163.71 -1.78335C175.895 -9.28493 175.917 -26.8637 163.748 -34.3936L40.4184 -110.716Z" fill="url(#paint2_linear_5481_122226)"/>
<path d="M-79.7631 76.5289C-53.9489 76.5289 -30.5656 86.9766 -13.6359 103.831C20.2235 137.599 48.2951 137.628 82.1545 103.918C99.0842 86.9766 122.496 76.5 148.34 76.5C199.997 76.5289 241.844 118.262 241.844 169.779C241.844 221.296 199.997 263 148.34 263C122.439 263 99.0263 252.495 82.0966 235.553C48.2661 201.901 20.2235 201.93 -13.6359 235.697C-30.5656 252.581 -53.9489 263 -79.7631 263C-131.392 263 -173.238 221.267 -173.238 169.779C-173.238 118.291 -131.392 76.5289 -79.7631 76.5289Z" fill="url(#paint3_linear_5481_122226)"/>
</g>
</g>

</svg>
