<svg width="160" height="160" viewBox="0 0 160 160" xmlns="http://www.w3.org/2000/svg">
  <defs>
<radialGradient id="paint0_radial_5481_122201" cx="0" cy="0" r="1" gradientUnits="userSpaceOnUse" gradientTransform="translate(142.62 105.187) rotate(90) scale(231.011)">
<stop offset="0.0885417" stop-color="#EB1000"/>
<stop offset="1" stop-color="#EB1000" stop-opacity="0"/>
</radialGradient>
<linearGradient id="paint1_linear_5481_122201" x1="115.768" y1="-5.14512" x2="23.108" y2="114.991" gradientUnits="userSpaceOnUse">
<stop stop-color="#FF4885"/>
<stop offset="1" stop-color="#FF4885" stop-opacity="0"/>
</linearGradient>
<linearGradient id="paint2_linear_5481_122201" x1="59.3137" y1="-60.4521" x2="77.1884" y2="53.9458" gradientUnits="userSpaceOnUse">
<stop offset="0.15625" stop-color="#7A6AFD"/>
<stop offset="1" stop-color="#7A6AFD" stop-opacity="0"/>
</linearGradient>
<linearGradient id="paint3_linear_5481_122201" x1="-146.934" y1="169.541" x2="153.819" y2="110.102" gradientUnits="userSpaceOnUse">
<stop stop-color="#30A7FE" stop-opacity="0"/>
<stop offset="0.432292" stop-color="#30A7FE" stop-opacity="0.994652"/>
<stop offset="0.609375" stop-color="#30A7FE"/>
<stop offset="1" stop-color="#30A7FE" stop-opacity="0"/>
</linearGradient>
<clipPath id="clip0_5481_122201">
<rect width="160" height="160" rx="10" fill="white"/>
</clipPath>
</defs>
<clipPath id="mask0_5481_122201">
<path d="M94.4228 33.8288L65.8527 33.8288V28.1875C65.8527 25.9784 64.0619 24.1875 61.8527 24.1875C59.6436 24.1875 57.8527 25.9784 57.8527 28.1875V33.8288L28.2852 33.8288C26.076 33.8288 24.2852 35.6197 24.2852 37.8288C24.2852 40.038 26.076 41.8288 28.2852 41.8288L78.6451 41.8288C76.8111 53.3568 70.4072 62.7298 62.3572 69.8063C60.4948 71.4434 58.5559 72.9467 56.5823 74.3148C52.884 67.8726 50.2504 61.6908 49.4581 57.1952C49.0747 55.0195 47.0002 53.5667 44.8246 53.9501C42.649 54.3335 41.1961 56.408 41.5795 58.5836C42.595 64.3462 45.7236 71.4983 49.7444 78.4722C44.5005 81.2467 39.3455 83.08 35.0328 83.9482C32.8671 84.3841 31.4649 86.4932 31.9008 88.6589C32.3368 90.8246 34.4458 92.2268 36.6115 91.7909C41.8332 90.7397 47.9027 88.554 53.9833 85.2777C59.8229 93.9959 67.0257 102.326 73.4387 106.468C75.2944 107.667 77.7704 107.134 78.9691 105.278C80.1677 103.423 79.6351 100.947 77.7794 99.7479C72.7959 96.5289 66.412 89.4032 60.8207 81.1094C63.1568 79.5081 65.4463 77.7423 67.639 75.8148C76.9926 67.5925 84.8173 56.2083 86.7298 41.8288H94.4228C96.6319 41.8288 98.4228 40.038 98.4228 37.8288C98.4228 35.6197 96.6319 33.8288 94.4228 33.8288Z" fill="#292929"/>
<path fill-rule="evenodd" d="M93.2787 113.843L85.0002 133.374C84.1381 135.408 81.7904 136.358 79.7564 135.496C77.7224 134.634 76.7724 132.286 77.6345 130.252L102.819 70.8327C102.883 70.6789 102.956 70.5291 103.038 70.3842C103.18 70.1331 103.346 69.9023 103.533 69.6936C103.914 69.2662 104.393 68.9143 104.956 68.6759C105.466 68.4597 105.996 68.3575 106.517 68.3578C107.038 68.3575 107.568 68.4597 108.078 68.6759C108.64 68.9143 109.12 69.2662 109.501 69.6936C109.687 69.9023 109.854 70.1331 109.996 70.3842C110.078 70.5291 110.151 70.6789 110.214 70.8327L135.399 130.252C136.261 132.286 135.311 134.634 133.277 135.496C131.243 136.358 128.896 135.408 128.034 133.374L119.752 113.836C119.678 113.84 119.602 113.843 119.526 113.843H93.2787ZM106.517 82.1091L96.6699 105.343H116.365L106.517 82.1091Z" fill="#292929"/>
</clipPath>
<g clip-path="url(#mask0_5481_122201)">
<g clip-path="url(#clip0_5481_122201)">
<rect width="160" height="160" rx="10" fill="#D9F4FD"/>
<circle cx="142.62" cy="105.187" r="231.011" fill="url(#paint0_radial_5481_122201)"/>
<path d="M-14.3999 50.1137C-16.9679 -5.18932 25.7823 -52.103 81.0853 -54.6709C136.388 -57.2388 183.302 -14.4887 185.87 40.8143C188.438 96.1173 145.688 143.031 90.3846 145.599C35.0817 148.167 -11.832 105.417 -14.3999 50.1137Z" fill="url(#paint1_linear_5481_122201)"/>
<path d="M40.4184 -110.716C27.9428 -118.436 12.1362 -118.483 -0.385738 -110.838L-125.628 -34.3691C-137.894 -26.8797 -137.914 -9.20217 -125.665 -1.68455L-1.25042 74.676C11.2528 82.3487 27.0594 82.3396 39.5518 74.6486L163.71 -1.78335C175.895 -9.28493 175.917 -26.8637 163.748 -34.3936L40.4184 -110.716Z" fill="url(#paint2_linear_5481_122201)"/>
<path d="M-79.7631 76.5289C-53.9489 76.5289 -30.5656 86.9766 -13.6359 103.831C20.2235 137.599 48.2951 137.628 82.1545 103.918C99.0842 86.9766 122.496 76.5 148.34 76.5C199.997 76.5289 241.844 118.262 241.844 169.779C241.844 221.296 199.997 263 148.34 263C122.439 263 99.0263 252.495 82.0966 235.553C48.2661 201.901 20.2235 201.93 -13.6359 235.697C-30.5656 252.581 -53.9489 263 -79.7631 263C-131.392 263 -173.238 221.267 -173.238 169.779C-173.238 118.291 -131.392 76.5289 -79.7631 76.5289Z" fill="url(#paint3_linear_5481_122201)"/>
</g>
</g>

</svg>
