<svg width="96" height="96" viewBox="0 0 96 96" xmlns="http://www.w3.org/2000/svg">
  <defs>
<radialGradient id="paint0_radial_5481_122494" cx="0" cy="0" r="1" gradientUnits="userSpaceOnUse" gradientTransform="translate(81.4215 61.1558) rotate(90) scale(107.468 114.004)">
<stop offset="0.0885417" stop-color="#EB1000"/>
<stop offset="1" stop-color="#EB1000" stop-opacity="0"/>
</radialGradient>
<linearGradient id="paint1_linear_5481_122494" x1="68.1689" y1="9.82859" x2="25.7725" y2="68.1392" gradientUnits="userSpaceOnUse">
<stop stop-color="#FF4885"/>
<stop offset="1" stop-color="#FF4885" stop-opacity="0"/>
</linearGradient>
<linearGradient id="paint2_linear_5481_122494" x1="40.3106" y1="-15.9" x2="48.1702" y2="37.4605" gradientUnits="userSpaceOnUse">
<stop offset="0.15625" stop-color="#7A6AFD"/>
<stop offset="1" stop-color="#7A6AFD" stop-opacity="0"/>
</linearGradient>
<linearGradient id="paint3_linear_5481_122494" x1="-61.4704" y1="91.0941" x2="86.2547" y2="60.1231" gradientUnits="userSpaceOnUse">
<stop stop-color="#30A7FE" stop-opacity="0"/>
<stop offset="0.432292" stop-color="#30A7FE" stop-opacity="0.994652"/>
<stop offset="0.609375" stop-color="#30A7FE"/>
<stop offset="1" stop-color="#30A7FE" stop-opacity="0"/>
</linearGradient>
<clipPath id="clip0_5481_122494">
<rect x="11.0391" y="12.2227" width="78.9598" height="74.4334" rx="10" fill="white"/>
</clipPath>
</defs>
<clipPath id="mask0_5481_122494">
<path fill-rule="evenodd" d="M75.2562 29.0824V58.4824C75.2562 63.7864 70.9602 68.0824 65.6562 68.0824H21.2562C15.9522 68.0824 11.6562 63.7864 11.6562 58.4824V29.0824C11.6562 23.7784 15.9522 19.4824 21.2562 19.4824H65.6562C70.9602 19.4824 75.2562 23.7784 75.2562 29.0824ZM66.8322 33.2104C66.8322 30.3184 64.4862 27.9724 61.5942 27.9724C58.7022 27.9724 56.3562 30.3184 56.3562 33.2104C56.3562 36.1024 58.7022 38.4484 61.5942 38.4484C64.4862 38.4484 66.8322 36.1024 66.8322 33.2104ZM17.3862 57.7324C15.8502 60.1264 17.5662 63.2764 20.4162 63.2764V63.2704H66.1242C68.9742 63.2704 70.6902 60.1204 69.1542 57.7264L62.0863 46.7164C60.6702 44.5084 57.4422 44.5084 56.0262 46.7164L48.0102 59.2084L35.2542 39.3364C33.8382 37.1284 30.6102 37.1284 29.1942 39.3364L17.3862 57.7324ZM84.4108 41.9427C84.4108 40.8382 83.5153 39.9427 82.4108 39.9427C81.3062 39.9427 80.4108 40.8382 80.4108 41.9427V63.9558C80.4108 68.8549 76.4392 72.8264 71.5401 72.8264H35.667C34.5624 72.8264 33.667 73.7219 33.667 74.8264C33.667 75.931 34.5624 76.8264 35.667 76.8264H71.5401C78.6484 76.8264 84.4108 71.0641 84.4108 63.9558V41.9427Z" fill="white"/>
</clipPath>
<g clip-path="url(#mask0_5481_122494)">
<g clip-path="url(#clip0_5481_122494)">
<rect x="11.0391" y="12.2227" width="78.9598" height="74.4334" rx="10" fill="#D9F4FD"/>
<ellipse cx="81.4215" cy="61.1558" rx="114.004" ry="107.468" fill="url(#paint0_radial_5481_122494)"/>
<path d="M3.93113 35.5355C2.66385 9.80803 23.761 -12.0166 51.053 -13.2112C78.3449 -14.4059 101.497 5.48189 102.764 31.2093C104.031 56.9368 82.9341 78.7614 55.6422 79.956C28.3502 81.1507 5.19841 61.2629 3.93113 35.5355Z" fill="url(#paint1_linear_5481_122494)"/>
<path d="M30.9858 -39.2832C24.8291 -42.8746 17.0286 -42.8966 10.849 -39.34L-50.9579 -3.76597C-57.0111 -0.281879 -57.0212 7.94188 -50.9763 11.4392L10.4223 46.9628C16.5926 50.5322 24.3931 50.5279 30.5581 46.95L91.8302 11.3932C97.8432 7.90338 97.8541 -0.27442 91.8485 -3.77739L30.9858 -39.2832Z" fill="url(#paint2_linear_5481_122494)"/>
<path d="M-28.3219 47.824C-15.5826 47.824 -4.04301 52.6843 4.31178 60.5254C21.0214 76.2343 34.8746 76.2477 51.5842 60.5656C59.939 52.6843 71.4929 47.8105 84.2465 47.8105C109.739 47.824 130.391 67.2386 130.391 91.2047C130.391 115.171 109.739 134.572 84.2465 134.572C71.4643 134.572 59.9104 129.685 51.5556 121.803C34.8603 106.148 21.0214 106.162 4.31178 121.871C-4.04301 129.725 -15.5826 134.572 -28.3219 134.572C-53.8005 134.572 -74.4518 115.157 -74.4518 91.2047C-74.4518 67.252 -53.8005 47.824 -28.3219 47.824Z" fill="url(#paint3_linear_5481_122494)"/>
</g>
</g>

</svg>
