<svg width="96" height="96" viewBox="0 0 96 96" xmlns="http://www.w3.org/2000/svg">
  <defs>
<radialGradient id="paint0_radial_5481_122588" cx="0" cy="0" r="1" gradientUnits="userSpaceOnUse" gradientTransform="translate(85.5714 63.1124) rotate(90) scale(138.607)">
<stop offset="0.0885417" stop-color="#EB1000"/>
<stop offset="1" stop-color="#EB1000" stop-opacity="0"/>
</radialGradient>
<linearGradient id="paint1_linear_5481_122588" x1="69.4617" y1="-3.08825" x2="13.8656" y2="68.9935" gradientUnits="userSpaceOnUse">
<stop stop-color="#FF4885"/>
<stop offset="1" stop-color="#FF4885" stop-opacity="0"/>
</linearGradient>
<linearGradient id="paint2_linear_5481_122588" x1="35.5898" y1="-36.2716" x2="46.3146" y2="32.3671" gradientUnits="userSpaceOnUse">
<stop offset="0.15625" stop-color="#7A6AFD"/>
<stop offset="1" stop-color="#7A6AFD" stop-opacity="0"/>
</linearGradient>
<linearGradient id="paint3_linear_5481_122588" x1="-88.1609" y1="101.725" x2="92.2907" y2="66.0615" gradientUnits="userSpaceOnUse">
<stop stop-color="#30A7FE" stop-opacity="0"/>
<stop offset="0.432292" stop-color="#30A7FE" stop-opacity="0.994652"/>
<stop offset="0.609375" stop-color="#30A7FE"/>
<stop offset="1" stop-color="#30A7FE" stop-opacity="0"/>
</linearGradient>
<clipPath id="clip0_5481_122588">
<rect width="96" height="96" rx="10" fill="white"/>
</clipPath>
</defs>
<clipPath id="mask0_5481_122588">
<path fill-rule="evenodd" d="M50.0279 15.0759C50.0079 15.0746 49.9879 15.0734 49.9679 15.0723V29.6766H59.1785C57.1071 24.7089 54.1408 19.91 50.263 15.4123C50.1716 15.3063 50.0933 15.1935 50.0279 15.0759ZM63.4871 29.6766C61.6838 24.9366 59.1385 20.3279 55.8362 15.951C63.9636 17.9315 70.9117 22.9229 75.4318 29.6766H63.4871ZM60.6427 33.6766H49.9679V46.3524H62.7845C62.6688 42.086 61.958 37.8361 60.6427 33.6766ZM66.7864 46.3524C66.6813 42.0933 66.0307 37.8461 64.8247 33.6766H77.7214C79.5877 37.5422 80.7221 41.8275 80.9447 46.3524H66.7864ZM62.7192 50.3524H49.9679V63.0301H60.1992C61.6218 58.86 62.4648 54.6096 62.7192 50.3524ZM64.4045 63.0301C65.713 58.8565 66.4897 54.6087 66.725 50.3524H80.9025C80.5825 54.8937 79.3432 59.1813 77.3696 63.0301H64.4045ZM58.6456 67.0301H49.9679V80.9276C49.9883 80.9264 50.0087 80.9252 50.0291 80.9239C50.0867 80.8205 50.1544 80.7207 50.2322 80.6259C53.7824 76.3038 56.5916 71.7351 58.6456 67.0301ZM55.7112 80.079C58.7533 75.8991 61.1798 71.5212 62.978 67.0301H74.9453C70.3968 73.4588 63.6057 78.1882 55.7112 80.079ZM20.5675 29.6766C25.0733 22.9443 31.9917 17.9631 40.0858 15.97C36.7905 20.3412 34.25 24.9435 32.4493 29.6766H20.5675ZM18.5621 33.6766H31.1117C29.9057 37.8461 29.255 42.0933 29.15 46.3524H15.0547C15.2776 41.8201 16.4153 37.5284 18.287 33.6579C18.377 33.6702 18.4688 33.6766 18.5621 33.6766ZM35.2936 33.6766C33.9784 37.8361 33.2675 42.086 33.1518 46.3524H45.9679V33.6766H35.2936ZM15.0969 50.3524H29.2114C29.4466 54.6087 30.2234 58.8565 31.5319 63.0301H18.6298C16.6562 59.1813 15.4169 54.8937 15.0969 50.3524ZM33.2172 50.3524C33.4715 54.6096 34.3146 58.86 35.7371 63.0301H45.9679V50.3524H33.2172ZM21.054 67.0301H32.9584C34.7539 71.5146 37.176 75.8863 40.2118 80.0606C32.3499 78.1576 25.5879 73.438 21.054 67.0301ZM45.7041 80.6259C45.781 80.7195 45.8479 80.8179 45.9051 80.9199L45.9679 80.9238V67.0301H37.2908C39.3448 71.7351 42.1539 76.3038 45.7041 80.6259ZM45.6734 15.4123C41.7955 19.91 38.8292 24.7089 36.7578 29.6766H45.9679V15.0761L45.9062 15.0799C45.8413 15.1961 45.7637 15.3075 45.6734 15.4123Z" fill="white"/>
</clipPath>
<g clip-path="url(#mask0_5481_122588)">
<g clip-path="url(#clip0_5481_122588)">
<rect width="96" height="96" rx="10" fill="#D9F4FD"/>
<circle cx="85.5714" cy="63.1124" r="138.607" fill="url(#paint0_radial_5481_122588)"/>
<path d="M-8.63919 30.067C-10.18 -3.11477 15.4702 -31.263 48.652 -32.8037C81.8337 -34.3445 109.982 -8.69438 111.523 24.4874C113.063 57.6692 87.4133 85.8174 54.2316 87.3582C21.0498 88.8989 -7.09842 63.2488 -8.63919 30.067Z" fill="url(#paint1_linear_5481_122588)"/>
<path d="M24.2526 -66.43C16.7672 -71.0619 7.28331 -71.0903 -0.22988 -66.5032L-75.3753 -20.6218C-82.7348 -16.1282 -82.7471 -5.52169 -75.3976 -1.01111L-0.748691 44.8052C6.75324 49.4089 16.2372 49.4034 23.7327 44.7888L98.2278 -1.0704C105.538 -5.57135 105.552 -16.1186 98.2501 -20.6366L24.2526 -66.43Z" fill="url(#paint2_linear_5481_122588)"/>
<path d="M-47.8586 45.9177C-32.3701 45.9177 -18.3401 52.1863 -8.18231 62.2992C12.1334 82.5597 28.9763 82.577 49.2919 62.3512C59.4498 52.1863 73.4971 45.9004 89.003 45.9004C119.997 45.9177 145.105 70.9575 145.105 101.868C145.105 132.778 119.997 157.8 89.003 157.8C73.4624 157.8 59.415 151.497 49.2572 141.332C28.9589 121.141 12.1334 121.158 -8.18231 141.419C-18.3401 151.549 -32.3701 157.8 -47.8586 157.8C-78.8357 157.8 -103.944 132.761 -103.944 101.868C-103.944 70.9749 -78.8357 45.9177 -47.8586 45.9177Z" fill="url(#paint3_linear_5481_122588)"/>
</g>
</g>

</svg>
