<svg width="160" height="160" viewBox="0 0 160 160" xmlns="http://www.w3.org/2000/svg">
  <defs>
<radialGradient id="paint0_radial_5481_122220" cx="0" cy="0" r="1" gradientUnits="userSpaceOnUse" gradientTransform="translate(142.62 105.187) rotate(90) scale(231.011)">
<stop offset="0.0885417" stop-color="#EB1000"/>
<stop offset="1" stop-color="#EB1000" stop-opacity="0"/>
</radialGradient>
<linearGradient id="paint1_linear_5481_122220" x1="115.768" y1="-5.14512" x2="23.108" y2="114.991" gradientUnits="userSpaceOnUse">
<stop stop-color="#FF4885"/>
<stop offset="1" stop-color="#FF4885" stop-opacity="0"/>
</linearGradient>
<linearGradient id="paint2_linear_5481_122220" x1="59.3137" y1="-60.4521" x2="77.1884" y2="53.9458" gradientUnits="userSpaceOnUse">
<stop offset="0.15625" stop-color="#7A6AFD"/>
<stop offset="1" stop-color="#7A6AFD" stop-opacity="0"/>
</linearGradient>
<linearGradient id="paint3_linear_5481_122220" x1="-146.934" y1="169.541" x2="153.819" y2="110.102" gradientUnits="userSpaceOnUse">
<stop stop-color="#30A7FE" stop-opacity="0"/>
<stop offset="0.432292" stop-color="#30A7FE" stop-opacity="0.994652"/>
<stop offset="0.609375" stop-color="#30A7FE"/>
<stop offset="1" stop-color="#30A7FE" stop-opacity="0"/>
</linearGradient>
<clipPath id="clip0_5481_122220">
<rect width="160" height="160" rx="10" fill="white"/>
</clipPath>
</defs>
<clipPath id="mask0_5481_122220">
<path fill-rule="evenodd" d="M99.9289 23.6562C102.019 24.3717 103.133 26.646 102.418 28.7361L87.936 71.0383L131.012 56.3688C133.104 55.6567 135.376 56.7746 136.088 58.8658C136.8 60.957 135.682 63.2296 133.591 63.9417L85.6772 80.2586C85.5824 80.291 85.4871 80.3195 85.3916 80.3444C85.1433 81.3263 84.9129 82.3242 84.6776 83.3431L84.6774 83.3439L84.6773 83.3442L84.6773 83.3443L84.6773 83.3444L84.6773 83.3445C83.8182 87.0645 82.8947 91.0638 80.8025 95.5798C80.3914 96.467 79.9406 97.3656 79.464 98.2608C79.6863 98.2531 79.9095 98.2493 80.1337 98.2493C90.7133 98.2493 99.2898 106.826 99.2898 117.405C99.2898 127.985 90.7133 136.562 80.1337 136.562C69.554 136.562 60.9775 127.985 60.9775 117.405C60.9775 113.25 62.3004 109.404 64.5479 106.266C64.6816 106.044 64.8389 105.832 65.0199 105.634C65.2748 105.307 65.54 104.989 65.815 104.68C67.6153 102.383 71.2929 97.0751 73.5436 92.2169C75.193 88.6568 75.8792 85.8288 76.6442 82.5264C75.1386 83.0865 73.5001 83.7351 71.5317 84.5458C68.7201 85.7039 65.4329 87.5429 62.5774 89.3223C59.6874 91.1231 57.5224 92.6847 56.9156 93.2001C56.7749 93.3196 56.6284 93.4277 56.4771 93.5244C53.0044 97.0384 48.1822 99.2158 42.8514 99.2158C32.2718 99.2158 23.6953 90.6393 23.6953 80.0597C23.6953 69.4801 32.2718 60.9036 42.8514 60.9036C53.4311 60.9036 62.0075 69.4801 62.0075 80.0597C62.0075 80.1599 62.0068 80.26 62.0052 80.3599C64.1221 79.1672 66.3637 78.0224 68.485 77.1487C72.6934 75.4153 75.5346 74.3634 78.6829 73.3672L94.849 26.145C95.5645 24.0549 97.8389 22.9406 99.9289 23.6562ZM71.1966 110.727C69.803 112.589 68.9775 114.901 68.9775 117.405C68.9775 123.567 73.9723 128.562 80.1337 128.562C86.295 128.562 91.2898 123.567 91.2898 117.405C91.2898 111.244 86.295 106.249 80.1337 106.249C76.8708 106.249 73.9351 107.65 71.8951 109.883C71.6365 110.207 71.402 110.49 71.1966 110.727ZM42.8514 68.9036C36.6901 68.9036 31.6953 73.8983 31.6953 80.0597C31.6953 86.221 36.6901 91.2158 42.8514 91.2158C49.0128 91.2158 54.0075 86.221 54.0075 80.0597C54.0075 73.8983 49.0128 68.9036 42.8514 68.9036Z" fill="white"/>
</clipPath>
<g clip-path="url(#mask0_5481_122220)">
<g clip-path="url(#clip0_5481_122220)">
<rect width="160" height="160" rx="10" fill="#D9F4FD"/>
<circle cx="142.62" cy="105.187" r="231.011" fill="url(#paint0_radial_5481_122220)"/>
<path d="M-14.3999 50.1137C-16.9679 -5.18932 25.7823 -52.103 81.0853 -54.6709C136.388 -57.2388 183.302 -14.4887 185.87 40.8143C188.438 96.1173 145.688 143.031 90.3846 145.599C35.0817 148.167 -11.832 105.417 -14.3999 50.1137Z" fill="url(#paint1_linear_5481_122220)"/>
<path d="M40.4184 -110.716C27.9428 -118.436 12.1362 -118.483 -0.385738 -110.838L-125.628 -34.3691C-137.894 -26.8797 -137.914 -9.20217 -125.665 -1.68455L-1.25042 74.676C11.2528 82.3487 27.0594 82.3396 39.5518 74.6486L163.71 -1.78335C175.895 -9.28493 175.917 -26.8637 163.748 -34.3936L40.4184 -110.716Z" fill="url(#paint2_linear_5481_122220)"/>
<path d="M-79.7631 76.5289C-53.9489 76.5289 -30.5656 86.9766 -13.6359 103.831C20.2235 137.599 48.2951 137.628 82.1545 103.918C99.0842 86.9766 122.496 76.5 148.34 76.5C199.997 76.5289 241.844 118.262 241.844 169.779C241.844 221.296 199.997 263 148.34 263C122.439 263 99.0263 252.495 82.0966 235.553C48.2661 201.901 20.2235 201.93 -13.6359 235.697C-30.5656 252.581 -53.9489 263 -79.7631 263C-131.392 263 -173.238 221.267 -173.238 169.779C-173.238 118.291 -131.392 76.5289 -79.7631 76.5289Z" fill="url(#paint3_linear_5481_122220)"/>
</g>
</g>

</svg>
