<svg width="160" height="160" viewBox="0 0 160 160" xmlns="http://www.w3.org/2000/svg">
  <defs>
<radialGradient id="paint0_radial_6243_79471" cx="0" cy="0" r="1" gradientUnits="userSpaceOnUse" gradientTransform="translate(142.62 105.187) rotate(90) scale(231.011)">
<stop offset="0.0885417" stop-color="#EB1000"/>
<stop offset="1" stop-color="#EB1000" stop-opacity="0"/>
</radialGradient>
<linearGradient id="paint1_linear_6243_79471" x1="115.768" y1="-5.1461" x2="23.108" y2="114.99" gradientUnits="userSpaceOnUse">
<stop stop-color="#FF4885"/>
<stop offset="1" stop-color="#FF4885" stop-opacity="0"/>
</linearGradient>
<linearGradient id="paint2_linear_6243_79471" x1="59.3137" y1="-60.4511" x2="77.1884" y2="53.9467" gradientUnits="userSpaceOnUse">
<stop offset="0.15625" stop-color="#7A6AFD"/>
<stop offset="1" stop-color="#7A6AFD" stop-opacity="0"/>
</linearGradient>
<linearGradient id="paint3_linear_6243_79471" x1="-146.934" y1="169.541" x2="153.819" y2="110.102" gradientUnits="userSpaceOnUse">
<stop stop-color="#30A7FE" stop-opacity="0"/>
<stop offset="0.432292" stop-color="#30A7FE" stop-opacity="0.994652"/>
<stop offset="0.609375" stop-color="#30A7FE"/>
<stop offset="1" stop-color="#30A7FE" stop-opacity="0"/>
</linearGradient>
<clipPath id="clip0_6243_79471">
<rect width="160" height="160" rx="10" fill="white"/>
</clipPath>
</defs>
<clipPath id="mask0_6243_79471">
<path fill-rule="evenodd" d="M28.3346 80.7415C30.5438 80.7415 32.3346 82.5324 32.3346 84.7415L32.3346 114.153C32.3346 118.743 36.0168 122.408 40.4915 122.408L119.511 122.408C123.986 122.408 127.668 118.743 127.668 114.153L127.668 84.7415C127.668 82.5324 129.459 80.7415 131.668 80.7415C133.877 80.7415 135.668 82.5324 135.668 84.7415L135.668 114.153C135.668 123.1 128.465 130.408 119.511 130.408L40.4915 130.408C31.5381 130.408 24.3346 123.1 24.3346 114.153L24.3346 84.7415C24.3346 82.5324 26.1255 80.7415 28.3346 80.7415ZM80.0016 29.5911C82.2108 29.5911 84.0016 31.382 84.0016 33.5911L84.0016 97.9128L100.673 81.2412C102.235 79.6791 104.768 79.6791 106.33 81.2412C107.892 82.8033 107.892 85.336 106.33 86.8981L82.83 110.398C81.2679 111.96 78.7353 111.96 77.1732 110.398L53.6732 86.8981C52.1111 85.336 52.1111 82.8033 53.6732 81.2412C55.2353 79.6791 57.7679 79.6791 59.3301 81.2412L76.0016 97.9128L76.0016 33.5911C76.0016 31.382 77.7925 29.5911 80.0016 29.5911Z" fill="white"/>
</clipPath>
<g clip-path="url(#mask0_6243_79471)">
<g clip-path="url(#clip0_6243_79471)">
<rect width="160" height="160" rx="10" fill="#D9F4FD"/>
<circle cx="142.62" cy="105.187" r="231.011" fill="url(#paint0_radial_6243_79471)"/>
<path d="M-14.3999 50.1127C-16.9679 -5.1903 25.7823 -52.1039 81.0853 -54.6719C136.388 -57.2398 183.302 -14.4896 185.87 40.8134C188.438 96.1163 145.688 143.03 90.3846 145.598C35.0817 148.166 -11.832 105.416 -14.3999 50.1127Z" fill="url(#paint1_linear_6243_79471)"/>
<path d="M40.4184 -110.715C27.9428 -118.435 12.1362 -118.482 -0.385742 -110.837L-125.628 -34.3681C-137.894 -26.8788 -137.914 -9.20119 -125.665 -1.68357L-1.25043 74.677C11.2528 82.3497 27.0594 82.3406 39.5518 74.6496L163.71 -1.78237C175.895 -9.28396 175.917 -26.8627 163.747 -34.3926L40.4184 -110.715Z" fill="url(#paint2_linear_6243_79471)"/>
<path d="M-79.7631 76.5289C-53.9489 76.5289 -30.5656 86.9766 -13.6359 103.831C20.2235 137.599 48.295 137.628 82.1545 103.918C99.0842 86.9766 122.496 76.5 148.34 76.5C199.997 76.5289 241.844 118.262 241.844 169.779C241.844 221.296 199.997 263 148.34 263C122.439 263 99.0263 252.495 82.0966 235.553C48.2661 201.901 20.2235 201.93 -13.6359 235.697C-30.5656 252.581 -53.9489 263 -79.7631 263C-131.392 263 -173.238 221.267 -173.238 169.779C-173.238 118.291 -131.392 76.5289 -79.7631 76.5289Z" fill="url(#paint3_linear_6243_79471)"/>
</g>
</g>

</svg>
