<svg width="96" height="96" viewBox="0 0 96 96" xmlns="http://www.w3.org/2000/svg">
  <defs>
<radialGradient id="paint0_radial_5481_122557" cx="0" cy="0" r="1" gradientUnits="userSpaceOnUse" gradientTransform="translate(85.5714 63.1124) rotate(90) scale(138.607)">
<stop offset="0.0885417" stop-color="#EB1000"/>
<stop offset="1" stop-color="#EB1000" stop-opacity="0"/>
</radialGradient>
<linearGradient id="paint1_linear_5481_122557" x1="69.4617" y1="-3.08825" x2="13.8656" y2="68.9935" gradientUnits="userSpaceOnUse">
<stop stop-color="#FF4885"/>
<stop offset="1" stop-color="#FF4885" stop-opacity="0"/>
</linearGradient>
<linearGradient id="paint2_linear_5481_122557" x1="35.5898" y1="-36.2716" x2="46.3146" y2="32.3671" gradientUnits="userSpaceOnUse">
<stop offset="0.15625" stop-color="#7A6AFD"/>
<stop offset="1" stop-color="#7A6AFD" stop-opacity="0"/>
</linearGradient>
<linearGradient id="paint3_linear_5481_122557" x1="-88.1609" y1="101.725" x2="92.2907" y2="66.0615" gradientUnits="userSpaceOnUse">
<stop stop-color="#30A7FE" stop-opacity="0"/>
<stop offset="0.432292" stop-color="#30A7FE" stop-opacity="0.994652"/>
<stop offset="0.609375" stop-color="#30A7FE"/>
<stop offset="1" stop-color="#30A7FE" stop-opacity="0"/>
</linearGradient>
<clipPath id="clip0_5481_122557">
<rect width="96" height="96" rx="10" fill="white"/>
</clipPath>
</defs>
<clipPath id="mask0_5481_122557">
<path fill-rule="evenodd" d="M18.2383 16.2617C17.1337 16.2617 16.2383 17.1571 16.2383 18.2617V31.5174C16.2383 32.622 17.1337 33.5174 18.2383 33.5174C19.3429 33.5174 20.2383 32.622 20.2383 31.5174V22.9944L45.1711 47.9272L20.2385 72.8597L20.2385 64.4852C20.2385 63.3806 19.3431 62.4852 18.2385 62.4852C17.1339 62.4852 16.2385 63.3806 16.2385 64.4852L16.2385 77.7408C16.2385 78.8454 17.1339 79.7408 18.2385 79.7408H31.5369C32.6415 79.7408 33.5369 78.8454 33.5369 77.7408C33.5369 76.6363 32.6415 75.7408 31.5369 75.7408H23.0143L47.9995 50.7556L72.9847 75.7408H64.4621C63.3575 75.7408 62.4621 76.6363 62.4621 77.7408C62.4621 78.8454 63.3575 79.7408 64.4621 79.7408H77.7605C78.8651 79.7408 79.7605 78.8454 79.7605 77.7408V64.4852C79.7605 63.3806 78.8651 62.4852 77.7605 62.4852C76.6559 62.4852 75.7605 63.3806 75.7605 64.4852V72.8597L50.8279 47.9272L75.7607 22.9944V31.5174C75.7607 32.622 76.6562 33.5174 77.7607 33.5174C78.8653 33.5174 79.7607 32.622 79.7607 31.5174V18.2617C79.7607 17.1571 78.8653 16.2617 77.7607 16.2617H64.4623C63.3577 16.2617 62.4623 17.1571 62.4623 18.2617C62.4623 19.3663 63.3577 20.2617 64.4623 20.2617H72.8365L47.9995 45.0987L23.1625 20.2617H31.5367C32.6413 20.2617 33.5367 19.3663 33.5367 18.2617C33.5367 17.1571 32.6413 16.2617 31.5367 16.2617H18.2383Z" fill="white"/>
</clipPath>
<g clip-path="url(#mask0_5481_122557)">
<g clip-path="url(#clip0_5481_122557)">
<rect width="96" height="96" rx="10" fill="#D9F4FD"/>
<circle cx="85.5714" cy="63.1124" r="138.607" fill="url(#paint0_radial_5481_122557)"/>
<path d="M-8.63919 30.067C-10.18 -3.11477 15.4702 -31.263 48.652 -32.8037C81.8337 -34.3445 109.982 -8.69438 111.523 24.4874C113.063 57.6692 87.4133 85.8174 54.2316 87.3582C21.0498 88.8989 -7.09842 63.2488 -8.63919 30.067Z" fill="url(#paint1_linear_5481_122557)"/>
<path d="M24.2526 -66.43C16.7672 -71.0619 7.28331 -71.0903 -0.22988 -66.5032L-75.3753 -20.6218C-82.7348 -16.1282 -82.7471 -5.52169 -75.3976 -1.01111L-0.748691 44.8052C6.75324 49.4089 16.2372 49.4034 23.7327 44.7888L98.2278 -1.0704C105.538 -5.57135 105.552 -16.1186 98.2501 -20.6366L24.2526 -66.43Z" fill="url(#paint2_linear_5481_122557)"/>
<path d="M-47.8586 45.9177C-32.3701 45.9177 -18.3401 52.1863 -8.18231 62.2992C12.1334 82.5597 28.9763 82.577 49.2919 62.3512C59.4498 52.1863 73.4971 45.9004 89.003 45.9004C119.997 45.9177 145.105 70.9575 145.105 101.868C145.105 132.778 119.997 157.8 89.003 157.8C73.4624 157.8 59.415 151.497 49.2572 141.332C28.9589 121.141 12.1334 121.158 -8.18231 141.419C-18.3401 151.549 -32.3701 157.8 -47.8586 157.8C-78.8357 157.8 -103.944 132.761 -103.944 101.868C-103.944 70.9749 -78.8357 45.9177 -47.8586 45.9177Z" fill="url(#paint3_linear_5481_122557)"/>
</g>
</g>

</svg>
