<svg width="48" height="48" viewBox="0 0 48 48" xmlns="http://www.w3.org/2000/svg">
  <defs>
<radialGradient id="paint0_radial_5481_122425" cx="0" cy="0" r="1" gradientUnits="userSpaceOnUse" gradientTransform="translate(42.7877 31.5552) rotate(90) scale(69.3033)">
<stop offset="0.0885417" stop-color="#EB1000"/>
<stop offset="1" stop-color="#EB1000" stop-opacity="0"/>
</radialGradient>
<linearGradient id="paint1_linear_5481_122425" x1="34.7309" y1="-1.54315" x2="6.93278" y2="34.4977" gradientUnits="userSpaceOnUse">
<stop stop-color="#FF4885"/>
<stop offset="1" stop-color="#FF4885" stop-opacity="0"/>
</linearGradient>
<linearGradient id="paint2_linear_5481_122425" x1="17.7929" y1="-18.1348" x2="23.1553" y2="16.1845" gradientUnits="userSpaceOnUse">
<stop offset="0.15625" stop-color="#7A6AFD"/>
<stop offset="1" stop-color="#7A6AFD" stop-opacity="0"/>
</linearGradient>
<linearGradient id="paint3_linear_5481_122425" x1="-44.0785" y1="50.8616" x2="46.1473" y2="33.0298" gradientUnits="userSpaceOnUse">
<stop stop-color="#30A7FE" stop-opacity="0"/>
<stop offset="0.432292" stop-color="#30A7FE" stop-opacity="0.994652"/>
<stop offset="0.609375" stop-color="#30A7FE"/>
<stop offset="1" stop-color="#30A7FE" stop-opacity="0"/>
</linearGradient>
<clipPath id="clip0_5481_122425">
<rect width="48" height="48" rx="10" fill="white"/>
</clipPath>
</defs>
<clipPath id="mask0_5481_122425">
<path d="M22.7492 11.8818V15.3878C22.7492 16.0781 23.3088 16.6378 23.9992 16.6378C24.6895 16.6378 25.2492 16.0781 25.2492 15.3878V11.8818C25.2492 11.7945 25.2402 11.7092 25.2232 11.627C27.3837 11.7843 29.4281 12.3597 31.276 13.2727C31.2285 13.3289 31.1852 13.3901 31.1471 13.4561L29.3941 16.4924C29.049 17.0903 29.2538 17.8547 29.8517 18.1999C30.4495 18.5451 31.214 18.3403 31.5592 17.7424L33.3122 14.7061C33.3458 14.648 33.3741 14.5883 33.3974 14.5275C37.4009 17.3212 40.1009 21.8538 40.4024 27.0303H36.9034C36.213 27.0303 35.6534 27.59 35.6534 28.2803C35.6534 28.9707 36.213 29.5303 36.9034 29.5303H40.3601C40.1593 31.7025 39.5354 33.752 38.5714 35.5956C38.2491 36.2121 37.5951 36.5694 36.8995 36.5694H11.1279C10.4322 36.5694 9.77825 36.2121 9.45593 35.5956C8.49201 33.752 7.86804 31.7025 7.66724 29.5303H11.1242C11.8145 29.5303 12.3742 28.9707 12.3742 28.2803C12.3742 27.59 11.8145 27.0303 11.1242 27.0303H7.625C7.74746 24.9277 8.26566 22.9313 9.1062 21.1145C9.12882 21.1295 9.15207 21.144 9.17594 21.1578L12.2122 22.9108C12.8101 23.256 13.5746 23.0511 13.9197 22.4533C14.2649 21.8554 14.0601 21.0909 13.4622 20.7457L10.4259 18.9927C10.3917 18.973 10.357 18.955 10.3218 18.9388C11.471 17.2058 12.9404 15.7036 14.6456 14.5166C14.6697 14.5811 14.6994 14.6445 14.735 14.7061L16.488 17.7424C16.8332 18.3403 17.5977 18.5451 18.1955 18.1999C18.7934 17.8547 18.9982 17.0903 18.6531 16.4924L16.9001 13.4561C16.8604 13.3874 16.8152 13.3239 16.7653 13.2658C18.6011 12.3609 20.6306 11.7891 22.7747 11.6291C22.758 11.7107 22.7492 11.7952 22.7492 11.8818ZM22.7773 30.9105C21.8753 31.7225 21.8385 33.1248 22.6967 33.983C23.5549 34.8412 24.9572 34.8044 25.7692 33.9024L36.7835 21.6669C37.2297 21.1712 37.2098 20.413 36.7382 19.9415C36.2667 19.4699 35.5085 19.45 35.0128 19.8962L22.7773 30.9105Z" fill="#D9D9D9"/>
</clipPath>
<g clip-path="url(#mask0_5481_122425)">
<g clip-path="url(#clip0_5481_122425)">
<rect width="48" height="48" rx="10" fill="#D9F4FD"/>
<circle cx="42.7877" cy="31.5552" r="69.3033" fill="url(#paint0_radial_5481_122425)"/>
<path d="M-4.31959 15.0345C-5.08998 -1.55641 7.73508 -15.6305 24.326 -16.4009C40.9169 -17.1713 54.991 -4.34621 55.7613 12.2447C56.5317 28.8356 43.7067 42.9097 27.1158 43.6801C10.5249 44.4504 -3.54921 31.6254 -4.31959 15.0345Z" fill="url(#paint1_linear_5481_122425)"/>
<path d="M12.1243 -33.214C8.38167 -35.53 3.6397 -35.5442 -0.116893 -33.2506L-37.6896 -10.3099C-41.3694 -8.06314 -41.3755 -2.75987 -37.7007 -0.504581L-0.376298 22.4036C3.37467 24.7054 8.11665 24.7027 11.8644 22.3954L49.1119 -0.534222C52.7672 -2.7847 52.7739 -8.05833 49.1231 -10.3173L12.1243 -33.214Z" fill="url(#paint2_linear_5481_122425)"/>
<path d="M-23.9274 22.9579C-16.1831 22.9579 -9.16812 26.0922 -4.0892 31.1486C6.06863 41.2789 14.4901 41.2875 24.6479 31.1746C29.7268 26.0922 36.7505 22.9492 44.5034 22.9492C60.0006 22.9579 72.5547 35.4778 72.5547 50.9329C72.5547 66.388 60.0006 78.8992 44.5034 78.8992C36.7331 78.8992 29.7095 75.7476 24.6306 70.6652C14.4814 60.5696 6.06863 60.5782 -4.0892 70.7085C-9.16812 75.7736 -16.1831 78.8992 -23.9274 78.8992C-39.4159 78.8992 -51.9699 66.3793 -51.9699 50.9329C-51.9699 35.4865 -39.4159 22.9579 -23.9274 22.9579Z" fill="url(#paint3_linear_5481_122425)"/>
</g>
</g>

</svg>
