<svg style="max-height: 119px; background: #f4f6fc; padding: 32px; margin-bottom: 16px; width: calc(100% - 64px); border-radius: 4px;" viewBox="0 0 241 119">
  <title>Progress bar anatomy diagram</title>
  <desc>Shows a progress bar with labels pointing to its parts, including the label, fill, track, and value label elements.</desc>
  <defs>
    <clipPath id="a">
      <rect width="63" height="9" fill="red" />
    </clipPath>
  </defs>
  <g transform="translate(-52 -40)">
    <g transform="translate(-133 401)"><text transform="translate(411 -348)" fill="#4a6fc3" font-size="13" font-family="Adobe-Clean" style="font-style: italic">
        <tspan x="-14.157" y="0">Value</tspan>
      </text>
      <path d="M-5211-360.5a2.5,2.5,0,0,1,2-2.45V-379h1v16.05a2.5,2.5,0,0,1,2,2.45,2.5,2.5,0,0,1-2.5,2.5A2.5,2.5,0,0,1-5211-360.5Z" transform="translate(5619.5 36)" fill="#a2b6e1" />
    </g>
    <g transform="translate(-336 401)">
      <text transform="translate(402 -348)" fill="#4a6fc3" font-size="13" font-family="Adobe-Clean" style="font-style: italic">
        <tspan x="-13.826" y="0">Label</tspan>
      </text>
      <path d="M-5008-360.5a2.5,2.5,0,0,1,2-2.45V-379h1v16.05a2.5,2.5,0,0,1,2,2.45,2.5,2.5,0,0,1-2.5,2.5A2.5,2.5,0,0,1-5008-360.5Z" transform="translate(5407.5 36)" fill="#a2b6e1" />
    </g>
    <g transform="translate(12 24)">
      <rect width="240" height="51" transform="translate(40 45)" fill="none" /><text transform="translate(40 69)" fill="#718dcf" font-size="18" font-family="Adobe-Clean">
        <tspan x="0" y="0">Loading data…</tspan>
      </text><text transform="translate(280 69)" fill="#4a6fc3" font-size="18" font-family="Adobe-Clean">
        <tspan x="-32.49" y="0">26%</tspan>
      </text>
      <g transform="translate(8 -70)">
        <rect width="240" height="9" rx="4.5" transform="translate(32 157)" fill="#dae2f4" />
        <g transform="translate(32 157)" clip-path="url(#a)">
          <rect width="240" height="9" rx="4.5" fill="#718dcf" />
        </g>
      </g>
    </g>
    <g transform="translate(-143 472.5)">
      <text transform="translate(364 -316.5)" fill="#4a6fc3" font-size="13" font-family="Adobe-Clean" style="font-style: italic">
        <tspan x="-13.435" y="0">Track</tspan>
      </text>
      <path d="M-5199-425.5v-20.05a2.5,2.5,0,0,1-2-2.451,2.5,2.5,0,0,1,2.5-2.5,2.5,2.5,0,0,1,2.5,2.5,2.5,2.5,0,0,1-2,2.451v20.05Z" transform="translate(5562.5 96)" fill="#a2b6e1" />
    </g>
    <g transform="translate(-274 472.5)">
      <text transform="translate(364 -316.5)" fill="#4a6fc3" font-size="13" font-family="Adobe-Clean" style="font-style: italic">
        <tspan x="-7.501" y="0">Fill</tspan>
      </text>
      <path d="M-5068-425.5v-20.05a2.5,2.5,0,0,1-2-2.45,2.5,2.5,0,0,1,2.5-2.5,2.5,2.5,0,0,1,2.5,2.5,2.5,2.5,0,0,1-2,2.45v20.05Z" transform="translate(5431.5 96)" fill="#a2b6e1" />
    </g>
  </g>
</svg>
