<?xml version="1.0" encoding="UTF-8"?>
<svg width="96" height="97" viewBox="0 0 96 97" fill="none" xmlns="http://www.w3.org/2000/svg">
<path fill-rule="evenodd" clip-rule="evenodd" d="M19.6094 20.3093C19.6094 14.7865 24.0865 10.3093 29.6094 10.3093H47.424C49.8637 10.3093 52.2036 11.2785 53.9287 13.0037L73.7087 32.7837C75.4339 34.5089 76.4031 36.8487 76.4031 39.2885V66.7019C76.4031 72.2248 71.926 76.7019 66.4031 76.7019H29.6094C24.0865 76.7019 19.6094 72.2248 19.6094 66.7019V20.3093ZM29.6094 14.3093C26.2957 14.3093 23.6094 16.9956 23.6094 20.3093V66.7019C23.6094 70.0156 26.2957 72.7019 29.6094 72.7019H66.4031C69.7168 72.7019 72.4031 70.0156 72.4031 66.7019V39.2885C72.4031 37.9096 71.8553 36.5871 70.8803 35.6121L51.1003 15.8321C50.1253 14.8571 48.8029 14.3093 47.424 14.3093H29.6094ZM7.9707 45.7886C6.86613 45.7886 5.9707 46.684 5.9707 47.7886V51.9384C5.9707 53.043 5.07527 53.9384 3.9707 53.9384C2.86613 53.9384 1.9707 53.043 1.9707 51.9384V47.7886C1.9707 44.4749 4.65699 41.7886 7.9707 41.7886H12.2982C13.4027 41.7886 14.2982 42.684 14.2982 43.7886C14.2982 44.8931 13.4027 45.7886 12.2982 45.7886H7.9707ZM81.7013 43.7886C81.7013 42.684 82.5968 41.7886 83.7013 41.7886H88.0288C91.3425 41.7886 94.0288 44.4749 94.0288 47.7886V51.9384C94.0288 53.043 93.1334 53.9384 92.0288 53.9384C90.9242 53.9384 90.0288 53.043 90.0288 51.9384V47.7886C90.0288 46.684 89.1334 45.7886 88.0288 45.7886H83.7013C82.5968 45.7886 81.7013 44.8931 81.7013 43.7886ZM3.9707 60.8318C5.07527 60.8318 5.9707 61.7272 5.9707 62.8318V71.1315C5.9707 72.236 5.07527 73.1315 3.9707 73.1315C2.86613 73.1315 1.9707 72.236 1.9707 71.1315V62.8318C1.9707 61.7272 2.86613 60.8318 3.9707 60.8318ZM92.0288 60.8318C93.1334 60.8318 94.0288 61.7272 94.0288 62.8318V71.1315C94.0288 72.236 93.1334 73.1315 92.0288 73.1315C90.9242 73.1315 90.0288 72.236 90.0288 71.1315V62.8318C90.0288 61.7272 90.9242 60.8318 92.0288 60.8318ZM3.9707 80.0248C5.07527 80.0248 5.9707 80.9203 5.9707 82.0248V86.1747C5.9707 87.2793 6.86613 88.1747 7.97071 88.1747H12.2982C13.4027 88.1747 14.2982 89.0701 14.2982 90.1747C14.2982 91.2793 13.4027 92.1747 12.2982 92.1747H7.97071C4.657 92.1747 1.9707 89.4884 1.9707 86.1747V82.0248C1.9707 80.9203 2.86613 80.0248 3.9707 80.0248ZM92.0288 80.0248C93.1334 80.0248 94.0288 80.9203 94.0288 82.0248V86.1747C94.0288 89.4884 91.3425 92.1747 88.0288 92.1747H83.7013C82.5968 92.1747 81.7013 91.2793 81.7013 90.1747C81.7013 89.0701 82.5968 88.1747 83.7013 88.1747H88.0288C89.1334 88.1747 90.0288 87.2793 90.0288 86.1747V82.0248C90.0288 80.9203 90.9242 80.0248 92.0288 80.0248ZM21.6578 90.1747C21.6578 89.0701 22.5532 88.1747 23.6578 88.1747H32.3127C33.4173 88.1747 34.3127 89.0701 34.3127 90.1747C34.3127 91.2793 33.4173 92.1747 32.3127 92.1747H23.6578C22.5532 92.1747 21.6578 91.2793 21.6578 90.1747ZM41.6723 90.1747C41.6723 89.0701 42.5677 88.1747 43.6723 88.1747H52.3272C53.4318 88.1747 54.3272 89.0701 54.3272 90.1747C54.3272 91.2793 53.4318 92.1747 52.3272 92.1747H43.6723C42.5677 92.1747 41.6723 91.2793 41.6723 90.1747ZM61.6868 90.1747C61.6868 89.0701 62.5822 88.1747 63.6868 88.1747H72.3418C73.4463 88.1747 74.3418 89.0701 74.3418 90.1747C74.3418 91.2793 73.4463 92.1747 72.3418 92.1747H63.6868C62.5822 92.1747 61.6868 91.2793 61.6868 90.1747ZM47.9728 31.5774C49.0773 31.5801 49.9706 32.4776 49.9679 33.5822L49.9131 56.3414L58.7413 49.2162C59.6008 48.5225 60.86 48.6569 61.5537 49.5165C62.2475 50.376 62.1131 51.6352 61.2535 52.3289L49.3427 61.942C48.6139 62.5302 47.5746 62.5339 46.8416 61.951L34.7551 52.3379C33.8906 51.6503 33.7472 50.3921 34.4348 49.5276C35.1224 48.6632 36.3806 48.5197 37.245 49.2073L45.9136 56.102L45.9679 33.5726C45.9706 32.468 46.8682 31.5747 47.9728 31.5774Z" fill="currentColor"/>
</svg>
