<svg style="max-height: 293px; background: var(--anatomy-gray-100); padding: 32px; margin-bottom: 16px; width: calc(100% - 64px); border-radius: var(--anatomy-radius);" viewBox="0 0 435.862 293">
  <title>Table anatomy diagram</title>
  <desc>Shows a table component with labels pointing to its parts, including the row, column, column header, and cell elements.</desc>
  <g transform="translate(-272.277 -86)">
    <g transform="translate(27.996 459)">
      <rect width="20" height="20" transform="translate(392 -340)" fill="red" opacity="0" /><text transform="translate(402 -360)" fill="var(--anatomy-gray-700)" font-size="13" font-family="var(--anatomy-font)" font-style="italic">
        <tspan x="-19.858" y="0">Column</tspan>
        <tspan x="-17.576" y="15">header</tspan>
      </text>
      <path d="M-8701-353.5a2.5,2.5,0,0,1,2-2.45V-374h1v18.05a2.5,2.5,0,0,1,2,2.45,2.5,2.5,0,0,1-2.5,2.5A2.5,2.5,0,0,1-8701-353.5Z" transform="translate(9100.5 34)" fill="var(--anatomy-gray-500)" />
    </g><text transform="translate(606.996 150)" fill="var(--anatomy-gray-600)" font-size="11" font-family="AdobeClean-Medium, Adobe Clean" font-weight="500" letter-spacing="0.06em">
      <tspan x="-21.791" y="0">SIZE</tspan>
    </text>
    <g transform="translate(342 161)" fill="var(--anatomy-gray-50)">
      <path d="M 296 188.5 L 4 188.5 C 2.070076942443848 188.5 0.5 186.9299163818359 0.5 185 L 0.5 4 C 0.5 2.070076942443848 2.070076942443848 0.5 4 0.5 L 296 0.5 C 297.929931640625 0.5 299.5 2.070076942443848 299.5 4 L 299.5 185 C 299.5 186.9299163818359 297.929931640625 188.5 296 188.5 Z" stroke="none" />
      <path d="M 4 1 C 2.345794677734375 1 1 2.345809936523438 1 4 L 1 185 C 1 186.6541900634766 2.345794677734375 188 4 188 L 296 188 C 297.6542053222656 188 299 186.6541900634766 299 185 L 299 4 C 299 2.345809936523438 297.6542053222656 1 296 1 L 4 1 M 4 0 L 296 0 C 298.2091064453125 0 300 1.790847778320312 300 4 L 300 185 C 300 187.2091522216797 298.2091064453125 189 296 189 L 4 189 C 1.79083251953125 189 0 187.2091522216797 0 185 L 0 4 C 0 1.790847778320312 1.79083251953125 0 4 0 Z" stroke="none" fill="var(--anatomy-gray-300)" />
    </g><text transform="translate(623 189)" fill="var(--anatomy-gray-800)" font-size="14" font-family="var(--anatomy-font)">
      <tspan x="-37.1" y="0">214 KB</tspan>
    </text>
    <rect width="298" height="1" transform="translate(343 208)" fill="var(--anatomy-gray-300)" />
    <rect width="298" height="1" transform="translate(343 255)" fill="var(--anatomy-gray-300)" />
    <rect width="298" height="1" transform="translate(343 302)" fill="var(--anatomy-gray-300)" /><text transform="translate(623 236)" fill="var(--anatomy-gray-800)" font-size="14" font-family="var(--anatomy-font)">
      <tspan x="-37.324" y="0">120 KB</tspan>
    </text><text transform="translate(623 283)" fill="var(--anatomy-gray-800)" font-size="14" font-family="var(--anatomy-font)">
      <tspan x="-37.156" y="0">139 KB</tspan>
    </text><text transform="translate(623 330)" fill="var(--anatomy-gray-800)" font-size="14" font-family="var(--anatomy-font)">
      <tspan x="-32.34" y="0">24 KB</tspan>
    </text><text transform="translate(395 190)" fill="var(--anatomy-gray-800)" font-size="14" font-family="var(--anatomy-font)">
      <tspan x="0" y="0">Proposal</tspan>
    </text><text transform="translate(395 237)" fill="var(--anatomy-gray-800)" font-size="14" font-family="var(--anatomy-font)">
      <tspan x="0" y="0">Budget</tspan>
    </text><text transform="translate(395 331)" fill="var(--anatomy-gray-800)" font-size="14" font-family="var(--anatomy-font)">
      <tspan x="0" y="0">Welcome</tspan>
    </text><text transform="translate(395 284)" fill="var(--anatomy-gray-800)" font-size="14" font-family="var(--anatomy-font)">
      <tspan x="0" y="0">Onboarding</tspan>
    </text><text transform="translate(392.996 150)" fill="var(--anatomy-gray-600)" font-size="11" font-family="AdobeClean-Medium, Adobe Clean" font-weight="500" letter-spacing="0.06em">
      <tspan x="0" y="0">FILE NAME</tspan>
    </text>
    <rect width="20" height="21" transform="translate(554 341)" fill="red" opacity="0" />
    <rect width="20" height="21" transform="translate(620 341)" fill="red" opacity="0" /><text transform="translate(463 376)" fill="var(--anatomy-gray-700)" font-size="13" font-family="var(--anatomy-font)" font-style="italic">
      <tspan x="-9.276" y="0">Cell</tspan>
    </text>
    <path d="M-8599-588.5V-608.55a2.5,2.5,0,0,1-2-2.45,2.5,2.5,0,0,1,2.5-2.5,2.5,2.5,0,0,1,2.5,2.5,2.5,2.5,0,0,1-2,2.449V-588.5Z" transform="translate(9062.5 951.5)" fill="var(--anatomy-gray-500)" />
    <path d="M9,7a1,1,0,0,0-1.71-.71L6,7.59V2A1,1,0,1,0,4,2V7.59L2.71,6.29A1,1,0,0,0,1.29,7.71l3,3a1,1,0,0,0,1.41,0l3-3A1,1,0,0,0,9,7Z" transform="translate(611 140)" fill="var(--anatomy-gray-600)" />
    <g transform="translate(359 169)">
      <g fill="red" stroke="rgba(0,0,0,0)" stroke-width="1" opacity="0">
        <rect width="14" height="32" stroke="none" />
        <rect x="0.5" y="0.5" width="13" height="31" fill="none" />
      </g>
      <g transform="translate(0 9)" fill="var(--anatomy-gray-75)" stroke="var(--anatomy-gray-600)" stroke-width="2">
        <rect width="14" height="14" rx="2" stroke="none" />
        <rect x="1" y="1" width="12" height="12" rx="1" fill="none" />
      </g>
    </g>
    <g transform="translate(359 263)">
      <g fill="red" stroke="rgba(0,0,0,0)" stroke-width="1" opacity="0">
        <rect width="14" height="32" stroke="none" />
        <rect x="0.5" y="0.5" width="13" height="31" fill="none" />
      </g>
      <g transform="translate(0 9)" fill="var(--anatomy-gray-75)" stroke="var(--anatomy-gray-600)" stroke-width="2">
        <rect width="14" height="14" rx="2" stroke="none" />
        <rect x="1" y="1" width="12" height="12" rx="1" fill="none" />
      </g>
    </g>
    <g transform="translate(359 216)">
      <g fill="red" stroke="rgba(0,0,0,0)" stroke-width="1" opacity="0">
        <rect width="14" height="32" stroke="none" />
        <rect x="0.5" y="0.5" width="13" height="31" fill="none" />
      </g>
      <g transform="translate(0 9)" fill="var(--anatomy-gray-75)" stroke="var(--anatomy-gray-600)" stroke-width="2">
        <rect width="14" height="14" rx="2" stroke="none" />
        <rect x="1" y="1" width="12" height="12" rx="1" fill="none" />
      </g>
    </g>
    <g transform="translate(359 310)">
      <g fill="red" stroke="rgba(0,0,0,0)" stroke-width="1" opacity="0">
        <rect width="14" height="32" stroke="none" />
        <rect x="0.5" y="0.5" width="13" height="31" fill="none" />
      </g>
      <g transform="translate(0 9)" fill="var(--anatomy-gray-75)" stroke="var(--anatomy-gray-600)" stroke-width="2">
        <rect width="14" height="14" rx="2" stroke="none" />
        <rect x="1" y="1" width="12" height="12" rx="1" fill="none" />
      </g>
    </g>
    <g transform="translate(356.996 130)">
      <g fill="red" stroke="rgba(0,0,0,0)" stroke-width="1" opacity="0">
        <rect width="14" height="32" stroke="none" />
        <rect x="0.5" y="0.5" width="13" height="31" fill="none" />
      </g>
      <g transform="translate(0 9)" fill="var(--anatomy-gray-75)" stroke="var(--anatomy-gray-600)" stroke-width="2">
        <rect width="14" height="14" rx="2" stroke="none" />
        <rect x="1" y="1" width="12" height="12" rx="1" fill="none" />
      </g>
    </g>
    <g transform="translate(-38.004 454)"><text transform="translate(402 -355)" fill="var(--anatomy-gray-700)" font-size="13" font-family="var(--anatomy-font)" font-style="italic">
        <tspan x="-22.354" y="0">Select all</tspan>
        <tspan x="-23.433" y="15">checkbox</tspan>
      </text>
      <rect width="20" height="20" transform="translate(392 -335)" fill="red" opacity="0" />
      <path d="M-8556-348.5a2.5,2.5,0,0,1,2-2.45V-369h1v18.051a2.5,2.5,0,0,1,2,2.449,2.5,2.5,0,0,1-2.5,2.5A2.5,2.5,0,0,1-8556-348.5Z" transform="translate(8955.5 34)" fill="var(--anatomy-gray-500)" />
    </g>
    <g transform="translate(-85.639 624)"><text transform="translate(418 -350.5)" fill="var(--anatomy-gray-700)" font-size="13" font-family="var(--anatomy-font)" font-style="italic">
        <tspan x="-45.305" y="0">Selection</tspan>
        <tspan x="-46.865" y="16">checkbox</tspan>
      </text>
      <path d="M-8599-588.5V-608.55a2.5,2.5,0,0,1-2-2.45,2.5,2.5,0,0,1,2.5-2.5,2.5,2.5,0,0,1,2.5,2.5,2.5,2.5,0,0,1-2,2.449V-588.5Z" transform="translate(-165 8253.5) rotate(90)" fill="var(--anatomy-gray-500)" />
    </g><text transform="translate(677.139 252.812)" fill="var(--anatomy-gray-700)" font-size="13" font-family="var(--anatomy-font)" font-style="italic">
      <tspan x="0" y="0">Row</tspan>
      <tspan x="0" y="16">group</tspan>
    </text>
    <rect width="8" height="1" transform="translate(661.14 255.311)" fill="var(--anatomy-gray-500)" />
    <g transform="translate(652.14 162)">
      <rect width="8" height="1" fill="var(--anatomy-gray-500)" />
      <rect width="1" height="187.5" transform="translate(8)" fill="var(--anatomy-gray-500)" />
      <rect width="8" height="1" transform="translate(0 186.5)" fill="var(--anatomy-gray-500)" />
    </g><text transform="translate(309.277 141.349)" fill="var(--anatomy-gray-700)" font-size="13" font-family="var(--anatomy-font)" font-style="italic">
      <tspan x="-36.66" y="0">Header</tspan>
      <tspan x="-19.539" y="16">row</tspan>
    </text>
    <rect width="8" height="1" transform="translate(316.136 144.349)" fill="var(--anatomy-gray-500)" />
    <g transform="translate(324.136 135.001)">
      <rect width="8" height="1" transform="translate(1)" fill="var(--anatomy-gray-500)" />
      <rect width="1" height="21.677" fill="var(--anatomy-gray-500)" />
      <rect width="8" height="1" transform="translate(1 20.677)" fill="var(--anatomy-gray-500)" />
    </g><text transform="translate(308 190)" fill="var(--anatomy-gray-700)" font-size="13" font-family="var(--anatomy-font)" font-style="italic">
      <tspan x="-22.204" y="0">Row</tspan>
    </text>
    <rect width="8" height="1" transform="translate(316 184.641)" fill="var(--anatomy-gray-500)" />
    <g transform="translate(324 162)">
      <rect width="8" height="1" transform="translate(1)" fill="var(--anatomy-gray-500)" />
      <rect width="1" height="46" fill="var(--anatomy-gray-500)" />
      <rect width="8" height="1" transform="translate(1 45)" fill="var(--anatomy-gray-500)" />
    </g>
    <g transform="translate(359 169)">
      <g fill="red" stroke="rgba(0,0,0,0)" stroke-width="1" opacity="0">
        <rect width="14" height="32" stroke="none" />
        <rect x="0.5" y="0.5" width="13" height="31" fill="none" />
      </g>
      <g transform="translate(0 9)" fill="var(--anatomy-gray-75)" stroke="var(--anatomy-gray-600)" stroke-width="2">
        <rect width="14" height="14" rx="2" stroke="none" />
        <rect x="1" y="1" width="12" height="12" rx="1" fill="none" />
      </g>
    </g>
    <g transform="translate(359 169)">
      <g fill="red" stroke="rgba(0,0,0,0)" stroke-width="1" opacity="0">
        <rect width="14" height="32" stroke="none" />
        <rect x="0.5" y="0.5" width="13" height="31" fill="none" />
      </g>
      <g transform="translate(0 9)" fill="var(--anatomy-gray-75)" stroke="var(--anatomy-gray-600)" stroke-width="2">
        <rect width="14" height="14" rx="2" stroke="none" />
        <rect x="1" y="1" width="12" height="12" rx="1" fill="none" />
      </g>
    </g><text transform="translate(676 144)" fill="var(--anatomy-gray-700)" font-size="13" font-family="var(--anatomy-font)" font-style="italic">
      <tspan x="0" y="0">Row</tspan>
      <tspan x="0" y="16">group</tspan>
    </text>
    <rect width="8" height="1" transform="translate(661.14 145.51)" fill="var(--anatomy-gray-500)" />
    <g transform="translate(652.14 136.162)">
      <rect width="8" height="1" fill="var(--anatomy-gray-500)" />
      <rect width="1" height="21.677" transform="translate(8)" fill="var(--anatomy-gray-500)" />
      <rect width="8" height="1" transform="translate(0 20.677)" fill="var(--anatomy-gray-500)" />
    </g>
    <rect width="1" height="189" transform="translate(564 161)" fill="var(--anatomy-gray-300)" />
  </g>
</svg>
