<?xml version="1.0" encoding="utf-8"?>
<!-- Generator: Adobe Illustrator 18.0.0, SVG Export Plug-In . SVG Version: 6.00 Build 0)  -->
<!DOCTYPE svg PUBLIC "-//W3C//DTD SVG 1.1//EN" "http://www.w3.org/Graphics/SVG/1.1/DTD/svg11.dtd">
<svg version="1.1" id="Layer_1" xmlns="http://www.w3.org/2000/svg" xmlns:xlink="http://www.w3.org/1999/xlink" x="0px" y="0px"
	 width="1152px" height="1152px" viewBox="0 0 1152 1152" enable-background="new 0 0 1152 1152" xml:space="preserve">
<path d="M576,0C257.9,0,0,257.9,0,576s257.9,576,576,576s576-257.9,576-576S894.1,0,576,0z M439,919L209,689
	c-9.4-9.4-9.4-24.6,0-33.9L295,569c9.4-9.4,24.6-9.4,33.9,0l127,127l391-391c9.4-9.4,24.6-9.4,33.9,0L967,391
	c9.4,9.4,9.4,24.6,0,33.9L473,919C463.6,928.4,448.4,928.4,439,919z"/>
</svg>