<?xml version="1.0" encoding="utf-8"?>
<!-- Generator: Adobe Illustrator 18.1.1, SVG Export Plug-In . SVG Version: 6.00 Build 0)  -->
<svg version="1.1" id="Layer_1" xmlns="http://www.w3.org/2000/svg" xmlns:xlink="http://www.w3.org/1999/xlink" x="0px" y="0px"
	 width="16px" height="16px" viewBox="0 0 16 16" enable-background="new 0 0 16 16" xml:space="preserve">
<g id="XMLID_354_">
	<path id="XMLID_362_" fill="#EF3F3F" d="M15.9,14.7C15.8,14.3,9,1,9,1S8.5,0,8,0C7.5,0,7,1,7,1S0.2,14.5,0.1,14.8
		C-0.1,15.2-0.1,16,0.9,16s14.2,0,14.2,0C16.1,16,16.1,15,15.9,14.7z M8,14.4c-0.6,0-1.1-0.5-1.1-1.1s0.5-1.1,1.1-1.1
		c0.6,0,1.1,0.5,1.1,1.1S8.6,14.4,8,14.4z M9,6c0,1.5-0.2,4.3-0.3,4.8c0,0,0,0.2-0.1,0.2H7.5c-0.1,0-0.1-0.2-0.2-0.2
		C7.3,10.4,7,7.5,7,6V4.6c0-0.1,0.1-0.1,0.2-0.2C7.5,4.3,7.7,4.4,8,4.4c0.4,0,0.6,0,0.8,0.1C8.9,4.5,9,4.6,9,4.6V6z"/>
</g>
</svg>
