<svg xmlns="http://www.w3.org/2000/svg" style="max-height:552px;background:var(--anatomy-gray-100);padding:32px;margin-bottom:16px;width:calc(100% - 64px);border-radius:4px" viewBox="0 0 680 552">
  <title>List anatomy diagram</title>
  <desc>Shows a list and list item component with labels pointing to its parts.</desc>
  <defs>
    <clipPath id="a">
      <path d="M0 0h680v552H0z"/>
    </clipPath>
  </defs>
  <g clip-path="url(#a)">
    <path data-name="Rectangle 142147" fill="var(--anatomy-gray-50)" d="M116.25 86h436v58h-436z"/>
    <g data-name="Rectangle 142152" fill="var(--anatomy-gray-100)" stroke="#a5b6dd" stroke-dasharray="3">
      <path stroke="none" d="M409.25 94h101.504v42H409.25z"/>
      <path fill="none" d="M409.75 94.5h100.504v41H409.75z"/>
    </g>
    <text data-name="Actions (optional)" transform="translate(460.25 112)" fill="var(--anatomy-gray-700)" font-size="14" font-family="Adobe Clean" font-style="italic"><tspan x="-17.04" y="0">Actions</tspan><tspan x="-23.25" y="15">(optional)</tspan></text>
    <text data-name="Navigation icon (optional)" transform="translate(526.75 56)" fill="var(--anatomy-gray-700)" font-size="14" font-family="Adobe Clean" font-style="italic"><tspan x="-36.84" y="0">Navigation icon</tspan><tspan x="-23.25" y="15">(optional)</tspan></text>
    <text data-name="Checkbox (optional)" transform="translate(165.25 56)" fill="var(--anatomy-gray-700)" font-size="14" font-family="Adobe Clean" font-style="italic"><tspan x="-44.88" y="0">Checkbox</tspan><tspan x="-46.5" y="15">(optional)</tspan></text>
    <path data-name="Line 10" fill="none" stroke="var(--anatomy-gray-700)" d="M527.25 76.5v24"/>
    <path data-name="Line 9" fill="none" stroke="var(--anatomy-gray-700)" d="M142.75 76.5v24"/>
    <g data-name="Rectangle 142153" fill="var(--anatomy-gray-100)" stroke="#a5b6dd" stroke-dasharray="3">
      <path stroke="none" d="M165.25 117h236.5v19h-236.5z"/>
      <path fill="none" d="M165.75 117.5h235.5v18h-235.5z"/>
    </g>
    <g data-name="Rectangle 142154" fill="var(--anatomy-gray-100)" stroke="#a5b6dd" stroke-dasharray="3">
      <path stroke="none" d="M165.25 94h236.5v19h-236.5z"/>
      <path fill="none" d="M165.75 94.5h235.5v18h-235.5z"/>
    </g>
    <text data-name="Label area" transform="translate(283.5 107.739)" fill="var(--anatomy-gray-700)" font-size="14" font-family="Adobe Clean" font-style="italic"><tspan x="-24.678" y="0">Label area</tspan></text>
    <text data-name="Description area (optional)" transform="translate(283.5 131.261)" fill="var(--anatomy-gray-700)" font-size="14" font-family="Adobe Clean" font-style="italic"><tspan x="-62.94" y="0">Description area (optional)</tspan></text>
    <g transform="translate(132.25 104.5)" fill="var(--anatomy-gray-100)" stroke="#718dcf" stroke-width="3">
      <rect width="21" height="21" rx="2" stroke="none"/>
      <rect x="1.5" y="1.5" width="18" height="18" rx=".5" fill="none"/>
    </g>
    <g data-name="Group 156660">
      <path fill="rgba(255,0,0,0)" d="M519.25 107.5h15v15h-15z"/>
      <path data-name="Path 35561" d="M523.75 122.425a1.312 1.312 0 0 1-.922-2.246L528.07 115l-5.242-5.175a1.314 1.314 0 1 1 1.845-1.872l6.188 6.113a1.314 1.314 0 0 1 0 1.868l-6.188 6.113a1.307 1.307 0 0 1-.923.378Z" fill="var(--anatomy-gray-700)"/>
    </g>
    <g data-name="Group 156661" fill="var(--anatomy-gray-700)">
      <text data-name="List view" transform="translate(75.999 370)" font-size="13" font-family="Adobe Clean" font-style="italic"><tspan x="-43.771" y="0">List view</tspan></text>
      <g data-name="Group 152111">
        <path data-name="Rectangle 138454" d="M94 367h-8v-1h8z"/>
        <g data-name="Group 72702">
          <path data-name="Rectangle 138451" d="M103 480h-8v-1h8z"/>
          <path data-name="Rectangle 138453" d="M95 480h-1V252h1z"/>
          <path data-name="Rectangle 138452" d="M103 253h-8v-1h8z"/>
        </g>
      </g>
    </g>
    <g data-name="Group 156664">
      <g data-name="Rectangle 142243" transform="translate(123 249)" fill="var(--anatomy-gray-50)" stroke="#c0cce7" stroke-width="1.5">
        <rect width="364" height="232" rx="6" stroke="none"/>
        <rect x=".75" y=".75" width="362.5" height="230.5" rx="5.25" fill="none"/>
      </g>
      <path data-name="Rectangle 142241" fill="rgba(72,110,194,0.1)" d="M123 365h364v58H123z"/>
      <text data-name="List view item" transform="translate(174 284)" fill="var(--anatomy-gray-800)" font-size="21" font-family="Adobe Clean"><tspan x="0" y="0">List view item</tspan></text>
      <text data-name="List view item" transform="translate(174 342)" fill="var(--anatomy-gray-800)" font-size="21" font-family="Adobe Clean"><tspan x="0" y="0">List view item</tspan></text>
      <text data-name="List view item" transform="translate(174 400)" fill="var(--anatomy-gray-800)" font-size="21" font-family="Adobe Clean"><tspan x="0" y="0">List view item</tspan></text>
      <text data-name="List view item" transform="translate(174 458)" fill="var(--anatomy-gray-800)" font-size="21" font-family="Adobe Clean"><tspan x="0" y="0">List view item</tspan></text>
      <path data-name="Line 13" fill="none" stroke="#c0cce7" stroke-width="1.5" d="M123.5 307.5h363.252"/>
      <path data-name="Line 14" fill="none" stroke="#c0cce7" stroke-width="1.5" d="M123.5 365.522h363.252"/>
      <path data-name="Line 15" fill="none" stroke="#c0cce7" stroke-width="1.5" d="M123.5 423.522h363.252"/>
      <g data-name="Action group">
        <g data-name="Action Button" transform="translate(375.252 312)">
          <rect width="48" height="48" rx="4" transform="translate(-.252)" fill="rgba(255,0,0,0)"/>
          <path data-name="Path 35570" d="M25.612 19.5A1.612 1.612 0 1 1 24 17.888a1.613 1.613 0 0 1 1.613 1.612Zm.138 9h-.25v-5.7a.3.3 0 0 0-.3-.3h-2.95s-.875.024-.875.75.875.75.875.75h.25v4.5h-.25s-.875.024-.875.75.875.75.875.75h3.5s.875-.025.875-.75-.875-.75-.875-.75ZM24 11.25A12.75 12.75 0 1 0 36.75 24 12.75 12.75 0 0 0 24 11.25Zm0 22.762A10.012 10.012 0 1 1 34.012 24 10.012 10.012 0 0 1 24 34.012Z" fill="var(--anatomy-gray-700)"/>
        </g>
        <g data-name="Action Button" transform="translate(425.252 312)">
          <rect data-name="Background" width="48" height="48" rx="4" transform="translate(-.252)" fill="rgba(255,0,0,0)"/>
          <g data-name="Icon" fill="var(--anatomy-gray-700)">
            <path data-name="Path 35573" d="M35.25 12h-22.5a.75.75 0 0 0-.75.75v10.5a.75.75 0 0 0 .75.75h1.5a.75.75 0 0 0 .75-.75V15h18v18h-8.25a.75.75 0 0 0-.75.75v1.5a.75.75 0 0 0 .75.75h10.5a.75.75 0 0 0 .75-.75v-22.5a.75.75 0 0 0-.75-.75Z"/>
            <path data-name="Path 35574" d="M24.477 31.323a.586.586 0 0 0 .423.177.6.6 0 0 0 .6-.566v-8.059a.375.375 0 0 0-.375-.375h-8.06a.6.6 0 0 0-.565.6.588.588 0 0 0 .176.42l2.84 2.84-6.782 6.784a.75.75 0 0 0 0 1.061l1.061 1.061a.75.75 0 0 0 1.061 0l6.782-6.782Z"/>
          </g>
        </g>
      </g>
      <g data-name="Action group">
        <g data-name="Action Button" transform="translate(375.252 370)">
          <rect data-name="Background" width="48" height="48" rx="4" transform="translate(-.252)" fill="rgba(255,0,0,0)"/>
          <g data-name="Icon">
            <path data-name="Path 35570" d="M25.612 19.5A1.612 1.612 0 1 1 24 17.888a1.613 1.613 0 0 1 1.613 1.612Zm.138 9h-.25v-5.7a.3.3 0 0 0-.3-.3h-2.95s-.875.024-.875.75.875.75.875.75h.25v4.5h-.25s-.875.024-.875.75.875.75.875.75h3.5s.875-.025.875-.75-.875-.75-.875-.75ZM24 11.25A12.75 12.75 0 1 0 36.75 24 12.75 12.75 0 0 0 24 11.25Zm0 22.762A10.012 10.012 0 1 1 34.012 24 10.012 10.012 0 0 1 24 34.012Z" fill="var(--anatomy-gray-700)"/>
          </g>
        </g>
        <g data-name="Action Button" transform="translate(425.252 370)">
          <rect data-name="Background" width="48" height="48" rx="4" transform="translate(-.252)" fill="rgba(255,0,0,0)"/>
          <g data-name="Icon" fill="var(--anatomy-gray-700)">
            <path data-name="Path 35573" d="M35.25 12h-22.5a.75.75 0 0 0-.75.75v10.5a.75.75 0 0 0 .75.75h1.5a.75.75 0 0 0 .75-.75V15h18v18h-8.25a.75.75 0 0 0-.75.75v1.5a.75.75 0 0 0 .75.75h10.5a.75.75 0 0 0 .75-.75v-22.5a.75.75 0 0 0-.75-.75Z"/>
            <path data-name="Path 35574" d="M24.477 31.323a.586.586 0 0 0 .423.177.6.6 0 0 0 .6-.566v-8.059a.375.375 0 0 0-.375-.375h-8.06a.6.6 0 0 0-.565.6.588.588 0 0 0 .176.42l2.84 2.84-6.782 6.784a.75.75 0 0 0 0 1.061l1.061 1.061a.75.75 0 0 0 1.061 0l6.782-6.782Z"/>
          </g>
        </g>
      </g>
      <g data-name="Action group">
        <g data-name="Action Button" transform="translate(375.252 428)">
          <rect data-name="Background" width="48" height="48" rx="4" transform="translate(-.252)" fill="rgba(255,0,0,0)"/>
          <g data-name="Icon">
            <path data-name="Path 35570" d="M25.612 19.5A1.612 1.612 0 1 1 24 17.888a1.613 1.613 0 0 1 1.613 1.612Zm.138 9h-.25v-5.7a.3.3 0 0 0-.3-.3h-2.95s-.875.024-.875.75.875.75.875.75h.25v4.5h-.25s-.875.024-.875.75.875.75.875.75h3.5s.875-.025.875-.75-.875-.75-.875-.75ZM24 11.25A12.75 12.75 0 1 0 36.75 24 12.75 12.75 0 0 0 24 11.25Zm0 22.762A10.012 10.012 0 1 1 34.012 24 10.012 10.012 0 0 1 24 34.012Z" fill="var(--anatomy-gray-700)"/>
          </g>
        </g>
        <g data-name="Action Button" transform="translate(425.252 428)">
          <rect data-name="Background" width="48" height="48" rx="4" transform="translate(-.252)" fill="rgba(255,0,0,0)"/>
          <g data-name="Icon" fill="var(--anatomy-gray-700)">
            <path data-name="Path 35573" d="M35.25 12h-22.5a.75.75 0 0 0-.75.75v10.5a.75.75 0 0 0 .75.75h1.5a.75.75 0 0 0 .75-.75V15h18v18h-8.25a.75.75 0 0 0-.75.75v1.5a.75.75 0 0 0 .75.75h10.5a.75.75 0 0 0 .75-.75v-22.5a.75.75 0 0 0-.75-.75Z"/>
            <path data-name="Path 35574" d="M24.477 31.323a.586.586 0 0 0 .423.177.6.6 0 0 0 .6-.566v-8.059a.375.375 0 0 0-.375-.375h-8.06a.6.6 0 0 0-.565.6.588.588 0 0 0 .176.42l2.84 2.84-6.782 6.784a.75.75 0 0 0 0 1.061l1.061 1.061a.75.75 0 0 0 1.061 0l6.782-6.782Z"/>
          </g>
        </g>
      </g>
      <g data-name="Group 156659">
        <g data-name="ChevronSize100">
          <path data-name="Frame" fill="rgba(255,0,0,0)" d="M454.252 270.5h15v15h-15z"/>
          <path data-name="Path 35561" d="M458.752 285.425a1.312 1.312 0 0 1-.922-2.246l5.242-5.179-5.242-5.175a1.314 1.314 0 1 1 1.845-1.872l6.188 6.113a1.314 1.314 0 0 1 0 1.868l-6.188 6.113a1.307 1.307 0 0 1-.923.378Z" fill="var(--anatomy-gray-700)"/>
        </g>
      </g>
      <g data-name="Checkbox">
        <g data-name="Box" transform="translate(141 267.5)" fill="var(--anatomy-gray-100)" stroke="#718dcf" stroke-width="3">
          <rect width="21" height="21" rx="2" stroke="none"/>
          <rect x="1.5" y="1.5" width="18" height="18" rx=".5" fill="none"/>
        </g>
      </g>
      <g data-name="Checkbox">
        <g data-name="Box" transform="translate(141 325.5)" fill="var(--anatomy-gray-100)" stroke="#718dcf" stroke-width="3">
          <rect width="21" height="21" rx="2" stroke="none"/>
          <rect x="1.5" y="1.5" width="18" height="18" rx=".5" fill="none"/>
        </g>
      </g>
      <g data-name="Checkbox">
        <g data-name="Box" transform="translate(141 383.5)" fill="var(--anatomy-gray-700)" stroke="rgba(0,0,0,0)">
          <rect width="21" height="21" rx="2" stroke="none"/>
          <rect x=".5" y=".5" width="20" height="20" rx="1.5" fill="none"/>
        </g>
        <path d="M149.682 400a1.5 1.5 0 0 1-1.182-.578l-3.432-4.499a1.5 1.5 0 1 1 2.364-1.845l2.25 2.986 5.886-7.486a1.5 1.5 0 1 1 2.364 1.845l-7.068 9a1.5 1.5 0 0 1-1.182.577Z" fill="var(--anatomy-gray-100)"/>
      </g>
      <g data-name="Checkbox">
        <g data-name="Box" transform="translate(141 441.5)" fill="var(--anatomy-gray-100)" stroke="#718dcf" stroke-width="3">
          <rect width="21" height="21" rx="2" stroke="none"/>
          <rect x="1.5" y="1.5" width="18" height="18" rx=".5" fill="none"/>
        </g>
      </g>
    </g>
    <g data-name="Group 152101">
      <text data-name="Parent list view item" transform="translate(527.005 281)" fill="var(--anatomy-gray-700)" font-size="13" font-family="Adobe Clean" font-style="italic"><tspan x="0" y="0">Parent list view item</tspan></text>
      <g data-name="Group 152108">
        <path data-name="Union 56" d="M477.504 275.5a2.5 2.5 0 0 1 2.449 2h43.051v1h-43.052a2.5 2.5 0 0 1-2.449 2 2.5 2.5 0 0 1-2.5-2.5 2.5 2.5 0 0 1 2.501-2.5Z" fill="var(--anatomy-gray-500)"/>
      </g>
    </g>
    <g data-name="Group 156663">
      <text data-name="Child list view item" transform="translate(527.005 338)" fill="var(--anatomy-gray-700)" font-size="13" font-family="Adobe Clean" font-style="italic"><tspan x="0" y="0">Child list view item</tspan></text>
      <g data-name="Group 152108">
        <path data-name="Union 56" d="M477.504 332.5a2.5 2.5 0 0 1 2.449 2h43.051v1h-43.052a2.5 2.5 0 0 1-2.449 2 2.5 2.5 0 0 1-2.5-2.5 2.5 2.5 0 0 1 2.501-2.5Z" fill="var(--anatomy-gray-500)"/>
      </g>
    </g>
    <g data-name="Group 152110">
      <text data-name="Selected list view item" transform="translate(527.005 395)" fill="var(--anatomy-gray-700)" font-size="13" font-family="Adobe Clean" font-style="italic"><tspan x="0" y="0">Selected list view item</tspan></text>
      <g data-name="Group 152108">
        <path data-name="Union 56" d="M477.504 389.5a2.5 2.5 0 0 1 2.449 2h43.051v1h-43.052a2.5 2.5 0 0 1-2.449 2 2.5 2.5 0 0 1-2.5-2.5 2.5 2.5 0 0 1 2.501-2.5Z" fill="var(--anatomy-gray-500)"/>
      </g>
    </g>
  </g>
</svg>
