<svg style="max-height: 115px; background: #f4f6fc; padding: 32px; margin-bottom: 16px; width: calc(100% - 64px); border-radius: 4px;" viewBox="0 0 402.401 115">
  <title>Breadcrumbs anatomy diagram</title>
  <desc>Shows a breadcrumbs component with labels pointing to its parts, including the navigation container, breadcrumb items, separators, and current page elements.</desc>
  <defs>
    <clipPath id="a">
      <rect width="5" height="30.5" fill="none" />
    </clipPath>
  </defs>
  <g transform="translate(-126.542 -64)">
    <g transform="translate(-425 -559)">
      <path d="M8.988.752A.75.75,0,0,0,7.707.22L4.5,3.433,1.283.22A.751.751,0,1,0,.22,1.282L3.963,5.023a.75.75,0,0,0,1.06,0L8.766,1.282A.75.75,0,0,0,8.988.752Z" transform="translate(738.881 695.995) rotate(-90)" fill="#6a8dd4" />
      <path d="M8.988.752A.75.75,0,0,0,7.707.22L4.5,3.433,1.283.22A.751.751,0,1,0,.22,1.282L3.963,5.023a.75.75,0,0,0,1.06,0L8.766,1.282A.75.75,0,0,0,8.988.752Z" transform="translate(651.881 695.995) rotate(-90)" fill="#6a8dd4" />
      <rect width="6" height="9" transform="translate(651.5 687)" fill="none" /><text transform="translate(669.5 673.5)" fill="#6a8dd4" font-size="24" font-family="Adobe-Clean">
        <tspan x="0" y="24">Trend</tspan>
      </text><text transform="translate(552.5 673.5)" fill="#6a8dd4" font-size="24" font-family="Adobe-Clean">
        <tspan x="0" y="24">Sub Item</tspan>
      </text><text transform="translate(756.5 673.5)" fill="#3f6dc8" font-size="24" font-family="Adobe-Clean" style="font-weight: 500">
        <tspan x="0" y="24">January 2019 Assets</tspan>
      </text>
      <g transform="translate(593 640.5)" clip-path="url(#a)">
        <circle cx="2.5" cy="2.5" r="2.5" transform="translate(0 25.5)" fill="#9eb6e5" />
        <line y1="28" transform="translate(2.5)" fill="none" stroke="#9eb6e5" stroke-width="1" />
      </g>
      <g transform="translate(388 279)">
        <circle cx="2.5" cy="2.5" r="2.5" transform="translate(351 401)" fill="#9eb6e5" />
        <line y1="42" transform="translate(353.5 361.5)" fill="none" stroke="#9eb6e5" stroke-width="1" />
      </g>
      <g transform="translate(857 640.5)" clip-path="url(#a)">
        <circle cx="2.5" cy="2.5" r="2.5" transform="translate(0 25.5)" fill="#9eb6e5" />
        <line y1="28" transform="translate(2.5)" fill="none" stroke="#9eb6e5" stroke-width="1" />
      </g><text transform="translate(596 636)" fill="#3f6dc8" font-size="13" font-family="Adobe-Clean" style="font-style: italic">
        <tspan x="-43.882" y="0">Breadcrumb item</tspan>
      </text><text transform="translate(742 636)" fill="#3f6dc8" font-size="13" font-family="Adobe-Clean" style="font-style: italic">
        <tspan x="-24.694" y="0">Separator</tspan>
      </text><text transform="translate(860 636)" fill="#3f6dc8" font-size="13" font-family="Adobe-Clean" style="font-style: italic">
        <tspan x="-32.669" y="0">Current page</tspan>
      </text><text transform="translate(745 734)" fill="#3f6dc8" font-size="13" font-family="Adobe-Clean" style="font-style: italic">
        <tspan x="-27.917" y="0">Navigation</tspan>
      </text>
      <path d="M-8551.769,3890.234v8.53h401.4v-8.53" transform="translate(9103.811 -3182.375)" fill="none" stroke="#9eb6e5" stroke-width="1" />
    </g>
  </g>
</svg>
