<svg width="728" height="369" viewBox="0 0 728 369" fill="none" xmlns="http://www.w3.org/2000/svg">
<rect x="86" y="284" width="1" height="5" rx="0.5" fill="#D5D5D5"/>
<path d="M83.752 300.082H89.31C89.352 300.082 89.366 300.096 89.366 300.152V300.81C89.366 300.852 89.352 300.908 89.338 300.978C88.358 303.162 86.79 306.592 85.684 308.93C85.656 308.986 85.628 309 85.586 309H84.48C84.438 309 84.41 308.972 84.424 308.916C86.342 305.01 87.784 301.902 88.148 301.132H83.584C83.528 301.132 83.514 301.104 83.514 301.048L83.668 300.138C83.682 300.096 83.696 300.082 83.752 300.082Z" fill="#909090"/>
<rect x="106.552" y="284" width="1" height="5" rx="0.5" fill="#D5D5D5"/>
<path d="M107.053 300.95C106.045 300.95 105.513 301.594 105.513 302.42C105.513 302.98 105.737 303.428 106.101 303.736C106.199 303.82 106.297 303.848 106.423 303.848H107.711C107.823 303.848 107.935 303.82 108.061 303.708C108.341 303.442 108.579 303.078 108.579 302.462C108.579 301.482 107.921 300.95 107.053 300.95ZM107.081 308.132C108.243 308.132 108.845 307.404 108.859 306.494C108.873 305.696 108.467 305.22 108.061 304.968C107.949 304.898 107.879 304.856 107.725 304.856H106.423C106.311 304.856 106.255 304.87 106.143 304.94C105.653 305.206 105.247 305.738 105.247 306.438C105.247 307.502 106.073 308.132 107.081 308.132ZM107.067 299.956C108.803 299.956 109.685 301.132 109.685 302.364C109.685 303.372 109.111 303.988 108.705 304.31C109.321 304.66 110.021 305.346 110.021 306.55C110.021 308.104 108.775 309.14 107.011 309.14C105.163 309.14 104.085 307.978 104.085 306.522C104.085 305.57 104.645 304.814 105.415 304.366C104.869 303.974 104.379 303.316 104.379 302.35C104.379 301.118 105.317 299.956 107.067 299.956Z" fill="#909090"/>
<rect x="127.104" y="284" width="1" height="5" rx="0.5" fill="#D5D5D5"/>
<path d="M125.486 309.042V308.188C125.486 308.132 125.5 308.118 125.556 308.104C127.418 307.642 128.636 306.536 129.126 305.248C128.594 305.556 128.02 305.696 127.39 305.696C125.71 305.696 124.548 304.618 124.548 302.924C124.548 301.37 125.682 299.942 127.572 299.942C129.364 299.942 130.582 301.342 130.582 303.554C130.582 306.704 128.188 308.706 125.584 309.14C125.5 309.154 125.486 309.098 125.486 309.042ZM127.67 304.73C128.384 304.73 128.916 304.548 129.364 304.212C129.378 304.044 129.406 303.75 129.406 303.54C129.406 301.986 128.706 300.964 127.516 300.964C126.368 300.964 125.724 301.846 125.724 302.868C125.724 304.184 126.606 304.73 127.67 304.73Z" fill="#909090"/>
<rect x="147.655" y="284" width="1" height="5" rx="0.5" fill="#D5D5D5"/>
<path d="M145.274 309H144.266C144.182 309 144.182 308.972 144.182 308.916V301.286C143.72 301.566 142.964 301.846 142.516 301.958C142.446 301.972 142.418 301.944 142.418 301.874V301.062C142.418 301.006 142.418 300.978 142.488 300.964C143.174 300.768 143.944 300.39 144.42 300.082C144.476 300.026 144.56 300.026 144.616 300.026H145.288C145.33 300.026 145.344 300.054 145.344 300.11V308.916C145.344 308.972 145.33 309 145.274 309ZM150.388 300.964C149.31 300.964 148.512 302.084 148.512 304.492C148.512 306.606 149.128 308.104 150.444 308.104C151.76 308.104 152.278 306.704 152.278 304.534C152.278 302.154 151.606 300.964 150.388 300.964ZM150.43 309.14C148.246 309.14 147.336 307.068 147.336 304.52C147.336 301.986 148.386 299.942 150.416 299.942C152.908 299.942 153.454 302.532 153.454 304.52C153.454 306.788 152.754 309.14 150.43 309.14Z" fill="#909090"/>
<rect x="168.207" y="284" width="1" height="5" rx="0.5" fill="#D5D5D5"/>
<path d="M167.275 309H166.267C166.183 309 166.183 308.972 166.183 308.916V301.286C165.721 301.566 164.965 301.846 164.517 301.958C164.447 301.972 164.419 301.944 164.419 301.874V301.062C164.419 301.006 164.419 300.978 164.489 300.964C165.175 300.768 165.945 300.39 166.421 300.082C166.477 300.026 166.561 300.026 166.617 300.026H167.289C167.331 300.026 167.345 300.054 167.345 300.11V308.916C167.345 308.972 167.331 309 167.275 309ZM171.759 309H170.751C170.667 309 170.667 308.972 170.667 308.916V301.286C170.205 301.566 169.449 301.846 169.001 301.958C168.931 301.972 168.903 301.944 168.903 301.874V301.062C168.903 301.006 168.903 300.978 168.973 300.964C169.659 300.768 170.429 300.39 170.905 300.082C170.961 300.026 171.045 300.026 171.101 300.026H171.773C171.815 300.026 171.829 300.054 171.829 300.11V308.916C171.829 308.972 171.815 309 171.759 309Z" fill="#909090"/>
<rect x="188.759" y="284" width="1" height="5" rx="0.5" fill="#D5D5D5"/>
<path d="M186.746 309H185.738C185.654 309 185.654 308.972 185.654 308.916V301.286C185.192 301.566 184.436 301.846 183.988 301.958C183.918 301.972 183.89 301.944 183.89 301.874V301.062C183.89 301.006 183.89 300.978 183.96 300.964C184.646 300.768 185.416 300.39 185.892 300.082C185.948 300.026 186.032 300.026 186.088 300.026H186.76C186.802 300.026 186.816 300.054 186.816 300.11V308.916C186.816 308.972 186.802 309 186.746 309ZM194.1 309H188.584C188.514 309 188.5 308.958 188.5 308.902V308.272C188.5 308.202 188.514 308.174 188.556 308.132C189.144 307.67 190.166 306.83 191.118 305.892C192.462 304.604 192.784 303.736 192.784 302.84C192.784 301.832 192.238 301.02 190.936 301.02C190.082 301.02 189.466 301.286 188.864 301.636C188.808 301.678 188.766 301.65 188.766 301.594V300.698C188.766 300.628 188.766 300.614 188.822 300.572C189.48 300.194 190.264 299.942 191.16 299.942C193.092 299.942 193.96 301.258 193.96 302.714C193.96 303.792 193.582 304.828 192.294 306.102C191.454 306.97 190.726 307.586 190.208 308.02C190.684 307.978 191.146 307.978 192.406 307.978H194.338C194.408 307.978 194.436 307.992 194.422 308.048L194.212 308.916C194.184 308.986 194.17 309 194.1 309Z" fill="#909090"/>
<rect x="209.311" y="284" width="1" height="5" rx="0.5" fill="#D5D5D5"/>
<path d="M207.23 309H206.222C206.138 309 206.138 308.972 206.138 308.916V301.286C205.676 301.566 204.92 301.846 204.472 301.958C204.402 301.972 204.374 301.944 204.374 301.874V301.062C204.374 301.006 204.374 300.978 204.444 300.964C205.13 300.768 205.9 300.39 206.376 300.082C206.432 300.026 206.516 300.026 206.572 300.026H207.244C207.286 300.026 207.3 300.054 207.3 300.11V308.916C207.3 308.972 207.286 309 207.23 309ZM211.266 304.828H210.678C210.608 304.828 210.58 304.8 210.58 304.744V303.862C210.58 303.806 210.594 303.764 210.664 303.764H211.182C212.414 303.764 213.17 303.288 213.17 302.392C213.17 301.608 212.652 301.006 211.42 301.006C210.692 301.006 210.076 301.174 209.404 301.566C209.334 301.594 209.32 301.58 209.32 301.524V300.628C209.32 300.572 209.32 300.544 209.376 300.502C209.978 300.166 210.776 299.956 211.616 299.956C213.366 299.956 214.318 300.922 214.318 302.252C214.318 303.372 213.478 303.988 212.848 304.198C213.66 304.38 214.766 305.01 214.766 306.452C214.766 308.174 213.352 309.14 211.462 309.14C210.552 309.14 209.782 308.972 209.194 308.636C209.138 308.608 209.138 308.552 209.138 308.496V307.53C209.138 307.474 209.18 307.446 209.222 307.474C209.95 307.894 210.636 308.09 211.448 308.09C212.96 308.09 213.576 307.334 213.576 306.452C213.576 305.332 212.652 304.828 211.266 304.828Z" fill="#909090"/>
<rect x="229.862" y="284" width="1" height="5" rx="0.5" fill="#D5D5D5"/>
<path d="M227.658 309H226.65C226.566 309 226.566 308.972 226.566 308.916V301.286C226.104 301.566 225.348 301.846 224.9 301.958C224.83 301.972 224.802 301.944 224.802 301.874V301.062C224.802 301.006 224.802 300.978 224.872 300.964C225.558 300.768 226.328 300.39 226.804 300.082C226.86 300.026 226.944 300.026 227 300.026H227.672C227.714 300.026 227.728 300.054 227.728 300.11V308.916C227.728 308.972 227.714 309 227.658 309ZM233.599 306.676H229.525C229.455 306.676 229.441 306.662 229.441 306.62V305.85C229.441 305.78 229.455 305.766 229.483 305.71L233.291 300.166C233.333 300.11 233.361 300.082 233.445 300.082H234.635C234.691 300.082 234.719 300.11 234.719 300.166V305.71H235.853C235.909 305.71 235.923 305.738 235.909 305.794L235.783 306.62C235.769 306.662 235.741 306.676 235.671 306.676H234.719V308.916C234.719 308.972 234.691 309 234.635 309H233.683C233.627 309 233.599 308.958 233.599 308.916V306.676ZM233.599 305.71V303.988C233.599 302.574 233.641 301.622 233.669 301.16H233.655C233.347 301.776 231.107 305.024 230.673 305.71H233.599Z" fill="#909090"/>
<rect x="250.414" y="284" width="1" height="5" rx="0.5" fill="#D5D5D5"/>
<path d="M248.408 309H247.4C247.316 309 247.316 308.972 247.316 308.916V301.286C246.854 301.566 246.098 301.846 245.65 301.958C245.58 301.972 245.552 301.944 245.552 301.874V301.062C245.552 301.006 245.552 300.978 245.622 300.964C246.308 300.768 247.078 300.39 247.554 300.082C247.61 300.026 247.694 300.026 247.75 300.026H248.422C248.464 300.026 248.478 300.054 248.478 300.11V308.916C248.478 308.972 248.464 309 248.408 309ZM255.135 301.132H252.139C251.985 301.65 251.705 302.798 251.607 303.218C254.505 303.512 255.779 304.534 255.779 306.312C255.779 307.964 254.519 309.14 252.531 309.14C251.607 309.14 250.921 308.972 250.389 308.706C250.347 308.678 250.333 308.636 250.333 308.566V307.6C250.333 307.544 250.375 307.53 250.403 307.544C251.047 307.894 251.733 308.09 252.531 308.09C254.043 308.09 254.603 307.236 254.603 306.396C254.603 305.08 253.483 304.38 250.585 304.142C250.529 304.142 250.487 304.128 250.487 304.058L250.473 303.582C250.529 303.33 251.369 300.236 251.383 300.166C251.411 300.096 251.425 300.082 251.481 300.082H255.443C255.499 300.082 255.527 300.096 255.499 300.166L255.247 301.048C255.233 301.104 255.205 301.132 255.135 301.132Z" fill="#909090"/>
<rect x="270.965" y="284" width="1" height="5" rx="0.5" fill="#D5D5D5"/>
<path d="M268.584 309H267.576C267.492 309 267.492 308.972 267.492 308.916V301.286C267.03 301.566 266.274 301.846 265.826 301.958C265.756 301.972 265.728 301.944 265.728 301.874V301.062C265.728 301.006 265.728 300.978 265.798 300.964C266.484 300.768 267.254 300.39 267.73 300.082C267.786 300.026 267.87 300.026 267.926 300.026H268.598C268.64 300.026 268.654 300.054 268.654 300.11V308.916C268.654 308.972 268.64 309 268.584 309ZM273.74 304.282C272.984 304.282 272.34 304.576 271.85 304.968C271.836 305.052 271.808 305.36 271.808 305.584C271.808 307.152 272.634 308.104 273.81 308.104C274.972 308.104 275.616 307.25 275.616 306.2C275.616 305.038 274.916 304.296 273.74 304.282ZM276.022 300.026V300.894C276.022 300.936 276.022 300.964 275.966 300.964C274.09 301.3 272.606 302.35 272.074 303.974C272.508 303.652 273.208 303.33 274.062 303.33C275.63 303.33 276.806 304.422 276.806 306.144C276.806 307.684 275.756 309.14 273.768 309.14C271.794 309.14 270.646 307.586 270.646 305.57C270.646 302.532 272.998 300.404 275.966 299.942C276.022 299.942 276.022 299.984 276.022 300.026Z" fill="#909090"/>
<rect x="291.517" y="284" width="1" height="5" rx="0.5" fill="#D5D5D5"/>
<path d="M289.758 309H288.75C288.666 309 288.666 308.972 288.666 308.916V301.286C288.204 301.566 287.448 301.846 287 301.958C286.93 301.972 286.902 301.944 286.902 301.874V301.062C286.902 301.006 286.902 300.978 286.972 300.964C287.658 300.768 288.428 300.39 288.904 300.082C288.96 300.026 289.044 300.026 289.1 300.026H289.772C289.814 300.026 289.828 300.054 289.828 300.11V308.916C289.828 308.972 289.814 309 289.758 309ZM291.539 300.082H297.097C297.139 300.082 297.153 300.096 297.153 300.152V300.81C297.153 300.852 297.139 300.908 297.125 300.978C296.145 303.162 294.577 306.592 293.471 308.93C293.443 308.986 293.415 309 293.373 309H292.267C292.225 309 292.197 308.972 292.211 308.916C294.129 305.01 295.571 301.902 295.935 301.132H291.371C291.315 301.132 291.301 301.104 291.301 301.048L291.455 300.138C291.469 300.096 291.483 300.082 291.539 300.082Z" fill="#909090"/>
<rect x="312.069" y="284" width="1" height="5" rx="0.5" fill="#D5D5D5"/>
<path d="M309.844 309H308.836C308.752 309 308.752 308.972 308.752 308.916V301.286C308.29 301.566 307.534 301.846 307.086 301.958C307.016 301.972 306.988 301.944 306.988 301.874V301.062C306.988 301.006 306.988 300.978 307.058 300.964C307.744 300.768 308.514 300.39 308.99 300.082C309.046 300.026 309.13 300.026 309.186 300.026H309.858C309.9 300.026 309.914 300.054 309.914 300.11V308.916C309.914 308.972 309.9 309 309.844 309ZM314.778 300.95C313.77 300.95 313.238 301.594 313.238 302.42C313.238 302.98 313.462 303.428 313.826 303.736C313.924 303.82 314.022 303.848 314.148 303.848H315.436C315.548 303.848 315.66 303.82 315.786 303.708C316.066 303.442 316.304 303.078 316.304 302.462C316.304 301.482 315.646 300.95 314.778 300.95ZM314.806 308.132C315.968 308.132 316.57 307.404 316.584 306.494C316.598 305.696 316.192 305.22 315.786 304.968C315.674 304.898 315.604 304.856 315.45 304.856H314.148C314.036 304.856 313.98 304.87 313.868 304.94C313.378 305.206 312.972 305.738 312.972 306.438C312.972 307.502 313.798 308.132 314.806 308.132ZM314.792 299.956C316.528 299.956 317.41 301.132 317.41 302.364C317.41 303.372 316.836 303.988 316.43 304.31C317.046 304.66 317.746 305.346 317.746 306.55C317.746 308.104 316.5 309.14 314.736 309.14C312.888 309.14 311.81 307.978 311.81 306.522C311.81 305.57 312.37 304.814 313.14 304.366C312.594 303.974 312.104 303.316 312.104 302.35C312.104 301.118 313.042 299.956 314.792 299.956Z" fill="#909090"/>
<rect x="332.621" y="284" width="1" height="5" rx="0.5" fill="#D5D5D5"/>
<path d="M330.362 309H329.354C329.27 309 329.27 308.972 329.27 308.916V301.286C328.808 301.566 328.052 301.846 327.604 301.958C327.534 301.972 327.506 301.944 327.506 301.874V301.062C327.506 301.006 327.506 300.978 327.576 300.964C328.262 300.768 329.032 300.39 329.508 300.082C329.564 300.026 329.648 300.026 329.704 300.026H330.376C330.418 300.026 330.432 300.054 330.432 300.11V308.916C330.432 308.972 330.418 309 330.362 309ZM333.183 309.042V308.188C333.183 308.132 333.197 308.118 333.253 308.104C335.115 307.642 336.333 306.536 336.823 305.248C336.291 305.556 335.717 305.696 335.087 305.696C333.407 305.696 332.245 304.618 332.245 302.924C332.245 301.37 333.379 299.942 335.269 299.942C337.061 299.942 338.279 301.342 338.279 303.554C338.279 306.704 335.885 308.706 333.281 309.14C333.197 309.154 333.183 309.098 333.183 309.042ZM335.367 304.73C336.081 304.73 336.613 304.548 337.061 304.212C337.075 304.044 337.103 303.75 337.103 303.54C337.103 301.986 336.403 300.964 335.213 300.964C334.065 300.964 333.421 301.846 333.421 302.868C333.421 304.184 334.303 304.73 335.367 304.73Z" fill="#909090"/>
<rect x="353.172" y="284" width="1" height="5" rx="0.5" fill="#D5D5D5"/>
<path d="M352.593 309H347.077C347.007 309 346.993 308.958 346.993 308.902V308.272C346.993 308.202 347.007 308.174 347.049 308.132C347.637 307.67 348.659 306.83 349.611 305.892C350.955 304.604 351.277 303.736 351.277 302.84C351.277 301.832 350.731 301.02 349.429 301.02C348.575 301.02 347.959 301.286 347.357 301.636C347.301 301.678 347.259 301.65 347.259 301.594V300.698C347.259 300.628 347.259 300.614 347.315 300.572C347.973 300.194 348.757 299.942 349.653 299.942C351.585 299.942 352.453 301.258 352.453 302.714C352.453 303.792 352.075 304.828 350.787 306.102C349.947 306.97 349.219 307.586 348.701 308.02C349.177 307.978 349.639 307.978 350.899 307.978H352.831C352.901 307.978 352.929 307.992 352.915 308.048L352.705 308.916C352.677 308.986 352.663 309 352.593 309ZM356.931 300.964C355.853 300.964 355.055 302.084 355.055 304.492C355.055 306.606 355.671 308.104 356.987 308.104C358.303 308.104 358.821 306.704 358.821 304.534C358.821 302.154 358.149 300.964 356.931 300.964ZM356.973 309.14C354.789 309.14 353.879 307.068 353.879 304.52C353.879 301.986 354.929 299.942 356.959 299.942C359.451 299.942 359.997 302.532 359.997 304.52C359.997 306.788 359.297 309.14 356.973 309.14Z" fill="#909090"/>
<rect x="373.724" y="284" width="1" height="5" rx="0.5" fill="#D5D5D5"/>
<path d="M374.512 309H368.996C368.926 309 368.912 308.958 368.912 308.902V308.272C368.912 308.202 368.926 308.174 368.968 308.132C369.556 307.67 370.578 306.83 371.53 305.892C372.874 304.604 373.196 303.736 373.196 302.84C373.196 301.832 372.65 301.02 371.348 301.02C370.494 301.02 369.878 301.286 369.276 301.636C369.22 301.678 369.178 301.65 369.178 301.594V300.698C369.178 300.628 369.178 300.614 369.234 300.572C369.892 300.194 370.676 299.942 371.572 299.942C373.504 299.942 374.372 301.258 374.372 302.714C374.372 303.792 373.994 304.828 372.706 306.102C371.866 306.97 371.138 307.586 370.62 308.02C371.096 307.978 371.558 307.978 372.818 307.978H374.75C374.82 307.978 374.848 307.992 374.834 308.048L374.624 308.916C374.596 308.986 374.582 309 374.512 309ZM378.384 309H377.376C377.292 309 377.292 308.972 377.292 308.916V301.286C376.83 301.566 376.074 301.846 375.626 301.958C375.556 301.972 375.528 301.944 375.528 301.874V301.062C375.528 301.006 375.528 300.978 375.598 300.964C376.284 300.768 377.054 300.39 377.53 300.082C377.586 300.026 377.67 300.026 377.726 300.026H378.398C378.44 300.026 378.454 300.054 378.454 300.11V308.916C378.454 308.972 378.44 309 378.384 309Z" fill="#909090"/>
<rect x="394.276" y="284" width="1" height="5" rx="0.5" fill="#D5D5D5"/>
<path d="M393.875 309H388.359C388.289 309 388.275 308.958 388.275 308.902V308.272C388.275 308.202 388.289 308.174 388.331 308.132C388.919 307.67 389.941 306.83 390.893 305.892C392.237 304.604 392.559 303.736 392.559 302.84C392.559 301.832 392.013 301.02 390.711 301.02C389.857 301.02 389.241 301.286 388.639 301.636C388.583 301.678 388.541 301.65 388.541 301.594V300.698C388.541 300.628 388.541 300.614 388.597 300.572C389.255 300.194 390.039 299.942 390.935 299.942C392.867 299.942 393.735 301.258 393.735 302.714C393.735 303.792 393.357 304.828 392.069 306.102C391.229 306.97 390.501 307.586 389.983 308.02C390.459 307.978 390.921 307.978 392.181 307.978H394.113C394.183 307.978 394.211 307.992 394.197 308.048L393.987 308.916C393.959 308.986 393.945 309 393.875 309ZM400.834 309H395.318C395.248 309 395.234 308.958 395.234 308.902V308.272C395.234 308.202 395.248 308.174 395.29 308.132C395.878 307.67 396.9 306.83 397.852 305.892C399.196 304.604 399.518 303.736 399.518 302.84C399.518 301.832 398.972 301.02 397.67 301.02C396.816 301.02 396.2 301.286 395.598 301.636C395.542 301.678 395.5 301.65 395.5 301.594V300.698C395.5 300.628 395.5 300.614 395.556 300.572C396.214 300.194 396.998 299.942 397.894 299.942C399.826 299.942 400.694 301.258 400.694 302.714C400.694 303.792 400.316 304.828 399.028 306.102C398.188 306.97 397.46 307.586 396.942 308.02C397.418 307.978 397.88 307.978 399.14 307.978H401.072C401.142 307.978 401.17 307.992 401.156 308.048L400.946 308.916C400.918 308.986 400.904 309 400.834 309Z" fill="#909090"/>
<rect x="414.828" y="284" width="1" height="5" rx="0.5" fill="#D5D5D5"/>
<path d="M414.399 309H408.883C408.813 309 408.799 308.958 408.799 308.902V308.272C408.799 308.202 408.813 308.174 408.855 308.132C409.443 307.67 410.465 306.83 411.417 305.892C412.761 304.604 413.083 303.736 413.083 302.84C413.083 301.832 412.537 301.02 411.235 301.02C410.381 301.02 409.765 301.286 409.163 301.636C409.107 301.678 409.065 301.65 409.065 301.594V300.698C409.065 300.628 409.065 300.614 409.121 300.572C409.779 300.194 410.563 299.942 411.459 299.942C413.391 299.942 414.259 301.258 414.259 302.714C414.259 303.792 413.881 304.828 412.593 306.102C411.753 306.97 411.025 307.586 410.507 308.02C410.983 307.978 411.445 307.978 412.705 307.978H414.637C414.707 307.978 414.735 307.992 414.721 308.048L414.511 308.916C414.483 308.986 414.469 309 414.399 309ZM417.959 304.828H417.371C417.301 304.828 417.273 304.8 417.273 304.744V303.862C417.273 303.806 417.287 303.764 417.357 303.764H417.875C419.107 303.764 419.863 303.288 419.863 302.392C419.863 301.608 419.345 301.006 418.113 301.006C417.385 301.006 416.769 301.174 416.097 301.566C416.027 301.594 416.013 301.58 416.013 301.524V300.628C416.013 300.572 416.013 300.544 416.069 300.502C416.671 300.166 417.469 299.956 418.309 299.956C420.059 299.956 421.011 300.922 421.011 302.252C421.011 303.372 420.171 303.988 419.541 304.198C420.353 304.38 421.459 305.01 421.459 306.452C421.459 308.174 420.045 309.14 418.155 309.14C417.245 309.14 416.475 308.972 415.887 308.636C415.831 308.608 415.831 308.552 415.831 308.496V307.53C415.831 307.474 415.873 307.446 415.915 307.474C416.643 307.894 417.329 308.09 418.141 308.09C419.653 308.09 420.269 307.334 420.269 306.452C420.269 305.332 419.345 304.828 417.959 304.828Z" fill="#909090"/>
<rect x="435.379" y="284" width="1" height="5" rx="0.5" fill="#D5D5D5"/>
<path d="M435.033 309H429.517C429.447 309 429.433 308.958 429.433 308.902V308.272C429.433 308.202 429.447 308.174 429.489 308.132C430.077 307.67 431.099 306.83 432.051 305.892C433.395 304.604 433.717 303.736 433.717 302.84C433.717 301.832 433.171 301.02 431.869 301.02C431.015 301.02 430.399 301.286 429.797 301.636C429.741 301.678 429.699 301.65 429.699 301.594V300.698C429.699 300.628 429.699 300.614 429.755 300.572C430.413 300.194 431.197 299.942 432.093 299.942C434.025 299.942 434.893 301.258 434.893 302.714C434.893 303.792 434.515 304.828 433.227 306.102C432.387 306.97 431.659 307.586 431.141 308.02C431.617 307.978 432.079 307.978 433.339 307.978H435.271C435.341 307.978 435.369 307.992 435.355 308.048L435.145 308.916C435.117 308.986 435.103 309 435.033 309ZM440.087 306.676H436.013C435.943 306.676 435.929 306.662 435.929 306.62V305.85C435.929 305.78 435.943 305.766 435.971 305.71L439.779 300.166C439.821 300.11 439.849 300.082 439.933 300.082H441.123C441.179 300.082 441.207 300.11 441.207 300.166V305.71H442.341C442.397 305.71 442.411 305.738 442.397 305.794L442.271 306.62C442.257 306.662 442.229 306.676 442.159 306.676H441.207V308.916C441.207 308.972 441.179 309 441.123 309H440.171C440.115 309 440.087 308.958 440.087 308.916V306.676ZM440.087 305.71V303.988C440.087 302.574 440.129 301.622 440.157 301.16H440.143C439.835 301.776 437.595 305.024 437.161 305.71H440.087Z" fill="#909090"/>
<rect x="455.931" y="284" width="1" height="5" rx="0.5" fill="#D5D5D5"/>
<path d="M455.578 309H450.062C449.992 309 449.978 308.958 449.978 308.902V308.272C449.978 308.202 449.992 308.174 450.034 308.132C450.622 307.67 451.644 306.83 452.596 305.892C453.94 304.604 454.262 303.736 454.262 302.84C454.262 301.832 453.716 301.02 452.414 301.02C451.56 301.02 450.944 301.286 450.342 301.636C450.286 301.678 450.244 301.65 450.244 301.594V300.698C450.244 300.628 450.244 300.614 450.3 300.572C450.958 300.194 451.742 299.942 452.638 299.942C454.57 299.942 455.438 301.258 455.438 302.714C455.438 303.792 455.06 304.828 453.772 306.102C452.932 306.97 452.204 307.586 451.686 308.02C452.162 307.978 452.624 307.978 453.884 307.978H455.816C455.886 307.978 455.914 307.992 455.9 308.048L455.69 308.916C455.662 308.986 455.648 309 455.578 309ZM461.828 301.132H458.832C458.678 301.65 458.398 302.798 458.3 303.218C461.198 303.512 462.472 304.534 462.472 306.312C462.472 307.964 461.212 309.14 459.224 309.14C458.3 309.14 457.614 308.972 457.082 308.706C457.04 308.678 457.026 308.636 457.026 308.566V307.6C457.026 307.544 457.068 307.53 457.096 307.544C457.74 307.894 458.426 308.09 459.224 308.09C460.736 308.09 461.296 307.236 461.296 306.396C461.296 305.08 460.176 304.38 457.278 304.142C457.222 304.142 457.18 304.128 457.18 304.058L457.166 303.582C457.222 303.33 458.062 300.236 458.076 300.166C458.104 300.096 458.118 300.082 458.174 300.082H462.136C462.192 300.082 462.22 300.096 462.192 300.166L461.94 301.048C461.926 301.104 461.898 301.132 461.828 301.132Z" fill="#909090"/>
<rect x="476.483" y="284" width="1" height="5" rx="0.5" fill="#D5D5D5"/>
<path d="M475.938 309H470.422C470.352 309 470.338 308.958 470.338 308.902V308.272C470.338 308.202 470.352 308.174 470.394 308.132C470.982 307.67 472.004 306.83 472.956 305.892C474.3 304.604 474.622 303.736 474.622 302.84C474.622 301.832 474.076 301.02 472.774 301.02C471.92 301.02 471.304 301.286 470.702 301.636C470.646 301.678 470.604 301.65 470.604 301.594V300.698C470.604 300.628 470.604 300.614 470.66 300.572C471.318 300.194 472.102 299.942 472.998 299.942C474.93 299.942 475.798 301.258 475.798 302.714C475.798 303.792 475.42 304.828 474.132 306.102C473.292 306.97 472.564 307.586 472.046 308.02C472.522 307.978 472.984 307.978 474.244 307.978H476.176C476.246 307.978 476.274 307.992 476.26 308.048L476.05 308.916C476.022 308.986 476.008 309 475.938 309ZM480.249 304.282C479.493 304.282 478.849 304.576 478.359 304.968C478.345 305.052 478.317 305.36 478.317 305.584C478.317 307.152 479.143 308.104 480.319 308.104C481.481 308.104 482.125 307.25 482.125 306.2C482.125 305.038 481.425 304.296 480.249 304.282ZM482.531 300.026V300.894C482.531 300.936 482.531 300.964 482.475 300.964C480.599 301.3 479.115 302.35 478.583 303.974C479.017 303.652 479.717 303.33 480.571 303.33C482.139 303.33 483.315 304.422 483.315 306.144C483.315 307.684 482.265 309.14 480.277 309.14C478.303 309.14 477.155 307.586 477.155 305.57C477.155 302.532 479.507 300.404 482.475 299.942C482.531 299.942 482.531 299.984 482.531 300.026Z" fill="#909090"/>
<rect x="497.035" y="284" width="1" height="5" rx="0.5" fill="#D5D5D5"/>
<path d="M497.009 309H491.493C491.423 309 491.409 308.958 491.409 308.902V308.272C491.409 308.202 491.423 308.174 491.465 308.132C492.053 307.67 493.075 306.83 494.027 305.892C495.371 304.604 495.693 303.736 495.693 302.84C495.693 301.832 495.147 301.02 493.845 301.02C492.991 301.02 492.375 301.286 491.773 301.636C491.717 301.678 491.675 301.65 491.675 301.594V300.698C491.675 300.628 491.675 300.614 491.731 300.572C492.389 300.194 493.173 299.942 494.069 299.942C496.001 299.942 496.869 301.258 496.869 302.714C496.869 303.792 496.491 304.828 495.203 306.102C494.363 306.97 493.635 307.586 493.117 308.02C493.593 307.978 494.055 307.978 495.315 307.978H497.247C497.317 307.978 497.345 307.992 497.331 308.048L497.121 308.916C497.093 308.986 497.079 309 497.009 309ZM498.15 300.082H503.708C503.75 300.082 503.764 300.096 503.764 300.152V300.81C503.764 300.852 503.75 300.908 503.736 300.978C502.756 303.162 501.188 306.592 500.082 308.93C500.054 308.986 500.026 309 499.984 309H498.878C498.836 309 498.808 308.972 498.822 308.916C500.74 305.01 502.182 301.902 502.546 301.132H497.982C497.926 301.132 497.912 301.104 497.912 301.048L498.066 300.138C498.08 300.096 498.094 300.082 498.15 300.082Z" fill="#909090"/>
<rect x="517.586" y="284" width="1" height="5" rx="0.5" fill="#D5D5D5"/>
<path d="M517.137 309H511.621C511.551 309 511.537 308.958 511.537 308.902V308.272C511.537 308.202 511.551 308.174 511.593 308.132C512.181 307.67 513.203 306.83 514.155 305.892C515.499 304.604 515.821 303.736 515.821 302.84C515.821 301.832 515.275 301.02 513.973 301.02C513.119 301.02 512.503 301.286 511.901 301.636C511.845 301.678 511.803 301.65 511.803 301.594V300.698C511.803 300.628 511.803 300.614 511.859 300.572C512.517 300.194 513.301 299.942 514.197 299.942C516.129 299.942 516.997 301.258 516.997 302.714C516.997 303.792 516.619 304.828 515.331 306.102C514.491 306.97 513.763 307.586 513.245 308.02C513.721 307.978 514.183 307.978 515.443 307.978H517.375C517.445 307.978 517.473 307.992 517.459 308.048L517.249 308.916C517.221 308.986 517.207 309 517.137 309ZM521.349 300.95C520.341 300.95 519.809 301.594 519.809 302.42C519.809 302.98 520.033 303.428 520.397 303.736C520.495 303.82 520.593 303.848 520.719 303.848H522.007C522.119 303.848 522.231 303.82 522.357 303.708C522.637 303.442 522.875 303.078 522.875 302.462C522.875 301.482 522.217 300.95 521.349 300.95ZM521.377 308.132C522.539 308.132 523.141 307.404 523.155 306.494C523.169 305.696 522.763 305.22 522.357 304.968C522.245 304.898 522.175 304.856 522.021 304.856H520.719C520.607 304.856 520.551 304.87 520.439 304.94C519.949 305.206 519.543 305.738 519.543 306.438C519.543 307.502 520.369 308.132 521.377 308.132ZM521.363 299.956C523.099 299.956 523.981 301.132 523.981 302.364C523.981 303.372 523.407 303.988 523.001 304.31C523.617 304.66 524.317 305.346 524.317 306.55C524.317 308.104 523.071 309.14 521.307 309.14C519.459 309.14 518.381 307.978 518.381 306.522C518.381 305.57 518.941 304.814 519.711 304.366C519.165 303.974 518.675 303.316 518.675 302.35C518.675 301.118 519.613 299.956 521.363 299.956Z" fill="#909090"/>
<rect x="538.138" y="284" width="1" height="5" rx="0.5" fill="#D5D5D5"/>
<path d="M537.614 309H532.098C532.028 309 532.014 308.958 532.014 308.902V308.272C532.014 308.202 532.028 308.174 532.07 308.132C532.658 307.67 533.68 306.83 534.632 305.892C535.976 304.604 536.298 303.736 536.298 302.84C536.298 301.832 535.752 301.02 534.45 301.02C533.596 301.02 532.98 301.286 532.378 301.636C532.322 301.678 532.28 301.65 532.28 301.594V300.698C532.28 300.628 532.28 300.614 532.336 300.572C532.994 300.194 533.778 299.942 534.674 299.942C536.606 299.942 537.474 301.258 537.474 302.714C537.474 303.792 537.096 304.828 535.808 306.102C534.968 306.97 534.24 307.586 533.722 308.02C534.198 307.978 534.66 307.978 535.92 307.978H537.852C537.922 307.978 537.95 307.992 537.936 308.048L537.726 308.916C537.698 308.986 537.684 309 537.614 309ZM539.795 309.042V308.188C539.795 308.132 539.809 308.118 539.865 308.104C541.727 307.642 542.945 306.536 543.435 305.248C542.903 305.556 542.329 305.696 541.699 305.696C540.019 305.696 538.857 304.618 538.857 302.924C538.857 301.37 539.991 299.942 541.881 299.942C543.673 299.942 544.891 301.342 544.891 303.554C544.891 306.704 542.497 308.706 539.893 309.14C539.809 309.154 539.795 309.098 539.795 309.042ZM541.979 304.73C542.693 304.73 543.225 304.548 543.673 304.212C543.687 304.044 543.715 303.75 543.715 303.54C543.715 301.986 543.015 300.964 541.825 300.964C540.677 300.964 540.033 301.846 540.033 302.868C540.033 304.184 540.915 304.73 541.979 304.73Z" fill="#909090"/>
<rect x="558.689" y="284" width="1" height="5" rx="0.5" fill="#D5D5D5"/>
<path d="M559.999 309H558.991C558.907 309 558.907 308.972 558.907 308.916V301.286C558.445 301.566 557.689 301.846 557.241 301.958C557.171 301.972 557.143 301.944 557.143 301.874V301.062C557.143 301.006 557.143 300.978 557.213 300.964C557.899 300.768 558.669 300.39 559.145 300.082C559.201 300.026 559.285 300.026 559.341 300.026H560.013C560.055 300.026 560.069 300.054 560.069 300.11V308.916C560.069 308.972 560.055 309 559.999 309Z" fill="#909090"/>
<rect x="579.241" y="284" width="1" height="5" rx="0.5" fill="#D5D5D5"/>
<path d="M582.319 309H576.803C576.733 309 576.719 308.958 576.719 308.902V308.272C576.719 308.202 576.733 308.174 576.775 308.132C577.363 307.67 578.385 306.83 579.337 305.892C580.681 304.604 581.003 303.736 581.003 302.84C581.003 301.832 580.457 301.02 579.155 301.02C578.301 301.02 577.685 301.286 577.083 301.636C577.027 301.678 576.985 301.65 576.985 301.594V300.698C576.985 300.628 576.985 300.614 577.041 300.572C577.699 300.194 578.483 299.942 579.379 299.942C581.311 299.942 582.179 301.258 582.179 302.714C582.179 303.792 581.801 304.828 580.513 306.102C579.673 306.97 578.945 307.586 578.427 308.02C578.903 307.978 579.365 307.978 580.625 307.978H582.557C582.627 307.978 582.655 307.992 582.641 308.048L582.431 308.916C582.403 308.986 582.389 309 582.319 309Z" fill="#909090"/>
<rect x="599.793" y="284" width="1" height="5" rx="0.5" fill="#D5D5D5"/>
<path d="M599.506 304.828H598.918C598.848 304.828 598.82 304.8 598.82 304.744V303.862C598.82 303.806 598.834 303.764 598.904 303.764H599.422C600.654 303.764 601.41 303.288 601.41 302.392C601.41 301.608 600.892 301.006 599.66 301.006C598.932 301.006 598.316 301.174 597.644 301.566C597.574 301.594 597.56 301.58 597.56 301.524V300.628C597.56 300.572 597.56 300.544 597.616 300.502C598.218 300.166 599.016 299.956 599.856 299.956C601.606 299.956 602.558 300.922 602.558 302.252C602.558 303.372 601.718 303.988 601.088 304.198C601.9 304.38 603.006 305.01 603.006 306.452C603.006 308.174 601.592 309.14 599.702 309.14C598.792 309.14 598.022 308.972 597.434 308.636C597.378 308.608 597.378 308.552 597.378 308.496V307.53C597.378 307.474 597.42 307.446 597.462 307.474C598.19 307.894 598.876 308.09 599.688 308.09C601.2 308.09 601.816 307.334 601.816 306.452C601.816 305.332 600.892 304.828 599.506 304.828Z" fill="#909090"/>
<rect x="620.345" y="284" width="1" height="5" rx="0.5" fill="#D5D5D5"/>
<path d="M621.839 306.676H617.765C617.695 306.676 617.681 306.662 617.681 306.62V305.85C617.681 305.78 617.695 305.766 617.723 305.71L621.531 300.166C621.573 300.11 621.601 300.082 621.685 300.082H622.875C622.931 300.082 622.959 300.11 622.959 300.166V305.71H624.093C624.149 305.71 624.163 305.738 624.149 305.794L624.023 306.62C624.009 306.662 623.981 306.676 623.911 306.676H622.959V308.916C622.959 308.972 622.931 309 622.875 309H621.923C621.867 309 621.839 308.958 621.839 308.916V306.676ZM621.839 305.71V303.988C621.839 302.574 621.881 301.622 621.909 301.16H621.895C621.587 301.776 619.347 305.024 618.913 305.71H621.839Z" fill="#909090"/>
<rect x="640.896" y="284" width="1" height="5" rx="0.5" fill="#D5D5D5"/>
<path d="M643.423 301.132H640.427C640.273 301.65 639.993 302.798 639.895 303.218C642.793 303.512 644.067 304.534 644.067 306.312C644.067 307.964 642.807 309.14 640.819 309.14C639.895 309.14 639.209 308.972 638.677 308.706C638.635 308.678 638.621 308.636 638.621 308.566V307.6C638.621 307.544 638.663 307.53 638.691 307.544C639.335 307.894 640.021 308.09 640.819 308.09C642.331 308.09 642.891 307.236 642.891 306.396C642.891 305.08 641.771 304.38 638.873 304.142C638.817 304.142 638.775 304.128 638.775 304.058L638.761 303.582C638.817 303.33 639.657 300.236 639.671 300.166C639.699 300.096 639.713 300.082 639.769 300.082H643.731C643.787 300.082 643.815 300.096 643.787 300.166L643.535 301.048C643.521 301.104 643.493 301.132 643.423 301.132Z" fill="#909090"/>
<rect x="661.448" y="284" width="1" height="5" rx="0.5" fill="#D5D5D5"/>
<path d="M661.981 304.282C661.225 304.282 660.581 304.576 660.091 304.968C660.077 305.052 660.049 305.36 660.049 305.584C660.049 307.152 660.875 308.104 662.051 308.104C663.213 308.104 663.857 307.25 663.857 306.2C663.857 305.038 663.157 304.296 661.981 304.282ZM664.263 300.026V300.894C664.263 300.936 664.263 300.964 664.207 300.964C662.331 301.3 660.847 302.35 660.315 303.974C660.749 303.652 661.449 303.33 662.303 303.33C663.871 303.33 665.047 304.422 665.047 306.144C665.047 307.684 663.997 309.14 662.009 309.14C660.035 309.14 658.887 307.586 658.887 305.57C658.887 302.532 661.239 300.404 664.207 299.942C664.263 299.942 664.263 299.984 664.263 300.026Z" fill="#909090"/>
<rect x="682" y="284" width="1" height="5" rx="0.5" fill="#D5D5D5"/>
<path d="M679.752 300.082H685.31C685.352 300.082 685.366 300.096 685.366 300.152V300.81C685.366 300.852 685.352 300.908 685.338 300.978C684.358 303.162 682.79 306.592 681.684 308.93C681.656 308.986 681.628 309 681.586 309H680.48C680.438 309 680.41 308.972 680.424 308.916C682.342 305.01 683.784 301.902 684.148 301.132H679.584C679.528 301.132 679.514 301.104 679.514 301.048L679.668 300.138C679.682 300.096 679.696 300.082 679.752 300.082Z" fill="#909090"/>
<path d="M89.1558 332.29V335.888C89.1558 335.972 89.1278 336 89.0438 336H87.5598C87.4898 336 87.4618 335.958 87.4618 335.888V326.9C87.4618 326.83 87.4898 326.802 87.5738 326.802H92.9778C93.0618 326.802 93.0898 326.83 93.1038 326.914L93.2438 328.216C93.2578 328.3 93.2158 328.328 93.1318 328.328H89.1558V330.778H92.7258C92.7958 330.778 92.8378 330.792 92.8378 330.876V332.192C92.8378 332.262 92.7958 332.29 92.7258 332.29H89.1558ZM98.3828 332.934H95.5408C95.5828 333.914 96.2268 334.698 97.6548 334.698C98.2848 334.698 98.8588 334.586 99.3908 334.362C99.4328 334.334 99.4748 334.348 99.4748 334.418V335.58C99.4748 335.664 99.4468 335.706 99.3908 335.734C98.8588 335.986 98.2428 336.14 97.2908 336.14C94.7428 336.14 93.8328 334.348 93.8328 332.626C93.8328 330.68 95.0088 328.958 97.1228 328.958C99.1948 328.958 99.9928 330.582 99.9928 331.912C99.9928 332.304 99.9788 332.626 99.9368 332.78C99.9228 332.836 99.8948 332.864 99.8248 332.878C99.6288 332.92 99.0688 332.934 98.3828 332.934ZM95.5408 331.73H97.6268C98.1588 331.73 98.3408 331.73 98.3968 331.716C98.3968 331.674 98.3968 331.618 98.3968 331.604C98.3968 331.198 98.1168 330.302 97.0528 330.302C96.0868 330.302 95.6528 331.044 95.5408 331.73ZM101.351 326.032H102.821C102.919 326.032 102.947 326.046 102.947 326.144L102.961 329.154C103.339 329.028 103.773 328.958 104.235 328.958C106.251 328.958 107.539 330.386 107.539 332.262C107.539 334.852 105.523 336.14 103.451 336.14C102.723 336.14 102.023 336.042 101.351 335.832C101.295 335.818 101.253 335.748 101.253 335.706V326.13C101.253 326.06 101.295 326.032 101.351 326.032ZM105.817 332.43C105.817 331.1 105.047 330.4 103.941 330.4C103.451 330.4 103.185 330.47 102.961 330.554V334.642C103.157 334.698 103.367 334.712 103.605 334.712C104.753 334.712 105.817 333.984 105.817 332.43Z" fill="#222222"/>
<path d="M335.008 326.886C335.022 326.802 335.05 326.802 335.12 326.802H337.36C337.444 326.802 337.472 326.83 337.5 326.9C337.92 328.314 339.138 332.472 339.418 333.774H339.432C339.726 332.584 341.112 328.342 341.546 326.9C341.574 326.844 341.588 326.802 341.672 326.802H343.856C343.926 326.802 343.954 326.816 343.968 326.886L344.346 335.888C344.36 335.972 344.318 336 344.248 336H342.694C342.624 336 342.582 335.986 342.582 335.902C342.512 332.92 342.484 328.888 342.498 328.006H342.484C342.162 329.35 340.72 334.026 340.16 335.888C340.146 335.986 340.09 336 340.034 336H338.634C338.536 336 338.508 335.986 338.494 335.902C337.892 333.774 336.772 329.7 336.38 327.992H336.352C336.338 329.406 336.226 332.962 336.086 335.902C336.086 335.986 336.058 336 335.974 336H334.574C334.49 336 334.462 335.986 334.476 335.888L335.008 326.886ZM349.612 334.642V332.92C349.402 332.892 349.164 332.878 348.842 332.878C347.736 332.878 347.245 333.242 347.245 333.844C347.245 334.362 347.61 334.81 348.618 334.81C348.982 334.81 349.303 334.768 349.612 334.642ZM351.25 331.73V334.572C351.25 334.88 351.25 335.16 351.278 335.454C351.278 335.482 351.278 335.496 351.25 335.51C350.102 336 349.29 336.14 348.338 336.14C346.812 336.14 345.594 335.426 345.594 333.844C345.594 332.36 346.924 331.618 348.744 331.618C349.164 331.618 349.486 331.632 349.612 331.646V331.478C349.612 331.156 349.43 330.428 348.198 330.428C347.498 330.428 346.882 330.568 346.364 330.82C346.322 330.834 346.252 330.82 346.252 330.736V329.518C346.252 329.448 346.266 329.42 346.336 329.378C346.938 329.098 347.708 328.958 348.464 328.958C350.41 328.958 351.25 330.176 351.25 331.73ZM353.029 329.098H354.345C354.429 329.098 354.471 329.126 354.499 329.21C354.569 329.392 354.625 329.742 354.639 330.05C355.115 329.462 355.913 328.958 356.879 328.958C356.963 328.958 356.991 328.972 356.991 329.056V330.54C356.991 330.61 356.963 330.638 356.865 330.638C355.871 330.61 355.045 330.96 354.723 331.38V335.888C354.723 335.972 354.681 336 354.597 336H353.141C353.043 336 353.015 335.958 353.015 335.888V331.058C353.015 330.456 353.001 329.644 352.945 329.182C352.945 329.112 352.959 329.098 353.029 329.098Z" fill="#222222"/>
<path d="M13.46 187.687H14.706C14.79 187.687 14.86 187.715 14.888 187.785C15.056 188.247 15.14 188.933 15.14 189.717C15.14 192.307 13.614 194.519 10.422 194.519C7.608 194.519 5.662 192.559 5.662 189.507C5.662 188.597 5.746 188.037 5.9 187.687C5.928 187.631 5.97 187.603 6.054 187.603H7.384C7.496 187.603 7.496 187.659 7.468 187.715C7.258 188.163 7.16 188.807 7.16 189.535C7.16 191.509 8.42 192.769 10.38 192.769C12.802 192.769 13.628 190.977 13.628 189.507C13.628 188.821 13.572 188.303 13.39 187.785C13.362 187.729 13.376 187.687 13.46 187.687ZM7.958 183.462C7.958 181.306 9.596 180.13 11.514 180.13C13.684 180.13 15.14 181.516 15.14 183.49C15.14 185.828 13.334 186.864 11.556 186.864C9.568 186.864 7.958 185.562 7.958 183.462ZM9.372 183.546C9.372 184.484 10.198 185.156 11.528 185.156C12.816 185.156 13.712 184.526 13.712 183.462C13.712 182.594 12.998 181.852 11.556 181.852C10.394 181.852 9.372 182.356 9.372 183.546ZM14.888 178.815H9.708C9.232 178.815 8.476 178.843 8.196 178.871C8.126 178.871 8.098 178.857 8.098 178.773V177.499C8.098 177.401 8.126 177.359 8.196 177.331C8.322 177.289 8.504 177.261 8.728 177.233C8.224 176.631 7.958 175.959 7.958 175.203C7.958 174.153 8.49 172.865 10.73 172.865H14.874C14.972 172.865 15 172.907 15 172.977V174.433C15 174.517 14.958 174.559 14.874 174.559H10.884C9.96 174.559 9.428 174.951 9.428 175.763C9.428 176.323 9.638 176.785 10.002 177.121H14.888C14.958 177.121 15 177.163 15 177.233V178.703C15 178.787 14.958 178.815 14.888 178.815ZM15 167.952V169.562C15 169.646 14.958 169.674 14.916 169.702C13.572 170.164 9.596 171.522 8.196 172.012C8.14 172.026 8.098 172.012 8.098 171.928V170.332C8.098 170.262 8.112 170.234 8.182 170.206C11.458 169.198 12.802 168.834 13.418 168.694V168.666C12.802 168.512 11.472 168.092 8.182 167.028C8.112 167.014 8.098 166.972 8.098 166.916V165.502C8.098 165.46 8.126 165.404 8.21 165.432C9.68 165.964 13.6 167.322 14.902 167.798C14.972 167.826 15 167.868 15 167.952ZM11.934 160.316V163.158C12.914 163.116 13.698 162.472 13.698 161.044C13.698 160.414 13.586 159.84 13.362 159.308C13.334 159.266 13.348 159.224 13.418 159.224H14.58C14.664 159.224 14.706 159.252 14.734 159.308C14.986 159.84 15.14 160.456 15.14 161.408C15.14 163.956 13.348 164.866 11.626 164.866C9.68 164.866 7.958 163.69 7.958 161.576C7.958 159.504 9.582 158.706 10.912 158.706C11.304 158.706 11.626 158.72 11.78 158.762C11.836 158.776 11.864 158.804 11.878 158.874C11.92 159.07 11.934 159.63 11.934 160.316ZM10.73 163.158V161.072C10.73 160.54 10.73 160.358 10.716 160.302C10.674 160.302 10.618 160.302 10.604 160.302C10.198 160.302 9.302 160.582 9.302 161.646C9.302 162.612 10.044 163.046 10.73 163.158ZM8.098 157.391V156.075C8.098 155.991 8.126 155.949 8.21 155.921C8.392 155.851 8.742 155.795 9.05 155.781C8.462 155.305 7.958 154.507 7.958 153.541C7.958 153.457 7.972 153.429 8.056 153.429H9.54C9.61 153.429 9.638 153.457 9.638 153.555C9.61 154.549 9.96 155.375 10.38 155.697H14.888C14.972 155.697 15 155.739 15 155.823V157.279C15 157.377 14.958 157.405 14.888 157.405H10.058C9.456 157.405 8.644 157.419 8.182 157.475C8.112 157.475 8.098 157.461 8.098 157.391ZM9.722 148.36C9.484 148.794 9.316 149.494 9.316 150.11C9.316 150.852 9.624 151.104 9.918 151.104C10.226 151.104 10.436 150.894 10.786 149.998C11.374 148.402 12.004 147.856 12.998 147.856C14.314 147.856 15.14 148.892 15.14 150.614C15.14 151.44 14.986 152.168 14.748 152.588C14.706 152.658 14.678 152.686 14.594 152.686H13.264C13.194 152.686 13.166 152.63 13.194 152.574C13.586 151.972 13.754 151.202 13.754 150.572C13.754 149.844 13.502 149.494 13.138 149.494C12.788 149.494 12.564 149.76 12.214 150.628C11.654 152.154 11.024 152.7 10.016 152.7C8.952 152.7 7.958 151.832 7.958 150.082C7.958 149.27 8.07 148.654 8.238 148.318C8.28 148.248 8.336 148.234 8.406 148.234H9.638C9.708 148.234 9.75 148.276 9.722 148.36ZM14.874 146.604H8.196C8.126 146.604 8.098 146.562 8.098 146.492V145.008C8.098 144.924 8.112 144.896 8.196 144.896H14.888C14.972 144.896 15 144.924 15 145.022V146.464C15 146.562 14.958 146.604 14.874 146.604ZM7.16 145.75C7.16 146.324 6.768 146.702 6.194 146.702C5.62 146.702 5.228 146.296 5.228 145.736C5.228 145.134 5.634 144.784 6.194 144.784C6.768 144.784 7.16 145.162 7.16 145.75ZM7.958 140.164C7.958 138.008 9.596 136.832 11.514 136.832C13.684 136.832 15.14 138.218 15.14 140.192C15.14 142.53 13.334 143.566 11.556 143.566C9.568 143.566 7.958 142.264 7.958 140.164ZM9.372 140.248C9.372 141.186 10.198 141.858 11.528 141.858C12.816 141.858 13.712 141.228 13.712 140.164C13.712 139.296 12.998 138.554 11.556 138.554C10.394 138.554 9.372 139.058 9.372 140.248ZM14.888 135.516H9.708C9.232 135.516 8.476 135.544 8.196 135.572C8.126 135.572 8.098 135.558 8.098 135.474V134.2C8.098 134.102 8.126 134.06 8.196 134.032C8.322 133.99 8.504 133.962 8.728 133.934C8.224 133.332 7.958 132.66 7.958 131.904C7.958 130.854 8.49 129.566 10.73 129.566H14.874C14.972 129.566 15 129.608 15 129.678V131.134C15 131.218 14.958 131.26 14.874 131.26H10.884C9.96 131.26 9.428 131.652 9.428 132.464C9.428 133.024 9.638 133.486 10.002 133.822H14.888C14.958 133.822 15 133.864 15 133.934V135.404C15 135.488 14.958 135.516 14.888 135.516ZM9.722 123.873C9.484 124.307 9.316 125.007 9.316 125.623C9.316 126.365 9.624 126.617 9.918 126.617C10.226 126.617 10.436 126.407 10.786 125.511C11.374 123.915 12.004 123.369 12.998 123.369C14.314 123.369 15.14 124.405 15.14 126.127C15.14 126.953 14.986 127.681 14.748 128.101C14.706 128.171 14.678 128.199 14.594 128.199H13.264C13.194 128.199 13.166 128.143 13.194 128.087C13.586 127.485 13.754 126.715 13.754 126.085C13.754 125.357 13.502 125.007 13.138 125.007C12.788 125.007 12.564 125.273 12.214 126.141C11.654 127.667 11.024 128.213 10.016 128.213C8.952 128.213 7.958 127.345 7.958 125.595C7.958 124.783 8.07 124.167 8.238 123.831C8.28 123.761 8.336 123.747 8.406 123.747H9.638C9.708 123.747 9.75 123.789 9.722 123.873Z" fill="#222222"/>
<path d="M47.3508 41H46.3428C46.2588 41 46.2588 40.972 46.2588 40.916V33.286C45.7968 33.566 45.0408 33.846 44.5928 33.958C44.5228 33.972 44.4948 33.944 44.4948 33.874V33.062C44.4948 33.006 44.4948 32.978 44.5648 32.964C45.2508 32.768 46.0208 32.39 46.4968 32.082C46.5528 32.026 46.6368 32.026 46.6928 32.026H47.3648C47.4068 32.026 47.4208 32.054 47.4208 32.11V40.916C47.4208 40.972 47.4068 41 47.3508 41ZM52.4652 32.964C51.3872 32.964 50.5892 34.084 50.5892 36.492C50.5892 38.606 51.2052 40.104 52.5212 40.104C53.8372 40.104 54.3552 38.704 54.3552 36.534C54.3552 34.154 53.6832 32.964 52.4652 32.964ZM52.5072 41.14C50.3232 41.14 49.4132 39.068 49.4132 36.52C49.4132 33.986 50.4632 31.942 52.4932 31.942C54.9852 31.942 55.5312 34.532 55.5312 36.52C55.5312 38.788 54.8312 41.14 52.5072 41.14ZM62.788 31.746H63.894C63.992 31.746 64.006 31.816 63.964 31.872L59.862 36.17C59.834 36.198 59.834 36.226 59.862 36.268L64.286 40.874C64.328 40.93 64.3 41 64.23 41H62.998C62.928 41 62.886 40.986 62.816 40.916L58.518 36.45C58.434 36.366 58.434 36.31 58.518 36.24L62.648 31.816C62.69 31.774 62.718 31.746 62.788 31.746ZM58.448 31.844V40.902C58.448 40.972 58.42 41 58.364 41H57.384C57.314 41 57.286 40.972 57.286 40.888V31.83C57.286 31.774 57.3 31.746 57.37 31.746H58.364C58.42 31.746 58.448 31.774 58.448 31.844Z" fill="#909090"/>
<rect x="70" y="35" width="5" height="1" rx="0.5" fill="#D5D5D5"/>
<rect x="73" y="35" width="626" height="1" rx="0.5" fill="#D5D5D5"/>
<path d="M52.5993 82.5516C51.5913 82.5516 51.0593 83.1956 51.0593 84.0216C51.0593 84.5816 51.2833 85.0296 51.6473 85.3376C51.7453 85.4216 51.8433 85.4496 51.9693 85.4496H53.2573C53.3693 85.4496 53.4813 85.4216 53.6073 85.3096C53.8873 85.0436 54.1253 84.6796 54.1253 84.0636C54.1253 83.0836 53.4673 82.5516 52.5993 82.5516ZM52.6273 89.7336C53.7893 89.7336 54.3913 89.0056 54.4053 88.0956C54.4193 87.2976 54.0133 86.8216 53.6073 86.5696C53.4953 86.4996 53.4253 86.4576 53.2713 86.4576H51.9693C51.8573 86.4576 51.8013 86.4716 51.6893 86.5416C51.1993 86.8076 50.7933 87.3396 50.7933 88.0396C50.7933 89.1036 51.6193 89.7336 52.6273 89.7336ZM52.6133 81.5576C54.3493 81.5576 55.2313 82.7336 55.2313 83.9656C55.2313 84.9736 54.6573 85.5896 54.2513 85.9116C54.8673 86.2616 55.5673 86.9476 55.5673 88.1516C55.5673 89.7056 54.3213 90.7416 52.5573 90.7416C50.7093 90.7416 49.6313 89.5796 49.6313 88.1236C49.6313 87.1716 50.1913 86.4156 50.9613 85.9676C50.4153 85.5756 49.9253 84.9176 49.9253 83.9516C49.9253 82.7196 50.8633 81.5576 52.6133 81.5576ZM62.788 81.3476H63.894C63.992 81.3476 64.006 81.4176 63.964 81.4736L59.862 85.7716C59.834 85.7996 59.834 85.8276 59.862 85.8696L64.286 90.4756C64.328 90.5316 64.3 90.6016 64.23 90.6016H62.998C62.928 90.6016 62.886 90.5876 62.816 90.5176L58.518 86.0516C58.434 85.9676 58.434 85.9116 58.518 85.8416L62.648 81.4176C62.69 81.3756 62.718 81.3476 62.788 81.3476ZM58.448 81.4456V90.5036C58.448 90.5736 58.42 90.6016 58.364 90.6016H57.384C57.314 90.6016 57.286 90.5736 57.286 90.4896V81.4316C57.286 81.3756 57.3 81.3476 57.37 81.3476H58.364C58.42 81.3476 58.448 81.3756 58.448 81.4456Z" fill="#909090"/>
<rect x="70" y="84.6016" width="5" height="1" rx="0.5" fill="#D5D5D5"/>
<rect x="73" y="84.6016" width="626" height="1" rx="0.5" fill="#D5D5D5"/>
<path d="M52.5072 135.481C51.7512 135.481 51.1072 135.775 50.6172 136.167C50.6032 136.251 50.5752 136.559 50.5752 136.783C50.5752 138.351 51.4012 139.303 52.5772 139.303C53.7392 139.303 54.3832 138.449 54.3832 137.399C54.3832 136.237 53.6832 135.495 52.5072 135.481ZM54.7892 131.225V132.093C54.7892 132.135 54.7892 132.163 54.7332 132.163C52.8572 132.499 51.3732 133.549 50.8412 135.173C51.2752 134.851 51.9752 134.529 52.8292 134.529C54.3972 134.529 55.5732 135.621 55.5732 137.343C55.5732 138.883 54.5232 140.339 52.5352 140.339C50.5612 140.339 49.4132 138.785 49.4132 136.769C49.4132 133.731 51.7652 131.603 54.7332 131.141C54.7892 131.141 54.7892 131.183 54.7892 131.225ZM62.788 130.945H63.894C63.992 130.945 64.006 131.015 63.964 131.071L59.862 135.369C59.834 135.397 59.834 135.425 59.862 135.467L64.286 140.073C64.328 140.129 64.3 140.199 64.23 140.199H62.998C62.928 140.199 62.886 140.185 62.816 140.115L58.518 135.649C58.434 135.565 58.434 135.509 58.518 135.439L62.648 131.015C62.69 130.973 62.718 130.945 62.788 130.945ZM58.448 131.043V140.101C58.448 140.171 58.42 140.199 58.364 140.199H57.384C57.314 140.199 57.286 140.171 57.286 140.087V131.029C57.286 130.973 57.3 130.945 57.37 130.945H58.364C58.42 130.945 58.448 130.973 58.448 131.043Z" fill="#909090"/>
<rect x="70" y="134.199" width="5" height="1" rx="0.5" fill="#D5D5D5"/>
<rect x="73" y="134.199" width="626" height="1" rx="0.5" fill="#D5D5D5"/>
<path d="M53.6467 187.477H49.5727C49.5027 187.477 49.4887 187.463 49.4887 187.421V186.651C49.4887 186.581 49.5027 186.567 49.5307 186.511L53.3387 180.967C53.3807 180.911 53.4087 180.883 53.4927 180.883H54.6827C54.7387 180.883 54.7667 180.911 54.7667 180.967V186.511H55.9007C55.9567 186.511 55.9707 186.539 55.9567 186.595L55.8307 187.421C55.8167 187.463 55.7887 187.477 55.7187 187.477H54.7667V189.717C54.7667 189.773 54.7387 189.801 54.6827 189.801H53.7307C53.6747 189.801 53.6467 189.759 53.6467 189.717V187.477ZM53.6467 186.511V184.789C53.6467 183.375 53.6887 182.423 53.7167 181.961H53.7027C53.3947 182.577 51.1547 185.825 50.7207 186.511H53.6467ZM62.788 180.547H63.894C63.992 180.547 64.006 180.617 63.964 180.673L59.862 184.971C59.834 184.999 59.834 185.027 59.862 185.069L64.286 189.675C64.328 189.731 64.3 189.801 64.23 189.801H62.998C62.928 189.801 62.886 189.787 62.816 189.717L58.518 185.251C58.434 185.167 58.434 185.111 58.518 185.041L62.648 180.617C62.69 180.575 62.718 180.547 62.788 180.547ZM58.448 180.645V189.703C58.448 189.773 58.42 189.801 58.364 189.801H57.384C57.314 189.801 57.286 189.773 57.286 189.689V180.631C57.286 180.575 57.3 180.547 57.37 180.547H58.364C58.42 180.547 58.448 180.575 58.448 180.645Z" fill="#909090"/>
<rect x="70" y="183.801" width="5" height="1" rx="0.5" fill="#D5D5D5"/>
<rect x="73" y="183.801" width="626" height="1" rx="0.5" fill="#D5D5D5"/>
<path d="M55.4425 239.398H49.9265C49.8565 239.398 49.8425 239.356 49.8425 239.3V238.67C49.8425 238.6 49.8565 238.572 49.8985 238.53C50.4865 238.068 51.5085 237.228 52.4605 236.29C53.8045 235.002 54.1265 234.134 54.1265 233.238C54.1265 232.23 53.5805 231.418 52.2785 231.418C51.4245 231.418 50.8085 231.684 50.2065 232.034C50.1505 232.076 50.1085 232.048 50.1085 231.992V231.096C50.1085 231.026 50.1085 231.012 50.1645 230.97C50.8225 230.592 51.6065 230.34 52.5025 230.34C54.4345 230.34 55.3025 231.656 55.3025 233.112C55.3025 234.19 54.9245 235.226 53.6365 236.5C52.7965 237.368 52.0685 237.984 51.5505 238.418C52.0265 238.376 52.4885 238.376 53.7485 238.376H55.6805C55.7505 238.376 55.7785 238.39 55.7645 238.446L55.5545 239.314C55.5265 239.384 55.5125 239.398 55.4425 239.398ZM62.788 230.144H63.894C63.992 230.144 64.006 230.214 63.964 230.27L59.862 234.568C59.834 234.596 59.834 234.624 59.862 234.666L64.286 239.272C64.328 239.328 64.3 239.398 64.23 239.398H62.998C62.928 239.398 62.886 239.384 62.816 239.314L58.518 234.848C58.434 234.764 58.434 234.708 58.518 234.638L62.648 230.214C62.69 230.172 62.718 230.144 62.788 230.144ZM58.448 230.242V239.3C58.448 239.37 58.42 239.398 58.364 239.398H57.384C57.314 239.398 57.286 239.37 57.286 239.286V230.228C57.286 230.172 57.3 230.144 57.37 230.144H58.364C58.42 230.144 58.448 230.172 58.448 230.242Z" fill="#909090"/>
<rect x="70" y="233.398" width="5" height="1" rx="0.5" fill="#D5D5D5"/>
<rect x="73" y="233.398" width="626" height="1" rx="0.5" fill="#D5D5D5"/>
<g clip-path="url(#clip0_11726_332958)">
<path d="M60.2992 280.964C59.2212 280.964 58.4232 282.084 58.4232 284.492C58.4232 286.606 59.0392 288.104 60.3552 288.104C61.6712 288.104 62.1892 286.704 62.1892 284.534C62.1892 282.154 61.5172 280.964 60.2992 280.964ZM60.3412 289.14C58.1572 289.14 57.2472 287.068 57.2472 284.52C57.2472 281.986 58.2972 279.942 60.3272 279.942C62.8192 279.942 63.3652 282.532 63.3652 284.52C63.3652 286.788 62.6652 289.14 60.3412 289.14Z" fill="#909090"/>
</g>
<rect x="70" y="282.5" width="629" height="2" rx="1" fill="#222222"/>
<path d="M79 142.874L85.8876 139.898L92.7752 133.203L99.6628 131.715L106.55 132.459L113.438 140.649L120.326 139.161L127.213 131.722L134.101 132.466L140.988 133.954L147.876 135.442L154.764 148.833L161.651 145.112L168.539 133.952L175.426 131.72H182.314L189.202 137.671L196.089 138.415L202.977 148.087L209.864 158.499L216.752 165.194L223.64 159.987L230.527 162.963L237.415 167.428L244.302 169.66L251.19 177.099L258.078 165.939L264.965 166.683L271.853 168.172L278.741 166.683L285.628 167.428L292.516 168.172L299.403 162.22L306.291 153.293L313.179 150.317L320.066 141.389L326.954 135.438H333.841L340.729 133.206L347.617 132.461L354.504 128.741L361.392 130.973L368.279 136.925L375.167 136.18L382.055 138.413L388.942 151.061L395.83 133.206L402.717 134.694L409.605 139.157L416.493 153.291L423.38 195.695L430.268 184.536L437.155 140.642L444.043 138.41L450.931 140.642H457.818L464.706 147.337L471.593 144.361L478.481 148.824L485.369 145.848L492.256 144.36L499.144 145.104L506.031 144.36L512.919 145.104L519.81 35L526.697 119.067L533.585 142.129L540.473 144.361L547.36 150.312L554.248 137.664L561.136 87.0756L568.023 135.432L574.911 154.034L581.798 159.985L588.686 136.923L595.574 156.266L602.461 161.474L609.349 169.664L616.236 168.92L623.124 165.199L630.012 167.432L636.899 165.944L643.787 162.223L650.674 161.479L657.562 133.952L664.45 142.143H671.337L678.225 143.631L685.112 154.042L692 149.579" stroke="#30A7FE" stroke-width="2.5" stroke-linecap="round" stroke-linejoin="round"/>
<path d="M79 211.563L85.8876 207.503L92.7753 203.443H106.551L113.438 211.557H120.326L127.213 207.497H134.101L140.989 203.437L147.876 211.55L154.764 219.664L161.652 215.604L168.539 203.43L175.427 195.316L182.315 203.43L189.202 219.664H196.09L202.978 227.777L209.865 235.891H216.753L223.64 231.831L230.528 235.891L237.416 231.831L244.303 244.004L251.191 252.118L258.079 244.004H292.517L299.404 235.891L306.292 227.777H313.18L320.067 223.717H326.955L333.843 219.657H347.618L354.506 207.484L361.393 215.597H368.281L375.169 211.537L382.056 215.597L388.944 219.657L395.831 211.544L402.719 215.604L409.607 219.664L416.494 231.837L423.382 260.271L430.27 252.158L437.157 219.697L444.045 215.637H457.82L464.708 227.81L471.596 231.871L478.483 235.931H492.258L499.146 231.871L506.034 235.931H512.921L519.809 231.871L526.697 227.81L533.584 231.871L540.472 235.931L547.36 239.991L554.247 231.877L561.135 227.817L568.022 235.931L574.91 244.044L581.798 239.984H588.685L595.573 244.044L602.461 248.104L609.348 252.164H616.236L623.124 248.104L630.011 252.164H643.786L650.674 248.104L657.562 244.044L664.449 239.984L671.337 235.924L678.225 239.984L685.112 252.158L692 244.044" stroke="#DE3D82" stroke-width="2.5" stroke-linecap="round" stroke-linejoin="round"/>
<path d="M79 136.659L85.8876 130.39H92.7753L99.6629 136.659L106.551 130.39L113.438 142.918H120.326L127.213 136.649H140.989L147.876 142.918L154.764 155.446L161.652 149.177L168.539 136.649L175.427 142.918L182.315 155.446L189.202 161.715L196.09 155.446L202.978 167.974L209.865 180.501L216.753 193.03L223.64 186.76L230.528 180.491L237.416 186.76L244.303 193.03L251.191 199.298L258.079 186.771L264.966 180.501L271.854 186.771H285.629L292.517 180.501L299.404 174.233L306.292 167.963H313.18L320.067 161.694L326.955 155.425L333.843 161.694L340.73 155.425L347.618 149.156H354.506L361.393 130.359L368.281 149.156L375.169 155.425H382.056L388.944 167.953L395.831 155.425H402.719L409.607 161.694L416.494 174.222L423.382 211.816L430.27 199.288L437.157 155.384H450.933L457.82 161.654L464.708 167.923L471.595 155.395H478.483L485.371 149.126L492.258 155.395H499.146L506.034 161.664L512.921 167.933L519.809 161.664L526.697 155.395L533.584 174.192L540.472 180.461L547.36 186.73L554.247 174.202L561.135 167.933L568.022 174.202L574.91 186.73L581.798 180.461L588.685 174.192L595.573 180.461L602.461 186.73L609.348 192.999L616.236 186.73H623.124L630.011 192.999L636.899 186.73L643.786 180.461L650.674 174.192L657.562 167.923L664.449 161.654L671.641 182.492L678.528 176.223L685.416 182.492H692.304" stroke="#7A6AFD" stroke-width="2.5" stroke-linecap="round" stroke-linejoin="round"/>
<rect x="232" y="351.531" width="10" height="10" rx="1" fill="#30A7FE"/>
<path d="M252.544 361.651C251.716 361.651 250.984 361.471 250.516 361.195C250.456 361.171 250.444 361.123 250.444 361.051V360.187C250.444 360.139 250.48 360.115 250.528 360.151C251.152 360.571 251.92 360.739 252.58 360.739C253.732 360.739 254.26 360.223 254.26 359.503C254.26 358.939 253.936 358.519 252.844 358.027L252.316 357.811C250.828 357.175 250.492 356.419 250.492 355.615C250.492 354.367 251.452 353.479 253.072 353.479C253.828 353.479 254.476 353.599 254.848 353.803C254.896 353.827 254.908 353.863 254.908 353.923V354.727C254.908 354.775 254.872 354.811 254.812 354.775C254.392 354.511 253.732 354.379 253.048 354.379C251.8 354.379 251.464 355.027 251.464 355.531C251.464 356.071 251.776 356.479 252.844 356.935L253.36 357.151C254.836 357.775 255.268 358.519 255.268 359.419C255.268 360.715 254.296 361.651 252.544 361.651ZM256.641 361.435V355.783C256.641 355.723 256.665 355.699 256.725 355.699H257.577C257.625 355.699 257.649 355.711 257.649 355.771V361.447C257.649 361.507 257.637 361.531 257.565 361.531H256.737C256.677 361.531 256.641 361.507 256.641 361.435ZM257.145 354.547C256.773 354.547 256.545 354.295 256.545 353.935C256.545 353.575 256.797 353.323 257.157 353.323C257.541 353.323 257.757 353.587 257.757 353.935C257.757 354.295 257.517 354.547 257.145 354.547ZM261.938 360.751V361.363C261.938 361.411 261.926 361.459 261.866 361.483C261.59 361.603 261.29 361.651 260.966 361.651C260.09 361.651 259.562 361.231 259.562 360.079V356.563H258.746C258.674 356.551 258.662 356.527 258.662 356.467V355.783C258.662 355.723 258.686 355.699 258.746 355.699H259.562C259.574 355.255 259.622 354.427 259.67 354.163C259.682 354.115 259.706 354.091 259.754 354.079L260.57 353.947C260.618 353.935 260.642 353.947 260.642 353.995C260.606 354.415 260.57 355.111 260.57 355.699H261.842C261.89 355.699 261.914 355.723 261.914 355.783V356.491C261.914 356.539 261.89 356.563 261.842 356.563H260.57V359.935C260.57 360.487 260.774 360.799 261.302 360.799C261.482 360.799 261.662 360.775 261.866 360.703C261.902 360.691 261.938 360.691 261.938 360.751ZM266.149 358.735H263.533C263.521 359.875 264.181 360.775 265.537 360.775C266.065 360.775 266.569 360.679 267.037 360.451C267.073 360.427 267.097 360.451 267.097 360.499V361.183C267.097 361.255 267.073 361.279 267.037 361.303C266.629 361.507 266.101 361.651 265.345 361.651C263.269 361.651 262.525 360.127 262.525 358.663C262.525 356.983 263.509 355.579 265.177 355.579C266.893 355.579 267.517 356.971 267.517 357.991C267.517 358.291 267.493 358.507 267.469 358.615C267.469 358.651 267.433 358.687 267.385 358.687C267.205 358.723 266.677 358.735 266.149 358.735ZM263.545 357.991H265.777C266.365 357.991 266.509 357.979 266.545 357.967C266.557 357.931 266.557 357.871 266.557 357.835C266.557 357.403 266.269 356.407 265.141 356.407C264.145 356.407 263.653 357.187 263.545 357.991ZM273.876 361.531H272.904C272.832 361.531 272.82 361.507 272.796 361.471C272.544 360.739 271.068 356.587 270.78 355.783C270.768 355.735 270.768 355.699 270.828 355.699H271.752C271.812 355.699 271.824 355.723 271.848 355.771C272.856 358.807 273.288 360.115 273.42 360.607H273.444C273.588 360.115 274.032 358.831 275.088 355.759C275.112 355.711 275.136 355.699 275.184 355.699H276.012C276.048 355.699 276.084 355.723 276.06 355.783C275.712 356.719 274.248 360.739 273.984 361.459C273.96 361.507 273.936 361.531 273.876 361.531ZM277.043 361.435V355.783C277.043 355.723 277.067 355.699 277.127 355.699H277.979C278.027 355.699 278.051 355.711 278.051 355.771V361.447C278.051 361.507 278.039 361.531 277.967 361.531H277.139C277.079 361.531 277.043 361.507 277.043 361.435ZM277.547 354.547C277.175 354.547 276.947 354.295 276.947 353.935C276.947 353.575 277.199 353.323 277.559 353.323C277.943 353.323 278.159 353.587 278.159 353.935C278.159 354.295 277.919 354.547 277.547 354.547ZM282.831 356.755C282.495 356.551 281.943 356.407 281.439 356.407C280.647 356.407 280.383 356.791 280.383 357.151C280.383 357.511 280.599 357.763 281.499 358.123C282.711 358.591 283.203 359.083 283.203 359.935C283.203 361.039 282.303 361.651 281.055 361.651C280.395 361.651 279.795 361.507 279.447 361.303C279.411 361.279 279.387 361.255 279.387 361.195V360.391C279.387 360.331 279.423 360.307 279.459 360.331C279.939 360.667 280.551 360.811 281.079 360.811C281.847 360.811 282.219 360.475 282.219 360.031C282.219 359.587 281.955 359.323 281.127 358.999C279.927 358.543 279.423 358.051 279.423 357.199C279.423 356.335 280.155 355.579 281.463 355.579C282.123 355.579 282.615 355.699 282.867 355.843C282.927 355.867 282.927 355.915 282.927 355.963V356.695C282.927 356.755 282.891 356.791 282.831 356.755ZM284.403 361.435V355.783C284.403 355.723 284.427 355.699 284.487 355.699H285.339C285.387 355.699 285.411 355.711 285.411 355.771V361.447C285.411 361.507 285.399 361.531 285.326 361.531H284.499C284.439 361.531 284.403 361.507 284.403 361.435ZM284.907 354.547C284.535 354.547 284.307 354.295 284.307 353.935C284.307 353.575 284.559 353.323 284.919 353.323C285.303 353.323 285.519 353.587 285.519 353.935C285.519 354.295 285.279 354.547 284.907 354.547ZM289.7 360.751V361.363C289.7 361.411 289.688 361.459 289.628 361.483C289.352 361.603 289.052 361.651 288.728 361.651C287.852 361.651 287.324 361.231 287.324 360.079V356.563H286.508C286.436 356.551 286.424 356.527 286.424 356.467V355.783C286.424 355.723 286.448 355.699 286.508 355.699H287.324C287.336 355.255 287.384 354.427 287.432 354.163C287.444 354.115 287.468 354.091 287.516 354.079L288.332 353.947C288.38 353.935 288.404 353.947 288.404 353.995C288.368 354.415 288.332 355.111 288.332 355.699H289.604C289.652 355.699 289.676 355.723 289.676 355.783V356.491C289.676 356.539 289.652 356.563 289.604 356.563H288.332V359.935C288.332 360.487 288.536 360.799 289.064 360.799C289.244 360.799 289.424 360.775 289.628 360.703C289.664 360.691 289.7 360.691 289.7 360.751ZM293.988 356.755C293.652 356.551 293.1 356.407 292.596 356.407C291.804 356.407 291.54 356.791 291.54 357.151C291.54 357.511 291.756 357.763 292.656 358.123C293.868 358.591 294.36 359.083 294.36 359.935C294.36 361.039 293.46 361.651 292.212 361.651C291.552 361.651 290.952 361.507 290.604 361.303C290.568 361.279 290.544 361.255 290.544 361.195V360.391C290.544 360.331 290.58 360.307 290.616 360.331C291.096 360.667 291.708 360.811 292.236 360.811C293.004 360.811 293.376 360.475 293.376 360.031C293.376 359.587 293.112 359.323 292.284 358.999C291.084 358.543 290.58 358.051 290.58 357.199C290.58 356.335 291.312 355.579 292.62 355.579C293.28 355.579 293.772 355.699 294.024 355.843C294.084 355.867 294.084 355.915 294.084 355.963V356.695C294.084 356.755 294.048 356.791 293.988 356.755Z" fill="#464646"/>
<rect x="311" y="351.531" width="10" height="10" rx="1" fill="#7A6AFD"/>
<path d="M333.992 359.035H330.944L330.08 361.459C330.068 361.507 330.044 361.531 329.984 361.531H329.168C329.108 361.531 329.084 361.495 329.096 361.435L331.712 354.151C331.748 354.055 331.784 353.971 331.796 353.659C331.796 353.623 331.82 353.599 331.856 353.599H333.032C333.08 353.599 333.092 353.611 333.104 353.659L335.924 361.447C335.948 361.495 335.936 361.531 335.876 361.531H334.964C334.916 361.531 334.892 361.507 334.868 361.471L333.992 359.035ZM331.22 358.111H333.716C333.452 357.331 332.696 355.231 332.468 354.415H332.456C332.252 355.183 331.676 356.791 331.22 358.111ZM339.45 361.651C337.782 361.651 336.486 360.643 336.486 358.663C336.486 356.899 337.794 355.579 339.75 355.579C340.086 355.579 340.278 355.615 340.506 355.651V352.999C340.506 352.939 340.53 352.927 340.578 352.927H341.442C341.502 352.927 341.514 352.951 341.514 352.987V360.547C341.514 360.715 341.514 360.919 341.538 361.123C341.538 361.171 341.526 361.183 341.478 361.207C340.794 361.531 340.122 361.651 339.45 361.651ZM340.506 360.619V356.563C340.314 356.479 340.026 356.443 339.726 356.443C338.358 356.443 337.506 357.367 337.506 358.615C337.506 360.175 338.49 360.775 339.546 360.775C339.858 360.775 340.23 360.739 340.506 360.619ZM345.743 361.651C344.075 361.651 342.779 360.643 342.779 358.663C342.779 356.899 344.087 355.579 346.043 355.579C346.379 355.579 346.571 355.615 346.799 355.651V352.999C346.799 352.939 346.823 352.927 346.871 352.927H347.735C347.795 352.927 347.807 352.951 347.807 352.987V360.547C347.807 360.715 347.807 360.919 347.831 361.123C347.831 361.171 347.819 361.183 347.771 361.207C347.087 361.531 346.415 361.651 345.743 361.651ZM346.799 360.619V356.563C346.607 356.479 346.319 356.443 346.019 356.443C344.651 356.443 343.799 357.367 343.799 358.615C343.799 360.175 344.783 360.775 345.839 360.775C346.151 360.775 346.523 360.739 346.799 360.619ZM354.778 360.751V361.363C354.778 361.411 354.766 361.459 354.706 361.483C354.43 361.603 354.13 361.651 353.806 361.651C352.93 361.651 352.402 361.231 352.402 360.079V356.563H351.586C351.514 356.551 351.502 356.527 351.502 356.467V355.783C351.502 355.723 351.526 355.699 351.586 355.699H352.402C352.414 355.255 352.462 354.427 352.51 354.163C352.522 354.115 352.546 354.091 352.594 354.079L353.41 353.947C353.458 353.935 353.482 353.947 353.482 353.995C353.446 354.415 353.41 355.111 353.41 355.699H354.682C354.73 355.699 354.754 355.723 354.754 355.783V356.491C354.754 356.539 354.73 356.563 354.682 356.563H353.41V359.935C353.41 360.487 353.614 360.799 354.142 360.799C354.322 360.799 354.502 360.775 354.706 360.703C354.742 360.691 354.778 360.691 354.778 360.751ZM358.125 355.579C359.817 355.579 360.861 356.875 360.861 358.603C360.861 360.427 359.733 361.651 358.125 361.651C356.193 361.651 355.365 360.091 355.365 358.615C355.365 356.923 356.445 355.579 358.125 355.579ZM358.077 356.443C357.069 356.443 356.373 357.307 356.373 358.591C356.373 359.815 357.009 360.787 358.149 360.787C359.001 360.787 359.841 360.115 359.841 358.627C359.841 357.511 359.325 356.443 358.077 356.443ZM368.791 360.631V361.375C368.791 361.423 368.791 361.447 368.743 361.459C368.347 361.615 367.879 361.651 367.435 361.651C365.479 361.651 364.471 360.259 364.471 358.639C364.471 356.887 365.719 355.579 367.603 355.579C368.215 355.579 368.551 355.651 368.743 355.735C368.791 355.759 368.791 355.783 368.791 355.843V356.599C368.791 356.659 368.755 356.659 368.707 356.647C368.407 356.527 368.095 356.467 367.603 356.467C366.367 356.467 365.491 357.295 365.491 358.603C365.491 360.043 366.487 360.751 367.603 360.751C368.047 360.751 368.419 360.703 368.719 360.583C368.779 360.571 368.791 360.595 368.791 360.631ZM373.153 360.631V358.747C372.985 358.723 372.721 358.699 372.361 358.699C371.197 358.699 370.633 359.095 370.633 359.767C370.633 360.307 371.005 360.835 372.061 360.835C372.445 360.835 372.805 360.775 373.153 360.631ZM374.125 357.835V360.511C374.125 360.715 374.125 360.895 374.149 361.087C374.149 361.111 374.149 361.123 374.125 361.135C373.261 361.543 372.577 361.651 371.881 361.651C370.609 361.651 369.649 361.027 369.649 359.767C369.649 358.495 370.837 357.931 372.325 357.931C372.769 357.931 373.021 357.943 373.153 357.955V357.667C373.153 357.295 372.973 356.467 371.797 356.467C371.221 356.467 370.693 356.599 370.273 356.827C370.237 356.839 370.189 356.827 370.189 356.767V356.035C370.189 355.987 370.213 355.963 370.249 355.939C370.717 355.711 371.317 355.579 371.953 355.579C373.489 355.579 374.125 356.587 374.125 357.835ZM375.801 355.699H376.569C376.641 355.699 376.653 355.723 376.677 355.783C376.725 355.927 376.761 356.347 376.773 356.611C377.193 356.035 377.937 355.579 378.705 355.579C378.765 355.579 378.789 355.591 378.789 355.663V356.527C378.789 356.587 378.777 356.599 378.705 356.599C377.877 356.587 377.121 356.995 376.821 357.475L376.809 361.459C376.809 361.519 376.785 361.531 376.737 361.531H375.885C375.825 361.531 375.801 361.507 375.801 361.447V357.307C375.801 356.803 375.777 356.107 375.741 355.771C375.741 355.723 375.753 355.699 375.801 355.699ZM382.692 360.751V361.363C382.692 361.411 382.68 361.459 382.62 361.483C382.344 361.603 382.044 361.651 381.72 361.651C380.844 361.651 380.316 361.231 380.316 360.079V356.563H379.5C379.428 356.551 379.416 356.527 379.416 356.467V355.783C379.416 355.723 379.44 355.699 379.5 355.699H380.316C380.328 355.255 380.376 354.427 380.424 354.163C380.436 354.115 380.46 354.091 380.508 354.079L381.324 353.947C381.372 353.935 381.396 353.947 381.396 353.995C381.36 354.415 381.324 355.111 381.324 355.699H382.596C382.644 355.699 382.668 355.723 382.668 355.783V356.491C382.668 356.539 382.644 356.563 382.596 356.563H381.324V359.935C381.324 360.487 381.528 360.799 382.056 360.799C382.236 360.799 382.416 360.775 382.62 360.703C382.656 360.691 382.692 360.691 382.692 360.751Z" fill="#464646"/>
<rect x="399" y="351.531" width="10" height="10" rx="1" fill="#DE3D82"/>
<path d="M417.96 361.459V353.695C417.96 353.647 417.972 353.611 418.02 353.611C418.404 353.599 419.196 353.575 420 353.575C422.124 353.575 423.06 354.775 423.06 356.119C423.06 357.943 421.62 358.795 419.88 358.795C419.376 358.795 419.22 358.783 418.956 358.783V361.447C418.956 361.507 418.944 361.531 418.884 361.531H418.032C417.984 361.531 417.96 361.507 417.96 361.459ZM418.956 354.487V357.883C419.16 357.895 419.364 357.895 419.868 357.895C421.044 357.895 422.064 357.451 422.064 356.143C422.064 355.051 421.224 354.463 420.012 354.463C419.52 354.463 419.148 354.475 418.956 354.487ZM428.882 355.771V360.259C428.882 360.895 428.918 361.195 428.954 361.459C428.954 361.507 428.942 361.531 428.882 361.531H428.114C428.054 361.531 428.042 361.519 428.018 361.471C427.982 361.339 427.958 361.123 427.946 360.955C427.442 361.471 426.806 361.651 426.206 361.651C425.186 361.651 424.226 361.135 424.226 359.395V355.771C424.226 355.711 424.25 355.699 424.31 355.699H425.162C425.21 355.699 425.222 355.723 425.222 355.771V359.275C425.222 360.199 425.654 360.763 426.494 360.763C427.07 360.763 427.526 360.547 427.886 360.151V355.771C427.886 355.723 427.91 355.699 427.97 355.699H428.81C428.882 355.699 428.882 355.723 428.882 355.771ZM430.578 355.699H431.346C431.418 355.699 431.43 355.723 431.454 355.783C431.502 355.927 431.538 356.347 431.55 356.611C431.97 356.035 432.714 355.579 433.482 355.579C433.542 355.579 433.566 355.591 433.566 355.663V356.527C433.566 356.587 433.554 356.599 433.482 356.599C432.654 356.587 431.898 356.995 431.598 357.475L431.586 361.459C431.586 361.519 431.562 361.531 431.514 361.531H430.662C430.602 361.531 430.578 361.507 430.578 361.447V357.307C430.578 356.803 430.554 356.107 430.518 355.771C430.518 355.723 430.53 355.699 430.578 355.699ZM438.392 360.631V361.375C438.392 361.423 438.392 361.447 438.344 361.459C437.948 361.615 437.48 361.651 437.036 361.651C435.08 361.651 434.072 360.259 434.072 358.639C434.072 356.887 435.32 355.579 437.204 355.579C437.816 355.579 438.152 355.651 438.344 355.735C438.392 355.759 438.392 355.783 438.392 355.843V356.599C438.392 356.659 438.356 356.659 438.308 356.647C438.008 356.527 437.696 356.467 437.204 356.467C435.968 356.467 435.092 357.295 435.092 358.603C435.092 360.043 436.088 360.751 437.204 360.751C437.648 360.751 438.02 360.703 438.32 360.583C438.38 360.571 438.392 360.595 438.392 360.631ZM440.598 357.127V361.459C440.598 361.519 440.586 361.531 440.526 361.531H439.686C439.626 361.531 439.602 361.507 439.602 361.447V352.999C439.602 352.951 439.614 352.927 439.674 352.927H440.538C440.586 352.927 440.598 352.939 440.598 352.987L440.61 356.275C441.102 355.819 441.678 355.579 442.386 355.579C443.238 355.579 444.342 355.999 444.342 357.895V361.447C444.342 361.507 444.318 361.531 444.258 361.531H443.418C443.358 361.531 443.334 361.507 443.334 361.435V358.003C443.334 357.079 442.938 356.467 442.098 356.467C441.51 356.467 440.982 356.707 440.598 357.127ZM449.071 360.631V358.747C448.903 358.723 448.639 358.699 448.279 358.699C447.115 358.699 446.551 359.095 446.551 359.767C446.551 360.307 446.923 360.835 447.979 360.835C448.363 360.835 448.723 360.775 449.071 360.631ZM450.043 357.835V360.511C450.043 360.715 450.043 360.895 450.067 361.087C450.067 361.111 450.067 361.123 450.043 361.135C449.179 361.543 448.495 361.651 447.799 361.651C446.527 361.651 445.567 361.027 445.567 359.767C445.567 358.495 446.755 357.931 448.243 357.931C448.687 357.931 448.939 357.943 449.071 357.955V357.667C449.071 357.295 448.891 356.467 447.715 356.467C447.139 356.467 446.611 356.599 446.191 356.827C446.155 356.839 446.107 356.827 446.107 356.767V356.035C446.107 355.987 446.131 355.963 446.167 355.939C446.635 355.711 447.235 355.579 447.871 355.579C449.407 355.579 450.043 356.587 450.043 357.835ZM454.683 356.755C454.347 356.551 453.795 356.407 453.291 356.407C452.499 356.407 452.235 356.791 452.235 357.151C452.235 357.511 452.451 357.763 453.351 358.123C454.563 358.591 455.055 359.083 455.055 359.935C455.055 361.039 454.155 361.651 452.907 361.651C452.247 361.651 451.647 361.507 451.299 361.303C451.263 361.279 451.239 361.255 451.239 361.195V360.391C451.239 360.331 451.275 360.307 451.311 360.331C451.791 360.667 452.403 360.811 452.931 360.811C453.699 360.811 454.071 360.475 454.071 360.031C454.071 359.587 453.807 359.323 452.979 358.999C451.779 358.543 451.275 358.051 451.275 357.199C451.275 356.335 452.007 355.579 453.315 355.579C453.975 355.579 454.467 355.699 454.719 355.843C454.779 355.867 454.779 355.915 454.779 355.963V356.695C454.779 356.755 454.743 356.791 454.683 356.755ZM459.528 358.735H456.912C456.9 359.875 457.56 360.775 458.916 360.775C459.444 360.775 459.948 360.679 460.416 360.451C460.452 360.427 460.476 360.451 460.476 360.499V361.183C460.476 361.255 460.452 361.279 460.416 361.303C460.008 361.507 459.48 361.651 458.724 361.651C456.648 361.651 455.904 360.127 455.904 358.663C455.904 356.983 456.888 355.579 458.556 355.579C460.272 355.579 460.896 356.971 460.896 357.991C460.896 358.291 460.872 358.507 460.848 358.615C460.848 358.651 460.812 358.687 460.764 358.687C460.584 358.723 460.056 358.735 459.528 358.735ZM456.924 357.991H459.156C459.744 357.991 459.888 357.979 459.924 357.967C459.936 357.931 459.936 357.871 459.936 357.835C459.936 357.403 459.648 356.407 458.52 356.407C457.524 356.407 457.032 357.187 456.924 357.991ZM465.288 356.755C464.952 356.551 464.4 356.407 463.896 356.407C463.104 356.407 462.84 356.791 462.84 357.151C462.84 357.511 463.056 357.763 463.956 358.123C465.168 358.591 465.66 359.083 465.66 359.935C465.66 361.039 464.76 361.651 463.512 361.651C462.852 361.651 462.252 361.507 461.904 361.303C461.868 361.279 461.844 361.255 461.844 361.195V360.391C461.844 360.331 461.88 360.307 461.916 360.331C462.396 360.667 463.008 360.811 463.536 360.811C464.304 360.811 464.676 360.475 464.676 360.031C464.676 359.587 464.412 359.323 463.584 358.999C462.384 358.543 461.88 358.051 461.88 357.199C461.88 356.335 462.612 355.579 463.92 355.579C464.58 355.579 465.072 355.699 465.324 355.843C465.384 355.867 465.384 355.915 465.384 355.963V356.695C465.384 356.755 465.348 356.791 465.288 356.755Z" fill="#464646"/>
<defs>
<clipPath id="clip0_11726_332958">
<rect width="60" height="21" fill="white" transform="translate(4 273)"/>
</clipPath>
</defs>
</svg>
