<svg width="413" height="18" viewBox="0 0 413 18" fill="none" xmlns="http://www.w3.org/2000/svg">
<rect y="4" width="10" height="10" rx="1" fill="#0FB5AE"/>
<path d="M20.544 14.12C19.716 14.12 18.984 13.94 18.516 13.664C18.456 13.64 18.444 13.592 18.444 13.52V12.656C18.444 12.608 18.48 12.584 18.528 12.62C19.152 13.04 19.92 13.208 20.58 13.208C21.732 13.208 22.26 12.692 22.26 11.972C22.26 11.408 21.936 10.988 20.844 10.496L20.316 10.28C18.828 9.644 18.492 8.888 18.492 8.084C18.492 6.836 19.452 5.948 21.072 5.948C21.828 5.948 22.476 6.068 22.848 6.272C22.896 6.296 22.908 6.332 22.908 6.392V7.196C22.908 7.244 22.872 7.28 22.812 7.244C22.392 6.98 21.732 6.848 21.048 6.848C19.8 6.848 19.464 7.496 19.464 8C19.464 8.54 19.776 8.948 20.844 9.404L21.36 9.62C22.836 10.244 23.268 10.988 23.268 11.888C23.268 13.184 22.296 14.12 20.544 14.12ZM27.8057 13.1V11.216C27.6377 11.192 27.3737 11.168 27.0137 11.168C25.8497 11.168 25.2857 11.564 25.2857 12.236C25.2857 12.776 25.6577 13.304 26.7137 13.304C27.0977 13.304 27.4577 13.244 27.8057 13.1ZM28.7777 10.304V12.98C28.7777 13.184 28.7777 13.364 28.8017 13.556C28.8017 13.58 28.8017 13.592 28.7777 13.604C27.9137 14.012 27.2297 14.12 26.5337 14.12C25.2617 14.12 24.3017 13.496 24.3017 12.236C24.3017 10.964 25.4897 10.4 26.9777 10.4C27.4217 10.4 27.6737 10.412 27.8057 10.424V10.136C27.8057 9.764 27.6257 8.936 26.4497 8.936C25.8737 8.936 25.3457 9.068 24.9257 9.296C24.8897 9.308 24.8417 9.296 24.8417 9.236V8.504C24.8417 8.456 24.8657 8.432 24.9017 8.408C25.3697 8.18 25.9697 8.048 26.6057 8.048C28.1417 8.048 28.7777 9.056 28.7777 10.304ZM32.6767 14H31.7047C31.6327 14 31.6207 13.976 31.5967 13.94C31.3447 13.208 29.8687 9.056 29.5807 8.252C29.5687 8.204 29.5687 8.168 29.6287 8.168H30.5527C30.6127 8.168 30.6247 8.192 30.6487 8.24C31.6567 11.276 32.0887 12.584 32.2207 13.076H32.2447C32.3887 12.584 32.8327 11.3 33.8887 8.228C33.9127 8.18 33.9367 8.168 33.9847 8.168H34.8127C34.8487 8.168 34.8847 8.192 34.8607 8.252C34.5127 9.188 33.0487 13.208 32.7847 13.928C32.7607 13.976 32.7367 14 32.6767 14ZM38.4306 14H37.4586C37.3866 14 37.3746 13.976 37.3506 13.94C37.0986 13.208 35.6226 9.056 35.3346 8.252C35.3226 8.204 35.3226 8.168 35.3826 8.168H36.3066C36.3666 8.168 36.3786 8.192 36.4026 8.24C37.4106 11.276 37.8426 12.584 37.9746 13.076H37.9986C38.1426 12.584 38.5866 11.3 39.6426 8.228C39.6666 8.18 39.6906 8.168 39.7386 8.168H40.5666C40.6026 8.168 40.6386 8.192 40.6146 8.252C40.2666 9.188 38.8026 13.208 38.5386 13.928C38.5146 13.976 38.4906 14 38.4306 14ZM41.1125 8.168H42.0605C42.1085 8.168 42.1325 8.192 42.1445 8.228C43.1405 10.868 43.6325 12.236 43.8005 12.776C44.1845 11.672 44.6885 10.292 45.4205 8.228C45.4445 8.192 45.4685 8.168 45.5165 8.168H46.3685C46.4285 8.168 46.4405 8.204 46.4165 8.252C45.5285 10.856 44.2925 13.928 43.1525 16.496C43.1285 16.544 43.0925 16.568 43.0205 16.58L42.1205 16.652C42.0605 16.652 42.0605 16.616 42.0845 16.556C42.4325 15.824 42.8765 14.852 43.2725 13.904C43.2965 13.856 43.2965 13.82 43.2725 13.748C42.9845 13.028 41.7845 10.112 41.0525 8.24C41.0285 8.192 41.0645 8.168 41.1125 8.168ZM51.8096 14.12C50.9816 14.12 50.2496 13.94 49.7816 13.664C49.7216 13.64 49.7096 13.592 49.7096 13.52V12.656C49.7096 12.608 49.7456 12.584 49.7936 12.62C50.4176 13.04 51.1856 13.208 51.8456 13.208C52.9976 13.208 53.5256 12.692 53.5256 11.972C53.5256 11.408 53.2016 10.988 52.1096 10.496L51.5816 10.28C50.0936 9.644 49.7576 8.888 49.7576 8.084C49.7576 6.836 50.7176 5.948 52.3376 5.948C53.0936 5.948 53.7416 6.068 54.1136 6.272C54.1616 6.296 54.1736 6.332 54.1736 6.392V7.196C54.1736 7.244 54.1376 7.28 54.0776 7.244C53.6576 6.98 52.9976 6.848 52.3136 6.848C51.0656 6.848 50.7296 7.496 50.7296 8C50.7296 8.54 51.0416 8.948 52.1096 9.404L52.6256 9.62C54.1016 10.244 54.5336 10.988 54.5336 11.888C54.5336 13.184 53.5616 14.12 51.8096 14.12ZM56.7735 9.596V13.928C56.7735 13.988 56.7615 14 56.7015 14H55.8615C55.8015 14 55.7775 13.976 55.7775 13.916V5.468C55.7775 5.42 55.7895 5.396 55.8495 5.396H56.7135C56.7615 5.396 56.7735 5.408 56.7735 5.456L56.7855 8.744C57.2775 8.288 57.8535 8.048 58.5615 8.048C59.4135 8.048 60.5175 8.468 60.5175 10.364V13.916C60.5175 13.976 60.4935 14 60.4335 14H59.5935C59.5335 14 59.5095 13.976 59.5095 13.904V10.472C59.5095 9.548 59.1135 8.936 58.2735 8.936C57.6855 8.936 57.1575 9.176 56.7735 9.596ZM64.5511 8.048C66.2431 8.048 67.2871 9.344 67.2871 11.072C67.2871 12.896 66.1591 14.12 64.5511 14.12C62.6191 14.12 61.7911 12.56 61.7911 11.084C61.7911 9.392 62.8711 8.048 64.5511 8.048ZM64.5031 8.912C63.4951 8.912 62.7991 9.776 62.7991 11.06C62.7991 12.284 63.4351 13.256 64.5751 13.256C65.4271 13.256 66.2671 12.584 66.2671 11.096C66.2671 9.98 65.7511 8.912 64.5031 8.912ZM70.7712 8.048C72.5472 8.048 73.5792 9.272 73.5792 10.88C73.5792 13.064 71.8512 14.12 70.1472 14.12C69.8712 14.12 69.7032 14.096 69.5352 14.072V16.472C69.5352 16.52 69.5352 16.544 69.4752 16.556C69.1992 16.58 68.6472 16.64 68.5992 16.652C68.5512 16.652 68.5392 16.64 68.5392 16.58V9.104C68.5392 8.996 68.5272 8.732 68.5152 8.576C68.5152 8.564 68.5152 8.54 68.5392 8.528C68.9592 8.372 69.7512 8.048 70.7712 8.048ZM70.6512 8.924C70.2312 8.924 69.8712 8.996 69.5352 9.116V13.184C69.7392 13.244 69.9912 13.256 70.2192 13.256C71.3832 13.256 72.5592 12.536 72.5592 10.94C72.5592 9.716 71.8632 8.924 70.6512 8.924ZM77.0759 8.048C78.8519 8.048 79.8839 9.272 79.8839 10.88C79.8839 13.064 78.1559 14.12 76.4519 14.12C76.1759 14.12 76.0079 14.096 75.8399 14.072V16.472C75.8399 16.52 75.8399 16.544 75.7799 16.556C75.5039 16.58 74.9519 16.64 74.9039 16.652C74.8559 16.652 74.8439 16.64 74.8439 16.58V9.104C74.8439 8.996 74.8319 8.732 74.8199 8.576C74.8199 8.564 74.8199 8.54 74.8439 8.528C75.2639 8.372 76.0559 8.048 77.0759 8.048ZM76.9559 8.924C76.5359 8.924 76.1759 8.996 75.8399 9.116V13.184C76.0439 13.244 76.2959 13.256 76.5239 13.256C77.6879 13.256 78.8639 12.536 78.8639 10.94C78.8639 9.716 78.1679 8.924 76.9559 8.924ZM84.4463 11.204H81.8303C81.8183 12.344 82.4783 13.244 83.8343 13.244C84.3623 13.244 84.8663 13.148 85.3343 12.92C85.3703 12.896 85.3943 12.92 85.3943 12.968V13.652C85.3943 13.724 85.3703 13.748 85.3343 13.772C84.9263 13.976 84.3983 14.12 83.6423 14.12C81.5663 14.12 80.8223 12.596 80.8223 11.132C80.8223 9.452 81.8063 8.048 83.4743 8.048C85.1903 8.048 85.8143 9.44 85.8143 10.46C85.8143 10.76 85.7903 10.976 85.7663 11.084C85.7663 11.12 85.7303 11.156 85.6823 11.156C85.5023 11.192 84.9743 11.204 84.4463 11.204ZM81.8423 10.46H84.0743C84.6623 10.46 84.8063 10.448 84.8423 10.436C84.8543 10.4 84.8543 10.34 84.8543 10.304C84.8543 9.872 84.5663 8.876 83.4383 8.876C82.4423 8.876 81.9503 9.656 81.8423 10.46ZM87.0314 8.168H87.7994C87.8714 8.168 87.8834 8.192 87.9074 8.252C87.9554 8.396 87.9914 8.816 88.0034 9.08C88.4234 8.504 89.1674 8.048 89.9354 8.048C89.9954 8.048 90.0194 8.06 90.0194 8.132V8.996C90.0194 9.056 90.0074 9.068 89.9354 9.068C89.1074 9.056 88.3514 9.464 88.0514 9.944L88.0394 13.928C88.0394 13.988 88.0154 14 87.9674 14H87.1154C87.0554 14 87.0314 13.976 87.0314 13.916V9.776C87.0314 9.272 87.0074 8.576 86.9714 8.24C86.9714 8.192 86.9834 8.168 87.0314 8.168ZM94.1204 9.224C93.7844 9.02 93.2324 8.876 92.7284 8.876C91.9364 8.876 91.6724 9.26 91.6724 9.62C91.6724 9.98 91.8884 10.232 92.7884 10.592C94.0004 11.06 94.4924 11.552 94.4924 12.404C94.4924 13.508 93.5924 14.12 92.3444 14.12C91.6844 14.12 91.0844 13.976 90.7364 13.772C90.7004 13.748 90.6764 13.724 90.6764 13.664V12.86C90.6764 12.8 90.7124 12.776 90.7484 12.8C91.2284 13.136 91.8404 13.28 92.3684 13.28C93.1364 13.28 93.5084 12.944 93.5084 12.5C93.5084 12.056 93.2444 11.792 92.4164 11.468C91.2164 11.012 90.7124 10.52 90.7124 9.668C90.7124 8.804 91.4444 8.048 92.7524 8.048C93.4124 8.048 93.9044 8.168 94.1564 8.312C94.2164 8.336 94.2164 8.384 94.2164 8.432V9.164C94.2164 9.224 94.1804 9.26 94.1204 9.224Z" fill="#464646"/>
<rect x="111" y="4" width="10" height="10" rx="1" fill="#4046CA"/>
<path d="M130.836 14H130.044C129.996 14 129.96 13.988 129.96 13.916V6.14C129.96 6.092 129.972 6.068 130.032 6.068H131.22C131.28 6.068 131.292 6.092 131.328 6.14C132.372 7.904 134.676 11.804 135.156 12.74H135.168C135.144 12.416 135.132 11.96 135.132 10.916V6.152C135.132 6.092 135.156 6.068 135.216 6.068H136.008C136.068 6.068 136.092 6.104 136.092 6.164V13.916C136.092 13.976 136.068 14 135.984 14H134.916C134.844 14 134.808 13.988 134.784 13.928C134.244 12.92 131.256 7.964 130.872 7.076H130.86C130.884 7.544 130.908 8.132 130.908 9.188V13.916C130.908 13.976 130.884 14 130.836 14ZM141.048 11.204H138.432C138.42 12.344 139.08 13.244 140.436 13.244C140.964 13.244 141.468 13.148 141.936 12.92C141.972 12.896 141.996 12.92 141.996 12.968V13.652C141.996 13.724 141.972 13.748 141.936 13.772C141.528 13.976 141 14.12 140.244 14.12C138.168 14.12 137.424 12.596 137.424 11.132C137.424 9.452 138.408 8.048 140.076 8.048C141.792 8.048 142.416 9.44 142.416 10.46C142.416 10.76 142.392 10.976 142.368 11.084C142.368 11.12 142.332 11.156 142.284 11.156C142.104 11.192 141.576 11.204 141.048 11.204ZM138.444 10.46H140.676C141.264 10.46 141.408 10.448 141.444 10.436C141.456 10.4 141.456 10.34 141.456 10.304C141.456 9.872 141.168 8.876 140.04 8.876C139.044 8.876 138.552 9.656 138.444 10.46ZM149.556 14H148.608C148.536 14 148.512 13.976 148.5 13.916C147.612 10.736 147.384 9.74 147.252 9.176H147.24C147.024 10.136 146.592 11.6 145.908 13.916C145.884 13.988 145.848 14 145.788 14H144.864C144.768 14 144.744 13.976 144.732 13.916L143.172 8.252C143.148 8.204 143.172 8.168 143.232 8.168H144.132C144.168 8.168 144.204 8.18 144.216 8.228C145.104 11.528 145.308 12.632 145.392 13.052H145.416C145.512 12.644 145.728 11.648 146.748 8.252C146.76 8.192 146.772 8.168 146.832 8.168H147.804C147.852 8.168 147.876 8.192 147.888 8.24C148.86 11.72 149.028 12.596 149.124 13.064H149.148C149.28 12.5 149.46 11.48 150.396 8.228C150.408 8.192 150.432 8.168 150.48 8.168H151.32C151.368 8.168 151.392 8.192 151.38 8.24L149.664 13.928C149.64 13.976 149.628 14 149.556 14ZM155.656 9.224C155.32 9.02 154.768 8.876 154.264 8.876C153.472 8.876 153.208 9.26 153.208 9.62C153.208 9.98 153.424 10.232 154.324 10.592C155.536 11.06 156.028 11.552 156.028 12.404C156.028 13.508 155.128 14.12 153.88 14.12C153.22 14.12 152.62 13.976 152.272 13.772C152.236 13.748 152.212 13.724 152.212 13.664V12.86C152.212 12.8 152.248 12.776 152.284 12.8C152.764 13.136 153.376 13.28 153.904 13.28C154.672 13.28 155.044 12.944 155.044 12.5C155.044 12.056 154.78 11.792 153.952 11.468C152.752 11.012 152.248 10.52 152.248 9.668C152.248 8.804 152.98 8.048 154.288 8.048C154.948 8.048 155.44 8.168 155.692 8.312C155.752 8.336 155.752 8.384 155.752 8.432V9.164C155.752 9.224 155.716 9.26 155.656 9.224ZM161.12 10.544V13.916C161.12 13.976 161.096 14 161.048 14H160.184C160.136 14 160.124 13.964 160.124 13.916V6.14C160.124 6.092 160.136 6.068 160.196 6.068H164.6C164.648 6.068 164.672 6.092 164.684 6.14L164.768 6.896C164.78 6.956 164.756 6.98 164.696 6.98H161.12V9.632H164.312C164.372 9.632 164.396 9.656 164.396 9.704V10.472C164.396 10.52 164.36 10.544 164.312 10.544H161.12ZM168.524 13.1V11.216C168.356 11.192 168.092 11.168 167.732 11.168C166.568 11.168 166.004 11.564 166.004 12.236C166.004 12.776 166.376 13.304 167.432 13.304C167.816 13.304 168.176 13.244 168.524 13.1ZM169.496 10.304V12.98C169.496 13.184 169.496 13.364 169.52 13.556C169.52 13.58 169.52 13.592 169.496 13.604C168.632 14.012 167.948 14.12 167.252 14.12C165.98 14.12 165.02 13.496 165.02 12.236C165.02 10.964 166.208 10.4 167.696 10.4C168.14 10.4 168.392 10.412 168.524 10.424V10.136C168.524 9.764 168.344 8.936 167.168 8.936C166.592 8.936 166.064 9.068 165.644 9.296C165.608 9.308 165.56 9.296 165.56 9.236V8.504C165.56 8.456 165.584 8.432 165.62 8.408C166.088 8.18 166.688 8.048 167.324 8.048C168.86 8.048 169.496 9.056 169.496 10.304ZM171.172 13.916V9.524C171.172 9.116 171.148 8.444 171.124 8.24C171.124 8.192 171.136 8.168 171.196 8.168H171.94C172 8.168 172.024 8.192 172.048 8.24C172.084 8.348 172.096 8.576 172.12 8.84C172.648 8.312 173.26 8.048 173.956 8.048C174.808 8.048 175.912 8.468 175.912 10.364V13.916C175.912 13.976 175.888 14 175.828 14H174.988C174.928 14 174.904 13.976 174.904 13.904V10.46C174.904 9.548 174.508 8.936 173.668 8.936C173.056 8.936 172.552 9.212 172.168 9.668V13.916C172.168 13.976 172.156 14 172.096 14H171.244C171.196 14 171.172 13.976 171.172 13.916ZM180.617 9.224C180.281 9.02 179.729 8.876 179.225 8.876C178.433 8.876 178.169 9.26 178.169 9.62C178.169 9.98 178.385 10.232 179.285 10.592C180.497 11.06 180.989 11.552 180.989 12.404C180.989 13.508 180.089 14.12 178.841 14.12C178.181 14.12 177.581 13.976 177.233 13.772C177.197 13.748 177.173 13.724 177.173 13.664V12.86C177.173 12.8 177.208 12.776 177.245 12.8C177.725 13.136 178.337 13.28 178.865 13.28C179.633 13.28 180.005 12.944 180.005 12.5C180.005 12.056 179.741 11.792 178.913 11.468C177.713 11.012 177.208 10.52 177.208 9.668C177.208 8.804 177.941 8.048 179.249 8.048C179.909 8.048 180.401 8.168 180.653 8.312C180.713 8.336 180.713 8.384 180.713 8.432V9.164C180.713 9.224 180.677 9.26 180.617 9.224Z" fill="#464646"/>
<rect x="198" y="4" width="10" height="10" rx="1" fill="#F68511"/>
<path d="M221.496 14H217.056C216.984 14 216.96 13.964 216.96 13.904V6.152C216.96 6.104 216.972 6.068 217.032 6.068H217.896C217.944 6.068 217.956 6.092 217.956 6.14V13.088H221.676C221.736 13.088 221.748 13.124 221.736 13.16L221.592 13.928C221.58 13.988 221.544 14 221.496 14ZM224.993 8.048C226.685 8.048 227.729 9.344 227.729 11.072C227.729 12.896 226.601 14.12 224.993 14.12C223.061 14.12 222.233 12.56 222.233 11.084C222.233 9.392 223.312 8.048 224.993 8.048ZM224.945 8.912C223.937 8.912 223.241 9.776 223.241 11.06C223.241 12.284 223.877 13.256 225.017 13.256C225.869 13.256 226.709 12.584 226.709 11.096C226.709 9.98 226.193 8.912 224.945 8.912ZM228.343 8.168H229.291C229.339 8.168 229.363 8.192 229.375 8.228C230.371 10.868 230.863 12.236 231.031 12.776C231.415 11.672 231.919 10.292 232.651 8.228C232.675 8.192 232.699 8.168 232.747 8.168H233.599C233.659 8.168 233.671 8.204 233.647 8.252C232.759 10.856 231.523 13.928 230.383 16.496C230.359 16.544 230.323 16.568 230.251 16.58L229.351 16.652C229.291 16.652 229.291 16.616 229.315 16.556C229.663 15.824 230.107 14.852 230.503 13.904C230.527 13.856 230.527 13.82 230.503 13.748C230.215 13.028 229.015 10.112 228.283 8.24C228.259 8.192 228.295 8.168 228.343 8.168ZM237.524 13.1V11.216C237.356 11.192 237.092 11.168 236.732 11.168C235.568 11.168 235.004 11.564 235.004 12.236C235.004 12.776 235.376 13.304 236.432 13.304C236.816 13.304 237.176 13.244 237.524 13.1ZM238.496 10.304V12.98C238.496 13.184 238.496 13.364 238.52 13.556C238.52 13.58 238.52 13.592 238.496 13.604C237.632 14.012 236.948 14.12 236.252 14.12C234.98 14.12 234.02 13.496 234.02 12.236C234.02 10.964 235.208 10.4 236.696 10.4C237.14 10.4 237.392 10.412 237.524 10.424V10.136C237.524 9.764 237.344 8.936 236.168 8.936C235.592 8.936 235.064 9.068 234.644 9.296C234.608 9.308 234.56 9.296 234.56 9.236V8.504C234.56 8.456 234.584 8.432 234.62 8.408C235.088 8.18 235.688 8.048 236.324 8.048C237.86 8.048 238.496 9.056 238.496 10.304ZM240.172 12.788V5.468C240.172 5.408 240.196 5.396 240.256 5.396H241.096C241.156 5.396 241.168 5.42 241.168 5.468V12.704C241.168 13.172 241.36 13.28 241.648 13.28C241.732 13.28 241.78 13.268 241.888 13.244C241.924 13.244 241.936 13.268 241.936 13.316V13.94C241.936 14 241.924 14.012 241.876 14.036C241.768 14.084 241.576 14.12 241.324 14.12C240.736 14.12 240.172 13.916 240.172 12.788ZM250.084 14.12C249.7 14.12 249.436 13.868 249.436 13.46C249.436 13.088 249.7 12.812 250.084 12.812C250.468 12.812 250.732 13.088 250.732 13.46C250.732 13.856 250.48 14.12 250.084 14.12ZM243.652 14.12C243.28 14.12 243.016 13.868 243.016 13.46C243.016 13.088 243.268 12.812 243.652 12.812C244.048 12.812 244.3 13.088 244.3 13.46C244.3 13.856 244.06 14.12 243.652 14.12ZM246.892 14.12C246.508 14.12 246.244 13.868 246.244 13.46C246.244 13.088 246.508 12.812 246.892 12.812C247.276 12.812 247.54 13.088 247.54 13.46C247.54 13.856 247.3 14.12 246.892 14.12Z" fill="#464646"/>
<rect x="268" y="4" width="10" height="10" rx="1" fill="#DE3D82"/>
<path d="M288.544 14.12C287.716 14.12 286.984 13.94 286.516 13.664C286.456 13.64 286.444 13.592 286.444 13.52V12.656C286.444 12.608 286.48 12.584 286.528 12.62C287.152 13.04 287.92 13.208 288.58 13.208C289.732 13.208 290.26 12.692 290.26 11.972C290.26 11.408 289.936 10.988 288.844 10.496L288.316 10.28C286.828 9.644 286.492 8.888 286.492 8.084C286.492 6.836 287.452 5.948 289.072 5.948C289.828 5.948 290.476 6.068 290.848 6.272C290.896 6.296 290.908 6.332 290.908 6.392V7.196C290.908 7.244 290.872 7.28 290.812 7.244C290.392 6.98 289.732 6.848 289.048 6.848C287.8 6.848 287.464 7.496 287.464 8C287.464 8.54 287.776 8.948 288.844 9.404L289.36 9.62C290.836 10.244 291.268 10.988 291.268 11.888C291.268 13.184 290.296 14.12 288.544 14.12ZM294.802 8.048C296.578 8.048 297.61 9.272 297.61 10.88C297.61 13.064 295.882 14.12 294.178 14.12C293.902 14.12 293.734 14.096 293.566 14.072V16.472C293.566 16.52 293.566 16.544 293.506 16.556C293.23 16.58 292.678 16.64 292.63 16.652C292.582 16.652 292.57 16.64 292.57 16.58V9.104C292.57 8.996 292.558 8.732 292.546 8.576C292.546 8.564 292.546 8.54 292.57 8.528C292.99 8.372 293.782 8.048 294.802 8.048ZM294.682 8.924C294.262 8.924 293.902 8.996 293.566 9.116V13.184C293.77 13.244 294.022 13.256 294.25 13.256C295.414 13.256 296.59 12.536 296.59 10.94C296.59 9.716 295.894 8.924 294.682 8.924ZM301.309 8.048C303.001 8.048 304.045 9.344 304.045 11.072C304.045 12.896 302.917 14.12 301.309 14.12C299.377 14.12 298.549 12.56 298.549 11.084C298.549 9.392 299.629 8.048 301.309 8.048ZM301.261 8.912C300.253 8.912 299.557 9.776 299.557 11.06C299.557 12.284 300.193 13.256 301.333 13.256C302.185 13.256 303.025 12.584 303.025 11.096C303.025 9.98 302.509 8.912 301.261 8.912ZM305.297 8.168H306.065C306.137 8.168 306.149 8.192 306.173 8.252C306.221 8.396 306.257 8.816 306.269 9.08C306.689 8.504 307.433 8.048 308.201 8.048C308.261 8.048 308.285 8.06 308.285 8.132V8.996C308.285 9.056 308.273 9.068 308.201 9.068C307.373 9.056 306.617 9.464 306.317 9.944L306.305 13.928C306.305 13.988 306.281 14 306.233 14H305.381C305.321 14 305.297 13.976 305.297 13.916V9.776C305.297 9.272 305.273 8.576 305.237 8.24C305.237 8.192 305.249 8.168 305.297 8.168ZM312.188 13.22V13.832C312.188 13.88 312.176 13.928 312.116 13.952C311.84 14.072 311.54 14.12 311.216 14.12C310.34 14.12 309.812 13.7 309.812 12.548V9.032H308.996C308.924 9.02 308.912 8.996 308.912 8.936V8.252C308.912 8.192 308.936 8.168 308.996 8.168H309.812C309.824 7.724 309.872 6.896 309.92 6.632C309.932 6.584 309.956 6.56 310.004 6.548L310.82 6.416C310.868 6.404 310.892 6.416 310.892 6.464C310.856 6.884 310.82 7.58 310.82 8.168H312.092C312.14 8.168 312.164 8.192 312.164 8.252V8.96C312.164 9.008 312.14 9.032 312.092 9.032H310.82V12.404C310.82 12.956 311.024 13.268 311.552 13.268C311.732 13.268 311.912 13.244 312.116 13.172C312.152 13.16 312.188 13.16 312.188 13.22ZM316.476 9.224C316.14 9.02 315.588 8.876 315.084 8.876C314.292 8.876 314.028 9.26 314.028 9.62C314.028 9.98 314.244 10.232 315.144 10.592C316.356 11.06 316.848 11.552 316.848 12.404C316.848 13.508 315.948 14.12 314.7 14.12C314.04 14.12 313.44 13.976 313.092 13.772C313.056 13.748 313.032 13.724 313.032 13.664V12.86C313.032 12.8 313.068 12.776 313.104 12.8C313.584 13.136 314.196 13.28 314.724 13.28C315.492 13.28 315.864 12.944 315.864 12.5C315.864 12.056 315.6 11.792 314.772 11.468C313.572 11.012 313.068 10.52 313.068 9.668C313.068 8.804 313.8 8.048 315.108 8.048C315.768 8.048 316.26 8.168 316.512 8.312C316.572 8.336 316.572 8.384 316.572 8.432V9.164C316.572 9.224 316.536 9.26 316.476 9.224ZM321.94 10.544V13.916C321.94 13.976 321.916 14 321.868 14H321.004C320.956 14 320.944 13.964 320.944 13.916V6.14C320.944 6.092 320.956 6.068 321.016 6.068H325.42C325.468 6.068 325.492 6.092 325.504 6.14L325.588 6.896C325.6 6.956 325.576 6.98 325.516 6.98H321.94V9.632H325.132C325.192 9.632 325.216 9.656 325.216 9.704V10.472C325.216 10.52 325.18 10.544 325.132 10.544H321.94ZM329.345 13.1V11.216C329.177 11.192 328.913 11.168 328.553 11.168C327.389 11.168 326.825 11.564 326.825 12.236C326.825 12.776 327.197 13.304 328.253 13.304C328.637 13.304 328.997 13.244 329.345 13.1ZM330.317 10.304V12.98C330.317 13.184 330.317 13.364 330.341 13.556C330.341 13.58 330.341 13.592 330.317 13.604C329.453 14.012 328.769 14.12 328.073 14.12C326.801 14.12 325.841 13.496 325.841 12.236C325.841 10.964 327.029 10.4 328.517 10.4C328.961 10.4 329.213 10.412 329.345 10.424V10.136C329.345 9.764 329.165 8.936 327.989 8.936C327.413 8.936 326.885 9.068 326.465 9.296C326.429 9.308 326.381 9.296 326.381 9.236V8.504C326.381 8.456 326.405 8.432 326.441 8.408C326.909 8.18 327.509 8.048 328.145 8.048C329.681 8.048 330.317 9.056 330.317 10.304ZM331.992 13.916V9.524C331.992 9.116 331.968 8.444 331.944 8.24C331.944 8.192 331.956 8.168 332.016 8.168H332.76C332.82 8.168 332.844 8.192 332.868 8.24C332.904 8.348 332.916 8.576 332.94 8.84C333.468 8.312 334.08 8.048 334.776 8.048C335.628 8.048 336.732 8.468 336.732 10.364V13.916C336.732 13.976 336.708 14 336.648 14H335.808C335.748 14 335.724 13.976 335.724 13.904V10.46C335.724 9.548 335.328 8.936 334.488 8.936C333.876 8.936 333.372 9.212 332.988 9.668V13.916C332.988 13.976 332.976 14 332.916 14H332.064C332.016 14 331.992 13.976 331.992 13.916ZM341.437 9.224C341.101 9.02 340.549 8.876 340.045 8.876C339.253 8.876 338.989 9.26 338.989 9.62C338.989 9.98 339.205 10.232 340.105 10.592C341.317 11.06 341.809 11.552 341.809 12.404C341.809 13.508 340.909 14.12 339.661 14.12C339.001 14.12 338.401 13.976 338.053 13.772C338.017 13.748 337.993 13.724 337.993 13.664V12.86C337.993 12.8 338.029 12.776 338.065 12.8C338.545 13.136 339.157 13.28 339.685 13.28C340.453 13.28 340.825 12.944 340.825 12.5C340.825 12.056 340.561 11.792 339.733 11.468C338.533 11.012 338.029 10.52 338.029 9.668C338.029 8.804 338.761 8.048 340.069 8.048C340.729 8.048 341.221 8.168 341.473 8.312C341.533 8.336 341.533 8.384 341.533 8.432V9.164C341.533 9.224 341.497 9.26 341.437 9.224Z" fill="#464646"/>
<rect x="359" y="4" width="10" height="10" rx="1" fill="#7E84FC"/>
<path d="M378.872 14H378.032C377.984 14 377.96 13.988 377.96 13.928V6.176C377.96 6.116 377.972 6.08 378.032 6.08C378.704 6.056 379.316 6.044 380.12 6.044C381.884 6.044 383.06 6.8 383.06 8.336C383.06 9.464 382.292 10.16 381.404 10.46C381.812 11.024 383.42 13.388 383.732 13.904C383.756 13.952 383.756 14 383.696 14H382.688C382.616 14 382.592 13.988 382.556 13.952C382.184 13.388 381.188 11.852 380.588 10.928C380.492 10.784 380.432 10.736 380.312 10.736H378.944V13.928C378.944 13.976 378.92 14 378.872 14ZM378.944 9.86H380.228C381.368 9.86 382.064 9.272 382.064 8.384C382.064 7.472 381.368 6.932 380.084 6.932C379.628 6.932 379.184 6.944 378.944 6.956V9.86ZM389.058 8.24V12.728C389.058 13.364 389.094 13.664 389.13 13.928C389.13 13.976 389.118 14 389.058 14H388.29C388.23 14 388.218 13.988 388.194 13.94C388.158 13.808 388.134 13.592 388.122 13.424C387.618 13.94 386.982 14.12 386.382 14.12C385.362 14.12 384.402 13.604 384.402 11.864V8.24C384.402 8.18 384.426 8.168 384.486 8.168H385.338C385.386 8.168 385.398 8.192 385.398 8.24V11.744C385.398 12.668 385.83 13.232 386.67 13.232C387.246 13.232 387.702 13.016 388.062 12.62V8.24C388.062 8.192 388.086 8.168 388.146 8.168H388.986C389.058 8.168 389.058 8.192 389.058 8.24ZM390.754 13.916V9.524C390.754 9.116 390.73 8.444 390.706 8.24C390.706 8.192 390.718 8.168 390.778 8.168H391.522C391.582 8.168 391.606 8.192 391.63 8.24C391.666 8.348 391.678 8.576 391.702 8.84C392.23 8.312 392.842 8.048 393.538 8.048C394.39 8.048 395.494 8.468 395.494 10.364V13.916C395.494 13.976 395.47 14 395.41 14H394.57C394.51 14 394.486 13.976 394.486 13.904V10.46C394.486 9.548 394.09 8.936 393.25 8.936C392.638 8.936 392.134 9.212 391.75 9.668V13.916C391.75 13.976 391.738 14 391.678 14H390.826C390.778 14 390.754 13.976 390.754 13.916ZM397.176 13.916V9.524C397.176 9.116 397.152 8.444 397.128 8.24C397.128 8.192 397.14 8.168 397.2 8.168H397.944C398.004 8.168 398.028 8.192 398.052 8.24C398.088 8.348 398.1 8.576 398.124 8.84C398.652 8.312 399.264 8.048 399.96 8.048C400.812 8.048 401.916 8.468 401.916 10.364V13.916C401.916 13.976 401.892 14 401.832 14H400.992C400.932 14 400.908 13.976 400.908 13.904V10.46C400.908 9.548 400.512 8.936 399.672 8.936C399.06 8.936 398.556 9.212 398.172 9.668V13.916C398.172 13.976 398.16 14 398.1 14H397.248C397.2 14 397.176 13.976 397.176 13.916ZM410.522 14.12C410.138 14.12 409.874 13.868 409.874 13.46C409.874 13.088 410.138 12.812 410.522 12.812C410.906 12.812 411.17 13.088 411.17 13.46C411.17 13.856 410.918 14.12 410.522 14.12ZM404.09 14.12C403.718 14.12 403.454 13.868 403.454 13.46C403.454 13.088 403.706 12.812 404.09 12.812C404.486 12.812 404.738 13.088 404.738 13.46C404.738 13.856 404.498 14.12 404.09 14.12ZM407.33 14.12C406.946 14.12 406.682 13.868 406.682 13.46C406.682 13.088 406.946 12.812 407.33 12.812C407.714 12.812 407.978 13.088 407.978 13.46C407.978 13.856 407.738 14.12 407.33 14.12Z" fill="#464646"/>
</svg>
