<svg width="405" height="115" viewBox="0 0 405 115" fill="none" xmlns="http://www.w3.org/2000/svg">
<rect x="109.521" width="1.90431" height="61.9809" rx="0.952153" fill="#222222"/>
<rect x="109.521" y="60.0781" width="1.90431" height="4.76077" rx="0.952153" fill="#222222"/>
<path d="M110.465 75.993C109.438 75.993 108.679 77.0594 108.679 79.3522C108.679 81.3651 109.265 82.7914 110.518 82.7914C111.771 82.7914 112.264 81.4584 112.264 79.3922C112.264 77.1261 111.625 75.993 110.465 75.993ZM110.505 83.7778C108.425 83.7778 107.559 81.805 107.559 79.3789C107.559 76.9661 108.559 75.0199 110.492 75.0199C112.864 75.0199 113.384 77.486 113.384 79.3789C113.384 81.5384 112.718 83.7778 110.505 83.7778Z" fill="#909090"/>
<rect x="126.755" y="60.0781" width="0.952153" height="4.76077" rx="0.476077" fill="#D5D5D5"/>
<rect x="143.513" y="60.0781" width="0.952153" height="4.76077" rx="0.476077" fill="#D5D5D5"/>
<rect x="160.271" y="60.0781" width="0.952153" height="4.76077" rx="0.476077" fill="#D5D5D5"/>
<rect x="177.029" y="60.0781" width="0.952153" height="4.76077" rx="0.476077" fill="#D5D5D5"/>
<rect x="193.787" width="1" height="61.9809" rx="0.5" fill="#D5D5D5"/>
<rect x="193.787" y="60.0781" width="0.952153" height="4.76077" rx="0.476077" fill="#D5D5D5"/>
<path d="M184.275 83.6445H183.316C183.236 83.6445 183.236 83.6179 183.236 83.5646V76.2996C182.796 76.5662 182.076 76.8328 181.649 76.9395C181.583 76.9528 181.556 76.9261 181.556 76.8595V76.0863C181.556 76.033 181.556 76.0064 181.623 75.993C182.276 75.8064 183.009 75.4465 183.462 75.1532C183.515 75.0999 183.595 75.0999 183.649 75.0999H184.289C184.329 75.0999 184.342 75.1266 184.342 75.1799V83.5646C184.342 83.6179 184.329 83.6445 184.275 83.6445ZM189.145 75.993C188.119 75.993 187.359 77.0594 187.359 79.3522C187.359 81.3651 187.945 82.7914 189.198 82.7914C190.451 82.7914 190.945 81.4584 190.945 79.3922C190.945 77.1261 190.305 75.993 189.145 75.993ZM189.185 83.7778C187.105 83.7778 186.239 81.805 186.239 79.3789C186.239 76.9661 187.239 75.0199 189.172 75.0199C191.544 75.0199 192.064 77.486 192.064 79.3789C192.064 81.5384 191.398 83.7778 189.185 83.7778ZM196.175 75.993C195.148 75.993 194.388 77.0594 194.388 79.3522C194.388 81.3651 194.975 82.7914 196.228 82.7914C197.481 82.7914 197.974 81.4584 197.974 79.3922C197.974 77.1261 197.334 75.993 196.175 75.993ZM196.215 83.7778C194.135 83.7778 193.269 81.805 193.269 79.3789C193.269 76.9661 194.268 75.0199 196.201 75.0199C198.574 75.0199 199.094 77.486 199.094 79.3789C199.094 81.5384 198.427 83.7778 196.215 83.7778ZM206.003 74.8333H207.057C207.15 74.8333 207.163 74.9 207.123 74.9533L203.217 79.0456C203.191 79.0723 203.191 79.099 203.217 79.1389L207.43 83.5246C207.47 83.5779 207.443 83.6445 207.376 83.6445H206.203C206.137 83.6445 206.097 83.6312 206.03 83.5646L201.938 79.3122C201.858 79.2323 201.858 79.1789 201.938 79.1123L205.87 74.9C205.91 74.86 205.937 74.8333 206.003 74.8333ZM201.871 74.9266V83.5512C201.871 83.6179 201.844 83.6445 201.791 83.6445H200.858C200.791 83.6445 200.765 83.6179 200.765 83.5379V74.9133C200.765 74.86 200.778 74.8333 200.845 74.8333H201.791C201.844 74.8333 201.871 74.86 201.871 74.9266Z" fill="#909090"/>
<rect x="210.545" y="60.0781" width="0.952153" height="4.76077" rx="0.476077" fill="#D5D5D5"/>
<rect x="227.303" y="60.0781" width="0.952153" height="4.76077" rx="0.476077" fill="#D5D5D5"/>
<rect x="244.061" y="60.0781" width="0.952153" height="4.76077" rx="0.476077" fill="#D5D5D5"/>
<rect x="260.818" y="60.0781" width="0.952153" height="4.76077" rx="0.476077" fill="#D5D5D5"/>
<rect x="277.577" width="1" height="61.9809" rx="0.5" fill="#D5D5D5"/>
<rect x="277.577" y="60.0781" width="0.952153" height="4.76077" rx="0.476077" fill="#D5D5D5"/>
<path d="M269.781 83.6445H264.529C264.462 83.6445 264.449 83.6045 264.449 83.5512V82.9514C264.449 82.8847 264.462 82.8581 264.502 82.8181C265.062 82.3782 266.035 81.5784 266.942 80.6852C268.222 79.4589 268.528 78.6324 268.528 77.7793C268.528 76.8195 268.008 76.0463 266.769 76.0463C265.955 76.0463 265.369 76.2996 264.796 76.6329C264.742 76.6729 264.702 76.6462 264.702 76.5929V75.7398C264.702 75.6731 264.702 75.6598 264.756 75.6198C265.382 75.2599 266.129 75.0199 266.982 75.0199C268.821 75.0199 269.648 76.273 269.648 77.6593C269.648 78.6857 269.288 79.6721 268.062 80.8852C267.262 81.7117 266.569 82.2982 266.075 82.7114C266.529 82.6714 266.969 82.6714 268.168 82.6714H270.008C270.074 82.6714 270.101 82.6848 270.088 82.7381L269.888 83.5646C269.861 83.6312 269.848 83.6445 269.781 83.6445ZM273.911 75.993C272.884 75.993 272.125 77.0594 272.125 79.3522C272.125 81.3651 272.711 82.7914 273.964 82.7914C275.217 82.7914 275.71 81.4584 275.71 79.3922C275.71 77.1261 275.071 75.993 273.911 75.993ZM273.951 83.7778C271.871 83.7778 271.005 81.805 271.005 79.3789C271.005 76.9661 272.005 75.0199 273.938 75.0199C276.31 75.0199 276.83 77.486 276.83 79.3789C276.83 81.5384 276.164 83.7778 273.951 83.7778ZM280.94 75.993C279.914 75.993 279.154 77.0594 279.154 79.3522C279.154 81.3651 279.741 82.7914 280.994 82.7914C282.247 82.7914 282.74 81.4584 282.74 79.3922C282.74 77.1261 282.1 75.993 280.94 75.993ZM280.98 83.7778C278.901 83.7778 278.034 81.805 278.034 79.3789C278.034 76.9661 279.034 75.0199 280.967 75.0199C283.34 75.0199 283.86 77.486 283.86 79.3789C283.86 81.5384 283.193 83.7778 280.98 83.7778ZM290.769 74.8333H291.822C291.916 74.8333 291.929 74.9 291.889 74.9533L287.983 79.0456C287.957 79.0723 287.957 79.099 287.983 79.1389L292.196 83.5246C292.236 83.5779 292.209 83.6445 292.142 83.6445H290.969C290.903 83.6445 290.863 83.6312 290.796 83.5646L286.704 79.3122C286.624 79.2323 286.624 79.1789 286.704 79.1123L290.636 74.9C290.676 74.86 290.703 74.8333 290.769 74.8333ZM286.637 74.9266V83.5512C286.637 83.6179 286.61 83.6445 286.557 83.6445H285.624C285.557 83.6445 285.531 83.6179 285.531 83.5379V74.9133C285.531 74.86 285.544 74.8333 285.611 74.8333H286.557C286.61 74.8333 286.637 74.86 286.637 74.9266Z" fill="#909090"/>
<rect x="294.334" y="60.0781" width="0.952153" height="4.76077" rx="0.476077" fill="#D5D5D5"/>
<rect x="311.092" y="60.0781" width="0.952153" height="4.76077" rx="0.476077" fill="#D5D5D5"/>
<rect x="327.85" y="60.0781" width="0.952153" height="4.76077" rx="0.476077" fill="#D5D5D5"/>
<rect x="344.608" y="60.0781" width="0.952153" height="4.76077" rx="0.476077" fill="#D5D5D5"/>
<rect x="361.366" width="1" height="61.9809" rx="0.5" fill="#D5D5D5"/>
<rect x="361.366" y="60.0781" width="0.952153" height="4.76077" rx="0.476077" fill="#D5D5D5"/>
<path d="M350.373 79.6721H349.813C349.746 79.6721 349.72 79.6455 349.72 79.5922V78.7524C349.72 78.699 349.733 78.6591 349.8 78.6591H350.293C351.466 78.6591 352.186 78.2058 352.186 77.3527C352.186 76.6062 351.693 76.033 350.52 76.033C349.826 76.033 349.24 76.193 348.6 76.5662C348.533 76.5929 348.52 76.5796 348.52 76.5262V75.6731C348.52 75.6198 348.52 75.5931 348.573 75.5531C349.147 75.2332 349.906 75.0333 350.706 75.0333C352.372 75.0333 353.279 75.953 353.279 77.2194C353.279 78.2858 352.479 78.8723 351.879 79.0723C352.652 79.2456 353.705 79.8454 353.705 81.2184C353.705 82.8581 352.359 83.7778 350.56 83.7778C349.693 83.7778 348.96 83.6179 348.4 83.2979C348.347 83.2713 348.347 83.218 348.347 83.1646V82.2449C348.347 82.1915 348.387 82.1649 348.427 82.1915C349.12 82.5914 349.773 82.7781 350.546 82.7781C351.986 82.7781 352.572 82.0582 352.572 81.2184C352.572 80.152 351.693 79.6721 350.373 79.6721ZM357.778 75.993C356.752 75.993 355.992 77.0594 355.992 79.3522C355.992 81.3651 356.578 82.7914 357.831 82.7914C359.084 82.7914 359.578 81.4584 359.578 79.3922C359.578 77.1261 358.938 75.993 357.778 75.993ZM357.818 83.7778C355.739 83.7778 354.872 81.805 354.872 79.3789C354.872 76.9661 355.872 75.0199 357.805 75.0199C360.177 75.0199 360.697 77.486 360.697 79.3789C360.697 81.5384 360.031 83.7778 357.818 83.7778ZM364.808 75.993C363.781 75.993 363.021 77.0594 363.021 79.3522C363.021 81.3651 363.608 82.7914 364.861 82.7914C366.114 82.7914 366.607 81.4584 366.607 79.3922C366.607 77.1261 365.967 75.993 364.808 75.993ZM364.848 83.7778C362.768 83.7778 361.902 81.805 361.902 79.3789C361.902 76.9661 362.901 75.0199 364.834 75.0199C367.207 75.0199 367.727 77.486 367.727 79.3789C367.727 81.5384 367.06 83.7778 364.848 83.7778ZM374.636 74.8333H375.69C375.783 74.8333 375.796 74.9 375.756 74.9533L371.85 79.0456C371.824 79.0723 371.824 79.099 371.85 79.1389L376.063 83.5246C376.103 83.5779 376.076 83.6445 376.009 83.6445H374.836C374.77 83.6445 374.73 83.6312 374.663 83.5646L370.571 79.3122C370.491 79.2323 370.491 79.1789 370.571 79.1123L374.503 74.9C374.543 74.86 374.57 74.8333 374.636 74.8333ZM370.504 74.9266V83.5512C370.504 83.6179 370.477 83.6445 370.424 83.6445H369.491C369.424 83.6445 369.398 83.6179 369.398 83.5379V74.9133C369.398 74.86 369.411 74.8333 369.478 74.8333H370.424C370.477 74.8333 370.504 74.86 370.504 74.9266Z" fill="#909090"/>
<path d="M201.507 101.607V106.859C201.507 108.125 202.12 108.965 203.399 108.965C204.453 108.965 205.239 108.458 205.239 106.832V101.62C205.239 101.54 205.266 101.5 205.346 101.5H206.745C206.825 101.5 206.852 101.54 206.852 101.607V106.912C206.852 109.405 205.319 110.391 203.346 110.391C201.24 110.391 199.894 109.271 199.894 106.979V101.62C199.894 101.54 199.907 101.5 200 101.5H201.4C201.48 101.5 201.507 101.527 201.507 101.607ZM208.407 110.151V105.219C208.407 104.766 208.38 104.046 208.353 103.779C208.353 103.713 208.367 103.686 208.447 103.686H209.66C209.753 103.686 209.793 103.713 209.82 103.779C209.86 103.899 209.886 104.073 209.913 104.286C210.486 103.806 211.126 103.553 211.846 103.553C212.845 103.553 214.072 104.059 214.072 106.192V110.138C214.072 110.231 214.032 110.258 213.965 110.258H212.579C212.499 110.258 212.459 110.218 212.459 110.138V106.339C212.459 105.459 212.086 104.952 211.313 104.952C210.779 104.952 210.339 105.152 210.02 105.499V110.151C210.02 110.218 209.98 110.258 209.913 110.258H208.513C208.433 110.258 208.407 110.218 208.407 110.151ZM215.749 110.138V103.779C215.749 103.713 215.789 103.686 215.855 103.686H217.268C217.348 103.686 217.375 103.699 217.375 103.779V110.151C217.375 110.231 217.348 110.258 217.255 110.258H215.882C215.789 110.258 215.749 110.218 215.749 110.138ZM216.562 102.793C216.015 102.793 215.655 102.42 215.655 101.873C215.655 101.327 216.042 100.953 216.575 100.953C217.148 100.953 217.481 101.34 217.481 101.873C217.481 102.42 217.122 102.793 216.562 102.793ZM221.934 110.391C220.121 110.391 218.642 109.178 218.642 107.059C218.642 105.139 220.028 103.553 222.441 103.553C223.361 103.553 224.134 103.726 224.654 103.926C224.68 103.939 224.68 103.966 224.68 104.019C224.654 104.259 224.627 104.699 224.627 104.859V112.777C224.627 112.831 224.614 112.871 224.547 112.884C224.067 112.937 223.161 113.017 223.107 113.017C223.041 113.017 223.027 112.977 223.027 112.911V110.244C222.628 110.351 222.294 110.391 221.934 110.391ZM223.027 108.885V104.979C222.814 104.926 222.588 104.899 222.308 104.899C221.135 104.899 220.295 105.659 220.295 106.952C220.295 108.338 221.215 108.991 222.201 108.991C222.548 108.991 222.774 108.951 223.027 108.885ZM231.891 103.779V108.791C231.891 109.485 231.944 109.885 231.971 110.165C231.984 110.231 231.944 110.258 231.864 110.258H230.638C230.545 110.258 230.518 110.231 230.505 110.178C230.465 110.045 230.425 109.845 230.411 109.711C229.838 110.244 229.158 110.391 228.558 110.391C227.292 110.391 226.319 109.711 226.319 107.845V103.779C226.319 103.699 226.346 103.686 226.426 103.686H227.825C227.905 103.686 227.919 103.713 227.919 103.779V107.658C227.919 108.485 228.278 108.991 229.078 108.991C229.585 108.991 229.958 108.818 230.291 108.512V103.779C230.291 103.713 230.318 103.686 230.398 103.686H231.798C231.878 103.686 231.891 103.713 231.891 103.779ZM237.502 107.339H234.796C234.836 108.272 235.449 109.018 236.809 109.018C237.409 109.018 237.955 108.911 238.462 108.698C238.502 108.672 238.542 108.685 238.542 108.752V109.858C238.542 109.938 238.515 109.978 238.462 110.005C237.955 110.244 237.369 110.391 236.462 110.391C234.036 110.391 233.17 108.685 233.17 107.045C233.17 105.192 234.289 103.553 236.302 103.553C238.275 103.553 239.035 105.099 239.035 106.365C239.035 106.739 239.022 107.045 238.982 107.192C238.968 107.245 238.942 107.272 238.875 107.285C238.688 107.325 238.155 107.339 237.502 107.339ZM234.796 106.192H236.782C237.289 106.192 237.462 106.192 237.515 106.179C237.515 106.139 237.515 106.085 237.515 106.072C237.515 105.686 237.249 104.832 236.236 104.832C235.316 104.832 234.903 105.539 234.796 106.192ZM243.333 103.686H244.586C244.666 103.686 244.706 103.713 244.733 103.793C244.8 103.966 244.853 104.299 244.866 104.593C245.32 104.033 246.079 103.553 246.999 103.553C247.079 103.553 247.106 103.566 247.106 103.646V105.059C247.106 105.126 247.079 105.152 246.986 105.152C246.039 105.126 245.253 105.459 244.946 105.859V110.151C244.946 110.231 244.906 110.258 244.826 110.258H243.44C243.347 110.258 243.32 110.218 243.32 110.151V105.552C243.32 104.979 243.307 104.206 243.253 103.766C243.253 103.699 243.267 103.686 243.333 103.686ZM252.004 107.339H249.298C249.338 108.272 249.951 109.018 251.31 109.018C251.91 109.018 252.457 108.911 252.963 108.698C253.003 108.672 253.043 108.685 253.043 108.752V109.858C253.043 109.938 253.017 109.978 252.963 110.005C252.457 110.244 251.87 110.391 250.964 110.391C248.538 110.391 247.671 108.685 247.671 107.045C247.671 105.192 248.791 103.553 250.804 103.553C252.777 103.553 253.537 105.099 253.537 106.365C253.537 106.739 253.523 107.045 253.483 107.192C253.47 107.245 253.443 107.272 253.377 107.285C253.19 107.325 252.657 107.339 252.004 107.339ZM249.298 106.192H251.284C251.79 106.192 251.964 106.192 252.017 106.179C252.017 106.139 252.017 106.085 252.017 106.072C252.017 105.686 251.75 104.832 250.737 104.832C249.817 104.832 249.404 105.539 249.298 106.192ZM258.148 108.965V107.325C257.948 107.299 257.722 107.285 257.415 107.285C256.362 107.285 255.895 107.632 255.895 108.205C255.895 108.698 256.242 109.125 257.202 109.125C257.548 109.125 257.855 109.085 258.148 108.965ZM259.708 106.192V108.898C259.708 109.191 259.708 109.458 259.734 109.738C259.734 109.765 259.734 109.778 259.708 109.791C258.615 110.258 257.842 110.391 256.935 110.391C255.482 110.391 254.322 109.711 254.322 108.205C254.322 106.792 255.589 106.085 257.322 106.085C257.722 106.085 258.028 106.099 258.148 106.112V105.952C258.148 105.646 257.975 104.952 256.802 104.952C256.135 104.952 255.549 105.086 255.056 105.326C255.016 105.339 254.949 105.326 254.949 105.246V104.086C254.949 104.019 254.962 103.993 255.029 103.953C255.602 103.686 256.335 103.553 257.055 103.553C258.908 103.553 259.708 104.712 259.708 106.192ZM265.909 108.885V110.071C265.909 110.138 265.896 110.165 265.842 110.178C265.416 110.351 264.882 110.391 264.363 110.391C262.203 110.391 260.923 108.911 260.923 106.992C260.923 105.019 262.39 103.553 264.589 103.553C265.256 103.553 265.616 103.619 265.842 103.699C265.896 103.726 265.909 103.766 265.909 103.846L265.896 105.032C265.896 105.126 265.842 105.126 265.789 105.112C265.509 105.006 265.162 104.939 264.642 104.939C263.429 104.939 262.576 105.659 262.576 106.939C262.576 108.392 263.629 108.951 264.656 108.951C265.136 108.951 265.549 108.911 265.816 108.818C265.882 108.791 265.909 108.831 265.909 108.885ZM268.755 105.419V110.165C268.755 110.231 268.742 110.258 268.662 110.258H267.249C267.169 110.258 267.143 110.218 267.143 110.151V100.86C267.143 100.807 267.169 100.767 267.249 100.767H268.662C268.742 100.767 268.755 100.793 268.755 100.86V104.166C269.262 103.793 269.822 103.553 270.582 103.553C271.595 103.553 272.808 104.059 272.808 106.192V110.138C272.808 110.231 272.768 110.258 272.701 110.258H271.315C271.235 110.258 271.195 110.218 271.195 110.138V106.352C271.195 105.459 270.808 104.952 270.035 104.952C269.542 104.952 269.102 105.112 268.755 105.419Z" fill="#222222"/>
<path d="M3.55638 39.1613V31.9763H0.850361C0.78371 31.9763 0.75705 31.9363 0.77038 31.8697L0.943672 30.63C0.957002 30.55 0.983662 30.5233 1.06364 30.5233H7.68872C7.76871 30.5233 7.8087 30.55 7.82203 30.6433L7.942 31.8564C7.95533 31.9363 7.91534 31.9763 7.84869 31.9763H5.156V39.1613C5.156 39.2413 5.11601 39.2812 5.04936 39.2812H3.67635C3.58304 39.2946 3.55638 39.2546 3.55638 39.1613ZM11.309 37.9882V36.3486C11.1091 36.322 10.8824 36.3086 10.5758 36.3086C9.52276 36.3086 9.05621 36.6552 9.05621 37.2284C9.05621 37.7216 9.40279 38.1482 10.3626 38.1482C10.7091 38.1482 11.0157 38.1082 11.309 37.9882ZM12.8686 35.2156V37.9216C12.8686 38.2148 12.8686 38.4814 12.8953 38.7614C12.8953 38.788 12.8953 38.8014 12.8686 38.8147C11.7756 39.2812 11.0024 39.4146 10.096 39.4146C8.64297 39.4146 7.48325 38.7347 7.48325 37.2284C7.48325 35.8154 8.74962 35.1089 10.4825 35.1089C10.8824 35.1089 11.189 35.1222 11.309 35.1356V34.9756C11.309 34.669 11.1357 33.9759 9.96266 33.9759C9.29615 33.9759 8.70963 34.1092 8.21641 34.3491C8.17642 34.3624 8.10977 34.3491 8.10977 34.2691V33.1094C8.10977 33.0427 8.1231 33.0161 8.18975 32.9761C8.76295 32.7095 9.4961 32.5762 10.2159 32.5762C12.0688 32.5762 12.8686 33.7359 12.8686 35.2156ZM14.5628 32.7095H15.8158C15.8958 32.7095 15.9358 32.7361 15.9625 32.8161C16.0291 32.9894 16.0824 33.3227 16.0958 33.6159C16.549 33.0561 17.3088 32.5762 18.2286 32.5762C18.3086 32.5762 18.3352 32.5895 18.3352 32.6695V34.0825C18.3352 34.1491 18.3086 34.1758 18.2153 34.1758C17.2688 34.1491 16.4823 34.4824 16.1758 34.8823V39.1746C16.1758 39.2546 16.1358 39.2812 16.0558 39.2812H14.6694C14.5761 39.2812 14.5495 39.2413 14.5495 39.1746V34.5757C14.5495 34.0025 14.5361 33.2294 14.4828 32.7895C14.4828 32.7228 14.4962 32.7095 14.5628 32.7095ZM22.2621 39.2413L20.8091 39.1746C20.4226 39.4412 20.1693 39.8678 20.1693 40.0677C20.1693 40.5343 20.8091 41.0542 21.9155 41.0542C23.1819 41.0542 23.7418 40.5343 23.7418 40.0277C23.7418 39.4412 23.0753 39.2812 22.2621 39.2413ZM21.6223 33.7359C20.9558 33.7359 20.5425 34.1491 20.5425 34.829C20.5425 35.4422 20.9158 35.8954 21.6223 35.8954C22.2888 35.8954 22.6887 35.5088 22.6887 34.8556C22.6887 34.2291 22.3688 33.7359 21.6223 33.7359ZM21.249 37.8283L22.6087 37.8816C24.4349 37.9749 25.2214 38.6947 25.2214 39.7878C25.2214 41.1475 23.8884 42.2405 21.8089 42.2405C19.6627 42.2405 18.6896 41.1608 18.6896 40.1877C18.6896 39.7611 19.0495 39.2146 19.9293 38.4548C19.7294 38.1615 19.6361 37.8149 19.6494 37.455C19.6494 37.1484 19.7294 36.8552 19.8893 36.5886C19.3428 36.242 18.9696 35.6688 18.9696 34.8556C18.9696 33.5759 19.9427 32.5762 21.6223 32.5762C22.0888 32.5762 22.5154 32.6162 22.7953 32.6695C22.9153 32.6962 23.0219 32.7095 23.1019 32.7095H24.9548C25.0215 32.7095 25.0348 32.7361 25.0348 32.7895V33.8825C25.0348 33.9359 25.0215 33.9625 24.9548 33.9625C24.7015 33.9625 24.2216 33.9359 23.9284 33.8959C24.075 34.1092 24.2216 34.4291 24.2216 34.909C24.2216 36.3353 23.0886 37.0551 21.6489 37.0551C21.4756 37.0551 21.289 37.0418 21.1157 37.0151C21.0757 37.1484 21.0491 37.2817 21.0757 37.415C21.0891 37.5617 21.1424 37.695 21.249 37.8283ZM29.8851 36.3619H27.1791C27.219 37.2951 27.8322 38.0415 29.1919 38.0415C29.7918 38.0415 30.3383 37.9349 30.8448 37.7216C30.8848 37.695 30.9248 37.7083 30.9248 37.7749V38.8813C30.9248 38.9613 30.8982 39.0013 30.8448 39.028C30.3383 39.2679 29.7518 39.4146 28.8453 39.4146C26.4192 39.4146 25.5528 37.7083 25.5528 36.0687C25.5528 34.2158 26.6725 32.5762 28.6854 32.5762C30.6582 32.5762 31.418 34.1225 31.418 35.3888C31.418 35.7621 31.4047 36.0687 31.3647 36.2153C31.3514 36.2686 31.3247 36.2953 31.2581 36.3086C31.0715 36.3486 30.5383 36.3619 29.8851 36.3619ZM27.1791 35.2156H29.1653C29.6718 35.2156 29.8451 35.2156 29.8984 35.2022C29.8984 35.1622 29.8984 35.1089 29.8984 35.0956C29.8984 34.709 29.6318 33.8559 28.6187 33.8559C27.6989 33.8559 27.2857 34.5624 27.1791 35.2156ZM35.9323 38.1082V39.068C35.9323 39.1479 35.9189 39.2013 35.8523 39.2279C35.4924 39.3612 35.1591 39.4146 34.7192 39.4146C33.6262 39.4146 32.973 38.8813 32.973 37.5617V34.0558H32.1332C32.0665 34.0425 32.0399 34.0158 32.0399 33.9359V32.8161C32.0399 32.7361 32.0665 32.7095 32.1465 32.7095H32.9863C32.9996 32.2429 33.053 31.4031 33.1196 31.0699C33.1329 31.0032 33.1596 30.9632 33.2263 30.9499L34.5726 30.7633C34.6393 30.75 34.6659 30.7633 34.6659 30.8299C34.6259 31.2698 34.5993 32.0563 34.5993 32.7095H35.8923C35.9589 32.7095 35.9856 32.7361 35.9856 32.8028V33.9625C35.9856 34.0292 35.9589 34.0558 35.8923 34.0558H34.5859V37.2151C34.5859 37.8016 34.7726 38.0815 35.3458 38.0815C35.519 38.0815 35.6657 38.0682 35.8523 38.0282C35.8923 38.0149 35.9323 38.0282 35.9323 38.1082ZM43.4497 37.9882V36.3486C43.2498 36.322 43.0232 36.3086 42.7166 36.3086C41.6635 36.3086 41.197 36.6552 41.197 37.2284C41.197 37.7216 41.5435 38.1482 42.5033 38.1482C42.8499 38.1482 43.1565 38.1082 43.4497 37.9882ZM45.0094 35.2156V37.9216C45.0094 38.2148 45.0094 38.4814 45.036 38.7614C45.036 38.788 45.036 38.8014 45.0094 38.8147C43.9163 39.2812 43.1432 39.4146 42.2367 39.4146C40.7837 39.4146 39.624 38.7347 39.624 37.2284C39.624 35.8154 40.8904 35.1089 42.6233 35.1089C43.0232 35.1089 43.3298 35.1222 43.4497 35.1356V34.9756C43.4497 34.669 43.2765 33.9759 42.1034 33.9759C41.4369 33.9759 40.8504 34.1092 40.3572 34.3491C40.3172 34.3624 40.2505 34.3491 40.2505 34.2691V33.1094C40.2505 33.0427 40.2638 33.0161 40.3305 32.9761C40.9037 32.7095 41.6368 32.5762 42.3567 32.5762C44.2096 32.5762 45.0094 33.7359 45.0094 35.2156ZM52.1711 32.8028V37.8149C52.1711 38.5081 52.2244 38.908 52.2511 39.1879C52.2644 39.2546 52.2244 39.2812 52.1444 39.2812H50.9181C50.8248 39.2812 50.7981 39.2546 50.7848 39.2013C50.7448 39.068 50.7048 38.868 50.6915 38.7347C50.1183 39.2679 49.4384 39.4146 48.8386 39.4146C47.5722 39.4146 46.5991 38.7347 46.5991 36.8685V32.8028C46.5991 32.7228 46.6258 32.7095 46.7057 32.7095H48.1054C48.1854 32.7095 48.1987 32.7361 48.1987 32.8028V36.6819C48.1987 37.5083 48.5586 38.0149 49.3584 38.0149C49.865 38.0149 50.2382 37.8416 50.5715 37.535V32.8028C50.5715 32.7361 50.5981 32.7095 50.6781 32.7095H52.0778C52.1578 32.7095 52.1711 32.7361 52.1711 32.8028ZM56.8623 39.4146C54.9294 39.4146 53.4498 38.2948 53.4498 36.0554C53.4498 34.1225 54.8894 32.5762 57.2355 32.5762C57.4221 32.5762 57.5821 32.5895 57.8087 32.6162V29.8835C57.8087 29.8168 57.8354 29.7902 57.8887 29.7902H59.3417C59.4083 29.7902 59.4083 29.8168 59.4083 29.8702V37.9216C59.4083 38.1882 59.435 38.5348 59.4616 38.7747C59.4616 38.8414 59.4483 38.868 59.3817 38.8947C58.5152 39.2679 57.6621 39.4146 56.8623 39.4146ZM57.8087 37.9216V34.0158C57.6354 33.9492 57.4221 33.9225 57.1822 33.9225C55.9958 33.9225 55.1027 34.6824 55.1027 35.9754C55.1027 37.4284 55.9691 38.0282 57.0356 38.0282C57.3022 38.0282 57.5688 38.0016 57.8087 37.9216ZM61.0618 39.1613V32.8028C61.0618 32.7361 61.1018 32.7095 61.1684 32.7095H62.5814C62.6614 32.7095 62.6881 32.7228 62.6881 32.8028V39.1746C62.6881 39.2546 62.6614 39.2812 62.5681 39.2812H61.1951C61.1018 39.2812 61.0618 39.2413 61.0618 39.1613ZM61.8749 31.8164C61.3284 31.8164 60.9685 31.4431 60.9685 30.8966C60.9685 30.3501 61.355 29.9768 61.8883 29.9768C62.4614 29.9768 62.7947 30.3634 62.7947 30.8966C62.7947 31.4431 62.4348 31.8164 61.8749 31.8164ZM68.2873 36.3619H65.5813C65.6213 37.2951 66.2345 38.0415 67.5942 38.0415C68.194 38.0415 68.7406 37.9349 69.2471 37.7216C69.2871 37.695 69.3271 37.7083 69.3271 37.7749V38.8813C69.3271 38.9613 69.3004 39.0013 69.2471 39.028C68.7406 39.2679 68.154 39.4146 67.2476 39.4146C64.8215 39.4146 63.955 37.7083 63.955 36.0687C63.955 34.2158 65.0748 32.5762 67.0876 32.5762C69.0605 32.5762 69.8203 34.1225 69.8203 35.3888C69.8203 35.7621 69.807 36.0687 69.767 36.2153C69.7537 36.2686 69.727 36.2953 69.6604 36.3086C69.4737 36.3486 68.9405 36.3619 68.2873 36.3619ZM65.5813 35.2156H67.5675C68.0741 35.2156 68.2474 35.2156 68.3007 35.2022C68.3007 35.1622 68.3007 35.1089 68.3007 35.0956C68.3007 34.709 68.0341 33.8559 67.021 33.8559C66.1012 33.8559 65.688 34.5624 65.5813 35.2156ZM71.0594 39.1746V34.2425C71.0594 33.7892 71.0327 33.0694 71.0061 32.8028C71.0061 32.7361 71.0194 32.7095 71.0994 32.7095H72.3124C72.4057 32.7095 72.4457 32.7361 72.4724 32.8028C72.5124 32.9228 72.539 33.0961 72.5657 33.3093C73.1389 32.8295 73.7787 32.5762 74.4986 32.5762C75.4983 32.5762 76.7247 33.0827 76.7247 35.2156V39.1613C76.7247 39.2546 76.6847 39.2812 76.6181 39.2812H75.2317C75.1517 39.2812 75.1118 39.2413 75.1118 39.1613V35.3622C75.1118 34.4824 74.7385 33.9759 73.9654 33.9759C73.4322 33.9759 72.9923 34.1758 72.6723 34.5224V39.1746C72.6723 39.2413 72.6323 39.2812 72.5657 39.2812H71.166C71.086 39.2812 71.0594 39.2413 71.0594 39.1746ZM82.9736 37.9082V39.0946C82.9736 39.1613 82.9603 39.1879 82.907 39.2013C82.4804 39.3746 81.9472 39.4146 81.4273 39.4146C79.2678 39.4146 77.9881 37.9349 77.9881 36.0154C77.9881 34.0425 79.4545 32.5762 81.6539 32.5762C82.3204 32.5762 82.6804 32.6428 82.907 32.7228C82.9603 32.7495 82.9736 32.7895 82.9736 32.8695L82.9603 34.0558C82.9603 34.1491 82.907 34.1491 82.8537 34.1358C82.5737 34.0292 82.2271 33.9625 81.7073 33.9625C80.4942 33.9625 79.6411 34.6824 79.6411 35.962C79.6411 37.415 80.6942 37.9749 81.7206 37.9749C82.2005 37.9749 82.6137 37.9349 82.8803 37.8416C82.947 37.8149 82.9736 37.8549 82.9736 37.9082ZM88.0613 36.3619H85.3552C85.3952 37.2951 86.0084 38.0415 87.3681 38.0415C87.9679 38.0415 88.5145 37.9349 89.021 37.7216C89.061 37.695 89.101 37.7083 89.101 37.7749V38.8813C89.101 38.9613 89.0744 39.0013 89.021 39.028C88.5145 39.2679 87.928 39.4146 87.0215 39.4146C84.5954 39.4146 83.729 37.7083 83.729 36.0687C83.729 34.2158 84.8487 32.5762 86.8615 32.5762C88.8344 32.5762 89.5942 34.1225 89.5942 35.3888C89.5942 35.7621 89.5809 36.0687 89.5409 36.2153C89.5276 36.2686 89.5009 36.2953 89.4343 36.3086C89.2476 36.3486 88.7144 36.3619 88.0613 36.3619ZM85.3552 35.2156H87.3414C87.848 35.2156 88.0213 35.2156 88.0746 35.2022C88.0746 35.1622 88.0746 35.1089 88.0746 35.0956C88.0746 34.709 87.808 33.8559 86.7949 33.8559C85.8751 33.8559 85.4619 34.5624 85.3552 35.2156ZM94.6683 34.2558C94.2551 34.0292 93.5886 33.8692 93.0021 33.8692C92.2956 33.8692 92.0556 34.1625 92.0556 34.4424C92.0556 34.7357 92.2556 34.9356 93.1087 35.2689C94.6283 35.8287 95.1482 36.4286 95.1482 37.375C95.1482 38.6281 94.1618 39.4146 92.5222 39.4146C91.7357 39.4146 91.0425 39.2679 90.6426 39.0413C90.576 39.0013 90.5493 38.9747 90.5493 38.8947V37.6283C90.5493 37.5617 90.6026 37.535 90.656 37.5617C91.2291 37.9349 91.9623 38.0949 92.5622 38.0949C93.2553 38.0949 93.5886 37.8549 93.5886 37.5083C93.5886 37.1751 93.3353 36.9618 92.5088 36.6286C91.0559 36.0953 90.536 35.4955 90.536 34.5357C90.536 33.5226 91.3624 32.5762 93.0287 32.5762C93.8019 32.5762 94.3884 32.6828 94.7083 32.8428C94.775 32.8828 94.7883 32.9361 94.7883 33.0028V34.1758C94.7883 34.2425 94.7483 34.2824 94.6683 34.2558Z" fill="#222222"/>
<path d="M314.714 20.9492H353.752C354.804 20.9492 355.656 21.8018 355.656 22.8535V44.753C355.656 45.8048 354.804 46.6574 353.752 46.6574H314.714V20.9492Z" fill="#4513BF"/>
<path d="M287.102 20.9492H313.762V46.6574H287.102V20.9492Z" fill="#F02D6E"/>
<path d="M212.833 20.9492H286.149V46.6574H212.833V20.9492Z" fill="#FC7D00"/>
<path d="M162.37 20.9492H211.882V46.6574H162.37V20.9492Z" fill="#7A6AFD"/>
<path d="M111.905 20.9492H161.417V46.6574H111.905V20.9492Z" fill="#0FB5AE"/>
</svg>
