<svg style="max-height: 157px; background: var(--anatomy-gray-100); padding: 32px; margin-bottom: 8px; width: calc(100% - 64px); border-radius: var(--anatomy-radius);" viewBox="0 0 479 157">
  <defs>
    <filter id="a" x="223" y="24" width="206" height="44" filterUnits="userSpaceOnUse">
      <feOffset dy="1" input="SourceAlpha" />
      <feGaussianBlur stdDeviation="2" result="b" />
      <feFlood flood-opacity="0.149" />
      <feComposite operator="in" in2="b" />
      <feComposite in="SourceGraphic" />
    </filter>
  </defs>
  <g transform="translate(-631 -609)">
    <g transform="translate(538 434)">
      <g transform="translate(-3217 -782)">
        <path d="M4,0H189.812a4,4,0,0,1,4,4V28a4,4,0,0,1-4,4H4a4,4,0,0,1-4-4V4A4,4,0,0,1,4,0Z" transform="translate(3310 1025)" fill="var(--anatomy-gray-300)" opacity="0.503" /><text transform="translate(3348 1031)" fill="var(--anatomy-gray-800)" font-size="14" font-family="var(--anatomy-font)" opacity="0.5">
          <tspan x="0" y="14">Pictures</tspan>
        </text>
        <g transform="translate(3322 1030)" opacity="0.5">
          <rect width="18" height="18" fill="var(--anatomy-gray-600)" opacity="0" />
          <path d="M16.5,4H9.334L7.682,2.3A1,1,0,0,0,6.965,2H2A1,1,0,0,0,1,3V14.5a.5.5,0,0,0,.5.5h15a.5.5,0,0,0,.5-.5V4.5A.5.5,0,0,0,16.5,4ZM2,3H6.965L8.908,5H2Z" transform="translate(0 2)" fill="var(--anatomy-gray-700)" />
        </g>
        <path d="M4,0H189.812a4,4,0,0,1,4,4V28a4,4,0,0,1-4,4H4a4,4,0,0,1-4-4V4A4,4,0,0,1,4,0Z" transform="translate(3310 989)" fill="var(--anatomy-gray-300)" opacity="0.498" />
      </g>
      <g transform="translate(-3217 -814)" opacity="0.504"><text transform="translate(3348 1027)" fill="var(--anatomy-gray-800)" font-size="14" font-family="var(--anatomy-font)">
          <tspan x="0" y="14">Music</tspan>
        </text>
        <g transform="translate(3322 1028)">
          <rect width="18" height="18" fill="var(--anatomy-gray-600)" opacity="0" />
          <path d="M16.5,4H9.334L7.682,2.3A1,1,0,0,0,6.965,2H2A1,1,0,0,0,1,3V14.5a.5.5,0,0,0,.5.5h15a.5.5,0,0,0,.5-.5V4.5A.5.5,0,0,0,16.5,4ZM2,3H6.965L8.908,5H2Z" fill="var(--anatomy-gray-700)" />
        </g>
      </g>
      <g transform="translate(-3217 -846)">
        <rect width="193.812" height="32" rx="4" transform="translate(3310 1021)" fill="var(--anatomy-gray-900)" fill-opacity="0.06" opacity="0" /><text transform="translate(3348 1027)" fill="var(--anatomy-gray-800)" font-size="14" font-family="var(--anatomy-font)">
          <tspan x="0" y="14">Documents</tspan>
        </text>
        <g transform="translate(3322 1028)">
          <rect width="18" height="18" fill="var(--anatomy-gray-600)" opacity="0" />
          <path d="M16.5,4H9.334L7.682,2.3A1,1,0,0,0,6.965,2H2A1,1,0,0,0,1,3V14.5a.5.5,0,0,0,.5.5h15a.5.5,0,0,0,.5-.5V4.5A.5.5,0,0,0,16.5,4ZM2,3H6.965L8.908,5H2Z" fill="var(--anatomy-gray-700)" />
        </g>
      </g>
      <g transform="translate(-3217 -750)">
        <rect width="193.812" height="32" rx="4" transform="translate(3310 1021)" fill="var(--anatomy-gray-900)" fill-opacity="0.06" opacity="0" /><text transform="translate(3348 1031)" fill="var(--anatomy-gray-800)" font-size="14" font-family="var(--anatomy-font)">
          <tspan x="0" y="14">Videos</tspan>
        </text>
        <g transform="translate(3322 1032)">
          <rect width="18" height="18" fill="var(--anatomy-gray-600)" opacity="0" />
          <path d="M16.5,4H9.334L7.682,2.3A1,1,0,0,0,6.965,2H2A1,1,0,0,0,1,3V14.5a.5.5,0,0,0,.5.5h15a.5.5,0,0,0,.5-.5V4.5A.5.5,0,0,0,16.5,4ZM2,3H6.965L8.908,5H2Z" fill="var(--anatomy-gray-700)" />
        </g>
      </g>
    </g>
    <g transform="translate(267 493)">
      <g transform="translate(-265 -52)">
        <g transform="translate(-2405 -782)">
          <rect width="193.812" height="32" rx="4" transform="translate(3310 1021)" fill="var(--anatomy-gray-900)" fill-opacity="0.06" opacity="0" /><text transform="translate(3348 1027)" fill="var(--anatomy-gray-800)" font-size="14" font-family="var(--anatomy-font)">
            <tspan x="0" y="14">Applications</tspan>
          </text>
          <g transform="translate(3322 1028)">
            <rect width="18" height="18" fill="var(--anatomy-gray-600)" opacity="0" />
            <path d="M16.5,4H9.334L7.682,2.3A1,1,0,0,0,6.965,2H2A1,1,0,0,0,1,3V14.5a.5.5,0,0,0,.5.5h15a.5.5,0,0,0,.5-.5V4.5A.5.5,0,0,0,16.5,4ZM2,3H6.965L8.908,5H2Z" fill="var(--anatomy-gray-700)" />
          </g>
        </g>
        <g transform="translate(-2405 -814)">
          <rect width="193.812" height="32" rx="4" transform="translate(3310 1021)" fill="var(--anatomy-gray-900)" fill-opacity="0.06" opacity="0" /><text transform="translate(3348 1027)" fill="var(--anatomy-gray-800)" font-size="14" font-family="var(--anatomy-font)">
            <tspan x="0" y="14">Folder</tspan>
          </text>
          <g transform="translate(3322 1028)">
            <rect width="18" height="18" fill="var(--anatomy-gray-600)" opacity="0" />
            <path d="M16.5,4H9.334L7.682,2.3A1,1,0,0,0,6.965,2H2A1,1,0,0,0,1,3V14.5a.5.5,0,0,0,.5.5h15a.5.5,0,0,0,.5-.5V4.5A.5.5,0,0,0,16.5,4ZM2,3H6.965L8.908,5H2Z" fill="var(--anatomy-gray-700)" />
          </g>
        </g>
        <g transform="translate(-2405 -750)">
          <rect width="193.812" height="32" rx="4" transform="translate(3310 1021)" fill="var(--anatomy-gray-900)" fill-opacity="0.06" opacity="0" /><text transform="translate(3348 1027)" fill="var(--anatomy-gray-800)" font-size="14" font-family="var(--anatomy-font)">
            <tspan x="0" y="14">Downloads</tspan>
          </text>
          <g transform="translate(3322 1028)">
            <rect width="18" height="18" fill="var(--anatomy-gray-600)" opacity="0" />
            <path d="M16.5,4H9.334L7.682,2.3A1,1,0,0,0,6.965,2H2A1,1,0,0,0,1,3V14.5a.5.5,0,0,0,.5.5h15a.5.5,0,0,0,.5-.5V4.5A.5.5,0,0,0,16.5,4ZM2,3H6.965L8.908,5H2Z" fill="var(--anatomy-gray-700)" />
          </g>
        </g>
        <g transform="translate(-2405 -846)">
          <g transform="translate(553 -48)">
            <g transform="translate(10 702)">
              <rect width="194" height="32" rx="4" transform="translate(2747 367)" fill="var(--anatomy-gray-100)" stroke="var(--anatomy-gray-900)" stroke-width="2" />
              <path d="M4,0H189.812a4,4,0,0,1,4,4V28a4,4,0,0,1-4,4H4a4,4,0,0,1-4-4V4A4,4,0,0,1,4,0Z" transform="translate(2747 367)" fill="var(--anatomy-gray-600)" fill-opacity="0.15" /><text transform="translate(2785 373)" fill="var(--anatomy-gray-800)" font-size="14" font-family="var(--anatomy-font)">
                <tspan x="0" y="14">Shared</tspan>
              </text>
              <g transform="translate(2759 374)">
                <rect width="18" height="18" fill="var(--anatomy-gray-600)" opacity="0" />
                <path d="M16.5,4H9.334L7.682,2.3A1,1,0,0,0,6.965,2H2A1,1,0,0,0,1,3V14.5a.5.5,0,0,0,.5.5h15a.5.5,0,0,0,.5-.5V4.5A.5.5,0,0,0,16.5,4ZM2,3H6.965L8.908,5H2Z" fill="var(--anatomy-gray-700)" />
              </g>
            </g>
          </g>
        </g>
      </g>
    </g>
    <g transform="translate(-67 589)">
      <g transform="translate(-2387 -976)">
        <g transform="translate(557 -44)">
          <g transform="translate(10 702)">
            <g transform="matrix(1, 0, 0, 1, 2518, 338)" filter="url(#a)">
              <g transform="translate(229 29)" fill="var(--anatomy-gray-100)" stroke="var(--anatomy-gray-700)" stroke-width="1">
                <rect width="194" height="32" rx="4" stroke="none" />
                <rect x="0.5" y="0.5" width="193" height="31" rx="3.5" fill="none" />
              </g>
            </g>
          </g>
        </g>
        <g transform="translate(553 -48)">
          <g transform="translate(10 702)">
            <g transform="translate(2747 367)" fill="var(--anatomy-gray-75)" stroke="var(--anatomy-gray-700)" stroke-width="1">
              <rect width="194" height="32" rx="4" stroke="none" />
              <rect x="0.5" y="0.5" width="193" height="31" rx="3.5" fill="none" />
            </g>
            <rect width="193.812" height="32" rx="4" transform="translate(2747 367)" fill="none" /><text transform="translate(2785 373)" fill="var(--anatomy-gray-800)" font-size="14" font-family="var(--anatomy-font)">
              <tspan x="0" y="14">Music</tspan>
            </text>
            <g transform="translate(2759 374)">
              <rect width="18" height="18" fill="var(--anatomy-gray-600)" opacity="0" />
              <path d="M16.5,4H9.334L7.682,2.3A1,1,0,0,0,6.965,2H2A1,1,0,0,0,1,3V14.5a.5.5,0,0,0,.5.5h15a.5.5,0,0,0,.5-.5V4.5A.5.5,0,0,0,16.5,4ZM2,3H6.965L8.908,5H2Z" fill="var(--anatomy-gray-700)" />
            </g>
          </g>
        </g>
        <g transform="translate(3478 1028)">
          <rect width="18" height="18" rx="4" fill="var(--anatomy-gray-800)" /><text transform="translate(2 1)" fill="var(--anatomy-gray-50)" font-size="12" font-family="var(--anatomy-font)">
            <tspan x="4.168" y="12">2</tspan>
          </text>
        </g>
      </g>
      <g transform="translate(1028 49)">
        <g opacity="0.01">
          <rect width="35" height="35" fill="#fff" />
        </g>
        <path d="M12,24.422V8.407L23.591,20.026H16.81l-.411.124Z" fill="#fff" fill-rule="evenodd" />
        <path d="M21.084,25.1l-3.6,1.535L12.8,15.542l3.686-1.553Z" fill="#fff" fill-rule="evenodd" />
        <path d="M19.751,24.416l-1.844.774-3.1-7.374,1.841-.775Z" fill-rule="evenodd" />
        <path d="M13,10.814V22l2.969-2.866L16.4,19h4.768Z" fill-rule="evenodd" />
      </g>
    </g><text transform="translate(865 762)" fill="var(--anatomy-gray-900)" font-size="14" font-family="var(--anatomy-font)" font-style="italic">
      <tspan x="-36.68" y="0">Drag preview</tspan>
    </text>
    <g transform="translate(862 654.385) rotate(-90)">
      <g transform="translate(-6.615)" fill="var(--anatomy-gray-600)" stroke="var(--anatomy-gray-100)" stroke-width="1">
        <rect width="5" height="5" rx="2.5" stroke="none" />
        <rect x="-0.5" y="-0.5" width="6" height="6" rx="3" fill="none" />
      </g>
      <path d="M0,0H87.4" transform="translate(-93.381 2.5)" fill="none" stroke="var(--anatomy-gray-600)" stroke-width="1" />
    </g><text transform="translate(715 762)" fill="var(--anatomy-gray-900)" font-size="14" font-family="var(--anatomy-font)" font-style="italic">
      <tspan x="-32.627" y="0">Drag source</tspan>
    </text>
    <g transform="translate(713 735.59) rotate(-90)">
      <g transform="translate(28.59)" fill="var(--anatomy-gray-600)" stroke="var(--anatomy-gray-100)" stroke-width="1">
        <rect width="5" height="5" rx="2.5" stroke="none" />
        <rect x="-0.5" y="-0.5" width="6" height="6" rx="3" fill="none" />
      </g>
      <path d="M0,0H41.637" transform="translate(-12.41 2.5)" fill="none" stroke="var(--anatomy-gray-600)" stroke-width="1" />
    </g><text transform="translate(1078 762)" fill="var(--anatomy-gray-900)" font-size="14" font-family="var(--anatomy-font)" font-style="italic">
      <tspan x="-31.36" y="0">Drop target</tspan>
    </text>
    <g transform="translate(1076 747.766) rotate(-90)">
      <g transform="translate(104.766)" fill="var(--anatomy-gray-600)" stroke="var(--anatomy-gray-100)" stroke-width="1">
        <rect width="5" height="5" rx="2.5" stroke="none" />
        <rect x="-0.5" y="-0.5" width="6" height="6" rx="3" fill="none" />
      </g>
      <path d="M0,0H105.4" transform="translate(0 2.5)" fill="none" stroke="var(--anatomy-gray-600)" stroke-width="1" />
    </g>
  </g>
</svg>
