<svg style="max-height: 44px; background: var(--anatomy-gray-100); padding: 32px; margin-bottom: 4px; width: calc(100% - 64px); border-radius: var(--anatomy-radius);" viewBox="0 0 206 44">
  <defs>
    <filter id="Rectangle_140629" x="0" y="0" width="206" height="44" filterUnits="userSpaceOnUse">
      <feOffset dy="1" input="SourceAlpha"/>
      <feGaussianBlur stdDeviation="2" result="blur"/>
      <feFlood flood-opacity="0.149"/>
      <feComposite operator="in" in2="blur"/>
      <feComposite in="SourceGraphic"/>
    </filter>
  </defs>
  <g id="Group_152192" data-name="Group 152192" transform="translate(-921 -44)">
    <g id="Group_152108" data-name="Group 152108" transform="translate(-2387 -976)">
      <g id="Group_152093" data-name="Group 152093" transform="translate(557 -44)">
        <g id="Group_151892" data-name="Group 151892" transform="translate(10 702)">
          <g transform="matrix(1, 0, 0, 1, 2741, 362)" filter="url(#Rectangle_140629)">
            <g id="Rectangle_140629-2" data-name="Rectangle 140629" transform="translate(6 5)" fill="var(--anatomy-gray-100)" stroke="var(--anatomy-gray-700)" stroke-width="1">
              <rect width="194" height="32" rx="4" stroke="none"/>
              <rect x="0.5" y="0.5" width="193" height="31" rx="3.5" fill="none"/>
            </g>
          </g>
        </g>
      </g>
      <g id="Group_151893" data-name="Group 151893" transform="translate(553 -48)">
        <g id="Group_151892-2" data-name="Group 151892" transform="translate(10 702)">
          <g id="Rectangle_140629-3" data-name="Rectangle 140629" transform="translate(2747 367)" fill="var(--anatomy-gray-75)" stroke="var(--anatomy-gray-700)" stroke-width="1">
            <rect width="194" height="32" rx="4" stroke="none"/>
            <rect x="0.5" y="0.5" width="193" height="31" rx="3.5" fill="none"/>
          </g>
          <rect id="Rectangle_139994" data-name="Rectangle 139994" width="193.812" height="32" rx="4" transform="translate(2747 367)" fill="none"/>
          <text id="Documents" transform="translate(2785 373)" fill="var(--anatomy-gray-800)" font-size="14" font-family="var(--anatomy-font)"><tspan x="0" y="14">Documents</tspan></text>
          <g id="Group_151515" data-name="Group 151515" transform="translate(2759 374)">
            <rect id="Canvas" width="18" height="18" fill="var(--anatomy-gray-600)" opacity="0"/>
            <path id="Path_35493" data-name="Path 35493" d="M16.5,4H9.334L7.682,2.3A1,1,0,0,0,6.965,2H2A1,1,0,0,0,1,3V14.5a.5.5,0,0,0,.5.5h15a.5.5,0,0,0,.5-.5V4.5A.5.5,0,0,0,16.5,4ZM2,3H6.965L8.908,5H2Z" fill="var(--anatomy-gray-700)"/>
          </g>
        </g>
      </g>
      <g id="Symbol_12707_24" data-name="Symbol 12707 – 24" transform="translate(3478 1028)">
        <rect id="Rectangle_140819" data-name="Rectangle 140819" width="18" height="18" rx="4" fill="var(--anatomy-gray-800)"/>
        <text id="_5" data-name="5" transform="translate(2 1)" fill="var(--anatomy-gray-50)" font-size="12" font-family="var(--anatomy-font)"><tspan x="4.12" y="12">5</tspan></text>
      </g>
    </g>
    <g id="Page-1" transform="translate(1028 49)">
      <g id="pointer">
        <g id="bg" opacity="0.01">
          <rect id="Rectangle_140823" data-name="Rectangle 140823" width="35" height="35" fill="#fff"/>
        </g>
        <path id="point-border" d="M12,24.422V8.407L23.591,20.026H16.81l-.411.124Z" fill="#fff" fill-rule="evenodd"/>
        <path id="stem-border" d="M21.084,25.1l-3.6,1.535L12.8,15.542l3.686-1.553Z" fill="#fff" fill-rule="evenodd"/>
        <path id="stem" d="M19.751,24.416l-1.844.774-3.1-7.374,1.841-.775Z" fill-rule="evenodd"/>
        <path id="point" d="M13,10.814V22l2.969-2.866L16.4,19h4.768Z" fill-rule="evenodd"/>
      </g>
    </g>
  </g>
</svg>
