<svg style="max-height: 153px; background: var(--anatomy-gray-100); padding: 12px; margin-bottom: 16px; width: calc(100% - 24px); border-radius: var(--anatomy-radius);" viewBox="0 0 188 153">
  <defs>
    <filter id="Union_44" x="0" y="30" width="188" height="100.001" filterUnits="userSpaceOnUse">
      <feOffset dy="1" input="SourceAlpha"/>
      <feGaussianBlur stdDeviation="2" result="blur"/>
      <feFlood flood-opacity="0.149"/>
      <feComposite operator="in" in2="blur"/>
      <feComposite in="SourceGraphic"/>
    </filter>
  </defs>
  <g id="Group_22746" data-name="Group 22746" transform="translate(-78.001 -32)">
    <g transform="matrix(1, 0, 0, 1, 78, 32)" filter="url(#Union_44)">
      <g id="Union_44-2" data-name="Union 44" transform="translate(-1511 -7405)" fill="var(--anatomy-gray-50)">
        <path d="M 1604.999633789062 7527.29345703125 L 1597.353881835938 7519.64599609375 L 1597.207397460938 7519.49951171875 L 1597.000244140625 7519.49951171875 L 1521.000366210938 7519.49951171875 C 1519.070678710938 7519.49951171875 1517.500732421875 7517.92919921875 1517.500732421875 7515.99951171875 L 1517.500732421875 7443.99951171875 C 1517.500732421875 7442.06982421875 1519.070678710938 7440.49951171875 1521.000366210938 7440.49951171875 L 1689.000732421875 7440.49951171875 C 1690.930419921875 7440.49951171875 1692.500366210938 7442.06982421875 1692.500366210938 7443.99951171875 L 1692.500366210938 7515.99951171875 C 1692.500366210938 7517.92919921875 1690.930419921875 7519.49951171875 1689.000732421875 7519.49951171875 L 1613.000732421875 7519.49951171875 L 1612.793579101562 7519.49951171875 L 1612.647216796875 7519.64599609375 L 1604.999633789062 7527.29345703125 Z" stroke="none"/>
        <path d="M 1604.999755859375 7526.58642578125 L 1612.586547851562 7518.99951171875 L 1689.000732421875 7518.99951171875 C 1690.65478515625 7518.99951171875 1692.000366210938 7517.65380859375 1692.000366210938 7515.99951171875 L 1692.000366210938 7443.99951171875 C 1692.000366210938 7442.34521484375 1690.65478515625 7440.99951171875 1689.000732421875 7440.99951171875 L 1521.000366210938 7440.99951171875 C 1519.346435546875 7440.99951171875 1518.000732421875 7442.34521484375 1518.000732421875 7443.99951171875 L 1518.000732421875 7515.99951171875 C 1518.000732421875 7517.65380859375 1519.346435546875 7518.99951171875 1521.000366210938 7518.99951171875 L 1597.41455078125 7518.99951171875 L 1604.999755859375 7526.58642578125 M 1604.999633789062 7528.00048828125 L 1597.000244140625 7519.99951171875 L 1521.000366210938 7519.99951171875 C 1518.791748046875 7519.99951171875 1517.000732421875 7518.20849609375 1517.000732421875 7515.99951171875 L 1517.000732421875 7443.99951171875 C 1517.000732421875 7441.79052734375 1518.791748046875 7439.99951171875 1521.000366210938 7439.99951171875 L 1689.000732421875 7439.99951171875 C 1691.209350585938 7439.99951171875 1693.000366210938 7441.79052734375 1693.000366210938 7443.99951171875 L 1693.000366210938 7515.99951171875 C 1693.000366210938 7518.20849609375 1691.209350585938 7519.99951171875 1689.000732421875 7519.99951171875 L 1613.000732421875 7519.99951171875 L 1604.999633789062 7528.00048828125 Z" stroke="none" fill="var(--anatomy-gray-400)"/>
      </g>
    </g>
    <g id="Group_3983" data-name="Group 3983" transform="translate(-188 498.5)">
      <rect id="Rectangle_3659" data-name="Rectangle 3659" width="20" height="20" transform="translate(354 -349.5)" fill="red" opacity="0"/>
      <text id="Arrow_optional_" data-name="Arrow (optional)" transform="translate(364 -316.5)" fill="var(--anatomy-gray-700)" font-size="13" font-family="var(--anatomy-font)" font-style="italic"><tspan x="-42.296" y="0">Arrow (optional)</tspan></text>
      <path id="Union_44-3" data-name="Union 44" d="M-7607-414.5v-15.05a2.5,2.5,0,0,1-2-2.452,2.5,2.5,0,0,1,2.5-2.5,2.5,2.5,0,0,1,2.5,2.5,2.5,2.5,0,0,1-2,2.452v15.05Z" transform="translate(7970.5 85)" fill="var(--anatomy-gray-500)"/>
    </g>
    <g id="Group_22735" data-name="Group 22735" transform="translate(-297 387)">
      <rect id="Rectangle_3659-2" data-name="Rectangle 3659" width="20" height="23" transform="translate(392 -343)" fill="red" opacity="0"/>
      <text id="Popover" transform="translate(402 -342)" fill="var(--anatomy-gray-700)" font-size="13" font-family="var(--anatomy-font)" font-style="italic"><tspan x="-20.761" y="0">Popover</tspan></text>
      <path id="Union_56" data-name="Union 56" d="M-9134-352.5a2.5,2.5,0,0,1,2-2.449V-370h1v15.051a2.5,2.5,0,0,1,2,2.449,2.5,2.5,0,0,1-2.5,2.5A2.5,2.5,0,0,1-9134-352.5Z" transform="translate(9533.5 33)" fill="var(--anatomy-gray-500)"/>
    </g>
  </g>
</svg>
