<svg style="max-height: 115px; background: #f4f6fc; padding: 32px; margin-bottom: 16px; width: calc(100% - 64px); border-radius: 4px;" viewBox="0 0 275 115">
  <title>Slider anatomy diagram</title>
  <desc>Shows a slider with labels pointing to its parts including the label, group, track, thumb, and output elements.</desc>
  <g transform="translate(-36 -40)">
    <g transform="translate(-130 401)">
      <text transform="translate(423 -348)" fill="#4a6fc3" font-size="13" font-family="Adobe-Clean" style="font-style: italic">
        <tspan x="-17.544" y="0">Output</tspan>
      </text>
      <path d="M-6714-361.5a2.5,2.5,0,0,1,2-2.45V-380h1v16.049a2.5,2.5,0,0,1,2,2.45,2.5,2.5,0,0,1-2.5,2.5A2.5,2.5,0,0,1-6714-361.5Z" transform="translate(7134.5 37)" fill="#a2b6e1" />
    </g>
    <g transform="translate(-348 401)">
      <text transform="translate(402 -348)" fill="#4a6fc3" font-size="13" font-family="Adobe-Clean" style="font-style: italic">
        <tspan x="-13.826" y="0">Label</tspan>
      </text>
      <path d="M-6496-361.5a2.5,2.5,0,0,1,2-2.449V-380h1v16.051a2.5,2.5,0,0,1,2,2.449,2.5,2.5,0,0,1-2.5,2.5A2.5,2.5,0,0,1-6496-361.5Z" transform="translate(6895.5 37)" fill="#a2b6e1" />
      <text transform="translate(402 -348)" fill="#4a6fc3" font-size="13" font-family="Adobe-Clean" style="font-style: italic">
        <tspan x="-13.826" y="0">Label</tspan>
      </text>
    </g><text transform="translate(40 93)" fill="#718dcf" font-size="18" font-family="Adobe-Clean">
      <tspan x="0" y="0">Label</tspan>
    </text><text transform="translate(304 93)" fill="#4a6fc3" font-size="18" font-family="Adobe-Clean">
      <tspan x="-17.298" y="0">24</tspan>
    </text>
    <path d="M0,0H88.5A1.5,1.5,0,0,1,90,1.5v0A1.5,1.5,0,0,1,88.5,3H0A0,0,0,0,1,0,3V0A0,0,0,0,1,0,0Z" transform="translate(214 113)" fill="#4a6fc3" />
    <path d="M1.5,0H138a0,0,0,0,1,0,0V3a0,0,0,0,1,0,0H1.5A1.5,1.5,0,0,1,0,1.5v0A1.5,1.5,0,0,1,1.5,0Z" transform="translate(40 113)" fill="#4a6fc3" />
    <g transform="translate(184 102)" fill="none">
      <path d="M12,0A12,12,0,1,1,0,12,12,12,0,0,1,12,0Z" stroke="none" />
      <path d="M 12 3 C 7.037380218505859 3 3 7.037380218505859 3 12 C 3 16.96261978149414 7.037380218505859 21 12 21 C 16.96261978149414 21 21 16.96261978149414 21 12 C 21 7.037380218505859 16.96261978149414 3 12 3 M 12 0 C 18.62742042541504 0 24 5.372579574584961 24 12 C 24 18.62742042541504 18.62742042541504 24 12 24 C 5.372579574584961 24 0 18.62742042541504 0 12 C 0 5.372579574584961 5.372579574584961 0 12 0 Z" stroke="none" fill="#4a6fc3" />
    </g>
    <g transform="translate(-284 468.5)">
      <text transform="translate(364 -316.5)" fill="#4a6fc3" font-size="13" font-family="Adobe-Clean" style="font-style: italic">
        <tspan x="-13.435" y="0">Track</tspan>
      </text>
      <path d="M-6750-422.5v-20.051a2.5,2.5,0,0,1-2-2.449,2.5,2.5,0,0,1,2.5-2.5,2.5,2.5,0,0,1,2.5,2.5,2.5,2.5,0,0,1-2,2.449V-422.5Z" transform="translate(7113.5 93)" fill="#a2b6e1" />
    </g>
    <g transform="translate(-168 468.5)">
      <text transform="translate(364 -316.5)" fill="#4a6fc3" font-size="13" font-family="Adobe-Clean" style="font-style: italic">
        <tspan x="-18.128" y="0">Thumb</tspan>
      </text>
      <path d="M-6674-424.5v-18.049a2.5,2.5,0,0,1-2-2.45,2.5,2.5,0,0,1,2.5-2.5,2.5,2.5,0,0,1,2.5,2.5,2.5,2.5,0,0,1-2,2.45v18.05Z" transform="translate(7037.5 95)" fill="#a2b6e1" />
    </g>
    <g transform="translate(36 99)" fill="none" stroke="#a2b6e1" stroke-width="1" stroke-dasharray="2">
      <rect width="272" height="30" rx="4" stroke="none" />
      <rect x="0.5" y="0.5" width="271" height="29" rx="3.5" fill="none" />
    </g>
    <g transform="translate(-228 424)">
      <text transform="translate(402 -348)" fill="#4a6fc3" font-size="13" font-family="Adobe-Clean" style="font-style: italic">
        <tspan x="-15.854" y="0">Group</tspan>
      </text>
      <path d="M-6496-361.5a2.5,2.5,0,0,1,2-2.449V-380h1v16.051a2.5,2.5,0,0,1,2,2.449,2.5,2.5,0,0,1-2.5,2.5A2.5,2.5,0,0,1-6496-361.5Z" transform="translate(6895.5 37)" fill="#a2b6e1" />
    </g>
  </g>
</svg>
