<svg width="96" height="96" viewBox="0 0 96 96" xmlns="http://www.w3.org/2000/svg">
  <defs>
<radialGradient id="paint0_radial_5481_99239" cx="0" cy="0" r="1" gradientUnits="userSpaceOnUse" gradientTransform="translate(32.7857 30.9063) rotate(90) scale(30.9063 32.7857)">
<stop offset="0.166667" stop-color="#FF709F"/>
<stop offset="1" stop-color="#FF709F" stop-opacity="0"/>
</radialGradient>
<linearGradient id="paint1_linear_5481_99239" x1="-7.89785" y1="77.404" x2="110.611" y2="0.919737" gradientUnits="userSpaceOnUse">
<stop offset="0.0598452" stop-color="#8480FE"/>
<stop offset="0.599632" stop-color="#8480FE" stop-opacity="0"/>
</linearGradient>
<linearGradient id="paint2_linear_5481_99239" x1="90.4227" y1="27.0055" x2="41.1712" y2="83.1849" gradientUnits="userSpaceOnUse">
<stop stop-color="#EB1000"/>
<stop offset="1" stop-color="#EB1000" stop-opacity="0"/>
</linearGradient>
<linearGradient id="paint3_linear_5481_99239" x1="26.5461" y1="87.6362" x2="117.015" y2="33.875" gradientUnits="userSpaceOnUse">
<stop stop-color="#FC7D00" stop-opacity="0"/>
<stop offset="0.432292" stop-color="#FC7D00"/>
<stop offset="0.609375" stop-color="#FC7D00"/>
<stop offset="1" stop-color="#FC7D00" stop-opacity="0"/>
</linearGradient>
<radialGradient id="paint4_radial_5481_99239" cx="0" cy="0" r="1" gradientUnits="userSpaceOnUse" gradientTransform="translate(32.7857 30.9063) rotate(90) scale(30.9063 32.7857)">
<stop offset="0.166667" stop-color="#EB1000"/>
<stop offset="1" stop-color="#EB1000" stop-opacity="0"/>
</radialGradient>
<clipPath id="clip0_5481_99239">
<rect x="11.0391" y="13.9199" width="75.36" height="71.04" rx="2.07674" fill="white"/>
</clipPath>
</defs>
<clipPath id="mask0_5481_99239">
<path fill-rule="evenodd" d="M73.9163 34.7275C77.4248 31.219 77.4248 25.5306 73.9163 22.0221C70.4078 18.5136 64.7194 18.5136 61.2109 22.0221L54.6633 28.5697C53.726 29.5069 52.2064 29.5069 51.2692 28.5697C50.3319 27.6324 50.3319 26.1128 51.2692 25.1755L57.8168 18.6279C63.1998 13.2449 71.9274 13.245 77.3104 18.628C82.6934 24.011 82.6934 32.7386 77.3104 38.1216L60.7077 54.7243C55.3247 60.1073 46.5971 60.1073 41.2141 54.7243C40.2768 53.787 40.2768 52.2675 41.2141 51.3302C42.1513 50.3929 43.6709 50.3929 44.6082 51.3302C48.1167 54.8387 53.8051 54.8387 57.3136 51.3302L73.9163 34.7275ZM54.923 41.1379C55.8602 42.0751 55.8602 43.5947 54.923 44.532C53.9857 45.4693 52.4661 45.4693 51.5288 44.532C48.0203 41.0235 42.3319 41.0235 38.8235 44.532L22.2207 61.1347C18.7122 64.6432 18.7122 70.3316 22.2207 73.8401C25.7292 77.3486 31.4176 77.3486 34.9261 73.8401L41.4737 67.2925C42.411 66.3553 43.9306 66.3553 44.8678 67.2925C45.8051 68.2298 45.8051 69.7494 44.8678 70.6866L38.3202 77.2342C32.9372 82.6173 24.2096 82.6172 18.8266 77.2342C13.4436 71.8512 13.4436 63.1236 18.8266 57.7406L35.4293 41.1379C40.8123 35.7549 49.5399 35.7549 54.923 41.1379Z" fill="white" stroke="white" stroke-width="1.2" stroke-linecap="round" stroke-linejoin="round"/>
</clipPath>
<g clip-path="url(#mask0_5481_99239)">
<g clip-path="url(#clip0_5481_99239)">
<rect x="11.0391" y="13.9199" width="75.36" height="71.04" rx="2.07674" fill="#FFECCF"/>
<rect width="75.36" height="71.04" transform="translate(11.0391 13.9199)" fill="#FFECCF"/>
<ellipse cx="32.7857" cy="30.9063" rx="32.7857" ry="30.9063" transform="matrix(0.999999 -0.00131734 0.00148243 0.999999 20.8164 -14.1875)" fill="url(#paint0_radial_5481_99239)"/>
<path d="M39.8043 1.37076C34.0167 -2.00529 26.6839 -2.02597 20.8748 1.31738L-37.2266 34.7586C-42.9169 38.0338 -42.9263 45.7646 -37.2438 49.0521L20.4737 82.446C26.2741 85.8014 33.6069 85.7974 39.4023 82.434L97.0009 49.0089C102.653 45.7284 102.664 38.0408 97.0181 34.7479L39.8043 1.37076Z" fill="url(#paint1_linear_5481_99239)"/>
<path d="M21.8988 47.6483C23.1868 21.1269 47.0382 0.611475 75.1723 1.82568C103.306 3.03989 125.069 25.524 123.781 52.0453C122.493 78.5666 98.642 99.0821 70.5079 97.8679C42.3738 96.6537 20.6108 74.1696 21.8988 47.6483Z" fill="url(#paint2_linear_5481_99239)"/>
<path d="M-19.4946 65.1348C-8.3112 60.6374 3.74992 60.8302 14.1994 64.764C35.1089 72.6552 47.2755 67.7763 55.7141 48.1105C59.9174 38.2423 68.1239 29.8848 79.3198 25.3823C101.704 16.3942 127.546 26.147 137.068 47.186C146.589 68.225 136.167 92.5472 113.788 101.547C102.567 106.06 90.4829 105.848 80.0175 101.879C59.1418 94.03 46.9984 98.9275 38.5705 118.617C34.3565 128.461 26.1519 136.79 14.9685 141.288C-7.39817 150.283 -33.2402 140.53 -42.7561 119.503C-52.272 98.4754 -41.8613 74.1296 -19.4946 65.1348Z" fill="url(#paint3_linear_5481_99239)"/>
<ellipse cx="32.7857" cy="30.9063" rx="32.7857" ry="30.9063" transform="matrix(0.999999 -0.00131734 0.00148243 0.999999 49.1758 -4.1084)" fill="url(#paint4_radial_5481_99239)"/>
</g>
</g>

</svg>
