<svg width="96" height="96" viewBox="0 0 96 96" xmlns="http://www.w3.org/2000/svg">
  <defs>
<radialGradient id="paint0_radial_5481_99383" cx="0" cy="0" r="1" gradientUnits="userSpaceOnUse" gradientTransform="translate(37.0667 34.9784) rotate(90) scale(34.9784 37.0667)">
<stop offset="0.166667" stop-color="#FF709F"/>
<stop offset="1" stop-color="#FF709F" stop-opacity="0"/>
</radialGradient>
<linearGradient id="paint1_linear_5481_99383" x1="-17.2134" y1="82.649" x2="116.852" y2="-3.78475" gradientUnits="userSpaceOnUse">
<stop offset="0.0598452" stop-color="#8480FE"/>
<stop offset="0.599632" stop-color="#8480FE" stop-opacity="0"/>
</linearGradient>
<linearGradient id="paint2_linear_5481_99383" x1="93.9496" y1="25.6097" x2="38.2013" y2="89.1334" gradientUnits="userSpaceOnUse">
<stop stop-color="#EB1000"/>
<stop offset="1" stop-color="#EB1000" stop-opacity="0"/>
</linearGradient>
<linearGradient id="paint3_linear_5481_99383" x1="21.7331" y1="94.2291" x2="124.07" y2="33.4786" gradientUnits="userSpaceOnUse">
<stop stop-color="#FC7D00" stop-opacity="0"/>
<stop offset="0.432292" stop-color="#FC7D00"/>
<stop offset="0.609375" stop-color="#FC7D00"/>
<stop offset="1" stop-color="#FC7D00" stop-opacity="0"/>
</linearGradient>
<radialGradient id="paint4_radial_5481_99383" cx="0" cy="0" r="1" gradientUnits="userSpaceOnUse" gradientTransform="translate(37.0667 34.9784) rotate(90) scale(34.9784 37.0667)">
<stop offset="0.166667" stop-color="#EB1000"/>
<stop offset="1" stop-color="#EB1000" stop-opacity="0"/>
</radialGradient>
<clipPath id="clip0_5481_99383">
<rect x="4.19922" y="10.7998" width="85.2" height="80.4" rx="2.07674" fill="white"/>
</clipPath>
</defs>
<clipPath id="mask0_5481_99383">
<path fill-rule="evenodd" d="M21.4516 16.7578H50.2936C55.5976 16.7578 59.8936 21.0538 59.8936 26.3578V79.2358H44.2996V66.8878C44.2996 64.2358 42.1516 62.0878 39.4996 62.0878H32.2456C29.5936 62.0878 27.4456 64.2358 27.4456 66.8878V79.2358H11.8516V26.3578C11.8516 21.0538 16.1476 16.7578 21.4516 16.7578ZM29.1256 50.6938C30.4516 50.6938 31.5256 49.6198 31.5256 48.2938V44.8378C31.5256 43.5118 30.4516 42.4378 29.1256 42.4378H25.6696C24.3436 42.4378 23.2696 43.5118 23.2696 44.8378V48.2938C23.2696 49.6198 24.3436 50.6938 25.6696 50.6938H29.1256ZM29.1256 33.8578C30.4516 33.8578 31.5256 32.7838 31.5256 31.4578V28.0018C31.5256 26.6758 30.4516 25.6018 29.1256 25.6018H25.6696C24.3436 25.6018 23.2696 26.6758 23.2696 28.0018V31.4578C23.2696 32.7838 24.3436 33.8578 25.6696 33.8578H29.1256ZM46.0816 50.6938C47.4076 50.6938 48.4816 49.6198 48.4816 48.2938V44.8378C48.4816 43.5118 47.4076 42.4378 46.0816 42.4378H42.6256C41.2996 42.4378 40.2256 43.5118 40.2256 44.8378V48.2938C40.2256 49.6198 41.2996 50.6938 42.6256 50.6938H46.0816ZM46.0816 33.8578C47.4076 33.8578 48.4816 32.7838 48.4816 31.4578V28.0018C48.4816 26.6758 47.4076 25.6018 46.0816 25.6018H42.6256C41.2996 25.6018 40.2256 26.6758 40.2256 28.0018V31.4578C40.2256 32.7838 41.2996 33.8578 42.6256 33.8578H46.0816ZM74.5456 29.7358C79.8496 29.7358 84.1456 34.0318 84.1456 39.3358V79.2358H64.6996V29.7358H74.5456ZM73.7476 67.0318C75.0736 67.0318 76.1476 65.9578 76.1476 64.6318V61.1758C76.1476 59.8498 75.0736 58.7758 73.7476 58.7758H70.2916C68.9656 58.7758 67.8916 59.8498 67.8916 61.1758V64.6318C67.8916 65.9578 68.9656 67.0318 70.2916 67.0318H73.7476ZM73.7476 50.1958C75.0736 50.1958 76.1476 49.1218 76.1476 47.7958V44.3398C76.1476 43.0138 75.0736 41.9398 73.7476 41.9398H70.2916C68.9656 41.9398 67.8916 43.0138 67.8916 44.3398V47.7958C67.8916 49.1218 68.9656 50.1958 70.2916 50.1958H73.7476Z" fill="white"/>
</clipPath>
<g clip-path="url(#mask0_5481_99383)">
<g clip-path="url(#clip0_5481_99383)">
<rect x="4.19922" y="10.7998" width="85.2" height="80.4" rx="2.07674" fill="#FFECCF"/>
<rect width="85.2" height="80.4" transform="translate(4.19922 10.7998)" fill="#FFECCF"/>
<ellipse cx="37.0667" cy="34.9784" rx="37.0667" ry="34.9784" transform="matrix(0.999999 -0.00131872 0.00148088 0.999999 15.2539 -21.0107)" fill="url(#paint0_radial_5481_99383)"/>
<path d="M36.7173 -3.40212C30.1741 -7.22298 21.8838 -7.24639 15.3162 -3.46252L-50.3717 34.3848C-56.805 38.0916 -56.8157 46.8409 -50.3912 50.5616L14.8626 88.3553C21.4204 92.1528 29.7107 92.1483 36.2628 88.3417L101.382 50.5127C107.773 46.7999 107.784 38.0995 101.402 34.3727L36.7173 -3.40212Z" fill="url(#paint1_linear_5481_99383)"/>
<path d="M16.4783 48.9723C17.9345 18.9566 44.9003 -4.26191 76.7079 -2.88772C108.516 -1.51354 133.12 23.933 131.664 53.9487C130.208 83.9644 103.242 107.183 71.4345 105.809C39.6268 104.435 15.0221 78.988 16.4783 48.9723Z" fill="url(#paint2_linear_5481_99383)"/>
<path d="M-30.3192 68.763C-17.6756 63.673 -4.03958 63.8912 7.77427 68.3433C31.414 77.2742 45.1693 71.7525 54.7097 49.4956C59.4619 38.3272 68.7399 28.8686 81.3977 23.7729C106.705 13.6005 135.921 24.6382 146.686 48.4493C157.45 72.2603 145.668 99.7872 120.367 109.973C107.681 115.08 94.0184 114.841 82.1865 110.349C58.585 101.465 44.856 107.008 35.3276 129.292C30.5634 140.433 21.2875 149.86 8.64388 154.95C-16.6433 165.13 -45.8596 154.092 -56.618 130.294C-67.3765 106.496 -55.6064 78.9429 -30.3192 68.763Z" fill="url(#paint3_linear_5481_99383)"/>
<ellipse cx="37.0667" cy="34.9784" rx="37.0667" ry="34.9784" transform="matrix(0.999999 -0.00131872 0.00148088 0.999999 47.3164 -9.60449)" fill="url(#paint4_radial_5481_99383)"/>
</g>
</g>

</svg>
