<svg width="48" height="48" viewBox="0 0 48 48" xmlns="http://www.w3.org/2000/svg">
  <defs>
<radialGradient id="paint0_radial_5481_99560" cx="0" cy="0" r="1" gradientUnits="userSpaceOnUse" gradientTransform="translate(27.1423 1.86222) rotate(90) scale(20.8826)">
<stop offset="0.166667" stop-color="#FF709F"/>
<stop offset="1" stop-color="#FF709F" stop-opacity="0"/>
</radialGradient>
<linearGradient id="paint1_linear_5481_99560" x1="-12.0622" y1="42.8952" x2="65.9766" y2="-4.58296" gradientUnits="userSpaceOnUse">
<stop offset="0.0598452" stop-color="#8480FE"/>
<stop offset="0.599632" stop-color="#8480FE" stop-opacity="0"/>
</linearGradient>
<linearGradient id="paint2_linear_5481_99560" x1="50.5621" y1="8.84155" x2="17.0836" y2="44.8401" gradientUnits="userSpaceOnUse">
<stop stop-color="#EB1000"/>
<stop offset="1" stop-color="#EB1000" stop-opacity="0"/>
</linearGradient>
<linearGradient id="paint3_linear_5481_99560" x1="9.87765" y1="49.8089" x2="69.2259" y2="16.5628" gradientUnits="userSpaceOnUse">
<stop stop-color="#FC7D00" stop-opacity="0"/>
<stop offset="0.432292" stop-color="#FC7D00"/>
<stop offset="0.609375" stop-color="#FC7D00"/>
<stop offset="1" stop-color="#FC7D00" stop-opacity="0"/>
</linearGradient>
<radialGradient id="paint4_radial_5481_99560" cx="0" cy="0" r="1" gradientUnits="userSpaceOnUse" gradientTransform="translate(45.2009 8.67178) rotate(90) scale(20.8826)">
<stop offset="0.166667" stop-color="#EB1000"/>
<stop offset="1" stop-color="#EB1000" stop-opacity="0"/>
</radialGradient>
<clipPath id="clip0_5481_99560">
<rect width="48" height="48" rx="5.125" fill="white"/>
</clipPath>
</defs>
<clipPath id="mask0_5481_99560">
<path fill-rule="evenodd" d="M9.31009 15.3162L23.223 9.63289C23.7077 9.43487 24.2508 9.43487 24.7356 9.63289L38.6485 15.3162C40.3067 15.9936 40.3067 18.3418 38.6485 19.0192L37.0362 19.6778L37.0362 26.3467C37.0362 27.2215 36.8023 28.4767 35.9253 29.7829C35.046 31.0925 33.5687 32.3817 31.1953 33.3988C29.2783 34.2204 27.0728 34.5345 25.1536 34.6059C23.2303 34.6774 21.489 34.5084 20.4481 34.2941C19.772 34.1549 19.3367 33.4939 19.4759 32.8177C19.6151 32.1415 20.2761 31.7063 20.9523 31.8455C21.7698 32.0138 23.3081 32.1728 25.0607 32.1076C26.8173 32.0423 28.6839 31.7552 30.2105 31.101C32.2184 30.2404 33.2827 29.2339 33.8497 28.3893C34.4191 27.5413 34.5362 26.7837 34.5362 26.3467V20.699L24.7356 24.7025C24.2508 24.9005 23.7077 24.9005 23.223 24.7025L16.9252 22.1299C17.1533 21.8259 17.4456 21.5675 17.7893 21.3766L24.5867 17.6002C25.1902 17.265 25.4076 16.504 25.0723 15.9005C24.7371 15.297 23.9761 15.0796 23.3726 15.4148L16.5752 19.1912C15.7243 19.6639 15.0385 20.3531 14.5709 21.1682L9.31009 19.0192C7.65184 18.3418 7.65185 15.9936 9.31009 15.3162ZM13.8748 32.5525V23.7805C13.8748 22.8472 14.1225 21.9498 14.5709 21.1682L16.9252 22.1299C16.5739 22.5982 16.3748 23.1749 16.3748 23.7805V32.267C17.1404 33.6451 17.8973 35.3539 18.0509 36.8134C18.0676 36.9294 18.0762 37.0477 18.0762 37.168V37.1684V37.1686C18.0762 38.6176 16.8282 39.7922 15.2886 39.7922C13.749 39.7922 12.501 38.6176 12.501 37.1686V37.1683C12.501 37.0711 12.5066 36.9751 12.5176 36.8806C12.6312 35.5053 13.2334 33.8982 13.8748 32.5525Z" fill="white"/>
</clipPath>
<g clip-path="url(#mask0_5481_99560)">
<g clip-path="url(#clip0_5481_99560)">
<rect width="48" height="48" rx="5.125" fill="#FFECCF"/>
<rect width="48" height="48" fill="#FFECCF"/>
<circle cx="27.1423" cy="1.86221" r="20.8826" transform="rotate(-0.0800682 27.1423 1.86221)" fill="url(#paint0_radial_5481_99560)"/>
<path d="M18.3213 -8.47858C14.635 -10.7597 9.96439 -10.7737 6.26433 -8.51465L-30.7429 14.0808C-34.3673 16.2938 -34.3733 21.5172 -30.7539 23.7386L6.00883 46.302C9.70335 48.5691 14.374 48.5664 18.0653 46.2939L54.7523 23.7094C58.3526 21.4928 58.3591 16.2985 54.7632 14.0735L18.3213 -8.47858Z" fill="url(#paint1_linear_5481_99560)"/>
<path d="M6.91632 22.7894C7.73673 4.86956 22.9287 -8.99224 40.8485 -8.17184C58.7683 -7.35143 72.6301 7.84053 71.8097 25.7603C70.9893 43.6802 55.7973 57.542 37.8775 56.7215C19.9577 55.9011 6.09591 40.7092 6.91632 22.7894Z" fill="url(#paint2_linear_5481_99560)"/>
<path d="M-19.4476 34.6052C-12.3244 31.5664 -4.64218 31.6967 2.01351 34.3546C15.3317 39.6865 23.0811 36.39 28.456 23.1023C31.1333 16.4345 36.3604 10.7876 43.4915 7.74541C57.7492 1.67237 74.2091 8.26203 80.2736 22.4776C86.338 36.6931 79.7002 53.1271 65.4459 59.2081C58.2988 62.2571 50.6018 62.1143 43.9359 59.4324C30.6393 54.129 22.9046 57.438 17.5365 70.7417C14.8525 77.3935 9.62658 83.0211 2.50343 86.0599C-11.7429 92.1375 -28.2028 85.5478 -34.2639 71.3402C-40.3249 57.1326 -33.6939 40.6828 -19.4476 34.6052Z" fill="url(#paint3_linear_5481_99560)"/>
<circle cx="45.2009" cy="8.67178" r="20.8826" transform="rotate(-0.0800682 45.2009 8.67178)" fill="url(#paint4_radial_5481_99560)"/>
</g>
</g>

</svg>
