<svg width="96" height="96" viewBox="0 0 96 96" xmlns="http://www.w3.org/2000/svg">
  <defs>
<radialGradient id="paint0_radial_5481_99686" cx="0" cy="0" r="1" gradientUnits="userSpaceOnUse" gradientTransform="translate(54.2806 3.72345) rotate(90) scale(41.7653)">
<stop offset="0.166667" stop-color="#FF709F"/>
<stop offset="1" stop-color="#FF709F" stop-opacity="0"/>
</radialGradient>
<linearGradient id="paint1_linear_5481_99686" x1="-24.1244" y1="85.7895" x2="131.953" y2="-9.16689" gradientUnits="userSpaceOnUse">
<stop offset="0.0598452" stop-color="#8480FE"/>
<stop offset="0.599632" stop-color="#8480FE" stop-opacity="0"/>
</linearGradient>
<linearGradient id="paint2_linear_5481_99686" x1="101.128" y1="17.6831" x2="34.1712" y2="89.6803" gradientUnits="userSpaceOnUse">
<stop stop-color="#EB1000"/>
<stop offset="1" stop-color="#EB1000" stop-opacity="0"/>
</linearGradient>
<linearGradient id="paint3_linear_5481_99686" x1="19.7553" y1="99.6167" x2="138.452" y2="33.1246" gradientUnits="userSpaceOnUse">
<stop stop-color="#FC7D00" stop-opacity="0"/>
<stop offset="0.432292" stop-color="#FC7D00"/>
<stop offset="0.609375" stop-color="#FC7D00"/>
<stop offset="1" stop-color="#FC7D00" stop-opacity="0"/>
</linearGradient>
<radialGradient id="paint4_radial_5481_99686" cx="0" cy="0" r="1" gradientUnits="userSpaceOnUse" gradientTransform="translate(90.4056 17.3436) rotate(90) scale(41.7653)">
<stop offset="0.166667" stop-color="#EB1000"/>
<stop offset="1" stop-color="#EB1000" stop-opacity="0"/>
</radialGradient>
<clipPath id="clip0_5481_99686">
<rect width="96" height="96" rx="5.125" fill="white"/>
</clipPath>
</defs>
<clipPath id="mask0_5481_99686">
<path d="M47.9976 32.7775C46.8931 32.7775 45.9976 31.8821 45.9976 30.7775V23.7656C45.9976 23.6525 46.007 23.5416 46.0251 23.4336C41.4262 23.7066 37.0825 24.9281 33.1871 26.9052C33.2526 26.9861 33.3127 27.0732 33.3664 27.1662L36.8724 33.2388C37.4247 34.1953 37.0969 35.4185 36.1403 35.9708C35.1838 36.5231 33.9606 36.1953 33.4083 35.2388L29.9023 29.1662C29.8531 29.081 29.8108 28.9936 29.7754 28.9047C26.0705 31.388 22.9003 34.6072 20.474 38.353C20.5168 38.3738 20.5593 38.3963 20.6012 38.4205L26.6737 41.9265C27.6303 42.4788 27.958 43.7019 27.4057 44.6585C26.8535 45.6151 25.6303 45.9429 24.6737 45.3906L18.6012 41.8846C18.5707 41.867 18.5409 41.8488 18.5118 41.8299C16.6255 45.708 15.4818 50.0139 15.2656 54.5627H22.2476C23.3522 54.5627 24.2476 55.4581 24.2476 56.5627C24.2476 57.6673 23.3522 58.5627 22.2476 58.5627H15.316C15.6493 63.1333 16.9201 67.4438 18.937 71.3026C19.5815 72.5357 20.8895 73.2502 22.2808 73.2502H73.7144C75.1058 73.2502 76.4138 72.5357 77.0583 71.3026C79.0751 67.4438 80.3459 63.1333 80.6793 58.5627H73.806C72.7014 58.5627 71.806 57.6673 71.806 56.5627C71.806 55.4581 72.7014 54.5627 73.806 54.5627H80.7296C80.2227 43.8973 74.617 34.5672 66.2962 28.9561C66.2655 29.0273 66.2303 29.0974 66.1906 29.1662L62.6846 35.2388C62.1324 36.1953 60.9092 36.5231 59.9526 35.9708C58.996 35.4185 58.6683 34.1953 59.2205 33.2388L62.7265 27.1662C62.7725 27.0866 62.8231 27.0114 62.8778 26.9406C58.9645 24.9427 54.5965 23.7083 49.9702 23.4336C49.9883 23.5416 49.9976 23.6525 49.9976 23.7656V30.7775C49.9976 31.8821 49.1022 32.7775 47.9976 32.7775ZM71.6128 38.6314C72.5455 39.5641 72.5849 41.0637 71.7024 42.0441L49.9171 66.2447C48.3111 68.0288 45.5374 68.1016 43.84 66.4042C42.1426 64.7068 42.2154 61.9331 43.9995 60.3271L68.2001 38.5418C69.1805 37.6593 70.6801 37.6987 71.6128 38.6314Z" fill="#D9D9D9"/>
</clipPath>
<g clip-path="url(#mask0_5481_99686)">
<g clip-path="url(#clip0_5481_99686)">
<rect width="96" height="96" rx="5.125" fill="#FFECCF"/>
<rect width="96" height="96" fill="#FFECCF"/>
<circle cx="54.2806" cy="3.72345" r="41.7653" transform="rotate(-0.0800682 54.2806 3.72345)" fill="url(#paint0_radial_5481_99686)"/>
<path d="M36.6427 -16.9581C29.27 -21.5204 19.9288 -21.5483 12.5287 -17.0303L-61.4858 28.1606C-68.7346 32.5865 -68.7467 43.0335 -61.5078 47.4761L12.0177 92.6029C19.4067 97.1373 28.7479 97.1319 36.1306 92.5868L109.505 47.4178C116.705 42.9845 116.718 32.596 109.526 28.1461L36.6427 -16.9581Z" fill="url(#paint1_linear_5481_99686)"/>
<path d="M13.8365 45.5788C15.4774 9.73912 45.8613 -17.9845 81.7009 -16.3437C117.541 -14.7029 145.264 15.6811 143.623 51.5207C141.982 87.3603 111.599 115.084 75.759 113.443C39.9193 111.802 12.1957 81.4184 13.8365 45.5788Z" fill="url(#paint2_linear_5481_99686)"/>
<path d="M-38.8952 69.2093C-24.6489 63.1318 -9.28437 63.3923 4.02702 68.7083C30.6634 79.3721 46.1622 72.779 56.9121 46.2036C62.2666 32.8681 72.7207 21.5742 86.983 15.4898C115.498 3.34376 148.418 16.5231 160.547 44.9542C172.676 73.3853 159.4 106.253 130.892 118.415C116.598 124.513 101.204 124.228 87.8718 118.864C61.2786 108.257 45.8093 114.875 35.073 141.482C29.7049 154.786 19.2532 166.041 5.00686 172.119C-23.4858 184.274 -56.4056 171.095 -68.5277 142.679C-80.6499 114.264 -67.3878 81.3645 -38.8952 69.2093Z" fill="url(#paint3_linear_5481_99686)"/>
<circle cx="90.4056" cy="17.3436" r="41.7653" transform="rotate(-0.0800682 90.4056 17.3436)" fill="url(#paint4_radial_5481_99686)"/>
</g>
</g>

</svg>
