<svg width="49" height="48" viewBox="0 0 49 48" fill="none" xmlns="http://www.w3.org/2000/svg">
<mask id="mask0_5_682" style="mask-type:luminance" maskUnits="userSpaceOnUse" x="7" y="7" width="35" height="34">
<path fill-rule="evenodd" clip-rule="evenodd" d="M37.3628 17.2378C39.0902 15.5248 39.0902 12.752 37.3628 11.0391C35.6296 9.32054 32.8155 9.32031 31.0821 11.0384L31.0814 11.0391L26.3979 15.6951C25.9083 16.1818 25.1168 16.1795 24.6301 15.6899C24.1434 15.2003 24.1457 14.4089 24.6353 13.9221L29.32 9.26497L29.3212 9.26384C32.0291 6.57871 36.4151 6.57872 39.123 9.26384C41.8361 11.9541 41.8368 16.32 39.125 19.011L34.422 23.714C33.9338 24.2021 33.1424 24.2021 32.6542 23.7139C32.1661 23.2258 32.1661 22.4343 32.6542 21.9462L37.359 17.2415L37.3628 17.2378ZM22.4187 32.3049C22.9083 31.8182 23.6997 31.8205 24.1864 32.3101C24.6732 32.7997 24.6708 33.5911 24.1812 34.0779L19.4965 38.735L19.4954 38.7362C16.7875 41.4213 12.4014 41.4213 9.69353 38.7362L10.5675 37.8547L9.69353 38.7362C6.98044 36.0459 6.97976 31.6801 9.69151 28.989L9.69353 28.987L14.3946 24.286C14.8827 23.7978 15.6742 23.7978 16.1623 24.286C16.6505 24.7741 16.6505 25.5656 16.1623 26.0537L11.4576 30.7585L11.4538 30.7622C9.72633 32.4752 9.72633 35.248 11.4538 36.9609C13.187 38.6795 16.0011 38.6797 17.7345 36.9616L17.7351 36.9609L22.4187 32.3049ZM12.201 19.1765C12.3796 18.5096 13.0651 18.1139 13.7319 18.2926L19.0445 19.7161C19.7113 19.8948 20.107 20.5802 19.9284 21.247C19.7497 21.9139 19.0643 22.3096 18.3974 22.1309L13.0848 20.7074C12.418 20.5287 12.0223 19.8433 12.201 19.1765ZM35.0082 29.1308C35.675 29.3094 36.3604 28.9137 36.5391 28.2469C36.7178 27.58 36.3221 26.8946 35.6552 26.7159L30.3426 25.2924C29.6758 25.1138 28.9904 25.5095 28.8117 26.1763C28.633 26.8431 29.0288 27.5286 29.6956 27.7072L35.0082 29.1308ZM20.0848 11.2926C20.7517 11.1139 21.4371 11.5096 21.6158 12.1765L23.0393 17.4891C23.2179 18.1559 22.8222 18.8413 22.1554 19.02C21.4886 19.1987 20.8031 18.803 20.6245 18.1361L19.201 12.8235C19.0223 12.1567 19.418 11.4713 20.0848 11.2926ZM27.1243 35.2469C27.303 35.9137 27.9884 36.3094 28.6552 36.1308C29.3221 35.9521 29.7178 35.2667 29.5391 34.5998L28.1156 29.2872C27.9369 28.6204 27.2515 28.2247 26.5847 28.4033C25.9178 28.582 25.5221 29.2674 25.7008 29.9343L27.1243 35.2469Z" fill="white"/>
</mask>
<g mask="url(#mask0_5_682)">
<g clip-path="url(#clip0_5_682)">
<rect x="0.408447" width="48" height="48" rx="5.125" fill="#FFECCF"/>
<rect width="48" height="48" transform="translate(0.408447)" fill="#FFECCF"/>
<circle cx="27.549" cy="1.86179" r="20.8826" transform="rotate(-0.0800682 27.549 1.86179)" fill="url(#paint0_radial_5_682)"/>
<path d="M18.7291 -8.4789C15.0427 -10.76 10.3721 -10.774 6.67205 -8.51496L-30.3352 14.0805C-33.9596 16.2934 -33.9656 21.5169 -30.3462 23.7382L6.41654 46.3016C10.1111 48.5688 14.7817 48.5661 18.473 46.2936L55.16 23.7091C58.7603 21.4924 58.7669 16.2982 55.171 14.0732L18.7291 -8.4789Z" fill="url(#paint1_linear_5_682)"/>
<path d="M7.32586 22.7893C8.14627 4.86953 23.3382 -8.99227 41.258 -8.17187C59.1779 -7.35146 73.0397 7.8405 72.2192 25.7603C71.3988 43.6801 56.2069 57.5419 38.2871 56.7215C20.3673 55.9011 6.50545 40.7092 7.32586 22.7893Z" fill="url(#paint2_linear_5_682)"/>
<path d="M-19.0385 34.6049C-11.9154 31.5661 -4.23313 31.6964 2.42257 34.3544C15.7407 39.6862 23.4902 36.3897 28.8651 23.102C31.5424 16.4343 36.7694 10.7873 43.9006 7.74512C58.1582 1.67208 74.6182 8.26174 80.6826 22.4773C86.7471 36.6928 80.1093 53.1268 65.855 59.2078C58.7079 62.2568 51.0108 62.114 44.3449 59.4321C31.0483 54.1287 23.3137 57.4378 17.9456 70.7414C15.2615 77.3932 10.0356 83.0208 2.91249 86.0596C-11.3338 92.1372 -27.7937 85.5475 -33.8548 71.3399C-39.9159 57.1323 -33.2848 40.6825 -19.0385 34.6049Z" fill="url(#paint3_linear_5_682)"/>
<circle cx="45.6108" cy="8.67185" r="20.8826" transform="rotate(-0.0800682 45.6108 8.67185)" fill="url(#paint4_radial_5_682)"/>
</g>
</g>
<defs>
<radialGradient id="paint0_radial_5_682" cx="0" cy="0" r="1" gradientUnits="userSpaceOnUse" gradientTransform="translate(27.549 1.86179) rotate(90) scale(20.8826)">
<stop offset="0.166667" stop-color="#FF709F"/>
<stop offset="1" stop-color="#FF709F" stop-opacity="0"/>
</radialGradient>
<linearGradient id="paint1_linear_5_682" x1="-11.6545" y1="42.8949" x2="66.3843" y2="-4.58327" gradientUnits="userSpaceOnUse">
<stop offset="0.0598452" stop-color="#8480FE"/>
<stop offset="0.599632" stop-color="#8480FE" stop-opacity="0"/>
</linearGradient>
<linearGradient id="paint2_linear_5_682" x1="50.9716" y1="8.84152" x2="17.4932" y2="44.8401" gradientUnits="userSpaceOnUse">
<stop stop-color="#EB1000"/>
<stop offset="1" stop-color="#EB1000" stop-opacity="0"/>
</linearGradient>
<linearGradient id="paint3_linear_5_682" x1="10.2867" y1="49.8086" x2="69.6349" y2="16.5625" gradientUnits="userSpaceOnUse">
<stop stop-color="#FC7D00" stop-opacity="0"/>
<stop offset="0.432292" stop-color="#FC7D00"/>
<stop offset="0.609375" stop-color="#FC7D00"/>
<stop offset="1" stop-color="#FC7D00" stop-opacity="0"/>
</linearGradient>
<radialGradient id="paint4_radial_5_682" cx="0" cy="0" r="1" gradientUnits="userSpaceOnUse" gradientTransform="translate(45.6108 8.67185) rotate(90) scale(20.8826)">
<stop offset="0.166667" stop-color="#EB1000"/>
<stop offset="1" stop-color="#EB1000" stop-opacity="0"/>
</radialGradient>
<clipPath id="clip0_5_682">
<rect x="0.408447" width="48" height="48" rx="5.125" fill="white"/>
</clipPath>
</defs>
</svg>
