<svg width="48" height="48" viewBox="0 0 48 48" xmlns="http://www.w3.org/2000/svg">
  <defs>
<radialGradient id="paint0_radial_5481_99357" cx="0" cy="0" r="1" gradientUnits="userSpaceOnUse" gradientTransform="translate(17.0977 16.1176) rotate(90) scale(16.1176 17.0977)">
<stop offset="0.166667" stop-color="#FF709F"/>
<stop offset="1" stop-color="#FF709F" stop-opacity="0"/>
</radialGradient>
<linearGradient id="paint1_linear_5481_99357" x1="-5.97653" y1="40.0671" x2="55.8257" y2="0.180701" gradientUnits="userSpaceOnUse">
<stop offset="0.0598452" stop-color="#8480FE"/>
<stop offset="0.599632" stop-color="#8480FE" stop-opacity="0"/>
</linearGradient>
<linearGradient id="paint2_linear_5481_99357" x1="45.2963" y1="13.7836" x2="19.6117" y2="43.0811" gradientUnits="userSpaceOnUse">
<stop stop-color="#EB1000"/>
<stop offset="1" stop-color="#EB1000" stop-opacity="0"/>
</linearGradient>
<linearGradient id="paint3_linear_5481_99357" x1="11.9864" y1="45.4032" x2="59.1656" y2="17.3668" gradientUnits="userSpaceOnUse">
<stop stop-color="#FC7D00" stop-opacity="0"/>
<stop offset="0.432292" stop-color="#FC7D00"/>
<stop offset="0.609375" stop-color="#FC7D00"/>
<stop offset="1" stop-color="#FC7D00" stop-opacity="0"/>
</linearGradient>
<radialGradient id="paint4_radial_5481_99357" cx="0" cy="0" r="1" gradientUnits="userSpaceOnUse" gradientTransform="translate(17.0977 16.1176) rotate(90) scale(16.1176 17.0977)">
<stop offset="0.166667" stop-color="#EB1000"/>
<stop offset="1" stop-color="#EB1000" stop-opacity="0"/>
</radialGradient>
<clipPath id="clip0_5481_99357">
<rect x="3.89844" y="6.95996" width="39.3001" height="37.0472" rx="1.03837" fill="white"/>
</clipPath>
</defs>
<clipPath id="mask0_5481_99357">
<path fill-rule="evenodd" d="M32.1043 26.1656C30.2563 27.9296 27.9673 29.7596 25.1383 31.6226H25.1353C24.8983 31.7786 24.6523 31.9106 24.3973 32.0216C22.6123 32.7956 20.4973 32.4296 19.0843 31.0166L18.0223 29.9546L16.9603 28.8926C15.6223 27.5516 15.2263 25.5866 15.8473 23.8646C15.9763 23.5106 16.1443 23.1656 16.3573 22.8416C17.7043 20.7956 19.0363 19.0346 20.3353 17.5166C27.8863 8.69962 34.4263 8.12962 37.4113 8.46862C38.5153 8.59462 39.3853 9.46762 39.5113 10.5686C39.8263 13.3586 39.3523 19.2506 32.1043 26.1656ZM32.6143 15.3686C31.6213 14.3786 30.0133 14.3786 29.0233 15.3686C28.0333 16.3616 28.0303 17.9696 29.0233 18.9596C30.0163 19.9496 31.6243 19.9526 32.6143 18.9596C33.6043 17.9666 33.6073 16.3586 32.6143 15.3686ZM13.231 24.5816L10.087 24.6356V24.6386C8.044 24.6746 6.886 22.2986 8.182 20.7206C11.845 16.2656 16.78 14.6786 19.999 14.3156C18.058 16.3616 16.171 18.7676 14.353 21.5276C13.735 22.4666 13.366 23.5166 13.231 24.5816ZM8.60798 35.5616C8.37398 35.7956 8.06498 35.9126 7.75898 35.9126C7.44998 35.9126 7.14398 35.7956 6.90998 35.5616C6.44198 35.0906 6.44198 34.3316 6.90998 33.8636L10.06 30.7136C10.531 30.2456 11.29 30.2456 11.758 30.7136C12.226 31.1846 12.226 31.9436 11.758 32.4116L8.60798 35.5616ZM12.808 33.4616C13.279 32.9936 14.038 32.9936 14.506 33.4616C14.974 33.9326 14.974 34.6916 14.506 35.1596L8.50603 41.1596C8.27203 41.3936 7.96603 41.5106 7.65703 41.5106C7.34803 41.5106 7.04203 41.3936 6.80803 41.1596C6.34003 40.6886 6.34003 39.9296 6.80803 39.4616L12.808 33.4616ZM15.5742 36.2246L12.2742 39.5246C11.8062 39.9926 11.8062 40.7516 12.2742 41.2226C12.5082 41.4566 12.8142 41.5736 13.1232 41.5736C13.4322 41.5736 13.7382 41.4566 13.9722 41.2226L17.2722 37.9226C17.7402 37.4546 17.7402 36.6956 17.2722 36.2246C16.8042 35.7536 16.0452 35.7566 15.5742 36.2246ZM23.4075 34.7576L23.3535 37.8896C23.3175 39.9446 25.7085 41.0846 27.2925 39.7766C31.7205 36.1226 33.3045 31.2116 33.6735 27.9956C31.7295 29.8316 29.3565 31.7186 26.4585 33.6266C25.5345 34.2356 24.4935 34.6166 23.4075 34.7576Z" fill="white"/>
</clipPath>
<g clip-path="url(#mask0_5481_99357)">
<g clip-path="url(#clip0_5481_99357)">
<rect x="3.89844" y="6.95996" width="39.3001" height="37.0472" rx="1.03837" fill="#FFECCF"/>
<rect width="39.3001" height="37.0472" transform="translate(3.89844 6.95996)" fill="#FFECCF"/>
<ellipse cx="17.0977" cy="16.1176" rx="17.0977" ry="16.1176" transform="matrix(0.999999 -0.00131734 0.00148243 0.999999 9 -7.69824)" fill="url(#paint0_radial_5481_99357)"/>
<path d="M18.9001 0.415906C15.8819 -1.3447 12.0578 -1.35548 9.02836 0.388072L-21.2714 17.8276C-24.2389 19.5356 -24.2438 23.5672 -21.2804 25.2817L8.81916 42.6965C11.8441 44.4463 15.6681 44.4443 18.6904 42.6903L48.728 25.2591C51.6757 23.5483 51.6811 19.5393 48.737 17.822L18.9001 0.415906Z" fill="url(#paint1_linear_5481_99357)"/>
<path d="M9.56118 24.5488C10.2329 10.718 22.6713 0.0191772 37.3432 0.652384C52.0151 1.28559 63.3645 13.011 62.6928 26.8418C62.0211 40.6727 49.5826 51.3715 34.9107 50.7382C20.2389 50.105 8.88946 38.3796 9.56118 24.5488Z" fill="url(#paint2_linear_5481_99357)"/>
<path d="M-12.0237 33.6687C-6.19164 31.3233 0.0982146 31.4239 5.54758 33.4754C16.4519 37.5906 22.7967 35.0463 27.1975 24.7906C29.3895 19.6443 33.6692 15.2859 39.5078 12.9379C51.1813 8.2506 64.6579 13.3366 69.6232 24.3084C74.5885 35.2802 69.1538 47.9643 57.483 52.6577C51.6313 55.011 45.3293 54.9007 39.8716 52.8308C28.985 48.7375 22.6522 51.2915 18.2571 61.5595C16.0595 66.6935 11.7808 71.037 5.9487 73.3824C-5.7155 78.0732 -19.1921 72.9871 -24.1546 62.0215C-29.1171 51.0558 -23.6879 38.3595 -12.0237 33.6687Z" fill="url(#paint3_linear_5481_99357)"/>
<ellipse cx="17.0977" cy="16.1176" rx="17.0977" ry="16.1176" transform="matrix(0.999999 -0.00131734 0.00148243 0.999999 23.7852 -2.44238)" fill="url(#paint4_radial_5481_99357)"/>
</g>
</g>

</svg>
