<svg width="48" height="48" viewBox="0 0 48 48" xmlns="http://www.w3.org/2000/svg">
  <defs>
<radialGradient id="paint0_radial_5481_99624" cx="0" cy="0" r="1" gradientUnits="userSpaceOnUse" gradientTransform="translate(27.1423 1.86222) rotate(90) scale(20.8826)">
<stop offset="0.166667" stop-color="#FF709F"/>
<stop offset="1" stop-color="#FF709F" stop-opacity="0"/>
</radialGradient>
<linearGradient id="paint1_linear_5481_99624" x1="-12.0622" y1="42.8952" x2="65.9766" y2="-4.58296" gradientUnits="userSpaceOnUse">
<stop offset="0.0598452" stop-color="#8480FE"/>
<stop offset="0.599632" stop-color="#8480FE" stop-opacity="0"/>
</linearGradient>
<linearGradient id="paint2_linear_5481_99624" x1="50.5621" y1="8.84155" x2="17.0836" y2="44.8401" gradientUnits="userSpaceOnUse">
<stop stop-color="#EB1000"/>
<stop offset="1" stop-color="#EB1000" stop-opacity="0"/>
</linearGradient>
<linearGradient id="paint3_linear_5481_99624" x1="9.87765" y1="49.8089" x2="69.2259" y2="16.5628" gradientUnits="userSpaceOnUse">
<stop stop-color="#FC7D00" stop-opacity="0"/>
<stop offset="0.432292" stop-color="#FC7D00"/>
<stop offset="0.609375" stop-color="#FC7D00"/>
<stop offset="1" stop-color="#FC7D00" stop-opacity="0"/>
</linearGradient>
<radialGradient id="paint4_radial_5481_99624" cx="0" cy="0" r="1" gradientUnits="userSpaceOnUse" gradientTransform="translate(45.2009 8.67178) rotate(90) scale(20.8826)">
<stop offset="0.166667" stop-color="#EB1000"/>
<stop offset="1" stop-color="#EB1000" stop-opacity="0"/>
</radialGradient>
<clipPath id="clip0_5481_99624">
<rect width="48" height="48" rx="5.125" fill="white"/>
</clipPath>
</defs>
<clipPath id="mask0_5481_99624">
<path fill-rule="evenodd" d="M18.9667 7.15344C23.8761 5.54352 29.1397 6.08045 32.5671 7.62678C39.5972 10.7984 41.9176 17.616 40.8903 23.4531C39.8722 29.2381 35.4443 34.4618 28.7323 33.9974C22.5777 33.5716 19.2538 31.2355 17.9062 28.1577C16.6115 25.201 17.3312 21.9596 18.3758 20.0302C21.0765 15.0422 25.6978 14.2813 28.544 14.3717C30.4191 14.4313 31.5452 16.1262 31.3962 17.746L30.1309 31.5046C34.5244 31.2009 37.6276 27.5688 38.4281 23.0198C39.2921 18.1104 37.3548 12.5294 31.539 9.90559C28.6806 8.616 24.0616 8.11365 19.7457 9.52897C15.5042 10.9199 11.5474 14.1605 9.83694 20.4384C8.48393 25.4042 10.0637 30.1613 13.1098 33.6895C16.175 37.2398 20.6169 39.4175 24.7669 39.2979C25.4569 39.278 26.0325 39.8213 26.0524 40.5114C26.0723 41.2014 25.529 41.777 24.8389 41.7969C19.8102 41.9418 14.6844 39.3388 11.2175 35.3232C7.73142 31.2854 5.81457 25.6914 7.42486 19.7812C9.37139 12.6369 13.9828 8.78778 18.9667 7.15344ZM27.6318 31.3807L28.9067 17.5171C28.9251 17.3174 28.8634 17.1442 28.7732 17.0309C28.6898 16.926 28.5876 16.8743 28.4646 16.8704C26.0933 16.7951 22.637 17.4107 20.5742 21.2206C19.7805 22.6866 19.297 25.1012 20.1962 27.1549C20.9752 28.9338 22.9579 30.7941 27.6318 31.3807Z" fill="#292929"/>
</clipPath>
<g clip-path="url(#mask0_5481_99624)">
<g clip-path="url(#clip0_5481_99624)">
<rect width="48" height="48" rx="5.125" fill="#FFECCF"/>
<rect width="48" height="48" fill="#FFECCF"/>
<circle cx="27.1423" cy="1.86221" r="20.8826" transform="rotate(-0.0800682 27.1423 1.86221)" fill="url(#paint0_radial_5481_99624)"/>
<path d="M18.3213 -8.47858C14.635 -10.7597 9.96439 -10.7737 6.26433 -8.51465L-30.7429 14.0808C-34.3673 16.2938 -34.3733 21.5172 -30.7539 23.7386L6.00883 46.302C9.70335 48.5691 14.374 48.5664 18.0653 46.2939L54.7523 23.7094C58.3526 21.4928 58.3591 16.2985 54.7632 14.0735L18.3213 -8.47858Z" fill="url(#paint1_linear_5481_99624)"/>
<path d="M6.91632 22.7894C7.73673 4.86956 22.9287 -8.99224 40.8485 -8.17184C58.7683 -7.35143 72.6301 7.84053 71.8097 25.7603C70.9893 43.6802 55.7973 57.542 37.8775 56.7215C19.9577 55.9011 6.09591 40.7092 6.91632 22.7894Z" fill="url(#paint2_linear_5481_99624)"/>
<path d="M-19.4476 34.6052C-12.3244 31.5664 -4.64218 31.6967 2.01351 34.3546C15.3317 39.6865 23.0811 36.39 28.456 23.1023C31.1333 16.4345 36.3604 10.7876 43.4915 7.74541C57.7492 1.67237 74.2091 8.26203 80.2736 22.4776C86.338 36.6931 79.7002 53.1271 65.4459 59.2081C58.2988 62.2571 50.6018 62.1143 43.9359 59.4324C30.6393 54.129 22.9046 57.438 17.5365 70.7417C14.8525 77.3935 9.62658 83.0211 2.50343 86.0599C-11.7429 92.1375 -28.2028 85.5478 -34.2639 71.3402C-40.3249 57.1326 -33.6939 40.6828 -19.4476 34.6052Z" fill="url(#paint3_linear_5481_99624)"/>
<circle cx="45.2009" cy="8.67178" r="20.8826" transform="rotate(-0.0800682 45.2009 8.67178)" fill="url(#paint4_radial_5481_99624)"/>
</g>
</g>

</svg>
