<svg width="48" height="48" viewBox="0 0 48 48" xmlns="http://www.w3.org/2000/svg">
  <defs>
<radialGradient id="paint0_radial_5481_99554" cx="0" cy="0" r="1" gradientUnits="userSpaceOnUse" gradientTransform="translate(27.1423 1.86222) rotate(90) scale(20.8826)">
<stop offset="0.166667" stop-color="#FF709F"/>
<stop offset="1" stop-color="#FF709F" stop-opacity="0"/>
</radialGradient>
<linearGradient id="paint1_linear_5481_99554" x1="-12.0622" y1="42.8952" x2="65.9766" y2="-4.58296" gradientUnits="userSpaceOnUse">
<stop offset="0.0598452" stop-color="#8480FE"/>
<stop offset="0.599632" stop-color="#8480FE" stop-opacity="0"/>
</linearGradient>
<linearGradient id="paint2_linear_5481_99554" x1="50.5621" y1="8.84155" x2="17.0836" y2="44.8401" gradientUnits="userSpaceOnUse">
<stop stop-color="#EB1000"/>
<stop offset="1" stop-color="#EB1000" stop-opacity="0"/>
</linearGradient>
<linearGradient id="paint3_linear_5481_99554" x1="9.87765" y1="49.8089" x2="69.2259" y2="16.5628" gradientUnits="userSpaceOnUse">
<stop stop-color="#FC7D00" stop-opacity="0"/>
<stop offset="0.432292" stop-color="#FC7D00"/>
<stop offset="0.609375" stop-color="#FC7D00"/>
<stop offset="1" stop-color="#FC7D00" stop-opacity="0"/>
</linearGradient>
<radialGradient id="paint4_radial_5481_99554" cx="0" cy="0" r="1" gradientUnits="userSpaceOnUse" gradientTransform="translate(45.2009 8.67178) rotate(90) scale(20.8826)">
<stop offset="0.166667" stop-color="#EB1000"/>
<stop offset="1" stop-color="#EB1000" stop-opacity="0"/>
</radialGradient>
<clipPath id="clip0_5481_99554">
<rect width="48" height="48" rx="5.125" fill="white"/>
</clipPath>
</defs>
<clipPath id="mask0_5481_99554">
<path fill-rule="evenodd" d="M38.075 7.77535C38.9906 7.034 40.3426 7.89352 40.0791 9.11802L39.4647 11.9683C39.3729 12.3913 39.4869 12.8358 39.7688 13.1547L41.6658 15.3027C42.2222 15.9325 42.0449 16.8081 41.5108 17.2481C41.2373 17.4693 40.8721 17.577 40.4648 17.4816L37.7332 16.8405C37.3279 16.7446 36.9019 16.8636 36.5963 17.1577L34.5378 19.1372C33.6241 20.0162 32.1705 19.1405 32.4428 17.8748L33.0572 15.0246C33.1491 14.6016 33.035 14.1571 32.7532 13.8382L30.8562 11.6902C30.2997 11.0604 30.477 10.1848 31.0111 9.74483C31.2846 9.52353 31.6498 9.41582 32.0572 9.51127L34.7887 10.1524C35.1625 10.2407 35.5537 10.1465 35.852 9.90072C35.8803 9.87782 35.9078 9.85356 35.9344 9.82798L37.9929 7.84848C38.0198 7.8226 38.0472 7.79823 38.075 7.77535ZM28.0779 11.5H14.5156C12.3065 11.5 10.5156 13.2909 10.5156 15.5V34.5C10.5156 36.7091 12.3065 38.5 14.5156 38.5H33.5156C35.7248 38.5 37.5156 36.7091 37.5156 34.5V19.742L36.2711 20.9388C34.9142 22.2438 33.0624 22.2392 31.7553 21.4516C30.4653 20.6744 29.6215 19.1022 29.9988 17.3489L30.4931 15.0557L28.9827 13.3455C28.4833 12.7801 28.1948 12.1428 28.0779 11.5ZM26.4886 26.1843L28.4963 26.6366C29.2855 26.815 29.8336 25.8673 29.2838 25.2712L27.8887 23.7589C27.7054 23.5591 27.6311 23.2834 27.6905 23.0176L28.1429 21.0099C28.3212 20.2207 27.3735 19.6725 26.7775 20.2223L25.2652 21.6175C25.0654 21.8007 24.7897 21.875 24.5238 21.8156L22.5162 21.3632C21.727 21.1849 21.1788 22.1326 21.7286 22.7286L23.1238 24.241C23.307 24.4408 23.3813 24.7165 23.3219 24.9823L22.8695 26.99C22.6912 27.7792 23.6389 28.3273 24.2349 27.7775L25.7473 26.3824C25.947 26.1991 26.2228 26.1248 26.4886 26.1843Z" fill="white"/>
</clipPath>
<g clip-path="url(#mask0_5481_99554)">
<g clip-path="url(#clip0_5481_99554)">
<rect width="48" height="48" rx="5.125" fill="#FFECCF"/>
<rect width="48" height="48" fill="#FFECCF"/>
<circle cx="27.1423" cy="1.86221" r="20.8826" transform="rotate(-0.0800682 27.1423 1.86221)" fill="url(#paint0_radial_5481_99554)"/>
<path d="M18.3213 -8.47858C14.635 -10.7597 9.96439 -10.7737 6.26433 -8.51465L-30.7429 14.0808C-34.3673 16.2938 -34.3733 21.5172 -30.7539 23.7386L6.00883 46.302C9.70335 48.5691 14.374 48.5664 18.0653 46.2939L54.7523 23.7094C58.3526 21.4928 58.3591 16.2985 54.7632 14.0735L18.3213 -8.47858Z" fill="url(#paint1_linear_5481_99554)"/>
<path d="M6.91632 22.7894C7.73673 4.86956 22.9287 -8.99224 40.8485 -8.17184C58.7683 -7.35143 72.6301 7.84053 71.8097 25.7603C70.9893 43.6802 55.7973 57.542 37.8775 56.7215C19.9577 55.9011 6.09591 40.7092 6.91632 22.7894Z" fill="url(#paint2_linear_5481_99554)"/>
<path d="M-19.4476 34.6052C-12.3244 31.5664 -4.64218 31.6967 2.01351 34.3546C15.3317 39.6865 23.0811 36.39 28.456 23.1023C31.1333 16.4345 36.3604 10.7876 43.4915 7.74541C57.7492 1.67237 74.2091 8.26203 80.2736 22.4776C86.338 36.6931 79.7002 53.1271 65.4459 59.2081C58.2988 62.2571 50.6018 62.1143 43.9359 59.4324C30.6393 54.129 22.9046 57.438 17.5365 70.7417C14.8525 77.3935 9.62658 83.0211 2.50343 86.0599C-11.7429 92.1375 -28.2028 85.5478 -34.2639 71.3402C-40.3249 57.1326 -33.6939 40.6828 -19.4476 34.6052Z" fill="url(#paint3_linear_5481_99554)"/>
<circle cx="45.2009" cy="8.67178" r="20.8826" transform="rotate(-0.0800682 45.2009 8.67178)" fill="url(#paint4_radial_5481_99554)"/>
</g>
</g>

</svg>
