<svg width="160" height="160" viewBox="0 0 160 160" xmlns="http://www.w3.org/2000/svg">
  <defs>
<radialGradient id="paint0_radial_5481_89915" cx="0" cy="0" r="1" gradientUnits="userSpaceOnUse" gradientTransform="translate(56.9923 53.7253) rotate(90) scale(53.7253 56.9923)">
<stop offset="0.166667" stop-color="#FF709F"/>
<stop offset="1" stop-color="#FF709F" stop-opacity="0"/>
</radialGradient>
<linearGradient id="paint1_linear_5481_89915" x1="-16.9205" y1="131.011" x2="189.087" y2="-1.94322" gradientUnits="userSpaceOnUse">
<stop offset="0.0598452" stop-color="#8480FE"/>
<stop offset="0.599632" stop-color="#8480FE" stop-opacity="0"/>
</linearGradient>
<linearGradient id="paint2_linear_5481_89915" x1="153.995" y1="43.4014" x2="68.3801" y2="141.06" gradientUnits="userSpaceOnUse">
<stop stop-color="#EB1000"/>
<stop offset="1" stop-color="#EB1000" stop-opacity="0"/>
</linearGradient>
<linearGradient id="paint3_linear_5481_89915" x1="42.9585" y1="148.798" x2="200.223" y2="55.3431" gradientUnits="userSpaceOnUse">
<stop stop-color="#FC7D00" stop-opacity="0"/>
<stop offset="0.432292" stop-color="#FC7D00"/>
<stop offset="0.609375" stop-color="#FC7D00"/>
<stop offset="1" stop-color="#FC7D00" stop-opacity="0"/>
</linearGradient>
<radialGradient id="paint4_radial_5481_89915" cx="0" cy="0" r="1" gradientUnits="userSpaceOnUse" gradientTransform="translate(56.9923 53.7253) rotate(90) scale(53.7253 56.9923)">
<stop offset="0.166667" stop-color="#EB1000"/>
<stop offset="1" stop-color="#EB1000" stop-opacity="0"/>
</radialGradient>
<clipPath id="clip0_5481_89915">
<rect x="16" y="20.6543" width="131" height="123.491" rx="3.46124" fill="white"/>
</clipPath>
</defs>
<clipPath id="mask0_5481_89915">
<path fill-rule="evenodd" d="M69.24 48.0202L107.8 36.3102L107.81 36.3002C113.56 34.5502 119.36 38.8502 119.36 44.8602V88.7202C119.36 94.7302 113.56 99.0302 107.81 97.2802L69.25 85.5502H69.21L79.65 109.8C81.89 114.98 79.51 120.99 74.34 123.23C69.16 125.47 63.15 123.09 60.91 117.92L46.84 85.5602H41.52C31.16 85.5602 22.75 77.1502 22.75 66.7902C22.75 56.4302 31.15 48.0202 41.52 48.0202H69.24ZM136.42 82.3601L142.17 84.1801C144.27 84.8501 145.44 87.0901 144.77 89.2001C144.23 90.9001 142.66 91.9901 140.96 91.9901C140.56 91.9901 140.15 91.9301 139.75 91.8001L134 89.9801C131.9 89.3101 130.73 87.0701 131.4 84.9601C132.07 82.8601 134.31 81.6901 136.42 82.3601ZM135.211 50.8801C135.611 50.8801 136.021 50.8201 136.421 50.6901L142.171 48.8701C144.281 48.2001 145.441 45.9501 144.771 43.8501C144.101 41.7401 141.861 40.5801 139.751 41.2501L134.001 43.0701C131.891 43.7401 130.731 45.9901 131.401 48.0901C131.941 49.7901 133.511 50.8801 135.211 50.8801ZM141.231 70.5302H135.211C133.001 70.5302 131.211 68.7402 131.211 66.5302C131.211 64.3202 133.001 62.5302 135.211 62.5302H141.231C143.441 62.5302 145.231 64.3202 145.231 66.5302C145.231 68.7402 143.441 70.5302 141.231 70.5302Z" fill="white"/>
</clipPath>
<g clip-path="url(#mask0_5481_89915)">
<g clip-path="url(#clip0_5481_89915)">
<rect x="16" y="20.6543" width="131" height="123.491" rx="3.46124" fill="#FFECCF"/>
<rect width="131" height="123.491" transform="translate(16 20.6543)" fill="#FFECCF"/>
<ellipse cx="56.9923" cy="53.7253" rx="56.9923" ry="53.7253" transform="matrix(0.999999 -0.00131734 0.00148243 0.999999 33 -28.2061)" fill="url(#paint0_radial_5481_89915)"/>
<path d="M66.0015 -1.15922C55.9408 -7.0279 43.1939 -7.06384 33.0958 -1.252L-67.9034 56.8798C-77.795 62.5732 -77.8115 76.0118 -67.9334 81.7267L32.3985 139.776C42.4815 145.609 55.2284 145.602 65.3027 139.755L165.428 81.6516C175.254 75.9488 175.272 62.5854 165.458 56.8612L66.0015 -1.15922Z" fill="url(#paint1_linear_5481_89915)"/>
<path d="M34.8784 79.2854C37.1175 33.1826 78.579 -2.48002 127.485 -0.369331C176.392 1.74136 214.223 40.8261 211.984 86.9289C209.745 133.032 168.283 168.694 119.377 166.584C70.4707 164.473 32.6394 125.388 34.8784 79.2854Z" fill="url(#paint2_linear_5481_89915)"/>
<path d="M-37.0752 109.683C-17.6349 101.865 3.33131 102.2 21.4959 109.038C57.8435 122.756 78.9931 114.275 93.6621 80.089C100.969 62.9348 115.234 48.4068 134.697 40.58C173.608 24.9558 218.53 41.9092 235.081 78.4819C251.632 115.055 233.516 157.335 194.614 172.979C175.108 180.824 154.102 180.456 135.909 173.556C99.6206 159.912 78.5114 168.426 63.8609 202.652C56.5356 219.765 42.2733 234.244 22.8329 242.062C-16.0477 257.698 -60.9697 240.744 -77.5114 204.192C-94.0531 167.64 -75.9559 125.319 -37.0752 109.683Z" fill="url(#paint3_linear_5481_89915)"/>
<ellipse cx="56.9923" cy="53.7253" rx="56.9923" ry="53.7253" transform="matrix(0.999999 -0.00131734 0.00148243 0.999999 82.293 -10.6855)" fill="url(#paint4_radial_5481_89915)"/>
</g>
</g>

</svg>
