<svg width="96" height="96" viewBox="0 0 96 96" xmlns="http://www.w3.org/2000/svg">
  <defs>
<radialGradient id="paint0_radial_5481_99565" cx="0" cy="0" r="1" gradientUnits="userSpaceOnUse" gradientTransform="translate(54.2806 3.72345) rotate(90) scale(41.7653)">
<stop offset="0.166667" stop-color="#FF709F"/>
<stop offset="1" stop-color="#FF709F" stop-opacity="0"/>
</radialGradient>
<linearGradient id="paint1_linear_5481_99565" x1="-24.1244" y1="85.7895" x2="131.953" y2="-9.16689" gradientUnits="userSpaceOnUse">
<stop offset="0.0598452" stop-color="#8480FE"/>
<stop offset="0.599632" stop-color="#8480FE" stop-opacity="0"/>
</linearGradient>
<linearGradient id="paint2_linear_5481_99565" x1="101.128" y1="17.6831" x2="34.1712" y2="89.6803" gradientUnits="userSpaceOnUse">
<stop stop-color="#EB1000"/>
<stop offset="1" stop-color="#EB1000" stop-opacity="0"/>
</linearGradient>
<linearGradient id="paint3_linear_5481_99565" x1="19.7553" y1="99.6167" x2="138.452" y2="33.1246" gradientUnits="userSpaceOnUse">
<stop stop-color="#FC7D00" stop-opacity="0"/>
<stop offset="0.432292" stop-color="#FC7D00"/>
<stop offset="0.609375" stop-color="#FC7D00"/>
<stop offset="1" stop-color="#FC7D00" stop-opacity="0"/>
</linearGradient>
<radialGradient id="paint4_radial_5481_99565" cx="0" cy="0" r="1" gradientUnits="userSpaceOnUse" gradientTransform="translate(90.4056 17.3436) rotate(90) scale(41.7653)">
<stop offset="0.166667" stop-color="#EB1000"/>
<stop offset="1" stop-color="#EB1000" stop-opacity="0"/>
</radialGradient>
<clipPath id="clip0_5481_99565">
<rect width="96" height="96" fill="white"/>
</clipPath>
<clipPath id="clip1_5481_99565">
<rect width="96" height="96" rx="5.125" fill="white"/>
</clipPath>
</defs>
<g clip-path="url(#clip0_5481_99565)">
<clipPath id="mask0_5481_99565">
<path fill-rule="evenodd" d="M9.61872 18.3053C8.92271 18.4836 8.37582 19.0215 8.18604 19.7144C7.99626 20.4074 8.19276 21.1489 8.7008 21.6569L17.8984 30.8545C18.3134 31.2695 18.8898 31.4813 19.4748 31.4337L27.6775 30.7662L40.1243 43.2131C40.9054 43.9941 42.1717 43.9941 42.9527 43.2131C43.7338 42.432 43.7338 41.1657 42.9527 40.3846L30.5069 27.9388L31.1746 19.7339C31.2222 19.1489 31.0104 18.5725 30.5954 18.1575L21.3978 8.95989C20.8898 8.45185 20.1483 8.25536 19.4553 8.44514C18.7624 8.63492 18.2245 9.18181 18.0462 9.87781L16.3276 16.5867L9.61872 18.3053ZM47.9999 17.2388C44.2693 17.2388 40.698 17.902 37.3947 19.1152C36.3579 19.496 35.2086 18.9641 34.8278 17.9273C34.4471 16.8904 34.9789 15.7412 36.0158 15.3604C39.7542 13.9874 43.7919 13.2388 47.9999 13.2388C67.1985 13.2388 82.762 28.8023 82.762 48.0009C82.762 67.1995 67.1985 82.763 47.9999 82.763C28.8013 82.763 13.2378 67.1995 13.2378 48.0009C13.2378 43.9036 13.9475 39.9677 15.2524 36.3122C15.6237 35.2719 16.7681 34.7296 17.8083 35.1009C18.8486 35.4723 19.3909 36.6166 19.0196 37.6569C17.8665 40.8869 17.2378 44.3683 17.2378 48.0009C17.2378 64.9904 31.0104 78.763 47.9999 78.763C64.9893 78.763 78.762 64.9904 78.762 48.0009C78.762 31.0115 64.9893 17.2388 47.9999 17.2388ZM47.9993 32.7447C45.9712 32.7447 44.0403 33.1393 42.2755 33.8542C41.2518 34.2689 40.0857 33.7752 39.671 32.7514C39.2563 31.7277 39.75 30.5615 40.7738 30.1468C43.0075 29.242 45.4478 28.7447 47.9993 28.7447C58.6336 28.7447 67.2544 37.3655 67.2544 47.9998C67.2544 58.6342 58.6336 67.255 47.9993 67.255C37.3649 67.255 28.7441 58.6342 28.7441 47.9998C28.7441 45.6225 29.1759 43.3414 29.967 41.2337C30.3552 40.1996 31.5082 39.676 32.5423 40.0642C33.5764 40.4524 34.1001 41.6054 33.7119 42.6395C33.0869 44.3045 32.7441 46.1098 32.7441 47.9998C32.7441 56.425 39.5741 63.255 47.9993 63.255C56.4245 63.255 63.2544 56.425 63.2544 47.9998C63.2544 39.5746 56.4245 32.7447 47.9993 32.7447ZM42.6552 51.3074C47.1749 50.8866 50.7725 47.2889 51.193 42.7691C53.0001 43.8576 54.2087 45.8385 54.2087 48.1018C54.2087 51.5375 51.4235 54.3227 47.9878 54.3227C45.7246 54.3227 43.7437 53.1143 42.6552 51.3074Z" fill="white"/>
</clipPath>
<g clip-path="url(#mask0_5481_99565)">
<g clip-path="url(#clip1_5481_99565)">
<rect width="96" height="96" rx="5.125" fill="#FFECCF"/>
<rect width="96" height="96" fill="#FFECCF"/>
<circle cx="54.2806" cy="3.72345" r="41.7653" transform="rotate(-0.0800682 54.2806 3.72345)" fill="url(#paint0_radial_5481_99565)"/>
<path d="M36.6427 -16.9581C29.27 -21.5204 19.9288 -21.5483 12.5287 -17.0303L-61.4858 28.1606C-68.7346 32.5865 -68.7467 43.0335 -61.5078 47.4761L12.0177 92.6029C19.4067 97.1373 28.7479 97.1319 36.1306 92.5868L109.505 47.4178C116.705 42.9845 116.718 32.596 109.526 28.1461L36.6427 -16.9581Z" fill="url(#paint1_linear_5481_99565)"/>
<path d="M13.8365 45.5788C15.4774 9.73912 45.8613 -17.9845 81.7009 -16.3437C117.541 -14.7029 145.264 15.6811 143.623 51.5207C141.982 87.3603 111.599 115.084 75.759 113.443C39.9193 111.802 12.1957 81.4184 13.8365 45.5788Z" fill="url(#paint2_linear_5481_99565)"/>
<path d="M-38.8952 69.2093C-24.6489 63.1318 -9.28437 63.3923 4.02702 68.7083C30.6634 79.3721 46.1622 72.779 56.9121 46.2036C62.2666 32.8681 72.7207 21.5742 86.983 15.4898C115.498 3.34376 148.418 16.5231 160.547 44.9542C172.676 73.3853 159.4 106.253 130.892 118.415C116.598 124.513 101.204 124.228 87.8718 118.864C61.2786 108.257 45.8093 114.875 35.073 141.482C29.7049 154.786 19.2532 166.041 5.00686 172.119C-23.4858 184.274 -56.4056 171.095 -68.5277 142.679C-80.6499 114.264 -67.3878 81.3645 -38.8952 69.2093Z" fill="url(#paint3_linear_5481_99565)"/>
<circle cx="90.4056" cy="17.3436" r="41.7653" transform="rotate(-0.0800682 90.4056 17.3436)" fill="url(#paint4_radial_5481_99565)"/>
</g>
</g>
</g>

</svg>
