<svg width="160" height="160" viewBox="0 0 160 160" xmlns="http://www.w3.org/2000/svg">
  <defs>
<radialGradient id="paint0_radial_5594_78751" cx="0" cy="0" r="1" gradientUnits="userSpaceOnUse" gradientTransform="translate(90.4677 6.20574) rotate(90) scale(69.6088)">
<stop offset="0.166667" stop-color="#FF709F"/>
<stop offset="1" stop-color="#FF709F" stop-opacity="0"/>
</radialGradient>
<linearGradient id="paint1_linear_5594_78751" x1="-40.2086" y1="142.983" x2="219.921" y2="-15.2772" gradientUnits="userSpaceOnUse">
<stop offset="0.0598452" stop-color="#8480FE"/>
<stop offset="0.599632" stop-color="#8480FE" stop-opacity="0"/>
</linearGradient>
<linearGradient id="paint2_linear_5594_78751" x1="168.544" y1="29.4718" x2="56.9494" y2="149.467" gradientUnits="userSpaceOnUse">
<stop stop-color="#EB1000"/>
<stop offset="1" stop-color="#EB1000" stop-opacity="0"/>
</linearGradient>
<linearGradient id="paint3_linear_5594_78751" x1="32.9255" y1="166.029" x2="230.753" y2="55.2086" gradientUnits="userSpaceOnUse">
<stop stop-color="#FC7D00" stop-opacity="0"/>
<stop offset="0.432292" stop-color="#FC7D00"/>
<stop offset="0.609375" stop-color="#FC7D00"/>
<stop offset="1" stop-color="#FC7D00" stop-opacity="0"/>
</linearGradient>
<radialGradient id="paint4_radial_5594_78751" cx="0" cy="0" r="1" gradientUnits="userSpaceOnUse" gradientTransform="translate(150.675 28.9059) rotate(90) scale(69.6088)">
<stop offset="0.166667" stop-color="#EB1000"/>
<stop offset="1" stop-color="#EB1000" stop-opacity="0"/>
</radialGradient>
<clipPath id="clip0_5594_78751">
<rect width="160" height="160" rx="5.125" fill="white"/>
</clipPath>
</defs>
<clipPath id="mask0_5594_78751">
<path fill-rule="evenodd" d="M80.0006 20C82.2097 20 84.0006 21.7909 84.0006 24V31.9381C84.0006 34.1472 82.2097 35.9381 80.0006 35.9381C77.7915 35.9381 76.0006 34.1472 76.0006 31.9381V24C76.0006 21.7909 77.7915 20 80.0006 20ZM79.7721 55.7198C66.466 55.8427 55.7174 66.6673 55.7174 80.0024C55.7174 93.3375 66.466 104.162 79.7721 104.285V55.7198ZM80.0011 47.7188C97.8308 47.7188 112.285 62.1726 112.285 80.0024C112.285 97.8322 97.8308 112.286 80.0011 112.286C62.1713 112.286 47.7174 97.8322 47.7174 80.0024C47.7174 62.1726 62.1713 47.7188 80.0011 47.7188ZM84.0006 128.062C84.0006 125.852 82.2097 124.062 80.0006 124.062C77.7915 124.062 76.0006 125.852 76.0006 128.062V136C76.0006 138.209 77.7915 140 80.0006 140C82.2097 140 84.0006 138.209 84.0006 136V128.062ZM140.001 80C140.001 82.2091 138.21 84 136.001 84H128.062C125.853 84 124.062 82.2091 124.062 80C124.062 77.7909 125.853 76 128.062 76H136.001C138.21 76 140.001 77.7909 140.001 80ZM31.9381 84C34.1472 84 35.9381 82.2091 35.9381 80C35.9381 77.7909 34.1472 76 31.9381 76H24C21.7909 76 20 77.7909 20 80C20 82.2091 21.7909 84 24 84H31.9381ZM122.426 37.5729C123.988 39.135 123.988 41.6677 122.426 43.2298L116.813 48.8429C115.251 50.405 112.718 50.405 111.156 48.8429C109.594 47.2808 109.594 44.7481 111.156 43.186L116.769 37.5729C118.331 36.0108 120.864 36.0108 122.426 37.5729ZM48.8441 116.813C50.4061 115.251 50.4062 112.719 48.8441 111.156C47.282 109.594 44.7493 109.594 43.1872 111.156L37.5741 116.77C36.012 118.332 36.012 120.864 37.5741 122.426C39.1362 123.988 41.6689 123.988 43.231 122.426L48.8441 116.813ZM37.5732 37.571C36.0111 39.1331 36.0111 41.6657 37.5732 43.2278L43.1863 48.8409C44.7484 50.403 47.281 50.403 48.8431 48.8409C50.4052 47.2788 50.4052 44.7462 48.8431 43.1841L43.23 37.571C41.6679 36.0089 39.1353 36.0089 37.5732 37.571ZM111.157 116.811C109.595 115.249 109.595 112.717 111.157 111.154C112.719 109.592 115.252 109.592 116.814 111.154L122.427 116.768C123.989 118.33 123.989 120.862 122.427 122.424C120.865 123.987 118.332 123.987 116.77 122.424L111.157 116.811Z" fill="#D9D9D9"/>
</clipPath>
<g clip-path="url(#mask0_5594_78751)">
<g clip-path="url(#clip0_5594_78751)">
<rect width="160" height="160" rx="5.125" fill="#FFECCF"/>
<rect width="160" height="160" fill="#FFECCF"/>
<circle cx="90.4677" cy="6.20574" r="69.6087" transform="rotate(-0.0800682 90.4677 6.20574)" fill="url(#paint0_radial_5594_78751)"/>
<path d="M61.0698 -28.2626C48.782 -35.8663 33.2133 -35.9129 20.8798 -28.3828L-102.478 46.9353C-114.559 54.3119 -114.579 71.7234 -102.514 79.1279L20.0281 154.339C32.3432 161.896 47.9119 161.887 60.2163 154.312L182.506 79.0306C194.507 71.6419 194.529 54.3277 182.543 46.9111L61.0698 -28.2626Z" fill="url(#paint1_linear_5594_78751)"/>
<path d="M23.0583 75.9646C25.793 16.2319 76.4328 -29.9741 136.166 -27.2395C195.898 -24.5048 242.104 26.1351 239.37 85.8678C236.635 145.601 185.995 191.807 126.262 189.072C66.5296 186.337 20.3236 135.697 23.0583 75.9646Z" fill="url(#paint2_linear_5594_78751)"/>
<path d="M-64.8253 115.35C-41.0814 105.221 -15.474 105.655 6.71169 114.515C51.1056 132.288 76.9371 121.299 94.8534 77.0069C103.778 54.7811 121.201 35.958 144.972 25.8174C192.497 5.57391 247.364 27.5395 267.579 74.9246C287.793 122.31 265.667 177.09 218.153 197.36C194.329 207.523 168.673 207.047 146.453 198.107C102.131 180.429 76.3488 191.459 58.4551 235.805C49.5082 257.978 32.0886 276.736 8.34476 286.866C-39.1429 307.124 -94.0093 285.159 -114.213 237.8C-134.416 190.441 -112.313 135.609 -64.8253 115.35Z" fill="url(#paint3_linear_5594_78751)"/>
<circle cx="150.675" cy="28.9059" r="69.6087" transform="rotate(-0.0800682 150.675 28.9059)" fill="url(#paint4_radial_5594_78751)"/>
</g>
</g>

</svg>
