<svg width="96" height="96" viewBox="0 0 96 96" xmlns="http://www.w3.org/2000/svg">
  <defs>
<radialGradient id="paint0_radial_5481_99656" cx="0" cy="0" r="1" gradientUnits="userSpaceOnUse" gradientTransform="translate(54.2806 3.72345) rotate(90) scale(41.7653)">
<stop offset="0.166667" stop-color="#FF709F"/>
<stop offset="1" stop-color="#FF709F" stop-opacity="0"/>
</radialGradient>
<linearGradient id="paint1_linear_5481_99656" x1="-24.1244" y1="85.7895" x2="131.953" y2="-9.16689" gradientUnits="userSpaceOnUse">
<stop offset="0.0598452" stop-color="#8480FE"/>
<stop offset="0.599632" stop-color="#8480FE" stop-opacity="0"/>
</linearGradient>
<linearGradient id="paint2_linear_5481_99656" x1="101.128" y1="17.6831" x2="34.1712" y2="89.6803" gradientUnits="userSpaceOnUse">
<stop stop-color="#EB1000"/>
<stop offset="1" stop-color="#EB1000" stop-opacity="0"/>
</linearGradient>
<linearGradient id="paint3_linear_5481_99656" x1="19.7553" y1="99.6167" x2="138.452" y2="33.1246" gradientUnits="userSpaceOnUse">
<stop stop-color="#FC7D00" stop-opacity="0"/>
<stop offset="0.432292" stop-color="#FC7D00"/>
<stop offset="0.609375" stop-color="#FC7D00"/>
<stop offset="1" stop-color="#FC7D00" stop-opacity="0"/>
</linearGradient>
<radialGradient id="paint4_radial_5481_99656" cx="0" cy="0" r="1" gradientUnits="userSpaceOnUse" gradientTransform="translate(90.4056 17.3436) rotate(90) scale(41.7653)">
<stop offset="0.166667" stop-color="#EB1000"/>
<stop offset="1" stop-color="#EB1000" stop-opacity="0"/>
</radialGradient>
<clipPath id="clip0_5481_99656">
<rect width="96" height="96" rx="5.125" fill="white"/>
</clipPath>
</defs>
<clipPath id="mask0_5481_99656">
<path fill-rule="evenodd" d="M12 57.9002C12 50.9249 15.0916 44.6717 19.9793 40.4362C20.7476 49.4348 25.9133 57.1786 33.3182 61.5095C34.2834 68.7621 38.117 75.1081 43.641 79.3698C40.999 80.4218 38.117 81.0002 35.1 81.0002C22.3422 81.0002 12 70.658 12 57.9002ZM51.6389 79.3698C54.281 80.4218 57.1629 81.0002 60.1799 81.0002C72.9377 81.0002 83.2799 70.658 83.2799 57.9002C83.2799 50.3464 79.6542 43.6395 74.0482 39.4247C73.623 48.2582 68.9685 55.9824 62.0656 60.6164C61.3069 68.2402 57.3886 74.9341 51.6389 79.3698ZM69.371 32.3985C66.8324 22.3981 57.7701 15 46.98 15C35.9844 15 26.7832 22.6824 24.4511 32.9725C27.72 31.5742 31.3196 30.8002 35.1 30.8002C39.6246 30.8002 43.8902 31.909 47.64 33.8698C51.3897 31.909 55.6553 30.8002 60.1799 30.8002C63.4064 30.8002 66.5011 31.364 69.371 32.3985ZM23.8834 37.7014C23.8811 37.834 23.88 37.9669 23.88 38.1C23.88 45.6538 27.5057 52.3607 33.1118 56.5755C33.5064 48.3771 37.544 41.1342 43.641 36.4305C40.999 35.3786 38.117 34.8002 35.1 34.8002C31.0294 34.8002 27.2047 35.8531 23.8834 37.7014ZM47.64 77.3034C52.6183 74.0794 56.2773 68.9915 57.6289 63.0277C54.36 64.4259 50.7604 65.2 46.98 65.2C43.7536 65.2 40.6588 64.6362 37.7889 63.6016C39.2399 69.3176 42.8221 74.1833 47.64 77.3034ZM70.08 38.1C70.08 45.0753 66.9884 51.3284 62.1007 55.564C61.4363 47.7828 57.4839 40.9398 51.6389 36.4305C54.281 35.3786 57.1629 34.8002 60.1799 34.8002C63.7129 34.8002 67.0607 35.5933 70.0548 37.0112C70.0715 37.3721 70.08 37.735 70.08 38.1ZM58.2 57.9002C58.2 49.7653 53.995 42.6125 47.64 38.4969C41.285 42.6125 37.0799 49.7653 37.0799 57.9002C37.0799 58.2651 37.0884 58.6281 37.1051 58.9889C40.0993 60.4069 43.447 61.2 46.98 61.2C51.0506 61.2 54.8753 60.1471 58.1966 58.2988C58.1989 58.1662 58.2 58.0333 58.2 57.9002Z" fill="white"/>
</clipPath>
<g clip-path="url(#mask0_5481_99656)">
<g clip-path="url(#clip0_5481_99656)">
<rect width="96" height="96" rx="5.125" fill="#FFECCF"/>
<rect width="96" height="96" fill="#FFECCF"/>
<circle cx="54.2806" cy="3.72345" r="41.7653" transform="rotate(-0.0800682 54.2806 3.72345)" fill="url(#paint0_radial_5481_99656)"/>
<path d="M36.6427 -16.9581C29.27 -21.5204 19.9288 -21.5483 12.5287 -17.0303L-61.4858 28.1606C-68.7346 32.5865 -68.7467 43.0335 -61.5078 47.4761L12.0177 92.6029C19.4067 97.1373 28.7479 97.1319 36.1306 92.5868L109.505 47.4178C116.705 42.9845 116.718 32.596 109.526 28.1461L36.6427 -16.9581Z" fill="url(#paint1_linear_5481_99656)"/>
<path d="M13.8365 45.5788C15.4774 9.73912 45.8613 -17.9845 81.7009 -16.3437C117.541 -14.7029 145.264 15.6811 143.623 51.5207C141.982 87.3603 111.599 115.084 75.759 113.443C39.9193 111.802 12.1957 81.4184 13.8365 45.5788Z" fill="url(#paint2_linear_5481_99656)"/>
<path d="M-38.8952 69.2093C-24.6489 63.1318 -9.28437 63.3923 4.02702 68.7083C30.6634 79.3721 46.1622 72.779 56.9121 46.2036C62.2666 32.8681 72.7207 21.5742 86.983 15.4898C115.498 3.34376 148.418 16.5231 160.547 44.9542C172.676 73.3853 159.4 106.253 130.892 118.415C116.598 124.513 101.204 124.228 87.8718 118.864C61.2786 108.257 45.8093 114.875 35.073 141.482C29.7049 154.786 19.2532 166.041 5.00686 172.119C-23.4858 184.274 -56.4056 171.095 -68.5277 142.679C-80.6499 114.264 -67.3878 81.3645 -38.8952 69.2093Z" fill="url(#paint3_linear_5481_99656)"/>
<circle cx="90.4056" cy="17.3436" r="41.7653" transform="rotate(-0.0800682 90.4056 17.3436)" fill="url(#paint4_radial_5481_99656)"/>
</g>
</g>

</svg>
