<svg width="48" height="48" viewBox="0 0 48 48" xmlns="http://www.w3.org/2000/svg">
  <defs>
<radialGradient id="paint0_radial_5481_99501" cx="0" cy="0" r="1" gradientUnits="userSpaceOnUse" gradientTransform="translate(27.1423 1.86124) rotate(90) scale(20.8826)">
<stop offset="0.166667" stop-color="#FF709F"/>
<stop offset="1" stop-color="#FF709F" stop-opacity="0"/>
</radialGradient>
<linearGradient id="paint1_linear_5481_99501" x1="-12.0622" y1="42.8942" x2="65.9766" y2="-4.58394" gradientUnits="userSpaceOnUse">
<stop offset="0.0598452" stop-color="#8480FE"/>
<stop offset="0.599632" stop-color="#8480FE" stop-opacity="0"/>
</linearGradient>
<linearGradient id="paint2_linear_5481_99501" x1="50.5621" y1="8.84057" x2="17.0836" y2="44.8392" gradientUnits="userSpaceOnUse">
<stop stop-color="#EB1000"/>
<stop offset="1" stop-color="#EB1000" stop-opacity="0"/>
</linearGradient>
<linearGradient id="paint3_linear_5481_99501" x1="9.87765" y1="49.8079" x2="69.2259" y2="16.5618" gradientUnits="userSpaceOnUse">
<stop stop-color="#FC7D00" stop-opacity="0"/>
<stop offset="0.432292" stop-color="#FC7D00"/>
<stop offset="0.609375" stop-color="#FC7D00"/>
<stop offset="1" stop-color="#FC7D00" stop-opacity="0"/>
</linearGradient>
<radialGradient id="paint4_radial_5481_99501" cx="0" cy="0" r="1" gradientUnits="userSpaceOnUse" gradientTransform="translate(45.2009 8.67081) rotate(90) scale(20.8826)">
<stop offset="0.166667" stop-color="#EB1000"/>
<stop offset="1" stop-color="#EB1000" stop-opacity="0"/>
</radialGradient>
<clipPath id="clip0_5481_99501">
<rect y="-0.000976562" width="48" height="48" rx="5.125" fill="white"/>
</clipPath>
</defs>
<clipPath id="mask0_5481_99501">
<path fill-rule="evenodd" d="M23.9991 6.23145C24.6895 6.23145 25.2491 6.79109 25.2491 7.48145V9.82204C25.2491 10.5124 24.6895 11.072 23.9991 11.072C23.3087 11.072 22.7491 10.5124 22.7491 9.82204V7.48145C22.7491 6.79109 23.3087 6.23145 23.9991 6.23145ZM32.3423 24.0008C32.3423 28.6088 28.6068 32.3443 23.9988 32.3443C19.3908 32.3443 15.6552 28.6088 15.6552 24.0008C15.6552 19.3927 19.3908 15.6572 23.9988 15.6572C28.6068 15.6572 32.3423 19.3927 32.3423 24.0008ZM25.2491 38.1788C25.2491 37.4884 24.6895 36.9288 23.9991 36.9288C23.3087 36.9288 22.7491 37.4884 22.7491 38.1788V40.5194C22.7491 41.2097 23.3087 41.7694 23.9991 41.7694C24.6895 41.7694 25.2491 41.2097 25.2491 40.5194V38.1788ZM41.7689 24.001C41.7689 24.6913 41.2092 25.251 40.5189 25.251H38.1783C37.4879 25.251 36.9283 24.6913 36.9283 24.001C36.9283 23.3106 37.4879 22.751 38.1783 22.751H40.5189C41.2092 22.751 41.7689 23.3106 41.7689 24.001ZM9.82106 25.251C10.5114 25.251 11.0711 24.6913 11.0711 24.001C11.0711 23.3106 10.5114 22.751 9.82106 22.751H7.48047C6.79011 22.751 6.23047 23.3106 6.23047 24.001C6.23047 24.6913 6.79011 25.251 7.48047 25.251H9.82106ZM36.5641 11.4345C37.0523 11.9226 37.0523 12.7141 36.5641 13.2022L34.9091 14.8573C34.4209 15.3454 33.6295 15.3454 33.1413 14.8573C32.6532 14.3691 32.6532 13.5777 33.1413 13.0895L34.7964 11.4345C35.2845 10.9463 36.076 10.9463 36.5641 11.4345ZM14.8572 34.9092C15.3454 34.421 15.3454 33.6296 14.8572 33.1414C14.369 32.6533 13.5776 32.6533 13.0894 33.1414L11.4344 34.7965C10.9462 35.2846 10.9462 36.0761 11.4344 36.5642C11.9225 37.0524 12.714 37.0524 13.2022 36.5642L14.8572 34.9092ZM11.4335 11.4345C10.9453 11.9226 10.9453 12.7141 11.4335 13.2022L13.0885 14.8573C13.5767 15.3454 14.3681 15.3454 14.8563 14.8573C15.3444 14.3691 15.3444 13.5777 14.8563 13.0895L13.2012 11.4345C12.7131 10.9463 11.9216 10.9463 11.4335 11.4345ZM33.1404 34.9092C32.6522 34.421 32.6522 33.6296 33.1404 33.1414C33.6285 32.6533 34.42 32.6533 34.9082 33.1414L36.5632 34.7965C37.0514 35.2846 37.0514 36.0761 36.5632 36.5642C36.0751 37.0524 35.2836 37.0524 34.7954 36.5642L33.1404 34.9092Z" fill="white"/>
</clipPath>
<g clip-path="url(#mask0_5481_99501)">
<g clip-path="url(#clip0_5481_99501)">
<rect y="-0.000976562" width="48" height="48" rx="5.125" fill="#FFECCF"/>
<rect width="48" height="48" transform="translate(0 -0.000976562)" fill="#FFECCF"/>
<circle cx="27.1423" cy="1.86124" r="20.8826" transform="rotate(-0.0800682 27.1423 1.86124)" fill="url(#paint0_radial_5481_99501)"/>
<path d="M18.3213 -8.47956C14.635 -10.7607 9.96439 -10.7746 6.26433 -8.51562L-30.7429 14.0798C-34.3673 16.2928 -34.3733 21.5162 -30.7539 23.7376L6.00883 46.301C9.70335 48.5682 14.374 48.5655 18.0653 46.2929L54.7523 23.7084C58.3526 21.4918 58.3591 16.2975 54.7632 14.0725L18.3213 -8.47956Z" fill="url(#paint1_linear_5481_99501)"/>
<path d="M6.91632 22.7884C7.73673 4.86858 22.9287 -8.99322 40.8485 -8.17281C58.7683 -7.3524 72.6301 7.83955 71.8097 25.7594C70.9893 43.6792 55.7973 57.541 37.8775 56.7206C19.9577 55.9002 6.09591 40.7082 6.91632 22.7884Z" fill="url(#paint2_linear_5481_99501)"/>
<path d="M-19.4476 34.6042C-12.3244 31.5654 -4.64218 31.6957 2.01351 34.3537C15.3317 39.6856 23.0811 36.389 28.456 23.1013C31.1333 16.4336 36.3604 10.7866 43.4915 7.74443C57.7492 1.67139 74.2091 8.26106 80.2736 22.4766C86.338 36.6922 79.7002 53.1261 65.4459 59.2071C58.2988 62.2561 50.6018 62.1133 43.9359 59.4314C30.6393 54.128 22.9046 57.4371 17.5365 70.7407C14.8525 77.3925 9.62658 83.0201 2.50343 86.0589C-11.7429 92.1365 -28.2028 85.5468 -34.2639 71.3392C-40.3249 57.1317 -33.6939 40.6818 -19.4476 34.6042Z" fill="url(#paint3_linear_5481_99501)"/>
<circle cx="45.2009" cy="8.67081" r="20.8826" transform="rotate(-0.0800682 45.2009 8.67081)" fill="url(#paint4_radial_5481_99501)"/>
</g>
</g>

</svg>
