<svg width="97" height="96" viewBox="0 0 97 96" xmlns="http://www.w3.org/2000/svg">
  <defs>
<radialGradient id="paint0_radial_5481_99511" cx="0" cy="0" r="1" gradientUnits="userSpaceOnUse" gradientTransform="translate(55.222 3.72345) rotate(90) scale(41.7653)">
<stop offset="0.166667" stop-color="#FF709F"/>
<stop offset="1" stop-color="#FF709F" stop-opacity="0"/>
</radialGradient>
<linearGradient id="paint1_linear_5481_99511" x1="-23.183" y1="85.7895" x2="132.895" y2="-9.16689" gradientUnits="userSpaceOnUse">
<stop offset="0.0598452" stop-color="#8480FE"/>
<stop offset="0.599632" stop-color="#8480FE" stop-opacity="0"/>
</linearGradient>
<linearGradient id="paint2_linear_5481_99511" x1="102.07" y1="17.6831" x2="35.1126" y2="89.6803" gradientUnits="userSpaceOnUse">
<stop stop-color="#EB1000"/>
<stop offset="1" stop-color="#EB1000" stop-opacity="0"/>
</linearGradient>
<linearGradient id="paint3_linear_5481_99511" x1="20.6967" y1="99.6167" x2="139.393" y2="33.1246" gradientUnits="userSpaceOnUse">
<stop stop-color="#FC7D00" stop-opacity="0"/>
<stop offset="0.432292" stop-color="#FC7D00"/>
<stop offset="0.609375" stop-color="#FC7D00"/>
<stop offset="1" stop-color="#FC7D00" stop-opacity="0"/>
</linearGradient>
<radialGradient id="paint4_radial_5481_99511" cx="0" cy="0" r="1" gradientUnits="userSpaceOnUse" gradientTransform="translate(91.347 17.3436) rotate(90) scale(41.7653)">
<stop offset="0.166667" stop-color="#EB1000"/>
<stop offset="1" stop-color="#EB1000" stop-opacity="0"/>
</radialGradient>
<clipPath id="clip0_5481_99511">
<rect x="0.941406" width="96" height="96" rx="5.125" fill="white"/>
</clipPath>
</defs>
<clipPath id="mask0_5481_99511">
<path fill-rule="evenodd" d="M39.5611 25.1335L52.7985 38.3709L48.6736 46.3204C47.7954 48.0127 46.3417 49.3358 44.5744 50.0512L23.0907 58.7477C22.623 58.9371 22.1557 59.0017 21.7124 58.9652L35.1374 45.5727C35.1547 45.5555 35.1716 45.538 35.1881 45.5203C36.0567 45.6111 36.9574 45.3236 37.623 44.658C38.7946 43.4864 38.7946 41.5869 37.623 40.4153C36.4515 39.2438 34.552 39.2438 33.3804 40.4153C32.7851 41.0106 32.4923 41.7938 32.5019 42.574C32.4362 42.6249 32.3729 42.6805 32.3124 42.7408L18.9581 56.0628C18.9472 55.6668 19.0171 55.2542 19.1842 54.8413L27.8808 33.3576C28.5962 31.5903 29.9193 30.1365 31.6116 29.2584L39.5611 25.1335ZM46.1408 19.4196L42.8224 22.738L55.183 35.0986L58.5014 31.7802C60.0635 30.2181 60.0635 27.6855 58.5014 26.1234L51.7976 19.4196C50.2355 17.8575 47.7029 17.8575 46.1408 19.4196ZM41.6603 68.4325C39.6391 72.8337 38.942 74.3517 35.227 77.244C36.6621 77.4093 38.5851 77.6012 40.7347 77.692C47.604 77.9823 56.787 77.2416 59.7532 71.3121C60.589 69.6413 60.9416 68.1454 60.9564 66.8165C60.9691 65.6678 60.7294 64.644 60.3311 63.74L60.3316 63.7404C59.7138 62.3377 58.7143 61.2236 57.6838 60.3795C56.8964 59.7344 55.7731 59.2231 54.484 58.9501L54.4851 58.951C50.902 58.1917 46.0366 59.2724 43.5359 64.4344C42.7767 66.0014 42.1755 67.3106 41.6603 68.4325L41.6603 68.4325ZM60.2187 57.2852C59.0384 56.3183 57.5543 55.6057 55.9313 55.1828L70.0153 37.9902C71.8103 35.7989 75.0419 35.4777 77.2331 37.2728C79.4243 39.0678 79.7455 42.2994 77.9505 44.4906L63.8157 61.7452C62.8725 59.7976 61.4917 58.328 60.2187 57.2852Z" fill="white"/>
</clipPath>
<g clip-path="url(#mask0_5481_99511)">
<g clip-path="url(#clip0_5481_99511)">
<rect x="0.941406" width="96" height="96" rx="5.125" fill="#FFECCF"/>
<rect width="96" height="96" transform="translate(0.941406)" fill="#FFECCF"/>
<circle cx="55.222" cy="3.72345" r="41.7653" transform="rotate(-0.0800682 55.222 3.72345)" fill="url(#paint0_radial_5481_99511)"/>
<path d="M37.5841 -16.9581C30.2114 -21.5204 20.8702 -21.5483 13.4701 -17.0303L-60.5444 28.1606C-67.7932 32.5865 -67.8053 43.0335 -60.5664 47.4761L12.9591 92.6029C20.3481 97.1373 29.6893 97.1319 37.072 92.5868L110.446 47.4178C117.647 42.9845 117.66 32.596 110.468 28.1461L37.5841 -16.9581Z" fill="url(#paint1_linear_5481_99511)"/>
<path d="M14.7779 45.5788C16.4188 9.73912 46.8027 -17.9845 82.6423 -16.3437C118.482 -14.7029 146.206 15.6811 144.565 51.5207C142.924 87.3603 112.54 115.084 76.7004 113.443C40.8607 111.802 13.1371 81.4184 14.7779 45.5788Z" fill="url(#paint2_linear_5481_99511)"/>
<path d="M-37.9538 69.2093C-23.7074 63.1318 -8.34296 63.3923 4.96842 68.7083C31.6048 79.3721 47.1036 72.779 57.8535 46.2036C63.208 32.8681 73.6621 21.5742 87.9244 15.4898C116.44 3.34376 149.36 16.5231 161.489 44.9542C173.617 73.3853 160.342 106.253 131.833 118.415C117.539 124.513 102.145 124.228 88.8132 118.864C62.22 108.257 46.7507 114.875 36.0144 141.482C30.6463 154.786 20.1946 166.041 5.94826 172.119C-22.5444 184.274 -55.4642 171.095 -67.5863 142.679C-79.7085 114.264 -66.4464 81.3645 -37.9538 69.2093Z" fill="url(#paint3_linear_5481_99511)"/>
<circle cx="91.347" cy="17.3436" r="41.7653" transform="rotate(-0.0800682 91.347 17.3436)" fill="url(#paint4_radial_5481_99511)"/>
</g>
</g>

</svg>
