<svg width="48" height="48" viewBox="0 0 48 48" xmlns="http://www.w3.org/2000/svg">
  <defs>
<radialGradient id="paint0_radial_5481_99408" cx="0" cy="0" r="1" gradientUnits="userSpaceOnUse" gradientTransform="translate(16.3929 15.4531) rotate(90) scale(15.4531 16.3929)">
<stop offset="0.166667" stop-color="#FF709F"/>
<stop offset="1" stop-color="#FF709F" stop-opacity="0"/>
</radialGradient>
<linearGradient id="paint1_linear_5481_99408" x1="-3.94892" y1="38.702" x2="55.3055" y2="0.459869" gradientUnits="userSpaceOnUse">
<stop offset="0.0598452" stop-color="#8480FE"/>
<stop offset="0.599632" stop-color="#8480FE" stop-opacity="0"/>
</linearGradient>
<linearGradient id="paint2_linear_5481_99408" x1="45.2133" y1="13.5027" x2="20.5875" y2="41.5925" gradientUnits="userSpaceOnUse">
<stop stop-color="#EB1000"/>
<stop offset="1" stop-color="#EB1000" stop-opacity="0"/>
</linearGradient>
<linearGradient id="paint3_linear_5481_99408" x1="13.273" y1="43.8181" x2="58.5074" y2="16.9375" gradientUnits="userSpaceOnUse">
<stop stop-color="#FC7D00" stop-opacity="0"/>
<stop offset="0.432292" stop-color="#FC7D00"/>
<stop offset="0.609375" stop-color="#FC7D00"/>
<stop offset="1" stop-color="#FC7D00" stop-opacity="0"/>
</linearGradient>
<radialGradient id="paint4_radial_5481_99408" cx="0" cy="0" r="1" gradientUnits="userSpaceOnUse" gradientTransform="translate(16.3929 15.4531) rotate(90) scale(15.4531 16.3929)">
<stop offset="0.166667" stop-color="#EB1000"/>
<stop offset="1" stop-color="#EB1000" stop-opacity="0"/>
</radialGradient>
<clipPath id="clip0_5481_99408">
<rect x="5.51953" y="6.95996" width="37.68" height="35.52" rx="1.03837" fill="white"/>
</clipPath>
</defs>
<clipPath id="mask0_5481_99408">
<path fill-rule="evenodd" d="M37.8608 25.3232L32.6858 24.1592C31.9178 23.9852 31.1108 24.2012 30.5318 24.7352L26.6318 28.3292C24.9008 29.9252 22.1468 28.3352 22.6628 26.0372L23.8268 20.8622C24.0008 20.0942 23.7848 19.2872 23.2508 18.7082L19.6568 14.8082C18.0608 13.0772 19.6508 10.3232 21.9488 10.8392L27.1238 12.0032C27.8918 12.1772 28.6988 11.9612 29.2778 11.4272L33.1778 7.8332C34.9088 6.2372 37.6628 7.8272 37.1468 10.1252L35.9828 15.3002C35.8088 16.0682 36.0248 16.8752 36.5588 17.4542L40.1528 21.3542C41.7488 23.0852 40.1588 25.8392 37.8608 25.3232ZM19.2792 38.9582L15.6312 38.1362C15.1482 38.0282 14.6472 38.1632 14.2842 38.4962L11.5362 41.0312C10.4532 42.0302 8.73125 41.0342 9.05525 39.6002L9.87725 35.9522C9.98525 35.4692 9.85025 34.9682 9.51725 34.6052L6.98225 31.8572C5.98325 30.7742 6.97925 29.0522 8.41325 29.3762L12.0612 30.1982C12.5442 30.3062 13.0452 30.1712 13.4082 29.8382L16.1562 27.3032C17.2392 26.3042 18.9612 27.3002 18.6372 28.7342L17.8152 32.3822C17.7072 32.8652 17.8422 33.3662 18.1752 33.7292L20.7102 36.4772C21.7092 37.5602 20.7132 39.2822 19.2792 38.9582Z" fill="white"/>
</clipPath>
<g clip-path="url(#mask0_5481_99408)">
<g clip-path="url(#clip0_5481_99408)">
<rect x="5.51953" y="6.95996" width="37.68" height="35.52" rx="1.03837" fill="#FFECCF"/>
<rect width="37.68" height="35.52" transform="translate(5.51953 6.95996)" fill="#FFECCF"/>
<ellipse cx="16.3929" cy="15.4531" rx="16.3929" ry="15.4531" transform="matrix(0.999999 -0.00131734 0.00148243 0.999999 10.4102 -7.09375)" fill="url(#paint0_radial_5481_99408)"/>
<path d="M19.9022 0.685379C17.0084 -1.00265 13.3419 -1.01298 10.4374 0.658692L-18.6133 17.3793C-21.4584 19.0169 -21.4632 22.8823 -18.6219 24.5261L10.2368 41.223C13.137 42.9007 16.8035 42.8987 19.7012 41.217L48.5004 24.5045C51.3267 22.8642 51.3318 19.0204 48.5091 17.3739L19.9022 0.685379Z" fill="url(#paint1_linear_5481_99408)"/>
<path d="M10.9514 23.8241C11.5954 10.5635 23.5211 0.305737 37.5881 0.91284C51.6552 1.51994 62.5367 12.762 61.8927 26.0227C61.2486 39.2833 49.323 49.541 35.2559 48.9339C21.1889 48.3268 10.3073 37.0848 10.9514 23.8241Z" fill="url(#paint2_linear_5481_99408)"/>
<path d="M-9.74728 32.5674C-4.1556 30.3187 1.87496 30.4151 7.09968 32.382C17.5545 36.3276 23.6378 33.8882 27.8571 24.0553C29.9587 19.1211 34.062 14.9424 39.6599 12.6912C50.8522 8.19712 63.7732 13.0735 68.5338 23.593C73.2944 34.1125 68.0837 46.2736 56.8941 50.7735C51.2836 53.0298 45.2415 52.9241 40.0088 50.9396C29.5709 47.015 23.4992 49.4637 19.2852 59.3084C17.1783 64.2307 13.0759 68.3952 7.48427 70.6439C-3.69908 75.1413 -16.6201 70.2649 -21.3781 59.7513C-26.136 49.2377 -20.9306 37.0648 -9.74728 32.5674Z" fill="url(#paint3_linear_5481_99408)"/>
<ellipse cx="16.3929" cy="15.4531" rx="16.3929" ry="15.4531" transform="matrix(0.999999 -0.00131734 0.00148243 0.999999 24.5859 -2.05469)" fill="url(#paint4_radial_5481_99408)"/>
</g>
</g>

</svg>
