<svg width="160" height="160" viewBox="0 0 160 160" xmlns="http://www.w3.org/2000/svg">
  <defs>
<radialGradient id="paint0_radial_5481_90205" cx="0" cy="0" r="1" gradientUnits="userSpaceOnUse" gradientTransform="translate(90.4677 6.20574) rotate(90) scale(69.6088)">
<stop offset="0.166667" stop-color="#FF709F"/>
<stop offset="1" stop-color="#FF709F" stop-opacity="0"/>
</radialGradient>
<linearGradient id="paint1_linear_5481_90205" x1="-40.2086" y1="142.983" x2="219.921" y2="-15.2772" gradientUnits="userSpaceOnUse">
<stop offset="0.0598452" stop-color="#8480FE"/>
<stop offset="0.599632" stop-color="#8480FE" stop-opacity="0"/>
</linearGradient>
<linearGradient id="paint2_linear_5481_90205" x1="168.544" y1="29.4718" x2="56.9494" y2="149.467" gradientUnits="userSpaceOnUse">
<stop stop-color="#EB1000"/>
<stop offset="1" stop-color="#EB1000" stop-opacity="0"/>
</linearGradient>
<linearGradient id="paint3_linear_5481_90205" x1="32.9255" y1="166.029" x2="230.753" y2="55.2086" gradientUnits="userSpaceOnUse">
<stop stop-color="#FC7D00" stop-opacity="0"/>
<stop offset="0.432292" stop-color="#FC7D00"/>
<stop offset="0.609375" stop-color="#FC7D00"/>
<stop offset="1" stop-color="#FC7D00" stop-opacity="0"/>
</linearGradient>
<radialGradient id="paint4_radial_5481_90205" cx="0" cy="0" r="1" gradientUnits="userSpaceOnUse" gradientTransform="translate(150.675 28.9059) rotate(90) scale(69.6088)">
<stop offset="0.166667" stop-color="#EB1000"/>
<stop offset="1" stop-color="#EB1000" stop-opacity="0"/>
</radialGradient>
<clipPath id="clip0_5481_90205">
<rect width="160" height="160" rx="5.125" fill="white"/>
</clipPath>
</defs>
<clipPath id="mask0_5481_90205">
<path fill-rule="evenodd" d="M87.5147 31.5147L120.485 64.4853C122.736 66.7357 124 69.788 124 72.9706V120C124 126.627 118.627 132 112 132H48C41.3726 132 36 126.627 36 120V40C36 33.3726 41.3726 28 48 28H79.0294C82.212 28 85.2643 29.2643 87.5147 31.5147ZM69.8398 78.789C69.8398 77.9854 70.4913 77.334 71.2948 77.334C73.504 77.334 75.2948 75.5431 75.2948 73.334C75.2948 71.1248 73.504 69.334 71.2948 69.334C66.073 69.334 61.8398 73.5671 61.8398 78.789C61.8398 81.4546 62.9481 83.8683 64.7185 85.5823C66.3057 87.1189 68.838 87.078 70.3746 85.4908C71.9113 83.9037 71.8703 81.3713 70.2831 79.8347C70.005 79.5654 69.8398 79.1999 69.8398 78.789ZM84.0488 73.2555C79.1323 73.2555 75.1468 77.2411 75.1468 82.1575C75.1468 87.0739 79.1323 91.0595 84.0488 91.0595C88.9652 91.0595 92.9507 87.0739 92.9507 82.1575C92.9507 77.2411 88.9652 73.2555 84.0488 73.2555ZM69.2252 97.6241C71.2186 96.672 72.0627 94.2841 71.1105 92.2907C70.1583 90.2973 67.7705 89.4532 65.7771 90.4053C61.5022 92.4473 58.3796 96.5458 57.5571 101.391C57.1873 103.569 58.6532 105.634 60.8312 106.004C63.0092 106.374 65.0745 104.908 65.4442 102.73C65.835 100.428 67.3183 98.5349 69.2252 97.6241ZM84.0489 92.8633C77.2022 92.8633 70.9703 97.2539 69.4195 103.69C68.4417 107.747 71.8766 110.667 75.1333 110.667H92.9646C96.2213 110.667 99.6562 107.747 98.6784 103.69C97.1276 97.2539 90.8957 92.8633 84.0489 92.8633Z" fill="#292929"/>
</clipPath>
<g clip-path="url(#mask0_5481_90205)">
<g clip-path="url(#clip0_5481_90205)">
<rect width="160" height="160" rx="5.125" fill="#FFECCF"/>
<rect width="160" height="160" fill="#FFECCF"/>
<circle cx="90.4677" cy="6.20574" r="69.6087" transform="rotate(-0.0800682 90.4677 6.20574)" fill="url(#paint0_radial_5481_90205)"/>
<path d="M61.0698 -28.2626C48.782 -35.8663 33.2133 -35.9129 20.8798 -28.3828L-102.478 46.9353C-114.559 54.3119 -114.579 71.7234 -102.514 79.1279L20.0281 154.339C32.3432 161.896 47.9119 161.887 60.2163 154.312L182.506 79.0306C194.507 71.6419 194.529 54.3277 182.543 46.9111L61.0698 -28.2626Z" fill="url(#paint1_linear_5481_90205)"/>
<path d="M23.0583 75.9646C25.793 16.2319 76.4328 -29.9741 136.166 -27.2395C195.898 -24.5048 242.104 26.1351 239.37 85.8678C236.635 145.601 185.995 191.807 126.262 189.072C66.5296 186.337 20.3236 135.697 23.0583 75.9646Z" fill="url(#paint2_linear_5481_90205)"/>
<path d="M-64.8253 115.35C-41.0814 105.221 -15.474 105.655 6.71169 114.515C51.1056 132.288 76.9371 121.299 94.8534 77.0069C103.778 54.7811 121.201 35.958 144.972 25.8174C192.497 5.57391 247.364 27.5395 267.579 74.9246C287.793 122.31 265.667 177.09 218.153 197.36C194.329 207.523 168.673 207.047 146.453 198.107C102.131 180.429 76.3488 191.459 58.4551 235.805C49.5082 257.978 32.0886 276.736 8.34476 286.866C-39.1429 307.124 -94.0093 285.159 -114.213 237.8C-134.416 190.441 -112.313 135.609 -64.8253 115.35Z" fill="url(#paint3_linear_5481_90205)"/>
<circle cx="150.675" cy="28.9059" r="69.6087" transform="rotate(-0.0800682 150.675 28.9059)" fill="url(#paint4_radial_5481_90205)"/>
</g>
</g>

</svg>
