<svg width="160" height="160" viewBox="0 0 160 160" xmlns="http://www.w3.org/2000/svg">
  <defs>
<radialGradient id="paint0_radial_6748_75693" cx="0" cy="0" r="1" gradientUnits="userSpaceOnUse" gradientTransform="translate(90.4677 6.20574) rotate(90) scale(69.6088)">
<stop offset="0.166667" stop-color="#FF709F"/>
<stop offset="1" stop-color="#FF709F" stop-opacity="0"/>
</radialGradient>
<linearGradient id="paint1_linear_6748_75693" x1="-40.2086" y1="142.983" x2="219.921" y2="-15.2772" gradientUnits="userSpaceOnUse">
<stop offset="0.0598452" stop-color="#8480FE"/>
<stop offset="0.599632" stop-color="#8480FE" stop-opacity="0"/>
</linearGradient>
<linearGradient id="paint2_linear_6748_75693" x1="168.544" y1="29.4718" x2="56.9494" y2="149.467" gradientUnits="userSpaceOnUse">
<stop stop-color="#EB1000"/>
<stop offset="1" stop-color="#EB1000" stop-opacity="0"/>
</linearGradient>
<linearGradient id="paint3_linear_6748_75693" x1="32.9255" y1="166.029" x2="230.753" y2="55.2086" gradientUnits="userSpaceOnUse">
<stop stop-color="#FC7D00" stop-opacity="0"/>
<stop offset="0.432292" stop-color="#FC7D00"/>
<stop offset="0.609375" stop-color="#FC7D00"/>
<stop offset="1" stop-color="#FC7D00" stop-opacity="0"/>
</linearGradient>
<radialGradient id="paint4_radial_6748_75693" cx="0" cy="0" r="1" gradientUnits="userSpaceOnUse" gradientTransform="translate(150.675 28.9059) rotate(90) scale(69.6088)">
<stop offset="0.166667" stop-color="#EB1000"/>
<stop offset="1" stop-color="#EB1000" stop-opacity="0"/>
</radialGradient>
</defs>
<clipPath id="mask0_6748_75693">
<path fill-rule="evenodd" d="M82.72 23.9661C86.157 21.4187 90.8337 21.3398 94.3546 23.7697L141.401 56.2383C147.07 60.1506 147.179 68.4887 141.614 72.5477L82.9666 115.326C79.5615 117.809 74.9646 117.892 71.4729 115.531L24.4459 83.738C23.9477 83.4012 23.4916 83.0303 23.0776 82.631C23.0262 83.0807 23 83.5357 23 83.994L23 87.5089C23 91.5219 25.0058 95.2692 28.3451 97.4947L74.8923 128.516C76.2947 129.451 78.1324 129.406 79.4877 128.404L137.456 85.571C139.233 84.2582 141.737 84.6342 143.05 86.4109C144.363 88.1877 143.987 90.6923 142.21 92.0051L84.242 134.839C80.1758 137.843 74.6628 137.977 70.4558 135.173L23.9085 104.152C18.343 100.443 14.9999 94.1971 15 87.5089L15 83.994C15.0001 77.569 18.0868 71.5353 23.2969 67.7757L35.2151 59.1757L82.72 23.9661ZM83.4815 48.0457C81.6572 46.7999 79.1683 47.2689 77.9225 49.0933C76.6767 50.9176 77.1457 53.4065 78.9701 54.6523L105.077 72.48C106.901 73.7258 109.39 73.2568 110.636 71.4324C111.882 69.6081 111.413 67.1192 109.589 65.8734L83.4815 48.0457ZM66.3635 59.0221C65.1177 60.8465 65.5868 63.3353 67.4111 64.5811L93.5182 82.4085C95.3425 83.6543 97.8314 83.1853 99.0772 81.3609C100.323 79.5366 99.8539 77.0477 98.0295 75.8019L71.9225 57.9745C70.0982 56.7287 67.6093 57.1977 66.3635 59.0221Z" fill="black"/>
</clipPath>
<g clip-path="url(#mask0_6748_75693)">
<rect width="160" height="160" rx="5.125" fill="#FFECCF"/>
<rect width="160" height="160" fill="#FFECCF"/>
<circle cx="90.4677" cy="6.20574" r="69.6087" transform="rotate(-0.0800682 90.4677 6.20574)" fill="url(#paint0_radial_6748_75693)"/>
<path d="M61.0698 -28.2626C48.782 -35.8663 33.2133 -35.9129 20.8798 -28.3828L-102.478 46.9353C-114.559 54.3119 -114.579 71.7234 -102.514 79.1279L20.0281 154.339C32.3432 161.896 47.9119 161.887 60.2163 154.312L182.506 79.0306C194.507 71.6419 194.529 54.3277 182.543 46.9111L61.0698 -28.2626Z" fill="url(#paint1_linear_6748_75693)"/>
<path d="M23.0583 75.9646C25.793 16.2319 76.4328 -29.9741 136.166 -27.2395C195.898 -24.5048 242.104 26.1351 239.37 85.8678C236.635 145.601 185.995 191.807 126.262 189.072C66.5296 186.337 20.3236 135.697 23.0583 75.9646Z" fill="url(#paint2_linear_6748_75693)"/>
<path d="M-64.8253 115.35C-41.0814 105.221 -15.474 105.655 6.71169 114.515C51.1056 132.288 76.9371 121.299 94.8534 77.0069C103.778 54.7811 121.201 35.958 144.972 25.8174C192.497 5.57391 247.364 27.5395 267.579 74.9246C287.793 122.31 265.667 177.09 218.153 197.36C194.329 207.523 168.673 207.047 146.453 198.107C102.131 180.429 76.3488 191.459 58.4551 235.805C49.5082 257.978 32.0886 276.736 8.34476 286.866C-39.1429 307.124 -94.0093 285.159 -114.213 237.8C-134.416 190.441 -112.313 135.609 -64.8253 115.35Z" fill="url(#paint3_linear_6748_75693)"/>
<circle cx="150.675" cy="28.9059" r="69.6087" transform="rotate(-0.0800682 150.675 28.9059)" fill="url(#paint4_radial_6748_75693)"/>
</g>

</svg>
