<svg width="160" height="160" viewBox="0 0 160 160" xmlns="http://www.w3.org/2000/svg">
  <defs>
<radialGradient id="paint0_radial_5481_89855" cx="0" cy="0" r="1" gradientUnits="userSpaceOnUse" gradientTransform="translate(60.4726 56.9922) rotate(90) scale(56.9922 60.4726)">
<stop offset="0.166667" stop-color="#FF709F"/>
<stop offset="1" stop-color="#FF709F" stop-opacity="0"/>
</radialGradient>
<linearGradient id="paint1_linear_5481_89855" x1="-21.9317" y1="133.068" x2="196.624" y2="-8.02015" gradientUnits="userSpaceOnUse">
<stop offset="0.0598452" stop-color="#8480FE"/>
<stop offset="0.599632" stop-color="#8480FE" stop-opacity="0"/>
</linearGradient>
<linearGradient id="paint2_linear_5481_89855" x1="159.425" y1="40.1298" x2="68.6061" y2="143.748" gradientUnits="userSpaceOnUse">
<stop stop-color="#EB1000"/>
<stop offset="1" stop-color="#EB1000" stop-opacity="0"/>
</linearGradient>
<linearGradient id="paint3_linear_5481_89855" x1="41.6072" y1="151.936" x2="208.454" y2="52.7631" gradientUnits="userSpaceOnUse">
<stop stop-color="#FC7D00" stop-opacity="0"/>
<stop offset="0.432292" stop-color="#FC7D00"/>
<stop offset="0.609375" stop-color="#FC7D00"/>
<stop offset="1" stop-color="#FC7D00" stop-opacity="0"/>
</linearGradient>
<radialGradient id="paint4_radial_5481_89855" cx="0" cy="0" r="1" gradientUnits="userSpaceOnUse" gradientTransform="translate(60.4726 56.9922) rotate(90) scale(56.9922 60.4726)">
<stop offset="0.166667" stop-color="#EB1000"/>
<stop offset="1" stop-color="#EB1000" stop-opacity="0"/>
</radialGradient>
<clipPath id="clip0_5481_89855">
<rect x="13" y="16" width="139" height="131" rx="3.46124" fill="white"/>
</clipPath>
</defs>
<clipPath id="mask0_5481_89855">
<path fill-rule="evenodd" d="M111.999 16H131.999C138.626 16 143.999 21.3726 143.999 28V72C143.999 78.6274 138.626 84 131.999 84H111.999C105.371 84 99.9986 78.6274 99.9986 72V28C99.9986 21.3726 105.371 16 111.999 16ZM57.9986 100H101.999C108.626 100 113.999 105.373 113.999 112V132C113.999 138.627 108.626 144 101.999 144H57.9986C51.3712 144 45.9986 138.627 45.9986 132V112C45.9986 105.373 51.3712 100 57.9986 100ZM66.2486 71.4699L74.5086 91.5898C75.8486 94.8398 80.4286 94.9098 81.8586 91.6998L84.2686 86.2999C84.6686 85.3998 85.3886 84.6798 86.2886 84.2798L91.6786 81.8699C94.8886 80.4398 94.8186 75.8498 91.5686 74.5198L71.4586 66.2499C68.1686 64.8998 64.8886 68.1799 66.2386 71.4699H66.2486ZM56.4186 75.3502C58.6286 75.3502 60.4186 77.1402 60.4186 79.3502C60.4186 81.5602 58.6286 83.3502 56.4186 83.3502H35.9686C34.4786 86.4102 31.3586 88.5202 27.7286 88.5202C22.6586 88.5202 18.5586 84.4102 18.5586 79.3502C18.5586 75.7202 20.6786 72.6002 23.7286 71.1102V35.9002C20.6686 34.4102 18.5586 31.2902 18.5586 27.6602C18.5586 22.5902 22.6686 18.4902 27.7286 18.4902C31.3586 18.4902 34.4786 20.6102 35.9686 23.6602H71.0286C72.5186 20.6002 75.6386 18.4902 79.2686 18.4902C84.3386 18.4902 88.4386 22.6002 88.4386 27.6602C88.4386 31.2902 86.3186 34.4102 83.2686 35.9002V56.4002C83.2686 58.6102 81.4786 60.4002 79.2686 60.4002C77.0586 60.4002 75.2686 58.6102 75.2686 56.4002V35.9002C73.4186 35.0002 71.9286 33.5002 71.0286 31.6602H35.9686C35.0686 33.5102 33.5686 35.0002 31.7286 35.9002V71.1102C33.5786 72.0102 35.0686 73.5102 35.9686 75.3502H56.4186Z" fill="white"/>
</clipPath>
<g clip-path="url(#mask0_5481_89855)">
<g clip-path="url(#clip0_5481_89855)">
<rect x="13" y="16" width="139" height="131" rx="3.46124" fill="#FFECCF"/>
<rect width="139" height="131" transform="translate(13 16)" fill="#FFECCF"/>
<ellipse cx="60.4726" cy="56.9922" rx="60.4726" ry="56.9922" transform="matrix(0.999999 -0.00131702 0.00148279 0.999999 31.0352 -35.8311)" fill="url(#paint0_radial_5481_89855)"/>
<path d="M66.054 -7.14004C55.3789 -13.3656 41.8536 -13.4037 31.1389 -7.23846L-76.0279 54.4282C-86.5235 60.4678 -86.541 74.7235 -76.0597 80.7859L30.399 142.365C41.0977 148.553 54.623 148.545 65.3125 142.343L171.552 80.7062C181.978 74.6568 181.997 60.4807 171.584 54.4084L66.054 -7.14004Z" fill="url(#paint1_linear_5481_89855)"/>
<path d="M33.0336 78.1958C35.4094 29.2896 79.4027 -8.54157 131.296 -6.30254C183.188 -4.06351 223.33 37.3979 220.954 86.304C218.578 135.21 174.585 173.041 122.692 170.802C70.7993 168.563 30.6578 127.102 33.0336 78.1958Z" fill="url(#paint2_linear_5481_89855)"/>
<path d="M-43.3138 110.443C-22.6863 102.149 -0.439808 102.505 18.834 109.759C57.4012 124.311 79.8423 115.314 95.4071 79.0494C103.16 60.852 118.297 45.4406 138.947 37.1379C180.235 20.5636 227.9 38.5479 245.462 77.3445C263.024 116.141 243.802 160.992 202.524 177.588C181.827 185.909 159.537 185.52 140.234 178.2C101.729 163.726 79.3312 172.757 63.786 209.065C56.0134 227.219 40.8802 242.578 20.2527 250.871C-21.0022 267.458 -68.6674 249.474 -86.2192 210.699C-103.771 171.924 -84.5687 127.029 -43.3138 110.443Z" fill="url(#paint3_linear_5481_89855)"/>
<ellipse cx="60.4726" cy="56.9922" rx="60.4726" ry="56.9922" transform="matrix(0.999999 -0.00131702 0.00148279 0.999999 83.3398 -17.2451)" fill="url(#paint4_radial_5481_89855)"/>
</g>
</g>

</svg>
