<svg width="160" height="160" viewBox="0 0 160 160" xmlns="http://www.w3.org/2000/svg">
  <defs>
<radialGradient id="paint0_radial_5481_90052" cx="0" cy="0" r="1" gradientUnits="userSpaceOnUse" gradientTransform="translate(90.4677 6.20574) rotate(90) scale(69.6088)">
<stop offset="0.166667" stop-color="#FF709F"/>
<stop offset="1" stop-color="#FF709F" stop-opacity="0"/>
</radialGradient>
<linearGradient id="paint1_linear_5481_90052" x1="-40.2086" y1="142.983" x2="219.921" y2="-15.2772" gradientUnits="userSpaceOnUse">
<stop offset="0.0598452" stop-color="#8480FE"/>
<stop offset="0.599632" stop-color="#8480FE" stop-opacity="0"/>
</linearGradient>
<linearGradient id="paint2_linear_5481_90052" x1="168.544" y1="29.4718" x2="56.9494" y2="149.467" gradientUnits="userSpaceOnUse">
<stop stop-color="#EB1000"/>
<stop offset="1" stop-color="#EB1000" stop-opacity="0"/>
</linearGradient>
<linearGradient id="paint3_linear_5481_90052" x1="32.9255" y1="166.029" x2="230.753" y2="55.2086" gradientUnits="userSpaceOnUse">
<stop stop-color="#FC7D00" stop-opacity="0"/>
<stop offset="0.432292" stop-color="#FC7D00"/>
<stop offset="0.609375" stop-color="#FC7D00"/>
<stop offset="1" stop-color="#FC7D00" stop-opacity="0"/>
</linearGradient>
<radialGradient id="paint4_radial_5481_90052" cx="0" cy="0" r="1" gradientUnits="userSpaceOnUse" gradientTransform="translate(150.675 28.9059) rotate(90) scale(69.6088)">
<stop offset="0.166667" stop-color="#EB1000"/>
<stop offset="1" stop-color="#EB1000" stop-opacity="0"/>
</radialGradient>
<clipPath id="clip0_5481_90052">
<rect width="160" height="160" rx="5.125" fill="white"/>
</clipPath>
</defs>
<clipPath id="mask0_5481_90052">
<path fill-rule="evenodd" d="M126.787 55.0168L136.103 57.2034C140.24 58.1727 143.102 52.9993 140.229 49.7477L133.759 42.4216C132.798 41.334 132.409 39.818 132.722 38.3753L134.818 28.6542C135.747 24.3374 130.789 21.3506 127.673 24.3487L120.652 31.1C119.609 32.1031 118.157 32.5088 116.774 32.182L107.458 29.9954C103.321 29.0261 100.459 34.1995 103.332 37.4511L109.802 44.7772C110.176 45.2003 110.463 45.6881 110.656 46.2112C110.773 46.5287 110.856 46.8592 110.902 47.196C110.975 47.731 110.956 48.2822 110.839 48.8231L108.743 58.5442C108.627 59.084 108.603 59.6029 108.656 60.092C108.695 60.4587 108.778 60.8086 108.898 61.1379C109.895 63.8817 113.454 65.1924 115.888 62.8501L122.909 56.0988C123.951 55.0957 125.404 54.69 126.787 55.0168ZM94.3867 36.7783H49.957C41.1205 36.7783 33.957 43.9418 33.957 52.7783V112.865C33.957 121.702 41.1205 128.865 49.957 128.865H110.044C118.881 128.865 126.044 121.702 126.044 112.865V64.1826L121.435 68.6148L121.433 68.6162C116.995 72.8849 110.946 72.8688 106.67 70.2923C102.449 67.7488 99.6862 62.605 100.922 56.8613L102.664 48.7802L97.3367 42.7479L97.3354 42.7464C95.7193 40.9169 94.7778 38.8577 94.3867 36.7783ZM97.1362 86.5825L90.2888 85.0396C89.3822 84.8369 88.4418 85.0903 87.7605 85.7153L82.6024 90.4736C80.5696 92.3487 77.3374 90.4792 77.9455 87.7876L79.4884 80.9402C79.6912 80.0336 79.4378 79.0932 78.8127 78.4118L74.0544 73.2538C72.1793 71.221 74.0488 67.9887 76.7405 68.5969L83.5879 70.1398C84.4945 70.3425 85.4348 70.0891 86.1162 69.4641L91.2743 64.7058C93.3071 62.8307 96.5393 64.7002 95.9312 67.3918L94.3882 74.2392C94.1855 75.1458 94.4389 76.0862 95.064 76.7676L99.8222 81.9256C101.697 83.9585 99.8279 87.1907 97.1362 86.5825Z" fill="white"/>
</clipPath>
<g clip-path="url(#mask0_5481_90052)">
<g clip-path="url(#clip0_5481_90052)">
<rect width="160" height="160" rx="5.125" fill="#FFECCF"/>
<rect width="160" height="160" fill="#FFECCF"/>
<circle cx="90.4677" cy="6.20574" r="69.6087" transform="rotate(-0.0800682 90.4677 6.20574)" fill="url(#paint0_radial_5481_90052)"/>
<path d="M61.0698 -28.2626C48.782 -35.8663 33.2133 -35.9129 20.8798 -28.3828L-102.478 46.9353C-114.559 54.3119 -114.579 71.7234 -102.514 79.1279L20.0281 154.339C32.3432 161.896 47.9119 161.887 60.2163 154.312L182.506 79.0306C194.507 71.6419 194.529 54.3277 182.543 46.9111L61.0698 -28.2626Z" fill="url(#paint1_linear_5481_90052)"/>
<path d="M23.0583 75.9646C25.793 16.2319 76.4328 -29.9741 136.166 -27.2395C195.898 -24.5048 242.104 26.1351 239.37 85.8678C236.635 145.601 185.995 191.807 126.262 189.072C66.5296 186.337 20.3236 135.697 23.0583 75.9646Z" fill="url(#paint2_linear_5481_90052)"/>
<path d="M-64.8253 115.35C-41.0814 105.221 -15.474 105.655 6.71169 114.515C51.1056 132.288 76.9371 121.299 94.8534 77.0069C103.778 54.7811 121.201 35.958 144.972 25.8174C192.497 5.57391 247.364 27.5395 267.579 74.9246C287.793 122.31 265.667 177.09 218.153 197.36C194.329 207.523 168.673 207.047 146.453 198.107C102.131 180.429 76.3488 191.459 58.4551 235.805C49.5082 257.978 32.0886 276.736 8.34476 286.866C-39.1429 307.124 -94.0093 285.159 -114.213 237.8C-134.416 190.441 -112.313 135.609 -64.8253 115.35Z" fill="url(#paint3_linear_5481_90052)"/>
<circle cx="150.675" cy="28.9059" r="69.6087" transform="rotate(-0.0800682 150.675 28.9059)" fill="url(#paint4_radial_5481_90052)"/>
</g>
</g>

</svg>
