<svg width="160" height="160" viewBox="0 0 160 160" xmlns="http://www.w3.org/2000/svg">
  <defs>
<radialGradient id="paint0_radial_5481_90077" cx="0" cy="0" r="1" gradientUnits="userSpaceOnUse" gradientTransform="translate(90.4677 6.20574) rotate(90) scale(69.6088)">
<stop offset="0.166667" stop-color="#FF709F"/>
<stop offset="1" stop-color="#FF709F" stop-opacity="0"/>
</radialGradient>
<linearGradient id="paint1_linear_5481_90077" x1="-40.2086" y1="142.983" x2="219.921" y2="-15.2772" gradientUnits="userSpaceOnUse">
<stop offset="0.0598452" stop-color="#8480FE"/>
<stop offset="0.599632" stop-color="#8480FE" stop-opacity="0"/>
</linearGradient>
<linearGradient id="paint2_linear_5481_90077" x1="168.544" y1="29.4718" x2="56.9494" y2="149.467" gradientUnits="userSpaceOnUse">
<stop stop-color="#EB1000"/>
<stop offset="1" stop-color="#EB1000" stop-opacity="0"/>
</linearGradient>
<linearGradient id="paint3_linear_5481_90077" x1="32.9255" y1="166.029" x2="230.753" y2="55.2086" gradientUnits="userSpaceOnUse">
<stop stop-color="#FC7D00" stop-opacity="0"/>
<stop offset="0.432292" stop-color="#FC7D00"/>
<stop offset="0.609375" stop-color="#FC7D00"/>
<stop offset="1" stop-color="#FC7D00" stop-opacity="0"/>
</linearGradient>
<radialGradient id="paint4_radial_5481_90077" cx="0" cy="0" r="1" gradientUnits="userSpaceOnUse" gradientTransform="translate(150.675 28.9059) rotate(90) scale(69.6088)">
<stop offset="0.166667" stop-color="#EB1000"/>
<stop offset="1" stop-color="#EB1000" stop-opacity="0"/>
</radialGradient>
<clipPath id="clip0_5481_90077">
<rect width="160" height="160" rx="5.125" fill="white"/>
</clipPath>
</defs>
<clipPath id="mask0_5481_90077">
<path fill-rule="evenodd" d="M80 136C110.928 136 136 110.928 136 80C136 49.0721 110.928 24 80 24C49.0721 24 24 49.0721 24 80C24 110.928 49.0721 136 80 136ZM88.484 49.7036C88.484 54.3897 84.6852 58.1884 79.9991 58.1884C75.3131 58.1884 71.5143 54.3897 71.5143 49.7036C71.5143 45.0175 75.3131 41.2188 79.9991 41.2188C84.6852 41.2188 88.484 45.0175 88.484 49.7036ZM51.0869 61.7799C51.6025 59.9777 53.4814 58.9348 55.2835 59.4505C71.2283 64.0126 88.1247 64.0719 104.101 59.6216L104.739 59.444C106.545 58.941 108.416 59.9971 108.919 61.8028C109.422 63.6084 108.366 65.48 106.56 65.9829L105.923 66.1606C100.823 67.5812 95.6354 68.5746 90.4136 69.1409C89.3841 69.2525 88.5932 70.1146 88.5932 71.1502V86.0354C88.5932 86.2202 88.6187 86.4036 88.6692 86.5813C90.0405 91.4097 91.614 96.9705 92.9914 101.85C93.9685 105.311 94.8473 108.43 95.4856 110.703C95.8047 111.84 96.0642 112.766 96.2459 113.418L96.2874 113.567C96.4203 114.043 96.5593 114.541 96.5956 114.723C96.9632 116.561 95.7712 118.349 93.9332 118.716C92.0951 119.084 90.3071 117.892 89.9395 116.054C89.9575 116.144 89.9429 116.091 89.8574 115.782C89.8211 115.65 89.772 115.473 89.7072 115.24C89.5273 114.595 89.2693 113.673 88.9506 112.539C88.3134 110.27 87.4354 107.153 86.4588 103.694C85.2735 99.4949 83.9434 94.7928 82.7223 90.4888C82.4783 89.6286 81.6928 89.0353 80.7986 89.0353H79.1995C78.3053 89.0353 77.5198 89.6286 77.2757 90.4888C76.0547 94.7928 74.7246 99.4949 73.5392 103.694C72.5626 107.153 71.6847 110.27 71.0475 112.539C70.7288 113.673 70.4708 114.595 70.2909 115.24C70.2263 115.472 70.1774 115.649 70.1411 115.78L70.141 115.78L70.1407 115.782L70.1406 115.782L70.1406 115.782C70.0551 116.091 70.0406 116.144 70.0585 116.054C69.6909 117.892 67.9029 119.084 66.0649 118.716C64.2269 118.349 63.0349 116.561 63.4025 114.723C63.4388 114.541 63.5778 114.043 63.7107 113.567L63.7521 113.418C63.9339 112.766 64.1933 111.84 64.5124 110.703C65.1507 108.43 66.0296 105.311 67.0067 101.85C68.384 96.9705 69.9575 91.4097 71.3288 86.5813C71.3793 86.4036 71.4048 86.2202 71.4048 86.0354V71.1509C71.4048 70.1153 70.6139 69.2532 69.5843 69.1416C64.1366 68.5512 58.7274 67.4961 53.4163 65.9765C51.6142 65.4608 50.5713 63.582 51.0869 61.7799Z" fill="white"/>
</clipPath>
<g clip-path="url(#mask0_5481_90077)">
<g clip-path="url(#clip0_5481_90077)">
<rect width="160" height="160" rx="5.125" fill="#FFECCF"/>
<rect width="160" height="160" fill="#FFECCF"/>
<circle cx="90.4677" cy="6.20574" r="69.6087" transform="rotate(-0.0800682 90.4677 6.20574)" fill="url(#paint0_radial_5481_90077)"/>
<path d="M61.0698 -28.2626C48.782 -35.8663 33.2133 -35.9129 20.8798 -28.3828L-102.478 46.9353C-114.559 54.3119 -114.579 71.7234 -102.514 79.1279L20.0281 154.339C32.3432 161.896 47.9119 161.887 60.2163 154.312L182.506 79.0306C194.507 71.6419 194.529 54.3277 182.543 46.9111L61.0698 -28.2626Z" fill="url(#paint1_linear_5481_90077)"/>
<path d="M23.0583 75.9646C25.793 16.2319 76.4328 -29.9741 136.166 -27.2395C195.898 -24.5048 242.104 26.1351 239.37 85.8678C236.635 145.601 185.995 191.807 126.262 189.072C66.5296 186.337 20.3236 135.697 23.0583 75.9646Z" fill="url(#paint2_linear_5481_90077)"/>
<path d="M-64.8253 115.35C-41.0814 105.221 -15.474 105.655 6.71169 114.515C51.1056 132.288 76.9371 121.299 94.8534 77.0069C103.778 54.7811 121.201 35.958 144.972 25.8174C192.497 5.57391 247.364 27.5395 267.579 74.9246C287.793 122.31 265.667 177.09 218.153 197.36C194.329 207.523 168.673 207.047 146.453 198.107C102.131 180.429 76.3488 191.459 58.4551 235.805C49.5082 257.978 32.0886 276.736 8.34476 286.866C-39.1429 307.124 -94.0093 285.159 -114.213 237.8C-134.416 190.441 -112.313 135.609 -64.8253 115.35Z" fill="url(#paint3_linear_5481_90077)"/>
<circle cx="150.675" cy="28.9059" r="69.6087" transform="rotate(-0.0800682 150.675 28.9059)" fill="url(#paint4_radial_5481_90077)"/>
</g>
</g>

</svg>
