<svg width="97" height="96" viewBox="0 0 97 96" xmlns="http://www.w3.org/2000/svg">
  <defs>
<radialGradient id="paint0_radial_5481_99505" cx="0" cy="0" r="1" gradientUnits="userSpaceOnUse" gradientTransform="translate(55.222 3.72345) rotate(90) scale(41.7653)">
<stop offset="0.166667" stop-color="#FF709F"/>
<stop offset="1" stop-color="#FF709F" stop-opacity="0"/>
</radialGradient>
<linearGradient id="paint1_linear_5481_99505" x1="-23.183" y1="85.7895" x2="132.895" y2="-9.16689" gradientUnits="userSpaceOnUse">
<stop offset="0.0598452" stop-color="#8480FE"/>
<stop offset="0.599632" stop-color="#8480FE" stop-opacity="0"/>
</linearGradient>
<linearGradient id="paint2_linear_5481_99505" x1="102.07" y1="17.6831" x2="35.1126" y2="89.6803" gradientUnits="userSpaceOnUse">
<stop stop-color="#EB1000"/>
<stop offset="1" stop-color="#EB1000" stop-opacity="0"/>
</linearGradient>
<linearGradient id="paint3_linear_5481_99505" x1="20.6967" y1="99.6167" x2="139.393" y2="33.1246" gradientUnits="userSpaceOnUse">
<stop stop-color="#FC7D00" stop-opacity="0"/>
<stop offset="0.432292" stop-color="#FC7D00"/>
<stop offset="0.609375" stop-color="#FC7D00"/>
<stop offset="1" stop-color="#FC7D00" stop-opacity="0"/>
</linearGradient>
<radialGradient id="paint4_radial_5481_99505" cx="0" cy="0" r="1" gradientUnits="userSpaceOnUse" gradientTransform="translate(91.347 17.3436) rotate(90) scale(41.7653)">
<stop offset="0.166667" stop-color="#EB1000"/>
<stop offset="1" stop-color="#EB1000" stop-opacity="0"/>
</radialGradient>
<clipPath id="clip0_5481_99505">
<rect x="0.941406" width="96" height="96" rx="5.125" fill="white"/>
</clipPath>
</defs>
<clipPath id="mask0_5481_99505">
<path fill-rule="evenodd" d="M57.2248 21.7864L40.5238 21.7864V18.251C40.5238 17.1464 39.6284 16.251 38.5238 16.251C37.4192 16.251 36.5238 17.1464 36.5238 18.251V21.7864L19.25 21.7864C18.1454 21.7864 17.25 22.6818 17.25 23.7864C17.25 24.8909 18.1454 25.7864 19.25 25.7864L48.5108 25.7864C47.5189 32.647 43.749 38.2036 39.0093 42.3701C37.848 43.3909 36.6353 44.3219 35.4011 45.1622C33.1837 41.3467 31.5893 37.65 31.1149 34.9578C30.9231 33.87 29.8859 33.1436 28.7981 33.3353C27.7103 33.527 26.9839 34.5642 27.1756 35.652C27.7634 38.9877 29.6096 43.1694 31.9822 47.24C28.8532 48.9276 25.7624 50.0388 23.1829 50.5581C22.1 50.776 21.3989 51.8306 21.6169 52.9134C21.8349 53.9963 22.8894 54.6974 23.9723 54.4794C27.009 53.8681 30.5566 52.5797 34.1018 50.6406L34.1382 50.6954C37.504 55.7521 41.6647 60.5762 45.3372 62.9485C46.2651 63.5478 47.5031 63.2815 48.1024 62.3536C48.7017 61.4258 48.4354 60.1878 47.5076 59.5884C44.5461 57.6755 40.7769 53.435 37.5205 48.5578C38.9362 47.6017 40.3242 46.54 41.6502 45.3743C47.0375 40.6386 51.5201 34.0765 52.5466 25.7864H57.2248C58.3294 25.7864 59.2248 24.8909 59.2248 23.7864C59.2248 22.6818 58.3294 21.7864 57.2248 21.7864ZM56.3714 67.135L51.5414 78.5307C51.1103 79.5477 49.9365 80.0227 48.9195 79.5917C47.9025 79.1606 47.4275 77.9868 47.8585 76.9698L62.3205 42.849C62.3506 42.7762 62.385 42.7051 62.4235 42.6362C62.4979 42.5028 62.5859 42.3808 62.6851 42.2711C62.8744 42.0615 63.1113 41.8888 63.3884 41.7714C63.6435 41.6633 63.9084 41.6121 64.169 41.6123C64.4296 41.6121 64.6945 41.6633 64.9495 41.7714C65.2267 41.8888 65.4636 42.0615 65.6529 42.2711C65.752 42.3808 65.8401 42.5028 65.9145 42.6362C65.953 42.7051 65.9874 42.7762 66.0174 42.849L80.4794 76.9698C80.9105 77.9868 80.4355 79.1606 79.4185 79.5917C78.4015 80.0227 77.2276 79.5477 76.7966 78.5307L71.9559 67.11C71.8526 67.1264 71.7466 67.135 71.6386 67.135H56.3714ZM64.1686 48.738L58.0664 63.1351H70.2707L64.1686 48.738Z" fill="#292929"/>
</clipPath>
<g clip-path="url(#mask0_5481_99505)">
<g clip-path="url(#clip0_5481_99505)">
<rect x="0.941406" width="96" height="96" rx="5.125" fill="#FFECCF"/>
<rect width="96" height="96" transform="translate(0.941406)" fill="#FFECCF"/>
<circle cx="55.222" cy="3.72345" r="41.7653" transform="rotate(-0.0800682 55.222 3.72345)" fill="url(#paint0_radial_5481_99505)"/>
<path d="M37.5841 -16.9581C30.2114 -21.5204 20.8702 -21.5483 13.4701 -17.0303L-60.5444 28.1606C-67.7932 32.5865 -67.8053 43.0335 -60.5664 47.4761L12.9591 92.6029C20.3481 97.1373 29.6893 97.1319 37.072 92.5868L110.446 47.4178C117.647 42.9845 117.66 32.596 110.468 28.1461L37.5841 -16.9581Z" fill="url(#paint1_linear_5481_99505)"/>
<path d="M14.7779 45.5788C16.4188 9.73912 46.8027 -17.9845 82.6423 -16.3437C118.482 -14.7029 146.206 15.6811 144.565 51.5207C142.924 87.3603 112.54 115.084 76.7004 113.443C40.8607 111.802 13.1371 81.4184 14.7779 45.5788Z" fill="url(#paint2_linear_5481_99505)"/>
<path d="M-37.9538 69.2093C-23.7074 63.1318 -8.34296 63.3923 4.96842 68.7083C31.6048 79.3721 47.1036 72.779 57.8535 46.2036C63.208 32.8681 73.6621 21.5742 87.9244 15.4898C116.44 3.34376 149.36 16.5231 161.489 44.9542C173.617 73.3853 160.342 106.253 131.833 118.415C117.539 124.513 102.145 124.228 88.8132 118.864C62.22 108.257 46.7507 114.875 36.0144 141.482C30.6463 154.786 20.1946 166.041 5.94826 172.119C-22.5444 184.274 -55.4642 171.095 -67.5863 142.679C-79.7085 114.264 -66.4464 81.3645 -37.9538 69.2093Z" fill="url(#paint3_linear_5481_99505)"/>
<circle cx="91.347" cy="17.3436" r="41.7653" transform="rotate(-0.0800682 91.347 17.3436)" fill="url(#paint4_radial_5481_99505)"/>
</g>
</g>

</svg>
