<svg width="48" height="48" viewBox="0 0 48 48" xmlns="http://www.w3.org/2000/svg">
  <defs>
<radialGradient id="paint0_radial_5481_99489" cx="0" cy="0" r="1" gradientUnits="userSpaceOnUse" gradientTransform="translate(27.1423 1.86222) rotate(90) scale(20.8826)">
<stop offset="0.166667" stop-color="#FF709F"/>
<stop offset="1" stop-color="#FF709F" stop-opacity="0"/>
</radialGradient>
<linearGradient id="paint1_linear_5481_99489" x1="-12.0622" y1="42.8952" x2="65.9766" y2="-4.58296" gradientUnits="userSpaceOnUse">
<stop offset="0.0598452" stop-color="#8480FE"/>
<stop offset="0.599632" stop-color="#8480FE" stop-opacity="0"/>
</linearGradient>
<linearGradient id="paint2_linear_5481_99489" x1="50.5621" y1="8.84155" x2="17.0836" y2="44.8401" gradientUnits="userSpaceOnUse">
<stop stop-color="#EB1000"/>
<stop offset="1" stop-color="#EB1000" stop-opacity="0"/>
</linearGradient>
<linearGradient id="paint3_linear_5481_99489" x1="9.87765" y1="49.8089" x2="69.2259" y2="16.5628" gradientUnits="userSpaceOnUse">
<stop stop-color="#FC7D00" stop-opacity="0"/>
<stop offset="0.432292" stop-color="#FC7D00"/>
<stop offset="0.609375" stop-color="#FC7D00"/>
<stop offset="1" stop-color="#FC7D00" stop-opacity="0"/>
</linearGradient>
<radialGradient id="paint4_radial_5481_99489" cx="0" cy="0" r="1" gradientUnits="userSpaceOnUse" gradientTransform="translate(45.2009 8.67178) rotate(90) scale(20.8826)">
<stop offset="0.166667" stop-color="#EB1000"/>
<stop offset="1" stop-color="#EB1000" stop-opacity="0"/>
</radialGradient>
<clipPath id="clip0_5481_99489">
<rect width="48" height="48" rx="5.125" fill="white"/>
</clipPath>
</defs>
<clipPath id="mask0_5481_99489">
<path fill-rule="evenodd" d="M39.8052 13.3758L37.6886 13.7988C37.4086 13.8552 37.1761 14.044 37.0629 14.3048L36.209 16.2867C35.8725 17.0677 34.7306 16.9468 34.5648 16.1146L34.1418 13.998C34.0854 13.718 33.8966 13.4855 33.6358 13.3723L31.6539 12.5184C30.8729 12.1819 30.9938 11.04 31.8261 10.8742L33.9426 10.4512C34.2226 10.3948 34.4551 10.206 34.5683 9.94516L35.4222 7.96333C35.7588 7.18231 36.9006 7.30323 37.0664 8.13544L37.4894 10.252C37.5458 10.532 37.7346 10.7645 37.9954 10.8777L39.9773 11.7316C40.7583 12.0681 40.6374 13.21 39.8052 13.3758ZM21.9486 15.1904L20.2004 15.5398C19.9691 15.5864 19.7771 15.7423 19.6836 15.9577L18.9783 17.5946C18.7003 18.2397 17.7572 18.1399 17.6203 17.4525L17.2709 15.7043C17.2243 15.473 17.0684 15.281 16.8529 15.1875L15.216 14.4822C14.5709 14.2043 14.6708 13.2612 15.3582 13.1242L17.1064 12.7748C17.3377 12.7282 17.5297 12.5723 17.6232 12.3569L18.3285 10.7199C18.6064 10.0749 19.5495 10.1747 19.6865 10.8621L20.0358 12.6103C20.0825 12.8416 20.2384 13.0336 20.4538 13.1271L22.0907 13.8324C22.7358 14.1103 22.6359 15.0534 21.9486 15.1904ZM37.4655 28.1472L39.2137 27.7978C39.9011 27.6609 40.0009 26.7178 39.3559 26.4398L37.719 25.7345C37.5035 25.641 37.3476 25.449 37.301 25.2177L36.9516 23.4695C36.8147 22.7822 35.8716 22.6823 35.5936 23.3274L34.8883 24.9643C34.7948 25.1797 34.6028 25.3356 34.3715 25.3823L32.6233 25.7316C31.936 25.8686 31.8361 26.8117 32.4812 27.0896L34.1181 27.7949C34.3335 27.8884 34.4894 28.0804 34.5361 28.3117L34.8854 30.0599C35.0224 30.7473 35.9655 30.8472 36.2434 30.2021L36.9487 28.5652C37.0422 28.3497 37.2342 28.1938 37.4655 28.1472ZM26.6596 17.313C27.7867 16.1858 29.6142 16.1858 30.7413 17.313C31.8685 18.4401 31.8685 20.2676 30.7413 21.3947L28.0658 24.0702L23.9841 19.9885L26.6596 17.313ZM22.2163 21.7562L26.2981 25.838L12.4232 39.7129C11.2961 40.84 9.4686 40.84 8.34145 39.7128C7.21431 38.5857 7.21431 36.7582 8.34145 35.6311L22.2163 21.7562Z" fill="#292929"/>
</clipPath>
<g clip-path="url(#mask0_5481_99489)">
<g clip-path="url(#clip0_5481_99489)">
<rect width="48" height="48" rx="5.125" fill="#FFECCF"/>
<rect width="48" height="48" fill="#FFECCF"/>
<circle cx="27.1423" cy="1.86221" r="20.8826" transform="rotate(-0.0800682 27.1423 1.86221)" fill="url(#paint0_radial_5481_99489)"/>
<path d="M18.3213 -8.47858C14.635 -10.7597 9.96439 -10.7737 6.26433 -8.51465L-30.7429 14.0808C-34.3673 16.2938 -34.3733 21.5172 -30.7539 23.7386L6.00883 46.302C9.70335 48.5691 14.374 48.5664 18.0653 46.2939L54.7523 23.7094C58.3526 21.4928 58.3591 16.2985 54.7632 14.0735L18.3213 -8.47858Z" fill="url(#paint1_linear_5481_99489)"/>
<path d="M6.91632 22.7894C7.73673 4.86956 22.9287 -8.99224 40.8485 -8.17184C58.7683 -7.35143 72.6301 7.84053 71.8097 25.7603C70.9893 43.6802 55.7973 57.542 37.8775 56.7215C19.9577 55.9011 6.09591 40.7092 6.91632 22.7894Z" fill="url(#paint2_linear_5481_99489)"/>
<path d="M-19.4476 34.6052C-12.3244 31.5664 -4.64218 31.6967 2.01351 34.3546C15.3317 39.6865 23.0811 36.39 28.456 23.1023C31.1333 16.4345 36.3604 10.7876 43.4915 7.74541C57.7492 1.67237 74.2091 8.26203 80.2736 22.4776C86.338 36.6931 79.7002 53.1271 65.4459 59.2081C58.2988 62.2571 50.6018 62.1143 43.9359 59.4324C30.6393 54.129 22.9046 57.438 17.5365 70.7417C14.8525 77.3935 9.62658 83.0211 2.50343 86.0599C-11.7429 92.1375 -28.2028 85.5478 -34.2639 71.3402C-40.3249 57.1326 -33.6939 40.6828 -19.4476 34.6052Z" fill="url(#paint3_linear_5481_99489)"/>
<circle cx="45.2009" cy="8.67178" r="20.8826" transform="rotate(-0.0800682 45.2009 8.67178)" fill="url(#paint4_radial_5481_99489)"/>
</g>
</g>

</svg>
