<svg width="48" height="48" viewBox="0 0 48 48" xmlns="http://www.w3.org/2000/svg">
  <defs>
<radialGradient id="paint0_radial_5481_99612" cx="0" cy="0" r="1" gradientUnits="userSpaceOnUse" gradientTransform="translate(27.1423 1.86319) rotate(90) scale(20.8826)">
<stop offset="0.166667" stop-color="#FF709F"/>
<stop offset="1" stop-color="#FF709F" stop-opacity="0"/>
</radialGradient>
<linearGradient id="paint1_linear_5481_99612" x1="-12.0622" y1="42.8962" x2="65.9766" y2="-4.58198" gradientUnits="userSpaceOnUse">
<stop offset="0.0598452" stop-color="#8480FE"/>
<stop offset="0.599632" stop-color="#8480FE" stop-opacity="0"/>
</linearGradient>
<linearGradient id="paint2_linear_5481_99612" x1="50.5621" y1="8.84253" x2="17.0836" y2="44.8411" gradientUnits="userSpaceOnUse">
<stop stop-color="#EB1000"/>
<stop offset="1" stop-color="#EB1000" stop-opacity="0"/>
</linearGradient>
<linearGradient id="paint3_linear_5481_99612" x1="9.87765" y1="49.8098" x2="69.2259" y2="16.5638" gradientUnits="userSpaceOnUse">
<stop stop-color="#FC7D00" stop-opacity="0"/>
<stop offset="0.432292" stop-color="#FC7D00"/>
<stop offset="0.609375" stop-color="#FC7D00"/>
<stop offset="1" stop-color="#FC7D00" stop-opacity="0"/>
</linearGradient>
<radialGradient id="paint4_radial_5481_99612" cx="0" cy="0" r="1" gradientUnits="userSpaceOnUse" gradientTransform="translate(45.2009 8.67276) rotate(90) scale(20.8826)">
<stop offset="0.166667" stop-color="#EB1000"/>
<stop offset="1" stop-color="#EB1000" stop-opacity="0"/>
</radialGradient>
<clipPath id="clip0_5481_99612">
<rect y="0.000976562" width="48" height="48" rx="5.125" fill="white"/>
</clipPath>
</defs>
<clipPath id="mask0_5481_99612">
<path fill-rule="evenodd" d="M36.3301 11.2912C36.4875 11.9634 36.0703 12.6359 35.3981 12.7934L28.5135 14.4063C27.8413 14.5637 27.1688 14.1465 27.0113 13.4743C26.8538 12.8022 27.2711 12.1296 27.9432 11.9722L32.0228 11.0165C29.6804 9.55009 26.9119 8.70287 23.9432 8.70287C19.3692 8.70287 15.2667 10.715 12.4697 13.9066C12.0147 14.4258 11.2249 14.4778 10.7057 14.0228C10.1865 13.5678 10.1345 12.7781 10.5895 12.2589C13.8411 8.54865 18.6189 6.20287 23.9432 6.20287C27.3241 6.20287 30.4862 7.14911 33.1766 8.7907L32.2831 4.97681C32.1256 4.30465 32.5429 3.6321 33.215 3.47464C33.8872 3.31717 34.5597 3.73441 34.7172 4.40657L36.3301 11.2912ZM38.5784 19.416C38.3722 18.7571 38.7392 18.0559 39.3981 17.8497C40.0569 17.6436 40.7582 18.0106 40.9643 18.6695C41.489 20.3465 41.7713 22.1292 41.7713 23.9756C41.7713 31.026 37.6612 37.1138 31.7096 39.9783L35.5183 41.1826C36.1765 41.3907 36.5414 42.093 36.3333 42.7512C36.1252 43.4095 35.4229 43.7744 34.7646 43.5662L28.0225 41.4345C27.3643 41.2264 26.9994 40.5241 27.2075 39.8658L29.3393 33.1238C29.5474 32.4655 30.2497 32.1006 30.9079 32.3087C31.5662 32.5169 31.9311 33.2192 31.7229 33.8774L30.4851 37.7923C35.6776 35.3589 39.2713 30.0856 39.2713 23.9756C39.2713 22.3853 39.0283 20.8542 38.5784 19.416ZM6.30558 22.5796L3.3114 25.1345C2.78624 25.5826 1.99725 25.5202 1.54914 24.995C1.10103 24.4698 1.16349 23.6809 1.68865 23.2327L7.06764 18.6429C7.5928 18.1948 8.38178 18.2573 8.82989 18.7824L13.4197 24.1614C13.8678 24.6866 13.8054 25.4756 13.2802 25.9237C12.7551 26.3718 11.9661 26.3093 11.518 25.7842L8.81174 22.6126C8.56913 25.2876 9.03042 28.0598 10.2929 30.652C12.2957 34.7642 15.901 37.5715 19.9951 38.6887C20.6611 38.8704 21.0537 39.5576 20.8719 40.2236C20.6902 40.8896 20.003 41.2822 19.337 41.1005C14.5776 39.8018 10.3766 36.5334 8.04528 31.7466C6.60692 28.7933 6.06211 25.6345 6.30558 22.5796Z" fill="white"/>
</clipPath>
<g clip-path="url(#mask0_5481_99612)">
<g clip-path="url(#clip0_5481_99612)">
<rect y="0.000976562" width="48" height="48" rx="5.125" fill="#FFECCF"/>
<rect width="48" height="48" transform="translate(0 0.000976562)" fill="#FFECCF"/>
<circle cx="27.1423" cy="1.86319" r="20.8826" transform="rotate(-0.0800682 27.1423 1.86319)" fill="url(#paint0_radial_5481_99612)"/>
<path d="M18.3213 -8.47761C14.635 -10.7587 9.96439 -10.7727 6.26433 -8.51367L-30.7429 14.0818C-34.3673 16.2947 -34.3733 21.5182 -30.7539 23.7395L6.00883 46.3029C9.70335 48.5701 14.374 48.5674 18.0653 46.2948L54.7523 23.7103C58.3526 21.4937 58.3591 16.2995 54.7632 14.0745L18.3213 -8.47761Z" fill="url(#paint1_linear_5481_99612)"/>
<path d="M6.91632 22.7904C7.73673 4.87054 22.9287 -8.99127 40.8485 -8.17086C58.7683 -7.35045 72.6301 7.8415 71.8097 25.7613C70.9893 43.6811 55.7973 57.5429 37.8775 56.7225C19.9577 55.9021 6.09591 40.7102 6.91632 22.7904Z" fill="url(#paint2_linear_5481_99612)"/>
<path d="M-19.4476 34.6061C-12.3244 31.5673 -4.64218 31.6976 2.01351 34.3556C15.3317 39.6875 23.0811 36.3909 28.456 23.1033C31.1333 16.4355 36.3604 10.7886 43.4915 7.74638C57.7492 1.67334 74.2091 8.26301 80.2736 22.4786C86.338 36.6941 79.7002 53.128 65.4459 59.209C58.2988 62.2581 50.6018 62.1153 43.9359 59.4334C30.6393 54.1299 22.9046 57.439 17.5365 70.7426C14.8525 77.3945 9.62658 83.022 2.50343 86.0608C-11.7429 92.1384 -28.2028 85.5488 -34.2639 71.3412C-40.3249 57.1336 -33.6939 40.6837 -19.4476 34.6061Z" fill="url(#paint3_linear_5481_99612)"/>
<circle cx="45.2009" cy="8.67276" r="20.8826" transform="rotate(-0.0800682 45.2009 8.67276)" fill="url(#paint4_radial_5481_99612)"/>
</g>
</g>

</svg>
