<svg width="96" height="96" viewBox="0 0 96 96" xmlns="http://www.w3.org/2000/svg">
  <defs>
<radialGradient id="paint0_radial_5481_99707" cx="0" cy="0" r="1" gradientUnits="userSpaceOnUse" gradientTransform="translate(54.2806 3.72345) rotate(90) scale(41.7653)">
<stop offset="0.166667" stop-color="#FF709F"/>
<stop offset="1" stop-color="#FF709F" stop-opacity="0"/>
</radialGradient>
<linearGradient id="paint1_linear_5481_99707" x1="-24.1244" y1="85.7904" x2="131.953" y2="-9.16592" gradientUnits="userSpaceOnUse">
<stop offset="0.0598452" stop-color="#8480FE"/>
<stop offset="0.599632" stop-color="#8480FE" stop-opacity="0"/>
</linearGradient>
<linearGradient id="paint2_linear_5481_99707" x1="101.128" y1="17.6831" x2="34.1712" y2="89.6803" gradientUnits="userSpaceOnUse">
<stop stop-color="#EB1000"/>
<stop offset="1" stop-color="#EB1000" stop-opacity="0"/>
</linearGradient>
<linearGradient id="paint3_linear_5481_99707" x1="19.7553" y1="99.6177" x2="138.452" y2="33.1256" gradientUnits="userSpaceOnUse">
<stop stop-color="#FC7D00" stop-opacity="0"/>
<stop offset="0.432292" stop-color="#FC7D00"/>
<stop offset="0.609375" stop-color="#FC7D00"/>
<stop offset="1" stop-color="#FC7D00" stop-opacity="0"/>
</linearGradient>
<radialGradient id="paint4_radial_5481_99707" cx="0" cy="0" r="1" gradientUnits="userSpaceOnUse" gradientTransform="translate(90.4056 17.3436) rotate(90) scale(41.7653)">
<stop offset="0.166667" stop-color="#EB1000"/>
<stop offset="1" stop-color="#EB1000" stop-opacity="0"/>
</radialGradient>
<clipPath id="clip0_5481_99707">
<rect width="96" height="96" rx="5.125" fill="white"/>
</clipPath>
</defs>
<clipPath id="mask0_5481_99707">
<path fill-rule="evenodd" d="M52.9088 18.6313L72.6912 38.4136C74.0414 39.7639 74.8 41.5952 74.8 43.5048V71.7225C74.8 75.6989 71.5764 78.9225 67.6 78.9225H29.2C25.2235 78.9225 22 75.6989 22 71.7225V23.7225C22 19.746 25.2235 16.5225 29.2 16.5225H47.8177C49.7272 16.5225 51.5586 17.281 52.9088 18.6313ZM41.1037 46.7945C41.1037 46.0914 41.6737 45.5215 42.3767 45.5215C43.4813 45.5215 44.3767 44.6261 44.3767 43.5215C44.3767 42.4169 43.4813 41.5215 42.3767 41.5215C39.4645 41.5215 37.1037 43.8823 37.1037 46.7945C37.1037 48.2811 37.7215 49.6269 38.7092 50.5831C39.5027 51.3514 40.7689 51.3309 41.5372 50.5373C42.3055 49.7438 42.2851 48.4776 41.4915 47.7093C41.25 47.4755 41.1037 47.1538 41.1037 46.7945ZM50.0294 43.8745C47.3004 43.8745 45.0882 46.0868 45.0882 48.8157C45.0882 51.5446 47.3004 53.7569 50.0294 53.7569C52.7583 53.7569 54.9706 51.5446 54.9706 48.8157C54.9706 46.0868 52.7583 43.8745 50.0294 43.8745ZM40.9626 57.7346C41.9593 57.2585 42.3814 56.0645 41.9053 55.0678C41.4292 54.0711 40.2353 53.6491 39.2386 54.1252C36.7921 55.2938 35.0004 57.6426 34.5285 60.4225C34.3437 61.5115 35.0766 62.5441 36.1656 62.729C37.2546 62.9139 38.2872 62.1809 38.4721 61.0919C38.7282 59.5836 39.7001 58.3376 40.9626 57.7346ZM50.0295 55.6392C46.082 55.6392 42.5224 58.1696 41.6407 61.8287C41.1266 63.9621 42.9316 65.5215 44.6801 65.5215H55.3789C57.1274 65.5215 58.9324 63.9621 58.4183 61.8287C57.5366 58.1696 53.977 55.6392 50.0295 55.6392Z" fill="#292929"/>
</clipPath>
<g clip-path="url(#mask0_5481_99707)">
<g clip-path="url(#clip0_5481_99707)">
<rect width="96" height="96" rx="5.125" fill="#FFECCF"/>
<rect width="96" height="96" fill="#FFECCF"/>
<circle cx="54.2806" cy="3.72345" r="41.7653" transform="rotate(-0.0800682 54.2806 3.72345)" fill="url(#paint0_radial_5481_99707)"/>
<path d="M36.6427 -16.9572C29.27 -21.5194 19.9288 -21.5473 12.5287 -17.0293L-61.4858 28.1616C-68.7346 32.5875 -68.7467 43.0344 -61.5078 47.4771L12.0177 92.6039C19.4067 97.1383 28.7479 97.1329 36.1306 92.5877L109.505 47.4187C116.705 42.9855 116.718 32.597 109.526 28.1471L36.6427 -16.9572Z" fill="url(#paint1_linear_5481_99707)"/>
<path d="M13.8365 45.5788C15.4774 9.73912 45.8613 -17.9845 81.7009 -16.3437C117.541 -14.7029 145.264 15.6811 143.623 51.5207C141.982 87.3603 111.599 115.084 75.759 113.443C39.9193 111.802 12.1957 81.4184 13.8365 45.5788Z" fill="url(#paint2_linear_5481_99707)"/>
<path d="M-38.8952 69.2103C-24.6489 63.1327 -9.28437 63.3933 4.02702 68.7093C30.6634 79.3731 46.1622 72.7799 56.9121 46.2046C62.2666 32.8691 72.7207 21.5752 86.983 15.4908C115.498 3.34474 148.418 16.5241 160.547 44.9552C172.676 73.3863 159.4 106.254 130.892 118.416C116.598 124.514 101.204 124.229 87.8718 118.865C61.2786 108.258 45.8093 114.876 35.073 141.483C29.7049 154.787 19.2532 166.042 5.00686 172.12C-23.4858 184.275 -56.4056 171.096 -68.5277 142.68C-80.6499 114.265 -67.3878 81.3655 -38.8952 69.2103Z" fill="url(#paint3_linear_5481_99707)"/>
<circle cx="90.4056" cy="17.3436" r="41.7653" transform="rotate(-0.0800682 90.4056 17.3436)" fill="url(#paint4_radial_5481_99707)"/>
</g>
</g>

</svg>
