<svg width="160" height="160" viewBox="0 0 160 160" xmlns="http://www.w3.org/2000/svg">
  <defs>
<radialGradient id="paint0_radial_5481_89921" cx="0" cy="0" r="1" gradientUnits="userSpaceOnUse" gradientTransform="translate(56.9923 53.7253) rotate(90) scale(53.7253 56.9923)">
<stop offset="0.166667" stop-color="#FF709F"/>
<stop offset="1" stop-color="#FF709F" stop-opacity="0"/>
</radialGradient>
<linearGradient id="paint1_linear_5481_89921" x1="-19.9205" y1="131.011" x2="186.087" y2="-1.94322" gradientUnits="userSpaceOnUse">
<stop offset="0.0598452" stop-color="#8480FE"/>
<stop offset="0.599632" stop-color="#8480FE" stop-opacity="0"/>
</linearGradient>
<linearGradient id="paint2_linear_5481_89921" x1="150.995" y1="43.4014" x2="65.3801" y2="141.06" gradientUnits="userSpaceOnUse">
<stop stop-color="#EB1000"/>
<stop offset="1" stop-color="#EB1000" stop-opacity="0"/>
</linearGradient>
<linearGradient id="paint3_linear_5481_89921" x1="39.9585" y1="148.798" x2="197.223" y2="55.3431" gradientUnits="userSpaceOnUse">
<stop stop-color="#FC7D00" stop-opacity="0"/>
<stop offset="0.432292" stop-color="#FC7D00"/>
<stop offset="0.609375" stop-color="#FC7D00"/>
<stop offset="1" stop-color="#FC7D00" stop-opacity="0"/>
</linearGradient>
<radialGradient id="paint4_radial_5481_89921" cx="0" cy="0" r="1" gradientUnits="userSpaceOnUse" gradientTransform="translate(56.9923 53.7253) rotate(90) scale(53.7253 56.9923)">
<stop offset="0.166667" stop-color="#EB1000"/>
<stop offset="1" stop-color="#EB1000" stop-opacity="0"/>
</radialGradient>
<clipPath id="clip0_5481_89921">
<rect x="13" y="20.6543" width="131" height="123.491" rx="3.46124" fill="white"/>
</clipPath>
</defs>
<clipPath id="mask0_5481_89921">
<path fill-rule="evenodd" d="M61.1239 39.7152L66.7789 45.3701L72.5589 51.1502L83.8589 62.4502C87.5189 66.1102 93.4489 66.1102 97.1089 62.4502C100.769 58.7902 100.769 52.8602 97.1089 49.2002L85.8089 37.9002L80.0289 32.1201L78.1489 30.2402C76.8089 28.9202 75.2989 27.9002 73.6889 27.1502C73.6377 27.1256 73.5864 27.1006 73.5351 27.0756C73.3559 26.9882 73.1754 26.9001 72.9889 26.8302C72.3589 26.5702 71.7089 26.3702 71.0589 26.1902C65.7189 24.7702 59.7989 26.1402 55.6089 30.3202L25.1789 60.7502C20.2889 65.6402 19.2489 72.9002 22.0089 78.8302L55.4689 45.3701L61.1239 39.7152ZM104.387 30.4001L134.817 60.8301V60.8501C141.067 67.1001 141.067 77.2301 134.817 83.4801L100.937 117.36L86.6573 131.64C82.9974 135.3 77.0674 135.3 73.4074 131.63H73.3974C69.7374 127.97 69.7374 122.04 73.3974 118.38C69.7374 122.04 63.8073 122.04 60.1473 118.37H60.1373C56.5073 114.74 56.4873 108.88 60.0573 105.21C56.3873 108.78 50.5273 108.75 46.8973 105.11H46.8873C43.2273 101.45 43.2273 95.5101 46.8873 91.8501H46.8773C43.2173 95.5101 37.2873 95.5101 33.6273 91.8401H33.6173C33.3273 91.5501 33.0673 91.2401 32.8273 90.9301C29.9873 87.2501 30.2473 81.9501 33.6173 78.5801L48.5773 63.6101L61.1373 51.0501L66.9173 56.8301L78.2173 68.1301C81.4973 71.4101 85.8573 73.2201 90.4973 73.2201C95.1374 73.2201 99.4973 71.4101 102.777 68.1301C109.547 61.3501 109.547 50.3301 102.777 43.5601L86.4073 27.1901C92.3073 24.4801 99.5173 25.5301 104.387 30.4001Z" fill="white"/>
</clipPath>
<g clip-path="url(#mask0_5481_89921)">
<g clip-path="url(#clip0_5481_89921)">
<rect x="13" y="20.6543" width="131" height="123.491" rx="3.46124" fill="#FFECCF"/>
<rect width="131" height="123.491" transform="translate(13 20.6543)" fill="#FFECCF"/>
<ellipse cx="56.9923" cy="53.7253" rx="56.9923" ry="53.7253" transform="matrix(0.999999 -0.00131734 0.00148243 0.999999 30 -28.2061)" fill="url(#paint0_radial_5481_89921)"/>
<path d="M63.0015 -1.15922C52.9408 -7.0279 40.1939 -7.06384 30.0958 -1.252L-70.9034 56.8798C-80.795 62.5732 -80.8115 76.0118 -70.9334 81.7267L29.3985 139.776C39.4815 145.609 52.2284 145.602 62.3027 139.755L162.428 81.6516C172.254 75.9488 172.272 62.5854 162.458 56.8612L63.0015 -1.15922Z" fill="url(#paint1_linear_5481_89921)"/>
<path d="M31.8784 79.2854C34.1175 33.1826 75.579 -2.48002 124.485 -0.369331C173.392 1.74136 211.223 40.8261 208.984 86.9289C206.745 133.032 165.283 168.694 116.377 166.584C67.4707 164.473 29.6394 125.388 31.8784 79.2854Z" fill="url(#paint2_linear_5481_89921)"/>
<path d="M-40.0752 109.683C-20.6349 101.865 0.331309 102.2 18.4959 109.038C54.8435 122.756 75.9931 114.275 90.6621 80.089C97.9688 62.9348 112.234 48.4068 131.697 40.58C170.608 24.9558 215.53 41.9092 232.081 78.4819C248.632 115.055 230.516 157.335 191.614 172.979C172.108 180.824 151.102 180.456 132.909 173.556C96.6206 159.912 75.5114 168.426 60.8609 202.652C53.5356 219.765 39.2733 234.244 19.8329 242.062C-19.0477 257.698 -63.9697 240.744 -80.5114 204.192C-97.0531 167.64 -78.9559 125.319 -40.0752 109.683Z" fill="url(#paint3_linear_5481_89921)"/>
<ellipse cx="56.9923" cy="53.7253" rx="56.9923" ry="53.7253" transform="matrix(0.999999 -0.00131734 0.00148243 0.999999 79.293 -10.6855)" fill="url(#paint4_radial_5481_89921)"/>
</g>
</g>

</svg>
