<svg width="96" height="96" viewBox="0 0 96 96" xmlns="http://www.w3.org/2000/svg">
  <defs>
<radialGradient id="paint0_radial_5481_99416" cx="0" cy="0" r="1" gradientUnits="userSpaceOnUse" gradientTransform="translate(34.1954 32.2352) rotate(90) scale(32.2352 34.1954)">
<stop offset="0.166667" stop-color="#FF709F"/>
<stop offset="1" stop-color="#FF709F" stop-opacity="0"/>
</radialGradient>
<linearGradient id="paint1_linear_5481_99416" x1="-11.9531" y1="78.6069" x2="111.651" y2="-1.16594" gradientUnits="userSpaceOnUse">
<stop offset="0.0598452" stop-color="#8480FE"/>
<stop offset="0.599632" stop-color="#8480FE" stop-opacity="0"/>
</linearGradient>
<linearGradient id="paint2_linear_5481_99416" x1="90.5965" y1="26.0409" x2="39.2273" y2="84.6359" gradientUnits="userSpaceOnUse">
<stop stop-color="#EB1000"/>
<stop offset="1" stop-color="#EB1000" stop-opacity="0"/>
</linearGradient>
<linearGradient id="paint3_linear_5481_99416" x1="23.9766" y1="89.279" x2="118.335" y2="33.2063" gradientUnits="userSpaceOnUse">
<stop stop-color="#FC7D00" stop-opacity="0"/>
<stop offset="0.432292" stop-color="#FC7D00"/>
<stop offset="0.609375" stop-color="#FC7D00"/>
<stop offset="1" stop-color="#FC7D00" stop-opacity="0"/>
</linearGradient>
<radialGradient id="paint4_radial_5481_99416" cx="0" cy="0" r="1" gradientUnits="userSpaceOnUse" gradientTransform="translate(34.1954 32.2352) rotate(90) scale(32.2352 34.1954)">
<stop offset="0.166667" stop-color="#EB1000"/>
<stop offset="1" stop-color="#EB1000" stop-opacity="0"/>
</radialGradient>
<clipPath id="clip0_5481_99416">
<rect x="7.80078" y="12.3926" width="78.6002" height="74.0945" rx="2.07674" fill="white"/>
</clipPath>
</defs>
<clipPath id="mask0_5481_99416">
<path fill-rule="evenodd" d="M50.4008 17.97C50.4008 19.296 49.3268 20.37 48.0008 20.37C46.6748 20.37 45.6008 19.296 45.6008 17.97V14.358C45.6008 13.032 46.6748 11.958 48.0008 11.958C49.3268 11.958 50.4008 13.032 50.4008 14.358V17.97ZM46.681 26.208C37.771 26.844 30.559 34.11 29.899 43.104C29.413 49.788 32.467 55.776 37.369 59.358C38.959 60.522 39.931 62.364 39.931 64.35V68.4H55.849C55.8922 68.4 55.9354 68.4065 55.9786 68.413L55.9788 68.413C56.0076 68.4173 56.0363 68.4216 56.065 68.424V64.356C56.065 62.418 56.953 60.57 58.513 59.442C63.133 56.118 66.145 50.664 66.145 44.496C66.145 33.924 57.295 25.446 46.675 26.202L46.681 26.208ZM58.303 44.748C56.977 44.748 55.903 43.674 55.903 42.348C55.903 39.342 53.239 36.9 49.963 36.9C48.637 36.9 47.563 35.826 47.563 34.5C47.563 33.174 48.637 32.1 49.963 32.1C55.885 32.1 60.703 36.696 60.703 42.348C60.703 43.674 59.629 44.748 58.303 44.748ZM39.9371 73.2V76.08C39.9371 77.766 41.2931 79.134 42.9611 79.134H53.0471C54.7151 79.134 56.0711 77.766 56.0711 76.08V73.176C56.0424 73.1784 56.0136 73.1827 55.9849 73.187L55.9847 73.187C55.9415 73.1935 55.8983 73.2 55.8551 73.2H39.9371ZM17.9703 41.988H21.5823C22.9083 41.988 23.9823 43.062 23.9823 44.388C23.9823 45.714 22.9083 46.788 21.5823 46.788H17.9703C16.6443 46.788 15.5703 45.714 15.5703 44.388C15.5703 43.062 16.6443 41.988 17.9703 41.988ZM78.0245 41.988H74.4125C73.0865 41.988 72.0125 43.062 72.0125 44.388C72.0125 45.714 73.0865 46.788 74.4125 46.788H78.0245C79.3505 46.788 80.4245 45.714 80.4245 44.388C80.4245 43.062 79.3505 41.988 78.0245 41.988ZM67.5372 21.456L64.9872 24.006C64.0512 24.942 64.0512 26.46 64.9872 27.402C65.4552 27.87 66.0672 28.104 66.6852 28.104C67.3032 28.104 67.9152 27.87 68.3832 27.402L70.9332 24.852C71.8692 23.916 71.8692 22.398 70.9332 21.456C69.9972 20.52 68.4792 20.52 67.5372 21.456ZM28.4703 21.462L31.0203 24.012C31.9563 24.954 31.9563 26.472 31.0203 27.408C30.5523 27.876 29.9403 28.11 29.3223 28.11C28.7043 28.11 28.0923 27.876 27.6243 27.408L25.0743 24.858C24.1383 23.916 24.1383 22.398 25.0743 21.462C26.0163 20.526 27.5343 20.526 28.4703 21.462Z" fill="white"/>
</clipPath>
<g clip-path="url(#mask0_5481_99416)">
<g clip-path="url(#clip0_5481_99416)">
<rect x="7.80078" y="12.3926" width="78.6002" height="74.0945" rx="2.07674" fill="#FFECCF"/>
<rect width="78.6002" height="74.0945" transform="translate(7.80078 12.3926)" fill="#FFECCF"/>
<ellipse cx="34.1954" cy="32.2352" rx="34.1954" ry="32.2352" transform="matrix(0.999999 -0.00131734 0.00148243 0.999999 18 -16.9238)" fill="url(#paint0_radial_5481_99416)"/>
<path d="M37.8001 -0.695531C31.7637 -4.21674 24.1156 -4.23831 18.0567 -0.7512L-42.5428 34.1279C-48.4778 37.5439 -48.4877 45.6071 -42.5608 49.036L17.6383 83.8656C23.6881 87.3653 31.3363 87.3612 37.3808 83.8532L97.4559 48.9909C103.351 45.5693 103.362 37.5513 97.4739 34.1167L37.8001 -0.695531Z" fill="url(#paint1_linear_5481_99416)"/>
<path d="M19.1263 47.5712C20.4697 19.9096 45.3466 -1.48801 74.6904 -0.2216C104.034 1.04481 126.733 24.4957 125.39 52.1573C124.046 79.819 99.1692 101.217 69.8254 99.9501C40.4816 98.6837 17.7828 75.2329 19.1263 47.5712Z" fill="url(#paint2_linear_5481_99416)"/>
<path d="M-24.0436 65.8101C-12.3794 61.1193 0.200335 61.3204 11.0991 65.4234C32.9077 73.6539 45.5974 68.5652 54.3988 48.0538C58.7829 37.7613 67.3422 29.0445 79.0195 24.3484C102.367 14.9739 129.32 25.1459 139.25 47.0895C149.181 69.0331 138.311 94.4012 114.97 103.788C103.267 108.495 90.6626 108.274 79.7472 104.134C57.9739 95.9477 45.3084 101.056 36.5181 121.592C32.1229 131.86 23.5655 140.547 11.9013 145.237C-11.4271 154.619 -38.3803 144.447 -48.3053 122.516C-58.2303 100.584 -47.372 75.1917 -24.0436 65.8101Z" fill="url(#paint3_linear_5481_99416)"/>
<ellipse cx="34.1954" cy="32.2352" rx="34.1954" ry="32.2352" transform="matrix(0.999999 -0.00131734 0.00148243 0.999999 47.5781 -6.41113)" fill="url(#paint4_radial_5481_99416)"/>
</g>
</g>

</svg>
