<svg width="160" height="160" viewBox="0 0 160 160" xmlns="http://www.w3.org/2000/svg">
  <defs>
<radialGradient id="paint0_radial_5481_90155" cx="0" cy="0" r="1" gradientUnits="userSpaceOnUse" gradientTransform="translate(90.4677 6.20574) rotate(90) scale(69.6088)">
<stop offset="0.166667" stop-color="#FF709F"/>
<stop offset="1" stop-color="#FF709F" stop-opacity="0"/>
</radialGradient>
<linearGradient id="paint1_linear_5481_90155" x1="-40.2086" y1="142.983" x2="219.921" y2="-15.2772" gradientUnits="userSpaceOnUse">
<stop offset="0.0598452" stop-color="#8480FE"/>
<stop offset="0.599632" stop-color="#8480FE" stop-opacity="0"/>
</linearGradient>
<linearGradient id="paint2_linear_5481_90155" x1="168.544" y1="29.4718" x2="56.9494" y2="149.467" gradientUnits="userSpaceOnUse">
<stop stop-color="#EB1000"/>
<stop offset="1" stop-color="#EB1000" stop-opacity="0"/>
</linearGradient>
<linearGradient id="paint3_linear_5481_90155" x1="32.9255" y1="166.029" x2="230.753" y2="55.2086" gradientUnits="userSpaceOnUse">
<stop stop-color="#FC7D00" stop-opacity="0"/>
<stop offset="0.432292" stop-color="#FC7D00"/>
<stop offset="0.609375" stop-color="#FC7D00"/>
<stop offset="1" stop-color="#FC7D00" stop-opacity="0"/>
</linearGradient>
<radialGradient id="paint4_radial_5481_90155" cx="0" cy="0" r="1" gradientUnits="userSpaceOnUse" gradientTransform="translate(150.675 28.9059) rotate(90) scale(69.6088)">
<stop offset="0.166667" stop-color="#EB1000"/>
<stop offset="1" stop-color="#EB1000" stop-opacity="0"/>
</radialGradient>
<clipPath id="clip0_5481_90155">
<rect width="160" height="160" rx="5.125" fill="white"/>
</clipPath>
</defs>
<clipPath id="mask0_5481_90155">
<path fill-rule="evenodd" d="M92.3389 56.3901C92.3389 61.9505 90.9496 67.1864 88.4991 71.7697C87.9195 72.002 87.3437 72.242 86.7749 72.4889L77.7683 56.2771L77.7033 56.1683C74.1101 50.157 65.5768 45.2505 57.122 49.8339C49.1406 54.1607 46.7392 64.499 51.1343 71.9317L60.6398 89.0416C60.3188 89.051 59.9966 89.0557 59.6733 89.0557C41.6327 89.0557 27.0078 74.4308 27.0078 56.3901C27.0078 38.3495 41.6327 23.7246 59.6733 23.7246C77.714 23.7246 92.3389 38.3495 92.3389 56.3901ZM69.0419 87.6924L82.974 112.77C83.1967 113.171 82.8098 113.63 82.3798 113.471C79.867 112.541 77.0569 111.33 74.1371 110.072C69.3675 108.017 64.3055 105.835 59.7694 104.545C55.1392 103.229 50.7249 105.391 49.5526 109.654C48.403 113.834 49.553 117.316 54.6611 119.87C55.0316 120.056 55.5111 120.3 56.0882 120.595C63.4675 124.361 86.8133 136.276 102.513 136.276C119.441 136.276 132.989 122.554 132.989 105.626C132.989 88.6982 123.523 75.5984 106.596 75.5984C100.135 75.5984 89.2956 79.4212 84.0681 82.9414C83.8202 83.1084 83.4805 83.0318 83.3354 82.7705L70.8369 60.2734C70.7632 60.1501 70.6868 60.0287 70.6079 59.9095C70.5466 59.817 70.4838 59.7257 70.4196 59.6358C68.2169 56.5522 64.2999 55.0427 60.9347 56.867C57.106 58.9426 55.8037 64.2135 58.0656 67.9351L69.0419 87.6924Z" fill="white"/>
</clipPath>
<g clip-path="url(#mask0_5481_90155)">
<g clip-path="url(#clip0_5481_90155)">
<rect width="160" height="160" rx="5.125" fill="#FFECCF"/>
<rect width="160" height="160" fill="#FFECCF"/>
<circle cx="90.4677" cy="6.20574" r="69.6087" transform="rotate(-0.0800682 90.4677 6.20574)" fill="url(#paint0_radial_5481_90155)"/>
<path d="M61.0698 -28.2626C48.782 -35.8663 33.2133 -35.9129 20.8798 -28.3828L-102.478 46.9353C-114.559 54.3119 -114.579 71.7234 -102.514 79.1279L20.0281 154.339C32.3432 161.896 47.9119 161.887 60.2163 154.312L182.506 79.0306C194.507 71.6419 194.529 54.3277 182.543 46.9111L61.0698 -28.2626Z" fill="url(#paint1_linear_5481_90155)"/>
<path d="M23.0583 75.9646C25.793 16.2319 76.4328 -29.9741 136.166 -27.2395C195.898 -24.5048 242.104 26.1351 239.37 85.8678C236.635 145.601 185.995 191.807 126.262 189.072C66.5296 186.337 20.3236 135.697 23.0583 75.9646Z" fill="url(#paint2_linear_5481_90155)"/>
<path d="M-64.8253 115.35C-41.0814 105.221 -15.474 105.655 6.71169 114.515C51.1056 132.288 76.9371 121.299 94.8534 77.0069C103.778 54.7811 121.201 35.958 144.972 25.8174C192.497 5.57391 247.364 27.5395 267.579 74.9246C287.793 122.31 265.667 177.09 218.153 197.36C194.329 207.523 168.673 207.047 146.453 198.107C102.131 180.429 76.3488 191.459 58.4551 235.805C49.5082 257.978 32.0886 276.736 8.34476 286.866C-39.1429 307.124 -94.0093 285.159 -114.213 237.8C-134.416 190.441 -112.313 135.609 -64.8253 115.35Z" fill="url(#paint3_linear_5481_90155)"/>
<circle cx="150.675" cy="28.9059" r="69.6087" transform="rotate(-0.0800682 150.675 28.9059)" fill="url(#paint4_radial_5481_90155)"/>
</g>
</g>

</svg>
