<svg width="160" height="160" viewBox="0 0 160 160" xmlns="http://www.w3.org/2000/svg">
  <defs>
<radialGradient id="paint0_radial_5481_89936" cx="0" cy="0" r="1" gradientUnits="userSpaceOnUse" gradientTransform="translate(88.6734 15.3968) rotate(90) scale(60.5342)">
<stop offset="0.166667" stop-color="#FF709F"/>
<stop offset="1" stop-color="#FF709F" stop-opacity="0"/>
</radialGradient>
<linearGradient id="paint1_linear_5481_89936" x1="-24.9662" y1="134.343" x2="201.252" y2="-3.28606" gradientUnits="userSpaceOnUse">
<stop offset="0.0598452" stop-color="#8480FE"/>
<stop offset="0.599632" stop-color="#8480FE" stop-opacity="0"/>
</linearGradient>
<linearGradient id="paint2_linear_5481_89936" x1="156.573" y1="35.6296" x2="59.5264" y2="139.982" gradientUnits="userSpaceOnUse">
<stop stop-color="#EB1000"/>
<stop offset="1" stop-color="#EB1000" stop-opacity="0"/>
</linearGradient>
<linearGradient id="paint3_linear_5481_89936" x1="38.635" y1="154.384" x2="210.673" y2="58.0109" gradientUnits="userSpaceOnUse">
<stop stop-color="#FC7D00" stop-opacity="0"/>
<stop offset="0.432292" stop-color="#FC7D00"/>
<stop offset="0.609375" stop-color="#FC7D00"/>
<stop offset="1" stop-color="#FC7D00" stop-opacity="0"/>
</linearGradient>
<radialGradient id="paint4_radial_5481_89936" cx="0" cy="0" r="1" gradientUnits="userSpaceOnUse" gradientTransform="translate(141.033 35.138) rotate(90) scale(60.5342)">
<stop offset="0.166667" stop-color="#EB1000"/>
<stop offset="1" stop-color="#EB1000" stop-opacity="0"/>
</radialGradient>
<clipPath id="clip0_5481_89936">
<rect x="10" y="10" width="139.142" height="139.142" rx="3.46124" fill="white"/>
</clipPath>
</defs>
<clipPath id="mask0_5481_89936">
<path fill-rule="evenodd" d="M36 34C27.1634 34 20 41.1634 20 50V110C20 118.837 27.1634 126 36 126H124C132.837 126 140 118.837 140 110V50C140 41.1634 132.837 34 124 34H36ZM32 53C32 51.8954 32.8954 51 34 51H41C42.1046 51 43 51.8954 43 53V58C43 59.1046 42.1046 60 41 60H34C32.8954 60 32 59.1046 32 58V53ZM32 102C32 100.895 32.8954 100 34 100H41C42.1046 100 43 100.895 43 102V107C43 108.105 42.1046 109 41 109H34C32.8954 109 32 108.105 32 107V102ZM49 53C49 51.8954 49.8954 51 51 51H58C59.1046 51 60 51.8954 60 53V58C60 59.1046 59.1046 60 58 60H51C49.8954 60 49 59.1046 49 58V53ZM49 102C49 100.895 49.8954 100 51 100H58C59.1046 100 60 100.895 60 102V107C60 108.105 59.1046 109 58 109H51C49.8954 109 49 108.105 49 107V102ZM66 53C66 51.8954 66.8954 51 68 51H75C76.1046 51 77 51.8954 77 53V58C77 59.1046 76.1046 60 75 60H68C66.8954 60 66 59.1046 66 58V53ZM66 102C66 100.895 66.8954 100 68 100H75C76.1046 100 77 100.895 77 102V107C77 108.105 76.1046 109 75 109H68C66.8954 109 66 108.105 66 107V102ZM83 53C83 51.8954 83.8954 51 85 51H92C93.1046 51 94 51.8954 94 53V58C94 59.1046 93.1046 60 92 60H85C83.8954 60 83 59.1046 83 58V53ZM83 102C83 100.895 83.8954 100 85 100H92C93.1046 100 94 100.895 94 102V107C94 108.105 93.1046 109 92 109H85C83.8954 109 83 108.105 83 107V102ZM100 53C100 51.8954 100.895 51 102 51H109C110.105 51 111 51.8954 111 53V58C111 59.1046 110.105 60 109 60H102C100.895 60 100 59.1046 100 58V53ZM100 102C100 100.895 100.895 100 102 100H109C110.105 100 111 100.895 111 102V107C111 108.105 110.105 109 109 109H102C100.895 109 100 108.105 100 107V102ZM117 53C117 51.8954 117.895 51 119 51H126C127.105 51 128 51.8954 128 53V58C128 59.1046 127.105 60 126 60H119C117.895 60 117 59.1046 117 58V53ZM117 102C117 100.895 117.895 100 119 100H126C127.105 100 128 100.895 128 102V107C128 108.105 127.105 109 126 109H119C117.895 109 117 108.105 117 107V102Z" fill="white"/>
</clipPath>
<g clip-path="url(#mask0_5481_89936)">
<g clip-path="url(#clip0_5481_89936)">
<rect x="10" y="10" width="139.142" height="139.142" rx="3.46124" fill="#FFECCF"/>
<rect width="139.142" height="139.142" transform="translate(10 10)" fill="#FFECCF"/>
<circle cx="88.6734" cy="15.3968" r="60.5342" transform="rotate(-0.0800682 88.6734 15.3968)" fill="url(#paint0_radial_5481_89936)"/>
<path d="M63.1092 -14.5787C52.4232 -21.1911 38.8842 -21.2316 28.1585 -14.6832L-79.1175 50.8161C-89.6238 57.231 -89.6414 72.3727 -79.1493 78.8119L27.4178 144.218C38.1275 150.79 51.6666 150.783 62.3669 144.195L168.715 78.7273C179.151 72.3018 179.17 57.2448 168.746 50.7951L63.1092 -14.5787Z" fill="url(#paint1_linear_5481_89936)"/>
<path d="M30.0536 76.0614C32.4318 24.1157 76.4699 -16.0667 128.416 -13.6885C180.361 -11.3103 220.544 32.7279 218.165 84.6735C215.787 136.619 171.749 176.802 119.803 174.423C67.8577 172.045 27.6754 128.007 30.0536 76.0614Z" fill="url(#paint2_linear_5481_89936)"/>
<path d="M-46.3726 110.312C-25.7241 101.503 -3.45491 101.881 15.8385 109.586C54.4451 125.042 76.909 115.486 92.4897 76.9675C100.251 57.6392 115.403 41.2699 136.074 32.4512C177.404 14.8468 225.118 33.9488 242.698 75.1566C260.277 116.364 241.036 164.003 199.715 181.63C178.997 190.469 156.685 190.055 137.362 182.281C98.8185 166.907 76.3974 176.499 60.8364 215.064C53.0559 234.346 37.9072 250.659 17.2587 259.468C-24.0383 277.086 -71.752 257.984 -89.3218 216.799C-106.892 175.614 -87.6695 127.929 -46.3726 110.312Z" fill="url(#paint3_linear_5481_89936)"/>
<circle cx="141.033" cy="35.138" r="60.5342" transform="rotate(-0.0800682 141.033 35.138)" fill="url(#paint4_radial_5481_89936)"/>
</g>
</g>

</svg>
