<svg width="48" height="48" viewBox="0 0 48 48" xmlns="http://www.w3.org/2000/svg">
  <defs>
<radialGradient id="paint0_radial_5481_99705" cx="0" cy="0" r="1" gradientUnits="userSpaceOnUse" gradientTransform="translate(27.1423 1.86222) rotate(90) scale(20.8826)">
<stop offset="0.166667" stop-color="#FF709F"/>
<stop offset="1" stop-color="#FF709F" stop-opacity="0"/>
</radialGradient>
<linearGradient id="paint1_linear_5481_99705" x1="-12.0622" y1="42.8952" x2="65.9766" y2="-4.58296" gradientUnits="userSpaceOnUse">
<stop offset="0.0598452" stop-color="#8480FE"/>
<stop offset="0.599632" stop-color="#8480FE" stop-opacity="0"/>
</linearGradient>
<linearGradient id="paint2_linear_5481_99705" x1="50.5621" y1="8.84155" x2="17.0836" y2="44.8401" gradientUnits="userSpaceOnUse">
<stop stop-color="#EB1000"/>
<stop offset="1" stop-color="#EB1000" stop-opacity="0"/>
</linearGradient>
<linearGradient id="paint3_linear_5481_99705" x1="9.87765" y1="49.8089" x2="69.2259" y2="16.5628" gradientUnits="userSpaceOnUse">
<stop stop-color="#FC7D00" stop-opacity="0"/>
<stop offset="0.432292" stop-color="#FC7D00"/>
<stop offset="0.609375" stop-color="#FC7D00"/>
<stop offset="1" stop-color="#FC7D00" stop-opacity="0"/>
</linearGradient>
<radialGradient id="paint4_radial_5481_99705" cx="0" cy="0" r="1" gradientUnits="userSpaceOnUse" gradientTransform="translate(45.2009 8.67178) rotate(90) scale(20.8826)">
<stop offset="0.166667" stop-color="#EB1000"/>
<stop offset="1" stop-color="#EB1000" stop-opacity="0"/>
</radialGradient>
<clipPath id="clip0_5481_99705">
<rect width="48" height="48" rx="5.125" fill="white"/>
</clipPath>
</defs>
<clipPath id="mask0_5481_99705">
<path fill-rule="evenodd" d="M9.32627 25.367L9.32612 25.3667C9.32269 25.3601 9.31911 25.3536 9.31539 25.3471C8.6338 24.1645 8.80391 22.8654 9.76535 22.1431C10.7562 21.3986 12.1585 21.5901 12.915 22.5737L15.8588 26.4017C15.9893 26.5715 16.2134 26.6392 16.4161 26.5703C16.6188 26.5014 16.7552 26.311 16.7552 26.0969V13.3153C16.7552 11.9665 17.8431 10.877 19.1812 10.877C20.5192 10.877 21.6072 11.9665 21.6072 13.3153V21.5358C21.6072 21.8119 21.831 22.0358 22.1072 22.0358H22.1131C22.3893 22.0358 22.6131 21.8119 22.6131 21.5358V10.4382C22.6131 9.08951 23.7011 8 25.0391 8C26.3771 8 27.4651 9.08951 27.4651 10.4382V21.5373C27.4651 21.8134 27.689 22.0373 27.9651 22.0373H27.971C28.2472 22.0373 28.471 21.8134 28.471 21.5373V11.8297C28.471 10.481 29.559 9.39149 30.897 9.39149C32.2367 9.39149 33.3245 10.4812 33.3245 11.8297V22.2689C33.3245 22.5342 33.5318 22.7533 33.7967 22.7681C34.0616 22.7829 34.2919 22.5882 34.3214 22.3245L34.6009 19.8289L34.8804 17.3334L34.8805 17.3334L34.8812 17.3264C35.0236 15.8714 36.3198 15.1476 37.5096 15.3813C38.4677 15.5694 39.2213 16.429 39.0784 17.8136L37.8351 26.5085C37.8265 26.533 37.8198 26.5584 37.8151 26.5847C36.8149 32.1411 35.1694 35.4737 33.0702 37.4233C30.9845 39.3603 28.3766 40 25.28 40C23.2551 40 21.2474 39.1289 19.3503 37.7654C17.4559 36.4037 15.7091 34.5776 14.217 32.7338C12.7268 30.8924 11.5026 29.0484 10.6504 27.6634C10.2247 26.9714 9.89254 26.3952 9.6673 25.9929C9.5547 25.7918 9.46886 25.6342 9.41144 25.5274C9.38273 25.474 9.36112 25.4333 9.34683 25.4062L9.33091 25.3759L9.32712 25.3686L9.32627 25.367Z" fill="white"/>
</clipPath>
<g clip-path="url(#mask0_5481_99705)">
<g clip-path="url(#clip0_5481_99705)">
<rect width="48" height="48" rx="5.125" fill="#FFECCF"/>
<rect width="48" height="48" fill="#FFECCF"/>
<circle cx="27.1423" cy="1.86221" r="20.8826" transform="rotate(-0.0800682 27.1423 1.86221)" fill="url(#paint0_radial_5481_99705)"/>
<path d="M18.3213 -8.47858C14.635 -10.7597 9.96439 -10.7737 6.26433 -8.51465L-30.7429 14.0808C-34.3673 16.2938 -34.3733 21.5172 -30.7539 23.7386L6.00883 46.302C9.70335 48.5691 14.374 48.5664 18.0653 46.2939L54.7523 23.7094C58.3526 21.4928 58.3591 16.2985 54.7632 14.0735L18.3213 -8.47858Z" fill="url(#paint1_linear_5481_99705)"/>
<path d="M6.91632 22.7894C7.73673 4.86956 22.9287 -8.99224 40.8485 -8.17184C58.7683 -7.35143 72.6301 7.84053 71.8097 25.7603C70.9893 43.6802 55.7973 57.542 37.8775 56.7215C19.9577 55.9011 6.09591 40.7092 6.91632 22.7894Z" fill="url(#paint2_linear_5481_99705)"/>
<path d="M-19.4476 34.6052C-12.3244 31.5664 -4.64218 31.6967 2.01351 34.3546C15.3317 39.6865 23.0811 36.39 28.456 23.1023C31.1333 16.4345 36.3604 10.7876 43.4915 7.74541C57.7492 1.67237 74.2091 8.26203 80.2736 22.4776C86.338 36.6931 79.7002 53.1271 65.4459 59.2081C58.2988 62.2571 50.6018 62.1143 43.9359 59.4324C30.6393 54.129 22.9046 57.438 17.5365 70.7417C14.8525 77.3935 9.62658 83.0211 2.50343 86.0599C-11.7429 92.1375 -28.2028 85.5478 -34.2639 71.3402C-40.3249 57.1326 -33.6939 40.6828 -19.4476 34.6052Z" fill="url(#paint3_linear_5481_99705)"/>
<circle cx="45.2009" cy="8.67178" r="20.8826" transform="rotate(-0.0800682 45.2009 8.67178)" fill="url(#paint4_radial_5481_99705)"/>
</g>
</g>

</svg>
