<svg width="48" height="48" viewBox="0 0 48 48" xmlns="http://www.w3.org/2000/svg">
  <defs>
<radialGradient id="paint0_radial_5481_99530" cx="0" cy="0" r="1" gradientUnits="userSpaceOnUse" gradientTransform="translate(27.1423 1.86222) rotate(90) scale(20.8826)">
<stop offset="0.166667" stop-color="#FF709F"/>
<stop offset="1" stop-color="#FF709F" stop-opacity="0"/>
</radialGradient>
<linearGradient id="paint1_linear_5481_99530" x1="-12.0622" y1="42.8952" x2="65.9766" y2="-4.58296" gradientUnits="userSpaceOnUse">
<stop offset="0.0598452" stop-color="#8480FE"/>
<stop offset="0.599632" stop-color="#8480FE" stop-opacity="0"/>
</linearGradient>
<linearGradient id="paint2_linear_5481_99530" x1="50.5621" y1="8.84155" x2="17.0836" y2="44.8401" gradientUnits="userSpaceOnUse">
<stop stop-color="#EB1000"/>
<stop offset="1" stop-color="#EB1000" stop-opacity="0"/>
</linearGradient>
<linearGradient id="paint3_linear_5481_99530" x1="9.87765" y1="49.8089" x2="69.2259" y2="16.5628" gradientUnits="userSpaceOnUse">
<stop stop-color="#FC7D00" stop-opacity="0"/>
<stop offset="0.432292" stop-color="#FC7D00"/>
<stop offset="0.609375" stop-color="#FC7D00"/>
<stop offset="1" stop-color="#FC7D00" stop-opacity="0"/>
</linearGradient>
<radialGradient id="paint4_radial_5481_99530" cx="0" cy="0" r="1" gradientUnits="userSpaceOnUse" gradientTransform="translate(45.2009 8.67178) rotate(90) scale(20.8826)">
<stop offset="0.166667" stop-color="#EB1000"/>
<stop offset="1" stop-color="#EB1000" stop-opacity="0"/>
</radialGradient>
<clipPath id="clip0_5481_99530">
<rect width="48" height="48" rx="5.125" fill="white"/>
</clipPath>
</defs>
<clipPath id="mask0_5481_99530">
<path fill-rule="evenodd" d="M23.5942 16.75C23.5942 18.9591 21.8034 20.75 19.5942 20.75C17.3851 20.75 15.5942 18.9591 15.5942 16.75C15.5942 14.5409 17.3851 12.75 19.5942 12.75C21.8034 12.75 23.5942 14.5409 23.5942 16.75ZM14.3442 16.75C14.3442 17.1808 14.3961 17.5994 14.494 18H9.125C8.43464 18 7.875 17.4404 7.875 16.75C7.875 16.0596 8.43464 15.5 9.125 15.5H14.494C14.3961 15.9006 14.3442 16.3192 14.3442 16.75ZM24.8442 16.75C24.8442 17.1808 24.7924 17.5994 24.6945 18H38.8752C39.5656 18 40.1252 17.4404 40.1252 16.75C40.1252 16.0596 39.5656 15.5 38.8752 15.5H24.6945C24.7924 15.9006 24.8442 16.3192 24.8442 16.75ZM23.1559 31.25C23.1559 31.6808 23.2078 32.0994 23.3056 32.5H9.125C8.43464 32.5 7.875 31.9404 7.875 31.25C7.875 30.5596 8.43464 30 9.125 30H23.3056C23.2078 30.4006 23.1559 30.8192 23.1559 31.25ZM33.6559 31.25C33.6559 31.6808 33.604 32.0994 33.5062 32.5H38.8751C39.5655 32.5 40.1251 31.9404 40.1251 31.25C40.1251 30.5596 39.5655 30 38.8751 30H33.5062C33.604 30.4006 33.6559 30.8192 33.6559 31.25ZM28.406 35.25C30.6151 35.25 32.406 33.4591 32.406 31.25C32.406 29.0409 30.6151 27.25 28.406 27.25C26.1969 27.25 24.406 29.0409 24.406 31.25C24.406 33.4591 26.1969 35.25 28.406 35.25Z" fill="white"/>
</clipPath>
<g clip-path="url(#mask0_5481_99530)">
<g clip-path="url(#clip0_5481_99530)">
<rect width="48" height="48" rx="5.125" fill="#FFECCF"/>
<rect width="48" height="48" fill="#FFECCF"/>
<circle cx="27.1423" cy="1.86221" r="20.8826" transform="rotate(-0.0800682 27.1423 1.86221)" fill="url(#paint0_radial_5481_99530)"/>
<path d="M18.3213 -8.47858C14.635 -10.7597 9.96439 -10.7737 6.26433 -8.51465L-30.7429 14.0808C-34.3673 16.2938 -34.3733 21.5172 -30.7539 23.7386L6.00883 46.302C9.70335 48.5691 14.374 48.5664 18.0653 46.2939L54.7523 23.7094C58.3526 21.4928 58.3591 16.2985 54.7632 14.0735L18.3213 -8.47858Z" fill="url(#paint1_linear_5481_99530)"/>
<path d="M6.91632 22.7894C7.73673 4.86956 22.9287 -8.99224 40.8485 -8.17184C58.7683 -7.35143 72.6301 7.84053 71.8097 25.7603C70.9893 43.6802 55.7973 57.542 37.8775 56.7215C19.9577 55.9011 6.09591 40.7092 6.91632 22.7894Z" fill="url(#paint2_linear_5481_99530)"/>
<path d="M-19.4476 34.6052C-12.3244 31.5664 -4.64218 31.6967 2.01351 34.3546C15.3317 39.6865 23.0811 36.39 28.456 23.1023C31.1333 16.4345 36.3604 10.7876 43.4915 7.74541C57.7492 1.67237 74.2091 8.26203 80.2736 22.4776C86.338 36.6931 79.7002 53.1271 65.4459 59.2081C58.2988 62.2571 50.6018 62.1143 43.9359 59.4324C30.6393 54.129 22.9046 57.438 17.5365 70.7417C14.8525 77.3935 9.62658 83.0211 2.50343 86.0599C-11.7429 92.1375 -28.2028 85.5478 -34.2639 71.3402C-40.3249 57.1326 -33.6939 40.6828 -19.4476 34.6052Z" fill="url(#paint3_linear_5481_99530)"/>
<circle cx="45.2009" cy="8.67178" r="20.8826" transform="rotate(-0.0800682 45.2009 8.67178)" fill="url(#paint4_radial_5481_99530)"/>
</g>
</g>

</svg>
