<svg width="96" height="96" viewBox="0 0 96 96" xmlns="http://www.w3.org/2000/svg">
  <defs>
<radialGradient id="paint0_radial_5481_99488" cx="0" cy="0" r="1" gradientUnits="userSpaceOnUse" gradientTransform="translate(54.2806 3.72345) rotate(90) scale(41.7653)">
<stop offset="0.166667" stop-color="#FF709F"/>
<stop offset="1" stop-color="#FF709F" stop-opacity="0"/>
</radialGradient>
<linearGradient id="paint1_linear_5481_99488" x1="-24.1244" y1="85.7895" x2="131.953" y2="-9.16689" gradientUnits="userSpaceOnUse">
<stop offset="0.0598452" stop-color="#8480FE"/>
<stop offset="0.599632" stop-color="#8480FE" stop-opacity="0"/>
</linearGradient>
<linearGradient id="paint2_linear_5481_99488" x1="101.128" y1="17.6831" x2="34.1712" y2="89.6803" gradientUnits="userSpaceOnUse">
<stop stop-color="#EB1000"/>
<stop offset="1" stop-color="#EB1000" stop-opacity="0"/>
</linearGradient>
<linearGradient id="paint3_linear_5481_99488" x1="19.7553" y1="99.6167" x2="138.452" y2="33.1246" gradientUnits="userSpaceOnUse">
<stop stop-color="#FC7D00" stop-opacity="0"/>
<stop offset="0.432292" stop-color="#FC7D00"/>
<stop offset="0.609375" stop-color="#FC7D00"/>
<stop offset="1" stop-color="#FC7D00" stop-opacity="0"/>
</linearGradient>
<radialGradient id="paint4_radial_5481_99488" cx="0" cy="0" r="1" gradientUnits="userSpaceOnUse" gradientTransform="translate(90.4056 17.3436) rotate(90) scale(41.7653)">
<stop offset="0.166667" stop-color="#EB1000"/>
<stop offset="1" stop-color="#EB1000" stop-opacity="0"/>
</radialGradient>
<clipPath id="clip0_5481_99488">
<rect width="96" height="96" rx="5.125" fill="white"/>
</clipPath>
</defs>
<clipPath id="mask0_5481_99488">
<path fill-rule="evenodd" d="M79.614 26.7555L75.3809 27.6014C74.8208 27.7143 74.3559 28.0919 74.1294 28.6136L72.4217 32.5772C71.7486 34.1393 69.4649 33.8974 69.1333 32.233L68.2873 27.9999C68.1744 27.4398 67.7968 26.9749 67.2752 26.7484L63.3116 25.0407C61.7495 24.3676 61.9914 22.084 63.6558 21.7523L67.8889 20.9063C68.4489 20.7935 68.9139 20.4159 69.1404 19.8942L70.8481 15.9306C71.5212 14.3685 73.8048 14.6104 74.1364 16.2748L74.9824 20.5079C75.0953 21.068 75.4729 21.5329 75.9945 21.7594L79.9582 23.4671C81.5202 24.1402 81.2784 26.4238 79.614 26.7555ZM43.9011 30.3808L40.4047 31.0795C39.9421 31.1728 39.5581 31.4846 39.371 31.9155L37.9605 35.1893C37.4046 36.4795 35.5184 36.2797 35.2445 34.905L34.5457 31.4086C34.4525 30.946 34.1406 30.562 33.7098 30.375L30.436 28.9644C29.1458 28.4085 29.3455 26.5223 30.7203 26.2484L34.2166 25.5497C34.6792 25.4564 35.0633 25.1445 35.2503 24.7137L36.6608 21.4399C37.2167 20.1497 39.1029 20.3495 39.3768 21.7242L40.0756 25.2205C40.1688 25.6831 40.4807 26.0672 40.9115 26.2542L44.1854 27.6648C45.4755 28.2207 45.2758 30.1069 43.9011 30.3808ZM74.9347 56.2983L78.4311 55.5995C79.8058 55.3256 80.0056 53.4394 78.7154 52.8835L75.4416 51.473C75.0107 51.2859 74.6989 50.9019 74.6056 50.4393L73.9069 46.9429C73.633 45.5682 71.7468 45.3685 71.1908 46.6586L69.7803 49.9325C69.5933 50.3633 69.2092 50.6752 68.7466 50.7684L65.2503 51.4672C63.8756 51.7411 63.6758 53.6273 64.966 54.1832L68.2398 55.5937C68.6706 55.7808 68.9825 56.1648 69.0758 56.6274L69.7745 60.1237C70.0484 61.4985 71.9346 61.6982 72.4905 60.408L73.9011 57.1342C74.0881 56.7034 74.4721 56.3915 74.9347 56.2983ZM53.323 34.6279C55.5773 32.3736 59.2323 32.3736 61.4866 34.6279C63.7409 36.8822 63.7409 40.5371 61.4866 42.7914L55.4286 48.8494L47.2651 40.6859L53.323 34.6279ZM44.4367 43.5143L52.6002 51.6778L24.8503 79.4277C22.596 81.682 18.9411 81.6819 16.6868 79.4277C14.4325 77.1734 14.4325 73.5184 16.6868 71.2641L44.4367 43.5143Z" fill="#292929"/>
</clipPath>
<g clip-path="url(#mask0_5481_99488)">
<g clip-path="url(#clip0_5481_99488)">
<rect width="96" height="96" rx="5.125" fill="#FFECCF"/>
<rect width="96" height="96" fill="#FFECCF"/>
<circle cx="54.2806" cy="3.72345" r="41.7653" transform="rotate(-0.0800682 54.2806 3.72345)" fill="url(#paint0_radial_5481_99488)"/>
<path d="M36.6427 -16.9581C29.27 -21.5204 19.9288 -21.5483 12.5287 -17.0303L-61.4858 28.1606C-68.7346 32.5865 -68.7467 43.0335 -61.5078 47.4761L12.0177 92.6029C19.4067 97.1373 28.7479 97.1319 36.1306 92.5868L109.505 47.4178C116.705 42.9845 116.718 32.596 109.526 28.1461L36.6427 -16.9581Z" fill="url(#paint1_linear_5481_99488)"/>
<path d="M13.8365 45.5788C15.4774 9.73912 45.8613 -17.9845 81.7009 -16.3437C117.541 -14.7029 145.264 15.6811 143.623 51.5207C141.982 87.3603 111.599 115.084 75.759 113.443C39.9193 111.802 12.1957 81.4184 13.8365 45.5788Z" fill="url(#paint2_linear_5481_99488)"/>
<path d="M-38.8952 69.2093C-24.6489 63.1318 -9.28437 63.3923 4.02702 68.7083C30.6634 79.3721 46.1622 72.779 56.9121 46.2036C62.2666 32.8681 72.7207 21.5742 86.983 15.4898C115.498 3.34376 148.418 16.5231 160.547 44.9542C172.676 73.3853 159.4 106.253 130.892 118.415C116.598 124.513 101.204 124.228 87.8718 118.864C61.2786 108.257 45.8093 114.875 35.073 141.482C29.7049 154.786 19.2532 166.041 5.00686 172.119C-23.4858 184.274 -56.4056 171.095 -68.5277 142.679C-80.6499 114.264 -67.3878 81.3645 -38.8952 69.2093Z" fill="url(#paint3_linear_5481_99488)"/>
<circle cx="90.4056" cy="17.3436" r="41.7653" transform="rotate(-0.0800682 90.4056 17.3436)" fill="url(#paint4_radial_5481_99488)"/>
</g>
</g>

</svg>
