<svg width="48" height="48" viewBox="0 0 48 48" xmlns="http://www.w3.org/2000/svg">
  <defs>
<radialGradient id="paint0_radial_5481_99348" cx="0" cy="0" r="1" gradientUnits="userSpaceOnUse" gradientTransform="translate(16.3929 15.4531) rotate(90) scale(15.4531 16.3929)">
<stop offset="0.166667" stop-color="#FF709F"/>
<stop offset="1" stop-color="#FF709F" stop-opacity="0"/>
</radialGradient>
<linearGradient id="paint1_linear_5481_99348" x1="-3.94892" y1="38.702" x2="55.3055" y2="0.459869" gradientUnits="userSpaceOnUse">
<stop offset="0.0598452" stop-color="#8480FE"/>
<stop offset="0.599632" stop-color="#8480FE" stop-opacity="0"/>
</linearGradient>
<linearGradient id="paint2_linear_5481_99348" x1="45.2133" y1="13.5027" x2="20.5875" y2="41.5925" gradientUnits="userSpaceOnUse">
<stop stop-color="#EB1000"/>
<stop offset="1" stop-color="#EB1000" stop-opacity="0"/>
</linearGradient>
<linearGradient id="paint3_linear_5481_99348" x1="13.273" y1="43.8181" x2="58.5074" y2="16.9375" gradientUnits="userSpaceOnUse">
<stop stop-color="#FC7D00" stop-opacity="0"/>
<stop offset="0.432292" stop-color="#FC7D00"/>
<stop offset="0.609375" stop-color="#FC7D00"/>
<stop offset="1" stop-color="#FC7D00" stop-opacity="0"/>
</linearGradient>
<radialGradient id="paint4_radial_5481_99348" cx="0" cy="0" r="1" gradientUnits="userSpaceOnUse" gradientTransform="translate(16.3929 15.4531) rotate(90) scale(15.4531 16.3929)">
<stop offset="0.166667" stop-color="#EB1000"/>
<stop offset="1" stop-color="#EB1000" stop-opacity="0"/>
</radialGradient>
<clipPath id="clip0_5481_99348">
<rect x="5.51953" y="6.95996" width="37.68" height="35.52" rx="1.03837" fill="white"/>
</clipPath>
</defs>
<clipPath id="mask0_5481_99348">
<path fill-rule="evenodd" d="M26.3384 9.40532L36.2264 18.8643V18.8703C36.9464 19.5543 37.3514 20.5083 37.3514 21.5043V35.9673C37.3514 37.9773 35.7284 39.6063 33.7304 39.6063H14.2694C12.2684 39.6063 10.6484 37.9773 10.6484 35.9673V12.0423C10.6484 10.0323 12.2714 8.40332 14.2694 8.40332H23.8424C24.7724 8.40332 25.6664 8.76032 26.3384 9.40532ZM27.7634 20.9583C27.7634 20.2953 27.2264 19.7583 26.5634 19.7583H25.0424V17.7603H26.5664C27.2294 17.7603 27.7664 17.2233 27.7664 16.5603C27.7664 15.8973 27.2294 15.3603 26.5664 15.3603H25.0424V14.3613C25.0424 13.6983 24.5054 13.1613 23.8424 13.1613H21.4454C20.7824 13.1613 20.2454 13.6983 20.2454 14.3613C20.2454 15.0243 20.7824 15.5613 21.4454 15.5613H22.6424V17.5593H21.4454C20.7824 17.5593 20.2454 18.0963 20.2454 18.7593C20.2454 19.4223 20.7824 19.9593 21.4454 19.9593H22.6424V21.9573H21.4454C20.7824 21.9573 20.2454 22.4943 20.2454 23.1573C20.2454 23.8203 20.7824 24.3573 21.4454 24.3573H22.6424V26.3553H21.7454C21.0824 26.3553 20.5454 26.8923 20.5454 27.5553V33.5823C20.5454 34.9053 21.6224 35.9823 22.9454 35.9823H24.7484C26.0714 35.9823 27.1484 34.9053 27.1484 33.5823V27.5553C27.1484 26.8923 26.6114 26.3553 25.9484 26.3553H25.0394V22.1583H26.5634C27.2264 22.1583 27.7634 21.6213 27.7634 20.9583ZM22.9455 31.1673H24.7515V33.5793H22.9455V31.1673Z" fill="white"/>
</clipPath>
<g clip-path="url(#mask0_5481_99348)">
<g clip-path="url(#clip0_5481_99348)">
<rect x="5.51953" y="6.95996" width="37.68" height="35.52" rx="1.03837" fill="#FFECCF"/>
<rect width="37.68" height="35.52" transform="translate(5.51953 6.95996)" fill="#FFECCF"/>
<ellipse cx="16.3929" cy="15.4531" rx="16.3929" ry="15.4531" transform="matrix(0.999999 -0.00131734 0.00148243 0.999999 10.4102 -7.09375)" fill="url(#paint0_radial_5481_99348)"/>
<path d="M19.9022 0.685379C17.0084 -1.00265 13.3419 -1.01298 10.4374 0.658692L-18.6133 17.3793C-21.4584 19.0169 -21.4632 22.8823 -18.6219 24.5261L10.2368 41.223C13.137 42.9007 16.8035 42.8987 19.7012 41.217L48.5004 24.5045C51.3267 22.8642 51.3318 19.0204 48.5091 17.3739L19.9022 0.685379Z" fill="url(#paint1_linear_5481_99348)"/>
<path d="M10.9514 23.8241C11.5954 10.5635 23.5211 0.305737 37.5881 0.91284C51.6552 1.51994 62.5367 12.762 61.8927 26.0227C61.2486 39.2833 49.323 49.541 35.2559 48.9339C21.1889 48.3268 10.3073 37.0848 10.9514 23.8241Z" fill="url(#paint2_linear_5481_99348)"/>
<path d="M-9.74728 32.5674C-4.1556 30.3187 1.87496 30.4151 7.09968 32.382C17.5545 36.3276 23.6378 33.8882 27.8571 24.0553C29.9587 19.1211 34.062 14.9424 39.6599 12.6912C50.8522 8.19712 63.7732 13.0735 68.5338 23.593C73.2944 34.1125 68.0837 46.2736 56.8941 50.7735C51.2836 53.0298 45.2415 52.9241 40.0088 50.9396C29.5709 47.015 23.4992 49.4637 19.2852 59.3084C17.1783 64.2307 13.0759 68.3952 7.48427 70.6439C-3.69908 75.1413 -16.6201 70.2649 -21.3781 59.7513C-26.136 49.2377 -20.9306 37.0648 -9.74728 32.5674Z" fill="url(#paint3_linear_5481_99348)"/>
<ellipse cx="16.3929" cy="15.4531" rx="16.3929" ry="15.4531" transform="matrix(0.999999 -0.00131734 0.00148243 0.999999 24.5859 -2.05469)" fill="url(#paint4_radial_5481_99348)"/>
</g>
</g>

</svg>
