<svg width="160" height="160" viewBox="0 0 160 160" xmlns="http://www.w3.org/2000/svg">
  <defs>
<radialGradient id="paint0_radial_5481_90049" cx="0" cy="0" r="1" gradientUnits="userSpaceOnUse" gradientTransform="translate(90.4677 6.20574) rotate(90) scale(69.6088)">
<stop offset="0.166667" stop-color="#FF709F"/>
<stop offset="1" stop-color="#FF709F" stop-opacity="0"/>
</radialGradient>
<linearGradient id="paint1_linear_5481_90049" x1="-40.2086" y1="142.983" x2="219.921" y2="-15.2772" gradientUnits="userSpaceOnUse">
<stop offset="0.0598452" stop-color="#8480FE"/>
<stop offset="0.599632" stop-color="#8480FE" stop-opacity="0"/>
</linearGradient>
<linearGradient id="paint2_linear_5481_90049" x1="168.544" y1="29.4718" x2="56.9494" y2="149.467" gradientUnits="userSpaceOnUse">
<stop stop-color="#EB1000"/>
<stop offset="1" stop-color="#EB1000" stop-opacity="0"/>
</linearGradient>
<linearGradient id="paint3_linear_5481_90049" x1="32.9255" y1="166.029" x2="230.753" y2="55.2086" gradientUnits="userSpaceOnUse">
<stop stop-color="#FC7D00" stop-opacity="0"/>
<stop offset="0.432292" stop-color="#FC7D00"/>
<stop offset="0.609375" stop-color="#FC7D00"/>
<stop offset="1" stop-color="#FC7D00" stop-opacity="0"/>
</linearGradient>
<radialGradient id="paint4_radial_5481_90049" cx="0" cy="0" r="1" gradientUnits="userSpaceOnUse" gradientTransform="translate(150.675 28.9059) rotate(90) scale(69.6088)">
<stop offset="0.166667" stop-color="#EB1000"/>
<stop offset="1" stop-color="#EB1000" stop-opacity="0"/>
</radialGradient>
<clipPath id="clip0_5481_90049">
<rect width="160" height="160" rx="5.125" fill="white"/>
</clipPath>
</defs>
<clipPath id="mask0_5481_90049">
<path fill-rule="evenodd" d="M106.073 50.9021L103.952 60.742L103.952 60.7423C103.012 65.1119 108.03 68.1353 111.185 65.1005L118.292 58.2666C119.347 57.2512 120.817 56.8404 122.217 57.1713L131.647 59.3846C131.751 59.409 131.854 59.4296 131.957 59.4464V59.4461C135.975 60.1063 138.66 55.0469 135.824 51.8373L129.274 44.4215C128.434 43.471 128.026 42.1974 128.134 40.9273C128.144 40.8182 128.157 40.7091 128.174 40.6002C128.188 40.5085 128.205 40.4169 128.225 40.3256L130.346 30.4854C131.286 26.1158 126.268 23.0924 123.113 26.1272L116.006 32.9612C114.951 33.9766 113.481 34.3873 112.081 34.0564L102.651 31.8431C99.3996 31.0813 96.926 34.0682 97.344 36.9824H97.3439C97.4642 37.8215 97.8242 38.6546 98.4744 39.3904L105.024 46.8063C105.856 47.748 106.264 49.007 106.167 50.2654C106.15 50.4781 106.119 50.6907 106.073 50.9017L106.073 50.9021ZM89.3155 36.9824H40.4886C33.7294 36.9824 28.25 42.3048 28.25 49.0221V88.6821C28.25 95.3994 33.7294 100.722 40.4886 100.722H50.9129C50.9368 106.461 50.9587 114.674 50.9129 120.929C50.8874 124.417 55.0125 126.304 57.6646 124.019L84.9072 100.722H119.718C126.477 100.722 131.957 95.3994 131.957 88.6821V67.4906C131.261 67.4475 130.549 67.344 129.822 67.1737L129.819 67.173L122.386 65.4283L116.731 70.8656L116.73 70.867C112.272 75.154 106.199 75.138 101.904 72.5504C97.6643 69.9957 94.8895 64.8295 96.1311 59.0593L97.9048 50.8309L92.4794 44.6876L92.478 44.6861C90.4121 42.3473 89.4435 39.6349 89.3155 36.9824ZM90.3584 84.0619L83.4271 82.5001C82.5094 82.2949 81.5575 82.5514 80.8678 83.1841L75.6466 88.0006C73.5889 89.8987 70.317 88.0063 70.9326 85.2817L72.4944 78.3505C72.6996 77.4328 72.4431 76.4808 71.8104 75.7911L66.9939 70.5699C65.0958 68.5122 66.9882 65.2404 69.7128 65.856L76.6441 67.4178C77.5618 67.623 78.5137 67.3665 79.2034 66.7338L84.4246 61.9173C86.4823 60.0191 89.7542 61.9116 89.1386 64.6362L87.5767 71.5674C87.3715 72.4851 87.628 73.437 88.2608 74.1267L93.0773 79.348C94.9754 81.4057 93.083 84.6775 90.3584 84.0619Z" fill="white"/>
</clipPath>
<g clip-path="url(#mask0_5481_90049)">
<g clip-path="url(#clip0_5481_90049)">
<rect width="160" height="160" rx="5.125" fill="#FFECCF"/>
<rect width="160" height="160" fill="#FFECCF"/>
<circle cx="90.4677" cy="6.20574" r="69.6087" transform="rotate(-0.0800682 90.4677 6.20574)" fill="url(#paint0_radial_5481_90049)"/>
<path d="M61.0698 -28.2626C48.782 -35.8663 33.2133 -35.9129 20.8798 -28.3828L-102.478 46.9353C-114.559 54.3119 -114.579 71.7234 -102.514 79.1279L20.0281 154.339C32.3432 161.896 47.9119 161.887 60.2163 154.312L182.506 79.0306C194.507 71.6419 194.529 54.3277 182.543 46.9111L61.0698 -28.2626Z" fill="url(#paint1_linear_5481_90049)"/>
<path d="M23.0583 75.9646C25.793 16.2319 76.4328 -29.9741 136.166 -27.2395C195.898 -24.5048 242.104 26.1351 239.37 85.8678C236.635 145.601 185.995 191.807 126.262 189.072C66.5296 186.337 20.3236 135.697 23.0583 75.9646Z" fill="url(#paint2_linear_5481_90049)"/>
<path d="M-64.8253 115.35C-41.0814 105.221 -15.474 105.655 6.71169 114.515C51.1056 132.288 76.9371 121.299 94.8534 77.0069C103.778 54.7811 121.201 35.958 144.972 25.8174C192.497 5.57391 247.364 27.5395 267.579 74.9246C287.793 122.31 265.667 177.09 218.153 197.36C194.329 207.523 168.673 207.047 146.453 198.107C102.131 180.429 76.3488 191.459 58.4551 235.805C49.5082 257.978 32.0886 276.736 8.34476 286.866C-39.1429 307.124 -94.0093 285.159 -114.213 237.8C-134.416 190.441 -112.313 135.609 -64.8253 115.35Z" fill="url(#paint3_linear_5481_90049)"/>
<circle cx="150.675" cy="28.9059" r="69.6087" transform="rotate(-0.0800682 150.675 28.9059)" fill="url(#paint4_radial_5481_90049)"/>
</g>
</g>

</svg>
