<svg width="48" height="48" viewBox="0 0 48 48" xmlns="http://www.w3.org/2000/svg">
  <defs>
<radialGradient id="paint0_radial_5481_99506" cx="0" cy="0" r="1" gradientUnits="userSpaceOnUse" gradientTransform="translate(27.1423 1.86222) rotate(90) scale(20.8826)">
<stop offset="0.166667" stop-color="#FF709F"/>
<stop offset="1" stop-color="#FF709F" stop-opacity="0"/>
</radialGradient>
<linearGradient id="paint1_linear_5481_99506" x1="-12.0622" y1="42.8952" x2="65.9766" y2="-4.58296" gradientUnits="userSpaceOnUse">
<stop offset="0.0598452" stop-color="#8480FE"/>
<stop offset="0.599632" stop-color="#8480FE" stop-opacity="0"/>
</linearGradient>
<linearGradient id="paint2_linear_5481_99506" x1="50.5621" y1="8.84155" x2="17.0836" y2="44.8401" gradientUnits="userSpaceOnUse">
<stop stop-color="#EB1000"/>
<stop offset="1" stop-color="#EB1000" stop-opacity="0"/>
</linearGradient>
<linearGradient id="paint3_linear_5481_99506" x1="9.87765" y1="49.8089" x2="69.2259" y2="16.5628" gradientUnits="userSpaceOnUse">
<stop stop-color="#FC7D00" stop-opacity="0"/>
<stop offset="0.432292" stop-color="#FC7D00"/>
<stop offset="0.609375" stop-color="#FC7D00"/>
<stop offset="1" stop-color="#FC7D00" stop-opacity="0"/>
</linearGradient>
<radialGradient id="paint4_radial_5481_99506" cx="0" cy="0" r="1" gradientUnits="userSpaceOnUse" gradientTransform="translate(45.2009 8.67178) rotate(90) scale(20.8826)">
<stop offset="0.166667" stop-color="#EB1000"/>
<stop offset="1" stop-color="#EB1000" stop-opacity="0"/>
</radialGradient>
<clipPath id="clip0_5481_99506">
<rect width="48" height="48" rx="5.125" fill="white"/>
</clipPath>
</defs>
<clipPath id="mask0_5481_99506">
<path fill-rule="evenodd" d="M28.1398 10.6432L20.0392 10.6432V9.125C20.0392 8.43464 19.4795 7.875 18.7892 7.875C18.0988 7.875 17.5392 8.43464 17.5392 9.125V10.6432L9.15234 10.6432C8.46199 10.6432 7.90234 11.2028 7.90234 11.8932C7.90234 12.5835 8.46199 13.1432 9.15234 13.1432L23.4903 13.1432C22.9437 16.3699 21.1372 19.0006 18.8669 20.9963C18.3637 21.4386 17.841 21.8467 17.309 22.2201C16.2799 20.4118 15.5517 18.6878 15.3309 17.435C15.2111 16.7552 14.5628 16.3011 13.883 16.4209C13.2031 16.5408 12.7491 17.189 12.8689 17.8689C13.1587 19.5134 14.0397 21.5406 15.1721 23.5198C13.7074 24.2844 12.2723 24.7908 11.0694 25.033C10.3926 25.1692 9.95445 25.8283 10.0907 26.5051C10.2269 27.1819 10.886 27.62 11.5628 27.4838C13.0485 27.1847 14.7696 26.5685 16.4966 25.6475C18.1666 28.1267 20.2205 30.4954 22.0603 31.6837C22.6402 32.0583 23.4139 31.8919 23.7885 31.312C24.1631 30.7321 23.9966 29.9583 23.4167 29.5837C22.0197 28.6814 20.2222 26.6857 18.6333 24.3443C19.2786 23.8975 19.9109 23.4072 20.5175 22.8739C23.1969 20.5186 25.4465 17.2593 26.0198 13.1432H28.1398C28.8301 13.1432 29.3898 12.5835 29.3898 11.8932C29.3898 11.2028 28.8301 10.6432 28.1398 10.6432ZM27.8786 33.817L25.5282 39.3624C25.2588 39.9981 24.5251 40.2949 23.8895 40.0255C23.2539 39.7561 22.957 39.0225 23.2264 38.3868L30.4558 21.3303C30.4791 21.2735 30.5067 21.2185 30.5381 21.1656C30.5758 21.1023 30.6185 21.0432 30.6655 20.9888C30.7868 20.8481 30.9414 20.7324 31.124 20.655C31.2834 20.5874 31.4489 20.5555 31.6118 20.5556C31.7747 20.5555 31.9403 20.5874 32.0997 20.655C32.2822 20.7324 32.4369 20.8481 32.5582 20.9888C32.6464 21.0911 32.717 21.2067 32.7678 21.3303L39.9972 38.3868C40.2666 39.0225 39.9697 39.7561 39.3341 40.0255C38.6985 40.2949 37.9648 39.9981 37.6954 39.3624L35.345 33.817H27.8786ZM31.6111 25.009L28.9375 31.3169H34.2847L31.6111 25.009Z" fill="#292929"/>
</clipPath>
<g clip-path="url(#mask0_5481_99506)">
<g clip-path="url(#clip0_5481_99506)">
<rect width="48" height="48" rx="5.125" fill="#FFECCF"/>
<rect width="48" height="48" fill="#FFECCF"/>
<circle cx="27.1423" cy="1.86221" r="20.8826" transform="rotate(-0.0800682 27.1423 1.86221)" fill="url(#paint0_radial_5481_99506)"/>
<path d="M18.3213 -8.47858C14.635 -10.7597 9.96439 -10.7737 6.26433 -8.51465L-30.7429 14.0808C-34.3673 16.2938 -34.3733 21.5172 -30.7539 23.7386L6.00883 46.302C9.70335 48.5691 14.374 48.5664 18.0653 46.2939L54.7523 23.7094C58.3526 21.4928 58.3591 16.2985 54.7632 14.0735L18.3213 -8.47858Z" fill="url(#paint1_linear_5481_99506)"/>
<path d="M6.91632 22.7894C7.73673 4.86956 22.9287 -8.99224 40.8485 -8.17184C58.7683 -7.35143 72.6301 7.84053 71.8097 25.7603C70.9893 43.6802 55.7973 57.542 37.8775 56.7215C19.9577 55.9011 6.09591 40.7092 6.91632 22.7894Z" fill="url(#paint2_linear_5481_99506)"/>
<path d="M-19.4476 34.6052C-12.3244 31.5664 -4.64218 31.6967 2.01351 34.3546C15.3317 39.6865 23.0811 36.39 28.456 23.1023C31.1333 16.4345 36.3604 10.7876 43.4915 7.74541C57.7492 1.67237 74.2091 8.26203 80.2736 22.4776C86.338 36.6931 79.7002 53.1271 65.4459 59.2081C58.2988 62.2571 50.6018 62.1143 43.9359 59.4324C30.6393 54.129 22.9046 57.438 17.5365 70.7417C14.8525 77.3935 9.62658 83.0211 2.50343 86.0599C-11.7429 92.1375 -28.2028 85.5478 -34.2639 71.3402C-40.3249 57.1326 -33.6939 40.6828 -19.4476 34.6052Z" fill="url(#paint3_linear_5481_99506)"/>
<circle cx="45.2009" cy="8.67178" r="20.8826" transform="rotate(-0.0800682 45.2009 8.67178)" fill="url(#paint4_radial_5481_99506)"/>
</g>
</g>

</svg>
