<svg width="96" height="96" viewBox="0 0 96 96" xmlns="http://www.w3.org/2000/svg">
  <defs>
<radialGradient id="paint0_radial_5481_99380" cx="0" cy="0" r="1" gradientUnits="userSpaceOnUse" gradientTransform="translate(37.0667 34.9784) rotate(90) scale(34.9784 37.0667)">
<stop offset="0.166667" stop-color="#FF709F"/>
<stop offset="1" stop-color="#FF709F" stop-opacity="0"/>
</radialGradient>
<linearGradient id="paint1_linear_5481_99380" x1="-17.2134" y1="82.649" x2="116.852" y2="-3.78475" gradientUnits="userSpaceOnUse">
<stop offset="0.0598452" stop-color="#8480FE"/>
<stop offset="0.599632" stop-color="#8480FE" stop-opacity="0"/>
</linearGradient>
<linearGradient id="paint2_linear_5481_99380" x1="93.9496" y1="25.6097" x2="38.2013" y2="89.1334" gradientUnits="userSpaceOnUse">
<stop stop-color="#EB1000"/>
<stop offset="1" stop-color="#EB1000" stop-opacity="0"/>
</linearGradient>
<linearGradient id="paint3_linear_5481_99380" x1="21.7331" y1="94.2291" x2="124.07" y2="33.4786" gradientUnits="userSpaceOnUse">
<stop stop-color="#FC7D00" stop-opacity="0"/>
<stop offset="0.432292" stop-color="#FC7D00"/>
<stop offset="0.609375" stop-color="#FC7D00"/>
<stop offset="1" stop-color="#FC7D00" stop-opacity="0"/>
</linearGradient>
<radialGradient id="paint4_radial_5481_99380" cx="0" cy="0" r="1" gradientUnits="userSpaceOnUse" gradientTransform="translate(37.0667 34.9784) rotate(90) scale(34.9784 37.0667)">
<stop offset="0.166667" stop-color="#EB1000"/>
<stop offset="1" stop-color="#EB1000" stop-opacity="0"/>
</radialGradient>
<clipPath id="clip0_5481_99380">
<rect x="4.19922" y="10.7998" width="85.2" height="80.4" rx="2.07674" fill="white"/>
</clipPath>
</defs>
<clipPath id="mask0_5481_99380">
<path fill-rule="evenodd" d="M65.9512 19.2957C67.6672 17.5797 67.6672 14.8077 65.9512 13.0917C64.2352 11.3757 61.4632 11.3757 59.7472 13.0917C58.0312 14.8077 58.0312 17.5797 59.7472 19.2957C61.4632 21.0117 64.2352 21.0117 65.9512 19.2957ZM38.8783 43.2717C37.8403 44.0997 37.6723 45.6117 38.5003 46.6437C38.9743 47.2377 39.6703 47.5437 40.3783 47.5437C40.9063 47.5437 41.4343 47.3697 41.8723 47.0157C53.4043 37.8057 52.8763 28.1397 52.8523 27.7317C52.7623 26.4177 51.6343 25.4397 50.3203 25.5117C49.0063 25.5897 47.9983 26.7237 48.0643 28.0377C48.0763 28.3497 48.3223 35.7237 38.8783 43.2657V43.2717ZM59.2792 61.1937C58.6612 60.0237 59.1112 58.5717 60.2812 57.9537H60.2872C61.4572 57.3357 62.9092 57.7857 63.5272 58.9557C66.9652 65.4717 65.8612 68.6637 64.3312 70.1937C63.8332 70.6917 63.1612 71.1417 62.2612 71.4057L20.7112 86.1657C19.9072 86.4537 19.0852 86.5917 18.2752 86.5917C16.4092 86.5917 14.5912 85.8537 13.2112 84.4737C11.2312 82.4937 10.5832 79.6197 11.5192 76.9737L26.1112 35.8557C26.1952 35.5437 26.3032 35.2437 26.4412 34.9557C26.7112 34.2837 27.0832 33.7557 27.4912 33.3477C29.0332 31.8057 32.2552 30.7077 38.8492 34.2177C40.0192 34.8417 40.4632 36.2937 39.8392 37.4637C39.2152 38.6337 37.7632 39.0777 36.5932 38.4537C32.8792 36.4797 31.1752 36.5997 30.8812 36.7497V36.7617L30.7732 37.0677C30.5332 38.8917 33.2932 45.9897 42.4912 55.1877C49.4632 62.1597 55.2232 65.4297 58.4152 66.4917C59.6512 66.7437 60.5272 66.8037 60.9712 66.7437C61.0852 66.4137 61.1452 64.7337 59.2792 61.1937ZM46.493 53.6577C45.875 53.6577 45.263 53.4237 44.795 52.9557C43.859 52.0137 43.859 50.4957 44.795 49.5597L54.161 40.1937C55.103 39.2577 56.621 39.2577 57.557 40.1937C58.493 41.1357 58.493 42.6537 57.557 43.5897L48.191 52.9557C47.723 53.4237 47.111 53.6577 46.493 53.6577ZM50.7229 55.8777C59.9329 44.3457 69.5989 44.8737 70.0069 44.8977L70.0009 44.9037C71.3269 44.9937 72.3229 46.1397 72.2329 47.4597C72.1429 48.7737 71.0089 49.7757 69.6949 49.6917C69.3409 49.6797 61.9909 49.4697 54.4729 58.8777C53.9989 59.4717 53.2969 59.7777 52.5949 59.7777C52.0729 59.7777 51.5449 59.6037 51.1009 59.2497C50.0629 58.4217 49.8949 56.9157 50.7229 55.8777ZM75.0225 55.3017C76.7385 53.5857 79.5106 53.5857 81.2265 55.3017C82.9426 57.0177 82.9426 59.7897 81.2265 61.5057C79.5106 63.2217 76.7385 63.2217 75.0225 61.5057C73.3065 59.7897 73.3065 57.0177 75.0225 55.3017ZM33.8097 16.9169L32.6574 17.7603C31.5878 18.5431 31.3553 20.0449 32.1382 21.1145L36.8264 27.5201C37.6092 28.5897 39.1109 28.8222 40.1805 28.0394L41.3329 27.196C42.4025 26.4131 42.635 24.9114 41.8521 23.8418L37.1639 17.4362C36.3811 16.3666 34.8794 16.1341 33.8097 16.9169ZM64.3359 32.9106L72.2235 32.0175C73.5406 31.8684 74.7292 32.8152 74.8783 34.1323L75.039 35.5512C75.1881 36.8683 74.2413 38.0568 72.9242 38.206L65.0366 39.0991C63.7196 39.2482 62.531 38.3014 62.3819 36.9843L62.2212 35.5654C62.0721 34.2483 63.0189 33.0597 64.3359 32.9106Z" fill="white"/>
</clipPath>
<g clip-path="url(#mask0_5481_99380)">
<g clip-path="url(#clip0_5481_99380)">
<rect x="4.19922" y="10.7998" width="85.2" height="80.4" rx="2.07674" fill="#FFECCF"/>
<rect width="85.2" height="80.4" transform="translate(4.19922 10.7998)" fill="#FFECCF"/>
<ellipse cx="37.0667" cy="34.9784" rx="37.0667" ry="34.9784" transform="matrix(0.999999 -0.00131872 0.00148088 0.999999 15.2539 -21.0107)" fill="url(#paint0_radial_5481_99380)"/>
<path d="M36.7173 -3.40212C30.1741 -7.22298 21.8838 -7.24639 15.3162 -3.46252L-50.3717 34.3848C-56.805 38.0916 -56.8157 46.8409 -50.3912 50.5616L14.8626 88.3553C21.4204 92.1528 29.7107 92.1483 36.2628 88.3417L101.382 50.5127C107.773 46.7999 107.784 38.0995 101.402 34.3727L36.7173 -3.40212Z" fill="url(#paint1_linear_5481_99380)"/>
<path d="M16.4783 48.9723C17.9345 18.9566 44.9003 -4.26191 76.7079 -2.88772C108.516 -1.51354 133.12 23.933 131.664 53.9487C130.208 83.9644 103.242 107.183 71.4345 105.809C39.6268 104.435 15.0221 78.988 16.4783 48.9723Z" fill="url(#paint2_linear_5481_99380)"/>
<path d="M-30.3192 68.763C-17.6756 63.673 -4.03958 63.8912 7.77427 68.3433C31.414 77.2742 45.1693 71.7525 54.7097 49.4956C59.4619 38.3272 68.7399 28.8686 81.3977 23.7729C106.705 13.6005 135.921 24.6382 146.686 48.4493C157.45 72.2603 145.668 99.7872 120.367 109.973C107.681 115.08 94.0184 114.841 82.1865 110.349C58.585 101.465 44.856 107.008 35.3276 129.292C30.5634 140.433 21.2875 149.86 8.64388 154.95C-16.6433 165.13 -45.8596 154.092 -56.618 130.294C-67.3765 106.496 -55.6064 78.9429 -30.3192 68.763Z" fill="url(#paint3_linear_5481_99380)"/>
<ellipse cx="37.0667" cy="34.9784" rx="37.0667" ry="34.9784" transform="matrix(0.999999 -0.00131872 0.00148088 0.999999 47.3164 -9.60449)" fill="url(#paint4_radial_5481_99380)"/>
</g>
</g>

</svg>
