<svg width="96" height="96" viewBox="0 0 96 96" xmlns="http://www.w3.org/2000/svg">
  <defs>
<radialGradient id="paint0_radial_5481_99680" cx="0" cy="0" r="1" gradientUnits="userSpaceOnUse" gradientTransform="translate(54.2806 3.72345) rotate(90) scale(41.7653)">
<stop offset="0.166667" stop-color="#FF709F"/>
<stop offset="1" stop-color="#FF709F" stop-opacity="0"/>
</radialGradient>
<linearGradient id="paint1_linear_5481_99680" x1="-24.1244" y1="85.7895" x2="131.953" y2="-9.16689" gradientUnits="userSpaceOnUse">
<stop offset="0.0598452" stop-color="#8480FE"/>
<stop offset="0.599632" stop-color="#8480FE" stop-opacity="0"/>
</linearGradient>
<linearGradient id="paint2_linear_5481_99680" x1="101.128" y1="17.6831" x2="34.1712" y2="89.6803" gradientUnits="userSpaceOnUse">
<stop stop-color="#EB1000"/>
<stop offset="1" stop-color="#EB1000" stop-opacity="0"/>
</linearGradient>
<linearGradient id="paint3_linear_5481_99680" x1="19.7553" y1="99.6167" x2="138.452" y2="33.1246" gradientUnits="userSpaceOnUse">
<stop stop-color="#FC7D00" stop-opacity="0"/>
<stop offset="0.432292" stop-color="#FC7D00"/>
<stop offset="0.609375" stop-color="#FC7D00"/>
<stop offset="1" stop-color="#FC7D00" stop-opacity="0"/>
</linearGradient>
<radialGradient id="paint4_radial_5481_99680" cx="0" cy="0" r="1" gradientUnits="userSpaceOnUse" gradientTransform="translate(90.4056 17.3436) rotate(90) scale(41.7653)">
<stop offset="0.166667" stop-color="#EB1000"/>
<stop offset="1" stop-color="#EB1000" stop-opacity="0"/>
</radialGradient>
<clipPath id="clip0_5481_99680">
<rect width="96" height="96" rx="5.125" fill="white"/>
</clipPath>
</defs>
<clipPath id="mask0_5481_99680">
<path fill-rule="evenodd" d="M48 81.0156C66.2254 81.0156 81 66.241 81 48.0156C81 29.7902 66.2254 15.0156 48 15.0156C29.7746 15.0156 15 29.7902 15 48.0156C15 66.241 29.7746 81.0156 48 81.0156ZM48.743 34.1366C47.8596 33.9566 46.9434 34.0485 46.1081 34.403C45.2722 34.7577 44.5499 35.3618 44.0382 36.1465C43.5261 36.9317 43.25 37.8597 43.25 38.813C43.25 39.9176 42.3546 40.813 41.25 40.813C40.1454 40.813 39.25 39.9176 39.25 38.813C39.25 37.0899 39.7485 35.4016 40.6877 33.9614C41.6273 32.5207 42.9679 31.3904 44.5454 30.7209C46.1236 30.0511 47.8631 29.8751 49.5418 30.2172C51.2201 30.5592 52.755 31.4022 53.955 32.6317C55.1545 33.8606 55.9661 35.4206 56.2945 37.1119C56.6228 38.8029 56.4547 40.5562 55.8095 42.152C55.1642 43.7482 54.0682 45.1203 52.6528 46.0892C51.9002 46.6045 51.1659 47.3042 50.6358 48.0703C50.0996 48.8452 49.854 49.5655 49.854 50.1613V54.3354C49.854 55.44 48.9586 56.3354 47.854 56.3354C46.7494 56.3354 45.854 55.44 45.854 54.3354V50.1613C45.854 48.5032 46.513 46.9989 47.3464 45.7944C48.1859 44.5811 49.2861 43.5465 50.3932 42.7886C51.1498 42.2706 51.7468 41.5292 52.1011 40.6527C52.4556 39.7758 52.5491 38.8082 52.3678 37.8742C52.1865 36.9404 51.7402 36.0892 51.0925 35.4256C50.4453 34.7626 49.6268 34.3167 48.743 34.1366ZM50.5 62.5156C50.5 63.8963 49.3807 65.0156 48 65.0156C46.6193 65.0156 45.5 63.8963 45.5 62.5156C45.5 61.1349 46.6193 60.0156 48 60.0156C49.3807 60.0156 50.5 61.1349 50.5 62.5156Z" fill="#D9D9D9"/>
</clipPath>
<g clip-path="url(#mask0_5481_99680)">
<g clip-path="url(#clip0_5481_99680)">
<rect width="96" height="96" rx="5.125" fill="#FFECCF"/>
<rect width="96" height="96" fill="#FFECCF"/>
<circle cx="54.2806" cy="3.72345" r="41.7653" transform="rotate(-0.0800682 54.2806 3.72345)" fill="url(#paint0_radial_5481_99680)"/>
<path d="M36.6427 -16.9581C29.27 -21.5204 19.9288 -21.5483 12.5287 -17.0303L-61.4858 28.1606C-68.7346 32.5865 -68.7467 43.0335 -61.5078 47.4761L12.0177 92.6029C19.4067 97.1373 28.7479 97.1319 36.1306 92.5868L109.505 47.4178C116.705 42.9845 116.718 32.596 109.526 28.1461L36.6427 -16.9581Z" fill="url(#paint1_linear_5481_99680)"/>
<path d="M13.8365 45.5788C15.4774 9.73912 45.8613 -17.9845 81.7009 -16.3437C117.541 -14.7029 145.264 15.6811 143.623 51.5207C141.982 87.3603 111.599 115.084 75.759 113.443C39.9193 111.802 12.1957 81.4184 13.8365 45.5788Z" fill="url(#paint2_linear_5481_99680)"/>
<path d="M-38.8952 69.2093C-24.6489 63.1318 -9.28437 63.3923 4.02702 68.7083C30.6634 79.3721 46.1622 72.779 56.9121 46.2036C62.2666 32.8681 72.7207 21.5742 86.983 15.4898C115.498 3.34376 148.418 16.5231 160.547 44.9542C172.676 73.3853 159.4 106.253 130.892 118.415C116.598 124.513 101.204 124.228 87.8718 118.864C61.2786 108.257 45.8093 114.875 35.073 141.482C29.7049 154.786 19.2532 166.041 5.00686 172.119C-23.4858 184.274 -56.4056 171.095 -68.5277 142.679C-80.6499 114.264 -67.3878 81.3645 -38.8952 69.2093Z" fill="url(#paint3_linear_5481_99680)"/>
<circle cx="90.4056" cy="17.3436" r="41.7653" transform="rotate(-0.0800682 90.4056 17.3436)" fill="url(#paint4_radial_5481_99680)"/>
</g>
</g>

</svg>
