<svg width="160" height="160" viewBox="0 0 160 160" xmlns="http://www.w3.org/2000/svg">
  <defs>
<radialGradient id="paint0_radial_5481_90176" cx="0" cy="0" r="1" gradientUnits="userSpaceOnUse" gradientTransform="translate(90.4677 6.20574) rotate(90) scale(69.6088)">
<stop offset="0.166667" stop-color="#FF709F"/>
<stop offset="1" stop-color="#FF709F" stop-opacity="0"/>
</radialGradient>
<linearGradient id="paint1_linear_5481_90176" x1="-40.2086" y1="142.983" x2="219.921" y2="-15.2772" gradientUnits="userSpaceOnUse">
<stop offset="0.0598452" stop-color="#8480FE"/>
<stop offset="0.599632" stop-color="#8480FE" stop-opacity="0"/>
</linearGradient>
<linearGradient id="paint2_linear_5481_90176" x1="168.544" y1="29.4718" x2="56.9494" y2="149.467" gradientUnits="userSpaceOnUse">
<stop stop-color="#EB1000"/>
<stop offset="1" stop-color="#EB1000" stop-opacity="0"/>
</linearGradient>
<linearGradient id="paint3_linear_5481_90176" x1="32.9255" y1="166.029" x2="230.753" y2="55.2086" gradientUnits="userSpaceOnUse">
<stop stop-color="#FC7D00" stop-opacity="0"/>
<stop offset="0.432292" stop-color="#FC7D00"/>
<stop offset="0.609375" stop-color="#FC7D00"/>
<stop offset="1" stop-color="#FC7D00" stop-opacity="0"/>
</linearGradient>
<radialGradient id="paint4_radial_5481_90176" cx="0" cy="0" r="1" gradientUnits="userSpaceOnUse" gradientTransform="translate(150.675 28.9059) rotate(90) scale(69.6088)">
<stop offset="0.166667" stop-color="#EB1000"/>
<stop offset="1" stop-color="#EB1000" stop-opacity="0"/>
</radialGradient>
<clipPath id="clip0_5481_90176">
<rect width="160" height="160" rx="5.125" fill="white"/>
</clipPath>
</defs>
<clipPath id="mask0_5481_90176">
<path fill-rule="evenodd" d="M80 136.016C110.928 136.016 136 110.944 136 80.0156C136 49.0877 110.928 24.0156 80 24.0156C49.0721 24.0156 24 49.0877 24 80.0156C24 110.944 49.0721 136.016 80 136.016ZM81.5944 57.0585C80.2158 56.7776 78.7857 56.9208 77.4808 57.4746C76.1748 58.0289 75.0427 58.9743 74.2391 60.2065C73.4349 61.4396 73 62.8994 73 64.4004C73 66.6096 71.2091 68.4004 69 68.4004C66.7909 68.4004 65 66.6096 65 64.4004C65 61.3597 65.8796 58.3796 67.5382 55.8363C69.1975 53.2921 71.566 51.2942 74.3555 50.1103C77.1461 48.926 80.2227 48.6145 83.1919 49.2197C86.1604 49.8246 88.8736 51.3153 90.9937 53.4875C93.1129 55.6587 94.5455 58.4133 95.125 61.3981C95.7044 64.3824 95.4078 67.4767 94.269 70.2937C93.1298 73.1114 91.1943 75.5353 88.6926 77.248C87.4691 78.0856 86.2785 79.2222 85.4258 80.4546C84.561 81.7045 84.2068 82.808 84.2068 83.658V90.7414C84.2068 92.9506 82.4159 94.7414 80.2068 94.7414C77.9977 94.7414 76.2068 92.9506 76.2068 90.7414V83.658C76.2068 80.6834 77.3877 78.0119 78.847 75.9027C80.3185 73.776 82.2409 71.9696 84.1734 70.6467C85.3575 69.8361 86.2949 68.6735 86.8521 67.2952C87.4097 65.916 87.557 64.393 87.2716 62.9228C86.9862 61.4529 86.2842 60.1158 85.2687 59.0754C84.2543 58.036 82.9737 57.3396 81.5944 57.0585ZM85 105.016C85 107.501 82.9853 109.516 80.5 109.516C78.0147 109.516 76 107.501 76 105.016C76 102.53 78.0147 100.516 80.5 100.516C82.9853 100.516 85 102.53 85 105.016Z" fill="#D9D9D9"/>
</clipPath>
<g clip-path="url(#mask0_5481_90176)">
<g clip-path="url(#clip0_5481_90176)">
<rect width="160" height="160" rx="5.125" fill="#FFECCF"/>
<rect width="160" height="160" fill="#FFECCF"/>
<circle cx="90.4677" cy="6.20574" r="69.6087" transform="rotate(-0.0800682 90.4677 6.20574)" fill="url(#paint0_radial_5481_90176)"/>
<path d="M61.0698 -28.2626C48.782 -35.8663 33.2133 -35.9129 20.8798 -28.3828L-102.478 46.9353C-114.559 54.3119 -114.579 71.7234 -102.514 79.1279L20.0281 154.339C32.3432 161.896 47.9119 161.887 60.2163 154.312L182.506 79.0306C194.507 71.6419 194.529 54.3277 182.543 46.9111L61.0698 -28.2626Z" fill="url(#paint1_linear_5481_90176)"/>
<path d="M23.0583 75.9646C25.793 16.2319 76.4328 -29.9741 136.166 -27.2395C195.898 -24.5048 242.104 26.1351 239.37 85.8678C236.635 145.601 185.995 191.807 126.262 189.072C66.5296 186.337 20.3236 135.697 23.0583 75.9646Z" fill="url(#paint2_linear_5481_90176)"/>
<path d="M-64.8253 115.35C-41.0814 105.221 -15.474 105.655 6.71169 114.515C51.1056 132.288 76.9371 121.299 94.8534 77.0069C103.778 54.7811 121.201 35.958 144.972 25.8174C192.497 5.57391 247.364 27.5395 267.579 74.9246C287.793 122.31 265.667 177.09 218.153 197.36C194.329 207.523 168.673 207.047 146.453 198.107C102.131 180.429 76.3488 191.459 58.4551 235.805C49.5082 257.978 32.0886 276.736 8.34476 286.866C-39.1429 307.124 -94.0093 285.159 -114.213 237.8C-134.416 190.441 -112.313 135.609 -64.8253 115.35Z" fill="url(#paint3_linear_5481_90176)"/>
<circle cx="150.675" cy="28.9059" r="69.6087" transform="rotate(-0.0800682 150.675 28.9059)" fill="url(#paint4_radial_5481_90176)"/>
</g>
</g>

</svg>
