<svg width="160" height="160" viewBox="0 0 160 160" xmlns="http://www.w3.org/2000/svg">
  <defs>
<radialGradient id="paint0_radial_5481_89774" cx="0" cy="0" r="1" gradientUnits="userSpaceOnUse" gradientTransform="translate(89.1031 15.8256) rotate(90) scale(60.5342)">
<stop offset="0.166667" stop-color="#FF709F"/>
<stop offset="1" stop-color="#FF709F" stop-opacity="0"/>
</radialGradient>
<linearGradient id="paint1_linear_5481_89774" x1="-24.5365" y1="134.772" x2="201.681" y2="-2.85735" gradientUnits="userSpaceOnUse">
<stop offset="0.0598452" stop-color="#8480FE"/>
<stop offset="0.599632" stop-color="#8480FE" stop-opacity="0"/>
</linearGradient>
<linearGradient id="paint2_linear_5481_89774" x1="157.003" y1="36.0583" x2="59.9561" y2="140.411" gradientUnits="userSpaceOnUse">
<stop stop-color="#EB1000"/>
<stop offset="1" stop-color="#EB1000" stop-opacity="0"/>
</linearGradient>
<linearGradient id="paint3_linear_5481_89774" x1="39.0647" y1="154.813" x2="211.102" y2="58.4396" gradientUnits="userSpaceOnUse">
<stop stop-color="#FC7D00" stop-opacity="0"/>
<stop offset="0.432292" stop-color="#FC7D00"/>
<stop offset="0.609375" stop-color="#FC7D00"/>
<stop offset="1" stop-color="#FC7D00" stop-opacity="0"/>
</linearGradient>
<radialGradient id="paint4_radial_5481_89774" cx="0" cy="0" r="1" gradientUnits="userSpaceOnUse" gradientTransform="translate(141.463 35.5668) rotate(90) scale(60.5342 60.5342)">
<stop offset="0.166667" stop-color="#EB1000"/>
<stop offset="1" stop-color="#EB1000" stop-opacity="0"/>
</radialGradient>
<clipPath id="clip0_5481_89774">
<rect x="10.4297" y="10.4287" width="139.142" height="139.142" rx="3.46124" fill="white"/>
</clipPath>
</defs>
<clipPath id="mask0_5481_89774">
<path fill-rule="evenodd" d="M54 45.5C54 31.1406 65.6406 19.5 80 19.5C94.3594 19.5 106 31.1406 106 45.5C106 47.7091 104.209 49.5 102 49.5C99.7909 49.5 98 47.7091 98 45.5C98 35.5588 89.9412 27.5 80 27.5C70.0588 27.5 62 35.5588 62 45.5V66.5H115.636C123.017 66.5 129 71.9565 129 78.6875V119.312C129 126.043 123.017 131.5 115.636 131.5H44.3636C36.9831 131.5 31 126.043 31 119.312V78.6875C31 71.9565 36.9831 66.5 44.3636 66.5H54V45.5ZM74.3464 100.653C74.8393 101.15 75.3972 101.577 76 101.924V109.5C76 111.709 77.7909 113.5 80 113.5C82.2091 113.5 84 111.709 84 109.5V101.924C84.6028 101.577 85.1607 101.15 85.6536 100.653C86.026 100.293 86.3594 99.8796 86.6536 99.4395C86.9466 99.013 87.1862 98.5462 87.3867 98.0664C87.5859 97.5729 87.7461 97.0801 87.8398 96.5599C87.9466 96.0534 88 95.5195 88 95C88 94.4798 87.9466 93.9466 87.8398 93.4395C87.7461 92.933 87.5859 92.4264 87.3867 91.9466C87.1862 91.4531 86.9466 91 86.6536 90.5599C86.3594 90.1198 86.026 89.7064 85.6536 89.3464C84.1732 87.8529 82.1068 87 80 87C77.8932 87 75.8268 87.8529 74.3464 89.3464C73.9727 89.7064 73.6393 90.1198 73.3464 90.5599C73.0664 91 72.8125 91.4531 72.6133 91.9466C72.4128 92.4264 72.2526 92.933 72.1602 93.4395C72.0534 93.9466 72 94.4798 72 95C72 95.5195 72.0534 96.0534 72.1602 96.5599C72.2526 97.0801 72.4128 97.5729 72.6133 98.0664C72.8125 98.5462 73.0664 99.013 73.3464 99.4395C73.6393 99.8796 73.9727 100.293 74.3464 100.653Z" fill="white"/>
</clipPath>
<g clip-path="url(#mask0_5481_89774)">
<g clip-path="url(#clip0_5481_89774)">
<rect x="10.4297" y="10.4287" width="139.142" height="139.142" rx="3.46124" fill="#FFECCF"/>
<rect width="139.142" height="139.142" transform="translate(10.4297 10.4287)" fill="#FFECCF"/>
<circle cx="89.1031" cy="15.8256" r="60.5342" transform="rotate(-0.0800682 89.1031 15.8256)" fill="url(#paint0_radial_5481_89774)"/>
<path d="M63.5389 -14.1499C52.8529 -20.7624 39.3139 -20.8029 28.5882 -14.2545L-78.6878 51.2448C-89.1941 57.6597 -89.2117 72.8014 -78.7196 79.2406L27.8475 144.647C38.5572 151.219 52.0963 151.211 62.7966 144.624L169.144 79.156C179.581 72.7305 179.6 57.6735 169.176 51.2238L63.5389 -14.1499Z" fill="url(#paint1_linear_5481_89774)"/>
<path d="M30.4832 76.4901C32.8614 24.5444 76.8996 -15.638 128.845 -13.2598C180.791 -10.8816 220.973 33.1566 218.595 85.1023C216.217 137.048 172.179 177.23 120.233 174.852C68.2874 172.474 28.105 128.436 30.4832 76.4901Z" fill="url(#paint2_linear_5481_89774)"/>
<path d="M-45.9429 110.741C-25.2944 101.932 -3.02521 102.309 16.2682 110.014C54.8748 125.47 77.3387 115.914 92.9194 77.3962C100.68 58.0679 115.832 41.6986 136.504 32.8799C177.834 15.2755 225.548 34.3775 243.127 75.5853C260.707 116.793 241.465 164.432 200.145 182.059C179.427 190.898 157.115 190.484 137.792 182.709C99.2482 167.336 76.8271 176.928 61.2661 215.493C53.4856 234.775 38.3369 251.088 17.6884 259.897C-23.6086 277.514 -71.3223 258.412 -88.892 217.228C-106.462 176.043 -87.2398 128.358 -45.9429 110.741Z" fill="url(#paint3_linear_5481_89774)"/>
<ellipse cx="141.463" cy="35.5668" rx="60.5342" ry="60.5342" transform="rotate(-0.0800682 141.463 35.5668)" fill="url(#paint4_radial_5481_89774)"/>
</g>
</g>

</svg>
