<svg width="160" height="160" viewBox="0 0 160 160" xmlns="http://www.w3.org/2000/svg">
  <defs>
<radialGradient id="paint0_radial_5481_90107" cx="0" cy="0" r="1" gradientUnits="userSpaceOnUse" gradientTransform="translate(90.4677 6.20574) rotate(90) scale(69.6088)">
<stop offset="0.166667" stop-color="#FF709F"/>
<stop offset="1" stop-color="#FF709F" stop-opacity="0"/>
</radialGradient>
<linearGradient id="paint1_linear_5481_90107" x1="-40.2086" y1="142.983" x2="219.921" y2="-15.2772" gradientUnits="userSpaceOnUse">
<stop offset="0.0598452" stop-color="#8480FE"/>
<stop offset="0.599632" stop-color="#8480FE" stop-opacity="0"/>
</linearGradient>
<linearGradient id="paint2_linear_5481_90107" x1="168.544" y1="29.4718" x2="56.9494" y2="149.467" gradientUnits="userSpaceOnUse">
<stop stop-color="#EB1000"/>
<stop offset="1" stop-color="#EB1000" stop-opacity="0"/>
</linearGradient>
<linearGradient id="paint3_linear_5481_90107" x1="32.9255" y1="166.029" x2="230.753" y2="55.2086" gradientUnits="userSpaceOnUse">
<stop stop-color="#FC7D00" stop-opacity="0"/>
<stop offset="0.432292" stop-color="#FC7D00"/>
<stop offset="0.609375" stop-color="#FC7D00"/>
<stop offset="1" stop-color="#FC7D00" stop-opacity="0"/>
</linearGradient>
<radialGradient id="paint4_radial_5481_90107" cx="0" cy="0" r="1" gradientUnits="userSpaceOnUse" gradientTransform="translate(150.675 28.9059) rotate(90) scale(69.6088)">
<stop offset="0.166667" stop-color="#EB1000"/>
<stop offset="1" stop-color="#EB1000" stop-opacity="0"/>
</radialGradient>
<clipPath id="clip0_5481_90107">
<rect width="160" height="160" rx="5.125" fill="white"/>
</clipPath>
</defs>
<clipPath id="mask0_5481_90107">
<path fill-rule="evenodd" d="M126.811 40.1856C127.359 42.3257 126.068 44.5047 123.928 45.0526L99.1369 51.3984C96.9968 51.9462 94.8177 50.6554 94.2699 48.5152C93.7221 46.3751 95.0129 44.1961 97.1531 43.6483L112.386 39.7491C112.305 39.694 112.225 39.6356 112.147 39.5738C103.294 32.5467 92.1005 28.3519 79.9161 28.3519C64.3532 28.3519 50.3943 35.1985 40.8779 46.0574C39.4219 47.7188 36.8947 47.8853 35.2333 46.4293C33.5719 44.9733 33.4054 42.4461 34.8614 40.7847C45.8322 28.2661 61.9523 20.3519 79.9161 20.3519C93.7825 20.3519 106.558 25.0694 116.71 32.9841L112.715 17.3786C112.167 15.2385 113.458 13.0595 115.598 12.5116C117.738 11.9638 119.917 13.2547 120.465 15.3948L126.811 40.1856ZM129.71 64.8002C129.051 62.6919 130.225 60.4479 132.333 59.7883C134.442 59.1286 136.686 60.303 137.345 62.4114C139.116 68.0694 140.068 74.0842 140.068 80.314C140.068 104.448 125.795 125.239 105.24 134.721L119.787 139.84C121.871 140.573 122.966 142.857 122.233 144.941C121.5 147.025 119.216 148.12 117.132 147.386L92.9923 138.893C90.9084 138.16 89.8134 135.876 90.5467 133.792L99.0399 109.653C99.7731 107.569 102.057 106.474 104.141 107.207C106.225 107.94 107.32 110.224 106.586 112.308L101.137 127.797C119.36 119.742 132.068 101.508 132.068 80.314C132.068 74.9037 131.242 69.694 129.71 64.8002ZM28.6885 73.3911L38.7535 85.7285C40.1499 87.4402 42.6697 87.6958 44.3814 86.2993C46.0932 84.9029 46.3488 82.3831 44.9523 80.6714L28.7759 60.8427C27.3794 59.1309 24.8597 58.8754 23.1479 60.2718L3.31923 76.4483C1.60747 77.8448 1.35188 80.3645 2.74835 82.0762C4.14483 83.788 6.66456 84.0436 8.37633 82.6471L20.7271 72.5712C19.2543 83.8048 20.9475 95.585 26.2777 106.529C34.1434 122.679 48.317 133.707 64.3754 138.089C66.5066 138.67 68.7057 137.414 69.2873 135.283C69.8688 133.151 68.6126 130.952 66.4814 130.371C52.5519 126.57 40.2844 117.018 33.4701 103.026C28.8146 93.4674 27.3611 83.1881 28.6885 73.3911Z" fill="white"/>
</clipPath>
<g clip-path="url(#mask0_5481_90107)">
<g clip-path="url(#clip0_5481_90107)">
<rect width="160" height="160" rx="5.125" fill="#FFECCF"/>
<rect width="160" height="160" fill="#FFECCF"/>
<circle cx="90.4677" cy="6.20574" r="69.6087" transform="rotate(-0.0800682 90.4677 6.20574)" fill="url(#paint0_radial_5481_90107)"/>
<path d="M61.0698 -28.2626C48.782 -35.8663 33.2133 -35.9129 20.8798 -28.3828L-102.478 46.9353C-114.559 54.3119 -114.579 71.7234 -102.514 79.1279L20.0281 154.339C32.3432 161.896 47.9119 161.887 60.2163 154.312L182.506 79.0306C194.507 71.6419 194.529 54.3277 182.543 46.9111L61.0698 -28.2626Z" fill="url(#paint1_linear_5481_90107)"/>
<path d="M23.0583 75.9646C25.793 16.2319 76.4328 -29.9741 136.166 -27.2395C195.898 -24.5048 242.104 26.1351 239.37 85.8678C236.635 145.601 185.995 191.807 126.262 189.072C66.5296 186.337 20.3236 135.697 23.0583 75.9646Z" fill="url(#paint2_linear_5481_90107)"/>
<path d="M-64.8253 115.35C-41.0814 105.221 -15.474 105.655 6.71169 114.515C51.1056 132.288 76.9371 121.299 94.8534 77.0069C103.778 54.7811 121.201 35.958 144.972 25.8174C192.497 5.57391 247.364 27.5395 267.579 74.9246C287.793 122.31 265.667 177.09 218.153 197.36C194.329 207.523 168.673 207.047 146.453 198.107C102.131 180.429 76.3488 191.459 58.4551 235.805C49.5082 257.978 32.0886 276.736 8.34476 286.866C-39.1429 307.124 -94.0093 285.159 -114.213 237.8C-134.416 190.441 -112.313 135.609 -64.8253 115.35Z" fill="url(#paint3_linear_5481_90107)"/>
<circle cx="150.675" cy="28.9059" r="69.6087" transform="rotate(-0.0800682 150.675 28.9059)" fill="url(#paint4_radial_5481_90107)"/>
</g>
</g>

</svg>
