<svg width="48" height="48" viewBox="0 0 48 48" xmlns="http://www.w3.org/2000/svg">
  <defs>
<radialGradient id="paint0_radial_5481_99381" cx="0" cy="0" r="1" gradientUnits="userSpaceOnUse" gradientTransform="translate(18.5333 17.4892) rotate(90) scale(17.4892 18.5333)">
<stop offset="0.166667" stop-color="#FF709F"/>
<stop offset="1" stop-color="#FF709F" stop-opacity="0"/>
</radialGradient>
<linearGradient id="paint1_linear_5481_99381" x1="-8.60281" y1="41.325" x2="58.4299" y2="-1.89189" gradientUnits="userSpaceOnUse">
<stop offset="0.0598452" stop-color="#8480FE"/>
<stop offset="0.599632" stop-color="#8480FE" stop-opacity="0"/>
</linearGradient>
<linearGradient id="paint2_linear_5481_99381" x1="46.9767" y1="12.8048" x2="19.1026" y2="44.5667" gradientUnits="userSpaceOnUse">
<stop stop-color="#EB1000"/>
<stop offset="1" stop-color="#EB1000" stop-opacity="0"/>
</linearGradient>
<linearGradient id="paint3_linear_5481_99381" x1="10.8705" y1="47.1155" x2="62.0391" y2="16.7403" gradientUnits="userSpaceOnUse">
<stop stop-color="#FC7D00" stop-opacity="0"/>
<stop offset="0.432292" stop-color="#FC7D00"/>
<stop offset="0.609375" stop-color="#FC7D00"/>
<stop offset="1" stop-color="#FC7D00" stop-opacity="0"/>
</linearGradient>
<radialGradient id="paint4_radial_5481_99381" cx="0" cy="0" r="1" gradientUnits="userSpaceOnUse" gradientTransform="translate(18.5333 17.4892) rotate(90) scale(17.4892 18.5333)">
<stop offset="0.166667" stop-color="#EB1000"/>
<stop offset="1" stop-color="#EB1000" stop-opacity="0"/>
</radialGradient>
<clipPath id="clip0_5481_99381">
<rect x="2.10156" y="5.40039" width="42.6" height="40.2" rx="1.03837" fill="white"/>
</clipPath>
</defs>
<clipPath id="mask0_5481_99381">
<path fill-rule="evenodd" d="M32.9775 9.64784C33.8355 8.78984 33.8355 7.40384 32.9775 6.54584C32.1195 5.68784 30.7335 5.68784 29.8755 6.54584C29.0175 7.40384 29.0175 8.78984 29.8755 9.64784C30.7335 10.5058 32.1195 10.5058 32.9775 9.64784ZM19.4411 21.6359C18.9221 22.0499 18.8381 22.8059 19.2521 23.3219C19.4891 23.6189 19.8371 23.7719 20.1911 23.7719C20.4551 23.7719 20.7191 23.6849 20.9381 23.5079C26.7041 18.9029 26.4401 14.0699 26.4281 13.8659C26.3831 13.2089 25.8191 12.7199 25.1621 12.7559C24.5051 12.7949 24.0011 13.3619 24.0341 14.0189C24.0401 14.1749 24.1631 17.8619 19.4411 21.6329V21.6359ZM29.6416 30.5968C29.3326 30.0118 29.5576 29.2858 30.1426 28.9768H30.1456C30.7306 28.6678 31.4566 28.8928 31.7656 29.4778C33.4846 32.7358 32.9326 34.3318 32.1676 35.0968C31.9186 35.3458 31.5826 35.5708 31.1326 35.7028L10.3576 43.0828C9.95556 43.2268 9.54456 43.2958 9.13956 43.2958C8.20656 43.2958 7.29756 42.9268 6.60756 42.2368C5.61756 41.2468 5.29356 39.8098 5.76156 38.4868L13.0576 17.9278C13.0996 17.7718 13.1536 17.6218 13.2226 17.4778C13.3576 17.1418 13.5436 16.8778 13.7476 16.6738C14.5186 15.9028 16.1296 15.3538 19.4266 17.1088C20.0116 17.4208 20.2336 18.1468 19.9216 18.7318C19.6096 19.3168 18.8836 19.5388 18.2986 19.2268C16.4416 18.2398 15.5896 18.2998 15.4426 18.3748V18.3808L15.3886 18.5338C15.2686 19.4458 16.6486 22.9948 21.2476 27.5938C24.7336 31.0798 27.6136 32.7148 29.2096 33.2458C29.8276 33.3718 30.2656 33.4018 30.4876 33.3718C30.5446 33.2068 30.5746 32.3668 29.6416 30.5968ZM23.2484 26.8288C22.9394 26.8288 22.6334 26.7119 22.3994 26.4778C21.9314 26.0069 21.9314 25.2479 22.3994 24.7799L27.0824 20.0968C27.5534 19.6288 28.3124 19.6288 28.7804 20.0968C29.2484 20.5678 29.2484 21.3269 28.7804 21.7949L24.0974 26.4778C23.8634 26.7119 23.5574 26.8288 23.2484 26.8288ZM25.3634 27.9389C29.9684 22.1729 34.8014 22.4369 35.0054 22.4489L35.0024 22.4519C35.6654 22.4969 36.1634 23.0699 36.1184 23.7299C36.0734 24.3869 35.5064 24.8879 34.8494 24.8459C34.6724 24.8399 30.9974 24.7348 27.2384 29.4389C27.0014 29.7359 26.6504 29.8889 26.2994 29.8889C26.0384 29.8889 25.7744 29.8019 25.5524 29.6249C25.0334 29.2109 24.9494 28.4578 25.3634 27.9389ZM37.5132 27.6508C38.3712 26.7928 39.7572 26.7928 40.6152 27.6508C41.4732 28.5088 41.4732 29.8948 40.6152 30.7528C39.7572 31.6108 38.3712 31.6108 37.5132 30.7528C36.6552 29.8948 36.6552 28.5088 37.5132 27.6508ZM16.9068 8.45846L16.3307 8.88015C15.7959 9.27157 15.6796 10.0224 16.071 10.5572L18.4151 13.7601C18.8066 14.2949 19.5574 14.4111 20.0922 14.0197L20.6684 13.598C21.2032 13.2066 21.3194 12.4557 20.928 11.9209L18.5839 8.71809C18.1925 8.18328 17.4416 8.06704 16.9068 8.45846ZM32.1699 16.4553L36.1137 16.0088C36.7723 15.9342 37.3665 16.4076 37.4411 17.0661L37.5214 17.7756C37.596 18.4341 37.1226 19.0284 36.4641 19.103L32.5203 19.5495C31.8617 19.6241 31.2674 19.1507 31.1929 18.4922L31.1126 17.7827C31.038 17.1242 31.5114 16.5299 32.1699 16.4553Z" fill="white"/>
</clipPath>
<g clip-path="url(#mask0_5481_99381)">
<g clip-path="url(#clip0_5481_99381)">
<rect x="2.10156" y="5.40039" width="42.6" height="40.2" rx="1.03837" fill="#FFECCF"/>
<rect width="42.6" height="40.2" transform="translate(2.10156 5.40039)" fill="#FFECCF"/>
<ellipse cx="18.5333" cy="17.4892" rx="18.5333" ry="17.4892" transform="matrix(0.999999 -0.00131872 0.00148088 0.999999 7.62891 -10.5049)" fill="url(#paint0_radial_5481_99381)"/>
<path d="M18.3626 -1.70057C15.0909 -3.611 10.9458 -3.6227 7.66198 -1.73077L-25.1819 17.1929C-28.3986 19.0463 -28.404 23.4209 -25.1917 25.2813L7.43522 44.1781C10.7141 46.0769 14.8593 46.0746 18.1353 44.1714L50.695 25.2568C53.8903 23.4004 53.8961 19.0502 50.7048 17.1868L18.3626 -1.70057Z" fill="url(#paint1_linear_5481_99381)"/>
<path d="M8.24111 24.4862C8.96922 9.47831 22.4521 -2.13096 38.3559 -1.44386C54.2598 -0.75677 66.5621 11.9665 65.834 26.9743C65.1059 41.9822 51.623 53.5914 35.7192 52.9043C19.8153 52.2173 7.513 39.494 8.24111 24.4862Z" fill="url(#paint2_linear_5481_99381)"/>
<path d="M-15.1557 34.3825C-8.83388 31.8375 -2.01589 31.9466 3.89104 34.1726C15.7109 38.6381 22.5885 35.8772 27.3588 24.7488C29.7349 19.1646 34.3739 14.4353 40.7028 11.8874C53.3565 6.80124 67.9646 12.3201 73.3468 24.2256C78.7291 36.1311 72.838 49.8946 60.1873 54.9874C53.8442 57.5409 47.0131 57.4213 41.0972 55.1753C29.2964 50.7336 22.4319 53.505 17.6677 64.6468C15.2856 70.2177 10.6476 74.9308 4.32585 77.4758C-8.31775 82.5658 -22.9259 77.0469 -28.3051 65.1481C-33.6843 53.2492 -27.7993 39.4724 -15.1557 34.3825Z" fill="url(#paint3_linear_5481_99381)"/>
<ellipse cx="18.5333" cy="17.4892" rx="18.5333" ry="17.4892" transform="matrix(0.999999 -0.00131872 0.00148088 0.999999 23.6602 -4.80176)" fill="url(#paint4_radial_5481_99381)"/>
</g>
</g>

</svg>
