<svg width="160" height="160" viewBox="0 0 160 160" xmlns="http://www.w3.org/2000/svg">
  <defs>
<radialGradient id="paint0_radial_5481_89972" cx="0" cy="0" r="1" gradientUnits="userSpaceOnUse" gradientTransform="translate(90.4677 6.20574) rotate(90) scale(69.6088)">
<stop offset="0.166667" stop-color="#FF709F"/>
<stop offset="1" stop-color="#FF709F" stop-opacity="0"/>
</radialGradient>
<linearGradient id="paint1_linear_5481_89972" x1="-40.2086" y1="142.983" x2="219.921" y2="-15.2772" gradientUnits="userSpaceOnUse">
<stop offset="0.0598452" stop-color="#8480FE"/>
<stop offset="0.599632" stop-color="#8480FE" stop-opacity="0"/>
</linearGradient>
<linearGradient id="paint2_linear_5481_89972" x1="168.544" y1="29.4718" x2="56.9494" y2="149.467" gradientUnits="userSpaceOnUse">
<stop stop-color="#EB1000"/>
<stop offset="1" stop-color="#EB1000" stop-opacity="0"/>
</linearGradient>
<linearGradient id="paint3_linear_5481_89972" x1="32.9255" y1="166.029" x2="230.753" y2="55.2086" gradientUnits="userSpaceOnUse">
<stop stop-color="#FC7D00" stop-opacity="0"/>
<stop offset="0.432292" stop-color="#FC7D00"/>
<stop offset="0.609375" stop-color="#FC7D00"/>
<stop offset="1" stop-color="#FC7D00" stop-opacity="0"/>
</linearGradient>
<radialGradient id="paint4_radial_5481_89972" cx="0" cy="0" r="1" gradientUnits="userSpaceOnUse" gradientTransform="translate(150.675 28.9059) rotate(90) scale(69.6088)">
<stop offset="0.166667" stop-color="#EB1000"/>
<stop offset="1" stop-color="#EB1000" stop-opacity="0"/>
</radialGradient>
<clipPath id="clip0_5481_89972">
<rect width="160" height="160" rx="5.125" fill="white"/>
</clipPath>
</defs>
<clipPath id="mask0_5481_89972">
<clipPath id="path-1-outside-1_5481_89972">
<rect fill="white" x="30.0703" y="30.0693" width="100" height="100"/>
<path fill-rule="evenodd" d="M37.3203 32.0693C34.4208 32.0693 32.0703 34.4198 32.0703 37.3193V54.3917C32.0703 57.2912 34.4208 59.6417 37.3203 59.6417C40.2198 59.6417 42.5703 57.2912 42.5703 54.3917V42.5693H74.7533V117.43H62.9281C60.0286 117.43 57.6781 119.78 57.6781 122.68C57.6781 125.579 60.0286 127.93 62.9281 127.93H79.8919C79.9289 127.931 79.9661 127.931 80.0033 127.931C80.0406 127.931 80.0777 127.931 80.1148 127.93H97.0727C99.9722 127.93 102.323 125.579 102.323 122.68C102.323 119.78 99.9722 117.43 97.0727 117.43H85.2533V42.5693H117.431V54.3917C117.431 57.2912 119.782 59.6417 122.681 59.6417C125.581 59.6417 127.931 57.2912 127.931 54.3917V37.4065C127.932 37.3775 127.932 37.3485 127.932 37.3193C127.932 34.4198 125.581 32.0693 122.682 32.0693H122.681H80.0033H37.3203Z"/>
</clipPath>
<path fill-rule="evenodd" d="M37.3203 32.0693C34.4208 32.0693 32.0703 34.4198 32.0703 37.3193V54.3917C32.0703 57.2912 34.4208 59.6417 37.3203 59.6417C40.2198 59.6417 42.5703 57.2912 42.5703 54.3917V42.5693H74.7533V117.43H62.9281C60.0286 117.43 57.6781 119.78 57.6781 122.68C57.6781 125.579 60.0286 127.93 62.9281 127.93H79.8919C79.9289 127.931 79.9661 127.931 80.0033 127.931C80.0406 127.931 80.0777 127.931 80.1148 127.93H97.0727C99.9722 127.93 102.323 125.579 102.323 122.68C102.323 119.78 99.9722 117.43 97.0727 117.43H85.2533V42.5693H117.431V54.3917C117.431 57.2912 119.782 59.6417 122.681 59.6417C125.581 59.6417 127.931 57.2912 127.931 54.3917V37.4065C127.932 37.3775 127.932 37.3485 127.932 37.3193C127.932 34.4198 125.581 32.0693 122.682 32.0693H122.681H80.0033H37.3203Z" fill="#292929"/>
<path d="M42.5703 42.5693V40.5693C41.4657 40.5693 40.5703 41.4648 40.5703 42.5693H42.5703ZM74.7533 42.5693H76.7533C76.7533 41.4648 75.8579 40.5693 74.7533 40.5693V42.5693ZM74.7533 117.43V119.43C75.8579 119.43 76.7533 118.534 76.7533 117.43H74.7533ZM79.8919 127.93L79.9335 125.93C79.9196 125.93 79.9057 125.93 79.8919 125.93V127.93ZM80.1148 127.93V125.93C80.1009 125.93 80.0871 125.93 80.0732 125.93L80.1148 127.93ZM85.2533 117.43H83.2533C83.2533 118.534 84.1488 119.43 85.2533 119.43V117.43ZM85.2533 42.5693V40.5693C84.1488 40.5693 83.2533 41.4648 83.2533 42.5693H85.2533ZM117.431 42.5693H119.431C119.431 41.4648 118.536 40.5693 117.431 40.5693V42.5693ZM127.931 37.4065L125.932 37.3739C125.931 37.3848 125.931 37.3957 125.931 37.4065H127.931ZM34.0703 37.3193C34.0703 35.5244 35.5254 34.0693 37.3203 34.0693V30.0693C33.3162 30.0693 30.0703 33.3153 30.0703 37.3193H34.0703ZM34.0703 54.3917V37.3193H30.0703V54.3917H34.0703ZM37.3203 57.6417C35.5254 57.6417 34.0703 56.1866 34.0703 54.3917H30.0703C30.0703 58.3957 33.3162 61.6417 37.3203 61.6417V57.6417ZM40.5703 54.3917C40.5703 56.1866 39.1152 57.6417 37.3203 57.6417V61.6417C41.3244 61.6417 44.5703 58.3957 44.5703 54.3917H40.5703ZM40.5703 42.5693V54.3917H44.5703V42.5693H40.5703ZM74.7533 40.5693H42.5703V44.5693H74.7533V40.5693ZM76.7533 117.43V42.5693H72.7533V117.43H76.7533ZM62.9281 119.43H74.7533V115.43H62.9281V119.43ZM59.6781 122.68C59.6781 120.885 61.1332 119.43 62.9281 119.43V115.43C58.924 115.43 55.6781 118.676 55.6781 122.68H59.6781ZM62.9281 125.93C61.1332 125.93 59.6781 124.475 59.6781 122.68H55.6781C55.6781 126.684 58.924 129.93 62.9281 129.93V125.93ZM79.8919 125.93H62.9281V129.93H79.8919V125.93ZM80.0033 125.931C79.98 125.931 79.9567 125.931 79.9335 125.93L79.8503 129.929C79.9012 129.93 79.9522 129.931 80.0033 129.931V125.931ZM80.0732 125.93C80.05 125.931 80.0267 125.931 80.0033 125.931V129.931C80.0545 129.931 80.1055 129.93 80.1564 129.929L80.0732 125.93ZM97.0727 125.93H80.1148V129.93H97.0727V125.93ZM100.323 122.68C100.323 124.475 98.8677 125.93 97.0727 125.93V129.93C101.077 129.93 104.323 126.684 104.323 122.68H100.323ZM97.0727 119.43C98.8677 119.43 100.323 120.885 100.323 122.68H104.323C104.323 118.676 101.077 115.43 97.0727 115.43V119.43ZM85.2533 119.43H97.0727V115.43H85.2533V119.43ZM83.2533 42.5693V117.43H87.2533V42.5693H83.2533ZM117.431 40.5693H85.2533V44.5693H117.431V40.5693ZM119.431 54.3917V42.5693H115.431V54.3917H119.431ZM122.681 57.6417C120.886 57.6417 119.431 56.1866 119.431 54.3917H115.431C115.431 58.3957 118.677 61.6417 122.681 61.6417V57.6417ZM125.931 54.3917C125.931 56.1866 124.476 57.6417 122.681 57.6417V61.6417C126.685 61.6417 129.931 58.3957 129.931 54.3917H125.931ZM125.931 37.4065V54.3917H129.931V37.4065H125.931ZM125.932 37.3193C125.932 37.3376 125.932 37.3558 125.932 37.3739L129.931 37.4391C129.932 37.3992 129.932 37.3593 129.932 37.3193H125.932ZM122.682 34.0693C124.477 34.0693 125.932 35.5244 125.932 37.3193H129.932C129.932 33.3153 126.686 30.0693 122.682 30.0693V34.0693ZM122.681 34.0693H122.682V30.0693H122.681V34.0693ZM80.0033 34.0693H122.681V30.0693H80.0033V34.0693ZM37.3203 34.0693H80.0033V30.0693H37.3203V34.0693Z" fill="#292929" clip-path="url(#path-1-outside-1_5481_89972)"/>
</clipPath>
<g clip-path="url(#mask0_5481_89972)">
<g clip-path="url(#clip0_5481_89972)">
<rect width="160" height="160" rx="5.125" fill="#FFECCF"/>
<rect width="160" height="160" fill="#FFECCF"/>
<circle cx="90.4677" cy="6.20574" r="69.6087" transform="rotate(-0.0800682 90.4677 6.20574)" fill="url(#paint0_radial_5481_89972)"/>
<path d="M61.0698 -28.2626C48.782 -35.8663 33.2133 -35.9129 20.8798 -28.3828L-102.478 46.9353C-114.559 54.3119 -114.579 71.7234 -102.514 79.1279L20.0281 154.339C32.3432 161.896 47.9119 161.887 60.2163 154.312L182.506 79.0306C194.507 71.6419 194.529 54.3277 182.543 46.9111L61.0698 -28.2626Z" fill="url(#paint1_linear_5481_89972)"/>
<path d="M23.0583 75.9646C25.793 16.2319 76.4328 -29.9741 136.166 -27.2395C195.898 -24.5048 242.104 26.1351 239.37 85.8678C236.635 145.601 185.995 191.807 126.262 189.072C66.5296 186.337 20.3236 135.697 23.0583 75.9646Z" fill="url(#paint2_linear_5481_89972)"/>
<path d="M-64.8253 115.35C-41.0814 105.221 -15.474 105.655 6.71169 114.515C51.1056 132.288 76.9371 121.299 94.8534 77.0069C103.778 54.7811 121.201 35.958 144.972 25.8174C192.497 5.57391 247.364 27.5395 267.579 74.9246C287.793 122.31 265.667 177.09 218.153 197.36C194.329 207.523 168.673 207.047 146.453 198.107C102.131 180.429 76.3488 191.459 58.4551 235.805C49.5082 257.978 32.0886 276.736 8.34476 286.866C-39.1429 307.124 -94.0093 285.159 -114.213 237.8C-134.416 190.441 -112.313 135.609 -64.8253 115.35Z" fill="url(#paint3_linear_5481_89972)"/>
<circle cx="150.675" cy="28.9059" r="69.6087" transform="rotate(-0.0800682 150.675 28.9059)" fill="url(#paint4_radial_5481_89972)"/>
</g>
</g>

</svg>
