<svg width="160" height="160" viewBox="0 0 160 160" xmlns="http://www.w3.org/2000/svg">
  <defs>
<radialGradient id="paint0_radial_5481_90034" cx="0" cy="0" r="1" gradientUnits="userSpaceOnUse" gradientTransform="translate(90.4677 6.20574) rotate(90) scale(69.6088)">
<stop offset="0.166667" stop-color="#FF709F"/>
<stop offset="1" stop-color="#FF709F" stop-opacity="0"/>
</radialGradient>
<linearGradient id="paint1_linear_5481_90034" x1="-40.2086" y1="142.983" x2="219.921" y2="-15.2772" gradientUnits="userSpaceOnUse">
<stop offset="0.0598452" stop-color="#8480FE"/>
<stop offset="0.599632" stop-color="#8480FE" stop-opacity="0"/>
</linearGradient>
<linearGradient id="paint2_linear_5481_90034" x1="168.544" y1="29.4718" x2="56.9494" y2="149.467" gradientUnits="userSpaceOnUse">
<stop stop-color="#EB1000"/>
<stop offset="1" stop-color="#EB1000" stop-opacity="0"/>
</linearGradient>
<linearGradient id="paint3_linear_5481_90034" x1="32.9255" y1="166.029" x2="230.753" y2="55.2086" gradientUnits="userSpaceOnUse">
<stop stop-color="#FC7D00" stop-opacity="0"/>
<stop offset="0.432292" stop-color="#FC7D00"/>
<stop offset="0.609375" stop-color="#FC7D00"/>
<stop offset="1" stop-color="#FC7D00" stop-opacity="0"/>
</linearGradient>
<radialGradient id="paint4_radial_5481_90034" cx="0" cy="0" r="1" gradientUnits="userSpaceOnUse" gradientTransform="translate(150.675 28.9059) rotate(90) scale(69.6088)">
<stop offset="0.166667" stop-color="#EB1000"/>
<stop offset="1" stop-color="#EB1000" stop-opacity="0"/>
</radialGradient>
<clipPath id="clip0_5481_90034">
<rect width="160" height="160" rx="5.125" fill="white"/>
</clipPath>
</defs>
<clipPath id="mask0_5481_90034">
<path fill-rule="evenodd" d="M136.004 30.8057C136.004 34.0993 134.006 36.9263 131.156 38.1412C128.341 34.6747 124.485 32.0883 120.063 30.859L120.062 30.8057C120.062 26.4036 123.631 22.835 128.033 22.835C132.435 22.835 136.004 26.4036 136.004 30.8057ZM128.031 51.8914C128.031 57.6774 124.477 62.6334 119.433 64.6959C115.589 57.421 108.714 51.9945 100.49 50.0963C101.37 43.3074 107.174 38.0635 114.203 38.0635C121.84 38.0635 128.031 44.2544 128.031 51.8914ZM102.427 59.1437C105.469 60.4977 108.126 62.5622 110.185 65.1265C113.04 68.6809 114.748 73.1955 114.748 78.1091C114.748 89.5684 105.458 98.8579 93.9989 98.8579C93.7635 98.8579 93.529 98.854 93.2955 98.8462C91.119 87.396 83.9357 77.7194 74.1095 72.1803C76.6605 63.6099 84.5998 57.3604 93.9989 57.3604C96.9997 57.3604 99.8518 57.9974 102.427 59.1437ZM85.9825 106.172C85.9825 123.289 72.1063 137.165 54.9893 137.165C37.8722 137.165 23.9961 123.289 23.9961 106.172C23.9961 89.0548 37.8722 75.1787 54.9893 75.1787C61.9261 75.1787 68.3307 77.4577 73.4951 81.3077C73.4951 81.3077 73.4951 81.3076 73.4951 81.3076C78.5703 85.0911 82.4479 90.3918 84.4561 96.538C84.456 96.538 84.456 96.538 84.4559 96.538C85.4467 99.5704 85.9825 102.809 85.9825 106.172Z" fill="white"/>
</clipPath>
<g clip-path="url(#mask0_5481_90034)">
<g clip-path="url(#clip0_5481_90034)">
<rect width="160" height="160" rx="5.125" fill="#FFECCF"/>
<rect width="160" height="160" fill="#FFECCF"/>
<circle cx="90.4677" cy="6.20574" r="69.6087" transform="rotate(-0.0800682 90.4677 6.20574)" fill="url(#paint0_radial_5481_90034)"/>
<path d="M61.0698 -28.2626C48.782 -35.8663 33.2133 -35.9129 20.8798 -28.3828L-102.478 46.9353C-114.559 54.3119 -114.579 71.7234 -102.514 79.1279L20.0281 154.339C32.3432 161.896 47.9119 161.887 60.2163 154.312L182.506 79.0306C194.507 71.6419 194.529 54.3277 182.543 46.9111L61.0698 -28.2626Z" fill="url(#paint1_linear_5481_90034)"/>
<path d="M23.0583 75.9646C25.793 16.2319 76.4328 -29.9741 136.166 -27.2395C195.898 -24.5048 242.104 26.1351 239.37 85.8678C236.635 145.601 185.995 191.807 126.262 189.072C66.5296 186.337 20.3236 135.697 23.0583 75.9646Z" fill="url(#paint2_linear_5481_90034)"/>
<path d="M-64.8253 115.35C-41.0814 105.221 -15.474 105.655 6.71169 114.515C51.1056 132.288 76.9371 121.299 94.8534 77.0069C103.778 54.7811 121.201 35.958 144.972 25.8174C192.497 5.57391 247.364 27.5395 267.579 74.9246C287.793 122.31 265.667 177.09 218.153 197.36C194.329 207.523 168.673 207.047 146.453 198.107C102.131 180.429 76.3488 191.459 58.4551 235.805C49.5082 257.978 32.0886 276.736 8.34476 286.866C-39.1429 307.124 -94.0093 285.159 -114.213 237.8C-134.416 190.441 -112.313 135.609 -64.8253 115.35Z" fill="url(#paint3_linear_5481_90034)"/>
<circle cx="150.675" cy="28.9059" r="69.6087" transform="rotate(-0.0800682 150.675 28.9059)" fill="url(#paint4_radial_5481_90034)"/>
</g>
</g>

</svg>
