<svg width="160" height="160" viewBox="0 0 160 160" xmlns="http://www.w3.org/2000/svg">
  <defs>
<radialGradient id="paint0_radial_5481_90058" cx="0" cy="0" r="1" gradientUnits="userSpaceOnUse" gradientTransform="translate(90.4677 6.20574) rotate(90) scale(69.6088)">
<stop offset="0.166667" stop-color="#FF709F"/>
<stop offset="1" stop-color="#FF709F" stop-opacity="0"/>
</radialGradient>
<linearGradient id="paint1_linear_5481_90058" x1="-40.2086" y1="142.983" x2="219.921" y2="-15.2772" gradientUnits="userSpaceOnUse">
<stop offset="0.0598452" stop-color="#8480FE"/>
<stop offset="0.599632" stop-color="#8480FE" stop-opacity="0"/>
</linearGradient>
<linearGradient id="paint2_linear_5481_90058" x1="168.544" y1="29.4718" x2="56.9494" y2="149.467" gradientUnits="userSpaceOnUse">
<stop stop-color="#EB1000"/>
<stop offset="1" stop-color="#EB1000" stop-opacity="0"/>
</linearGradient>
<linearGradient id="paint3_linear_5481_90058" x1="32.9255" y1="166.029" x2="230.753" y2="55.2086" gradientUnits="userSpaceOnUse">
<stop stop-color="#FC7D00" stop-opacity="0"/>
<stop offset="0.432292" stop-color="#FC7D00"/>
<stop offset="0.609375" stop-color="#FC7D00"/>
<stop offset="1" stop-color="#FC7D00" stop-opacity="0"/>
</linearGradient>
<radialGradient id="paint4_radial_5481_90058" cx="0" cy="0" r="1" gradientUnits="userSpaceOnUse" gradientTransform="translate(150.675 28.9059) rotate(90) scale(69.6088)">
<stop offset="0.166667" stop-color="#EB1000"/>
<stop offset="1" stop-color="#EB1000" stop-opacity="0"/>
</radialGradient>
<clipPath id="clip0_5481_90058">
<rect width="160" height="160" rx="5.125" fill="white"/>
</clipPath>
</defs>
<clipPath id="mask0_5481_90058">
<path fill-rule="evenodd" d="M30.4435 50.9499L76.9759 31.9417C78.9149 31.1496 81.0873 31.1496 83.0264 31.9417L129.559 50.9499C136.192 53.6594 136.192 63.0522 129.559 65.7618L125.475 67.4299L125.475 90.6135C125.475 93.6182 124.672 97.9497 121.639 102.466C118.599 106.994 113.474 111.479 105.194 115.028C98.5206 117.887 90.8257 118.987 84.1091 119.236C77.3795 119.487 71.2943 118.895 67.6729 118.149C65.5091 117.703 64.1162 115.588 64.5617 113.425C65.0071 111.261 67.1223 109.868 69.2861 110.313C72.1931 110.912 77.6287 111.472 83.812 111.242C90.0083 111.012 96.6184 109.999 102.042 107.674C109.153 104.627 112.956 101.047 114.997 98.0071C117.045 94.9563 117.475 92.2171 117.475 90.6135L117.475 70.6979L83.0264 84.7699C81.0873 85.562 78.9149 85.562 76.9759 84.7699L53.9299 75.3558C54.2195 75.0359 54.5632 74.7604 54.9521 74.5444L81.9434 59.5492C83.8745 58.4764 84.5703 56.0412 83.4974 54.11C82.4246 52.1789 79.9894 51.4831 78.0582 52.556L51.067 67.5511C49.0533 68.6699 47.4438 70.3192 46.3739 72.2692L30.4435 65.7617C23.8105 63.0522 23.8105 53.6594 30.4435 50.9499ZM44.8947 111.609V78.041C44.8947 75.9866 45.4197 74.0083 46.3739 72.2692L53.9299 75.3558C53.2737 76.0804 52.8947 77.0332 52.8947 78.041V110.719C55.7118 115.67 58.6066 122.006 59.1734 127.381C59.2325 127.791 59.2631 128.209 59.2631 128.634C59.2631 133.724 54.8787 137.85 49.4704 137.85C44.0621 137.85 39.6777 133.724 39.6777 128.634C39.6777 128.292 39.6975 127.955 39.7359 127.623C40.1576 122.513 42.5 116.491 44.8947 111.609Z" fill="white"/>
</clipPath>
<g clip-path="url(#mask0_5481_90058)">
<g clip-path="url(#clip0_5481_90058)">
<rect width="160" height="160" rx="5.125" fill="#FFECCF"/>
<rect width="160" height="160" fill="#FFECCF"/>
<circle cx="90.4677" cy="6.20574" r="69.6087" transform="rotate(-0.0800682 90.4677 6.20574)" fill="url(#paint0_radial_5481_90058)"/>
<path d="M61.0698 -28.2626C48.782 -35.8663 33.2133 -35.9129 20.8798 -28.3828L-102.478 46.9353C-114.559 54.3119 -114.579 71.7234 -102.514 79.1279L20.0281 154.339C32.3432 161.896 47.9119 161.887 60.2163 154.312L182.506 79.0306C194.507 71.6419 194.529 54.3277 182.543 46.9111L61.0698 -28.2626Z" fill="url(#paint1_linear_5481_90058)"/>
<path d="M23.0583 75.9646C25.793 16.2319 76.4328 -29.9741 136.166 -27.2395C195.898 -24.5048 242.104 26.1351 239.37 85.8678C236.635 145.601 185.995 191.807 126.262 189.072C66.5296 186.337 20.3236 135.697 23.0583 75.9646Z" fill="url(#paint2_linear_5481_90058)"/>
<path d="M-64.8253 115.35C-41.0814 105.221 -15.474 105.655 6.71169 114.515C51.1056 132.288 76.9371 121.299 94.8534 77.0069C103.778 54.7811 121.201 35.958 144.972 25.8174C192.497 5.57391 247.364 27.5395 267.579 74.9246C287.793 122.31 265.667 177.09 218.153 197.36C194.329 207.523 168.673 207.047 146.453 198.107C102.131 180.429 76.3488 191.459 58.4551 235.805C49.5082 257.978 32.0886 276.736 8.34476 286.866C-39.1429 307.124 -94.0093 285.159 -114.213 237.8C-134.416 190.441 -112.313 135.609 -64.8253 115.35Z" fill="url(#paint3_linear_5481_90058)"/>
<circle cx="150.675" cy="28.9059" r="69.6087" transform="rotate(-0.0800682 150.675 28.9059)" fill="url(#paint4_radial_5481_90058)"/>
</g>
</g>

</svg>
