<svg width="48" height="48" viewBox="0 0 48 48" xmlns="http://www.w3.org/2000/svg">
  <defs>
<radialGradient id="paint0_radial_5481_99496" cx="0" cy="0" r="1" gradientUnits="userSpaceOnUse" gradientTransform="translate(27.1423 1.86222) rotate(90) scale(20.8826)">
<stop offset="0.166667" stop-color="#FF709F"/>
<stop offset="1" stop-color="#FF709F" stop-opacity="0"/>
</radialGradient>
<linearGradient id="paint1_linear_5481_99496" x1="-12.0622" y1="42.8952" x2="65.9766" y2="-4.58296" gradientUnits="userSpaceOnUse">
<stop offset="0.0598452" stop-color="#8480FE"/>
<stop offset="0.599632" stop-color="#8480FE" stop-opacity="0"/>
</linearGradient>
<linearGradient id="paint2_linear_5481_99496" x1="50.5621" y1="8.84155" x2="17.0836" y2="44.8401" gradientUnits="userSpaceOnUse">
<stop stop-color="#EB1000"/>
<stop offset="1" stop-color="#EB1000" stop-opacity="0"/>
</linearGradient>
<linearGradient id="paint3_linear_5481_99496" x1="9.87765" y1="49.8089" x2="69.2259" y2="16.5628" gradientUnits="userSpaceOnUse">
<stop stop-color="#FC7D00" stop-opacity="0"/>
<stop offset="0.432292" stop-color="#FC7D00"/>
<stop offset="0.609375" stop-color="#FC7D00"/>
<stop offset="1" stop-color="#FC7D00" stop-opacity="0"/>
</linearGradient>
<radialGradient id="paint4_radial_5481_99496" cx="0" cy="0" r="1" gradientUnits="userSpaceOnUse" gradientTransform="translate(45.2009 8.67178) rotate(90) scale(20.8826)">
<stop offset="0.166667" stop-color="#EB1000"/>
<stop offset="1" stop-color="#EB1000" stop-opacity="0"/>
</radialGradient>
<clipPath id="clip0_5481_99496">
<rect width="48" height="48" rx="5.125" fill="white"/>
</clipPath>
</defs>
<clipPath id="mask0_5481_99496">
<path fill-rule="evenodd" d="M19.274 37.6144C20.8446 38.1991 22.5041 38.5 24.1808 38.5L24.1751 38.4943H31.1569C31.1713 38.4943 31.1999 38.4914 31.1999 38.4914H33.1346C33.8511 38.4914 34.5934 38.2936 35.1666 37.8551C35.7485 37.408 36.1354 36.723 36.1354 35.8001C36.1354 35.502 36.0924 34.9747 35.8373 34.4588C35.7169 34.2094 35.545 33.9658 35.31 33.7537C36.5051 33.6849 37.514 32.8193 37.7576 31.6356C37.9783 30.5608 37.5169 29.529 36.7029 28.9443C37.8121 28.6692 38.6519 27.6947 38.712 26.5053C38.7608 25.5422 38.2907 24.6824 37.5513 24.178C38.6003 23.8627 39.3799 22.9169 39.44 21.7704C39.5174 20.2543 38.3079 18.9817 36.7889 18.9817H28.844C28.4112 18.9817 28.1017 18.5604 28.2306 18.1477L28.8039 16.3076C29.3169 14.6624 29.6436 12.9657 29.7841 11.2489L29.8643 10.2543C29.9847 8.77256 28.8125 7.5 27.3221 7.5C26.339 7.5 25.4448 8.06749 25.0206 8.95312L22.3522 14.5421C22.1029 15.0637 21.8162 15.5653 21.4952 16.0439L21.4293 16.1442C19.9186 18.3923 17.5525 19.8856 14.9231 20.3105V36.1388C15.5485 36.2747 16.1644 36.4554 16.7661 36.68L19.274 37.6144ZM12.4231 35.8365V20.4348H11.7074C9.96482 20.4348 8.55469 21.845 8.55469 23.5876V32.6789C8.55469 34.4215 9.96482 35.8316 11.7074 35.8316H12.06C12.1811 35.8316 12.3022 35.8333 12.4231 35.8365Z" fill="white"/>
</clipPath>
<g clip-path="url(#mask0_5481_99496)">
<g clip-path="url(#clip0_5481_99496)">
<rect width="48" height="48" rx="5.125" fill="#FFECCF"/>
<rect width="48" height="48" fill="#FFECCF"/>
<circle cx="27.1423" cy="1.86221" r="20.8826" transform="rotate(-0.0800682 27.1423 1.86221)" fill="url(#paint0_radial_5481_99496)"/>
<path d="M18.3213 -8.47858C14.635 -10.7597 9.96439 -10.7737 6.26433 -8.51465L-30.7429 14.0808C-34.3673 16.2938 -34.3733 21.5172 -30.7539 23.7386L6.00883 46.302C9.70335 48.5691 14.374 48.5664 18.0653 46.2939L54.7523 23.7094C58.3526 21.4928 58.3591 16.2985 54.7632 14.0735L18.3213 -8.47858Z" fill="url(#paint1_linear_5481_99496)"/>
<path d="M6.91632 22.7894C7.73673 4.86956 22.9287 -8.99224 40.8485 -8.17184C58.7683 -7.35143 72.6301 7.84053 71.8097 25.7603C70.9893 43.6802 55.7973 57.542 37.8775 56.7215C19.9577 55.9011 6.09591 40.7092 6.91632 22.7894Z" fill="url(#paint2_linear_5481_99496)"/>
<path d="M-19.4476 34.6052C-12.3244 31.5664 -4.64218 31.6967 2.01351 34.3546C15.3317 39.6865 23.0811 36.39 28.456 23.1023C31.1333 16.4345 36.3604 10.7876 43.4915 7.74541C57.7492 1.67237 74.2091 8.26203 80.2736 22.4776C86.338 36.6931 79.7002 53.1271 65.4459 59.2081C58.2988 62.2571 50.6018 62.1143 43.9359 59.4324C30.6393 54.129 22.9046 57.438 17.5365 70.7417C14.8525 77.3935 9.62658 83.0211 2.50343 86.0599C-11.7429 92.1375 -28.2028 85.5478 -34.2639 71.3402C-40.3249 57.1326 -33.6939 40.6828 -19.4476 34.6052Z" fill="url(#paint3_linear_5481_99496)"/>
<circle cx="45.2009" cy="8.67178" r="20.8826" transform="rotate(-0.0800682 45.2009 8.67178)" fill="url(#paint4_radial_5481_99496)"/>
</g>
</g>

</svg>
