<svg width="160" height="160" viewBox="0 0 160 160" xmlns="http://www.w3.org/2000/svg">
  <defs>
<radialGradient id="paint0_radial_5481_90134" cx="0" cy="0" r="1" gradientUnits="userSpaceOnUse" gradientTransform="translate(90.4677 6.20574) rotate(90) scale(69.6088)">
<stop offset="0.166667" stop-color="#FF709F"/>
<stop offset="1" stop-color="#FF709F" stop-opacity="0"/>
</radialGradient>
<linearGradient id="paint1_linear_5481_90134" x1="-40.2086" y1="142.983" x2="219.921" y2="-15.2772" gradientUnits="userSpaceOnUse">
<stop offset="0.0598452" stop-color="#8480FE"/>
<stop offset="0.599632" stop-color="#8480FE" stop-opacity="0"/>
</linearGradient>
<linearGradient id="paint2_linear_5481_90134" x1="168.544" y1="29.4718" x2="56.9494" y2="149.467" gradientUnits="userSpaceOnUse">
<stop stop-color="#EB1000"/>
<stop offset="1" stop-color="#EB1000" stop-opacity="0"/>
</linearGradient>
<linearGradient id="paint3_linear_5481_90134" x1="32.9255" y1="166.029" x2="230.753" y2="55.2086" gradientUnits="userSpaceOnUse">
<stop stop-color="#FC7D00" stop-opacity="0"/>
<stop offset="0.432292" stop-color="#FC7D00"/>
<stop offset="0.609375" stop-color="#FC7D00"/>
<stop offset="1" stop-color="#FC7D00" stop-opacity="0"/>
</linearGradient>
<radialGradient id="paint4_radial_5481_90134" cx="0" cy="0" r="1" gradientUnits="userSpaceOnUse" gradientTransform="translate(150.675 28.9059) rotate(90) scale(69.6088)">
<stop offset="0.166667" stop-color="#EB1000"/>
<stop offset="1" stop-color="#EB1000" stop-opacity="0"/>
</radialGradient>
<clipPath id="clip0_5481_90134">
<rect width="160" height="160" rx="5.125" fill="white"/>
</clipPath>
</defs>
<clipPath id="mask0_5481_90134">
<path fill-rule="evenodd" d="M41.2773 28.25C41.2773 26.0409 39.4865 24.25 37.2773 24.25C35.0682 24.25 33.2773 26.0409 33.2773 28.25L33.2773 131.75C33.2773 133.959 35.0682 135.75 37.2773 135.75C39.4865 135.75 41.2773 133.959 41.2773 131.75L41.2773 100.853H110.722C117.35 100.853 122.722 95.4805 122.722 88.853V46.8945C122.722 40.2671 117.35 34.8945 110.722 34.8945H41.2773V28.25ZM66.4008 54.322C67.9629 52.7599 70.4956 52.7599 72.0577 54.322L80.4473 62.7116L88.837 54.322C90.3991 52.7599 92.9317 52.7599 94.4938 54.322C96.0559 55.8841 96.0559 58.4167 94.4938 59.9788L86.1042 68.3685L94.4938 76.7581C96.0559 78.3202 96.0559 80.8529 94.4938 82.415C92.9317 83.9771 90.3991 83.9771 88.837 82.415L80.4473 74.0253L72.0577 82.415C70.4956 83.9771 67.9629 83.9771 66.4008 82.415C64.8387 80.8529 64.8387 78.3202 66.4008 76.7581L74.7905 68.3685L66.4008 59.9788C64.8387 58.4167 64.8387 55.8841 66.4008 54.322Z" fill="white"/>
</clipPath>
<g clip-path="url(#mask0_5481_90134)">
<g clip-path="url(#clip0_5481_90134)">
<rect width="160" height="160" rx="5.125" fill="#FFECCF"/>
<rect width="160" height="160" fill="#FFECCF"/>
<circle cx="90.4677" cy="6.20574" r="69.6087" transform="rotate(-0.0800682 90.4677 6.20574)" fill="url(#paint0_radial_5481_90134)"/>
<path d="M61.0698 -28.2626C48.782 -35.8663 33.2133 -35.9129 20.8798 -28.3828L-102.478 46.9353C-114.559 54.3119 -114.579 71.7234 -102.514 79.1279L20.0281 154.339C32.3432 161.896 47.9119 161.887 60.2163 154.312L182.506 79.0306C194.507 71.6419 194.529 54.3277 182.543 46.9111L61.0698 -28.2626Z" fill="url(#paint1_linear_5481_90134)"/>
<path d="M23.0583 75.9646C25.793 16.2319 76.4328 -29.9741 136.166 -27.2395C195.898 -24.5048 242.104 26.1351 239.37 85.8678C236.635 145.601 185.995 191.807 126.262 189.072C66.5296 186.337 20.3236 135.697 23.0583 75.9646Z" fill="url(#paint2_linear_5481_90134)"/>
<path d="M-64.8253 115.35C-41.0814 105.221 -15.474 105.655 6.71169 114.515C51.1056 132.288 76.9371 121.299 94.8534 77.0069C103.778 54.7811 121.201 35.958 144.972 25.8174C192.497 5.57391 247.364 27.5395 267.579 74.9246C287.793 122.31 265.667 177.09 218.153 197.36C194.329 207.523 168.673 207.047 146.453 198.107C102.131 180.429 76.3488 191.459 58.4551 235.805C49.5082 257.978 32.0886 276.736 8.34476 286.866C-39.1429 307.124 -94.0093 285.159 -114.213 237.8C-134.416 190.441 -112.313 135.609 -64.8253 115.35Z" fill="url(#paint3_linear_5481_90134)"/>
<circle cx="150.675" cy="28.9059" r="69.6087" transform="rotate(-0.0800682 150.675 28.9059)" fill="url(#paint4_radial_5481_90134)"/>
</g>
</g>

</svg>
