<svg width="96" height="96" viewBox="0 0 96 96" xmlns="http://www.w3.org/2000/svg">
  <defs>
<radialGradient id="paint0_radial_5481_99620" cx="0" cy="0" r="1" gradientUnits="userSpaceOnUse" gradientTransform="translate(54.2806 3.72345) rotate(90) scale(41.7653)">
<stop offset="0.166667" stop-color="#FF709F"/>
<stop offset="1" stop-color="#FF709F" stop-opacity="0"/>
</radialGradient>
<linearGradient id="paint1_linear_5481_99620" x1="-24.1244" y1="85.7895" x2="131.953" y2="-9.16689" gradientUnits="userSpaceOnUse">
<stop offset="0.0598452" stop-color="#8480FE"/>
<stop offset="0.599632" stop-color="#8480FE" stop-opacity="0"/>
</linearGradient>
<linearGradient id="paint2_linear_5481_99620" x1="101.128" y1="17.6831" x2="34.1712" y2="89.6803" gradientUnits="userSpaceOnUse">
<stop stop-color="#EB1000"/>
<stop offset="1" stop-color="#EB1000" stop-opacity="0"/>
</linearGradient>
<linearGradient id="paint3_linear_5481_99620" x1="19.7553" y1="99.6167" x2="138.452" y2="33.1246" gradientUnits="userSpaceOnUse">
<stop stop-color="#FC7D00" stop-opacity="0"/>
<stop offset="0.432292" stop-color="#FC7D00"/>
<stop offset="0.609375" stop-color="#FC7D00"/>
<stop offset="1" stop-color="#FC7D00" stop-opacity="0"/>
</linearGradient>
<radialGradient id="paint4_radial_5481_99620" cx="0" cy="0" r="1" gradientUnits="userSpaceOnUse" gradientTransform="translate(90.4056 17.3436) rotate(90) scale(41.7653)">
<stop offset="0.166667" stop-color="#EB1000"/>
<stop offset="1" stop-color="#EB1000" stop-opacity="0"/>
</radialGradient>
<clipPath id="clip0_5481_99620">
<rect width="96" height="96" rx="5.125" fill="white"/>
</clipPath>
</defs>
<clipPath id="mask0_5481_99620">
<path fill-rule="evenodd" d="M44.1244 18.4642C41.8455 20.1999 40.2568 22.9275 39.3452 25.4333L36.0128 36.2908H53.1959C53.9233 36.2908 54.5934 36.6858 54.9457 37.3222L61.7214 49.5628C66.3019 44.9859 70.9565 40.3368 74.442 36.8561C75.2236 36.0756 76.4899 36.0765 77.2704 36.8581C78.0509 37.6397 78.05 38.906 77.2685 39.6865C73.5769 43.3729 68.574 48.3701 63.7368 53.2036L71.2681 66.8093C71.8031 67.7756 71.4533 68.9927 70.4869 69.5277C69.5205 70.0626 68.3035 69.7128 67.7685 68.7465L60.7932 56.1453L58.8229 58.1147C55.7622 61.1741 53.0097 63.9269 51.0164 65.9228C50.0196 66.9209 49.2133 67.7291 48.6534 68.2915C48.3733 68.573 48.1561 68.7916 48.008 68.9414C47.9336 69.0166 47.8788 69.0722 47.8431 69.1088L47.8226 69.1298C47.1363 69.8809 45.9785 70.0019 45.1477 69.3788C44.264 68.7161 44.085 67.4625 44.7477 66.5788C44.7987 66.5108 44.8449 66.4589 44.8514 66.4517L44.8514 66.4516L44.852 66.451C44.8668 66.4343 44.8792 66.4208 44.8859 66.4135C44.9 66.3983 44.9131 66.3846 44.9215 66.3757L44.944 66.3524L44.9825 66.3129C45.0267 66.2676 45.0881 66.2053 45.1641 66.1285C45.3168 65.9741 45.5376 65.7518 45.8185 65.4696C46.3807 64.9048 47.1889 64.0947 48.1861 63.0962C50.1807 61.099 52.9342 58.3453 55.995 55.2857L58.7778 52.5043L52.017 40.2908H34.7851L22.0531 81.7741C21.729 82.8301 20.6103 83.4234 19.5543 83.0993C18.4984 82.7752 17.9051 81.6565 18.2292 80.6005L30.601 40.2908H22.4786C21.374 40.2908 20.4786 39.3954 20.4786 38.2908C20.4786 37.1863 21.374 36.2908 22.4786 36.2908H31.8287L35.5359 24.212C35.5454 24.181 35.5557 24.1502 35.5667 24.1197C36.6263 21.1844 38.5798 17.6591 41.7008 15.2821C44.931 12.8219 49.2614 11.718 54.6097 13.5068C55.6572 13.8571 56.2224 14.9903 55.8721 16.0378C55.5217 17.0854 54.3885 17.6506 53.341 17.3002C49.2567 15.9342 46.3076 16.8014 44.1244 18.4642ZM47.8112 69.1415L47.8154 69.1372C47.789 69.1661 47.781 69.1731 47.8112 69.1415Z" fill="white"/>
</clipPath>
<g clip-path="url(#mask0_5481_99620)">
<g clip-path="url(#clip0_5481_99620)">
<rect width="96" height="96" rx="5.125" fill="#FFECCF"/>
<rect width="96" height="96" fill="#FFECCF"/>
<circle cx="54.2806" cy="3.72345" r="41.7653" transform="rotate(-0.0800682 54.2806 3.72345)" fill="url(#paint0_radial_5481_99620)"/>
<path d="M36.6427 -16.9581C29.27 -21.5204 19.9288 -21.5483 12.5287 -17.0303L-61.4858 28.1606C-68.7346 32.5865 -68.7467 43.0335 -61.5078 47.4761L12.0177 92.6029C19.4067 97.1373 28.7479 97.1319 36.1306 92.5868L109.505 47.4178C116.705 42.9845 116.718 32.596 109.526 28.1461L36.6427 -16.9581Z" fill="url(#paint1_linear_5481_99620)"/>
<path d="M13.8365 45.5788C15.4774 9.73912 45.8613 -17.9845 81.7009 -16.3437C117.541 -14.7029 145.264 15.6811 143.623 51.5207C141.982 87.3603 111.599 115.084 75.759 113.443C39.9193 111.802 12.1957 81.4184 13.8365 45.5788Z" fill="url(#paint2_linear_5481_99620)"/>
<path d="M-38.8952 69.2093C-24.6489 63.1318 -9.28437 63.3923 4.02702 68.7083C30.6634 79.3721 46.1622 72.779 56.9121 46.2036C62.2666 32.8681 72.7207 21.5742 86.983 15.4898C115.498 3.34376 148.418 16.5231 160.547 44.9542C172.676 73.3853 159.4 106.253 130.892 118.415C116.598 124.513 101.204 124.228 87.8718 118.864C61.2786 108.257 45.8093 114.875 35.073 141.482C29.7049 154.786 19.2532 166.041 5.00686 172.119C-23.4858 184.274 -56.4056 171.095 -68.5277 142.679C-80.6499 114.264 -67.3878 81.3645 -38.8952 69.2093Z" fill="url(#paint3_linear_5481_99620)"/>
<circle cx="90.4056" cy="17.3436" r="41.7653" transform="rotate(-0.0800682 90.4056 17.3436)" fill="url(#paint4_radial_5481_99620)"/>
</g>
</g>

</svg>
