<svg width="96" height="96" viewBox="0 0 96 96" xmlns="http://www.w3.org/2000/svg">
  <defs>
<radialGradient id="paint0_radial_5481_99440" cx="0" cy="0" r="1" gradientUnits="userSpaceOnUse" gradientTransform="translate(53.2033 9.23849) rotate(90) scale(36.3205)">
<stop offset="0.166667" stop-color="#FF709F"/>
<stop offset="1" stop-color="#FF709F" stop-opacity="0"/>
</radialGradient>
<linearGradient id="paint1_linear_5481_99440" x1="-14.982" y1="80.6054" x2="120.749" y2="-1.97203" gradientUnits="userSpaceOnUse">
<stop offset="0.0598452" stop-color="#8480FE"/>
<stop offset="0.599632" stop-color="#8480FE" stop-opacity="0"/>
</linearGradient>
<linearGradient id="paint2_linear_5481_99440" x1="93.9447" y1="21.3774" x2="35.7166" y2="83.9887" gradientUnits="userSpaceOnUse">
<stop stop-color="#EB1000"/>
<stop offset="1" stop-color="#EB1000" stop-opacity="0"/>
</linearGradient>
<linearGradient id="paint3_linear_5481_99440" x1="23.1802" y1="92.6303" x2="126.403" y2="34.8063" gradientUnits="userSpaceOnUse">
<stop stop-color="#FC7D00" stop-opacity="0"/>
<stop offset="0.432292" stop-color="#FC7D00"/>
<stop offset="0.609375" stop-color="#FC7D00"/>
<stop offset="1" stop-color="#FC7D00" stop-opacity="0"/>
</linearGradient>
<radialGradient id="paint4_radial_5481_99440" cx="0" cy="0" r="1" gradientUnits="userSpaceOnUse" gradientTransform="translate(84.6173 21.0822) rotate(90) scale(36.3205)">
<stop offset="0.166667" stop-color="#EB1000"/>
<stop offset="1" stop-color="#EB1000" stop-opacity="0"/>
</radialGradient>
<clipPath id="clip0_5481_99440">
<rect x="6" y="6" width="83.485" height="83.485" rx="2.07674" fill="white"/>
</clipPath>
</defs>
<clipPath id="mask0_5481_99440">
<path fill-rule="evenodd" d="M21.6 20.5C16.2981 20.5 12 24.7981 12 30.1V66.1C12 71.4019 16.2981 75.7 21.6 75.7H74.4C79.7019 75.7 84 71.4019 84 66.1V30.1C84 24.7981 79.7019 20.5 74.4 20.5H21.6ZM19.2 31.9C19.2 31.2373 19.7373 30.7 20.4 30.7H24.6C25.2627 30.7 25.8 31.2373 25.8 31.9V34.9C25.8 35.5627 25.2627 36.1 24.6 36.1H20.4C19.7373 36.1 19.2 35.5627 19.2 34.9V31.9ZM19.2 61.3C19.2 60.6373 19.7373 60.1 20.4 60.1H24.6C25.2627 60.1 25.8 60.6373 25.8 61.3V64.3C25.8 64.9627 25.2627 65.5 24.6 65.5H20.4C19.7373 65.5 19.2 64.9627 19.2 64.3V61.3ZM29.4 31.9C29.4 31.2373 29.9373 30.7 30.6 30.7H34.8C35.4627 30.7 36 31.2373 36 31.9V34.9C36 35.5627 35.4627 36.1 34.8 36.1H30.6C29.9373 36.1 29.4 35.5627 29.4 34.9V31.9ZM29.4 61.3C29.4 60.6373 29.9373 60.1 30.6 60.1H34.8C35.4627 60.1 36 60.6373 36 61.3V64.3C36 64.9627 35.4627 65.5 34.8 65.5H30.6C29.9373 65.5 29.4 64.9627 29.4 64.3V61.3ZM39.6 31.9C39.6 31.2373 40.1373 30.7 40.8 30.7H45C45.6627 30.7 46.2 31.2373 46.2 31.9V34.9C46.2 35.5627 45.6627 36.1 45 36.1H40.8C40.1373 36.1 39.6 35.5627 39.6 34.9V31.9ZM39.6 61.3C39.6 60.6373 40.1373 60.1 40.8 60.1H45C45.6627 60.1 46.2 60.6373 46.2 61.3V64.3C46.2 64.9627 45.6627 65.5 45 65.5H40.8C40.1373 65.5 39.6 64.9627 39.6 64.3V61.3ZM49.8 31.9C49.8 31.2373 50.3373 30.7 51 30.7H55.2C55.8627 30.7 56.4 31.2373 56.4 31.9V34.9C56.4 35.5627 55.8627 36.1 55.2 36.1H51C50.3373 36.1 49.8 35.5627 49.8 34.9V31.9ZM49.8 61.3C49.8 60.6373 50.3373 60.1 51 60.1H55.2C55.8627 60.1 56.4 60.6373 56.4 61.3V64.3C56.4 64.9627 55.8627 65.5 55.2 65.5H51C50.3373 65.5 49.8 64.9627 49.8 64.3V61.3ZM60 31.9C60 31.2373 60.5373 30.7 61.2 30.7H65.4C66.0627 30.7 66.6 31.2373 66.6 31.9V34.9C66.6 35.5627 66.0627 36.1 65.4 36.1H61.2C60.5373 36.1 60 35.5627 60 34.9V31.9ZM60 61.3C60 60.6373 60.5373 60.1 61.2 60.1H65.4C66.0627 60.1 66.6 60.6373 66.6 61.3V64.3C66.6 64.9627 66.0627 65.5 65.4 65.5H61.2C60.5373 65.5 60 64.9627 60 64.3V61.3ZM70.2 31.9C70.2 31.2373 70.7373 30.7 71.4 30.7H75.6C76.2627 30.7 76.8 31.2373 76.8 31.9V34.9C76.8 35.5627 76.2627 36.1 75.6 36.1H71.4C70.7373 36.1 70.2 35.5627 70.2 34.9V31.9ZM70.2 61.3C70.2 60.6373 70.7373 60.1 71.4 60.1H75.6C76.2627 60.1 76.8 60.6373 76.8 61.3V64.3C76.8 64.9627 76.2627 65.5 75.6 65.5H71.4C70.7373 65.5 70.2 64.9627 70.2 64.3V61.3Z" fill="white"/>
</clipPath>
<g clip-path="url(#mask0_5481_99440)">
<g clip-path="url(#clip0_5481_99440)">
<rect x="6" y="6" width="83.485" height="83.485" rx="2.07674" fill="#FFECCF"/>
<rect width="83.485" height="83.485" transform="translate(6 6)" fill="#FFECCF"/>
<circle cx="53.2033" cy="9.23849" r="36.3205" transform="rotate(-0.0800682 53.2033 9.23849)" fill="url(#paint0_radial_5481_99440)"/>
<path d="M37.8631 -8.74759C31.4516 -12.7151 23.3282 -12.7394 16.8928 -8.81031L-47.4728 30.4893C-53.7766 34.3382 -53.7872 43.4232 -47.4919 47.2868L16.4484 86.5306C22.8741 90.4738 30.9976 90.4692 37.4178 86.5165L101.226 47.236C107.488 43.3807 107.5 34.3465 101.245 30.4766L37.8631 -8.74759Z" fill="url(#paint1_linear_5481_99440)"/>
<path d="M18.0329 45.6364C19.4598 14.469 45.8827 -9.64042 77.0501 -8.21351C108.218 -6.7866 132.327 19.6363 130.9 50.8037C129.473 81.9711 103.05 106.081 71.8828 104.654C40.7154 103.227 16.606 76.8038 18.0329 45.6364Z" fill="url(#paint2_linear_5481_99440)"/>
<path d="M-27.8243 66.1869C-15.4352 60.9016 -2.07373 61.1283 9.50232 65.7512C32.6662 75.0248 46.1446 69.2912 55.493 46.1803C60.1495 34.5833 69.2408 24.7618 81.6438 19.4705C106.442 8.90788 135.07 20.3691 145.618 45.0938C156.166 69.8185 144.621 98.4015 119.828 108.978C107.398 114.281 94.0105 114.033 82.4167 109.368C59.2903 100.144 45.8377 105.899 36.501 129.038C31.8327 140.607 22.7435 150.395 10.3544 155.681C-14.4238 166.251 -43.052 154.79 -53.5938 130.079C-64.1357 105.368 -52.6025 76.7575 -27.8243 66.1869Z" fill="url(#paint3_linear_5481_99440)"/>
<circle cx="84.6173" cy="21.0822" r="36.3205" transform="rotate(-0.0800682 84.6173 21.0822)" fill="url(#paint4_radial_5481_99440)"/>
</g>
</g>

</svg>
