<svg width="48" height="48" viewBox="0 0 48 48" xmlns="http://www.w3.org/2000/svg">
  <defs>
<radialGradient id="paint0_radial_5481_99306" cx="0" cy="0" r="1" gradientUnits="userSpaceOnUse" gradientTransform="translate(26.7417 1.73614) rotate(90) scale(19.4763)">
<stop offset="0.166667" stop-color="#FF709F"/>
<stop offset="1" stop-color="#FF709F" stop-opacity="0"/>
</radialGradient>
<linearGradient id="paint1_linear_5481_99306" x1="-9.81999" y1="40.006" x2="62.9632" y2="-4.27467" gradientUnits="userSpaceOnUse">
<stop offset="0.0598452" stop-color="#8480FE"/>
<stop offset="0.599632" stop-color="#8480FE" stop-opacity="0"/>
</linearGradient>
<linearGradient id="paint2_linear_5481_99306" x1="48.5883" y1="8.2462" x2="17.3645" y2="41.8204" gradientUnits="userSpaceOnUse">
<stop stop-color="#EB1000"/>
<stop offset="1" stop-color="#EB1000" stop-opacity="0"/>
</linearGradient>
<linearGradient id="paint3_linear_5481_99306" x1="10.6447" y1="46.4545" x2="65.996" y2="15.4474" gradientUnits="userSpaceOnUse">
<stop stop-color="#FC7D00" stop-opacity="0"/>
<stop offset="0.432292" stop-color="#FC7D00"/>
<stop offset="0.609375" stop-color="#FC7D00"/>
<stop offset="1" stop-color="#FC7D00" stop-opacity="0"/>
</linearGradient>
<radialGradient id="paint4_radial_5481_99306" cx="0" cy="0" r="1" gradientUnits="userSpaceOnUse" gradientTransform="translate(43.5894 8.0877) rotate(90) scale(19.4763)">
<stop offset="0.166667" stop-color="#EB1000"/>
<stop offset="1" stop-color="#EB1000" stop-opacity="0"/>
</radialGradient>
<clipPath id="clip0_5481_99306">
<rect x="1.42969" width="44.7674" height="44.7674" rx="1.11918" fill="white"/>
</clipPath>
</defs>
<clipPath id="mask0_5481_99306">
<path fill-rule="evenodd" d="M38.8469 20.4004V19.0913C38.8469 16.8771 37.0491 15.0822 34.8315 15.0822H20.7776L16.2275 9.40348C15.7195 8.76945 14.9504 8.40039 14.1372 8.40039H6.7238C5.24538 8.40039 4.04688 9.59701 4.04688 11.0731V35.5913C4.04688 35.9713 4.09982 36.3389 4.19876 36.6873C4.22835 36.1757 4.33943 35.6532 4.54289 35.1327C4.54831 35.1188 4.55385 35.105 4.55952 35.0913L9.29573 23.6086C10.0736 21.6481 11.9823 20.4004 14.0604 20.4004H38.8469ZM43.4779 22.8004C43.4779 22.8004 43.4779 22.8004 43.4779 22.8004H14.0604C12.9332 22.8004 11.9231 23.4792 11.5216 24.5064L6.7782 36.0064C6.10165 37.7372 7.40791 39.5923 9.30453 39.6004H9.31645L11.743 39.6004L38.7339 39.6004C39.8611 39.6004 40.8712 38.9216 41.2728 37.8944L46.0161 26.3944C46.6677 24.7275 45.4802 22.9455 43.6976 22.8088C43.6253 22.8032 43.5521 22.8004 43.4779 22.8004Z" fill="white"/>
</clipPath>
<g clip-path="url(#mask0_5481_99306)">
<g clip-path="url(#clip0_5481_99306)">
<rect x="1.42969" width="44.7674" height="44.7674" rx="1.11918" fill="#FFECCF"/>
<rect width="44.7674" height="44.7674" transform="translate(1.42969)" fill="#FFECCF"/>
<circle cx="26.7417" cy="1.73613" r="19.4763" transform="rotate(-0.0800682 26.7417 1.73613)" fill="url(#paint0_radial_5481_99306)"/>
<path d="M18.5173 -7.90794C15.0792 -10.0354 10.7232 -10.0485 7.27231 -7.94157L-27.2426 13.1321C-30.6229 15.1961 -30.6286 20.0678 -27.2529 22.1395L7.03402 43.1833C10.4797 45.2978 14.8358 45.2953 18.2785 43.1758L52.4948 22.1123C55.8526 20.045 55.8587 15.2005 52.505 13.1254L18.5173 -7.90794Z" fill="url(#paint1_linear_5481_99306)"/>
<path d="M7.88191 21.2547C8.64706 4.54172 22.8159 -8.38655 39.5289 -7.62139C56.2419 -6.85623 69.1701 7.3126 68.405 24.0256C67.6398 40.7386 53.471 53.6668 36.758 52.9017C20.045 52.1365 7.11675 37.9677 7.88191 21.2547Z" fill="url(#paint2_linear_5481_99306)"/>
<path d="M-16.7056 32.2747C-10.0622 29.4406 -2.89732 29.5621 3.31014 32.0411C15.7314 37.0139 22.9589 33.9393 27.9719 21.5465C30.4688 15.3278 35.3439 10.0612 41.9948 7.22384C55.2922 1.5598 70.6436 7.70568 76.2997 20.9639C81.9557 34.222 75.7649 49.5492 62.4706 55.2207C55.8048 58.0644 48.6262 57.9312 42.4092 55.4299C30.0081 50.4837 22.7943 53.5699 17.7877 65.9775C15.2844 72.1814 10.4105 77.43 3.76706 80.2641C-9.51981 85.9324 -24.8712 79.7865 -30.5241 66.5358C-36.177 53.285 -29.9925 37.943 -16.7056 32.2747Z" fill="url(#paint3_linear_5481_99306)"/>
<circle cx="43.5894" cy="8.0877" r="19.4763" transform="rotate(-0.0800682 43.5894 8.0877)" fill="url(#paint4_radial_5481_99306)"/>
</g>
</g>

</svg>
