<svg width="48" height="48" viewBox="0 0 48 48" xmlns="http://www.w3.org/2000/svg">
  <defs>
<radialGradient id="paint0_radial_5481_99279" cx="0" cy="0" r="1" gradientUnits="userSpaceOnUse" gradientTransform="translate(26.7325 4.74815) rotate(90) scale(18.1603)">
<stop offset="0.166667" stop-color="#FF709F"/>
<stop offset="1" stop-color="#FF709F" stop-opacity="0"/>
</radialGradient>
<linearGradient id="paint1_linear_5481_99279" x1="-7.36016" y1="40.4316" x2="60.5052" y2="-0.857103" gradientUnits="userSpaceOnUse">
<stop offset="0.0598452" stop-color="#8480FE"/>
<stop offset="0.599632" stop-color="#8480FE" stop-opacity="0"/>
</linearGradient>
<linearGradient id="paint2_linear_5481_99279" x1="47.0993" y1="10.8181" x2="17.9853" y2="42.1237" gradientUnits="userSpaceOnUse">
<stop stop-color="#EB1000"/>
<stop offset="1" stop-color="#EB1000" stop-opacity="0"/>
</linearGradient>
<linearGradient id="paint3_linear_5481_99279" x1="11.721" y1="46.444" x2="63.3323" y2="17.5321" gradientUnits="userSpaceOnUse">
<stop stop-color="#FC7D00" stop-opacity="0"/>
<stop offset="0.432292" stop-color="#FC7D00"/>
<stop offset="0.609375" stop-color="#FC7D00"/>
<stop offset="1" stop-color="#FC7D00" stop-opacity="0"/>
</linearGradient>
<radialGradient id="paint4_radial_5481_99279" cx="0" cy="0" r="1" gradientUnits="userSpaceOnUse" gradientTransform="translate(42.4395 10.67) rotate(90) scale(18.1603 18.1603)">
<stop offset="0.166667" stop-color="#EB1000"/>
<stop offset="1" stop-color="#EB1000" stop-opacity="0"/>
</radialGradient>
<clipPath id="clip0_5481_99279">
<rect x="3.12891" y="3.12891" width="41.7425" height="41.7425" rx="1.03837" fill="white"/>
</clipPath>
</defs>
<clipPath id="mask0_5481_99279">
<path fill-rule="evenodd" d="M16.1969 13.6496C16.1969 9.34178 19.689 5.84961 23.9969 5.84961C28.3047 5.84961 31.7969 9.34178 31.7969 13.6496C31.7969 14.3124 31.2596 14.8496 30.5969 14.8496C29.9341 14.8496 29.3969 14.3124 29.3969 13.6496C29.3969 10.6673 26.9792 8.24961 23.9969 8.24961C21.0145 8.24961 18.5969 10.6673 18.5969 13.6496V19.9496L34.6878 19.9496C36.9019 19.9496 38.6969 21.5866 38.6969 23.6059V35.7934C38.6969 37.8126 36.9019 39.4496 34.6878 39.4496H13.306C11.0918 39.4496 9.29688 37.8126 9.29688 35.7934V23.6059C9.29688 21.5866 11.0918 19.9496 13.306 19.9496L16.1969 19.9496V13.6496ZM22.302 30.1955C22.4498 30.3447 22.6172 30.4726 22.798 30.5769V32.8496C22.798 33.5124 23.3353 34.0496 23.998 34.0496C24.6608 34.0496 25.198 33.5124 25.198 32.8496V30.5769C25.3789 30.4726 25.5463 30.3447 25.6941 30.1955C25.8059 30.0875 25.9059 29.9635 25.9941 29.8314C26.082 29.7035 26.1539 29.5635 26.2141 29.4195C26.2738 29.2715 26.3219 29.1236 26.35 28.9676C26.382 28.8156 26.398 28.6555 26.398 28.4996C26.398 28.3436 26.382 28.1836 26.35 28.0314C26.3219 27.8795 26.2738 27.7275 26.2141 27.5836C26.1539 27.4355 26.082 27.2996 25.9941 27.1676C25.9059 27.0355 25.8059 26.9115 25.6941 26.8035C25.25 26.3555 24.6301 26.0996 23.998 26.0996C23.366 26.0996 22.7461 26.3555 22.302 26.8035C22.1898 26.9115 22.0898 27.0355 22.002 27.1676C21.918 27.2996 21.8418 27.4355 21.782 27.5836C21.7219 27.7275 21.6738 27.8795 21.6461 28.0314C21.6141 28.1836 21.598 28.3436 21.598 28.4996C21.598 28.6555 21.6141 28.8156 21.6461 28.9676C21.6738 29.1236 21.7219 29.2715 21.782 29.4195C21.8418 29.5635 21.918 29.7035 22.002 29.8314C22.0898 29.9635 22.1898 30.0875 22.302 30.1955Z" fill="white"/>
</clipPath>
<g clip-path="url(#mask0_5481_99279)">
<g clip-path="url(#clip0_5481_99279)">
<rect x="3.12891" y="3.12891" width="41.7425" height="41.7425" rx="1.03837" fill="#FFECCF"/>
<rect width="41.7425" height="41.7425" transform="translate(3.12891 3.12891)" fill="#FFECCF"/>
<circle cx="26.7325" cy="4.74815" r="18.1603" transform="rotate(-0.0800682 26.7325 4.74815)" fill="url(#paint0_radial_5481_99279)"/>
<path d="M19.0624 -4.24489C15.8567 -6.22862 11.7949 -6.24077 8.57723 -4.27625L-23.6056 15.3735C-26.7575 17.298 -26.7627 21.8405 -23.6151 23.7723L8.35504 43.3942C11.5679 45.3658 15.6297 45.3635 18.8398 43.3872L50.744 23.7469C53.875 21.8193 53.8807 17.3021 50.7536 15.3672L19.0624 -4.24489Z" fill="url(#paint1_linear_5481_99279)"/>
<path d="M9.1434 22.9476C9.85686 7.3639 23.0683 -4.69082 38.652 -3.97736C54.2357 -3.2639 66.2904 9.94756 65.577 25.5313C64.8635 41.115 51.6521 53.1697 36.0684 52.4562C20.4847 51.7428 8.42994 38.5313 9.1434 22.9476Z" fill="url(#paint2_linear_5481_99279)"/>
<path d="M-13.7813 33.2224C-7.58675 30.5797 -0.906002 30.693 4.88202 33.0045C16.464 37.6413 23.2032 34.7745 27.8774 23.2191C30.2056 17.4206 34.7513 12.5098 40.9528 9.86418C53.3517 4.58285 67.6659 10.3135 72.9397 22.6758C78.2136 35.0381 72.4411 49.3297 60.0451 54.6179C53.8297 57.2695 47.1361 57.1453 41.3392 54.813C29.776 50.201 23.0497 53.0786 18.3814 64.6479C16.0472 70.4326 11.5026 75.3266 5.30808 77.9692C-7.08102 83.2545 -21.3951 77.5239 -26.6661 65.1685C-31.937 52.8131 -26.1704 38.5077 -13.7813 33.2224Z" fill="url(#paint3_linear_5481_99279)"/>
<ellipse cx="42.4395" cy="10.67" rx="18.1603" ry="18.1603" transform="rotate(-0.0800682 42.4395 10.67)" fill="url(#paint4_radial_5481_99279)"/>
</g>
</g>

</svg>
