<svg width="96" height="96" viewBox="0 0 96 96" xmlns="http://www.w3.org/2000/svg">
  <defs>
<radialGradient id="paint0_radial_5481_99485" cx="0" cy="0" r="1" gradientUnits="userSpaceOnUse" gradientTransform="translate(54.2806 3.72345) rotate(90) scale(41.7653)">
<stop offset="0.166667" stop-color="#FF709F"/>
<stop offset="1" stop-color="#FF709F" stop-opacity="0"/>
</radialGradient>
<linearGradient id="paint1_linear_5481_99485" x1="-24.1244" y1="85.7895" x2="131.953" y2="-9.16689" gradientUnits="userSpaceOnUse">
<stop offset="0.0598452" stop-color="#8480FE"/>
<stop offset="0.599632" stop-color="#8480FE" stop-opacity="0"/>
</linearGradient>
<linearGradient id="paint2_linear_5481_99485" x1="101.128" y1="17.6831" x2="34.1712" y2="89.6803" gradientUnits="userSpaceOnUse">
<stop stop-color="#EB1000"/>
<stop offset="1" stop-color="#EB1000" stop-opacity="0"/>
</linearGradient>
<linearGradient id="paint3_linear_5481_99485" x1="19.7553" y1="99.6167" x2="138.452" y2="33.1246" gradientUnits="userSpaceOnUse">
<stop stop-color="#FC7D00" stop-opacity="0"/>
<stop offset="0.432292" stop-color="#FC7D00"/>
<stop offset="0.609375" stop-color="#FC7D00"/>
<stop offset="1" stop-color="#FC7D00" stop-opacity="0"/>
</linearGradient>
<radialGradient id="paint4_radial_5481_99485" cx="0" cy="0" r="1" gradientUnits="userSpaceOnUse" gradientTransform="translate(90.4056 17.3436) rotate(90) scale(41.7653)">
<stop offset="0.166667" stop-color="#EB1000"/>
<stop offset="1" stop-color="#EB1000" stop-opacity="0"/>
</radialGradient>
<clipPath id="clip0_5481_99485">
<rect width="96" height="96" rx="5.125" fill="white"/>
</clipPath>
</defs>
<clipPath id="mask0_5481_99485">
<path fill-rule="evenodd" d="M39.7802 69.6504V35.3364L75.7456 28.1666V55.3905C74.7358 54.8037 73.6028 54.3966 72.425 54.16C69.5227 53.5772 66.1452 53.9663 62.9285 55.3481C59.7117 56.73 57.1044 58.9119 55.5291 61.4182C53.9593 63.9159 53.3218 66.9264 54.5123 69.6977C55.7028 72.469 58.3252 74.0791 61.2175 74.6599C64.1198 75.2427 67.4973 74.8537 70.7141 73.4719C73.9308 72.09 76.5381 69.9081 78.1134 67.4018C78.9686 66.0411 79.5472 64.5282 79.7042 62.9846C79.7313 62.8532 79.7456 62.7171 79.7456 62.5776V62.3022C79.7476 62.1983 79.7476 62.0944 79.7456 61.9905V20.5955C79.7456 15.5491 75.1305 11.7632 70.1815 12.7499L42.2161 18.3251C38.4744 19.071 35.7802 22.3554 35.7802 26.1707V63.2577C34.7703 62.6708 33.6371 62.2636 32.4592 62.027C29.557 61.4442 26.1795 61.8333 22.9627 63.2151C19.746 64.597 17.1387 66.7789 15.5634 69.2852C13.9935 71.7828 13.356 74.7934 14.5465 77.5647C15.737 80.336 18.3595 81.9461 21.2518 82.5269C24.1541 83.1097 27.5316 82.7207 30.7483 81.3388C33.9651 79.957 36.5724 77.7751 38.1477 75.2688C39.2042 73.5878 39.8384 71.6745 39.7773 69.7582C39.7792 69.7225 39.7802 69.6865 39.7802 69.6504Z" fill="#292929"/>
</clipPath>
<g clip-path="url(#mask0_5481_99485)">
<g clip-path="url(#clip0_5481_99485)">
<rect width="96" height="96" rx="5.125" fill="#FFECCF"/>
<rect width="96" height="96" fill="#FFECCF"/>
<circle cx="54.2806" cy="3.72345" r="41.7653" transform="rotate(-0.0800682 54.2806 3.72345)" fill="url(#paint0_radial_5481_99485)"/>
<path d="M36.6427 -16.9581C29.27 -21.5204 19.9288 -21.5483 12.5287 -17.0303L-61.4858 28.1606C-68.7346 32.5865 -68.7467 43.0335 -61.5078 47.4761L12.0177 92.6029C19.4067 97.1373 28.7479 97.1319 36.1306 92.5868L109.505 47.4178C116.705 42.9845 116.718 32.596 109.526 28.1461L36.6427 -16.9581Z" fill="url(#paint1_linear_5481_99485)"/>
<path d="M13.8365 45.5788C15.4774 9.73912 45.8613 -17.9845 81.7009 -16.3437C117.541 -14.7029 145.264 15.6811 143.623 51.5207C141.982 87.3603 111.599 115.084 75.759 113.443C39.9193 111.802 12.1957 81.4184 13.8365 45.5788Z" fill="url(#paint2_linear_5481_99485)"/>
<path d="M-38.8952 69.2093C-24.6489 63.1318 -9.28437 63.3923 4.02702 68.7083C30.6634 79.3721 46.1622 72.779 56.9121 46.2036C62.2666 32.8681 72.7207 21.5742 86.983 15.4898C115.498 3.34376 148.418 16.5231 160.547 44.9542C172.676 73.3853 159.4 106.253 130.892 118.415C116.598 124.513 101.204 124.228 87.8718 118.864C61.2786 108.257 45.8093 114.875 35.073 141.482C29.7049 154.786 19.2532 166.041 5.00686 172.119C-23.4858 184.274 -56.4056 171.095 -68.5277 142.679C-80.6499 114.264 -67.3878 81.3645 -38.8952 69.2093Z" fill="url(#paint3_linear_5481_99485)"/>
<circle cx="90.4056" cy="17.3436" r="41.7653" transform="rotate(-0.0800682 90.4056 17.3436)" fill="url(#paint4_radial_5481_99485)"/>
</g>
</g>

</svg>
