<svg width="96" height="96" viewBox="0 0 96 96" xmlns="http://www.w3.org/2000/svg">
  <defs>
<radialGradient id="paint0_radial_5481_99529" cx="0" cy="0" r="1" gradientUnits="userSpaceOnUse" gradientTransform="translate(54.2806 3.72345) rotate(90) scale(41.7653)">
<stop offset="0.166667" stop-color="#FF709F"/>
<stop offset="1" stop-color="#FF709F" stop-opacity="0"/>
</radialGradient>
<linearGradient id="paint1_linear_5481_99529" x1="-24.1244" y1="85.7895" x2="131.953" y2="-9.16689" gradientUnits="userSpaceOnUse">
<stop offset="0.0598452" stop-color="#8480FE"/>
<stop offset="0.599632" stop-color="#8480FE" stop-opacity="0"/>
</linearGradient>
<linearGradient id="paint2_linear_5481_99529" x1="101.128" y1="17.6831" x2="34.1712" y2="89.6803" gradientUnits="userSpaceOnUse">
<stop stop-color="#EB1000"/>
<stop offset="1" stop-color="#EB1000" stop-opacity="0"/>
</linearGradient>
<linearGradient id="paint3_linear_5481_99529" x1="19.7553" y1="99.6167" x2="138.452" y2="33.1246" gradientUnits="userSpaceOnUse">
<stop stop-color="#FC7D00" stop-opacity="0"/>
<stop offset="0.432292" stop-color="#FC7D00"/>
<stop offset="0.609375" stop-color="#FC7D00"/>
<stop offset="1" stop-color="#FC7D00" stop-opacity="0"/>
</linearGradient>
<radialGradient id="paint4_radial_5481_99529" cx="0" cy="0" r="1" gradientUnits="userSpaceOnUse" gradientTransform="translate(90.4056 17.3436) rotate(90) scale(41.7653)">
<stop offset="0.166667" stop-color="#EB1000"/>
<stop offset="1" stop-color="#EB1000" stop-opacity="0"/>
</radialGradient>
<clipPath id="clip0_5481_99529">
<rect width="96" height="96" rx="5.125" fill="white"/>
</clipPath>
</defs>
<clipPath id="mask0_5481_99529">
<path fill-rule="evenodd" d="M47.1885 33.502C47.1885 37.9202 43.6068 41.502 39.1885 41.502C34.7702 41.502 31.1885 37.9202 31.1885 33.502C31.1885 29.0837 34.7702 25.502 39.1885 25.502C43.6068 25.502 47.1885 29.0837 47.1885 33.502ZM29.3885 35.502C29.2573 34.8557 29.1885 34.1869 29.1885 33.502C29.1885 32.817 29.2573 32.1482 29.3885 31.502H18.25C17.1454 31.502 16.25 32.3974 16.25 33.502C16.25 34.6065 17.1454 35.502 18.25 35.502H29.3885ZM48.9884 35.502C49.1196 34.8557 49.1885 34.1869 49.1885 33.502C49.1885 32.817 49.1196 32.1482 48.9884 31.502H77.7505C78.8551 31.502 79.7505 32.3974 79.7505 33.502C79.7505 34.6065 78.8551 35.502 77.7505 35.502H48.9884ZM64.812 62.5C64.812 66.9183 61.2303 70.5 56.812 70.5C52.3937 70.5 48.812 66.9183 48.812 62.5C48.812 58.0817 52.3937 54.5 56.812 54.5C61.2303 54.5 64.812 58.0817 64.812 62.5ZM47.012 64.5C46.8809 63.8538 46.812 63.1849 46.812 62.5C46.812 61.8151 46.8809 61.1462 47.012 60.5H18.2502C17.1457 60.5 16.2502 61.3954 16.2502 62.5C16.2502 63.6046 17.1457 64.5 18.2502 64.5H47.012ZM66.612 64.5C66.7431 63.8538 66.812 63.1849 66.812 62.5C66.812 61.8151 66.7431 61.1462 66.612 60.5H77.7505C78.8551 60.5 79.7505 61.3954 79.7505 62.5C79.7505 63.6046 78.8551 64.5 77.7505 64.5H66.612Z" fill="white"/>
</clipPath>
<g clip-path="url(#mask0_5481_99529)">
<g clip-path="url(#clip0_5481_99529)">
<rect width="96" height="96" rx="5.125" fill="#FFECCF"/>
<rect width="96" height="96" fill="#FFECCF"/>
<circle cx="54.2806" cy="3.72345" r="41.7653" transform="rotate(-0.0800682 54.2806 3.72345)" fill="url(#paint0_radial_5481_99529)"/>
<path d="M36.6427 -16.9581C29.27 -21.5204 19.9288 -21.5483 12.5287 -17.0303L-61.4858 28.1606C-68.7346 32.5865 -68.7467 43.0335 -61.5078 47.4761L12.0177 92.6029C19.4067 97.1373 28.7479 97.1319 36.1306 92.5868L109.505 47.4178C116.705 42.9845 116.718 32.596 109.526 28.1461L36.6427 -16.9581Z" fill="url(#paint1_linear_5481_99529)"/>
<path d="M13.8365 45.5788C15.4774 9.73912 45.8613 -17.9845 81.7009 -16.3437C117.541 -14.7029 145.264 15.6811 143.623 51.5207C141.982 87.3603 111.599 115.084 75.759 113.443C39.9193 111.802 12.1957 81.4184 13.8365 45.5788Z" fill="url(#paint2_linear_5481_99529)"/>
<path d="M-38.8952 69.2093C-24.6489 63.1318 -9.28437 63.3923 4.02702 68.7083C30.6634 79.3721 46.1622 72.779 56.9121 46.2036C62.2666 32.8681 72.7207 21.5742 86.983 15.4898C115.498 3.34376 148.418 16.5231 160.547 44.9542C172.676 73.3853 159.4 106.253 130.892 118.415C116.598 124.513 101.204 124.228 87.8718 118.864C61.2786 108.257 45.8093 114.875 35.073 141.482C29.7049 154.786 19.2532 166.041 5.00686 172.119C-23.4858 184.274 -56.4056 171.095 -68.5277 142.679C-80.6499 114.264 -67.3878 81.3645 -38.8952 69.2093Z" fill="url(#paint3_linear_5481_99529)"/>
<circle cx="90.4056" cy="17.3436" r="41.7653" transform="rotate(-0.0800682 90.4056 17.3436)" fill="url(#paint4_radial_5481_99529)"/>
</g>
</g>

</svg>
