<svg width="160" height="160" viewBox="0 0 160 160" xmlns="http://www.w3.org/2000/svg">
  <defs>
<radialGradient id="paint0_radial_5481_90061" cx="0" cy="0" r="1" gradientUnits="userSpaceOnUse" gradientTransform="translate(90.4677 6.20574) rotate(90) scale(69.6088)">
<stop offset="0.166667" stop-color="#FF709F"/>
<stop offset="1" stop-color="#FF709F" stop-opacity="0"/>
</radialGradient>
<linearGradient id="paint1_linear_5481_90061" x1="-40.2086" y1="142.983" x2="219.921" y2="-15.2772" gradientUnits="userSpaceOnUse">
<stop offset="0.0598452" stop-color="#8480FE"/>
<stop offset="0.599632" stop-color="#8480FE" stop-opacity="0"/>
</linearGradient>
<linearGradient id="paint2_linear_5481_90061" x1="168.544" y1="29.4718" x2="56.9494" y2="149.467" gradientUnits="userSpaceOnUse">
<stop stop-color="#EB1000"/>
<stop offset="1" stop-color="#EB1000" stop-opacity="0"/>
</linearGradient>
<linearGradient id="paint3_linear_5481_90061" x1="32.9255" y1="166.029" x2="230.753" y2="55.2086" gradientUnits="userSpaceOnUse">
<stop stop-color="#FC7D00" stop-opacity="0"/>
<stop offset="0.432292" stop-color="#FC7D00"/>
<stop offset="0.609375" stop-color="#FC7D00"/>
<stop offset="1" stop-color="#FC7D00" stop-opacity="0"/>
</linearGradient>
<radialGradient id="paint4_radial_5481_90061" cx="0" cy="0" r="1" gradientUnits="userSpaceOnUse" gradientTransform="translate(150.675 28.9059) rotate(90) scale(69.6088)">
<stop offset="0.166667" stop-color="#EB1000"/>
<stop offset="1" stop-color="#EB1000" stop-opacity="0"/>
</radialGradient>
<clipPath id="clip0_5481_90061">
<rect width="160" height="160" rx="5.125" fill="white"/>
</clipPath>
</defs>
<clipPath id="mask0_5481_90061">
<path fill-rule="evenodd" d="M99.9289 23.6552C102.019 24.3707 103.133 26.6451 102.418 28.7351L87.936 71.0373L131.012 56.3678C133.104 55.6557 135.376 56.7736 136.088 58.8648C136.8 60.9561 135.682 63.2286 133.591 63.9408L85.6772 80.2577C85.5824 80.29 85.4871 80.3185 85.3916 80.3434C85.1433 81.3253 84.9129 82.3232 84.6776 83.3422L84.6774 83.3429L84.6773 83.3432L84.6773 83.3433L84.6773 83.3434L84.6773 83.3435C83.8182 87.0635 82.8947 91.0629 80.8025 95.5789C80.3914 96.466 79.9406 97.3646 79.464 98.2598C79.6863 98.2522 79.9095 98.2483 80.1337 98.2483C90.7133 98.2483 99.2898 106.825 99.2898 117.404C99.2898 127.984 90.7133 136.561 80.1337 136.561C69.554 136.561 60.9775 127.984 60.9775 117.404C60.9775 113.249 62.3004 109.403 64.5479 106.265C64.6816 106.043 64.8389 105.831 65.0199 105.633C65.2748 105.306 65.54 104.988 65.815 104.679C67.6153 102.382 71.2929 97.0741 73.5436 92.2159C75.193 88.6558 75.8792 85.8278 76.6442 82.5255C75.1386 83.0855 73.5001 83.7341 71.5317 84.5449C68.7201 85.7029 65.4329 87.542 62.5774 89.3213C59.6874 91.1221 57.5224 92.6838 56.9156 93.1992C56.7749 93.3186 56.6284 93.4267 56.4771 93.5234C53.0044 97.0374 48.1822 99.2148 42.8514 99.2148C32.2718 99.2148 23.6953 90.6383 23.6953 80.0587C23.6953 69.4791 32.2718 60.9026 42.8514 60.9026C53.4311 60.9026 62.0075 69.4791 62.0075 80.0587C62.0075 80.159 62.0068 80.259 62.0052 80.3589C64.1221 79.1662 66.3637 78.0214 68.485 77.1477C72.6934 75.4144 75.5346 74.3624 78.6829 73.3662L94.849 26.144C95.5645 24.054 97.8389 22.9397 99.9289 23.6552ZM71.1966 110.726C69.803 112.588 68.9775 114.9 68.9775 117.404C68.9775 123.566 73.9723 128.561 80.1337 128.561C86.295 128.561 91.2898 123.566 91.2898 117.404C91.2898 111.243 86.295 106.248 80.1337 106.248C76.8708 106.248 73.9351 107.649 71.8951 109.882C71.6365 110.206 71.402 110.489 71.1966 110.726ZM42.8514 68.9026C36.6901 68.9026 31.6953 73.8974 31.6953 80.0587C31.6953 86.2201 36.6901 91.2148 42.8514 91.2148C49.0128 91.2148 54.0075 86.2201 54.0075 80.0587C54.0075 73.8974 49.0128 68.9026 42.8514 68.9026Z" fill="white"/>
</clipPath>
<g clip-path="url(#mask0_5481_90061)">
<g clip-path="url(#clip0_5481_90061)">
<rect width="160" height="160" rx="5.125" fill="#FFECCF"/>
<rect width="160" height="160" fill="#FFECCF"/>
<circle cx="90.4677" cy="6.20574" r="69.6087" transform="rotate(-0.0800682 90.4677 6.20574)" fill="url(#paint0_radial_5481_90061)"/>
<path d="M61.0698 -28.2626C48.782 -35.8663 33.2133 -35.9129 20.8798 -28.3828L-102.478 46.9353C-114.559 54.3119 -114.579 71.7234 -102.514 79.1279L20.0281 154.339C32.3432 161.896 47.9119 161.887 60.2163 154.312L182.506 79.0306C194.507 71.6419 194.529 54.3277 182.543 46.9111L61.0698 -28.2626Z" fill="url(#paint1_linear_5481_90061)"/>
<path d="M23.0583 75.9646C25.793 16.2319 76.4328 -29.9741 136.166 -27.2395C195.898 -24.5048 242.104 26.1351 239.37 85.8678C236.635 145.601 185.995 191.807 126.262 189.072C66.5296 186.337 20.3236 135.697 23.0583 75.9646Z" fill="url(#paint2_linear_5481_90061)"/>
<path d="M-64.8253 115.35C-41.0814 105.221 -15.474 105.655 6.71169 114.515C51.1056 132.288 76.9371 121.299 94.8534 77.0069C103.778 54.7811 121.201 35.958 144.972 25.8174C192.497 5.57391 247.364 27.5395 267.579 74.9246C287.793 122.31 265.667 177.09 218.153 197.36C194.329 207.523 168.673 207.047 146.453 198.107C102.131 180.429 76.3488 191.459 58.4551 235.805C49.5082 257.978 32.0886 276.736 8.34476 286.866C-39.1429 307.124 -94.0093 285.159 -114.213 237.8C-134.416 190.441 -112.313 135.609 -64.8253 115.35Z" fill="url(#paint3_linear_5481_90061)"/>
<circle cx="150.675" cy="28.9059" r="69.6087" transform="rotate(-0.0800682 150.675 28.9059)" fill="url(#paint4_radial_5481_90061)"/>
</g>
</g>

</svg>
