<svg width="161" height="160" viewBox="0 0 161 160" fill="none" xmlns="http://www.w3.org/2000/svg">
<mask id="mask0_5_683" style="mask-type:luminance" maskUnits="userSpaceOnUse" x="24" y="24" width="113" height="112">
<path fill-rule="evenodd" clip-rule="evenodd" d="M123.707 57.5776C129.531 51.8026 129.531 42.4535 123.707 36.6785C117.865 30.8856 108.38 30.8849 102.537 36.6766L102.535 36.6785L86.9226 52.1988C85.3559 53.7563 82.8233 53.7489 81.2658 52.1822C79.7083 50.6155 79.7158 48.0828 81.2825 46.5253L96.8981 31.0014L96.9017 30.9978C105.863 22.1118 120.379 22.1118 129.34 30.9978C138.318 39.9003 138.32 54.3469 129.346 63.252L113.669 78.9287C112.107 80.4908 109.575 80.4907 108.012 78.9286C106.45 77.3665 106.45 74.8339 108.013 73.2718L123.695 57.5895L123.707 57.5776ZM73.8946 107.801C75.4613 106.244 77.994 106.251 79.5515 107.818C81.1089 109.385 81.1015 111.917 79.5348 113.475L63.9192 128.999L63.9155 129.002C54.9541 137.888 40.4387 137.888 31.4773 129.002L34.2937 126.162L31.4773 129.002C22.4992 120.1 22.4972 105.653 31.4711 96.7478L31.4773 96.7417L47.1479 81.0711C48.71 79.509 51.2426 79.509 52.8047 81.0711C54.3668 82.6332 54.3668 85.1658 52.8047 86.7279L37.1222 102.41L37.1102 102.422C31.2862 108.197 31.2862 117.546 37.1102 123.321C42.9523 129.114 52.4377 129.115 58.2806 123.323L58.2826 123.321L73.8946 107.801ZM39.8784 63.9647C40.4501 61.8309 42.6435 60.5645 44.7773 61.1363L62.486 65.8813C64.6198 66.4531 65.8862 68.6464 65.3144 70.7803C64.7426 72.9142 62.5493 74.1805 60.4154 73.6087L42.7068 68.8637C40.5729 68.2919 39.3066 66.0986 39.8784 63.9647ZM115.784 96.9415C117.918 97.5133 120.112 96.2469 120.683 94.1131C121.255 91.9792 119.989 89.7858 117.855 89.2141L100.146 84.4691C98.0125 83.8973 95.8191 85.1636 95.2474 87.2975C94.6756 89.4314 95.9419 91.6247 98.0758 92.1965L115.784 96.9415ZM66.0398 37.803C68.1737 37.2312 70.367 38.4975 70.9388 40.6314L75.6838 58.34C76.2556 60.4739 74.9892 62.6672 72.8554 63.239C70.7215 63.8108 68.5281 62.5445 67.9564 60.4106L63.2114 42.7019C62.6396 40.5681 63.9059 38.3747 66.0398 37.803ZM89.6225 117.446C90.1943 119.58 92.3876 120.847 94.5215 120.275C96.6553 119.703 97.9217 117.51 97.3499 115.376L92.6049 97.6672C92.0331 95.5333 89.8398 94.267 87.7059 94.8388C85.572 95.4106 84.3057 97.6039 84.8775 99.7378L89.6225 117.446Z" fill="white"/>
</mask>
<g mask="url(#mask0_5_683)">
<g clip-path="url(#clip0_5_683)">
<rect x="0.408447" width="160" height="160" rx="5.125" fill="#FFECCF"/>
<rect width="160" height="160" transform="translate(0.408447)" fill="#FFECCF"/>
<circle cx="90.8766" cy="6.20596" r="69.6087" transform="rotate(-0.0800682 90.8766 6.20596)" fill="url(#paint0_radial_5_683)"/>
<path d="M61.4773 -28.263C49.1895 -35.8667 33.6208 -35.9133 21.2873 -28.3832L-102.07 46.9349C-114.151 54.3115 -114.172 71.723 -102.107 79.1275L20.4356 154.339C32.7506 161.896 48.3194 161.887 60.6238 154.312L182.914 79.0302C194.915 71.6415 194.937 54.3273 182.95 46.9107L61.4773 -28.263Z" fill="url(#paint1_linear_5_683)"/>
<path d="M23.4668 75.9645C26.2015 16.2317 76.8413 -29.9743 136.574 -27.2396C196.307 -24.5049 242.513 26.135 239.778 85.8677C237.043 145.6 186.403 191.806 126.671 189.072C66.9381 186.337 20.7321 135.697 23.4668 75.9645Z" fill="url(#paint2_linear_5_683)"/>
<path d="M-64.4146 115.35C-40.6708 105.22 -15.0633 105.655 7.12233 114.515C51.5163 132.287 77.3477 121.299 95.2641 77.0066C104.188 54.7808 121.612 35.9577 145.382 25.8171C192.908 5.5736 247.774 27.5392 267.989 74.9243C288.204 122.309 266.078 177.089 218.564 197.359C194.74 207.523 169.083 207.047 146.864 198.107C102.542 180.429 76.7594 191.459 58.8657 235.805C49.9188 257.977 32.4993 276.736 8.75541 286.865C-38.7323 307.124 -93.5986 285.158 -113.802 237.8C-134.006 190.441 -111.902 135.608 -64.4146 115.35Z" fill="url(#paint3_linear_5_683)"/>
<circle cx="151.083" cy="28.9062" r="69.6087" transform="rotate(-0.0800682 151.083 28.9062)" fill="url(#paint4_radial_5_683)"/>
</g>
</g>
<defs>
<radialGradient id="paint0_radial_5_683" cx="0" cy="0" r="1" gradientUnits="userSpaceOnUse" gradientTransform="translate(90.8766 6.20596) rotate(90) scale(69.6088)">
<stop offset="0.166667" stop-color="#FF709F"/>
<stop offset="1" stop-color="#FF709F" stop-opacity="0"/>
</radialGradient>
<linearGradient id="paint1_linear_5_683" x1="-39.8012" y1="142.983" x2="220.328" y2="-15.2775" gradientUnits="userSpaceOnUse">
<stop offset="0.0598452" stop-color="#8480FE"/>
<stop offset="0.599632" stop-color="#8480FE" stop-opacity="0"/>
</linearGradient>
<linearGradient id="paint2_linear_5_683" x1="168.953" y1="29.4717" x2="57.3578" y2="149.467" gradientUnits="userSpaceOnUse">
<stop stop-color="#EB1000"/>
<stop offset="1" stop-color="#EB1000" stop-opacity="0"/>
</linearGradient>
<linearGradient id="paint3_linear_5_683" x1="33.3361" y1="166.029" x2="231.164" y2="55.2083" gradientUnits="userSpaceOnUse">
<stop stop-color="#FC7D00" stop-opacity="0"/>
<stop offset="0.432292" stop-color="#FC7D00"/>
<stop offset="0.609375" stop-color="#FC7D00"/>
<stop offset="1" stop-color="#FC7D00" stop-opacity="0"/>
</linearGradient>
<radialGradient id="paint4_radial_5_683" cx="0" cy="0" r="1" gradientUnits="userSpaceOnUse" gradientTransform="translate(151.083 28.9062) rotate(90) scale(69.6088)">
<stop offset="0.166667" stop-color="#EB1000"/>
<stop offset="1" stop-color="#EB1000" stop-opacity="0"/>
</radialGradient>
<clipPath id="clip0_5_683">
<rect x="0.408447" width="160" height="160" rx="5.125" fill="white"/>
</clipPath>
</defs>
</svg>
