<svg width="96" height="96" viewBox="0 0 96 96" xmlns="http://www.w3.org/2000/svg">
  <defs>
<radialGradient id="paint0_radial_5481_99659" cx="0" cy="0" r="1" gradientUnits="userSpaceOnUse" gradientTransform="translate(54.2806 3.72345) rotate(90) scale(41.7653)">
<stop offset="0.166667" stop-color="#FF709F"/>
<stop offset="1" stop-color="#FF709F" stop-opacity="0"/>
</radialGradient>
<linearGradient id="paint1_linear_5481_99659" x1="-24.1244" y1="85.7895" x2="131.953" y2="-9.16689" gradientUnits="userSpaceOnUse">
<stop offset="0.0598452" stop-color="#8480FE"/>
<stop offset="0.599632" stop-color="#8480FE" stop-opacity="0"/>
</linearGradient>
<linearGradient id="paint2_linear_5481_99659" x1="101.128" y1="17.6831" x2="34.1712" y2="89.6803" gradientUnits="userSpaceOnUse">
<stop stop-color="#EB1000"/>
<stop offset="1" stop-color="#EB1000" stop-opacity="0"/>
</linearGradient>
<linearGradient id="paint3_linear_5481_99659" x1="19.7553" y1="99.6167" x2="138.452" y2="33.1246" gradientUnits="userSpaceOnUse">
<stop stop-color="#FC7D00" stop-opacity="0"/>
<stop offset="0.432292" stop-color="#FC7D00"/>
<stop offset="0.609375" stop-color="#FC7D00"/>
<stop offset="1" stop-color="#FC7D00" stop-opacity="0"/>
</linearGradient>
<radialGradient id="paint4_radial_5481_99659" cx="0" cy="0" r="1" gradientUnits="userSpaceOnUse" gradientTransform="translate(90.4056 17.3436) rotate(90) scale(41.7653)">
<stop offset="0.166667" stop-color="#EB1000"/>
<stop offset="1" stop-color="#EB1000" stop-opacity="0"/>
</radialGradient>
<clipPath id="clip0_5481_99659">
<rect width="96" height="96" rx="5.125" fill="white"/>
</clipPath>
</defs>
<clipPath id="mask0_5481_99659">
<path fill-rule="evenodd" d="M55.3672 34.1836C55.3672 37.8571 54.3347 41.2894 52.544 44.2061C52.2929 44.3137 52.0444 44.4234 51.7992 44.5351L46.205 34.4656L46.1725 34.4112C44.193 31.0997 39.5584 28.4852 35.0177 30.9468C30.6923 33.2916 29.3783 38.9216 31.7742 42.9629L37.5286 53.3208C37.0842 53.3515 36.6357 53.3672 36.1836 53.3672C25.5888 53.3672 17 44.7784 17 34.1836C17 23.5888 25.5888 15 36.1836 15C46.7784 15 55.3672 23.5888 55.3672 34.1836ZM42.7393 36.4638L49.2669 48.2135L49.9668 49.4732C50.112 49.7345 50.4506 49.8118 50.7015 49.6493C53.8382 47.618 60.0227 45.4637 63.7393 45.4637C73.6804 45.4637 79.2393 53.1568 79.2393 63.0979C79.2393 73.039 71.283 81.0979 61.3418 81.0979C52.1218 81.0979 38.4115 74.1006 34.0778 71.8888C33.7389 71.7159 33.4573 71.5722 33.2397 71.4634C30.2399 69.9634 29.5645 67.9181 30.2396 65.4634C30.9281 62.9601 33.5205 61.6902 36.2396 62.4634C38.9036 63.2209 41.8764 64.5019 44.6774 65.7089C46.1995 66.3648 47.6708 66.9988 49.0144 67.5151C49.4424 67.6796 49.8281 67.2234 49.6054 66.8226L41.6854 52.5666L35.2393 40.9636L35.2391 40.9633C33.9107 38.7777 34.6755 35.6822 36.924 34.4633C38.9395 33.3707 41.292 34.3143 42.5699 36.1981C42.6287 36.2847 42.6852 36.3733 42.7393 36.4638Z" fill="white"/>
</clipPath>
<g clip-path="url(#mask0_5481_99659)">
<g clip-path="url(#clip0_5481_99659)">
<rect width="96" height="96" rx="5.125" fill="#FFECCF"/>
<rect width="96" height="96" fill="#FFECCF"/>
<circle cx="54.2806" cy="3.72345" r="41.7653" transform="rotate(-0.0800682 54.2806 3.72345)" fill="url(#paint0_radial_5481_99659)"/>
<path d="M36.6427 -16.9581C29.27 -21.5204 19.9288 -21.5483 12.5287 -17.0303L-61.4858 28.1606C-68.7346 32.5865 -68.7467 43.0335 -61.5078 47.4761L12.0177 92.6029C19.4067 97.1373 28.7479 97.1319 36.1306 92.5868L109.505 47.4178C116.705 42.9845 116.718 32.596 109.526 28.1461L36.6427 -16.9581Z" fill="url(#paint1_linear_5481_99659)"/>
<path d="M13.8365 45.5788C15.4774 9.73912 45.8613 -17.9845 81.7009 -16.3437C117.541 -14.7029 145.264 15.6811 143.623 51.5207C141.982 87.3603 111.599 115.084 75.759 113.443C39.9193 111.802 12.1957 81.4184 13.8365 45.5788Z" fill="url(#paint2_linear_5481_99659)"/>
<path d="M-38.8952 69.2093C-24.6489 63.1318 -9.28437 63.3923 4.02702 68.7083C30.6634 79.3721 46.1622 72.779 56.9121 46.2036C62.2666 32.8681 72.7207 21.5742 86.983 15.4898C115.498 3.34376 148.418 16.5231 160.547 44.9542C172.676 73.3853 159.4 106.253 130.892 118.415C116.598 124.513 101.204 124.228 87.8718 118.864C61.2786 108.257 45.8093 114.875 35.073 141.482C29.7049 154.786 19.2532 166.041 5.00686 172.119C-23.4858 184.274 -56.4056 171.095 -68.5277 142.679C-80.6499 114.264 -67.3878 81.3645 -38.8952 69.2093Z" fill="url(#paint3_linear_5481_99659)"/>
<circle cx="90.4056" cy="17.3436" r="41.7653" transform="rotate(-0.0800682 90.4056 17.3436)" fill="url(#paint4_radial_5481_99659)"/>
</g>
</g>

</svg>
