<svg width="48" height="48" viewBox="0 0 48 48" xmlns="http://www.w3.org/2000/svg">
  <defs>
<radialGradient id="paint0_radial_5481_99420" cx="0" cy="0" r="1" gradientUnits="userSpaceOnUse" gradientTransform="translate(17.0977 16.1176) rotate(90) scale(16.1176 17.0977)">
<stop offset="0.166667" stop-color="#FF709F"/>
<stop offset="1" stop-color="#FF709F" stop-opacity="0"/>
</radialGradient>
<linearGradient id="paint1_linear_5481_99420" x1="-5.07419" y1="39.3034" x2="56.728" y2="-0.582971" gradientUnits="userSpaceOnUse">
<stop offset="0.0598452" stop-color="#8480FE"/>
<stop offset="0.599632" stop-color="#8480FE" stop-opacity="0"/>
</linearGradient>
<linearGradient id="paint2_linear_5481_99420" x1="46.1986" y1="13.0199" x2="20.514" y2="42.3174" gradientUnits="userSpaceOnUse">
<stop stop-color="#EB1000"/>
<stop offset="1" stop-color="#EB1000" stop-opacity="0"/>
</linearGradient>
<linearGradient id="paint3_linear_5481_99420" x1="12.8887" y1="44.6395" x2="60.068" y2="16.6031" gradientUnits="userSpaceOnUse">
<stop stop-color="#FC7D00" stop-opacity="0"/>
<stop offset="0.432292" stop-color="#FC7D00"/>
<stop offset="0.609375" stop-color="#FC7D00"/>
<stop offset="1" stop-color="#FC7D00" stop-opacity="0"/>
</linearGradient>
<radialGradient id="paint4_radial_5481_99420" cx="0" cy="0" r="1" gradientUnits="userSpaceOnUse" gradientTransform="translate(17.0977 16.1176) rotate(90) scale(16.1176 17.0977)">
<stop offset="0.166667" stop-color="#EB1000"/>
<stop offset="1" stop-color="#EB1000" stop-opacity="0"/>
</radialGradient>
<clipPath id="clip0_5481_99420">
<rect x="4.80078" y="6.19629" width="39.3001" height="37.0472" rx="1.03837" fill="white"/>
</clipPath>
</defs>
<clipPath id="mask0_5481_99420">
<path fill-rule="evenodd" d="M20.7712 14.4057L32.3392 10.8927L32.3422 10.8897C34.0672 10.3647 35.8072 11.6547 35.8072 13.4577V26.6157C35.8072 28.4187 34.0672 29.7087 32.3422 29.1837L20.7742 25.6647H20.7622L23.8942 32.9397C24.5662 34.4937 23.8522 36.2967 22.3012 36.9687C20.7472 37.6407 18.9442 36.9267 18.2722 35.3757L14.0512 25.6677H12.4552C9.34722 25.6677 6.82422 23.1447 6.82422 20.0367C6.82422 16.9287 9.34422 14.4057 12.4552 14.4057H20.7712ZM40.9252 24.7077L42.6502 25.2537C43.2802 25.4547 43.6312 26.1266 43.4302 26.7597C43.2682 27.2696 42.7972 27.5967 42.2872 27.5967C42.1672 27.5967 42.0442 27.5787 41.9242 27.5397L40.1992 26.9937C39.5692 26.7927 39.2182 26.1207 39.4192 25.4877C39.6202 24.8577 40.2922 24.5067 40.9252 24.7077ZM40.5624 15.2636C40.6824 15.2636 40.8054 15.2456 40.9254 15.2066L42.6504 14.6606C43.2834 14.4596 43.6314 13.7846 43.4304 13.1546C43.2294 12.5216 42.5574 12.1736 41.9244 12.3746L40.1994 12.9206C39.5664 13.1216 39.2184 13.7966 39.4194 14.4266C39.5814 14.9366 40.0524 15.2636 40.5624 15.2636ZM42.3685 21.1587H40.5625C39.8995 21.1587 39.3625 20.6217 39.3625 19.9587C39.3625 19.2957 39.8995 18.7587 40.5625 18.7587H42.3685C43.0315 18.7587 43.5685 19.2957 43.5685 19.9587C43.5685 20.6217 43.0315 21.1587 42.3685 21.1587Z" fill="white"/>
</clipPath>
<g clip-path="url(#mask0_5481_99420)">
<g clip-path="url(#clip0_5481_99420)">
<rect x="4.80078" y="6.19629" width="39.3001" height="37.0472" rx="1.03837" fill="#FFECCF"/>
<rect width="39.3001" height="37.0472" transform="translate(4.80078 6.19629)" fill="#FFECCF"/>
<ellipse cx="17.0977" cy="16.1176" rx="17.0977" ry="16.1176" transform="matrix(0.999999 -0.00131734 0.00148243 0.999999 9.90234 -8.46191)" fill="url(#paint0_radial_5481_99420)"/>
<path d="M19.8024 -0.347766C16.7842 -2.10837 12.9601 -2.11915 9.9307 -0.3756L-20.3691 17.064C-23.3365 18.772 -23.3415 22.8035 -20.3781 24.518L9.72151 41.9328C12.7464 43.6827 16.5705 43.6806 19.5928 41.9266L49.6303 24.4955C52.5781 22.7847 52.5835 18.7756 49.6393 17.0584L19.8024 -0.347766Z" fill="url(#paint1_linear_5481_99420)"/>
<path d="M10.4635 23.7851C11.1352 9.95429 23.5737 -0.744495 38.2456 -0.111288C52.9175 0.521918 64.2669 12.2473 63.5951 26.0782C62.9234 39.909 50.485 50.6078 35.8131 49.9746C21.1412 49.3414 9.79181 37.616 10.4635 23.7851Z" fill="url(#paint2_linear_5481_99420)"/>
<path d="M-11.1214 32.905C-5.2893 30.5596 1.00056 30.6602 6.44992 32.7117C17.3542 36.8269 23.6991 34.2826 28.0998 24.0269C30.2918 18.8806 34.5715 14.5222 40.4101 12.1742C52.0837 7.48693 65.5602 12.5729 70.5256 23.5448C75.4909 34.5166 70.0561 47.2006 58.3854 51.894C52.5337 54.2473 46.2317 54.1371 40.774 52.0671C29.8874 47.9739 23.5546 50.5279 19.1594 60.7958C16.9619 65.9298 12.6831 70.2733 6.85105 72.6187C-4.81315 77.3095 -18.2897 72.2235 -23.2523 61.2578C-28.2148 50.2921 -22.7856 37.5958 -11.1214 32.905Z" fill="url(#paint3_linear_5481_99420)"/>
<ellipse cx="17.0977" cy="16.1176" rx="17.0977" ry="16.1176" transform="matrix(0.999999 -0.00131734 0.00148243 0.999999 24.6875 -3.20605)" fill="url(#paint4_radial_5481_99420)"/>
</g>
</g>

</svg>
