<svg width="48" height="48" viewBox="0 0 48 48" xmlns="http://www.w3.org/2000/svg">
  <defs>
<radialGradient id="paint0_radial_5481_99678" cx="0" cy="0" r="1" gradientUnits="userSpaceOnUse" gradientTransform="translate(27.1423 1.86222) rotate(90) scale(20.8826)">
<stop offset="0.166667" stop-color="#FF709F"/>
<stop offset="1" stop-color="#FF709F" stop-opacity="0"/>
</radialGradient>
<linearGradient id="paint1_linear_5481_99678" x1="-12.0622" y1="42.8952" x2="65.9766" y2="-4.58296" gradientUnits="userSpaceOnUse">
<stop offset="0.0598452" stop-color="#8480FE"/>
<stop offset="0.599632" stop-color="#8480FE" stop-opacity="0"/>
</linearGradient>
<linearGradient id="paint2_linear_5481_99678" x1="50.5621" y1="8.84155" x2="17.0836" y2="44.8401" gradientUnits="userSpaceOnUse">
<stop stop-color="#EB1000"/>
<stop offset="1" stop-color="#EB1000" stop-opacity="0"/>
</linearGradient>
<linearGradient id="paint3_linear_5481_99678" x1="9.87765" y1="49.8089" x2="69.2259" y2="16.5628" gradientUnits="userSpaceOnUse">
<stop stop-color="#FC7D00" stop-opacity="0"/>
<stop offset="0.432292" stop-color="#FC7D00"/>
<stop offset="0.609375" stop-color="#FC7D00"/>
<stop offset="1" stop-color="#FC7D00" stop-opacity="0"/>
</linearGradient>
<radialGradient id="paint4_radial_5481_99678" cx="0" cy="0" r="1" gradientUnits="userSpaceOnUse" gradientTransform="translate(45.2009 8.67178) rotate(90) scale(20.8826)">
<stop offset="0.166667" stop-color="#EB1000"/>
<stop offset="1" stop-color="#EB1000" stop-opacity="0"/>
</radialGradient>
<clipPath id="clip0_5481_99678">
<rect width="48" height="48" rx="5.125" fill="white"/>
</clipPath>
</defs>
<clipPath id="mask0_5481_99678">
<path fill-rule="evenodd" d="M11 24.4745V34.9999C11 37.209 12.7909 38.9999 15 38.9999H19L19 24.4372C17.7073 24.2214 16.5695 23.5459 15.7632 22.584C14.7752 23.7625 13.2898 24.5111 11.6316 24.5111C11.418 24.5111 11.2072 24.4987 11 24.4745ZM21.5 24.2682L21.5 32H37V24.4804C36.8098 24.5007 36.6166 24.5111 36.4211 24.5111C34.7628 24.5111 33.2774 23.7625 32.2895 22.584C31.3015 23.7625 29.8161 24.5111 28.1579 24.5111C26.4997 24.5111 25.0143 23.7625 24.0263 22.584C23.3713 23.3653 22.4977 23.9577 21.5 24.2682ZM11.6316 22.0111C13.1596 22.0111 14.403 20.8311 14.5062 19.3459L16.816 18.4716C16.9408 18.6662 17.0132 18.8976 17.0132 19.1457C17.0132 20.7236 18.2987 22.0111 19.8947 22.0111C21.4908 22.0111 22.7763 20.7236 22.7763 19.1457V18.9423C22.7763 18.2519 23.336 17.6923 24.0263 17.6923C24.7167 17.6923 25.2763 18.2519 25.2763 18.9423V19.1457C25.2763 20.7236 26.5618 22.0111 28.1579 22.0111C29.7539 22.0111 31.0395 20.7236 31.0395 19.1457V18.9423C31.0395 18.2519 31.5991 17.6923 32.2895 17.6923C32.9798 17.6923 33.5395 18.2519 33.5395 18.9423V19.1457C33.5395 20.7236 34.825 22.0111 36.4211 22.0111C38.0171 22.0111 39.3026 20.7236 39.3026 19.1457C39.3026 18.2691 39.1108 17.4017 38.7408 16.6052C38.7276 16.5767 38.7155 16.5479 38.7045 16.5187L36.2004 11.1348L16.816 18.4716C16.816 18.4716 16.816 18.4716 16.816 18.4716L36.2001 11.1342C35.9766 10.6549 35.493 10.3457 34.9575 10.3457H13.0991C12.5634 10.3457 12.0796 10.6552 11.8562 11.1348L9.31153 16.6058L9.3112 16.6065C8.94096 17.4013 8.75 18.2681 8.75 19.1457C8.75 20.7236 10.0355 22.0111 11.6316 22.0111ZM16.816 18.4716L14.5062 19.3459L14.5138 19.1063C14.5353 18.4239 15.1003 17.8851 15.7829 17.8958C16.2174 17.9027 16.5973 18.1307 16.816 18.4716ZM21.5 34.5H37V34.9999C37 37.209 35.2091 38.9999 33 38.9999H21.5V34.5Z" fill="white"/>
</clipPath>
<g clip-path="url(#mask0_5481_99678)">
<g clip-path="url(#clip0_5481_99678)">
<rect width="48" height="48" rx="5.125" fill="#FFECCF"/>
<rect width="48" height="48" fill="#FFECCF"/>
<circle cx="27.1423" cy="1.86221" r="20.8826" transform="rotate(-0.0800682 27.1423 1.86221)" fill="url(#paint0_radial_5481_99678)"/>
<path d="M18.3213 -8.47858C14.635 -10.7597 9.96439 -10.7737 6.26433 -8.51465L-30.7429 14.0808C-34.3673 16.2938 -34.3733 21.5172 -30.7539 23.7386L6.00883 46.302C9.70335 48.5691 14.374 48.5664 18.0653 46.2939L54.7523 23.7094C58.3526 21.4928 58.3591 16.2985 54.7632 14.0735L18.3213 -8.47858Z" fill="url(#paint1_linear_5481_99678)"/>
<path d="M6.91632 22.7894C7.73673 4.86956 22.9287 -8.99224 40.8485 -8.17184C58.7683 -7.35143 72.6301 7.84053 71.8097 25.7603C70.9893 43.6802 55.7973 57.542 37.8775 56.7215C19.9577 55.9011 6.09591 40.7092 6.91632 22.7894Z" fill="url(#paint2_linear_5481_99678)"/>
<path d="M-19.4476 34.6052C-12.3244 31.5664 -4.64218 31.6967 2.01351 34.3546C15.3317 39.6865 23.0811 36.39 28.456 23.1023C31.1333 16.4345 36.3604 10.7876 43.4915 7.74541C57.7492 1.67237 74.2091 8.26203 80.2736 22.4776C86.338 36.6931 79.7002 53.1271 65.4459 59.2081C58.2988 62.2571 50.6018 62.1143 43.9359 59.4324C30.6393 54.129 22.9046 57.438 17.5365 70.7417C14.8525 77.3935 9.62658 83.0211 2.50343 86.0599C-11.7429 92.1375 -28.2028 85.5478 -34.2639 71.3402C-40.3249 57.1326 -33.6939 40.6828 -19.4476 34.6052Z" fill="url(#paint3_linear_5481_99678)"/>
<circle cx="45.2009" cy="8.67178" r="20.8826" transform="rotate(-0.0800682 45.2009 8.67178)" fill="url(#paint4_radial_5481_99678)"/>
</g>
</g>

</svg>
