<svg width="160" height="160" viewBox="0 0 160 160" xmlns="http://www.w3.org/2000/svg">
  <defs>
<radialGradient id="paint0_radial_5481_90028" cx="0" cy="0" r="1" gradientUnits="userSpaceOnUse" gradientTransform="translate(90.4677 6.20574) rotate(90) scale(69.6088)">
<stop offset="0.166667" stop-color="#FF709F"/>
<stop offset="1" stop-color="#FF709F" stop-opacity="0"/>
</radialGradient>
<linearGradient id="paint1_linear_5481_90028" x1="-40.2086" y1="142.983" x2="219.921" y2="-15.2772" gradientUnits="userSpaceOnUse">
<stop offset="0.0598452" stop-color="#8480FE"/>
<stop offset="0.599632" stop-color="#8480FE" stop-opacity="0"/>
</linearGradient>
<linearGradient id="paint2_linear_5481_90028" x1="168.544" y1="29.4718" x2="56.9494" y2="149.467" gradientUnits="userSpaceOnUse">
<stop stop-color="#EB1000"/>
<stop offset="1" stop-color="#EB1000" stop-opacity="0"/>
</linearGradient>
<linearGradient id="paint3_linear_5481_90028" x1="32.9255" y1="166.029" x2="230.753" y2="55.2086" gradientUnits="userSpaceOnUse">
<stop stop-color="#FC7D00" stop-opacity="0"/>
<stop offset="0.432292" stop-color="#FC7D00"/>
<stop offset="0.609375" stop-color="#FC7D00"/>
<stop offset="1" stop-color="#FC7D00" stop-opacity="0"/>
</linearGradient>
<radialGradient id="paint4_radial_5481_90028" cx="0" cy="0" r="1" gradientUnits="userSpaceOnUse" gradientTransform="translate(150.675 28.9059) rotate(90) scale(69.6088)">
<stop offset="0.166667" stop-color="#EB1000"/>
<stop offset="1" stop-color="#EB1000" stop-opacity="0"/>
</radialGradient>
<clipPath id="clip0_5481_90028">
<rect width="160" height="160" rx="5.125" fill="white"/>
</clipPath>
</defs>
<clipPath id="mask0_5481_90028">
<path fill-rule="evenodd" d="M78.5878 54.7811C78.5878 62.4666 72.3575 68.6969 64.672 68.6969C56.9864 68.6969 50.7561 62.4666 50.7561 54.7811C50.7561 47.0956 56.9864 40.8652 64.672 40.8652C72.3575 40.8652 78.5878 47.0956 78.5878 54.7811ZM47.2043 58.7813C46.911 57.4951 46.7561 56.1562 46.7561 54.7811C46.7561 53.4061 46.911 52.0674 47.2043 50.7813L28.9998 50.7813C26.7906 50.7813 24.9998 52.5721 24.9998 54.7813C24.9998 56.9904 26.7906 58.7813 28.9998 58.7813L47.2043 58.7813ZM82.1396 58.7813C82.4329 57.495 82.5878 56.1562 82.5878 54.7811C82.5878 53.4061 82.4329 52.0674 82.1396 50.7813L131.749 50.7812C133.958 50.7812 135.749 52.5721 135.749 54.7812C135.749 56.9904 133.958 58.7812 131.749 58.7812L82.1396 58.7813ZM109.243 105.219C109.243 112.904 103.013 119.134 95.3275 119.134C87.642 119.134 81.4116 112.904 81.4116 105.219C81.4116 97.5331 87.642 91.3027 95.3275 91.3027C103.013 91.3027 109.243 97.5331 109.243 105.219ZM77.8601 109.219C77.5668 107.933 77.4119 106.594 77.4119 105.219C77.4119 103.844 77.5668 102.505 77.86 101.219H28.25C26.0409 101.219 24.25 103.01 24.25 105.219C24.25 107.428 26.0409 109.219 28.25 109.219H77.8601ZM112.795 109.219C113.089 107.933 113.244 106.594 113.244 105.219C113.244 103.844 113.089 102.505 112.795 101.219H131.75C133.959 101.219 135.75 103.01 135.75 105.219C135.75 107.428 133.959 109.219 131.75 109.219H112.795Z" fill="white"/>
</clipPath>
<g clip-path="url(#mask0_5481_90028)">
<g clip-path="url(#clip0_5481_90028)">
<rect width="160" height="160" rx="5.125" fill="#FFECCF"/>
<rect width="160" height="160" fill="#FFECCF"/>
<circle cx="90.4677" cy="6.20574" r="69.6087" transform="rotate(-0.0800682 90.4677 6.20574)" fill="url(#paint0_radial_5481_90028)"/>
<path d="M61.0698 -28.2626C48.782 -35.8663 33.2133 -35.9129 20.8798 -28.3828L-102.478 46.9353C-114.559 54.3119 -114.579 71.7234 -102.514 79.1279L20.0281 154.339C32.3432 161.896 47.9119 161.887 60.2163 154.312L182.506 79.0306C194.507 71.6419 194.529 54.3277 182.543 46.9111L61.0698 -28.2626Z" fill="url(#paint1_linear_5481_90028)"/>
<path d="M23.0583 75.9646C25.793 16.2319 76.4328 -29.9741 136.166 -27.2395C195.898 -24.5048 242.104 26.1351 239.37 85.8678C236.635 145.601 185.995 191.807 126.262 189.072C66.5296 186.337 20.3236 135.697 23.0583 75.9646Z" fill="url(#paint2_linear_5481_90028)"/>
<path d="M-64.8253 115.35C-41.0814 105.221 -15.474 105.655 6.71169 114.515C51.1056 132.288 76.9371 121.299 94.8534 77.0069C103.778 54.7811 121.201 35.958 144.972 25.8174C192.497 5.57391 247.364 27.5395 267.579 74.9246C287.793 122.31 265.667 177.09 218.153 197.36C194.329 207.523 168.673 207.047 146.453 198.107C102.131 180.429 76.3488 191.459 58.4551 235.805C49.5082 257.978 32.0886 276.736 8.34476 286.866C-39.1429 307.124 -94.0093 285.159 -114.213 237.8C-134.416 190.441 -112.313 135.609 -64.8253 115.35Z" fill="url(#paint3_linear_5481_90028)"/>
<circle cx="150.675" cy="28.9059" r="69.6087" transform="rotate(-0.0800682 150.675 28.9059)" fill="url(#paint4_radial_5481_90028)"/>
</g>
</g>

</svg>
