<svg width="48" height="48" viewBox="0 0 48 48" xmlns="http://www.w3.org/2000/svg">
  <defs>
<radialGradient id="paint0_radial_5481_99675" cx="0" cy="0" r="1" gradientUnits="userSpaceOnUse" gradientTransform="translate(27.1423 1.86222) rotate(90) scale(20.8826)">
<stop offset="0.166667" stop-color="#FF709F"/>
<stop offset="1" stop-color="#FF709F" stop-opacity="0"/>
</radialGradient>
<linearGradient id="paint1_linear_5481_99675" x1="-12.0622" y1="42.8952" x2="65.9766" y2="-4.58296" gradientUnits="userSpaceOnUse">
<stop offset="0.0598452" stop-color="#8480FE"/>
<stop offset="0.599632" stop-color="#8480FE" stop-opacity="0"/>
</linearGradient>
<linearGradient id="paint2_linear_5481_99675" x1="50.5621" y1="8.84155" x2="17.0836" y2="44.8401" gradientUnits="userSpaceOnUse">
<stop stop-color="#EB1000"/>
<stop offset="1" stop-color="#EB1000" stop-opacity="0"/>
</linearGradient>
<linearGradient id="paint3_linear_5481_99675" x1="9.87765" y1="49.8089" x2="69.2259" y2="16.5628" gradientUnits="userSpaceOnUse">
<stop stop-color="#FC7D00" stop-opacity="0"/>
<stop offset="0.432292" stop-color="#FC7D00"/>
<stop offset="0.609375" stop-color="#FC7D00"/>
<stop offset="1" stop-color="#FC7D00" stop-opacity="0"/>
</linearGradient>
<radialGradient id="paint4_radial_5481_99675" cx="0" cy="0" r="1" gradientUnits="userSpaceOnUse" gradientTransform="translate(45.2009 8.67178) rotate(90) scale(20.8826)">
<stop offset="0.166667" stop-color="#EB1000"/>
<stop offset="1" stop-color="#EB1000" stop-opacity="0"/>
</radialGradient>
<clipPath id="clip0_5481_99675">
<rect width="48" height="48" rx="5.125" fill="white"/>
</clipPath>
</defs>
<clipPath id="mask0_5481_99675">
<path fill-rule="evenodd" d="M29.2515 8.22244C29.1366 8.18388 29.0211 8.14656 28.9051 8.11048C28.8727 8.20021 28.8295 8.28764 28.7751 8.37099C28.438 8.8871 27.8497 9.69459 27.06 10.3859C26.2827 11.0663 25.1761 11.75 23.8265 11.75C21.0913 11.75 19.3852 9.66601 18.7207 8.42666C18.691 8.37134 18.6659 8.31479 18.6453 8.25744C17.4558 8.66531 16.3278 9.2053 15.2785 9.85988C15.3159 9.9306 15.347 10.006 15.3709 10.0855C15.5174 10.5726 15.8998 11.3786 16.4085 12.1045C16.6585 12.4613 16.9162 12.7657 17.1603 12.9895C17.4149 13.223 17.5904 13.3095 17.6711 13.3326C18.249 13.4977 18.9819 13.4738 19.9376 13.4428L20.124 13.4368C20.599 13.4217 21.1344 13.4103 21.635 13.4616C22.1266 13.5119 22.7186 13.6334 23.238 13.9797C24.2204 14.6346 24.5828 15.6848 24.4136 16.6717C24.254 17.6026 23.6403 18.4293 22.7877 18.9029C22.3103 19.1681 22.0194 19.4037 21.848 19.624C21.6998 19.8146 21.6108 20.03 21.6108 20.358C21.6108 21.0086 21.5329 21.9039 20.9043 22.5674C20.2339 23.275 19.2874 23.3731 18.4372 23.3022C18.3465 23.2947 18.255 23.2867 18.1629 23.2788C17.4564 23.2176 16.713 23.1533 16.0271 23.225C15.2335 23.308 14.9066 23.535 14.7732 23.7685C14.6106 24.0531 14.4495 24.4911 14.487 24.964C14.5204 25.3861 14.7214 25.99 15.5605 26.6614C16.4603 27.3814 17.4523 27.6068 19.6492 27.8509C21.0729 28.0092 22.2407 28.3449 23.1197 28.9655C24.0507 29.6229 24.5408 30.5157 24.741 31.5175C25.061 33.1188 24.51 34.9809 23.9071 36.5363C23.5919 37.3496 23.2311 38.153 22.8936 38.8872C22.814 39.0603 22.7363 39.2284 22.6608 39.3917L22.6607 39.3918L22.6607 39.3919C22.516 39.7048 22.3797 39.9997 22.2543 40.2779C22.828 40.3382 23.4104 40.3691 24 40.3691C27.8965 40.3691 31.4775 39.0185 34.3005 36.7599C34.2994 36.7385 34.2988 36.717 34.2988 36.6953C34.2988 36.3703 34.3186 35.9474 34.3392 35.5061C34.3446 35.3911 34.35 35.2749 34.3552 35.1588C34.3812 34.5735 34.4034 33.9397 34.3935 33.3116C34.3835 32.6798 34.3414 32.0859 34.2484 31.5788C34.1526 31.0559 34.0194 30.721 33.8911 30.5357C33.5034 29.9757 33.1259 29.7595 32.5826 29.5057C32.5207 29.4767 32.4552 29.4469 32.3865 29.4156L32.3863 29.4155C31.819 29.1573 31.0358 28.8007 30.2741 28.0389C29.7638 27.5285 27.8138 25.1597 29.258 21.2613C29.7823 19.8458 31.0182 19.1481 32.2181 18.823C33.4148 18.4988 34.7892 18.4774 36.0246 18.5612C37.2778 18.6462 38.4818 18.8471 39.3762 19.0229C39.5273 19.0526 39.67 19.0817 39.8031 19.1095C39.4328 17.8782 38.9225 16.7076 38.2908 15.616C37.7689 16.1477 37.0846 16.6771 36.2849 17.0736C35.1099 17.6563 33.608 17.9867 31.9914 17.5105C29.8077 16.8672 29.1201 14.8653 28.9462 13.1784C28.7695 11.4656 29.0485 9.55956 29.2426 8.27431C29.2452 8.25688 29.2482 8.23959 29.2515 8.22244ZM40.3705 21.7916C40.3297 21.7839 40.2852 21.7745 40.2445 21.7656C40.1853 21.7528 40.1092 21.7357 40.0246 21.7166L39.9218 21.6935C39.6634 21.6356 39.312 21.5581 38.894 21.476C38.0539 21.3108 36.9633 21.1307 35.8553 21.0555C34.7296 20.9791 33.6762 21.0181 32.8718 21.2361C32.0706 21.4531 31.7322 21.7791 31.6023 22.1298C30.6194 24.7829 31.9336 26.1629 32.042 26.2713C32.4706 26.7 32.859 26.8793 33.427 27.1415C33.4955 27.1732 33.5667 27.206 33.6408 27.2407C34.3596 27.5765 35.1953 28.0275 35.9466 29.1127C36.3643 29.716 36.5828 30.4478 36.7075 31.1281C36.835 31.8242 36.8821 32.5698 36.8932 33.2722C36.8979 33.5759 36.896 33.8776 36.8902 34.1703C39.1491 31.3472 40.5 27.7659 40.5 23.8691C40.5 23.1655 40.456 22.4721 40.3705 21.7916ZM7.5 23.8691C7.5 18.8914 9.70426 14.4284 13.1899 11.4032C13.4642 12.0792 13.8783 12.8502 14.3611 13.5391C14.6818 13.9969 15.0559 14.4519 15.4708 14.8322C15.875 15.2028 16.3857 15.5653 16.9843 15.7364C17.9642 16.0163 19.0982 15.9752 19.9447 15.9445C20.0343 15.9412 20.1207 15.9381 20.2033 15.9355C20.6838 15.9202 21.0659 15.9164 21.3805 15.9486C21.7039 15.9817 21.8247 16.0421 21.8513 16.0598C21.9291 16.1117 21.9439 16.148 21.9462 16.1536L21.9463 16.1539C21.9503 16.1635 21.9594 16.1919 21.9496 16.2493C21.9272 16.3799 21.813 16.5845 21.5736 16.7175C20.9591 17.0589 20.3401 17.4906 19.8746 18.0892C19.3859 18.7176 19.1108 19.4728 19.1108 20.358C19.1108 20.5771 19.0956 20.7205 19.0773 20.8107C18.9955 20.8218 18.8581 20.8286 18.6448 20.8108C18.567 20.8044 18.4829 20.7969 18.3932 20.789H18.3932L18.3932 20.789C17.711 20.7285 16.7112 20.6398 15.767 20.7386C14.7172 20.8484 13.3454 21.2281 12.6025 22.5283C12.2799 23.093 11.9056 24.0345 11.9948 25.1612C12.0879 26.3387 12.6753 27.5547 13.9986 28.6134C15.5248 29.8346 17.2032 30.0945 19.3731 30.3356C20.6049 30.4725 21.2921 30.7355 21.6778 31.0078C22.0114 31.2433 22.1956 31.5375 22.2895 32.0073C22.4543 32.8325 22.1763 34.0844 21.5761 35.6328C21.2898 36.3714 20.9557 37.1174 20.6221 37.843C20.5495 38.001 20.4763 38.1592 20.4035 38.3166L20.4035 38.3167C20.1625 38.8377 19.926 39.3491 19.7283 39.8108C12.6863 37.9287 7.5 31.5046 7.5 23.8691ZM36.83 13.4933C35.4117 11.7417 33.642 10.2864 31.6282 9.2345C31.4582 10.4296 31.3139 11.7673 31.433 12.9219C31.5747 14.2958 32.0175 14.912 32.6978 15.1124C33.5671 15.3684 34.4135 15.2111 35.1742 14.8339C35.9242 14.462 36.5156 13.91 36.83 13.4933ZM24 7.36914C24.7841 7.36914 25.5554 7.42383 26.3103 7.5296C26.0636 7.85229 25.7593 8.20197 25.4134 8.50476C24.852 8.99617 24.3137 9.25 23.8265 9.25C22.6402 9.25 21.6972 8.4307 21.1473 7.61485C22.0739 7.45334 23.0271 7.36914 24 7.36914Z" fill="white"/>
</clipPath>
<g clip-path="url(#mask0_5481_99675)">
<g clip-path="url(#clip0_5481_99675)">
<rect width="48" height="48" rx="5.125" fill="#FFECCF"/>
<rect width="48" height="48" fill="#FFECCF"/>
<circle cx="27.1423" cy="1.86221" r="20.8826" transform="rotate(-0.0800682 27.1423 1.86221)" fill="url(#paint0_radial_5481_99675)"/>
<path d="M18.3213 -8.47858C14.635 -10.7597 9.96439 -10.7737 6.26433 -8.51465L-30.7429 14.0808C-34.3673 16.2938 -34.3733 21.5172 -30.7539 23.7386L6.00883 46.302C9.70335 48.5691 14.374 48.5664 18.0653 46.2939L54.7523 23.7094C58.3526 21.4928 58.3591 16.2985 54.7632 14.0735L18.3213 -8.47858Z" fill="url(#paint1_linear_5481_99675)"/>
<path d="M6.91632 22.7894C7.73673 4.86956 22.9287 -8.99224 40.8485 -8.17184C58.7683 -7.35143 72.6301 7.84053 71.8097 25.7603C70.9893 43.6802 55.7973 57.542 37.8775 56.7215C19.9577 55.9011 6.09591 40.7092 6.91632 22.7894Z" fill="url(#paint2_linear_5481_99675)"/>
<path d="M-19.4476 34.6052C-12.3244 31.5664 -4.64218 31.6967 2.01351 34.3546C15.3317 39.6865 23.0811 36.39 28.456 23.1023C31.1333 16.4345 36.3604 10.7876 43.4915 7.74541C57.7492 1.67237 74.2091 8.26203 80.2736 22.4776C86.338 36.6931 79.7002 53.1271 65.4459 59.2081C58.2988 62.2571 50.6018 62.1143 43.9359 59.4324C30.6393 54.129 22.9046 57.438 17.5365 70.7417C14.8525 77.3935 9.62658 83.0211 2.50343 86.0599C-11.7429 92.1375 -28.2028 85.5478 -34.2639 71.3402C-40.3249 57.1326 -33.6939 40.6828 -19.4476 34.6052Z" fill="url(#paint3_linear_5481_99675)"/>
<circle cx="45.2009" cy="8.67178" r="20.8826" transform="rotate(-0.0800682 45.2009 8.67178)" fill="url(#paint4_radial_5481_99675)"/>
</g>
</g>

</svg>
