<svg width="96" height="96" viewBox="0 0 96 96" xmlns="http://www.w3.org/2000/svg">
  <defs>
<radialGradient id="paint0_radial_5481_99422" cx="0" cy="0" r="1" gradientUnits="userSpaceOnUse" gradientTransform="translate(34.1954 32.2352) rotate(90) scale(32.2352 34.1954)">
<stop offset="0.166667" stop-color="#FF709F"/>
<stop offset="1" stop-color="#FF709F" stop-opacity="0"/>
</radialGradient>
<linearGradient id="paint1_linear_5481_99422" x1="-11.9531" y1="78.6069" x2="111.651" y2="-1.16594" gradientUnits="userSpaceOnUse">
<stop offset="0.0598452" stop-color="#8480FE"/>
<stop offset="0.599632" stop-color="#8480FE" stop-opacity="0"/>
</linearGradient>
<linearGradient id="paint2_linear_5481_99422" x1="90.5965" y1="26.0409" x2="39.2273" y2="84.6359" gradientUnits="userSpaceOnUse">
<stop stop-color="#EB1000"/>
<stop offset="1" stop-color="#EB1000" stop-opacity="0"/>
</linearGradient>
<linearGradient id="paint3_linear_5481_99422" x1="23.9766" y1="89.279" x2="118.335" y2="33.2063" gradientUnits="userSpaceOnUse">
<stop stop-color="#FC7D00" stop-opacity="0"/>
<stop offset="0.432292" stop-color="#FC7D00"/>
<stop offset="0.609375" stop-color="#FC7D00"/>
<stop offset="1" stop-color="#FC7D00" stop-opacity="0"/>
</linearGradient>
<radialGradient id="paint4_radial_5481_99422" cx="0" cy="0" r="1" gradientUnits="userSpaceOnUse" gradientTransform="translate(34.1954 32.2352) rotate(90) scale(32.2352 34.1954)">
<stop offset="0.166667" stop-color="#EB1000"/>
<stop offset="1" stop-color="#EB1000" stop-opacity="0"/>
</radialGradient>
<clipPath id="clip0_5481_99422">
<rect x="7.80078" y="12.3926" width="78.6002" height="74.0945" rx="2.07674" fill="white"/>
</clipPath>
</defs>
<clipPath id="mask0_5481_99422">
<path fill-rule="evenodd" d="M76.8675 16.9462C76.8887 15.6209 75.8315 14.5293 74.5062 14.5081C73.1809 14.4869 72.0893 15.5441 72.0681 16.8694L72.0346 18.9683L69.9321 18.9361C68.6068 18.9158 67.5159 19.9737 67.4956 21.299C67.4753 22.6244 68.5332 23.7152 69.8585 23.7355L71.9578 23.7677L71.9241 25.8694C71.9029 27.1947 72.9601 28.2863 74.2854 28.3075C75.6108 28.3287 76.7023 27.2715 76.7235 25.9462L76.7572 23.8413L78.8585 23.8735C80.1839 23.8939 81.2747 22.8359 81.295 21.5106C81.3154 20.1853 80.2574 19.0944 78.9321 19.0741L76.834 19.0419L76.8675 16.9462ZM40.1943 18.4739C40.1943 17.1484 39.1197 16.0739 37.7943 16.0739C36.4688 16.0739 35.3943 17.1484 35.3943 18.4739V24.5579C35.3943 25.8834 36.4688 26.9579 37.7943 26.9579C39.1197 26.9579 40.1943 25.8834 40.1943 24.5579V18.4739ZM25.178 20.1677C26.2506 19.389 27.7514 19.6273 28.5301 20.6999L32.1061 25.6259C32.8848 26.6986 32.6465 28.1994 31.5738 28.9781C30.5012 29.7567 29.0004 29.5184 28.2217 28.4458L24.6457 23.5198C23.867 22.4471 24.1053 20.9464 25.178 20.1677ZM20.3981 29.3672C19.1374 28.9579 17.7836 29.648 17.3742 30.9087C16.9649 32.1694 17.6551 33.5232 18.9158 33.9326L24.6998 35.8106C25.9605 36.2199 27.3143 35.5297 27.7236 34.269C28.1329 33.0084 27.4428 31.6545 26.1821 31.2452L20.3981 29.3672ZM27.7237 40.8154C28.1327 42.0762 27.4421 43.4298 26.1813 43.8388L20.3913 45.7168C19.1304 46.1257 17.7768 45.4352 17.3679 44.1743C16.9589 42.9135 17.6495 41.5599 18.9103 41.151L24.7003 39.273C25.9611 38.864 27.3148 39.5546 27.7237 40.8154ZM32.0994 49.4649C32.8787 48.3927 32.6413 46.8918 31.5691 46.1125C30.4969 45.3332 28.996 45.5706 28.2167 46.6428L24.6407 51.5628C23.8614 52.635 24.0988 54.136 25.171 54.9153C26.2432 55.6946 27.7441 55.4571 28.5234 54.3849L32.0994 49.4649ZM40.1887 50.5319C40.1887 49.2064 39.1142 48.1319 37.7887 48.1319C36.4632 48.1319 35.3887 49.2064 35.3887 50.5319V56.6159C35.3887 57.9414 36.4632 59.0159 37.7887 59.0159C39.1142 59.0159 40.1887 57.9414 40.1887 56.6159V50.5319ZM50.4214 20.1745C51.4936 20.9538 51.7311 22.4547 50.9518 23.5269L47.3758 28.4469C46.5965 29.5191 45.0955 29.7566 44.0233 28.9773C42.9511 28.198 42.7137 26.697 43.493 25.6248L47.069 20.7048C47.8483 19.6326 49.3492 19.3952 50.4214 20.1745ZM56.6739 33.9386C57.9346 33.5293 58.6248 32.1754 58.2154 30.9147C57.8061 29.654 56.4523 28.9639 55.1916 29.3732L49.4076 31.2512C48.1469 31.6605 47.4567 33.0144 47.8661 34.2751C48.2754 35.5358 49.6292 36.2259 50.8899 35.8166L56.6739 33.9386ZM47.8661 40.8207C48.2754 39.56 49.6292 38.8699 50.8899 39.2792L56.6739 41.1572C57.9346 41.5665 58.6248 42.9204 58.2154 44.1811C57.8061 45.4418 56.4523 46.1319 55.1916 45.7226L49.4076 43.8446C48.1469 43.4352 47.4567 42.0814 47.8661 40.8207ZM47.3707 46.644C46.592 45.5713 45.0912 45.333 44.0186 46.1117C42.946 46.8904 42.7076 48.3912 43.4863 49.4638L47.0623 54.3898C47.841 55.4625 49.3418 55.7008 50.4144 54.9221C51.4871 54.1434 51.7254 52.6426 50.9467 51.57L47.3707 46.644ZM65.4221 68.9759C66.7476 68.9812 67.8177 70.0601 67.8124 71.3856L67.8004 74.3556C67.795 75.681 66.7162 76.7512 65.3907 76.7458C64.0652 76.7405 62.9951 75.6616 63.0004 74.3362L63.0124 71.3662C63.0178 70.0407 64.0966 68.9705 65.4221 68.9759ZM60.0581 69.6851C61.2086 69.0269 61.6077 67.5606 60.9495 66.4101C60.2913 65.2596 58.8251 64.8605 57.6746 65.5187L55.0946 66.9947C53.944 67.6529 53.5449 69.1191 54.2031 70.2697C54.8613 71.4202 56.3276 71.8193 57.4781 71.1611L60.0581 69.6851ZM54.218 57.341C54.8845 56.1953 56.3536 55.8068 57.4993 56.4734L60.0673 57.9674C61.2131 58.6339 61.6015 60.103 60.9349 61.2487C60.2684 62.3944 58.7993 62.7828 57.6536 62.1163L55.0856 60.6223C53.9399 59.9558 53.5515 58.4867 54.218 57.341ZM67.8124 53.2956C67.8177 51.9701 66.7476 50.8913 65.4221 50.8859C64.0966 50.8806 63.0178 51.9508 63.0124 53.2762L63.0004 56.2462C62.9951 57.5717 64.0652 58.6505 65.3907 58.6559C66.7162 58.6613 67.795 57.5911 67.8004 56.2656L67.8124 53.2956ZM76.6167 57.3621C77.2749 58.5126 76.8758 59.9789 75.7253 60.6371L73.1453 62.1131C71.9948 62.7713 70.5285 62.3722 69.8703 61.2217C69.2121 60.0712 69.6112 58.6049 70.7617 57.9467L73.3417 56.4707C74.4923 55.8125 75.9585 56.2116 76.6167 57.3621ZM73.1663 65.5154C72.0206 64.8489 70.5514 65.2373 69.8849 66.383C69.2184 67.5287 69.6068 68.9979 70.7525 69.6644L73.3205 71.1584C74.4662 71.8249 75.9353 71.4365 76.6019 70.2908C77.2684 69.1451 76.88 67.676 75.7343 67.0094L73.1663 65.5154ZM14.0901 74.6931C14.1105 73.3677 15.2013 72.3098 16.5266 72.3301L18.6244 72.3623L18.6566 70.2591C18.677 68.9337 19.7678 67.8758 21.0932 67.8961C22.4185 67.9165 23.4764 69.0073 23.4561 70.3327L23.4238 72.4359L25.5266 72.4681C26.852 72.4885 27.9099 73.5793 27.8896 74.9046C27.8692 76.23 26.7784 77.2879 25.4531 77.2676L23.3502 77.2353L23.3181 79.3326C23.2978 80.658 22.2069 81.7159 20.8816 81.6956C19.5562 81.6753 18.4983 80.5844 18.5186 79.2591L18.5508 77.1617L16.4531 77.1296C15.1277 77.1092 14.0698 76.0184 14.0901 74.6931Z" fill="white"/>
</clipPath>
<g clip-path="url(#mask0_5481_99422)">
<g clip-path="url(#clip0_5481_99422)">
<rect x="7.80078" y="12.3926" width="78.6002" height="74.0945" rx="2.07674" fill="#FFECCF"/>
<rect width="78.6002" height="74.0945" transform="translate(7.80078 12.3926)" fill="#FFECCF"/>
<ellipse cx="34.1954" cy="32.2352" rx="34.1954" ry="32.2352" transform="matrix(0.999999 -0.00131734 0.00148243 0.999999 18 -16.9238)" fill="url(#paint0_radial_5481_99422)"/>
<path d="M37.8001 -0.695531C31.7637 -4.21674 24.1156 -4.23831 18.0567 -0.7512L-42.5428 34.1279C-48.4778 37.5439 -48.4877 45.6071 -42.5608 49.036L17.6383 83.8656C23.6881 87.3653 31.3363 87.3612 37.3808 83.8532L97.4559 48.9909C103.351 45.5693 103.362 37.5513 97.4739 34.1167L37.8001 -0.695531Z" fill="url(#paint1_linear_5481_99422)"/>
<path d="M19.1263 47.5712C20.4697 19.9096 45.3466 -1.48801 74.6904 -0.2216C104.034 1.04481 126.733 24.4957 125.39 52.1573C124.046 79.819 99.1692 101.217 69.8254 99.9501C40.4816 98.6837 17.7828 75.2329 19.1263 47.5712Z" fill="url(#paint2_linear_5481_99422)"/>
<path d="M-24.0436 65.8101C-12.3794 61.1193 0.200335 61.3204 11.0991 65.4234C32.9077 73.6539 45.5974 68.5652 54.3988 48.0538C58.7829 37.7613 67.3422 29.0445 79.0195 24.3484C102.367 14.9739 129.32 25.1459 139.25 47.0895C149.181 69.0331 138.311 94.4012 114.97 103.788C103.267 108.495 90.6626 108.274 79.7472 104.134C57.9739 95.9477 45.3084 101.056 36.5181 121.592C32.1229 131.86 23.5655 140.547 11.9013 145.237C-11.4271 154.619 -38.3803 144.447 -48.3053 122.516C-58.2303 100.584 -47.372 75.1917 -24.0436 65.8101Z" fill="url(#paint3_linear_5481_99422)"/>
<ellipse cx="34.1954" cy="32.2352" rx="34.1954" ry="32.2352" transform="matrix(0.999999 -0.00131734 0.00148243 0.999999 47.5781 -6.41113)" fill="url(#paint4_radial_5481_99422)"/>
</g>
</g>

</svg>
