<svg width="96" height="96" viewBox="0 0 96 96" xmlns="http://www.w3.org/2000/svg">
  <defs>
<radialGradient id="paint0_radial_5481_99668" cx="0" cy="0" r="1" gradientUnits="userSpaceOnUse" gradientTransform="translate(54.2806 3.72345) rotate(90) scale(41.7653)">
<stop offset="0.166667" stop-color="#FF709F"/>
<stop offset="1" stop-color="#FF709F" stop-opacity="0"/>
</radialGradient>
<linearGradient id="paint1_linear_5481_99668" x1="-24.1244" y1="85.7895" x2="131.953" y2="-9.16689" gradientUnits="userSpaceOnUse">
<stop offset="0.0598452" stop-color="#8480FE"/>
<stop offset="0.599632" stop-color="#8480FE" stop-opacity="0"/>
</linearGradient>
<linearGradient id="paint2_linear_5481_99668" x1="101.128" y1="17.6831" x2="34.1712" y2="89.6803" gradientUnits="userSpaceOnUse">
<stop stop-color="#EB1000"/>
<stop offset="1" stop-color="#EB1000" stop-opacity="0"/>
</linearGradient>
<linearGradient id="paint3_linear_5481_99668" x1="19.7553" y1="99.6167" x2="138.452" y2="33.1246" gradientUnits="userSpaceOnUse">
<stop stop-color="#FC7D00" stop-opacity="0"/>
<stop offset="0.432292" stop-color="#FC7D00"/>
<stop offset="0.609375" stop-color="#FC7D00"/>
<stop offset="1" stop-color="#FC7D00" stop-opacity="0"/>
</linearGradient>
<radialGradient id="paint4_radial_5481_99668" cx="0" cy="0" r="1" gradientUnits="userSpaceOnUse" gradientTransform="translate(90.4056 17.3436) rotate(90) scale(41.7653)">
<stop offset="0.166667" stop-color="#EB1000"/>
<stop offset="1" stop-color="#EB1000" stop-opacity="0"/>
</radialGradient>
<clipPath id="clip0_5481_99668">
<rect width="96" height="96" rx="5.125" fill="white"/>
</clipPath>
</defs>
<clipPath id="mask0_5481_99668">
<path fill-rule="evenodd" d="M13.4922 16.1523C12.3876 16.1523 11.4922 17.0478 11.4922 18.1523C11.4922 19.2569 12.3876 20.1523 13.4922 20.1523C13.6115 20.1523 13.8563 20.154 14.2173 20.1563L14.218 20.1563C14.5401 20.1585 14.9544 20.1612 15.4545 20.1639C16.5048 20.1697 17.9108 20.1753 19.5658 20.1747C21.553 20.174 23.2438 21.6044 23.5638 23.5452L29.454 59.2663C30.0911 63.1301 33.4315 65.9647 37.3474 65.9647H69.6855C70.7901 65.9647 71.6855 65.0693 71.6855 63.9647C71.6855 62.8602 70.7901 61.9647 69.6855 61.9647H37.3474C35.3895 61.9647 33.7193 60.5474 33.4007 58.6155L32.1455 51.003H67.1777C70.0438 51.003 72.5097 48.9759 73.0643 46.164L75.5341 33.6423C76.2635 29.9443 73.4451 26.4901 69.6659 26.4846C57.2105 26.4667 39.1666 26.4832 30.8236 26.4909H30.8222H30.8216L30.8216 26.4909L28.104 26.4933L27.5105 22.8944C26.8686 19.0013 23.4899 16.1733 19.5644 16.1747C17.9192 16.1753 16.5213 16.1697 15.4764 16.164C15.003 16.1614 14.5972 16.1587 14.2734 16.1566L14.2734 16.1566L14.2733 16.1566L14.2733 16.1566C13.8901 16.1541 13.6219 16.1523 13.4922 16.1523ZM41.0088 78C41.0088 80.7614 38.7702 83 36.0088 83C33.2474 83 31.0088 80.7614 31.0088 78C31.0088 75.2386 33.2474 73 36.0088 73C38.7702 73 41.0088 75.2386 41.0088 78ZM65.9326 83C68.694 83 70.9326 80.7614 70.9326 78C70.9326 75.2386 68.694 73 65.9326 73C63.1712 73 60.9326 75.2386 60.9326 78C60.9326 80.7614 63.1712 83 65.9326 83Z" fill="white"/>
</clipPath>
<g clip-path="url(#mask0_5481_99668)">
<g clip-path="url(#clip0_5481_99668)">
<rect width="96" height="96" rx="5.125" fill="#FFECCF"/>
<rect width="96" height="96" fill="#FFECCF"/>
<circle cx="54.2806" cy="3.72345" r="41.7653" transform="rotate(-0.0800682 54.2806 3.72345)" fill="url(#paint0_radial_5481_99668)"/>
<path d="M36.6427 -16.9581C29.27 -21.5204 19.9288 -21.5483 12.5287 -17.0303L-61.4858 28.1606C-68.7346 32.5865 -68.7467 43.0335 -61.5078 47.4761L12.0177 92.6029C19.4067 97.1373 28.7479 97.1319 36.1306 92.5868L109.505 47.4178C116.705 42.9845 116.718 32.596 109.526 28.1461L36.6427 -16.9581Z" fill="url(#paint1_linear_5481_99668)"/>
<path d="M13.8365 45.5788C15.4774 9.73912 45.8613 -17.9845 81.7009 -16.3437C117.541 -14.7029 145.264 15.6811 143.623 51.5207C141.982 87.3603 111.599 115.084 75.759 113.443C39.9193 111.802 12.1957 81.4184 13.8365 45.5788Z" fill="url(#paint2_linear_5481_99668)"/>
<path d="M-38.8952 69.2093C-24.6489 63.1318 -9.28437 63.3923 4.02702 68.7083C30.6634 79.3721 46.1622 72.779 56.9121 46.2036C62.2666 32.8681 72.7207 21.5742 86.983 15.4898C115.498 3.34376 148.418 16.5231 160.547 44.9542C172.676 73.3853 159.4 106.253 130.892 118.415C116.598 124.513 101.204 124.228 87.8718 118.864C61.2786 108.257 45.8093 114.875 35.073 141.482C29.7049 154.786 19.2532 166.041 5.00686 172.119C-23.4858 184.274 -56.4056 171.095 -68.5277 142.679C-80.6499 114.264 -67.3878 81.3645 -38.8952 69.2093Z" fill="url(#paint3_linear_5481_99668)"/>
<circle cx="90.4056" cy="17.3436" r="41.7653" transform="rotate(-0.0800682 90.4056 17.3436)" fill="url(#paint4_radial_5481_99668)"/>
</g>
</g>

</svg>
