<svg width="160" height="160" viewBox="0 0 160 160" xmlns="http://www.w3.org/2000/svg">
  <defs>
<radialGradient id="paint0_radial_5481_90046" cx="0" cy="0" r="1" gradientUnits="userSpaceOnUse" gradientTransform="translate(90.4677 6.20574) rotate(90) scale(69.6088)">
<stop offset="0.166667" stop-color="#FF709F"/>
<stop offset="1" stop-color="#FF709F" stop-opacity="0"/>
</radialGradient>
<linearGradient id="paint1_linear_5481_90046" x1="-40.2086" y1="142.983" x2="219.921" y2="-15.2772" gradientUnits="userSpaceOnUse">
<stop offset="0.0598452" stop-color="#8480FE"/>
<stop offset="0.599632" stop-color="#8480FE" stop-opacity="0"/>
</linearGradient>
<linearGradient id="paint2_linear_5481_90046" x1="168.544" y1="29.4718" x2="56.9494" y2="149.467" gradientUnits="userSpaceOnUse">
<stop stop-color="#EB1000"/>
<stop offset="1" stop-color="#EB1000" stop-opacity="0"/>
</linearGradient>
<linearGradient id="paint3_linear_5481_90046" x1="32.9255" y1="166.029" x2="230.753" y2="55.2086" gradientUnits="userSpaceOnUse">
<stop stop-color="#FC7D00" stop-opacity="0"/>
<stop offset="0.432292" stop-color="#FC7D00"/>
<stop offset="0.609375" stop-color="#FC7D00"/>
<stop offset="1" stop-color="#FC7D00" stop-opacity="0"/>
</linearGradient>
<radialGradient id="paint4_radial_5481_90046" cx="0" cy="0" r="1" gradientUnits="userSpaceOnUse" gradientTransform="translate(150.675 28.9059) rotate(90) scale(69.6088)">
<stop offset="0.166667" stop-color="#EB1000"/>
<stop offset="1" stop-color="#EB1000" stop-opacity="0"/>
</radialGradient>
<clipPath id="clip0_5481_90046">
<rect width="160" height="160" rx="5.125" fill="white"/>
</clipPath>
</defs>
<clipPath id="mask0_5481_90046">
<path fill-rule="evenodd" d="M127.749 44.5088C127.749 44.4815 127.75 44.4541 127.75 44.4268C127.75 37.5734 106.371 32.0176 79.9998 32.0176C53.6283 32.0176 32.25 37.5734 32.25 44.4268C32.25 44.4541 32.2503 44.4815 32.251 44.5088H32.2505V44.7064C32.4098 45.2223 32.9441 46.137 34.6239 47.3684C36.7468 48.9244 40.075 50.4933 44.5475 51.8799C53.4441 54.6382 65.9793 56.4055 79.9998 56.4055C94.0203 56.4055 106.555 54.6382 115.452 51.8799C119.925 50.4933 123.253 48.9244 125.376 47.3684C127.059 46.1346 127.592 45.2187 127.75 44.7034V44.5088H127.749ZM32.2505 62.557V55.353C35.0314 56.9684 38.4152 58.3544 42.1784 59.5211C52.0341 62.5767 65.4052 64.4055 79.9998 64.4055C94.5944 64.4055 107.965 62.5767 117.821 59.5211C121.585 58.3543 124.969 56.9681 127.75 55.3524V62.554C127.592 63.0692 127.059 63.9852 125.376 65.219C123.253 66.775 119.925 68.3439 115.452 69.7305C106.555 72.4888 94.0203 74.256 79.9998 74.256C65.9793 74.256 53.4441 72.4888 44.5475 69.7305C40.075 68.3439 36.7468 66.775 34.6239 65.219C32.9441 63.9876 32.4098 63.0729 32.2505 62.557ZM127.75 73.203C124.969 74.8187 121.585 76.2048 117.821 77.3717C107.965 80.4273 94.5944 82.256 79.9998 82.256C65.4052 82.256 52.0341 80.4273 42.1784 77.3717C38.4152 76.205 35.0314 74.819 32.2505 73.2035V80.3646C32.4098 80.8805 32.9441 81.7952 34.6239 83.0266C36.7468 84.5826 40.075 86.1515 44.5475 87.5381C53.4441 90.2964 65.9793 92.0637 79.9998 92.0637C94.0203 92.0637 106.555 90.2964 115.452 87.5381C119.925 86.1515 123.253 84.5826 125.376 83.0266C127.059 81.7928 127.592 80.8769 127.75 80.3616V73.203ZM32.2505 98.2602V91.0112C35.0314 92.6266 38.4152 94.0126 42.1784 95.1793C52.0341 98.2349 65.4052 100.064 79.9998 100.064C94.5944 100.064 107.965 98.2349 117.821 95.1793C121.585 94.0125 124.969 92.6263 127.75 91.0106V98.2571C127.592 98.7724 127.059 99.6883 125.376 100.922C123.253 102.478 119.925 104.047 115.452 105.434C106.555 108.192 94.0203 109.959 79.9998 109.959C65.9793 109.959 53.4441 108.192 44.5475 105.434C40.075 104.047 36.7468 102.478 34.6239 100.922C32.9441 99.6908 32.4098 98.776 32.2505 98.2602ZM32.2505 108.907V116.523C42.5 130.461 113.5 133.086 127.75 116.523V108.906C124.969 110.522 121.585 111.908 117.821 113.075C107.965 116.13 94.5944 117.959 79.9998 117.959C65.4052 117.959 52.0341 116.13 42.1784 113.075C38.4152 111.908 35.0314 110.522 32.2505 108.907Z" fill="white"/>
</clipPath>
<g clip-path="url(#mask0_5481_90046)">
<g clip-path="url(#clip0_5481_90046)">
<rect width="160" height="160" rx="5.125" fill="#FFECCF"/>
<rect width="160" height="160" fill="#FFECCF"/>
<circle cx="90.4677" cy="6.20574" r="69.6087" transform="rotate(-0.0800682 90.4677 6.20574)" fill="url(#paint0_radial_5481_90046)"/>
<path d="M61.0698 -28.2626C48.782 -35.8663 33.2133 -35.9129 20.8798 -28.3828L-102.478 46.9353C-114.559 54.3119 -114.579 71.7234 -102.514 79.1279L20.0281 154.339C32.3432 161.896 47.9119 161.887 60.2163 154.312L182.506 79.0306C194.507 71.6419 194.529 54.3277 182.543 46.9111L61.0698 -28.2626Z" fill="url(#paint1_linear_5481_90046)"/>
<path d="M23.0583 75.9646C25.793 16.2319 76.4328 -29.9741 136.166 -27.2395C195.898 -24.5048 242.104 26.1351 239.37 85.8678C236.635 145.601 185.995 191.807 126.262 189.072C66.5296 186.337 20.3236 135.697 23.0583 75.9646Z" fill="url(#paint2_linear_5481_90046)"/>
<path d="M-64.8253 115.35C-41.0814 105.221 -15.474 105.655 6.71169 114.515C51.1056 132.288 76.9371 121.299 94.8534 77.0069C103.778 54.7811 121.201 35.958 144.972 25.8174C192.497 5.57391 247.364 27.5395 267.579 74.9246C287.793 122.31 265.667 177.09 218.153 197.36C194.329 207.523 168.673 207.047 146.453 198.107C102.131 180.429 76.3488 191.459 58.4551 235.805C49.5082 257.978 32.0886 276.736 8.34476 286.866C-39.1429 307.124 -94.0093 285.159 -114.213 237.8C-134.416 190.441 -112.313 135.609 -64.8253 115.35Z" fill="url(#paint3_linear_5481_90046)"/>
<circle cx="150.675" cy="28.9059" r="69.6087" transform="rotate(-0.0800682 150.675 28.9059)" fill="url(#paint4_radial_5481_90046)"/>
</g>
</g>

</svg>
