<svg width="48" height="48" viewBox="0 0 48 48" xmlns="http://www.w3.org/2000/svg">
  <defs>
<radialGradient id="paint0_radial_5481_99426" cx="0" cy="0" r="1" gradientUnits="userSpaceOnUse" gradientTransform="translate(17.0977 16.1176) rotate(90) scale(16.1176 17.0977)">
<stop offset="0.166667" stop-color="#FF709F"/>
<stop offset="1" stop-color="#FF709F" stop-opacity="0"/>
</radialGradient>
<linearGradient id="paint1_linear_5481_99426" x1="-5.97653" y1="39.3034" x2="55.8257" y2="-0.582971" gradientUnits="userSpaceOnUse">
<stop offset="0.0598452" stop-color="#8480FE"/>
<stop offset="0.599632" stop-color="#8480FE" stop-opacity="0"/>
</linearGradient>
<linearGradient id="paint2_linear_5481_99426" x1="45.2963" y1="13.0199" x2="19.6117" y2="42.3174" gradientUnits="userSpaceOnUse">
<stop stop-color="#EB1000"/>
<stop offset="1" stop-color="#EB1000" stop-opacity="0"/>
</linearGradient>
<linearGradient id="paint3_linear_5481_99426" x1="11.9864" y1="44.6395" x2="59.1656" y2="16.6031" gradientUnits="userSpaceOnUse">
<stop stop-color="#FC7D00" stop-opacity="0"/>
<stop offset="0.432292" stop-color="#FC7D00"/>
<stop offset="0.609375" stop-color="#FC7D00"/>
<stop offset="1" stop-color="#FC7D00" stop-opacity="0"/>
</linearGradient>
<radialGradient id="paint4_radial_5481_99426" cx="0" cy="0" r="1" gradientUnits="userSpaceOnUse" gradientTransform="translate(17.0977 16.1176) rotate(90) scale(16.1176 17.0977)">
<stop offset="0.166667" stop-color="#EB1000"/>
<stop offset="1" stop-color="#EB1000" stop-opacity="0"/>
</radialGradient>
<clipPath id="clip0_5481_99426">
<rect x="3.89844" y="6.19629" width="39.3001" height="37.0472" rx="1.03837" fill="white"/>
</clipPath>
</defs>
<clipPath id="mask0_5481_99426">
<path fill-rule="evenodd" d="M18.3372 11.9144L20.0337 13.6108L21.7677 15.3449L25.1577 18.7349C26.2557 19.8329 28.0347 19.8329 29.1327 18.7349C30.2307 17.6369 30.2307 15.8579 29.1327 14.7599L25.7427 11.3699L24.0087 9.63585L23.4447 9.07185C23.0427 8.67585 22.5897 8.36985 22.1067 8.14485C22.0913 8.1375 22.0759 8.13 22.0605 8.12248C22.0068 8.09626 21.9526 8.06984 21.8967 8.04885C21.7077 7.97085 21.5127 7.91085 21.3177 7.85685C19.7157 7.43085 17.9397 7.84185 16.6827 9.09585L7.55367 18.2249C6.08667 19.6919 5.77467 21.8699 6.60267 23.6489L16.6407 13.6108L18.3372 11.9144ZM31.3162 9.11985L40.4452 18.2488V18.2548C42.3202 20.1298 42.3202 23.1688 40.4452 25.0438L30.2812 35.2078L25.9972 39.4918C24.8992 40.5898 23.1202 40.5898 22.0222 39.4888H22.0192C20.9212 38.3908 20.9212 36.6118 22.0192 35.5138C20.9212 36.6118 19.1422 36.6118 18.0442 35.5108H18.0412C16.9522 34.4218 16.9462 32.6638 18.0172 31.5628C16.9162 32.6338 15.1582 32.6248 14.0692 31.5328H14.0662C12.9682 30.4348 12.9682 28.6528 14.0662 27.5548H14.0632C12.9652 28.6528 11.1862 28.6528 10.0882 27.5518H10.0852C9.9982 27.4648 9.92021 27.3718 9.84821 27.2788C8.99621 26.1748 9.0742 24.5848 10.0852 23.5738L14.5732 19.0828L18.3412 15.3148L20.0752 17.0488L23.4652 20.4388C24.4492 21.4228 25.7572 21.9658 27.1492 21.9658C28.5412 21.9658 29.8492 21.4228 30.8332 20.4388C32.8642 18.4048 32.8642 15.0988 30.8332 13.0678L25.9222 8.15685C27.6922 7.34385 29.8552 7.65885 31.3162 9.11985Z" fill="white"/>
</clipPath>
<g clip-path="url(#mask0_5481_99426)">
<g clip-path="url(#clip0_5481_99426)">
<rect x="3.89844" y="6.19629" width="39.3001" height="37.0472" rx="1.03837" fill="#FFECCF"/>
<rect width="39.3001" height="37.0472" transform="translate(3.89844 6.19629)" fill="#FFECCF"/>
<ellipse cx="17.0977" cy="16.1176" rx="17.0977" ry="16.1176" transform="matrix(0.999999 -0.00131734 0.00148243 0.999999 9 -8.46191)" fill="url(#paint0_radial_5481_99426)"/>
<path d="M18.9001 -0.347766C15.8819 -2.10837 12.0578 -2.11915 9.02836 -0.3756L-21.2714 17.064C-24.2389 18.772 -24.2438 22.8035 -21.2804 24.518L8.81916 41.9328C11.8441 43.6827 15.6681 43.6806 18.6904 41.9266L48.728 24.4955C51.6757 22.7847 51.6811 18.7756 48.737 17.0584L18.9001 -0.347766Z" fill="url(#paint1_linear_5481_99426)"/>
<path d="M9.56118 23.7851C10.2329 9.95429 22.6713 -0.744495 37.3432 -0.111288C52.0151 0.521918 63.3645 12.2473 62.6928 26.0782C62.0211 39.909 49.5826 50.6078 34.9107 49.9746C20.2389 49.3414 8.88946 37.616 9.56118 23.7851Z" fill="url(#paint2_linear_5481_99426)"/>
<path d="M-12.0237 32.905C-6.19164 30.5596 0.0982146 30.6602 5.54758 32.7117C16.4519 36.8269 22.7967 34.2826 27.1975 24.0269C29.3895 18.8806 33.6692 14.5222 39.5078 12.1742C51.1813 7.48693 64.6579 12.5729 69.6232 23.5448C74.5885 34.5166 69.1538 47.2006 57.483 51.894C51.6313 54.2473 45.3293 54.1371 39.8716 52.0671C28.985 47.9739 22.6522 50.5279 18.2571 60.7958C16.0595 65.9298 11.7808 70.2733 5.9487 72.6187C-5.7155 77.3095 -19.1921 72.2235 -24.1546 61.2578C-29.1171 50.2921 -23.6879 37.5958 -12.0237 32.905Z" fill="url(#paint3_linear_5481_99426)"/>
<ellipse cx="17.0977" cy="16.1176" rx="17.0977" ry="16.1176" transform="matrix(0.999999 -0.00131734 0.00148243 0.999999 23.7852 -3.20605)" fill="url(#paint4_radial_5481_99426)"/>
</g>
</g>

</svg>
