<svg width="96" height="96" viewBox="0 0 96 96" xmlns="http://www.w3.org/2000/svg">
  <defs>
<radialGradient id="paint0_radial_5481_99344" cx="0" cy="0" r="1" gradientUnits="userSpaceOnUse" gradientTransform="translate(52.2692 5.82109) rotate(90) scale(38.3718 38.3718)">
<stop offset="0.166667" stop-color="#FF709F"/>
<stop offset="1" stop-color="#FF709F" stop-opacity="0"/>
</radialGradient>
<linearGradient id="paint1_linear_5481_99344" x1="-19.7664" y1="81.2202" x2="123.63" y2="-6.02094" gradientUnits="userSpaceOnUse">
<stop offset="0.0598452" stop-color="#8480FE"/>
<stop offset="0.599632" stop-color="#8480FE" stop-opacity="0"/>
</linearGradient>
<linearGradient id="paint2_linear_5481_99344" x1="95.3082" y1="18.6464" x2="33.7915" y2="84.7938" gradientUnits="userSpaceOnUse">
<stop stop-color="#EB1000"/>
<stop offset="1" stop-color="#EB1000" stop-opacity="0"/>
</linearGradient>
<linearGradient id="paint3_linear_5481_99344" x1="20.5509" y1="93.9234" x2="129.603" y2="32.8338" gradientUnits="userSpaceOnUse">
<stop stop-color="#FC7D00" stop-opacity="0"/>
<stop offset="0.432292" stop-color="#FC7D00"/>
<stop offset="0.609375" stop-color="#FC7D00"/>
<stop offset="1" stop-color="#FC7D00" stop-opacity="0"/>
</linearGradient>
<radialGradient id="paint4_radial_5481_99344" cx="0" cy="0" r="1" gradientUnits="userSpaceOnUse" gradientTransform="translate(85.4567 18.3348) rotate(90) scale(38.3718 38.3718)">
<stop offset="0.166667" stop-color="#EB1000"/>
<stop offset="1" stop-color="#EB1000" stop-opacity="0"/>
</radialGradient>
<clipPath id="clip0_5481_99344">
<rect x="2.39844" y="2.40039" width="88.2" height="88.2" rx="2.66254" fill="white"/>
</clipPath>
</defs>
<clipPath id="mask0_5481_99344">
<path fill-rule="evenodd" d="M31.0455 13.1592H47.488C49.1745 13.1592 50.7919 13.8291 51.9844 15.0216L69.4555 32.4928C70.648 33.6853 71.318 35.3026 71.318 36.9891V61.91C71.318 65.4219 68.471 68.2688 64.9592 68.2688H31.0455C27.5337 68.2688 24.6867 65.4219 24.6867 61.91V19.518C24.6867 16.0061 27.5337 13.1592 31.0455 13.1592ZM49.6456 31.5344C49.6482 30.3637 48.7013 29.4126 47.5307 29.41C46.3601 29.4074 45.409 30.3543 45.4064 31.5249L45.3595 52.5144L38.1936 46.815C37.2775 46.0864 35.944 46.2383 35.2153 47.1545C34.4867 48.0707 34.6386 49.4041 35.5548 50.1328L46.2304 58.6237C47.0072 59.2416 48.1087 59.2376 48.8811 58.6143L59.4015 50.1233C60.3124 49.3881 60.4549 48.0536 59.7197 47.1427C58.9844 46.2318 57.65 46.0893 56.739 46.8245L49.5985 52.5876L49.6456 31.5344ZM13.4416 45.3136C13.4416 44.2532 14.3012 43.3936 15.3616 43.3936H18.8902C19.9506 43.3936 20.8102 42.534 20.8102 41.4736C20.8102 40.4132 19.9506 39.5536 18.8902 39.5536H15.3616C12.1804 39.5536 9.60156 42.1324 9.60156 45.3136V48.6347C9.60156 49.6951 10.4612 50.5547 11.5216 50.5547C12.5819 50.5547 13.4416 49.6951 13.4416 48.6347V45.3136ZM77.1129 39.5536C76.0525 39.5536 75.1929 40.4132 75.1929 41.4736C75.1929 42.534 76.0525 43.3936 77.1129 43.3936H80.6416C81.702 43.3936 82.5616 44.2532 82.5616 45.3136V48.6347C82.5616 49.6951 83.4212 50.5547 84.4816 50.5547C85.542 50.5547 86.4016 49.6951 86.4016 48.6347V45.3136C86.4016 42.1324 83.8227 39.5536 80.6416 39.5536H77.1129ZM86.4016 57.3525C86.4016 56.2921 85.542 55.4325 84.4816 55.4325C83.4212 55.4325 82.5616 56.2921 82.5616 57.3525V63.9947C82.5616 65.0551 83.4212 65.9147 84.4816 65.9147C85.542 65.9147 86.4016 65.0551 86.4016 63.9947V57.3525ZM13.4416 57.3525C13.4416 56.2921 12.5819 55.4325 11.5216 55.4325C10.4612 55.4325 9.60156 56.2921 9.60156 57.3525V63.9947C9.60156 65.0551 10.4612 65.9147 11.5216 65.9147C12.5819 65.9147 13.4416 65.0551 13.4416 63.9947V57.3525ZM13.4416 72.7125C13.4416 71.6521 12.5819 70.7925 11.5216 70.7925C10.4612 70.7925 9.60156 71.6521 9.60156 72.7125V76.0336C9.60156 79.2148 12.1804 81.7936 15.3616 81.7936H18.8902C19.9506 81.7936 20.8102 80.934 20.8102 79.8736C20.8102 78.8132 19.9506 77.9536 18.8902 77.9536H15.3616C14.3012 77.9536 13.4416 77.094 13.4416 76.0336V72.7125ZM86.4016 72.7125C86.4016 71.6521 85.542 70.7925 84.4816 70.7925C83.4212 70.7925 82.5616 71.6521 82.5616 72.7125V76.0336C82.5616 77.094 81.702 77.9536 80.6416 77.9536H77.1129C76.0525 77.9536 75.1929 78.8132 75.1929 79.8736C75.1929 80.934 76.0525 81.7936 77.1129 81.7936H80.6416C83.8227 81.7936 86.4016 79.2148 86.4016 76.0336V72.7125ZM28.1529 77.9536C27.0925 77.9536 26.2329 78.8132 26.2329 79.8736C26.2329 80.934 27.0925 81.7936 28.1529 81.7936H35.2102C36.2706 81.7936 37.1302 80.934 37.1302 79.8736C37.1302 78.8132 36.2706 77.9536 35.2102 77.9536H28.1529ZM44.4729 77.9536C43.4125 77.9536 42.5529 78.8132 42.5529 79.8736C42.5529 80.934 43.4125 81.7936 44.4729 81.7936H51.5302C52.5906 81.7936 53.4502 80.934 53.4502 79.8736C53.4502 78.8132 52.5906 77.9536 51.5302 77.9536H44.4729ZM60.7929 77.9536C59.7325 77.9536 58.8729 78.8132 58.8729 79.8736C58.8729 80.934 59.7325 81.7936 60.7929 81.7936H67.8502C68.9106 81.7936 69.7702 80.934 69.7702 79.8736C69.7702 78.8132 68.9106 77.9536 67.8502 77.9536H60.7929Z" fill="white"/>
</clipPath>
<g clip-path="url(#mask0_5481_99344)">
<g clip-path="url(#clip0_5481_99344)">
<rect x="2.39844" y="2.40039" width="88.2" height="88.2" rx="2.66254" fill="#FFECCF"/>
<rect width="88.2" height="88.2" transform="translate(2.39844 2.40039)" fill="#FFECCF"/>
<ellipse cx="52.2692" cy="5.82109" rx="38.3718" ry="38.3718" transform="rotate(-0.0800682 52.2692 5.82109)" fill="url(#paint0_radial_5481_99344)"/>
<path d="M36.0634 -13.1792C29.2897 -17.3707 20.7075 -17.3964 13.9086 -13.2454L-54.0922 28.2737C-60.752 32.34 -60.7631 41.9381 -54.1124 46.0199L13.4391 87.4801C20.2278 91.646 28.8101 91.6411 35.5929 87.4652L103.005 45.9662C109.621 41.8932 109.633 32.3487 103.025 28.2604L36.0634 -13.1792Z" fill="url(#paint1_linear_5481_99344)"/>
<path d="M15.1091 44.2755C16.6166 11.3479 44.5318 -14.1232 77.4594 -12.6157C110.387 -11.1082 135.858 16.807 134.351 49.7347C132.843 82.6623 104.928 108.133 72.0003 106.626C39.0726 105.118 13.6016 77.2032 15.1091 44.2755Z" fill="url(#paint2_linear_5481_99344)"/>
<path d="M-33.3342 65.9867C-20.2454 60.4029 -6.12929 60.6423 6.10054 65.5263C30.5727 75.3237 44.8123 69.2662 54.6887 44.8501C59.6082 32.5981 69.2129 22.2219 82.3164 16.6318C108.515 5.47263 138.76 17.5811 149.903 43.7022C161.047 69.8233 148.85 100.021 122.658 111.195C109.525 116.797 95.3815 116.535 83.1329 111.607C58.7004 101.862 44.488 107.942 34.6241 132.387C29.6921 144.61 20.0896 154.951 7.00077 160.535C-19.1768 171.702 -49.4219 159.594 -60.5591 133.487C-71.6963 107.381 -59.5118 77.1542 -33.3342 65.9867Z" fill="url(#paint3_linear_5481_99344)"/>
<ellipse cx="85.4567" cy="18.3348" rx="38.3718" ry="38.3718" transform="rotate(-0.0800682 85.4567 18.3348)" fill="url(#paint4_radial_5481_99344)"/>
</g>
</g>

</svg>
