<svg width="160" height="160" viewBox="0 0 160 160" xmlns="http://www.w3.org/2000/svg">
  <defs>
<radialGradient id="paint0_radial_5481_90164" cx="0" cy="0" r="1" gradientUnits="userSpaceOnUse" gradientTransform="translate(90.4677 6.20574) rotate(90) scale(69.6088)">
<stop offset="0.166667" stop-color="#FF709F"/>
<stop offset="1" stop-color="#FF709F" stop-opacity="0"/>
</radialGradient>
<linearGradient id="paint1_linear_5481_90164" x1="-40.2086" y1="142.983" x2="219.921" y2="-15.2772" gradientUnits="userSpaceOnUse">
<stop offset="0.0598452" stop-color="#8480FE"/>
<stop offset="0.599632" stop-color="#8480FE" stop-opacity="0"/>
</linearGradient>
<linearGradient id="paint2_linear_5481_90164" x1="168.544" y1="29.4718" x2="56.9494" y2="149.467" gradientUnits="userSpaceOnUse">
<stop stop-color="#EB1000"/>
<stop offset="1" stop-color="#EB1000" stop-opacity="0"/>
</linearGradient>
<linearGradient id="paint3_linear_5481_90164" x1="32.9255" y1="166.029" x2="230.753" y2="55.2086" gradientUnits="userSpaceOnUse">
<stop stop-color="#FC7D00" stop-opacity="0"/>
<stop offset="0.432292" stop-color="#FC7D00"/>
<stop offset="0.609375" stop-color="#FC7D00"/>
<stop offset="1" stop-color="#FC7D00" stop-opacity="0"/>
</linearGradient>
<radialGradient id="paint4_radial_5481_90164" cx="0" cy="0" r="1" gradientUnits="userSpaceOnUse" gradientTransform="translate(150.675 28.9059) rotate(90) scale(69.6088)">
<stop offset="0.166667" stop-color="#EB1000"/>
<stop offset="1" stop-color="#EB1000" stop-opacity="0"/>
</radialGradient>
<clipPath id="clip0_5481_90164">
<rect width="160" height="160" rx="5.125" fill="white"/>
</clipPath>
</defs>
<clipPath id="mask0_5481_90164">
<path fill-rule="evenodd" d="M28.2969 24.2656C26.0877 24.2656 24.2969 26.0565 24.2969 28.2656C24.2969 30.4748 26.0877 32.2656 28.2969 32.2656C28.568 32.2656 29.0421 32.2688 29.7178 32.2734C31.2397 32.2836 33.7842 32.3007 37.3359 32.3038C41.3145 32.3072 44.6955 35.1701 45.3355 39.0513L55.0236 97.8048C56.2978 105.532 62.9785 111.202 70.8104 111.202H125.12C127.329 111.202 129.12 109.411 129.12 107.202C129.12 104.993 127.329 103.202 125.12 103.202H70.8104C66.8945 103.202 63.5541 100.367 62.917 96.5033L61.0899 85.423H119.888C125.62 85.423 130.551 81.3689 131.661 75.7451L135.475 56.4081C136.936 48.9996 131.281 42.0859 123.713 42.0859L53.9439 42.0859L53.2289 37.7497C51.9449 29.9631 45.1896 24.3105 37.3428 24.3038C33.9203 24.3008 31.0085 24.2821 29.4456 24.272L29.4456 24.272L29.4454 24.272C28.8549 24.2682 28.4569 24.2656 28.2969 24.2656ZM75.0938 131.385C75.0938 135.803 71.512 139.385 67.0938 139.385C62.6755 139.385 59.0938 135.803 59.0938 131.385C59.0938 126.966 62.6755 123.385 67.0938 123.385C71.512 123.385 75.0938 126.966 75.0938 131.385ZM118.653 139.385C123.072 139.385 126.653 135.803 126.653 131.385C126.653 126.966 123.072 123.385 118.653 123.385C114.235 123.385 110.653 126.966 110.653 131.385C110.653 135.803 114.235 139.385 118.653 139.385Z" fill="white"/>
</clipPath>
<g clip-path="url(#mask0_5481_90164)">
<g clip-path="url(#clip0_5481_90164)">
<rect width="160" height="160" rx="5.125" fill="#FFECCF"/>
<rect width="160" height="160" fill="#FFECCF"/>
<circle cx="90.4677" cy="6.20574" r="69.6087" transform="rotate(-0.0800682 90.4677 6.20574)" fill="url(#paint0_radial_5481_90164)"/>
<path d="M61.0698 -28.2626C48.782 -35.8663 33.2133 -35.9129 20.8798 -28.3828L-102.478 46.9353C-114.559 54.3119 -114.579 71.7234 -102.514 79.1279L20.0281 154.339C32.3432 161.896 47.9119 161.887 60.2163 154.312L182.506 79.0306C194.507 71.6419 194.529 54.3277 182.543 46.9111L61.0698 -28.2626Z" fill="url(#paint1_linear_5481_90164)"/>
<path d="M23.0583 75.9646C25.793 16.2319 76.4328 -29.9741 136.166 -27.2395C195.898 -24.5048 242.104 26.1351 239.37 85.8678C236.635 145.601 185.995 191.807 126.262 189.072C66.5296 186.337 20.3236 135.697 23.0583 75.9646Z" fill="url(#paint2_linear_5481_90164)"/>
<path d="M-64.8253 115.35C-41.0814 105.221 -15.474 105.655 6.71169 114.515C51.1056 132.288 76.9371 121.299 94.8534 77.0069C103.778 54.7811 121.201 35.958 144.972 25.8174C192.497 5.57391 247.364 27.5395 267.579 74.9246C287.793 122.31 265.667 177.09 218.153 197.36C194.329 207.523 168.673 207.047 146.453 198.107C102.131 180.429 76.3488 191.459 58.4551 235.805C49.5082 257.978 32.0886 276.736 8.34476 286.866C-39.1429 307.124 -94.0093 285.159 -114.213 237.8C-134.416 190.441 -112.313 135.609 -64.8253 115.35Z" fill="url(#paint3_linear_5481_90164)"/>
<circle cx="150.675" cy="28.9059" r="69.6087" transform="rotate(-0.0800682 150.675 28.9059)" fill="url(#paint4_radial_5481_90164)"/>
</g>
</g>

</svg>
