<svg width="160" height="160" viewBox="0 0 160 160" xmlns="http://www.w3.org/2000/svg">
  <defs>
<radialGradient id="paint0_radial_5481_90152" cx="0" cy="0" r="1" gradientUnits="userSpaceOnUse" gradientTransform="translate(90.4677 6.20574) rotate(90) scale(69.6088)">
<stop offset="0.166667" stop-color="#FF709F"/>
<stop offset="1" stop-color="#FF709F" stop-opacity="0"/>
</radialGradient>
<linearGradient id="paint1_linear_5481_90152" x1="-40.2086" y1="142.983" x2="219.921" y2="-15.2772" gradientUnits="userSpaceOnUse">
<stop offset="0.0598452" stop-color="#8480FE"/>
<stop offset="0.599632" stop-color="#8480FE" stop-opacity="0"/>
</linearGradient>
<linearGradient id="paint2_linear_5481_90152" x1="168.544" y1="29.4718" x2="56.9494" y2="149.467" gradientUnits="userSpaceOnUse">
<stop stop-color="#EB1000"/>
<stop offset="1" stop-color="#EB1000" stop-opacity="0"/>
</linearGradient>
<linearGradient id="paint3_linear_5481_90152" x1="32.9255" y1="166.029" x2="230.753" y2="55.2086" gradientUnits="userSpaceOnUse">
<stop stop-color="#FC7D00" stop-opacity="0"/>
<stop offset="0.432292" stop-color="#FC7D00"/>
<stop offset="0.609375" stop-color="#FC7D00"/>
<stop offset="1" stop-color="#FC7D00" stop-opacity="0"/>
</linearGradient>
<radialGradient id="paint4_radial_5481_90152" cx="0" cy="0" r="1" gradientUnits="userSpaceOnUse" gradientTransform="translate(150.675 28.9059) rotate(90) scale(69.6088)">
<stop offset="0.166667" stop-color="#EB1000"/>
<stop offset="1" stop-color="#EB1000" stop-opacity="0"/>
</radialGradient>
<clipPath id="clip0_5481_90152">
<rect width="160" height="160" rx="5.125" fill="white"/>
</clipPath>
</defs>
<clipPath id="mask0_5481_90152">
<path fill-rule="evenodd" d="M19.5195 96.8013C19.5195 85.5075 24.2957 75.3291 31.9384 68.1759C33.5184 83.2557 42.199 96.2218 54.5763 103.67C56.345 115.802 62.7282 126.436 71.8873 133.735C67.7717 135.202 63.3388 136.001 58.7193 136.001C37.0699 136.001 19.5195 118.451 19.5195 96.8013ZM88.1119 133.735C92.2275 135.202 96.6603 136.001 101.28 136.001C122.929 136.001 140.48 118.451 140.48 96.8013C140.48 84.5122 134.825 73.5439 125.975 66.3567C124.996 81.1855 117.168 94.1429 105.626 102.095C104.199 114.88 97.6653 126.122 88.1119 133.735ZM116.487 52.1047C111.701 35.8586 96.6749 24 78.879 24C60.7446 24 45.4862 36.314 41.0096 53.0365C46.4781 50.8214 52.4563 49.6016 58.7193 49.6016C66.3752 49.6016 73.6054 51.4243 79.9996 54.6596C86.3938 51.4243 93.6239 49.6016 101.28 49.6016C106.6 49.6016 111.715 50.4818 116.487 52.1047ZM39.6849 62.5249C39.6811 62.7494 39.6792 62.9744 39.6792 63.1998C39.6792 75.4889 45.3342 86.4572 54.184 93.6445C55.0864 79.9788 61.805 67.9025 71.8873 59.8681C67.7717 58.4006 63.3388 57.6016 58.7193 57.6016C51.8115 57.6016 45.3211 59.3883 39.6849 62.5249ZM118.036 61.3531C118.064 61.9651 118.079 62.5808 118.079 63.1998C118.079 74.4937 113.303 84.672 105.66 91.8252C104.307 78.9093 97.7444 67.5441 88.1119 59.8681C92.2275 58.4006 96.6604 57.6016 101.28 57.6016C107.275 57.6016 112.955 58.9473 118.036 61.3531ZM79.9996 129.728C88.0376 124.522 94.0487 116.453 96.5887 106.965C91.1202 109.18 85.142 110.4 78.879 110.4C73.5586 110.4 68.4438 109.519 63.6723 107.896C66.3482 116.981 72.226 124.693 79.9996 129.728ZM97.9191 96.8013C97.9191 82.9969 90.7835 70.8591 79.9996 63.8751C69.2156 70.8591 62.0801 82.9969 62.0801 96.8013C62.0801 97.4203 62.0944 98.036 62.1228 98.648C67.2035 101.054 72.8841 102.4 78.879 102.4C85.7868 102.4 92.2772 100.613 97.9134 97.4762C97.9172 97.2517 97.9191 97.0267 97.9191 96.8013Z" fill="white"/>
</clipPath>
<g clip-path="url(#mask0_5481_90152)">
<g clip-path="url(#clip0_5481_90152)">
<rect width="160" height="160" rx="5.125" fill="#FFECCF"/>
<rect width="160" height="160" fill="#FFECCF"/>
<circle cx="90.4677" cy="6.20574" r="69.6087" transform="rotate(-0.0800682 90.4677 6.20574)" fill="url(#paint0_radial_5481_90152)"/>
<path d="M61.0698 -28.2626C48.782 -35.8663 33.2133 -35.9129 20.8798 -28.3828L-102.478 46.9353C-114.559 54.3119 -114.579 71.7234 -102.514 79.1279L20.0281 154.339C32.3432 161.896 47.9119 161.887 60.2163 154.312L182.506 79.0306C194.507 71.6419 194.529 54.3277 182.543 46.9111L61.0698 -28.2626Z" fill="url(#paint1_linear_5481_90152)"/>
<path d="M23.0583 75.9646C25.793 16.2319 76.4328 -29.9741 136.166 -27.2395C195.898 -24.5048 242.104 26.1351 239.37 85.8678C236.635 145.601 185.995 191.807 126.262 189.072C66.5296 186.337 20.3236 135.697 23.0583 75.9646Z" fill="url(#paint2_linear_5481_90152)"/>
<path d="M-64.8253 115.35C-41.0814 105.221 -15.474 105.655 6.71169 114.515C51.1056 132.288 76.9371 121.299 94.8534 77.0069C103.778 54.7811 121.201 35.958 144.972 25.8174C192.497 5.57391 247.364 27.5395 267.579 74.9246C287.793 122.31 265.667 177.09 218.153 197.36C194.329 207.523 168.673 207.047 146.453 198.107C102.131 180.429 76.3488 191.459 58.4551 235.805C49.5082 257.978 32.0886 276.736 8.34476 286.866C-39.1429 307.124 -94.0093 285.159 -114.213 237.8C-134.416 190.441 -112.313 135.609 -64.8253 115.35Z" fill="url(#paint3_linear_5481_90152)"/>
<circle cx="150.675" cy="28.9059" r="69.6087" transform="rotate(-0.0800682 150.675 28.9059)" fill="url(#paint4_radial_5481_90152)"/>
</g>
</g>

</svg>
