<svg width="48" height="48" viewBox="0 0 48 48" xmlns="http://www.w3.org/2000/svg">
  <defs>
<radialGradient id="paint0_radial_5481_99448" cx="0" cy="0" r="1" gradientUnits="userSpaceOnUse" gradientTransform="translate(27.1423 1.86124) rotate(90) scale(20.8826)">
<stop offset="0.166667" stop-color="#FF709F"/>
<stop offset="1" stop-color="#FF709F" stop-opacity="0"/>
</radialGradient>
<linearGradient id="paint1_linear_5481_99448" x1="-12.0622" y1="42.8942" x2="65.9766" y2="-4.58394" gradientUnits="userSpaceOnUse">
<stop offset="0.0598452" stop-color="#8480FE"/>
<stop offset="0.599632" stop-color="#8480FE" stop-opacity="0"/>
</linearGradient>
<linearGradient id="paint2_linear_5481_99448" x1="50.5621" y1="8.84057" x2="17.0836" y2="44.8392" gradientUnits="userSpaceOnUse">
<stop stop-color="#EB1000"/>
<stop offset="1" stop-color="#EB1000" stop-opacity="0"/>
</linearGradient>
<linearGradient id="paint3_linear_5481_99448" x1="9.87765" y1="49.8079" x2="69.2259" y2="16.5618" gradientUnits="userSpaceOnUse">
<stop stop-color="#FC7D00" stop-opacity="0"/>
<stop offset="0.432292" stop-color="#FC7D00"/>
<stop offset="0.609375" stop-color="#FC7D00"/>
<stop offset="1" stop-color="#FC7D00" stop-opacity="0"/>
</linearGradient>
<radialGradient id="paint4_radial_5481_99448" cx="0" cy="0" r="1" gradientUnits="userSpaceOnUse" gradientTransform="translate(45.2009 8.67081) rotate(90) scale(20.8826)">
<stop offset="0.166667" stop-color="#EB1000"/>
<stop offset="1" stop-color="#EB1000" stop-opacity="0"/>
</radialGradient>
<clipPath id="clip0_5481_99448">
<rect y="-0.000976562" width="48" height="48" rx="5.125" fill="white"/>
</clipPath>
</defs>
<clipPath id="mask0_5481_99448">
<path d="M37.5223 6.51685C37.8002 6.19578 38.2825 5.92689 38.5795 6.01796L38.5819 6.02043C39.0594 6.02043 39.5203 6.27975 39.784 6.69467C40.0454 7.10465 40.0882 7.6233 39.9005 8.08514L38.2825 12.0442L40.6298 13.0765C41.0551 13.2618 41.3663 13.652 41.4661 14.1188C41.5659 14.5855 41.4424 15.077 41.1335 15.4327L35.0039 22.506C34.7283 22.8246 34.3529 23 33.9514 23C33.4739 23 33.013 22.7431 32.7493 22.3282C32.4879 21.9207 32.4428 21.3996 32.6305 20.9402L34.1961 17.08L31.8631 16.0353C31.4426 15.8476 31.1337 15.4574 31.0339 14.9931C30.9341 14.5287 31.0577 14.0422 31.3618 13.6865L37.5223 6.51685Z" fill="black"/>
<path fill-rule="evenodd" d="M27 38.375V32C27 29.7909 28.7909 28 31 28H41.75C43.9591 28 45.75 29.7909 45.75 32V38.375C45.75 40.5841 43.9591 42.375 41.75 42.375H31C28.7909 42.375 27 40.5841 27 38.375ZM39.0262 34.6294L35.3373 32.5236C34.9242 32.2878 34.407 32.5814 34.4065 33.0521L34.4014 37.255C34.4008 37.7257 34.9172 38.0205 35.3309 37.7856L39.0249 35.6885C39.4386 35.4536 39.4393 34.8653 39.0262 34.6294Z" fill="black"/>
<path fill-rule="evenodd" d="M3.5 17.375V11C3.5 8.79086 5.29086 7 7.5 7H18.5625C20.7716 7 22.5625 8.79086 22.5625 11V17.375C22.5625 17.9684 22.4333 18.5316 22.2015 19.038L20.0606 15.6977C18.7819 13.7027 15.8668 13.7027 14.5881 15.6977L14.1972 16.3076L12.5947 13.7815C11.3226 11.7763 8.39941 11.768 7.11592 13.7659L3.80759 18.9159C3.60944 18.4417 3.5 17.9211 3.5 17.375ZM19.25 11.5C19.9404 11.5 20.5 10.9404 20.5 10.25C20.5 9.55964 19.9404 9 19.25 9C18.5596 9 18 9.55964 18 10.25C18 10.9404 18.5596 11.5 19.25 11.5Z" fill="black"/>
<path d="M10.4836 15.1207L12.7093 18.6291L11.2525 20.9019C11.1574 21.0504 11.0976 21.2114 11.071 21.375H7.5C6.78438 21.375 6.11265 21.1871 5.53147 20.8579L9.21931 15.1171C9.5155 14.6561 10.1901 14.658 10.4836 15.1207Z" fill="black"/>
<path d="M13.9188 21.375H18.5625C19.2382 21.375 19.8748 21.2075 20.4329 20.9116L17.9558 17.0468C17.6607 16.5864 16.988 16.5864 16.6929 17.0468L13.9188 21.375Z" fill="black"/>
<path d="M4.88672 28C4.88672 27.3096 5.44636 26.75 6.13672 26.75H20.2098C20.9002 26.75 21.4598 27.3096 21.4598 27.9999L21.46 30.8146C21.46 31.5049 20.9004 32.0646 20.21 32.0646C19.5197 32.0647 18.96 31.505 18.96 30.8147L18.9599 29.25H14.4229V40.8232H15.9876C16.678 40.8232 17.2376 41.3829 17.2376 42.0732C17.2376 42.7636 16.678 43.3232 15.9876 43.3232H10.3584C9.66804 43.3232 9.1084 42.7636 9.1084 42.0732C9.1084 41.3829 9.66804 40.8232 10.3584 40.8232H11.9229V29.25H7.38672V30.8146C7.38672 31.505 6.82707 32.0646 6.13672 32.0646C5.44636 32.0646 4.88672 31.505 4.88672 30.8146V28Z" fill="black"/>
</clipPath>
<g clip-path="url(#mask0_5481_99448)">
<g clip-path="url(#clip0_5481_99448)">
<rect y="-0.000976562" width="48" height="48" rx="5.125" fill="#FFECCF"/>
<rect width="48" height="48" transform="translate(0 -0.000976562)" fill="#FFECCF"/>
<circle cx="27.1423" cy="1.86124" r="20.8826" transform="rotate(-0.0800682 27.1423 1.86124)" fill="url(#paint0_radial_5481_99448)"/>
<path d="M18.3213 -8.47956C14.635 -10.7607 9.96439 -10.7746 6.26433 -8.51562L-30.7429 14.0798C-34.3673 16.2928 -34.3733 21.5162 -30.7539 23.7376L6.00883 46.301C9.70335 48.5682 14.374 48.5655 18.0653 46.2929L54.7523 23.7084C58.3526 21.4918 58.3591 16.2975 54.7632 14.0725L18.3213 -8.47956Z" fill="url(#paint1_linear_5481_99448)"/>
<path d="M6.91632 22.7884C7.73673 4.86858 22.9287 -8.99322 40.8485 -8.17281C58.7683 -7.3524 72.6301 7.83955 71.8097 25.7594C70.9893 43.6792 55.7973 57.541 37.8775 56.7206C19.9577 55.9002 6.09591 40.7082 6.91632 22.7884Z" fill="url(#paint2_linear_5481_99448)"/>
<path d="M-19.4476 34.6042C-12.3244 31.5654 -4.64218 31.6957 2.01351 34.3537C15.3317 39.6856 23.0811 36.389 28.456 23.1013C31.1333 16.4336 36.3604 10.7866 43.4915 7.74443C57.7492 1.67139 74.2091 8.26106 80.2736 22.4766C86.338 36.6922 79.7002 53.1261 65.4459 59.2071C58.2988 62.2561 50.6018 62.1133 43.9359 59.4314C30.6393 54.128 22.9046 57.4371 17.5365 70.7407C14.8525 77.3925 9.62658 83.0201 2.50343 86.0589C-11.7429 92.1365 -28.2028 85.5468 -34.2639 71.3392C-40.3249 57.1317 -33.6939 40.6818 -19.4476 34.6042Z" fill="url(#paint3_linear_5481_99448)"/>
<circle cx="45.2009" cy="8.67081" r="20.8826" transform="rotate(-0.0800682 45.2009 8.67081)" fill="url(#paint4_radial_5481_99448)"/>
</g>
</g>

</svg>
