<svg width="96" height="96" viewBox="0 0 96 96" xmlns="http://www.w3.org/2000/svg">
  <defs>
<radialGradient id="paint0_radial_5481_99287" cx="0" cy="0" r="1" gradientUnits="userSpaceOnUse" gradientTransform="translate(53.4364 9.68696) rotate(90) scale(36.1398)">
<stop offset="0.166667" stop-color="#FF709F"/>
<stop offset="1" stop-color="#FF709F" stop-opacity="0"/>
</radialGradient>
<linearGradient id="paint1_linear_5481_99287" x1="-14.4094" y1="80.6996" x2="120.646" y2="-1.46692" gradientUnits="userSpaceOnUse">
<stop offset="0.0598452" stop-color="#8480FE"/>
<stop offset="0.599632" stop-color="#8480FE" stop-opacity="0"/>
</linearGradient>
<linearGradient id="paint2_linear_5481_99287" x1="93.9712" y1="21.7664" x2="36.0328" y2="84.0663" gradientUnits="userSpaceOnUse">
<stop stop-color="#EB1000"/>
<stop offset="1" stop-color="#EB1000" stop-opacity="0"/>
</linearGradient>
<linearGradient id="paint3_linear_5481_99287" x1="23.5615" y1="92.6642" x2="126.271" y2="35.128" gradientUnits="userSpaceOnUse">
<stop stop-color="#FC7D00" stop-opacity="0"/>
<stop offset="0.432292" stop-color="#FC7D00"/>
<stop offset="0.609375" stop-color="#FC7D00"/>
<stop offset="1" stop-color="#FC7D00" stop-opacity="0"/>
</linearGradient>
<radialGradient id="paint4_radial_5481_99287" cx="0" cy="0" r="1" gradientUnits="userSpaceOnUse" gradientTransform="translate(84.6942 21.4721) rotate(90) scale(36.1398)">
<stop offset="0.166667" stop-color="#EB1000"/>
<stop offset="1" stop-color="#EB1000" stop-opacity="0"/>
</radialGradient>
<clipPath id="clip0_5481_99287">
<rect x="6.46484" y="6.46484" width="83.0696" height="83.0696" rx="2.07674" fill="white"/>
</clipPath>
</defs>
<clipPath id="mask0_5481_99287">
<path d="M72.2927 38.691L52.5104 18.9086C51.1601 17.5584 49.3288 16.7998 47.4192 16.7998H28.8016C24.8251 16.7998 21.6016 20.0233 21.6016 23.9998V71.9998C21.6016 75.9763 24.8251 79.1998 28.8016 79.1998H67.2016C71.178 79.1998 74.4016 75.9763 74.4016 71.9998V43.7822C74.4016 41.8726 73.643 40.0412 72.2927 38.691ZM62.4016 50.3998C62.4016 51.7252 61.327 52.7998 60.0016 52.7998C58.6762 52.7998 57.6016 51.7252 57.6016 50.3998V47.9998H50.4016V67.1998H52.8016C54.127 67.1998 55.2016 68.2744 55.2016 69.5998C55.2016 70.9252 54.127 71.9998 52.8016 71.9998H43.2016C41.8762 71.9998 40.8016 70.9252 40.8016 69.5998C40.8016 68.2744 41.8762 67.1998 43.2016 67.1998H45.6016V47.9998H38.4016V50.3998C38.4016 51.7252 37.327 52.7998 36.0016 52.7998C34.6762 52.7998 33.6016 51.7252 33.6016 50.3998V45.5998C33.6016 44.2744 34.6762 43.1998 36.0016 43.1998H60.0016C61.327 43.1998 62.4016 44.2744 62.4016 45.5998V50.3998Z" fill="white"/>
</clipPath>
<g clip-path="url(#mask0_5481_99287)">
<g clip-path="url(#clip0_5481_99287)">
<rect x="6.46484" y="6.46484" width="83.0696" height="83.0696" rx="2.07674" fill="#FFECCF"/>
<rect width="83.0696" height="83.0696" transform="translate(6.46484 6.46484)" fill="#FFECCF"/>
<circle cx="53.4364" cy="9.68696" r="36.1398" transform="rotate(-0.0800682 53.4364 9.68696)" fill="url(#paint0_radial_5481_99287)"/>
<path d="M38.1729 -8.20876C31.7932 -12.1565 23.7102 -12.1807 17.3068 -8.27118L-46.7386 30.8329C-53.011 34.6627 -53.0215 43.7025 -46.7576 47.5468L16.8646 86.5954C23.2584 90.519 31.3415 90.5144 37.7297 86.5814L101.221 47.4963C107.452 43.6602 107.463 34.6709 101.24 30.8203L38.1729 -8.20876Z" fill="url(#paint1_linear_5481_99287)"/>
<path d="M18.437 45.9048C19.8569 14.8925 46.1483 -9.09703 77.1607 -7.67722C108.173 -6.2574 132.162 20.0341 130.743 51.0464C129.323 82.0588 103.031 106.048 72.0191 104.628C41.0067 103.209 17.0172 76.9172 18.437 45.9048Z" fill="url(#paint2_linear_5481_99287)"/>
<path d="M-27.1893 66.3524C-14.8618 61.0934 -1.56677 61.3189 9.95169 65.9189C33.0004 75.1463 46.4117 69.4413 55.7136 46.4453C60.3469 34.906 69.393 25.1334 81.7342 19.8685C106.409 9.35835 134.895 20.7625 145.39 45.3642C155.885 69.9659 144.398 98.4068 119.729 108.931C107.36 114.207 94.0394 113.96 82.5033 109.319C59.492 100.141 46.1062 105.867 36.8161 128.891C32.171 140.403 23.127 150.142 10.7995 155.401C-13.8554 165.919 -42.3412 154.515 -52.8306 129.927C-63.32 105.339 -51.8442 76.8704 -27.1893 66.3524Z" fill="url(#paint3_linear_5481_99287)"/>
<circle cx="84.6942" cy="21.4721" r="36.1398" transform="rotate(-0.0800682 84.6942 21.4721)" fill="url(#paint4_radial_5481_99287)"/>
</g>
</g>

</svg>
