<svg width="160" height="160" viewBox="0 0 160 160" xmlns="http://www.w3.org/2000/svg">
  <defs>
<radialGradient id="paint0_radial_5481_89951" cx="0" cy="0" r="1" gradientUnits="userSpaceOnUse" gradientTransform="translate(90.4677 6.20574) rotate(90) scale(69.6088)">
<stop offset="0.166667" stop-color="#FF709F"/>
<stop offset="1" stop-color="#FF709F" stop-opacity="0"/>
</radialGradient>
<linearGradient id="paint1_linear_5481_89951" x1="-40.2086" y1="142.983" x2="219.921" y2="-15.2772" gradientUnits="userSpaceOnUse">
<stop offset="0.0598452" stop-color="#8480FE"/>
<stop offset="0.599632" stop-color="#8480FE" stop-opacity="0"/>
</linearGradient>
<linearGradient id="paint2_linear_5481_89951" x1="168.544" y1="29.4718" x2="56.9494" y2="149.467" gradientUnits="userSpaceOnUse">
<stop stop-color="#EB1000"/>
<stop offset="1" stop-color="#EB1000" stop-opacity="0"/>
</linearGradient>
<linearGradient id="paint3_linear_5481_89951" x1="32.9255" y1="166.029" x2="230.753" y2="55.2086" gradientUnits="userSpaceOnUse">
<stop stop-color="#FC7D00" stop-opacity="0"/>
<stop offset="0.432292" stop-color="#FC7D00"/>
<stop offset="0.609375" stop-color="#FC7D00"/>
<stop offset="1" stop-color="#FC7D00" stop-opacity="0"/>
</linearGradient>
<radialGradient id="paint4_radial_5481_89951" cx="0" cy="0" r="1" gradientUnits="userSpaceOnUse" gradientTransform="translate(150.675 28.9059) rotate(90) scale(69.6088)">
<stop offset="0.166667" stop-color="#EB1000"/>
<stop offset="1" stop-color="#EB1000" stop-opacity="0"/>
</radialGradient>
<clipPath id="clip0_5481_89951">
<rect width="160" height="160" rx="5.125" fill="white"/>
</clipPath>
</defs>
<clipPath id="mask0_5481_89951">
<path fill-rule="evenodd" d="M142.816 50.7656L132.425 48.4282C130.882 48.0788 129.262 48.5125 128.099 49.5849L120.268 56.8019C116.792 60.0068 111.261 56.8139 112.298 52.1994L114.635 41.8076C114.984 40.2653 114.551 38.6448 113.478 37.4822L106.261 29.6506C103.056 26.1746 106.249 20.6444 110.864 21.6806L121.256 24.018C122.798 24.3674 124.418 23.9336 125.581 22.8613L133.413 15.6443C136.889 12.4394 142.419 15.6322 141.383 20.2468L139.045 30.6386C138.696 32.1808 139.13 33.8013 140.202 34.964L147.419 42.7955C150.624 46.2715 147.431 51.8018 142.816 50.7656ZM18.8239 63.347C24.0525 43.8335 44.11 32.2533 63.6235 37.482C72.0961 39.7522 79.0651 44.8107 83.8207 51.4108C85.1121 53.2031 87.612 53.6092 89.4044 52.3178C91.1967 51.0263 91.6028 48.5264 90.3114 46.7341C84.5175 38.693 76.0118 32.5192 65.694 29.7546C41.9128 23.3824 17.4687 37.4952 11.0965 61.2765C7.00746 76.537 11.3544 92.0638 21.2694 102.916L14.0157 102.893C11.8065 102.886 10.01 104.671 10.003 106.88C9.99594 109.09 11.7811 110.886 13.9902 110.893L30.4839 110.946C32.6392 110.952 34.4123 109.25 34.4937 107.097L35.0951 91.1841C35.1786 88.9765 33.4566 87.1193 31.249 87.0359C29.0415 86.9524 27.1843 88.6744 27.1008 90.8819L26.863 97.1751C18.9409 88.2823 15.5133 75.7024 18.8239 63.347ZM106.788 71.4375L106.971 71.6359L106.974 71.6394L108.378 73.1614C110.384 75.3361 108.384 78.794 105.505 78.1434L103.474 77.6858L103.474 77.6857L101.605 77.2647L101.194 77.1721L98.1792 76.4928C97.2093 76.2759 96.2033 76.547 95.4744 77.2157L93.2019 79.3121L92.8926 79.5973L91.4816 80.8989L91.4782 80.9021L89.9562 82.3062C87.7814 84.3122 84.3235 82.3122 84.9741 79.4326L85.4318 77.4016L85.4318 77.4014L85.8529 75.5328L85.9454 75.1219L86.6248 72.1071C86.6745 71.8846 86.6986 71.6601 86.6981 71.4375C86.6963 70.6901 86.4171 69.9639 85.9018 69.4022L80.8114 63.884C78.8053 61.7093 80.8053 58.2514 83.6849 58.902L91.0104 60.5526C91.9803 60.7695 92.9863 60.4984 93.7153 59.8297L99.2335 54.7392C101.408 52.7332 104.866 54.7332 104.216 57.6128L102.565 64.9383C102.348 65.9082 102.619 66.9142 103.288 67.6432L106.788 71.4375ZM116.56 71.4375H131.633C138.812 71.4375 144.633 77.2578 144.633 84.4375V133.352C144.633 135.566 144.079 137.651 143.102 139.476L126.806 115.353C122.935 109.583 114.453 109.598 110.583 115.354L110.565 115.382L101.717 128.776L85.5421 103.791L85.5413 103.789L85.5408 103.789C81.694 97.8421 72.9844 97.8413 69.1363 103.786L69.1334 103.791L45.2909 140.463V84.4375C45.2909 77.2578 51.1112 71.4375 58.2909 71.4375H76.8953L78.2453 72.901L77.1708 77.6695L77.1703 77.6716L77.1698 77.6741C74.7912 88.2198 87.4436 95.5077 95.3804 88.1865L95.3805 88.1863L98.9731 84.8722L103.742 85.9467L103.744 85.9472L103.746 85.9477C112.759 87.9805 119.392 79.0355 116.56 71.4375ZM51.0048 146.352H90.1069L96.904 136.062L78.8253 108.136L78.824 108.134C78.129 107.059 76.5465 107.059 75.8515 108.134L75.846 108.143L51.0048 146.352ZM120.173 119.825L137.237 145.085C135.54 145.897 133.639 146.352 131.633 146.352H99.6947L117.229 119.808C117.94 118.764 119.472 118.779 120.163 119.812L120.173 119.825ZM120.666 98C117.352 98 114.666 95.3137 114.666 92C114.666 88.6863 117.352 86 120.666 86C123.98 86 126.666 88.6863 126.666 92C126.666 95.3137 123.98 98 120.666 98Z" fill="white"/>
</clipPath>
<g clip-path="url(#mask0_5481_89951)">
<g clip-path="url(#clip0_5481_89951)">
<rect width="160" height="160" rx="5.125" fill="#FFECCF"/>
<rect width="160" height="160" fill="#FFECCF"/>
<circle cx="90.4677" cy="6.20574" r="69.6087" transform="rotate(-0.0800682 90.4677 6.20574)" fill="url(#paint0_radial_5481_89951)"/>
<path d="M61.0698 -28.2626C48.782 -35.8663 33.2133 -35.9129 20.8798 -28.3828L-102.478 46.9353C-114.559 54.3119 -114.579 71.7234 -102.514 79.1279L20.0281 154.339C32.3432 161.896 47.9119 161.887 60.2163 154.312L182.506 79.0306C194.507 71.6419 194.529 54.3277 182.543 46.9111L61.0698 -28.2626Z" fill="url(#paint1_linear_5481_89951)"/>
<path d="M23.0583 75.9646C25.793 16.2319 76.4328 -29.9741 136.166 -27.2395C195.898 -24.5048 242.104 26.1351 239.37 85.8678C236.635 145.601 185.995 191.807 126.262 189.072C66.5296 186.337 20.3236 135.697 23.0583 75.9646Z" fill="url(#paint2_linear_5481_89951)"/>
<path d="M-64.8253 115.35C-41.0814 105.221 -15.474 105.655 6.71169 114.515C51.1056 132.288 76.9371 121.299 94.8534 77.0069C103.778 54.7811 121.201 35.958 144.972 25.8174C192.497 5.57391 247.364 27.5395 267.579 74.9246C287.793 122.31 265.667 177.09 218.153 197.36C194.329 207.523 168.673 207.047 146.453 198.107C102.131 180.429 76.3488 191.459 58.4551 235.805C49.5082 257.978 32.0886 276.736 8.34476 286.866C-39.1429 307.124 -94.0093 285.159 -114.213 237.8C-134.416 190.441 -112.313 135.609 -64.8253 115.35Z" fill="url(#paint3_linear_5481_89951)"/>
<circle cx="150.675" cy="28.9059" r="69.6087" transform="rotate(-0.0800682 150.675 28.9059)" fill="url(#paint4_radial_5481_89951)"/>
</g>
</g>

</svg>
