<svg width="160" height="160" viewBox="0 0 160 160" xmlns="http://www.w3.org/2000/svg">
  <defs>
<radialGradient id="paint0_radial_5481_89840" cx="0" cy="0" r="1" gradientUnits="userSpaceOnUse" gradientTransform="translate(87.1166 9.70149) rotate(90) scale(63.953 63.953)">
<stop offset="0.166667" stop-color="#FF709F"/>
<stop offset="1" stop-color="#FF709F" stop-opacity="0"/>
</radialGradient>
<linearGradient id="paint1_linear_5481_89840" x1="-32.9427" y1="135.365" x2="206.051" y2="-10.0365" gradientUnits="userSpaceOnUse">
<stop offset="0.0598452" stop-color="#8480FE"/>
<stop offset="0.599632" stop-color="#8480FE" stop-opacity="0"/>
</linearGradient>
<linearGradient id="paint2_linear_5481_89840" x1="158.85" y1="31.077" x2="56.3218" y2="141.323" gradientUnits="userSpaceOnUse">
<stop stop-color="#EB1000"/>
<stop offset="1" stop-color="#EB1000" stop-opacity="0"/>
</linearGradient>
<linearGradient id="paint3_linear_5481_89840" x1="34.2515" y1="156.538" x2="216.005" y2="54.7223" gradientUnits="userSpaceOnUse">
<stop stop-color="#FC7D00" stop-opacity="0"/>
<stop offset="0.432292" stop-color="#FC7D00"/>
<stop offset="0.609375" stop-color="#FC7D00"/>
<stop offset="1" stop-color="#FC7D00" stop-opacity="0"/>
</linearGradient>
<radialGradient id="paint4_radial_5481_89840" cx="0" cy="0" r="1" gradientUnits="userSpaceOnUse" gradientTransform="translate(142.433 30.5579) rotate(90) scale(63.953 63.953)">
<stop offset="0.166667" stop-color="#EB1000"/>
<stop offset="1" stop-color="#EB1000" stop-opacity="0"/>
</radialGradient>
<clipPath id="clip0_5481_89840">
<rect x="4" y="4" width="147" height="147" rx="4.43757" fill="white"/>
</clipPath>
</defs>
<clipPath id="mask0_5481_89840">
<path fill-rule="evenodd" d="M51.7386 21.9326H79.1428C81.9536 21.9326 84.6492 23.0492 86.6367 25.0367L115.755 54.1552C117.743 56.1427 118.859 58.8384 118.859 61.6492V103.184C118.859 109.037 114.114 113.782 108.261 113.782H51.7386C45.8855 113.782 41.1406 109.037 41.1406 103.184V32.5306C41.1406 26.6775 45.8855 21.9326 51.7386 21.9326ZM82.7387 52.5579C82.7431 50.6069 81.165 49.0217 79.2139 49.0173C77.2629 49.013 75.6777 50.5911 75.6734 52.5421L75.5952 87.5247L63.6521 78.0257C62.1252 76.8112 59.9028 77.0646 58.6883 78.5915C57.4738 80.1185 57.7272 82.3409 59.2541 83.5553L77.0468 97.7069C78.3414 98.7366 80.1773 98.73 81.4645 97.6911L98.9985 83.5395C100.517 82.3142 100.754 80.0901 99.5288 78.5718C98.3035 77.0536 96.0794 76.8162 94.5611 78.0415L82.6603 87.6466L82.7387 52.5579ZM22.4 75.5233C22.4 73.756 23.8327 72.3233 25.6 72.3233H31.4811C33.2484 72.3233 34.6811 70.8906 34.6811 69.1233C34.6811 67.356 33.2484 65.9233 31.4811 65.9233H25.6C20.2981 65.9233 16 70.2214 16 75.5233V81.0584C16 82.8257 17.4327 84.2584 19.2 84.2584C20.9673 84.2584 22.4 82.8257 22.4 81.0584V75.5233ZM128.519 65.9233C126.752 65.9233 125.319 67.356 125.319 69.1233C125.319 70.8906 126.752 72.3233 128.519 72.3233H134.4C136.167 72.3233 137.6 73.756 137.6 75.5233V81.0584C137.6 82.8257 139.033 84.2584 140.8 84.2584C142.567 84.2584 144 82.8257 144 81.0584V75.5233C144 70.2214 139.702 65.9233 134.4 65.9233H128.519ZM144 95.5882C144 93.8208 142.567 92.3882 140.8 92.3882C139.033 92.3882 137.6 93.8208 137.6 95.5882V106.658C137.6 108.426 139.033 109.858 140.8 109.858C142.567 109.858 144 108.426 144 106.658V95.5882ZM22.4 95.5882C22.4 93.8208 20.9673 92.3882 19.2 92.3882C17.4327 92.3882 16 93.8208 16 95.5882V106.658C16 108.426 17.4327 109.858 19.2 109.858C20.9673 109.858 22.4 108.426 22.4 106.658V95.5882ZM22.4 121.188C22.4 119.421 20.9673 117.988 19.2 117.988C17.4327 117.988 16 119.421 16 121.188V126.723C16 132.025 20.2981 136.323 25.6 136.323H31.4811C33.2484 136.323 34.6811 134.891 34.6811 133.123C34.6811 131.356 33.2484 129.923 31.4811 129.923H25.6C23.8327 129.923 22.4 128.491 22.4 126.723V121.188ZM144 121.188C144 119.421 142.567 117.988 140.8 117.988C139.033 117.988 137.6 119.421 137.6 121.188V126.723C137.6 128.491 136.167 129.923 134.4 129.923H128.519C126.752 129.923 125.319 131.356 125.319 133.123C125.319 134.891 126.752 136.323 128.519 136.323H134.4C139.702 136.323 144 132.025 144 126.723V121.188ZM46.9189 129.923C45.1516 129.923 43.7189 131.356 43.7189 133.123C43.7189 134.891 45.1516 136.323 46.9189 136.323H58.6811C60.4484 136.323 61.8811 134.891 61.8811 133.123C61.8811 131.356 60.4484 129.923 58.6811 129.923H46.9189ZM74.1189 129.923C72.3516 129.923 70.9189 131.356 70.9189 133.123C70.9189 134.891 72.3516 136.323 74.1189 136.323H85.8811C87.6484 136.323 89.0811 134.891 89.0811 133.123C89.0811 131.356 87.6484 129.923 85.8811 129.923H74.1189ZM101.319 129.923C99.5516 129.923 98.1189 131.356 98.1189 133.123C98.1189 134.891 99.5516 136.323 101.319 136.323H113.081C114.848 136.323 116.281 134.891 116.281 133.123C116.281 131.356 114.848 129.923 113.081 129.923H101.319Z" fill="white"/>
</clipPath>
<g clip-path="url(#mask0_5481_89840)">
<g clip-path="url(#clip0_5481_89840)">
<rect x="4" y="4" width="147" height="147" rx="4.43757" fill="#FFECCF"/>
<rect width="147" height="147" transform="translate(4 4)" fill="#FFECCF"/>
<ellipse cx="87.1166" cy="9.70149" rx="63.953" ry="63.953" transform="rotate(-0.0800682 87.1166 9.70149)" fill="url(#paint0_radial_5481_89840)"/>
<path d="M60.1069 -21.9669C48.8174 -28.9528 34.5137 -28.9956 23.1823 -22.0773L-90.1523 47.1212C-101.252 53.8984 -101.271 69.8953 -90.186 76.6981L22.3998 145.799C33.7143 152.742 48.018 152.734 59.3227 145.774L171.677 76.6087C182.702 69.8204 182.723 53.9129 171.71 47.099L60.1069 -21.9669Z" fill="url(#paint1_linear_5481_89840)"/>
<path d="M25.1844 73.7922C27.6969 18.9128 74.2222 -23.539 129.102 -21.0265C183.981 -18.514 226.433 28.0114 223.92 82.8908C221.408 137.77 174.883 180.222 120.003 177.709C65.1237 175.197 22.6719 128.672 25.1844 73.7922Z" fill="url(#paint2_linear_5481_89840)"/>
<path d="M-55.557 109.977C-33.7423 100.671 -10.2155 101.07 10.1676 109.21C50.9545 125.539 74.6871 115.443 91.1478 74.7495C99.3469 54.3296 115.355 37.0358 137.194 27.7191C180.858 9.12041 231.267 29.3013 249.839 72.8364C268.411 116.372 248.083 166.7 204.429 185.324C182.541 194.661 158.969 194.224 138.555 186.011C97.834 169.769 74.1467 179.903 57.7068 220.645C49.4869 241.016 33.4826 258.251 11.668 267.557C-31.9614 286.17 -82.3698 265.989 -100.932 222.478C-119.494 178.967 -99.1863 128.59 -55.557 109.977Z" fill="url(#paint3_linear_5481_89840)"/>
<ellipse cx="142.433" cy="30.5579" rx="63.953" ry="63.953" transform="rotate(-0.0800682 142.433 30.5579)" fill="url(#paint4_radial_5481_89840)"/>
</g>
</g>

</svg>
