<svg width="96" height="96" viewBox="0 0 96 96" xmlns="http://www.w3.org/2000/svg">
  <defs>
<radialGradient id="paint0_radial_5481_99401" cx="0" cy="0" r="1" gradientUnits="userSpaceOnUse" gradientTransform="translate(34.3518 32.3826) rotate(90) scale(32.3826 34.3518)">
<stop offset="0.166667" stop-color="#FF709F"/>
<stop offset="1" stop-color="#FF709F" stop-opacity="0"/>
</radialGradient>
<linearGradient id="paint1_linear_5481_99401" x1="-8.80447" y1="78.7406" x2="115.365" y2="-1.39716" gradientUnits="userSpaceOnUse">
<stop offset="0.0598452" stop-color="#8480FE"/>
<stop offset="0.599632" stop-color="#8480FE" stop-opacity="0"/>
</linearGradient>
<linearGradient id="paint2_linear_5481_99401" x1="94.2141" y1="25.9345" x2="42.6099" y2="84.7975" gradientUnits="userSpaceOnUse">
<stop stop-color="#EB1000"/>
<stop offset="1" stop-color="#EB1000" stop-opacity="0"/>
</linearGradient>
<linearGradient id="paint3_linear_5481_99401" x1="27.2894" y1="89.4614" x2="122.08" y2="33.1321" gradientUnits="userSpaceOnUse">
<stop stop-color="#FC7D00" stop-opacity="0"/>
<stop offset="0.432292" stop-color="#FC7D00"/>
<stop offset="0.609375" stop-color="#FC7D00"/>
<stop offset="1" stop-color="#FC7D00" stop-opacity="0"/>
</linearGradient>
<radialGradient id="paint4_radial_5481_99401" cx="0" cy="0" r="1" gradientUnits="userSpaceOnUse" gradientTransform="translate(34.3518 32.3826) rotate(90) scale(32.3826 34.3518)">
<stop offset="0.166667" stop-color="#EB1000"/>
<stop offset="1" stop-color="#EB1000" stop-opacity="0"/>
</radialGradient>
<clipPath id="clip0_5481_99401">
<rect x="11.0391" y="12.2236" width="78.9598" height="74.4334" rx="2.07674" fill="white"/>
</clipPath>
</defs>
<clipPath id="mask0_5481_99401">
<path fill-rule="evenodd" d="M75.2562 29.0824V58.4824C75.2562 63.7864 70.9602 68.0824 65.6562 68.0824H21.2562C15.9522 68.0824 11.6562 63.7864 11.6562 58.4824V29.0824C11.6562 23.7784 15.9522 19.4824 21.2562 19.4824H65.6562C70.9602 19.4824 75.2562 23.7784 75.2562 29.0824ZM66.8322 33.2104C66.8322 30.3184 64.4862 27.9724 61.5942 27.9724C58.7022 27.9724 56.3562 30.3184 56.3562 33.2104C56.3562 36.1024 58.7022 38.4484 61.5942 38.4484C64.4862 38.4484 66.8322 36.1024 66.8322 33.2104ZM17.3862 57.7324C15.8502 60.1264 17.5662 63.2764 20.4162 63.2764V63.2704H66.1242C68.9742 63.2704 70.6902 60.1204 69.1542 57.7264L62.0863 46.7164C60.6702 44.5084 57.4422 44.5084 56.0262 46.7164L48.0102 59.2084L35.2542 39.3364C33.8382 37.1284 30.6102 37.1284 29.1942 39.3364L17.3862 57.7324ZM84.4108 41.9427C84.4108 40.8382 83.5153 39.9427 82.4108 39.9427C81.3062 39.9427 80.4108 40.8382 80.4108 41.9427V63.9558C80.4108 68.8549 76.4392 72.8264 71.5401 72.8264H35.667C34.5624 72.8264 33.667 73.7219 33.667 74.8264C33.667 75.931 34.5624 76.8264 35.667 76.8264H71.5401C78.6484 76.8264 84.4108 71.0641 84.4108 63.9558V41.9427Z" fill="white"/>
</clipPath>
<g clip-path="url(#mask0_5481_99401)">
<g clip-path="url(#clip0_5481_99401)">
<rect x="11.0391" y="12.2236" width="78.9598" height="74.4334" rx="2.07674" fill="#FFECCF"/>
<rect width="78.9598" height="74.4334" transform="translate(11.0391 12.2236)" fill="#FFECCF"/>
<ellipse cx="34.3518" cy="32.3826" rx="34.3518" ry="32.3826" transform="matrix(0.999999 -0.00131734 0.00148243 0.999999 21.2852 -17.2266)" fill="url(#paint0_radial_5481_99401)"/>
<path d="M41.1763 -0.924593C35.1123 -4.46191 27.4291 -4.48357 21.3426 -0.980517L-39.5341 34.0581C-45.4963 37.4898 -45.5062 45.5898 -39.5522 49.0344L20.9223 84.0234C26.9997 87.5391 34.6829 87.5349 40.7551 84.0108L101.105 48.9891C107.027 45.5519 107.038 37.4971 101.123 34.0469L41.1763 -0.924593Z" fill="url(#paint1_linear_5481_99401)"/>
<path d="M22.417 47.5633C23.7665 19.7751 48.7572 -1.72031 78.2352 -0.448101C107.713 0.824104 130.516 24.3822 129.166 52.1704C127.817 79.9586 102.826 101.454 73.348 100.182C43.87 98.9096 21.0674 75.3515 22.417 47.5633Z" fill="url(#paint2_linear_5481_99401)"/>
<path d="M-20.9504 65.8851C-9.23289 61.1728 3.40437 61.3749 14.353 65.4966C36.2613 73.7647 49.0091 68.6528 57.8508 48.0476C62.2549 37.708 70.8534 28.9513 82.5841 24.2337C106.038 14.8163 133.114 25.0349 143.09 47.0789C153.066 69.1229 142.147 94.6069 118.699 104.037C106.942 108.765 94.2804 108.543 83.3151 104.385C61.4422 96.1605 48.7188 101.292 39.8882 121.922C35.473 132.237 26.8764 140.963 15.1589 145.676C-8.27624 155.1 -35.3527 144.882 -45.3231 122.85C-55.2936 100.818 -44.3855 75.3096 -20.9504 65.8851Z" fill="url(#paint3_linear_5481_99401)"/>
<ellipse cx="34.3518" cy="32.3826" rx="34.3518" ry="32.3826" transform="matrix(0.999999 -0.00131734 0.00148243 0.999999 50.9961 -6.66602)" fill="url(#paint4_radial_5481_99401)"/>
</g>
</g>

</svg>
