<svg width="160" height="160" viewBox="0 0 160 160" xmlns="http://www.w3.org/2000/svg">
  <defs>
<radialGradient id="paint0_radial_5481_90131" cx="0" cy="0" r="1" gradientUnits="userSpaceOnUse" gradientTransform="translate(90.4677 6.20574) rotate(90) scale(69.6088)">
<stop offset="0.166667" stop-color="#FF709F"/>
<stop offset="1" stop-color="#FF709F" stop-opacity="0"/>
</radialGradient>
<linearGradient id="paint1_linear_5481_90131" x1="-40.2086" y1="142.983" x2="219.921" y2="-15.2772" gradientUnits="userSpaceOnUse">
<stop offset="0.0598452" stop-color="#8480FE"/>
<stop offset="0.599632" stop-color="#8480FE" stop-opacity="0"/>
</linearGradient>
<linearGradient id="paint2_linear_5481_90131" x1="168.544" y1="29.4718" x2="56.9494" y2="149.467" gradientUnits="userSpaceOnUse">
<stop stop-color="#EB1000"/>
<stop offset="1" stop-color="#EB1000" stop-opacity="0"/>
</linearGradient>
<linearGradient id="paint3_linear_5481_90131" x1="32.9255" y1="166.029" x2="230.753" y2="55.2086" gradientUnits="userSpaceOnUse">
<stop stop-color="#FC7D00" stop-opacity="0"/>
<stop offset="0.432292" stop-color="#FC7D00"/>
<stop offset="0.609375" stop-color="#FC7D00"/>
<stop offset="1" stop-color="#FC7D00" stop-opacity="0"/>
</linearGradient>
<radialGradient id="paint4_radial_5481_90131" cx="0" cy="0" r="1" gradientUnits="userSpaceOnUse" gradientTransform="translate(150.675 28.9059) rotate(90) scale(69.6088)">
<stop offset="0.166667" stop-color="#EB1000"/>
<stop offset="1" stop-color="#EB1000" stop-opacity="0"/>
</radialGradient>
<clipPath id="clip0_5481_90131">
<rect width="160" height="160" rx="5.125" fill="white"/>
</clipPath>
</defs>
<clipPath id="mask0_5481_90131">
<path fill-rule="evenodd" d="M37.2773 24.25C39.4865 24.25 41.2773 26.0409 41.2773 28.25V34.8945H110.722C117.35 34.8945 122.722 40.2671 122.722 46.8945V88.853C122.722 95.4805 117.35 100.853 110.722 100.853H41.2773L41.2773 131.75C41.2773 133.959 39.4865 135.75 37.2773 135.75C35.0682 135.75 33.2773 133.959 33.2773 131.75L33.2773 28.25C33.2773 26.0409 35.0682 24.25 37.2773 24.25ZM102.079 60.0774C103.711 58.5893 103.829 56.0594 102.34 54.4266C100.852 52.7939 98.3223 52.6767 96.6896 54.1648L95.5124 55.2377L95.4461 55.2982L95.3781 55.3601L95.2375 55.4883L95.0907 55.622L94.9379 55.7614L94.6145 56.056L94.2687 56.3713L93.9013 56.7061L93.8539 56.7493L93.8062 56.7928L93.7582 56.8365L93.7099 56.8806L93.5135 57.0596L92.6811 57.8182L90.8197 59.5148L88.754 61.3975L88.2138 61.8898L87.941 62.1385L87.8725 62.201L87.8039 62.2635L87.7352 62.3261L87.6664 62.3888L87.5285 62.5145L87.4594 62.5774L87.3903 62.6405L87.321 62.7036L87.2517 62.7668L87.1127 62.8934L86.5539 63.4027L86.2729 63.6588L86.2025 63.723L86.1321 63.7872L86.0616 63.8514L85.9911 63.9157L85.4252 64.4314L85.3544 64.496L85.2835 64.5606L85.2125 64.6253L85.1416 64.69L84.8576 64.9488L84.7866 65.0135L84.7155 65.0783L84.5734 65.2078L84.2892 65.4669L83.7211 65.9847L83.1544 66.5012L82.8719 66.7586L82.8014 66.8229L82.7309 66.8871L82.6605 66.9513L82.5902 67.0154L82.3093 67.2714L82.0295 67.5264L81.4736 68.033L81.4045 68.096L81.3355 68.1589L81.1978 68.2845L80.9235 68.5345L80.6509 68.7829L80.5153 68.9065L80.4477 68.9681L80.3802 69.0296L80.2456 69.1523L80.1114 69.2746L80.0446 69.3355L79.9779 69.3963L79.9113 69.457L79.8448 69.5176L78.8024 70.4677L78.675 70.5837L78.6116 70.6415L78.5484 70.6991L78.2974 70.9279L78.0495 71.1539L77.9267 71.2658L77.8657 71.3214L77.8048 71.3769L77.7441 71.4322L77.6837 71.4873L77.5634 71.5969L77.5036 71.6514L77.4441 71.7057L77.3256 71.8137L77.0913 72.0272L77.0333 72.08L76.9756 72.1327L76.9181 72.1851L76.8608 72.2373L76.7471 72.341L76.6905 72.3925L76.6343 72.4438L76.4117 72.6466L76.1933 72.8457L75.9792 73.0408L75.1687 73.7796L74.9424 73.9857L65.6805 65.3483C64.0648 63.8416 61.5337 63.93 60.0271 65.5456C58.5204 67.1612 58.6087 69.6923 60.2243 71.199L72.1833 82.3515C73.7069 83.7724 76.0661 83.7859 77.6058 82.3825L74.9114 79.4262C77.6058 82.3825 77.6059 82.3824 77.6061 82.3823L77.6069 82.3815L77.6102 82.3785L77.6233 82.3666L77.6748 82.3197L77.8759 82.1364L77.9458 82.0727L77.9835 82.0383L78.0032 82.0204L78.0232 82.0021L78.2003 81.8407L78.4061 81.6531L78.6395 81.4405L78.8993 81.2036L79.1845 80.9437L79.8268 80.3583L80.0015 80.199L80.0461 80.1584L80.091 80.1175L80.1362 80.0763L80.1817 80.0348L80.3671 79.8659L80.4617 79.7796L80.5576 79.6922L80.9535 79.3314L81.1585 79.1445L81.2105 79.0971L81.2628 79.0495L81.3682 78.9534L81.5822 78.7583L81.6909 78.6593L81.8006 78.5593L82.2498 78.1499L82.4803 77.9398L82.7145 77.7263L82.7737 77.6724L82.833 77.6183L82.9524 77.5095L83.0726 77.3999L83.1937 77.2896L83.2546 77.2341L83.3157 77.1784L83.377 77.1226L83.4385 77.0665L83.6864 76.8406L83.9374 76.6118L84.064 76.4964L84.1913 76.3803L84.4481 76.1463L84.7075 75.9099L84.7727 75.8504L84.8382 75.7908L84.9694 75.6711L85.0353 75.6111L85.1013 75.5509L85.2338 75.4302L86.3124 74.4471L86.8626 73.9457L87.4185 73.439L87.4883 73.3753L87.5582 73.3116L87.6983 73.184L87.9791 72.928L88.1199 72.7998L88.1903 72.7355L88.2608 72.6713L88.3314 72.607L88.402 72.5426L88.5433 72.4138L89.11 71.8973L89.181 71.8326L89.2519 71.768L89.3939 71.6385L89.6781 71.3795L89.9623 71.1205L90.0334 71.0557L90.1045 70.9909L90.2465 70.8614L90.5305 70.6026L90.6724 70.4733L90.7433 70.4087L90.8142 70.3441L91.0974 70.0859L91.1681 70.0215L91.2388 69.9571L91.38 69.8284L91.4505 69.7641L91.521 69.6998L91.5915 69.6356L91.6619 69.5715L91.8025 69.4433L91.8727 69.3793L91.9428 69.3154L92.083 69.1877L92.2228 69.0602L92.5017 68.8061L92.6406 68.6794L92.7099 68.6162L92.7792 68.5531L92.8484 68.4901L92.9174 68.4271L93.0553 68.3014L93.1928 68.1761L93.3299 68.0512L93.3983 67.9888L93.4666 67.9266L93.6028 67.8025L93.6707 67.7405L93.7386 67.6787L93.8063 67.617L93.8738 67.5554L94.0086 67.4325L94.0759 67.3713L94.1429 67.3102L95.1969 66.3495L95.3259 66.232L95.3901 66.1734L95.4542 66.1151L95.518 66.0568L95.5817 65.9988L95.6453 65.9409L95.7086 65.8832L95.7718 65.8256L95.8347 65.7682L95.8975 65.711L95.9601 65.6539L96.0848 65.5403L96.1468 65.4838L96.2086 65.4274L96.2702 65.3713L96.3317 65.3153L96.3929 65.2595L96.4539 65.2039L96.6958 64.9834L96.7558 64.9287L96.8155 64.8743L96.9343 64.766L96.9934 64.7122L97.0522 64.6585L97.1692 64.5519L97.2274 64.4989L97.2853 64.4461L97.343 64.3936L97.4004 64.3412L97.5145 64.2372L97.5712 64.1855L97.6277 64.1341L97.6839 64.0828L97.7398 64.0318L97.7955 63.9811L97.851 63.9306L97.9061 63.8803L97.961 63.8302L98.0157 63.7804L98.0701 63.7308L98.2849 63.535L98.4954 63.3432L98.7013 63.1556L98.752 63.1093L98.8024 63.0633L98.8526 63.0176L98.9025 62.9722L99.6576 62.2839L100.003 61.9687L100.327 61.674L100.404 61.6037L100.48 61.5347L100.626 61.4009L100.767 61.2727L100.835 61.2108L100.868 61.1804L100.901 61.1503L101.373 60.7209L101.732 60.3936L102.079 60.0774Z" fill="white"/>
</clipPath>
<g clip-path="url(#mask0_5481_90131)">
<g clip-path="url(#clip0_5481_90131)">
<rect width="160" height="160" rx="5.125" fill="#FFECCF"/>
<rect width="160" height="160" fill="#FFECCF"/>
<circle cx="90.4677" cy="6.20574" r="69.6087" transform="rotate(-0.0800682 90.4677 6.20574)" fill="url(#paint0_radial_5481_90131)"/>
<path d="M61.0698 -28.2626C48.782 -35.8663 33.2133 -35.9129 20.8798 -28.3828L-102.478 46.9353C-114.559 54.3119 -114.579 71.7234 -102.514 79.1279L20.0281 154.339C32.3432 161.896 47.9119 161.887 60.2163 154.312L182.506 79.0306C194.507 71.6419 194.529 54.3277 182.543 46.9111L61.0698 -28.2626Z" fill="url(#paint1_linear_5481_90131)"/>
<path d="M23.0583 75.9646C25.793 16.2319 76.4328 -29.9741 136.166 -27.2395C195.898 -24.5048 242.104 26.1351 239.37 85.8678C236.635 145.601 185.995 191.807 126.262 189.072C66.5296 186.337 20.3236 135.697 23.0583 75.9646Z" fill="url(#paint2_linear_5481_90131)"/>
<path d="M-64.8253 115.35C-41.0814 105.221 -15.474 105.655 6.71169 114.515C51.1056 132.288 76.9371 121.299 94.8534 77.0069C103.778 54.7811 121.201 35.958 144.972 25.8174C192.497 5.57391 247.364 27.5395 267.579 74.9246C287.793 122.31 265.667 177.09 218.153 197.36C194.329 207.523 168.673 207.047 146.453 198.107C102.131 180.429 76.3488 191.459 58.4551 235.805C49.5082 257.978 32.0886 276.736 8.34476 286.866C-39.1429 307.124 -94.0093 285.159 -114.213 237.8C-134.416 190.441 -112.313 135.609 -64.8253 115.35Z" fill="url(#paint3_linear_5481_90131)"/>
<circle cx="150.675" cy="28.9059" r="69.6087" transform="rotate(-0.0800682 150.675 28.9059)" fill="url(#paint4_radial_5481_90131)"/>
</g>
</g>

</svg>
