<svg width="160" height="160" viewBox="0 0 160 160" xmlns="http://www.w3.org/2000/svg">
  <defs>
<radialGradient id="paint0_radial_5481_89876" cx="0" cy="0" r="1" gradientUnits="userSpaceOnUse" gradientTransform="translate(61.7778 58.2973) rotate(90) scale(58.2973 61.7778)">
<stop offset="0.166667" stop-color="#FF709F"/>
<stop offset="1" stop-color="#FF709F" stop-opacity="0"/>
</radialGradient>
<linearGradient id="paint1_linear_5481_89876" x1="-28.6878" y1="137.748" x2="194.754" y2="-6.30791" gradientUnits="userSpaceOnUse">
<stop offset="0.0598452" stop-color="#8480FE"/>
<stop offset="0.599632" stop-color="#8480FE" stop-opacity="0"/>
</linearGradient>
<linearGradient id="paint2_linear_5481_89876" x1="156.584" y1="42.6822" x2="63.6701" y2="148.555" gradientUnits="userSpaceOnUse">
<stop stop-color="#EB1000"/>
<stop offset="1" stop-color="#EB1000" stop-opacity="0"/>
</linearGradient>
<linearGradient id="paint3_linear_5481_89876" x1="36.2219" y1="157.049" x2="206.784" y2="55.798" gradientUnits="userSpaceOnUse">
<stop stop-color="#FC7D00" stop-opacity="0"/>
<stop offset="0.432292" stop-color="#FC7D00"/>
<stop offset="0.609375" stop-color="#FC7D00"/>
<stop offset="1" stop-color="#FC7D00" stop-opacity="0"/>
</linearGradient>
<radialGradient id="paint4_radial_5481_89876" cx="0" cy="0" r="1" gradientUnits="userSpaceOnUse" gradientTransform="translate(61.7778 58.2973) rotate(90) scale(58.2973 61.7778)">
<stop offset="0.166667" stop-color="#EB1000"/>
<stop offset="1" stop-color="#EB1000" stop-opacity="0"/>
</radialGradient>
<clipPath id="clip0_5481_89876">
<rect x="7" y="18" width="142" height="134" rx="3.46124" fill="white"/>
</clipPath>
</defs>
<clipPath id="mask0_5481_89876">
<path fill-rule="evenodd" d="M109.922 32.1598C112.782 29.2998 112.782 24.6798 109.922 21.8198C107.062 18.9598 102.442 18.9598 99.5825 21.8198C96.7225 24.6798 96.7225 29.2998 99.5825 32.1598C102.442 35.0198 107.062 35.0198 109.922 32.1598ZM64.8011 72.1198C63.0711 73.4998 62.7911 76.0198 64.1711 77.7398C64.9611 78.7298 66.1211 79.2398 67.3011 79.2398C68.1811 79.2398 69.0611 78.9498 69.7911 78.3598C89.0111 63.0098 88.1311 46.8998 88.091 46.2198C87.941 44.0298 86.0611 42.3998 83.8711 42.5198C81.6811 42.6498 80.0011 44.5398 80.1111 46.7298C80.1311 47.2498 80.5411 59.5398 64.8011 72.1098V72.1198ZM98.8026 101.99C97.7726 100.04 98.5226 97.6198 100.473 96.5898H100.483C102.433 95.5598 104.853 96.3098 105.883 98.2598C111.613 109.12 109.773 114.44 107.223 116.99C106.393 117.82 105.273 118.57 103.773 119.01L34.5226 143.61C33.1826 144.09 31.8126 144.32 30.4626 144.32C27.3526 144.32 24.3226 143.09 22.0226 140.79C18.7226 137.49 17.6426 132.7 19.2026 128.29L43.5226 59.7598C43.6626 59.2398 43.8426 58.7398 44.0726 58.2598C44.5226 57.1398 45.1426 56.2598 45.8226 55.5798C48.3926 53.0098 53.7626 51.1798 64.7526 57.0298C66.7026 58.0698 67.4426 60.4898 66.4026 62.4398C65.3626 64.3898 62.9426 65.1298 60.9926 64.0898C54.8026 60.7998 51.9626 60.9998 51.4726 61.2498V61.2698L51.2926 61.7798C50.8926 64.8198 55.4926 76.6498 70.8226 91.9798C82.4426 103.6 92.0426 109.05 97.3626 110.82C99.4226 111.24 100.883 111.34 101.623 111.24C101.813 110.69 101.913 107.89 98.8026 101.99ZM77.4922 89.4298C76.4622 89.4298 75.4422 89.0398 74.6622 88.2598C73.1022 86.6898 73.1022 84.1598 74.6622 82.5998L90.2722 66.9898C91.8422 65.4298 94.3722 65.4298 95.9322 66.9898C97.4922 68.5598 97.4922 71.0898 95.9322 72.6498L80.3222 88.2598C79.5422 89.0398 78.5222 89.4298 77.4922 89.4298ZM84.5421 93.1298C99.8922 73.9098 116.002 74.7898 116.682 74.8298L116.672 74.8398C118.882 74.9898 120.542 76.8998 120.392 79.0998C120.242 81.2898 118.352 82.9598 116.162 82.8198C115.572 82.7998 103.322 82.4498 90.7921 98.1298C90.0022 99.1198 88.8322 99.6298 87.6621 99.6298C86.7922 99.6298 85.9121 99.3398 85.1721 98.7498C83.4421 97.3698 83.1621 94.8598 84.5421 93.1298ZM125.041 92.1698C127.901 89.3098 132.521 89.3098 135.381 92.1698C138.241 95.0298 138.241 99.6498 135.381 102.51C132.521 105.37 127.901 105.37 125.041 102.51C122.181 99.6498 122.181 95.0298 125.041 92.1698ZM56.3535 28.1952L54.4329 29.6008C52.6502 30.9056 52.2628 33.4084 53.5675 35.1911L61.3812 45.8672C62.6859 47.6499 65.1888 48.0373 66.9715 46.7326L68.892 45.327C70.6747 44.0222 71.0622 41.5194 69.7575 39.7367L61.9437 29.0606C60.639 27.2779 58.1362 26.8905 56.3535 28.1952ZM107.23 54.8514L120.376 53.3629C122.572 53.1143 124.553 54.6923 124.801 56.8874L125.069 59.2523C125.317 61.4474 123.739 63.4284 121.544 63.6769L108.398 65.1654C106.203 65.414 104.222 63.836 103.974 61.6409L103.706 59.276C103.457 57.0809 105.035 55.0999 107.23 54.8514Z" fill="white"/>
</clipPath>
<g clip-path="url(#mask0_5481_89876)">
<g clip-path="url(#clip0_5481_89876)">
<rect x="7" y="18" width="142" height="134" rx="3.46124" fill="#FFECCF"/>
<rect width="142" height="134" transform="translate(7 18)" fill="#FFECCF"/>
<ellipse cx="61.7778" cy="58.2973" rx="61.7778" ry="58.2973" transform="matrix(0.999999 -0.00131872 0.00148088 0.999999 25.4258 -35.0186)" fill="url(#paint0_radial_5481_89876)"/>
<path d="M61.1969 -5.6702C50.2914 -12.0383 36.4742 -12.0773 25.5282 -5.77087L-83.9515 57.308C-94.6737 63.4859 -94.6916 78.0681 -83.984 84.2693L24.7724 147.259C35.702 153.588 49.5192 153.58 60.4394 147.236L168.972 84.1878C179.623 77.9998 179.642 63.4992 169.004 57.2878L61.1969 -5.6702Z" fill="url(#paint1_linear_5481_89876)"/>
<path d="M27.4652 81.6199C29.8922 31.5937 74.8351 -7.10384 127.848 -4.81353C180.861 -2.52322 221.868 39.8877 219.441 89.9138C217.014 139.94 172.072 178.637 119.059 176.347C66.046 174.057 25.0381 131.646 27.4652 81.6199Z" fill="url(#paint2_linear_5481_89876)"/>
<path d="M-50.5319 114.605C-29.4593 106.122 -6.73264 106.486 12.9571 113.906C52.3567 128.791 75.2821 119.588 91.1829 82.493C99.1031 63.8789 114.567 48.1146 135.663 39.6218C177.842 22.6679 226.536 41.064 244.476 80.7491C262.417 120.434 242.78 166.312 200.611 183.288C179.468 191.8 156.697 191.402 136.977 183.915C97.6417 169.109 74.76 178.347 58.8794 215.486C50.939 234.056 35.4791 249.766 14.4065 258.25C-27.7389 275.216 -76.4327 256.82 -94.3634 217.157C-112.294 177.494 -92.6773 131.572 -50.5319 114.605Z" fill="url(#paint3_linear_5481_89876)"/>
<ellipse cx="61.7778" cy="58.2973" rx="61.7778" ry="58.2973" transform="matrix(0.999999 -0.00131872 0.00148088 0.999999 78.8594 -16.0068)" fill="url(#paint4_radial_5481_89876)"/>
</g>
</g>

</svg>
