<svg width="48" height="48" viewBox="0 0 48 48" xmlns="http://www.w3.org/2000/svg">
  <defs>
<radialGradient id="paint0_radial_5481_99423" cx="0" cy="0" r="1" gradientUnits="userSpaceOnUse" gradientTransform="translate(17.0977 16.1176) rotate(90) scale(16.1176 17.0977)">
<stop offset="0.166667" stop-color="#FF709F"/>
<stop offset="1" stop-color="#FF709F" stop-opacity="0"/>
</radialGradient>
<linearGradient id="paint1_linear_5481_99423" x1="-5.97653" y1="39.3034" x2="55.8257" y2="-0.582971" gradientUnits="userSpaceOnUse">
<stop offset="0.0598452" stop-color="#8480FE"/>
<stop offset="0.599632" stop-color="#8480FE" stop-opacity="0"/>
</linearGradient>
<linearGradient id="paint2_linear_5481_99423" x1="45.2963" y1="13.0199" x2="19.6117" y2="42.3174" gradientUnits="userSpaceOnUse">
<stop stop-color="#EB1000"/>
<stop offset="1" stop-color="#EB1000" stop-opacity="0"/>
</linearGradient>
<linearGradient id="paint3_linear_5481_99423" x1="11.9864" y1="44.6395" x2="59.1656" y2="16.6031" gradientUnits="userSpaceOnUse">
<stop stop-color="#FC7D00" stop-opacity="0"/>
<stop offset="0.432292" stop-color="#FC7D00"/>
<stop offset="0.609375" stop-color="#FC7D00"/>
<stop offset="1" stop-color="#FC7D00" stop-opacity="0"/>
</linearGradient>
<radialGradient id="paint4_radial_5481_99423" cx="0" cy="0" r="1" gradientUnits="userSpaceOnUse" gradientTransform="translate(17.0977 16.1176) rotate(90) scale(16.1176 17.0977)">
<stop offset="0.166667" stop-color="#EB1000"/>
<stop offset="1" stop-color="#EB1000" stop-opacity="0"/>
</radialGradient>
<clipPath id="clip0_5481_99423">
<rect x="3.89844" y="6.19629" width="39.3001" height="37.0472" rx="1.03837" fill="white"/>
</clipPath>
</defs>
<clipPath id="mask0_5481_99423">
<path fill-rule="evenodd" d="M38.432 8.47311C38.4426 7.81045 37.914 7.26467 37.2514 7.25406C36.5887 7.24346 36.0429 7.77206 36.0323 8.43471L36.0155 9.48417L34.9643 9.46805C34.3016 9.45789 33.7562 9.98685 33.746 10.6495C33.7359 11.3122 34.2648 11.8576 34.9275 11.8678L35.9771 11.8839L35.9603 12.9347C35.9497 13.5974 36.4783 14.1432 37.141 14.1538C37.8036 14.1644 38.3494 13.6358 38.36 12.9731L38.3768 11.9207L39.4275 11.9368C40.0902 11.9469 40.6356 11.418 40.6458 10.7553C40.6559 10.0926 40.127 9.54721 39.4643 9.53705L38.4152 9.52097L38.432 8.47311ZM20.0971 9.23681C20.0971 8.57407 19.5599 8.03681 18.8971 8.03681C18.2344 8.03681 17.6971 8.57407 17.6971 9.23681V12.2788C17.6971 12.9415 18.2344 13.4788 18.8971 13.4788C19.5599 13.4788 20.0971 12.9415 20.0971 12.2788V9.23681ZM12.5878 10.0838C13.1241 9.69444 13.8745 9.81359 14.2639 10.3499L16.0519 12.8129C16.4412 13.3492 16.3221 14.0996 15.7857 14.489C15.2494 14.8783 14.499 14.7592 14.1097 14.2228L12.3217 11.7598C11.9323 11.2235 12.0515 10.4731 12.5878 10.0838ZM10.1982 14.6835C9.56785 14.4788 8.89093 14.8239 8.68627 15.4543C8.4816 16.0846 8.82668 16.7615 9.45703 16.9662L12.349 17.9052C12.9794 18.1099 13.6563 17.7648 13.861 17.1344C14.0656 16.5041 13.7205 15.8272 13.0902 15.6225L10.1982 14.6835ZM13.8619 20.4077C14.0663 21.0381 13.721 21.7149 13.0906 21.9194L10.1956 22.8584C9.56522 23.0628 8.88841 22.7176 8.68393 22.0871C8.47946 21.4567 8.82475 20.7799 9.45516 20.5755L12.3502 19.6365C12.9806 19.432 13.6574 19.7773 13.8619 20.4077ZM16.0478 24.7324C16.4374 24.1963 16.3187 23.4459 15.7826 23.0562C15.2465 22.6666 14.496 22.7853 14.1064 23.3214L12.3184 25.7814C11.9287 26.3175 12.0474 27.068 12.5835 27.4576C13.1196 27.8473 13.8701 27.7285 14.2598 27.1924L16.0478 24.7324ZM20.0934 25.2659C20.0934 24.6032 19.5561 24.0659 18.8934 24.0659C18.2306 24.0659 17.6934 24.6032 17.6934 25.2659V28.3079C17.6934 28.9707 18.2306 29.5079 18.8934 29.5079C19.5561 29.5079 20.0934 28.9707 20.0934 28.3079V25.2659ZM25.2088 10.0872C25.7449 10.4768 25.8636 11.2273 25.4739 11.7634L23.6859 14.2234C23.2963 14.7595 22.5458 14.8782 22.0097 14.4885C21.4736 14.0989 21.3549 13.3484 21.7445 12.8123L23.5325 10.3523C23.9222 9.81623 24.6727 9.69751 25.2088 10.0872ZM28.3362 16.9692C28.9665 16.7645 29.3116 16.0876 29.107 15.4573C28.9023 14.8269 28.2254 14.4818 27.595 14.6865L24.703 15.6255C24.0727 15.8302 23.7276 16.5071 23.9323 17.1374C24.1369 17.7678 24.8138 18.1129 25.4442 17.9082L28.3362 16.9692ZM23.9323 20.4103C24.1369 19.7799 24.8138 19.4348 25.4442 19.6395L28.3362 20.5785C28.9665 20.7832 29.3116 21.4601 29.107 22.0904C28.9023 22.7208 28.2254 23.0659 27.595 22.8612L24.703 21.9222C24.0727 21.7175 23.7276 21.0406 23.9323 20.4103ZM23.6844 23.322C23.295 22.7856 22.5446 22.6665 22.0083 23.0558C21.472 23.4452 21.3528 24.1956 21.7422 24.7319L23.5302 27.1949C23.9195 27.7312 24.6699 27.8504 25.2062 27.461C25.7426 27.0717 25.8617 26.3213 25.4724 25.785L23.6844 23.322ZM32.711 34.4879C33.3738 34.4906 33.9089 35.03 33.9062 35.6928L33.9002 37.1778C33.8975 37.8405 33.3581 38.3756 32.6953 38.3729C32.0326 38.3702 31.4975 37.8308 31.5002 37.1681L31.5062 35.6831C31.5089 35.0203 32.0483 34.4852 32.711 34.4879ZM30.0291 34.8424C30.6043 34.5133 30.8039 33.7802 30.4748 33.205C30.1457 32.6297 29.4125 32.4302 28.8373 32.7593L27.5473 33.4973C26.972 33.8264 26.7725 34.5595 27.1016 35.1347C27.4307 35.71 28.1638 35.9095 28.7391 35.5804L30.0291 34.8424ZM27.108 28.6704C27.4413 28.0975 28.1758 27.9033 28.7487 28.2366L30.0327 28.9836C30.6055 29.3169 30.7998 30.0514 30.4665 30.6243C30.1332 31.1971 29.3987 31.3913 28.8258 31.0581L27.5418 30.3111C26.969 29.9778 26.7748 29.2432 27.108 28.6704ZM33.9062 26.6477C33.9089 25.9849 33.3738 25.4455 32.711 25.4428C32.0483 25.4401 31.5089 25.9752 31.5062 26.638L31.5002 28.123C31.4975 28.7857 32.0326 29.3251 32.6953 29.3278C33.3581 29.3305 33.8975 28.7954 33.9002 28.1327L33.9062 26.6477ZM38.3064 28.681C38.6355 29.2563 38.436 29.9894 37.8607 30.3185L36.5707 31.0565C35.9954 31.3856 35.2623 31.1861 34.9332 30.6108C34.6041 30.0356 34.8037 29.3024 35.3789 28.9733L36.6689 28.2353C37.2442 27.9062 37.9773 28.1058 38.3064 28.681ZM36.5822 32.7576C36.0093 32.4243 35.2747 32.6185 34.9415 33.1914C34.6082 33.7642 34.8024 34.4988 35.3753 34.8321L36.6593 35.5791C37.2321 35.9123 37.9667 35.7181 38.3 35.1453C38.6332 34.5724 38.439 33.8378 37.8662 33.5046L36.5822 32.7576ZM7.04311 37.3465C7.05327 36.6838 7.59871 36.1549 8.26137 36.165L9.31025 36.1811L9.32637 35.1295C9.33653 34.4668 9.88196 33.9379 10.5446 33.948C11.2073 33.9582 11.7362 34.5036 11.7261 35.1663L11.71 36.2179L12.7614 36.234C13.424 36.2442 13.953 36.7896 13.9428 37.4523C13.9327 38.115 13.3872 38.6439 12.7246 38.6338L11.6732 38.6176L11.6571 39.6663C11.6469 40.329 11.1015 40.8579 10.4388 40.8478C9.77617 40.8376 9.24721 40.2922 9.25737 39.6295L9.27345 38.5808L8.22457 38.5648C7.56191 38.5546 7.03295 38.0092 7.04311 37.3465Z" fill="white"/>
</clipPath>
<g clip-path="url(#mask0_5481_99423)">
<g clip-path="url(#clip0_5481_99423)">
<rect x="3.89844" y="6.19629" width="39.3001" height="37.0472" rx="1.03837" fill="#FFECCF"/>
<rect width="39.3001" height="37.0472" transform="translate(3.89844 6.19629)" fill="#FFECCF"/>
<ellipse cx="17.0977" cy="16.1176" rx="17.0977" ry="16.1176" transform="matrix(0.999999 -0.00131734 0.00148243 0.999999 9 -8.46191)" fill="url(#paint0_radial_5481_99423)"/>
<path d="M18.9001 -0.347766C15.8819 -2.10837 12.0578 -2.11915 9.02836 -0.3756L-21.2714 17.064C-24.2389 18.772 -24.2438 22.8035 -21.2804 24.518L8.81916 41.9328C11.8441 43.6827 15.6681 43.6806 18.6904 41.9266L48.728 24.4955C51.6757 22.7847 51.6811 18.7756 48.737 17.0584L18.9001 -0.347766Z" fill="url(#paint1_linear_5481_99423)"/>
<path d="M9.56118 23.7851C10.2329 9.95429 22.6713 -0.744495 37.3432 -0.111288C52.0151 0.521918 63.3645 12.2473 62.6928 26.0782C62.0211 39.909 49.5826 50.6078 34.9107 49.9746C20.2389 49.3414 8.88946 37.616 9.56118 23.7851Z" fill="url(#paint2_linear_5481_99423)"/>
<path d="M-12.0237 32.905C-6.19164 30.5596 0.0982146 30.6602 5.54758 32.7117C16.4519 36.8269 22.7967 34.2826 27.1975 24.0269C29.3895 18.8806 33.6692 14.5222 39.5078 12.1742C51.1813 7.48693 64.6579 12.5729 69.6232 23.5448C74.5885 34.5166 69.1538 47.2006 57.483 51.894C51.6313 54.2473 45.3293 54.1371 39.8716 52.0671C28.985 47.9739 22.6522 50.5279 18.2571 60.7958C16.0595 65.9298 11.7808 70.2733 5.9487 72.6187C-5.7155 77.3095 -19.1921 72.2235 -24.1546 61.2578C-29.1171 50.2921 -23.6879 37.5958 -12.0237 32.905Z" fill="url(#paint3_linear_5481_99423)"/>
<ellipse cx="17.0977" cy="16.1176" rx="17.0977" ry="16.1176" transform="matrix(0.999999 -0.00131734 0.00148243 0.999999 23.7852 -3.20605)" fill="url(#paint4_radial_5481_99423)"/>
</g>
</g>

</svg>
