<svg width="160" height="160" viewBox="0 0 160 160" xmlns="http://www.w3.org/2000/svg">
  <defs>
<radialGradient id="paint0_radial_5481_89852" cx="0" cy="0" r="1" gradientUnits="userSpaceOnUse" gradientTransform="translate(56.9923 53.7253) rotate(90) scale(53.7253 56.9923)">
<stop offset="0.166667" stop-color="#FF709F"/>
<stop offset="1" stop-color="#FF709F" stop-opacity="0"/>
</radialGradient>
<linearGradient id="paint1_linear_5481_89852" x1="-19.9205" y1="133.557" x2="186.087" y2="0.602677" gradientUnits="userSpaceOnUse">
<stop offset="0.0598452" stop-color="#8480FE"/>
<stop offset="0.599632" stop-color="#8480FE" stop-opacity="0"/>
</linearGradient>
<linearGradient id="paint2_linear_5481_89852" x1="150.995" y1="45.9473" x2="65.3801" y2="143.606" gradientUnits="userSpaceOnUse">
<stop stop-color="#EB1000"/>
<stop offset="1" stop-color="#EB1000" stop-opacity="0"/>
</linearGradient>
<linearGradient id="paint3_linear_5481_89852" x1="39.9585" y1="151.344" x2="197.223" y2="57.889" gradientUnits="userSpaceOnUse">
<stop stop-color="#FC7D00" stop-opacity="0"/>
<stop offset="0.432292" stop-color="#FC7D00"/>
<stop offset="0.609375" stop-color="#FC7D00"/>
<stop offset="1" stop-color="#FC7D00" stop-opacity="0"/>
</linearGradient>
<radialGradient id="paint4_radial_5481_89852" cx="0" cy="0" r="1" gradientUnits="userSpaceOnUse" gradientTransform="translate(56.9923 53.7253) rotate(90) scale(53.7253 56.9923)">
<stop offset="0.166667" stop-color="#EB1000"/>
<stop offset="1" stop-color="#EB1000" stop-opacity="0"/>
</radialGradient>
<clipPath id="clip0_5481_89852">
<rect x="13" y="23.2002" width="131" height="123.491" rx="3.46124" fill="white"/>
</clipPath>
</defs>
<clipPath id="mask0_5481_89852">
<path fill-rule="evenodd" d="M107.022 87.2201C100.862 93.1001 93.2322 99.2001 83.8022 105.41H83.7922C83.0022 105.93 82.1822 106.37 81.3322 106.74C75.3822 109.32 68.3322 108.1 63.6222 103.39L60.0822 99.8501L56.5422 96.3101C52.0822 91.84 50.7622 85.2901 52.8322 79.5501C53.2622 78.3701 53.8222 77.22 54.5322 76.14C59.0222 69.32 63.4622 63.4501 67.7922 58.3901C92.9622 29.0001 114.762 27.1001 124.712 28.2301C128.392 28.6501 131.292 31.5601 131.712 35.2301C132.762 44.5301 131.182 64.1701 107.022 87.2201ZM108.722 51.2301C105.412 47.9301 100.052 47.9301 96.7522 51.2301C93.4522 54.5401 93.4422 59.9001 96.7522 63.2001C100.062 66.5 105.422 66.5101 108.722 63.2001C112.022 59.8901 112.032 54.5301 108.722 51.2301ZM44.1112 81.94L33.6312 82.12V82.13C26.8212 82.25 22.9612 74.33 27.2812 69.07C39.4912 54.22 55.9412 48.93 66.6712 47.72C60.2011 54.54 53.9111 62.56 47.8511 71.76C45.7911 74.89 44.5612 78.39 44.1112 81.94ZM28.7011 118.54C27.9211 119.32 26.8911 119.71 25.8711 119.71C24.8411 119.71 23.8211 119.32 23.0411 118.54C21.4811 116.97 21.4811 114.44 23.0411 112.88L33.5411 102.38C35.1111 100.82 37.6411 100.82 39.2011 102.38C40.7611 103.95 40.7611 106.48 39.2011 108.04L28.7011 118.54ZM42.7013 111.54C44.2713 109.98 46.8013 109.98 48.3613 111.54C49.9212 113.11 49.9212 115.64 48.3613 117.2L28.3612 137.2C27.5812 137.98 26.5613 138.37 25.5312 138.37C24.5013 138.37 23.4812 137.98 22.7012 137.2C21.1413 135.63 21.1413 133.1 22.7012 131.54L42.7013 111.54ZM51.922 120.75L40.922 131.75C39.362 133.31 39.362 135.84 40.922 137.41C41.702 138.19 42.722 138.58 43.752 138.58C44.782 138.58 45.802 138.19 46.582 137.41L57.582 126.41C59.142 124.85 59.142 122.32 57.582 120.75C56.022 119.18 53.492 119.19 51.922 120.75ZM78.0329 115.86L77.8529 126.3C77.7329 133.15 85.7029 136.95 90.9829 132.59C105.743 120.41 111.023 104.04 112.253 93.3201C105.773 99.4401 97.8629 105.73 88.2029 112.09C85.1229 114.12 81.6529 115.39 78.0329 115.86Z" fill="white"/>
</clipPath>
<g clip-path="url(#mask0_5481_89852)">
<g clip-path="url(#clip0_5481_89852)">
<rect x="13" y="23.2002" width="131" height="123.491" rx="3.46124" fill="#FFECCF"/>
<rect width="131" height="123.491" transform="translate(13 23.2002)" fill="#FFECCF"/>
<ellipse cx="56.9923" cy="53.7253" rx="56.9923" ry="53.7253" transform="matrix(0.999999 -0.00131734 0.00148243 0.999999 30 -25.6602)" fill="url(#paint0_radial_5481_89852)"/>
<path d="M63.0015 1.38668C52.9408 -4.482 40.1939 -4.51794 30.0958 1.2939L-70.9034 59.4257C-80.795 65.1191 -80.8115 78.5576 -70.9334 84.2726L29.3985 142.322C39.4815 148.155 52.2284 148.148 62.3027 142.301L162.428 84.1974C172.254 78.4947 172.272 65.1313 162.458 59.4071L63.0015 1.38668Z" fill="url(#paint1_linear_5481_89852)"/>
<path d="M31.8784 81.8313C34.1175 35.7285 75.579 0.0658801 124.485 2.17657C173.392 4.28726 211.223 43.372 208.984 89.4748C206.745 135.578 165.283 171.24 116.377 169.129C67.4707 167.019 29.6394 127.934 31.8784 81.8313Z" fill="url(#paint2_linear_5481_89852)"/>
<path d="M-40.0752 112.229C-20.6349 104.411 0.331309 104.746 18.4959 111.584C54.8435 125.302 75.9931 116.821 90.6621 82.6349C97.9688 65.4807 112.234 50.9527 131.697 43.1259C170.608 27.5017 215.53 44.4551 232.081 81.0278C248.632 117.6 230.516 159.88 191.614 175.525C172.108 183.37 151.102 183.002 132.909 176.102C96.6206 162.458 75.5114 170.971 60.8609 205.198C53.5356 222.311 39.2733 236.79 19.8329 244.608C-19.0477 260.244 -63.9697 243.29 -80.5114 206.738C-97.0531 170.186 -78.9559 127.865 -40.0752 112.229Z" fill="url(#paint3_linear_5481_89852)"/>
<ellipse cx="56.9923" cy="53.7253" rx="56.9923" ry="53.7253" transform="matrix(0.999999 -0.00131734 0.00148243 0.999999 79.293 -8.13965)" fill="url(#paint4_radial_5481_89852)"/>
</g>
</g>

</svg>
