<svg width="48" height="48" viewBox="0 0 48 48" xmlns="http://www.w3.org/2000/svg">
  <defs>
<radialGradient id="paint0_radial_5481_99360" cx="0" cy="0" r="1" gradientUnits="userSpaceOnUse" gradientTransform="translate(18.1418 17.0977) rotate(90) scale(17.0977 18.1418)">
<stop offset="0.166667" stop-color="#FF709F"/>
<stop offset="1" stop-color="#FF709F" stop-opacity="0"/>
</radialGradient>
<linearGradient id="paint1_linear_5481_99360" x1="-6.58223" y1="39.9203" x2="58.9846" y2="-2.40605" gradientUnits="userSpaceOnUse">
<stop offset="0.0598452" stop-color="#8480FE"/>
<stop offset="0.599632" stop-color="#8480FE" stop-opacity="0"/>
</linearGradient>
<linearGradient id="paint2_linear_5481_99360" x1="47.8238" y1="12.039" x2="20.5783" y2="43.1246" gradientUnits="userSpaceOnUse">
<stop stop-color="#EB1000"/>
<stop offset="1" stop-color="#EB1000" stop-opacity="0"/>
</linearGradient>
<linearGradient id="paint3_linear_5481_99360" x1="12.4806" y1="45.5804" x2="62.5345" y2="15.8285" gradientUnits="userSpaceOnUse">
<stop stop-color="#FC7D00" stop-opacity="0"/>
<stop offset="0.432292" stop-color="#FC7D00"/>
<stop offset="0.609375" stop-color="#FC7D00"/>
<stop offset="1" stop-color="#FC7D00" stop-opacity="0"/>
</linearGradient>
<radialGradient id="paint4_radial_5481_99360" cx="0" cy="0" r="1" gradientUnits="userSpaceOnUse" gradientTransform="translate(18.1418 17.0977) rotate(90) scale(17.0977 18.1418)">
<stop offset="0.166667" stop-color="#EB1000"/>
<stop offset="1" stop-color="#EB1000" stop-opacity="0"/>
</radialGradient>
<clipPath id="clip0_5481_99360">
<rect x="3.89844" y="4.7998" width="41.7" height="39.3" rx="1.03837" fill="white"/>
</clipPath>
</defs>
<clipPath id="mask0_5481_99360">
<path fill-rule="evenodd" d="M33.5982 4.7998H39.5982C41.5865 4.7998 43.1982 6.41158 43.1982 8.39981V21.5998C43.1982 23.588 41.5865 25.1998 39.5982 25.1998H33.5982C31.61 25.1998 29.9982 23.588 29.9982 21.5998V8.39981C29.9982 6.41158 31.61 4.7998 33.5982 4.7998ZM17.3982 29.9998H30.5982C32.5865 29.9998 34.1982 31.6116 34.1982 33.5998V39.5998C34.1982 41.588 32.5865 43.1998 30.5982 43.1998H17.3982C15.41 43.1998 13.7982 41.588 13.7982 39.5998V33.5998C13.7982 31.6116 15.41 29.9998 17.3982 29.9998ZM19.8736 21.4408L22.3516 27.4768C22.7536 28.4518 24.1276 28.4728 24.5566 27.5098L25.2796 25.8898C25.3996 25.6198 25.6156 25.4038 25.8856 25.2838L27.5026 24.5608C28.4656 24.1318 28.4446 22.7548 27.4696 22.3558L21.4366 19.8748C20.4496 19.4698 19.4656 20.4538 19.8706 21.4408H19.8736ZM16.9244 22.6049C17.5874 22.6049 18.1244 23.1419 18.1244 23.8049C18.1244 24.4679 17.5874 25.0049 16.9244 25.0049H10.7894C10.3424 25.9229 9.40641 26.5559 8.31741 26.5559C6.79641 26.5559 5.56641 25.3229 5.56641 23.8049C5.56641 22.7159 6.20241 21.7799 7.11741 21.3329V10.7699C6.19941 10.3229 5.56641 9.38688 5.56641 8.29788C5.56641 6.77688 6.79941 5.54688 8.31741 5.54688C9.40641 5.54688 10.3424 6.18288 10.7894 7.09788H21.3074C21.7544 6.17988 22.6904 5.54688 23.7794 5.54688C25.3004 5.54688 26.5304 6.77988 26.5304 8.29788C26.5304 9.38688 25.8944 10.3229 24.9794 10.7699V16.9199C24.9794 17.5829 24.4424 18.1199 23.7794 18.1199C23.1164 18.1199 22.5794 17.5829 22.5794 16.9199V10.7699C22.0244 10.4999 21.5774 10.0499 21.3074 9.49788H10.7894C10.5194 10.0529 10.0694 10.4999 9.51741 10.7699V21.3329C10.0724 21.6029 10.5194 22.0529 10.7894 22.6049H16.9244Z" fill="white"/>
</clipPath>
<g clip-path="url(#mask0_5481_99360)">
<g clip-path="url(#clip0_5481_99360)">
<rect x="3.89844" y="4.7998" width="41.7" height="39.3" rx="1.03837" fill="#FFECCF"/>
<rect width="41.7" height="39.3" transform="translate(3.89844 4.7998)" fill="#FFECCF"/>
<ellipse cx="18.1418" cy="17.0977" rx="18.1418" ry="17.0977" transform="matrix(0.999999 -0.00131702 0.00148279 0.999999 9.30859 -10.75)" fill="url(#paint0_radial_5481_99360)"/>
<path d="M19.8135 -2.14201C16.611 -4.00967 12.5534 -4.02111 9.33894 -2.17154L-22.8111 16.3285C-25.9598 18.1403 -25.965 22.4171 -22.8206 24.2358L9.11697 42.7096C12.3266 44.5658 16.3842 44.5636 19.591 42.7029L51.4628 24.2119C54.5906 22.397 54.5963 18.1442 51.4724 16.3225L19.8135 -2.14201Z" fill="url(#paint1_linear_5481_99360)"/>
<path d="M9.90657 23.4588C10.6193 8.78697 23.8173 -2.56238 39.3851 -1.89067C54.953 -1.21896 66.9954 11.2195 66.2827 25.8913C65.57 40.5632 52.372 51.9125 36.8041 51.2408C21.2363 50.5691 9.19384 38.1307 9.90657 23.4588Z" fill="url(#paint2_linear_5481_99360)"/>
<path d="M-12.9957 33.1324C-6.80746 30.6444 -0.133507 30.7511 5.64863 32.9273C17.2188 37.2928 23.9511 34.5937 28.6206 23.7144C30.9464 18.2552 35.4875 13.6318 41.6826 11.141C54.069 6.16869 68.3685 11.564 73.6371 23.203C78.9056 34.8419 73.1389 48.2972 60.7555 53.276C54.5465 55.7724 47.8597 55.6555 42.0687 53.4597C30.5173 49.1175 23.7978 51.8268 19.1342 62.7192C16.8025 68.1653 12.2625 72.7729 6.07424 75.261C-6.30224 80.237 -20.6018 74.8417 -25.8673 63.2092C-31.1329 51.5768 -25.3722 38.1084 -12.9957 33.1324Z" fill="url(#paint3_linear_5481_99360)"/>
<ellipse cx="18.1418" cy="17.0977" rx="18.1418" ry="17.0977" transform="matrix(0.999999 -0.00131702 0.00148279 0.999999 25 -5.17383)" fill="url(#paint4_radial_5481_99360)"/>
</g>
</g>

</svg>
