<svg width="160" height="160" viewBox="0 0 160 160" xmlns="http://www.w3.org/2000/svg">
  <defs>
<radialGradient id="paint0_radial_5481_89933" cx="0" cy="0" r="1" gradientUnits="userSpaceOnUse" gradientTransform="translate(56.9923 53.7253) rotate(90) scale(53.7253 56.9923)">
<stop offset="0.166667" stop-color="#FF709F"/>
<stop offset="1" stop-color="#FF709F" stop-opacity="0"/>
</radialGradient>
<linearGradient id="paint1_linear_5481_89933" x1="-18.9205" y1="128.357" x2="187.087" y2="-4.59752" gradientUnits="userSpaceOnUse">
<stop offset="0.0598452" stop-color="#8480FE"/>
<stop offset="0.599632" stop-color="#8480FE" stop-opacity="0"/>
</linearGradient>
<linearGradient id="paint2_linear_5481_89933" x1="151.995" y1="40.7471" x2="66.3801" y2="138.405" gradientUnits="userSpaceOnUse">
<stop stop-color="#EB1000"/>
<stop offset="1" stop-color="#EB1000" stop-opacity="0"/>
</linearGradient>
<linearGradient id="paint3_linear_5481_89933" x1="40.9585" y1="146.143" x2="198.223" y2="52.6888" gradientUnits="userSpaceOnUse">
<stop stop-color="#FC7D00" stop-opacity="0"/>
<stop offset="0.432292" stop-color="#FC7D00"/>
<stop offset="0.609375" stop-color="#FC7D00"/>
<stop offset="1" stop-color="#FC7D00" stop-opacity="0"/>
</linearGradient>
<radialGradient id="paint4_radial_5481_89933" cx="0" cy="0" r="1" gradientUnits="userSpaceOnUse" gradientTransform="translate(56.9923 53.7253) rotate(90) scale(53.7253 56.9923)">
<stop offset="0.166667" stop-color="#EB1000"/>
<stop offset="1" stop-color="#EB1000" stop-opacity="0"/>
</radialGradient>
<clipPath id="clip0_5481_89933">
<rect x="14" y="18" width="131" height="123.491" rx="3.46124" fill="white"/>
</clipPath>
</defs>
<clipPath id="mask0_5481_89933">
<path fill-rule="evenodd" d="M85.3575 26.7405L127.927 47.9805C131.997 50.0105 134.568 54.1705 134.568 58.7205V101.18C134.568 105.72 132.007 109.88 127.947 111.91L85.3775 133.24C81.9975 134.94 78.0075 134.94 74.6275 133.24L32.0575 111.91C27.9975 109.87 25.4375 105.72 25.4375 101.18V58.7205C25.4375 54.1705 28.0075 50.0105 32.0775 47.9805L74.6475 26.7405C78.0175 25.0605 81.9875 25.0605 85.3575 26.7405ZM51.3175 97.6005C52.7075 97.6005 54.0475 96.8805 54.7875 95.6005H54.7775L69.4275 70.2305C70.5375 68.3205 69.8775 65.8705 67.9675 64.7705C66.0575 63.6605 63.6075 64.3205 62.5075 66.2305L47.8575 91.6005C46.7475 93.5105 47.4075 95.9605 49.3175 97.0605C49.9475 97.4305 50.6375 97.6005 51.3175 97.6005ZM104.658 97.6005C107.548 97.6005 110.137 96.1005 111.587 93.6005C113.037 91.0905 113.037 88.1005 111.587 85.6005L98.0575 62.1705C96.6075 59.6705 94.0175 58.1705 91.1275 58.1705C88.2375 58.1705 85.6475 59.6705 84.1975 62.1705L70.6675 85.6005C69.2175 88.1005 69.2175 91.1005 70.6675 93.6005C72.1175 96.1005 74.7075 97.6005 77.5975 97.6005H104.658ZM91.1374 66.1705L104.667 89.6005H77.6074L91.1374 66.1705Z" fill="white"/>
</clipPath>
<g clip-path="url(#mask0_5481_89933)">
<g clip-path="url(#clip0_5481_89933)">
<rect x="14" y="18" width="131" height="123.491" rx="3.46124" fill="#FFECCF"/>
<rect width="131" height="123.491" transform="translate(14 18)" fill="#FFECCF"/>
<ellipse cx="56.9923" cy="53.7253" rx="56.9923" ry="53.7253" transform="matrix(0.999999 -0.00131734 0.00148243 0.999999 31 -30.8604)" fill="url(#paint0_radial_5481_89933)"/>
<path d="M64.0015 -3.81352C53.9408 -9.68219 41.1939 -9.71814 31.0958 -3.9063L-69.9034 54.2255C-79.795 59.9189 -79.8115 73.3575 -69.9334 79.0724L30.3985 137.122C40.4815 142.955 53.2284 142.948 63.3027 137.101L163.428 78.9973C173.254 73.2945 173.272 59.9311 163.458 54.2069L64.0015 -3.81352Z" fill="url(#paint1_linear_5481_89933)"/>
<path d="M32.8784 76.6311C35.1175 30.5283 76.579 -5.13432 125.485 -3.02363C174.392 -0.91294 212.223 38.1718 209.984 84.2746C207.745 130.377 166.283 166.04 117.377 163.929C68.4707 161.819 30.6394 122.734 32.8784 76.6311Z" fill="url(#paint2_linear_5481_89933)"/>
<path d="M-39.0752 107.029C-19.6349 99.2105 1.33131 99.5457 19.4959 106.384C55.8435 120.101 76.9931 111.62 91.6621 77.4347C98.9688 60.2805 113.234 45.7525 132.697 37.9257C171.608 22.3015 216.53 39.2549 233.081 75.8276C249.632 112.4 231.516 154.68 192.614 170.325C173.108 178.169 152.102 177.802 133.909 170.902C97.6206 157.258 76.5114 165.771 61.8609 199.998C54.5356 217.111 40.2733 231.589 20.8329 239.407C-18.0477 255.043 -62.9697 238.09 -79.5114 201.538C-96.0531 164.985 -77.9559 122.664 -39.0752 107.029Z" fill="url(#paint3_linear_5481_89933)"/>
<ellipse cx="56.9923" cy="53.7253" rx="56.9923" ry="53.7253" transform="matrix(0.999999 -0.00131734 0.00148243 0.999999 80.293 -13.3398)" fill="url(#paint4_radial_5481_89933)"/>
</g>
</g>

</svg>
