<svg width="160" height="160" viewBox="0 0 160 160" xmlns="http://www.w3.org/2000/svg">
  <defs>
<radialGradient id="paint0_radial_5481_89873" cx="0" cy="0" r="1" gradientUnits="userSpaceOnUse" gradientTransform="translate(54.6429 51.5105) rotate(90) scale(51.5105 54.6429)">
<stop offset="0.166667" stop-color="#FF709F"/>
<stop offset="1" stop-color="#FF709F" stop-opacity="0"/>
</radialGradient>
<linearGradient id="paint1_linear_5481_89873" x1="-13.1644" y1="129.007" x2="184.35" y2="1.53355" gradientUnits="userSpaceOnUse">
<stop offset="0.0598452" stop-color="#8480FE"/>
<stop offset="0.599632" stop-color="#8480FE" stop-opacity="0"/>
</linearGradient>
<linearGradient id="paint2_linear_5481_89873" x1="150.707" y1="45.0092" x2="68.6213" y2="138.642" gradientUnits="userSpaceOnUse">
<stop stop-color="#EB1000"/>
<stop offset="1" stop-color="#EB1000" stop-opacity="0"/>
</linearGradient>
<linearGradient id="paint3_linear_5481_89873" x1="44.2447" y1="146.062" x2="195.026" y2="56.4597" gradientUnits="userSpaceOnUse">
<stop stop-color="#FC7D00" stop-opacity="0"/>
<stop offset="0.432292" stop-color="#FC7D00"/>
<stop offset="0.609375" stop-color="#FC7D00"/>
<stop offset="1" stop-color="#FC7D00" stop-opacity="0"/>
</linearGradient>
<radialGradient id="paint4_radial_5481_89873" cx="0" cy="0" r="1" gradientUnits="userSpaceOnUse" gradientTransform="translate(54.6429 51.5105) rotate(90) scale(51.5105 54.6429)">
<stop offset="0.166667" stop-color="#EB1000"/>
<stop offset="1" stop-color="#EB1000" stop-opacity="0"/>
</radialGradient>
<clipPath id="clip0_5481_89873">
<rect x="18.3984" y="23.2002" width="125.6" height="118.4" rx="3.46124" fill="white"/>
</clipPath>
</defs>
<clipPath id="mask0_5481_89873">
<path d="M129.288 95.7497L117.198 87.3697C117.668 84.9797 117.918 82.5197 117.918 79.9997C117.918 77.4797 117.668 75.0097 117.198 72.6297L129.288 64.2497C131.868 62.4597 132.628 58.9897 131.048 56.2897L125.678 47.1097C124.098 44.3997 120.698 43.3697 117.878 44.7497L104.638 51.1897C101.078 48.1397 96.9481 45.7497 92.4281 44.1797L91.2981 29.5097C91.0581 26.3797 88.4481 23.9697 85.3181 23.9697H74.6881C71.5481 23.9697 68.9481 26.3797 68.7081 29.5097L67.5781 44.1797C63.0581 45.7497 58.9281 48.1397 55.3681 51.1897L42.1281 44.7497C39.3081 43.3797 35.9081 44.4097 34.3281 47.1097L28.9581 56.2897C27.3781 58.9997 28.1381 62.4697 30.7181 64.2497L42.8081 72.6297C42.3381 75.0197 42.0881 77.4797 42.0881 79.9997C42.0881 82.5197 42.3381 84.9897 42.8081 87.3697L30.7181 95.7497C28.1381 97.5397 27.3781 101.01 28.9581 103.71L34.3281 112.89C35.9081 115.6 39.3081 116.63 42.1281 115.25L55.3681 108.81C58.9281 111.86 63.0581 114.25 67.5781 115.82L68.7081 130.49C68.9481 133.62 71.5581 136.03 74.6881 136.03H85.3181C88.4581 136.03 91.0581 133.62 91.2981 130.49L92.4281 115.82C96.9481 114.25 101.078 111.86 104.638 108.81L117.878 115.25C120.698 116.62 124.098 115.59 125.678 112.89L131.048 103.71C132.628 101 131.868 97.5297 129.288 95.7497ZM79.9981 92.2597C73.2281 92.2597 67.7381 86.7697 67.7381 79.9997C67.7381 73.2297 73.2281 67.7397 79.9981 67.7397C86.7681 67.7397 92.2581 73.2297 92.2581 79.9997C92.2581 86.7697 86.7681 92.2597 79.9981 92.2597Z" fill="white"/>
</clipPath>
<g clip-path="url(#mask0_5481_89873)">
<g clip-path="url(#clip0_5481_89873)">
<rect x="18.3984" y="23.2002" width="125.6" height="118.4" rx="3.46124" fill="#FFECCF"/>
<rect width="125.6" height="118.4" transform="translate(18.3984 23.2002)" fill="#FFECCF"/>
<ellipse cx="54.6429" cy="51.5105" rx="54.6429" ry="51.5105" transform="matrix(0.999999 -0.00131734 0.00148243 0.999999 34.6953 -23.6455)" fill="url(#paint0_radial_5481_89873)"/>
<path d="M66.3392 2.28525C56.6933 -3.3415 44.4719 -3.37596 34.79 2.19629L-62.0456 57.9317C-71.5294 63.3904 -71.5452 76.2749 -62.0743 81.7542L34.1215 137.411C43.7888 143.003 56.0102 142.996 65.6692 137.391L161.667 81.6822C171.088 76.2146 171.105 63.4021 161.696 57.9138L66.3392 2.28525Z" fill="url(#paint1_linear_5481_89873)"/>
<path d="M36.5006 79.4138C38.6474 35.2116 78.3996 1.01911 125.29 3.04279C172.18 5.06646 208.452 42.54 206.305 86.7422C204.158 130.944 164.406 165.137 117.516 163.113C70.6256 161.089 34.3539 123.616 36.5006 79.4138Z" fill="url(#paint2_linear_5481_89873)"/>
<path d="M-32.4896 108.559C-13.8507 101.064 6.25116 101.385 23.6669 107.941C58.5161 121.093 78.7938 112.962 92.8582 80.1855C99.8637 63.7384 113.541 49.8093 132.201 42.3052C169.509 27.325 212.579 43.5796 228.447 78.6446C244.316 113.71 226.947 154.247 189.648 169.246C170.947 176.767 150.806 176.415 133.364 169.8C98.571 156.718 78.332 164.88 64.2854 197.696C57.2622 214.104 43.5878 227.985 24.9488 235.481C-12.329 250.472 -55.3991 234.218 -71.2589 199.172C-87.1187 164.127 -69.7675 123.551 -32.4896 108.559Z" fill="url(#paint3_linear_5481_89873)"/>
<ellipse cx="54.6429" cy="51.5105" rx="54.6429" ry="51.5105" transform="matrix(0.999999 -0.00131734 0.00148243 0.999999 81.957 -6.84766)" fill="url(#paint4_radial_5481_89873)"/>
</g>
</g>

</svg>
