<svg width="48" height="48" viewBox="0 0 48 48" xmlns="http://www.w3.org/2000/svg">
  <defs>
<radialGradient id="paint0_radial_6243_79630" cx="0" cy="0" r="1" gradientUnits="userSpaceOnUse" gradientTransform="translate(27.1423 1.86222) rotate(90) scale(20.8826)">
<stop offset="0.166667" stop-color="#FF709F"/>
<stop offset="1" stop-color="#FF709F" stop-opacity="0"/>
</radialGradient>
<linearGradient id="paint1_linear_6243_79630" x1="-12.0622" y1="42.8952" x2="65.9766" y2="-4.58296" gradientUnits="userSpaceOnUse">
<stop offset="0.0598452" stop-color="#8480FE"/>
<stop offset="0.599632" stop-color="#8480FE" stop-opacity="0"/>
</linearGradient>
<linearGradient id="paint2_linear_6243_79630" x1="50.5621" y1="8.84155" x2="17.0836" y2="44.8401" gradientUnits="userSpaceOnUse">
<stop stop-color="#EB1000"/>
<stop offset="1" stop-color="#EB1000" stop-opacity="0"/>
</linearGradient>
<linearGradient id="paint3_linear_6243_79630" x1="9.87765" y1="49.8089" x2="69.2259" y2="16.5628" gradientUnits="userSpaceOnUse">
<stop stop-color="#FC7D00" stop-opacity="0"/>
<stop offset="0.432292" stop-color="#FC7D00"/>
<stop offset="0.609375" stop-color="#FC7D00"/>
<stop offset="1" stop-color="#FC7D00" stop-opacity="0"/>
</linearGradient>
<radialGradient id="paint4_radial_6243_79630" cx="0" cy="0" r="1" gradientUnits="userSpaceOnUse" gradientTransform="translate(45.2009 8.67178) rotate(90) scale(20.8826)">
<stop offset="0.166667" stop-color="#EB1000"/>
<stop offset="1" stop-color="#EB1000" stop-opacity="0"/>
</radialGradient>
<clipPath id="clip0_6243_79630">
<rect width="48" height="48" rx="5.125" fill="white"/>
</clipPath>
</defs>
<clipPath id="mask0_6243_79630">
<path fill-rule="evenodd" d="M8.5 24.1728C9.19036 24.1728 9.75 24.7325 9.75 25.4228L9.75 34.2464C9.75 35.596 10.8326 36.6728 12.1471 36.6728L35.8529 36.6728C37.1674 36.6728 38.25 35.596 38.25 34.2464L38.25 25.4228C38.25 24.7325 38.8096 24.1728 39.5 24.1728C40.1904 24.1728 40.75 24.7325 40.75 25.4228L40.75 34.2464C40.75 36.9577 38.567 39.1728 35.8529 39.1728L12.1471 39.1728C9.43304 39.1728 7.25 36.9577 7.25 34.2464L7.25 25.4228C7.25 24.7325 7.80964 24.1728 8.5 24.1728ZM24 8.82812C24.6904 8.82812 25.25 9.38777 25.25 10.0781L25.25 28.659L30.1161 23.7929C30.6043 23.3047 31.3957 23.3047 31.8839 23.7929C32.372 24.281 32.372 25.0725 31.8839 25.5606L24.8839 32.5606C24.3957 33.0488 23.6043 33.0488 23.1161 32.5606L16.1161 25.5606C15.628 25.0725 15.628 24.281 16.1161 23.7929C16.6043 23.3047 17.3957 23.3047 17.8839 23.7929L22.75 28.659L22.75 10.0781C22.75 9.38777 23.3097 8.82812 24 8.82812Z" fill="white"/>
</clipPath>
<g clip-path="url(#mask0_6243_79630)">
<g clip-path="url(#clip0_6243_79630)">
<rect width="48" height="48" rx="5.125" fill="#FFECCF"/>
<rect width="48" height="48" fill="#FFECCF"/>
<circle cx="27.1423" cy="1.86221" r="20.8826" transform="rotate(-0.0800682 27.1423 1.86221)" fill="url(#paint0_radial_6243_79630)"/>
<path d="M18.3213 -8.47858C14.635 -10.7597 9.96439 -10.7737 6.26433 -8.51465L-30.7429 14.0808C-34.3673 16.2938 -34.3733 21.5172 -30.7539 23.7386L6.00883 46.302C9.70335 48.5691 14.374 48.5664 18.0653 46.2939L54.7523 23.7094C58.3526 21.4928 58.3591 16.2985 54.7632 14.0735L18.3213 -8.47858Z" fill="url(#paint1_linear_6243_79630)"/>
<path d="M6.91632 22.7894C7.73673 4.86956 22.9287 -8.99224 40.8485 -8.17184C58.7683 -7.35143 72.6301 7.84053 71.8097 25.7603C70.9893 43.6802 55.7973 57.542 37.8775 56.7215C19.9577 55.9011 6.09591 40.7092 6.91632 22.7894Z" fill="url(#paint2_linear_6243_79630)"/>
<path d="M-19.4476 34.6052C-12.3244 31.5664 -4.64219 31.6967 2.01351 34.3546C15.3317 39.6865 23.0811 36.39 28.456 23.1023C31.1333 16.4345 36.3604 10.7876 43.4915 7.74541C57.7492 1.67237 74.2091 8.26203 80.2736 22.4776C86.338 36.6931 79.7002 53.1271 65.4459 59.2081C58.2988 62.2571 50.6018 62.1143 43.9359 59.4324C30.6393 54.129 22.9046 57.438 17.5365 70.7417C14.8525 77.3935 9.62658 83.0211 2.50343 86.0599C-11.7429 92.1375 -28.2028 85.5478 -34.2639 71.3402C-40.3249 57.1326 -33.6939 40.6828 -19.4476 34.6052Z" fill="url(#paint3_linear_6243_79630)"/>
<circle cx="45.2009" cy="8.67178" r="20.8826" transform="rotate(-0.0800682 45.2009 8.67178)" fill="url(#paint4_radial_6243_79630)"/>
</g>
</g>

</svg>
