<svg width="48" height="48" viewBox="0 0 48 48" xmlns="http://www.w3.org/2000/svg">
  <defs>
<radialGradient id="paint0_radial_5481_99696" cx="0" cy="0" r="1" gradientUnits="userSpaceOnUse" gradientTransform="translate(27.1423 1.86222) rotate(90) scale(20.8826)">
<stop offset="0.166667" stop-color="#FF709F"/>
<stop offset="1" stop-color="#FF709F" stop-opacity="0"/>
</radialGradient>
<linearGradient id="paint1_linear_5481_99696" x1="-12.0622" y1="42.8952" x2="65.9766" y2="-4.58296" gradientUnits="userSpaceOnUse">
<stop offset="0.0598452" stop-color="#8480FE"/>
<stop offset="0.599632" stop-color="#8480FE" stop-opacity="0"/>
</linearGradient>
<linearGradient id="paint2_linear_5481_99696" x1="50.5621" y1="8.84155" x2="17.0836" y2="44.8401" gradientUnits="userSpaceOnUse">
<stop stop-color="#EB1000"/>
<stop offset="1" stop-color="#EB1000" stop-opacity="0"/>
</linearGradient>
<linearGradient id="paint3_linear_5481_99696" x1="9.87765" y1="49.8089" x2="69.2259" y2="16.5628" gradientUnits="userSpaceOnUse">
<stop stop-color="#FC7D00" stop-opacity="0"/>
<stop offset="0.432292" stop-color="#FC7D00"/>
<stop offset="0.609375" stop-color="#FC7D00"/>
<stop offset="1" stop-color="#FC7D00" stop-opacity="0"/>
</linearGradient>
<radialGradient id="paint4_radial_5481_99696" cx="0" cy="0" r="1" gradientUnits="userSpaceOnUse" gradientTransform="translate(45.2009 8.67178) rotate(90) scale(20.8826)">
<stop offset="0.166667" stop-color="#EB1000"/>
<stop offset="1" stop-color="#EB1000" stop-opacity="0"/>
</radialGradient>
<clipPath id="clip0_5481_99696">
<rect width="48" height="48" rx="5.125" fill="white"/>
</clipPath>
</defs>
<clipPath id="mask0_5481_99696">
<path fill-rule="evenodd" d="M32.8448 35.2157C37.6859 32.6516 40.9043 28.106 40.9043 22.926C40.9043 22.501 40.8827 22.0803 40.8402 21.6646C41.5081 21.5756 42.2723 21.3012 42.9526 20.7327C43.9267 19.9185 44.5987 18.6118 44.6833 16.7481C44.7146 16.0585 44.1809 15.474 43.4913 15.4427C42.8016 15.4114 42.2172 15.9451 42.1859 16.6347C42.1274 17.9235 41.6962 18.5246 41.3493 18.8145C40.9857 19.1184 40.5698 19.202 40.3312 19.1983C38.3823 12.9975 31.6872 8.42773 23.7276 8.42773C20.4481 8.42773 17.3835 9.20331 14.7769 10.5493C13.2277 8.88777 10.8012 8.40669 8.92083 8.4294C8.22501 8.4378 7.86332 9.19272 8.21199 9.79494L10.4727 13.6996L10.4892 13.6875C9.30718 14.8929 8.35183 16.2624 7.67821 17.7494V17.7411L4.30963 19.7036C3.69465 20.0619 3.31641 20.72 3.31641 21.4317V24.4208C3.31641 25.1329 3.69496 25.7912 4.31035 26.1494L7.67821 28.1096V28.1027C9.01543 31.0546 11.4629 33.5432 14.5895 35.2045C14.581 35.2034 14.5739 35.2029 14.5684 35.2029L15.8121 38.5894C16.0289 39.1798 16.5911 39.5723 17.2201 39.5723H18.9466C19.5751 39.5723 20.1369 39.1804 20.3541 38.5907L20.8548 37.2312L20.8102 37.216C21.7584 37.353 22.7332 37.4243 23.7276 37.4243C24.7003 37.4243 25.6541 37.3561 26.5826 37.225L26.5631 37.2312L27.0638 38.5907C27.281 39.1804 27.8428 39.5723 28.4713 39.5723H30.1978C30.8268 39.5723 31.389 39.1798 31.6058 38.5894L32.8448 35.2157ZM26.2107 13.8177C24.6681 13.4742 23.3914 13.4596 21.7586 13.8185C21.0843 13.9667 20.4176 13.5402 20.2694 12.8659C20.1212 12.1917 20.5477 11.5249 21.2219 11.3767C23.214 10.9389 24.8593 10.9555 26.7542 11.3775C27.428 11.5276 27.8526 12.1955 27.7025 12.8693C27.5525 13.5432 26.8846 13.9678 26.2107 13.8177ZM15.3613 17.6914C15.3613 18.6579 14.5778 19.4414 13.6113 19.4414C12.6448 19.4414 11.8613 18.6579 11.8613 17.6914C11.8613 16.7249 12.6448 15.9414 13.6113 15.9414C14.5778 15.9414 15.3613 16.7249 15.3613 17.6914Z" fill="#292929"/>
</clipPath>
<g clip-path="url(#mask0_5481_99696)">
<g clip-path="url(#clip0_5481_99696)">
<rect width="48" height="48" rx="5.125" fill="#FFECCF"/>
<rect width="48" height="48" fill="#FFECCF"/>
<circle cx="27.1423" cy="1.86221" r="20.8826" transform="rotate(-0.0800682 27.1423 1.86221)" fill="url(#paint0_radial_5481_99696)"/>
<path d="M18.3213 -8.47858C14.635 -10.7597 9.96439 -10.7737 6.26433 -8.51465L-30.7429 14.0808C-34.3673 16.2938 -34.3733 21.5172 -30.7539 23.7386L6.00883 46.302C9.70335 48.5691 14.374 48.5664 18.0653 46.2939L54.7523 23.7094C58.3526 21.4928 58.3591 16.2985 54.7632 14.0735L18.3213 -8.47858Z" fill="url(#paint1_linear_5481_99696)"/>
<path d="M6.91632 22.7894C7.73673 4.86956 22.9287 -8.99224 40.8485 -8.17184C58.7683 -7.35143 72.6301 7.84053 71.8097 25.7603C70.9893 43.6802 55.7973 57.542 37.8775 56.7215C19.9577 55.9011 6.09591 40.7092 6.91632 22.7894Z" fill="url(#paint2_linear_5481_99696)"/>
<path d="M-19.4476 34.6052C-12.3244 31.5664 -4.64218 31.6967 2.01351 34.3546C15.3317 39.6865 23.0811 36.39 28.456 23.1023C31.1333 16.4345 36.3604 10.7876 43.4915 7.74541C57.7492 1.67237 74.2091 8.26203 80.2736 22.4776C86.338 36.6931 79.7002 53.1271 65.4459 59.2081C58.2988 62.2571 50.6018 62.1143 43.9359 59.4324C30.6393 54.129 22.9046 57.438 17.5365 70.7417C14.8525 77.3935 9.62658 83.0211 2.50343 86.0599C-11.7429 92.1375 -28.2028 85.5478 -34.2639 71.3402C-40.3249 57.1326 -33.6939 40.6828 -19.4476 34.6052Z" fill="url(#paint3_linear_5481_99696)"/>
<circle cx="45.2009" cy="8.67178" r="20.8826" transform="rotate(-0.0800682 45.2009 8.67178)" fill="url(#paint4_radial_5481_99696)"/>
</g>
</g>

</svg>
