<svg width="160" height="160" viewBox="0 0 160 160" xmlns="http://www.w3.org/2000/svg">
  <defs>
<radialGradient id="paint0_radial_5481_90116" cx="0" cy="0" r="1" gradientUnits="userSpaceOnUse" gradientTransform="translate(90.4677 6.20574) rotate(90) scale(69.6088)">
<stop offset="0.166667" stop-color="#FF709F"/>
<stop offset="1" stop-color="#FF709F" stop-opacity="0"/>
</radialGradient>
<linearGradient id="paint1_linear_5481_90116" x1="-40.2086" y1="142.983" x2="219.921" y2="-15.2772" gradientUnits="userSpaceOnUse">
<stop offset="0.0598452" stop-color="#8480FE"/>
<stop offset="0.599632" stop-color="#8480FE" stop-opacity="0"/>
</linearGradient>
<linearGradient id="paint2_linear_5481_90116" x1="168.544" y1="29.4718" x2="56.9494" y2="149.467" gradientUnits="userSpaceOnUse">
<stop stop-color="#EB1000"/>
<stop offset="1" stop-color="#EB1000" stop-opacity="0"/>
</linearGradient>
<linearGradient id="paint3_linear_5481_90116" x1="32.9255" y1="166.029" x2="230.753" y2="55.2086" gradientUnits="userSpaceOnUse">
<stop stop-color="#FC7D00" stop-opacity="0"/>
<stop offset="0.432292" stop-color="#FC7D00"/>
<stop offset="0.609375" stop-color="#FC7D00"/>
<stop offset="1" stop-color="#FC7D00" stop-opacity="0"/>
</linearGradient>
<radialGradient id="paint4_radial_5481_90116" cx="0" cy="0" r="1" gradientUnits="userSpaceOnUse" gradientTransform="translate(150.675 28.9059) rotate(90) scale(69.6088)">
<stop offset="0.166667" stop-color="#EB1000"/>
<stop offset="1" stop-color="#EB1000" stop-opacity="0"/>
</radialGradient>
<clipPath id="clip0_5481_90116">
<rect width="160" height="160" rx="5.125" fill="white"/>
</clipPath>
</defs>
<clipPath id="mask0_5481_90116">
<path fill-rule="evenodd" d="M73.8656 30.9649C70.1661 33.7825 67.5519 38.2426 66.0414 42.3881L60.6906 59.8219H88.7446C90.1995 59.8219 91.5396 60.6119 92.2442 61.8848L103.236 81.7422C110.75 74.2346 118.331 66.6624 124.045 60.9564C125.608 59.3954 128.141 59.3971 129.702 60.9603C131.263 62.5235 131.261 65.0561 129.698 66.6172C123.572 72.7343 115.301 80.9963 107.267 89.0239L119.709 111.5C120.779 113.433 120.079 115.867 118.146 116.937C116.214 118.007 113.779 117.308 112.71 115.375L101.38 94.9072L98.6611 97.6247C93.5112 102.773 88.8799 107.404 85.526 110.763C83.8488 112.442 82.4925 113.802 81.5508 114.748C81.0795 115.221 80.7147 115.588 80.4662 115.839C80.3941 115.912 80.3333 115.974 80.2835 116.025C80.2469 116.062 80.2163 116.093 80.1914 116.118L80.1676 116.143C78.7945 117.642 76.4814 117.882 74.8213 116.637C73.054 115.312 72.6958 112.804 74.0213 111.037C74.1233 110.901 74.2156 110.797 74.2281 110.783L74.2292 110.782C74.2585 110.749 74.2829 110.722 74.2959 110.708C74.3231 110.679 74.3478 110.653 74.363 110.637C74.3959 110.603 74.4334 110.564 74.4702 110.527C74.546 110.449 74.6504 110.343 74.7784 110.214C75.0361 109.953 75.4082 109.579 75.8809 109.104C76.8274 108.153 78.1876 106.79 79.8655 105.109C83.2218 101.749 87.8551 97.115 93.0053 91.9668C94.4194 90.5532 95.8725 89.1009 97.3489 87.6253L86.3868 67.8219H58.2352L36.95 137.173C36.3018 139.285 34.0643 140.472 31.9524 139.824C29.8405 139.175 28.6539 136.938 29.3021 134.826L49.8669 67.8219H37.0587C34.8495 67.8219 33.0587 66.0311 33.0587 63.8219C33.0587 61.6128 34.8495 59.8219 37.0587 59.8219H52.3223L58.4229 39.945C58.4419 39.8831 58.4624 39.8215 58.4845 39.7605C60.2913 34.7553 63.6353 28.7005 69.0183 24.6006C74.6197 20.3345 82.1254 18.4395 91.3252 21.5164C93.4203 22.2171 94.5506 24.4835 93.8499 26.5786C93.1492 28.6737 90.8828 29.804 88.7877 29.1033C82.116 26.872 77.373 28.2936 73.8656 30.9649ZM80.1424 116.169L80.1543 116.157C80.1008 116.215 80.0837 116.23 80.1424 116.169Z" fill="white"/>
</clipPath>
<g clip-path="url(#mask0_5481_90116)">
<g clip-path="url(#clip0_5481_90116)">
<rect width="160" height="160" rx="5.125" fill="#FFECCF"/>
<rect width="160" height="160" fill="#FFECCF"/>
<circle cx="90.4677" cy="6.20574" r="69.6087" transform="rotate(-0.0800682 90.4677 6.20574)" fill="url(#paint0_radial_5481_90116)"/>
<path d="M61.0698 -28.2626C48.782 -35.8663 33.2133 -35.9129 20.8798 -28.3828L-102.478 46.9353C-114.559 54.3119 -114.579 71.7234 -102.514 79.1279L20.0281 154.339C32.3432 161.896 47.9119 161.887 60.2163 154.312L182.506 79.0306C194.507 71.6419 194.529 54.3277 182.543 46.9111L61.0698 -28.2626Z" fill="url(#paint1_linear_5481_90116)"/>
<path d="M23.0583 75.9646C25.793 16.2319 76.4328 -29.9741 136.166 -27.2395C195.898 -24.5048 242.104 26.1351 239.37 85.8678C236.635 145.601 185.995 191.807 126.262 189.072C66.5296 186.337 20.3236 135.697 23.0583 75.9646Z" fill="url(#paint2_linear_5481_90116)"/>
<path d="M-64.8253 115.35C-41.0814 105.221 -15.474 105.655 6.71169 114.515C51.1056 132.288 76.9371 121.299 94.8534 77.0069C103.778 54.7811 121.201 35.958 144.972 25.8174C192.497 5.57391 247.364 27.5395 267.579 74.9246C287.793 122.31 265.667 177.09 218.153 197.36C194.329 207.523 168.673 207.047 146.453 198.107C102.131 180.429 76.3488 191.459 58.4551 235.805C49.5082 257.978 32.0886 276.736 8.34476 286.866C-39.1429 307.124 -94.0093 285.159 -114.213 237.8C-134.416 190.441 -112.313 135.609 -64.8253 115.35Z" fill="url(#paint3_linear_5481_90116)"/>
<circle cx="150.675" cy="28.9059" r="69.6087" transform="rotate(-0.0800682 150.675 28.9059)" fill="url(#paint4_radial_5481_90116)"/>
</g>
</g>

</svg>
