<svg width="160" height="160" viewBox="0 0 160 160" xmlns="http://www.w3.org/2000/svg">
  <defs>
<radialGradient id="paint0_radial_5481_90167" cx="0" cy="0" r="1" gradientUnits="userSpaceOnUse" gradientTransform="translate(90.4677 6.20672) rotate(90) scale(69.6088)">
<stop offset="0.166667" stop-color="#FF709F"/>
<stop offset="1" stop-color="#FF709F" stop-opacity="0"/>
</radialGradient>
<linearGradient id="paint1_linear_5481_90167" x1="-40.2086" y1="142.984" x2="219.921" y2="-15.2762" gradientUnits="userSpaceOnUse">
<stop offset="0.0598452" stop-color="#8480FE"/>
<stop offset="0.599632" stop-color="#8480FE" stop-opacity="0"/>
</linearGradient>
<linearGradient id="paint2_linear_5481_90167" x1="168.544" y1="29.4728" x2="56.9494" y2="149.468" gradientUnits="userSpaceOnUse">
<stop stop-color="#EB1000"/>
<stop offset="1" stop-color="#EB1000" stop-opacity="0"/>
</linearGradient>
<linearGradient id="paint3_linear_5481_90167" x1="32.9255" y1="166.03" x2="230.753" y2="55.2096" gradientUnits="userSpaceOnUse">
<stop stop-color="#FC7D00" stop-opacity="0"/>
<stop offset="0.432292" stop-color="#FC7D00"/>
<stop offset="0.609375" stop-color="#FC7D00"/>
<stop offset="1" stop-color="#FC7D00" stop-opacity="0"/>
</linearGradient>
<radialGradient id="paint4_radial_5481_90167" cx="0" cy="0" r="1" gradientUnits="userSpaceOnUse" gradientTransform="translate(150.675 28.9069) rotate(90) scale(69.6088)">
<stop offset="0.166667" stop-color="#EB1000"/>
<stop offset="1" stop-color="#EB1000" stop-opacity="0"/>
</radialGradient>
<clipPath id="clip0_5481_90167">
<rect y="0.000976562" width="160" height="160" rx="5.125" fill="white"/>
</clipPath>
</defs>
<clipPath id="mask0_5481_90167">
<path fill-rule="evenodd" d="M45.3897 42.3604L95.6188 28.9015C99.8865 27.758 104.273 30.2907 105.417 34.5584L109.981 51.5924H41.0328L40.7243 50.4411C39.7811 46.9214 41.8699 43.3035 45.3897 42.3604ZM111.815 63.0641H29.3555C27.1463 63.0641 25.3555 64.855 25.3555 67.0641V127.371C25.3555 129.58 27.1463 131.371 29.3555 131.371H111.815C120.652 131.371 127.815 124.207 127.815 115.371V114.025H104.493C100.074 114.025 96.4927 110.443 96.4927 106.025V88.4102C96.4927 83.9919 100.074 80.4102 104.493 80.4102H127.815V79.0641C127.815 70.2276 120.652 63.0641 111.815 63.0641ZM130.646 88.4102L104.493 88.4102V106.025H130.646L130.646 88.4102ZM113.531 101.719C116.016 101.719 118.031 99.704 118.031 97.2187C118.031 94.7335 116.016 92.7187 113.531 92.7187C111.045 92.7187 109.031 94.7335 109.031 97.2187C109.031 99.704 111.045 101.719 113.531 101.719Z" fill="white"/>
</clipPath>
<g clip-path="url(#mask0_5481_90167)">
<g clip-path="url(#clip0_5481_90167)">
<rect y="0.000976562" width="160" height="160" rx="5.125" fill="#FFECCF"/>
<rect width="160" height="160" transform="translate(0 0.000976562)" fill="#FFECCF"/>
<circle cx="90.4677" cy="6.20672" r="69.6087" transform="rotate(-0.0800682 90.4677 6.20672)" fill="url(#paint0_radial_5481_90167)"/>
<path d="M61.0698 -28.2616C48.782 -35.8653 33.2133 -35.9119 20.8798 -28.3818L-102.478 46.9363C-114.559 54.3129 -114.579 71.7244 -102.514 79.1289L20.0281 154.34C32.3432 161.897 47.9119 161.888 60.2163 154.313L182.506 79.0316C194.507 71.6429 194.529 54.3287 182.543 46.9121L61.0698 -28.2616Z" fill="url(#paint1_linear_5481_90167)"/>
<path d="M23.0583 75.9656C25.793 16.2328 76.4328 -29.9732 136.166 -27.2385C195.898 -24.5038 242.104 26.1361 239.37 85.8688C236.635 145.602 185.995 191.808 126.262 189.073C66.5296 186.338 20.3236 135.698 23.0583 75.9656Z" fill="url(#paint2_linear_5481_90167)"/>
<path d="M-64.8253 115.351C-41.0814 105.222 -15.474 105.656 6.71169 114.516C51.1056 132.289 76.9371 121.3 94.8534 77.0079C103.778 54.7821 121.201 35.959 144.972 25.8183C192.497 5.57488 247.364 27.5404 267.579 74.9256C287.793 122.311 265.667 177.091 218.153 197.361C194.329 207.524 168.673 207.048 146.453 198.108C102.131 180.43 76.3488 191.46 58.4551 235.806C49.5082 257.979 32.0886 276.737 8.34476 286.867C-39.1429 307.125 -94.0093 285.16 -114.213 237.801C-134.416 190.442 -112.313 135.61 -64.8253 115.351Z" fill="url(#paint3_linear_5481_90167)"/>
<circle cx="150.675" cy="28.9069" r="69.6087" transform="rotate(-0.0800682 150.675 28.9069)" fill="url(#paint4_radial_5481_90167)"/>
</g>
</g>

</svg>
