<svg width="100" height="96" viewBox="0 0 100 96" xmlns="http://www.w3.org/2000/svg">
  <defs>
<radialGradient id="paint0_radial_5481_99497" cx="0" cy="0" r="1" gradientUnits="userSpaceOnUse" gradientTransform="translate(56.2533 3.72345) rotate(90) scale(41.7653)">
<stop offset="0.166667" stop-color="#FF709F"/>
<stop offset="1" stop-color="#FF709F" stop-opacity="0"/>
</radialGradient>
<linearGradient id="paint1_linear_5481_99497" x1="-22.1517" y1="85.7895" x2="133.926" y2="-9.16689" gradientUnits="userSpaceOnUse">
<stop offset="0.0598452" stop-color="#8480FE"/>
<stop offset="0.599632" stop-color="#8480FE" stop-opacity="0"/>
</linearGradient>
<linearGradient id="paint2_linear_5481_99497" x1="103.101" y1="17.6831" x2="36.1439" y2="89.6803" gradientUnits="userSpaceOnUse">
<stop stop-color="#EB1000"/>
<stop offset="1" stop-color="#EB1000" stop-opacity="0"/>
</linearGradient>
<linearGradient id="paint3_linear_5481_99497" x1="21.7279" y1="99.6167" x2="140.424" y2="33.1246" gradientUnits="userSpaceOnUse">
<stop stop-color="#FC7D00" stop-opacity="0"/>
<stop offset="0.432292" stop-color="#FC7D00"/>
<stop offset="0.609375" stop-color="#FC7D00"/>
<stop offset="1" stop-color="#FC7D00" stop-opacity="0"/>
</linearGradient>
<radialGradient id="paint4_radial_5481_99497" cx="0" cy="0" r="1" gradientUnits="userSpaceOnUse" gradientTransform="translate(92.3783 17.3436) rotate(90) scale(41.7653)">
<stop offset="0.166667" stop-color="#EB1000"/>
<stop offset="1" stop-color="#EB1000" stop-opacity="0"/>
</radialGradient>
<clipPath id="clip0_5481_99497">
<rect x="1.97266" width="96" height="96" rx="5.125" fill="white"/>
</clipPath>
</defs>
<clipPath id="mask0_5481_99497">
<path fill-rule="evenodd" d="M40.2836 76.9653C43.504 78.1642 46.9066 78.7813 50.3445 78.7813L50.3328 78.7695H64.6484C64.6778 78.7695 64.7366 78.7636 64.7366 78.7636H68.7034C70.1725 78.7636 71.6946 78.3581 72.8699 77.459C74.0629 76.5422 74.8563 75.1377 74.8563 73.2454C74.8563 72.6342 74.7681 71.5529 74.2451 70.4951C73.9983 69.9838 73.6457 69.4843 73.1638 69.0494C75.6144 68.9084 77.683 67.1336 78.1825 64.7065C78.635 62.5028 77.6888 60.3871 76.0199 59.1883C78.2941 58.6241 80.016 56.626 80.1394 54.1872C80.2393 52.2126 79.2756 50.4496 77.7594 49.4153C79.9102 48.7689 81.5087 46.8296 81.6321 44.4789C81.7908 41.3701 79.3108 38.7609 76.1962 38.7609H59.9059C59.0185 38.7609 58.3839 37.897 58.6483 37.0507L59.8236 33.2779C60.8756 29.9046 61.5455 26.4256 61.8335 22.9055L61.998 20.8663C62.2449 17.828 59.8413 15.2188 56.7854 15.2188C54.7697 15.2188 52.9361 16.3823 52.0664 18.1982L46.5952 29.6578C46.0839 30.7274 45.4962 31.7558 44.838 32.7372L44.7029 32.9429C41.5373 37.6535 36.54 40.7479 31.0066 41.5396V73.865C32.4112 74.1509 33.7937 74.5464 35.1415 75.0495L40.2836 76.9653ZM27.0066 73.3514V41.7403H24.7691C21.196 41.7403 18.3047 44.6317 18.3047 48.2047V66.8456C18.3047 70.4187 21.196 73.31 24.7691 73.31H25.4919C25.9977 73.31 26.5028 73.3239 27.0066 73.3514Z" fill="white"/>
</clipPath>
<g clip-path="url(#mask0_5481_99497)">
<g clip-path="url(#clip0_5481_99497)">
<rect x="1.97266" width="96" height="96" rx="5.125" fill="#FFECCF"/>
<rect width="96" height="96" transform="translate(1.97266)" fill="#FFECCF"/>
<circle cx="56.2533" cy="3.72345" r="41.7653" transform="rotate(-0.0800682 56.2533 3.72345)" fill="url(#paint0_radial_5481_99497)"/>
<path d="M38.6153 -16.9581C31.2426 -21.5204 21.9014 -21.5483 14.5013 -17.0303L-59.5131 28.1606C-66.7619 32.5865 -66.774 43.0335 -59.5351 47.4761L13.9903 92.6029C21.3793 97.1373 30.7206 97.1319 38.1032 92.5868L111.477 47.4178C118.678 42.9845 118.691 32.596 111.499 28.1461L38.6153 -16.9581Z" fill="url(#paint1_linear_5481_99497)"/>
<path d="M15.8092 45.5788C17.45 9.73912 47.8339 -17.9845 83.6735 -16.3437C119.513 -14.7029 147.237 15.6811 145.596 51.5207C143.955 87.3603 113.571 115.084 77.7316 113.443C41.892 111.802 14.1684 81.4184 15.8092 45.5788Z" fill="url(#paint2_linear_5481_99497)"/>
<path d="M-36.9225 69.2093C-22.6762 63.1318 -7.31171 63.3923 5.99967 68.7083C32.636 79.3721 48.1349 72.779 58.8847 46.2036C64.2392 32.8681 74.6934 21.5742 88.9557 15.4898C117.471 3.34376 150.391 16.5231 162.52 44.9542C174.649 73.3853 161.373 106.253 132.864 118.415C118.57 124.513 103.176 124.228 89.8444 118.864C63.2512 108.257 47.7819 114.875 37.0457 141.482C31.6776 154.786 21.2258 166.041 6.97951 172.119C-21.5131 184.274 -54.4329 171.095 -66.5551 142.679C-78.6772 114.264 -65.4151 81.3645 -36.9225 69.2093Z" fill="url(#paint3_linear_5481_99497)"/>
<circle cx="92.3783" cy="17.3436" r="41.7653" transform="rotate(-0.0800682 92.3783 17.3436)" fill="url(#paint4_radial_5481_99497)"/>
</g>
</g>

</svg>
