<svg width="161" height="160" viewBox="0 0 161 160" fill="none" xmlns="http://www.w3.org/2000/svg">
<mask id="mask0_50_586" style="mask-type:luminance" maskUnits="userSpaceOnUse" x="19" y="18" width="124" height="124">
<path fill-rule="evenodd" clip-rule="evenodd" d="M141.6 24.9446C143.162 23.3825 143.162 20.8499 141.6 19.2878C140.038 17.7257 137.505 17.7257 135.943 19.2878L20.1757 135.055C18.6136 136.617 18.6136 139.15 20.1757 140.712C21.7378 142.274 24.2705 142.274 25.8326 140.712L141.6 24.9446ZM20.227 51.879C18.6649 50.3169 18.6649 47.7843 20.227 46.2222L43.227 23.2222C44.7891 21.6601 47.3217 21.6601 48.8838 23.2222C50.4459 24.7843 50.4459 27.3169 48.8838 28.879L32.3745 45.3884H90.3059C92.515 45.3884 94.3059 47.1792 94.3059 49.3884C94.3059 51.5975 92.515 53.3884 90.3059 53.3884H33.05L48.8838 69.2222C50.4459 70.7843 50.4459 73.3169 48.8838 74.879C47.3217 76.4411 44.7891 76.4411 43.227 74.879L20.227 51.879ZM141.651 108.723L118.651 85.7232C117.089 84.1611 114.557 84.1611 112.995 85.7232C111.432 87.2853 111.432 89.8179 112.995 91.38L129.166 107.552H70.4309C68.2218 107.552 66.4309 109.342 66.4309 111.552C66.4309 113.761 68.2218 115.552 70.4309 115.552H129.166L112.995 131.723C111.432 133.285 111.432 135.818 112.995 137.38C114.557 138.942 117.089 138.942 118.651 137.38L141.651 114.38C143.214 112.818 143.214 110.285 141.651 108.723ZM142.823 49.3884C142.823 51.5975 141.032 53.3884 138.823 53.3884L132.681 53.3884C130.472 53.3884 128.681 51.5975 128.681 49.3884C128.681 47.1792 130.472 45.3884 132.681 45.3884L138.823 45.3884C141.032 45.3884 142.823 47.1792 142.823 49.3884ZM23.0554 107.552C20.8463 107.552 19.0554 109.342 19.0554 111.552C19.0554 113.761 20.8463 115.552 23.0554 115.552H28.3059C30.515 115.552 32.3059 113.761 32.3059 111.552C32.3059 109.342 30.515 107.552 28.3059 107.552H23.0554Z" fill="white"/>
</mask>
<g mask="url(#mask0_50_586)">
<g clip-path="url(#clip0_50_586)">
<rect x="0.913574" width="160" height="160" rx="5.125" fill="#FFECCF"/>
<rect width="160" height="160" transform="translate(0.913574)" fill="#FFECCF"/>
<circle cx="91.3817" cy="6.20596" r="69.6087" transform="rotate(-0.0800682 91.3817 6.20596)" fill="url(#paint0_radial_50_586)"/>
<path d="M61.9824 -28.263C49.6946 -35.8667 34.1259 -35.9133 21.7924 -28.3832L-101.565 46.9349C-113.646 54.3115 -113.667 71.723 -101.602 79.1275L20.9407 154.339C33.2558 161.896 48.8245 161.887 61.1289 154.312L183.419 79.0302C195.42 71.6415 195.442 54.3273 183.455 46.9107L61.9824 -28.263Z" fill="url(#paint1_linear_50_586)"/>
<path d="M23.9719 75.9645C26.7066 16.2317 77.3464 -29.9743 137.079 -27.2396C196.812 -24.5049 243.018 26.135 240.283 85.8677C237.548 145.6 186.909 191.806 127.176 189.072C67.4432 186.337 21.2372 135.697 23.9719 75.9645Z" fill="url(#paint2_linear_50_586)"/>
<path d="M-63.9095 115.35C-40.1657 105.22 -14.5582 105.655 7.62746 114.515C52.0214 132.287 77.8528 121.299 95.7692 77.0066C104.693 54.7808 122.117 35.9577 145.887 25.8171C193.413 5.5736 248.279 27.5392 268.494 74.9243C288.709 122.309 266.583 177.089 219.069 197.359C195.245 207.523 169.588 207.047 147.369 198.107C103.047 180.429 77.2646 191.459 59.3708 235.805C50.424 257.977 33.0044 276.736 9.26053 286.865C-38.2272 307.124 -93.0935 285.158 -113.297 237.8C-133.501 190.441 -111.397 135.608 -63.9095 115.35Z" fill="url(#paint3_linear_50_586)"/>
<circle cx="151.588" cy="28.9062" r="69.6087" transform="rotate(-0.0800682 151.588 28.9062)" fill="url(#paint4_radial_50_586)"/>
</g>
</g>
<defs>
<radialGradient id="paint0_radial_50_586" cx="0" cy="0" r="1" gradientUnits="userSpaceOnUse" gradientTransform="translate(91.3817 6.20596) rotate(90) scale(69.6088)">
<stop offset="0.166667" stop-color="#FF709F"/>
<stop offset="1" stop-color="#FF709F" stop-opacity="0"/>
</radialGradient>
<linearGradient id="paint1_linear_50_586" x1="-39.296" y1="142.983" x2="220.833" y2="-15.2775" gradientUnits="userSpaceOnUse">
<stop offset="0.0598452" stop-color="#8480FE"/>
<stop offset="0.599632" stop-color="#8480FE" stop-opacity="0"/>
</linearGradient>
<linearGradient id="paint2_linear_50_586" x1="169.458" y1="29.4717" x2="57.863" y2="149.467" gradientUnits="userSpaceOnUse">
<stop stop-color="#EB1000"/>
<stop offset="1" stop-color="#EB1000" stop-opacity="0"/>
</linearGradient>
<linearGradient id="paint3_linear_50_586" x1="33.8413" y1="166.029" x2="231.669" y2="55.2083" gradientUnits="userSpaceOnUse">
<stop stop-color="#FC7D00" stop-opacity="0"/>
<stop offset="0.432292" stop-color="#FC7D00"/>
<stop offset="0.609375" stop-color="#FC7D00"/>
<stop offset="1" stop-color="#FC7D00" stop-opacity="0"/>
</linearGradient>
<radialGradient id="paint4_radial_50_586" cx="0" cy="0" r="1" gradientUnits="userSpaceOnUse" gradientTransform="translate(151.588 28.9062) rotate(90) scale(69.6088)">
<stop offset="0.166667" stop-color="#EB1000"/>
<stop offset="1" stop-color="#EB1000" stop-opacity="0"/>
</radialGradient>
<clipPath id="clip0_50_586">
<rect x="0.913574" width="160" height="160" rx="5.125" fill="white"/>
</clipPath>
</defs>
</svg>
