<svg width="48" height="48" viewBox="0 0 48 48" xmlns="http://www.w3.org/2000/svg">
  <defs>
<radialGradient id="paint0_radial_5481_99536" cx="0" cy="0" r="1" gradientUnits="userSpaceOnUse" gradientTransform="translate(27.1423 1.86222) rotate(90) scale(20.8826)">
<stop offset="0.166667" stop-color="#FF709F"/>
<stop offset="1" stop-color="#FF709F" stop-opacity="0"/>
</radialGradient>
<linearGradient id="paint1_linear_5481_99536" x1="-12.0622" y1="42.8952" x2="65.9766" y2="-4.58296" gradientUnits="userSpaceOnUse">
<stop offset="0.0598452" stop-color="#8480FE"/>
<stop offset="0.599632" stop-color="#8480FE" stop-opacity="0"/>
</linearGradient>
<linearGradient id="paint2_linear_5481_99536" x1="50.5621" y1="8.84155" x2="17.0836" y2="44.8401" gradientUnits="userSpaceOnUse">
<stop stop-color="#EB1000"/>
<stop offset="1" stop-color="#EB1000" stop-opacity="0"/>
</linearGradient>
<linearGradient id="paint3_linear_5481_99536" x1="9.87765" y1="49.8089" x2="69.2259" y2="16.5628" gradientUnits="userSpaceOnUse">
<stop stop-color="#FC7D00" stop-opacity="0"/>
<stop offset="0.432292" stop-color="#FC7D00"/>
<stop offset="0.609375" stop-color="#FC7D00"/>
<stop offset="1" stop-color="#FC7D00" stop-opacity="0"/>
</linearGradient>
<radialGradient id="paint4_radial_5481_99536" cx="0" cy="0" r="1" gradientUnits="userSpaceOnUse" gradientTransform="translate(45.2009 8.67178) rotate(90) scale(20.8826)">
<stop offset="0.166667" stop-color="#EB1000"/>
<stop offset="1" stop-color="#EB1000" stop-opacity="0"/>
</radialGradient>
<clipPath id="clip0_5481_99536">
<rect width="48" height="48" rx="5.125" fill="white"/>
</clipPath>
</defs>
<clipPath id="mask0_5481_99536">
<path fill-rule="evenodd" d="M41.0263 9.04248C41.0263 10.0192 40.4484 10.861 39.6159 11.2446C38.7467 10.1685 37.5514 9.3667 36.1802 8.9895C36.2084 7.67559 37.2823 6.61914 38.6029 6.61914C39.9413 6.61914 41.0263 7.70411 41.0263 9.04248ZM38.6021 15.4541C38.6021 17.1891 37.5511 18.6787 36.051 19.3208C34.8727 17.0875 32.7627 15.4219 30.2383 14.8412C30.535 12.8099 32.2843 11.25 34.398 11.25C36.7199 11.25 38.6021 13.1322 38.6021 15.4541ZM30.818 17.6593C30.0351 17.3109 29.168 17.1172 28.2556 17.1172C25.4222 17.1172 23.0251 18.9853 22.2287 21.557C25.244 23.2517 27.4478 26.2197 28.1111 29.7321C28.1592 29.7332 28.2073 29.7337 28.2556 29.7337C31.7396 29.7337 34.5639 26.9094 34.5639 23.4255C34.5639 20.9419 33.1287 18.7935 31.0424 17.7645C30.9684 17.7281 30.8936 17.693 30.818 17.6593ZM25.8184 31.958C25.8184 37.1622 21.5997 41.3809 16.3955 41.3809C11.1914 41.3809 6.97266 37.1622 6.97266 31.958C6.97266 26.7539 11.1914 22.5352 16.3955 22.5352C18.5046 22.5352 20.4518 23.2281 22.022 24.3986C22.022 24.3986 22.022 24.3986 22.022 24.3985C23.5648 25.5487 24.7436 27.16 25.3542 29.0283C25.3542 29.0283 25.3541 29.0283 25.3541 29.0283C25.6555 29.9504 25.8184 30.9352 25.8184 31.958Z" fill="white"/>
</clipPath>
<g clip-path="url(#mask0_5481_99536)">
<g clip-path="url(#clip0_5481_99536)">
<rect width="48" height="48" rx="5.125" fill="#FFECCF"/>
<rect width="48" height="48" fill="#FFECCF"/>
<circle cx="27.1423" cy="1.86221" r="20.8826" transform="rotate(-0.0800682 27.1423 1.86221)" fill="url(#paint0_radial_5481_99536)"/>
<path d="M18.3213 -8.47858C14.635 -10.7597 9.96439 -10.7737 6.26433 -8.51465L-30.7429 14.0808C-34.3673 16.2938 -34.3733 21.5172 -30.7539 23.7386L6.00883 46.302C9.70335 48.5691 14.374 48.5664 18.0653 46.2939L54.7523 23.7094C58.3526 21.4928 58.3591 16.2985 54.7632 14.0735L18.3213 -8.47858Z" fill="url(#paint1_linear_5481_99536)"/>
<path d="M6.91632 22.7894C7.73673 4.86956 22.9287 -8.99224 40.8485 -8.17184C58.7683 -7.35143 72.6301 7.84053 71.8097 25.7603C70.9893 43.6802 55.7973 57.542 37.8775 56.7215C19.9577 55.9011 6.09591 40.7092 6.91632 22.7894Z" fill="url(#paint2_linear_5481_99536)"/>
<path d="M-19.4476 34.6052C-12.3244 31.5664 -4.64218 31.6967 2.01351 34.3546C15.3317 39.6865 23.0811 36.39 28.456 23.1023C31.1333 16.4345 36.3604 10.7876 43.4915 7.74541C57.7492 1.67237 74.2091 8.26203 80.2736 22.4776C86.338 36.6931 79.7002 53.1271 65.4459 59.2081C58.2988 62.2571 50.6018 62.1143 43.9359 59.4324C30.6393 54.129 22.9046 57.438 17.5365 70.7417C14.8525 77.3935 9.62658 83.0211 2.50343 86.0599C-11.7429 92.1375 -28.2028 85.5478 -34.2639 71.3402C-40.3249 57.1326 -33.6939 40.6828 -19.4476 34.6052Z" fill="url(#paint3_linear_5481_99536)"/>
<circle cx="45.2009" cy="8.67178" r="20.8826" transform="rotate(-0.0800682 45.2009 8.67178)" fill="url(#paint4_radial_5481_99536)"/>
</g>
</g>

</svg>
