<svg width="96" height="96" viewBox="0 0 96 96" xmlns="http://www.w3.org/2000/svg">
  <defs>
<radialGradient id="paint0_radial_5481_99611" cx="0" cy="0" r="1" gradientUnits="userSpaceOnUse" gradientTransform="translate(54.2806 3.72248) rotate(90) scale(41.7653)">
<stop offset="0.166667" stop-color="#FF709F"/>
<stop offset="1" stop-color="#FF709F" stop-opacity="0"/>
</radialGradient>
<linearGradient id="paint1_linear_5481_99611" x1="-24.1244" y1="85.7885" x2="131.953" y2="-9.16787" gradientUnits="userSpaceOnUse">
<stop offset="0.0598452" stop-color="#8480FE"/>
<stop offset="0.599632" stop-color="#8480FE" stop-opacity="0"/>
</linearGradient>
<linearGradient id="paint2_linear_5481_99611" x1="101.128" y1="17.6821" x2="34.1712" y2="89.6793" gradientUnits="userSpaceOnUse">
<stop stop-color="#EB1000"/>
<stop offset="1" stop-color="#EB1000" stop-opacity="0"/>
</linearGradient>
<linearGradient id="paint3_linear_5481_99611" x1="19.7553" y1="99.6158" x2="138.452" y2="33.1236" gradientUnits="userSpaceOnUse">
<stop stop-color="#FC7D00" stop-opacity="0"/>
<stop offset="0.432292" stop-color="#FC7D00"/>
<stop offset="0.609375" stop-color="#FC7D00"/>
<stop offset="1" stop-color="#FC7D00" stop-opacity="0"/>
</linearGradient>
<radialGradient id="paint4_radial_5481_99611" cx="0" cy="0" r="1" gradientUnits="userSpaceOnUse" gradientTransform="translate(90.4056 17.3426) rotate(90) scale(41.7653)">
<stop offset="0.166667" stop-color="#EB1000"/>
<stop offset="1" stop-color="#EB1000" stop-opacity="0"/>
</radialGradient>
<clipPath id="clip0_5481_99611">
<rect y="-0.000976562" width="96" height="96" rx="5.125" fill="white"/>
</clipPath>
</defs>
<clipPath id="mask0_5481_99611">
<path fill-rule="evenodd" d="M72.8075 23.0103C73.0616 24.0852 72.3961 25.1626 71.3212 25.4167L57.5583 28.6699C56.4834 28.924 55.406 28.2586 55.1519 27.1836C54.8978 26.1087 55.5632 25.0313 56.6382 24.7772L65.8081 22.6097C60.7483 19.0187 54.5669 16.9086 47.888 16.9086C38.59 16.9086 30.2499 20.9996 24.5649 27.4866C23.8369 28.3173 22.5733 28.4005 21.7426 27.6725C20.9119 26.9445 20.8287 25.6809 21.5567 24.8502C27.9688 17.5334 37.3895 12.9086 47.888 12.9086C55.2721 12.9086 62.1261 15.1973 67.7736 19.1029L65.6616 10.1676C65.4075 9.09261 66.0729 8.01521 67.1479 7.76112C68.2228 7.50703 69.3002 8.17247 69.5543 9.24741L72.8075 23.0103ZM77.6355 38.6836C77.3057 37.6294 77.8929 36.5074 78.9471 36.1776C80.0013 35.8478 81.1232 36.435 81.453 37.4891C82.4875 40.7955 83.0443 44.3106 83.0443 47.9521C83.0443 62.2369 74.4875 74.5186 62.2256 79.9594L71.0025 82.4668C72.0646 82.7702 72.6796 83.8771 72.3762 84.9392C72.0727 86.0013 70.9658 86.6163 69.9037 86.3129L56.3056 82.4281C55.2435 82.1247 54.6285 81.0178 54.9319 79.9557L58.8167 66.3576C59.1201 65.2955 60.227 64.6805 61.2891 64.9839C62.3512 65.2873 62.9662 66.3943 62.6628 67.4563L60.0695 76.534C71.2206 71.8367 79.0443 60.8057 79.0443 47.9521C79.0443 44.7204 78.5504 41.6078 77.6355 38.6836ZM13.324 43.2313L6.39211 49.0557C5.54643 49.7663 4.28485 49.6567 3.57428 48.8111C2.86371 47.9654 2.97324 46.7038 3.81892 45.9932L14.6464 36.8956C15.4921 36.1851 16.7537 36.2946 17.4642 37.1403L26.5618 47.9678C27.2724 48.8134 27.1628 50.075 26.3172 50.7856C25.4715 51.4961 24.2099 51.3866 23.4993 50.5409L17.3648 43.2399C16.4332 49.2652 17.2652 55.6235 20.1379 61.5219C24.2091 69.8812 31.5389 75.588 39.8602 77.8586C40.9258 78.1494 41.5539 79.249 41.2631 80.3146C40.9723 81.3802 39.8728 82.0083 38.8072 81.7176C29.4214 79.1565 21.1386 72.7119 16.5417 63.2733C13.3954 56.8132 12.4174 49.8554 13.324 43.2313Z" fill="white"/>
</clipPath>
<g clip-path="url(#mask0_5481_99611)">
<g clip-path="url(#clip0_5481_99611)">
<rect y="-0.000976562" width="96" height="96" rx="5.125" fill="#FFECCF"/>
<rect width="96" height="96" transform="translate(0 -0.000976562)" fill="#FFECCF"/>
<circle cx="54.2806" cy="3.72248" r="41.7653" transform="rotate(-0.0800682 54.2806 3.72248)" fill="url(#paint0_radial_5481_99611)"/>
<path d="M36.6427 -16.9591C29.27 -21.5213 19.9288 -21.5493 12.5287 -17.0312L-61.4858 28.1596C-68.7346 32.5856 -68.7467 43.0325 -61.5078 47.4752L12.0177 92.602C19.4067 97.1363 28.7479 97.1309 36.1306 92.5858L109.505 47.4168C116.705 42.9836 116.718 32.595 109.526 28.1451L36.6427 -16.9591Z" fill="url(#paint1_linear_5481_99611)"/>
<path d="M13.8365 45.5778C15.4774 9.73815 45.8613 -17.9855 81.7009 -16.3446C117.541 -14.7038 145.264 15.6801 143.623 51.5197C141.982 87.3593 111.599 115.083 75.759 113.442C39.9193 111.801 12.1957 81.4174 13.8365 45.5778Z" fill="url(#paint2_linear_5481_99611)"/>
<path d="M-38.8952 69.2084C-24.6489 63.1308 -9.28437 63.3914 4.02702 68.7073C30.6634 79.3711 46.1622 72.778 56.9121 46.2026C62.2666 32.8671 72.7207 21.5733 86.983 15.4889C115.498 3.34278 148.418 16.5221 160.547 44.9532C172.676 73.3843 159.4 106.252 130.892 118.414C116.598 124.512 101.204 124.227 87.8718 118.863C61.2786 108.256 45.8093 114.874 35.073 141.481C29.7049 154.785 19.2532 166.04 5.00686 172.118C-23.4858 184.273 -56.4056 171.094 -68.5277 142.678C-80.6499 114.263 -67.3878 81.3636 -38.8952 69.2084Z" fill="url(#paint3_linear_5481_99611)"/>
<circle cx="90.4056" cy="17.3426" r="41.7653" transform="rotate(-0.0800682 90.4056 17.3426)" fill="url(#paint4_radial_5481_99611)"/>
</g>
</g>

</svg>
