<svg width="96" height="96" viewBox="0 0 96 96" xmlns="http://www.w3.org/2000/svg">
  <defs>
<radialGradient id="paint0_radial_5481_99553" cx="0" cy="0" r="1" gradientUnits="userSpaceOnUse" gradientTransform="translate(54.2806 3.72345) rotate(90) scale(41.7653)">
<stop offset="0.166667" stop-color="#FF709F"/>
<stop offset="1" stop-color="#FF709F" stop-opacity="0"/>
</radialGradient>
<linearGradient id="paint1_linear_5481_99553" x1="-24.1244" y1="85.7895" x2="131.953" y2="-9.16689" gradientUnits="userSpaceOnUse">
<stop offset="0.0598452" stop-color="#8480FE"/>
<stop offset="0.599632" stop-color="#8480FE" stop-opacity="0"/>
</linearGradient>
<linearGradient id="paint2_linear_5481_99553" x1="101.128" y1="17.6831" x2="34.1712" y2="89.6803" gradientUnits="userSpaceOnUse">
<stop stop-color="#EB1000"/>
<stop offset="1" stop-color="#EB1000" stop-opacity="0"/>
</linearGradient>
<linearGradient id="paint3_linear_5481_99553" x1="19.7553" y1="99.6167" x2="138.452" y2="33.1246" gradientUnits="userSpaceOnUse">
<stop stop-color="#FC7D00" stop-opacity="0"/>
<stop offset="0.432292" stop-color="#FC7D00"/>
<stop offset="0.609375" stop-color="#FC7D00"/>
<stop offset="1" stop-color="#FC7D00" stop-opacity="0"/>
</linearGradient>
<radialGradient id="paint4_radial_5481_99553" cx="0" cy="0" r="1" gradientUnits="userSpaceOnUse" gradientTransform="translate(90.4056 17.3436) rotate(90) scale(41.7653)">
<stop offset="0.166667" stop-color="#EB1000"/>
<stop offset="1" stop-color="#EB1000" stop-opacity="0"/>
</radialGradient>
<clipPath id="clip0_5481_99553">
<rect width="96" height="96" rx="5.125" fill="white"/>
</clipPath>
</defs>
<clipPath id="mask0_5481_99553">
<path fill-rule="evenodd" d="M80.9343 33.9766C80.6405 35.2808 79.4163 36.3324 77.9003 35.9772L72.4372 34.695C72.2987 34.6622 72.159 34.642 72.0195 34.6339V34.6342C71.3424 34.5951 70.6701 34.842 70.1633 35.3297L66.0463 39.2887C64.2189 41.0468 61.3116 39.2953 61.8564 36.764L63.0851 31.0634C63.2688 30.2174 63.0408 29.3285 62.4771 28.6907L58.6831 24.3946C58.5708 24.2675 58.4734 24.1354 58.3902 23.9997H58.3904C58.0462 23.4384 57.9445 22.8154 58.0303 22.2298C58.2351 20.8328 59.5072 19.6487 61.1026 20.0225L66.5656 21.3048C67.3764 21.4964 68.2283 21.2585 68.8395 20.6703L72.9566 16.7113C74.7839 14.9532 77.6912 16.7047 77.1465 19.236L75.9177 24.9363C75.9177 24.9364 75.9177 24.9365 75.9177 24.9366C75.8947 25.0423 75.8782 25.1487 75.868 25.2553C75.7963 26.0009 76.0325 26.7513 76.5258 27.3093L80.3198 31.6054C80.8294 32.1822 81.0313 32.8621 80.9979 33.5142C80.9899 33.6705 80.9683 33.8252 80.9343 33.9766ZM54.1427 23.9997C54.3647 25.0609 54.8594 26.1079 55.6849 27.0424L55.6856 27.0432L59.0409 30.8425L57.9459 35.9225C57.2878 38.9808 58.756 41.7105 60.9974 43.061C63.2662 44.428 66.4651 44.4358 68.8188 42.172L68.8195 42.1712L72.0195 39.0941V69.9997C72.0195 74.418 68.4378 77.9997 64.0195 77.9997H26.0195C21.6013 77.9997 18.0195 74.418 18.0195 69.9997V31.9997C18.0195 27.5814 21.6013 23.9997 26.0195 23.9997H54.1427ZM51.9662 51.3684L55.9816 52.2731C57.56 52.6298 58.6562 50.7344 57.5566 49.5423L54.7664 46.5176C54.3999 46.118 54.2513 45.5666 54.3701 45.035L55.2749 41.0196C55.6315 39.4412 53.7361 38.3449 52.5441 39.4445L49.5194 42.2348C49.1198 42.6013 48.5684 42.7499 48.0367 42.631L44.0214 41.7263C42.443 41.3696 41.3467 43.265 42.4463 44.4571L45.2365 47.4818C45.6031 47.8814 45.7517 48.4328 45.6328 48.9645L44.728 52.9798C44.3714 54.5582 46.2668 55.6545 47.4589 54.5549L50.4836 51.7646C50.8831 51.3981 51.4346 51.2495 51.9662 51.3684Z" fill="white"/>
</clipPath>
<g clip-path="url(#mask0_5481_99553)">
<g clip-path="url(#clip0_5481_99553)">
<rect width="96" height="96" rx="5.125" fill="#FFECCF"/>
<rect width="96" height="96" fill="#FFECCF"/>
<circle cx="54.2806" cy="3.72345" r="41.7653" transform="rotate(-0.0800682 54.2806 3.72345)" fill="url(#paint0_radial_5481_99553)"/>
<path d="M36.6427 -16.9581C29.27 -21.5204 19.9288 -21.5483 12.5287 -17.0303L-61.4858 28.1606C-68.7346 32.5865 -68.7467 43.0335 -61.5078 47.4761L12.0177 92.6029C19.4067 97.1373 28.7479 97.1319 36.1306 92.5868L109.505 47.4178C116.705 42.9845 116.718 32.596 109.526 28.1461L36.6427 -16.9581Z" fill="url(#paint1_linear_5481_99553)"/>
<path d="M13.8365 45.5788C15.4774 9.73912 45.8613 -17.9845 81.7009 -16.3437C117.541 -14.7029 145.264 15.6811 143.623 51.5207C141.982 87.3603 111.599 115.084 75.759 113.443C39.9193 111.802 12.1957 81.4184 13.8365 45.5788Z" fill="url(#paint2_linear_5481_99553)"/>
<path d="M-38.8952 69.2093C-24.6489 63.1318 -9.28437 63.3923 4.02702 68.7083C30.6634 79.3721 46.1622 72.779 56.9121 46.2036C62.2666 32.8681 72.7207 21.5742 86.983 15.4898C115.498 3.34376 148.418 16.5231 160.547 44.9542C172.676 73.3853 159.4 106.253 130.892 118.415C116.598 124.513 101.204 124.228 87.8718 118.864C61.2786 108.257 45.8093 114.875 35.073 141.482C29.7049 154.786 19.2532 166.041 5.00686 172.119C-23.4858 184.274 -56.4056 171.095 -68.5277 142.679C-80.6499 114.264 -67.3878 81.3645 -38.8952 69.2093Z" fill="url(#paint3_linear_5481_99553)"/>
<circle cx="90.4056" cy="17.3436" r="41.7653" transform="rotate(-0.0800682 90.4056 17.3436)" fill="url(#paint4_radial_5481_99553)"/>
</g>
</g>

</svg>
