<svg width="96" height="96" viewBox="0 0 96 96" xmlns="http://www.w3.org/2000/svg">
  <defs>
<radialGradient id="paint0_radial_5481_99692" cx="0" cy="0" r="1" gradientUnits="userSpaceOnUse" gradientTransform="translate(54.2806 3.72345) rotate(90) scale(41.7653)">
<stop offset="0.166667" stop-color="#FF709F"/>
<stop offset="1" stop-color="#FF709F" stop-opacity="0"/>
</radialGradient>
<linearGradient id="paint1_linear_5481_99692" x1="-24.1244" y1="85.7904" x2="131.953" y2="-9.16592" gradientUnits="userSpaceOnUse">
<stop offset="0.0598452" stop-color="#8480FE"/>
<stop offset="0.599632" stop-color="#8480FE" stop-opacity="0"/>
</linearGradient>
<linearGradient id="paint2_linear_5481_99692" x1="101.128" y1="17.6831" x2="34.1712" y2="89.6803" gradientUnits="userSpaceOnUse">
<stop stop-color="#EB1000"/>
<stop offset="1" stop-color="#EB1000" stop-opacity="0"/>
</linearGradient>
<linearGradient id="paint3_linear_5481_99692" x1="19.7553" y1="99.6177" x2="138.452" y2="33.1256" gradientUnits="userSpaceOnUse">
<stop stop-color="#FC7D00" stop-opacity="0"/>
<stop offset="0.432292" stop-color="#FC7D00"/>
<stop offset="0.609375" stop-color="#FC7D00"/>
<stop offset="1" stop-color="#FC7D00" stop-opacity="0"/>
</linearGradient>
<radialGradient id="paint4_radial_5481_99692" cx="0" cy="0" r="1" gradientUnits="userSpaceOnUse" gradientTransform="translate(90.4056 17.3436) rotate(90) scale(41.7653)">
<stop offset="0.166667" stop-color="#EB1000"/>
<stop offset="1" stop-color="#EB1000" stop-opacity="0"/>
</radialGradient>
<clipPath id="clip0_5481_99692">
<rect width="96" height="96" rx="5.125" fill="white"/>
</clipPath>
</defs>
<clipPath id="mask0_5481_99692">
<path fill-rule="evenodd" d="M76.03 41.6442L86.645 31.0292C87.4261 30.2482 87.4261 28.9819 86.645 28.2008L76.03 17.5858C75.249 16.8047 73.9826 16.8047 73.2016 17.5858C72.4205 18.3668 72.4205 19.6332 73.2016 20.4142L80.1995 27.4121H75.4129C70.4921 27.4121 65.9527 29.0694 62.3303 31.8552C62.2786 31.895 62.2293 31.9368 62.1825 31.9805C62.1548 32.0001 62.1275 32.0205 62.1005 32.0416C59.4283 34.1397 56.9255 37.1995 54.958 40.0194C52.9829 42.8502 51.4409 45.5941 50.7245 47.1752C50.1546 48.4327 48.7443 51.4204 46.8771 54.5603C45.2699 57.2629 43.4199 59.912 41.5694 61.7042C41.5177 61.7428 41.4674 61.7842 41.4187 61.8284C38.3136 64.65 34.1941 66.3672 29.6689 66.3672C20.0164 66.3672 12.1914 58.5422 12.1914 48.8896C12.1914 39.2371 20.0164 31.4121 29.6689 31.4121C35.5719 31.4121 40.7919 34.3366 43.9594 38.8247L43.9594 38.8247L43.9665 38.8347L45.989 41.6633C46.6314 42.5618 47.8806 42.7694 48.7792 42.1269C49.6777 41.4845 49.8853 40.2353 49.2428 39.3367L47.2238 36.5131C43.3387 31.0115 36.9242 27.4121 29.6689 27.4121C17.8072 27.4121 8.19141 37.0279 8.19141 48.8896C8.19141 60.7514 17.8072 70.3672 29.6689 70.3672C34.5942 70.3672 39.1353 68.7073 42.7585 65.9187C42.8542 65.8661 42.947 65.8049 43.0356 65.735C45.8274 63.5333 48.3764 59.8649 50.3151 56.6048C52.2869 53.2891 53.7658 50.1548 54.3679 48.8261C54.9606 47.5179 56.3685 44.9883 58.2385 42.3082C60.116 39.6172 62.3533 36.9287 64.5707 35.1878C64.6167 35.1517 64.6606 35.114 64.7026 35.0748C64.7249 35.059 64.747 35.0428 64.7688 35.026C67.7166 32.759 71.4046 31.4121 75.4129 31.4121H80.6053L73.2016 38.8158C72.4205 39.5969 72.4205 40.8632 73.2016 41.6442C73.9826 42.4253 75.249 42.4253 76.03 41.6442ZM80.8114 70.3672C81.916 70.3672 82.8114 69.4718 82.8114 68.3672C82.8114 67.2626 81.916 66.3672 80.8114 66.3672H75.4129C69.6018 66.3672 64.9162 63.0212 60.8553 58.5902L58.518 55.7655C57.8138 54.9145 56.5531 54.7955 55.7021 55.4997C54.8511 56.2038 54.732 57.4646 55.4362 58.3156L57.8054 61.1788L57.837 61.2169L57.8704 61.2535C62.2083 65.997 67.9009 70.3672 75.4129 70.3672H80.8114Z" fill="white"/>
</clipPath>
<g clip-path="url(#mask0_5481_99692)">
<g clip-path="url(#clip0_5481_99692)">
<rect width="96" height="96" rx="5.125" fill="#FFECCF"/>
<rect width="96" height="96" fill="#FFECCF"/>
<circle cx="54.2806" cy="3.72345" r="41.7653" transform="rotate(-0.0800682 54.2806 3.72345)" fill="url(#paint0_radial_5481_99692)"/>
<path d="M36.6427 -16.9572C29.27 -21.5194 19.9288 -21.5473 12.5287 -17.0293L-61.4858 28.1616C-68.7346 32.5875 -68.7467 43.0344 -61.5078 47.4771L12.0177 92.6039C19.4067 97.1383 28.7479 97.1329 36.1306 92.5877L109.505 47.4187C116.705 42.9855 116.718 32.597 109.526 28.1471L36.6427 -16.9572Z" fill="url(#paint1_linear_5481_99692)"/>
<path d="M13.8365 45.5788C15.4774 9.73912 45.8613 -17.9845 81.7009 -16.3437C117.541 -14.7029 145.264 15.6811 143.623 51.5207C141.982 87.3603 111.599 115.084 75.759 113.443C39.9193 111.802 12.1957 81.4184 13.8365 45.5788Z" fill="url(#paint2_linear_5481_99692)"/>
<path d="M-38.8952 69.2103C-24.6489 63.1327 -9.28437 63.3933 4.02702 68.7093C30.6634 79.3731 46.1622 72.7799 56.9121 46.2046C62.2666 32.8691 72.7207 21.5752 86.983 15.4908C115.498 3.34474 148.418 16.5241 160.547 44.9552C172.676 73.3863 159.4 106.254 130.892 118.416C116.598 124.514 101.204 124.229 87.8718 118.865C61.2786 108.258 45.8093 114.876 35.073 141.483C29.7049 154.787 19.2532 166.042 5.00686 172.12C-23.4858 184.275 -56.4056 171.096 -68.5277 142.68C-80.6499 114.265 -67.3878 81.3655 -38.8952 69.2103Z" fill="url(#paint3_linear_5481_99692)"/>
<circle cx="90.4056" cy="17.3436" r="41.7653" transform="rotate(-0.0800682 90.4056 17.3436)" fill="url(#paint4_radial_5481_99692)"/>
</g>
</g>

</svg>
