<svg width="48" height="48" viewBox="0 0 48 48" xmlns="http://www.w3.org/2000/svg">
  <defs>
<radialGradient id="paint0_radial_5481_99579" cx="0" cy="0" r="1" gradientUnits="userSpaceOnUse" gradientTransform="translate(27.1423 1.86222) rotate(90) scale(20.8826)">
<stop offset="0.166667" stop-color="#FF709F"/>
<stop offset="1" stop-color="#FF709F" stop-opacity="0"/>
</radialGradient>
<linearGradient id="paint1_linear_5481_99579" x1="-12.0622" y1="42.8952" x2="65.9766" y2="-4.58296" gradientUnits="userSpaceOnUse">
<stop offset="0.0598452" stop-color="#8480FE"/>
<stop offset="0.599632" stop-color="#8480FE" stop-opacity="0"/>
</linearGradient>
<linearGradient id="paint2_linear_5481_99579" x1="50.5621" y1="8.84155" x2="17.0836" y2="44.8401" gradientUnits="userSpaceOnUse">
<stop stop-color="#EB1000"/>
<stop offset="1" stop-color="#EB1000" stop-opacity="0"/>
</linearGradient>
<linearGradient id="paint3_linear_5481_99579" x1="9.87765" y1="49.8089" x2="69.2259" y2="16.5628" gradientUnits="userSpaceOnUse">
<stop stop-color="#FC7D00" stop-opacity="0"/>
<stop offset="0.432292" stop-color="#FC7D00"/>
<stop offset="0.609375" stop-color="#FC7D00"/>
<stop offset="1" stop-color="#FC7D00" stop-opacity="0"/>
</linearGradient>
<radialGradient id="paint4_radial_5481_99579" cx="0" cy="0" r="1" gradientUnits="userSpaceOnUse" gradientTransform="translate(45.2009 8.67178) rotate(90) scale(20.8826)">
<stop offset="0.166667" stop-color="#EB1000"/>
<stop offset="1" stop-color="#EB1000" stop-opacity="0"/>
</radialGradient>
<clipPath id="clip0_5481_99579">
<rect width="48" height="48" rx="5.125" fill="white"/>
</clipPath>
</defs>
<clipPath id="mask0_5481_99579">
<path fill-rule="evenodd" d="M24 40.7539C33.1127 40.7539 40.5 33.3666 40.5 24.2539C40.5 15.1412 33.1127 7.75391 24 7.75391C14.8873 7.75391 7.5 15.1412 7.5 24.2539C7.5 33.3666 14.8873 40.7539 24 40.7539ZM20.5726 19.6868C20.5726 20.7445 19.7151 21.602 18.6574 21.602C17.5997 21.602 16.7422 20.7445 16.7422 19.6868C16.7422 18.6291 17.5997 17.7716 18.6574 17.7716C19.7151 17.7716 20.5726 18.6291 20.5726 19.6868ZM31.4744 19.6868C31.4744 20.7445 30.6169 21.602 29.5592 21.602C28.5015 21.602 27.644 20.7445 27.644 19.6868C27.644 18.6291 28.5015 17.7716 29.5592 17.7716C30.6169 17.7716 31.4744 18.6291 31.4744 19.6868ZM32.3224 27.5611C32.8328 27.965 32.9191 28.7062 32.5152 29.2166C31.5224 30.4711 30.2477 31.4844 28.7915 32.181C27.3355 32.8775 25.7355 33.2394 24.1149 33.2404C22.4943 33.2413 20.8939 32.8813 19.437 32.1865C17.98 31.4917 16.704 30.4799 15.7096 29.2266C15.3051 28.7167 15.3905 27.9754 15.9004 27.5708C16.4103 27.1663 17.1516 27.2517 17.5562 27.7616C18.3241 28.7295 19.3141 29.5165 20.4516 30.0589C21.5892 30.6014 22.8423 30.884 24.1135 30.8832C25.3848 30.8825 26.6375 30.5984 27.7744 30.0546C28.9111 29.5108 29.9001 28.7227 30.6668 27.7538C31.0708 27.2434 31.812 27.1571 32.3224 27.5611Z" fill="#D9D9D9"/>
</clipPath>
<g clip-path="url(#mask0_5481_99579)">
<g clip-path="url(#clip0_5481_99579)">
<rect width="48" height="48" rx="5.125" fill="#FFECCF"/>
<rect width="48" height="48" fill="#FFECCF"/>
<circle cx="27.1423" cy="1.86221" r="20.8826" transform="rotate(-0.0800682 27.1423 1.86221)" fill="url(#paint0_radial_5481_99579)"/>
<path d="M18.3213 -8.47858C14.635 -10.7597 9.96439 -10.7737 6.26433 -8.51465L-30.7429 14.0808C-34.3673 16.2938 -34.3733 21.5172 -30.7539 23.7386L6.00883 46.302C9.70335 48.5691 14.374 48.5664 18.0653 46.2939L54.7523 23.7094C58.3526 21.4928 58.3591 16.2985 54.7632 14.0735L18.3213 -8.47858Z" fill="url(#paint1_linear_5481_99579)"/>
<path d="M6.91632 22.7894C7.73673 4.86956 22.9287 -8.99224 40.8485 -8.17184C58.7683 -7.35143 72.6301 7.84053 71.8097 25.7603C70.9893 43.6802 55.7973 57.542 37.8775 56.7215C19.9577 55.9011 6.09591 40.7092 6.91632 22.7894Z" fill="url(#paint2_linear_5481_99579)"/>
<path d="M-19.4476 34.6052C-12.3244 31.5664 -4.64218 31.6967 2.01351 34.3546C15.3317 39.6865 23.0811 36.39 28.456 23.1023C31.1333 16.4345 36.3604 10.7876 43.4915 7.74541C57.7492 1.67237 74.2091 8.26203 80.2736 22.4776C86.338 36.6931 79.7002 53.1271 65.4459 59.2081C58.2988 62.2571 50.6018 62.1143 43.9359 59.4324C30.6393 54.129 22.9046 57.438 17.5365 70.7417C14.8525 77.3935 9.62658 83.0211 2.50343 86.0599C-11.7429 92.1375 -28.2028 85.5478 -34.2639 71.3402C-40.3249 57.1326 -33.6939 40.6828 -19.4476 34.6052Z" fill="url(#paint3_linear_5481_99579)"/>
<circle cx="45.2009" cy="8.67178" r="20.8826" transform="rotate(-0.0800682 45.2009 8.67178)" fill="url(#paint4_radial_5481_99579)"/>
</g>
</g>

</svg>
