<svg width="48" height="48" viewBox="0 0 48 48" xmlns="http://www.w3.org/2000/svg">
  <defs>
<radialGradient id="paint0_radial_5481_99657" cx="0" cy="0" r="1" gradientUnits="userSpaceOnUse" gradientTransform="translate(27.1423 1.86222) rotate(90) scale(20.8826)">
<stop offset="0.166667" stop-color="#FF709F"/>
<stop offset="1" stop-color="#FF709F" stop-opacity="0"/>
</radialGradient>
<linearGradient id="paint1_linear_5481_99657" x1="-12.0622" y1="42.8952" x2="65.9766" y2="-4.58296" gradientUnits="userSpaceOnUse">
<stop offset="0.0598452" stop-color="#8480FE"/>
<stop offset="0.599632" stop-color="#8480FE" stop-opacity="0"/>
</linearGradient>
<linearGradient id="paint2_linear_5481_99657" x1="50.5621" y1="8.84155" x2="17.0836" y2="44.8401" gradientUnits="userSpaceOnUse">
<stop stop-color="#EB1000"/>
<stop offset="1" stop-color="#EB1000" stop-opacity="0"/>
</linearGradient>
<linearGradient id="paint3_linear_5481_99657" x1="9.87765" y1="49.8089" x2="69.2259" y2="16.5628" gradientUnits="userSpaceOnUse">
<stop stop-color="#FC7D00" stop-opacity="0"/>
<stop offset="0.432292" stop-color="#FC7D00"/>
<stop offset="0.609375" stop-color="#FC7D00"/>
<stop offset="1" stop-color="#FC7D00" stop-opacity="0"/>
</linearGradient>
<radialGradient id="paint4_radial_5481_99657" cx="0" cy="0" r="1" gradientUnits="userSpaceOnUse" gradientTransform="translate(45.2009 8.67178) rotate(90) scale(20.8826)">
<stop offset="0.166667" stop-color="#EB1000"/>
<stop offset="1" stop-color="#EB1000" stop-opacity="0"/>
</radialGradient>
<clipPath id="clip0_5481_99657">
<rect width="48" height="48" rx="5.125" fill="white"/>
</clipPath>
</defs>
<clipPath id="mask0_5481_99657">
<path fill-rule="evenodd" d="M6 28.9504C6 25.6873 7.35316 22.7403 9.52896 20.6398C10.0266 25.0587 12.5739 28.857 16.1976 31.0617C16.733 34.6141 18.5984 37.7307 21.2705 39.8881C20.1031 40.2851 18.8517 40.5004 17.55 40.5004C11.1711 40.5004 6 35.3293 6 28.9504ZM26.3695 39.8881C27.5369 40.2851 28.7883 40.5004 30.09 40.5004C36.4689 40.5004 41.64 35.3293 41.64 28.9504C41.64 25.3927 40.0315 22.2106 37.502 20.0919C37.1832 24.4404 34.8853 28.2391 31.5052 30.591C31.0694 34.3384 29.159 37.6359 26.3695 39.8881ZM34.52 15.613C33.0569 10.9126 28.672 7.5 23.49 7.5C18.2096 7.5 13.7568 11.0435 12.3798 15.8822C13.98 15.2486 15.7243 14.9004 17.55 14.9004C19.8032 14.9004 21.9326 15.4308 23.82 16.3736C25.7074 15.4308 27.8368 14.9004 30.09 14.9004C31.6379 14.9004 33.1273 15.1507 34.52 15.613ZM11.9417 18.851C11.9406 18.9172 11.94 18.9835 11.94 19.05C11.94 22.6077 13.5486 25.7898 16.0781 27.9085C16.3709 23.9143 18.3334 20.384 21.2705 18.0127C20.1031 17.6157 18.8517 17.4004 17.55 17.4004C15.5147 17.4004 13.6023 17.9268 11.9417 18.851ZM23.82 38.652C26.1394 37.1499 27.8859 34.8388 28.6602 32.1182C27.06 32.7518 25.3157 33.1 23.49 33.1C21.9421 33.1 20.4527 32.8497 19.06 32.3874C19.8705 34.9911 21.5776 37.1997 23.82 38.652ZM35.04 19.05C35.04 22.3131 33.6868 25.2601 31.511 27.3606C31.0866 23.5922 29.1716 20.275 26.3695 18.0127C27.5369 17.6157 28.7883 17.4004 30.09 17.4004C31.8565 17.4004 33.5304 17.797 35.0274 18.5059C35.0358 18.6862 35.04 18.8676 35.04 19.05ZM29.1 28.9504C29.1 24.883 26.9975 21.3066 23.82 19.2488C20.6425 21.3066 18.54 24.883 18.54 28.9504C18.54 29.1328 18.5443 29.3142 18.5526 29.4945C20.0497 30.2034 21.7235 30.6 23.49 30.6C25.5253 30.6 27.4377 30.0736 29.0983 29.1494C29.0994 29.0832 29.1 29.0169 29.1 28.9504Z" fill="white"/>
</clipPath>
<g clip-path="url(#mask0_5481_99657)">
<g clip-path="url(#clip0_5481_99657)">
<rect width="48" height="48" rx="5.125" fill="#FFECCF"/>
<rect width="48" height="48" fill="#FFECCF"/>
<circle cx="27.1423" cy="1.86221" r="20.8826" transform="rotate(-0.0800682 27.1423 1.86221)" fill="url(#paint0_radial_5481_99657)"/>
<path d="M18.3213 -8.47858C14.635 -10.7597 9.96439 -10.7737 6.26433 -8.51465L-30.7429 14.0808C-34.3673 16.2938 -34.3733 21.5172 -30.7539 23.7386L6.00883 46.302C9.70335 48.5691 14.374 48.5664 18.0653 46.2939L54.7523 23.7094C58.3526 21.4928 58.3591 16.2985 54.7632 14.0735L18.3213 -8.47858Z" fill="url(#paint1_linear_5481_99657)"/>
<path d="M6.91632 22.7894C7.73673 4.86956 22.9287 -8.99224 40.8485 -8.17184C58.7683 -7.35143 72.6301 7.84053 71.8097 25.7603C70.9893 43.6802 55.7973 57.542 37.8775 56.7215C19.9577 55.9011 6.09591 40.7092 6.91632 22.7894Z" fill="url(#paint2_linear_5481_99657)"/>
<path d="M-19.4476 34.6052C-12.3244 31.5664 -4.64218 31.6967 2.01351 34.3546C15.3317 39.6865 23.0811 36.39 28.456 23.1023C31.1333 16.4345 36.3604 10.7876 43.4915 7.74541C57.7492 1.67237 74.2091 8.26203 80.2736 22.4776C86.338 36.6931 79.7002 53.1271 65.4459 59.2081C58.2988 62.2571 50.6018 62.1143 43.9359 59.4324C30.6393 54.129 22.9046 57.438 17.5365 70.7417C14.8525 77.3935 9.62658 83.0211 2.50343 86.0599C-11.7429 92.1375 -28.2028 85.5478 -34.2639 71.3402C-40.3249 57.1326 -33.6939 40.6828 -19.4476 34.6052Z" fill="url(#paint3_linear_5481_99657)"/>
<circle cx="45.2009" cy="8.67178" r="20.8826" transform="rotate(-0.0800682 45.2009 8.67178)" fill="url(#paint4_radial_5481_99657)"/>
</g>
</g>

</svg>
