<svg width="48" height="48" viewBox="0 0 48 48" xmlns="http://www.w3.org/2000/svg">
  <defs>
<radialGradient id="paint0_radial_5481_99687" cx="0" cy="0" r="1" gradientUnits="userSpaceOnUse" gradientTransform="translate(27.1423 1.86319) rotate(90) scale(20.8826)">
<stop offset="0.166667" stop-color="#FF709F"/>
<stop offset="1" stop-color="#FF709F" stop-opacity="0"/>
</radialGradient>
<linearGradient id="paint1_linear_5481_99687" x1="-12.0622" y1="42.8962" x2="65.9766" y2="-4.58198" gradientUnits="userSpaceOnUse">
<stop offset="0.0598452" stop-color="#8480FE"/>
<stop offset="0.599632" stop-color="#8480FE" stop-opacity="0"/>
</linearGradient>
<linearGradient id="paint2_linear_5481_99687" x1="50.5621" y1="8.84253" x2="17.0836" y2="44.8411" gradientUnits="userSpaceOnUse">
<stop stop-color="#EB1000"/>
<stop offset="1" stop-color="#EB1000" stop-opacity="0"/>
</linearGradient>
<linearGradient id="paint3_linear_5481_99687" x1="9.87765" y1="49.8098" x2="69.2259" y2="16.5638" gradientUnits="userSpaceOnUse">
<stop stop-color="#FC7D00" stop-opacity="0"/>
<stop offset="0.432292" stop-color="#FC7D00"/>
<stop offset="0.609375" stop-color="#FC7D00"/>
<stop offset="1" stop-color="#FC7D00" stop-opacity="0"/>
</linearGradient>
<radialGradient id="paint4_radial_5481_99687" cx="0" cy="0" r="1" gradientUnits="userSpaceOnUse" gradientTransform="translate(45.2009 8.67276) rotate(90) scale(20.8826)">
<stop offset="0.166667" stop-color="#EB1000"/>
<stop offset="1" stop-color="#EB1000" stop-opacity="0"/>
</radialGradient>
<clipPath id="clip0_5481_99687">
<rect y="0.000976562" width="48" height="48" rx="5.125" fill="white"/>
</clipPath>
</defs>
<clipPath id="mask0_5481_99687">
<path d="M22.7492 11.8818V15.3878C22.7492 16.0781 23.3088 16.6378 23.9992 16.6378C24.6895 16.6378 25.2492 16.0781 25.2492 15.3878V11.8818C25.2492 11.7945 25.2402 11.7092 25.2232 11.627C27.3837 11.7843 29.4281 12.3597 31.276 13.2727C31.2285 13.3289 31.1852 13.3901 31.1471 13.4561L29.3941 16.4924C29.049 17.0903 29.2538 17.8547 29.8517 18.1999C30.4495 18.5451 31.214 18.3403 31.5592 17.7424L33.3122 14.7061C33.3458 14.648 33.3741 14.5883 33.3974 14.5275C37.4009 17.3212 40.1009 21.8538 40.4024 27.0303H36.9034C36.213 27.0303 35.6534 27.59 35.6534 28.2803C35.6534 28.9707 36.213 29.5303 36.9034 29.5303H40.3601C40.1593 31.7025 39.5354 33.752 38.5714 35.5956C38.2491 36.2121 37.5951 36.5694 36.8995 36.5694H11.1279C10.4322 36.5694 9.77825 36.2121 9.45593 35.5956C8.49201 33.752 7.86804 31.7025 7.66724 29.5303H11.1242C11.8145 29.5303 12.3742 28.9707 12.3742 28.2803C12.3742 27.59 11.8145 27.0303 11.1242 27.0303H7.625C7.74746 24.9277 8.26566 22.9313 9.1062 21.1145C9.12882 21.1295 9.15207 21.144 9.17594 21.1578L12.2122 22.9108C12.8101 23.256 13.5746 23.0511 13.9197 22.4533C14.2649 21.8554 14.0601 21.0909 13.4622 20.7457L10.4259 18.9927C10.3917 18.973 10.357 18.955 10.3218 18.9388C11.471 17.2058 12.9404 15.7036 14.6456 14.5166C14.6697 14.5811 14.6994 14.6445 14.735 14.7061L16.488 17.7424C16.8332 18.3403 17.5977 18.5451 18.1955 18.1999C18.7934 17.8547 18.9982 17.0903 18.6531 16.4924L16.9001 13.4561C16.8604 13.3874 16.8152 13.3239 16.7653 13.2658C18.6011 12.3609 20.6306 11.7891 22.7747 11.6291C22.758 11.7107 22.7492 11.7952 22.7492 11.8818ZM22.7773 30.9105C21.8753 31.7225 21.8385 33.1248 22.6967 33.983C23.5549 34.8412 24.9572 34.8044 25.7692 33.9024L36.7835 21.6669C37.2297 21.1712 37.2098 20.413 36.7382 19.9415C36.2667 19.4699 35.5085 19.45 35.0128 19.8962L22.7773 30.9105Z" fill="#D9D9D9"/>
</clipPath>
<g clip-path="url(#mask0_5481_99687)">
<g clip-path="url(#clip0_5481_99687)">
<rect y="0.000976562" width="48" height="48" rx="5.125" fill="#FFECCF"/>
<rect width="48" height="48" transform="translate(0 0.000976562)" fill="#FFECCF"/>
<circle cx="27.1423" cy="1.86319" r="20.8826" transform="rotate(-0.0800682 27.1423 1.86319)" fill="url(#paint0_radial_5481_99687)"/>
<path d="M18.3213 -8.47761C14.635 -10.7587 9.96439 -10.7727 6.26433 -8.51367L-30.7429 14.0818C-34.3673 16.2947 -34.3733 21.5182 -30.7539 23.7395L6.00883 46.3029C9.70335 48.5701 14.374 48.5674 18.0653 46.2948L54.7523 23.7103C58.3526 21.4937 58.3591 16.2995 54.7632 14.0745L18.3213 -8.47761Z" fill="url(#paint1_linear_5481_99687)"/>
<path d="M6.91632 22.7904C7.73673 4.87054 22.9287 -8.99127 40.8485 -8.17086C58.7683 -7.35045 72.6301 7.8415 71.8097 25.7613C70.9893 43.6811 55.7973 57.5429 37.8775 56.7225C19.9577 55.9021 6.09591 40.7102 6.91632 22.7904Z" fill="url(#paint2_linear_5481_99687)"/>
<path d="M-19.4476 34.6061C-12.3244 31.5673 -4.64218 31.6976 2.01351 34.3556C15.3317 39.6875 23.0811 36.3909 28.456 23.1033C31.1333 16.4355 36.3604 10.7886 43.4915 7.74638C57.7492 1.67334 74.2091 8.26301 80.2736 22.4786C86.338 36.6941 79.7002 53.128 65.4459 59.209C58.2988 62.2581 50.6018 62.1153 43.9359 59.4334C30.6393 54.1299 22.9046 57.439 17.5365 70.7426C14.8525 77.3945 9.62658 83.022 2.50343 86.0608C-11.7429 92.1384 -28.2028 85.5488 -34.2639 71.3412C-40.3249 57.1336 -33.6939 40.6837 -19.4476 34.6061Z" fill="url(#paint3_linear_5481_99687)"/>
<circle cx="45.2009" cy="8.67276" r="20.8826" transform="rotate(-0.0800682 45.2009 8.67276)" fill="url(#paint4_radial_5481_99687)"/>
</g>
</g>

</svg>
