<svg width="48" height="48" viewBox="0 0 48 48" xmlns="http://www.w3.org/2000/svg">
  <defs>
<radialGradient id="paint0_radial_5481_99591" cx="0" cy="0" r="1" gradientUnits="userSpaceOnUse" gradientTransform="translate(27.1423 1.86222) rotate(90) scale(20.8826)">
<stop offset="0.166667" stop-color="#FF709F"/>
<stop offset="1" stop-color="#FF709F" stop-opacity="0"/>
</radialGradient>
<linearGradient id="paint1_linear_5481_99591" x1="-12.0622" y1="42.8952" x2="65.9766" y2="-4.58296" gradientUnits="userSpaceOnUse">
<stop offset="0.0598452" stop-color="#8480FE"/>
<stop offset="0.599632" stop-color="#8480FE" stop-opacity="0"/>
</linearGradient>
<linearGradient id="paint2_linear_5481_99591" x1="50.5621" y1="8.84155" x2="17.0836" y2="44.8401" gradientUnits="userSpaceOnUse">
<stop stop-color="#EB1000"/>
<stop offset="1" stop-color="#EB1000" stop-opacity="0"/>
</linearGradient>
<linearGradient id="paint3_linear_5481_99591" x1="9.87765" y1="49.8089" x2="69.2259" y2="16.5628" gradientUnits="userSpaceOnUse">
<stop stop-color="#FC7D00" stop-opacity="0"/>
<stop offset="0.432292" stop-color="#FC7D00"/>
<stop offset="0.609375" stop-color="#FC7D00"/>
<stop offset="1" stop-color="#FC7D00" stop-opacity="0"/>
</linearGradient>
<radialGradient id="paint4_radial_5481_99591" cx="0" cy="0" r="1" gradientUnits="userSpaceOnUse" gradientTransform="translate(45.2009 8.67178) rotate(90) scale(20.8826)">
<stop offset="0.166667" stop-color="#EB1000"/>
<stop offset="1" stop-color="#EB1000" stop-opacity="0"/>
</radialGradient>
<clipPath id="clip0_5481_99591">
<rect width="48" height="48" rx="5.125" fill="white"/>
</clipPath>
</defs>
<clipPath id="mask0_5481_99591">
<path fill-rule="evenodd" d="M8 9.25C8 8.55964 8.55964 8 9.25 8H16.212C16.9024 8 17.462 8.55964 17.462 9.25C17.462 9.94036 16.9024 10.5 16.212 10.5H11.9483L23.769 22.3207L35.5897 10.5H31.7694C31.079 10.5 30.5194 9.94036 30.5194 9.25C30.5194 8.55964 31.079 8 31.7694 8H38.7314C39.4217 8 39.9814 8.55964 39.9814 9.25V16.212C39.9814 16.9024 39.4217 17.462 38.7314 17.462C38.041 17.462 37.4814 16.9024 37.4814 16.212V12.1439L25.5368 24.0885L37.4819 36.0336V32.1254C37.4819 31.4351 38.0415 30.8754 38.7319 30.8754C39.4223 30.8754 39.9819 31.4351 39.9819 32.1254V39.0874C39.9819 39.7778 39.4223 40.3374 38.7319 40.3374H31.7699C31.0795 40.3374 30.5199 39.7778 30.5199 39.0874C30.5199 38.3971 31.0795 37.8374 31.7699 37.8374H35.7502L23.769 25.8563L11.7878 37.8374H16.2125C16.9029 37.8374 17.4625 38.3971 17.4625 39.0874C17.4625 39.7778 16.9029 40.3374 16.2125 40.3374H9.25053C8.56017 40.3374 8.00053 39.7778 8.00053 39.0874V32.1254C8.00053 31.4351 8.56017 30.8754 9.25053 30.8754C9.94088 30.8754 10.5005 31.4351 10.5005 32.1254V35.5892L22.0012 24.0885L10.5 12.5873V16.212C10.5 16.9024 9.94036 17.462 9.25 17.462C8.55964 17.462 8 16.9024 8 16.212V9.25Z" fill="white"/>
</clipPath>
<g clip-path="url(#mask0_5481_99591)">
<g clip-path="url(#clip0_5481_99591)">
<rect width="48" height="48" rx="5.125" fill="#FFECCF"/>
<rect width="48" height="48" fill="#FFECCF"/>
<circle cx="27.1423" cy="1.86221" r="20.8826" transform="rotate(-0.0800682 27.1423 1.86221)" fill="url(#paint0_radial_5481_99591)"/>
<path d="M18.3213 -8.47858C14.635 -10.7597 9.96439 -10.7737 6.26433 -8.51465L-30.7429 14.0808C-34.3673 16.2938 -34.3733 21.5172 -30.7539 23.7386L6.00883 46.302C9.70335 48.5691 14.374 48.5664 18.0653 46.2939L54.7523 23.7094C58.3526 21.4928 58.3591 16.2985 54.7632 14.0735L18.3213 -8.47858Z" fill="url(#paint1_linear_5481_99591)"/>
<path d="M6.91632 22.7894C7.73673 4.86956 22.9287 -8.99224 40.8485 -8.17184C58.7683 -7.35143 72.6301 7.84053 71.8097 25.7603C70.9893 43.6802 55.7973 57.542 37.8775 56.7215C19.9577 55.9011 6.09591 40.7092 6.91632 22.7894Z" fill="url(#paint2_linear_5481_99591)"/>
<path d="M-19.4476 34.6052C-12.3244 31.5664 -4.64218 31.6967 2.01351 34.3546C15.3317 39.6865 23.0811 36.39 28.456 23.1023C31.1333 16.4345 36.3604 10.7876 43.4915 7.74541C57.7492 1.67237 74.2091 8.26203 80.2736 22.4776C86.338 36.6931 79.7002 53.1271 65.4459 59.2081C58.2988 62.2571 50.6018 62.1143 43.9359 59.4324C30.6393 54.129 22.9046 57.438 17.5365 70.7417C14.8525 77.3935 9.62658 83.0211 2.50343 86.0599C-11.7429 92.1375 -28.2028 85.5478 -34.2639 71.3402C-40.3249 57.1326 -33.6939 40.6828 -19.4476 34.6052Z" fill="url(#paint3_linear_5481_99591)"/>
<circle cx="45.2009" cy="8.67178" r="20.8826" transform="rotate(-0.0800682 45.2009 8.67178)" fill="url(#paint4_radial_5481_99591)"/>
</g>
</g>

</svg>
