<svg width="48" height="48" viewBox="0 0 48 48" xmlns="http://www.w3.org/2000/svg">
  <defs>
<radialGradient id="paint0_radial_5481_99351" cx="0" cy="0" r="1" gradientUnits="userSpaceOnUse" gradientTransform="translate(17.959 16.9295) rotate(90) scale(16.9295 17.959)">
<stop offset="0.166667" stop-color="#FF709F"/>
<stop offset="1" stop-color="#FF709F" stop-opacity="0"/>
</radialGradient>
<linearGradient id="paint1_linear_5481_99351" x1="-4.8555" y1="41.735" x2="60.06" y2="-0.160733" gradientUnits="userSpaceOnUse">
<stop offset="0.0598452" stop-color="#8480FE"/>
<stop offset="0.599632" stop-color="#8480FE" stop-opacity="0"/>
</linearGradient>
<linearGradient id="paint2_linear_5481_99351" x1="49.0046" y1="14.1279" x2="22.0262" y2="44.9013" gradientUnits="userSpaceOnUse">
<stop stop-color="#EB1000"/>
<stop offset="1" stop-color="#EB1000" stop-opacity="0"/>
</linearGradient>
<linearGradient id="paint3_linear_5481_99351" x1="14.0162" y1="47.3397" x2="63.5722" y2="17.8909" gradientUnits="userSpaceOnUse">
<stop stop-color="#FC7D00" stop-opacity="0"/>
<stop offset="0.432292" stop-color="#FC7D00"/>
<stop offset="0.609375" stop-color="#FC7D00"/>
<stop offset="1" stop-color="#FC7D00" stop-opacity="0"/>
</linearGradient>
<radialGradient id="paint4_radial_5481_99351" cx="0" cy="0" r="1" gradientUnits="userSpaceOnUse" gradientTransform="translate(17.959 16.9295) rotate(90) scale(16.9295 17.959)">
<stop offset="0.166667" stop-color="#EB1000"/>
<stop offset="1" stop-color="#EB1000" stop-opacity="0"/>
</radialGradient>
<clipPath id="clip0_5481_99351">
<rect x="5.51953" y="6.95996" width="41.2799" height="38.9135" rx="1.03837" fill="white"/>
</clipPath>
</defs>
<clipPath id="mask0_5481_99351">
<path fill-rule="evenodd" d="M37.1904 10.1699C39.8424 10.1699 41.9904 12.3179 41.9904 14.9699V16.1969H5.98438V14.9699C5.98438 12.3179 8.13237 10.1699 10.7844 10.1699H37.1904ZM41.9906 25.9379C41.2166 25.7399 40.4066 25.6349 39.5726 25.6349H39.5696C34.1876 25.6349 29.8106 30.0119 29.8106 35.3939C29.8106 36.2249 29.9156 37.0349 30.1136 37.8059H14.3996V18.5969H41.9906V25.9379ZM5.98438 33.0089C5.98438 35.6609 8.13238 37.8089 10.7844 37.8089H11.9994V18.5999H5.98438V33.0089ZM39.5729 28.0379C40.4189 28.0379 41.2319 28.1819 41.9909 28.4459H41.9939C44.8709 29.4479 46.9349 32.1809 46.9349 35.3969C46.9349 39.4619 43.6409 42.7559 39.5759 42.7559C36.3569 42.7559 33.6209 40.6889 32.6219 37.8089C32.3579 37.0529 32.2139 36.2429 32.2139 35.3969C32.2139 31.3319 35.5079 28.0379 39.5729 28.0379ZM40.7759 36.5819H43.1399C43.8029 36.5819 44.3399 36.0449 44.3399 35.3819C44.3399 34.7189 43.8029 34.1819 43.1399 34.1819H40.7759V31.8179C40.7759 31.1549 40.2389 30.6179 39.5759 30.6179C38.9129 30.6179 38.3759 31.1549 38.3759 31.8179V34.1819H36.0119C35.3489 34.1819 34.8119 34.7189 34.8119 35.3819C34.8119 36.0449 35.3489 36.5819 36.0119 36.5819H38.3759V38.9459C38.3759 39.6089 38.9129 40.1459 39.5759 40.1459C40.2389 40.1459 40.7759 39.6089 40.7759 38.9459V36.5819Z" fill="white"/>
</clipPath>
<g clip-path="url(#mask0_5481_99351)">
<g clip-path="url(#clip0_5481_99351)">
<rect x="5.51953" y="6.95996" width="41.2799" height="38.9135" rx="1.03837" fill="#FFECCF"/>
<rect width="41.2799" height="38.9135" transform="translate(5.51953 6.95996)" fill="#FFECCF"/>
<ellipse cx="17.959" cy="16.9295" rx="17.959" ry="16.9295" transform="matrix(0.999999 -0.00131734 0.00148243 0.999999 10.875 -8.43652)" fill="url(#paint0_radial_5481_99351)"/>
<path d="M21.2743 0.0863212C18.104 -1.76297 14.0873 -1.7743 10.9053 0.0570847L-20.9209 18.3752C-24.0378 20.1692 -24.043 24.4039 -20.9303 26.2047L10.6855 44.4968C13.8628 46.3348 17.8795 46.3326 21.0541 44.4903L52.6048 26.181C55.701 24.384 55.7067 20.1731 52.6142 18.3693L21.2743 0.0863212Z" fill="url(#paint1_linear_5481_99351)"/>
<path d="M11.4694 25.4354C12.1749 10.9078 25.24 -0.329905 40.6509 0.335199C56.0619 1.0003 67.9831 13.3164 67.2775 27.844C66.572 42.3715 53.5069 53.6093 38.0959 52.9442C22.6849 52.2791 10.7638 39.963 11.4694 25.4354Z" fill="url(#paint2_linear_5481_99351)"/>
<path d="M-11.2034 35.014C-5.07749 32.5505 1.52923 32.6561 7.25311 34.811C18.7067 39.1335 25.3712 36.461 29.9936 25.6887C32.2961 20.2832 36.7913 15.7052 42.9241 13.2389C55.1857 8.31549 69.3411 13.6577 74.5566 25.1822C79.772 36.7068 74.0635 50.0297 61.8048 54.9596C55.6583 57.4314 49.0389 57.3156 43.3063 55.1415C31.8712 50.842 25.2194 53.5246 20.6029 64.3099C18.2946 69.7025 13.8003 74.2647 7.67444 76.7283C-4.57735 81.6554 -18.7328 76.3132 -23.9453 64.7951C-29.1579 53.277 -23.4552 39.9411 -11.2034 35.014Z" fill="url(#paint3_linear_5481_99351)"/>
<ellipse cx="17.959" cy="16.9295" rx="17.959" ry="16.9295" transform="matrix(0.999999 -0.00131734 0.00148243 0.999999 26.4102 -2.91602)" fill="url(#paint4_radial_5481_99351)"/>
</g>
</g>

</svg>
