<svg width="96" height="96" viewBox="0 0 96 96" xmlns="http://www.w3.org/2000/svg">
  <defs>
<radialGradient id="paint0_radial_5481_99359" cx="0" cy="0" r="1" gradientUnits="userSpaceOnUse" gradientTransform="translate(36.2836 34.1953) rotate(90) scale(34.1953 36.2836)">
<stop offset="0.166667" stop-color="#FF709F"/>
<stop offset="1" stop-color="#FF709F" stop-opacity="0"/>
</radialGradient>
<linearGradient id="paint1_linear_5481_99359" x1="-13.1567" y1="79.8396" x2="117.977" y2="-4.81308" gradientUnits="userSpaceOnUse">
<stop offset="0.0598452" stop-color="#8480FE"/>
<stop offset="0.599632" stop-color="#8480FE" stop-opacity="0"/>
</linearGradient>
<linearGradient id="paint2_linear_5481_99359" x1="95.6555" y1="24.0771" x2="41.1644" y2="86.2483" gradientUnits="userSpaceOnUse">
<stop stop-color="#EB1000"/>
<stop offset="1" stop-color="#EB1000" stop-opacity="0"/>
</linearGradient>
<linearGradient id="paint3_linear_5481_99359" x1="24.9651" y1="91.1609" x2="125.073" y2="31.6571" gradientUnits="userSpaceOnUse">
<stop stop-color="#FC7D00" stop-opacity="0"/>
<stop offset="0.432292" stop-color="#FC7D00"/>
<stop offset="0.609375" stop-color="#FC7D00"/>
<stop offset="1" stop-color="#FC7D00" stop-opacity="0"/>
</linearGradient>
<radialGradient id="paint4_radial_5481_99359" cx="0" cy="0" r="1" gradientUnits="userSpaceOnUse" gradientTransform="translate(36.2836 34.1953) rotate(90) scale(34.1953 36.2836)">
<stop offset="0.166667" stop-color="#EB1000"/>
<stop offset="1" stop-color="#EB1000" stop-opacity="0"/>
</radialGradient>
<clipPath id="clip0_5481_99359">
<rect x="7.80078" y="9.59961" width="83.4" height="78.6" rx="2.07674" fill="white"/>
</clipPath>
</defs>
<clipPath id="mask0_5481_99359">
<path fill-rule="evenodd" d="M67.2004 9.59961H79.2004C83.1768 9.59961 86.4004 12.8232 86.4004 16.7996V43.1996C86.4004 47.1761 83.1768 50.3996 79.2004 50.3996H67.2004C63.2239 50.3996 60.0004 47.1761 60.0004 43.1996V16.7996C60.0004 12.8232 63.2239 9.59961 67.2004 9.59961ZM34.8004 59.9996H61.2004C65.1768 59.9996 68.4004 63.2232 68.4004 67.1996V79.1996C68.4004 83.1761 65.1768 86.3996 61.2004 86.3996H34.8004C30.8239 86.3996 27.6004 83.1761 27.6004 79.1996V67.1996C27.6004 63.2232 30.8239 59.9996 34.8004 59.9996ZM39.751 42.8815L44.707 54.9535C45.511 56.9035 48.259 56.9455 49.117 55.0195L50.563 51.7795C50.803 51.2395 51.235 50.8075 51.775 50.5675L55.009 49.1215C56.935 48.2635 56.893 45.5095 54.943 44.7115L42.877 39.7495C40.903 38.9395 38.935 40.9075 39.745 42.8815H39.751ZM33.8527 45.2097C35.1787 45.2097 36.2527 46.2837 36.2527 47.6097C36.2527 48.9357 35.1787 50.0097 33.8527 50.0097H21.5827C20.6887 51.8457 18.8167 53.1117 16.6387 53.1117C13.5967 53.1117 11.1367 50.6457 11.1367 47.6097C11.1367 45.4317 12.4087 43.5597 14.2387 42.6657V21.5398C12.4027 20.6458 11.1367 18.7737 11.1367 16.5957C11.1367 13.5537 13.6027 11.0938 16.6387 11.0938C18.8167 11.0938 20.6887 12.3658 21.5827 14.1957H42.6187C43.5127 12.3598 45.3847 11.0938 47.5627 11.0938C50.6047 11.0938 53.0647 13.5597 53.0647 16.5957C53.0647 18.7737 51.7927 20.6458 49.9627 21.5398V33.8398C49.9627 35.1658 48.8887 36.2397 47.5627 36.2397C46.2367 36.2397 45.1627 35.1658 45.1627 33.8398V21.5398C44.0527 20.9998 43.1587 20.0997 42.6187 18.9957H21.5827C21.0427 20.1057 20.1427 20.9998 19.0387 21.5398V42.6657C20.1487 43.2057 21.0427 44.1057 21.5827 45.2097H33.8527Z" fill="white"/>
</clipPath>
<g clip-path="url(#mask0_5481_99359)">
<g clip-path="url(#clip0_5481_99359)">
<rect x="7.80078" y="9.59961" width="83.4" height="78.6" rx="2.07674" fill="#FFECCF"/>
<rect width="83.4" height="78.6" transform="translate(7.80078 9.59961)" fill="#FFECCF"/>
<ellipse cx="36.2836" cy="34.1953" rx="36.2836" ry="34.1953" transform="matrix(0.999999 -0.00131702 0.00148279 0.999999 18.6211 -21.499)" fill="url(#paint0_radial_5481_99359)"/>
<path d="M39.6347 -4.285C33.2297 -8.02032 25.1145 -8.0432 18.6857 -4.34405L-45.6144 32.656C-51.9118 36.2797 -51.9223 44.8331 -45.6335 48.4706L18.2418 85.4181C24.661 89.1306 32.7762 89.1262 39.1899 85.4049L102.933 48.4228C109.189 44.7931 109.2 36.2875 102.953 32.6441L39.6347 -4.285Z" fill="url(#paint1_linear_5481_99359)"/>
<path d="M19.8209 46.9167C21.2464 17.573 47.6424 -5.12574 78.7781 -3.78232C109.914 -2.4389 133.999 22.4379 132.573 51.7816C131.148 81.1253 104.752 103.824 73.6161 102.481C42.4804 101.137 18.3955 76.2604 19.8209 46.9167Z" fill="url(#paint2_linear_5481_99359)"/>
<path d="M-25.9875 66.2648C-13.611 61.2888 -0.263108 61.5022 11.3012 65.8546C34.4415 74.5856 47.9061 69.1875 57.245 47.4289C61.8968 36.5104 70.9788 27.2636 83.3692 22.282C108.142 12.3374 136.741 23.128 147.278 46.4059C157.815 69.6839 146.282 96.5945 121.515 106.552C109.097 111.545 95.7233 111.311 84.1413 106.919C61.0384 98.2351 47.5995 103.654 38.2724 125.438C33.6088 136.331 24.5289 145.546 12.1524 150.522C-12.6006 160.474 -41.1996 149.683 -51.7308 126.418C-62.2619 103.154 -50.7404 76.2169 -25.9875 66.2648Z" fill="url(#paint3_linear_5481_99359)"/>
<ellipse cx="36.2836" cy="34.1953" rx="36.2836" ry="34.1953" transform="matrix(0.999999 -0.00131702 0.00148279 0.999999 50.0039 -10.3477)" fill="url(#paint4_radial_5481_99359)"/>
</g>
</g>

</svg>
