<svg width="160" height="160" viewBox="0 0 160 160" xmlns="http://www.w3.org/2000/svg">
  <defs>
<radialGradient id="paint0_radial_5481_89984" cx="0" cy="0" r="1" gradientUnits="userSpaceOnUse" gradientTransform="translate(90.4677 6.20574) rotate(90) scale(69.6088)">
<stop offset="0.166667" stop-color="#FF709F"/>
<stop offset="1" stop-color="#FF709F" stop-opacity="0"/>
</radialGradient>
<linearGradient id="paint1_linear_5481_89984" x1="-40.2086" y1="142.983" x2="219.921" y2="-15.2772" gradientUnits="userSpaceOnUse">
<stop offset="0.0598452" stop-color="#8480FE"/>
<stop offset="0.599632" stop-color="#8480FE" stop-opacity="0"/>
</linearGradient>
<linearGradient id="paint2_linear_5481_89984" x1="168.544" y1="29.4718" x2="56.9494" y2="149.467" gradientUnits="userSpaceOnUse">
<stop stop-color="#EB1000"/>
<stop offset="1" stop-color="#EB1000" stop-opacity="0"/>
</linearGradient>
<linearGradient id="paint3_linear_5481_89984" x1="32.9255" y1="166.029" x2="230.753" y2="55.2086" gradientUnits="userSpaceOnUse">
<stop stop-color="#FC7D00" stop-opacity="0"/>
<stop offset="0.432292" stop-color="#FC7D00"/>
<stop offset="0.609375" stop-color="#FC7D00"/>
<stop offset="1" stop-color="#FC7D00" stop-opacity="0"/>
</linearGradient>
<radialGradient id="paint4_radial_5481_89984" cx="0" cy="0" r="1" gradientUnits="userSpaceOnUse" gradientTransform="translate(150.675 28.9059) rotate(90) scale(69.6088)">
<stop offset="0.166667" stop-color="#EB1000"/>
<stop offset="1" stop-color="#EB1000" stop-opacity="0"/>
</radialGradient>
<clipPath id="clip0_5481_89984">
<rect width="160" height="160" rx="5.125" fill="white"/>
</clipPath>
</defs>
<clipPath id="mask0_5481_89984">
<path fill-rule="evenodd" d="M132.689 44.5905L125.634 46.0004C124.7 46.1886 123.925 46.8179 123.548 47.6873L120.702 54.2934C119.58 56.8968 115.774 56.4937 115.221 53.7197L113.811 46.6646C113.623 45.7311 112.994 44.9562 112.124 44.5787L105.518 41.7325C102.915 40.6107 103.318 36.8046 106.092 36.2519L113.147 34.842C114.08 34.6538 114.855 34.0245 115.233 33.1551L118.079 26.549C119.201 23.9456 123.007 24.3487 123.56 27.1227L124.969 34.1778C125.158 35.1113 125.787 35.8862 126.656 36.2637L133.262 39.1099C135.866 40.2317 135.463 44.0378 132.689 44.5905ZM73.1673 50.6333L67.34 51.7979C66.569 51.9533 65.929 52.4731 65.6172 53.1912L63.2664 58.6475C62.3398 60.7978 59.1962 60.4649 58.7397 58.1737L57.5751 52.3464C57.4197 51.5754 56.8999 50.9354 56.1818 50.6236L50.7255 48.2728C48.5752 47.3462 48.9081 44.2026 51.1993 43.7461L57.0266 42.5815C57.7976 42.4261 58.4376 41.9063 58.7494 41.1882L61.1002 35.7319C62.0268 33.5816 65.1704 33.9145 65.6269 36.2057L66.7915 42.0329C66.9469 42.8039 67.4667 43.444 68.1848 43.7557L73.6411 46.1066C75.7914 47.0331 75.4585 50.1768 73.1673 50.6333ZM124.89 93.8282L130.717 92.6636C133.009 92.2071 133.341 89.0634 131.191 88.1369L125.735 85.786C125.017 85.4743 124.497 84.8342 124.342 84.0632L123.177 78.236C122.72 75.9448 119.577 75.6118 118.65 77.7621L116.299 83.2185C115.988 83.9365 115.348 84.4563 114.577 84.6118L108.749 85.7763C106.458 86.2328 106.125 89.3765 108.276 90.303L113.732 92.6539C114.45 92.9656 114.97 93.6057 115.125 94.3767L116.29 100.204C116.746 102.495 119.89 102.828 120.816 100.678L123.167 95.2214C123.479 94.5034 124.119 93.9836 124.89 93.8282ZM88.8704 57.7125C92.6276 53.9554 98.7191 53.9554 102.476 57.7125C106.233 61.4697 106.233 67.5612 102.476 71.3184L93.3223 80.4724L79.7164 66.8665L88.8704 57.7125ZM74.0596 72.5234L87.6655 86.1292L41.4159 132.379C37.6588 136.136 31.5672 136.136 27.8101 132.379C24.0529 128.622 24.0529 122.53 27.8101 118.773L74.0596 72.5234Z" fill="#292929"/>
</clipPath>
<g clip-path="url(#mask0_5481_89984)">
<g clip-path="url(#clip0_5481_89984)">
<rect width="160" height="160" rx="5.125" fill="#FFECCF"/>
<rect width="160" height="160" fill="#FFECCF"/>
<circle cx="90.4677" cy="6.20574" r="69.6087" transform="rotate(-0.0800682 90.4677 6.20574)" fill="url(#paint0_radial_5481_89984)"/>
<path d="M61.0698 -28.2626C48.782 -35.8663 33.2133 -35.9129 20.8798 -28.3828L-102.478 46.9353C-114.559 54.3119 -114.579 71.7234 -102.514 79.1279L20.0281 154.339C32.3432 161.896 47.9119 161.887 60.2163 154.312L182.506 79.0306C194.507 71.6419 194.529 54.3277 182.543 46.9111L61.0698 -28.2626Z" fill="url(#paint1_linear_5481_89984)"/>
<path d="M23.0583 75.9646C25.793 16.2319 76.4328 -29.9741 136.166 -27.2395C195.898 -24.5048 242.104 26.1351 239.37 85.8678C236.635 145.601 185.995 191.807 126.262 189.072C66.5296 186.337 20.3236 135.697 23.0583 75.9646Z" fill="url(#paint2_linear_5481_89984)"/>
<path d="M-64.8253 115.35C-41.0814 105.221 -15.474 105.655 6.71169 114.515C51.1056 132.288 76.9371 121.299 94.8534 77.0069C103.778 54.7811 121.201 35.958 144.972 25.8174C192.497 5.57391 247.364 27.5395 267.579 74.9246C287.793 122.31 265.667 177.09 218.153 197.36C194.329 207.523 168.673 207.047 146.453 198.107C102.131 180.429 76.3488 191.459 58.4551 235.805C49.5082 257.978 32.0886 276.736 8.34476 286.866C-39.1429 307.124 -94.0093 285.159 -114.213 237.8C-134.416 190.441 -112.313 135.609 -64.8253 115.35Z" fill="url(#paint3_linear_5481_89984)"/>
<circle cx="150.675" cy="28.9059" r="69.6087" transform="rotate(-0.0800682 150.675 28.9059)" fill="url(#paint4_radial_5481_89984)"/>
</g>
</g>

</svg>
