<svg width="48" height="48" viewBox="0 0 48 48" xmlns="http://www.w3.org/2000/svg">
  <defs>
<radialGradient id="paint0_radial_5481_99330" cx="0" cy="0" r="1" gradientUnits="userSpaceOnUse" gradientTransform="translate(26.7325 4.74815) rotate(90) scale(18.1603)">
<stop offset="0.166667" stop-color="#FF709F"/>
<stop offset="1" stop-color="#FF709F" stop-opacity="0"/>
</radialGradient>
<linearGradient id="paint1_linear_5481_99330" x1="-7.36016" y1="40.4316" x2="60.5052" y2="-0.857103" gradientUnits="userSpaceOnUse">
<stop offset="0.0598452" stop-color="#8480FE"/>
<stop offset="0.599632" stop-color="#8480FE" stop-opacity="0"/>
</linearGradient>
<linearGradient id="paint2_linear_5481_99330" x1="47.0993" y1="10.8181" x2="17.9853" y2="42.1237" gradientUnits="userSpaceOnUse">
<stop stop-color="#EB1000"/>
<stop offset="1" stop-color="#EB1000" stop-opacity="0"/>
</linearGradient>
<linearGradient id="paint3_linear_5481_99330" x1="11.721" y1="46.444" x2="63.3323" y2="17.5321" gradientUnits="userSpaceOnUse">
<stop stop-color="#FC7D00" stop-opacity="0"/>
<stop offset="0.432292" stop-color="#FC7D00"/>
<stop offset="0.609375" stop-color="#FC7D00"/>
<stop offset="1" stop-color="#FC7D00" stop-opacity="0"/>
</linearGradient>
<radialGradient id="paint4_radial_5481_99330" cx="0" cy="0" r="1" gradientUnits="userSpaceOnUse" gradientTransform="translate(42.4395 10.67) rotate(90) scale(18.1603 18.1603)">
<stop offset="0.166667" stop-color="#EB1000"/>
<stop offset="1" stop-color="#EB1000" stop-opacity="0"/>
</radialGradient>
<clipPath id="clip0_5481_99330">
<rect x="3.12891" y="3.12891" width="41.7425" height="41.7425" rx="1.03837" fill="white"/>
</clipPath>
</defs>
<clipPath id="mask0_5481_99330">
<path d="M23.21 8.15485C17.883 8.5311 13.5687 12.8301 13.1751 18.156C12.8827 22.1109 14.7122 25.6568 17.6417 27.7769C18.5941 28.4661 19.1745 29.5557 19.1745 30.7313V33.5283H28.8225V30.7331C28.8225 29.5867 29.3532 28.4908 30.287 27.8259C33.0499 25.8588 34.8525 22.631 34.8525 18.981C34.8525 12.7257 29.561 7.70628 23.21 8.15485ZM30.0285 18.9056C29.404 18.9056 28.8979 18.3994 28.8979 17.775C28.8979 15.7384 27.2411 14.0816 25.2045 14.0816C24.58 14.0816 24.0739 13.5754 24.0739 12.951C24.0739 12.3265 24.58 11.8203 25.2045 11.8203C28.4881 11.8203 31.1592 14.4916 31.1592 17.775C31.1592 18.3994 30.653 18.9056 30.0285 18.9056Z" fill="white"/>
<path d="M19.1758 37.6744C19.1758 38.6735 19.9857 39.4834 20.9848 39.4834H27.0148C28.0139 39.4834 28.8238 38.6735 28.8238 37.6744V35.79H19.1758V37.6744Z" fill="white"/>
</clipPath>
<g clip-path="url(#mask0_5481_99330)">
<g clip-path="url(#clip0_5481_99330)">
<rect x="3.12891" y="3.12891" width="41.7425" height="41.7425" rx="1.03837" fill="#FFECCF"/>
<rect width="41.7425" height="41.7425" transform="translate(3.12891 3.12891)" fill="#FFECCF"/>
<circle cx="26.7325" cy="4.74815" r="18.1603" transform="rotate(-0.0800682 26.7325 4.74815)" fill="url(#paint0_radial_5481_99330)"/>
<path d="M19.0624 -4.24489C15.8567 -6.22862 11.7949 -6.24077 8.57723 -4.27625L-23.6056 15.3735C-26.7575 17.298 -26.7627 21.8405 -23.6151 23.7723L8.35504 43.3942C11.5679 45.3658 15.6297 45.3635 18.8398 43.3872L50.744 23.7469C53.875 21.8193 53.8807 17.3021 50.7536 15.3672L19.0624 -4.24489Z" fill="url(#paint1_linear_5481_99330)"/>
<path d="M9.1434 22.9476C9.85686 7.3639 23.0683 -4.69082 38.652 -3.97736C54.2357 -3.2639 66.2904 9.94756 65.577 25.5313C64.8635 41.115 51.6521 53.1697 36.0684 52.4562C20.4847 51.7428 8.42994 38.5313 9.1434 22.9476Z" fill="url(#paint2_linear_5481_99330)"/>
<path d="M-13.7813 33.2224C-7.58675 30.5797 -0.906002 30.693 4.88202 33.0045C16.464 37.6413 23.2032 34.7745 27.8774 23.2191C30.2056 17.4206 34.7513 12.5098 40.9528 9.86418C53.3517 4.58285 67.6659 10.3135 72.9397 22.6758C78.2136 35.0381 72.4411 49.3297 60.0451 54.6179C53.8297 57.2695 47.1361 57.1453 41.3392 54.813C29.776 50.201 23.0497 53.0786 18.3814 64.6479C16.0472 70.4326 11.5026 75.3266 5.30808 77.9692C-7.08102 83.2545 -21.3951 77.5239 -26.6661 65.1685C-31.937 52.8131 -26.1704 38.5077 -13.7813 33.2224Z" fill="url(#paint3_linear_5481_99330)"/>
<ellipse cx="42.4395" cy="10.67" rx="18.1603" ry="18.1603" transform="rotate(-0.0800682 42.4395 10.67)" fill="url(#paint4_radial_5481_99330)"/>
</g>
</g>

</svg>
