<svg width="48" height="48" viewBox="0 0 48 48" xmlns="http://www.w3.org/2000/svg">
  <defs>
<radialGradient id="paint0_radial_5481_99563" cx="0" cy="0" r="1" gradientUnits="userSpaceOnUse" gradientTransform="translate(27.1423 1.86319) rotate(90) scale(20.8826)">
<stop offset="0.166667" stop-color="#FF709F"/>
<stop offset="1" stop-color="#FF709F" stop-opacity="0"/>
</radialGradient>
<linearGradient id="paint1_linear_5481_99563" x1="-12.0622" y1="42.8962" x2="65.9766" y2="-4.58198" gradientUnits="userSpaceOnUse">
<stop offset="0.0598452" stop-color="#8480FE"/>
<stop offset="0.599632" stop-color="#8480FE" stop-opacity="0"/>
</linearGradient>
<linearGradient id="paint2_linear_5481_99563" x1="50.5621" y1="8.84253" x2="17.0836" y2="44.8411" gradientUnits="userSpaceOnUse">
<stop stop-color="#EB1000"/>
<stop offset="1" stop-color="#EB1000" stop-opacity="0"/>
</linearGradient>
<linearGradient id="paint3_linear_5481_99563" x1="9.87765" y1="49.8098" x2="69.2259" y2="16.5638" gradientUnits="userSpaceOnUse">
<stop stop-color="#FC7D00" stop-opacity="0"/>
<stop offset="0.432292" stop-color="#FC7D00"/>
<stop offset="0.609375" stop-color="#FC7D00"/>
<stop offset="1" stop-color="#FC7D00" stop-opacity="0"/>
</linearGradient>
<radialGradient id="paint4_radial_5481_99563" cx="0" cy="0" r="1" gradientUnits="userSpaceOnUse" gradientTransform="translate(45.2009 8.67276) rotate(90) scale(20.8826)">
<stop offset="0.166667" stop-color="#EB1000"/>
<stop offset="1" stop-color="#EB1000" stop-opacity="0"/>
</radialGradient>
<clipPath id="clip0_5481_99563">
<rect y="0.000976562" width="48" height="48" rx="5.125" fill="white"/>
</clipPath>
</defs>
<clipPath id="mask0_5481_99563">
<path fill-rule="evenodd" d="M29.9707 7.34604C30.6238 7.56964 30.9721 8.28038 30.7485 8.93352L26.5307 21.254L39.0155 17.0023C39.669 16.7798 40.3791 17.1292 40.6017 17.7827C40.8242 18.4362 40.4749 19.1463 39.8214 19.3689L25.8083 24.141C25.7571 24.1584 25.7054 24.1724 25.6537 24.1829C25.5913 24.4351 25.532 24.6917 25.4716 24.9534L25.4716 24.9536L25.4715 24.9539L25.4714 24.9541L25.4714 24.9542L25.4714 24.9543C25.2175 26.0538 24.9427 27.2442 24.3217 28.5845C24.2159 28.813 24.1011 29.0441 23.9802 29.2748C24.0072 29.2744 24.0343 29.2742 24.0614 29.2742C27.2227 29.2742 29.7855 31.8369 29.7855 34.9982C29.7855 38.1595 27.2227 40.7223 24.0614 40.7223C20.9001 40.7223 18.3374 38.1595 18.3374 34.9982C18.3374 33.7574 18.7322 32.6088 19.4031 31.6712C19.4439 31.604 19.4917 31.5397 19.5465 31.4793C19.6221 31.3824 19.7008 31.288 19.7825 31.1962C20.3102 30.5224 21.3917 28.9616 22.0533 27.5336C22.5169 26.5329 22.7204 25.7324 22.9346 24.8124C22.5241 24.967 22.0768 25.1449 21.5487 25.3624C20.7239 25.7021 19.7573 26.2427 18.9157 26.7671C18.0633 27.2982 17.4277 27.7571 17.2525 27.9058C17.2104 27.9416 17.1666 27.9741 17.1215 28.0033C16.0843 29.0497 14.6458 29.6978 13.0561 29.6978C9.89477 29.6978 7.33203 27.1351 7.33203 23.9738C7.33203 20.8125 9.89477 18.2498 13.0561 18.2498C16.2075 18.2498 18.7641 20.7965 18.78 23.9442C19.376 23.6122 20.0019 23.2957 20.5966 23.0508C21.8624 22.5294 22.7104 22.2164 23.6612 21.9171L28.3832 8.1238C28.6068 7.47066 29.3176 7.12244 29.9707 7.34604ZM21.4768 33.0707C21.0752 33.6083 20.8374 34.2755 20.8374 34.9982C20.8374 36.7788 22.2809 38.2223 24.0614 38.2223C25.842 38.2223 27.2855 36.7788 27.2855 34.9982C27.2855 33.2176 25.842 31.7742 24.0614 31.7742C23.1195 31.7742 22.2719 32.1782 21.6824 32.8223C21.6065 32.9174 21.5375 33.0007 21.4768 33.0707ZM13.0561 20.7498C11.2755 20.7498 9.83203 22.1932 9.83203 23.9738C9.83203 25.7544 11.2755 27.1978 13.0561 27.1978C14.8367 27.1978 16.2801 25.7544 16.2801 23.9738C16.2801 22.1932 14.8367 20.7498 13.0561 20.7498Z" fill="white"/>
</clipPath>
<g clip-path="url(#mask0_5481_99563)">
<g clip-path="url(#clip0_5481_99563)">
<rect y="0.000976562" width="48" height="48" rx="5.125" fill="#FFECCF"/>
<rect width="48" height="48" transform="translate(0 0.000976562)" fill="#FFECCF"/>
<circle cx="27.1423" cy="1.86319" r="20.8826" transform="rotate(-0.0800682 27.1423 1.86319)" fill="url(#paint0_radial_5481_99563)"/>
<path d="M18.3213 -8.47761C14.635 -10.7587 9.96439 -10.7727 6.26433 -8.51367L-30.7429 14.0818C-34.3673 16.2947 -34.3733 21.5182 -30.7539 23.7395L6.00883 46.3029C9.70335 48.5701 14.374 48.5674 18.0653 46.2948L54.7523 23.7103C58.3526 21.4937 58.3591 16.2995 54.7632 14.0745L18.3213 -8.47761Z" fill="url(#paint1_linear_5481_99563)"/>
<path d="M6.91632 22.7904C7.73673 4.87054 22.9287 -8.99127 40.8485 -8.17086C58.7683 -7.35045 72.6301 7.8415 71.8097 25.7613C70.9893 43.6811 55.7973 57.5429 37.8775 56.7225C19.9577 55.9021 6.09591 40.7102 6.91632 22.7904Z" fill="url(#paint2_linear_5481_99563)"/>
<path d="M-19.4476 34.6061C-12.3244 31.5673 -4.64218 31.6976 2.01351 34.3556C15.3317 39.6875 23.0811 36.3909 28.456 23.1033C31.1333 16.4355 36.3604 10.7886 43.4915 7.74638C57.7492 1.67334 74.2091 8.26301 80.2736 22.4786C86.338 36.6941 79.7002 53.128 65.4459 59.209C58.2988 62.2581 50.6018 62.1153 43.9359 59.4334C30.6393 54.1299 22.9046 57.439 17.5365 70.7426C14.8525 77.3945 9.62658 83.022 2.50343 86.0608C-11.7429 92.1384 -28.2028 85.5488 -34.2639 71.3412C-40.3249 57.1336 -33.6939 40.6837 -19.4476 34.6061Z" fill="url(#paint3_linear_5481_99563)"/>
<circle cx="45.2009" cy="8.67276" r="20.8826" transform="rotate(-0.0800682 45.2009 8.67276)" fill="url(#paint4_radial_5481_99563)"/>
</g>
</g>

</svg>
