<svg width="97" height="96" viewBox="0 0 97 96" fill="none" xmlns="http://www.w3.org/2000/svg">
<mask id="mask0_5_684" style="mask-type:luminance" maskUnits="userSpaceOnUse" x="15" y="15" width="67" height="66">
<path fill-rule="evenodd" clip-rule="evenodd" d="M74.6694 34.8306C78.3216 31.2091 78.3216 25.3446 74.6694 21.7231C71.0081 18.0926 65.0653 18.0923 61.4036 21.7221L61.4026 21.7231L52.0351 31.0356C51.2517 31.8144 49.9854 31.8106 49.2066 31.0273C48.4279 30.244 48.4316 28.9776 49.215 28.1989L58.5843 18.8845L58.5862 18.8827C63.8071 13.7057 72.2649 13.7058 77.4858 18.8827C82.7151 24.068 82.7161 32.4814 77.4889 37.6679L68.0822 47.0744C67.3012 47.8554 66.0349 47.8554 65.2538 47.0743C64.4728 46.2933 64.4728 45.027 65.2538 44.2459L74.6634 34.8365L74.6694 34.8306ZM44.7822 64.9644C45.5655 64.1856 46.8318 64.1894 47.6106 64.9727C48.3893 65.756 48.3856 67.0224 47.6022 67.8011L38.2329 77.1155L38.231 77.1173C33.0101 82.2942 24.5523 82.2942 19.3314 77.1173L20.7286 75.7082L19.3314 77.1173C14.1021 71.932 14.1011 63.5186 19.3283 58.3321L19.3314 58.3291L28.735 48.9255C29.516 48.1444 30.7823 48.1444 31.5634 48.9255C32.3444 49.7065 32.3444 50.9729 31.5634 51.7539L22.1538 61.1635L22.1478 61.1694C18.4956 64.7909 18.4956 70.6554 22.1478 74.2769C25.8091 77.9074 31.7519 77.9077 35.4136 74.2779L35.4146 74.2769L44.7822 64.9644ZM24.4767 38.4824C24.7625 37.4154 25.8592 36.7823 26.9262 37.0681L37.5513 39.9152C38.6183 40.201 39.2514 41.2977 38.9656 42.3646C38.6797 43.4316 37.583 44.0647 36.5161 43.7789L25.8909 40.9319C24.8239 40.646 24.1908 39.5493 24.4767 38.4824ZM69.7376 57.7785C70.8045 58.0644 71.9012 57.4313 72.187 56.3643C72.4729 55.2974 71.8398 54.2007 70.7728 53.9148L60.1477 51.0678C59.0807 50.7819 57.984 51.4151 57.6982 52.482C57.4123 53.549 58.0454 54.6456 59.1124 54.9315L69.7376 57.7785ZM39.8909 23.0682C40.9578 22.7823 42.0545 23.4154 42.3404 24.4824L45.1874 35.1075C45.4733 36.1745 44.8401 37.2712 43.7732 37.557C42.7062 37.8429 41.6096 37.2098 41.3237 36.1428L38.4767 25.5176C38.1908 24.4507 38.8239 23.354 39.8909 23.0682ZM54.3233 70.3643C54.6092 71.4313 55.7059 72.0644 56.7728 71.7785C57.8398 71.4926 58.4729 70.396 58.187 69.329L55.34 58.7039C55.0542 57.6369 53.9575 57.0038 52.8905 57.2896C51.8236 57.5755 51.1905 58.6722 51.4763 59.7391L54.3233 70.3643Z" fill="white"/>
</mask>
<g mask="url(#mask0_5_684)">
<g clip-path="url(#clip0_5_684)">
<rect x="0.408203" width="96" height="96" rx="5.125" fill="#FFECCF"/>
<rect width="96" height="96" transform="translate(0.408203)" fill="#FFECCF"/>
<circle cx="54.6891" cy="3.72357" r="41.7653" transform="rotate(-0.0800682 54.6891 3.72357)" fill="url(#paint0_radial_5_684)"/>
<path d="M37.0494 -16.9578C29.6767 -21.52 20.3355 -21.548 12.9354 -17.0299L-61.0791 28.1609C-68.3279 32.5869 -68.34 43.0338 -61.101 47.4765L12.4244 92.6033C19.8134 97.1376 29.1547 97.1322 36.5373 92.5871L109.911 47.4181C117.112 42.9849 117.125 32.5964 109.933 28.1464L37.0494 -16.9578Z" fill="url(#paint1_linear_5_684)"/>
<path d="M14.2433 45.5787C15.8841 9.73903 46.268 -17.9846 82.1076 -16.3438C117.947 -14.7029 145.671 15.681 144.03 51.5206C142.389 87.3602 112.005 115.084 76.1657 113.443C40.3261 111.802 12.6025 81.4183 14.2433 45.5787Z" fill="url(#paint2_linear_5_684)"/>
<path d="M-38.4857 69.2098C-24.2394 63.1322 -8.87494 63.3928 4.43644 68.7087C31.0728 79.3725 46.5717 72.7794 57.3215 46.204C62.676 32.8685 73.1301 21.5746 87.3924 15.4902C115.908 3.34416 148.828 16.5235 160.957 44.9546C173.086 73.3857 159.81 106.254 131.301 118.416C117.007 124.514 101.613 124.228 88.2812 118.864C61.688 108.257 46.2187 114.876 35.4825 141.483C30.1143 154.786 19.6626 166.042 5.41628 172.119C-23.0763 184.274 -55.9961 171.095 -68.1183 142.68C-80.2404 114.265 -66.9784 81.3649 -38.4857 69.2098Z" fill="url(#paint3_linear_5_684)"/>
<circle cx="90.8128" cy="17.3437" r="41.7653" transform="rotate(-0.0800682 90.8128 17.3437)" fill="url(#paint4_radial_5_684)"/>
</g>
</g>
<defs>
<radialGradient id="paint0_radial_5_684" cx="0" cy="0" r="1" gradientUnits="userSpaceOnUse" gradientTransform="translate(54.6891 3.72358) rotate(90) scale(41.7653)">
<stop offset="0.166667" stop-color="#FF709F"/>
<stop offset="1" stop-color="#FF709F" stop-opacity="0"/>
</radialGradient>
<linearGradient id="paint1_linear_5_684" x1="-23.7177" y1="85.7898" x2="132.36" y2="-9.16654" gradientUnits="userSpaceOnUse">
<stop offset="0.0598452" stop-color="#8480FE"/>
<stop offset="0.599632" stop-color="#8480FE" stop-opacity="0"/>
</linearGradient>
<linearGradient id="paint2_linear_5_684" x1="101.535" y1="17.683" x2="34.5779" y2="89.6802" gradientUnits="userSpaceOnUse">
<stop stop-color="#EB1000"/>
<stop offset="1" stop-color="#EB1000" stop-opacity="0"/>
</linearGradient>
<linearGradient id="paint3_linear_5_684" x1="20.1647" y1="99.6171" x2="138.861" y2="33.125" gradientUnits="userSpaceOnUse">
<stop stop-color="#FC7D00" stop-opacity="0"/>
<stop offset="0.432292" stop-color="#FC7D00"/>
<stop offset="0.609375" stop-color="#FC7D00"/>
<stop offset="1" stop-color="#FC7D00" stop-opacity="0"/>
</linearGradient>
<radialGradient id="paint4_radial_5_684" cx="0" cy="0" r="1" gradientUnits="userSpaceOnUse" gradientTransform="translate(90.8128 17.3437) rotate(90) scale(41.7653)">
<stop offset="0.166667" stop-color="#EB1000"/>
<stop offset="1" stop-color="#EB1000" stop-opacity="0"/>
</radialGradient>
<clipPath id="clip0_5_684">
<rect x="0.408203" width="96" height="96" rx="5.125" fill="white"/>
</clipPath>
</defs>
</svg>
