<svg width="160" height="160" viewBox="0 0 160 160" xmlns="http://www.w3.org/2000/svg">
  <defs>
<radialGradient id="paint0_radial_5481_90043" cx="0" cy="0" r="1" gradientUnits="userSpaceOnUse" gradientTransform="translate(90.4677 6.20574) rotate(90) scale(69.6088)">
<stop offset="0.166667" stop-color="#FF709F"/>
<stop offset="1" stop-color="#FF709F" stop-opacity="0"/>
</radialGradient>
<linearGradient id="paint1_linear_5481_90043" x1="-40.2086" y1="142.983" x2="219.921" y2="-15.2772" gradientUnits="userSpaceOnUse">
<stop offset="0.0598452" stop-color="#8480FE"/>
<stop offset="0.599632" stop-color="#8480FE" stop-opacity="0"/>
</linearGradient>
<linearGradient id="paint2_linear_5481_90043" x1="168.544" y1="29.4718" x2="56.9494" y2="149.467" gradientUnits="userSpaceOnUse">
<stop stop-color="#EB1000"/>
<stop offset="1" stop-color="#EB1000" stop-opacity="0"/>
</linearGradient>
<linearGradient id="paint3_linear_5481_90043" x1="32.9255" y1="166.029" x2="230.753" y2="55.2086" gradientUnits="userSpaceOnUse">
<stop stop-color="#FC7D00" stop-opacity="0"/>
<stop offset="0.432292" stop-color="#FC7D00"/>
<stop offset="0.609375" stop-color="#FC7D00"/>
<stop offset="1" stop-color="#FC7D00" stop-opacity="0"/>
</linearGradient>
<radialGradient id="paint4_radial_5481_90043" cx="0" cy="0" r="1" gradientUnits="userSpaceOnUse" gradientTransform="translate(150.675 28.9059) rotate(90) scale(69.6088)">
<stop offset="0.166667" stop-color="#EB1000"/>
<stop offset="1" stop-color="#EB1000" stop-opacity="0"/>
</radialGradient>
<clipPath id="clip0_5481_90043">
<rect width="160" height="160" rx="5.125" fill="white"/>
</clipPath>
</defs>
<clipPath id="mask0_5481_90043">
<path fill-rule="evenodd" d="M56.9331 48.0449L56.9407 48.0449L65.392 62.683C61.4325 66.0274 58.6342 70.7036 57.6881 76.0205H40.8048C39.4246 73.618 36.8329 72 33.8633 72C29.445 72 25.8633 75.5817 25.8633 80C25.8633 84.4183 29.445 88 33.8633 88C36.8159 88 39.395 86.4004 40.7811 84.0205H57.6878C58.6335 89.3381 61.4319 94.0148 65.3917 97.3595L56.9644 111.956L56.9331 111.956C52.5148 111.956 48.9331 115.538 48.9331 119.956C48.9331 124.374 52.5148 127.956 56.9331 127.956C61.3514 127.956 64.9331 124.374 64.9331 119.956C64.9331 118.51 64.5492 117.153 63.8777 115.982L72.3168 101.365C74.7224 102.233 77.3168 102.707 80.0219 102.707C82.7268 102.707 85.3212 102.233 87.7266 101.365L96.1454 115.947C95.4614 117.126 95.0698 118.495 95.0698 119.956C95.0698 124.374 98.6515 127.956 103.07 127.956C107.488 127.956 111.07 124.374 111.07 119.956C111.07 115.541 107.493 111.961 103.079 111.956L94.6518 97.3598C98.6118 94.015 101.41 89.3382 102.356 84.0205L119.221 84.0205C120.607 86.4004 123.187 88 126.139 88C130.557 88 134.139 84.4183 134.139 80C134.139 75.5817 130.557 72 126.139 72C123.17 72 120.578 73.618 119.198 76.0205L102.356 76.0205C101.41 70.7033 98.611 66.0269 94.6511 62.6825L103.102 48.0449C107.506 48.0274 111.07 44.4524 111.07 40.0449C111.07 35.6266 107.488 32.0449 103.07 32.0449C98.6515 32.0449 95.0698 35.6266 95.0698 40.0449C95.0698 41.5141 95.4659 42.8908 96.157 44.0741L87.7258 58.6775C85.3206 57.8092 82.7265 57.3359 80.0219 57.3359C77.317 57.3359 74.7227 57.8093 72.3172 58.6778L63.8659 44.0397C64.5447 42.8642 64.9331 41.4999 64.9331 40.0449C64.9331 35.6266 61.3514 32.0449 56.9331 32.0449C52.5148 32.0449 48.9331 35.6266 48.9331 40.0449C48.9331 44.4632 52.5148 48.0449 56.9331 48.0449Z" fill="white"/>
</clipPath>
<g clip-path="url(#mask0_5481_90043)">
<g clip-path="url(#clip0_5481_90043)">
<rect width="160" height="160" rx="5.125" fill="#FFECCF"/>
<rect width="160" height="160" fill="#FFECCF"/>
<circle cx="90.4677" cy="6.20574" r="69.6087" transform="rotate(-0.0800682 90.4677 6.20574)" fill="url(#paint0_radial_5481_90043)"/>
<path d="M61.0698 -28.2626C48.782 -35.8663 33.2133 -35.9129 20.8798 -28.3828L-102.478 46.9353C-114.559 54.3119 -114.579 71.7234 -102.514 79.1279L20.0281 154.339C32.3432 161.896 47.9119 161.887 60.2163 154.312L182.506 79.0306C194.507 71.6419 194.529 54.3277 182.543 46.9111L61.0698 -28.2626Z" fill="url(#paint1_linear_5481_90043)"/>
<path d="M23.0583 75.9646C25.793 16.2319 76.4328 -29.9741 136.166 -27.2395C195.898 -24.5048 242.104 26.1351 239.37 85.8678C236.635 145.601 185.995 191.807 126.262 189.072C66.5296 186.337 20.3236 135.697 23.0583 75.9646Z" fill="url(#paint2_linear_5481_90043)"/>
<path d="M-64.8253 115.35C-41.0814 105.221 -15.474 105.655 6.71169 114.515C51.1056 132.288 76.9371 121.299 94.8534 77.0069C103.778 54.7811 121.201 35.958 144.972 25.8174C192.497 5.57391 247.364 27.5395 267.579 74.9246C287.793 122.31 265.667 177.09 218.153 197.36C194.329 207.523 168.673 207.047 146.453 198.107C102.131 180.429 76.3488 191.459 58.4551 235.805C49.5082 257.978 32.0886 276.736 8.34476 286.866C-39.1429 307.124 -94.0093 285.159 -114.213 237.8C-134.416 190.441 -112.313 135.609 -64.8253 115.35Z" fill="url(#paint3_linear_5481_90043)"/>
<circle cx="150.675" cy="28.9059" r="69.6087" transform="rotate(-0.0800682 150.675 28.9059)" fill="url(#paint4_radial_5481_90043)"/>
</g>
</g>

</svg>
