<svg width="48" height="48" viewBox="0 0 48 48" xmlns="http://www.w3.org/2000/svg">
  <defs>
<radialGradient id="paint0_radial_5481_99690" cx="0" cy="0" r="1" gradientUnits="userSpaceOnUse" gradientTransform="translate(27.1423 1.86124) rotate(90) scale(20.8826)">
<stop offset="0.166667" stop-color="#FF709F"/>
<stop offset="1" stop-color="#FF709F" stop-opacity="0"/>
</radialGradient>
<linearGradient id="paint1_linear_5481_99690" x1="-12.0622" y1="42.8942" x2="65.9766" y2="-4.58394" gradientUnits="userSpaceOnUse">
<stop offset="0.0598452" stop-color="#8480FE"/>
<stop offset="0.599632" stop-color="#8480FE" stop-opacity="0"/>
</linearGradient>
<linearGradient id="paint2_linear_5481_99690" x1="50.5621" y1="8.84057" x2="17.0836" y2="44.8392" gradientUnits="userSpaceOnUse">
<stop stop-color="#EB1000"/>
<stop offset="1" stop-color="#EB1000" stop-opacity="0"/>
</linearGradient>
<linearGradient id="paint3_linear_5481_99690" x1="9.87765" y1="49.8079" x2="69.2259" y2="16.5618" gradientUnits="userSpaceOnUse">
<stop stop-color="#FC7D00" stop-opacity="0"/>
<stop offset="0.432292" stop-color="#FC7D00"/>
<stop offset="0.609375" stop-color="#FC7D00"/>
<stop offset="1" stop-color="#FC7D00" stop-opacity="0"/>
</linearGradient>
<radialGradient id="paint4_radial_5481_99690" cx="0" cy="0" r="1" gradientUnits="userSpaceOnUse" gradientTransform="translate(45.2009 8.67081) rotate(90) scale(20.8826)">
<stop offset="0.166667" stop-color="#EB1000"/>
<stop offset="1" stop-color="#EB1000" stop-opacity="0"/>
</radialGradient>
<clipPath id="clip0_5481_99690">
<rect y="-0.000976562" width="48" height="48" rx="5.125" fill="white"/>
</clipPath>
</defs>
<clipPath id="mask0_5481_99690">
<path fill-rule="evenodd" d="M21.5496 22.0538C22.2399 22.0522 22.7983 21.4913 22.7967 20.8009L22.7794 13.295C22.7778 12.6046 22.2169 12.0463 21.5265 12.0479C20.8362 12.0494 20.2778 12.6104 20.2794 13.3007L20.2897 17.7556C18.2822 15.686 15.4697 14.3976 12.356 14.3976C6.25255 14.3976 1.30469 19.3455 1.30469 25.449C1.30469 31.5525 6.25255 36.5003 12.356 36.5003C14.8878 36.5003 17.2239 35.6475 19.0878 34.214C19.1167 34.1918 19.1444 34.1686 19.1708 34.1444C19.1824 34.1359 19.1939 34.1272 19.2053 34.1183C20.5777 33.0408 21.8533 31.4784 22.8488 30.0516C23.8491 28.6179 24.6332 27.2241 25.0013 26.4118C25.2861 25.7834 25.9916 24.2888 26.9248 22.7195C27.7285 21.3681 28.6416 20.0644 29.5426 19.1878C29.5712 19.1661 29.599 19.1429 29.6261 19.1183C31.1455 17.7376 33.1607 16.8976 35.3749 16.8976C40.0977 16.8976 43.9263 20.7262 43.9263 25.449C43.9263 30.1718 40.0977 34.0003 35.3749 34.0003C32.487 34.0003 29.933 32.5699 28.3828 30.3734C27.9847 29.8093 27.2048 29.6748 26.6407 30.0729C26.0767 30.4709 25.9421 31.2509 26.3402 31.8149C28.3388 34.6467 31.6403 36.5003 35.3749 36.5003C41.4784 36.5003 46.4263 31.5525 46.4263 25.449C46.4263 19.3455 41.4784 14.3976 35.3749 14.3976C32.8482 14.3976 30.5177 15.2468 28.6562 16.6739C28.6015 16.7049 28.5486 16.7404 28.4977 16.7805C27.0555 17.9179 25.754 19.7973 24.7761 21.4417C23.7775 23.1209 23.0291 24.7071 22.7242 25.38C22.4334 26.0217 21.7331 27.2816 20.7985 28.6211C19.8592 29.9673 18.7495 31.2976 17.6614 32.1519C17.6361 32.1718 17.6118 32.1924 17.5885 32.2138C17.5802 32.2198 17.572 32.226 17.5638 32.2323C16.1215 33.3415 14.3175 34.0003 12.356 34.0003C7.63326 34.0003 3.80469 30.1718 3.80469 25.449C3.80469 20.7262 7.63326 16.8976 12.356 16.8976C14.7962 16.8976 16.998 17.9189 18.5573 19.5607L14.0379 19.5711C13.3475 19.5727 12.7892 20.1336 12.7908 20.824C12.7924 21.5143 13.3533 22.0727 14.0436 22.0711L21.5496 22.0538Z" fill="white"/>
</clipPath>
<g clip-path="url(#mask0_5481_99690)">
<g clip-path="url(#clip0_5481_99690)">
<rect y="-0.000976562" width="48" height="48" rx="5.125" fill="#FFECCF"/>
<rect width="48" height="48" transform="translate(0 -0.000976562)" fill="#FFECCF"/>
<circle cx="27.1423" cy="1.86124" r="20.8826" transform="rotate(-0.0800682 27.1423 1.86124)" fill="url(#paint0_radial_5481_99690)"/>
<path d="M18.3213 -8.47956C14.635 -10.7607 9.96439 -10.7746 6.26433 -8.51562L-30.7429 14.0798C-34.3673 16.2928 -34.3733 21.5162 -30.7539 23.7376L6.00883 46.301C9.70335 48.5682 14.374 48.5655 18.0653 46.2929L54.7523 23.7084C58.3526 21.4918 58.3591 16.2975 54.7632 14.0725L18.3213 -8.47956Z" fill="url(#paint1_linear_5481_99690)"/>
<path d="M6.91632 22.7884C7.73673 4.86858 22.9287 -8.99322 40.8485 -8.17281C58.7683 -7.3524 72.6301 7.83955 71.8097 25.7594C70.9893 43.6792 55.7973 57.541 37.8775 56.7206C19.9577 55.9002 6.09591 40.7082 6.91632 22.7884Z" fill="url(#paint2_linear_5481_99690)"/>
<path d="M-19.4476 34.6042C-12.3244 31.5654 -4.64218 31.6957 2.01351 34.3537C15.3317 39.6856 23.0811 36.389 28.456 23.1013C31.1333 16.4336 36.3604 10.7866 43.4915 7.74443C57.7492 1.67139 74.2091 8.26106 80.2736 22.4766C86.338 36.6922 79.7002 53.1261 65.4459 59.2071C58.2988 62.2561 50.6018 62.1133 43.9359 59.4314C30.6393 54.128 22.9046 57.4371 17.5365 70.7407C14.8525 77.3925 9.62658 83.0201 2.50343 86.0589C-11.7429 92.1365 -28.2028 85.5468 -34.2639 71.3392C-40.3249 57.1317 -33.6939 40.6818 -19.4476 34.6042Z" fill="url(#paint3_linear_5481_99690)"/>
<circle cx="45.2009" cy="8.67081" r="20.8826" transform="rotate(-0.0800682 45.2009 8.67081)" fill="url(#paint4_radial_5481_99690)"/>
</g>
</g>

</svg>
