<svg width="160" height="160" viewBox="0 0 160 160" xmlns="http://www.w3.org/2000/svg">
  <defs>
<radialGradient id="paint0_radial_5481_89858" cx="0" cy="0" r="1" gradientUnits="userSpaceOnUse" gradientTransform="translate(61.6578 58.1233) rotate(90) scale(58.1233 61.6578)">
<stop offset="0.166667" stop-color="#FF709F"/>
<stop offset="1" stop-color="#FF709F" stop-opacity="0"/>
</radialGradient>
<linearGradient id="paint1_linear_5481_89858" x1="-25.2755" y1="127.391" x2="197.596" y2="-16.4478" gradientUnits="userSpaceOnUse">
<stop offset="0.0598452" stop-color="#8480FE"/>
<stop offset="0.599632" stop-color="#8480FE" stop-opacity="0"/>
</linearGradient>
<linearGradient id="paint2_linear_5481_89858" x1="159.631" y1="32.6092" x2="67.0072" y2="138.262" gradientUnits="userSpaceOnUse">
<stop stop-color="#EB1000"/>
<stop offset="1" stop-color="#EB1000" stop-opacity="0"/>
</linearGradient>
<linearGradient id="paint3_linear_5481_89858" x1="39.5046" y1="146.634" x2="209.643" y2="45.529" gradientUnits="userSpaceOnUse">
<stop stop-color="#FC7D00" stop-opacity="0"/>
<stop offset="0.432292" stop-color="#FC7D00"/>
<stop offset="0.609375" stop-color="#FC7D00"/>
<stop offset="1" stop-color="#FC7D00" stop-opacity="0"/>
</linearGradient>
<radialGradient id="paint4_radial_5481_89858" cx="0" cy="0" r="1" gradientUnits="userSpaceOnUse" gradientTransform="translate(61.6578 58.1233) rotate(90) scale(58.1233 61.6578)">
<stop offset="0.166667" stop-color="#EB1000"/>
<stop offset="1" stop-color="#EB1000" stop-opacity="0"/>
</radialGradient>
<clipPath id="clip0_5481_89858">
<rect x="10.3398" y="8" width="141.724" height="133.6" rx="3.46124" fill="white"/>
</clipPath>
</defs>
<clipPath id="mask0_5481_89858">
<path fill-rule="evenodd" d="M140.117 41.9003C141.117 39.9303 143.527 39.1503 145.497 40.1503H145.507C147.477 41.1503 148.257 43.5603 147.257 45.5303L136.277 67.1003C135.567 68.4903 134.167 69.2903 132.707 69.2903C132.137 69.2903 131.567 69.1603 131.017 68.9103L109.847 59.0403C107.837 58.1003 106.967 55.7203 107.907 53.7203C108.847 51.7203 111.227 50.8503 113.227 51.7903L127.057 58.2403C118.567 40.1903 100.067 28.2803 79.9473 28.2803C56.9773 28.2803 36.4473 43.6603 30.0173 65.6803C29.5073 67.4303 27.9073 68.5603 26.1773 68.5603C25.8073 68.5603 25.4273 68.5103 25.0573 68.4003C22.9373 67.7803 21.7173 65.5603 22.3373 63.4403C29.7573 38.0303 53.4473 20.2803 79.9473 20.2803C102.877 20.2803 123.977 33.6803 133.927 54.0703L140.117 41.9003ZM129.798 94.8903C130.418 92.7703 132.638 91.5503 134.758 92.1703V92.1803C136.878 92.8003 138.098 95.0203 137.478 97.1403C130.058 122.55 106.368 140.3 79.8679 140.3C57.0479 140.3 36.0379 127.02 26.0279 106.79L19.8779 118.88C19.1679 120.27 17.7679 121.07 16.3079 121.07C15.6979 121.07 15.0779 120.93 14.4979 120.63C12.5279 119.63 11.7479 117.22 12.7479 115.25L23.7279 93.6703C24.7079 91.7503 27.0379 90.9503 28.9879 91.8603L50.1579 101.73C52.1679 102.67 53.0279 105.05 52.0979 107.05C51.1579 109.05 48.7779 109.91 46.7779 108.98L32.8279 102.47C41.3379 120.45 59.7979 132.29 79.8679 132.29C102.838 132.29 123.368 116.91 129.798 94.8903Z" fill="white"/>
<path d="M145.497 40.1503L145.045 41.042L145.258 41.1503H145.497V40.1503ZM140.117 41.9003L141.009 42.3536L141.009 42.3529L140.117 41.9003ZM145.507 40.1503L145.96 39.2586L145.747 39.1503H145.507V40.1503ZM147.257 45.5303L148.148 45.9839L148.149 45.9829L147.257 45.5303ZM136.277 67.1003L137.168 67.5552L137.168 67.5539L136.277 67.1003ZM131.017 68.9103L130.595 69.8167L130.603 69.8206L131.017 68.9103ZM109.847 59.0403L109.424 59.9461L109.425 59.9466L109.847 59.0403ZM113.227 51.7903L112.802 52.6953L112.805 52.6966L113.227 51.7903ZM127.057 58.2403L126.635 59.1466L129.138 60.314L127.962 57.8146L127.057 58.2403ZM30.0173 65.6803L29.0574 65.4L29.0572 65.4005L30.0173 65.6803ZM25.0573 68.4003L25.3423 67.4417L25.338 67.4405L25.0573 68.4003ZM22.3373 63.4403L23.2971 63.721L23.2972 63.7206L22.3373 63.4403ZM133.927 54.0703L133.029 54.5088L133.909 56.3125L134.819 54.5236L133.927 54.0703ZM134.758 92.1703H135.758V91.4208L135.039 91.2105L134.758 92.1703ZM129.798 94.8903L128.838 94.6096L128.838 94.61L129.798 94.8903ZM134.758 92.1803H133.758V92.9297L134.477 93.1401L134.758 92.1803ZM137.478 97.1403L136.518 96.8596L136.518 96.86L137.478 97.1403ZM26.0279 106.79L26.9242 106.347L26.0403 104.56L25.1366 106.337L26.0279 106.79ZM19.8779 118.88L20.7685 119.335L20.7692 119.334L19.8779 118.88ZM14.4979 120.63L14.9574 119.742L14.9506 119.739L14.4979 120.63ZM12.7479 115.25L11.8567 114.797L11.8562 114.798L12.7479 115.25ZM23.7279 93.6703L22.8372 93.2157L22.8367 93.2168L23.7279 93.6703ZM28.9879 91.8603L28.565 92.7665L28.5654 92.7666L28.9879 91.8603ZM50.1579 101.73L50.5816 100.824L50.5805 100.824L50.1579 101.73ZM52.0979 107.05L53.003 107.476L53.0047 107.472L52.0979 107.05ZM46.7779 108.98L46.355 109.886L46.3563 109.887L46.7779 108.98ZM32.8279 102.47L33.2508 101.564L30.7376 100.391L31.9241 102.898L32.8279 102.47ZM145.95 39.2586C143.49 38.01 140.477 38.9824 139.226 41.4476L141.009 42.3529C141.758 40.8782 143.564 40.2905 145.045 41.042L145.95 39.2586ZM145.507 39.1503H145.497V41.1503H145.507V39.1503ZM148.149 45.9829C149.398 43.5232 148.425 40.51 145.96 39.2586L145.055 41.042C146.529 41.7906 147.117 43.5973 146.366 45.0776L148.149 45.9829ZM137.168 67.5539L148.148 45.9839L146.366 45.0766L135.386 66.6466L137.168 67.5539ZM132.707 70.2903C134.531 70.2903 136.282 69.2903 137.168 67.5552L135.387 66.6454C134.853 67.6902 133.804 68.2903 132.707 68.2903V70.2903ZM130.603 69.8206C131.273 70.1247 131.983 70.2903 132.707 70.2903V68.2903C132.292 68.2903 131.862 68.1958 131.431 67.9999L130.603 69.8206ZM109.425 59.9466L130.595 69.8166L131.44 68.0039L110.27 58.1339L109.425 59.9466ZM107.002 53.2949C105.825 55.8004 106.918 58.7742 109.424 59.9461L110.271 58.1344C108.757 57.4264 108.11 55.6401 108.812 54.1456L107.002 53.2949ZM113.653 50.8853C111.148 49.7081 108.175 50.7998 107.002 53.2949L108.812 54.1456C109.52 52.6408 111.306 51.9924 112.802 52.6953L113.653 50.8853ZM127.48 57.334L113.65 50.884L112.805 52.6966L126.635 59.1466L127.48 57.334ZM79.9473 29.2803C99.676 29.2803 117.826 40.963 126.152 58.6659L127.962 57.8146C119.309 39.4176 100.459 27.2803 79.9473 27.2803V29.2803ZM30.9772 65.9606C37.2824 44.3678 57.4209 29.2803 79.9473 29.2803V27.2803C56.5337 27.2803 35.6121 42.9528 29.0574 65.4L30.9772 65.9606ZM26.1773 69.5603C28.3377 69.5603 30.3391 68.1502 30.9773 65.9601L29.0572 65.4005C28.6755 66.7104 27.4768 67.5603 26.1773 67.5603V69.5603ZM24.7723 69.3588C25.2416 69.4983 25.7182 69.5603 26.1773 69.5603V67.5603C25.8964 67.5603 25.6129 67.5222 25.3423 67.4417L24.7723 69.3588ZM21.3775 63.1596C20.6019 65.8115 22.1283 68.5856 24.7766 69.3601L25.338 67.4405C23.7462 66.975 22.8326 65.3091 23.2971 63.721L21.3775 63.1596ZM79.9473 19.2803C53.0035 19.2803 28.9221 37.3229 21.3774 63.16L23.2972 63.7206C30.5925 38.7377 53.891 21.2803 79.9473 21.2803V19.2803ZM134.826 53.6317C124.71 32.9021 103.264 19.2803 79.9473 19.2803V21.2803C102.491 21.2803 123.244 34.4585 133.029 54.5088L134.826 53.6317ZM139.226 41.4469L133.036 53.6169L134.819 54.5236L141.009 42.3536L139.226 41.4469ZM135.039 91.2105C132.387 90.4349 129.613 91.9613 128.838 94.6096L130.758 95.171C131.223 93.5792 132.889 92.6656 134.477 93.1301L135.039 91.2105ZM135.758 92.1803V92.1703H133.758V92.1803H135.758ZM138.438 97.421C139.213 94.7691 137.687 91.995 135.039 91.2205L134.477 93.1401C136.069 93.6056 136.983 95.2715 136.518 96.8596L138.438 97.421ZM79.8679 141.3C106.812 141.3 130.893 123.258 138.438 97.4206L136.518 96.86C129.223 121.843 105.924 139.3 79.8679 139.3V141.3ZM25.1317 107.234C35.3082 127.8 56.6629 141.3 79.8679 141.3V139.3C57.4329 139.3 36.7677 126.24 26.9242 106.347L25.1317 107.234ZM20.7692 119.334L26.9192 107.244L25.1366 106.337L18.9866 118.427L20.7692 119.334ZM16.3079 122.07C18.1315 122.07 19.8822 121.07 20.7685 119.335L18.9874 118.425C18.4537 119.47 17.4043 120.07 16.3079 120.07V122.07ZM14.0385 121.518C14.7658 121.895 15.5441 122.07 16.3079 122.07V120.07C15.8518 120.07 15.3901 119.966 14.9574 119.742L14.0385 121.518ZM11.8562 114.798C10.6077 117.257 11.5801 120.271 14.0453 121.522L14.9506 119.739C13.4758 118.99 12.8882 117.183 13.6396 115.703L11.8562 114.798ZM22.8367 93.2168L11.8567 114.797L13.6392 115.704L24.6192 94.1238L22.8367 93.2168ZM29.4108 90.9541C26.9726 89.8163 24.062 90.8161 22.8372 93.2157L24.6186 94.1249C25.3539 92.6844 27.1032 92.0843 28.565 92.7665L29.4108 90.9541ZM50.5805 100.824L29.4105 90.9539L28.5654 92.7666L49.7354 102.637L50.5805 100.824ZM53.0047 107.472C54.167 104.972 53.0915 101.998 50.5816 100.824L49.7343 102.636C51.2443 103.342 51.8889 105.128 51.1912 106.629L53.0047 107.472ZM46.3563 109.887C48.8548 111.049 51.8283 109.975 53.003 107.476L51.1929 106.625C50.4875 108.126 48.701 108.772 47.1996 108.074L46.3563 109.887ZM32.4051 103.376L46.355 109.886L47.2008 108.074L33.2508 101.564L32.4051 103.376ZM79.8679 131.29C60.1878 131.29 42.0779 119.676 33.7318 102.042L31.9241 102.898C40.598 121.224 59.408 133.29 79.8679 133.29V131.29ZM128.838 94.61C122.533 116.203 102.394 131.29 79.8679 131.29V133.29C103.282 133.29 124.203 117.618 130.758 95.1706L128.838 94.61Z" fill="white"/>
</clipPath>
<g clip-path="url(#mask0_5481_89858)">
<g clip-path="url(#clip0_5481_89858)">
<rect x="10.3398" y="8" width="141.724" height="133.6" rx="3.46124" fill="#FFECCF"/>
<rect width="141.724" height="133.6" transform="translate(10.3398 8)" fill="#FFECCF"/>
<ellipse cx="61.6578" cy="58.1233" rx="61.6578" ry="58.1233" transform="matrix(0.999999 -0.00131734 0.00148243 0.999999 28.7305 -44.8604)" fill="url(#paint0_radial_5481_89858)"/>
<path d="M64.4345 -15.5996C53.5503 -21.9487 39.7599 -21.9876 28.8352 -15.7L-80.432 47.1906C-91.1333 53.3501 -91.1512 67.8887 -80.4644 74.0715L28.0808 136.873C38.9892 143.183 52.7796 143.176 63.6785 136.85L172 73.9902C182.63 67.8206 182.65 53.3633 172.033 47.1704L64.4345 -15.5996Z" fill="url(#paint1_linear_5481_89858)"/>
<path d="M30.763 71.4307C33.1853 21.5539 78.0409 -17.0282 130.951 -14.7447C183.861 -12.4612 224.789 29.823 222.366 79.6998C219.944 129.577 175.089 168.159 122.179 165.875C69.2689 163.592 28.3407 121.307 30.763 71.4307Z" fill="url(#paint2_linear_5481_89858)"/>
<path d="M-47.0808 104.317C-26.0491 95.859 -3.36654 96.2217 16.285 103.62C55.6081 118.46 78.489 109.285 94.3589 72.3007C102.264 53.7421 117.697 38.0249 138.752 29.5574C180.85 12.6541 229.449 30.9953 247.355 70.5619C265.261 110.129 245.662 155.87 203.575 172.795C182.472 181.282 159.746 180.884 140.065 173.42C100.805 158.658 77.9679 167.869 62.1181 204.897C54.1931 223.411 38.7633 239.075 17.7315 247.533C-24.332 264.449 -72.9313 246.107 -90.8272 206.563C-108.723 167.018 -89.1443 121.233 -47.0808 104.317Z" fill="url(#paint3_linear_5481_89858)"/>
<ellipse cx="61.6578" cy="58.1233" rx="61.6578" ry="58.1233" transform="matrix(0.999999 -0.00131734 0.00148243 0.999999 82.0586 -25.9053)" fill="url(#paint4_radial_5481_89858)"/>
</g>
</g>

</svg>
