<svg width="160" height="160" viewBox="0 0 160 160" xmlns="http://www.w3.org/2000/svg">
  <defs>
<radialGradient id="paint0_radial_5481_90173" cx="0" cy="0" r="1" gradientUnits="userSpaceOnUse" gradientTransform="translate(90.4677 6.20574) rotate(90) scale(69.6088)">
<stop offset="0.166667" stop-color="#FF709F"/>
<stop offset="1" stop-color="#FF709F" stop-opacity="0"/>
</radialGradient>
<linearGradient id="paint1_linear_5481_90173" x1="-40.2086" y1="142.983" x2="219.921" y2="-15.2772" gradientUnits="userSpaceOnUse">
<stop offset="0.0598452" stop-color="#8480FE"/>
<stop offset="0.599632" stop-color="#8480FE" stop-opacity="0"/>
</linearGradient>
<linearGradient id="paint2_linear_5481_90173" x1="168.544" y1="29.4718" x2="56.9494" y2="149.467" gradientUnits="userSpaceOnUse">
<stop stop-color="#EB1000"/>
<stop offset="1" stop-color="#EB1000" stop-opacity="0"/>
</linearGradient>
<linearGradient id="paint3_linear_5481_90173" x1="32.9255" y1="166.029" x2="230.753" y2="55.2086" gradientUnits="userSpaceOnUse">
<stop stop-color="#FC7D00" stop-opacity="0"/>
<stop offset="0.432292" stop-color="#FC7D00"/>
<stop offset="0.609375" stop-color="#FC7D00"/>
<stop offset="1" stop-color="#FC7D00" stop-opacity="0"/>
</linearGradient>
<radialGradient id="paint4_radial_5481_90173" cx="0" cy="0" r="1" gradientUnits="userSpaceOnUse" gradientTransform="translate(150.675 28.9059) rotate(90) scale(69.6088)">
<stop offset="0.166667" stop-color="#EB1000"/>
<stop offset="1" stop-color="#EB1000" stop-opacity="0"/>
</radialGradient>
<clipPath id="clip0_5481_90173">
<rect width="160" height="160" rx="5.125" fill="white"/>
</clipPath>
</defs>
<clipPath id="mask0_5481_90173">
<path fill-rule="evenodd" d="M34.8994 81.1483V115.768C34.8994 124.604 42.0629 131.768 50.8994 131.768H62.6034L62.5983 81.0169C58.0874 80.25 54.1349 77.8368 51.3907 74.4159C48.034 78.6004 42.8693 81.2772 37.086 81.2772C36.3462 81.2772 35.6165 81.2334 34.8994 81.1483ZM70.5983 80.6149L70.601 107.533H124.919V81.169C124.261 81.2405 123.592 81.2772 122.914 81.2772C117.131 81.2772 111.966 78.6004 108.61 74.4159C105.253 78.6004 100.088 81.2772 94.3049 81.2772C88.5217 81.2772 83.3569 78.6004 80.0002 74.4159C77.6288 77.3721 74.355 79.5758 70.5983 80.6149ZM65.6955 73.2772C59.9896 73.2772 55.3907 68.6739 55.3907 63.0284V62.3241C55.3907 60.1149 53.5999 58.3241 51.3907 58.3241C49.1816 58.3241 47.3907 60.1149 47.3907 62.3241V63.0284C47.3907 68.6739 42.7919 73.2772 37.086 73.2772C31.3801 73.2772 26.7812 68.6739 26.7812 63.0284C26.7812 59.9424 27.4528 56.8939 28.755 54.0986L28.756 54.0964L37.5664 35.1539L37.5669 35.1529L37.5673 35.1521C38.3952 33.3765 40.1859 32.2324 42.167 32.2324H117.847C119.829 32.2324 121.62 33.3773 122.448 35.1539L131.123 53.8062C131.159 53.9034 131.199 53.9996 131.244 54.0945C132.544 56.8952 133.219 59.9456 133.219 63.0284C133.219 68.6739 128.62 73.2772 122.914 73.2772C117.209 73.2772 112.61 68.6739 112.61 63.0284V62.3241C112.61 60.1149 110.819 58.3241 108.61 58.3241C106.401 58.3241 104.61 60.1149 104.61 62.3241V63.0284C104.61 68.6739 100.011 73.2772 94.3049 73.2772C88.5991 73.2772 84.0002 68.6739 84.0002 63.0284V62.3241C84.0002 60.1149 82.2093 58.3241 80.0002 58.3241C77.7911 58.3241 76.0002 60.1149 76.0002 62.3241V63.0284C76.0002 68.6739 71.4013 73.2772 65.6955 73.2772ZM70.6018 115.533H124.919V115.768C124.919 124.604 117.756 131.768 108.919 131.768H70.6034L70.6018 115.533Z" fill="white"/>
</clipPath>
<g clip-path="url(#mask0_5481_90173)">
<g clip-path="url(#clip0_5481_90173)">
<rect width="160" height="160" rx="5.125" fill="#FFECCF"/>
<rect width="160" height="160" fill="#FFECCF"/>
<circle cx="90.4677" cy="6.20574" r="69.6087" transform="rotate(-0.0800682 90.4677 6.20574)" fill="url(#paint0_radial_5481_90173)"/>
<path d="M61.0698 -28.2626C48.782 -35.8663 33.2133 -35.9129 20.8798 -28.3828L-102.478 46.9353C-114.559 54.3119 -114.579 71.7234 -102.514 79.1279L20.0281 154.339C32.3432 161.896 47.9119 161.887 60.2163 154.312L182.506 79.0306C194.507 71.6419 194.529 54.3277 182.543 46.9111L61.0698 -28.2626Z" fill="url(#paint1_linear_5481_90173)"/>
<path d="M23.0583 75.9646C25.793 16.2319 76.4328 -29.9741 136.166 -27.2395C195.898 -24.5048 242.104 26.1351 239.37 85.8678C236.635 145.601 185.995 191.807 126.262 189.072C66.5296 186.337 20.3236 135.697 23.0583 75.9646Z" fill="url(#paint2_linear_5481_90173)"/>
<path d="M-64.8253 115.35C-41.0814 105.221 -15.474 105.655 6.71169 114.515C51.1056 132.288 76.9371 121.299 94.8534 77.0069C103.778 54.7811 121.201 35.958 144.972 25.8174C192.497 5.57391 247.364 27.5395 267.579 74.9246C287.793 122.31 265.667 177.09 218.153 197.36C194.329 207.523 168.673 207.047 146.453 198.107C102.131 180.429 76.3488 191.459 58.4551 235.805C49.5082 257.978 32.0886 276.736 8.34476 286.866C-39.1429 307.124 -94.0093 285.159 -114.213 237.8C-134.416 190.441 -112.313 135.609 -64.8253 115.35Z" fill="url(#paint3_linear_5481_90173)"/>
<circle cx="150.675" cy="28.9059" r="69.6087" transform="rotate(-0.0800682 150.675 28.9059)" fill="url(#paint4_radial_5481_90173)"/>
</g>
</g>

</svg>
