<svg width="48" height="48" viewBox="0 0 48 48" xmlns="http://www.w3.org/2000/svg">
  <defs>
<radialGradient id="paint0_radial_5481_99378" cx="0" cy="0" r="1" gradientUnits="userSpaceOnUse" gradientTransform="translate(16.3929 15.4531) rotate(90) scale(15.4531 16.3929)">
<stop offset="0.166667" stop-color="#FF709F"/>
<stop offset="1" stop-color="#FF709F" stop-opacity="0"/>
</radialGradient>
<linearGradient id="paint1_linear_5481_99378" x1="-3.94892" y1="38.702" x2="55.3055" y2="0.459869" gradientUnits="userSpaceOnUse">
<stop offset="0.0598452" stop-color="#8480FE"/>
<stop offset="0.599632" stop-color="#8480FE" stop-opacity="0"/>
</linearGradient>
<linearGradient id="paint2_linear_5481_99378" x1="45.2133" y1="13.5027" x2="20.5875" y2="41.5925" gradientUnits="userSpaceOnUse">
<stop stop-color="#EB1000"/>
<stop offset="1" stop-color="#EB1000" stop-opacity="0"/>
</linearGradient>
<linearGradient id="paint3_linear_5481_99378" x1="13.273" y1="43.8181" x2="58.5074" y2="16.9375" gradientUnits="userSpaceOnUse">
<stop stop-color="#FC7D00" stop-opacity="0"/>
<stop offset="0.432292" stop-color="#FC7D00"/>
<stop offset="0.609375" stop-color="#FC7D00"/>
<stop offset="1" stop-color="#FC7D00" stop-opacity="0"/>
</linearGradient>
<radialGradient id="paint4_radial_5481_99378" cx="0" cy="0" r="1" gradientUnits="userSpaceOnUse" gradientTransform="translate(16.3929 15.4531) rotate(90) scale(15.4531 16.3929)">
<stop offset="0.166667" stop-color="#EB1000"/>
<stop offset="1" stop-color="#EB1000" stop-opacity="0"/>
</radialGradient>
<clipPath id="clip0_5481_99378">
<rect x="5.51953" y="6.95996" width="37.68" height="35.52" rx="1.03837" fill="white"/>
</clipPath>
</defs>
<clipPath id="mask0_5481_99378">
<path d="M38.7868 28.7254L35.1598 26.2114C35.3008 25.4944 35.3758 24.7564 35.3758 24.0004C35.3758 23.2444 35.3008 22.5034 35.1598 21.7894L38.7868 19.2754C39.5608 18.7384 39.7888 17.6974 39.3148 16.8874L37.7038 14.1334C37.2298 13.3204 36.2098 13.0114 35.3638 13.4254L31.3918 15.3574C30.3238 14.4424 29.0848 13.7254 27.7288 13.2544L27.3898 8.85341C27.3178 7.91441 26.5348 7.19141 25.5958 7.19141H22.4068C21.4648 7.19141 20.6848 7.91441 20.6128 8.85341L20.2738 13.2544C18.9178 13.7254 17.6788 14.4424 16.6108 15.3574L12.6388 13.4254C11.7928 13.0144 10.7728 13.3234 10.2988 14.1334L8.68781 16.8874C8.21381 17.7004 8.44181 18.7414 9.21581 19.2754L12.8428 21.7894C12.7018 22.5064 12.6268 23.2444 12.6268 24.0004C12.6268 24.7564 12.7018 25.4974 12.8428 26.2114L9.21581 28.7254C8.44181 29.2624 8.21381 30.3034 8.68781 31.1134L10.2988 33.8674C10.7728 34.6804 11.7928 34.9894 12.6388 34.5754L16.6108 32.6434C17.6788 33.5584 18.9178 34.2754 20.2738 34.7464L20.6128 39.1474C20.6848 40.0864 21.4678 40.8094 22.4068 40.8094H25.5958C26.5378 40.8094 27.3178 40.0864 27.3898 39.1474L27.7288 34.7464C29.0848 34.2754 30.3238 33.5584 31.3918 32.6434L35.3638 34.5754C36.2098 34.9864 37.2298 34.6774 37.7038 33.8674L39.3148 31.1134C39.7888 30.3004 39.5608 29.2594 38.7868 28.7254ZM23.9998 27.6784C21.9688 27.6784 20.3218 26.0314 20.3218 24.0004C20.3218 21.9694 21.9688 20.3224 23.9998 20.3224C26.0308 20.3224 27.6778 21.9694 27.6778 24.0004C27.6778 26.0314 26.0308 27.6784 23.9998 27.6784Z" fill="white"/>
</clipPath>
<g clip-path="url(#mask0_5481_99378)">
<g clip-path="url(#clip0_5481_99378)">
<rect x="5.51953" y="6.95996" width="37.68" height="35.52" rx="1.03837" fill="#FFECCF"/>
<rect width="37.68" height="35.52" transform="translate(5.51953 6.95996)" fill="#FFECCF"/>
<ellipse cx="16.3929" cy="15.4531" rx="16.3929" ry="15.4531" transform="matrix(0.999999 -0.00131734 0.00148243 0.999999 10.4102 -7.09375)" fill="url(#paint0_radial_5481_99378)"/>
<path d="M19.9022 0.685379C17.0084 -1.00265 13.3419 -1.01298 10.4374 0.658692L-18.6133 17.3793C-21.4584 19.0169 -21.4632 22.8823 -18.6219 24.5261L10.2368 41.223C13.137 42.9007 16.8035 42.8987 19.7012 41.217L48.5004 24.5045C51.3267 22.8642 51.3318 19.0204 48.5091 17.3739L19.9022 0.685379Z" fill="url(#paint1_linear_5481_99378)"/>
<path d="M10.9514 23.8241C11.5954 10.5635 23.5211 0.305737 37.5881 0.91284C51.6552 1.51994 62.5367 12.762 61.8927 26.0227C61.2486 39.2833 49.323 49.541 35.2559 48.9339C21.1889 48.3268 10.3073 37.0848 10.9514 23.8241Z" fill="url(#paint2_linear_5481_99378)"/>
<path d="M-9.74728 32.5674C-4.1556 30.3187 1.87496 30.4151 7.09968 32.382C17.5545 36.3276 23.6378 33.8882 27.8571 24.0553C29.9587 19.1211 34.062 14.9424 39.6599 12.6912C50.8522 8.19712 63.7732 13.0735 68.5338 23.593C73.2944 34.1125 68.0837 46.2736 56.8941 50.7735C51.2836 53.0298 45.2415 52.9241 40.0088 50.9396C29.5709 47.015 23.4992 49.4637 19.2852 59.3084C17.1783 64.2307 13.0759 68.3952 7.48427 70.6439C-3.69908 75.1413 -16.6201 70.2649 -21.3781 59.7513C-26.136 49.2377 -20.9306 37.0648 -9.74728 32.5674Z" fill="url(#paint3_linear_5481_99378)"/>
<ellipse cx="16.3929" cy="15.4531" rx="16.3929" ry="15.4531" transform="matrix(0.999999 -0.00131734 0.00148243 0.999999 24.5859 -2.05469)" fill="url(#paint4_radial_5481_99378)"/>
</g>
</g>

</svg>
