<svg width="96" height="96" viewBox="0 0 96 96" xmlns="http://www.w3.org/2000/svg">
  <defs>
<radialGradient id="paint0_radial_5481_99425" cx="0" cy="0" r="1" gradientUnits="userSpaceOnUse" gradientTransform="translate(34.1954 32.2352) rotate(90) scale(32.2352 34.1954)">
<stop offset="0.166667" stop-color="#FF709F"/>
<stop offset="1" stop-color="#FF709F" stop-opacity="0"/>
</radialGradient>
<linearGradient id="paint1_linear_5481_99425" x1="-11.9531" y1="78.6069" x2="111.651" y2="-1.16594" gradientUnits="userSpaceOnUse">
<stop offset="0.0598452" stop-color="#8480FE"/>
<stop offset="0.599632" stop-color="#8480FE" stop-opacity="0"/>
</linearGradient>
<linearGradient id="paint2_linear_5481_99425" x1="90.5965" y1="26.0409" x2="39.2273" y2="84.6359" gradientUnits="userSpaceOnUse">
<stop stop-color="#EB1000"/>
<stop offset="1" stop-color="#EB1000" stop-opacity="0"/>
</linearGradient>
<linearGradient id="paint3_linear_5481_99425" x1="23.9766" y1="89.279" x2="118.335" y2="33.2063" gradientUnits="userSpaceOnUse">
<stop stop-color="#FC7D00" stop-opacity="0"/>
<stop offset="0.432292" stop-color="#FC7D00"/>
<stop offset="0.609375" stop-color="#FC7D00"/>
<stop offset="1" stop-color="#FC7D00" stop-opacity="0"/>
</linearGradient>
<radialGradient id="paint4_radial_5481_99425" cx="0" cy="0" r="1" gradientUnits="userSpaceOnUse" gradientTransform="translate(34.1954 32.2352) rotate(90) scale(32.2352 34.1954)">
<stop offset="0.166667" stop-color="#EB1000"/>
<stop offset="1" stop-color="#EB1000" stop-opacity="0"/>
</radialGradient>
<clipPath id="clip0_5481_99425">
<rect x="7.80078" y="12.3926" width="78.6002" height="74.0945" rx="2.07674" fill="white"/>
</clipPath>
</defs>
<clipPath id="mask0_5481_99425">
<path fill-rule="evenodd" d="M36.6743 23.8287L40.0673 27.2217L43.5353 30.6897L50.3153 37.4697C52.5113 39.6657 56.0693 39.6657 58.2653 37.4697C60.4613 35.2737 60.4613 31.7157 58.2653 29.5197L51.4853 22.7397L48.0173 19.2717L46.8893 18.1437C46.0853 17.3517 45.1793 16.7397 44.2133 16.2897C44.1826 16.275 44.1519 16.26 44.1211 16.245C44.0136 16.1925 43.9053 16.1397 43.7933 16.0977C43.4153 15.9417 43.0253 15.8217 42.6353 15.7137C39.4313 14.8617 35.8793 15.6837 33.3653 18.1917L15.1073 36.4497C12.1733 39.3837 11.5493 43.7397 13.2053 47.2977L33.2813 27.2217L36.6743 23.8287ZM62.6324 18.2397L80.8904 36.4977V36.5097C84.6404 40.2597 84.6404 46.3377 80.8904 50.0877L60.5624 70.4157L51.9944 78.9837C49.7984 81.1797 46.2404 81.1797 44.0444 78.9777H44.0384C41.8424 76.7817 41.8424 73.2237 44.0384 71.0277C41.8424 73.2237 38.2844 73.2237 36.0884 71.0217H36.0824C33.9044 68.8437 33.8924 65.3277 36.0344 63.1257C33.8324 65.2677 30.3164 65.2497 28.1384 63.0657H28.1324C25.9364 60.8697 25.9364 57.3057 28.1324 55.1097H28.1264C25.9304 57.3057 22.3724 57.3057 20.1764 55.1037H20.1704C19.9964 54.9297 19.8404 54.7437 19.6964 54.5577C17.9924 52.3497 18.1484 49.1697 20.1704 47.1477L29.1464 38.1657L36.6824 30.6297L40.1504 34.0977L46.9304 40.8777C48.8984 42.8457 51.5144 43.9317 54.2984 43.9317C57.0824 43.9317 59.6984 42.8457 61.6664 40.8777C65.7284 36.8097 65.7284 30.1977 61.6664 26.1357L51.8444 16.3137C55.3844 14.6877 59.7104 15.3177 62.6324 18.2397Z" fill="white"/>
</clipPath>
<g clip-path="url(#mask0_5481_99425)">
<g clip-path="url(#clip0_5481_99425)">
<rect x="7.80078" y="12.3926" width="78.6002" height="74.0945" rx="2.07674" fill="#FFECCF"/>
<rect width="78.6002" height="74.0945" transform="translate(7.80078 12.3926)" fill="#FFECCF"/>
<ellipse cx="34.1954" cy="32.2352" rx="34.1954" ry="32.2352" transform="matrix(0.999999 -0.00131734 0.00148243 0.999999 18 -16.9238)" fill="url(#paint0_radial_5481_99425)"/>
<path d="M37.8001 -0.695531C31.7637 -4.21674 24.1156 -4.23831 18.0567 -0.7512L-42.5428 34.1279C-48.4778 37.5439 -48.4877 45.6071 -42.5608 49.036L17.6383 83.8656C23.6881 87.3653 31.3363 87.3612 37.3808 83.8532L97.4559 48.9909C103.351 45.5693 103.362 37.5513 97.4739 34.1167L37.8001 -0.695531Z" fill="url(#paint1_linear_5481_99425)"/>
<path d="M19.1263 47.5712C20.4697 19.9096 45.3466 -1.48801 74.6904 -0.2216C104.034 1.04481 126.733 24.4957 125.39 52.1573C124.046 79.819 99.1692 101.217 69.8254 99.9501C40.4816 98.6837 17.7828 75.2329 19.1263 47.5712Z" fill="url(#paint2_linear_5481_99425)"/>
<path d="M-24.0436 65.8101C-12.3794 61.1193 0.200335 61.3204 11.0991 65.4234C32.9077 73.6539 45.5974 68.5652 54.3988 48.0538C58.7829 37.7613 67.3422 29.0445 79.0195 24.3484C102.367 14.9739 129.32 25.1459 139.25 47.0895C149.181 69.0331 138.311 94.4012 114.97 103.788C103.267 108.495 90.6626 108.274 79.7472 104.134C57.9739 95.9477 45.3084 101.056 36.5181 121.592C32.1229 131.86 23.5655 140.547 11.9013 145.237C-11.4271 154.619 -38.3803 144.447 -48.3053 122.516C-58.2303 100.584 -47.372 75.1917 -24.0436 65.8101Z" fill="url(#paint3_linear_5481_99425)"/>
<ellipse cx="34.1954" cy="32.2352" rx="34.1954" ry="32.2352" transform="matrix(0.999999 -0.00131734 0.00148243 0.999999 47.5781 -6.41113)" fill="url(#paint4_radial_5481_99425)"/>
</g>
</g>

</svg>
