<svg width="160" height="160" viewBox="0 0 160 160" xmlns="http://www.w3.org/2000/svg">
  <defs>
<radialGradient id="paint0_radial_5481_89879" cx="0" cy="0" r="1" gradientUnits="userSpaceOnUse" gradientTransform="translate(61.7778 58.2973) rotate(90) scale(58.2973 61.7778)">
<stop offset="0.166667" stop-color="#FF709F"/>
<stop offset="1" stop-color="#FF709F" stop-opacity="0"/>
</radialGradient>
<linearGradient id="paint1_linear_5481_89879" x1="-28.6878" y1="137.748" x2="194.754" y2="-6.30791" gradientUnits="userSpaceOnUse">
<stop offset="0.0598452" stop-color="#8480FE"/>
<stop offset="0.599632" stop-color="#8480FE" stop-opacity="0"/>
</linearGradient>
<linearGradient id="paint2_linear_5481_89879" x1="156.584" y1="42.6822" x2="63.6701" y2="148.555" gradientUnits="userSpaceOnUse">
<stop stop-color="#EB1000"/>
<stop offset="1" stop-color="#EB1000" stop-opacity="0"/>
</linearGradient>
<linearGradient id="paint3_linear_5481_89879" x1="36.2219" y1="157.049" x2="206.784" y2="55.798" gradientUnits="userSpaceOnUse">
<stop stop-color="#FC7D00" stop-opacity="0"/>
<stop offset="0.432292" stop-color="#FC7D00"/>
<stop offset="0.609375" stop-color="#FC7D00"/>
<stop offset="1" stop-color="#FC7D00" stop-opacity="0"/>
</linearGradient>
<radialGradient id="paint4_radial_5481_89879" cx="0" cy="0" r="1" gradientUnits="userSpaceOnUse" gradientTransform="translate(61.7778 58.2973) rotate(90) scale(58.2973 61.7778)">
<stop offset="0.166667" stop-color="#EB1000"/>
<stop offset="1" stop-color="#EB1000" stop-opacity="0"/>
</radialGradient>
<clipPath id="clip0_5481_89879">
<rect x="7" y="18" width="142" height="134" rx="3.46124" fill="white"/>
</clipPath>
</defs>
<clipPath id="mask0_5481_89879">
<path fill-rule="evenodd" d="M35.75 27.9297H83.82C92.66 27.9297 99.82 35.0897 99.82 43.9297V132.06H73.83V111.48C73.83 107.06 70.25 103.48 65.83 103.48H53.74C49.32 103.48 45.74 107.06 45.74 111.48V132.06H19.75V43.9297C19.75 35.0897 26.91 27.9297 35.75 27.9297ZM48.54 84.4897C50.75 84.4897 52.54 82.6997 52.54 80.4897V74.7297C52.54 72.5197 50.75 70.7297 48.54 70.7297H42.78C40.57 70.7297 38.78 72.5197 38.78 74.7297V80.4897C38.78 82.6997 40.57 84.4897 42.78 84.4897H48.54ZM48.54 56.4297C50.75 56.4297 52.54 54.6397 52.54 52.4297V46.6697C52.54 44.4597 50.75 42.6697 48.54 42.6697H42.78C40.57 42.6697 38.78 44.4597 38.78 46.6697V52.4297C38.78 54.6397 40.57 56.4297 42.78 56.4297H48.54ZM76.8 84.4897C79.01 84.4897 80.8 82.6997 80.8 80.4897V74.7297C80.8 72.5197 79.01 70.7297 76.8 70.7297H71.04C68.83 70.7297 67.04 72.5197 67.04 74.7297V80.4897C67.04 82.6997 68.83 84.4897 71.04 84.4897H76.8ZM76.8 56.4297C79.01 56.4297 80.8 54.6397 80.8 52.4297V46.6697C80.8 44.4597 79.01 42.6697 76.8 42.6697H71.04C68.83 42.6697 67.04 44.4597 67.04 46.6697V52.4297C67.04 54.6397 68.83 56.4297 71.04 56.4297H76.8ZM124.24 49.5597C133.08 49.5597 140.24 56.7197 140.24 65.5597V132.06H107.83V49.5597H124.24ZM122.91 111.72C125.12 111.72 126.91 109.93 126.91 107.72V101.96C126.91 99.7497 125.12 97.9597 122.91 97.9597H117.15C114.94 97.9597 113.15 99.7497 113.15 101.96V107.72C113.15 109.93 114.94 111.72 117.15 111.72H122.91ZM122.91 83.6597C125.12 83.6597 126.91 81.8697 126.91 79.6597V73.8997C126.91 71.6897 125.12 69.8997 122.91 69.8997H117.15C114.94 69.8997 113.15 71.6897 113.15 73.8997V79.6597C113.15 81.8697 114.94 83.6597 117.15 83.6597H122.91Z" fill="white"/>
</clipPath>
<g clip-path="url(#mask0_5481_89879)">
<g clip-path="url(#clip0_5481_89879)">
<rect x="7" y="18" width="142" height="134" rx="3.46124" fill="#FFECCF"/>
<rect width="142" height="134" transform="translate(7 18)" fill="#FFECCF"/>
<ellipse cx="61.7778" cy="58.2973" rx="61.7778" ry="58.2973" transform="matrix(0.999999 -0.00131872 0.00148088 0.999999 25.4258 -35.0186)" fill="url(#paint0_radial_5481_89879)"/>
<path d="M61.1969 -5.6702C50.2914 -12.0383 36.4742 -12.0773 25.5282 -5.77087L-83.9515 57.308C-94.6737 63.4859 -94.6916 78.0681 -83.984 84.2693L24.7724 147.259C35.702 153.588 49.5192 153.58 60.4394 147.236L168.972 84.1878C179.623 77.9998 179.642 63.4992 169.004 57.2878L61.1969 -5.6702Z" fill="url(#paint1_linear_5481_89879)"/>
<path d="M27.4652 81.6199C29.8922 31.5937 74.8351 -7.10384 127.848 -4.81353C180.861 -2.52322 221.868 39.8877 219.441 89.9138C217.014 139.94 172.072 178.637 119.059 176.347C66.046 174.057 25.0381 131.646 27.4652 81.6199Z" fill="url(#paint2_linear_5481_89879)"/>
<path d="M-50.5319 114.605C-29.4593 106.122 -6.73264 106.486 12.9571 113.906C52.3567 128.791 75.2821 119.588 91.1829 82.493C99.1031 63.8789 114.567 48.1146 135.663 39.6218C177.842 22.6679 226.536 41.064 244.476 80.7491C262.417 120.434 242.78 166.312 200.611 183.288C179.468 191.8 156.697 191.402 136.977 183.915C97.6417 169.109 74.76 178.347 58.8794 215.486C50.939 234.056 35.4791 249.766 14.4065 258.25C-27.7389 275.216 -76.4327 256.82 -94.3634 217.157C-112.294 177.494 -92.6773 131.572 -50.5319 114.605Z" fill="url(#paint3_linear_5481_89879)"/>
<ellipse cx="61.7778" cy="58.2973" rx="61.7778" ry="58.2973" transform="matrix(0.999999 -0.00131872 0.00148088 0.999999 78.8594 -16.0068)" fill="url(#paint4_radial_5481_89879)"/>
</g>
</g>

</svg>
