<svg width="96" height="96" viewBox="0 0 96 96" xmlns="http://www.w3.org/2000/svg">
  <defs>
<radialGradient id="paint0_radial_5481_99581" cx="0" cy="0" r="1" gradientUnits="userSpaceOnUse" gradientTransform="translate(54.2806 3.72345) rotate(90) scale(41.7653)">
<stop offset="0.166667" stop-color="#FF709F"/>
<stop offset="1" stop-color="#FF709F" stop-opacity="0"/>
</radialGradient>
<linearGradient id="paint1_linear_5481_99581" x1="-24.1244" y1="85.7895" x2="131.953" y2="-9.16689" gradientUnits="userSpaceOnUse">
<stop offset="0.0598452" stop-color="#8480FE"/>
<stop offset="0.599632" stop-color="#8480FE" stop-opacity="0"/>
</linearGradient>
<linearGradient id="paint2_linear_5481_99581" x1="101.128" y1="17.6831" x2="34.1712" y2="89.6803" gradientUnits="userSpaceOnUse">
<stop stop-color="#EB1000"/>
<stop offset="1" stop-color="#EB1000" stop-opacity="0"/>
</linearGradient>
<linearGradient id="paint3_linear_5481_99581" x1="19.7553" y1="99.6167" x2="138.452" y2="33.1246" gradientUnits="userSpaceOnUse">
<stop stop-color="#FC7D00" stop-opacity="0"/>
<stop offset="0.432292" stop-color="#FC7D00"/>
<stop offset="0.609375" stop-color="#FC7D00"/>
<stop offset="1" stop-color="#FC7D00" stop-opacity="0"/>
</linearGradient>
<radialGradient id="paint4_radial_5481_99581" cx="0" cy="0" r="1" gradientUnits="userSpaceOnUse" gradientTransform="translate(90.4056 17.3436) rotate(90) scale(41.7653)">
<stop offset="0.166667" stop-color="#EB1000"/>
<stop offset="1" stop-color="#EB1000" stop-opacity="0"/>
</radialGradient>
<clipPath id="clip0_5481_99581">
<rect width="96" height="96" rx="5.125" fill="white"/>
</clipPath>
</defs>
<clipPath id="mask0_5481_99581">
<path fill-rule="evenodd" d="M48 81C66.2254 81 81 66.2254 81 48C81 29.7746 66.2254 15 48 15C29.7746 15 15 29.7746 15 48C15 66.2254 29.7746 81 48 81ZM53.0004 30.1465C53.0004 32.9079 50.7618 35.1465 48.0004 35.1465C45.2389 35.1465 43.0004 32.9079 43.0004 30.1465C43.0004 27.3851 45.2389 25.1465 48.0004 25.1465C50.7618 25.1465 53.0004 27.3851 53.0004 30.1465ZM30.9624 37.2628C31.2663 36.2009 32.3735 35.5863 33.4354 35.8902C42.8315 38.5786 52.7883 38.6135 62.203 35.991L62.5788 35.8864C63.6428 35.59 64.7457 36.2123 65.0421 37.2763C65.3385 38.3404 64.7162 39.4433 63.6521 39.7397L63.2763 39.8443C60.5141 40.6138 57.7085 41.1705 54.8836 41.5147C53.8556 41.6399 53.0645 42.5004 53.0645 43.536V51.441C53.0645 51.6258 53.0901 51.8097 53.1406 51.9875C53.9412 54.8069 54.855 58.0364 55.6562 60.8745C56.232 62.9141 56.7499 64.7524 57.126 66.0919C57.3141 66.7614 57.467 67.3073 57.5741 67.6917L57.5985 67.7792L57.5985 67.7793C57.6768 68.06 57.7587 68.3535 57.7801 68.4605C57.9967 69.5436 57.2943 70.5972 56.2112 70.8139C55.1281 71.0305 54.0744 70.328 53.8578 69.2449C53.8684 69.2979 53.8598 69.2669 53.8095 69.0849L53.8094 69.0846L53.8094 69.0845L53.8088 69.0823C53.7875 69.0051 53.7587 68.9011 53.7209 68.7654C53.6149 68.3849 53.4628 67.8421 53.275 67.1734C52.8995 65.8363 52.3822 63.9999 51.8067 61.9612C51.1497 59.634 50.4172 57.0444 49.7338 54.6345C49.5139 53.8591 48.8059 53.3242 48 53.3242C47.1941 53.3242 46.4861 53.8591 46.2662 54.6345C45.5828 57.0444 44.8503 59.634 44.1933 61.9612C43.6178 63.9999 43.1005 65.8363 42.725 67.1734C42.5372 67.8421 42.3851 68.3849 42.2791 68.7654C42.2556 68.8496 42.2357 68.9216 42.2188 68.9826C42.2082 69.0208 42.1989 69.0547 42.1906 69.0845L42.1906 69.0846L42.1905 69.0849C42.1402 69.2669 42.1316 69.2979 42.1422 69.2449C41.9256 70.328 40.8719 71.0305 39.7888 70.8139C38.7057 70.5972 38.0033 69.5436 38.2199 68.4605C38.2413 68.3535 38.3232 68.0599 38.4015 67.7792L38.4259 67.6917C38.533 67.3073 38.6859 66.7614 38.874 66.0919C39.2501 64.7524 39.768 62.9141 40.3438 60.8745C41.145 58.0364 42.0588 54.8069 42.8594 51.9875C42.9099 51.8097 42.9355 51.6258 42.9355 51.441V43.5365C42.9355 42.5008 42.1444 41.6403 41.1163 41.5152C38.1584 41.155 35.2222 40.5619 32.3351 39.7359C31.2732 39.432 30.6586 38.3248 30.9624 37.2628Z" fill="white"/>
</clipPath>
<g clip-path="url(#mask0_5481_99581)">
<g clip-path="url(#clip0_5481_99581)">
<rect width="96" height="96" rx="5.125" fill="#FFECCF"/>
<rect width="96" height="96" fill="#FFECCF"/>
<circle cx="54.2806" cy="3.72345" r="41.7653" transform="rotate(-0.0800682 54.2806 3.72345)" fill="url(#paint0_radial_5481_99581)"/>
<path d="M36.6427 -16.9581C29.27 -21.5204 19.9288 -21.5483 12.5287 -17.0303L-61.4858 28.1606C-68.7346 32.5865 -68.7467 43.0335 -61.5078 47.4761L12.0177 92.6029C19.4067 97.1373 28.7479 97.1319 36.1306 92.5868L109.505 47.4178C116.705 42.9845 116.718 32.596 109.526 28.1461L36.6427 -16.9581Z" fill="url(#paint1_linear_5481_99581)"/>
<path d="M13.8365 45.5788C15.4774 9.73912 45.8613 -17.9845 81.7009 -16.3437C117.541 -14.7029 145.264 15.6811 143.623 51.5207C141.982 87.3603 111.599 115.084 75.759 113.443C39.9193 111.802 12.1957 81.4184 13.8365 45.5788Z" fill="url(#paint2_linear_5481_99581)"/>
<path d="M-38.8952 69.2093C-24.6489 63.1318 -9.28437 63.3923 4.02702 68.7083C30.6634 79.3721 46.1622 72.779 56.9121 46.2036C62.2666 32.8681 72.7207 21.5742 86.983 15.4898C115.498 3.34376 148.418 16.5231 160.547 44.9542C172.676 73.3853 159.4 106.253 130.892 118.415C116.598 124.513 101.204 124.228 87.8718 118.864C61.2786 108.257 45.8093 114.875 35.073 141.482C29.7049 154.786 19.2532 166.041 5.00686 172.119C-23.4858 184.274 -56.4056 171.095 -68.5277 142.679C-80.6499 114.264 -67.3878 81.3645 -38.8952 69.2093Z" fill="url(#paint3_linear_5481_99581)"/>
<circle cx="90.4056" cy="17.3436" r="41.7653" transform="rotate(-0.0800682 90.4056 17.3436)" fill="url(#paint4_radial_5481_99581)"/>
</g>
</g>

</svg>
