<svg width="96" height="96" viewBox="0 0 96 96" xmlns="http://www.w3.org/2000/svg">
  <defs>
<radialGradient id="paint0_radial_5481_99635" cx="0" cy="0" r="1" gradientUnits="userSpaceOnUse" gradientTransform="translate(54.2806 3.72345) rotate(90) scale(41.7653)">
<stop offset="0.166667" stop-color="#FF709F"/>
<stop offset="1" stop-color="#FF709F" stop-opacity="0"/>
</radialGradient>
<linearGradient id="paint1_linear_5481_99635" x1="-24.1244" y1="85.7895" x2="131.953" y2="-9.16689" gradientUnits="userSpaceOnUse">
<stop offset="0.0598452" stop-color="#8480FE"/>
<stop offset="0.599632" stop-color="#8480FE" stop-opacity="0"/>
</linearGradient>
<linearGradient id="paint2_linear_5481_99635" x1="101.128" y1="17.6831" x2="34.1712" y2="89.6803" gradientUnits="userSpaceOnUse">
<stop stop-color="#EB1000"/>
<stop offset="1" stop-color="#EB1000" stop-opacity="0"/>
</linearGradient>
<linearGradient id="paint3_linear_5481_99635" x1="19.7553" y1="99.6167" x2="138.452" y2="33.1246" gradientUnits="userSpaceOnUse">
<stop stop-color="#FC7D00" stop-opacity="0"/>
<stop offset="0.432292" stop-color="#FC7D00"/>
<stop offset="0.609375" stop-color="#FC7D00"/>
<stop offset="1" stop-color="#FC7D00" stop-opacity="0"/>
</linearGradient>
<radialGradient id="paint4_radial_5481_99635" cx="0" cy="0" r="1" gradientUnits="userSpaceOnUse" gradientTransform="translate(90.4056 17.3436) rotate(90) scale(41.7653)">
<stop offset="0.166667" stop-color="#EB1000"/>
<stop offset="1" stop-color="#EB1000" stop-opacity="0"/>
</radialGradient>
<clipPath id="clip0_5481_99635">
<rect width="96" height="96" rx="5.125" fill="white"/>
</clipPath>
</defs>
<clipPath id="mask0_5481_99635">
<path fill-rule="evenodd" d="M23.4844 16.2188C24.5889 16.2188 25.4844 17.1142 25.4844 18.2187V22.043H66.6562C69.97 22.043 72.6562 24.7293 72.6562 28.043V54.001C72.6562 57.3147 69.97 60.001 66.6562 60.001H25.4844L25.4844 77.7812C25.4844 78.8858 24.5889 79.7812 23.4844 79.7812C22.3798 79.7812 21.4844 78.8858 21.4844 77.7812L21.4844 18.2188C21.4844 17.1142 22.3798 16.2188 23.4844 16.2188ZM60.5728 36.5211C61.3892 35.7771 61.4478 34.5121 60.7037 33.6957C59.9597 32.8794 58.6947 32.8208 57.8783 33.5648L57.8158 33.6218L57.6787 33.7468L57.472 33.9351L57.4569 33.9489L57.4416 33.9629L57.4101 33.9916L57.3442 34.0516L57.2745 34.1152L57.2009 34.1823L57.1627 34.2171L57.1236 34.2527L57.0427 34.3264L56.9582 34.4034L56.9365 34.4232L56.9147 34.4431L56.8926 34.4633L56.8702 34.4836L56.7789 34.5669L56.7555 34.5882L56.7319 34.6097L56.7082 34.6313L56.6842 34.6532L56.6356 34.6975L56.5862 34.7425L56.4851 34.8346L56.3809 34.9296L56.2737 35.0273L56.0506 35.2307L55.993 35.2832L55.9348 35.3362L55.8163 35.4442L55.5715 35.6673L54.5003 36.6437L54.2126 36.9059L53.9181 37.1743L53.6175 37.4482L53.4652 37.5871L53.3115 37.7271L53.1567 37.8683L53.1178 37.9037L53.0788 37.9392L53.0007 38.0104L52.9223 38.0819L52.8437 38.1536L52.8042 38.1895L52.7648 38.2255L52.7252 38.2615L52.6856 38.2976L52.0454 38.8811L51.9646 38.9547L51.8837 39.0285L51.8432 39.0654L51.8027 39.1024L51.7621 39.1393L51.7215 39.1763L51.5589 39.3246L51.3959 39.4731L51.3143 39.5475L51.2327 39.6219L51.1918 39.6591L51.151 39.6963L51.0692 39.7708L50.9875 39.8454L50.9466 39.8826L50.9057 39.9199L50.7421 40.069L50.5786 40.218L50.5377 40.2553L50.4968 40.2925L50.4152 40.367L50.3335 40.4414L50.252 40.5157L50.089 40.6642L50.0077 40.7383L49.9265 40.8124L49.7644 40.9601L49.7239 40.997L49.6835 41.0338L49.6431 41.0707L49.6027 41.1074L49.5222 41.1809L49.4819 41.2175L49.4417 41.2542L49.3615 41.3273L49.2814 41.4003L49.2414 41.4367L49.2015 41.4731L49.1616 41.5095L49.1218 41.5458L49.0423 41.6182L49.0027 41.6544L48.9631 41.6905L48.8052 41.8343L48.1845 42.4001L48.1082 42.4696L48.0702 42.5042L48.0323 42.5387L47.9945 42.5732L47.9568 42.6076L47.9191 42.6419L47.8816 42.6761L47.8068 42.7443L47.7323 42.8122L47.6952 42.846L47.6582 42.8797L47.5845 42.9469L47.4384 43.0801L47.366 43.1461L47.294 43.2117L47.0105 43.4701L46.7347 43.7215L46.667 43.7831L46.6334 43.8138L46.5999 43.8443L46.4672 43.9652L46.4344 43.9951L46.4017 44.0249L46.3368 44.0841L46.2725 44.1427L46.2406 44.1718L46.2088 44.2008L45.9599 44.4276L45.7212 44.6452L45.6921 44.6717L45.6632 44.698L45.6345 44.7242L45.6059 44.7502L45.4934 44.8528L45.4382 44.9031L45.3838 44.9527L45.2771 45.05L45.2509 45.0738L45.2249 45.0976L45.199 45.1211L45.1734 45.1444L45.1575 45.159L39.6238 39.9984C38.816 39.2451 37.5504 39.2892 36.7971 40.097C36.0438 40.9048 36.0879 42.1704 36.8957 42.9237L43.7779 49.3419C44.5397 50.0523 45.7193 50.059 46.4892 49.3573L45.142 47.8792C46.4892 49.3573 46.4892 49.3573 46.4893 49.3572L46.4898 49.3568L46.4906 49.356L46.4917 49.355L46.4992 49.3482L46.5289 49.3212L46.6446 49.2157L46.6848 49.1791L46.7294 49.1384L46.8313 49.0455L46.8594 49.0199L46.8738 49.0068L46.8885 48.9934L46.9186 48.966L46.934 48.9519L46.9497 48.9376L47.084 48.8152L47.1569 48.7488L47.2335 48.6789L47.3977 48.5293L47.4409 48.4899L47.4629 48.4699L47.4851 48.4497L47.5074 48.4293L47.53 48.4087L47.5758 48.367L47.6699 48.2812L47.7673 48.1924L48.1879 47.8091L48.2157 47.7837L48.2438 47.7582L48.3004 47.7066L48.4157 47.6015L48.4744 47.548L48.5337 47.4939L48.5636 47.4667L48.5937 47.4392L48.6543 47.384L48.7156 47.3281L48.7775 47.2717L48.8087 47.2432L48.8401 47.2147L48.8716 47.186L48.9032 47.1571L48.935 47.1281L48.967 47.099L49.0313 47.0404L49.0637 47.0109L49.0962 46.9812L49.1289 46.9514L49.1617 46.9215L49.2943 46.8006L49.4291 46.6778L49.566 46.553L49.7049 46.4264L49.8458 46.2981L49.9169 46.2333L49.9526 46.2007L49.9884 46.168L50.0604 46.1024L50.0966 46.0694L50.1329 46.0364L50.279 45.9032L50.3158 45.8697L50.3527 45.836L50.4268 45.7685L50.464 45.7346L50.5012 45.7007L50.5761 45.6325L50.6513 45.5639L50.7268 45.4951L50.7647 45.4605L50.8027 45.4259L50.8789 45.3564L51.4997 44.7906L51.539 44.7548L51.5785 44.7188L51.618 44.6828L51.6575 44.6468L51.7368 44.5745L51.7765 44.5383L51.8163 44.5021L52.1362 44.2105L52.7835 43.6205L53.1096 43.3233L53.1505 43.2861L53.1913 43.2488L53.2322 43.2116L53.273 43.1744L53.4366 43.0253L53.5184 42.9508L53.6002 42.8762L53.641 42.8389L53.6819 42.8017L53.7637 42.7272L53.8046 42.6899L53.8454 42.6527L53.8863 42.6154L53.9271 42.5782L53.968 42.541L54.0088 42.5038L54.0904 42.4294L54.1311 42.3923L54.1719 42.3551L54.2126 42.318L54.2533 42.2809L54.294 42.2438L54.3347 42.2067L54.416 42.1326L54.4971 42.0587L54.5377 42.0217L54.5782 41.9848L54.7399 41.8374L54.7802 41.8007L54.8205 41.7639L54.8608 41.7272L54.901 41.6906L54.9412 41.6539L54.9813 41.6174L55.0615 41.5443L55.1015 41.5079L55.1414 41.4714L55.2212 41.3987L55.3008 41.3262L55.3801 41.2539L55.4197 41.2178L55.4592 41.1818L55.4987 41.1458L55.5381 41.1099L55.6168 41.0382L55.6952 40.9668L55.7343 40.9311L55.7733 40.8955L55.8123 40.86L55.8512 40.8246L55.9287 40.7539L55.9674 40.7186L56.006 40.6834L56.1597 40.5434L56.1979 40.5086L56.236 40.4738L56.2741 40.4391L56.312 40.4045L56.3499 40.37L56.3877 40.3356L56.4254 40.3012L56.463 40.2669L56.538 40.1986L56.5753 40.1646L56.6126 40.1306L56.907 39.8622L56.9796 39.7961L57.0158 39.7631L57.0518 39.7303L57.0877 39.6976L57.1235 39.6649L57.1948 39.6L57.4752 39.3444L57.544 39.2816L57.5783 39.2504L57.6124 39.2193L57.6464 39.1883L57.6803 39.1575L57.714 39.1267L57.7476 39.0961L58.266 38.6236L59.1796 37.7909L59.3787 37.6095L59.5647 37.4399L59.6527 37.3598L59.7372 37.2828L59.8181 37.209L59.8954 37.1386L59.9689 37.0715L60.0043 37.0393L60.0216 37.0235L60.0387 37.0079L60.0721 36.9775L60.0885 36.9626L60.1046 36.9479L60.1665 36.8914L60.2782 36.7896L60.3732 36.7031L60.5728 36.5211Z" fill="white"/>
</clipPath>
<g clip-path="url(#mask0_5481_99635)">
<g clip-path="url(#clip0_5481_99635)">
<rect width="96" height="96" rx="5.125" fill="#FFECCF"/>
<rect width="96" height="96" fill="#FFECCF"/>
<circle cx="54.2806" cy="3.72345" r="41.7653" transform="rotate(-0.0800682 54.2806 3.72345)" fill="url(#paint0_radial_5481_99635)"/>
<path d="M36.6427 -16.9581C29.27 -21.5204 19.9288 -21.5483 12.5287 -17.0303L-61.4858 28.1606C-68.7346 32.5865 -68.7467 43.0335 -61.5078 47.4761L12.0177 92.6029C19.4067 97.1373 28.7479 97.1319 36.1306 92.5868L109.505 47.4178C116.705 42.9845 116.718 32.596 109.526 28.1461L36.6427 -16.9581Z" fill="url(#paint1_linear_5481_99635)"/>
<path d="M13.8365 45.5788C15.4774 9.73912 45.8613 -17.9845 81.7009 -16.3437C117.541 -14.7029 145.264 15.6811 143.623 51.5207C141.982 87.3603 111.599 115.084 75.759 113.443C39.9193 111.802 12.1957 81.4184 13.8365 45.5788Z" fill="url(#paint2_linear_5481_99635)"/>
<path d="M-38.8952 69.2093C-24.6489 63.1318 -9.28437 63.3923 4.02702 68.7083C30.6634 79.3721 46.1622 72.779 56.9121 46.2036C62.2666 32.8681 72.7207 21.5742 86.983 15.4898C115.498 3.34376 148.418 16.5231 160.547 44.9542C172.676 73.3853 159.4 106.253 130.892 118.415C116.598 124.513 101.204 124.228 87.8718 118.864C61.2786 108.257 45.8093 114.875 35.073 141.482C29.7049 154.786 19.2532 166.041 5.00686 172.119C-23.4858 184.274 -56.4056 171.095 -68.5277 142.679C-80.6499 114.264 -67.3878 81.3645 -38.8952 69.2093Z" fill="url(#paint3_linear_5481_99635)"/>
<circle cx="90.4056" cy="17.3436" r="41.7653" transform="rotate(-0.0800682 90.4056 17.3436)" fill="url(#paint4_radial_5481_99635)"/>
</g>
</g>

</svg>
