<svg width="160" height="160" viewBox="0 0 160 160" xmlns="http://www.w3.org/2000/svg">
  <defs>
<radialGradient id="paint0_radial_5481_90188" cx="0" cy="0" r="1" gradientUnits="userSpaceOnUse" gradientTransform="translate(90.4677 6.20574) rotate(90) scale(69.6088)">
<stop offset="0.166667" stop-color="#FF709F"/>
<stop offset="1" stop-color="#FF709F" stop-opacity="0"/>
</radialGradient>
<linearGradient id="paint1_linear_5481_90188" x1="-40.2086" y1="142.982" x2="219.921" y2="-15.2781" gradientUnits="userSpaceOnUse">
<stop offset="0.0598452" stop-color="#8480FE"/>
<stop offset="0.599632" stop-color="#8480FE" stop-opacity="0"/>
</linearGradient>
<linearGradient id="paint2_linear_5481_90188" x1="168.544" y1="29.4718" x2="56.9494" y2="149.467" gradientUnits="userSpaceOnUse">
<stop stop-color="#EB1000"/>
<stop offset="1" stop-color="#EB1000" stop-opacity="0"/>
</linearGradient>
<linearGradient id="paint3_linear_5481_90188" x1="32.9255" y1="166.029" x2="230.753" y2="55.2086" gradientUnits="userSpaceOnUse">
<stop stop-color="#FC7D00" stop-opacity="0"/>
<stop offset="0.432292" stop-color="#FC7D00"/>
<stop offset="0.609375" stop-color="#FC7D00"/>
<stop offset="1" stop-color="#FC7D00" stop-opacity="0"/>
</linearGradient>
<radialGradient id="paint4_radial_5481_90188" cx="0" cy="0" r="1" gradientUnits="userSpaceOnUse" gradientTransform="translate(150.675 28.9059) rotate(90) scale(69.6088)">
<stop offset="0.166667" stop-color="#EB1000"/>
<stop offset="1" stop-color="#EB1000" stop-opacity="0"/>
</radialGradient>
<clipPath id="clip0_5481_90188">
<rect width="160" height="160" rx="5.125" fill="white"/>
</clipPath>
</defs>
<clipPath id="mask0_5481_90188">
<path fill-rule="evenodd" d="M129.934 67.6663L148.52 49.0804C150.082 47.5183 150.082 44.9856 148.52 43.4235L129.934 24.8376C128.372 23.2755 125.839 23.2755 124.277 24.8376C122.715 26.3997 122.715 28.9323 124.277 30.4944L135.679 41.8965H128.501C119.772 41.8965 111.718 44.8369 105.291 49.7792C105.193 49.8542 105.1 49.9329 105.012 50.0148C104.969 50.0457 104.927 50.0775 104.885 50.1103C100.15 53.8283 95.7344 59.2319 92.2783 64.1854C88.807 69.1607 86.0903 73.9915 84.8205 76.7939C83.8269 78.9869 81.366 84.1999 78.1097 89.6755C75.3069 94.3887 72.1053 98.9655 68.928 102.052C68.8314 102.125 68.7372 102.203 68.6458 102.286C63.2972 107.146 56.2026 110.103 48.4081 110.103C31.7824 110.103 18.3047 96.6255 18.3047 79.9999C18.3047 63.3742 31.7824 49.8965 48.4081 49.8965C58.5748 49.8965 67.5657 54.9326 73.0223 62.6643L73.0294 62.6743L73.0366 62.6844L75.118 65.5953C76.4029 67.3923 78.9013 67.8075 80.6983 66.5226C82.4953 65.2377 82.9105 62.7393 81.6256 60.9423L79.5512 58.041C72.6591 48.2824 61.2795 41.8965 48.4081 41.8965C27.3642 41.8965 10.3047 58.956 10.3047 79.9999C10.3047 101.044 27.3642 118.103 48.4081 118.103C57.1288 118.103 65.1716 115.169 71.5932 110.24C71.7751 110.138 71.9514 110.02 72.1203 109.887C77.0849 105.972 81.5865 99.4807 84.9858 93.7646C88.4511 87.9372 91.0492 82.4311 92.1074 80.0958C93.1298 77.8393 95.5782 73.4368 98.8392 68.763C102.115 64.0674 106 59.4063 109.825 56.4026C109.911 56.335 109.994 56.2646 110.073 56.1916C110.105 56.1685 110.137 56.1449 110.168 56.1207C115.245 52.2161 121.597 49.8965 128.501 49.8965H136.39L124.277 62.0094C122.715 63.5715 122.715 66.1042 124.277 67.6663C125.839 69.2284 128.372 69.2284 129.934 67.6663ZM137.953 118.103C140.163 118.103 141.953 116.312 141.953 114.103C141.953 111.894 140.163 110.103 137.953 110.103H128.501C118.54 110.103 110.462 104.374 103.388 96.6573L100.671 93.3744C99.2631 91.6724 96.7416 91.4344 95.0396 92.8427C93.3376 94.2511 93.0995 96.7725 94.5079 98.4745L97.2883 101.835L97.3514 101.911L97.4182 101.984C105.047 110.326 115.138 118.103 128.501 118.103H137.953Z" fill="white"/>
</clipPath>
<g clip-path="url(#mask0_5481_90188)">
<g clip-path="url(#clip0_5481_90188)">
<rect width="160" height="160" rx="5.125" fill="#FFECCF"/>
<rect width="160" height="160" fill="#FFECCF"/>
<circle cx="90.4677" cy="6.20574" r="69.6087" transform="rotate(-0.0800682 90.4677 6.20574)" fill="url(#paint0_radial_5481_90188)"/>
<path d="M61.0698 -28.2636C48.782 -35.8673 33.2133 -35.9139 20.8798 -28.3838L-102.478 46.9343C-114.559 54.3109 -114.579 71.7224 -102.514 79.1269L20.0281 154.338C32.3432 161.895 47.9119 161.887 60.2163 154.311L182.506 79.0296C194.507 71.6409 194.529 54.3267 182.543 46.9101L61.0698 -28.2636Z" fill="url(#paint1_linear_5481_90188)"/>
<path d="M23.0583 75.9646C25.793 16.2319 76.4328 -29.9741 136.166 -27.2395C195.898 -24.5048 242.104 26.1351 239.37 85.8678C236.635 145.601 185.995 191.807 126.262 189.072C66.5296 186.337 20.3236 135.697 23.0583 75.9646Z" fill="url(#paint2_linear_5481_90188)"/>
<path d="M-64.8253 115.35C-41.0814 105.221 -15.474 105.655 6.71169 114.515C51.1056 132.288 76.9371 121.299 94.8534 77.0069C103.778 54.7811 121.201 35.958 144.972 25.8174C192.497 5.57391 247.364 27.5395 267.579 74.9246C287.793 122.31 265.667 177.09 218.153 197.36C194.329 207.523 168.673 207.047 146.453 198.107C102.131 180.429 76.3488 191.459 58.4551 235.805C49.5082 257.978 32.0886 276.736 8.34476 286.866C-39.1429 307.124 -94.0093 285.159 -114.213 237.8C-134.416 190.441 -112.313 135.609 -64.8253 115.35Z" fill="url(#paint3_linear_5481_90188)"/>
<circle cx="150.675" cy="28.9059" r="69.6087" transform="rotate(-0.0800682 150.675 28.9059)" fill="url(#paint4_radial_5481_90188)"/>
</g>
</g>

</svg>
