<svg width="48" height="48" viewBox="0 0 48 48" xmlns="http://www.w3.org/2000/svg">
  <defs>
<radialGradient id="paint0_radial_5481_99417" cx="0" cy="0" r="1" gradientUnits="userSpaceOnUse" gradientTransform="translate(17.0977 16.1176) rotate(90) scale(16.1176 17.0977)">
<stop offset="0.166667" stop-color="#FF709F"/>
<stop offset="1" stop-color="#FF709F" stop-opacity="0"/>
</radialGradient>
<linearGradient id="paint1_linear_5481_99417" x1="-5.97653" y1="39.3034" x2="55.8257" y2="-0.582971" gradientUnits="userSpaceOnUse">
<stop offset="0.0598452" stop-color="#8480FE"/>
<stop offset="0.599632" stop-color="#8480FE" stop-opacity="0"/>
</linearGradient>
<linearGradient id="paint2_linear_5481_99417" x1="45.2963" y1="13.0199" x2="19.6117" y2="42.3174" gradientUnits="userSpaceOnUse">
<stop stop-color="#EB1000"/>
<stop offset="1" stop-color="#EB1000" stop-opacity="0"/>
</linearGradient>
<linearGradient id="paint3_linear_5481_99417" x1="11.9864" y1="44.6395" x2="59.1656" y2="16.6031" gradientUnits="userSpaceOnUse">
<stop stop-color="#FC7D00" stop-opacity="0"/>
<stop offset="0.432292" stop-color="#FC7D00"/>
<stop offset="0.609375" stop-color="#FC7D00"/>
<stop offset="1" stop-color="#FC7D00" stop-opacity="0"/>
</linearGradient>
<radialGradient id="paint4_radial_5481_99417" cx="0" cy="0" r="1" gradientUnits="userSpaceOnUse" gradientTransform="translate(17.0977 16.1176) rotate(90) scale(16.1176 17.0977)">
<stop offset="0.166667" stop-color="#EB1000"/>
<stop offset="1" stop-color="#EB1000" stop-opacity="0"/>
</radialGradient>
<clipPath id="clip0_5481_99417">
<rect x="3.89844" y="6.19629" width="39.3001" height="37.0472" rx="1.03837" fill="white"/>
</clipPath>
</defs>
<clipPath id="mask0_5481_99417">
<path fill-rule="evenodd" d="M25.2004 8.98452C25.2004 9.64752 24.6634 10.1845 24.0004 10.1845C23.3374 10.1845 22.8004 9.64752 22.8004 8.98452V7.17852C22.8004 6.51552 23.3374 5.97852 24.0004 5.97852C24.6634 5.97852 25.2004 6.51552 25.2004 7.17852V8.98452ZM23.3405 13.1035C18.8855 13.4215 15.2795 17.0545 14.9495 21.5515C14.7065 24.8935 16.2335 27.8875 18.6845 29.6785C19.4795 30.2605 19.9655 31.1815 19.9655 32.1745V34.1995H27.9245C27.9461 34.1995 27.9677 34.2028 27.9893 34.206L27.9894 34.206C28.0038 34.2082 28.0181 34.2103 28.0325 34.2115V32.1775C28.0325 31.2085 28.4765 30.2845 29.2565 29.7205C31.5665 28.0585 33.0725 25.3315 33.0725 22.2475C33.0725 16.9615 28.6475 12.7225 23.3375 13.1005L23.3405 13.1035ZM29.1515 22.3735C28.4885 22.3735 27.9515 21.8365 27.9515 21.1735C27.9515 19.6705 26.6195 18.4495 24.9815 18.4495C24.3185 18.4495 23.7815 17.9125 23.7815 17.2495C23.7815 16.5865 24.3185 16.0495 24.9815 16.0495C27.9425 16.0495 30.3515 18.3475 30.3515 21.1735C30.3515 21.8365 29.8145 22.3735 29.1515 22.3735ZM19.9686 36.5995V38.0395C19.9686 38.8825 20.6466 39.5665 21.4806 39.5665H26.5236C27.3576 39.5665 28.0356 38.8825 28.0356 38.0395V36.5875C28.0212 36.5887 28.0068 36.5909 27.9924 36.593L27.9924 36.593C27.9708 36.5963 27.9492 36.5995 27.9276 36.5995H19.9686ZM8.98516 20.9935H10.7912C11.4542 20.9935 11.9912 21.5305 11.9912 22.1935C11.9912 22.8565 11.4542 23.3935 10.7912 23.3935H8.98516C8.32216 23.3935 7.78516 22.8565 7.78516 22.1935C7.78516 21.5305 8.32216 20.9935 8.98516 20.9935ZM39.0122 20.9935H37.2063C36.5433 20.9935 36.0063 21.5305 36.0063 22.1935C36.0063 22.8565 36.5433 23.3935 37.2063 23.3935H39.0122C39.6752 23.3935 40.2122 22.8565 40.2122 22.1935C40.2122 21.5305 39.6752 20.9935 39.0122 20.9935ZM33.7686 10.7275L32.4936 12.0025C32.0256 12.4705 32.0256 13.2295 32.4936 13.7005C32.7276 13.9345 33.0336 14.0515 33.3426 14.0515C33.6516 14.0515 33.9576 13.9345 34.1916 13.7005L35.4666 12.4255C35.9346 11.9575 35.9346 11.1985 35.4666 10.7275C34.9986 10.2595 34.2396 10.2595 33.7686 10.7275ZM14.2351 10.7305L15.5101 12.0055C15.9781 12.4765 15.9781 13.2355 15.5101 13.7035C15.2761 13.9375 14.9701 14.0545 14.6611 14.0545C14.3521 14.0545 14.0461 13.9375 13.8121 13.7035L12.5371 12.4285C12.0691 11.9575 12.0691 11.1985 12.5371 10.7305C13.0081 10.2625 13.7671 10.2625 14.2351 10.7305Z" fill="white"/>
</clipPath>
<g clip-path="url(#mask0_5481_99417)">
<g clip-path="url(#clip0_5481_99417)">
<rect x="3.89844" y="6.19629" width="39.3001" height="37.0472" rx="1.03837" fill="#FFECCF"/>
<rect width="39.3001" height="37.0472" transform="translate(3.89844 6.19629)" fill="#FFECCF"/>
<ellipse cx="17.0977" cy="16.1176" rx="17.0977" ry="16.1176" transform="matrix(0.999999 -0.00131734 0.00148243 0.999999 9 -8.46191)" fill="url(#paint0_radial_5481_99417)"/>
<path d="M18.9001 -0.347766C15.8819 -2.10837 12.0578 -2.11915 9.02836 -0.3756L-21.2714 17.064C-24.2389 18.772 -24.2438 22.8035 -21.2804 24.518L8.81916 41.9328C11.8441 43.6827 15.6681 43.6806 18.6904 41.9266L48.728 24.4955C51.6757 22.7847 51.6811 18.7756 48.737 17.0584L18.9001 -0.347766Z" fill="url(#paint1_linear_5481_99417)"/>
<path d="M9.56118 23.7851C10.2329 9.95429 22.6713 -0.744495 37.3432 -0.111288C52.0151 0.521918 63.3645 12.2473 62.6928 26.0782C62.0211 39.909 49.5826 50.6078 34.9107 49.9746C20.2389 49.3414 8.88946 37.616 9.56118 23.7851Z" fill="url(#paint2_linear_5481_99417)"/>
<path d="M-12.0237 32.905C-6.19164 30.5596 0.0982146 30.6602 5.54758 32.7117C16.4519 36.8269 22.7967 34.2826 27.1975 24.0269C29.3895 18.8806 33.6692 14.5222 39.5078 12.1742C51.1813 7.48693 64.6579 12.5729 69.6232 23.5448C74.5885 34.5166 69.1538 47.2006 57.483 51.894C51.6313 54.2473 45.3293 54.1371 39.8716 52.0671C28.985 47.9739 22.6522 50.5279 18.2571 60.7958C16.0595 65.9298 11.7808 70.2733 5.9487 72.6187C-5.7155 77.3095 -19.1921 72.2235 -24.1546 61.2578C-29.1171 50.2921 -23.6879 37.5958 -12.0237 32.905Z" fill="url(#paint3_linear_5481_99417)"/>
<ellipse cx="17.0977" cy="16.1176" rx="17.0977" ry="16.1176" transform="matrix(0.999999 -0.00131734 0.00148243 0.999999 23.7852 -3.20605)" fill="url(#paint4_radial_5481_99417)"/>
</g>
</g>

</svg>
