<svg width="160" height="160" viewBox="0 0 160 160" xmlns="http://www.w3.org/2000/svg">
  <defs>
<radialGradient id="paint0_radial_5481_90159" cx="0" cy="0" r="1" gradientUnits="userSpaceOnUse" gradientTransform="translate(90.4677 6.20574) rotate(90) scale(69.6088)">
<stop offset="0.166667" stop-color="#FF709F"/>
<stop offset="1" stop-color="#FF709F" stop-opacity="0"/>
</radialGradient>
<linearGradient id="paint1_linear_5481_90159" x1="-40.2086" y1="142.983" x2="219.921" y2="-15.2772" gradientUnits="userSpaceOnUse">
<stop offset="0.0598452" stop-color="#8480FE"/>
<stop offset="0.599632" stop-color="#8480FE" stop-opacity="0"/>
</linearGradient>
<linearGradient id="paint2_linear_5481_90159" x1="168.544" y1="29.4718" x2="56.9494" y2="149.467" gradientUnits="userSpaceOnUse">
<stop stop-color="#EB1000"/>
<stop offset="1" stop-color="#EB1000" stop-opacity="0"/>
</linearGradient>
<linearGradient id="paint3_linear_5481_90159" x1="32.9255" y1="166.029" x2="230.753" y2="55.2086" gradientUnits="userSpaceOnUse">
<stop stop-color="#FC7D00" stop-opacity="0"/>
<stop offset="0.432292" stop-color="#FC7D00"/>
<stop offset="0.609375" stop-color="#FC7D00"/>
<stop offset="1" stop-color="#FC7D00" stop-opacity="0"/>
</linearGradient>
<radialGradient id="paint4_radial_5481_90159" cx="0" cy="0" r="1" gradientUnits="userSpaceOnUse" gradientTransform="translate(150.675 28.9059) rotate(90) scale(69.6088)">
<stop offset="0.166667" stop-color="#EB1000"/>
<stop offset="1" stop-color="#EB1000" stop-opacity="0"/>
</radialGradient>
<clipPath id="clip0_5481_90159">
<rect width="160" height="160" rx="5.125" fill="white"/>
</clipPath>
</defs>
<clipPath id="mask0_5481_90159">
<path fill-rule="evenodd" d="M112.544 26.7802C112.811 24.5873 114.806 23.0268 116.999 23.2946C128.157 24.6571 138.578 31.0676 144.639 41.5645C150.749 52.1474 151.045 64.4924 146.532 74.8898C145.653 76.9163 143.297 77.8461 141.27 76.9665C139.244 76.087 138.314 73.7311 139.194 71.7047C142.741 63.5319 142.5 53.8597 137.711 45.5645C132.96 37.3364 124.799 32.3065 116.029 31.2356C113.836 30.9678 112.276 28.973 112.544 26.7802ZM111.29 40.7251C111.557 38.5322 113.552 36.9717 115.745 37.2395C122.602 38.0768 129.013 42.018 132.74 48.4734C136.497 54.9818 136.678 62.5747 133.904 68.964C133.025 70.9905 130.669 71.9203 128.642 71.0407C126.616 70.1612 125.686 67.8054 126.566 65.7789C128.373 61.6142 128.248 56.6941 125.812 52.4734C123.394 48.2869 119.244 45.7262 114.775 45.1805C112.582 44.9127 111.022 42.9179 111.29 40.7251ZM18.3933 74.4168C10.7406 78.8351 8.11861 88.6205 12.5369 96.2732L12.9575 97.0018L103.202 44.8619L102.797 44.1612C98.3792 36.5086 88.5937 33.8866 80.9411 38.3048L18.3933 74.4168ZM107.202 51.7901L16.9575 103.93L31.2782 128.734C35.6965 136.387 45.4819 139.009 53.1346 134.591L115.682 98.4786C123.335 94.0603 125.957 84.2748 121.539 76.6222L107.202 51.7901ZM30.4293 108.101C29.3247 106.187 29.98 103.741 31.8932 102.636L64.2734 83.9393C66.1865 82.8347 68.6329 83.49 69.7376 85.4031C70.8423 87.3163 70.1869 89.7627 68.2738 90.8673L35.8935 109.564C33.9804 110.669 31.534 110.014 30.4293 108.101ZM38.9049 114.781C36.9918 115.886 36.3364 118.332 37.4411 120.245C38.5457 122.158 40.9921 122.814 42.9052 121.709L59.0954 112.36C61.0085 111.256 61.6639 108.809 60.5592 106.896C59.4545 104.983 57.0081 104.328 55.095 105.432L38.9049 114.781ZM82.0456 78.3018C80.9409 76.3887 81.5963 73.9423 83.5094 72.8376L98.6899 64.072C100.603 62.9673 103.049 63.6227 104.154 65.5358C105.259 67.4489 104.603 69.8953 102.69 71L87.5097 79.7656C85.5966 80.8702 83.1502 80.2149 82.0456 78.3018Z" fill="white"/>
</clipPath>
<g clip-path="url(#mask0_5481_90159)">
<g clip-path="url(#clip0_5481_90159)">
<rect width="160" height="160" rx="5.125" fill="#FFECCF"/>
<rect width="160" height="160" fill="#FFECCF"/>
<circle cx="90.4677" cy="6.20574" r="69.6087" transform="rotate(-0.0800682 90.4677 6.20574)" fill="url(#paint0_radial_5481_90159)"/>
<path d="M61.0698 -28.2626C48.782 -35.8663 33.2133 -35.9129 20.8798 -28.3828L-102.478 46.9353C-114.559 54.3119 -114.579 71.7234 -102.514 79.1279L20.0281 154.339C32.3432 161.896 47.9119 161.887 60.2163 154.312L182.506 79.0306C194.507 71.6419 194.529 54.3277 182.543 46.9111L61.0698 -28.2626Z" fill="url(#paint1_linear_5481_90159)"/>
<path d="M23.0583 75.9646C25.793 16.2319 76.4328 -29.9741 136.166 -27.2395C195.898 -24.5048 242.104 26.1351 239.37 85.8678C236.635 145.601 185.995 191.807 126.262 189.072C66.5296 186.337 20.3236 135.697 23.0583 75.9646Z" fill="url(#paint2_linear_5481_90159)"/>
<path d="M-64.8253 115.35C-41.0814 105.221 -15.474 105.655 6.71169 114.515C51.1056 132.288 76.9371 121.299 94.8534 77.0069C103.778 54.7811 121.201 35.958 144.972 25.8174C192.497 5.57391 247.364 27.5395 267.579 74.9246C287.793 122.31 265.667 177.09 218.153 197.36C194.329 207.523 168.673 207.047 146.453 198.107C102.131 180.429 76.3488 191.459 58.4551 235.805C49.5082 257.978 32.0886 276.736 8.34476 286.866C-39.1429 307.124 -94.0093 285.159 -114.213 237.8C-134.416 190.441 -112.313 135.609 -64.8253 115.35Z" fill="url(#paint3_linear_5481_90159)"/>
<circle cx="150.675" cy="28.9059" r="69.6087" transform="rotate(-0.0800682 150.675 28.9059)" fill="url(#paint4_radial_5481_90159)"/>
</g>
</g>

</svg>
