<svg width="96" height="96" viewBox="0 0 96 96" xmlns="http://www.w3.org/2000/svg">
  <defs>
<radialGradient id="paint0_radial_5481_99356" cx="0" cy="0" r="1" gradientUnits="userSpaceOnUse" gradientTransform="translate(34.1954 32.2352) rotate(90) scale(32.2352 34.1954)">
<stop offset="0.166667" stop-color="#FF709F"/>
<stop offset="1" stop-color="#FF709F" stop-opacity="0"/>
</radialGradient>
<linearGradient id="paint1_linear_5481_99356" x1="-11.9531" y1="80.1342" x2="111.651" y2="0.361402" gradientUnits="userSpaceOnUse">
<stop offset="0.0598452" stop-color="#8480FE"/>
<stop offset="0.599632" stop-color="#8480FE" stop-opacity="0"/>
</linearGradient>
<linearGradient id="paint2_linear_5481_99356" x1="90.5965" y1="27.5682" x2="39.2273" y2="86.1632" gradientUnits="userSpaceOnUse">
<stop stop-color="#EB1000"/>
<stop offset="1" stop-color="#EB1000" stop-opacity="0"/>
</linearGradient>
<linearGradient id="paint3_linear_5481_99356" x1="23.9766" y1="90.8064" x2="118.335" y2="34.7336" gradientUnits="userSpaceOnUse">
<stop stop-color="#FC7D00" stop-opacity="0"/>
<stop offset="0.432292" stop-color="#FC7D00"/>
<stop offset="0.609375" stop-color="#FC7D00"/>
<stop offset="1" stop-color="#FC7D00" stop-opacity="0"/>
</linearGradient>
<radialGradient id="paint4_radial_5481_99356" cx="0" cy="0" r="1" gradientUnits="userSpaceOnUse" gradientTransform="translate(34.1954 32.2352) rotate(90) scale(32.2352 34.1954)">
<stop offset="0.166667" stop-color="#EB1000"/>
<stop offset="1" stop-color="#EB1000" stop-opacity="0"/>
</radialGradient>
<clipPath id="clip0_5481_99356">
<rect x="7.80078" y="13.9199" width="78.6002" height="74.0945" rx="2.07674" fill="white"/>
</clipPath>
</defs>
<clipPath id="mask0_5481_99356">
<path fill-rule="evenodd" d="M64.2125 52.3322C60.5165 55.8602 55.9385 59.5202 50.2805 63.2462H50.2745C49.8005 63.5582 49.3085 63.8222 48.7985 64.0442C45.2285 65.5922 40.9985 64.8602 38.1725 62.0342L36.0485 59.9102L33.9245 57.7862C31.2485 55.1042 30.4565 51.1742 31.6985 47.7302C31.9565 47.0222 32.2925 46.3322 32.7185 45.6842C35.4125 41.5922 38.0765 38.0702 40.6745 35.0342C55.7765 17.4002 68.8565 16.2602 74.8265 16.9382C77.0345 17.1902 78.7745 18.9362 79.0265 21.1382C79.6565 26.7182 78.7085 38.5022 64.2125 52.3322ZM65.2325 30.7382C63.2465 28.7582 60.0305 28.7582 58.0505 30.7382C56.0705 32.7242 56.0645 35.9402 58.0505 37.9202C60.0365 39.9002 63.2525 39.9062 65.2325 37.9202C67.2125 35.9342 67.2185 32.7182 65.2325 30.7382ZM26.4659 49.1642L20.1779 49.2722V49.2782C16.0919 49.3502 13.7759 44.5982 16.3679 41.4422C23.6939 32.5322 33.5639 29.3582 40.0019 28.6322C36.1199 32.7242 32.3459 37.5362 28.7099 43.0562C27.4739 44.9342 26.7359 47.0342 26.4659 49.1642ZM17.2199 71.1242C16.7519 71.5922 16.1339 71.8262 15.5219 71.8262C14.9039 71.8262 14.2919 71.5922 13.8239 71.1242C12.8879 70.1822 12.8879 68.6642 13.8239 67.7282L20.1239 61.4282C21.0659 60.4922 22.5839 60.4922 23.5199 61.4282C24.4559 62.3702 24.4559 63.8882 23.5199 64.8242L17.2199 71.1242ZM25.62 66.9242C26.562 65.9882 28.08 65.9882 29.016 66.9242C29.952 67.8662 29.952 69.3842 29.016 70.3202L17.016 82.3202C16.548 82.7882 15.936 83.0222 15.318 83.0222C14.7 83.0222 14.088 82.7882 13.62 82.3202C12.684 81.3782 12.684 79.8602 13.62 78.9242L25.62 66.9242ZM31.1524 72.4502L24.5524 79.0502C23.6164 79.9862 23.6164 81.5042 24.5524 82.4462C25.0204 82.9142 25.6324 83.1482 26.2504 83.1482C26.8684 83.1482 27.4804 82.9142 27.9484 82.4462L34.5484 75.8462C35.4844 74.9102 35.4844 73.3922 34.5484 72.4502C33.6124 71.5082 32.0944 71.5142 31.1524 72.4502ZM46.819 69.5162L46.711 75.7802C46.639 79.8902 51.421 82.1702 54.589 79.5542C63.445 72.2462 66.613 62.4242 67.351 55.9922C63.463 59.6642 58.717 63.4382 52.921 67.2542C51.073 68.4722 48.991 69.2342 46.819 69.5162Z" fill="white"/>
</clipPath>
<g clip-path="url(#mask0_5481_99356)">
<g clip-path="url(#clip0_5481_99356)">
<rect x="7.80078" y="13.9199" width="78.6002" height="74.0945" rx="2.07674" fill="#FFECCF"/>
<rect width="78.6002" height="74.0945" transform="translate(7.80078 13.9199)" fill="#FFECCF"/>
<ellipse cx="34.1954" cy="32.2352" rx="34.1954" ry="32.2352" transform="matrix(0.999999 -0.00131734 0.00148243 0.999999 18 -15.3965)" fill="url(#paint0_radial_5481_99356)"/>
<path d="M37.8001 0.831813C31.7637 -2.68939 24.1156 -2.71096 18.0567 0.776144L-42.5428 35.6552C-48.4778 39.0713 -48.4877 47.1344 -42.5608 50.5633L17.6383 85.393C23.6881 88.8927 31.3363 88.8885 37.3808 85.3805L97.4559 50.5183C103.351 47.0966 103.362 39.0786 97.4739 35.6441L37.8001 0.831813Z" fill="url(#paint1_linear_5481_99356)"/>
<path d="M19.1263 49.0986C20.4697 21.4369 45.3466 0.0393309 74.6904 1.30574C104.034 2.57216 126.733 26.023 125.39 53.6847C124.046 81.3463 99.1692 102.744 69.8254 101.477C40.4816 100.211 17.7828 76.7602 19.1263 49.0986Z" fill="url(#paint2_linear_5481_99356)"/>
<path d="M-24.0436 67.3374C-12.3794 62.6466 0.200335 62.8478 11.0991 66.9507C32.9077 75.1812 45.5974 70.0925 54.3988 49.5812C58.7829 39.2886 67.3422 30.5718 79.0195 25.8758C102.367 16.5012 129.32 26.6732 139.25 48.6169C149.181 70.5605 138.311 95.9285 114.97 105.315C103.267 110.022 90.6626 109.801 79.7472 105.662C57.9739 97.4751 45.3084 102.583 36.5181 123.119C32.1229 133.387 23.5655 142.074 11.9013 146.765C-11.4271 156.146 -38.3803 145.974 -48.3053 124.043C-58.2303 102.112 -47.372 76.719 -24.0436 67.3374Z" fill="url(#paint3_linear_5481_99356)"/>
<ellipse cx="34.1954" cy="32.2352" rx="34.1954" ry="32.2352" transform="matrix(0.999999 -0.00131734 0.00148243 0.999999 47.5781 -4.88379)" fill="url(#paint4_radial_5481_99356)"/>
</g>
</g>

</svg>
