<svg width="160" height="160" viewBox="0 0 160 160" xmlns="http://www.w3.org/2000/svg">
  <defs>
<radialGradient id="paint0_radial_5481_90197" cx="0" cy="0" r="1" gradientUnits="userSpaceOnUse" gradientTransform="translate(90.4677 6.20574) rotate(90) scale(69.6088)">
<stop offset="0.166667" stop-color="#FF709F"/>
<stop offset="1" stop-color="#FF709F" stop-opacity="0"/>
</radialGradient>
<linearGradient id="paint1_linear_5481_90197" x1="-40.2086" y1="142.982" x2="219.921" y2="-15.2781" gradientUnits="userSpaceOnUse">
<stop offset="0.0598452" stop-color="#8480FE"/>
<stop offset="0.599632" stop-color="#8480FE" stop-opacity="0"/>
</linearGradient>
<linearGradient id="paint2_linear_5481_90197" x1="168.544" y1="29.4718" x2="56.9494" y2="149.467" gradientUnits="userSpaceOnUse">
<stop stop-color="#EB1000"/>
<stop offset="1" stop-color="#EB1000" stop-opacity="0"/>
</linearGradient>
<linearGradient id="paint3_linear_5481_90197" x1="32.9255" y1="166.029" x2="230.753" y2="55.2086" gradientUnits="userSpaceOnUse">
<stop stop-color="#FC7D00" stop-opacity="0"/>
<stop offset="0.432292" stop-color="#FC7D00"/>
<stop offset="0.609375" stop-color="#FC7D00"/>
<stop offset="1" stop-color="#FC7D00" stop-opacity="0"/>
</linearGradient>
<radialGradient id="paint4_radial_5481_90197" cx="0" cy="0" r="1" gradientUnits="userSpaceOnUse" gradientTransform="translate(150.675 28.9059) rotate(90) scale(69.6088)">
<stop offset="0.166667" stop-color="#EB1000"/>
<stop offset="1" stop-color="#EB1000" stop-opacity="0"/>
</radialGradient>
<clipPath id="clip0_5481_90197">
<rect width="160" height="160" rx="5.125" fill="white"/>
</clipPath>
</defs>
<clipPath id="mask0_5481_90197">
<path fill-rule="evenodd" d="M100.5 44.6211C100.5 52.8083 95.7005 59.8745 88.7617 63.1597L93.1816 87.1211H113.75C122.587 87.1211 129.75 94.2845 129.75 103.121V107.121C129.75 109.33 127.959 111.121 125.75 111.121H34.25C32.0409 111.121 30.25 109.33 30.25 107.121V103.121C30.25 94.2845 37.4134 87.1211 46.25 87.1211H66.8184L71.2383 63.1597C64.2995 59.8745 59.5 52.8083 59.5 44.6211C59.5 33.2993 68.6782 24.1211 80 24.1211C91.3218 24.1211 100.5 33.2993 100.5 44.6211ZM38.8711 127.879C36.662 127.879 34.8711 129.67 34.8711 131.879C34.8711 134.088 36.662 135.879 38.8711 135.879H121.129C123.338 135.879 125.129 134.088 125.129 131.879C125.129 129.67 123.338 127.879 121.129 127.879H38.8711Z" fill="white"/>
</clipPath>
<g clip-path="url(#mask0_5481_90197)">
<g clip-path="url(#clip0_5481_90197)">
<rect width="160" height="160" rx="5.125" fill="#FFECCF"/>
<rect width="160" height="160" fill="#FFECCF"/>
<circle cx="90.4677" cy="6.20574" r="69.6087" transform="rotate(-0.0800682 90.4677 6.20574)" fill="url(#paint0_radial_5481_90197)"/>
<path d="M61.0698 -28.2636C48.782 -35.8673 33.2133 -35.9139 20.8798 -28.3838L-102.478 46.9343C-114.559 54.3109 -114.579 71.7224 -102.514 79.1269L20.0281 154.338C32.3432 161.895 47.9119 161.887 60.2163 154.311L182.506 79.0296C194.507 71.6409 194.529 54.3267 182.543 46.9101L61.0698 -28.2636Z" fill="url(#paint1_linear_5481_90197)"/>
<path d="M23.0583 75.9646C25.793 16.2319 76.4328 -29.9741 136.166 -27.2395C195.898 -24.5048 242.104 26.1351 239.37 85.8678C236.635 145.601 185.995 191.807 126.262 189.072C66.5296 186.337 20.3236 135.697 23.0583 75.9646Z" fill="url(#paint2_linear_5481_90197)"/>
<path d="M-64.8253 115.35C-41.0814 105.221 -15.474 105.655 6.71169 114.515C51.1056 132.288 76.9371 121.299 94.8534 77.0069C103.778 54.7811 121.201 35.958 144.972 25.8174C192.497 5.57391 247.364 27.5395 267.579 74.9246C287.793 122.31 265.667 177.09 218.153 197.36C194.329 207.523 168.673 207.047 146.453 198.107C102.131 180.429 76.3488 191.459 58.4551 235.805C49.5082 257.978 32.0886 276.736 8.34476 286.866C-39.1429 307.124 -94.0093 285.159 -114.213 237.8C-134.416 190.441 -112.313 135.609 -64.8253 115.35Z" fill="url(#paint3_linear_5481_90197)"/>
<circle cx="150.675" cy="28.9059" r="69.6087" transform="rotate(-0.0800682 150.675 28.9059)" fill="url(#paint4_radial_5481_90197)"/>
</g>
</g>

</svg>
