<svg width="48" height="48" viewBox="0 0 48 48" xmlns="http://www.w3.org/2000/svg">
  <defs>
<radialGradient id="paint0_radial_5481_99393" cx="0" cy="0" r="1" gradientUnits="userSpaceOnUse" gradientTransform="translate(18.2204 17.176) rotate(90) scale(17.176 18.2204)">
<stop offset="0.166667" stop-color="#FF709F"/>
<stop offset="1" stop-color="#FF709F" stop-opacity="0"/>
</radialGradient>
<linearGradient id="paint1_linear_5481_99393" x1="-7.10709" y1="38.2815" x2="58.7534" y2="-4.2241" gradientUnits="userSpaceOnUse">
<stop offset="0.0598452" stop-color="#8480FE"/>
<stop offset="0.599632" stop-color="#8480FE" stop-opacity="0"/>
</linearGradient>
<linearGradient id="paint2_linear_5481_99393" x1="47.5346" y1="10.2719" x2="20.1634" y2="41.4932" gradientUnits="userSpaceOnUse">
<stop stop-color="#EB1000"/>
<stop offset="1" stop-color="#EB1000" stop-opacity="0"/>
</linearGradient>
<linearGradient id="paint3_linear_5481_99393" x1="12.038" y1="43.9679" x2="62.3154" y2="14.0905" gradientUnits="userSpaceOnUse">
<stop stop-color="#FC7D00" stop-opacity="0"/>
<stop offset="0.432292" stop-color="#FC7D00"/>
<stop offset="0.609375" stop-color="#FC7D00"/>
<stop offset="1" stop-color="#FC7D00" stop-opacity="0"/>
</linearGradient>
<radialGradient id="paint4_radial_5481_99393" cx="0" cy="0" r="1" gradientUnits="userSpaceOnUse" gradientTransform="translate(18.2204 17.176) rotate(90) scale(17.176 18.2204)">
<stop offset="0.166667" stop-color="#EB1000"/>
<stop offset="1" stop-color="#EB1000" stop-opacity="0"/>
</radialGradient>
<clipPath id="clip0_5481_99393">
<rect x="3.41797" y="3" width="41.8808" height="39.48" rx="1.03837" fill="white"/>
</clipPath>
</defs>
<clipPath id="mask0_5481_99393">
<path d="M34.7984 10.2H32.6984V13.2C32.6984 13.863 32.1614 14.4 31.4984 14.4C30.8354 14.4 30.2984 13.863 30.2984 13.2V10.2H17.6984V13.2C17.6984 13.863 17.1614 14.4 16.4984 14.4C15.8354 14.4 15.2984 13.863 15.2984 13.2V10.2H13.1984C10.5464 10.2 8.39844 12.348 8.39844 15V18H39.5984V15C39.5984 12.348 37.4504 10.2 34.7984 10.2ZM8.39844 34.8C8.39844 37.452 10.5464 39.6 13.1984 39.6H34.7984C37.4504 39.6 39.5984 37.452 39.5984 34.8V20.4H8.39844V34.8ZM30.2984 25.2C30.2984 24.537 30.8354 24 31.4984 24H33.2984C33.9614 24 34.4984 24.537 34.4984 25.2V27C34.4984 27.663 33.9614 28.2 33.2984 28.2H31.4984C30.8354 28.2 30.2984 27.663 30.2984 27V25.2ZM30.2984 31.8C30.2984 31.137 30.8354 30.6 31.4984 30.6H33.2984C33.9614 30.6 34.4984 31.137 34.4984 31.8V33.6C34.4984 34.263 33.9614 34.8 33.2984 34.8H31.4984C30.8354 34.8 30.2984 34.263 30.2984 33.6V31.8ZM21.8984 25.2C21.8984 24.537 22.4354 24 23.0984 24H24.8984C25.5614 24 26.0984 24.537 26.0984 25.2V27C26.0984 27.663 25.5614 28.2 24.8984 28.2H23.0984C22.4354 28.2 21.8984 27.663 21.8984 27V25.2ZM21.8984 31.8C21.8984 31.137 22.4354 30.6 23.0984 30.6H24.8984C25.5614 30.6 26.0984 31.137 26.0984 31.8V33.6C26.0984 34.263 25.5614 34.8 24.8984 34.8H23.0984C22.4354 34.8 21.8984 34.263 21.8984 33.6V31.8ZM13.4984 25.2C13.4984 24.537 14.0354 24 14.6984 24H16.4984C17.1614 24 17.6984 24.537 17.6984 25.2V27C17.6984 27.663 17.1614 28.2 16.4984 28.2H14.6984C14.0354 28.2 13.4984 27.663 13.4984 27V25.2ZM13.4984 31.8C13.4984 31.137 14.0354 30.6 14.6984 30.6H16.4984C17.1614 30.6 17.6984 31.137 17.6984 31.8V33.6C17.6984 34.263 17.1614 34.8 16.4984 34.8H14.6984C14.0354 34.8 13.4984 34.263 13.4984 33.6V31.8ZM17.6984 7.2C17.6984 6.537 17.1614 6 16.4984 6C15.8354 6 15.2984 6.537 15.2984 7.2V10.2H17.6984V7.2ZM32.6984 7.2C32.6984 6.537 32.1614 6 31.4984 6C30.8354 6 30.2984 6.537 30.2984 7.2V10.2H32.6984V7.2Z" fill="white"/>
</clipPath>
<g clip-path="url(#mask0_5481_99393)">
<g clip-path="url(#clip0_5481_99393)">
<rect x="3.41797" y="3" width="41.8808" height="39.48" rx="1.03837" fill="#FFECCF"/>
<rect width="41.8808" height="39.48" transform="translate(3.41797 3)" fill="#FFECCF"/>
<ellipse cx="18.2204" cy="17.176" rx="18.2204" ry="17.176" transform="matrix(0.999999 -0.00131734 0.00148243 0.999999 8.85156 -12.6211)" fill="url(#paint0_radial_5481_99393)"/>
<path d="M19.403 -3.97345C16.1866 -5.84967 12.1115 -5.86116 8.88311 -4.00311L-23.4063 14.5816C-26.5687 16.4018 -26.5739 20.6981 -23.4159 22.5251L8.66018 41.0835C11.8837 42.9483 15.9589 42.9461 19.1796 41.0769L51.1896 22.5011C54.331 20.678 54.3367 16.4057 51.1992 14.5757L19.403 -3.97345Z" fill="url(#paint1_linear_5481_99393)"/>
<path d="M9.45289 21.744C10.1687 7.00494 23.4239 -4.39639 39.0593 -3.7216C54.6946 -3.04682 66.7893 9.44856 66.0735 24.1876C65.3576 38.9266 52.1024 50.328 36.4671 49.6532C20.8317 48.9784 8.73707 36.483 9.45289 21.744Z" fill="url(#paint2_linear_5481_99393)"/>
<path d="M-13.5487 31.4629C-7.33363 28.9635 -0.630746 29.0706 5.17646 31.2568C16.7968 35.6423 23.5583 32.9309 28.248 22.0018C30.584 16.5176 35.1447 11.873 41.3667 9.37074C53.8068 4.37567 68.1683 9.79567 73.4597 21.488C78.751 33.1802 72.9594 46.6971 60.5223 51.6988C54.2863 54.2066 47.5705 54.0891 41.7544 51.8833C30.1529 47.5212 23.4043 50.2429 18.7205 61.1851C16.3787 66.6563 11.819 71.285 5.60392 73.7844C-6.82622 78.7832 -21.1878 73.3632 -26.4761 61.6775C-31.7645 49.9917 -25.9788 36.4617 -13.5487 31.4629Z" fill="url(#paint3_linear_5481_99393)"/>
<ellipse cx="18.2204" cy="17.176" rx="18.2204" ry="17.176" transform="matrix(0.999999 -0.00131734 0.00148243 0.999999 24.6133 -7.01953)" fill="url(#paint4_radial_5481_99393)"/>
</g>
</g>

</svg>
