<svg width="160" height="160" viewBox="0 0 160 160" xmlns="http://www.w3.org/2000/svg">
  <defs>
<radialGradient id="paint0_radial_5481_90074" cx="0" cy="0" r="1" gradientUnits="userSpaceOnUse" gradientTransform="translate(90.4677 6.20574) rotate(90) scale(69.6088)">
<stop offset="0.166667" stop-color="#FF709F"/>
<stop offset="1" stop-color="#FF709F" stop-opacity="0"/>
</radialGradient>
<linearGradient id="paint1_linear_5481_90074" x1="-40.2086" y1="142.983" x2="219.921" y2="-15.2772" gradientUnits="userSpaceOnUse">
<stop offset="0.0598452" stop-color="#8480FE"/>
<stop offset="0.599632" stop-color="#8480FE" stop-opacity="0"/>
</linearGradient>
<linearGradient id="paint2_linear_5481_90074" x1="168.544" y1="29.4718" x2="56.9494" y2="149.467" gradientUnits="userSpaceOnUse">
<stop stop-color="#EB1000"/>
<stop offset="1" stop-color="#EB1000" stop-opacity="0"/>
</linearGradient>
<linearGradient id="paint3_linear_5481_90074" x1="32.9255" y1="166.029" x2="230.753" y2="55.2086" gradientUnits="userSpaceOnUse">
<stop stop-color="#FC7D00" stop-opacity="0"/>
<stop offset="0.432292" stop-color="#FC7D00"/>
<stop offset="0.609375" stop-color="#FC7D00"/>
<stop offset="1" stop-color="#FC7D00" stop-opacity="0"/>
</linearGradient>
<radialGradient id="paint4_radial_5481_90074" cx="0" cy="0" r="1" gradientUnits="userSpaceOnUse" gradientTransform="translate(150.675 28.9059) rotate(90) scale(69.6088)">
<stop offset="0.166667" stop-color="#EB1000"/>
<stop offset="1" stop-color="#EB1000" stop-opacity="0"/>
</radialGradient>
<clipPath id="clip0_5481_90074">
<rect width="160" height="160" rx="5.125" fill="white"/>
</clipPath>
</defs>
<clipPath id="mask0_5481_90074">
<path fill-rule="evenodd" d="M80 135.746C110.928 135.746 136 110.674 136 79.7461C136 48.8181 110.928 23.7461 80 23.7461C49.0721 23.7461 24 48.8181 24 79.7461C24 110.674 49.0721 135.746 80 135.746ZM68.3713 64.2461C68.3713 67.8359 65.4611 70.7461 61.8713 70.7461C58.2814 70.7461 55.3713 67.8359 55.3713 64.2461C55.3713 60.6562 58.2814 57.7461 61.8713 57.7461C65.4611 57.7461 68.3713 60.6562 68.3713 64.2461ZM105.371 64.2461C105.371 67.8359 102.461 70.7461 98.8712 70.7461C95.2814 70.7461 92.3712 67.8359 92.3712 64.2461C92.3712 60.6562 95.2814 57.7461 98.8712 57.7461C102.461 57.7461 105.371 60.6562 105.371 64.2461ZM108.249 90.9708C109.982 92.3418 110.275 94.8574 108.904 96.5897C105.534 100.847 101.208 104.286 96.2658 106.65C91.3241 109.014 85.8939 110.243 80.3937 110.246C74.8935 110.249 69.4618 109.027 64.5171 106.669C59.5721 104.311 55.2413 100.877 51.8666 96.6237C50.4936 94.8931 50.7834 92.3771 52.514 91.004C54.2446 89.631 56.7606 89.9208 58.1337 91.6514C60.7401 94.9364 64.1001 97.6074 67.9606 99.4484C71.8216 101.29 76.0744 102.249 80.3889 102.246C84.7035 102.243 88.955 101.279 92.8136 99.4337C96.6718 97.5881 100.028 94.9132 102.631 91.6251C104.001 89.8928 106.517 89.5999 108.249 90.9708Z" fill="#D9D9D9"/>
</clipPath>
<g clip-path="url(#mask0_5481_90074)">
<g clip-path="url(#clip0_5481_90074)">
<rect width="160" height="160" rx="5.125" fill="#FFECCF"/>
<rect width="160" height="160" fill="#FFECCF"/>
<circle cx="90.4677" cy="6.20574" r="69.6087" transform="rotate(-0.0800682 90.4677 6.20574)" fill="url(#paint0_radial_5481_90074)"/>
<path d="M61.0698 -28.2626C48.782 -35.8663 33.2133 -35.9129 20.8798 -28.3828L-102.478 46.9353C-114.559 54.3119 -114.579 71.7234 -102.514 79.1279L20.0281 154.339C32.3432 161.896 47.9119 161.887 60.2163 154.312L182.506 79.0306C194.507 71.6419 194.529 54.3277 182.543 46.9111L61.0698 -28.2626Z" fill="url(#paint1_linear_5481_90074)"/>
<path d="M23.0583 75.9646C25.793 16.2319 76.4328 -29.9741 136.166 -27.2395C195.898 -24.5048 242.104 26.1351 239.37 85.8678C236.635 145.601 185.995 191.807 126.262 189.072C66.5296 186.337 20.3236 135.697 23.0583 75.9646Z" fill="url(#paint2_linear_5481_90074)"/>
<path d="M-64.8253 115.35C-41.0814 105.221 -15.474 105.655 6.71169 114.515C51.1056 132.288 76.9371 121.299 94.8534 77.0069C103.778 54.7811 121.201 35.958 144.972 25.8174C192.497 5.57391 247.364 27.5395 267.579 74.9246C287.793 122.31 265.667 177.09 218.153 197.36C194.329 207.523 168.673 207.047 146.453 198.107C102.131 180.429 76.3488 191.459 58.4551 235.805C49.5082 257.978 32.0886 276.736 8.34476 286.866C-39.1429 307.124 -94.0093 285.159 -114.213 237.8C-134.416 190.441 -112.313 135.609 -64.8253 115.35Z" fill="url(#paint3_linear_5481_90074)"/>
<circle cx="150.675" cy="28.9059" r="69.6087" transform="rotate(-0.0800682 150.675 28.9059)" fill="url(#paint4_radial_5481_90074)"/>
</g>
</g>

</svg>
