<svg width="96" height="96" viewBox="0 0 96 96" xmlns="http://www.w3.org/2000/svg">
  <defs>
<radialGradient id="paint0_radial_5481_99431" cx="0" cy="0" r="1" gradientUnits="userSpaceOnUse" gradientTransform="translate(34.1954 32.2352) rotate(90) scale(32.2352 34.1954)">
<stop offset="0.166667" stop-color="#FF709F"/>
<stop offset="1" stop-color="#FF709F" stop-opacity="0"/>
</radialGradient>
<linearGradient id="paint1_linear_5481_99431" x1="-11.3554" y1="77.0141" x2="112.249" y2="-2.75872" gradientUnits="userSpaceOnUse">
<stop offset="0.0598452" stop-color="#8480FE"/>
<stop offset="0.599632" stop-color="#8480FE" stop-opacity="0"/>
</linearGradient>
<linearGradient id="paint2_linear_5481_99431" x1="91.1941" y1="24.4481" x2="39.825" y2="83.0431" gradientUnits="userSpaceOnUse">
<stop stop-color="#EB1000"/>
<stop offset="1" stop-color="#EB1000" stop-opacity="0"/>
</linearGradient>
<linearGradient id="paint3_linear_5481_99431" x1="24.5743" y1="87.6863" x2="118.933" y2="31.6135" gradientUnits="userSpaceOnUse">
<stop stop-color="#FC7D00" stop-opacity="0"/>
<stop offset="0.432292" stop-color="#FC7D00"/>
<stop offset="0.609375" stop-color="#FC7D00"/>
<stop offset="1" stop-color="#FC7D00" stop-opacity="0"/>
</linearGradient>
<radialGradient id="paint4_radial_5481_99431" cx="0" cy="0" r="1" gradientUnits="userSpaceOnUse" gradientTransform="translate(34.1954 32.2352) rotate(90) scale(32.2352 34.1954)">
<stop offset="0.166667" stop-color="#EB1000"/>
<stop offset="1" stop-color="#EB1000" stop-opacity="0"/>
</radialGradient>
<clipPath id="clip0_5481_99431">
<rect x="8.39844" y="10.7998" width="78.6002" height="74.0945" rx="2.07674" fill="white"/>
</clipPath>
</defs>
<clipPath id="mask0_5481_99431">
<path fill-rule="evenodd" d="M27.45 15.6357H68.55C72.528 15.6357 75.75 18.8577 75.75 22.8357V52.6137C75.75 67.9437 63.33 80.3637 48 80.3637C32.67 80.3637 20.25 67.9377 20.25 52.6137V22.8357C20.25 18.8577 23.472 15.6357 27.45 15.6357ZM29.898 55.0857C30.2751 55.3072 30.688 55.4092 31.095 55.4097C31.9279 55.4087 32.7305 54.9768 33.174 54.2097L41.55 39.7017C42.216 38.5557 41.82 37.0857 40.674 36.4257C39.528 35.7597 38.058 36.1557 37.398 37.3017L29.022 51.8097C28.356 52.9557 28.752 54.4257 29.898 55.0857ZM61.41 55.4097C63.144 55.4097 64.698 54.5097 65.568 53.0097C66.438 51.5037 66.438 49.7097 65.568 48.2097L58.026 35.1477C57.156 33.6477 55.602 32.7477 53.868 32.7477C52.134 32.7477 50.58 33.6477 49.71 35.1477L42.168 48.2097C41.298 49.7097 41.298 51.5097 42.168 53.0097C43.038 54.5097 44.592 55.4097 46.326 55.4097H61.41ZM53.8686 37.5417L61.4106 50.6097H46.3266L53.8686 37.5417Z" fill="white"/>
</clipPath>
<g clip-path="url(#mask0_5481_99431)">
<g clip-path="url(#clip0_5481_99431)">
<rect x="8.39844" y="10.7998" width="78.6002" height="74.0945" rx="2.07674" fill="#FFECCF"/>
<rect width="78.6002" height="74.0945" transform="translate(8.39844 10.7998)" fill="#FFECCF"/>
<ellipse cx="34.1954" cy="32.2352" rx="34.1954" ry="32.2352" transform="matrix(0.999999 -0.00131734 0.00148243 0.999999 18.5977 -18.5166)" fill="url(#paint0_radial_5481_99431)"/>
<path d="M38.3978 -2.2883C32.3614 -5.80951 24.7132 -5.83108 18.6544 -2.34397L-41.9452 32.5351C-47.8801 35.9512 -47.89 44.0143 -41.9631 47.4432L18.236 82.2729C24.2858 85.7726 31.9339 85.7684 37.9785 82.2604L98.0536 47.3982C103.949 43.9765 103.96 35.9585 98.0716 32.5239L38.3978 -2.2883Z" fill="url(#paint1_linear_5481_99431)"/>
<path d="M19.7239 45.9784C21.0673 18.3168 45.9442 -3.08079 75.288 -1.81437C104.632 -0.547961 127.331 22.9029 125.987 50.5645C124.644 78.2262 99.7668 99.6238 70.4231 98.3573C41.0793 97.0909 18.3805 73.6401 19.7239 45.9784Z" fill="url(#paint2_linear_5481_99431)"/>
<path d="M-23.4459 64.2173C-11.7817 59.5265 0.797992 59.7276 11.6967 63.8306C33.5053 72.0611 46.195 66.9724 54.9965 46.461C59.3805 36.1685 67.9399 27.4517 79.6172 22.7556C102.964 13.3811 129.917 23.5531 139.848 45.4967C149.779 67.4404 138.909 92.8084 115.568 102.195C103.864 106.902 91.2603 106.681 80.3448 102.542C58.5716 94.3549 45.9061 99.463 37.1157 119.999C32.7206 130.267 24.1632 138.954 12.499 143.645C-10.8294 153.026 -37.7826 142.854 -47.7076 120.923C-57.6327 98.9915 -46.7743 73.5989 -23.4459 64.2173Z" fill="url(#paint3_linear_5481_99431)"/>
<ellipse cx="34.1954" cy="32.2352" rx="34.1954" ry="32.2352" transform="matrix(0.999999 -0.00131734 0.00148243 0.999999 48.1758 -8.00391)" fill="url(#paint4_radial_5481_99431)"/>
</g>
</g>

</svg>
