<svg width="96" height="96" viewBox="0 0 96 96" xmlns="http://www.w3.org/2000/svg">
  <defs>
<radialGradient id="paint0_radial_5481_99623" cx="0" cy="0" r="1" gradientUnits="userSpaceOnUse" gradientTransform="translate(54.2806 3.72345) rotate(90) scale(41.7653)">
<stop offset="0.166667" stop-color="#FF709F"/>
<stop offset="1" stop-color="#FF709F" stop-opacity="0"/>
</radialGradient>
<linearGradient id="paint1_linear_5481_99623" x1="-24.1244" y1="85.7895" x2="131.953" y2="-9.16689" gradientUnits="userSpaceOnUse">
<stop offset="0.0598452" stop-color="#8480FE"/>
<stop offset="0.599632" stop-color="#8480FE" stop-opacity="0"/>
</linearGradient>
<linearGradient id="paint2_linear_5481_99623" x1="101.128" y1="17.6831" x2="34.1712" y2="89.6803" gradientUnits="userSpaceOnUse">
<stop stop-color="#EB1000"/>
<stop offset="1" stop-color="#EB1000" stop-opacity="0"/>
</linearGradient>
<linearGradient id="paint3_linear_5481_99623" x1="19.7553" y1="99.6167" x2="138.452" y2="33.1246" gradientUnits="userSpaceOnUse">
<stop stop-color="#FC7D00" stop-opacity="0"/>
<stop offset="0.432292" stop-color="#FC7D00"/>
<stop offset="0.609375" stop-color="#FC7D00"/>
<stop offset="1" stop-color="#FC7D00" stop-opacity="0"/>
</linearGradient>
<radialGradient id="paint4_radial_5481_99623" cx="0" cy="0" r="1" gradientUnits="userSpaceOnUse" gradientTransform="translate(90.4056 17.3436) rotate(90) scale(41.7653)">
<stop offset="0.166667" stop-color="#EB1000"/>
<stop offset="1" stop-color="#EB1000" stop-opacity="0"/>
</radialGradient>
<clipPath id="clip0_5481_99623">
<rect width="96" height="96" rx="5.125" fill="white"/>
</clipPath>
</defs>
<clipPath id="mask0_5481_99623">
<path fill-rule="evenodd" d="M38.0889 14.782C47.789 11.6011 58.1873 12.668 64.9284 15.7093C78.7456 21.9431 83.3098 35.3309 81.2879 46.8196C79.2807 58.2249 70.588 68.4016 57.4988 67.496C45.3016 66.6522 38.8651 62.0414 36.2701 56.1148C33.7599 50.3821 35.1519 44.0646 37.191 40.2985C42.4648 30.5581 51.4744 29.0653 57.0719 29.2431C60.4856 29.3516 62.5705 32.4424 62.2942 35.4463L59.7108 63.5392C69.0963 63.2055 75.6853 55.5767 77.3484 46.1263C79.1091 36.122 75.1578 24.7127 63.2834 19.3554C57.4528 16.7249 48.0859 15.7133 39.3353 18.5828C30.7038 21.4133 22.6594 28.0162 19.1912 40.7453C16.4337 50.8659 19.6607 60.5474 25.8409 67.7057C32.0517 74.8994 41.0722 79.34 49.5479 79.0956C50.652 79.0638 51.5728 79.933 51.6047 81.0371C51.6365 82.1413 50.7672 83.0621 49.6631 83.0939C39.7815 83.3788 29.6667 78.2579 22.8132 70.3197C15.929 62.346 12.1627 51.3253 15.3319 39.6938C19.1777 25.5786 28.2696 18.002 38.0889 14.782ZM55.7142 63.3187L58.311 35.08C58.4137 33.9631 57.6673 33.2641 56.9449 33.2411C52.1072 33.0874 44.9617 34.3476 40.7085 42.2031C39.0708 45.2278 38.0566 50.2223 39.9342 54.5104C41.6139 58.3466 45.8858 62.2043 55.7142 63.3187Z" fill="#292929"/>
</clipPath>
<g clip-path="url(#mask0_5481_99623)">
<g clip-path="url(#clip0_5481_99623)">
<rect width="96" height="96" rx="5.125" fill="#FFECCF"/>
<rect width="96" height="96" fill="#FFECCF"/>
<circle cx="54.2806" cy="3.72345" r="41.7653" transform="rotate(-0.0800682 54.2806 3.72345)" fill="url(#paint0_radial_5481_99623)"/>
<path d="M36.6427 -16.9581C29.27 -21.5204 19.9288 -21.5483 12.5287 -17.0303L-61.4858 28.1606C-68.7346 32.5865 -68.7467 43.0335 -61.5078 47.4761L12.0177 92.6029C19.4067 97.1373 28.7479 97.1319 36.1306 92.5868L109.505 47.4178C116.705 42.9845 116.718 32.596 109.526 28.1461L36.6427 -16.9581Z" fill="url(#paint1_linear_5481_99623)"/>
<path d="M13.8365 45.5788C15.4774 9.73912 45.8613 -17.9845 81.7009 -16.3437C117.541 -14.7029 145.264 15.6811 143.623 51.5207C141.982 87.3603 111.599 115.084 75.759 113.443C39.9193 111.802 12.1957 81.4184 13.8365 45.5788Z" fill="url(#paint2_linear_5481_99623)"/>
<path d="M-38.8952 69.2093C-24.6489 63.1318 -9.28437 63.3923 4.02702 68.7083C30.6634 79.3721 46.1622 72.779 56.9121 46.2036C62.2666 32.8681 72.7207 21.5742 86.983 15.4898C115.498 3.34376 148.418 16.5231 160.547 44.9542C172.676 73.3853 159.4 106.253 130.892 118.415C116.598 124.513 101.204 124.228 87.8718 118.864C61.2786 108.257 45.8093 114.875 35.073 141.482C29.7049 154.786 19.2532 166.041 5.00686 172.119C-23.4858 184.274 -56.4056 171.095 -68.5277 142.679C-80.6499 114.264 -67.3878 81.3645 -38.8952 69.2093Z" fill="url(#paint3_linear_5481_99623)"/>
<circle cx="90.4056" cy="17.3436" r="41.7653" transform="rotate(-0.0800682 90.4056 17.3436)" fill="url(#paint4_radial_5481_99623)"/>
</g>
</g>

</svg>
