<svg width="96" height="96" viewBox="0 0 96 96" xmlns="http://www.w3.org/2000/svg">
  <defs>
<radialGradient id="paint0_radial_5481_99535" cx="0" cy="0" r="1" gradientUnits="userSpaceOnUse" gradientTransform="translate(54.2806 3.72345) rotate(90) scale(41.7653)">
<stop offset="0.166667" stop-color="#FF709F"/>
<stop offset="1" stop-color="#FF709F" stop-opacity="0"/>
</radialGradient>
<linearGradient id="paint1_linear_5481_99535" x1="-24.1244" y1="85.7895" x2="131.953" y2="-9.16689" gradientUnits="userSpaceOnUse">
<stop offset="0.0598452" stop-color="#8480FE"/>
<stop offset="0.599632" stop-color="#8480FE" stop-opacity="0"/>
</linearGradient>
<linearGradient id="paint2_linear_5481_99535" x1="101.128" y1="17.6831" x2="34.1712" y2="89.6803" gradientUnits="userSpaceOnUse">
<stop stop-color="#EB1000"/>
<stop offset="1" stop-color="#EB1000" stop-opacity="0"/>
</linearGradient>
<linearGradient id="paint3_linear_5481_99535" x1="19.7553" y1="99.6167" x2="138.452" y2="33.1246" gradientUnits="userSpaceOnUse">
<stop stop-color="#FC7D00" stop-opacity="0"/>
<stop offset="0.432292" stop-color="#FC7D00"/>
<stop offset="0.609375" stop-color="#FC7D00"/>
<stop offset="1" stop-color="#FC7D00" stop-opacity="0"/>
</linearGradient>
<radialGradient id="paint4_radial_5481_99535" cx="0" cy="0" r="1" gradientUnits="userSpaceOnUse" gradientTransform="translate(90.4056 17.3436) rotate(90) scale(41.7653)">
<stop offset="0.166667" stop-color="#EB1000"/>
<stop offset="1" stop-color="#EB1000" stop-opacity="0"/>
</radialGradient>
<clipPath id="clip0_5481_99535">
<rect width="96" height="96" rx="5.125" fill="white"/>
</clipPath>
</defs>
<clipPath id="mask0_5481_99535">
<path fill-rule="evenodd" d="M82.0527 18.0859C82.0527 20.4171 80.407 22.3638 78.2139 22.8277C76.7075 21.0734 74.7194 19.7449 72.4547 19.0471C72.3922 18.7364 72.3594 18.415 72.3594 18.0859C72.3594 15.4092 74.5293 13.2393 77.2061 13.2393C79.8828 13.2393 82.0527 15.4092 82.0527 18.0859ZM77.2047 30.9072C77.2047 34.7337 74.6486 37.9632 71.1508 38.9814C68.9376 34.8719 65.0447 31.801 60.3911 30.6878C60.5075 26.1455 64.2261 22.499 68.7965 22.499C73.4402 22.499 77.2047 26.2635 77.2047 30.9072ZM51.6368 63.9141C51.6368 74.3224 43.1993 82.7599 32.7911 82.7599C22.3828 82.7599 13.9453 74.3224 13.9453 63.9141C13.9453 53.5059 22.3828 45.0684 32.7911 45.0684C37.0092 45.0684 40.9036 46.4542 44.044 48.7953C44.044 48.7952 44.044 48.7952 44.0439 48.7951C47.1296 51.0954 49.4872 54.3181 50.7084 58.0547C50.7083 58.0547 50.7082 58.0546 50.7081 58.0546C51.3109 59.8989 51.6368 61.8685 51.6368 63.9141ZM69.1278 46.849C69.1278 53.8169 63.4792 59.4655 56.5113 59.4655C56.0653 59.4655 55.6247 59.4424 55.1906 59.3972C53.8804 52.8641 49.7835 47.3382 44.1924 44.1121C45.4425 38.4601 50.4832 34.2324 56.5113 34.2324C63.4792 34.2324 69.1278 39.881 69.1278 46.849Z" fill="white"/>
</clipPath>
<g clip-path="url(#mask0_5481_99535)">
<g clip-path="url(#clip0_5481_99535)">
<rect width="96" height="96" rx="5.125" fill="#FFECCF"/>
<rect width="96" height="96" fill="#FFECCF"/>
<circle cx="54.2806" cy="3.72345" r="41.7653" transform="rotate(-0.0800682 54.2806 3.72345)" fill="url(#paint0_radial_5481_99535)"/>
<path d="M36.6427 -16.9581C29.27 -21.5204 19.9288 -21.5483 12.5287 -17.0303L-61.4858 28.1606C-68.7346 32.5865 -68.7467 43.0335 -61.5078 47.4761L12.0177 92.6029C19.4067 97.1373 28.7479 97.1319 36.1306 92.5868L109.505 47.4178C116.705 42.9845 116.718 32.596 109.526 28.1461L36.6427 -16.9581Z" fill="url(#paint1_linear_5481_99535)"/>
<path d="M13.8365 45.5788C15.4774 9.73912 45.8613 -17.9845 81.7009 -16.3437C117.541 -14.7029 145.264 15.6811 143.623 51.5207C141.982 87.3603 111.599 115.084 75.759 113.443C39.9193 111.802 12.1957 81.4184 13.8365 45.5788Z" fill="url(#paint2_linear_5481_99535)"/>
<path d="M-38.8952 69.2093C-24.6489 63.1318 -9.28437 63.3923 4.02702 68.7083C30.6634 79.3721 46.1622 72.779 56.9121 46.2036C62.2666 32.8681 72.7207 21.5742 86.983 15.4898C115.498 3.34376 148.418 16.5231 160.547 44.9542C172.676 73.3853 159.4 106.253 130.892 118.415C116.598 124.513 101.204 124.228 87.8718 118.864C61.2786 108.257 45.8093 114.875 35.073 141.482C29.7049 154.786 19.2532 166.041 5.00686 172.119C-23.4858 184.274 -56.4056 171.095 -68.5277 142.679C-80.6499 114.264 -67.3878 81.3645 -38.8952 69.2093Z" fill="url(#paint3_linear_5481_99535)"/>
<circle cx="90.4056" cy="17.3436" r="41.7653" transform="rotate(-0.0800682 90.4056 17.3436)" fill="url(#paint4_radial_5481_99535)"/>
</g>
</g>

</svg>
