<svg width="96" height="96" viewBox="0 0 96 96" xmlns="http://www.w3.org/2000/svg">
  <defs>
<radialGradient id="paint0_radial_5481_99419" cx="0" cy="0" r="1" gradientUnits="userSpaceOnUse" gradientTransform="translate(34.1954 32.2352) rotate(90) scale(32.2352 34.1954)">
<stop offset="0.166667" stop-color="#FF709F"/>
<stop offset="1" stop-color="#FF709F" stop-opacity="0"/>
</radialGradient>
<linearGradient id="paint1_linear_5481_99419" x1="-10.1523" y1="78.6069" x2="113.452" y2="-1.16594" gradientUnits="userSpaceOnUse">
<stop offset="0.0598452" stop-color="#8480FE"/>
<stop offset="0.599632" stop-color="#8480FE" stop-opacity="0"/>
</linearGradient>
<linearGradient id="paint2_linear_5481_99419" x1="92.3972" y1="26.0409" x2="41.0281" y2="84.6359" gradientUnits="userSpaceOnUse">
<stop stop-color="#EB1000"/>
<stop offset="1" stop-color="#EB1000" stop-opacity="0"/>
</linearGradient>
<linearGradient id="paint3_linear_5481_99419" x1="25.7774" y1="89.279" x2="120.136" y2="33.2063" gradientUnits="userSpaceOnUse">
<stop stop-color="#FC7D00" stop-opacity="0"/>
<stop offset="0.432292" stop-color="#FC7D00"/>
<stop offset="0.609375" stop-color="#FC7D00"/>
<stop offset="1" stop-color="#FC7D00" stop-opacity="0"/>
</linearGradient>
<radialGradient id="paint4_radial_5481_99419" cx="0" cy="0" r="1" gradientUnits="userSpaceOnUse" gradientTransform="translate(34.1954 32.2352) rotate(90) scale(32.2352 34.1954)">
<stop offset="0.166667" stop-color="#EB1000"/>
<stop offset="1" stop-color="#EB1000" stop-opacity="0"/>
</radialGradient>
<clipPath id="clip0_5481_99419">
<rect x="9.60156" y="12.3926" width="78.6002" height="74.0945" rx="2.07674" fill="white"/>
</clipPath>
</defs>
<clipPath id="mask0_5481_99419">
<path fill-rule="evenodd" d="M41.5424 28.8123L64.6784 21.7863L64.6844 21.7803C68.1344 20.7303 71.6144 23.3103 71.6144 26.9163V53.2323C71.6144 56.8383 68.1344 59.4183 64.6844 58.3683L41.5484 51.3303H41.5244L47.7884 65.8803C49.1324 68.9883 47.7044 72.5943 44.6024 73.9383C41.4944 75.2823 37.8884 73.8543 36.5444 70.7523L28.1024 51.3363H24.9104C18.6944 51.3363 13.6484 46.2903 13.6484 40.0743C13.6484 33.8583 18.6884 28.8123 24.9104 28.8123H41.5424ZM81.8503 49.4163L85.3003 50.5083C86.5603 50.9103 87.2623 52.2543 86.8603 53.5203C86.5363 54.5403 85.5943 55.1943 84.5743 55.1943C84.3343 55.1943 84.0883 55.1583 83.8483 55.0803L80.3983 53.9883C79.1383 53.5863 78.4363 52.2423 78.8383 50.9763C79.2403 49.7163 80.5843 49.0143 81.8503 49.4163ZM81.1249 30.5282C81.3649 30.5282 81.6109 30.4922 81.8509 30.4142L85.3009 29.3222C86.5669 28.9202 87.2629 27.5702 86.8609 26.3102C86.4589 25.0442 85.1149 24.3482 83.8489 24.7502L80.3989 25.8422C79.1329 26.2442 78.4369 27.5942 78.8389 28.8542C79.1629 29.8742 80.1049 30.5282 81.1249 30.5282ZM84.737 42.3183H81.125C79.799 42.3183 78.725 41.2443 78.725 39.9183C78.725 38.5923 79.799 37.5183 81.125 37.5183H84.737C86.063 37.5183 87.137 38.5923 87.137 39.9183C87.137 41.2443 86.063 42.3183 84.737 42.3183Z" fill="white"/>
</clipPath>
<g clip-path="url(#mask0_5481_99419)">
<g clip-path="url(#clip0_5481_99419)">
<rect x="9.60156" y="12.3926" width="78.6002" height="74.0945" rx="2.07674" fill="#FFECCF"/>
<rect width="78.6002" height="74.0945" transform="translate(9.60156 12.3926)" fill="#FFECCF"/>
<ellipse cx="34.1954" cy="32.2352" rx="34.1954" ry="32.2352" transform="matrix(0.999999 -0.00131734 0.00148243 0.999999 19.8008 -16.9238)" fill="url(#paint0_radial_5481_99419)"/>
<path d="M39.6009 -0.695531C33.5645 -4.21674 25.9164 -4.23831 19.8575 -0.7512L-40.742 34.1279C-46.677 37.5439 -46.6869 45.6071 -40.76 49.036L19.4391 83.8656C25.4889 87.3653 33.1371 87.3612 39.1816 83.8532L99.2567 48.9909C105.152 45.5693 105.163 37.5513 99.2747 34.1167L39.6009 -0.695531Z" fill="url(#paint1_linear_5481_99419)"/>
<path d="M20.927 47.5712C22.2705 19.9096 47.1474 -1.48801 76.4912 -0.2216C105.835 1.04481 128.534 24.4957 127.19 52.1573C125.847 79.819 100.97 101.217 71.6262 99.9501C42.2824 98.6837 19.5836 75.2329 20.927 47.5712Z" fill="url(#paint2_linear_5481_99419)"/>
<path d="M-22.2428 65.8101C-10.5786 61.1193 2.00112 61.3204 12.8998 65.4234C34.7084 73.6539 47.3982 68.5652 56.1996 48.0538C60.5836 37.7613 69.143 29.0445 80.8203 24.3484C104.167 14.9739 131.12 25.1459 141.051 47.0895C150.982 69.0331 140.112 94.4012 116.771 103.788C105.067 108.495 92.4634 108.274 81.548 104.134C59.7747 95.9477 47.1092 101.056 38.3189 121.592C33.9237 131.86 25.3663 140.547 13.7021 145.237C-9.62631 154.619 -36.5795 144.447 -46.5045 122.516C-56.4296 100.584 -45.5712 75.1917 -22.2428 65.8101Z" fill="url(#paint3_linear_5481_99419)"/>
<ellipse cx="34.1954" cy="32.2352" rx="34.1954" ry="32.2352" transform="matrix(0.999999 -0.00131734 0.00148243 0.999999 49.3789 -6.41113)" fill="url(#paint4_radial_5481_99419)"/>
</g>
</g>

</svg>
