<svg width="96" height="96" viewBox="0 0 96 96" xmlns="http://www.w3.org/2000/svg">
  <defs>
<radialGradient id="paint0_radial_5481_99625" cx="0" cy="0" r="1" gradientUnits="userSpaceOnUse" gradientTransform="translate(54.2806 3.72345) rotate(90) scale(41.7653)">
<stop offset="0.166667" stop-color="#FF709F"/>
<stop offset="1" stop-color="#FF709F" stop-opacity="0"/>
</radialGradient>
<linearGradient id="paint1_linear_5481_99625" x1="-24.1244" y1="85.7895" x2="131.953" y2="-9.16689" gradientUnits="userSpaceOnUse">
<stop offset="0.0598452" stop-color="#8480FE"/>
<stop offset="0.599632" stop-color="#8480FE" stop-opacity="0"/>
</linearGradient>
<linearGradient id="paint2_linear_5481_99625" x1="101.128" y1="17.6831" x2="34.1712" y2="89.6803" gradientUnits="userSpaceOnUse">
<stop stop-color="#EB1000"/>
<stop offset="1" stop-color="#EB1000" stop-opacity="0"/>
</linearGradient>
<linearGradient id="paint3_linear_5481_99625" x1="19.7553" y1="99.6167" x2="138.452" y2="33.1246" gradientUnits="userSpaceOnUse">
<stop stop-color="#FC7D00" stop-opacity="0"/>
<stop offset="0.432292" stop-color="#FC7D00"/>
<stop offset="0.609375" stop-color="#FC7D00"/>
<stop offset="1" stop-color="#FC7D00" stop-opacity="0"/>
</linearGradient>
<radialGradient id="paint4_radial_5481_99625" cx="0" cy="0" r="1" gradientUnits="userSpaceOnUse" gradientTransform="translate(90.4056 17.3436) rotate(90) scale(41.7653)">
<stop offset="0.166667" stop-color="#EB1000"/>
<stop offset="1" stop-color="#EB1000" stop-opacity="0"/>
</radialGradient>
<clipPath id="clip0_5481_99625">
<rect width="96" height="96" rx="5.125" fill="white"/>
</clipPath>
</defs>
<clipPath id="mask0_5481_99625">
<path fill-rule="evenodd" d="M47.9999 13.2344C49.1045 13.2344 49.9999 14.1298 49.9999 15.2344V19.879C49.9999 20.9835 49.1045 21.879 47.9999 21.879C46.8953 21.879 45.9999 20.9835 45.9999 19.879V15.2344C45.9999 14.1298 46.8953 13.2344 47.9999 13.2344ZM47.7715 33.4539C39.8416 33.5758 33.4508 40.042 33.4508 48.0009C33.4508 55.9598 39.8416 62.426 47.7715 62.5479V33.4539ZM47.9996 29.4521C37.7554 29.4521 29.4508 37.7567 29.4508 48.0009C29.4508 58.2451 37.7554 66.5496 47.9996 66.5496C58.2438 66.5496 66.5483 58.2451 66.5483 48.0009C66.5483 37.7567 58.2438 29.4521 47.9996 29.4521ZM50 76.1212C50 75.0166 49.1046 74.1212 48 74.1212C46.8954 74.1212 46 75.0166 46 76.1212V80.7658C46 81.8703 46.8954 82.7658 48 82.7658C49.1046 82.7658 50 81.8703 50 80.7658V76.1212ZM82.7656 48C82.7656 49.1046 81.8702 50 80.7656 50H76.1211C75.0165 50 74.1211 49.1046 74.1211 48C74.1211 46.8954 75.0165 46 76.1211 46H80.7656C81.8702 46 82.7656 46.8954 82.7656 48ZM19.879 50C20.9835 50 21.879 49.1046 21.879 48C21.879 46.8954 20.9835 46 19.879 46H15.2344C14.1298 46 13.2344 46.8954 13.2344 48C13.2344 49.1046 14.1298 50 15.2344 50H19.879ZM72.5828 23.4161C73.3638 24.1972 73.3638 25.4635 72.5828 26.2445L69.2986 29.5288C68.5175 30.3098 67.2512 30.3098 66.4702 29.5287C65.6891 28.7477 65.6891 27.4814 66.4702 26.7003L69.7544 23.4161C70.5354 22.6351 71.8018 22.6351 72.5828 23.4161ZM29.5291 69.2978C30.3101 68.5167 30.3101 67.2504 29.5291 66.4693C28.748 65.6883 27.4817 65.6883 26.7006 66.4693L23.4164 69.7536C22.6354 70.5346 22.6354 71.8009 23.4164 72.582C24.1975 73.363 25.4638 73.363 26.2449 72.582L29.5291 69.2978ZM23.4162 23.4161C22.6352 24.1972 22.6352 25.4635 23.4162 26.2445L26.7005 29.5288C27.4815 30.3098 28.7478 30.3098 29.5289 29.5287C30.3099 28.7477 30.3099 27.4814 29.5289 26.7003L26.2447 23.4161C25.4636 22.6351 24.1973 22.6351 23.4162 23.4161ZM66.47 69.2977C65.689 68.5167 65.689 67.2503 66.47 66.4693C67.2511 65.6882 68.5174 65.6882 69.2985 66.4693L72.5827 69.7535C73.3637 70.5346 73.3637 71.8009 72.5827 72.5819C71.8016 73.363 70.5353 73.363 69.7543 72.5819L66.47 69.2977Z" fill="white"/>
</clipPath>
<g clip-path="url(#mask0_5481_99625)">
<g clip-path="url(#clip0_5481_99625)">
<rect width="96" height="96" rx="5.125" fill="#FFECCF"/>
<rect width="96" height="96" fill="#FFECCF"/>
<circle cx="54.2806" cy="3.72345" r="41.7653" transform="rotate(-0.0800682 54.2806 3.72345)" fill="url(#paint0_radial_5481_99625)"/>
<path d="M36.6427 -16.9581C29.27 -21.5204 19.9288 -21.5483 12.5287 -17.0303L-61.4858 28.1606C-68.7346 32.5865 -68.7467 43.0335 -61.5078 47.4761L12.0177 92.6029C19.4067 97.1373 28.7479 97.1319 36.1306 92.5868L109.505 47.4178C116.705 42.9845 116.718 32.596 109.526 28.1461L36.6427 -16.9581Z" fill="url(#paint1_linear_5481_99625)"/>
<path d="M13.8365 45.5788C15.4774 9.73912 45.8613 -17.9845 81.7009 -16.3437C117.541 -14.7029 145.264 15.6811 143.623 51.5207C141.982 87.3603 111.599 115.084 75.759 113.443C39.9193 111.802 12.1957 81.4184 13.8365 45.5788Z" fill="url(#paint2_linear_5481_99625)"/>
<path d="M-38.8952 69.2093C-24.6489 63.1318 -9.28437 63.3923 4.02702 68.7083C30.6634 79.3721 46.1622 72.779 56.9121 46.2036C62.2666 32.8681 72.7207 21.5742 86.983 15.4898C115.498 3.34376 148.418 16.5231 160.547 44.9542C172.676 73.3853 159.4 106.253 130.892 118.415C116.598 124.513 101.204 124.228 87.8718 118.864C61.2786 108.257 45.8093 114.875 35.073 141.482C29.7049 154.786 19.2532 166.041 5.00686 172.119C-23.4858 184.274 -56.4056 171.095 -68.5277 142.679C-80.6499 114.264 -67.3878 81.3645 -38.8952 69.2093Z" fill="url(#paint3_linear_5481_99625)"/>
<circle cx="90.4056" cy="17.3436" r="41.7653" transform="rotate(-0.0800682 90.4056 17.3436)" fill="url(#paint4_radial_5481_99625)"/>
</g>
</g>

</svg>
