<svg width="48" height="48" viewBox="0 0 48 48" xmlns="http://www.w3.org/2000/svg">
  <defs>
<radialGradient id="paint0_radial_5481_99683" cx="0" cy="0" r="1" gradientUnits="userSpaceOnUse" gradientTransform="translate(27.1423 1.86222) rotate(90) scale(20.8826)">
<stop offset="0.166667" stop-color="#FF709F"/>
<stop offset="1" stop-color="#FF709F" stop-opacity="0"/>
</radialGradient>
<linearGradient id="paint1_linear_5481_99683" x1="-12.0622" y1="42.8952" x2="65.9766" y2="-4.58296" gradientUnits="userSpaceOnUse">
<stop offset="0.0598452" stop-color="#8480FE"/>
<stop offset="0.599632" stop-color="#8480FE" stop-opacity="0"/>
</linearGradient>
<linearGradient id="paint2_linear_5481_99683" x1="50.5621" y1="8.84155" x2="17.0836" y2="44.8401" gradientUnits="userSpaceOnUse">
<stop stop-color="#EB1000"/>
<stop offset="1" stop-color="#EB1000" stop-opacity="0"/>
</linearGradient>
<linearGradient id="paint3_linear_5481_99683" x1="9.87765" y1="49.8089" x2="69.2259" y2="16.5628" gradientUnits="userSpaceOnUse">
<stop stop-color="#FC7D00" stop-opacity="0"/>
<stop offset="0.432292" stop-color="#FC7D00"/>
<stop offset="0.609375" stop-color="#FC7D00"/>
<stop offset="1" stop-color="#FC7D00" stop-opacity="0"/>
</linearGradient>
<radialGradient id="paint4_radial_5481_99683" cx="0" cy="0" r="1" gradientUnits="userSpaceOnUse" gradientTransform="translate(45.2009 8.67178) rotate(90) scale(20.8826)">
<stop offset="0.166667" stop-color="#EB1000"/>
<stop offset="1" stop-color="#EB1000" stop-opacity="0"/>
</radialGradient>
<clipPath id="clip0_5481_99683">
<rect width="48" height="48" rx="5.125" fill="white"/>
</clipPath>
</defs>
<clipPath id="mask0_5481_99683">
<path fill-rule="evenodd" d="M25.2354 7.06152L25.2881 7.0654C27.2292 9.36756 28.7226 11.8151 29.7761 14.3454L25.2354 14.3454V7.06152ZM28.9743 7.75742C30.4574 9.87284 31.6192 12.0816 32.4654 14.3454L37.973 14.3454C35.8238 11.2406 32.6664 8.88679 28.9743 7.75742ZM25.2354 16.8454H30.6668C31.2623 18.8457 31.5945 20.8834 31.6669 22.9294H25.2354V16.8454ZM33.2666 16.8454C33.8044 18.8506 34.1039 20.8871 34.1687 22.9294H40.9491C40.8146 20.7668 40.2754 18.7138 39.4062 16.8454H33.2666ZM25.2354 25.4294H31.6266C31.4885 27.4727 31.0934 29.5124 30.4447 31.5192H25.2354V25.4294ZM22.7354 31.5192V25.4294H16.3446C16.4827 27.4727 16.8779 29.5124 17.5265 31.5192H22.7354ZM18.4738 34.0192H22.7354V40.7809C22.7354 40.8335 22.7386 40.8854 22.7449 40.9362L22.6931 40.9324C20.9225 38.7281 19.5139 36.4065 18.4738 34.0192ZM14.9129 31.5192C14.3248 29.5107 13.9659 27.4723 13.84 25.4294H7.07694C7.25798 27.6011 7.84769 29.6568 8.76895 31.5192H14.9129ZM10.287 34.0192H15.7698C16.6115 36.1577 17.719 38.2488 19.0873 40.2605C15.5151 39.1828 12.4394 36.9601 10.287 34.0192ZM25.2354 34.0192H29.4974C28.457 36.4074 27.0478 38.7297 25.2763 40.9347L25.2256 40.9384C25.232 40.8868 25.2354 40.8343 25.2354 40.7809V34.0192ZM32.2014 34.0192C31.3582 36.1615 30.2483 38.2563 28.8766 40.2713C32.4641 39.1977 35.5532 36.97 37.7129 34.0192H32.2014ZM39.2309 31.5192C40.1521 29.6568 40.7419 27.6011 40.9229 25.4294H34.1312C34.0054 27.4723 33.6464 29.5107 33.0583 31.5192H39.2309ZM18.9891 7.76862C15.3126 8.90232 12.1689 11.2508 10.0268 14.3454L15.5058 14.3454C16.3506 12.0856 17.5098 9.88064 18.9891 7.76862ZM14.7046 16.8454H8.75003C8.69852 16.8454 8.64774 16.8423 8.59787 16.8362C7.72625 18.7071 7.18548 20.7633 7.05078 22.9294H13.8025C13.8674 20.8871 14.1668 18.8506 14.7046 16.8454ZM16.3043 22.9294C16.3767 20.8834 16.7089 18.8457 17.3044 16.8454H22.7354V22.9294H16.3043ZM18.1951 14.3454C19.2483 11.816 20.741 9.3692 22.6811 7.06772L22.7354 7.06364V14.3454L18.1951 14.3454Z" fill="white"/>
</clipPath>
<g clip-path="url(#mask0_5481_99683)">
<g clip-path="url(#clip0_5481_99683)">
<rect width="48" height="48" rx="5.125" fill="#FFECCF"/>
<rect width="48" height="48" fill="#FFECCF"/>
<circle cx="27.1423" cy="1.86221" r="20.8826" transform="rotate(-0.0800682 27.1423 1.86221)" fill="url(#paint0_radial_5481_99683)"/>
<path d="M18.3213 -8.47858C14.635 -10.7597 9.96439 -10.7737 6.26433 -8.51465L-30.7429 14.0808C-34.3673 16.2938 -34.3733 21.5172 -30.7539 23.7386L6.00883 46.302C9.70335 48.5691 14.374 48.5664 18.0653 46.2939L54.7523 23.7094C58.3526 21.4928 58.3591 16.2985 54.7632 14.0735L18.3213 -8.47858Z" fill="url(#paint1_linear_5481_99683)"/>
<path d="M6.91632 22.7894C7.73673 4.86956 22.9287 -8.99224 40.8485 -8.17184C58.7683 -7.35143 72.6301 7.84053 71.8097 25.7603C70.9893 43.6802 55.7973 57.542 37.8775 56.7215C19.9577 55.9011 6.09591 40.7092 6.91632 22.7894Z" fill="url(#paint2_linear_5481_99683)"/>
<path d="M-19.4476 34.6052C-12.3244 31.5664 -4.64218 31.6967 2.01351 34.3546C15.3317 39.6865 23.0811 36.39 28.456 23.1023C31.1333 16.4345 36.3604 10.7876 43.4915 7.74541C57.7492 1.67237 74.2091 8.26203 80.2736 22.4776C86.338 36.6931 79.7002 53.1271 65.4459 59.2081C58.2988 62.2571 50.6018 62.1143 43.9359 59.4324C30.6393 54.129 22.9046 57.438 17.5365 70.7417C14.8525 77.3935 9.62658 83.0211 2.50343 86.0599C-11.7429 92.1375 -28.2028 85.5478 -34.2639 71.3402C-40.3249 57.1326 -33.6939 40.6828 -19.4476 34.6052Z" fill="url(#paint3_linear_5481_99683)"/>
<circle cx="45.2009" cy="8.67178" r="20.8826" transform="rotate(-0.0800682 45.2009 8.67178)" fill="url(#paint4_radial_5481_99683)"/>
</g>
</g>

</svg>
