<svg width="48" height="48" viewBox="0 0 48 48" xmlns="http://www.w3.org/2000/svg">
  <defs>
<radialGradient id="paint0_radial_5481_99699" cx="0" cy="0" r="1" gradientUnits="userSpaceOnUse" gradientTransform="translate(27.1423 1.86124) rotate(90) scale(20.8826)">
<stop offset="0.166667" stop-color="#FF709F"/>
<stop offset="1" stop-color="#FF709F" stop-opacity="0"/>
</radialGradient>
<linearGradient id="paint1_linear_5481_99699" x1="-12.0622" y1="42.8942" x2="65.9766" y2="-4.58394" gradientUnits="userSpaceOnUse">
<stop offset="0.0598452" stop-color="#8480FE"/>
<stop offset="0.599632" stop-color="#8480FE" stop-opacity="0"/>
</linearGradient>
<linearGradient id="paint2_linear_5481_99699" x1="50.5621" y1="8.84057" x2="17.0836" y2="44.8392" gradientUnits="userSpaceOnUse">
<stop stop-color="#EB1000"/>
<stop offset="1" stop-color="#EB1000" stop-opacity="0"/>
</linearGradient>
<linearGradient id="paint3_linear_5481_99699" x1="9.87765" y1="49.8079" x2="69.2259" y2="16.5618" gradientUnits="userSpaceOnUse">
<stop stop-color="#FC7D00" stop-opacity="0"/>
<stop offset="0.432292" stop-color="#FC7D00"/>
<stop offset="0.609375" stop-color="#FC7D00"/>
<stop offset="1" stop-color="#FC7D00" stop-opacity="0"/>
</linearGradient>
<radialGradient id="paint4_radial_5481_99699" cx="0" cy="0" r="1" gradientUnits="userSpaceOnUse" gradientTransform="translate(45.2009 8.67081) rotate(90) scale(20.8826)">
<stop offset="0.166667" stop-color="#EB1000"/>
<stop offset="1" stop-color="#EB1000" stop-opacity="0"/>
</radialGradient>
<clipPath id="clip0_5481_99699">
<rect y="-0.000976562" width="48" height="48" rx="5.125" fill="white"/>
</clipPath>
</defs>
<clipPath id="mask0_5481_99699">
<path fill-rule="evenodd" d="M14.025 10.7069C16.8006 8.63084 20.2463 7.40137 23.9792 7.40137C26.8971 7.40137 29.6395 8.15263 32.0237 9.47228L17.1217 20.2324L14.025 10.7069ZM11.9829 12.5117C9.10985 15.5015 7.34375 19.5629 7.34375 24.0368C7.34375 25.8942 7.64816 27.6805 8.2098 29.3485C8.22228 29.3481 8.2348 29.348 8.24737 29.348H17.4563L11.9829 12.5117ZM23.9792 40.6722C17.6149 40.6722 12.0853 37.0983 9.28794 31.848H26.8517L24.0684 40.6719L23.9792 40.6722ZM26.7629 40.4403L31.8774 24.2257L39.592 29.7924C37.56 35.3025 32.6944 39.441 26.7629 40.4403ZM26.0024 16.9036L40.309 27.2269C40.5095 26.1944 40.6146 25.1279 40.6146 24.0368C40.6146 18.725 38.125 13.9947 34.2491 10.949L26.0024 16.9036Z" fill="white"/>
</clipPath>
<g clip-path="url(#mask0_5481_99699)">
<g clip-path="url(#clip0_5481_99699)">
<rect y="-0.000976562" width="48" height="48" rx="5.125" fill="#FFECCF"/>
<rect width="48" height="48" transform="translate(0 -0.000976562)" fill="#FFECCF"/>
<circle cx="27.1423" cy="1.86124" r="20.8826" transform="rotate(-0.0800682 27.1423 1.86124)" fill="url(#paint0_radial_5481_99699)"/>
<path d="M18.3213 -8.47956C14.635 -10.7607 9.96439 -10.7746 6.26433 -8.51562L-30.7429 14.0798C-34.3673 16.2928 -34.3733 21.5162 -30.7539 23.7376L6.00883 46.301C9.70335 48.5682 14.374 48.5655 18.0653 46.2929L54.7523 23.7084C58.3526 21.4918 58.3591 16.2975 54.7632 14.0725L18.3213 -8.47956Z" fill="url(#paint1_linear_5481_99699)"/>
<path d="M6.91632 22.7884C7.73673 4.86858 22.9287 -8.99322 40.8485 -8.17281C58.7683 -7.3524 72.6301 7.83955 71.8097 25.7594C70.9893 43.6792 55.7973 57.541 37.8775 56.7206C19.9577 55.9002 6.09591 40.7082 6.91632 22.7884Z" fill="url(#paint2_linear_5481_99699)"/>
<path d="M-19.4476 34.6042C-12.3244 31.5654 -4.64218 31.6957 2.01351 34.3537C15.3317 39.6856 23.0811 36.389 28.456 23.1013C31.1333 16.4336 36.3604 10.7866 43.4915 7.74443C57.7492 1.67139 74.2091 8.26106 80.2736 22.4766C86.338 36.6922 79.7002 53.1261 65.4459 59.2071C58.2988 62.2561 50.6018 62.1133 43.9359 59.4314C30.6393 54.128 22.9046 57.4371 17.5365 70.7407C14.8525 77.3925 9.62658 83.0201 2.50343 86.0589C-11.7429 92.1365 -28.2028 85.5468 -34.2639 71.3392C-40.3249 57.1317 -33.6939 40.6818 -19.4476 34.6042Z" fill="url(#paint3_linear_5481_99699)"/>
<circle cx="45.2009" cy="8.67081" r="20.8826" transform="rotate(-0.0800682 45.2009 8.67081)" fill="url(#paint4_radial_5481_99699)"/>
</g>
</g>

</svg>
