<svg width="160" height="160" viewBox="0 0 160 160" xmlns="http://www.w3.org/2000/svg">
  <defs>
<radialGradient id="paint0_radial_5481_90181" cx="0" cy="0" r="1" gradientUnits="userSpaceOnUse" gradientTransform="translate(90.4677 6.20574) rotate(90) scale(69.6088)">
<stop offset="0.166667" stop-color="#FF709F"/>
<stop offset="1" stop-color="#FF709F" stop-opacity="0"/>
</radialGradient>
<linearGradient id="paint1_linear_5481_90181" x1="-40.2086" y1="142.983" x2="219.921" y2="-15.2772" gradientUnits="userSpaceOnUse">
<stop offset="0.0598452" stop-color="#8480FE"/>
<stop offset="0.599632" stop-color="#8480FE" stop-opacity="0"/>
</linearGradient>
<linearGradient id="paint2_linear_5481_90181" x1="168.544" y1="29.4718" x2="56.9494" y2="149.467" gradientUnits="userSpaceOnUse">
<stop stop-color="#EB1000"/>
<stop offset="1" stop-color="#EB1000" stop-opacity="0"/>
</linearGradient>
<linearGradient id="paint3_linear_5481_90181" x1="32.9255" y1="166.029" x2="230.753" y2="55.2086" gradientUnits="userSpaceOnUse">
<stop stop-color="#FC7D00" stop-opacity="0"/>
<stop offset="0.432292" stop-color="#FC7D00"/>
<stop offset="0.609375" stop-color="#FC7D00"/>
<stop offset="1" stop-color="#FC7D00" stop-opacity="0"/>
</linearGradient>
<radialGradient id="paint4_radial_5481_90181" cx="0" cy="0" r="1" gradientUnits="userSpaceOnUse" gradientTransform="translate(150.675 28.9059) rotate(90) scale(69.6088)">
<stop offset="0.166667" stop-color="#EB1000"/>
<stop offset="1" stop-color="#EB1000" stop-opacity="0"/>
</radialGradient>
<clipPath id="clip0_5481_90181">
<rect width="160" height="160" rx="5.125" fill="white"/>
</clipPath>
</defs>
<clipPath id="mask0_5481_90181">
<path fill-rule="evenodd" d="M83.9472 25.2061V48.2851L98.4279 48.2851C94.9758 40.2645 90.1568 32.508 83.9472 25.2061ZM107.074 48.2851C104.098 40.5933 99.9949 33.1041 94.7425 25.9607C107.679 29.4817 118.752 37.5239 126.16 48.2851L107.074 48.2851ZM101.393 56.2851L83.9472 56.2851V76.5976H104.946C104.658 69.7615 103.478 62.9561 101.393 56.2851ZM112.953 76.5976C112.695 69.7743 111.63 62.9736 109.745 56.2851L129.875 56.2851C130.159 56.2851 130.437 56.2553 130.705 56.1988C133.645 62.4525 135.463 69.3387 135.898 76.5976H112.953ZM104.876 84.5976H83.9472V104.91H101.036C103.187 98.2168 104.471 91.4119 104.876 84.5976ZM109.396 104.91C111.349 98.2114 112.517 91.4108 112.887 84.5976H135.814C135.224 91.8505 133.253 98.7127 130.163 104.92C130.068 104.914 129.972 104.91 129.875 104.91H109.396ZM98.0276 112.91H83.9472V135.863C83.9749 135.861 84.0027 135.859 84.0304 135.857C89.93 128.548 94.6032 120.839 98.0276 112.91ZM95.5219 133.821C100.146 127.089 103.868 120.081 106.67 112.91H125.314C118.076 122.858 107.643 130.331 95.5219 133.821ZM33.8398 48.285C41.2223 37.5605 52.2455 29.5365 65.1253 25.9968C59.8856 33.1294 55.7911 40.6063 52.8203 48.285L33.8398 48.285ZM30.6249 56.285L50.1498 56.285C48.2642 62.9735 47.1991 69.7743 46.9411 76.5975H24.1016C24.5394 69.292 26.3778 62.3639 29.3518 56.0782C29.7517 56.2124 30.1798 56.285 30.6249 56.285ZM58.5009 56.285C56.4159 62.9561 55.2361 69.7615 54.9488 76.5975H75.9472V56.2851L58.5009 56.285ZM24.1859 84.5975H47.0074C47.377 91.4108 48.5451 98.2114 50.4982 104.91H30.6249C30.3658 104.91 30.1125 104.935 29.8672 104.982C26.7598 98.758 24.7773 91.8744 24.1859 84.5975ZM55.0187 84.5975C55.4232 91.4119 56.7072 98.2167 58.8582 104.91H75.9472V84.5975H55.0187ZM34.6858 112.91H53.2242C56.0212 120.067 59.7343 127.063 64.3463 133.783C52.2814 130.277 41.8971 122.822 34.6858 112.91ZM61.8667 112.91C65.2899 120.837 69.9608 128.542 75.8574 135.849L75.9472 135.855V112.91H61.8667ZM75.9472 25.2061C69.7375 32.508 64.9185 40.2644 61.4665 48.285L75.9472 48.2851V25.2061Z" fill="white"/>
</clipPath>
<g clip-path="url(#mask0_5481_90181)">
<g clip-path="url(#clip0_5481_90181)">
<rect width="160" height="160" rx="5.125" fill="#FFECCF"/>
<rect width="160" height="160" fill="#FFECCF"/>
<circle cx="90.4677" cy="6.20574" r="69.6087" transform="rotate(-0.0800682 90.4677 6.20574)" fill="url(#paint0_radial_5481_90181)"/>
<path d="M61.0698 -28.2626C48.782 -35.8663 33.2133 -35.9129 20.8798 -28.3828L-102.478 46.9353C-114.559 54.3119 -114.579 71.7234 -102.514 79.1279L20.0281 154.339C32.3432 161.896 47.9119 161.887 60.2163 154.312L182.506 79.0306C194.507 71.6419 194.529 54.3277 182.543 46.9111L61.0698 -28.2626Z" fill="url(#paint1_linear_5481_90181)"/>
<path d="M23.0583 75.9646C25.793 16.2319 76.4328 -29.9741 136.166 -27.2395C195.898 -24.5048 242.104 26.1351 239.37 85.8678C236.635 145.601 185.995 191.807 126.262 189.072C66.5296 186.337 20.3236 135.697 23.0583 75.9646Z" fill="url(#paint2_linear_5481_90181)"/>
<path d="M-64.8253 115.35C-41.0814 105.221 -15.474 105.655 6.71169 114.515C51.1056 132.288 76.9371 121.299 94.8534 77.0069C103.778 54.7811 121.201 35.958 144.972 25.8174C192.497 5.57391 247.364 27.5395 267.579 74.9246C287.793 122.31 265.667 177.09 218.153 197.36C194.329 207.523 168.673 207.047 146.453 198.107C102.131 180.429 76.3488 191.459 58.4551 235.805C49.5082 257.978 32.0886 276.736 8.34476 286.866C-39.1429 307.124 -94.0093 285.159 -114.213 237.8C-134.416 190.441 -112.313 135.609 -64.8253 115.35Z" fill="url(#paint3_linear_5481_90181)"/>
<circle cx="150.675" cy="28.9059" r="69.6087" transform="rotate(-0.0800682 150.675 28.9059)" fill="url(#paint4_radial_5481_90181)"/>
</g>
</g>

</svg>
