<svg width="160" height="160" viewBox="0 0 160 160" xmlns="http://www.w3.org/2000/svg">
  <defs>
<radialGradient id="paint0_radial_5481_90064" cx="0" cy="0" r="1" gradientUnits="userSpaceOnUse" gradientTransform="translate(90.4677 6.20574) rotate(90) scale(69.6088)">
<stop offset="0.166667" stop-color="#FF709F"/>
<stop offset="1" stop-color="#FF709F" stop-opacity="0"/>
</radialGradient>
<linearGradient id="paint1_linear_5481_90064" x1="-40.2086" y1="142.983" x2="219.921" y2="-15.2772" gradientUnits="userSpaceOnUse">
<stop offset="0.0598452" stop-color="#8480FE"/>
<stop offset="0.599632" stop-color="#8480FE" stop-opacity="0"/>
</linearGradient>
<linearGradient id="paint2_linear_5481_90064" x1="168.544" y1="29.4718" x2="56.9494" y2="149.467" gradientUnits="userSpaceOnUse">
<stop stop-color="#EB1000"/>
<stop offset="1" stop-color="#EB1000" stop-opacity="0"/>
</linearGradient>
<linearGradient id="paint3_linear_5481_90064" x1="32.9255" y1="166.029" x2="230.753" y2="55.2086" gradientUnits="userSpaceOnUse">
<stop stop-color="#FC7D00" stop-opacity="0"/>
<stop offset="0.432292" stop-color="#FC7D00"/>
<stop offset="0.609375" stop-color="#FC7D00"/>
<stop offset="1" stop-color="#FC7D00" stop-opacity="0"/>
</linearGradient>
<radialGradient id="paint4_radial_5481_90064" cx="0" cy="0" r="1" gradientUnits="userSpaceOnUse" gradientTransform="translate(150.675 28.9059) rotate(90) scale(69.6088)">
<stop offset="0.166667" stop-color="#EB1000"/>
<stop offset="1" stop-color="#EB1000" stop-opacity="0"/>
</radialGradient>
<clipPath id="clip0_5481_90064">
<rect width="160" height="160" fill="white"/>
</clipPath>
<clipPath id="clip1_5481_90064">
<rect width="160" height="160" rx="5.125" fill="white"/>
</clipPath>
</defs>
<g clip-path="url(#clip0_5481_90064)">
<clipPath id="mask0_5481_90064">
<path fill-rule="evenodd" d="M14.5368 30.564C13.8408 30.7422 13.2939 31.2802 13.1041 31.9731C12.9143 32.6661 13.1108 33.4076 13.6189 33.9156L29.3479 49.6447C29.763 50.0597 30.3394 50.2715 30.9244 50.2239L42.9924 49.2418L65.9438 72.1933C67.5059 73.7554 70.0385 73.7554 71.6006 72.1933C73.1627 70.6312 73.1627 68.0985 71.6006 66.5364L48.65 43.5858L49.6322 31.5161C49.6798 30.931 49.468 30.3547 49.053 29.9396L33.3239 14.2106C32.8159 13.7025 32.0744 13.506 31.3814 13.6958C30.6885 13.8856 30.1505 14.4325 29.9723 15.1285L26.8246 27.4163L14.5368 30.564ZM79.821 27.9438C73.5104 27.9438 67.4708 29.0655 61.8847 31.1171C59.811 31.8787 57.5126 30.815 56.751 28.7413C55.9894 26.6675 57.0531 24.3691 59.1268 23.6075C65.5831 21.2363 72.5556 19.9438 79.821 19.9438C112.973 19.9438 139.849 46.819 139.849 79.9713C139.849 113.124 112.973 139.999 79.821 139.999C46.6688 139.999 19.7935 113.124 19.7935 79.9713C19.7935 72.897 21.019 66.1002 23.2725 59.7871C24.0152 57.7065 26.3039 56.622 28.3845 57.3647C30.465 58.1073 31.5496 60.396 30.8069 62.4766C28.8571 67.9387 27.7935 73.8264 27.7935 79.9713C27.7935 108.705 51.087 131.999 79.821 131.999C108.555 131.999 131.849 108.705 131.849 79.9713C131.849 51.2373 108.555 27.9438 79.821 27.9438ZM79.8197 54.4614C76.4274 54.4614 73.1991 55.1214 70.249 56.3164C68.2015 57.1458 65.8693 56.1583 65.0399 54.1108C64.2105 52.0633 65.198 49.7311 67.2455 48.9017C71.1335 47.3267 75.3805 46.4614 79.8197 46.4614C98.326 46.4614 113.328 61.4637 113.328 79.97C113.328 98.4763 98.326 113.479 79.8197 113.479C61.3134 113.479 46.3111 98.4763 46.3111 79.97C46.3111 75.8337 47.0624 71.8638 48.4395 68.1953C49.2158 66.1271 51.5218 65.0798 53.59 65.8562C55.6583 66.6326 56.7055 68.9386 55.9292 71.0068C54.8844 73.79 54.3111 76.8084 54.3111 79.97C54.3111 94.058 65.7317 105.479 79.8197 105.479C93.9077 105.479 105.328 94.058 105.328 79.97C105.328 65.8819 93.9077 54.4614 79.8197 54.4614ZM70.6822 85.6263C78.4113 84.9063 84.5633 78.7533 85.282 71.0239C88.3727 72.8852 90.4399 76.2732 90.4399 80.144C90.4399 86.0195 85.6768 90.7826 79.8013 90.7826C75.9312 90.7826 72.5437 88.7161 70.6822 85.6263Z" fill="white"/>
</clipPath>
<g clip-path="url(#mask0_5481_90064)">
<g clip-path="url(#clip1_5481_90064)">
<rect width="160" height="160" rx="5.125" fill="#FFECCF"/>
<rect width="160" height="160" fill="#FFECCF"/>
<circle cx="90.4677" cy="6.20574" r="69.6087" transform="rotate(-0.0800682 90.4677 6.20574)" fill="url(#paint0_radial_5481_90064)"/>
<path d="M61.0698 -28.2626C48.782 -35.8663 33.2133 -35.9129 20.8798 -28.3828L-102.478 46.9353C-114.559 54.3119 -114.579 71.7234 -102.514 79.1279L20.0281 154.339C32.3432 161.896 47.9119 161.887 60.2163 154.312L182.506 79.0306C194.507 71.6419 194.529 54.3277 182.543 46.9111L61.0698 -28.2626Z" fill="url(#paint1_linear_5481_90064)"/>
<path d="M23.0583 75.9646C25.793 16.2319 76.4328 -29.9741 136.166 -27.2395C195.898 -24.5048 242.104 26.1351 239.37 85.8678C236.635 145.601 185.995 191.807 126.262 189.072C66.5296 186.337 20.3236 135.697 23.0583 75.9646Z" fill="url(#paint2_linear_5481_90064)"/>
<path d="M-64.8253 115.35C-41.0814 105.221 -15.474 105.655 6.71169 114.515C51.1056 132.288 76.9371 121.299 94.8534 77.0069C103.778 54.7811 121.201 35.958 144.972 25.8174C192.497 5.57391 247.364 27.5395 267.579 74.9246C287.793 122.31 265.667 177.09 218.153 197.36C194.329 207.523 168.673 207.047 146.453 198.107C102.131 180.429 76.3488 191.459 58.4551 235.805C49.5082 257.978 32.0886 276.736 8.34476 286.866C-39.1429 307.124 -94.0093 285.159 -114.213 237.8C-134.416 190.441 -112.313 135.609 -64.8253 115.35Z" fill="url(#paint3_linear_5481_90064)"/>
<circle cx="150.675" cy="28.9059" r="69.6087" transform="rotate(-0.0800682 150.675 28.9059)" fill="url(#paint4_radial_5481_90064)"/>
</g>
</g>
</g>

</svg>
