<svg width="48" height="48" viewBox="0 0 48 48" xmlns="http://www.w3.org/2000/svg">
  <defs>
<radialGradient id="paint0_radial_5481_99492" cx="0" cy="0" r="1" gradientUnits="userSpaceOnUse" gradientTransform="translate(27.1423 1.86222) rotate(90) scale(20.8826)">
<stop offset="0.166667" stop-color="#FF709F"/>
<stop offset="1" stop-color="#FF709F" stop-opacity="0"/>
</radialGradient>
<linearGradient id="paint1_linear_5481_99492" x1="-12.0622" y1="42.8952" x2="65.9766" y2="-4.58296" gradientUnits="userSpaceOnUse">
<stop offset="0.0598452" stop-color="#8480FE"/>
<stop offset="0.599632" stop-color="#8480FE" stop-opacity="0"/>
</linearGradient>
<linearGradient id="paint2_linear_5481_99492" x1="50.5621" y1="8.84155" x2="17.0836" y2="44.8401" gradientUnits="userSpaceOnUse">
<stop stop-color="#EB1000"/>
<stop offset="1" stop-color="#EB1000" stop-opacity="0"/>
</linearGradient>
<linearGradient id="paint3_linear_5481_99492" x1="9.87765" y1="49.8089" x2="69.2259" y2="16.5628" gradientUnits="userSpaceOnUse">
<stop stop-color="#FC7D00" stop-opacity="0"/>
<stop offset="0.432292" stop-color="#FC7D00"/>
<stop offset="0.609375" stop-color="#FC7D00"/>
<stop offset="1" stop-color="#FC7D00" stop-opacity="0"/>
</linearGradient>
<radialGradient id="paint4_radial_5481_99492" cx="0" cy="0" r="1" gradientUnits="userSpaceOnUse" gradientTransform="translate(45.2009 8.67178) rotate(90) scale(20.8826)">
<stop offset="0.166667" stop-color="#EB1000"/>
<stop offset="1" stop-color="#EB1000" stop-opacity="0"/>
</radialGradient>
<clipPath id="clip0_5481_99492">
<rect width="48" height="48" rx="5.125" fill="white"/>
</clipPath>
</defs>
<clipPath id="mask0_5481_99492">
<path fill-rule="evenodd" d="M14.1406 16.0261H10.1094C9.0048 16.0261 8.10938 16.9215 8.10938 18.0261V30.0372C8.10938 31.1418 9.00481 32.0372 10.1094 32.0372H14.1406L14.1406 16.0261ZM16.6406 14.5206L16.6406 33.5277L21.543 38.3396C22.4919 39.2709 24.0937 38.5987 24.0937 37.2691L24.0938 10.7305C24.0938 9.39728 22.4844 8.72664 21.5376 9.66535L16.6406 14.5206ZM27.3823 17.2357C27.7974 16.6841 28.581 16.5734 29.1327 16.9885C31.2476 18.58 32.6191 21.1154 32.6191 23.9706C32.6191 26.8493 31.2251 29.4026 29.0806 30.9916C28.5259 31.4026 27.7431 31.2862 27.3321 30.7315C26.9211 30.1768 27.0376 29.394 27.5922 28.983C29.1278 27.8452 30.1191 26.0238 30.1191 23.9706C30.1191 21.9341 29.1438 20.1257 27.6294 18.9861C27.0778 18.571 26.9671 17.7873 27.3823 17.2357ZM34.1349 12.4241C33.5832 12.009 32.7996 12.1196 32.3845 12.6712C31.9694 13.2229 32.08 14.0065 32.6316 14.4216C35.5264 16.6 37.3944 20.0607 37.3944 23.958C37.3944 27.8871 35.4958 31.3725 32.5605 33.5474C32.0058 33.9584 31.8894 34.7413 32.3004 35.2959C32.7114 35.8506 33.4942 35.9671 34.0489 35.5561C37.5931 32.9299 39.8944 28.7126 39.8944 23.958C39.8944 19.242 37.6302 15.0544 34.1349 12.4241Z" fill="#292929"/>
</clipPath>
<g clip-path="url(#mask0_5481_99492)">
<g clip-path="url(#clip0_5481_99492)">
<rect width="48" height="48" rx="5.125" fill="#FFECCF"/>
<rect width="48" height="48" fill="#FFECCF"/>
<circle cx="27.1423" cy="1.86221" r="20.8826" transform="rotate(-0.0800682 27.1423 1.86221)" fill="url(#paint0_radial_5481_99492)"/>
<path d="M18.3213 -8.47858C14.635 -10.7597 9.96439 -10.7737 6.26433 -8.51465L-30.7429 14.0808C-34.3673 16.2938 -34.3733 21.5172 -30.7539 23.7386L6.00883 46.302C9.70335 48.5691 14.374 48.5664 18.0653 46.2939L54.7523 23.7094C58.3526 21.4928 58.3591 16.2985 54.7632 14.0735L18.3213 -8.47858Z" fill="url(#paint1_linear_5481_99492)"/>
<path d="M6.91632 22.7894C7.73673 4.86956 22.9287 -8.99224 40.8485 -8.17184C58.7683 -7.35143 72.6301 7.84053 71.8097 25.7603C70.9893 43.6802 55.7973 57.542 37.8775 56.7215C19.9577 55.9011 6.09591 40.7092 6.91632 22.7894Z" fill="url(#paint2_linear_5481_99492)"/>
<path d="M-19.4476 34.6052C-12.3244 31.5664 -4.64218 31.6967 2.01351 34.3546C15.3317 39.6865 23.0811 36.39 28.456 23.1023C31.1333 16.4345 36.3604 10.7876 43.4915 7.74541C57.7492 1.67237 74.2091 8.26203 80.2736 22.4776C86.338 36.6931 79.7002 53.1271 65.4459 59.2081C58.2988 62.2571 50.6018 62.1143 43.9359 59.4324C30.6393 54.129 22.9046 57.438 17.5365 70.7417C14.8525 77.3935 9.62658 83.0211 2.50343 86.0599C-11.7429 92.1375 -28.2028 85.5478 -34.2639 71.3402C-40.3249 57.1326 -33.6939 40.6828 -19.4476 34.6052Z" fill="url(#paint3_linear_5481_99492)"/>
<circle cx="45.2009" cy="8.67178" r="20.8826" transform="rotate(-0.0800682 45.2009 8.67178)" fill="url(#paint4_radial_5481_99492)"/>
</g>
</g>

</svg>
