<svg width="48" height="48" viewBox="0 0 48 48" xmlns="http://www.w3.org/2000/svg">
  <defs>
<radialGradient id="paint0_radial_5481_99669" cx="0" cy="0" r="1" gradientUnits="userSpaceOnUse" gradientTransform="translate(27.1423 1.86222) rotate(90) scale(20.8826)">
<stop offset="0.166667" stop-color="#FF709F"/>
<stop offset="1" stop-color="#FF709F" stop-opacity="0"/>
</radialGradient>
<linearGradient id="paint1_linear_5481_99669" x1="-12.0622" y1="42.8952" x2="65.9766" y2="-4.58296" gradientUnits="userSpaceOnUse">
<stop offset="0.0598452" stop-color="#8480FE"/>
<stop offset="0.599632" stop-color="#8480FE" stop-opacity="0"/>
</linearGradient>
<linearGradient id="paint2_linear_5481_99669" x1="50.5621" y1="8.84155" x2="17.0836" y2="44.8401" gradientUnits="userSpaceOnUse">
<stop stop-color="#EB1000"/>
<stop offset="1" stop-color="#EB1000" stop-opacity="0"/>
</linearGradient>
<linearGradient id="paint3_linear_5481_99669" x1="9.87765" y1="49.8089" x2="69.2259" y2="16.5628" gradientUnits="userSpaceOnUse">
<stop stop-color="#FC7D00" stop-opacity="0"/>
<stop offset="0.432292" stop-color="#FC7D00"/>
<stop offset="0.609375" stop-color="#FC7D00"/>
<stop offset="1" stop-color="#FC7D00" stop-opacity="0"/>
</linearGradient>
<radialGradient id="paint4_radial_5481_99669" cx="0" cy="0" r="1" gradientUnits="userSpaceOnUse" gradientTransform="translate(45.2009 8.67178) rotate(90) scale(20.8826)">
<stop offset="0.166667" stop-color="#EB1000"/>
<stop offset="1" stop-color="#EB1000" stop-opacity="0"/>
</radialGradient>
<clipPath id="clip0_5481_99669">
<rect width="48" height="48" rx="5.125" fill="white"/>
</clipPath>
</defs>
<clipPath id="mask0_5481_99669">
<path fill-rule="evenodd" d="M6.74609 7.82617C6.05574 7.82617 5.49609 8.38582 5.49609 9.07617C5.49609 9.76653 6.05574 10.3262 6.74609 10.3262C6.80512 10.3262 6.92609 10.327 7.10516 10.3282L7.10573 10.3282C7.26657 10.3292 7.47422 10.3306 7.72589 10.332C8.25138 10.3348 8.95489 10.3376 9.78301 10.3373C10.6555 10.337 11.3954 10.9649 11.5353 11.8133L14.4803 29.6738C14.8188 31.7265 16.5934 33.2324 18.6737 33.2324H34.8427C35.5331 33.2324 36.0927 32.6727 36.0927 31.9824C36.0927 31.292 35.5331 30.7324 34.8427 30.7324H18.6737C17.8171 30.7324 17.0864 30.1123 16.947 29.2671L16.3673 25.7514H33.5891C35.1416 25.7514 36.4772 24.6535 36.7777 23.1304L38.0126 16.8695C38.4076 14.8665 36.8811 12.9959 34.8347 12.991C27.8114 12.9742 17.2883 12.9574 14.2625 12.9865L14.0019 11.4065C13.6608 9.33796 11.866 7.83659 9.78211 7.83735C8.96012 7.83765 8.26167 7.83486 7.73959 7.832C7.50452 7.83072 7.30222 7.82939 7.14027 7.82833L7.14022 7.82833L7.1401 7.82833C6.94719 7.82706 6.81158 7.82617 6.74609 7.82617ZM20.5049 39C20.5049 40.3807 19.3856 41.5 18.0049 41.5C16.6242 41.5 15.5049 40.3807 15.5049 39C15.5049 37.6193 16.6242 36.5 18.0049 36.5C19.3856 36.5 20.5049 37.6193 20.5049 39ZM32.9668 41.5C34.3475 41.5 35.4668 40.3807 35.4668 39C35.4668 37.6193 34.3475 36.5 32.9668 36.5C31.5861 36.5 30.4668 37.6193 30.4668 39C30.4668 40.3807 31.5861 41.5 32.9668 41.5Z" fill="white"/>
</clipPath>
<g clip-path="url(#mask0_5481_99669)">
<g clip-path="url(#clip0_5481_99669)">
<rect width="48" height="48" rx="5.125" fill="#FFECCF"/>
<rect width="48" height="48" fill="#FFECCF"/>
<circle cx="27.1423" cy="1.86221" r="20.8826" transform="rotate(-0.0800682 27.1423 1.86221)" fill="url(#paint0_radial_5481_99669)"/>
<path d="M18.3213 -8.47858C14.635 -10.7597 9.96439 -10.7737 6.26433 -8.51465L-30.7429 14.0808C-34.3673 16.2938 -34.3733 21.5172 -30.7539 23.7386L6.00883 46.302C9.70335 48.5691 14.374 48.5664 18.0653 46.2939L54.7523 23.7094C58.3526 21.4928 58.3591 16.2985 54.7632 14.0735L18.3213 -8.47858Z" fill="url(#paint1_linear_5481_99669)"/>
<path d="M6.91632 22.7894C7.73673 4.86956 22.9287 -8.99224 40.8485 -8.17184C58.7683 -7.35143 72.6301 7.84053 71.8097 25.7603C70.9893 43.6802 55.7973 57.542 37.8775 56.7215C19.9577 55.9011 6.09591 40.7092 6.91632 22.7894Z" fill="url(#paint2_linear_5481_99669)"/>
<path d="M-19.4476 34.6052C-12.3244 31.5664 -4.64218 31.6967 2.01351 34.3546C15.3317 39.6865 23.0811 36.39 28.456 23.1023C31.1333 16.4345 36.3604 10.7876 43.4915 7.74541C57.7492 1.67237 74.2091 8.26203 80.2736 22.4776C86.338 36.6931 79.7002 53.1271 65.4459 59.2081C58.2988 62.2571 50.6018 62.1143 43.9359 59.4324C30.6393 54.129 22.9046 57.438 17.5365 70.7417C14.8525 77.3935 9.62658 83.0211 2.50343 86.0599C-11.7429 92.1375 -28.2028 85.5478 -34.2639 71.3402C-40.3249 57.1326 -33.6939 40.6828 -19.4476 34.6052Z" fill="url(#paint3_linear_5481_99669)"/>
<circle cx="45.2009" cy="8.67178" r="20.8826" transform="rotate(-0.0800682 45.2009 8.67178)" fill="url(#paint4_radial_5481_99669)"/>
</g>
</g>

</svg>
