<svg width="160" height="160" viewBox="0 0 160 160" xmlns="http://www.w3.org/2000/svg">
  <defs>
<radialGradient id="paint0_radial_5481_90186" cx="0" cy="0" r="1" gradientUnits="userSpaceOnUse" gradientTransform="translate(90.4677 6.20574) rotate(90) scale(69.6088)">
<stop offset="0.166667" stop-color="#FF709F"/>
<stop offset="1" stop-color="#FF709F" stop-opacity="0"/>
</radialGradient>
<linearGradient id="paint1_linear_5481_90186" x1="-40.2086" y1="142.982" x2="219.921" y2="-15.2781" gradientUnits="userSpaceOnUse">
<stop offset="0.0598452" stop-color="#8480FE"/>
<stop offset="0.599632" stop-color="#8480FE" stop-opacity="0"/>
</linearGradient>
<linearGradient id="paint2_linear_5481_90186" x1="168.544" y1="29.4718" x2="56.9494" y2="149.467" gradientUnits="userSpaceOnUse">
<stop stop-color="#EB1000"/>
<stop offset="1" stop-color="#EB1000" stop-opacity="0"/>
</linearGradient>
<linearGradient id="paint3_linear_5481_90186" x1="32.9255" y1="166.029" x2="230.753" y2="55.2086" gradientUnits="userSpaceOnUse">
<stop stop-color="#FC7D00" stop-opacity="0"/>
<stop offset="0.432292" stop-color="#FC7D00"/>
<stop offset="0.609375" stop-color="#FC7D00"/>
<stop offset="1" stop-color="#FC7D00" stop-opacity="0"/>
</linearGradient>
<radialGradient id="paint4_radial_5481_90186" cx="0" cy="0" r="1" gradientUnits="userSpaceOnUse" gradientTransform="translate(150.675 28.9059) rotate(90) scale(69.6088)">
<stop offset="0.166667" stop-color="#EB1000"/>
<stop offset="1" stop-color="#EB1000" stop-opacity="0"/>
</radialGradient>
<clipPath id="clip0_5481_90186">
<rect width="160" height="160" rx="5.125" fill="white"/>
</clipPath>
</defs>
<clipPath id="mask0_5481_90186">
<path fill-rule="evenodd" d="M72.3301 72.5024C74.5393 72.4973 76.326 70.7023 76.3209 68.4932L76.2636 43.6275C76.2585 41.4184 74.4635 39.6316 72.2544 39.6367C70.0453 39.6418 68.2585 41.4368 68.2636 43.6459L68.2985 58.7597C61.6584 51.7809 52.2746 47.4233 41.8723 47.4233C21.7305 47.4233 5.40234 63.7514 5.40234 83.8932C5.40234 104.035 21.7305 120.363 41.8723 120.363C50.2274 120.363 57.9365 117.549 64.0874 112.818C64.1806 112.747 64.2697 112.672 64.3547 112.594C64.3954 112.564 64.4357 112.534 64.4756 112.503C69.0061 108.946 73.2225 103.783 76.5174 99.0605C79.8275 94.3163 82.4204 89.7066 83.6353 87.0253C84.5798 84.9408 86.9196 79.9845 90.0148 74.7796C92.6803 70.2974 95.7158 65.9613 98.7182 63.0428C98.8112 62.972 98.902 62.8966 98.9901 62.8165C104.049 58.2198 110.758 55.4233 118.13 55.4233C133.853 55.4233 146.6 68.1697 146.6 83.8932C146.6 99.6167 133.853 112.363 118.13 112.363C108.515 112.363 100.012 107.601 94.8509 100.288C93.5771 98.4831 91.0813 98.0526 89.2764 99.3264C87.4715 100.6 87.0409 103.096 88.3148 104.901C94.9103 114.246 105.805 120.363 118.13 120.363C138.271 120.363 154.6 104.035 154.6 83.8932C154.6 63.7514 138.271 47.4233 118.13 47.4233C109.787 47.4233 102.092 50.2287 95.9475 54.9428C95.7704 55.0429 95.5987 55.1577 95.4341 55.2876C90.6779 59.0384 86.3771 65.245 83.1388 70.6905C79.8344 76.2472 77.3575 81.4966 76.3485 83.7235C75.3809 85.8588 73.0562 90.0402 69.9565 94.4829C66.8415 98.9474 63.156 103.368 59.5353 106.21C59.4537 106.274 59.3752 106.341 59.2999 106.41C59.2699 106.432 59.2401 106.454 59.2105 106.477C54.4087 110.17 48.4024 112.363 41.8723 112.363C26.1488 112.363 13.4023 99.6167 13.4023 83.8932C13.4023 68.1697 26.1488 55.4233 41.8723 55.4233C50.1122 55.4233 57.5359 58.9213 62.7387 64.5244L47.446 64.5597C45.2369 64.5648 43.4502 66.3598 43.4553 68.5689C43.4604 70.778 45.2553 72.5647 47.4645 72.5597L72.3301 72.5024Z" fill="white"/>
</clipPath>
<g clip-path="url(#mask0_5481_90186)">
<g clip-path="url(#clip0_5481_90186)">
<rect width="160" height="160" rx="5.125" fill="#FFECCF"/>
<rect width="160" height="160" fill="#FFECCF"/>
<circle cx="90.4677" cy="6.20574" r="69.6087" transform="rotate(-0.0800682 90.4677 6.20574)" fill="url(#paint0_radial_5481_90186)"/>
<path d="M61.0698 -28.2636C48.782 -35.8673 33.2133 -35.9139 20.8798 -28.3838L-102.478 46.9343C-114.559 54.3109 -114.579 71.7224 -102.514 79.1269L20.0281 154.338C32.3432 161.895 47.9119 161.887 60.2163 154.311L182.506 79.0296C194.507 71.6409 194.529 54.3267 182.543 46.9101L61.0698 -28.2636Z" fill="url(#paint1_linear_5481_90186)"/>
<path d="M23.0583 75.9646C25.793 16.2319 76.4328 -29.9741 136.166 -27.2395C195.898 -24.5048 242.104 26.1351 239.37 85.8678C236.635 145.601 185.995 191.807 126.262 189.072C66.5296 186.337 20.3236 135.697 23.0583 75.9646Z" fill="url(#paint2_linear_5481_90186)"/>
<path d="M-64.8253 115.35C-41.0814 105.221 -15.474 105.655 6.71169 114.515C51.1056 132.288 76.9371 121.299 94.8534 77.0069C103.778 54.7811 121.201 35.958 144.972 25.8174C192.497 5.57391 247.364 27.5395 267.579 74.9246C287.793 122.31 265.667 177.09 218.153 197.36C194.329 207.523 168.673 207.047 146.453 198.107C102.131 180.429 76.3488 191.459 58.4551 235.805C49.5082 257.978 32.0886 276.736 8.34476 286.866C-39.1429 307.124 -94.0093 285.159 -114.213 237.8C-134.416 190.441 -112.313 135.609 -64.8253 115.35Z" fill="url(#paint3_linear_5481_90186)"/>
<circle cx="150.675" cy="28.9059" r="69.6087" transform="rotate(-0.0800682 150.675 28.9059)" fill="url(#paint4_radial_5481_90186)"/>
</g>
</g>

</svg>
