<svg width="96" height="96" viewBox="0 0 96 96" xmlns="http://www.w3.org/2000/svg">
  <defs>
<radialGradient id="paint0_radial_5481_99362" cx="0" cy="0" r="1" gradientUnits="userSpaceOnUse" gradientTransform="translate(36.9947 34.874) rotate(90) scale(34.874 36.9947)">
<stop offset="0.166667" stop-color="#FF709F"/>
<stop offset="1" stop-color="#FF709F" stop-opacity="0"/>
</radialGradient>
<linearGradient id="paint1_linear_5481_99362" x1="-15.1661" y1="76.4343" x2="118.557" y2="-9.86886" gradientUnits="userSpaceOnUse">
<stop offset="0.0598452" stop-color="#8480FE"/>
<stop offset="0.599632" stop-color="#8480FE" stop-opacity="0"/>
</linearGradient>
<linearGradient id="paint2_linear_5481_99362" x1="95.7794" y1="19.5655" x2="40.2051" y2="82.9572" gradientUnits="userSpaceOnUse">
<stop stop-color="#EB1000"/>
<stop offset="1" stop-color="#EB1000" stop-opacity="0"/>
</linearGradient>
<linearGradient id="paint3_linear_5481_99362" x1="23.7035" y1="87.9804" x2="125.786" y2="27.3174" gradientUnits="userSpaceOnUse">
<stop stop-color="#FC7D00" stop-opacity="0"/>
<stop offset="0.432292" stop-color="#FC7D00"/>
<stop offset="0.609375" stop-color="#FC7D00"/>
<stop offset="1" stop-color="#FC7D00" stop-opacity="0"/>
</linearGradient>
<radialGradient id="paint4_radial_5481_99362" cx="0" cy="0" r="1" gradientUnits="userSpaceOnUse" gradientTransform="translate(36.9947 34.874) rotate(90) scale(34.874 36.9947)">
<stop offset="0.166667" stop-color="#EB1000"/>
<stop offset="1" stop-color="#EB1000" stop-opacity="0"/>
</radialGradient>
<clipPath id="clip0_5481_99362">
<rect x="6.20312" y="4.7998" width="85.0346" height="80.16" rx="2.07674" fill="white"/>
</clipPath>
</defs>
<clipPath id="mask0_5481_99362">
<path fill-rule="evenodd" d="M84.0735 25.14C84.6735 23.958 86.1195 23.49 87.3015 24.09H87.3075C88.4895 24.69 88.9575 26.136 88.3575 27.318L81.7695 40.26C81.3435 41.094 80.5035 41.574 79.6275 41.574C79.2855 41.574 78.9435 41.496 78.6135 41.346L65.9115 35.424C64.7055 34.86 64.1835 33.432 64.7475 32.232C65.3115 31.032 66.7395 30.51 67.9395 31.074L76.2375 34.944C71.1435 24.114 60.0435 16.968 47.9715 16.968C34.1895 16.968 21.8715 26.196 18.0135 39.408C17.7075 40.458 16.7475 41.136 15.7095 41.136C15.4875 41.136 15.2595 41.106 15.0375 41.04C13.7655 40.668 13.0335 39.336 13.4055 38.064C17.8575 22.818 32.0715 12.168 47.9715 12.168C61.7295 12.168 74.3895 20.208 80.3595 32.442L84.0735 25.14ZM77.8819 56.934C78.2539 55.662 79.5859 54.93 80.8579 55.302V55.308C82.1299 55.68 82.8619 57.012 82.4899 58.284C78.0379 73.53 63.8239 84.18 47.9239 84.18C34.2319 84.18 21.6259 76.212 15.6199 64.074L11.9299 71.328C11.5039 72.162 10.6639 72.642 9.78789 72.642C9.42189 72.642 9.04989 72.558 8.70189 72.378C7.51989 71.778 7.05189 70.332 7.65189 69.15L14.2399 56.202C14.8279 55.05 16.2259 54.57 17.3959 55.116L30.0979 61.038C31.3039 61.602 31.8199 63.03 31.2619 64.23C30.6979 65.43 29.2699 65.946 28.0699 65.388L19.6999 61.482C24.8059 72.27 35.8819 79.374 47.9239 79.374C61.7059 79.374 74.0239 70.146 77.8819 56.934Z" fill="white"/>
<path d="M87.3015 24.09L87.0299 24.625L87.1579 24.69H87.3015V24.09ZM84.0735 25.14L84.6083 25.412L84.6085 25.4116L84.0735 25.14ZM87.3075 24.09L87.5791 23.555L87.4511 23.49H87.3075V24.09ZM88.3575 27.318L88.8922 27.5902L88.8925 27.5895L88.3575 27.318ZM81.7695 40.26L82.3038 40.5329L82.3042 40.5322L81.7695 40.26ZM78.6135 41.346L78.3599 41.8898L78.3652 41.8922L78.6135 41.346ZM65.9115 35.424L65.6573 35.9675L65.658 35.9678L65.9115 35.424ZM64.7475 32.232L64.2045 31.9768L64.2045 31.9768L64.7475 32.232ZM67.9395 31.074L67.6843 31.617L67.6859 31.6177L67.9395 31.074ZM76.2375 34.944L75.9839 35.4877L77.4858 36.1882L76.7804 34.6886L76.2375 34.944ZM18.0135 39.408L17.4375 39.2398L17.4375 39.2401L18.0135 39.408ZM15.0375 41.04L15.2085 40.4648L15.2059 40.4641L15.0375 41.04ZM13.4055 38.064L13.9814 38.2324L13.9814 38.2321L13.4055 38.064ZM80.3595 32.442L79.8203 32.7051L80.3484 33.7873L80.8943 32.714L80.3595 32.442ZM80.8579 55.302H81.4579V54.8523L81.0263 54.7261L80.8579 55.302ZM77.8819 56.934L77.306 56.7655L77.3059 56.7658L77.8819 56.934ZM80.8579 55.308H80.2579V55.7576L80.6895 55.8838L80.8579 55.308ZM82.4899 58.284L81.914 58.1156L81.9139 58.1158L82.4899 58.284ZM15.6199 64.074L16.1577 63.8079L15.6273 62.736L15.0851 63.8019L15.6199 64.074ZM11.9299 71.328L12.4642 71.6009L12.4647 71.6L11.9299 71.328ZM8.70189 72.378L8.97754 71.845L8.97347 71.843L8.70189 72.378ZM7.65189 69.15L7.11713 68.8779L7.11687 68.8784L7.65189 69.15ZM14.2399 56.202L13.7055 55.9292L13.7051 55.9299L14.2399 56.202ZM17.3959 55.116L17.1422 55.6597L17.1424 55.6598L17.3959 55.116ZM30.0979 61.038L30.3521 60.4945L30.3514 60.4942L30.0979 61.038ZM31.2619 64.23L31.8049 64.4852L31.8059 64.483L31.2619 64.23ZM28.0699 65.388L27.8162 65.9317L27.8169 65.932L28.0699 65.388ZM19.6999 61.482L19.9536 60.9383L18.4457 60.2345L19.1576 61.7387L19.6999 61.482ZM87.5731 23.555C86.0973 22.8058 84.2893 23.3892 83.5385 24.8684L84.6085 25.4116C85.0577 24.5267 86.1417 24.1741 87.0299 24.625L87.5731 23.555ZM87.3075 23.49H87.3015V24.69H87.3075V23.49ZM88.8925 27.5895C89.6417 26.1137 89.0582 24.3058 87.5791 23.555L87.0359 24.625C87.9208 25.0742 88.2733 26.1582 87.8225 27.0464L88.8925 27.5895ZM82.3042 40.5322L88.8922 27.5902L87.8228 27.0458L81.2348 39.9878L82.3042 40.5322ZM79.6275 42.174C80.7217 42.174 81.772 41.574 82.3038 40.5329L81.2352 39.987C80.9149 40.6139 80.2853 40.974 79.6275 40.974V42.174ZM78.3652 41.8922C78.7666 42.0747 79.1929 42.174 79.6275 42.174V40.974C79.3781 40.974 79.1204 40.9173 78.8618 40.7998L78.3652 41.8922ZM65.658 35.9678L78.36 41.8898L78.867 40.8022L66.165 34.8802L65.658 35.9678ZM64.2045 31.9768C63.4979 33.48 64.1537 35.2643 65.6573 35.9675L66.1657 34.8805C65.2572 34.4556 64.8691 33.3839 65.2905 32.4872L64.2045 31.9768ZM68.1947 30.531C66.692 29.8247 64.9081 30.4797 64.2045 31.9768L65.2905 32.4872C65.7149 31.5843 66.787 31.1953 67.6843 31.617L68.1947 30.531ZM76.4911 34.4002L68.1931 30.5302L67.6859 31.6177L75.9839 35.4877L76.4911 34.4002ZM47.9715 17.568C59.8087 17.568 70.6985 24.5776 75.6946 35.1993L76.7804 34.6886C71.5885 23.6503 60.2783 16.368 47.9715 16.368V17.568ZM18.5894 39.5762C22.3726 26.6205 34.4557 17.568 47.9715 17.568V16.368C33.9233 16.368 21.3704 25.7715 17.4375 39.2398L18.5894 39.5762ZM15.7095 41.736C17.0058 41.736 18.2066 40.8899 18.5895 39.5758L17.4375 39.2401C17.2084 40.026 16.4892 40.536 15.7095 40.536V41.736ZM14.8665 41.6151C15.1481 41.6988 15.434 41.736 15.7095 41.736V40.536C15.5409 40.536 15.3709 40.5131 15.2085 40.4649L14.8665 41.6151ZM12.8296 37.8955C12.3643 39.4867 13.2801 41.1512 14.8691 41.6159L15.2059 40.4641C14.2509 40.1848 13.7027 39.1853 13.9814 38.2324L12.8296 37.8955ZM47.9715 11.568C31.8052 11.568 17.3564 22.3935 12.8295 37.8958L13.9814 38.2321C18.3586 23.2424 32.3377 12.768 47.9715 12.768V11.568ZM80.8987 32.1788C74.8293 19.741 61.9614 11.568 47.9715 11.568V12.768C61.4976 12.768 73.9497 20.6749 79.8203 32.7051L80.8987 32.1788ZM83.5387 24.868L79.8247 32.17L80.8943 32.714L84.6083 25.412L83.5387 24.868ZM81.0263 54.7261C79.4352 54.2608 77.7707 55.1766 77.306 56.7655L78.4578 57.1024C78.7371 56.1473 79.7366 55.5992 80.6895 55.8778L81.0263 54.7261ZM81.4579 55.308V55.302H80.2579V55.308H81.4579ZM83.0658 58.4524C83.5311 56.8613 82.6153 55.1968 81.0263 54.7321L80.6895 55.8838C81.6445 56.1632 82.1927 57.1627 81.914 58.1156L83.0658 58.4524ZM47.9239 84.78C64.0901 84.78 78.539 73.9544 83.0658 58.4522L81.9139 58.1158C77.5368 73.1055 63.5576 83.58 47.9239 83.58V84.78ZM15.0821 64.3401C21.188 76.68 34.0009 84.78 47.9239 84.78V83.58C34.4629 83.58 22.0637 75.7439 16.1577 63.8079L15.0821 64.3401ZM12.4647 71.6L16.1547 64.346L15.0851 63.8019L11.3951 71.0559L12.4647 71.6ZM9.78789 73.242C10.882 73.242 11.9324 72.642 12.4642 71.6009L11.3956 71.055C11.0753 71.6819 10.4457 72.042 9.78789 72.042V73.242ZM8.42624 72.9109C8.8626 73.1366 9.32959 73.242 9.78789 73.242V72.042C9.51418 72.042 9.23717 71.9793 8.97753 71.845L8.42624 72.9109ZM7.11687 68.8784C6.36772 70.3542 6.95116 72.1621 8.4303 72.913L8.97347 71.843C8.08861 71.3938 7.73605 70.3097 8.1869 69.4215L7.11687 68.8784ZM13.7051 55.9299L7.11713 68.8779L8.18665 69.4221L14.7746 56.4741L13.7051 55.9299ZM17.6496 54.5723C16.1867 53.8896 14.4403 54.4895 13.7055 55.9292L14.7743 56.4747C15.2154 55.6104 16.2651 55.2504 17.1422 55.6597L17.6496 54.5723ZM30.3514 60.4942L17.6494 54.5722L17.1424 55.6598L29.8444 61.5818L30.3514 60.4942ZM31.8059 64.483C32.5033 62.9832 31.858 61.1988 30.3521 60.4945L29.8437 61.5815C30.7497 62.0052 31.1365 63.0767 30.7178 63.977L31.8059 64.483ZM27.8169 65.932C29.316 66.6291 31.1001 65.9847 31.8049 64.4852L30.7189 63.9748C30.2956 64.8752 29.2237 65.2628 28.3229 64.8439L27.8169 65.932ZM19.4462 62.0257L27.8162 65.9317L28.3236 64.8443L19.9536 60.9383L19.4462 62.0257ZM47.9239 78.774C36.1158 78.774 25.2498 71.8055 20.2422 61.2253L19.1576 61.7387C24.3619 72.7345 35.6479 79.974 47.9239 79.974V78.774ZM77.3059 56.7658C73.5228 69.7215 61.4397 78.774 47.9239 78.774V79.974C61.972 79.974 74.525 70.5705 78.4578 57.1021L77.3059 56.7658Z" fill="white"/>
</clipPath>
<g clip-path="url(#mask0_5481_99362)">
<g clip-path="url(#clip0_5481_99362)">
<rect x="6.20312" y="4.7998" width="85.0346" height="80.16" rx="2.07674" fill="#FFECCF"/>
<rect width="85.0346" height="80.16" transform="translate(6.20312 4.7998)" fill="#FFECCF"/>
<ellipse cx="36.9947" cy="34.874" rx="36.9947" ry="34.874" transform="matrix(0.999999 -0.00131734 0.00148243 0.999999 17.2383 -26.916)" fill="url(#paint0_radial_5481_99362)"/>
<path d="M38.66 -9.35994C32.1294 -13.1694 23.8552 -13.1927 17.3003 -9.42017L-48.26 28.3142C-54.6808 32.0099 -54.6915 40.733 -48.2794 44.4427L16.8477 82.1235C23.3927 85.9097 31.667 85.9052 38.2063 82.11L103.199 44.3939C109.577 40.6922 109.589 32.0178 103.219 28.3021L38.66 -9.35994Z" fill="url(#paint1_linear_5481_99362)"/>
<path d="M18.4586 42.8584C19.912 12.9323 46.8253 -10.2169 78.5712 -8.84683C110.317 -7.47675 134.874 17.8938 133.421 47.8199C131.967 77.746 105.054 100.895 73.308 99.5251C41.5621 98.155 17.0052 72.7845 18.4586 42.8584Z" fill="url(#paint2_linear_5481_99362)"/>
<path d="M-28.2477 62.5902C-15.6286 57.5154 -2.01914 57.733 9.77178 62.1718C33.3656 71.0761 47.0942 65.5708 56.6161 43.3804C61.359 32.2453 70.6191 22.8149 83.2523 17.7344C108.511 7.59246 137.67 18.5972 148.414 42.3372C159.157 66.0771 147.398 93.5218 122.146 103.677C109.484 108.769 95.8485 108.53 84.0395 104.052C60.4839 95.195 46.7815 100.721 37.2716 122.938C32.5167 134.047 23.2587 143.445 10.6397 148.52C-14.5984 158.669 -43.758 147.664 -54.4955 123.938C-65.233 100.211 -53.4858 72.7398 -28.2477 62.5902Z" fill="url(#paint3_linear_5481_99362)"/>
<ellipse cx="36.9947" cy="34.874" rx="36.9947" ry="34.874" transform="matrix(0.999999 -0.00131734 0.00148243 0.999999 49.2344 -15.543)" fill="url(#paint4_radial_5481_99362)"/>
</g>
</g>

</svg>
