<svg width="48" height="48" viewBox="0 0 48 48" xmlns="http://www.w3.org/2000/svg">
  <defs>
<radialGradient id="paint0_radial_5481_99345" cx="0" cy="0" r="1" gradientUnits="userSpaceOnUse" gradientTransform="translate(26.1346 2.91104) rotate(90) scale(19.1859 19.1859)">
<stop offset="0.166667" stop-color="#FF709F"/>
<stop offset="1" stop-color="#FF709F" stop-opacity="0"/>
</radialGradient>
<linearGradient id="paint1_linear_5481_99345" x1="-9.88319" y1="40.6096" x2="61.815" y2="-3.01096" gradientUnits="userSpaceOnUse">
<stop offset="0.0598452" stop-color="#8480FE"/>
<stop offset="0.599632" stop-color="#8480FE" stop-opacity="0"/>
</linearGradient>
<linearGradient id="paint2_linear_5481_99345" x1="47.656" y1="9.3232" x2="16.8977" y2="42.3969" gradientUnits="userSpaceOnUse">
<stop stop-color="#EB1000"/>
<stop offset="1" stop-color="#EB1000" stop-opacity="0"/>
</linearGradient>
<linearGradient id="paint3_linear_5481_99345" x1="10.2754" y1="46.9617" x2="64.8016" y2="16.4169" gradientUnits="userSpaceOnUse">
<stop stop-color="#FC7D00" stop-opacity="0"/>
<stop offset="0.432292" stop-color="#FC7D00"/>
<stop offset="0.609375" stop-color="#FC7D00"/>
<stop offset="1" stop-color="#FC7D00" stop-opacity="0"/>
</linearGradient>
<radialGradient id="paint4_radial_5481_99345" cx="0" cy="0" r="1" gradientUnits="userSpaceOnUse" gradientTransform="translate(42.7283 9.16787) rotate(90) scale(19.1859 19.1859)">
<stop offset="0.166667" stop-color="#EB1000"/>
<stop offset="1" stop-color="#EB1000" stop-opacity="0"/>
</radialGradient>
<clipPath id="clip0_5481_99345">
<rect x="1.19922" y="1.2002" width="44.1" height="44.1" rx="1.33127" fill="white"/>
</clipPath>
</defs>
<clipPath id="mask0_5481_99345">
<path fill-rule="evenodd" d="M15.5228 6.58008H23.744C24.5873 6.58008 25.3959 6.91505 25.9922 7.5113L34.7278 16.2469C35.324 16.8431 35.659 17.6518 35.659 18.495V30.9555C35.659 32.7114 34.2355 34.1349 32.4796 34.1349H15.5228C13.7668 34.1349 12.3434 32.7114 12.3434 30.9555V9.75948C12.3434 8.00354 13.7668 6.58008 15.5228 6.58008ZM24.8219 15.7677C24.8232 15.1824 24.3498 14.7068 23.7645 14.7055C23.1792 14.7042 22.7036 15.1776 22.7023 15.7629L22.6789 26.2577L19.096 23.408C18.6379 23.0437 17.9712 23.1197 17.6068 23.5777C17.2425 24.0358 17.3185 24.7025 17.7766 25.0669L23.1144 29.3124C23.5027 29.6213 24.0535 29.6193 24.4397 29.3076L29.6999 25.0622C30.1553 24.6945 30.2266 24.0273 29.859 23.5718C29.4914 23.1164 28.8241 23.0451 28.3687 23.4127L24.7984 26.2943L24.8219 15.7677ZM6.72078 22.6573C6.72078 22.1271 7.15059 21.6973 7.68078 21.6973H9.44511C9.9753 21.6973 10.4051 21.2675 10.4051 20.7373C10.4051 20.2071 9.9753 19.7773 9.44511 19.7773H7.68078C6.0902 19.7773 4.80078 21.0667 4.80078 22.6573V24.3178C4.80078 24.848 5.23059 25.2778 5.76078 25.2778C6.29097 25.2778 6.72078 24.848 6.72078 24.3178V22.6573ZM38.5565 19.7773C38.0263 19.7773 37.5965 20.2071 37.5965 20.7373C37.5965 21.2675 38.0263 21.6973 38.5565 21.6973H40.3208C40.851 21.6973 41.2808 22.1271 41.2808 22.6573V24.3178C41.2808 24.848 41.7106 25.2778 42.2408 25.2778C42.771 25.2778 43.2008 24.848 43.2008 24.3178V22.6573C43.2008 21.0667 41.9114 19.7773 40.3208 19.7773H38.5565ZM43.2008 28.6767C43.2008 28.1466 42.771 27.7167 42.2408 27.7167C41.7106 27.7167 41.2808 28.1466 41.2808 28.6767V31.9978C41.2808 32.528 41.7106 32.9578 42.2408 32.9578C42.771 32.9578 43.2008 32.528 43.2008 31.9978V28.6767ZM6.72078 28.6767C6.72078 28.1466 6.29097 27.7167 5.76078 27.7167C5.23059 27.7167 4.80078 28.1466 4.80078 28.6767V31.9978C4.80078 32.528 5.23059 32.9578 5.76078 32.9578C6.29097 32.9578 6.72078 32.528 6.72078 31.9978V28.6767ZM6.72078 36.3567C6.72078 35.8266 6.29097 35.3967 5.76078 35.3967C5.23059 35.3967 4.80078 35.8266 4.80078 36.3567V38.0173C4.80078 39.6079 6.0902 40.8973 7.68078 40.8973H9.4451C9.9753 40.8973 10.4051 40.4675 10.4051 39.9373C10.4051 39.4071 9.9753 38.9773 9.4451 38.9773H7.68078C7.15059 38.9773 6.72078 38.5475 6.72078 38.0173V36.3567ZM43.2008 36.3567C43.2008 35.8266 42.771 35.3967 42.2408 35.3967C41.7106 35.3967 41.2808 35.8266 41.2808 36.3567V38.0173C41.2808 38.5475 40.851 38.9773 40.3208 38.9773H38.5565C38.0263 38.9773 37.5965 39.4071 37.5965 39.9373C37.5965 40.4675 38.0263 40.8973 38.5565 40.8973H40.3208C41.9114 40.8973 43.2008 39.6079 43.2008 38.0173V36.3567ZM14.0765 38.9773C13.5463 38.9773 13.1165 39.4071 13.1165 39.9373C13.1165 40.4675 13.5463 40.8973 14.0765 40.8973H17.6051C18.1353 40.8973 18.5651 40.4675 18.5651 39.9373C18.5651 39.4071 18.1353 38.9773 17.6051 38.9773H14.0765ZM22.2365 38.9773C21.7063 38.9773 21.2765 39.4071 21.2765 39.9373C21.2765 40.4675 21.7063 40.8973 22.2365 40.8973H25.7651C26.2953 40.8973 26.7251 40.4675 26.7251 39.9373C26.7251 39.4071 26.2953 38.9773 25.7651 38.9773H22.2365ZM30.3965 38.9773C29.8663 38.9773 29.4365 39.4071 29.4365 39.9373C29.4365 40.4675 29.8663 40.8973 30.3965 40.8973H33.9251C34.4553 40.8973 34.8851 40.4675 34.8851 39.9373C34.8851 39.4071 34.4553 38.9773 33.9251 38.9773H30.3965Z" fill="white"/>
</clipPath>
<g clip-path="url(#mask0_5481_99345)">
<g clip-path="url(#clip0_5481_99345)">
<rect x="1.19922" y="1.2002" width="44.1" height="44.1" rx="1.33127" fill="#FFECCF"/>
<rect width="44.1" height="44.1" transform="translate(1.19922 1.2002)" fill="#FFECCF"/>
<ellipse cx="26.1346" cy="2.91103" rx="19.1859" ry="19.1859" transform="rotate(-0.0800682 26.1346 2.91103)" fill="url(#paint0_radial_5481_99345)"/>
<path d="M18.0317 -6.59007C14.6448 -8.68584 10.3537 -8.69868 6.9543 -6.6232L-27.0461 14.1364C-30.376 16.1695 -30.3816 20.9686 -27.0562 23.0094L6.71956 43.7396C10.1139 45.8225 14.405 45.8201 17.7964 43.7321L51.5026 22.9826C54.8104 20.9461 54.8164 16.1739 51.5127 14.1297L18.0317 -6.59007Z" fill="url(#paint1_linear_5481_99345)"/>
<path d="M7.55648 22.1378C8.31023 5.67393 22.2678 -7.0616 38.7317 -6.30785C55.1955 -5.5541 67.931 8.40351 67.1773 24.8673C66.4235 41.3312 52.4659 54.0667 36.0021 53.3129C19.5383 52.5592 6.80273 38.6016 7.55648 22.1378Z" fill="url(#paint2_linear_5481_99345)"/>
<path d="M-16.6671 32.9933C-10.1227 30.2014 -3.06465 30.3211 3.05027 32.7632C15.2864 37.6618 22.4061 34.6331 27.3443 22.4251C29.8041 16.2991 34.6064 11.1109 41.1582 8.31592C54.2574 2.73632 69.38 8.79057 74.9517 21.8511C80.5234 34.9116 74.4249 50.0103 61.3288 55.5973C54.7624 58.3985 47.6907 58.2673 41.5665 55.8034C29.3502 50.9308 22.244 53.971 17.312 66.1937C14.8461 72.3051 10.0448 77.4754 3.50038 80.2673C-9.58841 85.8511 -24.7109 79.7969 -30.2796 66.7437C-35.8482 53.6904 -29.7559 38.5771 -16.6671 32.9933Z" fill="url(#paint3_linear_5481_99345)"/>
<ellipse cx="42.7283" cy="9.16787" rx="19.1859" ry="19.1859" transform="rotate(-0.0800682 42.7283 9.16787)" fill="url(#paint4_radial_5481_99345)"/>
</g>
</g>

</svg>
