<svg width="97" height="96" viewBox="0 0 97 96" fill="none" xmlns="http://www.w3.org/2000/svg">
<mask id="mask0_5_687" style="mask-type:luminance" maskUnits="userSpaceOnUse" x="16" y="16" width="64" height="64">
<path fill-rule="evenodd" clip-rule="evenodd" d="M41.432 17.58C41.108 17.262 40.676 17.076 40.214 17.07L18.728 16.8C17.744 16.788 16.958 17.574 16.958 18.528V40.236C16.958 40.692 17.138 41.13 17.468 41.454L27.8347 51.7743C31.0993 48.4605 35.6387 46.4062 40.6582 46.4062C50.5998 46.4062 58.6582 54.4647 58.6582 64.4062C58.6582 69.3967 56.6276 73.9126 53.3476 77.1729L53.654 77.478C55.958 79.77 59.696 79.77 62 77.478L77.642 61.908C79.94 59.622 79.94 55.92 77.642 53.628L41.438 17.58H41.432ZM30.758 35.4C28.106 35.4 25.958 33.252 25.958 30.6C25.958 27.948 28.106 25.8 30.758 25.8C33.41 25.8 35.558 27.948 35.558 30.6C35.558 33.252 33.41 35.4 30.758 35.4ZM25.9082 64.4062C25.9082 56.2597 32.5116 49.6562 40.6582 49.6562C48.8048 49.6562 55.4082 56.2597 55.4082 64.4062C55.4082 72.5528 48.8048 79.1562 40.6582 79.1562C32.5116 79.1562 25.9082 72.5528 25.9082 64.4062ZM46.951 70.699C47.7326 69.9175 47.7326 68.6449 46.951 67.8633H46.971L43.514 64.4062L46.971 60.9492C47.7526 60.1676 47.7526 58.895 46.971 58.1135C46.1895 57.3319 44.9169 57.3319 44.1353 58.1135L40.6782 61.5705L37.2212 58.1135C36.4396 57.3319 35.167 57.3319 34.3854 58.1135C33.6039 58.895 33.6039 60.1676 34.3854 60.9492L37.8425 64.4062L34.3854 67.8633C33.6039 68.6449 33.6039 69.9175 34.3854 70.699C34.7762 71.0898 35.2873 71.2903 35.7983 71.2903C36.3094 71.2903 36.8204 71.0898 37.2112 70.699L40.6682 67.242L44.1253 70.699C44.516 71.0898 45.0271 71.2903 45.5381 71.2903C46.0492 71.2903 46.5602 71.0898 46.951 70.699Z" fill="white"/>
</mask>
<g mask="url(#mask0_5_687)">
<g clip-path="url(#clip0_5_687)">
<rect x="0.158203" width="96" height="96" rx="5.125" fill="#FFECCF"/>
<rect width="96" height="96" transform="translate(0.158203)" fill="#FFECCF"/>
<circle cx="54.4391" cy="3.72357" r="41.7653" transform="rotate(-0.0800682 54.4391 3.72357)" fill="url(#paint0_radial_5_687)"/>
<path d="M36.7994 -16.9578C29.4267 -21.52 20.0855 -21.5479 12.6854 -17.0299L-61.3291 28.161C-68.5779 32.5869 -68.59 43.0338 -61.351 47.4765L12.1744 92.6033C19.5634 97.1377 28.9047 97.1323 36.2873 92.5871L109.661 47.4181C116.862 42.9849 116.875 32.5964 109.683 28.1464L36.7994 -16.9578Z" fill="url(#paint1_linear_5_687)"/>
<path d="M13.993 45.5787C15.6339 9.73906 46.0178 -17.9845 81.8574 -16.3437C117.697 -14.7029 145.421 15.681 143.78 51.5206C142.139 87.3603 111.755 115.084 75.9155 113.443C40.0758 111.802 12.3522 81.4183 13.993 45.5787Z" fill="url(#paint2_linear_5_687)"/>
<path d="M-38.7357 69.2097C-24.4894 63.1321 -9.12494 63.3927 4.18644 68.7087C30.8228 79.3724 46.3217 72.7793 57.0715 46.2039C62.426 32.8685 72.8801 21.5746 87.1424 15.4902C115.658 3.34413 148.578 16.5235 160.707 44.9545C172.836 73.3856 159.56 106.254 131.051 118.416C116.757 124.514 101.363 124.228 88.0312 118.864C61.438 108.257 45.9687 114.875 35.2325 141.483C29.8643 154.786 19.4126 166.042 5.16628 172.119C-23.3263 184.274 -56.2461 171.095 -68.3683 142.68C-80.4904 114.265 -67.2284 81.3649 -38.7357 69.2097Z" fill="url(#paint3_linear_5_687)"/>
<circle cx="90.5626" cy="17.3437" r="41.7653" transform="rotate(-0.0800682 90.5626 17.3437)" fill="url(#paint4_radial_5_687)"/>
</g>
</g>
<defs>
<radialGradient id="paint0_radial_5_687" cx="0" cy="0" r="1" gradientUnits="userSpaceOnUse" gradientTransform="translate(54.4391 3.72358) rotate(90) scale(41.7653)">
<stop offset="0.166667" stop-color="#FF709F"/>
<stop offset="1" stop-color="#FF709F" stop-opacity="0"/>
</radialGradient>
<linearGradient id="paint1_linear_5_687" x1="-23.9677" y1="85.7898" x2="132.11" y2="-9.16653" gradientUnits="userSpaceOnUse">
<stop offset="0.0598452" stop-color="#8480FE"/>
<stop offset="0.599632" stop-color="#8480FE" stop-opacity="0"/>
</linearGradient>
<linearGradient id="paint2_linear_5_687" x1="101.285" y1="17.683" x2="34.3277" y2="89.6802" gradientUnits="userSpaceOnUse">
<stop stop-color="#EB1000"/>
<stop offset="1" stop-color="#EB1000" stop-opacity="0"/>
</linearGradient>
<linearGradient id="paint3_linear_5_687" x1="19.9147" y1="99.6171" x2="138.611" y2="33.1249" gradientUnits="userSpaceOnUse">
<stop stop-color="#FC7D00" stop-opacity="0"/>
<stop offset="0.432292" stop-color="#FC7D00"/>
<stop offset="0.609375" stop-color="#FC7D00"/>
<stop offset="1" stop-color="#FC7D00" stop-opacity="0"/>
</linearGradient>
<radialGradient id="paint4_radial_5_687" cx="0" cy="0" r="1" gradientUnits="userSpaceOnUse" gradientTransform="translate(90.5626 17.3437) rotate(90) scale(41.7653)">
<stop offset="0.166667" stop-color="#EB1000"/>
<stop offset="1" stop-color="#EB1000" stop-opacity="0"/>
</radialGradient>
<clipPath id="clip0_5_687">
<rect x="0.158203" width="96" height="96" rx="5.125" fill="white"/>
</clipPath>
</defs>
</svg>
