<svg width="48" height="48" viewBox="0 0 48 48" xmlns="http://www.w3.org/2000/svg">
  <defs>
<radialGradient id="paint0_radial_5481_99366" cx="0" cy="0" r="1" gradientUnits="userSpaceOnUse" gradientTransform="translate(16.3929 15.4531) rotate(90) scale(15.4531 16.3929)">
<stop offset="0.166667" stop-color="#FF709F"/>
<stop offset="1" stop-color="#FF709F" stop-opacity="0"/>
</radialGradient>
<linearGradient id="paint1_linear_5481_99366" x1="-3.94502" y1="38.702" x2="55.3094" y2="0.45987" gradientUnits="userSpaceOnUse">
<stop offset="0.0598452" stop-color="#8480FE"/>
<stop offset="0.599632" stop-color="#8480FE" stop-opacity="0"/>
</linearGradient>
<linearGradient id="paint2_linear_5481_99366" x1="45.2172" y1="13.5027" x2="20.5915" y2="41.5925" gradientUnits="userSpaceOnUse">
<stop stop-color="#EB1000"/>
<stop offset="1" stop-color="#EB1000" stop-opacity="0"/>
</linearGradient>
<linearGradient id="paint3_linear_5481_99366" x1="13.2769" y1="43.8181" x2="58.5113" y2="16.9375" gradientUnits="userSpaceOnUse">
<stop stop-color="#FC7D00" stop-opacity="0"/>
<stop offset="0.432292" stop-color="#FC7D00"/>
<stop offset="0.609375" stop-color="#FC7D00"/>
<stop offset="1" stop-color="#FC7D00" stop-opacity="0"/>
</linearGradient>
<radialGradient id="paint4_radial_5481_99366" cx="0" cy="0" r="1" gradientUnits="userSpaceOnUse" gradientTransform="translate(16.3929 15.4531) rotate(90) scale(15.4531 16.3929)">
<stop offset="0.166667" stop-color="#EB1000"/>
<stop offset="1" stop-color="#EB1000" stop-opacity="0"/>
</radialGradient>
<clipPath id="clip0_5481_99366">
<rect x="5.52344" y="6.95996" width="37.68" height="35.52" rx="1.03837" fill="white"/>
</clipPath>
</defs>
<clipPath id="mask0_5481_99366">
<path fill-rule="evenodd" d="M22.8 7.24805C19.065 7.51205 15.666 8.99705 13.002 11.307L22.8 21.105V7.24805ZM11.3062 13.0021C8.75022 15.9481 7.19922 19.7911 7.19922 24.0001C7.19922 28.2091 8.75022 32.0491 11.3062 34.9981L22.3042 24.0001L11.3062 13.0021ZM25.2 24V7.25105C33.918 7.86605 40.8 14.724 40.8 24.003C40.8 33.282 33.279 40.803 24 40.803C19.791 40.803 15.948 39.252 13.002 36.696L24.849 24.849L24.8589 24.839C24.8754 24.8213 24.8914 24.8037 24.9069 24.7858C24.9399 24.7467 24.97 24.7055 24.999 24.663C25.0259 24.6211 25.0469 24.5761 25.0679 24.5311L25.068 24.531L25.0744 24.5186L25.0831 24.5026C25.0913 24.4878 25.0997 24.4725 25.107 24.456C25.1238 24.415 25.1349 24.374 25.1464 24.3314L25.155 24.3L25.1579 24.2903L25.1638 24.273C25.1681 24.2606 25.1725 24.2478 25.176 24.234C25.191 24.156 25.2 24.078 25.2 24ZM25.1636 24.273L25.1636 24.2729L25.1637 24.2729C25.1679 24.2605 25.1723 24.2478 25.1758 24.2341C25.1732 24.243 25.1701 24.252 25.1669 24.2611L25.1669 24.2612L25.1669 24.2612L25.1669 24.2613C25.1626 24.2736 25.1582 24.2864 25.1548 24.3001C25.1573 24.2911 25.1604 24.2822 25.1636 24.273L25.1636 24.273Z" fill="white"/>
</clipPath>
<g clip-path="url(#mask0_5481_99366)">
<g clip-path="url(#clip0_5481_99366)">
<rect x="5.52344" y="6.95996" width="37.68" height="35.52" rx="1.03837" fill="#FFECCF"/>
<rect width="37.68" height="35.52" transform="translate(5.52344 6.95996)" fill="#FFECCF"/>
<ellipse cx="16.3929" cy="15.4531" rx="16.3929" ry="15.4531" transform="matrix(0.999999 -0.00131734 0.00148243 0.999999 10.4141 -7.09375)" fill="url(#paint0_radial_5481_99366)"/>
<path d="M19.9061 0.685379C17.0123 -1.00265 13.3458 -1.01298 10.4413 0.658692L-18.6094 17.3793C-21.4545 19.0169 -21.4593 22.8823 -18.618 24.5261L10.2407 41.223C13.1409 42.9007 16.8074 42.8987 19.7051 41.217L48.5043 24.5045C51.3306 22.8642 51.3357 19.0204 48.5129 17.3739L19.9061 0.685379Z" fill="url(#paint1_linear_5481_99366)"/>
<path d="M10.9553 23.8241C11.5993 10.5635 23.525 0.305737 37.592 0.91284C51.6591 1.51994 62.5406 12.762 61.8966 26.0227C61.2526 39.2833 49.3269 49.541 35.2598 48.9339C21.1928 48.3268 10.3112 37.0848 10.9553 23.8241Z" fill="url(#paint2_linear_5481_99366)"/>
<path d="M-9.74336 32.5674C-4.15169 30.3187 1.87887 30.4151 7.10359 32.382C17.5584 36.3276 23.6417 33.8881 27.861 24.0553C29.9626 19.1211 34.0659 14.9424 39.6638 12.6912C50.8561 8.19712 63.7771 13.0735 68.5377 23.593C73.2984 34.1125 68.0876 46.2736 56.898 50.7735C51.2875 53.0298 45.2454 52.9241 40.0127 50.9395C29.5748 47.015 23.5031 49.4637 19.2892 59.3084C17.1822 64.2307 13.0799 68.3952 7.48818 70.6439C-3.69517 75.1413 -16.6162 70.2649 -21.3741 59.7513C-26.1321 49.2377 -20.9267 37.0648 -9.74336 32.5674Z" fill="url(#paint3_linear_5481_99366)"/>
<ellipse cx="16.3929" cy="15.4531" rx="16.3929" ry="15.4531" transform="matrix(0.999999 -0.00131734 0.00148243 0.999999 24.5898 -2.05469)" fill="url(#paint4_radial_5481_99366)"/>
</g>
</g>

</svg>
