<svg width="160" height="160" viewBox="0 0 160 160" xmlns="http://www.w3.org/2000/svg">
  <defs>
<radialGradient id="paint0_radial_5481_90073" cx="0" cy="0" r="1" gradientUnits="userSpaceOnUse" gradientTransform="translate(90.4677 6.20574) rotate(90) scale(69.6088)">
<stop offset="0.166667" stop-color="#FF709F"/>
<stop offset="1" stop-color="#FF709F" stop-opacity="0"/>
</radialGradient>
<linearGradient id="paint1_linear_5481_90073" x1="-40.2086" y1="142.983" x2="219.921" y2="-15.2772" gradientUnits="userSpaceOnUse">
<stop offset="0.0598452" stop-color="#8480FE"/>
<stop offset="0.599632" stop-color="#8480FE" stop-opacity="0"/>
</linearGradient>
<linearGradient id="paint2_linear_5481_90073" x1="168.544" y1="29.4718" x2="56.9494" y2="149.467" gradientUnits="userSpaceOnUse">
<stop stop-color="#EB1000"/>
<stop offset="1" stop-color="#EB1000" stop-opacity="0"/>
</linearGradient>
<linearGradient id="paint3_linear_5481_90073" x1="32.9255" y1="166.029" x2="230.753" y2="55.2086" gradientUnits="userSpaceOnUse">
<stop stop-color="#FC7D00" stop-opacity="0"/>
<stop offset="0.432292" stop-color="#FC7D00"/>
<stop offset="0.609375" stop-color="#FC7D00"/>
<stop offset="1" stop-color="#FC7D00" stop-opacity="0"/>
</linearGradient>
<radialGradient id="paint4_radial_5481_90073" cx="0" cy="0" r="1" gradientUnits="userSpaceOnUse" gradientTransform="translate(150.675 28.9059) rotate(90) scale(69.6088)">
<stop offset="0.166667" stop-color="#EB1000"/>
<stop offset="1" stop-color="#EB1000" stop-opacity="0"/>
</radialGradient>
<clipPath id="clip0_5481_90073">
<rect width="160" height="160" rx="5.125" fill="white"/>
</clipPath>
</defs>
<clipPath id="mask0_5481_90073">
<path fill-rule="evenodd" d="M120.637 37.1442C124.63 29.9036 135.643 32.7387 135.643 41.0072V123.719C135.643 130.347 130.27 135.719 123.643 135.719H36C29.3726 135.719 24 130.347 24 123.719V79.9943C24 77.7914 24.9083 75.6861 26.5107 74.1746L43.5424 58.1099C46.8545 54.9858 52.1024 55.2519 55.0815 58.695L67.3915 72.9227L83.4916 48.0222C86.4378 43.4655 92.9694 43.1016 96.4036 47.3028L107.53 60.9141L120.637 37.1442L124.14 39.0757L124.179 39.0972M124.14 39.0757L120.637 37.1442ZM127.643 41.0072L114.535 64.7771C111.801 69.7365 104.92 70.3621 101.336 65.9772L90.2096 52.3659L74.1095 77.2664C71.2141 81.7445 64.8308 82.1898 61.3417 78.1572L49.0316 63.9295L32 79.9943V104.134L48.1186 93.7483C50.5988 92.1502 53.8149 92.279 56.1595 94.0702L72.428 106.499L92.3579 83.315C95.0134 80.2259 99.7354 80.048 102.616 82.9284L116.825 97.1377L127.643 91.9512L127.643 41.0072ZM127.643 100.823L117.729 105.576C116.199 106.31 114.372 105.998 113.172 104.798L97.7215 89.3478L78.1869 112.072C75.5962 115.085 71.1045 115.555 67.9464 113.142L51.8611 100.854L32 113.651V123.719C32 125.929 33.7909 127.719 36 127.719H123.643C125.852 127.719 127.643 125.929 127.643 123.719V100.823Z" fill="#8F8F8F"/>
</clipPath>
<g clip-path="url(#mask0_5481_90073)">
<g clip-path="url(#clip0_5481_90073)">
<rect width="160" height="160" rx="5.125" fill="#FFECCF"/>
<rect width="160" height="160" fill="#FFECCF"/>
<circle cx="90.4677" cy="6.20574" r="69.6087" transform="rotate(-0.0800682 90.4677 6.20574)" fill="url(#paint0_radial_5481_90073)"/>
<path d="M61.0698 -28.2626C48.782 -35.8663 33.2133 -35.9129 20.8798 -28.3828L-102.478 46.9353C-114.559 54.3119 -114.579 71.7234 -102.514 79.1279L20.0281 154.339C32.3432 161.896 47.9119 161.887 60.2163 154.312L182.506 79.0306C194.507 71.6419 194.529 54.3277 182.543 46.9111L61.0698 -28.2626Z" fill="url(#paint1_linear_5481_90073)"/>
<path d="M23.0583 75.9646C25.793 16.2319 76.4328 -29.9741 136.166 -27.2395C195.898 -24.5048 242.104 26.1351 239.37 85.8678C236.635 145.601 185.995 191.807 126.262 189.072C66.5296 186.337 20.3236 135.697 23.0583 75.9646Z" fill="url(#paint2_linear_5481_90073)"/>
<path d="M-64.8253 115.35C-41.0814 105.221 -15.474 105.655 6.71169 114.515C51.1056 132.288 76.9371 121.299 94.8534 77.0069C103.778 54.7811 121.201 35.958 144.972 25.8174C192.497 5.57391 247.364 27.5395 267.579 74.9246C287.793 122.31 265.667 177.09 218.153 197.36C194.329 207.523 168.673 207.047 146.453 198.107C102.131 180.429 76.3488 191.459 58.4551 235.805C49.5082 257.978 32.0886 276.736 8.34476 286.866C-39.1429 307.124 -94.0093 285.159 -114.213 237.8C-134.416 190.441 -112.313 135.609 -64.8253 115.35Z" fill="url(#paint3_linear_5481_90073)"/>
<circle cx="150.675" cy="28.9059" r="69.6087" transform="rotate(-0.0800682 150.675 28.9059)" fill="url(#paint4_radial_5481_90073)"/>
</g>
</g>

</svg>
