<svg width="48" height="48" viewBox="0 0 48 48" xmlns="http://www.w3.org/2000/svg">
  <defs>
<radialGradient id="paint0_radial_5481_99566" cx="0" cy="0" r="1" gradientUnits="userSpaceOnUse" gradientTransform="translate(27.1423 1.86222) rotate(90) scale(20.8826)">
<stop offset="0.166667" stop-color="#FF709F"/>
<stop offset="1" stop-color="#FF709F" stop-opacity="0"/>
</radialGradient>
<linearGradient id="paint1_linear_5481_99566" x1="-12.0622" y1="42.8952" x2="65.9766" y2="-4.58296" gradientUnits="userSpaceOnUse">
<stop offset="0.0598452" stop-color="#8480FE"/>
<stop offset="0.599632" stop-color="#8480FE" stop-opacity="0"/>
</linearGradient>
<linearGradient id="paint2_linear_5481_99566" x1="50.5621" y1="8.84155" x2="17.0836" y2="44.8401" gradientUnits="userSpaceOnUse">
<stop stop-color="#EB1000"/>
<stop offset="1" stop-color="#EB1000" stop-opacity="0"/>
</linearGradient>
<linearGradient id="paint3_linear_5481_99566" x1="9.87765" y1="49.8089" x2="69.2259" y2="16.5628" gradientUnits="userSpaceOnUse">
<stop stop-color="#FC7D00" stop-opacity="0"/>
<stop offset="0.432292" stop-color="#FC7D00"/>
<stop offset="0.609375" stop-color="#FC7D00"/>
<stop offset="1" stop-color="#FC7D00" stop-opacity="0"/>
</linearGradient>
<radialGradient id="paint4_radial_5481_99566" cx="0" cy="0" r="1" gradientUnits="userSpaceOnUse" gradientTransform="translate(45.2009 8.67178) rotate(90) scale(20.8826)">
<stop offset="0.166667" stop-color="#EB1000"/>
<stop offset="1" stop-color="#EB1000" stop-opacity="0"/>
</radialGradient>
<clipPath id="clip0_5481_99566">
<rect width="48" height="48" fill="white"/>
</clipPath>
<clipPath id="clip1_5481_99566">
<rect width="48" height="48" rx="5.125" fill="white"/>
</clipPath>
</defs>
<g clip-path="url(#clip0_5481_99566)">
<clipPath id="mask0_5481_99566">
<path fill-rule="evenodd" d="M4.8084 9.15262C4.4604 9.24176 4.18695 9.51072 4.09206 9.8572C3.99717 10.2037 4.09542 10.5744 4.34944 10.8284L8.94823 15.4272C9.15574 15.6348 9.44394 15.7406 9.73644 15.7168L13.511 15.4097L19.8847 21.7833C20.3728 22.2714 21.1643 22.2714 21.6524 21.7833C22.1406 21.2951 22.1406 20.5037 21.6524 20.0155L15.2791 13.6422L15.5863 9.86693C15.6101 9.57443 15.5043 9.28623 15.2967 9.07872L10.698 4.47993C10.4439 4.22591 10.0732 4.12766 9.72671 4.22255C9.38023 4.31744 9.11127 4.59089 9.02213 4.93889L8.16286 8.29334L4.8084 9.15262ZM23.999 8.86939C22.2551 8.86939 20.5827 9.16389 19.0271 9.70485C18.375 9.9316 17.6626 9.58683 17.4358 8.93477C17.2091 8.28272 17.5539 7.5703 18.2059 7.34355C20.022 6.71202 21.9718 6.36939 23.999 6.36939C33.7363 6.36938 41.63 14.2631 41.63 24.0004C41.63 33.7378 33.7363 41.6315 23.999 41.6315C14.2616 41.6315 6.36792 33.7378 6.36792 24.0004C6.36792 22.0442 6.68699 20.1599 7.27691 18.3983C7.49613 17.7437 8.20452 17.3907 8.85915 17.61C9.51377 17.8292 9.86674 18.5376 9.64752 19.1922C9.1422 20.7012 8.86792 22.3175 8.86792 24.0004C8.86792 32.3571 15.6423 39.1315 23.999 39.1315C32.3556 39.1315 39.13 32.3571 39.13 24.0004C39.13 15.6438 32.3556 8.86939 23.999 8.86939ZM23.9984 16.6223C23.1972 16.6223 22.4282 16.7496 21.7091 16.984C21.0528 17.198 20.3472 16.8394 20.1332 16.1831C19.9192 15.5267 20.2778 14.8212 20.9342 14.6072C21.9004 14.2921 22.9308 14.1223 23.9984 14.1223C29.4537 14.1223 33.876 18.5447 33.876 23.9999C33.876 29.4551 29.4537 33.8775 23.9984 33.8775C18.5432 33.8775 14.1208 29.4551 14.1208 23.9999C14.1208 22.9941 14.2716 22.0213 14.5525 21.1039C14.7547 20.4438 15.4537 20.0726 16.1138 20.2747C16.7739 20.4769 17.1451 21.1759 16.9429 21.836C16.7338 22.5188 16.6208 23.245 16.6208 23.9999C16.6208 28.0744 19.9239 31.3775 23.9984 31.3775C28.073 31.3775 31.376 28.0744 31.376 23.9999C31.376 19.9254 28.073 16.6223 23.9984 16.6223ZM21.3264 25.6532C23.5862 25.4428 25.385 23.6439 25.5952 21.384C26.4988 21.9282 27.1032 22.9188 27.1032 24.0505C27.1032 25.7684 25.7106 27.161 23.9927 27.161C22.8611 27.161 21.8707 26.5567 21.3264 25.6532Z" fill="white"/>
</clipPath>
<g clip-path="url(#mask0_5481_99566)">
<g clip-path="url(#clip1_5481_99566)">
<rect width="48" height="48" rx="5.125" fill="#FFECCF"/>
<rect width="48" height="48" fill="#FFECCF"/>
<circle cx="27.1423" cy="1.86221" r="20.8826" transform="rotate(-0.0800682 27.1423 1.86221)" fill="url(#paint0_radial_5481_99566)"/>
<path d="M18.3213 -8.47858C14.635 -10.7597 9.96439 -10.7737 6.26433 -8.51465L-30.7429 14.0808C-34.3673 16.2938 -34.3733 21.5172 -30.7539 23.7386L6.00883 46.302C9.70335 48.5691 14.374 48.5664 18.0653 46.2939L54.7523 23.7094C58.3526 21.4928 58.3591 16.2985 54.7632 14.0735L18.3213 -8.47858Z" fill="url(#paint1_linear_5481_99566)"/>
<path d="M6.91632 22.7894C7.73673 4.86956 22.9287 -8.99224 40.8485 -8.17184C58.7683 -7.35143 72.6301 7.84053 71.8097 25.7603C70.9893 43.6802 55.7973 57.542 37.8775 56.7215C19.9577 55.9011 6.09591 40.7092 6.91632 22.7894Z" fill="url(#paint2_linear_5481_99566)"/>
<path d="M-19.4476 34.6052C-12.3244 31.5664 -4.64218 31.6967 2.01351 34.3546C15.3317 39.6865 23.0811 36.39 28.456 23.1023C31.1333 16.4345 36.3604 10.7876 43.4915 7.74541C57.7492 1.67237 74.2091 8.26203 80.2736 22.4776C86.338 36.6931 79.7002 53.1271 65.4459 59.2081C58.2988 62.2571 50.6018 62.1143 43.9359 59.4324C30.6393 54.129 22.9046 57.438 17.5365 70.7417C14.8525 77.3935 9.62658 83.0211 2.50343 86.0599C-11.7429 92.1375 -28.2028 85.5478 -34.2639 71.3402C-40.3249 57.1326 -33.6939 40.6828 -19.4476 34.6052Z" fill="url(#paint3_linear_5481_99566)"/>
<circle cx="45.2009" cy="8.67178" r="20.8826" transform="rotate(-0.0800682 45.2009 8.67178)" fill="url(#paint4_radial_5481_99566)"/>
</g>
</g>
</g>

</svg>
