<svg width="48" height="48" viewBox="0 0 48 48" xmlns="http://www.w3.org/2000/svg">
  <defs>
<radialGradient id="paint0_radial_5481_99539" cx="0" cy="0" r="1" gradientUnits="userSpaceOnUse" gradientTransform="translate(27.1423 1.86222) rotate(90) scale(20.8826)">
<stop offset="0.166667" stop-color="#FF709F"/>
<stop offset="1" stop-color="#FF709F" stop-opacity="0"/>
</radialGradient>
<linearGradient id="paint1_linear_5481_99539" x1="-12.0622" y1="42.8952" x2="65.9766" y2="-4.58296" gradientUnits="userSpaceOnUse">
<stop offset="0.0598452" stop-color="#8480FE"/>
<stop offset="0.599632" stop-color="#8480FE" stop-opacity="0"/>
</linearGradient>
<linearGradient id="paint2_linear_5481_99539" x1="50.5621" y1="8.84155" x2="17.0836" y2="44.8401" gradientUnits="userSpaceOnUse">
<stop stop-color="#EB1000"/>
<stop offset="1" stop-color="#EB1000" stop-opacity="0"/>
</linearGradient>
<linearGradient id="paint3_linear_5481_99539" x1="9.87765" y1="49.8089" x2="69.2259" y2="16.5628" gradientUnits="userSpaceOnUse">
<stop stop-color="#FC7D00" stop-opacity="0"/>
<stop offset="0.432292" stop-color="#FC7D00"/>
<stop offset="0.609375" stop-color="#FC7D00"/>
<stop offset="1" stop-color="#FC7D00" stop-opacity="0"/>
</linearGradient>
<radialGradient id="paint4_radial_5481_99539" cx="0" cy="0" r="1" gradientUnits="userSpaceOnUse" gradientTransform="translate(45.2009 8.67178) rotate(90) scale(20.8826)">
<stop offset="0.166667" stop-color="#EB1000"/>
<stop offset="1" stop-color="#EB1000" stop-opacity="0"/>
</radialGradient>
<clipPath id="clip0_5481_99539">
<rect width="48" height="48" rx="5.125" fill="white"/>
</clipPath>
</defs>
<clipPath id="mask0_5481_99539">
<path fill-rule="evenodd" d="M12.1133 7.875C9.76607 7.875 7.86328 9.77779 7.86328 12.125V17.4359C7.86328 19.7831 9.76607 21.6859 12.1133 21.6859H17.4242C19.7714 21.6859 21.6742 19.7831 21.6742 17.4359V12.125C21.6742 9.77779 19.7714 7.875 17.4242 7.875H12.1133ZM27.4452 8.4304C26.7552 8.40702 26.1769 8.94739 26.1535 9.63735C26.1302 10.3273 26.6705 10.9056 27.3605 10.929C28.7465 10.9759 30.1543 11.375 31.2128 12.399C32.0915 13.2491 32.8604 14.6572 33.0797 17.0092L31.496 15.4256C31.0079 14.9374 30.2164 14.9374 29.7283 15.4256C29.2401 15.9137 29.2401 16.7052 29.7283 17.1933L33.3006 20.7657C33.7887 21.2538 34.5802 21.2538 35.0684 20.7657L38.6522 17.1818C39.1404 16.6937 39.1404 15.9022 38.6522 15.414C38.1641 14.9259 37.3726 14.9259 36.8845 15.414L35.5643 16.7342C35.2959 13.9488 34.3474 11.9531 32.9511 10.6022C31.3045 9.00925 29.2177 8.49047 27.4452 8.4304ZM14.6517 27.2344C14.1635 26.7463 13.3721 26.7463 12.8839 27.2344L9.30004 30.8183C8.81188 31.3064 8.81188 32.0979 9.30004 32.5861C9.78819 33.0742 10.5797 33.0742 11.0678 32.5861L12.3878 31.266C12.6563 34.0513 13.6048 36.0469 15.0011 37.3978C16.6477 38.9907 18.7345 39.5095 20.507 39.5696C21.1969 39.593 21.7752 39.0526 21.7986 38.3626C21.822 37.6727 21.2816 37.0944 20.5917 37.071C19.2056 37.0241 17.7978 36.625 16.7394 35.601C15.8607 34.7509 15.0917 33.3428 14.8725 30.9908L16.4562 32.5745C16.9444 33.0627 17.7358 33.0627 18.224 32.5745C18.7122 32.0864 18.7122 31.2949 18.224 30.8068L14.6517 27.2344ZM30.5737 26.3145C28.2265 26.3145 26.3237 28.2172 26.3237 30.5645V35.8753C26.3237 38.2226 28.2265 40.1253 30.5737 40.1253H35.8846C38.2318 40.1253 40.1346 38.2225 40.1346 35.8753V30.5645C40.1346 28.2172 38.2318 26.3145 35.8846 26.3145H30.5737Z" fill="white"/>
</clipPath>
<g clip-path="url(#mask0_5481_99539)">
<g clip-path="url(#clip0_5481_99539)">
<rect width="48" height="48" rx="5.125" fill="#FFECCF"/>
<rect width="48" height="48" fill="#FFECCF"/>
<circle cx="27.1423" cy="1.86221" r="20.8826" transform="rotate(-0.0800682 27.1423 1.86221)" fill="url(#paint0_radial_5481_99539)"/>
<path d="M18.3213 -8.47858C14.635 -10.7597 9.96439 -10.7737 6.26433 -8.51465L-30.7429 14.0808C-34.3673 16.2938 -34.3733 21.5172 -30.7539 23.7386L6.00883 46.302C9.70335 48.5691 14.374 48.5664 18.0653 46.2939L54.7523 23.7094C58.3526 21.4928 58.3591 16.2985 54.7632 14.0735L18.3213 -8.47858Z" fill="url(#paint1_linear_5481_99539)"/>
<path d="M6.91632 22.7894C7.73673 4.86956 22.9287 -8.99224 40.8485 -8.17184C58.7683 -7.35143 72.6301 7.84053 71.8097 25.7603C70.9893 43.6802 55.7973 57.542 37.8775 56.7215C19.9577 55.9011 6.09591 40.7092 6.91632 22.7894Z" fill="url(#paint2_linear_5481_99539)"/>
<path d="M-19.4476 34.6052C-12.3244 31.5664 -4.64218 31.6967 2.01351 34.3546C15.3317 39.6865 23.0811 36.39 28.456 23.1023C31.1333 16.4345 36.3604 10.7876 43.4915 7.74541C57.7492 1.67237 74.2091 8.26203 80.2736 22.4776C86.338 36.6931 79.7002 53.1271 65.4459 59.2081C58.2988 62.2571 50.6018 62.1143 43.9359 59.4324C30.6393 54.129 22.9046 57.438 17.5365 70.7417C14.8525 77.3935 9.62658 83.0211 2.50343 86.0599C-11.7429 92.1375 -28.2028 85.5478 -34.2639 71.3402C-40.3249 57.1326 -33.6939 40.6828 -19.4476 34.6052Z" fill="url(#paint3_linear_5481_99539)"/>
<circle cx="45.2009" cy="8.67178" r="20.8826" transform="rotate(-0.0800682 45.2009 8.67178)" fill="url(#paint4_radial_5481_99539)"/>
</g>
</g>

</svg>
