<svg width="97" height="96" viewBox="0 0 97 96" fill="none" xmlns="http://www.w3.org/2000/svg">
<mask id="mask0_50_585" style="mask-type:luminance" maskUnits="userSpaceOnUse" x="11" y="11" width="75" height="74">
<path fill-rule="evenodd" clip-rule="evenodd" d="M84.5376 14.6839C85.3186 13.9029 85.3186 12.6366 84.5376 11.8555C83.7566 11.0745 82.4902 11.0745 81.7092 11.8555L12.2486 81.3161C11.4676 82.0971 11.4676 83.3634 12.2486 84.1445C13.0297 84.9255 14.296 84.9255 15.0771 84.1445L84.5376 14.6839ZM12.2795 30.8445C11.4984 30.0635 11.4984 28.7971 12.2795 28.0161L26.0795 14.2161C26.8605 13.435 28.1269 13.435 28.9079 14.2161C29.689 14.9971 29.689 16.2635 28.9079 17.0445L18.3194 27.633H56.9315C58.0361 27.633 58.9315 28.5284 58.9315 29.633C58.9315 30.7376 58.0361 31.633 56.9315 31.633H18.7248L28.9079 41.8161C29.689 42.5971 29.689 43.8635 28.9079 44.6445C28.1269 45.4256 26.8605 45.4256 26.0795 44.6445L12.2795 30.8445ZM84.5684 68.3451C85.3494 67.5641 85.3494 66.2977 84.5684 65.5167L70.7684 51.7167C69.9873 50.9357 68.721 50.9357 67.9399 51.7167C67.1589 52.4977 67.1589 53.7641 67.9399 54.5451L78.3257 64.9309L39.244 64.9309C38.1394 64.9309 37.244 65.8263 37.244 66.9309C37.244 68.0354 38.1394 68.9309 39.244 68.9309L78.3258 68.9309L67.9399 79.3167C67.1589 80.0977 67.1589 81.3641 67.9399 82.1451C68.721 82.9262 69.9873 82.9262 70.7684 82.1451L84.5684 68.3451ZM85.1541 29.633C85.1541 30.7376 84.2587 31.633 83.1541 31.633L76.619 31.633C75.5144 31.633 74.619 30.7376 74.619 29.633C74.619 28.5284 75.5144 27.633 76.619 27.633L83.1541 27.633C84.2587 27.633 85.1541 28.5284 85.1541 29.633ZM13.6937 64.9309C12.5891 64.9309 11.6937 65.8263 11.6937 66.9309C11.6937 68.0354 12.5891 68.9309 13.6937 68.9309H19.5565C20.6611 68.9309 21.5565 68.0354 21.5565 66.9309C21.5565 65.8263 20.6611 64.9309 19.5565 64.9309H13.6937Z" fill="white"/>
</mask>
<g mask="url(#mask0_50_585)">
<g clip-path="url(#clip0_50_585)">
<rect x="3.40869" width="96" height="96" rx="5.125" fill="#FFECCF"/>
<rect width="96" height="96" transform="translate(3.40869)" fill="#FFECCF"/>
<circle cx="57.6895" cy="3.72358" r="41.7653" transform="rotate(-0.0800682 57.6895 3.72358)" fill="url(#paint0_radial_50_585)"/>
<path d="M40.0499 -16.9578C32.6772 -21.52 23.336 -21.548 15.9359 -17.0299L-58.0786 28.1609C-65.3274 32.5869 -65.3395 43.0338 -58.1005 47.4765L15.4249 92.6033C22.8139 97.1376 32.1552 97.1322 39.5378 92.5871L112.912 47.4181C120.112 42.9849 120.126 32.5964 112.934 28.1464L40.0499 -16.9578Z" fill="url(#paint1_linear_50_585)"/>
<path d="M17.2435 45.5787C18.8843 9.73904 49.2682 -17.9846 85.1079 -16.3438C120.947 -14.7029 148.671 15.681 147.03 51.5206C145.389 87.3602 115.006 115.084 79.1659 113.443C43.3263 111.802 15.6027 81.4183 17.2435 45.5787Z" fill="url(#paint2_linear_50_585)"/>
<path d="M-35.4852 69.2098C-21.2389 63.1322 -5.87446 63.3927 7.43693 68.7087C34.0733 79.3725 49.5721 72.7794 60.322 46.204C65.6765 32.8685 76.1306 21.5746 90.3929 15.4902C118.908 3.34416 151.828 16.5235 163.957 44.9546C176.086 73.3857 162.81 106.254 134.302 118.416C120.008 124.514 104.613 124.228 91.2817 118.864C64.6885 108.257 49.2192 114.876 38.483 141.483C33.1148 154.786 22.6631 166.042 8.41677 172.119C-20.0758 184.274 -52.9956 171.095 -65.1178 142.68C-77.2399 114.265 -63.9779 81.3649 -35.4852 69.2098Z" fill="url(#paint3_linear_50_585)"/>
<circle cx="93.8131" cy="17.3437" r="41.7653" transform="rotate(-0.0800682 93.8131 17.3437)" fill="url(#paint4_radial_50_585)"/>
</g>
</g>
<defs>
<radialGradient id="paint0_radial_50_585" cx="0" cy="0" r="1" gradientUnits="userSpaceOnUse" gradientTransform="translate(57.6895 3.72358) rotate(90) scale(41.7653)">
<stop offset="0.166667" stop-color="#FF709F"/>
<stop offset="1" stop-color="#FF709F" stop-opacity="0"/>
</radialGradient>
<linearGradient id="paint1_linear_50_585" x1="-20.7172" y1="85.7898" x2="135.36" y2="-9.16655" gradientUnits="userSpaceOnUse">
<stop offset="0.0598452" stop-color="#8480FE"/>
<stop offset="0.599632" stop-color="#8480FE" stop-opacity="0"/>
</linearGradient>
<linearGradient id="paint2_linear_50_585" x1="104.535" y1="17.683" x2="37.5782" y2="89.6802" gradientUnits="userSpaceOnUse">
<stop stop-color="#EB1000"/>
<stop offset="1" stop-color="#EB1000" stop-opacity="0"/>
</linearGradient>
<linearGradient id="paint3_linear_50_585" x1="23.1652" y1="99.6171" x2="141.862" y2="33.125" gradientUnits="userSpaceOnUse">
<stop stop-color="#FC7D00" stop-opacity="0"/>
<stop offset="0.432292" stop-color="#FC7D00"/>
<stop offset="0.609375" stop-color="#FC7D00"/>
<stop offset="1" stop-color="#FC7D00" stop-opacity="0"/>
</linearGradient>
<radialGradient id="paint4_radial_50_585" cx="0" cy="0" r="1" gradientUnits="userSpaceOnUse" gradientTransform="translate(93.8131 17.3437) rotate(90) scale(41.7653)">
<stop offset="0.166667" stop-color="#EB1000"/>
<stop offset="1" stop-color="#EB1000" stop-opacity="0"/>
</radialGradient>
<clipPath id="clip0_50_585">
<rect x="3.40869" width="96" height="96" rx="5.125" fill="white"/>
</clipPath>
</defs>
</svg>
