<svg width="48" height="48" viewBox="0 0 48 48" xmlns="http://www.w3.org/2000/svg">
  <defs>
<radialGradient id="paint0_radial_5481_99556" cx="0" cy="0" r="1" gradientUnits="userSpaceOnUse" gradientTransform="translate(27.1423 1.86222) rotate(90) scale(20.8826)">
<stop offset="0.166667" stop-color="#FF709F"/>
<stop offset="1" stop-color="#FF709F" stop-opacity="0"/>
</radialGradient>
<linearGradient id="paint1_linear_5481_99556" x1="-12.0622" y1="42.8952" x2="65.9766" y2="-4.58296" gradientUnits="userSpaceOnUse">
<stop offset="0.0598452" stop-color="#8480FE"/>
<stop offset="0.599632" stop-color="#8480FE" stop-opacity="0"/>
</linearGradient>
<linearGradient id="paint2_linear_5481_99556" x1="50.5621" y1="8.84155" x2="17.0836" y2="44.8401" gradientUnits="userSpaceOnUse">
<stop stop-color="#EB1000"/>
<stop offset="1" stop-color="#EB1000" stop-opacity="0"/>
</linearGradient>
<linearGradient id="paint3_linear_5481_99556" x1="9.87765" y1="49.8089" x2="69.2259" y2="16.5628" gradientUnits="userSpaceOnUse">
<stop stop-color="#FC7D00" stop-opacity="0"/>
<stop offset="0.432292" stop-color="#FC7D00"/>
<stop offset="0.609375" stop-color="#FC7D00"/>
<stop offset="1" stop-color="#FC7D00" stop-opacity="0"/>
</linearGradient>
<radialGradient id="paint4_radial_5481_99556" cx="0" cy="0" r="1" gradientUnits="userSpaceOnUse" gradientTransform="translate(45.2009 8.67178) rotate(90) scale(20.8826)">
<stop offset="0.166667" stop-color="#EB1000"/>
<stop offset="1" stop-color="#EB1000" stop-opacity="0"/>
</radialGradient>
<clipPath id="clip0_5481_99556">
<rect width="48" height="48" rx="5.125" fill="white"/>
</clipPath>
</defs>
<clipPath id="mask0_5481_99556">
<path fill-rule="evenodd" d="M14.3567 12.3423C14.3567 9.39182 16.7486 7 19.699 7C21.3952 7 23.0512 7.79048 24.0299 9.02315C25.0085 7.79048 26.3755 7 28.0717 7C31.0222 7 33.414 9.39182 33.414 12.3423C33.414 13.4676 33.0661 14.5116 32.4719 15.3727H28.1032C29.7624 15.3558 31.1023 14.0055 31.1023 12.3423C31.1023 10.6686 29.7455 9.31173 28.0717 9.31173C26.4055 9.31173 25.3423 10.6564 25.3302 12.3198L25.3303 15.3727L22.7295 15.371L22.7295 12.3198C22.7174 10.6564 21.3652 9.31173 19.699 9.31173C18.0253 9.31173 16.6685 10.6686 16.6685 12.3423C16.6685 14.0055 18.0083 15.3558 19.6675 15.3727H15.2988C14.7047 14.5116 14.3567 13.4676 14.3567 12.3423ZM8 17.6919C8 16.4151 9.035 15.3801 10.3117 15.3801H22.7373V24.916H10.3117C9.03499 24.916 8 23.881 8 22.6043V17.6919ZM40.0752 17.6919C40.0752 16.4151 39.0402 15.3801 37.7635 15.3801H25.338V24.916H37.7635C39.0402 24.916 40.0752 23.881 40.0752 22.6043V17.6919ZM25.3375 27.2277H38.052V34.4519C38.052 37.3245 35.7233 39.6533 32.8507 39.6533H25.3375V27.2277ZM10.0232 27.2277H22.7377V39.6533H15.2246C12.3519 39.6533 10.0232 37.3245 10.0232 34.4519V27.2277Z" fill="#D9D9D9"/>
</clipPath>
<g clip-path="url(#mask0_5481_99556)">
<g clip-path="url(#clip0_5481_99556)">
<rect width="48" height="48" rx="5.125" fill="#FFECCF"/>
<rect width="48" height="48" fill="#FFECCF"/>
<circle cx="27.1423" cy="1.86221" r="20.8826" transform="rotate(-0.0800682 27.1423 1.86221)" fill="url(#paint0_radial_5481_99556)"/>
<path d="M18.3213 -8.47858C14.635 -10.7597 9.96439 -10.7737 6.26433 -8.51465L-30.7429 14.0808C-34.3673 16.2938 -34.3733 21.5172 -30.7539 23.7386L6.00883 46.302C9.70335 48.5691 14.374 48.5664 18.0653 46.2939L54.7523 23.7094C58.3526 21.4928 58.3591 16.2985 54.7632 14.0735L18.3213 -8.47858Z" fill="url(#paint1_linear_5481_99556)"/>
<path d="M6.91632 22.7894C7.73673 4.86956 22.9287 -8.99224 40.8485 -8.17184C58.7683 -7.35143 72.6301 7.84053 71.8097 25.7603C70.9893 43.6802 55.7973 57.542 37.8775 56.7215C19.9577 55.9011 6.09591 40.7092 6.91632 22.7894Z" fill="url(#paint2_linear_5481_99556)"/>
<path d="M-19.4476 34.6052C-12.3244 31.5664 -4.64218 31.6967 2.01351 34.3546C15.3317 39.6865 23.0811 36.39 28.456 23.1023C31.1333 16.4345 36.3604 10.7876 43.4915 7.74541C57.7492 1.67237 74.2091 8.26203 80.2736 22.4776C86.338 36.6931 79.7002 53.1271 65.4459 59.2081C58.2988 62.2571 50.6018 62.1143 43.9359 59.4324C30.6393 54.129 22.9046 57.438 17.5365 70.7417C14.8525 77.3935 9.62658 83.0211 2.50343 86.0599C-11.7429 92.1375 -28.2028 85.5478 -34.2639 71.3402C-40.3249 57.1326 -33.6939 40.6828 -19.4476 34.6052Z" fill="url(#paint3_linear_5481_99556)"/>
<circle cx="45.2009" cy="8.67178" r="20.8826" transform="rotate(-0.0800682 45.2009 8.67178)" fill="url(#paint4_radial_5481_99556)"/>
</g>
</g>

</svg>
