<svg width="96" height="96" viewBox="0 0 96 96" xmlns="http://www.w3.org/2000/svg">
  <defs>
<radialGradient id="paint0_radial_5481_99547" cx="0" cy="0" r="1" gradientUnits="userSpaceOnUse" gradientTransform="translate(54.2806 3.72345) rotate(90) scale(41.7653)">
<stop offset="0.166667" stop-color="#FF709F"/>
<stop offset="1" stop-color="#FF709F" stop-opacity="0"/>
</radialGradient>
<linearGradient id="paint1_linear_5481_99547" x1="-24.1244" y1="85.7895" x2="131.953" y2="-9.16689" gradientUnits="userSpaceOnUse">
<stop offset="0.0598452" stop-color="#8480FE"/>
<stop offset="0.599632" stop-color="#8480FE" stop-opacity="0"/>
</linearGradient>
<linearGradient id="paint2_linear_5481_99547" x1="101.128" y1="17.6831" x2="34.1712" y2="89.6803" gradientUnits="userSpaceOnUse">
<stop stop-color="#EB1000"/>
<stop offset="1" stop-color="#EB1000" stop-opacity="0"/>
</linearGradient>
<linearGradient id="paint3_linear_5481_99547" x1="19.7553" y1="99.6167" x2="138.452" y2="33.1246" gradientUnits="userSpaceOnUse">
<stop stop-color="#FC7D00" stop-opacity="0"/>
<stop offset="0.432292" stop-color="#FC7D00"/>
<stop offset="0.609375" stop-color="#FC7D00"/>
<stop offset="1" stop-color="#FC7D00" stop-opacity="0"/>
</linearGradient>
<radialGradient id="paint4_radial_5481_99547" cx="0" cy="0" r="1" gradientUnits="userSpaceOnUse" gradientTransform="translate(90.4056 17.3436) rotate(90) scale(41.7653)">
<stop offset="0.166667" stop-color="#EB1000"/>
<stop offset="1" stop-color="#EB1000" stop-opacity="0"/>
</radialGradient>
<clipPath id="clip0_5481_99547">
<rect width="96" height="96" rx="5.125" fill="white"/>
</clipPath>
</defs>
<clipPath id="mask0_5481_99547">
<path fill-rule="evenodd" d="M78.8033 25.5C78.8042 25.474 78.8047 25.4479 78.8047 25.4219C78.8047 20.9087 65.013 17.25 48 17.25C30.987 17.25 17.1953 20.9087 17.1953 25.4219C17.1953 25.4479 17.1958 25.474 17.1967 25.5H17.1953V25.5315C17.2437 26.0101 17.6097 26.7819 18.9503 27.7645C20.3611 28.7986 22.5308 29.8137 25.3917 30.7007C31.0895 32.4672 39.0832 33.5904 48.0001 33.5904C56.917 33.5904 64.9107 32.4672 70.6085 30.7007C73.4695 29.8137 75.6391 28.7986 77.0499 27.7645C78.3886 26.7832 78.7555 26.0122 78.8047 25.5335V25.5H78.8033ZM17.1953 36.8381V31.4141C19.0402 32.6294 21.446 33.6652 24.2072 34.5213C30.3845 36.4365 38.7962 37.5904 48.0001 37.5904C57.204 37.5904 65.6157 36.4365 71.793 34.5213C74.5541 33.6652 76.9599 32.6295 78.8047 31.4142V36.8401C78.7555 37.3189 78.3886 38.0899 77.0499 39.0711C75.6391 40.1053 73.4695 41.1203 70.6085 42.0073C64.9107 43.7739 56.917 44.8971 48.0001 44.8971C39.0832 44.8971 31.0895 43.7739 25.3917 42.0073C22.5308 41.1203 20.3611 40.1053 18.9503 39.0711C17.6097 38.0885 17.2437 37.3167 17.1953 36.8381ZM78.8047 42.7208C76.9599 43.9362 74.5541 44.9719 71.793 45.8279C65.6157 47.7431 57.204 48.8971 48.0001 48.8971C38.7962 48.8971 30.3845 47.7431 24.2072 45.8279C21.446 44.9719 19.0402 43.9361 17.1953 42.7207V48.1135C17.2437 48.5921 17.6097 49.3639 18.9503 50.3465C20.3611 51.3806 22.5308 52.3957 25.3917 53.2827C31.0895 55.0493 39.0832 56.1725 48.0001 56.1725C56.917 56.1725 64.9107 55.0493 70.6085 53.2827C73.4695 52.3957 75.6391 51.3806 77.0499 50.3465C78.3886 49.3653 78.7555 48.5943 78.8047 48.1155V42.7208ZM17.1953 59.4475V53.9961C19.0402 55.2115 21.446 56.2472 24.2072 57.1033C30.3845 59.0185 38.7962 60.1725 48.0001 60.1725C57.204 60.1725 65.6157 59.0185 71.793 57.1033C74.5541 56.2473 76.9599 55.2116 78.8047 53.9962V59.4495C78.7555 59.9283 78.3886 60.6993 77.0499 61.6805C75.6391 62.7146 73.4695 63.7297 70.6085 64.6167C64.9107 66.3832 56.917 67.5065 48.0001 67.5065C39.0832 67.5065 31.0895 66.3832 25.3917 64.6167C22.5308 63.7297 20.3611 62.7146 18.9503 61.6805C17.6097 60.6979 17.2437 59.9261 17.1953 59.4475ZM17.1953 65.3301V70.8281C18.6953 75.3125 32.6426 78.75 47.6953 78.75C59.574 78.75 76.0703 76.375 78.8047 70.8281V65.3302C76.9599 66.5455 74.5541 67.5813 71.793 68.4373C65.6157 70.3525 57.204 71.5065 48.0001 71.5065C38.7962 71.5065 30.3845 70.3525 24.2072 68.4373C21.446 67.5812 19.0402 66.5455 17.1953 65.3301Z" fill="white"/>
</clipPath>
<g clip-path="url(#mask0_5481_99547)">
<g clip-path="url(#clip0_5481_99547)">
<rect width="96" height="96" rx="5.125" fill="#FFECCF"/>
<rect width="96" height="96" fill="#FFECCF"/>
<circle cx="54.2806" cy="3.72345" r="41.7653" transform="rotate(-0.0800682 54.2806 3.72345)" fill="url(#paint0_radial_5481_99547)"/>
<path d="M36.6427 -16.9581C29.27 -21.5204 19.9288 -21.5483 12.5287 -17.0303L-61.4858 28.1606C-68.7346 32.5865 -68.7467 43.0335 -61.5078 47.4761L12.0177 92.6029C19.4067 97.1373 28.7479 97.1319 36.1306 92.5868L109.505 47.4178C116.705 42.9845 116.718 32.596 109.526 28.1461L36.6427 -16.9581Z" fill="url(#paint1_linear_5481_99547)"/>
<path d="M13.8365 45.5788C15.4774 9.73912 45.8613 -17.9845 81.7009 -16.3437C117.541 -14.7029 145.264 15.6811 143.623 51.5207C141.982 87.3603 111.599 115.084 75.759 113.443C39.9193 111.802 12.1957 81.4184 13.8365 45.5788Z" fill="url(#paint2_linear_5481_99547)"/>
<path d="M-38.8952 69.2093C-24.6489 63.1318 -9.28437 63.3923 4.02702 68.7083C30.6634 79.3721 46.1622 72.779 56.9121 46.2036C62.2666 32.8681 72.7207 21.5742 86.983 15.4898C115.498 3.34376 148.418 16.5231 160.547 44.9542C172.676 73.3853 159.4 106.253 130.892 118.415C116.598 124.513 101.204 124.228 87.8718 118.864C61.2786 108.257 45.8093 114.875 35.073 141.482C29.7049 154.786 19.2532 166.041 5.00686 172.119C-23.4858 184.274 -56.4056 171.095 -68.5277 142.679C-80.6499 114.264 -67.3878 81.3645 -38.8952 69.2093Z" fill="url(#paint3_linear_5481_99547)"/>
<circle cx="90.4056" cy="17.3436" r="41.7653" transform="rotate(-0.0800682 90.4056 17.3436)" fill="url(#paint4_radial_5481_99547)"/>
</g>
</g>

</svg>
