<svg width="160" height="160" viewBox="0 0 160 160" xmlns="http://www.w3.org/2000/svg">
  <defs>
<radialGradient id="paint0_radial_5481_89918" cx="0" cy="0" r="1" gradientUnits="userSpaceOnUse" gradientTransform="translate(56.9923 53.7253) rotate(90) scale(53.7253 56.9923)">
<stop offset="0.166667" stop-color="#FF709F"/>
<stop offset="1" stop-color="#FF709F" stop-opacity="0"/>
</radialGradient>
<linearGradient id="paint1_linear_5481_89918" x1="-19.9205" y1="131.011" x2="186.087" y2="-1.94322" gradientUnits="userSpaceOnUse">
<stop offset="0.0598452" stop-color="#8480FE"/>
<stop offset="0.599632" stop-color="#8480FE" stop-opacity="0"/>
</linearGradient>
<linearGradient id="paint2_linear_5481_89918" x1="150.995" y1="43.4014" x2="65.3801" y2="141.06" gradientUnits="userSpaceOnUse">
<stop stop-color="#EB1000"/>
<stop offset="1" stop-color="#EB1000" stop-opacity="0"/>
</linearGradient>
<linearGradient id="paint3_linear_5481_89918" x1="39.9585" y1="148.798" x2="197.223" y2="55.3431" gradientUnits="userSpaceOnUse">
<stop stop-color="#FC7D00" stop-opacity="0"/>
<stop offset="0.432292" stop-color="#FC7D00"/>
<stop offset="0.609375" stop-color="#FC7D00"/>
<stop offset="1" stop-color="#FC7D00" stop-opacity="0"/>
</linearGradient>
<radialGradient id="paint4_radial_5481_89918" cx="0" cy="0" r="1" gradientUnits="userSpaceOnUse" gradientTransform="translate(56.9923 53.7253) rotate(90) scale(53.7253 56.9923)">
<stop offset="0.166667" stop-color="#EB1000"/>
<stop offset="1" stop-color="#EB1000" stop-opacity="0"/>
</radialGradient>
<clipPath id="clip0_5481_89918">
<rect x="13" y="20.6543" width="131" height="123.491" rx="3.46124" fill="white"/>
</clipPath>
</defs>
<clipPath id="mask0_5481_89918">
<path fill-rule="evenodd" d="M128.11 28.2437C128.145 26.0348 126.383 24.2156 124.174 24.1802C121.965 24.1449 120.146 25.9069 120.111 28.1157L120.055 31.6139L116.552 31.5602C114.343 31.5263 112.525 33.2895 112.491 35.4984C112.457 37.7073 114.22 39.5254 116.429 39.5592L119.927 39.6129L119.871 43.1157C119.835 45.3246 121.597 47.1438 123.806 47.1792C126.015 47.2145 127.834 45.4525 127.87 43.2437L127.926 39.7355L131.429 39.7892C133.638 39.8231 135.456 38.0599 135.49 35.851C135.524 33.6421 133.76 31.824 131.552 31.7902L128.054 31.7365L128.11 28.2437ZM66.99 30.7897C66.99 28.5805 65.1991 26.7897 62.99 26.7897C60.7809 26.7897 58.99 28.5805 58.99 30.7897V40.9297C58.99 43.1388 60.7809 44.9297 62.99 44.9297C65.1991 44.9297 66.99 43.1388 66.99 40.9297V30.7897ZM41.9601 33.6127C43.7479 32.3149 46.2492 32.7121 47.547 34.4998L53.507 42.7098C54.8048 44.4976 54.4076 46.9989 52.6199 48.2967C50.8321 49.5945 48.3308 49.1973 47.033 47.4096L41.073 39.1996C39.7752 37.4118 40.1724 34.9105 41.9601 33.6127ZM33.9953 48.9452C31.8941 48.263 29.6377 49.4133 28.9555 51.5144C28.2733 53.6156 29.4236 55.8719 31.5247 56.5542L41.1647 59.6842C43.2659 60.3664 45.5223 59.2161 46.2045 57.115C46.8867 55.0138 45.7364 52.7574 43.6353 52.0752L33.9953 48.9452ZM46.2049 68.0256C46.8865 70.1269 45.7355 72.383 43.6341 73.0645L33.9841 76.1945C31.8828 76.8761 29.6267 75.7252 28.9451 73.6238C28.2636 71.5224 29.4145 69.2664 31.5159 68.5848L41.1659 65.4548C43.2673 64.7732 45.5233 65.9242 46.2049 68.0256ZM53.4956 82.4414C54.7945 80.6544 54.3987 78.1529 52.6118 76.8541C50.8248 75.5552 48.3232 75.9509 47.0244 77.7379L41.0644 85.9379C39.7655 87.7249 40.1613 90.2265 41.9483 91.5253C43.7352 92.8241 46.2368 92.4284 47.5356 90.6414L53.4956 82.4414ZM66.98 84.2197C66.98 82.0105 65.1891 80.2197 62.98 80.2197C60.7709 80.2197 58.98 82.0105 58.98 84.2197V94.3597C58.98 96.5688 60.7709 98.3597 62.98 98.3597C65.1891 98.3597 66.98 96.5688 66.98 94.3597V84.2197ZM84.0318 33.6241C85.8187 34.9229 86.2145 37.4244 84.9156 39.2114L78.9556 47.4114C77.6568 49.1984 75.1552 49.5941 73.3683 48.2953C71.5813 46.9965 71.1855 44.4949 72.4844 42.7079L78.4444 34.5079C79.7432 32.7209 82.2448 32.3252 84.0318 33.6241ZM94.4553 56.5642C96.5564 55.8819 97.7067 53.6256 97.0245 51.5244C96.3423 49.4232 94.0859 48.273 91.9847 48.9552L82.3447 52.0852C80.2436 52.7674 79.0933 55.0238 79.7755 57.125C80.4578 59.2261 82.7141 60.3764 84.8153 59.6942L94.4553 56.5642ZM79.7755 68.0344C80.4578 65.9332 82.7141 64.783 84.8153 65.4652L94.4553 68.5952C96.5564 69.2774 97.7067 71.5338 97.0245 73.635C96.3423 75.7361 94.0859 76.8864 91.9847 76.2042L82.3447 73.0742C80.2436 72.3919 79.0933 70.1356 79.7755 68.0344ZM78.947 77.7398C77.6492 75.9521 75.1479 75.5549 73.3601 76.8527C71.5724 78.1505 71.1752 80.6518 72.473 82.4396L78.433 90.6496C79.7308 92.4373 82.2321 92.8345 84.0199 91.5367C85.8076 90.2389 86.2048 87.7376 84.907 85.9498L78.947 77.7398ZM109.037 114.96C111.246 114.969 113.029 116.767 113.021 118.976L113.001 123.926C112.992 126.135 111.194 127.919 108.984 127.91C106.775 127.901 104.992 126.103 105.001 123.894L105.021 118.944C105.03 116.734 106.828 114.951 109.037 114.96ZM100.097 116.142C102.014 115.045 102.68 112.601 101.583 110.683C100.486 108.766 98.0418 108.101 96.1243 109.198L91.8243 111.658C89.9067 112.755 89.2416 115.198 90.3386 117.116C91.4356 119.034 93.8793 119.699 95.7968 118.602L100.097 116.142ZM90.3631 95.5682C91.474 93.6587 93.9225 93.0113 95.832 94.1222L100.112 96.6122C102.022 97.7231 102.669 100.172 101.558 102.081C100.447 103.991 97.9986 104.638 96.0891 103.527L91.8091 101.037C89.8996 99.9263 89.2522 97.4777 90.3631 95.5682ZM113.021 88.8259C113.029 86.6167 111.246 84.8187 109.037 84.8097C106.828 84.8008 105.03 86.5844 105.021 88.7935L105.001 93.7435C104.992 95.9527 106.775 97.7507 108.984 97.7597C111.194 97.7686 112.992 95.985 113.001 93.7759L113.021 88.8259ZM127.693 95.6034C128.79 97.5209 128.124 99.9647 126.207 101.062L121.907 103.522C119.989 104.619 117.546 103.954 116.449 102.036C115.352 100.118 116.017 97.6747 117.934 96.5777L122.234 94.1177C124.152 93.0207 126.596 93.6859 127.693 95.6034ZM121.942 109.192C120.033 108.081 117.584 108.729 116.473 110.638C115.362 112.548 116.01 114.996 117.919 116.107L122.199 118.597C124.109 119.708 126.557 119.061 127.668 117.151C128.779 115.242 128.132 112.793 126.222 111.682L121.942 109.192ZM23.4809 124.488C23.5148 122.279 25.3329 120.516 27.5418 120.55L31.0372 120.604L31.0909 117.098C31.1248 114.889 32.9429 113.126 35.1518 113.16C37.3607 113.194 39.1239 115.012 39.09 117.221L39.0363 120.726L42.5418 120.78C44.7507 120.814 46.5139 122.632 46.48 124.841C46.4461 127.05 44.628 128.813 42.4192 128.779L38.9136 128.725L38.86 132.221C38.8261 134.43 37.008 136.193 34.7992 136.159C32.5903 136.125 30.8271 134.307 30.8609 132.098L30.9145 128.603L27.4192 128.549C25.2103 128.515 23.4471 126.697 23.4809 124.488Z" fill="white"/>
</clipPath>
<g clip-path="url(#mask0_5481_89918)">
<g clip-path="url(#clip0_5481_89918)">
<rect x="13" y="20.6543" width="131" height="123.491" rx="3.46124" fill="#FFECCF"/>
<rect width="131" height="123.491" transform="translate(13 20.6543)" fill="#FFECCF"/>
<ellipse cx="56.9923" cy="53.7253" rx="56.9923" ry="53.7253" transform="matrix(0.999999 -0.00131734 0.00148243 0.999999 30 -28.2061)" fill="url(#paint0_radial_5481_89918)"/>
<path d="M63.0015 -1.15922C52.9408 -7.0279 40.1939 -7.06384 30.0958 -1.252L-70.9034 56.8798C-80.795 62.5732 -80.8115 76.0118 -70.9334 81.7267L29.3985 139.776C39.4815 145.609 52.2284 145.602 62.3027 139.755L162.428 81.6516C172.254 75.9488 172.272 62.5854 162.458 56.8612L63.0015 -1.15922Z" fill="url(#paint1_linear_5481_89918)"/>
<path d="M31.8784 79.2854C34.1175 33.1826 75.579 -2.48002 124.485 -0.369331C173.392 1.74136 211.223 40.8261 208.984 86.9289C206.745 133.032 165.283 168.694 116.377 166.584C67.4707 164.473 29.6394 125.388 31.8784 79.2854Z" fill="url(#paint2_linear_5481_89918)"/>
<path d="M-40.0752 109.683C-20.6349 101.865 0.331309 102.2 18.4959 109.038C54.8435 122.756 75.9931 114.275 90.6621 80.089C97.9688 62.9348 112.234 48.4068 131.697 40.58C170.608 24.9558 215.53 41.9092 232.081 78.4819C248.632 115.055 230.516 157.335 191.614 172.979C172.108 180.824 151.102 180.456 132.909 173.556C96.6206 159.912 75.5114 168.426 60.8609 202.652C53.5356 219.765 39.2733 234.244 19.8329 242.062C-19.0477 257.698 -63.9697 240.744 -80.5114 204.192C-97.0531 167.64 -78.9559 125.319 -40.0752 109.683Z" fill="url(#paint3_linear_5481_89918)"/>
<ellipse cx="56.9923" cy="53.7253" rx="56.9923" ry="53.7253" transform="matrix(0.999999 -0.00131734 0.00148243 0.999999 79.293 -10.6855)" fill="url(#paint4_radial_5481_89918)"/>
</g>
</g>

</svg>
