<svg width="48" height="48" viewBox="0 0 48 48" xmlns="http://www.w3.org/2000/svg">
  <defs>
<radialGradient id="paint0_radial_5481_99414" cx="0" cy="0" r="1" gradientUnits="userSpaceOnUse" gradientTransform="translate(17.0977 16.1176) rotate(90) scale(16.1176 17.0977)">
<stop offset="0.166667" stop-color="#FF709F"/>
<stop offset="1" stop-color="#FF709F" stop-opacity="0"/>
</radialGradient>
<linearGradient id="paint1_linear_5481_99414" x1="-5.97653" y1="39.3034" x2="55.8257" y2="-0.582971" gradientUnits="userSpaceOnUse">
<stop offset="0.0598452" stop-color="#8480FE"/>
<stop offset="0.599632" stop-color="#8480FE" stop-opacity="0"/>
</linearGradient>
<linearGradient id="paint2_linear_5481_99414" x1="45.2963" y1="13.0199" x2="19.6117" y2="42.3174" gradientUnits="userSpaceOnUse">
<stop stop-color="#EB1000"/>
<stop offset="1" stop-color="#EB1000" stop-opacity="0"/>
</linearGradient>
<linearGradient id="paint3_linear_5481_99414" x1="11.9864" y1="44.6395" x2="59.1656" y2="16.6031" gradientUnits="userSpaceOnUse">
<stop stop-color="#FC7D00" stop-opacity="0"/>
<stop offset="0.432292" stop-color="#FC7D00"/>
<stop offset="0.609375" stop-color="#FC7D00"/>
<stop offset="1" stop-color="#FC7D00" stop-opacity="0"/>
</linearGradient>
<radialGradient id="paint4_radial_5481_99414" cx="0" cy="0" r="1" gradientUnits="userSpaceOnUse" gradientTransform="translate(17.0977 16.1176) rotate(90) scale(16.1176 17.0977)">
<stop offset="0.166667" stop-color="#EB1000"/>
<stop offset="1" stop-color="#EB1000" stop-opacity="0"/>
</radialGradient>
<clipPath id="clip0_5481_99414">
<rect x="3.89844" y="6.19629" width="39.3001" height="37.0472" rx="1.03837" fill="white"/>
</clipPath>
</defs>
<clipPath id="mask0_5481_99414">
<path fill-rule="evenodd" d="M35.0537 15.1352C35.0537 19.1944 31.9645 22.4852 28.1537 22.4852C24.3429 22.4852 21.2537 19.1944 21.2537 15.1352C21.2537 11.0759 24.3429 7.78516 28.1537 7.78516C31.9645 7.78516 35.0537 11.0759 35.0537 15.1352ZM21.7759 22.2242C21.1639 22.4132 20.5159 22.5182 19.8439 22.5182C16.0339 22.5182 12.9439 19.2272 12.9439 15.1682C12.9439 11.1092 16.0339 7.81816 19.8439 7.81816C20.4949 7.81816 21.1279 7.91716 21.7249 8.09716C19.9549 9.87316 18.8509 12.3452 18.8509 15.1352C18.8509 17.9252 19.9759 20.4452 21.7759 22.2242ZM12.0199 36.7412C12.9949 32.2142 15.8149 28.4312 19.5769 26.1212C12.9649 26.2472 7.40287 31.0172 6.05587 37.2782C5.73187 38.7842 6.85687 40.2122 8.39887 40.2122H12.5809C11.9689 39.1742 11.7589 37.9442 12.0199 36.7412ZM28.1507 26.0852C34.8797 26.0852 40.5737 30.9032 41.9387 37.2482C42.2627 38.7542 41.1377 40.1822 39.5957 40.1822H16.7057C15.1637 40.1822 14.0387 38.7542 14.3627 37.2482C15.7277 30.9032 21.4217 26.0852 28.1507 26.0852Z" fill="white"/>
</clipPath>
<g clip-path="url(#mask0_5481_99414)">
<g clip-path="url(#clip0_5481_99414)">
<rect x="3.89844" y="6.19629" width="39.3001" height="37.0472" rx="1.03837" fill="#FFECCF"/>
<rect width="39.3001" height="37.0472" transform="translate(3.89844 6.19629)" fill="#FFECCF"/>
<ellipse cx="17.0977" cy="16.1176" rx="17.0977" ry="16.1176" transform="matrix(0.999999 -0.00131734 0.00148243 0.999999 9 -8.46191)" fill="url(#paint0_radial_5481_99414)"/>
<path d="M18.9001 -0.347766C15.8819 -2.10837 12.0578 -2.11915 9.02836 -0.3756L-21.2714 17.064C-24.2389 18.772 -24.2438 22.8035 -21.2804 24.518L8.81916 41.9328C11.8441 43.6827 15.6681 43.6806 18.6904 41.9266L48.728 24.4955C51.6757 22.7847 51.6811 18.7756 48.737 17.0584L18.9001 -0.347766Z" fill="url(#paint1_linear_5481_99414)"/>
<path d="M9.56118 23.7851C10.2329 9.95429 22.6713 -0.744495 37.3432 -0.111288C52.0151 0.521918 63.3645 12.2473 62.6928 26.0782C62.0211 39.909 49.5826 50.6078 34.9107 49.9746C20.2389 49.3414 8.88946 37.616 9.56118 23.7851Z" fill="url(#paint2_linear_5481_99414)"/>
<path d="M-12.0237 32.905C-6.19164 30.5596 0.0982146 30.6602 5.54758 32.7117C16.4519 36.8269 22.7967 34.2826 27.1975 24.0269C29.3895 18.8806 33.6692 14.5222 39.5078 12.1742C51.1813 7.48693 64.6579 12.5729 69.6232 23.5448C74.5885 34.5166 69.1538 47.2006 57.483 51.894C51.6313 54.2473 45.3293 54.1371 39.8716 52.0671C28.985 47.9739 22.6522 50.5279 18.2571 60.7958C16.0595 65.9298 11.7808 70.2733 5.9487 72.6187C-5.7155 77.3095 -19.1921 72.2235 -24.1546 61.2578C-29.1171 50.2921 -23.6879 37.5958 -12.0237 32.905Z" fill="url(#paint3_linear_5481_99414)"/>
<ellipse cx="17.0977" cy="16.1176" rx="17.0977" ry="16.1176" transform="matrix(0.999999 -0.00131734 0.00148243 0.999999 23.7852 -3.20605)" fill="url(#paint4_radial_5481_99414)"/>
</g>
</g>

</svg>
