<svg width="160" height="160" viewBox="0 0 160 160" xmlns="http://www.w3.org/2000/svg">
  <defs>
<radialGradient id="paint0_radial_5481_90037" cx="0" cy="0" r="1" gradientUnits="userSpaceOnUse" gradientTransform="translate(90.4677 6.20574) rotate(90) scale(69.6088)">
<stop offset="0.166667" stop-color="#FF709F"/>
<stop offset="1" stop-color="#FF709F" stop-opacity="0"/>
</radialGradient>
<linearGradient id="paint1_linear_5481_90037" x1="-40.2086" y1="142.983" x2="219.921" y2="-15.2772" gradientUnits="userSpaceOnUse">
<stop offset="0.0598452" stop-color="#8480FE"/>
<stop offset="0.599632" stop-color="#8480FE" stop-opacity="0"/>
</linearGradient>
<linearGradient id="paint2_linear_5481_90037" x1="168.544" y1="29.4718" x2="56.9494" y2="149.467" gradientUnits="userSpaceOnUse">
<stop stop-color="#EB1000"/>
<stop offset="1" stop-color="#EB1000" stop-opacity="0"/>
</linearGradient>
<linearGradient id="paint3_linear_5481_90037" x1="32.9255" y1="166.029" x2="230.753" y2="55.2086" gradientUnits="userSpaceOnUse">
<stop stop-color="#FC7D00" stop-opacity="0"/>
<stop offset="0.432292" stop-color="#FC7D00"/>
<stop offset="0.609375" stop-color="#FC7D00"/>
<stop offset="1" stop-color="#FC7D00" stop-opacity="0"/>
</linearGradient>
<radialGradient id="paint4_radial_5481_90037" cx="0" cy="0" r="1" gradientUnits="userSpaceOnUse" gradientTransform="translate(150.675 28.9059) rotate(90) scale(69.6088)">
<stop offset="0.166667" stop-color="#EB1000"/>
<stop offset="1" stop-color="#EB1000" stop-opacity="0"/>
</radialGradient>
<clipPath id="clip0_5481_90037">
<rect width="160" height="160" rx="5.125" fill="white"/>
</clipPath>
</defs>
<clipPath id="mask0_5481_90037">
<path fill-rule="evenodd" d="M40.2305 24.2676C31.3939 24.2676 24.2305 31.431 24.2305 40.2676V55.605C24.2305 64.4416 31.3939 71.605 40.2305 71.605H55.5679C64.4044 71.605 71.5679 64.4416 71.5679 55.605V40.2676C71.5679 31.431 64.4044 24.2676 55.5679 24.2676H40.2305ZM91.9734 26.1996C89.7655 26.1247 87.915 27.8539 87.8402 30.0618C87.7654 32.2697 89.4945 34.1201 91.7024 34.195C96.5764 34.3601 101.567 35.7647 105.33 39.405C108.577 42.5463 111.361 47.7915 112.005 56.6039L105.828 50.4263C104.266 48.8642 101.733 48.8642 100.171 50.4263C98.6089 51.9884 98.6089 54.521 100.171 56.0831L112.595 68.5071C114.157 70.0692 116.69 70.0692 118.252 68.5071L130.716 56.0431C132.278 54.481 132.278 51.9483 130.716 50.3862C129.154 48.8241 126.621 48.8241 125.059 50.3862L119.943 55.5026C119.114 45.4901 115.797 38.4007 110.892 33.6553C105.247 28.1942 98.0842 26.4067 91.9734 26.1996ZM47.2443 91.4931C45.6822 89.931 43.1496 89.931 41.5875 91.4931L29.1234 103.957C27.5613 105.519 27.5613 108.052 29.1234 109.614C30.6855 111.176 33.2182 111.176 34.7803 109.614L39.8963 104.498C40.7247 114.51 44.0417 121.599 48.9466 126.345C54.5914 131.806 61.7547 133.593 67.8655 133.8C70.0734 133.875 71.9239 132.146 71.9987 129.938C72.0735 127.73 70.3443 125.88 68.1365 125.805C63.2625 125.64 58.2719 124.235 54.5092 120.595C51.2622 117.454 48.4773 112.208 47.8334 103.396L54.0115 109.574C55.5736 111.136 58.1062 111.136 59.6683 109.574C61.2304 108.012 61.2304 105.479 59.6683 103.917L47.2443 91.4931ZM104.432 88.3955C95.5956 88.3955 88.4321 95.559 88.4321 104.396V119.733C88.4321 128.569 95.5956 135.733 104.432 135.733H119.77C128.606 135.733 135.77 128.569 135.77 119.733V104.396C135.77 95.559 128.606 88.3955 119.77 88.3955H104.432Z" fill="white"/>
</clipPath>
<g clip-path="url(#mask0_5481_90037)">
<g clip-path="url(#clip0_5481_90037)">
<rect width="160" height="160" rx="5.125" fill="#FFECCF"/>
<rect width="160" height="160" fill="#FFECCF"/>
<circle cx="90.4677" cy="6.20574" r="69.6087" transform="rotate(-0.0800682 90.4677 6.20574)" fill="url(#paint0_radial_5481_90037)"/>
<path d="M61.0698 -28.2626C48.782 -35.8663 33.2133 -35.9129 20.8798 -28.3828L-102.478 46.9353C-114.559 54.3119 -114.579 71.7234 -102.514 79.1279L20.0281 154.339C32.3432 161.896 47.9119 161.887 60.2163 154.312L182.506 79.0306C194.507 71.6419 194.529 54.3277 182.543 46.9111L61.0698 -28.2626Z" fill="url(#paint1_linear_5481_90037)"/>
<path d="M23.0583 75.9646C25.793 16.2319 76.4328 -29.9741 136.166 -27.2395C195.898 -24.5048 242.104 26.1351 239.37 85.8678C236.635 145.601 185.995 191.807 126.262 189.072C66.5296 186.337 20.3236 135.697 23.0583 75.9646Z" fill="url(#paint2_linear_5481_90037)"/>
<path d="M-64.8253 115.35C-41.0814 105.221 -15.474 105.655 6.71169 114.515C51.1056 132.288 76.9371 121.299 94.8534 77.0069C103.778 54.7811 121.201 35.958 144.972 25.8174C192.497 5.57391 247.364 27.5395 267.579 74.9246C287.793 122.31 265.667 177.09 218.153 197.36C194.329 207.523 168.673 207.047 146.453 198.107C102.131 180.429 76.3488 191.459 58.4551 235.805C49.5082 257.978 32.0886 276.736 8.34476 286.866C-39.1429 307.124 -94.0093 285.159 -114.213 237.8C-134.416 190.441 -112.313 135.609 -64.8253 115.35Z" fill="url(#paint3_linear_5481_90037)"/>
<circle cx="150.675" cy="28.9059" r="69.6087" transform="rotate(-0.0800682 150.675 28.9059)" fill="url(#paint4_radial_5481_90037)"/>
</g>
</g>

</svg>
