<svg width="48" height="48" viewBox="0 0 48 48" xmlns="http://www.w3.org/2000/svg">
  <defs>
<radialGradient id="paint0_radial_5481_99551" cx="0" cy="0" r="1" gradientUnits="userSpaceOnUse" gradientTransform="translate(27.1423 1.86222) rotate(90) scale(20.8826)">
<stop offset="0.166667" stop-color="#FF709F"/>
<stop offset="1" stop-color="#FF709F" stop-opacity="0"/>
</radialGradient>
<linearGradient id="paint1_linear_5481_99551" x1="-12.0622" y1="42.8952" x2="65.9766" y2="-4.58296" gradientUnits="userSpaceOnUse">
<stop offset="0.0598452" stop-color="#8480FE"/>
<stop offset="0.599632" stop-color="#8480FE" stop-opacity="0"/>
</linearGradient>
<linearGradient id="paint2_linear_5481_99551" x1="50.5621" y1="8.84155" x2="17.0836" y2="44.8401" gradientUnits="userSpaceOnUse">
<stop stop-color="#EB1000"/>
<stop offset="1" stop-color="#EB1000" stop-opacity="0"/>
</linearGradient>
<linearGradient id="paint3_linear_5481_99551" x1="9.87765" y1="49.8089" x2="69.2259" y2="16.5628" gradientUnits="userSpaceOnUse">
<stop stop-color="#FC7D00" stop-opacity="0"/>
<stop offset="0.432292" stop-color="#FC7D00"/>
<stop offset="0.609375" stop-color="#FC7D00"/>
<stop offset="1" stop-color="#FC7D00" stop-opacity="0"/>
</linearGradient>
<radialGradient id="paint4_radial_5481_99551" cx="0" cy="0" r="1" gradientUnits="userSpaceOnUse" gradientTransform="translate(45.2009 8.67178) rotate(90) scale(20.8826)">
<stop offset="0.166667" stop-color="#EB1000"/>
<stop offset="1" stop-color="#EB1000" stop-opacity="0"/>
</radialGradient>
<clipPath id="clip0_5481_99551">
<rect width="48" height="48" rx="5.125" fill="white"/>
</clipPath>
</defs>
<clipPath id="mask0_5481_99551">
<path fill-rule="evenodd" d="M30.9202 18.423C30.9227 18.4094 30.9255 18.3957 30.9284 18.382L31.5427 15.5324L31.5428 15.5317C31.5455 15.5194 31.548 15.5072 31.5503 15.4948C31.6276 15.0833 31.5122 14.6555 31.2387 14.3461L29.3417 12.198C29.1653 11.9984 29.0626 11.7742 29.0217 11.5469H29.022C28.8667 10.6883 29.5923 9.78651 30.5516 10.0113L33.2831 10.6524C33.6885 10.7482 34.1144 10.6292 34.42 10.3351L36.4786 8.35564C37.3922 7.4766 38.8459 8.35233 38.5735 9.61802L37.9591 12.4683C37.8673 12.8913 37.9813 13.3358 38.2631 13.6547L40.1602 15.8027C40.9915 16.7435 40.1851 18.2331 38.998 17.999V17.9998L38.9704 17.994L38.9502 17.9895L36.2187 17.3484C35.8134 17.2525 35.3874 17.3715 35.0818 17.6656L33.0233 19.6451C32.1193 20.5148 30.6868 19.6668 30.9202 18.423ZM36.3227 19.9407L38.379 20.4233C38.5895 20.4726 38.7961 20.5036 38.998 20.5178V26.4995C38.998 28.4423 37.4133 29.9816 35.4584 29.9816H25.3903L17.5112 36.7197C16.7442 37.3805 15.5511 36.8347 15.5585 35.8259C15.5717 34.0169 15.5654 31.6414 15.5585 29.9816H12.5436C10.5887 29.9816 9.00391 28.4423 9.00391 26.4995V15.029C9.00391 13.0862 10.5887 11.5469 12.5436 11.5469H26.5084C26.5544 12.3419 26.8494 13.1529 27.4682 13.8534L28.9786 15.5636L28.4843 17.8568C28.107 19.6101 28.9508 21.1823 30.2408 21.9595C31.5479 22.7471 33.3997 22.7517 34.7566 21.4467L36.3227 19.9407ZM26.991 25.1367L24.9833 24.6843C24.7175 24.6249 24.4418 24.6992 24.242 24.8825L22.7297 26.2776C22.1336 26.8274 21.1859 26.2792 21.3643 25.49L21.8166 23.4824C21.8761 23.2166 21.8018 22.9408 21.6185 22.7411L20.2234 21.2287C19.6736 20.6327 20.2217 19.685 21.0109 19.8633L23.0186 20.3157C23.2844 20.3751 23.5601 20.3008 23.7599 20.1175L25.2723 18.7224C25.8683 18.1726 26.816 18.7208 26.6377 19.51L26.1853 21.5176C26.1259 21.7834 26.2002 22.0592 26.3834 22.2589L27.7786 23.7713C28.3284 24.3673 27.7802 25.315 26.991 25.1367Z" fill="white"/>
</clipPath>
<g clip-path="url(#mask0_5481_99551)">
<g clip-path="url(#clip0_5481_99551)">
<rect width="48" height="48" rx="5.125" fill="#FFECCF"/>
<rect width="48" height="48" fill="#FFECCF"/>
<circle cx="27.1423" cy="1.86221" r="20.8826" transform="rotate(-0.0800682 27.1423 1.86221)" fill="url(#paint0_radial_5481_99551)"/>
<path d="M18.3213 -8.47858C14.635 -10.7597 9.96439 -10.7737 6.26433 -8.51465L-30.7429 14.0808C-34.3673 16.2938 -34.3733 21.5172 -30.7539 23.7386L6.00883 46.302C9.70335 48.5691 14.374 48.5664 18.0653 46.2939L54.7523 23.7094C58.3526 21.4928 58.3591 16.2985 54.7632 14.0735L18.3213 -8.47858Z" fill="url(#paint1_linear_5481_99551)"/>
<path d="M6.91632 22.7894C7.73673 4.86956 22.9287 -8.99224 40.8485 -8.17184C58.7683 -7.35143 72.6301 7.84053 71.8097 25.7603C70.9893 43.6802 55.7973 57.542 37.8775 56.7215C19.9577 55.9011 6.09591 40.7092 6.91632 22.7894Z" fill="url(#paint2_linear_5481_99551)"/>
<path d="M-19.4476 34.6052C-12.3244 31.5664 -4.64218 31.6967 2.01351 34.3546C15.3317 39.6865 23.0811 36.39 28.456 23.1023C31.1333 16.4345 36.3604 10.7876 43.4915 7.74541C57.7492 1.67237 74.2091 8.26203 80.2736 22.4776C86.338 36.6931 79.7002 53.1271 65.4459 59.2081C58.2988 62.2571 50.6018 62.1143 43.9359 59.4324C30.6393 54.129 22.9046 57.438 17.5365 70.7417C14.8525 77.3935 9.62658 83.0211 2.50343 86.0599C-11.7429 92.1375 -28.2028 85.5478 -34.2639 71.3402C-40.3249 57.1326 -33.6939 40.6828 -19.4476 34.6052Z" fill="url(#paint3_linear_5481_99551)"/>
<circle cx="45.2009" cy="8.67178" r="20.8826" transform="rotate(-0.0800682 45.2009 8.67178)" fill="url(#paint4_radial_5481_99551)"/>
</g>
</g>

</svg>
