<svg width="160" height="160" viewBox="0 0 160 160" xmlns="http://www.w3.org/2000/svg">
  <defs>
<radialGradient id="paint0_radial_5481_90004" cx="0" cy="0" r="1" gradientUnits="userSpaceOnUse" gradientTransform="translate(90.4677 6.20574) rotate(90) scale(69.6088)">
<stop offset="0.166667" stop-color="#FF709F"/>
<stop offset="1" stop-color="#FF709F" stop-opacity="0"/>
</radialGradient>
<linearGradient id="paint1_linear_5481_90004" x1="-40.2086" y1="142.983" x2="219.921" y2="-15.2772" gradientUnits="userSpaceOnUse">
<stop offset="0.0598452" stop-color="#8480FE"/>
<stop offset="0.599632" stop-color="#8480FE" stop-opacity="0"/>
</linearGradient>
<linearGradient id="paint2_linear_5481_90004" x1="168.544" y1="29.4718" x2="56.9494" y2="149.467" gradientUnits="userSpaceOnUse">
<stop stop-color="#EB1000"/>
<stop offset="1" stop-color="#EB1000" stop-opacity="0"/>
</linearGradient>
<linearGradient id="paint3_linear_5481_90004" x1="32.9255" y1="166.029" x2="230.753" y2="55.2086" gradientUnits="userSpaceOnUse">
<stop stop-color="#FC7D00" stop-opacity="0"/>
<stop offset="0.432292" stop-color="#FC7D00"/>
<stop offset="0.609375" stop-color="#FC7D00"/>
<stop offset="1" stop-color="#FC7D00" stop-opacity="0"/>
</linearGradient>
<radialGradient id="paint4_radial_5481_90004" cx="0" cy="0" r="1" gradientUnits="userSpaceOnUse" gradientTransform="translate(150.675 28.9059) rotate(90) scale(69.6088)">
<stop offset="0.166667" stop-color="#EB1000"/>
<stop offset="1" stop-color="#EB1000" stop-opacity="0"/>
</radialGradient>
<clipPath id="clip0_5481_90004">
<rect width="160" height="160" rx="5.125" fill="white"/>
</clipPath>
</defs>
<clipPath id="mask0_5481_90004">
<path d="M94.4228 33.8278L65.8527 33.8279V28.1865C65.8527 25.9774 64.0619 24.1865 61.8527 24.1865C59.6436 24.1865 57.8527 25.9774 57.8527 28.1865V33.8279L28.2852 33.8279C26.076 33.8279 24.2852 35.6187 24.2852 37.8279C24.2852 40.037 26.076 41.8279 28.2852 41.8279L78.6451 41.8279C76.8111 53.3558 70.4072 62.7288 62.3572 69.8053C60.4948 71.4424 58.5559 72.9457 56.5823 74.3138C52.884 67.8717 50.2504 61.6898 49.4581 57.1942C49.0747 55.0186 47.0002 53.5657 44.8246 53.9491C42.649 54.3325 41.1961 56.407 41.5795 58.5826C42.595 64.3453 45.7236 71.4973 49.7444 78.4712C44.5005 81.2457 39.3455 83.0791 35.0328 83.9472C32.8671 84.3832 31.4649 86.4922 31.9008 88.6579C32.3368 90.8236 34.4458 92.2258 36.6115 91.7899C41.8332 90.7388 47.9027 88.553 53.9833 85.2767C59.8229 93.9949 67.0257 102.325 73.4387 106.467C75.2944 107.666 77.7704 107.133 78.9691 105.277C80.1677 103.422 79.6351 100.946 77.7794 99.7469C72.7959 96.5279 66.412 89.4023 60.8207 81.1084C63.1568 79.5071 65.4463 77.7413 67.639 75.8138C76.9926 67.5915 84.8173 56.2073 86.7298 41.8278H94.4228C96.6319 41.8278 98.4228 40.037 98.4228 37.8278C98.4228 35.6187 96.6319 33.8278 94.4228 33.8278Z" fill="#292929"/>
<path fill-rule="evenodd" d="M93.2787 113.842L85.0002 133.373C84.1381 135.407 81.7904 136.357 79.7564 135.495C77.7224 134.633 76.7724 132.285 77.6345 130.251L102.819 70.8317C102.883 70.678 102.956 70.5281 103.038 70.3832C103.18 70.1321 103.346 69.9013 103.533 69.6926C103.914 69.2652 104.393 68.9133 104.956 68.675C105.466 68.4588 105.996 68.3565 106.517 68.3568C107.038 68.3565 107.568 68.4588 108.078 68.675C108.64 68.9133 109.12 69.2652 109.501 69.6926C109.687 69.9013 109.854 70.1321 109.996 70.3832C110.078 70.5281 110.151 70.678 110.214 70.8317L135.399 130.251C136.261 132.285 135.311 134.633 133.277 135.495C131.243 136.357 128.896 135.407 128.034 133.373L119.752 113.835C119.678 113.839 119.602 113.842 119.526 113.842H93.2787ZM106.517 82.1082L96.6699 105.342H116.365L106.517 82.1082Z" fill="#292929"/>
</clipPath>
<g clip-path="url(#mask0_5481_90004)">
<g clip-path="url(#clip0_5481_90004)">
<rect width="160" height="160" rx="5.125" fill="#FFECCF"/>
<rect width="160" height="160" fill="#FFECCF"/>
<circle cx="90.4677" cy="6.20574" r="69.6087" transform="rotate(-0.0800682 90.4677 6.20574)" fill="url(#paint0_radial_5481_90004)"/>
<path d="M61.0698 -28.2626C48.782 -35.8663 33.2133 -35.9129 20.8798 -28.3828L-102.478 46.9353C-114.559 54.3119 -114.579 71.7234 -102.514 79.1279L20.0281 154.339C32.3432 161.896 47.9119 161.887 60.2163 154.312L182.506 79.0306C194.507 71.6419 194.529 54.3277 182.543 46.9111L61.0698 -28.2626Z" fill="url(#paint1_linear_5481_90004)"/>
<path d="M23.0583 75.9646C25.793 16.2319 76.4328 -29.9741 136.166 -27.2395C195.898 -24.5048 242.104 26.1351 239.37 85.8678C236.635 145.601 185.995 191.807 126.262 189.072C66.5296 186.337 20.3236 135.697 23.0583 75.9646Z" fill="url(#paint2_linear_5481_90004)"/>
<path d="M-64.8253 115.35C-41.0814 105.221 -15.474 105.655 6.71169 114.515C51.1056 132.288 76.9371 121.299 94.8534 77.0069C103.778 54.7811 121.201 35.958 144.972 25.8174C192.497 5.57391 247.364 27.5395 267.579 74.9246C287.793 122.31 265.667 177.09 218.153 197.36C194.329 207.523 168.673 207.047 146.453 198.107C102.131 180.429 76.3488 191.459 58.4551 235.805C49.5082 257.978 32.0886 276.736 8.34476 286.866C-39.1429 307.124 -94.0093 285.159 -114.213 237.8C-134.416 190.441 -112.313 135.609 -64.8253 115.35Z" fill="url(#paint3_linear_5481_90004)"/>
<circle cx="150.675" cy="28.9059" r="69.6087" transform="rotate(-0.0800682 150.675 28.9059)" fill="url(#paint4_radial_5481_90004)"/>
</g>
</g>

</svg>
