<svg width="160" height="160" viewBox="0 0 160 160" xmlns="http://www.w3.org/2000/svg">
  <defs>
<radialGradient id="paint0_radial_5481_89975" cx="0" cy="0" r="1" gradientUnits="userSpaceOnUse" gradientTransform="translate(90.4677 6.20574) rotate(90) scale(69.6088)">
<stop offset="0.166667" stop-color="#FF709F"/>
<stop offset="1" stop-color="#FF709F" stop-opacity="0"/>
</radialGradient>
<linearGradient id="paint1_linear_5481_89975" x1="-40.2086" y1="142.983" x2="219.921" y2="-15.2772" gradientUnits="userSpaceOnUse">
<stop offset="0.0598452" stop-color="#8480FE"/>
<stop offset="0.599632" stop-color="#8480FE" stop-opacity="0"/>
</linearGradient>
<linearGradient id="paint2_linear_5481_89975" x1="168.544" y1="29.4718" x2="56.9494" y2="149.467" gradientUnits="userSpaceOnUse">
<stop stop-color="#EB1000"/>
<stop offset="1" stop-color="#EB1000" stop-opacity="0"/>
</linearGradient>
<linearGradient id="paint3_linear_5481_89975" x1="32.9255" y1="166.029" x2="230.753" y2="55.2086" gradientUnits="userSpaceOnUse">
<stop stop-color="#FC7D00" stop-opacity="0"/>
<stop offset="0.432292" stop-color="#FC7D00"/>
<stop offset="0.609375" stop-color="#FC7D00"/>
<stop offset="1" stop-color="#FC7D00" stop-opacity="0"/>
</linearGradient>
<radialGradient id="paint4_radial_5481_89975" cx="0" cy="0" r="1" gradientUnits="userSpaceOnUse" gradientTransform="translate(150.675 28.9059) rotate(90) scale(69.6088)">
<stop offset="0.166667" stop-color="#EB1000"/>
<stop offset="1" stop-color="#EB1000" stop-opacity="0"/>
</radialGradient>
<clipPath id="clip0_5481_89975">
<rect width="160" height="160" rx="5.125" fill="white"/>
</clipPath>
</defs>
<clipPath id="mask0_5481_89975">
<path fill-rule="evenodd" d="M84.0005 22.5684C84.0005 20.3592 82.2096 18.5684 80.0005 18.5684C77.7913 18.5684 76.0005 20.3592 76.0005 22.5684L76.0005 137.431C76.0005 139.64 77.7913 141.431 80.0005 141.431C82.2096 141.431 84.0005 139.64 84.0005 137.431L84.0005 22.5684ZM28.25 67.3301C30.4591 67.3301 32.25 69.1209 32.25 71.3301L32.25 88.671C32.25 90.8801 30.4591 92.671 28.25 92.671C26.0409 92.671 24.25 90.8801 24.25 88.671V71.3301C24.25 69.1209 26.0409 67.3301 28.25 67.3301ZM131.75 67.3301C133.959 67.3301 135.75 69.1209 135.75 71.3301V88.671C135.75 90.8801 133.959 92.671 131.75 92.671C129.541 92.671 127.75 90.8801 127.75 88.671V71.3301C127.75 69.1209 129.541 67.3301 131.75 67.3301ZM62.75 46.4316C64.9591 46.4316 66.75 48.2225 66.75 50.4316L66.75 109.569C66.75 111.778 64.9591 113.569 62.75 113.569C60.5409 113.569 58.75 111.778 58.75 109.569L58.75 50.4316C58.75 48.2225 60.5409 46.4316 62.75 46.4316ZM101.25 50.4316C101.25 48.2225 99.4591 46.4316 97.25 46.4316C95.0409 46.4316 93.25 48.2225 93.25 50.4316V109.569C93.25 111.778 95.0409 113.569 97.25 113.569C99.4591 113.569 101.25 111.778 101.25 109.569V50.4316ZM45.4995 32.5117C47.7087 32.5117 49.4995 34.3026 49.4995 36.5117L49.4995 123.488C49.4995 125.697 47.7087 127.488 45.4995 127.488C43.2904 127.488 41.4995 125.697 41.4995 123.488L41.4995 36.5117C41.4995 34.3026 43.2904 32.5117 45.4995 32.5117ZM118.5 36.5117C118.5 34.3026 116.709 32.5117 114.5 32.5117C112.29 32.5117 110.5 34.3026 110.5 36.5117V123.488C110.5 125.697 112.29 127.488 114.5 127.488C116.709 127.488 118.5 125.697 118.5 123.488V36.5117Z" fill="#292929"/>
</clipPath>
<g clip-path="url(#mask0_5481_89975)">
<g clip-path="url(#clip0_5481_89975)">
<rect width="160" height="160" rx="5.125" fill="#FFECCF"/>
<rect width="160" height="160" fill="#FFECCF"/>
<circle cx="90.4677" cy="6.20574" r="69.6087" transform="rotate(-0.0800682 90.4677 6.20574)" fill="url(#paint0_radial_5481_89975)"/>
<path d="M61.0698 -28.2626C48.782 -35.8663 33.2133 -35.9129 20.8798 -28.3828L-102.478 46.9353C-114.559 54.3119 -114.579 71.7234 -102.514 79.1279L20.0281 154.339C32.3432 161.896 47.9119 161.887 60.2163 154.312L182.506 79.0306C194.507 71.6419 194.529 54.3277 182.543 46.9111L61.0698 -28.2626Z" fill="url(#paint1_linear_5481_89975)"/>
<path d="M23.0583 75.9646C25.793 16.2319 76.4328 -29.9741 136.166 -27.2395C195.898 -24.5048 242.104 26.1351 239.37 85.8678C236.635 145.601 185.995 191.807 126.262 189.072C66.5296 186.337 20.3236 135.697 23.0583 75.9646Z" fill="url(#paint2_linear_5481_89975)"/>
<path d="M-64.8253 115.35C-41.0814 105.221 -15.474 105.655 6.71169 114.515C51.1056 132.288 76.9371 121.299 94.8534 77.0069C103.778 54.7811 121.201 35.958 144.972 25.8174C192.497 5.57391 247.364 27.5395 267.579 74.9246C287.793 122.31 265.667 177.09 218.153 197.36C194.329 207.523 168.673 207.047 146.453 198.107C102.131 180.429 76.3488 191.459 58.4551 235.805C49.5082 257.978 32.0886 276.736 8.34476 286.866C-39.1429 307.124 -94.0093 285.159 -114.213 237.8C-134.416 190.441 -112.313 135.609 -64.8253 115.35Z" fill="url(#paint3_linear_5481_89975)"/>
<circle cx="150.675" cy="28.9059" r="69.6087" transform="rotate(-0.0800682 150.675 28.9059)" fill="url(#paint4_radial_5481_89975)"/>
</g>
</g>

</svg>
