<svg width="96" height="96" viewBox="0 0 96 96" xmlns="http://www.w3.org/2000/svg">
  <defs>
<radialGradient id="paint0_radial_5481_99688" cx="0" cy="0" r="1" gradientUnits="userSpaceOnUse" gradientTransform="translate(54.2806 3.72345) rotate(90) scale(41.7653)">
<stop offset="0.166667" stop-color="#FF709F"/>
<stop offset="1" stop-color="#FF709F" stop-opacity="0"/>
</radialGradient>
<linearGradient id="paint1_linear_5481_99688" x1="-24.1244" y1="85.7904" x2="131.953" y2="-9.16592" gradientUnits="userSpaceOnUse">
<stop offset="0.0598452" stop-color="#8480FE"/>
<stop offset="0.599632" stop-color="#8480FE" stop-opacity="0"/>
</linearGradient>
<linearGradient id="paint2_linear_5481_99688" x1="101.128" y1="17.6831" x2="34.1712" y2="89.6803" gradientUnits="userSpaceOnUse">
<stop stop-color="#EB1000"/>
<stop offset="1" stop-color="#EB1000" stop-opacity="0"/>
</linearGradient>
<linearGradient id="paint3_linear_5481_99688" x1="19.7553" y1="99.6177" x2="138.452" y2="33.1256" gradientUnits="userSpaceOnUse">
<stop stop-color="#FC7D00" stop-opacity="0"/>
<stop offset="0.432292" stop-color="#FC7D00"/>
<stop offset="0.609375" stop-color="#FC7D00"/>
<stop offset="1" stop-color="#FC7D00" stop-opacity="0"/>
</linearGradient>
<radialGradient id="paint4_radial_5481_99688" cx="0" cy="0" r="1" gradientUnits="userSpaceOnUse" gradientTransform="translate(90.4056 17.3436) rotate(90) scale(41.7653)">
<stop offset="0.166667" stop-color="#EB1000"/>
<stop offset="1" stop-color="#EB1000" stop-opacity="0"/>
</radialGradient>
<clipPath id="clip0_5481_99688">
<rect width="96" height="96" rx="5.125" fill="white"/>
</clipPath>
</defs>
<clipPath id="mask0_5481_99688">
<path fill-rule="evenodd" d="M43.099 43.6056C44.2035 43.6031 45.0969 42.7056 45.0944 41.601L45.0598 26.5891C45.0572 25.4846 44.1597 24.5912 43.0552 24.5938C41.9506 24.5963 41.0572 25.4938 41.0598 26.5984L41.0833 36.8026C37.124 32.2082 31.2584 29.2949 24.7121 29.2949C12.7812 29.2949 3.10938 38.9668 3.10938 50.8977C3.10938 62.8285 12.7812 72.5004 24.7121 72.5004C29.6616 72.5004 34.2274 70.8334 37.8709 68.0314C37.9231 67.9912 37.9728 67.949 38.0199 67.9049C38.0476 67.8853 38.0749 67.865 38.1019 67.8438C40.7898 65.7334 43.3078 62.6552 45.2877 59.8175C47.2751 56.969 48.8266 54.2082 49.5473 52.6179C50.1208 51.352 51.5405 48.3446 53.42 45.184C55.0378 42.4636 56.9006 39.796 58.7646 37.9909C58.8165 37.9522 58.867 37.9107 58.9159 37.8662C62.0432 35.0244 66.1922 33.295 70.7498 33.295C80.4715 33.295 88.3525 41.1759 88.3525 50.8977C88.3525 60.6194 80.4715 68.5004 70.7498 68.5004C64.8046 68.5004 59.5472 65.5549 56.357 61.0347C55.7201 60.1323 54.4722 59.917 53.5698 60.5539C52.6673 61.1908 52.452 62.4387 53.0889 63.3412C56.9964 68.8777 63.45 72.5004 70.7498 72.5004C82.6806 72.5004 92.3525 62.8285 92.3525 50.8977C92.3525 38.9668 82.6806 29.295 70.7498 29.295C65.7955 29.295 61.2276 30.9648 57.5832 33.7699C57.4871 33.8227 57.3941 33.884 57.3052 33.9542C54.4974 36.1684 51.933 39.8587 49.982 43.1395C47.9979 46.4759 46.5097 49.6299 45.9039 50.9669C45.3069 52.2844 43.8895 54.831 42.0072 57.5287C40.1174 60.2374 37.8648 62.9444 35.6317 64.6976C35.5853 64.7341 35.5409 64.7722 35.4986 64.8118C35.4763 64.8276 35.4542 64.8438 35.4324 64.8606C32.4635 67.1438 28.7491 68.5004 24.7121 68.5004C14.9904 68.5004 7.10938 60.6194 7.10938 50.8977C7.10937 41.1759 14.9904 33.295 24.7121 33.295C30.1397 33.295 34.9943 35.75 38.2257 39.6168L28.0779 39.6402C26.9733 39.6428 26.08 40.5402 26.0825 41.6448C26.0851 42.7494 26.9825 43.6427 28.0871 43.6402L43.099 43.6056Z" fill="white"/>
</clipPath>
<g clip-path="url(#mask0_5481_99688)">
<g clip-path="url(#clip0_5481_99688)">
<rect width="96" height="96" rx="5.125" fill="#FFECCF"/>
<rect width="96" height="96" fill="#FFECCF"/>
<circle cx="54.2806" cy="3.72345" r="41.7653" transform="rotate(-0.0800682 54.2806 3.72345)" fill="url(#paint0_radial_5481_99688)"/>
<path d="M36.6427 -16.9572C29.27 -21.5194 19.9288 -21.5473 12.5287 -17.0293L-61.4858 28.1616C-68.7346 32.5875 -68.7467 43.0344 -61.5078 47.4771L12.0177 92.6039C19.4067 97.1383 28.7479 97.1329 36.1306 92.5877L109.505 47.4187C116.705 42.9855 116.718 32.597 109.526 28.1471L36.6427 -16.9572Z" fill="url(#paint1_linear_5481_99688)"/>
<path d="M13.8365 45.5788C15.4774 9.73912 45.8613 -17.9845 81.7009 -16.3437C117.541 -14.7029 145.264 15.6811 143.623 51.5207C141.982 87.3603 111.599 115.084 75.759 113.443C39.9193 111.802 12.1957 81.4184 13.8365 45.5788Z" fill="url(#paint2_linear_5481_99688)"/>
<path d="M-38.8952 69.2103C-24.6489 63.1327 -9.28437 63.3933 4.02702 68.7093C30.6634 79.3731 46.1622 72.7799 56.9121 46.2046C62.2666 32.8691 72.7207 21.5752 86.983 15.4908C115.498 3.34474 148.418 16.5241 160.547 44.9552C172.676 73.3863 159.4 106.254 130.892 118.416C116.598 124.514 101.204 124.229 87.8718 118.865C61.2786 108.258 45.8093 114.876 35.073 141.483C29.7049 154.787 19.2532 166.042 5.00686 172.12C-23.4858 184.275 -56.4056 171.096 -68.5277 142.68C-80.6499 114.265 -67.3878 81.3655 -38.8952 69.2103Z" fill="url(#paint3_linear_5481_99688)"/>
<circle cx="90.4056" cy="17.3436" r="41.7653" transform="rotate(-0.0800682 90.4056 17.3436)" fill="url(#paint4_radial_5481_99688)"/>
</g>
</g>

</svg>
