<svg width="97" height="96" viewBox="0 0 97 96" xmlns="http://www.w3.org/2000/svg">
  <defs>
<radialGradient id="paint0_radial_5481_99499" cx="0" cy="0" r="1" gradientUnits="userSpaceOnUse" gradientTransform="translate(55.222 3.72345) rotate(90) scale(41.7653)">
<stop offset="0.166667" stop-color="#FF709F"/>
<stop offset="1" stop-color="#FF709F" stop-opacity="0"/>
</radialGradient>
<linearGradient id="paint1_linear_5481_99499" x1="-23.183" y1="85.7895" x2="132.895" y2="-9.16689" gradientUnits="userSpaceOnUse">
<stop offset="0.0598452" stop-color="#8480FE"/>
<stop offset="0.599632" stop-color="#8480FE" stop-opacity="0"/>
</linearGradient>
<linearGradient id="paint2_linear_5481_99499" x1="102.07" y1="17.6831" x2="35.1126" y2="89.6803" gradientUnits="userSpaceOnUse">
<stop stop-color="#EB1000"/>
<stop offset="1" stop-color="#EB1000" stop-opacity="0"/>
</linearGradient>
<linearGradient id="paint3_linear_5481_99499" x1="20.6967" y1="99.6167" x2="139.393" y2="33.1246" gradientUnits="userSpaceOnUse">
<stop stop-color="#FC7D00" stop-opacity="0"/>
<stop offset="0.432292" stop-color="#FC7D00"/>
<stop offset="0.609375" stop-color="#FC7D00"/>
<stop offset="1" stop-color="#FC7D00" stop-opacity="0"/>
</linearGradient>
<radialGradient id="paint4_radial_5481_99499" cx="0" cy="0" r="1" gradientUnits="userSpaceOnUse" gradientTransform="translate(91.347 17.3436) rotate(90) scale(41.7653)">
<stop offset="0.166667" stop-color="#EB1000"/>
<stop offset="1" stop-color="#EB1000" stop-opacity="0"/>
</radialGradient>
<clipPath id="clip0_5481_99499">
<rect x="0.941406" width="96" height="96" rx="5.125" fill="white"/>
</clipPath>
</defs>
<clipPath id="mask0_5481_99499">
<path fill-rule="evenodd" d="M48.9413 13.2344C50.0459 13.2344 50.9413 14.1298 50.9413 15.2344V19.879C50.9413 20.9835 50.0459 21.879 48.9413 21.879C47.8367 21.879 46.9413 20.9835 46.9413 19.879V15.2344C46.9413 14.1298 47.8367 13.2344 48.9413 13.2344ZM65.4897 48.0009C65.4897 57.1405 58.0806 64.5496 48.941 64.5496C39.8013 64.5496 32.3922 57.1405 32.3922 48.0009C32.3922 38.8613 39.8013 31.4521 48.941 31.4521C58.0806 31.4521 65.4897 38.8613 65.4897 48.0009ZM50.9414 76.1212C50.9414 75.0166 50.046 74.1212 48.9414 74.1212C47.8368 74.1212 46.9414 75.0166 46.9414 76.1212V80.7658C46.9414 81.8703 47.8368 82.7658 48.9414 82.7658C50.046 82.7658 50.9414 81.8703 50.9414 80.7658V76.1212ZM83.707 48C83.707 49.1046 82.8116 50 81.707 50H77.0625C75.9579 50 75.0625 49.1046 75.0625 48C75.0625 46.8954 75.9579 46 77.0625 46H81.707C82.8116 46 83.707 46.8954 83.707 48ZM20.8204 50C21.9249 50 22.8204 49.1046 22.8204 48C22.8204 46.8954 21.9249 46 20.8204 46H16.1758C15.0712 46 14.1758 46.8954 14.1758 48C14.1758 49.1046 15.0712 50 16.1758 50H20.8204ZM73.5242 23.4161C74.3053 24.1972 74.3053 25.4635 73.5242 26.2445L70.24 29.5288C69.4589 30.3098 68.1926 30.3098 67.4116 29.5287C66.6305 28.7477 66.6305 27.4814 67.4116 26.7003L70.6958 23.4161C71.4768 22.6351 72.7432 22.6351 73.5242 23.4161ZM30.4705 69.2978C31.2515 68.5167 31.2515 67.2504 30.4705 66.4693C29.6894 65.6883 28.4231 65.6883 27.6421 66.4693L24.3578 69.7536C23.5768 70.5346 23.5768 71.8009 24.3578 72.582C25.1389 73.363 26.4052 73.363 27.1863 72.582L30.4705 69.2978ZM24.3576 23.4161C23.5766 24.1972 23.5766 25.4635 24.3576 26.2445L27.6419 29.5288C28.4229 30.3098 29.6892 30.3098 30.4703 29.5287C31.2513 28.7477 31.2513 27.4814 30.4703 26.7003L27.1861 23.4161C26.405 22.6351 25.1387 22.6351 24.3576 23.4161ZM67.4114 69.2977C66.6304 68.5167 66.6304 67.2503 67.4114 66.4693C68.1925 65.6882 69.4588 65.6882 70.2399 66.4693L73.5241 69.7535C74.3051 70.5346 74.3051 71.8009 73.5241 72.5819C72.743 73.363 71.4767 73.363 70.6957 72.5819L67.4114 69.2977Z" fill="white"/>
</clipPath>
<g clip-path="url(#mask0_5481_99499)">
<g clip-path="url(#clip0_5481_99499)">
<rect x="0.941406" width="96" height="96" rx="5.125" fill="#FFECCF"/>
<rect width="96" height="96" transform="translate(0.941406)" fill="#FFECCF"/>
<circle cx="55.222" cy="3.72345" r="41.7653" transform="rotate(-0.0800682 55.222 3.72345)" fill="url(#paint0_radial_5481_99499)"/>
<path d="M37.5841 -16.9581C30.2114 -21.5204 20.8702 -21.5483 13.4701 -17.0303L-60.5444 28.1606C-67.7932 32.5865 -67.8053 43.0335 -60.5664 47.4761L12.9591 92.6029C20.3481 97.1373 29.6893 97.1319 37.072 92.5868L110.446 47.4178C117.647 42.9845 117.66 32.596 110.468 28.1461L37.5841 -16.9581Z" fill="url(#paint1_linear_5481_99499)"/>
<path d="M14.7779 45.5788C16.4188 9.73912 46.8027 -17.9845 82.6423 -16.3437C118.482 -14.7029 146.206 15.6811 144.565 51.5207C142.924 87.3603 112.54 115.084 76.7004 113.443C40.8607 111.802 13.1371 81.4184 14.7779 45.5788Z" fill="url(#paint2_linear_5481_99499)"/>
<path d="M-37.9538 69.2093C-23.7074 63.1318 -8.34296 63.3923 4.96842 68.7083C31.6048 79.3721 47.1036 72.779 57.8535 46.2036C63.208 32.8681 73.6621 21.5742 87.9244 15.4898C116.44 3.34376 149.36 16.5231 161.489 44.9542C173.617 73.3853 160.342 106.253 131.833 118.415C117.539 124.513 102.145 124.228 88.8132 118.864C62.22 108.257 46.7507 114.875 36.0144 141.482C30.6463 154.786 20.1946 166.041 5.94826 172.119C-22.5444 184.274 -55.4642 171.095 -67.5863 142.679C-79.7085 114.264 -66.4464 81.3645 -37.9538 69.2093Z" fill="url(#paint3_linear_5481_99499)"/>
<circle cx="91.347" cy="17.3436" r="41.7653" transform="rotate(-0.0800682 91.347 17.3436)" fill="url(#paint4_radial_5481_99499)"/>
</g>
</g>

</svg>
