<svg width="96" height="96" viewBox="0 0 96 96" xmlns="http://www.w3.org/2000/svg">
  <defs>
<radialGradient id="paint0_radial_5481_99574" cx="0" cy="0" r="1" gradientUnits="userSpaceOnUse" gradientTransform="translate(54.2806 3.72345) rotate(90) scale(41.7653)">
<stop offset="0.166667" stop-color="#FF709F"/>
<stop offset="1" stop-color="#FF709F" stop-opacity="0"/>
</radialGradient>
<linearGradient id="paint1_linear_5481_99574" x1="-24.1244" y1="85.7895" x2="131.953" y2="-9.16689" gradientUnits="userSpaceOnUse">
<stop offset="0.0598452" stop-color="#8480FE"/>
<stop offset="0.599632" stop-color="#8480FE" stop-opacity="0"/>
</linearGradient>
<linearGradient id="paint2_linear_5481_99574" x1="101.128" y1="17.6831" x2="34.1712" y2="89.6803" gradientUnits="userSpaceOnUse">
<stop stop-color="#EB1000"/>
<stop offset="1" stop-color="#EB1000" stop-opacity="0"/>
</linearGradient>
<linearGradient id="paint3_linear_5481_99574" x1="19.7553" y1="99.6167" x2="138.452" y2="33.1246" gradientUnits="userSpaceOnUse">
<stop stop-color="#FC7D00" stop-opacity="0"/>
<stop offset="0.432292" stop-color="#FC7D00"/>
<stop offset="0.609375" stop-color="#FC7D00"/>
<stop offset="1" stop-color="#FC7D00" stop-opacity="0"/>
</linearGradient>
<radialGradient id="paint4_radial_5481_99574" cx="0" cy="0" r="1" gradientUnits="userSpaceOnUse" gradientTransform="translate(90.4056 17.3436) rotate(90) scale(41.7653)">
<stop offset="0.166667" stop-color="#EB1000"/>
<stop offset="1" stop-color="#EB1000" stop-opacity="0"/>
</radialGradient>
<clipPath id="clip0_5481_99574">
<rect width="96" height="96" rx="5.125" fill="white"/>
</clipPath>
</defs>
<clipPath id="mask0_5481_99574">
<path fill-rule="evenodd" d="M71.905 23.2349C74.056 19.3404 79.9991 20.8546 79.9991 25.3182V56.2182V73.1241C79.9991 76.7854 77.0272 79.748 73.3679 79.748H22.6312C18.9719 79.748 16 76.7854 16 73.1241V66.0439V47.8519C16 46.6635 16.4908 45.5285 17.3556 44.7141L27.2153 35.429C29.0015 33.7469 31.8307 33.8898 33.4379 35.7443L40.5642 43.9676C40.7023 44.127 40.956 44.1085 41.0697 43.9328L50.3901 29.5409C51.9799 27.086 55.5015 26.8908 57.3537 29.1531L63.7948 37.0202C63.9367 37.1936 64.2099 37.1675 64.3171 36.9734L71.905 23.2349ZM75.5492 25.0206C75.5234 25.0307 75.4695 25.0546 75.4065 25.1688L67.8186 38.9073L66.0679 37.9404L67.8186 38.9073C66.3427 41.5796 62.6328 41.9152 60.6998 39.5542L54.2587 31.6871C54.1229 31.5213 53.8633 31.5364 53.7475 31.7152L44.4272 46.1071C42.8647 48.5197 39.4231 48.7586 37.5413 46.5872L30.415 38.3639C30.2975 38.2284 30.0888 38.2174 29.9576 38.341L20.0979 47.6261L18.7618 46.2073L20.0979 47.6261C20.035 47.6853 20 47.7671 20 47.8519V62.3792L29.0749 56.5415C30.845 55.4028 33.1388 55.4945 34.8123 56.771L42.6409 62.7422C43.2722 63.2237 44.1693 63.1299 44.6873 62.5283L54.6108 51.003C56.5073 48.8005 59.8757 48.6735 61.9325 50.7271L69.3557 58.1384L75.9991 54.9583V25.3182C75.9991 25.1885 75.9638 25.1425 75.9468 25.1221C75.917 25.0864 75.8561 25.0403 75.7629 25.0163C75.6698 24.9924 75.5935 25.0033 75.5492 25.0206ZM75.9991 59.393L69.8071 62.357C69.0425 62.723 68.1303 62.5673 67.5304 61.9684L59.1064 53.5578C58.695 53.1471 58.0213 53.1725 57.642 53.613L47.7185 65.1382C45.8191 67.3442 42.5297 67.6881 40.215 65.9226L32.3864 59.9514C32.0517 59.6961 31.593 59.6778 31.2389 59.9055L20 67.1354V73.1241C20 74.5702 21.175 75.748 22.6312 75.748H73.3679C74.8241 75.748 75.9991 74.5702 75.9991 73.1241V59.393Z" fill="#8F8F8F"/>
</clipPath>
<g clip-path="url(#mask0_5481_99574)">
<g clip-path="url(#clip0_5481_99574)">
<rect width="96" height="96" rx="5.125" fill="#FFECCF"/>
<rect width="96" height="96" fill="#FFECCF"/>
<circle cx="54.2806" cy="3.72345" r="41.7653" transform="rotate(-0.0800682 54.2806 3.72345)" fill="url(#paint0_radial_5481_99574)"/>
<path d="M36.6427 -16.9581C29.27 -21.5204 19.9288 -21.5483 12.5287 -17.0303L-61.4858 28.1606C-68.7346 32.5865 -68.7467 43.0335 -61.5078 47.4761L12.0177 92.6029C19.4067 97.1373 28.7479 97.1319 36.1306 92.5868L109.505 47.4178C116.705 42.9845 116.718 32.596 109.526 28.1461L36.6427 -16.9581Z" fill="url(#paint1_linear_5481_99574)"/>
<path d="M13.8365 45.5788C15.4774 9.73912 45.8613 -17.9845 81.7009 -16.3437C117.541 -14.7029 145.264 15.6811 143.623 51.5207C141.982 87.3603 111.599 115.084 75.759 113.443C39.9193 111.802 12.1957 81.4184 13.8365 45.5788Z" fill="url(#paint2_linear_5481_99574)"/>
<path d="M-38.8952 69.2093C-24.6489 63.1318 -9.28437 63.3923 4.02702 68.7083C30.6634 79.3721 46.1622 72.779 56.9121 46.2036C62.2666 32.8681 72.7207 21.5742 86.983 15.4898C115.498 3.34376 148.418 16.5231 160.547 44.9542C172.676 73.3853 159.4 106.253 130.892 118.415C116.598 124.513 101.204 124.228 87.8718 118.864C61.2786 108.257 45.8093 114.875 35.073 141.482C29.7049 154.786 19.2532 166.041 5.00686 172.119C-23.4858 184.274 -56.4056 171.095 -68.5277 142.679C-80.6499 114.264 -67.3878 81.3645 -38.8952 69.2093Z" fill="url(#paint3_linear_5481_99574)"/>
<circle cx="90.4056" cy="17.3436" r="41.7653" transform="rotate(-0.0800682 90.4056 17.3436)" fill="url(#paint4_radial_5481_99574)"/>
</g>
</g>

</svg>
