<svg width="96" height="96" viewBox="0 0 96 96" xmlns="http://www.w3.org/2000/svg">
  <defs>
<radialGradient id="paint0_radial_5481_99550" cx="0" cy="0" r="1" gradientUnits="userSpaceOnUse" gradientTransform="translate(54.2806 3.72443) rotate(90) scale(41.7653)">
<stop offset="0.166667" stop-color="#FF709F"/>
<stop offset="1" stop-color="#FF709F" stop-opacity="0"/>
</radialGradient>
<linearGradient id="paint1_linear_5481_99550" x1="-24.1244" y1="85.7904" x2="131.953" y2="-9.16592" gradientUnits="userSpaceOnUse">
<stop offset="0.0598452" stop-color="#8480FE"/>
<stop offset="0.599632" stop-color="#8480FE" stop-opacity="0"/>
</linearGradient>
<linearGradient id="paint2_linear_5481_99550" x1="101.128" y1="17.6841" x2="34.1712" y2="89.6813" gradientUnits="userSpaceOnUse">
<stop stop-color="#EB1000"/>
<stop offset="1" stop-color="#EB1000" stop-opacity="0"/>
</linearGradient>
<linearGradient id="paint3_linear_5481_99550" x1="19.7553" y1="99.6177" x2="138.452" y2="33.1256" gradientUnits="userSpaceOnUse">
<stop stop-color="#FC7D00" stop-opacity="0"/>
<stop offset="0.432292" stop-color="#FC7D00"/>
<stop offset="0.609375" stop-color="#FC7D00"/>
<stop offset="1" stop-color="#FC7D00" stop-opacity="0"/>
</linearGradient>
<radialGradient id="paint4_radial_5481_99550" cx="0" cy="0" r="1" gradientUnits="userSpaceOnUse" gradientTransform="translate(90.4056 17.3445) rotate(90) scale(41.7653)">
<stop offset="0.166667" stop-color="#EB1000"/>
<stop offset="1" stop-color="#EB1000" stop-opacity="0"/>
</radialGradient>
<clipPath id="clip0_5481_99550">
<rect y="0.000976562" width="96" height="96" rx="5.125" fill="white"/>
</clipPath>
</defs>
<clipPath id="mask0_5481_99550">
<path fill-rule="evenodd" d="M61.8174 36.9736C61.8273 36.9044 61.8398 36.8345 61.8549 36.764L63.0837 31.0634C63.1144 30.9222 63.1336 30.7798 63.1417 30.6375C63.1818 29.9277 62.9452 29.2222 62.4756 28.691L58.6816 24.3949C58.3221 23.9881 58.1157 23.5299 58.0371 23.0664H58.0372C57.7469 21.3574 59.1928 19.5754 61.1012 20.0225L66.5642 21.3048C67.375 21.4964 68.2269 21.2585 68.8381 20.6703L72.9552 16.7113C74.7825 14.9532 77.6898 16.7047 77.1451 19.236L75.9163 24.9366C75.9111 24.9602 75.9063 24.9838 75.9019 25.0075C75.8963 25.0368 75.8912 25.0662 75.8866 25.0956C75.8719 25.1904 75.8622 25.2855 75.8574 25.3804C75.8221 26.0842 76.0587 26.7825 76.5243 27.3093L80.3184 31.6054C81.965 33.469 80.399 36.409 78.0625 36.0106V36.0109C78.0083 36.0017 77.9537 35.9906 77.8988 35.9777L72.4357 34.6955C71.625 34.5039 70.7731 34.7418 70.1618 35.33L66.0448 39.289C64.2683 40.9982 61.4711 39.3903 61.8174 36.9736ZM72.3426 38.7824L76.9862 39.8723C77.3522 39.958 77.7114 40.0117 78.0625 40.0362V52.9716C78.0625 56.8572 74.893 59.9359 70.9832 59.9359H50.8471L35.0888 73.412C33.5547 74.7337 31.1686 73.6421 31.1834 71.6245C31.2098 68.0064 31.1972 63.2554 31.1834 59.9359H25.1535C21.2437 59.9359 18.0742 56.8572 18.0742 52.9716V30.0306C18.0742 26.1451 21.2437 23.0664 25.1535 23.0664H54.0149C54.1018 24.4383 54.6162 25.8345 55.6834 27.0427L55.6841 27.0435L59.0394 30.8428L57.9444 35.9228C57.2863 38.9811 58.7546 41.7108 60.996 43.0613C63.2648 44.4283 66.4636 44.4361 68.8173 42.1723L68.8181 42.1715L72.3426 38.7824ZM53.9801 50.2734L49.9647 49.3687C49.4331 49.2498 48.8817 49.3984 48.4821 49.7649L45.4574 52.5552C44.2653 53.6548 42.3699 52.5585 42.7266 50.9801L43.6313 46.9647C43.7502 46.4331 43.6016 45.8817 43.2351 45.4821L40.4448 42.4574C39.3452 41.2653 40.4415 39.3699 42.0199 39.7266L46.0353 40.6313C46.5669 40.7502 47.1183 40.6016 47.5179 40.2351L50.5426 37.4448C51.7347 36.3452 53.6301 37.4415 53.2734 39.0199L52.3687 43.0353C52.2498 43.5669 52.3984 44.1183 52.7649 44.5179L55.5552 47.5426C56.6548 48.7347 55.5585 50.6301 53.9801 50.2734Z" fill="white"/>
</clipPath>
<g clip-path="url(#mask0_5481_99550)">
<g clip-path="url(#clip0_5481_99550)">
<rect y="0.000976562" width="96" height="96" rx="5.125" fill="#FFECCF"/>
<rect width="96" height="96" transform="translate(0 0.000976562)" fill="#FFECCF"/>
<circle cx="54.2806" cy="3.72443" r="41.7653" transform="rotate(-0.0800682 54.2806 3.72443)" fill="url(#paint0_radial_5481_99550)"/>
<path d="M36.6427 -16.9572C29.27 -21.5194 19.9288 -21.5473 12.5287 -17.0293L-61.4858 28.1616C-68.7346 32.5875 -68.7467 43.0344 -61.5078 47.4771L12.0177 92.6039C19.4067 97.1383 28.7479 97.1329 36.1306 92.5877L109.505 47.4187C116.705 42.9855 116.718 32.597 109.526 28.1471L36.6427 -16.9572Z" fill="url(#paint1_linear_5481_99550)"/>
<path d="M13.8365 45.5797C15.4774 9.7401 45.8613 -17.9835 81.7009 -16.3427C117.541 -14.7019 145.264 15.682 143.623 51.5217C141.982 87.3613 111.599 115.085 75.759 113.444C39.9193 111.803 12.1957 81.4194 13.8365 45.5797Z" fill="url(#paint2_linear_5481_99550)"/>
<path d="M-38.8952 69.2103C-24.6489 63.1327 -9.28437 63.3933 4.02702 68.7093C30.6634 79.3731 46.1622 72.7799 56.9121 46.2046C62.2666 32.8691 72.7207 21.5752 86.983 15.4908C115.498 3.34474 148.418 16.5241 160.547 44.9552C172.676 73.3863 159.4 106.254 130.892 118.416C116.598 124.514 101.204 124.229 87.8718 118.865C61.2786 108.258 45.8093 114.876 35.073 141.483C29.7049 154.787 19.2532 166.042 5.00686 172.12C-23.4858 184.275 -56.4056 171.096 -68.5277 142.68C-80.6499 114.265 -67.3878 81.3655 -38.8952 69.2103Z" fill="url(#paint3_linear_5481_99550)"/>
<circle cx="90.4056" cy="17.3445" r="41.7653" transform="rotate(-0.0800682 90.4056 17.3445)" fill="url(#paint4_radial_5481_99550)"/>
</g>
</g>

</svg>
