<svg width="48" height="48" viewBox="0 0 48 48" xmlns="http://www.w3.org/2000/svg">
  <defs>
<radialGradient id="paint0_radial_5481_99575" cx="0" cy="0" r="1" gradientUnits="userSpaceOnUse" gradientTransform="translate(27.1423 1.86124) rotate(90) scale(20.8826)">
<stop offset="0.166667" stop-color="#FF709F"/>
<stop offset="1" stop-color="#FF709F" stop-opacity="0"/>
</radialGradient>
<linearGradient id="paint1_linear_5481_99575" x1="-12.0622" y1="42.8942" x2="65.9766" y2="-4.58394" gradientUnits="userSpaceOnUse">
<stop offset="0.0598452" stop-color="#8480FE"/>
<stop offset="0.599632" stop-color="#8480FE" stop-opacity="0"/>
</linearGradient>
<linearGradient id="paint2_linear_5481_99575" x1="50.5621" y1="8.84057" x2="17.0836" y2="44.8392" gradientUnits="userSpaceOnUse">
<stop stop-color="#EB1000"/>
<stop offset="1" stop-color="#EB1000" stop-opacity="0"/>
</linearGradient>
<linearGradient id="paint3_linear_5481_99575" x1="9.87765" y1="49.8079" x2="69.2259" y2="16.5618" gradientUnits="userSpaceOnUse">
<stop stop-color="#FC7D00" stop-opacity="0"/>
<stop offset="0.432292" stop-color="#FC7D00"/>
<stop offset="0.609375" stop-color="#FC7D00"/>
<stop offset="1" stop-color="#FC7D00" stop-opacity="0"/>
</linearGradient>
<radialGradient id="paint4_radial_5481_99575" cx="0" cy="0" r="1" gradientUnits="userSpaceOnUse" gradientTransform="translate(45.2009 8.67081) rotate(90) scale(20.8826)">
<stop offset="0.166667" stop-color="#EB1000"/>
<stop offset="1" stop-color="#EB1000" stop-opacity="0"/>
</radialGradient>
<clipPath id="clip0_5481_99575">
<rect y="-0.000976562" width="48" height="48" rx="5.125" fill="white"/>
</clipPath>
</defs>
<clipPath id="mask0_5481_99575">
<path fill-rule="evenodd" d="M35.7431 11.2417C36.938 9.07824 40.2402 9.91865 40.2402 12.3994V27.7158V36.0957C40.2402 38.0537 38.6509 39.6376 36.6946 39.6376H11.5456C9.5893 39.6376 8 38.0537 8 36.0957V32.5862V23.5688C8 22.9084 8.27277 22.2777 8.75326 21.8252L13.6405 17.2228C14.6329 16.2882 16.2047 16.3676 17.0976 17.398L20.5416 21.3721L25.0879 14.3519C25.9713 12.9879 27.9277 12.8795 28.9569 14.1364L32.0546 17.92L35.7431 11.2417ZM20.468 21.4857C20.4681 21.4856 20.4681 21.4855 20.4682 21.4854ZM37.7402 12.7967L34.1703 19.2603L33.0761 18.6559L34.1703 19.2603C33.3502 20.7451 31.2891 20.9314 30.2152 19.6197L27.1106 15.8278L22.5664 22.8446C21.6983 24.1851 19.7862 24.3178 18.7407 23.1113L15.2776 19.1151L10.5 23.6143V30.2958L14.5996 27.6585C15.5686 27.0352 16.8242 27.0854 17.7403 27.7842L21.6208 30.744C21.8248 30.8996 22.1148 30.8693 22.2823 30.6748L27.2011 24.962C28.2393 23.7563 30.0831 23.6868 31.2091 24.811L34.7591 28.3554L37.7402 26.9284V12.7967ZM37.7402 29.7L35.0412 30.992C34.5634 31.2207 33.9933 31.1234 33.6183 30.7491L29.4427 26.5802C29.3452 26.4828 29.1855 26.4888 29.0956 26.5932L24.1768 32.306C23.146 33.5032 21.3608 33.6899 20.1046 32.7317L16.2242 29.7719C16.1448 29.7114 16.0361 29.7071 15.9522 29.7611L10.5 33.2684V36.0957C10.5 36.6693 10.9662 37.1376 11.5456 37.1376H36.6946C37.2739 37.1376 37.7402 36.6693 37.7402 36.0957V29.7ZM10.4674 23.645L10.4672 23.6452L10.3953 23.5688L10.4672 23.6452C10.4673 23.6451 10.4673 23.6451 10.4674 23.645ZM27.1861 15.7111C27.1862 15.711 27.1863 15.7109 27.1863 15.7108L27.1012 15.6557L27.1863 15.7108L27.1861 15.7111Z" fill="#8F8F8F"/>
</clipPath>
<g clip-path="url(#mask0_5481_99575)">
<g clip-path="url(#clip0_5481_99575)">
<rect y="-0.000976562" width="48" height="48" rx="5.125" fill="#FFECCF"/>
<rect width="48" height="48" transform="translate(0 -0.000976562)" fill="#FFECCF"/>
<circle cx="27.1423" cy="1.86124" r="20.8826" transform="rotate(-0.0800682 27.1423 1.86124)" fill="url(#paint0_radial_5481_99575)"/>
<path d="M18.3213 -8.47956C14.635 -10.7607 9.96439 -10.7746 6.26433 -8.51562L-30.7429 14.0798C-34.3673 16.2928 -34.3733 21.5162 -30.7539 23.7376L6.00883 46.301C9.70335 48.5682 14.374 48.5655 18.0653 46.2929L54.7523 23.7084C58.3526 21.4918 58.3591 16.2975 54.7632 14.0725L18.3213 -8.47956Z" fill="url(#paint1_linear_5481_99575)"/>
<path d="M6.91632 22.7884C7.73673 4.86858 22.9287 -8.99322 40.8485 -8.17281C58.7683 -7.3524 72.6301 7.83955 71.8097 25.7594C70.9893 43.6792 55.7973 57.541 37.8775 56.7206C19.9577 55.9002 6.09591 40.7082 6.91632 22.7884Z" fill="url(#paint2_linear_5481_99575)"/>
<path d="M-19.4476 34.6042C-12.3244 31.5654 -4.64218 31.6957 2.01351 34.3537C15.3317 39.6856 23.0811 36.389 28.456 23.1013C31.1333 16.4336 36.3604 10.7866 43.4915 7.74443C57.7492 1.67139 74.2091 8.26106 80.2736 22.4766C86.338 36.6922 79.7002 53.1261 65.4459 59.2071C58.2988 62.2561 50.6018 62.1133 43.9359 59.4314C30.6393 54.128 22.9046 57.4371 17.5365 70.7407C14.8525 77.3925 9.62658 83.0201 2.50343 86.0589C-11.7429 92.1365 -28.2028 85.5468 -34.2639 71.3392C-40.3249 57.1317 -33.6939 40.6818 -19.4476 34.6042Z" fill="url(#paint3_linear_5481_99575)"/>
<circle cx="45.2009" cy="8.67081" r="20.8826" transform="rotate(-0.0800682 45.2009 8.67081)" fill="url(#paint4_radial_5481_99575)"/>
</g>
</g>

</svg>
