<svg width="96" height="96" viewBox="0 0 96 96" xmlns="http://www.w3.org/2000/svg">
  <defs>
<radialGradient id="paint0_radial_5481_99562" cx="0" cy="0" r="1" gradientUnits="userSpaceOnUse" gradientTransform="translate(54.2806 3.72345) rotate(90) scale(41.7653)">
<stop offset="0.166667" stop-color="#FF709F"/>
<stop offset="1" stop-color="#FF709F" stop-opacity="0"/>
</radialGradient>
<linearGradient id="paint1_linear_5481_99562" x1="-24.1244" y1="85.7895" x2="131.953" y2="-9.16689" gradientUnits="userSpaceOnUse">
<stop offset="0.0598452" stop-color="#8480FE"/>
<stop offset="0.599632" stop-color="#8480FE" stop-opacity="0"/>
</linearGradient>
<linearGradient id="paint2_linear_5481_99562" x1="101.128" y1="17.6831" x2="34.1712" y2="89.6803" gradientUnits="userSpaceOnUse">
<stop stop-color="#EB1000"/>
<stop offset="1" stop-color="#EB1000" stop-opacity="0"/>
</linearGradient>
<linearGradient id="paint3_linear_5481_99562" x1="19.7553" y1="99.6167" x2="138.452" y2="33.1246" gradientUnits="userSpaceOnUse">
<stop stop-color="#FC7D00" stop-opacity="0"/>
<stop offset="0.432292" stop-color="#FC7D00"/>
<stop offset="0.609375" stop-color="#FC7D00"/>
<stop offset="1" stop-color="#FC7D00" stop-opacity="0"/>
</linearGradient>
<radialGradient id="paint4_radial_5481_99562" cx="0" cy="0" r="1" gradientUnits="userSpaceOnUse" gradientTransform="translate(90.4056 17.3436) rotate(90) scale(41.7653)">
<stop offset="0.166667" stop-color="#EB1000"/>
<stop offset="1" stop-color="#EB1000" stop-opacity="0"/>
</radialGradient>
<clipPath id="clip0_5481_99562">
<rect width="96" height="96" rx="5.125" fill="white"/>
</clipPath>
</defs>
<clipPath id="mask0_5481_99562">
<path fill-rule="evenodd" d="M59.3121 14.8476C60.3571 15.2054 60.9143 16.3425 60.5565 17.3876L51.7083 43.234L78.348 34.162C79.3936 33.8059 80.5299 34.3648 80.8859 35.4104C81.242 36.4561 80.683 37.5923 79.6374 37.9484L50.861 47.7481C50.85 47.8274 50.8342 47.9069 50.8134 47.9862C50.626 48.6984 50.4601 49.4167 50.2911 50.1485L50.2911 50.1487C49.7855 52.3375 49.2519 54.6475 48.034 57.2763C47.7064 57.9835 47.3354 58.7031 46.9419 59.4132C47.2795 59.3819 47.6214 59.3659 47.9671 59.3659C54.0136 59.3659 58.9152 64.2675 58.9152 70.3139C58.9152 76.3604 54.0136 81.262 47.9671 81.262C41.9207 81.262 37.019 76.3604 37.019 70.3139C37.019 67.9335 37.7788 65.7305 39.069 63.9342C39.1392 63.8162 39.2227 63.7037 39.3196 63.5989C39.4702 63.4052 39.6272 63.2167 39.7902 63.0337C40.874 61.6528 43.0626 58.4914 44.4046 55.5949C45.4344 53.3719 45.8429 51.6058 46.3212 49.5379L46.3213 49.5377L46.4104 49.1529C45.342 49.5366 44.1958 49.9847 42.7508 50.5799C41.0639 51.2747 39.1037 52.3724 37.4107 53.4273C35.7005 54.493 34.4041 55.4262 34.0252 55.7481C33.9442 55.8168 33.8593 55.878 33.7715 55.9317C31.7847 57.9569 29.017 59.2132 25.9559 59.2132C19.9094 59.2132 15.0078 54.3116 15.0078 48.2651C15.0078 42.2186 19.9094 37.317 25.9559 37.317C32.0023 37.317 36.904 42.2186 36.904 48.2651C36.904 48.54 36.8938 48.8126 36.8739 49.0825C38.2765 48.269 39.8012 47.4687 41.2274 46.8813C43.5884 45.9089 45.2151 45.302 46.9647 44.7404L56.7721 16.092C57.1299 15.047 58.2671 14.4899 59.3121 14.8476ZM42.4078 66.1456C41.5358 67.3068 41.019 68.75 41.019 70.3139C41.019 74.1512 44.1298 77.262 47.9671 77.262C51.8044 77.262 54.9152 74.1512 54.9152 70.3139C54.9152 66.4766 51.8044 63.3659 47.9671 63.3659C45.9319 63.3659 44.1011 64.2409 42.8303 65.6353C42.6727 65.8331 42.5307 66.0045 42.4078 66.1456ZM25.9559 41.317C22.1186 41.317 19.0078 44.4278 19.0078 48.2651C19.0078 52.1024 22.1186 55.2132 25.9559 55.2132C29.7932 55.2132 32.904 52.1024 32.904 48.2651C32.904 44.4278 29.7932 41.317 25.9559 41.317Z" fill="white"/>
</clipPath>
<g clip-path="url(#mask0_5481_99562)">
<g clip-path="url(#clip0_5481_99562)">
<rect width="96" height="96" rx="5.125" fill="#FFECCF"/>
<rect width="96" height="96" fill="#FFECCF"/>
<circle cx="54.2806" cy="3.72345" r="41.7653" transform="rotate(-0.0800682 54.2806 3.72345)" fill="url(#paint0_radial_5481_99562)"/>
<path d="M36.6427 -16.9581C29.27 -21.5204 19.9288 -21.5483 12.5287 -17.0303L-61.4858 28.1606C-68.7346 32.5865 -68.7467 43.0335 -61.5078 47.4761L12.0177 92.6029C19.4067 97.1373 28.7479 97.1319 36.1306 92.5868L109.505 47.4178C116.705 42.9845 116.718 32.596 109.526 28.1461L36.6427 -16.9581Z" fill="url(#paint1_linear_5481_99562)"/>
<path d="M13.8365 45.5788C15.4774 9.73912 45.8613 -17.9845 81.7009 -16.3437C117.541 -14.7029 145.264 15.6811 143.623 51.5207C141.982 87.3603 111.599 115.084 75.759 113.443C39.9193 111.802 12.1957 81.4184 13.8365 45.5788Z" fill="url(#paint2_linear_5481_99562)"/>
<path d="M-38.8952 69.2093C-24.6489 63.1318 -9.28437 63.3923 4.02702 68.7083C30.6634 79.3721 46.1622 72.779 56.9121 46.2036C62.2666 32.8681 72.7207 21.5742 86.983 15.4898C115.498 3.34376 148.418 16.5231 160.547 44.9542C172.676 73.3853 159.4 106.253 130.892 118.415C116.598 124.513 101.204 124.228 87.8718 118.864C61.2786 108.257 45.8093 114.875 35.073 141.482C29.7049 154.786 19.2532 166.041 5.00686 172.119C-23.4858 184.274 -56.4056 171.095 -68.5277 142.679C-80.6499 114.264 -67.3878 81.3645 -38.8952 69.2093Z" fill="url(#paint3_linear_5481_99562)"/>
<circle cx="90.4056" cy="17.3436" r="41.7653" transform="rotate(-0.0800682 90.4056 17.3436)" fill="url(#paint4_radial_5481_99562)"/>
</g>
</g>

</svg>
