<svg width="160" height="160" viewBox="0 0 160 160" xmlns="http://www.w3.org/2000/svg">
  <defs>
<radialGradient id="paint0_radial_5481_89912" cx="0" cy="0" r="1" gradientUnits="userSpaceOnUse" gradientTransform="translate(56.9923 53.7253) rotate(90) scale(53.7253 56.9923)">
<stop offset="0.166667" stop-color="#FF709F"/>
<stop offset="1" stop-color="#FF709F" stop-opacity="0"/>
</radialGradient>
<linearGradient id="paint1_linear_5481_89912" x1="-19.9205" y1="131.011" x2="186.087" y2="-1.94322" gradientUnits="userSpaceOnUse">
<stop offset="0.0598452" stop-color="#8480FE"/>
<stop offset="0.599632" stop-color="#8480FE" stop-opacity="0"/>
</linearGradient>
<linearGradient id="paint2_linear_5481_89912" x1="150.995" y1="43.4014" x2="65.3801" y2="141.06" gradientUnits="userSpaceOnUse">
<stop stop-color="#EB1000"/>
<stop offset="1" stop-color="#EB1000" stop-opacity="0"/>
</linearGradient>
<linearGradient id="paint3_linear_5481_89912" x1="39.9585" y1="148.798" x2="197.223" y2="55.3431" gradientUnits="userSpaceOnUse">
<stop stop-color="#FC7D00" stop-opacity="0"/>
<stop offset="0.432292" stop-color="#FC7D00"/>
<stop offset="0.609375" stop-color="#FC7D00"/>
<stop offset="1" stop-color="#FC7D00" stop-opacity="0"/>
</linearGradient>
<radialGradient id="paint4_radial_5481_89912" cx="0" cy="0" r="1" gradientUnits="userSpaceOnUse" gradientTransform="translate(56.9923 53.7253) rotate(90) scale(53.7253 56.9923)">
<stop offset="0.166667" stop-color="#EB1000"/>
<stop offset="1" stop-color="#EB1000" stop-opacity="0"/>
</radialGradient>
<clipPath id="clip0_5481_89912">
<rect x="13" y="20.6543" width="131" height="123.491" rx="3.46124" fill="white"/>
</clipPath>
</defs>
<clipPath id="mask0_5481_89912">
<path fill-rule="evenodd" d="M84 29.9497C84 32.1597 82.21 33.9497 80 33.9497C77.79 33.9497 76 32.1597 76 29.9497V23.9297C76 21.7197 77.79 19.9297 80 19.9297C82.21 19.9297 84 21.7197 84 23.9297V29.9497ZM77.8004 43.6797C62.9504 44.7397 50.9304 56.8497 49.8304 71.8397C49.0204 82.9797 54.1104 92.9597 62.2804 98.9297C64.9304 100.87 66.5504 103.94 66.5504 107.25V114H93.0804C93.1524 114 93.2244 114.01 93.2964 114.021L93.2968 114.021C93.3447 114.029 93.3925 114.036 93.4404 114.04V107.26C93.4404 104.03 94.9204 100.95 97.5204 99.0697C105.22 93.5297 110.24 84.4397 110.24 74.1597C110.24 56.5397 95.4904 42.4097 77.7904 43.6697L77.8004 43.6797ZM97.1704 74.5797C94.9604 74.5797 93.1704 72.7897 93.1704 70.5797C93.1704 65.5697 88.7304 61.4997 83.2704 61.4997C81.0604 61.4997 79.2704 59.7097 79.2704 57.4997C79.2704 55.2897 81.0604 53.4997 83.2704 53.4997C93.1404 53.4997 101.17 61.1597 101.17 70.5797C101.17 72.7897 99.3804 74.5797 97.1704 74.5797ZM66.5605 122V126.8C66.5605 129.61 68.8205 131.89 71.6005 131.89H88.4106C91.1906 131.89 93.4505 129.61 93.4505 126.8V121.96C93.4025 121.964 93.3546 121.971 93.3066 121.978C93.2346 121.989 93.1626 122 93.0905 122H66.5605ZM29.9492 69.9797H35.9692C38.1792 69.9797 39.9692 71.7697 39.9692 73.9797C39.9692 76.1897 38.1792 77.9797 35.9692 77.9797H29.9492C27.7392 77.9797 25.9492 76.1897 25.9492 73.9797C25.9492 71.7697 27.7392 69.9797 29.9492 69.9797ZM130.04 69.9797H124.02C121.81 69.9797 120.02 71.7697 120.02 73.9797C120.02 76.1897 121.81 77.9797 124.02 77.9797H130.04C132.25 77.9797 134.04 76.1897 134.04 73.9797C134.04 71.7697 132.25 69.9797 130.04 69.9797ZM112.561 35.7597L108.311 40.0097C106.751 41.5697 106.751 44.0997 108.311 45.6697C109.091 46.4497 110.111 46.8397 111.141 46.8397C112.171 46.8397 113.191 46.4497 113.971 45.6697L118.221 41.4197C119.781 39.8597 119.781 37.3297 118.221 35.7597C116.661 34.1997 114.131 34.1997 112.561 35.7597ZM47.4491 35.7697L51.6991 40.0197C53.2591 41.5897 53.2591 44.1197 51.6991 45.6797C50.9191 46.4597 49.8991 46.8497 48.8691 46.8497C47.8391 46.8497 46.8191 46.4597 46.0391 45.6797L41.7891 41.4297C40.2291 39.8597 40.2291 37.3297 41.7891 35.7697C43.3591 34.2097 45.8891 34.2097 47.4491 35.7697Z" fill="white"/>
</clipPath>
<g clip-path="url(#mask0_5481_89912)">
<g clip-path="url(#clip0_5481_89912)">
<rect x="13" y="20.6543" width="131" height="123.491" rx="3.46124" fill="#FFECCF"/>
<rect width="131" height="123.491" transform="translate(13 20.6543)" fill="#FFECCF"/>
<ellipse cx="56.9923" cy="53.7253" rx="56.9923" ry="53.7253" transform="matrix(0.999999 -0.00131734 0.00148243 0.999999 30 -28.2061)" fill="url(#paint0_radial_5481_89912)"/>
<path d="M63.0015 -1.15922C52.9408 -7.0279 40.1939 -7.06384 30.0958 -1.252L-70.9034 56.8798C-80.795 62.5732 -80.8115 76.0118 -70.9334 81.7267L29.3985 139.776C39.4815 145.609 52.2284 145.602 62.3027 139.755L162.428 81.6516C172.254 75.9488 172.272 62.5854 162.458 56.8612L63.0015 -1.15922Z" fill="url(#paint1_linear_5481_89912)"/>
<path d="M31.8784 79.2854C34.1175 33.1826 75.579 -2.48002 124.485 -0.369331C173.392 1.74136 211.223 40.8261 208.984 86.9289C206.745 133.032 165.283 168.694 116.377 166.584C67.4707 164.473 29.6394 125.388 31.8784 79.2854Z" fill="url(#paint2_linear_5481_89912)"/>
<path d="M-40.0752 109.683C-20.6349 101.865 0.331309 102.2 18.4959 109.038C54.8435 122.756 75.9931 114.275 90.6621 80.089C97.9688 62.9348 112.234 48.4068 131.697 40.58C170.608 24.9558 215.53 41.9092 232.081 78.4819C248.632 115.055 230.516 157.335 191.614 172.979C172.108 180.824 151.102 180.456 132.909 173.556C96.6206 159.912 75.5114 168.426 60.8609 202.652C53.5356 219.765 39.2733 234.244 19.8329 242.062C-19.0477 257.698 -63.9697 240.744 -80.5114 204.192C-97.0531 167.64 -78.9559 125.319 -40.0752 109.683Z" fill="url(#paint3_linear_5481_89912)"/>
<ellipse cx="56.9923" cy="53.7253" rx="56.9923" ry="53.7253" transform="matrix(0.999999 -0.00131734 0.00148243 0.999999 79.293 -10.6855)" fill="url(#paint4_radial_5481_89912)"/>
</g>
</g>

</svg>
