<svg width="48" height="48" viewBox="0 0 48 48" xmlns="http://www.w3.org/2000/svg">
  <defs>
<radialGradient id="paint0_radial_5481_99621" cx="0" cy="0" r="1" gradientUnits="userSpaceOnUse" gradientTransform="translate(27.1423 1.86222) rotate(90) scale(20.8826)">
<stop offset="0.166667" stop-color="#FF709F"/>
<stop offset="1" stop-color="#FF709F" stop-opacity="0"/>
</radialGradient>
<linearGradient id="paint1_linear_5481_99621" x1="-12.0622" y1="42.8952" x2="65.9766" y2="-4.58296" gradientUnits="userSpaceOnUse">
<stop offset="0.0598452" stop-color="#8480FE"/>
<stop offset="0.599632" stop-color="#8480FE" stop-opacity="0"/>
</linearGradient>
<linearGradient id="paint2_linear_5481_99621" x1="50.5621" y1="8.84155" x2="17.0836" y2="44.8401" gradientUnits="userSpaceOnUse">
<stop stop-color="#EB1000"/>
<stop offset="1" stop-color="#EB1000" stop-opacity="0"/>
</linearGradient>
<linearGradient id="paint3_linear_5481_99621" x1="9.87765" y1="49.8089" x2="69.2259" y2="16.5628" gradientUnits="userSpaceOnUse">
<stop stop-color="#FC7D00" stop-opacity="0"/>
<stop offset="0.432292" stop-color="#FC7D00"/>
<stop offset="0.609375" stop-color="#FC7D00"/>
<stop offset="1" stop-color="#FC7D00" stop-opacity="0"/>
</linearGradient>
<radialGradient id="paint4_radial_5481_99621" cx="0" cy="0" r="1" gradientUnits="userSpaceOnUse" gradientTransform="translate(45.2009 8.67178) rotate(90) scale(20.8826)">
<stop offset="0.166667" stop-color="#EB1000"/>
<stop offset="1" stop-color="#EB1000" stop-opacity="0"/>
</radialGradient>
<clipPath id="clip0_5481_99621">
<rect width="48" height="48" rx="5.125" fill="white"/>
</clipPath>
</defs>
<clipPath id="mask0_5481_99621">
<path fill-rule="evenodd" d="M22.2137 9.43099C21.1275 10.2583 20.3564 11.5711 19.9098 12.7961L18.345 17.8944H26.5983C27.0529 17.8944 27.4717 18.1413 27.6919 18.5391L30.9189 24.3687C33.1326 22.1568 35.361 19.931 37.0442 18.2502C37.5326 17.7624 38.3241 17.7629 38.8119 18.2514C39.2997 18.7399 39.2992 19.5313 38.8107 20.0192C36.9989 21.8285 34.5553 24.2692 32.1785 26.6442L35.8531 33.2826C36.1874 33.8866 35.9688 34.6472 35.3649 34.9816C34.7609 35.3159 34.0002 35.0973 33.6659 34.4933L30.3387 28.4828L29.588 29.2332C28.0577 30.7629 26.6815 32.1392 25.6849 33.1371C25.1865 33.6361 24.7835 34.0401 24.5037 34.3212C24.3637 34.4618 24.2553 34.5709 24.1816 34.6455C24.1444 34.683 24.1175 34.7104 24.1001 34.7281L24.0938 34.7347C23.6646 35.2024 22.9422 35.2773 22.4237 34.8884C21.8714 34.4742 21.7595 33.6907 22.1737 33.1384C22.2055 33.0959 22.2344 33.0636 22.2382 33.0592L22.2386 33.0588C22.2431 33.0538 22.2472 33.0492 22.2507 33.0453C22.2543 33.0414 22.2573 33.0381 22.2593 33.0359C22.2678 33.0268 22.2754 33.0188 22.28 33.014L22.3123 32.9807C22.3349 32.9575 22.366 32.926 22.4041 32.8875C22.4808 32.81 22.5914 32.6986 22.7319 32.5575C23.0132 32.2749 23.4174 31.8697 23.916 31.3705C24.9133 30.3718 26.2902 28.9949 27.8206 27.465L29.0791 26.2072L25.8615 20.3944H17.5777L11.2656 40.9604C11.0631 41.6204 10.3639 41.9912 9.70388 41.7886C9.04391 41.5861 8.6731 40.8869 8.87566 40.2269L14.9626 20.3944H11.2396C10.5492 20.3944 9.98959 19.8348 9.98959 19.1444C9.98959 18.4541 10.5492 17.8944 11.2396 17.8944H15.7299L17.529 12.0326C17.535 12.0132 17.5414 11.994 17.5483 11.975C18.0875 10.4812 19.0867 8.67011 20.699 7.44214C22.3795 6.1622 24.6311 5.59548 27.3842 6.51628C28.0389 6.73525 28.3922 7.4435 28.1732 8.09821C27.9542 8.75292 27.246 9.10616 26.5913 8.88719C24.6281 8.23062 23.2399 8.64942 22.2137 9.43099Z" fill="white"/>
</clipPath>
<g clip-path="url(#mask0_5481_99621)">
<g clip-path="url(#clip0_5481_99621)">
<rect width="48" height="48" rx="5.125" fill="#FFECCF"/>
<rect width="48" height="48" fill="#FFECCF"/>
<circle cx="27.1423" cy="1.86221" r="20.8826" transform="rotate(-0.0800682 27.1423 1.86221)" fill="url(#paint0_radial_5481_99621)"/>
<path d="M18.3213 -8.47858C14.635 -10.7597 9.96439 -10.7737 6.26433 -8.51465L-30.7429 14.0808C-34.3673 16.2938 -34.3733 21.5172 -30.7539 23.7386L6.00883 46.302C9.70335 48.5691 14.374 48.5664 18.0653 46.2939L54.7523 23.7094C58.3526 21.4928 58.3591 16.2985 54.7632 14.0735L18.3213 -8.47858Z" fill="url(#paint1_linear_5481_99621)"/>
<path d="M6.91632 22.7894C7.73673 4.86956 22.9287 -8.99224 40.8485 -8.17184C58.7683 -7.35143 72.6301 7.84053 71.8097 25.7603C70.9893 43.6802 55.7973 57.542 37.8775 56.7215C19.9577 55.9011 6.09591 40.7092 6.91632 22.7894Z" fill="url(#paint2_linear_5481_99621)"/>
<path d="M-19.4476 34.6052C-12.3244 31.5664 -4.64218 31.6967 2.01351 34.3546C15.3317 39.6865 23.0811 36.39 28.456 23.1023C31.1333 16.4345 36.3604 10.7876 43.4915 7.74541C57.7492 1.67237 74.2091 8.26203 80.2736 22.4776C86.338 36.6931 79.7002 53.1271 65.4459 59.2081C58.2988 62.2571 50.6018 62.1143 43.9359 59.4324C30.6393 54.129 22.9046 57.438 17.5365 70.7417C14.8525 77.3935 9.62658 83.0211 2.50343 86.0599C-11.7429 92.1375 -28.2028 85.5478 -34.2639 71.3402C-40.3249 57.1326 -33.6939 40.6828 -19.4476 34.6052Z" fill="url(#paint3_linear_5481_99621)"/>
<circle cx="45.2009" cy="8.67178" r="20.8826" transform="rotate(-0.0800682 45.2009 8.67178)" fill="url(#paint4_radial_5481_99621)"/>
</g>
</g>

</svg>
