<svg width="160" height="160" viewBox="0 0 160 160" xmlns="http://www.w3.org/2000/svg">
  <defs>
<radialGradient id="paint0_radial_5481_89864" cx="0" cy="0" r="1" gradientUnits="userSpaceOnUse" gradientTransform="translate(54.6429 51.5105) rotate(90) scale(51.5105 54.6429)">
<stop offset="0.166667" stop-color="#FF709F"/>
<stop offset="1" stop-color="#FF709F" stop-opacity="0"/>
</radialGradient>
<linearGradient id="paint1_linear_5481_89864" x1="-13.1644" y1="129.007" x2="184.35" y2="1.53355" gradientUnits="userSpaceOnUse">
<stop offset="0.0598452" stop-color="#8480FE"/>
<stop offset="0.599632" stop-color="#8480FE" stop-opacity="0"/>
</linearGradient>
<linearGradient id="paint2_linear_5481_89864" x1="150.707" y1="45.0092" x2="68.6213" y2="138.642" gradientUnits="userSpaceOnUse">
<stop stop-color="#EB1000"/>
<stop offset="1" stop-color="#EB1000" stop-opacity="0"/>
</linearGradient>
<linearGradient id="paint3_linear_5481_89864" x1="44.2447" y1="146.062" x2="195.026" y2="56.4597" gradientUnits="userSpaceOnUse">
<stop stop-color="#FC7D00" stop-opacity="0"/>
<stop offset="0.432292" stop-color="#FC7D00"/>
<stop offset="0.609375" stop-color="#FC7D00"/>
<stop offset="1" stop-color="#FC7D00" stop-opacity="0"/>
</linearGradient>
<radialGradient id="paint4_radial_5481_89864" cx="0" cy="0" r="1" gradientUnits="userSpaceOnUse" gradientTransform="translate(54.6429 51.5105) rotate(90) scale(51.5105 54.6429)">
<stop offset="0.166667" stop-color="#EB1000"/>
<stop offset="1" stop-color="#EB1000" stop-opacity="0"/>
</radialGradient>
<clipPath id="clip0_5481_89864">
<rect x="18.3984" y="23.2002" width="125.6" height="118.4" rx="3.46124" fill="white"/>
</clipPath>
</defs>
<clipPath id="mask0_5481_89864">
<path d="M124 32H36C27.16 32 20 39.16 20 48V112C20 120.84 27.16 128 36 128H124C132.84 128 140 120.84 140 112V48C140 39.16 132.84 32 124 32ZM62.75 96.31C64.26 97.93 64.17 100.46 62.56 101.96C61.79 102.68 60.81 103.04 59.83 103.04C58.76 103.04 57.69 102.61 56.9 101.77L38.51 82.07C37.04 80.49 37.08 78.04 38.61 76.51L57 58.12C58.56 56.56 61.1 56.56 62.66 58.12C64.22 59.68 64.22 62.21 62.66 63.78L47.01 79.43L62.76 96.3L62.75 96.31ZM92.37 52.98L75.29 109.34C74.77 111.07 73.18 112.18 71.46 112.18C71.08 112.18 70.69 112.12 70.3 112.01C68.19 111.37 66.99 109.14 67.63 107.02L84.71 50.66C85.35 48.55 87.58 47.35 89.7 47.99C91.81 48.63 93.01 50.86 92.37 52.98ZM121.39 83.48L103 101.87C102.22 102.65 101.2 103.04 100.17 103.04C99.14 103.04 98.12 102.65 97.34 101.87C95.78 100.31 95.78 97.78 97.34 96.21L112.99 80.56L97.24 63.69C95.73 62.07 95.82 59.54 97.43 58.04C99.04 56.53 101.58 56.62 103.08 58.23L121.47 77.93C122.94 79.51 122.9 81.96 121.37 83.49L121.39 83.48Z" fill="white"/>
</clipPath>
<g clip-path="url(#mask0_5481_89864)">
<g clip-path="url(#clip0_5481_89864)">
<rect x="18.3984" y="23.2002" width="125.6" height="118.4" rx="3.46124" fill="#FFECCF"/>
<rect width="125.6" height="118.4" transform="translate(18.3984 23.2002)" fill="#FFECCF"/>
<ellipse cx="54.6429" cy="51.5105" rx="54.6429" ry="51.5105" transform="matrix(0.999999 -0.00131734 0.00148243 0.999999 34.6953 -23.6455)" fill="url(#paint0_radial_5481_89864)"/>
<path d="M66.3392 2.28525C56.6933 -3.3415 44.4719 -3.37596 34.79 2.19629L-62.0456 57.9317C-71.5294 63.3904 -71.5452 76.2749 -62.0743 81.7542L34.1215 137.411C43.7888 143.003 56.0102 142.996 65.6692 137.391L161.667 81.6822C171.088 76.2146 171.105 63.4021 161.696 57.9138L66.3392 2.28525Z" fill="url(#paint1_linear_5481_89864)"/>
<path d="M36.5006 79.4138C38.6474 35.2116 78.3996 1.01911 125.29 3.04279C172.18 5.06646 208.452 42.54 206.305 86.7422C204.158 130.944 164.406 165.137 117.516 163.113C70.6256 161.089 34.3539 123.616 36.5006 79.4138Z" fill="url(#paint2_linear_5481_89864)"/>
<path d="M-32.4896 108.559C-13.8507 101.064 6.25116 101.385 23.6669 107.941C58.5161 121.093 78.7938 112.962 92.8582 80.1855C99.8637 63.7384 113.541 49.8093 132.201 42.3052C169.509 27.325 212.579 43.5796 228.447 78.6446C244.316 113.71 226.947 154.247 189.648 169.246C170.947 176.767 150.806 176.415 133.364 169.8C98.571 156.718 78.332 164.88 64.2854 197.696C57.2622 214.104 43.5878 227.985 24.9488 235.481C-12.329 250.472 -55.3991 234.218 -71.2589 199.172C-87.1187 164.127 -69.7675 123.551 -32.4896 108.559Z" fill="url(#paint3_linear_5481_89864)"/>
<ellipse cx="54.6429" cy="51.5105" rx="54.6429" ry="51.5105" transform="matrix(0.999999 -0.00131734 0.00148243 0.999999 81.957 -6.84766)" fill="url(#paint4_radial_5481_89864)"/>
</g>
</g>

</svg>
