<svg width="96" height="96" viewBox="0 0 96 96" xmlns="http://www.w3.org/2000/svg">
  <defs>
<radialGradient id="paint0_radial_5481_99559" cx="0" cy="0" r="1" gradientUnits="userSpaceOnUse" gradientTransform="translate(54.2806 3.72345) rotate(90) scale(41.7653)">
<stop offset="0.166667" stop-color="#FF709F"/>
<stop offset="1" stop-color="#FF709F" stop-opacity="0"/>
</radialGradient>
<linearGradient id="paint1_linear_5481_99559" x1="-24.1244" y1="85.7895" x2="131.953" y2="-9.16689" gradientUnits="userSpaceOnUse">
<stop offset="0.0598452" stop-color="#8480FE"/>
<stop offset="0.599632" stop-color="#8480FE" stop-opacity="0"/>
</linearGradient>
<linearGradient id="paint2_linear_5481_99559" x1="101.128" y1="17.6831" x2="34.1712" y2="89.6803" gradientUnits="userSpaceOnUse">
<stop stop-color="#EB1000"/>
<stop offset="1" stop-color="#EB1000" stop-opacity="0"/>
</linearGradient>
<linearGradient id="paint3_linear_5481_99559" x1="19.7553" y1="99.6167" x2="138.452" y2="33.1246" gradientUnits="userSpaceOnUse">
<stop stop-color="#FC7D00" stop-opacity="0"/>
<stop offset="0.432292" stop-color="#FC7D00"/>
<stop offset="0.609375" stop-color="#FC7D00"/>
<stop offset="1" stop-color="#FC7D00" stop-opacity="0"/>
</linearGradient>
<radialGradient id="paint4_radial_5481_99559" cx="0" cy="0" r="1" gradientUnits="userSpaceOnUse" gradientTransform="translate(90.4056 17.3436) rotate(90) scale(41.7653)">
<stop offset="0.166667" stop-color="#EB1000"/>
<stop offset="1" stop-color="#EB1000" stop-opacity="0"/>
</radialGradient>
<clipPath id="clip0_5481_99559">
<rect width="96" height="96" rx="5.125" fill="white"/>
</clipPath>
</defs>
<clipPath id="mask0_5481_99559">
<path fill-rule="evenodd" d="M18.5264 30.3785L46.4861 18.9572C47.4556 18.5611 48.5418 18.5611 49.5113 18.9572L77.471 30.3785C80.7874 31.7333 80.7874 36.4297 77.4709 37.7844L73.5685 39.3786L73.5685 52.4472C73.5685 54.1093 73.124 56.5202 71.4316 59.0409C69.7354 61.5673 66.8634 64.089 62.1897 66.092C58.4339 67.7016 54.0905 68.3245 50.2846 68.466C46.4722 68.6077 43.0302 68.2718 40.9932 67.8524C39.9113 67.6297 39.2148 66.5721 39.4376 65.4902C39.6603 64.4083 40.7179 63.7118 41.7998 63.9346C43.4796 64.2804 46.5968 64.6004 50.136 64.4688C53.6818 64.337 57.4828 63.7574 60.614 62.4154C64.7029 60.663 66.9142 58.5934 68.1107 56.8112C69.311 55.0235 69.5685 53.4088 69.5685 52.4472V41.0125L49.5113 49.2058C48.5418 49.6018 47.4556 49.6018 46.4861 49.2058L33.3539 43.8414C33.8641 43.1225 34.5348 42.513 35.3323 42.07L48.9271 34.5173C49.8927 33.9809 50.2406 32.7633 49.7042 31.7977C49.1677 30.8321 47.9501 30.4842 46.9846 31.0207L33.3897 38.5733C31.7811 39.467 30.4821 40.767 29.5919 42.3046L18.5264 37.7844C15.2099 36.4297 15.2099 31.7333 18.5264 30.3785ZM28.2462 63.8449V47.3149C28.2462 45.5235 28.7253 43.8015 29.5919 42.3046L33.3539 43.8414C32.6454 44.8394 32.2462 46.0482 32.2462 47.3149V63.4131C33.9335 66.2954 35.759 70.1476 36.0989 73.3857C36.1317 73.6153 36.1488 73.8495 36.1491 74.0875L36.1493 74.0927H36.1491V74.0928C36.1491 76.9908 33.6529 79.3401 30.5738 79.3401C27.4947 79.3401 24.9985 76.9908 24.9985 74.0928C24.9985 73.8964 25.01 73.7025 25.0323 73.5118C25.2902 70.4064 26.7923 66.7112 28.2462 63.8449Z" fill="white"/>
</clipPath>
<g clip-path="url(#mask0_5481_99559)">
<g clip-path="url(#clip0_5481_99559)">
<rect width="96" height="96" rx="5.125" fill="#FFECCF"/>
<rect width="96" height="96" fill="#FFECCF"/>
<circle cx="54.2806" cy="3.72345" r="41.7653" transform="rotate(-0.0800682 54.2806 3.72345)" fill="url(#paint0_radial_5481_99559)"/>
<path d="M36.6427 -16.9581C29.27 -21.5204 19.9288 -21.5483 12.5287 -17.0303L-61.4858 28.1606C-68.7346 32.5865 -68.7467 43.0335 -61.5078 47.4761L12.0177 92.6029C19.4067 97.1373 28.7479 97.1319 36.1306 92.5868L109.505 47.4178C116.705 42.9845 116.718 32.596 109.526 28.1461L36.6427 -16.9581Z" fill="url(#paint1_linear_5481_99559)"/>
<path d="M13.8365 45.5788C15.4774 9.73912 45.8613 -17.9845 81.7009 -16.3437C117.541 -14.7029 145.264 15.6811 143.623 51.5207C141.982 87.3603 111.599 115.084 75.759 113.443C39.9193 111.802 12.1957 81.4184 13.8365 45.5788Z" fill="url(#paint2_linear_5481_99559)"/>
<path d="M-38.8952 69.2093C-24.6489 63.1318 -9.28437 63.3923 4.02702 68.7083C30.6634 79.3721 46.1622 72.779 56.9121 46.2036C62.2666 32.8681 72.7207 21.5742 86.983 15.4898C115.498 3.34376 148.418 16.5231 160.547 44.9542C172.676 73.3853 159.4 106.253 130.892 118.415C116.598 124.513 101.204 124.228 87.8718 118.864C61.2786 108.257 45.8093 114.875 35.073 141.482C29.7049 154.786 19.2532 166.041 5.00686 172.119C-23.4858 184.274 -56.4056 171.095 -68.5277 142.679C-80.6499 114.264 -67.3878 81.3645 -38.8952 69.2093Z" fill="url(#paint3_linear_5481_99559)"/>
<circle cx="90.4056" cy="17.3436" r="41.7653" transform="rotate(-0.0800682 90.4056 17.3436)" fill="url(#paint4_radial_5481_99559)"/>
</g>
</g>

</svg>
