<svg width="96" height="96" viewBox="0 0 96 96" xmlns="http://www.w3.org/2000/svg">
  <defs>
<radialGradient id="paint0_radial_5481_99578" cx="0" cy="0" r="1" gradientUnits="userSpaceOnUse" gradientTransform="translate(54.2806 3.72345) rotate(90) scale(41.7653)">
<stop offset="0.166667" stop-color="#FF709F"/>
<stop offset="1" stop-color="#FF709F" stop-opacity="0"/>
</radialGradient>
<linearGradient id="paint1_linear_5481_99578" x1="-24.1244" y1="85.7895" x2="131.953" y2="-9.16689" gradientUnits="userSpaceOnUse">
<stop offset="0.0598452" stop-color="#8480FE"/>
<stop offset="0.599632" stop-color="#8480FE" stop-opacity="0"/>
</linearGradient>
<linearGradient id="paint2_linear_5481_99578" x1="101.128" y1="17.6831" x2="34.1712" y2="89.6803" gradientUnits="userSpaceOnUse">
<stop stop-color="#EB1000"/>
<stop offset="1" stop-color="#EB1000" stop-opacity="0"/>
</linearGradient>
<linearGradient id="paint3_linear_5481_99578" x1="19.7553" y1="99.6167" x2="138.452" y2="33.1246" gradientUnits="userSpaceOnUse">
<stop stop-color="#FC7D00" stop-opacity="0"/>
<stop offset="0.432292" stop-color="#FC7D00"/>
<stop offset="0.609375" stop-color="#FC7D00"/>
<stop offset="1" stop-color="#FC7D00" stop-opacity="0"/>
</linearGradient>
<radialGradient id="paint4_radial_5481_99578" cx="0" cy="0" r="1" gradientUnits="userSpaceOnUse" gradientTransform="translate(90.4056 17.3436) rotate(90) scale(41.7653)">
<stop offset="0.166667" stop-color="#EB1000"/>
<stop offset="1" stop-color="#EB1000" stop-opacity="0"/>
</radialGradient>
<clipPath id="clip0_5481_99578">
<rect width="96" height="96" rx="5.125" fill="white"/>
</clipPath>
</defs>
<clipPath id="mask0_5481_99578">
<path fill-rule="evenodd" d="M48 80.7461C66.2254 80.7461 81 65.9715 81 47.7461C81 29.5207 66.2254 14.7461 48 14.7461C29.7746 14.7461 15 29.5207 15 47.7461C15 65.9715 29.7746 80.7461 48 80.7461ZM41.1466 38.6123C41.1466 40.7277 39.4317 42.4427 37.3162 42.4427C35.2008 42.4427 33.4859 40.7277 33.4859 38.6123C33.4859 36.4968 35.2008 34.7819 37.3162 34.7819C39.4317 34.7819 41.1466 36.4968 41.1466 38.6123ZM62.9501 38.6123C62.9501 40.7277 61.2352 42.4427 59.1198 42.4427C57.0043 42.4427 55.2894 40.7277 55.2894 38.6123C55.2894 36.4968 57.0043 34.7819 59.1198 34.7819C61.2352 34.7819 62.9501 36.4968 62.9501 38.6123ZM64.6462 54.3608C65.667 55.1687 65.8396 56.6511 65.0318 57.6719C63.0462 60.1808 60.4967 62.2075 57.5844 63.6006C54.6724 64.9936 51.4724 65.7175 48.2312 65.7194C44.99 65.7213 41.7892 65.0012 38.8754 63.6117C35.9613 62.2221 33.4093 60.1985 31.4206 57.692C30.6115 56.6721 30.7823 55.1895 31.8021 54.3804C32.8219 53.5712 34.3046 53.742 35.1137 54.7618C36.6496 56.6977 38.6296 58.2716 40.9046 59.3565C43.1798 60.4415 45.6859 61.0066 48.2284 61.0051C50.7709 61.0036 53.2763 60.4355 55.5501 59.3478C57.8237 58.2603 59.8016 56.684 61.3351 54.7464C62.1429 53.7256 63.6254 53.5529 64.6462 54.3608Z" fill="#D9D9D9"/>
</clipPath>
<g clip-path="url(#mask0_5481_99578)">
<g clip-path="url(#clip0_5481_99578)">
<rect width="96" height="96" rx="5.125" fill="#FFECCF"/>
<rect width="96" height="96" fill="#FFECCF"/>
<circle cx="54.2806" cy="3.72345" r="41.7653" transform="rotate(-0.0800682 54.2806 3.72345)" fill="url(#paint0_radial_5481_99578)"/>
<path d="M36.6427 -16.9581C29.27 -21.5204 19.9288 -21.5483 12.5287 -17.0303L-61.4858 28.1606C-68.7346 32.5865 -68.7467 43.0335 -61.5078 47.4761L12.0177 92.6029C19.4067 97.1373 28.7479 97.1319 36.1306 92.5868L109.505 47.4178C116.705 42.9845 116.718 32.596 109.526 28.1461L36.6427 -16.9581Z" fill="url(#paint1_linear_5481_99578)"/>
<path d="M13.8365 45.5788C15.4774 9.73912 45.8613 -17.9845 81.7009 -16.3437C117.541 -14.7029 145.264 15.6811 143.623 51.5207C141.982 87.3603 111.599 115.084 75.759 113.443C39.9193 111.802 12.1957 81.4184 13.8365 45.5788Z" fill="url(#paint2_linear_5481_99578)"/>
<path d="M-38.8952 69.2093C-24.6489 63.1318 -9.28437 63.3923 4.02702 68.7083C30.6634 79.3721 46.1622 72.779 56.9121 46.2036C62.2666 32.8681 72.7207 21.5742 86.983 15.4898C115.498 3.34376 148.418 16.5231 160.547 44.9542C172.676 73.3853 159.4 106.253 130.892 118.415C116.598 124.513 101.204 124.228 87.8718 118.864C61.2786 108.257 45.8093 114.875 35.073 141.482C29.7049 154.786 19.2532 166.041 5.00686 172.119C-23.4858 184.274 -56.4056 171.095 -68.5277 142.679C-80.6499 114.264 -67.3878 81.3645 -38.8952 69.2093Z" fill="url(#paint3_linear_5481_99578)"/>
<circle cx="90.4056" cy="17.3436" r="41.7653" transform="rotate(-0.0800682 90.4056 17.3436)" fill="url(#paint4_radial_5481_99578)"/>
</g>
</g>

</svg>
