<svg width="96" height="96" viewBox="0 0 96 96" xmlns="http://www.w3.org/2000/svg">
  <defs>
<radialGradient id="paint0_radial_5481_99377" cx="0" cy="0" r="1" gradientUnits="userSpaceOnUse" gradientTransform="translate(32.7857 30.9063) rotate(90) scale(30.9063 32.7857)">
<stop offset="0.166667" stop-color="#FF709F"/>
<stop offset="1" stop-color="#FF709F" stop-opacity="0"/>
</radialGradient>
<linearGradient id="paint1_linear_5481_99377" x1="-7.89785" y1="77.404" x2="110.611" y2="0.919737" gradientUnits="userSpaceOnUse">
<stop offset="0.0598452" stop-color="#8480FE"/>
<stop offset="0.599632" stop-color="#8480FE" stop-opacity="0"/>
</linearGradient>
<linearGradient id="paint2_linear_5481_99377" x1="90.4227" y1="27.0055" x2="41.1712" y2="83.1849" gradientUnits="userSpaceOnUse">
<stop stop-color="#EB1000"/>
<stop offset="1" stop-color="#EB1000" stop-opacity="0"/>
</linearGradient>
<linearGradient id="paint3_linear_5481_99377" x1="26.5461" y1="87.6362" x2="117.015" y2="33.875" gradientUnits="userSpaceOnUse">
<stop stop-color="#FC7D00" stop-opacity="0"/>
<stop offset="0.432292" stop-color="#FC7D00"/>
<stop offset="0.609375" stop-color="#FC7D00"/>
<stop offset="1" stop-color="#FC7D00" stop-opacity="0"/>
</linearGradient>
<radialGradient id="paint4_radial_5481_99377" cx="0" cy="0" r="1" gradientUnits="userSpaceOnUse" gradientTransform="translate(32.7857 30.9063) rotate(90) scale(30.9063 32.7857)">
<stop offset="0.166667" stop-color="#EB1000"/>
<stop offset="1" stop-color="#EB1000" stop-opacity="0"/>
</radialGradient>
<clipPath id="clip0_5481_99377">
<rect x="11.0391" y="13.9199" width="75.36" height="71.04" rx="2.07674" fill="white"/>
</clipPath>
</defs>
<clipPath id="mask0_5481_99377">
<path d="M77.5736 57.4498L70.3196 52.4218C70.6016 50.9878 70.7516 49.5118 70.7516 47.9998C70.7516 46.4878 70.6016 45.0058 70.3196 43.5778L77.5736 38.5498C79.1216 37.4758 79.5776 35.3938 78.6296 33.7738L75.4076 28.2658C74.4596 26.6398 72.4196 26.0218 70.7276 26.8498L62.7836 30.7138C60.6476 28.8838 58.1696 27.4498 55.4576 26.5078L54.7796 17.7058C54.6356 15.8278 53.0696 14.3818 51.1916 14.3818H44.8136C42.9296 14.3818 41.3696 15.8278 41.2256 17.7058L40.5476 26.5078C37.8356 27.4498 35.3576 28.8838 33.2216 30.7138L25.2776 26.8498C23.5856 26.0278 21.5456 26.6458 20.5976 28.2658L17.3756 33.7738C16.4276 35.3998 16.8836 37.4818 18.4316 38.5498L25.6856 43.5778C25.4036 45.0118 25.2536 46.4878 25.2536 47.9998C25.2536 49.5118 25.4036 50.9938 25.6856 52.4218L18.4316 57.4498C16.8836 58.5238 16.4276 60.6058 17.3756 62.2258L20.5976 67.7338C21.5456 69.3598 23.5856 69.9778 25.2776 69.1498L33.2216 65.2858C35.3576 67.1158 37.8356 68.5498 40.5476 69.4918L41.2256 78.2938C41.3696 80.1718 42.9356 81.6178 44.8136 81.6178H51.1916C53.0756 81.6178 54.6356 80.1718 54.7796 78.2938L55.4576 69.4918C58.1696 68.5498 60.6476 67.1158 62.7836 65.2858L70.7276 69.1498C72.4196 69.9718 74.4596 69.3538 75.4076 67.7338L78.6296 62.2258C79.5776 60.5998 79.1216 58.5178 77.5736 57.4498ZM47.9996 55.3558C43.9376 55.3558 40.6436 52.0618 40.6436 47.9998C40.6436 43.9378 43.9376 40.6438 47.9996 40.6438C52.0616 40.6438 55.3556 43.9378 55.3556 47.9998C55.3556 52.0618 52.0616 55.3558 47.9996 55.3558Z" fill="white"/>
</clipPath>
<g clip-path="url(#mask0_5481_99377)">
<g clip-path="url(#clip0_5481_99377)">
<rect x="11.0391" y="13.9199" width="75.36" height="71.04" rx="2.07674" fill="#FFECCF"/>
<rect width="75.36" height="71.04" transform="translate(11.0391 13.9199)" fill="#FFECCF"/>
<ellipse cx="32.7857" cy="30.9063" rx="32.7857" ry="30.9063" transform="matrix(0.999999 -0.00131734 0.00148243 0.999999 20.8164 -14.1875)" fill="url(#paint0_radial_5481_99377)"/>
<path d="M39.8043 1.37076C34.0167 -2.00529 26.6839 -2.02597 20.8748 1.31738L-37.2266 34.7586C-42.9169 38.0338 -42.9263 45.7646 -37.2438 49.0521L20.4737 82.446C26.2741 85.8014 33.6069 85.7974 39.4023 82.434L97.0009 49.0089C102.653 45.7284 102.664 38.0408 97.0181 34.7479L39.8043 1.37076Z" fill="url(#paint1_linear_5481_99377)"/>
<path d="M21.8988 47.6483C23.1868 21.1269 47.0382 0.611475 75.1723 1.82568C103.306 3.03989 125.069 25.524 123.781 52.0453C122.493 78.5666 98.642 99.0821 70.5079 97.8679C42.3738 96.6537 20.6108 74.1696 21.8988 47.6483Z" fill="url(#paint2_linear_5481_99377)"/>
<path d="M-19.4946 65.1348C-8.3112 60.6374 3.74992 60.8302 14.1994 64.764C35.1089 72.6552 47.2755 67.7763 55.7141 48.1105C59.9174 38.2423 68.1239 29.8848 79.3198 25.3823C101.704 16.3942 127.546 26.147 137.068 47.186C146.589 68.225 136.167 92.5472 113.788 101.547C102.567 106.06 90.4829 105.848 80.0175 101.879C59.1418 94.03 46.9984 98.9275 38.5705 118.617C34.3565 128.461 26.1519 136.79 14.9685 141.288C-7.39817 150.283 -33.2402 140.53 -42.7561 119.503C-52.272 98.4754 -41.8613 74.1296 -19.4946 65.1348Z" fill="url(#paint3_linear_5481_99377)"/>
<ellipse cx="32.7857" cy="30.9063" rx="32.7857" ry="30.9063" transform="matrix(0.999999 -0.00131734 0.00148243 0.999999 49.1758 -4.1084)" fill="url(#paint4_radial_5481_99377)"/>
</g>
</g>

</svg>
