<svg width="48" height="48" viewBox="0 0 48 48" xmlns="http://www.w3.org/2000/svg">
  <defs>
<radialGradient id="paint0_radial_5481_99441" cx="0" cy="0" r="1" gradientUnits="userSpaceOnUse" gradientTransform="translate(26.6036 4.61925) rotate(90) scale(18.1603)">
<stop offset="0.166667" stop-color="#FF709F"/>
<stop offset="1" stop-color="#FF709F" stop-opacity="0"/>
</radialGradient>
<linearGradient id="paint1_linear_5481_99441" x1="-7.48907" y1="40.3027" x2="60.3763" y2="-0.986014" gradientUnits="userSpaceOnUse">
<stop offset="0.0598452" stop-color="#8480FE"/>
<stop offset="0.599632" stop-color="#8480FE" stop-opacity="0"/>
</linearGradient>
<linearGradient id="paint2_linear_5481_99441" x1="46.9704" y1="10.6892" x2="17.8564" y2="41.9948" gradientUnits="userSpaceOnUse">
<stop stop-color="#EB1000"/>
<stop offset="1" stop-color="#EB1000" stop-opacity="0"/>
</linearGradient>
<linearGradient id="paint3_linear_5481_99441" x1="11.592" y1="46.3151" x2="63.2034" y2="17.4032" gradientUnits="userSpaceOnUse">
<stop stop-color="#FC7D00" stop-opacity="0"/>
<stop offset="0.432292" stop-color="#FC7D00"/>
<stop offset="0.609375" stop-color="#FC7D00"/>
<stop offset="1" stop-color="#FC7D00" stop-opacity="0"/>
</linearGradient>
<radialGradient id="paint4_radial_5481_99441" cx="0" cy="0" r="1" gradientUnits="userSpaceOnUse" gradientTransform="translate(42.3106 10.5411) rotate(90) scale(18.1603)">
<stop offset="0.166667" stop-color="#EB1000"/>
<stop offset="1" stop-color="#EB1000" stop-opacity="0"/>
</radialGradient>
<clipPath id="clip0_5481_99441">
<rect x="3" y="3" width="41.7425" height="41.7425" rx="1.03837" fill="white"/>
</clipPath>
</defs>
<clipPath id="mask0_5481_99441">
<path fill-rule="evenodd" d="M10.8 10.2998C8.14903 10.2998 6 12.4488 6 15.0998V33.0998C6 35.7508 8.14903 37.8998 10.8 37.8998H37.2C39.851 37.8998 42 35.7508 42 33.0998V15.0998C42 12.4488 39.851 10.2998 37.2 10.2998H10.8ZM9.6 15.9998C9.6 15.6684 9.86863 15.3998 10.2 15.3998H12.3C12.6314 15.3998 12.9 15.6684 12.9 15.9998V17.4998C12.9 17.8312 12.6314 18.0998 12.3 18.0998H10.2C9.86863 18.0998 9.6 17.8312 9.6 17.4998V15.9998ZM9.6 30.6998C9.6 30.3684 9.86863 30.0998 10.2 30.0998H12.3C12.6314 30.0998 12.9 30.3684 12.9 30.6998V32.1998C12.9 32.5312 12.6314 32.7998 12.3 32.7998H10.2C9.86863 32.7998 9.6 32.5312 9.6 32.1998V30.6998ZM14.7 15.9998C14.7 15.6684 14.9686 15.3998 15.3 15.3998H17.4C17.7314 15.3998 18 15.6684 18 15.9998V17.4998C18 17.8312 17.7314 18.0998 17.4 18.0998H15.3C14.9686 18.0998 14.7 17.8312 14.7 17.4998V15.9998ZM14.7 30.6998C14.7 30.3684 14.9686 30.0998 15.3 30.0998H17.4C17.7314 30.0998 18 30.3684 18 30.6998V32.1998C18 32.5312 17.7314 32.7998 17.4 32.7998H15.3C14.9686 32.7998 14.7 32.5312 14.7 32.1998V30.6998ZM19.8 15.9998C19.8 15.6684 20.0686 15.3998 20.4 15.3998H22.5C22.8314 15.3998 23.1 15.6684 23.1 15.9998V17.4998C23.1 17.8312 22.8314 18.0998 22.5 18.0998H20.4C20.0686 18.0998 19.8 17.8312 19.8 17.4998V15.9998ZM19.8 30.6998C19.8 30.3684 20.0686 30.0998 20.4 30.0998H22.5C22.8314 30.0998 23.1 30.3684 23.1 30.6998V32.1998C23.1 32.5312 22.8314 32.7998 22.5 32.7998H20.4C20.0686 32.7998 19.8 32.5312 19.8 32.1998V30.6998ZM24.9 15.9998C24.9 15.6684 25.1686 15.3998 25.5 15.3998H27.6C27.9314 15.3998 28.2 15.6684 28.2 15.9998V17.4998C28.2 17.8312 27.9314 18.0998 27.6 18.0998H25.5C25.1686 18.0998 24.9 17.8312 24.9 17.4998V15.9998ZM24.9 30.6998C24.9 30.3684 25.1686 30.0998 25.5 30.0998H27.6C27.9314 30.0998 28.2 30.3684 28.2 30.6998V32.1998C28.2 32.5312 27.9314 32.7998 27.6 32.7998H25.5C25.1686 32.7998 24.9 32.5312 24.9 32.1998V30.6998ZM30 15.9998C30 15.6684 30.2686 15.3998 30.6 15.3998H32.7C33.0314 15.3998 33.3 15.6684 33.3 15.9998V17.4998C33.3 17.8312 33.0314 18.0998 32.7 18.0998H30.6C30.2686 18.0998 30 17.8312 30 17.4998V15.9998ZM30 30.6998C30 30.3684 30.2686 30.0998 30.6 30.0998H32.7C33.0314 30.0998 33.3 30.3684 33.3 30.6998V32.1998C33.3 32.5312 33.0314 32.7998 32.7 32.7998H30.6C30.2686 32.7998 30 32.5312 30 32.1998V30.6998ZM35.1 15.9998C35.1 15.6684 35.3686 15.3998 35.7 15.3998H37.8C38.1314 15.3998 38.4 15.6684 38.4 15.9998V17.4998C38.4 17.8312 38.1314 18.0998 37.8 18.0998H35.7C35.3686 18.0998 35.1 17.8312 35.1 17.4998V15.9998ZM35.1 30.6998C35.1 30.3684 35.3686 30.0998 35.7 30.0998H37.8C38.1314 30.0998 38.4 30.3684 38.4 30.6998V32.1998C38.4 32.5312 38.1314 32.7998 37.8 32.7998H35.7C35.3686 32.7998 35.1 32.5312 35.1 32.1998V30.6998Z" fill="white"/>
</clipPath>
<g clip-path="url(#mask0_5481_99441)">
<g clip-path="url(#clip0_5481_99441)">
<rect x="3" y="3" width="41.7425" height="41.7425" rx="1.03837" fill="#FFECCF"/>
<rect width="41.7425" height="41.7425" transform="translate(3 3)" fill="#FFECCF"/>
<circle cx="26.6036" cy="4.61925" r="18.1603" transform="rotate(-0.0800682 26.6036 4.61925)" fill="url(#paint0_radial_5481_99441)"/>
<path d="M18.9335 -4.37379C15.7277 -6.35753 11.666 -6.36968 8.44833 -4.40516L-23.7345 15.2446C-26.8864 17.1691 -26.8916 21.7116 -23.744 23.6434L8.22614 43.2653C11.439 45.2369 15.5008 45.2346 18.7109 43.2583L50.6151 23.618C53.7461 21.6904 53.7518 17.1732 50.6247 15.2383L18.9335 -4.37379Z" fill="url(#paint1_linear_5481_99441)"/>
<path d="M9.0145 22.8187C9.72796 7.23499 22.9394 -4.81972 38.5231 -4.10627C54.1068 -3.39281 66.1615 9.81865 65.4481 25.4024C64.7346 40.9861 51.5232 53.0408 35.9395 52.3273C20.3558 51.6139 8.30104 38.4024 9.0145 22.8187Z" fill="url(#paint2_linear_5481_99441)"/>
<path d="M-13.9102 33.0935C-7.71566 30.4508 -1.03491 30.5641 4.75311 32.8756C16.3351 37.5124 23.0743 34.6456 27.7485 23.0901C30.0767 17.2916 34.6224 12.3809 40.8238 9.73527C53.2228 4.45394 67.537 10.1845 72.8108 22.5469C78.0847 34.9092 72.3122 49.2008 59.9162 54.489C53.7008 57.1406 47.0072 57.0164 41.2103 54.6841C29.6471 50.0721 22.9208 52.9497 18.2525 64.519C15.9183 70.3037 11.3737 75.1976 5.17917 77.8403C-7.20993 83.1256 -21.524 77.395 -26.795 65.0396C-32.0659 52.6841 -26.2993 38.3788 -13.9102 33.0935Z" fill="url(#paint3_linear_5481_99441)"/>
<circle cx="42.3106" cy="10.5411" r="18.1603" transform="rotate(-0.0800682 42.3106 10.5411)" fill="url(#paint4_radial_5481_99441)"/>
</g>
</g>

</svg>
