<svg width="96" height="96" viewBox="0 0 96 96" xmlns="http://www.w3.org/2000/svg">
  <defs>
<radialGradient id="paint0_radial_5481_99452" cx="0" cy="0" r="1" gradientUnits="userSpaceOnUse" gradientTransform="translate(54.2806 3.72345) rotate(90) scale(41.7653)">
<stop offset="0.166667" stop-color="#FF709F"/>
<stop offset="1" stop-color="#FF709F" stop-opacity="0"/>
</radialGradient>
<linearGradient id="paint1_linear_5481_99452" x1="-24.1244" y1="85.7895" x2="131.953" y2="-9.16689" gradientUnits="userSpaceOnUse">
<stop offset="0.0598452" stop-color="#8480FE"/>
<stop offset="0.599632" stop-color="#8480FE" stop-opacity="0"/>
</linearGradient>
<linearGradient id="paint2_linear_5481_99452" x1="101.128" y1="17.6831" x2="34.1712" y2="89.6803" gradientUnits="userSpaceOnUse">
<stop stop-color="#EB1000"/>
<stop offset="1" stop-color="#EB1000" stop-opacity="0"/>
</linearGradient>
<linearGradient id="paint3_linear_5481_99452" x1="19.7553" y1="99.6167" x2="138.452" y2="33.1246" gradientUnits="userSpaceOnUse">
<stop stop-color="#FC7D00" stop-opacity="0"/>
<stop offset="0.432292" stop-color="#FC7D00"/>
<stop offset="0.609375" stop-color="#FC7D00"/>
<stop offset="1" stop-color="#FC7D00" stop-opacity="0"/>
</linearGradient>
<radialGradient id="paint4_radial_5481_99452" cx="0" cy="0" r="1" gradientUnits="userSpaceOnUse" gradientTransform="translate(90.4056 17.3436) rotate(90) scale(41.7653)">
<stop offset="0.166667" stop-color="#EB1000"/>
<stop offset="1" stop-color="#EB1000" stop-opacity="0"/>
</radialGradient>
<clipPath id="clip0_5481_99452">
<rect width="96" height="96" rx="5.125" fill="white"/>
</clipPath>
</defs>
<clipPath id="mask0_5481_99452">
<path fill-rule="evenodd" d="M12 25.7998H42.9266L37.3358 18.8715C36.2791 17.5621 34.6793 16.7998 32.9879 16.7998H17.568C14.4929 16.7998 12 19.2712 12 22.3198V25.7998ZM12 30.5998H75.6923C80.2775 30.5998 84 34.3479 84 38.9645V70.8351C84 75.4517 80.2775 79.1998 75.6923 79.1998H20.3077C15.7226 79.1998 12 75.4517 12 70.8351V30.5998ZM43.3765 45.999C42.6734 45.999 42.1035 46.569 42.1035 47.272C42.1035 47.6313 42.2497 47.953 42.4912 48.1868C43.2848 48.9551 43.3053 50.2213 42.537 51.0149C41.7687 51.8085 40.5025 51.8289 39.7089 51.0606C38.7213 50.1044 38.1035 48.7586 38.1035 47.272C38.1035 44.3598 40.4643 41.999 43.3765 41.999C44.481 41.999 45.3765 42.8945 45.3765 43.999C45.3765 45.1036 44.481 45.999 43.3765 45.999ZM46.088 49.2932C46.088 46.5643 48.3002 44.3521 51.0291 44.3521C53.7581 44.3521 55.9703 46.5643 55.9703 49.2932C55.9703 52.0222 53.7581 54.2344 51.0291 54.2344C48.3002 54.2344 46.088 52.0222 46.088 49.2932ZM42.9051 55.5454C43.3811 56.5421 42.9591 57.736 41.9624 58.2121C40.6999 58.8151 39.7279 60.0611 39.4719 61.5695C39.287 62.6585 38.2543 63.3914 37.1653 63.2066C36.0764 63.0217 35.3434 61.989 35.5283 60.9C36.0002 58.1201 37.7918 55.7713 40.2383 54.6027C41.2351 54.1266 42.429 54.5487 42.9051 55.5454ZM42.6404 62.3062C43.5222 58.6471 47.0817 56.1167 51.0293 56.1167C54.9768 56.1167 58.5363 58.6471 59.4181 62.3062C59.9322 64.4397 58.1271 65.9991 56.3786 65.9991H45.6799C43.9314 65.9991 42.1263 64.4397 42.6404 62.3062Z" fill="white"/>
</clipPath>
<g clip-path="url(#mask0_5481_99452)">
<g clip-path="url(#clip0_5481_99452)">
<rect width="96" height="96" rx="5.125" fill="#FFECCF"/>
<rect width="96" height="96" fill="#FFECCF"/>
<circle cx="54.2806" cy="3.72345" r="41.7653" transform="rotate(-0.0800682 54.2806 3.72345)" fill="url(#paint0_radial_5481_99452)"/>
<path d="M36.6427 -16.9581C29.27 -21.5204 19.9288 -21.5483 12.5287 -17.0303L-61.4858 28.1606C-68.7346 32.5865 -68.7467 43.0335 -61.5078 47.4761L12.0177 92.6029C19.4067 97.1373 28.7479 97.1319 36.1306 92.5868L109.505 47.4178C116.705 42.9845 116.718 32.596 109.526 28.1461L36.6427 -16.9581Z" fill="url(#paint1_linear_5481_99452)"/>
<path d="M13.8365 45.5788C15.4774 9.73912 45.8613 -17.9845 81.7009 -16.3437C117.541 -14.7029 145.264 15.6811 143.623 51.5207C141.982 87.3603 111.599 115.084 75.759 113.443C39.9193 111.802 12.1957 81.4184 13.8365 45.5788Z" fill="url(#paint2_linear_5481_99452)"/>
<path d="M-38.8952 69.2093C-24.6489 63.1318 -9.28437 63.3923 4.02702 68.7083C30.6634 79.3721 46.1622 72.779 56.9121 46.2036C62.2666 32.8681 72.7207 21.5742 86.983 15.4898C115.498 3.34376 148.418 16.5231 160.547 44.9542C172.676 73.3853 159.4 106.253 130.892 118.415C116.598 124.513 101.204 124.228 87.8718 118.864C61.2786 108.257 45.8093 114.875 35.073 141.482C29.7049 154.786 19.2532 166.041 5.00686 172.119C-23.4858 184.274 -56.4056 171.095 -68.5277 142.679C-80.6499 114.264 -67.3878 81.3645 -38.8952 69.2093Z" fill="url(#paint3_linear_5481_99452)"/>
<circle cx="90.4056" cy="17.3436" r="41.7653" transform="rotate(-0.0800682 90.4056 17.3436)" fill="url(#paint4_radial_5481_99452)"/>
</g>
</g>

</svg>
