<svg width="96" height="96" viewBox="0 0 96 96" xmlns="http://www.w3.org/2000/svg">
  <defs>
<radialGradient id="paint0_radial_5481_99544" cx="0" cy="0" r="1" gradientUnits="userSpaceOnUse" gradientTransform="translate(54.2806 3.72345) rotate(90) scale(41.7653)">
<stop offset="0.166667" stop-color="#FF709F"/>
<stop offset="1" stop-color="#FF709F" stop-opacity="0"/>
</radialGradient>
<linearGradient id="paint1_linear_5481_99544" x1="-24.1244" y1="85.7895" x2="131.953" y2="-9.16689" gradientUnits="userSpaceOnUse">
<stop offset="0.0598452" stop-color="#8480FE"/>
<stop offset="0.599632" stop-color="#8480FE" stop-opacity="0"/>
</linearGradient>
<linearGradient id="paint2_linear_5481_99544" x1="101.128" y1="17.6831" x2="34.1712" y2="89.6803" gradientUnits="userSpaceOnUse">
<stop stop-color="#EB1000"/>
<stop offset="1" stop-color="#EB1000" stop-opacity="0"/>
</linearGradient>
<linearGradient id="paint3_linear_5481_99544" x1="19.7553" y1="99.6167" x2="138.452" y2="33.1246" gradientUnits="userSpaceOnUse">
<stop stop-color="#FC7D00" stop-opacity="0"/>
<stop offset="0.432292" stop-color="#FC7D00"/>
<stop offset="0.609375" stop-color="#FC7D00"/>
<stop offset="1" stop-color="#FC7D00" stop-opacity="0"/>
</linearGradient>
<radialGradient id="paint4_radial_5481_99544" cx="0" cy="0" r="1" gradientUnits="userSpaceOnUse" gradientTransform="translate(90.4056 17.3436) rotate(90) scale(41.7653)">
<stop offset="0.166667" stop-color="#EB1000"/>
<stop offset="1" stop-color="#EB1000" stop-opacity="0"/>
</radialGradient>
<clipPath id="clip0_5481_99544">
<rect width="96" height="96" rx="5.125" fill="white"/>
</clipPath>
</defs>
<clipPath id="mask0_5481_99544">
<path fill-rule="evenodd" d="M33.6191 28.0938C33.8081 28.0938 33.9946 28.0833 34.1782 28.0628L39.5157 37.3077C36.8623 39.4158 35.0117 42.4908 34.4965 46H23.8222C23.0507 44.2341 21.2886 43 19.2383 43C16.4769 43 14.2383 45.2386 14.2383 48C14.2383 50.7614 16.4769 53 19.2383 53C21.2886 53 23.0507 51.7659 23.8222 50H34.4967C35.0121 53.5089 36.8628 56.5836 39.5161 58.6915L34.1782 67.9371C33.9946 67.9167 33.8081 67.9062 33.6191 67.9062C30.8577 67.9062 28.6191 70.1448 28.6191 72.9062C28.6191 75.6677 30.8577 77.9062 33.6191 77.9062C36.3806 77.9062 38.6191 75.6677 38.6191 72.9062C38.6191 71.7944 38.2562 70.7673 37.6424 69.9369L42.9786 60.6943C44.5325 61.3094 46.2263 61.6473 47.999 61.6473C49.7717 61.6473 51.4655 61.3093 53.0194 60.6943L58.3559 69.9373C57.7422 70.7676 57.3794 71.7946 57.3794 72.9062C57.3794 75.6677 59.618 77.9062 62.3794 77.9062C65.1408 77.9062 67.3794 75.6677 67.3794 72.9062C67.3794 70.1448 65.1408 67.9062 62.3794 67.9062C62.1903 67.9062 62.0036 67.9168 61.8199 67.9372L56.4819 58.6915C59.1352 56.5835 60.9858 53.5088 61.5013 50L72.1758 50C72.9474 51.7659 74.7094 53 76.7598 53C79.5212 53 81.7598 50.7614 81.7598 48C81.7598 45.2386 79.5212 43 76.7598 43C74.7094 43 72.9474 44.2341 72.1758 46L61.5014 46C60.9863 42.4909 59.1357 39.4159 56.4823 37.3078L61.8199 28.0628C62.0036 28.0832 62.1903 28.0938 62.3794 28.0938C65.1408 28.0938 67.3794 25.8552 67.3794 23.0938C67.3794 20.3323 65.1408 18.0938 62.3794 18.0938C59.618 18.0938 57.3794 20.3323 57.3794 23.0938C57.3794 24.2054 57.7422 25.2324 58.3559 26.0627L53.0199 35.3048C51.4659 34.6896 49.7719 34.3516 47.999 34.3516C46.2261 34.3516 44.5321 34.6896 42.9781 35.3048L37.6424 26.0631C38.2562 25.2327 38.6191 24.2056 38.6191 23.0938C38.6191 20.3323 36.3806 18.0938 33.6191 18.0938C30.8577 18.0938 28.6191 20.3323 28.6191 23.0938C28.6191 25.8552 30.8577 28.0938 33.6191 28.0938Z" fill="white"/>
</clipPath>
<g clip-path="url(#mask0_5481_99544)">
<g clip-path="url(#clip0_5481_99544)">
<rect width="96" height="96" rx="5.125" fill="#FFECCF"/>
<rect width="96" height="96" fill="#FFECCF"/>
<circle cx="54.2806" cy="3.72345" r="41.7653" transform="rotate(-0.0800682 54.2806 3.72345)" fill="url(#paint0_radial_5481_99544)"/>
<path d="M36.6427 -16.9581C29.27 -21.5204 19.9288 -21.5483 12.5287 -17.0303L-61.4858 28.1606C-68.7346 32.5865 -68.7467 43.0335 -61.5078 47.4761L12.0177 92.6029C19.4067 97.1373 28.7479 97.1319 36.1306 92.5868L109.505 47.4178C116.705 42.9845 116.718 32.596 109.526 28.1461L36.6427 -16.9581Z" fill="url(#paint1_linear_5481_99544)"/>
<path d="M13.8365 45.5788C15.4774 9.73912 45.8613 -17.9845 81.7009 -16.3437C117.541 -14.7029 145.264 15.6811 143.623 51.5207C141.982 87.3603 111.599 115.084 75.759 113.443C39.9193 111.802 12.1957 81.4184 13.8365 45.5788Z" fill="url(#paint2_linear_5481_99544)"/>
<path d="M-38.8952 69.2093C-24.6489 63.1318 -9.28437 63.3923 4.02702 68.7083C30.6634 79.3721 46.1622 72.779 56.9121 46.2036C62.2666 32.8681 72.7207 21.5742 86.983 15.4898C115.498 3.34376 148.418 16.5231 160.547 44.9542C172.676 73.3853 159.4 106.253 130.892 118.415C116.598 124.513 101.204 124.228 87.8718 118.864C61.2786 108.257 45.8093 114.875 35.073 141.482C29.7049 154.786 19.2532 166.041 5.00686 172.119C-23.4858 184.274 -56.4056 171.095 -68.5277 142.679C-80.6499 114.264 -67.3878 81.3645 -38.8952 69.2093Z" fill="url(#paint3_linear_5481_99544)"/>
<circle cx="90.4056" cy="17.3436" r="41.7653" transform="rotate(-0.0800682 90.4056 17.3436)" fill="url(#paint4_radial_5481_99544)"/>
</g>
</g>

</svg>
