<svg width="160" height="160" viewBox="0 0 160 160" xmlns="http://www.w3.org/2000/svg">
  <defs>
<radialGradient id="paint0_radial_5481_90200" cx="0" cy="0" r="1" gradientUnits="userSpaceOnUse" gradientTransform="translate(90.4677 6.20574) rotate(90) scale(69.6088)">
<stop offset="0.166667" stop-color="#FF709F"/>
<stop offset="1" stop-color="#FF709F" stop-opacity="0"/>
</radialGradient>
<linearGradient id="paint1_linear_5481_90200" x1="-40.2086" y1="142.982" x2="219.921" y2="-15.2781" gradientUnits="userSpaceOnUse">
<stop offset="0.0598452" stop-color="#8480FE"/>
<stop offset="0.599632" stop-color="#8480FE" stop-opacity="0"/>
</linearGradient>
<linearGradient id="paint2_linear_5481_90200" x1="168.544" y1="29.4718" x2="56.9494" y2="149.467" gradientUnits="userSpaceOnUse">
<stop stop-color="#EB1000"/>
<stop offset="1" stop-color="#EB1000" stop-opacity="0"/>
</linearGradient>
<linearGradient id="paint3_linear_5481_90200" x1="32.9255" y1="166.029" x2="230.753" y2="55.2086" gradientUnits="userSpaceOnUse">
<stop stop-color="#FC7D00" stop-opacity="0"/>
<stop offset="0.432292" stop-color="#FC7D00"/>
<stop offset="0.609375" stop-color="#FC7D00"/>
<stop offset="1" stop-color="#FC7D00" stop-opacity="0"/>
</linearGradient>
<radialGradient id="paint4_radial_5481_90200" cx="0" cy="0" r="1" gradientUnits="userSpaceOnUse" gradientTransform="translate(150.675 28.9059) rotate(90) scale(69.6088)">
<stop offset="0.166667" stop-color="#EB1000"/>
<stop offset="1" stop-color="#EB1000" stop-opacity="0"/>
</radialGradient>
<clipPath id="clip0_5481_90200">
<rect width="160" height="160" rx="5.125" fill="white"/>
</clipPath>
</defs>
<clipPath id="mask0_5481_90200">
<path fill-rule="evenodd" d="M30.6723 84.4786L30.672 84.4779L30.6718 84.4777C30.6582 84.4513 30.6439 84.4252 30.6291 84.3995C28.3834 80.5033 28.9717 76.296 32.0679 73.9699C35.2819 71.5552 39.83 72.176 42.2844 75.3668L42.2845 75.3669L52.2365 88.3083C52.7586 88.9872 53.655 89.2583 54.4658 88.9826C55.2767 88.7069 55.8219 87.9455 55.8219 87.0891V43.8783C55.8219 39.4885 59.3626 35.9451 63.7138 35.9451C68.065 35.9451 71.6057 39.4885 71.6057 43.8783V71.6693C71.6057 72.7738 72.5011 73.6693 73.6057 73.6693H73.6258C74.7303 73.6693 75.6258 72.7738 75.6258 71.6693V34.152C75.6258 29.7622 79.1664 26.2188 83.5176 26.2188C87.8688 26.2188 91.4095 29.7622 91.4095 34.152V71.6743C91.4095 72.7789 92.3049 73.6743 93.4095 73.6743H93.4296C94.5342 73.6743 95.4296 72.7789 95.4296 71.6743V38.8562C95.4296 34.4664 98.9703 30.9229 103.321 30.9229C107.678 30.9229 111.218 34.467 111.218 38.8562V74.1475C111.218 75.2088 112.047 76.0853 113.107 76.1444C114.166 76.2036 115.088 75.4248 115.206 74.3702L116.151 65.9335L117.096 57.4967L117.099 57.4689C117.56 52.7595 121.745 50.4062 125.617 51.1666C128.684 51.7691 131.138 54.5161 130.673 59.048L126.474 88.4079C126.445 88.4967 126.421 88.5886 126.404 88.683C123.028 107.438 117.483 118.628 110.457 125.153C103.486 131.628 94.7586 133.781 84.3319 133.781C77.5753 133.781 70.8508 130.874 64.4663 126.285C58.0925 121.704 52.2069 115.553 47.1723 109.332C42.1452 103.12 38.0141 96.8974 35.1378 92.2225C33.7009 89.8871 32.5803 87.943 31.8207 86.5861C31.4409 85.9078 31.1516 85.3765 30.9582 85.0169C30.8615 84.8371 30.7889 84.7002 30.7409 84.6094L30.6876 84.508L30.6751 84.4839L30.6723 84.4786Z" fill="white"/>
</clipPath>
<g clip-path="url(#mask0_5481_90200)">
<g clip-path="url(#clip0_5481_90200)">
<rect width="160" height="160" rx="5.125" fill="#FFECCF"/>
<rect width="160" height="160" fill="#FFECCF"/>
<circle cx="90.4677" cy="6.20574" r="69.6087" transform="rotate(-0.0800682 90.4677 6.20574)" fill="url(#paint0_radial_5481_90200)"/>
<path d="M61.0698 -28.2636C48.782 -35.8673 33.2133 -35.9139 20.8798 -28.3838L-102.478 46.9343C-114.559 54.3109 -114.579 71.7224 -102.514 79.1269L20.0281 154.338C32.3432 161.895 47.9119 161.887 60.2163 154.311L182.506 79.0296C194.507 71.6409 194.529 54.3267 182.543 46.9101L61.0698 -28.2636Z" fill="url(#paint1_linear_5481_90200)"/>
<path d="M23.0583 75.9646C25.793 16.2319 76.4328 -29.9741 136.166 -27.2395C195.898 -24.5048 242.104 26.1351 239.37 85.8678C236.635 145.601 185.995 191.807 126.262 189.072C66.5296 186.337 20.3236 135.697 23.0583 75.9646Z" fill="url(#paint2_linear_5481_90200)"/>
<path d="M-64.8253 115.35C-41.0814 105.221 -15.474 105.655 6.71169 114.515C51.1056 132.288 76.9371 121.299 94.8534 77.0069C103.778 54.7811 121.201 35.958 144.972 25.8174C192.497 5.57391 247.364 27.5395 267.579 74.9246C287.793 122.31 265.667 177.09 218.153 197.36C194.329 207.523 168.673 207.047 146.453 198.107C102.131 180.429 76.3488 191.459 58.4551 235.805C49.5082 257.978 32.0886 276.736 8.34476 286.866C-39.1429 307.124 -94.0093 285.159 -114.213 237.8C-134.416 190.441 -112.313 135.609 -64.8253 115.35Z" fill="url(#paint3_linear_5481_90200)"/>
<circle cx="150.675" cy="28.9059" r="69.6087" transform="rotate(-0.0800682 150.675 28.9059)" fill="url(#paint4_radial_5481_90200)"/>
</g>
</g>

</svg>
