<svg width="160" height="160" viewBox="0 0 160 160" xmlns="http://www.w3.org/2000/svg">
  <defs>
<radialGradient id="paint0_radial_5481_89987" cx="0" cy="0" r="1" gradientUnits="userSpaceOnUse" gradientTransform="translate(90.4677 6.20574) rotate(90) scale(69.6088)">
<stop offset="0.166667" stop-color="#FF709F"/>
<stop offset="1" stop-color="#FF709F" stop-opacity="0"/>
</radialGradient>
<linearGradient id="paint1_linear_5481_89987" x1="-40.2086" y1="142.983" x2="219.921" y2="-15.2772" gradientUnits="userSpaceOnUse">
<stop offset="0.0598452" stop-color="#8480FE"/>
<stop offset="0.599632" stop-color="#8480FE" stop-opacity="0"/>
</linearGradient>
<linearGradient id="paint2_linear_5481_89987" x1="168.544" y1="29.4718" x2="56.9494" y2="149.467" gradientUnits="userSpaceOnUse">
<stop stop-color="#EB1000"/>
<stop offset="1" stop-color="#EB1000" stop-opacity="0"/>
</linearGradient>
<linearGradient id="paint3_linear_5481_89987" x1="32.9255" y1="166.029" x2="230.753" y2="55.2086" gradientUnits="userSpaceOnUse">
<stop stop-color="#FC7D00" stop-opacity="0"/>
<stop offset="0.432292" stop-color="#FC7D00"/>
<stop offset="0.609375" stop-color="#FC7D00"/>
<stop offset="1" stop-color="#FC7D00" stop-opacity="0"/>
</linearGradient>
<radialGradient id="paint4_radial_5481_89987" cx="0" cy="0" r="1" gradientUnits="userSpaceOnUse" gradientTransform="translate(150.675 28.9059) rotate(90) scale(69.6088)">
<stop offset="0.166667" stop-color="#EB1000"/>
<stop offset="1" stop-color="#EB1000" stop-opacity="0"/>
</radialGradient>
<clipPath id="clip0_5481_89987">
<rect width="160" height="160" rx="5.125" fill="white"/>
</clipPath>
</defs>
<clipPath id="mask0_5481_89987">
<path fill-rule="evenodd" d="M46.9626 52.9974H34.3125C29.8942 52.9974 26.3125 56.5791 26.3125 60.9974V99.2022C26.3125 103.62 29.8942 107.202 34.3125 107.202H46.9626L46.9626 52.9974ZM54.9626 48.1305L54.9626 112.02L70.2239 127C74.0195 130.725 80.4268 128.036 80.4268 122.718L80.4268 37.2815C80.4268 31.9485 73.9896 29.2659 70.2024 33.0208L54.9626 48.1305ZM91.745 57.2316C93.0733 55.4664 95.5811 55.1123 97.3462 56.4406C104.45 61.7867 109.057 70.3025 109.057 79.893C109.057 89.5621 104.375 98.1384 97.1714 103.476C95.3965 104.791 92.8914 104.419 91.5762 102.644C90.261 100.869 90.6337 98.3635 92.4086 97.0483C97.6635 93.1545 101.057 86.9205 101.057 79.893C101.057 72.9224 97.7183 66.7327 92.5359 62.8328C90.7708 61.5045 90.4166 58.9967 91.745 57.2316ZM114.281 40.9875C112.516 39.6591 110.008 40.0133 108.68 41.7784C107.352 43.5436 107.706 46.0514 109.471 47.3797C119.327 54.7965 125.688 66.5797 125.688 79.8497C125.688 93.2281 119.222 105.096 109.229 112.501C107.454 113.816 107.081 116.321 108.396 118.096C109.711 119.871 112.217 120.244 113.992 118.928C125.934 110.079 133.688 95.8697 133.688 79.8497C133.688 63.9598 126.059 49.8505 114.281 40.9875Z" fill="#292929"/>
</clipPath>
<g clip-path="url(#mask0_5481_89987)">
<g clip-path="url(#clip0_5481_89987)">
<rect width="160" height="160" rx="5.125" fill="#FFECCF"/>
<rect width="160" height="160" fill="#FFECCF"/>
<circle cx="90.4677" cy="6.20574" r="69.6087" transform="rotate(-0.0800682 90.4677 6.20574)" fill="url(#paint0_radial_5481_89987)"/>
<path d="M61.0698 -28.2626C48.782 -35.8663 33.2133 -35.9129 20.8798 -28.3828L-102.478 46.9353C-114.559 54.3119 -114.579 71.7234 -102.514 79.1279L20.0281 154.339C32.3432 161.896 47.9119 161.887 60.2163 154.312L182.506 79.0306C194.507 71.6419 194.529 54.3277 182.543 46.9111L61.0698 -28.2626Z" fill="url(#paint1_linear_5481_89987)"/>
<path d="M23.0583 75.9646C25.793 16.2319 76.4328 -29.9741 136.166 -27.2395C195.898 -24.5048 242.104 26.1351 239.37 85.8678C236.635 145.601 185.995 191.807 126.262 189.072C66.5296 186.337 20.3236 135.697 23.0583 75.9646Z" fill="url(#paint2_linear_5481_89987)"/>
<path d="M-64.8253 115.35C-41.0814 105.221 -15.474 105.655 6.71169 114.515C51.1056 132.288 76.9371 121.299 94.8534 77.0069C103.778 54.7811 121.201 35.958 144.972 25.8174C192.497 5.57391 247.364 27.5395 267.579 74.9246C287.793 122.31 265.667 177.09 218.153 197.36C194.329 207.523 168.673 207.047 146.453 198.107C102.131 180.429 76.3488 191.459 58.4551 235.805C49.5082 257.978 32.0886 276.736 8.34476 286.866C-39.1429 307.124 -94.0093 285.159 -114.213 237.8C-134.416 190.441 -112.313 135.609 -64.8253 115.35Z" fill="url(#paint3_linear_5481_89987)"/>
<circle cx="150.675" cy="28.9059" r="69.6087" transform="rotate(-0.0800682 150.675 28.9059)" fill="url(#paint4_radial_5481_89987)"/>
</g>
</g>

</svg>
