<svg width="160" height="160" viewBox="0 0 160 160" xmlns="http://www.w3.org/2000/svg">
  <defs>
<radialGradient id="paint0_radial_5481_89777" cx="0" cy="0" r="1" gradientUnits="userSpaceOnUse" gradientTransform="translate(89.1031 15.8256) rotate(90) scale(60.5342)">
<stop offset="0.166667" stop-color="#FF709F"/>
<stop offset="1" stop-color="#FF709F" stop-opacity="0"/>
</radialGradient>
<linearGradient id="paint1_linear_5481_89777" x1="-24.5365" y1="134.772" x2="201.681" y2="-2.85735" gradientUnits="userSpaceOnUse">
<stop offset="0.0598452" stop-color="#8480FE"/>
<stop offset="0.599632" stop-color="#8480FE" stop-opacity="0"/>
</linearGradient>
<linearGradient id="paint2_linear_5481_89777" x1="157.003" y1="36.0583" x2="59.9561" y2="140.411" gradientUnits="userSpaceOnUse">
<stop stop-color="#EB1000"/>
<stop offset="1" stop-color="#EB1000" stop-opacity="0"/>
</linearGradient>
<linearGradient id="paint3_linear_5481_89777" x1="39.0647" y1="154.813" x2="211.102" y2="58.4396" gradientUnits="userSpaceOnUse">
<stop stop-color="#FC7D00" stop-opacity="0"/>
<stop offset="0.432292" stop-color="#FC7D00"/>
<stop offset="0.609375" stop-color="#FC7D00"/>
<stop offset="1" stop-color="#FC7D00" stop-opacity="0"/>
</linearGradient>
<radialGradient id="paint4_radial_5481_89777" cx="0" cy="0" r="1" gradientUnits="userSpaceOnUse" gradientTransform="translate(141.463 35.5668) rotate(90) scale(60.5342 60.5342)">
<stop offset="0.166667" stop-color="#EB1000"/>
<stop offset="1" stop-color="#EB1000" stop-opacity="0"/>
</radialGradient>
<clipPath id="clip0_5481_89777">
<rect x="10.4297" y="10.4287" width="139.142" height="139.142" rx="3.46124" fill="white"/>
</clipPath>
</defs>
<clipPath id="mask0_5481_89777">
<path d="M80.0012 61.9093V27.7875C79.6776 27.7612 79.353 27.7393 79.0258 27.7393H47.8412C41.1807 27.7393 35.7812 33.1387 35.7812 39.7993V120.199C35.7812 126.86 41.1807 132.259 47.8412 132.259H112.161C118.822 132.259 124.221 126.86 124.221 120.199V72.9346C124.221 72.6074 124.199 72.283 124.173 71.9593H90.0512C84.51 71.9593 80.0012 67.451 80.0012 61.9093Z" fill="white"/>
<path d="M90.053 63.9198H120.203L88.043 31.7598V61.9098C88.043 63.0183 88.9449 63.9198 90.053 63.9198Z" fill="white"/>
</clipPath>
<g clip-path="url(#mask0_5481_89777)">
<g clip-path="url(#clip0_5481_89777)">
<rect x="10.4297" y="10.4287" width="139.142" height="139.142" rx="3.46124" fill="#FFECCF"/>
<rect width="139.142" height="139.142" transform="translate(10.4297 10.4287)" fill="#FFECCF"/>
<circle cx="89.1031" cy="15.8256" r="60.5342" transform="rotate(-0.0800682 89.1031 15.8256)" fill="url(#paint0_radial_5481_89777)"/>
<path d="M63.5389 -14.1499C52.8529 -20.7624 39.3139 -20.8029 28.5882 -14.2545L-78.6878 51.2448C-89.1941 57.6597 -89.2117 72.8014 -78.7196 79.2406L27.8475 144.647C38.5572 151.219 52.0963 151.211 62.7966 144.624L169.144 79.156C179.581 72.7305 179.6 57.6735 169.176 51.2238L63.5389 -14.1499Z" fill="url(#paint1_linear_5481_89777)"/>
<path d="M30.4832 76.4901C32.8614 24.5444 76.8996 -15.638 128.845 -13.2598C180.791 -10.8816 220.973 33.1566 218.595 85.1023C216.217 137.048 172.179 177.23 120.233 174.852C68.2874 172.474 28.105 128.436 30.4832 76.4901Z" fill="url(#paint2_linear_5481_89777)"/>
<path d="M-45.9429 110.741C-25.2944 101.932 -3.02521 102.309 16.2682 110.014C54.8748 125.47 77.3387 115.914 92.9194 77.3962C100.68 58.0679 115.832 41.6986 136.504 32.8799C177.834 15.2755 225.548 34.3775 243.127 75.5853C260.707 116.793 241.465 164.432 200.145 182.059C179.427 190.898 157.115 190.484 137.792 182.709C99.2482 167.336 76.8271 176.928 61.2661 215.493C53.4856 234.775 38.3369 251.088 17.6884 259.897C-23.6086 277.514 -71.3223 258.412 -88.892 217.228C-106.462 176.043 -87.2398 128.358 -45.9429 110.741Z" fill="url(#paint3_linear_5481_89777)"/>
<ellipse cx="141.463" cy="35.5668" rx="60.5342" ry="60.5342" transform="rotate(-0.0800682 141.463 35.5668)" fill="url(#paint4_radial_5481_89777)"/>
</g>
</g>

</svg>
