<svg width="49" height="48" viewBox="0 0 49 48" fill="none" xmlns="http://www.w3.org/2000/svg">
<mask id="mask0_5_685" style="mask-type:luminance" maskUnits="userSpaceOnUse" x="8" y="8" width="32" height="32">
<path fill-rule="evenodd" clip-rule="evenodd" d="M20.7932 8.79082C20.6312 8.63182 20.4152 8.53882 20.1842 8.53582L9.44115 8.40082C8.94915 8.39482 8.55615 8.78782 8.55615 9.26482V20.1188C8.55615 20.3468 8.64615 20.5658 8.81115 20.7278L13.7887 25.6831C15.414 24.0786 17.6469 23.0882 20.1113 23.0882C25.0821 23.0882 29.1113 27.1175 29.1113 32.0882C29.1113 34.5381 28.1326 36.7593 26.5448 38.3821L26.9042 38.7398C28.0562 39.8858 29.9252 39.8858 31.0772 38.7398L38.8981 30.9548C40.0471 29.8118 40.0471 27.9608 38.8981 26.8148L20.7962 8.79082H20.7932ZM15.4562 17.7008C14.1302 17.7008 13.0562 16.6268 13.0562 15.3008C13.0562 13.9748 14.1302 12.9008 15.4562 12.9008C16.7822 12.9008 17.8562 13.9748 17.8562 15.3008C17.8562 16.6268 16.7822 17.7008 15.4562 17.7008ZM12.6113 32.0882C12.6113 27.9469 15.97 24.5882 20.1113 24.5882C24.2527 24.5882 27.6113 27.9469 27.6113 32.0882C27.6113 36.2296 24.2527 39.5882 20.1113 39.5882C15.97 39.5882 12.6113 36.2296 12.6113 32.0882ZM23.47 35.4469C23.9554 34.9614 23.9554 34.1787 23.47 33.6933H23.4898L21.8848 32.0882L23.4898 30.4832C23.9753 29.9978 23.9753 29.2151 23.4898 28.7296C23.0043 28.2441 22.2216 28.2441 21.7362 28.7296L20.1311 30.3346L18.5261 28.7296C18.0407 28.2441 17.258 28.2441 16.7725 28.7296C16.287 29.2151 16.287 29.9978 16.7725 30.4832L18.3775 32.0882L16.7725 33.6933C16.287 34.1787 16.287 34.9614 16.7725 35.4469C17.0103 35.6946 17.3273 35.8135 17.6444 35.8135C17.9614 35.8135 18.2784 35.6847 18.5162 35.4469L20.1212 33.8419L21.7263 35.4469C21.964 35.6946 22.2811 35.8135 22.5981 35.8135C22.9152 35.8135 23.2322 35.6847 23.47 35.4469Z" fill="white"/>
</mask>
<g mask="url(#mask0_5_685)">
<g clip-path="url(#clip0_5_685)">
<rect x="0.158203" width="48" height="48" rx="5.125" fill="#FFECCF"/>
<rect width="48" height="48" transform="translate(0.158203)" fill="#FFECCF"/>
<circle cx="27.2988" cy="1.86179" r="20.8826" transform="rotate(-0.0800682 27.2988 1.86179)" fill="url(#paint0_radial_5_685)"/>
<path d="M18.4788 -8.47889C14.7925 -10.76 10.1219 -10.774 6.4218 -8.51495L-30.5854 14.0805C-34.2098 16.2935 -34.2159 21.5169 -30.5964 23.7383L6.1663 46.3016C9.86082 48.5688 14.5314 48.5661 18.2228 46.2936L54.9097 23.7091C58.51 21.4925 58.5166 16.2982 54.9207 14.0732L18.4788 -8.47889Z" fill="url(#paint1_linear_5_685)"/>
<path d="M7.07562 22.7894C7.89603 4.86956 23.088 -8.99224 41.0078 -8.17184C58.9276 -7.35143 72.7894 7.84053 71.969 25.7603C71.1486 43.6802 55.9566 57.542 38.0368 56.7215C20.117 55.9011 6.25521 40.7092 7.07562 22.7894Z" fill="url(#paint2_linear_5_685)"/>
<path d="M-19.2888 34.6049C-12.1656 31.5661 -4.48337 31.6964 2.17232 34.3543C15.4905 39.6862 23.2399 36.3897 28.6148 23.102C31.2921 16.4342 36.5192 10.7873 43.6503 7.7451C57.908 1.67206 74.3679 8.26173 80.4324 22.4773C86.4969 36.6928 79.859 53.1268 65.6047 59.2078C58.4576 62.2568 50.7606 62.114 44.0947 59.4321C30.7981 54.1287 23.0635 57.4377 17.6953 70.7414C15.0113 77.3932 9.7854 83.0208 2.66224 86.0596C-11.5841 92.1372 -28.044 85.5475 -34.105 71.3399C-40.1661 57.1323 -33.5351 40.6825 -19.2888 34.6049Z" fill="url(#paint3_linear_5_685)"/>
<circle cx="45.3605" cy="8.67185" r="20.8826" transform="rotate(-0.0800682 45.3605 8.67185)" fill="url(#paint4_radial_5_685)"/>
</g>
</g>
<defs>
<radialGradient id="paint0_radial_5_685" cx="0" cy="0" r="1" gradientUnits="userSpaceOnUse" gradientTransform="translate(27.2988 1.86179) rotate(90) scale(20.8826)">
<stop offset="0.166667" stop-color="#FF709F"/>
<stop offset="1" stop-color="#FF709F" stop-opacity="0"/>
</radialGradient>
<linearGradient id="paint1_linear_5_685" x1="-11.9047" y1="42.8949" x2="66.1341" y2="-4.58326" gradientUnits="userSpaceOnUse">
<stop offset="0.0598452" stop-color="#8480FE"/>
<stop offset="0.599632" stop-color="#8480FE" stop-opacity="0"/>
</linearGradient>
<linearGradient id="paint2_linear_5_685" x1="50.7214" y1="8.84155" x2="17.2429" y2="44.8401" gradientUnits="userSpaceOnUse">
<stop stop-color="#EB1000"/>
<stop offset="1" stop-color="#EB1000" stop-opacity="0"/>
</linearGradient>
<linearGradient id="paint3_linear_5_685" x1="10.0365" y1="49.8085" x2="69.3847" y2="16.5625" gradientUnits="userSpaceOnUse">
<stop stop-color="#FC7D00" stop-opacity="0"/>
<stop offset="0.432292" stop-color="#FC7D00"/>
<stop offset="0.609375" stop-color="#FC7D00"/>
<stop offset="1" stop-color="#FC7D00" stop-opacity="0"/>
</linearGradient>
<radialGradient id="paint4_radial_5_685" cx="0" cy="0" r="1" gradientUnits="userSpaceOnUse" gradientTransform="translate(45.3605 8.67185) rotate(90) scale(20.8826)">
<stop offset="0.166667" stop-color="#EB1000"/>
<stop offset="1" stop-color="#EB1000" stop-opacity="0"/>
</radialGradient>
<clipPath id="clip0_5_685">
<rect x="0.158203" width="48" height="48" rx="5.125" fill="white"/>
</clipPath>
</defs>
</svg>
