<svg width="48" height="48" viewBox="0 0 48 48" xmlns="http://www.w3.org/2000/svg">
  <defs>
<radialGradient id="paint0_radial_5481_99706" cx="0" cy="0" r="1" gradientUnits="userSpaceOnUse" gradientTransform="translate(27.1423 1.86319) rotate(90) scale(20.8826)">
<stop offset="0.166667" stop-color="#FF709F"/>
<stop offset="1" stop-color="#FF709F" stop-opacity="0"/>
</radialGradient>
<linearGradient id="paint1_linear_5481_99706" x1="-12.0622" y1="42.8962" x2="65.9766" y2="-4.58198" gradientUnits="userSpaceOnUse">
<stop offset="0.0598452" stop-color="#8480FE"/>
<stop offset="0.599632" stop-color="#8480FE" stop-opacity="0"/>
</linearGradient>
<linearGradient id="paint2_linear_5481_99706" x1="50.5621" y1="8.84253" x2="17.0836" y2="44.8411" gradientUnits="userSpaceOnUse">
<stop stop-color="#EB1000"/>
<stop offset="1" stop-color="#EB1000" stop-opacity="0"/>
</linearGradient>
<linearGradient id="paint3_linear_5481_99706" x1="9.87765" y1="49.8098" x2="69.2259" y2="16.5638" gradientUnits="userSpaceOnUse">
<stop stop-color="#FC7D00" stop-opacity="0"/>
<stop offset="0.432292" stop-color="#FC7D00"/>
<stop offset="0.609375" stop-color="#FC7D00"/>
<stop offset="1" stop-color="#FC7D00" stop-opacity="0"/>
</linearGradient>
<radialGradient id="paint4_radial_5481_99706" cx="0" cy="0" r="1" gradientUnits="userSpaceOnUse" gradientTransform="translate(45.2009 8.67276) rotate(90) scale(20.8826)">
<stop offset="0.166667" stop-color="#EB1000"/>
<stop offset="1" stop-color="#EB1000" stop-opacity="0"/>
</radialGradient>
<clipPath id="clip0_5481_99706">
<rect y="0.000976562" width="48" height="48" rx="5.125" fill="white"/>
</clipPath>
</defs>
<clipPath id="mask0_5481_99706">
<path fill-rule="evenodd" d="M26.4544 8.57687L36.3456 18.468C37.0207 19.1432 37.4 20.0588 37.4 21.0136V35.1225C37.4 37.1107 35.7882 38.7225 33.8 38.7225H14.6C12.6118 38.7225 11 37.1107 11 35.1225V11.1225C11 9.13423 12.6118 7.52246 14.6 7.52246H23.9088C24.8636 7.52246 25.7793 7.90174 26.4544 8.57687ZM21.302 23.159C21.302 22.9455 21.475 22.7725 21.6885 22.7725C22.3788 22.7725 22.9385 22.2128 22.9385 21.5225C22.9385 20.8321 22.3788 20.2725 21.6885 20.2725C20.0943 20.2725 18.802 21.5648 18.802 23.159C18.802 23.9727 19.1403 24.7096 19.6808 25.2329C20.1768 25.7131 20.9681 25.7003 21.4483 25.2043C21.9285 24.7083 21.9157 23.9169 21.4197 23.4368C21.3456 23.365 21.302 23.2682 21.302 23.159ZM25.5147 21.449C24.0122 21.449 22.7941 22.667 22.7941 24.1696C22.7941 25.6721 24.0122 26.8902 25.5147 26.8902C27.0173 26.8902 28.2353 25.6721 28.2353 24.1696C28.2353 22.667 27.0173 21.449 25.5147 21.449ZM21.0891 28.8546C21.712 28.5571 21.9758 27.8109 21.6783 27.1879C21.3807 26.565 20.6345 26.3012 20.0116 26.5988C18.7143 27.2184 17.7673 28.4617 17.5178 29.9312C17.4023 30.6118 17.8604 31.2572 18.541 31.3727C19.2216 31.4883 19.867 31.0302 19.9826 30.3496C20.0971 29.6749 20.5319 29.1208 21.0891 28.8546ZM25.5148 27.3313C23.4407 27.3313 21.5487 28.6615 21.0773 30.6175C20.7749 31.8723 21.8374 32.7725 22.8401 32.7725H28.1895C29.1922 32.7725 30.2546 31.8723 29.9522 30.6175C29.4809 28.6615 27.5889 27.3313 25.5148 27.3313Z" fill="#292929"/>
</clipPath>
<g clip-path="url(#mask0_5481_99706)">
<g clip-path="url(#clip0_5481_99706)">
<rect y="0.000976562" width="48" height="48" rx="5.125" fill="#FFECCF"/>
<rect width="48" height="48" transform="translate(0 0.000976562)" fill="#FFECCF"/>
<circle cx="27.1423" cy="1.86319" r="20.8826" transform="rotate(-0.0800682 27.1423 1.86319)" fill="url(#paint0_radial_5481_99706)"/>
<path d="M18.3213 -8.47761C14.635 -10.7587 9.96439 -10.7727 6.26433 -8.51367L-30.7429 14.0818C-34.3673 16.2947 -34.3733 21.5182 -30.7539 23.7395L6.00883 46.3029C9.70335 48.5701 14.374 48.5674 18.0653 46.2948L54.7523 23.7103C58.3526 21.4937 58.3591 16.2995 54.7632 14.0745L18.3213 -8.47761Z" fill="url(#paint1_linear_5481_99706)"/>
<path d="M6.91632 22.7904C7.73673 4.87054 22.9287 -8.99127 40.8485 -8.17086C58.7683 -7.35045 72.6301 7.8415 71.8097 25.7613C70.9893 43.6811 55.7973 57.5429 37.8775 56.7225C19.9577 55.9021 6.09591 40.7102 6.91632 22.7904Z" fill="url(#paint2_linear_5481_99706)"/>
<path d="M-19.4476 34.6061C-12.3244 31.5673 -4.64218 31.6976 2.01351 34.3556C15.3317 39.6875 23.0811 36.3909 28.456 23.1033C31.1333 16.4355 36.3604 10.7886 43.4915 7.74638C57.7492 1.67334 74.2091 8.26301 80.2736 22.4786C86.338 36.6941 79.7002 53.128 65.4459 59.209C58.2988 62.2581 50.6018 62.1153 43.9359 59.4334C30.6393 54.1299 22.9046 57.439 17.5365 70.7426C14.8525 77.3945 9.62658 83.022 2.50343 86.0608C-11.7429 92.1384 -28.2028 85.5488 -34.2639 71.3412C-40.3249 57.1336 -33.6939 40.6837 -19.4476 34.6061Z" fill="url(#paint3_linear_5481_99706)"/>
<circle cx="45.2009" cy="8.67276" r="20.8826" transform="rotate(-0.0800682 45.2009 8.67276)" fill="url(#paint4_radial_5481_99706)"/>
</g>
</g>

</svg>
