<svg width="160" height="160" viewBox="0 0 160 160" xmlns="http://www.w3.org/2000/svg">
  <defs>
<radialGradient id="paint0_radial_5481_89765" cx="0" cy="0" r="1" gradientUnits="userSpaceOnUse" gradientTransform="translate(88.6734 15.3968) rotate(90) scale(60.5342)">
<stop offset="0.166667" stop-color="#FF709F"/>
<stop offset="1" stop-color="#FF709F" stop-opacity="0"/>
</radialGradient>
<linearGradient id="paint1_linear_5481_89765" x1="-24.9662" y1="134.343" x2="201.252" y2="-3.28606" gradientUnits="userSpaceOnUse">
<stop offset="0.0598452" stop-color="#8480FE"/>
<stop offset="0.599632" stop-color="#8480FE" stop-opacity="0"/>
</linearGradient>
<linearGradient id="paint2_linear_5481_89765" x1="156.573" y1="35.6296" x2="59.5264" y2="139.982" gradientUnits="userSpaceOnUse">
<stop stop-color="#EB1000"/>
<stop offset="1" stop-color="#EB1000" stop-opacity="0"/>
</linearGradient>
<linearGradient id="paint3_linear_5481_89765" x1="38.635" y1="154.384" x2="210.673" y2="58.0109" gradientUnits="userSpaceOnUse">
<stop stop-color="#FC7D00" stop-opacity="0"/>
<stop offset="0.432292" stop-color="#FC7D00"/>
<stop offset="0.609375" stop-color="#FC7D00"/>
<stop offset="1" stop-color="#FC7D00" stop-opacity="0"/>
</linearGradient>
<radialGradient id="paint4_radial_5481_89765" cx="0" cy="0" r="1" gradientUnits="userSpaceOnUse" gradientTransform="translate(141.033 35.138) rotate(90) scale(60.5342)">
<stop offset="0.166667" stop-color="#EB1000"/>
<stop offset="1" stop-color="#EB1000" stop-opacity="0"/>
</radialGradient>
<clipPath id="clip0_5481_89765">
<rect x="10" y="10" width="139.142" height="139.142" rx="3.46124" fill="white"/>
</clipPath>
</defs>
<clipPath id="mask0_5481_89765">
<path fill-rule="evenodd" d="M59.9291 48.0803C53.3091 48.0803 47.9291 53.4603 47.9291 60.0803V64.9903L31.7891 54.8703L75.9091 27.2603C78.5191 25.6303 81.8191 25.6303 84.4191 27.2703L128.219 54.8603L112.069 64.9903V60.0803C112.069 53.4603 106.689 48.0803 100.069 48.0803H59.9291ZM59.9297 56.0803C57.7197 56.0803 55.9297 57.8703 55.9297 60.0803V70.0003L77.8797 83.7703C79.1697 84.5803 80.8397 84.5803 82.1297 83.7703L104.08 70.0003V60.0703C104.08 57.8603 102.29 56.0703 100.08 56.0703H59.9397L59.9297 56.0803ZM86.3795 90.5503C84.4395 91.7603 82.2195 92.3703 79.9995 92.3703C77.7795 92.3703 75.5595 91.7603 73.6195 90.5503L28.0195 61.9503V117.97C28.0195 126.81 35.1795 133.98 44.0195 133.98H115.98C124.82 133.98 131.98 126.81 131.98 117.97V61.9503L86.3795 90.5503Z" fill="white"/>
</clipPath>
<g clip-path="url(#mask0_5481_89765)">
<g clip-path="url(#clip0_5481_89765)">
<rect x="10" y="10" width="139.142" height="139.142" rx="3.46124" fill="#FFECCF"/>
<rect width="139.142" height="139.142" transform="translate(10 10)" fill="#FFECCF"/>
<circle cx="88.6734" cy="15.3968" r="60.5342" transform="rotate(-0.0800682 88.6734 15.3968)" fill="url(#paint0_radial_5481_89765)"/>
<path d="M63.1092 -14.5787C52.4232 -21.1911 38.8842 -21.2316 28.1585 -14.6832L-79.1175 50.8161C-89.6238 57.231 -89.6414 72.3727 -79.1493 78.8119L27.4178 144.218C38.1275 150.79 51.6666 150.783 62.3669 144.195L168.715 78.7273C179.151 72.3018 179.17 57.2448 168.746 50.7951L63.1092 -14.5787Z" fill="url(#paint1_linear_5481_89765)"/>
<path d="M30.0536 76.0614C32.4318 24.1157 76.4699 -16.0667 128.416 -13.6885C180.361 -11.3103 220.544 32.7279 218.165 84.6735C215.787 136.619 171.749 176.802 119.803 174.423C67.8577 172.045 27.6754 128.007 30.0536 76.0614Z" fill="url(#paint2_linear_5481_89765)"/>
<path d="M-46.3726 110.312C-25.7241 101.503 -3.45491 101.881 15.8385 109.586C54.4451 125.042 76.909 115.486 92.4897 76.9675C100.251 57.6392 115.403 41.2699 136.074 32.4512C177.404 14.8468 225.118 33.9488 242.698 75.1566C260.277 116.364 241.036 164.003 199.715 181.63C178.997 190.469 156.685 190.055 137.362 182.281C98.8185 166.907 76.3974 176.499 60.8364 215.064C53.0559 234.346 37.9072 250.659 17.2587 259.468C-24.0383 277.086 -71.752 257.984 -89.3218 216.799C-106.892 175.614 -87.6695 127.929 -46.3726 110.312Z" fill="url(#paint3_linear_5481_89765)"/>
<circle cx="141.033" cy="35.138" r="60.5342" transform="rotate(-0.0800682 141.033 35.138)" fill="url(#paint4_radial_5481_89765)"/>
</g>
</g>

</svg>
