<svg width="96" height="96" viewBox="0 0 96 96" xmlns="http://www.w3.org/2000/svg">
  <defs>
<radialGradient id="paint0_radial_5481_99236" cx="0" cy="0" r="1" gradientUnits="userSpaceOnUse" gradientTransform="translate(32.7857 30.9063) rotate(90) scale(30.9063 32.7857)">
<stop offset="0.166667" stop-color="#FF709F"/>
<stop offset="1" stop-color="#FF709F" stop-opacity="0"/>
</radialGradient>
<linearGradient id="paint1_linear_5481_99236" x1="-7.89785" y1="75.904" x2="110.611" y2="-0.580263" gradientUnits="userSpaceOnUse">
<stop offset="0.0598452" stop-color="#8480FE"/>
<stop offset="0.599632" stop-color="#8480FE" stop-opacity="0"/>
</linearGradient>
<linearGradient id="paint2_linear_5481_99236" x1="90.4227" y1="25.5055" x2="41.1712" y2="81.6849" gradientUnits="userSpaceOnUse">
<stop stop-color="#EB1000"/>
<stop offset="1" stop-color="#EB1000" stop-opacity="0"/>
</linearGradient>
<linearGradient id="paint3_linear_5481_99236" x1="26.5461" y1="86.1362" x2="117.015" y2="32.375" gradientUnits="userSpaceOnUse">
<stop stop-color="#FC7D00" stop-opacity="0"/>
<stop offset="0.432292" stop-color="#FC7D00"/>
<stop offset="0.609375" stop-color="#FC7D00"/>
<stop offset="1" stop-color="#FC7D00" stop-opacity="0"/>
</linearGradient>
<radialGradient id="paint4_radial_5481_99236" cx="0" cy="0" r="1" gradientUnits="userSpaceOnUse" gradientTransform="translate(32.7857 30.9063) rotate(90) scale(30.9063 32.7857)">
<stop offset="0.166667" stop-color="#EB1000"/>
<stop offset="1" stop-color="#EB1000" stop-opacity="0"/>
</radialGradient>
<clipPath id="clip0_5481_99236">
<rect x="11.0391" y="12.4199" width="75.36" height="71.04" rx="2.07674" fill="white"/>
</clipPath>
</defs>
<clipPath id="mask0_5481_99236">
<path fill-rule="evenodd" d="M21.2113 53.7316C14.5285 60.3815 14.5286 71.1679 21.2113 77.8177C27.8875 84.461 38.7069 84.461 45.3831 77.8177L72.4243 50.9098C73.3639 49.9749 73.3676 48.4553 72.4327 47.5157C71.4977 46.5761 69.9781 46.5724 69.0386 47.5073L41.9974 74.4152C37.1938 79.1952 29.4007 79.1952 24.597 74.4152C19.8 69.6418 19.7999 61.9075 24.597 57.1341L61.6311 20.2825C64.6893 17.2394 69.6524 17.2394 72.7105 20.2825C75.7621 23.319 75.7621 28.2373 72.7106 31.2738L39.5154 64.3053C38.2385 65.576 36.1633 65.576 34.8863 64.3053C33.616 63.0412 33.616 60.9966 34.8863 59.7325L58.0885 36.6447C59.0281 35.7098 59.0318 34.1902 58.0969 33.2506C57.1619 32.311 55.6424 32.3073 54.7028 33.2422L31.5006 56.3301C28.3445 59.4706 28.3446 64.5673 31.5006 67.7078C34.6501 70.8418 39.7516 70.8418 42.9011 67.7078L76.0963 34.6763C81.0336 29.7634 81.0335 21.7929 76.0962 16.88C71.1655 11.9736 63.1761 11.9736 58.2454 16.88L21.2113 53.7316Z" fill="white" stroke="white" stroke-width="1.2" stroke-linecap="round" stroke-linejoin="round"/>
</clipPath>
<g clip-path="url(#mask0_5481_99236)">
<g clip-path="url(#clip0_5481_99236)">
<rect x="11.0391" y="12.4199" width="75.36" height="71.04" rx="2.07674" fill="#FFECCF"/>
<rect width="75.36" height="71.04" transform="translate(11.0391 12.4199)" fill="#FFECCF"/>
<ellipse cx="32.7857" cy="30.9063" rx="32.7857" ry="30.9063" transform="matrix(0.999999 -0.00131734 0.00148243 0.999999 20.8164 -15.6875)" fill="url(#paint0_radial_5481_99236)"/>
<path d="M39.8043 -0.129243C34.0167 -3.50529 26.6839 -3.52597 20.8748 -0.182617L-37.2266 33.2586C-42.9169 36.5338 -42.9263 44.2646 -37.2438 47.5521L20.4737 80.946C26.2741 84.3014 33.6069 84.2974 39.4023 80.934L97.0009 47.5089C102.653 44.2284 102.664 36.5408 97.0181 33.2479L39.8043 -0.129243Z" fill="url(#paint1_linear_5481_99236)"/>
<path d="M21.8988 46.1483C23.1868 19.6269 47.0382 -0.888525 75.1723 0.325681C103.306 1.53989 125.069 24.024 123.781 50.5453C122.493 77.0666 98.642 97.5821 70.5079 96.3679C42.3738 95.1537 20.6108 72.6696 21.8988 46.1483Z" fill="url(#paint2_linear_5481_99236)"/>
<path d="M-19.4946 63.6348C-8.3112 59.1374 3.74992 59.3302 14.1994 63.264C35.1089 71.1552 47.2755 66.2763 55.7141 46.6105C59.9174 36.7423 68.1239 28.3848 79.3198 23.8823C101.704 14.8942 127.546 24.647 137.068 45.686C146.589 66.725 136.167 91.0472 113.788 100.047C102.567 104.56 90.4829 104.348 80.0175 100.379C59.1418 92.53 46.9984 97.4275 38.5705 117.117C34.3565 126.961 26.1519 135.29 14.9685 139.788C-7.39817 148.783 -33.2402 139.03 -42.7561 118.003C-52.272 96.9754 -41.8613 72.6296 -19.4946 63.6348Z" fill="url(#paint3_linear_5481_99236)"/>
<ellipse cx="32.7857" cy="30.9063" rx="32.7857" ry="30.9063" transform="matrix(0.999999 -0.00131734 0.00148243 0.999999 49.1758 -5.6084)" fill="url(#paint4_radial_5481_99236)"/>
</g>
</g>

</svg>
