<svg width="160" height="160" viewBox="0 0 160 160" xmlns="http://www.w3.org/2000/svg">
  <defs>
<radialGradient id="paint0_radial_5481_89888" cx="0" cy="0" r="1" gradientUnits="userSpaceOnUse" gradientTransform="translate(60.7348 57.2532) rotate(90) scale(57.2532 60.7348)">
<stop offset="0.166667" stop-color="#FF709F"/>
<stop offset="1" stop-color="#FF709F" stop-opacity="0"/>
</radialGradient>
<linearGradient id="paint1_linear_5481_89888" x1="-23.6864" y1="127.603" x2="195.849" y2="-14.082" gradientUnits="userSpaceOnUse">
<stop offset="0.0598452" stop-color="#8480FE"/>
<stop offset="0.599632" stop-color="#8480FE" stop-opacity="0"/>
</linearGradient>
<linearGradient id="paint2_linear_5481_89888" x1="158.458" y1="34.2403" x2="67.2204" y2="138.311" gradientUnits="userSpaceOnUse">
<stop stop-color="#EB1000"/>
<stop offset="1" stop-color="#EB1000" stop-opacity="0"/>
</linearGradient>
<linearGradient id="paint3_linear_5481_89888" x1="40.1268" y1="146.558" x2="207.718" y2="46.967" gradientUnits="userSpaceOnUse">
<stop stop-color="#FC7D00" stop-opacity="0"/>
<stop offset="0.432292" stop-color="#FC7D00"/>
<stop offset="0.609375" stop-color="#FC7D00"/>
<stop offset="1" stop-color="#FC7D00" stop-opacity="0"/>
</linearGradient>
<radialGradient id="paint4_radial_5481_89888" cx="0" cy="0" r="1" gradientUnits="userSpaceOnUse" gradientTransform="translate(60.7348 57.2532) rotate(90) scale(57.2532 60.7348)">
<stop offset="0.166667" stop-color="#EB1000"/>
<stop offset="1" stop-color="#EB1000" stop-opacity="0"/>
</radialGradient>
<clipPath id="clip0_5481_89888">
<rect x="11.3984" y="10" width="139.603" height="131.6" rx="3.46124" fill="white"/>
</clipPath>
</defs>
<clipPath id="mask0_5481_89888">
<path d="M116 34H109V44C109 46.21 107.21 48 105 48C102.79 48 101 46.21 101 44V34H59V44C59 46.21 57.21 48 55 48C52.79 48 51 46.21 51 44V34H44C35.16 34 28 41.16 28 50V60H132V50C132 41.16 124.84 34 116 34ZM28 116C28 124.84 35.16 132 44 132H116C124.84 132 132 124.84 132 116V68H28V116ZM101 84C101 81.79 102.79 80 105 80H111C113.21 80 115 81.79 115 84V90C115 92.21 113.21 94 111 94H105C102.79 94 101 92.21 101 90V84ZM101 106C101 103.79 102.79 102 105 102H111C113.21 102 115 103.79 115 106V112C115 114.21 113.21 116 111 116H105C102.79 116 101 114.21 101 112V106ZM73 84C73 81.79 74.79 80 77 80H83C85.21 80 87 81.79 87 84V90C87 92.21 85.21 94 83 94H77C74.79 94 73 92.21 73 90V84ZM73 106C73 103.79 74.79 102 77 102H83C85.21 102 87 103.79 87 106V112C87 114.21 85.21 116 83 116H77C74.79 116 73 114.21 73 112V106ZM45 84C45 81.79 46.79 80 49 80H55C57.21 80 59 81.79 59 84V90C59 92.21 57.21 94 55 94H49C46.79 94 45 92.21 45 90V84ZM45 106C45 103.79 46.79 102 49 102H55C57.21 102 59 103.79 59 106V112C59 114.21 57.21 116 55 116H49C46.79 116 45 114.21 45 112V106ZM59 24C59 21.79 57.21 20 55 20C52.79 20 51 21.79 51 24V34H59V24ZM109 24C109 21.79 107.21 20 105 20C102.79 20 101 21.79 101 24V34H109V24Z" fill="white"/>
</clipPath>
<g clip-path="url(#mask0_5481_89888)">
<g clip-path="url(#clip0_5481_89888)">
<rect x="11.3984" y="10" width="139.603" height="131.6" rx="3.46124" fill="#FFECCF"/>
<rect width="139.603" height="131.6" transform="translate(11.3984 10)" fill="#FFECCF"/>
<ellipse cx="60.7348" cy="57.2532" rx="60.7348" ry="57.2532" transform="matrix(0.999999 -0.00131734 0.00148243 0.999999 29.5156 -42.0684)" fill="url(#paint0_radial_5481_89888)"/>
<path d="M64.6807 -13.2465C53.9594 -19.5005 40.3755 -19.5388 29.6143 -13.3453L-78.0171 48.6038C-88.5583 54.671 -88.5759 68.992 -78.0491 75.0822L28.8712 136.943C39.6163 143.159 53.2002 143.152 63.9361 136.921L170.636 75.0021C181.107 68.925 181.126 54.684 170.668 48.5839L64.6807 -13.2465Z" fill="url(#paint1_linear_5481_89888)"/>
<path d="M31.5188 72.4806C33.9048 23.3505 78.0889 -14.654 130.207 -12.4047C182.325 -10.1554 222.64 31.4959 220.254 80.626C217.868 129.756 173.684 167.761 121.566 165.511C69.4482 163.262 29.1327 121.611 31.5188 72.4806Z" fill="url(#paint2_linear_5481_89888)"/>
<path d="M-45.1623 104.875C-24.4454 96.5436 -2.10248 96.9008 17.2549 104.188C55.9893 118.806 78.5277 109.768 94.16 73.3379C101.947 55.0572 117.149 39.5752 137.889 31.2345C179.356 14.5843 227.228 32.6509 244.866 71.6252C262.503 110.599 243.198 155.656 201.741 172.328C180.954 180.687 158.568 180.296 139.181 172.943C100.51 158.403 78.0144 167.475 62.4018 203.949C54.5955 222.186 39.3966 237.615 18.6797 245.947C-22.7541 262.609 -70.6259 244.543 -88.2538 205.59C-105.882 166.638 -86.5961 121.538 -45.1623 104.875Z" fill="url(#paint3_linear_5481_89888)"/>
<ellipse cx="60.7348" cy="57.2532" rx="60.7348" ry="57.2532" transform="matrix(0.999999 -0.00131734 0.00148243 0.999999 82.043 -23.3975)" fill="url(#paint4_radial_5481_89888)"/>
</g>
</g>

</svg>
