<svg width="96" height="96" viewBox="0 0 96 96" xmlns="http://www.w3.org/2000/svg">
  <defs>
<radialGradient id="paint0_radial_6748_75753" cx="0" cy="0" r="1" gradientUnits="userSpaceOnUse" gradientTransform="translate(54.2806 3.72345) rotate(90) scale(41.7653)">
<stop offset="0.166667" stop-color="#FF709F"/>
<stop offset="1" stop-color="#FF709F" stop-opacity="0"/>
</radialGradient>
<linearGradient id="paint1_linear_6748_75753" x1="-24.1244" y1="85.7904" x2="131.953" y2="-9.16592" gradientUnits="userSpaceOnUse">
<stop offset="0.0598452" stop-color="#8480FE"/>
<stop offset="0.599632" stop-color="#8480FE" stop-opacity="0"/>
</linearGradient>
<linearGradient id="paint2_linear_6748_75753" x1="101.128" y1="17.6831" x2="34.1712" y2="89.6803" gradientUnits="userSpaceOnUse">
<stop stop-color="#EB1000"/>
<stop offset="1" stop-color="#EB1000" stop-opacity="0"/>
</linearGradient>
<linearGradient id="paint3_linear_6748_75753" x1="19.7553" y1="99.6177" x2="138.452" y2="33.1256" gradientUnits="userSpaceOnUse">
<stop stop-color="#FC7D00" stop-opacity="0"/>
<stop offset="0.432292" stop-color="#FC7D00"/>
<stop offset="0.609375" stop-color="#FC7D00"/>
<stop offset="1" stop-color="#FC7D00" stop-opacity="0"/>
</linearGradient>
<radialGradient id="paint4_radial_6748_75753" cx="0" cy="0" r="1" gradientUnits="userSpaceOnUse" gradientTransform="translate(90.4056 17.3436) rotate(90) scale(41.7653)">
<stop offset="0.166667" stop-color="#EB1000"/>
<stop offset="1" stop-color="#EB1000" stop-opacity="0"/>
</radialGradient>
</defs>
<clipPath id="mask0_6748_75753">
<path fill-rule="evenodd" d="M56.821 15.0618L84.3493 34.0603C87.7507 36.4077 87.816 41.4105 84.4771 43.8459L49.9712 69.0149C47.9281 70.5052 45.17 70.5544 43.075 69.1381L15.5595 50.5361C15.0006 50.1582 14.5299 49.7088 14.148 49.2105C14.0504 49.7107 14 50.2235 14 50.7425L14 52.519C14 55.1943 15.3372 57.6925 17.5634 59.1762L45.7809 77.9817C46.4821 78.449 47.401 78.4267 48.0786 77.9259L83.3114 51.8921C84.1998 51.2357 85.4521 51.4237 86.1085 52.3121C86.7649 53.2004 86.5769 54.4527 85.6885 55.1091L50.4557 81.143C48.4227 82.6452 45.6662 82.7121 43.5626 81.3102L15.3451 62.5047C12.0058 60.2792 9.99997 56.5319 10 52.519L10 50.7424C10 46.9456 11.797 43.3727 14.8452 41.1088L27.8259 31.4682C27.9085 31.4069 27.9943 31.3528 28.0826 31.306L49.8403 15.1797C51.9024 13.6512 54.7084 13.6039 56.821 15.0618ZM50.4632 29.3828C49.551 28.7599 48.3066 28.9944 47.6837 29.9066C47.0608 30.8188 47.2953 32.0632 48.2075 32.6861L63.8717 43.3826C64.7839 44.0055 66.0284 43.7709 66.6513 42.8588C67.2741 41.9466 67.0396 40.7021 66.1274 40.0793L50.4632 29.3828ZM41.4674 35.1595C40.8445 36.0717 41.079 37.3161 41.9912 37.939L57.6554 48.6355C58.5676 49.2584 59.812 49.0239 60.4349 48.1117C61.0578 47.1995 60.8233 45.9551 59.9111 45.3322L44.2469 34.6357C43.3347 34.0128 42.0903 34.2473 41.4674 35.1595Z" fill="white"/>
<path fill-rule="evenodd" d="M56.821 15.0618L84.3493 34.0603C87.7507 36.4077 87.816 41.4105 84.4771 43.8459L49.9712 69.0149C47.9281 70.5052 45.17 70.5544 43.075 69.1381L15.5595 50.5361C15.0006 50.1582 14.5299 49.7088 14.148 49.2105C14.0504 49.7107 14 50.2235 14 50.7425L14 52.519C14 55.1943 15.3372 57.6925 17.5634 59.1762L45.7809 77.9817C46.4821 78.449 47.401 78.4267 48.0786 77.9259L83.3114 51.8921C84.1998 51.2357 85.4521 51.4237 86.1085 52.3121C86.7649 53.2004 86.5769 54.4527 85.6885 55.1091L50.4557 81.143C48.4227 82.6452 45.6662 82.7121 43.5626 81.3102L15.3451 62.5047C12.0058 60.2792 9.99997 56.5319 10 52.519L10 50.7424C10 46.9456 11.797 43.3727 14.8452 41.1088L27.8259 31.4682C27.9085 31.4069 27.9943 31.3528 28.0826 31.306L49.8403 15.1797C51.9024 13.6512 54.7084 13.6039 56.821 15.0618ZM50.4632 29.3828C49.551 28.7599 48.3066 28.9944 47.6837 29.9066C47.0608 30.8188 47.2953 32.0632 48.2075 32.6861L63.8717 43.3826C64.7839 44.0055 66.0284 43.7709 66.6513 42.8588C67.2741 41.9466 67.0396 40.7021 66.1274 40.0793L50.4632 29.3828ZM41.4674 35.1595C40.8445 36.0717 41.079 37.3161 41.9912 37.939L57.6554 48.6355C58.5676 49.2584 59.812 49.0239 60.4349 48.1117C61.0578 47.1995 60.8233 45.9551 59.9111 45.3322L44.2469 34.6357C43.3347 34.0128 42.0903 34.2473 41.4674 35.1595Z" stroke="white"/>
</clipPath>
<g clip-path="url(#mask0_6748_75753)">
<rect width="96" height="96" rx="5.125" fill="#FFECCF"/>
<rect width="96" height="96" fill="#FFECCF"/>
<circle cx="54.2806" cy="3.72345" r="41.7653" transform="rotate(-0.0800682 54.2806 3.72345)" fill="url(#paint0_radial_6748_75753)"/>
<path d="M36.6427 -16.9572C29.27 -21.5194 19.9288 -21.5473 12.5287 -17.0293L-61.4858 28.1616C-68.7346 32.5875 -68.7467 43.0344 -61.5078 47.4771L12.0177 92.6039C19.4067 97.1383 28.7479 97.1329 36.1306 92.5877L109.505 47.4187C116.705 42.9855 116.718 32.597 109.526 28.1471L36.6427 -16.9572Z" fill="url(#paint1_linear_6748_75753)"/>
<path d="M13.8365 45.5788C15.4774 9.73912 45.8613 -17.9845 81.7009 -16.3437C117.541 -14.7029 145.264 15.6811 143.623 51.5207C141.982 87.3603 111.599 115.084 75.759 113.443C39.9193 111.802 12.1957 81.4184 13.8365 45.5788Z" fill="url(#paint2_linear_6748_75753)"/>
<path d="M-38.8952 69.2103C-24.6489 63.1327 -9.28437 63.3933 4.02702 68.7093C30.6634 79.3731 46.1622 72.7799 56.9121 46.2046C62.2666 32.8691 72.7207 21.5752 86.983 15.4908C115.498 3.34474 148.418 16.5241 160.547 44.9552C172.676 73.3863 159.4 106.254 130.892 118.416C116.598 124.514 101.204 124.229 87.8718 118.865C61.2786 108.258 45.8093 114.876 35.073 141.483C29.7049 154.787 19.2532 166.042 5.00686 172.12C-23.4858 184.275 -56.4056 171.096 -68.5277 142.68C-80.6499 114.265 -67.3878 81.3655 -38.8952 69.2103Z" fill="url(#paint3_linear_6748_75753)"/>
<circle cx="90.4056" cy="17.3436" r="41.7653" transform="rotate(-0.0800682 90.4056 17.3436)" fill="url(#paint4_radial_6748_75753)"/>
</g>

</svg>
