<svg width="48" height="48" viewBox="0 0 48 48" xmlns="http://www.w3.org/2000/svg">
  <defs>
<radialGradient id="paint0_radial_5481_99453" cx="0" cy="0" r="1" gradientUnits="userSpaceOnUse" gradientTransform="translate(27.1423 1.86319) rotate(90) scale(20.8826)">
<stop offset="0.166667" stop-color="#FF709F"/>
<stop offset="1" stop-color="#FF709F" stop-opacity="0"/>
</radialGradient>
<linearGradient id="paint1_linear_5481_99453" x1="-12.0622" y1="42.8962" x2="65.9766" y2="-4.58198" gradientUnits="userSpaceOnUse">
<stop offset="0.0598452" stop-color="#8480FE"/>
<stop offset="0.599632" stop-color="#8480FE" stop-opacity="0"/>
</linearGradient>
<linearGradient id="paint2_linear_5481_99453" x1="50.5621" y1="8.84253" x2="17.0836" y2="44.8411" gradientUnits="userSpaceOnUse">
<stop stop-color="#EB1000"/>
<stop offset="1" stop-color="#EB1000" stop-opacity="0"/>
</linearGradient>
<linearGradient id="paint3_linear_5481_99453" x1="9.87765" y1="49.8098" x2="69.2259" y2="16.5638" gradientUnits="userSpaceOnUse">
<stop stop-color="#FC7D00" stop-opacity="0"/>
<stop offset="0.432292" stop-color="#FC7D00"/>
<stop offset="0.609375" stop-color="#FC7D00"/>
<stop offset="1" stop-color="#FC7D00" stop-opacity="0"/>
</linearGradient>
<radialGradient id="paint4_radial_5481_99453" cx="0" cy="0" r="1" gradientUnits="userSpaceOnUse" gradientTransform="translate(45.2009 8.67276) rotate(90) scale(20.8826)">
<stop offset="0.166667" stop-color="#EB1000"/>
<stop offset="1" stop-color="#EB1000" stop-opacity="0"/>
</radialGradient>
<clipPath id="clip0_5481_99453">
<rect y="0.000976562" width="48" height="48" rx="5.125" fill="white"/>
</clipPath>
</defs>
<clipPath id="mask0_5481_99453">
<path fill-rule="evenodd" d="M6 12.9004H21.4633L18.6679 9.43623C18.1396 8.78152 17.3397 8.40039 16.4939 8.40039H8.784C7.24644 8.40039 6 9.63608 6 11.1604V12.9004ZM6 15.3004H37.8462C40.1387 15.3004 42 17.1744 42 19.4827V35.418C42 37.7263 40.1387 39.6004 37.8462 39.6004H10.1538C7.86128 39.6004 6 37.7263 6 35.418V15.3004ZM21.6882 23.25C21.4748 23.25 21.3017 23.423 21.3017 23.6365C21.3017 23.7457 21.3454 23.8425 21.4195 23.9143C21.9155 24.3945 21.9283 25.1858 21.4481 25.6818C20.9679 26.1778 20.1765 26.1906 19.6805 25.7104C19.1401 25.1872 18.8017 24.4503 18.8017 23.6365C18.8017 22.0423 20.094 20.75 21.6882 20.75C22.3786 20.75 22.9382 21.3096 22.9382 22C22.9382 22.6904 22.3786 23.25 21.6882 23.25ZM22.7939 24.6471C22.7939 23.1446 24.0119 21.9265 25.5145 21.9265C27.017 21.9265 28.2351 23.1446 28.2351 24.6471C28.2351 26.1496 27.017 27.3677 25.5145 27.3677C24.0119 27.3677 22.7939 26.1496 22.7939 24.6471ZM21.678 27.6655C21.9756 28.2884 21.7118 29.0346 21.0889 29.3322C20.5316 29.5983 20.0969 30.1524 19.9823 30.8271C19.8668 31.5077 19.2214 31.9658 18.5408 31.8503C17.8601 31.7347 17.402 31.0893 17.5176 30.4087C17.767 28.9393 18.7141 27.6959 20.0113 27.0763C20.6343 26.7787 21.3805 27.0425 21.678 27.6655ZM21.0771 31.095C21.5484 29.139 23.4405 27.8088 25.5145 27.8088C27.5886 27.8088 29.4807 29.139 29.952 31.095C30.2544 32.3499 29.1919 33.25 28.1892 33.25H22.8399C21.8371 33.25 20.7747 32.3499 21.0771 31.095Z" fill="white"/>
</clipPath>
<g clip-path="url(#mask0_5481_99453)">
<g clip-path="url(#clip0_5481_99453)">
<rect y="0.000976562" width="48" height="48" rx="5.125" fill="#FFECCF"/>
<rect width="48" height="48" transform="translate(0 0.000976562)" fill="#FFECCF"/>
<circle cx="27.1423" cy="1.86319" r="20.8826" transform="rotate(-0.0800682 27.1423 1.86319)" fill="url(#paint0_radial_5481_99453)"/>
<path d="M18.3213 -8.47761C14.635 -10.7587 9.96439 -10.7727 6.26433 -8.51367L-30.7429 14.0818C-34.3673 16.2947 -34.3733 21.5182 -30.7539 23.7395L6.00883 46.3029C9.70335 48.5701 14.374 48.5674 18.0653 46.2948L54.7523 23.7103C58.3526 21.4937 58.3591 16.2995 54.7632 14.0745L18.3213 -8.47761Z" fill="url(#paint1_linear_5481_99453)"/>
<path d="M6.91632 22.7904C7.73673 4.87054 22.9287 -8.99127 40.8485 -8.17086C58.7683 -7.35045 72.6301 7.8415 71.8097 25.7613C70.9893 43.6811 55.7973 57.5429 37.8775 56.7225C19.9577 55.9021 6.09591 40.7102 6.91632 22.7904Z" fill="url(#paint2_linear_5481_99453)"/>
<path d="M-19.4476 34.6061C-12.3244 31.5673 -4.64218 31.6976 2.01351 34.3556C15.3317 39.6875 23.0811 36.3909 28.456 23.1033C31.1333 16.4355 36.3604 10.7886 43.4915 7.74638C57.7492 1.67334 74.2091 8.26301 80.2736 22.4786C86.338 36.6941 79.7002 53.128 65.4459 59.209C58.2988 62.2581 50.6018 62.1153 43.9359 59.4334C30.6393 54.1299 22.9046 57.439 17.5365 70.7426C14.8525 77.3945 9.62658 83.022 2.50343 86.0608C-11.7429 92.1384 -28.2028 85.5488 -34.2639 71.3412C-40.3249 57.1336 -33.6939 40.6837 -19.4476 34.6061Z" fill="url(#paint3_linear_5481_99453)"/>
<circle cx="45.2009" cy="8.67276" r="20.8826" transform="rotate(-0.0800682 45.2009 8.67276)" fill="url(#paint4_radial_5481_99453)"/>
</g>
</g>

</svg>
