<svg width="160" height="160" viewBox="0 0 160 160" xmlns="http://www.w3.org/2000/svg">
  <defs>
<radialGradient id="paint0_radial_5481_89997" cx="0" cy="0" r="1" gradientUnits="userSpaceOnUse" gradientTransform="translate(90.4677 6.20574) rotate(90) scale(69.6088)">
<stop offset="0.166667" stop-color="#FF709F"/>
<stop offset="1" stop-color="#FF709F" stop-opacity="0"/>
</radialGradient>
<linearGradient id="paint1_linear_5481_89997" x1="-40.2086" y1="142.983" x2="219.921" y2="-15.2772" gradientUnits="userSpaceOnUse">
<stop offset="0.0598452" stop-color="#8480FE"/>
<stop offset="0.599632" stop-color="#8480FE" stop-opacity="0"/>
</linearGradient>
<linearGradient id="paint2_linear_5481_89997" x1="168.544" y1="29.4718" x2="56.9494" y2="149.467" gradientUnits="userSpaceOnUse">
<stop stop-color="#EB1000"/>
<stop offset="1" stop-color="#EB1000" stop-opacity="0"/>
</linearGradient>
<linearGradient id="paint3_linear_5481_89997" x1="32.9255" y1="166.029" x2="230.753" y2="55.2086" gradientUnits="userSpaceOnUse">
<stop stop-color="#FC7D00" stop-opacity="0"/>
<stop offset="0.432292" stop-color="#FC7D00"/>
<stop offset="0.609375" stop-color="#FC7D00"/>
<stop offset="1" stop-color="#FC7D00" stop-opacity="0"/>
</linearGradient>
<radialGradient id="paint4_radial_5481_89997" cx="0" cy="0" r="1" gradientUnits="userSpaceOnUse" gradientTransform="translate(150.675 28.9059) rotate(90) scale(69.6088)">
<stop offset="0.166667" stop-color="#EB1000"/>
<stop offset="1" stop-color="#EB1000" stop-opacity="0"/>
</radialGradient>
<clipPath id="clip0_5481_89997">
<rect width="160" height="160" rx="5.125" fill="white"/>
</clipPath>
</defs>
<clipPath id="mask0_5481_89997">
<path fill-rule="evenodd" d="M80 20C82.2091 20 84 21.7909 84 24V31.9381C84 34.1472 82.2091 35.9381 80 35.9381C77.7909 35.9381 76 34.1472 76 31.9381V24C76 21.7909 77.7909 20 80 20ZM108.283 80.0024C108.283 95.6231 95.6201 108.286 79.9995 108.286C64.3788 108.286 51.7158 95.6231 51.7158 80.0024C51.7158 64.3818 64.3788 51.7188 79.9995 51.7188C95.6201 51.7188 108.283 64.3818 108.283 80.0024ZM84.0002 128.062C84.0002 125.853 82.2094 124.062 80.0002 124.062C77.7911 124.062 76.0002 125.853 76.0002 128.062V136C76.0002 138.209 77.7911 140 80.0002 140C82.2094 140 84.0002 138.209 84.0002 136V128.062ZM140 80C140 82.2091 138.209 84 136 84H128.062C125.853 84 124.062 82.2091 124.062 80C124.062 77.7909 125.853 76 128.062 76H136C138.209 76 140 77.7909 140 80ZM31.9381 84C34.1472 84 35.9381 82.2091 35.9381 80C35.9381 77.7909 34.1472 76 31.9381 76H24C21.7909 76 20 77.7909 20 80C20 82.2091 21.7909 84 24 84H31.9381ZM122.426 37.573C123.988 39.1351 123.988 41.6678 122.426 43.2299L116.813 48.8429C115.251 50.405 112.718 50.405 111.156 48.8429C109.594 47.2808 109.594 44.7482 111.156 43.1861L116.769 37.573C118.331 36.0109 120.864 36.0109 122.426 37.573ZM48.8426 116.813C50.4047 115.251 50.4047 112.718 48.8426 111.156C47.2805 109.594 44.7479 109.594 43.1858 111.156L37.5727 116.769C36.0106 118.332 36.0106 120.864 37.5727 122.426C39.1348 123.988 41.6674 123.988 43.2295 122.426L48.8426 116.813ZM37.5723 37.5711C36.0102 39.1332 36.0102 41.6659 37.5723 43.228L43.1854 48.8411C44.7475 50.4031 47.2802 50.4031 48.8423 48.8411C50.4044 47.279 50.4044 44.7463 48.8423 43.1842L43.2292 37.5711C41.6671 36.009 39.1344 36.009 37.5723 37.5711ZM111.156 116.811C109.594 115.249 109.594 112.717 111.156 111.154C112.718 109.592 115.251 109.592 116.813 111.154L122.426 116.768C123.988 118.33 123.988 120.862 122.426 122.424C120.864 123.987 118.331 123.987 116.769 122.424L111.156 116.811Z" fill="white"/>
</clipPath>
<g clip-path="url(#mask0_5481_89997)">
<g clip-path="url(#clip0_5481_89997)">
<rect width="160" height="160" rx="5.125" fill="#FFECCF"/>
<rect width="160" height="160" fill="#FFECCF"/>
<circle cx="90.4677" cy="6.20574" r="69.6087" transform="rotate(-0.0800682 90.4677 6.20574)" fill="url(#paint0_radial_5481_89997)"/>
<path d="M61.0698 -28.2626C48.782 -35.8663 33.2133 -35.9129 20.8798 -28.3828L-102.478 46.9353C-114.559 54.3119 -114.579 71.7234 -102.514 79.1279L20.0281 154.339C32.3432 161.896 47.9119 161.887 60.2163 154.312L182.506 79.0306C194.507 71.6419 194.529 54.3277 182.543 46.9111L61.0698 -28.2626Z" fill="url(#paint1_linear_5481_89997)"/>
<path d="M23.0583 75.9646C25.793 16.2319 76.4328 -29.9741 136.166 -27.2395C195.898 -24.5048 242.104 26.1351 239.37 85.8678C236.635 145.601 185.995 191.807 126.262 189.072C66.5296 186.337 20.3236 135.697 23.0583 75.9646Z" fill="url(#paint2_linear_5481_89997)"/>
<path d="M-64.8253 115.35C-41.0814 105.221 -15.474 105.655 6.71169 114.515C51.1056 132.288 76.9371 121.299 94.8534 77.0069C103.778 54.7811 121.201 35.958 144.972 25.8174C192.497 5.57391 247.364 27.5395 267.579 74.9246C287.793 122.31 265.667 177.09 218.153 197.36C194.329 207.523 168.673 207.047 146.453 198.107C102.131 180.429 76.3488 191.459 58.4551 235.805C49.5082 257.978 32.0886 276.736 8.34476 286.866C-39.1429 307.124 -94.0093 285.159 -114.213 237.8C-134.416 190.441 -112.313 135.609 -64.8253 115.35Z" fill="url(#paint3_linear_5481_89997)"/>
<circle cx="150.675" cy="28.9059" r="69.6087" transform="rotate(-0.0800682 150.675 28.9059)" fill="url(#paint4_radial_5481_89997)"/>
</g>
</g>

</svg>
