<svg width="48" height="48" viewBox="0 0 48 48" xmlns="http://www.w3.org/2000/svg">
  <defs>
<radialGradient id="paint0_radial_5481_99435" cx="0" cy="0" r="1" gradientUnits="userSpaceOnUse" gradientTransform="translate(17.0977 16.1176) rotate(90) scale(16.1176 17.0977)">
<stop offset="0.166667" stop-color="#FF709F"/>
<stop offset="1" stop-color="#FF709F" stop-opacity="0"/>
</radialGradient>
<linearGradient id="paint1_linear_5481_99435" x1="-5.67575" y1="39.7068" x2="56.1264" y2="-0.179651" gradientUnits="userSpaceOnUse">
<stop offset="0.0598452" stop-color="#8480FE"/>
<stop offset="0.599632" stop-color="#8480FE" stop-opacity="0"/>
</linearGradient>
<linearGradient id="paint2_linear_5481_99435" x1="45.5971" y1="13.4233" x2="19.9125" y2="42.7208" gradientUnits="userSpaceOnUse">
<stop stop-color="#EB1000"/>
<stop offset="1" stop-color="#EB1000" stop-opacity="0"/>
</linearGradient>
<linearGradient id="paint3_linear_5481_99435" x1="12.2871" y1="45.0428" x2="59.4664" y2="17.0065" gradientUnits="userSpaceOnUse">
<stop stop-color="#FC7D00" stop-opacity="0"/>
<stop offset="0.432292" stop-color="#FC7D00"/>
<stop offset="0.609375" stop-color="#FC7D00"/>
<stop offset="1" stop-color="#FC7D00" stop-opacity="0"/>
</linearGradient>
<radialGradient id="paint4_radial_5481_99435" cx="0" cy="0" r="1" gradientUnits="userSpaceOnUse" gradientTransform="translate(17.0977 16.1176) rotate(90) scale(16.1176 17.0977)">
<stop offset="0.166667" stop-color="#EB1000"/>
<stop offset="1" stop-color="#EB1000" stop-opacity="0"/>
</radialGradient>
<clipPath id="clip0_5481_99435">
<rect x="4.19922" y="6.59961" width="39.3001" height="37.0472" rx="1.03837" fill="white"/>
</clipPath>
</defs>
<clipPath id="mask0_5481_99435">
<path fill-rule="evenodd" d="M27.0926 6.50391H36.6836C39.3345 6.50391 41.4836 8.65294 41.4836 11.3039V20.8949C41.4836 23.5459 39.3345 25.6949 36.6836 25.6949H27.0926C24.4416 25.6949 22.2926 23.5459 22.2926 20.8949V11.3039C22.2926 8.65294 24.4416 6.50391 27.0926 6.50391ZM10.7156 12.3419H15.6716C17.9912 12.3419 19.8716 14.2223 19.8716 16.5419V21.4979C19.8716 23.8175 17.9912 25.6979 15.6716 25.6979H10.7156C8.39603 25.6979 6.51562 23.8175 6.51562 21.4979V16.5419C6.51562 14.2223 8.39603 12.3419 10.7156 12.3419ZM15.6716 28.1399H10.7156C8.39603 28.1399 6.51562 30.0203 6.51562 32.3399V37.2959C6.51562 39.6155 8.39603 41.4959 10.7156 41.4959H15.6716C17.9912 41.4959 19.8716 39.6155 19.8716 37.2959V32.3399C19.8716 30.0203 17.9912 28.1399 15.6716 28.1399ZM26.4926 28.1399H31.4486C33.7682 28.1399 35.6486 30.0203 35.6486 32.3399V37.2959C35.6486 39.6155 33.7682 41.4959 31.4486 41.4959H26.4926C24.173 41.4959 22.2926 39.6155 22.2926 37.2959V32.3399C22.2926 30.0203 24.173 28.1399 26.4926 28.1399Z" fill="white"/>
</clipPath>
<g clip-path="url(#mask0_5481_99435)">
<g clip-path="url(#clip0_5481_99435)">
<rect x="4.19922" y="6.59961" width="39.3001" height="37.0472" rx="1.03837" fill="#FFECCF"/>
<rect width="39.3001" height="37.0472" transform="translate(4.19922 6.59961)" fill="#FFECCF"/>
<ellipse cx="17.0977" cy="16.1176" rx="17.0977" ry="16.1176" transform="matrix(0.999999 -0.00131734 0.00148243 0.999999 9.30078 -8.05859)" fill="url(#paint0_radial_5481_99435)"/>
<path d="M19.2008 0.0555547C16.1826 -1.70505 12.3586 -1.71583 9.32914 0.0277204L-20.9706 17.4673C-23.9381 19.1753 -23.9431 23.2068 -20.9796 24.9213L9.11995 42.3361C12.1448 44.086 15.9689 44.0839 18.9912 42.3299L49.0287 24.8988C51.9765 23.188 51.9819 19.1789 49.0377 17.4617L19.2008 0.0555547Z" fill="url(#paint1_linear_5481_99435)"/>
<path d="M9.86196 24.1884C10.5337 10.3576 22.9721 -0.341174 37.644 0.292032C52.3159 0.925238 63.6653 12.6507 62.9936 26.4815C62.3219 40.3123 49.8834 51.0111 35.2115 50.3779C20.5396 49.7447 9.19025 38.0193 9.86196 24.1884Z" fill="url(#paint2_linear_5481_99435)"/>
<path d="M-11.723 33.3084C-5.89086 30.963 0.398996 31.0635 5.84836 33.115C16.7527 37.2302 23.0975 34.6859 27.4982 24.4302C29.6903 19.284 33.9699 14.9256 39.8086 12.5775C51.4821 7.89025 64.9587 12.9763 69.924 23.9481C74.8893 34.9199 69.4545 47.6039 57.7838 52.2973C51.9321 54.6506 45.6301 54.5404 40.1724 52.4705C29.2858 48.3772 22.953 50.9312 18.5579 61.1992C16.3603 66.3331 12.0816 70.6766 6.24949 73.022C-5.41472 77.7128 -18.8913 72.6268 -23.8538 61.6611C-28.8163 50.6955 -23.3872 37.9992 -11.723 33.3084Z" fill="url(#paint3_linear_5481_99435)"/>
<ellipse cx="17.0977" cy="16.1176" rx="17.0977" ry="16.1176" transform="matrix(0.999999 -0.00131734 0.00148243 0.999999 24.0859 -2.80273)" fill="url(#paint4_radial_5481_99435)"/>
</g>
</g>

</svg>
