<svg width="48" height="48" viewBox="0 0 48 48" xmlns="http://www.w3.org/2000/svg">
  <defs>
<radialGradient id="paint0_radial_5481_99548" cx="0" cy="0" r="1" gradientUnits="userSpaceOnUse" gradientTransform="translate(27.1423 1.86222) rotate(90) scale(20.8826)">
<stop offset="0.166667" stop-color="#FF709F"/>
<stop offset="1" stop-color="#FF709F" stop-opacity="0"/>
</radialGradient>
<linearGradient id="paint1_linear_5481_99548" x1="-12.0622" y1="42.8952" x2="65.9766" y2="-4.58296" gradientUnits="userSpaceOnUse">
<stop offset="0.0598452" stop-color="#8480FE"/>
<stop offset="0.599632" stop-color="#8480FE" stop-opacity="0"/>
</linearGradient>
<linearGradient id="paint2_linear_5481_99548" x1="50.5621" y1="8.84155" x2="17.0836" y2="44.8401" gradientUnits="userSpaceOnUse">
<stop stop-color="#EB1000"/>
<stop offset="1" stop-color="#EB1000" stop-opacity="0"/>
</linearGradient>
<linearGradient id="paint3_linear_5481_99548" x1="9.87765" y1="49.8089" x2="69.2259" y2="16.5628" gradientUnits="userSpaceOnUse">
<stop stop-color="#FC7D00" stop-opacity="0"/>
<stop offset="0.432292" stop-color="#FC7D00"/>
<stop offset="0.609375" stop-color="#FC7D00"/>
<stop offset="1" stop-color="#FC7D00" stop-opacity="0"/>
</linearGradient>
<radialGradient id="paint4_radial_5481_99548" cx="0" cy="0" r="1" gradientUnits="userSpaceOnUse" gradientTransform="translate(45.2009 8.67178) rotate(90) scale(20.8826)">
<stop offset="0.166667" stop-color="#EB1000"/>
<stop offset="1" stop-color="#EB1000" stop-opacity="0"/>
</radialGradient>
<clipPath id="clip0_5481_99548">
<rect width="48" height="48" rx="5.125" fill="white"/>
</clipPath>
</defs>
<clipPath id="mask0_5481_99548">
<path fill-rule="evenodd" d="M35.9699 17.516C37.1796 17.141 38.2647 16.6946 39.1515 16.1735V18.4064C39.1312 18.5519 39.0026 18.875 38.3765 19.3339C37.7023 19.8281 36.6466 20.3256 35.2296 20.7649C32.4106 21.6389 28.4399 22.1985 23.9994 22.1985C19.5589 22.1985 15.5882 21.6389 12.7692 20.7649C11.3522 20.3256 10.2965 19.8281 9.62227 19.3339C8.99942 18.8774 8.86888 18.5552 8.84766 18.4087V16.1737C9.73438 16.6947 10.8194 17.141 12.0289 17.516C15.1475 18.4829 19.3795 19.0618 23.9994 19.0618C28.6193 19.0618 32.8512 18.4829 35.9699 17.516ZM39.151 12.7727C39.1028 10.6174 32.3376 8.87402 23.9994 8.87402C15.6613 8.87402 8.89621 10.6173 8.84775 12.7726C8.86927 12.9194 9.00034 13.2413 9.62227 13.6972C10.2965 14.1914 11.3522 14.6888 12.7692 15.1282C15.5882 16.0021 19.5589 16.5618 23.9994 16.5618C28.4399 16.5618 32.4106 16.0021 35.2296 15.1282C36.6466 14.6888 37.7023 14.1914 38.3765 13.6972C38.9983 13.2414 39.1295 12.9196 39.151 12.7727ZM39.1515 21.8102C38.2647 22.3313 37.1796 22.7777 35.9699 23.1528C32.8512 24.1196 28.6193 24.6985 23.9994 24.6985C19.3795 24.6985 15.1475 24.1196 12.0289 23.1528C10.8194 22.7778 9.73438 22.3314 8.84766 21.8104V24.0454C8.86888 24.1919 8.99942 24.5141 9.62227 24.9707C10.2965 25.4649 11.3522 25.9623 12.7692 26.4016C15.5882 27.2756 19.5589 27.8353 23.9994 27.8353C28.4399 27.8353 32.4106 27.2756 35.2296 26.4016C36.6466 25.9623 37.7023 25.4649 38.3765 24.9707C39.0026 24.5118 39.1312 24.1886 39.1515 24.0431V21.8102ZM8.84766 29.7133V27.4471C9.73438 27.9681 10.8194 28.4145 12.0289 28.7895C15.1475 29.7564 19.3795 30.3353 23.9994 30.3353C28.6193 30.3353 32.8512 29.7564 35.9699 28.7895C37.1796 28.4144 38.2647 27.968 39.1515 27.447V29.7111C39.1312 29.8566 39.0026 30.1797 38.3765 30.6386C37.7023 31.1328 36.6466 31.6302 35.2296 32.0696C32.4106 32.9435 28.4399 33.5032 23.9994 33.5032C19.5589 33.5032 15.5882 32.9435 12.7692 32.0696C11.3522 31.6302 10.2965 31.1328 9.62227 30.6386C8.99942 30.1821 8.86888 29.8599 8.84766 29.7133ZM8.84766 33.1151V35.3274C9.25 37.3274 16.4457 39.1249 23.8497 39.1249C29.6924 39.1249 37.7656 38.0305 39.1515 35.3899V33.1149C38.2647 33.636 37.1796 34.0824 35.9699 34.4574C32.8512 35.4243 28.6193 36.0032 23.9994 36.0032C19.3795 36.0032 15.1475 35.4243 12.0289 34.4574C10.8194 34.0824 9.73438 33.6361 8.84766 33.1151Z" fill="white"/>
</clipPath>
<g clip-path="url(#mask0_5481_99548)">
<g clip-path="url(#clip0_5481_99548)">
<rect width="48" height="48" rx="5.125" fill="#FFECCF"/>
<rect width="48" height="48" fill="#FFECCF"/>
<circle cx="27.1423" cy="1.86221" r="20.8826" transform="rotate(-0.0800682 27.1423 1.86221)" fill="url(#paint0_radial_5481_99548)"/>
<path d="M18.3213 -8.47858C14.635 -10.7597 9.96439 -10.7737 6.26433 -8.51465L-30.7429 14.0808C-34.3673 16.2938 -34.3733 21.5172 -30.7539 23.7386L6.00883 46.302C9.70335 48.5691 14.374 48.5664 18.0653 46.2939L54.7523 23.7094C58.3526 21.4928 58.3591 16.2985 54.7632 14.0735L18.3213 -8.47858Z" fill="url(#paint1_linear_5481_99548)"/>
<path d="M6.91632 22.7894C7.73673 4.86956 22.9287 -8.99224 40.8485 -8.17184C58.7683 -7.35143 72.6301 7.84053 71.8097 25.7603C70.9893 43.6802 55.7973 57.542 37.8775 56.7215C19.9577 55.9011 6.09591 40.7092 6.91632 22.7894Z" fill="url(#paint2_linear_5481_99548)"/>
<path d="M-19.4476 34.6052C-12.3244 31.5664 -4.64218 31.6967 2.01351 34.3546C15.3317 39.6865 23.0811 36.39 28.456 23.1023C31.1333 16.4345 36.3604 10.7876 43.4915 7.74541C57.7492 1.67237 74.2091 8.26203 80.2736 22.4776C86.338 36.6931 79.7002 53.1271 65.4459 59.2081C58.2988 62.2571 50.6018 62.1143 43.9359 59.4324C30.6393 54.129 22.9046 57.438 17.5365 70.7417C14.8525 77.3935 9.62658 83.0211 2.50343 86.0599C-11.7429 92.1375 -28.2028 85.5478 -34.2639 71.3402C-40.3249 57.1326 -33.6939 40.6828 -19.4476 34.6052Z" fill="url(#paint3_linear_5481_99548)"/>
<circle cx="45.2009" cy="8.67178" r="20.8826" transform="rotate(-0.0800682 45.2009 8.67178)" fill="url(#paint4_radial_5481_99548)"/>
</g>
</g>

</svg>
