<svg width="48" height="48" viewBox="0 0 48 48" xmlns="http://www.w3.org/2000/svg">
  <defs>
<radialGradient id="paint0_radial_5481_99693" cx="0" cy="0" r="1" gradientUnits="userSpaceOnUse" gradientTransform="translate(27.1423 1.86222) rotate(90) scale(20.8826)">
<stop offset="0.166667" stop-color="#FF709F"/>
<stop offset="1" stop-color="#FF709F" stop-opacity="0"/>
</radialGradient>
<linearGradient id="paint1_linear_5481_99693" x1="-12.0622" y1="42.8952" x2="65.9766" y2="-4.58296" gradientUnits="userSpaceOnUse">
<stop offset="0.0598452" stop-color="#8480FE"/>
<stop offset="0.599632" stop-color="#8480FE" stop-opacity="0"/>
</linearGradient>
<linearGradient id="paint2_linear_5481_99693" x1="50.5621" y1="8.84155" x2="17.0836" y2="44.8401" gradientUnits="userSpaceOnUse">
<stop stop-color="#EB1000"/>
<stop offset="1" stop-color="#EB1000" stop-opacity="0"/>
</linearGradient>
<linearGradient id="paint3_linear_5481_99693" x1="9.87765" y1="49.8089" x2="69.2259" y2="16.5628" gradientUnits="userSpaceOnUse">
<stop stop-color="#FC7D00" stop-opacity="0"/>
<stop offset="0.432292" stop-color="#FC7D00"/>
<stop offset="0.609375" stop-color="#FC7D00"/>
<stop offset="1" stop-color="#FC7D00" stop-opacity="0"/>
</linearGradient>
<radialGradient id="paint4_radial_5481_99693" cx="0" cy="0" r="1" gradientUnits="userSpaceOnUse" gradientTransform="translate(45.2009 8.67178) rotate(90) scale(20.8826)">
<stop offset="0.166667" stop-color="#EB1000"/>
<stop offset="1" stop-color="#EB1000" stop-opacity="0"/>
</radialGradient>
<clipPath id="clip0_5481_99693">
<rect width="48" height="48" rx="5.125" fill="white"/>
</clipPath>
</defs>
<clipPath id="mask0_5481_99693">
<path fill-rule="evenodd" d="M38.1897 20.9989L43.4972 15.6914C43.9853 15.2032 43.9853 14.4118 43.4972 13.9236L38.1897 8.61612C37.7015 8.12796 36.91 8.12796 36.4219 8.61612C35.9337 9.10427 35.9337 9.89573 36.4219 10.3839L39.4931 13.4551H37.7045C35.1871 13.4551 32.8642 14.3031 31.0108 15.7284C30.9824 15.7503 30.9552 15.7731 30.9293 15.7968C30.9174 15.8054 30.9057 15.8143 30.894 15.8235C29.5295 16.8948 28.2615 18.4479 27.2721 19.8659C26.278 21.2908 25.4986 22.6761 25.1327 23.4837C24.8498 24.108 24.1489 25.5927 23.2218 27.1516C22.4233 28.4945 21.5163 29.7892 20.6218 30.6594C20.5936 30.6809 20.5661 30.7039 20.5393 30.7282C19.031 32.0988 17.0306 32.9326 14.8325 32.9326C10.1443 32.9326 6.34375 29.1321 6.34375 24.4438C6.34375 19.7556 10.1443 15.9551 14.8325 15.9551C17.6993 15.9551 20.2346 17.375 21.7735 19.5555L21.7735 19.5555L21.7779 19.5618L22.2292 20.1928C22.6307 20.7544 23.4114 20.8841 23.973 20.4826C24.5346 20.0811 24.6643 19.3003 24.2628 18.7388L23.8138 18.1108C21.8263 15.2968 18.5445 13.4551 14.8325 13.4551C8.76359 13.4551 3.84375 18.3749 3.84375 24.4438C3.84375 30.5128 8.76359 35.4326 14.8325 35.4326C17.345 35.4326 19.6624 34.5882 21.5134 33.169C21.5677 33.1382 21.6203 33.1029 21.6708 33.0631C23.105 31.932 24.3988 30.0635 25.3706 28.4295C26.363 26.7606 27.1068 25.1843 27.4098 24.5155C27.6984 23.8785 28.394 22.6271 29.3224 21.2964C30.2556 19.959 31.3576 18.6379 32.4379 17.7898C32.4627 17.7703 32.4865 17.7501 32.5095 17.7292C32.518 17.723 32.5264 17.7166 32.5349 17.7102C33.9666 16.6091 35.7574 15.9551 37.7045 15.9551H39.6979L36.4219 19.2311C35.9337 19.7193 35.9337 20.5107 36.4219 20.9989C36.91 21.4871 37.7015 21.4871 38.1897 20.9989ZM40.4037 35.4326C41.0941 35.4326 41.6537 34.873 41.6537 34.1826C41.6537 33.4923 41.0941 32.9326 40.4037 32.9326H37.7045C34.9059 32.9326 32.6267 31.3244 30.6143 29.1298L30.0868 28.4924C29.6467 27.9605 28.8587 27.8861 28.3268 28.3262C27.7949 28.7663 27.7206 29.5543 28.1607 30.0862L28.7081 30.7478L28.7279 30.7716L28.7488 30.7945C30.9346 33.1846 33.8432 35.4326 37.7045 35.4326H40.4037Z" fill="white"/>
</clipPath>
<g clip-path="url(#mask0_5481_99693)">
<g clip-path="url(#clip0_5481_99693)">
<rect width="48" height="48" rx="5.125" fill="#FFECCF"/>
<rect width="48" height="48" fill="#FFECCF"/>
<circle cx="27.1423" cy="1.86221" r="20.8826" transform="rotate(-0.0800682 27.1423 1.86221)" fill="url(#paint0_radial_5481_99693)"/>
<path d="M18.3213 -8.47858C14.635 -10.7597 9.96439 -10.7737 6.26433 -8.51465L-30.7429 14.0808C-34.3673 16.2938 -34.3733 21.5172 -30.7539 23.7386L6.00883 46.302C9.70335 48.5691 14.374 48.5664 18.0653 46.2939L54.7523 23.7094C58.3526 21.4928 58.3591 16.2985 54.7632 14.0735L18.3213 -8.47858Z" fill="url(#paint1_linear_5481_99693)"/>
<path d="M6.91632 22.7894C7.73673 4.86956 22.9287 -8.99224 40.8485 -8.17184C58.7683 -7.35143 72.6301 7.84053 71.8097 25.7603C70.9893 43.6802 55.7973 57.542 37.8775 56.7215C19.9577 55.9011 6.09591 40.7092 6.91632 22.7894Z" fill="url(#paint2_linear_5481_99693)"/>
<path d="M-19.4476 34.6052C-12.3244 31.5664 -4.64218 31.6967 2.01351 34.3546C15.3317 39.6865 23.0811 36.39 28.456 23.1023C31.1333 16.4345 36.3604 10.7876 43.4915 7.74541C57.7492 1.67237 74.2091 8.26203 80.2736 22.4776C86.338 36.6931 79.7002 53.1271 65.4459 59.2081C58.2988 62.2571 50.6018 62.1143 43.9359 59.4324C30.6393 54.129 22.9046 57.438 17.5365 70.7417C14.8525 77.3935 9.62658 83.0211 2.50343 86.0599C-11.7429 92.1375 -28.2028 85.5478 -34.2639 71.3402C-40.3249 57.1326 -33.6939 40.6828 -19.4476 34.6052Z" fill="url(#paint3_linear_5481_99693)"/>
<circle cx="45.2009" cy="8.67178" r="20.8826" transform="rotate(-0.0800682 45.2009 8.67178)" fill="url(#paint4_radial_5481_99693)"/>
</g>
</g>

</svg>
