<svg width="160" height="160" viewBox="0 0 160 160" xmlns="http://www.w3.org/2000/svg">
  <defs>
<radialGradient id="paint0_radial_5481_89969" cx="0" cy="0" r="1" gradientUnits="userSpaceOnUse" gradientTransform="translate(90.4677 6.20574) rotate(90) scale(69.6088)">
<stop offset="0.166667" stop-color="#FF709F"/>
<stop offset="1" stop-color="#FF709F" stop-opacity="0"/>
</radialGradient>
<linearGradient id="paint1_linear_5481_89969" x1="-40.2086" y1="142.983" x2="219.921" y2="-15.2772" gradientUnits="userSpaceOnUse">
<stop offset="0.0598452" stop-color="#8480FE"/>
<stop offset="0.599632" stop-color="#8480FE" stop-opacity="0"/>
</linearGradient>
<linearGradient id="paint2_linear_5481_89969" x1="168.544" y1="29.4718" x2="56.9494" y2="149.467" gradientUnits="userSpaceOnUse">
<stop stop-color="#EB1000"/>
<stop offset="1" stop-color="#EB1000" stop-opacity="0"/>
</linearGradient>
<linearGradient id="paint3_linear_5481_89969" x1="32.9255" y1="166.029" x2="230.753" y2="55.2086" gradientUnits="userSpaceOnUse">
<stop stop-color="#FC7D00" stop-opacity="0"/>
<stop offset="0.432292" stop-color="#FC7D00"/>
<stop offset="0.609375" stop-color="#FC7D00"/>
<stop offset="1" stop-color="#FC7D00" stop-opacity="0"/>
</linearGradient>
<radialGradient id="paint4_radial_5481_89969" cx="0" cy="0" r="1" gradientUnits="userSpaceOnUse" gradientTransform="translate(150.675 28.9059) rotate(90) scale(69.6088)">
<stop offset="0.166667" stop-color="#EB1000"/>
<stop offset="1" stop-color="#EB1000" stop-opacity="0"/>
</radialGradient>
<clipPath id="clip0_5481_89969">
<rect width="160" height="160" rx="5.125" fill="white"/>
</clipPath>
</defs>
<clipPath id="mask0_5481_89969">
<path fill-rule="evenodd" d="M120.63 81.15C125.18 77.16 130.12 72.82 131.97 65.17C136.73 45.4 115.88 24.5 84.61 24.5C53.34 24.5 28 50.09 28 81.66C28 113.23 57.16 136.07 88.42 136.07C105.61 136.07 131.97 125.63 130.33 113.54C129.33 106.14 124.46 105.18 119.95 104.3C116.08 103.54 112.48 102.83 111.82 98.16C110.65 89.92 115.37 85.77 120.62 81.17L120.63 81.15ZM61.33 106.91C55.81 106.91 51.33 102.43 51.33 96.91C51.33 91.39 55.81 86.91 61.33 86.91C66.85 86.91 71.33 91.39 71.33 96.91C71.33 102.43 66.85 106.91 61.33 106.91ZM61.33 74.35C55.81 74.35 51.33 69.87 51.33 64.35C51.33 58.83 55.81 54.35 61.33 54.35C66.85 54.35 71.33 58.83 71.33 64.35C71.33 69.87 66.85 74.35 61.33 74.35ZM86.33 121.16C80.81 121.16 76.33 116.68 76.33 111.16C76.33 105.64 80.81 101.16 86.33 101.16C91.85 101.16 96.33 105.64 96.33 111.16C96.33 116.68 91.85 121.16 86.33 121.16ZM86.33 61.16C80.81 61.16 76.33 56.68 76.33 51.16C76.33 45.64 80.81 41.16 86.33 41.16C91.85 41.16 96.33 45.64 96.33 51.16C96.33 56.68 91.85 61.16 86.33 61.16Z" fill="#292929"/>
</clipPath>
<g clip-path="url(#mask0_5481_89969)">
<g clip-path="url(#clip0_5481_89969)">
<rect width="160" height="160" rx="5.125" fill="#FFECCF"/>
<rect width="160" height="160" fill="#FFECCF"/>
<circle cx="90.4677" cy="6.20574" r="69.6087" transform="rotate(-0.0800682 90.4677 6.20574)" fill="url(#paint0_radial_5481_89969)"/>
<path d="M61.0698 -28.2626C48.782 -35.8663 33.2133 -35.9129 20.8798 -28.3828L-102.478 46.9353C-114.559 54.3119 -114.579 71.7234 -102.514 79.1279L20.0281 154.339C32.3432 161.896 47.9119 161.887 60.2163 154.312L182.506 79.0306C194.507 71.6419 194.529 54.3277 182.543 46.9111L61.0698 -28.2626Z" fill="url(#paint1_linear_5481_89969)"/>
<path d="M23.0583 75.9646C25.793 16.2319 76.4328 -29.9741 136.166 -27.2395C195.898 -24.5048 242.104 26.1351 239.37 85.8678C236.635 145.601 185.995 191.807 126.262 189.072C66.5296 186.337 20.3236 135.697 23.0583 75.9646Z" fill="url(#paint2_linear_5481_89969)"/>
<path d="M-64.8253 115.35C-41.0814 105.221 -15.474 105.655 6.71169 114.515C51.1056 132.288 76.9371 121.299 94.8534 77.0069C103.778 54.7811 121.201 35.958 144.972 25.8174C192.497 5.57391 247.364 27.5395 267.579 74.9246C287.793 122.31 265.667 177.09 218.153 197.36C194.329 207.523 168.673 207.047 146.453 198.107C102.131 180.429 76.3488 191.459 58.4551 235.805C49.5082 257.978 32.0886 276.736 8.34476 286.866C-39.1429 307.124 -94.0093 285.159 -114.213 237.8C-134.416 190.441 -112.313 135.609 -64.8253 115.35Z" fill="url(#paint3_linear_5481_89969)"/>
<circle cx="150.675" cy="28.9059" r="69.6087" transform="rotate(-0.0800682 150.675 28.9059)" fill="url(#paint4_radial_5481_89969)"/>
</g>
</g>

</svg>
