<svg width="48" height="48" viewBox="0 0 48 48" xmlns="http://www.w3.org/2000/svg">
  <defs>
<radialGradient id="paint0_radial_5481_99512" cx="0" cy="0" r="1" gradientUnits="userSpaceOnUse" gradientTransform="translate(27.1423 1.86222) rotate(90) scale(20.8826)">
<stop offset="0.166667" stop-color="#FF709F"/>
<stop offset="1" stop-color="#FF709F" stop-opacity="0"/>
</radialGradient>
<linearGradient id="paint1_linear_5481_99512" x1="-12.0622" y1="42.8952" x2="65.9766" y2="-4.58296" gradientUnits="userSpaceOnUse">
<stop offset="0.0598452" stop-color="#8480FE"/>
<stop offset="0.599632" stop-color="#8480FE" stop-opacity="0"/>
</linearGradient>
<linearGradient id="paint2_linear_5481_99512" x1="50.5621" y1="8.84155" x2="17.0836" y2="44.8401" gradientUnits="userSpaceOnUse">
<stop stop-color="#EB1000"/>
<stop offset="1" stop-color="#EB1000" stop-opacity="0"/>
</linearGradient>
<linearGradient id="paint3_linear_5481_99512" x1="9.87765" y1="49.8089" x2="69.2259" y2="16.5628" gradientUnits="userSpaceOnUse">
<stop stop-color="#FC7D00" stop-opacity="0"/>
<stop offset="0.432292" stop-color="#FC7D00"/>
<stop offset="0.609375" stop-color="#FC7D00"/>
<stop offset="1" stop-color="#FC7D00" stop-opacity="0"/>
</linearGradient>
<radialGradient id="paint4_radial_5481_99512" cx="0" cy="0" r="1" gradientUnits="userSpaceOnUse" gradientTransform="translate(45.2009 8.67178) rotate(90) scale(20.8826)">
<stop offset="0.166667" stop-color="#EB1000"/>
<stop offset="1" stop-color="#EB1000" stop-opacity="0"/>
</radialGradient>
<clipPath id="clip0_5481_99512">
<rect width="48" height="48" rx="5.125" fill="white"/>
</clipPath>
</defs>
<clipPath id="mask0_5481_99512">
<path fill-rule="evenodd" d="M18.9284 12.6765L25.6588 19.4069L23.7168 23.1494C23.2777 23.9956 22.5509 24.6572 21.6672 25.0149L10.9254 29.3631C10.7149 29.4483 10.5046 29.483 10.3031 29.4758L17.0998 22.6791C17.5579 22.6872 18.0187 22.5165 18.3683 22.1669C19.0517 21.4834 19.0517 20.3754 18.3683 19.692C17.6849 19.0086 16.5768 19.0086 15.8934 19.692C15.569 20.0163 15.3986 20.4364 15.3822 20.8612L9.06641 27.177L13.3204 16.6681C13.6781 15.7844 14.3396 15.0575 15.1858 14.6185L18.9284 12.6765ZM28.6307 15.8794L27.1488 17.3613L20.9685 11.181L22.4504 9.69907C23.2314 8.91802 24.4978 8.91802 25.2788 9.69907L28.6307 13.0509C29.4117 13.832 29.4117 15.0983 28.6307 15.8794ZM20.2101 34.2299C19.1995 36.4305 18.851 37.1895 16.9935 38.6357L16.9931 38.6359C20.0033 38.9829 27.3093 39.5627 29.2566 35.6701C30.0362 34.1115 29.975 32.8573 29.5449 31.8822L29.5451 31.8823C29.2362 31.1817 28.7367 30.6252 28.2219 30.2034C27.8285 29.8811 27.2675 29.6257 26.6236 29.4891L26.6241 29.4895C24.8324 29.1092 22.3987 29.6491 21.1479 32.2309C20.7683 33.0144 20.4677 33.669 20.2101 34.2299L20.2101 34.2299ZM29.8062 28.2695C29.2103 27.7813 28.4827 27.4155 27.6913 27.1821L34.3876 19.0078C35.2851 17.9122 36.9009 17.7516 37.9965 18.6491C39.0921 19.5466 39.2527 21.1624 38.3552 22.258L31.6338 30.463C31.1283 29.5087 30.4364 28.7857 29.8062 28.2695Z" fill="white"/>
</clipPath>
<g clip-path="url(#mask0_5481_99512)">
<g clip-path="url(#clip0_5481_99512)">
<rect width="48" height="48" rx="5.125" fill="#FFECCF"/>
<rect width="48" height="48" fill="#FFECCF"/>
<circle cx="27.1423" cy="1.86221" r="20.8826" transform="rotate(-0.0800682 27.1423 1.86221)" fill="url(#paint0_radial_5481_99512)"/>
<path d="M18.3213 -8.47858C14.635 -10.7597 9.96439 -10.7737 6.26433 -8.51465L-30.7429 14.0808C-34.3673 16.2938 -34.3733 21.5172 -30.7539 23.7386L6.00883 46.302C9.70335 48.5691 14.374 48.5664 18.0653 46.2939L54.7523 23.7094C58.3526 21.4928 58.3591 16.2985 54.7632 14.0735L18.3213 -8.47858Z" fill="url(#paint1_linear_5481_99512)"/>
<path d="M6.91632 22.7894C7.73673 4.86956 22.9287 -8.99224 40.8485 -8.17184C58.7683 -7.35143 72.6301 7.84053 71.8097 25.7603C70.9893 43.6802 55.7973 57.542 37.8775 56.7215C19.9577 55.9011 6.09591 40.7092 6.91632 22.7894Z" fill="url(#paint2_linear_5481_99512)"/>
<path d="M-19.4476 34.6052C-12.3244 31.5664 -4.64218 31.6967 2.01351 34.3546C15.3317 39.6865 23.0811 36.39 28.456 23.1023C31.1333 16.4345 36.3604 10.7876 43.4915 7.74541C57.7492 1.67237 74.2091 8.26203 80.2736 22.4776C86.338 36.6931 79.7002 53.1271 65.4459 59.2081C58.2988 62.2571 50.6018 62.1143 43.9359 59.4324C30.6393 54.129 22.9046 57.438 17.5365 70.7417C14.8525 77.3935 9.62658 83.0211 2.50343 86.0599C-11.7429 92.1375 -28.2028 85.5478 -34.2639 71.3402C-40.3249 57.1326 -33.6939 40.6828 -19.4476 34.6052Z" fill="url(#paint3_linear_5481_99512)"/>
<circle cx="45.2009" cy="8.67178" r="20.8826" transform="rotate(-0.0800682 45.2009 8.67178)" fill="url(#paint4_radial_5481_99512)"/>
</g>
</g>

</svg>
