<svg width="160" height="160" viewBox="0 0 160 160" xmlns="http://www.w3.org/2000/svg">
  <defs>
<radialGradient id="paint0_radial_5481_90191" cx="0" cy="0" r="1" gradientUnits="userSpaceOnUse" gradientTransform="translate(90.4677 6.20574) rotate(90) scale(69.6088)">
<stop offset="0.166667" stop-color="#FF709F"/>
<stop offset="1" stop-color="#FF709F" stop-opacity="0"/>
</radialGradient>
<linearGradient id="paint1_linear_5481_90191" x1="-40.2086" y1="142.983" x2="219.921" y2="-15.2772" gradientUnits="userSpaceOnUse">
<stop offset="0.0598452" stop-color="#8480FE"/>
<stop offset="0.599632" stop-color="#8480FE" stop-opacity="0"/>
</linearGradient>
<linearGradient id="paint2_linear_5481_90191" x1="168.544" y1="29.4718" x2="56.9494" y2="149.467" gradientUnits="userSpaceOnUse">
<stop stop-color="#EB1000"/>
<stop offset="1" stop-color="#EB1000" stop-opacity="0"/>
</linearGradient>
<linearGradient id="paint3_linear_5481_90191" x1="32.9255" y1="166.029" x2="230.753" y2="55.2086" gradientUnits="userSpaceOnUse">
<stop stop-color="#FC7D00" stop-opacity="0"/>
<stop offset="0.432292" stop-color="#FC7D00"/>
<stop offset="0.609375" stop-color="#FC7D00"/>
<stop offset="1" stop-color="#FC7D00" stop-opacity="0"/>
</linearGradient>
<radialGradient id="paint4_radial_5481_90191" cx="0" cy="0" r="1" gradientUnits="userSpaceOnUse" gradientTransform="translate(150.675 28.9059) rotate(90) scale(69.6088)">
<stop offset="0.166667" stop-color="#EB1000"/>
<stop offset="1" stop-color="#EB1000" stop-opacity="0"/>
</radialGradient>
<clipPath id="clip0_5481_90191">
<rect width="160" height="160" rx="5.125" fill="white"/>
</clipPath>
</defs>
<clipPath id="mask0_5481_90191">
<path fill-rule="evenodd" d="M110.974 119.029C127.82 110.106 139.02 94.2885 139.02 76.2627C139.02 74.5952 138.924 72.9466 138.737 71.3207C140.994 71.0143 143.577 70.0827 145.878 68.1594C149.181 65.3987 151.487 60.9487 151.778 54.5408C151.878 52.3339 150.17 50.4637 147.963 50.3635C145.757 50.2633 143.886 51.9711 143.786 54.178C143.579 58.7459 142.044 60.9381 140.748 62.0211C139.458 63.0991 137.988 63.4295 137.072 63.4395C130.35 41.7859 107.009 25.8105 79.2472 25.8105C67.8348 25.8105 57.1695 28.5102 48.0986 33.1941L48.0996 33.1934C42.9116 27.6289 34.8959 25.8691 28.4676 25.815C25.6843 25.7916 24.2339 28.8051 25.6286 31.214L33.1218 44.1559L33.179 44.114C29.0659 48.3085 25.7414 53.074 23.3973 58.2487V58.2198L12.1916 64.7481C9.73172 66.1812 8.21875 68.8136 8.21875 71.6605V80.8663C8.21875 83.7144 9.73297 86.3478 12.1945 87.7804L23.3973 94.3008V94.2767C28.0506 104.549 36.5674 113.209 47.4475 118.99C47.4179 118.986 47.3935 118.985 47.3743 118.985L51.5143 130.258C52.3816 132.62 54.6304 134.189 57.1465 134.189H62.0655C64.5796 134.189 66.827 132.622 67.6959 130.263L69.25 126.043L69.0948 125.99C72.3945 126.467 75.7865 126.715 79.2472 126.715C82.6319 126.715 85.951 126.477 89.1822 126.021L89.1143 126.043L90.6684 130.263C91.5372 132.622 93.7847 134.189 96.2987 134.189H101.218C103.734 134.189 105.983 132.62 106.85 130.258L110.974 119.029ZM88.0051 44.0082C82.5847 42.801 78.0881 42.75 72.3524 44.0106C70.1947 44.4848 68.0612 43.1201 67.587 40.9624C67.1128 38.8048 68.4775 36.6713 70.6352 36.1971C77.5203 34.6839 83.1966 34.7413 89.7441 36.1995C91.9005 36.6797 93.2592 38.817 92.779 40.9733C92.2988 43.1297 90.1615 44.4884 88.0051 44.0082ZM49.9668 57.8398C49.9668 61.1536 47.2805 63.8398 43.9668 63.8398C40.6531 63.8398 37.9668 61.1536 37.9668 57.8398C37.9668 54.5261 40.6531 51.8398 43.9668 51.8398C47.2805 51.8398 49.9668 54.5261 49.9668 57.8398Z" fill="#292929"/>
</clipPath>
<g clip-path="url(#mask0_5481_90191)">
<g clip-path="url(#clip0_5481_90191)">
<rect width="160" height="160" rx="5.125" fill="#FFECCF"/>
<rect width="160" height="160" fill="#FFECCF"/>
<circle cx="90.4677" cy="6.20574" r="69.6087" transform="rotate(-0.0800682 90.4677 6.20574)" fill="url(#paint0_radial_5481_90191)"/>
<path d="M61.0698 -28.2626C48.782 -35.8663 33.2133 -35.9129 20.8798 -28.3828L-102.478 46.9353C-114.559 54.3119 -114.579 71.7234 -102.514 79.1279L20.0281 154.339C32.3432 161.896 47.9119 161.887 60.2163 154.312L182.506 79.0306C194.507 71.6419 194.529 54.3277 182.543 46.9111L61.0698 -28.2626Z" fill="url(#paint1_linear_5481_90191)"/>
<path d="M23.0583 75.9646C25.793 16.2319 76.4328 -29.9741 136.166 -27.2395C195.898 -24.5048 242.104 26.1351 239.37 85.8678C236.635 145.601 185.995 191.807 126.262 189.072C66.5296 186.337 20.3236 135.697 23.0583 75.9646Z" fill="url(#paint2_linear_5481_90191)"/>
<path d="M-64.8253 115.35C-41.0814 105.221 -15.474 105.655 6.71169 114.515C51.1056 132.288 76.9371 121.299 94.8534 77.0069C103.778 54.7811 121.201 35.958 144.972 25.8174C192.497 5.57391 247.364 27.5395 267.579 74.9246C287.793 122.31 265.667 177.09 218.153 197.36C194.329 207.523 168.673 207.047 146.453 198.107C102.131 180.429 76.3488 191.459 58.4551 235.805C49.5082 257.978 32.0886 276.736 8.34476 286.866C-39.1429 307.124 -94.0093 285.159 -114.213 237.8C-134.416 190.441 -112.313 135.609 -64.8253 115.35Z" fill="url(#paint3_linear_5481_90191)"/>
<circle cx="150.675" cy="28.9059" r="69.6087" transform="rotate(-0.0800682 150.675 28.9059)" fill="url(#paint4_radial_5481_90191)"/>
</g>
</g>

</svg>
