<svg width="96" height="96" viewBox="0 0 96 96" xmlns="http://www.w3.org/2000/svg">
  <defs>
<radialGradient id="paint0_radial_5481_99449" cx="0" cy="0" r="1" gradientUnits="userSpaceOnUse" gradientTransform="translate(54.2806 3.72345) rotate(90) scale(41.7653)">
<stop offset="0.166667" stop-color="#FF709F"/>
<stop offset="1" stop-color="#FF709F" stop-opacity="0"/>
</radialGradient>
<linearGradient id="paint1_linear_5481_99449" x1="-24.1244" y1="85.7895" x2="131.953" y2="-9.16689" gradientUnits="userSpaceOnUse">
<stop offset="0.0598452" stop-color="#8480FE"/>
<stop offset="0.599632" stop-color="#8480FE" stop-opacity="0"/>
</linearGradient>
<linearGradient id="paint2_linear_5481_99449" x1="101.128" y1="17.6831" x2="34.1712" y2="89.6803" gradientUnits="userSpaceOnUse">
<stop stop-color="#EB1000"/>
<stop offset="1" stop-color="#EB1000" stop-opacity="0"/>
</linearGradient>
<linearGradient id="paint3_linear_5481_99449" x1="19.7553" y1="99.6167" x2="138.452" y2="33.1246" gradientUnits="userSpaceOnUse">
<stop stop-color="#FC7D00" stop-opacity="0"/>
<stop offset="0.432292" stop-color="#FC7D00"/>
<stop offset="0.609375" stop-color="#FC7D00"/>
<stop offset="1" stop-color="#FC7D00" stop-opacity="0"/>
</linearGradient>
<radialGradient id="paint4_radial_5481_99449" cx="0" cy="0" r="1" gradientUnits="userSpaceOnUse" gradientTransform="translate(90.4056 17.3436) rotate(90) scale(41.7653)">
<stop offset="0.166667" stop-color="#EB1000"/>
<stop offset="1" stop-color="#EB1000" stop-opacity="0"/>
</radialGradient>
<clipPath id="clip0_5481_99449">
<rect width="96" height="96" rx="5.125" fill="white"/>
</clipPath>
</defs>
<clipPath id="mask0_5481_99449">
<path d="M77.4671 10.9211C76.8339 10.7269 75.8055 11.3003 75.2127 11.9849L62.0764 27.2732C61.4279 28.0316 61.1645 29.0691 61.3773 30.0592C61.5901 31.0493 62.2486 31.8813 63.1453 32.2816L68.1202 34.5093L64.7817 42.7406C64.3815 43.7202 64.4777 44.8314 65.035 45.7004C65.5973 46.5851 66.5801 47.1328 67.5984 47.1328C68.4546 47.1328 69.255 46.7589 69.8427 46.0795L82.9132 30.9966C83.5717 30.2382 83.8352 29.1902 83.6224 28.1949C83.4096 27.1995 82.746 26.3674 81.8391 25.9725L76.8339 23.7711L80.2839 15.3291C80.6841 14.3443 80.5929 13.2383 80.0356 12.3641C79.4733 11.4793 78.4905 10.9264 77.4722 10.9264L77.4671 10.9211Z" fill="#D9D9D9"/>
<path d="M10.2705 56C10.2705 54.8954 11.1659 54 12.2705 54H40.417C41.5216 54 42.417 54.8954 42.417 56V61.6292C42.417 62.7338 41.5216 63.6292 40.417 63.6292C39.3124 63.6292 38.417 62.7338 38.417 61.6292V58H28.3428V82.1465H31.9721C33.0767 82.1465 33.9721 83.0419 33.9721 84.1465C33.9721 85.2511 33.0767 86.1465 31.9721 86.1465H20.7136C19.6091 86.1465 18.7136 85.2511 18.7136 84.1465C18.7136 83.0419 19.6091 82.1465 20.7136 82.1465H24.3428V58H14.2705V61.6292C14.2705 62.7338 13.3751 63.6292 12.2705 63.6292C11.1659 63.6292 10.2705 62.7338 10.2705 61.6292V56Z" fill="#D9D9D9"/>
<path fill-rule="evenodd" d="M53.9243 76.6875V64C53.9243 59.5817 57.506 56 61.9243 56H83.6874C88.1057 56 91.6874 59.5817 91.6874 64V76.6875C91.6874 81.1058 88.1057 84.6875 83.6874 84.6875H61.9243C57.506 84.6875 53.9243 81.1058 53.9243 76.6875ZM78.0523 69.2589L70.6745 65.0473C69.8483 64.5756 68.814 65.1627 68.8129 66.1041L68.8027 74.5099C68.8015 75.4513 69.8344 76.0409 70.6618 75.5712L78.0497 71.377C78.8771 70.9073 78.8785 69.7305 78.0523 69.2589Z" fill="#D9D9D9"/>
<path fill-rule="evenodd" d="M7 34.75V22C7 17.5817 10.5817 14 15 14H37.125C41.5433 14 45.125 17.5817 45.125 22V34.75C45.125 36.1717 44.7542 37.5068 44.1039 38.6638L39.8855 32.0822C37.5249 28.3991 32.1432 28.3992 29.7826 32.0822L28.4271 34.1971L24.5952 28.157C22.2467 24.455 16.8502 24.4397 14.4806 28.1283L7.88055 38.4024C7.31769 37.3075 7 36.0659 7 34.75ZM38 23.5C39.3807 23.5 40.5 22.3807 40.5 21C40.5 19.6193 39.3807 18.5 38 18.5C36.6193 18.5 35.5 19.6193 35.5 21C35.5 22.3807 36.6193 23.5 38 23.5Z" fill="#D9D9D9"/>
<path d="M26.0464 37.9115L21.2176 30.2998C20.4348 29.0658 18.6359 29.0607 17.8461 30.2902L10.6622 41.473C11.9119 42.281 13.4012 42.75 15 42.75H22.9452L26.0464 37.9115Z" fill="#D9D9D9"/>
<path d="M27.6963 42.75H37.125C38.6306 42.75 40.0391 42.3341 41.2417 41.6109L36.5179 34.2407C35.731 33.013 33.9371 33.013 33.1502 34.2407L27.6963 42.75Z" fill="#D9D9D9"/>
</clipPath>
<g clip-path="url(#mask0_5481_99449)">
<g clip-path="url(#clip0_5481_99449)">
<rect width="96" height="96" rx="5.125" fill="#FFECCF"/>
<rect width="96" height="96" fill="#FFECCF"/>
<circle cx="54.2806" cy="3.72345" r="41.7653" transform="rotate(-0.0800682 54.2806 3.72345)" fill="url(#paint0_radial_5481_99449)"/>
<path d="M36.6427 -16.9581C29.27 -21.5204 19.9288 -21.5483 12.5287 -17.0303L-61.4858 28.1606C-68.7346 32.5865 -68.7467 43.0335 -61.5078 47.4761L12.0177 92.6029C19.4067 97.1373 28.7479 97.1319 36.1306 92.5868L109.505 47.4178C116.705 42.9845 116.718 32.596 109.526 28.1461L36.6427 -16.9581Z" fill="url(#paint1_linear_5481_99449)"/>
<path d="M13.8365 45.5788C15.4774 9.73912 45.8613 -17.9845 81.7009 -16.3437C117.541 -14.7029 145.264 15.6811 143.623 51.5207C141.982 87.3603 111.599 115.084 75.759 113.443C39.9193 111.802 12.1957 81.4184 13.8365 45.5788Z" fill="url(#paint2_linear_5481_99449)"/>
<path d="M-38.8952 69.2093C-24.6489 63.1318 -9.28437 63.3923 4.02702 68.7083C30.6634 79.3721 46.1622 72.779 56.9121 46.2036C62.2666 32.8681 72.7207 21.5742 86.983 15.4898C115.498 3.34376 148.418 16.5231 160.547 44.9542C172.676 73.3853 159.4 106.253 130.892 118.415C116.598 124.513 101.204 124.228 87.8718 118.864C61.2786 108.257 45.8093 114.875 35.073 141.482C29.7049 154.786 19.2532 166.041 5.00686 172.119C-23.4858 184.274 -56.4056 171.095 -68.5277 142.679C-80.6499 114.264 -67.3878 81.3645 -38.8952 69.2093Z" fill="url(#paint3_linear_5481_99449)"/>
<circle cx="90.4056" cy="17.3436" r="41.7653" transform="rotate(-0.0800682 90.4056 17.3436)" fill="url(#paint4_radial_5481_99449)"/>
</g>
</g>

</svg>
