<svg width="96" height="96" viewBox="0 0 96 96" xmlns="http://www.w3.org/2000/svg">
  <defs>
<radialGradient id="paint0_radial_5481_99473" cx="0" cy="0" r="1" gradientUnits="userSpaceOnUse" gradientTransform="translate(54.2806 3.72345) rotate(90) scale(41.7653)">
<stop offset="0.166667" stop-color="#FF709F"/>
<stop offset="1" stop-color="#FF709F" stop-opacity="0"/>
</radialGradient>
<linearGradient id="paint1_linear_5481_99473" x1="-24.1244" y1="85.7895" x2="131.953" y2="-9.16689" gradientUnits="userSpaceOnUse">
<stop offset="0.0598452" stop-color="#8480FE"/>
<stop offset="0.599632" stop-color="#8480FE" stop-opacity="0"/>
</linearGradient>
<linearGradient id="paint2_linear_5481_99473" x1="101.128" y1="17.6831" x2="34.1712" y2="89.6803" gradientUnits="userSpaceOnUse">
<stop stop-color="#EB1000"/>
<stop offset="1" stop-color="#EB1000" stop-opacity="0"/>
</linearGradient>
<linearGradient id="paint3_linear_5481_99473" x1="19.7553" y1="99.6167" x2="138.452" y2="33.1246" gradientUnits="userSpaceOnUse">
<stop stop-color="#FC7D00" stop-opacity="0"/>
<stop offset="0.432292" stop-color="#FC7D00"/>
<stop offset="0.609375" stop-color="#FC7D00"/>
<stop offset="1" stop-color="#FC7D00" stop-opacity="0"/>
</linearGradient>
<radialGradient id="paint4_radial_5481_99473" cx="0" cy="0" r="1" gradientUnits="userSpaceOnUse" gradientTransform="translate(90.4056 17.3436) rotate(90) scale(41.7653)">
<stop offset="0.166667" stop-color="#EB1000"/>
<stop offset="1" stop-color="#EB1000" stop-opacity="0"/>
</radialGradient>
<clipPath id="clip0_5481_99473">
<rect width="96" height="96" rx="5.125" fill="white"/>
</clipPath>
</defs>
<clipPath id="mask0_5481_99473">
<path fill-rule="evenodd" d="M72.7659 49.0194C75.5051 46.6234 78.4791 44.0171 79.5929 39.4231C82.4585 27.5509 69.9062 15 51.0808 15C32.2554 15 17 30.3673 17 49.3257C17 68.2841 34.5551 82 53.3745 82C63.7234 82 79.5929 75.7306 78.6055 68.4703C78.0035 64.0264 75.0716 63.4499 72.3565 62.9215C70.0266 62.4651 67.8593 62.0387 67.462 59.2343C66.7576 54.286 69.5992 51.7938 72.7599 49.0315L72.7659 49.0194ZM37.0656 64.4888C33.7424 64.4888 31.0453 61.7985 31.0453 58.4836C31.0453 55.1688 33.7424 52.4784 37.0656 52.4784C40.3888 52.4784 43.0859 55.1688 43.0859 58.4836C43.0859 61.7985 40.3888 64.4888 37.0656 64.4888ZM37.0656 44.9359C33.7424 44.9359 31.0453 42.2456 31.0453 38.9307C31.0453 35.6158 33.7424 32.9255 37.0656 32.9255C40.3888 32.9255 43.0859 35.6158 43.0859 38.9307C43.0859 42.2456 40.3888 44.9359 37.0656 44.9359ZM52.1163 73.0462C48.7931 73.0462 46.096 70.3559 46.096 67.0411C46.096 63.7262 48.7931 61.0359 52.1163 61.0359C55.4395 61.0359 58.1366 63.7262 58.1366 67.0411C58.1366 70.3559 55.4395 73.0462 52.1163 73.0462ZM52.1163 37.0151C48.7931 37.0151 46.096 34.3247 46.096 31.0099C46.096 27.695 48.7931 25.0047 52.1163 25.0047C55.4395 25.0047 58.1366 27.695 58.1366 31.0099C58.1366 34.3247 55.4395 37.0151 52.1163 37.0151Z" fill="#292929"/>
</clipPath>
<g clip-path="url(#mask0_5481_99473)">
<g clip-path="url(#clip0_5481_99473)">
<rect width="96" height="96" rx="5.125" fill="#FFECCF"/>
<rect width="96" height="96" fill="#FFECCF"/>
<circle cx="54.2806" cy="3.72345" r="41.7653" transform="rotate(-0.0800682 54.2806 3.72345)" fill="url(#paint0_radial_5481_99473)"/>
<path d="M36.6427 -16.9581C29.27 -21.5204 19.9288 -21.5483 12.5287 -17.0303L-61.4858 28.1606C-68.7346 32.5865 -68.7467 43.0335 -61.5078 47.4761L12.0177 92.6029C19.4067 97.1373 28.7479 97.1319 36.1306 92.5868L109.505 47.4178C116.705 42.9845 116.718 32.596 109.526 28.1461L36.6427 -16.9581Z" fill="url(#paint1_linear_5481_99473)"/>
<path d="M13.8365 45.5788C15.4774 9.73912 45.8613 -17.9845 81.7009 -16.3437C117.541 -14.7029 145.264 15.6811 143.623 51.5207C141.982 87.3603 111.599 115.084 75.759 113.443C39.9193 111.802 12.1957 81.4184 13.8365 45.5788Z" fill="url(#paint2_linear_5481_99473)"/>
<path d="M-38.8952 69.2093C-24.6489 63.1318 -9.28437 63.3923 4.02702 68.7083C30.6634 79.3721 46.1622 72.779 56.9121 46.2036C62.2666 32.8681 72.7207 21.5742 86.983 15.4898C115.498 3.34376 148.418 16.5231 160.547 44.9542C172.676 73.3853 159.4 106.253 130.892 118.415C116.598 124.513 101.204 124.228 87.8718 118.864C61.2786 108.257 45.8093 114.875 35.073 141.482C29.7049 154.786 19.2532 166.041 5.00686 172.119C-23.4858 184.274 -56.4056 171.095 -68.5277 142.679C-80.6499 114.264 -67.3878 81.3645 -38.8952 69.2093Z" fill="url(#paint3_linear_5481_99473)"/>
<circle cx="90.4056" cy="17.3436" r="41.7653" transform="rotate(-0.0800682 90.4056 17.3436)" fill="url(#paint4_radial_5481_99473)"/>
</g>
</g>

</svg>
