<svg width="96" height="96" viewBox="0 0 96 96" xmlns="http://www.w3.org/2000/svg">
  <defs>
<radialGradient id="paint0_radial_5481_99526" cx="0" cy="0" r="1" gradientUnits="userSpaceOnUse" gradientTransform="translate(54.2806 3.72248) rotate(90) scale(41.7653)">
<stop offset="0.166667" stop-color="#FF709F"/>
<stop offset="1" stop-color="#FF709F" stop-opacity="0"/>
</radialGradient>
<linearGradient id="paint1_linear_5481_99526" x1="-24.1244" y1="85.7885" x2="131.953" y2="-9.16787" gradientUnits="userSpaceOnUse">
<stop offset="0.0598452" stop-color="#8480FE"/>
<stop offset="0.599632" stop-color="#8480FE" stop-opacity="0"/>
</linearGradient>
<linearGradient id="paint2_linear_5481_99526" x1="101.128" y1="17.6821" x2="34.1712" y2="89.6793" gradientUnits="userSpaceOnUse">
<stop stop-color="#EB1000"/>
<stop offset="1" stop-color="#EB1000" stop-opacity="0"/>
</linearGradient>
<linearGradient id="paint3_linear_5481_99526" x1="19.7553" y1="99.6158" x2="138.452" y2="33.1236" gradientUnits="userSpaceOnUse">
<stop stop-color="#FC7D00" stop-opacity="0"/>
<stop offset="0.432292" stop-color="#FC7D00"/>
<stop offset="0.609375" stop-color="#FC7D00"/>
<stop offset="1" stop-color="#FC7D00" stop-opacity="0"/>
</linearGradient>
<radialGradient id="paint4_radial_5481_99526" cx="0" cy="0" r="1" gradientUnits="userSpaceOnUse" gradientTransform="translate(90.4056 17.3426) rotate(90) scale(41.7653)">
<stop offset="0.166667" stop-color="#EB1000"/>
<stop offset="1" stop-color="#EB1000" stop-opacity="0"/>
</radialGradient>
<clipPath id="clip0_5481_99526">
<rect y="-0.000976562" width="96" height="96" rx="5.125" fill="white"/>
</clipPath>
</defs>
<clipPath id="mask0_5481_99526">
<path fill-rule="evenodd" d="M18.25 26.0508C18.25 22.7371 20.9363 20.0508 24.25 20.0508H62C65.3137 20.0508 68 22.7371 68 26.0508V37.75H49.5518C46.4084 37.75 43.6037 39.2003 41.7705 41.4684L38.6701 36.4772L38.6672 36.4725C36.7222 33.3144 32.1468 33.2656 30.1353 36.3834L30.1339 36.3856L18.6751 54.1971C18.4008 53.5098 18.25 52.7598 18.25 51.9746V26.0508ZM35.2672 38.5796L39.7443 45.7871C39.618 46.4218 39.5518 47.0782 39.5518 47.75V57.9746H24.25C23.2376 57.9746 22.2838 57.7239 21.4473 57.2811L33.4965 38.5519L33.4971 38.551C33.9137 37.9067 34.8602 37.9174 35.262 38.5713L35.262 38.5713L35.2672 38.5796ZM59.145 31.418C59.145 33.0748 57.8019 34.418 56.145 34.418C54.4882 34.418 53.145 33.0748 53.145 31.418C53.145 29.7611 54.4882 28.418 56.145 28.418C57.8019 28.418 59.145 29.7611 59.145 31.418ZM43.5518 47.75C43.5518 44.4363 46.2381 41.75 49.5518 41.75H71.7501C75.0638 41.75 77.7501 44.4363 77.7501 47.75V69.9483C77.7501 73.262 75.0638 75.9483 71.7501 75.9483H49.5518C46.238 75.9483 43.5518 73.262 43.5518 69.9483V47.75ZM68.0315 57.7098L56.8174 51.2776C55.5614 50.5572 53.9894 51.4539 53.9877 52.8917L53.9722 65.7297C53.9704 67.1674 55.5403 68.0679 56.798 67.3505L68.0276 60.9448C69.2853 60.2274 69.2875 58.4302 68.0315 57.7098Z" fill="white"/>
</clipPath>
<g clip-path="url(#mask0_5481_99526)">
<g clip-path="url(#clip0_5481_99526)">
<rect y="-0.000976562" width="96" height="96" rx="5.125" fill="#FFECCF"/>
<rect width="96" height="96" transform="translate(0 -0.000976562)" fill="#FFECCF"/>
<circle cx="54.2806" cy="3.72248" r="41.7653" transform="rotate(-0.0800682 54.2806 3.72248)" fill="url(#paint0_radial_5481_99526)"/>
<path d="M36.6427 -16.9591C29.27 -21.5213 19.9288 -21.5493 12.5287 -17.0312L-61.4858 28.1596C-68.7346 32.5856 -68.7467 43.0325 -61.5078 47.4752L12.0177 92.602C19.4067 97.1363 28.7479 97.1309 36.1306 92.5858L109.505 47.4168C116.705 42.9836 116.718 32.595 109.526 28.1451L36.6427 -16.9591Z" fill="url(#paint1_linear_5481_99526)"/>
<path d="M13.8365 45.5778C15.4774 9.73815 45.8613 -17.9855 81.7009 -16.3446C117.541 -14.7038 145.264 15.6801 143.623 51.5197C141.982 87.3593 111.599 115.083 75.759 113.442C39.9193 111.801 12.1957 81.4174 13.8365 45.5778Z" fill="url(#paint2_linear_5481_99526)"/>
<path d="M-38.8952 69.2084C-24.6489 63.1308 -9.28437 63.3914 4.02702 68.7073C30.6634 79.3711 46.1622 72.778 56.9121 46.2026C62.2666 32.8671 72.7207 21.5733 86.983 15.4889C115.498 3.34278 148.418 16.5221 160.547 44.9532C172.676 73.3843 159.4 106.252 130.892 118.414C116.598 124.512 101.204 124.227 87.8718 118.863C61.2786 108.256 45.8093 114.874 35.073 141.481C29.7049 154.785 19.2532 166.04 5.00686 172.118C-23.4858 184.273 -56.4056 171.094 -68.5277 142.678C-80.6499 114.263 -67.3878 81.3636 -38.8952 69.2084Z" fill="url(#paint3_linear_5481_99526)"/>
<circle cx="90.4056" cy="17.3426" r="41.7653" transform="rotate(-0.0800682 90.4056 17.3426)" fill="url(#paint4_radial_5481_99526)"/>
</g>
</g>

</svg>
