<svg width="160" height="160" viewBox="0 0 160 160" xmlns="http://www.w3.org/2000/svg">
  <defs>
<radialGradient id="paint0_radial_5481_89897" cx="0" cy="0" r="1" gradientUnits="userSpaceOnUse" gradientTransform="translate(57.253 53.971) rotate(90) scale(53.971 57.253)">
<stop offset="0.166667" stop-color="#FF709F"/>
<stop offset="1" stop-color="#FF709F" stop-opacity="0"/>
</radialGradient>
<linearGradient id="paint1_linear_5481_89897" x1="-14.6728" y1="131.234" x2="192.277" y2="-2.32892" gradientUnits="userSpaceOnUse">
<stop offset="0.0598452" stop-color="#8480FE"/>
<stop offset="0.599632" stop-color="#8480FE" stop-opacity="0"/>
</linearGradient>
<linearGradient id="paint2_linear_5481_89897" x1="157.026" y1="43.2229" x2="71.0192" y2="141.328" gradientUnits="userSpaceOnUse">
<stop stop-color="#EB1000"/>
<stop offset="1" stop-color="#EB1000" stop-opacity="0"/>
</linearGradient>
<linearGradient id="paint3_linear_5481_89897" x1="45.4824" y1="149.102" x2="203.466" y2="55.2199" gradientUnits="userSpaceOnUse">
<stop stop-color="#FC7D00" stop-opacity="0"/>
<stop offset="0.432292" stop-color="#FC7D00"/>
<stop offset="0.609375" stop-color="#FC7D00"/>
<stop offset="1" stop-color="#FC7D00" stop-opacity="0"/>
</linearGradient>
<radialGradient id="paint4_radial_5481_89897" cx="0" cy="0" r="1" gradientUnits="userSpaceOnUse" gradientTransform="translate(57.253 53.971) rotate(90) scale(53.971 57.253)">
<stop offset="0.166667" stop-color="#EB1000"/>
<stop offset="1" stop-color="#EB1000" stop-opacity="0"/>
</radialGradient>
<clipPath id="clip0_5481_89897">
<rect x="18.3984" y="20.3721" width="131.6" height="124.056" rx="3.46124" fill="white"/>
</clipPath>
</defs>
<clipPath id="mask0_5481_89897">
<path fill-rule="evenodd" d="M125.43 48.4697V97.4697C125.43 106.31 118.27 113.47 109.43 113.47H35.4297C26.5897 113.47 19.4297 106.31 19.4297 97.4697V48.4697C19.4297 39.6297 26.5897 32.4697 35.4297 32.4697H109.43C118.27 32.4697 125.43 39.6297 125.43 48.4697ZM111.39 55.3497C111.39 50.5297 107.48 46.6197 102.66 46.6197C97.8397 46.6197 93.9297 50.5297 93.9297 55.3497C93.9297 60.1697 97.8397 64.0797 102.66 64.0797C107.48 64.0797 111.39 60.1697 111.39 55.3497ZM28.9797 96.2197C26.4197 100.21 29.2797 105.46 34.0297 105.46V105.45H110.21C114.96 105.45 117.82 100.2 115.26 96.2097L103.48 77.8597C101.12 74.1797 95.7397 74.1797 93.3797 77.8597L80.0197 98.6797L58.7597 65.5597C56.3997 61.8797 51.0197 61.8797 48.6597 65.5597L28.9797 96.2197ZM136.571 66.4897C136.571 64.2797 138.361 62.4897 140.571 62.4897H140.581C142.791 62.4897 144.581 64.2797 144.581 66.4897V107.54C144.581 120.77 133.811 131.54 120.581 131.54L54.6406 131.49C52.4306 131.49 50.6406 129.7 50.6406 127.49C50.6406 125.28 52.4306 123.49 54.6406 123.49L120.571 123.54C129.391 123.54 136.571 116.36 136.571 107.54V66.4897Z" fill="white"/>
</clipPath>
<g clip-path="url(#mask0_5481_89897)">
<g clip-path="url(#clip0_5481_89897)">
<rect x="18.3984" y="20.3721" width="131.6" height="124.056" rx="3.46124" fill="#FFECCF"/>
<rect width="131.6" height="124.056" transform="translate(18.3984 20.3721)" fill="#FFECCF"/>
<ellipse cx="57.253" cy="53.971" rx="57.253" ry="53.971" transform="matrix(0.999999 -0.00131734 0.00148243 0.999999 35.4766 -28.7119)" fill="url(#paint0_radial_5481_89897)"/>
<path d="M68.6284 -1.54131C58.5217 -7.43684 45.7165 -7.47295 35.5723 -1.63452L-65.8889 56.7632C-75.8258 62.4827 -75.8424 75.9826 -65.919 81.7237L34.8718 140.039C45.0009 145.898 57.8061 145.891 67.9264 140.018L168.51 81.6482C178.38 75.9194 178.398 62.4949 168.54 56.7445L68.6284 -1.54131Z" fill="url(#paint1_linear_5481_89897)"/>
<path d="M37.3642 79.2709C39.6135 32.9573 81.2647 -2.86847 130.395 -0.748125C179.525 1.37222 217.529 40.6357 215.28 86.9494C213.03 133.263 171.379 169.089 122.249 166.968C73.1193 164.848 35.1149 125.585 37.3642 79.2709Z" fill="url(#paint2_linear_5481_89897)"/>
<path d="M-34.9174 109.808C-15.3881 101.954 5.67396 102.291 23.9216 109.161C60.4355 122.941 81.6818 114.421 96.418 80.079C103.758 62.8463 118.089 48.2518 137.64 40.3892C176.73 24.6935 221.857 41.7245 238.484 78.4645C255.111 115.204 236.912 157.678 197.832 173.394C178.237 181.274 157.134 180.905 138.858 173.974C102.404 160.267 81.1979 168.82 66.4804 203.203C59.1216 220.394 44.794 234.939 25.2648 242.792C-13.7937 258.5 -58.9211 241.469 -75.5385 204.75C-92.1559 168.03 -73.9759 125.516 -34.9174 109.808Z" fill="url(#paint3_linear_5481_89897)"/>
<ellipse cx="57.253" cy="53.971" rx="57.253" ry="53.971" transform="matrix(0.999999 -0.00131734 0.00148243 0.999999 84.9961 -11.1113)" fill="url(#paint4_radial_5481_89897)"/>
</g>
</g>

</svg>
