<svg width="160" height="160" viewBox="0 0 160 160" xmlns="http://www.w3.org/2000/svg">
  <defs>
<radialGradient id="paint0_radial_5481_89846" cx="0" cy="0" r="1" gradientUnits="userSpaceOnUse" gradientTransform="translate(59.8633 56.4317) rotate(90) scale(56.4317 59.8633)">
<stop offset="0.166667" stop-color="#FF709F"/>
<stop offset="1" stop-color="#FF709F" stop-opacity="0"/>
</radialGradient>
<linearGradient id="paint1_linear_5481_89846" x1="-16.1811" y1="139.116" x2="200.204" y2="-0.536102" gradientUnits="userSpaceOnUse">
<stop offset="0.0598452" stop-color="#8480FE"/>
<stop offset="0.599632" stop-color="#8480FE" stop-opacity="0"/>
</linearGradient>
<linearGradient id="paint2_linear_5481_89846" x1="163.345" y1="47.0924" x2="73.4167" y2="149.67" gradientUnits="userSpaceOnUse">
<stop stop-color="#EB1000"/>
<stop offset="1" stop-color="#EB1000" stop-opacity="0"/>
</linearGradient>
<linearGradient id="paint3_linear_5481_89846" x1="46.7156" y1="157.799" x2="211.902" y2="59.6364" gradientUnits="userSpaceOnUse">
<stop stop-color="#FC7D00" stop-opacity="0"/>
<stop offset="0.432292" stop-color="#FC7D00"/>
<stop offset="0.609375" stop-color="#FC7D00"/>
<stop offset="1" stop-color="#FC7D00" stop-opacity="0"/>
</linearGradient>
<radialGradient id="paint4_radial_5481_89846" cx="0" cy="0" r="1" gradientUnits="userSpaceOnUse" gradientTransform="translate(59.8633 56.4317) rotate(90) scale(56.4317 59.8633)">
<stop offset="0.166667" stop-color="#EB1000"/>
<stop offset="1" stop-color="#EB1000" stop-opacity="0"/>
</radialGradient>
<clipPath id="clip0_5481_89846">
<rect x="18.3984" y="23.2002" width="137.6" height="129.712" rx="3.46124" fill="white"/>
</clipPath>
</defs>
<clipPath id="mask0_5481_89846">
<path fill-rule="evenodd" d="M123.969 33.9004C132.809 33.9004 139.969 41.0604 139.969 49.9004V53.9904H19.9492V49.9004C19.9492 41.0604 27.1092 33.9004 35.9492 33.9004H123.969ZM139.97 86.4604C137.39 85.8004 134.69 85.4504 131.91 85.4504H131.9C113.96 85.4504 99.37 100.04 99.37 117.98C99.37 120.75 99.72 123.45 100.38 126.02H48V61.9904H139.97V86.4604ZM19.9492 110.03C19.9492 118.87 27.1092 126.03 35.9492 126.03H39.9992V62.0004H19.9492V110.03ZM131.911 93.4604C134.731 93.4604 137.441 93.9404 139.971 94.8204H139.981C149.571 98.1604 156.451 107.27 156.451 117.99C156.451 131.54 145.471 142.52 131.921 142.52C121.191 142.52 112.071 135.63 108.741 126.03C107.861 123.51 107.381 120.81 107.381 117.99C107.381 104.44 118.361 93.4604 131.911 93.4604ZM135.921 121.94H143.801C146.011 121.94 147.801 120.15 147.801 117.94C147.801 115.73 146.011 113.94 143.801 113.94H135.921V106.06C135.921 103.85 134.131 102.06 131.921 102.06C129.711 102.06 127.921 103.85 127.921 106.06V113.94H120.041C117.831 113.94 116.041 115.73 116.041 117.94C116.041 120.15 117.831 121.94 120.041 121.94H127.921V129.82C127.921 132.03 129.711 133.82 131.921 133.82C134.131 133.82 135.921 132.03 135.921 129.82V121.94Z" fill="white"/>
</clipPath>
<g clip-path="url(#mask0_5481_89846)">
<g clip-path="url(#clip0_5481_89846)">
<rect x="18.3984" y="23.2002" width="137.6" height="129.712" rx="3.46124" fill="#FFECCF"/>
<rect width="137.6" height="129.712" transform="translate(18.3984 23.2002)" fill="#FFECCF"/>
<ellipse cx="59.8633" cy="56.4317" rx="59.8633" ry="56.4317" transform="matrix(0.999999 -0.00131734 0.00148243 0.999999 36.2539 -28.1211)" fill="url(#paint0_radial_5481_89846)"/>
<path d="M70.9181 0.287412C60.3506 -5.8769 46.9616 -5.91466 36.3548 0.189957L-69.7323 61.2502C-80.1222 67.2304 -80.1395 81.3459 -69.7638 87.3487L35.6224 148.322C46.2133 154.449 59.6023 154.442 70.1841 148.301L175.353 87.2698C185.674 81.2798 185.693 67.2432 175.385 61.2306L70.9181 0.287412Z" fill="url(#paint1_linear_5481_89846)"/>
<path d="M38.2273 84.784C40.5791 36.3588 84.1293 -1.10033 135.499 1.11669C186.869 3.3337 226.606 44.3873 224.254 92.8126C221.903 141.238 178.353 178.697 126.983 176.48C75.6125 174.263 35.8755 133.209 38.2273 84.784Z" fill="url(#paint2_linear_5481_89846)"/>
<path d="M-37.3498 116.713C-16.9302 108.502 5.09221 108.854 24.1718 116.037C62.3505 130.445 84.5655 121.537 99.9735 85.6289C107.648 67.6105 122.633 52.3507 143.075 44.1296C183.947 27.7183 231.132 45.5257 248.517 83.9408C265.901 122.356 246.873 166.766 206.011 183.199C185.523 191.438 163.458 191.052 144.349 183.805C106.232 169.473 84.0595 178.415 68.671 214.366C60.9767 232.342 45.9959 247.549 25.5762 255.761C-15.2631 272.185 -62.448 254.377 -79.823 215.984C-97.198 177.59 -78.1891 133.137 -37.3498 116.713Z" fill="url(#paint3_linear_5481_89846)"/>
<ellipse cx="59.8633" cy="56.4317" rx="59.8633" ry="56.4317" transform="matrix(0.999999 -0.00131734 0.00148243 0.999999 88.0312 -9.71875)" fill="url(#paint4_radial_5481_89846)"/>
</g>
</g>

</svg>
