<svg width="48" height="48" viewBox="0 0 48 48" xmlns="http://www.w3.org/2000/svg">
  <defs>
<radialGradient id="paint0_radial_5481_99630" cx="0" cy="0" r="1" gradientUnits="userSpaceOnUse" gradientTransform="translate(27.1423 1.86222) rotate(90) scale(20.8826)">
<stop offset="0.166667" stop-color="#FF709F"/>
<stop offset="1" stop-color="#FF709F" stop-opacity="0"/>
</radialGradient>
<linearGradient id="paint1_linear_5481_99630" x1="-12.0622" y1="42.8952" x2="65.9766" y2="-4.58296" gradientUnits="userSpaceOnUse">
<stop offset="0.0598452" stop-color="#8480FE"/>
<stop offset="0.599632" stop-color="#8480FE" stop-opacity="0"/>
</linearGradient>
<linearGradient id="paint2_linear_5481_99630" x1="50.5621" y1="8.84155" x2="17.0836" y2="44.8401" gradientUnits="userSpaceOnUse">
<stop stop-color="#EB1000"/>
<stop offset="1" stop-color="#EB1000" stop-opacity="0"/>
</linearGradient>
<linearGradient id="paint3_linear_5481_99630" x1="9.87765" y1="49.8089" x2="69.2259" y2="16.5628" gradientUnits="userSpaceOnUse">
<stop stop-color="#FC7D00" stop-opacity="0"/>
<stop offset="0.432292" stop-color="#FC7D00"/>
<stop offset="0.609375" stop-color="#FC7D00"/>
<stop offset="1" stop-color="#FC7D00" stop-opacity="0"/>
</linearGradient>
<radialGradient id="paint4_radial_5481_99630" cx="0" cy="0" r="1" gradientUnits="userSpaceOnUse" gradientTransform="translate(45.2009 8.67178) rotate(90) scale(20.8826)">
<stop offset="0.166667" stop-color="#EB1000"/>
<stop offset="1" stop-color="#EB1000" stop-opacity="0"/>
</radialGradient>
<clipPath id="clip0_5481_99630">
<rect width="48" height="48" rx="5.125" fill="white"/>
</clipPath>
</defs>
<clipPath id="mask0_5481_99630">
<path fill-rule="evenodd" d="M39.9142 10.2519C40.3425 10.7933 40.2508 11.5794 39.7094 12.0077L28.1612 21.1436C27.7744 21.4496 27.2438 21.4996 26.8067 21.2711L19.5971 17.5035L9.87108 25.753C9.3446 26.1995 8.5558 26.1347 8.10925 25.6082C7.6627 25.0818 7.72749 24.293 8.25397 23.8464L18.6217 15.0527C19.0096 14.7236 19.5583 14.6625 20.0092 14.8981L27.246 18.6799L38.1583 10.0471C38.6997 9.61875 39.4859 9.71043 39.9142 10.2519ZM17.7266 26.1836C17.7266 25.0791 18.622 24.1836 19.7266 24.1836C20.8312 24.1836 21.7266 25.0791 21.7266 26.1836V34.9722C21.7266 36.0768 20.8312 36.9722 19.7266 36.9722C18.622 36.9722 17.7266 36.0768 17.7266 34.9722V26.1836ZM28.3301 25.8946C27.2255 25.8946 26.3301 26.79 26.3301 27.8946V34.9723C26.3301 36.0769 27.2255 36.9723 28.3301 36.9723C29.4347 36.9723 30.3301 36.0769 30.3301 34.9723V27.8946C30.3301 26.79 29.4347 25.8946 28.3301 25.8946ZM34.9336 21.8731C34.9336 20.7685 35.829 19.8731 36.9336 19.8731C38.0382 19.8731 38.9336 20.7685 38.9336 21.8731V34.973C38.9336 36.0776 38.0382 36.973 36.9336 36.973C35.829 36.973 34.9336 36.0776 34.9336 34.973V21.8731ZM11.1231 29.2833C10.0185 29.2833 9.12307 30.1787 9.12307 31.2833V34.9735C9.12307 36.0781 10.0185 36.9735 11.1231 36.9735C12.2276 36.9735 13.1231 36.0781 13.1231 34.9735V31.2833C13.1231 30.1787 12.2276 29.2833 11.1231 29.2833Z" fill="white"/>
</clipPath>
<g clip-path="url(#mask0_5481_99630)">
<g clip-path="url(#clip0_5481_99630)">
<rect width="48" height="48" rx="5.125" fill="#FFECCF"/>
<rect width="48" height="48" fill="#FFECCF"/>
<circle cx="27.1423" cy="1.86221" r="20.8826" transform="rotate(-0.0800682 27.1423 1.86221)" fill="url(#paint0_radial_5481_99630)"/>
<path d="M18.3213 -8.47858C14.635 -10.7597 9.96439 -10.7737 6.26433 -8.51465L-30.7429 14.0808C-34.3673 16.2938 -34.3733 21.5172 -30.7539 23.7386L6.00883 46.302C9.70335 48.5691 14.374 48.5664 18.0653 46.2939L54.7523 23.7094C58.3526 21.4928 58.3591 16.2985 54.7632 14.0735L18.3213 -8.47858Z" fill="url(#paint1_linear_5481_99630)"/>
<path d="M6.91632 22.7894C7.73673 4.86956 22.9287 -8.99224 40.8485 -8.17184C58.7683 -7.35143 72.6301 7.84053 71.8097 25.7603C70.9893 43.6802 55.7973 57.542 37.8775 56.7215C19.9577 55.9011 6.09591 40.7092 6.91632 22.7894Z" fill="url(#paint2_linear_5481_99630)"/>
<path d="M-19.4476 34.6052C-12.3244 31.5664 -4.64218 31.6967 2.01351 34.3546C15.3317 39.6865 23.0811 36.39 28.456 23.1023C31.1333 16.4345 36.3604 10.7876 43.4915 7.74541C57.7492 1.67237 74.2091 8.26203 80.2736 22.4776C86.338 36.6931 79.7002 53.1271 65.4459 59.2081C58.2988 62.2571 50.6018 62.1143 43.9359 59.4324C30.6393 54.129 22.9046 57.438 17.5365 70.7417C14.8525 77.3935 9.62658 83.0211 2.50343 86.0599C-11.7429 92.1375 -28.2028 85.5478 -34.2639 71.3402C-40.3249 57.1326 -33.6939 40.6828 -19.4476 34.6052Z" fill="url(#paint3_linear_5481_99630)"/>
<circle cx="45.2009" cy="8.67178" r="20.8826" transform="rotate(-0.0800682 45.2009 8.67178)" fill="url(#paint4_radial_5481_99630)"/>
</g>
</g>

</svg>
