<svg width="48" height="48" viewBox="0 0 48 48" xmlns="http://www.w3.org/2000/svg">
  <defs>
<radialGradient id="paint0_radial_6748_75790" cx="0" cy="0" r="1" gradientUnits="userSpaceOnUse" gradientTransform="translate(27.1423 1.86222) rotate(90) scale(20.8826)">
<stop offset="0.166667" stop-color="#FF709F"/>
<stop offset="1" stop-color="#FF709F" stop-opacity="0"/>
</radialGradient>
<linearGradient id="paint1_linear_6748_75790" x1="-12.0622" y1="42.8952" x2="65.9766" y2="-4.58296" gradientUnits="userSpaceOnUse">
<stop offset="0.0598452" stop-color="#8480FE"/>
<stop offset="0.599632" stop-color="#8480FE" stop-opacity="0"/>
</linearGradient>
<linearGradient id="paint2_linear_6748_75790" x1="50.5621" y1="8.84155" x2="17.0836" y2="44.8401" gradientUnits="userSpaceOnUse">
<stop stop-color="#EB1000"/>
<stop offset="1" stop-color="#EB1000" stop-opacity="0"/>
</linearGradient>
<linearGradient id="paint3_linear_6748_75790" x1="9.87765" y1="49.8089" x2="69.2259" y2="16.5628" gradientUnits="userSpaceOnUse">
<stop stop-color="#FC7D00" stop-opacity="0"/>
<stop offset="0.432292" stop-color="#FC7D00"/>
<stop offset="0.609375" stop-color="#FC7D00"/>
<stop offset="1" stop-color="#FC7D00" stop-opacity="0"/>
</linearGradient>
<radialGradient id="paint4_radial_6748_75790" cx="0" cy="0" r="1" gradientUnits="userSpaceOnUse" gradientTransform="translate(45.2009 8.67178) rotate(90) scale(20.8826)">
<stop offset="0.166667" stop-color="#EB1000"/>
<stop offset="1" stop-color="#EB1000" stop-opacity="0"/>
</radialGradient>
</defs>
<clipPath id="mask0_6748_75790">
<path fill-rule="evenodd" d="M28.4105 7.53092L42.1747 17.0301C43.8753 18.2038 43.908 20.7052 42.2386 21.9229L24.9856 34.5075C23.9641 35.2526 22.585 35.2772 21.5375 34.569L7.77975 25.268C7.52775 25.0977 7.31163 24.8982 7.13157 24.678C7.04499 25.0421 7 25.4187 7 25.8008C6.99999 27.4246 7.81162 28.9408 9.1628 29.8413L22.8905 38.9901C23.2411 39.2237 23.7005 39.2126 24.0393 38.9622L41.6557 25.9453C42.0999 25.6171 42.726 25.7111 43.0542 26.1553C43.3824 26.5995 43.2884 27.2256 42.8442 27.5538L25.2279 40.5707C24.2113 41.3219 22.8331 41.3553 21.7813 40.6544L8.05365 31.5056C6.14592 30.2342 4.99998 28.0934 5 25.8008C5.00002 23.6316 6.02661 21.5905 7.76803 20.2971L13.9129 15.7334C13.9553 15.7019 13.9994 15.6743 14.0447 15.6504L24.9201 7.58983C25.9512 6.82562 27.3542 6.80194 28.4105 7.53092ZM25.2317 14.6909C24.7756 14.3795 24.1534 14.4967 23.842 14.9528C23.5305 15.4089 23.6478 16.0311 24.1039 16.3426L31.936 21.6908C32.3921 22.0022 33.0143 21.885 33.3257 21.4289C33.6372 20.9728 33.5199 20.3506 33.0638 20.0391L25.2317 14.6909ZM20.7337 17.5788C20.4223 18.0349 20.5395 18.6571 20.9956 18.9685L28.8277 24.3168C29.2838 24.6282 29.906 24.511 30.2175 24.0549C30.5289 23.5988 30.4117 22.9766 29.9556 22.6651L22.1235 17.3169C21.6674 17.0054 21.0452 17.1227 20.7337 17.5788Z" fill="white"/>
<path fill-rule="evenodd" d="M28.4105 7.53092L42.1747 17.0301C43.8753 18.2038 43.908 20.7052 42.2386 21.9229L24.9856 34.5075C23.9641 35.2526 22.585 35.2772 21.5375 34.569L7.77975 25.268C7.52775 25.0977 7.31163 24.8982 7.13157 24.678C7.04499 25.0421 7 25.4187 7 25.8008C6.99999 27.4246 7.81162 28.9408 9.1628 29.8413L22.8905 38.9901C23.2411 39.2237 23.7005 39.2126 24.0393 38.9622L41.6557 25.9453C42.0999 25.6171 42.726 25.7111 43.0542 26.1553C43.3824 26.5995 43.2884 27.2256 42.8442 27.5538L25.2279 40.5707C24.2113 41.3219 22.8331 41.3553 21.7813 40.6544L8.05365 31.5056C6.14592 30.2342 4.99998 28.0934 5 25.8008C5.00002 23.6316 6.02661 21.5905 7.76803 20.2971L13.9129 15.7334C13.9553 15.7019 13.9994 15.6743 14.0447 15.6504L24.9201 7.58983C25.9512 6.82562 27.3542 6.80194 28.4105 7.53092ZM25.2317 14.6909C24.7756 14.3795 24.1534 14.4967 23.842 14.9528C23.5305 15.4089 23.6478 16.0311 24.1039 16.3426L31.936 21.6908C32.3921 22.0022 33.0143 21.885 33.3257 21.4289C33.6372 20.9728 33.5199 20.3506 33.0638 20.0391L25.2317 14.6909ZM20.7337 17.5788C20.4223 18.0349 20.5395 18.6571 20.9956 18.9685L28.8277 24.3168C29.2838 24.6282 29.906 24.511 30.2175 24.0549C30.5289 23.5988 30.4117 22.9766 29.9556 22.6651L22.1235 17.3169C21.6674 17.0054 21.0452 17.1227 20.7337 17.5788Z" stroke="white"/>
</clipPath>
<g clip-path="url(#mask0_6748_75790)">
<rect width="48" height="48" rx="5.125" fill="#FFECCF"/>
<rect width="48" height="48" fill="#FFECCF"/>
<circle cx="27.1423" cy="1.86221" r="20.8826" transform="rotate(-0.0800682 27.1423 1.86221)" fill="url(#paint0_radial_6748_75790)"/>
<path d="M18.3213 -8.47858C14.635 -10.7597 9.96439 -10.7737 6.26433 -8.51465L-30.7429 14.0808C-34.3673 16.2938 -34.3733 21.5172 -30.7539 23.7386L6.00883 46.302C9.70335 48.5691 14.374 48.5664 18.0653 46.2939L54.7523 23.7094C58.3526 21.4928 58.3591 16.2985 54.7632 14.0735L18.3213 -8.47858Z" fill="url(#paint1_linear_6748_75790)"/>
<path d="M6.91632 22.7894C7.73673 4.86956 22.9287 -8.99224 40.8485 -8.17184C58.7683 -7.35143 72.6301 7.84053 71.8097 25.7603C70.9893 43.6802 55.7973 57.542 37.8775 56.7215C19.9577 55.9011 6.09591 40.7092 6.91632 22.7894Z" fill="url(#paint2_linear_6748_75790)"/>
<path d="M-19.4476 34.6052C-12.3244 31.5664 -4.64219 31.6967 2.01351 34.3546C15.3317 39.6865 23.0811 36.39 28.456 23.1023C31.1333 16.4345 36.3604 10.7876 43.4915 7.74541C57.7492 1.67237 74.2091 8.26203 80.2736 22.4776C86.338 36.6931 79.7002 53.1271 65.4459 59.2081C58.2988 62.2571 50.6018 62.1143 43.9359 59.4324C30.6393 54.129 22.9046 57.438 17.5365 70.7417C14.8525 77.3935 9.62658 83.0211 2.50343 86.0599C-11.7429 92.1375 -28.2028 85.5478 -34.2639 71.3402C-40.3249 57.1326 -33.6939 40.6828 -19.4476 34.6052Z" fill="url(#paint3_linear_6748_75790)"/>
<circle cx="45.2009" cy="8.67178" r="20.8826" transform="rotate(-0.0800682 45.2009 8.67178)" fill="url(#paint4_radial_6748_75790)"/>
</g>

</svg>
