<svg width="96" height="96" viewBox="0 0 96 96" xmlns="http://www.w3.org/2000/svg">
  <defs>
<radialGradient id="paint0_radial_5481_99590" cx="0" cy="0" r="1" gradientUnits="userSpaceOnUse" gradientTransform="translate(54.2806 3.72443) rotate(90) scale(41.7653)">
<stop offset="0.166667" stop-color="#FF709F"/>
<stop offset="1" stop-color="#FF709F" stop-opacity="0"/>
</radialGradient>
<linearGradient id="paint1_linear_5481_99590" x1="-24.1244" y1="85.7904" x2="131.953" y2="-9.16592" gradientUnits="userSpaceOnUse">
<stop offset="0.0598452" stop-color="#8480FE"/>
<stop offset="0.599632" stop-color="#8480FE" stop-opacity="0"/>
</linearGradient>
<linearGradient id="paint2_linear_5481_99590" x1="101.128" y1="17.6841" x2="34.1712" y2="89.6813" gradientUnits="userSpaceOnUse">
<stop stop-color="#EB1000"/>
<stop offset="1" stop-color="#EB1000" stop-opacity="0"/>
</linearGradient>
<linearGradient id="paint3_linear_5481_99590" x1="19.7553" y1="99.6177" x2="138.452" y2="33.1256" gradientUnits="userSpaceOnUse">
<stop stop-color="#FC7D00" stop-opacity="0"/>
<stop offset="0.432292" stop-color="#FC7D00"/>
<stop offset="0.609375" stop-color="#FC7D00"/>
<stop offset="1" stop-color="#FC7D00" stop-opacity="0"/>
</linearGradient>
<radialGradient id="paint4_radial_5481_99590" cx="0" cy="0" r="1" gradientUnits="userSpaceOnUse" gradientTransform="translate(90.4056 17.3445) rotate(90) scale(41.7653)">
<stop offset="0.166667" stop-color="#EB1000"/>
<stop offset="1" stop-color="#EB1000" stop-opacity="0"/>
</radialGradient>
<clipPath id="clip0_5481_99590">
<rect y="0.000976562" width="96" height="96" rx="5.125" fill="white"/>
</clipPath>
</defs>
<clipPath id="mask0_5481_99590">
<path fill-rule="evenodd" d="M18.2383 16.2617C17.1337 16.2617 16.2383 17.1571 16.2383 18.2617V31.5174C16.2383 32.622 17.1337 33.5174 18.2383 33.5174C19.3429 33.5174 20.2383 32.622 20.2383 31.5174V22.9944L45.1711 47.9272L20.2385 72.8597L20.2385 64.4852C20.2385 63.3806 19.3431 62.4852 18.2385 62.4852C17.1339 62.4852 16.2385 63.3806 16.2385 64.4852L16.2385 77.7408C16.2385 78.8454 17.1339 79.7408 18.2385 79.7408H31.5369C32.6415 79.7408 33.5369 78.8454 33.5369 77.7408C33.5369 76.6363 32.6415 75.7408 31.5369 75.7408H23.0143L47.9995 50.7556L72.9847 75.7408H64.4621C63.3575 75.7408 62.4621 76.6363 62.4621 77.7408C62.4621 78.8454 63.3575 79.7408 64.4621 79.7408H77.7605C78.8651 79.7408 79.7605 78.8454 79.7605 77.7408V64.4852C79.7605 63.3806 78.8651 62.4852 77.7605 62.4852C76.6559 62.4852 75.7605 63.3806 75.7605 64.4852V72.8597L50.8279 47.9272L75.7607 22.9944V31.5174C75.7607 32.622 76.6562 33.5174 77.7607 33.5174C78.8653 33.5174 79.7607 32.622 79.7607 31.5174V18.2617C79.7607 17.1571 78.8653 16.2617 77.7607 16.2617H64.4623C63.3577 16.2617 62.4623 17.1571 62.4623 18.2617C62.4623 19.3663 63.3577 20.2617 64.4623 20.2617H72.8365L47.9995 45.0987L23.1625 20.2617H31.5367C32.6413 20.2617 33.5367 19.3663 33.5367 18.2617C33.5367 17.1571 32.6413 16.2617 31.5367 16.2617H18.2383Z" fill="white"/>
</clipPath>
<g clip-path="url(#mask0_5481_99590)">
<g clip-path="url(#clip0_5481_99590)">
<rect y="0.000976562" width="96" height="96" rx="5.125" fill="#FFECCF"/>
<rect width="96" height="96" transform="translate(0 0.000976562)" fill="#FFECCF"/>
<circle cx="54.2806" cy="3.72443" r="41.7653" transform="rotate(-0.0800682 54.2806 3.72443)" fill="url(#paint0_radial_5481_99590)"/>
<path d="M36.6427 -16.9572C29.27 -21.5194 19.9288 -21.5473 12.5287 -17.0293L-61.4858 28.1616C-68.7346 32.5875 -68.7467 43.0344 -61.5078 47.4771L12.0177 92.6039C19.4067 97.1383 28.7479 97.1329 36.1306 92.5877L109.505 47.4187C116.705 42.9855 116.718 32.597 109.526 28.1471L36.6427 -16.9572Z" fill="url(#paint1_linear_5481_99590)"/>
<path d="M13.8365 45.5797C15.4774 9.7401 45.8613 -17.9835 81.7009 -16.3427C117.541 -14.7019 145.264 15.682 143.623 51.5217C141.982 87.3613 111.599 115.085 75.759 113.444C39.9193 111.803 12.1957 81.4194 13.8365 45.5797Z" fill="url(#paint2_linear_5481_99590)"/>
<path d="M-38.8952 69.2103C-24.6489 63.1327 -9.28437 63.3933 4.02702 68.7093C30.6634 79.3731 46.1622 72.7799 56.9121 46.2046C62.2666 32.8691 72.7207 21.5752 86.983 15.4908C115.498 3.34474 148.418 16.5241 160.547 44.9552C172.676 73.3863 159.4 106.254 130.892 118.416C116.598 124.514 101.204 124.229 87.8718 118.865C61.2786 108.258 45.8093 114.876 35.073 141.483C29.7049 154.787 19.2532 166.042 5.00686 172.12C-23.4858 184.275 -56.4056 171.096 -68.5277 142.68C-80.6499 114.265 -67.3878 81.3655 -38.8952 69.2103Z" fill="url(#paint3_linear_5481_99590)"/>
<circle cx="90.4056" cy="17.3445" r="41.7653" transform="rotate(-0.0800682 90.4056 17.3445)" fill="url(#paint4_radial_5481_99590)"/>
</g>
</g>

</svg>
