<svg width="160" height="160" viewBox="0 0 160 160" xmlns="http://www.w3.org/2000/svg">
  <defs>
<radialGradient id="paint0_radial_5481_89947" cx="0" cy="0" r="1" gradientUnits="userSpaceOnUse" gradientTransform="translate(90.4677 6.20574) rotate(90) scale(69.6088)">
<stop offset="0.166667" stop-color="#FF709F"/>
<stop offset="1" stop-color="#FF709F" stop-opacity="0"/>
</radialGradient>
<linearGradient id="paint1_linear_5481_89947" x1="-40.2086" y1="142.983" x2="219.921" y2="-15.2772" gradientUnits="userSpaceOnUse">
<stop offset="0.0598452" stop-color="#8480FE"/>
<stop offset="0.599632" stop-color="#8480FE" stop-opacity="0"/>
</linearGradient>
<linearGradient id="paint2_linear_5481_89947" x1="168.544" y1="29.4718" x2="56.9494" y2="149.467" gradientUnits="userSpaceOnUse">
<stop stop-color="#EB1000"/>
<stop offset="1" stop-color="#EB1000" stop-opacity="0"/>
</linearGradient>
<linearGradient id="paint3_linear_5481_89947" x1="32.9255" y1="166.029" x2="230.753" y2="55.2086" gradientUnits="userSpaceOnUse">
<stop stop-color="#FC7D00" stop-opacity="0"/>
<stop offset="0.432292" stop-color="#FC7D00"/>
<stop offset="0.609375" stop-color="#FC7D00"/>
<stop offset="1" stop-color="#FC7D00" stop-opacity="0"/>
</linearGradient>
<radialGradient id="paint4_radial_5481_89947" cx="0" cy="0" r="1" gradientUnits="userSpaceOnUse" gradientTransform="translate(150.675 28.9059) rotate(90) scale(69.6088)">
<stop offset="0.166667" stop-color="#EB1000"/>
<stop offset="1" stop-color="#EB1000" stop-opacity="0"/>
</radialGradient>
<clipPath id="clip0_5481_89947">
<rect width="160" height="160" rx="5.125" fill="white"/>
</clipPath>
</defs>
<clipPath id="mask0_5481_89947">
<path d="M125.071 21.7228C125.997 20.6526 127.605 19.7563 128.595 20.0599L128.603 20.0681C130.195 20.0681 131.731 20.9325 132.61 22.3156C133.481 23.6822 133.624 25.411 132.998 26.9505L127.605 40.1472L135.429 43.5884C136.847 44.2058 137.884 45.5066 138.217 47.0625C138.55 48.6185 138.138 50.2567 137.108 51.4422L116.676 75.0202C115.758 76.0822 114.506 76.6667 113.168 76.6667C111.576 76.6667 110.04 75.8105 109.161 74.4274C108.29 73.0691 108.139 71.332 108.765 69.8008L113.984 56.9333L106.207 53.451C104.805 52.8253 103.776 51.5246 103.443 49.9768C103.11 48.4291 103.522 46.8073 104.536 45.6218L125.071 21.7228Z" fill="#D9D9D9"/>
<path d="M16.4478 93.333C16.4478 91.1239 18.2386 89.333 20.4478 89.333H67.3581C69.5672 89.333 71.3581 91.1239 71.3581 93.333L71.3579 93.3717V102.715C71.3579 104.924 69.5671 106.715 67.3579 106.715C65.1488 106.715 63.3579 104.924 63.3579 102.715V97.333H47.9009V136.244H53.2842C55.4933 136.244 57.2842 138.035 57.2842 140.244C57.2842 142.453 55.4933 144.244 53.2842 144.244H34.52C32.3109 144.244 30.52 142.453 30.52 140.244C30.52 138.035 32.3109 136.244 34.52 136.244H39.9009V97.333H24.4478V102.715C24.4478 104.924 22.6569 106.715 20.4478 106.715C18.2386 106.715 16.4478 104.924 16.4478 102.715V93.333Z" fill="#D9D9D9"/>
<path fill-rule="evenodd" d="M89.9978 106.666V127.916C89.9978 135.28 95.9673 141.25 103.331 141.25H139.164C146.528 141.25 152.498 135.28 152.498 127.916V106.666C152.498 99.3026 146.528 93.333 139.164 93.333H103.331C95.9673 93.333 89.9978 99.3025 89.9978 106.666ZM117.789 108.413L130.085 115.432C131.462 116.219 131.46 118.18 130.081 118.963L117.768 125.953C116.389 126.736 114.667 125.753 114.669 124.184L114.686 110.175C114.688 108.606 116.412 107.627 117.789 108.413Z" fill="#D9D9D9"/>
<path fill-rule="evenodd" d="M11.6641 57.9163V36.6663C11.6641 29.3025 17.6336 23.333 24.9974 23.333H61.8724C69.2362 23.333 75.2057 29.3026 75.2057 36.6664V57.9163C75.2057 59.955 74.7482 61.8869 73.9302 63.6147L67.1357 53.0139C63.2013 46.8754 54.2318 46.8754 50.2974 53.0139L47.608 57.21L40.5105 46.1138C36.5797 39.9683 27.6038 39.9641 23.6673 46.106L12.7355 63.1618C12.0459 61.5518 11.6641 59.7787 11.6641 57.9163ZM62.4961 40C64.9814 40 66.9961 37.9853 66.9961 35.5C66.9961 33.0147 64.9814 31 62.4961 31C60.0108 31 57.9961 33.0147 57.9961 35.5C57.9961 37.9853 60.0108 40 62.4961 40Z" fill="#D9D9D9"/>
<path d="M42.8548 64.6259L33.7712 50.4245C32.985 49.1954 31.1899 49.1945 30.4026 50.4229L18.2335 69.4091C20.2165 70.5787 22.5286 71.2497 24.9974 71.2497H38.6094L42.8548 64.6259Z" fill="#D9D9D9"/>
<path d="M48.1116 71.2497H61.8724C64.1923 71.2497 66.3739 70.6572 68.274 69.6153L60.4004 57.3308C59.6135 56.1031 57.8196 56.1031 57.0327 57.3308L48.1116 71.2497Z" fill="#D9D9D9"/>
</clipPath>
<g clip-path="url(#mask0_5481_89947)">
<g clip-path="url(#clip0_5481_89947)">
<rect width="160" height="160" rx="5.125" fill="#FFECCF"/>
<rect width="160" height="160" fill="#FFECCF"/>
<circle cx="90.4677" cy="6.20574" r="69.6087" transform="rotate(-0.0800682 90.4677 6.20574)" fill="url(#paint0_radial_5481_89947)"/>
<path d="M61.0698 -28.2626C48.782 -35.8663 33.2133 -35.9129 20.8798 -28.3828L-102.478 46.9353C-114.559 54.3119 -114.579 71.7234 -102.514 79.1279L20.0281 154.339C32.3432 161.896 47.9119 161.887 60.2163 154.312L182.506 79.0306C194.507 71.6419 194.529 54.3277 182.543 46.9111L61.0698 -28.2626Z" fill="url(#paint1_linear_5481_89947)"/>
<path d="M23.0583 75.9646C25.793 16.2319 76.4328 -29.9741 136.166 -27.2395C195.898 -24.5048 242.104 26.1351 239.37 85.8678C236.635 145.601 185.995 191.807 126.262 189.072C66.5296 186.337 20.3236 135.697 23.0583 75.9646Z" fill="url(#paint2_linear_5481_89947)"/>
<path d="M-64.8253 115.35C-41.0814 105.221 -15.474 105.655 6.71169 114.515C51.1056 132.288 76.9371 121.299 94.8534 77.0069C103.778 54.7811 121.201 35.958 144.972 25.8174C192.497 5.57391 247.364 27.5395 267.579 74.9246C287.793 122.31 265.667 177.09 218.153 197.36C194.329 207.523 168.673 207.047 146.453 198.107C102.131 180.429 76.3488 191.459 58.4551 235.805C49.5082 257.978 32.0886 276.736 8.34476 286.866C-39.1429 307.124 -94.0093 285.159 -114.213 237.8C-134.416 190.441 -112.313 135.609 -64.8253 115.35Z" fill="url(#paint3_linear_5481_89947)"/>
<circle cx="150.675" cy="28.9059" r="69.6087" transform="rotate(-0.0800682 150.675 28.9059)" fill="url(#paint4_radial_5481_89947)"/>
</g>
</g>

</svg>
