<svg width="96" height="96" viewBox="0 0 96 96" xmlns="http://www.w3.org/2000/svg">
  <defs>
<radialGradient id="paint0_radial_5481_99479" cx="0" cy="0" r="1" gradientUnits="userSpaceOnUse" gradientTransform="translate(54.2806 3.72345) rotate(90) scale(41.7653)">
<stop offset="0.166667" stop-color="#FF709F"/>
<stop offset="1" stop-color="#FF709F" stop-opacity="0"/>
</radialGradient>
<linearGradient id="paint1_linear_5481_99479" x1="-24.1244" y1="85.7895" x2="131.953" y2="-9.16689" gradientUnits="userSpaceOnUse">
<stop offset="0.0598452" stop-color="#8480FE"/>
<stop offset="0.599632" stop-color="#8480FE" stop-opacity="0"/>
</linearGradient>
<linearGradient id="paint2_linear_5481_99479" x1="101.128" y1="17.6831" x2="34.1712" y2="89.6803" gradientUnits="userSpaceOnUse">
<stop stop-color="#EB1000"/>
<stop offset="1" stop-color="#EB1000" stop-opacity="0"/>
</linearGradient>
<linearGradient id="paint3_linear_5481_99479" x1="19.7553" y1="99.6167" x2="138.452" y2="33.1246" gradientUnits="userSpaceOnUse">
<stop stop-color="#FC7D00" stop-opacity="0"/>
<stop offset="0.432292" stop-color="#FC7D00"/>
<stop offset="0.609375" stop-color="#FC7D00"/>
<stop offset="1" stop-color="#FC7D00" stop-opacity="0"/>
</linearGradient>
<radialGradient id="paint4_radial_5481_99479" cx="0" cy="0" r="1" gradientUnits="userSpaceOnUse" gradientTransform="translate(90.4056 17.3436) rotate(90) scale(41.7653)">
<stop offset="0.166667" stop-color="#EB1000"/>
<stop offset="1" stop-color="#EB1000" stop-opacity="0"/>
</radialGradient>
<clipPath id="clip0_5481_99479">
<rect width="96" height="96" rx="5.125" fill="white"/>
</clipPath>
</defs>
<clipPath id="mask0_5481_99479">
<path fill-rule="evenodd" d="M49.9998 14.9844C49.9998 13.8798 49.1043 12.9844 47.9998 12.9844C46.8952 12.9844 45.9998 13.8798 45.9998 14.9844L45.9998 81.0156C45.9998 82.1202 46.8952 83.0156 47.9998 83.0156C49.1043 83.0156 49.9998 82.1202 49.9998 81.0156L49.9998 14.9844ZM18.25 41.0156C19.3546 41.0156 20.25 41.9111 20.25 43.0156L20.25 52.9844C20.25 54.0889 19.3546 54.9844 18.25 54.9844C17.1454 54.9844 16.25 54.0889 16.25 52.9844V43.0156C16.25 41.9111 17.1454 41.0156 18.25 41.0156ZM77.7493 41.0156C78.8538 41.0156 79.7493 41.9111 79.7493 43.0156V52.9844C79.7493 54.0889 78.8538 54.9844 77.7493 54.9844C76.6447 54.9844 75.7493 54.0889 75.7493 52.9844V43.0156C75.7493 41.9111 76.6447 41.0156 77.7493 41.0156ZM38.0833 29.002C39.1878 29.002 40.0833 29.8974 40.0833 31.002L40.0833 64.998C40.0833 66.1026 39.1878 66.998 38.0833 66.998C36.9787 66.998 36.0833 66.1026 36.0833 64.998L36.0833 31.002C36.0833 29.8974 36.9787 29.002 38.0833 29.002ZM59.9163 31.002C59.9163 29.8974 59.0208 29.002 57.9163 29.002C56.8117 29.002 55.9163 29.8974 55.9163 31.002V64.998C55.9163 66.1026 56.8117 66.998 57.9163 66.998C59.0208 66.998 59.9163 66.1026 59.9163 64.998V31.002ZM28.1667 21C29.2713 21 30.1667 21.8954 30.1667 23L30.1667 73C30.1667 74.1046 29.2713 75 28.1667 75C27.0622 75 26.1667 74.1046 26.1667 73L26.1667 23C26.1667 21.8954 27.0622 21 28.1667 21ZM69.8328 23C69.8328 21.8954 68.9373 21 67.8328 21C66.7282 21 65.8328 21.8954 65.8328 23L65.8328 73C65.8328 74.1046 66.7282 75 67.8328 75C68.9373 75 69.8328 74.1046 69.8328 73L69.8328 23Z" fill="#292929"/>
</clipPath>
<g clip-path="url(#mask0_5481_99479)">
<g clip-path="url(#clip0_5481_99479)">
<rect width="96" height="96" rx="5.125" fill="#FFECCF"/>
<rect width="96" height="96" fill="#FFECCF"/>
<circle cx="54.2806" cy="3.72345" r="41.7653" transform="rotate(-0.0800682 54.2806 3.72345)" fill="url(#paint0_radial_5481_99479)"/>
<path d="M36.6427 -16.9581C29.27 -21.5204 19.9288 -21.5483 12.5287 -17.0303L-61.4858 28.1606C-68.7346 32.5865 -68.7467 43.0335 -61.5078 47.4761L12.0177 92.6029C19.4067 97.1373 28.7479 97.1319 36.1306 92.5868L109.505 47.4178C116.705 42.9845 116.718 32.596 109.526 28.1461L36.6427 -16.9581Z" fill="url(#paint1_linear_5481_99479)"/>
<path d="M13.8365 45.5788C15.4774 9.73912 45.8613 -17.9845 81.7009 -16.3437C117.541 -14.7029 145.264 15.6811 143.623 51.5207C141.982 87.3603 111.599 115.084 75.759 113.443C39.9193 111.802 12.1957 81.4184 13.8365 45.5788Z" fill="url(#paint2_linear_5481_99479)"/>
<path d="M-38.8952 69.2093C-24.6489 63.1318 -9.28437 63.3923 4.02702 68.7083C30.6634 79.3721 46.1622 72.779 56.9121 46.2036C62.2666 32.8681 72.7207 21.5742 86.983 15.4898C115.498 3.34376 148.418 16.5231 160.547 44.9542C172.676 73.3853 159.4 106.253 130.892 118.415C116.598 124.513 101.204 124.228 87.8718 118.864C61.2786 108.257 45.8093 114.875 35.073 141.482C29.7049 154.786 19.2532 166.041 5.00686 172.119C-23.4858 184.274 -56.4056 171.095 -68.5277 142.679C-80.6499 114.264 -67.3878 81.3645 -38.8952 69.2093Z" fill="url(#paint3_linear_5481_99479)"/>
<circle cx="90.4056" cy="17.3436" r="41.7653" transform="rotate(-0.0800682 90.4056 17.3436)" fill="url(#paint4_radial_5481_99479)"/>
</g>
</g>

</svg>
