<svg width="48" height="48" viewBox="0 0 48 48" xmlns="http://www.w3.org/2000/svg">
  <defs>
<radialGradient id="paint0_radial_5481_99402" cx="0" cy="0" r="1" gradientUnits="userSpaceOnUse" gradientTransform="translate(17.1759 16.1913) rotate(90) scale(16.1913 17.1759)">
<stop offset="0.166667" stop-color="#FF709F"/>
<stop offset="1" stop-color="#FF709F" stop-opacity="0"/>
</radialGradient>
<linearGradient id="paint1_linear_5481_99402" x1="-4.40028" y1="39.3698" x2="57.6846" y2="-0.699067" gradientUnits="userSpaceOnUse">
<stop offset="0.0598452" stop-color="#8480FE"/>
<stop offset="0.599632" stop-color="#8480FE" stop-opacity="0"/>
</linearGradient>
<linearGradient id="paint2_linear_5481_99402" x1="47.109" y1="12.9668" x2="21.3069" y2="42.3983" gradientUnits="userSpaceOnUse">
<stop stop-color="#EB1000"/>
<stop offset="1" stop-color="#EB1000" stop-opacity="0"/>
</linearGradient>
<linearGradient id="paint3_linear_5481_99402" x1="13.6428" y1="44.7302" x2="61.0378" y2="16.5656" gradientUnits="userSpaceOnUse">
<stop stop-color="#FC7D00" stop-opacity="0"/>
<stop offset="0.432292" stop-color="#FC7D00"/>
<stop offset="0.609375" stop-color="#FC7D00"/>
<stop offset="1" stop-color="#FC7D00" stop-opacity="0"/>
</linearGradient>
<radialGradient id="paint4_radial_5481_99402" cx="0" cy="0" r="1" gradientUnits="userSpaceOnUse" gradientTransform="translate(17.1759 16.1913) rotate(90) scale(16.1913 17.1759)">
<stop offset="0.166667" stop-color="#EB1000"/>
<stop offset="1" stop-color="#EB1000" stop-opacity="0"/>
</radialGradient>
<clipPath id="clip0_5481_99402">
<rect x="5.51953" y="6.11133" width="39.4799" height="37.2167" rx="1.03837" fill="white"/>
</clipPath>
</defs>
<clipPath id="mask0_5481_99402">
<path fill-rule="evenodd" d="M37.6281 14.5412V29.2412C37.6281 31.8932 35.4801 34.0412 32.8281 34.0412H10.6281C7.97612 34.0412 5.82812 31.8932 5.82812 29.2412V14.5412C5.82812 11.8892 7.97612 9.74121 10.6281 9.74121H32.8281C35.4801 9.74121 37.6281 11.8892 37.6281 14.5412ZM33.4161 16.6052C33.4161 15.1592 32.2431 13.9862 30.7971 13.9862C29.3511 13.9862 28.1781 15.1592 28.1781 16.6052C28.1781 18.0512 29.3511 19.2242 30.7971 19.2242C32.2431 19.2242 33.4161 18.0512 33.4161 16.6052ZM8.69312 28.8662C7.92512 30.0632 8.78312 31.6382 10.2081 31.6382V31.6352H33.0621C34.4871 31.6352 35.3451 30.0602 34.5771 28.8632L31.0431 23.3582C30.3351 22.2542 28.7211 22.2542 28.0131 23.3582L24.0051 29.6042L17.6271 19.6682C16.9191 18.5642 15.3051 18.5642 14.5971 19.6682L8.69312 28.8662ZM40.9704 19.9472C40.9704 19.2842 41.5074 18.7472 42.1704 18.7472H42.1734C42.8364 18.7472 43.3734 19.2842 43.3734 19.9472V32.2622C43.3734 36.2312 40.1424 39.4622 36.1734 39.4622L16.3914 39.4472C15.7284 39.4472 15.1914 38.9102 15.1914 38.2472C15.1914 37.5842 15.7284 37.0472 16.3914 37.0472L36.1704 37.0622C38.8164 37.0622 40.9704 34.9082 40.9704 32.2622V19.9472Z" fill="white"/>
</clipPath>
<g clip-path="url(#mask0_5481_99402)">
<g clip-path="url(#clip0_5481_99402)">
<rect x="5.51953" y="6.11133" width="39.4799" height="37.2167" rx="1.03837" fill="#FFECCF"/>
<rect width="39.4799" height="37.2167" transform="translate(5.51953 6.11133)" fill="#FFECCF"/>
<ellipse cx="17.1759" cy="16.1913" rx="17.1759" ry="16.1913" transform="matrix(0.999999 -0.00131734 0.00148243 0.999999 10.6445 -8.61426)" fill="url(#paint0_radial_5481_99402)"/>
<path d="M20.5901 -0.462785C17.5581 -2.23144 13.7165 -2.24227 10.6732 -0.490747L-19.7651 17.0286C-22.7462 18.7444 -22.7511 22.7944 -19.7742 24.5167L10.4631 42.0112C13.5018 43.7691 17.3434 43.767 20.3795 42.0049L50.5544 24.4941C53.5157 22.7754 53.5211 18.7481 50.5635 17.023L20.5901 -0.462785Z" fill="url(#paint1_linear_5481_99402)"/>
<path d="M11.2104 23.7812C11.8852 9.88708 24.3806 -0.860642 39.1196 -0.224539C53.8586 0.411564 65.2599 12.1906 64.5851 26.0847C63.9103 39.9788 51.415 50.7265 36.676 50.0904C21.937 49.4543 10.5356 37.6753 11.2104 23.7812Z" fill="url(#paint2_linear_5481_99402)"/>
<path d="M-10.4772 32.942C-4.6184 30.5859 1.70023 30.6869 7.17452 32.7478C18.1287 36.8819 24.5026 34.3259 28.9234 24.0233C31.1255 18.8535 35.4247 14.4751 41.2901 12.1164C53.017 7.40767 66.5552 12.5169 71.5432 23.5389C76.5313 34.5609 71.0716 47.303 59.3475 52.0179C53.469 54.3819 47.1383 54.2712 41.6556 52.1918C30.7192 48.0798 24.3574 50.6455 19.9422 60.9604C17.7345 66.1179 13.4363 70.4812 7.57748 72.8373C-4.14007 77.5496 -17.6783 72.4403 -22.6635 61.4245C-27.6487 50.4087 -22.1947 37.6543 -10.4772 32.942Z" fill="url(#paint3_linear_5481_99402)"/>
<ellipse cx="17.1759" cy="16.1913" rx="17.1759" ry="16.1913" transform="matrix(0.999999 -0.00131734 0.00148243 0.999999 25.5 -3.33398)" fill="url(#paint4_radial_5481_99402)"/>
</g>
</g>

</svg>
