<svg width="96" height="96" viewBox="0 0 96 96" xmlns="http://www.w3.org/2000/svg">
  <defs>
<radialGradient id="paint0_radial_5481_99437" cx="0" cy="0" r="1" gradientUnits="userSpaceOnUse" gradientTransform="translate(34.1954 32.2352) rotate(90) scale(32.2352 34.1954)">
<stop offset="0.166667" stop-color="#FF709F"/>
<stop offset="1" stop-color="#FF709F" stop-opacity="0"/>
</radialGradient>
<linearGradient id="paint1_linear_5481_99437" x1="-11.3554" y1="77.0141" x2="112.249" y2="-2.75872" gradientUnits="userSpaceOnUse">
<stop offset="0.0598452" stop-color="#8480FE"/>
<stop offset="0.599632" stop-color="#8480FE" stop-opacity="0"/>
</linearGradient>
<linearGradient id="paint2_linear_5481_99437" x1="91.1941" y1="24.4481" x2="39.825" y2="83.0431" gradientUnits="userSpaceOnUse">
<stop stop-color="#EB1000"/>
<stop offset="1" stop-color="#EB1000" stop-opacity="0"/>
</linearGradient>
<linearGradient id="paint3_linear_5481_99437" x1="24.5743" y1="87.6863" x2="118.933" y2="31.6135" gradientUnits="userSpaceOnUse">
<stop stop-color="#FC7D00" stop-opacity="0"/>
<stop offset="0.432292" stop-color="#FC7D00"/>
<stop offset="0.609375" stop-color="#FC7D00"/>
<stop offset="1" stop-color="#FC7D00" stop-opacity="0"/>
</linearGradient>
<radialGradient id="paint4_radial_5481_99437" cx="0" cy="0" r="1" gradientUnits="userSpaceOnUse" gradientTransform="translate(34.1954 32.2352) rotate(90) scale(32.2352 34.1954)">
<stop offset="0.166667" stop-color="#EB1000"/>
<stop offset="1" stop-color="#EB1000" stop-opacity="0"/>
</radialGradient>
<clipPath id="clip0_5481_99437">
<rect x="8.39844" y="10.7998" width="78.6002" height="74.0945" rx="2.07674" fill="white"/>
</clipPath>
</defs>
<clipPath id="mask0_5481_99437">
<path fill-rule="evenodd" d="M51.2176 16.0441L76.7596 28.7881C79.2016 30.0061 80.7436 32.5021 80.7436 35.2321V60.7081C80.7436 63.4321 79.2076 65.9281 76.7716 67.1461L51.2296 79.9441C49.2016 80.9641 46.8076 80.9641 44.7796 79.9441L19.2376 67.1461C16.8016 65.9221 15.2656 63.4321 15.2656 60.7081V35.2321C15.2656 32.5021 16.8076 30.0061 19.2496 28.7881L44.7916 16.0441C46.8136 15.0361 49.1956 15.0361 51.2176 16.0441ZM30.7936 58.5601C31.6276 58.5601 32.4316 58.1281 32.8756 57.3601H32.8696L41.6596 42.1381C42.3256 40.9921 41.9296 39.5221 40.7836 38.8621C39.6376 38.1961 38.1676 38.5921 37.5076 39.7381L28.7176 54.9601C28.0516 56.1061 28.4476 57.5761 29.5936 58.2361C29.9716 58.4581 30.3856 58.5601 30.7936 58.5601ZM62.7976 58.5601C64.5316 58.5601 66.0856 57.6601 66.9556 56.1601C67.8256 54.6541 67.8256 52.8601 66.9556 51.3601L58.8376 37.3021C57.9676 35.8021 56.4136 34.9021 54.6796 34.9021C52.9456 34.9021 51.3916 35.8021 50.5216 37.3021L42.4036 51.3601C41.5336 52.8601 41.5336 54.6601 42.4036 56.1601C43.2736 57.6601 44.8276 58.5601 46.5616 58.5601H62.7976ZM54.6856 39.7021L62.8036 53.7601H46.5676L54.6856 39.7021Z" fill="white"/>
</clipPath>
<g clip-path="url(#mask0_5481_99437)">
<g clip-path="url(#clip0_5481_99437)">
<rect x="8.39844" y="10.7998" width="78.6002" height="74.0945" rx="2.07674" fill="#FFECCF"/>
<rect width="78.6002" height="74.0945" transform="translate(8.39844 10.7998)" fill="#FFECCF"/>
<ellipse cx="34.1954" cy="32.2352" rx="34.1954" ry="32.2352" transform="matrix(0.999999 -0.00131734 0.00148243 0.999999 18.5977 -18.5166)" fill="url(#paint0_radial_5481_99437)"/>
<path d="M38.3978 -2.2883C32.3614 -5.80951 24.7132 -5.83108 18.6544 -2.34397L-41.9452 32.5351C-47.8801 35.9512 -47.89 44.0143 -41.9631 47.4432L18.236 82.2729C24.2858 85.7726 31.9339 85.7684 37.9785 82.2604L98.0536 47.3982C103.949 43.9765 103.96 35.9585 98.0716 32.5239L38.3978 -2.2883Z" fill="url(#paint1_linear_5481_99437)"/>
<path d="M19.7239 45.9784C21.0673 18.3168 45.9442 -3.08079 75.288 -1.81437C104.632 -0.547961 127.331 22.9029 125.987 50.5645C124.644 78.2262 99.7668 99.6238 70.4231 98.3573C41.0793 97.0909 18.3805 73.6401 19.7239 45.9784Z" fill="url(#paint2_linear_5481_99437)"/>
<path d="M-23.4459 64.2173C-11.7817 59.5265 0.797992 59.7276 11.6967 63.8306C33.5053 72.0611 46.195 66.9724 54.9965 46.461C59.3805 36.1685 67.9399 27.4517 79.6172 22.7556C102.964 13.3811 129.917 23.5531 139.848 45.4967C149.779 67.4404 138.909 92.8084 115.568 102.195C103.864 106.902 91.2603 106.681 80.3448 102.542C58.5716 94.3549 45.9061 99.463 37.1157 119.999C32.7206 130.267 24.1632 138.954 12.499 143.645C-10.8294 153.026 -37.7826 142.854 -47.7076 120.923C-57.6327 98.9915 -46.7743 73.5989 -23.4459 64.2173Z" fill="url(#paint3_linear_5481_99437)"/>
<ellipse cx="34.1954" cy="32.2352" rx="34.1954" ry="32.2352" transform="matrix(0.999999 -0.00131734 0.00148243 0.999999 48.1758 -8.00391)" fill="url(#paint4_radial_5481_99437)"/>
</g>
</g>

</svg>
