<svg width="48" height="48" viewBox="0 0 48 48" xmlns="http://www.w3.org/2000/svg">
  <defs>
<radialGradient id="paint0_radial_5481_99474" cx="0" cy="0" r="1" gradientUnits="userSpaceOnUse" gradientTransform="translate(27.1423 1.86222) rotate(90) scale(20.8826)">
<stop offset="0.166667" stop-color="#FF709F"/>
<stop offset="1" stop-color="#FF709F" stop-opacity="0"/>
</radialGradient>
<linearGradient id="paint1_linear_5481_99474" x1="-12.0622" y1="42.8952" x2="65.9766" y2="-4.58296" gradientUnits="userSpaceOnUse">
<stop offset="0.0598452" stop-color="#8480FE"/>
<stop offset="0.599632" stop-color="#8480FE" stop-opacity="0"/>
</linearGradient>
<linearGradient id="paint2_linear_5481_99474" x1="50.5621" y1="8.84155" x2="17.0836" y2="44.8401" gradientUnits="userSpaceOnUse">
<stop stop-color="#EB1000"/>
<stop offset="1" stop-color="#EB1000" stop-opacity="0"/>
</linearGradient>
<linearGradient id="paint3_linear_5481_99474" x1="9.87765" y1="49.8089" x2="69.2259" y2="16.5628" gradientUnits="userSpaceOnUse">
<stop stop-color="#FC7D00" stop-opacity="0"/>
<stop offset="0.432292" stop-color="#FC7D00"/>
<stop offset="0.609375" stop-color="#FC7D00"/>
<stop offset="1" stop-color="#FC7D00" stop-opacity="0"/>
</linearGradient>
<radialGradient id="paint4_radial_5481_99474" cx="0" cy="0" r="1" gradientUnits="userSpaceOnUse" gradientTransform="translate(45.2009 8.67178) rotate(90) scale(20.8826)">
<stop offset="0.166667" stop-color="#EB1000"/>
<stop offset="1" stop-color="#EB1000" stop-opacity="0"/>
</radialGradient>
<clipPath id="clip0_5481_99474">
<rect width="48" height="48" rx="5.125" fill="white"/>
</clipPath>
</defs>
<clipPath id="mask0_5481_99474">
<path fill-rule="evenodd" d="M36.4403 25.2558C37.7882 24.0757 39.2516 22.792 39.7997 20.5293C41.2098 14.6818 35.0332 8.5 25.7699 8.5C16.5066 8.5 9 16.069 9 25.4067C9 34.7444 17.6382 41.5 26.8986 41.5C31.9909 41.5 39.7997 38.4121 39.3138 34.8361C39.0176 32.6474 37.5749 32.3634 36.2389 32.1031C35.0925 31.8783 34.026 31.6683 33.8305 30.287C33.4839 27.8498 34.8821 26.6223 36.4374 25.2618L36.4403 25.2558ZM18.8735 32.8751C17.2383 32.8751 15.9112 31.55 15.9112 29.9173C15.9112 28.2846 17.2383 26.9595 18.8735 26.9595C20.5088 26.9595 21.8359 28.2846 21.8359 29.9173C21.8359 31.55 20.5088 32.8751 18.8735 32.8751ZM18.8735 23.2446C17.2383 23.2446 15.9112 21.9195 15.9112 20.2868C15.9112 18.6541 17.2383 17.329 18.8735 17.329C20.5088 17.329 21.8359 18.6541 21.8359 20.2868C21.8359 21.9195 20.5088 23.2446 18.8735 23.2446ZM26.2795 37.0899C24.6442 37.0899 23.3171 35.7649 23.3171 34.1322C23.3171 32.4995 24.6442 31.1744 26.2795 31.1744C27.9147 31.1744 29.2418 32.4995 29.2418 34.1322C29.2418 35.7649 27.9147 37.0899 26.2795 37.0899ZM26.2795 19.3432C24.6442 19.3432 23.3171 18.0181 23.3171 16.3855C23.3171 14.7528 24.6442 13.4277 26.2795 13.4277C27.9147 13.4277 29.2418 14.7528 29.2418 16.3855C29.2418 18.0181 27.9147 19.3432 26.2795 19.3432Z" fill="#292929"/>
</clipPath>
<g clip-path="url(#mask0_5481_99474)">
<g clip-path="url(#clip0_5481_99474)">
<rect width="48" height="48" rx="5.125" fill="#FFECCF"/>
<rect width="48" height="48" fill="#FFECCF"/>
<circle cx="27.1423" cy="1.86221" r="20.8826" transform="rotate(-0.0800682 27.1423 1.86221)" fill="url(#paint0_radial_5481_99474)"/>
<path d="M18.3213 -8.47858C14.635 -10.7597 9.96439 -10.7737 6.26433 -8.51465L-30.7429 14.0808C-34.3673 16.2938 -34.3733 21.5172 -30.7539 23.7386L6.00883 46.302C9.70335 48.5691 14.374 48.5664 18.0653 46.2939L54.7523 23.7094C58.3526 21.4928 58.3591 16.2985 54.7632 14.0735L18.3213 -8.47858Z" fill="url(#paint1_linear_5481_99474)"/>
<path d="M6.91632 22.7894C7.73673 4.86956 22.9287 -8.99224 40.8485 -8.17184C58.7683 -7.35143 72.6301 7.84053 71.8097 25.7603C70.9893 43.6802 55.7973 57.542 37.8775 56.7215C19.9577 55.9011 6.09591 40.7092 6.91632 22.7894Z" fill="url(#paint2_linear_5481_99474)"/>
<path d="M-19.4476 34.6052C-12.3244 31.5664 -4.64218 31.6967 2.01351 34.3546C15.3317 39.6865 23.0811 36.39 28.456 23.1023C31.1333 16.4345 36.3604 10.7876 43.4915 7.74541C57.7492 1.67237 74.2091 8.26203 80.2736 22.4776C86.338 36.6931 79.7002 53.1271 65.4459 59.2081C58.2988 62.2571 50.6018 62.1143 43.9359 59.4324C30.6393 54.129 22.9046 57.438 17.5365 70.7417C14.8525 77.3935 9.62658 83.0211 2.50343 86.0599C-11.7429 92.1375 -28.2028 85.5478 -34.2639 71.3402C-40.3249 57.1326 -33.6939 40.6828 -19.4476 34.6052Z" fill="url(#paint3_linear_5481_99474)"/>
<circle cx="45.2009" cy="8.67178" r="20.8826" transform="rotate(-0.0800682 45.2009 8.67178)" fill="url(#paint4_radial_5481_99474)"/>
</g>
</g>

</svg>
