<svg width="160" height="160" viewBox="0 0 160 160" xmlns="http://www.w3.org/2000/svg">
  <defs>
<radialGradient id="paint0_radial_5481_89930" cx="0" cy="0" r="1" gradientUnits="userSpaceOnUse" gradientTransform="translate(56.9923 53.7253) rotate(90) scale(53.7253 56.9923)">
<stop offset="0.166667" stop-color="#FF709F"/>
<stop offset="1" stop-color="#FF709F" stop-opacity="0"/>
</radialGradient>
<linearGradient id="paint1_linear_5481_89930" x1="-18.9205" y1="132.357" x2="187.087" y2="-0.597518" gradientUnits="userSpaceOnUse">
<stop offset="0.0598452" stop-color="#8480FE"/>
<stop offset="0.599632" stop-color="#8480FE" stop-opacity="0"/>
</linearGradient>
<linearGradient id="paint2_linear_5481_89930" x1="151.995" y1="44.7471" x2="66.3801" y2="142.405" gradientUnits="userSpaceOnUse">
<stop stop-color="#EB1000"/>
<stop offset="1" stop-color="#EB1000" stop-opacity="0"/>
</linearGradient>
<linearGradient id="paint3_linear_5481_89930" x1="40.9585" y1="150.143" x2="198.223" y2="56.6888" gradientUnits="userSpaceOnUse">
<stop stop-color="#FC7D00" stop-opacity="0"/>
<stop offset="0.432292" stop-color="#FC7D00"/>
<stop offset="0.609375" stop-color="#FC7D00"/>
<stop offset="1" stop-color="#FC7D00" stop-opacity="0"/>
</linearGradient>
<radialGradient id="paint4_radial_5481_89930" cx="0" cy="0" r="1" gradientUnits="userSpaceOnUse" gradientTransform="translate(56.9923 53.7253) rotate(90) scale(53.7253 56.9923)">
<stop offset="0.166667" stop-color="#EB1000"/>
<stop offset="1" stop-color="#EB1000" stop-opacity="0"/>
</radialGradient>
<clipPath id="clip0_5481_89930">
<rect x="14" y="22" width="131" height="123.491" rx="3.46124" fill="white"/>
</clipPath>
</defs>
<clipPath id="mask0_5481_89930">
<path fill-rule="evenodd" d="M90.3088 21.6797H122.279C131.115 21.6797 138.279 28.8431 138.279 37.6797V69.6497C138.279 78.4862 131.115 85.6497 122.279 85.6497H90.3088C81.4723 85.6497 74.3088 78.4862 74.3088 69.6497V37.6797C74.3088 28.8431 81.4723 21.6797 90.3088 21.6797ZM35.7188 41.1396H52.2388C59.9707 41.1396 66.2387 47.4077 66.2387 55.1396V71.6597C66.2387 79.3916 59.9707 85.6597 52.2388 85.6597H35.7188C27.9868 85.6597 21.7188 79.3916 21.7188 71.6597V55.1396C21.7188 47.4077 27.9868 41.1396 35.7188 41.1396ZM52.2388 93.7997H35.7188C27.9868 93.7997 21.7188 100.068 21.7188 107.8V124.32C21.7188 132.052 27.9868 138.32 35.7188 138.32H52.2388C59.9707 138.32 66.2387 132.052 66.2387 124.32V107.8C66.2387 100.068 59.9707 93.7997 52.2388 93.7997ZM88.3088 93.7997H104.829C112.561 93.7997 118.829 100.068 118.829 107.8V124.32C118.829 132.052 112.561 138.32 104.829 138.32H88.3088C80.5769 138.32 74.3088 132.052 74.3088 124.32V107.8C74.3088 100.068 80.5769 93.7997 88.3088 93.7997Z" fill="white"/>
</clipPath>
<g clip-path="url(#mask0_5481_89930)">
<g clip-path="url(#clip0_5481_89930)">
<rect x="14" y="22" width="131" height="123.491" rx="3.46124" fill="#FFECCF"/>
<rect width="131" height="123.491" transform="translate(14 22)" fill="#FFECCF"/>
<ellipse cx="56.9923" cy="53.7253" rx="56.9923" ry="53.7253" transform="matrix(0.999999 -0.00131734 0.00148243 0.999999 31 -26.8604)" fill="url(#paint0_radial_5481_89930)"/>
<path d="M64.0015 0.186485C53.9408 -5.68219 41.1939 -5.71814 31.0958 0.0937033L-69.9034 58.2255C-79.795 63.9189 -79.8115 77.3575 -69.9334 83.0724L30.3985 141.122C40.4815 146.955 53.2284 146.948 63.3027 141.101L163.428 82.9973C173.254 77.2945 173.272 63.9311 163.458 58.2069L64.0015 0.186485Z" fill="url(#paint1_linear_5481_89930)"/>
<path d="M32.8784 80.6311C35.1175 34.5283 76.579 -1.13432 125.485 0.976373C174.392 3.08706 212.223 42.1718 209.984 88.2746C207.745 134.377 166.283 170.04 117.377 167.929C68.4707 165.819 30.6394 126.734 32.8784 80.6311Z" fill="url(#paint2_linear_5481_89930)"/>
<path d="M-39.0752 111.029C-19.6349 103.211 1.33131 103.546 19.4959 110.384C55.8435 124.101 76.9931 115.62 91.6621 81.4347C98.9688 64.2805 113.234 49.7525 132.697 41.9257C171.608 26.3015 216.53 43.2549 233.081 79.8276C249.632 116.4 231.516 158.68 192.614 174.325C173.108 182.169 152.102 181.802 133.909 174.902C97.6206 161.258 76.5114 169.771 61.8609 203.998C54.5356 221.111 40.2733 235.589 20.8329 243.407C-18.0477 259.043 -62.9697 242.09 -79.5114 205.538C-96.0531 168.985 -77.9559 126.664 -39.0752 111.029Z" fill="url(#paint3_linear_5481_89930)"/>
<ellipse cx="56.9923" cy="53.7253" rx="56.9923" ry="53.7253" transform="matrix(0.999999 -0.00131734 0.00148243 0.999999 80.293 -9.33984)" fill="url(#paint4_radial_5481_89930)"/>
</g>
</g>

</svg>
