<svg width="48" height="48" viewBox="0 0 48 48" xmlns="http://www.w3.org/2000/svg">
  <defs>
<radialGradient id="paint0_radial_5481_99384" cx="0" cy="0" r="1" gradientUnits="userSpaceOnUse" gradientTransform="translate(18.5333 17.4892) rotate(90) scale(17.4892 18.5333)">
<stop offset="0.166667" stop-color="#FF709F"/>
<stop offset="1" stop-color="#FF709F" stop-opacity="0"/>
</radialGradient>
<linearGradient id="paint1_linear_5481_99384" x1="-8.60281" y1="41.325" x2="58.4299" y2="-1.89189" gradientUnits="userSpaceOnUse">
<stop offset="0.0598452" stop-color="#8480FE"/>
<stop offset="0.599632" stop-color="#8480FE" stop-opacity="0"/>
</linearGradient>
<linearGradient id="paint2_linear_5481_99384" x1="46.9767" y1="12.8048" x2="19.1026" y2="44.5667" gradientUnits="userSpaceOnUse">
<stop stop-color="#EB1000"/>
<stop offset="1" stop-color="#EB1000" stop-opacity="0"/>
</linearGradient>
<linearGradient id="paint3_linear_5481_99384" x1="10.8705" y1="47.1155" x2="62.0391" y2="16.7403" gradientUnits="userSpaceOnUse">
<stop stop-color="#FC7D00" stop-opacity="0"/>
<stop offset="0.432292" stop-color="#FC7D00"/>
<stop offset="0.609375" stop-color="#FC7D00"/>
<stop offset="1" stop-color="#FC7D00" stop-opacity="0"/>
</linearGradient>
<radialGradient id="paint4_radial_5481_99384" cx="0" cy="0" r="1" gradientUnits="userSpaceOnUse" gradientTransform="translate(18.5333 17.4892) rotate(90) scale(17.4892 18.5333)">
<stop offset="0.166667" stop-color="#EB1000"/>
<stop offset="1" stop-color="#EB1000" stop-opacity="0"/>
</radialGradient>
<clipPath id="clip0_5481_99384">
<rect x="2.10156" y="5.40039" width="42.6" height="40.2" rx="1.03837" fill="white"/>
</clipPath>
</defs>
<clipPath id="mask0_5481_99384">
<path fill-rule="evenodd" d="M10.7258 8.37891H25.1468C27.7988 8.37891 29.9468 10.5269 29.9468 13.1789V39.6179H22.1498V33.4439C22.1498 32.1179 21.0758 31.0439 19.7498 31.0439H16.1228C14.7968 31.0439 13.7228 32.1179 13.7228 33.4439V39.6179H5.92578V13.1789C5.92578 10.5269 8.07378 8.37891 10.7258 8.37891ZM14.5628 25.3469C15.2258 25.3469 15.7628 24.8099 15.7628 24.1469V22.4189C15.7628 21.7559 15.2258 21.2189 14.5628 21.2189H12.8348C12.1718 21.2189 11.6348 21.7559 11.6348 22.4189V24.1469C11.6348 24.8099 12.1718 25.3469 12.8348 25.3469H14.5628ZM14.5628 16.9289C15.2258 16.9289 15.7628 16.3919 15.7628 15.7289V14.0009C15.7628 13.3379 15.2258 12.8009 14.5628 12.8009H12.8348C12.1718 12.8009 11.6348 13.3379 11.6348 14.0009V15.7289C11.6348 16.3919 12.1718 16.9289 12.8348 16.9289H14.5628ZM23.0408 25.3469C23.7038 25.3469 24.2408 24.8099 24.2408 24.1469V22.4189C24.2408 21.7559 23.7038 21.2189 23.0408 21.2189H21.3128C20.6498 21.2189 20.1128 21.7559 20.1128 22.4189V24.1469C20.1128 24.8099 20.6498 25.3469 21.3128 25.3469H23.0408ZM23.0408 16.9289C23.7038 16.9289 24.2408 16.3919 24.2408 15.7289V14.0009C24.2408 13.3379 23.7038 12.8009 23.0408 12.8009H21.3128C20.6498 12.8009 20.1128 13.3379 20.1128 14.0009V15.7289C20.1128 16.3919 20.6498 16.9289 21.3128 16.9289H23.0408ZM37.2728 14.8679C39.9248 14.8679 42.0728 17.0159 42.0728 19.6679V39.6179H32.3498V14.8679H37.2728ZM36.8738 33.5159C37.5368 33.5159 38.0738 32.9789 38.0738 32.3159V30.5879C38.0738 29.9249 37.5368 29.3879 36.8738 29.3879H35.1458C34.4828 29.3879 33.9458 29.9249 33.9458 30.5879V32.3159C33.9458 32.9789 34.4828 33.5159 35.1458 33.5159H36.8738ZM36.8738 25.0979C37.5368 25.0979 38.0738 24.5609 38.0738 23.8979V22.1699C38.0738 21.5069 37.5368 20.9699 36.8738 20.9699H35.1458C34.4828 20.9699 33.9458 21.5069 33.9458 22.1699V23.8979C33.9458 24.5609 34.4828 25.0979 35.1458 25.0979H36.8738Z" fill="white"/>
</clipPath>
<g clip-path="url(#mask0_5481_99384)">
<g clip-path="url(#clip0_5481_99384)">
<rect x="2.10156" y="5.40039" width="42.6" height="40.2" rx="1.03837" fill="#FFECCF"/>
<rect width="42.6" height="40.2" transform="translate(2.10156 5.40039)" fill="#FFECCF"/>
<ellipse cx="18.5333" cy="17.4892" rx="18.5333" ry="17.4892" transform="matrix(0.999999 -0.00131872 0.00148088 0.999999 7.62891 -10.5049)" fill="url(#paint0_radial_5481_99384)"/>
<path d="M18.3626 -1.70057C15.0909 -3.611 10.9458 -3.6227 7.66198 -1.73077L-25.1819 17.1929C-28.3986 19.0463 -28.404 23.4209 -25.1917 25.2813L7.43522 44.1781C10.7141 46.0769 14.8593 46.0746 18.1353 44.1714L50.695 25.2568C53.8903 23.4004 53.8961 19.0502 50.7048 17.1868L18.3626 -1.70057Z" fill="url(#paint1_linear_5481_99384)"/>
<path d="M8.24111 24.4862C8.96922 9.47831 22.4521 -2.13096 38.3559 -1.44386C54.2598 -0.75677 66.5621 11.9665 65.834 26.9743C65.1059 41.9822 51.623 53.5914 35.7192 52.9043C19.8153 52.2173 7.513 39.494 8.24111 24.4862Z" fill="url(#paint2_linear_5481_99384)"/>
<path d="M-15.1557 34.3825C-8.83388 31.8375 -2.01589 31.9466 3.89104 34.1726C15.7109 38.6381 22.5885 35.8772 27.3588 24.7488C29.7349 19.1646 34.3739 14.4353 40.7028 11.8874C53.3565 6.80124 67.9646 12.3201 73.3468 24.2256C78.7291 36.1311 72.838 49.8946 60.1873 54.9874C53.8442 57.5409 47.0131 57.4213 41.0972 55.1753C29.2964 50.7336 22.4319 53.505 17.6677 64.6468C15.2856 70.2177 10.6476 74.9308 4.32585 77.4758C-8.31775 82.5658 -22.9259 77.0469 -28.3051 65.1481C-33.6843 53.2492 -27.7993 39.4724 -15.1557 34.3825Z" fill="url(#paint3_linear_5481_99384)"/>
<ellipse cx="18.5333" cy="17.4892" rx="18.5333" ry="17.4892" transform="matrix(0.999999 -0.00131872 0.00148088 0.999999 23.6602 -4.80176)" fill="url(#paint4_radial_5481_99384)"/>
</g>
</g>

</svg>
