<svg width="160" height="160" viewBox="0 0 160 160" xmlns="http://www.w3.org/2000/svg">
  <defs>
<radialGradient id="paint0_radial_5481_90025" cx="0" cy="0" r="1" gradientUnits="userSpaceOnUse" gradientTransform="translate(90.4677 6.20574) rotate(90) scale(69.6088)">
<stop offset="0.166667" stop-color="#FF709F"/>
<stop offset="1" stop-color="#FF709F" stop-opacity="0"/>
</radialGradient>
<linearGradient id="paint1_linear_5481_90025" x1="-40.2086" y1="142.983" x2="219.921" y2="-15.2772" gradientUnits="userSpaceOnUse">
<stop offset="0.0598452" stop-color="#8480FE"/>
<stop offset="0.599632" stop-color="#8480FE" stop-opacity="0"/>
</linearGradient>
<linearGradient id="paint2_linear_5481_90025" x1="168.544" y1="29.4718" x2="56.9494" y2="149.467" gradientUnits="userSpaceOnUse">
<stop stop-color="#EB1000"/>
<stop offset="1" stop-color="#EB1000" stop-opacity="0"/>
</linearGradient>
<linearGradient id="paint3_linear_5481_90025" x1="32.9255" y1="166.029" x2="230.753" y2="55.2086" gradientUnits="userSpaceOnUse">
<stop stop-color="#FC7D00" stop-opacity="0"/>
<stop offset="0.432292" stop-color="#FC7D00"/>
<stop offset="0.609375" stop-color="#FC7D00"/>
<stop offset="1" stop-color="#FC7D00" stop-opacity="0"/>
</linearGradient>
<radialGradient id="paint4_radial_5481_90025" cx="0" cy="0" r="1" gradientUnits="userSpaceOnUse" gradientTransform="translate(150.675 28.9059) rotate(90) scale(69.6088)">
<stop offset="0.166667" stop-color="#EB1000"/>
<stop offset="1" stop-color="#EB1000" stop-opacity="0"/>
</radialGradient>
<clipPath id="clip0_5481_90025">
<rect width="160" height="160" rx="5.125" fill="white"/>
</clipPath>
</defs>
<clipPath id="mask0_5481_90025">
<path fill-rule="evenodd" d="M28.25 41.3838C28.25 35.8609 32.7272 31.3838 38.25 31.3838H104.79C110.313 31.3838 114.79 35.8609 114.79 41.3838V61.1279H82.2622C76.8948 61.1279 72.0761 63.4772 68.7782 67.2036L64.225 59.7051L64.214 59.687C60.6327 53.8587 52.1947 53.7659 48.4862 59.5141L48.4779 59.527L28.7242 90.4034C28.4163 89.4413 28.25 88.4159 28.25 87.3516V41.3838ZM64.2622 79.1279V97.3516H38.25C36.8455 97.3516 35.5086 97.062 34.2958 96.5393L55.2086 63.8512L55.2114 63.8468C55.7278 63.053 56.8944 63.0653 57.3942 63.8691L57.3979 63.8752L64.5858 75.7128C64.3734 76.8185 64.2622 77.9602 64.2622 79.1279ZM94.1682 57.1572C97.4819 57.1572 100.168 54.4709 100.168 51.1572C100.168 47.8435 97.4819 45.1572 94.1682 45.1572C90.8545 45.1572 88.1682 47.8435 88.1682 51.1572C88.1682 54.4709 90.8545 57.1572 94.1682 57.1572ZM72.2622 79.1279C72.2622 73.6051 76.7394 69.1279 82.2622 69.1279H121.75C127.273 69.1279 131.75 73.6051 131.75 79.1279V118.616C131.75 124.139 127.273 128.616 121.75 128.616H82.2622C76.7394 128.616 72.2622 124.139 72.2622 118.616V79.1279ZM114.845 96.8936L95.3376 85.7047C93.153 84.4517 90.4184 86.0115 90.4154 88.5125L90.3884 110.844C90.3854 113.345 93.1162 114.911 95.3039 113.663L114.838 102.521C117.025 101.273 117.029 98.1467 114.845 96.8936Z" fill="white"/>
</clipPath>
<g clip-path="url(#mask0_5481_90025)">
<g clip-path="url(#clip0_5481_90025)">
<rect width="160" height="160" rx="5.125" fill="#FFECCF"/>
<rect width="160" height="160" fill="#FFECCF"/>
<circle cx="90.4677" cy="6.20574" r="69.6087" transform="rotate(-0.0800682 90.4677 6.20574)" fill="url(#paint0_radial_5481_90025)"/>
<path d="M61.0698 -28.2626C48.782 -35.8663 33.2133 -35.9129 20.8798 -28.3828L-102.478 46.9353C-114.559 54.3119 -114.579 71.7234 -102.514 79.1279L20.0281 154.339C32.3432 161.896 47.9119 161.887 60.2163 154.312L182.506 79.0306C194.507 71.6419 194.529 54.3277 182.543 46.9111L61.0698 -28.2626Z" fill="url(#paint1_linear_5481_90025)"/>
<path d="M23.0583 75.9646C25.793 16.2319 76.4328 -29.9741 136.166 -27.2395C195.898 -24.5048 242.104 26.1351 239.37 85.8678C236.635 145.601 185.995 191.807 126.262 189.072C66.5296 186.337 20.3236 135.697 23.0583 75.9646Z" fill="url(#paint2_linear_5481_90025)"/>
<path d="M-64.8253 115.35C-41.0814 105.221 -15.474 105.655 6.71169 114.515C51.1056 132.288 76.9371 121.299 94.8534 77.0069C103.778 54.7811 121.201 35.958 144.972 25.8174C192.497 5.57391 247.364 27.5395 267.579 74.9246C287.793 122.31 265.667 177.09 218.153 197.36C194.329 207.523 168.673 207.047 146.453 198.107C102.131 180.429 76.3488 191.459 58.4551 235.805C49.5082 257.978 32.0886 276.736 8.34476 286.866C-39.1429 307.124 -94.0093 285.159 -114.213 237.8C-134.416 190.441 -112.313 135.609 -64.8253 115.35Z" fill="url(#paint3_linear_5481_90025)"/>
<circle cx="150.675" cy="28.9059" r="69.6087" transform="rotate(-0.0800682 150.675 28.9059)" fill="url(#paint4_radial_5481_90025)"/>
</g>
</g>

</svg>
