<svg width="48" height="48" viewBox="0 0 48 48" xmlns="http://www.w3.org/2000/svg">
  <defs>
<radialGradient id="paint0_radial_5481_99582" cx="0" cy="0" r="1" gradientUnits="userSpaceOnUse" gradientTransform="translate(27.1423 1.86222) rotate(90) scale(20.8826)">
<stop offset="0.166667" stop-color="#FF709F"/>
<stop offset="1" stop-color="#FF709F" stop-opacity="0"/>
</radialGradient>
<linearGradient id="paint1_linear_5481_99582" x1="-12.0622" y1="42.8952" x2="65.9766" y2="-4.58296" gradientUnits="userSpaceOnUse">
<stop offset="0.0598452" stop-color="#8480FE"/>
<stop offset="0.599632" stop-color="#8480FE" stop-opacity="0"/>
</linearGradient>
<linearGradient id="paint2_linear_5481_99582" x1="50.5621" y1="8.84155" x2="17.0836" y2="44.8401" gradientUnits="userSpaceOnUse">
<stop stop-color="#EB1000"/>
<stop offset="1" stop-color="#EB1000" stop-opacity="0"/>
</linearGradient>
<linearGradient id="paint3_linear_5481_99582" x1="9.87765" y1="49.8089" x2="69.2259" y2="16.5628" gradientUnits="userSpaceOnUse">
<stop stop-color="#FC7D00" stop-opacity="0"/>
<stop offset="0.432292" stop-color="#FC7D00"/>
<stop offset="0.609375" stop-color="#FC7D00"/>
<stop offset="1" stop-color="#FC7D00" stop-opacity="0"/>
</linearGradient>
<radialGradient id="paint4_radial_5481_99582" cx="0" cy="0" r="1" gradientUnits="userSpaceOnUse" gradientTransform="translate(45.2009 8.67178) rotate(90) scale(20.8826)">
<stop offset="0.166667" stop-color="#EB1000"/>
<stop offset="1" stop-color="#EB1000" stop-opacity="0"/>
</radialGradient>
<clipPath id="clip0_5481_99582">
<rect width="48" height="48" rx="5.125" fill="white"/>
</clipPath>
</defs>
<clipPath id="mask0_5481_99582">
<path fill-rule="evenodd" d="M24 40.5C33.1127 40.5 40.5 33.1127 40.5 24C40.5 14.8873 33.1127 7.5 24 7.5C14.8873 7.5 7.5 14.8873 7.5 24C7.5 33.1127 14.8873 40.5 24 40.5ZM26.5 15.0723C26.5 16.453 25.3807 17.5723 24 17.5723C22.6193 17.5723 21.5 16.453 21.5 15.0723C21.5 13.6916 22.6193 12.5723 24 12.5723C25.3807 12.5723 26.5 13.6916 26.5 15.0723ZM15.4812 18.6314C15.6331 18.1004 16.1867 17.7932 16.7177 17.9451C21.4157 19.2893 26.3942 19.3068 31.1015 17.9955L31.2894 17.9432C31.8214 17.795 32.3728 18.1061 32.521 18.6382C32.6692 19.1702 32.3581 19.7216 31.8261 19.8698L31.6382 19.9222C30.257 20.3069 28.8542 20.5853 27.4418 20.7573C26.9278 20.8199 26.5322 21.2502 26.5322 21.768V25.721C26.5322 25.8134 26.545 25.9053 26.5703 25.9942C26.9706 27.404 27.4275 29.0187 27.8281 30.4377C28.116 31.4575 28.3749 32.3767 28.563 33.0464C28.657 33.3812 28.7335 33.6541 28.787 33.8463L28.7992 33.8901L28.7993 33.8902C28.8384 34.0305 28.8794 34.1773 28.8901 34.2307C28.9984 34.7723 28.6472 35.2991 28.1056 35.4074C27.564 35.5157 27.0372 35.1645 26.9289 34.623C26.9342 34.6494 26.9299 34.634 26.9048 34.5429L26.9047 34.5428L26.9047 34.5427L26.8604 34.3832C26.8074 34.193 26.7314 33.9215 26.6375 33.5872C26.4498 32.9186 26.1911 32.0004 25.9033 30.9811C25.5748 29.8173 25.2085 28.5223 24.8667 27.3171C24.7568 26.9295 24.4029 26.6621 24 26.6621C23.5971 26.6621 23.2432 26.9295 23.1333 27.3171C22.7915 28.5223 22.4252 29.8173 22.0967 30.9811C21.8089 32.0004 21.5502 32.9186 21.3625 33.5872C21.2686 33.9215 21.1926 34.193 21.1396 34.3832L21.0953 34.5427L21.0953 34.5428L21.0952 34.5429C21.0701 34.634 21.0658 34.6494 21.0711 34.623C20.9628 35.1645 20.436 35.5157 19.8944 35.4074C19.3528 35.2991 19.0016 34.7723 19.1099 34.2307C19.1206 34.1772 19.1616 34.0305 19.2008 33.8901L19.213 33.8463C19.2665 33.6541 19.343 33.3812 19.437 33.0464C19.6251 32.3767 19.884 31.4575 20.1719 30.4377C20.5725 29.0187 21.0294 27.404 21.4297 25.9942C21.455 25.9053 21.4678 25.8134 21.4678 25.721V21.7682C21.4678 21.2504 21.0722 20.8202 20.5581 20.7576C19.0792 20.5775 17.6111 20.281 16.1676 19.8679C15.6366 19.716 15.3293 19.1624 15.4812 18.6314Z" fill="white"/>
</clipPath>
<g clip-path="url(#mask0_5481_99582)">
<g clip-path="url(#clip0_5481_99582)">
<rect width="48" height="48" rx="5.125" fill="#FFECCF"/>
<rect width="48" height="48" fill="#FFECCF"/>
<circle cx="27.1423" cy="1.86221" r="20.8826" transform="rotate(-0.0800682 27.1423 1.86221)" fill="url(#paint0_radial_5481_99582)"/>
<path d="M18.3213 -8.47858C14.635 -10.7597 9.96439 -10.7737 6.26433 -8.51465L-30.7429 14.0808C-34.3673 16.2938 -34.3733 21.5172 -30.7539 23.7386L6.00883 46.302C9.70335 48.5691 14.374 48.5664 18.0653 46.2939L54.7523 23.7094C58.3526 21.4928 58.3591 16.2985 54.7632 14.0735L18.3213 -8.47858Z" fill="url(#paint1_linear_5481_99582)"/>
<path d="M6.91632 22.7894C7.73673 4.86956 22.9287 -8.99224 40.8485 -8.17184C58.7683 -7.35143 72.6301 7.84053 71.8097 25.7603C70.9893 43.6802 55.7973 57.542 37.8775 56.7215C19.9577 55.9011 6.09591 40.7092 6.91632 22.7894Z" fill="url(#paint2_linear_5481_99582)"/>
<path d="M-19.4476 34.6052C-12.3244 31.5664 -4.64218 31.6967 2.01351 34.3546C15.3317 39.6865 23.0811 36.39 28.456 23.1023C31.1333 16.4345 36.3604 10.7876 43.4915 7.74541C57.7492 1.67237 74.2091 8.26203 80.2736 22.4776C86.338 36.6931 79.7002 53.1271 65.4459 59.2081C58.2988 62.2571 50.6018 62.1143 43.9359 59.4324C30.6393 54.129 22.9046 57.438 17.5365 70.7417C14.8525 77.3935 9.62658 83.0211 2.50343 86.0599C-11.7429 92.1375 -28.2028 85.5478 -34.2639 71.3402C-40.3249 57.1326 -33.6939 40.6828 -19.4476 34.6052Z" fill="url(#paint3_linear_5481_99582)"/>
<circle cx="45.2009" cy="8.67178" r="20.8826" transform="rotate(-0.0800682 45.2009 8.67178)" fill="url(#paint4_radial_5481_99582)"/>
</g>
</g>

</svg>
