<svg width="48" height="48" viewBox="0 0 48 48" xmlns="http://www.w3.org/2000/svg">
  <defs>
<radialGradient id="paint0_radial_5481_99438" cx="0" cy="0" r="1" gradientUnits="userSpaceOnUse" gradientTransform="translate(17.0977 16.1176) rotate(90) scale(16.1176 17.0977)">
<stop offset="0.166667" stop-color="#FF709F"/>
<stop offset="1" stop-color="#FF709F" stop-opacity="0"/>
</radialGradient>
<linearGradient id="paint1_linear_5481_99438" x1="-5.67575" y1="38.5075" x2="56.1264" y2="-1.37887" gradientUnits="userSpaceOnUse">
<stop offset="0.0598452" stop-color="#8480FE"/>
<stop offset="0.599632" stop-color="#8480FE" stop-opacity="0"/>
</linearGradient>
<linearGradient id="paint2_linear_5481_99438" x1="45.5971" y1="12.224" x2="19.9125" y2="41.5215" gradientUnits="userSpaceOnUse">
<stop stop-color="#EB1000"/>
<stop offset="1" stop-color="#EB1000" stop-opacity="0"/>
</linearGradient>
<linearGradient id="paint3_linear_5481_99438" x1="12.2871" y1="43.8436" x2="59.4664" y2="15.8072" gradientUnits="userSpaceOnUse">
<stop stop-color="#FC7D00" stop-opacity="0"/>
<stop offset="0.432292" stop-color="#FC7D00"/>
<stop offset="0.609375" stop-color="#FC7D00"/>
<stop offset="1" stop-color="#FC7D00" stop-opacity="0"/>
</linearGradient>
<radialGradient id="paint4_radial_5481_99438" cx="0" cy="0" r="1" gradientUnits="userSpaceOnUse" gradientTransform="translate(17.0977 16.1176) rotate(90) scale(16.1176 17.0977)">
<stop offset="0.166667" stop-color="#EB1000"/>
<stop offset="1" stop-color="#EB1000" stop-opacity="0"/>
</radialGradient>
<clipPath id="clip0_5481_99438">
<rect x="4.19922" y="5.40039" width="39.3001" height="37.0472" rx="1.03837" fill="white"/>
</clipPath>
</defs>
<clipPath id="mask0_5481_99438">
<path fill-rule="evenodd" d="M25.6088 8.02155L38.3798 14.3936C39.6008 15.0026 40.3718 16.2506 40.3718 17.6156V30.3536C40.3718 31.7156 39.6038 32.9636 38.3858 33.5726L25.6148 39.9716C24.6008 40.4816 23.4038 40.4816 22.3898 39.9716L9.61881 33.5726C8.40081 32.9606 7.63281 31.7156 7.63281 30.3536V17.6156C7.63281 16.2506 8.40381 15.0026 9.62481 14.3936L22.3958 8.02155C23.4068 7.51755 24.5978 7.51755 25.6088 8.02155ZM15.3968 29.2796C15.8138 29.2796 16.2158 29.0636 16.4378 28.6796H16.4348L20.8298 21.0686C21.1628 20.4956 20.9648 19.7606 20.3918 19.4306C19.8188 19.0976 19.0838 19.2956 18.7538 19.8686L14.3588 27.4796C14.0258 28.0526 14.2238 28.7876 14.7968 29.1176C14.9858 29.2286 15.1928 29.2796 15.3968 29.2796ZM31.3988 29.2796C32.2658 29.2796 33.0428 28.8296 33.4778 28.0796C33.9128 27.3266 33.9128 26.4296 33.4778 25.6796L29.4188 18.6506C28.9838 17.9006 28.2068 17.4506 27.3398 17.4506C26.4728 17.4506 25.6958 17.9006 25.2608 18.6506L21.2018 25.6796C20.7668 26.4296 20.7668 27.3296 21.2018 28.0796C21.6368 28.8296 22.4138 29.2796 23.2808 29.2796H31.3988ZM27.3428 19.8506L31.4018 26.8796H23.2838L27.3428 19.8506Z" fill="white"/>
</clipPath>
<g clip-path="url(#mask0_5481_99438)">
<g clip-path="url(#clip0_5481_99438)">
<rect x="4.19922" y="5.40039" width="39.3001" height="37.0472" rx="1.03837" fill="#FFECCF"/>
<rect width="39.3001" height="37.0472" transform="translate(4.19922 5.40039)" fill="#FFECCF"/>
<ellipse cx="17.0977" cy="16.1176" rx="17.0977" ry="16.1176" transform="matrix(0.999999 -0.00131734 0.00148243 0.999999 9.30078 -9.25781)" fill="url(#paint0_radial_5481_99438)"/>
<path d="M19.2008 -1.14366C16.1826 -2.90427 12.3586 -2.91505 9.32914 -1.1715L-20.9706 16.2681C-23.9381 17.9761 -23.9431 22.0076 -20.9796 23.7221L9.11995 41.1369C12.1448 42.8868 15.9689 42.8847 18.9912 41.1307L49.0287 23.6996C51.9765 21.9888 51.9819 17.9797 49.0377 16.2625L19.2008 -1.14366Z" fill="url(#paint1_linear_5481_99438)"/>
<path d="M9.86196 22.9892C10.5337 9.1584 22.9721 -1.54039 37.644 -0.907187C52.3159 -0.27398 63.6653 11.4514 62.9936 25.2823C62.3219 39.1131 49.8834 49.8119 35.2115 49.1787C20.5396 48.5455 9.19025 36.8201 9.86196 22.9892Z" fill="url(#paint2_linear_5481_99438)"/>
<path d="M-11.723 32.1091C-5.89086 29.7637 0.398996 29.8643 5.84836 31.9158C16.7527 36.031 23.0975 33.4867 27.4982 23.231C29.6903 18.0847 33.9699 13.7263 39.8086 11.3783C51.4821 6.69103 64.9587 11.777 69.924 22.7489C74.8893 33.7207 69.4545 46.4047 57.7838 51.0981C51.9321 53.4514 45.6301 53.3412 40.1724 51.2712C29.2858 47.178 22.953 49.732 18.5579 59.9999C16.3603 65.1339 12.0816 69.4774 6.24949 71.8228C-5.41472 76.5136 -18.8913 71.4276 -23.8538 60.4619C-28.8163 49.4962 -23.3872 36.7999 -11.723 32.1091Z" fill="url(#paint3_linear_5481_99438)"/>
<ellipse cx="17.0977" cy="16.1176" rx="17.0977" ry="16.1176" transform="matrix(0.999999 -0.00131734 0.00148243 0.999999 24.0859 -4.00195)" fill="url(#paint4_radial_5481_99438)"/>
</g>
</g>

</svg>
