<svg width="96" height="96" viewBox="0 0 96 96" xmlns="http://www.w3.org/2000/svg">
  <defs>
<radialGradient id="paint0_radial_5481_99278" cx="0" cy="0" r="1" gradientUnits="userSpaceOnUse" gradientTransform="translate(53.4611 9.49631) rotate(90) scale(36.3205)">
<stop offset="0.166667" stop-color="#FF709F"/>
<stop offset="1" stop-color="#FF709F" stop-opacity="0"/>
</radialGradient>
<linearGradient id="paint1_linear_5481_99278" x1="-14.7242" y1="80.8632" x2="121.006" y2="-1.71421" gradientUnits="userSpaceOnUse">
<stop offset="0.0598452" stop-color="#8480FE"/>
<stop offset="0.599632" stop-color="#8480FE" stop-opacity="0"/>
</linearGradient>
<linearGradient id="paint2_linear_5481_99278" x1="94.2025" y1="21.6352" x2="35.9744" y2="84.2465" gradientUnits="userSpaceOnUse">
<stop stop-color="#EB1000"/>
<stop offset="1" stop-color="#EB1000" stop-opacity="0"/>
</linearGradient>
<linearGradient id="paint3_linear_5481_99278" x1="23.438" y1="92.8881" x2="126.661" y2="35.0641" gradientUnits="userSpaceOnUse">
<stop stop-color="#FC7D00" stop-opacity="0"/>
<stop offset="0.432292" stop-color="#FC7D00"/>
<stop offset="0.609375" stop-color="#FC7D00"/>
<stop offset="1" stop-color="#FC7D00" stop-opacity="0"/>
</linearGradient>
<radialGradient id="paint4_radial_5481_99278" cx="0" cy="0" r="1" gradientUnits="userSpaceOnUse" gradientTransform="translate(84.8752 21.3401) rotate(90) scale(36.3205 36.3205)">
<stop offset="0.166667" stop-color="#EB1000"/>
<stop offset="1" stop-color="#EB1000" stop-opacity="0"/>
</radialGradient>
<clipPath id="clip0_5481_99278">
<rect x="6.25781" y="6.25781" width="83.485" height="83.485" rx="2.07674" fill="white"/>
</clipPath>
</defs>
<clipPath id="mask0_5481_99278">
<path fill-rule="evenodd" d="M32.4016 27.3002C32.4016 18.6845 39.3859 11.7002 48.0016 11.7002C56.6172 11.7002 63.6016 18.6845 63.6016 27.3002C63.6016 28.6257 62.527 29.7002 61.2016 29.7002C59.8761 29.7002 58.8016 28.6257 58.8016 27.3002C58.8016 21.3355 53.9663 16.5002 48.0016 16.5002C42.0369 16.5002 37.2016 21.3355 37.2016 27.3002V39.9002L69.3834 39.9002C73.8117 39.9002 77.4016 43.1741 77.4016 47.2127V71.5877C77.4016 75.6263 73.8117 78.9002 69.3834 78.9002H26.6197C22.1914 78.9002 18.6016 75.6263 18.6016 71.5877V47.2127C18.6016 43.1741 22.1914 39.9002 26.6197 39.9002L32.4016 39.9002V27.3002ZM44.6098 60.392C44.9055 60.6904 45.2403 60.9462 45.602 61.1547V65.7002C45.602 67.0257 46.6765 68.1002 48.002 68.1002C49.3274 68.1002 50.402 67.0257 50.402 65.7002V61.1547C50.7636 60.9462 51.0984 60.6904 51.3941 60.392C51.6176 60.176 51.8176 59.9279 51.9941 59.6639C52.1699 59.408 52.3137 59.1279 52.434 58.84C52.5535 58.5439 52.6496 58.2482 52.7059 57.9361C52.7699 57.6322 52.802 57.3119 52.802 57.0002C52.802 56.6881 52.7699 56.3682 52.7059 56.0639C52.6496 55.76 52.5535 55.4561 52.434 55.1682C52.3137 54.8721 52.1699 54.6002 51.9941 54.3361C51.8176 54.0721 51.6176 53.824 51.3941 53.608C50.5059 52.7119 49.266 52.2002 48.002 52.2002C46.7379 52.2002 45.498 52.7119 44.6098 53.608C44.3856 53.824 44.1856 54.0721 44.0098 54.3361C43.8418 54.6002 43.6895 54.8721 43.5699 55.1682C43.4496 55.4561 43.3535 55.76 43.2981 56.0639C43.234 56.3682 43.202 56.6881 43.202 57.0002C43.202 57.3119 43.234 57.6322 43.2981 57.9361C43.3535 58.2482 43.4496 58.5439 43.5699 58.84C43.6895 59.1279 43.8418 59.408 44.0098 59.6639C44.1856 59.9279 44.3856 60.176 44.6098 60.392Z" fill="white"/>
</clipPath>
<g clip-path="url(#mask0_5481_99278)">
<g clip-path="url(#clip0_5481_99278)">
<rect x="6.25781" y="6.25781" width="83.485" height="83.485" rx="2.07674" fill="#FFECCF"/>
<rect width="83.485" height="83.485" transform="translate(6.25781 6.25781)" fill="#FFECCF"/>
<circle cx="53.4611" cy="9.49631" r="36.3205" transform="rotate(-0.0800682 53.4611 9.49631)" fill="url(#paint0_radial_5481_99278)"/>
<path d="M38.121 -8.48977C31.7094 -12.4572 23.586 -12.4815 17.1506 -8.5525L-47.215 30.7471C-53.5188 34.596 -53.5293 43.6811 -47.2341 47.5446L16.7062 86.7884C23.1319 90.7317 31.2554 90.727 37.6756 86.7744L101.484 47.4938C107.746 43.6385 107.758 34.6043 101.503 30.7345L38.121 -8.48977Z" fill="url(#paint1_linear_5481_99278)"/>
<path d="M18.2907 45.8942C19.7176 14.7268 46.1405 -9.38261 77.3079 -7.9557C108.475 -6.52878 132.585 19.8941 131.158 51.0615C129.731 82.229 103.308 106.338 72.1406 104.911C40.9732 103.485 16.8638 77.0616 18.2907 45.8942Z" fill="url(#paint2_linear_5481_99278)"/>
<path d="M-27.5665 66.4447C-15.1774 61.1595 -1.81591 61.3861 9.76014 66.009C32.9241 75.2826 46.4024 69.549 55.7508 46.4381C60.4073 34.8411 69.4986 25.0196 81.9016 19.7284C106.7 9.1657 135.328 20.6269 145.876 45.3516C156.423 70.0763 144.878 98.6593 120.086 109.236C107.656 114.539 94.2683 114.291 82.6745 109.626C59.5481 100.402 46.0955 106.157 36.7589 129.296C32.0906 140.865 23.0013 150.653 10.6122 155.938C-14.1659 166.509 -42.7942 155.048 -53.336 130.337C-63.8779 105.626 -52.3447 77.0153 -27.5665 66.4447Z" fill="url(#paint3_linear_5481_99278)"/>
<ellipse cx="84.8752" cy="21.3401" rx="36.3205" ry="36.3205" transform="rotate(-0.0800682 84.8752 21.3401)" fill="url(#paint4_radial_5481_99278)"/>
</g>
</g>

</svg>
