<svg width="48" height="48" viewBox="0 0 48 48" xmlns="http://www.w3.org/2000/svg">
  <defs>
<radialGradient id="paint0_radial_5481_99663" cx="0" cy="0" r="1" gradientUnits="userSpaceOnUse" gradientTransform="translate(27.1423 1.86222) rotate(90) scale(20.8826)">
<stop offset="0.166667" stop-color="#FF709F"/>
<stop offset="1" stop-color="#FF709F" stop-opacity="0"/>
</radialGradient>
<linearGradient id="paint1_linear_5481_99663" x1="-12.0622" y1="42.8952" x2="65.9766" y2="-4.58296" gradientUnits="userSpaceOnUse">
<stop offset="0.0598452" stop-color="#8480FE"/>
<stop offset="0.599632" stop-color="#8480FE" stop-opacity="0"/>
</linearGradient>
<linearGradient id="paint2_linear_5481_99663" x1="50.5621" y1="8.84155" x2="17.0836" y2="44.8401" gradientUnits="userSpaceOnUse">
<stop stop-color="#EB1000"/>
<stop offset="1" stop-color="#EB1000" stop-opacity="0"/>
</linearGradient>
<linearGradient id="paint3_linear_5481_99663" x1="9.87765" y1="49.8089" x2="69.2259" y2="16.5628" gradientUnits="userSpaceOnUse">
<stop stop-color="#FC7D00" stop-opacity="0"/>
<stop offset="0.432292" stop-color="#FC7D00"/>
<stop offset="0.609375" stop-color="#FC7D00"/>
<stop offset="1" stop-color="#FC7D00" stop-opacity="0"/>
</linearGradient>
<radialGradient id="paint4_radial_5481_99663" cx="0" cy="0" r="1" gradientUnits="userSpaceOnUse" gradientTransform="translate(45.2009 8.67178) rotate(90) scale(20.8826)">
<stop offset="0.166667" stop-color="#EB1000"/>
<stop offset="1" stop-color="#EB1000" stop-opacity="0"/>
</radialGradient>
<clipPath id="clip0_5481_99663">
<rect width="48" height="48" rx="5.125" fill="white"/>
</clipPath>
</defs>
<clipPath id="mask0_5481_99663">
<path fill-rule="evenodd" d="M34.7898 7.12595C34.8734 6.44069 35.4968 5.95301 36.1821 6.03669C39.533 6.4459 42.6633 8.37123 44.4835 11.524C46.3186 14.7025 46.4076 18.4103 45.0522 21.533C44.7773 22.1662 44.0412 22.4568 43.4079 22.1819C42.7746 21.9071 42.484 21.1709 42.7589 20.5376C43.8125 18.1101 43.7408 15.2376 42.3185 12.774C40.9076 10.3303 38.4839 8.83635 35.879 8.51825C35.1937 8.43457 34.7061 7.81122 34.7898 7.12595ZM33.6574 11.7324C33.741 11.0472 34.3644 10.5595 35.0497 10.6432C37.1152 10.8954 39.0467 12.0827 40.1695 14.0276C41.3016 15.9883 41.3558 18.2758 40.5204 20.2006C40.2456 20.8339 39.5094 21.1244 38.8761 20.8496C38.2428 20.5747 37.9522 19.8385 38.2271 19.2052C38.7608 17.9757 38.7238 16.5234 38.0045 15.2776C37.291 14.0418 36.066 13.2858 34.7466 13.1247C34.0614 13.041 33.5737 12.4177 33.6574 11.7324ZM5.2702 22.1997C3.35703 23.3042 2.70153 25.7506 3.8061 27.6638L4.29126 28.5041L31.2764 12.944L30.7826 12.0889C29.6781 10.1757 27.2317 9.52019 25.3185 10.6248L5.2702 22.1997ZM32.5264 15.1091L5.54126 30.6692L10.1894 38.7199C11.2939 40.6331 13.7403 41.2886 15.6535 40.184L35.7018 28.6091C37.615 27.5045 38.2705 25.0582 37.1659 23.145L32.5264 15.1091ZM10.5786 31.9243C10.2334 31.3265 10.4382 30.562 11.036 30.2168L20.5043 24.7496C21.1021 24.4044 21.8666 24.6092 22.2118 25.207C22.5571 25.8049 22.3522 26.5694 21.7544 26.9146L12.2861 32.3818C11.6883 32.727 10.9238 32.5222 10.5786 31.9243ZM13.4594 34.414C12.8615 34.7592 12.6567 35.5237 13.0019 36.1216C13.3471 36.7194 14.1116 36.9242 14.7095 36.579L19.5483 33.785C20.1461 33.4398 20.3509 32.6753 20.0057 32.0774C19.6605 31.4796 18.896 31.2748 18.2982 31.62L13.4594 34.414ZM24.3813 23.9556C24.0361 23.3577 24.2409 22.5932 24.8388 22.248L29.3758 19.6282C29.9737 19.283 30.7382 19.4878 31.0834 20.0857C31.4286 20.6835 31.2238 21.448 30.6259 21.7932L26.0889 24.413C25.491 24.7582 24.7265 24.5534 24.3813 23.9556Z" fill="white"/>
</clipPath>
<g clip-path="url(#mask0_5481_99663)">
<g clip-path="url(#clip0_5481_99663)">
<rect width="48" height="48" rx="5.125" fill="#FFECCF"/>
<rect width="48" height="48" fill="#FFECCF"/>
<circle cx="27.1423" cy="1.86221" r="20.8826" transform="rotate(-0.0800682 27.1423 1.86221)" fill="url(#paint0_radial_5481_99663)"/>
<path d="M18.3213 -8.47858C14.635 -10.7597 9.96439 -10.7737 6.26433 -8.51465L-30.7429 14.0808C-34.3673 16.2938 -34.3733 21.5172 -30.7539 23.7386L6.00883 46.302C9.70335 48.5691 14.374 48.5664 18.0653 46.2939L54.7523 23.7094C58.3526 21.4928 58.3591 16.2985 54.7632 14.0735L18.3213 -8.47858Z" fill="url(#paint1_linear_5481_99663)"/>
<path d="M6.91632 22.7894C7.73673 4.86956 22.9287 -8.99224 40.8485 -8.17184C58.7683 -7.35143 72.6301 7.84053 71.8097 25.7603C70.9893 43.6802 55.7973 57.542 37.8775 56.7215C19.9577 55.9011 6.09591 40.7092 6.91632 22.7894Z" fill="url(#paint2_linear_5481_99663)"/>
<path d="M-19.4476 34.6052C-12.3244 31.5664 -4.64218 31.6967 2.01351 34.3546C15.3317 39.6865 23.0811 36.39 28.456 23.1023C31.1333 16.4345 36.3604 10.7876 43.4915 7.74541C57.7492 1.67237 74.2091 8.26203 80.2736 22.4776C86.338 36.6931 79.7002 53.1271 65.4459 59.2081C58.2988 62.2571 50.6018 62.1143 43.9359 59.4324C30.6393 54.129 22.9046 57.438 17.5365 70.7417C14.8525 77.3935 9.62658 83.0211 2.50343 86.0599C-11.7429 92.1375 -28.2028 85.5478 -34.2639 71.3402C-40.3249 57.1326 -33.6939 40.6828 -19.4476 34.6052Z" fill="url(#paint3_linear_5481_99663)"/>
<circle cx="45.2009" cy="8.67178" r="20.8826" transform="rotate(-0.0800682 45.2009 8.67178)" fill="url(#paint4_radial_5481_99663)"/>
</g>
</g>

</svg>
