<svg width="160" height="160" viewBox="0 0 160 160" xmlns="http://www.w3.org/2000/svg">
  <defs>
<radialGradient id="paint0_radial_5481_90182" cx="0" cy="0" r="1" gradientUnits="userSpaceOnUse" gradientTransform="translate(90.4677 6.20574) rotate(90) scale(69.6088)">
<stop offset="0.166667" stop-color="#FF709F"/>
<stop offset="1" stop-color="#FF709F" stop-opacity="0"/>
</radialGradient>
<linearGradient id="paint1_linear_5481_90182" x1="-40.2086" y1="142.983" x2="219.921" y2="-15.2772" gradientUnits="userSpaceOnUse">
<stop offset="0.0598452" stop-color="#8480FE"/>
<stop offset="0.599632" stop-color="#8480FE" stop-opacity="0"/>
</linearGradient>
<linearGradient id="paint2_linear_5481_90182" x1="168.544" y1="29.4718" x2="56.9494" y2="149.467" gradientUnits="userSpaceOnUse">
<stop stop-color="#EB1000"/>
<stop offset="1" stop-color="#EB1000" stop-opacity="0"/>
</linearGradient>
<linearGradient id="paint3_linear_5481_90182" x1="32.9255" y1="166.029" x2="230.753" y2="55.2086" gradientUnits="userSpaceOnUse">
<stop stop-color="#FC7D00" stop-opacity="0"/>
<stop offset="0.432292" stop-color="#FC7D00"/>
<stop offset="0.609375" stop-color="#FC7D00"/>
<stop offset="1" stop-color="#FC7D00" stop-opacity="0"/>
</linearGradient>
<radialGradient id="paint4_radial_5481_90182" cx="0" cy="0" r="1" gradientUnits="userSpaceOnUse" gradientTransform="translate(150.675 28.9059) rotate(90) scale(69.6088)">
<stop offset="0.166667" stop-color="#EB1000"/>
<stop offset="1" stop-color="#EB1000" stop-opacity="0"/>
</radialGradient>
<clipPath id="clip0_5481_90182">
<rect width="160" height="160" rx="5.125" fill="white"/>
</clipPath>
</defs>
<clipPath id="mask0_5481_90182">
<path d="M79.95 54.6069C77.7408 54.6069 75.95 52.8161 75.95 50.6069V38.6419C75.95 38.4725 75.9605 38.3056 75.9809 38.1418C68.5764 38.6681 61.5706 40.6371 55.2432 43.7695C55.3322 43.8901 55.4155 44.017 55.4922 44.1499L61.4748 54.5119C62.5793 56.4251 61.9238 58.8715 60.0106 59.9761C58.0975 61.0806 55.6511 60.4251 54.5465 58.5119L48.564 48.1499C48.4974 48.0346 48.4372 47.9173 48.3833 47.7985C42.4523 51.8761 37.3478 57.0691 33.3726 63.075C33.4136 63.0968 33.4544 63.1194 33.4949 63.1428L43.857 69.1254C45.7701 70.2299 46.4256 72.6763 45.3211 74.5895C44.2165 76.5026 41.7701 77.1581 39.857 76.0536L29.4949 70.071C29.479 70.0618 29.4631 70.0525 29.4473 70.0431C26.4729 76.3415 24.641 83.2852 24.2188 90.6069H36.0105C38.2197 90.6069 40.0105 92.3978 40.0105 94.6069C40.0105 96.8161 38.2197 98.6069 36.0105 98.6069H24.3224C24.9377 105.944 26.9706 112.877 30.1464 119.133C31.406 121.614 34.0281 123.041 36.8107 123.041H123.189C125.972 123.041 128.594 121.614 129.853 119.133C133.029 112.877 135.062 105.944 135.677 98.6069H123.988C121.779 98.6069 119.988 96.8161 119.988 94.6069C119.988 92.3978 121.779 90.6069 123.988 90.6069H135.781C134.757 72.8589 125.45 57.3319 111.667 47.8337C111.618 47.9405 111.563 48.046 111.503 48.1499L105.52 58.5119C104.416 60.4251 101.969 61.0806 100.056 59.9761C98.1432 58.8715 97.4877 56.4251 98.5922 54.5119L104.575 44.1499C104.646 44.0259 104.724 43.9072 104.806 43.794C98.4369 40.6332 91.3791 38.6516 83.9182 38.1348C83.9392 38.3008 83.95 38.4701 83.95 38.6419V50.6069C83.95 52.8161 82.1591 54.6069 79.95 54.6069ZM120.492 63.8174C122.091 65.4163 122.158 67.9871 120.645 69.6678L83.2989 111.155C80.5457 114.213 75.7909 114.338 72.881 111.428C69.9712 108.518 70.0959 103.763 73.1544 101.01L114.641 63.6638C116.322 62.151 118.893 62.2184 120.492 63.8174Z" fill="#D9D9D9"/>
</clipPath>
<g clip-path="url(#mask0_5481_90182)">
<g clip-path="url(#clip0_5481_90182)">
<rect width="160" height="160" rx="5.125" fill="#FFECCF"/>
<rect width="160" height="160" fill="#FFECCF"/>
<circle cx="90.4677" cy="6.20574" r="69.6087" transform="rotate(-0.0800682 90.4677 6.20574)" fill="url(#paint0_radial_5481_90182)"/>
<path d="M61.0698 -28.2626C48.782 -35.8663 33.2133 -35.9129 20.8798 -28.3828L-102.478 46.9353C-114.559 54.3119 -114.579 71.7234 -102.514 79.1279L20.0281 154.339C32.3432 161.896 47.9119 161.887 60.2163 154.312L182.506 79.0306C194.507 71.6419 194.529 54.3277 182.543 46.9111L61.0698 -28.2626Z" fill="url(#paint1_linear_5481_90182)"/>
<path d="M23.0583 75.9646C25.793 16.2319 76.4328 -29.9741 136.166 -27.2395C195.898 -24.5048 242.104 26.1351 239.37 85.8678C236.635 145.601 185.995 191.807 126.262 189.072C66.5296 186.337 20.3236 135.697 23.0583 75.9646Z" fill="url(#paint2_linear_5481_90182)"/>
<path d="M-64.8253 115.35C-41.0814 105.221 -15.474 105.655 6.71169 114.515C51.1056 132.288 76.9371 121.299 94.8534 77.0069C103.778 54.7811 121.201 35.958 144.972 25.8174C192.497 5.57391 247.364 27.5395 267.579 74.9246C287.793 122.31 265.667 177.09 218.153 197.36C194.329 207.523 168.673 207.047 146.453 198.107C102.131 180.429 76.3488 191.459 58.4551 235.805C49.5082 257.978 32.0886 276.736 8.34476 286.866C-39.1429 307.124 -94.0093 285.159 -114.213 237.8C-134.416 190.441 -112.313 135.609 -64.8253 115.35Z" fill="url(#paint3_linear_5481_90182)"/>
<circle cx="150.675" cy="28.9059" r="69.6087" transform="rotate(-0.0800682 150.675 28.9059)" fill="url(#paint4_radial_5481_90182)"/>
</g>
</g>

</svg>
