<svg width="96" height="96" viewBox="0 0 96 96" xmlns="http://www.w3.org/2000/svg">
  <defs>
<radialGradient id="paint0_radial_5481_99704" cx="0" cy="0" r="1" gradientUnits="userSpaceOnUse" gradientTransform="translate(54.2806 3.72345) rotate(90) scale(41.7653)">
<stop offset="0.166667" stop-color="#FF709F"/>
<stop offset="1" stop-color="#FF709F" stop-opacity="0"/>
</radialGradient>
<linearGradient id="paint1_linear_5481_99704" x1="-24.1244" y1="85.7904" x2="131.953" y2="-9.16592" gradientUnits="userSpaceOnUse">
<stop offset="0.0598452" stop-color="#8480FE"/>
<stop offset="0.599632" stop-color="#8480FE" stop-opacity="0"/>
</linearGradient>
<linearGradient id="paint2_linear_5481_99704" x1="101.128" y1="17.6831" x2="34.1712" y2="89.6803" gradientUnits="userSpaceOnUse">
<stop stop-color="#EB1000"/>
<stop offset="1" stop-color="#EB1000" stop-opacity="0"/>
</linearGradient>
<linearGradient id="paint3_linear_5481_99704" x1="19.7553" y1="99.6177" x2="138.452" y2="33.1256" gradientUnits="userSpaceOnUse">
<stop stop-color="#FC7D00" stop-opacity="0"/>
<stop offset="0.432292" stop-color="#FC7D00"/>
<stop offset="0.609375" stop-color="#FC7D00"/>
<stop offset="1" stop-color="#FC7D00" stop-opacity="0"/>
</linearGradient>
<radialGradient id="paint4_radial_5481_99704" cx="0" cy="0" r="1" gradientUnits="userSpaceOnUse" gradientTransform="translate(90.4056 17.3436) rotate(90) scale(41.7653)">
<stop offset="0.166667" stop-color="#EB1000"/>
<stop offset="1" stop-color="#EB1000" stop-opacity="0"/>
</radialGradient>
<clipPath id="clip0_5481_99704">
<rect width="96" height="96" rx="5.125" fill="white"/>
</clipPath>
</defs>
<clipPath id="mask0_5481_99704">
<path fill-rule="evenodd" d="M18.6525 50.734L18.6522 50.7334C18.6454 50.7202 18.6382 50.7071 18.6308 50.6942C17.2676 48.329 17.6078 45.7308 19.5307 44.2861C21.5125 42.7972 24.3169 43.1802 25.83 45.1474L31.7176 52.8035C31.9787 53.1429 32.4269 53.2785 32.8323 53.1406C33.2377 53.0028 33.5103 52.6221 33.5103 52.1939V26.6305C33.5103 23.9331 35.6863 21.7541 38.3623 21.7541C41.0384 21.7541 43.2143 23.9331 43.2143 26.6305V43.0716C43.2143 43.6239 43.662 44.0716 44.2143 44.0716H44.2262C44.7785 44.0716 45.2262 43.6239 45.2262 43.0716V20.8765C45.2262 18.179 47.4022 16 50.0782 16C52.7543 16 54.9302 18.179 54.9302 20.8765V43.0746C54.9302 43.6268 55.3779 44.0746 55.9302 44.0746H55.9421C56.4944 44.0746 56.9421 43.6268 56.9421 43.0746V23.6595C56.9421 20.962 59.118 18.783 61.7941 18.783C64.4734 18.783 66.649 20.9623 66.649 23.6595V44.5377C66.649 45.0683 67.0635 45.5066 67.5933 45.5362C68.1231 45.5657 68.5838 45.1764 68.6428 44.649L69.2019 39.6579L69.7609 34.6668L69.761 34.6668L69.7624 34.6528C70.0472 31.7428 72.6395 30.2951 75.0192 30.7625C76.9355 31.1389 78.4426 32.858 78.1568 35.6272L75.6701 53.0169C75.6531 53.0659 75.6396 53.1168 75.6302 53.1693C73.6298 64.2822 70.3388 70.9474 66.1404 74.8465C61.969 78.7206 56.7532 80 50.5599 80C46.5101 80 42.4948 78.2578 38.7006 75.5307C34.9118 72.8075 31.4182 69.1552 28.434 65.4677C25.4536 61.7849 23.0052 58.0969 21.3008 55.3268C20.4493 53.9428 19.7851 52.7904 19.3346 51.9858C19.1094 51.5835 18.9377 51.2683 18.8229 51.0547C18.7655 50.9479 18.7222 50.8666 18.6937 50.8124L18.6618 50.7518L18.6542 50.7372L18.6525 50.734Z" fill="white"/>
</clipPath>
<g clip-path="url(#mask0_5481_99704)">
<g clip-path="url(#clip0_5481_99704)">
<rect width="96" height="96" rx="5.125" fill="#FFECCF"/>
<rect width="96" height="96" fill="#FFECCF"/>
<circle cx="54.2806" cy="3.72345" r="41.7653" transform="rotate(-0.0800682 54.2806 3.72345)" fill="url(#paint0_radial_5481_99704)"/>
<path d="M36.6427 -16.9572C29.27 -21.5194 19.9288 -21.5473 12.5287 -17.0293L-61.4858 28.1616C-68.7346 32.5875 -68.7467 43.0344 -61.5078 47.4771L12.0177 92.6039C19.4067 97.1383 28.7479 97.1329 36.1306 92.5877L109.505 47.4187C116.705 42.9855 116.718 32.597 109.526 28.1471L36.6427 -16.9572Z" fill="url(#paint1_linear_5481_99704)"/>
<path d="M13.8365 45.5788C15.4774 9.73912 45.8613 -17.9845 81.7009 -16.3437C117.541 -14.7029 145.264 15.6811 143.623 51.5207C141.982 87.3603 111.599 115.084 75.759 113.443C39.9193 111.802 12.1957 81.4184 13.8365 45.5788Z" fill="url(#paint2_linear_5481_99704)"/>
<path d="M-38.8952 69.2103C-24.6489 63.1327 -9.28437 63.3933 4.02702 68.7093C30.6634 79.3731 46.1622 72.7799 56.9121 46.2046C62.2666 32.8691 72.7207 21.5752 86.983 15.4908C115.498 3.34474 148.418 16.5241 160.547 44.9552C172.676 73.3863 159.4 106.254 130.892 118.416C116.598 124.514 101.204 124.229 87.8718 118.865C61.2786 108.258 45.8093 114.876 35.073 141.483C29.7049 154.787 19.2532 166.042 5.00686 172.12C-23.4858 184.275 -56.4056 171.096 -68.5277 142.68C-80.6499 114.265 -67.3878 81.3655 -38.8952 69.2103Z" fill="url(#paint3_linear_5481_99704)"/>
<circle cx="90.4056" cy="17.3436" r="41.7653" transform="rotate(-0.0800682 90.4056 17.3436)" fill="url(#paint4_radial_5481_99704)"/>
</g>
</g>

</svg>
