<svg width="48" height="48" viewBox="0 0 48 48" xmlns="http://www.w3.org/2000/svg">
  <defs>
<radialGradient id="paint0_radial_5481_99660" cx="0" cy="0" r="1" gradientUnits="userSpaceOnUse" gradientTransform="translate(27.1423 1.86222) rotate(90) scale(20.8826)">
<stop offset="0.166667" stop-color="#FF709F"/>
<stop offset="1" stop-color="#FF709F" stop-opacity="0"/>
</radialGradient>
<linearGradient id="paint1_linear_5481_99660" x1="-12.0622" y1="42.8952" x2="65.9766" y2="-4.58296" gradientUnits="userSpaceOnUse">
<stop offset="0.0598452" stop-color="#8480FE"/>
<stop offset="0.599632" stop-color="#8480FE" stop-opacity="0"/>
</linearGradient>
<linearGradient id="paint2_linear_5481_99660" x1="50.5621" y1="8.84155" x2="17.0836" y2="44.8401" gradientUnits="userSpaceOnUse">
<stop stop-color="#EB1000"/>
<stop offset="1" stop-color="#EB1000" stop-opacity="0"/>
</linearGradient>
<linearGradient id="paint3_linear_5481_99660" x1="9.87765" y1="49.8089" x2="69.2259" y2="16.5628" gradientUnits="userSpaceOnUse">
<stop stop-color="#FC7D00" stop-opacity="0"/>
<stop offset="0.432292" stop-color="#FC7D00"/>
<stop offset="0.609375" stop-color="#FC7D00"/>
<stop offset="1" stop-color="#FC7D00" stop-opacity="0"/>
</linearGradient>
<radialGradient id="paint4_radial_5481_99660" cx="0" cy="0" r="1" gradientUnits="userSpaceOnUse" gradientTransform="translate(45.2009 8.67178) rotate(90) scale(20.8826)">
<stop offset="0.166667" stop-color="#EB1000"/>
<stop offset="1" stop-color="#EB1000" stop-opacity="0"/>
</radialGradient>
<clipPath id="clip0_5481_99660">
<rect width="48" height="48" rx="5.125" fill="white"/>
</clipPath>
</defs>
<clipPath id="mask0_5481_99660">
<path fill-rule="evenodd" d="M27.625 17.0664C27.625 18.6174 27.2569 20.0825 26.6032 21.379C26.4196 21.4507 26.237 21.5251 26.0567 21.6019L23.4771 16.9586L23.4568 16.9246C22.3734 15.1122 19.7864 13.6138 17.2119 15.0094C14.7901 16.3223 14.0641 19.4533 15.3947 21.7058L18.1457 26.6576C18.1082 26.658 18.0707 26.6582 18.0332 26.6582C12.7358 26.6582 8.44141 22.3638 8.44141 17.0664C8.44141 11.769 12.7358 7.47461 18.0332 7.47461C23.3306 7.47461 27.625 11.769 27.625 17.0664ZM20.7841 26.2579L24.7441 33.3859C24.8555 33.5863 24.6626 33.8144 24.4486 33.7322C23.7768 33.474 23.0411 33.157 22.2801 32.8291C20.8796 32.2256 19.3932 31.5851 18.0612 31.2063C16.7017 30.8197 15.4055 31.4547 15.0612 32.7063C14.7237 33.9337 15.0614 34.9563 16.5613 35.7063C16.6701 35.7607 16.8109 35.8325 16.9803 35.919C19.1471 37.0249 26.0023 40.5236 30.6123 40.5236C35.5829 40.5236 39.5611 36.4941 39.5611 31.5236C39.5611 26.553 36.7816 22.7065 31.8111 22.7065C29.9528 22.7065 26.8605 23.7836 25.2922 24.7993C25.1667 24.8805 24.9974 24.8419 24.9248 24.7112L21.3111 18.2065C20.6959 17.1774 19.4575 16.635 18.4035 17.2064C17.7545 17.5582 17.3528 18.2227 17.2568 18.9318C17.1863 19.4514 17.28 19.995 17.5609 20.4572L20.7836 26.258C20.7838 26.258 20.784 26.2579 20.7841 26.2579Z" fill="white"/>
</clipPath>
<g clip-path="url(#mask0_5481_99660)">
<g clip-path="url(#clip0_5481_99660)">
<rect width="48" height="48" rx="5.125" fill="#FFECCF"/>
<rect width="48" height="48" fill="#FFECCF"/>
<circle cx="27.1423" cy="1.86221" r="20.8826" transform="rotate(-0.0800682 27.1423 1.86221)" fill="url(#paint0_radial_5481_99660)"/>
<path d="M18.3213 -8.47858C14.635 -10.7597 9.96439 -10.7737 6.26433 -8.51465L-30.7429 14.0808C-34.3673 16.2938 -34.3733 21.5172 -30.7539 23.7386L6.00883 46.302C9.70335 48.5691 14.374 48.5664 18.0653 46.2939L54.7523 23.7094C58.3526 21.4928 58.3591 16.2985 54.7632 14.0735L18.3213 -8.47858Z" fill="url(#paint1_linear_5481_99660)"/>
<path d="M6.91632 22.7894C7.73673 4.86956 22.9287 -8.99224 40.8485 -8.17184C58.7683 -7.35143 72.6301 7.84053 71.8097 25.7603C70.9893 43.6802 55.7973 57.542 37.8775 56.7215C19.9577 55.9011 6.09591 40.7092 6.91632 22.7894Z" fill="url(#paint2_linear_5481_99660)"/>
<path d="M-19.4476 34.6052C-12.3244 31.5664 -4.64218 31.6967 2.01351 34.3546C15.3317 39.6865 23.0811 36.39 28.456 23.1023C31.1333 16.4345 36.3604 10.7876 43.4915 7.74541C57.7492 1.67237 74.2091 8.26203 80.2736 22.4776C86.338 36.6931 79.7002 53.1271 65.4459 59.2081C58.2988 62.2571 50.6018 62.1143 43.9359 59.4324C30.6393 54.129 22.9046 57.438 17.5365 70.7417C14.8525 77.3935 9.62658 83.0211 2.50343 86.0599C-11.7429 92.1375 -28.2028 85.5478 -34.2639 71.3402C-40.3249 57.1326 -33.6939 40.6828 -19.4476 34.6052Z" fill="url(#paint3_linear_5481_99660)"/>
<circle cx="45.2009" cy="8.67178" r="20.8826" transform="rotate(-0.0800682 45.2009 8.67178)" fill="url(#paint4_radial_5481_99660)"/>
</g>
</g>

</svg>
