<svg width="96" height="96" viewBox="0 0 96 96" xmlns="http://www.w3.org/2000/svg">
  <defs>
<radialGradient id="paint0_radial_5481_99628" cx="0" cy="0" r="1" gradientUnits="userSpaceOnUse" gradientTransform="translate(54.2806 3.72345) rotate(90) scale(41.7653)">
<stop offset="0.166667" stop-color="#FF709F"/>
<stop offset="1" stop-color="#FF709F" stop-opacity="0"/>
</radialGradient>
<linearGradient id="paint1_linear_5481_99628" x1="-24.1244" y1="85.7895" x2="131.953" y2="-9.16689" gradientUnits="userSpaceOnUse">
<stop offset="0.0598452" stop-color="#8480FE"/>
<stop offset="0.599632" stop-color="#8480FE" stop-opacity="0"/>
</linearGradient>
<linearGradient id="paint2_linear_5481_99628" x1="101.128" y1="17.6831" x2="34.1712" y2="89.6803" gradientUnits="userSpaceOnUse">
<stop stop-color="#EB1000"/>
<stop offset="1" stop-color="#EB1000" stop-opacity="0"/>
</linearGradient>
<linearGradient id="paint3_linear_5481_99628" x1="19.7553" y1="99.6167" x2="138.452" y2="33.1246" gradientUnits="userSpaceOnUse">
<stop stop-color="#FC7D00" stop-opacity="0"/>
<stop offset="0.432292" stop-color="#FC7D00"/>
<stop offset="0.609375" stop-color="#FC7D00"/>
<stop offset="1" stop-color="#FC7D00" stop-opacity="0"/>
</linearGradient>
<radialGradient id="paint4_radial_5481_99628" cx="0" cy="0" r="1" gradientUnits="userSpaceOnUse" gradientTransform="translate(90.4056 17.3436) rotate(90) scale(41.7653)">
<stop offset="0.166667" stop-color="#EB1000"/>
<stop offset="1" stop-color="#EB1000" stop-opacity="0"/>
</radialGradient>
<clipPath id="clip0_5481_99628">
<rect width="96" height="96" rx="5.125" fill="white"/>
</clipPath>
</defs>
<clipPath id="mask0_5481_99628">
<path fill-rule="evenodd" d="M79.4401 20.8129C80.1255 21.6792 79.9788 22.937 79.1125 23.6223L56.0161 41.8941C55.3972 42.3837 54.5483 42.4636 53.8489 42.0982L39.1313 34.407L19.4226 51.1236C18.5803 51.8381 17.3182 51.7344 16.6037 50.8921C15.8892 50.0497 15.9929 48.7876 16.8353 48.0731L37.5707 30.4857C38.1914 29.9592 39.0693 29.8614 39.7907 30.2383L54.5518 37.9522L76.6308 20.4853C77.497 19.8 78.7548 19.9467 79.4401 20.8129ZM35.7593 51.8564C35.7593 49.9289 37.3219 48.3663 39.2494 48.3663C41.177 48.3663 42.7396 49.9289 42.7396 51.8564V70.4533C42.7396 72.3808 41.177 73.9434 39.2494 73.9434C37.3219 73.9434 35.7593 72.3808 35.7593 70.4533V51.8564ZM56.7577 51.7901C54.8302 51.7901 53.2676 53.3527 53.2676 55.2802V70.4554C53.2676 72.383 54.8302 73.9456 56.7577 73.9456C58.6853 73.9456 60.2479 72.383 60.2479 70.4554V55.2802C60.2479 53.3527 58.6853 51.7901 56.7577 51.7901ZM70.7759 43.2353C70.7759 41.3078 72.3385 39.7452 74.266 39.7452C76.1936 39.7452 77.7562 41.3078 77.7562 43.2353V70.4549C77.7562 72.3824 76.1936 73.945 74.266 73.945C72.3385 73.945 70.7759 72.3824 70.7759 70.4549V43.2353ZM21.7407 58.5636C19.8131 58.5636 18.2505 60.1261 18.2505 62.0537V70.4539C18.2505 72.3815 19.8131 73.944 21.7407 73.944C23.6682 73.944 25.2308 72.3815 25.2308 70.4539V62.0537C25.2308 60.1261 23.6682 58.5636 21.7407 58.5636Z" fill="white"/>
</clipPath>
<g clip-path="url(#mask0_5481_99628)">
<g clip-path="url(#clip0_5481_99628)">
<rect width="96" height="96" rx="5.125" fill="#FFECCF"/>
<rect width="96" height="96" fill="#FFECCF"/>
<circle cx="54.2806" cy="3.72345" r="41.7653" transform="rotate(-0.0800682 54.2806 3.72345)" fill="url(#paint0_radial_5481_99628)"/>
<path d="M36.6427 -16.9581C29.27 -21.5204 19.9288 -21.5483 12.5287 -17.0303L-61.4858 28.1606C-68.7346 32.5865 -68.7467 43.0335 -61.5078 47.4761L12.0177 92.6029C19.4067 97.1373 28.7479 97.1319 36.1306 92.5868L109.505 47.4178C116.705 42.9845 116.718 32.596 109.526 28.1461L36.6427 -16.9581Z" fill="url(#paint1_linear_5481_99628)"/>
<path d="M13.8365 45.5788C15.4774 9.73912 45.8613 -17.9845 81.7009 -16.3437C117.541 -14.7029 145.264 15.6811 143.623 51.5207C141.982 87.3603 111.599 115.084 75.759 113.443C39.9193 111.802 12.1957 81.4184 13.8365 45.5788Z" fill="url(#paint2_linear_5481_99628)"/>
<path d="M-38.8952 69.2093C-24.6489 63.1318 -9.28437 63.3923 4.02702 68.7083C30.6634 79.3721 46.1622 72.779 56.9121 46.2036C62.2666 32.8681 72.7207 21.5742 86.983 15.4898C115.498 3.34376 148.418 16.5231 160.547 44.9542C172.676 73.3853 159.4 106.253 130.892 118.415C116.598 124.513 101.204 124.228 87.8718 118.864C61.2786 108.257 45.8093 114.875 35.073 141.482C29.7049 154.786 19.2532 166.041 5.00686 172.119C-23.4858 184.274 -56.4056 171.095 -68.5277 142.679C-80.6499 114.264 -67.3878 81.3645 -38.8952 69.2093Z" fill="url(#paint3_linear_5481_99628)"/>
<circle cx="90.4056" cy="17.3436" r="41.7653" transform="rotate(-0.0800682 90.4056 17.3436)" fill="url(#paint4_radial_5481_99628)"/>
</g>
</g>

</svg>
