<svg width="160" height="160" viewBox="0 0 160 160" xmlns="http://www.w3.org/2000/svg">
  <defs>
<radialGradient id="paint0_radial_5481_89909" cx="0" cy="0" r="1" gradientUnits="userSpaceOnUse" gradientTransform="translate(56.9923 53.7253) rotate(90) scale(53.7253 56.9923)">
<stop offset="0.166667" stop-color="#FF709F"/>
<stop offset="1" stop-color="#FF709F" stop-opacity="0"/>
</radialGradient>
<linearGradient id="paint1_linear_5481_89909" x1="-19.9205" y1="131.011" x2="186.087" y2="-1.94322" gradientUnits="userSpaceOnUse">
<stop offset="0.0598452" stop-color="#8480FE"/>
<stop offset="0.599632" stop-color="#8480FE" stop-opacity="0"/>
</linearGradient>
<linearGradient id="paint2_linear_5481_89909" x1="150.995" y1="43.4014" x2="65.3801" y2="141.06" gradientUnits="userSpaceOnUse">
<stop stop-color="#EB1000"/>
<stop offset="1" stop-color="#EB1000" stop-opacity="0"/>
</linearGradient>
<linearGradient id="paint3_linear_5481_89909" x1="39.9585" y1="148.798" x2="197.223" y2="55.3431" gradientUnits="userSpaceOnUse">
<stop stop-color="#FC7D00" stop-opacity="0"/>
<stop offset="0.432292" stop-color="#FC7D00"/>
<stop offset="0.609375" stop-color="#FC7D00"/>
<stop offset="1" stop-color="#FC7D00" stop-opacity="0"/>
</linearGradient>
<radialGradient id="paint4_radial_5481_89909" cx="0" cy="0" r="1" gradientUnits="userSpaceOnUse" gradientTransform="translate(56.9923 53.7253) rotate(90) scale(53.7253 56.9923)">
<stop offset="0.166667" stop-color="#EB1000"/>
<stop offset="1" stop-color="#EB1000" stop-opacity="0"/>
</radialGradient>
<clipPath id="clip0_5481_89909">
<rect x="13" y="20.6543" width="131" height="123.491" rx="3.46124" fill="white"/>
</clipPath>
</defs>
<clipPath id="mask0_5481_89909">
<path fill-rule="evenodd" d="M116.85 50.4502C116.85 63.9812 106.552 74.9502 93.8496 74.9502C81.1471 74.9502 70.8496 63.9812 70.8496 50.4502C70.8496 36.9192 81.1471 25.9502 93.8496 25.9502C106.552 25.9502 116.85 36.9192 116.85 50.4502ZM72.5904 74.0802C70.5504 74.7102 68.3904 75.0602 66.1504 75.0602C53.4504 75.0602 43.1504 64.0902 43.1504 50.5602C43.1504 37.0302 53.4504 26.0602 66.1504 26.0602C68.3204 26.0602 70.4304 26.3902 72.4204 26.9902C66.5204 32.9102 62.8404 41.1502 62.8404 50.4502C62.8404 59.7502 66.5904 68.1502 72.5904 74.0802ZM40.0701 122.47C43.3201 107.38 52.7201 94.7702 65.2601 87.0702C43.2201 87.4902 24.6801 103.39 20.1901 124.26C19.1101 129.28 22.8601 134.04 28.0001 134.04H41.9401C39.9001 130.58 39.2001 126.48 40.0701 122.47ZM93.8396 86.9502C116.27 86.9502 135.25 103.01 139.8 124.16C140.88 129.18 137.13 133.94 131.99 133.94H55.6896C50.5496 133.94 46.7996 129.18 47.8796 124.16C52.4296 103.01 71.4096 86.9502 93.8396 86.9502Z" fill="white"/>
</clipPath>
<g clip-path="url(#mask0_5481_89909)">
<g clip-path="url(#clip0_5481_89909)">
<rect x="13" y="20.6543" width="131" height="123.491" rx="3.46124" fill="#FFECCF"/>
<rect width="131" height="123.491" transform="translate(13 20.6543)" fill="#FFECCF"/>
<ellipse cx="56.9923" cy="53.7253" rx="56.9923" ry="53.7253" transform="matrix(0.999999 -0.00131734 0.00148243 0.999999 30 -28.2061)" fill="url(#paint0_radial_5481_89909)"/>
<path d="M63.0015 -1.15922C52.9408 -7.0279 40.1939 -7.06384 30.0958 -1.252L-70.9034 56.8798C-80.795 62.5732 -80.8115 76.0118 -70.9334 81.7267L29.3985 139.776C39.4815 145.609 52.2284 145.602 62.3027 139.755L162.428 81.6516C172.254 75.9488 172.272 62.5854 162.458 56.8612L63.0015 -1.15922Z" fill="url(#paint1_linear_5481_89909)"/>
<path d="M31.8784 79.2854C34.1175 33.1826 75.579 -2.48002 124.485 -0.369331C173.392 1.74136 211.223 40.8261 208.984 86.9289C206.745 133.032 165.283 168.694 116.377 166.584C67.4707 164.473 29.6394 125.388 31.8784 79.2854Z" fill="url(#paint2_linear_5481_89909)"/>
<path d="M-40.0752 109.683C-20.6349 101.865 0.331309 102.2 18.4959 109.038C54.8435 122.756 75.9931 114.275 90.6621 80.089C97.9688 62.9348 112.234 48.4068 131.697 40.58C170.608 24.9558 215.53 41.9092 232.081 78.4819C248.632 115.055 230.516 157.335 191.614 172.979C172.108 180.824 151.102 180.456 132.909 173.556C96.6206 159.912 75.5114 168.426 60.8609 202.652C53.5356 219.765 39.2733 234.244 19.8329 242.062C-19.0477 257.698 -63.9697 240.744 -80.5114 204.192C-97.0531 167.64 -78.9559 125.319 -40.0752 109.683Z" fill="url(#paint3_linear_5481_89909)"/>
<ellipse cx="56.9923" cy="53.7253" rx="56.9923" ry="53.7253" transform="matrix(0.999999 -0.00131734 0.00148243 0.999999 79.293 -10.6855)" fill="url(#paint4_radial_5481_89909)"/>
</g>
</g>

</svg>
