<svg width="161" height="160" viewBox="0 0 161 160" fill="none" xmlns="http://www.w3.org/2000/svg">
<mask id="mask0_5_686" style="mask-type:luminance" maskUnits="userSpaceOnUse" x="28" y="28" width="105" height="104">
<path fill-rule="evenodd" clip-rule="evenodd" d="M68.9421 29.3026C68.4021 28.7726 67.6821 28.4626 66.9121 28.4526L31.1021 28.0026C29.4621 27.9826 28.1521 29.2926 28.1521 30.8826V67.0626C28.1521 67.8226 28.4521 68.5526 29.0021 69.0926L45.0773 85.0959C50.7773 79.3986 58.6501 75.875 67.3459 75.875C84.7429 75.875 98.8459 89.978 98.8459 107.375C98.8459 116.014 95.3684 123.84 89.7369 129.531C93.5986 132.948 99.5207 132.815 103.222 129.133L129.292 103.183C133.122 99.3726 133.122 93.2026 129.292 89.3826L68.9521 29.3026H68.9421ZM51.1521 59.0026C46.7321 59.0026 43.1521 55.4226 43.1521 51.0026C43.1521 46.5826 46.7321 43.0026 51.1521 43.0026C55.5721 43.0026 59.1521 46.5826 59.1521 51.0026C59.1521 55.4226 55.5721 59.0026 51.1521 59.0026ZM42.8362 107.465C42.8362 93.935 53.8062 82.965 67.3362 82.965C80.8662 82.965 91.8362 93.935 91.8362 107.465C91.8362 120.995 80.8662 131.965 67.3362 131.965C53.8062 131.965 42.8362 120.995 42.8362 107.465ZM78.2562 118.395C79.8162 116.825 79.8162 114.295 78.2562 112.735L72.9962 107.475L78.2562 102.215C79.8162 100.645 79.8162 98.115 78.2562 96.555C76.6962 94.995 74.1562 94.995 72.5962 96.555L67.3362 101.815L62.0762 96.555C60.5162 94.995 57.9762 94.995 56.4162 96.555C54.8562 98.125 54.8562 100.655 56.4162 102.215L61.6762 107.475L56.4162 112.735C54.8562 114.305 54.8562 116.835 56.4162 118.395C57.1962 119.175 58.2162 119.565 59.2462 119.565C60.2762 119.565 61.2962 119.175 62.0762 118.395L67.3362 113.135L72.5962 118.395C73.3762 119.175 74.3962 119.565 75.4262 119.565C76.4562 119.565 77.4762 119.175 78.2562 118.395Z" fill="white"/>
</mask>
<g mask="url(#mask0_5_686)">
<g clip-path="url(#clip0_5_686)">
<rect x="0.158447" width="160" height="160" rx="5.125" fill="#FFECCF"/>
<rect width="160" height="160" transform="translate(0.158447)" fill="#FFECCF"/>
<circle cx="90.6266" cy="6.20599" r="69.6087" transform="rotate(-0.0800682 90.6266 6.20599)" fill="url(#paint0_radial_5_686)"/>
<path d="M61.2273 -28.263C48.9395 -35.8667 33.3708 -35.9133 21.0373 -28.3832L-102.32 46.9349C-114.401 54.3115 -114.422 71.723 -102.357 79.1275L20.1856 154.339C32.5006 161.896 48.0694 161.887 60.3738 154.312L182.664 79.0302C194.665 71.6415 194.687 54.3273 182.7 46.9107L61.2273 -28.263Z" fill="url(#paint1_linear_5_686)"/>
<path d="M23.2168 75.9645C25.9515 16.2317 76.5913 -29.9743 136.324 -27.2396C196.057 -24.5049 242.263 26.135 239.528 85.8677C236.793 145.6 186.153 191.806 126.421 189.072C66.6881 186.337 20.4821 135.697 23.2168 75.9645Z" fill="url(#paint2_linear_5_686)"/>
<path d="M-64.6646 115.35C-40.9208 105.22 -15.3133 105.655 6.87233 114.515C51.2663 132.287 77.0977 121.299 95.0141 77.0066C103.938 54.7808 121.362 35.9577 145.132 25.8171C192.658 5.5736 247.524 27.5392 267.739 74.9243C287.954 122.309 265.828 177.089 218.314 197.359C194.49 207.523 168.833 207.047 146.614 198.107C102.292 180.429 76.5094 191.459 58.6157 235.805C49.6688 257.977 32.2493 276.736 8.50541 286.865C-38.9823 307.124 -93.8486 285.158 -114.052 237.8C-134.256 190.441 -112.152 135.608 -64.6646 115.35Z" fill="url(#paint3_linear_5_686)"/>
<circle cx="150.833" cy="28.9062" r="69.6087" transform="rotate(-0.0800682 150.833 28.9062)" fill="url(#paint4_radial_5_686)"/>
</g>
</g>
<defs>
<radialGradient id="paint0_radial_5_686" cx="0" cy="0" r="1" gradientUnits="userSpaceOnUse" gradientTransform="translate(90.6266 6.20599) rotate(90) scale(69.6088)">
<stop offset="0.166667" stop-color="#FF709F"/>
<stop offset="1" stop-color="#FF709F" stop-opacity="0"/>
</radialGradient>
<linearGradient id="paint1_linear_5_686" x1="-40.0512" y1="142.983" x2="220.078" y2="-15.2776" gradientUnits="userSpaceOnUse">
<stop offset="0.0598452" stop-color="#8480FE"/>
<stop offset="0.599632" stop-color="#8480FE" stop-opacity="0"/>
</linearGradient>
<linearGradient id="paint2_linear_5_686" x1="168.703" y1="29.4717" x2="57.1078" y2="149.467" gradientUnits="userSpaceOnUse">
<stop stop-color="#EB1000"/>
<stop offset="1" stop-color="#EB1000" stop-opacity="0"/>
</linearGradient>
<linearGradient id="paint3_linear_5_686" x1="33.0861" y1="166.029" x2="230.914" y2="55.2083" gradientUnits="userSpaceOnUse">
<stop stop-color="#FC7D00" stop-opacity="0"/>
<stop offset="0.432292" stop-color="#FC7D00"/>
<stop offset="0.609375" stop-color="#FC7D00"/>
<stop offset="1" stop-color="#FC7D00" stop-opacity="0"/>
</linearGradient>
<radialGradient id="paint4_radial_5_686" cx="0" cy="0" r="1" gradientUnits="userSpaceOnUse" gradientTransform="translate(150.833 28.9062) rotate(90) scale(69.6088)">
<stop offset="0.166667" stop-color="#EB1000"/>
<stop offset="1" stop-color="#EB1000" stop-opacity="0"/>
</radialGradient>
<clipPath id="clip0_5_686">
<rect x="0.158447" width="160" height="160" rx="5.125" fill="white"/>
</clipPath>
</defs>
</svg>
