<svg width="96" height="96" viewBox="0 0 96 96" xmlns="http://www.w3.org/2000/svg">
  <defs>
<radialGradient id="paint0_radial_5481_99434" cx="0" cy="0" r="1" gradientUnits="userSpaceOnUse" gradientTransform="translate(34.1954 32.2352) rotate(90) scale(32.2352 34.1954)">
<stop offset="0.166667" stop-color="#FF709F"/>
<stop offset="1" stop-color="#FF709F" stop-opacity="0"/>
</radialGradient>
<linearGradient id="paint1_linear_5481_99434" x1="-11.3554" y1="79.4145" x2="112.249" y2="-0.358325" gradientUnits="userSpaceOnUse">
<stop offset="0.0598452" stop-color="#8480FE"/>
<stop offset="0.599632" stop-color="#8480FE" stop-opacity="0"/>
</linearGradient>
<linearGradient id="paint2_linear_5481_99434" x1="91.1941" y1="26.8485" x2="39.825" y2="85.4435" gradientUnits="userSpaceOnUse">
<stop stop-color="#EB1000"/>
<stop offset="1" stop-color="#EB1000" stop-opacity="0"/>
</linearGradient>
<linearGradient id="paint3_linear_5481_99434" x1="24.5743" y1="90.0866" x2="118.933" y2="34.0139" gradientUnits="userSpaceOnUse">
<stop stop-color="#FC7D00" stop-opacity="0"/>
<stop offset="0.432292" stop-color="#FC7D00"/>
<stop offset="0.609375" stop-color="#FC7D00"/>
<stop offset="1" stop-color="#FC7D00" stop-opacity="0"/>
</linearGradient>
<radialGradient id="paint4_radial_5481_99434" cx="0" cy="0" r="1" gradientUnits="userSpaceOnUse" gradientTransform="translate(34.1954 32.2352) rotate(90) scale(32.2352 34.1954)">
<stop offset="0.166667" stop-color="#EB1000"/>
<stop offset="1" stop-color="#EB1000" stop-opacity="0"/>
</radialGradient>
<clipPath id="clip0_5481_99434">
<rect x="8.39844" y="13.2002" width="78.6002" height="74.0945" rx="2.07674" fill="white"/>
</clipPath>
</defs>
<clipPath id="mask0_5481_99434">
<path fill-rule="evenodd" d="M54.1852 13.0078H73.3672C78.6691 13.0078 82.9672 17.3059 82.9672 22.6078V41.7898C82.9672 47.0917 78.6691 51.3898 73.3672 51.3898H54.1852C48.8832 51.3898 44.5852 47.0917 44.5852 41.7898V22.6078C44.5852 17.3059 48.8832 13.0078 54.1852 13.0078ZM21.4313 24.6838H31.3433C35.9824 24.6838 39.7432 28.4446 39.7432 33.0838V42.9958C39.7432 47.635 35.9824 51.3958 31.3433 51.3958H21.4313C16.7921 51.3958 13.0312 47.635 13.0312 42.9958V33.0838C13.0312 28.4446 16.7921 24.6838 21.4313 24.6838ZM31.3433 56.2798H21.4313C16.7921 56.2798 13.0312 60.0406 13.0312 64.6798V74.5918C13.0312 79.231 16.7921 82.9918 21.4313 82.9918H31.3433C35.9824 82.9918 39.7432 79.231 39.7432 74.5918V64.6798C39.7432 60.0406 35.9824 56.2798 31.3433 56.2798ZM52.9852 56.2798H62.8972C67.5364 56.2798 71.2972 60.0406 71.2972 64.6798V74.5918C71.2972 79.231 67.5364 82.9918 62.8972 82.9918H52.9852C48.346 82.9918 44.5852 79.231 44.5852 74.5918V64.6798C44.5852 60.0406 48.346 56.2798 52.9852 56.2798Z" fill="white"/>
</clipPath>
<g clip-path="url(#mask0_5481_99434)">
<g clip-path="url(#clip0_5481_99434)">
<rect x="8.39844" y="13.2002" width="78.6002" height="74.0945" rx="2.07674" fill="#FFECCF"/>
<rect width="78.6002" height="74.0945" transform="translate(8.39844 13.2002)" fill="#FFECCF"/>
<ellipse cx="34.1954" cy="32.2352" rx="34.1954" ry="32.2352" transform="matrix(0.999999 -0.00131734 0.00148243 0.999999 18.5977 -16.1162)" fill="url(#paint0_radial_5481_99434)"/>
<path d="M38.3978 0.112086C32.3614 -3.40912 24.7132 -3.43069 18.6544 0.0564173L-41.9452 34.9355C-47.8801 38.3516 -47.89 46.4147 -41.9631 49.8436L18.236 84.6733C24.2858 88.173 31.9339 88.1688 37.9785 84.6608L98.0536 49.7985C103.949 46.3769 103.96 38.3589 98.0716 34.9243L38.3978 0.112086Z" fill="url(#paint1_linear_5481_99434)"/>
<path d="M19.7239 48.3788C21.0673 20.7172 45.9442 -0.680396 75.288 0.586017C104.632 1.85243 127.331 25.3033 125.987 52.9649C124.644 80.6266 99.7668 102.024 70.4231 100.758C41.0793 99.4913 18.3805 76.0405 19.7239 48.3788Z" fill="url(#paint2_linear_5481_99434)"/>
<path d="M-23.4459 66.6177C-11.7817 61.9269 0.797992 62.128 11.6967 66.231C33.5053 74.4615 46.195 69.3728 54.9965 48.8614C59.3805 38.5689 67.9399 29.8521 79.6172 25.156C102.964 15.7815 129.917 25.9535 139.848 47.8971C149.779 69.8408 138.909 95.2088 115.568 104.596C103.864 109.302 91.2603 109.082 80.3448 104.942C58.5716 96.7553 45.9061 101.863 37.1157 122.399C32.7206 132.667 24.1632 141.354 12.499 146.045C-10.8294 155.427 -37.7826 145.255 -47.7076 123.323C-57.6327 101.392 -46.7743 75.9993 -23.4459 66.6177Z" fill="url(#paint3_linear_5481_99434)"/>
<ellipse cx="34.1954" cy="32.2352" rx="34.1954" ry="32.2352" transform="matrix(0.999999 -0.00131734 0.00148243 0.999999 48.1758 -5.60352)" fill="url(#paint4_radial_5481_99434)"/>
</g>
</g>

</svg>
