<svg width="96" height="96" viewBox="0 0 96 96" xmlns="http://www.w3.org/2000/svg">
  <defs>
<radialGradient id="paint0_radial_5481_99413" cx="0" cy="0" r="1" gradientUnits="userSpaceOnUse" gradientTransform="translate(34.1954 32.2352) rotate(90) scale(32.2352 34.1954)">
<stop offset="0.166667" stop-color="#FF709F"/>
<stop offset="1" stop-color="#FF709F" stop-opacity="0"/>
</radialGradient>
<linearGradient id="paint1_linear_5481_99413" x1="-11.9531" y1="78.6069" x2="111.651" y2="-1.16594" gradientUnits="userSpaceOnUse">
<stop offset="0.0598452" stop-color="#8480FE"/>
<stop offset="0.599632" stop-color="#8480FE" stop-opacity="0"/>
</linearGradient>
<linearGradient id="paint2_linear_5481_99413" x1="90.5965" y1="26.0409" x2="39.2273" y2="84.6359" gradientUnits="userSpaceOnUse">
<stop stop-color="#EB1000"/>
<stop offset="1" stop-color="#EB1000" stop-opacity="0"/>
</linearGradient>
<linearGradient id="paint3_linear_5481_99413" x1="23.9766" y1="89.279" x2="118.335" y2="33.2063" gradientUnits="userSpaceOnUse">
<stop stop-color="#FC7D00" stop-opacity="0"/>
<stop offset="0.432292" stop-color="#FC7D00"/>
<stop offset="0.609375" stop-color="#FC7D00"/>
<stop offset="1" stop-color="#FC7D00" stop-opacity="0"/>
</linearGradient>
<radialGradient id="paint4_radial_5481_99413" cx="0" cy="0" r="1" gradientUnits="userSpaceOnUse" gradientTransform="translate(34.1954 32.2352) rotate(90) scale(32.2352 34.1954)">
<stop offset="0.166667" stop-color="#EB1000"/>
<stop offset="1" stop-color="#EB1000" stop-opacity="0"/>
</radialGradient>
<clipPath id="clip0_5481_99413">
<rect x="7.80078" y="12.3926" width="78.6002" height="74.0945" rx="2.07674" fill="white"/>
</clipPath>
</defs>
<clipPath id="mask0_5481_99413">
<path fill-rule="evenodd" d="M70.1113 30.2703C70.1113 38.3889 63.9329 44.9703 56.3113 44.9703C48.6898 44.9703 42.5113 38.3889 42.5113 30.2703C42.5113 22.1517 48.6898 15.5703 56.3113 15.5703C63.9329 15.5703 70.1113 22.1517 70.1113 30.2703ZM43.5558 44.4483C42.3318 44.8263 41.0358 45.0363 39.6918 45.0363C32.0718 45.0363 25.8918 38.4543 25.8918 30.3363C25.8918 22.2183 32.0718 15.6363 39.6918 15.6363C40.9938 15.6363 42.2598 15.8343 43.4538 16.1943C39.9138 19.7463 37.7058 24.6903 37.7058 30.2703C37.7058 35.8503 39.9558 40.8903 43.5558 44.4483ZM24.0436 73.4823C25.9936 64.4283 31.6336 56.8623 39.1576 52.2423C25.9336 52.4943 14.8096 62.0343 12.1156 74.5563C11.4676 77.5683 13.7176 80.4243 16.8016 80.4243H25.1656C23.9416 78.3483 23.5216 75.8883 24.0436 73.4823ZM56.3053 52.1703C69.7633 52.1703 81.1513 61.8063 83.8813 74.4963C84.5293 77.5083 82.2793 80.3643 79.1953 80.3643H33.4153C30.3313 80.3643 28.0813 77.5083 28.7293 74.4963C31.4593 61.8063 42.8473 52.1703 56.3053 52.1703Z" fill="white"/>
</clipPath>
<g clip-path="url(#mask0_5481_99413)">
<g clip-path="url(#clip0_5481_99413)">
<rect x="7.80078" y="12.3926" width="78.6002" height="74.0945" rx="2.07674" fill="#FFECCF"/>
<rect width="78.6002" height="74.0945" transform="translate(7.80078 12.3926)" fill="#FFECCF"/>
<ellipse cx="34.1954" cy="32.2352" rx="34.1954" ry="32.2352" transform="matrix(0.999999 -0.00131734 0.00148243 0.999999 18 -16.9238)" fill="url(#paint0_radial_5481_99413)"/>
<path d="M37.8001 -0.695531C31.7637 -4.21674 24.1156 -4.23831 18.0567 -0.7512L-42.5428 34.1279C-48.4778 37.5439 -48.4877 45.6071 -42.5608 49.036L17.6383 83.8656C23.6881 87.3653 31.3363 87.3612 37.3808 83.8532L97.4559 48.9909C103.351 45.5693 103.362 37.5513 97.4739 34.1167L37.8001 -0.695531Z" fill="url(#paint1_linear_5481_99413)"/>
<path d="M19.1263 47.5712C20.4697 19.9096 45.3466 -1.48801 74.6904 -0.2216C104.034 1.04481 126.733 24.4957 125.39 52.1573C124.046 79.819 99.1692 101.217 69.8254 99.9501C40.4816 98.6837 17.7828 75.2329 19.1263 47.5712Z" fill="url(#paint2_linear_5481_99413)"/>
<path d="M-24.0436 65.8101C-12.3794 61.1193 0.200335 61.3204 11.0991 65.4234C32.9077 73.6539 45.5974 68.5652 54.3988 48.0538C58.7829 37.7613 67.3422 29.0445 79.0195 24.3484C102.367 14.9739 129.32 25.1459 139.25 47.0895C149.181 69.0331 138.311 94.4012 114.97 103.788C103.267 108.495 90.6626 108.274 79.7472 104.134C57.9739 95.9477 45.3084 101.056 36.5181 121.592C32.1229 131.86 23.5655 140.547 11.9013 145.237C-11.4271 154.619 -38.3803 144.447 -48.3053 122.516C-58.2303 100.584 -47.372 75.1917 -24.0436 65.8101Z" fill="url(#paint3_linear_5481_99413)"/>
<ellipse cx="34.1954" cy="32.2352" rx="34.1954" ry="32.2352" transform="matrix(0.999999 -0.00131734 0.00148243 0.999999 47.5781 -6.41113)" fill="url(#paint4_radial_5481_99413)"/>
</g>
</g>

</svg>
