<svg width="96" height="96" viewBox="0 0 96 96" xmlns="http://www.w3.org/2000/svg">
  <defs>
<radialGradient id="paint0_radial_5481_99350" cx="0" cy="0" r="1" gradientUnits="userSpaceOnUse" gradientTransform="translate(35.918 33.859) rotate(90) scale(33.859 35.918)">
<stop offset="0.166667" stop-color="#FF709F"/>
<stop offset="1" stop-color="#FF709F" stop-opacity="0"/>
</radialGradient>
<linearGradient id="paint1_linear_5481_99350" x1="-9.711" y1="83.47" x2="120.12" y2="-0.321466" gradientUnits="userSpaceOnUse">
<stop offset="0.0598452" stop-color="#8480FE"/>
<stop offset="0.599632" stop-color="#8480FE" stop-opacity="0"/>
</linearGradient>
<linearGradient id="paint2_linear_5481_99350" x1="98.0092" y1="28.2558" x2="44.0524" y2="89.8026" gradientUnits="userSpaceOnUse">
<stop stop-color="#EB1000"/>
<stop offset="1" stop-color="#EB1000" stop-opacity="0"/>
</linearGradient>
<linearGradient id="paint3_linear_5481_99350" x1="28.0286" y1="94.6793" x2="127.141" y2="35.7818" gradientUnits="userSpaceOnUse">
<stop stop-color="#FC7D00" stop-opacity="0"/>
<stop offset="0.432292" stop-color="#FC7D00"/>
<stop offset="0.609375" stop-color="#FC7D00"/>
<stop offset="1" stop-color="#FC7D00" stop-opacity="0"/>
</linearGradient>
<radialGradient id="paint4_radial_5481_99350" cx="0" cy="0" r="1" gradientUnits="userSpaceOnUse" gradientTransform="translate(35.918 33.859) rotate(90) scale(33.859 35.918)">
<stop offset="0.166667" stop-color="#EB1000"/>
<stop offset="1" stop-color="#EB1000" stop-opacity="0"/>
</radialGradient>
<clipPath id="clip0_5481_99350">
<rect x="11.0391" y="13.9199" width="82.5598" height="77.827" rx="2.07674" fill="white"/>
</clipPath>
</defs>
<clipPath id="mask0_5481_99350">
<path fill-rule="evenodd" d="M74.3807 20.3398C79.6847 20.3398 83.9808 24.6358 83.9808 29.9398V32.3938H11.9688V29.9398C11.9688 24.6358 16.2647 20.3398 21.5687 20.3398H74.3807ZM83.9812 51.8758C82.4332 51.4798 80.8132 51.2698 79.1452 51.2698H79.1392C68.3752 51.2698 59.6212 60.0238 59.6212 70.7878C59.6212 72.4498 59.8312 74.0698 60.2272 75.6118H28.7992V37.1938H83.9812V51.8758ZM11.9688 66.0178C11.9688 71.3218 16.2648 75.6178 21.5688 75.6178H23.9987V37.1998H11.9688V66.0178ZM79.1457 56.0758C80.8377 56.0758 82.4637 56.3638 83.9817 56.8918H83.9877C89.7417 58.8958 93.8697 64.3618 93.8697 70.7938C93.8697 78.9238 87.2817 85.5118 79.1517 85.5118C72.7137 85.5118 67.2417 81.3778 65.2437 75.6178C64.7157 74.1058 64.4277 72.4858 64.4277 70.7938C64.4277 62.6638 71.0157 56.0758 79.1457 56.0758ZM81.5517 73.1638H86.2797C87.6057 73.1638 88.6797 72.0898 88.6797 70.7638C88.6797 69.4378 87.6057 68.3638 86.2797 68.3638H81.5517V63.6358C81.5517 62.3098 80.4777 61.2358 79.1517 61.2358C77.8257 61.2358 76.7517 62.3098 76.7517 63.6358V68.3638H72.0237C70.6977 68.3638 69.6237 69.4378 69.6237 70.7638C69.6237 72.0898 70.6977 73.1638 72.0237 73.1638H76.7517V77.8918C76.7517 79.2178 77.8257 80.2918 79.1517 80.2918C80.4777 80.2918 81.5517 79.2178 81.5517 77.8918V73.1638Z" fill="white"/>
</clipPath>
<g clip-path="url(#mask0_5481_99350)">
<g clip-path="url(#clip0_5481_99350)">
<rect x="11.0391" y="13.9199" width="82.5598" height="77.827" rx="2.07674" fill="#FFECCF"/>
<rect width="82.5598" height="77.827" transform="translate(11.0391 13.9199)" fill="#FFECCF"/>
<ellipse cx="35.918" cy="33.859" rx="35.918" ry="33.859" transform="matrix(0.999999 -0.00131734 0.00148243 0.999999 21.7539 -16.873)" fill="url(#paint0_radial_5481_99350)"/>
<path d="M42.5485 0.172642C36.208 -3.52595 28.1746 -3.5486 21.8105 0.114169L-41.8417 36.7503C-48.0757 40.3384 -48.0861 48.8077 -41.8606 52.4094L21.3711 88.9936C27.7256 92.6696 35.7591 92.6653 42.1081 88.9805L105.21 52.3621C111.402 48.7681 111.413 40.3461 105.228 36.7386L42.5485 0.172642Z" fill="url(#paint1_linear_5481_99350)"/>
<path d="M22.9387 50.8708C24.3498 21.8157 50.4799 -0.65981 81.3019 0.670399C112.124 2.00061 135.966 26.6328 134.555 55.6879C133.144 84.743 107.014 107.219 76.1919 105.888C45.3699 104.558 21.5276 79.9259 22.9387 50.8708Z" fill="url(#paint2_linear_5481_99350)"/>
<path d="M-22.4107 70.0281C-10.1589 65.101 3.05454 65.3123 14.5023 69.6219C37.4095 78.267 50.7385 72.922 59.9833 51.3774C64.5882 40.5663 73.5787 31.4104 85.8443 26.4778C110.367 16.631 138.678 27.3154 149.109 50.3645C159.54 73.4135 148.123 100.059 123.606 109.919C111.313 114.863 98.0739 114.631 86.6086 110.283C63.7385 101.684 50.4349 107.049 41.2018 128.62C36.5852 139.405 27.5968 148.529 15.345 153.457C-9.15862 163.311 -37.4696 152.626 -47.8946 129.59C-58.3196 106.554 -46.9142 79.8823 -22.4107 70.0281Z" fill="url(#paint3_linear_5481_99350)"/>
<ellipse cx="35.918" cy="33.859" rx="35.918" ry="33.859" transform="matrix(0.999999 -0.00131734 0.00148243 0.999999 52.8203 -5.83105)" fill="url(#paint4_radial_5481_99350)"/>
</g>
</g>

</svg>
