<svg width="96" height="96" viewBox="0 0 96 96" xmlns="http://www.w3.org/2000/svg">
  <defs>
<radialGradient id="paint0_radial_5481_99695" cx="0" cy="0" r="1" gradientUnits="userSpaceOnUse" gradientTransform="translate(54.2806 3.72345) rotate(90) scale(41.7653)">
<stop offset="0.166667" stop-color="#FF709F"/>
<stop offset="1" stop-color="#FF709F" stop-opacity="0"/>
</radialGradient>
<linearGradient id="paint1_linear_5481_99695" x1="-24.1244" y1="85.7895" x2="131.953" y2="-9.16689" gradientUnits="userSpaceOnUse">
<stop offset="0.0598452" stop-color="#8480FE"/>
<stop offset="0.599632" stop-color="#8480FE" stop-opacity="0"/>
</linearGradient>
<linearGradient id="paint2_linear_5481_99695" x1="101.128" y1="17.6831" x2="34.1712" y2="89.6803" gradientUnits="userSpaceOnUse">
<stop stop-color="#EB1000"/>
<stop offset="1" stop-color="#EB1000" stop-opacity="0"/>
</linearGradient>
<linearGradient id="paint3_linear_5481_99695" x1="19.7553" y1="99.6167" x2="138.452" y2="33.1246" gradientUnits="userSpaceOnUse">
<stop stop-color="#FC7D00" stop-opacity="0"/>
<stop offset="0.432292" stop-color="#FC7D00"/>
<stop offset="0.609375" stop-color="#FC7D00"/>
<stop offset="1" stop-color="#FC7D00" stop-opacity="0"/>
</linearGradient>
<radialGradient id="paint4_radial_5481_99695" cx="0" cy="0" r="1" gradientUnits="userSpaceOnUse" gradientTransform="translate(90.4056 17.3436) rotate(90) scale(41.7653)">
<stop offset="0.166667" stop-color="#EB1000"/>
<stop offset="1" stop-color="#EB1000" stop-opacity="0"/>
</radialGradient>
<clipPath id="clip0_5481_99695">
<rect width="96" height="96" rx="5.125" fill="white"/>
</clipPath>
</defs>
<clipPath id="mask0_5481_99695">
<path fill-rule="evenodd" d="M65.762 70.3758C75.4202 65.2603 81.8412 56.1918 81.8412 45.8574C81.8412 44.8454 81.7796 43.8455 81.6594 42.8603C82.9622 42.7296 84.5035 42.2199 85.8664 41.0807C87.6891 39.5573 88.985 37.085 89.149 33.4725C89.1991 32.3691 88.3452 31.434 87.2418 31.3839C86.1383 31.3338 85.2032 32.1877 85.1531 33.2911C85.0309 35.9837 84.1203 37.327 83.3012 38.0116C82.425 38.7439 81.4127 38.9253 80.841 38.8921C77.1476 26.2819 63.6538 16.9326 47.5729 16.9326C41.0301 16.9326 34.9161 18.4799 29.7157 21.1653C26.627 17.8525 21.7902 16.8918 18.0397 16.9359C16.648 16.9522 15.9247 18.462 16.622 19.6664L21.1287 27.4502L21.1615 27.4262C18.8034 29.8309 16.8975 32.563 15.5536 35.5297V35.5132L8.83801 39.4256C7.60805 40.1421 6.85156 41.4584 6.85156 42.8818V48.8339C6.85156 50.2579 7.60867 51.5746 8.83944 52.291L15.5536 56.1988V56.185C18.2214 62.0743 23.1042 67.0391 29.3418 70.3535C29.3249 70.3514 29.3108 70.3503 29.2998 70.3503L31.7792 77.1016C32.2129 78.2825 33.3373 79.0674 34.5953 79.0674H38.0292C39.2863 79.0674 40.41 78.2837 40.8444 77.1042L41.8414 74.3969L41.7524 74.3666C43.6442 74.6398 45.5889 74.7821 47.5729 74.7821C49.5134 74.7821 51.4162 74.646 53.2687 74.3844L53.2298 74.3969L54.2268 77.1042C54.6612 78.2837 55.785 79.0674 57.042 79.0674H60.4759C61.734 79.0674 62.8584 78.2825 63.292 77.1016L65.762 70.3758ZM52.5308 27.1464C49.375 26.4436 46.7481 26.4141 43.4104 27.1476C42.3316 27.3847 41.2649 26.7024 41.0278 25.6235C40.7907 24.5447 41.473 23.478 42.5518 23.2409C46.4642 22.381 49.681 22.4138 53.4003 23.2421C54.4784 23.4822 55.1578 24.5508 54.9177 25.629C54.6776 26.7072 53.6089 27.3865 52.5308 27.1464ZM29.7207 35.3818C29.7207 37.0387 28.3776 38.3818 26.7207 38.3818C25.0638 38.3818 23.7207 37.0387 23.7207 35.3818C23.7207 33.725 25.0638 32.3818 26.7207 32.3818C28.3776 32.3818 29.7207 33.725 29.7207 35.3818Z" fill="#292929"/>
</clipPath>
<g clip-path="url(#mask0_5481_99695)">
<g clip-path="url(#clip0_5481_99695)">
<rect width="96" height="96" rx="5.125" fill="#FFECCF"/>
<rect width="96" height="96" fill="#FFECCF"/>
<circle cx="54.2806" cy="3.72345" r="41.7653" transform="rotate(-0.0800682 54.2806 3.72345)" fill="url(#paint0_radial_5481_99695)"/>
<path d="M36.6427 -16.9581C29.27 -21.5204 19.9288 -21.5483 12.5287 -17.0303L-61.4858 28.1606C-68.7346 32.5865 -68.7467 43.0335 -61.5078 47.4761L12.0177 92.6029C19.4067 97.1373 28.7479 97.1319 36.1306 92.5868L109.505 47.4178C116.705 42.9845 116.718 32.596 109.526 28.1461L36.6427 -16.9581Z" fill="url(#paint1_linear_5481_99695)"/>
<path d="M13.8365 45.5788C15.4774 9.73912 45.8613 -17.9845 81.7009 -16.3437C117.541 -14.7029 145.264 15.6811 143.623 51.5207C141.982 87.3603 111.599 115.084 75.759 113.443C39.9193 111.802 12.1957 81.4184 13.8365 45.5788Z" fill="url(#paint2_linear_5481_99695)"/>
<path d="M-38.8952 69.2093C-24.6489 63.1318 -9.28437 63.3923 4.02702 68.7083C30.6634 79.3721 46.1622 72.779 56.9121 46.2036C62.2666 32.8681 72.7207 21.5742 86.983 15.4898C115.498 3.34376 148.418 16.5231 160.547 44.9542C172.676 73.3853 159.4 106.253 130.892 118.415C116.598 124.513 101.204 124.228 87.8718 118.864C61.2786 108.257 45.8093 114.875 35.073 141.482C29.7049 154.786 19.2532 166.041 5.00686 172.119C-23.4858 184.274 -56.4056 171.095 -68.5277 142.679C-80.6499 114.264 -67.3878 81.3645 -38.8952 69.2093Z" fill="url(#paint3_linear_5481_99695)"/>
<circle cx="90.4056" cy="17.3436" r="41.7653" transform="rotate(-0.0800682 90.4056 17.3436)" fill="url(#paint4_radial_5481_99695)"/>
</g>
</g>

</svg>
