<svg width="48" height="48" viewBox="0 0 48 48" xmlns="http://www.w3.org/2000/svg">
  <defs>
<radialGradient id="paint0_radial_5481_99432" cx="0" cy="0" r="1" gradientUnits="userSpaceOnUse" gradientTransform="translate(17.0977 16.1176) rotate(90) scale(16.1176 17.0977)">
<stop offset="0.166667" stop-color="#FF709F"/>
<stop offset="1" stop-color="#FF709F" stop-opacity="0"/>
</radialGradient>
<linearGradient id="paint1_linear_5481_99432" x1="-5.67575" y1="38.5075" x2="56.1264" y2="-1.37887" gradientUnits="userSpaceOnUse">
<stop offset="0.0598452" stop-color="#8480FE"/>
<stop offset="0.599632" stop-color="#8480FE" stop-opacity="0"/>
</linearGradient>
<linearGradient id="paint2_linear_5481_99432" x1="45.5971" y1="12.224" x2="19.9125" y2="41.5215" gradientUnits="userSpaceOnUse">
<stop stop-color="#EB1000"/>
<stop offset="1" stop-color="#EB1000" stop-opacity="0"/>
</linearGradient>
<linearGradient id="paint3_linear_5481_99432" x1="12.2871" y1="43.8436" x2="59.4664" y2="15.8072" gradientUnits="userSpaceOnUse">
<stop stop-color="#FC7D00" stop-opacity="0"/>
<stop offset="0.432292" stop-color="#FC7D00"/>
<stop offset="0.609375" stop-color="#FC7D00"/>
<stop offset="1" stop-color="#FC7D00" stop-opacity="0"/>
</linearGradient>
<radialGradient id="paint4_radial_5481_99432" cx="0" cy="0" r="1" gradientUnits="userSpaceOnUse" gradientTransform="translate(17.0977 16.1176) rotate(90) scale(16.1176 17.0977)">
<stop offset="0.166667" stop-color="#EB1000"/>
<stop offset="1" stop-color="#EB1000" stop-opacity="0"/>
</radialGradient>
<clipPath id="clip0_5481_99432">
<rect x="4.19922" y="5.40039" width="39.3001" height="37.0472" rx="1.03837" fill="white"/>
</clipPath>
</defs>
<clipPath id="mask0_5481_99432">
<path fill-rule="evenodd" d="M13.725 7.81836H34.275C36.264 7.81836 37.875 9.42936 37.875 11.4184V26.3074C37.875 33.9724 31.665 40.1824 24 40.1824C16.335 40.1824 10.125 33.9694 10.125 26.3074V11.4184C10.125 9.42936 11.736 7.81836 13.725 7.81836ZM14.949 27.5434C15.1375 27.6541 15.344 27.7051 15.5475 27.7054C15.964 27.7048 16.3653 27.4889 16.587 27.1054L20.775 19.8514C21.108 19.2784 20.91 18.5434 20.337 18.2134C19.764 17.8804 19.029 18.0784 18.699 18.6514L14.511 25.9054C14.178 26.4784 14.376 27.2134 14.949 27.5434ZM30.705 27.7054C31.572 27.7054 32.349 27.2554 32.784 26.5054C33.219 25.7524 33.219 24.8554 32.784 24.1054L29.013 17.5744C28.578 16.8244 27.801 16.3744 26.934 16.3744C26.067 16.3744 25.29 16.8244 24.855 17.5744L21.084 24.1054C20.649 24.8554 20.649 25.7554 21.084 26.5054C21.519 27.2554 22.296 27.7054 23.163 27.7054H30.705ZM26.9343 18.7714L30.7053 25.3054H23.1633L26.9343 18.7714Z" fill="white"/>
</clipPath>
<g clip-path="url(#mask0_5481_99432)">
<g clip-path="url(#clip0_5481_99432)">
<rect x="4.19922" y="5.40039" width="39.3001" height="37.0472" rx="1.03837" fill="#FFECCF"/>
<rect width="39.3001" height="37.0472" transform="translate(4.19922 5.40039)" fill="#FFECCF"/>
<ellipse cx="17.0977" cy="16.1176" rx="17.0977" ry="16.1176" transform="matrix(0.999999 -0.00131734 0.00148243 0.999999 9.30078 -9.25781)" fill="url(#paint0_radial_5481_99432)"/>
<path d="M19.2008 -1.14366C16.1826 -2.90427 12.3586 -2.91505 9.32914 -1.1715L-20.9706 16.2681C-23.9381 17.9761 -23.9431 22.0076 -20.9796 23.7221L9.11995 41.1369C12.1448 42.8868 15.9689 42.8847 18.9912 41.1307L49.0287 23.6996C51.9765 21.9888 51.9819 17.9797 49.0377 16.2625L19.2008 -1.14366Z" fill="url(#paint1_linear_5481_99432)"/>
<path d="M9.86196 22.9892C10.5337 9.1584 22.9721 -1.54039 37.644 -0.907187C52.3159 -0.27398 63.6653 11.4514 62.9936 25.2823C62.3219 39.1131 49.8834 49.8119 35.2115 49.1787C20.5396 48.5455 9.19025 36.8201 9.86196 22.9892Z" fill="url(#paint2_linear_5481_99432)"/>
<path d="M-11.723 32.1091C-5.89086 29.7637 0.398996 29.8643 5.84836 31.9158C16.7527 36.031 23.0975 33.4867 27.4982 23.231C29.6903 18.0847 33.9699 13.7263 39.8086 11.3783C51.4821 6.69103 64.9587 11.777 69.924 22.7489C74.8893 33.7207 69.4545 46.4047 57.7838 51.0981C51.9321 53.4514 45.6301 53.3412 40.1724 51.2712C29.2858 47.178 22.953 49.732 18.5579 59.9999C16.3603 65.1339 12.0816 69.4774 6.24949 71.8228C-5.41472 76.5136 -18.8913 71.4276 -23.8538 60.4619C-28.8163 49.4962 -23.3872 36.7999 -11.723 32.1091Z" fill="url(#paint3_linear_5481_99432)"/>
<ellipse cx="17.0977" cy="16.1176" rx="17.0977" ry="16.1176" transform="matrix(0.999999 -0.00131734 0.00148243 0.999999 24.0859 -4.00195)" fill="url(#paint4_radial_5481_99432)"/>
</g>
</g>

</svg>
