<svg width="48" height="48" viewBox="0 0 48 48" xmlns="http://www.w3.org/2000/svg">
  <defs>
<radialGradient id="paint0_radial_5481_99267" cx="0" cy="0" r="1" gradientUnits="userSpaceOnUse" gradientTransform="translate(16.9744 16.0013) rotate(90) scale(16.0013 16.9744)">
<stop offset="0.166667" stop-color="#FF709F"/>
<stop offset="1" stop-color="#FF709F" stop-opacity="0"/>
</radialGradient>
<linearGradient id="paint1_linear_5481_99267" x1="-5.18888" y1="38.5684" x2="56.1675" y2="-1.0303" gradientUnits="userSpaceOnUse">
<stop offset="0.0598452" stop-color="#8480FE"/>
<stop offset="0.599632" stop-color="#8480FE" stop-opacity="0"/>
</linearGradient>
<linearGradient id="paint2_linear_5481_99267" x1="45.7177" y1="12.4755" x2="20.2184" y2="41.5616" gradientUnits="userSpaceOnUse">
<stop stop-color="#EB1000"/>
<stop offset="1" stop-color="#EB1000" stop-opacity="0"/>
</linearGradient>
<linearGradient id="paint3_linear_5481_99267" x1="12.6459" y1="43.8655" x2="59.4848" y2="16.0314" gradientUnits="userSpaceOnUse">
<stop stop-color="#FC7D00" stop-opacity="0"/>
<stop offset="0.432292" stop-color="#FC7D00"/>
<stop offset="0.609375" stop-color="#FC7D00"/>
<stop offset="1" stop-color="#FC7D00" stop-opacity="0"/>
</linearGradient>
<radialGradient id="paint4_radial_5481_99267" cx="0" cy="0" r="1" gradientUnits="userSpaceOnUse" gradientTransform="translate(16.9744 16.0013) rotate(90) scale(16.0013 16.9744)">
<stop offset="0.166667" stop-color="#EB1000"/>
<stop offset="1" stop-color="#EB1000" stop-opacity="0"/>
</radialGradient>
<clipPath id="clip0_5481_99267">
<rect x="4.61719" y="5.7002" width="39.0166" height="36.78" rx="1.03837" fill="white"/>
</clipPath>
</defs>
<clipPath id="mask0_5481_99267">
<path fill-rule="evenodd" d="M10.1538 10.2002H37.8462C38.9535 10.2002 39.9596 10.68 40.7042 11.4621L24.768 20.76C24.2089 21.0862 23.5215 21.0798 22.9682 20.743L7.45815 11.3003C8.18367 10.6143 9.12509 10.2002 10.1538 10.2002ZM6.21048 13.3505C6.07393 13.8063 6 14.2937 6 14.8002V33.2002C6 35.7407 7.85974 37.8002 10.1538 37.8002H37.8462C40.1403 37.8002 42 35.7407 42 33.2002V14.8002C42 14.3749 41.9479 13.963 41.8503 13.5721L25.9774 22.833C24.6569 23.6035 23.026 23.588 21.7202 22.793L6.21048 13.3505Z" fill="white"/>
</clipPath>
<g clip-path="url(#mask0_5481_99267)">
<g clip-path="url(#clip0_5481_99267)">
<rect x="4.61719" y="5.7002" width="39.0166" height="36.78" rx="1.03837" fill="#FFECCF"/>
<rect width="39.0166" height="36.78" transform="translate(4.61719 5.7002)" fill="#FFECCF"/>
<ellipse cx="16.9744" cy="16.0013" rx="16.9744" ry="16.0013" transform="matrix(0.999999 -0.00131734 0.00148243 0.999999 9.67969 -8.85254)" fill="url(#paint0_radial_5481_99267)"/>
<path d="M19.5082 -0.796799C16.5118 -2.5447 12.7153 -2.55541 9.70776 -0.824432L-20.3734 16.4893C-23.3195 18.185 -23.3244 22.1875 -20.3823 23.8896L9.50008 41.1788C12.5031 42.916 16.2996 42.9139 19.3001 41.1726L49.121 23.8672C52.0475 22.1687 52.0528 18.1886 49.1299 16.4838L19.5082 -0.796799Z" fill="url(#paint1_linear_5481_99267)"/>
<path d="M10.2404 23.163C10.9073 9.43194 23.256 -1.18967 37.822 -0.561035C52.3881 0.0676033 63.6556 11.7084 62.9887 25.4395C62.3219 39.1705 49.9731 49.7921 35.4071 49.1635C20.841 48.5349 9.57352 36.894 10.2404 23.163Z" fill="url(#paint2_linear_5481_99267)"/>
<path d="M-11.191 32.2157C-5.40098 29.8872 0.843505 29.987 6.25356 32.0237C17.0792 36.1093 23.3783 33.5833 27.7473 23.4016C29.9235 18.2925 34.1723 13.9655 39.9688 11.6344C51.5581 6.98094 64.9375 12.0303 69.8669 22.9229C74.7964 33.8156 69.4009 46.4081 57.8143 51.0677C52.0048 53.404 45.7483 53.2945 40.33 51.2396C29.5219 47.1758 23.2348 49.7114 18.8714 59.9053C16.6897 65.0022 12.4418 69.3144 6.65179 71.6428C-4.92827 76.2998 -18.3076 71.2505 -23.2344 60.3639C-28.1611 49.4774 -22.7711 36.8726 -11.191 32.2157Z" fill="url(#paint3_linear_5481_99267)"/>
<ellipse cx="16.9744" cy="16.0013" rx="16.9744" ry="16.0013" transform="matrix(0.999999 -0.00131734 0.00148243 0.999999 24.3633 -3.63379)" fill="url(#paint4_radial_5481_99267)"/>
</g>
</g>

</svg>
