<svg width="160" height="160" viewBox="0 0 160 160" xmlns="http://www.w3.org/2000/svg">
  <defs>
<radialGradient id="paint0_radial_5481_90010" cx="0" cy="0" r="1" gradientUnits="userSpaceOnUse" gradientTransform="translate(90.4677 6.20574) rotate(90) scale(69.6088)">
<stop offset="0.166667" stop-color="#FF709F"/>
<stop offset="1" stop-color="#FF709F" stop-opacity="0"/>
</radialGradient>
<linearGradient id="paint1_linear_5481_90010" x1="-40.2086" y1="142.983" x2="219.921" y2="-15.2772" gradientUnits="userSpaceOnUse">
<stop offset="0.0598452" stop-color="#8480FE"/>
<stop offset="0.599632" stop-color="#8480FE" stop-opacity="0"/>
</linearGradient>
<linearGradient id="paint2_linear_5481_90010" x1="168.544" y1="29.4718" x2="56.9494" y2="149.467" gradientUnits="userSpaceOnUse">
<stop stop-color="#EB1000"/>
<stop offset="1" stop-color="#EB1000" stop-opacity="0"/>
</linearGradient>
<linearGradient id="paint3_linear_5481_90010" x1="32.9255" y1="166.029" x2="230.753" y2="55.2086" gradientUnits="userSpaceOnUse">
<stop stop-color="#FC7D00" stop-opacity="0"/>
<stop offset="0.432292" stop-color="#FC7D00"/>
<stop offset="0.609375" stop-color="#FC7D00"/>
<stop offset="1" stop-color="#FC7D00" stop-opacity="0"/>
</linearGradient>
<radialGradient id="paint4_radial_5481_90010" cx="0" cy="0" r="1" gradientUnits="userSpaceOnUse" gradientTransform="translate(150.675 28.9059) rotate(90) scale(69.6088)">
<stop offset="0.166667" stop-color="#EB1000"/>
<stop offset="1" stop-color="#EB1000" stop-opacity="0"/>
</radialGradient>
<clipPath id="clip0_5481_90010">
<rect width="160" height="160" rx="5.125" fill="white"/>
</clipPath>
</defs>
<clipPath id="mask0_5481_90010">
<path fill-rule="evenodd" d="M62.7218 40.7743L85.93 63.9825L79.4096 76.5485C77.6533 79.9332 74.7459 82.5794 71.2112 84.0102L36.426 98.0911C35.3385 98.5313 34.2521 98.6344 33.2412 98.4747L56.0014 75.6412C57.604 75.6953 59.2243 75.1106 60.4476 73.8872C62.7908 71.5441 62.7908 67.7451 60.4476 65.402C58.1045 63.0588 54.3055 63.0588 51.9624 65.402C50.6732 66.6911 50.0933 68.4209 50.2227 70.1065L28.168 92.2323C28.2041 91.5923 28.347 90.9354 28.6131 90.2782L42.694 55.493C44.1248 51.9584 46.771 49.0509 50.1558 47.2946L62.7218 40.7743ZM96.7539 51.3633L90.6892 57.428L69.2532 35.992L75.3179 29.9273C77.6611 27.5841 81.4601 27.5841 83.8032 29.9273L96.7539 42.878C99.0971 45.2211 99.0971 49.0201 96.7539 51.3633ZM92.3726 91.8019L116.059 62.8872C119.172 59.0871 124.776 58.5301 128.576 61.6431C132.376 64.7561 132.933 70.3603 129.82 74.1604L106.046 103.182C104.335 99.8467 101.937 97.3238 99.7433 95.5267C97.6839 93.8397 95.1426 92.5834 92.3726 91.8019ZM94.6737 101.715C96.4606 103.179 98.1939 105.111 99.2653 107.544C100.661 110.713 100.933 114.733 98.7353 119.674C98.5888 120.004 98.4312 120.337 98.2623 120.675C93.6189 129.957 80.1906 131.907 68.8587 131.829C68.1218 131.823 67.3939 131.81 66.6777 131.789L66.6776 131.789C62.3878 131.664 58.5233 131.284 55.7274 130.962C55.8977 130.829 56.0643 130.698 56.2274 130.569C59.1505 128.251 60.9441 126.423 62.4082 124.302C62.5685 124.07 62.7248 123.834 62.8783 123.594C64.2046 121.517 65.3144 119.101 66.8853 115.68C67.7788 113.734 68.8215 111.464 70.138 108.746C70.409 108.187 70.6961 107.655 70.9976 107.15C75.5204 99.5733 83.2994 98.0027 89.1247 99.2365C91.3603 99.7101 93.3081 100.597 94.6737 101.715Z" fill="white"/>
</clipPath>
<g clip-path="url(#mask0_5481_90010)">
<g clip-path="url(#clip0_5481_90010)">
<rect width="160" height="160" rx="5.125" fill="#FFECCF"/>
<rect width="160" height="160" fill="#FFECCF"/>
<circle cx="90.4677" cy="6.20574" r="69.6087" transform="rotate(-0.0800682 90.4677 6.20574)" fill="url(#paint0_radial_5481_90010)"/>
<path d="M61.0698 -28.2626C48.782 -35.8663 33.2133 -35.9129 20.8798 -28.3828L-102.478 46.9353C-114.559 54.3119 -114.579 71.7234 -102.514 79.1279L20.0281 154.339C32.3432 161.896 47.9119 161.887 60.2163 154.312L182.506 79.0306C194.507 71.6419 194.529 54.3277 182.543 46.9111L61.0698 -28.2626Z" fill="url(#paint1_linear_5481_90010)"/>
<path d="M23.0583 75.9646C25.793 16.2319 76.4328 -29.9741 136.166 -27.2395C195.898 -24.5048 242.104 26.1351 239.37 85.8678C236.635 145.601 185.995 191.807 126.262 189.072C66.5296 186.337 20.3236 135.697 23.0583 75.9646Z" fill="url(#paint2_linear_5481_90010)"/>
<path d="M-64.8253 115.35C-41.0814 105.221 -15.474 105.655 6.71169 114.515C51.1056 132.288 76.9371 121.299 94.8534 77.0069C103.778 54.7811 121.201 35.958 144.972 25.8174C192.497 5.57391 247.364 27.5395 267.579 74.9246C287.793 122.31 265.667 177.09 218.153 197.36C194.329 207.523 168.673 207.047 146.453 198.107C102.131 180.429 76.3488 191.459 58.4551 235.805C49.5082 257.978 32.0886 276.736 8.34476 286.866C-39.1429 307.124 -94.0093 285.159 -114.213 237.8C-134.416 190.441 -112.313 135.609 -64.8253 115.35Z" fill="url(#paint3_linear_5481_90010)"/>
<circle cx="150.675" cy="28.9059" r="69.6087" transform="rotate(-0.0800682 150.675 28.9059)" fill="url(#paint4_radial_5481_90010)"/>
</g>
</g>

</svg>
