<svg width="160" height="160" viewBox="0 0 160 160" xmlns="http://www.w3.org/2000/svg">
  <defs>
<radialGradient id="paint0_radial_5481_90194" cx="0" cy="0" r="1" gradientUnits="userSpaceOnUse" gradientTransform="translate(90.4677 6.20574) rotate(90) scale(69.6088)">
<stop offset="0.166667" stop-color="#FF709F"/>
<stop offset="1" stop-color="#FF709F" stop-opacity="0"/>
</radialGradient>
<linearGradient id="paint1_linear_5481_90194" x1="-40.2086" y1="142.982" x2="219.921" y2="-15.2781" gradientUnits="userSpaceOnUse">
<stop offset="0.0598452" stop-color="#8480FE"/>
<stop offset="0.599632" stop-color="#8480FE" stop-opacity="0"/>
</linearGradient>
<linearGradient id="paint2_linear_5481_90194" x1="168.544" y1="29.4718" x2="56.9494" y2="149.467" gradientUnits="userSpaceOnUse">
<stop stop-color="#EB1000"/>
<stop offset="1" stop-color="#EB1000" stop-opacity="0"/>
</linearGradient>
<linearGradient id="paint3_linear_5481_90194" x1="32.9255" y1="166.029" x2="230.753" y2="55.2086" gradientUnits="userSpaceOnUse">
<stop stop-color="#FC7D00" stop-opacity="0"/>
<stop offset="0.432292" stop-color="#FC7D00"/>
<stop offset="0.609375" stop-color="#FC7D00"/>
<stop offset="1" stop-color="#FC7D00" stop-opacity="0"/>
</linearGradient>
<radialGradient id="paint4_radial_5481_90194" cx="0" cy="0" r="1" gradientUnits="userSpaceOnUse" gradientTransform="translate(150.675 28.9059) rotate(90) scale(69.6088)">
<stop offset="0.166667" stop-color="#EB1000"/>
<stop offset="1" stop-color="#EB1000" stop-opacity="0"/>
</radialGradient>
<clipPath id="clip0_5481_90194">
<rect width="160" height="160" rx="5.125" fill="white"/>
</clipPath>
</defs>
<clipPath id="mask0_5481_90194">
<path fill-rule="evenodd" d="M23.3086 79.5767C23.3086 64.523 29.2938 50.8672 39.0143 40.8591L57.4529 97.3107H26.4962C26.3971 97.3107 26.2989 97.3143 26.2016 97.3214C24.3255 91.749 23.3086 85.7816 23.3086 79.5767ZM55.9672 66.9957L45.5503 35.1035C54.8369 28.1318 66.3782 24.001 78.8843 24.001C88.5961 24.001 97.7261 26.4921 105.67 30.8701L55.9672 66.9957ZM29.6127 105.311C38.896 123.048 57.4766 135.152 78.8844 135.152C78.9798 135.152 79.0752 135.152 79.1706 135.152L88.5869 105.311L29.6127 105.311ZM87.7828 134.444L105.08 79.628L131.171 98.4561C124.415 117.163 107.906 131.206 87.7828 134.444ZM133.44 90.2281C134.11 86.7808 134.46 83.2197 134.46 79.5767C134.46 61.6613 125.983 45.7257 112.821 35.5624L85.3529 55.5272L133.44 90.2281Z" fill="white"/>
</clipPath>
<g clip-path="url(#mask0_5481_90194)">
<g clip-path="url(#clip0_5481_90194)">
<rect width="160" height="160" rx="5.125" fill="#FFECCF"/>
<rect width="160" height="160" fill="#FFECCF"/>
<circle cx="90.4677" cy="6.20574" r="69.6087" transform="rotate(-0.0800682 90.4677 6.20574)" fill="url(#paint0_radial_5481_90194)"/>
<path d="M61.0698 -28.2636C48.782 -35.8673 33.2133 -35.9139 20.8798 -28.3838L-102.478 46.9343C-114.559 54.3109 -114.579 71.7224 -102.514 79.1269L20.0281 154.338C32.3432 161.895 47.9119 161.887 60.2163 154.311L182.506 79.0296C194.507 71.6409 194.529 54.3267 182.543 46.9101L61.0698 -28.2636Z" fill="url(#paint1_linear_5481_90194)"/>
<path d="M23.0583 75.9646C25.793 16.2319 76.4328 -29.9741 136.166 -27.2395C195.898 -24.5048 242.104 26.1351 239.37 85.8678C236.635 145.601 185.995 191.807 126.262 189.072C66.5296 186.337 20.3236 135.697 23.0583 75.9646Z" fill="url(#paint2_linear_5481_90194)"/>
<path d="M-64.8253 115.35C-41.0814 105.221 -15.474 105.655 6.71169 114.515C51.1056 132.288 76.9371 121.299 94.8534 77.0069C103.778 54.7811 121.201 35.958 144.972 25.8174C192.497 5.57391 247.364 27.5395 267.579 74.9246C287.793 122.31 265.667 177.09 218.153 197.36C194.329 207.523 168.673 207.047 146.453 198.107C102.131 180.429 76.3488 191.459 58.4551 235.805C49.5082 257.978 32.0886 276.736 8.34476 286.866C-39.1429 307.124 -94.0093 285.159 -114.213 237.8C-134.416 190.441 -112.313 135.609 -64.8253 115.35Z" fill="url(#paint3_linear_5481_90194)"/>
<circle cx="150.675" cy="28.9059" r="69.6087" transform="rotate(-0.0800682 150.675 28.9059)" fill="url(#paint4_radial_5481_90194)"/>
</g>
</g>

</svg>
