<svg width="48" height="48" viewBox="0 0 48 48" xmlns="http://www.w3.org/2000/svg">
  <defs>
<radialGradient id="paint0_radial_5481_99396" cx="0" cy="0" r="1" gradientUnits="userSpaceOnUse" gradientTransform="translate(16.3929 15.4531) rotate(90) scale(15.4531 16.3929)">
<stop offset="0.166667" stop-color="#FF709F"/>
<stop offset="1" stop-color="#FF709F" stop-opacity="0"/>
</radialGradient>
<linearGradient id="paint1_linear_5481_99396" x1="-3.94892" y1="38.702" x2="55.3055" y2="0.459869" gradientUnits="userSpaceOnUse">
<stop offset="0.0598452" stop-color="#8480FE"/>
<stop offset="0.599632" stop-color="#8480FE" stop-opacity="0"/>
</linearGradient>
<linearGradient id="paint2_linear_5481_99396" x1="45.2133" y1="13.5027" x2="20.5875" y2="41.5925" gradientUnits="userSpaceOnUse">
<stop stop-color="#EB1000"/>
<stop offset="1" stop-color="#EB1000" stop-opacity="0"/>
</linearGradient>
<linearGradient id="paint3_linear_5481_99396" x1="13.273" y1="43.8181" x2="58.5074" y2="16.9375" gradientUnits="userSpaceOnUse">
<stop stop-color="#FC7D00" stop-opacity="0"/>
<stop offset="0.432292" stop-color="#FC7D00"/>
<stop offset="0.609375" stop-color="#FC7D00"/>
<stop offset="1" stop-color="#FC7D00" stop-opacity="0"/>
</linearGradient>
<radialGradient id="paint4_radial_5481_99396" cx="0" cy="0" r="1" gradientUnits="userSpaceOnUse" gradientTransform="translate(16.3929 15.4531) rotate(90) scale(15.4531 16.3929)">
<stop offset="0.166667" stop-color="#EB1000"/>
<stop offset="1" stop-color="#EB1000" stop-opacity="0"/>
</radialGradient>
<clipPath id="clip0_5481_99396">
<rect x="5.51953" y="6.95996" width="37.68" height="35.52" rx="1.03837" fill="white"/>
</clipPath>
</defs>
<clipPath id="mask0_5481_99396">
<path fill-rule="evenodd" d="M35.2619 16.3947C35.2604 16.427 35.2589 16.4592 35.2589 16.4907C39.2699 16.7277 42.4529 20.0457 42.4529 24.4467C42.4529 28.8477 39.0389 32.4147 34.8239 32.4147H34.7819H25.0529V22.2207L30.3029 26.4327C30.5249 26.6097 30.7889 26.6967 31.0529 26.6967C31.4039 26.6967 31.7519 26.5407 31.9889 26.2467C32.4029 25.7307 32.3189 24.9747 31.8029 24.5607L24.7019 18.8607C24.2609 18.5067 23.6309 18.5097 23.1929 18.8667L16.1939 24.5667C15.6779 24.9867 15.5999 25.7427 16.0199 26.2557C16.4399 26.7717 17.1959 26.8497 17.7089 26.4297L22.6499 22.4037V32.4147L25.0498 32.4147V40.7997C25.0498 41.4627 24.5128 41.9997 23.8498 41.9997C23.1868 41.9997 22.6498 41.4627 22.6498 40.7997V32.4147L10.9409 32.4147V32.4087C7.95588 32.3577 5.54688 29.8167 5.54688 26.6847C5.54688 24.0477 7.25688 21.8307 9.58188 21.1647C9.47688 20.6817 9.41387 20.1807 9.41387 19.6617C9.41387 15.9837 12.2669 13.0047 15.7859 13.0047C16.6469 13.0047 17.4659 13.1847 18.2159 13.5087C19.3469 9.83671 22.6409 7.17871 26.5319 7.17871C31.3559 7.17871 35.2649 11.2617 35.2649 16.2987C35.2649 16.3302 35.2634 16.3625 35.2619 16.3947Z" fill="white"/>
</clipPath>
<g clip-path="url(#mask0_5481_99396)">
<g clip-path="url(#clip0_5481_99396)">
<rect x="5.51953" y="6.95996" width="37.68" height="35.52" rx="1.03837" fill="#FFECCF"/>
<rect width="37.68" height="35.52" transform="translate(5.51953 6.95996)" fill="#FFECCF"/>
<ellipse cx="16.3929" cy="15.4531" rx="16.3929" ry="15.4531" transform="matrix(0.999999 -0.00131734 0.00148243 0.999999 10.4102 -7.09375)" fill="url(#paint0_radial_5481_99396)"/>
<path d="M19.9022 0.685379C17.0084 -1.00265 13.3419 -1.01298 10.4374 0.658692L-18.6133 17.3793C-21.4584 19.0169 -21.4632 22.8823 -18.6219 24.5261L10.2368 41.223C13.137 42.9007 16.8035 42.8987 19.7012 41.217L48.5004 24.5045C51.3267 22.8642 51.3318 19.0204 48.5091 17.3739L19.9022 0.685379Z" fill="url(#paint1_linear_5481_99396)"/>
<path d="M10.9514 23.8241C11.5954 10.5635 23.5211 0.305737 37.5881 0.91284C51.6552 1.51994 62.5367 12.762 61.8927 26.0227C61.2486 39.2833 49.323 49.541 35.2559 48.9339C21.1889 48.3268 10.3073 37.0848 10.9514 23.8241Z" fill="url(#paint2_linear_5481_99396)"/>
<path d="M-9.74728 32.5674C-4.1556 30.3187 1.87496 30.4151 7.09968 32.382C17.5545 36.3276 23.6378 33.8882 27.8571 24.0553C29.9587 19.1211 34.062 14.9424 39.6599 12.6912C50.8522 8.19712 63.7732 13.0735 68.5338 23.593C73.2944 34.1125 68.0837 46.2736 56.8941 50.7735C51.2836 53.0298 45.2415 52.9241 40.0088 50.9396C29.5709 47.015 23.4992 49.4637 19.2852 59.3084C17.1783 64.2307 13.0759 68.3952 7.48427 70.6439C-3.69908 75.1413 -16.6201 70.2649 -21.3781 59.7513C-26.136 49.2377 -20.9306 37.0648 -9.74728 32.5674Z" fill="url(#paint3_linear_5481_99396)"/>
<ellipse cx="16.3929" cy="15.4531" rx="16.3929" ry="15.4531" transform="matrix(0.999999 -0.00131734 0.00148243 0.999999 24.5859 -2.05469)" fill="url(#paint4_radial_5481_99396)"/>
</g>
</g>

</svg>
