<svg width="96" height="96" viewBox="0 0 96 96" xmlns="http://www.w3.org/2000/svg">
  <defs>
<radialGradient id="paint0_radial_5481_99682" cx="0" cy="0" r="1" gradientUnits="userSpaceOnUse" gradientTransform="translate(54.2806 3.72345) rotate(90) scale(41.7653)">
<stop offset="0.166667" stop-color="#FF709F"/>
<stop offset="1" stop-color="#FF709F" stop-opacity="0"/>
</radialGradient>
<linearGradient id="paint1_linear_5481_99682" x1="-24.1244" y1="85.7895" x2="131.953" y2="-9.16689" gradientUnits="userSpaceOnUse">
<stop offset="0.0598452" stop-color="#8480FE"/>
<stop offset="0.599632" stop-color="#8480FE" stop-opacity="0"/>
</linearGradient>
<linearGradient id="paint2_linear_5481_99682" x1="101.128" y1="17.6831" x2="34.1712" y2="89.6803" gradientUnits="userSpaceOnUse">
<stop stop-color="#EB1000"/>
<stop offset="1" stop-color="#EB1000" stop-opacity="0"/>
</linearGradient>
<linearGradient id="paint3_linear_5481_99682" x1="19.7553" y1="99.6167" x2="138.452" y2="33.1246" gradientUnits="userSpaceOnUse">
<stop stop-color="#FC7D00" stop-opacity="0"/>
<stop offset="0.432292" stop-color="#FC7D00"/>
<stop offset="0.609375" stop-color="#FC7D00"/>
<stop offset="1" stop-color="#FC7D00" stop-opacity="0"/>
</linearGradient>
<radialGradient id="paint4_radial_5481_99682" cx="0" cy="0" r="1" gradientUnits="userSpaceOnUse" gradientTransform="translate(90.4056 17.3436) rotate(90) scale(41.7653)">
<stop offset="0.166667" stop-color="#EB1000"/>
<stop offset="1" stop-color="#EB1000" stop-opacity="0"/>
</radialGradient>
<clipPath id="clip0_5481_99682">
<rect width="96" height="96" rx="5.125" fill="white"/>
</clipPath>
</defs>
<clipPath id="mask0_5481_99682">
<path fill-rule="evenodd" d="M50.0279 15.0749C50.0079 15.0737 49.9879 15.0725 49.9679 15.0713V29.6756H59.1785C57.1071 24.708 54.1408 19.909 50.263 15.4113C50.1716 15.3054 50.0933 15.1926 50.0279 15.0749ZM63.4871 29.6756C61.6838 24.9357 59.1385 20.3269 55.8362 15.9501C63.9636 17.9305 70.9117 22.9219 75.4318 29.6756H63.4871ZM60.6427 33.6756H49.9679V46.3514H62.7845C62.6688 42.0851 61.958 37.8351 60.6427 33.6756ZM66.7864 46.3514C66.6813 42.0923 66.0307 37.8451 64.8247 33.6756H77.7214C79.5877 37.5413 80.7221 41.8265 80.9447 46.3514H66.7864ZM62.7192 50.3514H49.9679V63.0292H60.1992C61.6218 58.8591 62.4648 54.6086 62.7192 50.3514ZM64.4045 63.0292C65.713 58.8555 66.4897 54.6078 66.725 50.3514H80.9025C80.5825 54.8927 79.3432 59.1803 77.3696 63.0292H64.4045ZM58.6456 67.0292H49.9679V80.9266C49.9883 80.9254 50.0087 80.9242 50.0291 80.923C50.0867 80.8195 50.1544 80.7197 50.2322 80.6249C53.7824 76.3028 56.5916 71.7341 58.6456 67.0292ZM55.7112 80.078C58.7533 75.8981 61.1798 71.5202 62.978 67.0292H74.9453C70.3968 73.4578 63.6057 78.1872 55.7112 80.078ZM20.5675 29.6756C25.0733 22.9433 31.9917 17.9621 40.0858 15.969C36.7905 20.3402 34.25 24.9425 32.4493 29.6756H20.5675ZM18.5621 33.6756H31.1117C29.9057 37.8451 29.255 42.0923 29.15 46.3514H15.0547C15.2776 41.8192 16.4153 37.5274 18.287 33.6569C18.377 33.6693 18.4688 33.6756 18.5621 33.6756ZM35.2936 33.6756C33.9784 37.8351 33.2675 42.0851 33.1518 46.3514H45.9679V33.6756H35.2936ZM15.0969 50.3514H29.2114C29.4466 54.6078 30.2234 58.8555 31.5319 63.0292H18.6298C16.6562 59.1803 15.4169 54.8927 15.0969 50.3514ZM33.2172 50.3514C33.4715 54.6086 34.3146 58.8591 35.7371 63.0292H45.9679V50.3514H33.2172ZM21.054 67.0292H32.9584C34.7539 71.5136 37.176 75.8853 40.2118 80.0597C32.3499 78.1567 25.5879 73.4371 21.054 67.0292ZM45.7041 80.6249C45.781 80.7185 45.8479 80.8169 45.9051 80.9189L45.9679 80.9228V67.0292H37.2908C39.3448 71.7341 42.1539 76.3028 45.7041 80.6249ZM45.6734 15.4113C41.7955 19.909 38.8292 24.708 36.7578 29.6756H45.9679V15.0751L45.9062 15.0789C45.8413 15.1951 45.7637 15.3066 45.6734 15.4113Z" fill="white"/>
</clipPath>
<g clip-path="url(#mask0_5481_99682)">
<g clip-path="url(#clip0_5481_99682)">
<rect width="96" height="96" rx="5.125" fill="#FFECCF"/>
<rect width="96" height="96" fill="#FFECCF"/>
<circle cx="54.2806" cy="3.72345" r="41.7653" transform="rotate(-0.0800682 54.2806 3.72345)" fill="url(#paint0_radial_5481_99682)"/>
<path d="M36.6427 -16.9581C29.27 -21.5204 19.9288 -21.5483 12.5287 -17.0303L-61.4858 28.1606C-68.7346 32.5865 -68.7467 43.0335 -61.5078 47.4761L12.0177 92.6029C19.4067 97.1373 28.7479 97.1319 36.1306 92.5868L109.505 47.4178C116.705 42.9845 116.718 32.596 109.526 28.1461L36.6427 -16.9581Z" fill="url(#paint1_linear_5481_99682)"/>
<path d="M13.8365 45.5788C15.4774 9.73912 45.8613 -17.9845 81.7009 -16.3437C117.541 -14.7029 145.264 15.6811 143.623 51.5207C141.982 87.3603 111.599 115.084 75.759 113.443C39.9193 111.802 12.1957 81.4184 13.8365 45.5788Z" fill="url(#paint2_linear_5481_99682)"/>
<path d="M-38.8952 69.2093C-24.6489 63.1318 -9.28437 63.3923 4.02702 68.7083C30.6634 79.3721 46.1622 72.779 56.9121 46.2036C62.2666 32.8681 72.7207 21.5742 86.983 15.4898C115.498 3.34376 148.418 16.5231 160.547 44.9542C172.676 73.3853 159.4 106.253 130.892 118.415C116.598 124.513 101.204 124.228 87.8718 118.864C61.2786 108.257 45.8093 114.875 35.073 141.482C29.7049 154.786 19.2532 166.041 5.00686 172.119C-23.4858 184.274 -56.4056 171.095 -68.5277 142.679C-80.6499 114.264 -67.3878 81.3645 -38.8952 69.2093Z" fill="url(#paint3_linear_5481_99682)"/>
<circle cx="90.4056" cy="17.3436" r="41.7653" transform="rotate(-0.0800682 90.4056 17.3436)" fill="url(#paint4_radial_5481_99682)"/>
</g>
</g>

</svg>
