<svg width="48" height="48" viewBox="0 0 48 48" xmlns="http://www.w3.org/2000/svg">
  <defs>
<radialGradient id="paint0_radial_5481_99480" cx="0" cy="0" r="1" gradientUnits="userSpaceOnUse" gradientTransform="translate(27.1423 1.86222) rotate(90) scale(20.8826)">
<stop offset="0.166667" stop-color="#FF709F"/>
<stop offset="1" stop-color="#FF709F" stop-opacity="0"/>
</radialGradient>
<linearGradient id="paint1_linear_5481_99480" x1="-12.0622" y1="42.8952" x2="65.9766" y2="-4.58296" gradientUnits="userSpaceOnUse">
<stop offset="0.0598452" stop-color="#8480FE"/>
<stop offset="0.599632" stop-color="#8480FE" stop-opacity="0"/>
</linearGradient>
<linearGradient id="paint2_linear_5481_99480" x1="50.5621" y1="8.84155" x2="17.0836" y2="44.8401" gradientUnits="userSpaceOnUse">
<stop stop-color="#EB1000"/>
<stop offset="1" stop-color="#EB1000" stop-opacity="0"/>
</linearGradient>
<linearGradient id="paint3_linear_5481_99480" x1="9.87765" y1="49.8089" x2="69.2259" y2="16.5628" gradientUnits="userSpaceOnUse">
<stop stop-color="#FC7D00" stop-opacity="0"/>
<stop offset="0.432292" stop-color="#FC7D00"/>
<stop offset="0.609375" stop-color="#FC7D00"/>
<stop offset="1" stop-color="#FC7D00" stop-opacity="0"/>
</linearGradient>
<radialGradient id="paint4_radial_5481_99480" cx="0" cy="0" r="1" gradientUnits="userSpaceOnUse" gradientTransform="translate(45.2009 8.67178) rotate(90) scale(20.8826)">
<stop offset="0.166667" stop-color="#EB1000"/>
<stop offset="1" stop-color="#EB1000" stop-opacity="0"/>
</radialGradient>
<clipPath id="clip0_5481_99480">
<rect width="48" height="48" rx="5.125" fill="white"/>
</clipPath>
</defs>
<clipPath id="mask0_5481_99480">
<path fill-rule="evenodd" d="M25.2498 7.49219C25.2498 6.80183 24.6901 6.24219 23.9998 6.24219C23.3094 6.24219 22.7498 6.80183 22.7498 7.49219L22.7498 40.5078C22.7498 41.1982 23.3094 41.7578 23.9998 41.7578C24.6901 41.7578 25.2498 41.1982 25.2498 40.5078L25.2498 7.49219ZM9.125 20.2578C9.81536 20.2578 10.375 20.8175 10.375 21.5078L10.375 26.4922C10.375 27.1825 9.81536 27.7422 9.125 27.7422C8.43464 27.7422 7.875 27.1825 7.875 26.4922V21.5078C7.875 20.8175 8.43464 20.2578 9.125 20.2578ZM38.8745 20.2578C39.5649 20.2578 40.1245 20.8175 40.1245 21.5078V26.4922C40.1245 27.1825 39.5649 27.7422 38.8745 27.7422C38.1842 27.7422 37.6245 27.1825 37.6245 26.4922V21.5078C37.6245 20.8175 38.1842 20.2578 38.8745 20.2578ZM19.0415 14.251C19.7319 14.251 20.2915 14.8106 20.2915 15.501L20.2915 32.499C20.2915 33.1894 19.7319 33.749 19.0415 33.749C18.3511 33.749 17.7915 33.1894 17.7915 32.499L17.7915 15.501C17.7915 14.8106 18.3511 14.251 19.0415 14.251ZM30.208 15.501C30.208 14.8106 29.6484 14.251 28.958 14.251C28.2677 14.251 27.708 14.8106 27.708 15.501V32.499C27.708 33.1894 28.2677 33.749 28.958 33.749C29.6484 33.749 30.208 33.1894 30.208 32.499V15.501ZM14.0833 10.25C14.7736 10.25 15.3333 10.8096 15.3333 11.5L15.3333 36.5C15.3333 37.1904 14.7736 37.75 14.0833 37.75C13.3929 37.75 12.8333 37.1904 12.8333 36.5L12.8333 11.5C12.8333 10.8096 13.3929 10.25 14.0833 10.25ZM35.1663 11.5C35.1663 10.8096 34.6066 10.25 33.9163 10.25C33.2259 10.25 32.6663 10.8096 32.6663 11.5L32.6663 36.5C32.6663 37.1904 33.2259 37.75 33.9163 37.75C34.6066 37.75 35.1663 37.1904 35.1663 36.5L35.1663 11.5Z" fill="#292929"/>
</clipPath>
<g clip-path="url(#mask0_5481_99480)">
<g clip-path="url(#clip0_5481_99480)">
<rect width="48" height="48" rx="5.125" fill="#FFECCF"/>
<rect width="48" height="48" fill="#FFECCF"/>
<circle cx="27.1423" cy="1.86221" r="20.8826" transform="rotate(-0.0800682 27.1423 1.86221)" fill="url(#paint0_radial_5481_99480)"/>
<path d="M18.3213 -8.47858C14.635 -10.7597 9.96439 -10.7737 6.26433 -8.51465L-30.7429 14.0808C-34.3673 16.2938 -34.3733 21.5172 -30.7539 23.7386L6.00883 46.302C9.70335 48.5691 14.374 48.5664 18.0653 46.2939L54.7523 23.7094C58.3526 21.4928 58.3591 16.2985 54.7632 14.0735L18.3213 -8.47858Z" fill="url(#paint1_linear_5481_99480)"/>
<path d="M6.91632 22.7894C7.73673 4.86956 22.9287 -8.99224 40.8485 -8.17184C58.7683 -7.35143 72.6301 7.84053 71.8097 25.7603C70.9893 43.6802 55.7973 57.542 37.8775 56.7215C19.9577 55.9011 6.09591 40.7092 6.91632 22.7894Z" fill="url(#paint2_linear_5481_99480)"/>
<path d="M-19.4476 34.6052C-12.3244 31.5664 -4.64218 31.6967 2.01351 34.3546C15.3317 39.6865 23.0811 36.39 28.456 23.1023C31.1333 16.4345 36.3604 10.7876 43.4915 7.74541C57.7492 1.67237 74.2091 8.26203 80.2736 22.4776C86.338 36.6931 79.7002 53.1271 65.4459 59.2081C58.2988 62.2571 50.6018 62.1143 43.9359 59.4324C30.6393 54.129 22.9046 57.438 17.5365 70.7417C14.8525 77.3935 9.62658 83.0211 2.50343 86.0599C-11.7429 92.1375 -28.2028 85.5478 -34.2639 71.3402C-40.3249 57.1326 -33.6939 40.6828 -19.4476 34.6052Z" fill="url(#paint3_linear_5481_99480)"/>
<circle cx="45.2009" cy="8.67178" r="20.8826" transform="rotate(-0.0800682 45.2009 8.67178)" fill="url(#paint4_radial_5481_99480)"/>
</g>
</g>

</svg>
