<svg width="160" height="160" viewBox="0 0 160 160" xmlns="http://www.w3.org/2000/svg">
  <defs>
<radialGradient id="paint0_radial_5481_90126" cx="0" cy="0" r="1" gradientUnits="userSpaceOnUse" gradientTransform="translate(90.4677 6.20574) rotate(90) scale(69.6088)">
<stop offset="0.166667" stop-color="#FF709F"/>
<stop offset="1" stop-color="#FF709F" stop-opacity="0"/>
</radialGradient>
<linearGradient id="paint1_linear_5481_90126" x1="-40.2086" y1="142.983" x2="219.921" y2="-15.2772" gradientUnits="userSpaceOnUse">
<stop offset="0.0598452" stop-color="#8480FE"/>
<stop offset="0.599632" stop-color="#8480FE" stop-opacity="0"/>
</linearGradient>
<linearGradient id="paint2_linear_5481_90126" x1="168.544" y1="29.4718" x2="56.9494" y2="149.467" gradientUnits="userSpaceOnUse">
<stop stop-color="#EB1000"/>
<stop offset="1" stop-color="#EB1000" stop-opacity="0"/>
</linearGradient>
<linearGradient id="paint3_linear_5481_90126" x1="32.9255" y1="166.029" x2="230.753" y2="55.2086" gradientUnits="userSpaceOnUse">
<stop stop-color="#FC7D00" stop-opacity="0"/>
<stop offset="0.432292" stop-color="#FC7D00"/>
<stop offset="0.609375" stop-color="#FC7D00"/>
<stop offset="1" stop-color="#FC7D00" stop-opacity="0"/>
</linearGradient>
<radialGradient id="paint4_radial_5481_90126" cx="0" cy="0" r="1" gradientUnits="userSpaceOnUse" gradientTransform="translate(150.675 28.9059) rotate(90) scale(69.6088)">
<stop offset="0.166667" stop-color="#EB1000"/>
<stop offset="1" stop-color="#EB1000" stop-opacity="0"/>
</radialGradient>
<clipPath id="clip0_5481_90126">
<rect width="160" height="160" rx="5.125" fill="white"/>
</clipPath>
</defs>
<clipPath id="mask0_5481_90126">
<path fill-rule="evenodd" d="M135.135 32.3553C136.506 34.0879 136.213 36.6035 134.48 37.9741L94.276 69.7799C93.0383 70.7591 91.3404 70.919 89.9417 70.188L64.6321 56.9617L30.5914 85.8345C28.9066 87.2635 26.3825 87.0561 24.9535 85.3714C23.5245 83.6866 23.7319 81.1625 25.4166 79.7335L61.5108 49.119C62.7523 48.066 64.5081 47.8704 65.9508 48.6243L91.3474 61.8961L129.516 31.7C131.249 30.3294 133.765 30.6228 135.135 32.3553ZM118.043 72.509C118.043 68.7109 121.122 65.632 124.92 65.632C128.718 65.632 131.797 68.7109 131.797 72.5089V118.286C131.797 122.084 128.718 125.163 124.92 125.163C121.122 125.163 118.043 122.084 118.043 118.286V72.509ZM58.1583 87.5148C58.1583 83.7168 61.2372 80.6379 65.0352 80.6379C68.8333 80.6379 71.9122 83.7168 71.9122 87.5148V118.286C71.9122 122.084 68.8333 125.163 65.0352 125.163C61.2372 125.163 58.1583 122.084 58.1583 118.286V87.5148ZM94.9776 86.5988C91.1796 86.5988 88.1007 89.6777 88.1007 93.4758V118.286C88.1007 122.084 91.1796 125.163 94.9776 125.163C98.7757 125.163 101.855 122.084 101.855 118.286V93.4757C101.855 89.6777 98.7757 86.5988 94.9776 86.5988ZM35.0929 98.3898C31.2948 98.3898 28.2159 101.469 28.2159 105.267V118.286C28.2159 122.084 31.2948 125.163 35.0929 125.163C38.8909 125.163 41.9698 122.084 41.9698 118.286V105.267C41.9698 101.469 38.8909 98.3898 35.0929 98.3898Z" fill="white"/>
</clipPath>
<g clip-path="url(#mask0_5481_90126)">
<g clip-path="url(#clip0_5481_90126)">
<rect width="160" height="160" rx="5.125" fill="#FFECCF"/>
<rect width="160" height="160" fill="#FFECCF"/>
<circle cx="90.4677" cy="6.20574" r="69.6087" transform="rotate(-0.0800682 90.4677 6.20574)" fill="url(#paint0_radial_5481_90126)"/>
<path d="M61.0698 -28.2626C48.782 -35.8663 33.2133 -35.9129 20.8798 -28.3828L-102.478 46.9353C-114.559 54.3119 -114.579 71.7234 -102.514 79.1279L20.0281 154.339C32.3432 161.896 47.9119 161.887 60.2163 154.312L182.506 79.0306C194.507 71.6419 194.529 54.3277 182.543 46.9111L61.0698 -28.2626Z" fill="url(#paint1_linear_5481_90126)"/>
<path d="M23.0583 75.9646C25.793 16.2319 76.4328 -29.9741 136.166 -27.2395C195.898 -24.5048 242.104 26.1351 239.37 85.8678C236.635 145.601 185.995 191.807 126.262 189.072C66.5296 186.337 20.3236 135.697 23.0583 75.9646Z" fill="url(#paint2_linear_5481_90126)"/>
<path d="M-64.8253 115.35C-41.0814 105.221 -15.474 105.655 6.71169 114.515C51.1056 132.288 76.9371 121.299 94.8534 77.0069C103.778 54.7811 121.201 35.958 144.972 25.8174C192.497 5.57391 247.364 27.5395 267.579 74.9246C287.793 122.31 265.667 177.09 218.153 197.36C194.329 207.523 168.673 207.047 146.453 198.107C102.131 180.429 76.3488 191.459 58.4551 235.805C49.5082 257.978 32.0886 276.736 8.34476 286.866C-39.1429 307.124 -94.0093 285.159 -114.213 237.8C-134.416 190.441 -112.313 135.609 -64.8253 115.35Z" fill="url(#paint3_linear_5481_90126)"/>
<circle cx="150.675" cy="28.9059" r="69.6087" transform="rotate(-0.0800682 150.675 28.9059)" fill="url(#paint4_radial_5481_90126)"/>
</g>
</g>

</svg>
