<svg width="49" height="48" viewBox="0 0 49 48" fill="none" xmlns="http://www.w3.org/2000/svg">
<mask id="mask0_50_584" style="mask-type:luminance" maskUnits="userSpaceOnUse" x="5" y="5" width="38" height="38">
<path fill-rule="evenodd" clip-rule="evenodd" d="M42.3996 7.51875C42.8877 7.03059 42.8877 6.23913 42.3996 5.75098C41.9114 5.26282 41.1199 5.26282 40.6318 5.75098L5.90152 40.4813C5.41336 40.9694 5.41336 41.7609 5.90152 42.249C6.38967 42.7372 7.18113 42.7372 7.66928 42.249L42.3996 7.51875ZM6.09397 15.4222C5.70344 15.0317 5.70344 14.3985 6.09397 14.008L12.994 7.10798C13.3845 6.71746 14.0177 6.71746 14.4082 7.10798C14.7987 7.49851 14.7987 8.13167 14.4082 8.5222L9.36387 13.5665H27.7012C28.3916 13.5665 28.9512 14.1261 28.9512 14.8165C28.9512 15.5069 28.3916 16.0665 27.7012 16.0665H9.5667L14.4082 20.908C14.7987 21.2985 14.7987 21.9317 14.4082 22.3222C14.0177 22.7127 13.3845 22.7127 12.994 22.3222L6.09397 15.4222ZM42.2384 34.1724C42.6289 33.7819 42.6289 33.1487 42.2384 32.7582L35.3384 25.8582C34.9479 25.4677 34.3147 25.4677 33.9242 25.8582C33.5337 26.2488 33.5337 26.8819 33.9242 27.2724L38.8671 32.2153L20.295 32.2153C19.6046 32.2153 19.045 32.775 19.045 33.4653C19.045 34.1557 19.6046 34.7153 20.295 34.7153L38.8671 34.7153L33.9242 39.6582C33.5337 40.0487 33.5337 40.6819 33.9242 41.0724C34.3147 41.463 34.9479 41.463 35.3384 41.0724L42.2384 34.1724ZM42.7813 14.8165C42.7813 14.1261 42.2217 13.5665 41.5313 13.5665L38.92 13.5665C38.2296 13.5665 37.67 14.1261 37.67 14.8165C37.67 15.5069 38.2296 16.0665 38.92 16.0665L41.5313 16.0665C42.2217 16.0665 42.7813 15.5069 42.7813 14.8165ZM6.80132 32.2153C6.11096 32.2153 5.55132 32.775 5.55132 33.4653C5.55132 34.1557 6.11096 34.7153 6.80132 34.7153H9.08892C9.77927 34.7153 10.3389 34.1557 10.3389 33.4653C10.3389 32.775 9.77927 32.2153 9.08892 32.2153H6.80132Z" fill="white"/>
</mask>
<g mask="url(#mask0_50_584)">
<g clip-path="url(#clip0_50_584)">
<rect x="0.158203" width="48" height="48" rx="5.125" fill="#FFECCF"/>
<rect width="48" height="48" transform="translate(0.158203)" fill="#FFECCF"/>
<circle cx="27.2988" cy="1.86179" r="20.8826" transform="rotate(-0.0800682 27.2988 1.86179)" fill="url(#paint0_radial_50_584)"/>
<path d="M18.4788 -8.4789C14.7925 -10.76 10.1219 -10.774 6.4218 -8.51496L-30.5854 14.0805C-34.2098 16.2934 -34.2159 21.5169 -30.5964 23.7382L6.1663 46.3016C9.86082 48.5688 14.5314 48.5661 18.2228 46.2936L54.9097 23.7091C58.51 21.4924 58.5166 16.2982 54.9207 14.0732L18.4788 -8.4789Z" fill="url(#paint1_linear_50_584)"/>
<path d="M7.07562 22.7893C7.89603 4.86952 23.088 -8.99229 41.0078 -8.17188C58.9276 -7.35147 72.7894 7.84048 71.969 25.7603C71.1486 43.6801 55.9566 57.5419 38.0368 56.7215C20.117 55.9011 6.25521 40.7091 7.07562 22.7893Z" fill="url(#paint2_linear_50_584)"/>
<path d="M-19.2888 34.6049C-12.1656 31.5661 -4.48337 31.6964 2.17232 34.3544C15.4905 39.6862 23.2399 36.3897 28.6148 23.102C31.2921 16.4343 36.5192 10.7873 43.6503 7.74512C57.908 1.67208 74.3679 8.26175 80.4324 22.4773C86.4969 36.6928 79.859 53.1268 65.6047 59.2078C58.4576 62.2568 50.7606 62.114 44.0947 59.4321C30.7981 54.1287 23.0635 57.4378 17.6953 70.7414C15.0113 77.3932 9.7854 83.0208 2.66224 86.0596C-11.5841 92.1372 -28.044 85.5475 -34.105 71.3399C-40.1661 57.1323 -33.5351 40.6825 -19.2888 34.6049Z" fill="url(#paint3_linear_50_584)"/>
<circle cx="45.3605" cy="8.67186" r="20.8826" transform="rotate(-0.0800682 45.3605 8.67186)" fill="url(#paint4_radial_50_584)"/>
</g>
</g>
<defs>
<radialGradient id="paint0_radial_50_584" cx="0" cy="0" r="1" gradientUnits="userSpaceOnUse" gradientTransform="translate(27.2988 1.86179) rotate(90) scale(20.8826)">
<stop offset="0.166667" stop-color="#FF709F"/>
<stop offset="1" stop-color="#FF709F" stop-opacity="0"/>
</radialGradient>
<linearGradient id="paint1_linear_50_584" x1="-11.9047" y1="42.8949" x2="66.1341" y2="-4.58327" gradientUnits="userSpaceOnUse">
<stop offset="0.0598452" stop-color="#8480FE"/>
<stop offset="0.599632" stop-color="#8480FE" stop-opacity="0"/>
</linearGradient>
<linearGradient id="paint2_linear_50_584" x1="50.7214" y1="8.84151" x2="17.2429" y2="44.8401" gradientUnits="userSpaceOnUse">
<stop stop-color="#EB1000"/>
<stop offset="1" stop-color="#EB1000" stop-opacity="0"/>
</linearGradient>
<linearGradient id="paint3_linear_50_584" x1="10.0365" y1="49.8086" x2="69.3847" y2="16.5625" gradientUnits="userSpaceOnUse">
<stop stop-color="#FC7D00" stop-opacity="0"/>
<stop offset="0.432292" stop-color="#FC7D00"/>
<stop offset="0.609375" stop-color="#FC7D00"/>
<stop offset="1" stop-color="#FC7D00" stop-opacity="0"/>
</linearGradient>
<radialGradient id="paint4_radial_50_584" cx="0" cy="0" r="1" gradientUnits="userSpaceOnUse" gradientTransform="translate(45.3605 8.67186) rotate(90) scale(20.8826)">
<stop offset="0.166667" stop-color="#EB1000"/>
<stop offset="1" stop-color="#EB1000" stop-opacity="0"/>
</radialGradient>
<clipPath id="clip0_50_584">
<rect x="0.158203" width="48" height="48" rx="5.125" fill="white"/>
</clipPath>
</defs>
</svg>
