<svg width="96" height="96" viewBox="0 0 96 96" xmlns="http://www.w3.org/2000/svg">
  <defs>
<radialGradient id="paint0_radial_5481_99455" cx="0" cy="0" r="1" gradientUnits="userSpaceOnUse" gradientTransform="translate(54.2806 3.72345) rotate(90) scale(41.7653)">
<stop offset="0.166667" stop-color="#FF709F"/>
<stop offset="1" stop-color="#FF709F" stop-opacity="0"/>
</radialGradient>
<linearGradient id="paint1_linear_5481_99455" x1="-24.1244" y1="85.7895" x2="131.953" y2="-9.16689" gradientUnits="userSpaceOnUse">
<stop offset="0.0598452" stop-color="#8480FE"/>
<stop offset="0.599632" stop-color="#8480FE" stop-opacity="0"/>
</linearGradient>
<linearGradient id="paint2_linear_5481_99455" x1="101.128" y1="17.6831" x2="34.1712" y2="89.6803" gradientUnits="userSpaceOnUse">
<stop stop-color="#EB1000"/>
<stop offset="1" stop-color="#EB1000" stop-opacity="0"/>
</linearGradient>
<linearGradient id="paint3_linear_5481_99455" x1="19.7553" y1="99.6167" x2="138.452" y2="33.1246" gradientUnits="userSpaceOnUse">
<stop stop-color="#FC7D00" stop-opacity="0"/>
<stop offset="0.432292" stop-color="#FC7D00"/>
<stop offset="0.609375" stop-color="#FC7D00"/>
<stop offset="1" stop-color="#FC7D00" stop-opacity="0"/>
</linearGradient>
<radialGradient id="paint4_radial_5481_99455" cx="0" cy="0" r="1" gradientUnits="userSpaceOnUse" gradientTransform="translate(90.4056 17.3436) rotate(90) scale(41.7653)">
<stop offset="0.166667" stop-color="#EB1000"/>
<stop offset="1" stop-color="#EB1000" stop-opacity="0"/>
</radialGradient>
<clipPath id="clip0_5481_99455">
<rect width="96" height="96" rx="5.125" fill="white"/>
</clipPath>
</defs>
<clipPath id="mask0_5481_99455">
<path fill-rule="evenodd" d="M85.6923 28.8586L79.4572 27.4561C78.5319 27.2465 77.5596 27.5067 76.862 28.1501L72.1631 32.4804C70.0775 34.4033 66.7593 32.4876 67.381 29.7188L68.7835 23.4838C68.9931 22.5584 68.7329 21.5861 68.0895 20.8885L63.7593 16.1896C61.8363 14.104 63.752 10.7859 66.5208 11.4076L72.7559 12.81C73.6812 13.0196 74.6535 12.7594 75.3511 12.116L80.05 7.78578C82.1356 5.86285 85.4538 7.77856 84.8321 10.5473L83.4296 16.7824C83.22 17.7077 83.4802 18.68 84.1236 19.3776L88.4538 24.0765C90.3768 26.1621 88.4611 29.4803 85.6923 28.8586ZM10.9087 36.305C14.103 24.3836 26.3568 17.3088 38.2783 20.5032C43.4541 21.89 47.7124 24.9809 50.6176 29.013C51.2633 29.9092 52.5133 30.1122 53.4095 29.4665C54.3056 28.8208 54.5087 27.5708 53.863 26.6747C50.4386 21.922 45.412 18.2735 39.3136 16.6395C25.2582 12.8734 10.8111 21.2144 7.04495 35.2698C4.54248 44.6091 7.38587 54.1179 13.6942 60.553L8.40943 60.5362C7.30487 60.5327 6.4066 61.4253 6.40309 62.5298C6.39958 63.6344 7.29216 64.5327 8.39672 64.5362L18.2929 64.5676C19.3705 64.5711 20.2571 63.7201 20.2978 62.6432L20.6587 53.0956C20.7004 51.9919 19.8394 51.0633 18.7356 51.0215C17.6318 50.9798 16.7032 51.8408 16.6615 52.9446L16.4824 57.6835C11.175 52.2235 8.79593 44.1898 10.9087 36.305ZM50.9854 46.0607C50.595 47.7885 52.6698 48.9885 53.9746 47.7849L57.2855 44.7306C57.7229 44.3294 58.3265 44.1667 58.9085 44.2968L63.3038 45.2872C65.0315 45.6776 66.2315 43.6028 65.0279 42.298L64.0719 41.2617L61.9736 38.9871C61.5724 38.5497 61.4097 37.9461 61.5399 37.3641L62.5302 32.9689C62.9206 31.2411 60.8459 30.0411 59.541 31.2447L56.2301 34.299C55.7927 34.7002 55.1891 34.8629 54.6072 34.7328L50.2119 33.7424C48.4841 33.352 47.2841 35.4267 48.4877 36.7316L51.542 40.0425C51.8507 40.379 52.0182 40.814 52.0197 41.2617C52.0202 41.3959 52.0058 41.5313 51.9758 41.6655L50.9854 46.0607ZM47.2247 41.2617H35.1747C30.7564 41.2617 27.1747 44.8434 27.1747 49.2617V83.4745L41.806 60.4753L43.4944 61.5472L41.807 60.4737L41.806 60.4753C43.954 57.0919 48.8481 57.0916 50.9967 60.4743L49.3088 61.5472L50.9973 60.4753L61.0716 76.3234L66.6719 67.8483L66.6808 67.8351C68.8453 64.6156 73.5888 64.6087 75.7517 67.8359L75.7533 67.8383L85.5771 82.4301C86.3397 81.2049 86.7801 79.7584 86.7801 78.209V49.2617C86.7801 44.8434 83.1984 41.2617 78.7801 41.2617H69.0708C70.8357 45.324 67.2863 50.2861 62.4245 49.1894L62.4233 49.1891L62.4222 49.1889L59.151 48.4518L56.6868 50.725L56.6867 50.725C52.5008 54.5862 45.8288 50.7423 47.0832 45.1815L47.0835 45.1803L47.0837 45.1792L47.8208 41.908L47.2247 41.2617ZM30.1759 86.209H54.5393L58.6558 79.9793L47.621 62.6202L47.6203 62.6192C47.0433 61.7103 45.76 61.7103 45.1829 62.6192L45.1819 62.6207L30.1759 86.209ZM72.4323 70.0679L82.6341 85.2212C81.491 85.8508 80.1774 86.209 78.7801 86.209H59.3337L70.0038 70.0616C70.5888 69.1992 71.8559 69.207 72.4294 70.0636L72.4323 70.0679ZM72.0008 57C70.344 57 69.0008 55.6569 69.0008 54C69.0008 52.3431 70.344 51 72.0008 51C73.6577 51 75.0008 52.3431 75.0008 54C75.0008 55.6569 73.6577 57 72.0008 57Z" fill="white"/>
</clipPath>
<g clip-path="url(#mask0_5481_99455)">
<g clip-path="url(#clip0_5481_99455)">
<rect width="96" height="96" rx="5.125" fill="#FFECCF"/>
<rect width="96" height="96" fill="#FFECCF"/>
<circle cx="54.2806" cy="3.72345" r="41.7653" transform="rotate(-0.0800682 54.2806 3.72345)" fill="url(#paint0_radial_5481_99455)"/>
<path d="M36.6427 -16.9581C29.27 -21.5204 19.9288 -21.5483 12.5287 -17.0303L-61.4858 28.1606C-68.7346 32.5865 -68.7467 43.0335 -61.5078 47.4761L12.0177 92.6029C19.4067 97.1373 28.7479 97.1319 36.1306 92.5868L109.505 47.4178C116.705 42.9845 116.718 32.596 109.526 28.1461L36.6427 -16.9581Z" fill="url(#paint1_linear_5481_99455)"/>
<path d="M13.8365 45.5788C15.4774 9.73912 45.8613 -17.9845 81.7009 -16.3437C117.541 -14.7029 145.264 15.6811 143.623 51.5207C141.982 87.3603 111.599 115.084 75.759 113.443C39.9193 111.802 12.1957 81.4184 13.8365 45.5788Z" fill="url(#paint2_linear_5481_99455)"/>
<path d="M-38.8952 69.2093C-24.6489 63.1318 -9.28437 63.3923 4.02702 68.7083C30.6634 79.3721 46.1622 72.779 56.9121 46.2036C62.2666 32.8681 72.7207 21.5742 86.983 15.4898C115.498 3.34376 148.418 16.5231 160.547 44.9542C172.676 73.3853 159.4 106.253 130.892 118.415C116.598 124.513 101.204 124.228 87.8718 118.864C61.2786 108.257 45.8093 114.875 35.073 141.482C29.7049 154.786 19.2532 166.041 5.00686 172.119C-23.4858 184.274 -56.4056 171.095 -68.5277 142.679C-80.6499 114.264 -67.3878 81.3645 -38.8952 69.2093Z" fill="url(#paint3_linear_5481_99455)"/>
<circle cx="90.4056" cy="17.3436" r="41.7653" transform="rotate(-0.0800682 90.4056 17.3436)" fill="url(#paint4_radial_5481_99455)"/>
</g>
</g>

</svg>
