<svg width="160" height="160" viewBox="0 0 160 160" xmlns="http://www.w3.org/2000/svg">
  <defs>
<radialGradient id="paint0_radial_5481_89948" cx="0" cy="0" r="1" gradientUnits="userSpaceOnUse" gradientTransform="translate(90.4677 6.20574) rotate(90) scale(69.6088)">
<stop offset="0.166667" stop-color="#FF709F"/>
<stop offset="1" stop-color="#FF709F" stop-opacity="0"/>
</radialGradient>
<linearGradient id="paint1_linear_5481_89948" x1="-40.2086" y1="142.983" x2="219.921" y2="-15.2772" gradientUnits="userSpaceOnUse">
<stop offset="0.0598452" stop-color="#8480FE"/>
<stop offset="0.599632" stop-color="#8480FE" stop-opacity="0"/>
</linearGradient>
<linearGradient id="paint2_linear_5481_89948" x1="168.544" y1="29.4718" x2="56.9494" y2="149.467" gradientUnits="userSpaceOnUse">
<stop stop-color="#EB1000"/>
<stop offset="1" stop-color="#EB1000" stop-opacity="0"/>
</linearGradient>
<linearGradient id="paint3_linear_5481_89948" x1="32.9255" y1="166.029" x2="230.753" y2="55.2086" gradientUnits="userSpaceOnUse">
<stop stop-color="#FC7D00" stop-opacity="0"/>
<stop offset="0.432292" stop-color="#FC7D00"/>
<stop offset="0.609375" stop-color="#FC7D00"/>
<stop offset="1" stop-color="#FC7D00" stop-opacity="0"/>
</linearGradient>
<radialGradient id="paint4_radial_5481_89948" cx="0" cy="0" r="1" gradientUnits="userSpaceOnUse" gradientTransform="translate(150.675 28.9059) rotate(90) scale(69.6088)">
<stop offset="0.166667" stop-color="#EB1000"/>
<stop offset="1" stop-color="#EB1000" stop-opacity="0"/>
</radialGradient>
<clipPath id="clip0_5481_89948">
<rect width="160" height="160" rx="5.125" fill="white"/>
</clipPath>
</defs>
<clipPath id="mask0_5481_89948">
<path fill-rule="evenodd" d="M20 43H71.5443L62.2263 31.4528C60.4652 29.2704 57.7989 28 54.9798 28H29.28C24.1548 28 20 32.119 20 37.2V43ZM20 51H126.154C133.796 51 140 57.2468 140 64.9412V118.059C140 125.753 133.796 132 126.154 132H33.8462C26.2043 132 20 125.753 20 118.059V51ZM72.2941 77.334C71.4905 77.334 70.8391 77.9854 70.8391 78.789C70.8391 79.1999 71.0042 79.5654 71.2824 79.8347C72.8696 81.3713 72.9105 83.9037 71.3739 85.4908C69.8373 87.078 67.3049 87.1189 65.7178 85.5823C63.9474 83.8683 62.8391 81.4546 62.8391 78.789C62.8391 73.5671 67.0722 69.334 72.2941 69.334C74.5032 69.334 76.2941 71.1248 76.2941 73.334C76.2941 75.5431 74.5032 77.334 72.2941 77.334ZM76.1461 82.1575C76.1461 77.2411 80.1316 73.2555 85.048 73.2555C89.9644 73.2555 93.95 77.2411 93.95 82.1575C93.95 87.0739 89.9644 91.0595 85.048 91.0595C80.1316 91.0595 76.1461 87.0739 76.1461 82.1575ZM72.1098 92.2907C73.0619 94.2841 72.2178 96.672 70.2244 97.6241C68.3176 98.5349 66.8343 100.428 66.4435 102.73C66.0738 104.908 64.0084 106.374 61.8305 106.004C59.6525 105.634 58.1866 103.569 58.5563 101.391C59.3788 96.5458 62.5015 92.4473 66.7763 90.4053C68.7698 89.4532 71.1576 90.2973 72.1098 92.2907ZM70.4187 103.69C71.9696 97.2539 78.2015 92.8633 85.0482 92.8633C91.8949 92.8633 98.1269 97.2539 99.6777 103.69C100.655 107.747 97.2206 110.667 93.9638 110.667H76.1326C72.8758 110.667 69.441 107.747 70.4187 103.69Z" fill="white"/>
</clipPath>
<g clip-path="url(#mask0_5481_89948)">
<g clip-path="url(#clip0_5481_89948)">
<rect width="160" height="160" rx="5.125" fill="#FFECCF"/>
<rect width="160" height="160" fill="#FFECCF"/>
<circle cx="90.4677" cy="6.20574" r="69.6087" transform="rotate(-0.0800682 90.4677 6.20574)" fill="url(#paint0_radial_5481_89948)"/>
<path d="M61.0698 -28.2626C48.782 -35.8663 33.2133 -35.9129 20.8798 -28.3828L-102.478 46.9353C-114.559 54.3119 -114.579 71.7234 -102.514 79.1279L20.0281 154.339C32.3432 161.896 47.9119 161.887 60.2163 154.312L182.506 79.0306C194.507 71.6419 194.529 54.3277 182.543 46.9111L61.0698 -28.2626Z" fill="url(#paint1_linear_5481_89948)"/>
<path d="M23.0583 75.9646C25.793 16.2319 76.4328 -29.9741 136.166 -27.2395C195.898 -24.5048 242.104 26.1351 239.37 85.8678C236.635 145.601 185.995 191.807 126.262 189.072C66.5296 186.337 20.3236 135.697 23.0583 75.9646Z" fill="url(#paint2_linear_5481_89948)"/>
<path d="M-64.8253 115.35C-41.0814 105.221 -15.474 105.655 6.71169 114.515C51.1056 132.288 76.9371 121.299 94.8534 77.0069C103.778 54.7811 121.201 35.958 144.972 25.8174C192.497 5.57391 247.364 27.5395 267.579 74.9246C287.793 122.31 265.667 177.09 218.153 197.36C194.329 207.523 168.673 207.047 146.453 198.107C102.131 180.429 76.3488 191.459 58.4551 235.805C49.5082 257.978 32.0886 276.736 8.34476 286.866C-39.1429 307.124 -94.0093 285.159 -114.213 237.8C-134.416 190.441 -112.313 135.609 -64.8253 115.35Z" fill="url(#paint3_linear_5481_89948)"/>
<circle cx="150.675" cy="28.9059" r="69.6087" transform="rotate(-0.0800682 150.675 28.9059)" fill="url(#paint4_radial_5481_89948)"/>
</g>
</g>

</svg>
