<svg width="48" height="48" viewBox="0 0 48 48" xmlns="http://www.w3.org/2000/svg">
  <defs>
<radialGradient id="paint0_radial_5481_99572" cx="0" cy="0" r="1" gradientUnits="userSpaceOnUse" gradientTransform="translate(27.1423 1.86124) rotate(90) scale(20.8826)">
<stop offset="0.166667" stop-color="#FF709F"/>
<stop offset="1" stop-color="#FF709F" stop-opacity="0"/>
</radialGradient>
<linearGradient id="paint1_linear_5481_99572" x1="-12.0622" y1="42.8942" x2="65.9766" y2="-4.58394" gradientUnits="userSpaceOnUse">
<stop offset="0.0598452" stop-color="#8480FE"/>
<stop offset="0.599632" stop-color="#8480FE" stop-opacity="0"/>
</linearGradient>
<linearGradient id="paint2_linear_5481_99572" x1="50.5621" y1="8.84057" x2="17.0836" y2="44.8392" gradientUnits="userSpaceOnUse">
<stop stop-color="#EB1000"/>
<stop offset="1" stop-color="#EB1000" stop-opacity="0"/>
</linearGradient>
<linearGradient id="paint3_linear_5481_99572" x1="9.87765" y1="49.8079" x2="69.2259" y2="16.5618" gradientUnits="userSpaceOnUse">
<stop stop-color="#FC7D00" stop-opacity="0"/>
<stop offset="0.432292" stop-color="#FC7D00"/>
<stop offset="0.609375" stop-color="#FC7D00"/>
<stop offset="1" stop-color="#FC7D00" stop-opacity="0"/>
</linearGradient>
<radialGradient id="paint4_radial_5481_99572" cx="0" cy="0" r="1" gradientUnits="userSpaceOnUse" gradientTransform="translate(45.2009 8.67081) rotate(90) scale(20.8826)">
<stop offset="0.166667" stop-color="#EB1000"/>
<stop offset="1" stop-color="#EB1000" stop-opacity="0"/>
</radialGradient>
<clipPath id="clip0_5481_99572">
<rect y="-0.000976562" width="48" height="48" rx="5.125" fill="white"/>
</clipPath>
</defs>
<clipPath id="mask0_5481_99572">
<path fill-rule="evenodd" d="M8.80766 12.3226C10.6199 11.3322 12.5299 10.2795 13.7399 9.59065C14.4925 9.16222 15.4939 9.12888 16.2505 9.55011L23.028 13.3233C23.6329 13.66 24.3689 13.66 24.9737 13.3232L32.0468 9.38538C32.6517 9.04863 33.3877 9.04863 33.9926 9.38537L39.2563 12.3159C39.8496 12.6462 40.1859 13.2032 40.2651 13.7905L24.0197 22.8598L7.78317 13.7954C7.86739 13.2064 8.20933 12.6495 8.80766 12.3226ZM7.75391 16.6423V26.2005C7.75391 27.5555 8.43986 28.8183 9.57648 29.5559L21.8127 37.4963C22.1148 37.6924 22.4368 37.8437 22.7697 37.9504V25.0252L7.75391 16.6423ZM25.2697 37.9309C25.5792 37.8264 25.8788 37.6829 26.1611 37.5005L38.4562 29.5551C39.5965 28.8182 40.2852 27.5532 40.2852 26.1955V16.6425L25.2697 25.0252V37.9309Z" fill="white"/>
</clipPath>
<g clip-path="url(#mask0_5481_99572)">
<g clip-path="url(#clip0_5481_99572)">
<rect y="-0.000976562" width="48" height="48" rx="5.125" fill="#FFECCF"/>
<rect width="48" height="48" transform="translate(0 -0.000976562)" fill="#FFECCF"/>
<circle cx="27.1423" cy="1.86124" r="20.8826" transform="rotate(-0.0800682 27.1423 1.86124)" fill="url(#paint0_radial_5481_99572)"/>
<path d="M18.3213 -8.47956C14.635 -10.7607 9.96439 -10.7746 6.26433 -8.51562L-30.7429 14.0798C-34.3673 16.2928 -34.3733 21.5162 -30.7539 23.7376L6.00883 46.301C9.70335 48.5682 14.374 48.5655 18.0653 46.2929L54.7523 23.7084C58.3526 21.4918 58.3591 16.2975 54.7632 14.0725L18.3213 -8.47956Z" fill="url(#paint1_linear_5481_99572)"/>
<path d="M6.91632 22.7884C7.73673 4.86858 22.9287 -8.99322 40.8485 -8.17281C58.7683 -7.3524 72.6301 7.83955 71.8097 25.7594C70.9893 43.6792 55.7973 57.541 37.8775 56.7206C19.9577 55.9002 6.09591 40.7082 6.91632 22.7884Z" fill="url(#paint2_linear_5481_99572)"/>
<path d="M-19.4476 34.6042C-12.3244 31.5654 -4.64218 31.6957 2.01351 34.3537C15.3317 39.6856 23.0811 36.389 28.456 23.1013C31.1333 16.4336 36.3604 10.7866 43.4915 7.74443C57.7492 1.67139 74.2091 8.26106 80.2736 22.4766C86.338 36.6922 79.7002 53.1261 65.4459 59.2071C58.2988 62.2561 50.6018 62.1133 43.9359 59.4314C30.6393 54.128 22.9046 57.4371 17.5365 70.7407C14.8525 77.3925 9.62658 83.0201 2.50343 86.0589C-11.7429 92.1365 -28.2028 85.5468 -34.2639 71.3392C-40.3249 57.1317 -33.6939 40.6818 -19.4476 34.6042Z" fill="url(#paint3_linear_5481_99572)"/>
<circle cx="45.2009" cy="8.67081" r="20.8826" transform="rotate(-0.0800682 45.2009 8.67081)" fill="url(#paint4_radial_5481_99572)"/>
</g>
</g>

</svg>
