<svg width="160" height="160" viewBox="0 0 160 160" xmlns="http://www.w3.org/2000/svg">
  <defs>
<radialGradient id="paint0_radial_5481_89942" cx="0" cy="0" r="1" gradientUnits="userSpaceOnUse" gradientTransform="translate(88.6734 15.3968) rotate(90) scale(60.5342)">
<stop offset="0.166667" stop-color="#FF709F"/>
<stop offset="1" stop-color="#FF709F" stop-opacity="0"/>
</radialGradient>
<linearGradient id="paint1_linear_5481_89942" x1="-24.9662" y1="134.343" x2="201.252" y2="-3.28606" gradientUnits="userSpaceOnUse">
<stop offset="0.0598452" stop-color="#8480FE"/>
<stop offset="0.599632" stop-color="#8480FE" stop-opacity="0"/>
</linearGradient>
<linearGradient id="paint2_linear_5481_89942" x1="156.573" y1="35.6296" x2="59.5264" y2="139.982" gradientUnits="userSpaceOnUse">
<stop stop-color="#EB1000"/>
<stop offset="1" stop-color="#EB1000" stop-opacity="0"/>
</linearGradient>
<linearGradient id="paint3_linear_5481_89942" x1="38.635" y1="154.384" x2="210.673" y2="58.0109" gradientUnits="userSpaceOnUse">
<stop stop-color="#FC7D00" stop-opacity="0"/>
<stop offset="0.432292" stop-color="#FC7D00"/>
<stop offset="0.609375" stop-color="#FC7D00"/>
<stop offset="1" stop-color="#FC7D00" stop-opacity="0"/>
</linearGradient>
<radialGradient id="paint4_radial_5481_89942" cx="0" cy="0" r="1" gradientUnits="userSpaceOnUse" gradientTransform="translate(141.033 35.138) rotate(90) scale(60.5342)">
<stop offset="0.166667" stop-color="#EB1000"/>
<stop offset="1" stop-color="#EB1000" stop-opacity="0"/>
</radialGradient>
<clipPath id="clip0_5481_89942">
<rect x="10" y="10" width="139.142" height="139.142" rx="3.46124" fill="white"/>
</clipPath>
</defs>
<clipPath id="mask0_5481_89942">
<path fill-rule="evenodd" d="M79.0008 24.7998C68.3969 24.7998 59.8008 33.3959 59.8008 43.9998V72.5998C59.8008 83.2037 68.3969 91.7998 79.0008 91.7998H81.6008C92.2046 91.7998 100.801 83.2037 100.801 72.5998V43.9998C100.801 33.3959 92.2046 24.7998 81.6008 24.7998H79.0008ZM75.8008 115.575C53.3375 113.319 35.8008 94.3575 35.8008 71.2998V66.7998C35.8008 64.5907 37.5916 62.7998 39.8008 62.7998C42.0099 62.7998 43.8008 64.5907 43.8008 66.7998V71.2998C43.8008 91.4582 60.1424 107.8 80.3008 107.8C100.459 107.8 116.801 91.4582 116.801 71.2998V66.7998C116.801 64.5907 118.592 62.7998 120.801 62.7998C123.01 62.7998 124.801 64.5907 124.801 66.7998V71.2998C124.801 94.6986 106.741 113.879 83.8008 115.664V127.8H103.801C106.01 127.8 107.801 129.591 107.801 131.8C107.801 134.009 106.01 135.8 103.801 135.8H56.8008C54.5916 135.8 52.8008 134.009 52.8008 131.8C52.8008 129.591 54.5916 127.8 56.8008 127.8H75.8008V115.575Z" fill="white"/>
</clipPath>
<g clip-path="url(#mask0_5481_89942)">
<g clip-path="url(#clip0_5481_89942)">
<rect x="10" y="10" width="139.142" height="139.142" rx="3.46124" fill="#FFECCF"/>
<rect width="139.142" height="139.142" transform="translate(10 10)" fill="#FFECCF"/>
<circle cx="88.6734" cy="15.3968" r="60.5342" transform="rotate(-0.0800682 88.6734 15.3968)" fill="url(#paint0_radial_5481_89942)"/>
<path d="M63.1092 -14.5787C52.4232 -21.1911 38.8842 -21.2316 28.1585 -14.6832L-79.1175 50.8161C-89.6238 57.231 -89.6414 72.3727 -79.1493 78.8119L27.4178 144.218C38.1275 150.79 51.6666 150.783 62.3669 144.195L168.715 78.7273C179.151 72.3018 179.17 57.2448 168.746 50.7951L63.1092 -14.5787Z" fill="url(#paint1_linear_5481_89942)"/>
<path d="M30.0536 76.0614C32.4318 24.1157 76.4699 -16.0667 128.416 -13.6885C180.361 -11.3103 220.544 32.7279 218.165 84.6735C215.787 136.619 171.749 176.802 119.803 174.423C67.8577 172.045 27.6754 128.007 30.0536 76.0614Z" fill="url(#paint2_linear_5481_89942)"/>
<path d="M-46.3726 110.312C-25.7241 101.503 -3.45491 101.881 15.8385 109.586C54.4451 125.042 76.909 115.486 92.4897 76.9675C100.251 57.6392 115.403 41.2699 136.074 32.4512C177.404 14.8468 225.118 33.9488 242.698 75.1566C260.277 116.364 241.036 164.003 199.715 181.63C178.997 190.469 156.685 190.055 137.362 182.281C98.8185 166.907 76.3974 176.499 60.8364 215.064C53.0559 234.346 37.9072 250.659 17.2587 259.468C-24.0383 277.086 -71.752 257.984 -89.3218 216.799C-106.892 175.614 -87.6695 127.929 -46.3726 110.312Z" fill="url(#paint3_linear_5481_89942)"/>
<circle cx="141.033" cy="35.138" r="60.5342" transform="rotate(-0.0800682 141.033 35.138)" fill="url(#paint4_radial_5481_89942)"/>
</g>
</g>

</svg>
