<svg xmlns="http://www.w3.org/2000/svg" width="18" height="18" viewBox="0 0 18 18">
  <defs>
    <style>
      .fill {
        fill: #444;
      }
    </style>
  </defs>
  <g id="ICONS">
    <path class="fill" d="M9.00063,10.5a.99937.99937,0,0,1-.99988-1V5a.99988.99988,0,1,1,1.99976,0V9.5A.99937.99937,0,0,1,9.00063,10.5Zm0,1.25A1.25,1.25,0,1,0,10.25048,13,1.24993,1.24993,0,0,0,9.00063,11.75Zm8.49605,3.58886a3.49,3.49,0,0,0,.07909-3.47363l-5.5755-10.0498a3.38523,3.38523,0,0,0-5.9944-.00782L.4167,11.87988a3.48538,3.48538,0,0,0,.08788,3.459A3.375,3.375,0,0,0,3.41634,17H14.58492A3.375,3.375,0,0,0,17.49668,15.33886Zm-7.253-12.56738,5.57551,10.04981a1.49716,1.49716,0,0,1-.03711,1.48828A1.3742,1.3742,0,0,1,14.58492,15H3.41634a1.3742,1.3742,0,0,1-1.19712-.69043,1.49285,1.49285,0,0,1-.04589-1.47364L7.7664,2.75683a1.386,1.386,0,0,1,2.47724.01465Z"/>
  </g>
</svg>
