<svg xmlns="http://www.w3.org/2000/svg" width="18" height="18" viewBox="0 0 18 18">
  <defs>
    <style>
      .fill {
        fill: #444;
      }
    </style>
  </defs>
  <g id="ICONS">
    <path class="fill" d="M17.57577,11.86523l-5.5755-10.0498a3.38523,3.38523,0,0,0-5.9944-.00782L.4167,11.87988a3.48538,3.48538,0,0,0,.08788,3.459A3.375,3.375,0,0,0,3.41634,17H14.58492a3.375,3.375,0,0,0,2.91176-1.66114A3.49,3.49,0,0,0,17.57577,11.86523ZM8.00075,5a.99988.99988,0,1,1,1.99976,0V9.5a.99988.99988,0,1,1-1.99976,0Zm.99988,9.25A1.25,1.25,0,1,1,10.25048,13,1.24983,1.24983,0,0,1,9.00063,14.25Z"/>
  </g>
</svg>
