<?xml version="1.0" encoding="UTF-8"?>
<svg id="ImportedIcons-3" data-name="ImportedIcons" xmlns="http://www.w3.org/2000/svg" width="14" height="14" viewBox="0 0 14 14">
  <defs>
    <style>
      .fill {
        fill: #444;
      }
    </style>
  </defs>
  <path class="fill" d="M12.7171,8.67761l-3.71698-6.50256c-.578-1.07172-1.94171-1.48584-3.04602-.92487-.40552,.20599-.73694,.52679-.9502,.91986L1.27777,8.68707c-.39032,.70343-.36804,1.55481,.05859,2.2381,.40503,.66687,1.14355,1.07581,1.94116,1.07483h7.44568c.79761,.00098,1.53613-.40796,1.94116-1.07483,.42786-.68683,.44794-1.54254,.05273-2.24756ZM6.1333,4.13281c-.00049-.47754,.38818-.86621,.86572-.86719,.47803,0,.8667,.38867,.86768,.86621v3.00098c0,.47803-.38867,.86719-.86621,.86719-.47803,0-.86719-.38867-.86719-.86621v-3.00098Zm.867,6.96716c-.66168,0-1.20032-.53809-1.20032-1.19971,0-.66168,.53809-1.20032,1.19971-1.20032,.66168,0,1.20032,.53809,1.20032,1.19977,0,.66162-.53809,1.20026-1.19971,1.20026Z"/>
</svg>