<svg xmlns="http://www.w3.org/2000/svg" width="18" height="18" viewBox="0 0 18 18">
  <defs>
    <style>
      .fill {
        fill: #444;
      }
    </style>
  </defs>
  <g id="ICONS">
    <path class="fill" d="M9.01367,18.001c-.208,0-.418-.00781-.62793-.02148A9.00075,9.00075,0,0,1,3.08594,2.21582,9.00039,9.00039,0,0,1,14.915,15.78418,8.93374,8.93374,0,0,1,9.01367,18.001ZM8.99023,1.999A7.00058,7.00058,0,0,0,3.72461,13.59961,6.99938,6.99938,0,1,0,14.27637,4.40039,6.94736,6.94736,0,0,0,9.47852,2.0166C9.31543,2.00488,9.15234,1.999,8.99023,1.999ZM8.16016,13.25879a1.0003,1.0003,0,0,0,.71289-.39454l4.92383-6.54589a1,1,0,0,0-1.59766-1.20313L7.94531,10.7705,5.39941,8.3789a1.0004,1.0004,0,0,0-1.36914,1.459l3.35938,3.15429a1.00094,1.00094,0,0,0,.68457.27051A.84338.84338,0,0,0,8.16016,13.25879Z"/>
  </g>
</svg>
