<svg xmlns="http://www.w3.org/2000/svg" width="18" height="18" viewBox="0 0 18 18">
  <defs>
    <style>
      .cls-1 {
        fill: #484848;
      }
    </style>
  </defs>
  <g id="ICONS">
    <path class="cls-1" d="M15.78418,3.08593A8.9997,8.9997,0,1,0,2.2168,14.91406a8.94365,8.94365,0,0,0,6.16894,3.06543c.21.01367.41992.02148.62793.02148a9.00055,9.00055,0,0,0,6.77051-14.915Zm-1.9873,3.23243L8.873,12.86425a1.0003,1.0003,0,0,1-.71289.39454.84338.84338,0,0,1-.08594.0039,1.00094,1.00094,0,0,1-.68457-.27051L4.03027,9.83789a1.0004,1.0004,0,0,1,1.36914-1.459l2.5459,2.3916,4.25391-5.65527a1,1,0,0,1,1.59766,1.20313Z"/>
  </g>
</svg>
