<?xml version="1.0" encoding="UTF-8"?>
<svg id="ImportedIcons-3" data-name="ImportedIcons" xmlns="http://www.w3.org/2000/svg" width="14" height="14" viewBox="0 0 14 14">
  <defs>
    <style>
      .fill {
        fill: #444;
      }
    </style>
  </defs>
  <path class="fill" d="M11.52259,3.05707C9.34504,.55951,5.55494,.29993,3.0572,2.47736,.55946,4.65472,.29994,8.44458,2.47749,10.94214c1.04303,1.20294,2.52393,1.93878,4.11267,2.04352,.14001,.00909,.27997,.01434,.41864,.01434,3.31396-.00513,5.99634-2.69568,5.99121-6.0094-.00226-1.44635-.52692-2.84326-1.47742-3.93353Zm-1.16516,2.27496l-3.28271,4.36377c-.14697,.1958-.37207,.3208-.61719,.34229l-.0752,.00342c-.22119,0-.43164-.0835-.59277-.23438l-2.23975-2.10303c-.16895-.15869-.26611-.37305-.27344-.60449s.07617-.45215,.23486-.62109c.16309-.17383,.39355-.27344,.63184-.27344,.22119,0,.43164,.0835,.59277,.23438l1.53467,1.44189,2.70215-3.5918c.16553-.21973,.41797-.34521,.69287-.34521,.18896,0,.36914,.06006,.52051,.17432,.38184,.28711,.45898,.83154,.17139,1.21338Z"/>
</svg>