<?xml version="1.0" encoding="UTF-8"?>
<svg id="ImportedIcons-3" data-name="ImportedIcons" xmlns="http://www.w3.org/2000/svg" width="14" height="14" viewBox="0 0 14 14">
  <defs>
    <style>
      .fill {
        fill: #444;
      }
    </style>
  </defs>
  <path class="fill" d="M7.00001,1C3.68629,1,1.00001,3.68628,1.00001,7s2.68628,6,6,6,6-2.68628,6-6v-.00067c-.00403-3.31195-2.68811-5.99567-6-5.99933Zm.8667,8.67676c0,.47803-.38867,.86719-.8667,.86719s-.8667-.38916-.8667-.86719v-2.67529c0-.47803,.38867-.8667,.8667-.8667s.8667,.38867,.8667,.8667v2.67529Zm-.8667-4.27637c-.66162,0-1.2002-.53857-1.2002-1.2002s.53857-1.2002,1.2002-1.2002,1.2002,.53857,1.2002,1.2002-.53857,1.2002-1.2002,1.2002Z"/>
</svg>