<svg style="max-height: 246px; background: var(--anatomy-gray-100); padding: 32px; margin-bottom: 16px; width: calc(100% - 64px); border-radius: 4px;" viewBox="0 0 260.139 246">
  <title>Checkbox group anatomy diagram</title>
  <desc>Shows a checkbox group component with labels pointing to its parts, including the checkbox group label, and group element containing three checkboxes with input and label elements.</desc>
  <g transform="translate(-138 -76)">
    <g transform="translate(192 249)">
      <g transform="translate(0 13.5)" fill="var(--anatomy-gray-75)">
        <path d="M 18 19.5 L 3 19.5 C 2.172899961471558 19.5 1.5 18.82710075378418 1.5 18 L 1.5 3 C 1.5 2.172899961471558 2.172899961471558 1.5 3 1.5 L 18 1.5 C 18.82710075378418 1.5 19.5 2.172899961471558 19.5 3 L 19.5 18 C 19.5 18.82710075378418 18.82710075378418 19.5 18 19.5 Z" stroke="none" />
        <path d="M 3 3 L 3.000007629394531 3 C 3.000005722045898 3.000001907348633 3.000001907348633 3.000005722045898 3 3 L 3 18 L 18 18 L 18 3 L 3 3 M 3 0 L 18 0 C 19.65685081481934 0 21 1.343149185180664 21 3 L 21 18 C 21 19.65685081481934 19.65685081481934 21 18 21 L 3 21 C 1.343149185180664 21 0 19.65685081481934 0 18 L 0 3 C 0 1.343149185180664 1.343149185180664 0 3 0 Z" stroke="none" fill="var(--anatomy-gray-600)" />
      </g><text transform="translate(36 30)" fill="var(--anatomy-gray-700)" font-size="21" font-family="Adobe-Clean">
        <tspan x="0" y="0">Shopping</tspan>
      </text>
    </g>
    <g transform="translate(192 201)">
      <g transform="translate(0 13.5)" fill="var(--anatomy-gray-75)">
        <path d="M 18 19.5 L 3 19.5 C 2.172899961471558 19.5 1.5 18.82710075378418 1.5 18 L 1.5 3 C 1.5 2.172899961471558 2.172899961471558 1.5 3 1.5 L 18 1.5 C 18.82710075378418 1.5 19.5 2.172899961471558 19.5 3 L 19.5 18 C 19.5 18.82710075378418 18.82710075378418 19.5 18 19.5 Z" stroke="none" />
        <path d="M 3 3 L 3.000007629394531 3 C 3.000005722045898 3.000001907348633 3.000001907348633 3.000005722045898 3 3 L 3 18 L 18 18 L 18 3 L 3 3 M 3 0 L 18 0 C 19.65685081481934 0 21 1.343149185180664 21 3 L 21 18 C 21 19.65685081481934 19.65685081481934 21 18 21 L 3 21 C 1.343149185180664 21 0 19.65685081481934 0 18 L 0 3 C 0 1.343149185180664 1.343149185180664 0 3 0 Z" stroke="none" fill="var(--anatomy-gray-600)" />
      </g><text transform="translate(36 30)" fill="var(--anatomy-gray-700)" font-size="21" font-family="Adobe-Clean">
        <tspan x="0" y="0">Music</tspan>
      </text>
    </g>
    <g transform="translate(192 153)">
      <text transform="translate(36 30)" fill="var(--anatomy-gray-700)" font-size="21" font-family="Adobe-Clean">
        <tspan x="0" y="0">Travel</tspan>
      </text>
      <path d="M3,0H18a3,3,0,0,1,3,3V18a3,3,0,0,1-3,3H3a3,3,0,0,1-3-3V3A3,3,0,0,1,3,0Z" transform="translate(0 13.5)" fill="var(--anatomy-gray-600)" />
      <g transform="translate(3 16.5)">
        <path d="M5.617,14a1.53,1.53,0,0,1-1.224-.625L.839,8.505A1.681,1.681,0,0,1,.59,6.876,1.567,1.567,0,0,1,1.835,5.861a1.525,1.525,0,0,1,1.452.648l2.33,3.232,6.1-8.1A1.525,1.525,0,0,1,13.165.991,1.567,1.567,0,0,1,14.41,2.006a1.681,1.681,0,0,1-.249,1.63L6.841,13.375A1.53,1.53,0,0,1,5.617,14Z" transform="translate(0 0)" fill="var(--anatomy-gray-50)" />
      </g>
    </g>
    <g transform="translate(9 145)">
      <text transform="translate(156 35)" fill="var(--anatomy-gray-700)" font-size="13" font-family="Adobe-Clean" style="font-style: italic">
        <tspan x="-26.299" y="0">Input</tspan>
      </text>
      <path d="M-2458.95-69H-2479v-1h20.05a2.5,2.5,0,0,1,2.45-2,2.5,2.5,0,0,1,2.5,2.5,2.5,2.5,0,0,1-2.5,2.5A2.5,2.5,0,0,1-2458.95-69Z" transform="translate(2639 101.5)" fill="var(--anatomy-gray-500)" />
    </g><text transform="translate(195 135)" fill="var(--anatomy-gray-600)" font-size="18" font-family="Adobe-Clean">
      <tspan x="0" y="0">Interests</tspan>
    </text>
    <g transform="translate(-200 439)">
      <text transform="translate(402 -350)" fill="var(--anatomy-gray-700)" font-size="13" font-family="Adobe-Clean" style="font-style: italic">
        <tspan x="-54.763" y="0">Checkbox group label</tspan>
      </text>
      <path d="M-1170-358.5a2.5,2.5,0,0,1,2-2.45V-381h1v20.05a2.5,2.5,0,0,1,2,2.45,2.5,2.5,0,0,1-2.5,2.5A2.5,2.5,0,0,1-1170-358.5Z" transform="translate(1569.5 38)" fill="var(--anatomy-gray-500)" />
    </g><text transform="translate(361.139 230.413)" fill="var(--anatomy-gray-700)" font-size="13" font-family="Adobe-Clean" style="font-style: italic">
      <tspan x="0" y="0">Group</tspan>
    </text>
    <rect width="8" height="1" transform="translate(344.14 226.419)" fill="var(--anatomy-gray-500)" />
    <g transform="translate(335.14 156)">
      <rect width="8" height="1" fill="var(--anatomy-gray-500)" />
      <rect width="1" height="141" transform="translate(8)" fill="var(--anatomy-gray-500)" />
      <rect width="8" height="1" transform="translate(0 140)" fill="var(--anatomy-gray-500)" />
    </g>
    <g transform="translate(-123 635.5)">
      <text transform="translate(364 -316.5)" fill="var(--anatomy-gray-700)" font-size="13" font-family="Adobe-Clean" style="font-style: italic">
        <tspan x="-38.246" y="0">Checkbox label</tspan>
      </text>
      <path d="M-6242-425.5v-20.05a2.5,2.5,0,0,1-2-2.451,2.5,2.5,0,0,1,2.5-2.5,2.5,2.5,0,0,1,2.5,2.5,2.5,2.5,0,0,1-2,2.451v20.05Z" transform="translate(6605.5 96)" fill="var(--anatomy-gray-500)" />
    </g>
  </g>
</svg>
