<svg style="max-height:252px;background:var(--anatomy-gray-100);padding:32px;margin-bottom:16px;width:calc(100% - 64px);border-radius:var(--anatomy-radius);" viewBox="0 0 410 252">
  <defs>
    <filter id="Background" x="224" y="106" width="188" height="116" filterUnits="userSpaceOnUse">
      <feOffset dy="1" input="SourceAlpha"/>
      <feGaussianBlur stdDeviation="2" result="blur"/>
      <feFlood flood-opacity="0.149"/>
      <feComposite operator="in" in2="blur"/>
      <feComposite in="SourceGraphic"/>
    </filter>
    <clipPath id="clip-Custom_Size_1">
      <rect width="410" height="252"/>
    </clipPath>
  </defs>
  <g id="Custom_Size_1" data-name="Custom Size 1" clip-path="url(#clip-Custom_Size_1)">
    <g id="Search_autocomplete" data-name="Search autocomplete" transform="translate(10 42)">
      <text id="Label" transform="translate(0 16)" fill="var(--anatomy-gray-700)" font-size="15" font-family="var(--anatomy-font)"><tspan x="0" y="0">Label</tspan></text>
      <g id="Text_Area" data-name="Text Area" transform="translate(0 24)" fill="var(--anatomy-gray-50)" stroke="var(--anatomy-gray-500)" stroke-width="1">
        <rect width="176" height="32" rx="4" stroke="none"/>
        <rect x="0.5" y="0.5" width="175" height="31" rx="3.5" fill="none"/>
      </g>
      <text id="Text" transform="translate(29 44)" fill="var(--anatomy-gray-700)" font-size="14" font-family="var(--anatomy-font)"><tspan x="0" y="0">Op</tspan></text>
      <text id="Label-2" data-name="Label" transform="translate(-6 -21)" fill="var(--anatomy-gray-700)" font-size="13" font-family="var(--anatomy-font)" font-style="italic"><tspan x="0" y="0">Label</tspan></text>
    </g>
    <g id="Group_156024" data-name="Group 156024" transform="translate(16 73)">
      <rect id="Canvas" width="18" height="18" fill="var(--anatomy-gray-700)" opacity="0"/>
      <path id="Path_434" data-name="Path 434" d="M16.586,15.107,12.7,11.222A6.413,6.413,0,1,0,11.221,12.7l3.886,3.886a1.05,1.05,0,0,0,1.479-1.479ZM3,7.5A4.5,4.5,0,1,1,7.5,12,4.5,4.5,0,0,1,3,7.5Z" transform="translate(0 0)" fill="var(--anatomy-gray-700)"/>
    </g>
    <g id="CrossSize100" transform="translate(165 77)">
      <rect id="Frame" width="10" height="10" fill="rgba(255,0,0,0)"/>
      <path id="Path_29180" data-name="Path 29180" d="M6.548,5,9.631,1.918A1.094,1.094,0,0,0,8.084.371L5,3.454,1.918.371A1.094,1.094,0,1,0,.371,1.918L3.454,5,.371,8.083A1.094,1.094,0,1,0,1.918,9.63L5,6.547,8.084,9.63A1.094,1.094,0,1,0,9.631,8.083Z" fill="var(--anatomy-gray-700)"/>
    </g>
    <g id="Menu" transform="translate(230 111)">
      <g transform="matrix(1, 0, 0, 1, -230, -111)" filter="url(#Background)">
        <g id="Background-2" data-name="Background" transform="translate(230 111)" fill="var(--anatomy-gray-50)" stroke="var(--anatomy-gray-500)" stroke-width="1">
          <rect width="176" height="104" rx="4" stroke="none"/>
          <rect x="0.5" y="0.5" width="175" height="103" rx="3.5" fill="none"/>
        </g>
      </g>
      <rect id="Menu_Item" data-name="Menu Item" width="70.984" height="32" transform="translate(12 4)" fill="rgba(255,0,0,0)"/>
      <text id="Option_1" data-name="Option 1" transform="translate(12 24)" fill="var(--anatomy-gray-700)" font-size="14" font-family="var(--anatomy-font)"><tspan x="0" y="0">Option 1</tspan></text>
      <rect id="Menu_Item-2" data-name="Menu Item" width="73.281" height="32" transform="translate(12 36)" fill="rgba(255,0,0,0)"/>
      <text id="Option_3" data-name="Option 3" transform="translate(12 56)" fill="var(--anatomy-gray-700)" font-size="14" font-family="var(--anatomy-font)"><tspan x="0" y="0">Option 3</tspan></text>
      <rect id="Menu_Item-3" data-name="Menu Item" width="73.281" height="32" transform="translate(12 68)" fill="rgba(255,0,0,0)"/>
      <text id="Option_3-2" data-name="Option 3" transform="translate(12 88)" fill="var(--anatomy-gray-700)" font-size="14" font-family="var(--anatomy-font)"><tspan x="0" y="0">Option 3</tspan></text>
    </g>
    <g id="Search_autocomplete-2" data-name="Search autocomplete" transform="translate(230 42)">
      <text id="Label-3" data-name="Label" transform="translate(0 16)" fill="var(--anatomy-gray-700)" font-size="15" font-family="var(--anatomy-font)"><tspan x="0" y="0">Label</tspan></text>
      <g id="Text_Area-2" data-name="Text Area" transform="translate(0 24)" fill="var(--anatomy-gray-50)" stroke="var(--anatomy-gray-500)" stroke-width="1">
        <rect width="176" height="32" rx="4" stroke="none"/>
        <rect x="0.5" y="0.5" width="175" height="31" rx="3.5" fill="none"/>
      </g>
      <text id="Text-2" data-name="Text" transform="translate(29 44)" fill="var(--anatomy-gray-700)" font-size="14" font-family="var(--anatomy-font)"><tspan x="0" y="0">Op</tspan></text>
    </g>
    <g id="Group_156025" data-name="Group 156025" transform="translate(236 73)">
      <rect id="Canvas-2" data-name="Canvas" width="18" height="18" fill="var(--anatomy-gray-700)" opacity="0"/>
      <path id="Path_434-2" data-name="Path 434" d="M16.586,15.107,12.7,11.222A6.413,6.413,0,1,0,11.221,12.7l3.886,3.886a1.05,1.05,0,0,0,1.479-1.479ZM3,7.5A4.5,4.5,0,1,1,7.5,12,4.5,4.5,0,0,1,3,7.5Z" transform="translate(0 0)" fill="var(--anatomy-gray-700)"/>
    </g>
    <g id="CrossSize100-2" data-name="CrossSize100" transform="translate(385 77)">
      <rect id="Frame-2" data-name="Frame" width="10" height="10" fill="rgba(255,0,0,0)"/>
      <path id="Path_29180-2" data-name="Path 29180" d="M6.548,5,9.631,1.918A1.094,1.094,0,0,0,8.084.371L5,3.454,1.918.371A1.094,1.094,0,1,0,.371,1.918L3.454,5,.371,8.083A1.094,1.094,0,1,0,1.918,9.63L5,6.547,8.084,9.63A1.094,1.094,0,1,0,9.631,8.083Z" fill="var(--anatomy-gray-700)"/>
    </g>
    <line id="Line_1" data-name="Line 1" y2="18" transform="translate(57.5 72.5)" fill="none" stroke="var(--anatomy-gray-600)" stroke-width="1"/>
    <line id="Line_2" data-name="Line 2" y2="18" transform="translate(277.5 72.5)" fill="none" stroke="var(--anatomy-gray-600)" stroke-width="1"/>
    <g id="Group_156026" data-name="Group 156026" transform="translate(-52 -28)">
      <line id="Line_3" data-name="Line 3" y2="22" transform="translate(68 51.5)" fill="none" stroke="var(--anatomy-gray-500)" stroke-width="1"/>
      <g id="Ellipse_1" data-name="Ellipse 1" transform="translate(66 72)" fill="var(--anatomy-gray-500)" stroke="var(--anatomy-gray-500)" stroke-width="1">
        <circle cx="2" cy="2" r="2" stroke="none"/>
        <circle cx="2" cy="2" r="1.5" fill="none"/>
      </g>
    </g>
    <text id="Label-4" data-name="Label" transform="translate(89 46)" fill="var(--anatomy-gray-700)" font-size="13" font-family="var(--anatomy-font)" font-style="italic"><tspan x="0" y="0">Input</tspan></text>
    <g id="Group_156027" data-name="Group 156027" transform="translate(33 -3)">
      <line id="Line_3-2" data-name="Line 3" y2="22" transform="translate(68 51.5)" fill="none" stroke="var(--anatomy-gray-500)" stroke-width="1"/>
      <g id="Ellipse_1-2" data-name="Ellipse 1" transform="translate(66 72)" fill="var(--anatomy-gray-500)" stroke="var(--anatomy-gray-500)" stroke-width="1">
        <circle cx="2" cy="2" r="2" stroke="none"/>
        <circle cx="2" cy="2" r="1.5" fill="none"/>
      </g>
    </g>
    <text id="Label-5" data-name="Label" transform="translate(172 127)" fill="var(--anatomy-gray-700)" font-size="13" font-family="var(--anatomy-font)" font-style="italic"><tspan x="-12.108" y="0">Clear</tspan><tspan x="-15.456" y="15">Button</tspan></text>
    <g id="Group_156028" data-name="Group 156028" transform="translate(238 166.5) rotate(180)">
      <line id="Line_3-3" data-name="Line 3" y2="22" transform="translate(68 51.5)" fill="none" stroke="var(--anatomy-gray-500)" stroke-width="1"/>
      <g id="Ellipse_1-3" data-name="Ellipse 1" transform="translate(66 72)" fill="var(--anatomy-gray-500)" stroke="var(--anatomy-gray-500)" stroke-width="1">
        <circle cx="2" cy="2" r="2" stroke="none"/>
        <circle cx="2" cy="2" r="1.5" fill="none"/>
      </g>
    </g>
    <text id="Label-6" data-name="Label" transform="translate(26 127.25)" fill="var(--anatomy-gray-700)" font-size="13" font-family="var(--anatomy-font)" font-style="italic"><tspan x="-15.744" y="0">Search</tspan><tspan x="-9.726" y="15">Icon</tspan></text>
    <g id="Group_156029" data-name="Group 156029" transform="translate(92 166.75) rotate(180)">
      <line id="Line_3-4" data-name="Line 3" y2="22" transform="translate(68 51.5)" fill="none" stroke="var(--anatomy-gray-500)" stroke-width="1"/>
      <g id="Ellipse_1-4" data-name="Ellipse 1" transform="translate(66 72)" fill="var(--anatomy-gray-500)" stroke="var(--anatomy-gray-500)" stroke-width="1">
        <circle cx="2" cy="2" r="2" stroke="none"/>
        <circle cx="2" cy="2" r="1.5" fill="none"/>
      </g>
    </g>
    <text id="Label-7" data-name="Label" transform="translate(370 241)" fill="var(--anatomy-gray-700)" font-size="13" font-family="var(--anatomy-font)" font-style="italic"><tspan x="-17.976" y="0">List box</tspan></text>
    <g id="Group_156030" data-name="Group 156030" transform="translate(436 280.5) rotate(180)">
      <line id="Line_3-5" data-name="Line 3" y2="22" transform="translate(68 51.5)" fill="none" stroke="var(--anatomy-gray-500)" stroke-width="1"/>
      <g id="Ellipse_1-5" data-name="Ellipse 1" transform="translate(66 72)" fill="var(--anatomy-gray-500)" stroke="var(--anatomy-gray-500)" stroke-width="1">
        <circle cx="2" cy="2" r="2" stroke="none"/>
        <circle cx="2" cy="2" r="1.5" fill="none"/>
      </g>
    </g>
  </g>
</svg>
