<svg width="160" height="160" viewBox="0 0 160 160" fill="none" xmlns="http://www.w3.org/2000/svg">
<path d="M116.342 69.2609C116.346 69.0518 116.357 68.8444 116.357 68.6343C116.357 52.2662 103.644 38.9974 87.9615 38.9974C75.3099 38.9974 64.5956 47.6352 60.9248 59.5669C58.489 58.517 55.823 57.9303 53.0239 57.9303C41.5791 57.9303 32.3013 67.6137 32.3013 79.5587C32.3013 81.2414 32.5036 82.8717 32.852 84.4439C25.2922 86.6052 19.7292 93.8076 19.7292 102.384C19.7292 112.562 27.5575 120.819 37.2711 120.987V121.003H114.782V120.999C114.828 120.999 114.874 121.003 114.92 121.003C128.622 121.003 139.729 109.41 139.729 95.1092C139.729 81.307 129.382 70.0303 116.342 69.2609Z" stroke="currentColor" stroke-width="8" stroke-linecap="round" stroke-linejoin="round"/>
</svg>
