<svg style="max-height: 308px; background: var(--anatomy-gray-400); padding: 32px 32px 48px 32px; margin-bottom: 16px; width: calc(100% - 64px); border-radius: 4px;" viewBox="0 0 398 308">
  <title>Dialog anatomy diagram</title>
  <desc>Shows a dialog component with labels pointing to its parts, including the title, and dialog container elements.</desc>
  <g transform="translate(-28 -40)">
    <g transform="translate(0 68)">
      <rect width="398" height="250" rx="4" transform="translate(28 30)" fill="var(--anatomy-gray-50)" />
      <g transform="translate(226.457 208)">
        <g transform="translate(-0.457)" fill="rgba(255,0,0,0)" stroke="var(--anatomy-gray-600)" stroke-width="2">
          <rect width="72" height="32" rx="16" stroke="none" />
          <rect x="1" y="1" width="70" height="30" rx="15" fill="none" />
        </g><text transform="translate(16.5 20)" fill="var(--anatomy-gray-600)" font-size="14" font-family="Adobe-Clean" style="font-weight: 700">
          <tspan x="0" y="0">Cancel</tspan>
        </text>
        <g transform="translate(88)">
          <rect width="72" height="32" rx="16" transform="translate(-0.457)" fill="var(--anatomy-gray-700)" /><text transform="translate(35.543 20)" fill="var(--anatomy-gray-50)" font-size="14" font-family="Adobe-Clean" style="font-weight: 700">
            <tspan x="-20.174" y="0">Enable</tspan>
          </text>
        </g>
      </g><text transform="translate(68 87.964)" fill="var(--anatomy-gray-700)" font-size="18" font-family="Adobe-Clean" style="font-weight: 700">
        <tspan x="0" y="0">Enable smart filters?</tspan>
      </text>
      <rect width="318" height="2" rx="1" transform="translate(68 104)" fill="var(--anatomy-gray-200)" /><text transform="translate(68 136)" fill="var(--anatomy-gray-700)" font-size="14" font-family="Adobe-Clean">
        <tspan x="0" y="0">Smart filters are nondestructive and will preserve your </tspan>
        <tspan x="0" y="21">original images.</tspan>
      </text>
    </g>
    <g transform="translate(-318 401)">
      <text transform="translate(402 -348)" fill="var(--anatomy-gray-800)" font-size="13" font-family="Adobe-Clean" style="font-style: italic">
        <tspan x="-10.699" y="0">Title</tspan>
      </text>
      <path d="M-682-298.5a2.5,2.5,0,0,1,2-2.449V-381h1v80.05a2.5,2.5,0,0,1,2,2.449,2.5,2.5,0,0,1-2.5,2.5A2.5,2.5,0,0,1-682-298.5Z" transform="translate(1081.5 38)" fill="var(--anatomy-gray-600)" />
    </g>
    <g transform="translate(-230 401)">
      <text transform="translate(402 -348)" fill="var(--anatomy-gray-800)" font-size="13" font-family="Adobe-Clean" style="font-style: italic">
        <tspan x="-16.874" y="0">Dialog</tspan>
      </text>
      <path d="M-770-326.5a2.5,2.5,0,0,1,2-2.45V-381h1v52.049a2.5,2.5,0,0,1,2,2.45,2.5,2.5,0,0,1-2.5,2.5A2.5,2.5,0,0,1-770-326.5Z" transform="translate(1169.5 38)" fill="var(--anatomy-gray-600)" />
    </g>
  </g>
</svg>
