<svg style="max-height: 113px; background: #f4f6fc; padding: 32px; margin-bottom: 16px; width: calc(100% - 64px); border-radius: 4px;" viewBox="0 0 286 113">
  <title>Search field anatomy diagram</title>
  <desc>Shows a search field component with labels pointing to its parts, including the label, input, and clear button elements.</desc>
  <g transform="translate(-341 -234)">
    <g transform="translate(0 195)">
      <g transform="translate(309 38)">
        <rect width="264" height="84" transform="translate(40 30)" fill="red" opacity="0" />
        <g transform="translate(40 66)" fill="#fff" stroke="#beccea" stroke-width="1.5">
          <rect width="264" height="48" rx="6" stroke="none" />
          <rect x="0.75" y="0.75" width="262.5" height="46.5" rx="5.25" fill="none" />
        </g><text transform="translate(85 97)" fill="#496ec2" font-size="21" font-family="Adobe-Clean">
          <tspan x="0" y="0">Value</tspan>
        </text><text transform="translate(40 54)" fill="#4a6fc3" font-size="18" font-family="Adobe-Clean">
          <tspan x="0" y="0">Label</tspan>
        </text>
      </g>
      <g transform="translate(111 433)">
        <rect width="20" height="19" transform="translate(392 -343)" fill="red" opacity="0" /><text transform="translate(402 -348)" fill="#4a6fc3" font-size="13" font-family="Adobe-Clean" style="font-style: italic">
          <tspan x="-13.149" y="0">Input</tspan>
        </text>
        <circle cx="2.5" cy="2.5" r="2.5" transform="translate(399.5 -317)" fill="#a2b6e1" />
        <rect width="1" height="27" transform="translate(401.5 -343)" fill="#a2b6e1" />
      </g>
      <g transform="translate(-41 400)">
        <rect width="20" height="19" transform="translate(392 -343)" fill="red" opacity="0" /><text transform="translate(410 -348)" fill="#4a6fc3" font-size="13" font-family="Adobe-Clean" style="font-style: italic">
          <tspan x="-27.651" y="0">Label</tspan>
        </text>
        <circle cx="2.5" cy="2.5" r="2.5" transform="translate(399.5 -327)" fill="#a2b6e1" />
        <rect width="1" height="17" transform="translate(401.5 -343)" fill="#a2b6e1" />
      </g>
      <g transform="translate(193 433)">
        <rect width="20" height="19" transform="translate(392 -343)" fill="red" opacity="0" /><text transform="translate(402 -348)" fill="#4a6fc3" font-size="13" font-family="Adobe-Clean" style="font-style: italic">
          <tspan x="-31.174" y="0">Clear button</tspan>
        </text>
        <circle cx="2.5" cy="2.5" r="2.5" transform="translate(399.5 -317)" fill="#a2b6e1" />
        <rect width="1" height="27" transform="translate(401.5 -343)" fill="#a2b6e1" />
      </g>
    </g>
    <g transform="translate(360 310)">
      <rect width="25" height="25" fill="#ff13dc" opacity="0" />
      <path d="M22.489,20.446l-5.365-5.364a8.853,8.853,0,1,0-2.041,2.041l5.365,5.365a1.45,1.45,0,0,0,2.042-2.042ZM3.733,9.945a6.212,6.212,0,1,1,6.212,6.212A6.212,6.212,0,0,1,3.733,9.945Z" transform="translate(0.409 0.409)" fill="#4a6fc3" />
    </g>
    <g transform="translate(588 316)">
      <rect width="14" height="14" fill="red" opacity="0" />
      <line x1="9.786" y2="9.786" transform="translate(2.266 2.266)" stroke="#496ec2" stroke-linecap="round" stroke-width="1.68" />
      <line x1="9.79" y1="9.786" transform="translate(2.266 2.266)" stroke="#496ec2" stroke-linecap="round" stroke-width="1.68" />
    </g>
  </g>
</svg>
