<svg style="max-height: 70px; background: var(--anatomy-gray-100); padding: 32px; margin-bottom: 16px; width: calc(100% - 64px); border-radius: 4px;" viewBox="0 0 300 60">
  <rect id="Rectangle_136670" data-name="Rectangle 136670" width="303" height="66" fill="var(--anatomy-gray-100)"/>
  <path id="Path_934" data-name="Path 934" d="M6.155,5a.908.908,0,0,0-.3-.7l-4-4a.967.967,0,0,0-1.4,0,.967.967,0,0,0,0,1.4L3.655,5,.355,8.3a.972.972,0,0,0-.1,1.4.972.972,0,0,0,1.4.1l.1-.1,4-4A1.012,1.012,0,0,0,6.155,5Z" transform="matrix(0.035, 0.999, -0.999, 0.035, 79.136, 19.974)" fill="var(--anatomy-gray-600)"/>
  <text id="Landscape" transform="translate(91.951 27.67)" fill="var(--anatomy-gray-900)" font-size="18" font-family="Adobe-Clean" font-weight="700"><tspan x="0" y="0">Landscape</tspan></text>
  <g id="Group_2" data-name="Group 2" transform="translate(185.002 21)">
    <g id="Group_1" data-name="Group 1">
      <rect id="rectangle-1" width="33" height="1" transform="translate(0.998 1)" fill="var(--anatomy-gray-500)"/>
      <g id="Ellipse_1" data-name="Ellipse 1" transform="translate(-0.002)" fill="var(--anatomy-gray-500)" stroke="var(--anatomy-gray-500)" stroke-width="1">
        <circle cx="1.5" cy="1.5" r="1.5" stroke="none"/>
        <circle cx="1.5" cy="1.5" r="1" fill="none"/>
      </g>
    </g>
  </g>
  <text id="Button" transform="translate(223 26)" fill="var(--anatomy-gray-800)" font-size="12" font-family="Adobe-Clean" font-style="italic" letter-spacing="0.003em"><tspan x="0" y="0">Button</tspan></text>
  <text id="Landscape_content" data-name="Landscape content" transform="translate(75.397 49.67)" fill="var(--anatomy-gray-900)" font-size="14" font-family="Adobe-Clean" font-weight="300"><tspan x="0" y="0">Landscape content</tspan></text>
  <text id="Panel" transform="translate(223 49)" fill="var(--anatomy-gray-800)" font-size="12" font-family="Adobe-Clean" font-style="italic" letter-spacing="0.003em"><tspan x="0" y="0">Panel</tspan></text>
  <g id="Group_3" data-name="Group 3" transform="translate(189.405 35.99)">
    <rect id="rectangle-1-2" data-name="rectangle-1" width="24" height="1" transform="translate(5.595 9.01)" fill="var(--anatomy-gray-500)"/>
    <rect id="rectangle-1-3" data-name="rectangle-1" width="18.005" height="1" transform="matrix(0.017, 1, -1, 0.017, 6.125, 0)" fill="var(--anatomy-gray-500)"/>
    <rect id="rectangle-1-4" data-name="rectangle-1" width="5.782" height="1.004" transform="translate(5.782 18.02) rotate(-180)" fill="var(--anatomy-gray-500)"/>
    <rect id="rectangle-1-5" data-name="rectangle-1" width="6" height="1" transform="translate(6 1) rotate(-180)" fill="var(--anatomy-gray-500)"/>
  </g>
</svg>
