<svg style="max-height: 403px; background: var(--anatomy-gray-100); padding: 32px; margin-bottom: 16px; width: calc(100% - 64px); border-radius: 4px;" viewBox="0 0 594.5 403">
  <defs>
    <filter id="rectangle-12" x="310.5" y="121" width="226" height="251" filterUnits="userSpaceOnUse">
      <feOffset dy="1" input="SourceAlpha"/>
      <feGaussianBlur stdDeviation="2" result="blur"/>
      <feFlood flood-opacity="0.149"/>
      <feComposite operator="in" in2="blur"/>
      <feComposite in="SourceGraphic"/>
    </filter>
  </defs>
  <g id="Group_151080" data-name="Group 151080" transform="translate(-199.5 -33)">
    <rect id="Rectangle_12285" data-name="Rectangle 12285" width="214" height="84" transform="translate(259 66)" fill="red" opacity="0"/>
    <rect id="Rectangle_136837" data-name="Rectangle 136837" width="214" height="84" transform="translate(516 66)" fill="red" opacity="0"/>
    <g id="rectangle-12-2" data-name="rectangle-12" transform="translate(259 102)" fill="var(--anatomy-gray-200)" stroke="var(--anatomy-gray-500)" stroke-width="1.5">
      <rect width="214" height="48" rx="6" stroke="none"/>
      <rect x="0.75" y="0.75" width="212.5" height="46.5" rx="5.25" fill="none"/>
    </g>
    <g id="rectangle-12-3" data-name="rectangle-12" transform="translate(516 102)" fill="var(--anatomy-gray-200)" stroke="var(--anatomy-gray-500)" stroke-width="1.5">
      <rect width="214" height="48" rx="6" stroke="none"/>
      <rect x="0.75" y="0.75" width="212.5" height="46.5" rx="5.25" fill="none"/>
    </g>
    <text id="Typography" transform="translate(277 132)" fill="var(--anatomy-gray-600)" font-size="21" font-family="Adobe-Clean"><tspan x="0" y="0">Option 1</tspan></text>
    <text id="Typography-2" data-name="Typography" transform="translate(534 132)" fill="var(--anatomy-gray-600)" font-size="21" font-family="Adobe-Clean"><tspan x="0" y="0">Option 1</tspan></text>
    <g id="Group_286" data-name="Group 286" transform="translate(440 121.5)">
      <rect id="Background" width="15" height="9" transform="translate(0.006 0)" fill="var(--anatomy-gray-600)" opacity="0"/>
      <path id="Shape" d="M15,1.5A1.5,1.5,0,0,0,12.437.437L7.5,5.382,2.567.437A1.505,1.505,0,1,0,.437,2.565l6,5.993a1.5,1.5,0,0,0,2.115,0l6-5.993A1.5,1.5,0,0,0,15,1.5Z" transform="translate(0.004 0.006)" fill="var(--anatomy-gray-600)"/>
    </g>
    <g id="Group_151070" data-name="Group 151070" transform="translate(697 121.5)">
      <rect id="Background-2" data-name="Background" width="15" height="9" transform="translate(0.006 0)" fill="var(--anatomy-gray-600)" opacity="0"/>
      <path id="Shape-2" data-name="Shape" d="M15,1.5A1.5,1.5,0,0,0,12.437.437L7.5,5.382,2.567.437A1.505,1.505,0,1,0,.437,2.565l6,5.993a1.5,1.5,0,0,0,2.115,0l6-5.993A1.5,1.5,0,0,0,15,1.5Z" transform="translate(0.004 0.006)" fill="var(--anatomy-gray-600)"/>
    </g>
    <text id="Typography-3" data-name="Typography" transform="translate(259 90)" fill="var(--anatomy-gray-600)" font-size="18" font-family="Adobe-Clean"><tspan x="0" y="0">Label</tspan></text>
    <text id="Typography-4" data-name="Typography" transform="translate(516 90)" fill="var(--anatomy-gray-600)" font-size="18" font-family="Adobe-Clean"><tspan x="0" y="0">Label</tspan></text>
    <g id="Group_3948" data-name="Group 3948" transform="translate(-36 430)">
      <rect id="Rectangle_3659" data-name="Rectangle 3659" width="20" height="16" transform="translate(392 -343)" fill="red" opacity="0"/>
      <text id="Button" transform="translate(402 -348)" fill="var(--anatomy-gray-700)" font-size="13" font-family="Adobe-Clean" font-style="italic"><tspan x="-16.744" y="0">Button</tspan></text>
      <path id="Union_17" data-name="Union 17" d="M-1270-401.5a2.5,2.5,0,0,1,2-2.45V-417h1v13.05a2.5,2.5,0,0,1,2,2.45,2.5,2.5,0,0,1-2.5,2.5A2.5,2.5,0,0,1-1270-401.5Z" transform="translate(1669.5 74)" fill="var(--anatomy-gray-500)"/>
    </g>
    <g id="Group_3938" data-name="Group 3938" transform="translate(-136 394)">
      <rect id="Rectangle_3659-2" data-name="Rectangle 3659" width="20" height="23" transform="translate(392 -343)" fill="red" opacity="0"/>
      <text id="Label" transform="translate(410 -348)" fill="var(--anatomy-gray-700)" font-size="13" font-family="Adobe-Clean" font-style="italic"><tspan x="-27.651" y="0">Label</tspan></text>
      <path id="Union_15" data-name="Union 15" d="M-1170-358.5a2.5,2.5,0,0,1,2-2.45V-381h1v20.05a2.5,2.5,0,0,1,2,2.45,2.5,2.5,0,0,1-2.5,2.5A2.5,2.5,0,0,1-1170-358.5Z" transform="translate(1569.5 38)" fill="var(--anatomy-gray-500)"/>
      <text id="Label-2" data-name="Label" transform="translate(410 -348)" fill="var(--anatomy-gray-700)" font-size="13" font-family="Adobe-Clean" font-style="italic"><tspan x="-27.651" y="0">Label</tspan></text>
      <path id="Union_20" data-name="Union 20" d="M-1170-358.5a2.5,2.5,0,0,1,2-2.45V-381h1v20.05a2.5,2.5,0,0,1,2,2.45,2.5,2.5,0,0,1-2.5,2.5A2.5,2.5,0,0,1-1170-358.5Z" transform="translate(1569.5 38)" fill="var(--anatomy-gray-500)"/>
    </g>
    <g id="Group_151076" data-name="Group 151076" transform="translate(12 59)">
      <g transform="matrix(1, 0, 0, 1, 187.5, -26)" filter="url(#rectangle-12)">
        <g id="rectangle-12-4" data-name="rectangle-12" transform="translate(316.5 126)" fill="var(--anatomy-gray-50)" stroke="var(--anatomy-gray-400)" stroke-width="1.5">
          <rect width="214" height="239" rx="6" stroke="none"/>
          <rect x="0.75" y="0.75" width="212.5" height="237.5" rx="5.25" fill="none"/>
        </g>
      </g>
      <g id="Hover" transform="translate(505 131)" fill="var(--anatomy-gray-900)" opacity="0.04">
        <path d="M0,0H212V64H0Z" stroke="none"/>
        <path d="M 1 1 L 1 63 L 211 63 L 211 1 L 1 1 M 0 0 L 212 0 L 212 64 L 0 64 L 0 0 Z" stroke="none" fill="var(--anatomy-gray-900)" fill-opacity="0"/>
      </g>
      <text id="Option_1" data-name="Option 1" transform="translate(522 158)" fill="var(--anatomy-gray-800)" font-size="20" font-family="Adobe-Clean"><tspan x="0" y="0">Option 1</tspan></text>
      <text id="Option_2" data-name="Option 2" transform="translate(522 227)" fill="var(--anatomy-gray-800)" font-size="20" font-family="Adobe-Clean"><tspan x="0" y="0">Option 2</tspan></text>
      <g id="Group_151069" data-name="Group 151069" transform="translate(397 492.5)">
        <text id="Item" transform="translate(346 -316.5)" fill="var(--anatomy-gray-700)" font-size="13" font-family="Adobe-Clean" font-style="italic"><tspan x="0" y="0">Item</tspan></text>
        <path id="Union_19" data-name="Union 19" d="M-1244-611.5V-639.55a2.5,2.5,0,0,1-2-2.449,2.5,2.5,0,0,1,2.5-2.5,2.5,2.5,0,0,1,2.5,2.5,2.5,2.5,0,0,1-2,2.449V-611.5Z" transform="translate(953 -1564.5) rotate(-90)" fill="var(--anatomy-gray-500)"/>
      </g>
      <g id="Checkmark" transform="translate(685 142.981)">
        <rect id="Frame" width="18" height="18" transform="translate(0 0.019)" fill="var(--anatomy-gray-600)" opacity="0"/>
        <path id="Shape-3" data-name="Shape" d="M5.672,13.022A1.366,1.366,0,0,1,4.6,12.509l-3.321-4A1.336,1.336,0,0,1,3.388,6.858l2.284,2.66,6.29-8a1.335,1.335,0,1,1,2.1,1.642L6.709,12.508A1.3,1.3,0,0,1,5.672,13.022Z" transform="translate(0.335 -0.673)" fill="var(--anatomy-gray-600)"/>
      </g>
      <g id="Group_151072" data-name="Group 151072" transform="translate(104 500.755)">
        <text id="Item_label" data-name="Item label" transform="translate(366 -344.755)" fill="var(--anatomy-gray-700)" font-size="13" font-family="Adobe-Clean" font-style="italic"><tspan x="-50.492" y="0">Item label</tspan></text>
        <path id="Union_19-2" data-name="Union 19" d="M2,42V4.95a2.5,2.5,0,1,1,1,0V42Z" transform="translate(413.5 -351.754) rotate(90)" fill="var(--anatomy-gray-500)"/>
      </g>
      <text id="Description" transform="translate(522 183)" fill="var(--anatomy-gray-800)" fill-opacity="0.75" font-size="16" font-family="Adobe-Clean"><tspan x="0" y="0">Description</tspan></text>
      <text id="Description-2" data-name="Description" transform="translate(522 252)" fill="var(--anatomy-gray-800)" fill-opacity="0.75" font-size="16" font-family="Adobe-Clean"><tspan x="0" y="0">Description</tspan></text>
      <text id="Option_3" data-name="Option 3" transform="translate(522 295)" fill="var(--anatomy-gray-800)" font-size="20" font-family="Adobe-Clean"><tspan x="0" y="0">Option 3</tspan></text>
      <text id="Description-3" data-name="Description" transform="translate(522 320)" fill="var(--anatomy-gray-800)" fill-opacity="0.75" font-size="16" font-family="Adobe-Clean"><tspan x="0" y="0">Description</tspan></text>
      <g id="Group_151073" data-name="Group 151073" transform="translate(104 526.755)">
        <text id="Item_description" data-name="Item description" transform="translate(366 -345.755)" fill="var(--anatomy-gray-700)" font-size="13" font-family="Adobe-Clean" font-style="italic"><tspan x="-81.029" y="0">Item description</tspan></text>
        <path id="Union_19-3" data-name="Union 19" d="M2,42V4.95a2.5,2.5,0,1,1,1,0V42Z" transform="translate(413.5 -351.754) rotate(90)" fill="var(--anatomy-gray-500)"/>
      </g>
      <text id="Detail" transform="translate(522 122)" fill="var(--anatomy-gray-800)" font-size="14" font-family="Adobe-Clean" font-weight="700" letter-spacing="0.06em"><tspan x="0" y="0">SECTION TITLE</tspan></text>
      <g id="Group_151075" data-name="Group 151075" transform="translate(104 464.755)">
        <text id="Section_header" data-name="Section header" transform="translate(366 -344.755)" fill="var(--anatomy-gray-700)" font-size="13" font-family="Adobe-Clean" font-style="italic"><tspan x="-74.737" y="0">Section header</tspan></text>
        <path id="Union_19-4" data-name="Union 19" d="M2,42V4.95a2.5,2.5,0,1,1,1,0V42Z" transform="translate(413.5 -351.754) rotate(90)" fill="var(--anatomy-gray-500)"/>
      </g>
      <rect id="Rectangle_138455" data-name="Rectangle 138455" width="8" height="1" transform="translate(732.14 223.776)" fill="var(--anatomy-gray-500)"/>
      <g id="Group_72703" data-name="Group 72703" transform="translate(723.117 108)">
        <rect id="Rectangle_138451" data-name="Rectangle 138451" width="8.023" height="1" fill="var(--anatomy-gray-500)"/>
        <rect id="Rectangle_138453" data-name="Rectangle 138453" width="1" height="226.234" transform="translate(8.023)" fill="var(--anatomy-gray-500)"/>
        <rect id="Rectangle_138452" data-name="Rectangle 138452" width="8.023" height="1" transform="translate(0 225.234)" fill="var(--anatomy-gray-500)"/>
      </g>
      <text id="Section" transform="translate(745 229)" fill="var(--anatomy-gray-700)" font-size="13" font-family="Adobe-Clean" font-style="italic"><tspan x="0" y="0">Section</tspan></text>
      <g id="Group_151077" data-name="Group 151077" transform="translate(94 580.531)">
        <text id="Popover" transform="translate(376 -345.255)" fill="var(--anatomy-gray-700)" font-size="13" font-family="Adobe-Clean" font-style="italic"><tspan x="-41.522" y="0">Popover</tspan></text>
        <path id="Union_19-5" data-name="Union 19" d="M2,32V4.95a2.5,2.5,0,1,1,1,0V32Z" transform="translate(413.5 -351.754) rotate(90)" fill="var(--anatomy-gray-500)"/>
      </g>
    </g>
    <g id="Group_151069-2" data-name="Group 151069" transform="translate(348 749.5)">
      <rect id="Rectangle_3659-3" data-name="Rectangle 3659" width="20" height="31" transform="translate(354 -360.5)" fill="red" opacity="0"/>
      <text id="ListBox" transform="translate(364 -316.5)" fill="var(--anatomy-gray-700)" font-size="13" font-family="Adobe-Clean" font-style="italic"><tspan x="-18.181" y="0">ListBox</tspan></text>
      <path id="Union_19-6" data-name="Union 19" d="M-1244-611.5V-639.55a2.5,2.5,0,0,1-2-2.449,2.5,2.5,0,0,1,2.5-2.5,2.5,2.5,0,0,1,2.5,2.5,2.5,2.5,0,0,1-2,2.449V-611.5Z" transform="translate(1607.5 282)" fill="var(--anatomy-gray-500)"/>
    </g>
    <g id="Group_151078" data-name="Group 151078" transform="translate(-137.5 474.755)">
      <text id="Value" transform="translate(366 -344.755)" fill="var(--anatomy-gray-700)" font-size="13" font-family="Adobe-Clean" font-style="italic"><tspan x="-28.314" y="0">Value</tspan></text>
      <path id="Union_19-7" data-name="Union 19" d="M2,42V4.95a2.5,2.5,0,1,1,1,0V42Z" transform="translate(413.5 -351.754) rotate(90)" fill="var(--anatomy-gray-500)"/>
    </g>
    <text id="Typography-5" data-name="Typography" transform="translate(259 176)" fill="var(--anatomy-gray-600)" font-size="18" font-family="Adobe-Clean"><tspan x="0" y="0">Help text</tspan></text>
    <g id="Group_151073-2" data-name="Group 151073" transform="translate(-210 8)">
      <text id="_Help_text_description_or_error_message_" data-name="​​Help text (description
or error message)" transform="translate(521 211.5)" fill="var(--anatomy-gray-700)" font-size="13" font-family="Adobe-Clean" font-style="italic"><tspan x="-55.198" y="0">​​Help text (description </tspan><tspan x="-44.57" y="16">or error message)</tspan></text>
      <g id="Group_151079" data-name="Group 151079" transform="translate(680.5 -388) rotate(90)">
        <circle id="Ellipse_378" data-name="Ellipse 378" cx="2.5" cy="2.5" r="2.5" transform="translate(559.5 162) rotate(-90)" fill="var(--anatomy-gray-500)"/>
        <rect id="Rectangle_3657" data-name="Rectangle 3657" width="1" height="21" transform="translate(563.5 160) rotate(-90)" fill="var(--anatomy-gray-500)"/>
      </g>
    </g>
  </g>
</svg>
