<svg style="max-height: 400px; background: var(--anatomy-gray-100); padding: 32px; margin-bottom: 16px; width: calc(100% - 64px); border-radius: 4px;" viewBox="0 0 900 216">
  <defs>
    <clipPath id="clip-treeview_anatomy">
      <rect width="900" height="216"/>
    </clipPath>
  </defs>
  <g id="treeview_anatomy" clip-path="url(#clip-treeview_anatomy)">
    <rect width="900" height="216" fill="var(--anatomy-gray-100)"/>
    <g id="Checkbox" transform="translate(423.293 112.045)">
      <g id="Placement_Area" data-name="Placement Area" fill="red" stroke="var(--anatomy-gray-900)" stroke-opacity="0" stroke-width="1" opacity="0">
        <rect width="21" height="47" stroke="none"/>
        <rect x="0.5" y="0.5" width="20" height="46" fill="none"/>
      </g>
      <g id="Box" transform="translate(0 13)" fill="var(--anatomy-gray-700)" stroke="var(--anatomy-gray-900)" stroke-opacity="0" stroke-width="1">
        <rect width="21" height="21" rx="2" stroke="none"/>
        <rect x="0.5" y="0.5" width="20" height="20" rx="1.5" fill="none"/>
      </g>
      <g id="Checkmark" transform="translate(3.255 16.276)">
        <g id="Frame" transform="translate(-0.255 -0.276)" fill="var(--anatomy-gray-600)" stroke="var(--anatomy-gray-900)" stroke-opacity="0" stroke-width="1" opacity="0">
          <rect width="14" height="14" stroke="none"/>
          <rect x="0.5" y="0.5" width="13" height="13" fill="none"/>
        </g>
        <path id="Shape" d="M5.275,12.609a1.45,1.45,0,0,1-1.142-.558L.815,7.7A1.45,1.45,0,1,1,3.1,5.918L5.275,8.8l5.689-7.236a1.45,1.45,0,1,1,2.285,1.783l-6.832,8.7A1.45,1.45,0,0,1,5.275,12.609Z" transform="translate(-0.139 0.112)" fill="var(--anatomy-gray-75)"/>
      </g>
    </g>
    <g id="Group_156377" data-name="Group 156377" transform="translate(225.293 -190.822)">
      <text id="Checkbox_optional_" data-name="Checkbox (optional)" transform="translate(209 366)" fill="var(--anatomy-gray-800)" font-size="13" font-family="Adobe-Clean" font-style="italic"><tspan x="-50.999" y="0">Checkbox (optional)</tspan></text>
      <g id="Group_152094" data-name="Group 152094" transform="translate(-43 202.788)">
        <rect id="Rectangle_140787" data-name="Rectangle 140787" width="20" height="53.946" transform="translate(262 150.212) rotate(180)" fill="red" opacity="0"/>
        <circle id="Ellipse_9475" data-name="Ellipse 9475" cx="2.5" cy="2.5" r="2.5" transform="translate(254.048 135.001) rotate(180)" fill="var(--anatomy-gray-500)"/>
        <rect id="Rectangle_140788" data-name="Rectangle 140788" width="1" height="14.424" transform="translate(252.048 147.425) rotate(180)" fill="var(--anatomy-gray-500)"/>
      </g>
    </g>
    <text id="Collapse_and_expand_button" data-name="Collapse and expand button" transform="translate(373.293 50.822)" fill="var(--anatomy-gray-800)" font-size="13" font-family="Adobe-Clean" font-style="italic"><tspan x="-70.948" y="0">Collapse and expand button</tspan></text>
    <g id="Group_156363" data-name="Group 156363" transform="translate(616.579 150.513) rotate(180)">
      <g id="Group_156364" data-name="Group 156364" transform="translate(242 76.77)">
        <rect id="Rectangle_140787-2" data-name="Rectangle 140787" width="9.07" height="18.088" transform="translate(9.07 18.088) rotate(180)" fill="red" opacity="0"/>
        <path id="Union_57" data-name="Union 57" d="M0,0H1V17.035H0Z" transform="translate(5.035 18.198) rotate(180)" fill="var(--anatomy-gray-500)"/>
      </g>
    </g>
    <g id="Group_152112" data-name="Group 152112" transform="translate(243.293 -245.455)">
      <rect id="Rectangle_140798" data-name="Rectangle 140798" width="194" height="32" transform="translate(134 365)" fill="var(--anatomy-gray-800)" fill-opacity="0.1"/>
      <text id="Photos" transform="translate(216 339)" fill="var(--anatomy-gray-800)" font-size="14" font-family="Adobe-Clean"><tspan x="0" y="14">Photos</tspan></text>
      <path id="Path_36603" data-name="Path 36603" d="M2.552,0h188.86c1.41,0,2.552,1.791,2.552,4V28c0,2.209-1.143,4-2.552,4H2.552C1.143,32,0,30.209,0,28V4C0,1.791,1.143,0,2.552,0Z" transform="translate(134 365)" fill="var(--anatomy-gray-100)" opacity="0"/>
      <text id="PDFs" transform="translate(216 371)" fill="var(--anatomy-gray-800)" font-size="14" font-family="Adobe-Clean"><tspan x="0" y="14">PDFs</tspan></text>
      <rect id="Rectangle_140795" data-name="Rectangle 140795" width="32" height="32" transform="translate(134 301)" fill="red" opacity="0"/>
      <g id="Chevron" transform="translate(145 314)">
        <rect id="Frame-2" data-name="Frame" width="10" height="6" fill="var(--anatomy-gray-700)" opacity="0"/>
        <path id="Shape-2" data-name="Shape" d="M9.99,1.01A1,1,0,0,0,8.283.3L5,3.586,1.717.3A1,1,0,1,0,.3,1.717L4.293,5.7a1,1,0,0,0,1.414,0L9.7,1.717A1,1,0,0,0,9.99,1.01Z" fill="var(--anatomy-gray-700)"/>
      </g>
      <text id="Documents" transform="translate(204 307)" fill="var(--anatomy-gray-800)" font-size="14" font-family="Adobe-Clean"><tspan x="0" y="14">Documents</tspan></text>
      <g id="Group_152101" data-name="Group 152101" transform="translate(51.414 663)">
        <text id="Tree_item" data-name="Tree item" transform="translate(255.999 -342)" fill="var(--anatomy-gray-700)" font-size="13" font-family="Adobe-Clean" font-style="italic"><tspan x="0" y="0">Tree item</tspan></text>
        <g id="Group_152108" data-name="Group 152108" transform="translate(700.999 -691) rotate(180)">
          <rect id="Rectangle_3659" data-name="Rectangle 3659" width="20" height="48" transform="translate(421 -336) rotate(-90)" fill="red" opacity="0"/>
          <path id="Union_56" data-name="Union 56" d="M-9134-324.5a2.5,2.5,0,0,1,2-2.449V-344h1v17.052a2.5,2.5,0,0,1,2,2.449,2.5,2.5,0,0,1-2.5,2.5A2.5,2.5,0,0,1-9134-324.5Z" transform="translate(791 -9477.5) rotate(-90)" fill="var(--anatomy-gray-500)"/>
        </g>
      </g>
      <text id="Tree" transform="translate(82.999 333)" fill="var(--anatomy-gray-700)" font-size="13" font-family="Adobe-Clean" font-style="italic"><tspan x="-21.06" y="0">Tree</tspan></text>
      <g id="Group_152111" data-name="Group 152111" transform="translate(202 769) rotate(180)">
        <rect id="Rectangle_138454" data-name="Rectangle 138454" width="8" height="1" transform="translate(101 439)" fill="var(--anatomy-gray-700)"/>
        <g id="Group_72702" data-name="Group 72702" transform="translate(92 372)">
          <rect id="Rectangle_138451" data-name="Rectangle 138451" width="8" height="1" fill="var(--anatomy-gray-700)"/>
          <rect id="Rectangle_138453" data-name="Rectangle 138453" width="1" height="93" transform="translate(8)" fill="var(--anatomy-gray-700)"/>
          <rect id="Rectangle_138452" data-name="Rectangle 138452" width="8" height="1" transform="translate(0 92)" fill="var(--anatomy-gray-700)"/>
        </g>
      </g>
    </g>
    <g id="Group_156385" data-name="Group 156385" transform="translate(462.412 -179.68) rotate(90)">
      <g id="Group_156364-2" data-name="Group 156364" transform="translate(242 76.77)">
        <rect id="Rectangle_140787-3" data-name="Rectangle 140787" width="20" height="15.265" transform="translate(20 15.265) rotate(180)" fill="red" opacity="0"/>
        <path id="Union_57-2" data-name="Union 57" d="M0,13.137a2.5,2.5,0,0,1,2-2.45V-.472H3V10.687a2.5,2.5,0,1,1-3,2.45Z" transform="translate(12.499 15.628) rotate(180)" fill="var(--anatomy-gray-500)"/>
      </g>
    </g>
    <g id="Checkbox-2" data-name="Checkbox" transform="translate(423.293 79.545)">
      <g id="Placement_Area-2" data-name="Placement Area" fill="red" stroke="var(--anatomy-gray-900)" stroke-opacity="0" stroke-width="1" opacity="0">
        <rect width="21" height="48" stroke="none"/>
        <rect x="0.5" y="0.5" width="20" height="47" fill="none"/>
      </g>
      <g id="Box-2" data-name="Box" transform="translate(0 13.5)" fill="var(--anatomy-gray-75)" stroke="var(--anatomy-gray-600)" stroke-width="3">
        <rect width="21" height="21" rx="2" stroke="none"/>
        <rect x="1.5" y="1.5" width="18" height="18" rx="0.5" fill="none"/>
      </g>
    </g>
    <g id="Checkbox-3" data-name="Checkbox" transform="translate(411.293 48.545)">
      <g id="Placement_Area-3" data-name="Placement Area" fill="red" stroke="var(--anatomy-gray-900)" stroke-opacity="0" stroke-width="1" opacity="0">
        <rect width="21" height="48" stroke="none"/>
        <rect x="0.5" y="0.5" width="20" height="47" fill="none"/>
      </g>
      <g id="Box-3" data-name="Box" transform="translate(0 13.5)" fill="var(--anatomy-gray-75)" stroke="var(--anatomy-gray-600)" stroke-width="3">
        <rect width="21" height="21" rx="2" stroke="none"/>
        <rect x="1.5" y="1.5" width="18" height="18" rx="0.5" fill="none"/>
      </g>
    </g>
  </g>
</svg>
