<svg style="max-height: 292px; background: var(--anatomy-gray-100); padding: 32px; margin-bottom: 16px; width: calc(100% - 64px); border-radius: 4px;" viewBox="0 0 471 292">
  <g id="Group_16622" data-name="Group 16622" transform="translate(-267 -36)">
    <g id="Group_4011" data-name="Group 4011" transform="translate(30 409)">
      <rect id="Rectangle_3659" data-name="Rectangle 3659" width="20" height="20" transform="translate(392 -340)" fill="red" opacity="0"/>
      <text id="Column" transform="translate(402 -345)" fill="var(--anatomy-gray-700)" font-size="13" font-family="Adobe-Clean" font-style="italic"><tspan x="-19.858" y="0">Column</tspan></text>
      <path id="Union_50" data-name="Union 50" d="M-8701-353.5a2.5,2.5,0,0,1,2-2.45V-374h1v18.05a2.5,2.5,0,0,1,2,2.45,2.5,2.5,0,0,1-2.5,2.5A2.5,2.5,0,0,1-8701-353.5Z" transform="translate(9100.5 34)" fill="var(--anatomy-gray-500)"/>
    </g>
    <text id="Typography" transform="translate(609 100)" fill="var(--anatomy-gray-900)" font-size="14" font-family="Adobe-Clean" font-weight="700"><tspan x="-23.716" y="0">Size</tspan></text>
    <g id="rectangle-33" transform="translate(342 112)" fill="var(--anatomy-gray-50)">
      <path d="M 296 186.5 L 4 186.5 C 2.070076942443848 186.5 0.5 184.9488830566406 0.5 183.0423431396484 L 0.5 3.957692384719849 C 0.5 2.051115274429321 2.070076942443848 0.5 4 0.5 L 296 0.5 C 297.929931640625 0.5 299.5 2.051115274429321 299.5 3.957692384719849 L 299.5 183.0423431396484 C 299.5 184.9488830566406 297.929931640625 186.5 296 186.5 Z" stroke="none"/>
      <path d="M 4 1 C 2.345794677734375 1 1 2.326812744140625 1 3.957656860351562 L 1 183.0423126220703 C 1 184.6731872558594 2.345794677734375 186 4 186 L 296 186 C 297.6542053222656 186 299 184.6731872558594 299 183.0423126220703 L 299 3.957656860351562 C 299 2.326812744140625 297.6542053222656 1 296 1 L 4 1 M 4 0 L 296 0 C 298.2091064453125 0 300 1.771926879882812 300 3.957656860351562 L 300 183.0423126220703 C 300 185.2281188964844 298.2091064453125 187 296 187 L 4 187 C 1.79083251953125 187 0 185.2281188964844 0 183.0423126220703 L 0 3.957656860351562 C 0 1.771926879882812 1.79083251953125 0 4 0 Z" stroke="none" fill="var(--anatomy-gray-300)"/>
    </g>
    <rect id="Rectangle_1793" data-name="Rectangle 1793" width="298" height="46" transform="translate(343 206)" fill="var(--anatomy-gray-900)" opacity="0.1"/>
    <text id="Typography-2" data-name="Typography" transform="translate(623 139)" fill="var(--anatomy-gray-800)" font-size="14" font-family="Adobe-Clean"><tspan x="-37.1" y="0">214 KB</tspan></text>
    <rect id="rectangle-34" width="298" height="1" transform="translate(343 158)" fill="var(--anatomy-gray-300)"/>
    <text id="Typography-3" data-name="Typography" transform="translate(623 186)" fill="var(--anatomy-gray-800)" font-size="14" font-family="Adobe-Clean"><tspan x="-37.324" y="0">120 KB</tspan></text>
    <text id="Typography-4" data-name="Typography" transform="translate(623 233)" fill="var(--anatomy-gray-800)" font-size="14" font-family="Adobe-Clean"><tspan x="-33.222" y="0">88 KB</tspan></text>
    <text id="Typography-5" data-name="Typography" transform="translate(623 280)" fill="var(--anatomy-gray-800)" font-size="14" font-family="Adobe-Clean"><tspan x="-32.34" y="0">24 KB</tspan></text>
    <text id="Proposal" transform="translate(404 139)" fill="var(--anatomy-gray-800)" font-size="14" font-family="Adobe-Clean"><tspan x="0" y="0">Proposal</tspan></text>
    <text id="Budget" transform="translate(404 186)" fill="var(--anatomy-gray-800)" font-size="14" font-family="Adobe-Clean"><tspan x="0" y="0">Budget</tspan></text>
    <text id="Welcome" transform="translate(404 280)" fill="var(--anatomy-gray-800)" font-size="14" font-family="Adobe-Clean"><tspan x="0" y="0">Welcome</tspan></text>
    <text id="Onboarding" transform="translate(404 233)" fill="var(--anatomy-gray-800)" font-size="14" font-family="Adobe-Clean"><tspan x="0" y="0">Onboarding</tspan></text>
    <text id="Typography-6" data-name="Typography" transform="translate(404 100)" fill="var(--anatomy-gray-900)" font-size="14" font-family="Adobe-Clean" font-weight="700"><tspan x="0" y="0">File name</tspan></text>
    <rect id="rectangle-34-2" data-name="rectangle-34" width="1" height="187" transform="translate(564 112)" fill="var(--anatomy-gray-300)"/>
    <g id="Group_16619" data-name="Group 16619" transform="translate(-104 -50)">
      <rect id="Rectangle_140038" data-name="Rectangle 140038" width="20" height="21" transform="translate(620 341)" fill="red" opacity="0"/>
      <text id="Cell" transform="translate(629 375)" fill="var(--anatomy-gray-700)" font-size="13" font-family="Adobe-Clean" font-style="italic"><tspan x="-9.276" y="0">Cell</tspan></text>
      <path id="Union_56" data-name="Union 56" d="M-8599-588.5V-608.55a2.5,2.5,0,0,1-2-2.45,2.5,2.5,0,0,1,2.5-2.5,2.5,2.5,0,0,1,2.5,2.5,2.5,2.5,0,0,1-2,2.449V-588.5Z" transform="translate(9228.5 950.5)" fill="var(--anatomy-gray-500)"/>
    </g>
    <path id="Path_3123" data-name="Path 3123" d="M9,7a1,1,0,0,0-1.71-.71L6,7.59V2A1,1,0,1,0,4,2V7.59L2.71,6.29A1,1,0,0,0,1.29,7.71l3,3a1,1,0,0,0,1.41,0l3-3A1,1,0,0,0,9,7Z" transform="translate(613.004 90)" fill="var(--anatomy-gray-600)"/>
    <g id="Checkbox" transform="translate(366 119)">
      <g id="Placement_Area" data-name="Placement Area" fill="red" stroke="var(--anatomy-gray-900)" stroke-opacity="0" stroke-width="1" opacity="0">
        <rect width="14" height="32" stroke="none"/>
        <rect x="0.5" y="0.5" width="13" height="31" fill="none"/>
      </g>
      <g id="Box" transform="translate(0 9)" fill="var(--anatomy-gray-75)" stroke="var(--anatomy-gray-600)" stroke-width="2">
        <rect width="14" height="14" rx="2" stroke="none"/>
        <rect x="1" y="1" width="12" height="12" rx="1" fill="none"/>
      </g>
    </g>
    <g id="Checkbox-2" data-name="Checkbox" transform="translate(366 213)">
      <rect id="Placement_Area-2" data-name="Placement Area" width="14" height="32" fill="red" opacity="0"/>
      <rect id="Box-2" data-name="Box" width="14" height="14" rx="2" transform="translate(0 9)" fill="var(--anatomy-gray-700)"/>
      <g id="Checkmark">
        <rect id="Frame" width="10" height="10" transform="translate(2 11)" fill="var(--anatomy-gray-600)" opacity="0"/>
        <path id="Shape" d="M3.788,9A1,1,0,0,1,3,8.615l-2.288-3a1,1,0,1,1,1.576-1.23l1.5,1.991L7.712,1.385a1,1,0,1,1,1.576,1.23l-4.712,6A1,1,0,0,1,3.788,9Z" transform="translate(2 11)" fill="var(--anatomy-gray-75)"/>
      </g>
    </g>
    <g id="Checkbox-3" data-name="Checkbox" transform="translate(366 166)">
      <rect id="Placement_Area-3" data-name="Placement Area" width="14" height="32" fill="red" opacity="0"/>
      <g id="Box-3" data-name="Box" transform="translate(0 9)" fill="var(--anatomy-gray-75)" stroke="var(--anatomy-gray-600)" stroke-width="2">
        <rect width="14" height="14" rx="2" stroke="none"/>
        <rect x="1" y="1" width="12" height="12" rx="1" fill="none"/>
      </g>
    </g>
    <g id="Checkbox-4" data-name="Checkbox" transform="translate(366 260)">
      <g id="Placement_Area-4" data-name="Placement Area" fill="red" stroke="var(--anatomy-gray-900)" stroke-opacity="0" stroke-width="1" opacity="0">
        <rect width="14" height="32" stroke="none"/>
        <rect x="0.5" y="0.5" width="13" height="31" fill="none"/>
      </g>
      <g id="Box-4" data-name="Box" transform="translate(0 9)" fill="var(--anatomy-gray-75)" stroke="var(--anatomy-gray-600)" stroke-width="2">
        <rect width="14" height="14" rx="2" stroke="none"/>
        <rect x="1" y="1" width="12" height="12" rx="1" fill="none"/>
      </g>
    </g>
    <g id="Checkbox-5" data-name="Checkbox" transform="translate(366 80)">
      <rect id="Placement_Area-5" data-name="Placement Area" width="14" height="32" fill="red" opacity="0"/>
      <rect id="Box-5" data-name="Box" width="14" height="14" rx="2" transform="translate(0 9)" fill="var(--anatomy-gray-700)"/>
      <g id="Checkmark-2" data-name="Checkmark">
        <rect id="Frame-2" data-name="Frame" width="10" height="10" transform="translate(2 11)" fill="var(--anatomy-gray-600)" opacity="0"/>
        <path id="Shape-2" data-name="Shape" d="M8,4H2A1,1,0,0,0,2,6H8A1,1,0,0,0,8,4Z" transform="translate(2 11)" fill="var(--anatomy-gray-75)"/>
      </g>
    </g>
    <g id="Group_16604" data-name="Group 16604" transform="translate(-29 404)">
      <g id="Group_16620" data-name="Group 16620">
        <text id="Select_all_checkbox" data-name="Select all
checkbox" transform="translate(402 -355)" fill="var(--anatomy-gray-700)" font-size="13" font-family="Adobe-Clean" font-style="italic"><tspan x="-22.354" y="0">Select all</tspan><tspan x="-23.433" y="15">checkbox</tspan></text>
        <rect id="Rectangle_12329" data-name="Rectangle 12329" width="20" height="20" transform="translate(392 -335)" fill="red" opacity="0"/>
      </g>
      <path id="Union_49" data-name="Union 49" d="M-8556-348.5a2.5,2.5,0,0,1,2-2.45V-369h1v18.051a2.5,2.5,0,0,1,2,2.449,2.5,2.5,0,0,1-2.5,2.5A2.5,2.5,0,0,1-8556-348.5Z" transform="translate(8955.5 34)" fill="var(--anatomy-gray-500)"/>
    </g>
    <g id="Group_16612" data-name="Group 16612" transform="translate(-73.117 5)">
      <rect id="Rectangle_138455" data-name="Rectangle 138455" width="8" height="1" transform="translate(732.14 202.581)" fill="var(--anatomy-gray-500)"/>
      <g id="Group_72703" data-name="Group 72703" transform="translate(723.117 108)">
        <rect id="Rectangle_138451" data-name="Rectangle 138451" width="8.023" height="1" fill="var(--anatomy-gray-500)"/>
        <rect id="Rectangle_138453" data-name="Rectangle 138453" width="1" height="185" transform="translate(8.023)" fill="var(--anatomy-gray-500)"/>
        <rect id="Rectangle_138452" data-name="Rectangle 138452" width="8.023" height="1" transform="translate(0 184)" fill="var(--anatomy-gray-500)"/>
      </g>
      <text id="Table_body" data-name="Table body" transform="translate(745.117 207.817)" fill="var(--anatomy-gray-700)" font-size="13" font-family="Adobe-Clean" font-style="italic"><tspan x="0" y="0">Table body</tspan></text>
    </g>
    <g id="Group_16613" data-name="Group 16613" transform="translate(-73.117 -28.244)">
      <rect id="Rectangle_138455-2" data-name="Rectangle 138455" width="8" height="1" transform="translate(732.14 122.643)" fill="var(--anatomy-gray-500)"/>
      <g id="Group_72703-2" data-name="Group 72703" transform="translate(723.117 108)">
        <rect id="Rectangle_138451-2" data-name="Rectangle 138451" width="8.023" height="1" fill="var(--anatomy-gray-500)"/>
        <rect id="Rectangle_138453-2" data-name="Rectangle 138453" width="1" height="29.487" transform="translate(8.023)" fill="var(--anatomy-gray-500)"/>
        <rect id="Rectangle_138452-2" data-name="Rectangle 138452" width="8.023" height="1" transform="translate(0 28.487)" fill="var(--anatomy-gray-500)"/>
      </g>
      <text id="Table_header" data-name="Table header" transform="translate(745.117 127.929)" fill="var(--anatomy-gray-700)" font-size="13" font-family="Adobe-Clean" font-style="italic"><tspan x="0" y="0">Table header</tspan></text>
    </g>
    <g id="Group_16614" data-name="Group 16614" transform="translate(-496.117 5.071)">
      <g id="Group_16615" data-name="Group 16615" transform="translate(815.117 107.929)">
        <rect id="Rectangle_138455-3" data-name="Rectangle 138455" width="8" height="1" transform="translate(0 22.742)" fill="var(--anatomy-gray-500)"/>
        <g id="Group_72703-3" data-name="Group 72703" transform="translate(8)">
          <rect id="Rectangle_138451-3" data-name="Rectangle 138451" width="8.023" height="1" transform="translate(1)" fill="var(--anatomy-gray-500)"/>
          <rect id="Rectangle_138453-3" data-name="Rectangle 138453" width="1" height="45.244" fill="var(--anatomy-gray-500)"/>
          <rect id="Rectangle_138452-3" data-name="Rectangle 138452" width="8.023" height="1" transform="translate(1 44.244)" fill="var(--anatomy-gray-500)"/>
        </g>
      </g>
      <text id="Row" transform="translate(810.117 135.929)" fill="var(--anatomy-gray-700)" font-size="13" font-family="Adobe-Clean" font-style="italic"><tspan x="-22.204" y="0">Row</tspan></text>
    </g>
    <g id="Decorative_icon" data-name="Decorative icon" transform="translate(344 173)">
      <rect id="Placement_Area-6" data-name="Placement Area" width="18" height="18" fill="red" opacity="0"/>
      <g id="Icon">
        <rect id="Canvas" width="18" height="18" fill="var(--anatomy-gray-700)" opacity="0"/>
        <circle id="Ellipse_400" data-name="Ellipse 400" cx="1" cy="1" r="1" transform="translate(6 12)" fill="var(--anatomy-gray-700)"/>
        <circle id="Ellipse_401" data-name="Ellipse 401" cx="1" cy="1" r="1" transform="translate(6 9)" fill="var(--anatomy-gray-700)"/>
        <circle id="Ellipse_402" data-name="Ellipse 402" cx="1" cy="1" r="1" transform="translate(6 6)" fill="var(--anatomy-gray-700)"/>
        <circle id="Ellipse_403" data-name="Ellipse 403" cx="1" cy="1" r="1" transform="translate(6 3)" fill="var(--anatomy-gray-700)"/>
        <circle id="Ellipse_404" data-name="Ellipse 404" cx="1" cy="1" r="1" transform="translate(9 12)" fill="var(--anatomy-gray-700)"/>
        <circle id="Ellipse_405" data-name="Ellipse 405" cx="1" cy="1" r="1" transform="translate(9 9)" fill="var(--anatomy-gray-700)"/>
        <circle id="Ellipse_406" data-name="Ellipse 406" cx="1" cy="1" r="1" transform="translate(9 6)" fill="var(--anatomy-gray-700)"/>
        <circle id="Ellipse_407" data-name="Ellipse 407" cx="1" cy="1" r="1" transform="translate(9 3)" fill="var(--anatomy-gray-700)"/>
      </g>
    </g>
    <g id="Decorative_icon-2" data-name="Decorative icon" transform="translate(344 126)">
      <rect id="Placement_Area-7" data-name="Placement Area" width="18" height="18" fill="red" opacity="0"/>
      <g id="Icon-2" data-name="Icon">
        <rect id="Canvas-2" data-name="Canvas" width="18" height="18" fill="var(--anatomy-gray-700)" opacity="0"/>
        <circle id="Ellipse_400-2" data-name="Ellipse 400" cx="1" cy="1" r="1" transform="translate(6 12)" fill="var(--anatomy-gray-700)"/>
        <circle id="Ellipse_401-2" data-name="Ellipse 401" cx="1" cy="1" r="1" transform="translate(6 9)" fill="var(--anatomy-gray-700)"/>
        <circle id="Ellipse_402-2" data-name="Ellipse 402" cx="1" cy="1" r="1" transform="translate(6 6)" fill="var(--anatomy-gray-700)"/>
        <circle id="Ellipse_403-2" data-name="Ellipse 403" cx="1" cy="1" r="1" transform="translate(6 3)" fill="var(--anatomy-gray-700)"/>
        <circle id="Ellipse_404-2" data-name="Ellipse 404" cx="1" cy="1" r="1" transform="translate(9 12)" fill="var(--anatomy-gray-700)"/>
        <circle id="Ellipse_405-2" data-name="Ellipse 405" cx="1" cy="1" r="1" transform="translate(9 9)" fill="var(--anatomy-gray-700)"/>
        <circle id="Ellipse_406-2" data-name="Ellipse 406" cx="1" cy="1" r="1" transform="translate(9 6)" fill="var(--anatomy-gray-700)"/>
        <circle id="Ellipse_407-2" data-name="Ellipse 407" cx="1" cy="1" r="1" transform="translate(9 3)" fill="var(--anatomy-gray-700)"/>
      </g>
    </g>
    <g id="Decorative_icon-3" data-name="Decorative icon" transform="translate(344 220)">
      <rect id="Placement_Area-8" data-name="Placement Area" width="18" height="18" fill="red" opacity="0"/>
      <g id="Icon-3" data-name="Icon">
        <rect id="Canvas-3" data-name="Canvas" width="18" height="18" fill="var(--anatomy-gray-700)" opacity="0"/>
        <circle id="Ellipse_400-3" data-name="Ellipse 400" cx="1" cy="1" r="1" transform="translate(6 12)" fill="var(--anatomy-gray-700)"/>
        <circle id="Ellipse_401-3" data-name="Ellipse 401" cx="1" cy="1" r="1" transform="translate(6 9)" fill="var(--anatomy-gray-700)"/>
        <circle id="Ellipse_402-3" data-name="Ellipse 402" cx="1" cy="1" r="1" transform="translate(6 6)" fill="var(--anatomy-gray-700)"/>
        <circle id="Ellipse_403-3" data-name="Ellipse 403" cx="1" cy="1" r="1" transform="translate(6 3)" fill="var(--anatomy-gray-700)"/>
        <circle id="Ellipse_404-3" data-name="Ellipse 404" cx="1" cy="1" r="1" transform="translate(9 12)" fill="var(--anatomy-gray-700)"/>
        <circle id="Ellipse_405-3" data-name="Ellipse 405" cx="1" cy="1" r="1" transform="translate(9 9)" fill="var(--anatomy-gray-700)"/>
        <circle id="Ellipse_406-3" data-name="Ellipse 406" cx="1" cy="1" r="1" transform="translate(9 6)" fill="var(--anatomy-gray-700)"/>
        <circle id="Ellipse_407-3" data-name="Ellipse 407" cx="1" cy="1" r="1" transform="translate(9 3)" fill="var(--anatomy-gray-700)"/>
      </g>
    </g>
    <g id="Decorative_icon-4" data-name="Decorative icon" transform="translate(344 267)">
      <rect id="Placement_Area-9" data-name="Placement Area" width="18" height="18" fill="red" opacity="0"/>
      <g id="Icon-4" data-name="Icon">
        <rect id="Canvas-4" data-name="Canvas" width="18" height="18" fill="var(--anatomy-gray-700)" opacity="0"/>
        <circle id="Ellipse_400-4" data-name="Ellipse 400" cx="1" cy="1" r="1" transform="translate(6 12)" fill="var(--anatomy-gray-700)"/>
        <circle id="Ellipse_401-4" data-name="Ellipse 401" cx="1" cy="1" r="1" transform="translate(6 9)" fill="var(--anatomy-gray-700)"/>
        <circle id="Ellipse_402-4" data-name="Ellipse 402" cx="1" cy="1" r="1" transform="translate(6 6)" fill="var(--anatomy-gray-700)"/>
        <circle id="Ellipse_403-4" data-name="Ellipse 403" cx="1" cy="1" r="1" transform="translate(6 3)" fill="var(--anatomy-gray-700)"/>
        <circle id="Ellipse_404-4" data-name="Ellipse 404" cx="1" cy="1" r="1" transform="translate(9 12)" fill="var(--anatomy-gray-700)"/>
        <circle id="Ellipse_405-4" data-name="Ellipse 405" cx="1" cy="1" r="1" transform="translate(9 9)" fill="var(--anatomy-gray-700)"/>
        <circle id="Ellipse_406-4" data-name="Ellipse 406" cx="1" cy="1" r="1" transform="translate(9 6)" fill="var(--anatomy-gray-700)"/>
        <circle id="Ellipse_407-4" data-name="Ellipse 407" cx="1" cy="1" r="1" transform="translate(9 3)" fill="var(--anatomy-gray-700)"/>
      </g>
    </g>
    <g id="Group_4019" data-name="Group 4019" transform="translate(-16 570.5)">
      <text id="Selection_checkbox" data-name="Selection
checkbox" transform="translate(330 -344.5)" fill="var(--anatomy-gray-700)" font-size="13" font-family="Adobe-Clean" font-style="italic"><tspan x="-45.305" y="0">Selection</tspan><tspan x="-46.865" y="16">checkbox</tspan></text>
      <g id="Group_16618" data-name="Group 16618" transform="translate(22.5 -707) rotate(90)">
        <g id="Group_16617" data-name="Group 16617">
          <path id="Union_53" data-name="Union 53" d="M-8599-571.5v-44.05a2.5,2.5,0,0,1-2-2.45,2.5,2.5,0,0,1,2.5-2.5,2.5,2.5,0,0,1,2.5,2.5,2.5,2.5,0,0,1-2,2.45v44.05Z" transform="translate(8963.5 259)" fill="var(--anatomy-gray-500)"/>
        </g>
      </g>
    </g>
    <g id="Group_16621" data-name="Group 16621" transform="translate(-31 523.5)">
      <text id="Drag_button" data-name="Drag
button" transform="translate(345 -344.5)" fill="var(--anatomy-gray-700)" font-size="13" font-family="Adobe-Clean" font-style="italic"><tspan x="-25.298" y="0">Drag</tspan><tspan x="-33.111" y="16">button</tspan></text>
      <g id="Group_16618-2" data-name="Group 16618" transform="translate(22.5 -707) rotate(90)">
        <g id="Group_16617-2" data-name="Group 16617" transform="translate(362.5 -361.499)">
          <path id="Union_53-2" data-name="Union 53" d="M2,34V4.95a2.5,2.5,0,1,1,1,0V34Z" transform="translate(0 -0.001)" fill="var(--anatomy-gray-500)"/>
        </g>
      </g>
    </g>
    <rect id="rectangle-34-3" data-name="rectangle-34" width="2" height="32" transform="translate(563.5 80)" fill="var(--anatomy-gray-600)"/>
    <rect id="rectangle-34-4" data-name="rectangle-34" width="298" height="1" transform="translate(343 252)" fill="var(--anatomy-gray-600)"/>
    <rect id="rectangle-34-5" data-name="rectangle-34" width="298" height="1" transform="translate(343 205)" fill="var(--anatomy-gray-600)"/>
    <g id="Group_16603" data-name="Group 16603" transform="translate(152 404)">
      <text id="Column_resizer" data-name="Column
resizer" transform="translate(412 -355)" fill="var(--anatomy-gray-700)" font-size="13" font-family="Adobe-Clean" font-style="italic"><tspan x="-19.858" y="0">Column</tspan><tspan x="-16.257" y="15">resizer</tspan></text>
      <path id="Union_49-2" data-name="Union 49" d="M-8556-276.5a2.5,2.5,0,0,1,2-2.45V-289h1v10.05a2.5,2.5,0,0,1,2,2.449,2.5,2.5,0,0,1-2.5,2.5A2.5,2.5,0,0,1-8556-276.5Z" transform="translate(8966 -46)" fill="var(--anatomy-gray-500)"/>
    </g>
  </g>
</svg>
