<svg xmlns="http://www.w3.org/2000/svg" width="160" height="160" fill="none" viewBox="0 0 160 160">
  <defs>
    <linearGradient id="e" x1="110.949" x2="30.77" y1="6.323" y2="110.278" gradientUnits="userSpaceOnUse">
      <stop stop-color="#FF4885"/>
      <stop offset="1" stop-color="#FF4885" stop-opacity="0"/>
    </linearGradient>
    <linearGradient id="f" x1="62.101" x2="77.568" y1="-41.534" y2="57.456" gradientUnits="userSpaceOnUse">
      <stop offset=".156" stop-color="#7A6AFD"/>
      <stop offset="1" stop-color="#7A6AFD" stop-opacity="0"/>
    </linearGradient>
    <linearGradient id="g" x1="-116.368" x2="143.876" y1="157.481" y2="106.047" gradientUnits="userSpaceOnUse">
      <stop stop-color="#30A7FE" stop-opacity="0"/>
      <stop offset=".432" stop-color="#30A7FE" stop-opacity=".995"/>
      <stop offset=".609" stop-color="#30A7FE"/>
      <stop offset="1" stop-color="#30A7FE" stop-opacity="0"/>
    </linearGradient>
    <clipPath id="a">
      <rect width="138.449" height="138.449" x="10.775" y="10.775" fill="#fff" rx="10"/>
    </clipPath>
    <clipPath id="c">
      <rect width="138.449" height="138.449" x="10.775" y="10.775" fill="#fff" rx="10"/>
    </clipPath>
    <radialGradient id="d" cx="0" cy="0" r="1" gradientTransform="rotate(90 16.196 117.99) scale(199.896)" gradientUnits="userSpaceOnUse">
      <stop offset=".089" stop-color="#EB1000"/>
      <stop offset="1" stop-color="#EB1000" stop-opacity="0"/>
    </radialGradient>
  </defs>
  <mask id="b" width="160" height="160" x="0" y="0" maskUnits="userSpaceOnUse" style="mask-type:luminance">
    <path fill="#fff" d="M122.955 102.887c-5.293-8.32-10.748-19.933-11.154-32.867V59.93h-.004c.001-.043.004-.086.004-.13 0-17.562-14.238-31.8-31.802-31.8-17.563 0-31.8 14.238-31.8 31.801 0 .044.002.087.003.13h-.004V70.02c-.406 12.934-5.86 24.547-11.154 32.867C33.43 108.57 37.474 116 44.21 116H68v4c0 6.627 5.372 12 12 12 6.627 0 12-5.373 12-12v-4h23.789c6.736 0 10.781-7.43 7.166-13.113Z"/>
  </mask>
  <g clip-path="url(#a)" mask="url(#b)">
    <g clip-path="url(#c)">
      <rect width="138.449" height="138.449" x="10.775" y="10.775" fill="#D9F4FD" rx="10"/>
      <circle cx="134.186" cy="101.794" r="199.896" fill="url(#d)"/>
      <path fill="url(#e)" d="M-1.686 54.139c-2.222-47.855 34.77-88.45 82.624-90.671 47.854-2.223 88.449 34.77 90.671 82.624 2.222 47.854-34.77 88.449-82.624 90.671-47.854 2.222-88.45-34.77-90.671-82.625Z"/>
      <path fill="url(#f)" d="M45.75-85.028a33.748 33.748 0 0 0-35.308-.105L-97.93-18.964c-10.614 6.48-10.631 21.777-.032 28.282L9.694 75.394a33.748 33.748 0 0 0 35.307-.024L152.436 9.233c10.543-6.492 10.563-21.703.032-28.218L45.751-85.028Z"/>
      <path fill="url(#g)" d="M-58.245 76.996c22.338 0 42.571 9.04 57.22 23.625 29.3 29.22 53.59 29.245 82.889.075 14.65-14.66 34.908-23.725 57.271-23.725 44.699.025 80.91 36.137 80.91 80.715s-36.211 80.665-80.91 80.665c-22.413 0-42.672-9.09-57.321-23.75-29.274-29.119-53.54-29.094-82.838.125-14.65 14.61-34.883 23.625-57.22 23.625-44.675 0-80.886-36.112-80.886-80.665 0-44.553 36.211-80.69 80.885-80.69Z"/>
    </g>
  </g>
</svg>
