<svg xmlns="http://www.w3.org/2000/svg" width="160" height="160" fill="none" viewBox="0 0 160 160">
  <defs>
    <linearGradient id="e" x1="109.278" x2="41.839" y1="16.892" y2="109.646" gradientUnits="userSpaceOnUse">
      <stop stop-color="#FF4885"/>
      <stop offset="1" stop-color="#FF4885" stop-opacity="0"/>
    </linearGradient>
    <linearGradient id="f" x1="64.963" x2="77.465" y1="-24.034" y2="60.846" gradientUnits="userSpaceOnUse">
      <stop offset=".156" stop-color="#7A6AFD"/>
      <stop offset="1" stop-color="#7A6AFD" stop-opacity="0"/>
    </linearGradient>
    <linearGradient id="g" x1="-96.942" x2="138.042" y1="146.16" y2="96.895" gradientUnits="userSpaceOnUse">
      <stop stop-color="#30A7FE" stop-opacity="0"/>
      <stop offset=".432" stop-color="#30A7FE" stop-opacity=".995"/>
      <stop offset=".609" stop-color="#30A7FE"/>
      <stop offset="1" stop-color="#30A7FE" stop-opacity="0"/>
    </linearGradient>
    <clipPath id="a">
      <rect width="125.6" height="118.4" x="18.4" y="20.7" fill="#fff" rx="10"/>
    </clipPath>
    <clipPath id="c">
      <rect width="125.6" height="118.4" x="18.4" y="20.7" fill="#fff" rx="10"/>
    </clipPath>
    <radialGradient id="d" cx="0" cy="0" r="1" gradientTransform="scale(181.344 170.948) rotate(90 .071 .648)" gradientUnits="userSpaceOnUse">
      <stop offset=".089" stop-color="#EB1000"/>
      <stop offset="1" stop-color="#EB1000" stop-opacity="0"/>
    </radialGradient>
  </defs>
  <mask id="b" width="108" height="118" x="26" y="21" maskUnits="userSpaceOnUse" style="mask-type:luminance">
    <path fill="#fff" fill-rule="evenodd" stroke="#fff" stroke-linecap="round" stroke-linejoin="round" stroke-width="2" d="M35.353 89.552c-11.138 11.083-11.137 29.061 0 40.144 11.127 11.072 29.16 11.072 40.287 0l45.068-44.847a4 4 0 1 0-5.642-5.67l-45.07 44.846c-8.005 7.967-20.994 7.967-29 0-7.995-7.956-7.995-20.846 0-28.802l61.724-61.42c5.097-5.07 13.369-5.07 18.466 0a12.906 12.906 0 0 1 0 18.32L65.86 107.175a5.478 5.478 0 0 1-7.715 0 5.366 5.366 0 0 1 0-7.621l38.67-38.48a4 4 0 0 0-5.642-5.67l-38.67 38.48c-5.26 5.233-5.26 13.728 0 18.962 5.248 5.223 13.751 5.223 19 0l55.325-55.053c8.229-8.188 8.229-21.472 0-29.66-8.217-8.177-21.533-8.177-29.751 0l-61.724 61.42Z" clip-rule="evenodd"/>
  </mask>
  <g clip-path="url(#a)" mask="url(#b)">
    <g clip-path="url(#c)">
      <rect width="125.6" height="118.4" x="18.4" y="20.7" fill="#D9F4FD" rx="10"/>
      <ellipse cx="130.358" cy="98.538" fill="url(#d)" rx="181.344" ry="170.948"/>
      <path fill="url(#e)" d="M7.096 57.784C5.08 16.86 38.639-17.856 82.052-19.756c43.413-1.901 80.24 29.734 82.256 70.658 2.016 40.924-31.543 75.64-74.956 77.541-43.413 1.9-80.24-29.735-82.256-70.66Z"/>
      <path fill="url(#f)" d="M50.13-61.23c-9.793-5.712-22.201-5.747-32.031-.09L-80.216-4.733c-9.629 5.542-9.645 18.624-.03 24.187L17.42 75.96c9.815 5.677 22.223 5.67 32.03-.02l97.464-56.56c9.565-5.551 9.583-18.56.03-24.132L50.13-61.229Z"/>
      <path fill="url(#g)" d="M-44.213 77.331c20.264 0 38.62 7.732 51.91 20.204 26.58 24.988 48.615 25.009 75.195.064 13.29-12.536 31.668-20.29 51.955-20.29 40.551.022 73.401 30.905 73.401 69.027 0 38.123-32.85 68.984-73.401 68.984-20.332 0-38.71-7.774-52-20.311-26.557-24.902-48.57-24.881-75.15.107-13.29 12.494-31.646 20.204-51.91 20.204-40.529 0-73.378-30.883-73.378-68.984s32.85-69.005 73.378-69.005Z"/>
    </g>
  </g>
</svg>
