<svg xmlns="http://www.w3.org/2000/svg" width="160" height="160" fill="none" viewBox="0 0 160 160">
  <defs>
    <linearGradient id="e" x1="-18.922" x2="187.085" y1="132.357" y2="-.598" gradientUnits="userSpaceOnUse">
      <stop offset=".06" stop-color="#8480FE"/>
      <stop offset=".6" stop-color="#8480FE" stop-opacity="0"/>
    </linearGradient>
    <linearGradient id="f" x1="151.996" x2="66.381" y1="44.747" y2="142.405" gradientUnits="userSpaceOnUse">
      <stop stop-color="#EB1000"/>
      <stop offset="1" stop-color="#EB1000" stop-opacity="0"/>
    </linearGradient>
    <linearGradient id="g" x1="40.96" x2="198.224" y1="150.144" y2="56.689" gradientUnits="userSpaceOnUse">
      <stop stop-color="#FC7D00" stop-opacity="0"/>
      <stop offset=".432" stop-color="#FC7D00"/>
      <stop offset=".609" stop-color="#FC7D00"/>
      <stop offset="1" stop-color="#FC7D00" stop-opacity="0"/>
    </linearGradient>
    <radialGradient id="d" cx="0" cy="0" r="1" gradientTransform="scale(56.9923 53.7253) rotate(90 0 1)" gradientUnits="userSpaceOnUse">
      <stop offset=".167" stop-color="#FF709F"/>
      <stop offset="1" stop-color="#FF709F" stop-opacity="0"/>
    </radialGradient>
    <radialGradient id="h" cx="0" cy="0" r="1" gradientTransform="scale(56.9923 53.7253) rotate(90 0 1)" gradientUnits="userSpaceOnUse">
      <stop offset=".167" stop-color="#EB1000"/>
      <stop offset="1" stop-color="#EB1000" stop-opacity="0"/>
    </radialGradient>
    <clipPath id="a">
      <rect width="131" height="123.491" x="14" y="22" fill="#fff" rx="3.461"/>
    </clipPath>
    <clipPath id="c">
      <path fill="#fff" d="M14 22h131v123.491H14z"/>
    </clipPath>
  </defs>
  <mask id="b" width="118" height="118" x="21" y="21" maskUnits="userSpaceOnUse" style="mask-type:luminance">
    <path fill="#fff" fill-rule="evenodd" d="M90.31 21.68h31.97c8.837 0 16 7.163 16 16v31.97c0 8.837-7.163 16-16 16H90.31c-8.837 0-16-7.163-16-16V37.68c0-8.837 7.163-16 16-16ZM35.72 41.14h16.52c7.732 0 14 6.268 14 14v16.52c0 7.732-6.268 14-14 14H35.72c-7.732 0-14-6.268-14-14V55.14c0-7.732 6.268-14 14-14ZM52.24 93.8H35.72c-7.732 0-14 6.268-14 14v16.52c0 7.732 6.268 14 14 14h16.52c7.732 0 14-6.268 14-14V107.8c0-7.732-6.268-14-14-14Zm36.07 0h16.52c7.732 0 14 6.268 14 14v16.52c0 7.732-6.268 14-14 14H88.31c-7.732 0-14-6.268-14-14V107.8c0-7.732 6.268-14 14-14Z" clip-rule="evenodd"/>
  </mask>
  <g clip-path="url(#a)" mask="url(#b)">
    <rect width="131" height="123.491" x="14" y="22" fill="#FFECCF" rx="3.461"/>
    <g clip-path="url(#c)">
      <path fill="#FFECCF" d="M14 22h131v123.491H14z"/>
      <ellipse cx="56.992" cy="53.725" fill="url(#d)" rx="56.992" ry="53.725" transform="matrix(1 0 .00016 1 31 -26.86)"/>
      <path fill="url(#e)" d="M64 .186C53.94-5.683 41.193-5.719 31.094.093L-69.904 58.225c-9.891 5.694-9.908 19.132-.03 24.847l100.332 58.049c10.083 5.833 22.83 5.826 32.904-.02l100.126-58.104c9.825-5.703 9.843-19.066.029-24.79L64 .186Z"/>
      <path fill="url(#f)" d="M32.879 80.63c2.239-46.102 43.7-81.765 92.607-79.654 48.906 2.11 86.737 41.195 84.498 87.298-2.239 46.103-43.7 81.766-92.606 79.655-48.907-2.111-86.738-41.196-84.499-87.298Z"/>
      <path fill="url(#g)" d="M-39.074 111.029c19.44-7.818 40.407-7.483 58.571-.645 36.348 13.718 57.497 5.237 72.167-28.949 7.306-17.154 21.572-31.682 41.034-39.509 38.912-15.624 83.834 1.33 100.385 37.902 16.551 36.573-1.565 78.853-40.468 94.497-19.505 7.845-40.512 7.477-58.704.578-36.289-13.645-57.398-5.131-72.049 29.095-7.325 17.113-21.587 31.592-41.028 39.41-38.88 15.636-83.802-1.318-100.344-37.87-16.542-36.552 1.556-78.873 40.436-94.509Z"/>
      <ellipse cx="56.992" cy="53.725" fill="url(#h)" rx="56.992" ry="53.725" transform="matrix(1 0 .00016 1 80.293 -9.34)"/>
    </g>
  </g>
</svg>
