<svg xmlns="http://www.w3.org/2000/svg" width="160" height="160" fill="none" viewBox="0 0 160 160">
  <defs>
    <linearGradient id="e" x1="-19.922" x2="186.085" y1="131.011" y2="-1.943" gradientUnits="userSpaceOnUse">
      <stop offset=".06" stop-color="#8480FE"/>
      <stop offset=".6" stop-color="#8480FE" stop-opacity="0"/>
    </linearGradient>
    <linearGradient id="f" x1="150.996" x2="65.381" y1="43.401" y2="141.06" gradientUnits="userSpaceOnUse">
      <stop stop-color="#EB1000"/>
      <stop offset="1" stop-color="#EB1000" stop-opacity="0"/>
    </linearGradient>
    <linearGradient id="g" x1="39.96" x2="197.224" y1="148.798" y2="55.344" gradientUnits="userSpaceOnUse">
      <stop stop-color="#FC7D00" stop-opacity="0"/>
      <stop offset=".432" stop-color="#FC7D00"/>
      <stop offset=".609" stop-color="#FC7D00"/>
      <stop offset="1" stop-color="#FC7D00" stop-opacity="0"/>
    </linearGradient>
    <radialGradient id="d" cx="0" cy="0" r="1" gradientTransform="scale(56.9923 53.7253) rotate(90 0 1)" gradientUnits="userSpaceOnUse">
      <stop offset=".167" stop-color="#FF709F"/>
      <stop offset="1" stop-color="#FF709F" stop-opacity="0"/>
    </radialGradient>
    <radialGradient id="h" cx="0" cy="0" r="1" gradientTransform="scale(56.9923 53.7253) rotate(90 0 1)" gradientUnits="userSpaceOnUse">
      <stop offset=".167" stop-color="#EB1000"/>
      <stop offset="1" stop-color="#EB1000" stop-opacity="0"/>
    </radialGradient>
    <clipPath id="a">
      <rect width="131" height="123.491" x="13" y="20.654" fill="#fff" rx="3.461"/>
    </clipPath>
    <clipPath id="c">
      <path fill="#fff" d="M13 20.654h131v123.491H13z"/>
    </clipPath>
  </defs>
  <mask id="b" width="120" height="110" x="20" y="25" maskUnits="userSpaceOnUse" style="mask-type:luminance">
    <path fill="#fff" fill-rule="evenodd" d="M116.85 50.45c0 13.531-10.298 24.5-23 24.5-12.703 0-23-10.969-23-24.5s10.297-24.5 23-24.5c12.702 0 23 10.969 23 24.5ZM72.59 74.08c-2.04.63-4.2.98-6.44.98-12.7 0-23-10.97-23-24.5s10.3-24.5 23-24.5c2.17 0 4.28.33 6.27.93-5.9 5.92-9.58 14.16-9.58 23.46s3.75 17.7 9.75 23.63Zm-32.52 48.39c3.25-15.09 12.65-27.7 25.19-35.4-22.04.42-40.58 16.32-45.07 37.19-1.08 5.02 2.67 9.78 7.81 9.78h13.94a16.02 16.02 0 0 1-1.87-11.57Zm53.77-35.52c22.43 0 41.41 16.06 45.96 37.21 1.08 5.02-2.67 9.78-7.81 9.78h-76.3c-5.14 0-8.89-4.76-7.81-9.78 4.55-21.15 23.53-37.21 45.96-37.21Z" clip-rule="evenodd"/>
  </mask>
  <g clip-path="url(#a)" mask="url(#b)">
    <rect width="131" height="123.491" x="13" y="20.654" fill="#FFECCF" rx="3.461"/>
    <g clip-path="url(#c)">
      <path fill="#FFECCF" d="M13 20.654h131v123.491H13z"/>
      <ellipse cx="56.992" cy="53.725" fill="url(#d)" rx="56.992" ry="53.725" transform="matrix(1 0 .00016 1 30 -28.206)"/>
      <path fill="url(#e)" d="M63-1.16c-10.06-5.868-22.807-5.904-32.905-.092l-101 58.132c-9.891 5.693-9.908 19.132-.03 24.846l100.332 58.05c10.083 5.833 22.83 5.826 32.904-.021l100.126-58.104c9.825-5.702 9.843-19.066.029-24.79L63-1.159Z"/>
      <path fill="url(#f)" d="M31.879 79.285c2.239-46.102 43.7-81.765 92.607-79.654 48.906 2.11 86.737 41.195 84.498 87.298-2.239 46.102-43.7 81.765-92.606 79.654-48.907-2.11-86.738-41.195-84.499-87.298Z"/>
      <path fill="url(#g)" d="M-40.074 109.683c19.44-7.818 40.407-7.482 58.571-.644 36.348 13.717 57.497 5.236 72.167-28.95 7.306-17.154 21.572-31.682 41.034-39.508 38.912-15.625 83.834 1.329 100.385 37.901 16.551 36.573-1.565 78.853-40.468 94.498-19.505 7.844-40.512 7.477-58.704.577-36.289-13.644-57.398-5.131-72.049 29.096-7.325 17.113-21.587 31.591-41.028 39.409-38.88 15.636-83.802-1.317-100.344-37.869-16.542-36.553 1.556-78.874 40.436-94.51Z"/>
      <ellipse cx="56.992" cy="53.725" fill="url(#h)" rx="56.992" ry="53.725" transform="matrix(1 0 .00016 1 79.293 -10.685)"/>
    </g>
  </g>
</svg>
