<svg xmlns="http://www.w3.org/2000/svg" width="160" height="160" fill="none" viewBox="0 0 160 160">
  <defs>
    <linearGradient id="e" x1="-19.7" x2="191.494" y1="128.135" y2="-8.167" gradientUnits="userSpaceOnUse">
      <stop offset=".06" stop-color="#8480FE"/>
      <stop offset=".6" stop-color="#8480FE" stop-opacity="0"/>
    </linearGradient>
    <linearGradient id="f" x1="155.521" x2="67.751" y1="38.319" y2="138.437" gradientUnits="userSpaceOnUse">
      <stop stop-color="#EB1000"/>
      <stop offset="1" stop-color="#EB1000" stop-opacity="0"/>
    </linearGradient>
    <linearGradient id="g" x1="41.69" x2="202.913" y1="146.37" y2="50.563" gradientUnits="userSpaceOnUse">
      <stop stop-color="#FC7D00" stop-opacity="0"/>
      <stop offset=".432" stop-color="#FC7D00"/>
      <stop offset=".609" stop-color="#FC7D00"/>
      <stop offset="1" stop-color="#FC7D00" stop-opacity="0"/>
    </linearGradient>
    <radialGradient id="d" cx="0" cy="0" r="1" gradientTransform="matrix(0 55.0779 -58.4272 0 58.427 55.078)" gradientUnits="userSpaceOnUse">
      <stop offset=".167" stop-color="#FF709F"/>
      <stop offset="1" stop-color="#FF709F" stop-opacity="0"/>
    </radialGradient>
    <radialGradient id="h" cx="0" cy="0" r="1" gradientTransform="matrix(0 55.0779 -58.4272 0 58.427 55.078)" gradientUnits="userSpaceOnUse">
      <stop offset=".167" stop-color="#EB1000"/>
      <stop offset="1" stop-color="#EB1000" stop-opacity="0"/>
    </radialGradient>
    <clipPath id="a">
      <rect width="134.299" height="126.6" x="14.051" y="15" fill="#fff" rx="3.461"/>
    </clipPath>
    <clipPath id="c">
      <path fill="#fff" d="M14.051 15H148.35v126.6H14.051z"/>
    </clipPath>
  </defs>
  <mask id="b" width="122" height="122" x="19" y="19" maskUnits="userSpaceOnUse" style="mask-type:luminance">
    <path fill="#fff" stroke="#fff" stroke-width="2" d="M80 20c33.08 0 60 26.92 60 60s-26.92 60-60 60-60-26.92-60-60 26.92-60 60-60Zm52 60c0-28.67-23.33-52-52-52-12.9 0-24.71 4.73-33.81 12.54l73.27 73.27C127.27 104.71 132 92.9 132 80Zm-52 52c12.9 0 24.71-4.73 33.81-12.54L40.54 46.19C32.73 55.29 28 67.1 28 80c0 28.67 23.33 52 52 52Z"/>
  </mask>
  <g clip-path="url(#a)" mask="url(#b)">
    <rect width="134.299" height="126.6" x="14.051" y="15" fill="#FFECCF" rx="3.461"/>
    <g clip-path="url(#c)">
      <path fill="#FFECCF" d="M14.051 15H148.35v126.6H14.051z"/>
      <ellipse cx="58.427" cy="55.078" fill="url(#d)" rx="58.427" ry="55.078" transform="matrix(1 0 .00016 1 31.478 -35.09)"/>
      <path fill="url(#e)" d="M65.31-7.363c-10.314-6.017-23.382-6.053-33.734-.095L-71.966 52.137c-10.141 5.837-10.158 19.614-.031 25.473L30.86 137.12c10.337 5.98 23.405 5.973 33.732-.021L167.24 77.533c10.074-5.847 10.092-19.547.031-25.415L65.31-7.363Z"/>
      <path fill="url(#f)" d="M33.405 75.107c2.296-47.264 44.801-83.824 94.939-81.66 50.137 2.164 88.921 42.232 86.626 89.496-2.296 47.263-44.801 83.824-94.939 81.66-50.137-2.164-88.921-42.233-86.626-89.496Z"/>
      <path fill="url(#g)" d="M-40.36 106.27c19.93-8.014 41.425-7.67 60.046-.66 37.263 14.062 58.945 5.368 73.984-29.679 7.49-17.586 22.115-32.48 42.067-40.503 39.892-16.018 85.945 1.362 102.912 38.856 16.968 37.493-1.604 80.838-41.486 96.876-19.997 8.042-41.532 7.666-60.182.592-37.203-13.988-58.843-5.26-73.863 29.828-7.51 17.544-22.131 32.387-42.06 40.402-39.86 16.03-85.913-1.351-102.871-38.823-16.959-37.473 1.594-80.859 41.454-96.889Z"/>
      <ellipse cx="58.427" cy="55.078" fill="url(#h)" rx="58.427" ry="55.078" transform="matrix(1 0 .00016 1 82.013 -17.129)"/>
    </g>
  </g>
</svg>
