<svg xmlns="http://www.w3.org/2000/svg" width="160" height="160" fill="none" viewBox="0 0 160 160">
  <defs>
    <linearGradient id="e" x1="-14.672" x2="192.278" y1="131.234" y2="-2.329" gradientUnits="userSpaceOnUse">
      <stop offset=".06" stop-color="#8480FE"/>
      <stop offset=".6" stop-color="#8480FE" stop-opacity="0"/>
    </linearGradient>
    <linearGradient id="f" x1="157.028" x2="71.021" y1="43.223" y2="141.328" gradientUnits="userSpaceOnUse">
      <stop stop-color="#EB1000"/>
      <stop offset="1" stop-color="#EB1000" stop-opacity="0"/>
    </linearGradient>
    <linearGradient id="g" x1="45.483" x2="203.467" y1="149.102" y2="55.22" gradientUnits="userSpaceOnUse">
      <stop stop-color="#FC7D00" stop-opacity="0"/>
      <stop offset=".432" stop-color="#FC7D00"/>
      <stop offset=".609" stop-color="#FC7D00"/>
      <stop offset="1" stop-color="#FC7D00" stop-opacity="0"/>
    </linearGradient>
    <radialGradient id="d" cx="0" cy="0" r="1" gradientTransform="matrix(0 53.971 -57.253 0 57.253 53.971)" gradientUnits="userSpaceOnUse">
      <stop offset=".167" stop-color="#FF709F"/>
      <stop offset="1" stop-color="#FF709F" stop-opacity="0"/>
    </radialGradient>
    <radialGradient id="h" cx="0" cy="0" r="1" gradientTransform="matrix(0 53.971 -57.253 0 57.253 53.971)" gradientUnits="userSpaceOnUse">
      <stop offset=".167" stop-color="#EB1000"/>
      <stop offset="1" stop-color="#EB1000" stop-opacity="0"/>
    </radialGradient>
    <clipPath id="a">
      <rect width="131.6" height="124.056" x="18.4" y="20.372" fill="#fff" rx="3.461"/>
    </clipPath>
    <clipPath id="c">
      <path fill="#fff" d="M18.4 20.372H150v124.056H18.4z"/>
    </clipPath>
  </defs>
  <mask id="b" width="126" height="100" x="19" y="32" maskUnits="userSpaceOnUse" style="mask-type:luminance">
    <path fill="#fff" fill-rule="evenodd" d="M125.43 48.47v49c0 8.84-7.16 16-16 16h-74c-8.84 0-16-7.16-16-16v-49c0-8.84 7.16-16 16-16h74c8.84 0 16 7.16 16 16Zm-14.04 6.88c0-4.82-3.91-8.73-8.73-8.73s-8.73 3.91-8.73 8.73 3.91 8.73 8.73 8.73 8.73-3.91 8.73-8.73ZM28.98 96.22c-2.56 3.99.3 9.24 5.05 9.24v-.01h76.18c4.75 0 7.61-5.25 5.05-9.24l-11.78-18.35c-2.36-3.68-7.74-3.68-10.1 0L80.02 98.68 58.76 65.56c-2.36-3.68-7.74-3.68-10.1 0L28.98 96.22Zm107.59-29.73c0-2.21 1.79-4 4-4h.01c2.21 0 4 1.79 4 4v41.05c0 13.23-10.77 24-24 24l-65.94-.05c-2.21 0-4-1.79-4-4s1.79-4 4-4l65.93.05c8.82 0 16-7.18 16-16V66.49Z" clip-rule="evenodd"/>
  </mask>
  <g clip-path="url(#a)" mask="url(#b)">
    <rect width="131.6" height="124.056" x="18.4" y="20.372" fill="#FFECCF" rx="3.461"/>
    <g clip-path="url(#c)">
      <path fill="#FFECCF" d="M18.4 20.372H150v124.056H18.4z"/>
      <ellipse cx="57.253" cy="53.971" fill="url(#d)" rx="57.253" ry="53.971" transform="matrix(1 0 .00016 1 35.477 -28.712)"/>
      <path fill="url(#e)" d="M68.63-1.542c-10.107-5.895-22.913-5.931-33.057-.093L-65.888 56.763c-9.937 5.72-9.953 19.22-.03 24.96l100.79 58.315c10.13 5.86 22.935 5.853 33.055-.02l100.583-58.37c9.871-5.729 9.889-19.153.031-24.904L68.629-1.54Z"/>
      <path fill="url(#f)" d="M37.366 79.271c2.25-46.314 43.9-82.14 93.03-80.019 49.13 2.12 87.135 41.384 84.885 87.698-2.249 46.313-43.9 82.139-93.03 80.019-49.13-2.121-87.134-41.384-84.885-87.698Z"/>
      <path fill="url(#g)" d="M-34.917 109.808c19.53-7.854 40.592-7.517 58.84-.647 36.513 13.78 57.76 5.26 72.496-29.082 7.34-17.233 21.671-31.827 41.222-39.69 39.09-15.695 84.217 1.335 100.844 38.075 16.626 36.741-1.572 79.214-40.653 94.93-19.595 7.88-40.697 7.511-58.973.58-36.455-13.707-57.66-5.154-72.378 29.229-7.359 17.191-21.686 31.736-41.215 39.59-39.059 15.707-84.186-1.324-100.804-38.043-16.617-36.72 1.563-79.234 40.621-94.942Z"/>
      <ellipse cx="57.253" cy="53.971" fill="url(#h)" rx="57.253" ry="53.971" transform="matrix(1 0 .00016 1 84.997 -11.111)"/>
    </g>
  </g>
</svg>
