<svg xmlns="http://www.w3.org/2000/svg" width="160" height="160" fill="none" viewBox="0 0 160 160">
  <defs>
    <linearGradient id="e" x1="112.883" x2="36.786" y1="3.703" y2="108.365" gradientUnits="userSpaceOnUse">
      <stop stop-color="#FF4885"/>
      <stop offset="1" stop-color="#FF4885" stop-opacity="0"/>
    </linearGradient>
    <linearGradient id="f" x1="62.879" x2="76.986" y1="-42.477" y2="53.3" gradientUnits="userSpaceOnUse">
      <stop offset=".156" stop-color="#7A6AFD"/>
      <stop offset="1" stop-color="#7A6AFD" stop-opacity="0"/>
    </linearGradient>
    <linearGradient id="g" x1="-119.812" x2="145.339" y1="149.567" y2="93.977" gradientUnits="userSpaceOnUse">
      <stop stop-color="#30A7FE" stop-opacity="0"/>
      <stop offset=".432" stop-color="#30A7FE" stop-opacity=".995"/>
      <stop offset=".609" stop-color="#30A7FE"/>
      <stop offset="1" stop-color="#30A7FE" stop-opacity="0"/>
    </linearGradient>
    <clipPath id="a">
      <rect width="141.724" height="133.6" x="10.338" y="8" fill="#fff" rx="10"/>
    </clipPath>
    <clipPath id="c">
      <rect width="141.724" height="133.6" x="10.338" y="8" fill="#fff" rx="10"/>
    </clipPath>
    <radialGradient id="d" cx="0" cy="0" r="1" gradientTransform="matrix(0 192.894 -204.624 0 136.669 95.83)" gradientUnits="userSpaceOnUse">
      <stop offset=".089" stop-color="#EB1000"/>
      <stop offset="1" stop-color="#EB1000" stop-opacity="0"/>
    </radialGradient>
  </defs>
  <mask id="b" width="138" height="123" x="11" y="19" maskUnits="userSpaceOnUse" style="mask-type:luminance">
    <path fill="#fff" fill-rule="evenodd" d="M140.119 41.9a4 4 0 0 1 5.38-1.75h.01a4 4 0 0 1 1.75 5.38l-10.98 21.57a4.003 4.003 0 0 1-3.57 2.19c-.57 0-1.14-.13-1.69-.38l-21.17-9.87c-2.01-.94-2.88-3.32-1.94-5.32.94-2 3.32-2.87 5.32-1.93l13.83 6.45c-8.49-18.05-26.99-29.96-47.11-29.96-22.97 0-43.5 15.38-49.93 37.4a4.002 4.002 0 0 1-4.96 2.72 4 4 0 0 1-2.72-4.96c7.42-25.41 31.11-43.16 57.61-43.16 22.93 0 44.03 13.4 53.98 33.79l6.19-12.17ZM129.8 94.89a4 4 0 0 1 4.96-2.72v.01a4 4 0 0 1 2.72 4.96c-7.42 25.41-31.11 43.16-57.61 43.16-22.82 0-43.83-13.28-53.84-33.51l-6.15 12.09a4.003 4.003 0 0 1-3.57 2.19c-.61 0-1.23-.14-1.81-.44a4 4 0 0 1-1.75-5.38l10.98-21.58a4.009 4.009 0 0 1 5.26-1.81l21.17 9.87c2.01.94 2.87 3.32 1.94 5.32a4.01 4.01 0 0 1-5.32 1.93l-13.95-6.51c8.51 17.98 26.97 29.82 47.04 29.82 22.97 0 43.5-15.38 49.93-37.4Z" clip-rule="evenodd"/>
    <path fill="#fff" d="m145.499 40.15-.452.892.213.108h.239v-1Zm-5.38 1.75.892.453-.892-.453Zm5.39-1.75.453-.892-.214-.108h-.239v1Zm1.75 5.38.891.454.001-.001-.892-.453Zm-10.98 21.57.891.455v-.001l-.891-.454Zm-5.26 1.81-.422.906.008.004.414-.91Zm-21.17-9.87-.423.906h.001l.422-.906Zm3.38-7.25-.425.905.003.001.422-.906Zm13.83 6.45-.422.906 2.503 1.168-1.176-2.5-.905.426Zm-97.04 7.44-.96-.28.96.28Zm-4.96 2.72.285-.959h-.004l-.28.959Zm-2.72-4.96.96.28-.96-.28Zm111.59-9.37-.898.439.88 1.803.91-1.789-.892-.453Zm.831 38.1h1v-.75l-.719-.21-.281.96Zm-4.96 2.72-.96-.28.96.28Zm4.96-2.71h-1v.75l.719.21.281-.96Zm2.72 4.96-.96-.28.96.28Zm-111.45 9.65.896-.443-.884-1.787-.903 1.777.89.453Zm-6.15 12.09.89.455.001-.002-.891-.453Zm-5.38 1.75.46-.888-.008-.004-.452.892Zm-1.75-5.38-.891-.453.89.453Zm10.98-21.58-.89-.455-.001.001.89.454Zm5.26-1.81-.423.906.423-.906Zm21.17 9.87.424-.906h-.002l-.422.906Zm1.94 5.32.905.425.002-.003-.907-.422Zm-5.32 1.93-.423.906.001.001.422-.907Zm-13.95-6.51.423-.906-2.514-1.173 1.187 2.507.904-.428Zm113.122-63.212a5 5 0 0 0-6.724 2.19l1.783.905a3 3 0 0 1 4.036-1.311l.905-1.784Zm-.443-.108h-.01v2h.01v-2Zm2.642 6.833a5.001 5.001 0 0 0-2.189-6.725l-.905 1.784a3.002 3.002 0 0 1 1.311 4.035l1.783.906Zm-10.981 21.57 10.98-21.57-1.782-.907-10.98 21.57 1.782.908Zm-4.461 2.737c1.824 0 3.574-1 4.461-2.735l-1.781-.91a3.003 3.003 0 0 1-2.68 1.645v2Zm-2.104-.47c.669.305 1.38.47 2.104.47v-2a3.09 3.09 0 0 1-1.276-.29l-.828 1.82Zm-21.178-9.874 21.17 9.87.845-1.812-21.17-9.87-.845 1.812Zm-2.423-6.651c-1.177 2.505-.084 5.479 2.422 6.65l.847-1.81a2.998 2.998 0 0 1-1.459-3.99l-1.81-.85Zm6.651-2.41c-2.505-1.177-5.478-.085-6.651 2.41l1.81.85a3.002 3.002 0 0 1 3.99-1.45l.851-1.81Zm13.827 6.449-13.83-6.45-.845 1.812 13.83 6.45.845-1.812ZM79.949 29.28c19.729 0 37.879 11.683 46.205 29.386l1.81-.852c-8.653-18.397-27.503-30.534-48.015-30.534v2ZM30.98 65.96c6.305-21.592 26.444-36.68 48.97-36.68v-2c-23.413 0-44.335 15.672-50.89 38.12l1.92.56Zm-4.8 3.6c2.16 0 4.162-1.41 4.8-3.6l-1.92-.56a3.002 3.002 0 0 1-2.88 2.16v2Zm-1.405-.201c.47.14.946.201 1.405.201v-2a2.94 2.94 0 0 1-.835-.118l-.57 1.917Zm-3.395-6.2a5 5 0 0 0 3.4 6.2l.56-1.919a3 3 0 0 1-2.04-3.72l-1.92-.56ZM79.95 19.28c-26.944 0-51.025 18.043-58.57 43.88l1.92.56c7.295-24.983 30.594-42.44 56.65-42.44v-2Zm54.879 34.351C124.713 32.901 103.267 19.28 79.95 19.28v2c22.544 0 43.297 13.178 53.082 33.229l1.797-.878Zm4.4-12.184-6.19 12.17 1.783.906 6.19-12.17-1.783-.906Zm-4.187 49.763a5.001 5.001 0 0 0-6.201 3.4l1.92.56a3 3 0 0 1 3.719-2.04l.562-1.92Zm.719.97v-.01h-2v.01h2Zm2.68 5.24a5.001 5.001 0 0 0-3.399-6.2l-.562 1.92a3 3 0 0 1 2.041 3.72l1.92.56ZM79.87 141.3c26.944 0 51.025-18.043 58.57-43.88l-1.92-.56c-7.295 24.983-30.594 42.44-56.65 42.44v2Zm-54.736-34.067C35.31 127.8 56.664 141.3 79.87 141.3v-2c-22.435 0-43.1-13.06-52.944-32.953l-1.792.886Zm-4.363 12.1 6.15-12.09-1.782-.906-6.15 12.09 1.782.906Zm-4.461 2.737c1.824 0 3.574-1 4.46-2.735l-1.78-.91a3.002 3.002 0 0 1-2.68 1.645v2Zm-2.27-.552a4.93 4.93 0 0 0 2.27.552v-2c-.456 0-.918-.104-1.35-.328l-.92 1.776Zm-2.182-6.721a5.001 5.001 0 0 0 2.19 6.725l.905-1.784a3 3 0 0 1-1.311-4.035l-1.784-.906Zm10.98-21.58-10.98 21.58 1.783.906 10.98-21.58-1.782-.907Zm6.575-2.263a5.009 5.009 0 0 0-6.574 2.261l1.782.91a3.009 3.009 0 0 1 3.946-1.359l.846-1.812Zm21.17 9.87-21.17-9.87-.846 1.812 21.17 9.87.845-1.812Zm2.424 6.648a5.007 5.007 0 0 0-2.423-6.648l-.848 1.812a3.006 3.006 0 0 1 1.457 3.992l1.814.844Zm-6.649 2.415a5.01 5.01 0 0 0 6.647-2.412l-1.81-.85a3.011 3.011 0 0 1-3.993 1.448l-.844 1.814Zm-13.951-6.511 13.95 6.51.846-1.812-13.95-6.51-.846 1.812ZM79.87 131.29c-19.68 0-37.79-11.614-46.136-29.248l-1.808.856C40.6 121.224 59.41 133.29 79.87 133.29v-2Zm48.97-36.68c-6.305 21.592-26.444 36.68-48.97 36.68v2c23.413 0 44.335-15.672 50.89-38.12l-1.92-.56Z"/>
  </mask>
  <g clip-path="url(#a)" mask="url(#b)">
    <g clip-path="url(#c)">
      <rect width="141.724" height="133.6" x="10.338" y="8" fill="#D9F4FD" rx="10"/>
      <ellipse cx="136.669" cy="95.831" fill="url(#d)" rx="204.624" ry="192.894"/>
      <path fill="url(#e)" d="M-2.417 49.844C-4.692 3.666 33.175-35.505 82.16-37.65c48.986-2.144 90.541 33.553 92.816 79.73 2.275 46.178-35.592 85.351-84.579 87.496-48.986 2.144-90.54-33.552-92.815-79.73Z"/>
      <path fill="url(#f)" d="M46.142-84.447C35.09-90.893 21.09-90.933 9.998-84.55l-110.937 63.852c-10.864 6.253-10.883 21.014-.032 27.291L9.232 70.355c11.075 6.407 25.077 6.4 36.142-.023l109.977-63.82c10.792-6.264 10.812-20.943.033-27.23L46.142-84.448Z"/>
      <path fill="url(#g)" d="M-60.314 71.901c22.866 0 43.578 8.724 58.574 22.798 29.992 28.196 54.857 28.22 84.85.073 14.995-14.147 35.733-22.895 58.624-22.895 45.757.025 82.824 34.872 82.824 77.888 0 43.017-37.067 77.84-82.824 77.84-22.942 0-43.68-8.772-58.676-22.918-29.966-28.1-54.806-28.075-84.798.12-14.996 14.098-35.708 22.798-58.574 22.798-45.731 0-82.798-34.847-82.798-77.84 0-42.992 37.067-77.863 82.798-77.863Z"/>
    </g>
  </g>
</svg>
