<svg xmlns="http://www.w3.org/2000/svg" width="160" height="160" fill="none" viewBox="0 0 160 160">
  <defs>
    <linearGradient id="e" x1="111.796" x2="37.593" y1="11.537" y2="113.592" gradientUnits="userSpaceOnUse">
      <stop stop-color="#FF4885"/>
      <stop offset="1" stop-color="#FF4885" stop-opacity="0"/>
    </linearGradient>
    <linearGradient id="f" x1="63.037" x2="76.793" y1="-33.493" y2="59.898" gradientUnits="userSpaceOnUse">
      <stop offset=".156" stop-color="#7A6AFD"/>
      <stop offset="1" stop-color="#7A6AFD" stop-opacity="0"/>
    </linearGradient>
    <linearGradient id="g" x1="-115.104" x2="143.444" y1="153.768" y2="99.563" gradientUnits="userSpaceOnUse">
      <stop stop-color="#30A7FE" stop-opacity="0"/>
      <stop offset=".432" stop-color="#30A7FE" stop-opacity=".995"/>
      <stop offset=".609" stop-color="#30A7FE"/>
      <stop offset="1" stop-color="#30A7FE" stop-opacity="0"/>
    </linearGradient>
    <clipPath id="a">
      <rect width="138.195" height="130.273" x="11.805" y="15.727" fill="#fff" rx="10"/>
    </clipPath>
    <clipPath id="c">
      <rect width="138.195" height="130.273" x="11.805" y="15.727" fill="#fff" rx="10"/>
    </clipPath>
    <radialGradient id="d" cx="0" cy="0" r="1" gradientTransform="matrix(0 188.091 -199.529 0 135.081 101.381)" gradientUnits="userSpaceOnUse">
      <stop offset=".089" stop-color="#EB1000"/>
      <stop offset="1" stop-color="#EB1000" stop-opacity="0"/>
    </radialGradient>
  </defs>
  <mask id="b" width="134" height="97" x="13" y="39" maskUnits="userSpaceOnUse" style="mask-type:luminance">
    <path fill="#fff" fill-rule="evenodd" d="M138.276 39.184c1.644-.37 3.202-.162 4.534.446L39.157 93.45c-.326.17-.619.377-.876.615L16.09 78.884c-5.117-3.5-3.592-11.376 2.467-12.74l119.719-26.96ZM94.829 132.75 45.639 99.1l101.204-52.55c.05-.026.098-.052.146-.08a7.08 7.08 0 0 1-.768 2.807l-40.98 80.825c-1.945 3.835-6.852 5.083-10.412 2.647ZM41 131.316v-25.382l23.492 16.006-15.53 12.924c-3.127 2.602-7.962.447-7.962-3.548Z" clip-rule="evenodd"/>
  </mask>
  <g clip-path="url(#a)" mask="url(#b)">
    <g clip-path="url(#c)">
      <rect width="138.195" height="130.273" x="11.805" y="15.727" fill="#D9F4FD" rx="10"/>
      <ellipse cx="134.99" cy="101.371" fill="url(#d)" rx="199.529" ry="188.091"/>
      <path fill="url(#e)" d="M-.633 56.53C-2.851 11.5 34.073-26.697 81.839-28.788c47.766-2.09 88.287 32.717 90.505 77.745 2.218 45.028-34.706 83.225-82.473 85.316-47.766 2.091-88.286-32.717-90.504-77.745Z"/>
      <path fill="url(#f)" d="M46.716-74.418c-10.775-6.286-24.428-6.324-35.243-.1L-96.701-12.256c-10.595 6.098-10.612 20.49-.032 26.612l107.46 62.173c10.798 6.247 24.45 6.24 35.24-.022l107.239-62.232c10.524-6.107 10.543-20.42.032-26.551L46.716-74.418Z"/>
      <path fill="url(#g)" d="M-57.088 78.037c22.296 0 42.493 8.507 57.115 22.23 29.246 27.494 53.492 27.517 82.737.071 14.622-13.794 34.844-22.324 57.165-22.324 44.617.023 80.761 34.002 80.761 75.948 0 41.945-36.144 75.901-80.761 75.901-22.371 0-42.593-8.553-57.215-22.347-29.22-27.4-53.441-27.376-82.687.117-14.622 13.747-34.819 22.23-57.115 22.23-44.592 0-80.736-33.979-80.736-75.901s36.144-75.925 80.736-75.925Z"/>
    </g>
  </g>
</svg>
