<svg xmlns="http://www.w3.org/2000/svg" width="160" height="160" fill="none" viewBox="0 0 160 160">
  <defs>
    <linearGradient id="e" x1="-21.932" x2="196.624" y1="133.067" y2="-8.02" gradientUnits="userSpaceOnUse">
      <stop offset=".06" stop-color="#8480FE"/>
      <stop offset=".6" stop-color="#8480FE" stop-opacity="0"/>
    </linearGradient>
    <linearGradient id="f" x1="159.423" x2="68.604" y1="40.13" y2="143.749" gradientUnits="userSpaceOnUse">
      <stop stop-color="#EB1000"/>
      <stop offset="1" stop-color="#EB1000" stop-opacity="0"/>
    </linearGradient>
    <linearGradient id="g" x1="41.605" x2="208.452" y1="151.936" y2="52.763" gradientUnits="userSpaceOnUse">
      <stop stop-color="#FC7D00" stop-opacity="0"/>
      <stop offset=".432" stop-color="#FC7D00"/>
      <stop offset=".609" stop-color="#FC7D00"/>
      <stop offset="1" stop-color="#FC7D00" stop-opacity="0"/>
    </linearGradient>
    <radialGradient id="d" cx="0" cy="0" r="1" gradientTransform="matrix(0 56.9922 -60.4726 0 60.473 56.992)" gradientUnits="userSpaceOnUse">
      <stop offset=".167" stop-color="#FF709F"/>
      <stop offset="1" stop-color="#FF709F" stop-opacity="0"/>
    </radialGradient>
    <radialGradient id="h" cx="0" cy="0" r="1" gradientTransform="matrix(0 56.9922 -60.4726 0 60.473 56.992)" gradientUnits="userSpaceOnUse">
      <stop offset=".167" stop-color="#EB1000"/>
      <stop offset="1" stop-color="#EB1000" stop-opacity="0"/>
    </radialGradient>
    <clipPath id="a">
      <rect width="139" height="131" x="13" y="16" fill="#fff" rx="3.461"/>
    </clipPath>
    <clipPath id="c">
      <path fill="#fff" d="M13 16h139v131H13z"/>
    </clipPath>
  </defs>
  <mask id="b" width="126" height="128" x="18" y="16" maskUnits="userSpaceOnUse" style="mask-type:luminance">
    <path fill="#fff" fill-rule="evenodd" d="M112 16h20c6.627 0 12 5.373 12 12v44c0 6.627-5.373 12-12 12h-20c-6.627 0-12-5.373-12-12V28c0-6.627 5.373-12 12-12Zm-54 84h44c6.627 0 12 5.373 12 12v20c0 6.627-5.373 12-12 12H58c-6.627 0-12-5.373-12-12v-20c0-6.627 5.373-12 12-12Zm8.25-28.53 8.26 20.12c1.34 3.25 5.92 3.32 7.35.11l2.41-5.4c.4-.9 1.12-1.62 2.02-2.02l5.39-2.41c3.21-1.43 3.14-6.02-.11-7.35l-20.11-8.27c-3.29-1.35-6.57 1.93-5.22 5.22h.01Zm-9.83 3.88c2.21 0 4 1.79 4 4s-1.79 4-4 4H35.97c-1.49 3.06-4.61 5.17-8.24 5.17a9.17 9.17 0 0 1-9.17-9.17c0-3.63 2.12-6.75 5.17-8.24V35.9c-3.06-1.49-5.17-4.61-5.17-8.24a9.17 9.17 0 0 1 9.17-9.17c3.63 0 6.75 2.12 8.24 5.17h35.06c1.49-3.06 4.61-5.17 8.24-5.17a9.17 9.17 0 0 1 9.17 9.17c0 3.63-2.12 6.75-5.17 8.24v20.5c0 2.21-1.79 4-4 4s-4-1.79-4-4V35.9c-1.85-.9-3.34-2.4-4.24-4.24H35.97c-.9 1.85-2.4 3.34-4.24 4.24v35.21c1.85.9 3.34 2.4 4.24 4.24h20.45Z" clip-rule="evenodd"/>
  </mask>
  <g clip-path="url(#a)" mask="url(#b)">
    <rect width="139" height="131" x="13" y="16" fill="#FFECCF" rx="3.461"/>
    <g clip-path="url(#c)">
      <path fill="#FFECCF" d="M13 16h139v131H13z"/>
      <ellipse cx="60.473" cy="56.992" fill="url(#d)" rx="60.473" ry="56.992" transform="matrix(1 0 .00016 1 31.037 -35.831)"/>
      <path fill="url(#e)" d="M66.054-7.14c-10.675-6.226-24.2-6.264-34.916-.099L-76.028 54.428c-10.496 6.04-10.513 20.295-.032 26.358l106.459 61.579c10.698 6.187 24.224 6.18 34.913-.022l106.239-61.637c10.426-6.05 10.445-20.226.032-26.298L66.053-7.14Z"/>
      <path fill="url(#f)" d="M33.032 78.196C35.407 29.29 79.4-8.541 131.294-6.302c51.892 2.239 92.034 43.7 89.658 92.606-2.376 48.906-46.369 86.737-98.262 84.498-51.893-2.239-92.034-43.7-89.658-92.606Z"/>
      <path fill="url(#g)" d="M-43.316 110.442c20.628-8.293 42.874-7.937 62.148-.683 38.568 14.551 61.009 5.555 76.573-30.71 7.753-18.197 22.89-33.609 43.541-41.911 41.287-16.575 88.953 1.41 106.514 40.206 17.562 38.797-1.66 83.648-42.938 100.244-20.697 8.321-42.986 7.931-62.29.612-38.504-14.474-60.903-5.443-76.448 30.865-7.772 18.154-22.905 33.513-43.533 41.806-41.255 16.587-88.92-1.398-106.472-40.172-17.552-38.775 1.65-83.67 42.906-100.257Z"/>
      <ellipse cx="60.473" cy="56.992" fill="url(#h)" rx="60.473" ry="56.992" transform="matrix(1 0 .00016 1 83.342 -17.245)"/>
    </g>
  </g>
</svg>
