<svg xmlns="http://www.w3.org/2000/svg" width="160" height="160" fill="none" viewBox="0 0 160 160">
  <defs>
    <linearGradient id="e" x1="106.956" x2="35.006" y1="11.219" y2="110.176" gradientUnits="userSpaceOnUse">
      <stop stop-color="#FF4885"/>
      <stop offset="1" stop-color="#FF4885" stop-opacity="0"/>
    </linearGradient>
    <linearGradient id="f" x1="59.677" x2="73.015" y1="-32.445" y2="58.112" gradientUnits="userSpaceOnUse">
      <stop offset=".156" stop-color="#7A6AFD"/>
      <stop offset="1" stop-color="#7A6AFD" stop-opacity="0"/>
    </linearGradient>
    <linearGradient id="g" x1="-113.057" x2="137.643" y1="149.133" y2="96.573" gradientUnits="userSpaceOnUse">
      <stop stop-color="#30A7FE" stop-opacity="0"/>
      <stop offset=".432" stop-color="#30A7FE" stop-opacity=".995"/>
      <stop offset=".609" stop-color="#30A7FE"/>
      <stop offset="1" stop-color="#30A7FE" stop-opacity="0"/>
    </linearGradient>
    <clipPath id="a">
      <rect width="134" height="126.319" x="10" y="15.281" fill="#fff" rx="10"/>
    </clipPath>
    <clipPath id="c">
      <rect width="134" height="126.319" x="10" y="15.281" fill="#fff" rx="10"/>
    </clipPath>
    <radialGradient id="d" cx="0" cy="0" r="1" gradientTransform="scale(193.472 182.381) rotate(90 .065 .604)" gradientUnits="userSpaceOnUse">
      <stop offset=".089" stop-color="#EB1000"/>
      <stop offset="1" stop-color="#EB1000" stop-opacity="0"/>
    </radialGradient>
  </defs>
  <mask id="b" width="122" height="122" x="16" y="18" maskUnits="userSpaceOnUse" style="mask-type:luminance">
    <path fill="#fff" fill-rule="evenodd" d="M24.001 63.577c0-20.711 16.79-37.5 37.5-37.5s37.5 16.789 37.5 37.5c0 20.71-16.79 37.5-37.5 37.5s-37.5-16.79-37.5-37.5Zm37.5-45.5c-25.129 0-45.5 20.37-45.5 45.5 0 25.129 20.371 45.5 45.5 45.5a45.32 45.32 0 0 0 29.221-10.622l6.81 6.81-2.302 2.303 29.508 29.507a7.194 7.194 0 1 0 10.175-10.175l-29.508-29.507-2.215 2.215-6.811-6.81a45.316 45.316 0 0 0 10.622-29.221c0-25.13-20.371-45.5-45.5-45.5Z" clip-rule="evenodd"/>
  </mask>
  <g clip-path="url(#a)" mask="url(#b)">
    <g clip-path="url(#c)">
      <rect width="134" height="126.319" x="10" y="15.281" fill="#D9F4FD" rx="10"/>
      <ellipse cx="129.446" cy="98.325" fill="url(#d)" rx="193.472" ry="182.381"/>
      <path fill="url(#e)" d="M-2.06 54.845c-2.151-43.661 33.652-80.7 79.969-82.727 46.316-2.027 85.606 31.724 87.757 75.385 2.151 43.662-33.653 80.7-79.97 82.727C39.38 132.257.09 98.506-2.06 54.845Z"/>
      <path fill="url(#f)" d="M43.852-72.128c-10.448-6.094-23.686-6.132-34.174-.096l-104.89 60.372c-10.273 5.912-10.29 19.869-.031 25.804L8.954 74.238c10.472 6.058 23.71 6.05 34.172-.022L147.11 13.874c10.205-5.923 10.223-19.8.031-25.746L43.852-72.128Z"/>
      <path fill="url(#g)" d="M-56.801 75.7c21.62 0 41.203 8.248 55.381 21.555 28.358 26.659 51.868 26.682 80.225.069 14.179-13.376 33.786-21.647 55.43-21.647 43.263.023 78.31 32.971 78.31 73.643 0 40.673-35.047 73.598-78.31 73.598-21.692 0-41.3-8.294-55.479-21.669-28.333-26.568-51.818-26.546-80.176.114-14.178 13.329-33.762 21.555-55.381 21.555-43.239 0-78.286-32.948-78.286-73.598 0-40.649 35.047-73.62 78.286-73.62Z"/>
    </g>
  </g>
</svg>
