<svg xmlns="http://www.w3.org/2000/svg" width="160" height="160" fill="none" viewBox="0 0 160 160">
  <defs>
    <linearGradient id="e" x1="-32.176" x2="194.699" y1="136.536" y2="-9.887" gradientUnits="userSpaceOnUse">
      <stop offset=".06" stop-color="#8480FE"/>
      <stop offset=".6" stop-color="#8480FE" stop-opacity="0"/>
    </linearGradient>
    <linearGradient id="f" x1="156.055" x2="61.767" y1="40.051" y2="147.602" gradientUnits="userSpaceOnUse">
      <stop stop-color="#EB1000"/>
      <stop offset="1" stop-color="#EB1000" stop-opacity="0"/>
    </linearGradient>
    <linearGradient id="g" x1="33.771" x2="206.965" y1="156.124" y2="53.203" gradientUnits="userSpaceOnUse">
      <stop stop-color="#FC7D00" stop-opacity="0"/>
      <stop offset=".432" stop-color="#FC7D00"/>
      <stop offset=".609" stop-color="#FC7D00"/>
      <stop offset="1" stop-color="#FC7D00" stop-opacity="0"/>
    </linearGradient>
    <radialGradient id="d" cx="0" cy="0" r="1" gradientTransform="matrix(0 59.1674 -62.7654 0 62.765 59.167)" gradientUnits="userSpaceOnUse">
      <stop offset=".167" stop-color="#FF709F"/>
      <stop offset="1" stop-color="#FF709F" stop-opacity="0"/>
    </radialGradient>
    <radialGradient id="h" cx="0" cy="0" r="1" gradientTransform="matrix(0 59.1674 -62.7654 0 62.765 59.167)" gradientUnits="userSpaceOnUse">
      <stop offset=".167" stop-color="#EB1000"/>
      <stop offset="1" stop-color="#EB1000" stop-opacity="0"/>
    </radialGradient>
    <clipPath id="a">
      <rect width="144.27" height="136" x="4.08" y="15" fill="#fff" rx="3.461"/>
    </clipPath>
    <clipPath id="c">
      <path fill="#fff" d="M4.08 15h144.27v136H4.08z"/>
    </clipPath>
  </defs>
  <mask id="b" width="125" height="124" x="16" y="20" maskUnits="userSpaceOnUse" style="mask-type:luminance">
    <path fill="#fff" fill-rule="evenodd" d="M24.21 136h111.791c2.21 0 4 1.79 4 4s-1.79 4-4 4H20.211c-2.21 0-4-1.79-4-4V24c0-2.21 1.79-4 4-4s4 1.79 4 4v112ZM44 71.05h4a8 8 0 0 1 8 8V116a8 8 0 0 1-8 8h-4a8 8 0 0 1-8-8V79.05a8 8 0 0 1 8-8ZM120 96h-4a8 8 0 0 0-8 8v12a8 8 0 0 0 8 8h4a8 8 0 0 0 8-8v-12a8 8 0 0 0-8-8ZM80 40h4a8 8 0 0 1 8 8v68a8 8 0 0 1-8 8h-4a8 8 0 0 1-8-8V48a8 8 0 0 1 8-8Z" clip-rule="evenodd"/>
  </mask>
  <g clip-path="url(#a)" mask="url(#b)">
    <rect width="144.27" height="136" x="4.08" y="15" fill="#FFECCF" rx="3.461"/>
    <g clip-path="url(#c)">
      <path fill="#FFECCF" d="M4.08 15h144.27v136H4.08z"/>
      <ellipse cx="62.765" cy="59.167" fill="url(#d)" rx="62.765" ry="59.167" transform="matrix(1 0 .00016 1 22.802 -38.81)"/>
      <path fill="url(#e)" d="M59.145-9.024c-11.08-6.463-25.118-6.502-36.239-.102l-111.23 64.02c-10.893 6.27-10.912 21.07-.033 27.364l110.495 63.93c11.105 6.424 25.143 6.416 36.238-.023l110.267-63.99c10.821-6.28 10.841-20.997.033-27.3l-109.53-63.9Z"/>
      <path fill="url(#f)" d="M24.872 79.57c2.465-50.773 48.127-90.048 101.987-87.724 53.861 2.325 95.524 45.369 93.058 96.141-2.466 50.773-48.127 90.048-101.987 87.724-53.86-2.325-95.524-45.368-93.058-96.141Z"/>
      <path fill="url(#g)" d="M-54.37 113.047c21.41-8.61 44.5-8.241 64.504-.71 40.03 15.107 63.322 5.767 79.477-31.881 8.046-18.892 23.757-34.892 45.191-43.512 42.853-17.206 92.326 1.464 110.553 41.742 18.228 40.277-1.723 86.84-44.566 104.069-21.482 8.639-44.616 8.235-64.652.636-39.964-15.026-63.212-5.651-79.346 32.043-8.068 18.847-23.775 34.792-45.184 43.401-42.82 17.22-92.292-1.45-110.51-41.705-18.216-40.255 1.714-86.863 44.533-104.083Z"/>
      <ellipse cx="62.765" cy="59.167" fill="url(#h)" rx="62.765" ry="59.167" transform="matrix(1 0 .00016 1 77.089 -19.514)"/>
    </g>
  </g>
</svg>
