<svg xmlns="http://www.w3.org/2000/svg" width="160" height="160" fill="none" viewBox="0 0 160 160">
  <defs>
    <linearGradient id="e" x1="-23.685" x2="195.85" y1="127.604" y2="-14.082" gradientUnits="userSpaceOnUse">
      <stop offset=".06" stop-color="#8480FE"/>
      <stop offset=".6" stop-color="#8480FE" stop-opacity="0"/>
    </linearGradient>
    <linearGradient id="f" x1="158.456" x2="67.219" y1="34.24" y2="138.312" gradientUnits="userSpaceOnUse">
      <stop stop-color="#EB1000"/>
      <stop offset="1" stop-color="#EB1000" stop-opacity="0"/>
    </linearGradient>
    <linearGradient id="g" x1="40.128" x2="207.719" y1="146.558" y2="46.967" gradientUnits="userSpaceOnUse">
      <stop stop-color="#FC7D00" stop-opacity="0"/>
      <stop offset=".432" stop-color="#FC7D00"/>
      <stop offset=".609" stop-color="#FC7D00"/>
      <stop offset="1" stop-color="#FC7D00" stop-opacity="0"/>
    </linearGradient>
    <radialGradient id="d" cx="0" cy="0" r="1" gradientTransform="scale(60.7348 57.2532) rotate(90 0 1)" gradientUnits="userSpaceOnUse">
      <stop offset=".167" stop-color="#FF709F"/>
      <stop offset="1" stop-color="#FF709F" stop-opacity="0"/>
    </radialGradient>
    <radialGradient id="h" cx="0" cy="0" r="1" gradientTransform="scale(60.7348 57.2532) rotate(90 0 1)" gradientUnits="userSpaceOnUse">
      <stop offset=".167" stop-color="#EB1000"/>
      <stop offset="1" stop-color="#EB1000" stop-opacity="0"/>
    </radialGradient>
    <clipPath id="a">
      <rect width="139.603" height="131.6" x="11.398" y="10" fill="#fff" rx="3.461"/>
    </clipPath>
    <clipPath id="c">
      <path fill="#fff" d="M11.398 10h139.603v131.6H11.398z"/>
    </clipPath>
  </defs>
  <mask id="b" width="104" height="112" x="28" y="20" maskUnits="userSpaceOnUse" style="mask-type:luminance">
    <path fill="#fff" fill-rule="evenodd" d="M59 24c0-2.21-1.79-4-4-4s-4 1.79-4 4v10h-7c-8.84 0-16 7.16-16 16v10h104V50c0-8.84-7.16-16-16-16h-7V24c0-2.21-1.79-4-4-4s-4 1.79-4 4v10H59V24Zm42 10v10c0 2.21 1.79 4 4 4s4-1.79 4-4V34h-8Zm-42 0v10c0 2.21-1.79 4-4 4s-4-1.79-4-4V34h8Zm-15 98c-8.84 0-16-7.16-16-16V68h104v48c0 8.84-7.16 16-16 16H44Zm61-52c-2.21 0-4 1.79-4 4v6c0 2.21 1.79 4 4 4h6c2.21 0 4-1.79 4-4v-6c0-2.21-1.79-4-4-4h-6Zm0 22c-2.21 0-4 1.79-4 4v6c0 2.21 1.79 4 4 4h6c2.21 0 4-1.79 4-4v-6c0-2.21-1.79-4-4-4h-6ZM77 80c-2.21 0-4 1.79-4 4v6c0 2.21 1.79 4 4 4h6c2.21 0 4-1.79 4-4v-6c0-2.21-1.79-4-4-4h-6Zm0 22c-2.21 0-4 1.79-4 4v6c0 2.21 1.79 4 4 4h6c2.21 0 4-1.79 4-4v-6c0-2.21-1.79-4-4-4h-6ZM49 80c-2.21 0-4 1.79-4 4v6c0 2.21 1.79 4 4 4h6c2.21 0 4-1.79 4-4v-6c0-2.21-1.79-4-4-4h-6Zm0 22c-2.21 0-4 1.79-4 4v6c0 2.21 1.79 4 4 4h6c2.21 0 4-1.79 4-4v-6c0-2.21-1.79-4-4-4h-6Z" clip-rule="evenodd"/>
  </mask>
  <g clip-path="url(#a)" mask="url(#b)">
    <rect width="139.603" height="131.6" x="11.398" y="10" fill="#FFECCF" rx="3.461"/>
    <g clip-path="url(#c)">
      <path fill="#FFECCF" d="M11.398 10h139.603v131.6H11.398z"/>
      <ellipse cx="60.735" cy="57.253" fill="url(#d)" rx="60.735" ry="57.253" transform="matrix(1 0 .00016 1 29.514 -42.069)"/>
      <path fill="url(#e)" d="M64.682-13.246c-10.722-6.254-24.306-6.293-35.067-.1l-107.631 61.95c-10.541 6.067-10.559 20.388-.032 26.478l106.92 61.862c10.745 6.216 24.33 6.208 35.065-.023l106.7-61.919c10.471-6.077 10.49-20.318.032-26.418L64.682-13.246Z"/>
      <path fill="url(#f)" d="M31.517 72.48c2.386-49.13 46.57-87.134 98.688-84.885 52.118 2.25 92.433 43.901 90.047 93.031-2.386 49.13-46.57 87.135-98.688 84.885-52.118-2.249-92.433-43.9-90.047-93.03Z"/>
      <path fill="url(#g)" d="M-45.161 104.875c20.717-8.331 43.06-7.974 62.417-.687 38.734 14.618 61.273 5.58 76.905-30.85 7.787-18.28 22.989-33.763 43.729-42.103 41.467-16.65 89.339 1.416 106.977 40.39 17.638 38.975-1.668 84.031-43.125 100.703-20.786 8.359-43.172 7.968-62.559.615-38.672-14.54-61.167-5.468-76.78 31.006-7.806 18.237-23.005 33.666-43.722 41.998-41.434 16.662-89.306-1.404-106.934-40.357-17.628-38.952 1.658-84.052 43.092-100.715Z"/>
      <ellipse cx="60.735" cy="57.253" fill="url(#h)" rx="60.735" ry="57.253" transform="matrix(1 0 .00016 1 82.045 -23.398)"/>
    </g>
  </g>
</svg>
