<svg xmlns="http://www.w3.org/2000/svg" width="160" height="160" fill="none" viewBox="0 0 160 160">
  <defs>
    <linearGradient id="e" x1="-18.922" x2="187.085" y1="128.357" y2="-4.598" gradientUnits="userSpaceOnUse">
      <stop offset=".06" stop-color="#8480FE"/>
      <stop offset=".6" stop-color="#8480FE" stop-opacity="0"/>
    </linearGradient>
    <linearGradient id="f" x1="151.996" x2="66.381" y1="40.747" y2="138.405" gradientUnits="userSpaceOnUse">
      <stop stop-color="#EB1000"/>
      <stop offset="1" stop-color="#EB1000" stop-opacity="0"/>
    </linearGradient>
    <linearGradient id="g" x1="40.96" x2="198.224" y1="146.144" y2="52.689" gradientUnits="userSpaceOnUse">
      <stop stop-color="#FC7D00" stop-opacity="0"/>
      <stop offset=".432" stop-color="#FC7D00"/>
      <stop offset=".609" stop-color="#FC7D00"/>
      <stop offset="1" stop-color="#FC7D00" stop-opacity="0"/>
    </linearGradient>
    <radialGradient id="d" cx="0" cy="0" r="1" gradientTransform="scale(56.9923 53.7253) rotate(90 0 1)" gradientUnits="userSpaceOnUse">
      <stop offset=".167" stop-color="#FF709F"/>
      <stop offset="1" stop-color="#FF709F" stop-opacity="0"/>
    </radialGradient>
    <radialGradient id="h" cx="0" cy="0" r="1" gradientTransform="scale(56.9923 53.7253) rotate(90 0 1)" gradientUnits="userSpaceOnUse">
      <stop offset=".167" stop-color="#EB1000"/>
      <stop offset="1" stop-color="#EB1000" stop-opacity="0"/>
    </radialGradient>
    <clipPath id="a">
      <rect width="131" height="123.491" x="14" y="18" fill="#fff" rx="3.461"/>
    </clipPath>
    <clipPath id="c">
      <path fill="#fff" d="M14 18h131v123.491H14z"/>
    </clipPath>
  </defs>
  <mask id="b" width="110" height="110" x="25" y="25" maskUnits="userSpaceOnUse" style="mask-type:luminance">
    <path fill="#fff" fill-rule="evenodd" d="m85.36 26.74 42.569 21.24a12 12 0 0 1 6.64 10.74v42.46c0 4.54-2.56 8.7-6.62 10.73l-42.57 21.33c-3.38 1.7-7.37 1.7-10.75 0l-42.57-21.33a12.007 12.007 0 0 1-6.62-10.73V58.72a12 12 0 0 1 6.64-10.74l42.57-21.24a12.01 12.01 0 0 1 10.71 0ZM51.32 97.6c1.39 0 2.73-.72 3.47-2h-.01l14.65-25.37c1.11-1.91.45-4.36-1.46-5.46a3.992 3.992 0 0 0-5.46 1.46L47.86 91.6a3.992 3.992 0 0 0 1.46 5.46c.63.37 1.32.54 2 .54Zm53.339 0c2.89 0 5.48-1.5 6.93-4 1.45-2.51 1.45-5.5 0-8l-13.53-23.43c-1.45-2.5-4.04-4-6.93-4-2.89 0-5.48 1.5-6.93 4L70.67 85.6a7.9 7.9 0 0 0 0 8c1.45 2.5 4.04 4 6.93 4h27.06Zm-13.52-31.43 13.53 23.43h-27.06l13.53-23.43Z" clip-rule="evenodd"/>
  </mask>
  <g clip-path="url(#a)" mask="url(#b)">
    <rect width="131" height="123.491" x="14" y="18" fill="#FFECCF" rx="3.461"/>
    <g clip-path="url(#c)">
      <path fill="#FFECCF" d="M14 18h131v123.491H14z"/>
      <ellipse cx="56.992" cy="53.725" fill="url(#d)" rx="56.992" ry="53.725" transform="matrix(1 0 .00016 1 31 -30.86)"/>
      <path fill="url(#e)" d="M64-3.814c-10.06-5.869-22.807-5.905-32.906-.093L-69.904 54.225c-9.891 5.694-9.908 19.132-.03 24.847l100.332 58.049c10.083 5.833 22.83 5.826 32.904-.02l100.126-58.104c9.825-5.703 9.843-19.066.029-24.79L64-3.814Z"/>
      <path fill="url(#f)" d="M32.879 76.63c2.239-46.102 43.7-81.765 92.607-79.654 48.906 2.11 86.737 41.195 84.498 87.298-2.239 46.103-43.7 81.766-92.606 79.655-48.907-2.111-86.738-41.196-84.499-87.298Z"/>
      <path fill="url(#g)" d="M-39.074 107.029c19.44-7.818 40.407-7.483 58.571-.645 36.348 13.718 57.497 5.237 72.166-28.949 7.307-17.154 21.573-31.682 41.035-39.509 38.912-15.624 83.834 1.33 100.385 37.902 16.551 36.573-1.565 78.853-40.468 94.497-19.505 7.845-40.512 7.477-58.704.578-36.29-13.645-57.398-5.131-72.049 29.095-7.325 17.113-21.587 31.592-41.028 39.41-38.88 15.636-83.802-1.318-100.344-37.87-16.542-36.552 1.555-78.873 40.436-94.509Z"/>
      <ellipse cx="56.992" cy="53.725" fill="url(#h)" rx="56.992" ry="53.725" transform="matrix(1 0 .00016 1 80.293 -13.34)"/>
    </g>
  </g>
</svg>
