<svg xmlns="http://www.w3.org/2000/svg" width="160" height="160" fill="none" viewBox="0 0 160 160">
  <defs>
    <linearGradient id="e" x1="109.278" x2="41.839" y1="19.392" y2="112.146" gradientUnits="userSpaceOnUse">
      <stop stop-color="#FF4885"/>
      <stop offset="1" stop-color="#FF4885" stop-opacity="0"/>
    </linearGradient>
    <linearGradient id="f" x1="64.963" x2="77.465" y1="-21.534" y2="63.346" gradientUnits="userSpaceOnUse">
      <stop offset=".156" stop-color="#7A6AFD"/>
      <stop offset="1" stop-color="#7A6AFD" stop-opacity="0"/>
    </linearGradient>
    <linearGradient id="g" x1="-96.942" x2="138.042" y1="148.66" y2="99.395" gradientUnits="userSpaceOnUse">
      <stop stop-color="#30A7FE" stop-opacity="0"/>
      <stop offset=".432" stop-color="#30A7FE" stop-opacity=".995"/>
      <stop offset=".609" stop-color="#30A7FE"/>
      <stop offset="1" stop-color="#30A7FE" stop-opacity="0"/>
    </linearGradient>
    <clipPath id="a">
      <rect width="125.6" height="118.4" x="18.4" y="23.2" fill="#fff" rx="10"/>
    </clipPath>
    <clipPath id="c">
      <rect width="125.6" height="118.4" x="18.4" y="23.2" fill="#fff" rx="10"/>
    </clipPath>
    <radialGradient id="d" cx="0" cy="0" r="1" gradientTransform="scale(181.344 170.948) rotate(90 .064 .655)" gradientUnits="userSpaceOnUse">
      <stop offset=".089" stop-color="#EB1000"/>
      <stop offset="1" stop-color="#EB1000" stop-opacity="0"/>
    </radialGradient>
  </defs>
  <mask id="b" width="108" height="100" x="24" y="30" maskUnits="userSpaceOnUse" style="mask-type:luminance">
    <path fill="#fff" d="M119.1 31.17 76 44.25H45.02c-11.59 0-20.98 9.39-20.98 20.98s9.39 20.98 20.98 20.98h5.94l15.72 36.17c2.5 5.78 9.22 8.44 15 5.94 5.78-2.5 8.44-9.22 5.94-15l-11.67-27.1h.04l43.09 13.11c6.42 1.95 12.91-2.85 12.91-9.57V40.74c0-6.71-6.48-11.52-12.9-9.57h.01Z"/>
  </mask>
  <g clip-path="url(#a)" mask="url(#b)">
    <g clip-path="url(#c)">
      <rect width="125.6" height="118.4" x="18.4" y="23.2" fill="#D9F4FD" rx="10"/>
      <ellipse cx="130.358" cy="101.038" fill="url(#d)" rx="181.344" ry="170.948"/>
      <path fill="url(#e)" d="M7.096 60.284C5.08 19.36 38.639-15.356 82.052-17.256c43.413-1.901 80.24 29.734 82.256 70.658 2.016 40.924-31.543 75.64-74.956 77.541-43.413 1.9-80.24-29.735-82.256-70.66Z"/>
      <path fill="url(#f)" d="M50.13-58.73c-9.793-5.712-22.201-5.747-32.031-.09L-80.216-2.233c-9.629 5.543-9.645 18.624-.03 24.187L17.42 78.461c9.815 5.678 22.223 5.67 32.03-.02l97.464-56.56c9.565-5.551 9.583-18.56.03-24.132L50.13-58.729Z"/>
      <path fill="url(#g)" d="M-44.213 79.831c20.264 0 38.62 7.732 51.91 20.204 26.58 24.988 48.615 25.009 75.195.064 13.29-12.536 31.668-20.29 51.955-20.29 40.551.022 73.401 30.905 73.401 69.027 0 38.123-32.85 68.984-73.401 68.984-20.332 0-38.71-7.774-52-20.311-26.557-24.902-48.57-24.881-75.15.107-13.29 12.494-31.646 20.204-51.91 20.204-40.529 0-73.378-30.883-73.378-68.984s32.85-69.005 73.378-69.005Z"/>
    </g>
  </g>
</svg>
