<svg xmlns="http://www.w3.org/2000/svg" width="160" height="160" fill="none" viewBox="0 0 160 160">
  <defs>
    <linearGradient id="e" x1="107.785" x2="37.446" y1="19.228" y2="115.97" gradientUnits="userSpaceOnUse">
      <stop stop-color="#FF4885"/>
      <stop offset="1" stop-color="#FF4885" stop-opacity="0"/>
    </linearGradient>
    <linearGradient id="f" x1="61.565" x2="74.604" y1="-23.457" y2="65.072" gradientUnits="userSpaceOnUse">
      <stop offset=".156" stop-color="#7A6AFD"/>
      <stop offset="1" stop-color="#7A6AFD" stop-opacity="0"/>
    </linearGradient>
    <linearGradient id="g" x1="-107.302" x2="137.786" y1="154.055" y2="102.671" gradientUnits="userSpaceOnUse">
      <stop stop-color="#30A7FE" stop-opacity="0"/>
      <stop offset=".432" stop-color="#30A7FE" stop-opacity=".995"/>
      <stop offset=".609" stop-color="#30A7FE"/>
      <stop offset="1" stop-color="#30A7FE" stop-opacity="0"/>
    </linearGradient>
    <clipPath id="a">
      <rect width="131" height="123.491" x="13" y="23.2" fill="#fff" rx="10"/>
    </clipPath>
    <clipPath id="c">
      <rect width="131" height="123.491" x="13" y="23.2" fill="#fff" rx="10"/>
    </clipPath>
    <radialGradient id="d" cx="0" cy="0" r="1" gradientTransform="scale(189.141 178.298) rotate(90 .05 .636)" gradientUnits="userSpaceOnUse">
      <stop offset=".089" stop-color="#EB1000"/>
      <stop offset="1" stop-color="#EB1000" stop-opacity="0"/>
    </radialGradient>
  </defs>
  <mask id="b" width="111" height="112" x="21" y="27" maskUnits="userSpaceOnUse" style="mask-type:luminance">
    <path fill="#fff" fill-rule="evenodd" d="M107.02 87.22c-6.16 5.88-13.79 11.98-23.22 18.19h-.01c-.79.52-1.61.96-2.46 1.33-5.95 2.58-13 1.36-17.71-3.35l-3.54-3.54-3.54-3.54c-4.46-4.47-5.78-11.02-3.71-16.76.43-1.18.99-2.33 1.7-3.41 4.49-6.82 8.93-12.69 13.26-17.75C92.96 29 114.76 27.1 124.71 28.23a7.96 7.96 0 0 1 7 7c1.05 9.3-.53 28.94-24.69 51.99Zm1.7-35.99c-3.31-3.3-8.67-3.3-11.97 0-3.3 3.31-3.31 8.67 0 11.97 3.31 3.3 8.67 3.31 11.97 0 3.3-3.31 3.31-8.67 0-11.97ZM44.11 81.94l-10.48.18v.01c-6.81.12-10.67-7.8-6.35-13.06 12.21-14.85 28.66-20.14 39.39-21.35-6.47 6.82-12.76 14.84-18.82 24.04a23.982 23.982 0 0 0-3.74 10.18Zm-15.41 36.6c-.78.78-1.81 1.17-2.83 1.17-1.03 0-2.05-.39-2.83-1.17a4.008 4.008 0 0 1 0-5.66l10.5-10.5a4.008 4.008 0 0 1 5.66 0 4.008 4.008 0 0 1 0 5.66l-10.5 10.5Zm14-7a4.008 4.008 0 0 1 5.66 0 4.008 4.008 0 0 1 0 5.66l-20 20c-.78.78-1.8 1.17-2.83 1.17s-2.05-.39-2.83-1.17a4.008 4.008 0 0 1 0-5.66l20-20Zm9.22 9.21-11 11a4.008 4.008 0 0 0 0 5.66c.78.78 1.8 1.17 2.83 1.17s2.05-.39 2.83-1.17l11-11a4.008 4.008 0 0 0 0-5.66c-1.56-1.57-4.09-1.56-5.66 0Zm26.11-4.89-.18 10.44c-.12 6.85 7.851 10.65 13.131 6.29 14.76-12.18 20.04-28.55 21.27-39.27-6.48 6.12-14.39 12.41-24.05 18.77a24.07 24.07 0 0 1-10.17 3.77Z" clip-rule="evenodd"/>
  </mask>
  <g clip-path="url(#a)" mask="url(#b)">
    <g clip-path="url(#c)">
      <rect width="131" height="123.491" x="13" y="23.2" fill="#D9F4FD" rx="10"/>
      <ellipse cx="129.772" cy="104.385" fill="url(#d)" rx="189.141" ry="178.298"/>
      <path fill="url(#e)" d="M1.21 61.878C-.893 19.194 34.109-17.014 79.388-18.996c45.28-1.982 83.69 31.013 85.793 73.697 2.102 42.684-32.899 78.892-78.179 80.874-45.28 1.982-83.69-31.013-85.792-73.697Z"/>
      <path fill="url(#f)" d="M46.094-62.252c-10.214-5.958-23.156-5.995-33.408-.094L-89.857-3.326c-10.043 5.78-10.06 19.424-.03 25.226L11.978 80.837c10.237 5.922 23.178 5.915 33.407-.021L147.04 21.824c9.976-5.79 9.994-19.357.03-25.17L46.094-62.251Z"/>
      <path fill="url(#g)" d="M-52.306 82.266c21.136 0 40.28 8.064 54.142 21.073 27.723 26.062 50.706 26.084 78.429.067 13.86-13.076 33.03-21.162 54.189-21.162 42.294.022 76.557 32.233 76.557 71.994 0 39.762-34.263 71.95-76.557 71.95-21.207 0-40.376-8.108-54.237-21.184-27.699-25.973-50.659-25.951-78.381.111-13.861 13.032-33.006 21.073-54.142 21.073-42.27 0-76.533-32.21-76.533-71.95 0-39.739 34.262-71.972 76.533-71.972Z"/>
    </g>
  </g>
</svg>
