<svg xmlns="http://www.w3.org/2000/svg" width="160" height="160" fill="none" viewBox="0 0 160 160">
  <defs>
    <linearGradient id="e" x1="107.785" x2="37.446" y1="16.683" y2="113.425" gradientUnits="userSpaceOnUse">
      <stop stop-color="#FF4885"/>
      <stop offset="1" stop-color="#FF4885" stop-opacity="0"/>
    </linearGradient>
    <linearGradient id="f" x1="61.565" x2="74.604" y1="-26.003" y2="62.526" gradientUnits="userSpaceOnUse">
      <stop offset=".156" stop-color="#7A6AFD"/>
      <stop offset="1" stop-color="#7A6AFD" stop-opacity="0"/>
    </linearGradient>
    <linearGradient id="g" x1="-107.302" x2="137.786" y1="151.509" y2="100.126" gradientUnits="userSpaceOnUse">
      <stop stop-color="#30A7FE" stop-opacity="0"/>
      <stop offset=".432" stop-color="#30A7FE" stop-opacity=".995"/>
      <stop offset=".609" stop-color="#30A7FE"/>
      <stop offset="1" stop-color="#30A7FE" stop-opacity="0"/>
    </linearGradient>
    <clipPath id="a">
      <rect width="131" height="123.491" x="13" y="20.654" fill="#fff" rx="10"/>
    </clipPath>
    <clipPath id="c">
      <rect width="131" height="123.491" x="13" y="20.654" fill="#fff" rx="10"/>
    </clipPath>
    <radialGradient id="d" cx="0" cy="0" r="1" gradientTransform="scale(189.141 178.298) rotate(90 .057 .629)" gradientUnits="userSpaceOnUse">
      <stop offset=".089" stop-color="#EB1000"/>
      <stop offset="1" stop-color="#EB1000" stop-opacity="0"/>
    </radialGradient>
  </defs>
  <mask id="b" width="120" height="110" x="20" y="25" maskUnits="userSpaceOnUse" style="mask-type:luminance">
    <path fill="#fff" fill-rule="evenodd" d="M116.85 50.45c0 13.531-10.298 24.5-23 24.5-12.703 0-23-10.969-23-24.5s10.297-24.5 23-24.5c12.702 0 23 10.969 23 24.5ZM72.59 74.08c-2.04.63-4.2.98-6.44.98-12.7 0-23-10.97-23-24.5s10.3-24.5 23-24.5c2.17 0 4.28.33 6.27.93-5.9 5.92-9.58 14.16-9.58 23.46s3.75 17.7 9.75 23.63Zm-32.52 48.39c3.25-15.09 12.65-27.7 25.19-35.4-22.04.42-40.58 16.32-45.07 37.19-1.08 5.02 2.67 9.78 7.81 9.78h13.94a16.02 16.02 0 0 1-1.87-11.57Zm53.77-35.52c22.43 0 41.41 16.06 45.96 37.21 1.08 5.02-2.67 9.78-7.81 9.78h-76.3c-5.14 0-8.89-4.76-7.81-9.78 4.55-21.15 23.53-37.21 45.96-37.21Z" clip-rule="evenodd"/>
  </mask>
  <g clip-path="url(#a)" mask="url(#b)">
    <g clip-path="url(#c)">
      <rect width="131" height="123.491" x="13" y="20.654" fill="#D9F4FD" rx="10"/>
      <ellipse cx="129.772" cy="101.84" fill="url(#d)" rx="189.141" ry="178.298"/>
      <path fill="url(#e)" d="M1.21 59.333C-.893 16.649 34.109-19.56 79.388-21.542c45.28-1.982 83.69 31.014 85.793 73.697 2.102 42.684-32.899 78.893-78.179 80.875-45.28 1.982-83.69-31.013-85.792-73.697Z"/>
      <path fill="url(#f)" d="M46.094-64.797c-10.214-5.959-23.156-5.995-33.408-.095L-89.857-5.872c-10.043 5.78-10.06 19.425-.03 25.227L11.978 78.291c10.237 5.922 23.178 5.915 33.407-.02L147.04 19.278c9.976-5.79 9.994-19.358.03-25.17L46.094-64.796Z"/>
      <path fill="url(#g)" d="M-52.306 79.72c21.136 0 40.28 8.064 54.142 21.073 27.723 26.063 50.706 26.085 78.429.067 13.86-13.076 33.03-21.162 54.189-21.162 42.294.023 76.557 32.233 76.557 71.995 0 39.762-34.263 71.95-76.557 71.95-21.207 0-40.376-8.109-54.237-21.184-27.699-25.974-50.659-25.951-78.381.111-13.861 13.031-33.006 21.073-54.142 21.073-42.27 0-76.533-32.211-76.533-71.95 0-39.74 34.262-71.972 76.533-71.972Z"/>
    </g>
  </g>
</svg>
