<svg xmlns="http://www.w3.org/2000/svg" width="160" height="160" fill="none" viewBox="0 0 160 160">
  <defs>
    <linearGradient id="e" x1="113.573" x2="38.963" y1="11.787" y2="114.429" gradientUnits="userSpaceOnUse">
      <stop stop-color="#FF4885"/>
      <stop offset="1" stop-color="#FF4885" stop-opacity="0"/>
    </linearGradient>
    <linearGradient id="f" x1="64.53" x2="78.36" y1="-33.495" y2="60.419" gradientUnits="userSpaceOnUse">
      <stop offset=".156" stop-color="#7A6AFD"/>
      <stop offset="1" stop-color="#7A6AFD" stop-opacity="0"/>
    </linearGradient>
    <linearGradient id="g" x1="-114.648" x2="145.4" y1="154.812" y2="100.279" gradientUnits="userSpaceOnUse">
      <stop stop-color="#30A7FE" stop-opacity="0"/>
      <stop offset=".432" stop-color="#30A7FE" stop-opacity=".995"/>
      <stop offset=".609" stop-color="#30A7FE"/>
      <stop offset="1" stop-color="#30A7FE" stop-opacity="0"/>
    </linearGradient>
    <clipPath id="a">
      <rect width="139" height="131" x="13" y="16" fill="#fff" rx="10"/>
    </clipPath>
    <clipPath id="c">
      <rect width="139" height="131" x="13" y="16" fill="#fff" rx="10"/>
    </clipPath>
    <radialGradient id="d" cx="0" cy="0" r="1" gradientTransform="matrix(0 189.14 -200.691 0 136.871 102.136)" gradientUnits="userSpaceOnUse">
      <stop offset=".089" stop-color="#EB1000"/>
      <stop offset="1" stop-color="#EB1000" stop-opacity="0"/>
    </radialGradient>
  </defs>
  <mask id="b" width="126" height="128" x="18" y="16" maskUnits="userSpaceOnUse" style="mask-type:luminance">
    <path fill="#fff" fill-rule="evenodd" d="M112 16h20c6.627 0 12 5.373 12 12v44c0 6.627-5.373 12-12 12h-20c-6.627 0-12-5.373-12-12V28c0-6.627 5.373-12 12-12Zm-54 84h44c6.627 0 12 5.373 12 12v20c0 6.627-5.373 12-12 12H58c-6.627 0-12-5.373-12-12v-20c0-6.627 5.373-12 12-12Zm8.25-28.53 8.26 20.12c1.34 3.25 5.92 3.32 7.35.11l2.41-5.4c.4-.9 1.12-1.62 2.02-2.02l5.39-2.41c3.21-1.43 3.14-6.02-.11-7.35l-20.11-8.27c-3.29-1.35-6.57 1.93-5.22 5.22h.01Zm-9.83 3.88c2.21 0 4 1.79 4 4s-1.79 4-4 4H35.97c-1.49 3.06-4.61 5.17-8.24 5.17a9.17 9.17 0 0 1-9.17-9.17c0-3.63 2.12-6.75 5.17-8.24V35.9c-3.06-1.49-5.17-4.61-5.17-8.24a9.17 9.17 0 0 1 9.17-9.17c3.63 0 6.75 2.12 8.24 5.17h35.06c1.49-3.06 4.61-5.17 8.24-5.17a9.17 9.17 0 0 1 9.17 9.17c0 3.63-2.12 6.75-5.17 8.24v20.5c0 2.21-1.79 4-4 4s-4-1.79-4-4V35.9c-1.85-.9-3.34-2.4-4.24-4.24H35.97c-.9 1.85-2.4 3.34-4.24 4.24v35.21c1.85.9 3.34 2.4 4.24 4.24h20.45Z" clip-rule="evenodd"/>
  </mask>
  <g clip-path="url(#a)" mask="url(#b)">
    <g clip-path="url(#c)">
      <rect width="139" height="131" x="13" y="16" fill="#D9F4FD" rx="10"/>
      <ellipse cx="136.902" cy="102.122" fill="url(#d)" rx="200.691" ry="189.14"/>
      <path fill="url(#e)" d="M.49 57.03c-2.231-45.28 34.908-83.69 82.952-85.792 48.045-2.103 88.801 32.899 91.032 78.178 2.231 45.28-34.908 83.69-82.953 85.793-48.044 2.102-88.8-32.9-91.031-78.179Z"/>
      <path fill="url(#f)" d="M48.115-74.648c-10.838-6.32-24.57-6.36-35.449-.1L-96.138-12.139c-10.656 6.132-10.674 20.605-.032 26.76l108.085 62.52c10.862 6.283 24.594 6.275 35.447-.022l107.863-62.578c10.585-6.142 10.604-20.535.032-26.7L48.115-74.65Z"/>
      <path fill="url(#g)" d="M-56.294 78.658c22.426 0 42.74 8.554 57.448 22.354 29.416 27.647 53.803 27.671 83.218.071C99.08 87.212 119.42 78.634 141.87 78.634c44.878.024 81.232 34.193 81.232 76.372 0 42.18-36.354 76.325-81.232 76.325-22.501 0-42.84-8.601-57.548-22.472-29.39-27.552-53.752-27.529-83.168.118-14.707 13.824-35.022 22.354-57.448 22.354-44.852 0-81.206-34.169-81.206-76.325 0-42.155 36.354-76.348 81.206-76.348Z"/>
    </g>
  </g>
</svg>
