<svg xmlns="http://www.w3.org/2000/svg" width="160" height="160" fill="none" viewBox="0 0 160 160">
  <defs>
    <linearGradient id="e" x1="112.174" x2="31.994" y1="6.323" y2="110.278" gradientUnits="userSpaceOnUse">
      <stop stop-color="#FF4885"/>
      <stop offset="1" stop-color="#FF4885" stop-opacity="0"/>
    </linearGradient>
    <linearGradient id="f" x1="63.325" x2="78.793" y1="-41.534" y2="57.456" gradientUnits="userSpaceOnUse">
      <stop offset=".156" stop-color="#7A6AFD"/>
      <stop offset="1" stop-color="#7A6AFD" stop-opacity="0"/>
    </linearGradient>
    <linearGradient id="g" x1="-115.143" x2="145.101" y1="157.481" y2="106.047" gradientUnits="userSpaceOnUse">
      <stop stop-color="#30A7FE" stop-opacity="0"/>
      <stop offset=".432" stop-color="#30A7FE" stop-opacity=".995"/>
      <stop offset=".609" stop-color="#30A7FE"/>
      <stop offset="1" stop-color="#30A7FE" stop-opacity="0"/>
    </linearGradient>
    <clipPath id="a">
      <rect width="138.449" height="138.449" x="11.999" y="10.775" fill="#fff" rx="10"/>
    </clipPath>
    <clipPath id="c">
      <rect width="138.449" height="138.449" x="11.999" y="10.775" fill="#fff" rx="10"/>
    </clipPath>
    <radialGradient id="d" cx="0" cy="0" r="1" gradientTransform="rotate(90 16.808 118.603) scale(199.896)" gradientUnits="userSpaceOnUse">
      <stop offset=".089" stop-color="#EB1000"/>
      <stop offset="1" stop-color="#EB1000" stop-opacity="0"/>
    </radialGradient>
  </defs>
  <mask id="b" width="160" height="160" x="0" y="0" maskUnits="userSpaceOnUse" style="mask-type:luminance">
    <path fill="#fff" fill-rule="evenodd" d="m87.514 31.515 32.971 32.97a12.001 12.001 0 0 1 3.514 8.486V120c0 6.628-5.372 12-12 12h-64c-6.627 0-12-5.372-12-12V40c0-6.627 5.373-12 12-12h31.03a12 12 0 0 1 8.485 3.515ZM94.499 68a7.5 7.5 0 1 0 0 15 7.5 7.5 0 0 0 0-15Zm-40.495 48h51.99c1.564 0 2.523-1.715 1.703-3.048L96.51 94.769a2 2 0 0 0-3.407 0l-8.816 14.329L71.197 86.9c-.776-1.307-2.666-1.307-3.441 0l-15.472 26.08c-.791 1.333.17 3.02 1.72 3.02Z" clip-rule="evenodd"/>
  </mask>
  <g clip-path="url(#a)" mask="url(#b)">
    <g clip-path="url(#c)">
      <rect width="138.449" height="138.449" x="11.999" y="10.775" fill="#D9F4FD" rx="10"/>
      <circle cx="135.411" cy="101.794" r="199.896" fill="url(#d)"/>
      <path fill="url(#e)" d="M-.462 54.139c-2.222-47.855 34.77-88.45 82.625-90.671 47.854-2.222 88.449 34.77 90.671 82.624 2.222 47.854-34.77 88.449-82.624 90.671-47.855 2.222-88.45-34.77-90.672-82.624Z"/>
      <path fill="url(#f)" d="M46.975-85.028a33.748 33.748 0 0 0-35.308-.105l-108.373 66.17c-10.614 6.48-10.632 21.776-.032 28.281L10.918 75.394a33.748 33.748 0 0 0 35.306-.024L153.661 9.233c10.543-6.491 10.562-21.702.032-28.218L46.975-85.028Z"/>
      <path fill="url(#g)" d="M-57.02 76.996c22.337 0 42.571 9.04 57.22 23.625 29.3 29.22 53.59 29.245 82.889.075 14.65-14.66 34.908-23.725 57.27-23.725 44.7.025 80.91 36.137 80.91 80.715s-36.21 80.665-80.91 80.665c-22.412 0-42.671-9.09-57.32-23.75-29.274-29.119-53.54-29.094-82.839.125-14.649 14.61-34.883 23.625-57.22 23.625-44.675 0-80.885-36.111-80.885-80.665 0-44.553 36.21-80.69 80.885-80.69Z"/>
    </g>
  </g>
</svg>
