<svg xmlns="http://www.w3.org/2000/svg" width="160" height="160" fill="none" viewBox="0 0 160 160">
  <defs>
    <linearGradient id="e" x1="-19.922" x2="186.085" y1="131.011" y2="-1.943" gradientUnits="userSpaceOnUse">
      <stop offset=".06" stop-color="#8480FE"/>
      <stop offset=".6" stop-color="#8480FE" stop-opacity="0"/>
    </linearGradient>
    <linearGradient id="f" x1="150.996" x2="65.381" y1="43.401" y2="141.06" gradientUnits="userSpaceOnUse">
      <stop stop-color="#EB1000"/>
      <stop offset="1" stop-color="#EB1000" stop-opacity="0"/>
    </linearGradient>
    <linearGradient id="g" x1="39.96" x2="197.224" y1="148.798" y2="55.344" gradientUnits="userSpaceOnUse">
      <stop stop-color="#FC7D00" stop-opacity="0"/>
      <stop offset=".432" stop-color="#FC7D00"/>
      <stop offset=".609" stop-color="#FC7D00"/>
      <stop offset="1" stop-color="#FC7D00" stop-opacity="0"/>
    </linearGradient>
    <radialGradient id="d" cx="0" cy="0" r="1" gradientTransform="scale(56.9923 53.7253) rotate(90 0 1)" gradientUnits="userSpaceOnUse">
      <stop offset=".167" stop-color="#FF709F"/>
      <stop offset="1" stop-color="#FF709F" stop-opacity="0"/>
    </radialGradient>
    <radialGradient id="h" cx="0" cy="0" r="1" gradientTransform="scale(56.9923 53.7253) rotate(90 0 1)" gradientUnits="userSpaceOnUse">
      <stop offset=".167" stop-color="#EB1000"/>
      <stop offset="1" stop-color="#EB1000" stop-opacity="0"/>
    </radialGradient>
    <clipPath id="a">
      <rect width="131" height="123.491" x="13" y="20.654" fill="#fff" rx="3.461"/>
    </clipPath>
    <clipPath id="c">
      <path fill="#fff" d="M13 20.654h131v123.491H13z"/>
    </clipPath>
  </defs>
  <mask id="b" width="120" height="110" x="20" y="25" maskUnits="userSpaceOnUse" style="mask-type:luminance">
    <path fill="#fff" fill-rule="evenodd" d="m61.126 39.715 5.655 5.655 5.78 5.78 11.3 11.3a9.367 9.367 0 0 0 13.25 0 9.367 9.367 0 0 0 0-13.25l-11.3-11.3-5.78-5.78-1.88-1.88a15.883 15.883 0 0 0-4.46-3.09l-.154-.074a6.294 6.294 0 0 0-.546-.246c-.63-.26-1.28-.46-1.93-.64-5.34-1.42-11.26-.05-15.45 4.13L25.18 60.75c-4.89 4.89-5.93 12.15-3.17 18.08l33.46-33.46 5.655-5.655Zm43.263-9.315 30.43 30.43v.02c6.25 6.25 6.25 16.38 0 22.63l-33.88 33.88-14.28 14.28a9.358 9.358 0 0 1-13.25-.01h-.01a9.367 9.367 0 0 1 0-13.25 9.358 9.358 0 0 1-13.25-.01h-.01c-3.63-3.63-3.65-9.49-.08-13.16a9.359 9.359 0 0 1-13.16-.1h-.01c-3.66-3.66-3.66-9.6 0-13.26h-.01a9.358 9.358 0 0 1-13.25-.01h-.01c-.29-.29-.55-.6-.79-.91-2.84-3.68-2.58-8.98.79-12.35l14.96-14.97 12.56-12.56 5.78 5.78 11.3 11.3c3.28 3.28 7.64 5.09 12.28 5.09s9-1.81 12.28-5.09c6.77-6.78 6.77-17.8 0-24.57l-16.37-16.37c5.9-2.71 13.11-1.66 17.98 3.21Z" clip-rule="evenodd"/>
  </mask>
  <g clip-path="url(#a)" mask="url(#b)">
    <rect width="131" height="123.491" x="13" y="20.654" fill="#FFECCF" rx="3.461"/>
    <g clip-path="url(#c)">
      <path fill="#FFECCF" d="M13 20.654h131v123.491H13z"/>
      <ellipse cx="56.992" cy="53.725" fill="url(#d)" rx="56.992" ry="53.725" transform="matrix(1 0 .00016 1 30 -28.206)"/>
      <path fill="url(#e)" d="M63-1.16c-10.06-5.868-22.807-5.904-32.905-.092l-101 58.132c-9.891 5.693-9.908 19.132-.03 24.846l100.332 58.05c10.083 5.833 22.83 5.826 32.904-.021l100.126-58.104c9.825-5.702 9.843-19.066.029-24.79L63-1.159Z"/>
      <path fill="url(#f)" d="M31.879 79.285c2.239-46.102 43.7-81.765 92.607-79.654 48.906 2.11 86.737 41.195 84.498 87.298-2.239 46.102-43.7 81.765-92.607 79.654-48.906-2.11-86.737-41.195-84.498-87.298Z"/>
      <path fill="url(#g)" d="M-40.074 109.683c19.44-7.818 40.407-7.482 58.571-.644 36.348 13.717 57.497 5.236 72.167-28.95 7.306-17.154 21.572-31.682 41.034-39.508 38.912-15.625 83.834 1.329 100.385 37.901 16.551 36.573-1.565 78.853-40.468 94.498-19.505 7.844-40.512 7.477-58.704.577-36.289-13.644-57.398-5.131-72.049 29.096-7.325 17.113-21.587 31.591-41.028 39.409-38.88 15.636-83.802-1.317-100.344-37.869-16.542-36.553 1.556-78.874 40.436-94.51Z"/>
      <ellipse cx="56.992" cy="53.725" fill="url(#h)" rx="56.992" ry="53.725" transform="matrix(1 0 .00016 1 79.293 -10.685)"/>
    </g>
  </g>
</svg>
