<svg xmlns="http://www.w3.org/2000/svg" width="160" height="160" fill="none" viewBox="0 0 160 160">
  <defs>
    <linearGradient id="e" x1="110.95" x2="30.77" y1="6.323" y2="110.278" gradientUnits="userSpaceOnUse">
      <stop stop-color="#FF4885"/>
      <stop offset="1" stop-color="#FF4885" stop-opacity="0"/>
    </linearGradient>
    <linearGradient id="f" x1="62.101" x2="77.568" y1="-41.534" y2="57.456" gradientUnits="userSpaceOnUse">
      <stop offset=".156" stop-color="#7A6AFD"/>
      <stop offset="1" stop-color="#7A6AFD" stop-opacity="0"/>
    </linearGradient>
    <linearGradient id="g" x1="-116.368" x2="143.876" y1="157.481" y2="106.047" gradientUnits="userSpaceOnUse">
      <stop stop-color="#30A7FE" stop-opacity="0"/>
      <stop offset=".432" stop-color="#30A7FE" stop-opacity=".995"/>
      <stop offset=".609" stop-color="#30A7FE"/>
      <stop offset="1" stop-color="#30A7FE" stop-opacity="0"/>
    </linearGradient>
    <clipPath id="a">
      <rect width="138.449" height="138.449" x="10.775" y="10.775" fill="#fff" rx="10"/>
    </clipPath>
    <clipPath id="c">
      <rect width="138.449" height="138.449" x="10.775" y="10.775" fill="#fff" rx="10"/>
    </clipPath>
    <radialGradient id="d" cx="0" cy="0" r="1" gradientTransform="rotate(90 16.196 117.99) scale(199.896)" gradientUnits="userSpaceOnUse">
      <stop offset=".089" stop-color="#EB1000"/>
      <stop offset="1" stop-color="#EB1000" stop-opacity="0"/>
    </radialGradient>
  </defs>
  <mask id="b" width="160" height="160" x="0" y="0" maskUnits="userSpaceOnUse" style="mask-type:luminance">
    <path fill="#fff" d="m120.485 64.485-32.97-32.97A12 12 0 0 0 79.029 28H48c-6.627 0-12 5.373-12 12v80c0 6.627 5.373 12 12 12h64c6.627 0 12-5.373 12-12V72.97a12 12 0 0 0-3.515-8.485ZM104 84a4 4 0 0 1-8 0v-4H84v32h4a4 4 0 0 1 0 8H72a4 4 0 0 1 0-8h4V80H64v4a4 4 0 0 1-8 0v-8a4 4 0 0 1 4-4h40a4 4 0 0 1 4 4v8Z"/>
  </mask>
  <g clip-path="url(#a)" mask="url(#b)">
    <g clip-path="url(#c)">
      <rect width="138.449" height="138.449" x="10.775" y="10.775" fill="#D9F4FD" rx="10"/>
      <circle cx="134.186" cy="101.794" r="199.896" fill="url(#d)"/>
      <path fill="url(#e)" d="M-1.686 54.139c-2.222-47.854 34.77-88.45 82.624-90.671 47.854-2.222 88.449 34.77 90.671 82.624 2.222 47.854-34.77 88.449-82.624 90.671-47.854 2.222-88.45-34.77-90.671-82.624Z"/>
      <path fill="url(#f)" d="M45.75-85.028a33.748 33.748 0 0 0-35.308-.105L-97.93-18.963c-10.614 6.48-10.631 21.776-.032 28.281L9.694 75.394a33.748 33.748 0 0 0 35.307-.024L152.436 9.233c10.543-6.491 10.563-21.702.032-28.218L45.751-85.028Z"/>
      <path fill="url(#g)" d="M-58.245 76.996c22.338 0 42.571 9.04 57.22 23.626 29.3 29.219 53.59 29.244 82.889.074 14.65-14.66 34.908-23.725 57.271-23.725 44.699.025 80.91 36.137 80.91 80.715 0 44.579-36.211 80.666-80.91 80.666-22.413 0-42.672-9.091-57.321-23.75-29.274-29.12-53.54-29.095-82.838.124-14.65 14.61-34.883 23.626-57.22 23.626-44.675 0-80.886-36.112-80.886-80.666 0-44.553 36.211-80.69 80.885-80.69Z"/>
    </g>
  </g>
</svg>
