<svg xmlns="http://www.w3.org/2000/svg" width="160" height="160" fill="none" viewBox="0 0 160 160">
  <defs>
    <linearGradient id="e" x1="111.104" x2="30.523" y1="5.954" y2="110.429" gradientUnits="userSpaceOnUse">
      <stop stop-color="#FF4885"/>
      <stop offset="1" stop-color="#FF4885" stop-opacity="0"/>
    </linearGradient>
    <linearGradient id="f" x1="62.011" x2="77.556" y1="-42.142" y2="57.343" gradientUnits="userSpaceOnUse">
      <stop offset=".156" stop-color="#7A6AFD"/>
      <stop offset="1" stop-color="#7A6AFD" stop-opacity="0"/>
    </linearGradient>
    <linearGradient id="g" x1="-117.35" x2="144.195" y1="157.868" y2="106.178" gradientUnits="userSpaceOnUse">
      <stop stop-color="#30A7FE" stop-opacity="0"/>
      <stop offset=".432" stop-color="#30A7FE" stop-opacity=".995"/>
      <stop offset=".609" stop-color="#30A7FE"/>
      <stop offset="1" stop-color="#30A7FE" stop-opacity="0"/>
    </linearGradient>
    <clipPath id="a">
      <rect width="139.142" height="139.142" x="10.428" y="10.429" fill="#fff" rx="10"/>
    </clipPath>
    <clipPath id="c">
      <rect width="139.142" height="139.142" x="10.428" y="10.429" fill="#fff" rx="10"/>
    </clipPath>
    <radialGradient id="d" cx="0" cy="0" r="1" gradientTransform="rotate(90 16.277 118.18) scale(200.895)" gradientUnits="userSpaceOnUse">
      <stop offset=".089" stop-color="#EB1000"/>
      <stop offset="1" stop-color="#EB1000" stop-opacity="0"/>
    </radialGradient>
  </defs>
  <mask id="b" width="162" height="162" x="-1" y="-1" maskUnits="userSpaceOnUse" style="mask-type:luminance">
    <path fill="#fff" d="M80 61.91V27.788a11.983 11.983 0 0 0-.976-.048H47.839c-6.66 0-12.06 5.4-12.06 12.06v80.4c0 6.661 5.4 12.06 12.06 12.06h64.32c6.661 0 12.06-5.399 12.06-12.06V72.935c0-.327-.022-.651-.048-.975H90.049C84.51 71.96 80 67.452 80 61.91Z"/>
    <path fill="#fff" d="M90.05 63.92h30.15L88.04 31.76v30.15c0 1.109.902 2.01 2.01 2.01Z"/>
  </mask>
  <g clip-path="url(#a)" mask="url(#b)">
    <g clip-path="url(#c)">
      <rect width="139.142" height="139.142" x="10.428" y="10.429" fill="#D9F4FD" rx="10"/>
      <circle cx="134.457" cy="101.903" r="200.895" fill="url(#d)"/>
      <path fill="url(#e)" d="M-2.095 54.01C-4.328 5.915 32.85-34.883 80.943-37.116c48.093-2.233 88.891 34.944 91.124 83.037 2.233 48.094-34.944 88.891-83.037 91.125C40.936 139.28.138 102.103-2.095 54.009Z"/>
      <path fill="url(#f)" d="M45.58-85.853a33.917 33.917 0 0 0-35.486-.106l-108.915 66.5c-10.667 6.513-10.684 21.886-.032 28.424L9.343 75.37a33.916 33.916 0 0 0 35.483-.024L152.798 8.879c10.596-6.524 10.616-21.81.033-28.36L45.579-85.852Z"/>
      <path fill="url(#g)" d="M-58.936 76.981c22.449 0 42.784 9.086 57.507 23.743 29.445 29.366 53.857 29.391 83.302.076 14.723-14.733 35.083-23.844 57.557-23.844 44.923.025 81.315 36.318 81.315 81.119s-36.392 81.068-81.315 81.068c-22.524 0-42.884-9.136-57.607-23.869-29.42-29.265-53.807-29.239-83.252.126-14.723 14.683-35.058 23.743-57.507 23.743-44.898 0-81.289-36.292-81.289-81.068 0-44.776 36.391-81.094 81.29-81.094Z"/>
    </g>
  </g>
</svg>
