<svg xmlns="http://www.w3.org/2000/svg" width="160" height="160" fill="none" viewBox="0 0 160 160">
  <defs>
    <linearGradient id="e" x1="-13.164" x2="184.351" y1="129.007" y2="1.534" gradientUnits="userSpaceOnUse">
      <stop offset=".06" stop-color="#8480FE"/>
      <stop offset=".6" stop-color="#8480FE" stop-opacity="0"/>
    </linearGradient>
    <linearGradient id="f" x1="150.708" x2="68.622" y1="45.009" y2="138.641" gradientUnits="userSpaceOnUse">
      <stop stop-color="#EB1000"/>
      <stop offset="1" stop-color="#EB1000" stop-opacity="0"/>
    </linearGradient>
    <linearGradient id="g" x1="44.248" x2="195.029" y1="146.061" y2="56.459" gradientUnits="userSpaceOnUse">
      <stop stop-color="#FC7D00" stop-opacity="0"/>
      <stop offset=".432" stop-color="#FC7D00"/>
      <stop offset=".609" stop-color="#FC7D00"/>
      <stop offset="1" stop-color="#FC7D00" stop-opacity="0"/>
    </linearGradient>
    <radialGradient id="d" cx="0" cy="0" r="1" gradientTransform="matrix(0 51.5105 -54.6429 0 54.643 51.51)" gradientUnits="userSpaceOnUse">
      <stop offset=".167" stop-color="#FF709F"/>
      <stop offset="1" stop-color="#FF709F" stop-opacity="0"/>
    </radialGradient>
    <radialGradient id="h" cx="0" cy="0" r="1" gradientTransform="matrix(0 51.5105 -54.6429 0 54.643 51.51)" gradientUnits="userSpaceOnUse">
      <stop offset=".167" stop-color="#EB1000"/>
      <stop offset="1" stop-color="#EB1000" stop-opacity="0"/>
    </radialGradient>
    <clipPath id="a">
      <rect width="125.6" height="118.4" x="18.4" y="23.2" fill="#fff" rx="3.461"/>
    </clipPath>
    <clipPath id="c">
      <path fill="#fff" d="M18.4 23.2H144v118.4H18.4z"/>
    </clipPath>
  </defs>
  <mask id="b" width="120" height="108" x="20" y="24" maskUnits="userSpaceOnUse" style="mask-type:luminance">
    <path fill="#fff" fill-rule="evenodd" d="M115 49h9c8.84 0 16 7.16 16 16v22h-25v-2c0-2.21-1.79-4-4-4s-4 1.79-4 4v2H53v-2c0-2.21-1.79-4-4-4s-4 1.79-4 4v2H20V65c0-8.84 7.16-16 16-16h9V38c0-7.72 6.28-14 14-14h42c7.72 0 14 6.28 14 14v11Zm-62 0h54V38c0-3.31-2.69-6-6-6H59c-3.31 0-6 2.69-6 6v11Zm58 53c2.21 0 4-1.79 4-4v-3h25v21c0 8.84-7.16 16-16 16H36c-8.84 0-16-7.16-16-16V95h25v3c0 2.21 1.79 4 4 4s4-1.79 4-4v-3h54v3c0 2.21 1.79 4 4 4Z" clip-rule="evenodd"/>
  </mask>
  <g clip-path="url(#a)" mask="url(#b)">
    <rect width="125.6" height="118.4" x="18.4" y="23.2" fill="#FFECCF" rx="3.461"/>
    <g clip-path="url(#c)">
      <path fill="#FFECCF" d="M18.4 23.2H144v118.4H18.4z"/>
      <ellipse cx="54.643" cy="51.511" fill="url(#d)" rx="54.643" ry="51.511" transform="matrix(1 0 .00016 1 34.699 -23.646)"/>
      <path fill="url(#e)" d="M66.34 2.285c-9.646-5.626-21.868-5.66-31.55-.089l-96.835 55.736c-9.484 5.458-9.5 18.343-.029 23.822l96.196 55.657c9.667 5.592 21.889 5.585 31.548-.02l95.997-55.709c9.421-5.467 9.438-18.28.029-23.768L66.34 2.285Z"/>
      <path fill="url(#f)" d="M36.501 79.414c2.147-44.203 41.9-78.395 88.789-76.371 46.89 2.023 83.162 39.497 81.015 83.699-2.146 44.202-41.899 78.395-88.789 76.371-46.89-2.024-83.162-39.497-81.015-83.7Z"/>
      <path fill="url(#g)" d="M-32.486 108.559c18.639-7.496 38.74-7.175 56.156-.618 34.85 13.152 55.127 5.02 69.192-27.756 7.005-16.447 20.683-30.376 39.343-37.88 37.307-14.98 80.377 1.274 96.246 36.339s-1.5 75.602-38.799 90.602c-18.702 7.521-38.842 7.168-56.285.553-34.792-13.082-55.031-4.919-69.078 27.896-7.023 16.408-20.698 30.29-39.337 37.785-37.278 14.992-80.347-1.263-96.207-36.308-15.86-35.046 1.491-75.622 38.769-90.613Z"/>
      <ellipse cx="54.643" cy="51.511" fill="url(#h)" rx="54.643" ry="51.511" transform="matrix(1 0 .00016 1 81.96 -6.848)"/>
    </g>
  </g>
</svg>
