<svg xmlns="http://www.w3.org/2000/svg" width="160" height="160" fill="none" viewBox="0 0 160 160">
  <defs>
    <linearGradient id="e" x1="-28.686" x2="194.757" y1="137.748" y2="-6.308" gradientUnits="userSpaceOnUse">
      <stop offset=".06" stop-color="#8480FE"/>
      <stop offset=".6" stop-color="#8480FE" stop-opacity="0"/>
    </linearGradient>
    <linearGradient id="f" x1="156.583" x2="63.67" y1="42.682" y2="148.555" gradientUnits="userSpaceOnUse">
      <stop stop-color="#EB1000"/>
      <stop offset="1" stop-color="#EB1000" stop-opacity="0"/>
    </linearGradient>
    <linearGradient id="g" x1="36.224" x2="206.786" y1="157.049" y2="55.798" gradientUnits="userSpaceOnUse">
      <stop stop-color="#FC7D00" stop-opacity="0"/>
      <stop offset=".432" stop-color="#FC7D00"/>
      <stop offset=".609" stop-color="#FC7D00"/>
      <stop offset="1" stop-color="#FC7D00" stop-opacity="0"/>
    </linearGradient>
    <radialGradient id="d" cx="0" cy="0" r="1" gradientTransform="matrix(0 58.2973 -61.7778 0 61.778 58.297)" gradientUnits="userSpaceOnUse">
      <stop offset=".167" stop-color="#FF709F"/>
      <stop offset="1" stop-color="#FF709F" stop-opacity="0"/>
    </radialGradient>
    <radialGradient id="h" cx="0" cy="0" r="1" gradientTransform="matrix(0 58.2973 -61.7778 0 61.778 58.297)" gradientUnits="userSpaceOnUse">
      <stop offset=".167" stop-color="#EB1000"/>
      <stop offset="1" stop-color="#EB1000" stop-opacity="0"/>
    </radialGradient>
    <clipPath id="a">
      <rect width="142" height="134" x="7" y="18" fill="#fff" rx="3.461"/>
    </clipPath>
    <clipPath id="c">
      <path fill="#fff" d="M7 18h142v134H7z"/>
    </clipPath>
  </defs>
  <mask id="b" width="120" height="126" x="18" y="19" maskUnits="userSpaceOnUse" style="mask-type:luminance">
    <path fill="#fff" fill-rule="evenodd" d="M109.921 32.16a7.303 7.303 0 0 0 0-10.34 7.304 7.304 0 0 0-10.34 0 7.303 7.303 0 0 0 0 10.34 7.304 7.304 0 0 0 10.34 0ZM64.799 72.12a3.994 3.994 0 0 0 2.5 7.12c.88 0 1.76-.29 2.49-.88 19.22-15.35 18.34-31.46 18.3-32.14-.15-2.19-2.03-3.82-4.22-3.7-2.19.13-3.87 2.02-3.76 4.21.02.52.43 12.81-15.31 25.38v.01Zm34.002 29.87a4 4 0 0 1 1.67-5.4h.01a4 4 0 0 1 5.4 1.67c5.73 10.86 3.89 16.18 1.34 18.73-.83.83-1.95 1.58-3.45 2.02l-69.25 24.6c-1.34.48-2.71.71-4.06.71-3.11 0-6.14-1.23-8.44-3.53-3.3-3.3-4.38-8.09-2.82-12.5l24.32-68.53c.14-.52.32-1.02.55-1.5.45-1.12 1.07-2 1.75-2.68 2.57-2.57 7.94-4.4 18.93 1.45a3.998 3.998 0 0 1 1.65 5.41 3.998 3.998 0 0 1-5.41 1.65c-6.19-3.29-9.03-3.09-9.52-2.84v.02l-.18.51c-.4 3.04 4.2 14.87 19.53 30.2 11.62 11.62 21.22 17.07 26.54 18.84 2.06.42 3.52.52 4.26.42.19-.55.29-3.35-2.82-9.25ZM77.49 89.43c-1.03 0-2.05-.39-2.83-1.17a4.008 4.008 0 0 1 0-5.66l15.61-15.61a4.008 4.008 0 0 1 5.66 0 4.008 4.008 0 0 1 0 5.66L80.32 88.26c-.78.78-1.8 1.17-2.83 1.17Zm7.05 3.7c15.35-19.22 31.46-18.34 32.14-18.3l-.01.01c2.21.15 3.87 2.06 3.72 4.26-.15 2.19-2.04 3.86-4.23 3.72-.59-.02-12.84-.37-25.37 15.31a3.996 3.996 0 0 1-5.62.62 3.993 3.993 0 0 1-.63-5.62Zm40.499-.96a7.303 7.303 0 0 1 10.34 0 7.303 7.303 0 0 1 0 10.34 7.303 7.303 0 0 1-10.34 0 7.303 7.303 0 0 1 0-10.34ZM56.351 28.195l-1.92 1.406a4 4 0 0 0-.865 5.59l7.813 10.676a4 4 0 0 0 5.59.866l1.921-1.406a4 4 0 0 0 .865-5.59L61.942 29.06a4 4 0 0 0-5.59-.866Zm50.878 26.657 13.146-1.489a4 4 0 0 1 4.424 3.525l.268 2.364a4 4 0 0 1-3.525 4.425l-13.146 1.489a4 4 0 0 1-4.424-3.525l-.268-2.365a4 4 0 0 1 3.525-4.425Z" clip-rule="evenodd"/>
  </mask>
  <g clip-path="url(#a)" mask="url(#b)">
    <rect width="142" height="134" x="7" y="18" fill="#FFECCF" rx="3.461"/>
    <g clip-path="url(#c)">
      <path fill="#FFECCF" d="M7 18h142v134H7z"/>
      <ellipse cx="61.778" cy="58.297" fill="url(#d)" rx="61.778" ry="58.297" transform="matrix(1 0 .00016 1 25.427 -35.018)"/>
      <path fill="url(#e)" d="M61.2-5.67c-10.906-6.368-24.724-6.407-35.67-.1L-83.95 57.307c-10.721 6.178-10.74 20.76-.032 26.961l108.757 62.99c10.93 6.329 24.747 6.321 35.667-.023l108.532-63.048c10.651-6.188 10.67-20.689.032-26.9L61.199-5.67Z"/>
      <path fill="url(#f)" d="M27.465 81.62c2.427-50.026 47.37-88.723 100.382-86.433 53.013 2.29 94.021 44.701 91.594 94.727-2.427 50.026-47.37 88.724-100.383 86.434-53.013-2.291-94.02-44.702-91.593-94.728Z"/>
      <path fill="url(#g)" d="M-50.53 114.605c21.073-8.483 43.8-8.119 63.49-.699 39.399 14.885 62.324 5.682 78.225-31.413 7.92-18.614 23.384-34.378 44.48-42.871 42.179-16.954 90.873 1.442 108.813 41.127 17.941 39.685-1.696 85.563-43.865 102.539-21.143 8.512-43.914 8.114-63.634.627-39.335-14.806-62.217-5.568-78.098 31.571-7.94 18.57-23.4 34.28-44.473 42.764-42.145 16.966-90.839-1.43-108.77-41.093-17.93-39.663 1.687-85.585 43.832-102.552Z"/>
      <ellipse cx="61.778" cy="58.297" fill="url(#h)" rx="61.778" ry="58.297" transform="matrix(1 0 .00016 1 78.86 -16.007)"/>
    </g>
  </g>
</svg>
