<svg xmlns="http://www.w3.org/2000/svg" width="160" height="160" fill="none" viewBox="0 0 160 160">
  <defs>
    <linearGradient id="e" x1="108.785" x2="38.446" y1="14.028" y2="110.77" gradientUnits="userSpaceOnUse">
      <stop stop-color="#FF4885"/>
      <stop offset="1" stop-color="#FF4885" stop-opacity="0"/>
    </linearGradient>
    <linearGradient id="f" x1="62.565" x2="75.604" y1="-28.657" y2="59.872" gradientUnits="userSpaceOnUse">
      <stop offset=".156" stop-color="#7A6AFD"/>
      <stop offset="1" stop-color="#7A6AFD" stop-opacity="0"/>
    </linearGradient>
    <linearGradient id="g" x1="-106.302" x2="138.786" y1="148.855" y2="97.471" gradientUnits="userSpaceOnUse">
      <stop stop-color="#30A7FE" stop-opacity="0"/>
      <stop offset=".432" stop-color="#30A7FE" stop-opacity=".995"/>
      <stop offset=".609" stop-color="#30A7FE"/>
      <stop offset="1" stop-color="#30A7FE" stop-opacity="0"/>
    </linearGradient>
    <clipPath id="a">
      <rect width="131" height="123.491" x="14" y="18" fill="#fff" rx="10"/>
    </clipPath>
    <clipPath id="c">
      <rect width="131" height="123.491" x="14" y="18" fill="#fff" rx="10"/>
    </clipPath>
    <radialGradient id="d" cx="0" cy="0" r="1" gradientTransform="scale(189.141 178.298) rotate(90 .068 .624)" gradientUnits="userSpaceOnUse">
      <stop offset=".089" stop-color="#EB1000"/>
      <stop offset="1" stop-color="#EB1000" stop-opacity="0"/>
    </radialGradient>
  </defs>
  <mask id="b" width="94" height="108" x="33" y="26" maskUnits="userSpaceOnUse" style="mask-type:luminance">
    <path fill="#fff" fill-rule="evenodd" d="M45.75 26.06h68.5c6.63 0 12 5.37 12 12v49.63c0 25.55-20.7 46.25-46.25 46.25s-46.25-20.71-46.25-46.25V38.06c0-6.63 5.37-12 12-12Zm4.08 65.75c.629.37 1.317.54 1.995.54a3.998 3.998 0 0 0 3.465-2l13.96-24.18c1.11-1.91.45-4.36-1.46-5.46a3.992 3.992 0 0 0-5.46 1.46L48.37 86.35a3.992 3.992 0 0 0 1.46 5.46Zm52.52.54c2.89 0 5.48-1.5 6.93-4 1.45-2.51 1.45-5.5 0-8L96.71 58.58c-1.45-2.5-4.04-4-6.93-4-2.89 0-5.48 1.5-6.93 4L70.28 80.35a7.9 7.9 0 0 0 0 8c1.45 2.5 4.04 4 6.93 4h25.14ZM89.78 62.57l12.571 21.78h-25.14l12.57-21.78Z" clip-rule="evenodd"/>
  </mask>
  <g clip-path="url(#a)" mask="url(#b)">
    <g clip-path="url(#c)">
      <rect width="131" height="123.491" x="14" y="18" fill="#D9F4FD" rx="10"/>
      <ellipse cx="130.772" cy="99.185" fill="url(#d)" rx="189.141" ry="178.298"/>
      <path fill="url(#e)" d="M2.21 56.678C.107 13.994 35.109-22.214 80.388-24.196c45.28-1.982 83.69 31.013 85.793 73.697 2.102 42.684-32.899 78.892-78.179 80.874-45.28 1.982-83.69-31.013-85.792-73.697Z"/>
      <path fill="url(#f)" d="M47.094-67.452c-10.214-5.958-23.156-5.995-33.408-.094L-88.857-8.526c-10.043 5.78-10.06 19.424-.03 25.227L12.978 75.636c10.237 5.922 23.178 5.915 33.407-.021L148.04 16.624c9.976-5.79 9.994-19.357.03-25.169L47.094-67.452Z"/>
      <path fill="url(#g)" d="M-51.306 77.066c21.136 0 40.28 8.064 54.142 21.073 27.723 26.062 50.706 26.084 78.429.067 13.86-13.076 33.03-21.162 54.189-21.162 42.294.022 76.557 32.233 76.557 71.994 0 39.762-34.263 71.95-76.557 71.95-21.207 0-40.376-8.108-54.237-21.184-27.699-25.973-50.659-25.951-78.381.111-13.861 13.032-33.006 21.073-54.142 21.073-42.27 0-76.533-32.21-76.533-71.95 0-39.739 34.262-71.972 76.533-71.972Z"/>
    </g>
  </g>
</svg>
