<svg xmlns="http://www.w3.org/2000/svg" width="160" height="160" fill="none" viewBox="0 0 160 160">
  <defs>
    <linearGradient id="e" x1="110.362" x2="25.231" y1="-.728" y2="109.648" gradientUnits="userSpaceOnUse">
      <stop stop-color="#FF4885"/>
      <stop offset="1" stop-color="#FF4885" stop-opacity="0"/>
    </linearGradient>
    <linearGradient id="f" x1="58.497" x2="74.919" y1="-51.54" y2="53.563" gradientUnits="userSpaceOnUse">
      <stop offset=".156" stop-color="#7A6AFD"/>
      <stop offset="1" stop-color="#7A6AFD" stop-opacity="0"/>
    </linearGradient>
    <linearGradient id="g" x1="-130.994" x2="145.323" y1="159.766" y2="105.156" gradientUnits="userSpaceOnUse">
      <stop stop-color="#30A7FE" stop-opacity="0"/>
      <stop offset=".432" stop-color="#30A7FE" stop-opacity=".995"/>
      <stop offset=".609" stop-color="#30A7FE"/>
      <stop offset="1" stop-color="#30A7FE" stop-opacity="0"/>
    </linearGradient>
    <clipPath id="a">
      <rect width="147" height="147" x="4.001" y="4" fill="#fff" rx="10"/>
    </clipPath>
    <clipPath id="c">
      <rect width="147" height="147" x="4.001" y="4" fill="#fff" rx="10"/>
    </clipPath>
    <radialGradient id="d" cx="0" cy="0" r="1" gradientTransform="rotate(90 17.197 117.837) scale(212.241)" gradientUnits="userSpaceOnUse">
      <stop offset=".089" stop-color="#EB1000"/>
      <stop offset="1" stop-color="#EB1000" stop-opacity="0"/>
    </radialGradient>
  </defs>
  <mask id="b" width="129" height="116" x="15" y="21" maskUnits="userSpaceOnUse" style="mask-type:luminance">
    <path fill="#fff" fill-rule="evenodd" d="M51.738 21.933h27.404c2.81 0 5.506 1.116 7.494 3.104l29.118 29.118a10.597 10.597 0 0 1 3.105 7.494v41.535c0 5.853-4.745 10.598-10.598 10.598H51.738c-5.853 0-10.598-4.745-10.598-10.598V32.531c0-5.854 4.745-10.598 10.598-10.598Zm31 30.625a3.533 3.533 0 1 0-7.065-.016l-.079 34.983-11.943-9.5a3.533 3.533 0 1 0-4.398 5.53l17.793 14.152a3.533 3.533 0 0 0 4.418-.016l17.534-14.152a3.533 3.533 0 0 0-4.438-5.498l-11.9 9.605.078-35.088ZM22.399 75.523a3.2 3.2 0 0 1 3.2-3.2h5.881a3.2 3.2 0 0 0 0-6.4H25.6a9.6 9.6 0 0 0-9.6 9.6v5.535a3.2 3.2 0 0 0 6.4 0v-5.535Zm106.119-9.6a3.2 3.2 0 0 0 0 6.4h5.881a3.2 3.2 0 0 1 3.2 3.2v5.535a3.2 3.2 0 0 0 6.4 0v-5.535a9.6 9.6 0 0 0-9.6-9.6h-5.881Zm15.481 29.665a3.2 3.2 0 1 0-6.4 0v11.07a3.2 3.2 0 1 0 6.4 0v-11.07Zm-121.6 0a3.2 3.2 0 0 0-6.4 0v11.07a3.2 3.2 0 1 0 6.4 0v-11.07Zm0 25.6a3.2 3.2 0 0 0-6.4 0v5.535a9.6 9.6 0 0 0 9.6 9.6h5.881a3.2 3.2 0 0 0 0-6.4H25.6a3.2 3.2 0 0 1-3.2-3.2v-5.535Zm121.6 0a3.2 3.2 0 1 0-6.4 0v5.535a3.2 3.2 0 0 1-3.2 3.2h-5.881a3.2 3.2 0 0 0 0 6.4h5.881a9.6 9.6 0 0 0 9.6-9.6v-5.535Zm-97.08 8.735a3.2 3.2 0 0 0 0 6.4H58.68a3.2 3.2 0 0 0 0-6.4H46.918Zm27.2 0a3.2 3.2 0 0 0 0 6.4H85.88a3.2 3.2 0 0 0 0-6.4H74.118Zm27.199 0a3.2 3.2 0 0 0 0 6.4h11.762a3.2 3.2 0 1 0 0-6.4h-11.762Z" clip-rule="evenodd"/>
  </mask>
  <g clip-path="url(#a)" mask="url(#b)">
    <g clip-path="url(#c)">
      <rect width="147" height="147" x="4.001" y="4" fill="#D9F4FD" rx="10"/>
      <circle cx="135.034" cy="100.64" r="212.241" fill="url(#d)"/>
      <path fill="url(#e)" d="M-9.23 50.041c-2.359-50.81 36.918-93.911 87.727-96.27 50.81-2.36 93.912 36.917 96.271 87.727 2.36 50.81-36.917 93.911-87.727 96.27-50.81 2.36-93.911-36.917-96.27-87.727Z"/>
      <path fill="url(#f)" d="M41.137-97.72a35.833 35.833 0 0 0-37.489-.112l-115.066 70.256c-11.27 6.88-11.289 23.122-.035 30.029L2.854 72.609c11.487 7.05 26.01 7.041 37.487-.025L154.41 2.362c11.195-6.892 11.215-23.042.034-29.96L41.137-97.72Z"/>
      <path fill="url(#g)" d="M-69.281 74.31c23.717 0 45.2 9.6 60.754 25.085 31.109 31.024 56.9 31.05 88.008.08 15.554-15.565 37.064-25.19 60.807-25.19 47.46.026 85.907 38.368 85.907 85.699 0 47.331-38.447 85.647-85.907 85.647-23.796 0-45.306-9.652-60.86-25.217-31.082-30.917-56.846-30.891-87.955.133-15.554 15.512-37.037 25.084-60.754 25.084-47.434 0-85.88-38.342-85.88-85.647 0-47.305 38.446-85.673 85.88-85.673Z"/>
    </g>
  </g>
</svg>
