<svg xmlns="http://www.w3.org/2000/svg" width="160" height="160" fill="none" viewBox="0 0 160 160">
  <defs>
    <linearGradient id="e" x1="-21.175" x2="196.683" y1="128.748" y2="-3.795" gradientUnits="userSpaceOnUse">
      <stop offset=".06" stop-color="#8480FE"/>
      <stop offset=".6" stop-color="#8480FE" stop-opacity="0"/>
    </linearGradient>
    <linearGradient id="f" x1="153.656" x2="60.195" y1="33.683" y2="134.179" gradientUnits="userSpaceOnUse">
      <stop stop-color="#EB1000"/>
      <stop offset="1" stop-color="#EB1000" stop-opacity="0"/>
    </linearGradient>
    <linearGradient id="g" x1="40.077" x2="205.758" y1="148.049" y2="55.237" gradientUnits="userSpaceOnUse">
      <stop stop-color="#FC7D00" stop-opacity="0"/>
      <stop offset=".432" stop-color="#FC7D00"/>
      <stop offset=".609" stop-color="#FC7D00"/>
      <stop offset="1" stop-color="#FC7D00" stop-opacity="0"/>
    </linearGradient>
    <radialGradient id="d" cx="0" cy="0" r="1" gradientTransform="rotate(90 37.035 51.232) scale(58.2973)" gradientUnits="userSpaceOnUse">
      <stop offset=".167" stop-color="#FF709F"/>
      <stop offset="1" stop-color="#FF709F" stop-opacity="0"/>
    </radialGradient>
    <radialGradient id="h" cx="0" cy="0" r="1" gradientTransform="rotate(90 52.74 85.949) scale(58.2973)" gradientUnits="userSpaceOnUse">
      <stop offset=".167" stop-color="#EB1000"/>
      <stop offset="1" stop-color="#EB1000" stop-opacity="0"/>
    </radialGradient>
    <clipPath id="a">
      <rect width="134" height="134" x="12.5" y="9" fill="#fff" rx="4.547"/>
    </clipPath>
    <clipPath id="c">
      <path fill="#fff" d="M12.5 9h134v134h-134z"/>
    </clipPath>
  </defs>
  <mask id="b" width="160" height="160" x="0" y="0" maskUnits="userSpaceOnUse" style="mask-type:luminance">
    <path fill="#fff" d="M108.008 26c-15.463.01-27.996 12.659-27.996 28.262-.004.014-.008.045-.012.065-.004-.02-.008-.05-.012-.065 0-15.603-12.533-28.253-27.996-28.262-17.052-.01-29.247 14.7-27.889 31.848 2.458 31.016 35.866 65.837 49.824 77.019a9.682 9.682 0 0 0 12.123.001c13.964-11.181 47.39-46.005 49.847-77.023 1.358-17.148-10.838-31.856-27.889-31.845Z"/>
  </mask>
  <g clip-path="url(#a)" mask="url(#b)">
    <rect width="134" height="134" x="12.5" y="9" fill="#FFECCF" rx="4.547"/>
    <g clip-path="url(#c)">
      <path fill="#FFECCF" d="M12.5 9h134v134h-134z"/>
      <circle cx="88.267" cy="14.198" r="58.297" fill="url(#d)" transform="rotate(-.08 88.267 14.198)"/>
      <path fill="url(#e)" d="M63.645-14.67a32.172 32.172 0 0 0-33.659-.101L-73.326 48.308c-10.118 6.178-10.135 20.76-.03 26.961l102.629 62.99a32.173 32.173 0 0 0 33.657-.023l102.418-63.048c10.051-6.188 10.069-20.689.031-26.9L63.645-14.67Z"/>
      <path fill="url(#f)" d="M31.811 72.62c2.29-50.026 44.702-88.723 94.728-86.433 50.026 2.29 88.723 44.701 86.433 94.727-2.29 50.026-44.701 88.724-94.727 86.434-50.026-2.291-88.724-44.702-86.434-94.728Z"/>
      <path fill="url(#g)" d="M-41.789 105.605c19.886-8.483 41.332-8.12 59.912-.699 37.18 14.885 58.814 5.682 73.819-31.413 7.474-18.614 22.066-34.378 41.974-42.871 39.803-16.954 85.753 1.442 102.683 41.127 16.93 39.685-1.6 85.563-41.394 102.539-19.952 8.512-41.44 8.114-60.048.627-37.12-14.806-58.713-5.568-73.699 31.571-7.493 18.57-22.082 34.28-41.967 42.764-39.771 16.966-85.722-1.43-102.642-41.093-16.921-39.663 1.591-85.585 41.362-102.552Z"/>
      <circle cx="138.689" cy="33.209" r="58.297" fill="url(#h)" transform="rotate(-.08 138.689 33.209)"/>
    </g>
  </g>
</svg>
