<svg xmlns="http://www.w3.org/2000/svg" width="160" height="160" fill="none" viewBox="0 0 160 160">
  <defs>
    <linearGradient id="e" x1="-19.922" x2="186.085" y1="131.011" y2="-1.943" gradientUnits="userSpaceOnUse">
      <stop offset=".06" stop-color="#8480FE"/>
      <stop offset=".6" stop-color="#8480FE" stop-opacity="0"/>
    </linearGradient>
    <linearGradient id="f" x1="150.996" x2="65.381" y1="43.401" y2="141.06" gradientUnits="userSpaceOnUse">
      <stop stop-color="#EB1000"/>
      <stop offset="1" stop-color="#EB1000" stop-opacity="0"/>
    </linearGradient>
    <linearGradient id="g" x1="39.96" x2="197.224" y1="148.798" y2="55.344" gradientUnits="userSpaceOnUse">
      <stop stop-color="#FC7D00" stop-opacity="0"/>
      <stop offset=".432" stop-color="#FC7D00"/>
      <stop offset=".609" stop-color="#FC7D00"/>
      <stop offset="1" stop-color="#FC7D00" stop-opacity="0"/>
    </linearGradient>
    <radialGradient id="d" cx="0" cy="0" r="1" gradientTransform="scale(56.9923 53.7253) rotate(90 0 1)" gradientUnits="userSpaceOnUse">
      <stop offset=".167" stop-color="#FF709F"/>
      <stop offset="1" stop-color="#FF709F" stop-opacity="0"/>
    </radialGradient>
    <radialGradient id="h" cx="0" cy="0" r="1" gradientTransform="scale(56.9923 53.7253) rotate(90 0 1)" gradientUnits="userSpaceOnUse">
      <stop offset=".167" stop-color="#EB1000"/>
      <stop offset="1" stop-color="#EB1000" stop-opacity="0"/>
    </radialGradient>
    <clipPath id="a">
      <rect width="131" height="123.491" x="13" y="20.654" fill="#fff" rx="3.461"/>
    </clipPath>
    <clipPath id="c">
      <path fill="#fff" d="M13 20.654h131v123.491H13z"/>
    </clipPath>
  </defs>
  <mask id="b" width="110" height="113" x="25" y="19" maskUnits="userSpaceOnUse" style="mask-type:luminance">
    <path fill="#fff" fill-rule="evenodd" d="M84 29.95c0 2.21-1.79 4-4 4s-4-1.79-4-4v-6.02c0-2.21 1.79-4 4-4s4 1.79 4 4v6.02Zm-6.2 13.73c-14.85 1.06-26.87 13.17-27.97 28.16-.81 11.14 4.28 21.12 12.45 27.09 2.65 1.94 4.27 5.01 4.27 8.32V114h26.53c.072 0 .144.011.216.022.049.007.096.014.144.018v-6.78c0-3.23 1.48-6.31 4.08-8.19a30.613 30.613 0 0 0 12.72-24.91c0-17.62-14.75-31.75-32.45-30.49l.01.01Zm19.37 30.9c-2.21 0-4-1.79-4-4 0-5.01-4.44-9.08-9.9-9.08-2.21 0-4-1.79-4-4s1.79-4 4-4c9.87 0 17.9 7.66 17.9 17.08 0 2.21-1.79 4-4 4ZM66.56 122v4.8c0 2.81 2.26 5.09 5.04 5.09h16.81c2.78 0 5.04-2.28 5.04-5.09v-4.84c-.047.004-.095.011-.143.018a1.438 1.438 0 0 1-.216.022H66.56ZM29.95 69.98h6.02c2.21 0 4 1.79 4 4s-1.79 4-4 4h-6.02c-2.21 0-4-1.79-4-4s1.79-4 4-4Zm100.09 0h-6.02c-2.21 0-4 1.79-4 4s1.79 4 4 4h6.02c2.21 0 4-1.79 4-4s-1.79-4-4-4Zm-17.479-34.22-4.25 4.25a4.008 4.008 0 0 0 0 5.66c.78.78 1.8 1.17 2.83 1.17s2.05-.39 2.83-1.17l4.25-4.25a4.008 4.008 0 0 0 0-5.66 4.008 4.008 0 0 0-5.66 0Zm-65.112.01 4.25 4.25a4.008 4.008 0 0 1 0 5.66c-.78.78-1.8 1.17-2.83 1.17s-2.05-.39-2.83-1.17l-4.25-4.25a4.008 4.008 0 0 1 0-5.66 4.008 4.008 0 0 1 5.66 0Z" clip-rule="evenodd"/>
  </mask>
  <g clip-path="url(#a)" mask="url(#b)">
    <rect width="131" height="123.491" x="13" y="20.654" fill="#FFECCF" rx="3.461"/>
    <g clip-path="url(#c)">
      <path fill="#FFECCF" d="M13 20.654h131v123.491H13z"/>
      <ellipse cx="56.992" cy="53.725" fill="url(#d)" rx="56.992" ry="53.725" transform="matrix(1 0 .00016 1 30 -28.206)"/>
      <path fill="url(#e)" d="M63-1.16c-10.06-5.868-22.807-5.904-32.905-.092l-101 58.132c-9.891 5.693-9.908 19.132-.03 24.846l100.332 58.05c10.083 5.833 22.83 5.826 32.904-.021l100.126-58.104c9.825-5.702 9.843-19.066.029-24.79L63-1.159Z"/>
      <path fill="url(#f)" d="M31.879 79.285c2.239-46.102 43.7-81.765 92.607-79.654 48.906 2.11 86.737 41.195 84.498 87.298-2.239 46.102-43.7 81.765-92.607 79.654-48.906-2.11-86.737-41.195-84.498-87.298Z"/>
      <path fill="url(#g)" d="M-40.074 109.683c19.44-7.818 40.407-7.482 58.571-.644 36.348 13.717 57.497 5.236 72.167-28.95 7.306-17.154 21.572-31.682 41.034-39.508 38.912-15.625 83.834 1.329 100.385 37.901 16.551 36.573-1.565 78.853-40.468 94.498-19.505 7.844-40.512 7.477-58.704.577-36.289-13.644-57.398-5.131-72.049 29.096-7.325 17.113-21.587 31.591-41.028 39.409-38.88 15.636-83.802-1.317-100.344-37.869-16.542-36.553 1.556-78.874 40.436-94.51Z"/>
      <ellipse cx="56.992" cy="53.725" fill="url(#h)" rx="56.992" ry="53.725" transform="matrix(1 0 .00016 1 79.293 -10.685)"/>
    </g>
  </g>
</svg>
