<svg xmlns="http://www.w3.org/2000/svg" width="160" height="160" fill="none" viewBox="0 0 160 160">
  <defs>
    <linearGradient id="e" x1="-19.922" x2="186.085" y1="131.011" y2="-1.943" gradientUnits="userSpaceOnUse">
      <stop offset=".06" stop-color="#8480FE"/>
      <stop offset=".6" stop-color="#8480FE" stop-opacity="0"/>
    </linearGradient>
    <linearGradient id="f" x1="150.996" x2="65.381" y1="43.401" y2="141.06" gradientUnits="userSpaceOnUse">
      <stop stop-color="#EB1000"/>
      <stop offset="1" stop-color="#EB1000" stop-opacity="0"/>
    </linearGradient>
    <linearGradient id="g" x1="39.96" x2="197.224" y1="148.798" y2="55.344" gradientUnits="userSpaceOnUse">
      <stop stop-color="#FC7D00" stop-opacity="0"/>
      <stop offset=".432" stop-color="#FC7D00"/>
      <stop offset=".609" stop-color="#FC7D00"/>
      <stop offset="1" stop-color="#FC7D00" stop-opacity="0"/>
    </linearGradient>
    <radialGradient id="d" cx="0" cy="0" r="1" gradientTransform="scale(56.9923 53.7253) rotate(90 0 1)" gradientUnits="userSpaceOnUse">
      <stop offset=".167" stop-color="#FF709F"/>
      <stop offset="1" stop-color="#FF709F" stop-opacity="0"/>
    </radialGradient>
    <radialGradient id="h" cx="0" cy="0" r="1" gradientTransform="scale(56.9923 53.7253) rotate(90 0 1)" gradientUnits="userSpaceOnUse">
      <stop offset=".167" stop-color="#EB1000"/>
      <stop offset="1" stop-color="#EB1000" stop-opacity="0"/>
    </radialGradient>
    <clipPath id="a">
      <rect width="131" height="123.491" x="13" y="20.654" fill="#fff" rx="3.461"/>
    </clipPath>
    <clipPath id="c">
      <path fill="#fff" d="M13 20.654h131v123.491H13z"/>
    </clipPath>
  </defs>
  <mask id="b" width="113" height="113" x="23" y="24" maskUnits="userSpaceOnUse" style="mask-type:luminance">
    <path fill="#fff" fill-rule="evenodd" d="M128.11 28.244a4 4 0 0 0-7.999-.128l-.056 3.498-3.503-.053a4 4 0 0 0-.123 7.999l3.498.053-.056 3.503a4 4 0 1 0 7.999.128l.056-3.508 3.503.054a4 4 0 0 0 .123-8l-3.498-.053.056-3.493ZM66.99 30.79a4 4 0 0 0-8 0v10.14a4 4 0 1 0 8 0V30.79Zm-25.03 2.823a4 4 0 0 1 5.587.887l5.96 8.21a4 4 0 1 1-6.474 4.7l-5.96-8.21a4 4 0 0 1 .887-5.587Zm-7.965 15.333a4 4 0 1 0-2.47 7.608l9.64 3.13a4 4 0 1 0 2.47-7.608l-9.64-3.13Zm12.21 19.08a4 4 0 0 1-2.57 5.039l-9.65 3.13a4 4 0 0 1-2.47-7.61l9.65-3.13a4 4 0 0 1 5.04 2.57Zm7.29 14.416a4 4 0 1 0-6.47-4.704l-5.96 8.2a4 4 0 1 0 6.47 4.704l5.96-8.2ZM66.98 84.22a4 4 0 0 0-8 0v10.14a4 4 0 1 0 8 0V84.22Zm17.052-50.596a4 4 0 0 1 .884 5.588l-5.96 8.2a4 4 0 1 1-6.472-4.704l5.96-8.2a4 4 0 0 1 5.588-.884Zm10.423 22.94a4 4 0 0 0-2.47-7.608l-9.64 3.13a4 4 0 0 0 2.47 7.608l9.64-3.13Zm-14.68 11.47a4 4 0 0 1 5.04-2.568l9.64 3.13a4 4 0 0 1-2.47 7.608l-9.64-3.13a4 4 0 0 1-2.57-5.04Zm-.828 9.706a4 4 0 1 0-6.474 4.7l5.96 8.21a4 4 0 1 0 6.474-4.7l-5.96-8.21Zm30.09 37.22a4 4 0 0 1 3.984 4.016l-.02 4.95a4 4 0 0 1-8-.032l.02-4.95a4 4 0 0 1 4.016-3.984Zm-8.94 1.182a4 4 0 0 0-3.973-6.944l-4.3 2.46a4 4 0 1 0 3.973 6.944l4.3-2.46Zm-9.734-20.573a4 4 0 0 1 5.469-1.446l4.28 2.49a4 4 0 1 1-4.023 6.915l-4.28-2.49a4 4 0 0 1-1.446-5.47Zm22.658-6.743a4 4 0 0 0-8-.032l-.02 4.95a4 4 0 1 0 8 .032l.02-4.95Zm14.672 6.778a4 4 0 0 1-1.486 5.458l-4.3 2.46a4 4 0 1 1-3.973-6.944l4.3-2.46a4 4 0 0 1 5.459 1.486Zm-5.751 13.589a4 4 0 1 0-4.023 6.915l4.28 2.49a4.001 4.001 0 0 0 4.023-6.915l-4.28-2.49Zm-98.461 15.296a4 4 0 0 1 4.06-3.938l3.496.053.054-3.505a4 4 0 0 1 7.999.122l-.054 3.506 3.506.054a4.001 4.001 0 0 1-.123 7.999l-3.505-.054-.054 3.495a4.001 4.001 0 0 1-8-.122l.055-3.496-3.496-.053a4 4 0 0 1-3.938-4.061Z" clip-rule="evenodd"/>
  </mask>
  <g clip-path="url(#a)" mask="url(#b)">
    <rect width="131" height="123.491" x="13" y="20.654" fill="#FFECCF" rx="3.461"/>
    <g clip-path="url(#c)">
      <path fill="#FFECCF" d="M13 20.654h131v123.491H13z"/>
      <ellipse cx="56.992" cy="53.725" fill="url(#d)" rx="56.992" ry="53.725" transform="matrix(1 0 .00016 1 30 -28.206)"/>
      <path fill="url(#e)" d="M63-1.16c-10.06-5.868-22.807-5.904-32.905-.092l-101 58.132c-9.891 5.693-9.908 19.132-.03 24.846l100.332 58.05c10.083 5.833 22.83 5.826 32.904-.021l100.126-58.104c9.825-5.702 9.843-19.066.029-24.79L63-1.159Z"/>
      <path fill="url(#f)" d="M31.879 79.285c2.239-46.102 43.7-81.765 92.607-79.654 48.906 2.11 86.737 41.195 84.498 87.298-2.239 46.102-43.7 81.765-92.607 79.654-48.906-2.11-86.737-41.195-84.498-87.298Z"/>
      <path fill="url(#g)" d="M-40.074 109.683c19.44-7.818 40.407-7.482 58.571-.644 36.348 13.717 57.497 5.236 72.167-28.95 7.306-17.154 21.572-31.682 41.034-39.508 38.912-15.625 83.834 1.329 100.385 37.901 16.551 36.573-1.565 78.853-40.468 94.498-19.505 7.844-40.512 7.477-58.704.577-36.289-13.644-57.398-5.131-72.049 29.096-7.325 17.113-21.587 31.591-41.028 39.409-38.88 15.636-83.802-1.317-100.344-37.869-16.542-36.553 1.556-78.874 40.436-94.51Z"/>
      <ellipse cx="56.992" cy="53.725" fill="url(#h)" rx="56.992" ry="53.725" transform="matrix(1 0 .00016 1 79.293 -10.685)"/>
    </g>
  </g>
</svg>
