<svg xmlns="http://www.w3.org/2000/svg" width="160" height="160" fill="none" viewBox="0 0 160 160">
  <defs>
    <linearGradient id="e" x1="109.278" x2="41.839" y1="19.392" y2="112.146" gradientUnits="userSpaceOnUse">
      <stop stop-color="#FF4885"/>
      <stop offset="1" stop-color="#FF4885" stop-opacity="0"/>
    </linearGradient>
    <linearGradient id="f" x1="64.963" x2="77.465" y1="-21.534" y2="63.346" gradientUnits="userSpaceOnUse">
      <stop offset=".156" stop-color="#7A6AFD"/>
      <stop offset="1" stop-color="#7A6AFD" stop-opacity="0"/>
    </linearGradient>
    <linearGradient id="g" x1="-96.942" x2="138.042" y1="148.66" y2="99.395" gradientUnits="userSpaceOnUse">
      <stop stop-color="#30A7FE" stop-opacity="0"/>
      <stop offset=".432" stop-color="#30A7FE" stop-opacity=".995"/>
      <stop offset=".609" stop-color="#30A7FE"/>
      <stop offset="1" stop-color="#30A7FE" stop-opacity="0"/>
    </linearGradient>
    <clipPath id="a">
      <rect width="125.6" height="118.4" x="18.4" y="23.2" fill="#fff" rx="10"/>
    </clipPath>
    <clipPath id="c">
      <rect width="125.6" height="118.4" x="18.4" y="23.2" fill="#fff" rx="10"/>
    </clipPath>
    <radialGradient id="d" cx="0" cy="0" r="1" gradientTransform="scale(181.344 170.948) rotate(90 .064 .655)" gradientUnits="userSpaceOnUse">
      <stop offset=".089" stop-color="#EB1000"/>
      <stop offset="1" stop-color="#EB1000" stop-opacity="0"/>
    </radialGradient>
  </defs>
  <mask id="b" width="70" height="108" x="45" y="26" maskUnits="userSpaceOnUse" style="mask-type:luminance">
    <path fill="#fff" stroke="#fff" stroke-width="3.5" d="M48.875 77.084v.001c-2.614 2.93-1.597 7.56 2.013 9.113l18.87 8.12a2.242 2.242 0 0 1 1.18 2.94v.002l-11.21 26.6c-2.517 5.969 5.232 10.896 9.572 6.082v-.001l41.8-46.389h.001c2.645-2.933 1.611-7.605-2.028-9.144l-19-8.05h-.002a2.242 2.242 0 0 1-1.19-2.952v-.002l11.57-27.259c2.545-5.981-5.246-10.928-9.575-6.08l-.445.497v.01L48.875 77.084Z"/>
  </mask>
  <g clip-path="url(#a)" mask="url(#b)">
    <g clip-path="url(#c)">
      <rect width="125.6" height="118.4" x="18.4" y="23.2" fill="#D9F4FD" rx="10"/>
      <ellipse cx="130.358" cy="101.038" fill="url(#d)" rx="181.344" ry="170.948"/>
      <path fill="url(#e)" d="M7.096 60.284C5.08 19.36 38.639-15.356 82.052-17.256c43.413-1.901 80.24 29.734 82.256 70.658 2.016 40.924-31.543 75.64-74.956 77.541-43.413 1.9-80.24-29.735-82.256-70.66Z"/>
      <path fill="url(#f)" d="M50.13-58.73c-9.793-5.712-22.201-5.747-32.031-.09L-80.216-2.233c-9.629 5.543-9.645 18.624-.03 24.187L17.42 78.461c9.815 5.678 22.223 5.67 32.03-.02l97.464-56.56c9.565-5.551 9.583-18.56.03-24.132L50.13-58.729Z"/>
      <path fill="url(#g)" d="M-44.213 79.831c20.264 0 38.62 7.732 51.91 20.204 26.58 24.988 48.615 25.009 75.195.064 13.29-12.536 31.668-20.29 51.955-20.29 40.551.022 73.401 30.905 73.401 69.027 0 38.123-32.85 68.984-73.401 68.984-20.332 0-38.71-7.774-52-20.311-26.557-24.902-48.57-24.881-75.15.107-13.29 12.494-31.646 20.204-51.91 20.204-40.529 0-73.378-30.883-73.378-68.984s32.85-69.005 73.378-69.005Z"/>
    </g>
  </g>
</svg>
