<svg xmlns="http://www.w3.org/2000/svg" width="160" height="160" fill="none" viewBox="0 0 160 160">
  <defs>
    <linearGradient id="e" x1="-25.279" x2="197.593" y1="127.391" y2="-16.448" gradientUnits="userSpaceOnUse">
      <stop offset=".06" stop-color="#8480FE"/>
      <stop offset=".6" stop-color="#8480FE" stop-opacity="0"/>
    </linearGradient>
    <linearGradient id="f" x1="159.63" x2="67.007" y1="32.609" y2="138.262" gradientUnits="userSpaceOnUse">
      <stop stop-color="#EB1000"/>
      <stop offset="1" stop-color="#EB1000" stop-opacity="0"/>
    </linearGradient>
    <linearGradient id="g" x1="39.505" x2="209.643" y1="146.634" y2="45.529" gradientUnits="userSpaceOnUse">
      <stop stop-color="#FC7D00" stop-opacity="0"/>
      <stop offset=".432" stop-color="#FC7D00"/>
      <stop offset=".609" stop-color="#FC7D00"/>
      <stop offset="1" stop-color="#FC7D00" stop-opacity="0"/>
    </linearGradient>
    <radialGradient id="d" cx="0" cy="0" r="1" gradientTransform="scale(61.6578 58.1233) rotate(90 0 1)" gradientUnits="userSpaceOnUse">
      <stop offset=".167" stop-color="#FF709F"/>
      <stop offset="1" stop-color="#FF709F" stop-opacity="0"/>
    </radialGradient>
    <radialGradient id="h" cx="0" cy="0" r="1" gradientTransform="scale(61.6578 58.1233) rotate(90 0 1)" gradientUnits="userSpaceOnUse">
      <stop offset=".167" stop-color="#EB1000"/>
      <stop offset="1" stop-color="#EB1000" stop-opacity="0"/>
    </radialGradient>
    <clipPath id="a">
      <rect width="141.724" height="133.6" x="10.338" y="8" fill="#fff" rx="3.461"/>
    </clipPath>
    <clipPath id="c">
      <path fill="#fff" d="M10.338 8h141.724v133.6H10.338z"/>
    </clipPath>
  </defs>
  <mask id="b" width="138" height="123" x="11" y="19" maskUnits="userSpaceOnUse" style="mask-type:luminance">
    <path fill="#fff" fill-rule="evenodd" d="M140.119 41.9a4 4 0 0 1 5.38-1.75h.01a4 4 0 0 1 1.75 5.38l-10.98 21.57a4.003 4.003 0 0 1-3.57 2.19c-.57 0-1.14-.13-1.69-.38l-21.17-9.87c-2.01-.94-2.88-3.32-1.94-5.32.94-2 3.32-2.87 5.32-1.93l13.83 6.45c-8.49-18.05-26.99-29.96-47.11-29.96-22.97 0-43.5 15.38-49.93 37.4a4.002 4.002 0 0 1-4.96 2.72 4 4 0 0 1-2.72-4.96c7.42-25.41 31.11-43.16 57.61-43.16 22.93 0 44.03 13.4 53.98 33.79l6.19-12.17ZM129.8 94.89a4 4 0 0 1 4.96-2.72v.01a4 4 0 0 1 2.72 4.96c-7.42 25.41-31.11 43.16-57.61 43.16-22.82 0-43.83-13.28-53.84-33.51l-6.15 12.09a4.003 4.003 0 0 1-3.57 2.19c-.61 0-1.23-.14-1.81-.44a4 4 0 0 1-1.75-5.38l10.98-21.58a4.009 4.009 0 0 1 5.26-1.81l21.17 9.87c2.01.94 2.87 3.32 1.94 5.32a4.01 4.01 0 0 1-5.32 1.93l-13.95-6.51c8.51 17.98 26.97 29.82 47.04 29.82 22.97 0 43.5-15.38 49.93-37.4Z" clip-rule="evenodd"/>
    <path fill="#fff" d="m145.499 40.15-.452.892.213.108h.239v-1Zm-5.38 1.75.892.453-.892-.453Zm5.39-1.75.453-.892-.214-.108h-.239v1Zm1.75 5.38.891.454.001-.001-.892-.453Zm-10.98 21.57.891.455v-.001l-.891-.454Zm-5.26 1.81-.422.906.008.004.414-.91Zm-21.17-9.87-.423.906h.001l.422-.906Zm3.38-7.25-.425.905.003.001.422-.906Zm13.83 6.45-.422.906 2.503 1.168-1.176-2.5-.905.426Zm-97.04 7.44-.96-.28.96.28Zm-4.96 2.72.285-.959h-.004l-.28.959Zm-2.72-4.96.96.28-.96-.28Zm111.59-9.37-.898.439.88 1.803.91-1.789-.892-.453Zm.831 38.1h1v-.75l-.719-.21-.281.96Zm-4.96 2.72-.96-.28.96.28Zm4.96-2.71h-1v.75l.719.21.281-.96Zm2.72 4.96-.96-.28.96.28Zm-111.45 9.65.896-.443-.884-1.787-.903 1.777.89.453Zm-6.15 12.09.89.455.001-.002-.891-.453Zm-5.38 1.75.46-.888-.008-.004-.452.892Zm-1.75-5.38-.891-.453.89.453Zm10.98-21.58-.89-.455-.001.001.89.454Zm5.26-1.81-.423.906.423-.906Zm21.17 9.87.424-.906h-.002l-.422.906Zm1.94 5.32.905.425.002-.003-.907-.422Zm-5.32 1.93-.423.906.001.001.422-.907Zm-13.95-6.51.423-.906-2.514-1.173 1.187 2.507.904-.428Zm113.122-63.212a5 5 0 0 0-6.724 2.19l1.783.905a3 3 0 0 1 4.036-1.311l.905-1.784Zm-.443-.108h-.01v2h.01v-2Zm2.642 6.833a5.001 5.001 0 0 0-2.189-6.725l-.905 1.784a3.002 3.002 0 0 1 1.311 4.035l1.783.906Zm-10.981 21.57 10.98-21.57-1.782-.907-10.98 21.57 1.782.908Zm-4.461 2.737c1.824 0 3.574-1 4.461-2.735l-1.781-.91a3.003 3.003 0 0 1-2.68 1.645v2Zm-2.104-.47c.669.305 1.38.47 2.104.47v-2a3.09 3.09 0 0 1-1.276-.29l-.828 1.82Zm-21.178-9.874 21.17 9.87.845-1.812-21.17-9.87-.845 1.812Zm-2.423-6.651c-1.177 2.505-.084 5.479 2.422 6.65l.847-1.81a2.998 2.998 0 0 1-1.459-3.99l-1.81-.85Zm6.651-2.41c-2.505-1.177-5.478-.085-6.651 2.41l1.81.85a3.002 3.002 0 0 1 3.99-1.45l.851-1.81Zm13.827 6.449-13.83-6.45-.845 1.812 13.83 6.45.845-1.812ZM79.949 29.28c19.729 0 37.879 11.683 46.205 29.386l1.81-.852c-8.653-18.397-27.503-30.534-48.015-30.534v2ZM30.98 65.96c6.305-21.592 26.444-36.68 48.97-36.68v-2c-23.413 0-44.335 15.672-50.89 38.12l1.92.56Zm-4.8 3.6c2.16 0 4.162-1.41 4.8-3.6l-1.92-.56a3.002 3.002 0 0 1-2.88 2.16v2Zm-1.405-.201c.47.14.946.201 1.405.201v-2a2.94 2.94 0 0 1-.835-.118l-.57 1.917Zm-3.395-6.2a5 5 0 0 0 3.4 6.2l.56-1.919a3 3 0 0 1-2.04-3.72l-1.92-.56ZM79.95 19.28c-26.944 0-51.025 18.043-58.57 43.88l1.92.56c7.295-24.983 30.594-42.44 56.65-42.44v-2Zm54.879 34.351C124.713 32.901 103.267 19.28 79.95 19.28v2c22.544 0 43.297 13.178 53.082 33.229l1.797-.878Zm4.4-12.184-6.19 12.17 1.783.906 6.19-12.17-1.783-.906Zm-4.187 49.763a5.001 5.001 0 0 0-6.201 3.4l1.92.56a3 3 0 0 1 3.719-2.04l.562-1.92Zm.719.97v-.01h-2v.01h2Zm2.68 5.24a5.001 5.001 0 0 0-3.399-6.2l-.562 1.92a3 3 0 0 1 2.041 3.72l1.92.56ZM79.87 141.3c26.944 0 51.025-18.043 58.57-43.88l-1.92-.56c-7.295 24.983-30.594 42.44-56.65 42.44v2Zm-54.736-34.067C35.31 127.8 56.664 141.3 79.87 141.3v-2c-22.435 0-43.1-13.06-52.944-32.953l-1.792.886Zm-4.363 12.1 6.15-12.09-1.782-.906-6.15 12.09 1.782.906Zm-4.461 2.737c1.824 0 3.574-1 4.46-2.735l-1.78-.91a3.002 3.002 0 0 1-2.68 1.645v2Zm-2.27-.552a4.93 4.93 0 0 0 2.27.552v-2c-.456 0-.918-.104-1.35-.328l-.92 1.776Zm-2.182-6.721a5.001 5.001 0 0 0 2.19 6.725l.905-1.784a3 3 0 0 1-1.311-4.035l-1.784-.906Zm10.98-21.58-10.98 21.58 1.783.906 10.98-21.58-1.782-.907Zm6.575-2.263a5.009 5.009 0 0 0-6.574 2.261l1.782.91a3.009 3.009 0 0 1 3.946-1.359l.846-1.812Zm21.17 9.87-21.17-9.87-.846 1.812 21.17 9.87.845-1.812Zm2.424 6.648a5.007 5.007 0 0 0-2.423-6.648l-.848 1.812a3.006 3.006 0 0 1 1.457 3.992l1.814.844Zm-6.649 2.415a5.01 5.01 0 0 0 6.647-2.412l-1.81-.85a3.011 3.011 0 0 1-3.993 1.448l-.844 1.814Zm-13.951-6.511 13.95 6.51.846-1.812-13.95-6.51-.846 1.812ZM79.87 131.29c-19.68 0-37.79-11.614-46.136-29.248l-1.808.856C40.6 121.224 59.41 133.29 79.87 133.29v-2Zm48.97-36.68c-6.305 21.592-26.444 36.68-48.97 36.68v2c23.413 0 44.335-15.672 50.89-38.12l-1.92-.56Z"/>
  </mask>
  <g clip-path="url(#a)" mask="url(#b)">
    <rect width="141.724" height="133.6" x="10.338" y="8" fill="#FFECCF" rx="3.461"/>
    <g clip-path="url(#c)">
      <path fill="#FFECCF" d="M10.338 8h141.724v133.6H10.338z"/>
      <ellipse cx="61.658" cy="58.123" fill="url(#d)" rx="61.658" ry="58.123" transform="matrix(1 0 .00016 1 28.729 -44.86)"/>
      <path fill="url(#e)" d="M64.431-15.6c-10.884-6.349-24.674-6.388-35.599-.1L-80.435 47.19c-10.701 6.16-10.72 20.699-.033 26.881l108.546 62.802c10.908 6.31 24.698 6.303 35.597-.023l108.322-62.86c10.63-6.17 10.65-20.627.032-26.82L64.431-15.6Z"/>
      <path fill="url(#f)" d="M30.762 71.43C33.185 21.553 78.04-17.029 130.95-14.745c52.91 2.283 93.838 44.568 91.416 94.445-2.422 49.876-47.278 88.458-100.188 86.175-52.91-2.284-93.838-44.568-91.415-94.445Z"/>
      <path fill="url(#g)" d="M-47.08 104.317c21.031-8.458 43.714-8.095 63.365-.697 39.323 14.84 62.204 5.665 78.074-31.32 7.905-18.558 23.338-34.275 44.394-42.743 42.097-16.903 90.696 1.438 108.602 41.005 17.906 39.566-1.693 85.308-43.78 102.233-21.102 8.486-43.829 8.089-63.51.624-39.26-14.761-62.097-5.551-77.947 31.478-7.925 18.514-23.355 34.177-44.386 42.635-42.064 16.916-90.663-1.425-108.559-40.969-17.896-39.545 1.683-85.33 43.746-102.246Z"/>
      <ellipse cx="61.658" cy="58.123" fill="url(#h)" rx="61.658" ry="58.123" transform="matrix(1 0 .00016 1 82.058 -25.905)"/>
    </g>
  </g>
</svg>
