<svg xmlns="http://www.w3.org/2000/svg" width="160" height="160" fill="none" viewBox="0 0 160 160">
  <defs>
    <linearGradient id="e" x1="111.105" x2="30.524" y1="5.954" y2="110.429" gradientUnits="userSpaceOnUse">
      <stop stop-color="#FF4885"/>
      <stop offset="1" stop-color="#FF4885" stop-opacity="0"/>
    </linearGradient>
    <linearGradient id="f" x1="62.012" x2="77.556" y1="-42.142" y2="57.343" gradientUnits="userSpaceOnUse">
      <stop offset=".156" stop-color="#7A6AFD"/>
      <stop offset="1" stop-color="#7A6AFD" stop-opacity="0"/>
    </linearGradient>
    <linearGradient id="g" x1="-117.349" x2="144.196" y1="157.868" y2="106.177" gradientUnits="userSpaceOnUse">
      <stop stop-color="#30A7FE" stop-opacity="0"/>
      <stop offset=".432" stop-color="#30A7FE" stop-opacity=".995"/>
      <stop offset=".609" stop-color="#30A7FE"/>
      <stop offset="1" stop-color="#30A7FE" stop-opacity="0"/>
    </linearGradient>
    <clipPath id="a">
      <rect width="139.142" height="139.142" x="10.429" y="10.429" fill="#fff" rx="10"/>
    </clipPath>
    <clipPath id="c">
      <rect width="139.142" height="139.142" x="10.429" y="10.429" fill="#fff" rx="10"/>
    </clipPath>
    <radialGradient id="d" cx="0" cy="0" r="1" gradientTransform="rotate(90 16.277 118.18) scale(200.895)" gradientUnits="userSpaceOnUse">
      <stop offset=".089" stop-color="#EB1000"/>
      <stop offset="1" stop-color="#EB1000" stop-opacity="0"/>
    </radialGradient>
  </defs>
  <mask id="b" width="162" height="162" x="-1" y="-1" maskUnits="userSpaceOnUse" style="mask-type:luminance">
    <path fill="#fff" d="M116.524 69.207c.004-.21.015-.418.015-.63 0-16.45-12.777-29.785-28.538-29.785-12.715 0-23.483 8.681-27.172 20.673a19.998 19.998 0 0 0-7.94-1.645c-11.502 0-20.826 9.732-20.826 21.736 0 1.692.203 3.33.553 4.91-7.598 2.172-13.188 9.41-13.188 18.03 0 10.229 7.867 18.528 17.63 18.696v.016h77.897v-.004c.047 0 .093.004.14.004 13.77 0 24.933-11.651 24.933-26.023 0-13.871-10.4-25.204-23.504-25.978Z"/>
  </mask>
  <g clip-path="url(#a)" mask="url(#b)">
    <g clip-path="url(#c)">
      <rect width="139.142" height="139.142" x="10.429" y="10.429" fill="#D9F4FD" rx="10"/>
      <circle cx="134.458" cy="101.903" r="200.895" fill="url(#d)"/>
      <path fill="url(#e)" d="M-2.094 54.01C-4.327 5.915 32.85-34.883 80.943-37.116c48.094-2.233 88.891 34.944 91.124 83.037 2.234 48.094-34.943 88.891-83.037 91.124C40.937 139.28.14 102.102-2.094 54.009Z"/>
      <path fill="url(#f)" d="M45.58-85.853a33.917 33.917 0 0 0-35.485-.106L-98.82-19.46c-10.667 6.513-10.685 21.886-.033 28.424L9.343 75.37a33.917 33.917 0 0 0 35.483-.023L152.8 8.879c10.596-6.524 10.615-21.811.032-28.36L45.58-85.852Z"/>
      <path fill="url(#g)" d="M-58.935 76.981c22.449 0 42.783 9.086 57.506 23.743 29.445 29.366 53.858 29.391 83.303.076 14.723-14.733 35.083-23.844 57.557-23.844 44.923.025 81.314 36.318 81.314 81.119 0 44.8-36.391 81.068-81.314 81.068-22.525 0-42.885-9.136-57.608-23.869-29.42-29.265-53.806-29.24-83.252.126-14.723 14.682-35.057 23.743-57.506 23.743-44.898 0-81.29-36.293-81.29-81.068 0-44.776 36.392-81.094 81.29-81.094Z"/>
    </g>
  </g>
</svg>
