<svg xmlns="http://www.w3.org/2000/svg" width="160" height="160" fill="none" viewBox="0 0 160 160">
  <defs>
    <linearGradient id="e" x1="108.785" x2="38.446" y1="18.029" y2="114.77" gradientUnits="userSpaceOnUse">
      <stop stop-color="#FF4885"/>
      <stop offset="1" stop-color="#FF4885" stop-opacity="0"/>
    </linearGradient>
    <linearGradient id="f" x1="62.565" x2="75.604" y1="-24.657" y2="63.872" gradientUnits="userSpaceOnUse">
      <stop offset=".156" stop-color="#7A6AFD"/>
      <stop offset="1" stop-color="#7A6AFD" stop-opacity="0"/>
    </linearGradient>
    <linearGradient id="g" x1="-106.302" x2="138.786" y1="152.855" y2="101.471" gradientUnits="userSpaceOnUse">
      <stop stop-color="#30A7FE" stop-opacity="0"/>
      <stop offset=".432" stop-color="#30A7FE" stop-opacity=".995"/>
      <stop offset=".609" stop-color="#30A7FE"/>
      <stop offset="1" stop-color="#30A7FE" stop-opacity="0"/>
    </linearGradient>
    <clipPath id="a">
      <rect width="131" height="123.491" x="14" y="22" fill="#fff" rx="10"/>
    </clipPath>
    <clipPath id="c">
      <rect width="131" height="123.491" x="14" y="22" fill="#fff" rx="10"/>
    </clipPath>
    <radialGradient id="d" cx="0" cy="0" r="1" gradientTransform="scale(189.141 178.298) rotate(90 .056 .635)" gradientUnits="userSpaceOnUse">
      <stop offset=".089" stop-color="#EB1000"/>
      <stop offset="1" stop-color="#EB1000" stop-opacity="0"/>
    </radialGradient>
  </defs>
  <mask id="b" width="118" height="118" x="21" y="21" maskUnits="userSpaceOnUse" style="mask-type:luminance">
    <path fill="#fff" fill-rule="evenodd" d="M90.31 21.68h31.97c8.837 0 16 7.163 16 16v31.97c0 8.837-7.163 16-16 16H90.31c-8.837 0-16-7.163-16-16V37.68c0-8.837 7.163-16 16-16ZM35.72 41.14h16.52c7.732 0 14 6.268 14 14v16.52c0 7.732-6.268 14-14 14H35.72c-7.732 0-14-6.268-14-14V55.14c0-7.732 6.268-14 14-14ZM52.24 93.8H35.72c-7.732 0-14 6.268-14 14v16.52c0 7.732 6.268 14 14 14h16.52c7.732 0 14-6.268 14-14V107.8c0-7.732-6.268-14-14-14Zm36.07 0h16.52c7.732 0 14 6.268 14 14v16.52c0 7.732-6.268 14-14 14H88.31c-7.732 0-14-6.268-14-14V107.8c0-7.732 6.268-14 14-14Z" clip-rule="evenodd"/>
  </mask>
  <g clip-path="url(#a)" mask="url(#b)">
    <g clip-path="url(#c)">
      <rect width="131" height="123.491" x="14" y="22" fill="#D9F4FD" rx="10"/>
      <ellipse cx="130.772" cy="103.185" fill="url(#d)" rx="189.141" ry="178.298"/>
      <path fill="url(#e)" d="M2.21 60.678C.107 17.994 35.109-18.214 80.388-20.196c45.28-1.982 83.69 31.013 85.793 73.697 2.102 42.684-32.899 78.892-78.179 80.874-45.28 1.982-83.69-31.013-85.792-73.697Z"/>
      <path fill="url(#f)" d="M47.094-63.452c-10.214-5.958-23.156-5.995-33.408-.094L-88.857-4.526c-10.043 5.78-10.06 19.424-.03 25.227L12.978 79.636c10.237 5.922 23.178 5.915 33.407-.021L148.04 20.624c9.976-5.79 9.994-19.357.03-25.169L47.094-63.452Z"/>
      <path fill="url(#g)" d="M-51.306 81.066c21.136 0 40.28 8.064 54.142 21.073 27.723 26.062 50.706 26.084 78.429.067 13.86-13.076 33.03-21.162 54.189-21.162 42.294.022 76.557 32.233 76.557 71.994 0 39.762-34.263 71.95-76.557 71.95-21.207 0-40.376-8.108-54.237-21.184-27.699-25.973-50.659-25.951-78.381.111-13.861 13.032-33.006 21.073-54.142 21.073-42.27 0-76.533-32.21-76.533-71.95 0-39.739 34.262-71.972 76.533-71.972Z"/>
    </g>
  </g>
</svg>
