<svg xmlns="http://www.w3.org/2000/svg" width="160" height="160" fill="none" viewBox="0 0 160 160">
  <defs>
    <linearGradient id="e" x1="107.785" x2="37.446" y1="16.683" y2="113.425" gradientUnits="userSpaceOnUse">
      <stop stop-color="#FF4885"/>
      <stop offset="1" stop-color="#FF4885" stop-opacity="0"/>
    </linearGradient>
    <linearGradient id="f" x1="61.565" x2="74.604" y1="-26.003" y2="62.526" gradientUnits="userSpaceOnUse">
      <stop offset=".156" stop-color="#7A6AFD"/>
      <stop offset="1" stop-color="#7A6AFD" stop-opacity="0"/>
    </linearGradient>
    <linearGradient id="g" x1="-107.302" x2="137.786" y1="151.509" y2="100.126" gradientUnits="userSpaceOnUse">
      <stop stop-color="#30A7FE" stop-opacity="0"/>
      <stop offset=".432" stop-color="#30A7FE" stop-opacity=".995"/>
      <stop offset=".609" stop-color="#30A7FE"/>
      <stop offset="1" stop-color="#30A7FE" stop-opacity="0"/>
    </linearGradient>
    <clipPath id="a">
      <rect width="131" height="123.491" x="13" y="20.654" fill="#fff" rx="10"/>
    </clipPath>
    <clipPath id="c">
      <rect width="131" height="123.491" x="13" y="20.654" fill="#fff" rx="10"/>
    </clipPath>
    <radialGradient id="d" cx="0" cy="0" r="1" gradientTransform="scale(189.141 178.298) rotate(90 .057 .629)" gradientUnits="userSpaceOnUse">
      <stop offset=".089" stop-color="#EB1000"/>
      <stop offset="1" stop-color="#EB1000" stop-opacity="0"/>
    </radialGradient>
  </defs>
  <mask id="b" width="120" height="110" x="20" y="25" maskUnits="userSpaceOnUse" style="mask-type:luminance">
    <path fill="#fff" fill-rule="evenodd" d="m61.126 39.715 5.655 5.655 5.78 5.78 11.3 11.3a9.367 9.367 0 0 0 13.25 0 9.367 9.367 0 0 0 0-13.25l-11.3-11.3-5.78-5.78-1.88-1.88a15.883 15.883 0 0 0-4.46-3.09l-.154-.074a6.294 6.294 0 0 0-.546-.246c-.63-.26-1.28-.46-1.93-.64-5.34-1.42-11.26-.05-15.45 4.13L25.18 60.75c-4.89 4.89-5.93 12.15-3.17 18.08l33.46-33.46 5.655-5.655Zm43.263-9.315 30.43 30.43v.02c6.25 6.25 6.25 16.38 0 22.63l-33.88 33.88-14.28 14.28a9.358 9.358 0 0 1-13.25-.01h-.01a9.367 9.367 0 0 1 0-13.25 9.358 9.358 0 0 1-13.25-.01h-.01c-3.63-3.63-3.65-9.49-.08-13.16a9.359 9.359 0 0 1-13.16-.1h-.01c-3.66-3.66-3.66-9.6 0-13.26h-.01a9.358 9.358 0 0 1-13.25-.01h-.01c-.29-.29-.55-.6-.79-.91-2.84-3.68-2.58-8.98.79-12.35l14.96-14.97 12.56-12.56 5.78 5.78 11.3 11.3c3.28 3.28 7.64 5.09 12.28 5.09s9-1.81 12.28-5.09c6.77-6.78 6.77-17.8 0-24.57l-16.37-16.37c5.9-2.71 13.11-1.66 17.98 3.21Z" clip-rule="evenodd"/>
  </mask>
  <g clip-path="url(#a)" mask="url(#b)">
    <g clip-path="url(#c)">
      <rect width="131" height="123.491" x="13" y="20.654" fill="#D9F4FD" rx="10"/>
      <ellipse cx="129.772" cy="101.84" fill="url(#d)" rx="189.141" ry="178.298"/>
      <path fill="url(#e)" d="M1.21 59.333C-.893 16.649 34.109-19.56 79.388-21.542c45.28-1.982 83.69 31.014 85.793 73.697 2.102 42.684-32.899 78.893-78.179 80.875-45.28 1.982-83.69-31.013-85.792-73.697Z"/>
      <path fill="url(#f)" d="M46.094-64.797c-10.214-5.959-23.156-5.995-33.408-.095L-89.857-5.872c-10.043 5.78-10.06 19.425-.03 25.227L11.978 78.291c10.237 5.922 23.178 5.915 33.407-.02L147.04 19.278c9.976-5.79 9.994-19.358.03-25.17L46.094-64.796Z"/>
      <path fill="url(#g)" d="M-52.306 79.72c21.136 0 40.28 8.064 54.142 21.073 27.723 26.063 50.706 26.085 78.429.067 13.86-13.076 33.03-21.162 54.189-21.162 42.294.023 76.557 32.233 76.557 71.995 0 39.762-34.263 71.95-76.557 71.95-21.207 0-40.376-8.109-54.237-21.184-27.699-25.974-50.659-25.951-78.381.111-13.861 13.031-33.006 21.073-54.142 21.073-42.27 0-76.533-32.211-76.533-71.95 0-39.74 34.262-71.972 76.533-71.972Z"/>
    </g>
  </g>
</svg>
