<svg xmlns="http://www.w3.org/2000/svg" width="160" height="160" fill="none" viewBox="0 0 160 160">
  <defs>
    <linearGradient id="e" x1="111.105" x2="30.524" y1="5.954" y2="110.429" gradientUnits="userSpaceOnUse">
      <stop stop-color="#FF4885"/>
      <stop offset="1" stop-color="#FF4885" stop-opacity="0"/>
    </linearGradient>
    <linearGradient id="f" x1="62.012" x2="77.556" y1="-42.142" y2="57.343" gradientUnits="userSpaceOnUse">
      <stop offset=".156" stop-color="#7A6AFD"/>
      <stop offset="1" stop-color="#7A6AFD" stop-opacity="0"/>
    </linearGradient>
    <linearGradient id="g" x1="-117.349" x2="144.196" y1="157.868" y2="106.177" gradientUnits="userSpaceOnUse">
      <stop stop-color="#30A7FE" stop-opacity="0"/>
      <stop offset=".432" stop-color="#30A7FE" stop-opacity=".995"/>
      <stop offset=".609" stop-color="#30A7FE"/>
      <stop offset="1" stop-color="#30A7FE" stop-opacity="0"/>
    </linearGradient>
    <clipPath id="a">
      <rect width="139.142" height="139.142" x="10.429" y="10.429" fill="#fff" rx="10"/>
    </clipPath>
    <clipPath id="c">
      <rect width="139.142" height="139.142" x="10.429" y="10.429" fill="#fff" rx="10"/>
    </clipPath>
    <radialGradient id="d" cx="0" cy="0" r="1" gradientTransform="rotate(90 16.277 118.18) scale(200.895)" gradientUnits="userSpaceOnUse">
      <stop offset=".089" stop-color="#EB1000"/>
      <stop offset="1" stop-color="#EB1000" stop-opacity="0"/>
    </radialGradient>
  </defs>
  <mask id="b" width="162" height="162" x="-1" y="-1" maskUnits="userSpaceOnUse" style="mask-type:luminance">
    <path fill="#fff" d="M119.639 35.937H40.36c-6.913 0-12.518 5.228-12.518 11.678v41.442c0 6.45 5.605 11.678 12.518 11.678h11.21c.025 5.51-.021 13.396-.068 19.401-.026 3.349 4.194 5.161 6.906 2.967l27.66-22.368h33.571c6.914 0 12.518-5.229 12.518-11.678V47.615c0-6.45-5.604-11.678-12.518-11.678Z"/>
  </mask>
  <g clip-path="url(#a)" mask="url(#b)">
    <g clip-path="url(#c)">
      <rect width="139.142" height="139.142" x="10.429" y="10.429" fill="#D9F4FD" rx="10"/>
      <circle cx="134.458" cy="101.903" r="200.895" fill="url(#d)"/>
      <path fill="url(#e)" d="M-2.094 54.009C-4.327 5.916 32.85-34.882 80.943-37.115c48.094-2.233 88.891 34.944 91.124 83.037 2.234 48.093-34.943 88.891-83.037 91.124C40.937 139.28.14 102.102-2.094 54.009Z"/>
      <path fill="url(#f)" d="M45.58-85.853a33.917 33.917 0 0 0-35.485-.106L-98.82-19.46c-10.667 6.513-10.685 21.886-.033 28.424L9.343 75.37a33.917 33.917 0 0 0 35.483-.023L152.8 8.879c10.596-6.524 10.615-21.811.032-28.36L45.58-85.852Z"/>
      <path fill="url(#g)" d="M-58.935 76.981c22.448 0 42.783 9.086 57.506 23.743 29.445 29.366 53.857 29.391 83.303.076 14.722-14.733 35.083-23.844 57.557-23.844 44.923.025 81.314 36.318 81.314 81.119 0 44.8-36.391 81.068-81.314 81.068-22.525 0-42.885-9.136-57.608-23.869-29.42-29.265-53.807-29.24-83.252.126-14.723 14.682-35.058 23.743-57.506 23.743-44.898 0-81.29-36.293-81.29-81.068 0-44.776 36.392-81.094 81.29-81.094Z"/>
    </g>
  </g>
</svg>
