<svg xmlns="http://www.w3.org/2000/svg" width="160" height="160" fill="none" viewBox="0 0 160 160">
  <defs>
    <linearGradient id="e" x1="107.785" x2="37.446" y1="16.683" y2="113.425" gradientUnits="userSpaceOnUse">
      <stop stop-color="#FF4885"/>
      <stop offset="1" stop-color="#FF4885" stop-opacity="0"/>
    </linearGradient>
    <linearGradient id="f" x1="61.565" x2="74.604" y1="-26.003" y2="62.526" gradientUnits="userSpaceOnUse">
      <stop offset=".156" stop-color="#7A6AFD"/>
      <stop offset="1" stop-color="#7A6AFD" stop-opacity="0"/>
    </linearGradient>
    <linearGradient id="g" x1="-107.302" x2="137.786" y1="151.509" y2="100.126" gradientUnits="userSpaceOnUse">
      <stop stop-color="#30A7FE" stop-opacity="0"/>
      <stop offset=".432" stop-color="#30A7FE" stop-opacity=".995"/>
      <stop offset=".609" stop-color="#30A7FE"/>
      <stop offset="1" stop-color="#30A7FE" stop-opacity="0"/>
    </linearGradient>
    <clipPath id="a">
      <rect width="131" height="123.491" x="13" y="20.654" fill="#fff" rx="10"/>
    </clipPath>
    <clipPath id="c">
      <rect width="131" height="123.491" x="13" y="20.654" fill="#fff" rx="10"/>
    </clipPath>
    <radialGradient id="d" cx="0" cy="0" r="1" gradientTransform="scale(189.141 178.298) rotate(90 .057 .629)" gradientUnits="userSpaceOnUse">
      <stop offset=".089" stop-color="#EB1000"/>
      <stop offset="1" stop-color="#EB1000" stop-opacity="0"/>
    </radialGradient>
  </defs>
  <mask id="b" width="113" height="113" x="23" y="24" maskUnits="userSpaceOnUse" style="mask-type:luminance">
    <path fill="#fff" fill-rule="evenodd" d="M128.11 28.244a4 4 0 0 0-7.999-.128l-.056 3.498-3.503-.053a4 4 0 0 0-.123 7.999l3.498.053-.056 3.503a4 4 0 1 0 7.999.128l.056-3.508 3.503.054a4 4 0 0 0 .123-8l-3.498-.053.056-3.493ZM66.99 30.79a4 4 0 0 0-8 0v10.14a4 4 0 1 0 8 0V30.79Zm-25.03 2.823a4 4 0 0 1 5.587.887l5.96 8.21a4 4 0 1 1-6.474 4.7l-5.96-8.21a4 4 0 0 1 .887-5.587Zm-7.965 15.333a4 4 0 1 0-2.47 7.608l9.64 3.13a4 4 0 1 0 2.47-7.608l-9.64-3.13Zm12.21 19.08a4 4 0 0 1-2.57 5.039l-9.65 3.13a4 4 0 0 1-2.47-7.61l9.65-3.13a4 4 0 0 1 5.04 2.57Zm7.29 14.416a4 4 0 1 0-6.47-4.704l-5.96 8.2a4 4 0 1 0 6.47 4.704l5.96-8.2ZM66.98 84.22a4 4 0 0 0-8 0v10.14a4 4 0 1 0 8 0V84.22Zm17.052-50.596a4 4 0 0 1 .884 5.588l-5.96 8.2a4 4 0 1 1-6.472-4.704l5.96-8.2a4 4 0 0 1 5.588-.884Zm10.423 22.94a4 4 0 0 0-2.47-7.608l-9.64 3.13a4 4 0 0 0 2.47 7.608l9.64-3.13Zm-14.68 11.47a4 4 0 0 1 5.04-2.568l9.64 3.13a4 4 0 0 1-2.47 7.608l-9.64-3.13a4 4 0 0 1-2.57-5.04Zm-.828 9.706a4 4 0 1 0-6.474 4.7l5.96 8.21a4 4 0 1 0 6.474-4.7l-5.96-8.21Zm30.09 37.22a4 4 0 0 1 3.984 4.016l-.02 4.95a4 4 0 0 1-8-.032l.02-4.95a4 4 0 0 1 4.016-3.984Zm-8.94 1.182a4 4 0 0 0-3.973-6.944l-4.3 2.46a4 4 0 1 0 3.973 6.944l4.3-2.46Zm-9.734-20.573a4 4 0 0 1 5.469-1.446l4.28 2.49a4 4 0 1 1-4.023 6.915l-4.28-2.49a4 4 0 0 1-1.446-5.47Zm22.658-6.743a4 4 0 0 0-8-.032l-.02 4.95a4 4 0 1 0 8 .032l.02-4.95Zm14.672 6.778a4 4 0 0 1-1.486 5.458l-4.3 2.46a4 4 0 1 1-3.973-6.944l4.3-2.46a4 4 0 0 1 5.459 1.486Zm-5.751 13.589a4 4 0 1 0-4.023 6.915l4.28 2.49a4.001 4.001 0 0 0 4.023-6.915l-4.28-2.49Zm-98.461 15.296a4 4 0 0 1 4.06-3.938l3.496.053.054-3.505a4 4 0 0 1 7.999.122l-.054 3.506 3.506.054a4.001 4.001 0 0 1-.123 7.999l-3.505-.054-.054 3.495a4.001 4.001 0 0 1-8-.122l.055-3.496-3.496-.053a4 4 0 0 1-3.938-4.061Z" clip-rule="evenodd"/>
  </mask>
  <g clip-path="url(#a)" mask="url(#b)">
    <g clip-path="url(#c)">
      <rect width="131" height="123.491" x="13" y="20.654" fill="#D9F4FD" rx="10"/>
      <ellipse cx="129.772" cy="101.84" fill="url(#d)" rx="189.141" ry="178.298"/>
      <path fill="url(#e)" d="M1.21 59.333C-.893 16.649 34.109-19.56 79.388-21.542c45.28-1.982 83.69 31.014 85.793 73.697 2.102 42.684-32.899 78.893-78.179 80.875-45.28 1.982-83.69-31.013-85.792-73.697Z"/>
      <path fill="url(#f)" d="M46.094-64.797c-10.214-5.959-23.156-5.995-33.408-.095L-89.857-5.872c-10.043 5.78-10.06 19.425-.03 25.227L11.978 78.291c10.237 5.922 23.178 5.915 33.407-.02L147.04 19.278c9.976-5.79 9.994-19.358.03-25.17L46.094-64.796Z"/>
      <path fill="url(#g)" d="M-52.306 79.72c21.136 0 40.28 8.064 54.142 21.073 27.723 26.063 50.706 26.085 78.429.067 13.86-13.076 33.03-21.162 54.189-21.162 42.294.023 76.557 32.233 76.557 71.995 0 39.762-34.263 71.95-76.557 71.95-21.207 0-40.376-8.109-54.237-21.184-27.699-25.974-50.659-25.951-78.381.111-13.861 13.031-33.006 21.073-54.142 21.073-42.27 0-76.533-32.211-76.533-71.95 0-39.74 34.262-71.972 76.533-71.972Z"/>
    </g>
  </g>
</svg>
