<svg xmlns="http://www.w3.org/2000/svg" width="160" height="160" fill="none" viewBox="0 0 160 160">
  <defs>
    <linearGradient id="e" x1="-16.18" x2="200.205" y1="139.116" y2="-.536" gradientUnits="userSpaceOnUse">
      <stop offset=".06" stop-color="#8480FE"/>
      <stop offset=".6" stop-color="#8480FE" stop-opacity="0"/>
    </linearGradient>
    <linearGradient id="f" x1="163.348" x2="73.42" y1="47.093" y2="149.671" gradientUnits="userSpaceOnUse">
      <stop stop-color="#EB1000"/>
      <stop offset="1" stop-color="#EB1000" stop-opacity="0"/>
    </linearGradient>
    <linearGradient id="g" x1="46.718" x2="211.905" y1="157.799" y2="59.637" gradientUnits="userSpaceOnUse">
      <stop stop-color="#FC7D00" stop-opacity="0"/>
      <stop offset=".432" stop-color="#FC7D00"/>
      <stop offset=".609" stop-color="#FC7D00"/>
      <stop offset="1" stop-color="#FC7D00" stop-opacity="0"/>
    </linearGradient>
    <radialGradient id="d" cx="0" cy="0" r="1" gradientTransform="scale(59.8633 56.4317) rotate(90 0 1)" gradientUnits="userSpaceOnUse">
      <stop offset=".167" stop-color="#FF709F"/>
      <stop offset="1" stop-color="#FF709F" stop-opacity="0"/>
    </radialGradient>
    <radialGradient id="h" cx="0" cy="0" r="1" gradientTransform="scale(59.8633 56.4317) rotate(90 0 1)" gradientUnits="userSpaceOnUse">
      <stop offset=".167" stop-color="#EB1000"/>
      <stop offset="1" stop-color="#EB1000" stop-opacity="0"/>
    </radialGradient>
    <clipPath id="a">
      <rect width="137.6" height="129.712" x="18.4" y="23.2" fill="#fff" rx="3.461"/>
    </clipPath>
    <clipPath id="c">
      <path fill="#fff" d="M18.4 23.2H156v129.712H18.4z"/>
    </clipPath>
  </defs>
  <mask id="b" width="138" height="110" x="19" y="33" maskUnits="userSpaceOnUse" style="mask-type:luminance">
    <path fill="#fff" fill-rule="evenodd" d="M123.969 33.9c8.84 0 16 7.16 16 16v4.09H19.949V49.9c0-8.84 7.16-16 16-16h88.02Zm16.001 52.56a32.48 32.48 0 0 0-8.06-1.01h-.01c-17.94 0-32.53 14.59-32.53 32.53 0 2.77.35 5.47 1.01 8.04H48V61.99h91.97v24.47ZM19.95 110.03c0 8.84 7.16 16 16 16H40V62H19.95v48.03Zm111.96-16.57c2.82 0 5.53.48 8.06 1.36h.01c9.59 3.34 16.47 12.45 16.47 23.17 0 13.55-10.98 24.53-24.53 24.53-10.73 0-19.85-6.89-23.18-16.49-.88-2.52-1.36-5.22-1.36-8.04 0-13.55 10.98-24.53 24.53-24.53Zm4.01 28.48h7.88c2.21 0 4-1.79 4-4s-1.79-4-4-4h-7.88v-7.88c0-2.21-1.79-4-4-4s-4 1.79-4 4v7.88h-7.88c-2.21 0-4 1.79-4 4s1.79 4 4 4h7.88v7.88c0 2.21 1.79 4 4 4s4-1.79 4-4v-7.88Z" clip-rule="evenodd"/>
  </mask>
  <g clip-path="url(#a)" mask="url(#b)">
    <rect width="137.6" height="129.712" x="18.4" y="23.2" fill="#FFECCF" rx="3.461"/>
    <g clip-path="url(#c)">
      <path fill="#FFECCF" d="M18.4 23.2H156v129.712H18.4z"/>
      <ellipse cx="59.863" cy="56.432" fill="url(#d)" rx="59.863" ry="56.432" transform="matrix(1 0 .00016 1 36.256 -28.122)"/>
      <path fill="url(#e)" d="M70.92.287C60.351-5.877 46.962-5.915 36.355.19L-69.731 61.25c-10.39 5.98-10.407 20.096-.032 26.099l105.387 60.973c10.59 6.127 23.98 6.12 34.561-.022l105.169-61.03c10.321-5.99 10.34-20.027.032-26.04L70.919.287Z"/>
      <path fill="url(#f)" d="M38.23 84.784C40.582 36.36 84.132-1.1 135.502 1.117c51.37 2.217 91.107 43.27 88.755 91.696-2.351 48.425-45.902 85.884-97.272 83.667-51.37-2.217-91.107-43.271-88.755-91.696Z"/>
      <path fill="url(#g)" d="M-37.347 116.714c20.42-8.212 42.442-7.86 61.521-.677 38.179 14.408 60.394 5.5 75.802-30.408 7.675-18.018 22.659-33.278 43.102-41.5 40.871-16.41 88.056 1.397 105.441 39.812 17.385 38.415-1.644 82.825-42.506 99.258-20.488 8.239-42.553 7.853-61.662.606-38.116-14.332-60.289-5.389-75.678 30.561-7.694 17.976-22.675 33.183-43.094 41.395-40.84 16.424-88.025-1.384-105.4-39.777-17.375-38.394 1.634-82.847 42.474-99.27Z"/>
      <ellipse cx="59.863" cy="56.432" fill="url(#h)" rx="59.863" ry="56.432" transform="matrix(1 0 .00016 1 88.033 -9.719)"/>
    </g>
  </g>
</svg>
