<svg xmlns="http://www.w3.org/2000/svg" width="160" height="160" fill="none" viewBox="0 0 160 160">
  <defs>
    <linearGradient id="e" x1="117.96" x2="44.078" y1="19.028" y2="120.644" gradientUnits="userSpaceOnUse">
      <stop stop-color="#FF4885"/>
      <stop offset="1" stop-color="#FF4885" stop-opacity="0"/>
    </linearGradient>
    <linearGradient id="f" x1="69.412" x2="83.108" y1="-25.808" y2="67.181" gradientUnits="userSpaceOnUse">
      <stop offset=".156" stop-color="#7A6AFD"/>
      <stop offset="1" stop-color="#7A6AFD" stop-opacity="0"/>
    </linearGradient>
    <linearGradient id="g" x1="-107.962" x2="149.472" y1="160.647" y2="106.675" gradientUnits="userSpaceOnUse">
      <stop stop-color="#30A7FE" stop-opacity="0"/>
      <stop offset=".432" stop-color="#30A7FE" stop-opacity=".995"/>
      <stop offset=".609" stop-color="#30A7FE"/>
      <stop offset="1" stop-color="#30A7FE" stop-opacity="0"/>
    </linearGradient>
    <clipPath id="a">
      <rect width="137.6" height="129.712" x="18.4" y="23.2" fill="#fff" rx="10"/>
    </clipPath>
    <clipPath id="c">
      <rect width="137.6" height="129.712" x="18.4" y="23.2" fill="#fff" rx="10"/>
    </clipPath>
    <radialGradient id="d" cx="0" cy="0" r="1" gradientTransform="scale(198.669 187.28) rotate(90 .065 .645)" gradientUnits="userSpaceOnUse">
      <stop offset=".089" stop-color="#EB1000"/>
      <stop offset="1" stop-color="#EB1000" stop-opacity="0"/>
    </radialGradient>
  </defs>
  <mask id="b" width="138" height="110" x="19" y="33" maskUnits="userSpaceOnUse" style="mask-type:luminance">
    <path fill="#fff" fill-rule="evenodd" d="M123.969 33.9c8.84 0 16 7.16 16 16v4.09H19.949V49.9c0-8.84 7.16-16 16-16h88.02Zm16.001 52.56a32.48 32.48 0 0 0-8.06-1.01h-.01c-17.94 0-32.53 14.59-32.53 32.53 0 2.77.35 5.47 1.01 8.04H48V61.99h91.97v24.47ZM19.95 110.03c0 8.84 7.16 16 16 16H40V62H19.95v48.03Zm111.96-16.57c2.82 0 5.53.48 8.06 1.36h.01c9.59 3.34 16.47 12.45 16.47 23.17 0 13.55-10.98 24.53-24.53 24.53-10.73 0-19.85-6.89-23.18-16.49-.88-2.52-1.36-5.22-1.36-8.04 0-13.55 10.98-24.53 24.53-24.53Zm4.01 28.48h7.88c2.21 0 4-1.79 4-4s-1.79-4-4-4h-7.88v-7.88c0-2.21-1.79-4-4-4s-4 1.79-4 4v7.88h-7.88c-2.21 0-4 1.79-4 4s1.79 4 4 4h7.88v7.88c0 2.21 1.79 4 4 4s4-1.79 4-4v-7.88Z" clip-rule="evenodd"/>
  </mask>
  <g clip-path="url(#a)" mask="url(#b)">
    <g clip-path="url(#c)">
      <rect width="137.6" height="129.712" x="18.4" y="23.2" fill="#D9F4FD" rx="10"/>
      <ellipse cx="141.054" cy="108.475" fill="url(#d)" rx="198.669" ry="187.28"/>
      <path fill="url(#e)" d="M6.016 63.827C3.808 18.993 40.573-19.04 88.133-21.123c47.56-2.08 87.906 32.577 90.115 77.41 2.208 44.835-34.557 82.867-82.118 84.949-47.56 2.082-87.906-32.575-90.114-77.41Z"/>
      <path fill="url(#f)" d="M53.162-66.557c-10.73-6.258-24.323-6.296-35.092-.099L-89.638-4.662c-10.549 6.071-10.566 20.402-.032 26.497L17.326 83.74c10.753 6.22 24.347 6.213 35.09-.022l106.776-61.963c10.479-6.082 10.498-20.333.032-26.437L53.162-66.557Z"/>
      <path fill="url(#g)" d="M-50.195 85.242c22.2 0 42.31 8.47 56.869 22.134 29.119 27.375 53.26 27.398 82.38.07 14.559-13.734 34.693-22.228 56.919-22.228 44.425.024 80.413 33.857 80.413 75.621 0 41.765-35.988 75.575-80.413 75.575-22.275 0-42.41-8.517-56.97-22.252-29.093-27.281-53.21-27.258-82.329.117-14.56 13.688-34.67 22.135-56.87 22.135-44.4 0-80.388-33.833-80.388-75.575 0-41.741 35.989-75.597 80.389-75.597Z"/>
    </g>
  </g>
</svg>
