<svg xmlns="http://www.w3.org/2000/svg" width="160" height="160" fill="none" viewBox="0 0 160 160">
  <defs>
    <linearGradient id="e" x1="107.785" x2="37.446" y1="16.683" y2="113.425" gradientUnits="userSpaceOnUse">
      <stop stop-color="#FF4885"/>
      <stop offset="1" stop-color="#FF4885" stop-opacity="0"/>
    </linearGradient>
    <linearGradient id="f" x1="61.565" x2="74.604" y1="-26.003" y2="62.526" gradientUnits="userSpaceOnUse">
      <stop offset=".156" stop-color="#7A6AFD"/>
      <stop offset="1" stop-color="#7A6AFD" stop-opacity="0"/>
    </linearGradient>
    <linearGradient id="g" x1="-107.302" x2="137.786" y1="151.509" y2="100.126" gradientUnits="userSpaceOnUse">
      <stop stop-color="#30A7FE" stop-opacity="0"/>
      <stop offset=".432" stop-color="#30A7FE" stop-opacity=".995"/>
      <stop offset=".609" stop-color="#30A7FE"/>
      <stop offset="1" stop-color="#30A7FE" stop-opacity="0"/>
    </linearGradient>
    <clipPath id="a">
      <rect width="131" height="123.491" x="13" y="20.654" fill="#fff" rx="10"/>
    </clipPath>
    <clipPath id="c">
      <rect width="131" height="123.491" x="13" y="20.654" fill="#fff" rx="10"/>
    </clipPath>
    <radialGradient id="d" cx="0" cy="0" r="1" gradientTransform="scale(189.141 178.298) rotate(90 .057 .629)" gradientUnits="userSpaceOnUse">
      <stop offset=".089" stop-color="#EB1000"/>
      <stop offset="1" stop-color="#EB1000" stop-opacity="0"/>
    </radialGradient>
  </defs>
  <mask id="b" width="110" height="113" x="25" y="19" maskUnits="userSpaceOnUse" style="mask-type:luminance">
    <path fill="#fff" fill-rule="evenodd" d="M84 29.95c0 2.21-1.79 4-4 4s-4-1.79-4-4v-6.02c0-2.21 1.79-4 4-4s4 1.79 4 4v6.02Zm-6.2 13.73c-14.85 1.06-26.87 13.17-27.97 28.16-.81 11.14 4.28 21.12 12.45 27.09 2.65 1.94 4.27 5.01 4.27 8.32V114h26.53c.072 0 .144.011.216.022.049.007.096.014.144.018v-6.78c0-3.23 1.48-6.31 4.08-8.19a30.613 30.613 0 0 0 12.72-24.91c0-17.62-14.75-31.75-32.45-30.49l.01.01Zm19.37 30.9c-2.21 0-4-1.79-4-4 0-5.01-4.44-9.08-9.9-9.08-2.21 0-4-1.79-4-4s1.79-4 4-4c9.87 0 17.9 7.66 17.9 17.08 0 2.21-1.79 4-4 4ZM66.56 122v4.8c0 2.81 2.26 5.09 5.04 5.09h16.81c2.78 0 5.04-2.28 5.04-5.09v-4.84c-.047.004-.095.011-.143.018a1.438 1.438 0 0 1-.216.022H66.56ZM29.95 69.98h6.02c2.21 0 4 1.79 4 4s-1.79 4-4 4h-6.02c-2.21 0-4-1.79-4-4s1.79-4 4-4Zm100.09 0h-6.02c-2.21 0-4 1.79-4 4s1.79 4 4 4h6.02c2.21 0 4-1.79 4-4s-1.79-4-4-4Zm-17.479-34.22-4.25 4.25a4.008 4.008 0 0 0 0 5.66c.78.78 1.8 1.17 2.83 1.17s2.05-.39 2.83-1.17l4.25-4.25a4.008 4.008 0 0 0 0-5.66 4.008 4.008 0 0 0-5.66 0Zm-65.112.01 4.25 4.25a4.008 4.008 0 0 1 0 5.66c-.78.78-1.8 1.17-2.83 1.17s-2.05-.39-2.83-1.17l-4.25-4.25a4.008 4.008 0 0 1 0-5.66 4.008 4.008 0 0 1 5.66 0Z" clip-rule="evenodd"/>
  </mask>
  <g clip-path="url(#a)" mask="url(#b)">
    <g clip-path="url(#c)">
      <rect width="131" height="123.491" x="13" y="20.654" fill="#D9F4FD" rx="10"/>
      <ellipse cx="129.772" cy="101.84" fill="url(#d)" rx="189.141" ry="178.298"/>
      <path fill="url(#e)" d="M1.21 59.333C-.893 16.649 34.109-19.56 79.388-21.542c45.28-1.982 83.69 31.014 85.793 73.697 2.102 42.684-32.899 78.893-78.179 80.875-45.28 1.982-83.69-31.013-85.792-73.697Z"/>
      <path fill="url(#f)" d="M46.094-64.797c-10.214-5.959-23.156-5.995-33.408-.095L-89.857-5.872c-10.043 5.78-10.06 19.425-.03 25.227L11.978 78.291c10.237 5.922 23.178 5.915 33.407-.02L147.04 19.278c9.976-5.79 9.994-19.358.03-25.17L46.094-64.796Z"/>
      <path fill="url(#g)" d="M-52.306 79.72c21.136 0 40.28 8.064 54.142 21.073 27.723 26.063 50.706 26.085 78.429.067 13.86-13.076 33.03-21.162 54.189-21.162 42.294.023 76.557 32.233 76.557 71.995 0 39.762-34.263 71.95-76.557 71.95-21.207 0-40.376-8.109-54.237-21.184-27.699-25.974-50.659-25.951-78.381.111-13.861 13.031-33.006 21.073-54.142 21.073-42.27 0-76.533-32.211-76.533-71.95 0-39.74 34.262-71.972 76.533-71.972Z"/>
    </g>
  </g>
</svg>
