<svg xmlns="http://www.w3.org/2000/svg" width="160" height="160" fill="none" viewBox="0 0 160 160">
  <defs>
    <linearGradient id="e" x1="113.619" x2="42.958" y1="16.383" y2="113.567" gradientUnits="userSpaceOnUse">
      <stop stop-color="#FF4885"/>
      <stop offset="1" stop-color="#FF4885" stop-opacity="0"/>
    </linearGradient>
    <linearGradient id="f" x1="67.187" x2="80.287" y1="-26.499" y2="62.435" gradientUnits="userSpaceOnUse">
      <stop offset=".156" stop-color="#7A6AFD"/>
      <stop offset="1" stop-color="#7A6AFD" stop-opacity="0"/>
    </linearGradient>
    <linearGradient id="g" x1="-102.452" x2="143.757" y1="151.825" y2="100.207" gradientUnits="userSpaceOnUse">
      <stop stop-color="#30A7FE" stop-opacity="0"/>
      <stop offset=".432" stop-color="#30A7FE" stop-opacity=".995"/>
      <stop offset=".609" stop-color="#30A7FE"/>
      <stop offset="1" stop-color="#30A7FE" stop-opacity="0"/>
    </linearGradient>
    <clipPath id="a">
      <rect width="131.6" height="124.056" x="18.4" y="20.372" fill="#fff" rx="10"/>
    </clipPath>
    <clipPath id="c">
      <rect width="131.6" height="124.056" x="18.4" y="20.372" fill="#fff" rx="10"/>
    </clipPath>
    <radialGradient id="d" cx="0" cy="0" r="1" gradientTransform="scale(190.006 179.114) rotate(90 .073 .642)" gradientUnits="userSpaceOnUse">
      <stop offset=".089" stop-color="#EB1000"/>
      <stop offset="1" stop-color="#EB1000" stop-opacity="0"/>
    </radialGradient>
  </defs>
  <mask id="b" width="126" height="100" x="19" y="32" maskUnits="userSpaceOnUse" style="mask-type:luminance">
    <path fill="#fff" fill-rule="evenodd" d="M125.43 48.47v49c0 8.84-7.16 16-16 16h-74c-8.84 0-16-7.16-16-16v-49c0-8.84 7.16-16 16-16h74c8.84 0 16 7.16 16 16Zm-14.04 6.88c0-4.82-3.91-8.73-8.73-8.73s-8.73 3.91-8.73 8.73 3.91 8.73 8.73 8.73 8.73-3.91 8.73-8.73ZM28.98 96.22c-2.56 3.99.3 9.24 5.05 9.24v-.01h76.18c4.75 0 7.61-5.25 5.05-9.24l-11.78-18.35c-2.36-3.68-7.74-3.68-10.1 0L80.02 98.68 58.76 65.56c-2.36-3.68-7.74-3.68-10.1 0L28.98 96.22Zm107.59-29.73c0-2.21 1.79-4 4-4h.01c2.21 0 4 1.79 4 4v41.05c0 13.23-10.77 24-24 24l-65.94-.05c-2.21 0-4-1.79-4-4s1.79-4 4-4l65.93.05c8.82 0 16-7.18 16-16V66.49Z" clip-rule="evenodd"/>
  </mask>
  <g clip-path="url(#a)" mask="url(#b)">
    <g clip-path="url(#c)">
      <rect width="131.6" height="124.056" x="18.4" y="20.372" fill="#D9F4FD" rx="10"/>
      <ellipse cx="135.706" cy="101.928" fill="url(#d)" rx="190.006" ry="179.114"/>
      <path fill="url(#e)" d="M6.556 59.227c-2.112-42.879 33.05-79.253 78.536-81.244 45.487-1.991 84.073 31.155 86.185 74.034 2.113 42.88-33.049 79.253-78.536 81.245-45.486 1.991-84.073-31.156-86.185-74.035Z"/>
      <path fill="url(#f)" d="M51.646-65.47c-10.261-5.986-23.262-6.023-33.562-.095L-84.927-6.275c-10.089 5.807-10.105 19.513-.03 25.342l102.33 59.206c10.284 5.949 23.285 5.942 33.56-.022l102.12-59.261c10.022-5.816 10.04-19.446.031-25.284L51.646-65.471Z"/>
      <path fill="url(#g)" d="M-47.204 79.709c21.232 0 40.465 8.1 54.39 21.169 27.849 26.181 50.937 26.203 78.787.067 13.924-13.136 33.181-21.259 54.437-21.259 42.488.023 76.907 32.38 76.907 72.324 0 39.943-34.419 72.279-76.907 72.279-21.304 0-40.56-8.146-54.485-21.281-27.825-26.092-50.89-26.07-78.74.112-13.924 13.09-33.157 21.169-54.39 21.169-42.463 0-76.882-32.358-76.882-72.279s34.419-72.301 76.883-72.301Z"/>
    </g>
  </g>
</svg>
