<svg xmlns="http://www.w3.org/2000/svg" width="160" height="160" fill="none" viewBox="0 0 160 160">
  <defs>
    <linearGradient id="e" x1="-32.085" x2="187.45" y1="127.603" y2="-14.082" gradientUnits="userSpaceOnUse">
      <stop offset=".06" stop-color="#8480FE"/>
      <stop offset=".6" stop-color="#8480FE" stop-opacity="0"/>
    </linearGradient>
    <linearGradient id="f" x1="150.056" x2="58.819" y1="34.24" y2="138.312" gradientUnits="userSpaceOnUse">
      <stop stop-color="#EB1000"/>
      <stop offset="1" stop-color="#EB1000" stop-opacity="0"/>
    </linearGradient>
    <linearGradient id="g" x1="31.728" x2="199.319" y1="146.558" y2="46.967" gradientUnits="userSpaceOnUse">
      <stop stop-color="#FC7D00" stop-opacity="0"/>
      <stop offset=".432" stop-color="#FC7D00"/>
      <stop offset=".609" stop-color="#FC7D00"/>
      <stop offset="1" stop-color="#FC7D00" stop-opacity="0"/>
    </linearGradient>
    <radialGradient id="d" cx="0" cy="0" r="1" gradientTransform="scale(60.7348 57.2532) rotate(90 0 1)" gradientUnits="userSpaceOnUse">
      <stop offset=".167" stop-color="#FF709F"/>
      <stop offset="1" stop-color="#FF709F" stop-opacity="0"/>
    </radialGradient>
    <radialGradient id="h" cx="0" cy="0" r="1" gradientTransform="scale(60.7348 57.2532) rotate(90 0 1)" gradientUnits="userSpaceOnUse">
      <stop offset=".167" stop-color="#EB1000"/>
      <stop offset="1" stop-color="#EB1000" stop-opacity="0"/>
    </radialGradient>
    <clipPath id="a">
      <rect width="139.603" height="131.6" x="2.999" y="10" fill="#fff" rx="3.461"/>
    </clipPath>
    <clipPath id="c">
      <path fill="#fff" d="M2.999 10h139.603v131.6H2.999z"/>
    </clipPath>
  </defs>
  <mask id="b" width="115" height="130" x="10" y="10" maskUnits="userSpaceOnUse" style="mask-type:luminance">
    <path fill="#fff" fill-rule="evenodd" d="M40 24V14c0-2.21-1.79-4-4-4s-4 1.79-4 4v10c0 2.21 1.79 4 4 4s4-1.79 4-4Zm39 46.02c0 5.5 4.5 9.98 10.03 9.98h34.98v48c0 6.63-5.34 12-11.93 12H47.93C41.34 140 36 134.63 36 128V48c0-6.63 5.34-12 11.93-12H79v34.02ZM121.3 72H89.04c-1.12 0-2.03-.89-2.03-1.98V38.89c.05.044.102.088.155.132.116.098.235.198.345.308l32.81 31.59c.35.34.67.7.98 1.08ZM14 32h10c2.21 0 4 1.79 4 4s-1.79 4-4 4H14c-2.21 0-4-1.79-4-4s1.79-4 4-4Z" clip-rule="evenodd"/>
  </mask>
  <g clip-path="url(#a)" mask="url(#b)">
    <rect width="139.603" height="131.6" x="2.999" y="10" fill="#FFECCF" rx="3.461"/>
    <g clip-path="url(#c)">
      <path fill="#FFECCF" d="M2.999 10h139.603v131.6H2.999z"/>
      <ellipse cx="60.735" cy="57.253" fill="url(#d)" rx="60.735" ry="57.253" transform="matrix(1 0 .00016 1 21.114 -42.069)"/>
      <path fill="url(#e)" d="M56.282-13.246c-10.721-6.254-24.305-6.293-35.066-.1l-107.632 61.95c-10.541 6.067-10.559 20.388-.032 26.478l106.92 61.862c10.745 6.215 24.33 6.208 35.065-.023l106.7-61.919c10.471-6.077 10.49-20.318.032-26.418L56.282-13.246Z"/>
      <path fill="url(#f)" d="M23.117 72.48c2.386-49.13 46.57-87.134 98.688-84.885 52.118 2.25 92.433 43.901 90.047 93.031-2.386 49.13-46.57 87.135-98.688 84.885-52.117-2.249-92.433-43.9-90.047-93.03Z"/>
      <path fill="url(#g)" d="M-53.56 104.875c20.716-8.331 43.059-7.974 62.416-.687 38.735 14.618 61.273 5.58 76.905-30.85 7.787-18.28 22.989-33.763 43.729-42.103 41.467-16.65 89.339 1.416 106.977 40.39 17.638 38.975-1.668 84.031-43.125 100.703-20.786 8.359-43.172 7.968-62.559.615-38.672-14.54-61.167-5.468-76.78 31.006-7.806 18.237-23.005 33.666-43.722 41.998-41.434 16.662-89.305-1.404-106.933-40.357-17.628-38.952 1.657-84.052 43.091-100.715Z"/>
      <ellipse cx="60.735" cy="57.253" fill="url(#h)" rx="60.735" ry="57.253" transform="matrix(1 0 .00016 1 73.645 -23.398)"/>
    </g>
  </g>
</svg>
