<svg xmlns="http://www.w3.org/2000/svg" width="160" height="160" fill="none" viewBox="0 0 160 160">
  <defs>
    <linearGradient id="e" x1="111.297" x2="36.126" y1="12.168" y2="115.556" gradientUnits="userSpaceOnUse">
      <stop stop-color="#FF4885"/>
      <stop offset="1" stop-color="#FF4885" stop-opacity="0"/>
    </linearGradient>
    <linearGradient id="f" x1="61.901" x2="75.837" y1="-33.45" y2="61.161" gradientUnits="userSpaceOnUse">
      <stop offset=".156" stop-color="#7A6AFD"/>
      <stop offset="1" stop-color="#7A6AFD" stop-opacity="0"/>
    </linearGradient>
    <linearGradient id="g" x1="-118.566" x2="143.358" y1="156.257" y2="101.344" gradientUnits="userSpaceOnUse">
      <stop stop-color="#30A7FE" stop-opacity="0"/>
      <stop offset=".432" stop-color="#30A7FE" stop-opacity=".995"/>
      <stop offset=".609" stop-color="#30A7FE"/>
      <stop offset="1" stop-color="#30A7FE" stop-opacity="0"/>
    </linearGradient>
    <clipPath id="a">
      <rect width="140" height="131.975" x="10" y="16.413" fill="#fff" rx="10"/>
    </clipPath>
    <clipPath id="c">
      <rect width="140" height="131.975" x="10" y="16.413" fill="#fff" rx="10"/>
    </clipPath>
    <radialGradient id="d" cx="0" cy="0" r="1" gradientTransform="scale(202.135 190.547) rotate(90 .063 .604)" gradientUnits="userSpaceOnUse">
      <stop offset=".089" stop-color="#EB1000"/>
      <stop offset="1" stop-color="#EB1000" stop-opacity="0"/>
    </radialGradient>
  </defs>
  <mask id="b" width="128" height="104" x="16" y="28" maskUnits="userSpaceOnUse" style="mask-type:luminance">
    <path fill="#fff" d="M128 28H32c-8.84 0-16 7.16-16 16v72c0 8.84 7.16 16 16 16h96c8.84 0 16-7.16 16-16V44c0-8.84-7.16-16-16-16ZM34 84c-2.21 0-4-1.79-4-4s1.78-4 3.99-4H34c2.21 0 4 1.79 4 4s-1.79 4-4 4Z"/>
  </mask>
  <g clip-path="url(#a)" mask="url(#b)">
    <g clip-path="url(#c)">
      <rect width="140" height="131.975" x="10" y="16.413" fill="#D9F4FD" rx="10"/>
      <ellipse cx="134.794" cy="103.175" fill="url(#d)" rx="202.135" ry="190.547"/>
      <path fill="url(#e)" d="M-2.6 57.748c-2.247-45.616 35.16-84.313 83.55-86.43 48.389-2.119 89.439 33.143 91.686 78.76 2.247 45.616-35.16 84.312-83.55 86.43-48.39 2.118-89.44-33.144-91.686-78.76Z"/>
      <path fill="url(#f)" d="M45.368-74.91c-10.916-6.368-24.747-6.407-35.704-.1L-99.923-11.936c-10.733 6.178-10.751 20.759-.033 26.96L8.907 78.009c10.94 6.329 24.771 6.321 35.702-.022l108.639-63.045c10.661-6.187 10.681-20.687.033-26.898L45.368-74.91Z"/>
      <path fill="url(#g)" d="M-59.792 79.537c22.587 0 43.048 8.617 57.861 22.52 29.627 27.853 54.19 27.876 83.817.071 14.813-13.974 35.299-22.615 57.912-22.615 45.2.024 81.816 34.447 81.816 76.94 0 42.493-36.616 76.893-81.816 76.893-22.664 0-43.15-8.666-57.963-22.64-29.602-27.757-54.139-27.733-83.766.119-14.813 13.927-35.274 22.521-57.861 22.521-45.175 0-81.791-34.423-81.791-76.893 0-42.469 36.616-76.916 81.79-76.916Z"/>
    </g>
  </g>
</svg>
