<svg xmlns="http://www.w3.org/2000/svg" width="160" height="160" fill="none" viewBox="0 0 160 160">
  <defs>
    <linearGradient id="e" x1="111.223" x2="39.113" y1="10.928" y2="110.106" gradientUnits="userSpaceOnUse">
      <stop stop-color="#FF4885"/>
      <stop offset="1" stop-color="#FF4885" stop-opacity="0"/>
    </linearGradient>
    <linearGradient id="f" x1="63.839" x2="77.207" y1="-32.832" y2="57.926" gradientUnits="userSpaceOnUse">
      <stop offset=".156" stop-color="#7A6AFD"/>
      <stop offset="1" stop-color="#7A6AFD" stop-opacity="0"/>
    </linearGradient>
    <linearGradient id="g" x1="-109.28" x2="141.978" y1="149.149" y2="96.472" gradientUnits="userSpaceOnUse">
      <stop stop-color="#30A7FE" stop-opacity="0"/>
      <stop offset=".432" stop-color="#30A7FE" stop-opacity=".995"/>
      <stop offset=".609" stop-color="#30A7FE"/>
      <stop offset="1" stop-color="#30A7FE" stop-opacity="0"/>
    </linearGradient>
    <clipPath id="a">
      <rect width="134.299" height="126.6" x="14.051" y="15" fill="#fff" rx="10"/>
    </clipPath>
    <clipPath id="c">
      <rect width="134.299" height="126.6" x="14.051" y="15" fill="#fff" rx="10"/>
    </clipPath>
    <radialGradient id="d" cx="0" cy="0" r="1" gradientTransform="scale(193.903 182.787) rotate(90 .076 .614)" gradientUnits="userSpaceOnUse">
      <stop offset=".089" stop-color="#EB1000"/>
      <stop offset="1" stop-color="#EB1000" stop-opacity="0"/>
    </radialGradient>
  </defs>
  <mask id="b" width="122" height="122" x="19" y="19" maskUnits="userSpaceOnUse" style="mask-type:luminance">
    <path fill="#fff" stroke="#fff" stroke-width="2" d="M80 20c33.08 0 60 26.92 60 60s-26.92 60-60 60-60-26.92-60-60 26.92-60 60-60Zm52 60c0-28.67-23.33-52-52-52-12.9 0-24.71 4.73-33.81 12.54l73.27 73.27C127.27 104.71 132 92.9 132 80Zm-52 52c12.9 0 24.71-4.73 33.81-12.54L40.54 46.19C32.73 55.29 28 67.1 28 80c0 28.67 23.33 52 52 52Z"/>
  </mask>
  <g clip-path="url(#a)" mask="url(#b)">
    <g clip-path="url(#c)">
      <rect width="134.299" height="126.6" x="14.051" y="15" fill="#D9F4FD" rx="10"/>
      <ellipse cx="133.763" cy="98.229" fill="url(#d)" rx="193.903" ry="182.787"/>
      <path fill="url(#e)" d="M1.964 54.652C-.192 10.894 35.69-26.227 82.11-28.258c46.419-2.033 85.797 31.793 87.953 75.552 2.155 43.758-33.728 80.879-80.147 82.911-46.42 2.032-85.798-31.795-87.953-75.553Z"/>
      <path fill="url(#f)" d="M47.978-72.603c-10.471-6.109-23.739-6.146-34.25-.097L-91.394-12.194c-10.296 5.926-10.313 19.913-.032 25.862l104.43 60.42c10.495 6.071 23.762 6.064 34.248-.022L151.465 13.59c10.228-5.935 10.246-19.844.032-25.802L47.978-72.603Z"/>
      <path fill="url(#g)" d="M-52.899 75.553c21.668 0 41.295 8.267 55.505 21.603 28.42 26.719 51.983 26.742 80.403.069 14.21-13.405 33.862-21.694 55.554-21.694 43.359.022 78.484 33.044 78.484 73.806 0 40.763-35.125 73.762-78.484 73.762-21.741 0-41.392-8.313-55.602-21.718-28.396-26.627-51.934-26.604-80.355.115-14.21 13.359-33.837 21.603-55.505 21.603-43.335 0-78.46-33.022-78.46-73.762s35.125-73.784 78.46-73.784Z"/>
    </g>
  </g>
</svg>
