<svg xmlns="http://www.w3.org/2000/svg" width="160" height="160" fill="none" viewBox="0 0 160 160">
  <defs>
    <linearGradient id="e" x1="109.744" x2="33.395" y1="13.691" y2="118.589" gradientUnits="userSpaceOnUse">
      <stop stop-color="#FF4885"/>
      <stop offset="1" stop-color="#FF4885" stop-opacity="0"/>
    </linearGradient>
    <linearGradient id="f" x1="59.643" x2="73.806" y1="-32.628" y2="63.431" gradientUnits="userSpaceOnUse">
      <stop offset=".156" stop-color="#7A6AFD"/>
      <stop offset="1" stop-color="#7A6AFD" stop-opacity="0"/>
    </linearGradient>
    <linearGradient id="g" x1="-123.403" x2="142.287" y1="159.991" y2="104.346" gradientUnits="userSpaceOnUse">
      <stop stop-color="#30A7FE" stop-opacity="0"/>
      <stop offset=".432" stop-color="#30A7FE" stop-opacity=".995"/>
      <stop offset=".609" stop-color="#30A7FE"/>
      <stop offset="1" stop-color="#30A7FE" stop-opacity="0"/>
    </linearGradient>
    <clipPath id="a">
      <rect width="142" height="134" x="7" y="18" fill="#fff" rx="10"/>
    </clipPath>
    <clipPath id="c">
      <rect width="142" height="134" x="7" y="18" fill="#fff" rx="10"/>
    </clipPath>
    <radialGradient id="d" cx="0" cy="0" r="1" gradientTransform="matrix(0 193.472 -205.022 0 133.674 106.023)" gradientUnits="userSpaceOnUse">
      <stop offset=".089" stop-color="#EB1000"/>
      <stop offset="1" stop-color="#EB1000" stop-opacity="0"/>
    </radialGradient>
  </defs>
  <mask id="b" width="120" height="126" x="18" y="19" maskUnits="userSpaceOnUse" style="mask-type:luminance">
    <path fill="#fff" fill-rule="evenodd" d="M109.921 32.16a7.303 7.303 0 0 0 0-10.34 7.304 7.304 0 0 0-10.34 0 7.303 7.303 0 0 0 0 10.34 7.304 7.304 0 0 0 10.34 0ZM64.799 72.12a3.994 3.994 0 0 0 2.5 7.12c.88 0 1.76-.29 2.49-.88 19.22-15.35 18.34-31.46 18.3-32.14-.15-2.19-2.03-3.82-4.22-3.7-2.19.13-3.87 2.02-3.76 4.21.02.52.43 12.81-15.31 25.38v.01Zm34.002 29.87a4 4 0 0 1 1.67-5.4h.01a4 4 0 0 1 5.4 1.67c5.73 10.86 3.89 16.18 1.34 18.73-.83.83-1.95 1.58-3.45 2.02l-69.25 24.6c-1.34.48-2.71.71-4.06.71-3.11 0-6.14-1.23-8.44-3.53-3.3-3.3-4.38-8.09-2.82-12.5l24.32-68.53c.14-.52.32-1.02.55-1.5.45-1.12 1.07-2 1.75-2.68 2.57-2.57 7.94-4.4 18.93 1.45a3.998 3.998 0 0 1 1.65 5.41 3.998 3.998 0 0 1-5.41 1.65c-6.19-3.29-9.03-3.09-9.52-2.84v.02l-.18.51c-.4 3.04 4.2 14.87 19.53 30.2 11.62 11.62 21.22 17.07 26.54 18.84 2.06.42 3.52.52 4.26.42.19-.55.29-3.35-2.82-9.25ZM77.49 89.43c-1.03 0-2.05-.39-2.83-1.17a4.008 4.008 0 0 1 0-5.66l15.61-15.61a4.008 4.008 0 0 1 5.66 0 4.008 4.008 0 0 1 0 5.66L80.32 88.26c-.78.78-1.8 1.17-2.83 1.17Zm7.05 3.7c15.35-19.22 31.46-18.34 32.14-18.3l-.01.01c2.21.15 3.87 2.06 3.72 4.26-.15 2.19-2.04 3.86-4.23 3.72-.59-.02-12.84-.37-25.37 15.31a3.996 3.996 0 0 1-5.62.62 3.993 3.993 0 0 1-.63-5.62Zm40.499-.96a7.303 7.303 0 0 1 10.34 0 7.303 7.303 0 0 1 0 10.34 7.303 7.303 0 0 1-10.34 0 7.303 7.303 0 0 1 0-10.34ZM56.351 28.195l-1.92 1.406a4 4 0 0 0-.865 5.59l7.813 10.676a4 4 0 0 0 5.59.866l1.921-1.406a4 4 0 0 0 .865-5.59L61.942 29.06a4 4 0 0 0-5.59-.866Zm50.878 26.657 13.146-1.489a4 4 0 0 1 4.424 3.525l.268 2.364a4 4 0 0 1-3.525 4.425l-13.146 1.489a4 4 0 0 1-4.424-3.525l-.268-2.365a4 4 0 0 1 3.525-4.425Z" clip-rule="evenodd"/>
  </mask>
  <g clip-path="url(#a)" mask="url(#b)">
    <g clip-path="url(#c)">
      <rect width="142" height="134" x="7" y="18" fill="#D9F4FD" rx="10"/>
      <ellipse cx="133.577" cy="106.094" fill="url(#d)" rx="205.022" ry="193.472"/>
      <path fill="url(#e)" d="M-5.78 59.97c-2.279-46.316 35.662-85.607 84.743-87.757 49.082-2.151 90.717 33.652 92.996 79.969 2.28 46.316-35.661 85.606-84.743 87.757-49.081 2.15-90.717-33.653-92.996-79.97Z"/>
      <path fill="url(#f)" d="M42.873-74.724c-11.072-6.465-25.1-6.505-36.213-.102l-111.153 64.043c-10.886 6.272-10.904 21.077-.033 27.373L5.892 80.542c11.097 6.426 25.125 6.418 36.212-.023l110.191-64.012c10.814-6.283 10.833-21.005.033-27.311L42.873-74.724Z"/>
      <path fill="url(#g)" d="M-63.789 82.093c22.91 0 43.663 8.75 58.688 22.866 30.05 28.28 54.964 28.304 85.014.072 15.025-14.188 35.803-22.962 58.739-22.962 45.846.024 82.985 34.975 82.985 78.121 0 43.145-37.139 78.072-82.985 78.072-22.987 0-43.765-8.798-58.79-22.986-30.025-28.184-54.913-28.16-84.963.121-15.025 14.14-35.778 22.865-58.688 22.865-45.82 0-82.959-34.951-82.959-78.072 0-43.122 37.139-78.097 82.96-78.097Z"/>
    </g>
  </g>
</svg>
