<svg xmlns="http://www.w3.org/2000/svg" width="160" height="160" fill="none" viewBox="0 0 160 160">
  <defs>
    <linearGradient id="e" x1="-24.539" x2="201.679" y1="134.772" y2="-2.857" gradientUnits="userSpaceOnUse">
      <stop offset=".06" stop-color="#8480FE"/>
      <stop offset=".6" stop-color="#8480FE" stop-opacity="0"/>
    </linearGradient>
    <linearGradient id="f" x1="157" x2="59.953" y1="36.059" y2="140.411" gradientUnits="userSpaceOnUse">
      <stop stop-color="#EB1000"/>
      <stop offset="1" stop-color="#EB1000" stop-opacity="0"/>
    </linearGradient>
    <linearGradient id="g" x1="39.063" x2="211.101" y1="154.813" y2="58.44" gradientUnits="userSpaceOnUse">
      <stop stop-color="#FC7D00" stop-opacity="0"/>
      <stop offset=".432" stop-color="#FC7D00"/>
      <stop offset=".609" stop-color="#FC7D00"/>
      <stop offset="1" stop-color="#FC7D00" stop-opacity="0"/>
    </linearGradient>
    <radialGradient id="d" cx="0" cy="0" r="1" gradientTransform="rotate(90 36.639 52.465) scale(60.5342)" gradientUnits="userSpaceOnUse">
      <stop offset=".167" stop-color="#FF709F"/>
      <stop offset="1" stop-color="#FF709F" stop-opacity="0"/>
    </radialGradient>
    <radialGradient id="h" cx="0" cy="0" r="1" gradientTransform="rotate(90 52.947 88.513) scale(60.5342)" gradientUnits="userSpaceOnUse">
      <stop offset=".167" stop-color="#EB1000"/>
      <stop offset="1" stop-color="#EB1000" stop-opacity="0"/>
    </radialGradient>
    <clipPath id="a">
      <rect width="139.142" height="139.142" x="10.428" y="10.429" fill="#fff" rx="3.461"/>
    </clipPath>
    <clipPath id="c">
      <path fill="#fff" d="M10.428 10.43H149.57v139.142H10.428z"/>
    </clipPath>
  </defs>
  <mask id="b" width="162" height="162" x="-1" y="-1" maskUnits="userSpaceOnUse" style="mask-type:luminance">
    <path fill="#fff" d="M80 61.91V27.788a11.983 11.983 0 0 0-.976-.048H47.839c-6.66 0-12.06 5.4-12.06 12.06v80.4c0 6.661 5.4 12.06 12.06 12.06h64.32c6.661 0 12.06-5.399 12.06-12.06V72.935c0-.327-.022-.651-.048-.975H90.049C84.51 71.96 80 67.452 80 61.91Z"/>
    <path fill="#fff" d="M90.05 63.92h30.15L88.04 31.76v30.15c0 1.109.902 2.01 2.01 2.01Z"/>
  </mask>
  <g clip-path="url(#a)" mask="url(#b)">
    <rect width="139.142" height="139.142" x="10.428" y="10.429" fill="#FFECCF" rx="3.461"/>
    <g clip-path="url(#c)">
      <path fill="#FFECCF" d="M10.428 10.43H149.57v139.142H10.428z"/>
      <circle cx="89.103" cy="15.826" r="60.534" fill="url(#d)" transform="rotate(-.08 89.103 15.826)"/>
      <path fill="url(#e)" d="M63.536-14.15a33.407 33.407 0 0 0-34.95-.104l-107.276 65.5c-10.507 6.414-10.524 21.556-.032 27.995l106.567 65.407a33.406 33.406 0 0 0 34.949-.024l106.348-65.468c10.436-6.425 10.455-21.482.031-27.932L63.536-14.15Z"/>
      <path fill="url(#f)" d="M30.48 76.49c2.379-51.945 46.417-92.128 98.363-89.75 51.945 2.379 92.128 46.417 89.749 98.363-2.378 51.945-46.416 92.128-98.362 89.75-51.945-2.379-92.128-46.417-89.75-98.363Z"/>
      <path fill="url(#g)" d="M-45.944 110.741c20.648-8.809 42.918-8.431 62.211-.726 38.606 15.456 61.07 5.9 76.651-32.618 7.761-19.329 22.913-35.698 43.585-44.517 41.33-17.604 89.043 1.498 106.623 42.706 17.58 41.208-1.662 88.846-42.982 106.474-20.718 8.838-43.03 8.424-62.353.65-38.544-15.374-60.965-5.781-76.526 32.783-7.78 19.282-22.93 35.595-43.578 44.404-41.297 17.618-89.01-1.484-106.58-42.669-17.57-41.185 1.652-88.869 42.949-106.487Z"/>
      <circle cx="141.46" cy="35.567" r="60.534" fill="url(#h)" transform="rotate(-.08 141.46 35.567)"/>
    </g>
  </g>
</svg>
