<svg xmlns="http://www.w3.org/2000/svg" width="160" height="160" fill="none" viewBox="0 0 160 160">
  <defs>
    <linearGradient id="e" x1="-32.726" x2="209.885" y1="133.354" y2="-14.248" gradientUnits="userSpaceOnUse">
      <stop offset=".06" stop-color="#8480FE"/>
      <stop offset=".6" stop-color="#8480FE" stop-opacity="0"/>
    </linearGradient>
    <linearGradient id="f" x1="161.969" x2="57.889" y1="27.487" y2="139.401" gradientUnits="userSpaceOnUse">
      <stop stop-color="#EB1000"/>
      <stop offset="1" stop-color="#EB1000" stop-opacity="0"/>
    </linearGradient>
    <linearGradient id="g" x1="35.486" x2="219.99" y1="154.847" y2="51.49" gradientUnits="userSpaceOnUse">
      <stop stop-color="#FC7D00" stop-opacity="0"/>
      <stop offset=".432" stop-color="#FC7D00"/>
      <stop offset=".609" stop-color="#FC7D00"/>
      <stop offset="1" stop-color="#FC7D00" stop-opacity="0"/>
    </linearGradient>
    <radialGradient id="d" cx="0" cy="0" r="1" gradientTransform="rotate(90 41.681 47.47) scale(64.9209)" gradientUnits="userSpaceOnUse">
      <stop offset=".167" stop-color="#FF709F"/>
      <stop offset="1" stop-color="#FF709F" stop-opacity="0"/>
    </radialGradient>
    <radialGradient id="h" cx="0" cy="0" r="1" gradientTransform="rotate(90 59.171 86.13) scale(64.9209)" gradientUnits="userSpaceOnUse">
      <stop offset=".167" stop-color="#EB1000"/>
      <stop offset="1" stop-color="#EB1000" stop-opacity="0"/>
    </radialGradient>
    <clipPath id="a">
      <rect width="149.225" height="149.225" x="4.775" fill="#fff" rx="3.731"/>
    </clipPath>
    <clipPath id="c">
      <path fill="#fff" d="M4.775 0H154v149.225H4.775z"/>
    </clipPath>
  </defs>
  <mask id="b" width="141" height="104" x="13" y="28" maskUnits="userSpaceOnUse" style="mask-type:luminance">
    <path fill="#fff" fill-rule="evenodd" d="M129.5 68v-4.364c0-7.38-5.992-13.363-13.385-13.363H69.269l-15.167-18.93A8.928 8.928 0 0 0 47.135 28H22.423c-4.928 0-8.923 3.989-8.923 8.91v81.726c0 1.264.176 2.487.504 3.646a16.876 16.876 0 0 1 1.202-5.312l15.788-38.276C33.586 72.16 39.949 68 46.876 68H129.5Zm-98.436 64h98.06a9.3 9.3 0 0 0 .71-.027c3.466-.265 6.498-2.453 7.752-5.66l15.811-38.333c2.119-5.42-1.597-11.207-7.297-11.909a9.53 9.53 0 0 0-1.165-.071H46.876c-3.758 0-7.125 2.263-8.463 5.687L22.602 120.02c-2.26 5.782 2.118 11.98 8.462 11.98Z" clip-rule="evenodd"/>
  </mask>
  <g clip-path="url(#a)" mask="url(#b)">
    <rect width="149.225" height="149.225" x="4.775" fill="#FFECCF" rx="3.731"/>
    <g clip-path="url(#c)">
      <path fill="#FFECCF" d="M4.775 0H154v149.225H4.775z"/>
      <circle cx="89.151" cy="5.788" r="64.921" fill="url(#d)" transform="rotate(-.08 89.151 5.788)"/>
      <path fill="url(#e)" d="M61.732-26.36a35.827 35.827 0 0 0-37.484-.111l-115.05 70.245c-11.267 6.88-11.286 23.119-.034 30.025l114.29 70.146c11.486 7.048 26.006 7.04 37.482-.025L174.99 73.708c11.193-6.891 11.213-23.04.034-29.956L61.732-26.36Z"/>
      <path fill="url(#f)" d="M26.28 70.849c2.551-55.71 49.78-98.804 105.491-96.254 55.71 2.55 98.804 49.78 96.253 105.49-2.55 55.71-49.78 98.804-105.49 96.254-55.71-2.551-98.804-49.78-96.253-105.49Z"/>
      <path fill="url(#g)" d="M-55.682 107.581c22.145-9.447 46.028-9.042 66.72-.778 41.403 16.576 65.495 6.327 82.205-34.982 8.323-20.73 24.573-38.285 46.743-47.742 44.325-18.88 95.496 1.606 114.35 45.8 18.853 44.194-1.783 95.284-46.097 114.189-22.219 9.479-46.148 9.035-66.872.698-41.337-16.488-65.382-6.201-82.071 35.158-8.344 20.68-24.59 38.175-46.736 47.622-44.29 18.894-95.46-1.592-114.304-45.761-18.842-44.169 1.772-95.309 46.062-114.204Z"/>
      <circle cx="145.302" cy="26.96" r="64.921" fill="url(#h)" transform="rotate(-.08 145.302 26.96)"/>
    </g>
  </g>
</svg>
