<svg xmlns="http://www.w3.org/2000/svg" width="160" height="160" fill="none" viewBox="0 0 160 160">
  <defs>
    <linearGradient id="e" x1="-13.164" x2="184.351" y1="129.007" y2="1.534" gradientUnits="userSpaceOnUse">
      <stop offset=".06" stop-color="#8480FE"/>
      <stop offset=".6" stop-color="#8480FE" stop-opacity="0"/>
    </linearGradient>
    <linearGradient id="f" x1="150.708" x2="68.622" y1="45.009" y2="138.641" gradientUnits="userSpaceOnUse">
      <stop stop-color="#EB1000"/>
      <stop offset="1" stop-color="#EB1000" stop-opacity="0"/>
    </linearGradient>
    <linearGradient id="g" x1="44.248" x2="195.029" y1="146.061" y2="56.459" gradientUnits="userSpaceOnUse">
      <stop stop-color="#FC7D00" stop-opacity="0"/>
      <stop offset=".432" stop-color="#FC7D00"/>
      <stop offset=".609" stop-color="#FC7D00"/>
      <stop offset="1" stop-color="#FC7D00" stop-opacity="0"/>
    </linearGradient>
    <radialGradient id="d" cx="0" cy="0" r="1" gradientTransform="matrix(0 51.5105 -54.6429 0 54.643 51.51)" gradientUnits="userSpaceOnUse">
      <stop offset=".167" stop-color="#FF709F"/>
      <stop offset="1" stop-color="#FF709F" stop-opacity="0"/>
    </radialGradient>
    <radialGradient id="h" cx="0" cy="0" r="1" gradientTransform="matrix(0 51.5105 -54.6429 0 54.643 51.51)" gradientUnits="userSpaceOnUse">
      <stop offset=".167" stop-color="#EB1000"/>
      <stop offset="1" stop-color="#EB1000" stop-opacity="0"/>
    </radialGradient>
    <clipPath id="a">
      <rect width="125.6" height="118.4" x="18.4" y="23.2" fill="#fff" rx="3.461"/>
    </clipPath>
    <clipPath id="c">
      <path fill="#fff" d="M18.4 23.2H144v118.4H18.4z"/>
    </clipPath>
  </defs>
  <mask id="b" width="120" height="104" x="20" y="28" maskUnits="userSpaceOnUse" style="mask-type:luminance">
    <path fill="#fff" fill-rule="evenodd" d="M71.544 43H20v-5.8c0-5.081 4.155-9.2 9.28-9.2h25.7a9.31 9.31 0 0 1 7.246 3.453L71.544 43Zm54.61 8H20v67.059C20 125.753 26.204 132 33.846 132h92.308c7.642 0 13.846-6.247 13.846-13.941V64.941C140 57.247 133.796 51 126.154 51Z" clip-rule="evenodd"/>
  </mask>
  <g clip-path="url(#a)" mask="url(#b)">
    <rect width="125.6" height="118.4" x="18.4" y="23.2" fill="#FFECCF" rx="3.461"/>
    <g clip-path="url(#c)">
      <path fill="#FFECCF" d="M18.4 23.2H144v118.4H18.4z"/>
      <ellipse cx="54.643" cy="51.511" fill="url(#d)" rx="54.643" ry="51.511" transform="matrix(1 0 .00016 1 34.699 -23.646)"/>
      <path fill="url(#e)" d="M66.34 2.285c-9.646-5.626-21.868-5.66-31.55-.089l-96.835 55.736c-9.484 5.459-9.5 18.343-.029 23.822l96.196 55.657c9.667 5.592 21.889 5.585 31.548-.02l95.997-55.709c9.421-5.467 9.438-18.28.029-23.768L66.34 2.285Z"/>
      <path fill="url(#f)" d="M36.501 79.414c2.147-44.203 41.9-78.395 88.789-76.371 46.89 2.023 83.162 39.497 81.015 83.7-2.146 44.201-41.899 78.394-88.789 76.37-46.89-2.024-83.162-39.497-81.015-83.7Z"/>
      <path fill="url(#g)" d="M-32.486 108.559c18.639-7.496 38.74-7.175 56.156-.618 34.85 13.152 55.127 5.02 69.192-27.756 7.005-16.447 20.683-30.376 39.343-37.88 37.307-14.98 80.377 1.274 96.246 36.339s-1.5 75.602-38.799 90.602c-18.702 7.521-38.842 7.168-56.285.553-34.792-13.082-55.031-4.919-69.078 27.896-7.023 16.408-20.698 30.29-39.337 37.785-37.277 14.992-80.347-1.263-96.207-36.308-15.86-35.046 1.491-75.622 38.769-90.613Z"/>
      <ellipse cx="54.643" cy="51.511" fill="url(#h)" rx="54.643" ry="51.511" transform="matrix(1 0 .00016 1 81.96 -6.848)"/>
    </g>
  </g>
</svg>
