<svg xmlns="http://www.w3.org/2000/svg" width="160" height="160" fill="none" viewBox="0 0 160 160">
  <defs>
    <linearGradient id="e" x1="109.744" x2="33.394" y1="13.691" y2="118.589" gradientUnits="userSpaceOnUse">
      <stop stop-color="#FF4885"/>
      <stop offset="1" stop-color="#FF4885" stop-opacity="0"/>
    </linearGradient>
    <linearGradient id="f" x1="59.642" x2="73.806" y1="-32.628" y2="63.431" gradientUnits="userSpaceOnUse">
      <stop offset=".156" stop-color="#7A6AFD"/>
      <stop offset="1" stop-color="#7A6AFD" stop-opacity="0"/>
    </linearGradient>
    <linearGradient id="g" x1="-123.403" x2="142.287" y1="159.991" y2="104.346" gradientUnits="userSpaceOnUse">
      <stop stop-color="#30A7FE" stop-opacity="0"/>
      <stop offset=".432" stop-color="#30A7FE" stop-opacity=".995"/>
      <stop offset=".609" stop-color="#30A7FE"/>
      <stop offset="1" stop-color="#30A7FE" stop-opacity="0"/>
    </linearGradient>
    <clipPath id="a">
      <rect width="142" height="134" x="7" y="18" fill="#fff" rx="10"/>
    </clipPath>
    <clipPath id="c">
      <rect width="142" height="134" x="7" y="18" fill="#fff" rx="10"/>
    </clipPath>
    <radialGradient id="d" cx="0" cy="0" r="1" gradientTransform="matrix(0 193.472 -205.022 0 133.674 106.023)" gradientUnits="userSpaceOnUse">
      <stop offset=".089" stop-color="#EB1000"/>
      <stop offset="1" stop-color="#EB1000" stop-opacity="0"/>
    </radialGradient>
  </defs>
  <mask id="b" width="122" height="106" x="19" y="27" maskUnits="userSpaceOnUse" style="mask-type:luminance">
    <path fill="#fff" fill-rule="evenodd" d="M35.75 27.93h48.07c8.84 0 16 7.16 16 16v88.13H73.83v-20.58c0-4.42-3.58-8-8-8H53.74c-4.42 0-8 3.58-8 8v20.58H19.75V43.93c0-8.84 7.16-16 16-16Zm12.79 56.56c2.21 0 4-1.79 4-4v-5.76c0-2.21-1.79-4-4-4h-5.76c-2.21 0-4 1.79-4 4v5.76c0 2.21 1.79 4 4 4h5.76Zm0-28.06c2.21 0 4-1.79 4-4v-5.76c0-2.21-1.79-4-4-4h-5.76c-2.21 0-4 1.79-4 4v5.76c0 2.21 1.79 4 4 4h5.76ZM76.8 84.49c2.21 0 4-1.79 4-4v-5.76c0-2.21-1.79-4-4-4h-5.76c-2.21 0-4 1.79-4 4v5.76c0 2.21 1.79 4 4 4h5.76Zm0-28.06c2.21 0 4-1.79 4-4v-5.76c0-2.21-1.79-4-4-4h-5.76c-2.21 0-4 1.79-4 4v5.76c0 2.21 1.79 4 4 4h5.76Zm47.44-6.87c8.84 0 16 7.16 16 16v66.5h-32.41v-82.5h16.41Zm-1.33 62.16c2.21 0 4-1.79 4-4v-5.76c0-2.21-1.79-4-4-4h-5.76c-2.21 0-4 1.79-4 4v5.76c0 2.21 1.79 4 4 4h5.76Zm0-28.06c2.21 0 4-1.79 4-4V73.9c0-2.21-1.79-4-4-4h-5.76c-2.21 0-4 1.79-4 4v5.76c0 2.21 1.79 4 4 4h5.76Z" clip-rule="evenodd"/>
  </mask>
  <g clip-path="url(#a)" mask="url(#b)">
    <g clip-path="url(#c)">
      <rect width="142" height="134" x="7" y="18" fill="#D9F4FD" rx="10"/>
      <ellipse cx="133.577" cy="106.094" fill="url(#d)" rx="205.022" ry="193.472"/>
      <path fill="url(#e)" d="M-5.78 59.97c-2.28-46.316 35.66-85.607 84.743-87.757 49.081-2.151 90.717 33.652 92.996 79.969 2.279 46.316-35.662 85.606-84.743 87.757-49.082 2.15-90.717-33.653-92.996-79.97Z"/>
      <path fill="url(#f)" d="M42.873-74.724c-11.072-6.465-25.1-6.505-36.214-.102l-111.152 64.043c-10.886 6.272-10.905 21.077-.033 27.373L5.892 80.542c11.096 6.426 25.125 6.418 36.212-.023l110.19-64.012c10.814-6.283 10.834-21.005.033-27.311L42.873-74.724Z"/>
      <path fill="url(#g)" d="M-63.79 82.093c22.91 0 43.663 8.75 58.689 22.866 30.05 28.28 54.963 28.304 85.013.072 15.026-14.188 35.804-22.962 58.74-22.962 45.846.024 82.985 34.975 82.985 78.121 0 43.145-37.139 78.072-82.985 78.072-22.987 0-43.766-8.798-58.79-22.986-30.025-28.184-54.913-28.16-84.963.121-15.026 14.14-35.778 22.865-58.688 22.865-45.821 0-82.96-34.951-82.96-78.072 0-43.122 37.139-78.097 82.96-78.097Z"/>
    </g>
  </g>
</svg>
