<svg xmlns="http://www.w3.org/2000/svg" width="160" height="160" fill="none" viewBox="0 0 160 160">
  <defs>
    <linearGradient id="e" x1="111.103" x2="30.523" y1="5.954" y2="110.429" gradientUnits="userSpaceOnUse">
      <stop stop-color="#FF4885"/>
      <stop offset="1" stop-color="#FF4885" stop-opacity="0"/>
    </linearGradient>
    <linearGradient id="f" x1="62.011" x2="77.555" y1="-42.142" y2="57.343" gradientUnits="userSpaceOnUse">
      <stop offset=".156" stop-color="#7A6AFD"/>
      <stop offset="1" stop-color="#7A6AFD" stop-opacity="0"/>
    </linearGradient>
    <linearGradient id="g" x1="-117.35" x2="144.195" y1="157.868" y2="106.177" gradientUnits="userSpaceOnUse">
      <stop stop-color="#30A7FE" stop-opacity="0"/>
      <stop offset=".432" stop-color="#30A7FE" stop-opacity=".995"/>
      <stop offset=".609" stop-color="#30A7FE"/>
      <stop offset="1" stop-color="#30A7FE" stop-opacity="0"/>
    </linearGradient>
    <clipPath id="a">
      <rect width="139.142" height="139.142" x="10.428" y="10.429" fill="#fff" rx="10"/>
    </clipPath>
    <clipPath id="c">
      <rect width="139.142" height="139.142" x="10.428" y="10.429" fill="#fff" rx="10"/>
    </clipPath>
    <radialGradient id="d" cx="0" cy="0" r="1" gradientTransform="rotate(90 16.276 118.18) scale(200.895)" gradientUnits="userSpaceOnUse">
      <stop offset=".089" stop-color="#EB1000"/>
      <stop offset="1" stop-color="#EB1000" stop-opacity="0"/>
    </radialGradient>
  </defs>
  <mask id="b" width="98" height="113" x="31" y="19" maskUnits="userSpaceOnUse" style="mask-type:luminance">
    <path fill="#fff" fill-rule="evenodd" d="M54 45.5c0-14.36 11.64-26 26-26s26 11.64 26 26a4 4 0 0 1-8 0c0-9.941-8.059-18-18-18s-18 8.059-18 18v21h53.636c7.381 0 13.364 5.457 13.364 12.188v40.624c0 6.731-5.983 12.188-13.364 12.188H44.364c-7.38 0-13.364-5.457-13.364-12.188V78.688C31 71.957 36.983 66.5 44.364 66.5H54v-21Zm20.346 55.153A7.834 7.834 0 0 0 76 101.924v7.576a4 4 0 0 0 8 0v-7.576a7.834 7.834 0 0 0 1.654-1.271c.372-.36.705-.773 1-1.214.293-.426.532-.893.733-1.373.199-.493.36-.986.453-1.506a7.64 7.64 0 0 0 0-3.12 7.484 7.484 0 0 0-.453-1.493c-.2-.494-.44-.947-.733-1.387a7.427 7.427 0 0 0-1-1.214A8.016 8.016 0 0 0 80 87a8.016 8.016 0 0 0-5.654 2.346c-.373.36-.707.774-1 1.214-.28.44-.534.893-.733 1.387-.2.48-.36.986-.453 1.492a7.645 7.645 0 0 0 0 3.12c.093.521.253 1.014.453 1.507.2.48.453.947.733 1.373.293.44.627.854 1 1.214Z" clip-rule="evenodd"/>
  </mask>
  <g clip-path="url(#a)" mask="url(#b)">
    <g clip-path="url(#c)">
      <rect width="139.142" height="139.142" x="10.428" y="10.429" fill="#D9F4FD" rx="10"/>
      <circle cx="134.456" cy="101.903" r="200.895" fill="url(#d)"/>
      <path fill="url(#e)" d="M-2.095 54.01C-4.33 5.915 32.849-34.883 80.942-37.116c48.093-2.233 88.891 34.944 91.124 83.037 2.233 48.094-34.944 88.891-83.037 91.124C40.936 139.28.138 102.103-2.095 54.009Z"/>
      <path fill="url(#f)" d="M45.578-85.853a33.917 33.917 0 0 0-35.484-.106l-108.915 66.5c-10.667 6.513-10.685 21.886-.033 28.424L9.342 75.37a33.916 33.916 0 0 0 35.483-.024L152.798 8.879c10.596-6.524 10.615-21.811.032-28.36L45.578-85.852Z"/>
      <path fill="url(#g)" d="M-58.937 76.981c22.45 0 42.784 9.086 57.507 23.743 29.445 29.366 53.857 29.391 83.303.076 14.722-14.733 35.082-23.844 57.556-23.844 44.924.025 81.315 36.318 81.315 81.119s-36.391 81.068-81.315 81.068c-22.524 0-42.884-9.136-57.607-23.869-29.42-29.265-53.807-29.24-83.252.126-14.723 14.682-35.058 23.743-57.507 23.743-44.898 0-81.289-36.293-81.289-81.068 0-44.776 36.391-81.094 81.29-81.094Z"/>
    </g>
  </g>
</svg>
