<?xml version="1.0" encoding="UTF-8"?>
<svg xmlns="http://www.w3.org/2000/svg" width="8" height="8" viewBox="0 0 8 8">

  <path id="e" data-name="Shape" d="m6.575,6.55499c.055.05603.092.13,0,.20001l-1.149.74103c-.092.05603-.129.01898-.166-.07397l-1.426-2.48199-1.871,2.05994c-.019.03601-.074.073-.129,0l-.889-.927c-.093-.05499-.074-.11102,0-.16602l2.111-1.76001-2.408-.90698c-.037,0-.092-.07397-.056-.16699l.63-1.25897c.01632-.05072.06953-.07971.121-.06598.01784.00549.03377.01593.046.03003l2.111,1.37.13-2.70001c-.00673-.05261.02882-.10138.081-.11102.00997-.00104.02003-.00104.03,0l1.537.20001c.093,0,.111.03699.093.13l-.723,2.64697,2.445-.74103c.055-.03699.111-.03699.148.07397l.241,1.37c.018.09302,0,.13-.074.13l-2.556.20001,1.723,2.20801Z" fill="var(--iconPrimary, #222)"/>
 
</svg>