<?xml version="1.0" encoding="UTF-8"?>
<svg xmlns="http://www.w3.org/2000/svg" width="10" height="10" viewBox="0 0 10 10">

  <path id="e" data-name="Shape" d="m8.266,8.32399c.07.07098.116.164,0,.258l-1.454.93799c-.116.07098-.163.02399-.21-.09399l-1.8-3.14099-2.367,2.59998c-.024.04498-.094.09198-.163,0l-1.13-1.16699c-.118-.07001-.094-.14099,0-.21002l2.671-2.22699-3.047-1.15094c-.047,0-.116-.09399-.071-.211l.8-1.59302c.01933-.06525.0876-.10272.153-.08398.02242.0072.04247.02032.058.03802l2.669,1.73798.164-3.422c-.00974-.06598.03444-.12781.1-.14001.01263-.00128.02537-.00128.038,0l1.945.258c.118,0,.14.047.118.164l-.915,3.349,3.094-.93799c.07-.047.14-.047.187.09399l.3,1.73401c.023.11798,0,.164-.094.164l-3.234.258,2.188,2.78497Z" fill="var(--iconPrimary, #222)"/>

</svg>