<?xml version="1.0" encoding="UTF-8"?>
<svg xmlns="http://www.w3.org/2000/svg" width="12" height="12" viewBox="0 0 12 12">

  <path d="m9.30103,6c0-.04883-.02002-.09521-.02783-.14343-.01074-.06726-.01294-.13586-.03894-.19971-.04456-.10974-.11121-.21252-.20007-.30139L4.34277.66309c-.35547-.35547-.93359-.35547-1.28906,0s-.35645.93262,0,1.28906l4.047,4.04785-4.047,4.04785c-.35645.35645-.35547.93359,0,1.28906.17773.17773.41113.2666.64453.2666s.4668-.08887.64453-.2666l4.69141-4.69238c.08887-.08887.15552-.19165.20007-.30139.026-.06384.0282-.13245.03894-.19971.00781-.04822.02783-.0946.02783-.14343Z" fill="var(--iconPrimary, #222)"/>

</svg>