<?xml version="1.0" encoding="UTF-8"?>
<svg id="ICONS" xmlns="http://www.w3.org/2000/svg" width="6" height="6" viewBox="0 0 6 6">
  <path d="m1.98535,5.96143c-.18848,0-.36523-.07373-.49805-.20801-.13135-.1333-.20312-.30957-.20166-.49658s.0752-.3623.20801-.49316l1.78564-1.76367-1.771-1.74902c-.13281-.13135-.20703-.30664-.20801-.49365-.00146-.18701.07031-.36328.20166-.49609.13281-.13428.30957-.2085.49854-.2085.18506,0,.35986.07178.4917.20215l2.2749,2.24707c.1377.13965.20947.31592.20801.50293s-.0752.3623-.20801.49316l-2.28955,2.26172c-.13184.12988-.30664.20166-.49219.20166Z" fill="var(--iconPrimary, #222)"/>
</svg>