<?xml version="1.0" encoding="UTF-8"?>
<svg xmlns="http://www.w3.org/2000/svg" width="12" height="12" viewBox="0 0 12 12">

  <path d="m7.34222,6l3.39606-3.39648c.37061-.37012.37061-.97168,0-1.34277-.37109-.36914-.97168-.37012-1.34277.00098l-3.39551,3.396L2.60449,1.26172c-.37109-.37109-.97168-.37012-1.34277-.00098-.37061.37109-.37061.97266,0,1.34277l3.39606,3.39648-3.39606,3.39648c-.37061.37012-.37061.97168,0,1.34277.18555.18457.42822.27734.67139.27734s.48584-.09277.67139-.27832l3.39551-3.396,3.39551,3.396c.18555.18555.42822.27832.67139.27832s.48584-.09277.67139-.27734c.37061-.37109.37061-.97266,0-1.34277l-3.39606-3.39648Z" fill="var(--iconPrimary, #222)"/>
 
</svg>