<?xml version="1.0" encoding="UTF-8"?>
<svg xmlns="http://www.w3.org/2000/svg" width="8" height="8" viewBox="0 0 8 8">

  <path d="m5.23779,4l2.45605-2.45605c.3418-.3418.3418-.89648,0-1.23828s-.89551-.3418-1.2373,0l-2.45654,2.45654L1.54346.30566C1.20166-.03613.64795-.03613.30615.30566S-.03564,1.20215.30615,1.54395l2.45605,2.45605L.30615,6.45605c-.3418.3418-.3418.89648,0,1.23828.1709.1709.39453.25586.61865.25586s.44775-.08496.61865-.25586l2.45654-2.45654,2.45654,2.45654c.1709.1709.39453.25586.61865.25586s.44775-.08496.61865-.25586c.3418-.3418.3418-.89648,0-1.23828l-2.45605-2.45605Z" fill="var(--iconPrimary, #222)"/>
  
</svg>