<?xml version="1.0" encoding="UTF-8"?>
<svg xmlns="http://www.w3.org/2000/svg" width="10" height="10" viewBox="0 0 10 10">

  <path d="m7.96531,5.17798c.01245-.05957.03369-.11743.03369-.17798s-.02124-.11841-.03369-.17798c-.0105-.05029-.0105-.10205-.03003-.15015-.02344-.05811-.06812-.10669-.10449-.15942-.02905-.04224-.04639-.08997-.08374-.12769-.00122-.00122-.00293-.00146-.00415-.00269s-.00146-.00293-.00269-.00415L3.61521.30273c-.34375-.33984-.89746-.33691-1.2373.00684s-.33691.89844.00684,1.2373l3.49536,3.45312-3.49536,3.45312c-.34375.33887-.34668.89355-.00684,1.2373.1709.17285.39648.25977.62207.25977.22168,0,.44434-.08398.61523-.25293l4.125-4.0752c.00122-.00122.00146-.00293.00269-.00415s.00293-.00146.00415-.00269c.03735-.03772.05469-.08545.08374-.12769.03638-.05273.08105-.10132.10449-.15942.01953-.0481.01953-.09985.03003-.15015Z" fill="var(--iconPrimary, #222)"/>
  
</svg>