<?xml version="1.0" encoding="UTF-8"?>
<svg xmlns="http://www.w3.org/2000/svg" width="10" height="10" viewBox="0 0 10 10">

  <path d="m6.289,5l2.92242-2.92285c.35596-.35645.35596-.93359,0-1.28906-.35645-.35547-.93359-.35547-1.28906,0l-2.92236,2.92285L2.07764.78809c-.35547-.35547-.93262-.35547-1.28906,0-.35596.35547-.35596.93262,0,1.28906l2.92242,2.92285L.78857,7.92285c-.35596.35645-.35596.93359,0,1.28906.17822.17773.41113.2666.64453.2666s.4668-.08887.64453-.2666l2.92236-2.92285,2.92236,2.92285c.17773.17773.41113.2666.64453.2666s.46631-.08887.64453-.2666c.35596-.35547.35596-.93262,0-1.28906l-2.92242-2.92285Z" fill="var(--iconPrimary, #222)"/>

</svg>