<?xml version="1.0" encoding="UTF-8"?>
<svg xmlns="http://www.w3.org/2000/svg" width="16" height="16" viewBox="0 0 16 16">

  <path d="m9.51807,8.00049l5.229-5.229c.41895-.41895.41895-1.09863,0-1.51758-.41992-.41797-1.09766-.41797-1.51758,0l-5.229,5.229L2.77148,1.25391c-.41992-.41797-1.09766-.41797-1.51758,0-.41895.41895-.41895,1.09863,0,1.51758l5.229,5.229L1.25391,13.22949c-.41895.41895-.41895,1.09863,0,1.51758.20996.20898.48438.31445.75879.31445s.54883-.10547.75879-.31445l5.229-5.229,5.229,5.229c.20996.20898.48438.31445.75879.31445s.54883-.10547.75879-.31445c.41895-.41895.41895-1.09863,0-1.51758l-5.229-5.229Z" fill="var(--iconPrimary, #222)"/>
  
</svg>