<?xml version="1.0" encoding="UTF-8"?>
<svg xmlns="http://www.w3.org/2000/svg" width="12" height="12" viewBox="0 0 12 12">

  <path d="m7.39844,6l3.93164-3.93164c.38623-.38574.38623-1.0127,0-1.39844-.38574-.38672-1.0127-.38672-1.39844,0l-3.93164,3.93164L2.06836.66992c-.38574-.38672-1.0127-.38672-1.39844,0-.38623.38574-.38623,1.0127,0,1.39844l3.93164,3.93164-3.93164,3.93164c-.38623.38574-.38623,1.0127,0,1.39844.19287.19336.44629.29004.69922.29004s.50635-.09668.69922-.29004l3.93164-3.93164,3.93164,3.93164c.19287.19336.44629.29004.69922.29004s.50635-.09668.69922-.29004c.38623-.38574.38623-1.0127,0-1.39844l-3.93164-3.93164Z" fill="var(--iconPrimary, #222)"/>

</svg>