<?xml version="1.0" encoding="UTF-8"?>
<svg xmlns="http://www.w3.org/2000/svg" width="14" height="14" viewBox="0 0 14 14">

  <path d="m8.45709,7l4.53949-4.53906c.40186-.40234.40186-1.05469,0-1.45703-.40234-.40234-1.05469-.40234-1.45703,0l-4.53955,4.53906L2.46045,1.00391c-.40234-.40234-1.05469-.40234-1.45703,0-.40186.40234-.40186,1.05469,0,1.45703l4.53949,4.53906L1.00342,11.53906c-.40186.40234-.40186,1.05469,0,1.45703.20117.20117.46484.30176.72852.30176s.52734-.10059.72852-.30176l4.53955-4.53906,4.53955,4.53906c.20117.20117.46484.30176.72852.30176s.52734-.10059.72852-.30176c.40186-.40234.40186-1.05469,0-1.45703l-4.53949-4.53906Z" fill="var(--iconPrimary, #222)"/>
  
</svg>