<?xml version="1.0" encoding="UTF-8"?>
<svg xmlns="http://www.w3.org/2000/svg" width="16" height="16" viewBox="0 0 16 16">
    <circle cx="8" cy="8" r="8" />
    <path d="M10,11.75c-.19238,0-.38379-.07324-.53027-.21973-.29297-.29297-.29297-.76758,0-1.06055l2.46973-2.46973-2.46973-2.46973c-.29297-.29297-.29297-.76758,0-1.06055s.76758-.29297,1.06055,0l3,3c.29297.29297.29297.76758,0,1.06055l-3,3c-.14648.14648-.33789.21973-.53027.21973Z" fill="var(--iconPrimary, #fff)" />
    <path d="M6,11.75c-.19238,0-.38379-.07324-.53027-.21973l-3-3c-.29297-.29297-.29297-.76758,0-1.06055l3-3c.29297-.29297.76758-.29297,1.06055,0s.29297.76758,0,1.06055l-2.46973,2.46973,2.46973,2.46973c.29297.29297.29297.76758,0,1.06055-.14648.14648-.33789.21973-.53027.21973Z" fill="var(--iconPrimary, #fff)" />
</svg>
