<svg version="1.1" xmlns="http://www.w3.org/2000/svg" xmlns:xlink="http://www.w3.org/1999/xlink" x="0px" y="0px"
	 viewBox="0 0 2160 36" style="enable-background:new 0 0 2160 36;" width="2160px" height="36px">
<style type="text/css">
	.st0{fill-opacity:0;stroke:#FFFFFF;stroke-width:3;stroke-opacity:0.06;}
	.st1{fill-opacity:0;stroke:#1473E6;stroke-width:3;}
</style>
<path class="st0" d="M18,3.5c8,0,14.5,6.5,14.5,14.5S26,32.5,18,32.5S3.5,26,3.5,18S10,3.5,18,3.5z"/>
<path class="st1" d="M18,3.5L18,3.5c8,0,14.5,6.5,14.5,14.5"/>
<path class="st0" d="M54,3.5c8,0,14.5,6.5,14.5,14.5S62,32.5,54,32.5S39.5,26,39.5,18S46,3.5,54,3.5z"/>
<path class="st1" d="M54.4,3.5c7.8,0.2,14.1,6.6,14.1,14.5c0,1.7-0.3,3.3-0.8,4.7"/>
<path class="st0" d="M90,3.5c8,0,14.5,6.5,14.5,14.5S98,32.5,90,32.5S75.5,26,75.5,18S82,3.5,90,3.5z"/>
<path class="st1" d="M90.8,3.5c7.6,0.4,13.7,6.8,13.7,14.5c0,3.3-1.1,6.3-3,8.8"/>
<path class="st0" d="M126,3.5c8,0,14.5,6.5,14.5,14.5S134,32.5,126,32.5S111.5,26,111.5,18S118,3.5,126,3.5z"/>
<path class="st1" d="M127.1,3.5c7.5,0.6,13.4,6.9,13.4,14.5c0,4.9-2.4,9.2-6.1,11.8"/>
<path class="st0" d="M162,3.5c8,0,14.5,6.5,14.5,14.5S170,32.5,162,32.5S147.5,26,147.5,18S154,3.5,162,3.5z"/>
<path class="st1" d="M163.5,3.6c7.3,0.8,13,6.9,13,14.4c0,6.4-4.1,11.8-9.8,13.7"/>
<path class="st0" d="M198,3.5c8,0,14.5,6.5,14.5,14.5S206,32.5,198,32.5S183.5,26,183.5,18S190,3.5,198,3.5z"/>
<path class="st1" d="M199.9,3.6c7.1,1,12.6,7,12.6,14.4c0,7.7-6.1,14.1-13.7,14.5"/>
<path class="st0" d="M234,3.5c8,0,14.5,6.5,14.5,14.5S242,32.5,234,32.5S219.5,26,219.5,18S226,3.5,234,3.5z"/>
<path class="st1" d="M236.3,3.7c6.9,1.1,12.2,7.1,12.2,14.3c0,8-6.5,14.5-14.5,14.5c-1,0-2-0.1-3-0.3"/>
<path class="st0" d="M270,3.5c8,0,14.5,6.5,14.5,14.5S278,32.5,270,32.5S255.5,26,255.5,18S262,3.5,270,3.5z"/>
<path class="st1" d="M272.6,3.7c6.8,1.3,11.9,7.2,11.9,14.3c0,8-6.5,14.5-14.5,14.5c-2.3,0-4.5-0.5-6.4-1.5"/>
<path class="st0" d="M306,3.5c8,0,14.5,6.5,14.5,14.5S314,32.5,306,32.5S291.5,26,291.5,18S298,3.5,306,3.5z"/>
<path class="st1" d="M309,3.8c6.6,1.4,11.5,7.2,11.5,14.2c0,8-6.5,14.5-14.5,14.5c-3.5,0-6.7-1.3-9.3-3.3"/>
<path class="st0" d="M342,3.5c8,0,14.5,6.5,14.5,14.5S350,32.5,342,32.5S327.5,26,327.5,18S334,3.5,342,3.5z"/>
<path class="st1" d="M345.4,3.9c6.4,1.5,11.1,7.3,11.1,14.1c0,8-6.5,14.5-14.5,14.5c-4.7,0-8.9-2.2-11.5-5.7"/>
<path class="st0" d="M378,3.5c8,0,14.5,6.5,14.5,14.5S386,32.5,378,32.5S363.5,26,363.5,18S370,3.5,378,3.5z"/>
<path class="st1" d="M381.8,4c6.2,1.7,10.7,7.3,10.7,14c0,8-6.5,14.5-14.5,14.5c-5.8,0-10.8-3.4-13.1-8.3"/>
<path class="st0" d="M414,3.5c8,0,14.5,6.5,14.5,14.5S422,32.5,414,32.5S399.5,26,399.5,18S406,3.5,414,3.5z"/>
<path class="st1" d="M418.1,4.1c6,1.8,10.4,7.3,10.4,13.9c0,8-6.5,14.5-14.5,14.5c-6.8,0-12.6-4.7-14.1-11.1"/>
<path class="st0" d="M450,3.5c8,0,14.5,6.5,14.5,14.5S458,32.5,450,32.5S435.5,26,435.5,18S442,3.5,450,3.5z"/>
<path class="st1" d="M454.5,4.2c5.8,1.9,10,7.4,10,13.8c0,8-6.5,14.5-14.5,14.5c-7.8,0-14.1-6.1-14.5-13.8"/>
<path class="st0" d="M486,3.5c8,0,14.5,6.5,14.5,14.5S494,32.5,486,32.5S471.5,26,471.5,18S478,3.5,486,3.5z"/>
<path class="st1" d="M490.8,4.3c5.6,2,9.7,7.4,9.7,13.7c0,8-6.5,14.5-14.5,14.5S471.5,26,471.5,18c0-0.7,0-1.3,0.1-2"/>
<path class="st0" d="M522,3.5c8,0,14.5,6.5,14.5,14.5S530,32.5,522,32.5S507.5,26,507.5,18S514,3.5,522,3.5z"/>
<path class="st1" d="M527.2,4.5c5.4,2.1,9.3,7.4,9.3,13.5c0,8-6.5,14.5-14.5,14.5S507.5,26,507.5,18c0-1.5,0.2-3,0.7-4.4"/>
<path class="st0" d="M558,3.5c8,0,14.5,6.5,14.5,14.5S566,32.5,558,32.5S543.5,26,543.5,18S550,3.5,558,3.5z"/>
<path class="st1" d="M563.5,4.6c5.3,2.2,9,7.4,9,13.4c0,8-6.5,14.5-14.5,14.5S543.5,26,543.5,18c0-2.4,0.6-4.6,1.6-6.6"/>
<path class="st0" d="M594,3.5c8,0,14.5,6.5,14.5,14.5S602,32.5,594,32.5S579.5,26,579.5,18S586,3.5,594,3.5z"/>
<path class="st1" d="M599.9,4.8c5.1,2.2,8.6,7.3,8.6,13.2c0,8-6.5,14.5-14.5,14.5S579.5,26,579.5,18c0-3.2,1-6.1,2.8-8.5"/>
<path class="st0" d="M630,3.5c8,0,14.5,6.5,14.5,14.5S638,32.5,630,32.5S615.5,26,615.5,18S622,3.5,630,3.5z"/>
<path class="st1" d="M636.3,4.9c4.9,2.3,8.2,7.3,8.2,13.1c0,8-6.5,14.5-14.5,14.5S615.5,26,615.5,18c0-3.9,1.6-7.5,4.1-10.1"/>
<path class="st0" d="M666,3.5c8,0,14.5,6.5,14.5,14.5S674,32.5,666,32.5S651.5,26,651.5,18S658,3.5,666,3.5z"/>
<path class="st1" d="M677.3,8.9c2,2.5,3.2,5.6,3.2,9.1c0,8-6.5,14.5-14.5,14.5S651.5,26,651.5,18c0-4.7,2.2-8.8,5.6-11.5"/>
<path class="st0" d="M702,3.5c8,0,14.5,6.5,14.5,14.5S710,32.5,702,32.5S687.5,26,687.5,18S694,3.5,702,3.5z"/>
<path class="st1" d="M716,14.3c0.3,1.2,0.5,2.4,0.5,3.7c0,8-6.5,14.5-14.5,14.5S687.5,26,687.5,18c0-5.3,2.9-10,7.2-12.5"/>
<path class="st0" d="M738,3.5c8,0,14.5,6.5,14.5,14.5S746,32.5,738,32.5S723.5,26,723.5,18S730,3.5,738,3.5z"/>
<path class="st1" d="M752.4,20c-1,7.1-7,12.5-14.4,12.5c-8,0-14.5-6.5-14.5-14.5c0-6,3.6-11.1,8.8-13.3"/>
<path class="st0" d="M774,3.5c8,0,14.5,6.5,14.5,14.5S782,32.5,774,32.5S759.5,26,759.5,18S766,3.5,774,3.5z"/>
<path class="st1" d="M786.7,25c-2.5,4.5-7.2,7.5-12.7,7.5c-8,0-14.5-6.5-14.5-14.5c0-6.6,4.4-12.1,10.3-13.9"/>
<path class="st0" d="M810,3.5c8,0,14.5,6.5,14.5,14.5S818,32.5,810,32.5S795.5,26,795.5,18S802,3.5,810,3.5z"/>
<path class="st1" d="M819.6,28.8c-2.6,2.3-5.9,3.7-9.6,3.7c-8,0-14.5-6.5-14.5-14.5c0-7.1,5.1-13,11.9-14.3"/>
<path class="st0" d="M846,3.5c8,0,14.5,6.5,14.5,14.5S854,32.5,846,32.5S831.5,26,831.5,18S838,3.5,846,3.5z"/>
<path class="st1" d="M851.8,31.3c-1.8,0.8-3.7,1.2-5.8,1.2c-8,0-14.5-6.5-14.5-14.5c0-7.6,5.9-13.9,13.4-14.5"/>
<path class="st0" d="M882,3.5c8,0,14.5,6.5,14.5,14.5S890,32.5,882,32.5S867.5,26,867.5,18S874,3.5,882,3.5z"/>
<path class="st1" d="M883.7,32.4c-0.6,0.1-1.1,0.1-1.7,0.1c-8,0-14.5-6.5-14.5-14.5S874,3.5,882,3.5c0.1,0,0.2,0,0.3,0"/>
<path class="st0" d="M918,3.5c8,0,14.5,6.5,14.5,14.5S926,32.5,918,32.5S903.5,26,903.5,18S910,3.5,918,3.5z"/>
<path class="st1" d="M915.7,32.3c-6.9-1.1-12.2-7.1-12.2-14.3c0-8,6.5-14.5,14.5-14.5c0.5,0,1.1,0,1.6,0.1"/>
<path class="st0" d="M954,3.5c8,0,14.5,6.5,14.5,14.5S962,32.5,954,32.5S939.5,26,939.5,18S946,3.5,954,3.5z"/>
<path class="st1" d="M948.2,31.3c-5.1-2.2-8.7-7.3-8.7-13.3c0-8,6.5-14.5,14.5-14.5c1,0,1.9,0.1,2.8,0.3"/>
<path class="st0" d="M990,3.5c8,0,14.5,6.5,14.5,14.5S998,32.5,990,32.5S975.5,26,975.5,18S982,3.5,990,3.5z"/>
<path class="st1" d="M981.3,29.6c-3.5-2.6-5.8-6.9-5.8-11.6c0-8,6.5-14.5,14.5-14.5c1.4,0,2.7,0.2,3.9,0.5"/>
<path class="st0" d="M1026,3.5c8,0,14.5,6.5,14.5,14.5s-6.5,14.5-14.5,14.5s-14.5-6.5-14.5-14.5S1018,3.5,1026,3.5z"/>
<path class="st1" d="M1015,27.5c-2.2-2.5-3.5-5.9-3.5-9.5c0-8,6.5-14.5,14.5-14.5c1.8,0,3.4,0.3,5,0.9"/>
<path class="st0" d="M1062,3.5c8,0,14.5,6.5,14.5,14.5s-6.5,14.5-14.5,14.5s-14.5-6.5-14.5-14.5S1054,3.5,1062,3.5z"/>
<path class="st1" d="M1049.4,25.1c-1.2-2.1-1.9-4.5-1.9-7.1c0-8,6.5-14.5,14.5-14.5c2.1,0,4.1,0.5,6,1.3"/>
<path class="st0" d="M1098,3.5c8,0,14.5,6.5,14.5,14.5s-6.5,14.5-14.5,14.5s-14.5-6.5-14.5-14.5S1090,3.5,1098,3.5z"/>
<path class="st1" d="M1084.3,22.7c-0.5-1.5-0.8-3.1-0.8-4.7c0-8,6.5-14.5,14.5-14.5c2.5,0,4.8,0.6,6.8,1.7"/>
<path class="st0" d="M1134,3.5c8,0,14.5,6.5,14.5,14.5s-6.5,14.5-14.5,14.5s-14.5-6.5-14.5-14.5S1126,3.5,1134,3.5z"/>
<path class="st1" d="M1119.7,20.4c-0.1-0.8-0.2-1.6-0.2-2.4c0-8,6.5-14.5,14.5-14.5c2.8,0,5.4,0.8,7.6,2.2"/>
<path class="st0" d="M1170,3.5c8,0,14.5,6.5,14.5,14.5s-6.5,14.5-14.5,14.5s-14.5-6.5-14.5-14.5S1162,3.5,1170,3.5z"/>
<path class="st1" d="M1155.5,18.1V18c0-8,6.5-14.5,14.5-14.5c3.1,0,6,1,8.4,2.7"/>
<path class="st0" d="M1206,3.5c8,0,14.5,6.5,14.5,14.5s-6.5,14.5-14.5,14.5s-14.5-6.5-14.5-14.5S1198,3.5,1206,3.5z"/>
<path class="st1" d="M1191.6,16.1c1-7.1,7-12.6,14.4-12.6c3.4,0,6.5,1.2,9,3.1"/>
<path class="st0" d="M1242,3.5c8,0,14.5,6.5,14.5,14.5s-6.5,14.5-14.5,14.5s-14.5-6.5-14.5-14.5S1234,3.5,1242,3.5z"/>
<path class="st1" d="M1228,14.3c1.6-6.2,7.3-10.8,14-10.8c3.7,0,7,1.4,9.6,3.6"/>
<path class="st0" d="M1278,3.5c8,0,14.5,6.5,14.5,14.5s-6.5,14.5-14.5,14.5s-14.5-6.5-14.5-14.5S1270,3.5,1278,3.5z"/>
<path class="st1" d="M1264.5,12.7c2.2-5.4,7.4-9.2,13.5-9.2c3.9,0,7.5,1.6,10.1,4.1"/>
<path class="st0" d="M1314,3.5c8,0,14.5,6.5,14.5,14.5s-6.5,14.5-14.5,14.5s-14.5-6.5-14.5-14.5S1306,3.5,1314,3.5z"/>
<path class="st1" d="M1301.2,11.2c2.4-4.6,7.2-7.7,12.8-7.7c4.2,0,8,1.8,10.6,4.6"/>
<path class="st0" d="M1350,3.5c8,0,14.5,6.5,14.5,14.5s-6.5,14.5-14.5,14.5s-14.5-6.5-14.5-14.5S1342,3.5,1350,3.5z"/>
<path class="st1" d="M1337.9,10c2.6-3.9,7-6.5,12.1-6.5c4.4,0,8.4,2,11,5.1"/>
<path class="st0" d="M1386,3.5c8,0,14.5,6.5,14.5,14.5s-6.5,14.5-14.5,14.5s-14.5-6.5-14.5-14.5S1378,3.5,1386,3.5z"/>
<path class="st1" d="M1374.7,9c2.6-3.4,6.7-5.5,11.3-5.5s8.8,2.2,11.4,5.6"/>
<path class="st0" d="M1422,3.5c8,0,14.5,6.5,14.5,14.5s-6.5,14.5-14.5,14.5s-14.5-6.5-14.5-14.5S1414,3.5,1422,3.5z"/>
<path class="st1" d="M1411.4,8.1c2.7-2.8,6.4-4.6,10.6-4.6c4.9,0,9.2,2.4,11.8,6.1"/>
<path class="st0" d="M1458,3.5c8,0,14.5,6.5,14.5,14.5s-6.5,14.5-14.5,14.5s-14.5-6.5-14.5-14.5S1450,3.5,1458,3.5z"/>
<path class="st1" d="M1448.2,7.3c2.6-2.4,6-3.8,9.8-3.8c5.1,0,9.5,2.6,12.1,6.5"/>
<path class="st0" d="M1494,3.5c8,0,14.5,6.5,14.5,14.5s-6.5,14.5-14.5,14.5s-14.5-6.5-14.5-14.5S1486,3.5,1494,3.5z"/>
<path class="st1" d="M1484.9,6.7c2.5-2,5.7-3.2,9.1-3.2c5.2,0,9.8,2.8,12.4,7"/>
<path class="st0" d="M1530,3.5c8,0,14.5,6.5,14.5,14.5s-6.5,14.5-14.5,14.5s-14.5-6.5-14.5-14.5S1522,3.5,1530,3.5z"/>
<path class="st1" d="M1521.6,6.2c2.4-1.7,5.3-2.7,8.4-2.7c5.4,0,10.2,3,12.7,7.4"/>
<path class="st0" d="M1566,3.5c8,0,14.5,6.5,14.5,14.5s-6.5,14.5-14.5,14.5s-14.5-6.5-14.5-14.5S1558,3.5,1566,3.5z"/>
<path class="st1" d="M1558.3,5.7c2.2-1.4,4.9-2.2,7.7-2.2c5.6,0,10.5,3.2,12.9,7.8"/>
<path class="st0" d="M1602,3.5c8,0,14.5,6.5,14.5,14.5s-6.5,14.5-14.5,14.5s-14.5-6.5-14.5-14.5S1594,3.5,1602,3.5z"/>
<path class="st1" d="M1594.9,5.3c2.1-1.1,4.5-1.8,7.1-1.8c5.8,0,10.8,3.4,13.1,8.3"/>
<path class="st0" d="M1638,3.5c8,0,14.5,6.5,14.5,14.5s-6.5,14.5-14.5,14.5s-14.5-6.5-14.5-14.5S1630,3.5,1638,3.5z"/>
<path class="st1" d="M1631.5,5c1.9-1,4.1-1.5,6.5-1.5c5.9,0,11.1,3.6,13.3,8.7"/>
<path class="st0" d="M1674,3.5c8,0,14.5,6.5,14.5,14.5s-6.5,14.5-14.5,14.5s-14.5-6.5-14.5-14.5S1666,3.5,1674,3.5z"/>
<path class="st1" d="M1668.1,4.8c1.8-0.8,3.8-1.3,5.9-1.3c6.1,0,11.3,3.8,13.5,9.1"/>
<path class="st0" d="M1710,3.5c8,0,14.5,6.5,14.5,14.5s-6.5,14.5-14.5,14.5s-14.5-6.5-14.5-14.5S1702,3.5,1710,3.5z"/>
<path class="st1" d="M1704.6,4.5c1.7-0.7,3.5-1,5.4-1c6.3,0,11.6,4,13.6,9.5"/>
<path class="st0" d="M1746,3.5c8,0,14.5,6.5,14.5,14.5s-6.5,14.5-14.5,14.5s-14.5-6.5-14.5-14.5S1738,3.5,1746,3.5z"/>
<path class="st1" d="M1741.1,4.3c1.5-0.5,3.2-0.8,4.9-0.8c6.4,0,11.8,4.2,13.8,9.9"/>
<path class="st0" d="M1782,3.5c8,0,14.5,6.5,14.5,14.5s-6.5,14.5-14.5,14.5s-14.5-6.5-14.5-14.5S1774,3.5,1782,3.5z"/>
<path class="st1" d="M1777.6,4.2c1.4-0.5,2.9-0.7,4.4-0.7c6.5,0,12.1,4.3,13.9,10.3"/>
<path class="st0" d="M1818,3.5c8,0,14.5,6.5,14.5,14.5s-6.5,14.5-14.5,14.5s-14.5-6.5-14.5-14.5S1810,3.5,1818,3.5z"/>
<path class="st1" d="M1814.1,4c1.3-0.4,2.6-0.5,3.9-0.5c6.7,0,12.3,4.5,14,10.7"/>
<path class="st0" d="M1854,3.5c8,0,14.5,6.5,14.5,14.5s-6.5,14.5-14.5,14.5s-14.5-6.5-14.5-14.5S1846,3.5,1854,3.5z"/>
<path class="st1" d="M1850.5,3.9c1.1-0.3,2.3-0.4,3.5-0.4c6.8,0,12.6,4.7,14.1,11.1"/>
<path class="st0" d="M1890,3.5c8,0,14.5,6.5,14.5,14.5s-6.5,14.5-14.5,14.5s-14.5-6.5-14.5-14.5S1882,3.5,1890,3.5z"/>
<path class="st1" d="M1886.9,3.8c1-0.2,2-0.3,3.1-0.3c7,0,12.8,4.9,14.2,11.5"/>
<path class="st0" d="M1926,3.5c8,0,14.5,6.5,14.5,14.5s-6.5,14.5-14.5,14.5s-14.5-6.5-14.5-14.5S1918,3.5,1926,3.5z"/>
<path class="st1" d="M1923.3,3.7c0.9-0.2,1.8-0.2,2.7-0.2c7.1,0,13,5.1,14.3,11.8"/>
<path class="st0" d="M1962,3.5c8,0,14.5,6.5,14.5,14.5s-6.5,14.5-14.5,14.5s-14.5-6.5-14.5-14.5S1954,3.5,1962,3.5z"/>
<path class="st1" d="M1959.7,3.7c0.7-0.1,1.5-0.2,2.3-0.2c7.2,0,13.2,5.3,14.3,12.2"/>
<path class="st0" d="M1998,3.5c8,0,14.5,6.5,14.5,14.5s-6.5,14.5-14.5,14.5s-14.5-6.5-14.5-14.5S1990,3.5,1998,3.5z"/>
<path class="st1" d="M1996.1,3.6c0.6-0.1,1.3-0.1,1.9-0.1c7.4,0,13.4,5.5,14.4,12.6"/>
<path class="st0" d="M2034,3.5c8,0,14.5,6.5,14.5,14.5s-6.5,14.5-14.5,14.5s-14.5-6.5-14.5-14.5S2026,3.5,2034,3.5z"/>
<path class="st1" d="M2032.5,3.6c0.5-0.1,1-0.1,1.5-0.1c7.5,0,13.7,5.7,14.4,13"/>
<path class="st0" d="M2070,3.5c8,0,14.5,6.5,14.5,14.5s-6.5,14.5-14.5,14.5s-14.5-6.5-14.5-14.5S2062,3.5,2070,3.5z"/>
<path class="st1" d="M2068.9,3.5c0.4,0,0.8,0,1.1,0c7.6,0,13.9,5.9,14.5,13.4"/>
<path class="st0" d="M2106,3.5c8,0,14.5,6.5,14.5,14.5s-6.5,14.5-14.5,14.5s-14.5-6.5-14.5-14.5S2098,3.5,2106,3.5z"/>
<path class="st1" d="M2105.2,3.5c0.3,0,0.5,0,0.8,0c7.7,0,14.1,6.1,14.5,13.7"/>
<path class="st0" d="M2142,3.5c8,0,14.5,6.5,14.5,14.5s-6.5,14.5-14.5,14.5s-14.5-6.5-14.5-14.5S2134,3.5,2142,3.5z"/>
<path class="st1" d="M2141.6,3.5c0.1,0,0.3,0,0.4,0c7.9,0,14.3,6.3,14.5,14.1"/>
</svg>
